<svg xmlns="http://www.w3.org/2000/svg" width="960" height="540" viewBox="0 0 960 540">
  <rect width="960" height="540" rx="24" fill="#0b1220" />
  <rect x="28" y="28" width="904" height="484" rx="22" fill="#111827" stroke="#1f2937" />
  <text x="56" y="74" fill="#f3f4f6" font-size="34" font-weight="700">1000BONKUSDT · AB=CD</text>
  <text x="904" y="74" fill="#8ba0b5" font-size="20" text-anchor="end">Bearish (매도) · Score 82.3</text>
  <line x1="72" y1="58" x2="920" y2="58" stroke="#223045" stroke-width="1" stroke-dasharray="4 8" /><line x1="72" y1="156" x2="920" y2="156" stroke="#223045" stroke-width="1" stroke-dasharray="4 8" /><line x1="72" y1="255" x2="920" y2="255" stroke="#223045" stroke-width="1" stroke-dasharray="4 8" /><line x1="72" y1="353" x2="920" y2="353" stroke="#223045" stroke-width="1" stroke-dasharray="4 8" /><line x1="72" y1="452" x2="920" y2="452" stroke="#223045" stroke-width="1" stroke-dasharray="4 8" />
  <rect x="612.91" y="122.21" width="84" height="19.82" fill="#fbbf24" fill-opacity="0.12" stroke="#fbbf24" stroke-width="1.5" stroke-dasharray="6 6" />
  <line x1="72.00" y1="193.96" x2="72.00" y2="237.56" stroke="#f6465d" stroke-width="1.4" /><rect x="69.00" y="212.98" width="6" height="7.93" rx="1.5" fill="#f6465d" /><line x1="82.73" y1="211.00" x2="82.73" y2="266.89" stroke="#f6465d" stroke-width="1.4" /><rect x="79.73" y="220.91" width="6" height="6.34" rx="1.5" fill="#f6465d" /><line x1="93.47" y1="194.75" x2="93.47" y2="244.30" stroke="#0ecb81" stroke-width="1.4" /><rect x="90.47" y="200.70" width="6" height="26.95" rx="1.5" fill="#0ecb81" /><line x1="104.20" y1="194.35" x2="104.20" y2="232.01" stroke="#f6465d" stroke-width="1.4" /><rect x="101.20" y="200.70" width="6" height="21.01" rx="1.5" fill="#f6465d" /><line x1="114.94" y1="209.02" x2="114.94" y2="254.21" stroke="#f6465d" stroke-width="1.4" /><rect x="111.94" y="221.70" width="6" height="12.29" rx="1.5" fill="#f6465d" /><line x1="125.67" y1="221.31" x2="125.67" y2="258.17" stroke="#0ecb81" stroke-width="1.4" /><rect x="122.67" y="233.60" width="6" height="2.00" rx="1.5" fill="#0ecb81" /><line x1="136.41" y1="132.92" x2="136.41" y2="235.18" stroke="#0ecb81" stroke-width="1.4" /><rect x="133.41" y="136.09" width="6" height="97.51" rx="1.5" fill="#0ecb81" /><line x1="147.14" y1="114.68" x2="147.14" y2="165.81" stroke="#f6465d" stroke-width="1.4" /><rect x="144.14" y="136.09" width="6" height="21.40" rx="1.5" fill="#f6465d" /><line x1="157.87" y1="83.37" x2="157.87" y2="175.72" stroke="#0ecb81" stroke-width="1.4" /><rect x="154.87" y="92.09" width="6" height="65.80" rx="1.5" fill="#0ecb81" /><line x1="168.61" y1="58.00" x2="168.61" y2="117.46" stroke="#f6465d" stroke-width="1.4" /><rect x="165.61" y="92.09" width="6" height="2.00" rx="1.5" fill="#f6465d" /><line x1="179.34" y1="63.95" x2="179.34" y2="142.43" stroke="#f6465d" stroke-width="1.4" /><rect x="176.34" y="94.07" width="6" height="37.66" rx="1.5" fill="#f6465d" /><line x1="190.08" y1="91.30" x2="190.08" y2="133.31" stroke="#0ecb81" stroke-width="1.4" /><rect x="187.08" y="108.34" width="6" height="23.39" rx="1.5" fill="#0ecb81" /><line x1="200.81" y1="105.96" x2="200.81" y2="135.69" stroke="#f6465d" stroke-width="1.4" /><rect x="197.81" y="108.34" width="6" height="17.84" rx="1.5" fill="#f6465d" /><line x1="211.54" y1="116.27" x2="211.54" y2="170.97" stroke="#f6465d" stroke-width="1.4" /><rect x="208.54" y="125.78" width="6" height="39.24" rx="1.5" fill="#f6465d" /><line x1="222.28" y1="165.02" x2="222.28" y2="218.14" stroke="#f6465d" stroke-width="1.4" /><rect x="219.28" y="165.02" width="6" height="39.24" rx="1.5" fill="#f6465d" /><line x1="233.01" y1="200.30" x2="233.01" y2="246.28" stroke="#f6465d" stroke-width="1.4" /><rect x="230.01" y="204.26" width="6" height="34.88" rx="1.5" fill="#f6465d" /><line x1="243.75" y1="202.28" x2="243.75" y2="253.41" stroke="#0ecb81" stroke-width="1.4" /><rect x="240.75" y="237.96" width="6" height="2.00" rx="1.5" fill="#0ecb81" /><line x1="254.48" y1="237.56" x2="254.48" y2="278.39" stroke="#f6465d" stroke-width="1.4" /><rect x="251.48" y="238.35" width="6" height="30.52" rx="1.5" fill="#f6465d" /><line x1="265.22" y1="221.31" x2="265.22" y2="276.01" stroke="#0ecb81" stroke-width="1.4" /><rect x="262.22" y="247.07" width="6" height="21.80" rx="1.5" fill="#0ecb81" /><line x1="275.95" y1="224.08" x2="275.95" y2="253.41" stroke="#f6465d" stroke-width="1.4" /><rect x="272.95" y="247.07" width="6" height="2.00" rx="1.5" fill="#f6465d" /><line x1="286.68" y1="234.78" x2="286.68" y2="266.89" stroke="#0ecb81" stroke-width="1.4" /><rect x="283.68" y="234.78" width="6" height="12.68" rx="1.5" fill="#0ecb81" /><line x1="297.42" y1="230.42" x2="297.42" y2="333.88" stroke="#f6465d" stroke-width="1.4" /><rect x="294.42" y="235.18" width="6" height="72.93" rx="1.5" fill="#f6465d" /><line x1="308.15" y1="286.71" x2="308.15" y2="325.56" stroke="#0ecb81" stroke-width="1.4" /><rect x="305.15" y="304.55" width="6" height="3.17" rx="1.5" fill="#0ecb81" /><line x1="318.89" y1="302.57" x2="318.89" y2="329.92" stroke="#f6465d" stroke-width="1.4" /><rect x="315.89" y="305.34" width="6" height="6.74" rx="1.5" fill="#f6465d" /><line x1="329.62" y1="301.77" x2="329.62" y2="332.69" stroke="#f6465d" stroke-width="1.4" /><rect x="326.62" y="312.47" width="6" height="8.72" rx="1.5" fill="#f6465d" /><line x1="340.35" y1="312.08" x2="340.35" y2="342.60" stroke="#f6465d" stroke-width="1.4" /><rect x="337.35" y="320.80" width="6" height="19.03" rx="1.5" fill="#f6465d" /><line x1="351.09" y1="306.13" x2="351.09" y2="352.91" stroke="#0ecb81" stroke-width="1.4" /><rect x="348.09" y="308.51" width="6" height="31.31" rx="1.5" fill="#0ecb81" /><line x1="361.82" y1="294.64" x2="361.82" y2="320.40" stroke="#0ecb81" stroke-width="1.4" /><rect x="358.82" y="305.34" width="6" height="2.77" rx="1.5" fill="#0ecb81" /><line x1="372.56" y1="220.12" x2="372.56" y2="316.84" stroke="#0ecb81" stroke-width="1.4" /><rect x="369.56" y="249.45" width="6" height="55.89" rx="1.5" fill="#0ecb81" /><line x1="383.29" y1="245.09" x2="383.29" y2="277.59" stroke="#f6465d" stroke-width="1.4" /><rect x="380.29" y="249.05" width="6" height="22.99" rx="1.5" fill="#f6465d" /><line x1="394.03" y1="260.95" x2="394.03" y2="326.74" stroke="#f6465d" stroke-width="1.4" /><rect x="391.03" y="272.04" width="6" height="42.81" rx="1.5" fill="#f6465d" /><line x1="404.76" y1="300.98" x2="404.76" y2="330.31" stroke="#0ecb81" stroke-width="1.4" /><rect x="401.76" y="304.15" width="6" height="10.70" rx="1.5" fill="#0ecb81" /><line x1="415.49" y1="299.79" x2="415.49" y2="320.80" stroke="#f6465d" stroke-width="1.4" /><rect x="412.49" y="304.55" width="6" height="12.68" rx="1.5" fill="#f6465d" /><line x1="426.23" y1="312.47" x2="426.23" y2="338.24" stroke="#f6465d" stroke-width="1.4" /><rect x="423.23" y="317.23" width="6" height="7.53" rx="1.5" fill="#f6465d" /><line x1="436.96" y1="320.80" x2="436.96" y2="352.51" stroke="#f6465d" stroke-width="1.4" /><rect x="433.96" y="325.16" width="6" height="18.23" rx="1.5" fill="#f6465d" /><line x1="447.70" y1="335.07" x2="447.70" y2="362.42" stroke="#f6465d" stroke-width="1.4" /><rect x="444.70" y="343.39" width="6" height="6.34" rx="1.5" fill="#f6465d" /><line x1="458.43" y1="317.23" x2="458.43" y2="412.76" stroke="#f6465d" stroke-width="1.4" /><rect x="455.43" y="349.73" width="6" height="2.77" rx="1.5" fill="#f6465d" /><line x1="469.16" y1="274.42" x2="469.16" y2="353.70" stroke="#0ecb81" stroke-width="1.4" /><rect x="466.16" y="283.14" width="6" height="68.97" rx="1.5" fill="#0ecb81" /><line x1="479.90" y1="232.01" x2="479.90" y2="283.14" stroke="#0ecb81" stroke-width="1.4" /><rect x="476.90" y="234.39" width="6" height="48.75" rx="1.5" fill="#0ecb81" /><line x1="490.63" y1="220.91" x2="490.63" y2="281.56" stroke="#f6465d" stroke-width="1.4" /><rect x="487.63" y="234.78" width="6" height="21.01" rx="1.5" fill="#f6465d" /><line x1="501.37" y1="238.75" x2="501.37" y2="277.59" stroke="#0ecb81" stroke-width="1.4" /><rect x="498.37" y="255.40" width="6" height="2.00" rx="1.5" fill="#0ecb81" /><line x1="512.10" y1="250.24" x2="512.10" y2="313.27" stroke="#f6465d" stroke-width="1.4" /><rect x="509.10" y="255.40" width="6" height="42.41" rx="1.5" fill="#f6465d" /><line x1="522.84" y1="269.27" x2="522.84" y2="302.17" stroke="#0ecb81" stroke-width="1.4" /><rect x="519.84" y="293.85" width="6" height="4.36" rx="1.5" fill="#0ecb81" /><line x1="533.57" y1="246.68" x2="533.57" y2="302.96" stroke="#0ecb81" stroke-width="1.4" /><rect x="530.57" y="271.65" width="6" height="22.20" rx="1.5" fill="#0ecb81" /><line x1="544.30" y1="261.74" x2="544.30" y2="292.66" stroke="#f6465d" stroke-width="1.4" /><rect x="541.30" y="271.65" width="6" height="8.32" rx="1.5" fill="#f6465d" /><line x1="555.04" y1="277.20" x2="555.04" y2="333.88" stroke="#f6465d" stroke-width="1.4" /><rect x="552.04" y="279.58" width="6" height="28.54" rx="1.5" fill="#f6465d" /><line x1="565.77" y1="262.93" x2="565.77" y2="325.95" stroke="#f6465d" stroke-width="1.4" /><rect x="562.77" y="307.72" width="6" height="5.15" rx="1.5" fill="#f6465d" /><line x1="576.51" y1="251.04" x2="576.51" y2="316.84" stroke="#0ecb81" stroke-width="1.4" /><rect x="573.51" y="262.13" width="6" height="50.74" rx="1.5" fill="#0ecb81" /><line x1="587.24" y1="251.83" x2="587.24" y2="279.97" stroke="#0ecb81" stroke-width="1.4" /><rect x="584.24" y="257.77" width="6" height="4.76" rx="1.5" fill="#0ecb81" /><line x1="597.97" y1="249.05" x2="597.97" y2="286.31" stroke="#0ecb81" stroke-width="1.4" /><rect x="594.97" y="250.64" width="6" height="7.13" rx="1.5" fill="#0ecb81" /><line x1="608.71" y1="201.09" x2="608.71" y2="264.91" stroke="#0ecb81" stroke-width="1.4" /><rect x="605.71" y="220.12" width="6" height="30.52" rx="1.5" fill="#0ecb81" /><line x1="619.44" y1="212.98" x2="619.44" y2="245.09" stroke="#f6465d" stroke-width="1.4" /><rect x="616.44" y="220.12" width="6" height="11.49" rx="1.5" fill="#f6465d" /><line x1="630.18" y1="209.02" x2="630.18" y2="247.87" stroke="#0ecb81" stroke-width="1.4" /><rect x="627.18" y="214.57" width="6" height="17.04" rx="1.5" fill="#0ecb81" /><line x1="640.91" y1="189.20" x2="640.91" y2="247.07" stroke="#f6465d" stroke-width="1.4" /><rect x="637.91" y="214.17" width="6" height="17.04" rx="1.5" fill="#f6465d" /><line x1="651.65" y1="220.52" x2="651.65" y2="258.96" stroke="#f6465d" stroke-width="1.4" /><rect x="648.65" y="231.61" width="6" height="24.18" rx="1.5" fill="#f6465d" /><line x1="662.38" y1="232.41" x2="662.38" y2="339.82" stroke="#f6465d" stroke-width="1.4" /><rect x="659.38" y="256.19" width="6" height="74.92" rx="1.5" fill="#f6465d" /><line x1="673.11" y1="310.10" x2="673.11" y2="352.11" stroke="#0ecb81" stroke-width="1.4" /><rect x="670.11" y="319.61" width="6" height="11.49" rx="1.5" fill="#0ecb81" /><line x1="683.85" y1="316.44" x2="683.85" y2="357.66" stroke="#f6465d" stroke-width="1.4" /><rect x="680.85" y="319.61" width="6" height="29.73" rx="1.5" fill="#f6465d" /><line x1="694.58" y1="321.99" x2="694.58" y2="383.82" stroke="#0ecb81" stroke-width="1.4" /><rect x="691.58" y="346.56" width="6" height="2.38" rx="1.5" fill="#0ecb81" /><line x1="705.32" y1="326.35" x2="705.32" y2="364.80" stroke="#0ecb81" stroke-width="1.4" /><rect x="702.32" y="345.37" width="6" height="2.00" rx="1.5" fill="#0ecb81" /><line x1="716.05" y1="328.73" x2="716.05" y2="359.64" stroke="#f6465d" stroke-width="1.4" /><rect x="713.05" y="345.37" width="6" height="6.74" rx="1.5" fill="#f6465d" /><line x1="726.78" y1="331.50" x2="726.78" y2="367.97" stroke="#0ecb81" stroke-width="1.4" /><rect x="723.78" y="336.65" width="6" height="14.67" rx="1.5" fill="#0ecb81" /><line x1="737.52" y1="282.75" x2="737.52" y2="341.41" stroke="#0ecb81" stroke-width="1.4" /><rect x="734.52" y="300.98" width="6" height="36.07" rx="1.5" fill="#0ecb81" /><line x1="748.25" y1="272.04" x2="748.25" y2="302.96" stroke="#0ecb81" stroke-width="1.4" /><rect x="745.25" y="289.48" width="6" height="11.49" rx="1.5" fill="#0ecb81" /><line x1="758.99" y1="262.13" x2="758.99" y2="313.27" stroke="#f6465d" stroke-width="1.4" /><rect x="755.99" y="289.48" width="6" height="21.40" rx="1.5" fill="#f6465d" /><line x1="769.72" y1="287.50" x2="769.72" y2="327.14" stroke="#f6465d" stroke-width="1.4" /><rect x="766.72" y="310.89" width="6" height="6.34" rx="1.5" fill="#f6465d" /><line x1="780.46" y1="302.57" x2="780.46" y2="331.10" stroke="#f6465d" stroke-width="1.4" /><rect x="777.46" y="316.84" width="6" height="5.55" rx="1.5" fill="#f6465d" /><line x1="791.19" y1="320.40" x2="791.19" y2="348.15" stroke="#f6465d" stroke-width="1.4" /><rect x="788.19" y="321.99" width="6" height="18.63" rx="1.5" fill="#f6465d" /><line x1="801.92" y1="323.18" x2="801.92" y2="343.00" stroke="#0ecb81" stroke-width="1.4" /><rect x="798.92" y="331.10" width="6" height="9.51" rx="1.5" fill="#0ecb81" /><line x1="812.66" y1="326.74" x2="812.66" y2="346.56" stroke="#f6465d" stroke-width="1.4" /><rect x="809.66" y="331.50" width="6" height="2.00" rx="1.5" fill="#f6465d" /><line x1="823.39" y1="314.85" x2="823.39" y2="352.51" stroke="#0ecb81" stroke-width="1.4" /><rect x="820.39" y="327.93" width="6" height="4.76" rx="1.5" fill="#0ecb81" /><line x1="834.13" y1="292.66" x2="834.13" y2="336.26" stroke="#0ecb81" stroke-width="1.4" /><rect x="831.13" y="312.08" width="6" height="16.25" rx="1.5" fill="#0ecb81" /><line x1="844.86" y1="308.91" x2="844.86" y2="335.86" stroke="#f6465d" stroke-width="1.4" /><rect x="841.86" y="312.08" width="6" height="18.23" rx="1.5" fill="#f6465d" /><line x1="855.59" y1="327.14" x2="855.59" y2="348.94" stroke="#f6465d" stroke-width="1.4" /><rect x="852.59" y="330.31" width="6" height="13.08" rx="1.5" fill="#f6465d" /><line x1="866.33" y1="343.39" x2="866.33" y2="408.40" stroke="#f6465d" stroke-width="1.4" /><rect x="863.33" y="343.39" width="6" height="62.23" rx="1.5" fill="#f6465d" /><line x1="877.06" y1="392.94" x2="877.06" y2="417.52" stroke="#f6465d" stroke-width="1.4" /><rect x="874.06" y="406.02" width="6" height="2.00" rx="1.5" fill="#f6465d" /><line x1="887.80" y1="391.75" x2="887.80" y2="436.94" stroke="#f6465d" stroke-width="1.4" /><rect x="884.80" y="408.00" width="6" height="11.49" rx="1.5" fill="#f6465d" /><line x1="898.53" y1="412.76" x2="898.53" y2="452.00" stroke="#f6465d" stroke-width="1.4" /><rect x="895.53" y="419.89" width="6" height="17.04" rx="1.5" fill="#f6465d" /><line x1="909.27" y1="338.24" x2="909.27" y2="450.81" stroke="#0ecb81" stroke-width="1.4" /><rect x="906.27" y="340.62" width="6" height="96.32" rx="1.5" fill="#0ecb81" /><line x1="920.00" y1="236.77" x2="920.00" y2="341.01" stroke="#0ecb81" stroke-width="1.4" /><rect x="917.00" y="289.88" width="6" height="50.74" rx="1.5" fill="#0ecb81" />
  <polyline points="372.56,220.12 458.43,412.76 490.63,220.91 555.04,333.88 640.91,189.20" fill="none" stroke="#2fc273" stroke-width="4" stroke-linecap="round" stroke-linejoin="round" />
  <circle cx="372.56" cy="220.12" r="5.5" fill="#2fc273" fill-opacity="0.15" stroke="#2fc273" stroke-width="2" /><text x="372.56" y="208.12" fill="#f3f4f6" font-size="15" font-weight="700" text-anchor="middle">X</text><circle cx="458.43" cy="412.76" r="5.5" fill="#2fc273" fill-opacity="0.15" stroke="#2fc273" stroke-width="2" /><text x="458.43" y="400.76" fill="#f3f4f6" font-size="15" font-weight="700" text-anchor="middle">A</text><circle cx="490.63" cy="220.91" r="5.5" fill="#2fc273" fill-opacity="0.15" stroke="#2fc273" stroke-width="2" /><text x="490.63" y="208.91" fill="#f3f4f6" font-size="15" font-weight="700" text-anchor="middle">B</text><circle cx="555.04" cy="333.88" r="5.5" fill="#2fc273" fill-opacity="0.15" stroke="#2fc273" stroke-width="2" /><text x="555.04" y="321.88" fill="#f3f4f6" font-size="15" font-weight="700" text-anchor="middle">C</text><circle cx="640.91" cy="189.20" r="5.5" fill="#2fc273" fill-opacity="0.15" stroke="#2fc273" stroke-width="2" /><text x="640.91" y="177.20" fill="#f3f4f6" font-size="15" font-weight="700" text-anchor="middle">D</text>
  <text x="56" y="492" fill="#8ba0b5" font-size="18">일반 완성 · TP1 0.00591 · TP2 0.005823 · SL 0.006112</text>
</svg>
