<svg xmlns="http://www.w3.org/2000/svg" width="960" height="540" viewBox="0 0 960 540">
  <rect width="960" height="540" rx="24" fill="#0b1220" />
  <rect x="28" y="28" width="904" height="484" rx="22" fill="#111827" stroke="#1f2937" />
  <text x="56" y="74" fill="#f3f4f6" font-size="34" font-weight="700">1000BONKUSDT · AB=CD</text>
  <text x="904" y="74" fill="#8ba0b5" font-size="20" text-anchor="end">Bearish (매도) · Score 78.1</text>
  <line x1="72" y1="58" x2="920" y2="58" stroke="#223045" stroke-width="1" stroke-dasharray="4 8" /><line x1="72" y1="156" x2="920" y2="156" stroke="#223045" stroke-width="1" stroke-dasharray="4 8" /><line x1="72" y1="255" x2="920" y2="255" stroke="#223045" stroke-width="1" stroke-dasharray="4 8" /><line x1="72" y1="353" x2="920" y2="353" stroke="#223045" stroke-width="1" stroke-dasharray="4 8" /><line x1="72" y1="452" x2="920" y2="452" stroke="#223045" stroke-width="1" stroke-dasharray="4 8" />
  <rect x="645.11" y="125.40" width="84" height="20.80" fill="#fbbf24" fill-opacity="0.12" stroke="#fbbf24" stroke-width="1.5" stroke-dasharray="6 6" />
  <line x1="72.00" y1="198.21" x2="72.00" y2="365.88" stroke="#0ecb81" stroke-width="1.4" /><rect x="69.00" y="262.70" width="6" height="68.23" rx="1.5" fill="#0ecb81" /><line x1="82.73" y1="189.47" x2="82.73" y2="278.51" stroke="#0ecb81" stroke-width="1.4" /><rect x="79.73" y="243.97" width="6" height="18.31" rx="1.5" fill="#0ecb81" /><line x1="93.47" y1="194.88" x2="93.47" y2="273.10" stroke="#0ecb81" stroke-width="1.4" /><rect x="90.47" y="221.09" width="6" height="22.88" rx="1.5" fill="#0ecb81" /><line x1="104.20" y1="200.71" x2="104.20" y2="246.47" stroke="#f6465d" stroke-width="1.4" /><rect x="101.20" y="220.68" width="6" height="8.32" rx="1.5" fill="#f6465d" /><line x1="114.94" y1="218.60" x2="114.94" y2="277.26" stroke="#f6465d" stroke-width="1.4" /><rect x="111.94" y="229.00" width="6" height="6.66" rx="1.5" fill="#f6465d" /><line x1="125.67" y1="201.54" x2="125.67" y2="253.54" stroke="#0ecb81" stroke-width="1.4" /><rect x="122.67" y="207.78" width="6" height="28.29" rx="1.5" fill="#0ecb81" /><line x1="136.41" y1="201.12" x2="136.41" y2="240.65" stroke="#f6465d" stroke-width="1.4" /><rect x="133.41" y="207.78" width="6" height="22.05" rx="1.5" fill="#f6465d" /><line x1="147.14" y1="216.52" x2="147.14" y2="263.95" stroke="#f6465d" stroke-width="1.4" /><rect x="144.14" y="229.83" width="6" height="12.90" rx="1.5" fill="#f6465d" /><line x1="157.87" y1="229.41" x2="157.87" y2="268.11" stroke="#0ecb81" stroke-width="1.4" /><rect x="154.87" y="242.31" width="6" height="2.00" rx="1.5" fill="#0ecb81" /><line x1="168.61" y1="136.63" x2="168.61" y2="243.97" stroke="#0ecb81" stroke-width="1.4" /><rect x="165.61" y="139.96" width="6" height="102.35" rx="1.5" fill="#0ecb81" /><line x1="179.34" y1="117.50" x2="179.34" y2="171.17" stroke="#f6465d" stroke-width="1.4" /><rect x="176.34" y="139.96" width="6" height="22.47" rx="1.5" fill="#f6465d" /><line x1="190.08" y1="84.63" x2="190.08" y2="181.57" stroke="#0ecb81" stroke-width="1.4" /><rect x="187.08" y="93.78" width="6" height="69.06" rx="1.5" fill="#0ecb81" /><line x1="200.81" y1="58.00" x2="200.81" y2="120.41" stroke="#f6465d" stroke-width="1.4" /><rect x="197.81" y="93.78" width="6" height="2.08" rx="1.5" fill="#f6465d" /><line x1="211.54" y1="64.24" x2="211.54" y2="146.62" stroke="#f6465d" stroke-width="1.4" /><rect x="208.54" y="95.86" width="6" height="39.52" rx="1.5" fill="#f6465d" /><line x1="222.28" y1="92.95" x2="222.28" y2="137.05" stroke="#0ecb81" stroke-width="1.4" /><rect x="219.28" y="110.84" width="6" height="24.55" rx="1.5" fill="#0ecb81" /><line x1="233.01" y1="108.34" x2="233.01" y2="139.55" stroke="#f6465d" stroke-width="1.4" /><rect x="230.01" y="110.84" width="6" height="18.72" rx="1.5" fill="#f6465d" /><line x1="243.75" y1="119.16" x2="243.75" y2="176.57" stroke="#f6465d" stroke-width="1.4" /><rect x="240.75" y="129.14" width="6" height="41.19" rx="1.5" fill="#f6465d" /><line x1="254.48" y1="170.33" x2="254.48" y2="226.08" stroke="#f6465d" stroke-width="1.4" /><rect x="251.48" y="170.33" width="6" height="41.19" rx="1.5" fill="#f6465d" /><line x1="265.22" y1="207.36" x2="265.22" y2="255.62" stroke="#f6465d" stroke-width="1.4" /><rect x="262.22" y="211.52" width="6" height="36.61" rx="1.5" fill="#f6465d" /><line x1="275.95" y1="209.44" x2="275.95" y2="263.11" stroke="#0ecb81" stroke-width="1.4" /><rect x="272.95" y="246.89" width="6" height="2.00" rx="1.5" fill="#0ecb81" /><line x1="286.68" y1="246.47" x2="286.68" y2="289.32" stroke="#f6465d" stroke-width="1.4" /><rect x="283.68" y="247.30" width="6" height="32.04" rx="1.5" fill="#f6465d" /><line x1="297.42" y1="229.41" x2="297.42" y2="286.83" stroke="#0ecb81" stroke-width="1.4" /><rect x="294.42" y="256.46" width="6" height="22.88" rx="1.5" fill="#0ecb81" /><line x1="308.15" y1="232.33" x2="308.15" y2="263.11" stroke="#f6465d" stroke-width="1.4" /><rect x="305.15" y="256.46" width="6" height="2.00" rx="1.5" fill="#f6465d" /><line x1="318.89" y1="243.56" x2="318.89" y2="277.26" stroke="#0ecb81" stroke-width="1.4" /><rect x="315.89" y="243.56" width="6" height="13.31" rx="1.5" fill="#0ecb81" /><line x1="329.62" y1="238.98" x2="329.62" y2="347.57" stroke="#f6465d" stroke-width="1.4" /><rect x="326.62" y="243.97" width="6" height="76.55" rx="1.5" fill="#f6465d" /><line x1="340.35" y1="298.06" x2="340.35" y2="338.83" stroke="#0ecb81" stroke-width="1.4" /><rect x="337.35" y="316.78" width="6" height="3.33" rx="1.5" fill="#0ecb81" /><line x1="351.09" y1="314.70" x2="351.09" y2="343.41" stroke="#f6465d" stroke-width="1.4" /><rect x="348.09" y="317.62" width="6" height="7.07" rx="1.5" fill="#f6465d" /><line x1="361.82" y1="313.87" x2="361.82" y2="346.32" stroke="#f6465d" stroke-width="1.4" /><rect x="358.82" y="325.10" width="6" height="9.15" rx="1.5" fill="#f6465d" /><line x1="372.56" y1="324.69" x2="372.56" y2="356.72" stroke="#f6465d" stroke-width="1.4" /><rect x="369.56" y="333.84" width="6" height="19.97" rx="1.5" fill="#f6465d" /><line x1="383.29" y1="318.45" x2="383.29" y2="367.54" stroke="#0ecb81" stroke-width="1.4" /><rect x="380.29" y="320.94" width="6" height="32.87" rx="1.5" fill="#0ecb81" /><line x1="394.03" y1="306.38" x2="394.03" y2="333.43" stroke="#0ecb81" stroke-width="1.4" /><rect x="391.03" y="317.62" width="6" height="2.91" rx="1.5" fill="#0ecb81" /><line x1="404.76" y1="228.16" x2="404.76" y2="329.68" stroke="#0ecb81" stroke-width="1.4" /><rect x="401.76" y="258.95" width="6" height="58.66" rx="1.5" fill="#0ecb81" /><line x1="415.49" y1="254.38" x2="415.49" y2="288.49" stroke="#f6465d" stroke-width="1.4" /><rect x="412.49" y="258.54" width="6" height="24.13" rx="1.5" fill="#f6465d" /><line x1="426.23" y1="271.02" x2="426.23" y2="340.08" stroke="#f6465d" stroke-width="1.4" /><rect x="423.23" y="282.67" width="6" height="44.93" rx="1.5" fill="#f6465d" /><line x1="436.96" y1="313.04" x2="436.96" y2="343.83" stroke="#0ecb81" stroke-width="1.4" /><rect x="433.96" y="316.37" width="6" height="11.23" rx="1.5" fill="#0ecb81" /><line x1="447.70" y1="311.79" x2="447.70" y2="333.84" stroke="#f6465d" stroke-width="1.4" /><rect x="444.70" y="316.78" width="6" height="13.31" rx="1.5" fill="#f6465d" /><line x1="458.43" y1="325.10" x2="458.43" y2="352.15" stroke="#f6465d" stroke-width="1.4" /><rect x="455.43" y="330.10" width="6" height="7.90" rx="1.5" fill="#f6465d" /><line x1="469.16" y1="333.84" x2="469.16" y2="367.13" stroke="#f6465d" stroke-width="1.4" /><rect x="466.16" y="338.42" width="6" height="19.14" rx="1.5" fill="#f6465d" /><line x1="479.90" y1="348.82" x2="479.90" y2="377.53" stroke="#f6465d" stroke-width="1.4" /><rect x="476.90" y="357.56" width="6" height="6.66" rx="1.5" fill="#f6465d" /><line x1="490.63" y1="330.10" x2="490.63" y2="430.37" stroke="#f6465d" stroke-width="1.4" /><rect x="487.63" y="364.21" width="6" height="2.91" rx="1.5" fill="#f6465d" /><line x1="501.37" y1="285.16" x2="501.37" y2="368.37" stroke="#0ecb81" stroke-width="1.4" /><rect x="498.37" y="294.32" width="6" height="72.39" rx="1.5" fill="#0ecb81" /><line x1="512.10" y1="240.65" x2="512.10" y2="294.32" stroke="#0ecb81" stroke-width="1.4" /><rect x="509.10" y="243.14" width="6" height="51.17" rx="1.5" fill="#0ecb81" /><line x1="522.84" y1="229.00" x2="522.84" y2="292.65" stroke="#f6465d" stroke-width="1.4" /><rect x="519.84" y="243.56" width="6" height="22.05" rx="1.5" fill="#f6465d" /><line x1="533.57" y1="247.72" x2="533.57" y2="288.49" stroke="#0ecb81" stroke-width="1.4" /><rect x="530.57" y="265.19" width="6" height="2.00" rx="1.5" fill="#0ecb81" /><line x1="544.30" y1="259.78" x2="544.30" y2="325.94" stroke="#f6465d" stroke-width="1.4" /><rect x="541.30" y="265.19" width="6" height="44.52" rx="1.5" fill="#f6465d" /><line x1="555.04" y1="279.76" x2="555.04" y2="314.29" stroke="#0ecb81" stroke-width="1.4" /><rect x="552.04" y="305.55" width="6" height="4.58" rx="1.5" fill="#0ecb81" /><line x1="565.77" y1="256.04" x2="565.77" y2="315.12" stroke="#0ecb81" stroke-width="1.4" /><rect x="562.77" y="282.25" width="6" height="23.30" rx="1.5" fill="#0ecb81" /><line x1="576.51" y1="271.85" x2="576.51" y2="304.30" stroke="#f6465d" stroke-width="1.4" /><rect x="573.51" y="282.25" width="6" height="8.74" rx="1.5" fill="#f6465d" /><line x1="587.24" y1="288.08" x2="587.24" y2="347.57" stroke="#f6465d" stroke-width="1.4" /><rect x="584.24" y="290.57" width="6" height="29.96" rx="1.5" fill="#f6465d" /><line x1="597.97" y1="273.10" x2="597.97" y2="339.25" stroke="#f6465d" stroke-width="1.4" /><rect x="594.97" y="320.11" width="6" height="5.41" rx="1.5" fill="#f6465d" /><line x1="608.71" y1="260.62" x2="608.71" y2="329.68" stroke="#0ecb81" stroke-width="1.4" /><rect x="605.71" y="272.27" width="6" height="53.25" rx="1.5" fill="#0ecb81" /><line x1="619.44" y1="261.45" x2="619.44" y2="290.99" stroke="#0ecb81" stroke-width="1.4" /><rect x="616.44" y="267.69" width="6" height="4.99" rx="1.5" fill="#0ecb81" /><line x1="630.18" y1="258.54" x2="630.18" y2="297.65" stroke="#0ecb81" stroke-width="1.4" /><rect x="627.18" y="260.20" width="6" height="7.49" rx="1.5" fill="#0ecb81" /><line x1="640.91" y1="208.19" x2="640.91" y2="275.18" stroke="#0ecb81" stroke-width="1.4" /><rect x="637.91" y="228.16" width="6" height="32.04" rx="1.5" fill="#0ecb81" /><line x1="651.65" y1="220.68" x2="651.65" y2="254.38" stroke="#f6465d" stroke-width="1.4" /><rect x="648.65" y="228.16" width="6" height="12.07" rx="1.5" fill="#f6465d" /><line x1="662.38" y1="216.52" x2="662.38" y2="257.29" stroke="#0ecb81" stroke-width="1.4" /><rect x="659.38" y="222.34" width="6" height="17.89" rx="1.5" fill="#0ecb81" /><line x1="673.11" y1="195.71" x2="673.11" y2="256.46" stroke="#f6465d" stroke-width="1.4" /><rect x="670.11" y="221.92" width="6" height="17.89" rx="1.5" fill="#f6465d" /><line x1="683.85" y1="228.58" x2="683.85" y2="268.94" stroke="#f6465d" stroke-width="1.4" /><rect x="680.85" y="240.23" width="6" height="25.38" rx="1.5" fill="#f6465d" /><line x1="694.58" y1="241.06" x2="694.58" y2="353.81" stroke="#f6465d" stroke-width="1.4" /><rect x="691.58" y="266.03" width="6" height="78.63" rx="1.5" fill="#f6465d" /><line x1="705.32" y1="322.61" x2="705.32" y2="366.71" stroke="#0ecb81" stroke-width="1.4" /><rect x="702.32" y="332.59" width="6" height="12.07" rx="1.5" fill="#0ecb81" /><line x1="716.05" y1="329.27" x2="716.05" y2="372.53" stroke="#f6465d" stroke-width="1.4" /><rect x="713.05" y="332.59" width="6" height="31.20" rx="1.5" fill="#f6465d" /><line x1="726.78" y1="335.09" x2="726.78" y2="399.99" stroke="#0ecb81" stroke-width="1.4" /><rect x="723.78" y="360.88" width="6" height="2.50" rx="1.5" fill="#0ecb81" /><line x1="737.52" y1="339.67" x2="737.52" y2="380.02" stroke="#0ecb81" stroke-width="1.4" /><rect x="734.52" y="359.64" width="6" height="2.00" rx="1.5" fill="#0ecb81" /><line x1="748.25" y1="342.16" x2="748.25" y2="374.61" stroke="#f6465d" stroke-width="1.4" /><rect x="745.25" y="359.64" width="6" height="7.07" rx="1.5" fill="#f6465d" /><line x1="758.99" y1="345.07" x2="758.99" y2="383.35" stroke="#0ecb81" stroke-width="1.4" /><rect x="755.99" y="350.48" width="6" height="15.39" rx="1.5" fill="#0ecb81" /><line x1="769.72" y1="293.90" x2="769.72" y2="355.48" stroke="#0ecb81" stroke-width="1.4" /><rect x="766.72" y="313.04" width="6" height="37.86" rx="1.5" fill="#0ecb81" /><line x1="780.46" y1="282.67" x2="780.46" y2="315.12" stroke="#0ecb81" stroke-width="1.4" /><rect x="777.46" y="300.97" width="6" height="12.07" rx="1.5" fill="#0ecb81" /><line x1="791.19" y1="272.27" x2="791.19" y2="325.94" stroke="#f6465d" stroke-width="1.4" /><rect x="788.19" y="300.97" width="6" height="22.47" rx="1.5" fill="#f6465d" /><line x1="801.92" y1="298.89" x2="801.92" y2="340.50" stroke="#f6465d" stroke-width="1.4" /><rect x="798.92" y="323.44" width="6" height="6.66" rx="1.5" fill="#f6465d" /><line x1="812.66" y1="314.70" x2="812.66" y2="344.66" stroke="#f6465d" stroke-width="1.4" /><rect x="809.66" y="329.68" width="6" height="5.82" rx="1.5" fill="#f6465d" /><line x1="823.39" y1="333.43" x2="823.39" y2="362.55" stroke="#f6465d" stroke-width="1.4" /><rect x="820.39" y="335.09" width="6" height="19.55" rx="1.5" fill="#f6465d" /><line x1="834.13" y1="336.34" x2="834.13" y2="357.14" stroke="#0ecb81" stroke-width="1.4" /><rect x="831.13" y="344.66" width="6" height="9.99" rx="1.5" fill="#0ecb81" /><line x1="844.86" y1="340.08" x2="844.86" y2="360.88" stroke="#f6465d" stroke-width="1.4" /><rect x="841.86" y="345.07" width="6" height="2.00" rx="1.5" fill="#f6465d" /><line x1="855.59" y1="327.60" x2="855.59" y2="367.13" stroke="#0ecb81" stroke-width="1.4" /><rect x="852.59" y="341.33" width="6" height="4.99" rx="1.5" fill="#0ecb81" /><line x1="866.33" y1="304.30" x2="866.33" y2="350.07" stroke="#0ecb81" stroke-width="1.4" /><rect x="863.33" y="324.69" width="6" height="17.06" rx="1.5" fill="#0ecb81" /><line x1="877.06" y1="321.36" x2="877.06" y2="349.65" stroke="#f6465d" stroke-width="1.4" /><rect x="874.06" y="324.69" width="6" height="19.14" rx="1.5" fill="#f6465d" /><line x1="887.80" y1="340.50" x2="887.80" y2="363.38" stroke="#f6465d" stroke-width="1.4" /><rect x="884.80" y="343.83" width="6" height="13.73" rx="1.5" fill="#f6465d" /><line x1="898.53" y1="357.56" x2="898.53" y2="425.79" stroke="#f6465d" stroke-width="1.4" /><rect x="895.53" y="357.56" width="6" height="65.32" rx="1.5" fill="#f6465d" /><line x1="909.27" y1="409.56" x2="909.27" y2="435.36" stroke="#f6465d" stroke-width="1.4" /><rect x="906.27" y="423.29" width="6" height="2.08" rx="1.5" fill="#f6465d" /><line x1="920.00" y1="425.37" x2="920.00" y2="452.00" stroke="#f6465d" stroke-width="1.4" /><rect x="917.00" y="425.37" width="6" height="24.13" rx="1.5" fill="#f6465d" />
  <polyline points="404.76,228.16 490.63,430.37 522.84,229.00 587.24,347.57 673.11,195.71" fill="none" stroke="#2fc273" stroke-width="4" stroke-linecap="round" stroke-linejoin="round" />
  <circle cx="404.76" cy="228.16" r="5.5" fill="#2fc273" fill-opacity="0.15" stroke="#2fc273" stroke-width="2" /><text x="404.76" y="216.16" fill="#f3f4f6" font-size="15" font-weight="700" text-anchor="middle">X</text><circle cx="490.63" cy="430.37" r="5.5" fill="#2fc273" fill-opacity="0.15" stroke="#2fc273" stroke-width="2" /><text x="490.63" y="418.37" fill="#f3f4f6" font-size="15" font-weight="700" text-anchor="middle">A</text><circle cx="522.84" cy="229.00" r="5.5" fill="#2fc273" fill-opacity="0.15" stroke="#2fc273" stroke-width="2" /><text x="522.84" y="217.00" fill="#f3f4f6" font-size="15" font-weight="700" text-anchor="middle">B</text><circle cx="587.24" cy="347.57" r="5.5" fill="#2fc273" fill-opacity="0.15" stroke="#2fc273" stroke-width="2" /><text x="587.24" y="335.57" fill="#f3f4f6" font-size="15" font-weight="700" text-anchor="middle">C</text><circle cx="673.11" cy="195.71" r="5.5" fill="#2fc273" fill-opacity="0.15" stroke="#2fc273" stroke-width="2" /><text x="673.11" y="183.71" fill="#f3f4f6" font-size="15" font-weight="700" text-anchor="middle">D</text>
  <text x="56" y="492" fill="#8ba0b5" font-size="18">일반 완성 · TP1 0.00591 · TP2 0.005823 · SL 0.006112</text>
</svg>
