<svg xmlns="http://www.w3.org/2000/svg" width="960" height="540" viewBox="0 0 960 540">
  <rect width="960" height="540" rx="24" fill="#0b1220" />
  <rect x="28" y="28" width="904" height="484" rx="22" fill="#111827" stroke="#1f2937" />
  <text x="56" y="74" fill="#f3f4f6" font-size="34" font-weight="700">ARBUSDT · AB=CD</text>
  <text x="904" y="74" fill="#8ba0b5" font-size="20" text-anchor="end">Bullish (매수) · Score 85.8</text>
  <line x1="72" y1="58" x2="920" y2="58" stroke="#223045" stroke-width="1" stroke-dasharray="4 8" /><line x1="72" y1="156" x2="920" y2="156" stroke="#223045" stroke-width="1" stroke-dasharray="4 8" /><line x1="72" y1="255" x2="920" y2="255" stroke="#223045" stroke-width="1" stroke-dasharray="4 8" /><line x1="72" y1="353" x2="920" y2="353" stroke="#223045" stroke-width="1" stroke-dasharray="4 8" /><line x1="72" y1="452" x2="920" y2="452" stroke="#223045" stroke-width="1" stroke-dasharray="4 8" />
  <rect x="859.80" y="321.57" width="84" height="32.20" fill="#fbbf24" fill-opacity="0.12" stroke="#fbbf24" stroke-width="1.5" stroke-dasharray="6 6" />
  <line x1="72.00" y1="120.50" x2="72.00" y2="207.45" stroke="#0ecb81" stroke-width="1.4" /><rect x="69.00" y="123.21" width="6" height="73.37" rx="1.5" fill="#0ecb81" /><line x1="82.73" y1="106.91" x2="82.73" y2="188.43" stroke="#f6465d" stroke-width="1.4" /><rect x="79.73" y="123.21" width="6" height="27.17" rx="1.5" fill="#f6465d" /><line x1="93.47" y1="142.23" x2="93.47" y2="177.56" stroke="#0ecb81" stroke-width="1.4" /><rect x="90.47" y="147.67" width="6" height="2.00" rx="1.5" fill="#0ecb81" /><line x1="104.20" y1="112.34" x2="104.20" y2="158.54" stroke="#0ecb81" stroke-width="1.4" /><rect x="101.20" y="136.80" width="6" height="8.15" rx="1.5" fill="#0ecb81" /><line x1="114.94" y1="123.21" x2="114.94" y2="177.56" stroke="#f6465d" stroke-width="1.4" /><rect x="111.94" y="136.80" width="6" height="13.59" rx="1.5" fill="#f6465d" /><line x1="125.67" y1="131.37" x2="125.67" y2="204.73" stroke="#f6465d" stroke-width="1.4" /><rect x="122.67" y="150.39" width="6" height="10.87" rx="1.5" fill="#f6465d" /><line x1="136.41" y1="98.76" x2="136.41" y2="169.41" stroke="#0ecb81" stroke-width="1.4" /><rect x="133.41" y="125.93" width="6" height="35.32" rx="1.5" fill="#0ecb81" /><line x1="147.14" y1="106.91" x2="147.14" y2="144.95" stroke="#0ecb81" stroke-width="1.4" /><rect x="144.14" y="112.34" width="6" height="10.87" rx="1.5" fill="#0ecb81" /><line x1="157.87" y1="82.46" x2="157.87" y2="125.93" stroke="#0ecb81" stroke-width="1.4" /><rect x="154.87" y="96.04" width="6" height="16.30" rx="1.5" fill="#0ecb81" /><line x1="168.61" y1="66.15" x2="168.61" y2="106.91" stroke="#0ecb81" stroke-width="1.4" /><rect x="165.61" y="79.74" width="6" height="16.30" rx="1.5" fill="#0ecb81" /><line x1="179.34" y1="58.00" x2="179.34" y2="106.91" stroke="#f6465d" stroke-width="1.4" /><rect x="176.34" y="77.02" width="6" height="16.30" rx="1.5" fill="#f6465d" /><line x1="190.08" y1="63.43" x2="190.08" y2="101.48" stroke="#0ecb81" stroke-width="1.4" /><rect x="187.08" y="90.61" width="6" height="2.00" rx="1.5" fill="#0ecb81" /><line x1="200.81" y1="77.02" x2="200.81" y2="115.06" stroke="#f6465d" stroke-width="1.4" /><rect x="197.81" y="90.61" width="6" height="2.72" rx="1.5" fill="#f6465d" /><line x1="211.54" y1="77.02" x2="211.54" y2="142.23" stroke="#f6465d" stroke-width="1.4" /><rect x="208.54" y="93.32" width="6" height="40.76" rx="1.5" fill="#f6465d" /><line x1="222.28" y1="134.08" x2="222.28" y2="202.01" stroke="#f6465d" stroke-width="1.4" /><rect x="219.28" y="136.80" width="6" height="54.34" rx="1.5" fill="#f6465d" /><line x1="233.01" y1="188.43" x2="233.01" y2="237.34" stroke="#f6465d" stroke-width="1.4" /><rect x="230.01" y="191.14" width="6" height="29.89" rx="1.5" fill="#f6465d" /><line x1="243.75" y1="182.99" x2="243.75" y2="231.90" stroke="#0ecb81" stroke-width="1.4" /><rect x="240.75" y="221.03" width="6" height="2.72" rx="1.5" fill="#0ecb81" /><line x1="254.48" y1="207.45" x2="254.48" y2="259.08" stroke="#f6465d" stroke-width="1.4" /><rect x="251.48" y="221.03" width="6" height="35.32" rx="1.5" fill="#f6465d" /><line x1="265.22" y1="202.01" x2="265.22" y2="264.51" stroke="#0ecb81" stroke-width="1.4" /><rect x="262.22" y="226.47" width="6" height="29.89" rx="1.5" fill="#0ecb81" /><line x1="275.95" y1="191.14" x2="275.95" y2="229.19" stroke="#0ecb81" stroke-width="1.4" /><rect x="272.95" y="210.17" width="6" height="19.02" rx="1.5" fill="#0ecb81" /><line x1="286.68" y1="207.45" x2="286.68" y2="234.62" stroke="#0ecb81" stroke-width="1.4" /><rect x="283.68" y="207.45" width="6" height="2.72" rx="1.5" fill="#0ecb81" /><line x1="297.42" y1="204.73" x2="297.42" y2="324.29" stroke="#f6465d" stroke-width="1.4" /><rect x="294.42" y="207.45" width="6" height="97.82" rx="1.5" fill="#f6465d" /><line x1="308.15" y1="294.40" x2="308.15" y2="335.16" stroke="#f6465d" stroke-width="1.4" /><rect x="305.15" y="302.55" width="6" height="16.30" rx="1.5" fill="#f6465d" /><line x1="318.89" y1="302.55" x2="318.89" y2="348.74" stroke="#f6465d" stroke-width="1.4" /><rect x="315.89" y="321.57" width="6" height="2.72" rx="1.5" fill="#f6465d" /><line x1="329.62" y1="313.42" x2="329.62" y2="343.31" stroke="#f6465d" stroke-width="1.4" /><rect x="326.62" y="321.57" width="6" height="10.87" rx="1.5" fill="#f6465d" /><line x1="340.35" y1="324.29" x2="340.35" y2="370.48" stroke="#f6465d" stroke-width="1.4" /><rect x="337.35" y="332.44" width="6" height="13.59" rx="1.5" fill="#f6465d" /><line x1="351.09" y1="337.88" x2="351.09" y2="359.61" stroke="#0ecb81" stroke-width="1.4" /><rect x="348.09" y="340.59" width="6" height="8.15" rx="1.5" fill="#0ecb81" /><line x1="361.82" y1="318.86" x2="361.82" y2="343.31" stroke="#0ecb81" stroke-width="1.4" /><rect x="358.82" y="318.86" width="6" height="19.02" rx="1.5" fill="#0ecb81" /><line x1="372.56" y1="269.94" x2="372.56" y2="329.72" stroke="#0ecb81" stroke-width="1.4" /><rect x="369.56" y="291.68" width="6" height="29.89" rx="1.5" fill="#0ecb81" /><line x1="383.29" y1="264.51" x2="383.29" y2="291.68" stroke="#0ecb81" stroke-width="1.4" /><rect x="380.29" y="283.53" width="6" height="8.15" rx="1.5" fill="#0ecb81" /><line x1="394.03" y1="275.38" x2="394.03" y2="346.03" stroke="#f6465d" stroke-width="1.4" /><rect x="391.03" y="283.53" width="6" height="51.63" rx="1.5" fill="#f6465d" /><line x1="404.76" y1="307.99" x2="404.76" y2="351.46" stroke="#0ecb81" stroke-width="1.4" /><rect x="401.76" y="324.29" width="6" height="13.59" rx="1.5" fill="#0ecb81" /><line x1="415.49" y1="318.86" x2="415.49" y2="346.03" stroke="#f6465d" stroke-width="1.4" /><rect x="412.49" y="321.57" width="6" height="19.02" rx="1.5" fill="#f6465d" /><line x1="426.23" y1="337.88" x2="426.23" y2="367.77" stroke="#f6465d" stroke-width="1.4" /><rect x="423.23" y="340.59" width="6" height="13.59" rx="1.5" fill="#f6465d" /><line x1="436.96" y1="351.46" x2="436.96" y2="389.50" stroke="#f6465d" stroke-width="1.4" /><rect x="433.96" y="351.46" width="6" height="16.30" rx="1.5" fill="#f6465d" /><line x1="447.70" y1="351.46" x2="447.70" y2="378.63" stroke="#f6465d" stroke-width="1.4" /><rect x="444.70" y="367.77" width="6" height="2.72" rx="1.5" fill="#f6465d" /><line x1="458.43" y1="337.88" x2="458.43" y2="452.00" stroke="#f6465d" stroke-width="1.4" /><rect x="455.43" y="370.48" width="6" height="5.43" rx="1.5" fill="#f6465d" /><line x1="469.16" y1="280.81" x2="469.16" y2="381.35" stroke="#0ecb81" stroke-width="1.4" /><rect x="466.16" y="299.83" width="6" height="76.08" rx="1.5" fill="#0ecb81" /><line x1="479.90" y1="253.64" x2="479.90" y2="302.55" stroke="#0ecb81" stroke-width="1.4" /><rect x="476.90" y="259.08" width="6" height="40.76" rx="1.5" fill="#0ecb81" /><line x1="490.63" y1="234.62" x2="490.63" y2="280.81" stroke="#0ecb81" stroke-width="1.4" /><rect x="487.63" y="256.36" width="6" height="2.00" rx="1.5" fill="#0ecb81" /><line x1="501.37" y1="229.19" x2="501.37" y2="283.53" stroke="#f6465d" stroke-width="1.4" /><rect x="498.37" y="256.36" width="6" height="13.59" rx="1.5" fill="#f6465d" /><line x1="512.10" y1="264.51" x2="512.10" y2="329.72" stroke="#f6465d" stroke-width="1.4" /><rect x="509.10" y="269.94" width="6" height="40.76" rx="1.5" fill="#f6465d" /><line x1="522.84" y1="283.53" x2="522.84" y2="318.86" stroke="#0ecb81" stroke-width="1.4" /><rect x="519.84" y="299.83" width="6" height="13.59" rx="1.5" fill="#0ecb81" /><line x1="533.57" y1="229.19" x2="533.57" y2="310.70" stroke="#0ecb81" stroke-width="1.4" /><rect x="530.57" y="261.79" width="6" height="38.04" rx="1.5" fill="#0ecb81" /><line x1="544.30" y1="242.77" x2="544.30" y2="269.94" stroke="#0ecb81" stroke-width="1.4" /><rect x="541.30" y="253.64" width="6" height="10.87" rx="1.5" fill="#0ecb81" /><line x1="555.04" y1="248.21" x2="555.04" y2="313.42" stroke="#f6465d" stroke-width="1.4" /><rect x="552.04" y="253.64" width="6" height="13.59" rx="1.5" fill="#f6465d" /><line x1="565.77" y1="237.34" x2="565.77" y2="297.12" stroke="#f6465d" stroke-width="1.4" /><rect x="562.77" y="267.23" width="6" height="24.46" rx="1.5" fill="#f6465d" /><line x1="576.51" y1="221.03" x2="576.51" y2="297.12" stroke="#0ecb81" stroke-width="1.4" /><rect x="573.51" y="253.64" width="6" height="38.04" rx="1.5" fill="#0ecb81" /><line x1="587.24" y1="242.77" x2="587.24" y2="269.94" stroke="#0ecb81" stroke-width="1.4" /><rect x="584.24" y="250.92" width="6" height="2.72" rx="1.5" fill="#0ecb81" /><line x1="597.97" y1="231.90" x2="597.97" y2="272.66" stroke="#0ecb81" stroke-width="1.4" /><rect x="594.97" y="242.77" width="6" height="8.15" rx="1.5" fill="#0ecb81" /><line x1="608.71" y1="166.69" x2="608.71" y2="245.49" stroke="#0ecb81" stroke-width="1.4" /><rect x="605.71" y="172.12" width="6" height="70.65" rx="1.5" fill="#0ecb81" /><line x1="619.44" y1="158.54" x2="619.44" y2="210.17" stroke="#f6465d" stroke-width="1.4" /><rect x="616.44" y="172.12" width="6" height="10.87" rx="1.5" fill="#f6465d" /><line x1="630.18" y1="142.23" x2="630.18" y2="226.47" stroke="#f6465d" stroke-width="1.4" /><rect x="627.18" y="182.99" width="6" height="21.74" rx="1.5" fill="#f6465d" /><line x1="640.91" y1="169.41" x2="640.91" y2="218.32" stroke="#0ecb81" stroke-width="1.4" /><rect x="637.91" y="202.01" width="6" height="2.00" rx="1.5" fill="#0ecb81" /><line x1="651.65" y1="191.14" x2="651.65" y2="223.75" stroke="#f6465d" stroke-width="1.4" /><rect x="648.65" y="202.01" width="6" height="8.15" rx="1.5" fill="#f6465d" /><line x1="662.38" y1="180.28" x2="662.38" y2="318.86" stroke="#f6465d" stroke-width="1.4" /><rect x="659.38" y="212.88" width="6" height="92.39" rx="1.5" fill="#f6465d" /><line x1="673.11" y1="275.38" x2="673.11" y2="324.29" stroke="#0ecb81" stroke-width="1.4" /><rect x="670.11" y="294.40" width="6" height="10.87" rx="1.5" fill="#0ecb81" /><line x1="683.85" y1="291.68" x2="683.85" y2="321.57" stroke="#f6465d" stroke-width="1.4" /><rect x="680.85" y="291.68" width="6" height="10.87" rx="1.5" fill="#f6465d" /><line x1="694.58" y1="267.23" x2="694.58" y2="343.31" stroke="#0ecb81" stroke-width="1.4" /><rect x="691.58" y="288.97" width="6" height="13.59" rx="1.5" fill="#0ecb81" /><line x1="705.32" y1="259.08" x2="705.32" y2="310.70" stroke="#f6465d" stroke-width="1.4" /><rect x="702.32" y="288.97" width="6" height="8.15" rx="1.5" fill="#f6465d" /><line x1="716.05" y1="283.53" x2="716.05" y2="313.42" stroke="#f6465d" stroke-width="1.4" /><rect x="713.05" y="297.12" width="6" height="13.59" rx="1.5" fill="#f6465d" /><line x1="726.78" y1="264.51" x2="726.78" y2="313.42" stroke="#0ecb81" stroke-width="1.4" /><rect x="723.78" y="267.23" width="6" height="40.76" rx="1.5" fill="#0ecb81" /><line x1="737.52" y1="212.88" x2="737.52" y2="275.38" stroke="#0ecb81" stroke-width="1.4" /><rect x="734.52" y="237.34" width="6" height="29.89" rx="1.5" fill="#0ecb81" /><line x1="748.25" y1="199.30" x2="748.25" y2="240.06" stroke="#0ecb81" stroke-width="1.4" /><rect x="745.25" y="226.47" width="6" height="8.15" rx="1.5" fill="#0ecb81" /><line x1="758.99" y1="210.17" x2="758.99" y2="269.94" stroke="#f6465d" stroke-width="1.4" /><rect x="755.99" y="226.47" width="6" height="38.04" rx="1.5" fill="#f6465d" /><line x1="769.72" y1="245.49" x2="769.72" y2="278.10" stroke="#0ecb81" stroke-width="1.4" /><rect x="766.72" y="264.51" width="6" height="2.72" rx="1.5" fill="#0ecb81" /><line x1="780.46" y1="250.92" x2="780.46" y2="278.10" stroke="#f6465d" stroke-width="1.4" /><rect x="777.46" y="264.51" width="6" height="2.72" rx="1.5" fill="#f6465d" /><line x1="791.19" y1="267.23" x2="791.19" y2="294.40" stroke="#f6465d" stroke-width="1.4" /><rect x="788.19" y="269.94" width="6" height="16.30" rx="1.5" fill="#f6465d" /><line x1="801.92" y1="269.94" x2="801.92" y2="291.68" stroke="#0ecb81" stroke-width="1.4" /><rect x="798.92" y="280.81" width="6" height="5.43" rx="1.5" fill="#0ecb81" /><line x1="812.66" y1="272.66" x2="812.66" y2="291.68" stroke="#0ecb81" stroke-width="1.4" /><rect x="809.66" y="272.66" width="6" height="5.43" rx="1.5" fill="#0ecb81" /><line x1="823.39" y1="242.77" x2="823.39" y2="286.25" stroke="#0ecb81" stroke-width="1.4" /><rect x="820.39" y="259.08" width="6" height="16.30" rx="1.5" fill="#0ecb81" /><line x1="834.13" y1="226.47" x2="834.13" y2="272.66" stroke="#0ecb81" stroke-width="1.4" /><rect x="831.13" y="248.21" width="6" height="10.87" rx="1.5" fill="#0ecb81" /><line x1="844.86" y1="245.49" x2="844.86" y2="264.51" stroke="#f6465d" stroke-width="1.4" /><rect x="841.86" y="248.21" width="6" height="10.87" rx="1.5" fill="#f6465d" /><line x1="855.59" y1="253.64" x2="855.59" y2="283.53" stroke="#f6465d" stroke-width="1.4" /><rect x="852.59" y="256.36" width="6" height="21.74" rx="1.5" fill="#f6465d" /><line x1="866.33" y1="278.10" x2="866.33" y2="324.29" stroke="#f6465d" stroke-width="1.4" /><rect x="863.33" y="278.10" width="6" height="40.76" rx="1.5" fill="#f6465d" /><line x1="877.06" y1="299.83" x2="877.06" y2="321.57" stroke="#0ecb81" stroke-width="1.4" /><rect x="874.06" y="316.14" width="6" height="2.72" rx="1.5" fill="#0ecb81" /><line x1="887.80" y1="280.81" x2="887.80" y2="340.59" stroke="#0ecb81" stroke-width="1.4" /><rect x="884.80" y="305.27" width="6" height="8.15" rx="1.5" fill="#0ecb81" /><line x1="898.53" y1="283.53" x2="898.53" y2="321.57" stroke="#0ecb81" stroke-width="1.4" /><rect x="895.53" y="294.40" width="6" height="10.87" rx="1.5" fill="#0ecb81" /><line x1="909.27" y1="202.01" x2="909.27" y2="310.70" stroke="#0ecb81" stroke-width="1.4" /><rect x="906.27" y="215.60" width="6" height="81.52" rx="1.5" fill="#0ecb81" /><line x1="920.00" y1="147.67" x2="920.00" y2="215.60" stroke="#0ecb81" stroke-width="1.4" /><rect x="917.00" y="180.28" width="6" height="35.32" rx="1.5" fill="#0ecb81" />
  <polyline points="694.58,343.31 748.25,199.30 791.19,294.40 834.13,226.47 887.80,340.59" fill="none" stroke="#2fc273" stroke-width="4" stroke-linecap="round" stroke-linejoin="round" />
  <circle cx="694.58" cy="343.31" r="5.5" fill="#2fc273" fill-opacity="0.15" stroke="#2fc273" stroke-width="2" /><text x="694.58" y="331.31" fill="#f3f4f6" font-size="15" font-weight="700" text-anchor="middle">X</text><circle cx="748.25" cy="199.30" r="5.5" fill="#2fc273" fill-opacity="0.15" stroke="#2fc273" stroke-width="2" /><text x="748.25" y="187.30" fill="#f3f4f6" font-size="15" font-weight="700" text-anchor="middle">A</text><circle cx="791.19" cy="294.40" r="5.5" fill="#2fc273" fill-opacity="0.15" stroke="#2fc273" stroke-width="2" /><text x="791.19" y="282.40" fill="#f3f4f6" font-size="15" font-weight="700" text-anchor="middle">B</text><circle cx="834.13" cy="226.47" r="5.5" fill="#2fc273" fill-opacity="0.15" stroke="#2fc273" stroke-width="2" /><text x="834.13" y="214.47" fill="#f3f4f6" font-size="15" font-weight="700" text-anchor="middle">C</text><circle cx="887.80" cy="340.59" r="5.5" fill="#2fc273" fill-opacity="0.15" stroke="#2fc273" stroke-width="2" /><text x="887.80" y="328.59" fill="#f3f4f6" font-size="15" font-weight="700" text-anchor="middle">D</text>
  <text x="56" y="492" fill="#8ba0b5" font-size="18">일반 완성 · TP1 0.091204 · TP2 0.092196 · SL 0.088911</text>
</svg>
