<svg xmlns="http://www.w3.org/2000/svg" width="960" height="540" viewBox="0 0 960 540">
  <rect width="960" height="540" rx="24" fill="#0b1220" />
  <rect x="28" y="28" width="904" height="484" rx="22" fill="#111827" stroke="#1f2937" />
  <text x="56" y="74" fill="#f3f4f6" font-size="34" font-weight="700">ARIAUSDT · AB=CD</text>
  <text x="904" y="74" fill="#8ba0b5" font-size="20" text-anchor="end">Bullish (매수) · Score 78.9</text>
  <line x1="72" y1="58" x2="920" y2="58" stroke="#223045" stroke-width="1" stroke-dasharray="4 8" /><line x1="72" y1="156" x2="920" y2="156" stroke="#223045" stroke-width="1" stroke-dasharray="4 8" /><line x1="72" y1="255" x2="920" y2="255" stroke="#223045" stroke-width="1" stroke-dasharray="4 8" /><line x1="72" y1="353" x2="920" y2="353" stroke="#223045" stroke-width="1" stroke-dasharray="4 8" /><line x1="72" y1="452" x2="920" y2="452" stroke="#223045" stroke-width="1" stroke-dasharray="4 8" />
  <rect x="516.30" y="390.81" width="84" height="55.34" fill="#fbbf24" fill-opacity="0.12" stroke="#fbbf24" stroke-width="1.5" stroke-dasharray="6 6" />
  <line x1="72.00" y1="429.55" x2="72.00" y2="439.01" stroke="#f6465d" stroke-width="1.4" /><rect x="69.00" y="436.75" width="6" height="2.00" rx="1.5" fill="#f6465d" /><line x1="82.73" y1="434.40" x2="82.73" y2="452.00" stroke="#0ecb81" stroke-width="1.4" /><rect x="79.73" y="435.26" width="6" height="2.56" rx="1.5" fill="#0ecb81" /><line x1="93.47" y1="393.60" x2="93.47" y2="449.33" stroke="#0ecb81" stroke-width="1.4" /><rect x="90.47" y="399.25" width="6" height="36.00" rx="1.5" fill="#0ecb81" /><line x1="104.20" y1="391.91" x2="104.20" y2="419.48" stroke="#f6465d" stroke-width="1.4" /><rect x="101.20" y="399.24" width="6" height="2.00" rx="1.5" fill="#f6465d" /><line x1="114.94" y1="377.22" x2="114.94" y2="410.19" stroke="#0ecb81" stroke-width="1.4" /><rect x="111.94" y="392.61" width="6" height="8.01" rx="1.5" fill="#0ecb81" /><line x1="125.67" y1="386.76" x2="125.67" y2="415.44" stroke="#f6465d" stroke-width="1.4" /><rect x="122.67" y="392.65" width="6" height="4.21" rx="1.5" fill="#f6465d" /><line x1="136.41" y1="381.80" x2="136.41" y2="399.77" stroke="#0ecb81" stroke-width="1.4" /><rect x="133.41" y="396.24" width="6" height="2.00" rx="1.5" fill="#0ecb81" /><line x1="147.14" y1="381.82" x2="147.14" y2="407.36" stroke="#f6465d" stroke-width="1.4" /><rect x="144.14" y="396.15" width="6" height="2.00" rx="1.5" fill="#f6465d" /><line x1="157.87" y1="393.57" x2="157.87" y2="409.84" stroke="#f6465d" stroke-width="1.4" /><rect x="154.87" y="396.67" width="6" height="8.32" rx="1.5" fill="#f6465d" /><line x1="168.61" y1="395.91" x2="168.61" y2="425.22" stroke="#0ecb81" stroke-width="1.4" /><rect x="165.61" y="401.77" width="6" height="3.22" rx="1.5" fill="#0ecb81" /><line x1="179.34" y1="386.17" x2="179.34" y2="413.91" stroke="#0ecb81" stroke-width="1.4" /><rect x="176.34" y="400.89" width="6" height="2.00" rx="1.5" fill="#0ecb81" /><line x1="190.08" y1="398.91" x2="190.08" y2="412.63" stroke="#f6465d" stroke-width="1.4" /><rect x="187.08" y="400.80" width="6" height="6.20" rx="1.5" fill="#f6465d" /><line x1="200.81" y1="401.20" x2="200.81" y2="418.12" stroke="#f6465d" stroke-width="1.4" /><rect x="197.81" y="406.92" width="6" height="10.55" rx="1.5" fill="#f6465d" /><line x1="211.54" y1="410.34" x2="211.54" y2="422.84" stroke="#0ecb81" stroke-width="1.4" /><rect x="208.54" y="416.45" width="6" height="2.00" rx="1.5" fill="#0ecb81" /><line x1="222.28" y1="395.32" x2="222.28" y2="417.17" stroke="#0ecb81" stroke-width="1.4" /><rect x="219.28" y="402.14" width="6" height="14.25" rx="1.5" fill="#0ecb81" /><line x1="233.01" y1="391.58" x2="233.01" y2="403.13" stroke="#0ecb81" stroke-width="1.4" /><rect x="230.01" y="401.42" width="6" height="2.00" rx="1.5" fill="#0ecb81" /><line x1="243.75" y1="399.48" x2="243.75" y2="420.48" stroke="#f6465d" stroke-width="1.4" /><rect x="240.75" y="401.43" width="6" height="14.51" rx="1.5" fill="#f6465d" /><line x1="254.48" y1="408.39" x2="254.48" y2="431.09" stroke="#0ecb81" stroke-width="1.4" /><rect x="251.48" y="410.44" width="6" height="5.51" rx="1.5" fill="#0ecb81" /><line x1="265.22" y1="406.61" x2="265.22" y2="418.06" stroke="#f6465d" stroke-width="1.4" /><rect x="262.22" y="410.40" width="6" height="6.77" rx="1.5" fill="#f6465d" /><line x1="275.95" y1="411.17" x2="275.95" y2="419.67" stroke="#0ecb81" stroke-width="1.4" /><rect x="272.95" y="415.01" width="6" height="2.16" rx="1.5" fill="#0ecb81" /><line x1="286.68" y1="403.44" x2="286.68" y2="415.91" stroke="#0ecb81" stroke-width="1.4" /><rect x="283.68" y="409.35" width="6" height="5.66" rx="1.5" fill="#0ecb81" /><line x1="297.42" y1="395.92" x2="297.42" y2="414.27" stroke="#0ecb81" stroke-width="1.4" /><rect x="294.42" y="400.95" width="6" height="8.43" rx="1.5" fill="#0ecb81" /><line x1="308.15" y1="358.55" x2="308.15" y2="401.61" stroke="#0ecb81" stroke-width="1.4" /><rect x="305.15" y="367.92" width="6" height="33.04" rx="1.5" fill="#0ecb81" /><line x1="318.89" y1="362.87" x2="318.89" y2="381.40" stroke="#f6465d" stroke-width="1.4" /><rect x="315.89" y="367.92" width="6" height="9.44" rx="1.5" fill="#f6465d" /><line x1="329.62" y1="364.99" x2="329.62" y2="378.36" stroke="#0ecb81" stroke-width="1.4" /><rect x="326.62" y="371.46" width="6" height="5.91" rx="1.5" fill="#0ecb81" /><line x1="340.35" y1="353.64" x2="340.35" y2="375.70" stroke="#0ecb81" stroke-width="1.4" /><rect x="337.35" y="356.38" width="6" height="15.08" rx="1.5" fill="#0ecb81" /><line x1="351.09" y1="344.30" x2="351.09" y2="377.82" stroke="#f6465d" stroke-width="1.4" /><rect x="348.09" y="356.25" width="6" height="5.95" rx="1.5" fill="#f6465d" /><line x1="361.82" y1="361.62" x2="361.82" y2="395.20" stroke="#f6465d" stroke-width="1.4" /><rect x="358.82" y="362.29" width="6" height="27.09" rx="1.5" fill="#f6465d" /><line x1="372.56" y1="324.77" x2="372.56" y2="391.55" stroke="#0ecb81" stroke-width="1.4" /><rect x="369.56" y="332.54" width="6" height="56.92" rx="1.5" fill="#0ecb81" /><line x1="383.29" y1="308.94" x2="383.29" y2="365.48" stroke="#f6465d" stroke-width="1.4" /><rect x="380.29" y="332.68" width="6" height="29.13" rx="1.5" fill="#f6465d" /><line x1="394.03" y1="356.07" x2="394.03" y2="370.29" stroke="#f6465d" stroke-width="1.4" /><rect x="391.03" y="361.80" width="6" height="4.58" rx="1.5" fill="#f6465d" /><line x1="404.76" y1="358.87" x2="404.76" y2="376.32" stroke="#f6465d" stroke-width="1.4" /><rect x="401.76" y="366.38" width="6" height="2.78" rx="1.5" fill="#f6465d" /><line x1="415.49" y1="366.00" x2="415.49" y2="377.90" stroke="#f6465d" stroke-width="1.4" /><rect x="412.49" y="369.17" width="6" height="4.25" rx="1.5" fill="#f6465d" /><line x1="426.23" y1="357.80" x2="426.23" y2="377.02" stroke="#0ecb81" stroke-width="1.4" /><rect x="423.23" y="369.84" width="6" height="3.58" rx="1.5" fill="#0ecb81" /><line x1="436.96" y1="368.01" x2="436.96" y2="384.91" stroke="#f6465d" stroke-width="1.4" /><rect x="433.96" y="369.81" width="6" height="7.53" rx="1.5" fill="#f6465d" /><line x1="447.70" y1="346.21" x2="447.70" y2="384.77" stroke="#0ecb81" stroke-width="1.4" /><rect x="444.70" y="352.53" width="6" height="24.81" rx="1.5" fill="#0ecb81" /><line x1="458.43" y1="319.43" x2="458.43" y2="355.71" stroke="#0ecb81" stroke-width="1.4" /><rect x="455.43" y="347.92" width="6" height="4.60" rx="1.5" fill="#0ecb81" /><line x1="469.16" y1="337.58" x2="469.16" y2="352.10" stroke="#0ecb81" stroke-width="1.4" /><rect x="466.16" y="344.21" width="6" height="3.71" rx="1.5" fill="#0ecb81" /><line x1="479.90" y1="314.84" x2="479.90" y2="376.14" stroke="#f6465d" stroke-width="1.4" /><rect x="476.90" y="344.21" width="6" height="28.24" rx="1.5" fill="#f6465d" /><line x1="490.63" y1="341.72" x2="490.63" y2="394.14" stroke="#0ecb81" stroke-width="1.4" /><rect x="487.63" y="356.70" width="6" height="15.76" rx="1.5" fill="#0ecb81" /><line x1="501.37" y1="343.04" x2="501.37" y2="368.02" stroke="#0ecb81" stroke-width="1.4" /><rect x="498.37" y="349.55" width="6" height="7.17" rx="1.5" fill="#0ecb81" /><line x1="512.10" y1="349.34" x2="512.10" y2="375.76" stroke="#f6465d" stroke-width="1.4" /><rect x="509.10" y="349.55" width="6" height="25.02" rx="1.5" fill="#f6465d" /><line x1="522.84" y1="359.39" x2="522.84" y2="383.45" stroke="#f6465d" stroke-width="1.4" /><rect x="519.84" y="374.57" width="6" height="7.63" rx="1.5" fill="#f6465d" /><line x1="533.57" y1="374.70" x2="533.57" y2="393.52" stroke="#f6465d" stroke-width="1.4" /><rect x="530.57" y="382.20" width="6" height="11.14" rx="1.5" fill="#f6465d" /><line x1="544.30" y1="363.68" x2="544.30" y2="402.35" stroke="#0ecb81" stroke-width="1.4" /><rect x="541.30" y="375.28" width="6" height="18.04" rx="1.5" fill="#0ecb81" /><line x1="555.04" y1="365.43" x2="555.04" y2="387.87" stroke="#f6465d" stroke-width="1.4" /><rect x="552.04" y="375.28" width="6" height="4.96" rx="1.5" fill="#f6465d" /><line x1="565.77" y1="372.93" x2="565.77" y2="385.72" stroke="#0ecb81" stroke-width="1.4" /><rect x="562.77" y="376.52" width="6" height="3.73" rx="1.5" fill="#0ecb81" /><line x1="576.51" y1="358.91" x2="576.51" y2="380.34" stroke="#0ecb81" stroke-width="1.4" /><rect x="573.51" y="364.82" width="6" height="11.70" rx="1.5" fill="#0ecb81" /><line x1="587.24" y1="354.28" x2="587.24" y2="369.19" stroke="#f6465d" stroke-width="1.4" /><rect x="584.24" y="364.82" width="6" height="2.00" rx="1.5" fill="#f6465d" /><line x1="597.97" y1="356.74" x2="597.97" y2="370.51" stroke="#0ecb81" stroke-width="1.4" /><rect x="594.97" y="365.07" width="6" height="2.00" rx="1.5" fill="#0ecb81" /><line x1="608.71" y1="358.79" x2="608.71" y2="367.36" stroke="#f6465d" stroke-width="1.4" /><rect x="605.71" y="364.93" width="6" height="2.00" rx="1.5" fill="#f6465d" /><line x1="619.44" y1="310.38" x2="619.44" y2="366.65" stroke="#0ecb81" stroke-width="1.4" /><rect x="616.44" y="312.18" width="6" height="53.52" rx="1.5" fill="#0ecb81" /><line x1="630.18" y1="288.37" x2="630.18" y2="353.15" stroke="#0ecb81" stroke-width="1.4" /><rect x="627.18" y="309.75" width="6" height="2.18" rx="1.5" fill="#0ecb81" /><line x1="640.91" y1="259.90" x2="640.91" y2="322.19" stroke="#0ecb81" stroke-width="1.4" /><rect x="637.91" y="260.93" width="6" height="48.45" rx="1.5" fill="#0ecb81" /><line x1="651.65" y1="243.65" x2="651.65" y2="303.97" stroke="#f6465d" stroke-width="1.4" /><rect x="648.65" y="261.02" width="6" height="34.61" rx="1.5" fill="#f6465d" /><line x1="662.38" y1="264.34" x2="662.38" y2="300.58" stroke="#0ecb81" stroke-width="1.4" /><rect x="659.38" y="286.40" width="6" height="9.25" rx="1.5" fill="#0ecb81" /><line x1="673.11" y1="239.30" x2="673.11" y2="287.46" stroke="#0ecb81" stroke-width="1.4" /><rect x="670.11" y="276.91" width="6" height="9.50" rx="1.5" fill="#0ecb81" /><line x1="683.85" y1="269.27" x2="683.85" y2="308.28" stroke="#0ecb81" stroke-width="1.4" /><rect x="680.85" y="270.96" width="6" height="5.95" rx="1.5" fill="#0ecb81" /><line x1="694.58" y1="259.17" x2="694.58" y2="304.41" stroke="#f6465d" stroke-width="1.4" /><rect x="691.58" y="270.97" width="6" height="20.55" rx="1.5" fill="#f6465d" /><line x1="705.32" y1="276.79" x2="705.32" y2="296.77" stroke="#0ecb81" stroke-width="1.4" /><rect x="702.32" y="278.38" width="6" height="13.11" rx="1.5" fill="#0ecb81" /><line x1="716.05" y1="257.01" x2="716.05" y2="278.65" stroke="#0ecb81" stroke-width="1.4" /><rect x="713.05" y="266.41" width="6" height="11.97" rx="1.5" fill="#0ecb81" /><line x1="726.78" y1="151.65" x2="726.78" y2="301.47" stroke="#0ecb81" stroke-width="1.4" /><rect x="723.78" y="265.11" width="6" height="2.00" rx="1.5" fill="#0ecb81" /><line x1="737.52" y1="214.10" x2="737.52" y2="270.19" stroke="#0ecb81" stroke-width="1.4" /><rect x="734.52" y="256.12" width="6" height="8.84" rx="1.5" fill="#0ecb81" /><line x1="748.25" y1="241.41" x2="748.25" y2="286.15" stroke="#0ecb81" stroke-width="1.4" /><rect x="745.25" y="255.15" width="6" height="2.00" rx="1.5" fill="#0ecb81" /><line x1="758.99" y1="213.76" x2="758.99" y2="258.96" stroke="#0ecb81" stroke-width="1.4" /><rect x="755.99" y="232.21" width="6" height="22.93" rx="1.5" fill="#0ecb81" /><line x1="769.72" y1="201.87" x2="769.72" y2="240.33" stroke="#0ecb81" stroke-width="1.4" /><rect x="766.72" y="203.58" width="6" height="28.88" rx="1.5" fill="#0ecb81" /><line x1="780.46" y1="163.38" x2="780.46" y2="219.68" stroke="#0ecb81" stroke-width="1.4" /><rect x="777.46" y="166.45" width="6" height="37.13" rx="1.5" fill="#0ecb81" /><line x1="791.19" y1="146.47" x2="791.19" y2="212.15" stroke="#f6465d" stroke-width="1.4" /><rect x="788.19" y="166.46" width="6" height="24.83" rx="1.5" fill="#f6465d" /><line x1="801.92" y1="189.62" x2="801.92" y2="211.88" stroke="#f6465d" stroke-width="1.4" /><rect x="798.92" y="191.31" width="6" height="9.70" rx="1.5" fill="#f6465d" /><line x1="812.66" y1="176.00" x2="812.66" y2="211.96" stroke="#0ecb81" stroke-width="1.4" /><rect x="809.66" y="192.61" width="6" height="8.50" rx="1.5" fill="#0ecb81" /><line x1="823.39" y1="146.00" x2="823.39" y2="207.33" stroke="#0ecb81" stroke-width="1.4" /><rect x="820.39" y="174.31" width="6" height="18.27" rx="1.5" fill="#0ecb81" /><line x1="834.13" y1="114.53" x2="834.13" y2="174.84" stroke="#0ecb81" stroke-width="1.4" /><rect x="831.13" y="145.79" width="6" height="28.55" rx="1.5" fill="#0ecb81" /><line x1="844.86" y1="139.71" x2="844.86" y2="176.73" stroke="#f6465d" stroke-width="1.4" /><rect x="841.86" y="145.90" width="6" height="21.67" rx="1.5" fill="#f6465d" /><line x1="855.59" y1="139.44" x2="855.59" y2="176.73" stroke="#0ecb81" stroke-width="1.4" /><rect x="852.59" y="148.44" width="6" height="19.10" rx="1.5" fill="#0ecb81" /><line x1="866.33" y1="80.06" x2="866.33" y2="164.12" stroke="#0ecb81" stroke-width="1.4" /><rect x="863.33" y="93.79" width="6" height="54.65" rx="1.5" fill="#0ecb81" /><line x1="877.06" y1="80.93" x2="877.06" y2="118.61" stroke="#f6465d" stroke-width="1.4" /><rect x="874.06" y="93.82" width="6" height="10.16" rx="1.5" fill="#f6465d" /><line x1="887.80" y1="98.10" x2="887.80" y2="257.77" stroke="#f6465d" stroke-width="1.4" /><rect x="884.80" y="103.98" width="6" height="68.30" rx="1.5" fill="#f6465d" /><line x1="898.53" y1="58.00" x2="898.53" y2="174.71" stroke="#0ecb81" stroke-width="1.4" /><rect x="895.53" y="141.87" width="6" height="30.41" rx="1.5" fill="#0ecb81" /><line x1="909.27" y1="139.72" x2="909.27" y2="186.13" stroke="#f6465d" stroke-width="1.4" /><rect x="906.27" y="141.88" width="6" height="30.07" rx="1.5" fill="#f6465d" /><line x1="920.00" y1="142.98" x2="920.00" y2="190.69" stroke="#0ecb81" stroke-width="1.4" /><rect x="917.00" y="168.20" width="6" height="3.73" rx="1.5" fill="#0ecb81" />
  <polyline points="254.48,431.09 383.29,308.94 436.96,384.91 479.90,314.84 544.30,402.35" fill="none" stroke="#2fc273" stroke-width="4" stroke-linecap="round" stroke-linejoin="round" />
  <circle cx="254.48" cy="431.09" r="5.5" fill="#2fc273" fill-opacity="0.15" stroke="#2fc273" stroke-width="2" /><text x="254.48" y="419.09" fill="#f3f4f6" font-size="15" font-weight="700" text-anchor="middle">X</text><circle cx="383.29" cy="308.94" r="5.5" fill="#2fc273" fill-opacity="0.15" stroke="#2fc273" stroke-width="2" /><text x="383.29" y="296.94" fill="#f3f4f6" font-size="15" font-weight="700" text-anchor="middle">A</text><circle cx="436.96" cy="384.91" r="5.5" fill="#2fc273" fill-opacity="0.15" stroke="#2fc273" stroke-width="2" /><text x="436.96" y="372.91" fill="#f3f4f6" font-size="15" font-weight="700" text-anchor="middle">B</text><circle cx="479.90" cy="314.84" r="5.5" fill="#2fc273" fill-opacity="0.15" stroke="#2fc273" stroke-width="2" /><text x="479.90" y="302.84" fill="#f3f4f6" font-size="15" font-weight="700" text-anchor="middle">C</text><circle cx="544.30" cy="402.35" r="5.5" fill="#2fc273" fill-opacity="0.15" stroke="#2fc273" stroke-width="2" /><text x="544.30" y="390.35" fill="#f3f4f6" font-size="15" font-weight="700" text-anchor="middle">D</text>
  <text x="56" y="492" fill="#8ba0b5" font-size="18">일반 완성 · TP1 0.3343 · TP2 0.35748 · SL 0.27896</text>
</svg>
