<svg xmlns="http://www.w3.org/2000/svg" width="960" height="540" viewBox="0 0 960 540">
  <rect width="960" height="540" rx="24" fill="#0b1220" />
  <rect x="28" y="28" width="904" height="484" rx="22" fill="#111827" stroke="#1f2937" />
  <text x="56" y="74" fill="#f3f4f6" font-size="34" font-weight="700">ARIAUSDT · AB=CD</text>
  <text x="904" y="74" fill="#8ba0b5" font-size="20" text-anchor="end">Bullish (매수) · Score 78.9</text>
  <line x1="72" y1="58" x2="920" y2="58" stroke="#223045" stroke-width="1" stroke-dasharray="4 8" /><line x1="72" y1="156" x2="920" y2="156" stroke="#223045" stroke-width="1" stroke-dasharray="4 8" /><line x1="72" y1="255" x2="920" y2="255" stroke="#223045" stroke-width="1" stroke-dasharray="4 8" /><line x1="72" y1="353" x2="920" y2="353" stroke="#223045" stroke-width="1" stroke-dasharray="4 8" /><line x1="72" y1="452" x2="920" y2="452" stroke="#223045" stroke-width="1" stroke-dasharray="4 8" />
  <rect x="494.84" y="393.08" width="84" height="55.72" fill="#fbbf24" fill-opacity="0.12" stroke="#fbbf24" stroke-width="1.5" stroke-dasharray="6 6" />
  <line x1="72.00" y1="395.90" x2="72.00" y2="452.00" stroke="#0ecb81" stroke-width="1.4" /><rect x="69.00" y="401.58" width="6" height="36.24" rx="1.5" fill="#0ecb81" /><line x1="82.73" y1="394.19" x2="82.73" y2="421.95" stroke="#f6465d" stroke-width="1.4" /><rect x="79.73" y="401.57" width="6" height="2.00" rx="1.5" fill="#f6465d" /><line x1="93.47" y1="379.40" x2="93.47" y2="412.59" stroke="#0ecb81" stroke-width="1.4" /><rect x="90.47" y="394.89" width="6" height="8.06" rx="1.5" fill="#0ecb81" /><line x1="104.20" y1="389.01" x2="104.20" y2="417.88" stroke="#f6465d" stroke-width="1.4" /><rect x="101.20" y="394.94" width="6" height="4.23" rx="1.5" fill="#f6465d" /><line x1="114.94" y1="384.01" x2="114.94" y2="402.10" stroke="#0ecb81" stroke-width="1.4" /><rect x="111.94" y="398.55" width="6" height="2.00" rx="1.5" fill="#0ecb81" /><line x1="125.67" y1="384.03" x2="125.67" y2="409.75" stroke="#f6465d" stroke-width="1.4" /><rect x="122.67" y="398.46" width="6" height="2.00" rx="1.5" fill="#f6465d" /><line x1="136.41" y1="395.86" x2="136.41" y2="412.24" stroke="#f6465d" stroke-width="1.4" /><rect x="133.41" y="398.98" width="6" height="8.38" rx="1.5" fill="#f6465d" /><line x1="147.14" y1="398.22" x2="147.14" y2="427.72" stroke="#0ecb81" stroke-width="1.4" /><rect x="144.14" y="404.11" width="6" height="3.24" rx="1.5" fill="#0ecb81" /><line x1="157.87" y1="388.41" x2="157.87" y2="416.34" stroke="#0ecb81" stroke-width="1.4" /><rect x="154.87" y="403.23" width="6" height="2.00" rx="1.5" fill="#0ecb81" /><line x1="168.61" y1="401.23" x2="168.61" y2="415.05" stroke="#f6465d" stroke-width="1.4" /><rect x="165.61" y="403.14" width="6" height="6.24" rx="1.5" fill="#f6465d" /><line x1="179.34" y1="403.55" x2="179.34" y2="420.58" stroke="#f6465d" stroke-width="1.4" /><rect x="176.34" y="409.31" width="6" height="10.62" rx="1.5" fill="#f6465d" /><line x1="190.08" y1="412.74" x2="190.08" y2="425.33" stroke="#0ecb81" stroke-width="1.4" /><rect x="187.08" y="418.90" width="6" height="2.00" rx="1.5" fill="#0ecb81" /><line x1="200.81" y1="397.63" x2="200.81" y2="419.62" stroke="#0ecb81" stroke-width="1.4" /><rect x="197.81" y="404.49" width="6" height="14.34" rx="1.5" fill="#0ecb81" /><line x1="211.54" y1="393.86" x2="211.54" y2="405.49" stroke="#0ecb81" stroke-width="1.4" /><rect x="208.54" y="403.76" width="6" height="2.00" rx="1.5" fill="#0ecb81" /><line x1="222.28" y1="401.82" x2="222.28" y2="422.95" stroke="#f6465d" stroke-width="1.4" /><rect x="219.28" y="403.77" width="6" height="14.61" rx="1.5" fill="#f6465d" /><line x1="233.01" y1="410.79" x2="233.01" y2="433.64" stroke="#0ecb81" stroke-width="1.4" /><rect x="230.01" y="412.85" width="6" height="5.54" rx="1.5" fill="#0ecb81" /><line x1="243.75" y1="408.99" x2="243.75" y2="420.52" stroke="#f6465d" stroke-width="1.4" /><rect x="240.75" y="412.81" width="6" height="6.82" rx="1.5" fill="#f6465d" /><line x1="254.48" y1="413.58" x2="254.48" y2="422.14" stroke="#0ecb81" stroke-width="1.4" /><rect x="251.48" y="417.45" width="6" height="2.17" rx="1.5" fill="#0ecb81" /><line x1="265.22" y1="405.80" x2="265.22" y2="418.35" stroke="#0ecb81" stroke-width="1.4" /><rect x="262.22" y="411.75" width="6" height="5.70" rx="1.5" fill="#0ecb81" /><line x1="275.95" y1="398.23" x2="275.95" y2="416.70" stroke="#0ecb81" stroke-width="1.4" /><rect x="272.95" y="403.30" width="6" height="8.49" rx="1.5" fill="#0ecb81" /><line x1="286.68" y1="360.60" x2="286.68" y2="403.95" stroke="#0ecb81" stroke-width="1.4" /><rect x="283.68" y="370.03" width="6" height="33.26" rx="1.5" fill="#0ecb81" /><line x1="297.42" y1="364.96" x2="297.42" y2="383.61" stroke="#f6465d" stroke-width="1.4" /><rect x="294.42" y="370.03" width="6" height="9.50" rx="1.5" fill="#f6465d" /><line x1="308.15" y1="367.09" x2="308.15" y2="380.55" stroke="#0ecb81" stroke-width="1.4" /><rect x="305.15" y="373.60" width="6" height="5.95" rx="1.5" fill="#0ecb81" /><line x1="318.89" y1="355.66" x2="318.89" y2="377.87" stroke="#0ecb81" stroke-width="1.4" /><rect x="315.89" y="358.42" width="6" height="15.19" rx="1.5" fill="#0ecb81" /><line x1="329.62" y1="346.25" x2="329.62" y2="380.00" stroke="#f6465d" stroke-width="1.4" /><rect x="326.62" y="358.29" width="6" height="5.99" rx="1.5" fill="#f6465d" /><line x1="340.35" y1="363.69" x2="340.35" y2="397.50" stroke="#f6465d" stroke-width="1.4" /><rect x="337.35" y="364.37" width="6" height="27.27" rx="1.5" fill="#f6465d" /><line x1="351.09" y1="326.60" x2="351.09" y2="393.82" stroke="#0ecb81" stroke-width="1.4" /><rect x="348.09" y="334.42" width="6" height="57.31" rx="1.5" fill="#0ecb81" /><line x1="361.82" y1="310.66" x2="361.82" y2="367.58" stroke="#f6465d" stroke-width="1.4" /><rect x="358.82" y="334.55" width="6" height="29.33" rx="1.5" fill="#f6465d" /><line x1="372.56" y1="358.11" x2="372.56" y2="372.42" stroke="#f6465d" stroke-width="1.4" /><rect x="369.56" y="363.88" width="6" height="4.61" rx="1.5" fill="#f6465d" /><line x1="383.29" y1="360.93" x2="383.29" y2="378.49" stroke="#f6465d" stroke-width="1.4" /><rect x="380.29" y="368.49" width="6" height="2.80" rx="1.5" fill="#f6465d" /><line x1="394.03" y1="368.10" x2="394.03" y2="380.09" stroke="#f6465d" stroke-width="1.4" /><rect x="391.03" y="371.30" width="6" height="4.28" rx="1.5" fill="#f6465d" /><line x1="404.76" y1="359.85" x2="404.76" y2="379.20" stroke="#0ecb81" stroke-width="1.4" /><rect x="401.76" y="371.97" width="6" height="3.61" rx="1.5" fill="#0ecb81" /><line x1="415.49" y1="370.12" x2="415.49" y2="387.14" stroke="#f6465d" stroke-width="1.4" /><rect x="412.49" y="371.94" width="6" height="7.58" rx="1.5" fill="#f6465d" /><line x1="426.23" y1="348.18" x2="426.23" y2="387.00" stroke="#0ecb81" stroke-width="1.4" /><rect x="423.23" y="354.54" width="6" height="24.98" rx="1.5" fill="#0ecb81" /><line x1="436.96" y1="321.21" x2="436.96" y2="357.74" stroke="#0ecb81" stroke-width="1.4" /><rect x="433.96" y="349.90" width="6" height="4.63" rx="1.5" fill="#0ecb81" /><line x1="447.70" y1="339.49" x2="447.70" y2="354.11" stroke="#0ecb81" stroke-width="1.4" /><rect x="444.70" y="346.16" width="6" height="3.73" rx="1.5" fill="#0ecb81" /><line x1="458.43" y1="316.59" x2="458.43" y2="378.31" stroke="#f6465d" stroke-width="1.4" /><rect x="455.43" y="346.16" width="6" height="28.43" rx="1.5" fill="#f6465d" /><line x1="469.16" y1="343.66" x2="469.16" y2="396.43" stroke="#0ecb81" stroke-width="1.4" /><rect x="466.16" y="358.74" width="6" height="15.87" rx="1.5" fill="#0ecb81" /><line x1="479.90" y1="344.99" x2="479.90" y2="370.14" stroke="#0ecb81" stroke-width="1.4" /><rect x="476.90" y="351.54" width="6" height="7.22" rx="1.5" fill="#0ecb81" /><line x1="490.63" y1="351.33" x2="490.63" y2="377.93" stroke="#f6465d" stroke-width="1.4" /><rect x="487.63" y="351.54" width="6" height="25.19" rx="1.5" fill="#f6465d" /><line x1="501.37" y1="361.45" x2="501.37" y2="385.67" stroke="#f6465d" stroke-width="1.4" /><rect x="498.37" y="376.73" width="6" height="7.68" rx="1.5" fill="#f6465d" /><line x1="512.10" y1="376.86" x2="512.10" y2="395.82" stroke="#f6465d" stroke-width="1.4" /><rect x="509.10" y="384.41" width="6" height="11.21" rx="1.5" fill="#f6465d" /><line x1="522.84" y1="365.76" x2="522.84" y2="404.71" stroke="#0ecb81" stroke-width="1.4" /><rect x="519.84" y="377.45" width="6" height="18.17" rx="1.5" fill="#0ecb81" /><line x1="533.57" y1="367.53" x2="533.57" y2="390.12" stroke="#f6465d" stroke-width="1.4" /><rect x="530.57" y="377.45" width="6" height="5.00" rx="1.5" fill="#f6465d" /><line x1="544.30" y1="375.08" x2="544.30" y2="387.96" stroke="#0ecb81" stroke-width="1.4" /><rect x="541.30" y="378.70" width="6" height="3.76" rx="1.5" fill="#0ecb81" /><line x1="555.04" y1="360.96" x2="555.04" y2="382.54" stroke="#0ecb81" stroke-width="1.4" /><rect x="552.04" y="366.91" width="6" height="11.78" rx="1.5" fill="#0ecb81" /><line x1="565.77" y1="356.30" x2="565.77" y2="371.32" stroke="#f6465d" stroke-width="1.4" /><rect x="562.77" y="366.92" width="6" height="2.00" rx="1.5" fill="#f6465d" /><line x1="576.51" y1="358.78" x2="576.51" y2="372.64" stroke="#0ecb81" stroke-width="1.4" /><rect x="573.51" y="367.16" width="6" height="2.00" rx="1.5" fill="#0ecb81" /><line x1="587.24" y1="360.85" x2="587.24" y2="369.47" stroke="#f6465d" stroke-width="1.4" /><rect x="584.24" y="367.03" width="6" height="2.00" rx="1.5" fill="#f6465d" /><line x1="597.97" y1="312.11" x2="597.97" y2="368.76" stroke="#0ecb81" stroke-width="1.4" /><rect x="594.97" y="313.92" width="6" height="53.89" rx="1.5" fill="#0ecb81" /><line x1="608.71" y1="289.94" x2="608.71" y2="355.17" stroke="#0ecb81" stroke-width="1.4" /><rect x="605.71" y="311.47" width="6" height="2.20" rx="1.5" fill="#0ecb81" /><line x1="619.44" y1="261.28" x2="619.44" y2="323.99" stroke="#0ecb81" stroke-width="1.4" /><rect x="616.44" y="262.32" width="6" height="48.78" rx="1.5" fill="#0ecb81" /><line x1="630.18" y1="244.92" x2="630.18" y2="305.65" stroke="#f6465d" stroke-width="1.4" /><rect x="627.18" y="262.41" width="6" height="34.84" rx="1.5" fill="#f6465d" /><line x1="640.91" y1="265.75" x2="640.91" y2="302.24" stroke="#0ecb81" stroke-width="1.4" /><rect x="637.91" y="287.96" width="6" height="9.31" rx="1.5" fill="#0ecb81" /><line x1="651.65" y1="240.54" x2="651.65" y2="289.03" stroke="#0ecb81" stroke-width="1.4" /><rect x="648.65" y="278.40" width="6" height="9.56" rx="1.5" fill="#0ecb81" /><line x1="662.38" y1="270.72" x2="662.38" y2="309.99" stroke="#0ecb81" stroke-width="1.4" /><rect x="659.38" y="272.41" width="6" height="5.99" rx="1.5" fill="#0ecb81" /><line x1="673.11" y1="260.54" x2="673.11" y2="306.10" stroke="#f6465d" stroke-width="1.4" /><rect x="670.11" y="272.42" width="6" height="20.69" rx="1.5" fill="#f6465d" /><line x1="683.85" y1="278.29" x2="683.85" y2="298.40" stroke="#0ecb81" stroke-width="1.4" /><rect x="680.85" y="279.89" width="6" height="13.20" rx="1.5" fill="#0ecb81" /><line x1="694.58" y1="258.37" x2="694.58" y2="280.15" stroke="#0ecb81" stroke-width="1.4" /><rect x="691.58" y="267.84" width="6" height="12.05" rx="1.5" fill="#0ecb81" /><line x1="705.32" y1="152.29" x2="705.32" y2="303.14" stroke="#0ecb81" stroke-width="1.4" /><rect x="702.32" y="266.53" width="6" height="2.00" rx="1.5" fill="#0ecb81" /><line x1="716.05" y1="215.17" x2="716.05" y2="271.64" stroke="#0ecb81" stroke-width="1.4" /><rect x="713.05" y="257.48" width="6" height="8.90" rx="1.5" fill="#0ecb81" /><line x1="726.78" y1="242.67" x2="726.78" y2="287.71" stroke="#0ecb81" stroke-width="1.4" /><rect x="723.78" y="256.50" width="6" height="2.00" rx="1.5" fill="#0ecb81" /><line x1="737.52" y1="214.83" x2="737.52" y2="260.33" stroke="#0ecb81" stroke-width="1.4" /><rect x="734.52" y="233.40" width="6" height="23.09" rx="1.5" fill="#0ecb81" /><line x1="748.25" y1="202.85" x2="748.25" y2="241.58" stroke="#0ecb81" stroke-width="1.4" /><rect x="745.25" y="204.57" width="6" height="29.07" rx="1.5" fill="#0ecb81" /><line x1="758.99" y1="164.10" x2="758.99" y2="220.79" stroke="#0ecb81" stroke-width="1.4" /><rect x="755.99" y="167.19" width="6" height="37.38" rx="1.5" fill="#0ecb81" /><line x1="769.72" y1="147.07" x2="769.72" y2="213.20" stroke="#f6465d" stroke-width="1.4" /><rect x="766.72" y="167.20" width="6" height="25.00" rx="1.5" fill="#f6465d" /><line x1="780.46" y1="190.52" x2="780.46" y2="212.94" stroke="#f6465d" stroke-width="1.4" /><rect x="777.46" y="192.22" width="6" height="9.77" rx="1.5" fill="#f6465d" /><line x1="791.19" y1="176.81" x2="791.19" y2="213.01" stroke="#0ecb81" stroke-width="1.4" /><rect x="788.19" y="193.53" width="6" height="8.56" rx="1.5" fill="#0ecb81" /><line x1="801.92" y1="146.60" x2="801.92" y2="208.35" stroke="#0ecb81" stroke-width="1.4" /><rect x="798.92" y="175.11" width="6" height="18.40" rx="1.5" fill="#0ecb81" /><line x1="812.66" y1="114.92" x2="812.66" y2="175.63" stroke="#0ecb81" stroke-width="1.4" /><rect x="809.66" y="146.39" width="6" height="28.74" rx="1.5" fill="#0ecb81" /><line x1="823.39" y1="140.27" x2="823.39" y2="177.55" stroke="#f6465d" stroke-width="1.4" /><rect x="820.39" y="146.50" width="6" height="21.82" rx="1.5" fill="#f6465d" /><line x1="834.13" y1="139.99" x2="834.13" y2="177.55" stroke="#0ecb81" stroke-width="1.4" /><rect x="831.13" y="149.05" width="6" height="19.23" rx="1.5" fill="#0ecb81" /><line x1="844.86" y1="80.21" x2="844.86" y2="164.84" stroke="#0ecb81" stroke-width="1.4" /><rect x="841.86" y="94.04" width="6" height="55.02" rx="1.5" fill="#0ecb81" /><line x1="855.59" y1="81.09" x2="855.59" y2="119.02" stroke="#f6465d" stroke-width="1.4" /><rect x="852.59" y="94.06" width="6" height="10.23" rx="1.5" fill="#f6465d" /><line x1="866.33" y1="98.38" x2="866.33" y2="259.14" stroke="#f6465d" stroke-width="1.4" /><rect x="863.33" y="104.29" width="6" height="68.77" rx="1.5" fill="#f6465d" /><line x1="877.06" y1="58.00" x2="877.06" y2="175.51" stroke="#0ecb81" stroke-width="1.4" /><rect x="874.06" y="142.44" width="6" height="30.62" rx="1.5" fill="#0ecb81" /><line x1="887.80" y1="140.28" x2="887.80" y2="187.01" stroke="#f6465d" stroke-width="1.4" /><rect x="884.80" y="142.45" width="6" height="30.28" rx="1.5" fill="#f6465d" /><line x1="898.53" y1="143.56" x2="898.53" y2="191.59" stroke="#0ecb81" stroke-width="1.4" /><rect x="895.53" y="162.52" width="6" height="10.19" rx="1.5" fill="#0ecb81" /><line x1="909.27" y1="92.50" x2="909.27" y2="175.37" stroke="#0ecb81" stroke-width="1.4" /><rect x="906.27" y="118.97" width="6" height="43.62" rx="1.5" fill="#0ecb81" /><line x1="920.00" y1="103.54" x2="920.00" y2="155.30" stroke="#f6465d" stroke-width="1.4" /><rect x="917.00" y="118.61" width="6" height="14.17" rx="1.5" fill="#f6465d" />
  <polyline points="233.01,433.64 361.82,310.66 415.49,387.14 458.43,316.59 522.84,404.71" fill="none" stroke="#2fc273" stroke-width="4" stroke-linecap="round" stroke-linejoin="round" />
  <circle cx="233.01" cy="433.64" r="5.5" fill="#2fc273" fill-opacity="0.15" stroke="#2fc273" stroke-width="2" /><text x="233.01" y="421.64" fill="#f3f4f6" font-size="15" font-weight="700" text-anchor="middle">X</text><circle cx="361.82" cy="310.66" r="5.5" fill="#2fc273" fill-opacity="0.15" stroke="#2fc273" stroke-width="2" /><text x="361.82" y="298.66" fill="#f3f4f6" font-size="15" font-weight="700" text-anchor="middle">A</text><circle cx="415.49" cy="387.14" r="5.5" fill="#2fc273" fill-opacity="0.15" stroke="#2fc273" stroke-width="2" /><text x="415.49" y="375.14" fill="#f3f4f6" font-size="15" font-weight="700" text-anchor="middle">B</text><circle cx="458.43" cy="316.59" r="5.5" fill="#2fc273" fill-opacity="0.15" stroke="#2fc273" stroke-width="2" /><text x="458.43" y="304.59" fill="#f3f4f6" font-size="15" font-weight="700" text-anchor="middle">C</text><circle cx="522.84" cy="404.71" r="5.5" fill="#2fc273" fill-opacity="0.15" stroke="#2fc273" stroke-width="2" /><text x="522.84" y="392.71" fill="#f3f4f6" font-size="15" font-weight="700" text-anchor="middle">D</text>
  <text x="56" y="492" fill="#8ba0b5" font-size="18">일반 완성 · TP1 0.3343 · TP2 0.35748 · SL 0.27896</text>
</svg>
