<svg xmlns="http://www.w3.org/2000/svg" width="960" height="540" viewBox="0 0 960 540">
  <rect width="960" height="540" rx="24" fill="#0b1220" />
  <rect x="28" y="28" width="904" height="484" rx="22" fill="#111827" stroke="#1f2937" />
  <text x="56" y="74" fill="#f3f4f6" font-size="34" font-weight="700">AVAXUSDT · AB=CD</text>
  <text x="904" y="74" fill="#8ba0b5" font-size="20" text-anchor="end">Bullish (매수) · Score 87.0</text>
  <line x1="72" y1="58" x2="920" y2="58" stroke="#223045" stroke-width="1" stroke-dasharray="4 8" /><line x1="72" y1="156" x2="920" y2="156" stroke="#223045" stroke-width="1" stroke-dasharray="4 8" /><line x1="72" y1="255" x2="920" y2="255" stroke="#223045" stroke-width="1" stroke-dasharray="4 8" /><line x1="72" y1="353" x2="920" y2="353" stroke="#223045" stroke-width="1" stroke-dasharray="4 8" /><line x1="72" y1="452" x2="920" y2="452" stroke="#223045" stroke-width="1" stroke-dasharray="4 8" />
  <rect x="773.92" y="304.51" width="84" height="59.06" fill="#fbbf24" fill-opacity="0.12" stroke="#fbbf24" stroke-width="1.5" stroke-dasharray="6 6" />
  <line x1="72.00" y1="326.29" x2="72.00" y2="424.61" stroke="#f6465d" stroke-width="1.4" /><rect x="69.00" y="331.90" width="6" height="4.21" rx="1.5" fill="#f6465d" /><line x1="82.73" y1="310.83" x2="82.73" y2="403.54" stroke="#f6465d" stroke-width="1.4" /><rect x="79.73" y="336.12" width="6" height="42.14" rx="1.5" fill="#f6465d" /><line x1="93.47" y1="306.62" x2="93.47" y2="379.66" stroke="#0ecb81" stroke-width="1.4" /><rect x="90.47" y="325.58" width="6" height="51.97" rx="1.5" fill="#0ecb81" /><line x1="104.20" y1="311.54" x2="104.20" y2="354.38" stroke="#0ecb81" stroke-width="1.4" /><rect x="101.20" y="312.24" width="6" height="12.64" rx="1.5" fill="#0ecb81" /><line x1="114.94" y1="260.97" x2="114.94" y2="345.95" stroke="#f6465d" stroke-width="1.4" /><rect x="111.94" y="312.24" width="6" height="7.02" rx="1.5" fill="#f6465d" /><line x1="125.67" y1="74.86" x2="125.67" y2="321.37" stroke="#0ecb81" stroke-width="1.4" /><rect x="122.67" y="121.91" width="6" height="198.05" rx="1.5" fill="#0ecb81" /><line x1="136.41" y1="106.46" x2="136.41" y2="178.80" stroke="#f6465d" stroke-width="1.4" /><rect x="133.41" y="121.91" width="6" height="25.28" rx="1.5" fill="#f6465d" /><line x1="147.14" y1="91.01" x2="147.14" y2="161.94" stroke="#0ecb81" stroke-width="1.4" /><rect x="144.14" y="116.29" width="6" height="30.20" rx="1.5" fill="#0ecb81" /><line x1="157.87" y1="99.44" x2="157.87" y2="157.03" stroke="#f6465d" stroke-width="1.4" /><rect x="154.87" y="116.29" width="6" height="19.66" rx="1.5" fill="#f6465d" /><line x1="168.61" y1="128.93" x2="168.61" y2="168.97" stroke="#f6465d" stroke-width="1.4" /><rect x="165.61" y="136.66" width="6" height="32.31" rx="1.5" fill="#f6465d" /><line x1="179.34" y1="72.05" x2="179.34" y2="178.80" stroke="#0ecb81" stroke-width="1.4" /><rect x="176.34" y="98.03" width="6" height="70.23" rx="1.5" fill="#0ecb81" /><line x1="190.08" y1="58.00" x2="190.08" y2="124.72" stroke="#f6465d" stroke-width="1.4" /><rect x="187.08" y="97.33" width="6" height="19.66" rx="1.5" fill="#f6465d" /><line x1="200.81" y1="72.75" x2="200.81" y2="128.23" stroke="#f6465d" stroke-width="1.4" /><rect x="197.81" y="116.29" width="6" height="2.11" rx="1.5" fill="#f6465d" /><line x1="211.54" y1="93.12" x2="211.54" y2="187.93" stroke="#f6465d" stroke-width="1.4" /><rect x="208.54" y="118.40" width="6" height="4.92" rx="1.5" fill="#f6465d" /><line x1="222.28" y1="102.25" x2="222.28" y2="149.30" stroke="#f6465d" stroke-width="1.4" /><rect x="219.28" y="123.32" width="6" height="2.00" rx="1.5" fill="#f6465d" /><line x1="233.01" y1="106.46" x2="233.01" y2="132.45" stroke="#f6465d" stroke-width="1.4" /><rect x="230.01" y="124.02" width="6" height="2.81" rx="1.5" fill="#f6465d" /><line x1="243.75" y1="114.19" x2="243.75" y2="150.71" stroke="#f6465d" stroke-width="1.4" /><rect x="240.75" y="126.83" width="6" height="9.83" rx="1.5" fill="#f6465d" /><line x1="254.48" y1="126.83" x2="254.48" y2="157.03" stroke="#f6465d" stroke-width="1.4" /><rect x="251.48" y="137.36" width="6" height="10.53" rx="1.5" fill="#f6465d" /><line x1="265.22" y1="126.12" x2="265.22" y2="164.05" stroke="#0ecb81" stroke-width="1.4" /><rect x="262.22" y="139.47" width="6" height="8.43" rx="1.5" fill="#0ecb81" /><line x1="275.95" y1="89.60" x2="275.95" y2="142.28" stroke="#0ecb81" stroke-width="1.4" /><rect x="272.95" y="117.70" width="6" height="22.47" rx="1.5" fill="#0ecb81" /><line x1="286.68" y1="94.52" x2="286.68" y2="134.55" stroke="#0ecb81" stroke-width="1.4" /><rect x="283.68" y="117.70" width="6" height="2.00" rx="1.5" fill="#0ecb81" /><line x1="297.42" y1="110.67" x2="297.42" y2="265.89" stroke="#f6465d" stroke-width="1.4" /><rect x="294.42" y="118.40" width="6" height="141.17" rx="1.5" fill="#f6465d" /><line x1="308.15" y1="259.57" x2="308.15" y2="349.46" stroke="#f6465d" stroke-width="1.4" /><rect x="305.15" y="259.57" width="6" height="16.86" rx="1.5" fill="#f6465d" /><line x1="318.89" y1="266.59" x2="318.89" y2="452.00" stroke="#f6465d" stroke-width="1.4" /><rect x="315.89" y="277.12" width="6" height="103.94" rx="1.5" fill="#f6465d" /><line x1="329.62" y1="332.61" x2="329.62" y2="386.68" stroke="#0ecb81" stroke-width="1.4" /><rect x="326.62" y="343.84" width="6" height="37.22" rx="1.5" fill="#0ecb81" /><line x1="340.35" y1="307.32" x2="340.35" y2="352.97" stroke="#0ecb81" stroke-width="1.4" /><rect x="337.35" y="337.52" width="6" height="6.32" rx="1.5" fill="#0ecb81" /><line x1="351.09" y1="308.73" x2="351.09" y2="371.94" stroke="#0ecb81" stroke-width="1.4" /><rect x="348.09" y="315.05" width="6" height="21.77" rx="1.5" fill="#0ecb81" /><line x1="361.82" y1="307.32" x2="361.82" y2="386.68" stroke="#f6465d" stroke-width="1.4" /><rect x="358.82" y="315.75" width="6" height="44.25" rx="1.5" fill="#f6465d" /><line x1="372.56" y1="248.33" x2="372.56" y2="364.21" stroke="#0ecb81" stroke-width="1.4" /><rect x="369.56" y="301.00" width="6" height="58.99" rx="1.5" fill="#0ecb81" /><line x1="383.29" y1="276.42" x2="383.29" y2="326.99" stroke="#0ecb81" stroke-width="1.4" /><rect x="380.29" y="289.06" width="6" height="11.94" rx="1.5" fill="#0ecb81" /><line x1="394.03" y1="171.07" x2="394.03" y2="301.70" stroke="#0ecb81" stroke-width="1.4" /><rect x="391.03" y="192.14" width="6" height="96.22" rx="1.5" fill="#0ecb81" /><line x1="404.76" y1="164.05" x2="404.76" y2="274.31" stroke="#f6465d" stroke-width="1.4" /><rect x="401.76" y="192.14" width="6" height="57.59" rx="1.5" fill="#f6465d" /><line x1="415.49" y1="234.28" x2="415.49" y2="351.57" stroke="#f6465d" stroke-width="1.4" /><rect x="412.49" y="249.73" width="6" height="62.51" rx="1.5" fill="#f6465d" /><line x1="426.23" y1="301.70" x2="426.23" y2="410.56" stroke="#f6465d" stroke-width="1.4" /><rect x="423.23" y="312.24" width="6" height="16.86" rx="1.5" fill="#f6465d" /><line x1="436.96" y1="292.57" x2="436.96" y2="351.57" stroke="#f6465d" stroke-width="1.4" /><rect x="433.96" y="329.09" width="6" height="5.62" rx="1.5" fill="#f6465d" /><line x1="447.70" y1="282.74" x2="447.70" y2="336.12" stroke="#0ecb81" stroke-width="1.4" /><rect x="444.70" y="308.02" width="6" height="26.69" rx="1.5" fill="#0ecb81" /><line x1="458.43" y1="268.70" x2="458.43" y2="338.93" stroke="#f6465d" stroke-width="1.4" /><rect x="455.43" y="307.32" width="6" height="31.60" rx="1.5" fill="#f6465d" /><line x1="469.16" y1="144.39" x2="469.16" y2="350.87" stroke="#0ecb81" stroke-width="1.4" /><rect x="466.16" y="184.42" width="6" height="153.81" rx="1.5" fill="#0ecb81" /><line x1="479.90" y1="161.94" x2="479.90" y2="221.64" stroke="#0ecb81" stroke-width="1.4" /><rect x="476.90" y="171.07" width="6" height="13.34" rx="1.5" fill="#0ecb81" /><line x1="490.63" y1="145.09" x2="490.63" y2="206.89" stroke="#0ecb81" stroke-width="1.4" /><rect x="487.63" y="145.09" width="6" height="25.99" rx="1.5" fill="#0ecb81" /><line x1="501.37" y1="112.78" x2="501.37" y2="219.53" stroke="#f6465d" stroke-width="1.4" /><rect x="498.37" y="144.39" width="6" height="40.73" rx="1.5" fill="#f6465d" /><line x1="512.10" y1="130.34" x2="512.10" y2="217.43" stroke="#f6465d" stroke-width="1.4" /><rect x="509.10" y="184.42" width="6" height="25.28" rx="1.5" fill="#f6465d" /><line x1="522.84" y1="161.24" x2="522.84" y2="216.02" stroke="#0ecb81" stroke-width="1.4" /><rect x="519.84" y="176.69" width="6" height="32.31" rx="1.5" fill="#0ecb81" /><line x1="533.57" y1="101.54" x2="533.57" y2="184.42" stroke="#0ecb81" stroke-width="1.4" /><rect x="530.57" y="134.55" width="6" height="41.44" rx="1.5" fill="#0ecb81" /><line x1="544.30" y1="119.80" x2="544.30" y2="190.74" stroke="#f6465d" stroke-width="1.4" /><rect x="541.30" y="133.85" width="6" height="23.88" rx="1.5" fill="#f6465d" /><line x1="555.04" y1="128.93" x2="555.04" y2="173.18" stroke="#0ecb81" stroke-width="1.4" /><rect x="552.04" y="152.81" width="6" height="4.21" rx="1.5" fill="#0ecb81" /><line x1="565.77" y1="131.74" x2="565.77" y2="184.42" stroke="#0ecb81" stroke-width="1.4" /><rect x="562.77" y="145.79" width="6" height="7.73" rx="1.5" fill="#0ecb81" /><line x1="576.51" y1="125.42" x2="576.51" y2="217.43" stroke="#f6465d" stroke-width="1.4" /><rect x="573.51" y="145.09" width="6" height="60.40" rx="1.5" fill="#f6465d" /><line x1="587.24" y1="201.98" x2="587.24" y2="269.40" stroke="#f6465d" stroke-width="1.4" /><rect x="584.24" y="204.78" width="6" height="35.82" rx="1.5" fill="#f6465d" /><line x1="597.97" y1="183.71" x2="597.97" y2="287.66" stroke="#0ecb81" stroke-width="1.4" /><rect x="594.97" y="204.78" width="6" height="35.82" rx="1.5" fill="#0ecb81" /><line x1="608.71" y1="194.95" x2="608.71" y2="278.53" stroke="#f6465d" stroke-width="1.4" /><rect x="605.71" y="204.08" width="6" height="21.77" rx="1.5" fill="#f6465d" /><line x1="619.44" y1="201.27" x2="619.44" y2="308.73" stroke="#f6465d" stroke-width="1.4" /><rect x="616.44" y="225.85" width="6" height="58.29" rx="1.5" fill="#f6465d" /><line x1="630.18" y1="256.76" x2="630.18" y2="341.74" stroke="#0ecb81" stroke-width="1.4" /><rect x="627.18" y="275.72" width="6" height="7.73" rx="1.5" fill="#0ecb81" /><line x1="640.91" y1="271.50" x2="640.91" y2="336.82" stroke="#f6465d" stroke-width="1.4" /><rect x="637.91" y="275.02" width="6" height="35.82" rx="1.5" fill="#f6465d" /><line x1="651.65" y1="287.66" x2="651.65" y2="349.46" stroke="#0ecb81" stroke-width="1.4" /><rect x="648.65" y="303.81" width="6" height="6.32" rx="1.5" fill="#0ecb81" /><line x1="662.38" y1="282.74" x2="662.38" y2="386.68" stroke="#f6465d" stroke-width="1.4" /><rect x="659.38" y="303.11" width="6" height="4.92" rx="1.5" fill="#f6465d" /><line x1="673.11" y1="187.93" x2="673.11" y2="320.67" stroke="#0ecb81" stroke-width="1.4" /><rect x="670.11" y="242.01" width="6" height="65.32" rx="1.5" fill="#0ecb81" /><line x1="683.85" y1="231.47" x2="683.85" y2="266.59" stroke="#0ecb81" stroke-width="1.4" /><rect x="680.85" y="232.17" width="6" height="10.53" rx="1.5" fill="#0ecb81" /><line x1="694.58" y1="183.01" x2="694.58" y2="241.30" stroke="#0ecb81" stroke-width="1.4" /><rect x="691.58" y="192.84" width="6" height="39.33" rx="1.5" fill="#0ecb81" /><line x1="705.32" y1="179.50" x2="705.32" y2="230.07" stroke="#f6465d" stroke-width="1.4" /><rect x="702.32" y="192.84" width="6" height="25.99" rx="1.5" fill="#f6465d" /><line x1="716.05" y1="209.70" x2="716.05" y2="276.42" stroke="#f6465d" stroke-width="1.4" /><rect x="713.05" y="218.13" width="6" height="45.65" rx="1.5" fill="#f6465d" /><line x1="726.78" y1="242.01" x2="726.78" y2="286.25" stroke="#f6465d" stroke-width="1.4" /><rect x="723.78" y="263.78" width="6" height="2.00" rx="1.5" fill="#f6465d" /><line x1="737.52" y1="223.75" x2="737.52" y2="277.12" stroke="#0ecb81" stroke-width="1.4" /><rect x="734.52" y="244.11" width="6" height="21.07" rx="1.5" fill="#0ecb81" /><line x1="748.25" y1="221.64" x2="748.25" y2="249.73" stroke="#0ecb81" stroke-width="1.4" /><rect x="745.25" y="242.71" width="6" height="2.00" rx="1.5" fill="#0ecb81" /><line x1="758.99" y1="197.76" x2="758.99" y2="244.11" stroke="#0ecb81" stroke-width="1.4" /><rect x="755.99" y="233.58" width="6" height="8.43" rx="1.5" fill="#0ecb81" /><line x1="769.72" y1="227.96" x2="769.72" y2="257.46" stroke="#f6465d" stroke-width="1.4" /><rect x="766.72" y="233.58" width="6" height="19.66" rx="1.5" fill="#f6465d" /><line x1="780.46" y1="246.22" x2="780.46" y2="311.54" stroke="#f6465d" stroke-width="1.4" /><rect x="777.46" y="253.95" width="6" height="51.27" rx="1.5" fill="#f6465d" /><line x1="791.19" y1="305.22" x2="791.19" y2="360.70" stroke="#f6465d" stroke-width="1.4" /><rect x="788.19" y="305.22" width="6" height="21.77" rx="1.5" fill="#f6465d" /><line x1="801.92" y1="297.49" x2="801.92" y2="372.64" stroke="#f6465d" stroke-width="1.4" /><rect x="798.92" y="326.99" width="6" height="11.94" rx="1.5" fill="#f6465d" /><line x1="812.66" y1="302.41" x2="812.66" y2="360.00" stroke="#0ecb81" stroke-width="1.4" /><rect x="809.66" y="318.56" width="6" height="19.66" rx="1.5" fill="#0ecb81" /><line x1="823.39" y1="186.52" x2="823.39" y2="335.42" stroke="#0ecb81" stroke-width="1.4" /><rect x="820.39" y="224.45" width="6" height="94.11" rx="1.5" fill="#0ecb81" /><line x1="834.13" y1="223.04" x2="834.13" y2="334.01" stroke="#f6465d" stroke-width="1.4" /><rect x="831.13" y="224.45" width="6" height="37.93" rx="1.5" fill="#f6465d" /><line x1="844.86" y1="198.46" x2="844.86" y2="301.00" stroke="#0ecb81" stroke-width="1.4" /><rect x="841.86" y="202.68" width="6" height="59.70" rx="1.5" fill="#0ecb81" /><line x1="855.59" y1="199.87" x2="855.59" y2="310.83" stroke="#f6465d" stroke-width="1.4" /><rect x="852.59" y="202.68" width="6" height="13.34" rx="1.5" fill="#f6465d" /><line x1="866.33" y1="204.08" x2="866.33" y2="263.08" stroke="#f6465d" stroke-width="1.4" /><rect x="863.33" y="216.72" width="6" height="31.60" rx="1.5" fill="#f6465d" /><line x1="877.06" y1="206.89" x2="877.06" y2="258.86" stroke="#0ecb81" stroke-width="1.4" /><rect x="874.06" y="237.79" width="6" height="9.83" rx="1.5" fill="#0ecb81" /><line x1="887.80" y1="177.39" x2="887.80" y2="248.33" stroke="#0ecb81" stroke-width="1.4" /><rect x="884.80" y="194.95" width="6" height="42.84" rx="1.5" fill="#0ecb81" /><line x1="898.53" y1="162.65" x2="898.53" y2="220.94" stroke="#0ecb81" stroke-width="1.4" /><rect x="895.53" y="170.37" width="6" height="23.88" rx="1.5" fill="#0ecb81" /><line x1="909.27" y1="161.94" x2="909.27" y2="214.62" stroke="#f6465d" stroke-width="1.4" /><rect x="906.27" y="169.67" width="6" height="28.09" rx="1.5" fill="#f6465d" /><line x1="920.00" y1="182.31" x2="920.00" y2="218.83" stroke="#f6465d" stroke-width="1.4" /><rect x="917.00" y="197.76" width="6" height="17.56" rx="1.5" fill="#f6465d" />
  <polyline points="662.38,386.68 705.32,179.50 726.78,286.25 758.99,197.76 801.92,372.64" fill="none" stroke="#2fc273" stroke-width="4" stroke-linecap="round" stroke-linejoin="round" />
  <circle cx="662.38" cy="386.68" r="5.5" fill="#2fc273" fill-opacity="0.15" stroke="#2fc273" stroke-width="2" /><text x="662.38" y="374.68" fill="#f3f4f6" font-size="15" font-weight="700" text-anchor="middle">X</text><circle cx="705.32" cy="179.50" r="5.5" fill="#2fc273" fill-opacity="0.15" stroke="#2fc273" stroke-width="2" /><text x="705.32" y="167.50" fill="#f3f4f6" font-size="15" font-weight="700" text-anchor="middle">A</text><circle cx="726.78" cy="286.25" r="5.5" fill="#2fc273" fill-opacity="0.15" stroke="#2fc273" stroke-width="2" /><text x="726.78" y="274.25" fill="#f3f4f6" font-size="15" font-weight="700" text-anchor="middle">B</text><circle cx="758.99" cy="197.76" r="5.5" fill="#2fc273" fill-opacity="0.15" stroke="#2fc273" stroke-width="2" /><text x="758.99" y="185.76" fill="#f3f4f6" font-size="15" font-weight="700" text-anchor="middle">C</text><circle cx="801.92" cy="372.64" r="5.5" fill="#2fc273" fill-opacity="0.15" stroke="#2fc273" stroke-width="2" /><text x="801.92" y="360.64" fill="#f3f4f6" font-size="15" font-weight="700" text-anchor="middle">D</text>
  <text x="56" y="492" fill="#8ba0b5" font-size="18">Complete · TP1 6.4801 · TP2 6.5389 · SL 6.3466</text>
</svg>
