<svg xmlns="http://www.w3.org/2000/svg" width="960" height="540" viewBox="0 0 960 540">
  <rect width="960" height="540" rx="24" fill="#0b1220" />
  <rect x="28" y="28" width="904" height="484" rx="22" fill="#111827" stroke="#1f2937" />
  <text x="56" y="74" fill="#f3f4f6" font-size="34" font-weight="700">BANKUSDT · AB=CD</text>
  <text x="904" y="74" fill="#8ba0b5" font-size="20" text-anchor="end">Bearish (매도) · Score 71.5</text>
  <line x1="72" y1="58" x2="920" y2="58" stroke="#223045" stroke-width="1" stroke-dasharray="4 8" /><line x1="72" y1="156" x2="920" y2="156" stroke="#223045" stroke-width="1" stroke-dasharray="4 8" /><line x1="72" y1="255" x2="920" y2="255" stroke="#223045" stroke-width="1" stroke-dasharray="4 8" /><line x1="72" y1="353" x2="920" y2="353" stroke="#223045" stroke-width="1" stroke-dasharray="4 8" /><line x1="72" y1="452" x2="920" y2="452" stroke="#223045" stroke-width="1" stroke-dasharray="4 8" />
  <rect x="258.68" y="438.77" width="84" height="3.05" fill="#fbbf24" fill-opacity="0.12" stroke="#fbbf24" stroke-width="1.5" stroke-dasharray="6 6" />
  <line x1="72.00" y1="449.91" x2="72.00" y2="451.68" stroke="#f6465d" stroke-width="1.4" /><rect x="69.00" y="450.26" width="6" height="2.00" rx="1.5" fill="#f6465d" /><line x1="82.73" y1="449.22" x2="82.73" y2="451.51" stroke="#f6465d" stroke-width="1.4" /><rect x="79.73" y="450.61" width="6" height="2.00" rx="1.5" fill="#f6465d" /><line x1="93.47" y1="450.97" x2="93.47" y2="452.00" stroke="#0ecb81" stroke-width="1.4" /><rect x="90.47" y="451.42" width="6" height="2.00" rx="1.5" fill="#0ecb81" /><line x1="104.20" y1="451.11" x2="104.20" y2="451.70" stroke="#0ecb81" stroke-width="1.4" /><rect x="101.20" y="451.41" width="6" height="2.00" rx="1.5" fill="#0ecb81" /><line x1="114.94" y1="450.63" x2="114.94" y2="451.65" stroke="#0ecb81" stroke-width="1.4" /><rect x="111.94" y="450.66" width="6" height="2.00" rx="1.5" fill="#0ecb81" /><line x1="125.67" y1="450.14" x2="125.67" y2="450.80" stroke="#0ecb81" stroke-width="1.4" /><rect x="122.67" y="450.30" width="6" height="2.00" rx="1.5" fill="#0ecb81" /><line x1="136.41" y1="450.25" x2="136.41" y2="450.90" stroke="#f6465d" stroke-width="1.4" /><rect x="133.41" y="450.30" width="6" height="2.00" rx="1.5" fill="#f6465d" /><line x1="147.14" y1="450.09" x2="147.14" y2="450.90" stroke="#0ecb81" stroke-width="1.4" /><rect x="144.14" y="450.12" width="6" height="2.00" rx="1.5" fill="#0ecb81" /><line x1="157.87" y1="449.81" x2="157.87" y2="450.58" stroke="#f6465d" stroke-width="1.4" /><rect x="154.87" y="450.12" width="6" height="2.00" rx="1.5" fill="#f6465d" /><line x1="168.61" y1="449.86" x2="168.61" y2="450.51" stroke="#f6465d" stroke-width="1.4" /><rect x="165.61" y="450.14" width="6" height="2.00" rx="1.5" fill="#f6465d" /><line x1="179.34" y1="447.46" x2="179.34" y2="451.28" stroke="#0ecb81" stroke-width="1.4" /><rect x="176.34" y="447.67" width="6" height="2.69" rx="1.5" fill="#0ecb81" /><line x1="190.08" y1="446.90" x2="190.08" y2="448.79" stroke="#f6465d" stroke-width="1.4" /><rect x="187.08" y="447.67" width="6" height="2.00" rx="1.5" fill="#f6465d" /><line x1="200.81" y1="444.32" x2="200.81" y2="448.83" stroke="#0ecb81" stroke-width="1.4" /><rect x="197.81" y="446.05" width="6" height="2.31" rx="1.5" fill="#0ecb81" /><line x1="211.54" y1="443.95" x2="211.54" y2="448.35" stroke="#f6465d" stroke-width="1.4" /><rect x="208.54" y="446.05" width="6" height="2.00" rx="1.5" fill="#f6465d" /><line x1="222.28" y1="447.48" x2="222.28" y2="448.88" stroke="#f6465d" stroke-width="1.4" /><rect x="219.28" y="447.85" width="6" height="2.00" rx="1.5" fill="#f6465d" /><line x1="233.01" y1="448.19" x2="233.01" y2="449.20" stroke="#f6465d" stroke-width="1.4" /><rect x="230.01" y="448.69" width="6" height="2.00" rx="1.5" fill="#f6465d" /><line x1="243.75" y1="448.74" x2="243.75" y2="449.87" stroke="#f6465d" stroke-width="1.4" /><rect x="240.75" y="449.02" width="6" height="2.00" rx="1.5" fill="#f6465d" /><line x1="254.48" y1="448.75" x2="254.48" y2="449.54" stroke="#0ecb81" stroke-width="1.4" /><rect x="251.48" y="448.79" width="6" height="2.00" rx="1.5" fill="#0ecb81" /><line x1="265.22" y1="447.10" x2="265.22" y2="449.33" stroke="#0ecb81" stroke-width="1.4" /><rect x="262.22" y="447.50" width="6" height="2.00" rx="1.5" fill="#0ecb81" /><line x1="275.95" y1="439.46" x2="275.95" y2="447.70" stroke="#0ecb81" stroke-width="1.4" /><rect x="272.95" y="441.59" width="6" height="5.94" rx="1.5" fill="#0ecb81" /><line x1="286.68" y1="439.39" x2="286.68" y2="443.48" stroke="#f6465d" stroke-width="1.4" /><rect x="283.68" y="441.58" width="6" height="2.00" rx="1.5" fill="#f6465d" /><line x1="297.42" y1="441.98" x2="297.42" y2="444.46" stroke="#0ecb81" stroke-width="1.4" /><rect x="294.42" y="442.75" width="6" height="2.00" rx="1.5" fill="#0ecb81" /><line x1="308.15" y1="441.49" x2="308.15" y2="443.75" stroke="#f6465d" stroke-width="1.4" /><rect x="305.15" y="442.75" width="6" height="2.00" rx="1.5" fill="#f6465d" /><line x1="318.89" y1="442.10" x2="318.89" y2="444.53" stroke="#f6465d" stroke-width="1.4" /><rect x="315.89" y="443.32" width="6" height="2.00" rx="1.5" fill="#f6465d" /><line x1="329.62" y1="440.15" x2="329.62" y2="446.30" stroke="#0ecb81" stroke-width="1.4" /><rect x="326.62" y="441.52" width="6" height="2.00" rx="1.5" fill="#0ecb81" /><line x1="340.35" y1="440.30" x2="340.35" y2="443.08" stroke="#f6465d" stroke-width="1.4" /><rect x="337.35" y="441.50" width="6" height="2.00" rx="1.5" fill="#f6465d" /><line x1="351.09" y1="442.32" x2="351.09" y2="444.84" stroke="#f6465d" stroke-width="1.4" /><rect x="348.09" y="442.70" width="6" height="2.00" rx="1.5" fill="#f6465d" /><line x1="361.82" y1="441.77" x2="361.82" y2="444.68" stroke="#f6465d" stroke-width="1.4" /><rect x="358.82" y="442.99" width="6" height="2.00" rx="1.5" fill="#f6465d" /><line x1="372.56" y1="442.50" x2="372.56" y2="444.60" stroke="#0ecb81" stroke-width="1.4" /><rect x="369.56" y="443.03" width="6" height="2.00" rx="1.5" fill="#0ecb81" /><line x1="383.29" y1="442.01" x2="383.29" y2="444.17" stroke="#0ecb81" stroke-width="1.4" /><rect x="380.29" y="442.44" width="6" height="2.00" rx="1.5" fill="#0ecb81" /><line x1="394.03" y1="441.22" x2="394.03" y2="442.80" stroke="#0ecb81" stroke-width="1.4" /><rect x="391.03" y="441.54" width="6" height="2.00" rx="1.5" fill="#0ecb81" /><line x1="404.76" y1="441.22" x2="404.76" y2="443.14" stroke="#f6465d" stroke-width="1.4" /><rect x="401.76" y="441.54" width="6" height="2.00" rx="1.5" fill="#f6465d" /><line x1="415.49" y1="440.89" x2="415.49" y2="442.53" stroke="#0ecb81" stroke-width="1.4" /><rect x="412.49" y="441.49" width="6" height="2.00" rx="1.5" fill="#0ecb81" /><line x1="426.23" y1="441.15" x2="426.23" y2="442.12" stroke="#f6465d" stroke-width="1.4" /><rect x="423.23" y="441.51" width="6" height="2.00" rx="1.5" fill="#f6465d" /><line x1="436.96" y1="440.34" x2="436.96" y2="442.65" stroke="#0ecb81" stroke-width="1.4" /><rect x="433.96" y="441.09" width="6" height="2.00" rx="1.5" fill="#0ecb81" /><line x1="447.70" y1="440.49" x2="447.70" y2="441.63" stroke="#0ecb81" stroke-width="1.4" /><rect x="444.70" y="440.51" width="6" height="2.00" rx="1.5" fill="#0ecb81" /><line x1="458.43" y1="438.81" x2="458.43" y2="442.12" stroke="#0ecb81" stroke-width="1.4" /><rect x="455.43" y="440.02" width="6" height="2.00" rx="1.5" fill="#0ecb81" /><line x1="469.16" y1="439.55" x2="469.16" y2="440.83" stroke="#f6465d" stroke-width="1.4" /><rect x="466.16" y="440.00" width="6" height="2.00" rx="1.5" fill="#f6465d" /><line x1="479.90" y1="439.55" x2="479.90" y2="440.49" stroke="#0ecb81" stroke-width="1.4" /><rect x="476.90" y="439.73" width="6" height="2.00" rx="1.5" fill="#0ecb81" /><line x1="490.63" y1="439.09" x2="490.63" y2="440.47" stroke="#0ecb81" stroke-width="1.4" /><rect x="487.63" y="439.22" width="6" height="2.00" rx="1.5" fill="#0ecb81" /><line x1="501.37" y1="439.10" x2="501.37" y2="440.73" stroke="#f6465d" stroke-width="1.4" /><rect x="498.37" y="439.23" width="6" height="2.00" rx="1.5" fill="#f6465d" /><line x1="512.10" y1="439.03" x2="512.10" y2="441.31" stroke="#0ecb81" stroke-width="1.4" /><rect x="509.10" y="439.45" width="6" height="2.00" rx="1.5" fill="#0ecb81" /><line x1="522.84" y1="439.10" x2="522.84" y2="439.84" stroke="#0ecb81" stroke-width="1.4" /><rect x="519.84" y="439.26" width="6" height="2.00" rx="1.5" fill="#0ecb81" /><line x1="533.57" y1="427.35" x2="533.57" y2="439.62" stroke="#0ecb81" stroke-width="1.4" /><rect x="530.57" y="429.44" width="6" height="9.82" rx="1.5" fill="#0ecb81" /><line x1="544.30" y1="427.40" x2="544.30" y2="431.76" stroke="#0ecb81" stroke-width="1.4" /><rect x="541.30" y="428.51" width="6" height="2.00" rx="1.5" fill="#0ecb81" /><line x1="555.04" y1="425.59" x2="555.04" y2="431.35" stroke="#f6465d" stroke-width="1.4" /><rect x="552.04" y="428.52" width="6" height="2.00" rx="1.5" fill="#f6465d" /><line x1="565.77" y1="422.58" x2="565.77" y2="430.33" stroke="#0ecb81" stroke-width="1.4" /><rect x="562.77" y="424.45" width="6" height="5.73" rx="1.5" fill="#0ecb81" /><line x1="576.51" y1="423.31" x2="576.51" y2="428.09" stroke="#f6465d" stroke-width="1.4" /><rect x="573.51" y="424.48" width="6" height="2.00" rx="1.5" fill="#f6465d" /><line x1="587.24" y1="415.34" x2="587.24" y2="425.99" stroke="#0ecb81" stroke-width="1.4" /><rect x="584.24" y="418.77" width="6" height="5.72" rx="1.5" fill="#0ecb81" /><line x1="597.97" y1="414.65" x2="597.97" y2="421.88" stroke="#0ecb81" stroke-width="1.4" /><rect x="594.97" y="418.09" width="6" height="2.00" rx="1.5" fill="#0ecb81" /><line x1="608.71" y1="415.56" x2="608.71" y2="419.21" stroke="#0ecb81" stroke-width="1.4" /><rect x="605.71" y="417.89" width="6" height="2.00" rx="1.5" fill="#0ecb81" /><line x1="619.44" y1="412.78" x2="619.44" y2="418.53" stroke="#0ecb81" stroke-width="1.4" /><rect x="616.44" y="417.20" width="6" height="2.00" rx="1.5" fill="#0ecb81" /><line x1="630.18" y1="414.60" x2="630.18" y2="419.53" stroke="#f6465d" stroke-width="1.4" /><rect x="627.18" y="417.20" width="6" height="2.00" rx="1.5" fill="#f6465d" /><line x1="640.91" y1="413.18" x2="640.91" y2="418.24" stroke="#0ecb81" stroke-width="1.4" /><rect x="637.91" y="415.47" width="6" height="2.74" rx="1.5" fill="#0ecb81" /><line x1="651.65" y1="382.17" x2="651.65" y2="416.12" stroke="#0ecb81" stroke-width="1.4" /><rect x="648.65" y="393.26" width="6" height="22.20" rx="1.5" fill="#0ecb81" /><line x1="662.38" y1="392.96" x2="662.38" y2="435.44" stroke="#f6465d" stroke-width="1.4" /><rect x="659.38" y="393.27" width="6" height="16.21" rx="1.5" fill="#f6465d" /><line x1="673.11" y1="401.13" x2="673.11" y2="417.25" stroke="#f6465d" stroke-width="1.4" /><rect x="670.11" y="409.51" width="6" height="2.00" rx="1.5" fill="#f6465d" /><line x1="683.85" y1="403.49" x2="683.85" y2="416.12" stroke="#0ecb81" stroke-width="1.4" /><rect x="680.85" y="405.25" width="6" height="5.58" rx="1.5" fill="#0ecb81" /><line x1="694.58" y1="392.34" x2="694.58" y2="407.66" stroke="#0ecb81" stroke-width="1.4" /><rect x="691.58" y="395.91" width="6" height="9.33" rx="1.5" fill="#0ecb81" /><line x1="705.32" y1="393.13" x2="705.32" y2="412.91" stroke="#f6465d" stroke-width="1.4" /><rect x="702.32" y="395.91" width="6" height="8.92" rx="1.5" fill="#f6465d" /><line x1="716.05" y1="399.70" x2="716.05" y2="407.91" stroke="#0ecb81" stroke-width="1.4" /><rect x="713.05" y="404.25" width="6" height="2.00" rx="1.5" fill="#0ecb81" /><line x1="726.78" y1="393.67" x2="726.78" y2="412.53" stroke="#0ecb81" stroke-width="1.4" /><rect x="723.78" y="394.10" width="6" height="10.15" rx="1.5" fill="#0ecb81" /><line x1="737.52" y1="338.49" x2="737.52" y2="394.13" stroke="#0ecb81" stroke-width="1.4" /><rect x="734.52" y="352.74" width="6" height="41.35" rx="1.5" fill="#0ecb81" /><line x1="748.25" y1="340.16" x2="748.25" y2="360.06" stroke="#f6465d" stroke-width="1.4" /><rect x="745.25" y="352.74" width="6" height="2.00" rx="1.5" fill="#f6465d" /><line x1="758.99" y1="341.46" x2="758.99" y2="374.68" stroke="#0ecb81" stroke-width="1.4" /><rect x="755.99" y="350.24" width="6" height="2.65" rx="1.5" fill="#0ecb81" /><line x1="769.72" y1="345.07" x2="769.72" y2="363.01" stroke="#f6465d" stroke-width="1.4" /><rect x="766.72" y="350.24" width="6" height="4.90" rx="1.5" fill="#f6465d" /><line x1="780.46" y1="246.32" x2="780.46" y2="355.30" stroke="#0ecb81" stroke-width="1.4" /><rect x="777.46" y="254.99" width="6" height="100.14" rx="1.5" fill="#0ecb81" /><line x1="791.19" y1="223.43" x2="791.19" y2="299.03" stroke="#f6465d" stroke-width="1.4" /><rect x="788.19" y="255.02" width="6" height="34.21" rx="1.5" fill="#f6465d" /><line x1="801.92" y1="193.84" x2="801.92" y2="307.52" stroke="#0ecb81" stroke-width="1.4" /><rect x="798.92" y="199.46" width="6" height="89.78" rx="1.5" fill="#0ecb81" /><line x1="812.66" y1="188.28" x2="812.66" y2="223.81" stroke="#f6465d" stroke-width="1.4" /><rect x="809.66" y="199.42" width="6" height="5.62" rx="1.5" fill="#f6465d" /><line x1="823.39" y1="150.78" x2="823.39" y2="219.03" stroke="#0ecb81" stroke-width="1.4" /><rect x="820.39" y="172.88" width="6" height="32.11" rx="1.5" fill="#0ecb81" /><line x1="834.13" y1="152.05" x2="834.13" y2="207.68" stroke="#f6465d" stroke-width="1.4" /><rect x="831.13" y="172.88" width="6" height="28.44" rx="1.5" fill="#f6465d" /><line x1="844.86" y1="112.39" x2="844.86" y2="210.85" stroke="#0ecb81" stroke-width="1.4" /><rect x="841.86" y="129.61" width="6" height="71.72" rx="1.5" fill="#0ecb81" /><line x1="855.59" y1="98.66" x2="855.59" y2="156.77" stroke="#0ecb81" stroke-width="1.4" /><rect x="852.59" y="110.21" width="6" height="19.39" rx="1.5" fill="#0ecb81" /><line x1="866.33" y1="104.20" x2="866.33" y2="160.42" stroke="#f6465d" stroke-width="1.4" /><rect x="863.33" y="110.26" width="6" height="23.32" rx="1.5" fill="#f6465d" /><line x1="877.06" y1="121.12" x2="877.06" y2="154.26" stroke="#f6465d" stroke-width="1.4" /><rect x="874.06" y="133.61" width="6" height="18.17" rx="1.5" fill="#f6465d" /><line x1="887.80" y1="113.39" x2="887.80" y2="167.22" stroke="#0ecb81" stroke-width="1.4" /><rect x="884.80" y="149.52" width="6" height="2.27" rx="1.5" fill="#0ecb81" /><line x1="898.53" y1="58.00" x2="898.53" y2="207.04" stroke="#0ecb81" stroke-width="1.4" /><rect x="895.53" y="143.05" width="6" height="6.46" rx="1.5" fill="#0ecb81" /><line x1="909.27" y1="132.90" x2="909.27" y2="326.98" stroke="#f6465d" stroke-width="1.4" /><rect x="906.27" y="143.06" width="6" height="176.21" rx="1.5" fill="#f6465d" /><line x1="920.00" y1="270.82" x2="920.00" y2="320.73" stroke="#0ecb81" stroke-width="1.4" /><rect x="917.00" y="292.08" width="6" height="27.21" rx="1.5" fill="#0ecb81" />
  <polyline points="72.00,447.09 93.47,452.00 211.54,443.95 243.75,449.87 286.68,439.39" fill="none" stroke="#2fc273" stroke-width="4" stroke-linecap="round" stroke-linejoin="round" />
  <circle cx="72.00" cy="447.09" r="5.5" fill="#2fc273" fill-opacity="0.15" stroke="#2fc273" stroke-width="2" /><text x="72.00" y="435.09" fill="#f3f4f6" font-size="15" font-weight="700" text-anchor="middle">X</text><circle cx="93.47" cy="452.00" r="5.5" fill="#2fc273" fill-opacity="0.15" stroke="#2fc273" stroke-width="2" /><text x="93.47" y="440.00" fill="#f3f4f6" font-size="15" font-weight="700" text-anchor="middle">A</text><circle cx="211.54" cy="443.95" r="5.5" fill="#2fc273" fill-opacity="0.15" stroke="#2fc273" stroke-width="2" /><text x="211.54" y="431.95" fill="#f3f4f6" font-size="15" font-weight="700" text-anchor="middle">B</text><circle cx="243.75" cy="449.87" r="5.5" fill="#2fc273" fill-opacity="0.15" stroke="#2fc273" stroke-width="2" /><text x="243.75" y="437.87" fill="#f3f4f6" font-size="15" font-weight="700" text-anchor="middle">C</text><circle cx="286.68" cy="439.39" r="5.5" fill="#2fc273" fill-opacity="0.15" stroke="#2fc273" stroke-width="2" /><text x="286.68" y="427.39" fill="#f3f4f6" font-size="15" font-weight="700" text-anchor="middle">D</text>
  <text x="56" y="492" fill="#8ba0b5" font-size="18">Realtime Touch · TP1 0.040881 · TP2 0.038959 · SL 0.044485</text>
</svg>
