<svg xmlns="http://www.w3.org/2000/svg" width="960" height="540" viewBox="0 0 960 540">
  <rect width="960" height="540" rx="24" fill="#0b1220" />
  <rect x="28" y="28" width="904" height="484" rx="22" fill="#111827" stroke="#1f2937" />
  <text x="56" y="74" fill="#f3f4f6" font-size="34" font-weight="700">BASEDUSDT · AB=CD</text>
  <text x="904" y="74" fill="#8ba0b5" font-size="20" text-anchor="end">Bullish (매수) · Score 76.0</text>
  <line x1="72" y1="58" x2="920" y2="58" stroke="#223045" stroke-width="1" stroke-dasharray="4 8" /><line x1="72" y1="156" x2="920" y2="156" stroke="#223045" stroke-width="1" stroke-dasharray="4 8" /><line x1="72" y1="255" x2="920" y2="255" stroke="#223045" stroke-width="1" stroke-dasharray="4 8" /><line x1="72" y1="353" x2="920" y2="353" stroke="#223045" stroke-width="1" stroke-dasharray="4 8" /><line x1="72" y1="452" x2="920" y2="452" stroke="#223045" stroke-width="1" stroke-dasharray="4 8" />
  <rect x="791.05" y="457.44" width="84" height="49.23" fill="#fbbf24" fill-opacity="0.12" stroke="#fbbf24" stroke-width="1.5" stroke-dasharray="6 6" />
  <line x1="72.00" y1="58.00" x2="72.00" y2="300.62" stroke="#f6465d" stroke-width="1.4" /><rect x="69.00" y="58.00" width="6" height="153.06" rx="1.5" fill="#f6465d" /><line x1="92.19" y1="168.17" x2="92.19" y2="232.92" stroke="#f6465d" stroke-width="1.4" /><rect x="89.19" y="211.06" width="6" height="15.98" rx="1.5" fill="#f6465d" /><line x1="112.38" y1="163.96" x2="112.38" y2="241.33" stroke="#0ecb81" stroke-width="1.4" /><rect x="109.38" y="206.01" width="6" height="21.02" rx="1.5" fill="#0ecb81" /><line x1="132.57" y1="191.30" x2="132.57" y2="219.89" stroke="#f6465d" stroke-width="1.4" /><rect x="129.57" y="206.01" width="6" height="2.10" rx="1.5" fill="#f6465d" /><line x1="152.76" y1="172.37" x2="152.76" y2="215.26" stroke="#0ecb81" stroke-width="1.4" /><rect x="149.76" y="205.59" width="6" height="2.94" rx="1.5" fill="#0ecb81" /><line x1="172.95" y1="195.50" x2="172.95" y2="222.83" stroke="#f6465d" stroke-width="1.4" /><rect x="169.95" y="205.17" width="6" height="7.15" rx="1.5" fill="#f6465d" /><line x1="193.14" y1="206.85" x2="193.14" y2="277.08" stroke="#f6465d" stroke-width="1.4" /><rect x="190.14" y="212.32" width="6" height="60.13" rx="1.5" fill="#f6465d" /><line x1="213.33" y1="247.22" x2="213.33" y2="280.86" stroke="#0ecb81" stroke-width="1.4" /><rect x="210.33" y="266.98" width="6" height="5.47" rx="1.5" fill="#0ecb81" /><line x1="233.52" y1="246.38" x2="233.52" y2="280.02" stroke="#f6465d" stroke-width="1.4" /><rect x="230.52" y="266.98" width="6" height="9.67" rx="1.5" fill="#f6465d" /><line x1="253.71" y1="263.62" x2="253.71" y2="371.27" stroke="#f6465d" stroke-width="1.4" /><rect x="250.71" y="276.66" width="6" height="53.82" rx="1.5" fill="#f6465d" /><line x1="273.90" y1="326.27" x2="273.90" y2="370.00" stroke="#f6465d" stroke-width="1.4" /><rect x="270.90" y="330.48" width="6" height="24.39" rx="1.5" fill="#f6465d" /><line x1="294.10" y1="330.90" x2="294.10" y2="354.87" stroke="#0ecb81" stroke-width="1.4" /><rect x="291.10" y="344.77" width="6" height="9.67" rx="1.5" fill="#0ecb81" /><line x1="314.29" y1="309.03" x2="314.29" y2="360.33" stroke="#0ecb81" stroke-width="1.4" /><rect x="311.29" y="343.93" width="6" height="2.00" rx="1.5" fill="#0ecb81" /><line x1="334.48" y1="335.52" x2="334.48" y2="364.12" stroke="#0ecb81" stroke-width="1.4" /><rect x="331.48" y="340.15" width="6" height="4.20" rx="1.5" fill="#0ecb81" /><line x1="354.67" y1="323.33" x2="354.67" y2="370.42" stroke="#f6465d" stroke-width="1.4" /><rect x="351.67" y="340.15" width="6" height="3.36" rx="1.5" fill="#f6465d" /><line x1="374.86" y1="342.25" x2="374.86" y2="359.07" stroke="#f6465d" stroke-width="1.4" /><rect x="371.86" y="343.51" width="6" height="7.57" rx="1.5" fill="#f6465d" /><line x1="395.05" y1="343.09" x2="395.05" y2="363.70" stroke="#f6465d" stroke-width="1.4" /><rect x="392.05" y="351.50" width="6" height="5.89" rx="1.5" fill="#f6465d" /><line x1="415.24" y1="330.06" x2="415.24" y2="357.39" stroke="#0ecb81" stroke-width="1.4" /><rect x="412.24" y="341.83" width="6" height="15.56" rx="1.5" fill="#0ecb81" /><line x1="435.43" y1="333.84" x2="435.43" y2="377.57" stroke="#f6465d" stroke-width="1.4" /><rect x="432.43" y="342.25" width="6" height="15.56" rx="1.5" fill="#f6465d" /><line x1="455.62" y1="348.98" x2="455.62" y2="363.28" stroke="#0ecb81" stroke-width="1.4" /><rect x="452.62" y="355.29" width="6" height="2.52" rx="1.5" fill="#0ecb81" /><line x1="475.81" y1="328.80" x2="475.81" y2="355.71" stroke="#0ecb81" stroke-width="1.4" /><rect x="472.81" y="343.09" width="6" height="12.19" rx="1.5" fill="#0ecb81" /><line x1="496.00" y1="325.01" x2="496.00" y2="346.88" stroke="#0ecb81" stroke-width="1.4" /><rect x="493.00" y="333.84" width="6" height="9.67" rx="1.5" fill="#0ecb81" /><line x1="516.19" y1="332.16" x2="516.19" y2="348.56" stroke="#f6465d" stroke-width="1.4" /><rect x="513.19" y="334.26" width="6" height="8.83" rx="1.5" fill="#f6465d" /><line x1="536.38" y1="333.84" x2="536.38" y2="351.50" stroke="#0ecb81" stroke-width="1.4" /><rect x="533.38" y="340.57" width="6" height="2.94" rx="1.5" fill="#0ecb81" /><line x1="556.57" y1="336.79" x2="556.57" y2="352.34" stroke="#f6465d" stroke-width="1.4" /><rect x="553.57" y="340.57" width="6" height="8.41" rx="1.5" fill="#f6465d" /><line x1="576.76" y1="349.40" x2="576.76" y2="370.42" stroke="#f6465d" stroke-width="1.4" /><rect x="573.76" y="349.40" width="6" height="14.72" rx="1.5" fill="#f6465d" /><line x1="596.95" y1="361.59" x2="596.95" y2="409.95" stroke="#f6465d" stroke-width="1.4" /><rect x="593.95" y="364.12" width="6" height="37.00" rx="1.5" fill="#f6465d" /><line x1="617.14" y1="391.45" x2="617.14" y2="404.06" stroke="#0ecb81" stroke-width="1.4" /><rect x="614.14" y="400.28" width="6" height="2.00" rx="1.5" fill="#0ecb81" /><line x1="637.33" y1="393.55" x2="637.33" y2="420.04" stroke="#f6465d" stroke-width="1.4" /><rect x="634.33" y="400.70" width="6" height="14.30" rx="1.5" fill="#f6465d" /><line x1="657.52" y1="404.48" x2="657.52" y2="430.98" stroke="#0ecb81" stroke-width="1.4" /><rect x="654.52" y="412.89" width="6" height="2.00" rx="1.5" fill="#0ecb81" /><line x1="677.71" y1="407.01" x2="677.71" y2="420.46" stroke="#f6465d" stroke-width="1.4" /><rect x="674.71" y="413.31" width="6" height="3.78" rx="1.5" fill="#f6465d" /><line x1="697.90" y1="413.74" x2="697.90" y2="429.71" stroke="#f6465d" stroke-width="1.4" /><rect x="694.90" y="417.52" width="6" height="5.05" rx="1.5" fill="#f6465d" /><line x1="718.10" y1="413.74" x2="718.10" y2="428.87" stroke="#0ecb81" stroke-width="1.4" /><rect x="715.10" y="419.20" width="6" height="3.36" rx="1.5" fill="#0ecb81" /><line x1="738.29" y1="408.27" x2="738.29" y2="419.20" stroke="#0ecb81" stroke-width="1.4" /><rect x="735.29" y="414.58" width="6" height="4.20" rx="1.5" fill="#0ecb81" /><line x1="758.48" y1="400.70" x2="758.48" y2="420.88" stroke="#0ecb81" stroke-width="1.4" /><rect x="755.48" y="411.21" width="6" height="3.36" rx="1.5" fill="#0ecb81" /><line x1="778.67" y1="409.95" x2="778.67" y2="428.87" stroke="#f6465d" stroke-width="1.4" /><rect x="775.67" y="410.79" width="6" height="14.72" rx="1.5" fill="#f6465d" /><line x1="798.86" y1="419.62" x2="798.86" y2="442.33" stroke="#f6465d" stroke-width="1.4" /><rect x="795.86" y="425.09" width="6" height="12.19" rx="1.5" fill="#f6465d" /><line x1="819.05" y1="431.40" x2="819.05" y2="452.00" stroke="#f6465d" stroke-width="1.4" /><rect x="816.05" y="437.28" width="6" height="2.00" rx="1.5" fill="#f6465d" /><line x1="839.24" y1="411.21" x2="839.24" y2="438.54" stroke="#0ecb81" stroke-width="1.4" /><rect x="836.24" y="412.47" width="6" height="25.65" rx="1.5" fill="#0ecb81" /><line x1="859.43" y1="411.21" x2="859.43" y2="428.03" stroke="#f6465d" stroke-width="1.4" /><rect x="856.43" y="412.05" width="6" height="5.47" rx="1.5" fill="#f6465d" /><line x1="879.62" y1="415.42" x2="879.62" y2="437.70" stroke="#f6465d" stroke-width="1.4" /><rect x="876.62" y="417.52" width="6" height="13.88" rx="1.5" fill="#f6465d" /><line x1="899.81" y1="429.29" x2="899.81" y2="441.49" stroke="#f6465d" stroke-width="1.4" /><rect x="896.81" y="431.40" width="6" height="6.73" rx="1.5" fill="#f6465d" /><line x1="920.00" y1="435.18" x2="920.00" y2="448.64" stroke="#0ecb81" stroke-width="1.4" /><rect x="917.00" y="438.12" width="6" height="2.00" rx="1.5" fill="#0ecb81" />
  <polyline points="435.43,377.57 496.00,325.01 657.52,430.98 758.48,400.70 819.05,452.00" fill="none" stroke="#2fc273" stroke-width="4" stroke-linecap="round" stroke-linejoin="round" />
  <circle cx="435.43" cy="377.57" r="5.5" fill="#2fc273" fill-opacity="0.15" stroke="#2fc273" stroke-width="2" /><text x="435.43" y="365.57" fill="#f3f4f6" font-size="15" font-weight="700" text-anchor="middle">X</text><circle cx="496.00" cy="325.01" r="5.5" fill="#2fc273" fill-opacity="0.15" stroke="#2fc273" stroke-width="2" /><text x="496.00" y="313.01" fill="#f3f4f6" font-size="15" font-weight="700" text-anchor="middle">A</text><circle cx="657.52" cy="430.98" r="5.5" fill="#2fc273" fill-opacity="0.15" stroke="#2fc273" stroke-width="2" /><text x="657.52" y="418.98" fill="#f3f4f6" font-size="15" font-weight="700" text-anchor="middle">B</text><circle cx="758.48" cy="400.70" r="5.5" fill="#2fc273" fill-opacity="0.15" stroke="#2fc273" stroke-width="2" /><text x="758.48" y="388.70" fill="#f3f4f6" font-size="15" font-weight="700" text-anchor="middle">C</text><circle cx="819.05" cy="452.00" r="5.5" fill="#2fc273" fill-opacity="0.15" stroke="#2fc273" stroke-width="2" /><text x="819.05" y="440.00" fill="#f3f4f6" font-size="15" font-weight="700" text-anchor="middle">D</text>
  <text x="56" y="492" fill="#8ba0b5" font-size="18">일반 완성 · TP1 0.06536 · TP2 0.06824 · SL 0.059075</text>
</svg>
