<svg xmlns="http://www.w3.org/2000/svg" width="960" height="540" viewBox="0 0 960 540">
  <rect width="960" height="540" rx="24" fill="#0b1220" />
  <rect x="28" y="28" width="904" height="484" rx="22" fill="#111827" stroke="#1f2937" />
  <text x="56" y="74" fill="#f3f4f6" font-size="34" font-weight="700">BCHUSDT · AB=CD</text>
  <text x="904" y="74" fill="#8ba0b5" font-size="20" text-anchor="end">Bullish (매수) · Score 85.7</text>
  <line x1="72" y1="58" x2="920" y2="58" stroke="#223045" stroke-width="1" stroke-dasharray="4 8" /><line x1="72" y1="156" x2="920" y2="156" stroke="#223045" stroke-width="1" stroke-dasharray="4 8" /><line x1="72" y1="255" x2="920" y2="255" stroke="#223045" stroke-width="1" stroke-dasharray="4 8" /><line x1="72" y1="353" x2="920" y2="353" stroke="#223045" stroke-width="1" stroke-dasharray="4 8" /><line x1="72" y1="452" x2="920" y2="452" stroke="#223045" stroke-width="1" stroke-dasharray="4 8" />
  <rect x="559.24" y="334.22" width="84" height="18.02" fill="#fbbf24" fill-opacity="0.12" stroke="#fbbf24" stroke-width="1.5" stroke-dasharray="6 6" />
  <line x1="72.00" y1="199.67" x2="72.00" y2="291.66" stroke="#f6465d" stroke-width="1.4" /><rect x="69.00" y="202.80" width="6" height="29.97" rx="1.5" fill="#f6465d" /><line x1="82.73" y1="232.85" x2="82.73" y2="280.10" stroke="#f6465d" stroke-width="1.4" /><rect x="79.73" y="232.85" width="6" height="25.45" rx="1.5" fill="#f6465d" /><line x1="93.47" y1="214.35" x2="93.47" y2="261.51" stroke="#0ecb81" stroke-width="1.4" /><rect x="90.47" y="232.76" width="6" height="25.54" rx="1.5" fill="#0ecb81" /><line x1="104.20" y1="217.22" x2="104.20" y2="255.87" stroke="#0ecb81" stroke-width="1.4" /><rect x="101.20" y="228.25" width="6" height="4.43" rx="1.5" fill="#0ecb81" /><line x1="114.94" y1="214.52" x2="114.94" y2="262.56" stroke="#f6465d" stroke-width="1.4" /><rect x="111.94" y="228.51" width="6" height="11.29" rx="1.5" fill="#f6465d" /><line x1="125.67" y1="181.08" x2="125.67" y2="242.41" stroke="#0ecb81" stroke-width="1.4" /><rect x="122.67" y="193.07" width="6" height="46.82" rx="1.5" fill="#0ecb81" /><line x1="136.41" y1="189.59" x2="136.41" y2="226.25" stroke="#f6465d" stroke-width="1.4" /><rect x="133.41" y="193.07" width="6" height="19.89" rx="1.5" fill="#f6465d" /><line x1="147.14" y1="199.32" x2="147.14" y2="220.86" stroke="#f6465d" stroke-width="1.4" /><rect x="144.14" y="212.96" width="6" height="2.00" rx="1.5" fill="#f6465d" /><line x1="157.87" y1="177.09" x2="157.87" y2="230.33" stroke="#0ecb81" stroke-width="1.4" /><rect x="154.87" y="205.92" width="6" height="8.25" rx="1.5" fill="#0ecb81" /><line x1="168.61" y1="198.63" x2="168.61" y2="216.78" stroke="#f6465d" stroke-width="1.4" /><rect x="165.61" y="205.92" width="6" height="2.00" rx="1.5" fill="#f6465d" /><line x1="179.34" y1="161.10" x2="179.34" y2="215.57" stroke="#0ecb81" stroke-width="1.4" /><rect x="176.34" y="168.57" width="6" height="39.09" rx="1.5" fill="#0ecb81" /><line x1="190.08" y1="156.76" x2="190.08" y2="173.70" stroke="#0ecb81" stroke-width="1.4" /><rect x="187.08" y="159.19" width="6" height="9.29" rx="1.5" fill="#0ecb81" /><line x1="200.81" y1="98.39" x2="200.81" y2="159.37" stroke="#0ecb81" stroke-width="1.4" /><rect x="197.81" y="116.54" width="6" height="42.65" rx="1.5" fill="#0ecb81" /><line x1="211.54" y1="58.00" x2="211.54" y2="123.15" stroke="#0ecb81" stroke-width="1.4" /><rect x="208.54" y="105.25" width="6" height="11.21" rx="1.5" fill="#0ecb81" /><line x1="222.28" y1="101.34" x2="222.28" y2="146.34" stroke="#f6465d" stroke-width="1.4" /><rect x="219.28" y="105.34" width="6" height="31.53" rx="1.5" fill="#f6465d" /><line x1="233.01" y1="128.10" x2="233.01" y2="147.03" stroke="#f6465d" stroke-width="1.4" /><rect x="230.01" y="136.87" width="6" height="5.82" rx="1.5" fill="#f6465d" /><line x1="243.75" y1="135.05" x2="243.75" y2="158.15" stroke="#0ecb81" stroke-width="1.4" /><rect x="240.75" y="138.52" width="6" height="4.08" rx="1.5" fill="#0ecb81" /><line x1="254.48" y1="137.48" x2="254.48" y2="153.98" stroke="#f6465d" stroke-width="1.4" /><rect x="251.48" y="138.52" width="6" height="12.68" rx="1.5" fill="#f6465d" /><line x1="265.22" y1="122.10" x2="265.22" y2="152.68" stroke="#0ecb81" stroke-width="1.4" /><rect x="262.22" y="129.40" width="6" height="21.80" rx="1.5" fill="#0ecb81" /><line x1="275.95" y1="100.30" x2="275.95" y2="130.53" stroke="#0ecb81" stroke-width="1.4" /><rect x="272.95" y="117.33" width="6" height="12.16" rx="1.5" fill="#0ecb81" /><line x1="286.68" y1="100.39" x2="286.68" y2="133.31" stroke="#f6465d" stroke-width="1.4" /><rect x="283.68" y="117.41" width="6" height="2.00" rx="1.5" fill="#f6465d" /><line x1="297.42" y1="116.54" x2="297.42" y2="155.20" stroke="#f6465d" stroke-width="1.4" /><rect x="294.42" y="117.59" width="6" height="37.09" rx="1.5" fill="#f6465d" /><line x1="308.15" y1="129.57" x2="308.15" y2="161.80" stroke="#0ecb81" stroke-width="1.4" /><rect x="305.15" y="136.44" width="6" height="18.24" rx="1.5" fill="#0ecb81" /><line x1="318.89" y1="133.74" x2="318.89" y2="160.67" stroke="#f6465d" stroke-width="1.4" /><rect x="315.89" y="136.44" width="6" height="12.68" rx="1.5" fill="#f6465d" /><line x1="329.62" y1="116.72" x2="329.62" y2="157.89" stroke="#0ecb81" stroke-width="1.4" /><rect x="326.62" y="133.40" width="6" height="15.81" rx="1.5" fill="#0ecb81" /><line x1="340.35" y1="122.80" x2="340.35" y2="146.34" stroke="#f6465d" stroke-width="1.4" /><rect x="337.35" y="133.48" width="6" height="8.08" rx="1.5" fill="#f6465d" /><line x1="351.09" y1="127.49" x2="351.09" y2="153.46" stroke="#0ecb81" stroke-width="1.4" /><rect x="348.09" y="129.92" width="6" height="11.73" rx="1.5" fill="#0ecb81" /><line x1="361.82" y1="126.88" x2="361.82" y2="198.11" stroke="#f6465d" stroke-width="1.4" /><rect x="358.82" y="130.01" width="6" height="56.72" rx="1.5" fill="#f6465d" /><line x1="372.56" y1="147.03" x2="372.56" y2="234.76" stroke="#f6465d" stroke-width="1.4" /><rect x="369.56" y="186.73" width="6" height="33.44" rx="1.5" fill="#f6465d" /><line x1="383.29" y1="209.66" x2="383.29" y2="231.81" stroke="#0ecb81" stroke-width="1.4" /><rect x="380.29" y="213.91" width="6" height="6.25" rx="1.5" fill="#0ecb81" /><line x1="394.03" y1="191.77" x2="394.03" y2="213.83" stroke="#0ecb81" stroke-width="1.4" /><rect x="391.03" y="208.01" width="6" height="5.82" rx="1.5" fill="#0ecb81" /><line x1="404.76" y1="188.46" x2="404.76" y2="224.08" stroke="#f6465d" stroke-width="1.4" /><rect x="401.76" y="208.10" width="6" height="5.39" rx="1.5" fill="#f6465d" /><line x1="415.49" y1="206.62" x2="415.49" y2="236.41" stroke="#f6465d" stroke-width="1.4" /><rect x="412.49" y="213.48" width="6" height="8.77" rx="1.5" fill="#f6465d" /><line x1="426.23" y1="217.56" x2="426.23" y2="249.96" stroke="#0ecb81" stroke-width="1.4" /><rect x="423.23" y="219.39" width="6" height="2.87" rx="1.5" fill="#0ecb81" /><line x1="436.96" y1="209.49" x2="436.96" y2="266.38" stroke="#f6465d" stroke-width="1.4" /><rect x="433.96" y="219.30" width="6" height="23.71" rx="1.5" fill="#f6465d" /><line x1="447.70" y1="209.31" x2="447.70" y2="251.61" stroke="#0ecb81" stroke-width="1.4" /><rect x="444.70" y="232.85" width="6" height="10.16" rx="1.5" fill="#0ecb81" /><line x1="458.43" y1="201.41" x2="458.43" y2="235.20" stroke="#0ecb81" stroke-width="1.4" /><rect x="455.43" y="206.71" width="6" height="26.15" rx="1.5" fill="#0ecb81" /><line x1="469.16" y1="168.14" x2="469.16" y2="211.83" stroke="#0ecb81" stroke-width="1.4" /><rect x="466.16" y="195.59" width="6" height="11.12" rx="1.5" fill="#0ecb81" /><line x1="479.90" y1="190.64" x2="479.90" y2="226.34" stroke="#f6465d" stroke-width="1.4" /><rect x="476.90" y="195.59" width="6" height="28.84" rx="1.5" fill="#f6465d" /><line x1="490.63" y1="209.14" x2="490.63" y2="228.77" stroke="#0ecb81" stroke-width="1.4" /><rect x="487.63" y="215.91" width="6" height="8.51" rx="1.5" fill="#0ecb81" /><line x1="501.37" y1="214.61" x2="501.37" y2="265.16" stroke="#f6465d" stroke-width="1.4" /><rect x="498.37" y="215.83" width="6" height="28.92" rx="1.5" fill="#f6465d" /><line x1="512.10" y1="202.88" x2="512.10" y2="252.39" stroke="#0ecb81" stroke-width="1.4" /><rect x="509.10" y="230.77" width="6" height="13.98" rx="1.5" fill="#0ecb81" /><line x1="522.84" y1="214.26" x2="522.84" y2="239.28" stroke="#0ecb81" stroke-width="1.4" /><rect x="519.84" y="229.03" width="6" height="2.00" rx="1.5" fill="#0ecb81" /><line x1="533.57" y1="203.93" x2="533.57" y2="244.14" stroke="#f6465d" stroke-width="1.4" /><rect x="530.57" y="228.94" width="6" height="7.47" rx="1.5" fill="#f6465d" /><line x1="544.30" y1="233.02" x2="544.30" y2="314.76" stroke="#f6465d" stroke-width="1.4" /><rect x="541.30" y="236.41" width="6" height="59.50" rx="1.5" fill="#f6465d" /><line x1="555.04" y1="284.10" x2="555.04" y2="343.95" stroke="#f6465d" stroke-width="1.4" /><rect x="552.04" y="295.82" width="6" height="38.91" rx="1.5" fill="#f6465d" /><line x1="565.77" y1="324.40" x2="565.77" y2="361.58" stroke="#f6465d" stroke-width="1.4" /><rect x="562.77" y="334.82" width="6" height="20.06" rx="1.5" fill="#f6465d" /><line x1="576.51" y1="299.82" x2="576.51" y2="359.23" stroke="#0ecb81" stroke-width="1.4" /><rect x="573.51" y="322.49" width="6" height="32.40" rx="1.5" fill="#0ecb81" /><line x1="587.24" y1="322.49" x2="587.24" y2="367.57" stroke="#f6465d" stroke-width="1.4" /><rect x="584.24" y="322.49" width="6" height="20.59" rx="1.5" fill="#f6465d" /><line x1="597.97" y1="325.10" x2="597.97" y2="360.54" stroke="#0ecb81" stroke-width="1.4" /><rect x="594.97" y="337.17" width="6" height="5.99" rx="1.5" fill="#0ecb81" /><line x1="608.71" y1="325.44" x2="608.71" y2="356.19" stroke="#f6465d" stroke-width="1.4" /><rect x="605.71" y="337.08" width="6" height="3.04" rx="1.5" fill="#f6465d" /><line x1="619.44" y1="333.52" x2="619.44" y2="356.89" stroke="#f6465d" stroke-width="1.4" /><rect x="616.44" y="340.12" width="6" height="5.82" rx="1.5" fill="#f6465d" /><line x1="630.18" y1="321.71" x2="630.18" y2="349.76" stroke="#0ecb81" stroke-width="1.4" /><rect x="627.18" y="336.30" width="6" height="9.64" rx="1.5" fill="#0ecb81" /><line x1="640.91" y1="326.14" x2="640.91" y2="347.42" stroke="#f6465d" stroke-width="1.4" /><rect x="637.91" y="336.39" width="6" height="7.04" rx="1.5" fill="#f6465d" /><line x1="651.65" y1="329.70" x2="651.65" y2="387.46" stroke="#f6465d" stroke-width="1.4" /><rect x="648.65" y="343.51" width="6" height="32.14" rx="1.5" fill="#f6465d" /><line x1="662.38" y1="369.57" x2="662.38" y2="417.26" stroke="#f6465d" stroke-width="1.4" /><rect x="659.38" y="375.65" width="6" height="13.03" rx="1.5" fill="#f6465d" /><line x1="673.11" y1="354.89" x2="673.11" y2="397.97" stroke="#0ecb81" stroke-width="1.4" /><rect x="670.11" y="362.10" width="6" height="26.58" rx="1.5" fill="#0ecb81" /><line x1="683.85" y1="348.72" x2="683.85" y2="370.70" stroke="#f6465d" stroke-width="1.4" /><rect x="680.85" y="362.10" width="6" height="2.00" rx="1.5" fill="#f6465d" /><line x1="694.58" y1="358.36" x2="694.58" y2="376.34" stroke="#f6465d" stroke-width="1.4" /><rect x="691.58" y="364.10" width="6" height="4.00" rx="1.5" fill="#f6465d" /><line x1="705.32" y1="362.71" x2="705.32" y2="377.39" stroke="#f6465d" stroke-width="1.4" /><rect x="702.32" y="368.09" width="6" height="4.69" rx="1.5" fill="#f6465d" /><line x1="716.05" y1="363.92" x2="716.05" y2="390.85" stroke="#0ecb81" stroke-width="1.4" /><rect x="713.05" y="366.62" width="6" height="6.25" rx="1.5" fill="#0ecb81" /><line x1="726.78" y1="341.17" x2="726.78" y2="376.17" stroke="#0ecb81" stroke-width="1.4" /><rect x="723.78" y="364.01" width="6" height="2.61" rx="1.5" fill="#0ecb81" /><line x1="737.52" y1="347.85" x2="737.52" y2="375.22" stroke="#0ecb81" stroke-width="1.4" /><rect x="734.52" y="359.23" width="6" height="4.78" rx="1.5" fill="#0ecb81" /><line x1="748.25" y1="353.59" x2="748.25" y2="365.75" stroke="#f6465d" stroke-width="1.4" /><rect x="745.25" y="359.23" width="6" height="2.00" rx="1.5" fill="#f6465d" /><line x1="758.99" y1="357.67" x2="758.99" y2="377.21" stroke="#f6465d" stroke-width="1.4" /><rect x="755.99" y="361.14" width="6" height="14.77" rx="1.5" fill="#f6465d" /><line x1="769.72" y1="365.92" x2="769.72" y2="382.34" stroke="#f6465d" stroke-width="1.4" /><rect x="766.72" y="375.91" width="6" height="3.56" rx="1.5" fill="#f6465d" /><line x1="780.46" y1="374.87" x2="780.46" y2="388.94" stroke="#f6465d" stroke-width="1.4" /><rect x="777.46" y="379.47" width="6" height="6.86" rx="1.5" fill="#f6465d" /><line x1="791.19" y1="383.29" x2="791.19" y2="412.04" stroke="#f6465d" stroke-width="1.4" /><rect x="788.19" y="386.33" width="6" height="8.25" rx="1.5" fill="#f6465d" /><line x1="801.92" y1="379.38" x2="801.92" y2="405.44" stroke="#0ecb81" stroke-width="1.4" /><rect x="798.92" y="381.30" width="6" height="13.29" rx="1.5" fill="#0ecb81" /><line x1="812.66" y1="380.51" x2="812.66" y2="413.69" stroke="#f6465d" stroke-width="1.4" /><rect x="809.66" y="381.30" width="6" height="21.54" rx="1.5" fill="#f6465d" /><line x1="823.39" y1="400.84" x2="823.39" y2="435.32" stroke="#f6465d" stroke-width="1.4" /><rect x="820.39" y="402.84" width="6" height="10.16" rx="1.5" fill="#f6465d" /><line x1="834.13" y1="413.00" x2="834.13" y2="452.00" stroke="#f6465d" stroke-width="1.4" /><rect x="831.13" y="413.00" width="6" height="13.29" rx="1.5" fill="#f6465d" /><line x1="844.86" y1="400.67" x2="844.86" y2="439.75" stroke="#0ecb81" stroke-width="1.4" /><rect x="841.86" y="405.44" width="6" height="20.76" rx="1.5" fill="#0ecb81" /><line x1="855.59" y1="370.18" x2="855.59" y2="412.48" stroke="#0ecb81" stroke-width="1.4" /><rect x="852.59" y="380.51" width="6" height="25.02" rx="1.5" fill="#0ecb81" /><line x1="866.33" y1="375.48" x2="866.33" y2="393.37" stroke="#f6465d" stroke-width="1.4" /><rect x="863.33" y="380.43" width="6" height="2.00" rx="1.5" fill="#f6465d" /><line x1="877.06" y1="350.81" x2="877.06" y2="383.03" stroke="#0ecb81" stroke-width="1.4" /><rect x="874.06" y="362.97" width="6" height="18.59" rx="1.5" fill="#0ecb81" /><line x1="887.80" y1="329.18" x2="887.80" y2="364.53" stroke="#0ecb81" stroke-width="1.4" /><rect x="884.80" y="331.26" width="6" height="31.70" rx="1.5" fill="#0ecb81" /><line x1="898.53" y1="317.37" x2="898.53" y2="339.17" stroke="#0ecb81" stroke-width="1.4" /><rect x="895.53" y="328.14" width="6" height="3.04" rx="1.5" fill="#0ecb81" /><line x1="909.27" y1="311.11" x2="909.27" y2="335.69" stroke="#0ecb81" stroke-width="1.4" /><rect x="906.27" y="316.32" width="6" height="11.90" rx="1.5" fill="#0ecb81" /><line x1="920.00" y1="302.08" x2="920.00" y2="321.80" stroke="#0ecb81" stroke-width="1.4" /><rect x="917.00" y="310.68" width="6" height="5.65" rx="1.5" fill="#0ecb81" />
  <polyline points="243.75,158.15 275.95,100.30 436.96,266.38 469.16,168.14 587.24,367.57" fill="none" stroke="#2fc273" stroke-width="4" stroke-linecap="round" stroke-linejoin="round" />
  <circle cx="243.75" cy="158.15" r="5.5" fill="#2fc273" fill-opacity="0.15" stroke="#2fc273" stroke-width="2" /><text x="243.75" y="146.15" fill="#f3f4f6" font-size="15" font-weight="700" text-anchor="middle">X</text><circle cx="275.95" cy="100.30" r="5.5" fill="#2fc273" fill-opacity="0.15" stroke="#2fc273" stroke-width="2" /><text x="275.95" y="88.30" fill="#f3f4f6" font-size="15" font-weight="700" text-anchor="middle">A</text><circle cx="436.96" cy="266.38" r="5.5" fill="#2fc273" fill-opacity="0.15" stroke="#2fc273" stroke-width="2" /><text x="436.96" y="254.38" fill="#f3f4f6" font-size="15" font-weight="700" text-anchor="middle">B</text><circle cx="469.16" cy="168.14" r="5.5" fill="#2fc273" fill-opacity="0.15" stroke="#2fc273" stroke-width="2" /><text x="469.16" y="156.14" fill="#f3f4f6" font-size="15" font-weight="700" text-anchor="middle">C</text><circle cx="587.24" cy="367.57" r="5.5" fill="#2fc273" fill-opacity="0.15" stroke="#2fc273" stroke-width="2" /><text x="587.24" y="355.57" fill="#f3f4f6" font-size="15" font-weight="700" text-anchor="middle">D</text>
  <text x="56" y="492" fill="#8ba0b5" font-size="18">Complete · TP1 228.001 · TP2 233.419 · SL 218.364</text>
</svg>
