<svg xmlns="http://www.w3.org/2000/svg" width="960" height="540" viewBox="0 0 960 540">
  <rect width="960" height="540" rx="24" fill="#0b1220" />
  <rect x="28" y="28" width="904" height="484" rx="22" fill="#111827" stroke="#1f2937" />
  <text x="56" y="74" fill="#f3f4f6" font-size="34" font-weight="700">BCHUSDT · AB=CD</text>
  <text x="904" y="74" fill="#8ba0b5" font-size="20" text-anchor="end">Bearish (매도) · Score 80.0</text>
  <line x1="72" y1="58" x2="920" y2="58" stroke="#223045" stroke-width="1" stroke-dasharray="4 8" /><line x1="72" y1="156" x2="920" y2="156" stroke="#223045" stroke-width="1" stroke-dasharray="4 8" /><line x1="72" y1="255" x2="920" y2="255" stroke="#223045" stroke-width="1" stroke-dasharray="4 8" /><line x1="72" y1="353" x2="920" y2="353" stroke="#223045" stroke-width="1" stroke-dasharray="4 8" /><line x1="72" y1="452" x2="920" y2="452" stroke="#223045" stroke-width="1" stroke-dasharray="4 8" />
  <rect x="827.59" y="282.87" width="84" height="39.14" fill="#fbbf24" fill-opacity="0.12" stroke="#fbbf24" stroke-width="1.5" stroke-dasharray="6 6" />
  <line x1="72.00" y1="58.00" x2="72.00" y2="208.90" stroke="#0ecb81" stroke-width="1.4" /><rect x="69.00" y="134.34" width="6" height="61.19" rx="1.5" fill="#0ecb81" /><line x1="82.73" y1="81.40" x2="82.73" y2="145.02" stroke="#0ecb81" stroke-width="1.4" /><rect x="79.73" y="120.53" width="6" height="13.81" rx="1.5" fill="#0ecb81" /><line x1="93.47" y1="103.46" x2="93.47" y2="137.80" stroke="#f6465d" stroke-width="1.4" /><rect x="90.47" y="120.53" width="6" height="8.76" rx="1.5" fill="#f6465d" /><line x1="104.20" y1="107.43" x2="104.20" y2="136.52" stroke="#0ecb81" stroke-width="1.4" /><rect x="101.20" y="121.94" width="6" height="7.35" rx="1.5" fill="#0ecb81" /><line x1="114.94" y1="116.57" x2="114.94" y2="164.52" stroke="#f6465d" stroke-width="1.4" /><rect x="111.94" y="121.94" width="6" height="24.23" rx="1.5" fill="#f6465d" /><line x1="125.67" y1="126.48" x2="125.67" y2="157.68" stroke="#0ecb81" stroke-width="1.4" /><rect x="122.67" y="129.42" width="6" height="16.69" rx="1.5" fill="#0ecb81" /><line x1="136.41" y1="108.07" x2="136.41" y2="182.56" stroke="#f6465d" stroke-width="1.4" /><rect x="133.41" y="129.49" width="6" height="21.80" rx="1.5" fill="#f6465d" /><line x1="147.14" y1="140.80" x2="147.14" y2="174.50" stroke="#0ecb81" stroke-width="1.4" /><rect x="144.14" y="145.41" width="6" height="5.88" rx="1.5" fill="#0ecb81" /><line x1="157.87" y1="136.14" x2="157.87" y2="166.70" stroke="#f6465d" stroke-width="1.4" /><rect x="154.87" y="145.47" width="6" height="2.00" rx="1.5" fill="#f6465d" /><line x1="168.61" y1="118.36" x2="168.61" y2="153.14" stroke="#0ecb81" stroke-width="1.4" /><rect x="165.61" y="126.16" width="6" height="20.78" rx="1.5" fill="#0ecb81" /><line x1="179.34" y1="113.24" x2="179.34" y2="133.51" stroke="#0ecb81" stroke-width="1.4" /><rect x="176.34" y="114.65" width="6" height="11.57" rx="1.5" fill="#0ecb81" /><line x1="190.08" y1="106.98" x2="190.08" y2="145.34" stroke="#f6465d" stroke-width="1.4" /><rect x="187.08" y="114.72" width="6" height="5.63" rx="1.5" fill="#f6465d" /><line x1="200.81" y1="107.23" x2="200.81" y2="128.21" stroke="#f6465d" stroke-width="1.4" /><rect x="197.81" y="120.34" width="6" height="3.96" rx="1.5" fill="#f6465d" /><line x1="211.54" y1="116.83" x2="211.54" y2="152.31" stroke="#f6465d" stroke-width="1.4" /><rect x="208.54" y="124.24" width="6" height="7.67" rx="1.5" fill="#f6465d" /><line x1="222.28" y1="112.41" x2="222.28" y2="149.18" stroke="#f6465d" stroke-width="1.4" /><rect x="219.28" y="131.91" width="6" height="14.07" rx="1.5" fill="#f6465d" /><line x1="233.01" y1="140.80" x2="233.01" y2="163.57" stroke="#f6465d" stroke-width="1.4" /><rect x="230.01" y="145.85" width="6" height="4.09" rx="1.5" fill="#f6465d" /><line x1="243.75" y1="147.07" x2="243.75" y2="172.39" stroke="#f6465d" stroke-width="1.4" /><rect x="240.75" y="150.01" width="6" height="19.25" rx="1.5" fill="#f6465d" /><line x1="254.48" y1="145.34" x2="254.48" y2="208.52" stroke="#f6465d" stroke-width="1.4" /><rect x="251.48" y="169.06" width="6" height="23.02" rx="1.5" fill="#f6465d" /><line x1="265.22" y1="183.58" x2="265.22" y2="229.74" stroke="#f6465d" stroke-width="1.4" /><rect x="262.22" y="192.08" width="6" height="32.16" rx="1.5" fill="#f6465d" /><line x1="275.95" y1="202.12" x2="275.95" y2="229.62" stroke="#f6465d" stroke-width="1.4" /><rect x="272.95" y="224.24" width="6" height="2.00" rx="1.5" fill="#f6465d" /><line x1="286.68" y1="210.82" x2="286.68" y2="244.51" stroke="#f6465d" stroke-width="1.4" /><rect x="283.68" y="225.14" width="6" height="11.64" rx="1.5" fill="#f6465d" /><line x1="297.42" y1="209.15" x2="297.42" y2="239.27" stroke="#0ecb81" stroke-width="1.4" /><rect x="294.42" y="223.93" width="6" height="12.72" rx="1.5" fill="#0ecb81" /><line x1="308.15" y1="198.48" x2="308.15" y2="225.97" stroke="#0ecb81" stroke-width="1.4" /><rect x="305.15" y="212.03" width="6" height="11.89" rx="1.5" fill="#0ecb81" /><line x1="318.89" y1="150.84" x2="318.89" y2="249.25" stroke="#f6465d" stroke-width="1.4" /><rect x="315.89" y="212.03" width="6" height="34.14" rx="1.5" fill="#f6465d" /><line x1="329.62" y1="182.43" x2="329.62" y2="246.50" stroke="#0ecb81" stroke-width="1.4" /><rect x="326.62" y="225.72" width="6" height="20.40" rx="1.5" fill="#0ecb81" /><line x1="340.35" y1="172.33" x2="340.35" y2="234.09" stroke="#0ecb81" stroke-width="1.4" /><rect x="337.35" y="193.62" width="6" height="32.10" rx="1.5" fill="#0ecb81" /><line x1="351.09" y1="162.73" x2="351.09" y2="212.29" stroke="#f6465d" stroke-width="1.4" /><rect x="348.09" y="193.68" width="6" height="4.41" rx="1.5" fill="#f6465d" /><line x1="361.82" y1="153.59" x2="361.82" y2="199.24" stroke="#0ecb81" stroke-width="1.4" /><rect x="358.82" y="156.08" width="6" height="42.01" rx="1.5" fill="#0ecb81" /><line x1="372.56" y1="124.69" x2="372.56" y2="161.90" stroke="#0ecb81" stroke-width="1.4" /><rect x="369.56" y="140.10" width="6" height="15.92" rx="1.5" fill="#0ecb81" /><line x1="383.29" y1="109.92" x2="383.29" y2="168.11" stroke="#0ecb81" stroke-width="1.4" /><rect x="380.29" y="112.03" width="6" height="28.26" rx="1.5" fill="#0ecb81" /><line x1="394.03" y1="109.41" x2="394.03" y2="145.66" stroke="#f6465d" stroke-width="1.4" /><rect x="391.03" y="112.03" width="6" height="11.00" rx="1.5" fill="#f6465d" /><line x1="404.76" y1="84.98" x2="404.76" y2="134.47" stroke="#0ecb81" stroke-width="1.4" /><rect x="401.76" y="92.85" width="6" height="30.18" rx="1.5" fill="#0ecb81" /><line x1="415.49" y1="83.96" x2="415.49" y2="101.74" stroke="#0ecb81" stroke-width="1.4" /><rect x="412.49" y="92.53" width="6" height="2.00" rx="1.5" fill="#0ecb81" /><line x1="426.23" y1="86.13" x2="426.23" y2="120.92" stroke="#f6465d" stroke-width="1.4" /><rect x="423.23" y="92.53" width="6" height="9.72" rx="1.5" fill="#f6465d" /><line x1="436.96" y1="81.40" x2="436.96" y2="105.96" stroke="#0ecb81" stroke-width="1.4" /><rect x="433.96" y="84.47" width="6" height="17.78" rx="1.5" fill="#0ecb81" /><line x1="447.70" y1="81.40" x2="447.70" y2="99.37" stroke="#f6465d" stroke-width="1.4" /><rect x="444.70" y="84.47" width="6" height="7.03" rx="1.5" fill="#f6465d" /><line x1="458.43" y1="83.00" x2="458.43" y2="103.33" stroke="#f6465d" stroke-width="1.4" /><rect x="455.43" y="91.50" width="6" height="2.00" rx="1.5" fill="#f6465d" /><line x1="469.16" y1="90.29" x2="469.16" y2="253.08" stroke="#f6465d" stroke-width="1.4" /><rect x="466.16" y="93.17" width="6" height="149.11" rx="1.5" fill="#f6465d" /><line x1="479.90" y1="242.21" x2="479.90" y2="304.75" stroke="#f6465d" stroke-width="1.4" /><rect x="476.90" y="242.21" width="6" height="29.48" rx="1.5" fill="#f6465d" /><line x1="490.63" y1="264.72" x2="490.63" y2="321.05" stroke="#f6465d" stroke-width="1.4" /><rect x="487.63" y="271.69" width="6" height="11.64" rx="1.5" fill="#f6465d" /><line x1="501.37" y1="231.98" x2="501.37" y2="297.33" stroke="#0ecb81" stroke-width="1.4" /><rect x="498.37" y="257.30" width="6" height="25.96" rx="1.5" fill="#0ecb81" /><line x1="512.10" y1="255.45" x2="512.10" y2="288.70" stroke="#f6465d" stroke-width="1.4" /><rect x="509.10" y="257.30" width="6" height="22.57" rx="1.5" fill="#f6465d" /><line x1="522.84" y1="249.05" x2="522.84" y2="285.05" stroke="#0ecb81" stroke-width="1.4" /><rect x="519.84" y="259.92" width="6" height="20.01" rx="1.5" fill="#0ecb81" /><line x1="533.57" y1="196.81" x2="533.57" y2="264.59" stroke="#0ecb81" stroke-width="1.4" /><rect x="530.57" y="204.04" width="6" height="55.88" rx="1.5" fill="#0ecb81" /><line x1="544.30" y1="189.01" x2="544.30" y2="256.09" stroke="#f6465d" stroke-width="1.4" /><rect x="541.30" y="204.10" width="6" height="36.25" rx="1.5" fill="#f6465d" /><line x1="555.04" y1="218.55" x2="555.04" y2="253.15" stroke="#0ecb81" stroke-width="1.4" /><rect x="552.04" y="235.31" width="6" height="5.12" rx="1.5" fill="#0ecb81" /><line x1="565.77" y1="182.88" x2="565.77" y2="236.97" stroke="#0ecb81" stroke-width="1.4" /><rect x="562.77" y="192.59" width="6" height="42.65" rx="1.5" fill="#0ecb81" /><line x1="576.51" y1="169.64" x2="576.51" y2="205.06" stroke="#0ecb81" stroke-width="1.4" /><rect x="573.51" y="172.07" width="6" height="20.59" rx="1.5" fill="#0ecb81" /><line x1="587.24" y1="158.58" x2="587.24" y2="208.13" stroke="#f6465d" stroke-width="1.4" /><rect x="584.24" y="172.07" width="6" height="18.41" rx="1.5" fill="#f6465d" /><line x1="597.97" y1="136.58" x2="597.97" y2="204.68" stroke="#0ecb81" stroke-width="1.4" /><rect x="594.97" y="173.54" width="6" height="16.94" rx="1.5" fill="#0ecb81" /><line x1="608.71" y1="119.77" x2="608.71" y2="176.80" stroke="#0ecb81" stroke-width="1.4" /><rect x="605.71" y="167.34" width="6" height="6.14" rx="1.5" fill="#0ecb81" /><line x1="619.44" y1="158.51" x2="619.44" y2="211.97" stroke="#f6465d" stroke-width="1.4" /><rect x="616.44" y="167.34" width="6" height="26.79" rx="1.5" fill="#f6465d" /><line x1="630.18" y1="193.11" x2="630.18" y2="234.86" stroke="#f6465d" stroke-width="1.4" /><rect x="627.18" y="194.13" width="6" height="22.12" rx="1.5" fill="#f6465d" /><line x1="640.91" y1="196.49" x2="640.91" y2="236.84" stroke="#f6465d" stroke-width="1.4" /><rect x="637.91" y="216.25" width="6" height="16.69" rx="1.5" fill="#f6465d" /><line x1="651.65" y1="213.69" x2="651.65" y2="248.93" stroke="#0ecb81" stroke-width="1.4" /><rect x="648.65" y="221.43" width="6" height="11.51" rx="1.5" fill="#0ecb81" /><line x1="662.38" y1="217.08" x2="662.38" y2="251.74" stroke="#f6465d" stroke-width="1.4" /><rect x="659.38" y="221.43" width="6" height="21.29" rx="1.5" fill="#f6465d" /><line x1="673.11" y1="232.75" x2="673.11" y2="265.29" stroke="#f6465d" stroke-width="1.4" /><rect x="670.11" y="242.66" width="6" height="22.06" rx="1.5" fill="#f6465d" /><line x1="683.85" y1="261.59" x2="683.85" y2="276.61" stroke="#f6465d" stroke-width="1.4" /><rect x="680.85" y="264.65" width="6" height="2.24" rx="1.5" fill="#f6465d" /><line x1="694.58" y1="263.25" x2="694.58" y2="333.20" stroke="#f6465d" stroke-width="1.4" /><rect x="691.58" y="266.89" width="6" height="65.28" rx="1.5" fill="#f6465d" /><line x1="705.32" y1="325.01" x2="705.32" y2="367.60" stroke="#f6465d" stroke-width="1.4" /><rect x="702.32" y="332.24" width="6" height="22.63" rx="1.5" fill="#f6465d" /><line x1="716.05" y1="325.46" x2="716.05" y2="356.15" stroke="#0ecb81" stroke-width="1.4" /><rect x="713.05" y="337.99" width="6" height="16.88" rx="1.5" fill="#0ecb81" /><line x1="726.78" y1="308.01" x2="726.78" y2="358.14" stroke="#f6465d" stroke-width="1.4" /><rect x="723.78" y="337.99" width="6" height="9.34" rx="1.5" fill="#f6465d" /><line x1="737.52" y1="329.94" x2="737.52" y2="367.28" stroke="#f6465d" stroke-width="1.4" /><rect x="734.52" y="347.33" width="6" height="2.00" rx="1.5" fill="#f6465d" /><line x1="748.25" y1="328.79" x2="748.25" y2="355.39" stroke="#0ecb81" stroke-width="1.4" /><rect x="745.25" y="337.80" width="6" height="10.29" rx="1.5" fill="#0ecb81" /><line x1="758.99" y1="328.98" x2="758.99" y2="347.46" stroke="#0ecb81" stroke-width="1.4" /><rect x="755.99" y="333.07" width="6" height="4.67" rx="1.5" fill="#0ecb81" /><line x1="769.72" y1="322.27" x2="769.72" y2="341.96" stroke="#f6465d" stroke-width="1.4" /><rect x="766.72" y="333.01" width="6" height="2.00" rx="1.5" fill="#f6465d" /><line x1="780.46" y1="328.28" x2="780.46" y2="358.14" stroke="#f6465d" stroke-width="1.4" /><rect x="777.46" y="334.41" width="6" height="7.54" rx="1.5" fill="#f6465d" /><line x1="791.19" y1="324.50" x2="791.19" y2="364.53" stroke="#f6465d" stroke-width="1.4" /><rect x="788.19" y="342.02" width="6" height="18.93" rx="1.5" fill="#f6465d" /><line x1="801.92" y1="345.48" x2="801.92" y2="367.34" stroke="#0ecb81" stroke-width="1.4" /><rect x="798.92" y="352.51" width="6" height="8.50" rx="1.5" fill="#0ecb81" /><line x1="812.66" y1="335.12" x2="812.66" y2="354.49" stroke="#0ecb81" stroke-width="1.4" /><rect x="809.66" y="344.90" width="6" height="7.67" rx="1.5" fill="#0ecb81" /><line x1="823.39" y1="338.89" x2="823.39" y2="352.19" stroke="#0ecb81" stroke-width="1.4" /><rect x="820.39" y="341.45" width="6" height="3.45" rx="1.5" fill="#0ecb81" /><line x1="834.13" y1="337.16" x2="834.13" y2="348.67" stroke="#f6465d" stroke-width="1.4" /><rect x="831.13" y="341.45" width="6" height="4.92" rx="1.5" fill="#f6465d" /><line x1="844.86" y1="338.44" x2="844.86" y2="352.89" stroke="#f6465d" stroke-width="1.4" /><rect x="841.86" y="346.37" width="6" height="2.00" rx="1.5" fill="#f6465d" /><line x1="855.59" y1="329.75" x2="855.59" y2="350.59" stroke="#0ecb81" stroke-width="1.4" /><rect x="852.59" y="347.07" width="6" height="2.00" rx="1.5" fill="#0ecb81" /><line x1="866.33" y1="344.07" x2="866.33" y2="358.52" stroke="#f6465d" stroke-width="1.4" /><rect x="863.33" y="347.07" width="6" height="9.91" rx="1.5" fill="#f6465d" /><line x1="877.06" y1="339.59" x2="877.06" y2="358.84" stroke="#f6465d" stroke-width="1.4" /><rect x="874.06" y="356.92" width="6" height="2.00" rx="1.5" fill="#f6465d" /><line x1="887.80" y1="339.72" x2="887.80" y2="365.11" stroke="#f6465d" stroke-width="1.4" /><rect x="884.80" y="357.56" width="6" height="4.99" rx="1.5" fill="#f6465d" /><line x1="898.53" y1="359.41" x2="898.53" y2="408.90" stroke="#f6465d" stroke-width="1.4" /><rect x="895.53" y="362.55" width="6" height="29.35" rx="1.5" fill="#f6465d" /><line x1="909.27" y1="387.16" x2="909.27" y2="411.97" stroke="#f6465d" stroke-width="1.4" /><rect x="906.27" y="391.96" width="6" height="17.07" rx="1.5" fill="#f6465d" /><line x1="920.00" y1="407.82" x2="920.00" y2="452.00" stroke="#f6465d" stroke-width="1.4" /><rect x="917.00" y="408.97" width="6" height="36.19" rx="1.5" fill="#f6465d" />
  <polyline points="608.71,119.77 705.32,367.60 769.72,322.27 801.92,367.34 855.59,329.75" fill="none" stroke="#2fc273" stroke-width="4" stroke-linecap="round" stroke-linejoin="round" />
  <circle cx="608.71" cy="119.77" r="5.5" fill="#2fc273" fill-opacity="0.15" stroke="#2fc273" stroke-width="2" /><text x="608.71" y="107.77" fill="#f3f4f6" font-size="15" font-weight="700" text-anchor="middle">X</text><circle cx="705.32" cy="367.60" r="5.5" fill="#2fc273" fill-opacity="0.15" stroke="#2fc273" stroke-width="2" /><text x="705.32" y="355.60" fill="#f3f4f6" font-size="15" font-weight="700" text-anchor="middle">A</text><circle cx="769.72" cy="322.27" r="5.5" fill="#2fc273" fill-opacity="0.15" stroke="#2fc273" stroke-width="2" /><text x="769.72" y="310.27" fill="#f3f4f6" font-size="15" font-weight="700" text-anchor="middle">B</text><circle cx="801.92" cy="367.34" r="5.5" fill="#2fc273" fill-opacity="0.15" stroke="#2fc273" stroke-width="2" /><text x="801.92" y="355.34" fill="#f3f4f6" font-size="15" font-weight="700" text-anchor="middle">C</text><circle cx="855.59" cy="329.75" r="5.5" fill="#2fc273" fill-opacity="0.15" stroke="#2fc273" stroke-width="2" /><text x="855.59" y="317.75" fill="#f3f4f6" font-size="15" font-weight="700" text-anchor="middle">D</text>
  <text x="56" y="492" fill="#8ba0b5" font-size="18">일반 완성 · TP1 442.914 · TP2 441.526 · SL 450.199</text>
</svg>
