<svg xmlns="http://www.w3.org/2000/svg" width="960" height="540" viewBox="0 0 960 540">
  <rect width="960" height="540" rx="24" fill="#0b1220" />
  <rect x="28" y="28" width="904" height="484" rx="22" fill="#111827" stroke="#1f2937" />
  <text x="56" y="74" fill="#f3f4f6" font-size="34" font-weight="700">BNBUSDT · AB=CD</text>
  <text x="904" y="74" fill="#8ba0b5" font-size="20" text-anchor="end">Bearish (매도) · Score 87.6</text>
  <line x1="72" y1="58" x2="920" y2="58" stroke="#223045" stroke-width="1" stroke-dasharray="4 8" /><line x1="72" y1="156" x2="920" y2="156" stroke="#223045" stroke-width="1" stroke-dasharray="4 8" /><line x1="72" y1="255" x2="920" y2="255" stroke="#223045" stroke-width="1" stroke-dasharray="4 8" /><line x1="72" y1="353" x2="920" y2="353" stroke="#223045" stroke-width="1" stroke-dasharray="4 8" /><line x1="72" y1="452" x2="920" y2="452" stroke="#223045" stroke-width="1" stroke-dasharray="4 8" />
  <rect x="580.71" y="111.49" width="84" height="84.29" fill="#fbbf24" fill-opacity="0.12" stroke="#fbbf24" stroke-width="1.5" stroke-dasharray="6 6" />
  <line x1="72.00" y1="114.18" x2="72.00" y2="138.17" stroke="#0ecb81" stroke-width="1.4" /><rect x="69.00" y="124.31" width="6" height="6.93" rx="1.5" fill="#0ecb81" /><line x1="82.73" y1="119.10" x2="82.73" y2="159.14" stroke="#f6465d" stroke-width="1.4" /><rect x="79.73" y="124.31" width="6" height="31.53" rx="1.5" fill="#f6465d" /><line x1="93.47" y1="127.80" x2="93.47" y2="182.45" stroke="#0ecb81" stroke-width="1.4" /><rect x="90.47" y="130.90" width="6" height="24.94" rx="1.5" fill="#0ecb81" /><line x1="104.20" y1="121.30" x2="104.20" y2="150.01" stroke="#0ecb81" stroke-width="1.4" /><rect x="101.20" y="126.37" width="6" height="4.63" rx="1.5" fill="#0ecb81" /><line x1="114.94" y1="124.07" x2="114.94" y2="182.60" stroke="#f6465d" stroke-width="1.4" /><rect x="111.94" y="126.41" width="6" height="38.22" rx="1.5" fill="#f6465d" /><line x1="125.67" y1="157.37" x2="125.67" y2="184.70" stroke="#f6465d" stroke-width="1.4" /><rect x="122.67" y="164.68" width="6" height="3.54" rx="1.5" fill="#f6465d" /><line x1="136.41" y1="121.59" x2="136.41" y2="170.51" stroke="#0ecb81" stroke-width="1.4" /><rect x="133.41" y="129.04" width="6" height="39.22" rx="1.5" fill="#0ecb81" /><line x1="147.14" y1="106.54" x2="147.14" y2="133.44" stroke="#0ecb81" stroke-width="1.4" /><rect x="144.14" y="110.41" width="6" height="18.63" rx="1.5" fill="#0ecb81" /><line x1="157.87" y1="86.57" x2="157.87" y2="113.80" stroke="#0ecb81" stroke-width="1.4" /><rect x="154.87" y="103.29" width="6" height="7.17" rx="1.5" fill="#0ecb81" /><line x1="168.61" y1="67.27" x2="168.61" y2="103.72" stroke="#0ecb81" stroke-width="1.4" /><rect x="165.61" y="80.02" width="6" height="23.27" rx="1.5" fill="#0ecb81" /><line x1="179.34" y1="58.00" x2="179.34" y2="111.41" stroke="#f6465d" stroke-width="1.4" /><rect x="176.34" y="80.02" width="6" height="13.28" rx="1.5" fill="#f6465d" /><line x1="190.08" y1="66.70" x2="190.08" y2="100.62" stroke="#0ecb81" stroke-width="1.4" /><rect x="187.08" y="91.01" width="6" height="2.29" rx="1.5" fill="#0ecb81" /><line x1="200.81" y1="71.09" x2="200.81" y2="100.52" stroke="#0ecb81" stroke-width="1.4" /><rect x="197.81" y="83.46" width="6" height="7.50" rx="1.5" fill="#0ecb81" /><line x1="211.54" y1="79.16" x2="211.54" y2="114.14" stroke="#f6465d" stroke-width="1.4" /><rect x="208.54" y="83.51" width="6" height="22.74" rx="1.5" fill="#f6465d" /><line x1="222.28" y1="104.58" x2="222.28" y2="152.64" stroke="#f6465d" stroke-width="1.4" /><rect x="219.28" y="106.16" width="6" height="36.83" rx="1.5" fill="#f6465d" /><line x1="233.01" y1="142.75" x2="233.01" y2="178.30" stroke="#f6465d" stroke-width="1.4" /><rect x="230.01" y="142.99" width="6" height="30.10" rx="1.5" fill="#f6465d" /><line x1="243.75" y1="156.42" x2="243.75" y2="192.63" stroke="#f6465d" stroke-width="1.4" /><rect x="240.75" y="173.09" width="6" height="10.99" rx="1.5" fill="#f6465d" /><line x1="254.48" y1="174.67" x2="254.48" y2="203.95" stroke="#f6465d" stroke-width="1.4" /><rect x="251.48" y="184.13" width="6" height="6.83" rx="1.5" fill="#f6465d" /><line x1="265.22" y1="162.34" x2="265.22" y2="192.63" stroke="#0ecb81" stroke-width="1.4" /><rect x="262.22" y="174.71" width="6" height="16.24" rx="1.5" fill="#0ecb81" /><line x1="275.95" y1="159.90" x2="275.95" y2="181.83" stroke="#f6465d" stroke-width="1.4" /><rect x="272.95" y="174.71" width="6" height="2.20" rx="1.5" fill="#f6465d" /><line x1="286.68" y1="169.32" x2="286.68" y2="193.92" stroke="#0ecb81" stroke-width="1.4" /><rect x="283.68" y="176.77" width="6" height="2.00" rx="1.5" fill="#0ecb81" /><line x1="297.42" y1="173.71" x2="297.42" y2="280.11" stroke="#f6465d" stroke-width="1.4" /><rect x="294.42" y="176.72" width="6" height="84.42" rx="1.5" fill="#f6465d" /><line x1="308.15" y1="246.23" x2="308.15" y2="285.89" stroke="#f6465d" stroke-width="1.4" /><rect x="305.15" y="261.14" width="6" height="2.00" rx="1.5" fill="#f6465d" /><line x1="318.89" y1="256.31" x2="318.89" y2="281.63" stroke="#f6465d" stroke-width="1.4" /><rect x="315.89" y="262.72" width="6" height="2.53" rx="1.5" fill="#f6465d" /><line x1="329.62" y1="244.42" x2="329.62" y2="271.84" stroke="#0ecb81" stroke-width="1.4" /><rect x="326.62" y="246.52" width="6" height="18.73" rx="1.5" fill="#0ecb81" /><line x1="340.35" y1="245.61" x2="340.35" y2="265.58" stroke="#f6465d" stroke-width="1.4" /><rect x="337.35" y="246.52" width="6" height="12.71" rx="1.5" fill="#f6465d" /><line x1="351.09" y1="243.84" x2="351.09" y2="262.72" stroke="#0ecb81" stroke-width="1.4" /><rect x="348.09" y="246.09" width="6" height="13.14" rx="1.5" fill="#0ecb81" /><line x1="361.82" y1="244.61" x2="361.82" y2="262.86" stroke="#f6465d" stroke-width="1.4" /><rect x="358.82" y="246.04" width="6" height="5.49" rx="1.5" fill="#f6465d" /><line x1="372.56" y1="222.25" x2="372.56" y2="257.65" stroke="#0ecb81" stroke-width="1.4" /><rect x="369.56" y="230.66" width="6" height="20.93" rx="1.5" fill="#0ecb81" /><line x1="383.29" y1="228.70" x2="383.29" y2="239.31" stroke="#f6465d" stroke-width="1.4" /><rect x="380.29" y="230.66" width="6" height="2.63" rx="1.5" fill="#f6465d" /><line x1="394.03" y1="226.12" x2="394.03" y2="263.00" stroke="#f6465d" stroke-width="1.4" /><rect x="391.03" y="233.29" width="6" height="26.71" rx="1.5" fill="#f6465d" /><line x1="404.76" y1="239.93" x2="404.76" y2="266.06" stroke="#0ecb81" stroke-width="1.4" /><rect x="401.76" y="246.19" width="6" height="13.81" rx="1.5" fill="#0ecb81" /><line x1="415.49" y1="242.84" x2="415.49" y2="256.27" stroke="#f6465d" stroke-width="1.4" /><rect x="412.49" y="246.14" width="6" height="2.15" rx="1.5" fill="#f6465d" /><line x1="426.23" y1="242.98" x2="426.23" y2="260.09" stroke="#0ecb81" stroke-width="1.4" /><rect x="423.23" y="248.19" width="6" height="2.00" rx="1.5" fill="#0ecb81" /><line x1="436.96" y1="247.52" x2="436.96" y2="277.29" stroke="#f6465d" stroke-width="1.4" /><rect x="433.96" y="248.19" width="6" height="18.97" rx="1.5" fill="#f6465d" /><line x1="447.70" y1="259.80" x2="447.70" y2="276.62" stroke="#f6465d" stroke-width="1.4" /><rect x="444.70" y="267.11" width="6" height="2.00" rx="1.5" fill="#f6465d" /><line x1="458.43" y1="254.21" x2="458.43" y2="331.13" stroke="#f6465d" stroke-width="1.4" /><rect x="455.43" y="269.02" width="6" height="15.05" rx="1.5" fill="#f6465d" /><line x1="469.16" y1="220.91" x2="469.16" y2="289.09" stroke="#0ecb81" stroke-width="1.4" /><rect x="466.16" y="237.44" width="6" height="46.53" rx="1.5" fill="#0ecb81" /><line x1="479.90" y1="220.53" x2="479.90" y2="239.21" stroke="#0ecb81" stroke-width="1.4" /><rect x="476.90" y="224.93" width="6" height="12.47" rx="1.5" fill="#0ecb81" /><line x1="490.63" y1="208.16" x2="490.63" y2="233.57" stroke="#f6465d" stroke-width="1.4" /><rect x="487.63" y="224.97" width="6" height="2.00" rx="1.5" fill="#f6465d" /><line x1="501.37" y1="210.74" x2="501.37" y2="247.00" stroke="#0ecb81" stroke-width="1.4" /><rect x="498.37" y="222.63" width="6" height="3.30" rx="1.5" fill="#0ecb81" /><line x1="512.10" y1="221.53" x2="512.10" y2="272.61" stroke="#f6465d" stroke-width="1.4" /><rect x="509.10" y="222.63" width="6" height="38.12" rx="1.5" fill="#f6465d" /><line x1="522.84" y1="245.66" x2="522.84" y2="277.57" stroke="#f6465d" stroke-width="1.4" /><rect x="519.84" y="260.76" width="6" height="6.31" rx="1.5" fill="#f6465d" /><line x1="533.57" y1="217.00" x2="533.57" y2="272.22" stroke="#0ecb81" stroke-width="1.4" /><rect x="530.57" y="246.66" width="6" height="20.40" rx="1.5" fill="#0ecb81" /><line x1="544.30" y1="241.98" x2="544.30" y2="267.59" stroke="#f6465d" stroke-width="1.4" /><rect x="541.30" y="246.66" width="6" height="12.18" rx="1.5" fill="#f6465d" /><line x1="555.04" y1="257.99" x2="555.04" y2="318.76" stroke="#f6465d" stroke-width="1.4" /><rect x="552.04" y="258.85" width="6" height="28.66" rx="1.5" fill="#f6465d" /><line x1="565.77" y1="235.44" x2="565.77" y2="292.43" stroke="#0ecb81" stroke-width="1.4" /><rect x="562.77" y="273.75" width="6" height="13.71" rx="1.5" fill="#0ecb81" /><line x1="576.51" y1="216.52" x2="576.51" y2="274.13" stroke="#0ecb81" stroke-width="1.4" /><rect x="573.51" y="235.48" width="6" height="38.27" rx="1.5" fill="#0ecb81" /><line x1="587.24" y1="216.37" x2="587.24" y2="239.07" stroke="#0ecb81" stroke-width="1.4" /><rect x="584.24" y="227.79" width="6" height="7.69" rx="1.5" fill="#0ecb81" /><line x1="597.97" y1="215.56" x2="597.97" y2="244.85" stroke="#f6465d" stroke-width="1.4" /><rect x="594.97" y="227.79" width="6" height="2.39" rx="1.5" fill="#f6465d" /><line x1="608.71" y1="203.81" x2="608.71" y2="238.97" stroke="#f6465d" stroke-width="1.4" /><rect x="605.71" y="230.13" width="6" height="2.10" rx="1.5" fill="#f6465d" /><line x1="619.44" y1="225.88" x2="619.44" y2="244.51" stroke="#f6465d" stroke-width="1.4" /><rect x="616.44" y="232.28" width="6" height="4.49" rx="1.5" fill="#f6465d" /><line x1="630.18" y1="223.78" x2="630.18" y2="263.29" stroke="#f6465d" stroke-width="1.4" /><rect x="627.18" y="236.77" width="6" height="2.44" rx="1.5" fill="#f6465d" /><line x1="640.91" y1="216.61" x2="640.91" y2="255.60" stroke="#f6465d" stroke-width="1.4" /><rect x="637.91" y="239.16" width="6" height="4.92" rx="1.5" fill="#f6465d" /><line x1="651.65" y1="233.72" x2="651.65" y2="266.11" stroke="#f6465d" stroke-width="1.4" /><rect x="648.65" y="244.13" width="6" height="14.52" rx="1.5" fill="#f6465d" /><line x1="662.38" y1="245.28" x2="662.38" y2="350.33" stroke="#f6465d" stroke-width="1.4" /><rect x="659.38" y="258.65" width="6" height="90.20" rx="1.5" fill="#f6465d" /><line x1="673.11" y1="346.08" x2="673.11" y2="371.50" stroke="#f6465d" stroke-width="1.4" /><rect x="670.11" y="348.85" width="6" height="2.00" rx="1.5" fill="#f6465d" /><line x1="683.85" y1="349.95" x2="683.85" y2="420.04" stroke="#f6465d" stroke-width="1.4" /><rect x="680.85" y="349.95" width="6" height="50.78" rx="1.5" fill="#f6465d" /><line x1="694.58" y1="399.64" x2="694.58" y2="452.00" stroke="#f6465d" stroke-width="1.4" /><rect x="691.58" y="400.74" width="6" height="33.87" rx="1.5" fill="#f6465d" /><line x1="705.32" y1="388.60" x2="705.32" y2="436.23" stroke="#0ecb81" stroke-width="1.4" /><rect x="702.32" y="390.08" width="6" height="44.53" rx="1.5" fill="#0ecb81" /><line x1="716.05" y1="382.54" x2="716.05" y2="400.26" stroke="#0ecb81" stroke-width="1.4" /><rect x="713.05" y="389.46" width="6" height="2.00" rx="1.5" fill="#0ecb81" /><line x1="726.78" y1="372.12" x2="726.78" y2="397.73" stroke="#0ecb81" stroke-width="1.4" /><rect x="723.78" y="378.43" width="6" height="10.99" rx="1.5" fill="#0ecb81" /><line x1="737.52" y1="363.33" x2="737.52" y2="383.35" stroke="#0ecb81" stroke-width="1.4" /><rect x="734.52" y="375.89" width="6" height="2.48" rx="1.5" fill="#0ecb81" /><line x1="748.25" y1="366.91" x2="748.25" y2="392.14" stroke="#0ecb81" stroke-width="1.4" /><rect x="745.25" y="372.17" width="6" height="3.73" rx="1.5" fill="#0ecb81" /><line x1="758.99" y1="357.60" x2="758.99" y2="388.03" stroke="#f6465d" stroke-width="1.4" /><rect x="755.99" y="372.17" width="6" height="2.00" rx="1.5" fill="#f6465d" /><line x1="769.72" y1="362.61" x2="769.72" y2="375.66" stroke="#0ecb81" stroke-width="1.4" /><rect x="766.72" y="365.86" width="6" height="7.50" rx="1.5" fill="#0ecb81" /><line x1="780.46" y1="362.66" x2="780.46" y2="373.94" stroke="#f6465d" stroke-width="1.4" /><rect x="777.46" y="365.86" width="6" height="2.00" rx="1.5" fill="#f6465d" /><line x1="791.19" y1="362.80" x2="791.19" y2="372.69" stroke="#0ecb81" stroke-width="1.4" /><rect x="788.19" y="363.43" width="6" height="4.06" rx="1.5" fill="#0ecb81" /><line x1="801.92" y1="348.42" x2="801.92" y2="367.63" stroke="#0ecb81" stroke-width="1.4" /><rect x="798.92" y="358.55" width="6" height="4.87" rx="1.5" fill="#0ecb81" /><line x1="812.66" y1="350.86" x2="812.66" y2="363.57" stroke="#f6465d" stroke-width="1.4" /><rect x="809.66" y="358.55" width="6" height="2.96" rx="1.5" fill="#f6465d" /><line x1="823.39" y1="349.47" x2="823.39" y2="368.92" stroke="#0ecb81" stroke-width="1.4" /><rect x="820.39" y="353.30" width="6" height="8.22" rx="1.5" fill="#0ecb81" /><line x1="834.13" y1="326.93" x2="834.13" y2="356.59" stroke="#0ecb81" stroke-width="1.4" /><rect x="831.13" y="342.26" width="6" height="11.04" rx="1.5" fill="#0ecb81" /><line x1="844.86" y1="334.00" x2="844.86" y2="346.13" stroke="#f6465d" stroke-width="1.4" /><rect x="841.86" y="342.31" width="6" height="2.00" rx="1.5" fill="#f6465d" /><line x1="855.59" y1="339.44" x2="855.59" y2="352.87" stroke="#0ecb81" stroke-width="1.4" /><rect x="852.59" y="341.93" width="6" height="2.00" rx="1.5" fill="#0ecb81" /><line x1="866.33" y1="339.35" x2="866.33" y2="370.21" stroke="#f6465d" stroke-width="1.4" /><rect x="863.33" y="341.93" width="6" height="15.00" rx="1.5" fill="#f6465d" /><line x1="877.06" y1="333.37" x2="877.06" y2="358.50" stroke="#0ecb81" stroke-width="1.4" /><rect x="874.06" y="339.59" width="6" height="17.34" rx="1.5" fill="#0ecb81" /><line x1="887.80" y1="327.88" x2="887.80" y2="372.88" stroke="#f6465d" stroke-width="1.4" /><rect x="884.80" y="339.59" width="6" height="4.11" rx="1.5" fill="#f6465d" /><line x1="898.53" y1="341.07" x2="898.53" y2="351.24" stroke="#f6465d" stroke-width="1.4" /><rect x="895.53" y="343.69" width="6" height="3.49" rx="1.5" fill="#f6465d" /><line x1="909.27" y1="291.57" x2="909.27" y2="356.50" stroke="#0ecb81" stroke-width="1.4" /><rect x="906.27" y="303.42" width="6" height="43.81" rx="1.5" fill="#0ecb81" /><line x1="920.00" y1="273.18" x2="920.00" y2="309.97" stroke="#f6465d" stroke-width="1.4" /><rect x="917.00" y="303.37" width="6" height="6.31" rx="1.5" fill="#f6465d" />
  <polyline points="372.56,222.25 458.43,331.13 490.63,208.16 555.04,318.76 608.71,203.81" fill="none" stroke="#2fc273" stroke-width="4" stroke-linecap="round" stroke-linejoin="round" />
  <circle cx="372.56" cy="222.25" r="5.5" fill="#2fc273" fill-opacity="0.15" stroke="#2fc273" stroke-width="2" /><text x="372.56" y="210.25" fill="#f3f4f6" font-size="15" font-weight="700" text-anchor="middle">X</text><circle cx="458.43" cy="331.13" r="5.5" fill="#2fc273" fill-opacity="0.15" stroke="#2fc273" stroke-width="2" /><text x="458.43" y="319.13" fill="#f3f4f6" font-size="15" font-weight="700" text-anchor="middle">A</text><circle cx="490.63" cy="208.16" r="5.5" fill="#2fc273" fill-opacity="0.15" stroke="#2fc273" stroke-width="2" /><text x="490.63" y="196.16" fill="#f3f4f6" font-size="15" font-weight="700" text-anchor="middle">B</text><circle cx="555.04" cy="318.76" r="5.5" fill="#2fc273" fill-opacity="0.15" stroke="#2fc273" stroke-width="2" /><text x="555.04" y="306.76" fill="#f3f4f6" font-size="15" font-weight="700" text-anchor="middle">C</text><circle cx="608.71" cy="203.81" r="5.5" fill="#2fc273" fill-opacity="0.15" stroke="#2fc273" stroke-width="2" /><text x="608.71" y="191.81" fill="#f3f4f6" font-size="15" font-weight="700" text-anchor="middle">D</text>
  <text x="56" y="492" fill="#8ba0b5" font-size="18">일반 완성 · TP1 613.469 · TP2 607.791 · SL 625.623</text>
</svg>
