<svg xmlns="http://www.w3.org/2000/svg" width="960" height="540" viewBox="0 0 960 540">
  <rect width="960" height="540" rx="24" fill="#0b1220" />
  <rect x="28" y="28" width="904" height="484" rx="22" fill="#111827" stroke="#1f2937" />
  <text x="56" y="74" fill="#f3f4f6" font-size="34" font-weight="700">BRUSDT · AB=CD</text>
  <text x="904" y="74" fill="#8ba0b5" font-size="20" text-anchor="end">Bearish (매도) · Score 71.5</text>
  <line x1="72" y1="58" x2="920" y2="58" stroke="#223045" stroke-width="1" stroke-dasharray="4 8" /><line x1="72" y1="156" x2="920" y2="156" stroke="#223045" stroke-width="1" stroke-dasharray="4 8" /><line x1="72" y1="255" x2="920" y2="255" stroke="#223045" stroke-width="1" stroke-dasharray="4 8" /><line x1="72" y1="353" x2="920" y2="353" stroke="#223045" stroke-width="1" stroke-dasharray="4 8" /><line x1="72" y1="452" x2="920" y2="452" stroke="#223045" stroke-width="1" stroke-dasharray="4 8" />
  <rect x="408.96" y="124.87" width="84" height="159.25" fill="#fbbf24" fill-opacity="0.12" stroke="#fbbf24" stroke-width="1.5" stroke-dasharray="6 6" />
  <line x1="72.00" y1="318.57" x2="72.00" y2="418.11" stroke="#f6465d" stroke-width="1.4" /><rect x="69.00" y="346.43" width="6" height="32.35" rx="1.5" fill="#f6465d" /><line x1="82.73" y1="353.68" x2="82.73" y2="418.39" stroke="#f6465d" stroke-width="1.4" /><rect x="79.73" y="379.03" width="6" height="26.53" rx="1.5" fill="#f6465d" /><line x1="93.47" y1="395.48" x2="93.47" y2="452.00" stroke="#f6465d" stroke-width="1.4" /><rect x="90.47" y="405.55" width="6" height="8.03" rx="1.5" fill="#f6465d" /><line x1="104.20" y1="334.82" x2="104.20" y2="432.20" stroke="#f6465d" stroke-width="1.4" /><rect x="101.20" y="413.54" width="6" height="2.68" rx="1.5" fill="#f6465d" /><line x1="114.94" y1="336.91" x2="114.94" y2="424.33" stroke="#0ecb81" stroke-width="1.4" /><rect x="111.94" y="357.14" width="6" height="59.08" rx="1.5" fill="#0ecb81" /><line x1="125.67" y1="115.35" x2="125.67" y2="390.87" stroke="#0ecb81" stroke-width="1.4" /><rect x="122.67" y="218.71" width="6" height="138.43" rx="1.5" fill="#0ecb81" /><line x1="136.41" y1="142.98" x2="136.41" y2="361.23" stroke="#f6465d" stroke-width="1.4" /><rect x="133.41" y="218.67" width="6" height="140.28" rx="1.5" fill="#f6465d" /><line x1="147.14" y1="279.17" x2="147.14" y2="378.95" stroke="#0ecb81" stroke-width="1.4" /><rect x="144.14" y="280.47" width="6" height="78.49" rx="1.5" fill="#0ecb81" /><line x1="157.87" y1="245.40" x2="157.87" y2="342.50" stroke="#0ecb81" stroke-width="1.4" /><rect x="154.87" y="256.38" width="6" height="24.09" rx="1.5" fill="#0ecb81" /><line x1="168.61" y1="140.30" x2="168.61" y2="291.13" stroke="#0ecb81" stroke-width="1.4" /><rect x="165.61" y="174.19" width="6" height="82.66" rx="1.5" fill="#0ecb81" /><line x1="179.34" y1="95.94" x2="179.34" y2="221.58" stroke="#f6465d" stroke-width="1.4" /><rect x="176.34" y="173.84" width="6" height="12.36" rx="1.5" fill="#f6465d" /><line x1="190.08" y1="166.60" x2="190.08" y2="251.73" stroke="#0ecb81" stroke-width="1.4" /><rect x="187.08" y="177.70" width="6" height="8.27" rx="1.5" fill="#0ecb81" /><line x1="200.81" y1="106.45" x2="200.81" y2="270.82" stroke="#f6465d" stroke-width="1.4" /><rect x="197.81" y="177.66" width="6" height="89.47" rx="1.5" fill="#f6465d" /><line x1="211.54" y1="160.61" x2="211.54" y2="315.65" stroke="#0ecb81" stroke-width="1.4" /><rect x="208.54" y="172.93" width="6" height="94.15" rx="1.5" fill="#0ecb81" /><line x1="222.28" y1="58.94" x2="222.28" y2="197.93" stroke="#f6465d" stroke-width="1.4" /><rect x="219.28" y="172.78" width="6" height="22.24" rx="1.5" fill="#f6465d" /><line x1="233.01" y1="170.81" x2="233.01" y2="235.40" stroke="#f6465d" stroke-width="1.4" /><rect x="230.01" y="195.25" width="6" height="24.48" rx="1.5" fill="#f6465d" /><line x1="243.75" y1="169.90" x2="243.75" y2="277.24" stroke="#0ecb81" stroke-width="1.4" /><rect x="240.75" y="175.73" width="6" height="43.93" rx="1.5" fill="#0ecb81" /><line x1="254.48" y1="80.40" x2="254.48" y2="182.89" stroke="#0ecb81" stroke-width="1.4" /><rect x="251.48" y="141.05" width="6" height="34.87" rx="1.5" fill="#0ecb81" /><line x1="265.22" y1="116.25" x2="265.22" y2="197.65" stroke="#f6465d" stroke-width="1.4" /><rect x="262.22" y="141.09" width="6" height="19.72" rx="1.5" fill="#f6465d" /><line x1="275.95" y1="100.19" x2="275.95" y2="165.22" stroke="#0ecb81" stroke-width="1.4" /><rect x="272.95" y="127.87" width="6" height="33.34" rx="1.5" fill="#0ecb81" /><line x1="286.68" y1="95.86" x2="286.68" y2="218.00" stroke="#f6465d" stroke-width="1.4" /><rect x="283.68" y="127.98" width="6" height="52.39" rx="1.5" fill="#f6465d" /><line x1="297.42" y1="173.64" x2="297.42" y2="223.35" stroke="#f6465d" stroke-width="1.4" /><rect x="294.42" y="180.37" width="6" height="31.65" rx="1.5" fill="#f6465d" /><line x1="308.15" y1="197.22" x2="308.15" y2="358.20" stroke="#f6465d" stroke-width="1.4" /><rect x="305.15" y="212.14" width="6" height="141.42" rx="1.5" fill="#f6465d" /><line x1="318.89" y1="278.22" x2="318.89" y2="376.35" stroke="#0ecb81" stroke-width="1.4" /><rect x="315.89" y="285.90" width="6" height="67.54" rx="1.5" fill="#0ecb81" /><line x1="329.62" y1="239.57" x2="329.62" y2="348.36" stroke="#f6465d" stroke-width="1.4" /><rect x="326.62" y="285.78" width="6" height="60.50" rx="1.5" fill="#f6465d" /><line x1="340.35" y1="277.67" x2="340.35" y2="354.39" stroke="#0ecb81" stroke-width="1.4" /><rect x="337.35" y="281.80" width="6" height="64.32" rx="1.5" fill="#0ecb81" /><line x1="351.09" y1="277.40" x2="351.09" y2="330.53" stroke="#f6465d" stroke-width="1.4" /><rect x="348.09" y="281.80" width="6" height="45.50" rx="1.5" fill="#f6465d" /><line x1="361.82" y1="303.41" x2="361.82" y2="343.56" stroke="#0ecb81" stroke-width="1.4" /><rect x="358.82" y="310.70" width="6" height="16.61" rx="1.5" fill="#0ecb81" /><line x1="372.56" y1="286.61" x2="372.56" y2="351.32" stroke="#f6465d" stroke-width="1.4" /><rect x="369.56" y="310.66" width="6" height="14.13" rx="1.5" fill="#f6465d" /><line x1="383.29" y1="255.51" x2="383.29" y2="363.01" stroke="#f6465d" stroke-width="1.4" /><rect x="380.29" y="324.67" width="6" height="22.63" rx="1.5" fill="#f6465d" /><line x1="394.03" y1="309.71" x2="394.03" y2="361.98" stroke="#0ecb81" stroke-width="1.4" /><rect x="391.03" y="344.58" width="6" height="2.72" rx="1.5" fill="#0ecb81" /><line x1="404.76" y1="337.54" x2="404.76" y2="369.30" stroke="#f6465d" stroke-width="1.4" /><rect x="401.76" y="344.70" width="6" height="19.37" rx="1.5" fill="#f6465d" /><line x1="415.49" y1="316.76" x2="415.49" y2="366.47" stroke="#0ecb81" stroke-width="1.4" /><rect x="412.49" y="326.05" width="6" height="38.02" rx="1.5" fill="#0ecb81" /><line x1="426.23" y1="322.15" x2="426.23" y2="404.96" stroke="#f6465d" stroke-width="1.4" /><rect x="423.23" y="326.09" width="6" height="66.32" rx="1.5" fill="#f6465d" /><line x1="436.96" y1="212.96" x2="436.96" y2="399.81" stroke="#0ecb81" stroke-width="1.4" /><rect x="433.96" y="247.68" width="6" height="144.77" rx="1.5" fill="#0ecb81" /><line x1="447.70" y1="246.30" x2="447.70" y2="330.89" stroke="#f6465d" stroke-width="1.4" /><rect x="444.70" y="247.72" width="6" height="72.03" rx="1.5" fill="#f6465d" /><line x1="458.43" y1="292.20" x2="458.43" y2="374.38" stroke="#f6465d" stroke-width="1.4" /><rect x="455.43" y="319.71" width="6" height="27.59" rx="1.5" fill="#f6465d" /><line x1="469.16" y1="300.62" x2="469.16" y2="358.05" stroke="#0ecb81" stroke-width="1.4" /><rect x="466.16" y="325.46" width="6" height="21.85" rx="1.5" fill="#0ecb81" /><line x1="479.90" y1="312.90" x2="479.90" y2="348.21" stroke="#f6465d" stroke-width="1.4" /><rect x="476.90" y="325.69" width="6" height="2.00" rx="1.5" fill="#f6465d" /><line x1="490.63" y1="306.48" x2="490.63" y2="333.76" stroke="#f6465d" stroke-width="1.4" /><rect x="487.63" y="326.95" width="6" height="3.31" rx="1.5" fill="#f6465d" /><line x1="501.37" y1="312.43" x2="501.37" y2="338.80" stroke="#0ecb81" stroke-width="1.4" /><rect x="498.37" y="321.83" width="6" height="8.42" rx="1.5" fill="#0ecb81" /><line x1="512.10" y1="281.88" x2="512.10" y2="321.80" stroke="#0ecb81" stroke-width="1.4" /><rect x="509.10" y="309.04" width="6" height="12.75" rx="1.5" fill="#0ecb81" /><line x1="522.84" y1="297.43" x2="522.84" y2="326.87" stroke="#f6465d" stroke-width="1.4" /><rect x="519.84" y="309.04" width="6" height="8.93" rx="1.5" fill="#f6465d" /><line x1="533.57" y1="300.58" x2="533.57" y2="343.52" stroke="#f6465d" stroke-width="1.4" /><rect x="530.57" y="317.94" width="6" height="10.63" rx="1.5" fill="#f6465d" /><line x1="544.30" y1="318.25" x2="544.30" y2="346.91" stroke="#f6465d" stroke-width="1.4" /><rect x="541.30" y="328.25" width="6" height="12.12" rx="1.5" fill="#f6465d" /><line x1="555.04" y1="327.50" x2="555.04" y2="342.81" stroke="#0ecb81" stroke-width="1.4" /><rect x="552.04" y="334.63" width="6" height="5.71" rx="1.5" fill="#0ecb81" /><line x1="565.77" y1="312.51" x2="565.77" y2="337.54" stroke="#0ecb81" stroke-width="1.4" /><rect x="562.77" y="332.50" width="6" height="2.13" rx="1.5" fill="#0ecb81" /><line x1="576.51" y1="331.91" x2="576.51" y2="355.13" stroke="#f6465d" stroke-width="1.4" /><rect x="573.51" y="332.50" width="6" height="12.08" rx="1.5" fill="#f6465d" /><line x1="587.24" y1="337.11" x2="587.24" y2="372.06" stroke="#f6465d" stroke-width="1.4" /><rect x="584.24" y="344.62" width="6" height="21.14" rx="1.5" fill="#f6465d" /><line x1="597.97" y1="364.46" x2="597.97" y2="390.20" stroke="#f6465d" stroke-width="1.4" /><rect x="594.97" y="365.80" width="6" height="16.18" rx="1.5" fill="#f6465d" /><line x1="608.71" y1="374.38" x2="608.71" y2="406.93" stroke="#f6465d" stroke-width="1.4" /><rect x="605.71" y="381.98" width="6" height="20.27" rx="1.5" fill="#f6465d" /><line x1="619.44" y1="386.74" x2="619.44" y2="415.59" stroke="#f6465d" stroke-width="1.4" /><rect x="616.44" y="402.21" width="6" height="11.77" rx="1.5" fill="#f6465d" /><line x1="630.18" y1="404.10" x2="630.18" y2="449.32" stroke="#f6465d" stroke-width="1.4" /><rect x="627.18" y="414.06" width="6" height="27.28" rx="1.5" fill="#f6465d" /><line x1="640.91" y1="405.91" x2="640.91" y2="443.81" stroke="#0ecb81" stroke-width="1.4" /><rect x="637.91" y="423.82" width="6" height="17.44" rx="1.5" fill="#0ecb81" /><line x1="651.65" y1="412.48" x2="651.65" y2="429.01" stroke="#0ecb81" stroke-width="1.4" /><rect x="648.65" y="419.45" width="6" height="4.61" rx="1.5" fill="#0ecb81" /><line x1="662.38" y1="411.22" x2="662.38" y2="423.23" stroke="#f6465d" stroke-width="1.4" /><rect x="659.38" y="419.45" width="6" height="2.00" rx="1.5" fill="#f6465d" /><line x1="673.11" y1="355.45" x2="673.11" y2="426.06" stroke="#0ecb81" stroke-width="1.4" /><rect x="670.11" y="366.71" width="6" height="54.71" rx="1.5" fill="#0ecb81" /><line x1="683.85" y1="366.78" x2="683.85" y2="390.79" stroke="#f6465d" stroke-width="1.4" /><rect x="680.85" y="366.78" width="6" height="17.83" rx="1.5" fill="#f6465d" /><line x1="694.58" y1="373.16" x2="694.58" y2="410.55" stroke="#f6465d" stroke-width="1.4" /><rect x="691.58" y="384.61" width="6" height="17.24" rx="1.5" fill="#f6465d" /><line x1="705.32" y1="341.40" x2="705.32" y2="402.09" stroke="#0ecb81" stroke-width="1.4" /><rect x="702.32" y="364.46" width="6" height="37.39" rx="1.5" fill="#0ecb81" /><line x1="716.05" y1="320.54" x2="716.05" y2="379.14" stroke="#f6465d" stroke-width="1.4" /><rect x="713.05" y="364.46" width="6" height="2.40" rx="1.5" fill="#f6465d" /><line x1="726.78" y1="152.54" x2="726.78" y2="371.63" stroke="#0ecb81" stroke-width="1.4" /><rect x="723.78" y="308.81" width="6" height="58.10" rx="1.5" fill="#0ecb81" /><line x1="737.52" y1="218.91" x2="737.52" y2="316.68" stroke="#0ecb81" stroke-width="1.4" /><rect x="734.52" y="231.34" width="6" height="77.46" rx="1.5" fill="#0ecb81" /><line x1="748.25" y1="184.07" x2="748.25" y2="280.66" stroke="#f6465d" stroke-width="1.4" /><rect x="745.25" y="231.34" width="6" height="18.11" rx="1.5" fill="#f6465d" /><line x1="758.99" y1="170.45" x2="758.99" y2="283.30" stroke="#f6465d" stroke-width="1.4" /><rect x="755.99" y="249.49" width="6" height="7.16" rx="1.5" fill="#f6465d" /><line x1="769.72" y1="234.85" x2="769.72" y2="288.54" stroke="#f6465d" stroke-width="1.4" /><rect x="766.72" y="256.69" width="6" height="9.64" rx="1.5" fill="#f6465d" /><line x1="780.46" y1="234.93" x2="780.46" y2="278.34" stroke="#0ecb81" stroke-width="1.4" /><rect x="777.46" y="256.02" width="6" height="10.31" rx="1.5" fill="#0ecb81" /><line x1="791.19" y1="136.60" x2="791.19" y2="264.25" stroke="#0ecb81" stroke-width="1.4" /><rect x="788.19" y="168.41" width="6" height="87.97" rx="1.5" fill="#0ecb81" /><line x1="801.92" y1="141.25" x2="801.92" y2="233.31" stroke="#f6465d" stroke-width="1.4" /><rect x="798.92" y="168.64" width="6" height="36.37" rx="1.5" fill="#f6465d" /><line x1="812.66" y1="197.18" x2="812.66" y2="221.23" stroke="#0ecb81" stroke-width="1.4" /><rect x="809.66" y="200.96" width="6" height="4.01" rx="1.5" fill="#0ecb81" /><line x1="823.39" y1="125.39" x2="823.39" y2="212.96" stroke="#0ecb81" stroke-width="1.4" /><rect x="820.39" y="160.06" width="6" height="40.90" rx="1.5" fill="#0ecb81" /><line x1="834.13" y1="120.31" x2="834.13" y2="183.05" stroke="#0ecb81" stroke-width="1.4" /><rect x="831.13" y="144.28" width="6" height="15.78" rx="1.5" fill="#0ecb81" /><line x1="844.86" y1="100.43" x2="844.86" y2="173.80" stroke="#f6465d" stroke-width="1.4" /><rect x="841.86" y="144.28" width="6" height="2.00" rx="1.5" fill="#f6465d" /><line x1="855.59" y1="118.34" x2="855.59" y2="173.41" stroke="#0ecb81" stroke-width="1.4" /><rect x="852.59" y="123.77" width="6" height="21.57" rx="1.5" fill="#0ecb81" /><line x1="866.33" y1="107.48" x2="866.33" y2="158.21" stroke="#f6465d" stroke-width="1.4" /><rect x="863.33" y="123.77" width="6" height="26.96" rx="1.5" fill="#f6465d" /><line x1="877.06" y1="145.14" x2="877.06" y2="169.27" stroke="#f6465d" stroke-width="1.4" /><rect x="874.06" y="150.50" width="6" height="17.75" rx="1.5" fill="#f6465d" /><line x1="887.80" y1="85.55" x2="887.80" y2="172.74" stroke="#0ecb81" stroke-width="1.4" /><rect x="884.80" y="115.15" width="6" height="52.70" rx="1.5" fill="#0ecb81" /><line x1="898.53" y1="79.85" x2="898.53" y2="125.62" stroke="#0ecb81" stroke-width="1.4" /><rect x="895.53" y="86.02" width="6" height="28.97" rx="1.5" fill="#0ecb81" /><line x1="909.27" y1="58.00" x2="909.27" y2="314.04" stroke="#f6465d" stroke-width="1.4" /><rect x="906.27" y="86.06" width="6" height="87.38" rx="1.5" fill="#f6465d" /><line x1="920.00" y1="162.62" x2="920.00" y2="230.44" stroke="#f6465d" stroke-width="1.4" /><rect x="917.00" y="173.05" width="6" height="53.02" rx="1.5" fill="#f6465d" />
  <polyline points="222.28,58.94 318.89,376.35 383.29,255.51 426.23,404.96 436.96,212.96" fill="none" stroke="#2fc273" stroke-width="4" stroke-linecap="round" stroke-linejoin="round" />
  <circle cx="222.28" cy="58.94" r="5.5" fill="#2fc273" fill-opacity="0.15" stroke="#2fc273" stroke-width="2" /><text x="222.28" y="46.94" fill="#f3f4f6" font-size="15" font-weight="700" text-anchor="middle">X</text><circle cx="318.89" cy="376.35" r="5.5" fill="#2fc273" fill-opacity="0.15" stroke="#2fc273" stroke-width="2" /><text x="318.89" y="364.35" fill="#f3f4f6" font-size="15" font-weight="700" text-anchor="middle">A</text><circle cx="383.29" cy="255.51" r="5.5" fill="#2fc273" fill-opacity="0.15" stroke="#2fc273" stroke-width="2" /><text x="383.29" y="243.51" fill="#f3f4f6" font-size="15" font-weight="700" text-anchor="middle">B</text><circle cx="426.23" cy="404.96" r="5.5" fill="#2fc273" fill-opacity="0.15" stroke="#2fc273" stroke-width="2" /><text x="426.23" y="392.96" fill="#f3f4f6" font-size="15" font-weight="700" text-anchor="middle">C</text><circle cx="436.96" cy="212.96" r="5.5" fill="#2fc273" fill-opacity="0.15" stroke="#2fc273" stroke-width="2" /><text x="436.96" y="200.96" fill="#f3f4f6" font-size="15" font-weight="700" text-anchor="middle">D</text>
  <text x="56" y="492" fill="#8ba0b5" font-size="18">일반 완성 · TP1 0.13657 · TP2 0.12505 · SL 0.16568</text>
</svg>
