<svg xmlns="http://www.w3.org/2000/svg" width="960" height="540" viewBox="0 0 960 540">
  <rect width="960" height="540" rx="24" fill="#0b1220" />
  <rect x="28" y="28" width="904" height="484" rx="22" fill="#111827" stroke="#1f2937" />
  <text x="56" y="74" fill="#f3f4f6" font-size="34" font-weight="700">BULLAUSDT · AB=CD</text>
  <text x="904" y="74" fill="#8ba0b5" font-size="20" text-anchor="end">Bearish (매도) · Score 81.3</text>
  <line x1="72" y1="58" x2="920" y2="58" stroke="#223045" stroke-width="1" stroke-dasharray="4 8" /><line x1="72" y1="156" x2="920" y2="156" stroke="#223045" stroke-width="1" stroke-dasharray="4 8" /><line x1="72" y1="255" x2="920" y2="255" stroke="#223045" stroke-width="1" stroke-dasharray="4 8" /><line x1="72" y1="353" x2="920" y2="353" stroke="#223045" stroke-width="1" stroke-dasharray="4 8" /><line x1="72" y1="452" x2="920" y2="452" stroke="#223045" stroke-width="1" stroke-dasharray="4 8" />
  <rect x="849.06" y="-122.32" width="84" height="174.00" fill="#fbbf24" fill-opacity="0.12" stroke="#fbbf24" stroke-width="1.5" stroke-dasharray="6 6" />
  <line x1="72.00" y1="418.17" x2="72.00" y2="448.18" stroke="#f6465d" stroke-width="1.4" /><rect x="69.00" y="420.32" width="6" height="20.62" rx="1.5" fill="#f6465d" /><line x1="82.73" y1="434.85" x2="82.73" y2="447.54" stroke="#f6465d" stroke-width="1.4" /><rect x="79.73" y="440.76" width="6" height="6.14" rx="1.5" fill="#f6465d" /><line x1="93.47" y1="444.35" x2="93.47" y2="452.00" stroke="#0ecb81" stroke-width="1.4" /><rect x="90.47" y="446.09" width="6" height="2.00" rx="1.5" fill="#0ecb81" /><line x1="104.20" y1="425.53" x2="104.20" y2="448.52" stroke="#0ecb81" stroke-width="1.4" /><rect x="101.20" y="435.67" width="6" height="10.54" rx="1.5" fill="#0ecb81" /><line x1="114.94" y1="424.31" x2="114.94" y2="435.96" stroke="#0ecb81" stroke-width="1.4" /><rect x="111.94" y="429.47" width="6" height="6.08" rx="1.5" fill="#0ecb81" /><line x1="125.67" y1="429.24" x2="125.67" y2="435.49" stroke="#f6465d" stroke-width="1.4" /><rect x="122.67" y="429.41" width="6" height="4.98" rx="1.5" fill="#f6465d" /><line x1="136.41" y1="428.02" x2="136.41" y2="435.61" stroke="#0ecb81" stroke-width="1.4" /><rect x="133.41" y="430.45" width="6" height="3.82" rx="1.5" fill="#0ecb81" /><line x1="147.14" y1="429.41" x2="147.14" y2="436.77" stroke="#f6465d" stroke-width="1.4" /><rect x="144.14" y="429.58" width="6" height="2.43" rx="1.5" fill="#f6465d" /><line x1="157.87" y1="426.57" x2="157.87" y2="436.88" stroke="#0ecb81" stroke-width="1.4" /><rect x="154.87" y="427.15" width="6" height="4.40" rx="1.5" fill="#0ecb81" /><line x1="168.61" y1="422.81" x2="168.61" y2="430.63" stroke="#f6465d" stroke-width="1.4" /><rect x="165.61" y="427.09" width="6" height="2.00" rx="1.5" fill="#f6465d" /><line x1="179.34" y1="421.07" x2="179.34" y2="430.10" stroke="#0ecb81" stroke-width="1.4" /><rect x="176.34" y="422.40" width="6" height="4.92" rx="1.5" fill="#0ecb81" /><line x1="190.08" y1="412.79" x2="190.08" y2="431.61" stroke="#f6465d" stroke-width="1.4" /><rect x="187.08" y="422.52" width="6" height="4.29" rx="1.5" fill="#f6465d" /><line x1="200.81" y1="410.24" x2="200.81" y2="427.73" stroke="#0ecb81" stroke-width="1.4" /><rect x="197.81" y="421.47" width="6" height="5.56" rx="1.5" fill="#0ecb81" /><line x1="211.54" y1="416.09" x2="211.54" y2="426.17" stroke="#f6465d" stroke-width="1.4" /><rect x="208.54" y="421.30" width="6" height="2.09" rx="1.5" fill="#f6465d" /><line x1="222.28" y1="418.64" x2="222.28" y2="425.99" stroke="#0ecb81" stroke-width="1.4" /><rect x="219.28" y="421.30" width="6" height="2.00" rx="1.5" fill="#0ecb81" /><line x1="233.01" y1="418.23" x2="233.01" y2="422.81" stroke="#f6465d" stroke-width="1.4" /><rect x="230.01" y="421.30" width="6" height="2.00" rx="1.5" fill="#f6465d" /><line x1="243.75" y1="412.50" x2="243.75" y2="423.04" stroke="#0ecb81" stroke-width="1.4" /><rect x="240.75" y="419.62" width="6" height="3.07" rx="1.5" fill="#0ecb81" /><line x1="254.48" y1="418.93" x2="254.48" y2="425.18" stroke="#f6465d" stroke-width="1.4" /><rect x="251.48" y="419.56" width="6" height="2.55" rx="1.5" fill="#f6465d" /><line x1="265.22" y1="421.82" x2="265.22" y2="431.26" stroke="#f6465d" stroke-width="1.4" /><rect x="262.22" y="422.11" width="6" height="4.17" rx="1.5" fill="#f6465d" /><line x1="275.95" y1="424.78" x2="275.95" y2="432.02" stroke="#f6465d" stroke-width="1.4" /><rect x="272.95" y="426.28" width="6" height="4.40" rx="1.5" fill="#f6465d" /><line x1="286.68" y1="428.60" x2="286.68" y2="433.17" stroke="#f6465d" stroke-width="1.4" /><rect x="283.68" y="430.63" width="6" height="2.00" rx="1.5" fill="#f6465d" /><line x1="297.42" y1="428.25" x2="297.42" y2="435.32" stroke="#f6465d" stroke-width="1.4" /><rect x="294.42" y="432.02" width="6" height="2.72" rx="1.5" fill="#f6465d" /><line x1="308.15" y1="431.73" x2="308.15" y2="437.46" stroke="#0ecb81" stroke-width="1.4" /><rect x="305.15" y="432.48" width="6" height="2.26" rx="1.5" fill="#0ecb81" /><line x1="318.89" y1="430.63" x2="318.89" y2="443.37" stroke="#f6465d" stroke-width="1.4" /><rect x="315.89" y="432.48" width="6" height="7.82" rx="1.5" fill="#f6465d" /><line x1="329.62" y1="437.00" x2="329.62" y2="443.37" stroke="#f6465d" stroke-width="1.4" /><rect x="326.62" y="440.42" width="6" height="2.26" rx="1.5" fill="#f6465d" /><line x1="340.35" y1="411.28" x2="340.35" y2="443.43" stroke="#0ecb81" stroke-width="1.4" /><rect x="337.35" y="418.17" width="6" height="24.56" rx="1.5" fill="#0ecb81" /><line x1="351.09" y1="417.25" x2="351.09" y2="430.45" stroke="#f6465d" stroke-width="1.4" /><rect x="348.09" y="418.06" width="6" height="11.41" rx="1.5" fill="#f6465d" /><line x1="361.82" y1="423.15" x2="361.82" y2="434.10" stroke="#0ecb81" stroke-width="1.4" /><rect x="358.82" y="427.90" width="6" height="2.00" rx="1.5" fill="#0ecb81" /><line x1="372.56" y1="414.00" x2="372.56" y2="435.09" stroke="#f6465d" stroke-width="1.4" /><rect x="369.56" y="427.85" width="6" height="4.40" rx="1.5" fill="#f6465d" /><line x1="383.29" y1="426.75" x2="383.29" y2="433.99" stroke="#f6465d" stroke-width="1.4" /><rect x="380.29" y="432.19" width="6" height="2.00" rx="1.5" fill="#f6465d" /><line x1="394.03" y1="432.02" x2="394.03" y2="437.81" stroke="#f6465d" stroke-width="1.4" /><rect x="391.03" y="433.00" width="6" height="2.00" rx="1.5" fill="#f6465d" /><line x1="404.76" y1="422.52" x2="404.76" y2="437.23" stroke="#0ecb81" stroke-width="1.4" /><rect x="401.76" y="430.74" width="6" height="3.88" rx="1.5" fill="#0ecb81" /><line x1="415.49" y1="424.78" x2="415.49" y2="434.74" stroke="#f6465d" stroke-width="1.4" /><rect x="412.49" y="430.74" width="6" height="2.00" rx="1.5" fill="#f6465d" /><line x1="426.23" y1="428.60" x2="426.23" y2="436.71" stroke="#0ecb81" stroke-width="1.4" /><rect x="423.23" y="428.89" width="6" height="2.20" rx="1.5" fill="#0ecb81" /><line x1="436.96" y1="419.91" x2="436.96" y2="429.70" stroke="#0ecb81" stroke-width="1.4" /><rect x="433.96" y="422.11" width="6" height="6.78" rx="1.5" fill="#0ecb81" /><line x1="447.70" y1="408.90" x2="447.70" y2="422.40" stroke="#0ecb81" stroke-width="1.4" /><rect x="444.70" y="413.77" width="6" height="7.82" rx="1.5" fill="#0ecb81" /><line x1="458.43" y1="398.13" x2="458.43" y2="414.41" stroke="#0ecb81" stroke-width="1.4" /><rect x="455.43" y="408.33" width="6" height="5.44" rx="1.5" fill="#0ecb81" /><line x1="469.16" y1="388.63" x2="469.16" y2="411.68" stroke="#0ecb81" stroke-width="1.4" /><rect x="466.16" y="393.84" width="6" height="14.48" rx="1.5" fill="#0ecb81" /><line x1="479.90" y1="387.65" x2="479.90" y2="401.03" stroke="#0ecb81" stroke-width="1.4" /><rect x="476.90" y="390.08" width="6" height="3.53" rx="1.5" fill="#0ecb81" /><line x1="490.63" y1="382.32" x2="490.63" y2="394.19" stroke="#0ecb81" stroke-width="1.4" /><rect x="487.63" y="388.86" width="6" height="2.00" rx="1.5" fill="#0ecb81" /><line x1="501.37" y1="380.06" x2="501.37" y2="395.41" stroke="#0ecb81" stroke-width="1.4" /><rect x="498.37" y="388.86" width="6" height="2.00" rx="1.5" fill="#0ecb81" /><line x1="512.10" y1="368.59" x2="512.10" y2="388.80" stroke="#0ecb81" stroke-width="1.4" /><rect x="509.10" y="377.63" width="6" height="10.60" rx="1.5" fill="#0ecb81" /><line x1="522.84" y1="322.42" x2="522.84" y2="378.32" stroke="#0ecb81" stroke-width="1.4" /><rect x="519.84" y="356.02" width="6" height="21.61" rx="1.5" fill="#0ecb81" /><line x1="533.57" y1="345.71" x2="533.57" y2="378.26" stroke="#f6465d" stroke-width="1.4" /><rect x="530.57" y="355.85" width="6" height="10.54" rx="1.5" fill="#f6465d" /><line x1="544.30" y1="364.65" x2="544.30" y2="382.84" stroke="#f6465d" stroke-width="1.4" /><rect x="541.30" y="366.39" width="6" height="13.03" rx="1.5" fill="#f6465d" /><line x1="555.04" y1="379.19" x2="555.04" y2="386.84" stroke="#f6465d" stroke-width="1.4" /><rect x="552.04" y="379.71" width="6" height="6.66" rx="1.5" fill="#f6465d" /><line x1="565.77" y1="360.89" x2="565.77" y2="386.60" stroke="#0ecb81" stroke-width="1.4" /><rect x="562.77" y="365.46" width="6" height="21.03" rx="1.5" fill="#0ecb81" /><line x1="576.51" y1="356.77" x2="576.51" y2="367.60" stroke="#0ecb81" stroke-width="1.4" /><rect x="573.51" y="357.64" width="6" height="8.11" rx="1.5" fill="#0ecb81" /><line x1="587.24" y1="350.34" x2="587.24" y2="364.53" stroke="#f6465d" stroke-width="1.4" /><rect x="584.24" y="357.35" width="6" height="2.78" rx="1.5" fill="#f6465d" /><line x1="597.97" y1="340.15" x2="597.97" y2="363.55" stroke="#0ecb81" stroke-width="1.4" /><rect x="594.97" y="347.56" width="6" height="12.74" rx="1.5" fill="#0ecb81" /><line x1="608.71" y1="345.19" x2="608.71" y2="353.70" stroke="#0ecb81" stroke-width="1.4" /><rect x="605.71" y="345.59" width="6" height="2.00" rx="1.5" fill="#0ecb81" /><line x1="619.44" y1="328.56" x2="619.44" y2="349.53" stroke="#0ecb81" stroke-width="1.4" /><rect x="616.44" y="332.21" width="6" height="13.96" rx="1.5" fill="#0ecb81" /><line x1="630.18" y1="261.20" x2="630.18" y2="339.05" stroke="#0ecb81" stroke-width="1.4" /><rect x="627.18" y="274.29" width="6" height="57.92" rx="1.5" fill="#0ecb81" /><line x1="640.91" y1="259.00" x2="640.91" y2="327.00" stroke="#f6465d" stroke-width="1.4" /><rect x="637.91" y="273.83" width="6" height="18.42" rx="1.5" fill="#f6465d" /><line x1="651.65" y1="235.02" x2="651.65" y2="326.25" stroke="#0ecb81" stroke-width="1.4" /><rect x="648.65" y="266.01" width="6" height="26.30" rx="1.5" fill="#0ecb81" /><line x1="662.38" y1="262.88" x2="662.38" y2="309.74" stroke="#f6465d" stroke-width="1.4" /><rect x="659.38" y="265.95" width="6" height="8.51" rx="1.5" fill="#f6465d" /><line x1="673.11" y1="244.17" x2="673.11" y2="283.09" stroke="#0ecb81" stroke-width="1.4" /><rect x="670.11" y="254.42" width="6" height="20.04" rx="1.5" fill="#0ecb81" /><line x1="683.85" y1="236.87" x2="683.85" y2="262.82" stroke="#f6465d" stroke-width="1.4" /><rect x="680.85" y="254.42" width="6" height="2.90" rx="1.5" fill="#f6465d" /><line x1="694.58" y1="252.57" x2="694.58" y2="292.48" stroke="#f6465d" stroke-width="1.4" /><rect x="691.58" y="256.80" width="6" height="29.95" rx="1.5" fill="#f6465d" /><line x1="705.32" y1="258.94" x2="705.32" y2="301.98" stroke="#0ecb81" stroke-width="1.4" /><rect x="702.32" y="266.87" width="6" height="19.75" rx="1.5" fill="#0ecb81" /><line x1="716.05" y1="242.72" x2="716.05" y2="272.38" stroke="#0ecb81" stroke-width="1.4" /><rect x="713.05" y="245.56" width="6" height="21.03" rx="1.5" fill="#0ecb81" /><line x1="726.78" y1="224.42" x2="726.78" y2="258.07" stroke="#0ecb81" stroke-width="1.4" /><rect x="723.78" y="231.19" width="6" height="13.90" rx="1.5" fill="#0ecb81" /><line x1="737.52" y1="224.94" x2="737.52" y2="246.60" stroke="#f6465d" stroke-width="1.4" /><rect x="734.52" y="231.19" width="6" height="7.18" rx="1.5" fill="#f6465d" /><line x1="748.25" y1="222.10" x2="748.25" y2="245.73" stroke="#0ecb81" stroke-width="1.4" /><rect x="745.25" y="222.74" width="6" height="15.29" rx="1.5" fill="#0ecb81" /><line x1="758.99" y1="81.05" x2="758.99" y2="235.54" stroke="#0ecb81" stroke-width="1.4" /><rect x="755.99" y="103.59" width="6" height="119.50" rx="1.5" fill="#0ecb81" /><line x1="769.72" y1="83.78" x2="769.72" y2="199.80" stroke="#f6465d" stroke-width="1.4" /><rect x="766.72" y="102.83" width="6" height="14.19" rx="1.5" fill="#f6465d" /><line x1="780.46" y1="67.96" x2="780.46" y2="141.01" stroke="#f6465d" stroke-width="1.4" /><rect x="777.46" y="116.33" width="6" height="3.07" rx="1.5" fill="#f6465d" /><line x1="791.19" y1="97.56" x2="791.19" y2="244.52" stroke="#f6465d" stroke-width="1.4" /><rect x="788.19" y="119.28" width="6" height="110.29" rx="1.5" fill="#f6465d" /><line x1="801.92" y1="217.47" x2="801.92" y2="257.49" stroke="#f6465d" stroke-width="1.4" /><rect x="798.92" y="229.22" width="6" height="5.73" rx="1.5" fill="#f6465d" /><line x1="812.66" y1="213.70" x2="812.66" y2="269.08" stroke="#f6465d" stroke-width="1.4" /><rect x="809.66" y="234.55" width="6" height="30.35" rx="1.5" fill="#f6465d" /><line x1="823.39" y1="237.51" x2="823.39" y2="285.70" stroke="#0ecb81" stroke-width="1.4" /><rect x="820.39" y="254.71" width="6" height="10.19" rx="1.5" fill="#0ecb81" /><line x1="834.13" y1="237.39" x2="834.13" y2="267.86" stroke="#f6465d" stroke-width="1.4" /><rect x="831.13" y="254.77" width="6" height="8.05" rx="1.5" fill="#f6465d" /><line x1="844.86" y1="173.33" x2="844.86" y2="267.34" stroke="#0ecb81" stroke-width="1.4" /><rect x="841.86" y="194.01" width="6" height="69.34" rx="1.5" fill="#0ecb81" /><line x1="855.59" y1="139.38" x2="855.59" y2="203.10" stroke="#0ecb81" stroke-width="1.4" /><rect x="852.59" y="164.70" width="6" height="28.50" rx="1.5" fill="#0ecb81" /><line x1="866.33" y1="142.86" x2="866.33" y2="179.12" stroke="#0ecb81" stroke-width="1.4" /><rect x="863.33" y="151.43" width="6" height="12.80" rx="1.5" fill="#0ecb81" /><line x1="877.06" y1="58.00" x2="877.06" y2="155.31" stroke="#0ecb81" stroke-width="1.4" /><rect x="874.06" y="107.53" width="6" height="43.33" rx="1.5" fill="#0ecb81" /><line x1="887.80" y1="107.06" x2="887.80" y2="153.11" stroke="#f6465d" stroke-width="1.4" /><rect x="884.80" y="107.06" width="6" height="23.69" rx="1.5" fill="#f6465d" /><line x1="898.53" y1="113.78" x2="898.53" y2="186.07" stroke="#f6465d" stroke-width="1.4" /><rect x="895.53" y="130.75" width="6" height="18.71" rx="1.5" fill="#f6465d" /><line x1="909.27" y1="105.96" x2="909.27" y2="172.52" stroke="#0ecb81" stroke-width="1.4" /><rect x="906.27" y="127.68" width="6" height="21.66" rx="1.5" fill="#0ecb81" /><line x1="920.00" y1="64.08" x2="920.00" y2="130.58" stroke="#0ecb81" stroke-width="1.4" /><rect x="917.00" y="71.21" width="6" height="56.30" rx="1.5" fill="#0ecb81" />
  <polyline points="651.65,235.02 705.32,301.98 780.46,67.96 823.39,285.70 877.06,58.00" fill="none" stroke="#2fc273" stroke-width="4" stroke-linecap="round" stroke-linejoin="round" />
  <circle cx="651.65" cy="235.02" r="5.5" fill="#2fc273" fill-opacity="0.15" stroke="#2fc273" stroke-width="2" /><text x="651.65" y="223.02" fill="#f3f4f6" font-size="15" font-weight="700" text-anchor="middle">X</text><circle cx="705.32" cy="301.98" r="5.5" fill="#2fc273" fill-opacity="0.15" stroke="#2fc273" stroke-width="2" /><text x="705.32" y="289.98" fill="#f3f4f6" font-size="15" font-weight="700" text-anchor="middle">A</text><circle cx="780.46" cy="67.96" r="5.5" fill="#2fc273" fill-opacity="0.15" stroke="#2fc273" stroke-width="2" /><text x="780.46" y="55.96" fill="#f3f4f6" font-size="15" font-weight="700" text-anchor="middle">B</text><circle cx="823.39" cy="285.70" r="5.5" fill="#2fc273" fill-opacity="0.15" stroke="#2fc273" stroke-width="2" /><text x="823.39" y="273.70" fill="#f3f4f6" font-size="15" font-weight="700" text-anchor="middle">C</text><circle cx="877.06" cy="58.00" r="5.5" fill="#2fc273" fill-opacity="0.15" stroke="#2fc273" stroke-width="2" /><text x="877.06" y="46.00" fill="#f3f4f6" font-size="15" font-weight="700" text-anchor="middle">D</text>
  <text x="56" y="492" fill="#8ba0b5" font-size="18">Complete · TP1 0.010956 · TP2 0.010029 · SL 0.012608</text>
</svg>
