<svg xmlns="http://www.w3.org/2000/svg" width="960" height="540" viewBox="0 0 960 540">
  <rect width="960" height="540" rx="24" fill="#0b1220" />
  <rect x="28" y="28" width="904" height="484" rx="22" fill="#111827" stroke="#1f2937" />
  <text x="56" y="74" fill="#f3f4f6" font-size="34" font-weight="700">BULLAUSDT · AB=CD</text>
  <text x="904" y="74" fill="#8ba0b5" font-size="20" text-anchor="end">Bearish (매도) · Score 77.7</text>
  <line x1="72" y1="58" x2="920" y2="58" stroke="#223045" stroke-width="1" stroke-dasharray="4 8" /><line x1="72" y1="156" x2="920" y2="156" stroke="#223045" stroke-width="1" stroke-dasharray="4 8" /><line x1="72" y1="255" x2="920" y2="255" stroke="#223045" stroke-width="1" stroke-dasharray="4 8" /><line x1="72" y1="353" x2="920" y2="353" stroke="#223045" stroke-width="1" stroke-dasharray="4 8" /><line x1="72" y1="452" x2="920" y2="452" stroke="#223045" stroke-width="1" stroke-dasharray="4 8" />
  <rect x="730.99" y="271.29" width="84" height="53.96" fill="#fbbf24" fill-opacity="0.12" stroke="#fbbf24" stroke-width="1.5" stroke-dasharray="6 6" />
  <line x1="72.00" y1="285.12" x2="72.00" y2="298.63" stroke="#0ecb81" stroke-width="1.4" /><rect x="69.00" y="294.65" width="6" height="2.00" rx="1.5" fill="#0ecb81" /><line x1="82.73" y1="293.06" x2="82.73" y2="309.75" stroke="#f6465d" stroke-width="1.4" /><rect x="79.73" y="294.65" width="6" height="5.56" rx="1.5" fill="#f6465d" /><line x1="93.47" y1="294.65" x2="93.47" y2="351.08" stroke="#f6465d" stroke-width="1.4" /><rect x="90.47" y="301.01" width="6" height="17.48" rx="1.5" fill="#f6465d" /><line x1="104.20" y1="313.73" x2="104.20" y2="325.65" stroke="#f6465d" stroke-width="1.4" /><rect x="101.20" y="318.49" width="6" height="3.18" rx="1.5" fill="#f6465d" /><line x1="114.94" y1="295.45" x2="114.94" y2="325.65" stroke="#0ecb81" stroke-width="1.4" /><rect x="111.94" y="314.52" width="6" height="7.15" rx="1.5" fill="#0ecb81" /><line x1="125.67" y1="281.94" x2="125.67" y2="315.32" stroke="#0ecb81" stroke-width="1.4" /><rect x="122.67" y="291.48" width="6" height="23.84" rx="1.5" fill="#0ecb81" /><line x1="136.41" y1="271.61" x2="136.41" y2="295.45" stroke="#0ecb81" stroke-width="1.4" /><rect x="133.41" y="286.71" width="6" height="4.77" rx="1.5" fill="#0ecb81" /><line x1="147.14" y1="284.32" x2="147.14" y2="323.26" stroke="#f6465d" stroke-width="1.4" /><rect x="144.14" y="285.91" width="6" height="20.66" rx="1.5" fill="#f6465d" /><line x1="157.87" y1="297.04" x2="157.87" y2="324.85" stroke="#f6465d" stroke-width="1.4" /><rect x="154.87" y="306.57" width="6" height="14.30" rx="1.5" fill="#f6465d" /><line x1="168.61" y1="304.99" x2="168.61" y2="323.26" stroke="#0ecb81" stroke-width="1.4" /><rect x="165.61" y="310.55" width="6" height="10.33" rx="1.5" fill="#0ecb81" /><line x1="179.34" y1="309.75" x2="179.34" y2="322.47" stroke="#f6465d" stroke-width="1.4" /><rect x="176.34" y="311.34" width="6" height="8.74" rx="1.5" fill="#f6465d" /><line x1="190.08" y1="320.08" x2="190.08" y2="333.59" stroke="#f6465d" stroke-width="1.4" /><rect x="187.08" y="320.88" width="6" height="9.54" rx="1.5" fill="#f6465d" /><line x1="200.81" y1="320.08" x2="200.81" y2="329.62" stroke="#0ecb81" stroke-width="1.4" /><rect x="197.81" y="324.06" width="6" height="5.56" rx="1.5" fill="#0ecb81" /><line x1="211.54" y1="323.26" x2="211.54" y2="330.41" stroke="#f6465d" stroke-width="1.4" /><rect x="208.54" y="323.26" width="6" height="4.77" rx="1.5" fill="#f6465d" /><line x1="222.28" y1="321.67" x2="222.28" y2="358.23" stroke="#f6465d" stroke-width="1.4" /><rect x="219.28" y="327.24" width="6" height="20.66" rx="1.5" fill="#f6465d" /><line x1="233.01" y1="334.39" x2="233.01" y2="349.49" stroke="#0ecb81" stroke-width="1.4" /><rect x="230.01" y="335.98" width="6" height="11.92" rx="1.5" fill="#0ecb81" /><line x1="243.75" y1="333.59" x2="243.75" y2="350.28" stroke="#f6465d" stroke-width="1.4" /><rect x="240.75" y="335.98" width="6" height="13.51" rx="1.5" fill="#f6465d" /><line x1="254.48" y1="339.16" x2="254.48" y2="354.25" stroke="#0ecb81" stroke-width="1.4" /><rect x="251.48" y="344.72" width="6" height="4.77" rx="1.5" fill="#0ecb81" /><line x1="265.22" y1="339.95" x2="265.22" y2="351.87" stroke="#f6465d" stroke-width="1.4" /><rect x="262.22" y="344.72" width="6" height="3.97" rx="1.5" fill="#f6465d" /><line x1="275.95" y1="343.13" x2="275.95" y2="354.25" stroke="#f6465d" stroke-width="1.4" /><rect x="272.95" y="347.90" width="6" height="3.97" rx="1.5" fill="#f6465d" /><line x1="286.68" y1="340.75" x2="286.68" y2="355.84" stroke="#0ecb81" stroke-width="1.4" /><rect x="283.68" y="351.08" width="6" height="2.00" rx="1.5" fill="#0ecb81" /><line x1="297.42" y1="351.08" x2="297.42" y2="424.19" stroke="#f6465d" stroke-width="1.4" /><rect x="294.42" y="351.08" width="6" height="43.71" rx="1.5" fill="#f6465d" /><line x1="308.15" y1="378.10" x2="308.15" y2="402.73" stroke="#f6465d" stroke-width="1.4" /><rect x="305.15" y="393.99" width="6" height="2.00" rx="1.5" fill="#f6465d" /><line x1="318.89" y1="393.19" x2="318.89" y2="413.86" stroke="#0ecb81" stroke-width="1.4" /><rect x="315.89" y="394.78" width="6" height="2.00" rx="1.5" fill="#0ecb81" /><line x1="329.62" y1="382.86" x2="329.62" y2="397.96" stroke="#0ecb81" stroke-width="1.4" /><rect x="326.62" y="394.78" width="6" height="2.00" rx="1.5" fill="#0ecb81" /><line x1="340.35" y1="389.22" x2="340.35" y2="405.11" stroke="#f6465d" stroke-width="1.4" /><rect x="337.35" y="395.58" width="6" height="4.77" rx="1.5" fill="#f6465d" /><line x1="351.09" y1="380.48" x2="351.09" y2="401.14" stroke="#0ecb81" stroke-width="1.4" /><rect x="348.09" y="386.84" width="6" height="12.71" rx="1.5" fill="#0ecb81" /><line x1="361.82" y1="385.25" x2="361.82" y2="406.70" stroke="#f6465d" stroke-width="1.4" /><rect x="358.82" y="387.63" width="6" height="16.69" rx="1.5" fill="#f6465d" /><line x1="372.56" y1="401.14" x2="372.56" y2="435.31" stroke="#f6465d" stroke-width="1.4" /><rect x="369.56" y="404.32" width="6" height="18.28" rx="1.5" fill="#f6465d" /><line x1="383.29" y1="420.21" x2="383.29" y2="433.72" stroke="#f6465d" stroke-width="1.4" /><rect x="380.29" y="422.60" width="6" height="2.00" rx="1.5" fill="#f6465d" /><line x1="394.03" y1="417.83" x2="394.03" y2="431.34" stroke="#f6465d" stroke-width="1.4" /><rect x="391.03" y="423.39" width="6" height="3.18" rx="1.5" fill="#f6465d" /><line x1="404.76" y1="409.09" x2="404.76" y2="452.00" stroke="#0ecb81" stroke-width="1.4" /><rect x="401.76" y="417.83" width="6" height="8.74" rx="1.5" fill="#0ecb81" /><line x1="415.49" y1="407.50" x2="415.49" y2="418.62" stroke="#0ecb81" stroke-width="1.4" /><rect x="412.49" y="411.47" width="6" height="6.36" rx="1.5" fill="#0ecb81" /><line x1="426.23" y1="408.29" x2="426.23" y2="422.60" stroke="#f6465d" stroke-width="1.4" /><rect x="423.23" y="411.47" width="6" height="8.74" rx="1.5" fill="#f6465d" /><line x1="436.96" y1="402.73" x2="436.96" y2="422.60" stroke="#0ecb81" stroke-width="1.4" /><rect x="433.96" y="411.47" width="6" height="8.74" rx="1.5" fill="#0ecb81" /><line x1="447.70" y1="405.91" x2="447.70" y2="419.42" stroke="#f6465d" stroke-width="1.4" /><rect x="444.70" y="411.47" width="6" height="2.38" rx="1.5" fill="#f6465d" /><line x1="458.43" y1="409.09" x2="458.43" y2="450.41" stroke="#f6465d" stroke-width="1.4" /><rect x="455.43" y="413.06" width="6" height="8.74" rx="1.5" fill="#f6465d" /><line x1="469.16" y1="417.03" x2="469.16" y2="440.08" stroke="#f6465d" stroke-width="1.4" /><rect x="466.16" y="421.80" width="6" height="9.54" rx="1.5" fill="#f6465d" /><line x1="479.90" y1="397.17" x2="479.90" y2="435.31" stroke="#0ecb81" stroke-width="1.4" /><rect x="476.90" y="402.73" width="6" height="28.61" rx="1.5" fill="#0ecb81" /><line x1="490.63" y1="386.84" x2="490.63" y2="409.88" stroke="#0ecb81" stroke-width="1.4" /><rect x="487.63" y="396.37" width="6" height="7.15" rx="1.5" fill="#0ecb81" /><line x1="501.37" y1="393.19" x2="501.37" y2="413.06" stroke="#f6465d" stroke-width="1.4" /><rect x="498.37" y="397.17" width="6" height="11.92" rx="1.5" fill="#f6465d" /><line x1="512.10" y1="405.91" x2="512.10" y2="426.57" stroke="#f6465d" stroke-width="1.4" /><rect x="509.10" y="409.09" width="6" height="10.33" rx="1.5" fill="#f6465d" /><line x1="522.84" y1="413.86" x2="522.84" y2="424.19" stroke="#f6465d" stroke-width="1.4" /><rect x="519.84" y="419.42" width="6" height="2.00" rx="1.5" fill="#f6465d" /><line x1="533.57" y1="393.19" x2="533.57" y2="420.21" stroke="#0ecb81" stroke-width="1.4" /><rect x="530.57" y="406.70" width="6" height="12.71" rx="1.5" fill="#0ecb81" /><line x1="544.30" y1="403.52" x2="544.30" y2="414.65" stroke="#f6465d" stroke-width="1.4" /><rect x="541.30" y="406.70" width="6" height="4.77" rx="1.5" fill="#f6465d" /><line x1="555.04" y1="410.68" x2="555.04" y2="422.60" stroke="#f6465d" stroke-width="1.4" /><rect x="552.04" y="410.68" width="6" height="7.95" rx="1.5" fill="#f6465d" /><line x1="565.77" y1="327.24" x2="565.77" y2="417.83" stroke="#0ecb81" stroke-width="1.4" /><rect x="562.77" y="356.64" width="6" height="61.19" rx="1.5" fill="#0ecb81" /><line x1="576.51" y1="268.43" x2="576.51" y2="361.41" stroke="#0ecb81" stroke-width="1.4" /><rect x="573.51" y="311.34" width="6" height="46.09" rx="1.5" fill="#0ecb81" /><line x1="587.24" y1="292.27" x2="587.24" y2="334.39" stroke="#f6465d" stroke-width="1.4" /><rect x="584.24" y="311.34" width="6" height="16.69" rx="1.5" fill="#f6465d" /><line x1="597.97" y1="311.34" x2="597.97" y2="357.43" stroke="#f6465d" stroke-width="1.4" /><rect x="594.97" y="328.03" width="6" height="14.30" rx="1.5" fill="#f6465d" /><line x1="608.71" y1="339.95" x2="608.71" y2="362.20" stroke="#f6465d" stroke-width="1.4" /><rect x="605.71" y="341.54" width="6" height="7.95" rx="1.5" fill="#f6465d" /><line x1="619.44" y1="343.92" x2="619.44" y2="365.38" stroke="#f6465d" stroke-width="1.4" /><rect x="616.44" y="348.69" width="6" height="8.74" rx="1.5" fill="#f6465d" /><line x1="630.18" y1="353.46" x2="630.18" y2="385.25" stroke="#f6465d" stroke-width="1.4" /><rect x="627.18" y="357.43" width="6" height="11.92" rx="1.5" fill="#f6465d" /><line x1="640.91" y1="344.72" x2="640.91" y2="374.12" stroke="#0ecb81" stroke-width="1.4" /><rect x="637.91" y="363.00" width="6" height="6.36" rx="1.5" fill="#0ecb81" /><line x1="651.65" y1="336.77" x2="651.65" y2="365.38" stroke="#0ecb81" stroke-width="1.4" /><rect x="648.65" y="343.13" width="6" height="19.87" rx="1.5" fill="#0ecb81" /><line x1="662.38" y1="337.57" x2="662.38" y2="354.25" stroke="#0ecb81" stroke-width="1.4" /><rect x="659.38" y="340.75" width="6" height="3.18" rx="1.5" fill="#0ecb81" /><line x1="673.11" y1="324.69" x2="673.11" y2="344.64" stroke="#0ecb81" stroke-width="1.4" /><rect x="670.11" y="330.97" width="6" height="8.98" rx="1.5" fill="#0ecb81" /><line x1="683.85" y1="327.24" x2="683.85" y2="371.82" stroke="#f6465d" stroke-width="1.4" /><rect x="680.85" y="330.89" width="6" height="30.04" rx="1.5" fill="#f6465d" /><line x1="694.58" y1="352.19" x2="694.58" y2="371.42" stroke="#0ecb81" stroke-width="1.4" /><rect x="691.58" y="361.01" width="6" height="2.00" rx="1.5" fill="#0ecb81" /><line x1="705.32" y1="347.42" x2="705.32" y2="368.72" stroke="#0ecb81" stroke-width="1.4" /><rect x="702.32" y="354.18" width="6" height="6.83" rx="1.5" fill="#0ecb81" /><line x1="716.05" y1="298.79" x2="716.05" y2="385.80" stroke="#0ecb81" stroke-width="1.4" /><rect x="713.05" y="331.92" width="6" height="22.25" rx="1.5" fill="#0ecb81" /><line x1="726.78" y1="304.75" x2="726.78" y2="341.30" stroke="#0ecb81" stroke-width="1.4" /><rect x="723.78" y="306.49" width="6" height="25.43" rx="1.5" fill="#0ecb81" /><line x1="737.52" y1="304.59" x2="737.52" y2="343.84" stroke="#f6465d" stroke-width="1.4" /><rect x="734.52" y="306.73" width="6" height="24.71" rx="1.5" fill="#f6465d" /><line x1="748.25" y1="289.49" x2="748.25" y2="332.88" stroke="#0ecb81" stroke-width="1.4" /><rect x="745.25" y="291.00" width="6" height="40.45" rx="1.5" fill="#0ecb81" /><line x1="758.99" y1="255.72" x2="758.99" y2="343.45" stroke="#f6465d" stroke-width="1.4" /><rect x="755.99" y="290.84" width="6" height="32.66" rx="1.5" fill="#f6465d" /><line x1="769.72" y1="322.39" x2="769.72" y2="338.76" stroke="#f6465d" stroke-width="1.4" /><rect x="766.72" y="323.50" width="6" height="13.11" rx="1.5" fill="#f6465d" /><line x1="780.46" y1="334.86" x2="780.46" y2="363.79" stroke="#f6465d" stroke-width="1.4" /><rect x="777.46" y="336.53" width="6" height="21.22" rx="1.5" fill="#f6465d" /><line x1="791.19" y1="331.53" x2="791.19" y2="364.51" stroke="#0ecb81" stroke-width="1.4" /><rect x="788.19" y="354.65" width="6" height="3.18" rx="1.5" fill="#0ecb81" /><line x1="801.92" y1="348.14" x2="801.92" y2="360.53" stroke="#0ecb81" stroke-width="1.4" /><rect x="798.92" y="353.30" width="6" height="2.00" rx="1.5" fill="#0ecb81" /><line x1="812.66" y1="349.73" x2="812.66" y2="365.70" stroke="#f6465d" stroke-width="1.4" /><rect x="809.66" y="353.22" width="6" height="4.53" rx="1.5" fill="#f6465d" /><line x1="823.39" y1="347.18" x2="823.39" y2="361.17" stroke="#0ecb81" stroke-width="1.4" /><rect x="820.39" y="351.87" width="6" height="5.88" rx="1.5" fill="#0ecb81" /><line x1="834.13" y1="343.77" x2="834.13" y2="360.69" stroke="#f6465d" stroke-width="1.4" /><rect x="831.13" y="351.95" width="6" height="5.80" rx="1.5" fill="#f6465d" /><line x1="844.86" y1="352.67" x2="844.86" y2="359.02" stroke="#0ecb81" stroke-width="1.4" /><rect x="841.86" y="354.49" width="6" height="3.18" rx="1.5" fill="#0ecb81" /><line x1="855.59" y1="339.47" x2="855.59" y2="358.71" stroke="#0ecb81" stroke-width="1.4" /><rect x="852.59" y="350.20" width="6" height="4.29" rx="1.5" fill="#0ecb81" /><line x1="866.33" y1="344.00" x2="866.33" y2="357.20" stroke="#0ecb81" stroke-width="1.4" /><rect x="863.33" y="348.37" width="6" height="2.00" rx="1.5" fill="#0ecb81" /><line x1="877.06" y1="283.61" x2="877.06" y2="348.77" stroke="#0ecb81" stroke-width="1.4" /><rect x="874.06" y="309.75" width="6" height="38.54" rx="1.5" fill="#0ecb81" /><line x1="887.80" y1="66.26" x2="887.80" y2="328.03" stroke="#0ecb81" stroke-width="1.4" /><rect x="884.80" y="160.99" width="6" height="148.84" rx="1.5" fill="#0ecb81" /><line x1="898.53" y1="58.00" x2="898.53" y2="186.82" stroke="#0ecb81" stroke-width="1.4" /><rect x="895.53" y="147.48" width="6" height="12.95" rx="1.5" fill="#0ecb81" /><line x1="909.27" y1="128.81" x2="909.27" y2="212.01" stroke="#f6465d" stroke-width="1.4" /><rect x="906.27" y="147.96" width="6" height="7.47" rx="1.5" fill="#f6465d" /><line x1="920.00" y1="137.94" x2="920.00" y2="226.31" stroke="#f6465d" stroke-width="1.4" /><rect x="917.00" y="155.43" width="6" height="5.24" rx="1.5" fill="#f6465d" />
  <polyline points="576.51,268.43 630.18,385.25 673.11,324.69 716.05,385.80 758.99,255.72" fill="none" stroke="#2fc273" stroke-width="4" stroke-linecap="round" stroke-linejoin="round" />
  <circle cx="576.51" cy="268.43" r="5.5" fill="#2fc273" fill-opacity="0.15" stroke="#2fc273" stroke-width="2" /><text x="576.51" y="256.43" fill="#f3f4f6" font-size="15" font-weight="700" text-anchor="middle">X</text><circle cx="630.18" cy="385.25" r="5.5" fill="#2fc273" fill-opacity="0.15" stroke="#2fc273" stroke-width="2" /><text x="630.18" y="373.25" fill="#f3f4f6" font-size="15" font-weight="700" text-anchor="middle">A</text><circle cx="673.11" cy="324.69" r="5.5" fill="#2fc273" fill-opacity="0.15" stroke="#2fc273" stroke-width="2" /><text x="673.11" y="312.69" fill="#f3f4f6" font-size="15" font-weight="700" text-anchor="middle">B</text><circle cx="716.05" cy="385.80" r="5.5" fill="#2fc273" fill-opacity="0.15" stroke="#2fc273" stroke-width="2" /><text x="716.05" y="373.80" fill="#f3f4f6" font-size="15" font-weight="700" text-anchor="middle">C</text><circle cx="758.99" cy="255.72" r="5.5" fill="#2fc273" fill-opacity="0.15" stroke="#2fc273" stroke-width="2" /><text x="758.99" y="243.72" fill="#f3f4f6" font-size="15" font-weight="700" text-anchor="middle">D</text>
  <text x="56" y="492" fill="#8ba0b5" font-size="18">실시간 터치 · TP1 0.006375 · TP2 0.005988 · SL 0.007191</text>
</svg>
