<svg xmlns="http://www.w3.org/2000/svg" width="960" height="540" viewBox="0 0 960 540">
  <rect width="960" height="540" rx="24" fill="#0b1220" />
  <rect x="28" y="28" width="904" height="484" rx="22" fill="#111827" stroke="#1f2937" />
  <text x="56" y="74" fill="#f3f4f6" font-size="34" font-weight="700">COTIUSDT · AB=CD</text>
  <text x="904" y="74" fill="#8ba0b5" font-size="20" text-anchor="end">Bearish (매도) · Score 73.7</text>
  <line x1="72" y1="58" x2="920" y2="58" stroke="#223045" stroke-width="1" stroke-dasharray="4 8" /><line x1="72" y1="156" x2="920" y2="156" stroke="#223045" stroke-width="1" stroke-dasharray="4 8" /><line x1="72" y1="255" x2="920" y2="255" stroke="#223045" stroke-width="1" stroke-dasharray="4 8" /><line x1="72" y1="353" x2="920" y2="353" stroke="#223045" stroke-width="1" stroke-dasharray="4 8" /><line x1="72" y1="452" x2="920" y2="452" stroke="#223045" stroke-width="1" stroke-dasharray="4 8" />
  <rect x="698.78" y="316.45" width="84" height="60.00" fill="#fbbf24" fill-opacity="0.12" stroke="#fbbf24" stroke-width="1.5" stroke-dasharray="6 6" />
  <line x1="72.00" y1="99.43" x2="72.00" y2="217.42" stroke="#0ecb81" stroke-width="1.4" /><rect x="69.00" y="123.24" width="6" height="86.71" rx="1.5" fill="#0ecb81" /><line x1="82.73" y1="58.00" x2="82.73" y2="150.45" stroke="#f6465d" stroke-width="1.4" /><rect x="79.73" y="123.24" width="6" height="23.31" rx="1.5" fill="#f6465d" /><line x1="93.47" y1="103.00" x2="93.47" y2="159.04" stroke="#0ecb81" stroke-width="1.4" /><rect x="90.47" y="127.20" width="6" height="19.52" rx="1.5" fill="#0ecb81" /><line x1="104.20" y1="115.54" x2="104.20" y2="171.47" stroke="#f6465d" stroke-width="1.4" /><rect x="101.20" y="127.14" width="6" height="39.14" rx="1.5" fill="#f6465d" /><line x1="114.94" y1="144.32" x2="114.94" y2="181.17" stroke="#f6465d" stroke-width="1.4" /><rect x="111.94" y="166.29" width="6" height="7.19" rx="1.5" fill="#f6465d" /><line x1="125.67" y1="166.95" x2="125.67" y2="201.80" stroke="#f6465d" stroke-width="1.4" /><rect x="122.67" y="173.48" width="6" height="20.13" rx="1.5" fill="#f6465d" /><line x1="136.41" y1="193.55" x2="136.41" y2="242.51" stroke="#f6465d" stroke-width="1.4" /><rect x="133.41" y="193.66" width="6" height="36.69" rx="1.5" fill="#f6465d" /><line x1="147.14" y1="214.96" x2="147.14" y2="243.62" stroke="#0ecb81" stroke-width="1.4" /><rect x="144.14" y="226.12" width="6" height="4.24" rx="1.5" fill="#0ecb81" /><line x1="157.87" y1="220.99" x2="157.87" y2="261.58" stroke="#f6465d" stroke-width="1.4" /><rect x="154.87" y="226.23" width="6" height="24.92" rx="1.5" fill="#f6465d" /><line x1="168.61" y1="248.64" x2="168.61" y2="273.07" stroke="#f6465d" stroke-width="1.4" /><rect x="165.61" y="251.26" width="6" height="9.31" rx="1.5" fill="#f6465d" /><line x1="179.34" y1="245.74" x2="179.34" y2="278.08" stroke="#f6465d" stroke-width="1.4" /><rect x="176.34" y="260.58" width="6" height="14.78" rx="1.5" fill="#f6465d" /><line x1="190.08" y1="233.09" x2="190.08" y2="278.75" stroke="#0ecb81" stroke-width="1.4" /><rect x="187.08" y="237.49" width="6" height="37.86" rx="1.5" fill="#0ecb81" /><line x1="200.81" y1="235.04" x2="200.81" y2="286.50" stroke="#f6465d" stroke-width="1.4" /><rect x="197.81" y="237.38" width="6" height="41.43" rx="1.5" fill="#f6465d" /><line x1="211.54" y1="259.13" x2="211.54" y2="281.26" stroke="#0ecb81" stroke-width="1.4" /><rect x="208.54" y="270.39" width="6" height="8.48" rx="1.5" fill="#0ecb81" /><line x1="222.28" y1="265.04" x2="222.28" y2="275.91" stroke="#f6465d" stroke-width="1.4" /><rect x="219.28" y="270.39" width="6" height="2.00" rx="1.5" fill="#f6465d" /><line x1="233.01" y1="268.66" x2="233.01" y2="284.33" stroke="#f6465d" stroke-width="1.4" /><rect x="230.01" y="270.39" width="6" height="3.46" rx="1.5" fill="#f6465d" /><line x1="243.75" y1="271.34" x2="243.75" y2="295.37" stroke="#f6465d" stroke-width="1.4" /><rect x="240.75" y="273.85" width="6" height="15.17" rx="1.5" fill="#f6465d" /><line x1="254.48" y1="276.02" x2="254.48" y2="311.04" stroke="#f6465d" stroke-width="1.4" /><rect x="251.48" y="288.85" width="6" height="9.70" rx="1.5" fill="#f6465d" /><line x1="265.22" y1="262.03" x2="265.22" y2="321.97" stroke="#0ecb81" stroke-width="1.4" /><rect x="262.22" y="264.70" width="6" height="33.85" rx="1.5" fill="#0ecb81" /><line x1="275.95" y1="242.90" x2="275.95" y2="298.55" stroke="#f6465d" stroke-width="1.4" /><rect x="272.95" y="264.42" width="6" height="27.99" rx="1.5" fill="#f6465d" /><line x1="286.68" y1="263.48" x2="286.68" y2="297.27" stroke="#0ecb81" stroke-width="1.4" /><rect x="283.68" y="273.46" width="6" height="18.96" rx="1.5" fill="#0ecb81" /><line x1="297.42" y1="261.97" x2="297.42" y2="296.82" stroke="#f6465d" stroke-width="1.4" /><rect x="294.42" y="273.46" width="6" height="19.18" rx="1.5" fill="#f6465d" /><line x1="308.15" y1="291.41" x2="308.15" y2="312.15" stroke="#f6465d" stroke-width="1.4" /><rect x="305.15" y="292.69" width="6" height="15.84" rx="1.5" fill="#f6465d" /><line x1="318.89" y1="296.37" x2="318.89" y2="343.71" stroke="#f6465d" stroke-width="1.4" /><rect x="315.89" y="308.64" width="6" height="29.16" rx="1.5" fill="#f6465d" /><line x1="329.62" y1="311.43" x2="329.62" y2="350.02" stroke="#0ecb81" stroke-width="1.4" /><rect x="326.62" y="325.98" width="6" height="11.88" rx="1.5" fill="#0ecb81" /><line x1="340.35" y1="308.14" x2="340.35" y2="337.86" stroke="#f6465d" stroke-width="1.4" /><rect x="337.35" y="325.93" width="6" height="6.25" rx="1.5" fill="#f6465d" /><line x1="351.09" y1="314.38" x2="351.09" y2="342.04" stroke="#0ecb81" stroke-width="1.4" /><rect x="348.09" y="317.12" width="6" height="15.17" rx="1.5" fill="#0ecb81" /><line x1="361.82" y1="307.14" x2="361.82" y2="331.34" stroke="#f6465d" stroke-width="1.4" /><rect x="358.82" y="317.01" width="6" height="9.81" rx="1.5" fill="#f6465d" /><line x1="372.56" y1="323.08" x2="372.56" y2="344.89" stroke="#f6465d" stroke-width="1.4" /><rect x="369.56" y="326.82" width="6" height="7.19" rx="1.5" fill="#f6465d" /><line x1="383.29" y1="330.83" x2="383.29" y2="349.35" stroke="#f6465d" stroke-width="1.4" /><rect x="380.29" y="333.90" width="6" height="5.13" rx="1.5" fill="#f6465d" /><line x1="394.03" y1="333.68" x2="394.03" y2="372.93" stroke="#f6465d" stroke-width="1.4" /><rect x="391.03" y="339.03" width="6" height="30.84" rx="1.5" fill="#f6465d" /><line x1="404.76" y1="363.17" x2="404.76" y2="387.37" stroke="#f6465d" stroke-width="1.4" /><rect x="401.76" y="369.87" width="6" height="7.47" rx="1.5" fill="#f6465d" /><line x1="415.49" y1="373.71" x2="415.49" y2="393.34" stroke="#f6465d" stroke-width="1.4" /><rect x="412.49" y="377.34" width="6" height="12.16" rx="1.5" fill="#f6465d" /><line x1="426.23" y1="384.14" x2="426.23" y2="400.31" stroke="#f6465d" stroke-width="1.4" /><rect x="423.23" y="389.49" width="6" height="3.62" rx="1.5" fill="#f6465d" /><line x1="436.96" y1="385.92" x2="436.96" y2="419.05" stroke="#f6465d" stroke-width="1.4" /><rect x="433.96" y="393.12" width="6" height="21.69" rx="1.5" fill="#f6465d" /><line x1="447.70" y1="396.02" x2="447.70" y2="419.38" stroke="#0ecb81" stroke-width="1.4" /><rect x="444.70" y="414.08" width="6" height="2.00" rx="1.5" fill="#0ecb81" /><line x1="458.43" y1="410.96" x2="458.43" y2="446.31" stroke="#f6465d" stroke-width="1.4" /><rect x="455.43" y="414.08" width="6" height="30.95" rx="1.5" fill="#f6465d" /><line x1="469.16" y1="429.97" x2="469.16" y2="451.50" stroke="#0ecb81" stroke-width="1.4" /><rect x="466.16" y="444.86" width="6" height="2.00" rx="1.5" fill="#0ecb81" /><line x1="479.90" y1="440.29" x2="479.90" y2="452.00" stroke="#f6465d" stroke-width="1.4" /><rect x="476.90" y="444.92" width="6" height="2.00" rx="1.5" fill="#f6465d" /><line x1="490.63" y1="187.95" x2="490.63" y2="445.53" stroke="#0ecb81" stroke-width="1.4" /><rect x="487.63" y="257.29" width="6" height="188.02" rx="1.5" fill="#0ecb81" /><line x1="501.37" y1="243.12" x2="501.37" y2="298.94" stroke="#f6465d" stroke-width="1.4" /><rect x="498.37" y="257.17" width="6" height="30.50" rx="1.5" fill="#f6465d" /><line x1="512.10" y1="229.24" x2="512.10" y2="291.47" stroke="#0ecb81" stroke-width="1.4" /><rect x="509.10" y="249.54" width="6" height="38.03" rx="1.5" fill="#0ecb81" /><line x1="522.84" y1="237.21" x2="522.84" y2="375.39" stroke="#f6465d" stroke-width="1.4" /><rect x="519.84" y="249.65" width="6" height="122.56" rx="1.5" fill="#f6465d" /><line x1="533.57" y1="314.72" x2="533.57" y2="390.11" stroke="#0ecb81" stroke-width="1.4" /><rect x="530.57" y="318.68" width="6" height="53.59" rx="1.5" fill="#0ecb81" /><line x1="544.30" y1="257.29" x2="544.30" y2="348.40" stroke="#0ecb81" stroke-width="1.4" /><rect x="541.30" y="284.16" width="6" height="34.46" rx="1.5" fill="#0ecb81" /><line x1="555.04" y1="251.54" x2="555.04" y2="355.48" stroke="#f6465d" stroke-width="1.4" /><rect x="552.04" y="284.11" width="6" height="60.00" rx="1.5" fill="#f6465d" /><line x1="565.77" y1="339.42" x2="565.77" y2="362.39" stroke="#f6465d" stroke-width="1.4" /><rect x="562.77" y="344.16" width="6" height="9.53" rx="1.5" fill="#f6465d" /><line x1="576.51" y1="346.33" x2="576.51" y2="373.27" stroke="#f6465d" stroke-width="1.4" /><rect x="573.51" y="353.64" width="6" height="14.55" rx="1.5" fill="#f6465d" /><line x1="587.24" y1="327.26" x2="587.24" y2="376.05" stroke="#0ecb81" stroke-width="1.4" /><rect x="584.24" y="346.39" width="6" height="21.80" rx="1.5" fill="#0ecb81" /><line x1="597.97" y1="316.50" x2="597.97" y2="355.93" stroke="#0ecb81" stroke-width="1.4" /><rect x="594.97" y="338.19" width="6" height="8.14" rx="1.5" fill="#0ecb81" /><line x1="608.71" y1="332.79" x2="608.71" y2="358.55" stroke="#f6465d" stroke-width="1.4" /><rect x="605.71" y="338.14" width="6" height="3.23" rx="1.5" fill="#f6465d" /><line x1="619.44" y1="340.54" x2="619.44" y2="371.48" stroke="#f6465d" stroke-width="1.4" /><rect x="616.44" y="341.32" width="6" height="27.77" rx="1.5" fill="#f6465d" /><line x1="630.18" y1="362.95" x2="630.18" y2="384.14" stroke="#f6465d" stroke-width="1.4" /><rect x="627.18" y="369.08" width="6" height="7.86" rx="1.5" fill="#f6465d" /><line x1="640.91" y1="371.37" x2="640.91" y2="392.11" stroke="#f6465d" stroke-width="1.4" /><rect x="637.91" y="376.95" width="6" height="12.60" rx="1.5" fill="#f6465d" /><line x1="651.65" y1="380.74" x2="651.65" y2="402.43" stroke="#f6465d" stroke-width="1.4" /><rect x="648.65" y="389.55" width="6" height="10.54" rx="1.5" fill="#f6465d" /><line x1="662.38" y1="366.69" x2="662.38" y2="409.68" stroke="#0ecb81" stroke-width="1.4" /><rect x="659.38" y="378.90" width="6" height="21.19" rx="1.5" fill="#0ecb81" /><line x1="673.11" y1="365.18" x2="673.11" y2="382.63" stroke="#0ecb81" stroke-width="1.4" /><rect x="670.11" y="373.60" width="6" height="5.02" rx="1.5" fill="#0ecb81" /><line x1="683.85" y1="368.58" x2="683.85" y2="400.03" stroke="#f6465d" stroke-width="1.4" /><rect x="680.85" y="373.55" width="6" height="23.14" rx="1.5" fill="#f6465d" /><line x1="694.58" y1="382.91" x2="694.58" y2="401.09" stroke="#0ecb81" stroke-width="1.4" /><rect x="691.58" y="387.49" width="6" height="9.26" rx="1.5" fill="#0ecb81" /><line x1="705.32" y1="369.92" x2="705.32" y2="393.62" stroke="#f6465d" stroke-width="1.4" /><rect x="702.32" y="387.43" width="6" height="2.00" rx="1.5" fill="#f6465d" /><line x1="716.05" y1="387.71" x2="716.05" y2="420.94" stroke="#f6465d" stroke-width="1.4" /><rect x="713.05" y="387.88" width="6" height="19.24" rx="1.5" fill="#f6465d" /><line x1="726.78" y1="319.57" x2="726.78" y2="408.84" stroke="#0ecb81" stroke-width="1.4" /><rect x="723.78" y="392.11" width="6" height="15.00" rx="1.5" fill="#0ecb81" /><line x1="737.52" y1="368.25" x2="737.52" y2="394.18" stroke="#0ecb81" stroke-width="1.4" /><rect x="734.52" y="375.83" width="6" height="16.23" rx="1.5" fill="#0ecb81" /><line x1="748.25" y1="365.68" x2="748.25" y2="388.60" stroke="#f6465d" stroke-width="1.4" /><rect x="745.25" y="375.89" width="6" height="6.97" rx="1.5" fill="#f6465d" /><line x1="758.99" y1="379.01" x2="758.99" y2="398.58" stroke="#f6465d" stroke-width="1.4" /><rect x="755.99" y="382.86" width="6" height="14.22" rx="1.5" fill="#f6465d" /><line x1="769.72" y1="392.50" x2="769.72" y2="401.26" stroke="#f6465d" stroke-width="1.4" /><rect x="766.72" y="396.96" width="6" height="2.00" rx="1.5" fill="#f6465d" /><line x1="780.46" y1="394.12" x2="780.46" y2="406.11" stroke="#f6465d" stroke-width="1.4" /><rect x="777.46" y="397.63" width="6" height="2.40" rx="1.5" fill="#f6465d" /><line x1="791.19" y1="383.97" x2="791.19" y2="411.41" stroke="#0ecb81" stroke-width="1.4" /><rect x="788.19" y="384.36" width="6" height="15.67" rx="1.5" fill="#0ecb81" /><line x1="801.92" y1="368.14" x2="801.92" y2="403.66" stroke="#f6465d" stroke-width="1.4" /><rect x="798.92" y="384.31" width="6" height="14.22" rx="1.5" fill="#f6465d" /><line x1="812.66" y1="398.53" x2="812.66" y2="409.51" stroke="#f6465d" stroke-width="1.4" /><rect x="809.66" y="398.64" width="6" height="9.14" rx="1.5" fill="#f6465d" /><line x1="823.39" y1="401.48" x2="823.39" y2="412.47" stroke="#f6465d" stroke-width="1.4" /><rect x="820.39" y="407.78" width="6" height="3.46" rx="1.5" fill="#f6465d" /><line x1="834.13" y1="402.76" x2="834.13" y2="417.82" stroke="#0ecb81" stroke-width="1.4" /><rect x="831.13" y="405.94" width="6" height="5.35" rx="1.5" fill="#0ecb81" /><line x1="844.86" y1="402.04" x2="844.86" y2="416.26" stroke="#f6465d" stroke-width="1.4" /><rect x="841.86" y="405.89" width="6" height="2.00" rx="1.5" fill="#f6465d" /><line x1="855.59" y1="405.89" x2="855.59" y2="420.55" stroke="#f6465d" stroke-width="1.4" /><rect x="852.59" y="407.39" width="6" height="11.32" rx="1.5" fill="#f6465d" /><line x1="866.33" y1="393.73" x2="866.33" y2="423.06" stroke="#f6465d" stroke-width="1.4" /><rect x="863.33" y="418.71" width="6" height="2.00" rx="1.5" fill="#f6465d" /><line x1="877.06" y1="413.47" x2="877.06" y2="425.74" stroke="#f6465d" stroke-width="1.4" /><rect x="874.06" y="418.77" width="6" height="2.00" rx="1.5" fill="#f6465d" /><line x1="887.80" y1="416.87" x2="887.80" y2="434.32" stroke="#f6465d" stroke-width="1.4" /><rect x="884.80" y="420.44" width="6" height="11.26" rx="1.5" fill="#f6465d" /><line x1="898.53" y1="427.52" x2="898.53" y2="438.73" stroke="#f6465d" stroke-width="1.4" /><rect x="895.53" y="431.70" width="6" height="3.68" rx="1.5" fill="#f6465d" /><line x1="909.27" y1="416.82" x2="909.27" y2="442.19" stroke="#0ecb81" stroke-width="1.4" /><rect x="906.27" y="418.43" width="6" height="16.90" rx="1.5" fill="#0ecb81" /><line x1="920.00" y1="418.04" x2="920.00" y2="426.96" stroke="#f6465d" stroke-width="1.4" /><rect x="917.00" y="418.43" width="6" height="8.36" rx="1.5" fill="#f6465d" />
  <polyline points="597.97,316.50 662.38,409.68 673.11,365.18 716.05,420.94 726.78,319.57" fill="none" stroke="#2fc273" stroke-width="4" stroke-linecap="round" stroke-linejoin="round" />
  <circle cx="597.97" cy="316.50" r="5.5" fill="#2fc273" fill-opacity="0.15" stroke="#2fc273" stroke-width="2" /><text x="597.97" y="304.50" fill="#f3f4f6" font-size="15" font-weight="700" text-anchor="middle">X</text><circle cx="662.38" cy="409.68" r="5.5" fill="#2fc273" fill-opacity="0.15" stroke="#2fc273" stroke-width="2" /><text x="662.38" y="397.68" fill="#f3f4f6" font-size="15" font-weight="700" text-anchor="middle">A</text><circle cx="673.11" cy="365.18" r="5.5" fill="#2fc273" fill-opacity="0.15" stroke="#2fc273" stroke-width="2" /><text x="673.11" y="353.18" fill="#f3f4f6" font-size="15" font-weight="700" text-anchor="middle">B</text><circle cx="716.05" cy="420.94" r="5.5" fill="#2fc273" fill-opacity="0.15" stroke="#2fc273" stroke-width="2" /><text x="716.05" y="408.94" fill="#f3f4f6" font-size="15" font-weight="700" text-anchor="middle">C</text><circle cx="726.78" cy="319.57" r="5.5" fill="#2fc273" fill-opacity="0.15" stroke="#2fc273" stroke-width="2" /><text x="726.78" y="307.57" fill="#f3f4f6" font-size="15" font-weight="700" text-anchor="middle">D</text>
  <text x="56" y="492" fill="#8ba0b5" font-size="18">Complete · TP1 0.010974 · TP2 0.010544 · SL 0.011885</text>
</svg>
