<svg xmlns="http://www.w3.org/2000/svg" width="960" height="540" viewBox="0 0 960 540">
  <rect width="960" height="540" rx="24" fill="#0b1220" />
  <rect x="28" y="28" width="904" height="484" rx="22" fill="#111827" stroke="#1f2937" />
  <text x="56" y="74" fill="#f3f4f6" font-size="34" font-weight="700">DASHUSDT · AB=CD</text>
  <text x="904" y="74" fill="#8ba0b5" font-size="20" text-anchor="end">Bearish (매도) · Score 85.5</text>
  <line x1="72" y1="58" x2="920" y2="58" stroke="#223045" stroke-width="1" stroke-dasharray="4 8" /><line x1="72" y1="156" x2="920" y2="156" stroke="#223045" stroke-width="1" stroke-dasharray="4 8" /><line x1="72" y1="255" x2="920" y2="255" stroke="#223045" stroke-width="1" stroke-dasharray="4 8" /><line x1="72" y1="353" x2="920" y2="353" stroke="#223045" stroke-width="1" stroke-dasharray="4 8" /><line x1="72" y1="452" x2="920" y2="452" stroke="#223045" stroke-width="1" stroke-dasharray="4 8" />
  <rect x="859.80" y="299.27" width="84" height="44.41" fill="#fbbf24" fill-opacity="0.12" stroke="#fbbf24" stroke-width="1.5" stroke-dasharray="6 6" />
  <line x1="72.00" y1="93.20" x2="72.00" y2="219.80" stroke="#0ecb81" stroke-width="1.4" /><rect x="69.00" y="132.47" width="6" height="63.64" rx="1.5" fill="#0ecb81" /><line x1="82.73" y1="71.54" x2="82.73" y2="149.39" stroke="#f6465d" stroke-width="1.4" /><rect x="79.73" y="131.79" width="6" height="3.38" rx="1.5" fill="#f6465d" /><line x1="93.47" y1="83.73" x2="93.47" y2="155.48" stroke="#0ecb81" stroke-width="1.4" /><rect x="90.47" y="126.37" width="6" height="8.12" rx="1.5" fill="#0ecb81" /><line x1="104.20" y1="93.88" x2="104.20" y2="137.21" stroke="#0ecb81" stroke-width="1.4" /><rect x="101.20" y="99.30" width="6" height="26.40" rx="1.5" fill="#0ecb81" /><line x1="114.94" y1="73.57" x2="114.94" y2="120.96" stroke="#0ecb81" stroke-width="1.4" /><rect x="111.94" y="76.28" width="6" height="22.34" rx="1.5" fill="#0ecb81" /><line x1="125.67" y1="58.00" x2="125.67" y2="145.33" stroke="#f6465d" stroke-width="1.4" /><rect x="122.67" y="76.96" width="6" height="48.07" rx="1.5" fill="#f6465d" /><line x1="136.41" y1="93.20" x2="136.41" y2="132.47" stroke="#0ecb81" stroke-width="1.4" /><rect x="133.41" y="114.87" width="6" height="10.15" rx="1.5" fill="#0ecb81" /><line x1="147.14" y1="112.84" x2="147.14" y2="168.35" stroke="#f6465d" stroke-width="1.4" /><rect x="144.14" y="114.87" width="6" height="18.96" rx="1.5" fill="#f6465d" /><line x1="157.87" y1="110.13" x2="157.87" y2="143.30" stroke="#f6465d" stroke-width="1.4" /><rect x="154.87" y="134.50" width="6" height="2.00" rx="1.5" fill="#f6465d" /><line x1="168.61" y1="83.05" x2="168.61" y2="135.18" stroke="#0ecb81" stroke-width="1.4" /><rect x="165.61" y="109.45" width="6" height="25.73" rx="1.5" fill="#0ecb81" /><line x1="179.34" y1="64.09" x2="179.34" y2="112.16" stroke="#0ecb81" stroke-width="1.4" /><rect x="176.34" y="89.14" width="6" height="20.31" rx="1.5" fill="#0ecb81" /><line x1="190.08" y1="78.31" x2="190.08" y2="128.41" stroke="#f6465d" stroke-width="1.4" /><rect x="187.08" y="89.14" width="6" height="35.88" rx="1.5" fill="#f6465d" /><line x1="200.81" y1="99.97" x2="200.81" y2="129.08" stroke="#0ecb81" stroke-width="1.4" /><rect x="197.81" y="115.54" width="6" height="9.48" rx="1.5" fill="#0ecb81" /><line x1="211.54" y1="106.74" x2="211.54" y2="145.33" stroke="#f6465d" stroke-width="1.4" /><rect x="208.54" y="115.54" width="6" height="20.99" rx="1.5" fill="#f6465d" /><line x1="222.28" y1="114.87" x2="222.28" y2="148.71" stroke="#f6465d" stroke-width="1.4" /><rect x="219.28" y="136.53" width="6" height="4.74" rx="1.5" fill="#f6465d" /><line x1="233.01" y1="121.64" x2="233.01" y2="158.19" stroke="#0ecb81" stroke-width="1.4" /><rect x="230.01" y="124.34" width="6" height="16.92" rx="1.5" fill="#0ecb81" /><line x1="243.75" y1="102.68" x2="243.75" y2="138.56" stroke="#f6465d" stroke-width="1.4" /><rect x="240.75" y="123.67" width="6" height="8.12" rx="1.5" fill="#f6465d" /><line x1="254.48" y1="127.73" x2="254.48" y2="190.69" stroke="#f6465d" stroke-width="1.4" /><rect x="251.48" y="131.11" width="6" height="49.42" rx="1.5" fill="#f6465d" /><line x1="265.22" y1="178.50" x2="265.22" y2="223.18" stroke="#f6465d" stroke-width="1.4" /><rect x="262.22" y="180.53" width="6" height="40.62" rx="1.5" fill="#f6465d" /><line x1="275.95" y1="182.56" x2="275.95" y2="233.34" stroke="#f6465d" stroke-width="1.4" /><rect x="272.95" y="221.15" width="6" height="4.06" rx="1.5" fill="#f6465d" /><line x1="286.68" y1="215.06" x2="286.68" y2="267.86" stroke="#f6465d" stroke-width="1.4" /><rect x="283.68" y="225.89" width="6" height="33.17" rx="1.5" fill="#f6465d" /><line x1="297.42" y1="218.44" x2="297.42" y2="269.22" stroke="#0ecb81" stroke-width="1.4" /><rect x="294.42" y="246.88" width="6" height="12.19" rx="1.5" fill="#0ecb81" /><line x1="308.15" y1="215.74" x2="308.15" y2="249.58" stroke="#0ecb81" stroke-width="1.4" /><rect x="305.15" y="234.01" width="6" height="12.86" rx="1.5" fill="#0ecb81" /><line x1="318.89" y1="208.97" x2="318.89" y2="256.35" stroke="#0ecb81" stroke-width="1.4" /><rect x="315.89" y="212.35" width="6" height="21.66" rx="1.5" fill="#0ecb81" /><line x1="329.62" y1="207.61" x2="329.62" y2="303.74" stroke="#f6465d" stroke-width="1.4" /><rect x="326.62" y="213.03" width="6" height="57.54" rx="1.5" fill="#f6465d" /><line x1="340.35" y1="248.91" x2="340.35" y2="293.59" stroke="#f6465d" stroke-width="1.4" /><rect x="337.35" y="270.57" width="6" height="6.09" rx="1.5" fill="#f6465d" /><line x1="351.09" y1="270.57" x2="351.09" y2="299.68" stroke="#0ecb81" stroke-width="1.4" /><rect x="348.09" y="272.60" width="6" height="3.38" rx="1.5" fill="#0ecb81" /><line x1="361.82" y1="269.89" x2="361.82" y2="309.84" stroke="#f6465d" stroke-width="1.4" /><rect x="358.82" y="273.28" width="6" height="16.92" rx="1.5" fill="#f6465d" /><line x1="372.56" y1="286.14" x2="372.56" y2="326.76" stroke="#f6465d" stroke-width="1.4" /><rect x="369.56" y="290.88" width="6" height="23.69" rx="1.5" fill="#f6465d" /><line x1="383.29" y1="274.63" x2="383.29" y2="324.73" stroke="#0ecb81" stroke-width="1.4" /><rect x="380.29" y="275.31" width="6" height="38.59" rx="1.5" fill="#0ecb81" /><line x1="394.03" y1="268.54" x2="394.03" y2="294.26" stroke="#f6465d" stroke-width="1.4" /><rect x="391.03" y="275.31" width="6" height="2.00" rx="1.5" fill="#f6465d" /><line x1="404.76" y1="228.60" x2="404.76" y2="284.79" stroke="#0ecb81" stroke-width="1.4" /><rect x="401.76" y="248.23" width="6" height="27.08" rx="1.5" fill="#0ecb81" /><line x1="415.49" y1="220.47" x2="415.49" y2="253.65" stroke="#0ecb81" stroke-width="1.4" /><rect x="412.49" y="248.23" width="6" height="2.00" rx="1.5" fill="#0ecb81" /><line x1="426.23" y1="240.11" x2="426.23" y2="292.91" stroke="#f6465d" stroke-width="1.4" /><rect x="423.23" y="248.91" width="6" height="38.59" rx="1.5" fill="#f6465d" /><line x1="436.96" y1="242.81" x2="436.96" y2="298.33" stroke="#0ecb81" stroke-width="1.4" /><rect x="433.96" y="251.62" width="6" height="35.88" rx="1.5" fill="#0ecb81" /><line x1="447.70" y1="246.20" x2="447.70" y2="284.11" stroke="#f6465d" stroke-width="1.4" /><rect x="444.70" y="251.62" width="6" height="27.08" rx="1.5" fill="#f6465d" /><line x1="458.43" y1="269.89" x2="458.43" y2="294.26" stroke="#0ecb81" stroke-width="1.4" /><rect x="455.43" y="275.31" width="6" height="4.06" rx="1.5" fill="#0ecb81" /><line x1="469.16" y1="272.60" x2="469.16" y2="298.33" stroke="#f6465d" stroke-width="1.4" /><rect x="466.16" y="275.31" width="6" height="14.22" rx="1.5" fill="#f6465d" /><line x1="479.90" y1="278.02" x2="479.90" y2="299.00" stroke="#f6465d" stroke-width="1.4" /><rect x="476.90" y="289.53" width="6" height="6.09" rx="1.5" fill="#f6465d" /><line x1="490.63" y1="251.62" x2="490.63" y2="345.04" stroke="#0ecb81" stroke-width="1.4" /><rect x="487.63" y="280.05" width="6" height="15.57" rx="1.5" fill="#0ecb81" /><line x1="501.37" y1="223.18" x2="501.37" y2="282.08" stroke="#0ecb81" stroke-width="1.4" /><rect x="498.37" y="238.08" width="6" height="41.30" rx="1.5" fill="#0ecb81" /><line x1="512.10" y1="213.03" x2="512.10" y2="249.58" stroke="#0ecb81" stroke-width="1.4" /><rect x="509.10" y="219.12" width="6" height="18.28" rx="1.5" fill="#0ecb81" /><line x1="522.84" y1="198.81" x2="522.84" y2="229.95" stroke="#0ecb81" stroke-width="1.4" /><rect x="519.84" y="217.77" width="6" height="2.00" rx="1.5" fill="#0ecb81" /><line x1="533.57" y1="209.64" x2="533.57" y2="248.23" stroke="#f6465d" stroke-width="1.4" /><rect x="530.57" y="217.09" width="6" height="19.63" rx="1.5" fill="#f6465d" /><line x1="544.30" y1="232.66" x2="544.30" y2="292.23" stroke="#f6465d" stroke-width="1.4" /><rect x="541.30" y="236.72" width="6" height="42.65" rx="1.5" fill="#f6465d" /><line x1="555.04" y1="229.27" x2="555.04" y2="288.17" stroke="#0ecb81" stroke-width="1.4" /><rect x="552.04" y="264.48" width="6" height="14.89" rx="1.5" fill="#0ecb81" /><line x1="565.77" y1="175.79" x2="565.77" y2="268.54" stroke="#0ecb81" stroke-width="1.4" /><rect x="562.77" y="217.09" width="6" height="46.71" rx="1.5" fill="#0ecb81" /><line x1="576.51" y1="204.90" x2="576.51" y2="261.09" stroke="#f6465d" stroke-width="1.4" /><rect x="573.51" y="216.41" width="6" height="36.56" rx="1.5" fill="#f6465d" /><line x1="587.24" y1="208.29" x2="587.24" y2="285.46" stroke="#0ecb81" stroke-width="1.4" /><rect x="584.24" y="211.00" width="6" height="41.30" rx="1.5" fill="#0ecb81" /><line x1="597.97" y1="182.56" x2="597.97" y2="259.06" stroke="#f6465d" stroke-width="1.4" /><rect x="594.97" y="211.00" width="6" height="31.82" rx="1.5" fill="#f6465d" /><line x1="608.71" y1="193.40" x2="608.71" y2="243.49" stroke="#0ecb81" stroke-width="1.4" /><rect x="605.71" y="218.44" width="6" height="24.37" rx="1.5" fill="#0ecb81" /><line x1="619.44" y1="213.70" x2="619.44" y2="256.35" stroke="#f6465d" stroke-width="1.4" /><rect x="616.44" y="218.44" width="6" height="2.00" rx="1.5" fill="#f6465d" /><line x1="630.18" y1="204.23" x2="630.18" y2="231.98" stroke="#0ecb81" stroke-width="1.4" /><rect x="627.18" y="211.00" width="6" height="8.80" rx="1.5" fill="#0ecb81" /><line x1="640.91" y1="189.33" x2="640.91" y2="227.24" stroke="#f6465d" stroke-width="1.4" /><rect x="637.91" y="211.67" width="6" height="6.09" rx="1.5" fill="#f6465d" /><line x1="651.65" y1="215.74" x2="651.65" y2="250.26" stroke="#f6465d" stroke-width="1.4" /><rect x="648.65" y="217.77" width="6" height="17.60" rx="1.5" fill="#f6465d" /><line x1="662.38" y1="220.47" x2="662.38" y2="278.69" stroke="#f6465d" stroke-width="1.4" /><rect x="659.38" y="236.04" width="6" height="16.92" rx="1.5" fill="#f6465d" /><line x1="673.11" y1="223.18" x2="673.11" y2="266.51" stroke="#f6465d" stroke-width="1.4" /><rect x="670.11" y="252.97" width="6" height="2.00" rx="1.5" fill="#f6465d" /><line x1="683.85" y1="250.94" x2="683.85" y2="299.00" stroke="#f6465d" stroke-width="1.4" /><rect x="680.85" y="253.65" width="6" height="36.56" rx="1.5" fill="#f6465d" /><line x1="694.58" y1="269.22" x2="694.58" y2="411.38" stroke="#f6465d" stroke-width="1.4" /><rect x="691.58" y="290.20" width="6" height="104.25" rx="1.5" fill="#f6465d" /><line x1="705.32" y1="376.18" x2="705.32" y2="452.00" stroke="#0ecb81" stroke-width="1.4" /><rect x="702.32" y="378.89" width="6" height="15.57" rx="1.5" fill="#0ecb81" /><line x1="716.05" y1="374.82" x2="716.05" y2="434.40" stroke="#f6465d" stroke-width="1.4" /><rect x="713.05" y="378.89" width="6" height="43.33" rx="1.5" fill="#f6465d" /><line x1="726.78" y1="379.56" x2="726.78" y2="438.46" stroke="#0ecb81" stroke-width="1.4" /><rect x="723.78" y="394.46" width="6" height="27.76" rx="1.5" fill="#0ecb81" /><line x1="737.52" y1="372.79" x2="737.52" y2="403.26" stroke="#0ecb81" stroke-width="1.4" /><rect x="734.52" y="390.40" width="6" height="4.06" rx="1.5" fill="#0ecb81" /><line x1="748.25" y1="370.09" x2="748.25" y2="400.55" stroke="#f6465d" stroke-width="1.4" /><rect x="745.25" y="390.40" width="6" height="2.71" rx="1.5" fill="#f6465d" /><line x1="758.99" y1="381.59" x2="758.99" y2="418.15" stroke="#0ecb81" stroke-width="1.4" /><rect x="755.99" y="382.95" width="6" height="10.15" rx="1.5" fill="#0ecb81" /><line x1="769.72" y1="361.96" x2="769.72" y2="387.01" stroke="#0ecb81" stroke-width="1.4" /><rect x="766.72" y="378.21" width="6" height="4.74" rx="1.5" fill="#0ecb81" /><line x1="780.46" y1="368.05" x2="780.46" y2="380.24" stroke="#0ecb81" stroke-width="1.4" /><rect x="777.46" y="372.79" width="6" height="5.42" rx="1.5" fill="#0ecb81" /><line x1="791.19" y1="363.32" x2="791.19" y2="403.93" stroke="#f6465d" stroke-width="1.4" /><rect x="788.19" y="373.47" width="6" height="23.69" rx="1.5" fill="#f6465d" /><line x1="801.92" y1="389.72" x2="801.92" y2="424.92" stroke="#f6465d" stroke-width="1.4" /><rect x="798.92" y="397.84" width="6" height="17.60" rx="1.5" fill="#f6465d" /><line x1="812.66" y1="405.29" x2="812.66" y2="421.54" stroke="#0ecb81" stroke-width="1.4" /><rect x="809.66" y="412.06" width="6" height="4.06" rx="1.5" fill="#0ecb81" /><line x1="823.39" y1="408.00" x2="823.39" y2="432.37" stroke="#f6465d" stroke-width="1.4" /><rect x="820.39" y="412.06" width="6" height="10.15" rx="1.5" fill="#f6465d" /><line x1="834.13" y1="414.77" x2="834.13" y2="433.72" stroke="#0ecb81" stroke-width="1.4" /><rect x="831.13" y="418.15" width="6" height="4.06" rx="1.5" fill="#0ecb81" /><line x1="844.86" y1="410.70" x2="844.86" y2="433.04" stroke="#0ecb81" stroke-width="1.4" /><rect x="841.86" y="414.77" width="6" height="3.38" rx="1.5" fill="#0ecb81" /><line x1="855.59" y1="382.95" x2="855.59" y2="418.15" stroke="#0ecb81" stroke-width="1.4" /><rect x="852.59" y="399.87" width="6" height="14.22" rx="1.5" fill="#0ecb81" /><line x1="866.33" y1="371.44" x2="866.33" y2="405.29" stroke="#0ecb81" stroke-width="1.4" /><rect x="863.33" y="380.24" width="6" height="18.96" rx="1.5" fill="#0ecb81" /><line x1="877.06" y1="345.04" x2="877.06" y2="386.33" stroke="#0ecb81" stroke-width="1.4" /><rect x="874.06" y="345.04" width="6" height="35.20" rx="1.5" fill="#0ecb81" /><line x1="887.80" y1="334.88" x2="887.80" y2="383.63" stroke="#f6465d" stroke-width="1.4" /><rect x="884.80" y="345.04" width="6" height="30.46" rx="1.5" fill="#f6465d" /><line x1="898.53" y1="365.35" x2="898.53" y2="404.61" stroke="#f6465d" stroke-width="1.4" /><rect x="895.53" y="374.82" width="6" height="25.05" rx="1.5" fill="#f6465d" /><line x1="909.27" y1="384.98" x2="909.27" y2="412.06" stroke="#0ecb81" stroke-width="1.4" /><rect x="906.27" y="398.52" width="6" height="2.03" rx="1.5" fill="#0ecb81" /><line x1="920.00" y1="396.49" x2="920.00" y2="424.92" stroke="#f6465d" stroke-width="1.4" /><rect x="917.00" y="397.84" width="6" height="13.54" rx="1.5" fill="#f6465d" />
  <polyline points="565.77,175.79 705.32,452.00 769.72,361.96 834.13,433.72 887.80,334.88" fill="none" stroke="#2fc273" stroke-width="4" stroke-linecap="round" stroke-linejoin="round" />
  <circle cx="565.77" cy="175.79" r="5.5" fill="#2fc273" fill-opacity="0.15" stroke="#2fc273" stroke-width="2" /><text x="565.77" y="163.79" fill="#f3f4f6" font-size="15" font-weight="700" text-anchor="middle">X</text><circle cx="705.32" cy="452.00" r="5.5" fill="#2fc273" fill-opacity="0.15" stroke="#2fc273" stroke-width="2" /><text x="705.32" y="440.00" fill="#f3f4f6" font-size="15" font-weight="700" text-anchor="middle">A</text><circle cx="769.72" cy="361.96" r="5.5" fill="#2fc273" fill-opacity="0.15" stroke="#2fc273" stroke-width="2" /><text x="769.72" y="349.96" fill="#f3f4f6" font-size="15" font-weight="700" text-anchor="middle">B</text><circle cx="834.13" cy="433.72" r="5.5" fill="#2fc273" fill-opacity="0.15" stroke="#2fc273" stroke-width="2" /><text x="834.13" y="421.72" fill="#f3f4f6" font-size="15" font-weight="700" text-anchor="middle">C</text><circle cx="887.80" cy="334.88" r="5.5" fill="#2fc273" fill-opacity="0.15" stroke="#2fc273" stroke-width="2" /><text x="887.80" y="322.88" fill="#f3f4f6" font-size="15" font-weight="700" text-anchor="middle">D</text>
  <text x="56" y="492" fill="#8ba0b5" font-size="18">일반 완성 · TP1 30.422 · TP2 30.078 · SL 31.51</text>
</svg>
