<svg xmlns="http://www.w3.org/2000/svg" width="960" height="540" viewBox="0 0 960 540">
  <rect width="960" height="540" rx="24" fill="#0b1220" />
  <rect x="28" y="28" width="904" height="484" rx="22" fill="#111827" stroke="#1f2937" />
  <text x="56" y="74" fill="#f3f4f6" font-size="34" font-weight="700">DEXEUSDT · AB=CD</text>
  <text x="904" y="74" fill="#8ba0b5" font-size="20" text-anchor="end">Bearish (매도) · Score 82.6</text>
  <line x1="72" y1="58" x2="920" y2="58" stroke="#223045" stroke-width="1" stroke-dasharray="4 8" /><line x1="72" y1="156" x2="920" y2="156" stroke="#223045" stroke-width="1" stroke-dasharray="4 8" /><line x1="72" y1="255" x2="920" y2="255" stroke="#223045" stroke-width="1" stroke-dasharray="4 8" /><line x1="72" y1="353" x2="920" y2="353" stroke="#223045" stroke-width="1" stroke-dasharray="4 8" /><line x1="72" y1="452" x2="920" y2="452" stroke="#223045" stroke-width="1" stroke-dasharray="4 8" />
  <rect x="54.73" y="245.66" width="84" height="9.39" fill="#fbbf24" fill-opacity="0.12" stroke="#fbbf24" stroke-width="1.5" stroke-dasharray="6 6" />
  <line x1="72.00" y1="264.03" x2="72.00" y2="273.02" stroke="#0ecb81" stroke-width="1.4" /><rect x="69.00" y="265.01" width="6" height="5.27" rx="1.5" fill="#0ecb81" /><line x1="82.73" y1="253.88" x2="82.73" y2="269.60" stroke="#0ecb81" stroke-width="1.4" /><rect x="79.73" y="257.88" width="6" height="7.03" rx="1.5" fill="#0ecb81" /><line x1="93.47" y1="256.32" x2="93.47" y2="265.30" stroke="#f6465d" stroke-width="1.4" /><rect x="90.47" y="257.78" width="6" height="4.49" rx="1.5" fill="#f6465d" /><line x1="104.20" y1="258.17" x2="104.20" y2="265.40" stroke="#0ecb81" stroke-width="1.4" /><rect x="101.20" y="261.40" width="6" height="2.00" rx="1.5" fill="#0ecb81" /><line x1="114.94" y1="260.13" x2="114.94" y2="267.06" stroke="#f6465d" stroke-width="1.4" /><rect x="111.94" y="261.49" width="6" height="2.25" rx="1.5" fill="#f6465d" /><line x1="125.67" y1="257.00" x2="125.67" y2="264.91" stroke="#f6465d" stroke-width="1.4" /><rect x="122.67" y="263.64" width="6" height="2.00" rx="1.5" fill="#f6465d" /><line x1="136.41" y1="260.61" x2="136.41" y2="267.65" stroke="#f6465d" stroke-width="1.4" /><rect x="133.41" y="264.13" width="6" height="2.00" rx="1.5" fill="#f6465d" /><line x1="147.14" y1="259.35" x2="147.14" y2="265.69" stroke="#0ecb81" stroke-width="1.4" /><rect x="144.14" y="260.91" width="6" height="3.22" rx="1.5" fill="#0ecb81" /><line x1="157.87" y1="243.82" x2="157.87" y2="261.01" stroke="#0ecb81" stroke-width="1.4" /><rect x="154.87" y="245.77" width="6" height="15.23" rx="1.5" fill="#0ecb81" /><line x1="168.61" y1="223.90" x2="168.61" y2="298.60" stroke="#f6465d" stroke-width="1.4" /><rect x="165.61" y="245.67" width="6" height="26.17" rx="1.5" fill="#f6465d" /><line x1="179.34" y1="196.85" x2="179.34" y2="271.84" stroke="#0ecb81" stroke-width="1.4" /><rect x="176.34" y="205.93" width="6" height="65.72" rx="1.5" fill="#0ecb81" /><line x1="190.08" y1="189.72" x2="190.08" y2="220.87" stroke="#0ecb81" stroke-width="1.4" /><rect x="187.08" y="197.14" width="6" height="8.89" rx="1.5" fill="#0ecb81" /><line x1="200.81" y1="190.02" x2="200.81" y2="226.83" stroke="#f6465d" stroke-width="1.4" /><rect x="197.81" y="197.05" width="6" height="13.48" rx="1.5" fill="#f6465d" /><line x1="211.54" y1="185.33" x2="211.54" y2="214.82" stroke="#0ecb81" stroke-width="1.4" /><rect x="208.54" y="187.77" width="6" height="22.85" rx="1.5" fill="#0ecb81" /><line x1="222.28" y1="187.48" x2="222.28" y2="213.06" stroke="#f6465d" stroke-width="1.4" /><rect x="219.28" y="187.67" width="6" height="16.11" rx="1.5" fill="#f6465d" /><line x1="233.01" y1="194.61" x2="233.01" y2="206.81" stroke="#f6465d" stroke-width="1.4" /><rect x="230.01" y="203.78" width="6" height="2.00" rx="1.5" fill="#f6465d" /><line x1="243.75" y1="191.09" x2="243.75" y2="205.64" stroke="#0ecb81" stroke-width="1.4" /><rect x="240.75" y="196.85" width="6" height="7.42" rx="1.5" fill="#0ecb81" /><line x1="254.48" y1="178.49" x2="254.48" y2="201.73" stroke="#0ecb81" stroke-width="1.4" /><rect x="251.48" y="188.26" width="6" height="8.59" rx="1.5" fill="#0ecb81" /><line x1="265.22" y1="174.20" x2="265.22" y2="196.66" stroke="#0ecb81" stroke-width="1.4" /><rect x="262.22" y="185.62" width="6" height="2.64" rx="1.5" fill="#0ecb81" /><line x1="275.95" y1="171.56" x2="275.95" y2="188.75" stroke="#0ecb81" stroke-width="1.4" /><rect x="272.95" y="177.91" width="6" height="7.81" rx="1.5" fill="#0ecb81" /><line x1="286.68" y1="165.31" x2="286.68" y2="178.98" stroke="#0ecb81" stroke-width="1.4" /><rect x="283.68" y="168.83" width="6" height="8.98" rx="1.5" fill="#0ecb81" /><line x1="297.42" y1="160.92" x2="297.42" y2="175.96" stroke="#f6465d" stroke-width="1.4" /><rect x="294.42" y="168.73" width="6" height="4.10" rx="1.5" fill="#f6465d" /><line x1="308.15" y1="137.87" x2="308.15" y2="182.50" stroke="#0ecb81" stroke-width="1.4" /><rect x="305.15" y="159.84" width="6" height="12.89" rx="1.5" fill="#0ecb81" /><line x1="318.89" y1="147.05" x2="318.89" y2="174.30" stroke="#0ecb81" stroke-width="1.4" /><rect x="315.89" y="151.54" width="6" height="8.40" rx="1.5" fill="#0ecb81" /><line x1="329.62" y1="101.84" x2="329.62" y2="151.94" stroke="#0ecb81" stroke-width="1.4" /><rect x="326.62" y="104.77" width="6" height="46.87" rx="1.5" fill="#0ecb81" /><line x1="340.35" y1="58.00" x2="340.35" y2="120.69" stroke="#0ecb81" stroke-width="1.4" /><rect x="337.35" y="81.83" width="6" height="22.95" rx="1.5" fill="#0ecb81" /><line x1="351.09" y1="67.67" x2="351.09" y2="89.44" stroke="#0ecb81" stroke-width="1.4" /><rect x="348.09" y="79.29" width="6" height="2.54" rx="1.5" fill="#0ecb81" /><line x1="361.82" y1="67.67" x2="361.82" y2="94.81" stroke="#0ecb81" stroke-width="1.4" /><rect x="358.82" y="78.02" width="6" height="2.00" rx="1.5" fill="#0ecb81" /><line x1="372.56" y1="61.12" x2="372.56" y2="89.54" stroke="#f6465d" stroke-width="1.4" /><rect x="369.56" y="78.02" width="6" height="2.00" rx="1.5" fill="#f6465d" /><line x1="383.29" y1="69.23" x2="383.29" y2="102.04" stroke="#f6465d" stroke-width="1.4" /><rect x="380.29" y="78.21" width="6" height="13.77" rx="1.5" fill="#f6465d" /><line x1="394.03" y1="89.83" x2="394.03" y2="119.71" stroke="#f6465d" stroke-width="1.4" /><rect x="391.03" y="91.88" width="6" height="19.14" rx="1.5" fill="#f6465d" /><line x1="404.76" y1="106.24" x2="404.76" y2="154.47" stroke="#f6465d" stroke-width="1.4" /><rect x="401.76" y="111.02" width="6" height="42.09" rx="1.5" fill="#f6465d" /><line x1="415.49" y1="79.09" x2="415.49" y2="166.78" stroke="#0ecb81" stroke-width="1.4" /><rect x="412.49" y="144.90" width="6" height="8.20" rx="1.5" fill="#0ecb81" /><line x1="426.23" y1="126.45" x2="426.23" y2="145.20" stroke="#0ecb81" stroke-width="1.4" /><rect x="423.23" y="129.87" width="6" height="14.94" rx="1.5" fill="#0ecb81" /><line x1="436.96" y1="113.56" x2="436.96" y2="163.75" stroke="#f6465d" stroke-width="1.4" /><rect x="433.96" y="129.77" width="6" height="5.57" rx="1.5" fill="#f6465d" /><line x1="447.70" y1="127.13" x2="447.70" y2="172.64" stroke="#f6465d" stroke-width="1.4" /><rect x="444.70" y="135.34" width="6" height="2.00" rx="1.5" fill="#f6465d" /><line x1="458.43" y1="132.89" x2="458.43" y2="145.10" stroke="#f6465d" stroke-width="1.4" /><rect x="455.43" y="136.51" width="6" height="3.81" rx="1.5" fill="#f6465d" /><line x1="469.16" y1="116.49" x2="469.16" y2="155.45" stroke="#f6465d" stroke-width="1.4" /><rect x="466.16" y="140.41" width="6" height="8.20" rx="1.5" fill="#f6465d" /><line x1="479.90" y1="128.21" x2="479.90" y2="151.45" stroke="#0ecb81" stroke-width="1.4" /><rect x="476.90" y="142.76" width="6" height="5.86" rx="1.5" fill="#0ecb81" /><line x1="490.63" y1="132.02" x2="490.63" y2="142.85" stroke="#0ecb81" stroke-width="1.4" /><rect x="487.63" y="141.29" width="6" height="2.00" rx="1.5" fill="#0ecb81" /><line x1="501.37" y1="140.61" x2="501.37" y2="163.07" stroke="#f6465d" stroke-width="1.4" /><rect x="498.37" y="141.29" width="6" height="18.36" rx="1.5" fill="#f6465d" /><line x1="512.10" y1="140.90" x2="512.10" y2="183.38" stroke="#f6465d" stroke-width="1.4" /><rect x="509.10" y="159.65" width="6" height="21.38" rx="1.5" fill="#f6465d" /><line x1="522.84" y1="170.19" x2="522.84" y2="188.06" stroke="#0ecb81" stroke-width="1.4" /><rect x="519.84" y="179.28" width="6" height="2.00" rx="1.5" fill="#0ecb81" /><line x1="533.57" y1="171.76" x2="533.57" y2="194.31" stroke="#f6465d" stroke-width="1.4" /><rect x="530.57" y="179.28" width="6" height="10.55" rx="1.5" fill="#f6465d" /><line x1="544.30" y1="186.99" x2="544.30" y2="223.90" stroke="#f6465d" stroke-width="1.4" /><rect x="541.30" y="189.82" width="6" height="31.83" rx="1.5" fill="#f6465d" /><line x1="555.04" y1="170.49" x2="555.04" y2="227.02" stroke="#0ecb81" stroke-width="1.4" /><rect x="552.04" y="183.47" width="6" height="38.18" rx="1.5" fill="#0ecb81" /><line x1="565.77" y1="178.30" x2="565.77" y2="200.66" stroke="#f6465d" stroke-width="1.4" /><rect x="562.77" y="183.47" width="6" height="15.33" rx="1.5" fill="#f6465d" /><line x1="576.51" y1="175.47" x2="576.51" y2="226.83" stroke="#0ecb81" stroke-width="1.4" /><rect x="573.51" y="194.41" width="6" height="4.49" rx="1.5" fill="#0ecb81" /><line x1="587.24" y1="190.41" x2="587.24" y2="207.10" stroke="#f6465d" stroke-width="1.4" /><rect x="584.24" y="194.51" width="6" height="4.49" rx="1.5" fill="#f6465d" /><line x1="597.97" y1="198.02" x2="597.97" y2="225.85" stroke="#f6465d" stroke-width="1.4" /><rect x="594.97" y="198.90" width="6" height="26.27" rx="1.5" fill="#f6465d" /><line x1="608.71" y1="198.80" x2="608.71" y2="240.40" stroke="#0ecb81" stroke-width="1.4" /><rect x="605.71" y="202.42" width="6" height="22.85" rx="1.5" fill="#0ecb81" /><line x1="619.44" y1="191.48" x2="619.44" y2="202.42" stroke="#0ecb81" stroke-width="1.4" /><rect x="616.44" y="199.39" width="6" height="2.93" rx="1.5" fill="#0ecb81" /><line x1="630.18" y1="194.51" x2="630.18" y2="215.21" stroke="#f6465d" stroke-width="1.4" /><rect x="627.18" y="199.39" width="6" height="13.77" rx="1.5" fill="#f6465d" /><line x1="640.91" y1="191.97" x2="640.91" y2="214.43" stroke="#0ecb81" stroke-width="1.4" /><rect x="637.91" y="198.61" width="6" height="14.55" rx="1.5" fill="#0ecb81" /><line x1="651.65" y1="187.87" x2="651.65" y2="212.48" stroke="#0ecb81" stroke-width="1.4" /><rect x="648.65" y="191.48" width="6" height="7.13" rx="1.5" fill="#0ecb81" /><line x1="662.38" y1="186.11" x2="662.38" y2="208.57" stroke="#f6465d" stroke-width="1.4" /><rect x="659.38" y="191.48" width="6" height="4.88" rx="1.5" fill="#f6465d" /><line x1="673.11" y1="195.88" x2="673.11" y2="212.77" stroke="#f6465d" stroke-width="1.4" /><rect x="670.11" y="196.27" width="6" height="5.08" rx="1.5" fill="#f6465d" /><line x1="683.85" y1="189.72" x2="683.85" y2="204.76" stroke="#0ecb81" stroke-width="1.4" /><rect x="680.85" y="190.51" width="6" height="10.74" rx="1.5" fill="#0ecb81" /><line x1="694.58" y1="189.24" x2="694.58" y2="198.90" stroke="#f6465d" stroke-width="1.4" /><rect x="691.58" y="190.51" width="6" height="6.84" rx="1.5" fill="#f6465d" /><line x1="705.32" y1="191.38" x2="705.32" y2="202.03" stroke="#f6465d" stroke-width="1.4" /><rect x="702.32" y="197.44" width="6" height="2.93" rx="1.5" fill="#f6465d" /><line x1="716.05" y1="199.29" x2="716.05" y2="207.89" stroke="#f6465d" stroke-width="1.4" /><rect x="713.05" y="200.37" width="6" height="2.05" rx="1.5" fill="#f6465d" /><line x1="726.78" y1="186.89" x2="726.78" y2="208.86" stroke="#0ecb81" stroke-width="1.4" /><rect x="723.78" y="195.97" width="6" height="6.44" rx="1.5" fill="#0ecb81" /><line x1="737.52" y1="190.70" x2="737.52" y2="206.62" stroke="#0ecb81" stroke-width="1.4" /><rect x="734.52" y="195.88" width="6" height="2.00" rx="1.5" fill="#0ecb81" /><line x1="748.25" y1="195.39" x2="748.25" y2="203.10" stroke="#f6465d" stroke-width="1.4" /><rect x="745.25" y="195.78" width="6" height="5.66" rx="1.5" fill="#f6465d" /><line x1="758.99" y1="196.46" x2="758.99" y2="203.78" stroke="#f6465d" stroke-width="1.4" /><rect x="755.99" y="201.34" width="6" height="2.05" rx="1.5" fill="#f6465d" /><line x1="769.72" y1="200.46" x2="769.72" y2="211.50" stroke="#f6465d" stroke-width="1.4" /><rect x="766.72" y="203.39" width="6" height="7.13" rx="1.5" fill="#f6465d" /><line x1="780.46" y1="208.67" x2="780.46" y2="215.99" stroke="#f6465d" stroke-width="1.4" /><rect x="777.46" y="210.52" width="6" height="3.42" rx="1.5" fill="#f6465d" /><line x1="791.19" y1="210.82" x2="791.19" y2="231.71" stroke="#f6465d" stroke-width="1.4" /><rect x="788.19" y="213.84" width="6" height="16.99" rx="1.5" fill="#f6465d" /><line x1="801.92" y1="199.59" x2="801.92" y2="232.88" stroke="#0ecb81" stroke-width="1.4" /><rect x="798.92" y="207.30" width="6" height="23.43" rx="1.5" fill="#0ecb81" /><line x1="812.66" y1="203.49" x2="812.66" y2="209.64" stroke="#f6465d" stroke-width="1.4" /><rect x="809.66" y="207.40" width="6" height="2.00" rx="1.5" fill="#f6465d" /><line x1="823.39" y1="199.10" x2="823.39" y2="211.89" stroke="#0ecb81" stroke-width="1.4" /><rect x="820.39" y="203.00" width="6" height="4.59" rx="1.5" fill="#0ecb81" /><line x1="834.13" y1="200.46" x2="834.13" y2="220.38" stroke="#f6465d" stroke-width="1.4" /><rect x="831.13" y="203.00" width="6" height="6.93" rx="1.5" fill="#f6465d" /><line x1="844.86" y1="198.90" x2="844.86" y2="220.09" stroke="#f6465d" stroke-width="1.4" /><rect x="841.86" y="209.94" width="6" height="3.52" rx="1.5" fill="#f6465d" /><line x1="855.59" y1="200.95" x2="855.59" y2="215.99" stroke="#0ecb81" stroke-width="1.4" /><rect x="852.59" y="204.57" width="6" height="8.89" rx="1.5" fill="#0ecb81" /><line x1="866.33" y1="191.19" x2="866.33" y2="211.11" stroke="#0ecb81" stroke-width="1.4" /><rect x="863.33" y="196.07" width="6" height="8.50" rx="1.5" fill="#0ecb81" /><line x1="877.06" y1="189.43" x2="877.06" y2="200.76" stroke="#f6465d" stroke-width="1.4" /><rect x="874.06" y="195.97" width="6" height="4.30" rx="1.5" fill="#f6465d" /><line x1="887.80" y1="178.20" x2="887.80" y2="216.77" stroke="#f6465d" stroke-width="1.4" /><rect x="884.80" y="200.27" width="6" height="13.48" rx="1.5" fill="#f6465d" /><line x1="898.53" y1="162.68" x2="898.53" y2="241.96" stroke="#0ecb81" stroke-width="1.4" /><rect x="895.53" y="180.94" width="6" height="32.81" rx="1.5" fill="#0ecb81" /><line x1="909.27" y1="131.33" x2="909.27" y2="431.89" stroke="#f6465d" stroke-width="1.4" /><rect x="906.27" y="181.03" width="6" height="241.67" rx="1.5" fill="#f6465d" /><line x1="920.00" y1="420.17" x2="920.00" y2="452.00" stroke="#f6465d" stroke-width="1.4" /><rect x="917.00" y="422.51" width="6" height="27.15" rx="1.5" fill="#f6465d" />
  <polyline points="72.00,262.47 72.00,278.39 72.00,259.05 72.00,274.38 82.73,253.88" fill="none" stroke="#2fc273" stroke-width="4" stroke-linecap="round" stroke-linejoin="round" />
  <circle cx="72.00" cy="262.47" r="5.5" fill="#2fc273" fill-opacity="0.15" stroke="#2fc273" stroke-width="2" /><text x="72.00" y="250.47" fill="#f3f4f6" font-size="15" font-weight="700" text-anchor="middle">X</text><circle cx="72.00" cy="278.39" r="5.5" fill="#2fc273" fill-opacity="0.15" stroke="#2fc273" stroke-width="2" /><text x="72.00" y="266.39" fill="#f3f4f6" font-size="15" font-weight="700" text-anchor="middle">A</text><circle cx="72.00" cy="259.05" r="5.5" fill="#2fc273" fill-opacity="0.15" stroke="#2fc273" stroke-width="2" /><text x="72.00" y="247.05" fill="#f3f4f6" font-size="15" font-weight="700" text-anchor="middle">B</text><circle cx="72.00" cy="274.38" r="5.5" fill="#2fc273" fill-opacity="0.15" stroke="#2fc273" stroke-width="2" /><text x="72.00" y="262.38" fill="#f3f4f6" font-size="15" font-weight="700" text-anchor="middle">C</text><circle cx="82.73" cy="253.88" r="5.5" fill="#2fc273" fill-opacity="0.15" stroke="#2fc273" stroke-width="2" /><text x="82.73" y="241.88" fill="#f3f4f6" font-size="15" font-weight="700" text-anchor="middle">D</text>
  <text x="56" y="492" fill="#8ba0b5" font-size="18">Complete · TP1 29.128 · TP2 28.632 · SL 30.142</text>
</svg>
