<svg xmlns="http://www.w3.org/2000/svg" width="960" height="540" viewBox="0 0 960 540">
  <rect width="960" height="540" rx="24" fill="#0b1220" />
  <rect x="28" y="28" width="904" height="484" rx="22" fill="#111827" stroke="#1f2937" />
  <text x="56" y="74" fill="#f3f4f6" font-size="34" font-weight="700">DOGEUSDT · AB=CD</text>
  <text x="904" y="74" fill="#8ba0b5" font-size="20" text-anchor="end">Bearish (매도) · Score 85.1</text>
  <line x1="72" y1="58" x2="920" y2="58" stroke="#223045" stroke-width="1" stroke-dasharray="4 8" /><line x1="72" y1="156" x2="920" y2="156" stroke="#223045" stroke-width="1" stroke-dasharray="4 8" /><line x1="72" y1="255" x2="920" y2="255" stroke="#223045" stroke-width="1" stroke-dasharray="4 8" /><line x1="72" y1="353" x2="920" y2="353" stroke="#223045" stroke-width="1" stroke-dasharray="4 8" /><line x1="72" y1="452" x2="920" y2="452" stroke="#223045" stroke-width="1" stroke-dasharray="4 8" />
  <rect x="612.91" y="58.08" width="84" height="101.84" fill="#fbbf24" fill-opacity="0.12" stroke="#fbbf24" stroke-width="1.5" stroke-dasharray="6 6" />
  <line x1="72.00" y1="160.31" x2="72.00" y2="400.46" stroke="#0ecb81" stroke-width="1.4" /><rect x="69.00" y="270.81" width="6" height="82.00" rx="1.5" fill="#0ecb81" /><line x1="82.73" y1="144.30" x2="82.73" y2="297.37" stroke="#0ecb81" stroke-width="1.4" /><rect x="79.73" y="221.61" width="6" height="49.20" rx="1.5" fill="#0ecb81" /><line x1="93.47" y1="143.13" x2="93.47" y2="250.12" stroke="#0ecb81" stroke-width="1.4" /><rect x="90.47" y="178.66" width="6" height="43.34" rx="1.5" fill="#0ecb81" /><line x1="104.20" y1="155.62" x2="104.20" y2="250.12" stroke="#f6465d" stroke-width="1.4" /><rect x="101.20" y="178.66" width="6" height="30.46" rx="1.5" fill="#f6465d" /><line x1="114.94" y1="198.97" x2="114.94" y2="266.13" stroke="#f6465d" stroke-width="1.4" /><rect x="111.94" y="209.12" width="6" height="14.06" rx="1.5" fill="#f6465d" /><line x1="125.67" y1="157.96" x2="125.67" y2="246.21" stroke="#0ecb81" stroke-width="1.4" /><rect x="122.67" y="165.38" width="6" height="57.40" rx="1.5" fill="#0ecb81" /><line x1="136.41" y1="150.15" x2="136.41" y2="232.55" stroke="#f6465d" stroke-width="1.4" /><rect x="133.41" y="164.99" width="6" height="40.61" rx="1.5" fill="#f6465d" /><line x1="147.14" y1="188.03" x2="147.14" y2="266.91" stroke="#f6465d" stroke-width="1.4" /><rect x="144.14" y="205.21" width="6" height="34.36" rx="1.5" fill="#f6465d" /><line x1="157.87" y1="223.57" x2="157.87" y2="276.28" stroke="#f6465d" stroke-width="1.4" /><rect x="154.87" y="239.19" width="6" height="9.37" rx="1.5" fill="#f6465d" /><line x1="168.61" y1="157.57" x2="168.61" y2="251.68" stroke="#0ecb81" stroke-width="1.4" /><rect x="165.61" y="170.85" width="6" height="77.71" rx="1.5" fill="#0ecb81" /><line x1="179.34" y1="155.23" x2="179.34" y2="199.36" stroke="#0ecb81" stroke-width="1.4" /><rect x="176.34" y="166.16" width="6" height="4.69" rx="1.5" fill="#0ecb81" /><line x1="190.08" y1="68.93" x2="190.08" y2="175.54" stroke="#0ecb81" stroke-width="1.4" /><rect x="187.08" y="104.08" width="6" height="62.48" rx="1.5" fill="#0ecb81" /><line x1="200.81" y1="76.35" x2="200.81" y2="118.53" stroke="#0ecb81" stroke-width="1.4" /><rect x="197.81" y="97.83" width="6" height="6.25" rx="1.5" fill="#0ecb81" /><line x1="211.54" y1="58.00" x2="211.54" y2="152.89" stroke="#f6465d" stroke-width="1.4" /><rect x="208.54" y="97.44" width="6" height="39.83" rx="1.5" fill="#f6465d" /><line x1="222.28" y1="92.36" x2="222.28" y2="142.74" stroke="#0ecb81" stroke-width="1.4" /><rect x="219.28" y="118.53" width="6" height="18.35" rx="1.5" fill="#0ecb81" /><line x1="233.01" y1="103.30" x2="233.01" y2="146.25" stroke="#f6465d" stroke-width="1.4" /><rect x="230.01" y="118.13" width="6" height="10.93" rx="1.5" fill="#f6465d" /><line x1="243.75" y1="125.55" x2="243.75" y2="209.90" stroke="#f6465d" stroke-width="1.4" /><rect x="240.75" y="129.07" width="6" height="62.09" rx="1.5" fill="#f6465d" /><line x1="254.48" y1="189.98" x2="254.48" y2="282.92" stroke="#f6465d" stroke-width="1.4" /><rect x="251.48" y="191.55" width="6" height="71.85" rx="1.5" fill="#f6465d" /><line x1="265.22" y1="262.61" x2="265.22" y2="326.65" stroke="#f6465d" stroke-width="1.4" /><rect x="262.22" y="263.40" width="6" height="55.45" rx="1.5" fill="#f6465d" /><line x1="275.95" y1="284.48" x2="275.95" y2="353.60" stroke="#f6465d" stroke-width="1.4" /><rect x="272.95" y="318.84" width="6" height="14.45" rx="1.5" fill="#f6465d" /><line x1="286.68" y1="309.86" x2="286.68" y2="348.13" stroke="#0ecb81" stroke-width="1.4" /><rect x="283.68" y="328.22" width="6" height="5.08" rx="1.5" fill="#0ecb81" /><line x1="297.42" y1="261.83" x2="297.42" y2="333.68" stroke="#0ecb81" stroke-width="1.4" /><rect x="294.42" y="289.95" width="6" height="37.88" rx="1.5" fill="#0ecb81" /><line x1="308.15" y1="264.18" x2="308.15" y2="301.27" stroke="#f6465d" stroke-width="1.4" /><rect x="305.15" y="290.34" width="6" height="3.51" rx="1.5" fill="#f6465d" /><line x1="318.89" y1="278.62" x2="318.89" y2="317.28" stroke="#0ecb81" stroke-width="1.4" /><rect x="315.89" y="283.70" width="6" height="10.15" rx="1.5" fill="#0ecb81" /><line x1="329.62" y1="275.89" x2="329.62" y2="400.46" stroke="#f6465d" stroke-width="1.4" /><rect x="326.62" y="284.09" width="6" height="82.00" rx="1.5" fill="#f6465d" /><line x1="340.35" y1="333.29" x2="340.35" y2="397.72" stroke="#0ecb81" stroke-width="1.4" /><rect x="337.35" y="356.72" width="6" height="9.76" rx="1.5" fill="#0ecb81" /><line x1="351.09" y1="350.08" x2="351.09" y2="391.08" stroke="#f6465d" stroke-width="1.4" /><rect x="348.09" y="356.72" width="6" height="11.32" rx="1.5" fill="#f6465d" /><line x1="361.82" y1="358.28" x2="361.82" y2="384.45" stroke="#0ecb81" stroke-width="1.4" /><rect x="358.82" y="366.48" width="6" height="2.00" rx="1.5" fill="#0ecb81" /><line x1="372.56" y1="343.84" x2="372.56" y2="378.20" stroke="#f6465d" stroke-width="1.4" /><rect x="369.56" y="366.87" width="6" height="7.81" rx="1.5" fill="#f6465d" /><line x1="383.29" y1="320.02" x2="383.29" y2="383.27" stroke="#0ecb81" stroke-width="1.4" /><rect x="380.29" y="323.14" width="6" height="51.54" rx="1.5" fill="#0ecb81" /><line x1="394.03" y1="285.65" x2="394.03" y2="338.37" stroke="#0ecb81" stroke-width="1.4" /><rect x="391.03" y="316.50" width="6" height="6.25" rx="1.5" fill="#0ecb81" /><line x1="404.76" y1="160.70" x2="404.76" y2="325.09" stroke="#0ecb81" stroke-width="1.4" /><rect x="401.76" y="212.24" width="6" height="104.26" rx="1.5" fill="#0ecb81" /><line x1="415.49" y1="202.09" x2="415.49" y2="297.76" stroke="#f6465d" stroke-width="1.4" /><rect x="412.49" y="211.85" width="6" height="69.51" rx="1.5" fill="#f6465d" /><line x1="426.23" y1="273.94" x2="426.23" y2="356.33" stroke="#f6465d" stroke-width="1.4" /><rect x="423.23" y="281.36" width="6" height="51.15" rx="1.5" fill="#f6465d" /><line x1="436.96" y1="305.18" x2="436.96" y2="349.69" stroke="#0ecb81" stroke-width="1.4" /><rect x="433.96" y="314.55" width="6" height="17.96" rx="1.5" fill="#0ecb81" /><line x1="447.70" y1="312.99" x2="447.70" y2="343.44" stroke="#f6465d" stroke-width="1.4" /><rect x="444.70" y="314.55" width="6" height="9.37" rx="1.5" fill="#f6465d" /><line x1="458.43" y1="316.50" x2="458.43" y2="355.16" stroke="#f6465d" stroke-width="1.4" /><rect x="455.43" y="323.92" width="6" height="9.37" rx="1.5" fill="#f6465d" /><line x1="469.16" y1="332.90" x2="469.16" y2="371.17" stroke="#f6465d" stroke-width="1.4" /><rect x="466.16" y="332.90" width="6" height="31.24" rx="1.5" fill="#f6465d" /><line x1="479.90" y1="337.59" x2="479.90" y2="375.46" stroke="#0ecb81" stroke-width="1.4" /><rect x="476.90" y="346.18" width="6" height="17.57" rx="1.5" fill="#0ecb81" /><line x1="490.63" y1="308.30" x2="490.63" y2="452.00" stroke="#f6465d" stroke-width="1.4" /><rect x="487.63" y="345.79" width="6" height="7.03" rx="1.5" fill="#f6465d" /><line x1="501.37" y1="256.76" x2="501.37" y2="360.63" stroke="#0ecb81" stroke-width="1.4" /><rect x="498.37" y="273.94" width="6" height="78.49" rx="1.5" fill="#0ecb81" /><line x1="512.10" y1="227.08" x2="512.10" y2="273.94" stroke="#0ecb81" stroke-width="1.4" /><rect x="509.10" y="239.58" width="6" height="34.36" rx="1.5" fill="#0ecb81" /><line x1="522.84" y1="215.76" x2="522.84" y2="296.20" stroke="#f6465d" stroke-width="1.4" /><rect x="519.84" y="239.58" width="6" height="16.79" rx="1.5" fill="#f6465d" /><line x1="533.57" y1="238.79" x2="533.57" y2="279.41" stroke="#0ecb81" stroke-width="1.4" /><rect x="530.57" y="256.37" width="6" height="2.00" rx="1.5" fill="#0ecb81" /><line x1="544.30" y1="250.51" x2="544.30" y2="352.43" stroke="#f6465d" stroke-width="1.4" /><rect x="541.30" y="256.76" width="6" height="77.32" rx="1.5" fill="#f6465d" /><line x1="555.04" y1="310.64" x2="555.04" y2="356.33" stroke="#f6465d" stroke-width="1.4" /><rect x="552.04" y="334.46" width="6" height="3.51" rx="1.5" fill="#f6465d" /><line x1="565.77" y1="261.05" x2="565.77" y2="350.86" stroke="#0ecb81" stroke-width="1.4" /><rect x="562.77" y="304.79" width="6" height="32.80" rx="1.5" fill="#0ecb81" /><line x1="576.51" y1="294.24" x2="576.51" y2="331.73" stroke="#f6465d" stroke-width="1.4" /><rect x="573.51" y="304.40" width="6" height="16.01" rx="1.5" fill="#f6465d" /><line x1="587.24" y1="311.03" x2="587.24" y2="396.16" stroke="#f6465d" stroke-width="1.4" /><rect x="584.24" y="320.02" width="6" height="37.49" rx="1.5" fill="#f6465d" /><line x1="597.97" y1="295.42" x2="597.97" y2="365.31" stroke="#0ecb81" stroke-width="1.4" /><rect x="594.97" y="353.99" width="6" height="3.51" rx="1.5" fill="#0ecb81" /><line x1="608.71" y1="264.96" x2="608.71" y2="358.67" stroke="#0ecb81" stroke-width="1.4" /><rect x="605.71" y="286.04" width="6" height="67.94" rx="1.5" fill="#0ecb81" /><line x1="619.44" y1="258.71" x2="619.44" y2="317.67" stroke="#0ecb81" stroke-width="1.4" /><rect x="616.44" y="279.41" width="6" height="7.03" rx="1.5" fill="#0ecb81" /><line x1="630.18" y1="261.83" x2="630.18" y2="307.91" stroke="#0ecb81" stroke-width="1.4" /><rect x="627.18" y="273.55" width="6" height="6.25" rx="1.5" fill="#0ecb81" /><line x1="640.91" y1="192.72" x2="640.91" y2="285.65" stroke="#0ecb81" stroke-width="1.4" /><rect x="637.91" y="242.31" width="6" height="31.24" rx="1.5" fill="#0ecb81" /><line x1="651.65" y1="235.28" x2="651.65" y2="297.37" stroke="#f6465d" stroke-width="1.4" /><rect x="648.65" y="242.31" width="6" height="30.46" rx="1.5" fill="#f6465d" /><line x1="662.38" y1="243.09" x2="662.38" y2="288.78" stroke="#0ecb81" stroke-width="1.4" /><rect x="659.38" y="250.51" width="6" height="22.26" rx="1.5" fill="#0ecb81" /><line x1="673.11" y1="202.09" x2="673.11" y2="277.06" stroke="#f6465d" stroke-width="1.4" /><rect x="670.11" y="250.12" width="6" height="8.20" rx="1.5" fill="#f6465d" /><line x1="683.85" y1="239.58" x2="683.85" y2="289.56" stroke="#f6465d" stroke-width="1.4" /><rect x="680.85" y="258.32" width="6" height="26.55" rx="1.5" fill="#f6465d" /><line x1="694.58" y1="264.57" x2="694.58" y2="389.52" stroke="#f6465d" stroke-width="1.4" /><rect x="691.58" y="284.87" width="6" height="81.61" rx="1.5" fill="#f6465d" /><line x1="705.32" y1="352.82" x2="705.32" y2="402.80" stroke="#0ecb81" stroke-width="1.4" /><rect x="702.32" y="360.63" width="6" height="5.86" rx="1.5" fill="#0ecb81" /><line x1="716.05" y1="348.13" x2="716.05" y2="390.30" stroke="#f6465d" stroke-width="1.4" /><rect x="713.05" y="360.63" width="6" height="11.32" rx="1.5" fill="#f6465d" /><line x1="726.78" y1="323.53" x2="726.78" y2="411.00" stroke="#0ecb81" stroke-width="1.4" /><rect x="723.78" y="357.11" width="6" height="14.45" rx="1.5" fill="#0ecb81" /><line x1="737.52" y1="336.03" x2="737.52" y2="385.62" stroke="#f6465d" stroke-width="1.4" /><rect x="734.52" y="357.11" width="6" height="2.00" rx="1.5" fill="#f6465d" /><line x1="748.25" y1="342.27" x2="748.25" y2="366.87" stroke="#0ecb81" stroke-width="1.4" /><rect x="745.25" y="354.77" width="6" height="3.90" rx="1.5" fill="#0ecb81" /><line x1="758.99" y1="339.54" x2="758.99" y2="373.90" stroke="#0ecb81" stroke-width="1.4" /><rect x="755.99" y="346.57" width="6" height="8.59" rx="1.5" fill="#0ecb81" /><line x1="769.72" y1="310.25" x2="769.72" y2="358.28" stroke="#0ecb81" stroke-width="1.4" /><rect x="766.72" y="324.31" width="6" height="22.65" rx="1.5" fill="#0ecb81" /><line x1="780.46" y1="303.62" x2="780.46" y2="332.12" stroke="#0ecb81" stroke-width="1.4" /><rect x="777.46" y="312.99" width="6" height="11.32" rx="1.5" fill="#0ecb81" /><line x1="791.19" y1="281.36" x2="791.19" y2="339.54" stroke="#0ecb81" stroke-width="1.4" /><rect x="788.19" y="310.25" width="6" height="2.34" rx="1.5" fill="#0ecb81" /><line x1="801.92" y1="268.47" x2="801.92" y2="324.70" stroke="#0ecb81" stroke-width="1.4" /><rect x="798.92" y="300.10" width="6" height="10.15" rx="1.5" fill="#0ecb81" /><line x1="812.66" y1="277.06" x2="812.66" y2="321.58" stroke="#f6465d" stroke-width="1.4" /><rect x="809.66" y="300.10" width="6" height="9.76" rx="1.5" fill="#f6465d" /><line x1="823.39" y1="309.47" x2="823.39" y2="334.46" stroke="#f6465d" stroke-width="1.4" /><rect x="820.39" y="309.47" width="6" height="12.89" rx="1.5" fill="#f6465d" /><line x1="834.13" y1="311.43" x2="834.13" y2="331.34" stroke="#0ecb81" stroke-width="1.4" /><rect x="831.13" y="316.89" width="6" height="5.47" rx="1.5" fill="#0ecb81" /><line x1="844.86" y1="316.89" x2="844.86" y2="341.88" stroke="#f6465d" stroke-width="1.4" /><rect x="841.86" y="317.28" width="6" height="8.98" rx="1.5" fill="#f6465d" /><line x1="855.59" y1="294.63" x2="855.59" y2="341.49" stroke="#0ecb81" stroke-width="1.4" /><rect x="852.59" y="301.66" width="6" height="24.60" rx="1.5" fill="#0ecb81" /><line x1="866.33" y1="247.39" x2="866.33" y2="310.64" stroke="#0ecb81" stroke-width="1.4" /><rect x="863.33" y="280.97" width="6" height="20.31" rx="1.5" fill="#0ecb81" /><line x1="877.06" y1="275.11" x2="877.06" y2="298.93" stroke="#f6465d" stroke-width="1.4" /><rect x="874.06" y="280.58" width="6" height="8.98" rx="1.5" fill="#f6465d" /><line x1="887.80" y1="286.04" x2="887.80" y2="319.23" stroke="#f6465d" stroke-width="1.4" /><rect x="884.80" y="289.17" width="6" height="26.55" rx="1.5" fill="#f6465d" /><line x1="898.53" y1="315.72" x2="898.53" y2="375.46" stroke="#f6465d" stroke-width="1.4" /><rect x="895.53" y="316.11" width="6" height="51.15" rx="1.5" fill="#f6465d" /><line x1="909.27" y1="345.79" x2="909.27" y2="370.39" stroke="#0ecb81" stroke-width="1.4" /><rect x="906.27" y="356.72" width="6" height="10.93" rx="1.5" fill="#0ecb81" /><line x1="920.00" y1="356.72" x2="920.00" y2="381.71" stroke="#f6465d" stroke-width="1.4" /><rect x="917.00" y="356.72" width="6" height="15.62" rx="1.5" fill="#f6465d" />
  <polyline points="404.76,160.70 490.63,452.00 522.84,215.76 587.24,396.16 640.91,192.72" fill="none" stroke="#2fc273" stroke-width="4" stroke-linecap="round" stroke-linejoin="round" />
  <circle cx="404.76" cy="160.70" r="5.5" fill="#2fc273" fill-opacity="0.15" stroke="#2fc273" stroke-width="2" /><text x="404.76" y="148.70" fill="#f3f4f6" font-size="15" font-weight="700" text-anchor="middle">X</text><circle cx="490.63" cy="452.00" r="5.5" fill="#2fc273" fill-opacity="0.15" stroke="#2fc273" stroke-width="2" /><text x="490.63" y="440.00" fill="#f3f4f6" font-size="15" font-weight="700" text-anchor="middle">A</text><circle cx="522.84" cy="215.76" r="5.5" fill="#2fc273" fill-opacity="0.15" stroke="#2fc273" stroke-width="2" /><text x="522.84" y="203.76" fill="#f3f4f6" font-size="15" font-weight="700" text-anchor="middle">B</text><circle cx="587.24" cy="396.16" r="5.5" fill="#2fc273" fill-opacity="0.15" stroke="#2fc273" stroke-width="2" /><text x="587.24" y="384.16" fill="#f3f4f6" font-size="15" font-weight="700" text-anchor="middle">C</text><circle cx="640.91" cy="192.72" r="5.5" fill="#2fc273" fill-opacity="0.15" stroke="#2fc273" stroke-width="2" /><text x="640.91" y="180.72" fill="#f3f4f6" font-size="15" font-weight="700" text-anchor="middle">D</text>
  <text x="56" y="492" fill="#8ba0b5" font-size="18">일반 완성 · TP1 0.09251 · TP2 0.09128 · SL 0.09547</text>
</svg>
