<svg xmlns="http://www.w3.org/2000/svg" width="960" height="540" viewBox="0 0 960 540">
  <rect width="960" height="540" rx="24" fill="#0b1220" />
  <rect x="28" y="28" width="904" height="484" rx="22" fill="#111827" stroke="#1f2937" />
  <text x="56" y="74" fill="#f3f4f6" font-size="34" font-weight="700">DOTUSDT · AB=CD</text>
  <text x="904" y="74" fill="#8ba0b5" font-size="20" text-anchor="end">Bearish (매도) · Score 87.2</text>
  <line x1="72" y1="58" x2="920" y2="58" stroke="#223045" stroke-width="1" stroke-dasharray="4 8" /><line x1="72" y1="156" x2="920" y2="156" stroke="#223045" stroke-width="1" stroke-dasharray="4 8" /><line x1="72" y1="255" x2="920" y2="255" stroke="#223045" stroke-width="1" stroke-dasharray="4 8" /><line x1="72" y1="353" x2="920" y2="353" stroke="#223045" stroke-width="1" stroke-dasharray="4 8" /><line x1="72" y1="452" x2="920" y2="452" stroke="#223045" stroke-width="1" stroke-dasharray="4 8" />
  <rect x="612.91" y="265.46" width="84" height="62.90" fill="#fbbf24" fill-opacity="0.12" stroke="#fbbf24" stroke-width="1.5" stroke-dasharray="6 6" />
  <line x1="72.00" y1="58.00" x2="72.00" y2="180.28" stroke="#0ecb81" stroke-width="1.4" /><rect x="69.00" y="94.68" width="6" height="67.93" rx="1.5" fill="#0ecb81" /><line x1="82.73" y1="66.15" x2="82.73" y2="143.59" stroke="#f6465d" stroke-width="1.4" /><rect x="79.73" y="94.68" width="6" height="44.83" rx="1.5" fill="#f6465d" /><line x1="93.47" y1="127.29" x2="93.47" y2="158.54" stroke="#f6465d" stroke-width="1.4" /><rect x="90.47" y="139.52" width="6" height="14.94" rx="1.5" fill="#f6465d" /><line x1="104.20" y1="139.52" x2="104.20" y2="180.28" stroke="#f6465d" stroke-width="1.4" /><rect x="101.20" y="154.46" width="6" height="4.08" rx="1.5" fill="#f6465d" /><line x1="114.94" y1="149.03" x2="114.94" y2="174.84" stroke="#0ecb81" stroke-width="1.4" /><rect x="111.94" y="154.46" width="6" height="4.08" rx="1.5" fill="#0ecb81" /><line x1="125.67" y1="144.95" x2="125.67" y2="174.84" stroke="#0ecb81" stroke-width="1.4" /><rect x="122.67" y="147.67" width="6" height="8.15" rx="1.5" fill="#0ecb81" /><line x1="136.41" y1="147.67" x2="136.41" y2="206.09" stroke="#f6465d" stroke-width="1.4" /><rect x="133.41" y="149.03" width="6" height="40.76" rx="1.5" fill="#f6465d" /><line x1="147.14" y1="177.56" x2="147.14" y2="214.24" stroke="#f6465d" stroke-width="1.4" /><rect x="144.14" y="189.79" width="6" height="19.02" rx="1.5" fill="#f6465d" /><line x1="157.87" y1="204.73" x2="157.87" y2="241.41" stroke="#f6465d" stroke-width="1.4" /><rect x="154.87" y="210.17" width="6" height="2.72" rx="1.5" fill="#f6465d" /><line x1="168.61" y1="177.56" x2="168.61" y2="215.60" stroke="#0ecb81" stroke-width="1.4" /><rect x="165.61" y="182.99" width="6" height="29.89" rx="1.5" fill="#0ecb81" /><line x1="179.34" y1="168.05" x2="179.34" y2="197.94" stroke="#0ecb81" stroke-width="1.4" /><rect x="176.34" y="181.63" width="6" height="2.00" rx="1.5" fill="#0ecb81" /><line x1="190.08" y1="178.92" x2="190.08" y2="214.24" stroke="#f6465d" stroke-width="1.4" /><rect x="187.08" y="181.63" width="6" height="24.46" rx="1.5" fill="#f6465d" /><line x1="200.81" y1="182.99" x2="200.81" y2="216.96" stroke="#0ecb81" stroke-width="1.4" /><rect x="197.81" y="193.86" width="6" height="10.87" rx="1.5" fill="#0ecb81" /><line x1="211.54" y1="192.50" x2="211.54" y2="237.34" stroke="#f6465d" stroke-width="1.4" /><rect x="208.54" y="195.22" width="6" height="33.97" rx="1.5" fill="#f6465d" /><line x1="222.28" y1="207.45" x2="222.28" y2="235.98" stroke="#0ecb81" stroke-width="1.4" /><rect x="219.28" y="227.83" width="6" height="2.00" rx="1.5" fill="#0ecb81" /><line x1="233.01" y1="229.19" x2="233.01" y2="261.79" stroke="#f6465d" stroke-width="1.4" /><rect x="230.01" y="229.19" width="6" height="9.51" rx="1.5" fill="#f6465d" /><line x1="243.75" y1="229.19" x2="243.75" y2="268.59" stroke="#f6465d" stroke-width="1.4" /><rect x="240.75" y="237.34" width="6" height="24.46" rx="1.5" fill="#f6465d" /><line x1="254.48" y1="261.79" x2="254.48" y2="295.76" stroke="#f6465d" stroke-width="1.4" /><rect x="251.48" y="261.79" width="6" height="20.38" rx="1.5" fill="#f6465d" /><line x1="265.22" y1="280.81" x2="265.22" y2="313.42" stroke="#f6465d" stroke-width="1.4" /><rect x="262.22" y="282.17" width="6" height="20.38" rx="1.5" fill="#f6465d" /><line x1="275.95" y1="269.94" x2="275.95" y2="303.91" stroke="#0ecb81" stroke-width="1.4" /><rect x="272.95" y="288.97" width="6" height="13.59" rx="1.5" fill="#0ecb81" /><line x1="286.68" y1="275.38" x2="286.68" y2="320.21" stroke="#f6465d" stroke-width="1.4" /><rect x="283.68" y="288.97" width="6" height="23.10" rx="1.5" fill="#f6465d" /><line x1="297.42" y1="280.81" x2="297.42" y2="318.86" stroke="#0ecb81" stroke-width="1.4" /><rect x="294.42" y="290.32" width="6" height="21.74" rx="1.5" fill="#0ecb81" /><line x1="308.15" y1="265.87" x2="308.15" y2="298.48" stroke="#f6465d" stroke-width="1.4" /><rect x="305.15" y="290.32" width="6" height="2.00" rx="1.5" fill="#f6465d" /><line x1="318.89" y1="283.53" x2="318.89" y2="302.55" stroke="#0ecb81" stroke-width="1.4" /><rect x="315.89" y="287.61" width="6" height="4.08" rx="1.5" fill="#0ecb81" /><line x1="329.62" y1="283.53" x2="329.62" y2="358.26" stroke="#f6465d" stroke-width="1.4" /><rect x="326.62" y="286.25" width="6" height="58.42" rx="1.5" fill="#f6465d" /><line x1="340.35" y1="327.01" x2="340.35" y2="356.90" stroke="#f6465d" stroke-width="1.4" /><rect x="337.35" y="344.67" width="6" height="5.43" rx="1.5" fill="#f6465d" /><line x1="351.09" y1="333.80" x2="351.09" y2="360.97" stroke="#0ecb81" stroke-width="1.4" /><rect x="348.09" y="346.03" width="6" height="4.08" rx="1.5" fill="#0ecb81" /><line x1="361.82" y1="327.01" x2="361.82" y2="358.26" stroke="#0ecb81" stroke-width="1.4" /><rect x="358.82" y="333.80" width="6" height="10.87" rx="1.5" fill="#0ecb81" /><line x1="372.56" y1="329.72" x2="372.56" y2="359.61" stroke="#f6465d" stroke-width="1.4" /><rect x="369.56" y="332.44" width="6" height="9.51" rx="1.5" fill="#f6465d" /><line x1="383.29" y1="318.86" x2="383.29" y2="348.74" stroke="#0ecb81" stroke-width="1.4" /><rect x="380.29" y="318.86" width="6" height="23.10" rx="1.5" fill="#0ecb81" /><line x1="394.03" y1="312.06" x2="394.03" y2="340.59" stroke="#f6465d" stroke-width="1.4" /><rect x="391.03" y="318.86" width="6" height="17.66" rx="1.5" fill="#f6465d" /><line x1="404.76" y1="312.06" x2="404.76" y2="355.54" stroke="#0ecb81" stroke-width="1.4" /><rect x="401.76" y="337.88" width="6" height="2.00" rx="1.5" fill="#0ecb81" /><line x1="415.49" y1="332.44" x2="415.49" y2="354.18" stroke="#f6465d" stroke-width="1.4" /><rect x="412.49" y="337.88" width="6" height="5.43" rx="1.5" fill="#f6465d" /><line x1="426.23" y1="339.23" x2="426.23" y2="384.07" stroke="#f6465d" stroke-width="1.4" /><rect x="423.23" y="343.31" width="6" height="33.97" rx="1.5" fill="#f6465d" /><line x1="436.96" y1="358.26" x2="436.96" y2="392.22" stroke="#0ecb81" stroke-width="1.4" /><rect x="433.96" y="362.33" width="6" height="13.59" rx="1.5" fill="#0ecb81" /><line x1="447.70" y1="355.54" x2="447.70" y2="370.48" stroke="#f6465d" stroke-width="1.4" /><rect x="444.70" y="360.97" width="6" height="2.00" rx="1.5" fill="#f6465d" /><line x1="458.43" y1="352.82" x2="458.43" y2="371.84" stroke="#f6465d" stroke-width="1.4" /><rect x="455.43" y="362.33" width="6" height="2.72" rx="1.5" fill="#f6465d" /><line x1="469.16" y1="362.33" x2="469.16" y2="382.71" stroke="#f6465d" stroke-width="1.4" /><rect x="466.16" y="365.05" width="6" height="14.94" rx="1.5" fill="#f6465d" /><line x1="479.90" y1="374.56" x2="479.90" y2="390.86" stroke="#f6465d" stroke-width="1.4" /><rect x="476.90" y="379.99" width="6" height="4.08" rx="1.5" fill="#f6465d" /><line x1="490.63" y1="363.69" x2="490.63" y2="430.26" stroke="#0ecb81" stroke-width="1.4" /><rect x="487.63" y="373.20" width="6" height="10.87" rx="1.5" fill="#0ecb81" /><line x1="501.37" y1="337.88" x2="501.37" y2="374.56" stroke="#0ecb81" stroke-width="1.4" /><rect x="498.37" y="358.26" width="6" height="14.94" rx="1.5" fill="#0ecb81" /><line x1="512.10" y1="350.10" x2="512.10" y2="375.92" stroke="#0ecb81" stroke-width="1.4" /><rect x="509.10" y="350.10" width="6" height="8.15" rx="1.5" fill="#0ecb81" /><line x1="522.84" y1="337.88" x2="522.84" y2="367.77" stroke="#0ecb81" stroke-width="1.4" /><rect x="519.84" y="346.03" width="6" height="4.08" rx="1.5" fill="#0ecb81" /><line x1="533.57" y1="340.59" x2="533.57" y2="375.92" stroke="#f6465d" stroke-width="1.4" /><rect x="530.57" y="346.03" width="6" height="24.46" rx="1.5" fill="#f6465d" /><line x1="544.30" y1="363.69" x2="544.30" y2="412.60" stroke="#f6465d" stroke-width="1.4" /><rect x="541.30" y="370.48" width="6" height="32.61" rx="1.5" fill="#f6465d" /><line x1="555.04" y1="386.79" x2="555.04" y2="411.24" stroke="#0ecb81" stroke-width="1.4" /><rect x="552.04" y="396.30" width="6" height="6.79" rx="1.5" fill="#0ecb81" /><line x1="565.77" y1="367.77" x2="565.77" y2="407.17" stroke="#0ecb81" stroke-width="1.4" /><rect x="562.77" y="384.07" width="6" height="13.59" rx="1.5" fill="#0ecb81" /><line x1="576.51" y1="378.63" x2="576.51" y2="404.45" stroke="#0ecb81" stroke-width="1.4" /><rect x="573.51" y="379.99" width="6" height="4.08" rx="1.5" fill="#0ecb81" /><line x1="587.24" y1="377.28" x2="587.24" y2="420.75" stroke="#f6465d" stroke-width="1.4" /><rect x="584.24" y="379.99" width="6" height="23.10" rx="1.5" fill="#f6465d" /><line x1="597.97" y1="350.10" x2="597.97" y2="411.24" stroke="#0ecb81" stroke-width="1.4" /><rect x="594.97" y="385.43" width="6" height="17.66" rx="1.5" fill="#0ecb81" /><line x1="608.71" y1="351.46" x2="608.71" y2="385.43" stroke="#0ecb81" stroke-width="1.4" /><rect x="605.71" y="362.33" width="6" height="23.10" rx="1.5" fill="#0ecb81" /><line x1="619.44" y1="359.61" x2="619.44" y2="388.14" stroke="#f6465d" stroke-width="1.4" /><rect x="616.44" y="362.33" width="6" height="23.10" rx="1.5" fill="#f6465d" /><line x1="630.18" y1="367.77" x2="630.18" y2="392.22" stroke="#0ecb81" stroke-width="1.4" /><rect x="627.18" y="373.20" width="6" height="12.23" rx="1.5" fill="#0ecb81" /><line x1="640.91" y1="317.50" x2="640.91" y2="374.56" stroke="#0ecb81" stroke-width="1.4" /><rect x="637.91" y="336.52" width="6" height="36.68" rx="1.5" fill="#0ecb81" /><line x1="651.65" y1="331.08" x2="651.65" y2="362.33" stroke="#f6465d" stroke-width="1.4" /><rect x="648.65" y="336.52" width="6" height="16.30" rx="1.5" fill="#f6465d" /><line x1="662.38" y1="328.37" x2="662.38" y2="370.48" stroke="#0ecb81" stroke-width="1.4" /><rect x="659.38" y="352.82" width="6" height="2.00" rx="1.5" fill="#0ecb81" /><line x1="673.11" y1="341.95" x2="673.11" y2="379.99" stroke="#f6465d" stroke-width="1.4" /><rect x="670.11" y="354.18" width="6" height="14.94" rx="1.5" fill="#f6465d" /><line x1="683.85" y1="360.97" x2="683.85" y2="388.14" stroke="#f6465d" stroke-width="1.4" /><rect x="680.85" y="369.12" width="6" height="12.23" rx="1.5" fill="#f6465d" /><line x1="694.58" y1="360.97" x2="694.58" y2="443.85" stroke="#f6465d" stroke-width="1.4" /><rect x="691.58" y="379.99" width="6" height="52.99" rx="1.5" fill="#f6465d" /><line x1="705.32" y1="419.39" x2="705.32" y2="439.77" stroke="#0ecb81" stroke-width="1.4" /><rect x="702.32" y="422.11" width="6" height="10.87" rx="1.5" fill="#0ecb81" /><line x1="716.05" y1="422.11" x2="716.05" y2="447.92" stroke="#f6465d" stroke-width="1.4" /><rect x="713.05" y="422.11" width="6" height="10.87" rx="1.5" fill="#f6465d" /><line x1="726.78" y1="409.88" x2="726.78" y2="452.00" stroke="#0ecb81" stroke-width="1.4" /><rect x="723.78" y="427.54" width="6" height="5.43" rx="1.5" fill="#0ecb81" /><line x1="737.52" y1="411.24" x2="737.52" y2="434.34" stroke="#0ecb81" stroke-width="1.4" /><rect x="734.52" y="419.39" width="6" height="8.15" rx="1.5" fill="#0ecb81" /><line x1="748.25" y1="404.45" x2="748.25" y2="423.47" stroke="#0ecb81" stroke-width="1.4" /><rect x="745.25" y="405.81" width="6" height="13.59" rx="1.5" fill="#0ecb81" /><line x1="758.99" y1="396.30" x2="758.99" y2="416.68" stroke="#0ecb81" stroke-width="1.4" /><rect x="755.99" y="405.81" width="6" height="2.00" rx="1.5" fill="#0ecb81" /><line x1="769.72" y1="373.20" x2="769.72" y2="409.88" stroke="#0ecb81" stroke-width="1.4" /><rect x="766.72" y="386.79" width="6" height="20.38" rx="1.5" fill="#0ecb81" /><line x1="780.46" y1="374.56" x2="780.46" y2="397.66" stroke="#0ecb81" stroke-width="1.4" /><rect x="777.46" y="381.35" width="6" height="5.43" rx="1.5" fill="#0ecb81" /><line x1="791.19" y1="365.05" x2="791.19" y2="393.58" stroke="#f6465d" stroke-width="1.4" /><rect x="788.19" y="379.99" width="6" height="9.51" rx="1.5" fill="#f6465d" /><line x1="801.92" y1="378.63" x2="801.92" y2="405.81" stroke="#f6465d" stroke-width="1.4" /><rect x="798.92" y="389.50" width="6" height="9.51" rx="1.5" fill="#f6465d" /><line x1="812.66" y1="386.79" x2="812.66" y2="411.24" stroke="#f6465d" stroke-width="1.4" /><rect x="809.66" y="397.66" width="6" height="6.79" rx="1.5" fill="#f6465d" /><line x1="823.39" y1="392.22" x2="823.39" y2="411.24" stroke="#0ecb81" stroke-width="1.4" /><rect x="820.39" y="394.94" width="6" height="9.51" rx="1.5" fill="#0ecb81" /><line x1="834.13" y1="388.14" x2="834.13" y2="401.73" stroke="#0ecb81" stroke-width="1.4" /><rect x="831.13" y="392.22" width="6" height="2.72" rx="1.5" fill="#0ecb81" /><line x1="844.86" y1="378.63" x2="844.86" y2="401.73" stroke="#0ecb81" stroke-width="1.4" /><rect x="841.86" y="381.35" width="6" height="10.87" rx="1.5" fill="#0ecb81" /><line x1="855.59" y1="374.56" x2="855.59" y2="396.30" stroke="#f6465d" stroke-width="1.4" /><rect x="852.59" y="381.35" width="6" height="6.79" rx="1.5" fill="#f6465d" /><line x1="866.33" y1="366.41" x2="866.33" y2="390.86" stroke="#0ecb81" stroke-width="1.4" /><rect x="863.33" y="379.99" width="6" height="8.15" rx="1.5" fill="#0ecb81" /><line x1="877.06" y1="378.63" x2="877.06" y2="392.22" stroke="#f6465d" stroke-width="1.4" /><rect x="874.06" y="379.99" width="6" height="2.72" rx="1.5" fill="#f6465d" /><line x1="887.80" y1="381.35" x2="887.80" y2="393.58" stroke="#f6465d" stroke-width="1.4" /><rect x="884.80" y="382.71" width="6" height="5.43" rx="1.5" fill="#f6465d" /><line x1="898.53" y1="388.14" x2="898.53" y2="422.11" stroke="#f6465d" stroke-width="1.4" /><rect x="895.53" y="388.14" width="6" height="29.89" rx="1.5" fill="#f6465d" /><line x1="909.27" y1="412.60" x2="909.27" y2="424.83" stroke="#f6465d" stroke-width="1.4" /><rect x="906.27" y="419.39" width="6" height="2.00" rx="1.5" fill="#f6465d" /><line x1="920.00" y1="415.32" x2="920.00" y2="430.26" stroke="#f6465d" stroke-width="1.4" /><rect x="917.00" y="420.75" width="6" height="2.72" rx="1.5" fill="#f6465d" />
  <polyline points="404.76,312.06 490.63,430.26 522.84,337.88 587.24,420.75 640.91,317.50" fill="none" stroke="#2fc273" stroke-width="4" stroke-linecap="round" stroke-linejoin="round" />
  <circle cx="404.76" cy="312.06" r="5.5" fill="#2fc273" fill-opacity="0.15" stroke="#2fc273" stroke-width="2" /><text x="404.76" y="300.06" fill="#f3f4f6" font-size="15" font-weight="700" text-anchor="middle">X</text><circle cx="490.63" cy="430.26" r="5.5" fill="#2fc273" fill-opacity="0.15" stroke="#2fc273" stroke-width="2" /><text x="490.63" y="418.26" fill="#f3f4f6" font-size="15" font-weight="700" text-anchor="middle">A</text><circle cx="522.84" cy="337.88" r="5.5" fill="#2fc273" fill-opacity="0.15" stroke="#2fc273" stroke-width="2" /><text x="522.84" y="325.88" fill="#f3f4f6" font-size="15" font-weight="700" text-anchor="middle">B</text><circle cx="587.24" cy="420.75" r="5.5" fill="#2fc273" fill-opacity="0.15" stroke="#2fc273" stroke-width="2" /><text x="587.24" y="408.75" fill="#f3f4f6" font-size="15" font-weight="700" text-anchor="middle">C</text><circle cx="640.91" cy="317.50" r="5.5" fill="#2fc273" fill-opacity="0.15" stroke="#2fc273" stroke-width="2" /><text x="640.91" y="305.50" fill="#f3f4f6" font-size="15" font-weight="700" text-anchor="middle">D</text>
  <text x="56" y="492" fill="#8ba0b5" font-size="18">일반 완성 · TP1 1.272 · TP2 1.254 · SL 1.3123</text>
</svg>
