<svg xmlns="http://www.w3.org/2000/svg" width="960" height="540" viewBox="0 0 960 540">
  <rect width="960" height="540" rx="24" fill="#0b1220" />
  <rect x="28" y="28" width="904" height="484" rx="22" fill="#111827" stroke="#1f2937" />
  <text x="56" y="74" fill="#f3f4f6" font-size="34" font-weight="700">ETHFIUSDT · AB=CD</text>
  <text x="904" y="74" fill="#8ba0b5" font-size="20" text-anchor="end">Bullish (매수) · Score 88.8</text>
  <line x1="72" y1="58" x2="920" y2="58" stroke="#223045" stroke-width="1" stroke-dasharray="4 8" /><line x1="72" y1="156" x2="920" y2="156" stroke="#223045" stroke-width="1" stroke-dasharray="4 8" /><line x1="72" y1="255" x2="920" y2="255" stroke="#223045" stroke-width="1" stroke-dasharray="4 8" /><line x1="72" y1="353" x2="920" y2="353" stroke="#223045" stroke-width="1" stroke-dasharray="4 8" /><line x1="72" y1="452" x2="920" y2="452" stroke="#223045" stroke-width="1" stroke-dasharray="4 8" />
  <rect x="816.86" y="183.74" width="84" height="35.96" fill="#fbbf24" fill-opacity="0.12" stroke="#fbbf24" stroke-width="1.5" stroke-dasharray="6 6" />
  <line x1="72.00" y1="354.05" x2="72.00" y2="408.76" stroke="#f6465d" stroke-width="1.4" /><rect x="69.00" y="363.32" width="6" height="12.35" rx="1.5" fill="#f6465d" /><line x1="82.73" y1="334.64" x2="82.73" y2="435.68" stroke="#0ecb81" stroke-width="1.4" /><rect x="79.73" y="365.52" width="6" height="10.15" rx="1.5" fill="#0ecb81" /><line x1="93.47" y1="335.96" x2="93.47" y2="404.35" stroke="#f6465d" stroke-width="1.4" /><rect x="90.47" y="365.52" width="6" height="27.35" rx="1.5" fill="#f6465d" /><line x1="104.20" y1="390.23" x2="104.20" y2="425.09" stroke="#f6465d" stroke-width="1.4" /><rect x="101.20" y="392.88" width="6" height="12.35" rx="1.5" fill="#f6465d" /><line x1="114.94" y1="322.73" x2="114.94" y2="429.50" stroke="#0ecb81" stroke-width="1.4" /><rect x="111.94" y="349.20" width="6" height="56.03" rx="1.5" fill="#0ecb81" /><line x1="125.67" y1="260.52" x2="125.67" y2="373.91" stroke="#0ecb81" stroke-width="1.4" /><rect x="122.67" y="273.75" width="6" height="75.45" rx="1.5" fill="#0ecb81" /><line x1="136.41" y1="248.16" x2="136.41" y2="300.22" stroke="#f6465d" stroke-width="1.4" /><rect x="133.41" y="274.19" width="6" height="2.65" rx="1.5" fill="#f6465d" /><line x1="147.14" y1="251.25" x2="147.14" y2="335.08" stroke="#f6465d" stroke-width="1.4" /><rect x="144.14" y="277.28" width="6" height="53.39" rx="1.5" fill="#f6465d" /><line x1="157.87" y1="319.64" x2="157.87" y2="370.38" stroke="#f6465d" stroke-width="1.4" /><rect x="154.87" y="331.11" width="6" height="30.88" rx="1.5" fill="#f6465d" /><line x1="168.61" y1="355.82" x2="168.61" y2="391.11" stroke="#f6465d" stroke-width="1.4" /><rect x="165.61" y="361.55" width="6" height="27.35" rx="1.5" fill="#f6465d" /><line x1="179.34" y1="328.46" x2="179.34" y2="402.14" stroke="#0ecb81" stroke-width="1.4" /><rect x="176.34" y="336.40" width="6" height="52.50" rx="1.5" fill="#0ecb81" /><line x1="190.08" y1="324.49" x2="190.08" y2="370.38" stroke="#f6465d" stroke-width="1.4" /><rect x="187.08" y="336.40" width="6" height="10.15" rx="1.5" fill="#f6465d" /><line x1="200.81" y1="313.02" x2="200.81" y2="356.26" stroke="#0ecb81" stroke-width="1.4" /><rect x="197.81" y="330.67" width="6" height="15.44" rx="1.5" fill="#0ecb81" /><line x1="211.54" y1="313.46" x2="211.54" y2="394.20" stroke="#f6465d" stroke-width="1.4" /><rect x="208.54" y="331.11" width="6" height="16.77" rx="1.5" fill="#f6465d" /><line x1="222.28" y1="279.05" x2="222.28" y2="350.96" stroke="#0ecb81" stroke-width="1.4" /><rect x="219.28" y="303.31" width="6" height="44.56" rx="1.5" fill="#0ecb81" /><line x1="233.01" y1="261.84" x2="233.01" y2="325.81" stroke="#f6465d" stroke-width="1.4" /><rect x="230.01" y="303.31" width="6" height="11.91" rx="1.5" fill="#f6465d" /><line x1="243.75" y1="279.49" x2="243.75" y2="350.52" stroke="#0ecb81" stroke-width="1.4" /><rect x="240.75" y="302.87" width="6" height="12.35" rx="1.5" fill="#0ecb81" /><line x1="254.48" y1="268.46" x2="254.48" y2="328.90" stroke="#f6465d" stroke-width="1.4" /><rect x="251.48" y="302.87" width="6" height="17.21" rx="1.5" fill="#f6465d" /><line x1="265.22" y1="274.63" x2="265.22" y2="333.31" stroke="#0ecb81" stroke-width="1.4" /><rect x="262.22" y="278.16" width="6" height="41.91" rx="1.5" fill="#0ecb81" /><line x1="275.95" y1="197.42" x2="275.95" y2="288.75" stroke="#0ecb81" stroke-width="1.4" /><rect x="272.95" y="229.63" width="6" height="48.09" rx="1.5" fill="#0ecb81" /><line x1="286.68" y1="187.27" x2="286.68" y2="241.54" stroke="#f6465d" stroke-width="1.4" /><rect x="283.68" y="229.63" width="6" height="2.00" rx="1.5" fill="#f6465d" /><line x1="297.42" y1="200.51" x2="297.42" y2="285.66" stroke="#f6465d" stroke-width="1.4" /><rect x="294.42" y="229.63" width="6" height="52.95" rx="1.5" fill="#f6465d" /><line x1="308.15" y1="223.01" x2="308.15" y2="305.08" stroke="#0ecb81" stroke-width="1.4" /><rect x="305.15" y="248.60" width="6" height="33.97" rx="1.5" fill="#0ecb81" /><line x1="318.89" y1="211.10" x2="318.89" y2="279.49" stroke="#0ecb81" stroke-width="1.4" /><rect x="315.89" y="223.89" width="6" height="24.71" rx="1.5" fill="#0ecb81" /><line x1="329.62" y1="164.33" x2="329.62" y2="224.78" stroke="#0ecb81" stroke-width="1.4" /><rect x="326.62" y="208.89" width="6" height="15.44" rx="1.5" fill="#0ecb81" /><line x1="340.35" y1="168.74" x2="340.35" y2="241.54" stroke="#f6465d" stroke-width="1.4" /><rect x="337.35" y="209.33" width="6" height="20.74" rx="1.5" fill="#f6465d" /><line x1="351.09" y1="226.10" x2="351.09" y2="251.69" stroke="#f6465d" stroke-width="1.4" /><rect x="348.09" y="229.63" width="6" height="16.77" rx="1.5" fill="#f6465d" /><line x1="361.82" y1="244.19" x2="361.82" y2="282.13" stroke="#f6465d" stroke-width="1.4" /><rect x="358.82" y="246.40" width="6" height="2.65" rx="1.5" fill="#f6465d" /><line x1="372.56" y1="212.42" x2="372.56" y2="300.22" stroke="#f6465d" stroke-width="1.4" /><rect x="369.56" y="249.04" width="6" height="33.97" rx="1.5" fill="#f6465d" /><line x1="383.29" y1="279.93" x2="383.29" y2="331.11" stroke="#f6465d" stroke-width="1.4" /><rect x="380.29" y="282.58" width="6" height="24.27" rx="1.5" fill="#f6465d" /><line x1="394.03" y1="283.90" x2="394.03" y2="318.31" stroke="#f6465d" stroke-width="1.4" /><rect x="391.03" y="306.40" width="6" height="5.74" rx="1.5" fill="#f6465d" /><line x1="404.76" y1="308.61" x2="404.76" y2="358.90" stroke="#f6465d" stroke-width="1.4" /><rect x="401.76" y="312.14" width="6" height="43.24" rx="1.5" fill="#f6465d" /><line x1="415.49" y1="352.73" x2="415.49" y2="433.91" stroke="#f6465d" stroke-width="1.4" /><rect x="412.49" y="354.93" width="6" height="68.39" rx="1.5" fill="#f6465d" /><line x1="426.23" y1="420.67" x2="426.23" y2="452.00" stroke="#f6465d" stroke-width="1.4" /><rect x="423.23" y="423.76" width="6" height="9.71" rx="1.5" fill="#f6465d" /><line x1="436.96" y1="393.32" x2="436.96" y2="443.62" stroke="#0ecb81" stroke-width="1.4" /><rect x="433.96" y="399.05" width="6" height="34.41" rx="1.5" fill="#0ecb81" /><line x1="447.70" y1="370.38" x2="447.70" y2="417.14" stroke="#0ecb81" stroke-width="1.4" /><rect x="444.70" y="391.55" width="6" height="7.50" rx="1.5" fill="#0ecb81" /><line x1="458.43" y1="374.79" x2="458.43" y2="399.50" stroke="#0ecb81" stroke-width="1.4" /><rect x="455.43" y="383.17" width="6" height="8.38" rx="1.5" fill="#0ecb81" /><line x1="469.16" y1="316.55" x2="469.16" y2="385.82" stroke="#0ecb81" stroke-width="1.4" /><rect x="466.16" y="339.49" width="6" height="43.24" rx="1.5" fill="#0ecb81" /><line x1="479.90" y1="314.78" x2="479.90" y2="385.82" stroke="#f6465d" stroke-width="1.4" /><rect x="476.90" y="339.05" width="6" height="40.59" rx="1.5" fill="#f6465d" /><line x1="490.63" y1="355.82" x2="490.63" y2="383.61" stroke="#0ecb81" stroke-width="1.4" /><rect x="487.63" y="373.91" width="6" height="5.74" rx="1.5" fill="#0ecb81" /><line x1="501.37" y1="334.20" x2="501.37" y2="381.85" stroke="#0ecb81" stroke-width="1.4" /><rect x="498.37" y="345.23" width="6" height="28.68" rx="1.5" fill="#0ecb81" /><line x1="512.10" y1="340.37" x2="512.10" y2="394.64" stroke="#f6465d" stroke-width="1.4" /><rect x="509.10" y="345.23" width="6" height="30.88" rx="1.5" fill="#f6465d" /><line x1="522.84" y1="264.49" x2="522.84" y2="378.76" stroke="#0ecb81" stroke-width="1.4" /><rect x="519.84" y="280.37" width="6" height="95.74" rx="1.5" fill="#0ecb81" /><line x1="533.57" y1="166.98" x2="533.57" y2="287.43" stroke="#0ecb81" stroke-width="1.4" /><rect x="530.57" y="182.42" width="6" height="97.95" rx="1.5" fill="#0ecb81" /><line x1="544.30" y1="136.09" x2="544.30" y2="230.51" stroke="#0ecb81" stroke-width="1.4" /><rect x="541.30" y="172.71" width="6" height="9.27" rx="1.5" fill="#0ecb81" /><line x1="555.04" y1="139.18" x2="555.04" y2="189.48" stroke="#f6465d" stroke-width="1.4" /><rect x="552.04" y="172.27" width="6" height="3.97" rx="1.5" fill="#f6465d" /><line x1="565.77" y1="114.92" x2="565.77" y2="179.77" stroke="#0ecb81" stroke-width="1.4" /><rect x="562.77" y="136.98" width="6" height="39.27" rx="1.5" fill="#0ecb81" /><line x1="576.51" y1="119.77" x2="576.51" y2="218.60" stroke="#f6465d" stroke-width="1.4" /><rect x="573.51" y="136.54" width="6" height="37.94" rx="1.5" fill="#f6465d" /><line x1="587.24" y1="165.21" x2="587.24" y2="228.31" stroke="#f6465d" stroke-width="1.4" /><rect x="584.24" y="174.04" width="6" height="28.24" rx="1.5" fill="#f6465d" /><line x1="597.97" y1="172.71" x2="597.97" y2="217.72" stroke="#f6465d" stroke-width="1.4" /><rect x="594.97" y="202.28" width="6" height="6.62" rx="1.5" fill="#f6465d" /><line x1="608.71" y1="204.04" x2="608.71" y2="237.57" stroke="#f6465d" stroke-width="1.4" /><rect x="605.71" y="208.45" width="6" height="5.74" rx="1.5" fill="#f6465d" /><line x1="619.44" y1="196.10" x2="619.44" y2="267.13" stroke="#f6465d" stroke-width="1.4" /><rect x="616.44" y="213.75" width="6" height="48.09" rx="1.5" fill="#f6465d" /><line x1="630.18" y1="210.22" x2="630.18" y2="277.28" stroke="#0ecb81" stroke-width="1.4" /><rect x="627.18" y="241.98" width="6" height="19.85" rx="1.5" fill="#0ecb81" /><line x1="640.91" y1="239.78" x2="640.91" y2="297.14" stroke="#f6465d" stroke-width="1.4" /><rect x="637.91" y="241.54" width="6" height="43.24" rx="1.5" fill="#f6465d" /><line x1="651.65" y1="210.66" x2="651.65" y2="301.11" stroke="#0ecb81" stroke-width="1.4" /><rect x="648.65" y="242.87" width="6" height="41.91" rx="1.5" fill="#0ecb81" /><line x1="662.38" y1="242.87" x2="662.38" y2="306.84" stroke="#f6465d" stroke-width="1.4" /><rect x="659.38" y="242.87" width="6" height="15.00" rx="1.5" fill="#f6465d" /><line x1="673.11" y1="159.92" x2="673.11" y2="263.60" stroke="#0ecb81" stroke-width="1.4" /><rect x="670.11" y="182.86" width="6" height="75.01" rx="1.5" fill="#0ecb81" /><line x1="683.85" y1="166.10" x2="683.85" y2="206.69" stroke="#0ecb81" stroke-width="1.4" /><rect x="680.85" y="166.54" width="6" height="16.77" rx="1.5" fill="#0ecb81" /><line x1="694.58" y1="147.12" x2="694.58" y2="193.01" stroke="#f6465d" stroke-width="1.4" /><rect x="691.58" y="166.10" width="6" height="15.44" rx="1.5" fill="#f6465d" /><line x1="705.32" y1="139.62" x2="705.32" y2="209.33" stroke="#0ecb81" stroke-width="1.4" /><rect x="702.32" y="145.80" width="6" height="35.30" rx="1.5" fill="#0ecb81" /><line x1="716.05" y1="90.21" x2="716.05" y2="175.80" stroke="#0ecb81" stroke-width="1.4" /><rect x="713.05" y="102.12" width="6" height="44.12" rx="1.5" fill="#0ecb81" /><line x1="726.78" y1="58.00" x2="726.78" y2="111.83" stroke="#0ecb81" stroke-width="1.4" /><rect x="723.78" y="87.12" width="6" height="14.56" rx="1.5" fill="#0ecb81" /><line x1="737.52" y1="73.00" x2="737.52" y2="127.27" stroke="#f6465d" stroke-width="1.4" /><rect x="734.52" y="87.12" width="6" height="2.00" rx="1.5" fill="#f6465d" /><line x1="748.25" y1="86.68" x2="748.25" y2="136.54" stroke="#f6465d" stroke-width="1.4" /><rect x="745.25" y="88.88" width="6" height="42.36" rx="1.5" fill="#f6465d" /><line x1="758.99" y1="85.80" x2="758.99" y2="145.80" stroke="#f6465d" stroke-width="1.4" /><rect x="755.99" y="131.24" width="6" height="11.03" rx="1.5" fill="#f6465d" /><line x1="769.72" y1="125.06" x2="769.72" y2="156.83" stroke="#f6465d" stroke-width="1.4" /><rect x="766.72" y="142.27" width="6" height="2.65" rx="1.5" fill="#f6465d" /><line x1="780.46" y1="114.03" x2="780.46" y2="151.54" stroke="#0ecb81" stroke-width="1.4" /><rect x="777.46" y="138.74" width="6" height="6.18" rx="1.5" fill="#0ecb81" /><line x1="791.19" y1="122.42" x2="791.19" y2="149.33" stroke="#0ecb81" stroke-width="1.4" /><rect x="788.19" y="132.56" width="6" height="6.18" rx="1.5" fill="#0ecb81" /><line x1="801.92" y1="84.91" x2="801.92" y2="154.62" stroke="#0ecb81" stroke-width="1.4" /><rect x="798.92" y="97.71" width="6" height="35.74" rx="1.5" fill="#0ecb81" /><line x1="812.66" y1="87.12" x2="812.66" y2="154.18" stroke="#f6465d" stroke-width="1.4" /><rect x="809.66" y="97.27" width="6" height="49.42" rx="1.5" fill="#f6465d" /><line x1="823.39" y1="111.39" x2="823.39" y2="154.62" stroke="#0ecb81" stroke-width="1.4" /><rect x="820.39" y="120.21" width="6" height="26.91" rx="1.5" fill="#0ecb81" /><line x1="834.13" y1="114.92" x2="834.13" y2="156.39" stroke="#f6465d" stroke-width="1.4" /><rect x="831.13" y="120.21" width="6" height="31.33" rx="1.5" fill="#f6465d" /><line x1="844.86" y1="140.06" x2="844.86" y2="200.51" stroke="#0ecb81" stroke-width="1.4" /><rect x="841.86" y="143.59" width="6" height="7.50" rx="1.5" fill="#0ecb81" /><line x1="855.59" y1="117.56" x2="855.59" y2="167.86" stroke="#0ecb81" stroke-width="1.4" /><rect x="852.59" y="136.54" width="6" height="6.62" rx="1.5" fill="#0ecb81" /><line x1="866.33" y1="103.44" x2="866.33" y2="153.30" stroke="#0ecb81" stroke-width="1.4" /><rect x="863.33" y="121.53" width="6" height="15.00" rx="1.5" fill="#0ecb81" /><line x1="877.06" y1="91.97" x2="877.06" y2="126.39" stroke="#0ecb81" stroke-width="1.4" /><rect x="874.06" y="94.62" width="6" height="26.47" rx="1.5" fill="#0ecb81" /><line x1="887.80" y1="80.50" x2="887.80" y2="114.03" stroke="#0ecb81" stroke-width="1.4" /><rect x="884.80" y="84.47" width="6" height="9.71" rx="1.5" fill="#0ecb81" /><line x1="898.53" y1="58.44" x2="898.53" y2="103.44" stroke="#f6465d" stroke-width="1.4" /><rect x="895.53" y="85.35" width="6" height="2.21" rx="1.5" fill="#f6465d" /><line x1="909.27" y1="70.80" x2="909.27" y2="133.01" stroke="#f6465d" stroke-width="1.4" /><rect x="906.27" y="87.56" width="6" height="30.88" rx="1.5" fill="#f6465d" /><line x1="920.00" y1="112.27" x2="920.00" y2="129.48" stroke="#f6465d" stroke-width="1.4" /><rect x="917.00" y="118.00" width="6" height="4.41" rx="1.5" fill="#f6465d" />
  <polyline points="662.38,306.84 726.78,58.00 769.72,156.83 801.92,84.91 844.86,200.51" fill="none" stroke="#2fc273" stroke-width="4" stroke-linecap="round" stroke-linejoin="round" />
  <circle cx="662.38" cy="306.84" r="5.5" fill="#2fc273" fill-opacity="0.15" stroke="#2fc273" stroke-width="2" /><text x="662.38" y="294.84" fill="#f3f4f6" font-size="15" font-weight="700" text-anchor="middle">X</text><circle cx="726.78" cy="58.00" r="5.5" fill="#2fc273" fill-opacity="0.15" stroke="#2fc273" stroke-width="2" /><text x="726.78" y="46.00" fill="#f3f4f6" font-size="15" font-weight="700" text-anchor="middle">A</text><circle cx="769.72" cy="156.83" r="5.5" fill="#2fc273" fill-opacity="0.15" stroke="#2fc273" stroke-width="2" /><text x="769.72" y="144.83" fill="#f3f4f6" font-size="15" font-weight="700" text-anchor="middle">B</text><circle cx="801.92" cy="84.91" r="5.5" fill="#2fc273" fill-opacity="0.15" stroke="#2fc273" stroke-width="2" /><text x="801.92" y="72.91" fill="#f3f4f6" font-size="15" font-weight="700" text-anchor="middle">C</text><circle cx="844.86" cy="200.51" r="5.5" fill="#2fc273" fill-opacity="0.15" stroke="#2fc273" stroke-width="2" /><text x="844.86" y="188.51" fill="#f3f4f6" font-size="15" font-weight="700" text-anchor="middle">D</text>
  <text x="56" y="492" fill="#8ba0b5" font-size="18">Complete · TP1 0.44271 · TP2 0.44889 · SL 0.42537</text>
</svg>
