<svg xmlns="http://www.w3.org/2000/svg" width="960" height="540" viewBox="0 0 960 540">
  <rect width="960" height="540" rx="24" fill="#0b1220" />
  <rect x="28" y="28" width="904" height="484" rx="22" fill="#111827" stroke="#1f2937" />
  <text x="56" y="74" fill="#f3f4f6" font-size="34" font-weight="700">ETHUSDT · AB=CD</text>
  <text x="904" y="74" fill="#8ba0b5" font-size="20" text-anchor="end">Bullish (매수) · Score 83.8</text>
  <line x1="72" y1="58" x2="920" y2="58" stroke="#223045" stroke-width="1" stroke-dasharray="4 8" /><line x1="72" y1="156" x2="920" y2="156" stroke="#223045" stroke-width="1" stroke-dasharray="4 8" /><line x1="72" y1="255" x2="920" y2="255" stroke="#223045" stroke-width="1" stroke-dasharray="4 8" /><line x1="72" y1="353" x2="920" y2="353" stroke="#223045" stroke-width="1" stroke-dasharray="4 8" /><line x1="72" y1="452" x2="920" y2="452" stroke="#223045" stroke-width="1" stroke-dasharray="4 8" />
  <rect x="559.24" y="330.00" width="84" height="114.63" fill="#fbbf24" fill-opacity="0.12" stroke="#fbbf24" stroke-width="1.5" stroke-dasharray="6 6" />
  <line x1="72.00" y1="59.66" x2="72.00" y2="315.92" stroke="#0ecb81" stroke-width="1.4" /><rect x="69.00" y="156.99" width="6" height="134.90" rx="1.5" fill="#0ecb81" /><line x1="82.73" y1="69.32" x2="82.73" y2="199.59" stroke="#f6465d" stroke-width="1.4" /><rect x="79.73" y="156.97" width="6" height="9.49" rx="1.5" fill="#f6465d" /><line x1="93.47" y1="89.56" x2="93.47" y2="183.73" stroke="#0ecb81" stroke-width="1.4" /><rect x="90.47" y="127.87" width="6" height="38.61" rx="1.5" fill="#0ecb81" /><line x1="104.20" y1="109.18" x2="104.20" y2="149.26" stroke="#f6465d" stroke-width="1.4" /><rect x="101.20" y="127.88" width="6" height="3.51" rx="1.5" fill="#f6465d" /><line x1="114.94" y1="124.89" x2="114.94" y2="173.60" stroke="#f6465d" stroke-width="1.4" /><rect x="111.94" y="131.41" width="6" height="15.85" rx="1.5" fill="#f6465d" /><line x1="125.67" y1="103.16" x2="125.67" y2="166.06" stroke="#0ecb81" stroke-width="1.4" /><rect x="122.67" y="111.49" width="6" height="35.76" rx="1.5" fill="#0ecb81" /><line x1="136.41" y1="95.97" x2="136.41" y2="138.87" stroke="#0ecb81" stroke-width="1.4" /><rect x="133.41" y="110.86" width="6" height="2.00" rx="1.5" fill="#0ecb81" /><line x1="147.14" y1="103.95" x2="147.14" y2="181.18" stroke="#f6465d" stroke-width="1.4" /><rect x="144.14" y="110.87" width="6" height="45.76" rx="1.5" fill="#f6465d" /><line x1="157.87" y1="148.04" x2="157.87" y2="204.66" stroke="#f6465d" stroke-width="1.4" /><rect x="154.87" y="156.63" width="6" height="27.16" rx="1.5" fill="#f6465d" /><line x1="168.61" y1="113.62" x2="168.61" y2="185.68" stroke="#0ecb81" stroke-width="1.4" /><rect x="165.61" y="125.00" width="6" height="58.79" rx="1.5" fill="#0ecb81" /><line x1="179.34" y1="106.00" x2="179.34" y2="143.88" stroke="#0ecb81" stroke-width="1.4" /><rect x="176.34" y="121.70" width="6" height="3.29" rx="1.5" fill="#0ecb81" /><line x1="190.08" y1="88.48" x2="190.08" y2="124.58" stroke="#0ecb81" stroke-width="1.4" /><rect x="187.08" y="112.43" width="6" height="9.28" rx="1.5" fill="#0ecb81" /><line x1="200.81" y1="58.00" x2="200.81" y2="113.43" stroke="#0ecb81" stroke-width="1.4" /><rect x="197.81" y="80.57" width="6" height="31.84" rx="1.5" fill="#0ecb81" /><line x1="211.54" y1="62.20" x2="211.54" y2="139.50" stroke="#f6465d" stroke-width="1.4" /><rect x="208.54" y="80.57" width="6" height="34.89" rx="1.5" fill="#f6465d" /><line x1="222.28" y1="76.66" x2="222.28" y2="125.31" stroke="#0ecb81" stroke-width="1.4" /><rect x="219.28" y="100.42" width="6" height="15.02" rx="1.5" fill="#0ecb81" /><line x1="233.01" y1="80.60" x2="233.01" y2="120.93" stroke="#f6465d" stroke-width="1.4" /><rect x="230.01" y="100.42" width="6" height="5.58" rx="1.5" fill="#f6465d" /><line x1="243.75" y1="101.04" x2="243.75" y2="144.64" stroke="#f6465d" stroke-width="1.4" /><rect x="240.75" y="106.00" width="6" height="23.69" rx="1.5" fill="#f6465d" /><line x1="254.48" y1="127.65" x2="254.48" y2="191.63" stroke="#f6465d" stroke-width="1.4" /><rect x="251.48" y="129.69" width="6" height="44.52" rx="1.5" fill="#f6465d" /><line x1="265.22" y1="168.43" x2="265.22" y2="265.95" stroke="#f6465d" stroke-width="1.4" /><rect x="262.22" y="174.23" width="6" height="82.26" rx="1.5" fill="#f6465d" /><line x1="275.95" y1="217.16" x2="275.95" y2="281.59" stroke="#0ecb81" stroke-width="1.4" /><rect x="272.95" y="253.35" width="6" height="3.12" rx="1.5" fill="#0ecb81" /><line x1="286.68" y1="252.50" x2="286.68" y2="307.48" stroke="#f6465d" stroke-width="1.4" /><rect x="283.68" y="253.35" width="6" height="32.24" rx="1.5" fill="#f6465d" /><line x1="297.42" y1="237.17" x2="297.42" y2="289.61" stroke="#0ecb81" stroke-width="1.4" /><rect x="294.42" y="268.69" width="6" height="16.92" rx="1.5" fill="#0ecb81" /><line x1="308.15" y1="242.88" x2="308.15" y2="274.17" stroke="#0ecb81" stroke-width="1.4" /><rect x="305.15" y="266.77" width="6" height="2.00" rx="1.5" fill="#0ecb81" /><line x1="318.89" y1="250.12" x2="318.89" y2="295.37" stroke="#0ecb81" stroke-width="1.4" /><rect x="315.89" y="260.05" width="6" height="6.74" rx="1.5" fill="#0ecb81" /><line x1="329.62" y1="254.59" x2="329.62" y2="386.61" stroke="#f6465d" stroke-width="1.4" /><rect x="326.62" y="260.06" width="6" height="111.67" rx="1.5" fill="#f6465d" /><line x1="340.35" y1="342.99" x2="340.35" y2="407.66" stroke="#f6465d" stroke-width="1.4" /><rect x="337.35" y="371.73" width="6" height="2.00" rx="1.5" fill="#f6465d" /><line x1="351.09" y1="361.80" x2="351.09" y2="396.94" stroke="#0ecb81" stroke-width="1.4" /><rect x="348.09" y="371.67" width="6" height="2.00" rx="1.5" fill="#0ecb81" /><line x1="361.82" y1="364.06" x2="361.82" y2="390.17" stroke="#0ecb81" stroke-width="1.4" /><rect x="358.82" y="369.72" width="6" height="2.00" rx="1.5" fill="#0ecb81" /><line x1="372.56" y1="365.66" x2="372.56" y2="384.76" stroke="#f6465d" stroke-width="1.4" /><rect x="369.56" y="369.74" width="6" height="5.41" rx="1.5" fill="#f6465d" /><line x1="383.29" y1="345.73" x2="383.29" y2="378.06" stroke="#0ecb81" stroke-width="1.4" /><rect x="380.29" y="348.26" width="6" height="26.89" rx="1.5" fill="#0ecb81" /><line x1="394.03" y1="345.98" x2="394.03" y2="370.29" stroke="#f6465d" stroke-width="1.4" /><rect x="391.03" y="348.24" width="6" height="14.26" rx="1.5" fill="#f6465d" /><line x1="404.76" y1="283.35" x2="404.76" y2="370.25" stroke="#0ecb81" stroke-width="1.4" /><rect x="401.76" y="318.58" width="6" height="43.92" rx="1.5" fill="#0ecb81" /><line x1="415.49" y1="313.83" x2="415.49" y2="335.36" stroke="#f6465d" stroke-width="1.4" /><rect x="412.49" y="318.57" width="6" height="9.39" rx="1.5" fill="#f6465d" /><line x1="426.23" y1="319.14" x2="426.23" y2="374.84" stroke="#f6465d" stroke-width="1.4" /><rect x="423.23" y="327.96" width="6" height="38.93" rx="1.5" fill="#f6465d" /><line x1="436.96" y1="328.73" x2="436.96" y2="371.29" stroke="#0ecb81" stroke-width="1.4" /><rect x="433.96" y="341.98" width="6" height="24.90" rx="1.5" fill="#0ecb81" /><line x1="447.70" y1="339.36" x2="447.70" y2="362.73" stroke="#f6465d" stroke-width="1.4" /><rect x="444.70" y="341.98" width="6" height="7.68" rx="1.5" fill="#f6465d" /><line x1="458.43" y1="346.24" x2="458.43" y2="371.49" stroke="#f6465d" stroke-width="1.4" /><rect x="455.43" y="349.66" width="6" height="3.51" rx="1.5" fill="#f6465d" /><line x1="469.16" y1="351.19" x2="469.16" y2="383.73" stroke="#f6465d" stroke-width="1.4" /><rect x="466.16" y="353.17" width="6" height="16.22" rx="1.5" fill="#f6465d" /><line x1="479.90" y1="352.35" x2="479.90" y2="377.32" stroke="#0ecb81" stroke-width="1.4" /><rect x="476.90" y="364.55" width="6" height="4.84" rx="1.5" fill="#0ecb81" /><line x1="490.63" y1="343.70" x2="490.63" y2="452.00" stroke="#f6465d" stroke-width="1.4" /><rect x="487.63" y="364.54" width="6" height="17.36" rx="1.5" fill="#f6465d" /><line x1="501.37" y1="292.47" x2="501.37" y2="388.98" stroke="#0ecb81" stroke-width="1.4" /><rect x="498.37" y="304.86" width="6" height="77.02" rx="1.5" fill="#0ecb81" /><line x1="512.10" y1="255.81" x2="512.10" y2="304.86" stroke="#0ecb81" stroke-width="1.4" /><rect x="509.10" y="269.39" width="6" height="35.47" rx="1.5" fill="#0ecb81" /><line x1="522.84" y1="227.10" x2="522.84" y2="287.77" stroke="#0ecb81" stroke-width="1.4" /><rect x="519.84" y="251.90" width="6" height="17.50" rx="1.5" fill="#0ecb81" /><line x1="533.57" y1="230.34" x2="533.57" y2="293.04" stroke="#0ecb81" stroke-width="1.4" /><rect x="530.57" y="247.41" width="6" height="4.48" rx="1.5" fill="#0ecb81" /><line x1="544.30" y1="246.52" x2="544.30" y2="338.99" stroke="#f6465d" stroke-width="1.4" /><rect x="541.30" y="247.43" width="6" height="75.79" rx="1.5" fill="#f6465d" /><line x1="555.04" y1="283.57" x2="555.04" y2="338.32" stroke="#0ecb81" stroke-width="1.4" /><rect x="552.04" y="318.73" width="6" height="4.48" rx="1.5" fill="#0ecb81" /><line x1="565.77" y1="218.11" x2="565.77" y2="334.34" stroke="#0ecb81" stroke-width="1.4" /><rect x="562.77" y="258.60" width="6" height="60.14" rx="1.5" fill="#0ecb81" /><line x1="576.51" y1="250.37" x2="576.51" y2="296.03" stroke="#f6465d" stroke-width="1.4" /><rect x="573.51" y="258.61" width="6" height="16.31" rx="1.5" fill="#f6465d" /><line x1="587.24" y1="269.45" x2="587.24" y2="340.32" stroke="#f6465d" stroke-width="1.4" /><rect x="584.24" y="274.93" width="6" height="22.06" rx="1.5" fill="#f6465d" /><line x1="597.97" y1="220.37" x2="597.97" y2="306.48" stroke="#0ecb81" stroke-width="1.4" /><rect x="594.97" y="276.92" width="6" height="20.08" rx="1.5" fill="#0ecb81" /><line x1="608.71" y1="171.01" x2="608.71" y2="277.45" stroke="#0ecb81" stroke-width="1.4" /><rect x="605.71" y="214.11" width="6" height="62.81" rx="1.5" fill="#0ecb81" /><line x1="619.44" y1="193.48" x2="619.44" y2="227.08" stroke="#0ecb81" stroke-width="1.4" /><rect x="616.44" y="200.94" width="6" height="13.17" rx="1.5" fill="#0ecb81" /><line x1="630.18" y1="181.58" x2="630.18" y2="235.77" stroke="#f6465d" stroke-width="1.4" /><rect x="627.18" y="200.95" width="6" height="3.90" rx="1.5" fill="#f6465d" /><line x1="640.91" y1="120.96" x2="640.91" y2="208.88" stroke="#0ecb81" stroke-width="1.4" /><rect x="637.91" y="162.61" width="6" height="42.24" rx="1.5" fill="#0ecb81" /><line x1="651.65" y1="143.73" x2="651.65" y2="171.13" stroke="#0ecb81" stroke-width="1.4" /><rect x="648.65" y="156.56" width="6" height="6.05" rx="1.5" fill="#0ecb81" /><line x1="662.38" y1="133.85" x2="662.38" y2="196.39" stroke="#f6465d" stroke-width="1.4" /><rect x="659.38" y="156.56" width="6" height="2.00" rx="1.5" fill="#f6465d" /><line x1="673.11" y1="107.20" x2="673.11" y2="174.42" stroke="#0ecb81" stroke-width="1.4" /><rect x="670.11" y="147.50" width="6" height="9.43" rx="1.5" fill="#0ecb81" /><line x1="683.85" y1="111.28" x2="683.85" y2="164.00" stroke="#f6465d" stroke-width="1.4" /><rect x="680.85" y="147.48" width="6" height="2.17" rx="1.5" fill="#f6465d" /><line x1="694.58" y1="120.32" x2="694.58" y2="291.36" stroke="#f6465d" stroke-width="1.4" /><rect x="691.58" y="149.65" width="6" height="125.67" rx="1.5" fill="#f6465d" /><line x1="705.32" y1="271.30" x2="705.32" y2="301.48" stroke="#0ecb81" stroke-width="1.4" /><rect x="702.32" y="275.22" width="6" height="2.00" rx="1.5" fill="#0ecb81" /><line x1="716.05" y1="275.23" x2="716.05" y2="324.25" stroke="#f6465d" stroke-width="1.4" /><rect x="713.05" y="275.23" width="6" height="34.01" rx="1.5" fill="#f6465d" /><line x1="726.78" y1="249.51" x2="726.78" y2="333.89" stroke="#0ecb81" stroke-width="1.4" /><rect x="723.78" y="269.75" width="6" height="39.51" rx="1.5" fill="#0ecb81" /><line x1="737.52" y1="243.53" x2="737.52" y2="294.08" stroke="#0ecb81" stroke-width="1.4" /><rect x="734.52" y="260.88" width="6" height="8.88" rx="1.5" fill="#0ecb81" /><line x1="748.25" y1="247.40" x2="748.25" y2="279.01" stroke="#f6465d" stroke-width="1.4" /><rect x="745.25" y="260.87" width="6" height="12.62" rx="1.5" fill="#f6465d" /><line x1="758.99" y1="264.63" x2="758.99" y2="299.81" stroke="#f6465d" stroke-width="1.4" /><rect x="755.99" y="273.47" width="6" height="4.44" rx="1.5" fill="#f6465d" /><line x1="769.72" y1="245.62" x2="769.72" y2="288.13" stroke="#0ecb81" stroke-width="1.4" /><rect x="766.72" y="260.00" width="6" height="17.89" rx="1.5" fill="#0ecb81" /><line x1="780.46" y1="250.79" x2="780.46" y2="279.37" stroke="#f6465d" stroke-width="1.4" /><rect x="777.46" y="260.00" width="6" height="4.65" rx="1.5" fill="#f6465d" /><line x1="791.19" y1="231.54" x2="791.19" y2="296.95" stroke="#f6465d" stroke-width="1.4" /><rect x="788.19" y="264.63" width="6" height="17.30" rx="1.5" fill="#f6465d" /><line x1="801.92" y1="273.57" x2="801.92" y2="293.75" stroke="#0ecb81" stroke-width="1.4" /><rect x="798.92" y="280.26" width="6" height="2.00" rx="1.5" fill="#0ecb81" /><line x1="812.66" y1="265.96" x2="812.66" y2="284.83" stroke="#0ecb81" stroke-width="1.4" /><rect x="809.66" y="278.03" width="6" height="2.24" rx="1.5" fill="#0ecb81" /><line x1="823.39" y1="277.91" x2="823.39" y2="287.07" stroke="#f6465d" stroke-width="1.4" /><rect x="820.39" y="278.01" width="6" height="5.56" rx="1.5" fill="#f6465d" /><line x1="834.13" y1="271.18" x2="834.13" y2="286.12" stroke="#0ecb81" stroke-width="1.4" /><rect x="831.13" y="278.33" width="6" height="5.25" rx="1.5" fill="#0ecb81" /><line x1="844.86" y1="275.67" x2="844.86" y2="287.70" stroke="#f6465d" stroke-width="1.4" /><rect x="841.86" y="278.31" width="6" height="2.50" rx="1.5" fill="#f6465d" /><line x1="855.59" y1="265.96" x2="855.59" y2="292.86" stroke="#0ecb81" stroke-width="1.4" /><rect x="852.59" y="274.68" width="6" height="6.13" rx="1.5" fill="#0ecb81" /><line x1="866.33" y1="232.52" x2="866.33" y2="279.79" stroke="#0ecb81" stroke-width="1.4" /><rect x="863.33" y="261.81" width="6" height="12.87" rx="1.5" fill="#0ecb81" /><line x1="877.06" y1="250.31" x2="877.06" y2="269.49" stroke="#0ecb81" stroke-width="1.4" /><rect x="874.06" y="260.82" width="6" height="2.00" rx="1.5" fill="#0ecb81" /><line x1="887.80" y1="260.57" x2="887.80" y2="278.43" stroke="#f6465d" stroke-width="1.4" /><rect x="884.80" y="260.82" width="6" height="13.07" rx="1.5" fill="#f6465d" /><line x1="898.53" y1="271.65" x2="898.53" y2="317.79" stroke="#f6465d" stroke-width="1.4" /><rect x="895.53" y="273.89" width="6" height="29.43" rx="1.5" fill="#f6465d" /><line x1="909.27" y1="279.66" x2="909.27" y2="305.46" stroke="#0ecb81" stroke-width="1.4" /><rect x="906.27" y="296.03" width="6" height="7.29" rx="1.5" fill="#0ecb81" /><line x1="920.00" y1="296.01" x2="920.00" y2="326.33" stroke="#f6465d" stroke-width="1.4" /><rect x="917.00" y="296.03" width="6" height="20.35" rx="1.5" fill="#f6465d" />
  <polyline points="490.63,452.00 522.84,227.10 544.30,338.99 565.77,218.11 587.24,340.32" fill="none" stroke="#2fc273" stroke-width="4" stroke-linecap="round" stroke-linejoin="round" />
  <circle cx="490.63" cy="452.00" r="5.5" fill="#2fc273" fill-opacity="0.15" stroke="#2fc273" stroke-width="2" /><text x="490.63" y="440.00" fill="#f3f4f6" font-size="15" font-weight="700" text-anchor="middle">X</text><circle cx="522.84" cy="227.10" r="5.5" fill="#2fc273" fill-opacity="0.15" stroke="#2fc273" stroke-width="2" /><text x="522.84" y="215.10" fill="#f3f4f6" font-size="15" font-weight="700" text-anchor="middle">A</text><circle cx="544.30" cy="338.99" r="5.5" fill="#2fc273" fill-opacity="0.15" stroke="#2fc273" stroke-width="2" /><text x="544.30" y="326.99" fill="#f3f4f6" font-size="15" font-weight="700" text-anchor="middle">B</text><circle cx="565.77" cy="218.11" r="5.5" fill="#2fc273" fill-opacity="0.15" stroke="#2fc273" stroke-width="2" /><text x="565.77" y="206.11" fill="#f3f4f6" font-size="15" font-weight="700" text-anchor="middle">C</text><circle cx="587.24" cy="340.32" r="5.5" fill="#2fc273" fill-opacity="0.15" stroke="#2fc273" stroke-width="2" /><text x="587.24" y="328.32" fill="#f3f4f6" font-size="15" font-weight="700" text-anchor="middle">D</text>
  <text x="56" y="492" fill="#8ba0b5" font-size="18">일반 완성 · TP1 2042.48 · TP2 2061.77 · SL 1991.69</text>
</svg>
