<svg xmlns="http://www.w3.org/2000/svg" width="960" height="540" viewBox="0 0 960 540">
  <rect width="960" height="540" rx="24" fill="#0b1220" />
  <rect x="28" y="28" width="904" height="484" rx="22" fill="#111827" stroke="#1f2937" />
  <text x="56" y="74" fill="#f3f4f6" font-size="34" font-weight="700">FETUSDT · AB=CD</text>
  <text x="904" y="74" fill="#8ba0b5" font-size="20" text-anchor="end">Bullish (매수) · Score 85.2</text>
  <line x1="72" y1="58" x2="920" y2="58" stroke="#223045" stroke-width="1" stroke-dasharray="4 8" /><line x1="72" y1="156" x2="920" y2="156" stroke="#223045" stroke-width="1" stroke-dasharray="4 8" /><line x1="72" y1="255" x2="920" y2="255" stroke="#223045" stroke-width="1" stroke-dasharray="4 8" /><line x1="72" y1="353" x2="920" y2="353" stroke="#223045" stroke-width="1" stroke-dasharray="4 8" /><line x1="72" y1="452" x2="920" y2="452" stroke="#223045" stroke-width="1" stroke-dasharray="4 8" />
  <rect x="698.78" y="326.94" width="84" height="114.31" fill="#fbbf24" fill-opacity="0.12" stroke="#fbbf24" stroke-width="1.5" stroke-dasharray="6 6" />
  <line x1="72.00" y1="332.40" x2="72.00" y2="452.00" stroke="#0ecb81" stroke-width="1.4" /><rect x="69.00" y="378.54" width="6" height="55.85" rx="1.5" fill="#0ecb81" /><line x1="82.73" y1="323.90" x2="82.73" y2="390.68" stroke="#0ecb81" stroke-width="1.4" /><rect x="79.73" y="352.44" width="6" height="26.10" rx="1.5" fill="#0ecb81" /><line x1="93.47" y1="341.51" x2="93.47" y2="371.26" stroke="#f6465d" stroke-width="1.4" /><rect x="90.47" y="352.44" width="6" height="10.32" rx="1.5" fill="#f6465d" /><line x1="104.20" y1="288.69" x2="104.20" y2="371.86" stroke="#0ecb81" stroke-width="1.4" /><rect x="101.20" y="304.48" width="6" height="57.67" rx="1.5" fill="#0ecb81" /><line x1="114.94" y1="226.77" x2="114.94" y2="314.80" stroke="#0ecb81" stroke-width="1.4" /><rect x="111.94" y="263.80" width="6" height="40.67" rx="1.5" fill="#0ecb81" /><line x1="125.67" y1="248.63" x2="125.67" y2="309.33" stroke="#0ecb81" stroke-width="1.4" /><rect x="122.67" y="257.12" width="6" height="6.68" rx="1.5" fill="#0ecb81" /><line x1="136.41" y1="205.52" x2="136.41" y2="300.23" stroke="#f6465d" stroke-width="1.4" /><rect x="133.41" y="257.12" width="6" height="32.78" rx="1.5" fill="#f6465d" /><line x1="147.14" y1="254.09" x2="147.14" y2="329.98" stroke="#0ecb81" stroke-width="1.4" /><rect x="144.14" y="280.19" width="6" height="9.71" rx="1.5" fill="#0ecb81" /><line x1="157.87" y1="222.52" x2="157.87" y2="312.37" stroke="#0ecb81" stroke-width="1.4" /><rect x="154.87" y="235.27" width="6" height="44.92" rx="1.5" fill="#0ecb81" /><line x1="168.61" y1="155.74" x2="168.61" y2="235.88" stroke="#0ecb81" stroke-width="1.4" /><rect x="165.61" y="209.77" width="6" height="26.10" rx="1.5" fill="#0ecb81" /><line x1="179.34" y1="132.06" x2="179.34" y2="220.09" stroke="#0ecb81" stroke-width="1.4" /><rect x="176.34" y="153.92" width="6" height="55.85" rx="1.5" fill="#0ecb81" /><line x1="190.08" y1="137.53" x2="190.08" y2="197.02" stroke="#0ecb81" stroke-width="1.4" /><rect x="187.08" y="153.31" width="6" height="2.00" rx="1.5" fill="#0ecb81" /><line x1="200.81" y1="83.50" x2="200.81" y2="182.45" stroke="#0ecb81" stroke-width="1.4" /><rect x="197.81" y="104.14" width="6" height="49.17" rx="1.5" fill="#0ecb81" /><line x1="211.54" y1="85.32" x2="211.54" y2="184.27" stroke="#f6465d" stroke-width="1.4" /><rect x="208.54" y="104.75" width="6" height="41.89" rx="1.5" fill="#f6465d" /><line x1="222.28" y1="86.53" x2="222.28" y2="172.74" stroke="#0ecb81" stroke-width="1.4" /><rect x="219.28" y="93.82" width="6" height="52.82" rx="1.5" fill="#0ecb81" /><line x1="233.01" y1="58.00" x2="233.01" y2="146.03" stroke="#f6465d" stroke-width="1.4" /><rect x="230.01" y="93.82" width="6" height="12.14" rx="1.5" fill="#f6465d" /><line x1="243.75" y1="96.25" x2="243.75" y2="153.92" stroke="#f6465d" stroke-width="1.4" /><rect x="240.75" y="105.96" width="6" height="9.11" rx="1.5" fill="#f6465d" /><line x1="254.48" y1="111.42" x2="254.48" y2="220.09" stroke="#f6465d" stroke-width="1.4" /><rect x="251.48" y="115.07" width="6" height="95.31" rx="1.5" fill="#f6465d" /><line x1="265.22" y1="199.45" x2="265.22" y2="251.66" stroke="#f6465d" stroke-width="1.4" /><rect x="262.22" y="210.99" width="6" height="25.50" rx="1.5" fill="#f6465d" /><line x1="275.95" y1="176.99" x2="275.95" y2="240.73" stroke="#0ecb81" stroke-width="1.4" /><rect x="272.95" y="218.88" width="6" height="17.00" rx="1.5" fill="#0ecb81" /><line x1="286.68" y1="196.42" x2="286.68" y2="238.91" stroke="#0ecb81" stroke-width="1.4" /><rect x="283.68" y="217.06" width="6" height="2.00" rx="1.5" fill="#0ecb81" /><line x1="297.42" y1="182.45" x2="297.42" y2="225.56" stroke="#0ecb81" stroke-width="1.4" /><rect x="294.42" y="210.38" width="6" height="6.68" rx="1.5" fill="#0ecb81" /><line x1="308.15" y1="189.13" x2="308.15" y2="257.12" stroke="#f6465d" stroke-width="1.4" /><rect x="305.15" y="209.77" width="6" height="43.10" rx="1.5" fill="#f6465d" /><line x1="318.89" y1="230.41" x2="318.89" y2="270.48" stroke="#0ecb81" stroke-width="1.4" /><rect x="315.89" y="231.02" width="6" height="21.25" rx="1.5" fill="#0ecb81" /><line x1="329.62" y1="229.20" x2="329.62" y2="294.76" stroke="#f6465d" stroke-width="1.4" /><rect x="326.62" y="231.63" width="6" height="58.28" rx="1.5" fill="#f6465d" /><line x1="340.35" y1="229.20" x2="340.35" y2="302.05" stroke="#0ecb81" stroke-width="1.4" /><rect x="337.35" y="243.16" width="6" height="46.14" rx="1.5" fill="#0ecb81" /><line x1="351.09" y1="235.27" x2="351.09" y2="288.09" stroke="#f6465d" stroke-width="1.4" /><rect x="348.09" y="242.55" width="6" height="34.60" rx="1.5" fill="#f6465d" /><line x1="361.82" y1="272.91" x2="361.82" y2="308.73" stroke="#f6465d" stroke-width="1.4" /><rect x="358.82" y="277.16" width="6" height="2.43" rx="1.5" fill="#f6465d" /><line x1="372.56" y1="272.30" x2="372.56" y2="306.30" stroke="#f6465d" stroke-width="1.4" /><rect x="369.56" y="280.19" width="6" height="17.00" rx="1.5" fill="#f6465d" /><line x1="383.29" y1="269.87" x2="383.29" y2="319.05" stroke="#0ecb81" stroke-width="1.4" /><rect x="380.29" y="272.30" width="6" height="24.89" rx="1.5" fill="#0ecb81" /><line x1="394.03" y1="230.41" x2="394.03" y2="278.37" stroke="#0ecb81" stroke-width="1.4" /><rect x="391.03" y="251.05" width="6" height="21.25" rx="1.5" fill="#0ecb81" /><line x1="404.76" y1="122.35" x2="404.76" y2="260.16" stroke="#0ecb81" stroke-width="1.4" /><rect x="401.76" y="155.13" width="6" height="95.92" rx="1.5" fill="#0ecb81" /><line x1="415.49" y1="147.85" x2="415.49" y2="200.06" stroke="#f6465d" stroke-width="1.4" /><rect x="412.49" y="154.53" width="6" height="18.82" rx="1.5" fill="#f6465d" /><line x1="426.23" y1="154.53" x2="426.23" y2="249.23" stroke="#f6465d" stroke-width="1.4" /><rect x="423.23" y="173.35" width="6" height="71.03" rx="1.5" fill="#f6465d" /><line x1="436.96" y1="207.34" x2="436.96" y2="251.66" stroke="#0ecb81" stroke-width="1.4" /><rect x="433.96" y="209.77" width="6" height="34.60" rx="1.5" fill="#0ecb81" /><line x1="447.70" y1="182.45" x2="447.70" y2="240.13" stroke="#f6465d" stroke-width="1.4" /><rect x="444.70" y="209.16" width="6" height="29.14" rx="1.5" fill="#f6465d" /><line x1="458.43" y1="189.74" x2="458.43" y2="242.55" stroke="#0ecb81" stroke-width="1.4" /><rect x="455.43" y="198.24" width="6" height="39.46" rx="1.5" fill="#0ecb81" /><line x1="469.16" y1="197.63" x2="469.16" y2="266.84" stroke="#f6465d" stroke-width="1.4" /><rect x="466.16" y="197.63" width="6" height="52.21" rx="1.5" fill="#f6465d" /><line x1="479.90" y1="245.59" x2="479.90" y2="292.34" stroke="#f6465d" stroke-width="1.4" /><rect x="476.90" y="249.84" width="6" height="37.03" rx="1.5" fill="#f6465d" /><line x1="490.63" y1="256.52" x2="490.63" y2="334.83" stroke="#0ecb81" stroke-width="1.4" /><rect x="487.63" y="287.48" width="6" height="2.00" rx="1.5" fill="#0ecb81" /><line x1="501.37" y1="215.24" x2="501.37" y2="291.73" stroke="#0ecb81" stroke-width="1.4" /><rect x="498.37" y="243.77" width="6" height="43.71" rx="1.5" fill="#0ecb81" /><line x1="512.10" y1="169.70" x2="512.10" y2="243.16" stroke="#0ecb81" stroke-width="1.4" /><rect x="509.10" y="194.59" width="6" height="48.57" rx="1.5" fill="#0ecb81" /><line x1="522.84" y1="161.81" x2="522.84" y2="220.09" stroke="#f6465d" stroke-width="1.4" /><rect x="519.84" y="194.59" width="6" height="18.82" rx="1.5" fill="#f6465d" /><line x1="533.57" y1="195.81" x2="533.57" y2="260.16" stroke="#f6465d" stroke-width="1.4" /><rect x="530.57" y="213.41" width="6" height="35.21" rx="1.5" fill="#f6465d" /><line x1="544.30" y1="246.80" x2="544.30" y2="299.01" stroke="#f6465d" stroke-width="1.4" /><rect x="541.30" y="249.23" width="6" height="35.21" rx="1.5" fill="#f6465d" /><line x1="555.04" y1="268.05" x2="555.04" y2="309.33" stroke="#f6465d" stroke-width="1.4" /><rect x="552.04" y="285.05" width="6" height="3.04" rx="1.5" fill="#f6465d" /><line x1="565.77" y1="257.12" x2="565.77" y2="297.80" stroke="#0ecb81" stroke-width="1.4" /><rect x="562.77" y="268.05" width="6" height="20.03" rx="1.5" fill="#0ecb81" /><line x1="576.51" y1="263.20" x2="576.51" y2="300.84" stroke="#f6465d" stroke-width="1.4" /><rect x="573.51" y="268.05" width="6" height="18.82" rx="1.5" fill="#f6465d" /><line x1="587.24" y1="271.09" x2="587.24" y2="316.01" stroke="#0ecb81" stroke-width="1.4" /><rect x="584.24" y="285.05" width="6" height="2.00" rx="1.5" fill="#0ecb81" /><line x1="597.97" y1="275.34" x2="597.97" y2="312.37" stroke="#f6465d" stroke-width="1.4" /><rect x="594.97" y="284.44" width="6" height="16.39" rx="1.5" fill="#f6465d" /><line x1="608.71" y1="231.63" x2="608.71" y2="306.30" stroke="#0ecb81" stroke-width="1.4" /><rect x="605.71" y="263.20" width="6" height="38.25" rx="1.5" fill="#0ecb81" /><line x1="619.44" y1="242.55" x2="619.44" y2="280.80" stroke="#f6465d" stroke-width="1.4" /><rect x="616.44" y="263.80" width="6" height="8.50" rx="1.5" fill="#f6465d" /><line x1="630.18" y1="256.52" x2="630.18" y2="295.37" stroke="#f6465d" stroke-width="1.4" /><rect x="627.18" y="272.30" width="6" height="9.71" rx="1.5" fill="#f6465d" /><line x1="640.91" y1="179.42" x2="640.91" y2="289.30" stroke="#0ecb81" stroke-width="1.4" /><rect x="637.91" y="204.31" width="6" height="77.71" rx="1.5" fill="#0ecb81" /><line x1="651.65" y1="182.45" x2="651.65" y2="229.20" stroke="#0ecb81" stroke-width="1.4" /><rect x="648.65" y="187.31" width="6" height="17.00" rx="1.5" fill="#0ecb81" /><line x1="662.38" y1="172.74" x2="662.38" y2="216.45" stroke="#f6465d" stroke-width="1.4" /><rect x="659.38" y="187.92" width="6" height="2.00" rx="1.5" fill="#f6465d" /><line x1="673.11" y1="185.49" x2="673.11" y2="251.66" stroke="#f6465d" stroke-width="1.4" /><rect x="670.11" y="189.13" width="6" height="30.35" rx="1.5" fill="#f6465d" /><line x1="683.85" y1="208.56" x2="683.85" y2="234.06" stroke="#f6465d" stroke-width="1.4" /><rect x="680.85" y="219.49" width="6" height="3.64" rx="1.5" fill="#f6465d" /><line x1="694.58" y1="186.70" x2="694.58" y2="316.01" stroke="#f6465d" stroke-width="1.4" /><rect x="691.58" y="222.52" width="6" height="83.17" rx="1.5" fill="#f6465d" /><line x1="705.32" y1="264.41" x2="705.32" y2="306.30" stroke="#0ecb81" stroke-width="1.4" /><rect x="702.32" y="272.91" width="6" height="32.18" rx="1.5" fill="#0ecb81" /><line x1="716.05" y1="270.48" x2="716.05" y2="312.37" stroke="#f6465d" stroke-width="1.4" /><rect x="713.05" y="272.30" width="6" height="31.57" rx="1.5" fill="#f6465d" /><line x1="726.78" y1="260.16" x2="726.78" y2="329.98" stroke="#0ecb81" stroke-width="1.4" /><rect x="723.78" y="288.09" width="6" height="15.78" rx="1.5" fill="#0ecb81" /><line x1="737.52" y1="263.80" x2="737.52" y2="296.59" stroke="#0ecb81" stroke-width="1.4" /><rect x="734.52" y="278.98" width="6" height="9.71" rx="1.5" fill="#0ecb81" /><line x1="748.25" y1="269.87" x2="748.25" y2="302.05" stroke="#f6465d" stroke-width="1.4" /><rect x="745.25" y="278.37" width="6" height="18.82" rx="1.5" fill="#f6465d" /><line x1="758.99" y1="275.94" x2="758.99" y2="313.58" stroke="#0ecb81" stroke-width="1.4" /><rect x="755.99" y="281.41" width="6" height="15.18" rx="1.5" fill="#0ecb81" /><line x1="769.72" y1="275.94" x2="769.72" y2="312.98" stroke="#f6465d" stroke-width="1.4" /><rect x="766.72" y="281.41" width="6" height="3.64" rx="1.5" fill="#f6465d" /><line x1="780.46" y1="224.34" x2="780.46" y2="293.55" stroke="#0ecb81" stroke-width="1.4" /><rect x="777.46" y="226.16" width="6" height="58.89" rx="1.5" fill="#0ecb81" /><line x1="791.19" y1="209.16" x2="791.19" y2="262.59" stroke="#f6465d" stroke-width="1.4" /><rect x="788.19" y="225.56" width="6" height="15.18" rx="1.5" fill="#f6465d" /><line x1="801.92" y1="231.02" x2="801.92" y2="269.87" stroke="#f6465d" stroke-width="1.4" /><rect x="798.92" y="241.34" width="6" height="13.96" rx="1.5" fill="#f6465d" /><line x1="812.66" y1="226.77" x2="812.66" y2="268.05" stroke="#0ecb81" stroke-width="1.4" /><rect x="809.66" y="237.70" width="6" height="17.00" rx="1.5" fill="#0ecb81" /><line x1="823.39" y1="213.41" x2="823.39" y2="248.63" stroke="#f6465d" stroke-width="1.4" /><rect x="820.39" y="237.09" width="6" height="2.43" rx="1.5" fill="#f6465d" /><line x1="834.13" y1="215.84" x2="834.13" y2="252.27" stroke="#0ecb81" stroke-width="1.4" /><rect x="831.13" y="223.13" width="6" height="17.00" rx="1.5" fill="#0ecb81" /><line x1="844.86" y1="219.49" x2="844.86" y2="252.27" stroke="#f6465d" stroke-width="1.4" /><rect x="841.86" y="222.52" width="6" height="6.68" rx="1.5" fill="#f6465d" /><line x1="855.59" y1="217.66" x2="855.59" y2="244.38" stroke="#0ecb81" stroke-width="1.4" /><rect x="852.59" y="227.38" width="6" height="2.00" rx="1.5" fill="#0ecb81" /><line x1="866.33" y1="223.13" x2="866.33" y2="246.20" stroke="#f6465d" stroke-width="1.4" /><rect x="863.33" y="226.77" width="6" height="7.29" rx="1.5" fill="#f6465d" /><line x1="877.06" y1="231.02" x2="877.06" y2="257.12" stroke="#f6465d" stroke-width="1.4" /><rect x="874.06" y="234.06" width="6" height="12.75" rx="1.5" fill="#f6465d" /><line x1="887.80" y1="246.20" x2="887.80" y2="295.37" stroke="#f6465d" stroke-width="1.4" /><rect x="884.80" y="247.41" width="6" height="36.43" rx="1.5" fill="#f6465d" /><line x1="898.53" y1="273.52" x2="898.53" y2="306.91" stroke="#f6465d" stroke-width="1.4" /><rect x="895.53" y="284.44" width="6" height="13.96" rx="1.5" fill="#f6465d" /><line x1="909.27" y1="295.98" x2="909.27" y2="318.44" stroke="#f6465d" stroke-width="1.4" /><rect x="906.27" y="298.41" width="6" height="8.50" rx="1.5" fill="#f6465d" /><line x1="920.00" y1="305.69" x2="920.00" y2="318.44" stroke="#f6465d" stroke-width="1.4" /><rect x="917.00" y="306.91" width="6" height="4.25" rx="1.5" fill="#f6465d" />
  <polyline points="490.63,334.83 522.84,161.81 587.24,316.01 662.38,172.74 726.78,329.98" fill="none" stroke="#2fc273" stroke-width="4" stroke-linecap="round" stroke-linejoin="round" />
  <circle cx="490.63" cy="334.83" r="5.5" fill="#2fc273" fill-opacity="0.15" stroke="#2fc273" stroke-width="2" /><text x="490.63" y="322.83" fill="#f3f4f6" font-size="15" font-weight="700" text-anchor="middle">X</text><circle cx="522.84" cy="161.81" r="5.5" fill="#2fc273" fill-opacity="0.15" stroke="#2fc273" stroke-width="2" /><text x="522.84" y="149.81" fill="#f3f4f6" font-size="15" font-weight="700" text-anchor="middle">A</text><circle cx="587.24" cy="316.01" r="5.5" fill="#2fc273" fill-opacity="0.15" stroke="#2fc273" stroke-width="2" /><text x="587.24" y="304.01" fill="#f3f4f6" font-size="15" font-weight="700" text-anchor="middle">B</text><circle cx="662.38" cy="172.74" r="5.5" fill="#2fc273" fill-opacity="0.15" stroke="#2fc273" stroke-width="2" /><text x="662.38" y="160.74" fill="#f3f4f6" font-size="15" font-weight="700" text-anchor="middle">C</text><circle cx="726.78" cy="329.98" r="5.5" fill="#2fc273" fill-opacity="0.15" stroke="#2fc273" stroke-width="2" /><text x="726.78" y="317.98" fill="#f3f4f6" font-size="15" font-weight="700" text-anchor="middle">D</text>
  <text x="56" y="492" fill="#8ba0b5" font-size="18">일반 완성 · TP1 0.23219 · TP2 0.23831 · SL 0.21859</text>
</svg>
