<svg xmlns="http://www.w3.org/2000/svg" width="960" height="540" viewBox="0 0 960 540">
  <rect width="960" height="540" rx="24" fill="#0b1220" />
  <rect x="28" y="28" width="904" height="484" rx="22" fill="#111827" stroke="#1f2937" />
  <text x="56" y="74" fill="#f3f4f6" font-size="34" font-weight="700">FOGOUSDT · AB=CD</text>
  <text x="904" y="74" fill="#8ba0b5" font-size="20" text-anchor="end">Bearish (매도) · Score 73.8</text>
  <line x1="72" y1="58" x2="920" y2="58" stroke="#223045" stroke-width="1" stroke-dasharray="4 8" /><line x1="72" y1="156" x2="920" y2="156" stroke="#223045" stroke-width="1" stroke-dasharray="4 8" /><line x1="72" y1="255" x2="920" y2="255" stroke="#223045" stroke-width="1" stroke-dasharray="4 8" /><line x1="72" y1="353" x2="920" y2="353" stroke="#223045" stroke-width="1" stroke-dasharray="4 8" /><line x1="72" y1="452" x2="920" y2="452" stroke="#223045" stroke-width="1" stroke-dasharray="4 8" />
  <rect x="698.78" y="283.07" width="84" height="78.80" fill="#fbbf24" fill-opacity="0.12" stroke="#fbbf24" stroke-width="1.5" stroke-dasharray="6 6" />
  <line x1="72.00" y1="172.85" x2="72.00" y2="218.31" stroke="#f6465d" stroke-width="1.4" /><rect x="69.00" y="194.38" width="6" height="7.18" rx="1.5" fill="#f6465d" /><line x1="82.73" y1="194.38" x2="82.73" y2="227.88" stroke="#f6465d" stroke-width="1.4" /><rect x="79.73" y="200.77" width="6" height="11.17" rx="1.5" fill="#f6465d" /><line x1="93.47" y1="207.15" x2="93.47" y2="240.64" stroke="#f6465d" stroke-width="1.4" /><rect x="90.47" y="212.73" width="6" height="5.58" rx="1.5" fill="#f6465d" /><line x1="104.20" y1="218.31" x2="104.20" y2="258.99" stroke="#f6465d" stroke-width="1.4" /><rect x="101.20" y="219.11" width="6" height="34.30" rx="1.5" fill="#f6465d" /><line x1="114.94" y1="230.28" x2="114.94" y2="259.79" stroke="#0ecb81" stroke-width="1.4" /><rect x="111.94" y="237.45" width="6" height="15.95" rx="1.5" fill="#0ecb81" /><line x1="125.67" y1="213.53" x2="125.67" y2="244.63" stroke="#0ecb81" stroke-width="1.4" /><rect x="122.67" y="221.50" width="6" height="16.75" rx="1.5" fill="#0ecb81" /><line x1="136.41" y1="198.37" x2="136.41" y2="225.49" stroke="#0ecb81" stroke-width="1.4" /><rect x="133.41" y="219.11" width="6" height="2.39" rx="1.5" fill="#0ecb81" /><line x1="147.14" y1="197.57" x2="147.14" y2="231.87" stroke="#0ecb81" stroke-width="1.4" /><rect x="144.14" y="215.12" width="6" height="3.19" rx="1.5" fill="#0ecb81" /><line x1="157.87" y1="203.96" x2="157.87" y2="235.06" stroke="#f6465d" stroke-width="1.4" /><rect x="154.87" y="214.32" width="6" height="8.77" rx="1.5" fill="#f6465d" /><line x1="168.61" y1="172.85" x2="168.61" y2="230.28" stroke="#0ecb81" stroke-width="1.4" /><rect x="165.61" y="188.80" width="6" height="35.09" rx="1.5" fill="#0ecb81" /><line x1="179.34" y1="117.82" x2="179.34" y2="189.60" stroke="#0ecb81" stroke-width="1.4" /><rect x="176.34" y="147.33" width="6" height="42.27" rx="1.5" fill="#0ecb81" /><line x1="190.08" y1="142.54" x2="190.08" y2="196.78" stroke="#f6465d" stroke-width="1.4" /><rect x="187.08" y="147.33" width="6" height="47.06" rx="1.5" fill="#f6465d" /><line x1="200.81" y1="194.38" x2="200.81" y2="237.45" stroke="#f6465d" stroke-width="1.4" /><rect x="197.81" y="194.38" width="6" height="34.30" rx="1.5" fill="#f6465d" /><line x1="211.54" y1="206.35" x2="211.54" y2="247.02" stroke="#0ecb81" stroke-width="1.4" /><rect x="208.54" y="222.30" width="6" height="5.58" rx="1.5" fill="#0ecb81" /><line x1="222.28" y1="218.31" x2="222.28" y2="259.79" stroke="#f6465d" stroke-width="1.4" /><rect x="219.28" y="222.30" width="6" height="35.89" rx="1.5" fill="#f6465d" /><line x1="233.01" y1="251.01" x2="233.01" y2="294.88" stroke="#f6465d" stroke-width="1.4" /><rect x="230.01" y="258.19" width="6" height="28.71" rx="1.5" fill="#f6465d" /><line x1="243.75" y1="233.47" x2="243.75" y2="289.30" stroke="#0ecb81" stroke-width="1.4" /><rect x="240.75" y="251.81" width="6" height="35.89" rx="1.5" fill="#0ecb81" /><line x1="254.48" y1="181.62" x2="254.48" y2="252.61" stroke="#0ecb81" stroke-width="1.4" /><rect x="251.48" y="202.36" width="6" height="49.45" rx="1.5" fill="#0ecb81" /><line x1="265.22" y1="187.21" x2="265.22" y2="218.31" stroke="#f6465d" stroke-width="1.4" /><rect x="262.22" y="202.36" width="6" height="2.00" rx="1.5" fill="#f6465d" /><line x1="275.95" y1="198.37" x2="275.95" y2="271.75" stroke="#f6465d" stroke-width="1.4" /><rect x="272.95" y="203.16" width="6" height="55.83" rx="1.5" fill="#f6465d" /><line x1="286.68" y1="221.50" x2="286.68" y2="270.15" stroke="#f6465d" stroke-width="1.4" /><rect x="283.68" y="258.99" width="6" height="2.00" rx="1.5" fill="#f6465d" /><line x1="297.42" y1="247.82" x2="297.42" y2="318.81" stroke="#f6465d" stroke-width="1.4" /><rect x="294.42" y="261.38" width="6" height="36.69" rx="1.5" fill="#f6465d" /><line x1="308.15" y1="297.27" x2="308.15" y2="358.68" stroke="#f6465d" stroke-width="1.4" /><rect x="305.15" y="299.66" width="6" height="52.64" rx="1.5" fill="#f6465d" /><line x1="318.89" y1="342.73" x2="318.89" y2="392.18" stroke="#f6465d" stroke-width="1.4" /><rect x="315.89" y="353.10" width="6" height="14.36" rx="1.5" fill="#f6465d" /><line x1="329.62" y1="340.34" x2="329.62" y2="377.03" stroke="#0ecb81" stroke-width="1.4" /><rect x="326.62" y="361.08" width="6" height="6.38" rx="1.5" fill="#0ecb81" /><line x1="340.35" y1="346.72" x2="340.35" y2="379.42" stroke="#f6465d" stroke-width="1.4" /><rect x="337.35" y="361.87" width="6" height="7.98" rx="1.5" fill="#f6465d" /><line x1="351.09" y1="327.58" x2="351.09" y2="376.23" stroke="#0ecb81" stroke-width="1.4" /><rect x="348.09" y="342.73" width="6" height="27.91" rx="1.5" fill="#0ecb81" /><line x1="361.82" y1="333.16" x2="361.82" y2="370.65" stroke="#f6465d" stroke-width="1.4" /><rect x="358.82" y="342.73" width="6" height="23.13" rx="1.5" fill="#f6465d" /><line x1="372.56" y1="361.87" x2="372.56" y2="385.80" stroke="#f6465d" stroke-width="1.4" /><rect x="369.56" y="366.66" width="6" height="15.15" rx="1.5" fill="#f6465d" /><line x1="383.29" y1="352.30" x2="383.29" y2="385.00" stroke="#0ecb81" stroke-width="1.4" /><rect x="380.29" y="368.26" width="6" height="13.56" rx="1.5" fill="#0ecb81" /><line x1="394.03" y1="357.89" x2="394.03" y2="373.04" stroke="#f6465d" stroke-width="1.4" /><rect x="391.03" y="367.46" width="6" height="3.19" rx="1.5" fill="#f6465d" /><line x1="404.76" y1="347.52" x2="404.76" y2="378.62" stroke="#0ecb81" stroke-width="1.4" /><rect x="401.76" y="365.06" width="6" height="6.38" rx="1.5" fill="#0ecb81" /><line x1="415.49" y1="348.32" x2="415.49" y2="403.35" stroke="#f6465d" stroke-width="1.4" /><rect x="412.49" y="365.06" width="6" height="7.98" rx="1.5" fill="#f6465d" /><line x1="426.23" y1="363.47" x2="426.23" y2="384.21" stroke="#f6465d" stroke-width="1.4" /><rect x="423.23" y="373.04" width="6" height="11.17" rx="1.5" fill="#f6465d" /><line x1="436.96" y1="373.84" x2="436.96" y2="428.87" stroke="#f6465d" stroke-width="1.4" /><rect x="433.96" y="384.21" width="6" height="7.98" rx="1.5" fill="#f6465d" /><line x1="447.70" y1="355.49" x2="447.70" y2="394.57" stroke="#0ecb81" stroke-width="1.4" /><rect x="444.70" y="362.67" width="6" height="28.71" rx="1.5" fill="#0ecb81" /><line x1="458.43" y1="339.54" x2="458.43" y2="365.86" stroke="#0ecb81" stroke-width="1.4" /><rect x="455.43" y="360.28" width="6" height="2.00" rx="1.5" fill="#0ecb81" /><line x1="469.16" y1="355.49" x2="469.16" y2="373.04" stroke="#f6465d" stroke-width="1.4" /><rect x="466.16" y="360.28" width="6" height="7.18" rx="1.5" fill="#f6465d" /><line x1="479.90" y1="350.71" x2="479.90" y2="385.80" stroke="#f6465d" stroke-width="1.4" /><rect x="476.90" y="366.66" width="6" height="3.19" rx="1.5" fill="#f6465d" /><line x1="490.63" y1="344.33" x2="490.63" y2="382.61" stroke="#f6465d" stroke-width="1.4" /><rect x="487.63" y="369.05" width="6" height="2.39" rx="1.5" fill="#f6465d" /><line x1="501.37" y1="353.10" x2="501.37" y2="375.43" stroke="#0ecb81" stroke-width="1.4" /><rect x="498.37" y="360.28" width="6" height="10.37" rx="1.5" fill="#0ecb81" /><line x1="512.10" y1="322.79" x2="512.10" y2="362.67" stroke="#0ecb81" stroke-width="1.4" /><rect x="509.10" y="347.52" width="6" height="11.96" rx="1.5" fill="#0ecb81" /><line x1="522.84" y1="337.95" x2="522.84" y2="360.28" stroke="#f6465d" stroke-width="1.4" /><rect x="519.84" y="347.52" width="6" height="8.77" rx="1.5" fill="#f6465d" /><line x1="533.57" y1="356.29" x2="533.57" y2="381.02" stroke="#f6465d" stroke-width="1.4" /><rect x="530.57" y="356.29" width="6" height="13.56" rx="1.5" fill="#f6465d" /><line x1="544.30" y1="334.76" x2="544.30" y2="374.64" stroke="#0ecb81" stroke-width="1.4" /><rect x="541.30" y="364.27" width="6" height="5.58" rx="1.5" fill="#0ecb81" /><line x1="555.04" y1="331.57" x2="555.04" y2="364.27" stroke="#0ecb81" stroke-width="1.4" /><rect x="552.04" y="357.09" width="6" height="7.18" rx="1.5" fill="#0ecb81" /><line x1="565.77" y1="349.11" x2="565.77" y2="379.42" stroke="#f6465d" stroke-width="1.4" /><rect x="562.77" y="357.09" width="6" height="15.15" rx="1.5" fill="#f6465d" /><line x1="576.51" y1="364.27" x2="576.51" y2="388.99" stroke="#f6465d" stroke-width="1.4" /><rect x="573.51" y="370.65" width="6" height="2.00" rx="1.5" fill="#f6465d" /><line x1="587.24" y1="366.66" x2="587.24" y2="395.37" stroke="#f6465d" stroke-width="1.4" /><rect x="584.24" y="371.45" width="6" height="13.56" rx="1.5" fill="#f6465d" /><line x1="597.97" y1="383.41" x2="597.97" y2="424.09" stroke="#f6465d" stroke-width="1.4" /><rect x="594.97" y="384.21" width="6" height="23.13" rx="1.5" fill="#f6465d" /><line x1="608.71" y1="383.41" x2="608.71" y2="452.00" stroke="#0ecb81" stroke-width="1.4" /><rect x="605.71" y="397.77" width="6" height="9.57" rx="1.5" fill="#0ecb81" /><line x1="619.44" y1="363.47" x2="619.44" y2="413.72" stroke="#0ecb81" stroke-width="1.4" /><rect x="616.44" y="396.97" width="6" height="2.00" rx="1.5" fill="#0ecb81" /><line x1="630.18" y1="372.24" x2="630.18" y2="404.15" stroke="#0ecb81" stroke-width="1.4" /><rect x="627.18" y="382.61" width="6" height="14.36" rx="1.5" fill="#0ecb81" /><line x1="640.91" y1="361.87" x2="640.91" y2="439.24" stroke="#f6465d" stroke-width="1.4" /><rect x="637.91" y="383.41" width="6" height="54.23" rx="1.5" fill="#f6465d" /><line x1="651.65" y1="394.57" x2="651.65" y2="452.00" stroke="#0ecb81" stroke-width="1.4" /><rect x="648.65" y="417.70" width="6" height="20.74" rx="1.5" fill="#0ecb81" /><line x1="662.38" y1="414.51" x2="662.38" y2="442.43" stroke="#f6465d" stroke-width="1.4" /><rect x="659.38" y="417.70" width="6" height="11.96" rx="1.5" fill="#f6465d" /><line x1="673.11" y1="396.97" x2="673.11" y2="443.23" stroke="#0ecb81" stroke-width="1.4" /><rect x="670.11" y="408.93" width="6" height="21.53" rx="1.5" fill="#0ecb81" /><line x1="683.85" y1="374.64" x2="683.85" y2="416.11" stroke="#0ecb81" stroke-width="1.4" /><rect x="680.85" y="388.99" width="6" height="20.74" rx="1.5" fill="#0ecb81" /><line x1="694.58" y1="357.09" x2="694.58" y2="396.97" stroke="#0ecb81" stroke-width="1.4" /><rect x="691.58" y="361.87" width="6" height="27.12" rx="1.5" fill="#0ecb81" /><line x1="705.32" y1="357.09" x2="705.32" y2="381.81" stroke="#f6465d" stroke-width="1.4" /><rect x="702.32" y="361.87" width="6" height="4.79" rx="1.5" fill="#f6465d" /><line x1="716.05" y1="322.79" x2="716.05" y2="373.84" stroke="#0ecb81" stroke-width="1.4" /><rect x="713.05" y="333.96" width="6" height="32.70" rx="1.5" fill="#0ecb81" /><line x1="726.78" y1="314.82" x2="726.78" y2="371.45" stroke="#f6465d" stroke-width="1.4" /><rect x="723.78" y="333.16" width="6" height="19.14" rx="1.5" fill="#f6465d" /><line x1="737.52" y1="342.73" x2="737.52" y2="374.64" stroke="#f6465d" stroke-width="1.4" /><rect x="734.52" y="352.30" width="6" height="15.15" rx="1.5" fill="#f6465d" /><line x1="748.25" y1="353.10" x2="748.25" y2="372.24" stroke="#0ecb81" stroke-width="1.4" /><rect x="745.25" y="357.89" width="6" height="9.57" rx="1.5" fill="#0ecb81" /><line x1="758.99" y1="349.11" x2="758.99" y2="388.19" stroke="#f6465d" stroke-width="1.4" /><rect x="755.99" y="357.09" width="6" height="15.95" rx="1.5" fill="#f6465d" /><line x1="769.72" y1="347.52" x2="769.72" y2="385.80" stroke="#0ecb81" stroke-width="1.4" /><rect x="766.72" y="361.87" width="6" height="11.17" rx="1.5" fill="#0ecb81" /><line x1="780.46" y1="353.90" x2="780.46" y2="375.43" stroke="#f6465d" stroke-width="1.4" /><rect x="777.46" y="361.87" width="6" height="2.00" rx="1.5" fill="#f6465d" /><line x1="791.19" y1="362.67" x2="791.19" y2="385.80" stroke="#f6465d" stroke-width="1.4" /><rect x="788.19" y="364.27" width="6" height="17.55" rx="1.5" fill="#f6465d" /><line x1="801.92" y1="353.90" x2="801.92" y2="381.81" stroke="#0ecb81" stroke-width="1.4" /><rect x="798.92" y="376.23" width="6" height="4.79" rx="1.5" fill="#0ecb81" /><line x1="812.66" y1="372.24" x2="812.66" y2="394.57" stroke="#f6465d" stroke-width="1.4" /><rect x="809.66" y="377.03" width="6" height="5.58" rx="1.5" fill="#f6465d" /><line x1="823.39" y1="305.25" x2="823.39" y2="400.96" stroke="#0ecb81" stroke-width="1.4" /><rect x="820.39" y="318.01" width="6" height="64.60" rx="1.5" fill="#0ecb81" /><line x1="834.13" y1="299.66" x2="834.13" y2="338.74" stroke="#0ecb81" stroke-width="1.4" /><rect x="831.13" y="315.62" width="6" height="2.39" rx="1.5" fill="#0ecb81" /><line x1="844.86" y1="310.83" x2="844.86" y2="349.91" stroke="#f6465d" stroke-width="1.4" /><rect x="841.86" y="315.62" width="6" height="23.13" rx="1.5" fill="#f6465d" /><line x1="855.59" y1="290.09" x2="855.59" y2="347.52" stroke="#0ecb81" stroke-width="1.4" /><rect x="852.59" y="321.20" width="6" height="16.75" rx="1.5" fill="#0ecb81" /><line x1="866.33" y1="189.60" x2="866.33" y2="333.96" stroke="#0ecb81" stroke-width="1.4" /><rect x="863.33" y="224.69" width="6" height="97.30" rx="1.5" fill="#0ecb81" /><line x1="877.06" y1="197.57" x2="877.06" y2="258.19" stroke="#0ecb81" stroke-width="1.4" /><rect x="874.06" y="209.54" width="6" height="15.15" rx="1.5" fill="#0ecb81" /><line x1="887.80" y1="157.70" x2="887.80" y2="231.07" stroke="#0ecb81" stroke-width="1.4" /><rect x="884.80" y="189.60" width="6" height="20.74" rx="1.5" fill="#0ecb81" /><line x1="898.53" y1="109.84" x2="898.53" y2="207.15" stroke="#0ecb81" stroke-width="1.4" /><rect x="895.53" y="124.20" width="6" height="65.40" rx="1.5" fill="#0ecb81" /><line x1="909.27" y1="58.00" x2="909.27" y2="143.34" stroke="#0ecb81" stroke-width="1.4" /><rect x="906.27" y="115.43" width="6" height="9.57" rx="1.5" fill="#0ecb81" /><line x1="920.00" y1="113.83" x2="920.00" y2="186.41" stroke="#f6465d" stroke-width="1.4" /><rect x="917.00" y="116.22" width="6" height="63.81" rx="1.5" fill="#f6465d" />
  <polyline points="555.04,331.57 608.71,452.00 640.91,361.87 651.65,452.00 726.78,314.82" fill="none" stroke="#2fc273" stroke-width="4" stroke-linecap="round" stroke-linejoin="round" />
  <circle cx="555.04" cy="331.57" r="5.5" fill="#2fc273" fill-opacity="0.15" stroke="#2fc273" stroke-width="2" /><text x="555.04" y="319.57" fill="#f3f4f6" font-size="15" font-weight="700" text-anchor="middle">X</text><circle cx="608.71" cy="452.00" r="5.5" fill="#2fc273" fill-opacity="0.15" stroke="#2fc273" stroke-width="2" /><text x="608.71" y="440.00" fill="#f3f4f6" font-size="15" font-weight="700" text-anchor="middle">A</text><circle cx="640.91" cy="361.87" r="5.5" fill="#2fc273" fill-opacity="0.15" stroke="#2fc273" stroke-width="2" /><text x="640.91" y="349.87" fill="#f3f4f6" font-size="15" font-weight="700" text-anchor="middle">B</text><circle cx="651.65" cy="452.00" r="5.5" fill="#2fc273" fill-opacity="0.15" stroke="#2fc273" stroke-width="2" /><text x="651.65" y="440.00" fill="#f3f4f6" font-size="15" font-weight="700" text-anchor="middle">C</text><circle cx="726.78" cy="314.82" r="5.5" fill="#2fc273" fill-opacity="0.15" stroke="#2fc273" stroke-width="2" /><text x="726.78" y="302.82" fill="#f3f4f6" font-size="15" font-weight="700" text-anchor="middle">D</text>
  <text x="56" y="492" fill="#8ba0b5" font-size="18">실시간 터치 · TP1 0.016803 · TP2 0.016397 · SL 0.017656</text>
</svg>
