<svg xmlns="http://www.w3.org/2000/svg" width="960" height="540" viewBox="0 0 960 540">
  <rect width="960" height="540" rx="24" fill="#0b1220" />
  <rect x="28" y="28" width="904" height="484" rx="22" fill="#111827" stroke="#1f2937" />
  <text x="56" y="74" fill="#f3f4f6" font-size="34" font-weight="700">HOMEUSDT · AB=CD</text>
  <text x="904" y="74" fill="#8ba0b5" font-size="20" text-anchor="end">Bearish (매도) · Score 70.0</text>
  <line x1="72" y1="58" x2="920" y2="58" stroke="#223045" stroke-width="1" stroke-dasharray="4 8" /><line x1="72" y1="156" x2="920" y2="156" stroke="#223045" stroke-width="1" stroke-dasharray="4 8" /><line x1="72" y1="255" x2="920" y2="255" stroke="#223045" stroke-width="1" stroke-dasharray="4 8" /><line x1="72" y1="353" x2="920" y2="353" stroke="#223045" stroke-width="1" stroke-dasharray="4 8" /><line x1="72" y1="452" x2="920" y2="452" stroke="#223045" stroke-width="1" stroke-dasharray="4 8" />
  <rect x="183.54" y="101.66" width="84" height="4.33" fill="#fbbf24" fill-opacity="0.12" stroke="#fbbf24" stroke-width="1.5" stroke-dasharray="6 6" />
  <line x1="72.00" y1="138.98" x2="72.00" y2="168.07" stroke="#0ecb81" stroke-width="1.4" /><rect x="69.00" y="147.24" width="6" height="10.91" rx="1.5" fill="#0ecb81" /><line x1="82.73" y1="143.28" x2="82.73" y2="171.70" stroke="#f6465d" stroke-width="1.4" /><rect x="79.73" y="147.24" width="6" height="23.14" rx="1.5" fill="#f6465d" /><line x1="93.47" y1="136.01" x2="93.47" y2="172.37" stroke="#0ecb81" stroke-width="1.4" /><rect x="90.47" y="149.89" width="6" height="20.82" rx="1.5" fill="#0ecb81" /><line x1="104.20" y1="140.63" x2="104.20" y2="166.75" stroke="#0ecb81" stroke-width="1.4" /><rect x="101.20" y="142.62" width="6" height="7.60" rx="1.5" fill="#0ecb81" /><line x1="114.94" y1="137.00" x2="114.94" y2="151.21" stroke="#0ecb81" stroke-width="1.4" /><rect x="111.94" y="137.99" width="6" height="4.63" rx="1.5" fill="#0ecb81" /><line x1="125.67" y1="130.72" x2="125.67" y2="149.23" stroke="#f6465d" stroke-width="1.4" /><rect x="122.67" y="138.32" width="6" height="8.59" rx="1.5" fill="#f6465d" /><line x1="136.41" y1="134.35" x2="136.41" y2="148.57" stroke="#0ecb81" stroke-width="1.4" /><rect x="133.41" y="140.63" width="6" height="5.95" rx="1.5" fill="#0ecb81" /><line x1="147.14" y1="139.31" x2="147.14" y2="150.55" stroke="#f6465d" stroke-width="1.4" /><rect x="144.14" y="140.96" width="6" height="7.60" rx="1.5" fill="#f6465d" /><line x1="157.87" y1="146.25" x2="157.87" y2="159.81" stroke="#f6465d" stroke-width="1.4" /><rect x="154.87" y="148.90" width="6" height="5.95" rx="1.5" fill="#f6465d" /><line x1="168.61" y1="151.54" x2="168.61" y2="160.47" stroke="#f6465d" stroke-width="1.4" /><rect x="165.61" y="155.18" width="6" height="2.00" rx="1.5" fill="#f6465d" /><line x1="179.34" y1="150.22" x2="179.34" y2="159.47" stroke="#0ecb81" stroke-width="1.4" /><rect x="176.34" y="153.53" width="6" height="3.64" rx="1.5" fill="#0ecb81" /><line x1="190.08" y1="146.58" x2="190.08" y2="156.50" stroke="#0ecb81" stroke-width="1.4" /><rect x="187.08" y="151.54" width="6" height="2.31" rx="1.5" fill="#0ecb81" /><line x1="200.81" y1="145.92" x2="200.81" y2="153.53" stroke="#f6465d" stroke-width="1.4" /><rect x="197.81" y="151.54" width="6" height="2.00" rx="1.5" fill="#f6465d" /><line x1="211.54" y1="132.37" x2="211.54" y2="153.19" stroke="#0ecb81" stroke-width="1.4" /><rect x="208.54" y="133.69" width="6" height="18.51" rx="1.5" fill="#0ecb81" /><line x1="222.28" y1="133.03" x2="222.28" y2="154.52" stroke="#f6465d" stroke-width="1.4" /><rect x="219.28" y="133.36" width="6" height="17.52" rx="1.5" fill="#f6465d" /><line x1="233.01" y1="141.96" x2="233.01" y2="151.87" stroke="#0ecb81" stroke-width="1.4" /><rect x="230.01" y="144.60" width="6" height="6.61" rx="1.5" fill="#0ecb81" /><line x1="243.75" y1="142.62" x2="243.75" y2="153.86" stroke="#f6465d" stroke-width="1.4" /><rect x="240.75" y="144.93" width="6" height="7.93" rx="1.5" fill="#f6465d" /><line x1="254.48" y1="142.62" x2="254.48" y2="158.81" stroke="#0ecb81" stroke-width="1.4" /><rect x="251.48" y="142.62" width="6" height="10.58" rx="1.5" fill="#0ecb81" /><line x1="265.22" y1="140.96" x2="265.22" y2="154.85" stroke="#f6465d" stroke-width="1.4" /><rect x="262.22" y="142.95" width="6" height="10.58" rx="1.5" fill="#f6465d" /><line x1="275.95" y1="151.21" x2="275.95" y2="159.47" stroke="#f6465d" stroke-width="1.4" /><rect x="272.95" y="153.53" width="6" height="3.31" rx="1.5" fill="#f6465d" /><line x1="286.68" y1="154.52" x2="286.68" y2="170.71" stroke="#f6465d" stroke-width="1.4" /><rect x="283.68" y="156.83" width="6" height="13.55" rx="1.5" fill="#f6465d" /><line x1="297.42" y1="169.39" x2="297.42" y2="185.59" stroke="#f6465d" stroke-width="1.4" /><rect x="294.42" y="170.38" width="6" height="12.23" rx="1.5" fill="#f6465d" /><line x1="308.15" y1="170.38" x2="308.15" y2="185.26" stroke="#0ecb81" stroke-width="1.4" /><rect x="305.15" y="174.68" width="6" height="7.93" rx="1.5" fill="#0ecb81" /><line x1="318.89" y1="169.06" x2="318.89" y2="178.32" stroke="#f6465d" stroke-width="1.4" /><rect x="315.89" y="174.68" width="6" height="3.31" rx="1.5" fill="#f6465d" /><line x1="329.62" y1="170.71" x2="329.62" y2="187.57" stroke="#f6465d" stroke-width="1.4" /><rect x="326.62" y="177.98" width="6" height="6.61" rx="1.5" fill="#f6465d" /><line x1="340.35" y1="180.96" x2="340.35" y2="190.55" stroke="#f6465d" stroke-width="1.4" /><rect x="337.35" y="184.60" width="6" height="2.00" rx="1.5" fill="#f6465d" /><line x1="351.09" y1="180.96" x2="351.09" y2="187.90" stroke="#f6465d" stroke-width="1.4" /><rect x="348.09" y="185.59" width="6" height="2.00" rx="1.5" fill="#f6465d" /><line x1="361.82" y1="185.92" x2="361.82" y2="206.41" stroke="#f6465d" stroke-width="1.4" /><rect x="358.82" y="186.25" width="6" height="16.86" rx="1.5" fill="#f6465d" /><line x1="372.56" y1="195.17" x2="372.56" y2="214.67" stroke="#f6465d" stroke-width="1.4" /><rect x="369.56" y="202.78" width="6" height="2.31" rx="1.5" fill="#f6465d" /><line x1="383.29" y1="201.12" x2="383.29" y2="223.27" stroke="#f6465d" stroke-width="1.4" /><rect x="380.29" y="205.09" width="6" height="2.00" rx="1.5" fill="#f6465d" /><line x1="394.03" y1="204.43" x2="394.03" y2="214.67" stroke="#f6465d" stroke-width="1.4" /><rect x="391.03" y="205.75" width="6" height="8.26" rx="1.5" fill="#f6465d" /><line x1="404.76" y1="208.06" x2="404.76" y2="220.29" stroke="#f6465d" stroke-width="1.4" /><rect x="401.76" y="213.68" width="6" height="3.64" rx="1.5" fill="#f6465d" /><line x1="415.49" y1="212.69" x2="415.49" y2="234.51" stroke="#f6465d" stroke-width="1.4" /><rect x="412.49" y="217.32" width="6" height="12.89" rx="1.5" fill="#f6465d" /><line x1="426.23" y1="225.58" x2="426.23" y2="233.85" stroke="#0ecb81" stroke-width="1.4" /><rect x="423.23" y="229.88" width="6" height="2.00" rx="1.5" fill="#0ecb81" /><line x1="436.96" y1="217.98" x2="436.96" y2="233.85" stroke="#f6465d" stroke-width="1.4" /><rect x="433.96" y="229.88" width="6" height="2.64" rx="1.5" fill="#f6465d" /><line x1="447.70" y1="228.89" x2="447.70" y2="239.46" stroke="#f6465d" stroke-width="1.4" /><rect x="444.70" y="232.85" width="6" height="3.64" rx="1.5" fill="#f6465d" /><line x1="458.43" y1="224.26" x2="458.43" y2="237.48" stroke="#0ecb81" stroke-width="1.4" /><rect x="455.43" y="233.85" width="6" height="2.64" rx="1.5" fill="#0ecb81" /><line x1="469.16" y1="227.57" x2="469.16" y2="248.72" stroke="#f6465d" stroke-width="1.4" /><rect x="466.16" y="233.85" width="6" height="7.93" rx="1.5" fill="#f6465d" /><line x1="479.90" y1="195.83" x2="479.90" y2="246.41" stroke="#0ecb81" stroke-width="1.4" /><rect x="476.90" y="211.04" width="6" height="30.74" rx="1.5" fill="#0ecb81" /><line x1="490.63" y1="207.73" x2="490.63" y2="217.98" stroke="#f6465d" stroke-width="1.4" /><rect x="487.63" y="210.71" width="6" height="2.00" rx="1.5" fill="#f6465d" /><line x1="501.37" y1="196.83" x2="501.37" y2="228.23" stroke="#f6465d" stroke-width="1.4" /><rect x="498.37" y="211.37" width="6" height="14.87" rx="1.5" fill="#f6465d" /><line x1="512.10" y1="224.26" x2="512.10" y2="234.51" stroke="#f6465d" stroke-width="1.4" /><rect x="509.10" y="226.24" width="6" height="2.00" rx="1.5" fill="#f6465d" /><line x1="522.84" y1="206.74" x2="522.84" y2="234.18" stroke="#0ecb81" stroke-width="1.4" /><rect x="519.84" y="207.07" width="6" height="20.82" rx="1.5" fill="#0ecb81" /><line x1="533.57" y1="197.49" x2="533.57" y2="212.03" stroke="#f6465d" stroke-width="1.4" /><rect x="530.57" y="207.07" width="6" height="2.97" rx="1.5" fill="#f6465d" /><line x1="544.30" y1="173.69" x2="544.30" y2="220.62" stroke="#0ecb81" stroke-width="1.4" /><rect x="541.30" y="176.66" width="6" height="33.71" rx="1.5" fill="#0ecb81" /><line x1="555.04" y1="65.27" x2="555.04" y2="195.50" stroke="#0ecb81" stroke-width="1.4" /><rect x="552.04" y="69.57" width="6" height="107.42" rx="1.5" fill="#0ecb81" /><line x1="565.77" y1="58.00" x2="565.77" y2="155.84" stroke="#f6465d" stroke-width="1.4" /><rect x="562.77" y="69.24" width="6" height="80.32" rx="1.5" fill="#f6465d" /><line x1="576.51" y1="149.23" x2="576.51" y2="197.49" stroke="#f6465d" stroke-width="1.4" /><rect x="573.51" y="149.56" width="6" height="45.94" rx="1.5" fill="#f6465d" /><line x1="587.24" y1="195.17" x2="587.24" y2="244.75" stroke="#f6465d" stroke-width="1.4" /><rect x="584.24" y="195.50" width="6" height="43.96" rx="1.5" fill="#f6465d" /><line x1="597.97" y1="235.50" x2="597.97" y2="279.79" stroke="#f6465d" stroke-width="1.4" /><rect x="594.97" y="239.46" width="6" height="33.38" rx="1.5" fill="#f6465d" /><line x1="608.71" y1="273.18" x2="608.71" y2="309.87" stroke="#f6465d" stroke-width="1.4" /><rect x="605.71" y="273.18" width="6" height="29.42" rx="1.5" fill="#f6465d" /><line x1="619.44" y1="287.72" x2="619.44" y2="340.94" stroke="#f6465d" stroke-width="1.4" /><rect x="616.44" y="302.60" width="6" height="36.69" rx="1.5" fill="#f6465d" /><line x1="630.18" y1="331.68" x2="630.18" y2="359.12" stroke="#f6465d" stroke-width="1.4" /><rect x="627.18" y="339.29" width="6" height="8.59" rx="1.5" fill="#f6465d" /><line x1="640.91" y1="347.22" x2="640.91" y2="393.49" stroke="#f6465d" stroke-width="1.4" /><rect x="637.91" y="347.88" width="6" height="44.95" rx="1.5" fill="#f6465d" /><line x1="651.65" y1="383.25" x2="651.65" y2="423.24" stroke="#f6465d" stroke-width="1.4" /><rect x="648.65" y="392.83" width="6" height="4.63" rx="1.5" fill="#f6465d" /><line x1="662.38" y1="378.62" x2="662.38" y2="406.72" stroke="#0ecb81" stroke-width="1.4" /><rect x="659.38" y="390.52" width="6" height="6.61" rx="1.5" fill="#0ecb81" /><line x1="673.11" y1="385.23" x2="673.11" y2="406.39" stroke="#f6465d" stroke-width="1.4" /><rect x="670.11" y="390.85" width="6" height="13.22" rx="1.5" fill="#f6465d" /><line x1="683.85" y1="394.16" x2="683.85" y2="409.03" stroke="#0ecb81" stroke-width="1.4" /><rect x="680.85" y="398.78" width="6" height="4.63" rx="1.5" fill="#0ecb81" /><line x1="694.58" y1="397.79" x2="694.58" y2="414.98" stroke="#f6465d" stroke-width="1.4" /><rect x="691.58" y="398.78" width="6" height="13.55" rx="1.5" fill="#f6465d" /><line x1="705.32" y1="411.34" x2="705.32" y2="444.73" stroke="#f6465d" stroke-width="1.4" /><rect x="702.32" y="412.34" width="6" height="20.82" rx="1.5" fill="#f6465d" /><line x1="716.05" y1="428.86" x2="716.05" y2="452.00" stroke="#f6465d" stroke-width="1.4" /><rect x="713.05" y="433.16" width="6" height="13.88" rx="1.5" fill="#f6465d" /><line x1="726.78" y1="417.62" x2="726.78" y2="449.69" stroke="#0ecb81" stroke-width="1.4" /><rect x="723.78" y="421.92" width="6" height="24.79" rx="1.5" fill="#0ecb81" /><line x1="737.52" y1="413.99" x2="737.52" y2="432.17" stroke="#f6465d" stroke-width="1.4" /><rect x="734.52" y="421.26" width="6" height="8.92" rx="1.5" fill="#f6465d" /><line x1="748.25" y1="425.23" x2="748.25" y2="437.79" stroke="#0ecb81" stroke-width="1.4" /><rect x="745.25" y="427.54" width="6" height="2.64" rx="1.5" fill="#0ecb81" /><line x1="758.99" y1="418.29" x2="758.99" y2="433.16" stroke="#0ecb81" stroke-width="1.4" /><rect x="755.99" y="422.25" width="6" height="5.29" rx="1.5" fill="#0ecb81" /><line x1="769.72" y1="391.84" x2="769.72" y2="423.57" stroke="#0ecb81" stroke-width="1.4" /><rect x="766.72" y="406.72" width="6" height="15.54" rx="1.5" fill="#0ecb81" /><line x1="780.46" y1="377.63" x2="780.46" y2="410.68" stroke="#0ecb81" stroke-width="1.4" /><rect x="777.46" y="392.50" width="6" height="14.21" rx="1.5" fill="#0ecb81" /><line x1="791.19" y1="386.55" x2="791.19" y2="407.05" stroke="#f6465d" stroke-width="1.4" /><rect x="788.19" y="392.17" width="6" height="13.22" rx="1.5" fill="#f6465d" /><line x1="801.92" y1="404.40" x2="801.92" y2="420.93" stroke="#f6465d" stroke-width="1.4" /><rect x="798.92" y="405.39" width="6" height="3.31" rx="1.5" fill="#f6465d" /><line x1="812.66" y1="406.72" x2="812.66" y2="422.25" stroke="#f6465d" stroke-width="1.4" /><rect x="809.66" y="408.70" width="6" height="8.92" rx="1.5" fill="#f6465d" /><line x1="823.39" y1="398.78" x2="823.39" y2="421.26" stroke="#0ecb81" stroke-width="1.4" /><rect x="820.39" y="412.34" width="6" height="5.29" rx="1.5" fill="#0ecb81" /><line x1="834.13" y1="407.38" x2="834.13" y2="420.60" stroke="#0ecb81" stroke-width="1.4" /><rect x="831.13" y="409.36" width="6" height="2.97" rx="1.5" fill="#0ecb81" /><line x1="844.86" y1="394.82" x2="844.86" y2="414.98" stroke="#0ecb81" stroke-width="1.4" /><rect x="841.86" y="397.46" width="6" height="11.90" rx="1.5" fill="#0ecb81" /><line x1="855.59" y1="395.81" x2="855.59" y2="415.64" stroke="#f6465d" stroke-width="1.4" /><rect x="852.59" y="397.46" width="6" height="17.52" rx="1.5" fill="#f6465d" /><line x1="866.33" y1="413.33" x2="866.33" y2="430.85" stroke="#f6465d" stroke-width="1.4" /><rect x="863.33" y="414.98" width="6" height="14.21" rx="1.5" fill="#f6465d" /><line x1="877.06" y1="427.87" x2="877.06" y2="438.12" stroke="#f6465d" stroke-width="1.4" /><rect x="874.06" y="428.86" width="6" height="6.28" rx="1.5" fill="#f6465d" /><line x1="887.80" y1="432.50" x2="887.80" y2="439.11" stroke="#f6465d" stroke-width="1.4" /><rect x="884.80" y="435.14" width="6" height="2.00" rx="1.5" fill="#f6465d" /><line x1="898.53" y1="429.19" x2="898.53" y2="439.11" stroke="#f6465d" stroke-width="1.4" /><rect x="895.53" y="436.13" width="6" height="2.00" rx="1.5" fill="#f6465d" /><line x1="909.27" y1="437.46" x2="909.27" y2="447.70" stroke="#f6465d" stroke-width="1.4" /><rect x="906.27" y="437.79" width="6" height="6.28" rx="1.5" fill="#f6465d" /><line x1="920.00" y1="442.41" x2="920.00" y2="447.37" stroke="#f6465d" stroke-width="1.4" /><rect x="917.00" y="444.40" width="6" height="2.31" rx="1.5" fill="#f6465d" />
  <polyline points="72.00,101.30 72.00,188.23 125.67,130.72 168.61,160.47 211.54,132.37" fill="none" stroke="#2fc273" stroke-width="4" stroke-linecap="round" stroke-linejoin="round" />
  <circle cx="72.00" cy="101.30" r="5.5" fill="#2fc273" fill-opacity="0.15" stroke="#2fc273" stroke-width="2" /><text x="72.00" y="89.30" fill="#f3f4f6" font-size="15" font-weight="700" text-anchor="middle">X</text><circle cx="72.00" cy="188.23" r="5.5" fill="#2fc273" fill-opacity="0.15" stroke="#2fc273" stroke-width="2" /><text x="72.00" y="176.23" fill="#f3f4f6" font-size="15" font-weight="700" text-anchor="middle">A</text><circle cx="125.67" cy="130.72" r="5.5" fill="#2fc273" fill-opacity="0.15" stroke="#2fc273" stroke-width="2" /><text x="125.67" y="118.72" fill="#f3f4f6" font-size="15" font-weight="700" text-anchor="middle">B</text><circle cx="168.61" cy="160.47" r="5.5" fill="#2fc273" fill-opacity="0.15" stroke="#2fc273" stroke-width="2" /><text x="168.61" y="148.47" fill="#f3f4f6" font-size="15" font-weight="700" text-anchor="middle">C</text><circle cx="211.54" cy="132.37" r="5.5" fill="#2fc273" fill-opacity="0.15" stroke="#2fc273" stroke-width="2" /><text x="211.54" y="120.37" fill="#f3f4f6" font-size="15" font-weight="700" text-anchor="middle">D</text>
  <text x="56" y="492" fill="#8ba0b5" font-size="18">Complete · TP1 0.015805 · TP2 0.015605 · SL 0.016472</text>
</svg>
