<svg xmlns="http://www.w3.org/2000/svg" width="960" height="540" viewBox="0 0 960 540">
  <rect width="960" height="540" rx="24" fill="#0b1220" />
  <rect x="28" y="28" width="904" height="484" rx="22" fill="#111827" stroke="#1f2937" />
  <text x="56" y="74" fill="#f3f4f6" font-size="34" font-weight="700">KAITOUSDT · AB=CD</text>
  <text x="904" y="74" fill="#8ba0b5" font-size="20" text-anchor="end">Bearish (매도) · Score 76.8</text>
  <line x1="72" y1="58" x2="920" y2="58" stroke="#223045" stroke-width="1" stroke-dasharray="4 8" /><line x1="72" y1="156" x2="920" y2="156" stroke="#223045" stroke-width="1" stroke-dasharray="4 8" /><line x1="72" y1="255" x2="920" y2="255" stroke="#223045" stroke-width="1" stroke-dasharray="4 8" /><line x1="72" y1="353" x2="920" y2="353" stroke="#223045" stroke-width="1" stroke-dasharray="4 8" /><line x1="72" y1="452" x2="920" y2="452" stroke="#223045" stroke-width="1" stroke-dasharray="4 8" />
  <rect x="849.06" y="-32.36" width="84" height="54.61" fill="#fbbf24" fill-opacity="0.12" stroke="#fbbf24" stroke-width="1.5" stroke-dasharray="6 6" />
  <line x1="72.00" y1="210.85" x2="72.00" y2="452.00" stroke="#0ecb81" stroke-width="1.4" /><rect x="69.00" y="257.77" width="6" height="184.19" rx="1.5" fill="#0ecb81" /><line x1="82.73" y1="232.43" x2="82.73" y2="434.36" stroke="#f6465d" stroke-width="1.4" /><rect x="79.73" y="257.30" width="6" height="155.48" rx="1.5" fill="#f6465d" /><line x1="93.47" y1="387.16" x2="93.47" y2="421.32" stroke="#0ecb81" stroke-width="1.4" /><rect x="90.47" y="397.39" width="6" height="15.11" rx="1.5" fill="#0ecb81" /><line x1="104.20" y1="386.22" x2="104.20" y2="400.30" stroke="#0ecb81" stroke-width="1.4" /><rect x="101.20" y="395.14" width="6" height="2.16" rx="1.5" fill="#0ecb81" /><line x1="114.94" y1="374.68" x2="114.94" y2="410.24" stroke="#f6465d" stroke-width="1.4" /><rect x="111.94" y="395.04" width="6" height="2.25" rx="1.5" fill="#f6465d" /><line x1="125.67" y1="369.24" x2="125.67" y2="398.98" stroke="#0ecb81" stroke-width="1.4" /><rect x="122.67" y="377.69" width="6" height="19.61" rx="1.5" fill="#0ecb81" /><line x1="136.41" y1="357.89" x2="136.41" y2="393.17" stroke="#0ecb81" stroke-width="1.4" /><rect x="133.41" y="372.62" width="6" height="5.16" rx="1.5" fill="#0ecb81" /><line x1="147.14" y1="363.70" x2="147.14" y2="388.48" stroke="#f6465d" stroke-width="1.4" /><rect x="144.14" y="372.62" width="6" height="2.00" rx="1.5" fill="#f6465d" /><line x1="157.87" y1="371.12" x2="157.87" y2="384.91" stroke="#f6465d" stroke-width="1.4" /><rect x="154.87" y="373.84" width="6" height="6.76" rx="1.5" fill="#f6465d" /><line x1="168.61" y1="374.21" x2="168.61" y2="385.75" stroke="#f6465d" stroke-width="1.4" /><rect x="165.61" y="380.59" width="6" height="3.28" rx="1.5" fill="#f6465d" /><line x1="179.34" y1="366.61" x2="179.34" y2="411.46" stroke="#f6465d" stroke-width="1.4" /><rect x="176.34" y="383.78" width="6" height="2.00" rx="1.5" fill="#f6465d" /><line x1="190.08" y1="375.90" x2="190.08" y2="392.98" stroke="#f6465d" stroke-width="1.4" /><rect x="187.08" y="383.97" width="6" height="9.01" rx="1.5" fill="#f6465d" /><line x1="200.81" y1="392.51" x2="200.81" y2="420.47" stroke="#f6465d" stroke-width="1.4" /><rect x="197.81" y="392.98" width="6" height="25.52" rx="1.5" fill="#f6465d" /><line x1="211.54" y1="410.62" x2="211.54" y2="437.74" stroke="#f6465d" stroke-width="1.4" /><rect x="208.54" y="418.50" width="6" height="16.14" rx="1.5" fill="#f6465d" /><line x1="222.28" y1="422.26" x2="222.28" y2="441.30" stroke="#0ecb81" stroke-width="1.4" /><rect x="219.28" y="433.70" width="6" height="2.00" rx="1.5" fill="#0ecb81" /><line x1="233.01" y1="429.11" x2="233.01" y2="439.15" stroke="#0ecb81" stroke-width="1.4" /><rect x="230.01" y="430.51" width="6" height="3.19" rx="1.5" fill="#0ecb81" /><line x1="243.75" y1="419.53" x2="243.75" y2="441.30" stroke="#0ecb81" stroke-width="1.4" /><rect x="240.75" y="426.48" width="6" height="4.13" rx="1.5" fill="#0ecb81" /><line x1="254.48" y1="420.85" x2="254.48" y2="445.15" stroke="#f6465d" stroke-width="1.4" /><rect x="251.48" y="426.48" width="6" height="16.70" rx="1.5" fill="#f6465d" /><line x1="265.22" y1="396.83" x2="265.22" y2="445.15" stroke="#0ecb81" stroke-width="1.4" /><rect x="262.22" y="407.62" width="6" height="35.66" rx="1.5" fill="#0ecb81" /><line x1="275.95" y1="381.44" x2="275.95" y2="411.18" stroke="#0ecb81" stroke-width="1.4" /><rect x="272.95" y="388.66" width="6" height="18.86" rx="1.5" fill="#0ecb81" /><line x1="286.68" y1="365.30" x2="286.68" y2="395.70" stroke="#0ecb81" stroke-width="1.4" /><rect x="283.68" y="386.32" width="6" height="2.44" rx="1.5" fill="#0ecb81" /><line x1="297.42" y1="380.31" x2="297.42" y2="399.36" stroke="#f6465d" stroke-width="1.4" /><rect x="294.42" y="386.51" width="6" height="9.85" rx="1.5" fill="#f6465d" /><line x1="308.15" y1="372.62" x2="308.15" y2="399.92" stroke="#0ecb81" stroke-width="1.4" /><rect x="305.15" y="390.54" width="6" height="5.82" rx="1.5" fill="#0ecb81" /><line x1="318.89" y1="378.06" x2="318.89" y2="393.73" stroke="#0ecb81" stroke-width="1.4" /><rect x="315.89" y="381.25" width="6" height="9.29" rx="1.5" fill="#0ecb81" /><line x1="329.62" y1="381.25" x2="329.62" y2="406.68" stroke="#f6465d" stroke-width="1.4" /><rect x="326.62" y="381.25" width="6" height="10.23" rx="1.5" fill="#f6465d" /><line x1="340.35" y1="380.31" x2="340.35" y2="401.24" stroke="#f6465d" stroke-width="1.4" /><rect x="337.35" y="391.48" width="6" height="7.04" rx="1.5" fill="#f6465d" /><line x1="351.09" y1="386.04" x2="351.09" y2="398.70" stroke="#0ecb81" stroke-width="1.4" /><rect x="348.09" y="391.20" width="6" height="7.23" rx="1.5" fill="#0ecb81" /><line x1="361.82" y1="382.00" x2="361.82" y2="393.73" stroke="#0ecb81" stroke-width="1.4" /><rect x="358.82" y="387.91" width="6" height="3.28" rx="1.5" fill="#0ecb81" /><line x1="372.56" y1="380.22" x2="372.56" y2="396.45" stroke="#f6465d" stroke-width="1.4" /><rect x="369.56" y="387.82" width="6" height="2.53" rx="1.5" fill="#f6465d" /><line x1="383.29" y1="385.47" x2="383.29" y2="399.83" stroke="#f6465d" stroke-width="1.4" /><rect x="380.29" y="390.35" width="6" height="8.35" rx="1.5" fill="#f6465d" /><line x1="394.03" y1="343.16" x2="394.03" y2="399.92" stroke="#0ecb81" stroke-width="1.4" /><rect x="391.03" y="388.85" width="6" height="9.76" rx="1.5" fill="#0ecb81" /><line x1="404.76" y1="360.70" x2="404.76" y2="391.48" stroke="#0ecb81" stroke-width="1.4" /><rect x="401.76" y="370.55" width="6" height="18.30" rx="1.5" fill="#0ecb81" /><line x1="415.49" y1="345.88" x2="415.49" y2="373.84" stroke="#0ecb81" stroke-width="1.4" /><rect x="412.49" y="361.92" width="6" height="8.73" rx="1.5" fill="#0ecb81" /><line x1="426.23" y1="360.70" x2="426.23" y2="420.38" stroke="#f6465d" stroke-width="1.4" /><rect x="423.23" y="361.83" width="6" height="43.91" rx="1.5" fill="#f6465d" /><line x1="436.96" y1="383.03" x2="436.96" y2="407.81" stroke="#0ecb81" stroke-width="1.4" /><rect x="433.96" y="383.32" width="6" height="22.43" rx="1.5" fill="#0ecb81" /><line x1="447.70" y1="364.64" x2="447.70" y2="392.04" stroke="#f6465d" stroke-width="1.4" /><rect x="444.70" y="383.32" width="6" height="5.82" rx="1.5" fill="#f6465d" /><line x1="458.43" y1="352.82" x2="458.43" y2="394.95" stroke="#0ecb81" stroke-width="1.4" /><rect x="455.43" y="356.29" width="6" height="32.75" rx="1.5" fill="#0ecb81" /><line x1="469.16" y1="299.80" x2="469.16" y2="377.87" stroke="#0ecb81" stroke-width="1.4" /><rect x="466.16" y="301.68" width="6" height="54.61" rx="1.5" fill="#0ecb81" /><line x1="479.90" y1="265.09" x2="479.90" y2="320.73" stroke="#0ecb81" stroke-width="1.4" /><rect x="476.90" y="288.36" width="6" height="13.51" rx="1.5" fill="#0ecb81" /><line x1="490.63" y1="274.47" x2="490.63" y2="300.09" stroke="#0ecb81" stroke-width="1.4" /><rect x="487.63" y="284.70" width="6" height="3.66" rx="1.5" fill="#0ecb81" /><line x1="501.37" y1="262.37" x2="501.37" y2="293.99" stroke="#0ecb81" stroke-width="1.4" /><rect x="498.37" y="274.09" width="6" height="10.70" rx="1.5" fill="#0ecb81" /><line x1="512.10" y1="270.25" x2="512.10" y2="293.71" stroke="#f6465d" stroke-width="1.4" /><rect x="509.10" y="273.91" width="6" height="15.76" rx="1.5" fill="#f6465d" /><line x1="522.84" y1="248.85" x2="522.84" y2="289.58" stroke="#0ecb81" stroke-width="1.4" /><rect x="519.84" y="256.92" width="6" height="32.65" rx="1.5" fill="#0ecb81" /><line x1="533.57" y1="251.76" x2="533.57" y2="344.37" stroke="#f6465d" stroke-width="1.4" /><rect x="530.57" y="257.02" width="6" height="43.54" rx="1.5" fill="#f6465d" /><line x1="544.30" y1="285.17" x2="544.30" y2="318.85" stroke="#f6465d" stroke-width="1.4" /><rect x="541.30" y="300.56" width="6" height="6.19" rx="1.5" fill="#f6465d" /><line x1="555.04" y1="287.51" x2="555.04" y2="308.16" stroke="#0ecb81" stroke-width="1.4" /><rect x="552.04" y="298.58" width="6" height="8.16" rx="1.5" fill="#0ecb81" /><line x1="565.77" y1="292.86" x2="565.77" y2="315.76" stroke="#f6465d" stroke-width="1.4" /><rect x="562.77" y="298.68" width="6" height="4.22" rx="1.5" fill="#f6465d" /><line x1="576.51" y1="289.76" x2="576.51" y2="312.10" stroke="#f6465d" stroke-width="1.4" /><rect x="573.51" y="302.90" width="6" height="8.44" rx="1.5" fill="#f6465d" /><line x1="587.24" y1="311.35" x2="587.24" y2="354.23" stroke="#f6465d" stroke-width="1.4" /><rect x="584.24" y="311.35" width="6" height="35.09" rx="1.5" fill="#f6465d" /><line x1="597.97" y1="292.39" x2="597.97" y2="356.85" stroke="#0ecb81" stroke-width="1.4" /><rect x="594.97" y="297.46" width="6" height="49.17" rx="1.5" fill="#0ecb81" /><line x1="608.71" y1="206.91" x2="608.71" y2="298.30" stroke="#0ecb81" stroke-width="1.4" /><rect x="605.71" y="211.98" width="6" height="85.48" rx="1.5" fill="#0ecb81" /><line x1="619.44" y1="196.03" x2="619.44" y2="240.88" stroke="#f6465d" stroke-width="1.4" /><rect x="616.44" y="211.98" width="6" height="6.66" rx="1.5" fill="#f6465d" /><line x1="630.18" y1="201.75" x2="630.18" y2="239.19" stroke="#f6465d" stroke-width="1.4" /><rect x="627.18" y="218.64" width="6" height="18.48" rx="1.5" fill="#f6465d" /><line x1="640.91" y1="181.67" x2="640.91" y2="238.53" stroke="#0ecb81" stroke-width="1.4" /><rect x="637.91" y="201.84" width="6" height="35.19" rx="1.5" fill="#0ecb81" /><line x1="651.65" y1="170.22" x2="651.65" y2="203.53" stroke="#0ecb81" stroke-width="1.4" /><rect x="648.65" y="177.64" width="6" height="24.11" rx="1.5" fill="#0ecb81" /><line x1="662.38" y1="127.34" x2="662.38" y2="197.90" stroke="#f6465d" stroke-width="1.4" /><rect x="659.38" y="177.82" width="6" height="16.23" rx="1.5" fill="#f6465d" /><line x1="673.11" y1="181.39" x2="673.11" y2="224.46" stroke="#f6465d" stroke-width="1.4" /><rect x="670.11" y="193.96" width="6" height="20.83" rx="1.5" fill="#f6465d" /><line x1="683.85" y1="195.46" x2="683.85" y2="223.99" stroke="#0ecb81" stroke-width="1.4" /><rect x="680.85" y="202.31" width="6" height="12.57" rx="1.5" fill="#0ecb81" /><line x1="694.58" y1="200.25" x2="694.58" y2="232.81" stroke="#f6465d" stroke-width="1.4" /><rect x="691.58" y="202.41" width="6" height="27.12" rx="1.5" fill="#f6465d" /><line x1="705.32" y1="219.39" x2="705.32" y2="252.33" stroke="#f6465d" stroke-width="1.4" /><rect x="702.32" y="229.52" width="6" height="14.07" rx="1.5" fill="#f6465d" /><line x1="716.05" y1="230.37" x2="716.05" y2="255.61" stroke="#0ecb81" stroke-width="1.4" /><rect x="713.05" y="238.34" width="6" height="5.25" rx="1.5" fill="#0ecb81" /><line x1="726.78" y1="231.40" x2="726.78" y2="247.07" stroke="#0ecb81" stroke-width="1.4" /><rect x="723.78" y="237.03" width="6" height="2.00" rx="1.5" fill="#0ecb81" /><line x1="737.52" y1="233.09" x2="737.52" y2="260.02" stroke="#f6465d" stroke-width="1.4" /><rect x="734.52" y="237.03" width="6" height="10.60" rx="1.5" fill="#f6465d" /><line x1="748.25" y1="234.97" x2="748.25" y2="256.08" stroke="#f6465d" stroke-width="1.4" /><rect x="745.25" y="247.54" width="6" height="5.91" rx="1.5" fill="#f6465d" /><line x1="758.99" y1="200.44" x2="758.99" y2="255.33" stroke="#0ecb81" stroke-width="1.4" /><rect x="755.99" y="210.95" width="6" height="42.32" rx="1.5" fill="#0ecb81" /><line x1="769.72" y1="135.04" x2="769.72" y2="226.43" stroke="#0ecb81" stroke-width="1.4" /><rect x="766.72" y="155.21" width="6" height="55.74" rx="1.5" fill="#0ecb81" /><line x1="780.46" y1="98.07" x2="780.46" y2="167.88" stroke="#0ecb81" stroke-width="1.4" /><rect x="777.46" y="111.39" width="6" height="43.91" rx="1.5" fill="#0ecb81" /><line x1="791.19" y1="103.32" x2="791.19" y2="182.70" stroke="#0ecb81" stroke-width="1.4" /><rect x="788.19" y="106.04" width="6" height="5.35" rx="1.5" fill="#0ecb81" /><line x1="801.92" y1="87.65" x2="801.92" y2="138.32" stroke="#f6465d" stroke-width="1.4" /><rect x="798.92" y="106.04" width="6" height="26.37" rx="1.5" fill="#f6465d" /><line x1="812.66" y1="119.84" x2="812.66" y2="141.23" stroke="#f6465d" stroke-width="1.4" /><rect x="809.66" y="132.41" width="6" height="2.25" rx="1.5" fill="#f6465d" /><line x1="823.39" y1="80.52" x2="823.39" y2="137.85" stroke="#0ecb81" stroke-width="1.4" /><rect x="820.39" y="91.69" width="6" height="42.88" rx="1.5" fill="#0ecb81" /><line x1="834.13" y1="86.24" x2="834.13" y2="147.14" stroke="#f6465d" stroke-width="1.4" /><rect x="831.13" y="91.69" width="6" height="29.09" rx="1.5" fill="#f6465d" /><line x1="844.86" y1="83.90" x2="844.86" y2="123.21" stroke="#0ecb81" stroke-width="1.4" /><rect x="841.86" y="103.60" width="6" height="17.17" rx="1.5" fill="#0ecb81" /><line x1="855.59" y1="82.21" x2="855.59" y2="131.00" stroke="#0ecb81" stroke-width="1.4" /><rect x="852.59" y="100.13" width="6" height="3.57" rx="1.5" fill="#0ecb81" /><line x1="866.33" y1="82.58" x2="866.33" y2="113.74" stroke="#0ecb81" stroke-width="1.4" /><rect x="863.33" y="95.91" width="6" height="4.13" rx="1.5" fill="#0ecb81" /><line x1="877.06" y1="58.00" x2="877.06" y2="104.73" stroke="#0ecb81" stroke-width="1.4" /><rect x="874.06" y="74.33" width="6" height="21.58" rx="1.5" fill="#0ecb81" /><line x1="887.80" y1="64.10" x2="887.80" y2="129.41" stroke="#f6465d" stroke-width="1.4" /><rect x="884.80" y="74.05" width="6" height="42.04" rx="1.5" fill="#f6465d" /><line x1="898.53" y1="80.52" x2="898.53" y2="124.43" stroke="#0ecb81" stroke-width="1.4" /><rect x="895.53" y="83.80" width="6" height="32.37" rx="1.5" fill="#0ecb81" /><line x1="909.27" y1="71.23" x2="909.27" y2="101.44" stroke="#f6465d" stroke-width="1.4" /><rect x="906.27" y="83.80" width="6" height="7.32" rx="1.5" fill="#f6465d" /><line x1="920.00" y1="62.88" x2="920.00" y2="98.16" stroke="#0ecb81" stroke-width="1.4" /><rect x="917.00" y="80.24" width="6" height="11.07" rx="1.5" fill="#0ecb81" />
  <polyline points="662.38,127.34 737.52,260.02 823.39,80.52 834.13,147.14 877.06,58.00" fill="none" stroke="#2fc273" stroke-width="4" stroke-linecap="round" stroke-linejoin="round" />
  <circle cx="662.38" cy="127.34" r="5.5" fill="#2fc273" fill-opacity="0.15" stroke="#2fc273" stroke-width="2" /><text x="662.38" y="115.34" fill="#f3f4f6" font-size="15" font-weight="700" text-anchor="middle">X</text><circle cx="737.52" cy="260.02" r="5.5" fill="#2fc273" fill-opacity="0.15" stroke="#2fc273" stroke-width="2" /><text x="737.52" y="248.02" fill="#f3f4f6" font-size="15" font-weight="700" text-anchor="middle">A</text><circle cx="823.39" cy="80.52" r="5.5" fill="#2fc273" fill-opacity="0.15" stroke="#2fc273" stroke-width="2" /><text x="823.39" y="68.52" fill="#f3f4f6" font-size="15" font-weight="700" text-anchor="middle">B</text><circle cx="834.13" cy="147.14" r="5.5" fill="#2fc273" fill-opacity="0.15" stroke="#2fc273" stroke-width="2" /><text x="834.13" y="135.14" fill="#f3f4f6" font-size="15" font-weight="700" text-anchor="middle">C</text><circle cx="877.06" cy="58.00" r="5.5" fill="#2fc273" fill-opacity="0.15" stroke="#2fc273" stroke-width="2" /><text x="877.06" y="46.00" fill="#f3f4f6" font-size="15" font-weight="700" text-anchor="middle">D</text>
  <text x="56" y="492" fill="#8ba0b5" font-size="18">Complete · TP1 0.98331 · TP2 0.96089 · SL 1.038</text>
</svg>
