<svg xmlns="http://www.w3.org/2000/svg" width="960" height="540" viewBox="0 0 960 540">
  <rect width="960" height="540" rx="24" fill="#0b1220" />
  <rect x="28" y="28" width="904" height="484" rx="22" fill="#111827" stroke="#1f2937" />
  <text x="56" y="74" fill="#f3f4f6" font-size="34" font-weight="700">KERNELUSDT · AB=CD</text>
  <text x="904" y="74" fill="#8ba0b5" font-size="20" text-anchor="end">Bullish (매수) · Score 78.7</text>
  <line x1="72" y1="58" x2="920" y2="58" stroke="#223045" stroke-width="1" stroke-dasharray="4 8" /><line x1="72" y1="156" x2="920" y2="156" stroke="#223045" stroke-width="1" stroke-dasharray="4 8" /><line x1="72" y1="255" x2="920" y2="255" stroke="#223045" stroke-width="1" stroke-dasharray="4 8" /><line x1="72" y1="353" x2="920" y2="353" stroke="#223045" stroke-width="1" stroke-dasharray="4 8" /><line x1="72" y1="452" x2="920" y2="452" stroke="#223045" stroke-width="1" stroke-dasharray="4 8" />
  <rect x="451.90" y="444.71" width="84" height="41.88" fill="#fbbf24" fill-opacity="0.12" stroke="#fbbf24" stroke-width="1.5" stroke-dasharray="6 6" />
  <line x1="72.00" y1="284.95" x2="72.00" y2="303.32" stroke="#0ecb81" stroke-width="1.4" /><rect x="69.00" y="286.20" width="6" height="7.72" rx="1.5" fill="#0ecb81" /><line x1="82.73" y1="272.98" x2="82.73" y2="295.54" stroke="#f6465d" stroke-width="1.4" /><rect x="79.73" y="285.90" width="6" height="6.94" rx="1.5" fill="#f6465d" /><line x1="93.47" y1="288.84" x2="93.47" y2="299.84" stroke="#f6465d" stroke-width="1.4" /><rect x="90.47" y="292.37" width="6" height="4.01" rx="1.5" fill="#f6465d" /><line x1="104.20" y1="288.48" x2="104.20" y2="304.93" stroke="#f6465d" stroke-width="1.4" /><rect x="101.20" y="296.43" width="6" height="3.23" rx="1.5" fill="#f6465d" /><line x1="114.94" y1="298.53" x2="114.94" y2="325.27" stroke="#f6465d" stroke-width="1.4" /><rect x="111.94" y="299.67" width="6" height="14.54" rx="1.5" fill="#f6465d" /><line x1="125.67" y1="309.18" x2="125.67" y2="317.08" stroke="#f6465d" stroke-width="1.4" /><rect x="122.67" y="314.09" width="6" height="2.00" rx="1.5" fill="#f6465d" /><line x1="136.41" y1="301.70" x2="136.41" y2="314.98" stroke="#0ecb81" stroke-width="1.4" /><rect x="133.41" y="308.34" width="6" height="6.52" rx="1.5" fill="#0ecb81" /><line x1="147.14" y1="281.60" x2="147.14" y2="311.93" stroke="#0ecb81" stroke-width="1.4" /><rect x="144.14" y="285.90" width="6" height="22.80" rx="1.5" fill="#0ecb81" /><line x1="157.87" y1="280.46" x2="157.87" y2="295.48" stroke="#f6465d" stroke-width="1.4" /><rect x="154.87" y="285.84" width="6" height="8.26" rx="1.5" fill="#f6465d" /><line x1="168.61" y1="282.85" x2="168.61" y2="298.95" stroke="#0ecb81" stroke-width="1.4" /><rect x="165.61" y="288.48" width="6" height="5.62" rx="1.5" fill="#0ecb81" /><line x1="179.34" y1="283.63" x2="179.34" y2="298.05" stroke="#f6465d" stroke-width="1.4" /><rect x="176.34" y="288.54" width="6" height="6.52" rx="1.5" fill="#f6465d" /><line x1="190.08" y1="272.74" x2="190.08" y2="296.79" stroke="#0ecb81" stroke-width="1.4" /><rect x="187.08" y="290.15" width="6" height="4.97" rx="1.5" fill="#0ecb81" /><line x1="200.81" y1="286.26" x2="200.81" y2="293.98" stroke="#f6465d" stroke-width="1.4" /><rect x="197.81" y="289.97" width="6" height="2.00" rx="1.5" fill="#f6465d" /><line x1="211.54" y1="290.33" x2="211.54" y2="306.01" stroke="#f6465d" stroke-width="1.4" /><rect x="208.54" y="290.57" width="6" height="11.97" rx="1.5" fill="#f6465d" /><line x1="222.28" y1="299.25" x2="222.28" y2="316.30" stroke="#f6465d" stroke-width="1.4" /><rect x="219.28" y="302.48" width="6" height="12.15" rx="1.5" fill="#f6465d" /><line x1="233.01" y1="312.47" x2="233.01" y2="329.34" stroke="#f6465d" stroke-width="1.4" /><rect x="230.01" y="314.56" width="6" height="9.87" rx="1.5" fill="#f6465d" /><line x1="243.75" y1="313.19" x2="243.75" y2="325.45" stroke="#0ecb81" stroke-width="1.4" /><rect x="240.75" y="321.50" width="6" height="2.87" rx="1.5" fill="#0ecb81" /><line x1="254.48" y1="315.16" x2="254.48" y2="325.27" stroke="#f6465d" stroke-width="1.4" /><rect x="251.48" y="321.56" width="6" height="3.71" rx="1.5" fill="#f6465d" /><line x1="265.22" y1="314.14" x2="265.22" y2="325.21" stroke="#0ecb81" stroke-width="1.4" /><rect x="262.22" y="321.03" width="6" height="4.13" rx="1.5" fill="#0ecb81" /><line x1="275.95" y1="315.76" x2="275.95" y2="332.45" stroke="#f6465d" stroke-width="1.4" /><rect x="272.95" y="321.03" width="6" height="9.03" rx="1.5" fill="#f6465d" /><line x1="286.68" y1="310.26" x2="286.68" y2="337.12" stroke="#0ecb81" stroke-width="1.4" /><rect x="283.68" y="318.09" width="6" height="11.91" rx="1.5" fill="#0ecb81" /><line x1="297.42" y1="313.79" x2="297.42" y2="352.08" stroke="#f6465d" stroke-width="1.4" /><rect x="294.42" y="318.15" width="6" height="30.04" rx="1.5" fill="#f6465d" /><line x1="308.15" y1="347.89" x2="308.15" y2="367.10" stroke="#f6465d" stroke-width="1.4" /><rect x="305.15" y="348.01" width="6" height="18.13" rx="1.5" fill="#f6465d" /><line x1="318.89" y1="365.72" x2="318.89" y2="386.36" stroke="#f6465d" stroke-width="1.4" /><rect x="315.89" y="366.08" width="6" height="10.17" rx="1.5" fill="#f6465d" /><line x1="329.62" y1="373.74" x2="329.62" y2="396.77" stroke="#f6465d" stroke-width="1.4" /><rect x="326.62" y="376.25" width="6" height="17.29" rx="1.5" fill="#f6465d" /><line x1="340.35" y1="390.67" x2="340.35" y2="411.55" stroke="#f6465d" stroke-width="1.4" /><rect x="337.35" y="393.30" width="6" height="17.95" rx="1.5" fill="#f6465d" /><line x1="351.09" y1="397.13" x2="351.09" y2="415.26" stroke="#0ecb81" stroke-width="1.4" /><rect x="348.09" y="398.93" width="6" height="12.33" rx="1.5" fill="#0ecb81" /><line x1="361.82" y1="397.79" x2="361.82" y2="415.26" stroke="#f6465d" stroke-width="1.4" /><rect x="358.82" y="398.93" width="6" height="9.33" rx="1.5" fill="#f6465d" /><line x1="372.56" y1="398.33" x2="372.56" y2="409.58" stroke="#0ecb81" stroke-width="1.4" /><rect x="369.56" y="402.22" width="6" height="6.04" rx="1.5" fill="#0ecb81" /><line x1="383.29" y1="387.32" x2="383.29" y2="403.00" stroke="#0ecb81" stroke-width="1.4" /><rect x="380.29" y="398.39" width="6" height="3.77" rx="1.5" fill="#0ecb81" /><line x1="394.03" y1="396.36" x2="394.03" y2="411.67" stroke="#f6465d" stroke-width="1.4" /><rect x="391.03" y="398.57" width="6" height="11.55" rx="1.5" fill="#f6465d" /><line x1="404.76" y1="389.89" x2="404.76" y2="412.69" stroke="#0ecb81" stroke-width="1.4" /><rect x="401.76" y="391.39" width="6" height="18.73" rx="1.5" fill="#0ecb81" /><line x1="415.49" y1="387.26" x2="415.49" y2="402.46" stroke="#f6465d" stroke-width="1.4" /><rect x="412.49" y="391.09" width="6" height="2.00" rx="1.5" fill="#f6465d" /><line x1="426.23" y1="383.31" x2="426.23" y2="396.00" stroke="#0ecb81" stroke-width="1.4" /><rect x="423.23" y="387.68" width="6" height="5.44" rx="1.5" fill="#0ecb81" /><line x1="436.96" y1="381.58" x2="436.96" y2="426.51" stroke="#f6465d" stroke-width="1.4" /><rect x="433.96" y="387.80" width="6" height="36.44" rx="1.5" fill="#f6465d" /><line x1="447.70" y1="418.67" x2="447.70" y2="432.49" stroke="#f6465d" stroke-width="1.4" /><rect x="444.70" y="424.24" width="6" height="5.74" rx="1.5" fill="#f6465d" /><line x1="458.43" y1="429.02" x2="458.43" y2="451.94" stroke="#f6465d" stroke-width="1.4" /><rect x="455.43" y="430.04" width="6" height="20.64" rx="1.5" fill="#f6465d" /><line x1="469.16" y1="432.43" x2="469.16" y2="451.70" stroke="#0ecb81" stroke-width="1.4" /><rect x="466.16" y="436.50" width="6" height="14.12" rx="1.5" fill="#0ecb81" /><line x1="479.90" y1="435.25" x2="479.90" y2="452.00" stroke="#f6465d" stroke-width="1.4" /><rect x="476.90" y="436.56" width="6" height="10.95" rx="1.5" fill="#f6465d" /><line x1="490.63" y1="419.99" x2="490.63" y2="450.15" stroke="#0ecb81" stroke-width="1.4" /><rect x="487.63" y="425.91" width="6" height="21.42" rx="1.5" fill="#0ecb81" /><line x1="501.37" y1="422.20" x2="501.37" y2="436.44" stroke="#f6465d" stroke-width="1.4" /><rect x="498.37" y="425.97" width="6" height="7.72" rx="1.5" fill="#f6465d" /><line x1="512.10" y1="428.43" x2="512.10" y2="437.58" stroke="#0ecb81" stroke-width="1.4" /><rect x="509.10" y="430.76" width="6" height="3.11" rx="1.5" fill="#0ecb81" /><line x1="522.84" y1="417.90" x2="522.84" y2="431.00" stroke="#0ecb81" stroke-width="1.4" /><rect x="519.84" y="418.61" width="6" height="12.15" rx="1.5" fill="#0ecb81" /><line x1="533.57" y1="418.85" x2="533.57" y2="441.11" stroke="#f6465d" stroke-width="1.4" /><rect x="530.57" y="418.85" width="6" height="21.48" rx="1.5" fill="#f6465d" /><line x1="544.30" y1="327.07" x2="544.30" y2="442.49" stroke="#0ecb81" stroke-width="1.4" /><rect x="541.30" y="337.42" width="6" height="102.85" rx="1.5" fill="#0ecb81" /><line x1="555.04" y1="292.96" x2="555.04" y2="364.94" stroke="#0ecb81" stroke-width="1.4" /><rect x="552.04" y="295.42" width="6" height="41.52" rx="1.5" fill="#0ecb81" /><line x1="565.77" y1="164.98" x2="565.77" y2="307.80" stroke="#0ecb81" stroke-width="1.4" /><rect x="562.77" y="190.05" width="6" height="105.01" rx="1.5" fill="#0ecb81" /><line x1="576.51" y1="158.52" x2="576.51" y2="227.03" stroke="#f6465d" stroke-width="1.4" /><rect x="573.51" y="189.87" width="6" height="27.46" rx="1.5" fill="#f6465d" /><line x1="587.24" y1="197.11" x2="587.24" y2="260.77" stroke="#f6465d" stroke-width="1.4" /><rect x="584.24" y="217.34" width="6" height="41.88" rx="1.5" fill="#f6465d" /><line x1="597.97" y1="230.80" x2="597.97" y2="286.38" stroke="#f6465d" stroke-width="1.4" /><rect x="594.97" y="259.16" width="6" height="3.47" rx="1.5" fill="#f6465d" /><line x1="608.71" y1="238.93" x2="608.71" y2="284.35" stroke="#f6465d" stroke-width="1.4" /><rect x="605.71" y="262.51" width="6" height="20.40" rx="1.5" fill="#f6465d" /><line x1="619.44" y1="262.93" x2="619.44" y2="293.50" stroke="#0ecb81" stroke-width="1.4" /><rect x="616.44" y="263.71" width="6" height="19.39" rx="1.5" fill="#0ecb81" /><line x1="630.18" y1="145.30" x2="630.18" y2="264.42" stroke="#0ecb81" stroke-width="1.4" /><rect x="627.18" y="185.26" width="6" height="78.56" rx="1.5" fill="#0ecb81" /><line x1="640.91" y1="58.00" x2="640.91" y2="192.92" stroke="#0ecb81" stroke-width="1.4" /><rect x="637.91" y="126.45" width="6" height="58.64" rx="1.5" fill="#0ecb81" /><line x1="651.65" y1="117.71" x2="651.65" y2="210.16" stroke="#f6465d" stroke-width="1.4" /><rect x="648.65" y="126.57" width="6" height="82.51" rx="1.5" fill="#f6465d" /><line x1="662.38" y1="127.88" x2="662.38" y2="223.98" stroke="#f6465d" stroke-width="1.4" /><rect x="659.38" y="208.90" width="6" height="11.25" rx="1.5" fill="#f6465d" /><line x1="673.11" y1="181.44" x2="673.11" y2="246.35" stroke="#0ecb81" stroke-width="1.4" /><rect x="670.11" y="193.28" width="6" height="26.98" rx="1.5" fill="#0ecb81" /><line x1="683.85" y1="117.65" x2="683.85" y2="203.75" stroke="#0ecb81" stroke-width="1.4" /><rect x="680.85" y="160.13" width="6" height="33.09" rx="1.5" fill="#0ecb81" /><line x1="694.58" y1="156.37" x2="694.58" y2="240.61" stroke="#f6465d" stroke-width="1.4" /><rect x="691.58" y="159.90" width="6" height="39.31" rx="1.5" fill="#f6465d" /><line x1="705.32" y1="182.99" x2="705.32" y2="213.86" stroke="#f6465d" stroke-width="1.4" /><rect x="702.32" y="199.27" width="6" height="13.28" rx="1.5" fill="#f6465d" /><line x1="716.05" y1="195.02" x2="716.05" y2="227.27" stroke="#0ecb81" stroke-width="1.4" /><rect x="713.05" y="208.12" width="6" height="4.43" rx="1.5" fill="#0ecb81" /><line x1="726.78" y1="157.74" x2="726.78" y2="220.63" stroke="#0ecb81" stroke-width="1.4" /><rect x="723.78" y="184.67" width="6" height="23.45" rx="1.5" fill="#0ecb81" /><line x1="737.52" y1="179.52" x2="737.52" y2="235.64" stroke="#f6465d" stroke-width="1.4" /><rect x="734.52" y="184.67" width="6" height="38.17" rx="1.5" fill="#f6465d" /><line x1="748.25" y1="203.99" x2="748.25" y2="233.49" stroke="#f6465d" stroke-width="1.4" /><rect x="745.25" y="222.96" width="6" height="4.37" rx="1.5" fill="#f6465d" /><line x1="758.99" y1="177.55" x2="758.99" y2="244.20" stroke="#0ecb81" stroke-width="1.4" /><rect x="755.99" y="195.62" width="6" height="31.41" rx="1.5" fill="#0ecb81" /><line x1="769.72" y1="176.89" x2="769.72" y2="211.41" stroke="#0ecb81" stroke-width="1.4" /><rect x="766.72" y="193.04" width="6" height="2.33" rx="1.5" fill="#0ecb81" /><line x1="780.46" y1="180.78" x2="780.46" y2="211.65" stroke="#f6465d" stroke-width="1.4" /><rect x="777.46" y="193.04" width="6" height="2.39" rx="1.5" fill="#f6465d" /><line x1="791.19" y1="83.37" x2="791.19" y2="227.15" stroke="#0ecb81" stroke-width="1.4" /><rect x="788.19" y="102.22" width="6" height="93.16" rx="1.5" fill="#0ecb81" /><line x1="801.92" y1="81.63" x2="801.92" y2="168.09" stroke="#f6465d" stroke-width="1.4" /><rect x="798.92" y="102.22" width="6" height="37.16" rx="1.5" fill="#f6465d" /><line x1="812.66" y1="120.05" x2="812.66" y2="158.04" stroke="#f6465d" stroke-width="1.4" /><rect x="809.66" y="139.37" width="6" height="16.99" rx="1.5" fill="#f6465d" /><line x1="823.39" y1="155.41" x2="823.39" y2="192.44" stroke="#f6465d" stroke-width="1.4" /><rect x="820.39" y="156.25" width="6" height="18.97" rx="1.5" fill="#f6465d" /><line x1="834.13" y1="162.35" x2="834.13" y2="185.56" stroke="#0ecb81" stroke-width="1.4" /><rect x="831.13" y="164.14" width="6" height="11.01" rx="1.5" fill="#0ecb81" /><line x1="844.86" y1="153.07" x2="844.86" y2="172.10" stroke="#0ecb81" stroke-width="1.4" /><rect x="841.86" y="157.74" width="6" height="6.34" rx="1.5" fill="#0ecb81" /><line x1="855.59" y1="157.98" x2="855.59" y2="209.86" stroke="#f6465d" stroke-width="1.4" /><rect x="852.59" y="157.98" width="6" height="50.44" rx="1.5" fill="#f6465d" /><line x1="866.33" y1="191.67" x2="866.33" y2="220.69" stroke="#f6465d" stroke-width="1.4" /><rect x="863.33" y="208.60" width="6" height="9.09" rx="1.5" fill="#f6465d" /><line x1="877.06" y1="211.89" x2="877.06" y2="239.35" stroke="#f6465d" stroke-width="1.4" /><rect x="874.06" y="217.75" width="6" height="11.43" rx="1.5" fill="#f6465d" /><line x1="887.80" y1="227.63" x2="887.80" y2="275.43" stroke="#f6465d" stroke-width="1.4" /><rect x="884.80" y="229.18" width="6" height="32.31" rx="1.5" fill="#f6465d" /><line x1="898.53" y1="256.35" x2="898.53" y2="268.19" stroke="#f6465d" stroke-width="1.4" /><rect x="895.53" y="261.49" width="6" height="5.03" rx="1.5" fill="#f6465d" /><line x1="909.27" y1="262.33" x2="909.27" y2="286.80" stroke="#f6465d" stroke-width="1.4" /><rect x="906.27" y="266.58" width="6" height="12.33" rx="1.5" fill="#f6465d" /><line x1="920.00" y1="262.99" x2="920.00" y2="295.90" stroke="#0ecb81" stroke-width="1.4" /><rect x="917.00" y="267.83" width="6" height="11.07" rx="1.5" fill="#0ecb81" />
  <polyline points="233.01,329.34 286.68,310.26 361.82,415.26 436.96,381.58 479.90,452.00" fill="none" stroke="#2fc273" stroke-width="4" stroke-linecap="round" stroke-linejoin="round" />
  <circle cx="233.01" cy="329.34" r="5.5" fill="#2fc273" fill-opacity="0.15" stroke="#2fc273" stroke-width="2" /><text x="233.01" y="317.34" fill="#f3f4f6" font-size="15" font-weight="700" text-anchor="middle">X</text><circle cx="286.68" cy="310.26" r="5.5" fill="#2fc273" fill-opacity="0.15" stroke="#2fc273" stroke-width="2" /><text x="286.68" y="298.26" fill="#f3f4f6" font-size="15" font-weight="700" text-anchor="middle">A</text><circle cx="361.82" cy="415.26" r="5.5" fill="#2fc273" fill-opacity="0.15" stroke="#2fc273" stroke-width="2" /><text x="361.82" y="403.26" fill="#f3f4f6" font-size="15" font-weight="700" text-anchor="middle">B</text><circle cx="436.96" cy="381.58" r="5.5" fill="#2fc273" fill-opacity="0.15" stroke="#2fc273" stroke-width="2" /><text x="436.96" y="369.58" fill="#f3f4f6" font-size="15" font-weight="700" text-anchor="middle">C</text><circle cx="479.90" cy="452.00" r="5.5" fill="#2fc273" fill-opacity="0.15" stroke="#2fc273" stroke-width="2" /><text x="479.90" y="440.00" fill="#f3f4f6" font-size="15" font-weight="700" text-anchor="middle">D</text>
  <text x="56" y="492" fill="#8ba0b5" font-size="18">일반 완성 · TP1 0.074516 · TP2 0.077294 · SL 0.069605</text>
</svg>
