<svg xmlns="http://www.w3.org/2000/svg" width="960" height="540" viewBox="0 0 960 540">
  <rect width="960" height="540" rx="24" fill="#0b1220" />
  <rect x="28" y="28" width="904" height="484" rx="22" fill="#111827" stroke="#1f2937" />
  <text x="56" y="74" fill="#f3f4f6" font-size="34" font-weight="700">KITEUSDT · AB=CD</text>
  <text x="904" y="74" fill="#8ba0b5" font-size="20" text-anchor="end">Bullish (매수) · Score 80.8</text>
  <line x1="72" y1="58" x2="920" y2="58" stroke="#223045" stroke-width="1" stroke-dasharray="4 8" /><line x1="72" y1="156" x2="920" y2="156" stroke="#223045" stroke-width="1" stroke-dasharray="4 8" /><line x1="72" y1="255" x2="920" y2="255" stroke="#223045" stroke-width="1" stroke-dasharray="4 8" /><line x1="72" y1="353" x2="920" y2="353" stroke="#223045" stroke-width="1" stroke-dasharray="4 8" /><line x1="72" y1="452" x2="920" y2="452" stroke="#223045" stroke-width="1" stroke-dasharray="4 8" />
  <rect x="741.72" y="423.98" width="84" height="13.85" fill="#fbbf24" fill-opacity="0.12" stroke="#fbbf24" stroke-width="1.5" stroke-dasharray="6 6" />
  <line x1="72.00" y1="129.93" x2="72.00" y2="160.83" stroke="#0ecb81" stroke-width="1.4" /><rect x="69.00" y="135.96" width="6" height="3.56" rx="1.5" fill="#0ecb81" /><line x1="82.73" y1="133.83" x2="82.73" y2="152.49" stroke="#f6465d" stroke-width="1.4" /><rect x="79.73" y="136.05" width="6" height="3.24" rx="1.5" fill="#f6465d" /><line x1="93.47" y1="127.18" x2="93.47" y2="140.16" stroke="#0ecb81" stroke-width="1.4" /><rect x="90.47" y="131.73" width="6" height="7.52" rx="1.5" fill="#0ecb81" /><line x1="104.20" y1="119.60" x2="104.20" y2="133.63" stroke="#f6465d" stroke-width="1.4" /><rect x="101.20" y="131.76" width="6" height="2.00" rx="1.5" fill="#f6465d" /><line x1="114.94" y1="122.52" x2="114.94" y2="135.81" stroke="#0ecb81" stroke-width="1.4" /><rect x="111.94" y="130.83" width="6" height="2.00" rx="1.5" fill="#0ecb81" /><line x1="125.67" y1="114.06" x2="125.67" y2="147.45" stroke="#0ecb81" stroke-width="1.4" /><rect x="122.67" y="115.38" width="6" height="15.42" rx="1.5" fill="#0ecb81" /><line x1="136.41" y1="92.64" x2="136.41" y2="128.12" stroke="#f6465d" stroke-width="1.4" /><rect x="133.41" y="115.38" width="6" height="8.31" rx="1.5" fill="#f6465d" /><line x1="147.14" y1="102.05" x2="147.14" y2="128.58" stroke="#0ecb81" stroke-width="1.4" /><rect x="144.14" y="104.76" width="6" height="18.89" rx="1.5" fill="#0ecb81" /><line x1="157.87" y1="67.21" x2="157.87" y2="106.05" stroke="#0ecb81" stroke-width="1.4" /><rect x="154.87" y="85.20" width="6" height="19.56" rx="1.5" fill="#0ecb81" /><line x1="168.61" y1="58.00" x2="168.61" y2="89.52" stroke="#0ecb81" stroke-width="1.4" /><rect x="165.61" y="69.25" width="6" height="15.98" rx="1.5" fill="#0ecb81" /><line x1="179.34" y1="63.16" x2="179.34" y2="135.23" stroke="#f6465d" stroke-width="1.4" /><rect x="176.34" y="69.25" width="6" height="52.33" rx="1.5" fill="#f6465d" /><line x1="190.08" y1="108.41" x2="190.08" y2="160.63" stroke="#0ecb81" stroke-width="1.4" /><rect x="187.08" y="114.79" width="6" height="6.79" rx="1.5" fill="#0ecb81" /><line x1="200.81" y1="88.53" x2="200.81" y2="131.38" stroke="#0ecb81" stroke-width="1.4" /><rect x="197.81" y="95.73" width="6" height="19.04" rx="1.5" fill="#0ecb81" /><line x1="211.54" y1="81.44" x2="211.54" y2="107.71" stroke="#0ecb81" stroke-width="1.4" /><rect x="208.54" y="86.86" width="6" height="8.86" rx="1.5" fill="#0ecb81" /><line x1="222.28" y1="67.85" x2="222.28" y2="90.62" stroke="#0ecb81" stroke-width="1.4" /><rect x="219.28" y="78.00" width="6" height="8.86" rx="1.5" fill="#0ecb81" /><line x1="233.01" y1="70.51" x2="233.01" y2="100.89" stroke="#f6465d" stroke-width="1.4" /><rect x="230.01" y="77.97" width="6" height="3.21" rx="1.5" fill="#f6465d" /><line x1="243.75" y1="58.47" x2="243.75" y2="129.95" stroke="#f6465d" stroke-width="1.4" /><rect x="240.75" y="81.21" width="6" height="35.04" rx="1.5" fill="#f6465d" /><line x1="254.48" y1="115.49" x2="254.48" y2="184.33" stroke="#f6465d" stroke-width="1.4" /><rect x="251.48" y="116.25" width="6" height="63.30" rx="1.5" fill="#f6465d" /><line x1="265.22" y1="170.13" x2="265.22" y2="210.33" stroke="#0ecb81" stroke-width="1.4" /><rect x="262.22" y="171.47" width="6" height="8.05" rx="1.5" fill="#0ecb81" /><line x1="275.95" y1="160.25" x2="275.95" y2="203.48" stroke="#f6465d" stroke-width="1.4" /><rect x="272.95" y="171.70" width="6" height="27.29" rx="1.5" fill="#f6465d" /><line x1="286.68" y1="190.07" x2="286.68" y2="212.29" stroke="#f6465d" stroke-width="1.4" /><rect x="283.68" y="198.99" width="6" height="6.09" rx="1.5" fill="#f6465d" /><line x1="297.42" y1="199.96" x2="297.42" y2="234.15" stroke="#f6465d" stroke-width="1.4" /><rect x="294.42" y="205.12" width="6" height="22.25" rx="1.5" fill="#f6465d" /><line x1="308.15" y1="198.03" x2="308.15" y2="247.24" stroke="#0ecb81" stroke-width="1.4" /><rect x="305.15" y="219.40" width="6" height="7.96" rx="1.5" fill="#0ecb81" /><line x1="318.89" y1="217.62" x2="318.89" y2="248.53" stroke="#f6465d" stroke-width="1.4" /><rect x="315.89" y="219.23" width="6" height="12.62" rx="1.5" fill="#f6465d" /><line x1="329.62" y1="219.87" x2="329.62" y2="253.48" stroke="#0ecb81" stroke-width="1.4" /><rect x="326.62" y="222.93" width="6" height="8.95" rx="1.5" fill="#0ecb81" /><line x1="340.35" y1="221.85" x2="340.35" y2="257.45" stroke="#f6465d" stroke-width="1.4" /><rect x="337.35" y="222.90" width="6" height="31.31" rx="1.5" fill="#f6465d" /><line x1="351.09" y1="253.25" x2="351.09" y2="266.72" stroke="#f6465d" stroke-width="1.4" /><rect x="348.09" y="254.21" width="6" height="10.96" rx="1.5" fill="#f6465d" /><line x1="361.82" y1="262.26" x2="361.82" y2="269.90" stroke="#f6465d" stroke-width="1.4" /><rect x="358.82" y="265.18" width="6" height="3.62" rx="1.5" fill="#f6465d" /><line x1="372.56" y1="268.59" x2="372.56" y2="300.13" stroke="#f6465d" stroke-width="1.4" /><rect x="369.56" y="268.82" width="6" height="23.24" rx="1.5" fill="#f6465d" /><line x1="383.29" y1="284.80" x2="383.29" y2="307.39" stroke="#0ecb81" stroke-width="1.4" /><rect x="380.29" y="290.86" width="6" height="2.00" rx="1.5" fill="#0ecb81" /><line x1="394.03" y1="290.34" x2="394.03" y2="309.61" stroke="#f6465d" stroke-width="1.4" /><rect x="391.03" y="290.83" width="6" height="10.64" rx="1.5" fill="#f6465d" /><line x1="404.76" y1="288.03" x2="404.76" y2="303.43" stroke="#0ecb81" stroke-width="1.4" /><rect x="401.76" y="296.84" width="6" height="4.61" rx="1.5" fill="#0ecb81" /><line x1="415.49" y1="295.99" x2="415.49" y2="311.41" stroke="#f6465d" stroke-width="1.4" /><rect x="412.49" y="296.81" width="6" height="12.36" rx="1.5" fill="#f6465d" /><line x1="426.23" y1="309.17" x2="426.23" y2="339.96" stroke="#f6465d" stroke-width="1.4" /><rect x="423.23" y="309.34" width="6" height="16.44" rx="1.5" fill="#f6465d" /><line x1="436.96" y1="290.16" x2="436.96" y2="339.35" stroke="#f6465d" stroke-width="1.4" /><rect x="433.96" y="325.76" width="6" height="5.95" rx="1.5" fill="#f6465d" /><line x1="447.70" y1="326.55" x2="447.70" y2="347.07" stroke="#0ecb81" stroke-width="1.4" /><rect x="444.70" y="329.29" width="6" height="2.45" rx="1.5" fill="#0ecb81" /><line x1="458.43" y1="325.61" x2="458.43" y2="343.34" stroke="#f6465d" stroke-width="1.4" /><rect x="455.43" y="329.29" width="6" height="9.01" rx="1.5" fill="#f6465d" /><line x1="469.16" y1="333.95" x2="469.16" y2="352.17" stroke="#0ecb81" stroke-width="1.4" /><rect x="466.16" y="335.47" width="6" height="2.80" rx="1.5" fill="#0ecb81" /><line x1="479.90" y1="323.86" x2="479.90" y2="344.97" stroke="#f6465d" stroke-width="1.4" /><rect x="476.90" y="335.53" width="6" height="2.89" rx="1.5" fill="#f6465d" /><line x1="490.63" y1="328.79" x2="490.63" y2="345.70" stroke="#f6465d" stroke-width="1.4" /><rect x="487.63" y="338.41" width="6" height="2.00" rx="1.5" fill="#f6465d" /><line x1="501.37" y1="322.03" x2="501.37" y2="341.09" stroke="#0ecb81" stroke-width="1.4" /><rect x="498.37" y="338.85" width="6" height="2.00" rx="1.5" fill="#0ecb81" /><line x1="512.10" y1="306.55" x2="512.10" y2="348.21" stroke="#0ecb81" stroke-width="1.4" /><rect x="509.10" y="311.79" width="6" height="27.06" rx="1.5" fill="#0ecb81" /><line x1="522.84" y1="281.06" x2="522.84" y2="312.87" stroke="#0ecb81" stroke-width="1.4" /><rect x="519.84" y="299.02" width="6" height="12.80" rx="1.5" fill="#0ecb81" /><line x1="533.57" y1="282.64" x2="533.57" y2="317.97" stroke="#0ecb81" stroke-width="1.4" /><rect x="530.57" y="293.72" width="6" height="5.39" rx="1.5" fill="#0ecb81" /><line x1="544.30" y1="284.71" x2="544.30" y2="311.41" stroke="#f6465d" stroke-width="1.4" /><rect x="541.30" y="293.75" width="6" height="16.12" rx="1.5" fill="#f6465d" /><line x1="555.04" y1="296.90" x2="555.04" y2="315.96" stroke="#f6465d" stroke-width="1.4" /><rect x="552.04" y="309.87" width="6" height="5.04" rx="1.5" fill="#f6465d" /><line x1="565.77" y1="311.18" x2="565.77" y2="338.50" stroke="#f6465d" stroke-width="1.4" /><rect x="562.77" y="314.94" width="6" height="20.90" rx="1.5" fill="#f6465d" /><line x1="576.51" y1="332.46" x2="576.51" y2="349.23" stroke="#f6465d" stroke-width="1.4" /><rect x="573.51" y="335.85" width="6" height="10.99" rx="1.5" fill="#f6465d" /><line x1="587.24" y1="346.87" x2="587.24" y2="365.00" stroke="#f6465d" stroke-width="1.4" /><rect x="584.24" y="346.87" width="6" height="16.36" rx="1.5" fill="#f6465d" /><line x1="597.97" y1="333.89" x2="597.97" y2="370.89" stroke="#0ecb81" stroke-width="1.4" /><rect x="594.97" y="340.28" width="6" height="23.06" rx="1.5" fill="#0ecb81" /><line x1="608.71" y1="327.54" x2="608.71" y2="356.93" stroke="#f6465d" stroke-width="1.4" /><rect x="605.71" y="340.25" width="6" height="12.59" rx="1.5" fill="#f6465d" /><line x1="619.44" y1="345.85" x2="619.44" y2="355.79" stroke="#0ecb81" stroke-width="1.4" /><rect x="616.44" y="351.53" width="6" height="2.00" rx="1.5" fill="#0ecb81" /><line x1="630.18" y1="348.53" x2="630.18" y2="377.39" stroke="#f6465d" stroke-width="1.4" /><rect x="627.18" y="351.53" width="6" height="20.44" rx="1.5" fill="#f6465d" /><line x1="640.91" y1="366.37" x2="640.91" y2="382.93" stroke="#0ecb81" stroke-width="1.4" /><rect x="637.91" y="369.72" width="6" height="2.24" rx="1.5" fill="#0ecb81" /><line x1="651.65" y1="335.96" x2="651.65" y2="372.47" stroke="#0ecb81" stroke-width="1.4" /><rect x="648.65" y="358.21" width="6" height="11.46" rx="1.5" fill="#0ecb81" /><line x1="662.38" y1="338.47" x2="662.38" y2="364.56" stroke="#0ecb81" stroke-width="1.4" /><rect x="659.38" y="353.19" width="6" height="5.04" rx="1.5" fill="#0ecb81" /><line x1="673.11" y1="347.13" x2="673.11" y2="358.73" stroke="#f6465d" stroke-width="1.4" /><rect x="670.11" y="353.14" width="6" height="3.97" rx="1.5" fill="#f6465d" /><line x1="683.85" y1="351.12" x2="683.85" y2="362.32" stroke="#0ecb81" stroke-width="1.4" /><rect x="680.85" y="352.41" width="6" height="4.69" rx="1.5" fill="#0ecb81" /><line x1="694.58" y1="351.79" x2="694.58" y2="381.04" stroke="#f6465d" stroke-width="1.4" /><rect x="691.58" y="352.38" width="6" height="27.43" rx="1.5" fill="#f6465d" /><line x1="705.32" y1="377.10" x2="705.32" y2="394.04" stroke="#f6465d" stroke-width="1.4" /><rect x="702.32" y="379.84" width="6" height="7.78" rx="1.5" fill="#f6465d" /><line x1="716.05" y1="386.46" x2="716.05" y2="412.09" stroke="#f6465d" stroke-width="1.4" /><rect x="713.05" y="387.86" width="6" height="16.76" rx="1.5" fill="#f6465d" /><line x1="726.78" y1="400.57" x2="726.78" y2="431.30" stroke="#f6465d" stroke-width="1.4" /><rect x="723.78" y="404.59" width="6" height="25.71" rx="1.5" fill="#f6465d" /><line x1="737.52" y1="421.68" x2="737.52" y2="434.30" stroke="#0ecb81" stroke-width="1.4" /><rect x="734.52" y="429.35" width="6" height="2.00" rx="1.5" fill="#0ecb81" /><line x1="748.25" y1="420.86" x2="748.25" y2="431.15" stroke="#0ecb81" stroke-width="1.4" /><rect x="745.25" y="428.82" width="6" height="2.00" rx="1.5" fill="#0ecb81" /><line x1="758.99" y1="428.44" x2="758.99" y2="446.46" stroke="#f6465d" stroke-width="1.4" /><rect x="755.99" y="428.79" width="6" height="11.87" rx="1.5" fill="#f6465d" /><line x1="769.72" y1="413.37" x2="769.72" y2="452.00" stroke="#0ecb81" stroke-width="1.4" /><rect x="766.72" y="413.49" width="6" height="27.29" rx="1.5" fill="#0ecb81" /><line x1="780.46" y1="392.90" x2="780.46" y2="421.94" stroke="#0ecb81" stroke-width="1.4" /><rect x="777.46" y="400.98" width="6" height="12.48" rx="1.5" fill="#0ecb81" /><line x1="791.19" y1="390.13" x2="791.19" y2="407.95" stroke="#f6465d" stroke-width="1.4" /><rect x="788.19" y="400.92" width="6" height="2.00" rx="1.5" fill="#f6465d" /><line x1="801.92" y1="374.68" x2="801.92" y2="403.52" stroke="#0ecb81" stroke-width="1.4" /><rect x="798.92" y="391.53" width="6" height="9.74" rx="1.5" fill="#0ecb81" /><line x1="812.66" y1="385.41" x2="812.66" y2="404.86" stroke="#f6465d" stroke-width="1.4" /><rect x="809.66" y="391.53" width="6" height="12.92" rx="1.5" fill="#f6465d" /><line x1="823.39" y1="390.22" x2="823.39" y2="418.71" stroke="#f6465d" stroke-width="1.4" /><rect x="820.39" y="404.51" width="6" height="13.27" rx="1.5" fill="#f6465d" /><line x1="834.13" y1="383.05" x2="834.13" y2="419.17" stroke="#0ecb81" stroke-width="1.4" /><rect x="831.13" y="389.03" width="6" height="28.69" rx="1.5" fill="#0ecb81" /><line x1="844.86" y1="382.64" x2="844.86" y2="398.03" stroke="#f6465d" stroke-width="1.4" /><rect x="841.86" y="389.03" width="6" height="2.86" rx="1.5" fill="#f6465d" /><line x1="855.59" y1="359.29" x2="855.59" y2="392.87" stroke="#0ecb81" stroke-width="1.4" /><rect x="852.59" y="374.59" width="6" height="17.29" rx="1.5" fill="#0ecb81" /><line x1="866.33" y1="342.20" x2="866.33" y2="381.53" stroke="#0ecb81" stroke-width="1.4" /><rect x="863.33" y="342.76" width="6" height="31.84" rx="1.5" fill="#0ecb81" /><line x1="877.06" y1="321.07" x2="877.06" y2="349.05" stroke="#0ecb81" stroke-width="1.4" /><rect x="874.06" y="327.22" width="6" height="15.54" rx="1.5" fill="#0ecb81" /><line x1="887.80" y1="312.96" x2="887.80" y2="358.68" stroke="#f6465d" stroke-width="1.4" /><rect x="884.80" y="327.25" width="6" height="28.51" rx="1.5" fill="#f6465d" /><line x1="898.53" y1="355.21" x2="898.53" y2="376.84" stroke="#f6465d" stroke-width="1.4" /><rect x="895.53" y="355.67" width="6" height="17.58" rx="1.5" fill="#f6465d" /><line x1="909.27" y1="369.72" x2="909.27" y2="388.00" stroke="#f6465d" stroke-width="1.4" /><rect x="906.27" y="373.17" width="6" height="12.62" rx="1.5" fill="#f6465d" /><line x1="920.00" y1="385.26" x2="920.00" y2="402.23" stroke="#f6465d" stroke-width="1.4" /><rect x="917.00" y="385.79" width="6" height="15.77" rx="1.5" fill="#f6465d" />
  <polyline points="469.16,352.17 522.84,281.06 640.91,382.93 651.65,335.96 769.72,452.00" fill="none" stroke="#2fc273" stroke-width="4" stroke-linecap="round" stroke-linejoin="round" />
  <circle cx="469.16" cy="352.17" r="5.5" fill="#2fc273" fill-opacity="0.15" stroke="#2fc273" stroke-width="2" /><text x="469.16" y="340.17" fill="#f3f4f6" font-size="15" font-weight="700" text-anchor="middle">X</text><circle cx="522.84" cy="281.06" r="5.5" fill="#2fc273" fill-opacity="0.15" stroke="#2fc273" stroke-width="2" /><text x="522.84" y="269.06" fill="#f3f4f6" font-size="15" font-weight="700" text-anchor="middle">A</text><circle cx="640.91" cy="382.93" r="5.5" fill="#2fc273" fill-opacity="0.15" stroke="#2fc273" stroke-width="2" /><text x="640.91" y="370.93" fill="#f3f4f6" font-size="15" font-weight="700" text-anchor="middle">B</text><circle cx="651.65" cy="335.96" r="5.5" fill="#2fc273" fill-opacity="0.15" stroke="#2fc273" stroke-width="2" /><text x="651.65" y="323.96" fill="#f3f4f6" font-size="15" font-weight="700" text-anchor="middle">C</text><circle cx="769.72" cy="452.00" r="5.5" fill="#2fc273" fill-opacity="0.15" stroke="#2fc273" stroke-width="2" /><text x="769.72" y="440.00" fill="#f3f4f6" font-size="15" font-weight="700" text-anchor="middle">D</text>
  <text x="56" y="492" fill="#8ba0b5" font-size="18">일반 완성 · TP1 0.13561 · TP2 0.14501 · SL 0.11724</text>
</svg>
