<svg xmlns="http://www.w3.org/2000/svg" width="960" height="540" viewBox="0 0 960 540">
  <rect width="960" height="540" rx="24" fill="#0b1220" />
  <rect x="28" y="28" width="904" height="484" rx="22" fill="#111827" stroke="#1f2937" />
  <text x="56" y="74" fill="#f3f4f6" font-size="34" font-weight="700">LAUSDT · AB=CD</text>
  <text x="904" y="74" fill="#8ba0b5" font-size="20" text-anchor="end">Bullish (매수) · Score 79.7</text>
  <line x1="72" y1="58" x2="920" y2="58" stroke="#223045" stroke-width="1" stroke-dasharray="4 8" /><line x1="72" y1="156" x2="920" y2="156" stroke="#223045" stroke-width="1" stroke-dasharray="4 8" /><line x1="72" y1="255" x2="920" y2="255" stroke="#223045" stroke-width="1" stroke-dasharray="4 8" /><line x1="72" y1="353" x2="920" y2="353" stroke="#223045" stroke-width="1" stroke-dasharray="4 8" /><line x1="72" y1="452" x2="920" y2="452" stroke="#223045" stroke-width="1" stroke-dasharray="4 8" />
  <rect x="688.05" y="365.23" width="84" height="41.21" fill="#fbbf24" fill-opacity="0.12" stroke="#fbbf24" stroke-width="1.5" stroke-dasharray="6 6" />
  <line x1="72.00" y1="237.63" x2="72.00" y2="274.20" stroke="#f6465d" stroke-width="1.4" /><rect x="69.00" y="240.47" width="6" height="8.53" rx="1.5" fill="#f6465d" /><line x1="82.73" y1="238.64" x2="82.73" y2="266.48" stroke="#f6465d" stroke-width="1.4" /><rect x="79.73" y="248.60" width="6" height="16.05" rx="1.5" fill="#f6465d" /><line x1="93.47" y1="252.66" x2="93.47" y2="269.12" stroke="#0ecb81" stroke-width="1.4" /><rect x="90.47" y="264.04" width="6" height="2.00" rx="1.5" fill="#0ecb81" /><line x1="104.20" y1="226.25" x2="104.20" y2="268.92" stroke="#0ecb81" stroke-width="1.4" /><rect x="101.20" y="239.05" width="6" height="24.99" rx="1.5" fill="#0ecb81" /><line x1="114.94" y1="234.78" x2="114.94" y2="258.76" stroke="#f6465d" stroke-width="1.4" /><rect x="111.94" y="238.64" width="6" height="6.10" rx="1.5" fill="#f6465d" /><line x1="125.67" y1="225.23" x2="125.67" y2="246.57" stroke="#0ecb81" stroke-width="1.4" /><rect x="122.67" y="237.22" width="6" height="7.32" rx="1.5" fill="#0ecb81" /><line x1="136.41" y1="231.94" x2="136.41" y2="246.36" stroke="#0ecb81" stroke-width="1.4" /><rect x="133.41" y="234.38" width="6" height="2.64" rx="1.5" fill="#0ecb81" /><line x1="147.14" y1="226.45" x2="147.14" y2="241.49" stroke="#f6465d" stroke-width="1.4" /><rect x="144.14" y="234.58" width="6" height="4.27" rx="1.5" fill="#f6465d" /><line x1="157.87" y1="229.50" x2="157.87" y2="256.32" stroke="#f6465d" stroke-width="1.4" /><rect x="154.87" y="239.05" width="6" height="2.00" rx="1.5" fill="#f6465d" /><line x1="168.61" y1="234.17" x2="168.61" y2="246.36" stroke="#0ecb81" stroke-width="1.4" /><rect x="165.61" y="237.83" width="6" height="2.00" rx="1.5" fill="#0ecb81" /><line x1="179.34" y1="220.35" x2="179.34" y2="254.09" stroke="#0ecb81" stroke-width="1.4" /><rect x="176.34" y="234.58" width="6" height="3.45" rx="1.5" fill="#0ecb81" /><line x1="190.08" y1="209.99" x2="190.08" y2="238.85" stroke="#0ecb81" stroke-width="1.4" /><rect x="187.08" y="217.10" width="6" height="18.29" rx="1.5" fill="#0ecb81" /><line x1="200.81" y1="213.45" x2="200.81" y2="229.70" stroke="#f6465d" stroke-width="1.4" /><rect x="197.81" y="217.31" width="6" height="10.36" rx="1.5" fill="#f6465d" /><line x1="211.54" y1="215.27" x2="211.54" y2="250.02" stroke="#0ecb81" stroke-width="1.4" /><rect x="208.54" y="227.06" width="6" height="2.00" rx="1.5" fill="#0ecb81" /><line x1="222.28" y1="205.12" x2="222.28" y2="236.20" stroke="#0ecb81" stroke-width="1.4" /><rect x="219.28" y="226.65" width="6" height="2.00" rx="1.5" fill="#0ecb81" /><line x1="233.01" y1="207.35" x2="233.01" y2="231.73" stroke="#0ecb81" stroke-width="1.4" /><rect x="230.01" y="209.79" width="6" height="17.07" rx="1.5" fill="#0ecb81" /><line x1="243.75" y1="162.85" x2="243.75" y2="220.15" stroke="#0ecb81" stroke-width="1.4" /><rect x="240.75" y="196.58" width="6" height="13.41" rx="1.5" fill="#0ecb81" /><line x1="254.48" y1="192.52" x2="254.48" y2="219.14" stroke="#f6465d" stroke-width="1.4" /><rect x="251.48" y="196.99" width="6" height="15.44" rx="1.5" fill="#f6465d" /><line x1="265.22" y1="202.07" x2="265.22" y2="219.95" stroke="#f6465d" stroke-width="1.4" /><rect x="262.22" y="212.43" width="6" height="3.66" rx="1.5" fill="#f6465d" /><line x1="275.95" y1="177.68" x2="275.95" y2="219.75" stroke="#0ecb81" stroke-width="1.4" /><rect x="272.95" y="202.68" width="6" height="13.21" rx="1.5" fill="#0ecb81" /><line x1="286.68" y1="147.00" x2="286.68" y2="205.93" stroke="#0ecb81" stroke-width="1.4" /><rect x="283.68" y="172.81" width="6" height="29.87" rx="1.5" fill="#0ecb81" /><line x1="297.42" y1="171.18" x2="297.42" y2="219.75" stroke="#f6465d" stroke-width="1.4" /><rect x="294.42" y="172.60" width="6" height="40.64" rx="1.5" fill="#f6465d" /><line x1="308.15" y1="181.95" x2="308.15" y2="240.27" stroke="#f6465d" stroke-width="1.4" /><rect x="305.15" y="213.45" width="6" height="6.10" rx="1.5" fill="#f6465d" /><line x1="318.89" y1="216.09" x2="318.89" y2="252.05" stroke="#f6465d" stroke-width="1.4" /><rect x="315.89" y="219.54" width="6" height="21.34" rx="1.5" fill="#f6465d" /><line x1="329.62" y1="227.87" x2="329.62" y2="243.93" stroke="#0ecb81" stroke-width="1.4" /><rect x="326.62" y="239.25" width="6" height="2.00" rx="1.5" fill="#0ecb81" /><line x1="340.35" y1="233.36" x2="340.35" y2="251.85" stroke="#f6465d" stroke-width="1.4" /><rect x="337.35" y="239.46" width="6" height="5.08" rx="1.5" fill="#f6465d" /><line x1="351.09" y1="241.89" x2="351.09" y2="264.86" stroke="#f6465d" stroke-width="1.4" /><rect x="348.09" y="244.74" width="6" height="6.91" rx="1.5" fill="#f6465d" /><line x1="361.82" y1="245.14" x2="361.82" y2="269.94" stroke="#f6465d" stroke-width="1.4" /><rect x="358.82" y="251.85" width="6" height="12.80" rx="1.5" fill="#f6465d" /><line x1="372.56" y1="247.58" x2="372.56" y2="298.38" stroke="#f6465d" stroke-width="1.4" /><rect x="369.56" y="264.86" width="6" height="3.25" rx="1.5" fill="#f6465d" /><line x1="383.29" y1="216.49" x2="383.29" y2="269.94" stroke="#0ecb81" stroke-width="1.4" /><rect x="380.29" y="222.39" width="6" height="46.13" rx="1.5" fill="#0ecb81" /><line x1="394.03" y1="201.25" x2="394.03" y2="243.32" stroke="#f6465d" stroke-width="1.4" /><rect x="391.03" y="222.39" width="6" height="17.88" rx="1.5" fill="#f6465d" /><line x1="404.76" y1="239.86" x2="404.76" y2="271.56" stroke="#f6465d" stroke-width="1.4" /><rect x="401.76" y="240.06" width="6" height="29.46" rx="1.5" fill="#f6465d" /><line x1="415.49" y1="268.72" x2="415.49" y2="326.42" stroke="#f6465d" stroke-width="1.4" /><rect x="412.49" y="269.33" width="6" height="43.28" rx="1.5" fill="#f6465d" /><line x1="426.23" y1="299.81" x2="426.23" y2="331.71" stroke="#0ecb81" stroke-width="1.4" /><rect x="423.23" y="300.41" width="6" height="11.99" rx="1.5" fill="#0ecb81" /><line x1="436.96" y1="294.73" x2="436.96" y2="326.63" stroke="#f6465d" stroke-width="1.4" /><rect x="433.96" y="300.21" width="6" height="18.49" rx="1.5" fill="#f6465d" /><line x1="447.70" y1="290.25" x2="447.70" y2="321.14" stroke="#0ecb81" stroke-width="1.4" /><rect x="444.70" y="307.32" width="6" height="11.38" rx="1.5" fill="#0ecb81" /><line x1="458.43" y1="304.68" x2="458.43" y2="320.94" stroke="#f6465d" stroke-width="1.4" /><rect x="455.43" y="307.53" width="6" height="9.14" rx="1.5" fill="#f6465d" /><line x1="469.16" y1="281.31" x2="469.16" y2="318.50" stroke="#0ecb81" stroke-width="1.4" /><rect x="466.16" y="285.78" width="6" height="30.68" rx="1.5" fill="#0ecb81" /><line x1="479.90" y1="282.13" x2="479.90" y2="305.70" stroke="#f6465d" stroke-width="1.4" /><rect x="476.90" y="285.78" width="6" height="14.22" rx="1.5" fill="#f6465d" /><line x1="490.63" y1="297.57" x2="490.63" y2="312.40" stroke="#0ecb81" stroke-width="1.4" /><rect x="487.63" y="299.60" width="6" height="2.00" rx="1.5" fill="#0ecb81" /><line x1="501.37" y1="297.98" x2="501.37" y2="310.98" stroke="#f6465d" stroke-width="1.4" /><rect x="498.37" y="299.60" width="6" height="3.05" rx="1.5" fill="#f6465d" /><line x1="512.10" y1="277.45" x2="512.10" y2="312.20" stroke="#0ecb81" stroke-width="1.4" /><rect x="509.10" y="297.57" width="6" height="5.08" rx="1.5" fill="#0ecb81" /><line x1="522.84" y1="262.42" x2="522.84" y2="298.38" stroke="#0ecb81" stroke-width="1.4" /><rect x="519.84" y="267.09" width="6" height="30.48" rx="1.5" fill="#0ecb81" /><line x1="533.57" y1="247.18" x2="533.57" y2="285.58" stroke="#f6465d" stroke-width="1.4" /><rect x="530.57" y="267.29" width="6" height="16.46" rx="1.5" fill="#f6465d" /><line x1="544.30" y1="269.73" x2="544.30" y2="296.55" stroke="#f6465d" stroke-width="1.4" /><rect x="541.30" y="283.55" width="6" height="2.24" rx="1.5" fill="#f6465d" /><line x1="555.04" y1="276.44" x2="555.04" y2="290.05" stroke="#0ecb81" stroke-width="1.4" /><rect x="552.04" y="283.96" width="6" height="2.03" rx="1.5" fill="#0ecb81" /><line x1="565.77" y1="282.94" x2="565.77" y2="307.53" stroke="#f6465d" stroke-width="1.4" /><rect x="562.77" y="284.16" width="6" height="15.44" rx="1.5" fill="#f6465d" /><line x1="576.51" y1="293.71" x2="576.51" y2="319.92" stroke="#f6465d" stroke-width="1.4" /><rect x="573.51" y="299.81" width="6" height="13.61" rx="1.5" fill="#f6465d" /><line x1="587.24" y1="310.57" x2="587.24" y2="326.83" stroke="#f6465d" stroke-width="1.4" /><rect x="584.24" y="313.62" width="6" height="6.30" rx="1.5" fill="#f6465d" /><line x1="597.97" y1="305.70" x2="597.97" y2="326.22" stroke="#0ecb81" stroke-width="1.4" /><rect x="594.97" y="310.78" width="6" height="9.14" rx="1.5" fill="#0ecb81" /><line x1="608.71" y1="309.76" x2="608.71" y2="342.68" stroke="#f6465d" stroke-width="1.4" /><rect x="605.71" y="310.37" width="6" height="20.73" rx="1.5" fill="#f6465d" /><line x1="619.44" y1="317.69" x2="619.44" y2="340.44" stroke="#0ecb81" stroke-width="1.4" /><rect x="616.44" y="330.69" width="6" height="2.00" rx="1.5" fill="#0ecb81" /><line x1="630.18" y1="269.73" x2="630.18" y2="335.97" stroke="#0ecb81" stroke-width="1.4" /><rect x="627.18" y="311.18" width="6" height="19.30" rx="1.5" fill="#0ecb81" /><line x1="640.91" y1="306.10" x2="640.91" y2="326.83" stroke="#f6465d" stroke-width="1.4" /><rect x="637.91" y="311.18" width="6" height="14.63" rx="1.5" fill="#f6465d" /><line x1="651.65" y1="324.19" x2="651.65" y2="369.50" stroke="#f6465d" stroke-width="1.4" /><rect x="648.65" y="326.02" width="6" height="25.60" rx="1.5" fill="#f6465d" /><line x1="662.38" y1="349.39" x2="662.38" y2="386.37" stroke="#f6465d" stroke-width="1.4" /><rect x="659.38" y="351.21" width="6" height="6.50" rx="1.5" fill="#f6465d" /><line x1="673.11" y1="347.76" x2="673.11" y2="373.16" stroke="#f6465d" stroke-width="1.4" /><rect x="670.11" y="358.12" width="6" height="11.18" rx="1.5" fill="#f6465d" /><line x1="683.85" y1="363.81" x2="683.85" y2="372.96" stroke="#0ecb81" stroke-width="1.4" /><rect x="680.85" y="366.05" width="6" height="3.45" rx="1.5" fill="#0ecb81" /><line x1="694.58" y1="365.64" x2="694.58" y2="407.09" stroke="#f6465d" stroke-width="1.4" /><rect x="691.58" y="366.05" width="6" height="35.36" rx="1.5" fill="#f6465d" /><line x1="705.32" y1="389.21" x2="705.32" y2="407.30" stroke="#0ecb81" stroke-width="1.4" /><rect x="702.32" y="401.40" width="6" height="2.00" rx="1.5" fill="#0ecb81" /><line x1="716.05" y1="398.36" x2="716.05" y2="416.03" stroke="#f6465d" stroke-width="1.4" /><rect x="713.05" y="401.61" width="6" height="7.52" rx="1.5" fill="#f6465d" /><line x1="726.78" y1="380.47" x2="726.78" y2="411.16" stroke="#0ecb81" stroke-width="1.4" /><rect x="723.78" y="399.98" width="6" height="9.14" rx="1.5" fill="#0ecb81" /><line x1="737.52" y1="400.18" x2="737.52" y2="409.73" stroke="#f6465d" stroke-width="1.4" /><rect x="734.52" y="400.18" width="6" height="7.32" rx="1.5" fill="#f6465d" /><line x1="748.25" y1="400.79" x2="748.25" y2="412.17" stroke="#0ecb81" stroke-width="1.4" /><rect x="745.25" y="407.09" width="6" height="2.00" rx="1.5" fill="#0ecb81" /><line x1="758.99" y1="383.32" x2="758.99" y2="415.83" stroke="#0ecb81" stroke-width="1.4" /><rect x="755.99" y="403.64" width="6" height="3.45" rx="1.5" fill="#0ecb81" /><line x1="769.72" y1="381.29" x2="769.72" y2="410.75" stroke="#0ecb81" stroke-width="1.4" /><rect x="766.72" y="392.87" width="6" height="10.77" rx="1.5" fill="#0ecb81" /><line x1="780.46" y1="389.62" x2="780.46" y2="409.73" stroke="#f6465d" stroke-width="1.4" /><rect x="777.46" y="392.67" width="6" height="15.04" rx="1.5" fill="#f6465d" /><line x1="791.19" y1="398.15" x2="791.19" y2="412.38" stroke="#0ecb81" stroke-width="1.4" /><rect x="788.19" y="401.20" width="6" height="6.10" rx="1.5" fill="#0ecb81" /><line x1="801.92" y1="400.79" x2="801.92" y2="428.23" stroke="#f6465d" stroke-width="1.4" /><rect x="798.92" y="401.20" width="6" height="13.82" rx="1.5" fill="#f6465d" /><line x1="812.66" y1="401.61" x2="812.66" y2="423.55" stroke="#0ecb81" stroke-width="1.4" /><rect x="809.66" y="411.56" width="6" height="3.05" rx="1.5" fill="#0ecb81" /><line x1="823.39" y1="401.81" x2="823.39" y2="427.21" stroke="#f6465d" stroke-width="1.4" /><rect x="820.39" y="411.77" width="6" height="10.97" rx="1.5" fill="#f6465d" /><line x1="834.13" y1="421.32" x2="834.13" y2="452.00" stroke="#f6465d" stroke-width="1.4" /><rect x="831.13" y="422.54" width="6" height="11.79" rx="1.5" fill="#f6465d" /><line x1="844.86" y1="408.52" x2="844.86" y2="442.04" stroke="#0ecb81" stroke-width="1.4" /><rect x="841.86" y="411.77" width="6" height="22.35" rx="1.5" fill="#0ecb81" /><line x1="855.59" y1="406.69" x2="855.59" y2="431.27" stroke="#0ecb81" stroke-width="1.4" /><rect x="852.59" y="409.94" width="6" height="2.00" rx="1.5" fill="#0ecb81" /><line x1="866.33" y1="409.94" x2="866.33" y2="424.16" stroke="#f6465d" stroke-width="1.4" /><rect x="863.33" y="409.94" width="6" height="5.89" rx="1.5" fill="#f6465d" /><line x1="877.06" y1="402.83" x2="877.06" y2="419.29" stroke="#0ecb81" stroke-width="1.4" /><rect x="874.06" y="415.42" width="6" height="2.00" rx="1.5" fill="#0ecb81" /><line x1="887.80" y1="197.39" x2="887.80" y2="421.93" stroke="#0ecb81" stroke-width="1.4" /><rect x="884.80" y="297.16" width="6" height="118.46" rx="1.5" fill="#0ecb81" /><line x1="898.53" y1="58.00" x2="898.53" y2="302.85" stroke="#0ecb81" stroke-width="1.4" /><rect x="895.53" y="262.82" width="6" height="34.14" rx="1.5" fill="#0ecb81" /><line x1="909.27" y1="187.23" x2="909.27" y2="333.94" stroke="#0ecb81" stroke-width="1.4" /><rect x="906.27" y="239.25" width="6" height="23.57" rx="1.5" fill="#0ecb81" /><line x1="920.00" y1="197.60" x2="920.00" y2="278.27" stroke="#f6465d" stroke-width="1.4" /><rect x="917.00" y="239.66" width="6" height="33.73" rx="1.5" fill="#f6465d" />
  <polyline points="426.23,331.71 533.57,247.18 608.71,342.68 630.18,269.73 716.05,416.03" fill="none" stroke="#2fc273" stroke-width="4" stroke-linecap="round" stroke-linejoin="round" />
  <circle cx="426.23" cy="331.71" r="5.5" fill="#2fc273" fill-opacity="0.15" stroke="#2fc273" stroke-width="2" /><text x="426.23" y="319.71" fill="#f3f4f6" font-size="15" font-weight="700" text-anchor="middle">X</text><circle cx="533.57" cy="247.18" r="5.5" fill="#2fc273" fill-opacity="0.15" stroke="#2fc273" stroke-width="2" /><text x="533.57" y="235.18" fill="#f3f4f6" font-size="15" font-weight="700" text-anchor="middle">A</text><circle cx="608.71" cy="342.68" r="5.5" fill="#2fc273" fill-opacity="0.15" stroke="#2fc273" stroke-width="2" /><text x="608.71" y="330.68" fill="#f3f4f6" font-size="15" font-weight="700" text-anchor="middle">B</text><circle cx="630.18" cy="269.73" r="5.5" fill="#2fc273" fill-opacity="0.15" stroke="#2fc273" stroke-width="2" /><text x="630.18" y="257.73" fill="#f3f4f6" font-size="15" font-weight="700" text-anchor="middle">C</text><circle cx="716.05" cy="416.03" r="5.5" fill="#2fc273" fill-opacity="0.15" stroke="#2fc273" stroke-width="2" /><text x="716.05" y="404.03" fill="#f3f4f6" font-size="15" font-weight="700" text-anchor="middle">D</text>
  <text x="56" y="492" fill="#8ba0b5" font-size="18">Complete · TP1 0.05283 · TP2 0.05453 · SL 0.049539</text>
</svg>
