<svg xmlns="http://www.w3.org/2000/svg" width="960" height="540" viewBox="0 0 960 540">
  <rect width="960" height="540" rx="24" fill="#0b1220" />
  <rect x="28" y="28" width="904" height="484" rx="22" fill="#111827" stroke="#1f2937" />
  <text x="56" y="74" fill="#f3f4f6" font-size="34" font-weight="700">LDOUSDT · AB=CD</text>
  <text x="904" y="74" fill="#8ba0b5" font-size="20" text-anchor="end">Bullish (매수) · Score 81.2</text>
  <line x1="72" y1="58" x2="920" y2="58" stroke="#223045" stroke-width="1" stroke-dasharray="4 8" /><line x1="72" y1="156" x2="920" y2="156" stroke="#223045" stroke-width="1" stroke-dasharray="4 8" /><line x1="72" y1="255" x2="920" y2="255" stroke="#223045" stroke-width="1" stroke-dasharray="4 8" /><line x1="72" y1="353" x2="920" y2="353" stroke="#223045" stroke-width="1" stroke-dasharray="4 8" /><line x1="72" y1="452" x2="920" y2="452" stroke="#223045" stroke-width="1" stroke-dasharray="4 8" />
  <rect x="344.56" y="463.13" width="84" height="5.46" fill="#fbbf24" fill-opacity="0.12" stroke="#fbbf24" stroke-width="1.5" stroke-dasharray="6 6" />
  <line x1="72.00" y1="374.02" x2="72.00" y2="423.15" stroke="#f6465d" stroke-width="1.4" /><rect x="69.00" y="378.83" width="6" height="9.27" rx="1.5" fill="#f6465d" /><line x1="82.73" y1="284.71" x2="82.73" y2="391.20" stroke="#0ecb81" stroke-width="1.4" /><rect x="79.73" y="346.54" width="6" height="41.22" rx="1.5" fill="#0ecb81" /><line x1="93.47" y1="290.55" x2="93.47" y2="402.19" stroke="#f6465d" stroke-width="1.4" /><rect x="90.47" y="346.20" width="6" height="46.37" rx="1.5" fill="#f6465d" /><line x1="104.20" y1="349.29" x2="104.20" y2="394.63" stroke="#0ecb81" stroke-width="1.4" /><rect x="101.20" y="351.70" width="6" height="40.53" rx="1.5" fill="#0ecb81" /><line x1="114.94" y1="329.37" x2="114.94" y2="379.86" stroke="#0ecb81" stroke-width="1.4" /><rect x="111.94" y="344.14" width="6" height="7.56" rx="1.5" fill="#0ecb81" /><line x1="125.67" y1="335.21" x2="125.67" y2="370.93" stroke="#f6465d" stroke-width="1.4" /><rect x="122.67" y="344.14" width="6" height="17.18" rx="1.5" fill="#f6465d" /><line x1="136.41" y1="328.34" x2="136.41" y2="390.51" stroke="#f6465d" stroke-width="1.4" /><rect x="133.41" y="361.31" width="6" height="27.82" rx="1.5" fill="#f6465d" /><line x1="147.14" y1="363.72" x2="147.14" y2="402.19" stroke="#f6465d" stroke-width="1.4" /><rect x="144.14" y="389.14" width="6" height="9.96" rx="1.5" fill="#f6465d" /><line x1="157.87" y1="394.63" x2="157.87" y2="443.07" stroke="#f6465d" stroke-width="1.4" /><rect x="154.87" y="399.10" width="6" height="41.22" rx="1.5" fill="#f6465d" /><line x1="168.61" y1="426.92" x2="168.61" y2="445.82" stroke="#0ecb81" stroke-width="1.4" /><rect x="165.61" y="434.82" width="6" height="5.15" rx="1.5" fill="#0ecb81" /><line x1="179.34" y1="394.98" x2="179.34" y2="452.00" stroke="#0ecb81" stroke-width="1.4" /><rect x="176.34" y="400.82" width="6" height="34.35" rx="1.5" fill="#0ecb81" /><line x1="190.08" y1="378.83" x2="190.08" y2="420.74" stroke="#f6465d" stroke-width="1.4" /><rect x="187.08" y="400.82" width="6" height="11.34" rx="1.5" fill="#f6465d" /><line x1="200.81" y1="393.26" x2="200.81" y2="421.43" stroke="#0ecb81" stroke-width="1.4" /><rect x="197.81" y="408.03" width="6" height="4.12" rx="1.5" fill="#0ecb81" /><line x1="211.54" y1="404.25" x2="211.54" y2="436.89" stroke="#f6465d" stroke-width="1.4" /><rect x="208.54" y="408.03" width="6" height="16.14" rx="1.5" fill="#f6465d" /><line x1="222.28" y1="398.07" x2="222.28" y2="439.98" stroke="#f6465d" stroke-width="1.4" /><rect x="219.28" y="424.18" width="6" height="8.59" rx="1.5" fill="#f6465d" /><line x1="233.01" y1="418.34" x2="233.01" y2="436.20" stroke="#0ecb81" stroke-width="1.4" /><rect x="230.01" y="431.73" width="6" height="2.00" rx="1.5" fill="#0ecb81" /><line x1="243.75" y1="406.31" x2="243.75" y2="433.79" stroke="#0ecb81" stroke-width="1.4" /><rect x="240.75" y="415.59" width="6" height="15.80" rx="1.5" fill="#0ecb81" /><line x1="254.48" y1="389.48" x2="254.48" y2="424.18" stroke="#0ecb81" stroke-width="1.4" /><rect x="251.48" y="398.41" width="6" height="17.18" rx="1.5" fill="#0ecb81" /><line x1="265.22" y1="390.51" x2="265.22" y2="417.65" stroke="#f6465d" stroke-width="1.4" /><rect x="262.22" y="398.07" width="6" height="15.46" rx="1.5" fill="#f6465d" /><line x1="275.95" y1="363.72" x2="275.95" y2="417.99" stroke="#0ecb81" stroke-width="1.4" /><rect x="272.95" y="396.35" width="6" height="16.83" rx="1.5" fill="#0ecb81" /><line x1="286.68" y1="335.21" x2="286.68" y2="402.88" stroke="#0ecb81" stroke-width="1.4" /><rect x="283.68" y="337.61" width="6" height="59.08" rx="1.5" fill="#0ecb81" /><line x1="297.42" y1="330.40" x2="297.42" y2="402.54" stroke="#f6465d" stroke-width="1.4" /><rect x="294.42" y="337.61" width="6" height="63.20" rx="1.5" fill="#f6465d" /><line x1="308.15" y1="392.92" x2="308.15" y2="419.02" stroke="#0ecb81" stroke-width="1.4" /><rect x="305.15" y="397.38" width="6" height="3.44" rx="1.5" fill="#0ecb81" /><line x1="318.89" y1="395.67" x2="318.89" y2="422.80" stroke="#f6465d" stroke-width="1.4" /><rect x="315.89" y="397.73" width="6" height="8.59" rx="1.5" fill="#f6465d" /><line x1="329.62" y1="389.83" x2="329.62" y2="416.28" stroke="#0ecb81" stroke-width="1.4" /><rect x="326.62" y="401.50" width="6" height="4.81" rx="1.5" fill="#0ecb81" /><line x1="340.35" y1="392.23" x2="340.35" y2="412.84" stroke="#f6465d" stroke-width="1.4" /><rect x="337.35" y="401.50" width="6" height="4.12" rx="1.5" fill="#f6465d" /><line x1="351.09" y1="392.57" x2="351.09" y2="407.69" stroke="#0ecb81" stroke-width="1.4" /><rect x="348.09" y="401.16" width="6" height="4.12" rx="1.5" fill="#0ecb81" /><line x1="361.82" y1="381.58" x2="361.82" y2="411.47" stroke="#f6465d" stroke-width="1.4" /><rect x="358.82" y="400.82" width="6" height="7.56" rx="1.5" fill="#f6465d" /><line x1="372.56" y1="372.99" x2="372.56" y2="451.31" stroke="#f6465d" stroke-width="1.4" /><rect x="369.56" y="408.72" width="6" height="30.92" rx="1.5" fill="#f6465d" /><line x1="383.29" y1="390.17" x2="383.29" y2="448.22" stroke="#0ecb81" stroke-width="1.4" /><rect x="380.29" y="397.04" width="6" height="42.25" rx="1.5" fill="#0ecb81" /><line x1="394.03" y1="382.27" x2="394.03" y2="400.13" stroke="#0ecb81" stroke-width="1.4" /><rect x="391.03" y="397.04" width="6" height="2.00" rx="1.5" fill="#0ecb81" /><line x1="404.76" y1="390.51" x2="404.76" y2="411.81" stroke="#f6465d" stroke-width="1.4" /><rect x="401.76" y="397.04" width="6" height="7.21" rx="1.5" fill="#f6465d" /><line x1="415.49" y1="353.07" x2="415.49" y2="405.28" stroke="#0ecb81" stroke-width="1.4" /><rect x="412.49" y="377.46" width="6" height="26.79" rx="1.5" fill="#0ecb81" /><line x1="426.23" y1="360.28" x2="426.23" y2="395.67" stroke="#f6465d" stroke-width="1.4" /><rect x="423.23" y="377.80" width="6" height="6.53" rx="1.5" fill="#f6465d" /><line x1="436.96" y1="372.65" x2="436.96" y2="399.79" stroke="#0ecb81" stroke-width="1.4" /><rect x="433.96" y="381.24" width="6" height="3.09" rx="1.5" fill="#0ecb81" /><line x1="447.70" y1="329.37" x2="447.70" y2="381.93" stroke="#0ecb81" stroke-width="1.4" /><rect x="444.70" y="344.48" width="6" height="36.76" rx="1.5" fill="#0ecb81" /><line x1="458.43" y1="340.36" x2="458.43" y2="375.40" stroke="#f6465d" stroke-width="1.4" /><rect x="455.43" y="344.83" width="6" height="13.40" rx="1.5" fill="#f6465d" /><line x1="469.16" y1="297.08" x2="469.16" y2="365.44" stroke="#0ecb81" stroke-width="1.4" /><rect x="466.16" y="331.77" width="6" height="26.79" rx="1.5" fill="#0ecb81" /><line x1="479.90" y1="309.10" x2="479.90" y2="342.08" stroke="#f6465d" stroke-width="1.4" /><rect x="476.90" y="331.43" width="6" height="5.84" rx="1.5" fill="#f6465d" /><line x1="490.63" y1="311.51" x2="490.63" y2="341.39" stroke="#0ecb81" stroke-width="1.4" /><rect x="487.63" y="318.38" width="6" height="18.89" rx="1.5" fill="#0ecb81" /><line x1="501.37" y1="304.29" x2="501.37" y2="346.20" stroke="#0ecb81" stroke-width="1.4" /><rect x="498.37" y="307.04" width="6" height="11.34" rx="1.5" fill="#0ecb81" /><line x1="512.10" y1="299.83" x2="512.10" y2="341.05" stroke="#f6465d" stroke-width="1.4" /><rect x="509.10" y="307.04" width="6" height="31.26" rx="1.5" fill="#f6465d" /><line x1="522.84" y1="315.63" x2="522.84" y2="344.48" stroke="#0ecb81" stroke-width="1.4" /><rect x="519.84" y="338.30" width="6" height="2.00" rx="1.5" fill="#0ecb81" /><line x1="533.57" y1="317.69" x2="533.57" y2="344.14" stroke="#0ecb81" stroke-width="1.4" /><rect x="530.57" y="321.47" width="6" height="17.18" rx="1.5" fill="#0ecb81" /><line x1="544.30" y1="243.49" x2="544.30" y2="330.74" stroke="#0ecb81" stroke-width="1.4" /><rect x="541.30" y="257.58" width="6" height="63.55" rx="1.5" fill="#0ecb81" /><line x1="555.04" y1="218.76" x2="555.04" y2="268.91" stroke="#0ecb81" stroke-width="1.4" /><rect x="552.04" y="231.47" width="6" height="26.11" rx="1.5" fill="#0ecb81" /><line x1="565.77" y1="194.03" x2="565.77" y2="242.46" stroke="#0ecb81" stroke-width="1.4" /><rect x="562.77" y="202.96" width="6" height="28.51" rx="1.5" fill="#0ecb81" /><line x1="576.51" y1="180.29" x2="576.51" y2="217.39" stroke="#0ecb81" stroke-width="1.4" /><rect x="573.51" y="193.68" width="6" height="9.27" rx="1.5" fill="#0ecb81" /><line x1="587.24" y1="190.94" x2="587.24" y2="229.41" stroke="#f6465d" stroke-width="1.4" /><rect x="584.24" y="193.34" width="6" height="24.39" rx="1.5" fill="#f6465d" /><line x1="597.97" y1="150.75" x2="597.97" y2="227.00" stroke="#0ecb81" stroke-width="1.4" /><rect x="594.97" y="167.92" width="6" height="49.81" rx="1.5" fill="#0ecb81" /><line x1="608.71" y1="160.36" x2="608.71" y2="204.68" stroke="#f6465d" stroke-width="1.4" /><rect x="605.71" y="168.61" width="6" height="22.33" rx="1.5" fill="#f6465d" /><line x1="619.44" y1="186.81" x2="619.44" y2="214.98" stroke="#f6465d" stroke-width="1.4" /><rect x="616.44" y="190.94" width="6" height="20.27" rx="1.5" fill="#f6465d" /><line x1="630.18" y1="173.76" x2="630.18" y2="212.23" stroke="#0ecb81" stroke-width="1.4" /><rect x="627.18" y="192.65" width="6" height="18.55" rx="1.5" fill="#0ecb81" /><line x1="640.91" y1="182.01" x2="640.91" y2="214.64" stroke="#0ecb81" stroke-width="1.4" /><rect x="637.91" y="191.97" width="6" height="2.00" rx="1.5" fill="#0ecb81" /><line x1="651.65" y1="158.30" x2="651.65" y2="199.18" stroke="#0ecb81" stroke-width="1.4" /><rect x="648.65" y="174.45" width="6" height="16.83" rx="1.5" fill="#0ecb81" /><line x1="662.38" y1="137.35" x2="662.38" y2="186.81" stroke="#0ecb81" stroke-width="1.4" /><rect x="659.38" y="145.59" width="6" height="29.20" rx="1.5" fill="#0ecb81" /><line x1="673.11" y1="124.30" x2="673.11" y2="195.40" stroke="#f6465d" stroke-width="1.4" /><rect x="670.11" y="145.59" width="6" height="43.28" rx="1.5" fill="#f6465d" /><line x1="683.85" y1="173.76" x2="683.85" y2="194.03" stroke="#0ecb81" stroke-width="1.4" /><rect x="680.85" y="177.88" width="6" height="10.65" rx="1.5" fill="#0ecb81" /><line x1="694.58" y1="175.14" x2="694.58" y2="202.27" stroke="#f6465d" stroke-width="1.4" /><rect x="691.58" y="177.88" width="6" height="3.09" rx="1.5" fill="#f6465d" /><line x1="705.32" y1="180.63" x2="705.32" y2="212.23" stroke="#f6465d" stroke-width="1.4" /><rect x="702.32" y="181.32" width="6" height="16.49" rx="1.5" fill="#f6465d" /><line x1="716.05" y1="195.40" x2="716.05" y2="232.16" stroke="#f6465d" stroke-width="1.4" /><rect x="713.05" y="197.46" width="6" height="27.14" rx="1.5" fill="#f6465d" /><line x1="726.78" y1="205.36" x2="726.78" y2="239.03" stroke="#0ecb81" stroke-width="1.4" /><rect x="723.78" y="210.17" width="6" height="14.08" rx="1.5" fill="#0ecb81" /><line x1="737.52" y1="208.11" x2="737.52" y2="248.65" stroke="#f6465d" stroke-width="1.4" /><rect x="734.52" y="210.17" width="6" height="28.17" rx="1.5" fill="#f6465d" /><line x1="748.25" y1="227.00" x2="748.25" y2="244.52" stroke="#0ecb81" stroke-width="1.4" /><rect x="745.25" y="234.90" width="6" height="3.09" rx="1.5" fill="#0ecb81" /><line x1="758.99" y1="206.05" x2="758.99" y2="241.78" stroke="#0ecb81" stroke-width="1.4" /><rect x="755.99" y="220.13" width="6" height="14.43" rx="1.5" fill="#0ecb81" /><line x1="769.72" y1="211.55" x2="769.72" y2="241.09" stroke="#f6465d" stroke-width="1.4" /><rect x="766.72" y="220.13" width="6" height="14.43" rx="1.5" fill="#f6465d" /><line x1="780.46" y1="218.07" x2="780.46" y2="242.46" stroke="#f6465d" stroke-width="1.4" /><rect x="777.46" y="234.22" width="6" height="5.50" rx="1.5" fill="#f6465d" /><line x1="791.19" y1="219.10" x2="791.19" y2="245.90" stroke="#0ecb81" stroke-width="1.4" /><rect x="788.19" y="238.00" width="6" height="2.00" rx="1.5" fill="#0ecb81" /><line x1="801.92" y1="237.31" x2="801.92" y2="264.10" stroke="#f6465d" stroke-width="1.4" /><rect x="798.92" y="238.00" width="6" height="15.11" rx="1.5" fill="#f6465d" /><line x1="812.66" y1="237.31" x2="812.66" y2="258.61" stroke="#0ecb81" stroke-width="1.4" /><rect x="809.66" y="245.90" width="6" height="7.21" rx="1.5" fill="#0ecb81" /><line x1="823.39" y1="230.44" x2="823.39" y2="255.17" stroke="#0ecb81" stroke-width="1.4" /><rect x="820.39" y="245.55" width="6" height="2.00" rx="1.5" fill="#0ecb81" /><line x1="834.13" y1="230.78" x2="834.13" y2="260.32" stroke="#0ecb81" stroke-width="1.4" /><rect x="831.13" y="236.97" width="6" height="8.59" rx="1.5" fill="#0ecb81" /><line x1="844.86" y1="230.78" x2="844.86" y2="258.61" stroke="#f6465d" stroke-width="1.4" /><rect x="841.86" y="237.31" width="6" height="4.81" rx="1.5" fill="#f6465d" /><line x1="855.59" y1="221.85" x2="855.59" y2="256.89" stroke="#0ecb81" stroke-width="1.4" /><rect x="852.59" y="223.91" width="6" height="17.86" rx="1.5" fill="#0ecb81" /><line x1="866.33" y1="147.65" x2="866.33" y2="224.26" stroke="#0ecb81" stroke-width="1.4" /><rect x="863.33" y="157.96" width="6" height="65.95" rx="1.5" fill="#0ecb81" /><line x1="877.06" y1="126.01" x2="877.06" y2="172.73" stroke="#0ecb81" stroke-width="1.4" /><rect x="874.06" y="148.34" width="6" height="9.62" rx="1.5" fill="#0ecb81" /><line x1="887.80" y1="81.01" x2="887.80" y2="151.09" stroke="#0ecb81" stroke-width="1.4" /><rect x="884.80" y="83.42" width="6" height="65.27" rx="1.5" fill="#0ecb81" /><line x1="898.53" y1="72.77" x2="898.53" y2="108.50" stroke="#f6465d" stroke-width="1.4" /><rect x="895.53" y="83.76" width="6" height="12.02" rx="1.5" fill="#f6465d" /><line x1="909.27" y1="78.61" x2="909.27" y2="107.81" stroke="#0ecb81" stroke-width="1.4" /><rect x="906.27" y="81.01" width="6" height="14.43" rx="1.5" fill="#0ecb81" /><line x1="920.00" y1="58.00" x2="920.00" y2="101.28" stroke="#f6465d" stroke-width="1.4" /><rect x="917.00" y="81.36" width="6" height="13.05" rx="1.5" fill="#f6465d" />
  <polyline points="222.28,439.98 297.42,330.40 318.89,422.80 372.56,372.99 372.56,451.31" fill="none" stroke="#2fc273" stroke-width="4" stroke-linecap="round" stroke-linejoin="round" />
  <circle cx="222.28" cy="439.98" r="5.5" fill="#2fc273" fill-opacity="0.15" stroke="#2fc273" stroke-width="2" /><text x="222.28" y="427.98" fill="#f3f4f6" font-size="15" font-weight="700" text-anchor="middle">X</text><circle cx="297.42" cy="330.40" r="5.5" fill="#2fc273" fill-opacity="0.15" stroke="#2fc273" stroke-width="2" /><text x="297.42" y="318.40" fill="#f3f4f6" font-size="15" font-weight="700" text-anchor="middle">A</text><circle cx="318.89" cy="422.80" r="5.5" fill="#2fc273" fill-opacity="0.15" stroke="#2fc273" stroke-width="2" /><text x="318.89" y="410.80" fill="#f3f4f6" font-size="15" font-weight="700" text-anchor="middle">B</text><circle cx="372.56" cy="372.99" r="5.5" fill="#2fc273" fill-opacity="0.15" stroke="#2fc273" stroke-width="2" /><text x="372.56" y="360.99" fill="#f3f4f6" font-size="15" font-weight="700" text-anchor="middle">C</text><circle cx="372.56" cy="451.31" r="5.5" fill="#2fc273" fill-opacity="0.15" stroke="#2fc273" stroke-width="2" /><text x="372.56" y="439.31" fill="#f3f4f6" font-size="15" font-weight="700" text-anchor="middle">D</text>
  <text x="56" y="492" fill="#8ba0b5" font-size="18">Complete · TP1 0.30321 · TP2 0.30859 · SL 0.29035</text>
</svg>
