<svg xmlns="http://www.w3.org/2000/svg" width="960" height="540" viewBox="0 0 960 540">
  <rect width="960" height="540" rx="24" fill="#0b1220" />
  <rect x="28" y="28" width="904" height="484" rx="22" fill="#111827" stroke="#1f2937" />
  <text x="56" y="74" fill="#f3f4f6" font-size="34" font-weight="700">MMTUSDT · AB=CD</text>
  <text x="904" y="74" fill="#8ba0b5" font-size="20" text-anchor="end">Bullish (매수) · Score 81.2</text>
  <line x1="72" y1="58" x2="920" y2="58" stroke="#223045" stroke-width="1" stroke-dasharray="4 8" /><line x1="72" y1="156" x2="920" y2="156" stroke="#223045" stroke-width="1" stroke-dasharray="4 8" /><line x1="72" y1="255" x2="920" y2="255" stroke="#223045" stroke-width="1" stroke-dasharray="4 8" /><line x1="72" y1="353" x2="920" y2="353" stroke="#223045" stroke-width="1" stroke-dasharray="4 8" /><line x1="72" y1="452" x2="920" y2="452" stroke="#223045" stroke-width="1" stroke-dasharray="4 8" />
  <rect x="698.78" y="418.16" width="84" height="7.44" fill="#fbbf24" fill-opacity="0.12" stroke="#fbbf24" stroke-width="1.5" stroke-dasharray="6 6" />
  <line x1="72.00" y1="378.31" x2="72.00" y2="418.92" stroke="#0ecb81" stroke-width="1.4" /><rect x="69.00" y="390.34" width="6" height="18.05" rx="1.5" fill="#0ecb81" /><line x1="82.73" y1="368.54" x2="82.73" y2="393.35" stroke="#0ecb81" stroke-width="1.4" /><rect x="79.73" y="379.82" width="6" height="9.77" rx="1.5" fill="#0ecb81" /><line x1="93.47" y1="349.74" x2="93.47" y2="383.58" stroke="#0ecb81" stroke-width="1.4" /><rect x="90.47" y="357.26" width="6" height="21.81" rx="1.5" fill="#0ecb81" /><line x1="104.20" y1="352.75" x2="104.20" y2="365.53" stroke="#0ecb81" stroke-width="1.4" /><rect x="101.20" y="353.50" width="6" height="3.01" rx="1.5" fill="#0ecb81" /><line x1="114.94" y1="342.97" x2="114.94" y2="361.02" stroke="#f6465d" stroke-width="1.4" /><rect x="111.94" y="353.50" width="6" height="3.76" rx="1.5" fill="#f6465d" /><line x1="125.67" y1="348.99" x2="125.67" y2="370.04" stroke="#0ecb81" stroke-width="1.4" /><rect x="122.67" y="348.99" width="6" height="7.52" rx="1.5" fill="#0ecb81" /><line x1="136.41" y1="344.48" x2="136.41" y2="361.02" stroke="#f6465d" stroke-width="1.4" /><rect x="133.41" y="348.99" width="6" height="2.00" rx="1.5" fill="#f6465d" /><line x1="147.14" y1="348.99" x2="147.14" y2="366.28" stroke="#f6465d" stroke-width="1.4" /><rect x="144.14" y="350.49" width="6" height="7.52" rx="1.5" fill="#f6465d" /><line x1="157.87" y1="354.25" x2="157.87" y2="375.31" stroke="#f6465d" stroke-width="1.4" /><rect x="154.87" y="358.01" width="6" height="6.77" rx="1.5" fill="#f6465d" /><line x1="168.61" y1="345.23" x2="168.61" y2="365.53" stroke="#0ecb81" stroke-width="1.4" /><rect x="165.61" y="347.48" width="6" height="17.29" rx="1.5" fill="#0ecb81" /><line x1="179.34" y1="344.48" x2="179.34" y2="355.00" stroke="#f6465d" stroke-width="1.4" /><rect x="176.34" y="346.73" width="6" height="2.00" rx="1.5" fill="#f6465d" /><line x1="190.08" y1="346.73" x2="190.08" y2="359.52" stroke="#f6465d" stroke-width="1.4" /><rect x="187.08" y="347.48" width="6" height="11.28" rx="1.5" fill="#f6465d" /><line x1="200.81" y1="348.24" x2="200.81" y2="358.76" stroke="#0ecb81" stroke-width="1.4" /><rect x="197.81" y="351.24" width="6" height="6.77" rx="1.5" fill="#0ecb81" /><line x1="211.54" y1="345.98" x2="211.54" y2="363.27" stroke="#f6465d" stroke-width="1.4" /><rect x="208.54" y="350.49" width="6" height="4.51" rx="1.5" fill="#f6465d" /><line x1="222.28" y1="348.24" x2="222.28" y2="366.28" stroke="#f6465d" stroke-width="1.4" /><rect x="219.28" y="354.25" width="6" height="3.76" rx="1.5" fill="#f6465d" /><line x1="233.01" y1="349.74" x2="233.01" y2="363.27" stroke="#0ecb81" stroke-width="1.4" /><rect x="230.01" y="354.25" width="6" height="3.01" rx="1.5" fill="#0ecb81" /><line x1="243.75" y1="345.23" x2="243.75" y2="363.27" stroke="#f6465d" stroke-width="1.4" /><rect x="240.75" y="353.50" width="6" height="4.51" rx="1.5" fill="#f6465d" /><line x1="254.48" y1="358.01" x2="254.48" y2="374.55" stroke="#f6465d" stroke-width="1.4" /><rect x="251.48" y="358.76" width="6" height="12.78" rx="1.5" fill="#f6465d" /><line x1="265.22" y1="366.28" x2="265.22" y2="383.58" stroke="#f6465d" stroke-width="1.4" /><rect x="262.22" y="371.55" width="6" height="7.52" rx="1.5" fill="#f6465d" /><line x1="275.95" y1="376.06" x2="275.95" y2="392.60" stroke="#f6465d" stroke-width="1.4" /><rect x="272.95" y="379.82" width="6" height="7.52" rx="1.5" fill="#f6465d" /><line x1="286.68" y1="382.82" x2="286.68" y2="397.86" stroke="#f6465d" stroke-width="1.4" /><rect x="283.68" y="387.34" width="6" height="6.02" rx="1.5" fill="#f6465d" /><line x1="297.42" y1="381.32" x2="297.42" y2="398.61" stroke="#0ecb81" stroke-width="1.4" /><rect x="294.42" y="387.34" width="6" height="5.26" rx="1.5" fill="#0ecb81" /><line x1="308.15" y1="379.06" x2="308.15" y2="390.34" stroke="#f6465d" stroke-width="1.4" /><rect x="305.15" y="386.58" width="6" height="2.00" rx="1.5" fill="#f6465d" /><line x1="318.89" y1="382.82" x2="318.89" y2="395.61" stroke="#0ecb81" stroke-width="1.4" /><rect x="315.89" y="385.08" width="6" height="3.01" rx="1.5" fill="#0ecb81" /><line x1="329.62" y1="384.33" x2="329.62" y2="417.41" stroke="#f6465d" stroke-width="1.4" /><rect x="326.62" y="385.08" width="6" height="21.81" rx="1.5" fill="#f6465d" /><line x1="340.35" y1="389.59" x2="340.35" y2="414.40" stroke="#0ecb81" stroke-width="1.4" /><rect x="337.35" y="397.11" width="6" height="10.53" rx="1.5" fill="#0ecb81" /><line x1="351.09" y1="393.35" x2="351.09" y2="403.88" stroke="#0ecb81" stroke-width="1.4" /><rect x="348.09" y="394.10" width="6" height="3.01" rx="1.5" fill="#0ecb81" /><line x1="361.82" y1="393.35" x2="361.82" y2="409.89" stroke="#f6465d" stroke-width="1.4" /><rect x="358.82" y="394.10" width="6" height="10.53" rx="1.5" fill="#f6465d" /><line x1="372.56" y1="401.62" x2="372.56" y2="413.65" stroke="#f6465d" stroke-width="1.4" /><rect x="369.56" y="404.63" width="6" height="4.51" rx="1.5" fill="#f6465d" /><line x1="383.29" y1="409.14" x2="383.29" y2="430.95" stroke="#f6465d" stroke-width="1.4" /><rect x="380.29" y="409.14" width="6" height="8.27" rx="1.5" fill="#f6465d" /><line x1="394.03" y1="415.16" x2="394.03" y2="426.44" stroke="#f6465d" stroke-width="1.4" /><rect x="391.03" y="417.41" width="6" height="3.76" rx="1.5" fill="#f6465d" /><line x1="404.76" y1="410.65" x2="404.76" y2="424.93" stroke="#0ecb81" stroke-width="1.4" /><rect x="401.76" y="416.66" width="6" height="4.51" rx="1.5" fill="#0ecb81" /><line x1="415.49" y1="402.37" x2="415.49" y2="417.41" stroke="#0ecb81" stroke-width="1.4" /><rect x="412.49" y="409.89" width="6" height="6.02" rx="1.5" fill="#0ecb81" /><line x1="426.23" y1="407.64" x2="426.23" y2="426.44" stroke="#f6465d" stroke-width="1.4" /><rect x="423.23" y="409.14" width="6" height="13.53" rx="1.5" fill="#f6465d" /><line x1="436.96" y1="419.67" x2="436.96" y2="433.20" stroke="#0ecb81" stroke-width="1.4" /><rect x="433.96" y="422.68" width="6" height="2.00" rx="1.5" fill="#0ecb81" /><line x1="447.70" y1="420.42" x2="447.70" y2="425.68" stroke="#f6465d" stroke-width="1.4" /><rect x="444.70" y="422.68" width="6" height="3.01" rx="1.5" fill="#f6465d" /><line x1="458.43" y1="407.64" x2="458.43" y2="426.44" stroke="#0ecb81" stroke-width="1.4" /><rect x="455.43" y="421.17" width="6" height="3.76" rx="1.5" fill="#0ecb81" /><line x1="469.16" y1="421.17" x2="469.16" y2="437.71" stroke="#f6465d" stroke-width="1.4" /><rect x="466.16" y="421.92" width="6" height="7.52" rx="1.5" fill="#f6465d" /><line x1="479.90" y1="425.68" x2="479.90" y2="433.95" stroke="#f6465d" stroke-width="1.4" /><rect x="476.90" y="429.44" width="6" height="2.26" rx="1.5" fill="#f6465d" /><line x1="490.63" y1="422.68" x2="490.63" y2="452.00" stroke="#0ecb81" stroke-width="1.4" /><rect x="487.63" y="430.95" width="6" height="2.00" rx="1.5" fill="#0ecb81" /><line x1="501.37" y1="412.90" x2="501.37" y2="436.96" stroke="#0ecb81" stroke-width="1.4" /><rect x="498.37" y="418.16" width="6" height="12.78" rx="1.5" fill="#0ecb81" /><line x1="512.10" y1="413.65" x2="512.10" y2="422.68" stroke="#0ecb81" stroke-width="1.4" /><rect x="509.10" y="416.66" width="6" height="2.00" rx="1.5" fill="#0ecb81" /><line x1="522.84" y1="412.15" x2="522.84" y2="424.18" stroke="#f6465d" stroke-width="1.4" /><rect x="519.84" y="416.66" width="6" height="2.00" rx="1.5" fill="#f6465d" /><line x1="533.57" y1="415.16" x2="533.57" y2="432.45" stroke="#f6465d" stroke-width="1.4" /><rect x="530.57" y="416.66" width="6" height="10.53" rx="1.5" fill="#f6465d" /><line x1="544.30" y1="421.17" x2="544.30" y2="438.47" stroke="#f6465d" stroke-width="1.4" /><rect x="541.30" y="427.19" width="6" height="6.02" rx="1.5" fill="#f6465d" /><line x1="555.04" y1="418.16" x2="555.04" y2="433.95" stroke="#0ecb81" stroke-width="1.4" /><rect x="552.04" y="427.94" width="6" height="5.26" rx="1.5" fill="#0ecb81" /><line x1="565.77" y1="415.16" x2="565.77" y2="430.95" stroke="#f6465d" stroke-width="1.4" /><rect x="562.77" y="427.94" width="6" height="2.00" rx="1.5" fill="#f6465d" /><line x1="576.51" y1="416.66" x2="576.51" y2="431.70" stroke="#0ecb81" stroke-width="1.4" /><rect x="573.51" y="419.67" width="6" height="9.77" rx="1.5" fill="#0ecb81" /><line x1="587.24" y1="416.66" x2="587.24" y2="430.95" stroke="#f6465d" stroke-width="1.4" /><rect x="584.24" y="419.67" width="6" height="2.00" rx="1.5" fill="#f6465d" /><line x1="597.97" y1="394.10" x2="597.97" y2="424.93" stroke="#0ecb81" stroke-width="1.4" /><rect x="594.97" y="404.63" width="6" height="16.54" rx="1.5" fill="#0ecb81" /><line x1="608.71" y1="382.82" x2="608.71" y2="406.89" stroke="#0ecb81" stroke-width="1.4" /><rect x="605.71" y="390.34" width="6" height="14.29" rx="1.5" fill="#0ecb81" /><line x1="619.44" y1="381.32" x2="619.44" y2="397.86" stroke="#0ecb81" stroke-width="1.4" /><rect x="616.44" y="388.84" width="6" height="2.00" rx="1.5" fill="#0ecb81" /><line x1="630.18" y1="388.09" x2="630.18" y2="407.64" stroke="#f6465d" stroke-width="1.4" /><rect x="627.18" y="388.84" width="6" height="12.03" rx="1.5" fill="#f6465d" /><line x1="640.91" y1="394.10" x2="640.91" y2="406.13" stroke="#f6465d" stroke-width="1.4" /><rect x="637.91" y="400.12" width="6" height="2.00" rx="1.5" fill="#f6465d" /><line x1="651.65" y1="394.85" x2="651.65" y2="409.14" stroke="#f6465d" stroke-width="1.4" /><rect x="648.65" y="401.62" width="6" height="2.00" rx="1.5" fill="#f6465d" /><line x1="662.38" y1="390.34" x2="662.38" y2="402.37" stroke="#0ecb81" stroke-width="1.4" /><rect x="659.38" y="394.85" width="6" height="6.77" rx="1.5" fill="#0ecb81" /><line x1="673.11" y1="390.34" x2="673.11" y2="402.37" stroke="#f6465d" stroke-width="1.4" /><rect x="670.11" y="394.85" width="6" height="4.51" rx="1.5" fill="#f6465d" /><line x1="683.85" y1="399.37" x2="683.85" y2="409.14" stroke="#f6465d" stroke-width="1.4" /><rect x="680.85" y="400.12" width="6" height="7.52" rx="1.5" fill="#f6465d" /><line x1="694.58" y1="392.60" x2="694.58" y2="428.69" stroke="#f6465d" stroke-width="1.4" /><rect x="691.58" y="407.64" width="6" height="16.54" rx="1.5" fill="#f6465d" /><line x1="705.32" y1="409.89" x2="705.32" y2="429.44" stroke="#0ecb81" stroke-width="1.4" /><rect x="702.32" y="410.65" width="6" height="13.53" rx="1.5" fill="#0ecb81" /><line x1="716.05" y1="406.13" x2="716.05" y2="424.18" stroke="#f6465d" stroke-width="1.4" /><rect x="713.05" y="409.89" width="6" height="11.28" rx="1.5" fill="#f6465d" /><line x1="726.78" y1="421.17" x2="726.78" y2="437.71" stroke="#f6465d" stroke-width="1.4" /><rect x="723.78" y="421.17" width="6" height="8.27" rx="1.5" fill="#f6465d" /><line x1="737.52" y1="407.64" x2="737.52" y2="432.45" stroke="#0ecb81" stroke-width="1.4" /><rect x="734.52" y="414.40" width="6" height="15.79" rx="1.5" fill="#0ecb81" /><line x1="748.25" y1="403.13" x2="748.25" y2="420.42" stroke="#0ecb81" stroke-width="1.4" /><rect x="745.25" y="407.64" width="6" height="6.77" rx="1.5" fill="#0ecb81" /><line x1="758.99" y1="393.35" x2="758.99" y2="412.90" stroke="#0ecb81" stroke-width="1.4" /><rect x="755.99" y="400.87" width="6" height="6.77" rx="1.5" fill="#0ecb81" /><line x1="769.72" y1="381.32" x2="769.72" y2="406.13" stroke="#0ecb81" stroke-width="1.4" /><rect x="766.72" y="385.83" width="6" height="15.79" rx="1.5" fill="#0ecb81" /><line x1="780.46" y1="379.82" x2="780.46" y2="399.37" stroke="#f6465d" stroke-width="1.4" /><rect x="777.46" y="385.83" width="6" height="6.02" rx="1.5" fill="#f6465d" /><line x1="791.19" y1="385.08" x2="791.19" y2="406.13" stroke="#f6465d" stroke-width="1.4" /><rect x="788.19" y="391.85" width="6" height="9.77" rx="1.5" fill="#f6465d" /><line x1="801.92" y1="388.09" x2="801.92" y2="403.13" stroke="#0ecb81" stroke-width="1.4" /><rect x="798.92" y="391.10" width="6" height="9.77" rx="1.5" fill="#0ecb81" /><line x1="812.66" y1="388.09" x2="812.66" y2="400.12" stroke="#f6465d" stroke-width="1.4" /><rect x="809.66" y="391.10" width="6" height="5.26" rx="1.5" fill="#f6465d" /><line x1="823.39" y1="391.10" x2="823.39" y2="399.37" stroke="#0ecb81" stroke-width="1.4" /><rect x="820.39" y="395.61" width="6" height="2.00" rx="1.5" fill="#0ecb81" /><line x1="834.13" y1="388.84" x2="834.13" y2="397.86" stroke="#0ecb81" stroke-width="1.4" /><rect x="831.13" y="393.35" width="6" height="3.01" rx="1.5" fill="#0ecb81" /><line x1="844.86" y1="382.07" x2="844.86" y2="394.10" stroke="#0ecb81" stroke-width="1.4" /><rect x="841.86" y="384.33" width="6" height="9.02" rx="1.5" fill="#0ecb81" /><line x1="855.59" y1="375.31" x2="855.59" y2="391.85" stroke="#f6465d" stroke-width="1.4" /><rect x="852.59" y="383.58" width="6" height="3.76" rx="1.5" fill="#f6465d" /><line x1="866.33" y1="380.57" x2="866.33" y2="390.34" stroke="#0ecb81" stroke-width="1.4" /><rect x="863.33" y="385.08" width="6" height="3.01" rx="1.5" fill="#0ecb81" /><line x1="877.06" y1="379.82" x2="877.06" y2="389.59" stroke="#f6465d" stroke-width="1.4" /><rect x="874.06" y="385.08" width="6" height="2.00" rx="1.5" fill="#f6465d" /><line x1="887.80" y1="373.05" x2="887.80" y2="391.10" stroke="#0ecb81" stroke-width="1.4" /><rect x="884.80" y="377.56" width="6" height="8.27" rx="1.5" fill="#0ecb81" /><line x1="898.53" y1="360.27" x2="898.53" y2="384.33" stroke="#0ecb81" stroke-width="1.4" /><rect x="895.53" y="366.28" width="6" height="11.28" rx="1.5" fill="#0ecb81" /><line x1="909.27" y1="337.71" x2="909.27" y2="382.07" stroke="#0ecb81" stroke-width="1.4" /><rect x="906.27" y="345.23" width="6" height="21.81" rx="1.5" fill="#0ecb81" /><line x1="920.00" y1="58.00" x2="920.00" y2="349.74" stroke="#0ecb81" stroke-width="1.4" /><rect x="917.00" y="67.02" width="6" height="278.21" rx="1.5" fill="#0ecb81" />
  <polyline points="544.30,438.47 619.44,381.32 651.65,409.14 673.11,390.34 726.78,437.71" fill="none" stroke="#2fc273" stroke-width="4" stroke-linecap="round" stroke-linejoin="round" />
  <circle cx="544.30" cy="438.47" r="5.5" fill="#2fc273" fill-opacity="0.15" stroke="#2fc273" stroke-width="2" /><text x="544.30" y="426.47" fill="#f3f4f6" font-size="15" font-weight="700" text-anchor="middle">X</text><circle cx="619.44" cy="381.32" r="5.5" fill="#2fc273" fill-opacity="0.15" stroke="#2fc273" stroke-width="2" /><text x="619.44" y="369.32" fill="#f3f4f6" font-size="15" font-weight="700" text-anchor="middle">A</text><circle cx="651.65" cy="409.14" r="5.5" fill="#2fc273" fill-opacity="0.15" stroke="#2fc273" stroke-width="2" /><text x="651.65" y="397.14" fill="#f3f4f6" font-size="15" font-weight="700" text-anchor="middle">B</text><circle cx="673.11" cy="390.34" r="5.5" fill="#2fc273" fill-opacity="0.15" stroke="#2fc273" stroke-width="2" /><text x="673.11" y="378.34" fill="#f3f4f6" font-size="15" font-weight="700" text-anchor="middle">C</text><circle cx="726.78" cy="437.71" r="5.5" fill="#2fc273" fill-opacity="0.15" stroke="#2fc273" stroke-width="2" /><text x="726.78" y="425.71" fill="#f3f4f6" font-size="15" font-weight="700" text-anchor="middle">D</text>
  <text x="56" y="492" fill="#8ba0b5" font-size="18">일반 완성 · TP1 0.10671 · TP2 0.10819 · SL 0.10331</text>
</svg>
