<svg xmlns="http://www.w3.org/2000/svg" width="960" height="540" viewBox="0 0 960 540">
  <rect width="960" height="540" rx="24" fill="#0b1220" />
  <rect x="28" y="28" width="904" height="484" rx="22" fill="#111827" stroke="#1f2937" />
  <text x="56" y="74" fill="#f3f4f6" font-size="34" font-weight="700">MONUSDT · AB=CD</text>
  <text x="904" y="74" fill="#8ba0b5" font-size="20" text-anchor="end">Bearish (매도) · Score 81.1</text>
  <line x1="72" y1="58" x2="920" y2="58" stroke="#223045" stroke-width="1" stroke-dasharray="4 8" /><line x1="72" y1="156" x2="920" y2="156" stroke="#223045" stroke-width="1" stroke-dasharray="4 8" /><line x1="72" y1="255" x2="920" y2="255" stroke="#223045" stroke-width="1" stroke-dasharray="4 8" /><line x1="72" y1="353" x2="920" y2="353" stroke="#223045" stroke-width="1" stroke-dasharray="4 8" /><line x1="72" y1="452" x2="920" y2="452" stroke="#223045" stroke-width="1" stroke-dasharray="4 8" />
  <rect x="827.59" y="50.82" width="84" height="123.10" fill="#fbbf24" fill-opacity="0.12" stroke="#fbbf24" stroke-width="1.5" stroke-dasharray="6 6" />
  <line x1="72.00" y1="402.48" x2="72.00" y2="452.00" stroke="#0ecb81" stroke-width="1.4" /><rect x="69.00" y="418.80" width="6" height="32.11" rx="1.5" fill="#0ecb81" /><line x1="82.73" y1="401.39" x2="82.73" y2="435.67" stroke="#f6465d" stroke-width="1.4" /><rect x="79.73" y="418.80" width="6" height="15.78" rx="1.5" fill="#f6465d" /><line x1="93.47" y1="415.54" x2="93.47" y2="440.03" stroke="#0ecb81" stroke-width="1.4" /><rect x="90.47" y="430.78" width="6" height="3.27" rx="1.5" fill="#0ecb81" /><line x1="104.20" y1="420.44" x2="104.20" y2="435.13" stroke="#0ecb81" stroke-width="1.4" /><rect x="101.20" y="424.25" width="6" height="6.53" rx="1.5" fill="#0ecb81" /><line x1="114.94" y1="418.80" x2="114.94" y2="442.75" stroke="#f6465d" stroke-width="1.4" /><rect x="111.94" y="424.25" width="6" height="11.97" rx="1.5" fill="#f6465d" /><line x1="125.67" y1="403.57" x2="125.67" y2="441.12" stroke="#0ecb81" stroke-width="1.4" /><rect x="122.67" y="404.65" width="6" height="31.02" rx="1.5" fill="#0ecb81" /><line x1="136.41" y1="365.47" x2="136.41" y2="417.17" stroke="#0ecb81" stroke-width="1.4" /><rect x="133.41" y="366.02" width="6" height="38.64" rx="1.5" fill="#0ecb81" /><line x1="147.14" y1="346.97" x2="147.14" y2="398.12" stroke="#f6465d" stroke-width="1.4" /><rect x="144.14" y="365.47" width="6" height="7.07" rx="1.5" fill="#f6465d" /><line x1="157.87" y1="352.96" x2="157.87" y2="389.42" stroke="#0ecb81" stroke-width="1.4" /><rect x="154.87" y="354.59" width="6" height="17.96" rx="1.5" fill="#0ecb81" /><line x1="168.61" y1="311.60" x2="168.61" y2="355.68" stroke="#0ecb81" stroke-width="1.4" /><rect x="165.61" y="327.38" width="6" height="27.75" rx="1.5" fill="#0ecb81" /><line x1="179.34" y1="324.11" x2="179.34" y2="363.84" stroke="#f6465d" stroke-width="1.4" /><rect x="176.34" y="326.83" width="6" height="22.86" rx="1.5" fill="#f6465d" /><line x1="190.08" y1="196.77" x2="190.08" y2="352.41" stroke="#0ecb81" stroke-width="1.4" /><rect x="187.08" y="239.76" width="6" height="109.93" rx="1.5" fill="#0ecb81" /><line x1="200.81" y1="216.91" x2="200.81" y2="286.56" stroke="#f6465d" stroke-width="1.4" /><rect x="197.81" y="239.22" width="6" height="14.15" rx="1.5" fill="#f6465d" /><line x1="211.54" y1="181.53" x2="211.54" y2="252.82" stroke="#0ecb81" stroke-width="1.4" /><rect x="208.54" y="236.50" width="6" height="16.33" rx="1.5" fill="#0ecb81" /><line x1="222.28" y1="221.80" x2="222.28" y2="268.60" stroke="#f6465d" stroke-width="1.4" /><rect x="219.28" y="235.41" width="6" height="26.67" rx="1.5" fill="#f6465d" /><line x1="233.01" y1="128.20" x2="233.01" y2="276.77" stroke="#0ecb81" stroke-width="1.4" /><rect x="230.01" y="158.68" width="6" height="102.85" rx="1.5" fill="#0ecb81" /><line x1="243.75" y1="108.61" x2="243.75" y2="200.04" stroke="#f6465d" stroke-width="1.4" /><rect x="240.75" y="159.22" width="6" height="31.56" rx="1.5" fill="#f6465d" /><line x1="254.48" y1="180.99" x2="254.48" y2="221.80" stroke="#f6465d" stroke-width="1.4" /><rect x="251.48" y="191.33" width="6" height="16.87" rx="1.5" fill="#f6465d" /><line x1="265.22" y1="162.49" x2="265.22" y2="284.93" stroke="#f6465d" stroke-width="1.4" /><rect x="262.22" y="208.74" width="6" height="51.70" rx="1.5" fill="#f6465d" /><line x1="275.95" y1="235.95" x2="275.95" y2="317.04" stroke="#f6465d" stroke-width="1.4" /><rect x="272.95" y="260.99" width="6" height="41.90" rx="1.5" fill="#f6465d" /><line x1="286.68" y1="288.20" x2="286.68" y2="322.48" stroke="#f6465d" stroke-width="1.4" /><rect x="283.68" y="302.89" width="6" height="9.25" rx="1.5" fill="#f6465d" /><line x1="297.42" y1="245.20" x2="297.42" y2="315.41" stroke="#0ecb81" stroke-width="1.4" /><rect x="294.42" y="272.96" width="6" height="39.18" rx="1.5" fill="#0ecb81" /><line x1="308.15" y1="269.69" x2="308.15" y2="313.23" stroke="#f6465d" stroke-width="1.4" /><rect x="305.15" y="272.96" width="6" height="20.68" rx="1.5" fill="#f6465d" /><line x1="318.89" y1="277.31" x2="318.89" y2="314.86" stroke="#f6465d" stroke-width="1.4" /><rect x="315.89" y="293.64" width="6" height="16.33" rx="1.5" fill="#f6465d" /><line x1="329.62" y1="309.96" x2="329.62" y2="375.81" stroke="#f6465d" stroke-width="1.4" /><rect x="326.62" y="310.51" width="6" height="44.62" rx="1.5" fill="#f6465d" /><line x1="340.35" y1="354.04" x2="340.35" y2="394.31" stroke="#f6465d" stroke-width="1.4" /><rect x="337.35" y="355.13" width="6" height="33.20" rx="1.5" fill="#f6465d" /><line x1="351.09" y1="376.90" x2="351.09" y2="408.46" stroke="#0ecb81" stroke-width="1.4" /><rect x="348.09" y="381.25" width="6" height="7.62" rx="1.5" fill="#0ecb81" /><line x1="361.82" y1="367.65" x2="361.82" y2="390.51" stroke="#0ecb81" stroke-width="1.4" /><rect x="358.82" y="379.08" width="6" height="2.18" rx="1.5" fill="#0ecb81" /><line x1="372.56" y1="375.27" x2="372.56" y2="395.40" stroke="#f6465d" stroke-width="1.4" /><rect x="369.56" y="379.08" width="6" height="9.80" rx="1.5" fill="#f6465d" /><line x1="383.29" y1="383.43" x2="383.29" y2="401.93" stroke="#f6465d" stroke-width="1.4" /><rect x="380.29" y="388.87" width="6" height="7.07" rx="1.5" fill="#f6465d" /><line x1="394.03" y1="380.71" x2="394.03" y2="399.76" stroke="#f6465d" stroke-width="1.4" /><rect x="391.03" y="395.40" width="6" height="3.81" rx="1.5" fill="#f6465d" /><line x1="404.76" y1="366.56" x2="404.76" y2="402.48" stroke="#0ecb81" stroke-width="1.4" /><rect x="401.76" y="375.81" width="6" height="23.94" rx="1.5" fill="#0ecb81" /><line x1="415.49" y1="307.79" x2="415.49" y2="379.08" stroke="#0ecb81" stroke-width="1.4" /><rect x="412.49" y="317.58" width="6" height="58.23" rx="1.5" fill="#0ecb81" /><line x1="426.23" y1="283.30" x2="426.23" y2="339.35" stroke="#f6465d" stroke-width="1.4" /><rect x="423.23" y="317.58" width="6" height="13.06" rx="1.5" fill="#f6465d" /><line x1="436.96" y1="308.33" x2="436.96" y2="348.06" stroke="#f6465d" stroke-width="1.4" /><rect x="433.96" y="330.10" width="6" height="12.52" rx="1.5" fill="#f6465d" /><line x1="447.70" y1="337.72" x2="447.70" y2="362.21" stroke="#f6465d" stroke-width="1.4" /><rect x="444.70" y="342.07" width="6" height="8.16" rx="1.5" fill="#f6465d" /><line x1="458.43" y1="333.36" x2="458.43" y2="380.71" stroke="#f6465d" stroke-width="1.4" /><rect x="455.43" y="349.69" width="6" height="14.69" rx="1.5" fill="#f6465d" /><line x1="469.16" y1="359.49" x2="469.16" y2="393.77" stroke="#f6465d" stroke-width="1.4" /><rect x="466.16" y="364.93" width="6" height="5.99" rx="1.5" fill="#f6465d" /><line x1="479.90" y1="364.38" x2="479.90" y2="391.05" stroke="#f6465d" stroke-width="1.4" /><rect x="476.90" y="370.91" width="6" height="15.78" rx="1.5" fill="#f6465d" /><line x1="490.63" y1="373.09" x2="490.63" y2="425.33" stroke="#f6465d" stroke-width="1.4" /><rect x="487.63" y="386.70" width="6" height="8.16" rx="1.5" fill="#f6465d" /><line x1="501.37" y1="287.65" x2="501.37" y2="398.12" stroke="#0ecb81" stroke-width="1.4" /><rect x="498.37" y="307.24" width="6" height="87.62" rx="1.5" fill="#0ecb81" /><line x1="512.10" y1="273.50" x2="512.10" y2="327.92" stroke="#f6465d" stroke-width="1.4" /><rect x="509.10" y="306.70" width="6" height="8.71" rx="1.5" fill="#f6465d" /><line x1="522.84" y1="314.86" x2="522.84" y2="351.32" stroke="#f6465d" stroke-width="1.4" /><rect x="519.84" y="315.41" width="6" height="21.77" rx="1.5" fill="#f6465d" /><line x1="533.57" y1="318.13" x2="533.57" y2="359.49" stroke="#0ecb81" stroke-width="1.4" /><rect x="530.57" y="335.00" width="6" height="2.00" rx="1.5" fill="#0ecb81" /><line x1="544.30" y1="332.28" x2="544.30" y2="382.34" stroke="#f6465d" stroke-width="1.4" /><rect x="541.30" y="334.45" width="6" height="41.90" rx="1.5" fill="#f6465d" /><line x1="555.04" y1="361.12" x2="555.04" y2="386.70" stroke="#f6465d" stroke-width="1.4" /><rect x="552.04" y="376.36" width="6" height="4.35" rx="1.5" fill="#f6465d" /><line x1="565.77" y1="338.26" x2="565.77" y2="388.33" stroke="#0ecb81" stroke-width="1.4" /><rect x="562.77" y="360.57" width="6" height="20.14" rx="1.5" fill="#0ecb81" /><line x1="576.51" y1="360.03" x2="576.51" y2="384.52" stroke="#f6465d" stroke-width="1.4" /><rect x="573.51" y="360.57" width="6" height="16.33" rx="1.5" fill="#f6465d" /><line x1="587.24" y1="349.15" x2="587.24" y2="386.15" stroke="#0ecb81" stroke-width="1.4" /><rect x="584.24" y="355.13" width="6" height="21.77" rx="1.5" fill="#0ecb81" /><line x1="597.97" y1="311.05" x2="597.97" y2="360.57" stroke="#0ecb81" stroke-width="1.4" /><rect x="594.97" y="334.45" width="6" height="20.68" rx="1.5" fill="#0ecb81" /><line x1="608.71" y1="252.28" x2="608.71" y2="335.54" stroke="#0ecb81" stroke-width="1.4" /><rect x="605.71" y="277.86" width="6" height="57.14" rx="1.5" fill="#0ecb81" /><line x1="619.44" y1="236.50" x2="619.44" y2="278.94" stroke="#0ecb81" stroke-width="1.4" /><rect x="616.44" y="240.31" width="6" height="37.55" rx="1.5" fill="#0ecb81" /><line x1="630.18" y1="227.25" x2="630.18" y2="266.97" stroke="#f6465d" stroke-width="1.4" /><rect x="627.18" y="239.76" width="6" height="4.90" rx="1.5" fill="#f6465d" /><line x1="640.91" y1="197.31" x2="640.91" y2="252.82" stroke="#0ecb81" stroke-width="1.4" /><rect x="637.91" y="241.40" width="6" height="3.27" rx="1.5" fill="#0ecb81" /><line x1="651.65" y1="235.41" x2="651.65" y2="279.49" stroke="#f6465d" stroke-width="1.4" /><rect x="648.65" y="241.40" width="6" height="10.34" rx="1.5" fill="#f6465d" /><line x1="662.38" y1="238.67" x2="662.38" y2="283.30" stroke="#f6465d" stroke-width="1.4" /><rect x="659.38" y="251.73" width="6" height="2.00" rx="1.5" fill="#f6465d" /><line x1="673.11" y1="225.61" x2="673.11" y2="271.87" stroke="#f6465d" stroke-width="1.4" /><rect x="670.11" y="253.37" width="6" height="16.33" rx="1.5" fill="#f6465d" /><line x1="683.85" y1="265.88" x2="683.85" y2="306.70" stroke="#f6465d" stroke-width="1.4" /><rect x="680.85" y="269.69" width="6" height="28.30" rx="1.5" fill="#f6465d" /><line x1="694.58" y1="281.12" x2="694.58" y2="350.23" stroke="#f6465d" stroke-width="1.4" /><rect x="691.58" y="297.99" width="6" height="33.20" rx="1.5" fill="#f6465d" /><line x1="705.32" y1="302.89" x2="705.32" y2="337.17" stroke="#0ecb81" stroke-width="1.4" /><rect x="702.32" y="330.10" width="6" height="2.00" rx="1.5" fill="#0ecb81" /><line x1="716.05" y1="312.14" x2="716.05" y2="346.43" stroke="#f6465d" stroke-width="1.4" /><rect x="713.05" y="330.10" width="6" height="11.97" rx="1.5" fill="#f6465d" /><line x1="726.78" y1="300.71" x2="726.78" y2="364.93" stroke="#0ecb81" stroke-width="1.4" /><rect x="723.78" y="314.86" width="6" height="27.21" rx="1.5" fill="#0ecb81" /><line x1="737.52" y1="295.27" x2="737.52" y2="326.29" stroke="#0ecb81" stroke-width="1.4" /><rect x="734.52" y="307.79" width="6" height="7.62" rx="1.5" fill="#0ecb81" /><line x1="748.25" y1="196.77" x2="748.25" y2="309.96" stroke="#0ecb81" stroke-width="1.4" /><rect x="745.25" y="237.59" width="6" height="69.66" rx="1.5" fill="#0ecb81" /><line x1="758.99" y1="221.80" x2="758.99" y2="259.35" stroke="#f6465d" stroke-width="1.4" /><rect x="755.99" y="237.59" width="6" height="13.06" rx="1.5" fill="#f6465d" /><line x1="769.72" y1="111.33" x2="769.72" y2="262.62" stroke="#0ecb81" stroke-width="1.4" /><rect x="766.72" y="133.64" width="6" height="117.00" rx="1.5" fill="#0ecb81" /><line x1="780.46" y1="108.61" x2="780.46" y2="160.31" stroke="#f6465d" stroke-width="1.4" /><rect x="777.46" y="133.10" width="6" height="9.80" rx="1.5" fill="#f6465d" /><line x1="791.19" y1="95.55" x2="791.19" y2="155.41" stroke="#f6465d" stroke-width="1.4" /><rect x="788.19" y="143.44" width="6" height="7.07" rx="1.5" fill="#f6465d" /><line x1="801.92" y1="137.45" x2="801.92" y2="185.89" stroke="#f6465d" stroke-width="1.4" /><rect x="798.92" y="151.06" width="6" height="16.33" rx="1.5" fill="#f6465d" /><line x1="812.66" y1="101.54" x2="812.66" y2="173.37" stroke="#0ecb81" stroke-width="1.4" /><rect x="809.66" y="110.79" width="6" height="57.14" rx="1.5" fill="#0ecb81" /><line x1="823.39" y1="78.68" x2="823.39" y2="142.90" stroke="#0ecb81" stroke-width="1.4" /><rect x="820.39" y="84.67" width="6" height="26.67" rx="1.5" fill="#0ecb81" /><line x1="834.13" y1="74.33" x2="834.13" y2="124.39" stroke="#f6465d" stroke-width="1.4" /><rect x="831.13" y="84.67" width="6" height="14.15" rx="1.5" fill="#f6465d" /><line x1="844.86" y1="76.50" x2="844.86" y2="123.30" stroke="#0ecb81" stroke-width="1.4" /><rect x="841.86" y="87.93" width="6" height="10.88" rx="1.5" fill="#0ecb81" /><line x1="855.59" y1="58.00" x2="855.59" y2="142.35" stroke="#f6465d" stroke-width="1.4" /><rect x="852.59" y="87.93" width="6" height="46.26" rx="1.5" fill="#f6465d" /><line x1="866.33" y1="67.25" x2="866.33" y2="141.81" stroke="#0ecb81" stroke-width="1.4" /><rect x="863.33" y="86.84" width="6" height="47.35" rx="1.5" fill="#0ecb81" /><line x1="877.06" y1="84.67" x2="877.06" y2="123.85" stroke="#f6465d" stroke-width="1.4" /><rect x="874.06" y="86.84" width="6" height="26.12" rx="1.5" fill="#f6465d" /><line x1="887.80" y1="112.42" x2="887.80" y2="159.22" stroke="#f6465d" stroke-width="1.4" /><rect x="884.80" y="112.42" width="6" height="39.73" rx="1.5" fill="#f6465d" /><line x1="898.53" y1="141.81" x2="898.53" y2="172.28" stroke="#f6465d" stroke-width="1.4" /><rect x="895.53" y="152.69" width="6" height="13.60" rx="1.5" fill="#f6465d" /><line x1="909.27" y1="120.58" x2="909.27" y2="167.93" stroke="#0ecb81" stroke-width="1.4" /><rect x="906.27" y="141.26" width="6" height="24.49" rx="1.5" fill="#0ecb81" /><line x1="920.00" y1="139.09" x2="920.00" y2="159.77" stroke="#f6465d" stroke-width="1.4" /><rect x="917.00" y="140.72" width="6" height="10.34" rx="1.5" fill="#f6465d" />
  <polyline points="512.10,273.50 565.77,388.33 640.91,197.31 726.78,364.93 855.59,58.00" fill="none" stroke="#2fc273" stroke-width="4" stroke-linecap="round" stroke-linejoin="round" />
  <circle cx="512.10" cy="273.50" r="5.5" fill="#2fc273" fill-opacity="0.15" stroke="#2fc273" stroke-width="2" /><text x="512.10" y="261.50" fill="#f3f4f6" font-size="15" font-weight="700" text-anchor="middle">X</text><circle cx="565.77" cy="388.33" r="5.5" fill="#2fc273" fill-opacity="0.15" stroke="#2fc273" stroke-width="2" /><text x="565.77" y="376.33" fill="#f3f4f6" font-size="15" font-weight="700" text-anchor="middle">A</text><circle cx="640.91" cy="197.31" r="5.5" fill="#2fc273" fill-opacity="0.15" stroke="#2fc273" stroke-width="2" /><text x="640.91" y="185.31" fill="#f3f4f6" font-size="15" font-weight="700" text-anchor="middle">B</text><circle cx="726.78" cy="364.93" r="5.5" fill="#2fc273" fill-opacity="0.15" stroke="#2fc273" stroke-width="2" /><text x="726.78" y="352.93" fill="#f3f4f6" font-size="15" font-weight="700" text-anchor="middle">C</text><circle cx="855.59" cy="58.00" r="5.5" fill="#2fc273" fill-opacity="0.15" stroke="#2fc273" stroke-width="2" /><text x="855.59" y="46.00" fill="#f3f4f6" font-size="15" font-weight="700" text-anchor="middle">D</text>
  <text x="56" y="492" fill="#8ba0b5" font-size="18">일반 완성 · TP1 0.026096 · TP2 0.024764 · SL 0.028524</text>
</svg>
