<svg xmlns="http://www.w3.org/2000/svg" width="960" height="540" viewBox="0 0 960 540">
  <rect width="960" height="540" rx="24" fill="#0b1220" />
  <rect x="28" y="28" width="904" height="484" rx="22" fill="#111827" stroke="#1f2937" />
  <text x="56" y="74" fill="#f3f4f6" font-size="34" font-weight="700">NEARUSDT · AB=CD</text>
  <text x="904" y="74" fill="#8ba0b5" font-size="20" text-anchor="end">Bearish (매도) · Score 84.0</text>
  <line x1="72" y1="58" x2="920" y2="58" stroke="#223045" stroke-width="1" stroke-dasharray="4 8" /><line x1="72" y1="156" x2="920" y2="156" stroke="#223045" stroke-width="1" stroke-dasharray="4 8" /><line x1="72" y1="255" x2="920" y2="255" stroke="#223045" stroke-width="1" stroke-dasharray="4 8" /><line x1="72" y1="353" x2="920" y2="353" stroke="#223045" stroke-width="1" stroke-dasharray="4 8" /><line x1="72" y1="452" x2="920" y2="452" stroke="#223045" stroke-width="1" stroke-dasharray="4 8" />
  <rect x="441.16" y="120.00" width="84" height="103.03" fill="#fbbf24" fill-opacity="0.12" stroke="#fbbf24" stroke-width="1.5" stroke-dasharray="6 6" />
  <line x1="72.00" y1="336.03" x2="72.00" y2="431.18" stroke="#f6465d" stroke-width="1.4" /><rect x="69.00" y="358.33" width="6" height="35.68" rx="1.5" fill="#f6465d" /><line x1="82.73" y1="385.09" x2="82.73" y2="452.00" stroke="#f6465d" stroke-width="1.4" /><rect x="79.73" y="394.02" width="6" height="40.14" rx="1.5" fill="#f6465d" /><line x1="93.47" y1="383.61" x2="93.47" y2="435.65" stroke="#0ecb81" stroke-width="1.4" /><rect x="90.47" y="394.02" width="6" height="40.14" rx="1.5" fill="#0ecb81" /><line x1="104.20" y1="368.74" x2="104.20" y2="426.72" stroke="#0ecb81" stroke-width="1.4" /><rect x="101.20" y="379.15" width="6" height="13.38" rx="1.5" fill="#0ecb81" /><line x1="114.94" y1="334.54" x2="114.94" y2="404.42" stroke="#0ecb81" stroke-width="1.4" /><rect x="111.94" y="367.25" width="6" height="11.89" rx="1.5" fill="#0ecb81" /><line x1="125.67" y1="304.81" x2="125.67" y2="376.17" stroke="#0ecb81" stroke-width="1.4" /><rect x="122.67" y="340.49" width="6" height="25.28" rx="1.5" fill="#0ecb81" /><line x1="136.41" y1="321.16" x2="136.41" y2="377.66" stroke="#f6465d" stroke-width="1.4" /><rect x="133.41" y="340.49" width="6" height="25.28" rx="1.5" fill="#f6465d" /><line x1="147.14" y1="294.40" x2="147.14" y2="370.23" stroke="#0ecb81" stroke-width="1.4" /><rect x="144.14" y="344.95" width="6" height="19.33" rx="1.5" fill="#0ecb81" /><line x1="157.87" y1="301.83" x2="157.87" y2="359.82" stroke="#0ecb81" stroke-width="1.4" /><rect x="154.87" y="336.03" width="6" height="8.92" rx="1.5" fill="#0ecb81" /><line x1="168.61" y1="319.68" x2="168.61" y2="347.92" stroke="#f6465d" stroke-width="1.4" /><rect x="165.61" y="334.54" width="6" height="2.97" rx="1.5" fill="#f6465d" /><line x1="179.34" y1="264.66" x2="179.34" y2="359.82" stroke="#0ecb81" stroke-width="1.4" /><rect x="176.34" y="303.32" width="6" height="32.71" rx="1.5" fill="#0ecb81" /><line x1="190.08" y1="297.37" x2="190.08" y2="327.11" stroke="#f6465d" stroke-width="1.4" /><rect x="187.08" y="303.32" width="6" height="14.87" rx="1.5" fill="#f6465d" /><line x1="200.81" y1="286.97" x2="200.81" y2="322.65" stroke="#0ecb81" stroke-width="1.4" /><rect x="197.81" y="313.73" width="6" height="4.46" rx="1.5" fill="#0ecb81" /><line x1="211.54" y1="307.78" x2="211.54" y2="398.48" stroke="#f6465d" stroke-width="1.4" /><rect x="208.54" y="312.24" width="6" height="55.01" rx="1.5" fill="#f6465d" /><line x1="222.28" y1="353.87" x2="222.28" y2="434.16" stroke="#f6465d" stroke-width="1.4" /><rect x="219.28" y="365.77" width="6" height="37.17" rx="1.5" fill="#f6465d" /><line x1="233.01" y1="367.25" x2="233.01" y2="419.29" stroke="#0ecb81" stroke-width="1.4" /><rect x="230.01" y="377.66" width="6" height="26.76" rx="1.5" fill="#0ecb81" /><line x1="243.75" y1="339.00" x2="243.75" y2="386.58" stroke="#0ecb81" stroke-width="1.4" /><rect x="240.75" y="350.90" width="6" height="26.76" rx="1.5" fill="#0ecb81" /><line x1="254.48" y1="343.46" x2="254.48" y2="399.96" stroke="#f6465d" stroke-width="1.4" /><rect x="251.48" y="350.90" width="6" height="41.63" rx="1.5" fill="#f6465d" /><line x1="265.22" y1="358.33" x2="265.22" y2="402.94" stroke="#0ecb81" stroke-width="1.4" /><rect x="262.22" y="361.31" width="6" height="31.22" rx="1.5" fill="#0ecb81" /><line x1="275.95" y1="328.60" x2="275.95" y2="380.63" stroke="#0ecb81" stroke-width="1.4" /><rect x="272.95" y="359.82" width="6" height="2.00" rx="1.5" fill="#0ecb81" /><line x1="286.68" y1="347.92" x2="286.68" y2="379.15" stroke="#f6465d" stroke-width="1.4" /><rect x="283.68" y="358.33" width="6" height="2.97" rx="1.5" fill="#f6465d" /><line x1="297.42" y1="337.52" x2="297.42" y2="419.29" stroke="#f6465d" stroke-width="1.4" /><rect x="294.42" y="361.31" width="6" height="53.52" rx="1.5" fill="#f6465d" /><line x1="308.15" y1="379.15" x2="308.15" y2="432.67" stroke="#0ecb81" stroke-width="1.4" /><rect x="305.15" y="382.12" width="6" height="31.22" rx="1.5" fill="#0ecb81" /><line x1="318.89" y1="373.20" x2="318.89" y2="425.24" stroke="#f6465d" stroke-width="1.4" /><rect x="315.89" y="382.12" width="6" height="20.82" rx="1.5" fill="#f6465d" /><line x1="329.62" y1="371.71" x2="329.62" y2="411.86" stroke="#0ecb81" stroke-width="1.4" /><rect x="326.62" y="380.63" width="6" height="20.82" rx="1.5" fill="#0ecb81" /><line x1="340.35" y1="350.90" x2="340.35" y2="396.99" stroke="#0ecb81" stroke-width="1.4" /><rect x="337.35" y="368.74" width="6" height="11.89" rx="1.5" fill="#0ecb81" /><line x1="351.09" y1="309.27" x2="351.09" y2="379.15" stroke="#0ecb81" stroke-width="1.4" /><rect x="348.09" y="316.70" width="6" height="52.04" rx="1.5" fill="#0ecb81" /><line x1="361.82" y1="307.78" x2="361.82" y2="391.04" stroke="#f6465d" stroke-width="1.4" /><rect x="358.82" y="315.22" width="6" height="68.39" rx="1.5" fill="#f6465d" /><line x1="372.56" y1="313.73" x2="372.56" y2="426.72" stroke="#f6465d" stroke-width="1.4" /><rect x="369.56" y="382.12" width="6" height="31.22" rx="1.5" fill="#f6465d" /><line x1="383.29" y1="333.06" x2="383.29" y2="429.70" stroke="#0ecb81" stroke-width="1.4" /><rect x="380.29" y="350.90" width="6" height="63.93" rx="1.5" fill="#0ecb81" /><line x1="394.03" y1="318.19" x2="394.03" y2="359.82" stroke="#0ecb81" stroke-width="1.4" /><rect x="391.03" y="343.46" width="6" height="5.95" rx="1.5" fill="#0ecb81" /><line x1="404.76" y1="251.28" x2="404.76" y2="382.12" stroke="#0ecb81" stroke-width="1.4" /><rect x="401.76" y="310.75" width="6" height="32.71" rx="1.5" fill="#0ecb81" /><line x1="415.49" y1="272.10" x2="415.49" y2="385.09" stroke="#f6465d" stroke-width="1.4" /><rect x="412.49" y="309.27" width="6" height="34.20" rx="1.5" fill="#f6465d" /><line x1="426.23" y1="333.06" x2="426.23" y2="401.45" stroke="#0ecb81" stroke-width="1.4" /><rect x="423.23" y="333.06" width="6" height="10.41" rx="1.5" fill="#0ecb81" /><line x1="436.96" y1="260.20" x2="436.96" y2="344.95" stroke="#0ecb81" stroke-width="1.4" /><rect x="433.96" y="275.07" width="6" height="57.98" rx="1.5" fill="#0ecb81" /><line x1="447.70" y1="197.76" x2="447.70" y2="286.97" stroke="#0ecb81" stroke-width="1.4" /><rect x="444.70" y="230.47" width="6" height="46.09" rx="1.5" fill="#0ecb81" /><line x1="458.43" y1="203.71" x2="458.43" y2="264.66" stroke="#f6465d" stroke-width="1.4" /><rect x="455.43" y="228.98" width="6" height="5.95" rx="1.5" fill="#f6465d" /><line x1="469.16" y1="117.47" x2="469.16" y2="254.26" stroke="#0ecb81" stroke-width="1.4" /><rect x="466.16" y="147.21" width="6" height="87.72" rx="1.5" fill="#0ecb81" /><line x1="479.90" y1="147.21" x2="479.90" y2="191.81" stroke="#f6465d" stroke-width="1.4" /><rect x="476.90" y="148.69" width="6" height="34.20" rx="1.5" fill="#f6465d" /><line x1="490.63" y1="172.48" x2="490.63" y2="215.60" stroke="#f6465d" stroke-width="1.4" /><rect x="487.63" y="182.89" width="6" height="14.87" rx="1.5" fill="#f6465d" /><line x1="501.37" y1="175.46" x2="501.37" y2="217.09" stroke="#0ecb81" stroke-width="1.4" /><rect x="498.37" y="187.35" width="6" height="10.41" rx="1.5" fill="#0ecb81" /><line x1="512.10" y1="153.15" x2="512.10" y2="214.11" stroke="#f6465d" stroke-width="1.4" /><rect x="509.10" y="187.35" width="6" height="19.33" rx="1.5" fill="#f6465d" /><line x1="522.84" y1="78.82" x2="522.84" y2="221.55" stroke="#0ecb81" stroke-width="1.4" /><rect x="519.84" y="99.63" width="6" height="107.05" rx="1.5" fill="#0ecb81" /><line x1="533.57" y1="58.00" x2="533.57" y2="124.91" stroke="#f6465d" stroke-width="1.4" /><rect x="530.57" y="98.14" width="6" height="4.46" rx="1.5" fill="#f6465d" /><line x1="544.30" y1="96.66" x2="544.30" y2="168.02" stroke="#f6465d" stroke-width="1.4" /><rect x="541.30" y="102.60" width="6" height="59.47" rx="1.5" fill="#f6465d" /><line x1="555.04" y1="89.22" x2="555.04" y2="165.05" stroke="#0ecb81" stroke-width="1.4" /><rect x="552.04" y="115.98" width="6" height="46.09" rx="1.5" fill="#0ecb81" /><line x1="565.77" y1="95.17" x2="565.77" y2="141.26" stroke="#f6465d" stroke-width="1.4" /><rect x="562.77" y="117.47" width="6" height="4.46" rx="1.5" fill="#f6465d" /><line x1="576.51" y1="118.96" x2="576.51" y2="154.64" stroke="#f6465d" stroke-width="1.4" /><rect x="573.51" y="121.93" width="6" height="20.82" rx="1.5" fill="#f6465d" /><line x1="587.24" y1="138.29" x2="587.24" y2="205.19" stroke="#f6465d" stroke-width="1.4" /><rect x="584.24" y="141.26" width="6" height="28.25" rx="1.5" fill="#f6465d" /><line x1="597.97" y1="89.22" x2="597.97" y2="187.35" stroke="#0ecb81" stroke-width="1.4" /><rect x="594.97" y="117.47" width="6" height="53.52" rx="1.5" fill="#0ecb81" /><line x1="608.71" y1="92.20" x2="608.71" y2="191.81" stroke="#f6465d" stroke-width="1.4" /><rect x="605.71" y="115.98" width="6" height="59.47" rx="1.5" fill="#f6465d" /><line x1="619.44" y1="145.72" x2="619.44" y2="279.53" stroke="#f6465d" stroke-width="1.4" /><rect x="616.44" y="176.94" width="6" height="92.18" rx="1.5" fill="#f6465d" /><line x1="630.18" y1="205.19" x2="630.18" y2="282.51" stroke="#0ecb81" stroke-width="1.4" /><rect x="627.18" y="230.47" width="6" height="40.14" rx="1.5" fill="#0ecb81" /><line x1="640.91" y1="220.06" x2="640.91" y2="315.22" stroke="#f6465d" stroke-width="1.4" /><rect x="637.91" y="230.47" width="6" height="75.83" rx="1.5" fill="#f6465d" /><line x1="651.65" y1="303.32" x2="651.65" y2="407.40" stroke="#f6465d" stroke-width="1.4" /><rect x="648.65" y="304.81" width="6" height="40.14" rx="1.5" fill="#f6465d" /><line x1="662.38" y1="292.91" x2="662.38" y2="377.66" stroke="#0ecb81" stroke-width="1.4" /><rect x="659.38" y="333.06" width="6" height="11.89" rx="1.5" fill="#0ecb81" /><line x1="673.11" y1="303.32" x2="673.11" y2="347.92" stroke="#0ecb81" stroke-width="1.4" /><rect x="670.11" y="327.11" width="6" height="7.43" rx="1.5" fill="#0ecb81" /><line x1="683.85" y1="310.75" x2="683.85" y2="344.95" stroke="#0ecb81" stroke-width="1.4" /><rect x="680.85" y="327.11" width="6" height="2.00" rx="1.5" fill="#0ecb81" /><line x1="694.58" y1="298.86" x2="694.58" y2="337.52" stroke="#0ecb81" stroke-width="1.4" /><rect x="691.58" y="312.24" width="6" height="14.87" rx="1.5" fill="#0ecb81" /><line x1="705.32" y1="309.27" x2="705.32" y2="358.33" stroke="#f6465d" stroke-width="1.4" /><rect x="702.32" y="310.75" width="6" height="43.12" rx="1.5" fill="#f6465d" /><line x1="716.05" y1="325.62" x2="716.05" y2="376.17" stroke="#f6465d" stroke-width="1.4" /><rect x="713.05" y="352.38" width="6" height="5.95" rx="1.5" fill="#f6465d" /><line x1="726.78" y1="319.68" x2="726.78" y2="361.31" stroke="#0ecb81" stroke-width="1.4" /><rect x="723.78" y="341.98" width="6" height="16.35" rx="1.5" fill="#0ecb81" /><line x1="737.52" y1="295.89" x2="737.52" y2="347.92" stroke="#0ecb81" stroke-width="1.4" /><rect x="734.52" y="315.22" width="6" height="26.76" rx="1.5" fill="#0ecb81" /><line x1="748.25" y1="303.32" x2="748.25" y2="328.60" stroke="#f6465d" stroke-width="1.4" /><rect x="745.25" y="315.22" width="6" height="4.46" rx="1.5" fill="#f6465d" /><line x1="758.99" y1="309.27" x2="758.99" y2="343.46" stroke="#f6465d" stroke-width="1.4" /><rect x="755.99" y="319.68" width="6" height="17.84" rx="1.5" fill="#f6465d" /><line x1="769.72" y1="303.32" x2="769.72" y2="343.46" stroke="#0ecb81" stroke-width="1.4" /><rect x="766.72" y="313.73" width="6" height="23.79" rx="1.5" fill="#0ecb81" /><line x1="780.46" y1="298.86" x2="780.46" y2="337.52" stroke="#f6465d" stroke-width="1.4" /><rect x="777.46" y="313.73" width="6" height="19.33" rx="1.5" fill="#f6465d" /><line x1="791.19" y1="312.24" x2="791.19" y2="349.41" stroke="#f6465d" stroke-width="1.4" /><rect x="788.19" y="334.54" width="6" height="4.46" rx="1.5" fill="#f6465d" /><line x1="801.92" y1="333.06" x2="801.92" y2="371.71" stroke="#f6465d" stroke-width="1.4" /><rect x="798.92" y="337.52" width="6" height="2.97" rx="1.5" fill="#f6465d" /><line x1="812.66" y1="321.16" x2="812.66" y2="364.28" stroke="#0ecb81" stroke-width="1.4" /><rect x="809.66" y="339.00" width="6" height="2.00" rx="1.5" fill="#0ecb81" /><line x1="823.39" y1="304.81" x2="823.39" y2="362.79" stroke="#0ecb81" stroke-width="1.4" /><rect x="820.39" y="328.60" width="6" height="11.89" rx="1.5" fill="#0ecb81" /><line x1="834.13" y1="322.65" x2="834.13" y2="368.74" stroke="#0ecb81" stroke-width="1.4" /><rect x="831.13" y="327.11" width="6" height="2.00" rx="1.5" fill="#0ecb81" /><line x1="844.86" y1="267.64" x2="844.86" y2="340.49" stroke="#0ecb81" stroke-width="1.4" /><rect x="841.86" y="278.05" width="6" height="49.06" rx="1.5" fill="#0ecb81" /><line x1="855.59" y1="223.03" x2="855.59" y2="297.37" stroke="#0ecb81" stroke-width="1.4" /><rect x="852.59" y="243.85" width="6" height="32.71" rx="1.5" fill="#0ecb81" /><line x1="866.33" y1="231.95" x2="866.33" y2="281.02" stroke="#f6465d" stroke-width="1.4" /><rect x="863.33" y="243.85" width="6" height="19.33" rx="1.5" fill="#f6465d" /><line x1="877.06" y1="240.88" x2="877.06" y2="282.51" stroke="#0ecb81" stroke-width="1.4" /><rect x="874.06" y="246.82" width="6" height="16.35" rx="1.5" fill="#0ecb81" /><line x1="887.80" y1="175.46" x2="887.80" y2="260.20" stroke="#0ecb81" stroke-width="1.4" /><rect x="884.80" y="181.40" width="6" height="65.42" rx="1.5" fill="#0ecb81" /><line x1="898.53" y1="121.93" x2="898.53" y2="194.78" stroke="#f6465d" stroke-width="1.4" /><rect x="895.53" y="181.40" width="6" height="10.41" rx="1.5" fill="#f6465d" /><line x1="909.27" y1="184.38" x2="909.27" y2="234.93" stroke="#f6465d" stroke-width="1.4" /><rect x="906.27" y="190.32" width="6" height="29.74" rx="1.5" fill="#f6465d" /><line x1="920.00" y1="214.11" x2="920.00" y2="267.64" stroke="#f6465d" stroke-width="1.4" /><rect x="917.00" y="220.06" width="6" height="43.12" rx="1.5" fill="#f6465d" />
  <polyline points="361.82,307.78 383.29,429.70 404.76,251.28 426.23,401.45 469.16,117.47" fill="none" stroke="#2fc273" stroke-width="4" stroke-linecap="round" stroke-linejoin="round" />
  <circle cx="361.82" cy="307.78" r="5.5" fill="#2fc273" fill-opacity="0.15" stroke="#2fc273" stroke-width="2" /><text x="361.82" y="295.78" fill="#f3f4f6" font-size="15" font-weight="700" text-anchor="middle">X</text><circle cx="383.29" cy="429.70" r="5.5" fill="#2fc273" fill-opacity="0.15" stroke="#2fc273" stroke-width="2" /><text x="383.29" y="417.70" fill="#f3f4f6" font-size="15" font-weight="700" text-anchor="middle">A</text><circle cx="404.76" cy="251.28" r="5.5" fill="#2fc273" fill-opacity="0.15" stroke="#2fc273" stroke-width="2" /><text x="404.76" y="239.28" fill="#f3f4f6" font-size="15" font-weight="700" text-anchor="middle">B</text><circle cx="426.23" cy="401.45" r="5.5" fill="#2fc273" fill-opacity="0.15" stroke="#2fc273" stroke-width="2" /><text x="426.23" y="389.45" fill="#f3f4f6" font-size="15" font-weight="700" text-anchor="middle">C</text><circle cx="469.16" cy="117.47" r="5.5" fill="#2fc273" fill-opacity="0.15" stroke="#2fc273" stroke-width="2" /><text x="469.16" y="105.47" fill="#f3f4f6" font-size="15" font-weight="700" text-anchor="middle">D</text>
  <text x="56" y="492" fill="#8ba0b5" font-size="18">Complete · TP1 1.993 · TP2 1.948 · SL 2.0767</text>
</svg>
