<svg xmlns="http://www.w3.org/2000/svg" width="960" height="540" viewBox="0 0 960 540">
  <rect width="960" height="540" rx="24" fill="#0b1220" />
  <rect x="28" y="28" width="904" height="484" rx="22" fill="#111827" stroke="#1f2937" />
  <text x="56" y="74" fill="#f3f4f6" font-size="34" font-weight="700">NIGHTUSDT · Bat</text>
  <text x="904" y="74" fill="#8ba0b5" font-size="20" text-anchor="end">Bullish (매수) · Score 68.9</text>
  <line x1="72" y1="58" x2="920" y2="58" stroke="#223045" stroke-width="1" stroke-dasharray="4 8" /><line x1="72" y1="156" x2="920" y2="156" stroke="#223045" stroke-width="1" stroke-dasharray="4 8" /><line x1="72" y1="255" x2="920" y2="255" stroke="#223045" stroke-width="1" stroke-dasharray="4 8" /><line x1="72" y1="353" x2="920" y2="353" stroke="#223045" stroke-width="1" stroke-dasharray="4 8" /><line x1="72" y1="452" x2="920" y2="452" stroke="#223045" stroke-width="1" stroke-dasharray="4 8" />
  <rect x="892.00" y="337.44" width="84" height="61.80" fill="#fbbf24" fill-opacity="0.12" stroke="#fbbf24" stroke-width="1.5" stroke-dasharray="6 6" />
  <line x1="72.00" y1="419.86" x2="72.00" y2="452.00" stroke="#0ecb81" stroke-width="1.4" /><rect x="69.00" y="435.93" width="6" height="2.00" rx="1.5" fill="#0ecb81" /><line x1="85.46" y1="395.73" x2="85.46" y2="452.00" stroke="#0ecb81" stroke-width="1.4" /><rect x="82.46" y="411.85" width="6" height="24.08" rx="1.5" fill="#0ecb81" /><line x1="98.92" y1="371.61" x2="98.92" y2="427.97" stroke="#0ecb81" stroke-width="1.4" /><rect x="95.92" y="387.78" width="6" height="24.08" rx="1.5" fill="#0ecb81" /><line x1="112.38" y1="347.49" x2="112.38" y2="403.94" stroke="#0ecb81" stroke-width="1.4" /><rect x="109.38" y="363.70" width="6" height="24.08" rx="1.5" fill="#0ecb81" /><line x1="125.84" y1="323.36" x2="125.84" y2="379.92" stroke="#0ecb81" stroke-width="1.4" /><rect x="122.84" y="339.63" width="6" height="24.08" rx="1.5" fill="#0ecb81" /><line x1="139.30" y1="299.24" x2="139.30" y2="355.89" stroke="#0ecb81" stroke-width="1.4" /><rect x="136.30" y="315.55" width="6" height="24.08" rx="1.5" fill="#0ecb81" /><line x1="152.76" y1="275.11" x2="152.76" y2="331.86" stroke="#0ecb81" stroke-width="1.4" /><rect x="149.76" y="291.47" width="6" height="24.08" rx="1.5" fill="#0ecb81" /><line x1="166.22" y1="250.99" x2="166.22" y2="307.83" stroke="#0ecb81" stroke-width="1.4" /><rect x="163.22" y="267.40" width="6" height="24.08" rx="1.5" fill="#0ecb81" /><line x1="179.68" y1="226.87" x2="179.68" y2="283.81" stroke="#0ecb81" stroke-width="1.4" /><rect x="176.68" y="243.32" width="6" height="24.08" rx="1.5" fill="#0ecb81" /><line x1="193.14" y1="202.74" x2="193.14" y2="259.78" stroke="#0ecb81" stroke-width="1.4" /><rect x="190.14" y="219.25" width="6" height="24.08" rx="1.5" fill="#0ecb81" /><line x1="206.60" y1="178.62" x2="206.60" y2="235.75" stroke="#0ecb81" stroke-width="1.4" /><rect x="203.60" y="195.17" width="6" height="24.08" rx="1.5" fill="#0ecb81" /><line x1="220.06" y1="154.50" x2="220.06" y2="211.72" stroke="#0ecb81" stroke-width="1.4" /><rect x="217.06" y="171.10" width="6" height="24.08" rx="1.5" fill="#0ecb81" /><line x1="233.52" y1="130.37" x2="233.52" y2="187.70" stroke="#0ecb81" stroke-width="1.4" /><rect x="230.52" y="147.02" width="6" height="24.08" rx="1.5" fill="#0ecb81" /><line x1="246.98" y1="106.25" x2="246.98" y2="163.67" stroke="#0ecb81" stroke-width="1.4" /><rect x="243.98" y="122.95" width="6" height="24.08" rx="1.5" fill="#0ecb81" /><line x1="260.44" y1="82.12" x2="260.44" y2="139.64" stroke="#0ecb81" stroke-width="1.4" /><rect x="257.44" y="98.87" width="6" height="24.08" rx="1.5" fill="#0ecb81" /><line x1="273.90" y1="58.00" x2="273.90" y2="115.61" stroke="#0ecb81" stroke-width="1.4" /><rect x="270.90" y="74.79" width="6" height="24.08" rx="1.5" fill="#0ecb81" /><line x1="287.37" y1="58.00" x2="287.37" y2="91.59" stroke="#0ecb81" stroke-width="1.4" /><rect x="284.37" y="74.79" width="6" height="2.00" rx="1.5" fill="#0ecb81" /><line x1="300.83" y1="58.00" x2="300.83" y2="106.36" stroke="#f6465d" stroke-width="1.4" /><rect x="297.83" y="74.79" width="6" height="14.81" rx="1.5" fill="#f6465d" /><line x1="314.29" y1="72.84" x2="314.29" y2="121.14" stroke="#f6465d" stroke-width="1.4" /><rect x="311.29" y="89.60" width="6" height="14.81" rx="1.5" fill="#f6465d" /><line x1="327.75" y1="87.67" x2="327.75" y2="135.92" stroke="#f6465d" stroke-width="1.4" /><rect x="324.75" y="104.41" width="6" height="14.81" rx="1.5" fill="#f6465d" /><line x1="341.21" y1="102.51" x2="341.21" y2="150.69" stroke="#f6465d" stroke-width="1.4" /><rect x="338.21" y="119.21" width="6" height="14.81" rx="1.5" fill="#f6465d" /><line x1="354.67" y1="117.34" x2="354.67" y2="165.47" stroke="#f6465d" stroke-width="1.4" /><rect x="351.67" y="134.02" width="6" height="14.81" rx="1.5" fill="#f6465d" /><line x1="368.13" y1="132.18" x2="368.13" y2="180.25" stroke="#f6465d" stroke-width="1.4" /><rect x="365.13" y="148.82" width="6" height="14.81" rx="1.5" fill="#f6465d" /><line x1="381.59" y1="147.01" x2="381.59" y2="195.02" stroke="#f6465d" stroke-width="1.4" /><rect x="378.59" y="163.63" width="6" height="14.81" rx="1.5" fill="#f6465d" /><line x1="395.05" y1="161.85" x2="395.05" y2="209.80" stroke="#f6465d" stroke-width="1.4" /><rect x="392.05" y="178.43" width="6" height="14.81" rx="1.5" fill="#f6465d" /><line x1="408.51" y1="176.68" x2="408.51" y2="224.57" stroke="#f6465d" stroke-width="1.4" /><rect x="405.51" y="193.24" width="6" height="14.81" rx="1.5" fill="#f6465d" /><line x1="421.97" y1="191.52" x2="421.97" y2="239.35" stroke="#f6465d" stroke-width="1.4" /><rect x="418.97" y="208.05" width="6" height="14.81" rx="1.5" fill="#f6465d" /><line x1="435.43" y1="206.35" x2="435.43" y2="254.13" stroke="#f6465d" stroke-width="1.4" /><rect x="432.43" y="222.85" width="6" height="14.81" rx="1.5" fill="#f6465d" /><line x1="448.89" y1="221.19" x2="448.89" y2="268.90" stroke="#f6465d" stroke-width="1.4" /><rect x="445.89" y="237.66" width="6" height="14.81" rx="1.5" fill="#f6465d" /><line x1="462.35" y1="236.03" x2="462.35" y2="283.68" stroke="#f6465d" stroke-width="1.4" /><rect x="459.35" y="252.46" width="6" height="14.81" rx="1.5" fill="#f6465d" /><line x1="475.81" y1="250.86" x2="475.81" y2="298.46" stroke="#f6465d" stroke-width="1.4" /><rect x="472.81" y="267.27" width="6" height="14.81" rx="1.5" fill="#f6465d" /><line x1="489.27" y1="265.70" x2="489.27" y2="313.23" stroke="#f6465d" stroke-width="1.4" /><rect x="486.27" y="282.08" width="6" height="14.81" rx="1.5" fill="#f6465d" /><line x1="502.73" y1="280.53" x2="502.73" y2="313.23" stroke="#0ecb81" stroke-width="1.4" /><rect x="499.73" y="296.88" width="6" height="2.00" rx="1.5" fill="#0ecb81" /><line x1="516.19" y1="271.24" x2="516.19" y2="313.23" stroke="#0ecb81" stroke-width="1.4" /><rect x="513.19" y="287.61" width="6" height="9.27" rx="1.5" fill="#0ecb81" /><line x1="529.65" y1="261.96" x2="529.65" y2="303.98" stroke="#0ecb81" stroke-width="1.4" /><rect x="526.65" y="278.34" width="6" height="9.27" rx="1.5" fill="#0ecb81" /><line x1="543.11" y1="252.67" x2="543.11" y2="294.73" stroke="#0ecb81" stroke-width="1.4" /><rect x="540.11" y="269.07" width="6" height="9.27" rx="1.5" fill="#0ecb81" /><line x1="556.57" y1="243.38" x2="556.57" y2="285.48" stroke="#0ecb81" stroke-width="1.4" /><rect x="553.57" y="259.80" width="6" height="9.27" rx="1.5" fill="#0ecb81" /><line x1="570.03" y1="234.09" x2="570.03" y2="276.23" stroke="#0ecb81" stroke-width="1.4" /><rect x="567.03" y="250.53" width="6" height="9.27" rx="1.5" fill="#0ecb81" /><line x1="583.49" y1="224.80" x2="583.49" y2="266.98" stroke="#0ecb81" stroke-width="1.4" /><rect x="580.49" y="241.26" width="6" height="9.27" rx="1.5" fill="#0ecb81" /><line x1="596.95" y1="215.51" x2="596.95" y2="257.72" stroke="#0ecb81" stroke-width="1.4" /><rect x="593.95" y="231.99" width="6" height="9.27" rx="1.5" fill="#0ecb81" /><line x1="610.41" y1="206.23" x2="610.41" y2="248.47" stroke="#0ecb81" stroke-width="1.4" /><rect x="607.41" y="222.72" width="6" height="9.27" rx="1.5" fill="#0ecb81" /><line x1="623.87" y1="196.94" x2="623.87" y2="239.22" stroke="#0ecb81" stroke-width="1.4" /><rect x="620.87" y="213.45" width="6" height="9.27" rx="1.5" fill="#0ecb81" /><line x1="637.33" y1="187.65" x2="637.33" y2="229.97" stroke="#0ecb81" stroke-width="1.4" /><rect x="634.33" y="204.18" width="6" height="9.27" rx="1.5" fill="#0ecb81" /><line x1="650.79" y1="178.36" x2="650.79" y2="220.72" stroke="#0ecb81" stroke-width="1.4" /><rect x="647.79" y="194.91" width="6" height="9.27" rx="1.5" fill="#0ecb81" /><line x1="664.25" y1="169.07" x2="664.25" y2="211.47" stroke="#0ecb81" stroke-width="1.4" /><rect x="661.25" y="185.64" width="6" height="9.27" rx="1.5" fill="#0ecb81" /><line x1="677.71" y1="159.78" x2="677.71" y2="202.22" stroke="#0ecb81" stroke-width="1.4" /><rect x="674.71" y="176.37" width="6" height="9.27" rx="1.5" fill="#0ecb81" /><line x1="691.17" y1="150.50" x2="691.17" y2="192.97" stroke="#0ecb81" stroke-width="1.4" /><rect x="688.17" y="167.11" width="6" height="9.27" rx="1.5" fill="#0ecb81" /><line x1="704.63" y1="141.21" x2="704.63" y2="183.71" stroke="#0ecb81" stroke-width="1.4" /><rect x="701.63" y="157.84" width="6" height="9.27" rx="1.5" fill="#0ecb81" /><line x1="718.10" y1="141.21" x2="718.10" y2="174.46" stroke="#0ecb81" stroke-width="1.4" /><rect x="715.10" y="157.84" width="6" height="2.00" rx="1.5" fill="#0ecb81" /><line x1="731.56" y1="141.21" x2="731.56" y2="188.47" stroke="#f6465d" stroke-width="1.4" /><rect x="728.56" y="157.84" width="6" height="14.03" rx="1.5" fill="#f6465d" /><line x1="745.02" y1="155.27" x2="745.02" y2="202.47" stroke="#f6465d" stroke-width="1.4" /><rect x="742.02" y="171.87" width="6" height="14.03" rx="1.5" fill="#f6465d" /><line x1="758.48" y1="169.33" x2="758.48" y2="216.48" stroke="#f6465d" stroke-width="1.4" /><rect x="755.48" y="185.90" width="6" height="14.03" rx="1.5" fill="#f6465d" /><line x1="771.94" y1="183.39" x2="771.94" y2="230.48" stroke="#f6465d" stroke-width="1.4" /><rect x="768.94" y="199.94" width="6" height="14.03" rx="1.5" fill="#f6465d" /><line x1="785.40" y1="197.45" x2="785.40" y2="244.49" stroke="#f6465d" stroke-width="1.4" /><rect x="782.40" y="213.97" width="6" height="14.03" rx="1.5" fill="#f6465d" /><line x1="798.86" y1="211.52" x2="798.86" y2="258.50" stroke="#f6465d" stroke-width="1.4" /><rect x="795.86" y="228.00" width="6" height="14.03" rx="1.5" fill="#f6465d" /><line x1="812.32" y1="225.58" x2="812.32" y2="272.50" stroke="#f6465d" stroke-width="1.4" /><rect x="809.32" y="242.04" width="6" height="14.03" rx="1.5" fill="#f6465d" /><line x1="825.78" y1="239.64" x2="825.78" y2="286.51" stroke="#f6465d" stroke-width="1.4" /><rect x="822.78" y="256.07" width="6" height="14.03" rx="1.5" fill="#f6465d" /><line x1="839.24" y1="253.70" x2="839.24" y2="300.51" stroke="#f6465d" stroke-width="1.4" /><rect x="836.24" y="270.10" width="6" height="14.03" rx="1.5" fill="#f6465d" /><line x1="852.70" y1="267.76" x2="852.70" y2="314.52" stroke="#f6465d" stroke-width="1.4" /><rect x="849.70" y="284.14" width="6" height="14.03" rx="1.5" fill="#f6465d" /><line x1="866.16" y1="281.82" x2="866.16" y2="328.52" stroke="#f6465d" stroke-width="1.4" /><rect x="863.16" y="298.17" width="6" height="14.03" rx="1.5" fill="#f6465d" /><line x1="879.62" y1="295.88" x2="879.62" y2="342.53" stroke="#f6465d" stroke-width="1.4" /><rect x="876.62" y="312.20" width="6" height="14.03" rx="1.5" fill="#f6465d" /><line x1="893.08" y1="309.95" x2="893.08" y2="356.53" stroke="#f6465d" stroke-width="1.4" /><rect x="890.08" y="326.24" width="6" height="14.03" rx="1.5" fill="#f6465d" /><line x1="906.54" y1="324.01" x2="906.54" y2="370.54" stroke="#f6465d" stroke-width="1.4" /><rect x="903.54" y="340.27" width="6" height="14.03" rx="1.5" fill="#f6465d" /><line x1="920.00" y1="338.07" x2="920.00" y2="384.54" stroke="#f6465d" stroke-width="1.4" /><rect x="917.00" y="354.30" width="6" height="14.03" rx="1.5" fill="#f6465d" />
  <polyline points="395.05,435.93 556.57,74.79 691.17,296.88 852.70,157.84 920.00,368.34" fill="none" stroke="#2fc273" stroke-width="4" stroke-linecap="round" stroke-linejoin="round" />
  <circle cx="395.05" cy="435.93" r="5.5" fill="#2fc273" fill-opacity="0.15" stroke="#2fc273" stroke-width="2" /><text x="395.05" y="423.93" fill="#f3f4f6" font-size="15" font-weight="700" text-anchor="middle">X</text><circle cx="556.57" cy="74.79" r="5.5" fill="#2fc273" fill-opacity="0.15" stroke="#2fc273" stroke-width="2" /><text x="556.57" y="62.79" fill="#f3f4f6" font-size="15" font-weight="700" text-anchor="middle">A</text><circle cx="691.17" cy="296.88" r="5.5" fill="#2fc273" fill-opacity="0.15" stroke="#2fc273" stroke-width="2" /><text x="691.17" y="284.88" fill="#f3f4f6" font-size="15" font-weight="700" text-anchor="middle">B</text><circle cx="852.70" cy="157.84" r="5.5" fill="#2fc273" fill-opacity="0.15" stroke="#2fc273" stroke-width="2" /><text x="852.70" y="145.84" fill="#f3f4f6" font-size="15" font-weight="700" text-anchor="middle">C</text><circle cx="920.00" cy="368.34" r="5.5" fill="#2fc273" fill-opacity="0.15" stroke="#2fc273" stroke-width="2" /><text x="920.00" y="356.34" fill="#f3f4f6" font-size="15" font-weight="700" text-anchor="middle">D</text>
  <text x="56" y="492" fill="#8ba0b5" font-size="18">T-Bar Complete · TP1 0.04248 · TP2 0.04288 · SL 0.04137</text>
</svg>
