<svg xmlns="http://www.w3.org/2000/svg" width="960" height="540" viewBox="0 0 960 540">
  <rect width="960" height="540" rx="24" fill="#0b1220" />
  <rect x="28" y="28" width="904" height="484" rx="22" fill="#111827" stroke="#1f2937" />
  <text x="56" y="74" fill="#f3f4f6" font-size="34" font-weight="700">NOMUSDT · AB=CD</text>
  <text x="904" y="74" fill="#8ba0b5" font-size="20" text-anchor="end">Bearish (매도) · Score 69.4</text>
  <line x1="72" y1="58" x2="920" y2="58" stroke="#223045" stroke-width="1" stroke-dasharray="4 8" /><line x1="72" y1="156" x2="920" y2="156" stroke="#223045" stroke-width="1" stroke-dasharray="4 8" /><line x1="72" y1="255" x2="920" y2="255" stroke="#223045" stroke-width="1" stroke-dasharray="4 8" /><line x1="72" y1="353" x2="920" y2="353" stroke="#223045" stroke-width="1" stroke-dasharray="4 8" /><line x1="72" y1="452" x2="920" y2="452" stroke="#223045" stroke-width="1" stroke-dasharray="4 8" />
  <rect x="655.85" y="112.91" width="84" height="3.52" fill="#fbbf24" fill-opacity="0.12" stroke="#fbbf24" stroke-width="1.5" stroke-dasharray="6 6" />
  <line x1="72.00" y1="428.56" x2="72.00" y2="431.08" stroke="#f6465d" stroke-width="1.4" /><rect x="69.00" y="429.08" width="6" height="2.00" rx="1.5" fill="#f6465d" /><line x1="82.73" y1="429.08" x2="82.73" y2="431.15" stroke="#f6465d" stroke-width="1.4" /><rect x="79.73" y="429.15" width="6" height="2.00" rx="1.5" fill="#f6465d" /><line x1="93.47" y1="428.19" x2="93.47" y2="430.56" stroke="#0ecb81" stroke-width="1.4" /><rect x="90.47" y="428.41" width="6" height="2.00" rx="1.5" fill="#0ecb81" /><line x1="104.20" y1="428.01" x2="104.20" y2="430.12" stroke="#f6465d" stroke-width="1.4" /><rect x="101.20" y="428.38" width="6" height="2.00" rx="1.5" fill="#f6465d" /><line x1="114.94" y1="429.52" x2="114.94" y2="431.78" stroke="#f6465d" stroke-width="1.4" /><rect x="111.94" y="429.56" width="6" height="2.00" rx="1.5" fill="#f6465d" /><line x1="125.67" y1="429.82" x2="125.67" y2="431.30" stroke="#f6465d" stroke-width="1.4" /><rect x="122.67" y="430.64" width="6" height="2.00" rx="1.5" fill="#f6465d" /><line x1="136.41" y1="429.30" x2="136.41" y2="431.04" stroke="#0ecb81" stroke-width="1.4" /><rect x="133.41" y="429.86" width="6" height="2.00" rx="1.5" fill="#0ecb81" /><line x1="147.14" y1="427.90" x2="147.14" y2="430.38" stroke="#0ecb81" stroke-width="1.4" /><rect x="144.14" y="429.15" width="6" height="2.00" rx="1.5" fill="#0ecb81" /><line x1="157.87" y1="429.08" x2="157.87" y2="430.67" stroke="#f6465d" stroke-width="1.4" /><rect x="154.87" y="429.19" width="6" height="2.00" rx="1.5" fill="#f6465d" /><line x1="168.61" y1="428.90" x2="168.61" y2="430.56" stroke="#0ecb81" stroke-width="1.4" /><rect x="165.61" y="429.08" width="6" height="2.00" rx="1.5" fill="#0ecb81" /><line x1="179.34" y1="428.67" x2="179.34" y2="431.41" stroke="#f6465d" stroke-width="1.4" /><rect x="176.34" y="429.04" width="6" height="2.04" rx="1.5" fill="#f6465d" /><line x1="190.08" y1="429.45" x2="190.08" y2="431.15" stroke="#0ecb81" stroke-width="1.4" /><rect x="187.08" y="430.08" width="6" height="2.00" rx="1.5" fill="#0ecb81" /><line x1="200.81" y1="429.78" x2="200.81" y2="431.30" stroke="#f6465d" stroke-width="1.4" /><rect x="197.81" y="430.08" width="6" height="2.00" rx="1.5" fill="#f6465d" /><line x1="211.54" y1="430.97" x2="211.54" y2="433.97" stroke="#f6465d" stroke-width="1.4" /><rect x="208.54" y="430.97" width="6" height="2.63" rx="1.5" fill="#f6465d" /><line x1="222.28" y1="433.56" x2="222.28" y2="437.26" stroke="#f6465d" stroke-width="1.4" /><rect x="219.28" y="433.60" width="6" height="3.41" rx="1.5" fill="#f6465d" /><line x1="233.01" y1="436.78" x2="233.01" y2="440.37" stroke="#f6465d" stroke-width="1.4" /><rect x="230.01" y="436.97" width="6" height="2.59" rx="1.5" fill="#f6465d" /><line x1="243.75" y1="437.67" x2="243.75" y2="440.67" stroke="#f6465d" stroke-width="1.4" /><rect x="240.75" y="439.56" width="6" height="2.00" rx="1.5" fill="#f6465d" /><line x1="254.48" y1="439.45" x2="254.48" y2="442.60" stroke="#f6465d" stroke-width="1.4" /><rect x="251.48" y="439.82" width="6" height="2.59" rx="1.5" fill="#f6465d" /><line x1="265.22" y1="440.74" x2="265.22" y2="445.48" stroke="#f6465d" stroke-width="1.4" /><rect x="262.22" y="442.41" width="6" height="2.67" rx="1.5" fill="#f6465d" /><line x1="275.95" y1="443.52" x2="275.95" y2="447.52" stroke="#f6465d" stroke-width="1.4" /><rect x="272.95" y="445.08" width="6" height="2.00" rx="1.5" fill="#f6465d" /><line x1="286.68" y1="445.63" x2="286.68" y2="448.22" stroke="#f6465d" stroke-width="1.4" /><rect x="283.68" y="445.78" width="6" height="2.07" rx="1.5" fill="#f6465d" /><line x1="297.42" y1="447.74" x2="297.42" y2="452.00" stroke="#f6465d" stroke-width="1.4" /><rect x="294.42" y="447.82" width="6" height="3.30" rx="1.5" fill="#f6465d" /><line x1="308.15" y1="445.26" x2="308.15" y2="451.93" stroke="#0ecb81" stroke-width="1.4" /><rect x="305.15" y="446.00" width="6" height="5.07" rx="1.5" fill="#0ecb81" /><line x1="318.89" y1="443.45" x2="318.89" y2="448.00" stroke="#0ecb81" stroke-width="1.4" /><rect x="315.89" y="444.89" width="6" height="2.00" rx="1.5" fill="#0ecb81" /><line x1="329.62" y1="444.82" x2="329.62" y2="448.33" stroke="#f6465d" stroke-width="1.4" /><rect x="326.62" y="444.82" width="6" height="2.00" rx="1.5" fill="#f6465d" /><line x1="340.35" y1="446.30" x2="340.35" y2="449.82" stroke="#f6465d" stroke-width="1.4" /><rect x="337.35" y="446.85" width="6" height="2.81" rx="1.5" fill="#f6465d" /><line x1="351.09" y1="448.56" x2="351.09" y2="450.22" stroke="#0ecb81" stroke-width="1.4" /><rect x="348.09" y="448.70" width="6" height="2.00" rx="1.5" fill="#0ecb81" /><line x1="361.82" y1="428.45" x2="361.82" y2="448.82" stroke="#0ecb81" stroke-width="1.4" /><rect x="358.82" y="429.15" width="6" height="19.62" rx="1.5" fill="#0ecb81" /><line x1="372.56" y1="418.94" x2="372.56" y2="434.56" stroke="#0ecb81" stroke-width="1.4" /><rect x="369.56" y="420.90" width="6" height="8.15" rx="1.5" fill="#0ecb81" /><line x1="383.29" y1="406.27" x2="383.29" y2="423.16" stroke="#0ecb81" stroke-width="1.4" /><rect x="380.29" y="413.38" width="6" height="7.52" rx="1.5" fill="#0ecb81" /><line x1="394.03" y1="396.98" x2="394.03" y2="417.53" stroke="#0ecb81" stroke-width="1.4" /><rect x="391.03" y="401.38" width="6" height="11.92" rx="1.5" fill="#0ecb81" /><line x1="404.76" y1="395.31" x2="404.76" y2="417.16" stroke="#f6465d" stroke-width="1.4" /><rect x="401.76" y="401.38" width="6" height="14.37" rx="1.5" fill="#f6465d" /><line x1="415.49" y1="406.68" x2="415.49" y2="422.08" stroke="#f6465d" stroke-width="1.4" /><rect x="412.49" y="415.71" width="6" height="4.55" rx="1.5" fill="#f6465d" /><line x1="426.23" y1="407.27" x2="426.23" y2="420.79" stroke="#0ecb81" stroke-width="1.4" /><rect x="423.23" y="417.31" width="6" height="2.96" rx="1.5" fill="#0ecb81" /><line x1="436.96" y1="417.27" x2="436.96" y2="428.75" stroke="#f6465d" stroke-width="1.4" /><rect x="433.96" y="417.34" width="6" height="9.78" rx="1.5" fill="#f6465d" /><line x1="447.70" y1="424.93" x2="447.70" y2="429.45" stroke="#f6465d" stroke-width="1.4" /><rect x="444.70" y="427.08" width="6" height="2.00" rx="1.5" fill="#f6465d" /><line x1="458.43" y1="412.97" x2="458.43" y2="432.97" stroke="#0ecb81" stroke-width="1.4" /><rect x="455.43" y="420.19" width="6" height="8.15" rx="1.5" fill="#0ecb81" /><line x1="469.16" y1="355.32" x2="469.16" y2="425.34" stroke="#0ecb81" stroke-width="1.4" /><rect x="466.16" y="382.80" width="6" height="37.40" rx="1.5" fill="#0ecb81" /><line x1="479.90" y1="376.21" x2="479.90" y2="396.27" stroke="#f6465d" stroke-width="1.4" /><rect x="476.90" y="382.76" width="6" height="4.41" rx="1.5" fill="#f6465d" /><line x1="490.63" y1="386.17" x2="490.63" y2="398.05" stroke="#f6465d" stroke-width="1.4" /><rect x="487.63" y="387.17" width="6" height="9.11" rx="1.5" fill="#f6465d" /><line x1="501.37" y1="385.61" x2="501.37" y2="399.35" stroke="#0ecb81" stroke-width="1.4" /><rect x="498.37" y="390.46" width="6" height="5.78" rx="1.5" fill="#0ecb81" /><line x1="512.10" y1="386.54" x2="512.10" y2="395.20" stroke="#f6465d" stroke-width="1.4" /><rect x="509.10" y="390.42" width="6" height="3.92" rx="1.5" fill="#f6465d" /><line x1="522.84" y1="381.72" x2="522.84" y2="395.20" stroke="#0ecb81" stroke-width="1.4" /><rect x="519.84" y="385.24" width="6" height="9.11" rx="1.5" fill="#0ecb81" /><line x1="533.57" y1="373.91" x2="533.57" y2="397.20" stroke="#f6465d" stroke-width="1.4" /><rect x="530.57" y="385.20" width="6" height="9.78" rx="1.5" fill="#f6465d" /><line x1="544.30" y1="391.28" x2="544.30" y2="397.53" stroke="#0ecb81" stroke-width="1.4" /><rect x="541.30" y="393.42" width="6" height="2.00" rx="1.5" fill="#0ecb81" /><line x1="555.04" y1="392.50" x2="555.04" y2="403.90" stroke="#f6465d" stroke-width="1.4" /><rect x="552.04" y="393.42" width="6" height="8.11" rx="1.5" fill="#f6465d" /><line x1="565.77" y1="382.24" x2="565.77" y2="403.27" stroke="#0ecb81" stroke-width="1.4" /><rect x="562.77" y="385.98" width="6" height="15.55" rx="1.5" fill="#0ecb81" /><line x1="576.51" y1="343.22" x2="576.51" y2="388.72" stroke="#0ecb81" stroke-width="1.4" /><rect x="573.51" y="354.66" width="6" height="31.32" rx="1.5" fill="#0ecb81" /><line x1="587.24" y1="342.70" x2="587.24" y2="358.69" stroke="#0ecb81" stroke-width="1.4" /><rect x="584.24" y="351.69" width="6" height="2.85" rx="1.5" fill="#0ecb81" /><line x1="597.97" y1="320.63" x2="597.97" y2="354.32" stroke="#0ecb81" stroke-width="1.4" /><rect x="594.97" y="331.15" width="6" height="20.59" rx="1.5" fill="#0ecb81" /><line x1="608.71" y1="281.23" x2="608.71" y2="336.77" stroke="#0ecb81" stroke-width="1.4" /><rect x="605.71" y="307.45" width="6" height="23.66" rx="1.5" fill="#0ecb81" /><line x1="619.44" y1="275.72" x2="619.44" y2="310.45" stroke="#0ecb81" stroke-width="1.4" /><rect x="616.44" y="277.46" width="6" height="29.99" rx="1.5" fill="#0ecb81" /><line x1="630.18" y1="206.74" x2="630.18" y2="293.79" stroke="#0ecb81" stroke-width="1.4" /><rect x="627.18" y="274.12" width="6" height="3.30" rx="1.5" fill="#0ecb81" /><line x1="640.91" y1="257.43" x2="640.91" y2="291.23" stroke="#0ecb81" stroke-width="1.4" /><rect x="637.91" y="273.87" width="6" height="2.00" rx="1.5" fill="#0ecb81" /><line x1="651.65" y1="271.20" x2="651.65" y2="300.60" stroke="#f6465d" stroke-width="1.4" /><rect x="648.65" y="273.83" width="6" height="26.36" rx="1.5" fill="#f6465d" /><line x1="662.38" y1="268.05" x2="662.38" y2="310.08" stroke="#0ecb81" stroke-width="1.4" /><rect x="659.38" y="294.49" width="6" height="5.67" rx="1.5" fill="#0ecb81" /><line x1="673.11" y1="187.15" x2="673.11" y2="298.34" stroke="#0ecb81" stroke-width="1.4" /><rect x="670.11" y="224.21" width="6" height="70.28" rx="1.5" fill="#0ecb81" /><line x1="683.85" y1="58.00" x2="683.85" y2="230.91" stroke="#0ecb81" stroke-width="1.4" /><rect x="680.85" y="163.34" width="6" height="60.87" rx="1.5" fill="#0ecb81" /><line x1="694.58" y1="135.50" x2="694.58" y2="227.99" stroke="#f6465d" stroke-width="1.4" /><rect x="691.58" y="163.34" width="6" height="52.87" rx="1.5" fill="#f6465d" /><line x1="705.32" y1="191.00" x2="705.32" y2="233.28" stroke="#0ecb81" stroke-width="1.4" /><rect x="702.32" y="212.10" width="6" height="4.00" rx="1.5" fill="#0ecb81" /><line x1="716.05" y1="197.85" x2="716.05" y2="228.06" stroke="#f6465d" stroke-width="1.4" /><rect x="713.05" y="212.10" width="6" height="2.00" rx="1.5" fill="#f6465d" /><line x1="726.78" y1="213.96" x2="726.78" y2="277.83" stroke="#f6465d" stroke-width="1.4" /><rect x="723.78" y="213.96" width="6" height="56.21" rx="1.5" fill="#f6465d" /><line x1="737.52" y1="260.28" x2="737.52" y2="301.89" stroke="#f6465d" stroke-width="1.4" /><rect x="734.52" y="270.09" width="6" height="29.03" rx="1.5" fill="#f6465d" /><line x1="748.25" y1="257.05" x2="748.25" y2="303.56" stroke="#0ecb81" stroke-width="1.4" /><rect x="745.25" y="262.46" width="6" height="36.62" rx="1.5" fill="#0ecb81" /><line x1="758.99" y1="240.95" x2="758.99" y2="281.94" stroke="#f6465d" stroke-width="1.4" /><rect x="755.99" y="262.39" width="6" height="17.48" rx="1.5" fill="#f6465d" /><line x1="769.72" y1="275.49" x2="769.72" y2="302.04" stroke="#f6465d" stroke-width="1.4" /><rect x="766.72" y="279.83" width="6" height="20.99" rx="1.5" fill="#f6465d" /><line x1="780.46" y1="286.75" x2="780.46" y2="304.67" stroke="#0ecb81" stroke-width="1.4" /><rect x="777.46" y="289.82" width="6" height="11.03" rx="1.5" fill="#0ecb81" /><line x1="791.19" y1="268.27" x2="791.19" y2="300.56" stroke="#0ecb81" stroke-width="1.4" /><rect x="788.19" y="281.71" width="6" height="8.11" rx="1.5" fill="#0ecb81" /><line x1="801.92" y1="245.06" x2="801.92" y2="288.34" stroke="#0ecb81" stroke-width="1.4" /><rect x="798.92" y="262.68" width="6" height="19.03" rx="1.5" fill="#0ecb81" /><line x1="812.66" y1="246.43" x2="812.66" y2="285.90" stroke="#f6465d" stroke-width="1.4" /><rect x="809.66" y="262.72" width="6" height="19.22" rx="1.5" fill="#f6465d" /><line x1="823.39" y1="269.61" x2="823.39" y2="295.78" stroke="#f6465d" stroke-width="1.4" /><rect x="820.39" y="281.90" width="6" height="9.59" rx="1.5" fill="#f6465d" /><line x1="834.13" y1="234.36" x2="834.13" y2="295.64" stroke="#0ecb81" stroke-width="1.4" /><rect x="831.13" y="251.76" width="6" height="39.58" rx="1.5" fill="#0ecb81" /><line x1="844.86" y1="251.54" x2="844.86" y2="269.09" stroke="#f6465d" stroke-width="1.4" /><rect x="841.86" y="251.76" width="6" height="15.88" rx="1.5" fill="#f6465d" /><line x1="855.59" y1="267.61" x2="855.59" y2="282.34" stroke="#f6465d" stroke-width="1.4" /><rect x="852.59" y="267.64" width="6" height="13.03" rx="1.5" fill="#f6465d" /><line x1="866.33" y1="275.01" x2="866.33" y2="288.38" stroke="#f6465d" stroke-width="1.4" /><rect x="863.33" y="280.64" width="6" height="6.18" rx="1.5" fill="#f6465d" /><line x1="877.06" y1="284.42" x2="877.06" y2="295.41" stroke="#f6465d" stroke-width="1.4" /><rect x="874.06" y="286.82" width="6" height="6.37" rx="1.5" fill="#f6465d" /><line x1="887.80" y1="293.23" x2="887.80" y2="322.26" stroke="#f6465d" stroke-width="1.4" /><rect x="884.80" y="293.23" width="6" height="24.73" rx="1.5" fill="#f6465d" /><line x1="898.53" y1="312.71" x2="898.53" y2="325.81" stroke="#f6465d" stroke-width="1.4" /><rect x="895.53" y="318.00" width="6" height="2.00" rx="1.5" fill="#f6465d" /><line x1="909.27" y1="311.08" x2="909.27" y2="324.85" stroke="#f6465d" stroke-width="1.4" /><rect x="906.27" y="319.44" width="6" height="2.00" rx="1.5" fill="#f6465d" /><line x1="920.00" y1="319.00" x2="920.00" y2="328.11" stroke="#f6465d" stroke-width="1.4" /><rect x="917.00" y="319.56" width="6" height="2.37" rx="1.5" fill="#f6465d" />
  <polyline points="469.16,355.32 555.04,403.90 630.18,206.74 662.38,310.08 683.85,58.00" fill="none" stroke="#2fc273" stroke-width="4" stroke-linecap="round" stroke-linejoin="round" />
  <circle cx="469.16" cy="355.32" r="5.5" fill="#2fc273" fill-opacity="0.15" stroke="#2fc273" stroke-width="2" /><text x="469.16" y="343.32" fill="#f3f4f6" font-size="15" font-weight="700" text-anchor="middle">X</text><circle cx="555.04" cy="403.90" r="5.5" fill="#2fc273" fill-opacity="0.15" stroke="#2fc273" stroke-width="2" /><text x="555.04" y="391.90" fill="#f3f4f6" font-size="15" font-weight="700" text-anchor="middle">A</text><circle cx="630.18" cy="206.74" r="5.5" fill="#2fc273" fill-opacity="0.15" stroke="#2fc273" stroke-width="2" /><text x="630.18" y="194.74" fill="#f3f4f6" font-size="15" font-weight="700" text-anchor="middle">B</text><circle cx="662.38" cy="310.08" r="5.5" fill="#2fc273" fill-opacity="0.15" stroke="#2fc273" stroke-width="2" /><text x="662.38" y="298.08" fill="#f3f4f6" font-size="15" font-weight="700" text-anchor="middle">C</text><circle cx="683.85" cy="58.00" r="5.5" fill="#2fc273" fill-opacity="0.15" stroke="#2fc273" stroke-width="2" /><text x="683.85" y="46.00" fill="#f3f4f6" font-size="15" font-weight="700" text-anchor="middle">D</text>
  <text x="56" y="492" fill="#8ba0b5" font-size="18">일반 완성 · TP1 0.009772 · TP2 0.008166 · SL 0.012544</text>
</svg>
