<svg xmlns="http://www.w3.org/2000/svg" width="960" height="540" viewBox="0 0 960 540">
  <rect width="960" height="540" rx="24" fill="#0b1220" />
  <rect x="28" y="28" width="904" height="484" rx="22" fill="#111827" stroke="#1f2937" />
  <text x="56" y="74" fill="#f3f4f6" font-size="34" font-weight="700">ONUSDT · AB=CD</text>
  <text x="904" y="74" fill="#8ba0b5" font-size="20" text-anchor="end">Bullish (매수) · Score 79.3</text>
  <line x1="72" y1="58" x2="920" y2="58" stroke="#223045" stroke-width="1" stroke-dasharray="4 8" /><line x1="72" y1="156" x2="920" y2="156" stroke="#223045" stroke-width="1" stroke-dasharray="4 8" /><line x1="72" y1="255" x2="920" y2="255" stroke="#223045" stroke-width="1" stroke-dasharray="4 8" /><line x1="72" y1="353" x2="920" y2="353" stroke="#223045" stroke-width="1" stroke-dasharray="4 8" /><line x1="72" y1="452" x2="920" y2="452" stroke="#223045" stroke-width="1" stroke-dasharray="4 8" />
  <rect x="763.19" y="447.20" width="84" height="82.14" fill="#fbbf24" fill-opacity="0.12" stroke="#fbbf24" stroke-width="1.5" stroke-dasharray="6 6" />
  <line x1="72.00" y1="374.01" x2="72.00" y2="384.46" stroke="#f6465d" stroke-width="1.4" /><rect x="69.00" y="376.23" width="6" height="2.70" rx="1.5" fill="#f6465d" /><line x1="82.73" y1="376.67" x2="82.73" y2="380.05" stroke="#0ecb81" stroke-width="1.4" /><rect x="79.73" y="376.73" width="6" height="2.36" rx="1.5" fill="#0ecb81" /><line x1="93.47" y1="376.49" x2="93.47" y2="379.72" stroke="#f6465d" stroke-width="1.4" /><rect x="90.47" y="376.84" width="6" height="2.28" rx="1.5" fill="#f6465d" /><line x1="104.20" y1="371.32" x2="104.20" y2="380.62" stroke="#0ecb81" stroke-width="1.4" /><rect x="101.20" y="371.32" width="6" height="8.11" rx="1.5" fill="#0ecb81" /><line x1="114.94" y1="367.07" x2="114.94" y2="374.58" stroke="#f6465d" stroke-width="1.4" /><rect x="111.94" y="371.49" width="6" height="2.00" rx="1.5" fill="#f6465d" /><line x1="125.67" y1="368.90" x2="125.67" y2="374.31" stroke="#0ecb81" stroke-width="1.4" /><rect x="122.67" y="373.11" width="6" height="2.00" rx="1.5" fill="#0ecb81" /><line x1="136.41" y1="372.10" x2="136.41" y2="373.87" stroke="#0ecb81" stroke-width="1.4" /><rect x="133.41" y="372.46" width="6" height="2.00" rx="1.5" fill="#0ecb81" /><line x1="147.14" y1="370.82" x2="147.14" y2="374.42" stroke="#f6465d" stroke-width="1.4" /><rect x="144.14" y="372.46" width="6" height="2.00" rx="1.5" fill="#f6465d" /><line x1="157.87" y1="369.39" x2="157.87" y2="375.64" stroke="#0ecb81" stroke-width="1.4" /><rect x="154.87" y="371.98" width="6" height="2.09" rx="1.5" fill="#0ecb81" /><line x1="168.61" y1="369.76" x2="168.61" y2="372.69" stroke="#0ecb81" stroke-width="1.4" /><rect x="165.61" y="371.89" width="6" height="2.00" rx="1.5" fill="#0ecb81" /><line x1="179.34" y1="364.59" x2="179.34" y2="372.48" stroke="#0ecb81" stroke-width="1.4" /><rect x="176.34" y="365.31" width="6" height="6.85" rx="1.5" fill="#0ecb81" /><line x1="190.08" y1="363.62" x2="190.08" y2="376.19" stroke="#0ecb81" stroke-width="1.4" /><rect x="187.08" y="364.78" width="6" height="2.00" rx="1.5" fill="#0ecb81" /><line x1="200.81" y1="363.86" x2="200.81" y2="365.94" stroke="#f6465d" stroke-width="1.4" /><rect x="197.81" y="364.70" width="6" height="2.00" rx="1.5" fill="#f6465d" /><line x1="211.54" y1="363.82" x2="211.54" y2="367.28" stroke="#f6465d" stroke-width="1.4" /><rect x="208.54" y="365.14" width="6" height="2.00" rx="1.5" fill="#f6465d" /><line x1="222.28" y1="363.11" x2="222.28" y2="367.48" stroke="#0ecb81" stroke-width="1.4" /><rect x="219.28" y="365.96" width="6" height="2.00" rx="1.5" fill="#0ecb81" /><line x1="233.01" y1="365.04" x2="233.01" y2="374.56" stroke="#f6465d" stroke-width="1.4" /><rect x="230.01" y="365.96" width="6" height="3.05" rx="1.5" fill="#f6465d" /><line x1="243.75" y1="350.40" x2="243.75" y2="384.12" stroke="#0ecb81" stroke-width="1.4" /><rect x="240.75" y="351.25" width="6" height="17.73" rx="1.5" fill="#0ecb81" /><line x1="254.48" y1="330.47" x2="254.48" y2="395.16" stroke="#0ecb81" stroke-width="1.4" /><rect x="251.48" y="342.77" width="6" height="8.44" rx="1.5" fill="#0ecb81" /><line x1="265.22" y1="340.03" x2="265.22" y2="347.49" stroke="#f6465d" stroke-width="1.4" /><rect x="262.22" y="342.67" width="6" height="2.00" rx="1.5" fill="#f6465d" /><line x1="275.95" y1="336.77" x2="275.95" y2="350.99" stroke="#0ecb81" stroke-width="1.4" /><rect x="272.95" y="341.74" width="6" height="2.00" rx="1.5" fill="#0ecb81" /><line x1="286.68" y1="328.84" x2="286.68" y2="345.82" stroke="#0ecb81" stroke-width="1.4" /><rect x="283.68" y="336.14" width="6" height="5.57" rx="1.5" fill="#0ecb81" /><line x1="297.42" y1="323.74" x2="297.42" y2="343.57" stroke="#0ecb81" stroke-width="1.4" /><rect x="294.42" y="328.86" width="6" height="7.36" rx="1.5" fill="#0ecb81" /><line x1="308.15" y1="210.48" x2="308.15" y2="337.79" stroke="#0ecb81" stroke-width="1.4" /><rect x="305.15" y="239.44" width="6" height="89.42" rx="1.5" fill="#0ecb81" /><line x1="318.89" y1="58.00" x2="318.89" y2="277.04" stroke="#0ecb81" stroke-width="1.4" /><rect x="315.89" y="174.59" width="6" height="64.85" rx="1.5" fill="#0ecb81" /><line x1="329.62" y1="133.25" x2="329.62" y2="261.32" stroke="#f6465d" stroke-width="1.4" /><rect x="326.62" y="174.32" width="6" height="55.19" rx="1.5" fill="#f6465d" /><line x1="340.35" y1="194.50" x2="340.35" y2="253.72" stroke="#f6465d" stroke-width="1.4" /><rect x="337.35" y="229.54" width="6" height="18.22" rx="1.5" fill="#f6465d" /><line x1="351.09" y1="240.99" x2="351.09" y2="277.39" stroke="#0ecb81" stroke-width="1.4" /><rect x="348.09" y="247.31" width="6" height="2.00" rx="1.5" fill="#0ecb81" /><line x1="361.82" y1="241.54" x2="361.82" y2="291.65" stroke="#f6465d" stroke-width="1.4" /><rect x="358.82" y="247.31" width="6" height="23.06" rx="1.5" fill="#f6465d" /><line x1="372.56" y1="240.99" x2="372.56" y2="290.20" stroke="#f6465d" stroke-width="1.4" /><rect x="369.56" y="270.50" width="6" height="12.14" rx="1.5" fill="#f6465d" /><line x1="383.29" y1="278.71" x2="383.29" y2="411.79" stroke="#f6465d" stroke-width="1.4" /><rect x="380.29" y="282.64" width="6" height="99.75" rx="1.5" fill="#f6465d" /><line x1="394.03" y1="373.36" x2="394.03" y2="405.25" stroke="#f6465d" stroke-width="1.4" /><rect x="391.03" y="382.41" width="6" height="16.35" rx="1.5" fill="#f6465d" /><line x1="404.76" y1="382.73" x2="404.76" y2="423.79" stroke="#f6465d" stroke-width="1.4" /><rect x="401.76" y="398.76" width="6" height="5.63" rx="1.5" fill="#f6465d" /><line x1="415.49" y1="363.41" x2="415.49" y2="404.37" stroke="#0ecb81" stroke-width="1.4" /><rect x="412.49" y="366.67" width="6" height="37.70" rx="1.5" fill="#0ecb81" /><line x1="426.23" y1="353.16" x2="426.23" y2="400.18" stroke="#0ecb81" stroke-width="1.4" /><rect x="423.23" y="361.97" width="6" height="4.70" rx="1.5" fill="#0ecb81" /><line x1="436.96" y1="351.76" x2="436.96" y2="393.51" stroke="#f6465d" stroke-width="1.4" /><rect x="433.96" y="361.79" width="6" height="17.51" rx="1.5" fill="#f6465d" /><line x1="447.70" y1="368.40" x2="447.70" y2="381.82" stroke="#0ecb81" stroke-width="1.4" /><rect x="444.70" y="373.44" width="6" height="5.86" rx="1.5" fill="#0ecb81" /><line x1="458.43" y1="368.40" x2="458.43" y2="389.00" stroke="#f6465d" stroke-width="1.4" /><rect x="455.43" y="373.30" width="6" height="2.00" rx="1.5" fill="#f6465d" /><line x1="469.16" y1="351.66" x2="469.16" y2="386.66" stroke="#0ecb81" stroke-width="1.4" /><rect x="466.16" y="357.39" width="6" height="15.98" rx="1.5" fill="#0ecb81" /><line x1="479.90" y1="337.75" x2="479.90" y2="368.76" stroke="#0ecb81" stroke-width="1.4" /><rect x="476.90" y="357.13" width="6" height="2.00" rx="1.5" fill="#0ecb81" /><line x1="490.63" y1="353.90" x2="490.63" y2="365.81" stroke="#f6465d" stroke-width="1.4" /><rect x="487.63" y="357.11" width="6" height="2.00" rx="1.5" fill="#f6465d" /><line x1="501.37" y1="354.67" x2="501.37" y2="374.86" stroke="#f6465d" stroke-width="1.4" /><rect x="498.37" y="357.74" width="6" height="15.70" rx="1.5" fill="#f6465d" /><line x1="512.10" y1="373.05" x2="512.10" y2="391.13" stroke="#f6465d" stroke-width="1.4" /><rect x="509.10" y="373.42" width="6" height="12.08" rx="1.5" fill="#f6465d" /><line x1="522.84" y1="382.59" x2="522.84" y2="390.22" stroke="#f6465d" stroke-width="1.4" /><rect x="519.84" y="385.50" width="6" height="2.54" rx="1.5" fill="#f6465d" /><line x1="533.57" y1="374.52" x2="533.57" y2="393.47" stroke="#0ecb81" stroke-width="1.4" /><rect x="530.57" y="376.75" width="6" height="11.25" rx="1.5" fill="#0ecb81" /><line x1="544.30" y1="370.49" x2="544.30" y2="389.00" stroke="#f6465d" stroke-width="1.4" /><rect x="541.30" y="376.75" width="6" height="6.93" rx="1.5" fill="#f6465d" /><line x1="555.04" y1="381.57" x2="555.04" y2="402.44" stroke="#f6465d" stroke-width="1.4" /><rect x="552.04" y="383.67" width="6" height="14.91" rx="1.5" fill="#f6465d" /><line x1="565.77" y1="392.86" x2="565.77" y2="400.32" stroke="#0ecb81" stroke-width="1.4" /><rect x="562.77" y="398.09" width="6" height="2.00" rx="1.5" fill="#0ecb81" /><line x1="576.51" y1="396.30" x2="576.51" y2="410.17" stroke="#f6465d" stroke-width="1.4" /><rect x="573.51" y="398.09" width="6" height="10.82" rx="1.5" fill="#f6465d" /><line x1="587.24" y1="406.18" x2="587.24" y2="422.94" stroke="#f6465d" stroke-width="1.4" /><rect x="584.24" y="408.91" width="6" height="12.71" rx="1.5" fill="#f6465d" /><line x1="597.97" y1="408.81" x2="597.97" y2="432.92" stroke="#0ecb81" stroke-width="1.4" /><rect x="594.97" y="421.31" width="6" height="2.00" rx="1.5" fill="#0ecb81" /><line x1="608.71" y1="420.74" x2="608.71" y2="442.28" stroke="#f6465d" stroke-width="1.4" /><rect x="605.71" y="421.31" width="6" height="14.15" rx="1.5" fill="#f6465d" /><line x1="619.44" y1="424.75" x2="619.44" y2="436.46" stroke="#0ecb81" stroke-width="1.4" /><rect x="616.44" y="432.97" width="6" height="2.60" rx="1.5" fill="#0ecb81" /><line x1="630.18" y1="431.52" x2="630.18" y2="439.66" stroke="#f6465d" stroke-width="1.4" /><rect x="627.18" y="432.99" width="6" height="2.00" rx="1.5" fill="#f6465d" /><line x1="640.91" y1="409.72" x2="640.91" y2="433.53" stroke="#0ecb81" stroke-width="1.4" /><rect x="637.91" y="422.59" width="6" height="10.51" rx="1.5" fill="#0ecb81" /><line x1="651.65" y1="418.73" x2="651.65" y2="427.72" stroke="#f6465d" stroke-width="1.4" /><rect x="648.65" y="422.57" width="6" height="3.97" rx="1.5" fill="#f6465d" /><line x1="662.38" y1="424.93" x2="662.38" y2="436.06" stroke="#f6465d" stroke-width="1.4" /><rect x="659.38" y="426.54" width="6" height="4.39" rx="1.5" fill="#f6465d" /><line x1="673.11" y1="408.97" x2="673.11" y2="431.95" stroke="#0ecb81" stroke-width="1.4" /><rect x="670.11" y="411.37" width="6" height="19.58" rx="1.5" fill="#0ecb81" /><line x1="683.85" y1="342.67" x2="683.85" y2="411.77" stroke="#0ecb81" stroke-width="1.4" /><rect x="680.85" y="368.27" width="6" height="43.13" rx="1.5" fill="#0ecb81" /><line x1="694.58" y1="356.46" x2="694.58" y2="395.26" stroke="#f6465d" stroke-width="1.4" /><rect x="691.58" y="368.36" width="6" height="15.54" rx="1.5" fill="#f6465d" /><line x1="705.32" y1="381.72" x2="705.32" y2="422.74" stroke="#f6465d" stroke-width="1.4" /><rect x="702.32" y="383.69" width="6" height="22.31" rx="1.5" fill="#f6465d" /><line x1="716.05" y1="405.02" x2="716.05" y2="422.90" stroke="#f6465d" stroke-width="1.4" /><rect x="713.05" y="406.04" width="6" height="14.93" rx="1.5" fill="#f6465d" /><line x1="726.78" y1="410.62" x2="726.78" y2="421.66" stroke="#0ecb81" stroke-width="1.4" /><rect x="723.78" y="416.23" width="6" height="4.72" rx="1.5" fill="#0ecb81" /><line x1="737.52" y1="414.68" x2="737.52" y2="427.45" stroke="#f6465d" stroke-width="1.4" /><rect x="734.52" y="416.21" width="6" height="9.38" rx="1.5" fill="#f6465d" /><line x1="748.25" y1="417.98" x2="748.25" y2="430.77" stroke="#f6465d" stroke-width="1.4" /><rect x="745.25" y="425.58" width="6" height="2.00" rx="1.5" fill="#f6465d" /><line x1="758.99" y1="426.84" x2="758.99" y2="438.13" stroke="#f6465d" stroke-width="1.4" /><rect x="755.99" y="427.15" width="6" height="8.66" rx="1.5" fill="#f6465d" /><line x1="769.72" y1="434.90" x2="769.72" y2="444.17" stroke="#f6465d" stroke-width="1.4" /><rect x="766.72" y="435.59" width="6" height="5.86" rx="1.5" fill="#f6465d" /><line x1="780.46" y1="440.04" x2="780.46" y2="447.71" stroke="#f6465d" stroke-width="1.4" /><rect x="777.46" y="441.45" width="6" height="5.69" rx="1.5" fill="#f6465d" /><line x1="791.19" y1="440.31" x2="791.19" y2="452.00" stroke="#0ecb81" stroke-width="1.4" /><rect x="788.19" y="443.07" width="6" height="3.97" rx="1.5" fill="#0ecb81" /><line x1="801.92" y1="439.03" x2="801.92" y2="446.96" stroke="#f6465d" stroke-width="1.4" /><rect x="798.92" y="443.03" width="6" height="2.00" rx="1.5" fill="#f6465d" /><line x1="812.66" y1="442.93" x2="812.66" y2="447.65" stroke="#f6465d" stroke-width="1.4" /><rect x="809.66" y="444.19" width="6" height="2.00" rx="1.5" fill="#f6465d" /><line x1="823.39" y1="440.71" x2="823.39" y2="445.37" stroke="#0ecb81" stroke-width="1.4" /><rect x="820.39" y="443.23" width="6" height="2.00" rx="1.5" fill="#0ecb81" /><line x1="834.13" y1="414.80" x2="834.13" y2="443.40" stroke="#0ecb81" stroke-width="1.4" /><rect x="831.13" y="420.32" width="6" height="22.80" rx="1.5" fill="#0ecb81" /><line x1="844.86" y1="418.97" x2="844.86" y2="429.81" stroke="#f6465d" stroke-width="1.4" /><rect x="841.86" y="420.32" width="6" height="4.07" rx="1.5" fill="#f6465d" /><line x1="855.59" y1="411.06" x2="855.59" y2="424.53" stroke="#0ecb81" stroke-width="1.4" /><rect x="852.59" y="422.43" width="6" height="2.00" rx="1.5" fill="#0ecb81" /><line x1="866.33" y1="414.91" x2="866.33" y2="423.77" stroke="#0ecb81" stroke-width="1.4" /><rect x="863.33" y="420.21" width="6" height="2.34" rx="1.5" fill="#0ecb81" /><line x1="877.06" y1="414.19" x2="877.06" y2="429.02" stroke="#0ecb81" stroke-width="1.4" /><rect x="874.06" y="418.59" width="6" height="2.00" rx="1.5" fill="#0ecb81" /><line x1="887.80" y1="400.06" x2="887.80" y2="423.28" stroke="#f6465d" stroke-width="1.4" /><rect x="884.80" y="418.59" width="6" height="2.00" rx="1.5" fill="#f6465d" /><line x1="898.53" y1="409.37" x2="898.53" y2="424.02" stroke="#0ecb81" stroke-width="1.4" /><rect x="895.53" y="410.90" width="6" height="7.91" rx="1.5" fill="#0ecb81" /><line x1="909.27" y1="403.72" x2="909.27" y2="423.53" stroke="#f6465d" stroke-width="1.4" /><rect x="906.27" y="410.86" width="6" height="5.73" rx="1.5" fill="#f6465d" /><line x1="920.00" y1="407.87" x2="920.00" y2="421.92" stroke="#f6465d" stroke-width="1.4" /><rect x="917.00" y="416.59" width="6" height="4.98" rx="1.5" fill="#f6465d" />
  <polyline points="404.76,423.79 479.90,337.75 608.71,442.28 683.85,342.67 791.19,452.00" fill="none" stroke="#2fc273" stroke-width="4" stroke-linecap="round" stroke-linejoin="round" />
  <circle cx="404.76" cy="423.79" r="5.5" fill="#2fc273" fill-opacity="0.15" stroke="#2fc273" stroke-width="2" /><text x="404.76" y="411.79" fill="#f3f4f6" font-size="15" font-weight="700" text-anchor="middle">X</text><circle cx="479.90" cy="337.75" r="5.5" fill="#2fc273" fill-opacity="0.15" stroke="#2fc273" stroke-width="2" /><text x="479.90" y="325.75" fill="#f3f4f6" font-size="15" font-weight="700" text-anchor="middle">A</text><circle cx="608.71" cy="442.28" r="5.5" fill="#2fc273" fill-opacity="0.15" stroke="#2fc273" stroke-width="2" /><text x="608.71" y="430.28" fill="#f3f4f6" font-size="15" font-weight="700" text-anchor="middle">B</text><circle cx="683.85" cy="342.67" r="5.5" fill="#2fc273" fill-opacity="0.15" stroke="#2fc273" stroke-width="2" /><text x="683.85" y="330.67" fill="#f3f4f6" font-size="15" font-weight="700" text-anchor="middle">C</text><circle cx="791.19" cy="452.00" r="5.5" fill="#2fc273" fill-opacity="0.15" stroke="#2fc273" stroke-width="2" /><text x="791.19" y="440.00" fill="#f3f4f6" font-size="15" font-weight="700" text-anchor="middle">D</text>
  <text x="56" y="492" fill="#8ba0b5" font-size="18">일반 완성 · TP1 0.086776 · TP2 0.099464 · SL 0.06074</text>
</svg>
