<svg xmlns="http://www.w3.org/2000/svg" width="960" height="540" viewBox="0 0 960 540">
  <rect width="960" height="540" rx="24" fill="#0b1220" />
  <rect x="28" y="28" width="904" height="484" rx="22" fill="#111827" stroke="#1f2937" />
  <text x="56" y="74" fill="#f3f4f6" font-size="34" font-weight="700">OPUSDT · AB=CD</text>
  <text x="904" y="74" fill="#8ba0b5" font-size="20" text-anchor="end">Bearish (매도) · Score 81.5</text>
  <line x1="72" y1="58" x2="920" y2="58" stroke="#223045" stroke-width="1" stroke-dasharray="4 8" /><line x1="72" y1="156" x2="920" y2="156" stroke="#223045" stroke-width="1" stroke-dasharray="4 8" /><line x1="72" y1="255" x2="920" y2="255" stroke="#223045" stroke-width="1" stroke-dasharray="4 8" /><line x1="72" y1="353" x2="920" y2="353" stroke="#223045" stroke-width="1" stroke-dasharray="4 8" /><line x1="72" y1="452" x2="920" y2="452" stroke="#223045" stroke-width="1" stroke-dasharray="4 8" />
  <rect x="580.71" y="84.55" width="84" height="12.22" fill="#fbbf24" fill-opacity="0.12" stroke="#fbbf24" stroke-width="1.5" stroke-dasharray="6 6" />
  <line x1="72.00" y1="108.57" x2="72.00" y2="173.88" stroke="#0ecb81" stroke-width="1.4" /><rect x="69.00" y="112.78" width="6" height="35.82" rx="1.5" fill="#0ecb81" /><line x1="82.73" y1="58.00" x2="82.73" y2="123.32" stroke="#0ecb81" stroke-width="1.4" /><rect x="79.73" y="98.03" width="6" height="12.64" rx="1.5" fill="#0ecb81" /><line x1="93.47" y1="98.03" x2="93.47" y2="180.20" stroke="#f6465d" stroke-width="1.4" /><rect x="90.47" y="98.03" width="6" height="80.06" rx="1.5" fill="#f6465d" /><line x1="104.20" y1="159.13" x2="104.20" y2="222.34" stroke="#0ecb81" stroke-width="1.4" /><rect x="101.20" y="173.88" width="6" height="2.11" rx="1.5" fill="#0ecb81" /><line x1="114.94" y1="110.67" x2="114.94" y2="182.31" stroke="#0ecb81" stroke-width="1.4" /><rect x="111.94" y="129.64" width="6" height="44.25" rx="1.5" fill="#0ecb81" /><line x1="125.67" y1="100.14" x2="125.67" y2="152.81" stroke="#0ecb81" stroke-width="1.4" /><rect x="122.67" y="116.99" width="6" height="12.64" rx="1.5" fill="#0ecb81" /><line x1="136.41" y1="112.78" x2="136.41" y2="154.92" stroke="#f6465d" stroke-width="1.4" /><rect x="133.41" y="116.99" width="6" height="29.50" rx="1.5" fill="#f6465d" /><line x1="147.14" y1="95.93" x2="147.14" y2="154.92" stroke="#0ecb81" stroke-width="1.4" /><rect x="144.14" y="104.35" width="6" height="42.14" rx="1.5" fill="#0ecb81" /><line x1="157.87" y1="87.50" x2="157.87" y2="140.17" stroke="#f6465d" stroke-width="1.4" /><rect x="154.87" y="104.35" width="6" height="25.28" rx="1.5" fill="#f6465d" /><line x1="168.61" y1="108.57" x2="168.61" y2="148.60" stroke="#f6465d" stroke-width="1.4" /><rect x="165.61" y="129.64" width="6" height="6.32" rx="1.5" fill="#f6465d" /><line x1="179.34" y1="121.21" x2="179.34" y2="161.24" stroke="#0ecb81" stroke-width="1.4" /><rect x="176.34" y="135.96" width="6" height="2.11" rx="1.5" fill="#0ecb81" /><line x1="190.08" y1="125.42" x2="190.08" y2="180.20" stroke="#f6465d" stroke-width="1.4" /><rect x="187.08" y="138.06" width="6" height="29.50" rx="1.5" fill="#f6465d" /><line x1="200.81" y1="167.56" x2="200.81" y2="216.02" stroke="#f6465d" stroke-width="1.4" /><rect x="197.81" y="169.67" width="6" height="29.50" rx="1.5" fill="#f6465d" /><line x1="211.54" y1="194.95" x2="211.54" y2="256.05" stroke="#f6465d" stroke-width="1.4" /><rect x="208.54" y="199.17" width="6" height="46.35" rx="1.5" fill="#f6465d" /><line x1="222.28" y1="213.91" x2="222.28" y2="256.05" stroke="#0ecb81" stroke-width="1.4" /><rect x="219.28" y="239.20" width="6" height="4.21" rx="1.5" fill="#0ecb81" /><line x1="233.01" y1="157.03" x2="233.01" y2="293.98" stroke="#f6465d" stroke-width="1.4" /><rect x="230.01" y="237.09" width="6" height="44.25" rx="1.5" fill="#f6465d" /><line x1="243.75" y1="205.49" x2="243.75" y2="302.41" stroke="#0ecb81" stroke-width="1.4" /><rect x="240.75" y="237.09" width="6" height="42.14" rx="1.5" fill="#0ecb81" /><line x1="254.48" y1="213.91" x2="254.48" y2="241.30" stroke="#0ecb81" stroke-width="1.4" /><rect x="251.48" y="220.24" width="6" height="16.86" rx="1.5" fill="#0ecb81" /><line x1="265.22" y1="203.38" x2="265.22" y2="243.41" stroke="#0ecb81" stroke-width="1.4" /><rect x="262.22" y="209.70" width="6" height="12.64" rx="1.5" fill="#0ecb81" /><line x1="275.95" y1="197.06" x2="275.95" y2="325.58" stroke="#f6465d" stroke-width="1.4" /><rect x="272.95" y="209.70" width="6" height="92.71" rx="1.5" fill="#f6465d" /><line x1="286.68" y1="300.30" x2="286.68" y2="346.65" stroke="#f6465d" stroke-width="1.4" /><rect x="283.68" y="302.41" width="6" height="33.71" rx="1.5" fill="#f6465d" /><line x1="297.42" y1="321.37" x2="297.42" y2="369.83" stroke="#0ecb81" stroke-width="1.4" /><rect x="294.42" y="327.69" width="6" height="8.43" rx="1.5" fill="#0ecb81" /><line x1="308.15" y1="319.26" x2="308.15" y2="348.76" stroke="#f6465d" stroke-width="1.4" /><rect x="305.15" y="327.69" width="6" height="4.21" rx="1.5" fill="#f6465d" /><line x1="318.89" y1="329.80" x2="318.89" y2="378.26" stroke="#f6465d" stroke-width="1.4" /><rect x="315.89" y="331.90" width="6" height="16.86" rx="1.5" fill="#f6465d" /><line x1="329.62" y1="327.69" x2="329.62" y2="359.29" stroke="#0ecb81" stroke-width="1.4" /><rect x="326.62" y="327.69" width="6" height="21.07" rx="1.5" fill="#0ecb81" /><line x1="340.35" y1="312.94" x2="340.35" y2="336.12" stroke="#0ecb81" stroke-width="1.4" /><rect x="337.35" y="321.37" width="6" height="6.32" rx="1.5" fill="#0ecb81" /><line x1="351.09" y1="285.55" x2="351.09" y2="342.44" stroke="#f6465d" stroke-width="1.4" /><rect x="348.09" y="319.26" width="6" height="4.21" rx="1.5" fill="#f6465d" /><line x1="361.82" y1="300.30" x2="361.82" y2="327.69" stroke="#0ecb81" stroke-width="1.4" /><rect x="358.82" y="319.26" width="6" height="4.21" rx="1.5" fill="#0ecb81" /><line x1="372.56" y1="312.94" x2="372.56" y2="374.04" stroke="#f6465d" stroke-width="1.4" /><rect x="369.56" y="319.26" width="6" height="48.46" rx="1.5" fill="#f6465d" /><line x1="383.29" y1="325.58" x2="383.29" y2="384.58" stroke="#0ecb81" stroke-width="1.4" /><rect x="380.29" y="352.97" width="6" height="16.86" rx="1.5" fill="#0ecb81" /><line x1="394.03" y1="346.65" x2="394.03" y2="374.04" stroke="#f6465d" stroke-width="1.4" /><rect x="391.03" y="350.87" width="6" height="23.18" rx="1.5" fill="#f6465d" /><line x1="404.76" y1="359.29" x2="404.76" y2="393.01" stroke="#0ecb81" stroke-width="1.4" /><rect x="401.76" y="367.72" width="6" height="6.32" rx="1.5" fill="#0ecb81" /><line x1="415.49" y1="367.72" x2="415.49" y2="414.07" stroke="#f6465d" stroke-width="1.4" /><rect x="412.49" y="367.72" width="6" height="21.07" rx="1.5" fill="#f6465d" /><line x1="426.23" y1="367.72" x2="426.23" y2="397.22" stroke="#0ecb81" stroke-width="1.4" /><rect x="423.23" y="380.36" width="6" height="8.43" rx="1.5" fill="#0ecb81" /><line x1="436.96" y1="342.44" x2="436.96" y2="452.00" stroke="#0ecb81" stroke-width="1.4" /><rect x="433.96" y="378.26" width="6" height="2.11" rx="1.5" fill="#0ecb81" /><line x1="447.70" y1="287.66" x2="447.70" y2="382.47" stroke="#0ecb81" stroke-width="1.4" /><rect x="444.70" y="300.30" width="6" height="75.85" rx="1.5" fill="#0ecb81" /><line x1="458.43" y1="226.56" x2="458.43" y2="302.41" stroke="#0ecb81" stroke-width="1.4" /><rect x="455.43" y="239.20" width="6" height="63.21" rx="1.5" fill="#0ecb81" /><line x1="469.16" y1="232.88" x2="469.16" y2="283.44" stroke="#f6465d" stroke-width="1.4" /><rect x="466.16" y="237.09" width="6" height="12.64" rx="1.5" fill="#f6465d" /><line x1="479.90" y1="207.59" x2="479.90" y2="281.34" stroke="#f6465d" stroke-width="1.4" /><rect x="476.90" y="247.63" width="6" height="16.86" rx="1.5" fill="#f6465d" /><line x1="490.63" y1="253.95" x2="490.63" y2="304.51" stroke="#f6465d" stroke-width="1.4" /><rect x="487.63" y="264.48" width="6" height="18.96" rx="1.5" fill="#f6465d" /><line x1="501.37" y1="266.59" x2="501.37" y2="306.62" stroke="#f6465d" stroke-width="1.4" /><rect x="498.37" y="283.44" width="6" height="10.53" rx="1.5" fill="#f6465d" /><line x1="512.10" y1="239.20" x2="512.10" y2="302.41" stroke="#0ecb81" stroke-width="1.4" /><rect x="509.10" y="245.52" width="6" height="48.46" rx="1.5" fill="#0ecb81" /><line x1="522.84" y1="226.56" x2="522.84" y2="260.27" stroke="#0ecb81" stroke-width="1.4" /><rect x="519.84" y="226.56" width="6" height="18.96" rx="1.5" fill="#0ecb81" /><line x1="533.57" y1="213.91" x2="533.57" y2="281.34" stroke="#0ecb81" stroke-width="1.4" /><rect x="530.57" y="216.02" width="6" height="10.53" rx="1.5" fill="#0ecb81" /><line x1="544.30" y1="159.13" x2="544.30" y2="230.77" stroke="#f6465d" stroke-width="1.4" /><rect x="541.30" y="213.91" width="6" height="6.32" rx="1.5" fill="#f6465d" /><line x1="555.04" y1="169.67" x2="555.04" y2="243.41" stroke="#0ecb81" stroke-width="1.4" /><rect x="552.04" y="205.49" width="6" height="16.86" rx="1.5" fill="#0ecb81" /><line x1="565.77" y1="180.20" x2="565.77" y2="213.91" stroke="#0ecb81" stroke-width="1.4" /><rect x="562.77" y="192.84" width="6" height="10.53" rx="1.5" fill="#0ecb81" /><line x1="576.51" y1="192.84" x2="576.51" y2="243.41" stroke="#f6465d" stroke-width="1.4" /><rect x="573.51" y="192.84" width="6" height="10.53" rx="1.5" fill="#f6465d" /><line x1="587.24" y1="146.49" x2="587.24" y2="207.59" stroke="#0ecb81" stroke-width="1.4" /><rect x="584.24" y="152.81" width="6" height="48.46" rx="1.5" fill="#0ecb81" /><line x1="597.97" y1="135.96" x2="597.97" y2="192.84" stroke="#f6465d" stroke-width="1.4" /><rect x="594.97" y="152.81" width="6" height="23.18" rx="1.5" fill="#f6465d" /><line x1="608.71" y1="133.85" x2="608.71" y2="194.95" stroke="#0ecb81" stroke-width="1.4" /><rect x="605.71" y="169.67" width="6" height="6.32" rx="1.5" fill="#0ecb81" /><line x1="619.44" y1="152.81" x2="619.44" y2="199.17" stroke="#f6465d" stroke-width="1.4" /><rect x="616.44" y="167.56" width="6" height="21.07" rx="1.5" fill="#f6465d" /><line x1="630.18" y1="165.45" x2="630.18" y2="222.34" stroke="#f6465d" stroke-width="1.4" /><rect x="627.18" y="190.74" width="6" height="14.75" rx="1.5" fill="#f6465d" /><line x1="640.91" y1="182.31" x2="640.91" y2="287.66" stroke="#f6465d" stroke-width="1.4" /><rect x="637.91" y="207.59" width="6" height="67.42" rx="1.5" fill="#f6465d" /><line x1="651.65" y1="247.63" x2="651.65" y2="293.98" stroke="#0ecb81" stroke-width="1.4" /><rect x="648.65" y="262.37" width="6" height="14.75" rx="1.5" fill="#0ecb81" /><line x1="662.38" y1="260.27" x2="662.38" y2="291.87" stroke="#f6465d" stroke-width="1.4" /><rect x="659.38" y="262.37" width="6" height="14.75" rx="1.5" fill="#f6465d" /><line x1="673.11" y1="264.48" x2="673.11" y2="323.48" stroke="#f6465d" stroke-width="1.4" /><rect x="670.11" y="277.12" width="6" height="4.21" rx="1.5" fill="#f6465d" /><line x1="683.85" y1="251.84" x2="683.85" y2="298.19" stroke="#f6465d" stroke-width="1.4" /><rect x="680.85" y="281.34" width="6" height="4.21" rx="1.5" fill="#f6465d" /><line x1="694.58" y1="268.70" x2="694.58" y2="298.19" stroke="#f6465d" stroke-width="1.4" /><rect x="691.58" y="285.55" width="6" height="2.11" rx="1.5" fill="#f6465d" /><line x1="705.32" y1="245.52" x2="705.32" y2="293.98" stroke="#0ecb81" stroke-width="1.4" /><rect x="702.32" y="260.27" width="6" height="25.28" rx="1.5" fill="#0ecb81" /><line x1="716.05" y1="207.59" x2="716.05" y2="262.37" stroke="#0ecb81" stroke-width="1.4" /><rect x="713.05" y="226.56" width="6" height="31.60" rx="1.5" fill="#0ecb81" /><line x1="726.78" y1="186.52" x2="726.78" y2="226.56" stroke="#0ecb81" stroke-width="1.4" /><rect x="723.78" y="194.95" width="6" height="31.60" rx="1.5" fill="#0ecb81" /><line x1="737.52" y1="169.67" x2="737.52" y2="222.34" stroke="#f6465d" stroke-width="1.4" /><rect x="734.52" y="192.84" width="6" height="18.96" rx="1.5" fill="#f6465d" /><line x1="748.25" y1="194.95" x2="748.25" y2="216.02" stroke="#0ecb81" stroke-width="1.4" /><rect x="745.25" y="199.17" width="6" height="12.64" rx="1.5" fill="#0ecb81" /><line x1="758.99" y1="184.42" x2="758.99" y2="213.91" stroke="#f6465d" stroke-width="1.4" /><rect x="755.99" y="197.06" width="6" height="10.53" rx="1.5" fill="#f6465d" /><line x1="769.72" y1="188.63" x2="769.72" y2="220.24" stroke="#0ecb81" stroke-width="1.4" /><rect x="766.72" y="203.38" width="6" height="2.11" rx="1.5" fill="#0ecb81" /><line x1="780.46" y1="186.52" x2="780.46" y2="220.24" stroke="#0ecb81" stroke-width="1.4" /><rect x="777.46" y="201.27" width="6" height="2.11" rx="1.5" fill="#0ecb81" /><line x1="791.19" y1="197.06" x2="791.19" y2="230.77" stroke="#f6465d" stroke-width="1.4" /><rect x="788.19" y="199.17" width="6" height="14.75" rx="1.5" fill="#f6465d" /><line x1="801.92" y1="205.49" x2="801.92" y2="243.41" stroke="#f6465d" stroke-width="1.4" /><rect x="798.92" y="213.91" width="6" height="8.43" rx="1.5" fill="#f6465d" /><line x1="812.66" y1="178.10" x2="812.66" y2="228.66" stroke="#0ecb81" stroke-width="1.4" /><rect x="809.66" y="201.27" width="6" height="21.07" rx="1.5" fill="#0ecb81" /><line x1="823.39" y1="192.84" x2="823.39" y2="209.70" stroke="#0ecb81" stroke-width="1.4" /><rect x="820.39" y="197.06" width="6" height="4.21" rx="1.5" fill="#0ecb81" /><line x1="834.13" y1="190.74" x2="834.13" y2="228.66" stroke="#f6465d" stroke-width="1.4" /><rect x="831.13" y="194.95" width="6" height="31.60" rx="1.5" fill="#f6465d" /><line x1="844.86" y1="224.45" x2="844.86" y2="272.91" stroke="#f6465d" stroke-width="1.4" /><rect x="841.86" y="226.56" width="6" height="42.14" rx="1.5" fill="#f6465d" /><line x1="855.59" y1="253.95" x2="855.59" y2="277.12" stroke="#0ecb81" stroke-width="1.4" /><rect x="852.59" y="268.70" width="6" height="2.11" rx="1.5" fill="#0ecb81" /><line x1="866.33" y1="247.63" x2="866.33" y2="298.19" stroke="#f6465d" stroke-width="1.4" /><rect x="863.33" y="268.70" width="6" height="2.11" rx="1.5" fill="#f6465d" /><line x1="877.06" y1="264.48" x2="877.06" y2="289.76" stroke="#f6465d" stroke-width="1.4" /><rect x="874.06" y="270.80" width="6" height="4.21" rx="1.5" fill="#f6465d" /><line x1="887.80" y1="201.27" x2="887.80" y2="281.34" stroke="#0ecb81" stroke-width="1.4" /><rect x="884.80" y="201.27" width="6" height="73.74" rx="1.5" fill="#0ecb81" /><line x1="898.53" y1="157.03" x2="898.53" y2="207.59" stroke="#0ecb81" stroke-width="1.4" /><rect x="895.53" y="173.88" width="6" height="27.39" rx="1.5" fill="#0ecb81" /><line x1="909.27" y1="154.92" x2="909.27" y2="188.63" stroke="#0ecb81" stroke-width="1.4" /><rect x="906.27" y="165.45" width="6" height="8.43" rx="1.5" fill="#0ecb81" /><line x1="920.00" y1="114.89" x2="920.00" y2="169.67" stroke="#0ecb81" stroke-width="1.4" /><rect x="917.00" y="121.21" width="6" height="44.25" rx="1.5" fill="#0ecb81" />
  <polyline points="479.90,207.59 501.37,306.62 544.30,159.13 576.51,243.41 608.71,133.85" fill="none" stroke="#2fc273" stroke-width="4" stroke-linecap="round" stroke-linejoin="round" />
  <circle cx="479.90" cy="207.59" r="5.5" fill="#2fc273" fill-opacity="0.15" stroke="#2fc273" stroke-width="2" /><text x="479.90" y="195.59" fill="#f3f4f6" font-size="15" font-weight="700" text-anchor="middle">X</text><circle cx="501.37" cy="306.62" r="5.5" fill="#2fc273" fill-opacity="0.15" stroke="#2fc273" stroke-width="2" /><text x="501.37" y="294.62" fill="#f3f4f6" font-size="15" font-weight="700" text-anchor="middle">A</text><circle cx="544.30" cy="159.13" r="5.5" fill="#2fc273" fill-opacity="0.15" stroke="#2fc273" stroke-width="2" /><text x="544.30" y="147.13" fill="#f3f4f6" font-size="15" font-weight="700" text-anchor="middle">B</text><circle cx="576.51" cy="243.41" r="5.5" fill="#2fc273" fill-opacity="0.15" stroke="#2fc273" stroke-width="2" /><text x="576.51" y="231.41" fill="#f3f4f6" font-size="15" font-weight="700" text-anchor="middle">C</text><circle cx="608.71" cy="133.85" r="5.5" fill="#2fc273" fill-opacity="0.15" stroke="#2fc273" stroke-width="2" /><text x="608.71" y="121.85" fill="#f3f4f6" font-size="15" font-weight="700" text-anchor="middle">D</text>
  <text x="56" y="492" fill="#8ba0b5" font-size="18">실시간 터치 · TP1 0.11151 · TP2 0.11029 · SL 0.11411</text>
</svg>
