<svg xmlns="http://www.w3.org/2000/svg" width="960" height="540" viewBox="0 0 960 540">
  <rect width="960" height="540" rx="24" fill="#0b1220" />
  <rect x="28" y="28" width="904" height="484" rx="22" fill="#111827" stroke="#1f2937" />
  <text x="56" y="74" fill="#f3f4f6" font-size="34" font-weight="700">PAXGUSDT · AB=CD</text>
  <text x="904" y="74" fill="#8ba0b5" font-size="20" text-anchor="end">Bearish (매도) · Score 83.7</text>
  <line x1="72" y1="58" x2="920" y2="58" stroke="#223045" stroke-width="1" stroke-dasharray="4 8" /><line x1="72" y1="156" x2="920" y2="156" stroke="#223045" stroke-width="1" stroke-dasharray="4 8" /><line x1="72" y1="255" x2="920" y2="255" stroke="#223045" stroke-width="1" stroke-dasharray="4 8" /><line x1="72" y1="353" x2="920" y2="353" stroke="#223045" stroke-width="1" stroke-dasharray="4 8" /><line x1="72" y1="452" x2="920" y2="452" stroke="#223045" stroke-width="1" stroke-dasharray="4 8" />
  <rect x="516.30" y="-35.51" width="84" height="93.91" fill="#fbbf24" fill-opacity="0.12" stroke="#fbbf24" stroke-width="1.5" stroke-dasharray="6 6" />
  <line x1="72.00" y1="89.61" x2="72.00" y2="270.49" stroke="#f6465d" stroke-width="1.4" /><rect x="69.00" y="90.65" width="6" height="130.64" rx="1.5" fill="#f6465d" /><line x1="82.73" y1="167.98" x2="82.73" y2="312.49" stroke="#f6465d" stroke-width="1.4" /><rect x="79.73" y="220.99" width="6" height="61.65" rx="1.5" fill="#f6465d" /><line x1="93.47" y1="157.86" x2="93.47" y2="284.92" stroke="#0ecb81" stroke-width="1.4" /><rect x="90.47" y="184.85" width="6" height="97.78" rx="1.5" fill="#0ecb81" /><line x1="104.20" y1="179.47" x2="104.20" y2="202.93" stroke="#f6465d" stroke-width="1.4" /><rect x="101.20" y="185.02" width="6" height="7.11" rx="1.5" fill="#f6465d" /><line x1="114.94" y1="162.41" x2="114.94" y2="242.23" stroke="#f6465d" stroke-width="1.4" /><rect x="111.94" y="192.13" width="6" height="28.10" rx="1.5" fill="#f6465d" /><line x1="125.67" y1="115.82" x2="125.67" y2="234.22" stroke="#0ecb81" stroke-width="1.4" /><rect x="122.67" y="122.24" width="6" height="97.97" rx="1.5" fill="#0ecb81" /><line x1="136.41" y1="100.67" x2="136.41" y2="155.69" stroke="#f6465d" stroke-width="1.4" /><rect x="133.41" y="122.21" width="6" height="2.00" rx="1.5" fill="#f6465d" /><line x1="147.14" y1="58.00" x2="147.14" y2="127.89" stroke="#0ecb81" stroke-width="1.4" /><rect x="144.14" y="81.83" width="6" height="40.68" rx="1.5" fill="#0ecb81" /><line x1="157.87" y1="59.13" x2="157.87" y2="98.31" stroke="#f6465d" stroke-width="1.4" /><rect x="154.87" y="81.81" width="6" height="9.51" rx="1.5" fill="#f6465d" /><line x1="168.61" y1="79.91" x2="168.61" y2="94.62" stroke="#0ecb81" stroke-width="1.4" /><rect x="165.61" y="88.78" width="6" height="2.40" rx="1.5" fill="#0ecb81" /><line x1="179.34" y1="64.14" x2="179.34" y2="120.97" stroke="#f6465d" stroke-width="1.4" /><rect x="176.34" y="88.80" width="6" height="7.53" rx="1.5" fill="#f6465d" /><line x1="190.08" y1="93.10" x2="190.08" y2="140.80" stroke="#f6465d" stroke-width="1.4" /><rect x="187.08" y="96.35" width="6" height="34.40" rx="1.5" fill="#f6465d" /><line x1="200.81" y1="115.19" x2="200.81" y2="157.38" stroke="#f6465d" stroke-width="1.4" /><rect x="197.81" y="130.73" width="6" height="5.80" rx="1.5" fill="#f6465d" /><line x1="211.54" y1="101.99" x2="211.54" y2="198.52" stroke="#0ecb81" stroke-width="1.4" /><rect x="208.54" y="112.21" width="6" height="24.29" rx="1.5" fill="#0ecb81" /><line x1="222.28" y1="107.34" x2="222.28" y2="141.63" stroke="#f6465d" stroke-width="1.4" /><rect x="219.28" y="112.19" width="6" height="8.08" rx="1.5" fill="#f6465d" /><line x1="233.01" y1="90.72" x2="233.01" y2="120.11" stroke="#0ecb81" stroke-width="1.4" /><rect x="230.01" y="99.79" width="6" height="20.30" rx="1.5" fill="#0ecb81" /><line x1="243.75" y1="94.94" x2="243.75" y2="106.23" stroke="#f6465d" stroke-width="1.4" /><rect x="240.75" y="99.79" width="6" height="5.03" rx="1.5" fill="#f6465d" /><line x1="254.48" y1="97.30" x2="254.48" y2="104.83" stroke="#0ecb81" stroke-width="1.4" /><rect x="251.48" y="97.83" width="6" height="7.00" rx="1.5" fill="#0ecb81" /><line x1="265.22" y1="91.06" x2="265.22" y2="97.85" stroke="#0ecb81" stroke-width="1.4" /><rect x="262.22" y="97.55" width="6" height="2.00" rx="1.5" fill="#0ecb81" /><line x1="275.95" y1="91.96" x2="275.95" y2="120.43" stroke="#f6465d" stroke-width="1.4" /><rect x="272.95" y="97.55" width="6" height="17.83" rx="1.5" fill="#f6465d" /><line x1="286.68" y1="107.73" x2="286.68" y2="116.21" stroke="#0ecb81" stroke-width="1.4" /><rect x="283.68" y="113.51" width="6" height="2.00" rx="1.5" fill="#0ecb81" /><line x1="297.42" y1="111.41" x2="297.42" y2="129.07" stroke="#f6465d" stroke-width="1.4" /><rect x="294.42" y="113.53" width="6" height="12.47" rx="1.5" fill="#f6465d" /><line x1="308.15" y1="120.55" x2="308.15" y2="131.70" stroke="#0ecb81" stroke-width="1.4" /><rect x="305.15" y="122.10" width="6" height="3.93" rx="1.5" fill="#0ecb81" /><line x1="318.89" y1="121.73" x2="318.89" y2="130.55" stroke="#f6465d" stroke-width="1.4" /><rect x="315.89" y="122.10" width="6" height="7.94" rx="1.5" fill="#f6465d" /><line x1="329.62" y1="128.28" x2="329.62" y2="130.39" stroke="#0ecb81" stroke-width="1.4" /><rect x="326.62" y="129.81" width="6" height="2.00" rx="1.5" fill="#0ecb81" /><line x1="340.35" y1="126.48" x2="340.35" y2="137.91" stroke="#0ecb81" stroke-width="1.4" /><rect x="337.35" y="128.15" width="6" height="2.00" rx="1.5" fill="#0ecb81" /><line x1="351.09" y1="128.03" x2="351.09" y2="140.11" stroke="#f6465d" stroke-width="1.4" /><rect x="348.09" y="128.15" width="6" height="9.61" rx="1.5" fill="#f6465d" /><line x1="361.82" y1="129.00" x2="361.82" y2="207.67" stroke="#f6465d" stroke-width="1.4" /><rect x="358.82" y="137.77" width="6" height="36.78" rx="1.5" fill="#f6465d" /><line x1="372.56" y1="160.40" x2="372.56" y2="244.42" stroke="#f6465d" stroke-width="1.4" /><rect x="369.56" y="174.53" width="6" height="55.46" rx="1.5" fill="#f6465d" /><line x1="383.29" y1="202.36" x2="383.29" y2="265.90" stroke="#0ecb81" stroke-width="1.4" /><rect x="380.29" y="217.80" width="6" height="12.21" rx="1.5" fill="#0ecb81" /><line x1="394.03" y1="182.80" x2="394.03" y2="254.05" stroke="#f6465d" stroke-width="1.4" /><rect x="391.03" y="217.80" width="6" height="18.08" rx="1.5" fill="#f6465d" /><line x1="404.76" y1="214.34" x2="404.76" y2="358.88" stroke="#f6465d" stroke-width="1.4" /><rect x="401.76" y="235.86" width="6" height="88.87" rx="1.5" fill="#f6465d" /><line x1="415.49" y1="321.04" x2="415.49" y2="389.22" stroke="#f6465d" stroke-width="1.4" /><rect x="412.49" y="324.61" width="6" height="28.22" rx="1.5" fill="#f6465d" /><line x1="426.23" y1="345.37" x2="426.23" y2="380.63" stroke="#f6465d" stroke-width="1.4" /><rect x="423.23" y="352.85" width="6" height="9.67" rx="1.5" fill="#f6465d" /><line x1="436.96" y1="322.98" x2="436.96" y2="400.60" stroke="#0ecb81" stroke-width="1.4" /><rect x="433.96" y="329.21" width="6" height="33.55" rx="1.5" fill="#0ecb81" /><line x1="447.70" y1="289.01" x2="447.70" y2="335.84" stroke="#0ecb81" stroke-width="1.4" /><rect x="444.70" y="320.27" width="6" height="8.94" rx="1.5" fill="#0ecb81" /><line x1="458.43" y1="294.48" x2="458.43" y2="334.40" stroke="#0ecb81" stroke-width="1.4" /><rect x="455.43" y="295.94" width="6" height="24.34" rx="1.5" fill="#0ecb81" /><line x1="469.16" y1="133.06" x2="469.16" y2="313.23" stroke="#0ecb81" stroke-width="1.4" /><rect x="466.16" y="219.35" width="6" height="76.56" rx="1.5" fill="#0ecb81" /><line x1="479.90" y1="218.10" x2="479.90" y2="271.35" stroke="#f6465d" stroke-width="1.4" /><rect x="476.90" y="219.26" width="6" height="23.30" rx="1.5" fill="#f6465d" /><line x1="490.63" y1="232.03" x2="490.63" y2="261.16" stroke="#f6465d" stroke-width="1.4" /><rect x="487.63" y="242.55" width="6" height="5.26" rx="1.5" fill="#f6465d" /><line x1="501.37" y1="226.81" x2="501.37" y2="304.64" stroke="#f6465d" stroke-width="1.4" /><rect x="498.37" y="247.80" width="6" height="47.75" rx="1.5" fill="#f6465d" /><line x1="512.10" y1="284.53" x2="512.10" y2="320.34" stroke="#f6465d" stroke-width="1.4" /><rect x="509.10" y="295.55" width="6" height="16.53" rx="1.5" fill="#f6465d" /><line x1="522.84" y1="277.07" x2="522.84" y2="325.93" stroke="#0ecb81" stroke-width="1.4" /><rect x="519.84" y="279.66" width="6" height="32.39" rx="1.5" fill="#0ecb81" /><line x1="533.57" y1="201.34" x2="533.57" y2="285.66" stroke="#0ecb81" stroke-width="1.4" /><rect x="530.57" y="265.55" width="6" height="14.08" rx="1.5" fill="#0ecb81" /><line x1="544.30" y1="185.62" x2="544.30" y2="308.89" stroke="#0ecb81" stroke-width="1.4" /><rect x="541.30" y="240.92" width="6" height="24.64" rx="1.5" fill="#0ecb81" /><line x1="555.04" y1="224.34" x2="555.04" y2="244.77" stroke="#f6465d" stroke-width="1.4" /><rect x="552.04" y="240.85" width="6" height="2.00" rx="1.5" fill="#f6465d" /><line x1="565.77" y1="234.82" x2="565.77" y2="313.90" stroke="#f6465d" stroke-width="1.4" /><rect x="562.77" y="241.72" width="6" height="45.39" rx="1.5" fill="#f6465d" /><line x1="576.51" y1="284.76" x2="576.51" y2="315.52" stroke="#f6465d" stroke-width="1.4" /><rect x="573.51" y="287.12" width="6" height="13.42" rx="1.5" fill="#f6465d" /><line x1="587.24" y1="272.83" x2="587.24" y2="318.45" stroke="#0ecb81" stroke-width="1.4" /><rect x="584.24" y="282.34" width="6" height="18.22" rx="1.5" fill="#0ecb81" /><line x1="597.97" y1="272.83" x2="597.97" y2="425.22" stroke="#f6465d" stroke-width="1.4" /><rect x="594.97" y="282.31" width="6" height="64.44" rx="1.5" fill="#f6465d" /><line x1="608.71" y1="346.73" x2="608.71" y2="428.22" stroke="#f6465d" stroke-width="1.4" /><rect x="605.71" y="346.73" width="6" height="58.67" rx="1.5" fill="#f6465d" /><line x1="619.44" y1="393.10" x2="619.44" y2="422.88" stroke="#0ecb81" stroke-width="1.4" /><rect x="616.44" y="393.12" width="6" height="12.28" rx="1.5" fill="#0ecb81" /><line x1="630.18" y1="344.40" x2="630.18" y2="425.82" stroke="#0ecb81" stroke-width="1.4" /><rect x="627.18" y="382.22" width="6" height="10.90" rx="1.5" fill="#0ecb81" /><line x1="640.91" y1="349.69" x2="640.91" y2="416.97" stroke="#0ecb81" stroke-width="1.4" /><rect x="637.91" y="379.01" width="6" height="3.19" rx="1.5" fill="#0ecb81" /><line x1="651.65" y1="359.25" x2="651.65" y2="390.30" stroke="#0ecb81" stroke-width="1.4" /><rect x="648.65" y="376.06" width="6" height="2.98" rx="1.5" fill="#0ecb81" /><line x1="662.38" y1="321.98" x2="662.38" y2="452.00" stroke="#0ecb81" stroke-width="1.4" /><rect x="659.38" y="327.02" width="6" height="49.04" rx="1.5" fill="#0ecb81" /><line x1="673.11" y1="318.08" x2="673.11" y2="365.18" stroke="#f6465d" stroke-width="1.4" /><rect x="670.11" y="326.88" width="6" height="9.28" rx="1.5" fill="#f6465d" /><line x1="683.85" y1="334.40" x2="683.85" y2="353.64" stroke="#f6465d" stroke-width="1.4" /><rect x="680.85" y="336.07" width="6" height="8.94" rx="1.5" fill="#f6465d" /><line x1="694.58" y1="337.61" x2="694.58" y2="345.03" stroke="#0ecb81" stroke-width="1.4" /><rect x="691.58" y="337.61" width="6" height="7.41" rx="1.5" fill="#0ecb81" /><line x1="705.32" y1="328.49" x2="705.32" y2="337.64" stroke="#0ecb81" stroke-width="1.4" /><rect x="702.32" y="328.49" width="6" height="9.12" rx="1.5" fill="#0ecb81" /><line x1="716.05" y1="327.48" x2="716.05" y2="330.06" stroke="#f6465d" stroke-width="1.4" /><rect x="713.05" y="328.49" width="6" height="2.00" rx="1.5" fill="#f6465d" /><line x1="726.78" y1="328.61" x2="726.78" y2="333.87" stroke="#f6465d" stroke-width="1.4" /><rect x="723.78" y="329.26" width="6" height="2.29" rx="1.5" fill="#f6465d" /><line x1="737.52" y1="324.04" x2="737.52" y2="342.09" stroke="#f6465d" stroke-width="1.4" /><rect x="734.52" y="331.52" width="6" height="10.58" rx="1.5" fill="#f6465d" /><line x1="748.25" y1="330.87" x2="748.25" y2="346.53" stroke="#0ecb81" stroke-width="1.4" /><rect x="745.25" y="330.90" width="6" height="11.18" rx="1.5" fill="#0ecb81" /><line x1="758.99" y1="329.23" x2="758.99" y2="332.60" stroke="#f6465d" stroke-width="1.4" /><rect x="755.99" y="330.90" width="6" height="2.00" rx="1.5" fill="#f6465d" /><line x1="769.72" y1="332.00" x2="769.72" y2="336.64" stroke="#f6465d" stroke-width="1.4" /><rect x="766.72" y="332.00" width="6" height="4.64" rx="1.5" fill="#f6465d" /><line x1="780.46" y1="334.82" x2="780.46" y2="343.83" stroke="#f6465d" stroke-width="1.4" /><rect x="777.46" y="336.62" width="6" height="7.18" rx="1.5" fill="#f6465d" /><line x1="791.19" y1="338.03" x2="791.19" y2="350.73" stroke="#0ecb81" stroke-width="1.4" /><rect x="788.19" y="341.10" width="6" height="2.70" rx="1.5" fill="#0ecb81" /><line x1="801.92" y1="334.84" x2="801.92" y2="344.40" stroke="#0ecb81" stroke-width="1.4" /><rect x="798.92" y="336.41" width="6" height="4.66" rx="1.5" fill="#0ecb81" /><line x1="812.66" y1="336.41" x2="812.66" y2="388.27" stroke="#f6465d" stroke-width="1.4" /><rect x="809.66" y="336.44" width="6" height="39.85" rx="1.5" fill="#f6465d" /><line x1="823.39" y1="302.08" x2="823.39" y2="402.13" stroke="#0ecb81" stroke-width="1.4" /><rect x="820.39" y="312.05" width="6" height="64.21" rx="1.5" fill="#0ecb81" /><line x1="834.13" y1="305.45" x2="834.13" y2="359.43" stroke="#f6465d" stroke-width="1.4" /><rect x="831.13" y="312.08" width="6" height="14.45" rx="1.5" fill="#f6465d" /><line x1="844.86" y1="275.94" x2="844.86" y2="332.33" stroke="#0ecb81" stroke-width="1.4" /><rect x="841.86" y="307.81" width="6" height="18.70" rx="1.5" fill="#0ecb81" /><line x1="855.59" y1="307.81" x2="855.59" y2="368.05" stroke="#f6465d" stroke-width="1.4" /><rect x="852.59" y="307.81" width="6" height="31.15" rx="1.5" fill="#f6465d" /><line x1="866.33" y1="325.84" x2="866.33" y2="358.67" stroke="#f6465d" stroke-width="1.4" /><rect x="863.33" y="338.95" width="6" height="10.85" rx="1.5" fill="#f6465d" /><line x1="877.06" y1="340.29" x2="877.06" y2="364.03" stroke="#0ecb81" stroke-width="1.4" /><rect x="874.06" y="342.51" width="6" height="6.56" rx="1.5" fill="#0ecb81" /><line x1="887.80" y1="249.74" x2="887.80" y2="356.64" stroke="#0ecb81" stroke-width="1.4" /><rect x="884.80" y="262.23" width="6" height="80.51" rx="1.5" fill="#0ecb81" /><line x1="898.53" y1="181.69" x2="898.53" y2="269.20" stroke="#0ecb81" stroke-width="1.4" /><rect x="895.53" y="210.37" width="6" height="51.84" rx="1.5" fill="#0ecb81" /><line x1="909.27" y1="208.24" x2="909.27" y2="246.80" stroke="#f6465d" stroke-width="1.4" /><rect x="906.27" y="210.37" width="6" height="29.76" rx="1.5" fill="#f6465d" /><line x1="920.00" y1="212.79" x2="920.00" y2="267.79" stroke="#0ecb81" stroke-width="1.4" /><rect x="917.00" y="216.26" width="6" height="23.87" rx="1.5" fill="#0ecb81" />
  <polyline points="233.01,90.72 436.96,400.60 469.16,133.06 522.84,325.93 544.30,185.62" fill="none" stroke="#2fc273" stroke-width="4" stroke-linecap="round" stroke-linejoin="round" />
  <circle cx="233.01" cy="90.72" r="5.5" fill="#2fc273" fill-opacity="0.15" stroke="#2fc273" stroke-width="2" /><text x="233.01" y="78.72" fill="#f3f4f6" font-size="15" font-weight="700" text-anchor="middle">X</text><circle cx="436.96" cy="400.60" r="5.5" fill="#2fc273" fill-opacity="0.15" stroke="#2fc273" stroke-width="2" /><text x="436.96" y="388.60" fill="#f3f4f6" font-size="15" font-weight="700" text-anchor="middle">A</text><circle cx="469.16" cy="133.06" r="5.5" fill="#2fc273" fill-opacity="0.15" stroke="#2fc273" stroke-width="2" /><text x="469.16" y="121.06" fill="#f3f4f6" font-size="15" font-weight="700" text-anchor="middle">B</text><circle cx="522.84" cy="325.93" r="5.5" fill="#2fc273" fill-opacity="0.15" stroke="#2fc273" stroke-width="2" /><text x="522.84" y="313.93" fill="#f3f4f6" font-size="15" font-weight="700" text-anchor="middle">C</text><circle cx="544.30" cy="185.62" r="5.5" fill="#2fc273" fill-opacity="0.15" stroke="#2fc273" stroke-width="2" /><text x="544.30" y="173.62" fill="#f3f4f6" font-size="15" font-weight="700" text-anchor="middle">D</text>
  <text x="56" y="492" fill="#8ba0b5" font-size="18">Complete · TP1 4050.56 · TP2 4036.21 · SL 4091.22</text>
</svg>
