<svg xmlns="http://www.w3.org/2000/svg" width="960" height="540" viewBox="0 0 960 540">
  <rect width="960" height="540" rx="24" fill="#0b1220" />
  <rect x="28" y="28" width="904" height="484" rx="22" fill="#111827" stroke="#1f2937" />
  <text x="56" y="74" fill="#f3f4f6" font-size="34" font-weight="700">PENGUUSDT · AB=CD</text>
  <text x="904" y="74" fill="#8ba0b5" font-size="20" text-anchor="end">Bullish (매수) · Score 85.3</text>
  <line x1="72" y1="58" x2="920" y2="58" stroke="#223045" stroke-width="1" stroke-dasharray="4 8" /><line x1="72" y1="156" x2="920" y2="156" stroke="#223045" stroke-width="1" stroke-dasharray="4 8" /><line x1="72" y1="255" x2="920" y2="255" stroke="#223045" stroke-width="1" stroke-dasharray="4 8" /><line x1="72" y1="353" x2="920" y2="353" stroke="#223045" stroke-width="1" stroke-dasharray="4 8" /><line x1="72" y1="452" x2="920" y2="452" stroke="#223045" stroke-width="1" stroke-dasharray="4 8" />
  <rect x="859.80" y="448.58" width="84" height="7.90" fill="#fbbf24" fill-opacity="0.12" stroke="#fbbf24" stroke-width="1.5" stroke-dasharray="6 6" />
  <line x1="72.00" y1="168.54" x2="72.00" y2="209.60" stroke="#f6465d" stroke-width="1.4" /><rect x="69.00" y="186.70" width="6" height="3.42" rx="1.5" fill="#f6465d" /><line x1="82.73" y1="181.17" x2="82.73" y2="227.50" stroke="#f6465d" stroke-width="1.4" /><rect x="79.73" y="189.86" width="6" height="13.69" rx="1.5" fill="#f6465d" /><line x1="93.47" y1="170.65" x2="93.47" y2="223.55" stroke="#0ecb81" stroke-width="1.4" /><rect x="90.47" y="175.65" width="6" height="27.90" rx="1.5" fill="#0ecb81" /><line x1="104.20" y1="171.17" x2="104.20" y2="213.02" stroke="#f6465d" stroke-width="1.4" /><rect x="101.20" y="175.91" width="6" height="18.42" rx="1.5" fill="#f6465d" /><line x1="114.94" y1="191.70" x2="114.94" y2="234.34" stroke="#f6465d" stroke-width="1.4" /><rect x="111.94" y="194.33" width="6" height="16.05" rx="1.5" fill="#f6465d" /><line x1="125.67" y1="198.55" x2="125.67" y2="239.08" stroke="#0ecb81" stroke-width="1.4" /><rect x="122.67" y="209.86" width="6" height="2.00" rx="1.5" fill="#0ecb81" /><line x1="136.41" y1="164.33" x2="136.41" y2="210.39" stroke="#0ecb81" stroke-width="1.4" /><rect x="133.41" y="168.01" width="6" height="42.11" rx="1.5" fill="#0ecb81" /><line x1="147.14" y1="140.64" x2="147.14" y2="177.49" stroke="#0ecb81" stroke-width="1.4" /><rect x="144.14" y="147.22" width="6" height="20.79" rx="1.5" fill="#0ecb81" /><line x1="157.87" y1="75.90" x2="157.87" y2="148.80" stroke="#0ecb81" stroke-width="1.4" /><rect x="154.87" y="101.95" width="6" height="45.27" rx="1.5" fill="#0ecb81" /><line x1="168.61" y1="61.95" x2="168.61" y2="110.64" stroke="#0ecb81" stroke-width="1.4" /><rect x="165.61" y="75.90" width="6" height="26.06" rx="1.5" fill="#0ecb81" /><line x1="179.34" y1="58.00" x2="179.34" y2="135.12" stroke="#f6465d" stroke-width="1.4" /><rect x="176.34" y="75.90" width="6" height="45.53" rx="1.5" fill="#f6465d" /><line x1="190.08" y1="93.27" x2="190.08" y2="127.75" stroke="#0ecb81" stroke-width="1.4" /><rect x="187.08" y="104.32" width="6" height="17.37" rx="1.5" fill="#0ecb81" /><line x1="200.81" y1="95.37" x2="200.81" y2="123.54" stroke="#f6465d" stroke-width="1.4" /><rect x="197.81" y="104.06" width="6" height="4.74" rx="1.5" fill="#f6465d" /><line x1="211.54" y1="101.43" x2="211.54" y2="151.17" stroke="#f6465d" stroke-width="1.4" /><rect x="208.54" y="109.06" width="6" height="35.53" rx="1.5" fill="#f6465d" /><line x1="222.28" y1="143.27" x2="222.28" y2="190.39" stroke="#f6465d" stroke-width="1.4" /><rect x="219.28" y="144.59" width="6" height="36.85" rx="1.5" fill="#f6465d" /><line x1="233.01" y1="179.60" x2="233.01" y2="226.18" stroke="#f6465d" stroke-width="1.4" /><rect x="230.01" y="181.44" width="6" height="44.22" rx="1.5" fill="#f6465d" /><line x1="243.75" y1="183.54" x2="243.75" y2="230.39" stroke="#0ecb81" stroke-width="1.4" /><rect x="240.75" y="221.18" width="6" height="4.21" rx="1.5" fill="#0ecb81" /><line x1="254.48" y1="215.92" x2="254.48" y2="257.24" stroke="#f6465d" stroke-width="1.4" /><rect x="251.48" y="221.18" width="6" height="31.85" rx="1.5" fill="#f6465d" /><line x1="265.22" y1="209.60" x2="265.22" y2="258.55" stroke="#0ecb81" stroke-width="1.4" /><rect x="262.22" y="235.66" width="6" height="17.11" rx="1.5" fill="#0ecb81" /><line x1="275.95" y1="215.13" x2="275.95" y2="240.92" stroke="#f6465d" stroke-width="1.4" /><rect x="272.95" y="235.39" width="6" height="2.00" rx="1.5" fill="#f6465d" /><line x1="286.68" y1="223.29" x2="286.68" y2="250.66" stroke="#0ecb81" stroke-width="1.4" /><rect x="283.68" y="225.39" width="6" height="10.00" rx="1.5" fill="#0ecb81" /><line x1="297.42" y1="220.39" x2="297.42" y2="317.25" stroke="#f6465d" stroke-width="1.4" /><rect x="294.42" y="225.13" width="6" height="80.01" rx="1.5" fill="#f6465d" /><line x1="308.15" y1="295.40" x2="308.15" y2="332.51" stroke="#f6465d" stroke-width="1.4" /><rect x="305.15" y="305.14" width="6" height="9.47" rx="1.5" fill="#f6465d" /><line x1="318.89" y1="302.77" x2="318.89" y2="333.30" stroke="#f6465d" stroke-width="1.4" /><rect x="315.89" y="314.61" width="6" height="2.11" rx="1.5" fill="#f6465d" /><line x1="329.62" y1="308.56" x2="329.62" y2="333.56" stroke="#f6465d" stroke-width="1.4" /><rect x="326.62" y="316.72" width="6" height="9.21" rx="1.5" fill="#f6465d" /><line x1="340.35" y1="320.67" x2="340.35" y2="348.30" stroke="#f6465d" stroke-width="1.4" /><rect x="337.35" y="325.93" width="6" height="20.53" rx="1.5" fill="#f6465d" /><line x1="351.09" y1="337.25" x2="351.09" y2="358.04" stroke="#0ecb81" stroke-width="1.4" /><rect x="348.09" y="337.51" width="6" height="8.95" rx="1.5" fill="#0ecb81" /><line x1="361.82" y1="319.35" x2="361.82" y2="345.41" stroke="#0ecb81" stroke-width="1.4" /><rect x="358.82" y="333.04" width="6" height="4.21" rx="1.5" fill="#0ecb81" /><line x1="372.56" y1="283.03" x2="372.56" y2="339.88" stroke="#0ecb81" stroke-width="1.4" /><rect x="369.56" y="300.66" width="6" height="32.37" rx="1.5" fill="#0ecb81" /><line x1="383.29" y1="297.51" x2="383.29" y2="324.61" stroke="#f6465d" stroke-width="1.4" /><rect x="380.29" y="300.40" width="6" height="17.63" rx="1.5" fill="#f6465d" /><line x1="394.03" y1="310.67" x2="394.03" y2="368.04" stroke="#f6465d" stroke-width="1.4" /><rect x="391.03" y="318.03" width="6" height="41.06" rx="1.5" fill="#f6465d" /><line x1="404.76" y1="339.35" x2="404.76" y2="373.83" stroke="#0ecb81" stroke-width="1.4" /><rect x="401.76" y="344.62" width="6" height="14.74" rx="1.5" fill="#0ecb81" /><line x1="415.49" y1="343.30" x2="415.49" y2="360.41" stroke="#f6465d" stroke-width="1.4" /><rect x="412.49" y="344.62" width="6" height="13.95" rx="1.5" fill="#f6465d" /><line x1="426.23" y1="354.36" x2="426.23" y2="384.36" stroke="#f6465d" stroke-width="1.4" /><rect x="423.23" y="358.57" width="6" height="10.26" rx="1.5" fill="#f6465d" /><line x1="436.96" y1="368.83" x2="436.96" y2="396.20" stroke="#f6465d" stroke-width="1.4" /><rect x="433.96" y="368.83" width="6" height="19.21" rx="1.5" fill="#f6465d" /><line x1="447.70" y1="378.83" x2="447.70" y2="404.10" stroke="#0ecb81" stroke-width="1.4" /><rect x="444.70" y="386.20" width="6" height="2.11" rx="1.5" fill="#0ecb81" /><line x1="458.43" y1="359.88" x2="458.43" y2="447.53" stroke="#f6465d" stroke-width="1.4" /><rect x="455.43" y="386.46" width="6" height="4.21" rx="1.5" fill="#f6465d" /><line x1="469.16" y1="319.09" x2="469.16" y2="392.52" stroke="#0ecb81" stroke-width="1.4" /><rect x="466.16" y="325.93" width="6" height="64.75" rx="1.5" fill="#0ecb81" /><line x1="479.90" y1="290.66" x2="479.90" y2="326.72" stroke="#0ecb81" stroke-width="1.4" /><rect x="476.90" y="295.14" width="6" height="30.53" rx="1.5" fill="#0ecb81" /><line x1="490.63" y1="289.08" x2="490.63" y2="333.30" stroke="#f6465d" stroke-width="1.4" /><rect x="487.63" y="295.40" width="6" height="22.90" rx="1.5" fill="#f6465d" /><line x1="501.37" y1="302.51" x2="501.37" y2="341.99" stroke="#f6465d" stroke-width="1.4" /><rect x="498.37" y="318.30" width="6" height="5.53" rx="1.5" fill="#f6465d" /><line x1="512.10" y1="317.77" x2="512.10" y2="366.20" stroke="#f6465d" stroke-width="1.4" /><rect x="509.10" y="324.09" width="6" height="28.42" rx="1.5" fill="#f6465d" /><line x1="522.84" y1="335.14" x2="522.84" y2="365.15" stroke="#f6465d" stroke-width="1.4" /><rect x="519.84" y="352.78" width="6" height="2.00" rx="1.5" fill="#f6465d" /><line x1="533.57" y1="304.61" x2="533.57" y2="362.25" stroke="#0ecb81" stroke-width="1.4" /><rect x="530.57" y="329.35" width="6" height="24.48" rx="1.5" fill="#0ecb81" /><line x1="544.30" y1="322.51" x2="544.30" y2="346.72" stroke="#f6465d" stroke-width="1.4" /><rect x="541.30" y="329.09" width="6" height="7.63" rx="1.5" fill="#f6465d" /><line x1="555.04" y1="335.93" x2="555.04" y2="387.78" stroke="#f6465d" stroke-width="1.4" /><rect x="552.04" y="336.46" width="6" height="29.21" rx="1.5" fill="#f6465d" /><line x1="565.77" y1="328.56" x2="565.77" y2="378.57" stroke="#f6465d" stroke-width="1.4" /><rect x="562.77" y="365.67" width="6" height="12.37" rx="1.5" fill="#f6465d" /><line x1="576.51" y1="310.93" x2="576.51" y2="378.31" stroke="#0ecb81" stroke-width="1.4" /><rect x="573.51" y="329.09" width="6" height="48.69" rx="1.5" fill="#0ecb81" /><line x1="587.24" y1="314.61" x2="587.24" y2="342.51" stroke="#0ecb81" stroke-width="1.4" /><rect x="584.24" y="321.98" width="6" height="7.37" rx="1.5" fill="#0ecb81" /><line x1="597.97" y1="308.56" x2="597.97" y2="339.35" stroke="#0ecb81" stroke-width="1.4" /><rect x="594.97" y="316.98" width="6" height="5.26" rx="1.5" fill="#0ecb81" /><line x1="608.71" y1="271.45" x2="608.71" y2="323.56" stroke="#0ecb81" stroke-width="1.4" /><rect x="605.71" y="286.71" width="6" height="30.27" rx="1.5" fill="#0ecb81" /><line x1="619.44" y1="281.45" x2="619.44" y2="313.56" stroke="#f6465d" stroke-width="1.4" /><rect x="616.44" y="286.71" width="6" height="11.84" rx="1.5" fill="#f6465d" /><line x1="630.18" y1="277.77" x2="630.18" y2="320.67" stroke="#0ecb81" stroke-width="1.4" /><rect x="627.18" y="287.50" width="6" height="11.32" rx="1.5" fill="#0ecb81" /><line x1="640.91" y1="256.45" x2="640.91" y2="308.30" stroke="#f6465d" stroke-width="1.4" /><rect x="637.91" y="287.50" width="6" height="9.74" rx="1.5" fill="#f6465d" /><line x1="651.65" y1="289.08" x2="651.65" y2="319.88" stroke="#f6465d" stroke-width="1.4" /><rect x="648.65" y="297.51" width="6" height="17.90" rx="1.5" fill="#f6465d" /><line x1="662.38" y1="296.72" x2="662.38" y2="399.62" stroke="#f6465d" stroke-width="1.4" /><rect x="659.38" y="315.40" width="6" height="73.96" rx="1.5" fill="#f6465d" /><line x1="673.11" y1="364.88" x2="673.11" y2="404.36" stroke="#0ecb81" stroke-width="1.4" /><rect x="670.11" y="373.57" width="6" height="15.79" rx="1.5" fill="#0ecb81" /><line x1="683.85" y1="373.57" x2="683.85" y2="414.63" stroke="#f6465d" stroke-width="1.4" /><rect x="680.85" y="373.57" width="6" height="35.53" rx="1.5" fill="#f6465d" /><line x1="694.58" y1="389.89" x2="694.58" y2="442.26" stroke="#f6465d" stroke-width="1.4" /><rect x="691.58" y="408.84" width="6" height="2.00" rx="1.5" fill="#f6465d" /><line x1="705.32" y1="381.20" x2="705.32" y2="417.52" stroke="#0ecb81" stroke-width="1.4" /><rect x="702.32" y="384.10" width="6" height="26.58" rx="1.5" fill="#0ecb81" /><line x1="716.05" y1="366.99" x2="716.05" y2="405.15" stroke="#f6465d" stroke-width="1.4" /><rect x="713.05" y="383.83" width="6" height="14.21" rx="1.5" fill="#f6465d" /><line x1="726.78" y1="371.73" x2="726.78" y2="404.36" stroke="#0ecb81" stroke-width="1.4" /><rect x="723.78" y="379.10" width="6" height="18.69" rx="1.5" fill="#0ecb81" /><line x1="737.52" y1="334.35" x2="737.52" y2="383.57" stroke="#0ecb81" stroke-width="1.4" /><rect x="734.52" y="349.09" width="6" height="30.27" rx="1.5" fill="#0ecb81" /><line x1="748.25" y1="330.14" x2="748.25" y2="351.46" stroke="#0ecb81" stroke-width="1.4" /><rect x="745.25" y="344.35" width="6" height="4.47" rx="1.5" fill="#0ecb81" /><line x1="758.99" y1="326.98" x2="758.99" y2="373.31" stroke="#f6465d" stroke-width="1.4" /><rect x="755.99" y="344.62" width="6" height="25.79" rx="1.5" fill="#f6465d" /><line x1="769.72" y1="353.83" x2="769.72" y2="383.04" stroke="#f6465d" stroke-width="1.4" /><rect x="766.72" y="370.67" width="6" height="2.00" rx="1.5" fill="#f6465d" /><line x1="780.46" y1="368.30" x2="780.46" y2="391.47" stroke="#f6465d" stroke-width="1.4" /><rect x="777.46" y="372.52" width="6" height="10.53" rx="1.5" fill="#f6465d" /><line x1="791.19" y1="381.99" x2="791.19" y2="399.62" stroke="#f6465d" stroke-width="1.4" /><rect x="788.19" y="383.04" width="6" height="14.21" rx="1.5" fill="#f6465d" /><line x1="801.92" y1="375.15" x2="801.92" y2="399.36" stroke="#0ecb81" stroke-width="1.4" /><rect x="798.92" y="386.20" width="6" height="11.05" rx="1.5" fill="#0ecb81" /><line x1="812.66" y1="385.94" x2="812.66" y2="409.89" stroke="#f6465d" stroke-width="1.4" /><rect x="809.66" y="385.94" width="6" height="8.69" rx="1.5" fill="#f6465d" /><line x1="823.39" y1="377.25" x2="823.39" y2="412.78" stroke="#0ecb81" stroke-width="1.4" /><rect x="820.39" y="386.73" width="6" height="7.90" rx="1.5" fill="#0ecb81" /><line x1="834.13" y1="364.09" x2="834.13" y2="399.89" stroke="#0ecb81" stroke-width="1.4" /><rect x="831.13" y="382.52" width="6" height="4.47" rx="1.5" fill="#0ecb81" /><line x1="844.86" y1="380.94" x2="844.86" y2="397.78" stroke="#f6465d" stroke-width="1.4" /><rect x="841.86" y="382.52" width="6" height="9.21" rx="1.5" fill="#f6465d" /><line x1="855.59" y1="389.89" x2="855.59" y2="411.73" stroke="#f6465d" stroke-width="1.4" /><rect x="852.59" y="391.47" width="6" height="14.74" rx="1.5" fill="#f6465d" /><line x1="866.33" y1="406.20" x2="866.33" y2="442.26" stroke="#f6465d" stroke-width="1.4" /><rect x="863.33" y="406.20" width="6" height="33.16" rx="1.5" fill="#f6465d" /><line x1="877.06" y1="419.36" x2="877.06" y2="441.74" stroke="#0ecb81" stroke-width="1.4" /><rect x="874.06" y="431.47" width="6" height="7.63" rx="1.5" fill="#0ecb81" /><line x1="887.80" y1="408.31" x2="887.80" y2="452.00" stroke="#0ecb81" stroke-width="1.4" /><rect x="884.80" y="428.05" width="6" height="3.68" rx="1.5" fill="#0ecb81" /><line x1="898.53" y1="422.26" x2="898.53" y2="442.00" stroke="#f6465d" stroke-width="1.4" /><rect x="895.53" y="428.05" width="6" height="7.37" rx="1.5" fill="#f6465d" /><line x1="909.27" y1="373.57" x2="909.27" y2="444.63" stroke="#0ecb81" stroke-width="1.4" /><rect x="906.27" y="373.83" width="6" height="61.32" rx="1.5" fill="#0ecb81" /><line x1="920.00" y1="316.46" x2="920.00" y2="373.57" stroke="#0ecb81" stroke-width="1.4" /><rect x="917.00" y="349.88" width="6" height="23.69" rx="1.5" fill="#0ecb81" />
  <polyline points="694.58,442.26 758.99,326.98 823.39,412.78 834.13,364.09 887.80,452.00" fill="none" stroke="#2fc273" stroke-width="4" stroke-linecap="round" stroke-linejoin="round" />
  <circle cx="694.58" cy="442.26" r="5.5" fill="#2fc273" fill-opacity="0.15" stroke="#2fc273" stroke-width="2" /><text x="694.58" y="430.26" fill="#f3f4f6" font-size="15" font-weight="700" text-anchor="middle">X</text><circle cx="758.99" cy="326.98" r="5.5" fill="#2fc273" fill-opacity="0.15" stroke="#2fc273" stroke-width="2" /><text x="758.99" y="314.98" fill="#f3f4f6" font-size="15" font-weight="700" text-anchor="middle">A</text><circle cx="823.39" cy="412.78" r="5.5" fill="#2fc273" fill-opacity="0.15" stroke="#2fc273" stroke-width="2" /><text x="823.39" y="400.78" fill="#f3f4f6" font-size="15" font-weight="700" text-anchor="middle">B</text><circle cx="834.13" cy="364.09" r="5.5" fill="#2fc273" fill-opacity="0.15" stroke="#2fc273" stroke-width="2" /><text x="834.13" y="352.09" fill="#f3f4f6" font-size="15" font-weight="700" text-anchor="middle">C</text><circle cx="887.80" cy="452.00" r="5.5" fill="#2fc273" fill-opacity="0.15" stroke="#2fc273" stroke-width="2" /><text x="887.80" y="440.00" fill="#f3f4f6" font-size="15" font-weight="700" text-anchor="middle">D</text>
  <text x="56" y="492" fill="#8ba0b5" font-size="18">일반 완성 · TP1 0.00614 · TP2 0.006218 · SL 0.005955</text>
</svg>
