<svg xmlns="http://www.w3.org/2000/svg" width="960" height="540" viewBox="0 0 960 540">
  <rect width="960" height="540" rx="24" fill="#0b1220" />
  <rect x="28" y="28" width="904" height="484" rx="22" fill="#111827" stroke="#1f2937" />
  <text x="56" y="74" fill="#f3f4f6" font-size="34" font-weight="700">PIPPINUSDT · AB=CD</text>
  <text x="904" y="74" fill="#8ba0b5" font-size="20" text-anchor="end">Bearish (매도) · Score 82.3</text>
  <line x1="72" y1="58" x2="920" y2="58" stroke="#223045" stroke-width="1" stroke-dasharray="4 8" /><line x1="72" y1="156" x2="920" y2="156" stroke="#223045" stroke-width="1" stroke-dasharray="4 8" /><line x1="72" y1="255" x2="920" y2="255" stroke="#223045" stroke-width="1" stroke-dasharray="4 8" /><line x1="72" y1="353" x2="920" y2="353" stroke="#223045" stroke-width="1" stroke-dasharray="4 8" /><line x1="72" y1="452" x2="920" y2="452" stroke="#223045" stroke-width="1" stroke-dasharray="4 8" />
  <rect x="323.09" y="154.61" width="84" height="44.31" fill="#fbbf24" fill-opacity="0.12" stroke="#fbbf24" stroke-width="1.5" stroke-dasharray="6 6" />
  <line x1="72.00" y1="75.95" x2="72.00" y2="196.07" stroke="#f6465d" stroke-width="1.4" /><rect x="69.00" y="82.27" width="6" height="87.77" rx="1.5" fill="#f6465d" /><line x1="82.73" y1="81.51" x2="82.73" y2="172.69" stroke="#0ecb81" stroke-width="1.4" /><rect x="79.73" y="91.43" width="6" height="78.55" rx="1.5" fill="#0ecb81" /><line x1="93.47" y1="62.74" x2="93.47" y2="101.98" stroke="#0ecb81" stroke-width="1.4" /><rect x="90.47" y="67.92" width="6" height="23.63" rx="1.5" fill="#0ecb81" /><line x1="104.20" y1="58.00" x2="104.20" y2="88.58" stroke="#f6465d" stroke-width="1.4" /><rect x="101.20" y="67.92" width="6" height="14.66" rx="1.5" fill="#f6465d" /><line x1="114.94" y1="76.77" x2="114.94" y2="103.12" stroke="#f6465d" stroke-width="1.4" /><rect x="111.94" y="82.58" width="6" height="2.00" rx="1.5" fill="#f6465d" /><line x1="125.67" y1="82.83" x2="125.67" y2="127.70" stroke="#f6465d" stroke-width="1.4" /><rect x="122.67" y="82.90" width="6" height="36.97" rx="1.5" fill="#f6465d" /><line x1="136.41" y1="109.88" x2="136.41" y2="127.32" stroke="#0ecb81" stroke-width="1.4" /><rect x="133.41" y="117.97" width="6" height="2.00" rx="1.5" fill="#0ecb81" /><line x1="147.14" y1="106.28" x2="147.14" y2="125.36" stroke="#0ecb81" stroke-width="1.4" /><rect x="144.14" y="109.06" width="6" height="8.91" rx="1.5" fill="#0ecb81" /><line x1="157.87" y1="105.71" x2="157.87" y2="140.53" stroke="#f6465d" stroke-width="1.4" /><rect x="154.87" y="109.06" width="6" height="19.40" rx="1.5" fill="#f6465d" /><line x1="168.61" y1="122.77" x2="168.61" y2="159.49" stroke="#f6465d" stroke-width="1.4" /><rect x="165.61" y="128.40" width="6" height="22.69" rx="1.5" fill="#f6465d" /><line x1="179.34" y1="139.14" x2="179.34" y2="160.43" stroke="#f6465d" stroke-width="1.4" /><rect x="176.34" y="151.08" width="6" height="3.41" rx="1.5" fill="#f6465d" /><line x1="190.08" y1="149.75" x2="190.08" y2="349.57" stroke="#f6465d" stroke-width="1.4" /><rect x="187.08" y="154.56" width="6" height="180.29" rx="1.5" fill="#f6465d" /><line x1="200.81" y1="280.62" x2="200.81" y2="356.71" stroke="#0ecb81" stroke-width="1.4" /><rect x="197.81" y="300.91" width="6" height="33.81" rx="1.5" fill="#0ecb81" /><line x1="211.54" y1="269.06" x2="211.54" y2="319.74" stroke="#0ecb81" stroke-width="1.4" /><rect x="208.54" y="284.29" width="6" height="16.62" rx="1.5" fill="#0ecb81" /><line x1="222.28" y1="243.97" x2="222.28" y2="299.39" stroke="#0ecb81" stroke-width="1.4" /><rect x="219.28" y="256.99" width="6" height="27.30" rx="1.5" fill="#0ecb81" /><line x1="233.01" y1="232.98" x2="233.01" y2="286.56" stroke="#0ecb81" stroke-width="1.4" /><rect x="230.01" y="250.92" width="6" height="6.07" rx="1.5" fill="#0ecb81" /><line x1="243.75" y1="238.41" x2="243.75" y2="277.59" stroke="#f6465d" stroke-width="1.4" /><rect x="240.75" y="250.99" width="6" height="5.06" rx="1.5" fill="#f6465d" /><line x1="254.48" y1="245.55" x2="254.48" y2="299.90" stroke="#f6465d" stroke-width="1.4" /><rect x="251.48" y="255.98" width="6" height="19.53" rx="1.5" fill="#f6465d" /><line x1="265.22" y1="268.11" x2="265.22" y2="293.77" stroke="#f6465d" stroke-width="1.4" /><rect x="262.22" y="275.51" width="6" height="3.22" rx="1.5" fill="#f6465d" /><line x1="275.95" y1="263.44" x2="275.95" y2="286.25" stroke="#f6465d" stroke-width="1.4" /><rect x="272.95" y="278.67" width="6" height="3.22" rx="1.5" fill="#f6465d" /><line x1="286.68" y1="278.03" x2="286.68" y2="304.83" stroke="#f6465d" stroke-width="1.4" /><rect x="283.68" y="281.89" width="6" height="20.98" rx="1.5" fill="#f6465d" /><line x1="297.42" y1="256.74" x2="297.42" y2="317.59" stroke="#0ecb81" stroke-width="1.4" /><rect x="294.42" y="269.88" width="6" height="32.99" rx="1.5" fill="#0ecb81" /><line x1="308.15" y1="265.27" x2="308.15" y2="297.94" stroke="#f6465d" stroke-width="1.4" /><rect x="305.15" y="269.94" width="6" height="6.89" rx="1.5" fill="#f6465d" /><line x1="318.89" y1="248.97" x2="318.89" y2="322.65" stroke="#f6465d" stroke-width="1.4" /><rect x="315.89" y="276.83" width="6" height="16.18" rx="1.5" fill="#f6465d" /><line x1="329.62" y1="273.10" x2="329.62" y2="303.63" stroke="#f6465d" stroke-width="1.4" /><rect x="326.62" y="292.95" width="6" height="2.40" rx="1.5" fill="#f6465d" /><line x1="340.35" y1="249.41" x2="340.35" y2="297.81" stroke="#0ecb81" stroke-width="1.4" /><rect x="337.35" y="261.67" width="6" height="33.68" rx="1.5" fill="#0ecb81" /><line x1="351.09" y1="247.83" x2="351.09" y2="284.79" stroke="#f6465d" stroke-width="1.4" /><rect x="348.09" y="261.67" width="6" height="20.79" rx="1.5" fill="#f6465d" /><line x1="361.82" y1="281.51" x2="361.82" y2="301.86" stroke="#f6465d" stroke-width="1.4" /><rect x="358.82" y="282.52" width="6" height="7.90" rx="1.5" fill="#f6465d" /><line x1="372.56" y1="273.93" x2="372.56" y2="299.08" stroke="#0ecb81" stroke-width="1.4" /><rect x="369.56" y="281.76" width="6" height="8.59" rx="1.5" fill="#0ecb81" /><line x1="383.29" y1="255.22" x2="383.29" y2="283.03" stroke="#f6465d" stroke-width="1.4" /><rect x="380.29" y="281.76" width="6" height="2.00" rx="1.5" fill="#f6465d" /><line x1="394.03" y1="267.48" x2="394.03" y2="295.85" stroke="#0ecb81" stroke-width="1.4" /><rect x="391.03" y="269.25" width="6" height="13.65" rx="1.5" fill="#0ecb81" /><line x1="404.76" y1="261.29" x2="404.76" y2="311.46" stroke="#f6465d" stroke-width="1.4" /><rect x="401.76" y="269.25" width="6" height="22.24" rx="1.5" fill="#f6465d" /><line x1="415.49" y1="275.25" x2="415.49" y2="295.73" stroke="#0ecb81" stroke-width="1.4" /><rect x="412.49" y="284.98" width="6" height="6.51" rx="1.5" fill="#0ecb81" /><line x1="426.23" y1="270.51" x2="426.23" y2="286.50" stroke="#0ecb81" stroke-width="1.4" /><rect x="423.23" y="272.41" width="6" height="12.51" rx="1.5" fill="#0ecb81" /><line x1="436.96" y1="270.58" x2="436.96" y2="295.03" stroke="#f6465d" stroke-width="1.4" /><rect x="433.96" y="272.41" width="6" height="14.53" rx="1.5" fill="#f6465d" /><line x1="447.70" y1="281.51" x2="447.70" y2="294.59" stroke="#f6465d" stroke-width="1.4" /><rect x="444.70" y="286.88" width="6" height="6.19" rx="1.5" fill="#f6465d" /><line x1="458.43" y1="282.14" x2="458.43" y2="296.61" stroke="#0ecb81" stroke-width="1.4" /><rect x="455.43" y="288.08" width="6" height="4.99" rx="1.5" fill="#0ecb81" /><line x1="469.16" y1="284.48" x2="469.16" y2="294.02" stroke="#0ecb81" stroke-width="1.4" /><rect x="466.16" y="286.31" width="6" height="2.00" rx="1.5" fill="#0ecb81" /><line x1="479.90" y1="279.42" x2="479.90" y2="302.61" stroke="#0ecb81" stroke-width="1.4" /><rect x="476.90" y="284.35" width="6" height="2.00" rx="1.5" fill="#0ecb81" /><line x1="490.63" y1="266.97" x2="490.63" y2="287.83" stroke="#0ecb81" stroke-width="1.4" /><rect x="487.63" y="278.67" width="6" height="5.62" rx="1.5" fill="#0ecb81" /><line x1="501.37" y1="275.38" x2="501.37" y2="284.42" stroke="#f6465d" stroke-width="1.4" /><rect x="498.37" y="278.67" width="6" height="2.00" rx="1.5" fill="#f6465d" /><line x1="512.10" y1="270.45" x2="512.10" y2="290.55" stroke="#f6465d" stroke-width="1.4" /><rect x="509.10" y="280.69" width="6" height="2.00" rx="1.5" fill="#f6465d" /><line x1="522.84" y1="273.23" x2="522.84" y2="284.29" stroke="#f6465d" stroke-width="1.4" /><rect x="519.84" y="281.89" width="6" height="2.00" rx="1.5" fill="#f6465d" /><line x1="533.57" y1="257.43" x2="533.57" y2="284.10" stroke="#0ecb81" stroke-width="1.4" /><rect x="530.57" y="259.64" width="6" height="24.20" rx="1.5" fill="#0ecb81" /><line x1="544.30" y1="210.61" x2="544.30" y2="298.32" stroke="#f6465d" stroke-width="1.4" /><rect x="541.30" y="259.71" width="6" height="17.69" rx="1.5" fill="#f6465d" /><line x1="555.04" y1="263.82" x2="555.04" y2="323.22" stroke="#f6465d" stroke-width="1.4" /><rect x="552.04" y="277.34" width="6" height="21.80" rx="1.5" fill="#f6465d" /><line x1="565.77" y1="287.01" x2="565.77" y2="311.08" stroke="#f6465d" stroke-width="1.4" /><rect x="562.77" y="299.01" width="6" height="7.27" rx="1.5" fill="#f6465d" /><line x1="576.51" y1="301.60" x2="576.51" y2="325.30" stroke="#f6465d" stroke-width="1.4" /><rect x="573.51" y="306.34" width="6" height="11.82" rx="1.5" fill="#f6465d" /><line x1="587.24" y1="300.91" x2="587.24" y2="322.01" stroke="#0ecb81" stroke-width="1.4" /><rect x="584.24" y="316.64" width="6" height="2.00" rx="1.5" fill="#0ecb81" /><line x1="597.97" y1="296.11" x2="597.97" y2="335.98" stroke="#0ecb81" stroke-width="1.4" /><rect x="594.97" y="298.13" width="6" height="18.52" rx="1.5" fill="#0ecb81" /><line x1="608.71" y1="267.61" x2="608.71" y2="307.42" stroke="#0ecb81" stroke-width="1.4" /><rect x="605.71" y="280.25" width="6" height="17.88" rx="1.5" fill="#0ecb81" /><line x1="619.44" y1="247.89" x2="619.44" y2="284.29" stroke="#0ecb81" stroke-width="1.4" /><rect x="616.44" y="250.17" width="6" height="30.08" rx="1.5" fill="#0ecb81" /><line x1="630.18" y1="139.64" x2="630.18" y2="265.02" stroke="#0ecb81" stroke-width="1.4" /><rect x="627.18" y="150.83" width="6" height="99.34" rx="1.5" fill="#0ecb81" /><line x1="640.91" y1="131.74" x2="640.91" y2="275.95" stroke="#f6465d" stroke-width="1.4" /><rect x="637.91" y="150.95" width="6" height="104.77" rx="1.5" fill="#f6465d" /><line x1="651.65" y1="237.97" x2="651.65" y2="268.87" stroke="#0ecb81" stroke-width="1.4" /><rect x="648.65" y="252.82" width="6" height="2.84" rx="1.5" fill="#0ecb81" /><line x1="662.38" y1="225.02" x2="662.38" y2="256.93" stroke="#0ecb81" stroke-width="1.4" /><rect x="659.38" y="230.96" width="6" height="21.93" rx="1.5" fill="#0ecb81" /><line x1="673.11" y1="227.61" x2="673.11" y2="266.60" stroke="#f6465d" stroke-width="1.4" /><rect x="670.11" y="230.96" width="6" height="2.53" rx="1.5" fill="#f6465d" /><line x1="683.85" y1="213.14" x2="683.85" y2="253.77" stroke="#0ecb81" stroke-width="1.4" /><rect x="680.85" y="231.59" width="6" height="2.00" rx="1.5" fill="#0ecb81" /><line x1="694.58" y1="193.36" x2="694.58" y2="243.59" stroke="#0ecb81" stroke-width="1.4" /><rect x="691.58" y="216.61" width="6" height="14.98" rx="1.5" fill="#0ecb81" /><line x1="705.32" y1="191.46" x2="705.32" y2="240.43" stroke="#f6465d" stroke-width="1.4" /><rect x="702.32" y="216.55" width="6" height="21.42" rx="1.5" fill="#f6465d" /><line x1="716.05" y1="214.90" x2="716.05" y2="251.18" stroke="#0ecb81" stroke-width="1.4" /><rect x="713.05" y="223.18" width="6" height="14.85" rx="1.5" fill="#0ecb81" /><line x1="726.78" y1="152.53" x2="726.78" y2="246.75" stroke="#f6465d" stroke-width="1.4" /><rect x="723.78" y="223.12" width="6" height="8.85" rx="1.5" fill="#f6465d" /><line x1="737.52" y1="231.33" x2="737.52" y2="296.55" stroke="#f6465d" stroke-width="1.4" /><rect x="734.52" y="232.09" width="6" height="41.14" rx="1.5" fill="#f6465d" /><line x1="748.25" y1="226.28" x2="748.25" y2="281.45" stroke="#0ecb81" stroke-width="1.4" /><rect x="745.25" y="257.31" width="6" height="15.99" rx="1.5" fill="#0ecb81" /><line x1="758.99" y1="256.99" x2="758.99" y2="419.27" stroke="#f6465d" stroke-width="1.4" /><rect x="755.99" y="257.31" width="6" height="132.32" rx="1.5" fill="#f6465d" /><line x1="769.72" y1="389.00" x2="769.72" y2="441.00" stroke="#f6465d" stroke-width="1.4" /><rect x="766.72" y="389.50" width="6" height="39.05" rx="1.5" fill="#f6465d" /><line x1="780.46" y1="421.23" x2="780.46" y2="452.00" stroke="#f6465d" stroke-width="1.4" /><rect x="777.46" y="428.49" width="6" height="14.03" rx="1.5" fill="#f6465d" /><line x1="791.19" y1="425.90" x2="791.19" y2="443.79" stroke="#0ecb81" stroke-width="1.4" /><rect x="788.19" y="435.57" width="6" height="6.89" rx="1.5" fill="#0ecb81" /><line x1="801.92" y1="384.07" x2="801.92" y2="436.20" stroke="#0ecb81" stroke-width="1.4" /><rect x="798.92" y="394.37" width="6" height="41.14" rx="1.5" fill="#0ecb81" /><line x1="812.66" y1="376.80" x2="812.66" y2="410.48" stroke="#0ecb81" stroke-width="1.4" /><rect x="809.66" y="385.33" width="6" height="9.04" rx="1.5" fill="#0ecb81" /><line x1="823.39" y1="340.09" x2="823.39" y2="399.36" stroke="#0ecb81" stroke-width="1.4" /><rect x="820.39" y="382.87" width="6" height="2.53" rx="1.5" fill="#0ecb81" /><line x1="834.13" y1="345.65" x2="834.13" y2="392.66" stroke="#0ecb81" stroke-width="1.4" /><rect x="831.13" y="353.48" width="6" height="29.38" rx="1.5" fill="#0ecb81" /><line x1="844.86" y1="346.91" x2="844.86" y2="368.65" stroke="#f6465d" stroke-width="1.4" /><rect x="841.86" y="353.61" width="6" height="8.03" rx="1.5" fill="#f6465d" /><line x1="855.59" y1="335.98" x2="855.59" y2="363.47" stroke="#0ecb81" stroke-width="1.4" /><rect x="852.59" y="343.50" width="6" height="18.14" rx="1.5" fill="#0ecb81" /><line x1="866.33" y1="321.13" x2="866.33" y2="348.81" stroke="#0ecb81" stroke-width="1.4" /><rect x="863.33" y="332.88" width="6" height="10.55" rx="1.5" fill="#0ecb81" /><line x1="877.06" y1="313.42" x2="877.06" y2="349.82" stroke="#f6465d" stroke-width="1.4" /><rect x="874.06" y="332.95" width="6" height="4.04" rx="1.5" fill="#f6465d" /><line x1="887.80" y1="324.86" x2="887.80" y2="356.58" stroke="#0ecb81" stroke-width="1.4" /><rect x="884.80" y="331.37" width="6" height="5.56" rx="1.5" fill="#0ecb81" /><line x1="898.53" y1="322.84" x2="898.53" y2="346.53" stroke="#f6465d" stroke-width="1.4" /><rect x="895.53" y="331.18" width="6" height="6.89" rx="1.5" fill="#f6465d" /><line x1="909.27" y1="329.98" x2="909.27" y2="341.79" stroke="#0ecb81" stroke-width="1.4" /><rect x="906.27" y="336.74" width="6" height="2.00" rx="1.5" fill="#0ecb81" /><line x1="920.00" y1="331.62" x2="920.00" y2="356.45" stroke="#f6465d" stroke-width="1.4" /><rect x="917.00" y="336.74" width="6" height="19.40" rx="1.5" fill="#f6465d" />
  <polyline points="104.20,58.00 200.81,356.71 233.01,232.98 318.89,322.65 351.09,247.83" fill="none" stroke="#2fc273" stroke-width="4" stroke-linecap="round" stroke-linejoin="round" />
  <circle cx="104.20" cy="58.00" r="5.5" fill="#2fc273" fill-opacity="0.15" stroke="#2fc273" stroke-width="2" /><text x="104.20" y="46.00" fill="#f3f4f6" font-size="15" font-weight="700" text-anchor="middle">X</text><circle cx="200.81" cy="356.71" r="5.5" fill="#2fc273" fill-opacity="0.15" stroke="#2fc273" stroke-width="2" /><text x="200.81" y="344.71" fill="#f3f4f6" font-size="15" font-weight="700" text-anchor="middle">A</text><circle cx="233.01" cy="232.98" r="5.5" fill="#2fc273" fill-opacity="0.15" stroke="#2fc273" stroke-width="2" /><text x="233.01" y="220.98" fill="#f3f4f6" font-size="15" font-weight="700" text-anchor="middle">B</text><circle cx="318.89" cy="322.65" r="5.5" fill="#2fc273" fill-opacity="0.15" stroke="#2fc273" stroke-width="2" /><text x="318.89" y="310.65" fill="#f3f4f6" font-size="15" font-weight="700" text-anchor="middle">C</text><circle cx="351.09" cy="247.83" r="5.5" fill="#2fc273" fill-opacity="0.15" stroke="#2fc273" stroke-width="2" /><text x="351.09" y="235.83" fill="#f3f4f6" font-size="15" font-weight="700" text-anchor="middle">D</text>
  <text x="56" y="492" fill="#8ba0b5" font-size="18">일반 완성 · TP1 0.054807 · TP2 0.052013 · SL 0.065475</text>
</svg>
