<svg xmlns="http://www.w3.org/2000/svg" width="960" height="540" viewBox="0 0 960 540">
  <rect width="960" height="540" rx="24" fill="#0b1220" />
  <rect x="28" y="28" width="904" height="484" rx="22" fill="#111827" stroke="#1f2937" />
  <text x="56" y="74" fill="#f3f4f6" font-size="34" font-weight="700">POWERUSDT · AB=CD</text>
  <text x="904" y="74" fill="#8ba0b5" font-size="20" text-anchor="end">Bearish (매도) · Score 79.2</text>
  <line x1="72" y1="58" x2="920" y2="58" stroke="#223045" stroke-width="1" stroke-dasharray="4 8" /><line x1="72" y1="156" x2="920" y2="156" stroke="#223045" stroke-width="1" stroke-dasharray="4 8" /><line x1="72" y1="255" x2="920" y2="255" stroke="#223045" stroke-width="1" stroke-dasharray="4 8" /><line x1="72" y1="353" x2="920" y2="353" stroke="#223045" stroke-width="1" stroke-dasharray="4 8" /><line x1="72" y1="452" x2="920" y2="452" stroke="#223045" stroke-width="1" stroke-dasharray="4 8" />
  <rect x="773.92" y="221.16" width="84" height="89.68" fill="#fbbf24" fill-opacity="0.12" stroke="#fbbf24" stroke-width="1.5" stroke-dasharray="6 6" />
  <line x1="72.00" y1="91.43" x2="72.00" y2="140.92" stroke="#f6465d" stroke-width="1.4" /><rect x="69.00" y="103.25" width="6" height="9.63" rx="1.5" fill="#f6465d" /><line x1="82.73" y1="101.79" x2="82.73" y2="124.27" stroke="#f6465d" stroke-width="1.4" /><rect x="79.73" y="113.03" width="6" height="7.44" rx="1.5" fill="#f6465d" /><line x1="93.47" y1="93.18" x2="93.47" y2="125.44" stroke="#0ecb81" stroke-width="1.4" /><rect x="90.47" y="106.61" width="6" height="14.01" rx="1.5" fill="#0ecb81" /><line x1="104.20" y1="63.99" x2="104.20" y2="115.66" stroke="#0ecb81" stroke-width="1.4" /><rect x="101.20" y="82.38" width="6" height="24.23" rx="1.5" fill="#0ecb81" /><line x1="114.94" y1="64.57" x2="114.94" y2="118.58" stroke="#f6465d" stroke-width="1.4" /><rect x="111.94" y="82.52" width="6" height="3.50" rx="1.5" fill="#f6465d" /><line x1="125.67" y1="58.00" x2="125.67" y2="105.59" stroke="#0ecb81" stroke-width="1.4" /><rect x="122.67" y="73.77" width="6" height="11.97" rx="1.5" fill="#0ecb81" /><line x1="136.41" y1="70.99" x2="136.41" y2="109.97" stroke="#f6465d" stroke-width="1.4" /><rect x="133.41" y="73.62" width="6" height="27.01" rx="1.5" fill="#f6465d" /><line x1="147.14" y1="68.80" x2="147.14" y2="104.42" stroke="#0ecb81" stroke-width="1.4" /><rect x="144.14" y="88.36" width="6" height="12.26" rx="1.5" fill="#0ecb81" /><line x1="157.87" y1="81.79" x2="157.87" y2="109.53" stroke="#f6465d" stroke-width="1.4" /><rect x="154.87" y="88.22" width="6" height="9.93" rx="1.5" fill="#f6465d" /><line x1="168.61" y1="89.97" x2="168.61" y2="137.56" stroke="#f6465d" stroke-width="1.4" /><rect x="165.61" y="98.14" width="6" height="34.74" rx="1.5" fill="#f6465d" /><line x1="179.34" y1="114.64" x2="179.34" y2="157.85" stroke="#0ecb81" stroke-width="1.4" /><rect x="176.34" y="115.22" width="6" height="17.52" rx="1.5" fill="#0ecb81" /><line x1="190.08" y1="114.06" x2="190.08" y2="144.27" stroke="#f6465d" stroke-width="1.4" /><rect x="187.08" y="115.37" width="6" height="3.50" rx="1.5" fill="#f6465d" /><line x1="200.81" y1="112.60" x2="200.81" y2="168.94" stroke="#f6465d" stroke-width="1.4" /><rect x="197.81" y="118.87" width="6" height="38.68" rx="1.5" fill="#f6465d" /><line x1="211.54" y1="141.94" x2="211.54" y2="168.21" stroke="#0ecb81" stroke-width="1.4" /><rect x="208.54" y="153.62" width="6" height="3.50" rx="1.5" fill="#0ecb81" /><line x1="222.28" y1="142.81" x2="222.28" y2="169.38" stroke="#f6465d" stroke-width="1.4" /><rect x="219.28" y="153.62" width="6" height="4.67" rx="1.5" fill="#f6465d" /><line x1="233.01" y1="130.84" x2="233.01" y2="164.71" stroke="#f6465d" stroke-width="1.4" /><rect x="230.01" y="158.14" width="6" height="3.94" rx="1.5" fill="#f6465d" /><line x1="243.75" y1="141.35" x2="243.75" y2="321.20" stroke="#f6465d" stroke-width="1.4" /><rect x="240.75" y="162.23" width="6" height="129.92" rx="1.5" fill="#f6465d" /><line x1="254.48" y1="254.20" x2="254.48" y2="315.22" stroke="#0ecb81" stroke-width="1.4" /><rect x="251.48" y="263.98" width="6" height="28.03" rx="1.5" fill="#0ecb81" /><line x1="265.22" y1="219.02" x2="265.22" y2="266.46" stroke="#0ecb81" stroke-width="1.4" /><rect x="262.22" y="251.86" width="6" height="12.12" rx="1.5" fill="#0ecb81" /><line x1="275.95" y1="245.00" x2="275.95" y2="316.68" stroke="#f6465d" stroke-width="1.4" /><rect x="272.95" y="251.72" width="6" height="36.35" rx="1.5" fill="#f6465d" /><line x1="286.68" y1="256.09" x2="286.68" y2="292.44" stroke="#0ecb81" stroke-width="1.4" /><rect x="283.68" y="265.88" width="6" height="22.63" rx="1.5" fill="#0ecb81" /><line x1="297.42" y1="260.18" x2="297.42" y2="298.28" stroke="#f6465d" stroke-width="1.4" /><rect x="294.42" y="266.17" width="6" height="12.26" rx="1.5" fill="#f6465d" /><line x1="308.15" y1="255.36" x2="308.15" y2="278.43" stroke="#0ecb81" stroke-width="1.4" /><rect x="305.15" y="261.50" width="6" height="16.93" rx="1.5" fill="#0ecb81" /><line x1="318.89" y1="246.31" x2="318.89" y2="288.79" stroke="#0ecb81" stroke-width="1.4" /><rect x="315.89" y="253.61" width="6" height="7.88" rx="1.5" fill="#0ecb81" /><line x1="329.62" y1="249.38" x2="329.62" y2="291.71" stroke="#f6465d" stroke-width="1.4" /><rect x="326.62" y="253.47" width="6" height="29.34" rx="1.5" fill="#f6465d" /><line x1="340.35" y1="280.18" x2="340.35" y2="357.40" stroke="#f6465d" stroke-width="1.4" /><rect x="337.35" y="282.81" width="6" height="43.65" rx="1.5" fill="#f6465d" /><line x1="351.09" y1="319.89" x2="351.09" y2="365.43" stroke="#f6465d" stroke-width="1.4" /><rect x="348.09" y="326.46" width="6" height="20.58" rx="1.5" fill="#f6465d" /><line x1="361.82" y1="334.49" x2="361.82" y2="377.70" stroke="#f6465d" stroke-width="1.4" /><rect x="358.82" y="346.89" width="6" height="12.85" rx="1.5" fill="#f6465d" /><line x1="372.56" y1="328.35" x2="372.56" y2="397.99" stroke="#0ecb81" stroke-width="1.4" /><rect x="369.56" y="339.30" width="6" height="20.29" rx="1.5" fill="#0ecb81" /><line x1="383.29" y1="325.29" x2="383.29" y2="367.04" stroke="#f6465d" stroke-width="1.4" /><rect x="380.29" y="339.45" width="6" height="2.04" rx="1.5" fill="#f6465d" /><line x1="394.03" y1="336.38" x2="394.03" y2="365.58" stroke="#f6465d" stroke-width="1.4" /><rect x="391.03" y="341.49" width="6" height="8.61" rx="1.5" fill="#f6465d" /><line x1="404.76" y1="339.89" x2="404.76" y2="373.02" stroke="#f6465d" stroke-width="1.4" /><rect x="401.76" y="350.11" width="6" height="9.63" rx="1.5" fill="#f6465d" /><line x1="415.49" y1="338.87" x2="415.49" y2="361.49" stroke="#0ecb81" stroke-width="1.4" /><rect x="412.49" y="350.54" width="6" height="9.20" rx="1.5" fill="#0ecb81" /><line x1="426.23" y1="343.68" x2="426.23" y2="373.02" stroke="#0ecb81" stroke-width="1.4" /><rect x="423.23" y="350.54" width="6" height="2.00" rx="1.5" fill="#0ecb81" /><line x1="436.96" y1="286.90" x2="436.96" y2="351.71" stroke="#0ecb81" stroke-width="1.4" /><rect x="433.96" y="314.49" width="6" height="36.06" rx="1.5" fill="#0ecb81" /><line x1="447.70" y1="293.76" x2="447.70" y2="344.41" stroke="#f6465d" stroke-width="1.4" /><rect x="444.70" y="314.49" width="6" height="2.00" rx="1.5" fill="#f6465d" /><line x1="458.43" y1="298.14" x2="458.43" y2="337.55" stroke="#0ecb81" stroke-width="1.4" /><rect x="455.43" y="312.59" width="6" height="2.34" rx="1.5" fill="#0ecb81" /><line x1="469.16" y1="292.01" x2="469.16" y2="322.95" stroke="#f6465d" stroke-width="1.4" /><rect x="466.16" y="312.44" width="6" height="2.19" rx="1.5" fill="#f6465d" /><line x1="479.90" y1="313.17" x2="479.90" y2="340.18" stroke="#f6465d" stroke-width="1.4" /><rect x="476.90" y="314.63" width="6" height="15.77" rx="1.5" fill="#f6465d" /><line x1="490.63" y1="296.24" x2="490.63" y2="337.41" stroke="#0ecb81" stroke-width="1.4" /><rect x="487.63" y="304.41" width="6" height="25.69" rx="1.5" fill="#0ecb81" /><line x1="501.37" y1="269.38" x2="501.37" y2="304.27" stroke="#0ecb81" stroke-width="1.4" /><rect x="498.37" y="271.86" width="6" height="32.41" rx="1.5" fill="#0ecb81" /><line x1="512.10" y1="238.29" x2="512.10" y2="292.88" stroke="#f6465d" stroke-width="1.4" /><rect x="509.10" y="271.86" width="6" height="3.07" rx="1.5" fill="#f6465d" /><line x1="522.84" y1="244.42" x2="522.84" y2="302.08" stroke="#f6465d" stroke-width="1.4" /><rect x="519.84" y="275.36" width="6" height="9.78" rx="1.5" fill="#f6465d" /><line x1="533.57" y1="275.36" x2="533.57" y2="310.84" stroke="#f6465d" stroke-width="1.4" /><rect x="530.57" y="285.00" width="6" height="15.47" rx="1.5" fill="#f6465d" /><line x1="544.30" y1="283.25" x2="544.30" y2="311.71" stroke="#f6465d" stroke-width="1.4" /><rect x="541.30" y="300.33" width="6" height="10.66" rx="1.5" fill="#f6465d" /><line x1="555.04" y1="290.55" x2="555.04" y2="315.36" stroke="#f6465d" stroke-width="1.4" /><rect x="552.04" y="310.98" width="6" height="2.19" rx="1.5" fill="#f6465d" /><line x1="565.77" y1="304.85" x2="565.77" y2="343.10" stroke="#f6465d" stroke-width="1.4" /><rect x="562.77" y="313.03" width="6" height="23.36" rx="1.5" fill="#f6465d" /><line x1="576.51" y1="331.27" x2="576.51" y2="447.04" stroke="#f6465d" stroke-width="1.4" /><rect x="573.51" y="336.53" width="6" height="78.10" rx="1.5" fill="#f6465d" /><line x1="587.24" y1="385.73" x2="587.24" y2="423.39" stroke="#0ecb81" stroke-width="1.4" /><rect x="584.24" y="396.38" width="6" height="18.10" rx="1.5" fill="#0ecb81" /><line x1="597.97" y1="395.36" x2="597.97" y2="422.22" stroke="#f6465d" stroke-width="1.4" /><rect x="594.97" y="396.38" width="6" height="19.85" rx="1.5" fill="#f6465d" /><line x1="608.71" y1="411.86" x2="608.71" y2="452.00" stroke="#f6465d" stroke-width="1.4" /><rect x="605.71" y="416.23" width="6" height="23.21" rx="1.5" fill="#f6465d" /><line x1="619.44" y1="378.28" x2="619.44" y2="450.39" stroke="#0ecb81" stroke-width="1.4" /><rect x="616.44" y="391.13" width="6" height="48.32" rx="1.5" fill="#0ecb81" /><line x1="630.18" y1="374.19" x2="630.18" y2="401.78" stroke="#0ecb81" stroke-width="1.4" /><rect x="627.18" y="380.32" width="6" height="10.95" rx="1.5" fill="#0ecb81" /><line x1="640.91" y1="339.89" x2="640.91" y2="403.10" stroke="#f6465d" stroke-width="1.4" /><rect x="637.91" y="380.47" width="6" height="10.66" rx="1.5" fill="#f6465d" /><line x1="651.65" y1="378.43" x2="651.65" y2="423.10" stroke="#0ecb81" stroke-width="1.4" /><rect x="648.65" y="387.77" width="6" height="3.21" rx="1.5" fill="#0ecb81" /><line x1="662.38" y1="382.81" x2="662.38" y2="444.85" stroke="#f6465d" stroke-width="1.4" /><rect x="659.38" y="387.77" width="6" height="33.28" rx="1.5" fill="#f6465d" /><line x1="673.11" y1="337.55" x2="673.11" y2="427.48" stroke="#0ecb81" stroke-width="1.4" /><rect x="670.11" y="385.58" width="6" height="35.47" rx="1.5" fill="#0ecb81" /><line x1="683.85" y1="323.10" x2="683.85" y2="399.30" stroke="#0ecb81" stroke-width="1.4" /><rect x="680.85" y="363.24" width="6" height="22.19" rx="1.5" fill="#0ecb81" /><line x1="694.58" y1="347.19" x2="694.58" y2="385.00" stroke="#0ecb81" stroke-width="1.4" /><rect x="691.58" y="352.15" width="6" height="10.95" rx="1.5" fill="#0ecb81" /><line x1="705.32" y1="348.35" x2="705.32" y2="439.74" stroke="#f6465d" stroke-width="1.4" /><rect x="702.32" y="351.86" width="6" height="57.95" rx="1.5" fill="#f6465d" /><line x1="716.05" y1="398.43" x2="716.05" y2="425.58" stroke="#f6465d" stroke-width="1.4" /><rect x="713.05" y="409.81" width="6" height="7.01" rx="1.5" fill="#f6465d" /><line x1="726.78" y1="370.98" x2="726.78" y2="429.37" stroke="#0ecb81" stroke-width="1.4" /><rect x="723.78" y="375.51" width="6" height="41.46" rx="1.5" fill="#0ecb81" /><line x1="737.52" y1="346.02" x2="737.52" y2="398.13" stroke="#f6465d" stroke-width="1.4" /><rect x="734.52" y="375.51" width="6" height="16.93" rx="1.5" fill="#f6465d" /><line x1="748.25" y1="370.69" x2="748.25" y2="397.40" stroke="#0ecb81" stroke-width="1.4" /><rect x="745.25" y="373.90" width="6" height="18.25" rx="1.5" fill="#0ecb81" /><line x1="758.99" y1="370.11" x2="758.99" y2="400.32" stroke="#f6465d" stroke-width="1.4" /><rect x="755.99" y="374.05" width="6" height="20.44" rx="1.5" fill="#f6465d" /><line x1="769.72" y1="355.36" x2="769.72" y2="396.38" stroke="#0ecb81" stroke-width="1.4" /><rect x="766.72" y="358.57" width="6" height="35.77" rx="1.5" fill="#0ecb81" /><line x1="780.46" y1="340.76" x2="780.46" y2="370.11" stroke="#0ecb81" stroke-width="1.4" /><rect x="777.46" y="351.27" width="6" height="7.15" rx="1.5" fill="#0ecb81" /><line x1="791.19" y1="323.39" x2="791.19" y2="360.32" stroke="#0ecb81" stroke-width="1.4" /><rect x="788.19" y="338.28" width="6" height="12.99" rx="1.5" fill="#0ecb81" /><line x1="801.92" y1="275.66" x2="801.92" y2="348.65" stroke="#0ecb81" stroke-width="1.4" /><rect x="798.92" y="303.68" width="6" height="34.74" rx="1.5" fill="#0ecb81" /><line x1="812.66" y1="279.16" x2="812.66" y2="355.07" stroke="#f6465d" stroke-width="1.4" /><rect x="809.66" y="303.68" width="6" height="22.19" rx="1.5" fill="#f6465d" /><line x1="823.39" y1="289.67" x2="823.39" y2="348.94" stroke="#0ecb81" stroke-width="1.4" /><rect x="820.39" y="303.39" width="6" height="22.48" rx="1.5" fill="#0ecb81" /><line x1="834.13" y1="294.49" x2="834.13" y2="333.03" stroke="#f6465d" stroke-width="1.4" /><rect x="831.13" y="303.54" width="6" height="12.26" rx="1.5" fill="#f6465d" /><line x1="844.86" y1="246.61" x2="844.86" y2="316.97" stroke="#0ecb81" stroke-width="1.4" /><rect x="841.86" y="248.07" width="6" height="67.73" rx="1.5" fill="#0ecb81" /><line x1="855.59" y1="198.14" x2="855.59" y2="293.76" stroke="#f6465d" stroke-width="1.4" /><rect x="852.59" y="247.77" width="6" height="19.56" rx="1.5" fill="#f6465d" /><line x1="866.33" y1="187.05" x2="866.33" y2="285.00" stroke="#0ecb81" stroke-width="1.4" /><rect x="863.33" y="212.74" width="6" height="54.45" rx="1.5" fill="#0ecb81" /><line x1="877.06" y1="176.97" x2="877.06" y2="234.20" stroke="#0ecb81" stroke-width="1.4" /><rect x="874.06" y="189.38" width="6" height="23.21" rx="1.5" fill="#0ecb81" /><line x1="887.80" y1="88.80" x2="887.80" y2="195.81" stroke="#0ecb81" stroke-width="1.4" /><rect x="884.80" y="106.76" width="6" height="82.62" rx="1.5" fill="#0ecb81" /><line x1="898.53" y1="72.74" x2="898.53" y2="146.32" stroke="#0ecb81" stroke-width="1.4" /><rect x="895.53" y="106.32" width="6" height="2.00" rx="1.5" fill="#0ecb81" /><line x1="909.27" y1="82.38" x2="909.27" y2="264.56" stroke="#f6465d" stroke-width="1.4" /><rect x="906.27" y="106.32" width="6" height="127.59" rx="1.5" fill="#f6465d" /><line x1="920.00" y1="221.21" x2="920.00" y2="256.53" stroke="#f6465d" stroke-width="1.4" /><rect x="917.00" y="234.05" width="6" height="17.23" rx="1.5" fill="#f6465d" />
  <polyline points="512.10,238.29 608.71,452.00 683.85,323.10 705.32,439.74 801.92,275.66" fill="none" stroke="#2fc273" stroke-width="4" stroke-linecap="round" stroke-linejoin="round" />
  <circle cx="512.10" cy="238.29" r="5.5" fill="#2fc273" fill-opacity="0.15" stroke="#2fc273" stroke-width="2" /><text x="512.10" y="226.29" fill="#f3f4f6" font-size="15" font-weight="700" text-anchor="middle">X</text><circle cx="608.71" cy="452.00" r="5.5" fill="#2fc273" fill-opacity="0.15" stroke="#2fc273" stroke-width="2" /><text x="608.71" y="440.00" fill="#f3f4f6" font-size="15" font-weight="700" text-anchor="middle">A</text><circle cx="683.85" cy="323.10" r="5.5" fill="#2fc273" fill-opacity="0.15" stroke="#2fc273" stroke-width="2" /><text x="683.85" y="311.10" fill="#f3f4f6" font-size="15" font-weight="700" text-anchor="middle">B</text><circle cx="705.32" cy="439.74" r="5.5" fill="#2fc273" fill-opacity="0.15" stroke="#2fc273" stroke-width="2" /><text x="705.32" y="427.74" fill="#f3f4f6" font-size="15" font-weight="700" text-anchor="middle">C</text><circle cx="801.92" cy="275.66" r="5.5" fill="#2fc273" fill-opacity="0.15" stroke="#2fc273" stroke-width="2" /><text x="801.92" y="263.66" fill="#f3f4f6" font-size="15" font-weight="700" text-anchor="middle">D</text>
  <text x="56" y="492" fill="#8ba0b5" font-size="18">실시간 터치 · TP1 0.079946 · TP2 0.077294 · SL 0.086143</text>
</svg>
