<svg xmlns="http://www.w3.org/2000/svg" width="960" height="540" viewBox="0 0 960 540">
  <rect width="960" height="540" rx="24" fill="#0b1220" />
  <rect x="28" y="28" width="904" height="484" rx="22" fill="#111827" stroke="#1f2937" />
  <text x="56" y="74" fill="#f3f4f6" font-size="34" font-weight="700">PROMUSDT · AB=CD</text>
  <text x="904" y="74" fill="#8ba0b5" font-size="20" text-anchor="end">Bearish (매도) · Score 77.1</text>
  <line x1="72" y1="58" x2="920" y2="58" stroke="#223045" stroke-width="1" stroke-dasharray="4 8" /><line x1="72" y1="156" x2="920" y2="156" stroke="#223045" stroke-width="1" stroke-dasharray="4 8" /><line x1="72" y1="255" x2="920" y2="255" stroke="#223045" stroke-width="1" stroke-dasharray="4 8" /><line x1="72" y1="353" x2="920" y2="353" stroke="#223045" stroke-width="1" stroke-dasharray="4 8" /><line x1="72" y1="452" x2="920" y2="452" stroke="#223045" stroke-width="1" stroke-dasharray="4 8" />
  <rect x="559.24" y="385.94" width="84" height="9.77" fill="#fbbf24" fill-opacity="0.12" stroke="#fbbf24" stroke-width="1.5" stroke-dasharray="6 6" />
  <line x1="72.00" y1="439.64" x2="72.00" y2="452.00" stroke="#f6465d" stroke-width="1.4" /><rect x="69.00" y="440.47" width="6" height="4.12" rx="1.5" fill="#f6465d" /><line x1="82.73" y1="443.21" x2="82.73" y2="451.45" stroke="#f6465d" stroke-width="1.4" /><rect x="79.73" y="444.59" width="6" height="3.84" rx="1.5" fill="#f6465d" /><line x1="93.47" y1="434.15" x2="93.47" y2="448.71" stroke="#0ecb81" stroke-width="1.4" /><rect x="90.47" y="439.37" width="6" height="9.34" rx="1.5" fill="#0ecb81" /><line x1="104.20" y1="429.21" x2="104.20" y2="439.64" stroke="#0ecb81" stroke-width="1.4" /><rect x="101.20" y="436.62" width="6" height="2.75" rx="1.5" fill="#0ecb81" /><line x1="114.94" y1="431.96" x2="114.94" y2="441.29" stroke="#f6465d" stroke-width="1.4" /><rect x="111.94" y="436.62" width="6" height="2.00" rx="1.5" fill="#f6465d" /><line x1="125.67" y1="425.92" x2="125.67" y2="439.92" stroke="#0ecb81" stroke-width="1.4" /><rect x="122.67" y="431.68" width="6" height="5.77" rx="1.5" fill="#0ecb81" /><line x1="136.41" y1="429.49" x2="136.41" y2="438.82" stroke="#f6465d" stroke-width="1.4" /><rect x="133.41" y="431.68" width="6" height="5.49" rx="1.5" fill="#f6465d" /><line x1="147.14" y1="436.35" x2="147.14" y2="442.94" stroke="#f6465d" stroke-width="1.4" /><rect x="144.14" y="437.45" width="6" height="2.75" rx="1.5" fill="#f6465d" /><line x1="157.87" y1="435.80" x2="157.87" y2="440.47" stroke="#0ecb81" stroke-width="1.4" /><rect x="154.87" y="437.72" width="6" height="2.47" rx="1.5" fill="#0ecb81" /><line x1="168.61" y1="436.62" x2="168.61" y2="439.92" stroke="#f6465d" stroke-width="1.4" /><rect x="165.61" y="438.00" width="6" height="2.00" rx="1.5" fill="#f6465d" /><line x1="179.34" y1="422.90" x2="179.34" y2="439.92" stroke="#0ecb81" stroke-width="1.4" /><rect x="176.34" y="424.54" width="6" height="15.10" rx="1.5" fill="#0ecb81" /><line x1="190.08" y1="410.54" x2="190.08" y2="424.82" stroke="#0ecb81" stroke-width="1.4" /><rect x="187.08" y="415.48" width="6" height="9.06" rx="1.5" fill="#0ecb81" /><line x1="200.81" y1="411.64" x2="200.81" y2="424.27" stroke="#f6465d" stroke-width="1.4" /><rect x="197.81" y="415.76" width="6" height="5.49" rx="1.5" fill="#f6465d" /><line x1="211.54" y1="418.23" x2="211.54" y2="428.39" stroke="#f6465d" stroke-width="1.4" /><rect x="208.54" y="421.25" width="6" height="2.00" rx="1.5" fill="#f6465d" /><line x1="222.28" y1="415.21" x2="222.28" y2="422.62" stroke="#0ecb81" stroke-width="1.4" /><rect x="219.28" y="415.76" width="6" height="6.04" rx="1.5" fill="#0ecb81" /><line x1="233.01" y1="415.76" x2="233.01" y2="421.25" stroke="#f6465d" stroke-width="1.4" /><rect x="230.01" y="416.03" width="6" height="2.00" rx="1.5" fill="#f6465d" /><line x1="243.75" y1="416.58" x2="243.75" y2="425.09" stroke="#f6465d" stroke-width="1.4" /><rect x="240.75" y="417.68" width="6" height="3.29" rx="1.5" fill="#f6465d" /><line x1="254.48" y1="416.03" x2="254.48" y2="423.99" stroke="#0ecb81" stroke-width="1.4" /><rect x="251.48" y="418.23" width="6" height="3.02" rx="1.5" fill="#0ecb81" /><line x1="265.22" y1="410.54" x2="265.22" y2="420.43" stroke="#0ecb81" stroke-width="1.4" /><rect x="262.22" y="416.58" width="6" height="2.00" rx="1.5" fill="#0ecb81" /><line x1="275.95" y1="409.44" x2="275.95" y2="416.86" stroke="#0ecb81" stroke-width="1.4" /><rect x="272.95" y="410.82" width="6" height="5.49" rx="1.5" fill="#0ecb81" /><line x1="286.68" y1="404.23" x2="286.68" y2="411.36" stroke="#0ecb81" stroke-width="1.4" /><rect x="283.68" y="407.25" width="6" height="3.84" rx="1.5" fill="#0ecb81" /><line x1="297.42" y1="404.50" x2="297.42" y2="414.11" stroke="#f6465d" stroke-width="1.4" /><rect x="294.42" y="407.25" width="6" height="5.22" rx="1.5" fill="#f6465d" /><line x1="308.15" y1="408.07" x2="308.15" y2="417.40" stroke="#f6465d" stroke-width="1.4" /><rect x="305.15" y="412.46" width="6" height="2.00" rx="1.5" fill="#f6465d" /><line x1="318.89" y1="411.36" x2="318.89" y2="419.05" stroke="#f6465d" stroke-width="1.4" /><rect x="315.89" y="414.38" width="6" height="2.00" rx="1.5" fill="#f6465d" /><line x1="329.62" y1="404.77" x2="329.62" y2="415.76" stroke="#0ecb81" stroke-width="1.4" /><rect x="326.62" y="410.27" width="6" height="5.22" rx="1.5" fill="#0ecb81" /><line x1="340.35" y1="406.70" x2="340.35" y2="413.56" stroke="#0ecb81" stroke-width="1.4" /><rect x="337.35" y="409.44" width="6" height="2.00" rx="1.5" fill="#0ecb81" /><line x1="351.09" y1="403.13" x2="351.09" y2="409.72" stroke="#0ecb81" stroke-width="1.4" /><rect x="348.09" y="403.13" width="6" height="6.31" rx="1.5" fill="#0ecb81" /><line x1="361.82" y1="393.79" x2="361.82" y2="405.87" stroke="#0ecb81" stroke-width="1.4" /><rect x="358.82" y="400.11" width="6" height="3.29" rx="1.5" fill="#0ecb81" /><line x1="372.56" y1="398.19" x2="372.56" y2="413.01" stroke="#f6465d" stroke-width="1.4" /><rect x="369.56" y="400.38" width="6" height="7.41" rx="1.5" fill="#f6465d" /><line x1="383.29" y1="389.40" x2="383.29" y2="410.27" stroke="#0ecb81" stroke-width="1.4" /><rect x="380.29" y="405.87" width="6" height="2.20" rx="1.5" fill="#0ecb81" /><line x1="394.03" y1="390.77" x2="394.03" y2="421.25" stroke="#f6465d" stroke-width="1.4" /><rect x="391.03" y="406.15" width="6" height="14.00" rx="1.5" fill="#f6465d" /><line x1="404.76" y1="419.05" x2="404.76" y2="432.78" stroke="#f6465d" stroke-width="1.4" /><rect x="401.76" y="420.15" width="6" height="2.00" rx="1.5" fill="#f6465d" /><line x1="415.49" y1="421.80" x2="415.49" y2="431.13" stroke="#f6465d" stroke-width="1.4" /><rect x="412.49" y="422.07" width="6" height="6.86" rx="1.5" fill="#f6465d" /><line x1="426.23" y1="423.99" x2="426.23" y2="431.41" stroke="#0ecb81" stroke-width="1.4" /><rect x="423.23" y="426.74" width="6" height="2.20" rx="1.5" fill="#0ecb81" /><line x1="436.96" y1="421.25" x2="436.96" y2="431.96" stroke="#f6465d" stroke-width="1.4" /><rect x="433.96" y="426.47" width="6" height="2.00" rx="1.5" fill="#f6465d" /><line x1="447.70" y1="424.82" x2="447.70" y2="429.21" stroke="#0ecb81" stroke-width="1.4" /><rect x="444.70" y="426.47" width="6" height="2.00" rx="1.5" fill="#0ecb81" /><line x1="458.43" y1="416.58" x2="458.43" y2="427.01" stroke="#0ecb81" stroke-width="1.4" /><rect x="455.43" y="422.07" width="6" height="4.39" rx="1.5" fill="#0ecb81" /><line x1="469.16" y1="408.62" x2="469.16" y2="424.27" stroke="#0ecb81" stroke-width="1.4" /><rect x="466.16" y="411.91" width="6" height="10.43" rx="1.5" fill="#0ecb81" /><line x1="479.90" y1="405.60" x2="479.90" y2="412.46" stroke="#0ecb81" stroke-width="1.4" /><rect x="476.90" y="409.44" width="6" height="2.47" rx="1.5" fill="#0ecb81" /><line x1="490.63" y1="403.95" x2="490.63" y2="412.46" stroke="#f6465d" stroke-width="1.4" /><rect x="487.63" y="409.72" width="6" height="2.00" rx="1.5" fill="#f6465d" /><line x1="501.37" y1="407.52" x2="501.37" y2="411.91" stroke="#f6465d" stroke-width="1.4" /><rect x="498.37" y="410.27" width="6" height="2.00" rx="1.5" fill="#f6465d" /><line x1="512.10" y1="411.64" x2="512.10" y2="420.43" stroke="#f6465d" stroke-width="1.4" /><rect x="509.10" y="411.91" width="6" height="7.96" rx="1.5" fill="#f6465d" /><line x1="522.84" y1="419.33" x2="522.84" y2="424.54" stroke="#f6465d" stroke-width="1.4" /><rect x="519.84" y="420.15" width="6" height="2.47" rx="1.5" fill="#f6465d" /><line x1="533.57" y1="410.82" x2="533.57" y2="422.90" stroke="#0ecb81" stroke-width="1.4" /><rect x="530.57" y="415.21" width="6" height="7.41" rx="1.5" fill="#0ecb81" /><line x1="544.30" y1="412.19" x2="544.30" y2="419.60" stroke="#0ecb81" stroke-width="1.4" /><rect x="541.30" y="414.38" width="6" height="2.00" rx="1.5" fill="#0ecb81" /><line x1="555.04" y1="409.99" x2="555.04" y2="417.68" stroke="#0ecb81" stroke-width="1.4" /><rect x="552.04" y="413.84" width="6" height="2.00" rx="1.5" fill="#0ecb81" /><line x1="565.77" y1="408.34" x2="565.77" y2="414.93" stroke="#0ecb81" stroke-width="1.4" /><rect x="562.77" y="409.44" width="6" height="4.67" rx="1.5" fill="#0ecb81" /><line x1="576.51" y1="402.58" x2="576.51" y2="410.54" stroke="#0ecb81" stroke-width="1.4" /><rect x="573.51" y="403.40" width="6" height="6.31" rx="1.5" fill="#0ecb81" /><line x1="587.24" y1="397.64" x2="587.24" y2="408.89" stroke="#0ecb81" stroke-width="1.4" /><rect x="584.24" y="402.85" width="6" height="2.00" rx="1.5" fill="#0ecb81" /><line x1="597.97" y1="400.38" x2="597.97" y2="411.09" stroke="#f6465d" stroke-width="1.4" /><rect x="594.97" y="402.85" width="6" height="2.75" rx="1.5" fill="#f6465d" /><line x1="608.71" y1="401.75" x2="608.71" y2="415.21" stroke="#f6465d" stroke-width="1.4" /><rect x="605.71" y="405.60" width="6" height="4.94" rx="1.5" fill="#f6465d" /><line x1="619.44" y1="408.62" x2="619.44" y2="413.29" stroke="#f6465d" stroke-width="1.4" /><rect x="616.44" y="410.54" width="6" height="2.00" rx="1.5" fill="#f6465d" /><line x1="630.18" y1="405.60" x2="630.18" y2="413.84" stroke="#0ecb81" stroke-width="1.4" /><rect x="627.18" y="410.27" width="6" height="2.20" rx="1.5" fill="#0ecb81" /><line x1="640.91" y1="409.17" x2="640.91" y2="416.03" stroke="#f6465d" stroke-width="1.4" /><rect x="637.91" y="410.27" width="6" height="4.67" rx="1.5" fill="#f6465d" /><line x1="651.65" y1="409.72" x2="651.65" y2="417.40" stroke="#0ecb81" stroke-width="1.4" /><rect x="648.65" y="410.27" width="6" height="4.94" rx="1.5" fill="#0ecb81" /><line x1="662.38" y1="405.60" x2="662.38" y2="417.13" stroke="#f6465d" stroke-width="1.4" /><rect x="659.38" y="410.27" width="6" height="2.20" rx="1.5" fill="#f6465d" /><line x1="673.11" y1="411.36" x2="673.11" y2="416.86" stroke="#0ecb81" stroke-width="1.4" /><rect x="670.11" y="411.64" width="6" height="2.00" rx="1.5" fill="#0ecb81" /><line x1="683.85" y1="411.36" x2="683.85" y2="415.48" stroke="#f6465d" stroke-width="1.4" /><rect x="680.85" y="411.91" width="6" height="2.00" rx="1.5" fill="#f6465d" /><line x1="694.58" y1="411.09" x2="694.58" y2="414.66" stroke="#0ecb81" stroke-width="1.4" /><rect x="691.58" y="411.64" width="6" height="2.00" rx="1.5" fill="#0ecb81" /><line x1="705.32" y1="409.99" x2="705.32" y2="411.91" stroke="#0ecb81" stroke-width="1.4" /><rect x="702.32" y="411.36" width="6" height="2.00" rx="1.5" fill="#0ecb81" /><line x1="716.05" y1="404.50" x2="716.05" y2="413.01" stroke="#0ecb81" stroke-width="1.4" /><rect x="713.05" y="408.89" width="6" height="2.47" rx="1.5" fill="#0ecb81" /><line x1="726.78" y1="406.70" x2="726.78" y2="411.09" stroke="#0ecb81" stroke-width="1.4" /><rect x="723.78" y="408.34" width="6" height="2.00" rx="1.5" fill="#0ecb81" /><line x1="737.52" y1="405.60" x2="737.52" y2="408.62" stroke="#f6465d" stroke-width="1.4" /><rect x="734.52" y="408.34" width="6" height="2.00" rx="1.5" fill="#f6465d" /><line x1="748.25" y1="404.50" x2="748.25" y2="410.27" stroke="#0ecb81" stroke-width="1.4" /><rect x="745.25" y="404.50" width="6" height="3.84" rx="1.5" fill="#0ecb81" /><line x1="758.99" y1="389.95" x2="758.99" y2="406.70" stroke="#0ecb81" stroke-width="1.4" /><rect x="755.99" y="391.05" width="6" height="13.45" rx="1.5" fill="#0ecb81" /><line x1="769.72" y1="389.40" x2="769.72" y2="399.56" stroke="#f6465d" stroke-width="1.4" /><rect x="766.72" y="391.32" width="6" height="2.00" rx="1.5" fill="#f6465d" /><line x1="780.46" y1="382.54" x2="780.46" y2="396.26" stroke="#0ecb81" stroke-width="1.4" /><rect x="777.46" y="383.08" width="6" height="10.16" rx="1.5" fill="#0ecb81" /><line x1="791.19" y1="375.95" x2="791.19" y2="388.85" stroke="#0ecb81" stroke-width="1.4" /><rect x="788.19" y="376.49" width="6" height="6.59" rx="1.5" fill="#0ecb81" /><line x1="801.92" y1="275.73" x2="801.92" y2="377.32" stroke="#0ecb81" stroke-width="1.4" /><rect x="798.92" y="320.48" width="6" height="55.74" rx="1.5" fill="#0ecb81" /><line x1="812.66" y1="278.75" x2="812.66" y2="341.90" stroke="#f6465d" stroke-width="1.4" /><rect x="809.66" y="320.76" width="6" height="6.59" rx="1.5" fill="#f6465d" /><line x1="823.39" y1="296.05" x2="823.39" y2="338.33" stroke="#0ecb81" stroke-width="1.4" /><rect x="820.39" y="320.21" width="6" height="7.41" rx="1.5" fill="#0ecb81" /><line x1="834.13" y1="300.44" x2="834.13" y2="334.49" stroke="#0ecb81" stroke-width="1.4" /><rect x="831.13" y="309.50" width="6" height="10.71" rx="1.5" fill="#0ecb81" /><line x1="844.86" y1="256.51" x2="844.86" y2="311.15" stroke="#0ecb81" stroke-width="1.4" /><rect x="841.86" y="285.89" width="6" height="24.16" rx="1.5" fill="#0ecb81" /><line x1="855.59" y1="58.00" x2="855.59" y2="286.71" stroke="#0ecb81" stroke-width="1.4" /><rect x="852.59" y="97.54" width="6" height="188.63" rx="1.5" fill="#0ecb81" /><line x1="866.33" y1="93.42" x2="866.33" y2="216.42" stroke="#f6465d" stroke-width="1.4" /><rect x="863.33" y="97.54" width="6" height="99.67" rx="1.5" fill="#f6465d" /><line x1="877.06" y1="175.24" x2="877.06" y2="257.33" stroke="#f6465d" stroke-width="1.4" /><rect x="874.06" y="197.20" width="6" height="37.34" rx="1.5" fill="#f6465d" /><line x1="887.80" y1="197.75" x2="887.80" y2="283.42" stroke="#f6465d" stroke-width="1.4" /><rect x="884.80" y="234.27" width="6" height="3.29" rx="1.5" fill="#f6465d" /><line x1="898.53" y1="235.37" x2="898.53" y2="279.57" stroke="#f6465d" stroke-width="1.4" /><rect x="895.53" y="237.02" width="6" height="12.90" rx="1.5" fill="#f6465d" /><line x1="909.27" y1="249.92" x2="909.27" y2="329.54" stroke="#f6465d" stroke-width="1.4" /><rect x="906.27" y="250.20" width="6" height="60.68" rx="1.5" fill="#f6465d" /><line x1="920.00" y1="292.48" x2="920.00" y2="318.84" stroke="#f6465d" stroke-width="1.4" /><rect x="917.00" y="310.32" width="6" height="7.96" rx="1.5" fill="#f6465d" />
  <polyline points="383.29,389.40 404.76,432.78 490.63,403.95 522.84,424.54 587.24,397.64" fill="none" stroke="#2fc273" stroke-width="4" stroke-linecap="round" stroke-linejoin="round" />
  <circle cx="383.29" cy="389.40" r="5.5" fill="#2fc273" fill-opacity="0.15" stroke="#2fc273" stroke-width="2" /><text x="383.29" y="377.40" fill="#f3f4f6" font-size="15" font-weight="700" text-anchor="middle">X</text><circle cx="404.76" cy="432.78" r="5.5" fill="#2fc273" fill-opacity="0.15" stroke="#2fc273" stroke-width="2" /><text x="404.76" y="420.78" fill="#f3f4f6" font-size="15" font-weight="700" text-anchor="middle">A</text><circle cx="490.63" cy="403.95" r="5.5" fill="#2fc273" fill-opacity="0.15" stroke="#2fc273" stroke-width="2" /><text x="490.63" y="391.95" fill="#f3f4f6" font-size="15" font-weight="700" text-anchor="middle">B</text><circle cx="522.84" cy="424.54" r="5.5" fill="#2fc273" fill-opacity="0.15" stroke="#2fc273" stroke-width="2" /><text x="522.84" y="412.54" fill="#f3f4f6" font-size="15" font-weight="700" text-anchor="middle">C</text><circle cx="587.24" cy="397.64" r="5.5" fill="#2fc273" fill-opacity="0.15" stroke="#2fc273" stroke-width="2" /><text x="587.24" y="385.64" fill="#f3f4f6" font-size="15" font-weight="700" text-anchor="middle">D</text>
  <text x="56" y="492" fill="#8ba0b5" font-size="18">Realtime Touch · TP1 1.3046 · TP2 1.2814 · SL 1.3625</text>
</svg>
