<svg xmlns="http://www.w3.org/2000/svg" width="960" height="540" viewBox="0 0 960 540">
  <rect width="960" height="540" rx="24" fill="#0b1220" />
  <rect x="28" y="28" width="904" height="484" rx="22" fill="#111827" stroke="#1f2937" />
  <text x="56" y="74" fill="#f3f4f6" font-size="34" font-weight="700">SIGNUSDT · AB=CD</text>
  <text x="904" y="74" fill="#8ba0b5" font-size="20" text-anchor="end">Bullish (매수) · Score 84.6</text>
  <line x1="72" y1="58" x2="920" y2="58" stroke="#223045" stroke-width="1" stroke-dasharray="4 8" /><line x1="72" y1="156" x2="920" y2="156" stroke="#223045" stroke-width="1" stroke-dasharray="4 8" /><line x1="72" y1="255" x2="920" y2="255" stroke="#223045" stroke-width="1" stroke-dasharray="4 8" /><line x1="72" y1="353" x2="920" y2="353" stroke="#223045" stroke-width="1" stroke-dasharray="4 8" /><line x1="72" y1="452" x2="920" y2="452" stroke="#223045" stroke-width="1" stroke-dasharray="4 8" />
  <rect x="655.85" y="438.96" width="84" height="23.86" fill="#fbbf24" fill-opacity="0.12" stroke="#fbbf24" stroke-width="1.5" stroke-dasharray="6 6" />
  <line x1="72.00" y1="92.02" x2="72.00" y2="119.00" stroke="#0ecb81" stroke-width="1.4" /><rect x="69.00" y="103.86" width="6" height="3.90" rx="1.5" fill="#0ecb81" /><line x1="82.73" y1="99.81" x2="82.73" y2="126.04" stroke="#f6465d" stroke-width="1.4" /><rect x="79.73" y="103.86" width="6" height="7.94" rx="1.5" fill="#f6465d" /><line x1="93.47" y1="70.59" x2="93.47" y2="112.70" stroke="#0ecb81" stroke-width="1.4" /><rect x="90.47" y="84.23" width="6" height="27.58" rx="1.5" fill="#0ecb81" /><line x1="104.20" y1="58.00" x2="104.20" y2="87.37" stroke="#0ecb81" stroke-width="1.4" /><rect x="101.20" y="61.75" width="6" height="22.48" rx="1.5" fill="#0ecb81" /><line x1="114.94" y1="58.75" x2="114.94" y2="106.71" stroke="#f6465d" stroke-width="1.4" /><rect x="111.94" y="61.75" width="6" height="29.67" rx="1.5" fill="#f6465d" /><line x1="125.67" y1="88.27" x2="125.67" y2="143.87" stroke="#f6465d" stroke-width="1.4" /><rect x="122.67" y="91.57" width="6" height="44.21" rx="1.5" fill="#f6465d" /><line x1="136.41" y1="123.64" x2="136.41" y2="157.51" stroke="#f6465d" stroke-width="1.4" /><rect x="133.41" y="135.78" width="6" height="2.10" rx="1.5" fill="#f6465d" /><line x1="147.14" y1="128.14" x2="147.14" y2="145.37" stroke="#f6465d" stroke-width="1.4" /><rect x="144.14" y="137.73" width="6" height="2.00" rx="1.5" fill="#f6465d" /><line x1="157.87" y1="117.95" x2="157.87" y2="145.97" stroke="#f6465d" stroke-width="1.4" /><rect x="154.87" y="139.38" width="6" height="3.30" rx="1.5" fill="#f6465d" /><line x1="168.61" y1="128.14" x2="168.61" y2="145.97" stroke="#0ecb81" stroke-width="1.4" /><rect x="165.61" y="142.67" width="6" height="2.00" rx="1.5" fill="#0ecb81" /><line x1="179.34" y1="122.29" x2="179.34" y2="158.26" stroke="#f6465d" stroke-width="1.4" /><rect x="176.34" y="142.67" width="6" height="13.34" rx="1.5" fill="#f6465d" /><line x1="190.08" y1="154.81" x2="190.08" y2="219.11" stroke="#f6465d" stroke-width="1.4" /><rect x="187.08" y="155.86" width="6" height="49.76" rx="1.5" fill="#f6465d" /><line x1="200.81" y1="202.92" x2="200.81" y2="280.70" stroke="#f6465d" stroke-width="1.4" /><rect x="197.81" y="205.62" width="6" height="63.54" rx="1.5" fill="#f6465d" /><line x1="211.54" y1="262.57" x2="211.54" y2="276.96" stroke="#f6465d" stroke-width="1.4" /><rect x="208.54" y="269.16" width="6" height="2.70" rx="1.5" fill="#f6465d" /><line x1="222.28" y1="264.82" x2="222.28" y2="286.70" stroke="#f6465d" stroke-width="1.4" /><rect x="219.28" y="271.86" width="6" height="13.94" rx="1.5" fill="#f6465d" /><line x1="233.01" y1="280.55" x2="233.01" y2="299.74" stroke="#f6465d" stroke-width="1.4" /><rect x="230.01" y="285.80" width="6" height="10.19" rx="1.5" fill="#f6465d" /><line x1="243.75" y1="291.64" x2="243.75" y2="420.83" stroke="#f6465d" stroke-width="1.4" /><rect x="240.75" y="295.99" width="6" height="102.06" rx="1.5" fill="#f6465d" /><line x1="254.48" y1="397.75" x2="254.48" y2="419.78" stroke="#f6465d" stroke-width="1.4" /><rect x="251.48" y="397.90" width="6" height="18.28" rx="1.5" fill="#f6465d" /><line x1="265.22" y1="413.48" x2="265.22" y2="448.40" stroke="#f6465d" stroke-width="1.4" /><rect x="262.22" y="416.18" width="6" height="14.39" rx="1.5" fill="#f6465d" /><line x1="275.95" y1="415.43" x2="275.95" y2="440.31" stroke="#0ecb81" stroke-width="1.4" /><rect x="272.95" y="427.27" width="6" height="3.45" rx="1.5" fill="#0ecb81" /><line x1="286.68" y1="415.43" x2="286.68" y2="431.77" stroke="#0ecb81" stroke-width="1.4" /><rect x="283.68" y="425.02" width="6" height="2.25" rx="1.5" fill="#0ecb81" /><line x1="297.42" y1="419.48" x2="297.42" y2="436.26" stroke="#f6465d" stroke-width="1.4" /><rect x="294.42" y="425.02" width="6" height="4.65" rx="1.5" fill="#f6465d" /><line x1="308.15" y1="422.48" x2="308.15" y2="437.91" stroke="#0ecb81" stroke-width="1.4" /><rect x="305.15" y="427.87" width="6" height="2.00" rx="1.5" fill="#0ecb81" /><line x1="318.89" y1="417.23" x2="318.89" y2="436.56" stroke="#f6465d" stroke-width="1.4" /><rect x="315.89" y="427.57" width="6" height="3.75" rx="1.5" fill="#f6465d" /><line x1="329.62" y1="428.32" x2="329.62" y2="439.41" stroke="#0ecb81" stroke-width="1.4" /><rect x="326.62" y="430.57" width="6" height="2.00" rx="1.5" fill="#0ecb81" /><line x1="340.35" y1="423.08" x2="340.35" y2="436.26" stroke="#0ecb81" stroke-width="1.4" /><rect x="337.35" y="425.32" width="6" height="5.10" rx="1.5" fill="#0ecb81" /><line x1="351.09" y1="417.53" x2="351.09" y2="430.12" stroke="#0ecb81" stroke-width="1.4" /><rect x="348.09" y="421.28" width="6" height="4.20" rx="1.5" fill="#0ecb81" /><line x1="361.82" y1="414.68" x2="361.82" y2="428.17" stroke="#0ecb81" stroke-width="1.4" /><rect x="358.82" y="420.08" width="6" height="2.00" rx="1.5" fill="#0ecb81" /><line x1="372.56" y1="419.63" x2="372.56" y2="432.22" stroke="#f6465d" stroke-width="1.4" /><rect x="369.56" y="420.08" width="6" height="10.19" rx="1.5" fill="#f6465d" /><line x1="383.29" y1="423.38" x2="383.29" y2="431.32" stroke="#f6465d" stroke-width="1.4" /><rect x="380.29" y="430.42" width="6" height="2.00" rx="1.5" fill="#f6465d" /><line x1="394.03" y1="421.43" x2="394.03" y2="435.21" stroke="#0ecb81" stroke-width="1.4" /><rect x="391.03" y="429.37" width="6" height="2.00" rx="1.5" fill="#0ecb81" /><line x1="404.76" y1="425.32" x2="404.76" y2="434.17" stroke="#0ecb81" stroke-width="1.4" /><rect x="401.76" y="428.02" width="6" height="2.00" rx="1.5" fill="#0ecb81" /><line x1="415.49" y1="425.32" x2="415.49" y2="431.92" stroke="#f6465d" stroke-width="1.4" /><rect x="412.49" y="428.02" width="6" height="2.00" rx="1.5" fill="#f6465d" /><line x1="426.23" y1="354.14" x2="426.23" y2="443.01" stroke="#0ecb81" stroke-width="1.4" /><rect x="423.23" y="423.38" width="6" height="5.40" rx="1.5" fill="#0ecb81" /><line x1="436.96" y1="414.98" x2="436.96" y2="438.51" stroke="#0ecb81" stroke-width="1.4" /><rect x="433.96" y="422.03" width="6" height="2.00" rx="1.5" fill="#0ecb81" /><line x1="447.70" y1="416.18" x2="447.70" y2="431.02" stroke="#f6465d" stroke-width="1.4" /><rect x="444.70" y="421.88" width="6" height="5.84" rx="1.5" fill="#f6465d" /><line x1="458.43" y1="421.73" x2="458.43" y2="434.32" stroke="#f6465d" stroke-width="1.4" /><rect x="455.43" y="427.72" width="6" height="2.10" rx="1.5" fill="#f6465d" /><line x1="469.16" y1="428.47" x2="469.16" y2="435.51" stroke="#f6465d" stroke-width="1.4" /><rect x="466.16" y="429.97" width="6" height="2.85" rx="1.5" fill="#f6465d" /><line x1="479.90" y1="426.97" x2="479.90" y2="439.86" stroke="#0ecb81" stroke-width="1.4" /><rect x="476.90" y="427.27" width="6" height="5.55" rx="1.5" fill="#0ecb81" /><line x1="490.63" y1="408.39" x2="490.63" y2="431.77" stroke="#0ecb81" stroke-width="1.4" /><rect x="487.63" y="408.39" width="6" height="18.88" rx="1.5" fill="#0ecb81" /><line x1="501.37" y1="398.95" x2="501.37" y2="419.33" stroke="#f6465d" stroke-width="1.4" /><rect x="498.37" y="408.54" width="6" height="9.14" rx="1.5" fill="#f6465d" /><line x1="512.10" y1="416.93" x2="512.10" y2="432.82" stroke="#f6465d" stroke-width="1.4" /><rect x="509.10" y="417.68" width="6" height="11.69" rx="1.5" fill="#f6465d" /><line x1="522.84" y1="428.32" x2="522.84" y2="434.77" stroke="#f6465d" stroke-width="1.4" /><rect x="519.84" y="429.22" width="6" height="2.10" rx="1.5" fill="#f6465d" /><line x1="533.57" y1="429.22" x2="533.57" y2="434.92" stroke="#0ecb81" stroke-width="1.4" /><rect x="530.57" y="429.82" width="6" height="2.00" rx="1.5" fill="#0ecb81" /><line x1="544.30" y1="417.68" x2="544.30" y2="433.87" stroke="#0ecb81" stroke-width="1.4" /><rect x="541.30" y="429.07" width="6" height="2.00" rx="1.5" fill="#0ecb81" /><line x1="555.04" y1="419.78" x2="555.04" y2="431.77" stroke="#0ecb81" stroke-width="1.4" /><rect x="552.04" y="428.17" width="6" height="2.00" rx="1.5" fill="#0ecb81" /><line x1="565.77" y1="422.93" x2="565.77" y2="434.02" stroke="#f6465d" stroke-width="1.4" /><rect x="562.77" y="428.17" width="6" height="2.00" rx="1.5" fill="#f6465d" /><line x1="576.51" y1="425.62" x2="576.51" y2="434.32" stroke="#0ecb81" stroke-width="1.4" /><rect x="573.51" y="429.22" width="6" height="2.00" rx="1.5" fill="#0ecb81" /><line x1="587.24" y1="422.78" x2="587.24" y2="434.77" stroke="#f6465d" stroke-width="1.4" /><rect x="584.24" y="429.22" width="6" height="2.00" rx="1.5" fill="#f6465d" /><line x1="597.97" y1="426.07" x2="597.97" y2="432.97" stroke="#0ecb81" stroke-width="1.4" /><rect x="594.97" y="429.97" width="6" height="2.00" rx="1.5" fill="#0ecb81" /><line x1="608.71" y1="411.24" x2="608.71" y2="430.12" stroke="#0ecb81" stroke-width="1.4" /><rect x="605.71" y="414.53" width="6" height="15.59" rx="1.5" fill="#0ecb81" /><line x1="619.44" y1="402.99" x2="619.44" y2="422.93" stroke="#f6465d" stroke-width="1.4" /><rect x="616.44" y="414.38" width="6" height="6.29" rx="1.5" fill="#f6465d" /><line x1="630.18" y1="415.88" x2="630.18" y2="425.92" stroke="#f6465d" stroke-width="1.4" /><rect x="627.18" y="420.68" width="6" height="2.10" rx="1.5" fill="#f6465d" /><line x1="640.91" y1="420.68" x2="640.91" y2="435.21" stroke="#f6465d" stroke-width="1.4" /><rect x="637.91" y="422.78" width="6" height="6.44" rx="1.5" fill="#f6465d" /><line x1="651.65" y1="425.32" x2="651.65" y2="432.67" stroke="#0ecb81" stroke-width="1.4" /><rect x="648.65" y="425.77" width="6" height="3.45" rx="1.5" fill="#0ecb81" /><line x1="662.38" y1="418.13" x2="662.38" y2="431.62" stroke="#0ecb81" stroke-width="1.4" /><rect x="659.38" y="424.87" width="6" height="2.00" rx="1.5" fill="#0ecb81" /><line x1="673.11" y1="419.93" x2="673.11" y2="436.11" stroke="#f6465d" stroke-width="1.4" /><rect x="670.11" y="424.87" width="6" height="10.49" rx="1.5" fill="#f6465d" /><line x1="683.85" y1="429.37" x2="683.85" y2="452.00" stroke="#0ecb81" stroke-width="1.4" /><rect x="680.85" y="431.92" width="6" height="3.60" rx="1.5" fill="#0ecb81" /><line x1="694.58" y1="414.38" x2="694.58" y2="444.21" stroke="#0ecb81" stroke-width="1.4" /><rect x="691.58" y="422.48" width="6" height="9.44" rx="1.5" fill="#0ecb81" /><line x1="705.32" y1="413.63" x2="705.32" y2="432.67" stroke="#f6465d" stroke-width="1.4" /><rect x="702.32" y="422.48" width="6" height="2.00" rx="1.5" fill="#f6465d" /><line x1="716.05" y1="416.93" x2="716.05" y2="431.77" stroke="#0ecb81" stroke-width="1.4" /><rect x="713.05" y="423.38" width="6" height="2.00" rx="1.5" fill="#0ecb81" /><line x1="726.78" y1="416.48" x2="726.78" y2="430.42" stroke="#0ecb81" stroke-width="1.4" /><rect x="723.78" y="416.48" width="6" height="7.04" rx="1.5" fill="#0ecb81" /><line x1="737.52" y1="402.84" x2="737.52" y2="425.47" stroke="#0ecb81" stroke-width="1.4" /><rect x="734.52" y="406.14" width="6" height="10.34" rx="1.5" fill="#0ecb81" /><line x1="748.25" y1="385.46" x2="748.25" y2="410.79" stroke="#0ecb81" stroke-width="1.4" /><rect x="745.25" y="387.56" width="6" height="18.58" rx="1.5" fill="#0ecb81" /><line x1="758.99" y1="360.88" x2="758.99" y2="400.30" stroke="#0ecb81" stroke-width="1.4" /><rect x="755.99" y="368.67" width="6" height="18.88" rx="1.5" fill="#0ecb81" /><line x1="769.72" y1="368.37" x2="769.72" y2="398.20" stroke="#f6465d" stroke-width="1.4" /><rect x="766.72" y="368.67" width="6" height="26.83" rx="1.5" fill="#f6465d" /><line x1="780.46" y1="365.98" x2="780.46" y2="398.95" stroke="#0ecb81" stroke-width="1.4" /><rect x="777.46" y="383.66" width="6" height="11.84" rx="1.5" fill="#0ecb81" /><line x1="791.19" y1="374.52" x2="791.19" y2="396.70" stroke="#0ecb81" stroke-width="1.4" /><rect x="788.19" y="375.87" width="6" height="7.64" rx="1.5" fill="#0ecb81" /><line x1="801.92" y1="369.87" x2="801.92" y2="389.96" stroke="#f6465d" stroke-width="1.4" /><rect x="798.92" y="375.57" width="6" height="3.30" rx="1.5" fill="#f6465d" /><line x1="812.66" y1="365.23" x2="812.66" y2="382.16" stroke="#0ecb81" stroke-width="1.4" /><rect x="809.66" y="367.77" width="6" height="11.09" rx="1.5" fill="#0ecb81" /><line x1="823.39" y1="341.40" x2="823.39" y2="376.92" stroke="#0ecb81" stroke-width="1.4" /><rect x="820.39" y="344.40" width="6" height="23.38" rx="1.5" fill="#0ecb81" /><line x1="834.13" y1="325.81" x2="834.13" y2="360.73" stroke="#0ecb81" stroke-width="1.4" /><rect x="831.13" y="338.10" width="6" height="6.29" rx="1.5" fill="#0ecb81" /><line x1="844.86" y1="337.05" x2="844.86" y2="374.52" stroke="#f6465d" stroke-width="1.4" /><rect x="841.86" y="338.10" width="6" height="11.54" rx="1.5" fill="#f6465d" /><line x1="855.59" y1="348.44" x2="855.59" y2="385.16" stroke="#f6465d" stroke-width="1.4" /><rect x="852.59" y="349.49" width="6" height="19.48" rx="1.5" fill="#f6465d" /><line x1="866.33" y1="365.08" x2="866.33" y2="391.60" stroke="#f6465d" stroke-width="1.4" /><rect x="863.33" y="369.12" width="6" height="8.99" rx="1.5" fill="#f6465d" /><line x1="877.06" y1="356.38" x2="877.06" y2="378.57" stroke="#0ecb81" stroke-width="1.4" /><rect x="874.06" y="365.08" width="6" height="13.19" rx="1.5" fill="#0ecb81" /><line x1="887.80" y1="352.64" x2="887.80" y2="384.26" stroke="#f6465d" stroke-width="1.4" /><rect x="884.80" y="365.23" width="6" height="5.84" rx="1.5" fill="#f6465d" /><line x1="898.53" y1="363.73" x2="898.53" y2="397.00" stroke="#f6465d" stroke-width="1.4" /><rect x="895.53" y="370.92" width="6" height="15.14" rx="1.5" fill="#f6465d" /><line x1="909.27" y1="364.78" x2="909.27" y2="413.63" stroke="#f6465d" stroke-width="1.4" /><rect x="906.27" y="386.21" width="6" height="16.93" rx="1.5" fill="#f6465d" /><line x1="920.00" y1="400.75" x2="920.00" y2="412.59" stroke="#f6465d" stroke-width="1.4" /><rect x="917.00" y="403.29" width="6" height="6.59" rx="1.5" fill="#f6465d" />
  <polyline points="426.23,443.01 501.37,398.95 533.57,434.92 619.44,402.99 683.85,452.00" fill="none" stroke="#2fc273" stroke-width="4" stroke-linecap="round" stroke-linejoin="round" />
  <circle cx="426.23" cy="443.01" r="5.5" fill="#2fc273" fill-opacity="0.15" stroke="#2fc273" stroke-width="2" /><text x="426.23" y="431.01" fill="#f3f4f6" font-size="15" font-weight="700" text-anchor="middle">X</text><circle cx="501.37" cy="398.95" r="5.5" fill="#2fc273" fill-opacity="0.15" stroke="#2fc273" stroke-width="2" /><text x="501.37" y="386.95" fill="#f3f4f6" font-size="15" font-weight="700" text-anchor="middle">A</text><circle cx="533.57" cy="434.92" r="5.5" fill="#2fc273" fill-opacity="0.15" stroke="#2fc273" stroke-width="2" /><text x="533.57" y="422.92" fill="#f3f4f6" font-size="15" font-weight="700" text-anchor="middle">B</text><circle cx="619.44" cy="402.99" r="5.5" fill="#2fc273" fill-opacity="0.15" stroke="#2fc273" stroke-width="2" /><text x="619.44" y="390.99" fill="#f3f4f6" font-size="15" font-weight="700" text-anchor="middle">C</text><circle cx="683.85" cy="452.00" r="5.5" fill="#2fc273" fill-opacity="0.15" stroke="#2fc273" stroke-width="2" /><text x="683.85" y="440.00" fill="#f3f4f6" font-size="15" font-weight="700" text-anchor="middle">D</text>
  <text x="56" y="492" fill="#8ba0b5" font-size="18">일반 완성 · TP1 0.031729 · TP2 0.032501 · SL 0.030098</text>
</svg>
