<svg xmlns="http://www.w3.org/2000/svg" width="960" height="540" viewBox="0 0 960 540">
  <rect width="960" height="540" rx="24" fill="#0b1220" />
  <rect x="28" y="28" width="904" height="484" rx="22" fill="#111827" stroke="#1f2937" />
  <text x="56" y="74" fill="#f3f4f6" font-size="34" font-weight="700">SOLUSDT · AB=CD</text>
  <text x="904" y="74" fill="#8ba0b5" font-size="20" text-anchor="end">Bearish (매도) · Score 82.4</text>
  <line x1="72" y1="58" x2="920" y2="58" stroke="#223045" stroke-width="1" stroke-dasharray="4 8" /><line x1="72" y1="156" x2="920" y2="156" stroke="#223045" stroke-width="1" stroke-dasharray="4 8" /><line x1="72" y1="255" x2="920" y2="255" stroke="#223045" stroke-width="1" stroke-dasharray="4 8" /><line x1="72" y1="353" x2="920" y2="353" stroke="#223045" stroke-width="1" stroke-dasharray="4 8" /><line x1="72" y1="452" x2="920" y2="452" stroke="#223045" stroke-width="1" stroke-dasharray="4 8" />
  <rect x="645.11" y="152.37" width="84" height="77.93" fill="#fbbf24" fill-opacity="0.12" stroke="#fbbf24" stroke-width="1.5" stroke-dasharray="6 6" />
  <line x1="72.00" y1="93.82" x2="72.00" y2="253.24" stroke="#0ecb81" stroke-width="1.4" /><rect x="69.00" y="168.50" width="6" height="65.55" rx="1.5" fill="#0ecb81" /><line x1="82.73" y1="86.56" x2="82.73" y2="179.27" stroke="#0ecb81" stroke-width="1.4" /><rect x="79.73" y="141.11" width="6" height="27.39" rx="1.5" fill="#0ecb81" /><line x1="93.47" y1="95.46" x2="93.47" y2="154.22" stroke="#0ecb81" stroke-width="1.4" /><rect x="90.47" y="107.63" width="6" height="33.71" rx="1.5" fill="#0ecb81" /><line x1="104.20" y1="92.18" x2="104.20" y2="117.23" stroke="#0ecb81" stroke-width="1.4" /><rect x="101.20" y="106.23" width="6" height="2.00" rx="1.5" fill="#0ecb81" /><line x1="114.94" y1="100.84" x2="114.94" y2="141.11" stroke="#f6465d" stroke-width="1.4" /><rect x="111.94" y="106.23" width="6" height="25.99" rx="1.5" fill="#f6465d" /><line x1="125.67" y1="95.46" x2="125.67" y2="140.64" stroke="#0ecb81" stroke-width="1.4" /><rect x="122.67" y="99.90" width="6" height="32.07" rx="1.5" fill="#0ecb81" /><line x1="136.41" y1="87.50" x2="136.41" y2="113.72" stroke="#0ecb81" stroke-width="1.4" /><rect x="133.41" y="98.97" width="6" height="2.00" rx="1.5" fill="#0ecb81" /><line x1="147.14" y1="96.63" x2="147.14" y2="171.31" stroke="#f6465d" stroke-width="1.4" /><rect x="144.14" y="98.97" width="6" height="47.76" rx="1.5" fill="#f6465d" /><line x1="157.87" y1="140.87" x2="157.87" y2="177.63" stroke="#f6465d" stroke-width="1.4" /><rect x="154.87" y="146.49" width="6" height="28.56" rx="1.5" fill="#f6465d" /><line x1="168.61" y1="113.25" x2="168.61" y2="175.76" stroke="#0ecb81" stroke-width="1.4" /><rect x="165.61" y="121.44" width="6" height="53.61" rx="1.5" fill="#0ecb81" /><line x1="179.34" y1="94.52" x2="179.34" y2="123.32" stroke="#0ecb81" stroke-width="1.4" /><rect x="176.34" y="100.14" width="6" height="21.07" rx="1.5" fill="#0ecb81" /><line x1="190.08" y1="69.94" x2="190.08" y2="102.95" stroke="#0ecb81" stroke-width="1.4" /><rect x="187.08" y="97.56" width="6" height="2.58" rx="1.5" fill="#0ecb81" /><line x1="200.81" y1="58.00" x2="200.81" y2="97.33" stroke="#0ecb81" stroke-width="1.4" /><rect x="197.81" y="70.17" width="6" height="27.16" rx="1.5" fill="#0ecb81" /><line x1="211.54" y1="59.40" x2="211.54" y2="116.53" stroke="#f6465d" stroke-width="1.4" /><rect x="208.54" y="69.94" width="6" height="28.80" rx="1.5" fill="#f6465d" /><line x1="222.28" y1="75.32" x2="222.28" y2="107.40" stroke="#0ecb81" stroke-width="1.4" /><rect x="219.28" y="98.73" width="6" height="2.00" rx="1.5" fill="#0ecb81" /><line x1="233.01" y1="94.52" x2="233.01" y2="116.06" stroke="#f6465d" stroke-width="1.4" /><rect x="230.01" y="98.73" width="6" height="2.00" rx="1.5" fill="#f6465d" /><line x1="243.75" y1="94.05" x2="243.75" y2="126.59" stroke="#f6465d" stroke-width="1.4" /><rect x="240.75" y="100.37" width="6" height="14.98" rx="1.5" fill="#f6465d" /><line x1="254.48" y1="115.12" x2="254.48" y2="168.97" stroke="#f6465d" stroke-width="1.4" /><rect x="251.48" y="115.12" width="6" height="46.35" rx="1.5" fill="#f6465d" /><line x1="265.22" y1="161.47" x2="265.22" y2="200.57" stroke="#f6465d" stroke-width="1.4" /><rect x="262.22" y="161.71" width="6" height="35.58" rx="1.5" fill="#f6465d" /><line x1="275.95" y1="181.37" x2="275.95" y2="217.19" stroke="#f6465d" stroke-width="1.4" /><rect x="272.95" y="197.29" width="6" height="2.00" rx="1.5" fill="#f6465d" /><line x1="286.68" y1="193.31" x2="286.68" y2="247.39" stroke="#f6465d" stroke-width="1.4" /><rect x="283.68" y="198.23" width="6" height="48.23" rx="1.5" fill="#f6465d" /><line x1="297.42" y1="206.19" x2="297.42" y2="247.39" stroke="#0ecb81" stroke-width="1.4" /><rect x="294.42" y="221.64" width="6" height="24.82" rx="1.5" fill="#0ecb81" /><line x1="308.15" y1="209.47" x2="308.15" y2="230.07" stroke="#f6465d" stroke-width="1.4" /><rect x="305.15" y="221.64" width="6" height="2.58" rx="1.5" fill="#f6465d" /><line x1="318.89" y1="215.55" x2="318.89" y2="241.30" stroke="#f6465d" stroke-width="1.4" /><rect x="315.89" y="223.98" width="6" height="11.94" rx="1.5" fill="#f6465d" /><line x1="329.62" y1="231.00" x2="329.62" y2="313.41" stroke="#f6465d" stroke-width="1.4" /><rect x="326.62" y="235.69" width="6" height="60.17" rx="1.5" fill="#f6465d" /><line x1="340.35" y1="280.87" x2="340.35" y2="318.33" stroke="#f6465d" stroke-width="1.4" /><rect x="337.35" y="295.62" width="6" height="2.00" rx="1.5" fill="#f6465d" /><line x1="351.09" y1="294.45" x2="351.09" y2="331.90" stroke="#f6465d" stroke-width="1.4" /><rect x="348.09" y="297.02" width="6" height="12.17" rx="1.5" fill="#f6465d" /><line x1="361.82" y1="301.47" x2="361.82" y2="319.26" stroke="#0ecb81" stroke-width="1.4" /><rect x="358.82" y="302.17" width="6" height="7.02" rx="1.5" fill="#0ecb81" /><line x1="372.56" y1="302.17" x2="372.56" y2="321.84" stroke="#f6465d" stroke-width="1.4" /><rect x="369.56" y="302.17" width="6" height="11.47" rx="1.5" fill="#f6465d" /><line x1="383.29" y1="288.59" x2="383.29" y2="319.03" stroke="#0ecb81" stroke-width="1.4" /><rect x="380.29" y="290.23" width="6" height="23.41" rx="1.5" fill="#0ecb81" /><line x1="394.03" y1="287.19" x2="394.03" y2="311.07" stroke="#f6465d" stroke-width="1.4" /><rect x="391.03" y="290.00" width="6" height="15.45" rx="1.5" fill="#f6465d" /><line x1="404.76" y1="271.27" x2="404.76" y2="313.88" stroke="#0ecb81" stroke-width="1.4" /><rect x="401.76" y="285.32" width="6" height="20.13" rx="1.5" fill="#0ecb81" /><line x1="415.49" y1="282.04" x2="415.49" y2="304.05" stroke="#f6465d" stroke-width="1.4" /><rect x="412.49" y="285.32" width="6" height="12.41" rx="1.5" fill="#f6465d" /><line x1="426.23" y1="292.34" x2="426.23" y2="335.65" stroke="#f6465d" stroke-width="1.4" /><rect x="423.23" y="297.72" width="6" height="28.56" rx="1.5" fill="#f6465d" /><line x1="436.96" y1="298.43" x2="436.96" y2="331.20" stroke="#0ecb81" stroke-width="1.4" /><rect x="433.96" y="304.51" width="6" height="21.54" rx="1.5" fill="#0ecb81" /><line x1="447.70" y1="303.58" x2="447.70" y2="322.54" stroke="#f6465d" stroke-width="1.4" /><rect x="444.70" y="304.51" width="6" height="12.88" rx="1.5" fill="#f6465d" /><line x1="458.43" y1="307.79" x2="458.43" y2="328.16" stroke="#0ecb81" stroke-width="1.4" /><rect x="455.43" y="314.11" width="6" height="3.04" rx="1.5" fill="#0ecb81" /><line x1="469.16" y1="312.47" x2="469.16" y2="344.78" stroke="#f6465d" stroke-width="1.4" /><rect x="466.16" y="314.11" width="6" height="17.79" rx="1.5" fill="#f6465d" /><line x1="479.90" y1="324.41" x2="479.90" y2="348.29" stroke="#f6465d" stroke-width="1.4" /><rect x="476.90" y="332.14" width="6" height="4.45" rx="1.5" fill="#f6465d" /><line x1="490.63" y1="322.07" x2="490.63" y2="401.90" stroke="#f6465d" stroke-width="1.4" /><rect x="487.63" y="336.82" width="6" height="4.92" rx="1.5" fill="#f6465d" /><line x1="501.37" y1="281.57" x2="501.37" y2="348.29" stroke="#0ecb81" stroke-width="1.4" /><rect x="498.37" y="297.26" width="6" height="44.48" rx="1.5" fill="#0ecb81" /><line x1="512.10" y1="273.61" x2="512.10" y2="298.19" stroke="#0ecb81" stroke-width="1.4" /><rect x="509.10" y="279.93" width="6" height="17.32" rx="1.5" fill="#0ecb81" /><line x1="522.84" y1="256.52" x2="522.84" y2="292.34" stroke="#0ecb81" stroke-width="1.4" /><rect x="519.84" y="274.55" width="6" height="5.38" rx="1.5" fill="#0ecb81" /><line x1="533.57" y1="257.22" x2="533.57" y2="288.83" stroke="#0ecb81" stroke-width="1.4" /><rect x="530.57" y="268.93" width="6" height="5.62" rx="1.5" fill="#0ecb81" /><line x1="544.30" y1="267.99" x2="544.30" y2="328.63" stroke="#f6465d" stroke-width="1.4" /><rect x="541.30" y="268.93" width="6" height="49.86" rx="1.5" fill="#f6465d" /><line x1="555.04" y1="287.42" x2="555.04" y2="324.41" stroke="#0ecb81" stroke-width="1.4" /><rect x="552.04" y="314.35" width="6" height="4.45" rx="1.5" fill="#0ecb81" /><line x1="565.77" y1="265.42" x2="565.77" y2="324.18" stroke="#0ecb81" stroke-width="1.4" /><rect x="562.77" y="289.53" width="6" height="24.82" rx="1.5" fill="#0ecb81" /><line x1="576.51" y1="282.27" x2="576.51" y2="311.30" stroke="#f6465d" stroke-width="1.4" /><rect x="573.51" y="289.53" width="6" height="12.17" rx="1.5" fill="#f6465d" /><line x1="587.24" y1="295.38" x2="587.24" y2="375.68" stroke="#f6465d" stroke-width="1.4" /><rect x="584.24" y="301.47" width="6" height="53.38" rx="1.5" fill="#f6465d" /><line x1="597.97" y1="313.41" x2="597.97" y2="365.38" stroke="#0ecb81" stroke-width="1.4" /><rect x="594.97" y="353.68" width="6" height="2.00" rx="1.5" fill="#0ecb81" /><line x1="608.71" y1="292.34" x2="608.71" y2="353.91" stroke="#0ecb81" stroke-width="1.4" /><rect x="605.71" y="310.60" width="6" height="43.08" rx="1.5" fill="#0ecb81" /><line x1="619.44" y1="294.21" x2="619.44" y2="319.96" stroke="#0ecb81" stroke-width="1.4" /><rect x="616.44" y="299.36" width="6" height="11.24" rx="1.5" fill="#0ecb81" /><line x1="630.18" y1="289.30" x2="630.18" y2="316.69" stroke="#0ecb81" stroke-width="1.4" /><rect x="627.18" y="293.74" width="6" height="5.38" rx="1.5" fill="#0ecb81" /><line x1="640.91" y1="263.08" x2="640.91" y2="297.96" stroke="#0ecb81" stroke-width="1.4" /><rect x="637.91" y="284.15" width="6" height="9.83" rx="1.5" fill="#0ecb81" /><line x1="651.65" y1="278.76" x2="651.65" y2="302.64" stroke="#f6465d" stroke-width="1.4" /><rect x="648.65" y="284.15" width="6" height="11.47" rx="1.5" fill="#f6465d" /><line x1="662.38" y1="282.98" x2="662.38" y2="318.56" stroke="#0ecb81" stroke-width="1.4" /><rect x="659.38" y="289.30" width="6" height="6.55" rx="1.5" fill="#0ecb81" /><line x1="673.11" y1="218.83" x2="673.11" y2="305.22" stroke="#0ecb81" stroke-width="1.4" /><rect x="670.11" y="284.38" width="6" height="4.92" rx="1.5" fill="#0ecb81" /><line x1="683.85" y1="282.98" x2="683.85" y2="356.25" stroke="#f6465d" stroke-width="1.4" /><rect x="680.85" y="284.15" width="6" height="62.27" rx="1.5" fill="#f6465d" /><line x1="694.58" y1="332.84" x2="694.58" y2="414.78" stroke="#f6465d" stroke-width="1.4" /><rect x="691.58" y="346.42" width="6" height="51.50" rx="1.5" fill="#f6465d" /><line x1="705.32" y1="381.77" x2="705.32" y2="407.05" stroke="#0ecb81" stroke-width="1.4" /><rect x="702.32" y="382.70" width="6" height="15.22" rx="1.5" fill="#0ecb81" /><line x1="716.05" y1="382.70" x2="716.05" y2="417.35" stroke="#f6465d" stroke-width="1.4" /><rect x="713.05" y="382.70" width="6" height="30.90" rx="1.5" fill="#f6465d" /><line x1="726.78" y1="380.83" x2="726.78" y2="452.00" stroke="#0ecb81" stroke-width="1.4" /><rect x="723.78" y="396.28" width="6" height="17.09" rx="1.5" fill="#0ecb81" /><line x1="737.52" y1="376.38" x2="737.52" y2="411.03" stroke="#f6465d" stroke-width="1.4" /><rect x="734.52" y="396.28" width="6" height="2.00" rx="1.5" fill="#f6465d" /><line x1="748.25" y1="388.79" x2="748.25" y2="406.35" stroke="#f6465d" stroke-width="1.4" /><rect x="745.25" y="397.69" width="6" height="2.00" rx="1.5" fill="#f6465d" /><line x1="758.99" y1="378.49" x2="758.99" y2="401.20" stroke="#0ecb81" stroke-width="1.4" /><rect x="755.99" y="397.22" width="6" height="2.00" rx="1.5" fill="#0ecb81" /><line x1="769.72" y1="369.59" x2="769.72" y2="397.69" stroke="#0ecb81" stroke-width="1.4" /><rect x="766.72" y="375.45" width="6" height="22.01" rx="1.5" fill="#0ecb81" /><line x1="780.46" y1="363.04" x2="780.46" y2="382.94" stroke="#0ecb81" stroke-width="1.4" /><rect x="777.46" y="370.06" width="6" height="5.38" rx="1.5" fill="#0ecb81" /><line x1="791.19" y1="352.04" x2="791.19" y2="393.94" stroke="#0ecb81" stroke-width="1.4" /><rect x="788.19" y="366.08" width="6" height="4.21" rx="1.5" fill="#0ecb81" /><line x1="801.92" y1="358.12" x2="801.92" y2="377.32" stroke="#f6465d" stroke-width="1.4" /><rect x="798.92" y="366.08" width="6" height="3.28" rx="1.5" fill="#f6465d" /><line x1="812.66" y1="357.89" x2="812.66" y2="375.45" stroke="#0ecb81" stroke-width="1.4" /><rect x="809.66" y="364.91" width="6" height="4.45" rx="1.5" fill="#0ecb81" /><line x1="823.39" y1="364.44" x2="823.39" y2="373.81" stroke="#f6465d" stroke-width="1.4" /><rect x="820.39" y="364.91" width="6" height="5.15" rx="1.5" fill="#f6465d" /><line x1="834.13" y1="361.40" x2="834.13" y2="371.70" stroke="#0ecb81" stroke-width="1.4" /><rect x="831.13" y="366.79" width="6" height="3.51" rx="1.5" fill="#0ecb81" /><line x1="844.86" y1="364.91" x2="844.86" y2="376.62" stroke="#f6465d" stroke-width="1.4" /><rect x="841.86" y="367.02" width="6" height="2.81" rx="1.5" fill="#f6465d" /><line x1="855.59" y1="334.71" x2="855.59" y2="384.11" stroke="#0ecb81" stroke-width="1.4" /><rect x="852.59" y="348.53" width="6" height="21.07" rx="1.5" fill="#0ecb81" /><line x1="866.33" y1="342.67" x2="866.33" y2="360.00" stroke="#f6465d" stroke-width="1.4" /><rect x="863.33" y="348.53" width="6" height="5.85" rx="1.5" fill="#f6465d" /><line x1="877.06" y1="349.23" x2="877.06" y2="360.00" stroke="#f6465d" stroke-width="1.4" /><rect x="874.06" y="354.38" width="6" height="2.00" rx="1.5" fill="#f6465d" /><line x1="887.80" y1="354.14" x2="887.80" y2="366.55" stroke="#f6465d" stroke-width="1.4" /><rect x="884.80" y="354.61" width="6" height="6.55" rx="1.5" fill="#f6465d" /><line x1="898.53" y1="360.93" x2="898.53" y2="389.49" stroke="#f6465d" stroke-width="1.4" /><rect x="895.53" y="361.40" width="6" height="22.24" rx="1.5" fill="#f6465d" /><line x1="909.27" y1="368.42" x2="909.27" y2="385.51" stroke="#0ecb81" stroke-width="1.4" /><rect x="906.27" y="376.38" width="6" height="7.49" rx="1.5" fill="#0ecb81" /><line x1="920.00" y1="374.98" x2="920.00" y2="403.07" stroke="#f6465d" stroke-width="1.4" /><rect x="917.00" y="376.15" width="6" height="20.60" rx="1.5" fill="#f6465d" />
  <polyline points="404.76,271.27 490.63,401.90 522.84,256.52 587.24,375.68 673.11,218.83" fill="none" stroke="#2fc273" stroke-width="4" stroke-linecap="round" stroke-linejoin="round" />
  <circle cx="404.76" cy="271.27" r="5.5" fill="#2fc273" fill-opacity="0.15" stroke="#2fc273" stroke-width="2" /><text x="404.76" y="259.27" fill="#f3f4f6" font-size="15" font-weight="700" text-anchor="middle">X</text><circle cx="490.63" cy="401.90" r="5.5" fill="#2fc273" fill-opacity="0.15" stroke="#2fc273" stroke-width="2" /><text x="490.63" y="389.90" fill="#f3f4f6" font-size="15" font-weight="700" text-anchor="middle">A</text><circle cx="522.84" cy="256.52" r="5.5" fill="#2fc273" fill-opacity="0.15" stroke="#2fc273" stroke-width="2" /><text x="522.84" y="244.52" fill="#f3f4f6" font-size="15" font-weight="700" text-anchor="middle">B</text><circle cx="587.24" cy="375.68" r="5.5" fill="#2fc273" fill-opacity="0.15" stroke="#2fc273" stroke-width="2" /><text x="587.24" y="363.68" fill="#f3f4f6" font-size="15" font-weight="700" text-anchor="middle">C</text><circle cx="673.11" cy="218.83" r="5.5" fill="#2fc273" fill-opacity="0.15" stroke="#2fc273" stroke-width="2" /><text x="673.11" y="206.83" fill="#f3f4f6" font-size="15" font-weight="700" text-anchor="middle">D</text>
  <text x="56" y="492" fill="#8ba0b5" font-size="18">일반 완성 · TP1 84.031 · TP2 82.449 · SL 87.315</text>
</svg>
