<svg xmlns="http://www.w3.org/2000/svg" width="960" height="540" viewBox="0 0 960 540">
  <rect width="960" height="540" rx="24" fill="#0b1220" />
  <rect x="28" y="28" width="904" height="484" rx="22" fill="#111827" stroke="#1f2937" />
  <text x="56" y="74" fill="#f3f4f6" font-size="34" font-weight="700">SOLVUSDT · AB=CD</text>
  <text x="904" y="74" fill="#8ba0b5" font-size="20" text-anchor="end">Bullish (매수) · Score 78.9</text>
  <line x1="72" y1="58" x2="920" y2="58" stroke="#223045" stroke-width="1" stroke-dasharray="4 8" /><line x1="72" y1="156" x2="920" y2="156" stroke="#223045" stroke-width="1" stroke-dasharray="4 8" /><line x1="72" y1="255" x2="920" y2="255" stroke="#223045" stroke-width="1" stroke-dasharray="4 8" /><line x1="72" y1="353" x2="920" y2="353" stroke="#223045" stroke-width="1" stroke-dasharray="4 8" /><line x1="72" y1="452" x2="920" y2="452" stroke="#223045" stroke-width="1" stroke-dasharray="4 8" />
  <rect x="462.63" y="453.76" width="84" height="8.40" fill="#fbbf24" fill-opacity="0.12" stroke="#fbbf24" stroke-width="1.5" stroke-dasharray="6 6" />
  <line x1="72.00" y1="422.43" x2="72.00" y2="430.95" stroke="#0ecb81" stroke-width="1.4" /><rect x="69.00" y="425.35" width="6" height="2.00" rx="1.5" fill="#0ecb81" /><line x1="82.73" y1="421.94" x2="82.73" y2="426.26" stroke="#0ecb81" stroke-width="1.4" /><rect x="79.73" y="425.10" width="6" height="2.00" rx="1.5" fill="#0ecb81" /><line x1="93.47" y1="424.50" x2="93.47" y2="427.30" stroke="#0ecb81" stroke-width="1.4" /><rect x="90.47" y="424.86" width="6" height="2.00" rx="1.5" fill="#0ecb81" /><line x1="104.20" y1="421.51" x2="104.20" y2="425.41" stroke="#0ecb81" stroke-width="1.4" /><rect x="101.20" y="423.52" width="6" height="2.00" rx="1.5" fill="#0ecb81" /><line x1="114.94" y1="422.97" x2="114.94" y2="427.11" stroke="#f6465d" stroke-width="1.4" /><rect x="111.94" y="423.52" width="6" height="2.74" rx="1.5" fill="#f6465d" /><line x1="125.67" y1="425.96" x2="125.67" y2="429.12" stroke="#f6465d" stroke-width="1.4" /><rect x="122.67" y="426.26" width="6" height="2.00" rx="1.5" fill="#f6465d" /><line x1="136.41" y1="426.69" x2="136.41" y2="431.98" stroke="#f6465d" stroke-width="1.4" /><rect x="133.41" y="427.05" width="6" height="3.89" rx="1.5" fill="#f6465d" /><line x1="147.14" y1="431.01" x2="147.14" y2="435.33" stroke="#f6465d" stroke-width="1.4" /><rect x="144.14" y="431.01" width="6" height="2.13" rx="1.5" fill="#f6465d" /><line x1="157.87" y1="430.22" x2="157.87" y2="434.23" stroke="#0ecb81" stroke-width="1.4" /><rect x="154.87" y="431.49" width="6" height="2.00" rx="1.5" fill="#0ecb81" /><line x1="168.61" y1="428.76" x2="168.61" y2="431.68" stroke="#0ecb81" stroke-width="1.4" /><rect x="165.61" y="429.49" width="6" height="2.01" rx="1.5" fill="#0ecb81" /><line x1="179.34" y1="428.69" x2="179.34" y2="433.38" stroke="#f6465d" stroke-width="1.4" /><rect x="176.34" y="429.49" width="6" height="2.49" rx="1.5" fill="#f6465d" /><line x1="190.08" y1="431.55" x2="190.08" y2="434.48" stroke="#f6465d" stroke-width="1.4" /><rect x="187.08" y="431.98" width="6" height="2.00" rx="1.5" fill="#f6465d" /><line x1="200.81" y1="431.86" x2="200.81" y2="434.78" stroke="#f6465d" stroke-width="1.4" /><rect x="197.81" y="433.01" width="6" height="2.00" rx="1.5" fill="#f6465d" /><line x1="211.54" y1="433.56" x2="211.54" y2="437.34" stroke="#f6465d" stroke-width="1.4" /><rect x="208.54" y="434.11" width="6" height="2.00" rx="1.5" fill="#f6465d" /><line x1="222.28" y1="431.98" x2="222.28" y2="436.24" stroke="#0ecb81" stroke-width="1.4" /><rect x="219.28" y="435.08" width="6" height="2.00" rx="1.5" fill="#0ecb81" /><line x1="233.01" y1="433.14" x2="233.01" y2="436.36" stroke="#0ecb81" stroke-width="1.4" /><rect x="230.01" y="433.38" width="6" height="2.00" rx="1.5" fill="#0ecb81" /><line x1="243.75" y1="432.04" x2="243.75" y2="440.38" stroke="#f6465d" stroke-width="1.4" /><rect x="240.75" y="433.38" width="6" height="6.39" rx="1.5" fill="#f6465d" /><line x1="254.48" y1="439.53" x2="254.48" y2="446.34" stroke="#f6465d" stroke-width="1.4" /><rect x="251.48" y="439.77" width="6" height="5.11" rx="1.5" fill="#f6465d" /><line x1="265.22" y1="441.53" x2="265.22" y2="447.50" stroke="#0ecb81" stroke-width="1.4" /><rect x="262.22" y="442.51" width="6" height="2.37" rx="1.5" fill="#0ecb81" /><line x1="275.95" y1="434.05" x2="275.95" y2="442.87" stroke="#0ecb81" stroke-width="1.4" /><rect x="272.95" y="436.73" width="6" height="5.90" rx="1.5" fill="#0ecb81" /><line x1="286.68" y1="434.72" x2="286.68" y2="439.83" stroke="#0ecb81" stroke-width="1.4" /><rect x="283.68" y="436.00" width="6" height="2.00" rx="1.5" fill="#0ecb81" /><line x1="297.42" y1="428.88" x2="297.42" y2="437.09" stroke="#0ecb81" stroke-width="1.4" /><rect x="294.42" y="431.19" width="6" height="4.75" rx="1.5" fill="#0ecb81" /><line x1="308.15" y1="425.83" x2="308.15" y2="431.86" stroke="#0ecb81" stroke-width="1.4" /><rect x="305.15" y="427.36" width="6" height="3.71" rx="1.5" fill="#0ecb81" /><line x1="318.89" y1="421.58" x2="318.89" y2="429.18" stroke="#0ecb81" stroke-width="1.4" /><rect x="315.89" y="423.83" width="6" height="3.47" rx="1.5" fill="#0ecb81" /><line x1="329.62" y1="423.58" x2="329.62" y2="438.19" stroke="#f6465d" stroke-width="1.4" /><rect x="326.62" y="423.77" width="6" height="14.06" rx="1.5" fill="#f6465d" /><line x1="340.35" y1="433.50" x2="340.35" y2="439.28" stroke="#0ecb81" stroke-width="1.4" /><rect x="337.35" y="435.39" width="6" height="2.37" rx="1.5" fill="#0ecb81" /><line x1="351.09" y1="431.98" x2="351.09" y2="438.92" stroke="#0ecb81" stroke-width="1.4" /><rect x="348.09" y="434.23" width="6" height="2.00" rx="1.5" fill="#0ecb81" /><line x1="361.82" y1="433.68" x2="361.82" y2="440.56" stroke="#f6465d" stroke-width="1.4" /><rect x="358.82" y="434.35" width="6" height="4.08" rx="1.5" fill="#f6465d" /><line x1="372.56" y1="438.13" x2="372.56" y2="443.24" stroke="#f6465d" stroke-width="1.4" /><rect x="369.56" y="438.43" width="6" height="4.26" rx="1.5" fill="#f6465d" /><line x1="383.29" y1="442.69" x2="383.29" y2="444.76" stroke="#f6465d" stroke-width="1.4" /><rect x="380.29" y="442.69" width="6" height="2.00" rx="1.5" fill="#f6465d" /><line x1="394.03" y1="442.93" x2="394.03" y2="446.58" stroke="#f6465d" stroke-width="1.4" /><rect x="391.03" y="443.12" width="6" height="2.00" rx="1.5" fill="#f6465d" /><line x1="404.76" y1="440.01" x2="404.76" y2="444.76" stroke="#f6465d" stroke-width="1.4" /><rect x="401.76" y="443.36" width="6" height="2.00" rx="1.5" fill="#f6465d" /><line x1="415.49" y1="440.20" x2="415.49" y2="443.79" stroke="#0ecb81" stroke-width="1.4" /><rect x="412.49" y="441.05" width="6" height="2.37" rx="1.5" fill="#0ecb81" /><line x1="426.23" y1="440.44" x2="426.23" y2="445.55" stroke="#f6465d" stroke-width="1.4" /><rect x="423.23" y="441.11" width="6" height="2.00" rx="1.5" fill="#f6465d" /><line x1="436.96" y1="441.47" x2="436.96" y2="445.12" stroke="#f6465d" stroke-width="1.4" /><rect x="433.96" y="441.59" width="6" height="2.00" rx="1.5" fill="#f6465d" /><line x1="447.70" y1="428.76" x2="447.70" y2="442.81" stroke="#0ecb81" stroke-width="1.4" /><rect x="444.70" y="432.89" width="6" height="9.31" rx="1.5" fill="#0ecb81" /><line x1="458.43" y1="431.98" x2="458.43" y2="438.43" stroke="#f6465d" stroke-width="1.4" /><rect x="455.43" y="432.89" width="6" height="4.14" rx="1.5" fill="#f6465d" /><line x1="469.16" y1="436.06" x2="469.16" y2="444.82" stroke="#f6465d" stroke-width="1.4" /><rect x="466.16" y="436.97" width="6" height="6.15" rx="1.5" fill="#f6465d" /><line x1="479.90" y1="441.47" x2="479.90" y2="445.31" stroke="#f6465d" stroke-width="1.4" /><rect x="476.90" y="443.06" width="6" height="2.00" rx="1.5" fill="#f6465d" /><line x1="490.63" y1="444.21" x2="490.63" y2="452.00" stroke="#f6465d" stroke-width="1.4" /><rect x="487.63" y="444.94" width="6" height="2.01" rx="1.5" fill="#f6465d" /><line x1="501.37" y1="439.40" x2="501.37" y2="447.38" stroke="#0ecb81" stroke-width="1.4" /><rect x="498.37" y="440.26" width="6" height="6.57" rx="1.5" fill="#0ecb81" /><line x1="512.10" y1="434.90" x2="512.10" y2="441.53" stroke="#0ecb81" stroke-width="1.4" /><rect x="509.10" y="438.55" width="6" height="2.00" rx="1.5" fill="#0ecb81" /><line x1="522.84" y1="436.73" x2="522.84" y2="443.66" stroke="#0ecb81" stroke-width="1.4" /><rect x="519.84" y="438.43" width="6" height="2.00" rx="1.5" fill="#0ecb81" /><line x1="533.57" y1="432.53" x2="533.57" y2="438.55" stroke="#0ecb81" stroke-width="1.4" /><rect x="530.57" y="435.63" width="6" height="2.74" rx="1.5" fill="#0ecb81" /><line x1="544.30" y1="434.72" x2="544.30" y2="440.80" stroke="#f6465d" stroke-width="1.4" /><rect x="541.30" y="435.63" width="6" height="3.41" rx="1.5" fill="#f6465d" /><line x1="555.04" y1="438.00" x2="555.04" y2="440.86" stroke="#f6465d" stroke-width="1.4" /><rect x="552.04" y="438.80" width="6" height="2.00" rx="1.5" fill="#f6465d" /><line x1="565.77" y1="436.97" x2="565.77" y2="440.62" stroke="#0ecb81" stroke-width="1.4" /><rect x="562.77" y="439.40" width="6" height="2.00" rx="1.5" fill="#0ecb81" /><line x1="576.51" y1="434.48" x2="576.51" y2="439.95" stroke="#0ecb81" stroke-width="1.4" /><rect x="573.51" y="436.73" width="6" height="2.68" rx="1.5" fill="#0ecb81" /><line x1="587.24" y1="434.41" x2="587.24" y2="438.80" stroke="#f6465d" stroke-width="1.4" /><rect x="584.24" y="436.73" width="6" height="2.00" rx="1.5" fill="#f6465d" /><line x1="597.97" y1="434.35" x2="597.97" y2="439.04" stroke="#0ecb81" stroke-width="1.4" /><rect x="594.97" y="437.58" width="6" height="2.00" rx="1.5" fill="#0ecb81" /><line x1="608.71" y1="418.17" x2="608.71" y2="437.58" stroke="#0ecb81" stroke-width="1.4" /><rect x="605.71" y="423.46" width="6" height="14.06" rx="1.5" fill="#0ecb81" /><line x1="619.44" y1="415.06" x2="619.44" y2="425.53" stroke="#0ecb81" stroke-width="1.4" /><rect x="616.44" y="416.71" width="6" height="6.75" rx="1.5" fill="#0ecb81" /><line x1="630.18" y1="413.42" x2="630.18" y2="419.20" stroke="#0ecb81" stroke-width="1.4" /><rect x="627.18" y="414.03" width="6" height="2.74" rx="1.5" fill="#0ecb81" /><line x1="640.91" y1="410.93" x2="640.91" y2="422.00" stroke="#f6465d" stroke-width="1.4" /><rect x="637.91" y="414.09" width="6" height="7.55" rx="1.5" fill="#f6465d" /><line x1="651.65" y1="419.75" x2="651.65" y2="424.01" stroke="#0ecb81" stroke-width="1.4" /><rect x="648.65" y="421.09" width="6" height="2.00" rx="1.5" fill="#0ecb81" /><line x1="662.38" y1="375.76" x2="662.38" y2="422.73" stroke="#0ecb81" stroke-width="1.4" /><rect x="659.38" y="383.79" width="6" height="37.30" rx="1.5" fill="#0ecb81" /><line x1="673.11" y1="376.18" x2="673.11" y2="407.09" stroke="#f6465d" stroke-width="1.4" /><rect x="670.11" y="383.42" width="6" height="16.67" rx="1.5" fill="#f6465d" /><line x1="683.85" y1="389.57" x2="683.85" y2="401.07" stroke="#0ecb81" stroke-width="1.4" /><rect x="680.85" y="392.06" width="6" height="8.09" rx="1.5" fill="#0ecb81" /><line x1="694.58" y1="389.39" x2="694.58" y2="398.64" stroke="#f6465d" stroke-width="1.4" /><rect x="691.58" y="392.12" width="6" height="2.00" rx="1.5" fill="#f6465d" /><line x1="705.32" y1="279.31" x2="705.32" y2="398.70" stroke="#0ecb81" stroke-width="1.4" /><rect x="702.32" y="291.78" width="6" height="101.68" rx="1.5" fill="#0ecb81" /><line x1="716.05" y1="210.18" x2="716.05" y2="346.24" stroke="#0ecb81" stroke-width="1.4" /><rect x="713.05" y="250.22" width="6" height="41.20" rx="1.5" fill="#0ecb81" /><line x1="726.78" y1="58.00" x2="726.78" y2="309.25" stroke="#f6465d" stroke-width="1.4" /><rect x="723.78" y="250.89" width="6" height="34.87" rx="1.5" fill="#f6465d" /><line x1="737.52" y1="224.06" x2="737.52" y2="323.55" stroke="#0ecb81" stroke-width="1.4" /><rect x="734.52" y="281.07" width="6" height="4.81" rx="1.5" fill="#0ecb81" /><line x1="748.25" y1="270.30" x2="748.25" y2="310.95" stroke="#f6465d" stroke-width="1.4" /><rect x="745.25" y="281.07" width="6" height="7.18" rx="1.5" fill="#f6465d" /><line x1="758.99" y1="288.25" x2="758.99" y2="350.50" stroke="#f6465d" stroke-width="1.4" /><rect x="755.99" y="288.32" width="6" height="49.53" rx="1.5" fill="#f6465d" /><line x1="769.72" y1="327.20" x2="769.72" y2="379.22" stroke="#f6465d" stroke-width="1.4" /><rect x="766.72" y="337.85" width="6" height="39.07" rx="1.5" fill="#f6465d" /><line x1="780.46" y1="365.84" x2="780.46" y2="382.51" stroke="#0ecb81" stroke-width="1.4" /><rect x="777.46" y="368.88" width="6" height="8.03" rx="1.5" fill="#0ecb81" /><line x1="791.19" y1="343.75" x2="791.19" y2="372.10" stroke="#0ecb81" stroke-width="1.4" /><rect x="788.19" y="352.63" width="6" height="16.13" rx="1.5" fill="#0ecb81" /><line x1="801.92" y1="350.38" x2="801.92" y2="383.97" stroke="#f6465d" stroke-width="1.4" /><rect x="798.92" y="352.75" width="6" height="25.56" rx="1.5" fill="#f6465d" /><line x1="812.66" y1="373.20" x2="812.66" y2="383.61" stroke="#0ecb81" stroke-width="1.4" /><rect x="809.66" y="375.94" width="6" height="2.37" rx="1.5" fill="#0ecb81" /><line x1="823.39" y1="349.16" x2="823.39" y2="379.10" stroke="#0ecb81" stroke-width="1.4" /><rect x="820.39" y="374.36" width="6" height="2.00" rx="1.5" fill="#0ecb81" /><line x1="834.13" y1="360.12" x2="834.13" y2="381.35" stroke="#0ecb81" stroke-width="1.4" /><rect x="831.13" y="369.43" width="6" height="4.75" rx="1.5" fill="#0ecb81" /><line x1="844.86" y1="359.57" x2="844.86" y2="376.36" stroke="#0ecb81" stroke-width="1.4" /><rect x="841.86" y="364.99" width="6" height="4.44" rx="1.5" fill="#0ecb81" /><line x1="855.59" y1="344.24" x2="855.59" y2="372.04" stroke="#0ecb81" stroke-width="1.4" /><rect x="852.59" y="362.73" width="6" height="2.37" rx="1.5" fill="#0ecb81" /><line x1="866.33" y1="297.44" x2="866.33" y2="368.15" stroke="#0ecb81" stroke-width="1.4" /><rect x="863.33" y="318.80" width="6" height="44.12" rx="1.5" fill="#0ecb81" /><line x1="877.06" y1="306.08" x2="877.06" y2="336.69" stroke="#f6465d" stroke-width="1.4" /><rect x="874.06" y="318.68" width="6" height="7.79" rx="1.5" fill="#f6465d" /><line x1="887.80" y1="307.42" x2="887.80" y2="334.20" stroke="#0ecb81" stroke-width="1.4" /><rect x="884.80" y="325.43" width="6" height="2.00" rx="1.5" fill="#0ecb81" /><line x1="898.53" y1="278.58" x2="898.53" y2="329.21" stroke="#0ecb81" stroke-width="1.4" /><rect x="895.53" y="295.37" width="6" height="30.06" rx="1.5" fill="#0ecb81" /><line x1="909.27" y1="276.81" x2="909.27" y2="308.15" stroke="#0ecb81" stroke-width="1.4" /><rect x="906.27" y="291.05" width="6" height="4.32" rx="1.5" fill="#0ecb81" /><line x1="920.00" y1="290.81" x2="920.00" y2="331.21" stroke="#f6465d" stroke-width="1.4" /><rect x="917.00" y="290.93" width="6" height="24.28" rx="1.5" fill="#f6465d" />
  <polyline points="265.22,447.50 318.89,421.58 394.03,446.58 447.70,428.76 490.63,452.00" fill="none" stroke="#2fc273" stroke-width="4" stroke-linecap="round" stroke-linejoin="round" />
  <circle cx="265.22" cy="447.50" r="5.5" fill="#2fc273" fill-opacity="0.15" stroke="#2fc273" stroke-width="2" /><text x="265.22" y="435.50" fill="#f3f4f6" font-size="15" font-weight="700" text-anchor="middle">X</text><circle cx="318.89" cy="421.58" r="5.5" fill="#2fc273" fill-opacity="0.15" stroke="#2fc273" stroke-width="2" /><text x="318.89" y="409.58" fill="#f3f4f6" font-size="15" font-weight="700" text-anchor="middle">A</text><circle cx="394.03" cy="446.58" r="5.5" fill="#2fc273" fill-opacity="0.15" stroke="#2fc273" stroke-width="2" /><text x="394.03" y="434.58" fill="#f3f4f6" font-size="15" font-weight="700" text-anchor="middle">B</text><circle cx="447.70" cy="428.76" r="5.5" fill="#2fc273" fill-opacity="0.15" stroke="#2fc273" stroke-width="2" /><text x="447.70" y="416.76" fill="#f3f4f6" font-size="15" font-weight="700" text-anchor="middle">C</text><circle cx="490.63" cy="452.00" r="5.5" fill="#2fc273" fill-opacity="0.15" stroke="#2fc273" stroke-width="2" /><text x="490.63" y="440.00" fill="#f3f4f6" font-size="15" font-weight="700" text-anchor="middle">D</text>
  <text x="56" y="492" fill="#8ba0b5" font-size="18">일반 완성 · TP1 0.003036 · TP2 0.003126 · SL 0.002835</text>
</svg>
