<svg xmlns="http://www.w3.org/2000/svg" width="960" height="540" viewBox="0 0 960 540">
  <rect width="960" height="540" rx="24" fill="#0b1220" />
  <rect x="28" y="28" width="904" height="484" rx="22" fill="#111827" stroke="#1f2937" />
  <text x="56" y="74" fill="#f3f4f6" font-size="34" font-weight="700">SUIUSDT · AB=CD</text>
  <text x="904" y="74" fill="#8ba0b5" font-size="20" text-anchor="end">Bullish (매수) · Score 86.2</text>
  <line x1="72" y1="58" x2="920" y2="58" stroke="#223045" stroke-width="1" stroke-dasharray="4 8" /><line x1="72" y1="156" x2="920" y2="156" stroke="#223045" stroke-width="1" stroke-dasharray="4 8" /><line x1="72" y1="255" x2="920" y2="255" stroke="#223045" stroke-width="1" stroke-dasharray="4 8" /><line x1="72" y1="353" x2="920" y2="353" stroke="#223045" stroke-width="1" stroke-dasharray="4 8" /><line x1="72" y1="452" x2="920" y2="452" stroke="#223045" stroke-width="1" stroke-dasharray="4 8" />
  <rect x="398.23" y="359.72" width="84" height="84.44" fill="#fbbf24" fill-opacity="0.12" stroke="#fbbf24" stroke-width="1.5" stroke-dasharray="6 6" />
  <line x1="72.00" y1="338.68" x2="72.00" y2="437.18" stroke="#f6465d" stroke-width="1.4" /><rect x="69.00" y="346.33" width="6" height="50.21" rx="1.5" fill="#f6465d" /><line x1="82.73" y1="387.45" x2="82.73" y2="452.00" stroke="#f6465d" stroke-width="1.4" /><rect x="79.73" y="396.53" width="6" height="39.69" rx="1.5" fill="#f6465d" /><line x1="93.47" y1="367.37" x2="93.47" y2="439.57" stroke="#0ecb81" stroke-width="1.4" /><rect x="90.47" y="371.19" width="6" height="64.55" rx="1.5" fill="#0ecb81" /><line x1="104.20" y1="367.84" x2="104.20" y2="404.18" stroke="#f6465d" stroke-width="1.4" /><rect x="101.20" y="371.19" width="6" height="8.13" rx="1.5" fill="#f6465d" /><line x1="114.94" y1="326.25" x2="114.94" y2="396.06" stroke="#0ecb81" stroke-width="1.4" /><rect x="111.94" y="342.98" width="6" height="36.82" rx="1.5" fill="#0ecb81" /><line x1="125.67" y1="277.47" x2="125.67" y2="343.94" stroke="#0ecb81" stroke-width="1.4" /><rect x="122.67" y="313.81" width="6" height="29.17" rx="1.5" fill="#0ecb81" /><line x1="136.41" y1="298.99" x2="136.41" y2="342.02" stroke="#f6465d" stroke-width="1.4" /><rect x="133.41" y="313.81" width="6" height="8.61" rx="1.5" fill="#f6465d" /><line x1="147.14" y1="320.03" x2="147.14" y2="361.15" stroke="#f6465d" stroke-width="1.4" /><rect x="144.14" y="321.94" width="6" height="29.17" rx="1.5" fill="#f6465d" /><line x1="157.87" y1="319.07" x2="157.87" y2="363.06" stroke="#0ecb81" stroke-width="1.4" /><rect x="154.87" y="341.07" width="6" height="10.04" rx="1.5" fill="#0ecb81" /><line x1="168.61" y1="331.03" x2="168.61" y2="361.15" stroke="#f6465d" stroke-width="1.4" /><rect x="165.61" y="341.07" width="6" height="10.52" rx="1.5" fill="#f6465d" /><line x1="179.34" y1="292.30" x2="179.34" y2="376.45" stroke="#0ecb81" stroke-width="1.4" /><rect x="176.34" y="309.99" width="6" height="41.12" rx="1.5" fill="#0ecb81" /><line x1="190.08" y1="301.86" x2="190.08" y2="328.64" stroke="#f6465d" stroke-width="1.4" /><rect x="187.08" y="309.51" width="6" height="14.82" rx="1.5" fill="#f6465d" /><line x1="200.81" y1="192.36" x2="200.81" y2="325.29" stroke="#0ecb81" stroke-width="1.4" /><rect x="197.81" y="250.22" width="6" height="73.64" rx="1.5" fill="#0ecb81" /><line x1="211.54" y1="210.05" x2="211.54" y2="293.25" stroke="#f6465d" stroke-width="1.4" /><rect x="208.54" y="250.70" width="6" height="5.74" rx="1.5" fill="#f6465d" /><line x1="222.28" y1="240.18" x2="222.28" y2="285.12" stroke="#0ecb81" stroke-width="1.4" /><rect x="219.28" y="255.00" width="6" height="2.00" rx="1.5" fill="#0ecb81" /><line x1="233.01" y1="230.14" x2="233.01" y2="272.21" stroke="#0ecb81" stroke-width="1.4" /><rect x="230.01" y="246.39" width="6" height="8.61" rx="1.5" fill="#0ecb81" /><line x1="243.75" y1="215.31" x2="243.75" y2="281.78" stroke="#0ecb81" stroke-width="1.4" /><rect x="240.75" y="227.75" width="6" height="18.65" rx="1.5" fill="#0ecb81" /><line x1="254.48" y1="169.89" x2="254.48" y2="245.92" stroke="#0ecb81" stroke-width="1.4" /><rect x="251.48" y="221.53" width="6" height="6.22" rx="1.5" fill="#0ecb81" /><line x1="265.22" y1="206.71" x2="265.22" y2="249.74" stroke="#f6465d" stroke-width="1.4" /><rect x="262.22" y="221.53" width="6" height="5.26" rx="1.5" fill="#f6465d" /><line x1="275.95" y1="193.80" x2="275.95" y2="243.05" stroke="#0ecb81" stroke-width="1.4" /><rect x="272.95" y="226.31" width="6" height="2.00" rx="1.5" fill="#0ecb81" /><line x1="286.68" y1="190.45" x2="286.68" y2="240.66" stroke="#0ecb81" stroke-width="1.4" /><rect x="283.68" y="206.71" width="6" height="20.08" rx="1.5" fill="#0ecb81" /><line x1="297.42" y1="190.45" x2="297.42" y2="298.51" stroke="#f6465d" stroke-width="1.4" /><rect x="294.42" y="206.71" width="6" height="87.98" rx="1.5" fill="#f6465d" /><line x1="308.15" y1="279.86" x2="308.15" y2="330.07" stroke="#0ecb81" stroke-width="1.4" /><rect x="305.15" y="281.30" width="6" height="13.39" rx="1.5" fill="#0ecb81" /><line x1="318.89" y1="246.87" x2="318.89" y2="304.25" stroke="#0ecb81" stroke-width="1.4" /><rect x="315.89" y="247.35" width="6" height="33.95" rx="1.5" fill="#0ecb81" /><line x1="329.62" y1="208.62" x2="329.62" y2="253.09" stroke="#0ecb81" stroke-width="1.4" /><rect x="326.62" y="237.31" width="6" height="9.56" rx="1.5" fill="#0ecb81" /><line x1="340.35" y1="199.53" x2="340.35" y2="239.70" stroke="#0ecb81" stroke-width="1.4" /><rect x="337.35" y="217.70" width="6" height="19.60" rx="1.5" fill="#0ecb81" /><line x1="351.09" y1="213.40" x2="351.09" y2="258.83" stroke="#f6465d" stroke-width="1.4" /><rect x="348.09" y="217.23" width="6" height="16.74" rx="1.5" fill="#f6465d" /><line x1="361.82" y1="224.88" x2="361.82" y2="275.56" stroke="#f6465d" stroke-width="1.4" /><rect x="358.82" y="233.96" width="6" height="26.78" rx="1.5" fill="#f6465d" /><line x1="372.56" y1="207.18" x2="372.56" y2="327.68" stroke="#f6465d" stroke-width="1.4" /><rect x="369.56" y="260.74" width="6" height="42.56" rx="1.5" fill="#f6465d" /><line x1="383.29" y1="270.78" x2="383.29" y2="312.86" stroke="#0ecb81" stroke-width="1.4" /><rect x="380.29" y="277.95" width="6" height="25.82" rx="1.5" fill="#0ecb81" /><line x1="394.03" y1="258.35" x2="394.03" y2="287.04" stroke="#f6465d" stroke-width="1.4" /><rect x="391.03" y="277.47" width="6" height="8.13" rx="1.5" fill="#f6465d" /><line x1="404.76" y1="271.26" x2="404.76" y2="325.29" stroke="#f6465d" stroke-width="1.4" /><rect x="401.76" y="285.60" width="6" height="12.91" rx="1.5" fill="#f6465d" /><line x1="415.49" y1="291.82" x2="415.49" y2="365.45" stroke="#f6465d" stroke-width="1.4" /><rect x="412.49" y="298.51" width="6" height="32.51" rx="1.5" fill="#f6465d" /><line x1="426.23" y1="326.72" x2="426.23" y2="397.97" stroke="#0ecb81" stroke-width="1.4" /><rect x="423.23" y="327.20" width="6" height="3.83" rx="1.5" fill="#0ecb81" /><line x1="436.96" y1="296.60" x2="436.96" y2="341.55" stroke="#0ecb81" stroke-width="1.4" /><rect x="433.96" y="315.73" width="6" height="11.48" rx="1.5" fill="#0ecb81" /><line x1="447.70" y1="261.69" x2="447.70" y2="324.33" stroke="#0ecb81" stroke-width="1.4" /><rect x="444.70" y="284.17" width="6" height="31.56" rx="1.5" fill="#0ecb81" /><line x1="458.43" y1="266.00" x2="458.43" y2="296.60" stroke="#f6465d" stroke-width="1.4" /><rect x="455.43" y="284.17" width="6" height="4.30" rx="1.5" fill="#f6465d" /><line x1="469.16" y1="110.12" x2="469.16" y2="290.38" stroke="#0ecb81" stroke-width="1.4" /><rect x="466.16" y="149.33" width="6" height="139.14" rx="1.5" fill="#0ecb81" /><line x1="479.90" y1="126.85" x2="479.90" y2="188.54" stroke="#0ecb81" stroke-width="1.4" /><rect x="476.90" y="134.98" width="6" height="13.87" rx="1.5" fill="#0ecb81" /><line x1="490.63" y1="118.25" x2="490.63" y2="163.67" stroke="#0ecb81" stroke-width="1.4" /><rect x="487.63" y="134.03" width="6" height="2.00" rx="1.5" fill="#0ecb81" /><line x1="501.37" y1="126.85" x2="501.37" y2="198.10" stroke="#f6465d" stroke-width="1.4" /><rect x="498.37" y="133.55" width="6" height="44.47" rx="1.5" fill="#f6465d" /><line x1="512.10" y1="141.20" x2="512.10" y2="193.80" stroke="#f6465d" stroke-width="1.4" /><rect x="509.10" y="178.02" width="6" height="3.35" rx="1.5" fill="#f6465d" /><line x1="522.84" y1="160.80" x2="522.84" y2="189.97" stroke="#0ecb81" stroke-width="1.4" /><rect x="519.84" y="172.28" width="6" height="9.08" rx="1.5" fill="#0ecb81" /><line x1="533.57" y1="106.77" x2="533.57" y2="181.84" stroke="#0ecb81" stroke-width="1.4" /><rect x="530.57" y="147.89" width="6" height="24.39" rx="1.5" fill="#0ecb81" /><line x1="544.30" y1="142.63" x2="544.30" y2="222.49" stroke="#f6465d" stroke-width="1.4" /><rect x="541.30" y="147.42" width="6" height="49.25" rx="1.5" fill="#f6465d" /><line x1="555.04" y1="137.85" x2="555.04" y2="202.88" stroke="#0ecb81" stroke-width="1.4" /><rect x="552.04" y="168.93" width="6" height="27.25" rx="1.5" fill="#0ecb81" /><line x1="565.77" y1="117.29" x2="565.77" y2="212.44" stroke="#0ecb81" stroke-width="1.4" /><rect x="562.77" y="143.59" width="6" height="25.34" rx="1.5" fill="#0ecb81" /><line x1="576.51" y1="141.68" x2="576.51" y2="248.78" stroke="#f6465d" stroke-width="1.4" /><rect x="573.51" y="143.59" width="6" height="85.11" rx="1.5" fill="#f6465d" /><line x1="587.24" y1="222.01" x2="587.24" y2="274.13" stroke="#f6465d" stroke-width="1.4" /><rect x="584.24" y="228.70" width="6" height="2.00" rx="1.5" fill="#f6465d" /><line x1="597.97" y1="169.41" x2="597.97" y2="251.65" stroke="#0ecb81" stroke-width="1.4" /><rect x="594.97" y="188.54" width="6" height="40.64" rx="1.5" fill="#0ecb81" /><line x1="608.71" y1="176.58" x2="608.71" y2="215.79" stroke="#f6465d" stroke-width="1.4" /><rect x="605.71" y="188.54" width="6" height="11.95" rx="1.5" fill="#f6465d" /><line x1="619.44" y1="182.32" x2="619.44" y2="269.34" stroke="#f6465d" stroke-width="1.4" /><rect x="616.44" y="200.97" width="6" height="45.90" rx="1.5" fill="#f6465d" /><line x1="630.18" y1="200.97" x2="630.18" y2="265.04" stroke="#0ecb81" stroke-width="1.4" /><rect x="627.18" y="222.01" width="6" height="24.86" rx="1.5" fill="#0ecb81" /><line x1="640.91" y1="222.01" x2="640.91" y2="291.82" stroke="#f6465d" stroke-width="1.4" /><rect x="637.91" y="222.49" width="6" height="58.33" rx="1.5" fill="#f6465d" /><line x1="651.65" y1="242.57" x2="651.65" y2="324.81" stroke="#0ecb81" stroke-width="1.4" /><rect x="648.65" y="258.35" width="6" height="22.00" rx="1.5" fill="#0ecb81" /><line x1="662.38" y1="254.04" x2="662.38" y2="333.90" stroke="#f6465d" stroke-width="1.4" /><rect x="659.38" y="257.87" width="6" height="9.56" rx="1.5" fill="#f6465d" /><line x1="673.11" y1="217.70" x2="673.11" y2="277.47" stroke="#0ecb81" stroke-width="1.4" /><rect x="670.11" y="247.83" width="6" height="19.60" rx="1.5" fill="#0ecb81" /><line x1="683.85" y1="233.00" x2="683.85" y2="258.83" stroke="#0ecb81" stroke-width="1.4" /><rect x="680.85" y="241.13" width="6" height="6.69" rx="1.5" fill="#0ecb81" /><line x1="694.58" y1="229.18" x2="694.58" y2="250.22" stroke="#0ecb81" stroke-width="1.4" /><rect x="691.58" y="229.66" width="6" height="11.00" rx="1.5" fill="#0ecb81" /><line x1="705.32" y1="228.70" x2="705.32" y2="269.34" stroke="#f6465d" stroke-width="1.4" /><rect x="702.32" y="229.18" width="6" height="30.12" rx="1.5" fill="#f6465d" /><line x1="716.05" y1="244.00" x2="716.05" y2="274.13" stroke="#f6465d" stroke-width="1.4" /><rect x="713.05" y="258.83" width="6" height="4.78" rx="1.5" fill="#f6465d" /><line x1="726.78" y1="247.83" x2="726.78" y2="282.25" stroke="#f6465d" stroke-width="1.4" /><rect x="723.78" y="263.13" width="6" height="2.00" rx="1.5" fill="#f6465d" /><line x1="737.52" y1="224.88" x2="737.52" y2="268.39" stroke="#0ecb81" stroke-width="1.4" /><rect x="734.52" y="231.09" width="6" height="32.99" rx="1.5" fill="#0ecb81" /><line x1="748.25" y1="210.53" x2="748.25" y2="244.96" stroke="#0ecb81" stroke-width="1.4" /><rect x="745.25" y="224.88" width="6" height="6.22" rx="1.5" fill="#0ecb81" /><line x1="758.99" y1="203.84" x2="758.99" y2="236.83" stroke="#f6465d" stroke-width="1.4" /><rect x="755.99" y="224.40" width="6" height="6.22" rx="1.5" fill="#f6465d" /><line x1="769.72" y1="208.62" x2="769.72" y2="238.74" stroke="#0ecb81" stroke-width="1.4" /><rect x="766.72" y="217.23" width="6" height="13.39" rx="1.5" fill="#0ecb81" /><line x1="780.46" y1="157.46" x2="780.46" y2="223.92" stroke="#0ecb81" stroke-width="1.4" /><rect x="777.46" y="193.80" width="6" height="23.43" rx="1.5" fill="#0ecb81" /><line x1="791.19" y1="169.41" x2="791.19" y2="204.32" stroke="#0ecb81" stroke-width="1.4" /><rect x="788.19" y="187.58" width="6" height="6.69" rx="1.5" fill="#0ecb81" /><line x1="801.92" y1="179.93" x2="801.92" y2="239.70" stroke="#f6465d" stroke-width="1.4" /><rect x="798.92" y="187.10" width="6" height="10.04" rx="1.5" fill="#f6465d" /><line x1="812.66" y1="174.67" x2="812.66" y2="217.23" stroke="#0ecb81" stroke-width="1.4" /><rect x="809.66" y="195.23" width="6" height="2.00" rx="1.5" fill="#0ecb81" /><line x1="823.39" y1="150.28" x2="823.39" y2="205.75" stroke="#0ecb81" stroke-width="1.4" /><rect x="820.39" y="191.41" width="6" height="3.83" rx="1.5" fill="#0ecb81" /><line x1="834.13" y1="190.45" x2="834.13" y2="244.48" stroke="#f6465d" stroke-width="1.4" /><rect x="831.13" y="191.41" width="6" height="15.30" rx="1.5" fill="#f6465d" /><line x1="844.86" y1="165.58" x2="844.86" y2="246.39" stroke="#0ecb81" stroke-width="1.4" /><rect x="841.86" y="171.32" width="6" height="35.86" rx="1.5" fill="#0ecb81" /><line x1="855.59" y1="113.94" x2="855.59" y2="205.75" stroke="#0ecb81" stroke-width="1.4" /><rect x="852.59" y="118.73" width="6" height="53.08" rx="1.5" fill="#0ecb81" /><line x1="866.33" y1="76.17" x2="866.33" y2="150.28" stroke="#0ecb81" stroke-width="1.4" /><rect x="863.33" y="109.64" width="6" height="9.08" rx="1.5" fill="#0ecb81" /><line x1="877.06" y1="93.38" x2="877.06" y2="145.50" stroke="#f6465d" stroke-width="1.4" /><rect x="874.06" y="109.16" width="6" height="13.87" rx="1.5" fill="#f6465d" /><line x1="887.80" y1="91.95" x2="887.80" y2="141.20" stroke="#0ecb81" stroke-width="1.4" /><rect x="884.80" y="104.86" width="6" height="18.17" rx="1.5" fill="#0ecb81" /><line x1="898.53" y1="58.00" x2="898.53" y2="119.68" stroke="#0ecb81" stroke-width="1.4" /><rect x="895.53" y="62.30" width="6" height="42.56" rx="1.5" fill="#0ecb81" /><line x1="909.27" y1="60.39" x2="909.27" y2="123.51" stroke="#f6465d" stroke-width="1.4" /><rect x="906.27" y="61.83" width="6" height="39.69" rx="1.5" fill="#f6465d" /><line x1="920.00" y1="92.91" x2="920.00" y2="121.59" stroke="#f6465d" stroke-width="1.4" /><rect x="917.00" y="101.51" width="6" height="16.26" rx="1.5" fill="#f6465d" />
  <polyline points="179.34,376.45 254.48,169.89 308.15,330.07 340.35,199.53 426.23,397.97" fill="none" stroke="#2fc273" stroke-width="4" stroke-linecap="round" stroke-linejoin="round" />
  <circle cx="179.34" cy="376.45" r="5.5" fill="#2fc273" fill-opacity="0.15" stroke="#2fc273" stroke-width="2" /><text x="179.34" y="364.45" fill="#f3f4f6" font-size="15" font-weight="700" text-anchor="middle">X</text><circle cx="254.48" cy="169.89" r="5.5" fill="#2fc273" fill-opacity="0.15" stroke="#2fc273" stroke-width="2" /><text x="254.48" y="157.89" fill="#f3f4f6" font-size="15" font-weight="700" text-anchor="middle">A</text><circle cx="308.15" cy="330.07" r="5.5" fill="#2fc273" fill-opacity="0.15" stroke="#2fc273" stroke-width="2" /><text x="308.15" y="318.07" fill="#f3f4f6" font-size="15" font-weight="700" text-anchor="middle">B</text><circle cx="340.35" cy="199.53" r="5.5" fill="#2fc273" fill-opacity="0.15" stroke="#2fc273" stroke-width="2" /><text x="340.35" y="187.53" fill="#f3f4f6" font-size="15" font-weight="700" text-anchor="middle">C</text><circle cx="426.23" cy="397.97" r="5.5" fill="#2fc273" fill-opacity="0.15" stroke="#2fc273" stroke-width="2" /><text x="426.23" y="385.97" fill="#f3f4f6" font-size="15" font-weight="700" text-anchor="middle">D</text>
  <text x="56" y="492" fill="#8ba0b5" font-size="18">Complete · TP1 0.72275 · TP2 0.73255 · SL 0.70128</text>
</svg>
