<svg xmlns="http://www.w3.org/2000/svg" width="960" height="540" viewBox="0 0 960 540">
  <rect width="960" height="540" rx="24" fill="#0b1220" />
  <rect x="28" y="28" width="904" height="484" rx="22" fill="#111827" stroke="#1f2937" />
  <text x="56" y="74" fill="#f3f4f6" font-size="34" font-weight="700">TAOUSDT · AB=CD</text>
  <text x="904" y="74" fill="#8ba0b5" font-size="20" text-anchor="end">Bullish (매수) · Score 80.9</text>
  <line x1="72" y1="58" x2="920" y2="58" stroke="#223045" stroke-width="1" stroke-dasharray="4 8" /><line x1="72" y1="156" x2="920" y2="156" stroke="#223045" stroke-width="1" stroke-dasharray="4 8" /><line x1="72" y1="255" x2="920" y2="255" stroke="#223045" stroke-width="1" stroke-dasharray="4 8" /><line x1="72" y1="353" x2="920" y2="353" stroke="#223045" stroke-width="1" stroke-dasharray="4 8" /><line x1="72" y1="452" x2="920" y2="452" stroke="#223045" stroke-width="1" stroke-dasharray="4 8" />
  <rect x="645.11" y="433.52" width="84" height="96.88" fill="#fbbf24" fill-opacity="0.12" stroke="#fbbf24" stroke-width="1.5" stroke-dasharray="6 6" />
  <line x1="72.00" y1="316.96" x2="72.00" y2="409.81" stroke="#0ecb81" stroke-width="1.4" /><rect x="69.00" y="325.20" width="6" height="24.18" rx="1.5" fill="#0ecb81" /><line x1="82.73" y1="314.47" x2="82.73" y2="433.32" stroke="#f6465d" stroke-width="1.4" /><rect x="79.73" y="325.15" width="6" height="49.85" rx="1.5" fill="#f6465d" /><line x1="93.47" y1="343.78" x2="93.47" y2="402.39" stroke="#0ecb81" stroke-width="1.4" /><rect x="90.47" y="369.21" width="6" height="5.84" rx="1.5" fill="#0ecb81" /><line x1="104.20" y1="274.63" x2="104.20" y2="371.79" stroke="#0ecb81" stroke-width="1.4" /><rect x="101.20" y="285.12" width="6" height="84.04" rx="1.5" fill="#0ecb81" /><line x1="114.94" y1="228.33" x2="114.94" y2="308.92" stroke="#0ecb81" stroke-width="1.4" /><rect x="111.94" y="241.16" width="6" height="43.96" rx="1.5" fill="#0ecb81" /><line x1="125.67" y1="203.67" x2="125.67" y2="270.28" stroke="#f6465d" stroke-width="1.4" /><rect x="122.67" y="241.16" width="6" height="4.50" rx="1.5" fill="#f6465d" /><line x1="136.41" y1="185.23" x2="136.41" y2="269.89" stroke="#0ecb81" stroke-width="1.4" /><rect x="133.41" y="216.98" width="6" height="28.68" rx="1.5" fill="#0ecb81" /><line x1="147.14" y1="73.51" x2="147.14" y2="221.15" stroke="#0ecb81" stroke-width="1.4" /><rect x="144.14" y="120.11" width="6" height="96.82" rx="1.5" fill="#0ecb81" /><line x1="157.87" y1="84.58" x2="157.87" y2="203.67" stroke="#0ecb81" stroke-width="1.4" /><rect x="154.87" y="117.86" width="6" height="2.15" rx="1.5" fill="#0ecb81" /><line x1="168.61" y1="58.00" x2="168.61" y2="180.01" stroke="#f6465d" stroke-width="1.4" /><rect x="165.61" y="117.81" width="6" height="46.40" rx="1.5" fill="#f6465d" /><line x1="179.34" y1="146.83" x2="179.34" y2="222.44" stroke="#f6465d" stroke-width="1.4" /><rect x="176.34" y="164.21" width="6" height="26.91" rx="1.5" fill="#f6465d" /><line x1="190.08" y1="127.67" x2="190.08" y2="252.22" stroke="#f6465d" stroke-width="1.4" /><rect x="187.08" y="191.03" width="6" height="33.95" rx="1.5" fill="#f6465d" /><line x1="200.81" y1="194.71" x2="200.81" y2="252.17" stroke="#0ecb81" stroke-width="1.4" /><rect x="197.81" y="222.77" width="6" height="2.30" rx="1.5" fill="#0ecb81" /><line x1="211.54" y1="214.97" x2="211.54" y2="268.22" stroke="#f6465d" stroke-width="1.4" /><rect x="208.54" y="222.73" width="6" height="25.71" rx="1.5" fill="#f6465d" /><line x1="222.28" y1="165.60" x2="222.28" y2="251.50" stroke="#0ecb81" stroke-width="1.4" /><rect x="219.28" y="234.46" width="6" height="13.98" rx="1.5" fill="#0ecb81" /><line x1="233.01" y1="200.08" x2="233.01" y2="256.34" stroke="#0ecb81" stroke-width="1.4" /><rect x="230.01" y="218.80" width="6" height="15.71" rx="1.5" fill="#0ecb81" /><line x1="243.75" y1="180.92" x2="243.75" y2="259.26" stroke="#f6465d" stroke-width="1.4" /><rect x="240.75" y="218.75" width="6" height="17.43" rx="1.5" fill="#f6465d" /><line x1="254.48" y1="192.89" x2="254.48" y2="239.87" stroke="#0ecb81" stroke-width="1.4" /><rect x="251.48" y="231.97" width="6" height="4.26" rx="1.5" fill="#0ecb81" /><line x1="265.22" y1="223.92" x2="265.22" y2="266.25" stroke="#f6465d" stroke-width="1.4" /><rect x="262.22" y="231.97" width="6" height="11.49" rx="1.5" fill="#f6465d" /><line x1="275.95" y1="238.77" x2="275.95" y2="319.12" stroke="#f6465d" stroke-width="1.4" /><rect x="272.95" y="243.51" width="6" height="53.63" rx="1.5" fill="#f6465d" /><line x1="286.68" y1="240.20" x2="286.68" y2="351.44" stroke="#0ecb81" stroke-width="1.4" /><rect x="283.68" y="273.20" width="6" height="23.94" rx="1.5" fill="#0ecb81" /><line x1="297.42" y1="269.70" x2="297.42" y2="311.07" stroke="#f6465d" stroke-width="1.4" /><rect x="294.42" y="273.15" width="6" height="26.00" rx="1.5" fill="#f6465d" /><line x1="308.15" y1="292.40" x2="308.15" y2="354.75" stroke="#f6465d" stroke-width="1.4" /><rect x="305.15" y="299.15" width="6" height="39.27" rx="1.5" fill="#f6465d" /><line x1="318.89" y1="320.79" x2="318.89" y2="369.73" stroke="#0ecb81" stroke-width="1.4" /><rect x="315.89" y="327.83" width="6" height="10.63" rx="1.5" fill="#0ecb81" /><line x1="329.62" y1="292.64" x2="329.62" y2="352.35" stroke="#0ecb81" stroke-width="1.4" /><rect x="326.62" y="305.42" width="6" height="22.41" rx="1.5" fill="#0ecb81" /><line x1="340.35" y1="287.71" x2="340.35" y2="357.47" stroke="#f6465d" stroke-width="1.4" /><rect x="337.35" y="305.42" width="6" height="10.01" rx="1.5" fill="#f6465d" /><line x1="351.09" y1="285.74" x2="351.09" y2="337.79" stroke="#0ecb81" stroke-width="1.4" /><rect x="348.09" y="314.62" width="6" height="2.00" rx="1.5" fill="#0ecb81" /><line x1="361.82" y1="307.29" x2="361.82" y2="334.06" stroke="#f6465d" stroke-width="1.4" /><rect x="358.82" y="314.57" width="6" height="9.53" rx="1.5" fill="#f6465d" /><line x1="372.56" y1="312.03" x2="372.56" y2="349.67" stroke="#f6465d" stroke-width="1.4" /><rect x="369.56" y="324.10" width="6" height="18.29" rx="1.5" fill="#f6465d" /><line x1="383.29" y1="312.70" x2="383.29" y2="347.42" stroke="#0ecb81" stroke-width="1.4" /><rect x="380.29" y="316.29" width="6" height="26.15" rx="1.5" fill="#0ecb81" /><line x1="394.03" y1="296.76" x2="394.03" y2="331.81" stroke="#f6465d" stroke-width="1.4" /><rect x="391.03" y="316.34" width="6" height="8.57" rx="1.5" fill="#f6465d" /><line x1="404.76" y1="312.85" x2="404.76" y2="339.33" stroke="#0ecb81" stroke-width="1.4" /><rect x="401.76" y="320.46" width="6" height="4.45" rx="1.5" fill="#0ecb81" /><line x1="415.49" y1="302.79" x2="415.49" y2="355.65" stroke="#f6465d" stroke-width="1.4" /><rect x="412.49" y="320.46" width="6" height="19.78" rx="1.5" fill="#f6465d" /><line x1="426.23" y1="319.21" x2="426.23" y2="344.64" stroke="#f6465d" stroke-width="1.4" /><rect x="423.23" y="340.24" width="6" height="2.00" rx="1.5" fill="#f6465d" /><line x1="436.96" y1="319.60" x2="436.96" y2="391.04" stroke="#f6465d" stroke-width="1.4" /><rect x="433.96" y="340.52" width="6" height="2.00" rx="1.5" fill="#f6465d" /><line x1="447.70" y1="247.39" x2="447.70" y2="343.25" stroke="#0ecb81" stroke-width="1.4" /><rect x="444.70" y="287.08" width="6" height="54.21" rx="1.5" fill="#0ecb81" /><line x1="458.43" y1="258.54" x2="458.43" y2="342.15" stroke="#f6465d" stroke-width="1.4" /><rect x="455.43" y="287.13" width="6" height="39.22" rx="1.5" fill="#f6465d" /><line x1="469.16" y1="319.88" x2="469.16" y2="346.89" stroke="#f6465d" stroke-width="1.4" /><rect x="466.16" y="326.40" width="6" height="6.66" rx="1.5" fill="#f6465d" /><line x1="479.90" y1="310.40" x2="479.90" y2="378.69" stroke="#f6465d" stroke-width="1.4" /><rect x="476.90" y="333.05" width="6" height="20.45" rx="1.5" fill="#f6465d" /><line x1="490.63" y1="352.73" x2="490.63" y2="388.60" stroke="#f6465d" stroke-width="1.4" /><rect x="487.63" y="353.55" width="6" height="19.68" rx="1.5" fill="#f6465d" /><line x1="501.37" y1="343.20" x2="501.37" y2="383.57" stroke="#0ecb81" stroke-width="1.4" /><rect x="498.37" y="360.25" width="6" height="12.98" rx="1.5" fill="#0ecb81" /><line x1="512.10" y1="334.20" x2="512.10" y2="381.18" stroke="#f6465d" stroke-width="1.4" /><rect x="509.10" y="360.30" width="6" height="2.00" rx="1.5" fill="#f6465d" /><line x1="522.84" y1="358.14" x2="522.84" y2="400.62" stroke="#f6465d" stroke-width="1.4" /><rect x="519.84" y="362.22" width="6" height="13.12" rx="1.5" fill="#f6465d" /><line x1="533.57" y1="366.72" x2="533.57" y2="408.71" stroke="#f6465d" stroke-width="1.4" /><rect x="530.57" y="375.38" width="6" height="31.94" rx="1.5" fill="#f6465d" /><line x1="544.30" y1="362.84" x2="544.30" y2="409.57" stroke="#0ecb81" stroke-width="1.4" /><rect x="541.30" y="405.79" width="6" height="2.00" rx="1.5" fill="#0ecb81" /><line x1="555.04" y1="367.63" x2="555.04" y2="406.75" stroke="#0ecb81" stroke-width="1.4" /><rect x="552.04" y="382.28" width="6" height="23.56" rx="1.5" fill="#0ecb81" /><line x1="565.77" y1="374.09" x2="565.77" y2="392.10" stroke="#f6465d" stroke-width="1.4" /><rect x="562.77" y="382.28" width="6" height="3.88" rx="1.5" fill="#f6465d" /><line x1="576.51" y1="376.68" x2="576.51" y2="407.80" stroke="#f6465d" stroke-width="1.4" /><rect x="573.51" y="386.16" width="6" height="8.76" rx="1.5" fill="#f6465d" /><line x1="587.24" y1="329.27" x2="587.24" y2="396.64" stroke="#0ecb81" stroke-width="1.4" /><rect x="584.24" y="352.40" width="6" height="42.47" rx="1.5" fill="#0ecb81" /><line x1="597.97" y1="348.23" x2="597.97" y2="375.05" stroke="#f6465d" stroke-width="1.4" /><rect x="594.97" y="352.40" width="6" height="8.91" rx="1.5" fill="#f6465d" /><line x1="608.71" y1="271.33" x2="608.71" y2="363.89" stroke="#0ecb81" stroke-width="1.4" /><rect x="605.71" y="301.40" width="6" height="59.95" rx="1.5" fill="#0ecb81" /><line x1="619.44" y1="287.47" x2="619.44" y2="354.27" stroke="#f6465d" stroke-width="1.4" /><rect x="616.44" y="301.45" width="6" height="44.05" rx="1.5" fill="#f6465d" /><line x1="630.18" y1="344.31" x2="630.18" y2="389.56" stroke="#f6465d" stroke-width="1.4" /><rect x="627.18" y="345.55" width="6" height="33.57" rx="1.5" fill="#f6465d" /><line x1="640.91" y1="334.25" x2="640.91" y2="405.22" stroke="#f6465d" stroke-width="1.4" /><rect x="637.91" y="379.17" width="6" height="17.43" rx="1.5" fill="#f6465d" /><line x1="651.65" y1="375.81" x2="651.65" y2="399.95" stroke="#0ecb81" stroke-width="1.4" /><rect x="648.65" y="383.05" width="6" height="13.55" rx="1.5" fill="#0ecb81" /><line x1="662.38" y1="383.09" x2="662.38" y2="444.29" stroke="#f6465d" stroke-width="1.4" /><rect x="659.38" y="383.09" width="6" height="52.82" rx="1.5" fill="#f6465d" /><line x1="673.11" y1="390.23" x2="673.11" y2="452.00" stroke="#0ecb81" stroke-width="1.4" /><rect x="670.11" y="415.56" width="6" height="20.30" rx="1.5" fill="#0ecb81" /><line x1="683.85" y1="403.11" x2="683.85" y2="428.49" stroke="#0ecb81" stroke-width="1.4" /><rect x="680.85" y="412.02" width="6" height="3.59" rx="1.5" fill="#0ecb81" /><line x1="694.58" y1="399.23" x2="694.58" y2="423.84" stroke="#f6465d" stroke-width="1.4" /><rect x="691.58" y="411.97" width="6" height="2.83" rx="1.5" fill="#f6465d" /><line x1="705.32" y1="392.67" x2="705.32" y2="424.51" stroke="#0ecb81" stroke-width="1.4" /><rect x="702.32" y="408.76" width="6" height="6.03" rx="1.5" fill="#0ecb81" /><line x1="716.05" y1="367.15" x2="716.05" y2="409.48" stroke="#0ecb81" stroke-width="1.4" /><rect x="713.05" y="387.02" width="6" height="21.79" rx="1.5" fill="#0ecb81" /><line x1="726.78" y1="375.10" x2="726.78" y2="398.80" stroke="#0ecb81" stroke-width="1.4" /><rect x="723.78" y="384.19" width="6" height="2.78" rx="1.5" fill="#0ecb81" /><line x1="737.52" y1="339.42" x2="737.52" y2="394.97" stroke="#0ecb81" stroke-width="1.4" /><rect x="734.52" y="357.52" width="6" height="26.62" rx="1.5" fill="#0ecb81" /><line x1="748.25" y1="340.76" x2="748.25" y2="375.62" stroke="#f6465d" stroke-width="1.4" /><rect x="745.25" y="357.52" width="6" height="15.95" rx="1.5" fill="#f6465d" /><line x1="758.99" y1="361.35" x2="758.99" y2="387.69" stroke="#0ecb81" stroke-width="1.4" /><rect x="755.99" y="373.52" width="6" height="2.00" rx="1.5" fill="#0ecb81" /><line x1="769.72" y1="349.48" x2="769.72" y2="376.05" stroke="#0ecb81" stroke-width="1.4" /><rect x="766.72" y="366.81" width="6" height="6.70" rx="1.5" fill="#0ecb81" /><line x1="780.46" y1="355.46" x2="780.46" y2="381.18" stroke="#f6465d" stroke-width="1.4" /><rect x="777.46" y="366.81" width="6" height="4.50" rx="1.5" fill="#f6465d" /><line x1="791.19" y1="367.10" x2="791.19" y2="382.47" stroke="#f6465d" stroke-width="1.4" /><rect x="788.19" y="371.36" width="6" height="8.19" rx="1.5" fill="#f6465d" /><line x1="801.92" y1="368.25" x2="801.92" y2="404.35" stroke="#f6465d" stroke-width="1.4" /><rect x="798.92" y="379.60" width="6" height="17.29" rx="1.5" fill="#f6465d" /><line x1="812.66" y1="382.61" x2="812.66" y2="400.52" stroke="#0ecb81" stroke-width="1.4" /><rect x="809.66" y="395.54" width="6" height="2.00" rx="1.5" fill="#0ecb81" /><line x1="823.39" y1="392.38" x2="823.39" y2="413.60" stroke="#f6465d" stroke-width="1.4" /><rect x="820.39" y="395.54" width="6" height="14.51" rx="1.5" fill="#f6465d" /><line x1="834.13" y1="396.79" x2="834.13" y2="412.73" stroke="#0ecb81" stroke-width="1.4" /><rect x="831.13" y="399.04" width="6" height="10.97" rx="1.5" fill="#0ecb81" /><line x1="844.86" y1="393.92" x2="844.86" y2="431.65" stroke="#f6465d" stroke-width="1.4" /><rect x="841.86" y="399.04" width="6" height="24.23" rx="1.5" fill="#f6465d" /><line x1="855.59" y1="408.90" x2="855.59" y2="426.00" stroke="#0ecb81" stroke-width="1.4" /><rect x="852.59" y="417.19" width="6" height="6.13" rx="1.5" fill="#0ecb81" /><line x1="866.33" y1="412.40" x2="866.33" y2="438.45" stroke="#f6465d" stroke-width="1.4" /><rect x="863.33" y="417.24" width="6" height="9.00" rx="1.5" fill="#f6465d" /><line x1="877.06" y1="422.12" x2="877.06" y2="435.00" stroke="#0ecb81" stroke-width="1.4" /><rect x="874.06" y="422.74" width="6" height="3.30" rx="1.5" fill="#0ecb81" /><line x1="887.80" y1="364.66" x2="887.80" y2="427.00" stroke="#0ecb81" stroke-width="1.4" /><rect x="884.80" y="366.76" width="6" height="55.98" rx="1.5" fill="#0ecb81" /><line x1="898.53" y1="345.55" x2="898.53" y2="389.27" stroke="#0ecb81" stroke-width="1.4" /><rect x="895.53" y="346.37" width="6" height="20.45" rx="1.5" fill="#0ecb81" /><line x1="909.27" y1="312.56" x2="909.27" y2="350.72" stroke="#0ecb81" stroke-width="1.4" /><rect x="906.27" y="327.74" width="6" height="18.77" rx="1.5" fill="#0ecb81" /><line x1="920.00" y1="271.42" x2="920.00" y2="334.63" stroke="#0ecb81" stroke-width="1.4" /><rect x="917.00" y="291.73" width="6" height="36.01" rx="1.5" fill="#0ecb81" />
  <polyline points="436.96,391.04 447.70,247.39 544.30,409.57 608.71,271.33 673.11,452.00" fill="none" stroke="#2fc273" stroke-width="4" stroke-linecap="round" stroke-linejoin="round" />
  <circle cx="436.96" cy="391.04" r="5.5" fill="#2fc273" fill-opacity="0.15" stroke="#2fc273" stroke-width="2" /><text x="436.96" y="379.04" fill="#f3f4f6" font-size="15" font-weight="700" text-anchor="middle">X</text><circle cx="447.70" cy="247.39" r="5.5" fill="#2fc273" fill-opacity="0.15" stroke="#2fc273" stroke-width="2" /><text x="447.70" y="235.39" fill="#f3f4f6" font-size="15" font-weight="700" text-anchor="middle">A</text><circle cx="544.30" cy="409.57" r="5.5" fill="#2fc273" fill-opacity="0.15" stroke="#2fc273" stroke-width="2" /><text x="544.30" y="397.57" fill="#f3f4f6" font-size="15" font-weight="700" text-anchor="middle">B</text><circle cx="608.71" cy="271.33" r="5.5" fill="#2fc273" fill-opacity="0.15" stroke="#2fc273" stroke-width="2" /><text x="608.71" y="259.33" fill="#f3f4f6" font-size="15" font-weight="700" text-anchor="middle">C</text><circle cx="673.11" cy="452.00" r="5.5" fill="#2fc273" fill-opacity="0.15" stroke="#2fc273" stroke-width="2" /><text x="673.11" y="440.00" fill="#f3f4f6" font-size="15" font-weight="700" text-anchor="middle">D</text>
  <text x="56" y="492" fill="#8ba0b5" font-size="18">일반 완성 · TP1 306.683 · TP2 315.587 · SL 288.37</text>
</svg>
