<svg xmlns="http://www.w3.org/2000/svg" width="960" height="540" viewBox="0 0 960 540">
  <rect width="960" height="540" rx="24" fill="#0b1220" />
  <rect x="28" y="28" width="904" height="484" rx="22" fill="#111827" stroke="#1f2937" />
  <text x="56" y="74" fill="#f3f4f6" font-size="34" font-weight="700">TRUMPUSDT · AB=CD</text>
  <text x="904" y="74" fill="#8ba0b5" font-size="20" text-anchor="end">Bearish (매도) · Score 79.4</text>
  <line x1="72" y1="58" x2="920" y2="58" stroke="#223045" stroke-width="1" stroke-dasharray="4 8" /><line x1="72" y1="156" x2="920" y2="156" stroke="#223045" stroke-width="1" stroke-dasharray="4 8" /><line x1="72" y1="255" x2="920" y2="255" stroke="#223045" stroke-width="1" stroke-dasharray="4 8" /><line x1="72" y1="353" x2="920" y2="353" stroke="#223045" stroke-width="1" stroke-dasharray="4 8" /><line x1="72" y1="452" x2="920" y2="452" stroke="#223045" stroke-width="1" stroke-dasharray="4 8" />
  <rect x="838.33" y="-223.48" width="84" height="209.50" fill="#fbbf24" fill-opacity="0.12" stroke="#fbbf24" stroke-width="1.5" stroke-dasharray="6 6" />
  <line x1="72.00" y1="255.00" x2="72.00" y2="328.87" stroke="#f6465d" stroke-width="1.4" /><rect x="69.00" y="264.47" width="6" height="15.15" rx="1.5" fill="#f6465d" /><line x1="82.73" y1="209.54" x2="82.73" y2="281.52" stroke="#0ecb81" stroke-width="1.4" /><rect x="79.73" y="247.42" width="6" height="32.20" rx="1.5" fill="#0ecb81" /><line x1="93.47" y1="226.59" x2="93.47" y2="270.15" stroke="#f6465d" stroke-width="1.4" /><rect x="90.47" y="247.42" width="6" height="13.26" rx="1.5" fill="#f6465d" /><line x1="104.20" y1="251.21" x2="104.20" y2="289.10" stroke="#0ecb81" stroke-width="1.4" /><rect x="101.20" y="256.89" width="6" height="3.79" rx="1.5" fill="#0ecb81" /><line x1="114.94" y1="213.33" x2="114.94" y2="283.41" stroke="#0ecb81" stroke-width="1.4" /><rect x="111.94" y="245.53" width="6" height="9.47" rx="1.5" fill="#0ecb81" /><line x1="125.67" y1="211.43" x2="125.67" y2="253.11" stroke="#0ecb81" stroke-width="1.4" /><rect x="122.67" y="232.27" width="6" height="11.37" rx="1.5" fill="#0ecb81" /><line x1="136.41" y1="230.37" x2="136.41" y2="262.58" stroke="#f6465d" stroke-width="1.4" /><rect x="133.41" y="230.37" width="6" height="3.79" rx="1.5" fill="#f6465d" /><line x1="147.14" y1="226.59" x2="147.14" y2="268.26" stroke="#f6465d" stroke-width="1.4" /><rect x="144.14" y="234.16" width="6" height="28.41" rx="1.5" fill="#f6465d" /><line x1="157.87" y1="217.12" x2="157.87" y2="285.31" stroke="#0ecb81" stroke-width="1.4" /><rect x="154.87" y="234.16" width="6" height="30.31" rx="1.5" fill="#0ecb81" /><line x1="168.61" y1="228.48" x2="168.61" y2="268.26" stroke="#f6465d" stroke-width="1.4" /><rect x="165.61" y="234.16" width="6" height="22.73" rx="1.5" fill="#f6465d" /><line x1="179.34" y1="219.01" x2="179.34" y2="268.26" stroke="#0ecb81" stroke-width="1.4" /><rect x="176.34" y="243.63" width="6" height="13.26" rx="1.5" fill="#0ecb81" /><line x1="190.08" y1="226.59" x2="190.08" y2="258.79" stroke="#f6465d" stroke-width="1.4" /><rect x="187.08" y="243.63" width="6" height="11.37" rx="1.5" fill="#f6465d" /><line x1="200.81" y1="171.65" x2="200.81" y2="258.79" stroke="#0ecb81" stroke-width="1.4" /><rect x="197.81" y="207.64" width="6" height="49.25" rx="1.5" fill="#0ecb81" /><line x1="211.54" y1="198.17" x2="211.54" y2="277.73" stroke="#f6465d" stroke-width="1.4" /><rect x="208.54" y="205.75" width="6" height="39.78" rx="1.5" fill="#f6465d" /><line x1="222.28" y1="228.48" x2="222.28" y2="268.26" stroke="#f6465d" stroke-width="1.4" /><rect x="219.28" y="245.53" width="6" height="3.79" rx="1.5" fill="#f6465d" /><line x1="233.01" y1="224.69" x2="233.01" y2="258.79" stroke="#0ecb81" stroke-width="1.4" /><rect x="230.01" y="237.95" width="6" height="11.37" rx="1.5" fill="#0ecb81" /><line x1="243.75" y1="222.80" x2="243.75" y2="251.21" stroke="#f6465d" stroke-width="1.4" /><rect x="240.75" y="239.85" width="6" height="5.68" rx="1.5" fill="#f6465d" /><line x1="254.48" y1="237.95" x2="254.48" y2="262.58" stroke="#f6465d" stroke-width="1.4" /><rect x="251.48" y="245.53" width="6" height="9.47" rx="1.5" fill="#f6465d" /><line x1="265.22" y1="236.06" x2="265.22" y2="260.68" stroke="#0ecb81" stroke-width="1.4" /><rect x="262.22" y="241.74" width="6" height="13.26" rx="1.5" fill="#0ecb81" /><line x1="275.95" y1="201.96" x2="275.95" y2="249.32" stroke="#0ecb81" stroke-width="1.4" /><rect x="272.95" y="230.37" width="6" height="13.26" rx="1.5" fill="#0ecb81" /><line x1="286.68" y1="207.64" x2="286.68" y2="243.63" stroke="#0ecb81" stroke-width="1.4" /><rect x="283.68" y="217.12" width="6" height="13.26" rx="1.5" fill="#0ecb81" /><line x1="297.42" y1="207.64" x2="297.42" y2="300.46" stroke="#f6465d" stroke-width="1.4" /><rect x="294.42" y="217.12" width="6" height="81.45" rx="1.5" fill="#f6465d" /><line x1="308.15" y1="292.88" x2="308.15" y2="374.34" stroke="#0ecb81" stroke-width="1.4" /><rect x="305.15" y="298.57" width="6" height="2.00" rx="1.5" fill="#0ecb81" /><line x1="318.89" y1="296.67" x2="318.89" y2="355.39" stroke="#f6465d" stroke-width="1.4" /><rect x="315.89" y="300.46" width="6" height="28.41" rx="1.5" fill="#f6465d" /><line x1="329.62" y1="306.14" x2="329.62" y2="334.56" stroke="#0ecb81" stroke-width="1.4" /><rect x="326.62" y="309.93" width="6" height="20.84" rx="1.5" fill="#0ecb81" /><line x1="340.35" y1="281.52" x2="340.35" y2="340.24" stroke="#0ecb81" stroke-width="1.4" /><rect x="337.35" y="285.31" width="6" height="24.62" rx="1.5" fill="#0ecb81" /><line x1="351.09" y1="285.31" x2="351.09" y2="323.19" stroke="#f6465d" stroke-width="1.4" /><rect x="348.09" y="287.20" width="6" height="18.94" rx="1.5" fill="#f6465d" /><line x1="361.82" y1="306.14" x2="361.82" y2="374.34" stroke="#f6465d" stroke-width="1.4" /><rect x="358.82" y="308.04" width="6" height="39.78" rx="1.5" fill="#f6465d" /><line x1="372.56" y1="304.25" x2="372.56" y2="414.12" stroke="#f6465d" stroke-width="1.4" /><rect x="369.56" y="347.82" width="6" height="35.99" rx="1.5" fill="#f6465d" /><line x1="383.29" y1="357.29" x2="383.29" y2="402.75" stroke="#0ecb81" stroke-width="1.4" /><rect x="380.29" y="372.44" width="6" height="11.37" rx="1.5" fill="#0ecb81" /><line x1="394.03" y1="349.71" x2="394.03" y2="374.34" stroke="#0ecb81" stroke-width="1.4" /><rect x="391.03" y="361.08" width="6" height="11.37" rx="1.5" fill="#0ecb81" /><line x1="404.76" y1="328.87" x2="404.76" y2="389.49" stroke="#0ecb81" stroke-width="1.4" /><rect x="401.76" y="349.71" width="6" height="9.47" rx="1.5" fill="#0ecb81" /><line x1="415.49" y1="342.13" x2="415.49" y2="433.06" stroke="#f6465d" stroke-width="1.4" /><rect x="412.49" y="349.71" width="6" height="35.99" rx="1.5" fill="#f6465d" /><line x1="426.23" y1="368.65" x2="426.23" y2="419.80" stroke="#0ecb81" stroke-width="1.4" /><rect x="423.23" y="368.65" width="6" height="18.94" rx="1.5" fill="#0ecb81" /><line x1="436.96" y1="357.29" x2="436.96" y2="404.64" stroke="#f6465d" stroke-width="1.4" /><rect x="433.96" y="368.65" width="6" height="17.05" rx="1.5" fill="#f6465d" /><line x1="447.70" y1="374.34" x2="447.70" y2="398.96" stroke="#f6465d" stroke-width="1.4" /><rect x="444.70" y="385.70" width="6" height="5.68" rx="1.5" fill="#f6465d" /><line x1="458.43" y1="387.60" x2="458.43" y2="423.59" stroke="#f6465d" stroke-width="1.4" /><rect x="455.43" y="393.28" width="6" height="5.68" rx="1.5" fill="#f6465d" /><line x1="469.16" y1="338.35" x2="469.16" y2="410.33" stroke="#0ecb81" stroke-width="1.4" /><rect x="466.16" y="361.08" width="6" height="37.88" rx="1.5" fill="#0ecb81" /><line x1="479.90" y1="323.19" x2="479.90" y2="364.87" stroke="#0ecb81" stroke-width="1.4" /><rect x="476.90" y="344.03" width="6" height="15.15" rx="1.5" fill="#0ecb81" /><line x1="490.63" y1="332.66" x2="490.63" y2="366.76" stroke="#0ecb81" stroke-width="1.4" /><rect x="487.63" y="344.03" width="6" height="2.00" rx="1.5" fill="#0ecb81" /><line x1="501.37" y1="308.04" x2="501.37" y2="355.39" stroke="#0ecb81" stroke-width="1.4" /><rect x="498.37" y="336.45" width="6" height="7.58" rx="1.5" fill="#0ecb81" /><line x1="512.10" y1="304.25" x2="512.10" y2="353.50" stroke="#0ecb81" stroke-width="1.4" /><rect x="509.10" y="332.66" width="6" height="3.79" rx="1.5" fill="#0ecb81" /><line x1="522.84" y1="323.19" x2="522.84" y2="345.92" stroke="#0ecb81" stroke-width="1.4" /><rect x="519.84" y="330.77" width="6" height="2.00" rx="1.5" fill="#0ecb81" /><line x1="533.57" y1="287.20" x2="533.57" y2="357.29" stroke="#0ecb81" stroke-width="1.4" /><rect x="530.57" y="321.30" width="6" height="9.47" rx="1.5" fill="#0ecb81" /><line x1="544.30" y1="256.89" x2="544.30" y2="351.61" stroke="#0ecb81" stroke-width="1.4" /><rect x="541.30" y="296.67" width="6" height="24.62" rx="1.5" fill="#0ecb81" /><line x1="555.04" y1="279.62" x2="555.04" y2="317.51" stroke="#f6465d" stroke-width="1.4" /><rect x="552.04" y="298.57" width="6" height="7.58" rx="1.5" fill="#f6465d" /><line x1="565.77" y1="273.94" x2="565.77" y2="338.35" stroke="#0ecb81" stroke-width="1.4" /><rect x="562.77" y="306.14" width="6" height="2.00" rx="1.5" fill="#0ecb81" /><line x1="576.51" y1="272.05" x2="576.51" y2="336.45" stroke="#f6465d" stroke-width="1.4" /><rect x="573.51" y="304.25" width="6" height="22.73" rx="1.5" fill="#f6465d" /><line x1="587.24" y1="325.09" x2="587.24" y2="372.44" stroke="#f6465d" stroke-width="1.4" /><rect x="584.24" y="328.87" width="6" height="7.58" rx="1.5" fill="#f6465d" /><line x1="597.97" y1="298.57" x2="597.97" y2="362.97" stroke="#0ecb81" stroke-width="1.4" /><rect x="594.97" y="308.04" width="6" height="28.41" rx="1.5" fill="#0ecb81" /><line x1="608.71" y1="304.25" x2="608.71" y2="357.29" stroke="#f6465d" stroke-width="1.4" /><rect x="605.71" y="306.14" width="6" height="35.99" rx="1.5" fill="#f6465d" /><line x1="619.44" y1="323.19" x2="619.44" y2="393.28" stroke="#f6465d" stroke-width="1.4" /><rect x="616.44" y="340.24" width="6" height="30.31" rx="1.5" fill="#f6465d" /><line x1="630.18" y1="336.45" x2="630.18" y2="404.64" stroke="#0ecb81" stroke-width="1.4" /><rect x="627.18" y="355.39" width="6" height="15.15" rx="1.5" fill="#0ecb81" /><line x1="640.91" y1="344.03" x2="640.91" y2="398.96" stroke="#f6465d" stroke-width="1.4" /><rect x="637.91" y="355.39" width="6" height="39.78" rx="1.5" fill="#f6465d" /><line x1="651.65" y1="370.55" x2="651.65" y2="419.80" stroke="#0ecb81" stroke-width="1.4" /><rect x="648.65" y="385.70" width="6" height="9.47" rx="1.5" fill="#0ecb81" /><line x1="662.38" y1="364.87" x2="662.38" y2="452.00" stroke="#0ecb81" stroke-width="1.4" /><rect x="659.38" y="366.76" width="6" height="18.94" rx="1.5" fill="#0ecb81" /><line x1="673.11" y1="311.83" x2="673.11" y2="380.02" stroke="#f6465d" stroke-width="1.4" /><rect x="670.11" y="366.76" width="6" height="5.68" rx="1.5" fill="#f6465d" /><line x1="683.85" y1="342.13" x2="683.85" y2="381.91" stroke="#0ecb81" stroke-width="1.4" /><rect x="680.85" y="353.50" width="6" height="18.94" rx="1.5" fill="#0ecb81" /><line x1="694.58" y1="154.61" x2="694.58" y2="359.18" stroke="#0ecb81" stroke-width="1.4" /><rect x="691.58" y="201.96" width="6" height="153.43" rx="1.5" fill="#0ecb81" /><line x1="705.32" y1="139.45" x2="705.32" y2="249.32" stroke="#f6465d" stroke-width="1.4" /><rect x="702.32" y="203.86" width="6" height="5.68" rx="1.5" fill="#f6465d" /><line x1="716.05" y1="58.00" x2="716.05" y2="228.48" stroke="#0ecb81" stroke-width="1.4" /><rect x="713.05" y="95.88" width="6" height="111.76" rx="1.5" fill="#0ecb81" /><line x1="726.78" y1="63.68" x2="726.78" y2="205.75" stroke="#f6465d" stroke-width="1.4" /><rect x="723.78" y="97.78" width="6" height="71.98" rx="1.5" fill="#f6465d" /><line x1="737.52" y1="167.87" x2="737.52" y2="232.27" stroke="#f6465d" stroke-width="1.4" /><rect x="734.52" y="169.76" width="6" height="56.83" rx="1.5" fill="#f6465d" /><line x1="748.25" y1="203.86" x2="748.25" y2="253.11" stroke="#0ecb81" stroke-width="1.4" /><rect x="745.25" y="217.12" width="6" height="9.47" rx="1.5" fill="#0ecb81" /><line x1="758.99" y1="111.04" x2="758.99" y2="236.06" stroke="#0ecb81" stroke-width="1.4" /><rect x="755.99" y="148.92" width="6" height="70.09" rx="1.5" fill="#0ecb81" /><line x1="769.72" y1="131.88" x2="769.72" y2="211.43" stroke="#f6465d" stroke-width="1.4" /><rect x="766.72" y="148.92" width="6" height="49.25" rx="1.5" fill="#f6465d" /><line x1="780.46" y1="167.87" x2="780.46" y2="241.74" stroke="#0ecb81" stroke-width="1.4" /><rect x="777.46" y="190.60" width="6" height="7.58" rx="1.5" fill="#0ecb81" /><line x1="791.19" y1="179.23" x2="791.19" y2="222.80" stroke="#f6465d" stroke-width="1.4" /><rect x="788.19" y="192.49" width="6" height="24.62" rx="1.5" fill="#f6465d" /><line x1="801.92" y1="173.55" x2="801.92" y2="247.42" stroke="#f6465d" stroke-width="1.4" /><rect x="798.92" y="219.01" width="6" height="2.00" rx="1.5" fill="#f6465d" /><line x1="812.66" y1="211.43" x2="812.66" y2="380.02" stroke="#f6465d" stroke-width="1.4" /><rect x="809.66" y="220.90" width="6" height="111.76" rx="1.5" fill="#f6465d" /><line x1="823.39" y1="275.84" x2="823.39" y2="344.03" stroke="#0ecb81" stroke-width="1.4" /><rect x="820.39" y="317.51" width="6" height="13.26" rx="1.5" fill="#0ecb81" /><line x1="834.13" y1="302.36" x2="834.13" y2="353.50" stroke="#f6465d" stroke-width="1.4" /><rect x="831.13" y="317.51" width="6" height="11.37" rx="1.5" fill="#f6465d" /><line x1="844.86" y1="302.36" x2="844.86" y2="376.23" stroke="#0ecb81" stroke-width="1.4" /><rect x="841.86" y="306.14" width="6" height="22.73" rx="1.5" fill="#0ecb81" /><line x1="855.59" y1="270.15" x2="855.59" y2="347.82" stroke="#0ecb81" stroke-width="1.4" /><rect x="852.59" y="272.05" width="6" height="34.10" rx="1.5" fill="#0ecb81" /><line x1="866.33" y1="230.37" x2="866.33" y2="300.46" stroke="#0ecb81" stroke-width="1.4" /><rect x="863.33" y="264.47" width="6" height="9.47" rx="1.5" fill="#0ecb81" /><line x1="877.06" y1="260.68" x2="877.06" y2="309.93" stroke="#f6465d" stroke-width="1.4" /><rect x="874.06" y="264.47" width="6" height="22.73" rx="1.5" fill="#f6465d" /><line x1="887.80" y1="258.79" x2="887.80" y2="294.78" stroke="#0ecb81" stroke-width="1.4" /><rect x="884.80" y="270.15" width="6" height="17.05" rx="1.5" fill="#0ecb81" /><line x1="898.53" y1="239.85" x2="898.53" y2="285.31" stroke="#0ecb81" stroke-width="1.4" /><rect x="895.53" y="268.26" width="6" height="2.00" rx="1.5" fill="#0ecb81" /><line x1="909.27" y1="258.79" x2="909.27" y2="283.41" stroke="#f6465d" stroke-width="1.4" /><rect x="906.27" y="268.26" width="6" height="2.00" rx="1.5" fill="#f6465d" /><line x1="920.00" y1="241.74" x2="920.00" y2="275.84" stroke="#0ecb81" stroke-width="1.4" /><rect x="917.00" y="270.15" width="6" height="2.00" rx="1.5" fill="#0ecb81" />
  <polyline points="544.30,256.89 662.38,452.00 716.05,58.00 812.66,380.02 866.33,230.37" fill="none" stroke="#2fc273" stroke-width="4" stroke-linecap="round" stroke-linejoin="round" />
  <circle cx="544.30" cy="256.89" r="5.5" fill="#2fc273" fill-opacity="0.15" stroke="#2fc273" stroke-width="2" /><text x="544.30" y="244.89" fill="#f3f4f6" font-size="15" font-weight="700" text-anchor="middle">X</text><circle cx="662.38" cy="452.00" r="5.5" fill="#2fc273" fill-opacity="0.15" stroke="#2fc273" stroke-width="2" /><text x="662.38" y="440.00" fill="#f3f4f6" font-size="15" font-weight="700" text-anchor="middle">A</text><circle cx="716.05" cy="58.00" r="5.5" fill="#2fc273" fill-opacity="0.15" stroke="#2fc273" stroke-width="2" /><text x="716.05" y="46.00" fill="#f3f4f6" font-size="15" font-weight="700" text-anchor="middle">B</text><circle cx="812.66" cy="380.02" r="5.5" fill="#2fc273" fill-opacity="0.15" stroke="#2fc273" stroke-width="2" /><text x="812.66" y="368.02" fill="#f3f4f6" font-size="15" font-weight="700" text-anchor="middle">C</text><circle cx="866.33" cy="230.37" r="5.5" fill="#2fc273" fill-opacity="0.15" stroke="#2fc273" stroke-width="2" /><text x="866.33" y="218.37" fill="#f3f4f6" font-size="15" font-weight="700" text-anchor="middle">D</text>
  <text x="56" y="492" fill="#8ba0b5" font-size="18">Complete · TP1 1.5878 · TP2 1.5692 · SL 1.6314</text>
</svg>
