<svg xmlns="http://www.w3.org/2000/svg" width="960" height="540" viewBox="0 0 960 540">
  <rect width="960" height="540" rx="24" fill="#0b1220" />
  <rect x="28" y="28" width="904" height="484" rx="22" fill="#111827" stroke="#1f2937" />
  <text x="56" y="74" fill="#f3f4f6" font-size="34" font-weight="700">UNIUSDT · AB=CD</text>
  <text x="904" y="74" fill="#8ba0b5" font-size="20" text-anchor="end">Bearish (매도) · Score 82.1</text>
  <line x1="72" y1="58" x2="920" y2="58" stroke="#223045" stroke-width="1" stroke-dasharray="4 8" /><line x1="72" y1="156" x2="920" y2="156" stroke="#223045" stroke-width="1" stroke-dasharray="4 8" /><line x1="72" y1="255" x2="920" y2="255" stroke="#223045" stroke-width="1" stroke-dasharray="4 8" /><line x1="72" y1="353" x2="920" y2="353" stroke="#223045" stroke-width="1" stroke-dasharray="4 8" /><line x1="72" y1="452" x2="920" y2="452" stroke="#223045" stroke-width="1" stroke-dasharray="4 8" />
  <rect x="537.77" y="19.64" width="84" height="18.60" fill="#fbbf24" fill-opacity="0.12" stroke="#fbbf24" stroke-width="1.5" stroke-dasharray="6 6" />
  <line x1="72.00" y1="339.51" x2="72.00" y2="452.00" stroke="#0ecb81" stroke-width="1.4" /><rect x="69.00" y="349.38" width="6" height="15.36" rx="1.5" fill="#0ecb81" /><line x1="82.73" y1="331.28" x2="82.73" y2="391.64" stroke="#f6465d" stroke-width="1.4" /><rect x="79.73" y="348.84" width="6" height="23.05" rx="1.5" fill="#f6465d" /><line x1="93.47" y1="308.23" x2="93.47" y2="379.57" stroke="#0ecb81" stroke-width="1.4" /><rect x="90.47" y="349.38" width="6" height="22.50" rx="1.5" fill="#0ecb81" /><line x1="104.20" y1="348.84" x2="104.20" y2="398.77" stroke="#f6465d" stroke-width="1.4" /><rect x="101.20" y="348.84" width="6" height="20.85" rx="1.5" fill="#f6465d" /><line x1="114.94" y1="309.33" x2="114.94" y2="382.86" stroke="#0ecb81" stroke-width="1.4" /><rect x="111.94" y="362.01" width="6" height="8.23" rx="1.5" fill="#0ecb81" /><line x1="125.67" y1="284.08" x2="125.67" y2="388.89" stroke="#0ecb81" stroke-width="1.4" /><rect x="122.67" y="319.75" width="6" height="42.80" rx="1.5" fill="#0ecb81" /><line x1="136.41" y1="297.80" x2="136.41" y2="340.60" stroke="#f6465d" stroke-width="1.4" /><rect x="133.41" y="319.75" width="6" height="5.49" rx="1.5" fill="#f6465d" /><line x1="147.14" y1="324.14" x2="147.14" y2="361.46" stroke="#f6465d" stroke-width="1.4" /><rect x="144.14" y="325.24" width="6" height="9.88" rx="1.5" fill="#f6465d" /><line x1="157.87" y1="286.28" x2="157.87" y2="347.19" stroke="#0ecb81" stroke-width="1.4" /><rect x="154.87" y="324.69" width="6" height="10.43" rx="1.5" fill="#0ecb81" /><line x1="168.61" y1="282.99" x2="168.61" y2="330.18" stroke="#0ecb81" stroke-width="1.4" /><rect x="165.61" y="307.13" width="6" height="17.56" rx="1.5" fill="#0ecb81" /><line x1="179.34" y1="226.47" x2="179.34" y2="320.85" stroke="#0ecb81" stroke-width="1.4" /><rect x="176.34" y="269.27" width="6" height="37.31" rx="1.5" fill="#0ecb81" /><line x1="190.08" y1="225.37" x2="190.08" y2="272.56" stroke="#0ecb81" stroke-width="1.4" /><rect x="187.08" y="254.45" width="6" height="14.82" rx="1.5" fill="#0ecb81" /><line x1="200.81" y1="173.24" x2="200.81" y2="256.10" stroke="#0ecb81" stroke-width="1.4" /><rect x="197.81" y="183.66" width="6" height="70.79" rx="1.5" fill="#0ecb81" /><line x1="211.54" y1="140.31" x2="211.54" y2="235.79" stroke="#f6465d" stroke-width="1.4" /><rect x="208.54" y="183.66" width="6" height="34.02" rx="1.5" fill="#f6465d" /><line x1="222.28" y1="199.58" x2="222.28" y2="240.18" stroke="#f6465d" stroke-width="1.4" /><rect x="219.28" y="218.23" width="6" height="12.07" rx="1.5" fill="#f6465d" /><line x1="233.01" y1="201.22" x2="233.01" y2="239.09" stroke="#f6465d" stroke-width="1.4" /><rect x="230.01" y="230.86" width="6" height="5.49" rx="1.5" fill="#f6465d" /><line x1="243.75" y1="234.70" x2="243.75" y2="272.01" stroke="#f6465d" stroke-width="1.4" /><rect x="240.75" y="235.79" width="6" height="27.99" rx="1.5" fill="#f6465d" /><line x1="254.48" y1="230.86" x2="254.48" y2="266.52" stroke="#0ecb81" stroke-width="1.4" /><rect x="251.48" y="237.99" width="6" height="25.79" rx="1.5" fill="#0ecb81" /><line x1="265.22" y1="169.94" x2="265.22" y2="244.03" stroke="#0ecb81" stroke-width="1.4" /><rect x="262.22" y="175.43" width="6" height="62.56" rx="1.5" fill="#0ecb81" /><line x1="275.95" y1="85.44" x2="275.95" y2="188.60" stroke="#0ecb81" stroke-width="1.4" /><rect x="272.95" y="114.52" width="6" height="60.91" rx="1.5" fill="#0ecb81" /><line x1="286.68" y1="88.18" x2="286.68" y2="154.03" stroke="#0ecb81" stroke-width="1.4" /><rect x="283.68" y="89.83" width="6" height="24.69" rx="1.5" fill="#0ecb81" /><line x1="297.42" y1="58.00" x2="297.42" y2="163.91" stroke="#f6465d" stroke-width="1.4" /><rect x="294.42" y="90.38" width="6" height="72.43" rx="1.5" fill="#f6465d" /><line x1="308.15" y1="143.60" x2="308.15" y2="180.92" stroke="#0ecb81" stroke-width="1.4" /><rect x="305.15" y="161.71" width="6" height="2.00" rx="1.5" fill="#0ecb81" /><line x1="318.89" y1="161.16" x2="318.89" y2="196.83" stroke="#f6465d" stroke-width="1.4" /><rect x="315.89" y="161.16" width="6" height="16.46" rx="1.5" fill="#f6465d" /><line x1="329.62" y1="154.03" x2="329.62" y2="208.91" stroke="#f6465d" stroke-width="1.4" /><rect x="326.62" y="177.63" width="6" height="5.49" rx="1.5" fill="#f6465d" /><line x1="340.35" y1="144.70" x2="340.35" y2="191.35" stroke="#0ecb81" stroke-width="1.4" /><rect x="337.35" y="151.29" width="6" height="32.38" rx="1.5" fill="#0ecb81" /><line x1="351.09" y1="141.96" x2="351.09" y2="178.72" stroke="#0ecb81" stroke-width="1.4" /><rect x="348.09" y="150.74" width="6" height="2.00" rx="1.5" fill="#0ecb81" /><line x1="361.82" y1="121.65" x2="361.82" y2="200.67" stroke="#f6465d" stroke-width="1.4" /><rect x="358.82" y="150.74" width="6" height="47.19" rx="1.5" fill="#f6465d" /><line x1="372.56" y1="158.42" x2="372.56" y2="245.67" stroke="#f6465d" stroke-width="1.4" /><rect x="369.56" y="197.38" width="6" height="40.61" rx="1.5" fill="#f6465d" /><line x1="383.29" y1="227.01" x2="383.29" y2="262.68" stroke="#0ecb81" stroke-width="1.4" /><rect x="380.29" y="228.11" width="6" height="9.88" rx="1.5" fill="#0ecb81" /><line x1="394.03" y1="208.36" x2="394.03" y2="248.96" stroke="#f6465d" stroke-width="1.4" /><rect x="391.03" y="227.56" width="6" height="17.01" rx="1.5" fill="#f6465d" /><line x1="404.76" y1="218.78" x2="404.76" y2="276.95" stroke="#0ecb81" stroke-width="1.4" /><rect x="401.76" y="239.64" width="6" height="4.94" rx="1.5" fill="#0ecb81" /><line x1="415.49" y1="191.89" x2="415.49" y2="255.00" stroke="#f6465d" stroke-width="1.4" /><rect x="412.49" y="239.64" width="6" height="3.84" rx="1.5" fill="#f6465d" /><line x1="426.23" y1="216.04" x2="426.23" y2="262.68" stroke="#0ecb81" stroke-width="1.4" /><rect x="423.23" y="219.88" width="6" height="24.14" rx="1.5" fill="#0ecb81" /><line x1="436.96" y1="166.65" x2="436.96" y2="225.37" stroke="#0ecb81" stroke-width="1.4" /><rect x="433.96" y="200.67" width="6" height="19.21" rx="1.5" fill="#0ecb81" /><line x1="447.70" y1="171.04" x2="447.70" y2="208.91" stroke="#f6465d" stroke-width="1.4" /><rect x="444.70" y="200.67" width="6" height="6.04" rx="1.5" fill="#f6465d" /><line x1="458.43" y1="154.58" x2="458.43" y2="215.49" stroke="#0ecb81" stroke-width="1.4" /><rect x="455.43" y="177.08" width="6" height="30.18" rx="1.5" fill="#0ecb81" /><line x1="469.16" y1="107.39" x2="469.16" y2="185.86" stroke="#0ecb81" stroke-width="1.4" /><rect x="466.16" y="137.02" width="6" height="40.06" rx="1.5" fill="#0ecb81" /><line x1="479.90" y1="122.75" x2="479.90" y2="165.55" stroke="#f6465d" stroke-width="1.4" /><rect x="476.90" y="136.47" width="6" height="6.58" rx="1.5" fill="#f6465d" /><line x1="490.63" y1="134.28" x2="490.63" y2="170.49" stroke="#f6465d" stroke-width="1.4" /><rect x="487.63" y="143.60" width="6" height="15.36" rx="1.5" fill="#f6465d" /><line x1="501.37" y1="144.15" x2="501.37" y2="179.27" stroke="#f6465d" stroke-width="1.4" /><rect x="498.37" y="158.42" width="6" height="3.29" rx="1.5" fill="#f6465d" /><line x1="512.10" y1="138.12" x2="512.10" y2="206.16" stroke="#f6465d" stroke-width="1.4" /><rect x="509.10" y="161.71" width="6" height="37.31" rx="1.5" fill="#f6465d" /><line x1="522.84" y1="181.47" x2="522.84" y2="207.81" stroke="#0ecb81" stroke-width="1.4" /><rect x="519.84" y="194.09" width="6" height="4.94" rx="1.5" fill="#0ecb81" /><line x1="533.57" y1="144.15" x2="533.57" y2="203.97" stroke="#0ecb81" stroke-width="1.4" /><rect x="530.57" y="146.35" width="6" height="48.29" rx="1.5" fill="#0ecb81" /><line x1="544.30" y1="145.80" x2="544.30" y2="196.28" stroke="#f6465d" stroke-width="1.4" /><rect x="541.30" y="146.35" width="6" height="48.84" rx="1.5" fill="#f6465d" /><line x1="555.04" y1="169.40" x2="555.04" y2="196.83" stroke="#0ecb81" stroke-width="1.4" /><rect x="552.04" y="184.21" width="6" height="10.97" rx="1.5" fill="#0ecb81" /><line x1="565.77" y1="107.39" x2="565.77" y2="184.76" stroke="#0ecb81" stroke-width="1.4" /><rect x="562.77" y="139.76" width="6" height="44.45" rx="1.5" fill="#0ecb81" /><line x1="576.51" y1="128.24" x2="576.51" y2="163.91" stroke="#f6465d" stroke-width="1.4" /><rect x="573.51" y="139.76" width="6" height="12.62" rx="1.5" fill="#f6465d" /><line x1="587.24" y1="115.62" x2="587.24" y2="178.18" stroke="#0ecb81" stroke-width="1.4" /><rect x="584.24" y="135.92" width="6" height="16.46" rx="1.5" fill="#0ecb81" /><line x1="597.97" y1="111.78" x2="597.97" y2="190.80" stroke="#f6465d" stroke-width="1.4" /><rect x="594.97" y="135.92" width="6" height="41.70" rx="1.5" fill="#f6465d" /><line x1="608.71" y1="163.91" x2="608.71" y2="197.93" stroke="#f6465d" stroke-width="1.4" /><rect x="605.71" y="177.63" width="6" height="2.00" rx="1.5" fill="#f6465d" /><line x1="619.44" y1="139.21" x2="619.44" y2="228.66" stroke="#f6465d" stroke-width="1.4" /><rect x="616.44" y="178.72" width="6" height="49.39" rx="1.5" fill="#f6465d" /><line x1="630.18" y1="201.77" x2="630.18" y2="245.12" stroke="#0ecb81" stroke-width="1.4" /><rect x="627.18" y="212.75" width="6" height="15.36" rx="1.5" fill="#0ecb81" /><line x1="640.91" y1="211.65" x2="640.91" y2="250.61" stroke="#f6465d" stroke-width="1.4" /><rect x="637.91" y="212.20" width="6" height="28.53" rx="1.5" fill="#f6465d" /><line x1="651.65" y1="232.50" x2="651.65" y2="255.00" stroke="#f6465d" stroke-width="1.4" /><rect x="648.65" y="240.18" width="6" height="5.49" rx="1.5" fill="#f6465d" /><line x1="662.38" y1="235.25" x2="662.38" y2="284.08" stroke="#0ecb81" stroke-width="1.4" /><rect x="659.38" y="243.48" width="6" height="2.74" rx="1.5" fill="#0ecb81" /><line x1="673.11" y1="205.06" x2="673.11" y2="250.61" stroke="#0ecb81" stroke-width="1.4" /><rect x="670.11" y="225.92" width="6" height="17.01" rx="1.5" fill="#0ecb81" /><line x1="683.85" y1="163.36" x2="683.85" y2="236.34" stroke="#0ecb81" stroke-width="1.4" /><rect x="680.85" y="172.14" width="6" height="53.78" rx="1.5" fill="#0ecb81" /><line x1="694.58" y1="162.81" x2="694.58" y2="227.01" stroke="#f6465d" stroke-width="1.4" /><rect x="691.58" y="172.14" width="6" height="49.39" rx="1.5" fill="#f6465d" /><line x1="705.32" y1="221.53" x2="705.32" y2="246.22" stroke="#f6465d" stroke-width="1.4" /><rect x="702.32" y="221.53" width="6" height="19.21" rx="1.5" fill="#f6465d" /><line x1="716.05" y1="231.95" x2="716.05" y2="250.06" stroke="#f6465d" stroke-width="1.4" /><rect x="713.05" y="240.73" width="6" height="7.13" rx="1.5" fill="#f6465d" /><line x1="726.78" y1="236.89" x2="726.78" y2="276.40" stroke="#0ecb81" stroke-width="1.4" /><rect x="723.78" y="239.09" width="6" height="8.23" rx="1.5" fill="#0ecb81" /><line x1="737.52" y1="219.33" x2="737.52" y2="244.57" stroke="#0ecb81" stroke-width="1.4" /><rect x="734.52" y="233.60" width="6" height="5.49" rx="1.5" fill="#0ecb81" /><line x1="748.25" y1="210.00" x2="748.25" y2="239.64" stroke="#0ecb81" stroke-width="1.4" /><rect x="745.25" y="211.10" width="6" height="22.50" rx="1.5" fill="#0ecb81" /><line x1="758.99" y1="208.36" x2="758.99" y2="241.28" stroke="#f6465d" stroke-width="1.4" /><rect x="755.99" y="210.55" width="6" height="2.74" rx="1.5" fill="#f6465d" /><line x1="769.72" y1="210.00" x2="769.72" y2="231.40" stroke="#f6465d" stroke-width="1.4" /><rect x="766.72" y="212.75" width="6" height="14.82" rx="1.5" fill="#f6465d" /><line x1="780.46" y1="223.17" x2="780.46" y2="243.48" stroke="#f6465d" stroke-width="1.4" /><rect x="777.46" y="227.56" width="6" height="12.07" rx="1.5" fill="#f6465d" /><line x1="791.19" y1="224.27" x2="791.19" y2="248.96" stroke="#0ecb81" stroke-width="1.4" /><rect x="788.19" y="239.09" width="6" height="2.00" rx="1.5" fill="#0ecb81" /><line x1="801.92" y1="237.99" x2="801.92" y2="269.82" stroke="#f6465d" stroke-width="1.4" /><rect x="798.92" y="239.09" width="6" height="12.62" rx="1.5" fill="#f6465d" /><line x1="812.66" y1="238.54" x2="812.66" y2="262.13" stroke="#0ecb81" stroke-width="1.4" /><rect x="809.66" y="239.64" width="6" height="12.62" rx="1.5" fill="#0ecb81" /><line x1="823.39" y1="218.23" x2="823.39" y2="267.62" stroke="#f6465d" stroke-width="1.4" /><rect x="820.39" y="239.09" width="6" height="14.82" rx="1.5" fill="#f6465d" /><line x1="834.13" y1="253.35" x2="834.13" y2="297.80" stroke="#f6465d" stroke-width="1.4" /><rect x="831.13" y="253.90" width="6" height="25.24" rx="1.5" fill="#f6465d" /><line x1="844.86" y1="231.95" x2="844.86" y2="289.57" stroke="#0ecb81" stroke-width="1.4" /><rect x="841.86" y="235.79" width="6" height="43.35" rx="1.5" fill="#0ecb81" /><line x1="855.59" y1="221.53" x2="855.59" y2="273.11" stroke="#0ecb81" stroke-width="1.4" /><rect x="852.59" y="223.72" width="6" height="12.07" rx="1.5" fill="#0ecb81" /><line x1="866.33" y1="168.30" x2="866.33" y2="228.11" stroke="#0ecb81" stroke-width="1.4" /><rect x="863.33" y="190.25" width="6" height="34.02" rx="1.5" fill="#0ecb81" /><line x1="877.06" y1="169.94" x2="877.06" y2="195.74" stroke="#0ecb81" stroke-width="1.4" /><rect x="874.06" y="175.43" width="6" height="14.27" rx="1.5" fill="#0ecb81" /><line x1="887.80" y1="118.36" x2="887.80" y2="182.02" stroke="#0ecb81" stroke-width="1.4" /><rect x="884.80" y="133.73" width="6" height="41.70" rx="1.5" fill="#0ecb81" /><line x1="898.53" y1="123.30" x2="898.53" y2="149.64" stroke="#0ecb81" stroke-width="1.4" /><rect x="895.53" y="125.50" width="6" height="8.23" rx="1.5" fill="#0ecb81" /><line x1="909.27" y1="116.17" x2="909.27" y2="147.99" stroke="#f6465d" stroke-width="1.4" /><rect x="906.27" y="124.95" width="6" height="20.30" rx="1.5" fill="#f6465d" /><line x1="920.00" y1="132.08" x2="920.00" y2="168.30" stroke="#f6465d" stroke-width="1.4" /><rect x="917.00" y="145.25" width="6" height="22.50" rx="1.5" fill="#f6465d" />
  <polyline points="361.82,121.65 404.76,276.95 469.16,107.39 522.84,207.81 565.77,107.39" fill="none" stroke="#2fc273" stroke-width="4" stroke-linecap="round" stroke-linejoin="round" />
  <circle cx="361.82" cy="121.65" r="5.5" fill="#2fc273" fill-opacity="0.15" stroke="#2fc273" stroke-width="2" /><text x="361.82" y="109.65" fill="#f3f4f6" font-size="15" font-weight="700" text-anchor="middle">X</text><circle cx="404.76" cy="276.95" r="5.5" fill="#2fc273" fill-opacity="0.15" stroke="#2fc273" stroke-width="2" /><text x="404.76" y="264.95" fill="#f3f4f6" font-size="15" font-weight="700" text-anchor="middle">A</text><circle cx="469.16" cy="107.39" r="5.5" fill="#2fc273" fill-opacity="0.15" stroke="#2fc273" stroke-width="2" /><text x="469.16" y="95.39" fill="#f3f4f6" font-size="15" font-weight="700" text-anchor="middle">B</text><circle cx="522.84" cy="207.81" r="5.5" fill="#2fc273" fill-opacity="0.15" stroke="#2fc273" stroke-width="2" /><text x="522.84" y="195.81" fill="#f3f4f6" font-size="15" font-weight="700" text-anchor="middle">C</text><circle cx="565.77" cy="107.39" r="5.5" fill="#2fc273" fill-opacity="0.15" stroke="#2fc273" stroke-width="2" /><text x="565.77" y="95.39" fill="#f3f4f6" font-size="15" font-weight="700" text-anchor="middle">D</text>
  <text x="56" y="492" fill="#8ba0b5" font-size="18">Complete · TP1 3.6861 · TP2 3.6429 · SL 3.7928</text>
</svg>
