<svg xmlns="http://www.w3.org/2000/svg" width="960" height="540" viewBox="0 0 960 540">
  <rect width="960" height="540" rx="24" fill="#0b1220" />
  <rect x="28" y="28" width="904" height="484" rx="22" fill="#111827" stroke="#1f2937" />
  <text x="56" y="74" fill="#f3f4f6" font-size="34" font-weight="700">VIRTUALUSDT · AB=CD</text>
  <text x="904" y="74" fill="#8ba0b5" font-size="20" text-anchor="end">Bullish (매수) · Score 79.2</text>
  <line x1="72" y1="58" x2="920" y2="58" stroke="#223045" stroke-width="1" stroke-dasharray="4 8" /><line x1="72" y1="156" x2="920" y2="156" stroke="#223045" stroke-width="1" stroke-dasharray="4 8" /><line x1="72" y1="255" x2="920" y2="255" stroke="#223045" stroke-width="1" stroke-dasharray="4 8" /><line x1="72" y1="353" x2="920" y2="353" stroke="#223045" stroke-width="1" stroke-dasharray="4 8" /><line x1="72" y1="452" x2="920" y2="452" stroke="#223045" stroke-width="1" stroke-dasharray="4 8" />
  <rect x="698.78" y="257.46" width="84" height="51.14" fill="#fbbf24" fill-opacity="0.12" stroke="#fbbf24" stroke-width="1.5" stroke-dasharray="6 6" />
  <line x1="72.00" y1="412.70" x2="72.00" y2="452.00" stroke="#f6465d" stroke-width="1.4" /><rect x="69.00" y="416.63" width="6" height="22.35" rx="1.5" fill="#f6465d" /><line x1="82.73" y1="429.16" x2="82.73" y2="451.75" stroke="#f6465d" stroke-width="1.4" /><rect x="79.73" y="438.74" width="6" height="7.37" rx="1.5" fill="#f6465d" /><line x1="93.47" y1="425.72" x2="93.47" y2="446.60" stroke="#0ecb81" stroke-width="1.4" /><rect x="90.47" y="431.61" width="6" height="14.49" rx="1.5" fill="#0ecb81" /><line x1="104.20" y1="428.17" x2="104.20" y2="446.10" stroke="#0ecb81" stroke-width="1.4" /><rect x="101.20" y="431.37" width="6" height="2.00" rx="1.5" fill="#0ecb81" /><line x1="114.94" y1="424.00" x2="114.94" y2="450.77" stroke="#f6465d" stroke-width="1.4" /><rect x="111.94" y="431.12" width="6" height="9.33" rx="1.5" fill="#f6465d" /><line x1="125.67" y1="421.05" x2="125.67" y2="441.68" stroke="#0ecb81" stroke-width="1.4" /><rect x="122.67" y="429.40" width="6" height="11.05" rx="1.5" fill="#0ecb81" /><line x1="136.41" y1="425.47" x2="136.41" y2="436.77" stroke="#0ecb81" stroke-width="1.4" /><rect x="133.41" y="428.91" width="6" height="2.00" rx="1.5" fill="#0ecb81" /><line x1="147.14" y1="415.65" x2="147.14" y2="437.75" stroke="#0ecb81" stroke-width="1.4" /><rect x="144.14" y="425.23" width="6" height="3.68" rx="1.5" fill="#0ecb81" /><line x1="157.87" y1="405.57" x2="157.87" y2="431.12" stroke="#0ecb81" stroke-width="1.4" /><rect x="154.87" y="414.91" width="6" height="10.56" rx="1.5" fill="#0ecb81" /><line x1="168.61" y1="401.89" x2="168.61" y2="422.03" stroke="#f6465d" stroke-width="1.4" /><rect x="165.61" y="414.66" width="6" height="4.18" rx="1.5" fill="#f6465d" /><line x1="179.34" y1="382.98" x2="179.34" y2="427.68" stroke="#0ecb81" stroke-width="1.4" /><rect x="176.34" y="394.52" width="6" height="24.32" rx="1.5" fill="#0ecb81" /><line x1="190.08" y1="387.15" x2="190.08" y2="405.08" stroke="#f6465d" stroke-width="1.4" /><rect x="187.08" y="394.52" width="6" height="8.84" rx="1.5" fill="#f6465d" /><line x1="200.81" y1="364.06" x2="200.81" y2="403.86" stroke="#0ecb81" stroke-width="1.4" /><rect x="197.81" y="374.62" width="6" height="28.74" rx="1.5" fill="#0ecb81" /><line x1="211.54" y1="371.68" x2="211.54" y2="418.35" stroke="#f6465d" stroke-width="1.4" /><rect x="208.54" y="374.62" width="6" height="15.72" rx="1.5" fill="#f6465d" /><line x1="222.28" y1="254.51" x2="222.28" y2="400.17" stroke="#0ecb81" stroke-width="1.4" /><rect x="219.28" y="283.49" width="6" height="106.85" rx="1.5" fill="#0ecb81" /><line x1="233.01" y1="197.03" x2="233.01" y2="288.65" stroke="#0ecb81" stroke-width="1.4" /><rect x="230.01" y="215.70" width="6" height="68.04" rx="1.5" fill="#0ecb81" /><line x1="243.75" y1="149.13" x2="243.75" y2="223.56" stroke="#0ecb81" stroke-width="1.4" /><rect x="240.75" y="164.85" width="6" height="51.09" rx="1.5" fill="#0ecb81" /><line x1="254.48" y1="126.53" x2="254.48" y2="232.89" stroke="#f6465d" stroke-width="1.4" /><rect x="251.48" y="164.61" width="6" height="51.09" rx="1.5" fill="#f6465d" /><line x1="265.22" y1="176.89" x2="265.22" y2="231.91" stroke="#0ecb81" stroke-width="1.4" /><rect x="262.22" y="186.47" width="6" height="28.74" rx="1.5" fill="#0ecb81" /><line x1="275.95" y1="175.91" x2="275.95" y2="226.01" stroke="#f6465d" stroke-width="1.4" /><rect x="272.95" y="186.71" width="6" height="26.04" rx="1.5" fill="#f6465d" /><line x1="286.68" y1="206.61" x2="286.68" y2="248.61" stroke="#0ecb81" stroke-width="1.4" /><rect x="283.68" y="211.77" width="6" height="2.00" rx="1.5" fill="#0ecb81" /><line x1="297.42" y1="207.10" x2="297.42" y2="267.04" stroke="#f6465d" stroke-width="1.4" /><rect x="294.42" y="211.52" width="6" height="52.07" rx="1.5" fill="#f6465d" /><line x1="308.15" y1="220.86" x2="308.15" y2="271.46" stroke="#0ecb81" stroke-width="1.4" /><rect x="305.15" y="233.63" width="6" height="30.21" rx="1.5" fill="#0ecb81" /><line x1="318.89" y1="208.08" x2="318.89" y2="259.42" stroke="#f6465d" stroke-width="1.4" /><rect x="315.89" y="233.63" width="6" height="19.65" rx="1.5" fill="#f6465d" /><line x1="329.62" y1="204.40" x2="329.62" y2="254.51" stroke="#0ecb81" stroke-width="1.4" /><rect x="326.62" y="232.40" width="6" height="21.12" rx="1.5" fill="#0ecb81" /><line x1="340.35" y1="229.70" x2="340.35" y2="266.79" stroke="#f6465d" stroke-width="1.4" /><rect x="337.35" y="232.40" width="6" height="26.53" rx="1.5" fill="#f6465d" /><line x1="351.09" y1="255.00" x2="351.09" y2="281.28" stroke="#f6465d" stroke-width="1.4" /><rect x="348.09" y="259.18" width="6" height="11.05" rx="1.5" fill="#f6465d" /><line x1="361.82" y1="266.05" x2="361.82" y2="314.94" stroke="#f6465d" stroke-width="1.4" /><rect x="358.82" y="270.48" width="6" height="39.06" rx="1.5" fill="#f6465d" /><line x1="372.56" y1="283.99" x2="372.56" y2="349.32" stroke="#f6465d" stroke-width="1.4" /><rect x="369.56" y="309.78" width="6" height="29.97" rx="1.5" fill="#f6465d" /><line x1="383.29" y1="322.30" x2="383.29" y2="345.89" stroke="#0ecb81" stroke-width="1.4" /><rect x="380.29" y="325.99" width="6" height="13.51" rx="1.5" fill="#0ecb81" /><line x1="394.03" y1="322.80" x2="394.03" y2="345.64" stroke="#f6465d" stroke-width="1.4" /><rect x="391.03" y="325.74" width="6" height="8.60" rx="1.5" fill="#f6465d" /><line x1="404.76" y1="322.06" x2="404.76" y2="351.29" stroke="#0ecb81" stroke-width="1.4" /><rect x="401.76" y="331.64" width="6" height="2.95" rx="1.5" fill="#0ecb81" /><line x1="415.49" y1="324.27" x2="415.49" y2="372.41" stroke="#f6465d" stroke-width="1.4" /><rect x="412.49" y="331.64" width="6" height="31.69" rx="1.5" fill="#f6465d" /><line x1="426.23" y1="362.10" x2="426.23" y2="385.92" stroke="#f6465d" stroke-width="1.4" /><rect x="423.23" y="363.33" width="6" height="5.90" rx="1.5" fill="#f6465d" /><line x1="436.96" y1="357.68" x2="436.96" y2="388.13" stroke="#f6465d" stroke-width="1.4" /><rect x="433.96" y="369.22" width="6" height="5.65" rx="1.5" fill="#f6465d" /><line x1="447.70" y1="359.15" x2="447.70" y2="377.33" stroke="#0ecb81" stroke-width="1.4" /><rect x="444.70" y="365.29" width="6" height="9.58" rx="1.5" fill="#0ecb81" /><line x1="458.43" y1="344.41" x2="458.43" y2="369.47" stroke="#0ecb81" stroke-width="1.4" /><rect x="455.43" y="351.78" width="6" height="13.51" rx="1.5" fill="#0ecb81" /><line x1="469.16" y1="275.88" x2="469.16" y2="356.69" stroke="#0ecb81" stroke-width="1.4" /><rect x="466.16" y="299.71" width="6" height="52.07" rx="1.5" fill="#0ecb81" /><line x1="479.90" y1="254.75" x2="479.90" y2="306.34" stroke="#0ecb81" stroke-width="1.4" /><rect x="476.90" y="271.70" width="6" height="27.76" rx="1.5" fill="#0ecb81" /><line x1="490.63" y1="253.53" x2="490.63" y2="280.79" stroke="#0ecb81" stroke-width="1.4" /><rect x="487.63" y="260.16" width="6" height="11.54" rx="1.5" fill="#0ecb81" /><line x1="501.37" y1="254.26" x2="501.37" y2="292.09" stroke="#f6465d" stroke-width="1.4" /><rect x="498.37" y="260.16" width="6" height="16.21" rx="1.5" fill="#f6465d" /><line x1="512.10" y1="232.65" x2="512.10" y2="288.65" stroke="#0ecb81" stroke-width="1.4" /><rect x="509.10" y="255.00" width="6" height="21.62" rx="1.5" fill="#0ecb81" /><line x1="522.84" y1="212.50" x2="522.84" y2="267.04" stroke="#0ecb81" stroke-width="1.4" /><rect x="519.84" y="222.08" width="6" height="32.92" rx="1.5" fill="#0ecb81" /><line x1="533.57" y1="181.55" x2="533.57" y2="241.49" stroke="#f6465d" stroke-width="1.4" /><rect x="530.57" y="222.08" width="6" height="2.00" rx="1.5" fill="#f6465d" /><line x1="544.30" y1="158.96" x2="544.30" y2="240.26" stroke="#0ecb81" stroke-width="1.4" /><rect x="541.30" y="177.87" width="6" height="45.44" rx="1.5" fill="#0ecb81" /><line x1="555.04" y1="174.92" x2="555.04" y2="215.70" stroke="#f6465d" stroke-width="1.4" /><rect x="552.04" y="177.87" width="6" height="33.90" rx="1.5" fill="#f6465d" /><line x1="565.77" y1="167.31" x2="565.77" y2="221.59" stroke="#0ecb81" stroke-width="1.4" /><rect x="562.77" y="195.06" width="6" height="16.95" rx="1.5" fill="#0ecb81" /><line x1="576.51" y1="181.80" x2="576.51" y2="208.08" stroke="#f6465d" stroke-width="1.4" /><rect x="573.51" y="195.06" width="6" height="2.70" rx="1.5" fill="#f6465d" /><line x1="587.24" y1="146.67" x2="587.24" y2="226.75" stroke="#0ecb81" stroke-width="1.4" /><rect x="584.24" y="155.52" width="6" height="42.25" rx="1.5" fill="#0ecb81" /><line x1="597.97" y1="93.37" x2="597.97" y2="167.06" stroke="#0ecb81" stroke-width="1.4" /><rect x="594.97" y="107.86" width="6" height="47.65" rx="1.5" fill="#0ecb81" /><line x1="608.71" y1="87.72" x2="608.71" y2="151.10" stroke="#f6465d" stroke-width="1.4" /><rect x="605.71" y="107.62" width="6" height="31.93" rx="1.5" fill="#f6465d" /><line x1="619.44" y1="116.71" x2="619.44" y2="186.71" stroke="#f6465d" stroke-width="1.4" /><rect x="616.44" y="139.80" width="6" height="45.93" rx="1.5" fill="#f6465d" /><line x1="630.18" y1="162.15" x2="630.18" y2="213.24" stroke="#f6465d" stroke-width="1.4" /><rect x="627.18" y="185.98" width="6" height="9.58" rx="1.5" fill="#f6465d" /><line x1="640.91" y1="177.13" x2="640.91" y2="213.73" stroke="#f6465d" stroke-width="1.4" /><rect x="637.91" y="195.31" width="6" height="15.23" rx="1.5" fill="#f6465d" /><line x1="651.65" y1="174.68" x2="651.65" y2="222.08" stroke="#0ecb81" stroke-width="1.4" /><rect x="648.65" y="196.05" width="6" height="14.49" rx="1.5" fill="#0ecb81" /><line x1="662.38" y1="139.06" x2="662.38" y2="209.56" stroke="#0ecb81" stroke-width="1.4" /><rect x="659.38" y="144.46" width="6" height="51.83" rx="1.5" fill="#0ecb81" /><line x1="673.11" y1="136.11" x2="673.11" y2="169.52" stroke="#f6465d" stroke-width="1.4" /><rect x="670.11" y="144.71" width="6" height="11.05" rx="1.5" fill="#f6465d" /><line x1="683.85" y1="154.78" x2="683.85" y2="195.31" stroke="#f6465d" stroke-width="1.4" /><rect x="680.85" y="155.52" width="6" height="31.44" rx="1.5" fill="#f6465d" /><line x1="694.58" y1="123.09" x2="694.58" y2="188.43" stroke="#0ecb81" stroke-width="1.4" /><rect x="691.58" y="165.83" width="6" height="21.12" rx="1.5" fill="#0ecb81" /><line x1="705.32" y1="165.34" x2="705.32" y2="207.59" stroke="#f6465d" stroke-width="1.4" /><rect x="702.32" y="165.83" width="6" height="32.18" rx="1.5" fill="#f6465d" /><line x1="716.05" y1="192.36" x2="716.05" y2="226.51" stroke="#f6465d" stroke-width="1.4" /><rect x="713.05" y="198.26" width="6" height="23.83" rx="1.5" fill="#f6465d" /><line x1="726.78" y1="208.33" x2="726.78" y2="237.81" stroke="#f6465d" stroke-width="1.4" /><rect x="723.78" y="222.08" width="6" height="12.77" rx="1.5" fill="#f6465d" /><line x1="737.52" y1="214.72" x2="737.52" y2="237.07" stroke="#0ecb81" stroke-width="1.4" /><rect x="734.52" y="221.59" width="6" height="13.26" rx="1.5" fill="#0ecb81" /><line x1="748.25" y1="190.89" x2="748.25" y2="224.79" stroke="#0ecb81" stroke-width="1.4" /><rect x="745.25" y="202.19" width="6" height="19.65" rx="1.5" fill="#0ecb81" /><line x1="758.99" y1="193.35" x2="758.99" y2="219.14" stroke="#f6465d" stroke-width="1.4" /><rect x="755.99" y="202.43" width="6" height="14.25" rx="1.5" fill="#f6465d" /><line x1="769.72" y1="211.28" x2="769.72" y2="228.23" stroke="#f6465d" stroke-width="1.4" /><rect x="766.72" y="216.68" width="6" height="4.91" rx="1.5" fill="#f6465d" /><line x1="780.46" y1="211.77" x2="780.46" y2="227.98" stroke="#f6465d" stroke-width="1.4" /><rect x="777.46" y="221.59" width="6" height="4.91" rx="1.5" fill="#f6465d" /><line x1="791.19" y1="220.12" x2="791.19" y2="233.88" stroke="#f6465d" stroke-width="1.4" /><rect x="788.19" y="226.51" width="6" height="2.46" rx="1.5" fill="#f6465d" /><line x1="801.92" y1="206.86" x2="801.92" y2="250.33" stroke="#0ecb81" stroke-width="1.4" /><rect x="798.92" y="216.19" width="6" height="12.77" rx="1.5" fill="#0ecb81" /><line x1="812.66" y1="198.26" x2="812.66" y2="225.52" stroke="#0ecb81" stroke-width="1.4" /><rect x="809.66" y="209.56" width="6" height="6.63" rx="1.5" fill="#0ecb81" /><line x1="823.39" y1="193.59" x2="823.39" y2="228.96" stroke="#0ecb81" stroke-width="1.4" /><rect x="820.39" y="204.40" width="6" height="4.91" rx="1.5" fill="#0ecb81" /><line x1="834.13" y1="201.94" x2="834.13" y2="257.46" stroke="#f6465d" stroke-width="1.4" /><rect x="831.13" y="204.40" width="6" height="27.76" rx="1.5" fill="#f6465d" /><line x1="844.86" y1="182.05" x2="844.86" y2="240.26" stroke="#0ecb81" stroke-width="1.4" /><rect x="841.86" y="187.94" width="6" height="43.97" rx="1.5" fill="#0ecb81" /><line x1="855.59" y1="111.06" x2="855.59" y2="205.63" stroke="#0ecb81" stroke-width="1.4" /><rect x="852.59" y="127.51" width="6" height="60.18" rx="1.5" fill="#0ecb81" /><line x1="866.33" y1="98.53" x2="866.33" y2="137.34" stroke="#f6465d" stroke-width="1.4" /><rect x="863.33" y="127.27" width="6" height="9.58" rx="1.5" fill="#f6465d" /><line x1="877.06" y1="134.88" x2="877.06" y2="160.68" stroke="#f6465d" stroke-width="1.4" /><rect x="874.06" y="136.85" width="6" height="6.63" rx="1.5" fill="#f6465d" /><line x1="887.80" y1="107.13" x2="887.80" y2="148.39" stroke="#0ecb81" stroke-width="1.4" /><rect x="884.80" y="108.36" width="6" height="35.37" rx="1.5" fill="#0ecb81" /><line x1="898.53" y1="89.44" x2="898.53" y2="123.83" stroke="#0ecb81" stroke-width="1.4" /><rect x="895.53" y="95.58" width="6" height="12.77" rx="1.5" fill="#0ecb81" /><line x1="909.27" y1="58.00" x2="909.27" y2="114.25" stroke="#0ecb81" stroke-width="1.4" /><rect x="906.27" y="71.02" width="6" height="24.56" rx="1.5" fill="#0ecb81" /><line x1="920.00" y1="63.16" x2="920.00" y2="99.02" stroke="#f6465d" stroke-width="1.4" /><rect x="917.00" y="71.02" width="6" height="6.88" rx="1.5" fill="#f6465d" />
  <polyline points="587.24,226.75 608.71,87.72 651.65,222.08 694.58,123.09 726.78,237.81" fill="none" stroke="#2fc273" stroke-width="4" stroke-linecap="round" stroke-linejoin="round" />
  <circle cx="587.24" cy="226.75" r="5.5" fill="#2fc273" fill-opacity="0.15" stroke="#2fc273" stroke-width="2" /><text x="587.24" y="214.75" fill="#f3f4f6" font-size="15" font-weight="700" text-anchor="middle">X</text><circle cx="608.71" cy="87.72" r="5.5" fill="#2fc273" fill-opacity="0.15" stroke="#2fc273" stroke-width="2" /><text x="608.71" y="75.72" fill="#f3f4f6" font-size="15" font-weight="700" text-anchor="middle">A</text><circle cx="651.65" cy="222.08" r="5.5" fill="#2fc273" fill-opacity="0.15" stroke="#2fc273" stroke-width="2" /><text x="651.65" y="210.08" fill="#f3f4f6" font-size="15" font-weight="700" text-anchor="middle">B</text><circle cx="694.58" cy="123.09" r="5.5" fill="#2fc273" fill-opacity="0.15" stroke="#2fc273" stroke-width="2" /><text x="694.58" y="111.09" fill="#f3f4f6" font-size="15" font-weight="700" text-anchor="middle">C</text><circle cx="726.78" cy="237.81" r="5.5" fill="#2fc273" fill-opacity="0.15" stroke="#2fc273" stroke-width="2" /><text x="726.78" y="225.81" fill="#f3f4f6" font-size="15" font-weight="700" text-anchor="middle">D</text>
  <text x="56" y="492" fill="#8ba0b5" font-size="18">Complete · TP1 0.62064 · TP2 0.63166 · SL 0.59544</text>
</svg>
