<svg xmlns="http://www.w3.org/2000/svg" width="960" height="540" viewBox="0 0 960 540">
  <rect width="960" height="540" rx="24" fill="#0b1220" />
  <rect x="28" y="28" width="904" height="484" rx="22" fill="#111827" stroke="#1f2937" />
  <text x="56" y="74" fill="#f3f4f6" font-size="34" font-weight="700">WIFUSDT · AB=CD</text>
  <text x="904" y="74" fill="#8ba0b5" font-size="20" text-anchor="end">Bearish (매도) · Score 86.2</text>
  <line x1="72" y1="58" x2="920" y2="58" stroke="#223045" stroke-width="1" stroke-dasharray="4 8" /><line x1="72" y1="156" x2="920" y2="156" stroke="#223045" stroke-width="1" stroke-dasharray="4 8" /><line x1="72" y1="255" x2="920" y2="255" stroke="#223045" stroke-width="1" stroke-dasharray="4 8" /><line x1="72" y1="353" x2="920" y2="353" stroke="#223045" stroke-width="1" stroke-dasharray="4 8" /><line x1="72" y1="452" x2="920" y2="452" stroke="#223045" stroke-width="1" stroke-dasharray="4 8" />
  <rect x="612.91" y="223.05" width="84" height="10.61" fill="#fbbf24" fill-opacity="0.12" stroke="#fbbf24" stroke-width="1.5" stroke-dasharray="6 6" />
  <line x1="72.00" y1="177.67" x2="72.00" y2="267.98" stroke="#f6465d" stroke-width="1.4" /><rect x="69.00" y="205.89" width="6" height="27.09" rx="1.5" fill="#f6465d" /><line x1="82.73" y1="221.70" x2="82.73" y2="256.69" stroke="#0ecb81" stroke-width="1.4" /><rect x="79.73" y="228.47" width="6" height="4.52" rx="1.5" fill="#0ecb81" /><line x1="93.47" y1="187.83" x2="93.47" y2="238.63" stroke="#0ecb81" stroke-width="1.4" /><rect x="90.47" y="197.99" width="6" height="29.35" rx="1.5" fill="#0ecb81" /><line x1="104.20" y1="176.54" x2="104.20" y2="232.99" stroke="#f6465d" stroke-width="1.4" /><rect x="101.20" y="199.12" width="6" height="28.22" rx="1.5" fill="#f6465d" /><line x1="114.94" y1="181.05" x2="114.94" y2="245.40" stroke="#0ecb81" stroke-width="1.4" /><rect x="111.94" y="219.44" width="6" height="6.77" rx="1.5" fill="#0ecb81" /><line x1="125.67" y1="178.80" x2="125.67" y2="242.02" stroke="#0ecb81" stroke-width="1.4" /><rect x="122.67" y="188.96" width="6" height="30.48" rx="1.5" fill="#0ecb81" /><line x1="136.41" y1="122.35" x2="136.41" y2="192.34" stroke="#0ecb81" stroke-width="1.4" /><rect x="133.41" y="169.77" width="6" height="20.32" rx="1.5" fill="#0ecb81" /><line x1="147.14" y1="149.44" x2="147.14" y2="196.86" stroke="#f6465d" stroke-width="1.4" /><rect x="144.14" y="168.64" width="6" height="7.90" rx="1.5" fill="#f6465d" /><line x1="157.87" y1="88.48" x2="157.87" y2="182.18" stroke="#0ecb81" stroke-width="1.4" /><rect x="154.87" y="114.45" width="6" height="63.22" rx="1.5" fill="#0ecb81" /><line x1="168.61" y1="91.87" x2="168.61" y2="132.51" stroke="#0ecb81" stroke-width="1.4" /><rect x="165.61" y="109.93" width="6" height="3.39" rx="1.5" fill="#0ecb81" /><line x1="179.34" y1="58.00" x2="179.34" y2="149.44" stroke="#f6465d" stroke-width="1.4" /><rect x="176.34" y="109.93" width="6" height="28.22" rx="1.5" fill="#f6465d" /><line x1="190.08" y1="111.06" x2="190.08" y2="166.38" stroke="#f6465d" stroke-width="1.4" /><rect x="187.08" y="139.28" width="6" height="23.71" rx="1.5" fill="#f6465d" /><line x1="200.81" y1="160.73" x2="200.81" y2="200.25" stroke="#f6465d" stroke-width="1.4" /><rect x="197.81" y="161.86" width="6" height="30.48" rx="1.5" fill="#f6465d" /><line x1="211.54" y1="181.05" x2="211.54" y2="217.18" stroke="#0ecb81" stroke-width="1.4" /><rect x="208.54" y="193.47" width="6" height="2.00" rx="1.5" fill="#0ecb81" /><line x1="222.28" y1="187.83" x2="222.28" y2="218.31" stroke="#f6465d" stroke-width="1.4" /><rect x="219.28" y="193.47" width="6" height="15.81" rx="1.5" fill="#f6465d" /><line x1="233.01" y1="195.73" x2="233.01" y2="244.28" stroke="#f6465d" stroke-width="1.4" /><rect x="230.01" y="209.28" width="6" height="30.48" rx="1.5" fill="#f6465d" /><line x1="243.75" y1="201.38" x2="243.75" y2="249.92" stroke="#0ecb81" stroke-width="1.4" /><rect x="240.75" y="225.08" width="6" height="14.68" rx="1.5" fill="#0ecb81" /><line x1="254.48" y1="213.79" x2="254.48" y2="262.34" stroke="#f6465d" stroke-width="1.4" /><rect x="251.48" y="226.21" width="6" height="30.48" rx="1.5" fill="#f6465d" /><line x1="265.22" y1="196.86" x2="265.22" y2="261.21" stroke="#0ecb81" stroke-width="1.4" /><rect x="262.22" y="228.47" width="6" height="28.22" rx="1.5" fill="#0ecb81" /><line x1="275.95" y1="199.12" x2="275.95" y2="238.63" stroke="#f6465d" stroke-width="1.4" /><rect x="272.95" y="227.34" width="6" height="10.16" rx="1.5" fill="#f6465d" /><line x1="286.68" y1="237.50" x2="286.68" y2="278.14" stroke="#f6465d" stroke-width="1.4" /><rect x="283.68" y="238.63" width="6" height="13.55" rx="1.5" fill="#f6465d" /><line x1="297.42" y1="251.05" x2="297.42" y2="359.43" stroke="#f6465d" stroke-width="1.4" /><rect x="294.42" y="252.18" width="6" height="93.70" rx="1.5" fill="#f6465d" /><line x1="308.15" y1="339.11" x2="308.15" y2="388.78" stroke="#f6465d" stroke-width="1.4" /><rect x="305.15" y="344.75" width="6" height="42.90" rx="1.5" fill="#f6465d" /><line x1="318.89" y1="370.72" x2="318.89" y2="414.74" stroke="#f6465d" stroke-width="1.4" /><rect x="315.89" y="386.52" width="6" height="16.93" rx="1.5" fill="#f6465d" /><line x1="329.62" y1="309.75" x2="329.62" y2="428.29" stroke="#f6465d" stroke-width="1.4" /><rect x="326.62" y="403.46" width="6" height="9.03" rx="1.5" fill="#f6465d" /><line x1="340.35" y1="372.97" x2="340.35" y2="413.62" stroke="#0ecb81" stroke-width="1.4" /><rect x="337.35" y="404.58" width="6" height="7.90" rx="1.5" fill="#0ecb81" /><line x1="351.09" y1="367.33" x2="351.09" y2="419.26" stroke="#0ecb81" stroke-width="1.4" /><rect x="348.09" y="370.72" width="6" height="32.74" rx="1.5" fill="#0ecb81" /><line x1="361.82" y1="343.62" x2="361.82" y2="378.62" stroke="#0ecb81" stroke-width="1.4" /><rect x="358.82" y="354.91" width="6" height="15.81" rx="1.5" fill="#0ecb81" /><line x1="372.56" y1="272.50" x2="372.56" y2="362.81" stroke="#0ecb81" stroke-width="1.4" /><rect x="369.56" y="310.88" width="6" height="44.03" rx="1.5" fill="#0ecb81" /><line x1="383.29" y1="301.85" x2="383.29" y2="330.07" stroke="#f6465d" stroke-width="1.4" /><rect x="380.29" y="309.75" width="6" height="5.64" rx="1.5" fill="#f6465d" /><line x1="394.03" y1="309.75" x2="394.03" y2="361.68" stroke="#f6465d" stroke-width="1.4" /><rect x="391.03" y="315.40" width="6" height="40.64" rx="1.5" fill="#f6465d" /><line x1="404.76" y1="352.65" x2="404.76" y2="383.13" stroke="#f6465d" stroke-width="1.4" /><rect x="401.76" y="354.91" width="6" height="2.26" rx="1.5" fill="#f6465d" /><line x1="415.49" y1="351.52" x2="415.49" y2="369.59" stroke="#f6465d" stroke-width="1.4" /><rect x="412.49" y="358.30" width="6" height="3.39" rx="1.5" fill="#f6465d" /><line x1="426.23" y1="352.65" x2="426.23" y2="378.62" stroke="#f6465d" stroke-width="1.4" /><rect x="423.23" y="362.81" width="6" height="6.77" rx="1.5" fill="#f6465d" /><line x1="436.96" y1="369.59" x2="436.96" y2="410.23" stroke="#f6465d" stroke-width="1.4" /><rect x="433.96" y="369.59" width="6" height="19.19" rx="1.5" fill="#f6465d" /><line x1="447.70" y1="382.01" x2="447.70" y2="405.71" stroke="#f6465d" stroke-width="1.4" /><rect x="444.70" y="388.78" width="6" height="13.55" rx="1.5" fill="#f6465d" /><line x1="458.43" y1="370.72" x2="458.43" y2="452.00" stroke="#f6465d" stroke-width="1.4" /><rect x="455.43" y="401.20" width="6" height="2.26" rx="1.5" fill="#f6465d" /><line x1="469.16" y1="341.36" x2="469.16" y2="403.46" stroke="#0ecb81" stroke-width="1.4" /><rect x="466.16" y="344.75" width="6" height="58.70" rx="1.5" fill="#0ecb81" /><line x1="479.90" y1="301.85" x2="479.90" y2="344.75" stroke="#0ecb81" stroke-width="1.4" /><rect x="476.90" y="307.50" width="6" height="37.26" rx="1.5" fill="#0ecb81" /><line x1="490.63" y1="299.59" x2="490.63" y2="343.62" stroke="#f6465d" stroke-width="1.4" /><rect x="487.63" y="308.62" width="6" height="10.16" rx="1.5" fill="#f6465d" /><line x1="501.37" y1="301.85" x2="501.37" y2="337.98" stroke="#f6465d" stroke-width="1.4" /><rect x="498.37" y="318.79" width="6" height="2.00" rx="1.5" fill="#f6465d" /><line x1="512.10" y1="310.88" x2="512.10" y2="358.30" stroke="#f6465d" stroke-width="1.4" /><rect x="509.10" y="319.91" width="6" height="22.58" rx="1.5" fill="#f6465d" /><line x1="522.84" y1="310.88" x2="522.84" y2="353.78" stroke="#0ecb81" stroke-width="1.4" /><rect x="519.84" y="340.23" width="6" height="2.00" rx="1.5" fill="#0ecb81" /><line x1="533.57" y1="297.34" x2="533.57" y2="351.52" stroke="#0ecb81" stroke-width="1.4" /><rect x="530.57" y="322.17" width="6" height="18.06" rx="1.5" fill="#0ecb81" /><line x1="544.30" y1="317.66" x2="544.30" y2="345.88" stroke="#f6465d" stroke-width="1.4" /><rect x="541.30" y="322.17" width="6" height="11.29" rx="1.5" fill="#f6465d" /><line x1="555.04" y1="317.66" x2="555.04" y2="378.62" stroke="#f6465d" stroke-width="1.4" /><rect x="552.04" y="333.46" width="6" height="11.29" rx="1.5" fill="#f6465d" /><line x1="565.77" y1="293.95" x2="565.77" y2="356.04" stroke="#f6465d" stroke-width="1.4" /><rect x="562.77" y="344.75" width="6" height="9.03" rx="1.5" fill="#f6465d" /><line x1="576.51" y1="291.69" x2="576.51" y2="354.91" stroke="#0ecb81" stroke-width="1.4" /><rect x="573.51" y="307.50" width="6" height="46.29" rx="1.5" fill="#0ecb81" /><line x1="587.24" y1="291.69" x2="587.24" y2="339.11" stroke="#f6465d" stroke-width="1.4" /><rect x="584.24" y="308.62" width="6" height="7.90" rx="1.5" fill="#f6465d" /><line x1="597.97" y1="292.82" x2="597.97" y2="335.72" stroke="#0ecb81" stroke-width="1.4" /><rect x="594.97" y="295.08" width="6" height="21.45" rx="1.5" fill="#0ecb81" /><line x1="608.71" y1="257.82" x2="608.71" y2="308.62" stroke="#0ecb81" stroke-width="1.4" /><rect x="605.71" y="265.72" width="6" height="29.35" rx="1.5" fill="#0ecb81" /><line x1="619.44" y1="251.05" x2="619.44" y2="287.17" stroke="#0ecb81" stroke-width="1.4" /><rect x="616.44" y="261.21" width="6" height="4.52" rx="1.5" fill="#0ecb81" /><line x1="630.18" y1="221.70" x2="630.18" y2="273.63" stroke="#0ecb81" stroke-width="1.4" /><rect x="627.18" y="236.37" width="6" height="25.97" rx="1.5" fill="#0ecb81" /><line x1="640.91" y1="216.05" x2="640.91" y2="269.11" stroke="#f6465d" stroke-width="1.4" /><rect x="637.91" y="236.37" width="6" height="13.55" rx="1.5" fill="#f6465d" /><line x1="651.65" y1="245.40" x2="651.65" y2="299.59" stroke="#f6465d" stroke-width="1.4" /><rect x="648.65" y="249.92" width="6" height="41.77" rx="1.5" fill="#f6465d" /><line x1="662.38" y1="271.37" x2="662.38" y2="367.33" stroke="#f6465d" stroke-width="1.4" /><rect x="659.38" y="291.69" width="6" height="65.48" rx="1.5" fill="#f6465d" /><line x1="673.11" y1="314.27" x2="673.11" y2="366.20" stroke="#0ecb81" stroke-width="1.4" /><rect x="670.11" y="326.69" width="6" height="30.48" rx="1.5" fill="#0ecb81" /><line x1="683.85" y1="321.04" x2="683.85" y2="357.17" stroke="#f6465d" stroke-width="1.4" /><rect x="680.85" y="326.69" width="6" height="27.09" rx="1.5" fill="#f6465d" /><line x1="694.58" y1="302.98" x2="694.58" y2="374.10" stroke="#0ecb81" stroke-width="1.4" /><rect x="691.58" y="335.72" width="6" height="19.19" rx="1.5" fill="#0ecb81" /><line x1="705.32" y1="318.79" x2="705.32" y2="353.78" stroke="#0ecb81" stroke-width="1.4" /><rect x="702.32" y="331.20" width="6" height="5.64" rx="1.5" fill="#0ecb81" /><line x1="716.05" y1="298.46" x2="716.05" y2="340.23" stroke="#0ecb81" stroke-width="1.4" /><rect x="713.05" y="314.27" width="6" height="16.93" rx="1.5" fill="#0ecb81" /><line x1="726.78" y1="286.05" x2="726.78" y2="333.46" stroke="#0ecb81" stroke-width="1.4" /><rect x="723.78" y="290.56" width="6" height="23.71" rx="1.5" fill="#0ecb81" /><line x1="737.52" y1="246.53" x2="737.52" y2="293.95" stroke="#0ecb81" stroke-width="1.4" /><rect x="734.52" y="272.50" width="6" height="18.06" rx="1.5" fill="#0ecb81" /><line x1="748.25" y1="254.44" x2="748.25" y2="286.05" stroke="#f6465d" stroke-width="1.4" /><rect x="745.25" y="271.37" width="6" height="6.77" rx="1.5" fill="#f6465d" /><line x1="758.99" y1="251.05" x2="758.99" y2="310.88" stroke="#f6465d" stroke-width="1.4" /><rect x="755.99" y="278.14" width="6" height="18.06" rx="1.5" fill="#f6465d" /><line x1="769.72" y1="270.24" x2="769.72" y2="300.72" stroke="#0ecb81" stroke-width="1.4" /><rect x="766.72" y="281.53" width="6" height="13.55" rx="1.5" fill="#0ecb81" /><line x1="780.46" y1="266.85" x2="780.46" y2="293.95" stroke="#f6465d" stroke-width="1.4" /><rect x="777.46" y="281.53" width="6" height="6.77" rx="1.5" fill="#f6465d" /><line x1="791.19" y1="284.92" x2="791.19" y2="332.33" stroke="#f6465d" stroke-width="1.4" /><rect x="788.19" y="288.30" width="6" height="33.87" rx="1.5" fill="#f6465d" /><line x1="801.92" y1="297.34" x2="801.92" y2="325.56" stroke="#0ecb81" stroke-width="1.4" /><rect x="798.92" y="300.72" width="6" height="21.45" rx="1.5" fill="#0ecb81" /><line x1="812.66" y1="298.46" x2="812.66" y2="328.95" stroke="#f6465d" stroke-width="1.4" /><rect x="809.66" y="299.59" width="6" height="14.68" rx="1.5" fill="#f6465d" /><line x1="823.39" y1="291.69" x2="823.39" y2="339.11" stroke="#0ecb81" stroke-width="1.4" /><rect x="820.39" y="309.75" width="6" height="4.52" rx="1.5" fill="#0ecb81" /><line x1="834.13" y1="255.56" x2="834.13" y2="316.53" stroke="#0ecb81" stroke-width="1.4" /><rect x="831.13" y="279.27" width="6" height="30.48" rx="1.5" fill="#0ecb81" /><line x1="844.86" y1="277.01" x2="844.86" y2="300.72" stroke="#f6465d" stroke-width="1.4" /><rect x="841.86" y="278.14" width="6" height="7.90" rx="1.5" fill="#f6465d" /><line x1="855.59" y1="284.92" x2="855.59" y2="313.14" stroke="#f6465d" stroke-width="1.4" /><rect x="852.59" y="287.17" width="6" height="13.55" rx="1.5" fill="#f6465d" /><line x1="866.33" y1="297.34" x2="866.33" y2="347.01" stroke="#f6465d" stroke-width="1.4" /><rect x="863.33" y="300.72" width="6" height="40.64" rx="1.5" fill="#f6465d" /><line x1="877.06" y1="326.69" x2="877.06" y2="351.52" stroke="#f6465d" stroke-width="1.4" /><rect x="874.06" y="341.36" width="6" height="2.00" rx="1.5" fill="#f6465d" /><line x1="887.80" y1="322.17" x2="887.80" y2="375.23" stroke="#f6465d" stroke-width="1.4" /><rect x="884.80" y="343.62" width="6" height="5.64" rx="1.5" fill="#f6465d" /><line x1="898.53" y1="343.62" x2="898.53" y2="366.20" stroke="#f6465d" stroke-width="1.4" /><rect x="895.53" y="349.27" width="6" height="7.90" rx="1.5" fill="#f6465d" /><line x1="909.27" y1="277.01" x2="909.27" y2="370.72" stroke="#0ecb81" stroke-width="1.4" /><rect x="906.27" y="277.01" width="6" height="80.15" rx="1.5" fill="#0ecb81" /><line x1="920.00" y1="230.73" x2="920.00" y2="278.14" stroke="#0ecb81" stroke-width="1.4" /><rect x="917.00" y="254.44" width="6" height="22.58" rx="1.5" fill="#0ecb81" />
  <polyline points="372.56,272.50 458.43,452.00 490.63,299.59 555.04,378.62 640.91,216.05" fill="none" stroke="#2fc273" stroke-width="4" stroke-linecap="round" stroke-linejoin="round" />
  <circle cx="372.56" cy="272.50" r="5.5" fill="#2fc273" fill-opacity="0.15" stroke="#2fc273" stroke-width="2" /><text x="372.56" y="260.50" fill="#f3f4f6" font-size="15" font-weight="700" text-anchor="middle">X</text><circle cx="458.43" cy="452.00" r="5.5" fill="#2fc273" fill-opacity="0.15" stroke="#2fc273" stroke-width="2" /><text x="458.43" y="440.00" fill="#f3f4f6" font-size="15" font-weight="700" text-anchor="middle">A</text><circle cx="490.63" cy="299.59" r="5.5" fill="#2fc273" fill-opacity="0.15" stroke="#2fc273" stroke-width="2" /><text x="490.63" y="287.59" fill="#f3f4f6" font-size="15" font-weight="700" text-anchor="middle">B</text><circle cx="555.04" cy="378.62" r="5.5" fill="#2fc273" fill-opacity="0.15" stroke="#2fc273" stroke-width="2" /><text x="555.04" y="366.62" fill="#f3f4f6" font-size="15" font-weight="700" text-anchor="middle">C</text><circle cx="640.91" cy="216.05" r="5.5" fill="#2fc273" fill-opacity="0.15" stroke="#2fc273" stroke-width="2" /><text x="640.91" y="204.05" fill="#f3f4f6" font-size="15" font-weight="700" text-anchor="middle">D</text>
  <text x="56" y="492" fill="#8ba0b5" font-size="18">일반 완성 · TP1 0.1824 · TP2 0.179 · SL 0.18997</text>
</svg>
