<svg xmlns="http://www.w3.org/2000/svg" width="960" height="540" viewBox="0 0 960 540">
  <rect width="960" height="540" rx="24" fill="#0b1220" />
  <rect x="28" y="28" width="904" height="484" rx="22" fill="#111827" stroke="#1f2937" />
  <text x="56" y="74" fill="#f3f4f6" font-size="34" font-weight="700">WLDUSDT · AB=CD</text>
  <text x="904" y="74" fill="#8ba0b5" font-size="20" text-anchor="end">Bullish (매수) · Score 80.9</text>
  <line x1="72" y1="58" x2="920" y2="58" stroke="#223045" stroke-width="1" stroke-dasharray="4 8" /><line x1="72" y1="156" x2="920" y2="156" stroke="#223045" stroke-width="1" stroke-dasharray="4 8" /><line x1="72" y1="255" x2="920" y2="255" stroke="#223045" stroke-width="1" stroke-dasharray="4 8" /><line x1="72" y1="353" x2="920" y2="353" stroke="#223045" stroke-width="1" stroke-dasharray="4 8" /><line x1="72" y1="452" x2="920" y2="452" stroke="#223045" stroke-width="1" stroke-dasharray="4 8" />
  <rect x="698.78" y="341.19" width="84" height="54.27" fill="#fbbf24" fill-opacity="0.12" stroke="#fbbf24" stroke-width="1.5" stroke-dasharray="6 6" />
  <line x1="72.00" y1="89.47" x2="72.00" y2="176.11" stroke="#0ecb81" stroke-width="1.4" /><rect x="69.00" y="134.61" width="6" height="19.61" rx="1.5" fill="#0ecb81" /><line x1="82.73" y1="98.13" x2="82.73" y2="149.20" stroke="#0ecb81" stroke-width="1.4" /><rect x="79.73" y="115.91" width="6" height="18.24" rx="1.5" fill="#0ecb81" /><line x1="93.47" y1="58.00" x2="93.47" y2="120.02" stroke="#0ecb81" stroke-width="1.4" /><rect x="90.47" y="77.15" width="6" height="39.22" rx="1.5" fill="#0ecb81" /><line x1="104.20" y1="60.74" x2="104.20" y2="95.39" stroke="#0ecb81" stroke-width="1.4" /><rect x="101.20" y="77.15" width="6" height="2.00" rx="1.5" fill="#0ecb81" /><line x1="114.94" y1="74.42" x2="114.94" y2="109.07" stroke="#f6465d" stroke-width="1.4" /><rect x="111.94" y="77.61" width="6" height="8.66" rx="1.5" fill="#f6465d" /><line x1="125.67" y1="73.05" x2="125.67" y2="102.23" stroke="#0ecb81" stroke-width="1.4" /><rect x="122.67" y="83.08" width="6" height="3.19" rx="1.5" fill="#0ecb81" /><line x1="136.41" y1="81.71" x2="136.41" y2="113.18" stroke="#f6465d" stroke-width="1.4" /><rect x="133.41" y="83.08" width="6" height="27.82" rx="1.5" fill="#f6465d" /><line x1="147.14" y1="92.66" x2="147.14" y2="131.42" stroke="#f6465d" stroke-width="1.4" /><rect x="144.14" y="110.44" width="6" height="6.84" rx="1.5" fill="#f6465d" /><line x1="157.87" y1="110.90" x2="157.87" y2="135.52" stroke="#f6465d" stroke-width="1.4" /><rect x="154.87" y="117.28" width="6" height="5.93" rx="1.5" fill="#f6465d" /><line x1="168.61" y1="88.55" x2="168.61" y2="124.12" stroke="#0ecb81" stroke-width="1.4" /><rect x="165.61" y="96.31" width="6" height="26.91" rx="1.5" fill="#0ecb81" /><line x1="179.34" y1="84.91" x2="179.34" y2="107.71" stroke="#0ecb81" stroke-width="1.4" /><rect x="176.34" y="95.85" width="6" height="2.00" rx="1.5" fill="#0ecb81" /><line x1="190.08" y1="93.11" x2="190.08" y2="113.18" stroke="#f6465d" stroke-width="1.4" /><rect x="187.08" y="95.85" width="6" height="7.30" rx="1.5" fill="#f6465d" /><line x1="200.81" y1="76.70" x2="200.81" y2="107.71" stroke="#0ecb81" stroke-width="1.4" /><rect x="197.81" y="77.61" width="6" height="25.54" rx="1.5" fill="#0ecb81" /><line x1="211.54" y1="66.21" x2="211.54" y2="119.11" stroke="#f6465d" stroke-width="1.4" /><rect x="208.54" y="78.06" width="6" height="38.31" rx="1.5" fill="#f6465d" /><line x1="222.28" y1="90.38" x2="222.28" y2="118.19" stroke="#0ecb81" stroke-width="1.4" /><rect x="219.28" y="98.13" width="6" height="18.24" rx="1.5" fill="#0ecb81" /><line x1="233.01" y1="77.61" x2="233.01" y2="113.18" stroke="#0ecb81" stroke-width="1.4" /><rect x="230.01" y="79.89" width="6" height="18.24" rx="1.5" fill="#0ecb81" /><line x1="243.75" y1="78.06" x2="243.75" y2="126.86" stroke="#f6465d" stroke-width="1.4" /><rect x="240.75" y="80.34" width="6" height="42.87" rx="1.5" fill="#f6465d" /><line x1="254.48" y1="120.93" x2="254.48" y2="173.83" stroke="#f6465d" stroke-width="1.4" /><rect x="251.48" y="123.21" width="6" height="39.67" rx="1.5" fill="#f6465d" /><line x1="265.22" y1="155.13" x2="265.22" y2="187.97" stroke="#f6465d" stroke-width="1.4" /><rect x="262.22" y="162.88" width="6" height="10.94" rx="1.5" fill="#f6465d" /><line x1="275.95" y1="159.69" x2="275.95" y2="236.30" stroke="#f6465d" stroke-width="1.4" /><rect x="272.95" y="174.28" width="6" height="53.35" rx="1.5" fill="#f6465d" /><line x1="286.68" y1="215.33" x2="286.68" y2="243.60" stroke="#f6465d" stroke-width="1.4" /><rect x="283.68" y="227.18" width="6" height="9.12" rx="1.5" fill="#f6465d" /><line x1="297.42" y1="208.49" x2="297.42" y2="246.79" stroke="#0ecb81" stroke-width="1.4" /><rect x="294.42" y="229.01" width="6" height="7.75" rx="1.5" fill="#0ecb81" /><line x1="308.15" y1="220.80" x2="308.15" y2="239.95" stroke="#f6465d" stroke-width="1.4" /><rect x="305.15" y="229.01" width="6" height="9.12" rx="1.5" fill="#f6465d" /><line x1="318.89" y1="237.67" x2="318.89" y2="287.38" stroke="#f6465d" stroke-width="1.4" /><rect x="315.89" y="238.13" width="6" height="21.43" rx="1.5" fill="#f6465d" /><line x1="329.62" y1="258.65" x2="329.62" y2="317.02" stroke="#f6465d" stroke-width="1.4" /><rect x="326.62" y="259.10" width="6" height="47.43" rx="1.5" fill="#f6465d" /><line x1="340.35" y1="299.23" x2="340.35" y2="342.56" stroke="#f6465d" stroke-width="1.4" /><rect x="337.35" y="306.53" width="6" height="31.01" rx="1.5" fill="#f6465d" /><line x1="351.09" y1="335.72" x2="351.09" y2="376.76" stroke="#f6465d" stroke-width="1.4" /><rect x="348.09" y="337.54" width="6" height="31.47" rx="1.5" fill="#f6465d" /><line x1="361.82" y1="358.97" x2="361.82" y2="431.02" stroke="#f6465d" stroke-width="1.4" /><rect x="358.82" y="369.00" width="6" height="55.63" rx="1.5" fill="#f6465d" /><line x1="372.56" y1="407.77" x2="372.56" y2="452.00" stroke="#f6465d" stroke-width="1.4" /><rect x="369.56" y="424.18" width="6" height="2.00" rx="1.5" fill="#f6465d" /><line x1="383.29" y1="338.00" x2="383.29" y2="433.76" stroke="#0ecb81" stroke-width="1.4" /><rect x="380.29" y="339.82" width="6" height="85.28" rx="1.5" fill="#0ecb81" /><line x1="394.03" y1="300.60" x2="394.03" y2="353.50" stroke="#0ecb81" stroke-width="1.4" /><rect x="391.03" y="332.07" width="6" height="7.30" rx="1.5" fill="#0ecb81" /><line x1="404.76" y1="304.25" x2="404.76" y2="344.84" stroke="#0ecb81" stroke-width="1.4" /><rect x="401.76" y="320.67" width="6" height="11.40" rx="1.5" fill="#0ecb81" /><line x1="415.49" y1="306.07" x2="415.49" y2="338.45" stroke="#0ecb81" stroke-width="1.4" /><rect x="412.49" y="307.90" width="6" height="12.77" rx="1.5" fill="#0ecb81" /><line x1="426.23" y1="299.69" x2="426.23" y2="342.10" stroke="#f6465d" stroke-width="1.4" /><rect x="423.23" y="307.90" width="6" height="27.36" rx="1.5" fill="#f6465d" /><line x1="436.96" y1="307.44" x2="436.96" y2="343.92" stroke="#0ecb81" stroke-width="1.4" /><rect x="433.96" y="318.39" width="6" height="17.33" rx="1.5" fill="#0ecb81" /><line x1="447.70" y1="290.57" x2="447.70" y2="325.68" stroke="#0ecb81" stroke-width="1.4" /><rect x="444.70" y="308.81" width="6" height="10.03" rx="1.5" fill="#0ecb81" /><line x1="458.43" y1="297.41" x2="458.43" y2="325.68" stroke="#0ecb81" stroke-width="1.4" /><rect x="455.43" y="306.07" width="6" height="3.19" rx="1.5" fill="#0ecb81" /><line x1="469.16" y1="306.07" x2="469.16" y2="327.96" stroke="#f6465d" stroke-width="1.4" /><rect x="466.16" y="306.07" width="6" height="6.84" rx="1.5" fill="#f6465d" /><line x1="479.90" y1="302.88" x2="479.90" y2="330.70" stroke="#f6465d" stroke-width="1.4" /><rect x="476.90" y="312.91" width="6" height="2.00" rx="1.5" fill="#f6465d" /><line x1="490.63" y1="299.23" x2="490.63" y2="363.08" stroke="#f6465d" stroke-width="1.4" /><rect x="487.63" y="313.83" width="6" height="7.75" rx="1.5" fill="#f6465d" /><line x1="501.37" y1="250.44" x2="501.37" y2="326.59" stroke="#0ecb81" stroke-width="1.4" /><rect x="498.37" y="271.87" width="6" height="49.71" rx="1.5" fill="#0ecb81" /><line x1="512.10" y1="259.10" x2="512.10" y2="286.01" stroke="#0ecb81" stroke-width="1.4" /><rect x="509.10" y="270.05" width="6" height="2.28" rx="1.5" fill="#0ecb81" /><line x1="522.84" y1="250.44" x2="522.84" y2="277.80" stroke="#0ecb81" stroke-width="1.4" /><rect x="519.84" y="267.77" width="6" height="2.74" rx="1.5" fill="#0ecb81" /><line x1="533.57" y1="266.86" x2="533.57" y2="301.51" stroke="#f6465d" stroke-width="1.4" /><rect x="530.57" y="267.31" width="6" height="23.26" rx="1.5" fill="#f6465d" /><line x1="544.30" y1="280.99" x2="544.30" y2="327.96" stroke="#f6465d" stroke-width="1.4" /><rect x="541.30" y="290.11" width="6" height="23.71" rx="1.5" fill="#f6465d" /><line x1="555.04" y1="298.32" x2="555.04" y2="326.14" stroke="#f6465d" stroke-width="1.4" /><rect x="552.04" y="314.28" width="6" height="6.38" rx="1.5" fill="#f6465d" /><line x1="565.77" y1="287.38" x2="565.77" y2="321.58" stroke="#0ecb81" stroke-width="1.4" /><rect x="562.77" y="307.44" width="6" height="12.77" rx="1.5" fill="#0ecb81" /><line x1="576.51" y1="291.94" x2="576.51" y2="309.72" stroke="#0ecb81" stroke-width="1.4" /><rect x="573.51" y="298.32" width="6" height="8.66" rx="1.5" fill="#0ecb81" /><line x1="587.24" y1="286.47" x2="587.24" y2="325.68" stroke="#f6465d" stroke-width="1.4" /><rect x="584.24" y="298.78" width="6" height="15.05" rx="1.5" fill="#f6465d" /><line x1="597.97" y1="288.75" x2="597.97" y2="332.07" stroke="#f6465d" stroke-width="1.4" /><rect x="594.97" y="313.83" width="6" height="6.38" rx="1.5" fill="#f6465d" /><line x1="608.71" y1="283.73" x2="608.71" y2="320.67" stroke="#0ecb81" stroke-width="1.4" /><rect x="605.71" y="307.90" width="6" height="12.31" rx="1.5" fill="#0ecb81" /><line x1="619.44" y1="294.67" x2="619.44" y2="315.19" stroke="#0ecb81" stroke-width="1.4" /><rect x="616.44" y="301.51" width="6" height="6.38" rx="1.5" fill="#0ecb81" /><line x1="630.18" y1="281.45" x2="630.18" y2="312.46" stroke="#0ecb81" stroke-width="1.4" /><rect x="627.18" y="288.29" width="6" height="13.22" rx="1.5" fill="#0ecb81" /><line x1="640.91" y1="269.59" x2="640.91" y2="298.32" stroke="#0ecb81" stroke-width="1.4" /><rect x="637.91" y="284.19" width="6" height="4.56" rx="1.5" fill="#0ecb81" /><line x1="651.65" y1="269.14" x2="651.65" y2="295.59" stroke="#0ecb81" stroke-width="1.4" /><rect x="648.65" y="274.15" width="6" height="10.49" rx="1.5" fill="#0ecb81" /><line x1="662.38" y1="259.56" x2="662.38" y2="295.59" stroke="#0ecb81" stroke-width="1.4" /><rect x="659.38" y="265.94" width="6" height="8.21" rx="1.5" fill="#0ecb81" /><line x1="673.11" y1="265.03" x2="673.11" y2="299.23" stroke="#f6465d" stroke-width="1.4" /><rect x="670.11" y="265.49" width="6" height="26.91" rx="1.5" fill="#f6465d" /><line x1="683.85" y1="279.63" x2="683.85" y2="304.71" stroke="#0ecb81" stroke-width="1.4" /><rect x="680.85" y="292.39" width="6" height="2.00" rx="1.5" fill="#0ecb81" /><line x1="694.58" y1="281.91" x2="694.58" y2="347.57" stroke="#f6465d" stroke-width="1.4" /><rect x="691.58" y="292.39" width="6" height="49.71" rx="1.5" fill="#f6465d" /><line x1="705.32" y1="316.56" x2="705.32" y2="343.01" stroke="#0ecb81" stroke-width="1.4" /><rect x="702.32" y="330.70" width="6" height="11.40" rx="1.5" fill="#0ecb81" /><line x1="716.05" y1="324.31" x2="716.05" y2="347.57" stroke="#f6465d" stroke-width="1.4" /><rect x="713.05" y="331.16" width="6" height="8.66" rx="1.5" fill="#f6465d" /><line x1="726.78" y1="328.42" x2="726.78" y2="371.28" stroke="#f6465d" stroke-width="1.4" /><rect x="723.78" y="339.82" width="6" height="4.56" rx="1.5" fill="#f6465d" /><line x1="737.52" y1="329.33" x2="737.52" y2="354.87" stroke="#0ecb81" stroke-width="1.4" /><rect x="734.52" y="344.38" width="6" height="2.00" rx="1.5" fill="#0ecb81" /><line x1="748.25" y1="330.24" x2="748.25" y2="353.04" stroke="#0ecb81" stroke-width="1.4" /><rect x="745.25" y="339.36" width="6" height="4.56" rx="1.5" fill="#0ecb81" /><line x1="758.99" y1="335.72" x2="758.99" y2="359.88" stroke="#f6465d" stroke-width="1.4" /><rect x="755.99" y="339.36" width="6" height="7.30" rx="1.5" fill="#f6465d" /><line x1="769.72" y1="320.21" x2="769.72" y2="348.48" stroke="#0ecb81" stroke-width="1.4" /><rect x="766.72" y="328.42" width="6" height="17.78" rx="1.5" fill="#0ecb81" /><line x1="780.46" y1="314.74" x2="780.46" y2="328.88" stroke="#0ecb81" stroke-width="1.4" /><rect x="777.46" y="317.93" width="6" height="10.49" rx="1.5" fill="#0ecb81" /><line x1="791.19" y1="305.16" x2="791.19" y2="334.80" stroke="#f6465d" stroke-width="1.4" /><rect x="788.19" y="317.47" width="6" height="14.59" rx="1.5" fill="#f6465d" /><line x1="801.92" y1="320.67" x2="801.92" y2="344.84" stroke="#f6465d" stroke-width="1.4" /><rect x="798.92" y="332.52" width="6" height="5.47" rx="1.5" fill="#f6465d" /><line x1="812.66" y1="334.35" x2="812.66" y2="355.78" stroke="#f6465d" stroke-width="1.4" /><rect x="809.66" y="338.45" width="6" height="8.21" rx="1.5" fill="#f6465d" /><line x1="823.39" y1="345.75" x2="823.39" y2="360.80" stroke="#f6465d" stroke-width="1.4" /><rect x="820.39" y="346.66" width="6" height="7.30" rx="1.5" fill="#f6465d" /><line x1="834.13" y1="348.03" x2="834.13" y2="358.52" stroke="#f6465d" stroke-width="1.4" /><rect x="831.13" y="353.96" width="6" height="2.74" rx="1.5" fill="#f6465d" /><line x1="844.86" y1="355.32" x2="844.86" y2="379.95" stroke="#f6465d" stroke-width="1.4" /><rect x="841.86" y="356.69" width="6" height="12.77" rx="1.5" fill="#f6465d" /><line x1="855.59" y1="353.04" x2="855.59" y2="375.84" stroke="#0ecb81" stroke-width="1.4" /><rect x="852.59" y="363.99" width="6" height="5.93" rx="1.5" fill="#0ecb81" /><line x1="866.33" y1="349.85" x2="866.33" y2="373.11" stroke="#0ecb81" stroke-width="1.4" /><rect x="863.33" y="360.80" width="6" height="2.74" rx="1.5" fill="#0ecb81" /><line x1="877.06" y1="359.43" x2="877.06" y2="394.09" stroke="#f6465d" stroke-width="1.4" /><rect x="874.06" y="360.80" width="6" height="25.99" rx="1.5" fill="#f6465d" /><line x1="887.80" y1="379.49" x2="887.80" y2="396.82" stroke="#f6465d" stroke-width="1.4" /><rect x="884.80" y="386.33" width="6" height="3.19" rx="1.5" fill="#f6465d" /><line x1="898.53" y1="389.53" x2="898.53" y2="432.39" stroke="#f6465d" stroke-width="1.4" /><rect x="895.53" y="389.53" width="6" height="36.94" rx="1.5" fill="#f6465d" /><line x1="909.27" y1="415.52" x2="909.27" y2="439.69" stroke="#f6465d" stroke-width="1.4" /><rect x="906.27" y="426.46" width="6" height="2.00" rx="1.5" fill="#f6465d" /><line x1="920.00" y1="425.55" x2="920.00" y2="444.70" stroke="#f6465d" stroke-width="1.4" /><rect x="917.00" y="427.38" width="6" height="7.75" rx="1.5" fill="#f6465d" />
  <polyline points="490.63,363.08 522.84,250.44 597.97,332.07 662.38,259.56 726.78,371.28" fill="none" stroke="#2fc273" stroke-width="4" stroke-linecap="round" stroke-linejoin="round" />
  <circle cx="490.63" cy="363.08" r="5.5" fill="#2fc273" fill-opacity="0.15" stroke="#2fc273" stroke-width="2" /><text x="490.63" y="351.08" fill="#f3f4f6" font-size="15" font-weight="700" text-anchor="middle">X</text><circle cx="522.84" cy="250.44" r="5.5" fill="#2fc273" fill-opacity="0.15" stroke="#2fc273" stroke-width="2" /><text x="522.84" y="238.44" fill="#f3f4f6" font-size="15" font-weight="700" text-anchor="middle">A</text><circle cx="597.97" cy="332.07" r="5.5" fill="#2fc273" fill-opacity="0.15" stroke="#2fc273" stroke-width="2" /><text x="597.97" y="320.07" fill="#f3f4f6" font-size="15" font-weight="700" text-anchor="middle">B</text><circle cx="662.38" cy="259.56" r="5.5" fill="#2fc273" fill-opacity="0.15" stroke="#2fc273" stroke-width="2" /><text x="662.38" y="247.56" fill="#f3f4f6" font-size="15" font-weight="700" text-anchor="middle">C</text><circle cx="726.78" cy="371.28" r="5.5" fill="#2fc273" fill-opacity="0.15" stroke="#2fc273" stroke-width="2" /><text x="726.78" y="359.28" fill="#f3f4f6" font-size="15" font-weight="700" text-anchor="middle">D</text>
  <text x="56" y="492" fill="#8ba0b5" font-size="18">실시간 터치 · TP1 0.27016 · TP2 0.27594 · SL 0.25759</text>
</svg>
