<svg xmlns="http://www.w3.org/2000/svg" width="960" height="540" viewBox="0 0 960 540">
  <rect width="960" height="540" rx="24" fill="#0b1220" />
  <rect x="28" y="28" width="904" height="484" rx="22" fill="#111827" stroke="#1f2937" />
  <text x="56" y="74" fill="#f3f4f6" font-size="34" font-weight="700">WLDUSDT · AB=CD</text>
  <text x="904" y="74" fill="#8ba0b5" font-size="20" text-anchor="end">Bullish (매수) · Score 78.7</text>
  <line x1="72" y1="58" x2="920" y2="58" stroke="#223045" stroke-width="1" stroke-dasharray="4 8" /><line x1="72" y1="156" x2="920" y2="156" stroke="#223045" stroke-width="1" stroke-dasharray="4 8" /><line x1="72" y1="255" x2="920" y2="255" stroke="#223045" stroke-width="1" stroke-dasharray="4 8" /><line x1="72" y1="353" x2="920" y2="353" stroke="#223045" stroke-width="1" stroke-dasharray="4 8" /><line x1="72" y1="452" x2="920" y2="452" stroke="#223045" stroke-width="1" stroke-dasharray="4 8" />
  <rect x="645.11" y="324.65" width="84" height="52.62" fill="#fbbf24" fill-opacity="0.12" stroke="#fbbf24" stroke-width="1.5" stroke-dasharray="6 6" />
  <line x1="72.00" y1="64.63" x2="72.00" y2="92.93" stroke="#0ecb81" stroke-width="1.4" /><rect x="69.00" y="74.36" width="6" height="3.10" rx="1.5" fill="#0ecb81" /><line x1="82.73" y1="73.03" x2="82.73" y2="103.55" stroke="#f6465d" stroke-width="1.4" /><rect x="79.73" y="74.36" width="6" height="26.97" rx="1.5" fill="#f6465d" /><line x1="93.47" y1="83.65" x2="93.47" y2="121.23" stroke="#f6465d" stroke-width="1.4" /><rect x="90.47" y="100.89" width="6" height="6.63" rx="1.5" fill="#f6465d" /><line x1="104.20" y1="101.34" x2="104.20" y2="125.21" stroke="#f6465d" stroke-width="1.4" /><rect x="101.20" y="107.53" width="6" height="5.75" rx="1.5" fill="#f6465d" /><line x1="114.94" y1="79.67" x2="114.94" y2="114.16" stroke="#0ecb81" stroke-width="1.4" /><rect x="111.94" y="87.19" width="6" height="26.09" rx="1.5" fill="#0ecb81" /><line x1="125.67" y1="76.13" x2="125.67" y2="98.24" stroke="#0ecb81" stroke-width="1.4" /><rect x="122.67" y="86.74" width="6" height="2.00" rx="1.5" fill="#0ecb81" /><line x1="136.41" y1="84.09" x2="136.41" y2="103.55" stroke="#f6465d" stroke-width="1.4" /><rect x="133.41" y="86.74" width="6" height="7.08" rx="1.5" fill="#f6465d" /><line x1="147.14" y1="68.17" x2="147.14" y2="98.24" stroke="#0ecb81" stroke-width="1.4" /><rect x="144.14" y="69.05" width="6" height="24.76" rx="1.5" fill="#0ecb81" /><line x1="157.87" y1="58.00" x2="157.87" y2="109.30" stroke="#f6465d" stroke-width="1.4" /><rect x="154.87" y="69.50" width="6" height="37.14" rx="1.5" fill="#f6465d" /><line x1="168.61" y1="81.44" x2="168.61" y2="108.41" stroke="#0ecb81" stroke-width="1.4" /><rect x="165.61" y="88.95" width="6" height="17.69" rx="1.5" fill="#0ecb81" /><line x1="179.34" y1="69.05" x2="179.34" y2="103.55" stroke="#0ecb81" stroke-width="1.4" /><rect x="176.34" y="71.27" width="6" height="17.69" rx="1.5" fill="#0ecb81" /><line x1="190.08" y1="69.50" x2="190.08" y2="116.81" stroke="#f6465d" stroke-width="1.4" /><rect x="187.08" y="71.71" width="6" height="41.57" rx="1.5" fill="#f6465d" /><line x1="200.81" y1="111.06" x2="200.81" y2="162.36" stroke="#f6465d" stroke-width="1.4" /><rect x="197.81" y="113.27" width="6" height="38.47" rx="1.5" fill="#f6465d" /><line x1="211.54" y1="144.23" x2="211.54" y2="176.07" stroke="#f6465d" stroke-width="1.4" /><rect x="208.54" y="151.75" width="6" height="10.61" rx="1.5" fill="#f6465d" /><line x1="222.28" y1="148.65" x2="222.28" y2="222.94" stroke="#f6465d" stroke-width="1.4" /><rect x="219.28" y="162.80" width="6" height="51.74" rx="1.5" fill="#f6465d" /><line x1="233.01" y1="202.60" x2="233.01" y2="230.02" stroke="#f6465d" stroke-width="1.4" /><rect x="230.01" y="214.10" width="6" height="8.84" rx="1.5" fill="#f6465d" /><line x1="243.75" y1="195.97" x2="243.75" y2="233.11" stroke="#0ecb81" stroke-width="1.4" /><rect x="240.75" y="215.87" width="6" height="7.52" rx="1.5" fill="#0ecb81" /><line x1="254.48" y1="207.91" x2="254.48" y2="226.48" stroke="#f6465d" stroke-width="1.4" /><rect x="251.48" y="215.87" width="6" height="8.84" rx="1.5" fill="#f6465d" /><line x1="265.22" y1="224.27" x2="265.22" y2="272.47" stroke="#f6465d" stroke-width="1.4" /><rect x="262.22" y="224.71" width="6" height="20.78" rx="1.5" fill="#f6465d" /><line x1="275.95" y1="244.61" x2="275.95" y2="301.21" stroke="#f6465d" stroke-width="1.4" /><rect x="272.95" y="245.05" width="6" height="45.99" rx="1.5" fill="#f6465d" /><line x1="286.68" y1="283.96" x2="286.68" y2="325.97" stroke="#f6465d" stroke-width="1.4" /><rect x="283.68" y="291.04" width="6" height="30.07" rx="1.5" fill="#f6465d" /><line x1="297.42" y1="319.34" x2="297.42" y2="359.14" stroke="#f6465d" stroke-width="1.4" /><rect x="294.42" y="321.11" width="6" height="30.51" rx="1.5" fill="#f6465d" /><line x1="308.15" y1="341.89" x2="308.15" y2="411.76" stroke="#f6465d" stroke-width="1.4" /><rect x="305.15" y="351.62" width="6" height="53.95" rx="1.5" fill="#f6465d" /><line x1="318.89" y1="389.21" x2="318.89" y2="432.10" stroke="#f6465d" stroke-width="1.4" /><rect x="315.89" y="405.13" width="6" height="2.00" rx="1.5" fill="#f6465d" /><line x1="329.62" y1="321.55" x2="329.62" y2="414.41" stroke="#0ecb81" stroke-width="1.4" /><rect x="326.62" y="323.32" width="6" height="82.69" rx="1.5" fill="#0ecb81" /><line x1="340.35" y1="285.29" x2="340.35" y2="336.59" stroke="#0ecb81" stroke-width="1.4" /><rect x="337.35" y="315.80" width="6" height="7.08" rx="1.5" fill="#0ecb81" /><line x1="351.09" y1="288.83" x2="351.09" y2="328.18" stroke="#0ecb81" stroke-width="1.4" /><rect x="348.09" y="304.75" width="6" height="11.05" rx="1.5" fill="#0ecb81" /><line x1="361.82" y1="290.60" x2="361.82" y2="321.99" stroke="#0ecb81" stroke-width="1.4" /><rect x="358.82" y="292.37" width="6" height="12.38" rx="1.5" fill="#0ecb81" /><line x1="372.56" y1="284.41" x2="372.56" y2="325.53" stroke="#f6465d" stroke-width="1.4" /><rect x="369.56" y="292.37" width="6" height="26.53" rx="1.5" fill="#f6465d" /><line x1="383.29" y1="291.92" x2="383.29" y2="327.30" stroke="#0ecb81" stroke-width="1.4" /><rect x="380.29" y="302.54" width="6" height="16.80" rx="1.5" fill="#0ecb81" /><line x1="394.03" y1="275.56" x2="394.03" y2="309.61" stroke="#0ecb81" stroke-width="1.4" /><rect x="391.03" y="293.25" width="6" height="9.73" rx="1.5" fill="#0ecb81" /><line x1="404.76" y1="282.20" x2="404.76" y2="309.61" stroke="#0ecb81" stroke-width="1.4" /><rect x="401.76" y="290.60" width="6" height="3.10" rx="1.5" fill="#0ecb81" /><line x1="415.49" y1="290.60" x2="415.49" y2="311.82" stroke="#f6465d" stroke-width="1.4" /><rect x="412.49" y="290.60" width="6" height="6.63" rx="1.5" fill="#f6465d" /><line x1="426.23" y1="287.50" x2="426.23" y2="314.48" stroke="#f6465d" stroke-width="1.4" /><rect x="423.23" y="297.23" width="6" height="2.00" rx="1.5" fill="#f6465d" /><line x1="436.96" y1="283.96" x2="436.96" y2="345.87" stroke="#f6465d" stroke-width="1.4" /><rect x="433.96" y="298.11" width="6" height="7.52" rx="1.5" fill="#f6465d" /><line x1="447.70" y1="236.65" x2="447.70" y2="310.50" stroke="#0ecb81" stroke-width="1.4" /><rect x="444.70" y="257.43" width="6" height="48.20" rx="1.5" fill="#0ecb81" /><line x1="458.43" y1="245.05" x2="458.43" y2="271.14" stroke="#0ecb81" stroke-width="1.4" /><rect x="455.43" y="255.66" width="6" height="2.21" rx="1.5" fill="#0ecb81" /><line x1="469.16" y1="236.65" x2="469.16" y2="263.18" stroke="#0ecb81" stroke-width="1.4" /><rect x="466.16" y="253.45" width="6" height="2.65" rx="1.5" fill="#0ecb81" /><line x1="479.90" y1="252.57" x2="479.90" y2="286.18" stroke="#f6465d" stroke-width="1.4" /><rect x="476.90" y="253.01" width="6" height="22.55" rx="1.5" fill="#f6465d" /><line x1="490.63" y1="266.28" x2="490.63" y2="311.82" stroke="#f6465d" stroke-width="1.4" /><rect x="487.63" y="275.12" width="6" height="22.99" rx="1.5" fill="#f6465d" /><line x1="501.37" y1="283.08" x2="501.37" y2="310.05" stroke="#f6465d" stroke-width="1.4" /><rect x="498.37" y="298.56" width="6" height="6.19" rx="1.5" fill="#f6465d" /><line x1="512.10" y1="272.47" x2="512.10" y2="305.63" stroke="#0ecb81" stroke-width="1.4" /><rect x="509.10" y="291.92" width="6" height="12.38" rx="1.5" fill="#0ecb81" /><line x1="522.84" y1="276.89" x2="522.84" y2="294.13" stroke="#0ecb81" stroke-width="1.4" /><rect x="519.84" y="283.08" width="6" height="8.40" rx="1.5" fill="#0ecb81" /><line x1="533.57" y1="271.58" x2="533.57" y2="309.61" stroke="#f6465d" stroke-width="1.4" /><rect x="530.57" y="283.52" width="6" height="14.59" rx="1.5" fill="#f6465d" /><line x1="544.30" y1="273.79" x2="544.30" y2="315.80" stroke="#f6465d" stroke-width="1.4" /><rect x="541.30" y="298.11" width="6" height="6.19" rx="1.5" fill="#f6465d" /><line x1="555.04" y1="268.93" x2="555.04" y2="304.75" stroke="#0ecb81" stroke-width="1.4" /><rect x="552.04" y="292.37" width="6" height="11.94" rx="1.5" fill="#0ecb81" /><line x1="565.77" y1="279.54" x2="565.77" y2="299.44" stroke="#0ecb81" stroke-width="1.4" /><rect x="562.77" y="286.18" width="6" height="6.19" rx="1.5" fill="#0ecb81" /><line x1="576.51" y1="266.72" x2="576.51" y2="296.79" stroke="#0ecb81" stroke-width="1.4" /><rect x="573.51" y="273.35" width="6" height="12.82" rx="1.5" fill="#0ecb81" /><line x1="587.24" y1="255.22" x2="587.24" y2="283.08" stroke="#0ecb81" stroke-width="1.4" /><rect x="584.24" y="269.37" width="6" height="4.42" rx="1.5" fill="#0ecb81" /><line x1="597.97" y1="254.78" x2="597.97" y2="280.43" stroke="#0ecb81" stroke-width="1.4" /><rect x="594.97" y="259.64" width="6" height="10.17" rx="1.5" fill="#0ecb81" /><line x1="608.71" y1="245.49" x2="608.71" y2="280.43" stroke="#0ecb81" stroke-width="1.4" /><rect x="605.71" y="251.68" width="6" height="7.96" rx="1.5" fill="#0ecb81" /><line x1="619.44" y1="250.80" x2="619.44" y2="283.96" stroke="#f6465d" stroke-width="1.4" /><rect x="616.44" y="251.24" width="6" height="26.09" rx="1.5" fill="#f6465d" /><line x1="630.18" y1="264.95" x2="630.18" y2="289.27" stroke="#0ecb81" stroke-width="1.4" /><rect x="627.18" y="277.33" width="6" height="2.00" rx="1.5" fill="#0ecb81" /><line x1="640.91" y1="267.16" x2="640.91" y2="330.84" stroke="#f6465d" stroke-width="1.4" /><rect x="637.91" y="277.33" width="6" height="48.20" rx="1.5" fill="#f6465d" /><line x1="651.65" y1="300.77" x2="651.65" y2="326.42" stroke="#0ecb81" stroke-width="1.4" /><rect x="648.65" y="314.48" width="6" height="11.05" rx="1.5" fill="#0ecb81" /><line x1="662.38" y1="308.29" x2="662.38" y2="330.84" stroke="#f6465d" stroke-width="1.4" /><rect x="659.38" y="314.92" width="6" height="8.40" rx="1.5" fill="#f6465d" /><line x1="673.11" y1="312.26" x2="673.11" y2="353.83" stroke="#f6465d" stroke-width="1.4" /><rect x="670.11" y="323.32" width="6" height="4.42" rx="1.5" fill="#f6465d" /><line x1="683.85" y1="313.15" x2="683.85" y2="337.91" stroke="#0ecb81" stroke-width="1.4" /><rect x="680.85" y="327.74" width="6" height="2.00" rx="1.5" fill="#0ecb81" /><line x1="694.58" y1="314.03" x2="694.58" y2="336.14" stroke="#0ecb81" stroke-width="1.4" /><rect x="691.58" y="322.88" width="6" height="4.42" rx="1.5" fill="#0ecb81" /><line x1="705.32" y1="319.34" x2="705.32" y2="342.78" stroke="#f6465d" stroke-width="1.4" /><rect x="702.32" y="322.88" width="6" height="7.08" rx="1.5" fill="#f6465d" /><line x1="716.05" y1="304.31" x2="716.05" y2="331.72" stroke="#0ecb81" stroke-width="1.4" /><rect x="713.05" y="312.26" width="6" height="17.25" rx="1.5" fill="#0ecb81" /><line x1="726.78" y1="299.00" x2="726.78" y2="312.71" stroke="#0ecb81" stroke-width="1.4" /><rect x="723.78" y="302.09" width="6" height="10.17" rx="1.5" fill="#0ecb81" /><line x1="737.52" y1="289.71" x2="737.52" y2="318.46" stroke="#f6465d" stroke-width="1.4" /><rect x="734.52" y="301.65" width="6" height="14.15" rx="1.5" fill="#f6465d" /><line x1="748.25" y1="304.75" x2="748.25" y2="328.18" stroke="#f6465d" stroke-width="1.4" /><rect x="745.25" y="316.24" width="6" height="5.31" rx="1.5" fill="#f6465d" /><line x1="758.99" y1="318.01" x2="758.99" y2="338.80" stroke="#f6465d" stroke-width="1.4" /><rect x="755.99" y="321.99" width="6" height="7.96" rx="1.5" fill="#f6465d" /><line x1="769.72" y1="329.07" x2="769.72" y2="343.66" stroke="#f6465d" stroke-width="1.4" /><rect x="766.72" y="329.95" width="6" height="7.08" rx="1.5" fill="#f6465d" /><line x1="780.46" y1="331.28" x2="780.46" y2="341.45" stroke="#f6465d" stroke-width="1.4" /><rect x="777.46" y="337.03" width="6" height="2.65" rx="1.5" fill="#f6465d" /><line x1="791.19" y1="338.35" x2="791.19" y2="362.23" stroke="#f6465d" stroke-width="1.4" /><rect x="788.19" y="339.68" width="6" height="12.38" rx="1.5" fill="#f6465d" /><line x1="801.92" y1="336.14" x2="801.92" y2="358.25" stroke="#0ecb81" stroke-width="1.4" /><rect x="798.92" y="346.76" width="6" height="5.75" rx="1.5" fill="#0ecb81" /><line x1="812.66" y1="333.05" x2="812.66" y2="355.60" stroke="#0ecb81" stroke-width="1.4" /><rect x="809.66" y="343.66" width="6" height="2.65" rx="1.5" fill="#0ecb81" /><line x1="823.39" y1="342.33" x2="823.39" y2="375.94" stroke="#f6465d" stroke-width="1.4" /><rect x="820.39" y="343.66" width="6" height="25.21" rx="1.5" fill="#f6465d" /><line x1="834.13" y1="361.79" x2="834.13" y2="378.59" stroke="#f6465d" stroke-width="1.4" /><rect x="831.13" y="368.42" width="6" height="3.10" rx="1.5" fill="#f6465d" /><line x1="844.86" y1="371.52" x2="844.86" y2="413.09" stroke="#f6465d" stroke-width="1.4" /><rect x="841.86" y="371.52" width="6" height="35.82" rx="1.5" fill="#f6465d" /><line x1="855.59" y1="396.73" x2="855.59" y2="420.16" stroke="#f6465d" stroke-width="1.4" /><rect x="852.59" y="407.34" width="6" height="2.00" rx="1.5" fill="#f6465d" /><line x1="866.33" y1="397.17" x2="866.33" y2="425.91" stroke="#f6465d" stroke-width="1.4" /><rect x="863.33" y="408.22" width="6" height="2.00" rx="1.5" fill="#f6465d" /><line x1="877.06" y1="396.73" x2="877.06" y2="441.39" stroke="#f6465d" stroke-width="1.4" /><rect x="874.06" y="409.11" width="6" height="15.92" rx="1.5" fill="#f6465d" /><line x1="887.80" y1="404.68" x2="887.80" y2="452.00" stroke="#0ecb81" stroke-width="1.4" /><rect x="884.80" y="406.90" width="6" height="18.13" rx="1.5" fill="#0ecb81" /><line x1="898.53" y1="387.88" x2="898.53" y2="417.07" stroke="#0ecb81" stroke-width="1.4" /><rect x="895.53" y="388.32" width="6" height="18.57" rx="1.5" fill="#0ecb81" /><line x1="909.27" y1="384.34" x2="909.27" y2="422.37" stroke="#f6465d" stroke-width="1.4" /><rect x="906.27" y="388.32" width="6" height="26.53" rx="1.5" fill="#f6465d" /><line x1="920.00" y1="381.25" x2="920.00" y2="415.30" stroke="#0ecb81" stroke-width="1.4" /><rect x="917.00" y="386.11" width="6" height="28.30" rx="1.5" fill="#0ecb81" />
  <polyline points="436.96,345.87 469.16,236.65 544.30,315.80 608.71,245.49 673.11,353.83" fill="none" stroke="#2fc273" stroke-width="4" stroke-linecap="round" stroke-linejoin="round" />
  <circle cx="436.96" cy="345.87" r="5.5" fill="#2fc273" fill-opacity="0.15" stroke="#2fc273" stroke-width="2" /><text x="436.96" y="333.87" fill="#f3f4f6" font-size="15" font-weight="700" text-anchor="middle">X</text><circle cx="469.16" cy="236.65" r="5.5" fill="#2fc273" fill-opacity="0.15" stroke="#2fc273" stroke-width="2" /><text x="469.16" y="224.65" fill="#f3f4f6" font-size="15" font-weight="700" text-anchor="middle">A</text><circle cx="544.30" cy="315.80" r="5.5" fill="#2fc273" fill-opacity="0.15" stroke="#2fc273" stroke-width="2" /><text x="544.30" y="303.80" fill="#f3f4f6" font-size="15" font-weight="700" text-anchor="middle">B</text><circle cx="608.71" cy="245.49" r="5.5" fill="#2fc273" fill-opacity="0.15" stroke="#2fc273" stroke-width="2" /><text x="608.71" y="233.49" fill="#f3f4f6" font-size="15" font-weight="700" text-anchor="middle">C</text><circle cx="673.11" cy="353.83" r="5.5" fill="#2fc273" fill-opacity="0.15" stroke="#2fc273" stroke-width="2" /><text x="673.11" y="341.83" fill="#f3f4f6" font-size="15" font-weight="700" text-anchor="middle">D</text>
  <text x="56" y="492" fill="#8ba0b5" font-size="18">실시간 터치 · TP1 0.27016 · TP2 0.27594 · SL 0.25759</text>
</svg>
