<svg xmlns="http://www.w3.org/2000/svg" width="960" height="540" viewBox="0 0 960 540">
  <rect width="960" height="540" rx="24" fill="#0b1220" />
  <rect x="28" y="28" width="904" height="484" rx="22" fill="#111827" stroke="#1f2937" />
  <text x="56" y="74" fill="#f3f4f6" font-size="34" font-weight="700">WLDUSDT · AB=CD</text>
  <text x="904" y="74" fill="#8ba0b5" font-size="20" text-anchor="end">Bullish (매수) · Score 82.8</text>
  <line x1="72" y1="58" x2="920" y2="58" stroke="#223045" stroke-width="1" stroke-dasharray="4 8" /><line x1="72" y1="156" x2="920" y2="156" stroke="#223045" stroke-width="1" stroke-dasharray="4 8" /><line x1="72" y1="255" x2="920" y2="255" stroke="#223045" stroke-width="1" stroke-dasharray="4 8" /><line x1="72" y1="353" x2="920" y2="353" stroke="#223045" stroke-width="1" stroke-dasharray="4 8" /><line x1="72" y1="452" x2="920" y2="452" stroke="#223045" stroke-width="1" stroke-dasharray="4 8" />
  <rect x="773.92" y="479.19" width="84" height="42.92" fill="#fbbf24" fill-opacity="0.12" stroke="#fbbf24" stroke-width="1.5" stroke-dasharray="6 6" />
  <line x1="72.00" y1="336.56" x2="72.00" y2="402.53" stroke="#0ecb81" stroke-width="1.4" /><rect x="69.00" y="346.81" width="6" height="14.26" rx="1.5" fill="#0ecb81" /><line x1="82.73" y1="315.17" x2="82.73" y2="373.11" stroke="#f6465d" stroke-width="1.4" /><rect x="79.73" y="346.37" width="6" height="6.69" rx="1.5" fill="#f6465d" /><line x1="93.47" y1="292.44" x2="93.47" y2="352.61" stroke="#0ecb81" stroke-width="1.4" /><rect x="90.47" y="296.90" width="6" height="55.71" rx="1.5" fill="#0ecb81" /><line x1="104.20" y1="267.03" x2="104.20" y2="319.18" stroke="#0ecb81" stroke-width="1.4" /><rect x="101.20" y="291.99" width="6" height="4.46" rx="1.5" fill="#0ecb81" /><line x1="114.94" y1="287.09" x2="114.94" y2="337.45" stroke="#f6465d" stroke-width="1.4" /><rect x="111.94" y="291.99" width="6" height="32.09" rx="1.5" fill="#f6465d" /><line x1="125.67" y1="285.31" x2="125.67" y2="337.90" stroke="#0ecb81" stroke-width="1.4" /><rect x="122.67" y="312.94" width="6" height="11.14" rx="1.5" fill="#0ecb81" /><line x1="136.41" y1="294.22" x2="136.41" y2="319.63" stroke="#0ecb81" stroke-width="1.4" /><rect x="133.41" y="304.03" width="6" height="9.36" rx="1.5" fill="#0ecb81" /><line x1="147.14" y1="287.09" x2="147.14" y2="328.54" stroke="#f6465d" stroke-width="1.4" /><rect x="144.14" y="304.03" width="6" height="16.49" rx="1.5" fill="#f6465d" /><line x1="157.87" y1="291.55" x2="157.87" y2="325.87" stroke="#0ecb81" stroke-width="1.4" /><rect x="154.87" y="307.15" width="6" height="13.37" rx="1.5" fill="#0ecb81" /><line x1="168.61" y1="303.14" x2="168.61" y2="324.08" stroke="#f6465d" stroke-width="1.4" /><rect x="165.61" y="307.15" width="6" height="8.91" rx="1.5" fill="#f6465d" /><line x1="179.34" y1="292.88" x2="179.34" y2="349.49" stroke="#0ecb81" stroke-width="1.4" /><rect x="176.34" y="306.26" width="6" height="9.36" rx="1.5" fill="#0ecb81" /><line x1="190.08" y1="292.88" x2="190.08" y2="326.76" stroke="#f6465d" stroke-width="1.4" /><rect x="187.08" y="306.26" width="6" height="17.38" rx="1.5" fill="#f6465d" /><line x1="200.81" y1="255.89" x2="200.81" y2="326.31" stroke="#0ecb81" stroke-width="1.4" /><rect x="197.81" y="281.74" width="6" height="41.45" rx="1.5" fill="#0ecb81" /><line x1="211.54" y1="267.48" x2="211.54" y2="340.13" stroke="#f6465d" stroke-width="1.4" /><rect x="208.54" y="282.63" width="6" height="27.63" rx="1.5" fill="#f6465d" /><line x1="222.28" y1="291.99" x2="222.28" y2="332.55" stroke="#f6465d" stroke-width="1.4" /><rect x="219.28" y="310.27" width="6" height="13.82" rx="1.5" fill="#f6465d" /><line x1="233.01" y1="310.71" x2="233.01" y2="330.77" stroke="#0ecb81" stroke-width="1.4" /><rect x="230.01" y="324.08" width="6" height="2.00" rx="1.5" fill="#0ecb81" /><line x1="243.75" y1="273.27" x2="243.75" y2="331.66" stroke="#0ecb81" stroke-width="1.4" /><rect x="240.75" y="287.98" width="6" height="36.55" rx="1.5" fill="#0ecb81" /><line x1="254.48" y1="258.57" x2="254.48" y2="309.38" stroke="#0ecb81" stroke-width="1.4" /><rect x="251.48" y="284.42" width="6" height="3.57" rx="1.5" fill="#0ecb81" /><line x1="265.22" y1="213.55" x2="265.22" y2="290.66" stroke="#0ecb81" stroke-width="1.4" /><rect x="262.22" y="225.14" width="6" height="59.28" rx="1.5" fill="#0ecb81" /><line x1="275.95" y1="168.98" x2="275.95" y2="239.85" stroke="#0ecb81" stroke-width="1.4" /><rect x="272.95" y="206.42" width="6" height="18.72" rx="1.5" fill="#0ecb81" /><line x1="286.68" y1="162.74" x2="286.68" y2="219.34" stroke="#0ecb81" stroke-width="1.4" /><rect x="283.68" y="187.70" width="6" height="18.72" rx="1.5" fill="#0ecb81" /><line x1="297.42" y1="179.68" x2="297.42" y2="262.13" stroke="#f6465d" stroke-width="1.4" /><rect x="294.42" y="188.14" width="6" height="65.07" rx="1.5" fill="#f6465d" /><line x1="308.15" y1="228.26" x2="308.15" y2="272.38" stroke="#0ecb81" stroke-width="1.4" /><rect x="305.15" y="237.62" width="6" height="15.60" rx="1.5" fill="#0ecb81" /><line x1="318.89" y1="222.91" x2="318.89" y2="267.93" stroke="#0ecb81" stroke-width="1.4" /><rect x="315.89" y="233.16" width="6" height="4.46" rx="1.5" fill="#0ecb81" /><line x1="329.62" y1="123.07" x2="329.62" y2="235.83" stroke="#0ecb81" stroke-width="1.4" /><rect x="326.62" y="128.42" width="6" height="105.19" rx="1.5" fill="#0ecb81" /><line x1="340.35" y1="89.64" x2="340.35" y2="158.73" stroke="#0ecb81" stroke-width="1.4" /><rect x="337.35" y="123.52" width="6" height="4.90" rx="1.5" fill="#0ecb81" /><line x1="351.09" y1="58.00" x2="351.09" y2="147.59" stroke="#0ecb81" stroke-width="1.4" /><rect x="348.09" y="68.25" width="6" height="55.27" rx="1.5" fill="#0ecb81" /><line x1="361.82" y1="67.36" x2="361.82" y2="186.36" stroke="#f6465d" stroke-width="1.4" /><rect x="358.82" y="68.70" width="6" height="89.59" rx="1.5" fill="#f6465d" /><line x1="372.56" y1="120.84" x2="372.56" y2="197.95" stroke="#f6465d" stroke-width="1.4" /><rect x="369.56" y="158.73" width="6" height="28.52" rx="1.5" fill="#f6465d" /><line x1="383.29" y1="127.98" x2="383.29" y2="197.50" stroke="#0ecb81" stroke-width="1.4" /><rect x="380.29" y="172.55" width="6" height="14.26" rx="1.5" fill="#0ecb81" /><line x1="394.03" y1="89.64" x2="394.03" y2="197.06" stroke="#0ecb81" stroke-width="1.4" /><rect x="391.03" y="113.27" width="6" height="59.28" rx="1.5" fill="#0ecb81" /><line x1="404.76" y1="111.93" x2="404.76" y2="210.43" stroke="#f6465d" stroke-width="1.4" /><rect x="401.76" y="113.27" width="6" height="87.80" rx="1.5" fill="#f6465d" /><line x1="415.49" y1="189.93" x2="415.49" y2="282.19" stroke="#f6465d" stroke-width="1.4" /><rect x="412.49" y="201.07" width="6" height="61.95" rx="1.5" fill="#f6465d" /><line x1="426.23" y1="259.46" x2="426.23" y2="313.39" stroke="#f6465d" stroke-width="1.4" /><rect x="423.23" y="263.47" width="6" height="11.59" rx="1.5" fill="#f6465d" /><line x1="436.96" y1="266.59" x2="436.96" y2="318.74" stroke="#f6465d" stroke-width="1.4" /><rect x="433.96" y="274.61" width="6" height="16.94" rx="1.5" fill="#f6465d" /><line x1="447.70" y1="204.64" x2="447.70" y2="292.44" stroke="#0ecb81" stroke-width="1.4" /><rect x="444.70" y="214.44" width="6" height="77.11" rx="1.5" fill="#0ecb81" /><line x1="458.43" y1="189.04" x2="458.43" y2="251.43" stroke="#f6465d" stroke-width="1.4" /><rect x="455.43" y="214.00" width="6" height="25.85" rx="1.5" fill="#f6465d" /><line x1="469.16" y1="156.05" x2="469.16" y2="252.77" stroke="#0ecb81" stroke-width="1.4" /><rect x="466.16" y="177.45" width="6" height="62.40" rx="1.5" fill="#0ecb81" /><line x1="479.90" y1="172.10" x2="479.90" y2="199.73" stroke="#f6465d" stroke-width="1.4" /><rect x="476.90" y="177.45" width="6" height="10.25" rx="1.5" fill="#f6465d" /><line x1="490.63" y1="164.08" x2="490.63" y2="209.98" stroke="#0ecb81" stroke-width="1.4" /><rect x="487.63" y="175.22" width="6" height="12.48" rx="1.5" fill="#0ecb81" /><line x1="501.37" y1="162.29" x2="501.37" y2="205.53" stroke="#f6465d" stroke-width="1.4" /><rect x="498.37" y="175.22" width="6" height="8.91" rx="1.5" fill="#f6465d" /><line x1="512.10" y1="163.63" x2="512.10" y2="208.20" stroke="#f6465d" stroke-width="1.4" /><rect x="509.10" y="184.13" width="6" height="12.93" rx="1.5" fill="#f6465d" /><line x1="522.84" y1="164.97" x2="522.84" y2="232.71" stroke="#0ecb81" stroke-width="1.4" /><rect x="519.84" y="172.99" width="6" height="24.07" rx="1.5" fill="#0ecb81" /><line x1="533.57" y1="142.68" x2="533.57" y2="206.42" stroke="#f6465d" stroke-width="1.4" /><rect x="530.57" y="172.99" width="6" height="23.62" rx="1.5" fill="#f6465d" /><line x1="544.30" y1="194.83" x2="544.30" y2="235.39" stroke="#f6465d" stroke-width="1.4" /><rect x="541.30" y="196.61" width="6" height="13.37" rx="1.5" fill="#f6465d" /><line x1="555.04" y1="163.19" x2="555.04" y2="222.02" stroke="#f6465d" stroke-width="1.4" /><rect x="552.04" y="209.98" width="6" height="2.67" rx="1.5" fill="#f6465d" /><line x1="565.77" y1="189.04" x2="565.77" y2="251.43" stroke="#f6465d" stroke-width="1.4" /><rect x="562.77" y="212.21" width="6" height="26.30" rx="1.5" fill="#f6465d" /><line x1="576.51" y1="221.13" x2="576.51" y2="261.69" stroke="#f6465d" stroke-width="1.4" /><rect x="573.51" y="238.51" width="6" height="11.14" rx="1.5" fill="#f6465d" /><line x1="587.24" y1="235.39" x2="587.24" y2="277.73" stroke="#0ecb81" stroke-width="1.4" /><rect x="584.24" y="244.75" width="6" height="5.35" rx="1.5" fill="#0ecb81" /><line x1="597.97" y1="215.78" x2="597.97" y2="258.57" stroke="#f6465d" stroke-width="1.4" /><rect x="594.97" y="244.30" width="6" height="2.67" rx="1.5" fill="#f6465d" /><line x1="608.71" y1="246.53" x2="608.71" y2="272.83" stroke="#f6465d" stroke-width="1.4" /><rect x="605.71" y="246.98" width="6" height="8.91" rx="1.5" fill="#f6465d" /><line x1="619.44" y1="251.43" x2="619.44" y2="297.34" stroke="#f6465d" stroke-width="1.4" /><rect x="616.44" y="255.45" width="6" height="38.33" rx="1.5" fill="#f6465d" /><line x1="630.18" y1="271.49" x2="630.18" y2="338.79" stroke="#f6465d" stroke-width="1.4" /><rect x="627.18" y="293.78" width="6" height="20.06" rx="1.5" fill="#f6465d" /><line x1="640.91" y1="310.27" x2="640.91" y2="351.27" stroke="#f6465d" stroke-width="1.4" /><rect x="637.91" y="313.39" width="6" height="20.06" rx="1.5" fill="#f6465d" /><line x1="651.65" y1="318.74" x2="651.65" y2="355.28" stroke="#0ecb81" stroke-width="1.4" /><rect x="648.65" y="320.52" width="6" height="12.93" rx="1.5" fill="#0ecb81" /><line x1="662.38" y1="304.03" x2="662.38" y2="371.33" stroke="#0ecb81" stroke-width="1.4" /><rect x="659.38" y="311.60" width="6" height="9.36" rx="1.5" fill="#0ecb81" /><line x1="673.11" y1="297.79" x2="673.11" y2="331.21" stroke="#f6465d" stroke-width="1.4" /><rect x="670.11" y="311.60" width="6" height="5.79" rx="1.5" fill="#f6465d" /><line x1="683.85" y1="285.75" x2="683.85" y2="323.64" stroke="#0ecb81" stroke-width="1.4" /><rect x="680.85" y="292.44" width="6" height="24.96" rx="1.5" fill="#0ecb81" /><line x1="694.58" y1="289.32" x2="694.58" y2="324.98" stroke="#f6465d" stroke-width="1.4" /><rect x="691.58" y="291.99" width="6" height="22.73" rx="1.5" fill="#f6465d" /><line x1="705.32" y1="308.93" x2="705.32" y2="335.23" stroke="#f6465d" stroke-width="1.4" /><rect x="702.32" y="314.28" width="6" height="12.93" rx="1.5" fill="#f6465d" /><line x1="716.05" y1="325.87" x2="716.05" y2="351.27" stroke="#f6465d" stroke-width="1.4" /><rect x="713.05" y="327.20" width="6" height="14.26" rx="1.5" fill="#f6465d" /><line x1="726.78" y1="332.11" x2="726.78" y2="433.28" stroke="#f6465d" stroke-width="1.4" /><rect x="723.78" y="341.91" width="6" height="30.31" rx="1.5" fill="#f6465d" /><line x1="737.52" y1="355.73" x2="737.52" y2="385.14" stroke="#0ecb81" stroke-width="1.4" /><rect x="734.52" y="369.55" width="6" height="3.12" rx="1.5" fill="#0ecb81" /><line x1="748.25" y1="340.13" x2="748.25" y2="374.89" stroke="#0ecb81" stroke-width="1.4" /><rect x="745.25" y="346.81" width="6" height="22.73" rx="1.5" fill="#0ecb81" /><line x1="758.99" y1="331.66" x2="758.99" y2="357.07" stroke="#0ecb81" stroke-width="1.4" /><rect x="755.99" y="340.13" width="6" height="7.13" rx="1.5" fill="#0ecb81" /><line x1="769.72" y1="336.12" x2="769.72" y2="353.50" stroke="#f6465d" stroke-width="1.4" /><rect x="766.72" y="340.57" width="6" height="11.14" rx="1.5" fill="#f6465d" /><line x1="780.46" y1="339.24" x2="780.46" y2="368.21" stroke="#f6465d" stroke-width="1.4" /><rect x="777.46" y="351.72" width="6" height="12.48" rx="1.5" fill="#f6465d" /><line x1="791.19" y1="361.52" x2="791.19" y2="382.02" stroke="#f6465d" stroke-width="1.4" /><rect x="788.19" y="364.20" width="6" height="13.37" rx="1.5" fill="#f6465d" /><line x1="801.92" y1="377.57" x2="801.92" y2="452.00" stroke="#f6465d" stroke-width="1.4" /><rect x="798.92" y="377.57" width="6" height="41.45" rx="1.5" fill="#f6465d" /><line x1="812.66" y1="399.85" x2="812.66" y2="430.61" stroke="#0ecb81" stroke-width="1.4" /><rect x="809.66" y="414.56" width="6" height="4.01" rx="1.5" fill="#0ecb81" /><line x1="823.39" y1="362.86" x2="823.39" y2="422.58" stroke="#0ecb81" stroke-width="1.4" /><rect x="820.39" y="391.38" width="6" height="23.18" rx="1.5" fill="#0ecb81" /><line x1="834.13" y1="386.48" x2="834.13" y2="450.66" stroke="#f6465d" stroke-width="1.4" /><rect x="831.13" y="390.94" width="6" height="38.78" rx="1.5" fill="#f6465d" /><line x1="844.86" y1="362.41" x2="844.86" y2="443.98" stroke="#0ecb81" stroke-width="1.4" /><rect x="841.86" y="380.69" width="6" height="49.03" rx="1.5" fill="#0ecb81" /><line x1="855.59" y1="342.80" x2="855.59" y2="408.77" stroke="#0ecb81" stroke-width="1.4" /><rect x="852.59" y="356.17" width="6" height="24.96" rx="1.5" fill="#0ecb81" /><line x1="866.33" y1="335.67" x2="866.33" y2="375.34" stroke="#f6465d" stroke-width="1.4" /><rect x="863.33" y="356.17" width="6" height="10.70" rx="1.5" fill="#f6465d" /><line x1="877.06" y1="314.72" x2="877.06" y2="366.87" stroke="#0ecb81" stroke-width="1.4" /><rect x="874.06" y="327.20" width="6" height="39.67" rx="1.5" fill="#0ecb81" /><line x1="887.80" y1="296.00" x2="887.80" y2="337.90" stroke="#0ecb81" stroke-width="1.4" /><rect x="884.80" y="305.81" width="6" height="21.39" rx="1.5" fill="#0ecb81" /><line x1="898.53" y1="296.45" x2="898.53" y2="316.95" stroke="#f6465d" stroke-width="1.4" /><rect x="895.53" y="305.81" width="6" height="3.12" rx="1.5" fill="#f6465d" /><line x1="909.27" y1="297.34" x2="909.27" y2="324.08" stroke="#f6465d" stroke-width="1.4" /><rect x="906.27" y="308.93" width="6" height="2.00" rx="1.5" fill="#f6465d" /><line x1="920.00" y1="306.26" x2="920.00" y2="334.33" stroke="#f6465d" stroke-width="1.4" /><rect x="917.00" y="310.71" width="6" height="16.49" rx="1.5" fill="#f6465d" />
  <polyline points="662.38,371.33 683.85,285.75 726.78,433.28 758.99,331.66 801.92,452.00" fill="none" stroke="#2fc273" stroke-width="4" stroke-linecap="round" stroke-linejoin="round" />
  <circle cx="662.38" cy="371.33" r="5.5" fill="#2fc273" fill-opacity="0.15" stroke="#2fc273" stroke-width="2" /><text x="662.38" y="359.33" fill="#f3f4f6" font-size="15" font-weight="700" text-anchor="middle">X</text><circle cx="683.85" cy="285.75" r="5.5" fill="#2fc273" fill-opacity="0.15" stroke="#2fc273" stroke-width="2" /><text x="683.85" y="273.75" fill="#f3f4f6" font-size="15" font-weight="700" text-anchor="middle">A</text><circle cx="726.78" cy="433.28" r="5.5" fill="#2fc273" fill-opacity="0.15" stroke="#2fc273" stroke-width="2" /><text x="726.78" y="421.28" fill="#f3f4f6" font-size="15" font-weight="700" text-anchor="middle">B</text><circle cx="758.99" cy="331.66" r="5.5" fill="#2fc273" fill-opacity="0.15" stroke="#2fc273" stroke-width="2" /><text x="758.99" y="319.66" fill="#f3f4f6" font-size="15" font-weight="700" text-anchor="middle">C</text><circle cx="801.92" cy="452.00" r="5.5" fill="#2fc273" fill-opacity="0.15" stroke="#2fc273" stroke-width="2" /><text x="801.92" y="440.00" fill="#f3f4f6" font-size="15" font-weight="700" text-anchor="middle">D</text>
  <text x="56" y="492" fill="#8ba0b5" font-size="18">Complete · TP1 0.36281 · TP2 0.36919 · SL 0.35</text>
</svg>
