<svg xmlns="http://www.w3.org/2000/svg" width="960" height="540" viewBox="0 0 960 540">
  <rect width="960" height="540" rx="24" fill="#0b1220" />
  <rect x="28" y="28" width="904" height="484" rx="22" fill="#111827" stroke="#1f2937" />
  <text x="56" y="74" fill="#f3f4f6" font-size="34" font-weight="700">XAUTUSDT · AB=CD</text>
  <text x="904" y="74" fill="#8ba0b5" font-size="20" text-anchor="end">Bearish (매도) · Score 78.2</text>
  <line x1="72" y1="58" x2="920" y2="58" stroke="#223045" stroke-width="1" stroke-dasharray="4 8" /><line x1="72" y1="156" x2="920" y2="156" stroke="#223045" stroke-width="1" stroke-dasharray="4 8" /><line x1="72" y1="255" x2="920" y2="255" stroke="#223045" stroke-width="1" stroke-dasharray="4 8" /><line x1="72" y1="353" x2="920" y2="353" stroke="#223045" stroke-width="1" stroke-dasharray="4 8" /><line x1="72" y1="452" x2="920" y2="452" stroke="#223045" stroke-width="1" stroke-dasharray="4 8" />
  <rect x="770.86" y="-134.84" width="84" height="136.37" fill="#fbbf24" fill-opacity="0.12" stroke="#fbbf24" stroke-width="1.5" stroke-dasharray="6 6" />
  <line x1="72.00" y1="328.52" x2="72.00" y2="377.80" stroke="#f6465d" stroke-width="1.4" /><rect x="69.00" y="328.52" width="6" height="42.39" rx="1.5" fill="#f6465d" /><line x1="85.46" y1="368.19" x2="85.46" y2="445.08" stroke="#f6465d" stroke-width="1.4" /><rect x="82.46" y="370.91" width="6" height="69.80" rx="1.5" fill="#f6465d" /><line x1="98.92" y1="388.53" x2="98.92" y2="452.00" stroke="#0ecb81" stroke-width="1.4" /><rect x="95.92" y="403.91" width="6" height="36.80" rx="1.5" fill="#0ecb81" /><line x1="112.38" y1="366.06" x2="112.38" y2="430.92" stroke="#0ecb81" stroke-width="1.4" /><rect x="109.38" y="373.90" width="6" height="29.65" rx="1.5" fill="#0ecb81" /><line x1="125.84" y1="338.35" x2="125.84" y2="379.63" stroke="#0ecb81" stroke-width="1.4" /><rect x="122.84" y="367.38" width="6" height="6.73" rx="1.5" fill="#0ecb81" /><line x1="139.30" y1="362.92" x2="139.30" y2="407.76" stroke="#f6465d" stroke-width="1.4" /><rect x="136.30" y="366.56" width="6" height="29.45" rx="1.5" fill="#f6465d" /><line x1="152.76" y1="266.59" x2="152.76" y2="401.27" stroke="#0ecb81" stroke-width="1.4" /><rect x="149.76" y="298.43" width="6" height="97.51" rx="1.5" fill="#0ecb81" /><line x1="166.22" y1="287.60" x2="166.22" y2="333.40" stroke="#f6465d" stroke-width="1.4" /><rect x="163.22" y="298.34" width="6" height="2.00" rx="1.5" fill="#f6465d" /><line x1="179.68" y1="293.51" x2="179.68" y2="327.92" stroke="#f6465d" stroke-width="1.4" /><rect x="176.68" y="298.52" width="6" height="18.09" rx="1.5" fill="#f6465d" /><line x1="193.14" y1="315.10" x2="193.14" y2="327.92" stroke="#f6465d" stroke-width="1.4" /><rect x="190.14" y="316.61" width="6" height="7.68" rx="1.5" fill="#f6465d" /><line x1="206.60" y1="313.59" x2="206.60" y2="327.85" stroke="#0ecb81" stroke-width="1.4" /><rect x="203.60" y="314.41" width="6" height="9.88" rx="1.5" fill="#0ecb81" /><line x1="220.06" y1="314.41" x2="220.06" y2="320.19" stroke="#f6465d" stroke-width="1.4" /><rect x="217.06" y="314.41" width="6" height="2.00" rx="1.5" fill="#f6465d" /><line x1="233.52" y1="313.07" x2="233.52" y2="326.62" stroke="#f6465d" stroke-width="1.4" /><rect x="230.52" y="316.34" width="6" height="2.63" rx="1.5" fill="#f6465d" /><line x1="246.98" y1="317.90" x2="246.98" y2="321.59" stroke="#0ecb81" stroke-width="1.4" /><rect x="243.98" y="318.36" width="6" height="2.00" rx="1.5" fill="#0ecb81" /><line x1="260.44" y1="317.90" x2="260.44" y2="323.49" stroke="#f6465d" stroke-width="1.4" /><rect x="257.44" y="318.36" width="6" height="4.13" rx="1.5" fill="#f6465d" /><line x1="273.90" y1="320.30" x2="273.90" y2="326.85" stroke="#0ecb81" stroke-width="1.4" /><rect x="270.90" y="320.68" width="6" height="2.00" rx="1.5" fill="#0ecb81" /><line x1="287.37" y1="320.67" x2="287.37" y2="324.44" stroke="#f6465d" stroke-width="1.4" /><rect x="284.37" y="320.67" width="6" height="2.04" rx="1.5" fill="#f6465d" /><line x1="300.83" y1="320.55" x2="300.83" y2="326.35" stroke="#0ecb81" stroke-width="1.4" /><rect x="297.83" y="321.43" width="6" height="2.00" rx="1.5" fill="#0ecb81" /><line x1="314.29" y1="307.65" x2="314.29" y2="322.00" stroke="#0ecb81" stroke-width="1.4" /><rect x="311.29" y="313.03" width="6" height="8.40" rx="1.5" fill="#0ecb81" /><line x1="327.75" y1="307.28" x2="327.75" y2="316.30" stroke="#0ecb81" stroke-width="1.4" /><rect x="324.75" y="311.47" width="6" height="2.00" rx="1.5" fill="#0ecb81" /><line x1="341.21" y1="301.48" x2="341.21" y2="366.16" stroke="#f6465d" stroke-width="1.4" /><rect x="338.21" y="311.46" width="6" height="50.10" rx="1.5" fill="#f6465d" /><line x1="354.67" y1="297.00" x2="354.67" y2="387.76" stroke="#0ecb81" stroke-width="1.4" /><rect x="351.67" y="316.35" width="6" height="45.18" rx="1.5" fill="#0ecb81" /><line x1="368.13" y1="266.92" x2="368.13" y2="326.15" stroke="#0ecb81" stroke-width="1.4" /><rect x="365.13" y="288.14" width="6" height="28.20" rx="1.5" fill="#0ecb81" /><line x1="381.59" y1="239.53" x2="381.59" y2="290.27" stroke="#0ecb81" stroke-width="1.4" /><rect x="378.59" y="259.08" width="6" height="29.06" rx="1.5" fill="#0ecb81" /><line x1="395.05" y1="240.79" x2="395.05" y2="303.54" stroke="#f6465d" stroke-width="1.4" /><rect x="392.05" y="259.07" width="6" height="16.55" rx="1.5" fill="#f6465d" /><line x1="408.51" y1="274.49" x2="408.51" y2="324.44" stroke="#f6465d" stroke-width="1.4" /><rect x="405.51" y="275.62" width="6" height="27.98" rx="1.5" fill="#f6465d" /><line x1="421.97" y1="296.62" x2="421.97" y2="324.92" stroke="#f6465d" stroke-width="1.4" /><rect x="418.97" y="303.60" width="6" height="2.00" rx="1.5" fill="#f6465d" /><line x1="435.43" y1="206.91" x2="435.43" y2="335.10" stroke="#0ecb81" stroke-width="1.4" /><rect x="432.43" y="265.50" width="6" height="39.71" rx="1.5" fill="#0ecb81" /><line x1="448.89" y1="244.36" x2="448.89" y2="277.35" stroke="#0ecb81" stroke-width="1.4" /><rect x="445.89" y="257.67" width="6" height="7.84" rx="1.5" fill="#0ecb81" /><line x1="462.35" y1="233.04" x2="462.35" y2="289.87" stroke="#0ecb81" stroke-width="1.4" /><rect x="459.35" y="242.30" width="6" height="15.36" rx="1.5" fill="#0ecb81" /><line x1="475.81" y1="201.03" x2="475.81" y2="255.23" stroke="#0ecb81" stroke-width="1.4" /><rect x="472.81" y="222.76" width="6" height="19.55" rx="1.5" fill="#0ecb81" /><line x1="489.27" y1="152.81" x2="489.27" y2="224.33" stroke="#0ecb81" stroke-width="1.4" /><rect x="486.27" y="155.70" width="6" height="67.07" rx="1.5" fill="#0ecb81" /><line x1="502.73" y1="143.11" x2="502.73" y2="182.33" stroke="#0ecb81" stroke-width="1.4" /><rect x="499.73" y="146.39" width="6" height="9.31" rx="1.5" fill="#0ecb81" /><line x1="516.19" y1="121.41" x2="516.19" y2="163.28" stroke="#f6465d" stroke-width="1.4" /><rect x="513.19" y="146.39" width="6" height="15.06" rx="1.5" fill="#f6465d" /><line x1="529.65" y1="101.45" x2="529.65" y2="173.46" stroke="#0ecb81" stroke-width="1.4" /><rect x="526.65" y="133.52" width="6" height="27.93" rx="1.5" fill="#0ecb81" /><line x1="543.11" y1="87.46" x2="543.11" y2="134.85" stroke="#0ecb81" stroke-width="1.4" /><rect x="540.11" y="96.29" width="6" height="37.37" rx="1.5" fill="#0ecb81" /><line x1="556.57" y1="63.61" x2="556.57" y2="128.98" stroke="#0ecb81" stroke-width="1.4" /><rect x="553.57" y="65.50" width="6" height="31.25" rx="1.5" fill="#0ecb81" /><line x1="570.03" y1="58.00" x2="570.03" y2="107.55" stroke="#f6465d" stroke-width="1.4" /><rect x="567.03" y="65.49" width="6" height="20.76" rx="1.5" fill="#f6465d" /><line x1="583.49" y1="58.37" x2="583.49" y2="99.99" stroke="#0ecb81" stroke-width="1.4" /><rect x="580.49" y="73.19" width="6" height="13.05" rx="1.5" fill="#0ecb81" /><line x1="596.95" y1="59.86" x2="596.95" y2="191.15" stroke="#f6465d" stroke-width="1.4" /><rect x="593.95" y="73.20" width="6" height="93.62" rx="1.5" fill="#f6465d" /><line x1="610.41" y1="163.90" x2="610.41" y2="278.63" stroke="#f6465d" stroke-width="1.4" /><rect x="607.41" y="166.83" width="6" height="30.33" rx="1.5" fill="#f6465d" /><line x1="623.87" y1="192.28" x2="623.87" y2="241.29" stroke="#f6465d" stroke-width="1.4" /><rect x="620.87" y="197.15" width="6" height="39.62" rx="1.5" fill="#f6465d" /><line x1="637.33" y1="146.11" x2="637.33" y2="254.02" stroke="#0ecb81" stroke-width="1.4" /><rect x="634.33" y="182.38" width="6" height="54.47" rx="1.5" fill="#0ecb81" /><line x1="650.79" y1="162.54" x2="650.79" y2="197.06" stroke="#0ecb81" stroke-width="1.4" /><rect x="647.79" y="171.12" width="6" height="11.26" rx="1.5" fill="#0ecb81" /><line x1="664.25" y1="164.99" x2="664.25" y2="177.52" stroke="#0ecb81" stroke-width="1.4" /><rect x="661.25" y="166.98" width="6" height="4.14" rx="1.5" fill="#0ecb81" /><line x1="677.71" y1="163.45" x2="677.71" y2="176.02" stroke="#f6465d" stroke-width="1.4" /><rect x="674.71" y="166.98" width="6" height="4.33" rx="1.5" fill="#f6465d" /><line x1="691.17" y1="166.32" x2="691.17" y2="176.67" stroke="#f6465d" stroke-width="1.4" /><rect x="688.17" y="171.32" width="6" height="4.43" rx="1.5" fill="#f6465d" /><line x1="704.63" y1="171.17" x2="704.63" y2="178.53" stroke="#0ecb81" stroke-width="1.4" /><rect x="701.63" y="174.90" width="6" height="2.00" rx="1.5" fill="#0ecb81" /><line x1="718.10" y1="171.72" x2="718.10" y2="189.28" stroke="#f6465d" stroke-width="1.4" /><rect x="715.10" y="174.89" width="6" height="9.54" rx="1.5" fill="#f6465d" /><line x1="731.56" y1="181.27" x2="731.56" y2="188.92" stroke="#f6465d" stroke-width="1.4" /><rect x="728.56" y="184.42" width="6" height="2.67" rx="1.5" fill="#f6465d" /><line x1="745.02" y1="182.80" x2="745.02" y2="187.97" stroke="#0ecb81" stroke-width="1.4" /><rect x="742.02" y="182.87" width="6" height="4.22" rx="1.5" fill="#0ecb81" /><line x1="758.48" y1="176.63" x2="758.48" y2="185.70" stroke="#0ecb81" stroke-width="1.4" /><rect x="755.48" y="176.68" width="6" height="6.18" rx="1.5" fill="#0ecb81" /><line x1="771.94" y1="176.63" x2="771.94" y2="180.73" stroke="#f6465d" stroke-width="1.4" /><rect x="768.94" y="176.67" width="6" height="4.07" rx="1.5" fill="#f6465d" /><line x1="785.40" y1="170.62" x2="785.40" y2="183.58" stroke="#0ecb81" stroke-width="1.4" /><rect x="782.40" y="175.32" width="6" height="5.41" rx="1.5" fill="#0ecb81" /><line x1="798.86" y1="169.83" x2="798.86" y2="179.32" stroke="#0ecb81" stroke-width="1.4" /><rect x="795.86" y="173.82" width="6" height="2.00" rx="1.5" fill="#0ecb81" /><line x1="812.32" y1="170.06" x2="812.32" y2="183.49" stroke="#f6465d" stroke-width="1.4" /><rect x="809.32" y="173.82" width="6" height="9.66" rx="1.5" fill="#f6465d" /><line x1="825.78" y1="178.49" x2="825.78" y2="183.49" stroke="#0ecb81" stroke-width="1.4" /><rect x="822.78" y="181.65" width="6" height="2.00" rx="1.5" fill="#0ecb81" /><line x1="839.24" y1="177.23" x2="839.24" y2="183.43" stroke="#0ecb81" stroke-width="1.4" /><rect x="836.24" y="178.81" width="6" height="2.84" rx="1.5" fill="#0ecb81" /><line x1="852.70" y1="177.83" x2="852.70" y2="187.96" stroke="#f6465d" stroke-width="1.4" /><rect x="849.70" y="178.81" width="6" height="3.55" rx="1.5" fill="#f6465d" /><line x1="866.16" y1="178.05" x2="866.16" y2="196.72" stroke="#f6465d" stroke-width="1.4" /><rect x="863.16" y="182.37" width="6" height="8.15" rx="1.5" fill="#f6465d" /><line x1="879.62" y1="184.31" x2="879.62" y2="208.76" stroke="#f6465d" stroke-width="1.4" /><rect x="876.62" y="190.51" width="6" height="2.76" rx="1.5" fill="#f6465d" /><line x1="893.08" y1="187.79" x2="893.08" y2="211.34" stroke="#f6465d" stroke-width="1.4" /><rect x="890.08" y="193.29" width="6" height="10.12" rx="1.5" fill="#f6465d" /><line x1="906.54" y1="182.92" x2="906.54" y2="234.80" stroke="#f6465d" stroke-width="1.4" /><rect x="903.54" y="203.39" width="6" height="24.97" rx="1.5" fill="#f6465d" /><line x1="920.00" y1="174.07" x2="920.00" y2="237.48" stroke="#0ecb81" stroke-width="1.4" /><rect x="917.00" y="207.29" width="6" height="21.08" rx="1.5" fill="#0ecb81" />
  <polyline points="381.59,239.53 435.43,335.10 570.03,58.00 610.41,278.63 798.86,169.83" fill="none" stroke="#2fc273" stroke-width="4" stroke-linecap="round" stroke-linejoin="round" />
  <circle cx="381.59" cy="239.53" r="5.5" fill="#2fc273" fill-opacity="0.15" stroke="#2fc273" stroke-width="2" /><text x="381.59" y="227.53" fill="#f3f4f6" font-size="15" font-weight="700" text-anchor="middle">X</text><circle cx="435.43" cy="335.10" r="5.5" fill="#2fc273" fill-opacity="0.15" stroke="#2fc273" stroke-width="2" /><text x="435.43" y="323.10" fill="#f3f4f6" font-size="15" font-weight="700" text-anchor="middle">A</text><circle cx="570.03" cy="58.00" r="5.5" fill="#2fc273" fill-opacity="0.15" stroke="#2fc273" stroke-width="2" /><text x="570.03" y="46.00" fill="#f3f4f6" font-size="15" font-weight="700" text-anchor="middle">B</text><circle cx="610.41" cy="278.63" r="5.5" fill="#2fc273" fill-opacity="0.15" stroke="#2fc273" stroke-width="2" /><text x="610.41" y="266.63" fill="#f3f4f6" font-size="15" font-weight="700" text-anchor="middle">C</text><circle cx="798.86" cy="169.83" r="5.5" fill="#2fc273" fill-opacity="0.15" stroke="#2fc273" stroke-width="2" /><text x="798.86" y="157.83" fill="#f3f4f6" font-size="15" font-weight="700" text-anchor="middle">D</text>
  <text x="56" y="492" fill="#8ba0b5" font-size="18">일반 완성 · TP1 4601.22 · TP2 4574.64 · SL 4657.09</text>
</svg>
