<svg xmlns="http://www.w3.org/2000/svg" width="960" height="540" viewBox="0 0 960 540">
  <rect width="960" height="540" rx="24" fill="#0b1220" />
  <rect x="28" y="28" width="904" height="484" rx="22" fill="#111827" stroke="#1f2937" />
  <text x="56" y="74" fill="#f3f4f6" font-size="34" font-weight="700">XAUTUSDT · AB=CD</text>
  <text x="904" y="74" fill="#8ba0b5" font-size="20" text-anchor="end">Bearish (매도) · Score 75.6</text>
  <line x1="72" y1="58" x2="920" y2="58" stroke="#223045" stroke-width="1" stroke-dasharray="4 8" /><line x1="72" y1="156" x2="920" y2="156" stroke="#223045" stroke-width="1" stroke-dasharray="4 8" /><line x1="72" y1="255" x2="920" y2="255" stroke="#223045" stroke-width="1" stroke-dasharray="4 8" /><line x1="72" y1="353" x2="920" y2="353" stroke="#223045" stroke-width="1" stroke-dasharray="4 8" /><line x1="72" y1="452" x2="920" y2="452" stroke="#223045" stroke-width="1" stroke-dasharray="4 8" />
  <rect x="526.71" y="156.00" width="84" height="30.87" fill="#fbbf24" fill-opacity="0.12" stroke="#fbbf24" stroke-width="1.5" stroke-dasharray="6 6" />
  <line x1="72.00" y1="328.52" x2="72.00" y2="377.80" stroke="#f6465d" stroke-width="1.4" /><rect x="69.00" y="328.52" width="6" height="42.39" rx="1.5" fill="#f6465d" /><line x1="85.05" y1="368.19" x2="85.05" y2="445.08" stroke="#f6465d" stroke-width="1.4" /><rect x="82.05" y="370.91" width="6" height="69.80" rx="1.5" fill="#f6465d" /><line x1="98.09" y1="388.53" x2="98.09" y2="452.00" stroke="#0ecb81" stroke-width="1.4" /><rect x="95.09" y="403.91" width="6" height="36.80" rx="1.5" fill="#0ecb81" /><line x1="111.14" y1="366.06" x2="111.14" y2="430.92" stroke="#0ecb81" stroke-width="1.4" /><rect x="108.14" y="373.90" width="6" height="29.65" rx="1.5" fill="#0ecb81" /><line x1="124.18" y1="338.35" x2="124.18" y2="379.63" stroke="#0ecb81" stroke-width="1.4" /><rect x="121.18" y="367.38" width="6" height="6.73" rx="1.5" fill="#0ecb81" /><line x1="137.23" y1="362.92" x2="137.23" y2="407.76" stroke="#f6465d" stroke-width="1.4" /><rect x="134.23" y="366.56" width="6" height="29.45" rx="1.5" fill="#f6465d" /><line x1="150.28" y1="266.59" x2="150.28" y2="401.27" stroke="#0ecb81" stroke-width="1.4" /><rect x="147.28" y="298.43" width="6" height="97.51" rx="1.5" fill="#0ecb81" /><line x1="163.32" y1="287.60" x2="163.32" y2="333.40" stroke="#f6465d" stroke-width="1.4" /><rect x="160.32" y="298.34" width="6" height="2.00" rx="1.5" fill="#f6465d" /><line x1="176.37" y1="293.51" x2="176.37" y2="327.92" stroke="#f6465d" stroke-width="1.4" /><rect x="173.37" y="298.52" width="6" height="18.09" rx="1.5" fill="#f6465d" /><line x1="189.42" y1="315.10" x2="189.42" y2="327.92" stroke="#f6465d" stroke-width="1.4" /><rect x="186.42" y="316.61" width="6" height="7.68" rx="1.5" fill="#f6465d" /><line x1="202.46" y1="313.59" x2="202.46" y2="327.85" stroke="#0ecb81" stroke-width="1.4" /><rect x="199.46" y="314.41" width="6" height="9.88" rx="1.5" fill="#0ecb81" /><line x1="215.51" y1="314.41" x2="215.51" y2="320.19" stroke="#f6465d" stroke-width="1.4" /><rect x="212.51" y="314.41" width="6" height="2.00" rx="1.5" fill="#f6465d" /><line x1="228.55" y1="313.07" x2="228.55" y2="326.62" stroke="#f6465d" stroke-width="1.4" /><rect x="225.55" y="316.34" width="6" height="2.63" rx="1.5" fill="#f6465d" /><line x1="241.60" y1="317.90" x2="241.60" y2="321.59" stroke="#0ecb81" stroke-width="1.4" /><rect x="238.60" y="318.36" width="6" height="2.00" rx="1.5" fill="#0ecb81" /><line x1="254.65" y1="317.90" x2="254.65" y2="323.49" stroke="#f6465d" stroke-width="1.4" /><rect x="251.65" y="318.36" width="6" height="4.13" rx="1.5" fill="#f6465d" /><line x1="267.69" y1="320.30" x2="267.69" y2="326.85" stroke="#0ecb81" stroke-width="1.4" /><rect x="264.69" y="320.68" width="6" height="2.00" rx="1.5" fill="#0ecb81" /><line x1="280.74" y1="320.67" x2="280.74" y2="324.44" stroke="#f6465d" stroke-width="1.4" /><rect x="277.74" y="320.67" width="6" height="2.04" rx="1.5" fill="#f6465d" /><line x1="293.78" y1="320.55" x2="293.78" y2="326.35" stroke="#0ecb81" stroke-width="1.4" /><rect x="290.78" y="321.43" width="6" height="2.00" rx="1.5" fill="#0ecb81" /><line x1="306.83" y1="307.65" x2="306.83" y2="322.00" stroke="#0ecb81" stroke-width="1.4" /><rect x="303.83" y="313.03" width="6" height="8.40" rx="1.5" fill="#0ecb81" /><line x1="319.88" y1="307.28" x2="319.88" y2="316.30" stroke="#0ecb81" stroke-width="1.4" /><rect x="316.88" y="311.47" width="6" height="2.00" rx="1.5" fill="#0ecb81" /><line x1="332.92" y1="301.48" x2="332.92" y2="366.16" stroke="#f6465d" stroke-width="1.4" /><rect x="329.92" y="311.46" width="6" height="50.10" rx="1.5" fill="#f6465d" /><line x1="345.97" y1="297.00" x2="345.97" y2="387.76" stroke="#0ecb81" stroke-width="1.4" /><rect x="342.97" y="316.35" width="6" height="45.18" rx="1.5" fill="#0ecb81" /><line x1="359.02" y1="266.92" x2="359.02" y2="326.15" stroke="#0ecb81" stroke-width="1.4" /><rect x="356.02" y="288.14" width="6" height="28.20" rx="1.5" fill="#0ecb81" /><line x1="372.06" y1="239.53" x2="372.06" y2="290.27" stroke="#0ecb81" stroke-width="1.4" /><rect x="369.06" y="259.08" width="6" height="29.06" rx="1.5" fill="#0ecb81" /><line x1="385.11" y1="240.79" x2="385.11" y2="303.54" stroke="#f6465d" stroke-width="1.4" /><rect x="382.11" y="259.07" width="6" height="16.55" rx="1.5" fill="#f6465d" /><line x1="398.15" y1="274.49" x2="398.15" y2="324.44" stroke="#f6465d" stroke-width="1.4" /><rect x="395.15" y="275.62" width="6" height="27.98" rx="1.5" fill="#f6465d" /><line x1="411.20" y1="296.62" x2="411.20" y2="324.92" stroke="#f6465d" stroke-width="1.4" /><rect x="408.20" y="303.60" width="6" height="2.00" rx="1.5" fill="#f6465d" /><line x1="424.25" y1="206.91" x2="424.25" y2="335.10" stroke="#0ecb81" stroke-width="1.4" /><rect x="421.25" y="265.50" width="6" height="39.71" rx="1.5" fill="#0ecb81" /><line x1="437.29" y1="244.36" x2="437.29" y2="277.35" stroke="#0ecb81" stroke-width="1.4" /><rect x="434.29" y="257.67" width="6" height="7.84" rx="1.5" fill="#0ecb81" /><line x1="450.34" y1="233.04" x2="450.34" y2="289.87" stroke="#0ecb81" stroke-width="1.4" /><rect x="447.34" y="242.30" width="6" height="15.36" rx="1.5" fill="#0ecb81" /><line x1="463.38" y1="201.03" x2="463.38" y2="255.23" stroke="#0ecb81" stroke-width="1.4" /><rect x="460.38" y="222.76" width="6" height="19.55" rx="1.5" fill="#0ecb81" /><line x1="476.43" y1="152.81" x2="476.43" y2="224.33" stroke="#0ecb81" stroke-width="1.4" /><rect x="473.43" y="155.70" width="6" height="67.07" rx="1.5" fill="#0ecb81" /><line x1="489.48" y1="143.11" x2="489.48" y2="182.33" stroke="#0ecb81" stroke-width="1.4" /><rect x="486.48" y="146.39" width="6" height="9.31" rx="1.5" fill="#0ecb81" /><line x1="502.52" y1="121.41" x2="502.52" y2="163.28" stroke="#f6465d" stroke-width="1.4" /><rect x="499.52" y="146.39" width="6" height="15.06" rx="1.5" fill="#f6465d" /><line x1="515.57" y1="101.45" x2="515.57" y2="173.46" stroke="#0ecb81" stroke-width="1.4" /><rect x="512.57" y="133.52" width="6" height="27.93" rx="1.5" fill="#0ecb81" /><line x1="528.62" y1="87.46" x2="528.62" y2="134.85" stroke="#0ecb81" stroke-width="1.4" /><rect x="525.62" y="96.29" width="6" height="37.37" rx="1.5" fill="#0ecb81" /><line x1="541.66" y1="63.61" x2="541.66" y2="128.98" stroke="#0ecb81" stroke-width="1.4" /><rect x="538.66" y="65.50" width="6" height="31.25" rx="1.5" fill="#0ecb81" /><line x1="554.71" y1="58.00" x2="554.71" y2="107.55" stroke="#f6465d" stroke-width="1.4" /><rect x="551.71" y="65.49" width="6" height="20.76" rx="1.5" fill="#f6465d" /><line x1="567.75" y1="58.37" x2="567.75" y2="99.99" stroke="#0ecb81" stroke-width="1.4" /><rect x="564.75" y="73.19" width="6" height="13.05" rx="1.5" fill="#0ecb81" /><line x1="580.80" y1="59.86" x2="580.80" y2="191.15" stroke="#f6465d" stroke-width="1.4" /><rect x="577.80" y="73.20" width="6" height="93.62" rx="1.5" fill="#f6465d" /><line x1="593.85" y1="163.90" x2="593.85" y2="278.63" stroke="#f6465d" stroke-width="1.4" /><rect x="590.85" y="166.83" width="6" height="30.33" rx="1.5" fill="#f6465d" /><line x1="606.89" y1="192.28" x2="606.89" y2="241.29" stroke="#f6465d" stroke-width="1.4" /><rect x="603.89" y="197.15" width="6" height="39.62" rx="1.5" fill="#f6465d" /><line x1="619.94" y1="146.11" x2="619.94" y2="254.02" stroke="#0ecb81" stroke-width="1.4" /><rect x="616.94" y="182.38" width="6" height="54.47" rx="1.5" fill="#0ecb81" /><line x1="632.98" y1="162.54" x2="632.98" y2="197.06" stroke="#0ecb81" stroke-width="1.4" /><rect x="629.98" y="171.12" width="6" height="11.26" rx="1.5" fill="#0ecb81" /><line x1="646.03" y1="164.99" x2="646.03" y2="177.52" stroke="#0ecb81" stroke-width="1.4" /><rect x="643.03" y="166.98" width="6" height="4.14" rx="1.5" fill="#0ecb81" /><line x1="659.08" y1="163.45" x2="659.08" y2="176.02" stroke="#f6465d" stroke-width="1.4" /><rect x="656.08" y="166.98" width="6" height="4.33" rx="1.5" fill="#f6465d" /><line x1="672.12" y1="166.32" x2="672.12" y2="176.67" stroke="#f6465d" stroke-width="1.4" /><rect x="669.12" y="171.32" width="6" height="4.43" rx="1.5" fill="#f6465d" /><line x1="685.17" y1="171.17" x2="685.17" y2="178.53" stroke="#0ecb81" stroke-width="1.4" /><rect x="682.17" y="174.90" width="6" height="2.00" rx="1.5" fill="#0ecb81" /><line x1="698.22" y1="171.72" x2="698.22" y2="189.28" stroke="#f6465d" stroke-width="1.4" /><rect x="695.22" y="174.89" width="6" height="9.54" rx="1.5" fill="#f6465d" /><line x1="711.26" y1="181.27" x2="711.26" y2="188.92" stroke="#f6465d" stroke-width="1.4" /><rect x="708.26" y="184.42" width="6" height="2.67" rx="1.5" fill="#f6465d" /><line x1="724.31" y1="182.80" x2="724.31" y2="187.97" stroke="#0ecb81" stroke-width="1.4" /><rect x="721.31" y="182.87" width="6" height="4.22" rx="1.5" fill="#0ecb81" /><line x1="737.35" y1="176.63" x2="737.35" y2="185.70" stroke="#0ecb81" stroke-width="1.4" /><rect x="734.35" y="176.68" width="6" height="6.18" rx="1.5" fill="#0ecb81" /><line x1="750.40" y1="176.63" x2="750.40" y2="180.73" stroke="#f6465d" stroke-width="1.4" /><rect x="747.40" y="176.67" width="6" height="4.07" rx="1.5" fill="#f6465d" /><line x1="763.45" y1="170.62" x2="763.45" y2="183.58" stroke="#0ecb81" stroke-width="1.4" /><rect x="760.45" y="175.32" width="6" height="5.41" rx="1.5" fill="#0ecb81" /><line x1="776.49" y1="169.83" x2="776.49" y2="179.32" stroke="#0ecb81" stroke-width="1.4" /><rect x="773.49" y="173.82" width="6" height="2.00" rx="1.5" fill="#0ecb81" /><line x1="789.54" y1="170.06" x2="789.54" y2="183.49" stroke="#f6465d" stroke-width="1.4" /><rect x="786.54" y="173.82" width="6" height="9.66" rx="1.5" fill="#f6465d" /><line x1="802.58" y1="178.49" x2="802.58" y2="183.49" stroke="#0ecb81" stroke-width="1.4" /><rect x="799.58" y="181.65" width="6" height="2.00" rx="1.5" fill="#0ecb81" /><line x1="815.63" y1="177.23" x2="815.63" y2="183.43" stroke="#0ecb81" stroke-width="1.4" /><rect x="812.63" y="178.81" width="6" height="2.84" rx="1.5" fill="#0ecb81" /><line x1="828.68" y1="177.83" x2="828.68" y2="187.96" stroke="#f6465d" stroke-width="1.4" /><rect x="825.68" y="178.81" width="6" height="3.55" rx="1.5" fill="#f6465d" /><line x1="841.72" y1="178.05" x2="841.72" y2="196.72" stroke="#f6465d" stroke-width="1.4" /><rect x="838.72" y="182.37" width="6" height="8.15" rx="1.5" fill="#f6465d" /><line x1="854.77" y1="184.31" x2="854.77" y2="208.76" stroke="#f6465d" stroke-width="1.4" /><rect x="851.77" y="190.51" width="6" height="2.76" rx="1.5" fill="#f6465d" /><line x1="867.82" y1="187.79" x2="867.82" y2="211.34" stroke="#f6465d" stroke-width="1.4" /><rect x="864.82" y="193.29" width="6" height="10.12" rx="1.5" fill="#f6465d" /><line x1="880.86" y1="182.92" x2="880.86" y2="234.80" stroke="#f6465d" stroke-width="1.4" /><rect x="877.86" y="203.39" width="6" height="24.97" rx="1.5" fill="#f6465d" /><line x1="893.91" y1="174.07" x2="893.91" y2="237.48" stroke="#0ecb81" stroke-width="1.4" /><rect x="890.91" y="202.85" width="6" height="25.52" rx="1.5" fill="#0ecb81" /><line x1="906.95" y1="161.12" x2="906.95" y2="202.84" stroke="#0ecb81" stroke-width="1.4" /><rect x="903.95" y="164.32" width="6" height="38.52" rx="1.5" fill="#0ecb81" /><line x1="920.00" y1="143.50" x2="920.00" y2="167.49" stroke="#0ecb81" stroke-width="1.4" /><rect x="917.00" y="156.03" width="6" height="8.28" rx="1.5" fill="#0ecb81" />
  <polyline points="150.28,266.59 345.97,387.76 372.06,239.53 424.25,335.10 554.71,58.00" fill="none" stroke="#2fc273" stroke-width="4" stroke-linecap="round" stroke-linejoin="round" />
  <circle cx="150.28" cy="266.59" r="5.5" fill="#2fc273" fill-opacity="0.15" stroke="#2fc273" stroke-width="2" /><text x="150.28" y="254.59" fill="#f3f4f6" font-size="15" font-weight="700" text-anchor="middle">X</text><circle cx="345.97" cy="387.76" r="5.5" fill="#2fc273" fill-opacity="0.15" stroke="#2fc273" stroke-width="2" /><text x="345.97" y="375.76" fill="#f3f4f6" font-size="15" font-weight="700" text-anchor="middle">A</text><circle cx="372.06" cy="239.53" r="5.5" fill="#2fc273" fill-opacity="0.15" stroke="#2fc273" stroke-width="2" /><text x="372.06" y="227.53" fill="#f3f4f6" font-size="15" font-weight="700" text-anchor="middle">B</text><circle cx="424.25" cy="335.10" r="5.5" fill="#2fc273" fill-opacity="0.15" stroke="#2fc273" stroke-width="2" /><text x="424.25" y="323.10" fill="#f3f4f6" font-size="15" font-weight="700" text-anchor="middle">C</text><circle cx="554.71" cy="58.00" r="5.5" fill="#2fc273" fill-opacity="0.15" stroke="#2fc273" stroke-width="2" /><text x="554.71" y="46.00" fill="#f3f4f6" font-size="15" font-weight="700" text-anchor="middle">D</text>
  <text x="56" y="492" fill="#8ba0b5" font-size="18">일반 완성 · TP1 4650.42 · TP2 4582.74 · SL 4776.27</text>
</svg>
