<svg xmlns="http://www.w3.org/2000/svg" width="960" height="540" viewBox="0 0 960 540">
  <rect width="960" height="540" rx="24" fill="#0b1220" />
  <rect x="28" y="28" width="904" height="484" rx="22" fill="#111827" stroke="#1f2937" />
  <text x="56" y="74" fill="#f3f4f6" font-size="34" font-weight="700">XLMUSDT · AB=CD</text>
  <text x="904" y="74" fill="#8ba0b5" font-size="20" text-anchor="end">Bearish (매도) · Score 88.4</text>
  <line x1="72" y1="58" x2="920" y2="58" stroke="#223045" stroke-width="1" stroke-dasharray="4 8" /><line x1="72" y1="156" x2="920" y2="156" stroke="#223045" stroke-width="1" stroke-dasharray="4 8" /><line x1="72" y1="255" x2="920" y2="255" stroke="#223045" stroke-width="1" stroke-dasharray="4 8" /><line x1="72" y1="353" x2="920" y2="353" stroke="#223045" stroke-width="1" stroke-dasharray="4 8" /><line x1="72" y1="452" x2="920" y2="452" stroke="#223045" stroke-width="1" stroke-dasharray="4 8" />
  <rect x="763.19" y="136.42" width="84" height="20.24" fill="#fbbf24" fill-opacity="0.12" stroke="#fbbf24" stroke-width="1.5" stroke-dasharray="6 6" />
  <line x1="72.00" y1="279.35" x2="72.00" y2="367.68" stroke="#f6465d" stroke-width="1.4" /><rect x="69.00" y="291.36" width="6" height="38.58" rx="1.5" fill="#f6465d" /><line x1="82.73" y1="328.04" x2="82.73" y2="399.51" stroke="#f6465d" stroke-width="1.4" /><rect x="79.73" y="329.94" width="6" height="67.25" rx="1.5" fill="#f6465d" /><line x1="93.47" y1="328.89" x2="93.47" y2="400.14" stroke="#0ecb81" stroke-width="1.4" /><rect x="90.47" y="376.74" width="6" height="20.45" rx="1.5" fill="#0ecb81" /><line x1="104.20" y1="362.20" x2="104.20" y2="416.80" stroke="#f6465d" stroke-width="1.4" /><rect x="101.20" y="376.53" width="6" height="2.32" rx="1.5" fill="#f6465d" /><line x1="114.94" y1="350.81" x2="114.94" y2="409.00" stroke="#0ecb81" stroke-width="1.4" /><rect x="111.94" y="378.85" width="6" height="2.00" rx="1.5" fill="#0ecb81" /><line x1="125.67" y1="308.44" x2="125.67" y2="391.71" stroke="#f6465d" stroke-width="1.4" /><rect x="122.67" y="378.85" width="6" height="2.00" rx="1.5" fill="#f6465d" /><line x1="136.41" y1="358.61" x2="136.41" y2="400.35" stroke="#f6465d" stroke-width="1.4" /><rect x="133.41" y="380.11" width="6" height="9.91" rx="1.5" fill="#f6465d" /><line x1="147.14" y1="340.27" x2="147.14" y2="402.46" stroke="#0ecb81" stroke-width="1.4" /><rect x="144.14" y="376.53" width="6" height="13.70" rx="1.5" fill="#0ecb81" /><line x1="157.87" y1="241.19" x2="157.87" y2="394.45" stroke="#0ecb81" stroke-width="1.4" /><rect x="154.87" y="261.43" width="6" height="115.31" rx="1.5" fill="#0ecb81" /><line x1="168.61" y1="240.98" x2="168.61" y2="308.65" stroke="#f6465d" stroke-width="1.4" /><rect x="165.61" y="261.22" width="6" height="11.17" rx="1.5" fill="#f6465d" /><line x1="179.34" y1="161.93" x2="179.34" y2="302.96" stroke="#0ecb81" stroke-width="1.4" /><rect x="176.34" y="174.79" width="6" height="97.81" rx="1.5" fill="#0ecb81" /><line x1="190.08" y1="168.25" x2="190.08" y2="217.16" stroke="#f6465d" stroke-width="1.4" /><rect x="187.08" y="174.79" width="6" height="15.81" rx="1.5" fill="#f6465d" /><line x1="200.81" y1="97.84" x2="200.81" y2="192.07" stroke="#0ecb81" stroke-width="1.4" /><rect x="197.81" y="128.41" width="6" height="62.19" rx="1.5" fill="#0ecb81" /><line x1="211.54" y1="110.70" x2="211.54" y2="252.36" stroke="#f6465d" stroke-width="1.4" /><rect x="208.54" y="128.62" width="6" height="92.97" rx="1.5" fill="#f6465d" /><line x1="222.28" y1="154.97" x2="222.28" y2="240.14" stroke="#0ecb81" stroke-width="1.4" /><rect x="219.28" y="193.97" width="6" height="27.41" rx="1.5" fill="#0ecb81" /><line x1="233.01" y1="173.73" x2="233.01" y2="210.84" stroke="#0ecb81" stroke-width="1.4" /><rect x="230.01" y="181.32" width="6" height="12.65" rx="1.5" fill="#0ecb81" /><line x1="243.75" y1="143.59" x2="243.75" y2="199.87" stroke="#0ecb81" stroke-width="1.4" /><rect x="240.75" y="180.48" width="6" height="2.00" rx="1.5" fill="#0ecb81" /><line x1="254.48" y1="163.61" x2="254.48" y2="203.67" stroke="#f6465d" stroke-width="1.4" /><rect x="251.48" y="180.69" width="6" height="14.55" rx="1.5" fill="#f6465d" /><line x1="265.22" y1="156.87" x2="265.22" y2="211.26" stroke="#0ecb81" stroke-width="1.4" /><rect x="262.22" y="188.91" width="6" height="6.54" rx="1.5" fill="#0ecb81" /><line x1="275.95" y1="115.97" x2="275.95" y2="202.19" stroke="#0ecb81" stroke-width="1.4" /><rect x="272.95" y="162.14" width="6" height="26.56" rx="1.5" fill="#0ecb81" /><line x1="286.68" y1="150.12" x2="286.68" y2="184.27" stroke="#0ecb81" stroke-width="1.4" /><rect x="283.68" y="156.87" width="6" height="5.48" rx="1.5" fill="#0ecb81" /><line x1="297.42" y1="125.88" x2="297.42" y2="272.39" stroke="#f6465d" stroke-width="1.4" /><rect x="294.42" y="156.87" width="6" height="114.26" rx="1.5" fill="#f6465d" /><line x1="308.15" y1="259.11" x2="308.15" y2="351.02" stroke="#0ecb81" stroke-width="1.4" /><rect x="305.15" y="265.86" width="6" height="5.48" rx="1.5" fill="#0ecb81" /><line x1="318.89" y1="251.10" x2="318.89" y2="302.96" stroke="#f6465d" stroke-width="1.4" /><rect x="315.89" y="266.07" width="6" height="25.93" rx="1.5" fill="#f6465d" /><line x1="329.62" y1="268.18" x2="329.62" y2="294.95" stroke="#0ecb81" stroke-width="1.4" /><rect x="326.62" y="274.50" width="6" height="17.50" rx="1.5" fill="#0ecb81" /><line x1="340.35" y1="196.08" x2="340.35" y2="283.78" stroke="#0ecb81" stroke-width="1.4" /><rect x="337.35" y="196.92" width="6" height="77.58" rx="1.5" fill="#0ecb81" /><line x1="351.09" y1="161.09" x2="351.09" y2="226.22" stroke="#0ecb81" stroke-width="1.4" /><rect x="348.09" y="191.23" width="6" height="5.69" rx="1.5" fill="#0ecb81" /><line x1="361.82" y1="188.28" x2="361.82" y2="291.15" stroke="#f6465d" stroke-width="1.4" /><rect x="358.82" y="191.23" width="6" height="80.32" rx="1.5" fill="#f6465d" /><line x1="372.56" y1="204.93" x2="372.56" y2="379.27" stroke="#f6465d" stroke-width="1.4" /><rect x="369.56" y="271.55" width="6" height="73.15" rx="1.5" fill="#f6465d" /><line x1="383.29" y1="313.92" x2="383.29" y2="359.46" stroke="#0ecb81" stroke-width="1.4" /><rect x="380.29" y="316.66" width="6" height="28.04" rx="1.5" fill="#0ecb81" /><line x1="394.03" y1="296.21" x2="394.03" y2="329.31" stroke="#f6465d" stroke-width="1.4" /><rect x="391.03" y="316.45" width="6" height="9.70" rx="1.5" fill="#f6465d" /><line x1="404.76" y1="302.96" x2="404.76" y2="378.01" stroke="#f6465d" stroke-width="1.4" /><rect x="401.76" y="326.15" width="6" height="28.46" rx="1.5" fill="#f6465d" /><line x1="415.49" y1="340.69" x2="415.49" y2="392.76" stroke="#f6465d" stroke-width="1.4" /><rect x="412.49" y="354.61" width="6" height="4.85" rx="1.5" fill="#f6465d" /><line x1="426.23" y1="358.40" x2="426.23" y2="451.79" stroke="#f6465d" stroke-width="1.4" /><rect x="423.23" y="359.46" width="6" height="28.04" rx="1.5" fill="#f6465d" /><line x1="436.96" y1="378.85" x2="436.96" y2="450.31" stroke="#f6465d" stroke-width="1.4" /><rect x="433.96" y="387.49" width="6" height="43.00" rx="1.5" fill="#f6465d" /><line x1="447.70" y1="405.41" x2="447.70" y2="440.83" stroke="#f6465d" stroke-width="1.4" /><rect x="444.70" y="430.50" width="6" height="2.00" rx="1.5" fill="#f6465d" /><line x1="458.43" y1="383.49" x2="458.43" y2="452.00" stroke="#0ecb81" stroke-width="1.4" /><rect x="455.43" y="392.55" width="6" height="37.95" rx="1.5" fill="#0ecb81" /><line x1="469.16" y1="264.17" x2="469.16" y2="401.41" stroke="#0ecb81" stroke-width="1.4" /><rect x="466.16" y="309.70" width="6" height="82.85" rx="1.5" fill="#0ecb81" /><line x1="479.90" y1="265.43" x2="479.90" y2="328.47" stroke="#0ecb81" stroke-width="1.4" /><rect x="476.90" y="296.63" width="6" height="12.86" rx="1.5" fill="#0ecb81" /><line x1="490.63" y1="283.14" x2="490.63" y2="339.22" stroke="#f6465d" stroke-width="1.4" /><rect x="487.63" y="296.42" width="6" height="14.97" rx="1.5" fill="#f6465d" /><line x1="501.37" y1="309.49" x2="501.37" y2="367.26" stroke="#f6465d" stroke-width="1.4" /><rect x="498.37" y="311.18" width="6" height="29.30" rx="1.5" fill="#f6465d" /><line x1="512.10" y1="302.96" x2="512.10" y2="370.00" stroke="#f6465d" stroke-width="1.4" /><rect x="509.10" y="340.48" width="6" height="22.13" rx="1.5" fill="#f6465d" /><line x1="522.84" y1="275.55" x2="522.84" y2="370.00" stroke="#0ecb81" stroke-width="1.4" /><rect x="519.84" y="282.72" width="6" height="79.69" rx="1.5" fill="#0ecb81" /><line x1="533.57" y1="146.96" x2="533.57" y2="282.72" stroke="#0ecb81" stroke-width="1.4" /><rect x="530.57" y="274.92" width="6" height="7.80" rx="1.5" fill="#0ecb81" /><line x1="544.30" y1="199.66" x2="544.30" y2="302.75" stroke="#0ecb81" stroke-width="1.4" /><rect x="541.30" y="273.02" width="6" height="2.11" rx="1.5" fill="#0ecb81" /><line x1="555.04" y1="192.71" x2="555.04" y2="278.72" stroke="#0ecb81" stroke-width="1.4" /><rect x="552.04" y="226.65" width="6" height="46.59" rx="1.5" fill="#0ecb81" /><line x1="565.77" y1="197.98" x2="565.77" y2="265.65" stroke="#f6465d" stroke-width="1.4" /><rect x="562.77" y="226.86" width="6" height="15.60" rx="1.5" fill="#f6465d" /><line x1="576.51" y1="190.81" x2="576.51" y2="272.18" stroke="#f6465d" stroke-width="1.4" /><rect x="573.51" y="242.46" width="6" height="8.01" rx="1.5" fill="#f6465d" /><line x1="587.24" y1="159.40" x2="587.24" y2="277.03" stroke="#0ecb81" stroke-width="1.4" /><rect x="584.24" y="160.03" width="6" height="90.65" rx="1.5" fill="#0ecb81" /><line x1="597.97" y1="136.42" x2="597.97" y2="222.22" stroke="#0ecb81" stroke-width="1.4" /><rect x="594.97" y="142.74" width="6" height="17.29" rx="1.5" fill="#0ecb81" /><line x1="608.71" y1="130.94" x2="608.71" y2="220.74" stroke="#f6465d" stroke-width="1.4" /><rect x="605.71" y="142.53" width="6" height="54.81" rx="1.5" fill="#f6465d" /><line x1="619.44" y1="162.77" x2="619.44" y2="304.43" stroke="#f6465d" stroke-width="1.4" /><rect x="616.44" y="197.55" width="6" height="100.56" rx="1.5" fill="#f6465d" /><line x1="630.18" y1="279.98" x2="630.18" y2="355.03" stroke="#f6465d" stroke-width="1.4" /><rect x="627.18" y="298.32" width="6" height="14.55" rx="1.5" fill="#f6465d" /><line x1="640.91" y1="291.58" x2="640.91" y2="364.30" stroke="#f6465d" stroke-width="1.4" /><rect x="637.91" y="313.08" width="6" height="36.26" rx="1.5" fill="#f6465d" /><line x1="651.65" y1="305.70" x2="651.65" y2="367.89" stroke="#0ecb81" stroke-width="1.4" /><rect x="648.65" y="314.55" width="6" height="34.57" rx="1.5" fill="#0ecb81" /><line x1="662.38" y1="247.09" x2="662.38" y2="372.31" stroke="#0ecb81" stroke-width="1.4" /><rect x="659.38" y="259.53" width="6" height="54.81" rx="1.5" fill="#0ecb81" /><line x1="673.11" y1="232.34" x2="673.11" y2="282.72" stroke="#0ecb81" stroke-width="1.4" /><rect x="670.11" y="254.26" width="6" height="5.48" rx="1.5" fill="#0ecb81" /><line x1="683.85" y1="240.56" x2="683.85" y2="307.81" stroke="#f6465d" stroke-width="1.4" /><rect x="680.85" y="254.26" width="6" height="34.36" rx="1.5" fill="#f6465d" /><line x1="694.58" y1="277.03" x2="694.58" y2="312.87" stroke="#f6465d" stroke-width="1.4" /><rect x="691.58" y="288.41" width="6" height="17.50" rx="1.5" fill="#f6465d" /><line x1="705.32" y1="290.94" x2="705.32" y2="317.50" stroke="#0ecb81" stroke-width="1.4" /><rect x="702.32" y="304.22" width="6" height="2.00" rx="1.5" fill="#0ecb81" /><line x1="716.05" y1="291.79" x2="716.05" y2="338.80" stroke="#f6465d" stroke-width="1.4" /><rect x="713.05" y="304.01" width="6" height="6.54" rx="1.5" fill="#f6465d" /><line x1="726.78" y1="226.22" x2="726.78" y2="323.20" stroke="#0ecb81" stroke-width="1.4" /><rect x="723.78" y="255.11" width="6" height="55.44" rx="1.5" fill="#0ecb81" /><line x1="737.52" y1="207.46" x2="737.52" y2="270.28" stroke="#0ecb81" stroke-width="1.4" /><rect x="734.52" y="247.94" width="6" height="6.96" rx="1.5" fill="#0ecb81" /><line x1="748.25" y1="219.69" x2="748.25" y2="249.41" stroke="#0ecb81" stroke-width="1.4" /><rect x="745.25" y="240.98" width="6" height="6.96" rx="1.5" fill="#0ecb81" /><line x1="758.99" y1="233.81" x2="758.99" y2="265.01" stroke="#f6465d" stroke-width="1.4" /><rect x="755.99" y="240.98" width="6" height="8.64" rx="1.5" fill="#f6465d" /><line x1="769.72" y1="248.57" x2="769.72" y2="281.67" stroke="#f6465d" stroke-width="1.4" /><rect x="766.72" y="249.62" width="6" height="20.24" rx="1.5" fill="#f6465d" /><line x1="780.46" y1="218.42" x2="780.46" y2="275.34" stroke="#0ecb81" stroke-width="1.4" /><rect x="777.46" y="233.60" width="6" height="36.05" rx="1.5" fill="#0ecb81" /><line x1="791.19" y1="150.76" x2="791.19" y2="241.19" stroke="#0ecb81" stroke-width="1.4" /><rect x="788.19" y="187.65" width="6" height="45.96" rx="1.5" fill="#0ecb81" /><line x1="801.92" y1="170.99" x2="801.92" y2="230.86" stroke="#0ecb81" stroke-width="1.4" /><rect x="798.92" y="179.43" width="6" height="8.22" rx="1.5" fill="#0ecb81" /><line x1="812.66" y1="156.03" x2="812.66" y2="255.11" stroke="#f6465d" stroke-width="1.4" /><rect x="809.66" y="179.43" width="6" height="55.44" rx="1.5" fill="#f6465d" /><line x1="823.39" y1="192.92" x2="823.39" y2="268.18" stroke="#f6465d" stroke-width="1.4" /><rect x="820.39" y="234.66" width="6" height="14.55" rx="1.5" fill="#f6465d" /><line x1="834.13" y1="234.66" x2="834.13" y2="318.14" stroke="#f6465d" stroke-width="1.4" /><rect x="831.13" y="249.20" width="6" height="40.69" rx="1.5" fill="#f6465d" /><line x1="844.86" y1="205.14" x2="844.86" y2="304.22" stroke="#0ecb81" stroke-width="1.4" /><rect x="841.86" y="214.84" width="6" height="74.84" rx="1.5" fill="#0ecb81" /><line x1="855.59" y1="193.55" x2="855.59" y2="301.48" stroke="#f6465d" stroke-width="1.4" /><rect x="852.59" y="215.05" width="6" height="2.00" rx="1.5" fill="#f6465d" /><line x1="866.33" y1="187.01" x2="866.33" y2="252.79" stroke="#f6465d" stroke-width="1.4" /><rect x="863.33" y="215.47" width="6" height="26.56" rx="1.5" fill="#f6465d" /><line x1="877.06" y1="191.86" x2="877.06" y2="250.68" stroke="#0ecb81" stroke-width="1.4" /><rect x="874.06" y="225.17" width="6" height="16.65" rx="1.5" fill="#0ecb81" /><line x1="887.80" y1="210.41" x2="887.80" y2="267.54" stroke="#f6465d" stroke-width="1.4" /><rect x="884.80" y="225.38" width="6" height="2.00" rx="1.5" fill="#f6465d" /><line x1="898.53" y1="151.81" x2="898.53" y2="234.66" stroke="#0ecb81" stroke-width="1.4" /><rect x="895.53" y="152.86" width="6" height="73.78" rx="1.5" fill="#0ecb81" /><line x1="909.27" y1="117.03" x2="909.27" y2="168.88" stroke="#0ecb81" stroke-width="1.4" /><rect x="906.27" y="151.60" width="6" height="2.00" rx="1.5" fill="#0ecb81" /><line x1="920.00" y1="58.00" x2="920.00" y2="162.35" stroke="#0ecb81" stroke-width="1.4" /><rect x="917.00" y="126.30" width="6" height="25.30" rx="1.5" fill="#0ecb81" />
  <polyline points="673.11,232.34 716.05,338.80 737.52,207.46 769.72,281.67 791.19,150.76" fill="none" stroke="#2fc273" stroke-width="4" stroke-linecap="round" stroke-linejoin="round" />
  <circle cx="673.11" cy="232.34" r="5.5" fill="#2fc273" fill-opacity="0.15" stroke="#2fc273" stroke-width="2" /><text x="673.11" y="220.34" fill="#f3f4f6" font-size="15" font-weight="700" text-anchor="middle">X</text><circle cx="716.05" cy="338.80" r="5.5" fill="#2fc273" fill-opacity="0.15" stroke="#2fc273" stroke-width="2" /><text x="716.05" y="326.80" fill="#f3f4f6" font-size="15" font-weight="700" text-anchor="middle">A</text><circle cx="737.52" cy="207.46" r="5.5" fill="#2fc273" fill-opacity="0.15" stroke="#2fc273" stroke-width="2" /><text x="737.52" y="195.46" fill="#f3f4f6" font-size="15" font-weight="700" text-anchor="middle">B</text><circle cx="769.72" cy="281.67" r="5.5" fill="#2fc273" fill-opacity="0.15" stroke="#2fc273" stroke-width="2" /><text x="769.72" y="269.67" fill="#f3f4f6" font-size="15" font-weight="700" text-anchor="middle">C</text><circle cx="791.19" cy="150.76" r="5.5" fill="#2fc273" fill-opacity="0.15" stroke="#2fc273" stroke-width="2" /><text x="791.19" y="138.76" fill="#f3f4f6" font-size="15" font-weight="700" text-anchor="middle">D</text>
  <text x="56" y="492" fill="#8ba0b5" font-size="18">Realtime Touch · TP1 0.18962 · TP2 0.18815 · SL 0.19265</text>
</svg>
