<svg xmlns="http://www.w3.org/2000/svg" width="960" height="540" viewBox="0 0 960 540">
  <rect width="960" height="540" rx="24" fill="#0b1220" />
  <rect x="28" y="28" width="904" height="484" rx="22" fill="#111827" stroke="#1f2937" />
  <text x="56" y="74" fill="#f3f4f6" font-size="34" font-weight="700">XLMUSDT · AB=CD</text>
  <text x="904" y="74" fill="#8ba0b5" font-size="20" text-anchor="end">Bearish (매도) · Score 82.7</text>
  <line x1="72" y1="58" x2="920" y2="58" stroke="#223045" stroke-width="1" stroke-dasharray="4 8" /><line x1="72" y1="156" x2="920" y2="156" stroke="#223045" stroke-width="1" stroke-dasharray="4 8" /><line x1="72" y1="255" x2="920" y2="255" stroke="#223045" stroke-width="1" stroke-dasharray="4 8" /><line x1="72" y1="353" x2="920" y2="353" stroke="#223045" stroke-width="1" stroke-dasharray="4 8" /><line x1="72" y1="452" x2="920" y2="452" stroke="#223045" stroke-width="1" stroke-dasharray="4 8" />
  <rect x="634.38" y="45.12" width="84" height="98.06" fill="#fbbf24" fill-opacity="0.12" stroke="#fbbf24" stroke-width="1.5" stroke-dasharray="6 6" />
  <line x1="72.00" y1="320.72" x2="72.00" y2="452.00" stroke="#0ecb81" stroke-width="1.4" /><rect x="69.00" y="358.18" width="6" height="73.91" rx="1.5" fill="#0ecb81" /><line x1="82.73" y1="282.95" x2="82.73" y2="370.48" stroke="#0ecb81" stroke-width="1.4" /><rect x="79.73" y="310.91" width="6" height="47.13" rx="1.5" fill="#0ecb81" /><line x1="93.47" y1="287.49" x2="93.47" y2="333.74" stroke="#f6465d" stroke-width="1.4" /><rect x="90.47" y="310.91" width="6" height="3.37" rx="1.5" fill="#f6465d" /><line x1="104.20" y1="274.03" x2="104.20" y2="318.08" stroke="#0ecb81" stroke-width="1.4" /><rect x="101.20" y="285.00" width="6" height="29.27" rx="1.5" fill="#0ecb81" /><line x1="114.94" y1="275.20" x2="114.94" y2="327.59" stroke="#f6465d" stroke-width="1.4" /><rect x="111.94" y="285.15" width="6" height="18.44" rx="1.5" fill="#f6465d" /><line x1="125.67" y1="280.32" x2="125.67" y2="329.79" stroke="#0ecb81" stroke-width="1.4" /><rect x="122.67" y="284.86" width="6" height="18.73" rx="1.5" fill="#0ecb81" /><line x1="136.41" y1="260.85" x2="136.41" y2="299.93" stroke="#0ecb81" stroke-width="1.4" /><rect x="133.41" y="281.05" width="6" height="3.81" rx="1.5" fill="#0ecb81" /><line x1="147.14" y1="269.78" x2="147.14" y2="310.62" stroke="#f6465d" stroke-width="1.4" /><rect x="144.14" y="281.34" width="6" height="8.34" rx="1.5" fill="#f6465d" /><line x1="157.87" y1="268.61" x2="157.87" y2="322.62" stroke="#0ecb81" stroke-width="1.4" /><rect x="154.87" y="288.08" width="6" height="2.00" rx="1.5" fill="#0ecb81" /><line x1="168.61" y1="161.33" x2="168.61" y2="289.98" stroke="#0ecb81" stroke-width="1.4" /><rect x="165.61" y="181.67" width="6" height="106.40" rx="1.5" fill="#0ecb81" /><line x1="179.34" y1="83.76" x2="179.34" y2="184.16" stroke="#0ecb81" stroke-width="1.4" /><rect x="176.34" y="145.82" width="6" height="35.71" rx="1.5" fill="#0ecb81" /><line x1="190.08" y1="85.95" x2="190.08" y2="160.16" stroke="#0ecb81" stroke-width="1.4" /><rect x="187.08" y="98.25" width="6" height="47.71" rx="1.5" fill="#0ecb81" /><line x1="200.81" y1="58.00" x2="200.81" y2="125.76" stroke="#f6465d" stroke-width="1.4" /><rect x="197.81" y="98.10" width="6" height="22.10" rx="1.5" fill="#f6465d" /><line x1="211.54" y1="86.39" x2="211.54" y2="171.87" stroke="#f6465d" stroke-width="1.4" /><rect x="208.54" y="120.20" width="6" height="40.69" rx="1.5" fill="#f6465d" /><line x1="222.28" y1="120.79" x2="222.28" y2="163.23" stroke="#0ecb81" stroke-width="1.4" /><rect x="219.28" y="122.98" width="6" height="37.76" rx="1.5" fill="#0ecb81" /><line x1="233.01" y1="117.42" x2="233.01" y2="149.04" stroke="#f6465d" stroke-width="1.4" /><rect x="230.01" y="122.98" width="6" height="6.29" rx="1.5" fill="#f6465d" /><line x1="243.75" y1="112.59" x2="243.75" y2="167.48" stroke="#f6465d" stroke-width="1.4" /><rect x="240.75" y="129.42" width="6" height="29.27" rx="1.5" fill="#f6465d" /><line x1="254.48" y1="149.91" x2="254.48" y2="194.11" stroke="#f6465d" stroke-width="1.4" /><rect x="251.48" y="158.70" width="6" height="22.83" rx="1.5" fill="#f6465d" /><line x1="265.22" y1="172.45" x2="265.22" y2="205.53" stroke="#f6465d" stroke-width="1.4" /><rect x="262.22" y="181.53" width="6" height="17.71" rx="1.5" fill="#f6465d" /><line x1="275.95" y1="143.47" x2="275.95" y2="210.36" stroke="#f6465d" stroke-width="1.4" /><rect x="272.95" y="199.38" width="6" height="2.78" rx="1.5" fill="#f6465d" /><line x1="286.68" y1="193.09" x2="286.68" y2="222.07" stroke="#f6465d" stroke-width="1.4" /><rect x="283.68" y="202.31" width="6" height="8.78" rx="1.5" fill="#f6465d" /><line x1="297.42" y1="168.79" x2="297.42" y2="215.04" stroke="#0ecb81" stroke-width="1.4" /><rect x="294.42" y="184.60" width="6" height="26.49" rx="1.5" fill="#0ecb81" /><line x1="308.15" y1="157.96" x2="308.15" y2="197.19" stroke="#0ecb81" stroke-width="1.4" /><rect x="305.15" y="172.01" width="6" height="12.44" rx="1.5" fill="#0ecb81" /><line x1="318.89" y1="158.99" x2="318.89" y2="192.36" stroke="#f6465d" stroke-width="1.4" /><rect x="315.89" y="172.01" width="6" height="2.34" rx="1.5" fill="#f6465d" /><line x1="329.62" y1="170.70" x2="329.62" y2="264.66" stroke="#f6465d" stroke-width="1.4" /><rect x="326.62" y="175.38" width="6" height="79.77" rx="1.5" fill="#f6465d" /><line x1="340.35" y1="233.34" x2="340.35" y2="271.83" stroke="#f6465d" stroke-width="1.4" /><rect x="337.35" y="255.29" width="6" height="2.00" rx="1.5" fill="#f6465d" /><line x1="351.09" y1="242.56" x2="351.09" y2="283.98" stroke="#f6465d" stroke-width="1.4" /><rect x="348.09" y="255.88" width="6" height="9.51" rx="1.5" fill="#f6465d" /><line x1="361.82" y1="257.78" x2="361.82" y2="286.03" stroke="#f6465d" stroke-width="1.4" /><rect x="358.82" y="265.25" width="6" height="11.86" rx="1.5" fill="#f6465d" /><line x1="372.56" y1="276.66" x2="372.56" y2="311.06" stroke="#f6465d" stroke-width="1.4" /><rect x="369.56" y="277.25" width="6" height="32.64" rx="1.5" fill="#f6465d" /><line x1="383.29" y1="288.52" x2="383.29" y2="320.28" stroke="#0ecb81" stroke-width="1.4" /><rect x="380.29" y="289.39" width="6" height="20.64" rx="1.5" fill="#0ecb81" /><line x1="394.03" y1="277.10" x2="394.03" y2="305.93" stroke="#0ecb81" stroke-width="1.4" /><rect x="391.03" y="284.27" width="6" height="4.98" rx="1.5" fill="#0ecb81" /><line x1="404.76" y1="221.19" x2="404.76" y2="296.71" stroke="#0ecb81" stroke-width="1.4" /><rect x="401.76" y="239.34" width="6" height="45.08" rx="1.5" fill="#0ecb81" /><line x1="415.49" y1="211.82" x2="415.49" y2="241.68" stroke="#0ecb81" stroke-width="1.4" /><rect x="412.49" y="229.39" width="6" height="9.95" rx="1.5" fill="#0ecb81" /><line x1="426.23" y1="213.73" x2="426.23" y2="273.00" stroke="#f6465d" stroke-width="1.4" /><rect x="423.23" y="229.39" width="6" height="39.37" rx="1.5" fill="#f6465d" /><line x1="436.96" y1="248.71" x2="436.96" y2="277.25" stroke="#0ecb81" stroke-width="1.4" /><rect x="433.96" y="250.17" width="6" height="18.73" rx="1.5" fill="#0ecb81" /><line x1="447.70" y1="249.73" x2="447.70" y2="270.66" stroke="#f6465d" stroke-width="1.4" /><rect x="444.70" y="250.17" width="6" height="16.68" rx="1.5" fill="#f6465d" /><line x1="458.43" y1="259.39" x2="458.43" y2="285.59" stroke="#f6465d" stroke-width="1.4" /><rect x="455.43" y="266.71" width="6" height="12.44" rx="1.5" fill="#f6465d" /><line x1="469.16" y1="279.00" x2="469.16" y2="311.93" stroke="#f6465d" stroke-width="1.4" /><rect x="466.16" y="279.00" width="6" height="23.71" rx="1.5" fill="#f6465d" /><line x1="479.90" y1="300.81" x2="479.90" y2="328.47" stroke="#f6465d" stroke-width="1.4" /><rect x="476.90" y="302.71" width="6" height="21.66" rx="1.5" fill="#f6465d" /><line x1="490.63" y1="304.03" x2="490.63" y2="369.89" stroke="#0ecb81" stroke-width="1.4" /><rect x="487.63" y="319.69" width="6" height="4.83" rx="1.5" fill="#0ecb81" /><line x1="501.37" y1="246.66" x2="501.37" y2="320.42" stroke="#0ecb81" stroke-width="1.4" /><rect x="498.37" y="256.46" width="6" height="63.08" rx="1.5" fill="#0ecb81" /><line x1="512.10" y1="219.43" x2="512.10" y2="261.00" stroke="#0ecb81" stroke-width="1.4" /><rect x="509.10" y="223.97" width="6" height="32.35" rx="1.5" fill="#0ecb81" /><line x1="522.84" y1="181.82" x2="522.84" y2="236.41" stroke="#0ecb81" stroke-width="1.4" /><rect x="519.84" y="206.26" width="6" height="18.00" rx="1.5" fill="#0ecb81" /><line x1="533.57" y1="179.62" x2="533.57" y2="239.34" stroke="#f6465d" stroke-width="1.4" /><rect x="530.57" y="206.12" width="6" height="19.76" rx="1.5" fill="#f6465d" /><line x1="544.30" y1="216.21" x2="544.30" y2="278.27" stroke="#f6465d" stroke-width="1.4" /><rect x="541.30" y="225.87" width="6" height="37.61" rx="1.5" fill="#f6465d" /><line x1="555.04" y1="235.10" x2="555.04" y2="280.17" stroke="#f6465d" stroke-width="1.4" /><rect x="552.04" y="263.78" width="6" height="11.56" rx="1.5" fill="#f6465d" /><line x1="565.77" y1="225.73" x2="565.77" y2="286.17" stroke="#0ecb81" stroke-width="1.4" /><rect x="562.77" y="243.73" width="6" height="31.61" rx="1.5" fill="#0ecb81" /><line x1="576.51" y1="241.97" x2="576.51" y2="288.81" stroke="#f6465d" stroke-width="1.4" /><rect x="573.51" y="243.88" width="6" height="35.42" rx="1.5" fill="#f6465d" /><line x1="587.24" y1="278.71" x2="587.24" y2="324.81" stroke="#f6465d" stroke-width="1.4" /><rect x="584.24" y="279.15" width="6" height="31.17" rx="1.5" fill="#f6465d" /><line x1="597.97" y1="279.88" x2="597.97" y2="330.08" stroke="#f6465d" stroke-width="1.4" /><rect x="594.97" y="310.32" width="6" height="18.59" rx="1.5" fill="#f6465d" /><line x1="608.71" y1="259.98" x2="608.71" y2="333.45" stroke="#0ecb81" stroke-width="1.4" /><rect x="605.71" y="261.29" width="6" height="67.33" rx="1.5" fill="#0ecb81" /><line x1="619.44" y1="247.10" x2="619.44" y2="292.18" stroke="#f6465d" stroke-width="1.4" /><rect x="616.44" y="261.59" width="6" height="16.98" rx="1.5" fill="#f6465d" /><line x1="630.18" y1="241.24" x2="630.18" y2="284.56" stroke="#0ecb81" stroke-width="1.4" /><rect x="627.18" y="242.27" width="6" height="36.15" rx="1.5" fill="#0ecb81" /><line x1="640.91" y1="201.73" x2="640.91" y2="257.49" stroke="#0ecb81" stroke-width="1.4" /><rect x="637.91" y="214.75" width="6" height="27.66" rx="1.5" fill="#0ecb81" /><line x1="651.65" y1="191.92" x2="651.65" y2="221.78" stroke="#0ecb81" stroke-width="1.4" /><rect x="648.65" y="196.46" width="6" height="18.15" rx="1.5" fill="#0ecb81" /><line x1="662.38" y1="167.62" x2="662.38" y2="218.70" stroke="#f6465d" stroke-width="1.4" /><rect x="659.38" y="196.46" width="6" height="13.47" rx="1.5" fill="#f6465d" /><line x1="673.11" y1="187.24" x2="673.11" y2="232.61" stroke="#f6465d" stroke-width="1.4" /><rect x="670.11" y="209.92" width="6" height="17.86" rx="1.5" fill="#f6465d" /><line x1="683.85" y1="212.99" x2="683.85" y2="253.98" stroke="#f6465d" stroke-width="1.4" /><rect x="680.85" y="227.78" width="6" height="20.05" rx="1.5" fill="#f6465d" /><line x1="694.58" y1="223.09" x2="694.58" y2="335.21" stroke="#f6465d" stroke-width="1.4" /><rect x="691.58" y="247.68" width="6" height="76.84" rx="1.5" fill="#f6465d" /><line x1="705.32" y1="316.18" x2="705.32" y2="348.23" stroke="#0ecb81" stroke-width="1.4" /><rect x="702.32" y="320.86" width="6" height="3.66" rx="1.5" fill="#0ecb81" /><line x1="716.05" y1="318.52" x2="716.05" y2="361.99" stroke="#f6465d" stroke-width="1.4" /><rect x="713.05" y="321.01" width="6" height="38.79" rx="1.5" fill="#f6465d" /><line x1="726.78" y1="323.35" x2="726.78" y2="381.75" stroke="#0ecb81" stroke-width="1.4" /><rect x="723.78" y="330.38" width="6" height="29.27" rx="1.5" fill="#0ecb81" /><line x1="737.52" y1="293.93" x2="737.52" y2="341.94" stroke="#0ecb81" stroke-width="1.4" /><rect x="734.52" y="317.35" width="6" height="13.03" rx="1.5" fill="#0ecb81" /><line x1="748.25" y1="307.10" x2="748.25" y2="352.18" stroke="#f6465d" stroke-width="1.4" /><rect x="745.25" y="317.35" width="6" height="23.86" rx="1.5" fill="#f6465d" /><line x1="758.99" y1="308.71" x2="758.99" y2="345.89" stroke="#0ecb81" stroke-width="1.4" /><rect x="755.99" y="310.76" width="6" height="30.30" rx="1.5" fill="#0ecb81" /><line x1="769.72" y1="288.52" x2="769.72" y2="318.23" stroke="#f6465d" stroke-width="1.4" /><rect x="766.72" y="310.76" width="6" height="2.00" rx="1.5" fill="#f6465d" /><line x1="780.46" y1="305.64" x2="780.46" y2="330.23" stroke="#f6465d" stroke-width="1.4" /><rect x="777.46" y="310.76" width="6" height="9.37" rx="1.5" fill="#f6465d" /><line x1="791.19" y1="304.03" x2="791.19" y2="341.35" stroke="#f6465d" stroke-width="1.4" /><rect x="788.19" y="320.13" width="6" height="13.90" rx="1.5" fill="#f6465d" /><line x1="801.92" y1="321.45" x2="801.92" y2="358.04" stroke="#f6465d" stroke-width="1.4" /><rect x="798.92" y="334.18" width="6" height="2.00" rx="1.5" fill="#f6465d" /><line x1="812.66" y1="324.96" x2="812.66" y2="348.67" stroke="#f6465d" stroke-width="1.4" /><rect x="809.66" y="335.35" width="6" height="5.71" rx="1.5" fill="#f6465d" /><line x1="823.39" y1="336.67" x2="823.39" y2="360.09" stroke="#f6465d" stroke-width="1.4" /><rect x="820.39" y="341.06" width="6" height="14.93" rx="1.5" fill="#f6465d" /><line x1="834.13" y1="345.45" x2="834.13" y2="363.89" stroke="#f6465d" stroke-width="1.4" /><rect x="831.13" y="355.84" width="6" height="4.54" rx="1.5" fill="#f6465d" /><line x1="844.86" y1="351.30" x2="844.86" y2="370.33" stroke="#0ecb81" stroke-width="1.4" /><rect x="841.86" y="356.13" width="6" height="4.10" rx="1.5" fill="#0ecb81" /><line x1="855.59" y1="345.60" x2="855.59" y2="368.14" stroke="#f6465d" stroke-width="1.4" /><rect x="852.59" y="356.28" width="6" height="6.59" rx="1.5" fill="#f6465d" /><line x1="866.33" y1="347.35" x2="866.33" y2="376.62" stroke="#0ecb81" stroke-width="1.4" /><rect x="863.33" y="355.84" width="6" height="6.88" rx="1.5" fill="#0ecb81" /><line x1="877.06" y1="355.40" x2="877.06" y2="364.92" stroke="#f6465d" stroke-width="1.4" /><rect x="874.06" y="355.70" width="6" height="2.00" rx="1.5" fill="#f6465d" /><line x1="887.80" y1="351.01" x2="887.80" y2="366.67" stroke="#f6465d" stroke-width="1.4" /><rect x="884.80" y="355.84" width="6" height="8.49" rx="1.5" fill="#f6465d" /><line x1="898.53" y1="363.31" x2="898.53" y2="404.29" stroke="#f6465d" stroke-width="1.4" /><rect x="895.53" y="364.18" width="6" height="37.18" rx="1.5" fill="#f6465d" /><line x1="909.27" y1="397.12" x2="909.27" y2="413.80" stroke="#f6465d" stroke-width="1.4" /><rect x="906.27" y="401.21" width="6" height="12.29" rx="1.5" fill="#f6465d" /><line x1="920.00" y1="410.58" x2="920.00" y2="424.19" stroke="#0ecb81" stroke-width="1.4" /><rect x="917.00" y="412.92" width="6" height="2.00" rx="1.5" fill="#0ecb81" />
  <polyline points="415.49,211.82 490.63,369.89 533.57,179.62 608.71,333.45 662.38,167.62" fill="none" stroke="#2fc273" stroke-width="4" stroke-linecap="round" stroke-linejoin="round" />
  <circle cx="415.49" cy="211.82" r="5.5" fill="#2fc273" fill-opacity="0.15" stroke="#2fc273" stroke-width="2" /><text x="415.49" y="199.82" fill="#f3f4f6" font-size="15" font-weight="700" text-anchor="middle">X</text><circle cx="490.63" cy="369.89" r="5.5" fill="#2fc273" fill-opacity="0.15" stroke="#2fc273" stroke-width="2" /><text x="490.63" y="357.89" fill="#f3f4f6" font-size="15" font-weight="700" text-anchor="middle">A</text><circle cx="533.57" cy="179.62" r="5.5" fill="#2fc273" fill-opacity="0.15" stroke="#2fc273" stroke-width="2" /><text x="533.57" y="167.62" fill="#f3f4f6" font-size="15" font-weight="700" text-anchor="middle">B</text><circle cx="608.71" cy="333.45" r="5.5" fill="#2fc273" fill-opacity="0.15" stroke="#2fc273" stroke-width="2" /><text x="608.71" y="321.45" fill="#f3f4f6" font-size="15" font-weight="700" text-anchor="middle">C</text><circle cx="662.38" cy="167.62" r="5.5" fill="#2fc273" fill-opacity="0.15" stroke="#2fc273" stroke-width="2" /><text x="662.38" y="155.62" fill="#f3f4f6" font-size="15" font-weight="700" text-anchor="middle">D</text>
  <text x="56" y="492" fill="#8ba0b5" font-size="18">일반 완성 · TP1 0.17041 · TP2 0.16774 · SL 0.17614</text>
</svg>
