<svg xmlns="http://www.w3.org/2000/svg" width="960" height="540" viewBox="0 0 960 540">
  <rect width="960" height="540" rx="24" fill="#0b1220" />
  <rect x="28" y="28" width="904" height="484" rx="22" fill="#111827" stroke="#1f2937" />
  <text x="56" y="74" fill="#f3f4f6" font-size="34" font-weight="700">XMRUSDT · AB=CD</text>
  <text x="904" y="74" fill="#8ba0b5" font-size="20" text-anchor="end">Bearish (매도) · Score 86.2</text>
  <line x1="72" y1="58" x2="920" y2="58" stroke="#223045" stroke-width="1" stroke-dasharray="4 8" /><line x1="72" y1="156" x2="920" y2="156" stroke="#223045" stroke-width="1" stroke-dasharray="4 8" /><line x1="72" y1="255" x2="920" y2="255" stroke="#223045" stroke-width="1" stroke-dasharray="4 8" /><line x1="72" y1="353" x2="920" y2="353" stroke="#223045" stroke-width="1" stroke-dasharray="4 8" /><line x1="72" y1="452" x2="920" y2="452" stroke="#223045" stroke-width="1" stroke-dasharray="4 8" />
  <rect x="441.16" y="50.66" width="84" height="94.02" fill="#fbbf24" fill-opacity="0.12" stroke="#fbbf24" stroke-width="1.5" stroke-dasharray="6 6" />
  <line x1="72.00" y1="68.43" x2="72.00" y2="124.63" stroke="#0ecb81" stroke-width="1.4" /><rect x="69.00" y="70.50" width="6" height="19.63" rx="1.5" fill="#0ecb81" /><line x1="82.73" y1="58.00" x2="82.73" y2="143.02" stroke="#f6465d" stroke-width="1.4" /><rect x="79.73" y="70.19" width="6" height="71.80" rx="1.5" fill="#f6465d" /><line x1="93.47" y1="123.80" x2="93.47" y2="199.53" stroke="#f6465d" stroke-width="1.4" /><rect x="90.47" y="142.61" width="6" height="25.72" rx="1.5" fill="#f6465d" /><line x1="104.20" y1="111.51" x2="104.20" y2="192.50" stroke="#0ecb81" stroke-width="1.4" /><rect x="101.20" y="118.64" width="6" height="50.21" rx="1.5" fill="#0ecb81" /><line x1="114.94" y1="102.01" x2="114.94" y2="185.06" stroke="#f6465d" stroke-width="1.4" /><rect x="111.94" y="118.85" width="6" height="61.26" rx="1.5" fill="#f6465d" /><line x1="125.67" y1="154.90" x2="125.67" y2="214.50" stroke="#f6465d" stroke-width="1.4" /><rect x="122.67" y="180.10" width="6" height="29.85" rx="1.5" fill="#f6465d" /><line x1="136.41" y1="163.89" x2="136.41" y2="211.30" stroke="#0ecb81" stroke-width="1.4" /><rect x="133.41" y="167.81" width="6" height="42.15" rx="1.5" fill="#0ecb81" /><line x1="147.14" y1="141.26" x2="147.14" y2="201.08" stroke="#f6465d" stroke-width="1.4" /><rect x="144.14" y="167.92" width="6" height="17.77" rx="1.5" fill="#f6465d" /><line x1="157.87" y1="122.25" x2="157.87" y2="193.33" stroke="#0ecb81" stroke-width="1.4" /><rect x="154.87" y="126.80" width="6" height="58.99" rx="1.5" fill="#0ecb81" /><line x1="168.61" y1="81.97" x2="168.61" y2="150.04" stroke="#f6465d" stroke-width="1.4" /><rect x="165.61" y="126.80" width="6" height="20.14" rx="1.5" fill="#f6465d" /><line x1="179.34" y1="144.88" x2="179.34" y2="209.24" stroke="#f6465d" stroke-width="1.4" /><rect x="176.34" y="146.84" width="6" height="24.17" rx="1.5" fill="#f6465d" /><line x1="190.08" y1="170.29" x2="190.08" y2="200.35" stroke="#f6465d" stroke-width="1.4" /><rect x="187.08" y="171.12" width="6" height="21.49" rx="1.5" fill="#f6465d" /><line x1="200.81" y1="162.34" x2="200.81" y2="237.64" stroke="#f6465d" stroke-width="1.4" /><rect x="197.81" y="192.60" width="6" height="45.04" rx="1.5" fill="#f6465d" /><line x1="211.54" y1="193.22" x2="211.54" y2="239.19" stroke="#0ecb81" stroke-width="1.4" /><rect x="208.54" y="227.52" width="6" height="10.23" rx="1.5" fill="#0ecb81" /><line x1="222.28" y1="205.41" x2="222.28" y2="359.23" stroke="#f6465d" stroke-width="1.4" /><rect x="219.28" y="227.52" width="6" height="125.20" rx="1.5" fill="#f6465d" /><line x1="233.01" y1="291.16" x2="233.01" y2="353.65" stroke="#0ecb81" stroke-width="1.4" /><rect x="230.01" y="331.55" width="6" height="21.18" rx="1.5" fill="#0ecb81" /><line x1="243.75" y1="284.34" x2="243.75" y2="343.63" stroke="#0ecb81" stroke-width="1.4" /><rect x="240.75" y="295.29" width="6" height="36.26" rx="1.5" fill="#0ecb81" /><line x1="254.48" y1="257.48" x2="254.48" y2="317.09" stroke="#0ecb81" stroke-width="1.4" /><rect x="251.48" y="291.88" width="6" height="3.51" rx="1.5" fill="#0ecb81" /><line x1="265.22" y1="240.43" x2="265.22" y2="303.35" stroke="#0ecb81" stroke-width="1.4" /><rect x="262.22" y="247.25" width="6" height="44.52" rx="1.5" fill="#0ecb81" /><line x1="275.95" y1="237.95" x2="275.95" y2="356.75" stroke="#f6465d" stroke-width="1.4" /><rect x="272.95" y="247.15" width="6" height="74.48" rx="1.5" fill="#f6465d" /><line x1="286.68" y1="292.71" x2="286.68" y2="375.25" stroke="#f6465d" stroke-width="1.4" /><rect x="283.68" y="321.63" width="6" height="35.64" rx="1.5" fill="#f6465d" /><line x1="297.42" y1="320.49" x2="297.42" y2="411.40" stroke="#0ecb81" stroke-width="1.4" /><rect x="294.42" y="324.94" width="6" height="32.23" rx="1.5" fill="#0ecb81" /><line x1="308.15" y1="302.31" x2="308.15" y2="354.27" stroke="#f6465d" stroke-width="1.4" /><rect x="305.15" y="324.83" width="6" height="2.00" rx="1.5" fill="#f6465d" /><line x1="318.89" y1="277.83" x2="318.89" y2="333.30" stroke="#0ecb81" stroke-width="1.4" /><rect x="315.89" y="317.60" width="6" height="7.33" rx="1.5" fill="#0ecb81" /><line x1="329.62" y1="305.83" x2="329.62" y2="370.08" stroke="#0ecb81" stroke-width="1.4" /><rect x="326.62" y="305.93" width="6" height="11.26" rx="1.5" fill="#0ecb81" /><line x1="340.35" y1="295.50" x2="340.35" y2="343.63" stroke="#f6465d" stroke-width="1.4" /><rect x="337.35" y="306.24" width="6" height="30.27" rx="1.5" fill="#f6465d" /><line x1="351.09" y1="281.24" x2="351.09" y2="338.78" stroke="#0ecb81" stroke-width="1.4" /><rect x="348.09" y="290.74" width="6" height="45.66" rx="1.5" fill="#0ecb81" /><line x1="361.82" y1="238.37" x2="361.82" y2="291.98" stroke="#0ecb81" stroke-width="1.4" /><rect x="358.82" y="264.50" width="6" height="26.24" rx="1.5" fill="#0ecb81" /><line x1="372.56" y1="195.29" x2="372.56" y2="287.85" stroke="#f6465d" stroke-width="1.4" /><rect x="369.56" y="264.50" width="6" height="15.39" rx="1.5" fill="#f6465d" /><line x1="383.29" y1="269.26" x2="383.29" y2="320.91" stroke="#f6465d" stroke-width="1.4" /><rect x="380.29" y="279.69" width="6" height="5.99" rx="1.5" fill="#f6465d" /><line x1="394.03" y1="279.48" x2="394.03" y2="321.11" stroke="#f6465d" stroke-width="1.4" /><rect x="391.03" y="285.58" width="6" height="25.10" rx="1.5" fill="#f6465d" /><line x1="404.76" y1="291.88" x2="404.76" y2="327.31" stroke="#f6465d" stroke-width="1.4" /><rect x="401.76" y="310.68" width="6" height="5.89" rx="1.5" fill="#f6465d" /><line x1="415.49" y1="257.48" x2="415.49" y2="360.78" stroke="#0ecb81" stroke-width="1.4" /><rect x="412.49" y="258.62" width="6" height="57.85" rx="1.5" fill="#0ecb81" /><line x1="426.23" y1="257.07" x2="426.23" y2="336.51" stroke="#f6465d" stroke-width="1.4" /><rect x="423.23" y="258.62" width="6" height="57.23" rx="1.5" fill="#f6465d" /><line x1="436.96" y1="270.08" x2="436.96" y2="338.68" stroke="#0ecb81" stroke-width="1.4" /><rect x="433.96" y="310.16" width="6" height="5.58" rx="1.5" fill="#0ecb81" /><line x1="447.70" y1="250.66" x2="447.70" y2="330.31" stroke="#0ecb81" stroke-width="1.4" /><rect x="444.70" y="265.23" width="6" height="45.04" rx="1.5" fill="#0ecb81" /><line x1="458.43" y1="210.06" x2="458.43" y2="267.91" stroke="#0ecb81" stroke-width="1.4" /><rect x="455.43" y="213.37" width="6" height="51.86" rx="1.5" fill="#0ecb81" /><line x1="469.16" y1="160.17" x2="469.16" y2="242.71" stroke="#0ecb81" stroke-width="1.4" /><rect x="466.16" y="212.44" width="6" height="2.00" rx="1.5" fill="#0ecb81" /><line x1="479.90" y1="190.13" x2="479.90" y2="280.21" stroke="#f6465d" stroke-width="1.4" /><rect x="476.90" y="212.34" width="6" height="59.50" rx="1.5" fill="#f6465d" /><line x1="490.63" y1="259.34" x2="490.63" y2="355.31" stroke="#f6465d" stroke-width="1.4" /><rect x="487.63" y="271.74" width="6" height="62.50" rx="1.5" fill="#f6465d" /><line x1="501.37" y1="331.55" x2="501.37" y2="373.28" stroke="#f6465d" stroke-width="1.4" /><rect x="498.37" y="334.23" width="6" height="34.71" rx="1.5" fill="#f6465d" /><line x1="512.10" y1="282.07" x2="512.10" y2="384.75" stroke="#0ecb81" stroke-width="1.4" /><rect x="509.10" y="291.05" width="6" height="77.99" rx="1.5" fill="#0ecb81" /><line x1="522.84" y1="260.99" x2="522.84" y2="307.37" stroke="#f6465d" stroke-width="1.4" /><rect x="519.84" y="291.16" width="6" height="2.00" rx="1.5" fill="#f6465d" /><line x1="533.57" y1="277.93" x2="533.57" y2="365.95" stroke="#f6465d" stroke-width="1.4" /><rect x="530.57" y="292.19" width="6" height="37.09" rx="1.5" fill="#f6465d" /><line x1="544.30" y1="294.05" x2="544.30" y2="362.85" stroke="#0ecb81" stroke-width="1.4" /><rect x="541.30" y="329.17" width="6" height="2.00" rx="1.5" fill="#0ecb81" /><line x1="555.04" y1="264.09" x2="555.04" y2="332.27" stroke="#0ecb81" stroke-width="1.4" /><rect x="552.04" y="299.21" width="6" height="29.96" rx="1.5" fill="#0ecb81" /><line x1="565.77" y1="221.22" x2="565.77" y2="314.09" stroke="#0ecb81" stroke-width="1.4" /><rect x="562.77" y="234.44" width="6" height="64.56" rx="1.5" fill="#0ecb81" /><line x1="576.51" y1="219.57" x2="576.51" y2="280.21" stroke="#f6465d" stroke-width="1.4" /><rect x="573.51" y="234.44" width="6" height="18.28" rx="1.5" fill="#f6465d" /><line x1="587.24" y1="195.29" x2="587.24" y2="260.48" stroke="#0ecb81" stroke-width="1.4" /><rect x="584.24" y="215.12" width="6" height="37.50" rx="1.5" fill="#0ecb81" /><line x1="597.97" y1="185.06" x2="597.97" y2="236.61" stroke="#0ecb81" stroke-width="1.4" /><rect x="594.97" y="202.32" width="6" height="13.12" rx="1.5" fill="#0ecb81" /><line x1="608.71" y1="194.36" x2="608.71" y2="250.97" stroke="#f6465d" stroke-width="1.4" /><rect x="605.71" y="202.32" width="6" height="35.85" rx="1.5" fill="#f6465d" /><line x1="619.44" y1="190.44" x2="619.44" y2="250.66" stroke="#0ecb81" stroke-width="1.4" /><rect x="616.44" y="206.14" width="6" height="31.92" rx="1.5" fill="#0ecb81" /><line x1="630.18" y1="193.64" x2="630.18" y2="243.74" stroke="#0ecb81" stroke-width="1.4" /><rect x="627.18" y="203.14" width="6" height="2.79" rx="1.5" fill="#0ecb81" /><line x1="640.91" y1="179.49" x2="640.91" y2="272.87" stroke="#f6465d" stroke-width="1.4" /><rect x="637.91" y="202.93" width="6" height="61.05" rx="1.5" fill="#f6465d" /><line x1="651.65" y1="250.25" x2="651.65" y2="320.60" stroke="#0ecb81" stroke-width="1.4" /><rect x="648.65" y="250.35" width="6" height="13.53" rx="1.5" fill="#0ecb81" /><line x1="662.38" y1="245.39" x2="662.38" y2="309.96" stroke="#f6465d" stroke-width="1.4" /><rect x="659.38" y="250.66" width="6" height="58.26" rx="1.5" fill="#f6465d" /><line x1="673.11" y1="264.61" x2="673.11" y2="326.49" stroke="#0ecb81" stroke-width="1.4" /><rect x="670.11" y="282.79" width="6" height="25.93" rx="1.5" fill="#0ecb81" /><line x1="683.85" y1="275.97" x2="683.85" y2="333.20" stroke="#f6465d" stroke-width="1.4" /><rect x="680.85" y="282.69" width="6" height="12.50" rx="1.5" fill="#f6465d" /><line x1="694.58" y1="270.70" x2="694.58" y2="331.55" stroke="#f6465d" stroke-width="1.4" /><rect x="691.58" y="294.77" width="6" height="24.07" rx="1.5" fill="#f6465d" /><line x1="705.32" y1="292.91" x2="705.32" y2="335.37" stroke="#0ecb81" stroke-width="1.4" /><rect x="702.32" y="298.49" width="6" height="20.56" rx="1.5" fill="#0ecb81" /><line x1="716.05" y1="283.93" x2="716.05" y2="332.58" stroke="#f6465d" stroke-width="1.4" /><rect x="713.05" y="298.49" width="6" height="16.01" rx="1.5" fill="#f6465d" /><line x1="726.78" y1="295.60" x2="726.78" y2="333.30" stroke="#f6465d" stroke-width="1.4" /><rect x="723.78" y="314.50" width="6" height="10.12" rx="1.5" fill="#f6465d" /><line x1="737.52" y1="323.18" x2="737.52" y2="383.20" stroke="#f6465d" stroke-width="1.4" /><rect x="734.52" y="324.73" width="6" height="47.73" rx="1.5" fill="#f6465d" /><line x1="748.25" y1="366.36" x2="748.25" y2="452.00" stroke="#f6465d" stroke-width="1.4" /><rect x="745.25" y="372.56" width="6" height="39.46" rx="1.5" fill="#f6465d" /><line x1="758.99" y1="394.46" x2="758.99" y2="436.30" stroke="#f6465d" stroke-width="1.4" /><rect x="755.99" y="412.02" width="6" height="7.44" rx="1.5" fill="#f6465d" /><line x1="769.72" y1="405.20" x2="769.72" y2="443.94" stroke="#0ecb81" stroke-width="1.4" /><rect x="766.72" y="408.41" width="6" height="11.16" rx="1.5" fill="#0ecb81" /><line x1="780.46" y1="388.16" x2="780.46" y2="442.39" stroke="#0ecb81" stroke-width="1.4" /><rect x="777.46" y="392.50" width="6" height="16.01" rx="1.5" fill="#0ecb81" /><line x1="791.19" y1="385.68" x2="791.19" y2="431.75" stroke="#f6465d" stroke-width="1.4" /><rect x="788.19" y="392.60" width="6" height="31.09" rx="1.5" fill="#f6465d" /><line x1="801.92" y1="396.32" x2="801.92" y2="432.37" stroke="#0ecb81" stroke-width="1.4" /><rect x="798.92" y="404.89" width="6" height="18.80" rx="1.5" fill="#0ecb81" /><line x1="812.66" y1="358.10" x2="812.66" y2="413.26" stroke="#0ecb81" stroke-width="1.4" /><rect x="809.66" y="378.14" width="6" height="26.76" rx="1.5" fill="#0ecb81" /><line x1="823.39" y1="319.56" x2="823.39" y2="378.65" stroke="#0ecb81" stroke-width="1.4" /><rect x="820.39" y="328.14" width="6" height="49.90" rx="1.5" fill="#0ecb81" /><line x1="834.13" y1="312.13" x2="834.13" y2="350.97" stroke="#0ecb81" stroke-width="1.4" /><rect x="831.13" y="326.28" width="6" height="2.00" rx="1.5" fill="#0ecb81" /><line x1="844.86" y1="287.02" x2="844.86" y2="337.23" stroke="#0ecb81" stroke-width="1.4" /><rect x="841.86" y="317.40" width="6" height="8.78" rx="1.5" fill="#0ecb81" /><line x1="855.59" y1="300.25" x2="855.59" y2="336.40" stroke="#0ecb81" stroke-width="1.4" /><rect x="852.59" y="315.12" width="6" height="2.17" rx="1.5" fill="#0ecb81" /><line x1="866.33" y1="251.28" x2="866.33" y2="315.74" stroke="#0ecb81" stroke-width="1.4" /><rect x="863.33" y="268.22" width="6" height="46.80" rx="1.5" fill="#0ecb81" /><line x1="877.06" y1="255.72" x2="877.06" y2="300.76" stroke="#f6465d" stroke-width="1.4" /><rect x="874.06" y="268.22" width="6" height="8.88" rx="1.5" fill="#f6465d" /><line x1="887.80" y1="253.55" x2="887.80" y2="299.94" stroke="#0ecb81" stroke-width="1.4" /><rect x="884.80" y="266.57" width="6" height="10.43" rx="1.5" fill="#0ecb81" /><line x1="898.53" y1="253.14" x2="898.53" y2="308.72" stroke="#f6465d" stroke-width="1.4" /><rect x="895.53" y="266.47" width="6" height="24.59" rx="1.5" fill="#f6465d" /><line x1="909.27" y1="260.68" x2="909.27" y2="296.94" stroke="#0ecb81" stroke-width="1.4" /><rect x="906.27" y="260.79" width="6" height="30.06" rx="1.5" fill="#0ecb81" /><line x1="920.00" y1="237.64" x2="920.00" y2="284.44" stroke="#f6465d" stroke-width="1.4" /><rect x="917.00" y="260.79" width="6" height="2.00" rx="1.5" fill="#f6465d" />
  <polyline points="275.95,237.95 297.42,411.40 372.56,195.29 415.49,360.78 469.16,160.17" fill="none" stroke="#2fc273" stroke-width="4" stroke-linecap="round" stroke-linejoin="round" />
  <circle cx="275.95" cy="237.95" r="5.5" fill="#2fc273" fill-opacity="0.15" stroke="#2fc273" stroke-width="2" /><text x="275.95" y="225.95" fill="#f3f4f6" font-size="15" font-weight="700" text-anchor="middle">X</text><circle cx="297.42" cy="411.40" r="5.5" fill="#2fc273" fill-opacity="0.15" stroke="#2fc273" stroke-width="2" /><text x="297.42" y="399.40" fill="#f3f4f6" font-size="15" font-weight="700" text-anchor="middle">A</text><circle cx="372.56" cy="195.29" r="5.5" fill="#2fc273" fill-opacity="0.15" stroke="#2fc273" stroke-width="2" /><text x="372.56" y="183.29" fill="#f3f4f6" font-size="15" font-weight="700" text-anchor="middle">B</text><circle cx="415.49" cy="360.78" r="5.5" fill="#2fc273" fill-opacity="0.15" stroke="#2fc273" stroke-width="2" /><text x="415.49" y="348.78" fill="#f3f4f6" font-size="15" font-weight="700" text-anchor="middle">C</text><circle cx="469.16" cy="160.17" r="5.5" fill="#2fc273" fill-opacity="0.15" stroke="#2fc273" stroke-width="2" /><text x="469.16" y="148.17" fill="#f3f4f6" font-size="15" font-weight="700" text-anchor="middle">D</text>
  <text x="56" y="492" fill="#8ba0b5" font-size="18">일반 완성 · TP1 334.342 · TP2 329.758 · SL 343.943</text>
</svg>
