<svg xmlns="http://www.w3.org/2000/svg" width="960" height="540" viewBox="0 0 960 540">
  <rect width="960" height="540" rx="24" fill="#0b1220" />
  <rect x="28" y="28" width="904" height="484" rx="22" fill="#111827" stroke="#1f2937" />
  <text x="56" y="74" fill="#f3f4f6" font-size="34" font-weight="700">XPLUSDT · AB=CD</text>
  <text x="904" y="74" fill="#8ba0b5" font-size="20" text-anchor="end">Bullish (매수) · Score 74.8</text>
  <line x1="72" y1="58" x2="920" y2="58" stroke="#223045" stroke-width="1" stroke-dasharray="4 8" /><line x1="72" y1="156" x2="920" y2="156" stroke="#223045" stroke-width="1" stroke-dasharray="4 8" /><line x1="72" y1="255" x2="920" y2="255" stroke="#223045" stroke-width="1" stroke-dasharray="4 8" /><line x1="72" y1="353" x2="920" y2="353" stroke="#223045" stroke-width="1" stroke-dasharray="4 8" /><line x1="72" y1="452" x2="920" y2="452" stroke="#223045" stroke-width="1" stroke-dasharray="4 8" />
  <rect x="462.63" y="460.01" width="84" height="26.52" fill="#fbbf24" fill-opacity="0.12" stroke="#fbbf24" stroke-width="1.5" stroke-dasharray="6 6" />
  <line x1="72.00" y1="384.84" x2="72.00" y2="422.67" stroke="#0ecb81" stroke-width="1.4" /><rect x="69.00" y="401.86" width="6" height="15.14" rx="1.5" fill="#0ecb81" /><line x1="82.73" y1="390.04" x2="82.73" y2="406.12" stroke="#0ecb81" stroke-width="1.4" /><rect x="79.73" y="396.19" width="6" height="5.68" rx="1.5" fill="#0ecb81" /><line x1="93.47" y1="378.69" x2="93.47" y2="402.81" stroke="#0ecb81" stroke-width="1.4" /><rect x="90.47" y="391.93" width="6" height="4.26" rx="1.5" fill="#0ecb81" /><line x1="104.20" y1="388.15" x2="104.20" y2="398.55" stroke="#0ecb81" stroke-width="1.4" /><rect x="101.20" y="390.98" width="6" height="2.00" rx="1.5" fill="#0ecb81" /><line x1="114.94" y1="389.57" x2="114.94" y2="401.86" stroke="#f6465d" stroke-width="1.4" /><rect x="111.94" y="390.98" width="6" height="5.68" rx="1.5" fill="#f6465d" /><line x1="125.67" y1="388.15" x2="125.67" y2="403.76" stroke="#0ecb81" stroke-width="1.4" /><rect x="122.67" y="389.09" width="6" height="8.04" rx="1.5" fill="#0ecb81" /><line x1="136.41" y1="386.25" x2="136.41" y2="393.82" stroke="#f6465d" stroke-width="1.4" /><rect x="133.41" y="389.09" width="6" height="2.00" rx="1.5" fill="#f6465d" /><line x1="147.14" y1="389.09" x2="147.14" y2="403.76" stroke="#f6465d" stroke-width="1.4" /><rect x="144.14" y="389.57" width="6" height="8.99" rx="1.5" fill="#f6465d" /><line x1="157.87" y1="395.71" x2="157.87" y2="406.12" stroke="#f6465d" stroke-width="1.4" /><rect x="154.87" y="398.08" width="6" height="2.00" rx="1.5" fill="#f6465d" /><line x1="168.61" y1="382.47" x2="168.61" y2="399.03" stroke="#0ecb81" stroke-width="1.4" /><rect x="165.61" y="385.78" width="6" height="12.30" rx="1.5" fill="#0ecb81" /><line x1="179.34" y1="382.94" x2="179.34" y2="393.82" stroke="#f6465d" stroke-width="1.4" /><rect x="176.34" y="385.78" width="6" height="4.26" rx="1.5" fill="#f6465d" /><line x1="190.08" y1="374.43" x2="190.08" y2="393.82" stroke="#0ecb81" stroke-width="1.4" /><rect x="187.08" y="380.58" width="6" height="8.99" rx="1.5" fill="#0ecb81" /><line x1="200.81" y1="365.44" x2="200.81" y2="380.58" stroke="#0ecb81" stroke-width="1.4" /><rect x="197.81" y="370.17" width="6" height="9.93" rx="1.5" fill="#0ecb81" /><line x1="211.54" y1="360.71" x2="211.54" y2="385.78" stroke="#f6465d" stroke-width="1.4" /><rect x="208.54" y="369.70" width="6" height="8.04" rx="1.5" fill="#f6465d" /><line x1="222.28" y1="368.75" x2="222.28" y2="380.58" stroke="#f6465d" stroke-width="1.4" /><rect x="219.28" y="377.27" width="6" height="2.00" rx="1.5" fill="#f6465d" /><line x1="233.01" y1="371.12" x2="233.01" y2="382.47" stroke="#0ecb81" stroke-width="1.4" /><rect x="230.01" y="372.54" width="6" height="5.20" rx="1.5" fill="#0ecb81" /><line x1="243.75" y1="366.86" x2="243.75" y2="381.52" stroke="#f6465d" stroke-width="1.4" /><rect x="240.75" y="373.01" width="6" height="4.73" rx="1.5" fill="#f6465d" /><line x1="254.48" y1="375.38" x2="254.48" y2="389.09" stroke="#f6465d" stroke-width="1.4" /><rect x="251.48" y="378.21" width="6" height="7.57" rx="1.5" fill="#f6465d" /><line x1="265.22" y1="383.42" x2="265.22" y2="408.96" stroke="#f6465d" stroke-width="1.4" /><rect x="262.22" y="385.78" width="6" height="21.28" rx="1.5" fill="#f6465d" /><line x1="275.95" y1="399.97" x2="275.95" y2="412.27" stroke="#f6465d" stroke-width="1.4" /><rect x="272.95" y="407.07" width="6" height="2.00" rx="1.5" fill="#f6465d" /><line x1="286.68" y1="407.07" x2="286.68" y2="416.53" stroke="#f6465d" stroke-width="1.4" /><rect x="283.68" y="408.01" width="6" height="7.09" rx="1.5" fill="#f6465d" /><line x1="297.42" y1="398.55" x2="297.42" y2="418.42" stroke="#0ecb81" stroke-width="1.4" /><rect x="294.42" y="405.17" width="6" height="9.93" rx="1.5" fill="#0ecb81" /><line x1="308.15" y1="398.08" x2="308.15" y2="408.48" stroke="#f6465d" stroke-width="1.4" /><rect x="305.15" y="405.17" width="6" height="2.00" rx="1.5" fill="#f6465d" /><line x1="318.89" y1="399.97" x2="318.89" y2="412.27" stroke="#0ecb81" stroke-width="1.4" /><rect x="315.89" y="402.34" width="6" height="4.73" rx="1.5" fill="#0ecb81" /><line x1="329.62" y1="400.44" x2="329.62" y2="427.88" stroke="#f6465d" stroke-width="1.4" /><rect x="326.62" y="401.86" width="6" height="20.34" rx="1.5" fill="#f6465d" /><line x1="340.35" y1="416.05" x2="340.35" y2="428.35" stroke="#0ecb81" stroke-width="1.4" /><rect x="337.35" y="421.26" width="6" height="2.00" rx="1.5" fill="#0ecb81" /><line x1="351.09" y1="421.26" x2="351.09" y2="435.45" stroke="#f6465d" stroke-width="1.4" /><rect x="348.09" y="421.73" width="6" height="7.57" rx="1.5" fill="#f6465d" /><line x1="361.82" y1="425.51" x2="361.82" y2="433.08" stroke="#0ecb81" stroke-width="1.4" /><rect x="358.82" y="426.46" width="6" height="2.84" rx="1.5" fill="#0ecb81" /><line x1="372.56" y1="425.51" x2="372.56" y2="436.86" stroke="#f6465d" stroke-width="1.4" /><rect x="369.56" y="425.99" width="6" height="6.15" rx="1.5" fill="#f6465d" /><line x1="383.29" y1="421.73" x2="383.29" y2="434.03" stroke="#0ecb81" stroke-width="1.4" /><rect x="380.29" y="422.67" width="6" height="9.93" rx="1.5" fill="#0ecb81" /><line x1="394.03" y1="421.26" x2="394.03" y2="429.30" stroke="#f6465d" stroke-width="1.4" /><rect x="391.03" y="422.67" width="6" height="3.31" rx="1.5" fill="#f6465d" /><line x1="404.76" y1="410.38" x2="404.76" y2="426.93" stroke="#0ecb81" stroke-width="1.4" /><rect x="401.76" y="413.69" width="6" height="12.30" rx="1.5" fill="#0ecb81" /><line x1="415.49" y1="411.32" x2="415.49" y2="419.36" stroke="#f6465d" stroke-width="1.4" /><rect x="412.49" y="413.69" width="6" height="4.73" rx="1.5" fill="#f6465d" /><line x1="426.23" y1="416.53" x2="426.23" y2="431.66" stroke="#f6465d" stroke-width="1.4" /><rect x="423.23" y="418.42" width="6" height="10.88" rx="1.5" fill="#f6465d" /><line x1="436.96" y1="422.67" x2="436.96" y2="432.13" stroke="#0ecb81" stroke-width="1.4" /><rect x="433.96" y="423.62" width="6" height="5.20" rx="1.5" fill="#0ecb81" /><line x1="447.70" y1="422.20" x2="447.70" y2="429.30" stroke="#f6465d" stroke-width="1.4" /><rect x="444.70" y="423.62" width="6" height="5.68" rx="1.5" fill="#f6465d" /><line x1="458.43" y1="427.40" x2="458.43" y2="436.86" stroke="#f6465d" stroke-width="1.4" /><rect x="455.43" y="429.30" width="6" height="2.00" rx="1.5" fill="#f6465d" /><line x1="469.16" y1="430.24" x2="469.16" y2="440.65" stroke="#f6465d" stroke-width="1.4" /><rect x="466.16" y="430.24" width="6" height="8.99" rx="1.5" fill="#f6465d" /><line x1="479.90" y1="434.97" x2="479.90" y2="440.18" stroke="#0ecb81" stroke-width="1.4" /><rect x="476.90" y="438.76" width="6" height="2.00" rx="1.5" fill="#0ecb81" /><line x1="490.63" y1="430.72" x2="490.63" y2="452.00" stroke="#f6465d" stroke-width="1.4" /><rect x="487.63" y="438.28" width="6" height="2.00" rx="1.5" fill="#f6465d" /><line x1="501.37" y1="418.42" x2="501.37" y2="438.76" stroke="#0ecb81" stroke-width="1.4" /><rect x="498.37" y="420.31" width="6" height="18.45" rx="1.5" fill="#0ecb81" /><line x1="512.10" y1="413.21" x2="512.10" y2="422.20" stroke="#0ecb81" stroke-width="1.4" /><rect x="509.10" y="414.63" width="6" height="5.68" rx="1.5" fill="#0ecb81" /><line x1="522.84" y1="410.85" x2="522.84" y2="422.20" stroke="#f6465d" stroke-width="1.4" /><rect x="519.84" y="414.63" width="6" height="2.00" rx="1.5" fill="#f6465d" /><line x1="533.57" y1="414.16" x2="533.57" y2="426.93" stroke="#f6465d" stroke-width="1.4" /><rect x="530.57" y="416.05" width="6" height="4.26" rx="1.5" fill="#f6465d" /><line x1="544.30" y1="415.11" x2="544.30" y2="438.28" stroke="#f6465d" stroke-width="1.4" /><rect x="541.30" y="420.78" width="6" height="10.88" rx="1.5" fill="#f6465d" /><line x1="555.04" y1="425.04" x2="555.04" y2="433.55" stroke="#0ecb81" stroke-width="1.4" /><rect x="552.04" y="430.24" width="6" height="2.00" rx="1.5" fill="#0ecb81" /><line x1="565.77" y1="418.42" x2="565.77" y2="433.08" stroke="#0ecb81" stroke-width="1.4" /><rect x="562.77" y="425.04" width="6" height="4.73" rx="1.5" fill="#0ecb81" /><line x1="576.51" y1="422.20" x2="576.51" y2="428.82" stroke="#f6465d" stroke-width="1.4" /><rect x="573.51" y="425.04" width="6" height="2.00" rx="1.5" fill="#f6465d" /><line x1="587.24" y1="424.09" x2="587.24" y2="438.28" stroke="#f6465d" stroke-width="1.4" /><rect x="584.24" y="426.46" width="6" height="4.73" rx="1.5" fill="#f6465d" /><line x1="597.97" y1="421.26" x2="597.97" y2="434.03" stroke="#0ecb81" stroke-width="1.4" /><rect x="594.97" y="430.24" width="6" height="2.00" rx="1.5" fill="#0ecb81" /><line x1="608.71" y1="404.70" x2="608.71" y2="429.77" stroke="#0ecb81" stroke-width="1.4" /><rect x="605.71" y="411.32" width="6" height="18.45" rx="1.5" fill="#0ecb81" /><line x1="619.44" y1="401.39" x2="619.44" y2="413.69" stroke="#0ecb81" stroke-width="1.4" /><rect x="616.44" y="408.48" width="6" height="3.31" rx="1.5" fill="#0ecb81" /><line x1="630.18" y1="399.03" x2="630.18" y2="418.42" stroke="#0ecb81" stroke-width="1.4" /><rect x="627.18" y="402.81" width="6" height="5.68" rx="1.5" fill="#0ecb81" /><line x1="640.91" y1="386.73" x2="640.91" y2="406.12" stroke="#0ecb81" stroke-width="1.4" /><rect x="637.91" y="392.88" width="6" height="9.93" rx="1.5" fill="#0ecb81" /><line x1="651.65" y1="390.51" x2="651.65" y2="401.39" stroke="#f6465d" stroke-width="1.4" /><rect x="648.65" y="392.88" width="6" height="2.84" rx="1.5" fill="#f6465d" /><line x1="662.38" y1="358.35" x2="662.38" y2="405.17" stroke="#0ecb81" stroke-width="1.4" /><rect x="659.38" y="366.39" width="6" height="29.33" rx="1.5" fill="#0ecb81" /><line x1="673.11" y1="333.75" x2="673.11" y2="369.23" stroke="#0ecb81" stroke-width="1.4" /><rect x="670.11" y="343.69" width="6" height="23.18" rx="1.5" fill="#0ecb81" /><line x1="683.85" y1="328.08" x2="683.85" y2="350.31" stroke="#f6465d" stroke-width="1.4" /><rect x="680.85" y="343.69" width="6" height="2.36" rx="1.5" fill="#f6465d" /><line x1="694.58" y1="338.96" x2="694.58" y2="362.13" stroke="#f6465d" stroke-width="1.4" /><rect x="691.58" y="346.52" width="6" height="8.99" rx="1.5" fill="#f6465d" /><line x1="705.32" y1="314.83" x2="705.32" y2="361.66" stroke="#0ecb81" stroke-width="1.4" /><rect x="702.32" y="320.04" width="6" height="35.00" rx="1.5" fill="#0ecb81" /><line x1="716.05" y1="318.14" x2="716.05" y2="339.43" stroke="#f6465d" stroke-width="1.4" /><rect x="713.05" y="320.51" width="6" height="9.93" rx="1.5" fill="#f6465d" /><line x1="726.78" y1="304.90" x2="726.78" y2="339.90" stroke="#0ecb81" stroke-width="1.4" /><rect x="723.78" y="315.31" width="6" height="15.14" rx="1.5" fill="#0ecb81" /><line x1="737.52" y1="233.01" x2="737.52" y2="328.55" stroke="#0ecb81" stroke-width="1.4" /><rect x="734.52" y="241.99" width="6" height="72.84" rx="1.5" fill="#0ecb81" /><line x1="748.25" y1="58.00" x2="748.25" y2="303.01" stroke="#f6465d" stroke-width="1.4" /><rect x="745.25" y="241.99" width="6" height="42.10" rx="1.5" fill="#f6465d" /><line x1="758.99" y1="277.94" x2="758.99" y2="313.89" stroke="#f6465d" stroke-width="1.4" /><rect x="755.99" y="283.62" width="6" height="25.54" rx="1.5" fill="#f6465d" /><line x1="769.72" y1="266.59" x2="769.72" y2="309.63" stroke="#0ecb81" stroke-width="1.4" /><rect x="766.72" y="290.24" width="6" height="18.92" rx="1.5" fill="#0ecb81" /><line x1="780.46" y1="250.51" x2="780.46" y2="299.70" stroke="#0ecb81" stroke-width="1.4" /><rect x="777.46" y="271.79" width="6" height="18.45" rx="1.5" fill="#0ecb81" /><line x1="791.19" y1="256.18" x2="791.19" y2="312.47" stroke="#f6465d" stroke-width="1.4" /><rect x="788.19" y="271.79" width="6" height="33.11" rx="1.5" fill="#f6465d" /><line x1="801.92" y1="292.13" x2="801.92" y2="322.87" stroke="#f6465d" stroke-width="1.4" /><rect x="798.92" y="304.43" width="6" height="9.93" rx="1.5" fill="#f6465d" /><line x1="812.66" y1="303.48" x2="812.66" y2="332.33" stroke="#f6465d" stroke-width="1.4" /><rect x="809.66" y="314.36" width="6" height="12.30" rx="1.5" fill="#f6465d" /><line x1="823.39" y1="305.37" x2="823.39" y2="337.06" stroke="#0ecb81" stroke-width="1.4" /><rect x="820.39" y="313.41" width="6" height="13.24" rx="1.5" fill="#0ecb81" /><line x1="834.13" y1="306.32" x2="834.13" y2="326.66" stroke="#0ecb81" stroke-width="1.4" /><rect x="831.13" y="312.00" width="6" height="2.00" rx="1.5" fill="#0ecb81" /><line x1="844.86" y1="295.44" x2="844.86" y2="320.98" stroke="#0ecb81" stroke-width="1.4" /><rect x="841.86" y="299.70" width="6" height="11.82" rx="1.5" fill="#0ecb81" /><line x1="855.59" y1="269.43" x2="855.59" y2="301.59" stroke="#0ecb81" stroke-width="1.4" /><rect x="852.59" y="278.41" width="6" height="21.28" rx="1.5" fill="#0ecb81" /><line x1="866.33" y1="270.37" x2="866.33" y2="293.55" stroke="#f6465d" stroke-width="1.4" /><rect x="863.33" y="278.41" width="6" height="11.35" rx="1.5" fill="#f6465d" /><line x1="877.06" y1="285.03" x2="877.06" y2="298.28" stroke="#f6465d" stroke-width="1.4" /><rect x="874.06" y="289.76" width="6" height="2.84" rx="1.5" fill="#f6465d" /><line x1="887.80" y1="286.93" x2="887.80" y2="314.36" stroke="#f6465d" stroke-width="1.4" /><rect x="884.80" y="292.60" width="6" height="2.00" rx="1.5" fill="#f6465d" /><line x1="898.53" y1="290.71" x2="898.53" y2="307.27" stroke="#f6465d" stroke-width="1.4" /><rect x="895.53" y="293.08" width="6" height="8.51" rx="1.5" fill="#f6465d" /><line x1="909.27" y1="275.10" x2="909.27" y2="303.95" stroke="#0ecb81" stroke-width="1.4" /><rect x="906.27" y="290.71" width="6" height="10.88" rx="1.5" fill="#0ecb81" /><line x1="920.00" y1="287.87" x2="920.00" y2="321.93" stroke="#f6465d" stroke-width="1.4" /><rect x="917.00" y="290.71" width="6" height="25.54" rx="1.5" fill="#f6465d" />
  <polyline points="157.87,406.12 211.54,360.71 372.56,436.86 404.76,410.38 490.63,452.00" fill="none" stroke="#2fc273" stroke-width="4" stroke-linecap="round" stroke-linejoin="round" />
  <circle cx="157.87" cy="406.12" r="5.5" fill="#2fc273" fill-opacity="0.15" stroke="#2fc273" stroke-width="2" /><text x="157.87" y="394.12" fill="#f3f4f6" font-size="15" font-weight="700" text-anchor="middle">X</text><circle cx="211.54" cy="360.71" r="5.5" fill="#2fc273" fill-opacity="0.15" stroke="#2fc273" stroke-width="2" /><text x="211.54" y="348.71" fill="#f3f4f6" font-size="15" font-weight="700" text-anchor="middle">A</text><circle cx="372.56" cy="436.86" r="5.5" fill="#2fc273" fill-opacity="0.15" stroke="#2fc273" stroke-width="2" /><text x="372.56" y="424.86" fill="#f3f4f6" font-size="15" font-weight="700" text-anchor="middle">B</text><circle cx="404.76" cy="410.38" r="5.5" fill="#2fc273" fill-opacity="0.15" stroke="#2fc273" stroke-width="2" /><text x="404.76" y="398.38" fill="#f3f4f6" font-size="15" font-weight="700" text-anchor="middle">C</text><circle cx="490.63" cy="452.00" r="5.5" fill="#2fc273" fill-opacity="0.15" stroke="#2fc273" stroke-width="2" /><text x="490.63" y="440.00" fill="#f3f4f6" font-size="15" font-weight="700" text-anchor="middle">D</text>
  <text x="56" y="492" fill="#8ba0b5" font-size="18">일반 완성 · TP1 0.087062 · TP2 0.089138 · SL 0.082452</text>
</svg>
