<svg xmlns="http://www.w3.org/2000/svg" width="960" height="540" viewBox="0 0 960 540">
  <rect width="960" height="540" rx="24" fill="#0b1220" />
  <rect x="28" y="28" width="904" height="484" rx="22" fill="#111827" stroke="#1f2937" />
  <text x="56" y="74" fill="#f3f4f6" font-size="34" font-weight="700">XPLUSDT · AB=CD</text>
  <text x="904" y="74" fill="#8ba0b5" font-size="20" text-anchor="end">Bullish (매수) · Score 80.3</text>
  <line x1="72" y1="58" x2="920" y2="58" stroke="#223045" stroke-width="1" stroke-dasharray="4 8" /><line x1="72" y1="156" x2="920" y2="156" stroke="#223045" stroke-width="1" stroke-dasharray="4 8" /><line x1="72" y1="255" x2="920" y2="255" stroke="#223045" stroke-width="1" stroke-dasharray="4 8" /><line x1="72" y1="353" x2="920" y2="353" stroke="#223045" stroke-width="1" stroke-dasharray="4 8" /><line x1="72" y1="452" x2="920" y2="452" stroke="#223045" stroke-width="1" stroke-dasharray="4 8" />
  <rect x="773.92" y="432.00" width="84" height="50.49" fill="#fbbf24" fill-opacity="0.12" stroke="#fbbf24" stroke-width="1.5" stroke-dasharray="6 6" />
  <line x1="72.00" y1="124.29" x2="72.00" y2="189.92" stroke="#f6465d" stroke-width="1.4" /><rect x="69.00" y="137.33" width="6" height="2.65" rx="1.5" fill="#f6465d" /><line x1="82.73" y1="113.91" x2="82.73" y2="208.04" stroke="#f6465d" stroke-width="1.4" /><rect x="79.73" y="140.20" width="6" height="55.91" rx="1.5" fill="#f6465d" /><line x1="93.47" y1="168.05" x2="93.47" y2="213.79" stroke="#0ecb81" stroke-width="1.4" /><rect x="90.47" y="182.41" width="6" height="13.92" rx="1.5" fill="#0ecb81" /><line x1="104.20" y1="166.06" x2="104.20" y2="208.48" stroke="#f6465d" stroke-width="1.4" /><rect x="101.20" y="182.19" width="6" height="13.48" rx="1.5" fill="#f6465d" /><line x1="114.94" y1="126.28" x2="114.94" y2="240.53" stroke="#f6465d" stroke-width="1.4" /><rect x="111.94" y="195.67" width="6" height="13.26" rx="1.5" fill="#f6465d" /><line x1="125.67" y1="122.97" x2="125.67" y2="228.81" stroke="#0ecb81" stroke-width="1.4" /><rect x="122.67" y="144.18" width="6" height="64.52" rx="1.5" fill="#0ecb81" /><line x1="136.41" y1="121.20" x2="136.41" y2="186.83" stroke="#f6465d" stroke-width="1.4" /><rect x="133.41" y="144.18" width="6" height="19.89" rx="1.5" fill="#f6465d" /><line x1="147.14" y1="128.93" x2="147.14" y2="186.39" stroke="#0ecb81" stroke-width="1.4" /><rect x="144.14" y="162.52" width="6" height="2.00" rx="1.5" fill="#0ecb81" /><line x1="157.87" y1="93.14" x2="157.87" y2="185.50" stroke="#0ecb81" stroke-width="1.4" /><rect x="154.87" y="109.27" width="6" height="53.03" rx="1.5" fill="#0ecb81" /><line x1="168.61" y1="63.97" x2="168.61" y2="131.14" stroke="#0ecb81" stroke-width="1.4" /><rect x="165.61" y="96.23" width="6" height="13.04" rx="1.5" fill="#0ecb81" /><line x1="179.34" y1="58.00" x2="179.34" y2="128.05" stroke="#0ecb81" stroke-width="1.4" /><rect x="176.34" y="94.90" width="6" height="2.00" rx="1.5" fill="#0ecb81" /><line x1="190.08" y1="86.51" x2="190.08" y2="167.38" stroke="#f6465d" stroke-width="1.4" /><rect x="187.08" y="94.90" width="6" height="60.99" rx="1.5" fill="#f6465d" /><line x1="200.81" y1="113.02" x2="200.81" y2="159.21" stroke="#0ecb81" stroke-width="1.4" /><rect x="197.81" y="138.66" width="6" height="17.24" rx="1.5" fill="#0ecb81" /><line x1="211.54" y1="118.11" x2="211.54" y2="199.87" stroke="#f6465d" stroke-width="1.4" /><rect x="208.54" y="138.88" width="6" height="43.31" rx="1.5" fill="#f6465d" /><line x1="222.28" y1="153.90" x2="222.28" y2="192.35" stroke="#0ecb81" stroke-width="1.4" /><rect x="219.28" y="171.14" width="6" height="11.05" rx="1.5" fill="#0ecb81" /><line x1="233.01" y1="148.60" x2="233.01" y2="189.48" stroke="#f6465d" stroke-width="1.4" /><rect x="230.01" y="171.36" width="6" height="2.21" rx="1.5" fill="#f6465d" /><line x1="243.75" y1="119.87" x2="243.75" y2="209.59" stroke="#0ecb81" stroke-width="1.4" /><rect x="240.75" y="154.57" width="6" height="19.00" rx="1.5" fill="#0ecb81" /><line x1="254.48" y1="137.55" x2="254.48" y2="197.88" stroke="#f6465d" stroke-width="1.4" /><rect x="251.48" y="155.45" width="6" height="28.28" rx="1.5" fill="#f6465d" /><line x1="265.22" y1="159.43" x2="265.22" y2="209.81" stroke="#0ecb81" stroke-width="1.4" /><rect x="262.22" y="179.32" width="6" height="4.64" rx="1.5" fill="#0ecb81" /><line x1="275.95" y1="137.99" x2="275.95" y2="186.61" stroke="#0ecb81" stroke-width="1.4" /><rect x="272.95" y="171.14" width="6" height="7.96" rx="1.5" fill="#0ecb81" /><line x1="286.68" y1="139.10" x2="286.68" y2="184.40" stroke="#0ecb81" stroke-width="1.4" /><rect x="283.68" y="152.14" width="6" height="19.45" rx="1.5" fill="#0ecb81" /><line x1="297.42" y1="89.60" x2="297.42" y2="201.86" stroke="#f6465d" stroke-width="1.4" /><rect x="294.42" y="152.14" width="6" height="46.85" rx="1.5" fill="#f6465d" /><line x1="308.15" y1="146.17" x2="308.15" y2="218.43" stroke="#0ecb81" stroke-width="1.4" /><rect x="305.15" y="175.34" width="6" height="23.64" rx="1.5" fill="#0ecb81" /><line x1="318.89" y1="159.65" x2="318.89" y2="211.36" stroke="#f6465d" stroke-width="1.4" /><rect x="315.89" y="175.56" width="6" height="22.76" rx="1.5" fill="#f6465d" /><line x1="329.62" y1="148.16" x2="329.62" y2="204.51" stroke="#0ecb81" stroke-width="1.4" /><rect x="326.62" y="150.81" width="6" height="47.73" rx="1.5" fill="#0ecb81" /><line x1="340.35" y1="144.18" x2="340.35" y2="185.28" stroke="#f6465d" stroke-width="1.4" /><rect x="337.35" y="150.81" width="6" height="22.98" rx="1.5" fill="#f6465d" /><line x1="351.09" y1="170.48" x2="351.09" y2="208.04" stroke="#0ecb81" stroke-width="1.4" /><rect x="348.09" y="171.14" width="6" height="2.87" rx="1.5" fill="#0ecb81" /><line x1="361.82" y1="168.05" x2="361.82" y2="267.26" stroke="#f6465d" stroke-width="1.4" /><rect x="358.82" y="171.36" width="6" height="69.39" rx="1.5" fill="#f6465d" /><line x1="372.56" y1="185.06" x2="372.56" y2="295.11" stroke="#f6465d" stroke-width="1.4" /><rect x="369.56" y="240.97" width="6" height="42.87" rx="1.5" fill="#f6465d" /><line x1="383.29" y1="216.44" x2="383.29" y2="300.19" stroke="#0ecb81" stroke-width="1.4" /><rect x="380.29" y="224.17" width="6" height="59.44" rx="1.5" fill="#0ecb81" /><line x1="394.03" y1="188.60" x2="394.03" y2="230.80" stroke="#0ecb81" stroke-width="1.4" /><rect x="391.03" y="206.27" width="6" height="17.68" rx="1.5" fill="#0ecb81" /><line x1="404.76" y1="200.75" x2="404.76" y2="245.83" stroke="#f6465d" stroke-width="1.4" /><rect x="401.76" y="206.27" width="6" height="28.06" rx="1.5" fill="#f6465d" /><line x1="415.49" y1="207.38" x2="415.49" y2="255.77" stroke="#f6465d" stroke-width="1.4" /><rect x="412.49" y="234.56" width="6" height="2.00" rx="1.5" fill="#f6465d" /><line x1="426.23" y1="223.51" x2="426.23" y2="284.94" stroke="#0ecb81" stroke-width="1.4" /><rect x="423.23" y="226.16" width="6" height="9.50" rx="1.5" fill="#0ecb81" /><line x1="436.96" y1="221.30" x2="436.96" y2="256.88" stroke="#f6465d" stroke-width="1.4" /><rect x="433.96" y="225.94" width="6" height="3.09" rx="1.5" fill="#f6465d" /><line x1="447.70" y1="180.42" x2="447.70" y2="243.84" stroke="#0ecb81" stroke-width="1.4" /><rect x="444.70" y="191.69" width="6" height="36.90" rx="1.5" fill="#0ecb81" /><line x1="458.43" y1="152.80" x2="458.43" y2="218.43" stroke="#0ecb81" stroke-width="1.4" /><rect x="455.43" y="176.66" width="6" height="15.25" rx="1.5" fill="#0ecb81" /><line x1="469.16" y1="135.56" x2="469.16" y2="189.04" stroke="#f6465d" stroke-width="1.4" /><rect x="466.16" y="176.44" width="6" height="3.76" rx="1.5" fill="#f6465d" /><line x1="479.90" y1="83.19" x2="479.90" y2="186.61" stroke="#0ecb81" stroke-width="1.4" /><rect x="476.90" y="134.90" width="6" height="45.30" rx="1.5" fill="#0ecb81" /><line x1="490.63" y1="122.97" x2="490.63" y2="150.15" stroke="#f6465d" stroke-width="1.4" /><rect x="487.63" y="134.68" width="6" height="10.16" rx="1.5" fill="#f6465d" /><line x1="501.37" y1="75.46" x2="501.37" y2="149.70" stroke="#0ecb81" stroke-width="1.4" /><rect x="498.37" y="100.43" width="6" height="44.20" rx="1.5" fill="#0ecb81" /><line x1="512.10" y1="88.27" x2="512.10" y2="160.97" stroke="#f6465d" stroke-width="1.4" /><rect x="509.10" y="100.43" width="6" height="55.02" rx="1.5" fill="#f6465d" /><line x1="522.84" y1="108.60" x2="522.84" y2="164.95" stroke="#0ecb81" stroke-width="1.4" /><rect x="519.84" y="127.39" width="6" height="28.06" rx="1.5" fill="#0ecb81" /><line x1="533.57" y1="110.15" x2="533.57" y2="178.87" stroke="#f6465d" stroke-width="1.4" /><rect x="530.57" y="127.39" width="6" height="28.95" rx="1.5" fill="#f6465d" /><line x1="544.30" y1="155.45" x2="544.30" y2="208.26" stroke="#f6465d" stroke-width="1.4" /><rect x="541.30" y="156.11" width="6" height="38.67" rx="1.5" fill="#f6465d" /><line x1="555.04" y1="146.83" x2="555.04" y2="200.09" stroke="#0ecb81" stroke-width="1.4" /><rect x="552.04" y="173.13" width="6" height="21.43" rx="1.5" fill="#0ecb81" /><line x1="565.77" y1="156.78" x2="565.77" y2="321.62" stroke="#f6465d" stroke-width="1.4" /><rect x="562.77" y="173.35" width="6" height="124.19" rx="1.5" fill="#f6465d" /><line x1="576.51" y1="274.34" x2="576.51" y2="334.66" stroke="#f6465d" stroke-width="1.4" /><rect x="573.51" y="297.54" width="6" height="20.11" rx="1.5" fill="#f6465d" /><line x1="587.24" y1="297.54" x2="587.24" y2="334.44" stroke="#0ecb81" stroke-width="1.4" /><rect x="584.24" y="303.28" width="6" height="14.58" rx="1.5" fill="#0ecb81" /><line x1="597.97" y1="238.98" x2="597.97" y2="314.77" stroke="#0ecb81" stroke-width="1.4" /><rect x="594.97" y="243.62" width="6" height="59.88" rx="1.5" fill="#0ecb81" /><line x1="608.71" y1="223.29" x2="608.71" y2="280.08" stroke="#f6465d" stroke-width="1.4" /><rect x="605.71" y="243.62" width="6" height="26.08" rx="1.5" fill="#f6465d" /><line x1="619.44" y1="266.16" x2="619.44" y2="300.63" stroke="#f6465d" stroke-width="1.4" /><rect x="616.44" y="269.47" width="6" height="26.96" rx="1.5" fill="#f6465d" /><line x1="630.18" y1="253.78" x2="630.18" y2="317.43" stroke="#0ecb81" stroke-width="1.4" /><rect x="627.18" y="271.90" width="6" height="24.75" rx="1.5" fill="#0ecb81" /><line x1="640.91" y1="251.35" x2="640.91" y2="333.11" stroke="#f6465d" stroke-width="1.4" /><rect x="637.91" y="272.13" width="6" height="57.01" rx="1.5" fill="#f6465d" /><line x1="651.65" y1="267.71" x2="651.65" y2="335.55" stroke="#0ecb81" stroke-width="1.4" /><rect x="648.65" y="302.18" width="6" height="26.74" rx="1.5" fill="#0ecb81" /><line x1="662.38" y1="281.85" x2="662.38" y2="347.70" stroke="#0ecb81" stroke-width="1.4" /><rect x="659.38" y="302.18" width="6" height="2.00" rx="1.5" fill="#0ecb81" /><line x1="673.11" y1="278.09" x2="673.11" y2="330.91" stroke="#f6465d" stroke-width="1.4" /><rect x="670.11" y="301.29" width="6" height="17.90" rx="1.5" fill="#f6465d" /><line x1="683.85" y1="312.56" x2="683.85" y2="335.10" stroke="#f6465d" stroke-width="1.4" /><rect x="680.85" y="319.41" width="6" height="2.00" rx="1.5" fill="#f6465d" /><line x1="694.58" y1="290.47" x2="694.58" y2="327.81" stroke="#0ecb81" stroke-width="1.4" /><rect x="691.58" y="318.09" width="6" height="2.65" rx="1.5" fill="#0ecb81" /><line x1="705.32" y1="308.14" x2="705.32" y2="348.58" stroke="#f6465d" stroke-width="1.4" /><rect x="702.32" y="318.31" width="6" height="23.20" rx="1.5" fill="#f6465d" /><line x1="716.05" y1="340.85" x2="716.05" y2="368.69" stroke="#f6465d" stroke-width="1.4" /><rect x="713.05" y="341.51" width="6" height="19.45" rx="1.5" fill="#f6465d" /><line x1="726.78" y1="353.00" x2="726.78" y2="412.22" stroke="#f6465d" stroke-width="1.4" /><rect x="723.78" y="361.18" width="6" height="38.01" rx="1.5" fill="#f6465d" /><line x1="737.52" y1="389.02" x2="737.52" y2="431.23" stroke="#0ecb81" stroke-width="1.4" /><rect x="734.52" y="393.88" width="6" height="5.08" rx="1.5" fill="#0ecb81" /><line x1="748.25" y1="360.30" x2="748.25" y2="395.65" stroke="#0ecb81" stroke-width="1.4" /><rect x="745.25" y="377.09" width="6" height="16.79" rx="1.5" fill="#0ecb81" /><line x1="758.99" y1="370.02" x2="758.99" y2="403.83" stroke="#f6465d" stroke-width="1.4" /><rect x="755.99" y="376.87" width="6" height="22.98" rx="1.5" fill="#f6465d" /><line x1="769.72" y1="389.02" x2="769.72" y2="406.26" stroke="#f6465d" stroke-width="1.4" /><rect x="766.72" y="400.07" width="6" height="2.00" rx="1.5" fill="#f6465d" /><line x1="780.46" y1="369.36" x2="780.46" y2="402.28" stroke="#0ecb81" stroke-width="1.4" /><rect x="777.46" y="395.21" width="6" height="6.19" rx="1.5" fill="#0ecb81" /><line x1="791.19" y1="390.13" x2="791.19" y2="417.31" stroke="#f6465d" stroke-width="1.4" /><rect x="788.19" y="395.21" width="6" height="6.41" rx="1.5" fill="#f6465d" /><line x1="801.92" y1="401.62" x2="801.92" y2="452.00" stroke="#f6465d" stroke-width="1.4" /><rect x="798.92" y="401.62" width="6" height="32.04" rx="1.5" fill="#f6465d" /><line x1="812.66" y1="419.07" x2="812.66" y2="445.15" stroke="#0ecb81" stroke-width="1.4" /><rect x="809.66" y="427.69" width="6" height="5.97" rx="1.5" fill="#0ecb81" /><line x1="823.39" y1="358.09" x2="823.39" y2="433.44" stroke="#0ecb81" stroke-width="1.4" /><rect x="820.39" y="393.66" width="6" height="33.81" rx="1.5" fill="#0ecb81" /><line x1="834.13" y1="364.71" x2="834.13" y2="414.21" stroke="#0ecb81" stroke-width="1.4" /><rect x="831.13" y="378.19" width="6" height="15.25" rx="1.5" fill="#0ecb81" /><line x1="844.86" y1="354.55" x2="844.86" y2="399.63" stroke="#0ecb81" stroke-width="1.4" /><rect x="841.86" y="360.07" width="6" height="17.90" rx="1.5" fill="#0ecb81" /><line x1="855.59" y1="337.09" x2="855.59" y2="384.38" stroke="#0ecb81" stroke-width="1.4" /><rect x="852.59" y="343.50" width="6" height="16.79" rx="1.5" fill="#0ecb81" /><line x1="866.33" y1="277.87" x2="866.33" y2="350.13" stroke="#0ecb81" stroke-width="1.4" /><rect x="863.33" y="327.15" width="6" height="16.13" rx="1.5" fill="#0ecb81" /><line x1="877.06" y1="287.59" x2="877.06" y2="330.24" stroke="#0ecb81" stroke-width="1.4" /><rect x="874.06" y="325.60" width="6" height="2.00" rx="1.5" fill="#0ecb81" /><line x1="887.80" y1="313.67" x2="887.80" y2="353.44" stroke="#f6465d" stroke-width="1.4" /><rect x="884.80" y="325.82" width="6" height="4.64" rx="1.5" fill="#f6465d" /><line x1="898.53" y1="316.10" x2="898.53" y2="346.37" stroke="#f6465d" stroke-width="1.4" /><rect x="895.53" y="330.46" width="6" height="2.21" rx="1.5" fill="#f6465d" /><line x1="909.27" y1="291.13" x2="909.27" y2="352.78" stroke="#0ecb81" stroke-width="1.4" /><rect x="906.27" y="299.75" width="6" height="32.93" rx="1.5" fill="#0ecb81" /><line x1="920.00" y1="285.38" x2="920.00" y2="326.71" stroke="#f6465d" stroke-width="1.4" /><rect x="917.00" y="299.75" width="6" height="19.00" rx="1.5" fill="#f6465d" />
  <polyline points="383.29,300.19 501.37,75.46 576.51,334.66 608.71,223.29 801.92,452.00" fill="none" stroke="#2fc273" stroke-width="4" stroke-linecap="round" stroke-linejoin="round" />
  <circle cx="383.29" cy="300.19" r="5.5" fill="#2fc273" fill-opacity="0.15" stroke="#2fc273" stroke-width="2" /><text x="383.29" y="288.19" fill="#f3f4f6" font-size="15" font-weight="700" text-anchor="middle">X</text><circle cx="501.37" cy="75.46" r="5.5" fill="#2fc273" fill-opacity="0.15" stroke="#2fc273" stroke-width="2" /><text x="501.37" y="63.46" fill="#f3f4f6" font-size="15" font-weight="700" text-anchor="middle">A</text><circle cx="576.51" cy="334.66" r="5.5" fill="#2fc273" fill-opacity="0.15" stroke="#2fc273" stroke-width="2" /><text x="576.51" y="322.66" fill="#f3f4f6" font-size="15" font-weight="700" text-anchor="middle">B</text><circle cx="608.71" cy="223.29" r="5.5" fill="#2fc273" fill-opacity="0.15" stroke="#2fc273" stroke-width="2" /><text x="608.71" y="211.29" fill="#f3f4f6" font-size="15" font-weight="700" text-anchor="middle">C</text><circle cx="801.92" cy="452.00" r="5.5" fill="#2fc273" fill-opacity="0.15" stroke="#2fc273" stroke-width="2" /><text x="801.92" y="440.00" fill="#f3f4f6" font-size="15" font-weight="700" text-anchor="middle">D</text>
  <text x="56" y="492" fill="#8ba0b5" font-size="18">Complete · TP1 0.083214 · TP2 0.085656 · SL 0.077938</text>
</svg>
