<svg xmlns="http://www.w3.org/2000/svg" width="960" height="540" viewBox="0 0 960 540">
  <rect width="960" height="540" rx="24" fill="#0b1220" />
  <rect x="28" y="28" width="904" height="484" rx="22" fill="#111827" stroke="#1f2937" />
  <text x="56" y="74" fill="#f3f4f6" font-size="34" font-weight="700">XRPUSDT · AB=CD</text>
  <text x="904" y="74" fill="#8ba0b5" font-size="20" text-anchor="end">Bearish (매도) · Score 84.1</text>
  <line x1="72" y1="58" x2="920" y2="58" stroke="#223045" stroke-width="1" stroke-dasharray="4 8" /><line x1="72" y1="156" x2="920" y2="156" stroke="#223045" stroke-width="1" stroke-dasharray="4 8" /><line x1="72" y1="255" x2="920" y2="255" stroke="#223045" stroke-width="1" stroke-dasharray="4 8" /><line x1="72" y1="353" x2="920" y2="353" stroke="#223045" stroke-width="1" stroke-dasharray="4 8" /><line x1="72" y1="452" x2="920" y2="452" stroke="#223045" stroke-width="1" stroke-dasharray="4 8" />
  <rect x="612.91" y="100.92" width="84" height="112.50" fill="#fbbf24" fill-opacity="0.12" stroke="#fbbf24" stroke-width="1.5" stroke-dasharray="6 6" />
  <line x1="72.00" y1="58.00" x2="72.00" y2="97.28" stroke="#f6465d" stroke-width="1.4" /><rect x="69.00" y="71.58" width="6" height="5.58" rx="1.5" fill="#f6465d" /><line x1="82.73" y1="69.88" x2="82.73" y2="136.07" stroke="#f6465d" stroke-width="1.4" /><rect x="79.73" y="77.15" width="6" height="43.40" rx="1.5" fill="#f6465d" /><line x1="93.47" y1="76.67" x2="93.47" y2="143.59" stroke="#0ecb81" stroke-width="1.4" /><rect x="90.47" y="79.82" width="6" height="40.49" rx="1.5" fill="#0ecb81" /><line x1="104.20" y1="74.49" x2="104.20" y2="123.71" stroke="#f6465d" stroke-width="1.4" /><rect x="101.20" y="79.82" width="6" height="19.64" rx="1.5" fill="#f6465d" /><line x1="114.94" y1="98.49" x2="114.94" y2="167.11" stroke="#f6465d" stroke-width="1.4" /><rect x="111.94" y="99.46" width="6" height="54.31" rx="1.5" fill="#f6465d" /><line x1="125.67" y1="146.01" x2="125.67" y2="195.96" stroke="#f6465d" stroke-width="1.4" /><rect x="122.67" y="153.53" width="6" height="31.28" rx="1.5" fill="#f6465d" /><line x1="136.41" y1="111.58" x2="136.41" y2="189.17" stroke="#0ecb81" stroke-width="1.4" /><rect x="133.41" y="117.16" width="6" height="67.89" rx="1.5" fill="#0ecb81" /><line x1="147.14" y1="94.85" x2="147.14" y2="138.25" stroke="#f6465d" stroke-width="1.4" /><rect x="144.14" y="117.16" width="6" height="5.58" rx="1.5" fill="#f6465d" /><line x1="157.87" y1="91.22" x2="157.87" y2="128.56" stroke="#0ecb81" stroke-width="1.4" /><rect x="154.87" y="106.98" width="6" height="15.76" rx="1.5" fill="#0ecb81" /><line x1="168.61" y1="63.58" x2="168.61" y2="124.68" stroke="#0ecb81" stroke-width="1.4" /><rect x="165.61" y="85.88" width="6" height="21.09" rx="1.5" fill="#0ecb81" /><line x1="179.34" y1="77.40" x2="179.34" y2="151.35" stroke="#f6465d" stroke-width="1.4" /><rect x="176.34" y="85.88" width="6" height="51.89" rx="1.5" fill="#f6465d" /><line x1="190.08" y1="103.34" x2="190.08" y2="144.07" stroke="#0ecb81" stroke-width="1.4" /><rect x="187.08" y="126.37" width="6" height="11.40" rx="1.5" fill="#0ecb81" /><line x1="200.81" y1="100.92" x2="200.81" y2="131.95" stroke="#0ecb81" stroke-width="1.4" /><rect x="197.81" y="120.31" width="6" height="6.30" rx="1.5" fill="#0ecb81" /><line x1="211.54" y1="115.22" x2="211.54" y2="164.93" stroke="#f6465d" stroke-width="1.4" /><rect x="208.54" y="120.56" width="6" height="30.79" rx="1.5" fill="#f6465d" /><line x1="222.28" y1="142.38" x2="222.28" y2="205.66" stroke="#f6465d" stroke-width="1.4" /><rect x="219.28" y="151.35" width="6" height="39.04" rx="1.5" fill="#f6465d" /><line x1="233.01" y1="188.20" x2="233.01" y2="234.03" stroke="#f6465d" stroke-width="1.4" /><rect x="230.01" y="190.38" width="6" height="34.91" rx="1.5" fill="#f6465d" /><line x1="243.75" y1="197.17" x2="243.75" y2="269.91" stroke="#f6465d" stroke-width="1.4" /><rect x="240.75" y="225.54" width="6" height="25.70" rx="1.5" fill="#f6465d" /><line x1="254.48" y1="237.66" x2="254.48" y2="311.61" stroke="#f6465d" stroke-width="1.4" /><rect x="251.48" y="251.00" width="6" height="40.73" rx="1.5" fill="#f6465d" /><line x1="265.22" y1="226.75" x2="265.22" y2="291.73" stroke="#0ecb81" stroke-width="1.4" /><rect x="262.22" y="251.00" width="6" height="40.73" rx="1.5" fill="#0ecb81" /><line x1="275.95" y1="221.66" x2="275.95" y2="258.03" stroke="#0ecb81" stroke-width="1.4" /><rect x="272.95" y="242.51" width="6" height="8.49" rx="1.5" fill="#0ecb81" /><line x1="286.68" y1="231.36" x2="286.68" y2="262.64" stroke="#f6465d" stroke-width="1.4" /><rect x="283.68" y="242.76" width="6" height="12.37" rx="1.5" fill="#f6465d" /><line x1="297.42" y1="249.30" x2="297.42" y2="335.62" stroke="#f6465d" stroke-width="1.4" /><rect x="294.42" y="255.12" width="6" height="57.46" rx="1.5" fill="#f6465d" /><line x1="308.15" y1="287.37" x2="308.15" y2="334.65" stroke="#0ecb81" stroke-width="1.4" /><rect x="305.15" y="312.10" width="6" height="2.00" rx="1.5" fill="#0ecb81" /><line x1="318.89" y1="307.49" x2="318.89" y2="354.29" stroke="#f6465d" stroke-width="1.4" /><rect x="315.89" y="311.86" width="6" height="25.70" rx="1.5" fill="#f6465d" /><line x1="329.62" y1="319.13" x2="329.62" y2="348.95" stroke="#0ecb81" stroke-width="1.4" /><rect x="326.62" y="335.62" width="6" height="2.18" rx="1.5" fill="#0ecb81" /><line x1="340.35" y1="326.40" x2="340.35" y2="352.35" stroke="#0ecb81" stroke-width="1.4" /><rect x="337.35" y="331.98" width="6" height="3.64" rx="1.5" fill="#0ecb81" /><line x1="351.09" y1="295.61" x2="351.09" y2="335.38" stroke="#0ecb81" stroke-width="1.4" /><rect x="348.09" y="298.76" width="6" height="33.46" rx="1.5" fill="#0ecb81" /><line x1="361.82" y1="293.19" x2="361.82" y2="314.04" stroke="#f6465d" stroke-width="1.4" /><rect x="358.82" y="298.52" width="6" height="2.18" rx="1.5" fill="#f6465d" /><line x1="372.56" y1="256.33" x2="372.56" y2="310.40" stroke="#0ecb81" stroke-width="1.4" /><rect x="369.56" y="268.70" width="6" height="31.76" rx="1.5" fill="#0ecb81" /><line x1="383.29" y1="265.79" x2="383.29" y2="296.82" stroke="#f6465d" stroke-width="1.4" /><rect x="380.29" y="268.70" width="6" height="20.37" rx="1.5" fill="#f6465d" /><line x1="394.03" y1="281.06" x2="394.03" y2="323.01" stroke="#f6465d" stroke-width="1.4" /><rect x="391.03" y="289.07" width="6" height="27.88" rx="1.5" fill="#f6465d" /><line x1="404.76" y1="296.10" x2="404.76" y2="325.68" stroke="#0ecb81" stroke-width="1.4" /><rect x="401.76" y="304.58" width="6" height="12.37" rx="1.5" fill="#0ecb81" /><line x1="415.49" y1="293.19" x2="415.49" y2="329.80" stroke="#f6465d" stroke-width="1.4" /><rect x="412.49" y="304.58" width="6" height="10.91" rx="1.5" fill="#f6465d" /><line x1="426.23" y1="298.76" x2="426.23" y2="323.01" stroke="#0ecb81" stroke-width="1.4" /><rect x="423.23" y="305.55" width="6" height="9.94" rx="1.5" fill="#0ecb81" /><line x1="436.96" y1="305.07" x2="436.96" y2="347.50" stroke="#f6465d" stroke-width="1.4" /><rect x="433.96" y="305.31" width="6" height="30.55" rx="1.5" fill="#f6465d" /><line x1="447.70" y1="326.89" x2="447.70" y2="359.38" stroke="#f6465d" stroke-width="1.4" /><rect x="444.70" y="335.86" width="6" height="18.91" rx="1.5" fill="#f6465d" /><line x1="458.43" y1="318.89" x2="458.43" y2="411.51" stroke="#0ecb81" stroke-width="1.4" /><rect x="455.43" y="330.53" width="6" height="24.00" rx="1.5" fill="#0ecb81" /><line x1="469.16" y1="262.88" x2="469.16" y2="339.01" stroke="#0ecb81" stroke-width="1.4" /><rect x="466.16" y="271.85" width="6" height="58.68" rx="1.5" fill="#0ecb81" /><line x1="479.90" y1="248.82" x2="479.90" y2="283.97" stroke="#0ecb81" stroke-width="1.4" /><rect x="476.90" y="256.33" width="6" height="15.52" rx="1.5" fill="#0ecb81" /><line x1="490.63" y1="235.48" x2="490.63" y2="289.31" stroke="#f6465d" stroke-width="1.4" /><rect x="487.63" y="256.33" width="6" height="19.64" rx="1.5" fill="#f6465d" /><line x1="501.37" y1="260.94" x2="501.37" y2="312.83" stroke="#f6465d" stroke-width="1.4" /><rect x="498.37" y="276.22" width="6" height="11.88" rx="1.5" fill="#f6465d" /><line x1="512.10" y1="287.37" x2="512.10" y2="358.41" stroke="#f6465d" stroke-width="1.4" /><rect x="509.10" y="287.85" width="6" height="54.80" rx="1.5" fill="#f6465d" /><line x1="522.84" y1="314.28" x2="522.84" y2="349.68" stroke="#0ecb81" stroke-width="1.4" /><rect x="519.84" y="339.26" width="6" height="3.39" rx="1.5" fill="#0ecb81" /><line x1="533.57" y1="281.06" x2="533.57" y2="351.62" stroke="#0ecb81" stroke-width="1.4" /><rect x="530.57" y="335.13" width="6" height="4.12" rx="1.5" fill="#0ecb81" /><line x1="544.30" y1="325.92" x2="544.30" y2="364.47" stroke="#f6465d" stroke-width="1.4" /><rect x="541.30" y="335.38" width="6" height="15.52" rx="1.5" fill="#f6465d" /><line x1="555.04" y1="340.71" x2="555.04" y2="389.44" stroke="#f6465d" stroke-width="1.4" /><rect x="552.04" y="351.14" width="6" height="11.15" rx="1.5" fill="#f6465d" /><line x1="565.77" y1="303.61" x2="565.77" y2="370.53" stroke="#0ecb81" stroke-width="1.4" /><rect x="562.77" y="360.83" width="6" height="2.00" rx="1.5" fill="#0ecb81" /><line x1="576.51" y1="283.97" x2="576.51" y2="363.26" stroke="#0ecb81" stroke-width="1.4" /><rect x="573.51" y="288.82" width="6" height="72.25" rx="1.5" fill="#0ecb81" /><line x1="587.24" y1="275.97" x2="587.24" y2="318.89" stroke="#f6465d" stroke-width="1.4" /><rect x="584.24" y="288.58" width="6" height="9.70" rx="1.5" fill="#f6465d" /><line x1="597.97" y1="272.82" x2="597.97" y2="322.28" stroke="#0ecb81" stroke-width="1.4" /><rect x="594.97" y="281.06" width="6" height="17.21" rx="1.5" fill="#0ecb81" /><line x1="608.71" y1="233.78" x2="608.71" y2="310.40" stroke="#0ecb81" stroke-width="1.4" /><rect x="605.71" y="260.46" width="6" height="20.85" rx="1.5" fill="#0ecb81" /><line x1="619.44" y1="255.61" x2="619.44" y2="278.88" stroke="#f6465d" stroke-width="1.4" /><rect x="616.44" y="260.46" width="6" height="5.82" rx="1.5" fill="#f6465d" /><line x1="630.18" y1="250.03" x2="630.18" y2="289.31" stroke="#0ecb81" stroke-width="1.4" /><rect x="627.18" y="258.27" width="6" height="8.00" rx="1.5" fill="#0ecb81" /><line x1="640.91" y1="231.60" x2="640.91" y2="285.91" stroke="#f6465d" stroke-width="1.4" /><rect x="637.91" y="258.27" width="6" height="16.97" rx="1.5" fill="#f6465d" /><line x1="651.65" y1="259.49" x2="651.65" y2="295.85" stroke="#f6465d" stroke-width="1.4" /><rect x="648.65" y="275.25" width="6" height="6.79" rx="1.5" fill="#f6465d" /><line x1="662.38" y1="259.73" x2="662.38" y2="382.90" stroke="#f6465d" stroke-width="1.4" /><rect x="659.38" y="282.03" width="6" height="85.10" rx="1.5" fill="#f6465d" /><line x1="673.11" y1="348.71" x2="673.11" y2="386.54" stroke="#0ecb81" stroke-width="1.4" /><rect x="670.11" y="355.74" width="6" height="11.64" rx="1.5" fill="#0ecb81" /><line x1="683.85" y1="355.74" x2="683.85" y2="401.81" stroke="#f6465d" stroke-width="1.4" /><rect x="680.85" y="355.74" width="6" height="42.67" rx="1.5" fill="#f6465d" /><line x1="694.58" y1="389.93" x2="694.58" y2="446.91" stroke="#0ecb81" stroke-width="1.4" /><rect x="691.58" y="398.66" width="6" height="2.00" rx="1.5" fill="#0ecb81" /><line x1="705.32" y1="370.53" x2="705.32" y2="410.54" stroke="#0ecb81" stroke-width="1.4" /><rect x="702.32" y="378.29" width="6" height="20.37" rx="1.5" fill="#0ecb81" /><line x1="716.05" y1="343.38" x2="716.05" y2="386.05" stroke="#0ecb81" stroke-width="1.4" /><rect x="713.05" y="349.68" width="6" height="28.85" rx="1.5" fill="#0ecb81" /><line x1="726.78" y1="340.23" x2="726.78" y2="389.93" stroke="#0ecb81" stroke-width="1.4" /><rect x="723.78" y="345.32" width="6" height="4.36" rx="1.5" fill="#0ecb81" /><line x1="737.52" y1="334.16" x2="737.52" y2="363.02" stroke="#f6465d" stroke-width="1.4" /><rect x="734.52" y="345.32" width="6" height="7.27" rx="1.5" fill="#f6465d" /><line x1="748.25" y1="338.29" x2="748.25" y2="375.38" stroke="#0ecb81" stroke-width="1.4" /><rect x="745.25" y="348.47" width="6" height="3.88" rx="1.5" fill="#0ecb81" /><line x1="758.99" y1="309.92" x2="758.99" y2="362.77" stroke="#f6465d" stroke-width="1.4" /><rect x="755.99" y="348.47" width="6" height="4.61" rx="1.5" fill="#f6465d" /><line x1="769.72" y1="336.35" x2="769.72" y2="365.44" stroke="#f6465d" stroke-width="1.4" /><rect x="766.72" y="353.08" width="6" height="2.00" rx="1.5" fill="#f6465d" /><line x1="780.46" y1="343.62" x2="780.46" y2="368.11" stroke="#0ecb81" stroke-width="1.4" /><rect x="777.46" y="353.32" width="6" height="2.00" rx="1.5" fill="#0ecb81" /><line x1="791.19" y1="351.38" x2="791.19" y2="365.68" stroke="#f6465d" stroke-width="1.4" /><rect x="788.19" y="353.56" width="6" height="5.58" rx="1.5" fill="#f6465d" /><line x1="801.92" y1="347.74" x2="801.92" y2="361.32" stroke="#0ecb81" stroke-width="1.4" /><rect x="798.92" y="359.38" width="6" height="2.00" rx="1.5" fill="#0ecb81" /><line x1="812.66" y1="357.92" x2="812.66" y2="381.93" stroke="#f6465d" stroke-width="1.4" /><rect x="809.66" y="359.14" width="6" height="9.70" rx="1.5" fill="#f6465d" /><line x1="823.39" y1="357.20" x2="823.39" y2="382.66" stroke="#0ecb81" stroke-width="1.4" /><rect x="820.39" y="367.38" width="6" height="2.00" rx="1.5" fill="#0ecb81" /><line x1="834.13" y1="342.89" x2="834.13" y2="372.72" stroke="#0ecb81" stroke-width="1.4" /><rect x="831.13" y="355.50" width="6" height="11.64" rx="1.5" fill="#0ecb81" /><line x1="844.86" y1="352.35" x2="844.86" y2="365.68" stroke="#f6465d" stroke-width="1.4" /><rect x="841.86" y="355.26" width="6" height="5.82" rx="1.5" fill="#f6465d" /><line x1="855.59" y1="350.17" x2="855.59" y2="373.93" stroke="#f6465d" stroke-width="1.4" /><rect x="852.59" y="361.08" width="6" height="4.85" rx="1.5" fill="#f6465d" /><line x1="866.33" y1="359.62" x2="866.33" y2="409.57" stroke="#f6465d" stroke-width="1.4" /><rect x="863.33" y="366.17" width="6" height="37.58" rx="1.5" fill="#f6465d" /><line x1="877.06" y1="388.23" x2="877.06" y2="405.93" stroke="#0ecb81" stroke-width="1.4" /><rect x="874.06" y="401.33" width="6" height="2.42" rx="1.5" fill="#0ecb81" /><line x1="887.80" y1="382.41" x2="887.80" y2="452.00" stroke="#f6465d" stroke-width="1.4" /><rect x="884.80" y="401.33" width="6" height="5.33" rx="1.5" fill="#f6465d" /><line x1="898.53" y1="379.50" x2="898.53" y2="406.66" stroke="#0ecb81" stroke-width="1.4" /><rect x="895.53" y="396.96" width="6" height="9.70" rx="1.5" fill="#0ecb81" /><line x1="909.27" y1="319.13" x2="909.27" y2="405.20" stroke="#0ecb81" stroke-width="1.4" /><rect x="906.27" y="333.44" width="6" height="63.52" rx="1.5" fill="#0ecb81" /><line x1="920.00" y1="278.40" x2="920.00" y2="334.89" stroke="#0ecb81" stroke-width="1.4" /><rect x="917.00" y="306.04" width="6" height="27.40" rx="1.5" fill="#0ecb81" />
  <polyline points="372.56,256.33 458.43,411.51 490.63,235.48 555.04,389.44 640.91,231.60" fill="none" stroke="#2fc273" stroke-width="4" stroke-linecap="round" stroke-linejoin="round" />
  <circle cx="372.56" cy="256.33" r="5.5" fill="#2fc273" fill-opacity="0.15" stroke="#2fc273" stroke-width="2" /><text x="372.56" y="244.33" fill="#f3f4f6" font-size="15" font-weight="700" text-anchor="middle">X</text><circle cx="458.43" cy="411.51" r="5.5" fill="#2fc273" fill-opacity="0.15" stroke="#2fc273" stroke-width="2" /><text x="458.43" y="399.51" fill="#f3f4f6" font-size="15" font-weight="700" text-anchor="middle">A</text><circle cx="490.63" cy="235.48" r="5.5" fill="#2fc273" fill-opacity="0.15" stroke="#2fc273" stroke-width="2" /><text x="490.63" y="223.48" fill="#f3f4f6" font-size="15" font-weight="700" text-anchor="middle">B</text><circle cx="555.04" cy="389.44" r="5.5" fill="#2fc273" fill-opacity="0.15" stroke="#2fc273" stroke-width="2" /><text x="555.04" y="377.44" fill="#f3f4f6" font-size="15" font-weight="700" text-anchor="middle">C</text><circle cx="640.91" cy="231.60" r="5.5" fill="#2fc273" fill-opacity="0.15" stroke="#2fc273" stroke-width="2" /><text x="640.91" y="219.60" fill="#f3f4f6" font-size="15" font-weight="700" text-anchor="middle">D</text>
  <text x="56" y="492" fill="#8ba0b5" font-size="18">일반 완성 · TP1 1.343 · TP2 1.3277 · SL 1.3762</text>
</svg>
