<svg xmlns="http://www.w3.org/2000/svg" width="960" height="540" viewBox="0 0 960 540">
  <rect width="960" height="540" rx="24" fill="#0b1220" />
  <rect x="28" y="28" width="904" height="484" rx="22" fill="#111827" stroke="#1f2937" />
  <text x="56" y="74" fill="#f3f4f6" font-size="34" font-weight="700">ZKUSDT · AB=CD</text>
  <text x="904" y="74" fill="#8ba0b5" font-size="20" text-anchor="end">Bearish (매도) · Score 79.6</text>
  <line x1="72" y1="58" x2="920" y2="58" stroke="#223045" stroke-width="1" stroke-dasharray="4 8" /><line x1="72" y1="156" x2="920" y2="156" stroke="#223045" stroke-width="1" stroke-dasharray="4 8" /><line x1="72" y1="255" x2="920" y2="255" stroke="#223045" stroke-width="1" stroke-dasharray="4 8" /><line x1="72" y1="353" x2="920" y2="353" stroke="#223045" stroke-width="1" stroke-dasharray="4 8" /><line x1="72" y1="452" x2="920" y2="452" stroke="#223045" stroke-width="1" stroke-dasharray="4 8" />
  <rect x="494.84" y="119.65" width="84" height="101.98" fill="#fbbf24" fill-opacity="0.12" stroke="#fbbf24" stroke-width="1.5" stroke-dasharray="6 6" />
  <line x1="72.00" y1="142.68" x2="72.00" y2="226.65" stroke="#0ecb81" stroke-width="1.4" /><rect x="69.00" y="172.11" width="6" height="27.99" rx="1.5" fill="#0ecb81" /><line x1="82.73" y1="131.20" x2="82.73" y2="178.57" stroke="#0ecb81" stroke-width="1.4" /><rect x="79.73" y="165.65" width="6" height="6.46" rx="1.5" fill="#0ecb81" /><line x1="93.47" y1="136.94" x2="93.47" y2="175.70" stroke="#0ecb81" stroke-width="1.4" /><rect x="90.47" y="151.30" width="6" height="13.64" rx="1.5" fill="#0ecb81" /><line x1="104.20" y1="140.53" x2="104.20" y2="158.47" stroke="#0ecb81" stroke-width="1.4" /><rect x="101.20" y="145.56" width="6" height="5.74" rx="1.5" fill="#0ecb81" /><line x1="114.94" y1="111.11" x2="114.94" y2="153.45" stroke="#0ecb81" stroke-width="1.4" /><rect x="111.94" y="124.03" width="6" height="21.53" rx="1.5" fill="#0ecb81" /><line x1="125.67" y1="93.17" x2="125.67" y2="139.10" stroke="#0ecb81" stroke-width="1.4" /><rect x="122.67" y="116.85" width="6" height="7.18" rx="1.5" fill="#0ecb81" /><line x1="136.41" y1="108.24" x2="136.41" y2="154.89" stroke="#f6465d" stroke-width="1.4" /><rect x="133.41" y="116.85" width="6" height="27.27" rx="1.5" fill="#f6465d" /><line x1="147.14" y1="136.23" x2="147.14" y2="159.19" stroke="#f6465d" stroke-width="1.4" /><rect x="144.14" y="144.12" width="6" height="2.00" rx="1.5" fill="#f6465d" /><line x1="157.87" y1="142.68" x2="157.87" y2="162.06" stroke="#f6465d" stroke-width="1.4" /><rect x="154.87" y="145.56" width="6" height="6.46" rx="1.5" fill="#f6465d" /><line x1="168.61" y1="118.28" x2="168.61" y2="154.17" stroke="#0ecb81" stroke-width="1.4" /><rect x="165.61" y="130.48" width="6" height="22.25" rx="1.5" fill="#0ecb81" /><line x1="179.34" y1="117.57" x2="179.34" y2="130.48" stroke="#0ecb81" stroke-width="1.4" /><rect x="176.34" y="123.31" width="6" height="7.18" rx="1.5" fill="#0ecb81" /><line x1="190.08" y1="114.70" x2="190.08" y2="127.61" stroke="#f6465d" stroke-width="1.4" /><rect x="187.08" y="122.59" width="6" height="2.00" rx="1.5" fill="#f6465d" /><line x1="200.81" y1="78.81" x2="200.81" y2="126.18" stroke="#0ecb81" stroke-width="1.4" /><rect x="197.81" y="83.84" width="6" height="39.47" rx="1.5" fill="#0ecb81" /><line x1="211.54" y1="73.07" x2="211.54" y2="106.80" stroke="#f6465d" stroke-width="1.4" /><rect x="208.54" y="83.84" width="6" height="3.59" rx="1.5" fill="#f6465d" /><line x1="222.28" y1="58.00" x2="222.28" y2="94.60" stroke="#0ecb81" stroke-width="1.4" /><rect x="219.28" y="64.46" width="6" height="22.97" rx="1.5" fill="#0ecb81" /><line x1="233.01" y1="63.74" x2="233.01" y2="93.17" stroke="#f6465d" stroke-width="1.4" /><rect x="230.01" y="64.46" width="6" height="16.51" rx="1.5" fill="#f6465d" /><line x1="243.75" y1="78.81" x2="243.75" y2="123.31" stroke="#f6465d" stroke-width="1.4" /><rect x="240.75" y="81.68" width="6" height="35.88" rx="1.5" fill="#f6465d" /><line x1="254.48" y1="116.13" x2="254.48" y2="140.53" stroke="#f6465d" stroke-width="1.4" /><rect x="251.48" y="117.57" width="6" height="17.22" rx="1.5" fill="#f6465d" /><line x1="265.22" y1="129.77" x2="265.22" y2="158.47" stroke="#f6465d" stroke-width="1.4" /><rect x="262.22" y="134.79" width="6" height="17.94" rx="1.5" fill="#f6465d" /><line x1="275.95" y1="132.64" x2="275.95" y2="155.60" stroke="#0ecb81" stroke-width="1.4" /><rect x="272.95" y="152.01" width="6" height="2.00" rx="1.5" fill="#0ecb81" /><line x1="286.68" y1="135.51" x2="286.68" y2="157.04" stroke="#f6465d" stroke-width="1.4" /><rect x="283.68" y="151.30" width="6" height="2.00" rx="1.5" fill="#f6465d" /><line x1="297.42" y1="128.33" x2="297.42" y2="155.60" stroke="#0ecb81" stroke-width="1.4" /><rect x="294.42" y="143.40" width="6" height="8.61" rx="1.5" fill="#0ecb81" /><line x1="308.15" y1="113.26" x2="308.15" y2="145.56" stroke="#0ecb81" stroke-width="1.4" /><rect x="305.15" y="141.25" width="6" height="2.00" rx="1.5" fill="#0ecb81" /><line x1="318.89" y1="139.81" x2="318.89" y2="154.17" stroke="#f6465d" stroke-width="1.4" /><rect x="315.89" y="141.25" width="6" height="6.46" rx="1.5" fill="#f6465d" /><line x1="329.62" y1="143.40" x2="329.62" y2="208.71" stroke="#f6465d" stroke-width="1.4" /><rect x="326.62" y="146.99" width="6" height="50.95" rx="1.5" fill="#f6465d" /><line x1="340.35" y1="186.46" x2="340.35" y2="220.91" stroke="#f6465d" stroke-width="1.4" /><rect x="337.35" y="197.95" width="6" height="14.35" rx="1.5" fill="#f6465d" /><line x1="351.09" y1="207.99" x2="351.09" y2="234.55" stroke="#0ecb81" stroke-width="1.4" /><rect x="348.09" y="210.86" width="6" height="2.00" rx="1.5" fill="#0ecb81" /><line x1="361.82" y1="204.40" x2="361.82" y2="215.89" stroke="#0ecb81" stroke-width="1.4" /><rect x="358.82" y="210.86" width="6" height="2.00" rx="1.5" fill="#0ecb81" /><line x1="372.56" y1="210.86" x2="372.56" y2="234.55" stroke="#f6465d" stroke-width="1.4" /><rect x="369.56" y="210.86" width="6" height="12.92" rx="1.5" fill="#f6465d" /><line x1="383.29" y1="201.53" x2="383.29" y2="225.93" stroke="#0ecb81" stroke-width="1.4" /><rect x="380.29" y="204.40" width="6" height="19.38" rx="1.5" fill="#0ecb81" /><line x1="394.03" y1="197.23" x2="394.03" y2="217.32" stroke="#f6465d" stroke-width="1.4" /><rect x="391.03" y="204.40" width="6" height="10.05" rx="1.5" fill="#f6465d" /><line x1="404.76" y1="188.62" x2="404.76" y2="221.63" stroke="#0ecb81" stroke-width="1.4" /><rect x="401.76" y="205.12" width="6" height="8.61" rx="1.5" fill="#0ecb81" /><line x1="415.49" y1="198.66" x2="415.49" y2="209.43" stroke="#f6465d" stroke-width="1.4" /><rect x="412.49" y="205.12" width="6" height="2.15" rx="1.5" fill="#f6465d" /><line x1="426.23" y1="203.69" x2="426.23" y2="230.24" stroke="#f6465d" stroke-width="1.4" /><rect x="423.23" y="206.56" width="6" height="20.81" rx="1.5" fill="#f6465d" /><line x1="436.96" y1="207.28" x2="436.96" y2="230.96" stroke="#0ecb81" stroke-width="1.4" /><rect x="433.96" y="208.71" width="6" height="18.66" rx="1.5" fill="#0ecb81" /><line x1="447.70" y1="205.12" x2="447.70" y2="222.35" stroke="#f6465d" stroke-width="1.4" /><rect x="444.70" y="208.71" width="6" height="12.92" rx="1.5" fill="#f6465d" /><line x1="458.43" y1="214.45" x2="458.43" y2="229.52" stroke="#0ecb81" stroke-width="1.4" /><rect x="455.43" y="221.63" width="6" height="2.00" rx="1.5" fill="#0ecb81" /><line x1="469.16" y1="221.63" x2="469.16" y2="238.13" stroke="#f6465d" stroke-width="1.4" /><rect x="466.16" y="222.35" width="6" height="4.31" rx="1.5" fill="#f6465d" /><line x1="479.90" y1="221.63" x2="479.90" y2="235.26" stroke="#f6465d" stroke-width="1.4" /><rect x="476.90" y="227.37" width="6" height="5.74" rx="1.5" fill="#f6465d" /><line x1="490.63" y1="225.22" x2="490.63" y2="267.56" stroke="#f6465d" stroke-width="1.4" /><rect x="487.63" y="233.11" width="6" height="5.74" rx="1.5" fill="#f6465d" /><line x1="501.37" y1="206.56" x2="501.37" y2="240.29" stroke="#0ecb81" stroke-width="1.4" /><rect x="498.37" y="208.71" width="6" height="29.42" rx="1.5" fill="#0ecb81" /><line x1="512.10" y1="175.70" x2="512.10" y2="208.71" stroke="#0ecb81" stroke-width="1.4" /><rect x="509.10" y="179.29" width="6" height="29.42" rx="1.5" fill="#0ecb81" /><line x1="522.84" y1="167.09" x2="522.84" y2="198.66" stroke="#0ecb81" stroke-width="1.4" /><rect x="519.84" y="173.54" width="6" height="5.02" rx="1.5" fill="#0ecb81" /><line x1="533.57" y1="170.67" x2="533.57" y2="201.53" stroke="#f6465d" stroke-width="1.4" /><rect x="530.57" y="173.54" width="6" height="23.68" rx="1.5" fill="#f6465d" /><line x1="544.30" y1="194.36" x2="544.30" y2="228.81" stroke="#f6465d" stroke-width="1.4" /><rect x="541.30" y="197.23" width="6" height="25.84" rx="1.5" fill="#f6465d" /><line x1="555.04" y1="208.71" x2="555.04" y2="227.37" stroke="#0ecb81" stroke-width="1.4" /><rect x="552.04" y="220.91" width="6" height="2.15" rx="1.5" fill="#0ecb81" /><line x1="565.77" y1="190.05" x2="565.77" y2="223.06" stroke="#0ecb81" stroke-width="1.4" /><rect x="562.77" y="206.56" width="6" height="13.64" rx="1.5" fill="#0ecb81" /><line x1="576.51" y1="205.12" x2="576.51" y2="217.32" stroke="#f6465d" stroke-width="1.4" /><rect x="573.51" y="206.56" width="6" height="2.15" rx="1.5" fill="#f6465d" /><line x1="587.24" y1="206.56" x2="587.24" y2="238.85" stroke="#0ecb81" stroke-width="1.4" /><rect x="584.24" y="208.71" width="6" height="2.00" rx="1.5" fill="#0ecb81" /><line x1="597.97" y1="196.51" x2="597.97" y2="223.78" stroke="#f6465d" stroke-width="1.4" /><rect x="594.97" y="208.71" width="6" height="9.33" rx="1.5" fill="#f6465d" /><line x1="608.71" y1="192.92" x2="608.71" y2="220.91" stroke="#0ecb81" stroke-width="1.4" /><rect x="605.71" y="207.28" width="6" height="10.77" rx="1.5" fill="#0ecb81" /><line x1="619.44" y1="195.79" x2="619.44" y2="214.45" stroke="#0ecb81" stroke-width="1.4" /><rect x="616.44" y="198.66" width="6" height="8.61" rx="1.5" fill="#0ecb81" /><line x1="630.18" y1="179.29" x2="630.18" y2="203.69" stroke="#0ecb81" stroke-width="1.4" /><rect x="627.18" y="182.16" width="6" height="15.79" rx="1.5" fill="#0ecb81" /><line x1="640.91" y1="154.89" x2="640.91" y2="182.87" stroke="#0ecb81" stroke-width="1.4" /><rect x="637.91" y="158.47" width="6" height="24.40" rx="1.5" fill="#0ecb81" /><line x1="651.65" y1="151.30" x2="651.65" y2="176.42" stroke="#f6465d" stroke-width="1.4" /><rect x="648.65" y="158.47" width="6" height="8.61" rx="1.5" fill="#f6465d" /><line x1="662.38" y1="156.32" x2="662.38" y2="186.46" stroke="#f6465d" stroke-width="1.4" /><rect x="659.38" y="167.09" width="6" height="6.46" rx="1.5" fill="#f6465d" /><line x1="673.11" y1="166.37" x2="673.11" y2="197.95" stroke="#f6465d" stroke-width="1.4" /><rect x="670.11" y="172.83" width="6" height="19.38" rx="1.5" fill="#f6465d" /><line x1="683.85" y1="190.77" x2="683.85" y2="204.40" stroke="#f6465d" stroke-width="1.4" /><rect x="680.85" y="192.20" width="6" height="7.89" rx="1.5" fill="#f6465d" /><line x1="694.58" y1="180.00" x2="694.58" y2="247.46" stroke="#f6465d" stroke-width="1.4" /><rect x="691.58" y="200.10" width="6" height="40.91" rx="1.5" fill="#f6465d" /><line x1="705.32" y1="223.78" x2="705.32" y2="247.46" stroke="#0ecb81" stroke-width="1.4" /><rect x="702.32" y="225.93" width="6" height="15.79" rx="1.5" fill="#0ecb81" /><line x1="716.05" y1="225.93" x2="716.05" y2="244.59" stroke="#f6465d" stroke-width="1.4" /><rect x="713.05" y="225.93" width="6" height="10.77" rx="1.5" fill="#f6465d" /><line x1="726.78" y1="227.37" x2="726.78" y2="252.49" stroke="#0ecb81" stroke-width="1.4" /><rect x="723.78" y="235.26" width="6" height="2.00" rx="1.5" fill="#0ecb81" /><line x1="737.52" y1="225.93" x2="737.52" y2="247.46" stroke="#f6465d" stroke-width="1.4" /><rect x="734.52" y="235.98" width="6" height="8.61" rx="1.5" fill="#f6465d" /><line x1="748.25" y1="236.70" x2="748.25" y2="250.34" stroke="#0ecb81" stroke-width="1.4" /><rect x="745.25" y="243.16" width="6" height="2.00" rx="1.5" fill="#0ecb81" /><line x1="758.99" y1="234.55" x2="758.99" y2="252.49" stroke="#0ecb81" stroke-width="1.4" /><rect x="755.99" y="236.70" width="6" height="5.74" rx="1.5" fill="#0ecb81" /><line x1="769.72" y1="228.09" x2="769.72" y2="252.49" stroke="#f6465d" stroke-width="1.4" /><rect x="766.72" y="235.98" width="6" height="15.79" rx="1.5" fill="#f6465d" /><line x1="780.46" y1="245.31" x2="780.46" y2="276.89" stroke="#f6465d" stroke-width="1.4" /><rect x="777.46" y="251.05" width="6" height="9.33" rx="1.5" fill="#f6465d" /><line x1="791.19" y1="254.64" x2="791.19" y2="307.75" stroke="#f6465d" stroke-width="1.4" /><rect x="788.19" y="259.66" width="6" height="43.78" rx="1.5" fill="#f6465d" /><line x1="801.92" y1="299.85" x2="801.92" y2="332.15" stroke="#f6465d" stroke-width="1.4" /><rect x="798.92" y="303.44" width="6" height="24.40" rx="1.5" fill="#f6465d" /><line x1="812.66" y1="323.54" x2="812.66" y2="364.44" stroke="#f6465d" stroke-width="1.4" /><rect x="809.66" y="327.84" width="6" height="26.55" rx="1.5" fill="#f6465d" /><line x1="823.39" y1="353.68" x2="823.39" y2="424.01" stroke="#f6465d" stroke-width="1.4" /><rect x="820.39" y="354.40" width="6" height="48.08" rx="1.5" fill="#f6465d" /><line x1="834.13" y1="357.99" x2="834.13" y2="452.00" stroke="#0ecb81" stroke-width="1.4" /><rect x="831.13" y="358.70" width="6" height="44.50" rx="1.5" fill="#0ecb81" /><line x1="844.86" y1="339.33" x2="844.86" y2="375.93" stroke="#f6465d" stroke-width="1.4" /><rect x="841.86" y="358.70" width="6" height="15.07" rx="1.5" fill="#f6465d" /><line x1="855.59" y1="346.50" x2="855.59" y2="375.21" stroke="#0ecb81" stroke-width="1.4" /><rect x="852.59" y="368.03" width="6" height="6.46" rx="1.5" fill="#0ecb81" /><line x1="866.33" y1="351.53" x2="866.33" y2="380.23" stroke="#0ecb81" stroke-width="1.4" /><rect x="863.33" y="357.99" width="6" height="10.77" rx="1.5" fill="#0ecb81" /><line x1="877.06" y1="327.13" x2="877.06" y2="360.14" stroke="#0ecb81" stroke-width="1.4" /><rect x="874.06" y="350.81" width="6" height="7.89" rx="1.5" fill="#0ecb81" /><line x1="887.80" y1="237.42" x2="887.80" y2="351.53" stroke="#0ecb81" stroke-width="1.4" /><rect x="884.80" y="297.70" width="6" height="52.39" rx="1.5" fill="#0ecb81" /><line x1="898.53" y1="295.55" x2="898.53" y2="341.48" stroke="#f6465d" stroke-width="1.4" /><rect x="895.53" y="297.70" width="6" height="37.32" rx="1.5" fill="#f6465d" /><line x1="909.27" y1="332.87" x2="909.27" y2="370.90" stroke="#f6465d" stroke-width="1.4" /><rect x="906.27" y="335.02" width="6" height="22.25" rx="1.5" fill="#f6465d" /><line x1="920.00" y1="357.27" x2="920.00" y2="389.56" stroke="#f6465d" stroke-width="1.4" /><rect x="917.00" y="357.99" width="6" height="27.27" rx="1.5" fill="#f6465d" />
  <polyline points="308.15,113.26 372.56,234.55 404.76,188.62 490.63,267.56 522.84,167.09" fill="none" stroke="#2fc273" stroke-width="4" stroke-linecap="round" stroke-linejoin="round" />
  <circle cx="308.15" cy="113.26" r="5.5" fill="#2fc273" fill-opacity="0.15" stroke="#2fc273" stroke-width="2" /><text x="308.15" y="101.26" fill="#f3f4f6" font-size="15" font-weight="700" text-anchor="middle">X</text><circle cx="372.56" cy="234.55" r="5.5" fill="#2fc273" fill-opacity="0.15" stroke="#2fc273" stroke-width="2" /><text x="372.56" y="222.55" fill="#f3f4f6" font-size="15" font-weight="700" text-anchor="middle">A</text><circle cx="404.76" cy="188.62" r="5.5" fill="#2fc273" fill-opacity="0.15" stroke="#2fc273" stroke-width="2" /><text x="404.76" y="176.62" fill="#f3f4f6" font-size="15" font-weight="700" text-anchor="middle">B</text><circle cx="490.63" cy="267.56" r="5.5" fill="#2fc273" fill-opacity="0.15" stroke="#2fc273" stroke-width="2" /><text x="490.63" y="255.56" fill="#f3f4f6" font-size="15" font-weight="700" text-anchor="middle">C</text><circle cx="522.84" cy="167.09" r="5.5" fill="#2fc273" fill-opacity="0.15" stroke="#2fc273" stroke-width="2" /><text x="522.84" y="155.09" fill="#f3f4f6" font-size="15" font-weight="700" text-anchor="middle">D</text>
  <text x="56" y="492" fill="#8ba0b5" font-size="18">일반 완성 · TP1 0.017365 · TP2 0.017035 · SL 0.01812</text>
</svg>
