<svg xmlns="http://www.w3.org/2000/svg" width="960" height="540" viewBox="0 0 960 540">
  <rect width="960" height="540" rx="24" fill="#0b1220" />
  <rect x="28" y="28" width="904" height="484" rx="22" fill="#111827" stroke="#1f2937" />
  <text x="56" y="74" fill="#f3f4f6" font-size="34" font-weight="700">币安人生USDT · AB=CD</text>
  <text x="904" y="74" fill="#8ba0b5" font-size="20" text-anchor="end">Bearish (매도) · Score 74.8</text>
  <line x1="72" y1="58" x2="920" y2="58" stroke="#223045" stroke-width="1" stroke-dasharray="4 8" /><line x1="72" y1="156" x2="920" y2="156" stroke="#223045" stroke-width="1" stroke-dasharray="4 8" /><line x1="72" y1="255" x2="920" y2="255" stroke="#223045" stroke-width="1" stroke-dasharray="4 8" /><line x1="72" y1="353" x2="920" y2="353" stroke="#223045" stroke-width="1" stroke-dasharray="4 8" /><line x1="72" y1="452" x2="920" y2="452" stroke="#223045" stroke-width="1" stroke-dasharray="4 8" />
  <rect x="602.18" y="-92.44" width="84" height="124.34" fill="#fbbf24" fill-opacity="0.12" stroke="#fbbf24" stroke-width="1.5" stroke-dasharray="6 6" />
  <line x1="72.00" y1="232.88" x2="72.00" y2="256.38" stroke="#0ecb81" stroke-width="1.4" /><rect x="69.00" y="244.06" width="6" height="2.00" rx="1.5" fill="#0ecb81" /><line x1="82.73" y1="229.64" x2="82.73" y2="252.81" stroke="#f6465d" stroke-width="1.4" /><rect x="79.73" y="244.22" width="6" height="6.97" rx="1.5" fill="#f6465d" /><line x1="93.47" y1="221.69" x2="93.47" y2="302.73" stroke="#0ecb81" stroke-width="1.4" /><rect x="90.47" y="230.45" width="6" height="20.58" rx="1.5" fill="#0ecb81" /><line x1="104.20" y1="220.56" x2="104.20" y2="244.06" stroke="#0ecb81" stroke-width="1.4" /><rect x="101.20" y="224.77" width="6" height="5.19" rx="1.5" fill="#0ecb81" /><line x1="114.94" y1="223.80" x2="114.94" y2="239.20" stroke="#f6465d" stroke-width="1.4" /><rect x="111.94" y="224.77" width="6" height="11.99" rx="1.5" fill="#f6465d" /><line x1="125.67" y1="229.96" x2="125.67" y2="248.11" stroke="#f6465d" stroke-width="1.4" /><rect x="122.67" y="236.28" width="6" height="10.53" rx="1.5" fill="#f6465d" /><line x1="136.41" y1="245.19" x2="136.41" y2="263.51" stroke="#f6465d" stroke-width="1.4" /><rect x="133.41" y="246.17" width="6" height="11.51" rx="1.5" fill="#f6465d" /><line x1="147.14" y1="245.03" x2="147.14" y2="259.94" stroke="#0ecb81" stroke-width="1.4" /><rect x="144.14" y="256.86" width="6" height="2.00" rx="1.5" fill="#0ecb81" /><line x1="157.87" y1="252.49" x2="157.87" y2="260.59" stroke="#0ecb81" stroke-width="1.4" /><rect x="154.87" y="253.78" width="6" height="2.92" rx="1.5" fill="#0ecb81" /><line x1="168.61" y1="250.87" x2="168.61" y2="284.42" stroke="#f6465d" stroke-width="1.4" /><rect x="165.61" y="253.78" width="6" height="28.20" rx="1.5" fill="#f6465d" /><line x1="179.34" y1="253.62" x2="179.34" y2="288.95" stroke="#0ecb81" stroke-width="1.4" /><rect x="176.34" y="274.21" width="6" height="7.62" rx="1.5" fill="#0ecb81" /><line x1="190.08" y1="272.42" x2="190.08" y2="293.65" stroke="#f6465d" stroke-width="1.4" /><rect x="187.08" y="274.37" width="6" height="17.34" rx="1.5" fill="#f6465d" /><line x1="200.81" y1="256.22" x2="200.81" y2="293.98" stroke="#0ecb81" stroke-width="1.4" /><rect x="197.81" y="266.59" width="6" height="24.80" rx="1.5" fill="#0ecb81" /><line x1="211.54" y1="265.94" x2="211.54" y2="287.17" stroke="#f6465d" stroke-width="1.4" /><rect x="208.54" y="266.59" width="6" height="18.80" rx="1.5" fill="#f6465d" /><line x1="222.28" y1="275.34" x2="222.28" y2="294.46" stroke="#0ecb81" stroke-width="1.4" /><rect x="219.28" y="281.82" width="6" height="3.24" rx="1.5" fill="#0ecb81" /><line x1="233.01" y1="281.17" x2="233.01" y2="297.87" stroke="#f6465d" stroke-width="1.4" /><rect x="230.01" y="282.15" width="6" height="14.10" rx="1.5" fill="#f6465d" /><line x1="243.75" y1="283.93" x2="243.75" y2="300.27" stroke="#0ecb81" stroke-width="1.4" /><rect x="240.75" y="294.63" width="6" height="2.00" rx="1.5" fill="#0ecb81" /><line x1="254.48" y1="286.52" x2="254.48" y2="300.62" stroke="#0ecb81" stroke-width="1.4" /><rect x="251.48" y="292.52" width="6" height="2.43" rx="1.5" fill="#0ecb81" /><line x1="265.22" y1="284.09" x2="265.22" y2="294.30" stroke="#0ecb81" stroke-width="1.4" /><rect x="262.22" y="291.06" width="6" height="2.00" rx="1.5" fill="#0ecb81" /><line x1="275.95" y1="269.67" x2="275.95" y2="293.98" stroke="#0ecb81" stroke-width="1.4" /><rect x="272.95" y="285.39" width="6" height="5.67" rx="1.5" fill="#0ecb81" /><line x1="286.68" y1="257.19" x2="286.68" y2="289.76" stroke="#0ecb81" stroke-width="1.4" /><rect x="283.68" y="273.88" width="6" height="11.99" rx="1.5" fill="#0ecb81" /><line x1="297.42" y1="257.19" x2="297.42" y2="275.18" stroke="#0ecb81" stroke-width="1.4" /><rect x="294.42" y="270.15" width="6" height="3.73" rx="1.5" fill="#0ecb81" /><line x1="308.15" y1="259.46" x2="308.15" y2="282.08" stroke="#0ecb81" stroke-width="1.4" /><rect x="305.15" y="261.24" width="6" height="8.91" rx="1.5" fill="#0ecb81" /><line x1="318.89" y1="240.01" x2="318.89" y2="265.62" stroke="#0ecb81" stroke-width="1.4" /><rect x="315.89" y="254.11" width="6" height="6.97" rx="1.5" fill="#0ecb81" /><line x1="329.62" y1="234.50" x2="329.62" y2="254.11" stroke="#0ecb81" stroke-width="1.4" /><rect x="326.62" y="236.77" width="6" height="17.18" rx="1.5" fill="#0ecb81" /><line x1="340.35" y1="208.57" x2="340.35" y2="277.77" stroke="#0ecb81" stroke-width="1.4" /><rect x="337.35" y="235.15" width="6" height="2.00" rx="1.5" fill="#0ecb81" /><line x1="351.09" y1="215.21" x2="351.09" y2="236.93" stroke="#0ecb81" stroke-width="1.4" /><rect x="348.09" y="233.04" width="6" height="2.00" rx="1.5" fill="#0ecb81" /><line x1="361.82" y1="221.69" x2="361.82" y2="250.38" stroke="#f6465d" stroke-width="1.4" /><rect x="358.82" y="233.20" width="6" height="14.75" rx="1.5" fill="#f6465d" /><line x1="372.56" y1="229.96" x2="372.56" y2="250.38" stroke="#f6465d" stroke-width="1.4" /><rect x="369.56" y="247.79" width="6" height="2.00" rx="1.5" fill="#f6465d" /><line x1="383.29" y1="240.49" x2="383.29" y2="250.71" stroke="#0ecb81" stroke-width="1.4" /><rect x="380.29" y="241.95" width="6" height="6.97" rx="1.5" fill="#0ecb81" /><line x1="394.03" y1="238.23" x2="394.03" y2="255.24" stroke="#f6465d" stroke-width="1.4" /><rect x="391.03" y="241.79" width="6" height="5.19" rx="1.5" fill="#f6465d" /><line x1="404.76" y1="237.90" x2="404.76" y2="248.76" stroke="#f6465d" stroke-width="1.4" /><rect x="401.76" y="247.14" width="6" height="2.00" rx="1.5" fill="#f6465d" /><line x1="415.49" y1="244.22" x2="415.49" y2="256.05" stroke="#f6465d" stroke-width="1.4" /><rect x="412.49" y="247.46" width="6" height="5.35" rx="1.5" fill="#f6465d" /><line x1="426.23" y1="236.12" x2="426.23" y2="256.22" stroke="#0ecb81" stroke-width="1.4" /><rect x="423.23" y="236.60" width="6" height="15.56" rx="1.5" fill="#0ecb81" /><line x1="436.96" y1="230.12" x2="436.96" y2="244.06" stroke="#0ecb81" stroke-width="1.4" /><rect x="433.96" y="231.09" width="6" height="5.35" rx="1.5" fill="#0ecb81" /><line x1="447.70" y1="175.99" x2="447.70" y2="251.84" stroke="#0ecb81" stroke-width="1.4" /><rect x="444.70" y="178.26" width="6" height="52.84" rx="1.5" fill="#0ecb81" /><line x1="458.43" y1="114.40" x2="458.43" y2="212.46" stroke="#0ecb81" stroke-width="1.4" /><rect x="455.43" y="165.13" width="6" height="13.45" rx="1.5" fill="#0ecb81" /><line x1="469.16" y1="82.47" x2="469.16" y2="219.75" stroke="#0ecb81" stroke-width="1.4" /><rect x="466.16" y="111.00" width="6" height="54.46" rx="1.5" fill="#0ecb81" /><line x1="479.90" y1="58.00" x2="479.90" y2="162.21" stroke="#f6465d" stroke-width="1.4" /><rect x="476.90" y="110.84" width="6" height="29.82" rx="1.5" fill="#f6465d" /><line x1="490.63" y1="136.12" x2="490.63" y2="203.54" stroke="#f6465d" stroke-width="1.4" /><rect x="487.63" y="140.50" width="6" height="26.42" rx="1.5" fill="#f6465d" /><line x1="501.37" y1="150.22" x2="501.37" y2="170.64" stroke="#0ecb81" stroke-width="1.4" /><rect x="498.37" y="160.43" width="6" height="6.16" rx="1.5" fill="#0ecb81" /><line x1="512.10" y1="144.06" x2="512.10" y2="172.75" stroke="#f6465d" stroke-width="1.4" /><rect x="509.10" y="159.78" width="6" height="2.27" rx="1.5" fill="#f6465d" /><line x1="522.84" y1="131.95" x2="522.84" y2="170.97" stroke="#f6465d" stroke-width="1.4" /><rect x="519.84" y="162.05" width="6" height="6.16" rx="1.5" fill="#f6465d" /><line x1="533.57" y1="152.81" x2="533.57" y2="185.07" stroke="#f6465d" stroke-width="1.4" /><rect x="530.57" y="168.37" width="6" height="6.00" rx="1.5" fill="#f6465d" /><line x1="544.30" y1="173.72" x2="544.30" y2="218.45" stroke="#f6465d" stroke-width="1.4" /><rect x="541.30" y="174.21" width="6" height="39.71" rx="1.5" fill="#f6465d" /><line x1="555.04" y1="205.00" x2="555.04" y2="219.10" stroke="#0ecb81" stroke-width="1.4" /><rect x="552.04" y="205.97" width="6" height="7.62" rx="1.5" fill="#0ecb81" /><line x1="565.77" y1="177.29" x2="565.77" y2="206.46" stroke="#0ecb81" stroke-width="1.4" /><rect x="562.77" y="189.12" width="6" height="16.86" rx="1.5" fill="#0ecb81" /><line x1="576.51" y1="180.20" x2="576.51" y2="209.86" stroke="#f6465d" stroke-width="1.4" /><rect x="573.51" y="189.12" width="6" height="17.99" rx="1.5" fill="#f6465d" /><line x1="587.24" y1="202.41" x2="587.24" y2="230.12" stroke="#f6465d" stroke-width="1.4" /><rect x="584.24" y="207.11" width="6" height="16.53" rx="1.5" fill="#f6465d" /><line x1="597.97" y1="215.86" x2="597.97" y2="229.47" stroke="#f6465d" stroke-width="1.4" /><rect x="594.97" y="223.48" width="6" height="2.00" rx="1.5" fill="#f6465d" /><line x1="608.71" y1="222.18" x2="608.71" y2="229.80" stroke="#0ecb81" stroke-width="1.4" /><rect x="605.71" y="224.29" width="6" height="2.00" rx="1.5" fill="#0ecb81" /><line x1="619.44" y1="211.81" x2="619.44" y2="229.80" stroke="#0ecb81" stroke-width="1.4" /><rect x="616.44" y="218.61" width="6" height="5.51" rx="1.5" fill="#0ecb81" /><line x1="630.18" y1="209.70" x2="630.18" y2="227.04" stroke="#f6465d" stroke-width="1.4" /><rect x="627.18" y="218.78" width="6" height="3.73" rx="1.5" fill="#f6465d" /><line x1="640.91" y1="219.91" x2="640.91" y2="237.25" stroke="#f6465d" stroke-width="1.4" /><rect x="637.91" y="222.34" width="6" height="12.80" rx="1.5" fill="#f6465d" /><line x1="651.65" y1="220.40" x2="651.65" y2="236.93" stroke="#0ecb81" stroke-width="1.4" /><rect x="648.65" y="234.82" width="6" height="2.00" rx="1.5" fill="#0ecb81" /><line x1="662.38" y1="217.97" x2="662.38" y2="265.13" stroke="#f6465d" stroke-width="1.4" /><rect x="659.38" y="234.82" width="6" height="9.72" rx="1.5" fill="#f6465d" /><line x1="673.11" y1="236.12" x2="673.11" y2="281.77" stroke="#f6465d" stroke-width="1.4" /><rect x="670.11" y="244.71" width="6" height="16.53" rx="1.5" fill="#f6465d" /><line x1="683.85" y1="241.79" x2="683.85" y2="264.32" stroke="#0ecb81" stroke-width="1.4" /><rect x="680.85" y="246.33" width="6" height="14.75" rx="1.5" fill="#0ecb81" /><line x1="694.58" y1="246.17" x2="694.58" y2="263.02" stroke="#f6465d" stroke-width="1.4" /><rect x="691.58" y="246.33" width="6" height="14.91" rx="1.5" fill="#f6465d" /><line x1="705.32" y1="254.76" x2="705.32" y2="274.85" stroke="#f6465d" stroke-width="1.4" /><rect x="702.32" y="261.08" width="6" height="11.67" rx="1.5" fill="#f6465d" /><line x1="716.05" y1="259.62" x2="716.05" y2="274.53" stroke="#0ecb81" stroke-width="1.4" /><rect x="713.05" y="270.15" width="6" height="2.59" rx="1.5" fill="#0ecb81" /><line x1="726.78" y1="266.91" x2="726.78" y2="273.23" stroke="#f6465d" stroke-width="1.4" /><rect x="723.78" y="269.99" width="6" height="2.00" rx="1.5" fill="#f6465d" /><line x1="737.52" y1="260.27" x2="737.52" y2="284.58" stroke="#f6465d" stroke-width="1.4" /><rect x="734.52" y="270.32" width="6" height="2.59" rx="1.5" fill="#f6465d" /><line x1="748.25" y1="270.15" x2="748.25" y2="276.31" stroke="#f6465d" stroke-width="1.4" /><rect x="745.25" y="272.75" width="6" height="2.00" rx="1.5" fill="#f6465d" /><line x1="758.99" y1="265.62" x2="758.99" y2="284.58" stroke="#0ecb81" stroke-width="1.4" /><rect x="755.99" y="267.56" width="6" height="5.83" rx="1.5" fill="#0ecb81" /><line x1="769.72" y1="235.96" x2="769.72" y2="274.69" stroke="#0ecb81" stroke-width="1.4" /><rect x="766.72" y="261.89" width="6" height="5.67" rx="1.5" fill="#0ecb81" /><line x1="780.46" y1="255.08" x2="780.46" y2="270.64" stroke="#f6465d" stroke-width="1.4" /><rect x="777.46" y="261.89" width="6" height="7.94" rx="1.5" fill="#f6465d" /><line x1="791.19" y1="263.51" x2="791.19" y2="292.52" stroke="#f6465d" stroke-width="1.4" /><rect x="788.19" y="269.83" width="6" height="11.67" rx="1.5" fill="#f6465d" /><line x1="801.92" y1="274.85" x2="801.92" y2="286.04" stroke="#f6465d" stroke-width="1.4" /><rect x="798.92" y="281.50" width="6" height="2.92" rx="1.5" fill="#f6465d" /><line x1="812.66" y1="281.34" x2="812.66" y2="311.32" stroke="#f6465d" stroke-width="1.4" /><rect x="809.66" y="284.58" width="6" height="16.53" rx="1.5" fill="#f6465d" /><line x1="823.39" y1="280.85" x2="823.39" y2="323.64" stroke="#f6465d" stroke-width="1.4" /><rect x="820.39" y="300.95" width="6" height="17.83" rx="1.5" fill="#f6465d" /><line x1="834.13" y1="317.32" x2="834.13" y2="393.33" stroke="#f6465d" stroke-width="1.4" /><rect x="831.13" y="318.45" width="6" height="20.10" rx="1.5" fill="#f6465d" /><line x1="844.86" y1="314.40" x2="844.86" y2="359.78" stroke="#f6465d" stroke-width="1.4" /><rect x="841.86" y="339.03" width="6" height="15.40" rx="1.5" fill="#f6465d" /><line x1="855.59" y1="336.12" x2="855.59" y2="381.82" stroke="#f6465d" stroke-width="1.4" /><rect x="852.59" y="354.59" width="6" height="7.29" rx="1.5" fill="#f6465d" /><line x1="866.33" y1="336.12" x2="866.33" y2="370.15" stroke="#0ecb81" stroke-width="1.4" /><rect x="863.33" y="357.84" width="6" height="4.21" rx="1.5" fill="#0ecb81" /><line x1="877.06" y1="346.17" x2="877.06" y2="373.72" stroke="#f6465d" stroke-width="1.4" /><rect x="874.06" y="357.84" width="6" height="9.24" rx="1.5" fill="#f6465d" /><line x1="887.80" y1="333.20" x2="887.80" y2="372.26" stroke="#0ecb81" stroke-width="1.4" /><rect x="884.80" y="357.35" width="6" height="9.89" rx="1.5" fill="#0ecb81" /><line x1="898.53" y1="348.27" x2="898.53" y2="372.26" stroke="#f6465d" stroke-width="1.4" /><rect x="895.53" y="357.51" width="6" height="11.83" rx="1.5" fill="#f6465d" /><line x1="909.27" y1="343.57" x2="909.27" y2="418.29" stroke="#f6465d" stroke-width="1.4" /><rect x="906.27" y="369.50" width="6" height="41.65" rx="1.5" fill="#f6465d" /><line x1="920.00" y1="411.16" x2="920.00" y2="452.00" stroke="#f6465d" stroke-width="1.4" /><rect x="917.00" y="411.32" width="6" height="31.60" rx="1.5" fill="#f6465d" />
  <polyline points="340.35,208.57 426.23,256.22 479.90,58.00 587.24,230.12 630.18,209.70" fill="none" stroke="#2fc273" stroke-width="4" stroke-linecap="round" stroke-linejoin="round" />
  <circle cx="340.35" cy="208.57" r="5.5" fill="#2fc273" fill-opacity="0.15" stroke="#2fc273" stroke-width="2" /><text x="340.35" y="196.57" fill="#f3f4f6" font-size="15" font-weight="700" text-anchor="middle">X</text><circle cx="426.23" cy="256.22" r="5.5" fill="#2fc273" fill-opacity="0.15" stroke="#2fc273" stroke-width="2" /><text x="426.23" y="244.22" fill="#f3f4f6" font-size="15" font-weight="700" text-anchor="middle">A</text><circle cx="479.90" cy="58.00" r="5.5" fill="#2fc273" fill-opacity="0.15" stroke="#2fc273" stroke-width="2" /><text x="479.90" y="46.00" fill="#f3f4f6" font-size="15" font-weight="700" text-anchor="middle">B</text><circle cx="587.24" cy="230.12" r="5.5" fill="#2fc273" fill-opacity="0.15" stroke="#2fc273" stroke-width="2" /><text x="587.24" y="218.12" fill="#f3f4f6" font-size="15" font-weight="700" text-anchor="middle">C</text><circle cx="630.18" cy="209.70" r="5.5" fill="#2fc273" fill-opacity="0.15" stroke="#2fc273" stroke-width="2" /><text x="630.18" y="197.70" fill="#f3f4f6" font-size="15" font-weight="700" text-anchor="middle">D</text>
  <text x="56" y="492" fill="#8ba0b5" font-size="18">Complete · TP1 0.72139 · TP2 0.71841 · SL 0.73002</text>
</svg>
