<svg xmlns="http://www.w3.org/2000/svg" width="960" height="540" viewBox="0 0 960 540">
  <rect width="960" height="540" rx="24" fill="#0b1220" />
  <rect x="28" y="28" width="904" height="484" rx="22" fill="#111827" stroke="#1f2937" />
  <text x="56" y="74" fill="#f3f4f6" font-size="34" font-weight="700">1000BONKUSDT · AB=CD</text>
  <text x="904" y="74" fill="#8ba0b5" font-size="20" text-anchor="end">Bullish (매수) · Score 80.7</text>
  <line x1="72" y1="58" x2="920" y2="58" stroke="#223045" stroke-width="1" stroke-dasharray="4 8" /><line x1="72" y1="156" x2="920" y2="156" stroke="#223045" stroke-width="1" stroke-dasharray="4 8" /><line x1="72" y1="255" x2="920" y2="255" stroke="#223045" stroke-width="1" stroke-dasharray="4 8" /><line x1="72" y1="353" x2="920" y2="353" stroke="#223045" stroke-width="1" stroke-dasharray="4 8" /><line x1="72" y1="452" x2="920" y2="452" stroke="#223045" stroke-width="1" stroke-dasharray="4 8" />
  <rect x="634.38" y="256.34" width="84" height="31.27" fill="#fbbf24" fill-opacity="0.12" stroke="#fbbf24" stroke-width="1.5" stroke-dasharray="6 6" />
  <line x1="72.00" y1="174.15" x2="72.00" y2="198.27" stroke="#f6465d" stroke-width="1.4" /><rect x="69.00" y="178.61" width="6" height="8.93" rx="1.5" fill="#f6465d" /><line x1="82.73" y1="180.40" x2="82.73" y2="223.28" stroke="#f6465d" stroke-width="1.4" /><rect x="79.73" y="187.55" width="6" height="31.27" rx="1.5" fill="#f6465d" /><line x1="93.47" y1="209.88" x2="93.47" y2="239.37" stroke="#f6465d" stroke-width="1.4" /><rect x="90.47" y="218.82" width="6" height="6.25" rx="1.5" fill="#f6465d" /><line x1="104.20" y1="223.28" x2="104.20" y2="257.23" stroke="#f6465d" stroke-width="1.4" /><rect x="101.20" y="224.18" width="6" height="19.66" rx="1.5" fill="#f6465d" /><line x1="114.94" y1="237.58" x2="114.94" y2="273.32" stroke="#f6465d" stroke-width="1.4" /><rect x="111.94" y="242.94" width="6" height="11.61" rx="1.5" fill="#f6465d" /><line x1="125.67" y1="246.51" x2="125.67" y2="276.00" stroke="#f6465d" stroke-width="1.4" /><rect x="122.67" y="253.66" width="6" height="19.66" rx="1.5" fill="#f6465d" /><line x1="136.41" y1="264.38" x2="136.41" y2="332.28" stroke="#f6465d" stroke-width="1.4" /><rect x="133.41" y="272.42" width="6" height="19.66" rx="1.5" fill="#f6465d" /><line x1="147.14" y1="192.91" x2="147.14" y2="307.27" stroke="#0ecb81" stroke-width="1.4" /><rect x="144.14" y="209.88" width="6" height="81.30" rx="1.5" fill="#0ecb81" /><line x1="157.87" y1="208.10" x2="157.87" y2="258.13" stroke="#f6465d" stroke-width="1.4" /><rect x="154.87" y="209.88" width="6" height="38.42" rx="1.5" fill="#f6465d" /><line x1="168.61" y1="215.24" x2="168.61" y2="289.40" stroke="#0ecb81" stroke-width="1.4" /><rect x="165.61" y="242.05" width="6" height="6.25" rx="1.5" fill="#0ecb81" /><line x1="179.34" y1="202.73" x2="179.34" y2="277.78" stroke="#f6465d" stroke-width="1.4" /><rect x="176.34" y="242.94" width="6" height="29.48" rx="1.5" fill="#f6465d" /><line x1="190.08" y1="243.83" x2="190.08" y2="288.50" stroke="#0ecb81" stroke-width="1.4" /><rect x="187.08" y="256.34" width="6" height="15.19" rx="1.5" fill="#0ecb81" /><line x1="200.81" y1="242.05" x2="200.81" y2="271.53" stroke="#0ecb81" stroke-width="1.4" /><rect x="197.81" y="245.62" width="6" height="9.83" rx="1.5" fill="#0ecb81" /><line x1="211.54" y1="208.10" x2="211.54" y2="257.23" stroke="#0ecb81" stroke-width="1.4" /><rect x="208.54" y="235.79" width="6" height="9.83" rx="1.5" fill="#0ecb81" /><line x1="222.28" y1="233.11" x2="222.28" y2="269.74" stroke="#f6465d" stroke-width="1.4" /><rect x="219.28" y="236.68" width="6" height="19.66" rx="1.5" fill="#f6465d" /><line x1="233.01" y1="238.47" x2="233.01" y2="270.63" stroke="#0ecb81" stroke-width="1.4" /><rect x="230.01" y="252.77" width="6" height="4.47" rx="1.5" fill="#0ecb81" /><line x1="243.75" y1="250.98" x2="243.75" y2="277.78" stroke="#f6465d" stroke-width="1.4" /><rect x="240.75" y="251.87" width="6" height="8.93" rx="1.5" fill="#f6465d" /><line x1="254.48" y1="248.30" x2="254.48" y2="272.42" stroke="#f6465d" stroke-width="1.4" /><rect x="251.48" y="259.02" width="6" height="4.47" rx="1.5" fill="#f6465d" /><line x1="265.22" y1="239.37" x2="265.22" y2="276.00" stroke="#f6465d" stroke-width="1.4" /><rect x="262.22" y="262.59" width="6" height="9.83" rx="1.5" fill="#f6465d" /><line x1="275.95" y1="237.58" x2="275.95" y2="296.54" stroke="#0ecb81" stroke-width="1.4" /><rect x="272.95" y="262.59" width="6" height="9.83" rx="1.5" fill="#0ecb81" /><line x1="286.68" y1="214.35" x2="286.68" y2="278.68" stroke="#0ecb81" stroke-width="1.4" /><rect x="283.68" y="225.96" width="6" height="36.63" rx="1.5" fill="#0ecb81" /><line x1="297.42" y1="200.05" x2="297.42" y2="236.68" stroke="#0ecb81" stroke-width="1.4" /><rect x="294.42" y="201.84" width="6" height="25.02" rx="1.5" fill="#0ecb81" /><line x1="308.15" y1="133.05" x2="308.15" y2="208.99" stroke="#0ecb81" stroke-width="1.4" /><rect x="305.15" y="153.60" width="6" height="48.24" rx="1.5" fill="#0ecb81" /><line x1="318.89" y1="116.97" x2="318.89" y2="172.36" stroke="#0ecb81" stroke-width="1.4" /><rect x="315.89" y="125.01" width="6" height="26.80" rx="1.5" fill="#0ecb81" /><line x1="329.62" y1="104.46" x2="329.62" y2="155.38" stroke="#f6465d" stroke-width="1.4" /><rect x="326.62" y="125.01" width="6" height="20.55" rx="1.5" fill="#f6465d" /><line x1="340.35" y1="93.74" x2="340.35" y2="150.02" stroke="#0ecb81" stroke-width="1.4" /><rect x="337.35" y="116.07" width="6" height="29.48" rx="1.5" fill="#0ecb81" /><line x1="351.09" y1="93.74" x2="351.09" y2="140.20" stroke="#0ecb81" stroke-width="1.4" /><rect x="348.09" y="98.20" width="6" height="16.98" rx="1.5" fill="#0ecb81" /><line x1="361.82" y1="80.34" x2="361.82" y2="125.90" stroke="#f6465d" stroke-width="1.4" /><rect x="358.82" y="98.20" width="6" height="6.25" rx="1.5" fill="#f6465d" /><line x1="372.56" y1="97.31" x2="372.56" y2="133.05" stroke="#f6465d" stroke-width="1.4" /><rect x="369.56" y="104.46" width="6" height="15.19" rx="1.5" fill="#f6465d" /><line x1="383.29" y1="58.00" x2="383.29" y2="158.96" stroke="#f6465d" stroke-width="1.4" /><rect x="380.29" y="119.65" width="6" height="4.47" rx="1.5" fill="#f6465d" /><line x1="394.03" y1="109.82" x2="394.03" y2="142.88" stroke="#0ecb81" stroke-width="1.4" /><rect x="391.03" y="118.75" width="6" height="5.36" rx="1.5" fill="#0ecb81" /><line x1="404.76" y1="116.07" x2="404.76" y2="140.20" stroke="#f6465d" stroke-width="1.4" /><rect x="401.76" y="119.65" width="6" height="6.25" rx="1.5" fill="#f6465d" /><line x1="415.49" y1="120.54" x2="415.49" y2="173.25" stroke="#f6465d" stroke-width="1.4" /><rect x="412.49" y="125.90" width="6" height="41.99" rx="1.5" fill="#f6465d" /><line x1="426.23" y1="133.05" x2="426.23" y2="176.83" stroke="#0ecb81" stroke-width="1.4" /><rect x="423.23" y="135.73" width="6" height="32.16" rx="1.5" fill="#0ecb81" /><line x1="436.96" y1="128.58" x2="436.96" y2="167.00" stroke="#f6465d" stroke-width="1.4" /><rect x="433.96" y="135.73" width="6" height="14.29" rx="1.5" fill="#f6465d" /><line x1="447.70" y1="115.18" x2="447.70" y2="162.53" stroke="#f6465d" stroke-width="1.4" /><rect x="444.70" y="149.13" width="6" height="11.61" rx="1.5" fill="#f6465d" /><line x1="458.43" y1="158.06" x2="458.43" y2="204.52" stroke="#f6465d" stroke-width="1.4" /><rect x="455.43" y="160.74" width="6" height="21.44" rx="1.5" fill="#f6465d" /><line x1="469.16" y1="167.89" x2="469.16" y2="193.80" stroke="#f6465d" stroke-width="1.4" /><rect x="466.16" y="181.29" width="6" height="4.47" rx="1.5" fill="#f6465d" /><line x1="479.90" y1="149.13" x2="479.90" y2="184.87" stroke="#0ecb81" stroke-width="1.4" /><rect x="476.90" y="167.00" width="6" height="17.87" rx="1.5" fill="#0ecb81" /><line x1="490.63" y1="162.53" x2="490.63" y2="209.88" stroke="#f6465d" stroke-width="1.4" /><rect x="487.63" y="167.00" width="6" height="37.52" rx="1.5" fill="#f6465d" /><line x1="501.37" y1="184.87" x2="501.37" y2="213.46" stroke="#0ecb81" stroke-width="1.4" /><rect x="498.37" y="193.80" width="6" height="10.72" rx="1.5" fill="#0ecb81" /><line x1="512.10" y1="189.33" x2="512.10" y2="228.64" stroke="#f6465d" stroke-width="1.4" /><rect x="509.10" y="192.91" width="6" height="29.48" rx="1.5" fill="#f6465d" /><line x1="522.84" y1="217.03" x2="522.84" y2="239.37" stroke="#f6465d" stroke-width="1.4" /><rect x="519.84" y="221.50" width="6" height="2.00" rx="1.5" fill="#f6465d" /><line x1="533.57" y1="221.50" x2="533.57" y2="251.87" stroke="#f6465d" stroke-width="1.4" /><rect x="530.57" y="224.18" width="6" height="18.76" rx="1.5" fill="#f6465d" /><line x1="544.30" y1="227.75" x2="544.30" y2="250.98" stroke="#0ecb81" stroke-width="1.4" /><rect x="541.30" y="234.90" width="6" height="8.93" rx="1.5" fill="#0ecb81" /><line x1="555.04" y1="215.24" x2="555.04" y2="240.26" stroke="#0ecb81" stroke-width="1.4" /><rect x="552.04" y="226.86" width="6" height="8.04" rx="1.5" fill="#0ecb81" /><line x1="565.77" y1="217.92" x2="565.77" y2="240.26" stroke="#f6465d" stroke-width="1.4" /><rect x="562.77" y="226.86" width="6" height="4.47" rx="1.5" fill="#f6465d" /><line x1="576.51" y1="195.59" x2="576.51" y2="239.37" stroke="#0ecb81" stroke-width="1.4" /><rect x="573.51" y="198.27" width="6" height="33.95" rx="1.5" fill="#0ecb81" /><line x1="587.24" y1="196.48" x2="587.24" y2="217.92" stroke="#f6465d" stroke-width="1.4" /><rect x="584.24" y="198.27" width="6" height="15.19" rx="1.5" fill="#f6465d" /><line x1="597.97" y1="207.20" x2="597.97" y2="237.58" stroke="#f6465d" stroke-width="1.4" /><rect x="594.97" y="214.35" width="6" height="20.55" rx="1.5" fill="#f6465d" /><line x1="608.71" y1="230.43" x2="608.71" y2="242.94" stroke="#f6465d" stroke-width="1.4" /><rect x="605.71" y="234.90" width="6" height="3.57" rx="1.5" fill="#f6465d" /><line x1="619.44" y1="218.82" x2="619.44" y2="248.30" stroke="#0ecb81" stroke-width="1.4" /><rect x="616.44" y="226.86" width="6" height="11.61" rx="1.5" fill="#0ecb81" /><line x1="630.18" y1="203.63" x2="630.18" y2="236.68" stroke="#0ecb81" stroke-width="1.4" /><rect x="627.18" y="217.03" width="6" height="10.72" rx="1.5" fill="#0ecb81" /><line x1="640.91" y1="207.20" x2="640.91" y2="226.86" stroke="#f6465d" stroke-width="1.4" /><rect x="637.91" y="217.03" width="6" height="7.15" rx="1.5" fill="#f6465d" /><line x1="651.65" y1="214.35" x2="651.65" y2="241.15" stroke="#f6465d" stroke-width="1.4" /><rect x="648.65" y="224.18" width="6" height="13.40" rx="1.5" fill="#f6465d" /><line x1="662.38" y1="217.03" x2="662.38" y2="261.70" stroke="#0ecb81" stroke-width="1.4" /><rect x="659.38" y="219.71" width="6" height="18.76" rx="1.5" fill="#0ecb81" /><line x1="673.11" y1="176.83" x2="673.11" y2="223.28" stroke="#0ecb81" stroke-width="1.4" /><rect x="670.11" y="206.31" width="6" height="14.29" rx="1.5" fill="#0ecb81" /><line x1="683.85" y1="194.69" x2="683.85" y2="223.28" stroke="#f6465d" stroke-width="1.4" /><rect x="680.85" y="207.20" width="6" height="14.29" rx="1.5" fill="#f6465d" /><line x1="694.58" y1="157.17" x2="694.58" y2="225.07" stroke="#0ecb81" stroke-width="1.4" /><rect x="691.58" y="171.46" width="6" height="50.93" rx="1.5" fill="#0ecb81" /><line x1="705.32" y1="158.06" x2="705.32" y2="186.65" stroke="#f6465d" stroke-width="1.4" /><rect x="702.32" y="171.46" width="6" height="7.15" rx="1.5" fill="#f6465d" /><line x1="716.05" y1="126.79" x2="716.05" y2="184.87" stroke="#0ecb81" stroke-width="1.4" /><rect x="713.05" y="170.57" width="6" height="8.93" rx="1.5" fill="#0ecb81" /><line x1="726.78" y1="163.42" x2="726.78" y2="201.84" stroke="#f6465d" stroke-width="1.4" /><rect x="723.78" y="170.57" width="6" height="26.80" rx="1.5" fill="#f6465d" /><line x1="737.52" y1="194.69" x2="737.52" y2="214.35" stroke="#f6465d" stroke-width="1.4" /><rect x="734.52" y="198.27" width="6" height="13.40" rx="1.5" fill="#f6465d" /><line x1="748.25" y1="193.80" x2="748.25" y2="213.46" stroke="#0ecb81" stroke-width="1.4" /><rect x="745.25" y="202.73" width="6" height="8.93" rx="1.5" fill="#0ecb81" /><line x1="758.99" y1="203.63" x2="758.99" y2="224.18" stroke="#f6465d" stroke-width="1.4" /><rect x="755.99" y="203.63" width="6" height="8.04" rx="1.5" fill="#f6465d" /><line x1="769.72" y1="204.52" x2="769.72" y2="230.43" stroke="#f6465d" stroke-width="1.4" /><rect x="766.72" y="211.67" width="6" height="9.83" rx="1.5" fill="#f6465d" /><line x1="780.46" y1="216.14" x2="780.46" y2="246.51" stroke="#f6465d" stroke-width="1.4" /><rect x="777.46" y="220.60" width="6" height="16.98" rx="1.5" fill="#f6465d" /><line x1="791.19" y1="238.47" x2="791.19" y2="253.66" stroke="#f6465d" stroke-width="1.4" /><rect x="788.19" y="238.47" width="6" height="3.57" rx="1.5" fill="#f6465d" /><line x1="801.92" y1="234.90" x2="801.92" y2="246.51" stroke="#0ecb81" stroke-width="1.4" /><rect x="798.92" y="241.15" width="6" height="2.00" rx="1.5" fill="#0ecb81" /><line x1="812.66" y1="241.15" x2="812.66" y2="272.42" stroke="#f6465d" stroke-width="1.4" /><rect x="809.66" y="241.15" width="6" height="30.38" rx="1.5" fill="#f6465d" /><line x1="823.39" y1="264.38" x2="823.39" y2="315.31" stroke="#f6465d" stroke-width="1.4" /><rect x="820.39" y="271.53" width="6" height="37.52" rx="1.5" fill="#f6465d" /><line x1="834.13" y1="308.16" x2="834.13" y2="376.95" stroke="#f6465d" stroke-width="1.4" /><rect x="831.13" y="308.16" width="6" height="38.42" rx="1.5" fill="#f6465d" /><line x1="844.86" y1="343.00" x2="844.86" y2="387.67" stroke="#f6465d" stroke-width="1.4" /><rect x="841.86" y="346.58" width="6" height="34.84" rx="1.5" fill="#f6465d" /><line x1="855.59" y1="369.80" x2="855.59" y2="408.22" stroke="#0ecb81" stroke-width="1.4" /><rect x="852.59" y="372.49" width="6" height="9.83" rx="1.5" fill="#0ecb81" /><line x1="866.33" y1="360.87" x2="866.33" y2="384.10" stroke="#0ecb81" stroke-width="1.4" /><rect x="863.33" y="368.02" width="6" height="5.36" rx="1.5" fill="#0ecb81" /><line x1="877.06" y1="352.83" x2="877.06" y2="394.82" stroke="#f6465d" stroke-width="1.4" /><rect x="874.06" y="368.91" width="6" height="25.91" rx="1.5" fill="#f6465d" /><line x1="887.80" y1="380.53" x2="887.80" y2="403.76" stroke="#0ecb81" stroke-width="1.4" /><rect x="884.80" y="386.78" width="6" height="8.04" rx="1.5" fill="#0ecb81" /><line x1="898.53" y1="386.78" x2="898.53" y2="443.96" stroke="#f6465d" stroke-width="1.4" /><rect x="895.53" y="386.78" width="6" height="47.35" rx="1.5" fill="#f6465d" /><line x1="909.27" y1="406.44" x2="909.27" y2="452.00" stroke="#0ecb81" stroke-width="1.4" /><rect x="906.27" y="408.22" width="6" height="25.02" rx="1.5" fill="#0ecb81" /><line x1="920.00" y1="399.29" x2="920.00" y2="432.34" stroke="#f6465d" stroke-width="1.4" /><rect x="917.00" y="409.12" width="6" height="10.72" rx="1.5" fill="#f6465d" />
  <polyline points="533.57,251.87 576.51,195.59 619.44,248.30 630.18,203.63 662.38,261.70" fill="none" stroke="#2fc273" stroke-width="4" stroke-linecap="round" stroke-linejoin="round" />
  <circle cx="533.57" cy="251.87" r="5.5" fill="#2fc273" fill-opacity="0.15" stroke="#2fc273" stroke-width="2" /><text x="533.57" y="239.87" fill="#f3f4f6" font-size="15" font-weight="700" text-anchor="middle">X</text><circle cx="576.51" cy="195.59" r="5.5" fill="#2fc273" fill-opacity="0.15" stroke="#2fc273" stroke-width="2" /><text x="576.51" y="183.59" fill="#f3f4f6" font-size="15" font-weight="700" text-anchor="middle">A</text><circle cx="619.44" cy="248.30" r="5.5" fill="#2fc273" fill-opacity="0.15" stroke="#2fc273" stroke-width="2" /><text x="619.44" y="236.30" fill="#f3f4f6" font-size="15" font-weight="700" text-anchor="middle">B</text><circle cx="630.18" cy="203.63" r="5.5" fill="#2fc273" fill-opacity="0.15" stroke="#2fc273" stroke-width="2" /><text x="630.18" y="191.63" fill="#f3f4f6" font-size="15" font-weight="700" text-anchor="middle">C</text><circle cx="662.38" cy="261.70" r="5.5" fill="#2fc273" fill-opacity="0.15" stroke="#2fc273" stroke-width="2" /><text x="662.38" y="249.70" fill="#f3f4f6" font-size="15" font-weight="700" text-anchor="middle">D</text>
  <text x="56" y="492" fill="#8ba0b5" font-size="18">실시간 터치 · TP1 0.005662 · TP2 0.005677 · SL 0.005629</text>
</svg>
