<svg xmlns="http://www.w3.org/2000/svg" width="960" height="540" viewBox="0 0 960 540">
  <rect width="960" height="540" rx="24" fill="#0b1220" />
  <rect x="28" y="28" width="904" height="484" rx="22" fill="#111827" stroke="#1f2937" />
  <text x="56" y="74" fill="#f3f4f6" font-size="34" font-weight="700">AAVEUSDT · AB=CD</text>
  <text x="904" y="74" fill="#8ba0b5" font-size="20" text-anchor="end">Bearish (매도) · Score 84.4</text>
  <line x1="72" y1="58" x2="920" y2="58" stroke="#223045" stroke-width="1" stroke-dasharray="4 8" /><line x1="72" y1="156" x2="920" y2="156" stroke="#223045" stroke-width="1" stroke-dasharray="4 8" /><line x1="72" y1="255" x2="920" y2="255" stroke="#223045" stroke-width="1" stroke-dasharray="4 8" /><line x1="72" y1="353" x2="920" y2="353" stroke="#223045" stroke-width="1" stroke-dasharray="4 8" /><line x1="72" y1="452" x2="920" y2="452" stroke="#223045" stroke-width="1" stroke-dasharray="4 8" />
  <rect x="655.85" y="67.01" width="84" height="35.68" fill="#fbbf24" fill-opacity="0.12" stroke="#fbbf24" stroke-width="1.5" stroke-dasharray="6 6" />
  <line x1="72.00" y1="143.65" x2="72.00" y2="192.06" stroke="#0ecb81" stroke-width="1.4" /><rect x="69.00" y="181.64" width="6" height="4.47" rx="1.5" fill="#0ecb81" /><line x1="82.73" y1="180.89" x2="82.73" y2="215.90" stroke="#f6465d" stroke-width="1.4" /><rect x="79.73" y="181.64" width="6" height="8.19" rx="1.5" fill="#f6465d" /><line x1="93.47" y1="181.64" x2="93.47" y2="244.20" stroke="#f6465d" stroke-width="1.4" /><rect x="90.47" y="189.09" width="6" height="52.14" rx="1.5" fill="#f6465d" /><line x1="104.20" y1="223.35" x2="104.20" y2="262.82" stroke="#0ecb81" stroke-width="1.4" /><rect x="101.20" y="230.79" width="6" height="9.68" rx="1.5" fill="#0ecb81" /><line x1="114.94" y1="216.64" x2="114.94" y2="261.33" stroke="#f6465d" stroke-width="1.4" /><rect x="111.94" y="230.79" width="6" height="15.64" rx="1.5" fill="#f6465d" /><line x1="125.67" y1="224.84" x2="125.67" y2="279.95" stroke="#f6465d" stroke-width="1.4" /><rect x="122.67" y="245.69" width="6" height="17.13" rx="1.5" fill="#f6465d" /><line x1="136.41" y1="257.61" x2="136.41" y2="299.32" stroke="#f6465d" stroke-width="1.4" /><rect x="133.41" y="262.82" width="6" height="32.77" rx="1.5" fill="#f6465d" /><line x1="147.14" y1="268.03" x2="147.14" y2="346.24" stroke="#0ecb81" stroke-width="1.4" /><rect x="144.14" y="272.50" width="6" height="22.34" rx="1.5" fill="#0ecb81" /><line x1="157.87" y1="110.88" x2="157.87" y2="281.44" stroke="#0ecb81" stroke-width="1.4" /><rect x="154.87" y="131.74" width="6" height="141.51" rx="1.5" fill="#0ecb81" /><line x1="168.61" y1="131.74" x2="168.61" y2="225.58" stroke="#f6465d" stroke-width="1.4" /><rect x="165.61" y="132.48" width="6" height="57.35" rx="1.5" fill="#f6465d" /><line x1="179.34" y1="132.48" x2="179.34" y2="219.62" stroke="#0ecb81" stroke-width="1.4" /><rect x="176.34" y="161.53" width="6" height="28.30" rx="1.5" fill="#0ecb81" /><line x1="190.08" y1="107.16" x2="190.08" y2="196.53" stroke="#f6465d" stroke-width="1.4" /><rect x="187.08" y="162.27" width="6" height="26.07" rx="1.5" fill="#f6465d" /><line x1="200.81" y1="153.33" x2="200.81" y2="198.02" stroke="#0ecb81" stroke-width="1.4" /><rect x="197.81" y="159.29" width="6" height="28.30" rx="1.5" fill="#0ecb81" /><line x1="211.54" y1="144.40" x2="211.54" y2="185.36" stroke="#0ecb81" stroke-width="1.4" /><rect x="208.54" y="157.06" width="6" height="2.23" rx="1.5" fill="#0ecb81" /><line x1="222.28" y1="113.12" x2="222.28" y2="178.66" stroke="#0ecb81" stroke-width="1.4" /><rect x="219.28" y="153.33" width="6" height="3.72" rx="1.5" fill="#0ecb81" /><line x1="233.01" y1="148.87" x2="233.01" y2="233.03" stroke="#f6465d" stroke-width="1.4" /><rect x="230.01" y="153.33" width="6" height="61.07" rx="1.5" fill="#f6465d" /><line x1="243.75" y1="186.85" x2="243.75" y2="238.24" stroke="#0ecb81" stroke-width="1.4" /><rect x="240.75" y="206.22" width="6" height="8.94" rx="1.5" fill="#0ecb81" /><line x1="254.48" y1="193.55" x2="254.48" y2="225.58" stroke="#0ecb81" stroke-width="1.4" /><rect x="251.48" y="196.53" width="6" height="10.43" rx="1.5" fill="#0ecb81" /><line x1="265.22" y1="182.38" x2="265.22" y2="211.43" stroke="#0ecb81" stroke-width="1.4" /><rect x="262.22" y="192.06" width="6" height="3.72" rx="1.5" fill="#0ecb81" /><line x1="275.95" y1="160.04" x2="275.95" y2="206.96" stroke="#0ecb81" stroke-width="1.4" /><rect x="272.95" y="183.87" width="6" height="8.94" rx="1.5" fill="#0ecb81" /><line x1="286.68" y1="139.18" x2="286.68" y2="205.47" stroke="#0ecb81" stroke-width="1.4" /><rect x="283.68" y="171.95" width="6" height="11.17" rx="1.5" fill="#0ecb81" /><line x1="297.42" y1="141.42" x2="297.42" y2="177.91" stroke="#0ecb81" stroke-width="1.4" /><rect x="294.42" y="151.10" width="6" height="20.85" rx="1.5" fill="#0ecb81" /><line x1="308.15" y1="121.31" x2="308.15" y2="168.23" stroke="#0ecb81" stroke-width="1.4" /><rect x="305.15" y="125.78" width="6" height="26.07" rx="1.5" fill="#0ecb81" /><line x1="318.89" y1="83.32" x2="318.89" y2="158.55" stroke="#0ecb81" stroke-width="1.4" /><rect x="315.89" y="117.58" width="6" height="8.19" rx="1.5" fill="#0ecb81" /><line x1="329.62" y1="99.71" x2="329.62" y2="146.63" stroke="#f6465d" stroke-width="1.4" /><rect x="326.62" y="118.33" width="6" height="5.96" rx="1.5" fill="#f6465d" /><line x1="340.35" y1="84.07" x2="340.35" y2="143.65" stroke="#0ecb81" stroke-width="1.4" /><rect x="337.35" y="123.54" width="6" height="2.00" rx="1.5" fill="#0ecb81" /><line x1="351.09" y1="85.56" x2="351.09" y2="125.03" stroke="#0ecb81" stroke-width="1.4" /><rect x="348.09" y="97.47" width="6" height="26.07" rx="1.5" fill="#0ecb81" /><line x1="361.82" y1="90.77" x2="361.82" y2="130.25" stroke="#f6465d" stroke-width="1.4" /><rect x="358.82" y="98.22" width="6" height="11.17" rx="1.5" fill="#f6465d" /><line x1="372.56" y1="98.96" x2="372.56" y2="143.65" stroke="#f6465d" stroke-width="1.4" /><rect x="369.56" y="110.14" width="6" height="3.72" rx="1.5" fill="#f6465d" /><line x1="383.29" y1="105.67" x2="383.29" y2="134.71" stroke="#f6465d" stroke-width="1.4" /><rect x="380.29" y="113.12" width="6" height="6.70" rx="1.5" fill="#f6465d" /><line x1="394.03" y1="58.00" x2="394.03" y2="172.70" stroke="#f6465d" stroke-width="1.4" /><rect x="391.03" y="119.82" width="6" height="41.71" rx="1.5" fill="#f6465d" /><line x1="404.76" y1="146.63" x2="404.76" y2="182.38" stroke="#0ecb81" stroke-width="1.4" /><rect x="401.76" y="157.06" width="6" height="3.72" rx="1.5" fill="#0ecb81" /><line x1="415.49" y1="110.14" x2="415.49" y2="168.23" stroke="#0ecb81" stroke-width="1.4" /><rect x="412.49" y="120.56" width="6" height="37.24" rx="1.5" fill="#0ecb81" /><line x1="426.23" y1="112.37" x2="426.23" y2="161.53" stroke="#f6465d" stroke-width="1.4" /><rect x="423.23" y="121.31" width="6" height="37.98" rx="1.5" fill="#f6465d" /><line x1="436.96" y1="117.58" x2="436.96" y2="168.98" stroke="#0ecb81" stroke-width="1.4" /><rect x="433.96" y="123.54" width="6" height="35.01" rx="1.5" fill="#0ecb81" /><line x1="447.70" y1="123.54" x2="447.70" y2="206.22" stroke="#f6465d" stroke-width="1.4" /><rect x="444.70" y="123.54" width="6" height="65.54" rx="1.5" fill="#f6465d" /><line x1="458.43" y1="169.72" x2="458.43" y2="215.15" stroke="#f6465d" stroke-width="1.4" /><rect x="455.43" y="189.83" width="6" height="20.11" rx="1.5" fill="#f6465d" /><line x1="469.16" y1="192.81" x2="469.16" y2="227.07" stroke="#0ecb81" stroke-width="1.4" /><rect x="466.16" y="196.53" width="6" height="13.41" rx="1.5" fill="#0ecb81" /><line x1="479.90" y1="177.91" x2="479.90" y2="199.51" stroke="#0ecb81" stroke-width="1.4" /><rect x="476.90" y="183.87" width="6" height="13.41" rx="1.5" fill="#0ecb81" /><line x1="490.63" y1="153.33" x2="490.63" y2="192.81" stroke="#0ecb81" stroke-width="1.4" /><rect x="487.63" y="157.06" width="6" height="26.81" rx="1.5" fill="#0ecb81" /><line x1="501.37" y1="151.84" x2="501.37" y2="202.49" stroke="#f6465d" stroke-width="1.4" /><rect x="498.37" y="156.31" width="6" height="30.54" rx="1.5" fill="#f6465d" /><line x1="512.10" y1="156.31" x2="512.10" y2="193.55" stroke="#0ecb81" stroke-width="1.4" /><rect x="509.10" y="161.53" width="6" height="25.32" rx="1.5" fill="#0ecb81" /><line x1="522.84" y1="149.61" x2="522.84" y2="179.40" stroke="#f6465d" stroke-width="1.4" /><rect x="519.84" y="161.53" width="6" height="4.47" rx="1.5" fill="#f6465d" /><line x1="533.57" y1="151.84" x2="533.57" y2="175.68" stroke="#0ecb81" stroke-width="1.4" /><rect x="530.57" y="157.80" width="6" height="8.94" rx="1.5" fill="#0ecb81" /><line x1="544.30" y1="142.16" x2="544.30" y2="180.15" stroke="#f6465d" stroke-width="1.4" /><rect x="541.30" y="158.55" width="6" height="14.15" rx="1.5" fill="#f6465d" /><line x1="555.04" y1="138.44" x2="555.04" y2="174.93" stroke="#0ecb81" stroke-width="1.4" /><rect x="552.04" y="144.40" width="6" height="29.05" rx="1.5" fill="#0ecb81" /><line x1="565.77" y1="142.91" x2="565.77" y2="166.00" stroke="#f6465d" stroke-width="1.4" /><rect x="562.77" y="145.14" width="6" height="20.85" rx="1.5" fill="#f6465d" /><line x1="576.51" y1="162.27" x2="576.51" y2="183.13" stroke="#f6465d" stroke-width="1.4" /><rect x="573.51" y="166.00" width="6" height="16.39" rx="1.5" fill="#f6465d" /><line x1="587.24" y1="129.50" x2="587.24" y2="195.04" stroke="#0ecb81" stroke-width="1.4" /><rect x="584.24" y="141.42" width="6" height="40.96" rx="1.5" fill="#0ecb81" /><line x1="597.97" y1="139.18" x2="597.97" y2="165.25" stroke="#f6465d" stroke-width="1.4" /><rect x="594.97" y="141.42" width="6" height="7.45" rx="1.5" fill="#f6465d" /><line x1="608.71" y1="136.95" x2="608.71" y2="184.62" stroke="#f6465d" stroke-width="1.4" /><rect x="605.71" y="148.12" width="6" height="31.28" rx="1.5" fill="#f6465d" /><line x1="619.44" y1="163.02" x2="619.44" y2="185.36" stroke="#0ecb81" stroke-width="1.4" /><rect x="616.44" y="178.66" width="6" height="2.00" rx="1.5" fill="#0ecb81" /><line x1="630.18" y1="136.20" x2="630.18" y2="183.13" stroke="#0ecb81" stroke-width="1.4" /><rect x="627.18" y="145.14" width="6" height="32.77" rx="1.5" fill="#0ecb81" /><line x1="640.91" y1="137.69" x2="640.91" y2="174.19" stroke="#f6465d" stroke-width="1.4" /><rect x="637.91" y="145.14" width="6" height="18.62" rx="1.5" fill="#f6465d" /><line x1="651.65" y1="150.36" x2="651.65" y2="179.40" stroke="#f6465d" stroke-width="1.4" /><rect x="648.65" y="164.51" width="6" height="2.00" rx="1.5" fill="#f6465d" /><line x1="662.38" y1="146.63" x2="662.38" y2="180.15" stroke="#f6465d" stroke-width="1.4" /><rect x="659.38" y="165.25" width="6" height="10.43" rx="1.5" fill="#f6465d" /><line x1="673.11" y1="146.63" x2="673.11" y2="201.75" stroke="#0ecb81" stroke-width="1.4" /><rect x="670.11" y="147.38" width="6" height="29.05" rx="1.5" fill="#0ecb81" /><line x1="683.85" y1="107.90" x2="683.85" y2="164.51" stroke="#f6465d" stroke-width="1.4" /><rect x="680.85" y="148.12" width="6" height="3.72" rx="1.5" fill="#f6465d" /><line x1="694.58" y1="139.18" x2="694.58" y2="190.57" stroke="#f6465d" stroke-width="1.4" /><rect x="691.58" y="151.84" width="6" height="35.75" rx="1.5" fill="#f6465d" /><line x1="705.32" y1="148.87" x2="705.32" y2="204.73" stroke="#0ecb81" stroke-width="1.4" /><rect x="702.32" y="166.74" width="6" height="20.85" rx="1.5" fill="#0ecb81" /><line x1="716.05" y1="161.53" x2="716.05" y2="183.13" stroke="#f6465d" stroke-width="1.4" /><rect x="713.05" y="167.49" width="6" height="10.43" rx="1.5" fill="#f6465d" /><line x1="726.78" y1="114.60" x2="726.78" y2="180.15" stroke="#0ecb81" stroke-width="1.4" /><rect x="723.78" y="168.23" width="6" height="9.68" rx="1.5" fill="#0ecb81" /><line x1="737.52" y1="166.00" x2="737.52" y2="184.62" stroke="#f6465d" stroke-width="1.4" /><rect x="734.52" y="168.23" width="6" height="12.66" rx="1.5" fill="#f6465d" /><line x1="748.25" y1="152.59" x2="748.25" y2="186.85" stroke="#0ecb81" stroke-width="1.4" /><rect x="745.25" y="168.98" width="6" height="11.17" rx="1.5" fill="#0ecb81" /><line x1="758.99" y1="151.84" x2="758.99" y2="172.70" stroke="#0ecb81" stroke-width="1.4" /><rect x="755.99" y="168.98" width="6" height="2.00" rx="1.5" fill="#0ecb81" /><line x1="769.72" y1="169.72" x2="769.72" y2="196.53" stroke="#f6465d" stroke-width="1.4" /><rect x="766.72" y="169.72" width="6" height="15.64" rx="1.5" fill="#f6465d" /><line x1="780.46" y1="165.25" x2="780.46" y2="192.06" stroke="#0ecb81" stroke-width="1.4" /><rect x="777.46" y="173.44" width="6" height="11.92" rx="1.5" fill="#0ecb81" /><line x1="791.19" y1="166.00" x2="791.19" y2="200.26" stroke="#f6465d" stroke-width="1.4" /><rect x="788.19" y="172.70" width="6" height="27.56" rx="1.5" fill="#f6465d" /><line x1="801.92" y1="187.60" x2="801.92" y2="211.43" stroke="#0ecb81" stroke-width="1.4" /><rect x="798.92" y="200.26" width="6" height="2.00" rx="1.5" fill="#0ecb81" /><line x1="812.66" y1="200.26" x2="812.66" y2="226.33" stroke="#f6465d" stroke-width="1.4" /><rect x="809.66" y="200.26" width="6" height="14.15" rx="1.5" fill="#f6465d" /><line x1="823.39" y1="201.00" x2="823.39" y2="230.79" stroke="#0ecb81" stroke-width="1.4" /><rect x="820.39" y="213.66" width="6" height="2.00" rx="1.5" fill="#0ecb81" /><line x1="834.13" y1="204.73" x2="834.13" y2="271.76" stroke="#f6465d" stroke-width="1.4" /><rect x="831.13" y="214.41" width="6" height="48.41" rx="1.5" fill="#f6465d" /><line x1="844.86" y1="262.08" x2="844.86" y2="337.30" stroke="#f6465d" stroke-width="1.4" /><rect x="841.86" y="262.08" width="6" height="43.94" rx="1.5" fill="#f6465d" /><line x1="855.59" y1="280.70" x2="855.59" y2="334.32" stroke="#f6465d" stroke-width="1.4" /><rect x="852.59" y="305.27" width="6" height="14.15" rx="1.5" fill="#f6465d" /><line x1="866.33" y1="296.34" x2="866.33" y2="328.36" stroke="#0ecb81" stroke-width="1.4" /><rect x="863.33" y="315.70" width="6" height="4.47" rx="1.5" fill="#0ecb81" /><line x1="877.06" y1="297.83" x2="877.06" y2="322.40" stroke="#0ecb81" stroke-width="1.4" /><rect x="874.06" y="306.02" width="6" height="8.94" rx="1.5" fill="#0ecb81" /><line x1="887.80" y1="283.67" x2="887.80" y2="333.58" stroke="#f6465d" stroke-width="1.4" /><rect x="884.80" y="306.02" width="6" height="19.36" rx="1.5" fill="#f6465d" /><line x1="898.53" y1="326.13" x2="898.53" y2="396.88" stroke="#f6465d" stroke-width="1.4" /><rect x="895.53" y="326.13" width="6" height="43.94" rx="1.5" fill="#f6465d" /><line x1="909.27" y1="361.13" x2="909.27" y2="452.00" stroke="#f6465d" stroke-width="1.4" /><rect x="906.27" y="370.82" width="6" height="52.14" rx="1.5" fill="#f6465d" /><line x1="920.00" y1="422.21" x2="920.00" y2="430.40" stroke="#f6465d" stroke-width="1.4" /><rect x="917.00" y="422.95" width="6" height="7.45" rx="1.5" fill="#f6465d" />
  <polyline points="394.03,58.00 469.16,227.07 587.24,129.50 587.24,195.04 683.85,107.90" fill="none" stroke="#2fc273" stroke-width="4" stroke-linecap="round" stroke-linejoin="round" />
  <circle cx="394.03" cy="58.00" r="5.5" fill="#2fc273" fill-opacity="0.15" stroke="#2fc273" stroke-width="2" /><text x="394.03" y="46.00" fill="#f3f4f6" font-size="15" font-weight="700" text-anchor="middle">X</text><circle cx="469.16" cy="227.07" r="5.5" fill="#2fc273" fill-opacity="0.15" stroke="#2fc273" stroke-width="2" /><text x="469.16" y="215.07" fill="#f3f4f6" font-size="15" font-weight="700" text-anchor="middle">A</text><circle cx="587.24" cy="129.50" r="5.5" fill="#2fc273" fill-opacity="0.15" stroke="#2fc273" stroke-width="2" /><text x="587.24" y="117.50" fill="#f3f4f6" font-size="15" font-weight="700" text-anchor="middle">B</text><circle cx="587.24" cy="195.04" r="5.5" fill="#2fc273" fill-opacity="0.15" stroke="#2fc273" stroke-width="2" /><text x="587.24" y="183.04" fill="#f3f4f6" font-size="15" font-weight="700" text-anchor="middle">C</text><circle cx="683.85" cy="107.90" r="5.5" fill="#2fc273" fill-opacity="0.15" stroke="#2fc273" stroke-width="2" /><text x="683.85" y="95.90" fill="#f3f4f6" font-size="15" font-weight="700" text-anchor="middle">D</text>
  <text x="56" y="492" fill="#8ba0b5" font-size="18">일반 완성 · TP1 95.023 · TP2 94.747 · SL 95.765</text>
</svg>
