<svg xmlns="http://www.w3.org/2000/svg" width="960" height="540" viewBox="0 0 960 540">
  <rect width="960" height="540" rx="24" fill="#0b1220" />
  <rect x="28" y="28" width="904" height="484" rx="22" fill="#111827" stroke="#1f2937" />
  <text x="56" y="74" fill="#f3f4f6" font-size="34" font-weight="700">ADAUSDT · AB=CD</text>
  <text x="904" y="74" fill="#8ba0b5" font-size="20" text-anchor="end">Bearish (매도) · Score 77.0</text>
  <line x1="72" y1="58" x2="920" y2="58" stroke="#223045" stroke-width="1" stroke-dasharray="4 8" /><line x1="72" y1="156" x2="920" y2="156" stroke="#223045" stroke-width="1" stroke-dasharray="4 8" /><line x1="72" y1="255" x2="920" y2="255" stroke="#223045" stroke-width="1" stroke-dasharray="4 8" /><line x1="72" y1="353" x2="920" y2="353" stroke="#223045" stroke-width="1" stroke-dasharray="4 8" /><line x1="72" y1="452" x2="920" y2="452" stroke="#223045" stroke-width="1" stroke-dasharray="4 8" />
  <rect x="398.23" y="136.56" width="84" height="29.26" fill="#fbbf24" fill-opacity="0.12" stroke="#fbbf24" stroke-width="1.5" stroke-dasharray="6 6" />
  <line x1="72.00" y1="355.27" x2="72.00" y2="393.02" stroke="#0ecb81" stroke-width="1.4" /><rect x="69.00" y="374.14" width="6" height="4.72" rx="1.5" fill="#0ecb81" /><line x1="82.73" y1="350.55" x2="82.73" y2="409.53" stroke="#0ecb81" stroke-width="1.4" /><rect x="79.73" y="355.27" width="6" height="16.51" rx="1.5" fill="#0ecb81" /><line x1="93.47" y1="343.47" x2="93.47" y2="381.22" stroke="#f6465d" stroke-width="1.4" /><rect x="90.47" y="352.91" width="6" height="21.23" rx="1.5" fill="#f6465d" /><line x1="104.20" y1="355.27" x2="104.20" y2="400.10" stroke="#0ecb81" stroke-width="1.4" /><rect x="101.20" y="371.78" width="6" height="2.36" rx="1.5" fill="#0ecb81" /><line x1="114.94" y1="367.07" x2="114.94" y2="404.81" stroke="#f6465d" stroke-width="1.4" /><rect x="111.94" y="371.78" width="6" height="18.87" rx="1.5" fill="#f6465d" /><line x1="125.67" y1="383.58" x2="125.67" y2="421.33" stroke="#f6465d" stroke-width="1.4" /><rect x="122.67" y="390.66" width="6" height="11.80" rx="1.5" fill="#f6465d" /><line x1="136.41" y1="390.66" x2="136.41" y2="423.69" stroke="#f6465d" stroke-width="1.4" /><rect x="133.41" y="400.10" width="6" height="21.23" rx="1.5" fill="#f6465d" /><line x1="147.14" y1="397.74" x2="147.14" y2="452.00" stroke="#0ecb81" stroke-width="1.4" /><rect x="144.14" y="404.81" width="6" height="14.16" rx="1.5" fill="#0ecb81" /><line x1="157.87" y1="246.74" x2="157.87" y2="414.25" stroke="#0ecb81" stroke-width="1.4" /><rect x="154.87" y="275.05" width="6" height="129.76" rx="1.5" fill="#0ecb81" /><line x1="168.61" y1="275.05" x2="168.61" y2="345.83" stroke="#f6465d" stroke-width="1.4" /><rect x="165.61" y="277.41" width="6" height="58.98" rx="1.5" fill="#f6465d" /><line x1="179.34" y1="279.77" x2="179.34" y2="352.91" stroke="#0ecb81" stroke-width="1.4" /><rect x="176.34" y="310.44" width="6" height="25.95" rx="1.5" fill="#0ecb81" /><line x1="190.08" y1="263.26" x2="190.08" y2="376.50" stroke="#f6465d" stroke-width="1.4" /><rect x="187.08" y="310.44" width="6" height="58.98" rx="1.5" fill="#f6465d" /><line x1="200.81" y1="310.44" x2="200.81" y2="374.14" stroke="#0ecb81" stroke-width="1.4" /><rect x="197.81" y="326.96" width="6" height="44.83" rx="1.5" fill="#0ecb81" /><line x1="211.54" y1="319.88" x2="211.54" y2="355.27" stroke="#f6465d" stroke-width="1.4" /><rect x="208.54" y="326.96" width="6" height="9.44" rx="1.5" fill="#f6465d" /><line x1="222.28" y1="305.72" x2="222.28" y2="348.19" stroke="#0ecb81" stroke-width="1.4" /><rect x="219.28" y="319.88" width="6" height="16.51" rx="1.5" fill="#0ecb81" /><line x1="233.01" y1="317.52" x2="233.01" y2="352.91" stroke="#f6465d" stroke-width="1.4" /><rect x="230.01" y="319.88" width="6" height="9.44" rx="1.5" fill="#f6465d" /><line x1="243.75" y1="319.88" x2="243.75" y2="345.83" stroke="#f6465d" stroke-width="1.4" /><rect x="240.75" y="331.68" width="6" height="7.08" rx="1.5" fill="#f6465d" /><line x1="254.48" y1="331.68" x2="254.48" y2="359.99" stroke="#f6465d" stroke-width="1.4" /><rect x="251.48" y="338.75" width="6" height="4.72" rx="1.5" fill="#f6465d" /><line x1="265.22" y1="326.96" x2="265.22" y2="352.91" stroke="#0ecb81" stroke-width="1.4" /><rect x="262.22" y="338.75" width="6" height="2.36" rx="1.5" fill="#0ecb81" /><line x1="275.95" y1="315.16" x2="275.95" y2="357.63" stroke="#0ecb81" stroke-width="1.4" /><rect x="272.95" y="331.68" width="6" height="7.08" rx="1.5" fill="#0ecb81" /><line x1="286.68" y1="303.37" x2="286.68" y2="355.27" stroke="#0ecb81" stroke-width="1.4" /><rect x="283.68" y="324.60" width="6" height="7.08" rx="1.5" fill="#0ecb81" /><line x1="297.42" y1="291.57" x2="297.42" y2="334.04" stroke="#0ecb81" stroke-width="1.4" /><rect x="294.42" y="298.65" width="6" height="25.95" rx="1.5" fill="#0ecb81" /><line x1="308.15" y1="246.74" x2="308.15" y2="301.01" stroke="#0ecb81" stroke-width="1.4" /><rect x="305.15" y="263.26" width="6" height="33.03" rx="1.5" fill="#0ecb81" /><line x1="318.89" y1="208.99" x2="318.89" y2="293.93" stroke="#0ecb81" stroke-width="1.4" /><rect x="315.89" y="230.23" width="6" height="30.67" rx="1.5" fill="#0ecb81" /><line x1="329.62" y1="206.63" x2="329.62" y2="256.18" stroke="#0ecb81" stroke-width="1.4" /><rect x="326.62" y="230.23" width="6" height="2.00" rx="1.5" fill="#0ecb81" /><line x1="340.35" y1="201.92" x2="340.35" y2="249.10" stroke="#f6465d" stroke-width="1.4" /><rect x="337.35" y="227.87" width="6" height="16.51" rx="1.5" fill="#f6465d" /><line x1="351.09" y1="206.63" x2="351.09" y2="263.26" stroke="#0ecb81" stroke-width="1.4" /><rect x="348.09" y="230.23" width="6" height="11.80" rx="1.5" fill="#0ecb81" /><line x1="361.82" y1="199.56" x2="361.82" y2="244.38" stroke="#0ecb81" stroke-width="1.4" /><rect x="358.82" y="213.71" width="6" height="14.16" rx="1.5" fill="#0ecb81" /><line x1="372.56" y1="187.76" x2="372.56" y2="230.23" stroke="#0ecb81" stroke-width="1.4" /><rect x="369.56" y="208.99" width="6" height="2.36" rx="1.5" fill="#0ecb81" /><line x1="383.29" y1="168.89" x2="383.29" y2="216.07" stroke="#0ecb81" stroke-width="1.4" /><rect x="380.29" y="192.48" width="6" height="14.16" rx="1.5" fill="#0ecb81" /><line x1="394.03" y1="126.42" x2="394.03" y2="216.07" stroke="#f6465d" stroke-width="1.4" /><rect x="391.03" y="192.48" width="6" height="2.36" rx="1.5" fill="#f6465d" /><line x1="404.76" y1="183.04" x2="404.76" y2="216.07" stroke="#0ecb81" stroke-width="1.4" /><rect x="401.76" y="187.76" width="6" height="7.08" rx="1.5" fill="#0ecb81" /><line x1="415.49" y1="131.14" x2="415.49" y2="201.92" stroke="#0ecb81" stroke-width="1.4" /><rect x="412.49" y="142.93" width="6" height="44.83" rx="1.5" fill="#0ecb81" /><line x1="426.23" y1="58.00" x2="426.23" y2="187.76" stroke="#f6465d" stroke-width="1.4" /><rect x="423.23" y="142.93" width="6" height="42.47" rx="1.5" fill="#f6465d" /><line x1="436.96" y1="126.42" x2="436.96" y2="190.12" stroke="#0ecb81" stroke-width="1.4" /><rect x="433.96" y="128.78" width="6" height="54.26" rx="1.5" fill="#0ecb81" /><line x1="447.70" y1="76.87" x2="447.70" y2="145.29" stroke="#0ecb81" stroke-width="1.4" /><rect x="444.70" y="112.26" width="6" height="16.51" rx="1.5" fill="#0ecb81" /><line x1="458.43" y1="98.11" x2="458.43" y2="150.01" stroke="#f6465d" stroke-width="1.4" /><rect x="455.43" y="112.26" width="6" height="35.39" rx="1.5" fill="#f6465d" /><line x1="469.16" y1="138.22" x2="469.16" y2="190.12" stroke="#0ecb81" stroke-width="1.4" /><rect x="466.16" y="147.65" width="6" height="2.36" rx="1.5" fill="#0ecb81" /><line x1="479.90" y1="126.42" x2="479.90" y2="159.45" stroke="#f6465d" stroke-width="1.4" /><rect x="476.90" y="147.65" width="6" height="4.72" rx="1.5" fill="#f6465d" /><line x1="490.63" y1="119.34" x2="490.63" y2="157.09" stroke="#0ecb81" stroke-width="1.4" /><rect x="487.63" y="126.42" width="6" height="23.59" rx="1.5" fill="#0ecb81" /><line x1="501.37" y1="126.42" x2="501.37" y2="178.32" stroke="#f6465d" stroke-width="1.4" /><rect x="498.37" y="126.42" width="6" height="47.19" rx="1.5" fill="#f6465d" /><line x1="512.10" y1="173.60" x2="512.10" y2="208.99" stroke="#f6465d" stroke-width="1.4" /><rect x="509.10" y="175.96" width="6" height="2.36" rx="1.5" fill="#f6465d" /><line x1="522.84" y1="166.53" x2="522.84" y2="201.92" stroke="#f6465d" stroke-width="1.4" /><rect x="519.84" y="175.96" width="6" height="23.59" rx="1.5" fill="#f6465d" /><line x1="533.57" y1="199.56" x2="533.57" y2="220.79" stroke="#f6465d" stroke-width="1.4" /><rect x="530.57" y="199.56" width="6" height="9.44" rx="1.5" fill="#f6465d" /><line x1="544.30" y1="197.20" x2="544.30" y2="218.43" stroke="#0ecb81" stroke-width="1.4" /><rect x="541.30" y="201.92" width="6" height="9.44" rx="1.5" fill="#0ecb81" /><line x1="555.04" y1="161.81" x2="555.04" y2="216.07" stroke="#0ecb81" stroke-width="1.4" /><rect x="552.04" y="166.53" width="6" height="35.39" rx="1.5" fill="#0ecb81" /><line x1="565.77" y1="154.73" x2="565.77" y2="206.63" stroke="#f6465d" stroke-width="1.4" /><rect x="562.77" y="166.53" width="6" height="25.95" rx="1.5" fill="#f6465d" /><line x1="576.51" y1="187.76" x2="576.51" y2="227.87" stroke="#f6465d" stroke-width="1.4" /><rect x="573.51" y="192.48" width="6" height="30.67" rx="1.5" fill="#f6465d" /><line x1="587.24" y1="175.96" x2="587.24" y2="232.59" stroke="#0ecb81" stroke-width="1.4" /><rect x="584.24" y="180.68" width="6" height="42.47" rx="1.5" fill="#0ecb81" /><line x1="597.97" y1="178.32" x2="597.97" y2="211.35" stroke="#f6465d" stroke-width="1.4" /><rect x="594.97" y="178.32" width="6" height="23.59" rx="1.5" fill="#f6465d" /><line x1="608.71" y1="187.76" x2="608.71" y2="258.54" stroke="#f6465d" stroke-width="1.4" /><rect x="605.71" y="201.92" width="6" height="30.67" rx="1.5" fill="#f6465d" /><line x1="619.44" y1="225.51" x2="619.44" y2="246.74" stroke="#f6465d" stroke-width="1.4" /><rect x="616.44" y="232.59" width="6" height="9.44" rx="1.5" fill="#f6465d" /><line x1="630.18" y1="216.07" x2="630.18" y2="251.46" stroke="#0ecb81" stroke-width="1.4" /><rect x="627.18" y="218.43" width="6" height="25.95" rx="1.5" fill="#0ecb81" /><line x1="640.91" y1="201.92" x2="640.91" y2="225.51" stroke="#0ecb81" stroke-width="1.4" /><rect x="637.91" y="211.35" width="6" height="7.08" rx="1.5" fill="#0ecb81" /><line x1="651.65" y1="206.63" x2="651.65" y2="232.59" stroke="#f6465d" stroke-width="1.4" /><rect x="648.65" y="211.35" width="6" height="14.16" rx="1.5" fill="#f6465d" /><line x1="662.38" y1="218.43" x2="662.38" y2="242.02" stroke="#f6465d" stroke-width="1.4" /><rect x="659.38" y="225.51" width="6" height="7.08" rx="1.5" fill="#f6465d" /><line x1="673.11" y1="204.28" x2="673.11" y2="249.10" stroke="#0ecb81" stroke-width="1.4" /><rect x="670.11" y="208.99" width="6" height="23.59" rx="1.5" fill="#0ecb81" /><line x1="683.85" y1="166.53" x2="683.85" y2="213.71" stroke="#0ecb81" stroke-width="1.4" /><rect x="680.85" y="206.63" width="6" height="2.36" rx="1.5" fill="#0ecb81" /><line x1="694.58" y1="166.53" x2="694.58" y2="208.99" stroke="#0ecb81" stroke-width="1.4" /><rect x="691.58" y="201.92" width="6" height="2.36" rx="1.5" fill="#0ecb81" /><line x1="705.32" y1="140.57" x2="705.32" y2="204.28" stroke="#0ecb81" stroke-width="1.4" /><rect x="702.32" y="152.37" width="6" height="49.54" rx="1.5" fill="#0ecb81" /><line x1="716.05" y1="140.57" x2="716.05" y2="166.53" stroke="#f6465d" stroke-width="1.4" /><rect x="713.05" y="152.37" width="6" height="11.80" rx="1.5" fill="#f6465d" /><line x1="726.78" y1="91.03" x2="726.78" y2="164.17" stroke="#0ecb81" stroke-width="1.4" /><rect x="723.78" y="140.57" width="6" height="23.59" rx="1.5" fill="#0ecb81" /><line x1="737.52" y1="126.42" x2="737.52" y2="152.37" stroke="#f6465d" stroke-width="1.4" /><rect x="734.52" y="142.93" width="6" height="9.44" rx="1.5" fill="#f6465d" /><line x1="748.25" y1="131.14" x2="748.25" y2="164.17" stroke="#0ecb81" stroke-width="1.4" /><rect x="745.25" y="152.37" width="6" height="2.00" rx="1.5" fill="#0ecb81" /><line x1="758.99" y1="131.14" x2="758.99" y2="178.32" stroke="#0ecb81" stroke-width="1.4" /><rect x="755.99" y="140.57" width="6" height="9.44" rx="1.5" fill="#0ecb81" /><line x1="769.72" y1="133.50" x2="769.72" y2="150.01" stroke="#f6465d" stroke-width="1.4" /><rect x="766.72" y="140.57" width="6" height="2.36" rx="1.5" fill="#f6465d" /><line x1="780.46" y1="121.70" x2="780.46" y2="147.65" stroke="#0ecb81" stroke-width="1.4" /><rect x="777.46" y="133.50" width="6" height="7.08" rx="1.5" fill="#0ecb81" /><line x1="791.19" y1="128.78" x2="791.19" y2="171.25" stroke="#f6465d" stroke-width="1.4" /><rect x="788.19" y="133.50" width="6" height="25.95" rx="1.5" fill="#f6465d" /><line x1="801.92" y1="135.86" x2="801.92" y2="173.60" stroke="#0ecb81" stroke-width="1.4" /><rect x="798.92" y="157.09" width="6" height="4.72" rx="1.5" fill="#0ecb81" /><line x1="812.66" y1="152.37" x2="812.66" y2="171.25" stroke="#f6465d" stroke-width="1.4" /><rect x="809.66" y="157.09" width="6" height="11.80" rx="1.5" fill="#f6465d" /><line x1="823.39" y1="161.81" x2="823.39" y2="190.12" stroke="#f6465d" stroke-width="1.4" /><rect x="820.39" y="171.25" width="6" height="16.51" rx="1.5" fill="#f6465d" /><line x1="834.13" y1="185.40" x2="834.13" y2="239.66" stroke="#f6465d" stroke-width="1.4" /><rect x="831.13" y="190.12" width="6" height="42.47" rx="1.5" fill="#f6465d" /><line x1="844.86" y1="227.87" x2="844.86" y2="286.85" stroke="#f6465d" stroke-width="1.4" /><rect x="841.86" y="232.59" width="6" height="25.95" rx="1.5" fill="#f6465d" /><line x1="855.59" y1="249.10" x2="855.59" y2="293.93" stroke="#f6465d" stroke-width="1.4" /><rect x="852.59" y="256.18" width="6" height="25.95" rx="1.5" fill="#f6465d" /><line x1="866.33" y1="265.62" x2="866.33" y2="289.21" stroke="#0ecb81" stroke-width="1.4" /><rect x="863.33" y="275.05" width="6" height="7.08" rx="1.5" fill="#0ecb81" /><line x1="877.06" y1="260.90" x2="877.06" y2="284.49" stroke="#0ecb81" stroke-width="1.4" /><rect x="874.06" y="272.69" width="6" height="2.36" rx="1.5" fill="#0ecb81" /><line x1="887.80" y1="251.46" x2="887.80" y2="315.16" stroke="#f6465d" stroke-width="1.4" /><rect x="884.80" y="272.69" width="6" height="42.47" rx="1.5" fill="#f6465d" /><line x1="898.53" y1="265.62" x2="898.53" y2="336.40" stroke="#0ecb81" stroke-width="1.4" /><rect x="895.53" y="270.34" width="6" height="44.83" rx="1.5" fill="#0ecb81" /><line x1="909.27" y1="270.34" x2="909.27" y2="322.24" stroke="#f6465d" stroke-width="1.4" /><rect x="906.27" y="270.34" width="6" height="28.31" rx="1.5" fill="#f6465d" /><line x1="920.00" y1="296.29" x2="920.00" y2="301.01" stroke="#0ecb81" stroke-width="1.4" /><rect x="917.00" y="296.29" width="6" height="2.36" rx="1.5" fill="#0ecb81" />
  <polyline points="93.47,343.47 147.14,452.00 157.87,246.74 254.48,359.99 426.23,58.00" fill="none" stroke="#2fc273" stroke-width="4" stroke-linecap="round" stroke-linejoin="round" />
  <circle cx="93.47" cy="343.47" r="5.5" fill="#2fc273" fill-opacity="0.15" stroke="#2fc273" stroke-width="2" /><text x="93.47" y="331.47" fill="#f3f4f6" font-size="15" font-weight="700" text-anchor="middle">X</text><circle cx="147.14" cy="452.00" r="5.5" fill="#2fc273" fill-opacity="0.15" stroke="#2fc273" stroke-width="2" /><text x="147.14" y="440.00" fill="#f3f4f6" font-size="15" font-weight="700" text-anchor="middle">A</text><circle cx="157.87" cy="246.74" r="5.5" fill="#2fc273" fill-opacity="0.15" stroke="#2fc273" stroke-width="2" /><text x="157.87" y="234.74" fill="#f3f4f6" font-size="15" font-weight="700" text-anchor="middle">B</text><circle cx="254.48" cy="359.99" r="5.5" fill="#2fc273" fill-opacity="0.15" stroke="#2fc273" stroke-width="2" /><text x="254.48" y="347.99" fill="#f3f4f6" font-size="15" font-weight="700" text-anchor="middle">C</text><circle cx="426.23" cy="58.00" r="5.5" fill="#2fc273" fill-opacity="0.15" stroke="#2fc273" stroke-width="2" /><text x="426.23" y="46.00" fill="#f3f4f6" font-size="15" font-weight="700" text-anchor="middle">D</text>
  <text x="56" y="492" fill="#8ba0b5" font-size="18">일반 완성 · TP1 0.24641 · TP2 0.24339 · SL 0.2519</text>
</svg>
