<svg xmlns="http://www.w3.org/2000/svg" width="960" height="540" viewBox="0 0 960 540">
  <rect width="960" height="540" rx="24" fill="#0b1220" />
  <rect x="28" y="28" width="904" height="484" rx="22" fill="#111827" stroke="#1f2937" />
  <text x="56" y="74" fill="#f3f4f6" font-size="34" font-weight="700">APRUSDT · AB=CD</text>
  <text x="904" y="74" fill="#8ba0b5" font-size="20" text-anchor="end">Bullish (매수) · Score 89.7</text>
  <line x1="72" y1="58" x2="920" y2="58" stroke="#223045" stroke-width="1" stroke-dasharray="4 8" /><line x1="72" y1="156" x2="920" y2="156" stroke="#223045" stroke-width="1" stroke-dasharray="4 8" /><line x1="72" y1="255" x2="920" y2="255" stroke="#223045" stroke-width="1" stroke-dasharray="4 8" /><line x1="72" y1="353" x2="920" y2="353" stroke="#223045" stroke-width="1" stroke-dasharray="4 8" /><line x1="72" y1="452" x2="920" y2="452" stroke="#223045" stroke-width="1" stroke-dasharray="4 8" />
  <rect x="784.66" y="420.85" width="84" height="13.12" fill="#fbbf24" fill-opacity="0.12" stroke="#fbbf24" stroke-width="1.5" stroke-dasharray="6 6" />
  <line x1="72.00" y1="351.32" x2="72.00" y2="358.46" stroke="#0ecb81" stroke-width="1.4" /><rect x="69.00" y="356.03" width="6" height="2.43" rx="1.5" fill="#0ecb81" /><line x1="82.73" y1="355.22" x2="82.73" y2="362.97" stroke="#f6465d" stroke-width="1.4" /><rect x="79.73" y="356.13" width="6" height="6.33" rx="1.5" fill="#f6465d" /><line x1="93.47" y1="355.37" x2="93.47" y2="363.48" stroke="#0ecb81" stroke-width="1.4" /><rect x="90.47" y="361.30" width="6" height="2.00" rx="1.5" fill="#0ecb81" /><line x1="104.20" y1="358.97" x2="104.20" y2="372.34" stroke="#f6465d" stroke-width="1.4" /><rect x="101.20" y="361.05" width="6" height="6.74" rx="1.5" fill="#f6465d" /><line x1="114.94" y1="364.08" x2="114.94" y2="400.24" stroke="#f6465d" stroke-width="1.4" /><rect x="111.94" y="367.53" width="6" height="29.63" rx="1.5" fill="#f6465d" /><line x1="125.67" y1="376.14" x2="125.67" y2="399.69" stroke="#0ecb81" stroke-width="1.4" /><rect x="122.67" y="385.96" width="6" height="11.14" rx="1.5" fill="#0ecb81" /><line x1="136.41" y1="379.07" x2="136.41" y2="388.34" stroke="#0ecb81" stroke-width="1.4" /><rect x="133.41" y="384.59" width="6" height="2.00" rx="1.5" fill="#0ecb81" /><line x1="147.14" y1="383.13" x2="147.14" y2="391.68" stroke="#f6465d" stroke-width="1.4" /><rect x="144.14" y="384.70" width="6" height="5.57" rx="1.5" fill="#f6465d" /><line x1="157.87" y1="358.97" x2="157.87" y2="396.65" stroke="#0ecb81" stroke-width="1.4" /><rect x="154.87" y="361.50" width="6" height="28.82" rx="1.5" fill="#0ecb81" /><line x1="168.61" y1="341.24" x2="168.61" y2="363.98" stroke="#0ecb81" stroke-width="1.4" /><rect x="165.61" y="346.92" width="6" height="14.59" rx="1.5" fill="#0ecb81" /><line x1="179.34" y1="299.72" x2="179.34" y2="357.70" stroke="#0ecb81" stroke-width="1.4" /><rect x="176.34" y="302.65" width="6" height="44.67" rx="1.5" fill="#0ecb81" /><line x1="190.08" y1="275.21" x2="190.08" y2="309.39" stroke="#0ecb81" stroke-width="1.4" /><rect x="187.08" y="298.40" width="6" height="4.25" rx="1.5" fill="#0ecb81" /><line x1="200.81" y1="281.44" x2="200.81" y2="320.63" stroke="#f6465d" stroke-width="1.4" /><rect x="197.81" y="298.65" width="6" height="13.72" rx="1.5" fill="#f6465d" /><line x1="211.54" y1="241.78" x2="211.54" y2="319.57" stroke="#0ecb81" stroke-width="1.4" /><rect x="208.54" y="247.40" width="6" height="65.03" rx="1.5" fill="#0ecb81" /><line x1="222.28" y1="232.11" x2="222.28" y2="263.25" stroke="#f6465d" stroke-width="1.4" /><rect x="219.28" y="247.35" width="6" height="7.44" rx="1.5" fill="#f6465d" /><line x1="233.01" y1="244.97" x2="233.01" y2="389.71" stroke="#f6465d" stroke-width="1.4" /><rect x="230.01" y="254.90" width="6" height="126.96" rx="1.5" fill="#f6465d" /><line x1="243.75" y1="354.31" x2="243.75" y2="413.06" stroke="#f6465d" stroke-width="1.4" /><rect x="240.75" y="381.86" width="6" height="24.81" rx="1.5" fill="#f6465d" /><line x1="254.48" y1="399.23" x2="254.48" y2="438.63" stroke="#f6465d" stroke-width="1.4" /><rect x="251.48" y="406.67" width="6" height="28.06" rx="1.5" fill="#f6465d" /><line x1="265.22" y1="400.65" x2="265.22" y2="452.00" stroke="#0ecb81" stroke-width="1.4" /><rect x="262.22" y="410.73" width="6" height="24.16" rx="1.5" fill="#0ecb81" /><line x1="275.95" y1="404.29" x2="275.95" y2="424.86" stroke="#f6465d" stroke-width="1.4" /><rect x="272.95" y="410.62" width="6" height="11.90" rx="1.5" fill="#f6465d" /><line x1="286.68" y1="405.36" x2="286.68" y2="426.78" stroke="#0ecb81" stroke-width="1.4" /><rect x="283.68" y="406.88" width="6" height="15.45" rx="1.5" fill="#0ecb81" /><line x1="297.42" y1="402.02" x2="297.42" y2="415.33" stroke="#f6465d" stroke-width="1.4" /><rect x="294.42" y="406.83" width="6" height="3.49" rx="1.5" fill="#f6465d" /><line x1="308.15" y1="404.70" x2="308.15" y2="421.01" stroke="#f6465d" stroke-width="1.4" /><rect x="305.15" y="410.37" width="6" height="2.00" rx="1.5" fill="#f6465d" /><line x1="318.89" y1="395.74" x2="318.89" y2="414.78" stroke="#0ecb81" stroke-width="1.4" /><rect x="315.89" y="408.45" width="6" height="3.34" rx="1.5" fill="#0ecb81" /><line x1="329.62" y1="364.24" x2="329.62" y2="411.13" stroke="#0ecb81" stroke-width="1.4" /><rect x="326.62" y="370.57" width="6" height="37.88" rx="1.5" fill="#0ecb81" /><line x1="340.35" y1="347.68" x2="340.35" y2="374.01" stroke="#0ecb81" stroke-width="1.4" /><rect x="337.35" y="361.96" width="6" height="8.66" rx="1.5" fill="#0ecb81" /><line x1="351.09" y1="358.01" x2="351.09" y2="375.88" stroke="#f6465d" stroke-width="1.4" /><rect x="348.09" y="361.96" width="6" height="3.75" rx="1.5" fill="#f6465d" /><line x1="361.82" y1="351.78" x2="361.82" y2="369.40" stroke="#0ecb81" stroke-width="1.4" /><rect x="358.82" y="365.30" width="6" height="2.00" rx="1.5" fill="#0ecb81" /><line x1="372.56" y1="348.99" x2="372.56" y2="365.30" stroke="#0ecb81" stroke-width="1.4" /><rect x="369.56" y="350.77" width="6" height="14.28" rx="1.5" fill="#0ecb81" /><line x1="383.29" y1="339.73" x2="383.29" y2="407.84" stroke="#f6465d" stroke-width="1.4" /><rect x="380.29" y="350.77" width="6" height="56.06" rx="1.5" fill="#f6465d" /><line x1="394.03" y1="387.89" x2="394.03" y2="414.07" stroke="#f6465d" stroke-width="1.4" /><rect x="391.03" y="406.83" width="6" height="2.23" rx="1.5" fill="#f6465d" /><line x1="404.76" y1="403.18" x2="404.76" y2="422.17" stroke="#f6465d" stroke-width="1.4" /><rect x="401.76" y="409.66" width="6" height="7.85" rx="1.5" fill="#f6465d" /><line x1="415.49" y1="402.93" x2="415.49" y2="418.68" stroke="#0ecb81" stroke-width="1.4" /><rect x="412.49" y="409.81" width="6" height="7.75" rx="1.5" fill="#0ecb81" /><line x1="426.23" y1="404.90" x2="426.23" y2="420.85" stroke="#f6465d" stroke-width="1.4" /><rect x="423.23" y="409.11" width="6" height="5.52" rx="1.5" fill="#f6465d" /><line x1="436.96" y1="405.86" x2="436.96" y2="415.33" stroke="#0ecb81" stroke-width="1.4" /><rect x="433.96" y="408.70" width="6" height="5.77" rx="1.5" fill="#0ecb81" /><line x1="447.70" y1="403.64" x2="447.70" y2="414.73" stroke="#f6465d" stroke-width="1.4" /><rect x="444.70" y="408.60" width="6" height="2.00" rx="1.5" fill="#f6465d" /><line x1="458.43" y1="405.51" x2="458.43" y2="413.41" stroke="#f6465d" stroke-width="1.4" /><rect x="455.43" y="409.16" width="6" height="2.53" rx="1.5" fill="#f6465d" /><line x1="469.16" y1="408.35" x2="469.16" y2="419.94" stroke="#f6465d" stroke-width="1.4" /><rect x="466.16" y="411.44" width="6" height="6.58" rx="1.5" fill="#f6465d" /><line x1="479.90" y1="390.87" x2="479.90" y2="419.18" stroke="#0ecb81" stroke-width="1.4" /><rect x="476.90" y="402.98" width="6" height="15.04" rx="1.5" fill="#0ecb81" /><line x1="490.63" y1="395.48" x2="490.63" y2="410.17" stroke="#f6465d" stroke-width="1.4" /><rect x="487.63" y="403.23" width="6" height="4.71" rx="1.5" fill="#f6465d" /><line x1="501.37" y1="400.55" x2="501.37" y2="412.65" stroke="#0ecb81" stroke-width="1.4" /><rect x="498.37" y="406.12" width="6" height="2.00" rx="1.5" fill="#0ecb81" /><line x1="512.10" y1="403.48" x2="512.10" y2="418.37" stroke="#f6465d" stroke-width="1.4" /><rect x="509.10" y="406.12" width="6" height="9.88" rx="1.5" fill="#f6465d" /><line x1="522.84" y1="413.71" x2="522.84" y2="425.31" stroke="#f6465d" stroke-width="1.4" /><rect x="519.84" y="415.54" width="6" height="3.90" rx="1.5" fill="#f6465d" /><line x1="533.57" y1="406.47" x2="533.57" y2="423.64" stroke="#0ecb81" stroke-width="1.4" /><rect x="530.57" y="410.83" width="6" height="9.12" rx="1.5" fill="#0ecb81" /><line x1="544.30" y1="404.45" x2="544.30" y2="413.82" stroke="#f6465d" stroke-width="1.4" /><rect x="541.30" y="410.47" width="6" height="2.00" rx="1.5" fill="#f6465d" /><line x1="555.04" y1="396.65" x2="555.04" y2="413.92" stroke="#0ecb81" stroke-width="1.4" /><rect x="552.04" y="402.72" width="6" height="8.66" rx="1.5" fill="#0ecb81" /><line x1="565.77" y1="390.42" x2="565.77" y2="402.32" stroke="#0ecb81" stroke-width="1.4" /><rect x="562.77" y="399.74" width="6" height="2.58" rx="1.5" fill="#0ecb81" /><line x1="576.51" y1="397.46" x2="576.51" y2="409.92" stroke="#f6465d" stroke-width="1.4" /><rect x="573.51" y="399.53" width="6" height="9.47" rx="1.5" fill="#f6465d" /><line x1="587.24" y1="396.70" x2="587.24" y2="412.50" stroke="#0ecb81" stroke-width="1.4" /><rect x="584.24" y="407.08" width="6" height="2.00" rx="1.5" fill="#0ecb81" /><line x1="597.97" y1="400.65" x2="597.97" y2="408.90" stroke="#f6465d" stroke-width="1.4" /><rect x="594.97" y="407.03" width="6" height="2.00" rx="1.5" fill="#f6465d" /><line x1="608.71" y1="402.22" x2="608.71" y2="408.04" stroke="#0ecb81" stroke-width="1.4" /><rect x="605.71" y="406.37" width="6" height="2.00" rx="1.5" fill="#0ecb81" /><line x1="619.44" y1="404.40" x2="619.44" y2="408.19" stroke="#0ecb81" stroke-width="1.4" /><rect x="616.44" y="405.21" width="6" height="2.00" rx="1.5" fill="#0ecb81" /><line x1="630.18" y1="404.50" x2="630.18" y2="417.87" stroke="#f6465d" stroke-width="1.4" /><rect x="627.18" y="405.16" width="6" height="6.08" rx="1.5" fill="#f6465d" /><line x1="640.91" y1="398.22" x2="640.91" y2="411.84" stroke="#0ecb81" stroke-width="1.4" /><rect x="637.91" y="401.21" width="6" height="10.03" rx="1.5" fill="#0ecb81" /><line x1="651.65" y1="385.86" x2="651.65" y2="406.07" stroke="#0ecb81" stroke-width="1.4" /><rect x="648.65" y="396.95" width="6" height="4.25" rx="1.5" fill="#0ecb81" /><line x1="662.38" y1="395.84" x2="662.38" y2="405.05" stroke="#f6465d" stroke-width="1.4" /><rect x="659.38" y="396.60" width="6" height="5.11" rx="1.5" fill="#f6465d" /><line x1="673.11" y1="401.46" x2="673.11" y2="411.33" stroke="#f6465d" stroke-width="1.4" /><rect x="670.11" y="401.66" width="6" height="6.03" rx="1.5" fill="#f6465d" /><line x1="683.85" y1="403.33" x2="683.85" y2="412.09" stroke="#f6465d" stroke-width="1.4" /><rect x="680.85" y="407.69" width="6" height="2.00" rx="1.5" fill="#f6465d" /><line x1="694.58" y1="405.36" x2="694.58" y2="419.49" stroke="#0ecb81" stroke-width="1.4" /><rect x="691.58" y="408.35" width="6" height="2.00" rx="1.5" fill="#0ecb81" /><line x1="705.32" y1="395.63" x2="705.32" y2="408.19" stroke="#0ecb81" stroke-width="1.4" /><rect x="702.32" y="403.08" width="6" height="5.11" rx="1.5" fill="#0ecb81" /><line x1="716.05" y1="389.30" x2="716.05" y2="405.46" stroke="#0ecb81" stroke-width="1.4" /><rect x="713.05" y="394.47" width="6" height="8.61" rx="1.5" fill="#0ecb81" /><line x1="726.78" y1="389.10" x2="726.78" y2="402.47" stroke="#f6465d" stroke-width="1.4" /><rect x="723.78" y="394.52" width="6" height="6.08" rx="1.5" fill="#f6465d" /><line x1="737.52" y1="399.99" x2="737.52" y2="415.54" stroke="#f6465d" stroke-width="1.4" /><rect x="734.52" y="400.24" width="6" height="6.68" rx="1.5" fill="#f6465d" /><line x1="748.25" y1="403.48" x2="748.25" y2="413.66" stroke="#0ecb81" stroke-width="1.4" /><rect x="745.25" y="403.48" width="6" height="3.70" rx="1.5" fill="#0ecb81" /><line x1="758.99" y1="393.76" x2="758.99" y2="413.97" stroke="#f6465d" stroke-width="1.4" /><rect x="755.99" y="403.48" width="6" height="7.55" rx="1.5" fill="#f6465d" /><line x1="769.72" y1="404.75" x2="769.72" y2="413.66" stroke="#0ecb81" stroke-width="1.4" /><rect x="766.72" y="406.78" width="6" height="4.30" rx="1.5" fill="#0ecb81" /><line x1="780.46" y1="395.08" x2="780.46" y2="409.06" stroke="#0ecb81" stroke-width="1.4" /><rect x="777.46" y="402.52" width="6" height="4.25" rx="1.5" fill="#0ecb81" /><line x1="791.19" y1="394.52" x2="791.19" y2="408.45" stroke="#0ecb81" stroke-width="1.4" /><rect x="788.19" y="397.41" width="6" height="5.11" rx="1.5" fill="#0ecb81" /><line x1="801.92" y1="394.42" x2="801.92" y2="416.90" stroke="#f6465d" stroke-width="1.4" /><rect x="798.92" y="397.36" width="6" height="11.65" rx="1.5" fill="#f6465d" /><line x1="812.66" y1="398.27" x2="812.66" y2="422.07" stroke="#f6465d" stroke-width="1.4" /><rect x="809.66" y="409.00" width="6" height="3.80" rx="1.5" fill="#f6465d" /><line x1="823.39" y1="407.23" x2="823.39" y2="415.59" stroke="#0ecb81" stroke-width="1.4" /><rect x="820.39" y="409.51" width="6" height="3.29" rx="1.5" fill="#0ecb81" /><line x1="834.13" y1="409.06" x2="834.13" y2="416.35" stroke="#f6465d" stroke-width="1.4" /><rect x="831.13" y="409.56" width="6" height="4.36" rx="1.5" fill="#f6465d" /><line x1="844.86" y1="352.59" x2="844.86" y2="418.22" stroke="#0ecb81" stroke-width="1.4" /><rect x="841.86" y="356.34" width="6" height="57.63" rx="1.5" fill="#0ecb81" /><line x1="855.59" y1="279.00" x2="855.59" y2="364.59" stroke="#0ecb81" stroke-width="1.4" /><rect x="852.59" y="296.73" width="6" height="59.45" rx="1.5" fill="#0ecb81" /><line x1="866.33" y1="245.07" x2="866.33" y2="314.91" stroke="#0ecb81" stroke-width="1.4" /><rect x="863.33" y="265.38" width="6" height="30.99" rx="1.5" fill="#0ecb81" /><line x1="877.06" y1="241.28" x2="877.06" y2="277.79" stroke="#0ecb81" stroke-width="1.4" /><rect x="874.06" y="255.86" width="6" height="9.22" rx="1.5" fill="#0ecb81" /><line x1="887.80" y1="227.15" x2="887.80" y2="263.71" stroke="#0ecb81" stroke-width="1.4" /><rect x="884.80" y="233.78" width="6" height="22.28" rx="1.5" fill="#0ecb81" /><line x1="898.53" y1="126.52" x2="898.53" y2="238.49" stroke="#0ecb81" stroke-width="1.4" /><rect x="895.53" y="140.55" width="6" height="93.49" rx="1.5" fill="#0ecb81" /><line x1="909.27" y1="80.13" x2="909.27" y2="164.70" stroke="#0ecb81" stroke-width="1.4" /><rect x="906.27" y="126.98" width="6" height="13.57" rx="1.5" fill="#0ecb81" /><line x1="920.00" y1="58.00" x2="920.00" y2="141.26" stroke="#0ecb81" stroke-width="1.4" /><rect x="917.00" y="78.71" width="6" height="48.26" rx="1.5" fill="#0ecb81" />
  <polyline points="694.58,419.49 726.78,389.10 737.52,415.54 801.92,394.42 812.66,422.07" fill="none" stroke="#2fc273" stroke-width="4" stroke-linecap="round" stroke-linejoin="round" />
  <circle cx="694.58" cy="419.49" r="5.5" fill="#2fc273" fill-opacity="0.15" stroke="#2fc273" stroke-width="2" /><text x="694.58" y="407.49" fill="#f3f4f6" font-size="15" font-weight="700" text-anchor="middle">X</text><circle cx="726.78" cy="389.10" r="5.5" fill="#2fc273" fill-opacity="0.15" stroke="#2fc273" stroke-width="2" /><text x="726.78" y="377.10" fill="#f3f4f6" font-size="15" font-weight="700" text-anchor="middle">A</text><circle cx="737.52" cy="415.54" r="5.5" fill="#2fc273" fill-opacity="0.15" stroke="#2fc273" stroke-width="2" /><text x="737.52" y="403.54" fill="#f3f4f6" font-size="15" font-weight="700" text-anchor="middle">B</text><circle cx="801.92" cy="394.42" r="5.5" fill="#2fc273" fill-opacity="0.15" stroke="#2fc273" stroke-width="2" /><text x="801.92" y="382.42" fill="#f3f4f6" font-size="15" font-weight="700" text-anchor="middle">C</text><circle cx="812.66" cy="422.07" r="5.5" fill="#2fc273" fill-opacity="0.15" stroke="#2fc273" stroke-width="2" /><text x="812.66" y="410.07" fill="#f3f4f6" font-size="15" font-weight="700" text-anchor="middle">D</text>
  <text x="56" y="492" fill="#8ba0b5" font-size="18">일반 완성 · TP1 0.16907 · TP2 0.17035 · SL 0.1662</text>
</svg>
