<svg xmlns="http://www.w3.org/2000/svg" width="960" height="540" viewBox="0 0 960 540">
  <rect width="960" height="540" rx="24" fill="#0b1220" />
  <rect x="28" y="28" width="904" height="484" rx="22" fill="#111827" stroke="#1f2937" />
  <text x="56" y="74" fill="#f3f4f6" font-size="34" font-weight="700">ASTERUSDT · AB=CD</text>
  <text x="904" y="74" fill="#8ba0b5" font-size="20" text-anchor="end">Bearish (매도) · Score 90.7</text>
  <line x1="72" y1="58" x2="920" y2="58" stroke="#223045" stroke-width="1" stroke-dasharray="4 8" /><line x1="72" y1="156" x2="920" y2="156" stroke="#223045" stroke-width="1" stroke-dasharray="4 8" /><line x1="72" y1="255" x2="920" y2="255" stroke="#223045" stroke-width="1" stroke-dasharray="4 8" /><line x1="72" y1="353" x2="920" y2="353" stroke="#223045" stroke-width="1" stroke-dasharray="4 8" /><line x1="72" y1="452" x2="920" y2="452" stroke="#223045" stroke-width="1" stroke-dasharray="4 8" />
  <rect x="645.11" y="-2.93" width="84" height="91.68" fill="#fbbf24" fill-opacity="0.12" stroke="#fbbf24" stroke-width="1.5" stroke-dasharray="6 6" />
  <line x1="72.00" y1="207.91" x2="72.00" y2="284.79" stroke="#0ecb81" stroke-width="1.4" /><rect x="69.00" y="219.44" width="6" height="53.81" rx="1.5" fill="#0ecb81" /><line x1="82.73" y1="140.64" x2="82.73" y2="223.29" stroke="#0ecb81" stroke-width="1.4" /><rect x="79.73" y="157.94" width="6" height="61.50" rx="1.5" fill="#0ecb81" /><line x1="93.47" y1="117.58" x2="93.47" y2="275.18" stroke="#f6465d" stroke-width="1.4" /><rect x="90.47" y="159.86" width="6" height="115.32" rx="1.5" fill="#f6465d" /><line x1="104.20" y1="230.98" x2="104.20" y2="277.10" stroke="#0ecb81" stroke-width="1.4" /><rect x="101.20" y="242.51" width="6" height="32.67" rx="1.5" fill="#0ecb81" /><line x1="114.94" y1="205.99" x2="114.94" y2="257.88" stroke="#0ecb81" stroke-width="1.4" /><rect x="111.94" y="227.13" width="6" height="15.38" rx="1.5" fill="#0ecb81" /><line x1="125.67" y1="161.79" x2="125.67" y2="236.74" stroke="#0ecb81" stroke-width="1.4" /><rect x="122.67" y="186.77" width="6" height="42.28" rx="1.5" fill="#0ecb81" /><line x1="136.41" y1="163.71" x2="136.41" y2="219.44" stroke="#0ecb81" stroke-width="1.4" /><rect x="133.41" y="179.08" width="6" height="5.77" rx="1.5" fill="#0ecb81" /><line x1="147.14" y1="134.88" x2="147.14" y2="181.00" stroke="#0ecb81" stroke-width="1.4" /><rect x="144.14" y="159.86" width="6" height="19.22" rx="1.5" fill="#0ecb81" /><line x1="157.87" y1="134.88" x2="157.87" y2="202.15" stroke="#f6465d" stroke-width="1.4" /><rect x="154.87" y="159.86" width="6" height="38.44" rx="1.5" fill="#f6465d" /><line x1="168.61" y1="171.40" x2="168.61" y2="223.29" stroke="#f6465d" stroke-width="1.4" /><rect x="165.61" y="200.22" width="6" height="2.00" rx="1.5" fill="#f6465d" /><line x1="179.34" y1="156.02" x2="179.34" y2="254.04" stroke="#f6465d" stroke-width="1.4" /><rect x="176.34" y="202.15" width="6" height="2.00" rx="1.5" fill="#f6465d" /><line x1="190.08" y1="163.71" x2="190.08" y2="230.98" stroke="#0ecb81" stroke-width="1.4" /><rect x="187.08" y="188.69" width="6" height="13.45" rx="1.5" fill="#0ecb81" /><line x1="200.81" y1="167.55" x2="200.81" y2="307.85" stroke="#f6465d" stroke-width="1.4" /><rect x="197.81" y="188.69" width="6" height="107.63" rx="1.5" fill="#f6465d" /><line x1="211.54" y1="236.74" x2="211.54" y2="315.54" stroke="#0ecb81" stroke-width="1.4" /><rect x="208.54" y="242.51" width="6" height="53.81" rx="1.5" fill="#0ecb81" /><line x1="222.28" y1="230.98" x2="222.28" y2="280.95" stroke="#f6465d" stroke-width="1.4" /><rect x="219.28" y="242.51" width="6" height="13.45" rx="1.5" fill="#f6465d" /><line x1="233.01" y1="248.27" x2="233.01" y2="282.87" stroke="#f6465d" stroke-width="1.4" /><rect x="230.01" y="255.96" width="6" height="13.45" rx="1.5" fill="#f6465d" /><line x1="243.75" y1="215.60" x2="243.75" y2="357.82" stroke="#f6465d" stroke-width="1.4" /><rect x="240.75" y="269.41" width="6" height="67.27" rx="1.5" fill="#f6465d" /><line x1="254.48" y1="284.79" x2="254.48" y2="342.45" stroke="#0ecb81" stroke-width="1.4" /><rect x="251.48" y="323.23" width="6" height="13.45" rx="1.5" fill="#0ecb81" /><line x1="265.22" y1="305.93" x2="265.22" y2="367.43" stroke="#f6465d" stroke-width="1.4" /><rect x="262.22" y="323.23" width="6" height="15.38" rx="1.5" fill="#f6465d" /><line x1="275.95" y1="325.15" x2="275.95" y2="384.73" stroke="#f6465d" stroke-width="1.4" /><rect x="272.95" y="338.60" width="6" height="26.91" rx="1.5" fill="#f6465d" /><line x1="286.68" y1="330.92" x2="286.68" y2="388.58" stroke="#f6465d" stroke-width="1.4" /><rect x="283.68" y="365.51" width="6" height="13.45" rx="1.5" fill="#f6465d" /><line x1="297.42" y1="330.92" x2="297.42" y2="386.65" stroke="#0ecb81" stroke-width="1.4" /><rect x="294.42" y="344.37" width="6" height="32.67" rx="1.5" fill="#0ecb81" /><line x1="308.15" y1="342.45" x2="308.15" y2="403.95" stroke="#f6465d" stroke-width="1.4" /><rect x="305.15" y="344.37" width="6" height="57.66" rx="1.5" fill="#f6465d" /><line x1="318.89" y1="369.36" x2="318.89" y2="421.25" stroke="#0ecb81" stroke-width="1.4" /><rect x="315.89" y="377.04" width="6" height="24.99" rx="1.5" fill="#0ecb81" /><line x1="329.62" y1="357.82" x2="329.62" y2="398.19" stroke="#f6465d" stroke-width="1.4" /><rect x="326.62" y="377.04" width="6" height="19.22" rx="1.5" fill="#f6465d" /><line x1="340.35" y1="386.65" x2="340.35" y2="409.72" stroke="#f6465d" stroke-width="1.4" /><rect x="337.35" y="394.34" width="6" height="7.69" rx="1.5" fill="#f6465d" /><line x1="351.09" y1="388.58" x2="351.09" y2="442.39" stroke="#f6465d" stroke-width="1.4" /><rect x="348.09" y="402.03" width="6" height="36.52" rx="1.5" fill="#f6465d" /><line x1="361.82" y1="361.67" x2="361.82" y2="452.00" stroke="#0ecb81" stroke-width="1.4" /><rect x="358.82" y="367.43" width="6" height="71.11" rx="1.5" fill="#0ecb81" /><line x1="372.56" y1="279.02" x2="372.56" y2="390.50" stroke="#0ecb81" stroke-width="1.4" /><rect x="369.56" y="282.87" width="6" height="86.49" rx="1.5" fill="#0ecb81" /><line x1="383.29" y1="279.02" x2="383.29" y2="302.09" stroke="#0ecb81" stroke-width="1.4" /><rect x="380.29" y="279.02" width="6" height="2.00" rx="1.5" fill="#0ecb81" /><line x1="394.03" y1="273.26" x2="394.03" y2="300.17" stroke="#0ecb81" stroke-width="1.4" /><rect x="391.03" y="275.18" width="6" height="3.84" rx="1.5" fill="#0ecb81" /><line x1="404.76" y1="269.41" x2="404.76" y2="307.85" stroke="#f6465d" stroke-width="1.4" /><rect x="401.76" y="273.26" width="6" height="11.53" rx="1.5" fill="#f6465d" /><line x1="415.49" y1="248.27" x2="415.49" y2="298.24" stroke="#0ecb81" stroke-width="1.4" /><rect x="412.49" y="255.96" width="6" height="30.75" rx="1.5" fill="#0ecb81" /><line x1="426.23" y1="230.98" x2="426.23" y2="275.18" stroke="#0ecb81" stroke-width="1.4" /><rect x="423.23" y="252.12" width="6" height="3.84" rx="1.5" fill="#0ecb81" /><line x1="436.96" y1="217.52" x2="436.96" y2="252.12" stroke="#0ecb81" stroke-width="1.4" /><rect x="433.96" y="219.44" width="6" height="32.67" rx="1.5" fill="#0ecb81" /><line x1="447.70" y1="215.60" x2="447.70" y2="232.90" stroke="#f6465d" stroke-width="1.4" /><rect x="444.70" y="221.37" width="6" height="9.61" rx="1.5" fill="#f6465d" /><line x1="458.43" y1="225.21" x2="458.43" y2="292.48" stroke="#f6465d" stroke-width="1.4" /><rect x="455.43" y="229.05" width="6" height="59.58" rx="1.5" fill="#f6465d" /><line x1="469.16" y1="263.65" x2="469.16" y2="296.32" stroke="#0ecb81" stroke-width="1.4" /><rect x="466.16" y="271.34" width="6" height="17.30" rx="1.5" fill="#0ecb81" /><line x1="479.90" y1="223.29" x2="479.90" y2="275.18" stroke="#0ecb81" stroke-width="1.4" /><rect x="476.90" y="240.59" width="6" height="30.75" rx="1.5" fill="#0ecb81" /><line x1="490.63" y1="236.74" x2="490.63" y2="286.71" stroke="#f6465d" stroke-width="1.4" /><rect x="487.63" y="238.66" width="6" height="36.52" rx="1.5" fill="#f6465d" /><line x1="501.37" y1="240.59" x2="501.37" y2="282.87" stroke="#0ecb81" stroke-width="1.4" /><rect x="498.37" y="248.27" width="6" height="26.91" rx="1.5" fill="#0ecb81" /><line x1="512.10" y1="225.21" x2="512.10" y2="257.88" stroke="#0ecb81" stroke-width="1.4" /><rect x="509.10" y="238.66" width="6" height="9.61" rx="1.5" fill="#0ecb81" /><line x1="522.84" y1="148.33" x2="522.84" y2="238.66" stroke="#0ecb81" stroke-width="1.4" /><rect x="519.84" y="148.33" width="6" height="90.33" rx="1.5" fill="#0ecb81" /><line x1="533.57" y1="73.38" x2="533.57" y2="157.94" stroke="#0ecb81" stroke-width="1.4" /><rect x="530.57" y="127.19" width="6" height="23.06" rx="1.5" fill="#0ecb81" /><line x1="544.30" y1="77.22" x2="544.30" y2="171.40" stroke="#f6465d" stroke-width="1.4" /><rect x="541.30" y="127.19" width="6" height="42.28" rx="1.5" fill="#f6465d" /><line x1="555.04" y1="140.64" x2="555.04" y2="173.32" stroke="#0ecb81" stroke-width="1.4" /><rect x="552.04" y="167.55" width="6" height="2.00" rx="1.5" fill="#0ecb81" /><line x1="565.77" y1="152.18" x2="565.77" y2="211.76" stroke="#f6465d" stroke-width="1.4" /><rect x="562.77" y="167.55" width="6" height="19.22" rx="1.5" fill="#f6465d" /><line x1="576.51" y1="142.57" x2="576.51" y2="198.30" stroke="#0ecb81" stroke-width="1.4" /><rect x="573.51" y="163.71" width="6" height="23.06" rx="1.5" fill="#0ecb81" /><line x1="587.24" y1="119.50" x2="587.24" y2="175.24" stroke="#0ecb81" stroke-width="1.4" /><rect x="584.24" y="119.50" width="6" height="44.20" rx="1.5" fill="#0ecb81" /><line x1="597.97" y1="106.05" x2="597.97" y2="138.72" stroke="#f6465d" stroke-width="1.4" /><rect x="594.97" y="119.50" width="6" height="11.53" rx="1.5" fill="#f6465d" /><line x1="608.71" y1="94.52" x2="608.71" y2="144.49" stroke="#0ecb81" stroke-width="1.4" /><rect x="605.71" y="111.81" width="6" height="19.22" rx="1.5" fill="#0ecb81" /><line x1="619.44" y1="107.97" x2="619.44" y2="173.32" stroke="#f6465d" stroke-width="1.4" /><rect x="616.44" y="113.74" width="6" height="57.66" rx="1.5" fill="#f6465d" /><line x1="630.18" y1="138.72" x2="630.18" y2="204.07" stroke="#f6465d" stroke-width="1.4" /><rect x="627.18" y="171.40" width="6" height="23.06" rx="1.5" fill="#f6465d" /><line x1="640.91" y1="165.63" x2="640.91" y2="205.99" stroke="#0ecb81" stroke-width="1.4" /><rect x="637.91" y="173.32" width="6" height="21.14" rx="1.5" fill="#0ecb81" /><line x1="651.65" y1="134.88" x2="651.65" y2="182.93" stroke="#0ecb81" stroke-width="1.4" /><rect x="648.65" y="138.72" width="6" height="34.60" rx="1.5" fill="#0ecb81" /><line x1="662.38" y1="134.88" x2="662.38" y2="169.47" stroke="#0ecb81" stroke-width="1.4" /><rect x="659.38" y="136.80" width="6" height="3.84" rx="1.5" fill="#0ecb81" /><line x1="673.11" y1="111.81" x2="673.11" y2="165.63" stroke="#0ecb81" stroke-width="1.4" /><rect x="670.11" y="113.74" width="6" height="24.99" rx="1.5" fill="#0ecb81" /><line x1="683.85" y1="111.81" x2="683.85" y2="146.41" stroke="#f6465d" stroke-width="1.4" /><rect x="680.85" y="115.66" width="6" height="5.77" rx="1.5" fill="#f6465d" /><line x1="694.58" y1="115.66" x2="694.58" y2="254.04" stroke="#f6465d" stroke-width="1.4" /><rect x="691.58" y="121.42" width="6" height="38.44" rx="1.5" fill="#f6465d" /><line x1="705.32" y1="123.35" x2="705.32" y2="161.79" stroke="#0ecb81" stroke-width="1.4" /><rect x="702.32" y="157.94" width="6" height="3.84" rx="1.5" fill="#0ecb81" /><line x1="716.05" y1="86.83" x2="716.05" y2="173.32" stroke="#0ecb81" stroke-width="1.4" /><rect x="713.05" y="109.89" width="6" height="48.05" rx="1.5" fill="#0ecb81" /><line x1="726.78" y1="92.60" x2="726.78" y2="138.72" stroke="#f6465d" stroke-width="1.4" /><rect x="723.78" y="109.89" width="6" height="26.91" rx="1.5" fill="#f6465d" /><line x1="737.52" y1="115.66" x2="737.52" y2="167.55" stroke="#f6465d" stroke-width="1.4" /><rect x="734.52" y="138.72" width="6" height="21.14" rx="1.5" fill="#f6465d" /><line x1="748.25" y1="115.66" x2="748.25" y2="167.55" stroke="#0ecb81" stroke-width="1.4" /><rect x="745.25" y="119.50" width="6" height="42.28" rx="1.5" fill="#0ecb81" /><line x1="758.99" y1="113.74" x2="758.99" y2="209.83" stroke="#f6465d" stroke-width="1.4" /><rect x="755.99" y="119.50" width="6" height="48.05" rx="1.5" fill="#f6465d" /><line x1="769.72" y1="156.02" x2="769.72" y2="192.54" stroke="#0ecb81" stroke-width="1.4" /><rect x="766.72" y="165.63" width="6" height="2.00" rx="1.5" fill="#0ecb81" /><line x1="780.46" y1="148.33" x2="780.46" y2="186.77" stroke="#f6465d" stroke-width="1.4" /><rect x="777.46" y="163.71" width="6" height="17.30" rx="1.5" fill="#f6465d" /><line x1="791.19" y1="144.49" x2="791.19" y2="263.65" stroke="#f6465d" stroke-width="1.4" /><rect x="788.19" y="182.93" width="6" height="71.11" rx="1.5" fill="#f6465d" /><line x1="801.92" y1="211.76" x2="801.92" y2="267.49" stroke="#0ecb81" stroke-width="1.4" /><rect x="798.92" y="236.74" width="6" height="17.30" rx="1.5" fill="#0ecb81" /><line x1="812.66" y1="205.99" x2="812.66" y2="252.12" stroke="#0ecb81" stroke-width="1.4" /><rect x="809.66" y="234.82" width="6" height="2.00" rx="1.5" fill="#0ecb81" /><line x1="823.39" y1="205.99" x2="823.39" y2="254.04" stroke="#f6465d" stroke-width="1.4" /><rect x="820.39" y="234.82" width="6" height="2.00" rx="1.5" fill="#f6465d" /><line x1="834.13" y1="230.98" x2="834.13" y2="319.39" stroke="#f6465d" stroke-width="1.4" /><rect x="831.13" y="238.66" width="6" height="44.20" rx="1.5" fill="#f6465d" /><line x1="844.86" y1="263.65" x2="844.86" y2="290.56" stroke="#0ecb81" stroke-width="1.4" /><rect x="841.86" y="271.34" width="6" height="13.45" rx="1.5" fill="#0ecb81" /><line x1="855.59" y1="250.20" x2="855.59" y2="307.85" stroke="#f6465d" stroke-width="1.4" /><rect x="852.59" y="273.26" width="6" height="5.77" rx="1.5" fill="#f6465d" /><line x1="866.33" y1="213.68" x2="866.33" y2="304.01" stroke="#0ecb81" stroke-width="1.4" /><rect x="863.33" y="217.52" width="6" height="61.50" rx="1.5" fill="#0ecb81" /><line x1="877.06" y1="123.35" x2="877.06" y2="242.51" stroke="#0ecb81" stroke-width="1.4" /><rect x="874.06" y="157.94" width="6" height="59.58" rx="1.5" fill="#0ecb81" /><line x1="887.80" y1="58.00" x2="887.80" y2="169.47" stroke="#0ecb81" stroke-width="1.4" /><rect x="884.80" y="109.89" width="6" height="48.05" rx="1.5" fill="#0ecb81" /><line x1="898.53" y1="92.60" x2="898.53" y2="156.02" stroke="#f6465d" stroke-width="1.4" /><rect x="895.53" y="109.89" width="6" height="34.60" rx="1.5" fill="#f6465d" /><line x1="909.27" y1="79.14" x2="909.27" y2="142.57" stroke="#0ecb81" stroke-width="1.4" /><rect x="906.27" y="132.96" width="6" height="9.61" rx="1.5" fill="#0ecb81" /><line x1="920.00" y1="106.05" x2="920.00" y2="150.25" stroke="#0ecb81" stroke-width="1.4" /><rect x="917.00" y="117.58" width="6" height="15.38" rx="1.5" fill="#0ecb81" />
  <polyline points="533.57,73.38 565.77,211.76 608.71,94.52 640.91,205.99 673.11,111.81" fill="none" stroke="#2fc273" stroke-width="4" stroke-linecap="round" stroke-linejoin="round" />
  <circle cx="533.57" cy="73.38" r="5.5" fill="#2fc273" fill-opacity="0.15" stroke="#2fc273" stroke-width="2" /><text x="533.57" y="61.38" fill="#f3f4f6" font-size="15" font-weight="700" text-anchor="middle">X</text><circle cx="565.77" cy="211.76" r="5.5" fill="#2fc273" fill-opacity="0.15" stroke="#2fc273" stroke-width="2" /><text x="565.77" y="199.76" fill="#f3f4f6" font-size="15" font-weight="700" text-anchor="middle">A</text><circle cx="608.71" cy="94.52" r="5.5" fill="#2fc273" fill-opacity="0.15" stroke="#2fc273" stroke-width="2" /><text x="608.71" y="82.52" fill="#f3f4f6" font-size="15" font-weight="700" text-anchor="middle">B</text><circle cx="640.91" cy="205.99" r="5.5" fill="#2fc273" fill-opacity="0.15" stroke="#2fc273" stroke-width="2" /><text x="640.91" y="193.99" fill="#f3f4f6" font-size="15" font-weight="700" text-anchor="middle">C</text><circle cx="673.11" cy="111.81" r="5.5" fill="#2fc273" fill-opacity="0.15" stroke="#2fc273" stroke-width="2" /><text x="673.11" y="99.81" fill="#f3f4f6" font-size="15" font-weight="700" text-anchor="middle">D</text>
  <text x="56" y="492" fill="#8ba0b5" font-size="18">일반 완성 · TP1 0.66663 · TP2 0.66547 · SL 0.66944</text>
</svg>
