<svg xmlns="http://www.w3.org/2000/svg" width="960" height="540" viewBox="0 0 960 540">
  <rect width="960" height="540" rx="24" fill="#0b1220" />
  <rect x="28" y="28" width="904" height="484" rx="22" fill="#111827" stroke="#1f2937" />
  <text x="56" y="74" fill="#f3f4f6" font-size="34" font-weight="700">AVAXUSDT · AB=CD</text>
  <text x="904" y="74" fill="#8ba0b5" font-size="20" text-anchor="end">Bullish (매수) · Score 84.3</text>
  <line x1="72" y1="58" x2="920" y2="58" stroke="#223045" stroke-width="1" stroke-dasharray="4 8" /><line x1="72" y1="156" x2="920" y2="156" stroke="#223045" stroke-width="1" stroke-dasharray="4 8" /><line x1="72" y1="255" x2="920" y2="255" stroke="#223045" stroke-width="1" stroke-dasharray="4 8" /><line x1="72" y1="353" x2="920" y2="353" stroke="#223045" stroke-width="1" stroke-dasharray="4 8" /><line x1="72" y1="452" x2="920" y2="452" stroke="#223045" stroke-width="1" stroke-dasharray="4 8" />
  <rect x="634.38" y="402.09" width="84" height="199.23" fill="#fbbf24" fill-opacity="0.12" stroke="#fbbf24" stroke-width="1.5" stroke-dasharray="6 6" />
  <line x1="72.00" y1="128.92" x2="72.00" y2="181.45" stroke="#f6465d" stroke-width="1.4" /><rect x="69.00" y="161.75" width="6" height="2.63" rx="1.5" fill="#f6465d" /><line x1="82.73" y1="147.31" x2="82.73" y2="212.97" stroke="#f6465d" stroke-width="1.4" /><rect x="79.73" y="163.07" width="6" height="40.71" rx="1.5" fill="#f6465d" /><line x1="93.47" y1="202.47" x2="93.47" y2="272.07" stroke="#f6465d" stroke-width="1.4" /><rect x="90.47" y="203.78" width="6" height="44.65" rx="1.5" fill="#f6465d" /><line x1="104.20" y1="233.99" x2="104.20" y2="264.19" stroke="#0ecb81" stroke-width="1.4" /><rect x="101.20" y="247.12" width="6" height="2.00" rx="1.5" fill="#0ecb81" /><line x1="114.94" y1="233.99" x2="114.94" y2="257.63" stroke="#f6465d" stroke-width="1.4" /><rect x="111.94" y="247.12" width="6" height="2.00" rx="1.5" fill="#f6465d" /><line x1="125.67" y1="216.91" x2="125.67" y2="290.46" stroke="#0ecb81" stroke-width="1.4" /><rect x="122.67" y="243.18" width="6" height="5.25" rx="1.5" fill="#0ecb81" /><line x1="136.41" y1="239.24" x2="136.41" y2="277.33" stroke="#f6465d" stroke-width="1.4" /><rect x="133.41" y="243.18" width="6" height="10.51" rx="1.5" fill="#f6465d" /><line x1="147.14" y1="210.35" x2="147.14" y2="253.69" stroke="#0ecb81" stroke-width="1.4" /><rect x="144.14" y="218.23" width="6" height="34.15" rx="1.5" fill="#0ecb81" /><line x1="157.87" y1="207.72" x2="157.87" y2="252.37" stroke="#f6465d" stroke-width="1.4" /><rect x="154.87" y="218.23" width="6" height="31.52" rx="1.5" fill="#f6465d" /><line x1="168.61" y1="226.11" x2="168.61" y2="273.39" stroke="#0ecb81" stroke-width="1.4" /><rect x="165.61" y="235.30" width="6" height="15.76" rx="1.5" fill="#0ecb81" /><line x1="179.34" y1="189.33" x2="179.34" y2="268.13" stroke="#0ecb81" stroke-width="1.4" /><rect x="176.34" y="215.60" width="6" height="18.39" rx="1.5" fill="#0ecb81" /><line x1="190.08" y1="173.57" x2="190.08" y2="233.99" stroke="#f6465d" stroke-width="1.4" /><rect x="187.08" y="215.60" width="6" height="2.63" rx="1.5" fill="#f6465d" /><line x1="200.81" y1="202.47" x2="200.81" y2="224.79" stroke="#0ecb81" stroke-width="1.4" /><rect x="197.81" y="211.66" width="6" height="5.25" rx="1.5" fill="#0ecb81" /><line x1="211.54" y1="188.02" x2="211.54" y2="222.17" stroke="#0ecb81" stroke-width="1.4" /><rect x="208.54" y="207.72" width="6" height="2.63" rx="1.5" fill="#0ecb81" /><line x1="222.28" y1="169.63" x2="222.28" y2="215.60" stroke="#0ecb81" stroke-width="1.4" /><rect x="219.28" y="206.41" width="6" height="2.00" rx="1.5" fill="#0ecb81" /><line x1="233.01" y1="181.45" x2="233.01" y2="209.03" stroke="#0ecb81" stroke-width="1.4" /><rect x="230.01" y="186.71" width="6" height="19.70" rx="1.5" fill="#0ecb81" /><line x1="243.75" y1="174.89" x2="243.75" y2="215.60" stroke="#f6465d" stroke-width="1.4" /><rect x="240.75" y="186.71" width="6" height="22.33" rx="1.5" fill="#f6465d" /><line x1="254.48" y1="165.69" x2="254.48" y2="211.66" stroke="#0ecb81" stroke-width="1.4" /><rect x="251.48" y="202.47" width="6" height="5.25" rx="1.5" fill="#0ecb81" /><line x1="265.22" y1="189.33" x2="265.22" y2="211.66" stroke="#f6465d" stroke-width="1.4" /><rect x="262.22" y="203.78" width="6" height="2.00" rx="1.5" fill="#f6465d" /><line x1="275.95" y1="124.98" x2="275.95" y2="206.41" stroke="#0ecb81" stroke-width="1.4" /><rect x="272.95" y="145.99" width="6" height="59.10" rx="1.5" fill="#0ecb81" /><line x1="286.68" y1="139.43" x2="286.68" y2="198.53" stroke="#f6465d" stroke-width="1.4" /><rect x="283.68" y="145.99" width="6" height="45.97" rx="1.5" fill="#f6465d" /><line x1="297.42" y1="188.02" x2="297.42" y2="226.11" stroke="#f6465d" stroke-width="1.4" /><rect x="294.42" y="191.96" width="6" height="26.27" rx="1.5" fill="#f6465d" /><line x1="308.15" y1="181.45" x2="308.15" y2="223.48" stroke="#f6465d" stroke-width="1.4" /><rect x="305.15" y="218.23" width="6" height="5.25" rx="1.5" fill="#f6465d" /><line x1="318.89" y1="197.21" x2="318.89" y2="233.99" stroke="#0ecb81" stroke-width="1.4" /><rect x="315.89" y="198.53" width="6" height="26.27" rx="1.5" fill="#0ecb81" /><line x1="329.62" y1="198.53" x2="329.62" y2="236.61" stroke="#f6465d" stroke-width="1.4" /><rect x="326.62" y="198.53" width="6" height="30.21" rx="1.5" fill="#f6465d" /><line x1="340.35" y1="215.60" x2="340.35" y2="249.75" stroke="#0ecb81" stroke-width="1.4" /><rect x="337.35" y="224.79" width="6" height="5.25" rx="1.5" fill="#0ecb81" /><line x1="351.09" y1="218.23" x2="351.09" y2="320.67" stroke="#f6465d" stroke-width="1.4" /><rect x="348.09" y="224.79" width="6" height="84.05" rx="1.5" fill="#f6465d" /><line x1="361.82" y1="256.31" x2="361.82" y2="337.74" stroke="#0ecb81" stroke-width="1.4" /><rect x="358.82" y="297.03" width="6" height="13.13" rx="1.5" fill="#0ecb81" /><line x1="372.56" y1="273.39" x2="372.56" y2="337.74" stroke="#f6465d" stroke-width="1.4" /><rect x="369.56" y="298.34" width="6" height="27.58" rx="1.5" fill="#f6465d" /><line x1="383.29" y1="325.92" x2="383.29" y2="429.67" stroke="#f6465d" stroke-width="1.4" /><rect x="380.29" y="325.92" width="6" height="69.61" rx="1.5" fill="#f6465d" /><line x1="394.03" y1="375.83" x2="394.03" y2="413.91" stroke="#0ecb81" stroke-width="1.4" /><rect x="391.03" y="391.59" width="6" height="2.63" rx="1.5" fill="#0ecb81" /><line x1="404.76" y1="335.11" x2="404.76" y2="394.21" stroke="#0ecb81" stroke-width="1.4" /><rect x="401.76" y="349.56" width="6" height="40.71" rx="1.5" fill="#0ecb81" /><line x1="415.49" y1="340.37" x2="415.49" y2="387.65" stroke="#f6465d" stroke-width="1.4" /><rect x="412.49" y="349.56" width="6" height="17.07" rx="1.5" fill="#f6465d" /><line x1="426.23" y1="353.50" x2="426.23" y2="382.39" stroke="#f6465d" stroke-width="1.4" /><rect x="423.23" y="366.63" width="6" height="11.82" rx="1.5" fill="#f6465d" /><line x1="436.96" y1="311.47" x2="436.96" y2="421.79" stroke="#0ecb81" stroke-width="1.4" /><rect x="433.96" y="342.99" width="6" height="35.46" rx="1.5" fill="#0ecb81" /><line x1="447.70" y1="335.11" x2="447.70" y2="452.00" stroke="#f6465d" stroke-width="1.4" /><rect x="444.70" y="342.99" width="6" height="80.11" rx="1.5" fill="#f6465d" /><line x1="458.43" y1="387.65" x2="458.43" y2="433.61" stroke="#0ecb81" stroke-width="1.4" /><rect x="455.43" y="388.96" width="6" height="34.15" rx="1.5" fill="#0ecb81" /><line x1="469.16" y1="373.20" x2="469.16" y2="395.53" stroke="#0ecb81" stroke-width="1.4" /><rect x="466.16" y="373.20" width="6" height="14.45" rx="1.5" fill="#0ecb81" /><line x1="479.90" y1="371.89" x2="479.90" y2="428.36" stroke="#f6465d" stroke-width="1.4" /><rect x="476.90" y="373.20" width="6" height="43.34" rx="1.5" fill="#f6465d" /><line x1="490.63" y1="320.67" x2="490.63" y2="425.73" stroke="#0ecb81" stroke-width="1.4" /><rect x="487.63" y="364.01" width="6" height="52.53" rx="1.5" fill="#0ecb81" /><line x1="501.37" y1="346.93" x2="501.37" y2="408.66" stroke="#0ecb81" stroke-width="1.4" /><rect x="498.37" y="350.87" width="6" height="13.13" rx="1.5" fill="#0ecb81" /><line x1="512.10" y1="235.30" x2="512.10" y2="382.39" stroke="#0ecb81" stroke-width="1.4" /><rect x="509.10" y="324.61" width="6" height="26.27" rx="1.5" fill="#0ecb81" /><line x1="522.84" y1="206.41" x2="522.84" y2="328.55" stroke="#0ecb81" stroke-width="1.4" /><rect x="519.84" y="289.15" width="6" height="34.15" rx="1.5" fill="#0ecb81" /><line x1="533.57" y1="131.55" x2="533.57" y2="294.40" stroke="#0ecb81" stroke-width="1.4" /><rect x="530.57" y="148.62" width="6" height="140.53" rx="1.5" fill="#0ecb81" /><line x1="544.30" y1="103.97" x2="544.30" y2="214.29" stroke="#f6465d" stroke-width="1.4" /><rect x="541.30" y="148.62" width="6" height="26.27" rx="1.5" fill="#f6465d" /><line x1="555.04" y1="172.26" x2="555.04" y2="260.25" stroke="#f6465d" stroke-width="1.4" /><rect x="552.04" y="174.89" width="6" height="73.55" rx="1.5" fill="#f6465d" /><line x1="565.77" y1="244.49" x2="565.77" y2="362.69" stroke="#f6465d" stroke-width="1.4" /><rect x="562.77" y="248.43" width="6" height="84.05" rx="1.5" fill="#f6465d" /><line x1="576.51" y1="298.34" x2="576.51" y2="379.77" stroke="#f6465d" stroke-width="1.4" /><rect x="573.51" y="332.49" width="6" height="10.51" rx="1.5" fill="#f6465d" /><line x1="587.24" y1="240.55" x2="587.24" y2="342.99" stroke="#0ecb81" stroke-width="1.4" /><rect x="584.24" y="245.81" width="6" height="97.19" rx="1.5" fill="#0ecb81" /><line x1="597.97" y1="222.17" x2="597.97" y2="318.04" stroke="#f6465d" stroke-width="1.4" /><rect x="594.97" y="245.81" width="6" height="48.59" rx="1.5" fill="#f6465d" /><line x1="608.71" y1="207.72" x2="608.71" y2="304.91" stroke="#0ecb81" stroke-width="1.4" /><rect x="605.71" y="231.36" width="6" height="63.04" rx="1.5" fill="#0ecb81" /><line x1="619.44" y1="209.03" x2="619.44" y2="249.75" stroke="#f6465d" stroke-width="1.4" /><rect x="616.44" y="231.36" width="6" height="17.07" rx="1.5" fill="#f6465d" /><line x1="630.18" y1="126.29" x2="630.18" y2="252.37" stroke="#0ecb81" stroke-width="1.4" /><rect x="627.18" y="134.17" width="6" height="115.57" rx="1.5" fill="#0ecb81" /><line x1="640.91" y1="134.17" x2="640.91" y2="227.42" stroke="#f6465d" stroke-width="1.4" /><rect x="637.91" y="134.17" width="6" height="89.31" rx="1.5" fill="#f6465d" /><line x1="651.65" y1="161.75" x2="651.65" y2="282.58" stroke="#f6465d" stroke-width="1.4" /><rect x="648.65" y="222.17" width="6" height="39.40" rx="1.5" fill="#f6465d" /><line x1="662.38" y1="235.30" x2="662.38" y2="336.43" stroke="#f6465d" stroke-width="1.4" /><rect x="659.38" y="262.88" width="6" height="9.19" rx="1.5" fill="#f6465d" /><line x1="673.11" y1="128.92" x2="673.11" y2="274.70" stroke="#0ecb81" stroke-width="1.4" /><rect x="670.11" y="159.13" width="6" height="112.95" rx="1.5" fill="#0ecb81" /><line x1="683.85" y1="147.31" x2="683.85" y2="232.67" stroke="#f6465d" stroke-width="1.4" /><rect x="680.85" y="160.44" width="6" height="43.34" rx="1.5" fill="#f6465d" /><line x1="694.58" y1="168.32" x2="694.58" y2="219.54" stroke="#0ecb81" stroke-width="1.4" /><rect x="691.58" y="176.20" width="6" height="28.89" rx="1.5" fill="#0ecb81" /><line x1="705.32" y1="136.80" x2="705.32" y2="220.85" stroke="#f6465d" stroke-width="1.4" /><rect x="702.32" y="177.51" width="6" height="36.77" rx="1.5" fill="#f6465d" /><line x1="716.05" y1="206.41" x2="716.05" y2="247.12" stroke="#f6465d" stroke-width="1.4" /><rect x="713.05" y="215.60" width="6" height="3.94" rx="1.5" fill="#f6465d" /><line x1="726.78" y1="164.38" x2="726.78" y2="231.36" stroke="#0ecb81" stroke-width="1.4" /><rect x="723.78" y="176.20" width="6" height="42.03" rx="1.5" fill="#0ecb81" /><line x1="737.52" y1="142.05" x2="737.52" y2="198.53" stroke="#f6465d" stroke-width="1.4" /><rect x="734.52" y="176.20" width="6" height="18.39" rx="1.5" fill="#f6465d" /><line x1="748.25" y1="189.33" x2="748.25" y2="239.24" stroke="#f6465d" stroke-width="1.4" /><rect x="745.25" y="194.59" width="6" height="35.46" rx="1.5" fill="#f6465d" /><line x1="758.99" y1="176.20" x2="758.99" y2="235.30" stroke="#0ecb81" stroke-width="1.4" /><rect x="755.99" y="199.84" width="6" height="30.21" rx="1.5" fill="#0ecb81" /><line x1="769.72" y1="143.37" x2="769.72" y2="219.54" stroke="#0ecb81" stroke-width="1.4" /><rect x="766.72" y="155.19" width="6" height="44.65" rx="1.5" fill="#0ecb81" /><line x1="780.46" y1="131.55" x2="780.46" y2="174.89" stroke="#0ecb81" stroke-width="1.4" /><rect x="777.46" y="151.25" width="6" height="3.94" rx="1.5" fill="#0ecb81" /><line x1="791.19" y1="115.79" x2="791.19" y2="190.65" stroke="#0ecb81" stroke-width="1.4" /><rect x="788.19" y="138.11" width="6" height="13.13" rx="1.5" fill="#0ecb81" /><line x1="801.92" y1="86.89" x2="801.92" y2="142.05" stroke="#0ecb81" stroke-width="1.4" /><rect x="798.92" y="119.73" width="6" height="18.39" rx="1.5" fill="#0ecb81" /><line x1="812.66" y1="106.59" x2="812.66" y2="168.32" stroke="#f6465d" stroke-width="1.4" /><rect x="809.66" y="118.41" width="6" height="36.77" rx="1.5" fill="#f6465d" /><line x1="823.39" y1="85.58" x2="823.39" y2="156.50" stroke="#0ecb81" stroke-width="1.4" /><rect x="820.39" y="103.97" width="6" height="51.22" rx="1.5" fill="#0ecb81" /><line x1="834.13" y1="59.31" x2="834.13" y2="122.35" stroke="#0ecb81" stroke-width="1.4" /><rect x="831.13" y="76.39" width="6" height="27.58" rx="1.5" fill="#0ecb81" /><line x1="844.86" y1="64.57" x2="844.86" y2="113.16" stroke="#0ecb81" stroke-width="1.4" /><rect x="841.86" y="73.76" width="6" height="2.00" rx="1.5" fill="#0ecb81" /><line x1="855.59" y1="58.00" x2="855.59" y2="101.34" stroke="#f6465d" stroke-width="1.4" /><rect x="852.59" y="72.45" width="6" height="21.01" rx="1.5" fill="#f6465d" /><line x1="866.33" y1="82.95" x2="866.33" y2="122.35" stroke="#f6465d" stroke-width="1.4" /><rect x="863.33" y="93.46" width="6" height="5.25" rx="1.5" fill="#f6465d" /><line x1="877.06" y1="86.89" x2="877.06" y2="149.93" stroke="#f6465d" stroke-width="1.4" /><rect x="874.06" y="98.71" width="6" height="39.40" rx="1.5" fill="#f6465d" /><line x1="887.80" y1="118.41" x2="887.80" y2="156.50" stroke="#0ecb81" stroke-width="1.4" /><rect x="884.80" y="124.98" width="6" height="14.45" rx="1.5" fill="#0ecb81" /><line x1="898.53" y1="96.09" x2="898.53" y2="147.31" stroke="#0ecb81" stroke-width="1.4" /><rect x="895.53" y="110.53" width="6" height="14.45" rx="1.5" fill="#0ecb81" /><line x1="909.27" y1="101.34" x2="909.27" y2="156.50" stroke="#f6465d" stroke-width="1.4" /><rect x="906.27" y="110.53" width="6" height="3.94" rx="1.5" fill="#f6465d" /><line x1="920.00" y1="109.22" x2="920.00" y2="164.38" stroke="#f6465d" stroke-width="1.4" /><rect x="917.00" y="113.16" width="6" height="44.65" rx="1.5" fill="#f6465d" />
  <polyline points="447.70,452.00 544.30,103.97 576.51,379.77 630.18,126.29 662.38,336.43" fill="none" stroke="#2fc273" stroke-width="4" stroke-linecap="round" stroke-linejoin="round" />
  <circle cx="447.70" cy="452.00" r="5.5" fill="#2fc273" fill-opacity="0.15" stroke="#2fc273" stroke-width="2" /><text x="447.70" y="440.00" fill="#f3f4f6" font-size="15" font-weight="700" text-anchor="middle">X</text><circle cx="544.30" cy="103.97" r="5.5" fill="#2fc273" fill-opacity="0.15" stroke="#2fc273" stroke-width="2" /><text x="544.30" y="91.97" fill="#f3f4f6" font-size="15" font-weight="700" text-anchor="middle">A</text><circle cx="576.51" cy="379.77" r="5.5" fill="#2fc273" fill-opacity="0.15" stroke="#2fc273" stroke-width="2" /><text x="576.51" y="367.77" fill="#f3f4f6" font-size="15" font-weight="700" text-anchor="middle">B</text><circle cx="630.18" cy="126.29" r="5.5" fill="#2fc273" fill-opacity="0.15" stroke="#2fc273" stroke-width="2" /><text x="630.18" y="114.29" fill="#f3f4f6" font-size="15" font-weight="700" text-anchor="middle">C</text><circle cx="662.38" cy="336.43" r="5.5" fill="#2fc273" fill-opacity="0.15" stroke="#2fc273" stroke-width="2" /><text x="662.38" y="324.43" fill="#f3f4f6" font-size="15" font-weight="700" text-anchor="middle">D</text>
  <text x="56" y="492" fill="#8ba0b5" font-size="18">Complete · TP1 6.5341 · TP2 6.5719 · SL 6.4386</text>
</svg>
