<svg xmlns="http://www.w3.org/2000/svg" width="960" height="540" viewBox="0 0 960 540">
  <rect width="960" height="540" rx="24" fill="#0b1220" />
  <rect x="28" y="28" width="904" height="484" rx="22" fill="#111827" stroke="#1f2937" />
  <text x="56" y="74" fill="#f3f4f6" font-size="34" font-weight="700">AVAXUSDT · AB=CD</text>
  <text x="904" y="74" fill="#8ba0b5" font-size="20" text-anchor="end">Bearish (매도) · Score 90.0</text>
  <line x1="72" y1="58" x2="920" y2="58" stroke="#223045" stroke-width="1" stroke-dasharray="4 8" /><line x1="72" y1="156" x2="920" y2="156" stroke="#223045" stroke-width="1" stroke-dasharray="4 8" /><line x1="72" y1="255" x2="920" y2="255" stroke="#223045" stroke-width="1" stroke-dasharray="4 8" /><line x1="72" y1="353" x2="920" y2="353" stroke="#223045" stroke-width="1" stroke-dasharray="4 8" /><line x1="72" y1="452" x2="920" y2="452" stroke="#223045" stroke-width="1" stroke-dasharray="4 8" />
  <rect x="816.86" y="213.61" width="84" height="18.51" fill="#fbbf24" fill-opacity="0.12" stroke="#fbbf24" stroke-width="1.5" stroke-dasharray="6 6" />
  <line x1="72.00" y1="131.10" x2="72.00" y2="197.30" stroke="#0ecb81" stroke-width="1.4" /><rect x="69.00" y="134.27" width="6" height="63.03" rx="1.5" fill="#0ecb81" /><line x1="82.73" y1="116.71" x2="82.73" y2="145.49" stroke="#0ecb81" stroke-width="1.4" /><rect x="79.73" y="129.66" width="6" height="4.60" rx="1.5" fill="#0ecb81" /><line x1="93.47" y1="58.00" x2="93.47" y2="145.20" stroke="#0ecb81" stroke-width="1.4" /><rect x="90.47" y="82.18" width="6" height="47.20" rx="1.5" fill="#0ecb81" /><line x1="104.20" y1="62.60" x2="104.20" y2="452.00" stroke="#f6465d" stroke-width="1.4" /><rect x="101.20" y="82.18" width="6" height="157.14" rx="1.5" fill="#f6465d" /><line x1="114.94" y1="233.56" x2="114.94" y2="279.32" stroke="#f6465d" stroke-width="1.4" /><rect x="111.94" y="239.03" width="6" height="8.63" rx="1.5" fill="#f6465d" /><line x1="125.67" y1="228.38" x2="125.67" y2="268.96" stroke="#f6465d" stroke-width="1.4" /><rect x="122.67" y="247.66" width="6" height="16.69" rx="1.5" fill="#f6465d" /><line x1="136.41" y1="250.54" x2="136.41" y2="306.66" stroke="#f6465d" stroke-width="1.4" /><rect x="133.41" y="264.35" width="6" height="20.72" rx="1.5" fill="#f6465d" /><line x1="147.14" y1="264.93" x2="147.14" y2="308.39" stroke="#f6465d" stroke-width="1.4" /><rect x="144.14" y="284.79" width="6" height="2.88" rx="1.5" fill="#f6465d" /><line x1="157.87" y1="282.49" x2="157.87" y2="340.05" stroke="#f6465d" stroke-width="1.4" /><rect x="154.87" y="287.95" width="6" height="7.77" rx="1.5" fill="#f6465d" /><line x1="168.61" y1="284.79" x2="168.61" y2="308.39" stroke="#0ecb81" stroke-width="1.4" /><rect x="165.61" y="288.53" width="6" height="7.20" rx="1.5" fill="#0ecb81" /><line x1="179.34" y1="268.96" x2="179.34" y2="295.44" stroke="#0ecb81" stroke-width="1.4" /><rect x="176.34" y="280.18" width="6" height="8.63" rx="1.5" fill="#0ecb81" /><line x1="190.08" y1="275.29" x2="190.08" y2="293.71" stroke="#f6465d" stroke-width="1.4" /><rect x="187.08" y="280.18" width="6" height="4.03" rx="1.5" fill="#f6465d" /><line x1="200.81" y1="281.33" x2="200.81" y2="313.86" stroke="#f6465d" stroke-width="1.4" /><rect x="197.81" y="284.50" width="6" height="19.57" rx="1.5" fill="#f6465d" /><line x1="211.54" y1="295.15" x2="211.54" y2="317.88" stroke="#f6465d" stroke-width="1.4" /><rect x="208.54" y="304.07" width="6" height="6.62" rx="1.5" fill="#f6465d" /><line x1="222.28" y1="258.89" x2="222.28" y2="311.55" stroke="#0ecb81" stroke-width="1.4" /><rect x="219.28" y="268.38" width="6" height="42.59" rx="1.5" fill="#0ecb81" /><line x1="233.01" y1="266.37" x2="233.01" y2="283.06" stroke="#f6465d" stroke-width="1.4" /><rect x="230.01" y="268.38" width="6" height="5.47" rx="1.5" fill="#f6465d" /><line x1="243.75" y1="270.69" x2="243.75" y2="289.39" stroke="#f6465d" stroke-width="1.4" /><rect x="240.75" y="274.14" width="6" height="4.60" rx="1.5" fill="#f6465d" /><line x1="254.48" y1="267.52" x2="254.48" y2="287.67" stroke="#0ecb81" stroke-width="1.4" /><rect x="251.48" y="277.59" width="6" height="2.00" rx="1.5" fill="#0ecb81" /><line x1="265.22" y1="267.52" x2="265.22" y2="283.92" stroke="#0ecb81" stroke-width="1.4" /><rect x="262.22" y="276.73" width="6" height="2.00" rx="1.5" fill="#0ecb81" /><line x1="275.95" y1="276.44" x2="275.95" y2="314.72" stroke="#f6465d" stroke-width="1.4" /><rect x="272.95" y="276.73" width="6" height="32.52" rx="1.5" fill="#f6465d" /><line x1="286.68" y1="288.53" x2="286.68" y2="321.63" stroke="#0ecb81" stroke-width="1.4" /><rect x="283.68" y="300.62" width="6" height="8.92" rx="1.5" fill="#0ecb81" /><line x1="297.42" y1="293.13" x2="297.42" y2="310.98" stroke="#0ecb81" stroke-width="1.4" /><rect x="294.42" y="298.60" width="6" height="2.01" rx="1.5" fill="#0ecb81" /><line x1="308.15" y1="272.70" x2="308.15" y2="306.95" stroke="#0ecb81" stroke-width="1.4" /><rect x="305.15" y="277.02" width="6" height="21.87" rx="1.5" fill="#0ecb81" /><line x1="318.89" y1="276.73" x2="318.89" y2="296.88" stroke="#f6465d" stroke-width="1.4" /><rect x="315.89" y="276.73" width="6" height="15.83" rx="1.5" fill="#f6465d" /><line x1="329.62" y1="290.54" x2="329.62" y2="318.46" stroke="#f6465d" stroke-width="1.4" /><rect x="326.62" y="292.56" width="6" height="16.12" rx="1.5" fill="#f6465d" /><line x1="340.35" y1="305.22" x2="340.35" y2="333.14" stroke="#f6465d" stroke-width="1.4" /><rect x="337.35" y="308.67" width="6" height="15.25" rx="1.5" fill="#f6465d" /><line x1="351.09" y1="312.99" x2="351.09" y2="353.86" stroke="#f6465d" stroke-width="1.4" /><rect x="348.09" y="323.93" width="6" height="21.87" rx="1.5" fill="#f6465d" /><line x1="361.82" y1="327.38" x2="361.82" y2="362.21" stroke="#f6465d" stroke-width="1.4" /><rect x="358.82" y="345.80" width="6" height="5.47" rx="1.5" fill="#f6465d" /><line x1="372.56" y1="330.26" x2="372.56" y2="355.59" stroke="#0ecb81" stroke-width="1.4" /><rect x="369.56" y="342.64" width="6" height="8.35" rx="1.5" fill="#0ecb81" /><line x1="383.29" y1="326.23" x2="383.29" y2="346.38" stroke="#0ecb81" stroke-width="1.4" /><rect x="380.29" y="333.43" width="6" height="9.21" rx="1.5" fill="#0ecb81" /><line x1="394.03" y1="314.14" x2="394.03" y2="335.15" stroke="#0ecb81" stroke-width="1.4" /><rect x="391.03" y="323.64" width="6" height="10.07" rx="1.5" fill="#0ecb81" /><line x1="404.76" y1="318.46" x2="404.76" y2="331.70" stroke="#0ecb81" stroke-width="1.4" /><rect x="401.76" y="320.76" width="6" height="2.88" rx="1.5" fill="#0ecb81" /><line x1="415.49" y1="303.21" x2="415.49" y2="321.34" stroke="#0ecb81" stroke-width="1.4" /><rect x="412.49" y="315.87" width="6" height="4.89" rx="1.5" fill="#0ecb81" /><line x1="426.23" y1="287.95" x2="426.23" y2="317.88" stroke="#0ecb81" stroke-width="1.4" /><rect x="423.23" y="288.82" width="6" height="27.05" rx="1.5" fill="#0ecb81" /><line x1="436.96" y1="280.18" x2="436.96" y2="302.34" stroke="#0ecb81" stroke-width="1.4" /><rect x="433.96" y="285.08" width="6" height="3.74" rx="1.5" fill="#0ecb81" /><line x1="447.70" y1="259.17" x2="447.70" y2="286.23" stroke="#0ecb81" stroke-width="1.4" /><rect x="444.70" y="264.64" width="6" height="20.43" rx="1.5" fill="#0ecb81" /><line x1="458.43" y1="250.83" x2="458.43" y2="319.90" stroke="#f6465d" stroke-width="1.4" /><rect x="455.43" y="264.64" width="6" height="13.81" rx="1.5" fill="#f6465d" /><line x1="469.16" y1="267.23" x2="469.16" y2="294.00" stroke="#f6465d" stroke-width="1.4" /><rect x="466.16" y="278.17" width="6" height="2.30" rx="1.5" fill="#f6465d" /><line x1="479.90" y1="269.82" x2="479.90" y2="288.53" stroke="#0ecb81" stroke-width="1.4" /><rect x="476.90" y="274.71" width="6" height="5.76" rx="1.5" fill="#0ecb81" /><line x1="490.63" y1="267.23" x2="490.63" y2="289.10" stroke="#f6465d" stroke-width="1.4" /><rect x="487.63" y="274.43" width="6" height="8.92" rx="1.5" fill="#f6465d" /><line x1="501.37" y1="270.40" x2="501.37" y2="285.08" stroke="#0ecb81" stroke-width="1.4" /><rect x="498.37" y="271.84" width="6" height="11.80" rx="1.5" fill="#0ecb81" /><line x1="512.10" y1="270.11" x2="512.10" y2="286.23" stroke="#f6465d" stroke-width="1.4" /><rect x="509.10" y="271.55" width="6" height="12.66" rx="1.5" fill="#f6465d" /><line x1="522.84" y1="274.71" x2="522.84" y2="293.71" stroke="#0ecb81" stroke-width="1.4" /><rect x="519.84" y="275.00" width="6" height="8.92" rx="1.5" fill="#0ecb81" /><line x1="533.57" y1="245.93" x2="533.57" y2="275.29" stroke="#0ecb81" stroke-width="1.4" /><rect x="530.57" y="260.61" width="6" height="14.39" rx="1.5" fill="#0ecb81" /><line x1="544.30" y1="251.40" x2="544.30" y2="273.28" stroke="#f6465d" stroke-width="1.4" /><rect x="541.30" y="260.61" width="6" height="2.00" rx="1.5" fill="#f6465d" /><line x1="555.04" y1="254.57" x2="555.04" y2="272.99" stroke="#f6465d" stroke-width="1.4" /><rect x="552.04" y="260.90" width="6" height="4.60" rx="1.5" fill="#f6465d" /><line x1="565.77" y1="265.50" x2="565.77" y2="308.67" stroke="#f6465d" stroke-width="1.4" /><rect x="562.77" y="265.79" width="6" height="11.22" rx="1.5" fill="#f6465d" /><line x1="576.51" y1="274.14" x2="576.51" y2="321.34" stroke="#f6465d" stroke-width="1.4" /><rect x="573.51" y="277.02" width="6" height="41.73" rx="1.5" fill="#f6465d" /><line x1="587.24" y1="286.51" x2="587.24" y2="328.82" stroke="#0ecb81" stroke-width="1.4" /><rect x="584.24" y="296.30" width="6" height="22.74" rx="1.5" fill="#0ecb81" /><line x1="597.97" y1="295.72" x2="597.97" y2="317.02" stroke="#f6465d" stroke-width="1.4" /><rect x="594.97" y="296.01" width="6" height="14.68" rx="1.5" fill="#f6465d" /><line x1="608.71" y1="293.71" x2="608.71" y2="311.55" stroke="#0ecb81" stroke-width="1.4" /><rect x="605.71" y="295.72" width="6" height="15.25" rx="1.5" fill="#0ecb81" /><line x1="619.44" y1="288.53" x2="619.44" y2="311.27" stroke="#f6465d" stroke-width="1.4" /><rect x="616.44" y="295.72" width="6" height="5.76" rx="1.5" fill="#f6465d" /><line x1="630.18" y1="292.85" x2="630.18" y2="316.73" stroke="#f6465d" stroke-width="1.4" /><rect x="627.18" y="301.48" width="6" height="2.01" rx="1.5" fill="#f6465d" /><line x1="640.91" y1="285.08" x2="640.91" y2="311.84" stroke="#f6465d" stroke-width="1.4" /><rect x="637.91" y="303.49" width="6" height="6.04" rx="1.5" fill="#f6465d" /><line x1="651.65" y1="304.65" x2="651.65" y2="324.79" stroke="#f6465d" stroke-width="1.4" /><rect x="648.65" y="309.25" width="6" height="4.60" rx="1.5" fill="#f6465d" /><line x1="662.38" y1="297.16" x2="662.38" y2="315.58" stroke="#0ecb81" stroke-width="1.4" /><rect x="659.38" y="300.33" width="6" height="13.53" rx="1.5" fill="#0ecb81" /><line x1="673.11" y1="290.54" x2="673.11" y2="312.99" stroke="#f6465d" stroke-width="1.4" /><rect x="670.11" y="300.33" width="6" height="8.06" rx="1.5" fill="#f6465d" /><line x1="683.85" y1="273.28" x2="683.85" y2="321.34" stroke="#0ecb81" stroke-width="1.4" /><rect x="680.85" y="284.21" width="6" height="24.18" rx="1.5" fill="#0ecb81" /><line x1="694.58" y1="263.78" x2="694.58" y2="308.96" stroke="#0ecb81" stroke-width="1.4" /><rect x="691.58" y="270.69" width="6" height="13.53" rx="1.5" fill="#0ecb81" /><line x1="705.32" y1="264.93" x2="705.32" y2="314.43" stroke="#f6465d" stroke-width="1.4" /><rect x="702.32" y="270.40" width="6" height="23.89" rx="1.5" fill="#f6465d" /><line x1="716.05" y1="268.38" x2="716.05" y2="299.47" stroke="#0ecb81" stroke-width="1.4" /><rect x="713.05" y="278.74" width="6" height="15.54" rx="1.5" fill="#0ecb81" /><line x1="726.78" y1="254.86" x2="726.78" y2="294.28" stroke="#f6465d" stroke-width="1.4" /><rect x="723.78" y="278.74" width="6" height="8.06" rx="1.5" fill="#f6465d" /><line x1="737.52" y1="255.43" x2="737.52" y2="288.82" stroke="#0ecb81" stroke-width="1.4" /><rect x="734.52" y="280.76" width="6" height="5.76" rx="1.5" fill="#0ecb81" /><line x1="748.25" y1="273.56" x2="748.25" y2="302.06" stroke="#f6465d" stroke-width="1.4" /><rect x="745.25" y="280.76" width="6" height="8.63" rx="1.5" fill="#f6465d" /><line x1="758.99" y1="275.87" x2="758.99" y2="296.01" stroke="#f6465d" stroke-width="1.4" /><rect x="755.99" y="289.39" width="6" height="2.01" rx="1.5" fill="#f6465d" /><line x1="769.72" y1="287.38" x2="769.72" y2="294.86" stroke="#0ecb81" stroke-width="1.4" /><rect x="766.72" y="289.39" width="6" height="2.01" rx="1.5" fill="#0ecb81" /><line x1="780.46" y1="278.46" x2="780.46" y2="292.85" stroke="#0ecb81" stroke-width="1.4" /><rect x="777.46" y="282.20" width="6" height="6.91" rx="1.5" fill="#0ecb81" /><line x1="791.19" y1="274.43" x2="791.19" y2="286.80" stroke="#0ecb81" stroke-width="1.4" /><rect x="788.19" y="277.02" width="6" height="5.18" rx="1.5" fill="#0ecb81" /><line x1="801.92" y1="272.41" x2="801.92" y2="293.42" stroke="#f6465d" stroke-width="1.4" /><rect x="798.92" y="276.73" width="6" height="15.54" rx="1.5" fill="#f6465d" /><line x1="812.66" y1="283.06" x2="812.66" y2="298.89" stroke="#0ecb81" stroke-width="1.4" /><rect x="809.66" y="284.79" width="6" height="7.48" rx="1.5" fill="#0ecb81" /><line x1="823.39" y1="257.16" x2="823.39" y2="294.86" stroke="#0ecb81" stroke-width="1.4" /><rect x="820.39" y="262.34" width="6" height="22.45" rx="1.5" fill="#0ecb81" /><line x1="834.13" y1="256.87" x2="834.13" y2="273.85" stroke="#f6465d" stroke-width="1.4" /><rect x="831.13" y="262.63" width="6" height="2.00" rx="1.5" fill="#f6465d" /><line x1="844.86" y1="230.11" x2="844.86" y2="272.41" stroke="#0ecb81" stroke-width="1.4" /><rect x="841.86" y="245.07" width="6" height="17.84" rx="1.5" fill="#0ecb81" /><line x1="855.59" y1="232.41" x2="855.59" y2="267.81" stroke="#f6465d" stroke-width="1.4" /><rect x="852.59" y="244.78" width="6" height="16.98" rx="1.5" fill="#f6465d" /><line x1="866.33" y1="248.24" x2="866.33" y2="265.22" stroke="#0ecb81" stroke-width="1.4" /><rect x="863.33" y="254.57" width="6" height="7.20" rx="1.5" fill="#0ecb81" /><line x1="877.06" y1="238.45" x2="877.06" y2="258.31" stroke="#0ecb81" stroke-width="1.4" /><rect x="874.06" y="247.95" width="6" height="6.62" rx="1.5" fill="#0ecb81" /><line x1="887.80" y1="246.51" x2="887.80" y2="278.17" stroke="#f6465d" stroke-width="1.4" /><rect x="884.80" y="247.66" width="6" height="25.61" rx="1.5" fill="#f6465d" /><line x1="898.53" y1="262.05" x2="898.53" y2="306.66" stroke="#f6465d" stroke-width="1.4" /><rect x="895.53" y="273.28" width="6" height="16.98" rx="1.5" fill="#f6465d" /><line x1="909.27" y1="274.43" x2="909.27" y2="291.98" stroke="#0ecb81" stroke-width="1.4" /><rect x="906.27" y="288.53" width="6" height="2.00" rx="1.5" fill="#0ecb81" /><line x1="920.00" y1="284.50" x2="920.00" y2="300.90" stroke="#f6465d" stroke-width="1.4" /><rect x="917.00" y="288.24" width="6" height="4.89" rx="1.5" fill="#f6465d" />
  <polyline points="640.91,285.08 651.65,324.79 726.78,254.86 748.25,302.06 844.86,230.11" fill="none" stroke="#2fc273" stroke-width="4" stroke-linecap="round" stroke-linejoin="round" />
  <circle cx="640.91" cy="285.08" r="5.5" fill="#2fc273" fill-opacity="0.15" stroke="#2fc273" stroke-width="2" /><text x="640.91" y="273.08" fill="#f3f4f6" font-size="15" font-weight="700" text-anchor="middle">X</text><circle cx="651.65" cy="324.79" r="5.5" fill="#2fc273" fill-opacity="0.15" stroke="#2fc273" stroke-width="2" /><text x="651.65" y="312.79" fill="#f3f4f6" font-size="15" font-weight="700" text-anchor="middle">A</text><circle cx="726.78" cy="254.86" r="5.5" fill="#2fc273" fill-opacity="0.15" stroke="#2fc273" stroke-width="2" /><text x="726.78" y="242.86" fill="#f3f4f6" font-size="15" font-weight="700" text-anchor="middle">B</text><circle cx="748.25" cy="302.06" r="5.5" fill="#2fc273" fill-opacity="0.15" stroke="#2fc273" stroke-width="2" /><text x="748.25" y="290.06" fill="#f3f4f6" font-size="15" font-weight="700" text-anchor="middle">C</text><circle cx="844.86" cy="230.11" r="5.5" fill="#2fc273" fill-opacity="0.15" stroke="#2fc273" stroke-width="2" /><text x="844.86" y="218.11" fill="#f3f4f6" font-size="15" font-weight="700" text-anchor="middle">D</text>
  <text x="56" y="492" fill="#8ba0b5" font-size="18">Complete · TP1 7.6375 · TP2 7.5785 · SL 7.7509</text>
</svg>
