<svg xmlns="http://www.w3.org/2000/svg" width="960" height="540" viewBox="0 0 960 540">
  <rect width="960" height="540" rx="24" fill="#0b1220" />
  <rect x="28" y="28" width="904" height="484" rx="22" fill="#111827" stroke="#1f2937" />
  <text x="56" y="74" fill="#f3f4f6" font-size="34" font-weight="700">BARDUSDT · AB=CD</text>
  <text x="904" y="74" fill="#8ba0b5" font-size="20" text-anchor="end">Bullish (매수) · Score 88.0</text>
  <line x1="72" y1="58" x2="920" y2="58" stroke="#223045" stroke-width="1" stroke-dasharray="4 8" /><line x1="72" y1="156" x2="920" y2="156" stroke="#223045" stroke-width="1" stroke-dasharray="4 8" /><line x1="72" y1="255" x2="920" y2="255" stroke="#223045" stroke-width="1" stroke-dasharray="4 8" /><line x1="72" y1="353" x2="920" y2="353" stroke="#223045" stroke-width="1" stroke-dasharray="4 8" /><line x1="72" y1="452" x2="920" y2="452" stroke="#223045" stroke-width="1" stroke-dasharray="4 8" />
  <rect x="655.85" y="343.75" width="84" height="185.49" fill="#fbbf24" fill-opacity="0.12" stroke="#fbbf24" stroke-width="1.5" stroke-dasharray="6 6" />
  <line x1="72.00" y1="301.81" x2="72.00" y2="362.28" stroke="#0ecb81" stroke-width="1.4" /><rect x="69.00" y="318.39" width="6" height="43.89" rx="1.5" fill="#0ecb81" /><line x1="82.73" y1="270.60" x2="82.73" y2="374.96" stroke="#f6465d" stroke-width="1.4" /><rect x="79.73" y="317.42" width="6" height="49.74" rx="1.5" fill="#f6465d" /><line x1="93.47" y1="359.35" x2="93.47" y2="407.14" stroke="#f6465d" stroke-width="1.4" /><rect x="90.47" y="367.15" width="6" height="8.78" rx="1.5" fill="#f6465d" /><line x1="104.20" y1="350.57" x2="104.20" y2="388.61" stroke="#0ecb81" stroke-width="1.4" /><rect x="101.20" y="368.13" width="6" height="8.78" rx="1.5" fill="#0ecb81" /><line x1="114.94" y1="324.24" x2="114.94" y2="370.08" stroke="#0ecb81" stroke-width="1.4" /><rect x="111.94" y="356.43" width="6" height="10.73" rx="1.5" fill="#0ecb81" /><line x1="125.67" y1="307.66" x2="125.67" y2="367.15" stroke="#0ecb81" stroke-width="1.4" /><rect x="122.67" y="336.92" width="6" height="20.48" rx="1.5" fill="#0ecb81" /><line x1="136.41" y1="316.44" x2="136.41" y2="355.45" stroke="#0ecb81" stroke-width="1.4" /><rect x="133.41" y="331.07" width="6" height="6.83" rx="1.5" fill="#0ecb81" /><line x1="147.14" y1="295.96" x2="147.14" y2="334.00" stroke="#0ecb81" stroke-width="1.4" /><rect x="144.14" y="319.37" width="6" height="11.70" rx="1.5" fill="#0ecb81" /><line x1="157.87" y1="316.44" x2="157.87" y2="366.18" stroke="#f6465d" stroke-width="1.4" /><rect x="154.87" y="320.34" width="6" height="29.26" rx="1.5" fill="#f6465d" /><line x1="168.61" y1="328.14" x2="168.61" y2="392.51" stroke="#f6465d" stroke-width="1.4" /><rect x="165.61" y="349.60" width="6" height="33.16" rx="1.5" fill="#f6465d" /><line x1="179.34" y1="377.88" x2="179.34" y2="421.77" stroke="#f6465d" stroke-width="1.4" /><rect x="176.34" y="381.78" width="6" height="30.23" rx="1.5" fill="#f6465d" /><line x1="190.08" y1="374.96" x2="190.08" y2="417.87" stroke="#0ecb81" stroke-width="1.4" /><rect x="187.08" y="390.56" width="6" height="22.43" rx="1.5" fill="#0ecb81" /><line x1="200.81" y1="374.96" x2="200.81" y2="408.11" stroke="#f6465d" stroke-width="1.4" /><rect x="197.81" y="391.53" width="6" height="7.80" rx="1.5" fill="#f6465d" /><line x1="211.54" y1="389.58" x2="211.54" y2="407.14" stroke="#0ecb81" stroke-width="1.4" /><rect x="208.54" y="392.51" width="6" height="7.80" rx="1.5" fill="#0ecb81" /><line x1="222.28" y1="365.20" x2="222.28" y2="411.04" stroke="#f6465d" stroke-width="1.4" /><rect x="219.28" y="391.53" width="6" height="15.60" rx="1.5" fill="#f6465d" /><line x1="233.01" y1="393.49" x2="233.01" y2="413.97" stroke="#f6465d" stroke-width="1.4" /><rect x="230.01" y="407.14" width="6" height="3.90" rx="1.5" fill="#f6465d" /><line x1="243.75" y1="391.53" x2="243.75" y2="416.89" stroke="#0ecb81" stroke-width="1.4" /><rect x="240.75" y="392.51" width="6" height="18.53" rx="1.5" fill="#0ecb81" /><line x1="254.48" y1="390.56" x2="254.48" y2="417.87" stroke="#f6465d" stroke-width="1.4" /><rect x="251.48" y="393.49" width="6" height="21.46" rx="1.5" fill="#f6465d" /><line x1="265.22" y1="390.56" x2="265.22" y2="419.82" stroke="#0ecb81" stroke-width="1.4" /><rect x="262.22" y="397.39" width="6" height="17.55" rx="1.5" fill="#0ecb81" /><line x1="275.95" y1="384.71" x2="275.95" y2="424.69" stroke="#f6465d" stroke-width="1.4" /><rect x="272.95" y="396.41" width="6" height="21.46" rx="1.5" fill="#f6465d" /><line x1="286.68" y1="385.68" x2="286.68" y2="418.84" stroke="#0ecb81" stroke-width="1.4" /><rect x="283.68" y="396.41" width="6" height="21.46" rx="1.5" fill="#0ecb81" /><line x1="297.42" y1="58.00" x2="297.42" y2="439.32" stroke="#0ecb81" stroke-width="1.4" /><rect x="294.42" y="137.00" width="6" height="259.42" rx="1.5" fill="#0ecb81" /><line x1="308.15" y1="114.56" x2="308.15" y2="295.96" stroke="#f6465d" stroke-width="1.4" /><rect x="305.15" y="137.97" width="6" height="139.46" rx="1.5" fill="#f6465d" /><line x1="318.89" y1="273.53" x2="318.89" y2="325.22" stroke="#f6465d" stroke-width="1.4" /><rect x="315.89" y="278.41" width="6" height="6.83" rx="1.5" fill="#f6465d" /><line x1="329.62" y1="243.30" x2="329.62" y2="294.01" stroke="#0ecb81" stroke-width="1.4" /><rect x="326.62" y="260.85" width="6" height="25.36" rx="1.5" fill="#0ecb81" /><line x1="340.35" y1="240.37" x2="340.35" y2="275.48" stroke="#0ecb81" stroke-width="1.4" /><rect x="337.35" y="255.00" width="6" height="6.83" rx="1.5" fill="#0ecb81" /><line x1="351.09" y1="252.07" x2="351.09" y2="297.91" stroke="#f6465d" stroke-width="1.4" /><rect x="348.09" y="255.98" width="6" height="28.28" rx="1.5" fill="#f6465d" /><line x1="361.82" y1="285.23" x2="361.82" y2="321.32" stroke="#f6465d" stroke-width="1.4" /><rect x="358.82" y="285.23" width="6" height="29.26" rx="1.5" fill="#f6465d" /><line x1="372.56" y1="259.88" x2="372.56" y2="348.62" stroke="#0ecb81" stroke-width="1.4" /><rect x="369.56" y="267.68" width="6" height="46.81" rx="1.5" fill="#0ecb81" /><line x1="383.29" y1="229.64" x2="383.29" y2="276.46" stroke="#0ecb81" stroke-width="1.4" /><rect x="380.29" y="255.98" width="6" height="11.70" rx="1.5" fill="#0ecb81" /><line x1="394.03" y1="256.95" x2="394.03" y2="286.21" stroke="#f6465d" stroke-width="1.4" /><rect x="391.03" y="256.95" width="6" height="23.41" rx="1.5" fill="#f6465d" /><line x1="404.76" y1="258.90" x2="404.76" y2="301.81" stroke="#f6465d" stroke-width="1.4" /><rect x="401.76" y="281.33" width="6" height="15.60" rx="1.5" fill="#f6465d" /><line x1="415.49" y1="288.16" x2="415.49" y2="325.22" stroke="#f6465d" stroke-width="1.4" /><rect x="412.49" y="296.94" width="6" height="8.78" rx="1.5" fill="#f6465d" /><line x1="426.23" y1="291.08" x2="426.23" y2="313.51" stroke="#f6465d" stroke-width="1.4" /><rect x="423.23" y="304.74" width="6" height="4.88" rx="1.5" fill="#f6465d" /><line x1="436.96" y1="270.60" x2="436.96" y2="312.54" stroke="#0ecb81" stroke-width="1.4" /><rect x="433.96" y="297.91" width="6" height="11.70" rx="1.5" fill="#0ecb81" /><line x1="447.70" y1="297.91" x2="447.70" y2="359.35" stroke="#f6465d" stroke-width="1.4" /><rect x="444.70" y="297.91" width="6" height="54.61" rx="1.5" fill="#f6465d" /><line x1="458.43" y1="318.39" x2="458.43" y2="364.23" stroke="#0ecb81" stroke-width="1.4" /><rect x="455.43" y="333.02" width="6" height="18.53" rx="1.5" fill="#0ecb81" /><line x1="469.16" y1="329.12" x2="469.16" y2="355.45" stroke="#f6465d" stroke-width="1.4" /><rect x="466.16" y="334.00" width="6" height="16.58" rx="1.5" fill="#f6465d" /><line x1="479.90" y1="337.90" x2="479.90" y2="368.13" stroke="#f6465d" stroke-width="1.4" /><rect x="476.90" y="351.55" width="6" height="4.88" rx="1.5" fill="#f6465d" /><line x1="490.63" y1="349.60" x2="490.63" y2="374.96" stroke="#f6465d" stroke-width="1.4" /><rect x="487.63" y="357.40" width="6" height="2.00" rx="1.5" fill="#f6465d" /><line x1="501.37" y1="272.55" x2="501.37" y2="362.28" stroke="#0ecb81" stroke-width="1.4" /><rect x="498.37" y="316.44" width="6" height="42.91" rx="1.5" fill="#0ecb81" /><line x1="512.10" y1="295.96" x2="512.10" y2="328.14" stroke="#f6465d" stroke-width="1.4" /><rect x="509.10" y="317.42" width="6" height="3.90" rx="1.5" fill="#f6465d" /><line x1="522.84" y1="296.94" x2="522.84" y2="327.17" stroke="#0ecb81" stroke-width="1.4" /><rect x="519.84" y="305.71" width="6" height="16.58" rx="1.5" fill="#0ecb81" /><line x1="533.57" y1="280.36" x2="533.57" y2="314.49" stroke="#0ecb81" stroke-width="1.4" /><rect x="530.57" y="297.91" width="6" height="8.78" rx="1.5" fill="#0ecb81" /><line x1="544.30" y1="292.06" x2="544.30" y2="320.34" stroke="#f6465d" stroke-width="1.4" /><rect x="541.30" y="298.89" width="6" height="2.93" rx="1.5" fill="#f6465d" /><line x1="555.04" y1="214.04" x2="555.04" y2="321.32" stroke="#0ecb81" stroke-width="1.4" /><rect x="552.04" y="217.94" width="6" height="84.85" rx="1.5" fill="#0ecb81" /><line x1="565.77" y1="204.29" x2="565.77" y2="261.83" stroke="#0ecb81" stroke-width="1.4" /><rect x="562.77" y="212.09" width="6" height="5.85" rx="1.5" fill="#0ecb81" /><line x1="576.51" y1="198.44" x2="576.51" y2="237.45" stroke="#f6465d" stroke-width="1.4" /><rect x="573.51" y="213.06" width="6" height="14.63" rx="1.5" fill="#f6465d" /><line x1="587.24" y1="204.29" x2="587.24" y2="255.00" stroke="#f6465d" stroke-width="1.4" /><rect x="584.24" y="227.69" width="6" height="9.75" rx="1.5" fill="#f6465d" /><line x1="597.97" y1="233.54" x2="597.97" y2="274.50" stroke="#f6465d" stroke-width="1.4" /><rect x="594.97" y="237.45" width="6" height="27.31" rx="1.5" fill="#f6465d" /><line x1="608.71" y1="262.80" x2="608.71" y2="340.82" stroke="#f6465d" stroke-width="1.4" /><rect x="605.71" y="265.73" width="6" height="67.29" rx="1.5" fill="#f6465d" /><line x1="619.44" y1="333.02" x2="619.44" y2="366.18" stroke="#f6465d" stroke-width="1.4" /><rect x="616.44" y="334.00" width="6" height="17.55" rx="1.5" fill="#f6465d" /><line x1="630.18" y1="341.80" x2="630.18" y2="369.10" stroke="#f6465d" stroke-width="1.4" /><rect x="627.18" y="352.52" width="6" height="6.83" rx="1.5" fill="#f6465d" /><line x1="640.91" y1="346.67" x2="640.91" y2="366.18" stroke="#0ecb81" stroke-width="1.4" /><rect x="637.91" y="352.52" width="6" height="7.80" rx="1.5" fill="#0ecb81" /><line x1="651.65" y1="334.97" x2="651.65" y2="361.30" stroke="#0ecb81" stroke-width="1.4" /><rect x="648.65" y="349.60" width="6" height="2.93" rx="1.5" fill="#0ecb81" /><line x1="662.38" y1="348.62" x2="662.38" y2="404.21" stroke="#f6465d" stroke-width="1.4" /><rect x="659.38" y="350.57" width="6" height="49.74" rx="1.5" fill="#f6465d" /><line x1="673.11" y1="386.66" x2="673.11" y2="415.92" stroke="#0ecb81" stroke-width="1.4" /><rect x="670.11" y="396.41" width="6" height="4.88" rx="1.5" fill="#0ecb81" /><line x1="683.85" y1="396.41" x2="683.85" y2="452.00" stroke="#f6465d" stroke-width="1.4" /><rect x="680.85" y="396.41" width="6" height="39.99" rx="1.5" fill="#f6465d" /><line x1="694.58" y1="424.69" x2="694.58" y2="450.05" stroke="#0ecb81" stroke-width="1.4" /><rect x="691.58" y="426.64" width="6" height="9.75" rx="1.5" fill="#0ecb81" /><line x1="705.32" y1="409.09" x2="705.32" y2="436.40" stroke="#0ecb81" stroke-width="1.4" /><rect x="702.32" y="410.06" width="6" height="16.58" rx="1.5" fill="#0ecb81" /><line x1="716.05" y1="371.05" x2="716.05" y2="414.94" stroke="#0ecb81" stroke-width="1.4" /><rect x="713.05" y="377.88" width="6" height="32.18" rx="1.5" fill="#0ecb81" /><line x1="726.78" y1="352.52" x2="726.78" y2="384.71" stroke="#0ecb81" stroke-width="1.4" /><rect x="723.78" y="374.96" width="6" height="3.90" rx="1.5" fill="#0ecb81" /><line x1="737.52" y1="354.48" x2="737.52" y2="384.71" stroke="#0ecb81" stroke-width="1.4" /><rect x="734.52" y="360.33" width="6" height="15.60" rx="1.5" fill="#0ecb81" /><line x1="748.25" y1="332.04" x2="748.25" y2="377.88" stroke="#f6465d" stroke-width="1.4" /><rect x="745.25" y="359.35" width="6" height="13.65" rx="1.5" fill="#f6465d" /><line x1="758.99" y1="366.18" x2="758.99" y2="386.66" stroke="#0ecb81" stroke-width="1.4" /><rect x="755.99" y="371.05" width="6" height="2.00" rx="1.5" fill="#0ecb81" /><line x1="769.72" y1="364.23" x2="769.72" y2="380.81" stroke="#0ecb81" stroke-width="1.4" /><rect x="766.72" y="367.15" width="6" height="4.88" rx="1.5" fill="#0ecb81" /><line x1="780.46" y1="366.18" x2="780.46" y2="396.41" stroke="#f6465d" stroke-width="1.4" /><rect x="777.46" y="367.15" width="6" height="13.65" rx="1.5" fill="#f6465d" /><line x1="791.19" y1="351.55" x2="791.19" y2="381.78" stroke="#0ecb81" stroke-width="1.4" /><rect x="788.19" y="365.20" width="6" height="15.60" rx="1.5" fill="#0ecb81" /><line x1="801.92" y1="334.00" x2="801.92" y2="371.05" stroke="#0ecb81" stroke-width="1.4" /><rect x="798.92" y="349.60" width="6" height="15.60" rx="1.5" fill="#0ecb81" /><line x1="812.66" y1="323.27" x2="812.66" y2="357.40" stroke="#0ecb81" stroke-width="1.4" /><rect x="809.66" y="335.95" width="6" height="13.65" rx="1.5" fill="#0ecb81" /><line x1="823.39" y1="332.04" x2="823.39" y2="359.35" stroke="#f6465d" stroke-width="1.4" /><rect x="820.39" y="336.92" width="6" height="10.73" rx="1.5" fill="#f6465d" /><line x1="834.13" y1="340.82" x2="834.13" y2="367.15" stroke="#f6465d" stroke-width="1.4" /><rect x="831.13" y="346.67" width="6" height="9.75" rx="1.5" fill="#f6465d" /><line x1="844.86" y1="353.50" x2="844.86" y2="380.81" stroke="#f6465d" stroke-width="1.4" /><rect x="841.86" y="357.40" width="6" height="20.48" rx="1.5" fill="#f6465d" /><line x1="855.59" y1="375.93" x2="855.59" y2="395.44" stroke="#f6465d" stroke-width="1.4" /><rect x="852.59" y="377.88" width="6" height="10.73" rx="1.5" fill="#f6465d" /><line x1="866.33" y1="384.71" x2="866.33" y2="410.06" stroke="#f6465d" stroke-width="1.4" /><rect x="863.33" y="388.61" width="6" height="12.68" rx="1.5" fill="#f6465d" /><line x1="877.06" y1="397.39" x2="877.06" y2="416.89" stroke="#0ecb81" stroke-width="1.4" /><rect x="874.06" y="397.39" width="6" height="3.90" rx="1.5" fill="#0ecb81" /><line x1="887.80" y1="395.44" x2="887.80" y2="425.67" stroke="#f6465d" stroke-width="1.4" /><rect x="884.80" y="397.39" width="6" height="22.43" rx="1.5" fill="#f6465d" /><line x1="898.53" y1="407.14" x2="898.53" y2="424.69" stroke="#0ecb81" stroke-width="1.4" /><rect x="895.53" y="414.94" width="6" height="3.90" rx="1.5" fill="#0ecb81" /><line x1="909.27" y1="383.73" x2="909.27" y2="420.79" stroke="#0ecb81" stroke-width="1.4" /><rect x="906.27" y="397.39" width="6" height="18.53" rx="1.5" fill="#0ecb81" /><line x1="920.00" y1="373.98" x2="920.00" y2="399.34" stroke="#0ecb81" stroke-width="1.4" /><rect x="917.00" y="381.78" width="6" height="14.63" rx="1.5" fill="#0ecb81" />
  <polyline points="297.42,439.32 383.29,229.64 490.63,374.96 576.51,198.44 683.85,452.00" fill="none" stroke="#2fc273" stroke-width="4" stroke-linecap="round" stroke-linejoin="round" />
  <circle cx="297.42" cy="439.32" r="5.5" fill="#2fc273" fill-opacity="0.15" stroke="#2fc273" stroke-width="2" /><text x="297.42" y="427.32" fill="#f3f4f6" font-size="15" font-weight="700" text-anchor="middle">X</text><circle cx="383.29" cy="229.64" r="5.5" fill="#2fc273" fill-opacity="0.15" stroke="#2fc273" stroke-width="2" /><text x="383.29" y="217.64" fill="#f3f4f6" font-size="15" font-weight="700" text-anchor="middle">A</text><circle cx="490.63" cy="374.96" r="5.5" fill="#2fc273" fill-opacity="0.15" stroke="#2fc273" stroke-width="2" /><text x="490.63" y="362.96" fill="#f3f4f6" font-size="15" font-weight="700" text-anchor="middle">B</text><circle cx="576.51" cy="198.44" r="5.5" fill="#2fc273" fill-opacity="0.15" stroke="#2fc273" stroke-width="2" /><text x="576.51" y="186.44" fill="#f3f4f6" font-size="15" font-weight="700" text-anchor="middle">C</text><circle cx="683.85" cy="452.00" r="5.5" fill="#2fc273" fill-opacity="0.15" stroke="#2fc273" stroke-width="2" /><text x="683.85" y="440.00" fill="#f3f4f6" font-size="15" font-weight="700" text-anchor="middle">D</text>
  <text x="56" y="492" fill="#8ba0b5" font-size="18">일반 완성 · TP1 0.30163 · TP2 0.30777 · SL 0.28891</text>
</svg>
