<svg xmlns="http://www.w3.org/2000/svg" width="960" height="540" viewBox="0 0 960 540">
  <rect width="960" height="540" rx="24" fill="#0b1220" />
  <rect x="28" y="28" width="904" height="484" rx="22" fill="#111827" stroke="#1f2937" />
  <text x="56" y="74" fill="#f3f4f6" font-size="34" font-weight="700">BARDUSDT · AB=CD</text>
  <text x="904" y="74" fill="#8ba0b5" font-size="20" text-anchor="end">Bearish (매도) · Score 82.5</text>
  <line x1="72" y1="58" x2="920" y2="58" stroke="#223045" stroke-width="1" stroke-dasharray="4 8" /><line x1="72" y1="156" x2="920" y2="156" stroke="#223045" stroke-width="1" stroke-dasharray="4 8" /><line x1="72" y1="255" x2="920" y2="255" stroke="#223045" stroke-width="1" stroke-dasharray="4 8" /><line x1="72" y1="353" x2="920" y2="353" stroke="#223045" stroke-width="1" stroke-dasharray="4 8" /><line x1="72" y1="452" x2="920" y2="452" stroke="#223045" stroke-width="1" stroke-dasharray="4 8" />
  <rect x="773.92" y="102.23" width="84" height="62.00" fill="#fbbf24" fill-opacity="0.12" stroke="#fbbf24" stroke-width="1.5" stroke-dasharray="6 6" />
  <line x1="72.00" y1="133.32" x2="72.00" y2="177.75" stroke="#0ecb81" stroke-width="1.4" /><rect x="69.00" y="154.57" width="6" height="19.31" rx="1.5" fill="#0ecb81" /><line x1="82.73" y1="153.60" x2="82.73" y2="179.68" stroke="#f6465d" stroke-width="1.4" /><rect x="79.73" y="154.57" width="6" height="22.21" rx="1.5" fill="#f6465d" /><line x1="93.47" y1="166.16" x2="93.47" y2="205.75" stroke="#f6465d" stroke-width="1.4" /><rect x="90.47" y="176.78" width="6" height="15.45" rx="1.5" fill="#f6465d" /><line x1="104.20" y1="167.12" x2="104.20" y2="227.96" stroke="#f6465d" stroke-width="1.4" /><rect x="101.20" y="192.23" width="6" height="20.28" rx="1.5" fill="#f6465d" /><line x1="114.94" y1="212.51" x2="114.94" y2="265.62" stroke="#f6465d" stroke-width="1.4" /><rect x="111.94" y="213.48" width="6" height="23.18" rx="1.5" fill="#f6465d" /><line x1="125.67" y1="231.82" x2="125.67" y2="269.49" stroke="#f6465d" stroke-width="1.4" /><rect x="122.67" y="236.65" width="6" height="15.45" rx="1.5" fill="#f6465d" /><line x1="136.41" y1="251.14" x2="136.41" y2="286.87" stroke="#f6465d" stroke-width="1.4" /><rect x="133.41" y="252.10" width="6" height="19.31" rx="1.5" fill="#f6465d" /><line x1="147.14" y1="260.79" x2="147.14" y2="302.32" stroke="#f6465d" stroke-width="1.4" /><rect x="144.14" y="272.38" width="6" height="2.00" rx="1.5" fill="#f6465d" /><line x1="157.87" y1="232.79" x2="157.87" y2="283.00" stroke="#0ecb81" stroke-width="1.4" /><rect x="154.87" y="245.34" width="6" height="28.97" rx="1.5" fill="#0ecb81" /><line x1="168.61" y1="239.55" x2="168.61" y2="300.39" stroke="#f6465d" stroke-width="1.4" /><rect x="165.61" y="244.38" width="6" height="50.22" rx="1.5" fill="#f6465d" /><line x1="179.34" y1="273.35" x2="179.34" y2="316.80" stroke="#0ecb81" stroke-width="1.4" /><rect x="176.34" y="278.18" width="6" height="15.45" rx="1.5" fill="#0ecb81" /><line x1="190.08" y1="258.86" x2="190.08" y2="305.22" stroke="#f6465d" stroke-width="1.4" /><rect x="187.08" y="279.14" width="6" height="22.21" rx="1.5" fill="#f6465d" /><line x1="200.81" y1="270.45" x2="200.81" y2="319.70" stroke="#0ecb81" stroke-width="1.4" /><rect x="197.81" y="277.21" width="6" height="25.11" rx="1.5" fill="#0ecb81" /><line x1="211.54" y1="265.62" x2="211.54" y2="295.56" stroke="#0ecb81" stroke-width="1.4" /><rect x="208.54" y="277.21" width="6" height="2.00" rx="1.5" fill="#0ecb81" /><line x1="222.28" y1="255.97" x2="222.28" y2="289.76" stroke="#f6465d" stroke-width="1.4" /><rect x="219.28" y="277.21" width="6" height="10.62" rx="1.5" fill="#f6465d" /><line x1="233.01" y1="285.90" x2="233.01" y2="338.05" stroke="#f6465d" stroke-width="1.4" /><rect x="230.01" y="287.83" width="6" height="44.42" rx="1.5" fill="#f6465d" /><line x1="243.75" y1="317.77" x2="243.75" y2="366.05" stroke="#f6465d" stroke-width="1.4" /><rect x="240.75" y="333.22" width="6" height="15.45" rx="1.5" fill="#f6465d" /><line x1="254.48" y1="309.08" x2="254.48" y2="349.64" stroke="#0ecb81" stroke-width="1.4" /><rect x="251.48" y="339.01" width="6" height="8.69" rx="1.5" fill="#0ecb81" /><line x1="265.22" y1="337.08" x2="265.22" y2="452.00" stroke="#f6465d" stroke-width="1.4" /><rect x="262.22" y="339.01" width="6" height="82.08" rx="1.5" fill="#f6465d" /><line x1="275.95" y1="395.99" x2="275.95" y2="446.21" stroke="#0ecb81" stroke-width="1.4" /><rect x="272.95" y="407.58" width="6" height="13.52" rx="1.5" fill="#0ecb81" /><line x1="286.68" y1="355.43" x2="286.68" y2="415.30" stroke="#0ecb81" stroke-width="1.4" /><rect x="283.68" y="359.29" width="6" height="47.32" rx="1.5" fill="#0ecb81" /><line x1="297.42" y1="299.42" x2="297.42" y2="359.29" stroke="#0ecb81" stroke-width="1.4" /><rect x="294.42" y="315.84" width="6" height="43.46" rx="1.5" fill="#0ecb81" /><line x1="308.15" y1="268.52" x2="308.15" y2="371.85" stroke="#f6465d" stroke-width="1.4" /><rect x="305.15" y="314.87" width="6" height="49.25" rx="1.5" fill="#f6465d" /><line x1="318.89" y1="356.40" x2="318.89" y2="403.72" stroke="#f6465d" stroke-width="1.4" /><rect x="315.89" y="364.12" width="6" height="8.69" rx="1.5" fill="#f6465d" /><line x1="329.62" y1="347.71" x2="329.62" y2="385.37" stroke="#0ecb81" stroke-width="1.4" /><rect x="326.62" y="365.09" width="6" height="8.69" rx="1.5" fill="#0ecb81" /><line x1="340.35" y1="321.63" x2="340.35" y2="367.02" stroke="#0ecb81" stroke-width="1.4" /><rect x="337.35" y="353.50" width="6" height="10.62" rx="1.5" fill="#0ecb81" /><line x1="351.09" y1="305.22" x2="351.09" y2="364.12" stroke="#0ecb81" stroke-width="1.4" /><rect x="348.09" y="334.19" width="6" height="20.28" rx="1.5" fill="#0ecb81" /><line x1="361.82" y1="313.91" x2="361.82" y2="352.53" stroke="#0ecb81" stroke-width="1.4" /><rect x="358.82" y="328.39" width="6" height="6.76" rx="1.5" fill="#0ecb81" /><line x1="372.56" y1="293.63" x2="372.56" y2="331.29" stroke="#0ecb81" stroke-width="1.4" /><rect x="369.56" y="316.80" width="6" height="11.59" rx="1.5" fill="#0ecb81" /><line x1="383.29" y1="313.91" x2="383.29" y2="363.16" stroke="#f6465d" stroke-width="1.4" /><rect x="380.29" y="317.77" width="6" height="28.97" rx="1.5" fill="#f6465d" /><line x1="394.03" y1="325.50" x2="394.03" y2="389.23" stroke="#f6465d" stroke-width="1.4" /><rect x="391.03" y="346.74" width="6" height="32.83" rx="1.5" fill="#f6465d" /><line x1="404.76" y1="374.75" x2="404.76" y2="418.20" stroke="#f6465d" stroke-width="1.4" /><rect x="401.76" y="378.61" width="6" height="29.94" rx="1.5" fill="#f6465d" /><line x1="415.49" y1="371.85" x2="415.49" y2="414.34" stroke="#0ecb81" stroke-width="1.4" /><rect x="412.49" y="387.30" width="6" height="22.21" rx="1.5" fill="#0ecb81" /><line x1="426.23" y1="371.85" x2="426.23" y2="404.68" stroke="#f6465d" stroke-width="1.4" /><rect x="423.23" y="388.26" width="6" height="7.73" rx="1.5" fill="#f6465d" /><line x1="436.96" y1="386.33" x2="436.96" y2="403.72" stroke="#0ecb81" stroke-width="1.4" /><rect x="433.96" y="389.23" width="6" height="7.73" rx="1.5" fill="#0ecb81" /><line x1="447.70" y1="362.19" x2="447.70" y2="407.58" stroke="#f6465d" stroke-width="1.4" /><rect x="444.70" y="388.26" width="6" height="15.45" rx="1.5" fill="#f6465d" /><line x1="458.43" y1="390.20" x2="458.43" y2="410.48" stroke="#f6465d" stroke-width="1.4" /><rect x="455.43" y="403.72" width="6" height="3.86" rx="1.5" fill="#f6465d" /><line x1="469.16" y1="388.26" x2="469.16" y2="413.37" stroke="#0ecb81" stroke-width="1.4" /><rect x="466.16" y="389.23" width="6" height="18.35" rx="1.5" fill="#0ecb81" /><line x1="479.90" y1="387.30" x2="479.90" y2="414.34" stroke="#f6465d" stroke-width="1.4" /><rect x="476.90" y="390.20" width="6" height="21.25" rx="1.5" fill="#f6465d" /><line x1="490.63" y1="387.30" x2="490.63" y2="416.27" stroke="#0ecb81" stroke-width="1.4" /><rect x="487.63" y="394.06" width="6" height="17.38" rx="1.5" fill="#0ecb81" /><line x1="501.37" y1="381.50" x2="501.37" y2="421.10" stroke="#f6465d" stroke-width="1.4" /><rect x="498.37" y="393.09" width="6" height="21.25" rx="1.5" fill="#f6465d" /><line x1="512.10" y1="382.47" x2="512.10" y2="415.30" stroke="#0ecb81" stroke-width="1.4" /><rect x="509.10" y="393.09" width="6" height="21.25" rx="1.5" fill="#0ecb81" /><line x1="522.84" y1="58.00" x2="522.84" y2="435.58" stroke="#0ecb81" stroke-width="1.4" /><rect x="519.84" y="136.22" width="6" height="256.87" rx="1.5" fill="#0ecb81" /><line x1="533.57" y1="114.01" x2="533.57" y2="293.63" stroke="#f6465d" stroke-width="1.4" /><rect x="530.57" y="137.19" width="6" height="138.09" rx="1.5" fill="#f6465d" /><line x1="544.30" y1="271.42" x2="544.30" y2="322.60" stroke="#f6465d" stroke-width="1.4" /><rect x="541.30" y="276.25" width="6" height="6.76" rx="1.5" fill="#f6465d" /><line x1="555.04" y1="241.48" x2="555.04" y2="291.70" stroke="#0ecb81" stroke-width="1.4" /><rect x="552.04" y="258.86" width="6" height="25.11" rx="1.5" fill="#0ecb81" /><line x1="565.77" y1="238.58" x2="565.77" y2="273.35" stroke="#0ecb81" stroke-width="1.4" /><rect x="562.77" y="253.07" width="6" height="6.76" rx="1.5" fill="#0ecb81" /><line x1="576.51" y1="250.17" x2="576.51" y2="295.56" stroke="#f6465d" stroke-width="1.4" /><rect x="573.51" y="254.03" width="6" height="28.00" rx="1.5" fill="#f6465d" /><line x1="587.24" y1="283.00" x2="587.24" y2="318.74" stroke="#f6465d" stroke-width="1.4" /><rect x="584.24" y="283.00" width="6" height="28.97" rx="1.5" fill="#f6465d" /><line x1="597.97" y1="257.90" x2="597.97" y2="345.77" stroke="#0ecb81" stroke-width="1.4" /><rect x="594.97" y="265.62" width="6" height="46.35" rx="1.5" fill="#0ecb81" /><line x1="608.71" y1="227.96" x2="608.71" y2="274.31" stroke="#0ecb81" stroke-width="1.4" /><rect x="605.71" y="254.03" width="6" height="11.59" rx="1.5" fill="#0ecb81" /><line x1="619.44" y1="255.00" x2="619.44" y2="283.97" stroke="#f6465d" stroke-width="1.4" /><rect x="616.44" y="255.00" width="6" height="23.18" rx="1.5" fill="#f6465d" /><line x1="630.18" y1="256.93" x2="630.18" y2="299.42" stroke="#f6465d" stroke-width="1.4" /><rect x="627.18" y="279.14" width="6" height="15.45" rx="1.5" fill="#f6465d" /><line x1="640.91" y1="285.90" x2="640.91" y2="322.60" stroke="#f6465d" stroke-width="1.4" /><rect x="637.91" y="294.59" width="6" height="8.69" rx="1.5" fill="#f6465d" /><line x1="651.65" y1="288.80" x2="651.65" y2="311.01" stroke="#f6465d" stroke-width="1.4" /><rect x="648.65" y="302.32" width="6" height="4.83" rx="1.5" fill="#f6465d" /><line x1="662.38" y1="268.52" x2="662.38" y2="310.04" stroke="#0ecb81" stroke-width="1.4" /><rect x="659.38" y="295.56" width="6" height="11.59" rx="1.5" fill="#0ecb81" /><line x1="673.11" y1="295.56" x2="673.11" y2="356.40" stroke="#f6465d" stroke-width="1.4" /><rect x="670.11" y="295.56" width="6" height="54.08" rx="1.5" fill="#f6465d" /><line x1="683.85" y1="315.84" x2="683.85" y2="361.23" stroke="#0ecb81" stroke-width="1.4" /><rect x="680.85" y="330.32" width="6" height="18.35" rx="1.5" fill="#0ecb81" /><line x1="694.58" y1="326.46" x2="694.58" y2="352.53" stroke="#f6465d" stroke-width="1.4" /><rect x="691.58" y="331.29" width="6" height="16.42" rx="1.5" fill="#f6465d" /><line x1="705.32" y1="335.15" x2="705.32" y2="365.09" stroke="#f6465d" stroke-width="1.4" /><rect x="702.32" y="348.67" width="6" height="4.83" rx="1.5" fill="#f6465d" /><line x1="716.05" y1="346.74" x2="716.05" y2="371.85" stroke="#f6465d" stroke-width="1.4" /><rect x="713.05" y="354.47" width="6" height="2.00" rx="1.5" fill="#f6465d" /><line x1="726.78" y1="270.45" x2="726.78" y2="359.29" stroke="#0ecb81" stroke-width="1.4" /><rect x="723.78" y="313.91" width="6" height="42.49" rx="1.5" fill="#0ecb81" /><line x1="737.52" y1="293.63" x2="737.52" y2="325.50" stroke="#f6465d" stroke-width="1.4" /><rect x="734.52" y="314.87" width="6" height="3.86" rx="1.5" fill="#f6465d" /><line x1="748.25" y1="294.59" x2="748.25" y2="324.53" stroke="#0ecb81" stroke-width="1.4" /><rect x="745.25" y="303.28" width="6" height="16.42" rx="1.5" fill="#0ecb81" /><line x1="758.99" y1="278.18" x2="758.99" y2="311.98" stroke="#0ecb81" stroke-width="1.4" /><rect x="755.99" y="295.56" width="6" height="8.69" rx="1.5" fill="#0ecb81" /><line x1="769.72" y1="289.76" x2="769.72" y2="317.77" stroke="#f6465d" stroke-width="1.4" /><rect x="766.72" y="296.52" width="6" height="2.90" rx="1.5" fill="#f6465d" /><line x1="780.46" y1="212.51" x2="780.46" y2="318.74" stroke="#0ecb81" stroke-width="1.4" /><rect x="777.46" y="216.37" width="6" height="84.01" rx="1.5" fill="#0ecb81" /><line x1="791.19" y1="202.85" x2="791.19" y2="259.83" stroke="#0ecb81" stroke-width="1.4" /><rect x="788.19" y="210.58" width="6" height="5.79" rx="1.5" fill="#0ecb81" /><line x1="801.92" y1="197.06" x2="801.92" y2="235.69" stroke="#f6465d" stroke-width="1.4" /><rect x="798.92" y="211.54" width="6" height="14.49" rx="1.5" fill="#f6465d" /><line x1="812.66" y1="202.85" x2="812.66" y2="253.07" stroke="#f6465d" stroke-width="1.4" /><rect x="809.66" y="226.03" width="6" height="9.66" rx="1.5" fill="#f6465d" /><line x1="823.39" y1="231.82" x2="823.39" y2="272.38" stroke="#f6465d" stroke-width="1.4" /><rect x="820.39" y="235.69" width="6" height="27.04" rx="1.5" fill="#f6465d" /><line x1="834.13" y1="260.79" x2="834.13" y2="338.05" stroke="#f6465d" stroke-width="1.4" /><rect x="831.13" y="263.69" width="6" height="66.63" rx="1.5" fill="#f6465d" /><line x1="844.86" y1="330.32" x2="844.86" y2="363.16" stroke="#f6465d" stroke-width="1.4" /><rect x="841.86" y="331.29" width="6" height="17.38" rx="1.5" fill="#f6465d" /><line x1="855.59" y1="339.01" x2="855.59" y2="366.05" stroke="#f6465d" stroke-width="1.4" /><rect x="852.59" y="349.64" width="6" height="6.76" rx="1.5" fill="#f6465d" /><line x1="866.33" y1="343.84" x2="866.33" y2="363.16" stroke="#0ecb81" stroke-width="1.4" /><rect x="863.33" y="349.64" width="6" height="7.73" rx="1.5" fill="#0ecb81" /><line x1="877.06" y1="332.25" x2="877.06" y2="358.33" stroke="#0ecb81" stroke-width="1.4" /><rect x="874.06" y="346.74" width="6" height="2.90" rx="1.5" fill="#0ecb81" /><line x1="887.80" y1="345.77" x2="887.80" y2="400.82" stroke="#f6465d" stroke-width="1.4" /><rect x="884.80" y="347.71" width="6" height="49.25" rx="1.5" fill="#f6465d" /><line x1="898.53" y1="383.44" x2="898.53" y2="412.41" stroke="#0ecb81" stroke-width="1.4" /><rect x="895.53" y="393.09" width="6" height="4.83" rx="1.5" fill="#0ecb81" /><line x1="909.27" y1="393.09" x2="909.27" y2="448.14" stroke="#f6465d" stroke-width="1.4" /><rect x="906.27" y="393.09" width="6" height="39.59" rx="1.5" fill="#f6465d" /><line x1="920.00" y1="428.82" x2="920.00" y2="433.65" stroke="#0ecb81" stroke-width="1.4" /><rect x="917.00" y="429.79" width="6" height="2.90" rx="1.5" fill="#0ecb81" />
  <polyline points="522.84,58.00 522.84,435.58 608.71,227.96 716.05,371.85 801.92,197.06" fill="none" stroke="#2fc273" stroke-width="4" stroke-linecap="round" stroke-linejoin="round" />
  <circle cx="522.84" cy="58.00" r="5.5" fill="#2fc273" fill-opacity="0.15" stroke="#2fc273" stroke-width="2" /><text x="522.84" y="46.00" fill="#f3f4f6" font-size="15" font-weight="700" text-anchor="middle">X</text><circle cx="522.84" cy="435.58" r="5.5" fill="#2fc273" fill-opacity="0.15" stroke="#2fc273" stroke-width="2" /><text x="522.84" y="423.58" fill="#f3f4f6" font-size="15" font-weight="700" text-anchor="middle">A</text><circle cx="608.71" cy="227.96" r="5.5" fill="#2fc273" fill-opacity="0.15" stroke="#2fc273" stroke-width="2" /><text x="608.71" y="215.96" fill="#f3f4f6" font-size="15" font-weight="700" text-anchor="middle">B</text><circle cx="716.05" cy="371.85" r="5.5" fill="#2fc273" fill-opacity="0.15" stroke="#2fc273" stroke-width="2" /><text x="716.05" y="359.85" fill="#f3f4f6" font-size="15" font-weight="700" text-anchor="middle">C</text><circle cx="801.92" cy="197.06" r="5.5" fill="#2fc273" fill-opacity="0.15" stroke="#2fc273" stroke-width="2" /><text x="801.92" y="185.06" fill="#f3f4f6" font-size="15" font-weight="700" text-anchor="middle">D</text>
  <text x="56" y="492" fill="#8ba0b5" font-size="18">일반 완성 · TP1 0.31079 · TP2 0.30651 · SL 0.32278</text>
</svg>
