<svg xmlns="http://www.w3.org/2000/svg" width="960" height="540" viewBox="0 0 960 540">
  <rect width="960" height="540" rx="24" fill="#0b1220" />
  <rect x="28" y="28" width="904" height="484" rx="22" fill="#111827" stroke="#1f2937" />
  <text x="56" y="74" fill="#f3f4f6" font-size="34" font-weight="700">BRUSDT · AB=CD</text>
  <text x="904" y="74" fill="#8ba0b5" font-size="20" text-anchor="end">Bearish (매도) · Score 78.7</text>
  <line x1="72" y1="58" x2="920" y2="58" stroke="#223045" stroke-width="1" stroke-dasharray="4 8" /><line x1="72" y1="156" x2="920" y2="156" stroke="#223045" stroke-width="1" stroke-dasharray="4 8" /><line x1="72" y1="255" x2="920" y2="255" stroke="#223045" stroke-width="1" stroke-dasharray="4 8" /><line x1="72" y1="353" x2="920" y2="353" stroke="#223045" stroke-width="1" stroke-dasharray="4 8" /><line x1="72" y1="452" x2="920" y2="452" stroke="#223045" stroke-width="1" stroke-dasharray="4 8" />
  <rect x="516.30" y="28.57" width="84" height="74.65" fill="#fbbf24" fill-opacity="0.12" stroke="#fbbf24" stroke-width="1.5" stroke-dasharray="6 6" />
  <line x1="72.00" y1="288.47" x2="72.00" y2="320.99" stroke="#f6465d" stroke-width="1.4" /><rect x="69.00" y="297.10" width="6" height="9.99" rx="1.5" fill="#f6465d" /><line x1="82.73" y1="231.90" x2="82.73" y2="365.13" stroke="#f6465d" stroke-width="1.4" /><rect x="79.73" y="307.15" width="6" height="48.75" rx="1.5" fill="#f6465d" /><line x1="93.47" y1="302.37" x2="93.47" y2="364.10" stroke="#0ecb81" stroke-width="1.4" /><rect x="90.47" y="343.42" width="6" height="13.68" rx="1.5" fill="#0ecb81" /><line x1="104.20" y1="309.16" x2="104.20" y2="347.43" stroke="#0ecb81" stroke-width="1.4" /><rect x="101.20" y="322.08" width="6" height="21.01" rx="1.5" fill="#0ecb81" /><line x1="114.94" y1="275.50" x2="114.94" y2="323.22" stroke="#0ecb81" stroke-width="1.4" /><rect x="111.94" y="313.66" width="6" height="8.47" rx="1.5" fill="#0ecb81" /><line x1="125.67" y1="213.11" x2="125.67" y2="344.01" stroke="#f6465d" stroke-width="1.4" /><rect x="122.67" y="313.61" width="6" height="8.36" rx="1.5" fill="#f6465d" /><line x1="136.41" y1="313.07" x2="136.41" y2="368.77" stroke="#f6465d" stroke-width="1.4" /><rect x="133.41" y="322.24" width="6" height="3.69" rx="1.5" fill="#f6465d" /><line x1="147.14" y1="277.99" x2="147.14" y2="347.16" stroke="#f6465d" stroke-width="1.4" /><rect x="144.14" y="325.99" width="6" height="6.03" rx="1.5" fill="#f6465d" /><line x1="157.87" y1="316.59" x2="157.87" y2="356.50" stroke="#0ecb81" stroke-width="1.4" /><rect x="154.87" y="326.15" width="6" height="5.92" rx="1.5" fill="#0ecb81" /><line x1="168.61" y1="301.94" x2="168.61" y2="353.08" stroke="#f6465d" stroke-width="1.4" /><rect x="165.61" y="326.15" width="6" height="17.16" rx="1.5" fill="#f6465d" /><line x1="179.34" y1="330.44" x2="179.34" y2="375.99" stroke="#0ecb81" stroke-width="1.4" /><rect x="176.34" y="338.85" width="6" height="4.40" rx="1.5" fill="#0ecb81" /><line x1="190.08" y1="304.27" x2="190.08" y2="352.48" stroke="#f6465d" stroke-width="1.4" /><rect x="187.08" y="338.75" width="6" height="6.62" rx="1.5" fill="#f6465d" /><line x1="200.81" y1="320.61" x2="200.81" y2="361.93" stroke="#0ecb81" stroke-width="1.4" /><rect x="197.81" y="324.41" width="6" height="20.96" rx="1.5" fill="#0ecb81" /><line x1="211.54" y1="313.72" x2="211.54" y2="347.60" stroke="#f6465d" stroke-width="1.4" /><rect x="208.54" y="324.36" width="6" height="11.78" rx="1.5" fill="#f6465d" /><line x1="222.28" y1="310.46" x2="222.28" y2="336.57" stroke="#0ecb81" stroke-width="1.4" /><rect x="219.28" y="320.40" width="6" height="15.64" rx="1.5" fill="#0ecb81" /><line x1="233.01" y1="302.04" x2="233.01" y2="352.05" stroke="#f6465d" stroke-width="1.4" /><rect x="230.01" y="320.56" width="6" height="10.59" rx="1.5" fill="#f6465d" /><line x1="243.75" y1="198.13" x2="243.75" y2="342.49" stroke="#0ecb81" stroke-width="1.4" /><rect x="240.75" y="222.61" width="6" height="109.02" rx="1.5" fill="#0ecb81" /><line x1="254.48" y1="175.11" x2="254.48" y2="284.13" stroke="#f6465d" stroke-width="1.4" /><rect x="251.48" y="222.61" width="6" height="5.05" rx="1.5" fill="#f6465d" /><line x1="265.22" y1="227.66" x2="265.22" y2="294.12" stroke="#f6465d" stroke-width="1.4" /><rect x="262.22" y="228.15" width="6" height="8.25" rx="1.5" fill="#f6465d" /><line x1="275.95" y1="166.42" x2="275.95" y2="237.71" stroke="#0ecb81" stroke-width="1.4" /><rect x="272.95" y="210.29" width="6" height="26.06" rx="1.5" fill="#0ecb81" /><line x1="286.68" y1="172.83" x2="286.68" y2="290.70" stroke="#f6465d" stroke-width="1.4" /><rect x="283.68" y="210.62" width="6" height="64.01" rx="1.5" fill="#f6465d" /><line x1="297.42" y1="238.74" x2="297.42" y2="299.82" stroke="#0ecb81" stroke-width="1.4" /><rect x="294.42" y="268.17" width="6" height="6.35" rx="1.5" fill="#0ecb81" /><line x1="308.15" y1="251.34" x2="308.15" y2="280.06" stroke="#0ecb81" stroke-width="1.4" /><rect x="305.15" y="268.60" width="6" height="2.00" rx="1.5" fill="#0ecb81" /><line x1="318.89" y1="257.47" x2="318.89" y2="275.17" stroke="#0ecb81" stroke-width="1.4" /><rect x="315.89" y="260.78" width="6" height="8.14" rx="1.5" fill="#0ecb81" /><line x1="329.62" y1="257.63" x2="329.62" y2="276.42" stroke="#0ecb81" stroke-width="1.4" /><rect x="326.62" y="260.08" width="6" height="2.00" rx="1.5" fill="#0ecb81" /><line x1="340.35" y1="249.98" x2="340.35" y2="272.46" stroke="#0ecb81" stroke-width="1.4" /><rect x="337.35" y="257.14" width="6" height="2.88" rx="1.5" fill="#0ecb81" /><line x1="351.09" y1="254.32" x2="351.09" y2="283.15" stroke="#f6465d" stroke-width="1.4" /><rect x="348.09" y="257.04" width="6" height="21.93" rx="1.5" fill="#f6465d" /><line x1="361.82" y1="251.12" x2="361.82" y2="280.27" stroke="#0ecb81" stroke-width="1.4" /><rect x="358.82" y="255.19" width="6" height="23.78" rx="1.5" fill="#0ecb81" /><line x1="372.56" y1="193.79" x2="372.56" y2="267.13" stroke="#0ecb81" stroke-width="1.4" /><rect x="369.56" y="195.85" width="6" height="59.34" rx="1.5" fill="#0ecb81" /><line x1="383.29" y1="150.95" x2="383.29" y2="245.69" stroke="#f6465d" stroke-width="1.4" /><rect x="380.29" y="195.96" width="6" height="48.27" rx="1.5" fill="#f6465d" /><line x1="394.03" y1="169.84" x2="394.03" y2="271.75" stroke="#0ecb81" stroke-width="1.4" /><rect x="391.03" y="191.61" width="6" height="52.56" rx="1.5" fill="#0ecb81" /><line x1="404.76" y1="174.24" x2="404.76" y2="219.09" stroke="#f6465d" stroke-width="1.4" /><rect x="401.76" y="191.56" width="6" height="7.22" rx="1.5" fill="#f6465d" /><line x1="415.49" y1="166.75" x2="415.49" y2="218.43" stroke="#0ecb81" stroke-width="1.4" /><rect x="412.49" y="170.49" width="6" height="28.29" rx="1.5" fill="#0ecb81" /><line x1="426.23" y1="143.94" x2="426.23" y2="213.66" stroke="#f6465d" stroke-width="1.4" /><rect x="423.23" y="170.17" width="6" height="31.87" rx="1.5" fill="#f6465d" /><line x1="436.96" y1="185.97" x2="436.96" y2="230.49" stroke="#0ecb81" stroke-width="1.4" /><rect x="433.96" y="187.76" width="6" height="14.22" rx="1.5" fill="#0ecb81" /><line x1="447.70" y1="167.34" x2="447.70" y2="207.30" stroke="#0ecb81" stroke-width="1.4" /><rect x="444.70" y="177.01" width="6" height="10.26" rx="1.5" fill="#0ecb81" /><line x1="458.43" y1="164.25" x2="458.43" y2="217.73" stroke="#f6465d" stroke-width="1.4" /><rect x="455.43" y="177.01" width="6" height="18.79" rx="1.5" fill="#f6465d" /><line x1="469.16" y1="158.98" x2="469.16" y2="206.49" stroke="#0ecb81" stroke-width="1.4" /><rect x="466.16" y="173.59" width="6" height="22.15" rx="1.5" fill="#0ecb81" /><line x1="479.90" y1="116.53" x2="479.90" y2="180.16" stroke="#0ecb81" stroke-width="1.4" /><rect x="476.90" y="161.70" width="6" height="11.56" rx="1.5" fill="#0ecb81" /><line x1="490.63" y1="145.68" x2="490.63" y2="187.38" stroke="#f6465d" stroke-width="1.4" /><rect x="487.63" y="161.64" width="6" height="17.26" rx="1.5" fill="#f6465d" /><line x1="501.37" y1="167.56" x2="501.37" y2="217.19" stroke="#f6465d" stroke-width="1.4" /><rect x="498.37" y="178.47" width="6" height="14.82" rx="1.5" fill="#f6465d" /><line x1="512.10" y1="167.72" x2="512.10" y2="208.77" stroke="#0ecb81" stroke-width="1.4" /><rect x="509.10" y="183.58" width="6" height="9.61" rx="1.5" fill="#0ecb81" /><line x1="522.84" y1="143.62" x2="522.84" y2="198.07" stroke="#0ecb81" stroke-width="1.4" /><rect x="519.84" y="174.08" width="6" height="9.28" rx="1.5" fill="#0ecb81" /><line x1="533.57" y1="141.23" x2="533.57" y2="175.43" stroke="#0ecb81" stroke-width="1.4" /><rect x="530.57" y="148.72" width="6" height="25.30" rx="1.5" fill="#0ecb81" /><line x1="544.30" y1="126.25" x2="544.30" y2="189.06" stroke="#f6465d" stroke-width="1.4" /><rect x="541.30" y="148.72" width="6" height="31.87" rx="1.5" fill="#f6465d" /><line x1="555.04" y1="155.24" x2="555.04" y2="196.23" stroke="#0ecb81" stroke-width="1.4" /><rect x="552.04" y="177.55" width="6" height="3.31" rx="1.5" fill="#0ecb81" /><line x1="565.77" y1="156.60" x2="565.77" y2="178.96" stroke="#0ecb81" stroke-width="1.4" /><rect x="562.77" y="173.43" width="6" height="4.18" rx="1.5" fill="#0ecb81" /><line x1="576.51" y1="165.99" x2="576.51" y2="190.20" stroke="#f6465d" stroke-width="1.4" /><rect x="573.51" y="173.26" width="6" height="12.65" rx="1.5" fill="#f6465d" /><line x1="587.24" y1="178.20" x2="587.24" y2="207.14" stroke="#f6465d" stroke-width="1.4" /><rect x="584.24" y="185.59" width="6" height="8.14" rx="1.5" fill="#f6465d" /><line x1="597.97" y1="179.51" x2="597.97" y2="211.48" stroke="#f6465d" stroke-width="1.4" /><rect x="594.97" y="194.22" width="6" height="3.91" rx="1.5" fill="#f6465d" /><line x1="608.71" y1="186.73" x2="608.71" y2="200.63" stroke="#0ecb81" stroke-width="1.4" /><rect x="605.71" y="196.72" width="6" height="2.00" rx="1.5" fill="#0ecb81" /><line x1="619.44" y1="189.01" x2="619.44" y2="211.05" stroke="#f6465d" stroke-width="1.4" /><rect x="616.44" y="196.72" width="6" height="13.36" rx="1.5" fill="#f6465d" /><line x1="630.18" y1="132.16" x2="630.18" y2="216.26" stroke="#0ecb81" stroke-width="1.4" /><rect x="627.18" y="146.23" width="6" height="63.30" rx="1.5" fill="#0ecb81" /><line x1="640.91" y1="119.51" x2="640.91" y2="171.42" stroke="#f6465d" stroke-width="1.4" /><rect x="637.91" y="146.23" width="6" height="7.06" rx="1.5" fill="#f6465d" /><line x1="651.65" y1="126.19" x2="651.65" y2="157.08" stroke="#0ecb81" stroke-width="1.4" /><rect x="648.65" y="147.80" width="6" height="5.48" rx="1.5" fill="#0ecb81" /><line x1="662.38" y1="96.00" x2="662.38" y2="147.91" stroke="#0ecb81" stroke-width="1.4" /><rect x="659.38" y="136.83" width="6" height="10.64" rx="1.5" fill="#0ecb81" /><line x1="673.11" y1="101.11" x2="673.11" y2="151.27" stroke="#0ecb81" stroke-width="1.4" /><rect x="670.11" y="121.58" width="6" height="15.04" rx="1.5" fill="#0ecb81" /><line x1="683.85" y1="97.90" x2="683.85" y2="126.52" stroke="#0ecb81" stroke-width="1.4" /><rect x="680.85" y="99.70" width="6" height="21.88" rx="1.5" fill="#0ecb81" /><line x1="694.58" y1="88.24" x2="694.58" y2="135.15" stroke="#f6465d" stroke-width="1.4" /><rect x="691.58" y="99.70" width="6" height="5.10" rx="1.5" fill="#f6465d" /><line x1="705.32" y1="88.13" x2="705.32" y2="113.43" stroke="#0ecb81" stroke-width="1.4" /><rect x="702.32" y="96.66" width="6" height="7.87" rx="1.5" fill="#0ecb81" /><line x1="716.05" y1="58.00" x2="716.05" y2="176.57" stroke="#f6465d" stroke-width="1.4" /><rect x="713.05" y="96.71" width="6" height="45.23" rx="1.5" fill="#f6465d" /><line x1="726.78" y1="101.05" x2="726.78" y2="175.11" stroke="#f6465d" stroke-width="1.4" /><rect x="723.78" y="141.56" width="6" height="2.00" rx="1.5" fill="#f6465d" /><line x1="737.52" y1="142.91" x2="737.52" y2="198.24" stroke="#f6465d" stroke-width="1.4" /><rect x="734.52" y="142.91" width="6" height="29.48" rx="1.5" fill="#f6465d" /><line x1="748.25" y1="163.60" x2="748.25" y2="411.17" stroke="#f6465d" stroke-width="1.4" /><rect x="745.25" y="171.96" width="6" height="45.28" rx="1.5" fill="#f6465d" /><line x1="758.99" y1="202.31" x2="758.99" y2="293.63" stroke="#f6465d" stroke-width="1.4" /><rect x="755.99" y="216.70" width="6" height="74.81" rx="1.5" fill="#f6465d" /><line x1="769.72" y1="252.75" x2="769.72" y2="345.37" stroke="#f6465d" stroke-width="1.4" /><rect x="766.72" y="291.57" width="6" height="52.50" rx="1.5" fill="#f6465d" /><line x1="780.46" y1="304.60" x2="780.46" y2="383.16" stroke="#f6465d" stroke-width="1.4" /><rect x="777.46" y="344.39" width="6" height="25.41" rx="1.5" fill="#f6465d" /><line x1="791.19" y1="344.18" x2="791.19" y2="388.37" stroke="#f6465d" stroke-width="1.4" /><rect x="788.19" y="369.80" width="6" height="8.69" rx="1.5" fill="#f6465d" /><line x1="801.92" y1="371.21" x2="801.92" y2="413.72" stroke="#0ecb81" stroke-width="1.4" /><rect x="798.92" y="376.21" width="6" height="2.33" rx="1.5" fill="#0ecb81" /><line x1="812.66" y1="356.99" x2="812.66" y2="396.89" stroke="#f6465d" stroke-width="1.4" /><rect x="809.66" y="376.21" width="6" height="15.69" rx="1.5" fill="#f6465d" /><line x1="823.39" y1="385.17" x2="823.39" y2="440.98" stroke="#f6465d" stroke-width="1.4" /><rect x="820.39" y="391.90" width="6" height="47.61" rx="1.5" fill="#f6465d" /><line x1="834.13" y1="402.27" x2="834.13" y2="452.00" stroke="#0ecb81" stroke-width="1.4" /><rect x="831.13" y="411.88" width="6" height="27.47" rx="1.5" fill="#0ecb81" /><line x1="844.86" y1="411.01" x2="844.86" y2="439.40" stroke="#f6465d" stroke-width="1.4" /><rect x="841.86" y="411.39" width="6" height="23.51" rx="1.5" fill="#f6465d" /><line x1="855.59" y1="393.74" x2="855.59" y2="436.69" stroke="#0ecb81" stroke-width="1.4" /><rect x="852.59" y="404.49" width="6" height="30.40" rx="1.5" fill="#0ecb81" /><line x1="866.33" y1="390.81" x2="866.33" y2="427.89" stroke="#f6465d" stroke-width="1.4" /><rect x="863.33" y="404.49" width="6" height="16.56" rx="1.5" fill="#f6465d" /><line x1="877.06" y1="411.55" x2="877.06" y2="429.20" stroke="#f6465d" stroke-width="1.4" /><rect x="874.06" y="421.05" width="6" height="2.00" rx="1.5" fill="#f6465d" /><line x1="887.80" y1="392.44" x2="887.80" y2="423.55" stroke="#0ecb81" stroke-width="1.4" /><rect x="884.80" y="414.00" width="6" height="8.04" rx="1.5" fill="#0ecb81" /><line x1="898.53" y1="408.95" x2="898.53" y2="438.70" stroke="#f6465d" stroke-width="1.4" /><rect x="895.53" y="414.00" width="6" height="14.39" rx="1.5" fill="#f6465d" /><line x1="909.27" y1="414.97" x2="909.27" y2="436.53" stroke="#0ecb81" stroke-width="1.4" /><rect x="906.27" y="416.93" width="6" height="11.40" rx="1.5" fill="#0ecb81" /><line x1="920.00" y1="341.51" x2="920.00" y2="416.93" stroke="#0ecb81" stroke-width="1.4" /><rect x="917.00" y="380.50" width="6" height="36.21" rx="1.5" fill="#0ecb81" />
  <polyline points="426.23,143.94 436.96,230.49 479.90,116.53 501.37,217.19 544.30,126.25" fill="none" stroke="#2fc273" stroke-width="4" stroke-linecap="round" stroke-linejoin="round" />
  <circle cx="426.23" cy="143.94" r="5.5" fill="#2fc273" fill-opacity="0.15" stroke="#2fc273" stroke-width="2" /><text x="426.23" y="131.94" fill="#f3f4f6" font-size="15" font-weight="700" text-anchor="middle">X</text><circle cx="436.96" cy="230.49" r="5.5" fill="#2fc273" fill-opacity="0.15" stroke="#2fc273" stroke-width="2" /><text x="436.96" y="218.49" fill="#f3f4f6" font-size="15" font-weight="700" text-anchor="middle">A</text><circle cx="479.90" cy="116.53" r="5.5" fill="#2fc273" fill-opacity="0.15" stroke="#2fc273" stroke-width="2" /><text x="479.90" y="104.53" fill="#f3f4f6" font-size="15" font-weight="700" text-anchor="middle">B</text><circle cx="501.37" cy="217.19" r="5.5" fill="#2fc273" fill-opacity="0.15" stroke="#2fc273" stroke-width="2" /><text x="501.37" y="205.19" fill="#f3f4f6" font-size="15" font-weight="700" text-anchor="middle">C</text><circle cx="544.30" cy="126.25" r="5.5" fill="#2fc273" fill-opacity="0.15" stroke="#2fc273" stroke-width="2" /><text x="544.30" y="114.25" fill="#f3f4f6" font-size="15" font-weight="700" text-anchor="middle">D</text>
  <text x="56" y="492" fill="#8ba0b5" font-size="18">일반 완성 · TP1 0.1756 · TP2 0.17165 · SL 0.18407</text>
</svg>
