<svg xmlns="http://www.w3.org/2000/svg" width="960" height="540" viewBox="0 0 960 540">
  <rect width="960" height="540" rx="24" fill="#0b1220" />
  <rect x="28" y="28" width="904" height="484" rx="22" fill="#111827" stroke="#1f2937" />
  <text x="56" y="74" fill="#f3f4f6" font-size="34" font-weight="700">BSBUSDT · AB=CD</text>
  <text x="904" y="74" fill="#8ba0b5" font-size="20" text-anchor="end">Bullish (매수) · Score 84.4</text>
  <line x1="72" y1="58" x2="920" y2="58" stroke="#223045" stroke-width="1" stroke-dasharray="4 8" /><line x1="72" y1="156" x2="920" y2="156" stroke="#223045" stroke-width="1" stroke-dasharray="4 8" /><line x1="72" y1="255" x2="920" y2="255" stroke="#223045" stroke-width="1" stroke-dasharray="4 8" /><line x1="72" y1="353" x2="920" y2="353" stroke="#223045" stroke-width="1" stroke-dasharray="4 8" /><line x1="72" y1="452" x2="920" y2="452" stroke="#223045" stroke-width="1" stroke-dasharray="4 8" />
  <rect x="612.91" y="388.25" width="84" height="10.80" fill="#fbbf24" fill-opacity="0.12" stroke="#fbbf24" stroke-width="1.5" stroke-dasharray="6 6" />
  <line x1="72.00" y1="372.90" x2="72.00" y2="392.85" stroke="#f6465d" stroke-width="1.4" /><rect x="69.00" y="374.37" width="6" height="9.91" rx="1.5" fill="#f6465d" /><line x1="82.73" y1="368.08" x2="82.73" y2="393.34" stroke="#f6465d" stroke-width="1.4" /><rect x="79.73" y="384.24" width="6" height="4.02" rx="1.5" fill="#f6465d" /><line x1="93.47" y1="376.51" x2="93.47" y2="401.82" stroke="#f6465d" stroke-width="1.4" /><rect x="90.47" y="388.30" width="6" height="2.00" rx="1.5" fill="#f6465d" /><line x1="104.20" y1="369.95" x2="104.20" y2="415.93" stroke="#f6465d" stroke-width="1.4" /><rect x="101.20" y="389.19" width="6" height="14.95" rx="1.5" fill="#f6465d" /><line x1="114.94" y1="400.80" x2="114.94" y2="419.50" stroke="#f6465d" stroke-width="1.4" /><rect x="111.94" y="404.50" width="6" height="4.15" rx="1.5" fill="#f6465d" /><line x1="125.67" y1="387.14" x2="125.67" y2="410.53" stroke="#0ecb81" stroke-width="1.4" /><rect x="122.67" y="388.65" width="6" height="19.78" rx="1.5" fill="#0ecb81" /><line x1="136.41" y1="347.59" x2="136.41" y2="398.34" stroke="#0ecb81" stroke-width="1.4" /><rect x="133.41" y="355.67" width="6" height="33.08" rx="1.5" fill="#0ecb81" /><line x1="147.14" y1="335.17" x2="147.14" y2="366.02" stroke="#f6465d" stroke-width="1.4" /><rect x="144.14" y="355.67" width="6" height="2.00" rx="1.5" fill="#f6465d" /><line x1="157.87" y1="349.91" x2="157.87" y2="382.40" stroke="#f6465d" stroke-width="1.4" /><rect x="154.87" y="356.42" width="6" height="2.00" rx="1.5" fill="#f6465d" /><line x1="168.61" y1="324.15" x2="168.61" y2="365.62" stroke="#0ecb81" stroke-width="1.4" /><rect x="165.61" y="329.91" width="6" height="27.72" rx="1.5" fill="#0ecb81" /><line x1="179.34" y1="298.30" x2="179.34" y2="334.24" stroke="#0ecb81" stroke-width="1.4" /><rect x="176.34" y="317.50" width="6" height="12.37" rx="1.5" fill="#0ecb81" /><line x1="190.08" y1="279.86" x2="190.08" y2="331.65" stroke="#0ecb81" stroke-width="1.4" /><rect x="187.08" y="291.83" width="6" height="25.67" rx="1.5" fill="#0ecb81" /><line x1="200.81" y1="282.10" x2="200.81" y2="307.45" stroke="#0ecb81" stroke-width="1.4" /><rect x="197.81" y="287.94" width="6" height="3.88" rx="1.5" fill="#0ecb81" /><line x1="211.54" y1="271.74" x2="211.54" y2="371.78" stroke="#f6465d" stroke-width="1.4" /><rect x="208.54" y="287.94" width="6" height="79.33" rx="1.5" fill="#f6465d" /><line x1="222.28" y1="362.23" x2="222.28" y2="388.48" stroke="#f6465d" stroke-width="1.4" /><rect x="219.28" y="367.27" width="6" height="12.90" rx="1.5" fill="#f6465d" /><line x1="233.01" y1="375.75" x2="233.01" y2="452.00" stroke="#f6465d" stroke-width="1.4" /><rect x="230.01" y="380.49" width="6" height="37.94" rx="1.5" fill="#f6465d" /><line x1="243.75" y1="367.67" x2="243.75" y2="421.15" stroke="#0ecb81" stroke-width="1.4" /><rect x="240.75" y="407.36" width="6" height="11.03" rx="1.5" fill="#0ecb81" /><line x1="254.48" y1="371.38" x2="254.48" y2="409.41" stroke="#0ecb81" stroke-width="1.4" /><rect x="251.48" y="377.81" width="6" height="29.60" rx="1.5" fill="#0ecb81" /><line x1="265.22" y1="364.10" x2="265.22" y2="412.00" stroke="#f6465d" stroke-width="1.4" /><rect x="262.22" y="377.85" width="6" height="21.43" rx="1.5" fill="#f6465d" /><line x1="275.95" y1="376.65" x2="275.95" y2="402.31" stroke="#0ecb81" stroke-width="1.4" /><rect x="272.95" y="384.86" width="6" height="14.42" rx="1.5" fill="#0ecb81" /><line x1="286.68" y1="338.97" x2="286.68" y2="397.18" stroke="#0ecb81" stroke-width="1.4" /><rect x="283.68" y="363.03" width="6" height="21.78" rx="1.5" fill="#0ecb81" /><line x1="297.42" y1="340.62" x2="297.42" y2="369.86" stroke="#f6465d" stroke-width="1.4" /><rect x="294.42" y="363.08" width="6" height="2.00" rx="1.5" fill="#f6465d" /><line x1="308.15" y1="345.67" x2="308.15" y2="371.91" stroke="#0ecb81" stroke-width="1.4" /><rect x="305.15" y="361.47" width="6" height="2.32" rx="1.5" fill="#0ecb81" /><line x1="318.89" y1="339.06" x2="318.89" y2="373.16" stroke="#0ecb81" stroke-width="1.4" /><rect x="315.89" y="339.64" width="6" height="21.83" rx="1.5" fill="#0ecb81" /><line x1="329.62" y1="336.42" x2="329.62" y2="364.86" stroke="#f6465d" stroke-width="1.4" /><rect x="326.62" y="339.59" width="6" height="15.36" rx="1.5" fill="#f6465d" /><line x1="340.35" y1="352.36" x2="340.35" y2="384.37" stroke="#f6465d" stroke-width="1.4" /><rect x="337.35" y="355.13" width="6" height="25.40" rx="1.5" fill="#f6465d" /><line x1="351.09" y1="375.89" x2="351.09" y2="394.82" stroke="#f6465d" stroke-width="1.4" /><rect x="348.09" y="380.57" width="6" height="2.00" rx="1.5" fill="#f6465d" /><line x1="361.82" y1="359.91" x2="361.82" y2="384.28" stroke="#0ecb81" stroke-width="1.4" /><rect x="358.82" y="360.66" width="6" height="20.89" rx="1.5" fill="#0ecb81" /><line x1="372.56" y1="345.40" x2="372.56" y2="374.32" stroke="#0ecb81" stroke-width="1.4" /><rect x="369.56" y="348.21" width="6" height="11.83" rx="1.5" fill="#0ecb81" /><line x1="383.29" y1="306.96" x2="383.29" y2="353.43" stroke="#0ecb81" stroke-width="1.4" /><rect x="380.29" y="309.73" width="6" height="38.03" rx="1.5" fill="#0ecb81" /><line x1="394.03" y1="295.40" x2="394.03" y2="335.76" stroke="#0ecb81" stroke-width="1.4" /><rect x="391.03" y="305.40" width="6" height="4.20" rx="1.5" fill="#0ecb81" /><line x1="404.76" y1="293.17" x2="404.76" y2="327.41" stroke="#f6465d" stroke-width="1.4" /><rect x="401.76" y="305.40" width="6" height="18.53" rx="1.5" fill="#f6465d" /><line x1="415.49" y1="311.92" x2="415.49" y2="342.00" stroke="#0ecb81" stroke-width="1.4" /><rect x="412.49" y="320.80" width="6" height="3.12" rx="1.5" fill="#0ecb81" /><line x1="426.23" y1="300.85" x2="426.23" y2="326.65" stroke="#0ecb81" stroke-width="1.4" /><rect x="423.23" y="305.71" width="6" height="15.62" rx="1.5" fill="#0ecb81" /><line x1="436.96" y1="297.05" x2="436.96" y2="317.01" stroke="#0ecb81" stroke-width="1.4" /><rect x="433.96" y="300.98" width="6" height="4.60" rx="1.5" fill="#0ecb81" /><line x1="447.70" y1="291.83" x2="447.70" y2="319.33" stroke="#0ecb81" stroke-width="1.4" /><rect x="444.70" y="296.52" width="6" height="4.46" rx="1.5" fill="#0ecb81" /><line x1="458.43" y1="290.98" x2="458.43" y2="340.00" stroke="#f6465d" stroke-width="1.4" /><rect x="455.43" y="296.74" width="6" height="30.98" rx="1.5" fill="#f6465d" /><line x1="469.16" y1="326.83" x2="469.16" y2="351.51" stroke="#f6465d" stroke-width="1.4" /><rect x="466.16" y="327.63" width="6" height="10.45" rx="1.5" fill="#f6465d" /><line x1="479.90" y1="335.13" x2="479.90" y2="352.94" stroke="#f6465d" stroke-width="1.4" /><rect x="476.90" y="337.67" width="6" height="12.37" rx="1.5" fill="#f6465d" /><line x1="490.63" y1="337.59" x2="490.63" y2="353.43" stroke="#0ecb81" stroke-width="1.4" /><rect x="487.63" y="340.53" width="6" height="9.42" rx="1.5" fill="#0ecb81" /><line x1="501.37" y1="307.01" x2="501.37" y2="341.20" stroke="#0ecb81" stroke-width="1.4" /><rect x="498.37" y="326.29" width="6" height="13.84" rx="1.5" fill="#0ecb81" /><line x1="512.10" y1="320.44" x2="512.10" y2="355.44" stroke="#f6465d" stroke-width="1.4" /><rect x="509.10" y="326.29" width="6" height="21.83" rx="1.5" fill="#f6465d" /><line x1="522.84" y1="328.17" x2="522.84" y2="350.71" stroke="#0ecb81" stroke-width="1.4" /><rect x="519.84" y="333.39" width="6" height="14.78" rx="1.5" fill="#0ecb81" /><line x1="533.57" y1="325.80" x2="533.57" y2="349.73" stroke="#f6465d" stroke-width="1.4" /><rect x="530.57" y="333.39" width="6" height="8.84" rx="1.5" fill="#f6465d" /><line x1="544.30" y1="340.17" x2="544.30" y2="352.45" stroke="#f6465d" stroke-width="1.4" /><rect x="541.30" y="342.09" width="6" height="5.49" rx="1.5" fill="#f6465d" /><line x1="555.04" y1="326.43" x2="555.04" y2="361.25" stroke="#0ecb81" stroke-width="1.4" /><rect x="552.04" y="332.09" width="6" height="14.91" rx="1.5" fill="#0ecb81" /><line x1="565.77" y1="319.33" x2="565.77" y2="340.53" stroke="#0ecb81" stroke-width="1.4" /><rect x="562.77" y="324.95" width="6" height="7.14" rx="1.5" fill="#0ecb81" /><line x1="576.51" y1="317.99" x2="576.51" y2="336.83" stroke="#f6465d" stroke-width="1.4" /><rect x="573.51" y="324.95" width="6" height="5.18" rx="1.5" fill="#f6465d" /><line x1="587.24" y1="329.59" x2="587.24" y2="347.63" stroke="#f6465d" stroke-width="1.4" /><rect x="584.24" y="329.91" width="6" height="11.74" rx="1.5" fill="#f6465d" /><line x1="597.97" y1="335.44" x2="597.97" y2="355.93" stroke="#0ecb81" stroke-width="1.4" /><rect x="594.97" y="337.27" width="6" height="4.02" rx="1.5" fill="#0ecb81" /><line x1="608.71" y1="336.74" x2="608.71" y2="347.23" stroke="#f6465d" stroke-width="1.4" /><rect x="605.71" y="337.27" width="6" height="3.44" rx="1.5" fill="#f6465d" /><line x1="619.44" y1="337.72" x2="619.44" y2="352.32" stroke="#f6465d" stroke-width="1.4" /><rect x="616.44" y="340.31" width="6" height="10.54" rx="1.5" fill="#f6465d" /><line x1="630.18" y1="348.25" x2="630.18" y2="367.23" stroke="#f6465d" stroke-width="1.4" /><rect x="627.18" y="351.07" width="6" height="13.84" rx="1.5" fill="#f6465d" /><line x1="640.91" y1="362.99" x2="640.91" y2="387.36" stroke="#f6465d" stroke-width="1.4" /><rect x="637.91" y="364.86" width="6" height="10.04" rx="1.5" fill="#f6465d" /><line x1="651.65" y1="348.12" x2="651.65" y2="375.89" stroke="#0ecb81" stroke-width="1.4" /><rect x="648.65" y="364.01" width="6" height="10.40" rx="1.5" fill="#0ecb81" /><line x1="662.38" y1="355.26" x2="662.38" y2="370.93" stroke="#0ecb81" stroke-width="1.4" /><rect x="659.38" y="355.89" width="6" height="8.12" rx="1.5" fill="#0ecb81" /><line x1="673.11" y1="322.81" x2="673.11" y2="356.38" stroke="#0ecb81" stroke-width="1.4" /><rect x="670.11" y="330.22" width="6" height="25.71" rx="1.5" fill="#0ecb81" /><line x1="683.85" y1="315.27" x2="683.85" y2="339.91" stroke="#0ecb81" stroke-width="1.4" /><rect x="680.85" y="329.46" width="6" height="2.00" rx="1.5" fill="#0ecb81" /><line x1="694.58" y1="311.11" x2="694.58" y2="338.79" stroke="#0ecb81" stroke-width="1.4" /><rect x="691.58" y="328.84" width="6" height="2.00" rx="1.5" fill="#0ecb81" /><line x1="705.32" y1="306.11" x2="705.32" y2="335.13" stroke="#0ecb81" stroke-width="1.4" /><rect x="702.32" y="316.69" width="6" height="12.14" rx="1.5" fill="#0ecb81" /><line x1="716.05" y1="305.67" x2="716.05" y2="331.78" stroke="#0ecb81" stroke-width="1.4" /><rect x="713.05" y="315.13" width="6" height="2.00" rx="1.5" fill="#0ecb81" /><line x1="726.78" y1="280.89" x2="726.78" y2="319.73" stroke="#0ecb81" stroke-width="1.4" /><rect x="723.78" y="288.26" width="6" height="27.54" rx="1.5" fill="#0ecb81" /><line x1="737.52" y1="155.23" x2="737.52" y2="291.03" stroke="#0ecb81" stroke-width="1.4" /><rect x="734.52" y="175.09" width="6" height="113.16" rx="1.5" fill="#0ecb81" /><line x1="748.25" y1="171.79" x2="748.25" y2="236.79" stroke="#f6465d" stroke-width="1.4" /><rect x="745.25" y="175.63" width="6" height="9.33" rx="1.5" fill="#f6465d" /><line x1="758.99" y1="115.90" x2="758.99" y2="214.20" stroke="#0ecb81" stroke-width="1.4" /><rect x="755.99" y="161.88" width="6" height="23.12" rx="1.5" fill="#0ecb81" /><line x1="769.72" y1="58.00" x2="769.72" y2="193.66" stroke="#f6465d" stroke-width="1.4" /><rect x="766.72" y="161.48" width="6" height="7.01" rx="1.5" fill="#f6465d" /><line x1="780.46" y1="123.18" x2="780.46" y2="209.82" stroke="#0ecb81" stroke-width="1.4" /><rect x="777.46" y="135.85" width="6" height="32.32" rx="1.5" fill="#0ecb81" /><line x1="791.19" y1="102.11" x2="791.19" y2="160.14" stroke="#0ecb81" stroke-width="1.4" /><rect x="788.19" y="115.18" width="6" height="21.16" rx="1.5" fill="#0ecb81" /><line x1="801.92" y1="78.58" x2="801.92" y2="127.10" stroke="#0ecb81" stroke-width="1.4" /><rect x="798.92" y="104.47" width="6" height="10.71" rx="1.5" fill="#0ecb81" /><line x1="812.66" y1="73.80" x2="812.66" y2="114.65" stroke="#0ecb81" stroke-width="1.4" /><rect x="809.66" y="94.56" width="6" height="9.82" rx="1.5" fill="#0ecb81" /><line x1="823.39" y1="77.78" x2="823.39" y2="124.43" stroke="#0ecb81" stroke-width="1.4" /><rect x="820.39" y="93.89" width="6" height="2.00" rx="1.5" fill="#0ecb81" /><line x1="834.13" y1="92.82" x2="834.13" y2="142.19" stroke="#f6465d" stroke-width="1.4" /><rect x="831.13" y="94.65" width="6" height="19.42" rx="1.5" fill="#f6465d" /><line x1="844.86" y1="110.72" x2="844.86" y2="176.08" stroke="#f6465d" stroke-width="1.4" /><rect x="841.86" y="114.11" width="6" height="51.43" rx="1.5" fill="#f6465d" /><line x1="855.59" y1="161.52" x2="855.59" y2="201.52" stroke="#f6465d" stroke-width="1.4" /><rect x="852.59" y="165.54" width="6" height="26.56" rx="1.5" fill="#f6465d" /><line x1="866.33" y1="190.36" x2="866.33" y2="283.79" stroke="#f6465d" stroke-width="1.4" /><rect x="863.33" y="192.37" width="6" height="66.87" rx="1.5" fill="#f6465d" /><line x1="877.06" y1="235.22" x2="877.06" y2="273.97" stroke="#0ecb81" stroke-width="1.4" /><rect x="874.06" y="250.67" width="6" height="8.26" rx="1.5" fill="#0ecb81" /><line x1="887.80" y1="243.93" x2="887.80" y2="300.13" stroke="#f6465d" stroke-width="1.4" /><rect x="884.80" y="250.67" width="6" height="10.36" rx="1.5" fill="#f6465d" /><line x1="898.53" y1="249.78" x2="898.53" y2="307.10" stroke="#f6465d" stroke-width="1.4" /><rect x="895.53" y="260.45" width="6" height="37.81" rx="1.5" fill="#f6465d" /><line x1="909.27" y1="278.30" x2="909.27" y2="311.02" stroke="#0ecb81" stroke-width="1.4" /><rect x="906.27" y="296.65" width="6" height="2.00" rx="1.5" fill="#0ecb81" /><line x1="920.00" y1="278.79" x2="920.00" y2="297.86" stroke="#0ecb81" stroke-width="1.4" /><rect x="917.00" y="286.11" width="6" height="10.54" rx="1.5" fill="#0ecb81" />
  <polyline points="351.09,394.82 458.43,290.98 555.04,361.25 576.51,317.99 640.91,387.36" fill="none" stroke="#2fc273" stroke-width="4" stroke-linecap="round" stroke-linejoin="round" />
  <circle cx="351.09" cy="394.82" r="5.5" fill="#2fc273" fill-opacity="0.15" stroke="#2fc273" stroke-width="2" /><text x="351.09" y="382.82" fill="#f3f4f6" font-size="15" font-weight="700" text-anchor="middle">X</text><circle cx="458.43" cy="290.98" r="5.5" fill="#2fc273" fill-opacity="0.15" stroke="#2fc273" stroke-width="2" /><text x="458.43" y="278.98" fill="#f3f4f6" font-size="15" font-weight="700" text-anchor="middle">A</text><circle cx="555.04" cy="361.25" r="5.5" fill="#2fc273" fill-opacity="0.15" stroke="#2fc273" stroke-width="2" /><text x="555.04" y="349.25" fill="#f3f4f6" font-size="15" font-weight="700" text-anchor="middle">B</text><circle cx="576.51" cy="317.99" r="5.5" fill="#2fc273" fill-opacity="0.15" stroke="#2fc273" stroke-width="2" /><text x="576.51" y="305.99" fill="#f3f4f6" font-size="15" font-weight="700" text-anchor="middle">C</text><circle cx="640.91" cy="387.36" r="5.5" fill="#2fc273" fill-opacity="0.15" stroke="#2fc273" stroke-width="2" /><text x="640.91" y="375.36" fill="#f3f4f6" font-size="15" font-weight="700" text-anchor="middle">D</text>
  <text x="56" y="492" fill="#8ba0b5" font-size="18">일반 완성 · TP1 0.23004 · TP2 0.2337 · SL 0.22108</text>
</svg>
