<svg xmlns="http://www.w3.org/2000/svg" width="960" height="540" viewBox="0 0 960 540">
  <rect width="960" height="540" rx="24" fill="#0b1220" />
  <rect x="28" y="28" width="904" height="484" rx="22" fill="#111827" stroke="#1f2937" />
  <text x="56" y="74" fill="#f3f4f6" font-size="34" font-weight="700">BTCUSDT · AB=CD</text>
  <text x="904" y="74" fill="#8ba0b5" font-size="20" text-anchor="end">Bullish (매수) · Score 75.3</text>
  <line x1="72" y1="58" x2="920" y2="58" stroke="#223045" stroke-width="1" stroke-dasharray="4 8" /><line x1="72" y1="156" x2="920" y2="156" stroke="#223045" stroke-width="1" stroke-dasharray="4 8" /><line x1="72" y1="255" x2="920" y2="255" stroke="#223045" stroke-width="1" stroke-dasharray="4 8" /><line x1="72" y1="353" x2="920" y2="353" stroke="#223045" stroke-width="1" stroke-dasharray="4 8" /><line x1="72" y1="452" x2="920" y2="452" stroke="#223045" stroke-width="1" stroke-dasharray="4 8" />
  <rect x="666.58" y="332.50" width="84" height="143.25" fill="#fbbf24" fill-opacity="0.12" stroke="#fbbf24" stroke-width="1.5" stroke-dasharray="6 6" />
  <line x1="72.00" y1="353.13" x2="72.00" y2="391.23" stroke="#f6465d" stroke-width="1.4" /><rect x="69.00" y="369.12" width="6" height="4.35" rx="1.5" fill="#f6465d" /><line x1="82.73" y1="363.21" x2="82.73" y2="399.99" stroke="#0ecb81" stroke-width="1.4" /><rect x="79.73" y="372.95" width="6" height="2.00" rx="1.5" fill="#0ecb81" /><line x1="93.47" y1="361.43" x2="93.47" y2="388.12" stroke="#0ecb81" stroke-width="1.4" /><rect x="90.47" y="367.85" width="6" height="5.10" rx="1.5" fill="#0ecb81" /><line x1="104.20" y1="354.15" x2="104.20" y2="383.57" stroke="#f6465d" stroke-width="1.4" /><rect x="101.20" y="367.85" width="6" height="10.08" rx="1.5" fill="#f6465d" /><line x1="114.94" y1="365.23" x2="114.94" y2="401.20" stroke="#f6465d" stroke-width="1.4" /><rect x="111.94" y="377.91" width="6" height="12.59" rx="1.5" fill="#f6465d" /><line x1="125.67" y1="376.42" x2="125.67" y2="427.25" stroke="#f6465d" stroke-width="1.4" /><rect x="122.67" y="390.50" width="6" height="19.19" rx="1.5" fill="#f6465d" /><line x1="136.41" y1="394.64" x2="136.41" y2="452.00" stroke="#f6465d" stroke-width="1.4" /><rect x="133.41" y="409.68" width="6" height="11.14" rx="1.5" fill="#f6465d" /><line x1="147.14" y1="397.96" x2="147.14" y2="425.95" stroke="#0ecb81" stroke-width="1.4" /><rect x="144.14" y="415.46" width="6" height="5.35" rx="1.5" fill="#0ecb81" /><line x1="157.87" y1="401.79" x2="157.87" y2="425.13" stroke="#0ecb81" stroke-width="1.4" /><rect x="154.87" y="412.07" width="6" height="3.38" rx="1.5" fill="#0ecb81" /><line x1="168.61" y1="387.23" x2="168.61" y2="436.08" stroke="#f6465d" stroke-width="1.4" /><rect x="165.61" y="412.07" width="6" height="2.00" rx="1.5" fill="#f6465d" /><line x1="179.34" y1="389.54" x2="179.34" y2="418.62" stroke="#0ecb81" stroke-width="1.4" /><rect x="176.34" y="390.48" width="6" height="22.05" rx="1.5" fill="#0ecb81" /><line x1="190.08" y1="334.93" x2="190.08" y2="395.85" stroke="#0ecb81" stroke-width="1.4" /><rect x="187.08" y="361.39" width="6" height="29.08" rx="1.5" fill="#0ecb81" /><line x1="200.81" y1="332.02" x2="200.81" y2="378.44" stroke="#f6465d" stroke-width="1.4" /><rect x="197.81" y="361.39" width="6" height="8.70" rx="1.5" fill="#f6465d" /><line x1="211.54" y1="365.26" x2="211.54" y2="396.10" stroke="#f6465d" stroke-width="1.4" /><rect x="208.54" y="370.08" width="6" height="12.52" rx="1.5" fill="#f6465d" /><line x1="222.28" y1="377.53" x2="222.28" y2="404.39" stroke="#0ecb81" stroke-width="1.4" /><rect x="219.28" y="380.66" width="6" height="2.00" rx="1.5" fill="#0ecb81" /><line x1="233.01" y1="357.49" x2="233.01" y2="387.11" stroke="#0ecb81" stroke-width="1.4" /><rect x="230.01" y="364.38" width="6" height="16.28" rx="1.5" fill="#0ecb81" /><line x1="243.75" y1="321.18" x2="243.75" y2="408.88" stroke="#f6465d" stroke-width="1.4" /><rect x="240.75" y="364.37" width="6" height="34.54" rx="1.5" fill="#f6465d" /><line x1="254.48" y1="396.95" x2="254.48" y2="423.89" stroke="#f6465d" stroke-width="1.4" /><rect x="251.48" y="398.92" width="6" height="5.40" rx="1.5" fill="#f6465d" /><line x1="265.22" y1="366.19" x2="265.22" y2="409.57" stroke="#0ecb81" stroke-width="1.4" /><rect x="262.22" y="374.21" width="6" height="30.10" rx="1.5" fill="#0ecb81" /><line x1="275.95" y1="362.55" x2="275.95" y2="388.49" stroke="#f6465d" stroke-width="1.4" /><rect x="272.95" y="374.23" width="6" height="11.06" rx="1.5" fill="#f6465d" /><line x1="286.68" y1="356.99" x2="286.68" y2="386.00" stroke="#0ecb81" stroke-width="1.4" /><rect x="283.68" y="365.67" width="6" height="19.62" rx="1.5" fill="#0ecb81" /><line x1="297.42" y1="357.71" x2="297.42" y2="396.12" stroke="#f6465d" stroke-width="1.4" /><rect x="294.42" y="365.67" width="6" height="19.03" rx="1.5" fill="#f6465d" /><line x1="308.15" y1="374.25" x2="308.15" y2="392.26" stroke="#f6465d" stroke-width="1.4" /><rect x="305.15" y="384.70" width="6" height="3.22" rx="1.5" fill="#f6465d" /><line x1="318.89" y1="376.23" x2="318.89" y2="393.00" stroke="#0ecb81" stroke-width="1.4" /><rect x="315.89" y="379.28" width="6" height="8.65" rx="1.5" fill="#0ecb81" /><line x1="329.62" y1="375.63" x2="329.62" y2="386.00" stroke="#f6465d" stroke-width="1.4" /><rect x="326.62" y="379.28" width="6" height="6.71" rx="1.5" fill="#f6465d" /><line x1="340.35" y1="368.76" x2="340.35" y2="386.97" stroke="#0ecb81" stroke-width="1.4" /><rect x="337.35" y="370.74" width="6" height="15.26" rx="1.5" fill="#0ecb81" /><line x1="351.09" y1="369.15" x2="351.09" y2="384.47" stroke="#f6465d" stroke-width="1.4" /><rect x="348.09" y="370.75" width="6" height="8.18" rx="1.5" fill="#f6465d" /><line x1="361.82" y1="370.68" x2="361.82" y2="385.92" stroke="#0ecb81" stroke-width="1.4" /><rect x="358.82" y="370.68" width="6" height="8.26" rx="1.5" fill="#0ecb81" /><line x1="372.56" y1="370.05" x2="372.56" y2="381.41" stroke="#f6465d" stroke-width="1.4" /><rect x="369.56" y="370.68" width="6" height="7.85" rx="1.5" fill="#f6465d" /><line x1="383.29" y1="374.72" x2="383.29" y2="386.49" stroke="#f6465d" stroke-width="1.4" /><rect x="380.29" y="378.53" width="6" height="5.12" rx="1.5" fill="#f6465d" /><line x1="394.03" y1="375.23" x2="394.03" y2="389.15" stroke="#f6465d" stroke-width="1.4" /><rect x="391.03" y="383.64" width="6" height="2.00" rx="1.5" fill="#f6465d" /><line x1="404.76" y1="377.11" x2="404.76" y2="386.14" stroke="#f6465d" stroke-width="1.4" /><rect x="401.76" y="384.35" width="6" height="2.00" rx="1.5" fill="#f6465d" /><line x1="415.49" y1="381.29" x2="415.49" y2="392.42" stroke="#0ecb81" stroke-width="1.4" /><rect x="412.49" y="382.05" width="6" height="4.05" rx="1.5" fill="#0ecb81" /><line x1="426.23" y1="373.22" x2="426.23" y2="383.90" stroke="#0ecb81" stroke-width="1.4" /><rect x="423.23" y="377.63" width="6" height="4.42" rx="1.5" fill="#0ecb81" /><line x1="436.96" y1="359.63" x2="436.96" y2="377.63" stroke="#0ecb81" stroke-width="1.4" /><rect x="433.96" y="364.61" width="6" height="13.02" rx="1.5" fill="#0ecb81" /><line x1="447.70" y1="360.18" x2="447.70" y2="373.74" stroke="#0ecb81" stroke-width="1.4" /><rect x="444.70" y="364.55" width="6" height="2.00" rx="1.5" fill="#0ecb81" /><line x1="458.43" y1="359.48" x2="458.43" y2="377.22" stroke="#f6465d" stroke-width="1.4" /><rect x="455.43" y="364.54" width="6" height="8.76" rx="1.5" fill="#f6465d" /><line x1="469.16" y1="367.35" x2="469.16" y2="376.32" stroke="#0ecb81" stroke-width="1.4" /><rect x="466.16" y="368.07" width="6" height="5.22" rx="1.5" fill="#0ecb81" /><line x1="479.90" y1="344.71" x2="479.90" y2="376.46" stroke="#0ecb81" stroke-width="1.4" /><rect x="476.90" y="346.03" width="6" height="22.04" rx="1.5" fill="#0ecb81" /><line x1="490.63" y1="336.05" x2="490.63" y2="356.53" stroke="#f6465d" stroke-width="1.4" /><rect x="487.63" y="346.03" width="6" height="2.00" rx="1.5" fill="#f6465d" /><line x1="501.37" y1="344.45" x2="501.37" y2="359.46" stroke="#f6465d" stroke-width="1.4" /><rect x="498.37" y="347.24" width="6" height="7.88" rx="1.5" fill="#f6465d" /><line x1="512.10" y1="333.52" x2="512.10" y2="357.15" stroke="#0ecb81" stroke-width="1.4" /><rect x="509.10" y="342.39" width="6" height="12.74" rx="1.5" fill="#0ecb81" /><line x1="522.84" y1="339.65" x2="522.84" y2="361.99" stroke="#0ecb81" stroke-width="1.4" /><rect x="519.84" y="341.50" width="6" height="2.00" rx="1.5" fill="#0ecb81" /><line x1="533.57" y1="297.08" x2="533.57" y2="345.27" stroke="#0ecb81" stroke-width="1.4" /><rect x="530.57" y="320.32" width="6" height="21.19" rx="1.5" fill="#0ecb81" /><line x1="544.30" y1="303.50" x2="544.30" y2="328.01" stroke="#f6465d" stroke-width="1.4" /><rect x="541.30" y="320.31" width="6" height="2.62" rx="1.5" fill="#f6465d" /><line x1="555.04" y1="316.93" x2="555.04" y2="332.97" stroke="#f6465d" stroke-width="1.4" /><rect x="552.04" y="322.93" width="6" height="3.87" rx="1.5" fill="#f6465d" /><line x1="565.77" y1="321.18" x2="565.77" y2="335.74" stroke="#f6465d" stroke-width="1.4" /><rect x="562.77" y="326.80" width="6" height="4.31" rx="1.5" fill="#f6465d" /><line x1="576.51" y1="300.69" x2="576.51" y2="333.48" stroke="#f6465d" stroke-width="1.4" /><rect x="573.51" y="331.12" width="6" height="2.00" rx="1.5" fill="#f6465d" /><line x1="587.24" y1="330.68" x2="587.24" y2="344.68" stroke="#f6465d" stroke-width="1.4" /><rect x="584.24" y="331.45" width="6" height="2.66" rx="1.5" fill="#f6465d" /><line x1="597.97" y1="309.07" x2="597.97" y2="341.11" stroke="#0ecb81" stroke-width="1.4" /><rect x="594.97" y="324.12" width="6" height="9.99" rx="1.5" fill="#0ecb81" /><line x1="608.71" y1="310.72" x2="608.71" y2="326.43" stroke="#0ecb81" stroke-width="1.4" /><rect x="605.71" y="318.95" width="6" height="5.17" rx="1.5" fill="#0ecb81" /><line x1="619.44" y1="318.66" x2="619.44" y2="337.18" stroke="#f6465d" stroke-width="1.4" /><rect x="616.44" y="318.95" width="6" height="11.54" rx="1.5" fill="#f6465d" /><line x1="630.18" y1="329.52" x2="630.18" y2="346.98" stroke="#f6465d" stroke-width="1.4" /><rect x="627.18" y="330.48" width="6" height="11.09" rx="1.5" fill="#f6465d" /><line x1="640.91" y1="338.86" x2="640.91" y2="357.10" stroke="#f6465d" stroke-width="1.4" /><rect x="637.91" y="341.57" width="6" height="13.72" rx="1.5" fill="#f6465d" /><line x1="651.65" y1="344.28" x2="651.65" y2="374.21" stroke="#0ecb81" stroke-width="1.4" /><rect x="648.65" y="345.42" width="6" height="9.86" rx="1.5" fill="#0ecb81" /><line x1="662.38" y1="342.76" x2="662.38" y2="355.59" stroke="#f6465d" stroke-width="1.4" /><rect x="659.38" y="345.42" width="6" height="3.63" rx="1.5" fill="#f6465d" /><line x1="673.11" y1="343.57" x2="673.11" y2="358.33" stroke="#f6465d" stroke-width="1.4" /><rect x="670.11" y="349.06" width="6" height="5.56" rx="1.5" fill="#f6465d" /><line x1="683.85" y1="347.40" x2="683.85" y2="383.31" stroke="#f6465d" stroke-width="1.4" /><rect x="680.85" y="354.61" width="6" height="19.00" rx="1.5" fill="#f6465d" /><line x1="694.58" y1="372.02" x2="694.58" y2="412.46" stroke="#f6465d" stroke-width="1.4" /><rect x="691.58" y="373.60" width="6" height="15.75" rx="1.5" fill="#f6465d" /><line x1="705.32" y1="375.73" x2="705.32" y2="399.52" stroke="#0ecb81" stroke-width="1.4" /><rect x="702.32" y="387.48" width="6" height="2.00" rx="1.5" fill="#0ecb81" /><line x1="716.05" y1="373.03" x2="716.05" y2="388.11" stroke="#0ecb81" stroke-width="1.4" /><rect x="713.05" y="375.10" width="6" height="12.39" rx="1.5" fill="#0ecb81" /><line x1="726.78" y1="360.02" x2="726.78" y2="378.66" stroke="#0ecb81" stroke-width="1.4" /><rect x="723.78" y="362.90" width="6" height="12.19" rx="1.5" fill="#0ecb81" /><line x1="737.52" y1="346.78" x2="737.52" y2="370.90" stroke="#0ecb81" stroke-width="1.4" /><rect x="734.52" y="360.98" width="6" height="2.00" rx="1.5" fill="#0ecb81" /><line x1="748.25" y1="356.05" x2="748.25" y2="370.16" stroke="#f6465d" stroke-width="1.4" /><rect x="745.25" y="360.97" width="6" height="4.68" rx="1.5" fill="#f6465d" /><line x1="758.99" y1="365.65" x2="758.99" y2="403.68" stroke="#f6465d" stroke-width="1.4" /><rect x="755.99" y="365.65" width="6" height="26.08" rx="1.5" fill="#f6465d" /><line x1="769.72" y1="375.05" x2="769.72" y2="401.79" stroke="#0ecb81" stroke-width="1.4" /><rect x="766.72" y="378.53" width="6" height="13.19" rx="1.5" fill="#0ecb81" /><line x1="780.46" y1="369.48" x2="780.46" y2="387.99" stroke="#0ecb81" stroke-width="1.4" /><rect x="777.46" y="375.10" width="6" height="3.42" rx="1.5" fill="#0ecb81" /><line x1="791.19" y1="264.77" x2="791.19" y2="386.87" stroke="#0ecb81" stroke-width="1.4" /><rect x="788.19" y="330.35" width="6" height="44.74" rx="1.5" fill="#0ecb81" /><line x1="801.92" y1="317.52" x2="801.92" y2="346.85" stroke="#f6465d" stroke-width="1.4" /><rect x="798.92" y="330.35" width="6" height="11.01" rx="1.5" fill="#f6465d" /><line x1="812.66" y1="318.08" x2="812.66" y2="344.75" stroke="#0ecb81" stroke-width="1.4" /><rect x="809.66" y="322.10" width="6" height="19.25" rx="1.5" fill="#0ecb81" /><line x1="823.39" y1="311.96" x2="823.39" y2="333.36" stroke="#0ecb81" stroke-width="1.4" /><rect x="820.39" y="317.51" width="6" height="4.58" rx="1.5" fill="#0ecb81" /><line x1="834.13" y1="298.78" x2="834.13" y2="332.96" stroke="#f6465d" stroke-width="1.4" /><rect x="831.13" y="317.50" width="6" height="6.14" rx="1.5" fill="#f6465d" /><line x1="844.86" y1="282.10" x2="844.86" y2="326.79" stroke="#0ecb81" stroke-width="1.4" /><rect x="841.86" y="287.39" width="6" height="36.25" rx="1.5" fill="#0ecb81" /><line x1="855.59" y1="283.12" x2="855.59" y2="317.97" stroke="#f6465d" stroke-width="1.4" /><rect x="852.59" y="287.39" width="6" height="13.81" rx="1.5" fill="#f6465d" /><line x1="866.33" y1="203.57" x2="866.33" y2="325.47" stroke="#0ecb81" stroke-width="1.4" /><rect x="863.33" y="207.68" width="6" height="93.52" rx="1.5" fill="#0ecb81" /><line x1="877.06" y1="113.98" x2="877.06" y2="217.23" stroke="#0ecb81" stroke-width="1.4" /><rect x="874.06" y="126.96" width="6" height="80.72" rx="1.5" fill="#0ecb81" /><line x1="887.80" y1="58.00" x2="887.80" y2="126.96" stroke="#0ecb81" stroke-width="1.4" /><rect x="884.80" y="120.59" width="6" height="6.36" rx="1.5" fill="#0ecb81" /><line x1="898.53" y1="114.56" x2="898.53" y2="154.88" stroke="#f6465d" stroke-width="1.4" /><rect x="895.53" y="120.59" width="6" height="31.70" rx="1.5" fill="#f6465d" /><line x1="909.27" y1="81.19" x2="909.27" y2="157.33" stroke="#0ecb81" stroke-width="1.4" /><rect x="906.27" y="105.07" width="6" height="47.23" rx="1.5" fill="#0ecb81" /><line x1="920.00" y1="100.38" x2="920.00" y2="123.22" stroke="#f6465d" stroke-width="1.4" /><rect x="917.00" y="105.07" width="6" height="18.06" rx="1.5" fill="#f6465d" />
  <polyline points="254.48,423.89 286.68,356.99 415.49,392.42 533.57,297.08 694.58,412.46" fill="none" stroke="#2fc273" stroke-width="4" stroke-linecap="round" stroke-linejoin="round" />
  <circle cx="254.48" cy="423.89" r="5.5" fill="#2fc273" fill-opacity="0.15" stroke="#2fc273" stroke-width="2" /><text x="254.48" y="411.89" fill="#f3f4f6" font-size="15" font-weight="700" text-anchor="middle">X</text><circle cx="286.68" cy="356.99" r="5.5" fill="#2fc273" fill-opacity="0.15" stroke="#2fc273" stroke-width="2" /><text x="286.68" y="344.99" fill="#f3f4f6" font-size="15" font-weight="700" text-anchor="middle">A</text><circle cx="415.49" cy="392.42" r="5.5" fill="#2fc273" fill-opacity="0.15" stroke="#2fc273" stroke-width="2" /><text x="415.49" y="380.42" fill="#f3f4f6" font-size="15" font-weight="700" text-anchor="middle">B</text><circle cx="533.57" cy="297.08" r="5.5" fill="#2fc273" fill-opacity="0.15" stroke="#2fc273" stroke-width="2" /><text x="533.57" y="285.08" fill="#f3f4f6" font-size="15" font-weight="700" text-anchor="middle">C</text><circle cx="694.58" cy="412.46" r="5.5" fill="#2fc273" fill-opacity="0.15" stroke="#2fc273" stroke-width="2" /><text x="694.58" y="400.46" fill="#f3f4f6" font-size="15" font-weight="700" text-anchor="middle">D</text>
  <text x="56" y="492" fill="#8ba0b5" font-size="18">일반 완성 · TP1 66949.48 · TP2 67180.52 · SL 66501.71</text>
</svg>
