<svg xmlns="http://www.w3.org/2000/svg" width="960" height="540" viewBox="0 0 960 540">
  <rect width="960" height="540" rx="24" fill="#0b1220" />
  <rect x="28" y="28" width="904" height="484" rx="22" fill="#111827" stroke="#1f2937" />
  <text x="56" y="74" fill="#f3f4f6" font-size="34" font-weight="700">BTCUSDT · AB=CD</text>
  <text x="904" y="74" fill="#8ba0b5" font-size="20" text-anchor="end">Bearish (매도) · Score 82.5</text>
  <line x1="72" y1="58" x2="920" y2="58" stroke="#223045" stroke-width="1" stroke-dasharray="4 8" /><line x1="72" y1="156" x2="920" y2="156" stroke="#223045" stroke-width="1" stroke-dasharray="4 8" /><line x1="72" y1="255" x2="920" y2="255" stroke="#223045" stroke-width="1" stroke-dasharray="4 8" /><line x1="72" y1="353" x2="920" y2="353" stroke="#223045" stroke-width="1" stroke-dasharray="4 8" /><line x1="72" y1="452" x2="920" y2="452" stroke="#223045" stroke-width="1" stroke-dasharray="4 8" />
  <rect x="677.32" y="180.30" width="84" height="72.67" fill="#fbbf24" fill-opacity="0.12" stroke="#fbbf24" stroke-width="1.5" stroke-dasharray="6 6" />
  <line x1="72.00" y1="419.39" x2="72.00" y2="425.22" stroke="#0ecb81" stroke-width="1.4" /><rect x="69.00" y="421.84" width="6" height="3.20" rx="1.5" fill="#0ecb81" /><line x1="82.73" y1="419.66" x2="82.73" y2="427.99" stroke="#f6465d" stroke-width="1.4" /><rect x="79.73" y="421.86" width="6" height="2.00" rx="1.5" fill="#f6465d" /><line x1="93.47" y1="421.24" x2="93.47" y2="430.26" stroke="#f6465d" stroke-width="1.4" /><rect x="90.47" y="422.20" width="6" height="2.00" rx="1.5" fill="#f6465d" /><line x1="104.20" y1="420.62" x2="104.20" y2="424.66" stroke="#0ecb81" stroke-width="1.4" /><rect x="101.20" y="421.71" width="6" height="2.48" rx="1.5" fill="#0ecb81" /><line x1="114.94" y1="410.34" x2="114.94" y2="421.71" stroke="#0ecb81" stroke-width="1.4" /><rect x="111.94" y="415.27" width="6" height="6.44" rx="1.5" fill="#0ecb81" /><line x1="125.67" y1="390.01" x2="125.67" y2="416.99" stroke="#0ecb81" stroke-width="1.4" /><rect x="122.67" y="396.97" width="6" height="18.32" rx="1.5" fill="#0ecb81" /><line x1="136.41" y1="396.47" x2="136.41" y2="428.63" stroke="#f6465d" stroke-width="1.4" /><rect x="133.41" y="396.95" width="6" height="12.38" rx="1.5" fill="#f6465d" /><line x1="147.14" y1="398.72" x2="147.14" y2="411.25" stroke="#0ecb81" stroke-width="1.4" /><rect x="144.14" y="407.15" width="6" height="2.20" rx="1.5" fill="#0ecb81" /><line x1="157.87" y1="402.63" x2="157.87" y2="419.39" stroke="#f6465d" stroke-width="1.4" /><rect x="154.87" y="407.15" width="6" height="2.00" rx="1.5" fill="#f6465d" /><line x1="168.61" y1="382.48" x2="168.61" y2="412.65" stroke="#0ecb81" stroke-width="1.4" /><rect x="165.61" y="385.00" width="6" height="23.26" rx="1.5" fill="#0ecb81" /><line x1="179.34" y1="361.79" x2="179.34" y2="388.45" stroke="#0ecb81" stroke-width="1.4" /><rect x="176.34" y="363.77" width="6" height="21.22" rx="1.5" fill="#0ecb81" /><line x1="190.08" y1="337.08" x2="190.08" y2="366.92" stroke="#0ecb81" stroke-width="1.4" /><rect x="187.08" y="360.40" width="6" height="3.37" rx="1.5" fill="#0ecb81" /><line x1="200.81" y1="349.43" x2="200.81" y2="364.33" stroke="#0ecb81" stroke-width="1.4" /><rect x="197.81" y="354.34" width="6" height="6.04" rx="1.5" fill="#0ecb81" /><line x1="211.54" y1="328.15" x2="211.54" y2="361.64" stroke="#0ecb81" stroke-width="1.4" /><rect x="208.54" y="337.14" width="6" height="17.19" rx="1.5" fill="#0ecb81" /><line x1="222.28" y1="318.14" x2="222.28" y2="347.18" stroke="#0ecb81" stroke-width="1.4" /><rect x="219.28" y="333.17" width="6" height="3.97" rx="1.5" fill="#0ecb81" /><line x1="233.01" y1="315.89" x2="233.01" y2="335.27" stroke="#0ecb81" stroke-width="1.4" /><rect x="230.01" y="323.68" width="6" height="9.50" rx="1.5" fill="#0ecb81" /><line x1="243.75" y1="318.28" x2="243.75" y2="335.63" stroke="#0ecb81" stroke-width="1.4" /><rect x="240.75" y="319.69" width="6" height="4.00" rx="1.5" fill="#0ecb81" /><line x1="254.48" y1="310.78" x2="254.48" y2="326.69" stroke="#f6465d" stroke-width="1.4" /><rect x="251.48" y="319.69" width="6" height="6.20" rx="1.5" fill="#f6465d" /><line x1="265.22" y1="324.00" x2="265.22" y2="326.69" stroke="#f6465d" stroke-width="1.4" /><rect x="262.22" y="325.89" width="6" height="2.00" rx="1.5" fill="#f6465d" /><line x1="275.95" y1="302.12" x2="275.95" y2="336.28" stroke="#0ecb81" stroke-width="1.4" /><rect x="272.95" y="321.08" width="6" height="5.61" rx="1.5" fill="#0ecb81" /><line x1="286.68" y1="318.56" x2="286.68" y2="345.90" stroke="#f6465d" stroke-width="1.4" /><rect x="283.68" y="321.07" width="6" height="13.43" rx="1.5" fill="#f6465d" /><line x1="297.42" y1="323.58" x2="297.42" y2="347.65" stroke="#0ecb81" stroke-width="1.4" /><rect x="294.42" y="333.84" width="6" height="2.00" rx="1.5" fill="#0ecb81" /><line x1="308.15" y1="321.77" x2="308.15" y2="339.87" stroke="#0ecb81" stroke-width="1.4" /><rect x="305.15" y="333.48" width="6" height="2.00" rx="1.5" fill="#0ecb81" /><line x1="318.89" y1="328.21" x2="318.89" y2="336.58" stroke="#f6465d" stroke-width="1.4" /><rect x="315.89" y="333.49" width="6" height="2.00" rx="1.5" fill="#f6465d" /><line x1="329.62" y1="325.54" x2="329.62" y2="339.87" stroke="#0ecb81" stroke-width="1.4" /><rect x="326.62" y="333.84" width="6" height="2.00" rx="1.5" fill="#0ecb81" /><line x1="340.35" y1="329.97" x2="340.35" y2="345.23" stroke="#f6465d" stroke-width="1.4" /><rect x="337.35" y="333.85" width="6" height="2.00" rx="1.5" fill="#f6465d" /><line x1="351.09" y1="333.61" x2="351.09" y2="361.64" stroke="#f6465d" stroke-width="1.4" /><rect x="348.09" y="335.57" width="6" height="22.62" rx="1.5" fill="#f6465d" /><line x1="361.82" y1="335.63" x2="361.82" y2="363.20" stroke="#0ecb81" stroke-width="1.4" /><rect x="358.82" y="350.00" width="6" height="8.19" rx="1.5" fill="#0ecb81" /><line x1="372.56" y1="344.00" x2="372.56" y2="368.10" stroke="#f6465d" stroke-width="1.4" /><rect x="369.56" y="350.00" width="6" height="14.30" rx="1.5" fill="#f6465d" /><line x1="383.29" y1="364.30" x2="383.29" y2="387.31" stroke="#f6465d" stroke-width="1.4" /><rect x="380.29" y="364.30" width="6" height="3.49" rx="1.5" fill="#f6465d" /><line x1="394.03" y1="357.85" x2="394.03" y2="385.60" stroke="#0ecb81" stroke-width="1.4" /><rect x="391.03" y="363.40" width="6" height="4.40" rx="1.5" fill="#0ecb81" /><line x1="404.76" y1="341.15" x2="404.76" y2="371.31" stroke="#0ecb81" stroke-width="1.4" /><rect x="401.76" y="350.04" width="6" height="13.36" rx="1.5" fill="#0ecb81" /><line x1="415.49" y1="345.89" x2="415.49" y2="361.72" stroke="#f6465d" stroke-width="1.4" /><rect x="412.49" y="350.05" width="6" height="2.00" rx="1.5" fill="#f6465d" /><line x1="426.23" y1="342.17" x2="426.23" y2="360.78" stroke="#f6465d" stroke-width="1.4" /><rect x="423.23" y="351.99" width="6" height="4.28" rx="1.5" fill="#f6465d" /><line x1="436.96" y1="328.79" x2="436.96" y2="374.19" stroke="#0ecb81" stroke-width="1.4" /><rect x="433.96" y="355.12" width="6" height="2.00" rx="1.5" fill="#0ecb81" /><line x1="447.70" y1="353.99" x2="447.70" y2="386.89" stroke="#f6465d" stroke-width="1.4" /><rect x="444.70" y="355.12" width="6" height="14.86" rx="1.5" fill="#f6465d" /><line x1="458.43" y1="364.73" x2="458.43" y2="379.90" stroke="#0ecb81" stroke-width="1.4" /><rect x="455.43" y="365.24" width="6" height="4.73" rx="1.5" fill="#0ecb81" /><line x1="469.16" y1="353.35" x2="469.16" y2="365.25" stroke="#0ecb81" stroke-width="1.4" /><rect x="466.16" y="355.63" width="6" height="9.62" rx="1.5" fill="#0ecb81" /><line x1="479.90" y1="352.77" x2="479.90" y2="381.69" stroke="#f6465d" stroke-width="1.4" /><rect x="476.90" y="355.61" width="6" height="15.11" rx="1.5" fill="#f6465d" /><line x1="490.63" y1="311.26" x2="490.63" y2="379.92" stroke="#0ecb81" stroke-width="1.4" /><rect x="487.63" y="339.95" width="6" height="30.79" rx="1.5" fill="#0ecb81" /><line x1="501.37" y1="326.93" x2="501.37" y2="353.28" stroke="#0ecb81" stroke-width="1.4" /><rect x="498.37" y="333.53" width="6" height="6.41" rx="1.5" fill="#0ecb81" /><line x1="512.10" y1="285.34" x2="512.10" y2="372.42" stroke="#f6465d" stroke-width="1.4" /><rect x="509.10" y="333.52" width="6" height="20.86" rx="1.5" fill="#f6465d" /><line x1="522.84" y1="294.44" x2="522.84" y2="361.30" stroke="#0ecb81" stroke-width="1.4" /><rect x="519.84" y="345.89" width="6" height="8.49" rx="1.5" fill="#0ecb81" /><line x1="533.57" y1="303.21" x2="533.57" y2="351.21" stroke="#0ecb81" stroke-width="1.4" /><rect x="530.57" y="320.50" width="6" height="25.39" rx="1.5" fill="#0ecb81" /><line x1="544.30" y1="309.76" x2="544.30" y2="343.97" stroke="#0ecb81" stroke-width="1.4" /><rect x="541.30" y="315.64" width="6" height="4.86" rx="1.5" fill="#0ecb81" /><line x1="555.04" y1="315.15" x2="555.04" y2="357.22" stroke="#f6465d" stroke-width="1.4" /><rect x="552.04" y="315.66" width="6" height="40.54" rx="1.5" fill="#f6465d" /><line x1="565.77" y1="353.13" x2="565.77" y2="413.70" stroke="#f6465d" stroke-width="1.4" /><rect x="562.77" y="356.18" width="6" height="50.63" rx="1.5" fill="#f6465d" /><line x1="576.51" y1="394.88" x2="576.51" y2="452.00" stroke="#f6465d" stroke-width="1.4" /><rect x="573.51" y="406.80" width="6" height="26.18" rx="1.5" fill="#f6465d" /><line x1="587.24" y1="384.10" x2="587.24" y2="436.07" stroke="#0ecb81" stroke-width="1.4" /><rect x="584.24" y="388.49" width="6" height="44.49" rx="1.5" fill="#0ecb81" /><line x1="597.97" y1="377.74" x2="597.97" y2="436.92" stroke="#f6465d" stroke-width="1.4" /><rect x="594.97" y="388.49" width="6" height="27.02" rx="1.5" fill="#f6465d" /><line x1="608.71" y1="387.25" x2="608.71" y2="421.30" stroke="#0ecb81" stroke-width="1.4" /><rect x="605.71" y="397.56" width="6" height="17.95" rx="1.5" fill="#0ecb81" /><line x1="619.44" y1="370.79" x2="619.44" y2="402.45" stroke="#0ecb81" stroke-width="1.4" /><rect x="616.44" y="384.72" width="6" height="12.84" rx="1.5" fill="#0ecb81" /><line x1="630.18" y1="289.83" x2="630.18" y2="390.08" stroke="#0ecb81" stroke-width="1.4" /><rect x="627.18" y="299.41" width="6" height="85.31" rx="1.5" fill="#0ecb81" /><line x1="640.91" y1="298.02" x2="640.91" y2="348.82" stroke="#f6465d" stroke-width="1.4" /><rect x="637.91" y="299.41" width="6" height="42.46" rx="1.5" fill="#f6465d" /><line x1="651.65" y1="328.24" x2="651.65" y2="397.82" stroke="#f6465d" stroke-width="1.4" /><rect x="648.65" y="341.88" width="6" height="38.57" rx="1.5" fill="#f6465d" /><line x1="662.38" y1="351.41" x2="662.38" y2="415.15" stroke="#0ecb81" stroke-width="1.4" /><rect x="659.38" y="370.81" width="6" height="9.64" rx="1.5" fill="#0ecb81" /><line x1="673.11" y1="210.77" x2="673.11" y2="371.58" stroke="#0ecb81" stroke-width="1.4" /><rect x="670.11" y="225.34" width="6" height="145.48" rx="1.5" fill="#0ecb81" /><line x1="683.85" y1="219.73" x2="683.85" y2="258.50" stroke="#f6465d" stroke-width="1.4" /><rect x="680.85" y="225.34" width="6" height="11.31" rx="1.5" fill="#f6465d" /><line x1="694.58" y1="216.45" x2="694.58" y2="257.00" stroke="#0ecb81" stroke-width="1.4" /><rect x="691.58" y="226.59" width="6" height="10.06" rx="1.5" fill="#0ecb81" /><line x1="705.32" y1="198.41" x2="705.32" y2="275.03" stroke="#f6465d" stroke-width="1.4" /><rect x="702.32" y="226.59" width="6" height="42.54" rx="1.5" fill="#f6465d" /><line x1="716.05" y1="264.15" x2="716.05" y2="294.39" stroke="#f6465d" stroke-width="1.4" /><rect x="713.05" y="269.14" width="6" height="11.91" rx="1.5" fill="#f6465d" /><line x1="726.78" y1="242.00" x2="726.78" y2="292.06" stroke="#0ecb81" stroke-width="1.4" /><rect x="723.78" y="253.20" width="6" height="27.86" rx="1.5" fill="#0ecb81" /><line x1="737.52" y1="244.33" x2="737.52" y2="265.94" stroke="#f6465d" stroke-width="1.4" /><rect x="734.52" y="253.18" width="6" height="10.67" rx="1.5" fill="#f6465d" /><line x1="748.25" y1="263.85" x2="748.25" y2="288.23" stroke="#f6465d" stroke-width="1.4" /><rect x="745.25" y="263.86" width="6" height="17.27" rx="1.5" fill="#f6465d" /><line x1="758.99" y1="265.53" x2="758.99" y2="283.59" stroke="#0ecb81" stroke-width="1.4" /><rect x="755.99" y="268.01" width="6" height="13.10" rx="1.5" fill="#0ecb81" /><line x1="769.72" y1="226.46" x2="769.72" y2="281.55" stroke="#0ecb81" stroke-width="1.4" /><rect x="766.72" y="229.19" width="6" height="38.83" rx="1.5" fill="#0ecb81" /><line x1="780.46" y1="217.39" x2="780.46" y2="270.82" stroke="#f6465d" stroke-width="1.4" /><rect x="777.46" y="229.21" width="6" height="41.24" rx="1.5" fill="#f6465d" /><line x1="791.19" y1="236.54" x2="791.19" y2="277.86" stroke="#0ecb81" stroke-width="1.4" /><rect x="788.19" y="248.04" width="6" height="22.41" rx="1.5" fill="#0ecb81" /><line x1="801.92" y1="225.08" x2="801.92" y2="248.83" stroke="#0ecb81" stroke-width="1.4" /><rect x="798.92" y="229.12" width="6" height="18.92" rx="1.5" fill="#0ecb81" /><line x1="812.66" y1="206.44" x2="812.66" y2="239.75" stroke="#f6465d" stroke-width="1.4" /><rect x="809.66" y="229.12" width="6" height="5.60" rx="1.5" fill="#f6465d" /><line x1="823.39" y1="181.12" x2="823.39" y2="238.93" stroke="#0ecb81" stroke-width="1.4" /><rect x="820.39" y="206.21" width="6" height="28.51" rx="1.5" fill="#0ecb81" /><line x1="834.13" y1="175.92" x2="834.13" y2="221.05" stroke="#0ecb81" stroke-width="1.4" /><rect x="831.13" y="185.51" width="6" height="20.71" rx="1.5" fill="#0ecb81" /><line x1="844.86" y1="142.55" x2="844.86" y2="193.44" stroke="#0ecb81" stroke-width="1.4" /><rect x="841.86" y="151.58" width="6" height="33.91" rx="1.5" fill="#0ecb81" /><line x1="855.59" y1="130.46" x2="855.59" y2="159.43" stroke="#0ecb81" stroke-width="1.4" /><rect x="852.59" y="147.49" width="6" height="4.10" rx="1.5" fill="#0ecb81" /><line x1="866.33" y1="132.61" x2="866.33" y2="158.61" stroke="#0ecb81" stroke-width="1.4" /><rect x="863.33" y="139.93" width="6" height="7.58" rx="1.5" fill="#0ecb81" /><line x1="877.06" y1="124.01" x2="877.06" y2="154.23" stroke="#f6465d" stroke-width="1.4" /><rect x="874.06" y="139.91" width="6" height="12.38" rx="1.5" fill="#f6465d" /><line x1="887.80" y1="131.05" x2="887.80" y2="157.74" stroke="#0ecb81" stroke-width="1.4" /><rect x="884.80" y="132.92" width="6" height="19.39" rx="1.5" fill="#0ecb81" /><line x1="898.53" y1="95.83" x2="898.53" y2="143.04" stroke="#0ecb81" stroke-width="1.4" /><rect x="895.53" y="106.99" width="6" height="25.93" rx="1.5" fill="#0ecb81" /><line x1="909.27" y1="76.18" x2="909.27" y2="136.32" stroke="#0ecb81" stroke-width="1.4" /><rect x="906.27" y="79.67" width="6" height="27.33" rx="1.5" fill="#0ecb81" /><line x1="920.00" y1="58.00" x2="920.00" y2="96.94" stroke="#f6465d" stroke-width="1.4" /><rect x="917.00" y="79.68" width="6" height="13.94" rx="1.5" fill="#f6465d" />
  <polyline points="512.10,285.34 576.51,452.00 630.18,289.83 662.38,415.15 705.32,198.41" fill="none" stroke="#2fc273" stroke-width="4" stroke-linecap="round" stroke-linejoin="round" />
  <circle cx="512.10" cy="285.34" r="5.5" fill="#2fc273" fill-opacity="0.15" stroke="#2fc273" stroke-width="2" /><text x="512.10" y="273.34" fill="#f3f4f6" font-size="15" font-weight="700" text-anchor="middle">X</text><circle cx="576.51" cy="452.00" r="5.5" fill="#2fc273" fill-opacity="0.15" stroke="#2fc273" stroke-width="2" /><text x="576.51" y="440.00" fill="#f3f4f6" font-size="15" font-weight="700" text-anchor="middle">A</text><circle cx="630.18" cy="289.83" r="5.5" fill="#2fc273" fill-opacity="0.15" stroke="#2fc273" stroke-width="2" /><text x="630.18" y="277.83" fill="#f3f4f6" font-size="15" font-weight="700" text-anchor="middle">B</text><circle cx="662.38" cy="415.15" r="5.5" fill="#2fc273" fill-opacity="0.15" stroke="#2fc273" stroke-width="2" /><text x="662.38" y="403.15" fill="#f3f4f6" font-size="15" font-weight="700" text-anchor="middle">C</text><circle cx="705.32" cy="198.41" r="5.5" fill="#2fc273" fill-opacity="0.15" stroke="#2fc273" stroke-width="2" /><text x="705.32" y="186.41" fill="#f3f4f6" font-size="15" font-weight="700" text-anchor="middle">D</text>
  <text x="56" y="492" fill="#8ba0b5" font-size="18">Realtime Touch · TP1 65118.09 · TP2 64704.21 · SL 65963.3</text>
</svg>
