<svg xmlns="http://www.w3.org/2000/svg" width="960" height="540" viewBox="0 0 960 540">
  <rect width="960" height="540" rx="24" fill="#0b1220" />
  <rect x="28" y="28" width="904" height="484" rx="22" fill="#111827" stroke="#1f2937" />
  <text x="56" y="74" fill="#f3f4f6" font-size="34" font-weight="700">BULLAUSDT · AB=CD</text>
  <text x="904" y="74" fill="#8ba0b5" font-size="20" text-anchor="end">Bearish (매도) · Score 73.4</text>
  <line x1="72" y1="58" x2="920" y2="58" stroke="#223045" stroke-width="1" stroke-dasharray="4 8" /><line x1="72" y1="156" x2="920" y2="156" stroke="#223045" stroke-width="1" stroke-dasharray="4 8" /><line x1="72" y1="255" x2="920" y2="255" stroke="#223045" stroke-width="1" stroke-dasharray="4 8" /><line x1="72" y1="353" x2="920" y2="353" stroke="#223045" stroke-width="1" stroke-dasharray="4 8" /><line x1="72" y1="452" x2="920" y2="452" stroke="#223045" stroke-width="1" stroke-dasharray="4 8" />
  <rect x="129.87" y="269.08" width="84" height="84.99" fill="#fbbf24" fill-opacity="0.12" stroke="#fbbf24" stroke-width="1.5" stroke-dasharray="6 6" />
  <line x1="72.00" y1="405.69" x2="72.00" y2="432.25" stroke="#0ecb81" stroke-width="1.4" /><rect x="69.00" y="419.43" width="6" height="6.21" rx="1.5" fill="#0ecb81" /><line x1="82.73" y1="384.35" x2="82.73" y2="428.95" stroke="#0ecb81" stroke-width="1.4" /><rect x="79.73" y="409.30" width="6" height="9.62" rx="1.5" fill="#0ecb81" /><line x1="93.47" y1="390.66" x2="93.47" y2="418.72" stroke="#0ecb81" stroke-width="1.4" /><rect x="90.47" y="402.39" width="6" height="7.62" rx="1.5" fill="#0ecb81" /><line x1="104.20" y1="380.04" x2="104.20" y2="409.60" stroke="#0ecb81" stroke-width="1.4" /><rect x="101.20" y="382.44" width="6" height="19.64" rx="1.5" fill="#0ecb81" /><line x1="114.94" y1="377.63" x2="114.94" y2="394.17" stroke="#f6465d" stroke-width="1.4" /><rect x="111.94" y="382.44" width="6" height="2.00" rx="1.5" fill="#f6465d" /><line x1="125.67" y1="360.09" x2="125.67" y2="393.07" stroke="#0ecb81" stroke-width="1.4" /><rect x="122.67" y="367.01" width="6" height="14.73" rx="1.5" fill="#0ecb81" /><line x1="136.41" y1="363.30" x2="136.41" y2="400.38" stroke="#f6465d" stroke-width="1.4" /><rect x="133.41" y="367.11" width="6" height="18.74" rx="1.5" fill="#f6465d" /><line x1="147.14" y1="363.20" x2="147.14" y2="404.19" stroke="#0ecb81" stroke-width="1.4" /><rect x="144.14" y="372.32" width="6" height="13.53" rx="1.5" fill="#0ecb81" /><line x1="157.87" y1="345.96" x2="157.87" y2="378.93" stroke="#0ecb81" stroke-width="1.4" /><rect x="154.87" y="357.68" width="6" height="13.73" rx="1.5" fill="#0ecb81" /><line x1="168.61" y1="346.86" x2="168.61" y2="371.92" stroke="#0ecb81" stroke-width="1.4" /><rect x="165.61" y="355.18" width="6" height="2.51" rx="1.5" fill="#0ecb81" /><line x1="179.34" y1="347.36" x2="179.34" y2="370.21" stroke="#f6465d" stroke-width="1.4" /><rect x="176.34" y="354.48" width="6" height="2.00" rx="1.5" fill="#f6465d" /><line x1="190.08" y1="349.57" x2="190.08" y2="369.91" stroke="#f6465d" stroke-width="1.4" /><rect x="187.08" y="355.88" width="6" height="8.02" rx="1.5" fill="#f6465d" /><line x1="200.81" y1="348.66" x2="200.81" y2="384.35" stroke="#f6465d" stroke-width="1.4" /><rect x="197.81" y="363.50" width="6" height="6.62" rx="1.5" fill="#f6465d" /><line x1="211.54" y1="361.29" x2="211.54" y2="375.53" stroke="#f6465d" stroke-width="1.4" /><rect x="208.54" y="369.51" width="6" height="2.41" rx="1.5" fill="#f6465d" /><line x1="222.28" y1="354.48" x2="222.28" y2="382.84" stroke="#0ecb81" stroke-width="1.4" /><rect x="219.28" y="355.38" width="6" height="17.04" rx="1.5" fill="#0ecb81" /><line x1="233.01" y1="345.56" x2="233.01" y2="365.70" stroke="#0ecb81" stroke-width="1.4" /><rect x="230.01" y="353.47" width="6" height="2.00" rx="1.5" fill="#0ecb81" /><line x1="243.75" y1="341.95" x2="243.75" y2="358.99" stroke="#0ecb81" stroke-width="1.4" /><rect x="240.75" y="343.05" width="6" height="10.42" rx="1.5" fill="#0ecb81" /><line x1="254.48" y1="304.56" x2="254.48" y2="365.20" stroke="#0ecb81" stroke-width="1.4" /><rect x="251.48" y="311.08" width="6" height="32.57" rx="1.5" fill="#0ecb81" /><line x1="265.22" y1="226.69" x2="265.22" y2="328.42" stroke="#0ecb81" stroke-width="1.4" /><rect x="262.22" y="229.29" width="6" height="81.79" rx="1.5" fill="#0ecb81" /><line x1="275.95" y1="156.02" x2="275.95" y2="264.77" stroke="#0ecb81" stroke-width="1.4" /><rect x="272.95" y="188.10" width="6" height="41.09" rx="1.5" fill="#0ecb81" /><line x1="286.68" y1="97.89" x2="286.68" y2="214.16" stroke="#0ecb81" stroke-width="1.4" /><rect x="283.68" y="136.88" width="6" height="52.12" rx="1.5" fill="#0ecb81" /><line x1="297.42" y1="102.60" x2="297.42" y2="303.36" stroke="#f6465d" stroke-width="1.4" /><rect x="294.42" y="135.58" width="6" height="98.22" rx="1.5" fill="#f6465d" /><line x1="308.15" y1="225.28" x2="308.15" y2="267.48" stroke="#f6465d" stroke-width="1.4" /><rect x="305.15" y="235.00" width="6" height="12.73" rx="1.5" fill="#f6465d" /><line x1="318.89" y1="169.66" x2="318.89" y2="252.64" stroke="#0ecb81" stroke-width="1.4" /><rect x="315.89" y="200.33" width="6" height="46.81" rx="1.5" fill="#0ecb81" /><line x1="329.62" y1="140.39" x2="329.62" y2="200.43" stroke="#0ecb81" stroke-width="1.4" /><rect x="326.62" y="160.13" width="6" height="40.09" rx="1.5" fill="#0ecb81" /><line x1="340.35" y1="105.91" x2="340.35" y2="174.77" stroke="#0ecb81" stroke-width="1.4" /><rect x="337.35" y="132.27" width="6" height="26.66" rx="1.5" fill="#0ecb81" /><line x1="351.09" y1="75.24" x2="351.09" y2="171.76" stroke="#f6465d" stroke-width="1.4" /><rect x="348.09" y="131.37" width="6" height="37.18" rx="1.5" fill="#f6465d" /><line x1="361.82" y1="145.30" x2="361.82" y2="201.63" stroke="#0ecb81" stroke-width="1.4" /><rect x="358.82" y="155.72" width="6" height="12.83" rx="1.5" fill="#0ecb81" /><line x1="372.56" y1="154.52" x2="372.56" y2="187.60" stroke="#f6465d" stroke-width="1.4" /><rect x="369.56" y="156.73" width="6" height="7.52" rx="1.5" fill="#f6465d" /><line x1="383.29" y1="126.46" x2="383.29" y2="332.23" stroke="#f6465d" stroke-width="1.4" /><rect x="380.29" y="164.04" width="6" height="146.43" rx="1.5" fill="#f6465d" /><line x1="394.03" y1="241.92" x2="394.03" y2="380.74" stroke="#f6465d" stroke-width="1.4" /><rect x="391.03" y="310.68" width="6" height="41.80" rx="1.5" fill="#f6465d" /><line x1="404.76" y1="286.52" x2="404.76" y2="359.29" stroke="#0ecb81" stroke-width="1.4" /><rect x="401.76" y="335.93" width="6" height="16.54" rx="1.5" fill="#0ecb81" /><line x1="415.49" y1="329.42" x2="415.49" y2="357.48" stroke="#f6465d" stroke-width="1.4" /><rect x="412.49" y="336.84" width="6" height="18.04" rx="1.5" fill="#f6465d" /><line x1="426.23" y1="340.34" x2="426.23" y2="380.94" stroke="#f6465d" stroke-width="1.4" /><rect x="423.23" y="354.28" width="6" height="16.74" rx="1.5" fill="#f6465d" /><line x1="436.96" y1="347.26" x2="436.96" y2="377.03" stroke="#0ecb81" stroke-width="1.4" /><rect x="433.96" y="363.20" width="6" height="7.82" rx="1.5" fill="#0ecb81" /><line x1="447.70" y1="333.93" x2="447.70" y2="403.19" stroke="#f6465d" stroke-width="1.4" /><rect x="444.70" y="363.70" width="6" height="4.61" rx="1.5" fill="#f6465d" /><line x1="458.43" y1="362.80" x2="458.43" y2="381.54" stroke="#0ecb81" stroke-width="1.4" /><rect x="455.43" y="364.20" width="6" height="3.21" rx="1.5" fill="#0ecb81" /><line x1="469.16" y1="327.42" x2="469.16" y2="367.91" stroke="#0ecb81" stroke-width="1.4" /><rect x="466.16" y="356.58" width="6" height="6.92" rx="1.5" fill="#0ecb81" /><line x1="479.90" y1="354.88" x2="479.90" y2="392.56" stroke="#f6465d" stroke-width="1.4" /><rect x="476.90" y="356.38" width="6" height="28.77" rx="1.5" fill="#f6465d" /><line x1="490.63" y1="384.85" x2="490.63" y2="408.80" stroke="#f6465d" stroke-width="1.4" /><rect x="487.63" y="385.25" width="6" height="16.84" rx="1.5" fill="#f6465d" /><line x1="501.37" y1="398.98" x2="501.37" y2="423.23" stroke="#f6465d" stroke-width="1.4" /><rect x="498.37" y="401.69" width="6" height="14.33" rx="1.5" fill="#f6465d" /><line x1="512.10" y1="384.25" x2="512.10" y2="431.95" stroke="#0ecb81" stroke-width="1.4" /><rect x="509.10" y="398.98" width="6" height="17.04" rx="1.5" fill="#0ecb81" /><line x1="522.84" y1="374.52" x2="522.84" y2="405.39" stroke="#f6465d" stroke-width="1.4" /><rect x="519.84" y="398.58" width="6" height="2.31" rx="1.5" fill="#f6465d" /><line x1="533.57" y1="368.61" x2="533.57" y2="452.00" stroke="#0ecb81" stroke-width="1.4" /><rect x="530.57" y="383.14" width="6" height="17.34" rx="1.5" fill="#0ecb81" /><line x1="544.30" y1="369.31" x2="544.30" y2="411.61" stroke="#f6465d" stroke-width="1.4" /><rect x="541.30" y="383.24" width="6" height="15.13" rx="1.5" fill="#f6465d" /><line x1="555.04" y1="377.03" x2="555.04" y2="408.90" stroke="#0ecb81" stroke-width="1.4" /><rect x="552.04" y="381.24" width="6" height="17.24" rx="1.5" fill="#0ecb81" /><line x1="565.77" y1="377.03" x2="565.77" y2="417.12" stroke="#f6465d" stroke-width="1.4" /><rect x="562.77" y="381.24" width="6" height="2.61" rx="1.5" fill="#f6465d" /><line x1="576.51" y1="368.41" x2="576.51" y2="401.79" stroke="#0ecb81" stroke-width="1.4" /><rect x="573.51" y="380.84" width="6" height="2.81" rx="1.5" fill="#0ecb81" /><line x1="587.24" y1="369.01" x2="587.24" y2="421.13" stroke="#f6465d" stroke-width="1.4" /><rect x="584.24" y="380.84" width="6" height="31.57" rx="1.5" fill="#f6465d" /><line x1="597.97" y1="345.16" x2="597.97" y2="420.23" stroke="#0ecb81" stroke-width="1.4" /><rect x="594.97" y="362.09" width="6" height="51.22" rx="1.5" fill="#0ecb81" /><line x1="608.71" y1="319.40" x2="608.71" y2="365.10" stroke="#0ecb81" stroke-width="1.4" /><rect x="605.71" y="328.32" width="6" height="32.98" rx="1.5" fill="#0ecb81" /><line x1="619.44" y1="260.26" x2="619.44" y2="337.14" stroke="#0ecb81" stroke-width="1.4" /><rect x="616.44" y="261.46" width="6" height="67.45" rx="1.5" fill="#0ecb81" /><line x1="630.18" y1="257.56" x2="630.18" y2="315.69" stroke="#f6465d" stroke-width="1.4" /><rect x="627.18" y="262.27" width="6" height="31.07" rx="1.5" fill="#f6465d" /><line x1="640.91" y1="265.77" x2="640.91" y2="309.07" stroke="#0ecb81" stroke-width="1.4" /><rect x="637.91" y="267.18" width="6" height="24.76" rx="1.5" fill="#0ecb81" /><line x1="651.65" y1="226.59" x2="651.65" y2="276.00" stroke="#0ecb81" stroke-width="1.4" /><rect x="648.65" y="229.49" width="6" height="37.89" rx="1.5" fill="#0ecb81" /><line x1="662.38" y1="205.74" x2="662.38" y2="244.23" stroke="#0ecb81" stroke-width="1.4" /><rect x="659.38" y="215.96" width="6" height="12.93" rx="1.5" fill="#0ecb81" /><line x1="673.11" y1="198.82" x2="673.11" y2="245.63" stroke="#f6465d" stroke-width="1.4" /><rect x="670.11" y="216.06" width="6" height="26.56" rx="1.5" fill="#f6465d" /><line x1="683.85" y1="218.47" x2="683.85" y2="267.58" stroke="#f6465d" stroke-width="1.4" /><rect x="680.85" y="241.82" width="6" height="16.44" rx="1.5" fill="#f6465d" /><line x1="694.58" y1="243.12" x2="694.58" y2="265.37" stroke="#0ecb81" stroke-width="1.4" /><rect x="691.58" y="250.74" width="6" height="8.22" rx="1.5" fill="#0ecb81" /><line x1="705.32" y1="222.68" x2="705.32" y2="254.65" stroke="#0ecb81" stroke-width="1.4" /><rect x="702.32" y="226.89" width="6" height="23.85" rx="1.5" fill="#0ecb81" /><line x1="716.05" y1="204.84" x2="716.05" y2="235.51" stroke="#0ecb81" stroke-width="1.4" /><rect x="713.05" y="219.67" width="6" height="7.42" rx="1.5" fill="#0ecb81" /><line x1="726.78" y1="209.25" x2="726.78" y2="226.38" stroke="#0ecb81" stroke-width="1.4" /><rect x="723.78" y="209.85" width="6" height="8.82" rx="1.5" fill="#0ecb81" /><line x1="737.52" y1="83.86" x2="737.52" y2="209.85" stroke="#0ecb81" stroke-width="1.4" /><rect x="734.52" y="95.89" width="6" height="113.26" rx="1.5" fill="#0ecb81" /><line x1="748.25" y1="58.00" x2="748.25" y2="166.55" stroke="#f6465d" stroke-width="1.4" /><rect x="745.25" y="95.49" width="6" height="23.55" rx="1.5" fill="#f6465d" /><line x1="758.99" y1="118.44" x2="758.99" y2="211.05" stroke="#f6465d" stroke-width="1.4" /><rect x="755.99" y="118.64" width="6" height="25.06" rx="1.5" fill="#f6465d" /><line x1="769.72" y1="142.89" x2="769.72" y2="205.84" stroke="#f6465d" stroke-width="1.4" /><rect x="766.72" y="142.89" width="6" height="35.78" rx="1.5" fill="#f6465d" /><line x1="780.46" y1="145.30" x2="780.46" y2="195.61" stroke="#f6465d" stroke-width="1.4" /><rect x="777.46" y="177.97" width="6" height="11.03" rx="1.5" fill="#f6465d" /><line x1="791.19" y1="169.96" x2="791.19" y2="222.58" stroke="#f6465d" stroke-width="1.4" /><rect x="788.19" y="189.40" width="6" height="13.93" rx="1.5" fill="#f6465d" /><line x1="801.92" y1="170.76" x2="801.92" y2="210.45" stroke="#0ecb81" stroke-width="1.4" /><rect x="798.92" y="183.89" width="6" height="21.25" rx="1.5" fill="#0ecb81" /><line x1="812.66" y1="154.52" x2="812.66" y2="200.93" stroke="#f6465d" stroke-width="1.4" /><rect x="809.66" y="183.89" width="6" height="12.33" rx="1.5" fill="#f6465d" /><line x1="823.39" y1="193.11" x2="823.39" y2="279.61" stroke="#f6465d" stroke-width="1.4" /><rect x="820.39" y="195.61" width="6" height="67.15" rx="1.5" fill="#f6465d" /><line x1="834.13" y1="249.04" x2="834.13" y2="274.29" stroke="#0ecb81" stroke-width="1.4" /><rect x="831.13" y="249.84" width="6" height="13.23" rx="1.5" fill="#0ecb81" /><line x1="844.86" y1="184.99" x2="844.86" y2="257.76" stroke="#0ecb81" stroke-width="1.4" /><rect x="841.86" y="216.26" width="6" height="34.28" rx="1.5" fill="#0ecb81" /><line x1="855.59" y1="194.61" x2="855.59" y2="256.15" stroke="#f6465d" stroke-width="1.4" /><rect x="852.59" y="216.06" width="6" height="4.51" rx="1.5" fill="#f6465d" /><line x1="866.33" y1="140.99" x2="866.33" y2="243.92" stroke="#0ecb81" stroke-width="1.4" /><rect x="863.33" y="180.38" width="6" height="39.29" rx="1.5" fill="#0ecb81" /><line x1="877.06" y1="146.90" x2="877.06" y2="184.89" stroke="#0ecb81" stroke-width="1.4" /><rect x="874.06" y="154.92" width="6" height="25.46" rx="1.5" fill="#0ecb81" /><line x1="887.80" y1="149.21" x2="887.80" y2="188.90" stroke="#f6465d" stroke-width="1.4" /><rect x="884.80" y="155.72" width="6" height="22.85" rx="1.5" fill="#f6465d" /><line x1="898.53" y1="117.03" x2="898.53" y2="183.59" stroke="#0ecb81" stroke-width="1.4" /><rect x="895.53" y="127.66" width="6" height="50.62" rx="1.5" fill="#0ecb81" /><line x1="909.27" y1="68.52" x2="909.27" y2="129.66" stroke="#0ecb81" stroke-width="1.4" /><rect x="906.27" y="95.89" width="6" height="31.77" rx="1.5" fill="#0ecb81" /><line x1="920.00" y1="68.72" x2="920.00" y2="98.49" stroke="#0ecb81" stroke-width="1.4" /><rect x="917.00" y="81.45" width="6" height="14.13" rx="1.5" fill="#0ecb81" />
  <polyline points="72.00,364.30 72.00,493.60 72.00,367.51 72.00,480.16 157.87,345.96" fill="none" stroke="#2fc273" stroke-width="4" stroke-linecap="round" stroke-linejoin="round" />
  <circle cx="72.00" cy="364.30" r="5.5" fill="#2fc273" fill-opacity="0.15" stroke="#2fc273" stroke-width="2" /><text x="72.00" y="352.30" fill="#f3f4f6" font-size="15" font-weight="700" text-anchor="middle">X</text><circle cx="72.00" cy="493.60" r="5.5" fill="#2fc273" fill-opacity="0.15" stroke="#2fc273" stroke-width="2" /><text x="72.00" y="481.60" fill="#f3f4f6" font-size="15" font-weight="700" text-anchor="middle">A</text><circle cx="72.00" cy="367.51" r="5.5" fill="#2fc273" fill-opacity="0.15" stroke="#2fc273" stroke-width="2" /><text x="72.00" y="355.51" fill="#f3f4f6" font-size="15" font-weight="700" text-anchor="middle">B</text><circle cx="72.00" cy="480.16" r="5.5" fill="#2fc273" fill-opacity="0.15" stroke="#2fc273" stroke-width="2" /><text x="72.00" y="468.16" fill="#f3f4f6" font-size="15" font-weight="700" text-anchor="middle">C</text><circle cx="157.87" cy="345.96" r="5.5" fill="#2fc273" fill-opacity="0.15" stroke="#2fc273" stroke-width="2" /><text x="157.87" y="333.96" fill="#f3f4f6" font-size="15" font-weight="700" text-anchor="middle">D</text>
  <text x="56" y="492" fill="#8ba0b5" font-size="18">Realtime Touch · TP1 0.009074 · TP2 0.008757 · SL 0.009753</text>
</svg>
