<svg xmlns="http://www.w3.org/2000/svg" width="960" height="540" viewBox="0 0 960 540">
  <rect width="960" height="540" rx="24" fill="#0b1220" />
  <rect x="28" y="28" width="904" height="484" rx="22" fill="#111827" stroke="#1f2937" />
  <text x="56" y="74" fill="#f3f4f6" font-size="34" font-weight="700">DOGEUSDT · AB=CD</text>
  <text x="904" y="74" fill="#8ba0b5" font-size="20" text-anchor="end">Bearish (매도) · Score 85.0</text>
  <line x1="72" y1="58" x2="920" y2="58" stroke="#223045" stroke-width="1" stroke-dasharray="4 8" /><line x1="72" y1="156" x2="920" y2="156" stroke="#223045" stroke-width="1" stroke-dasharray="4 8" /><line x1="72" y1="255" x2="920" y2="255" stroke="#223045" stroke-width="1" stroke-dasharray="4 8" /><line x1="72" y1="353" x2="920" y2="353" stroke="#223045" stroke-width="1" stroke-dasharray="4 8" /><line x1="72" y1="452" x2="920" y2="452" stroke="#223045" stroke-width="1" stroke-dasharray="4 8" />
  <rect x="419.70" y="15.31" width="84" height="43.82" fill="#fbbf24" fill-opacity="0.12" stroke="#fbbf24" stroke-width="1.5" stroke-dasharray="6 6" />
  <line x1="72.00" y1="320.35" x2="72.00" y2="364.55" stroke="#f6465d" stroke-width="1.4" /><rect x="69.00" y="346.68" width="6" height="2.00" rx="1.5" fill="#f6465d" /><line x1="82.73" y1="311.89" x2="82.73" y2="364.55" stroke="#0ecb81" stroke-width="1.4" /><rect x="79.73" y="330.70" width="6" height="16.93" rx="1.5" fill="#0ecb81" /><line x1="93.47" y1="325.05" x2="93.47" y2="352.32" stroke="#f6465d" stroke-width="1.4" /><rect x="90.47" y="330.70" width="6" height="14.11" rx="1.5" fill="#f6465d" /><line x1="104.20" y1="300.61" x2="104.20" y2="372.07" stroke="#0ecb81" stroke-width="1.4" /><rect x="101.20" y="332.58" width="6" height="13.16" rx="1.5" fill="#0ecb81" /><line x1="114.94" y1="331.64" x2="114.94" y2="378.65" stroke="#f6465d" stroke-width="1.4" /><rect x="111.94" y="332.58" width="6" height="30.09" rx="1.5" fill="#f6465d" /><line x1="125.67" y1="346.68" x2="125.67" y2="402.16" stroke="#0ecb81" stroke-width="1.4" /><rect x="122.67" y="357.97" width="6" height="5.64" rx="1.5" fill="#0ecb81" /><line x1="136.41" y1="354.21" x2="136.41" y2="419.09" stroke="#f6465d" stroke-width="1.4" /><rect x="133.41" y="357.03" width="6" height="54.54" rx="1.5" fill="#f6465d" /><line x1="147.14" y1="369.25" x2="147.14" y2="452.00" stroke="#0ecb81" stroke-width="1.4" /><rect x="144.14" y="373.95" width="6" height="36.67" rx="1.5" fill="#0ecb81" /><line x1="157.87" y1="241.37" x2="157.87" y2="394.64" stroke="#0ecb81" stroke-width="1.4" /><rect x="154.87" y="295.90" width="6" height="78.99" rx="1.5" fill="#0ecb81" /><line x1="168.61" y1="281.80" x2="168.61" y2="349.50" stroke="#f6465d" stroke-width="1.4" /><rect x="165.61" y="296.84" width="6" height="25.39" rx="1.5" fill="#f6465d" /><line x1="179.34" y1="271.46" x2="179.34" y2="351.38" stroke="#f6465d" stroke-width="1.4" /><rect x="176.34" y="322.23" width="6" height="19.75" rx="1.5" fill="#f6465d" /><line x1="190.08" y1="278.04" x2="190.08" y2="385.24" stroke="#f6465d" stroke-width="1.4" /><rect x="187.08" y="342.92" width="6" height="33.85" rx="1.5" fill="#f6465d" /><line x1="200.81" y1="320.35" x2="200.81" y2="390.88" stroke="#0ecb81" stroke-width="1.4" /><rect x="197.81" y="338.22" width="6" height="39.49" rx="1.5" fill="#0ecb81" /><line x1="211.54" y1="324.11" x2="211.54" y2="359.85" stroke="#0ecb81" stroke-width="1.4" /><rect x="208.54" y="326.00" width="6" height="12.22" rx="1.5" fill="#0ecb81" /><line x1="222.28" y1="286.50" x2="222.28" y2="345.74" stroke="#0ecb81" stroke-width="1.4" /><rect x="219.28" y="296.84" width="6" height="29.15" rx="1.5" fill="#0ecb81" /><line x1="233.01" y1="292.14" x2="233.01" y2="331.64" stroke="#f6465d" stroke-width="1.4" /><rect x="230.01" y="297.79" width="6" height="9.40" rx="1.5" fill="#f6465d" /><line x1="243.75" y1="295.90" x2="243.75" y2="337.28" stroke="#f6465d" stroke-width="1.4" /><rect x="240.75" y="307.19" width="6" height="6.58" rx="1.5" fill="#f6465d" /><line x1="254.48" y1="309.07" x2="254.48" y2="335.40" stroke="#f6465d" stroke-width="1.4" /><rect x="251.48" y="314.71" width="6" height="2.00" rx="1.5" fill="#f6465d" /><line x1="265.22" y1="302.49" x2="265.22" y2="337.28" stroke="#f6465d" stroke-width="1.4" /><rect x="262.22" y="317.53" width="6" height="11.28" rx="1.5" fill="#f6465d" /><line x1="275.95" y1="279.92" x2="275.95" y2="343.86" stroke="#0ecb81" stroke-width="1.4" /><rect x="272.95" y="325.05" width="6" height="4.70" rx="1.5" fill="#0ecb81" /><line x1="286.68" y1="288.38" x2="286.68" y2="362.67" stroke="#0ecb81" stroke-width="1.4" /><rect x="283.68" y="317.53" width="6" height="7.52" rx="1.5" fill="#0ecb81" /><line x1="297.42" y1="291.20" x2="297.42" y2="339.16" stroke="#0ecb81" stroke-width="1.4" /><rect x="294.42" y="296.84" width="6" height="21.63" rx="1.5" fill="#0ecb81" /><line x1="308.15" y1="285.56" x2="308.15" y2="325.05" stroke="#0ecb81" stroke-width="1.4" /><rect x="305.15" y="290.26" width="6" height="7.52" rx="1.5" fill="#0ecb81" /><line x1="318.89" y1="209.39" x2="318.89" y2="316.59" stroke="#0ecb81" stroke-width="1.4" /><rect x="315.89" y="247.95" width="6" height="42.32" rx="1.5" fill="#0ecb81" /><line x1="329.62" y1="222.56" x2="329.62" y2="280.86" stroke="#0ecb81" stroke-width="1.4" /><rect x="326.62" y="242.31" width="6" height="5.64" rx="1.5" fill="#0ecb81" /><line x1="340.35" y1="217.86" x2="340.35" y2="265.81" stroke="#0ecb81" stroke-width="1.4" /><rect x="337.35" y="243.25" width="6" height="2.00" rx="1.5" fill="#0ecb81" /><line x1="351.09" y1="204.69" x2="351.09" y2="244.19" stroke="#0ecb81" stroke-width="1.4" /><rect x="348.09" y="219.74" width="6" height="23.51" rx="1.5" fill="#0ecb81" /><line x1="361.82" y1="211.27" x2="361.82" y2="262.05" stroke="#0ecb81" stroke-width="1.4" /><rect x="358.82" y="216.92" width="6" height="2.00" rx="1.5" fill="#0ecb81" /><line x1="372.56" y1="193.41" x2="372.56" y2="247.01" stroke="#0ecb81" stroke-width="1.4" /><rect x="369.56" y="214.10" width="6" height="3.76" rx="1.5" fill="#0ecb81" /><line x1="383.29" y1="207.51" x2="383.29" y2="228.20" stroke="#f6465d" stroke-width="1.4" /><rect x="380.29" y="214.10" width="6" height="2.00" rx="1.5" fill="#f6465d" /><line x1="394.03" y1="139.81" x2="394.03" y2="246.07" stroke="#f6465d" stroke-width="1.4" /><rect x="391.03" y="215.04" width="6" height="18.81" rx="1.5" fill="#f6465d" /><line x1="404.76" y1="216.92" x2="404.76" y2="279.92" stroke="#0ecb81" stroke-width="1.4" /><rect x="401.76" y="220.68" width="6" height="13.16" rx="1.5" fill="#0ecb81" /><line x1="415.49" y1="185.89" x2="415.49" y2="238.54" stroke="#0ecb81" stroke-width="1.4" /><rect x="412.49" y="214.10" width="6" height="7.52" rx="1.5" fill="#0ecb81" /><line x1="426.23" y1="162.38" x2="426.23" y2="220.68" stroke="#0ecb81" stroke-width="1.4" /><rect x="423.23" y="209.39" width="6" height="4.70" rx="1.5" fill="#0ecb81" /><line x1="436.96" y1="160.50" x2="436.96" y2="211.27" stroke="#0ecb81" stroke-width="1.4" /><rect x="433.96" y="164.26" width="6" height="45.14" rx="1.5" fill="#0ecb81" /><line x1="447.70" y1="108.78" x2="447.70" y2="175.54" stroke="#0ecb81" stroke-width="1.4" /><rect x="444.70" y="159.56" width="6" height="4.70" rx="1.5" fill="#0ecb81" /><line x1="458.43" y1="121.94" x2="458.43" y2="184.95" stroke="#f6465d" stroke-width="1.4" /><rect x="455.43" y="159.56" width="6" height="24.45" rx="1.5" fill="#f6465d" /><line x1="469.16" y1="178.36" x2="469.16" y2="244.19" stroke="#f6465d" stroke-width="1.4" /><rect x="466.16" y="184.00" width="6" height="2.00" rx="1.5" fill="#f6465d" /><line x1="479.90" y1="158.62" x2="479.90" y2="191.53" stroke="#0ecb81" stroke-width="1.4" /><rect x="476.90" y="168.96" width="6" height="15.99" rx="1.5" fill="#0ecb81" /><line x1="490.63" y1="129.47" x2="490.63" y2="169.90" stroke="#0ecb81" stroke-width="1.4" /><rect x="487.63" y="152.97" width="6" height="15.99" rx="1.5" fill="#0ecb81" /><line x1="501.37" y1="146.39" x2="501.37" y2="210.33" stroke="#f6465d" stroke-width="1.4" /><rect x="498.37" y="153.91" width="6" height="47.02" rx="1.5" fill="#f6465d" /><line x1="512.10" y1="200.93" x2="512.10" y2="236.66" stroke="#f6465d" stroke-width="1.4" /><rect x="509.10" y="200.93" width="6" height="7.52" rx="1.5" fill="#f6465d" /><line x1="522.84" y1="207.51" x2="522.84" y2="231.96" stroke="#f6465d" stroke-width="1.4" /><rect x="519.84" y="207.51" width="6" height="16.93" rx="1.5" fill="#f6465d" /><line x1="533.57" y1="223.50" x2="533.57" y2="248.89" stroke="#f6465d" stroke-width="1.4" /><rect x="530.57" y="224.44" width="6" height="15.05" rx="1.5" fill="#f6465d" /><line x1="544.30" y1="235.72" x2="544.30" y2="267.69" stroke="#f6465d" stroke-width="1.4" /><rect x="541.30" y="240.42" width="6" height="13.16" rx="1.5" fill="#f6465d" /><line x1="555.04" y1="229.14" x2="555.04" y2="253.59" stroke="#0ecb81" stroke-width="1.4" /><rect x="552.04" y="238.54" width="6" height="14.11" rx="1.5" fill="#0ecb81" /><line x1="565.77" y1="212.21" x2="565.77" y2="245.13" stroke="#0ecb81" stroke-width="1.4" /><rect x="562.77" y="229.14" width="6" height="9.40" rx="1.5" fill="#0ecb81" /><line x1="576.51" y1="230.08" x2="576.51" y2="251.71" stroke="#f6465d" stroke-width="1.4" /><rect x="573.51" y="230.08" width="6" height="16.93" rx="1.5" fill="#f6465d" /><line x1="587.24" y1="213.16" x2="587.24" y2="260.17" stroke="#0ecb81" stroke-width="1.4" /><rect x="584.24" y="219.74" width="6" height="27.27" rx="1.5" fill="#0ecb81" /><line x1="597.97" y1="215.98" x2="597.97" y2="245.13" stroke="#f6465d" stroke-width="1.4" /><rect x="594.97" y="218.80" width="6" height="6.58" rx="1.5" fill="#f6465d" /><line x1="608.71" y1="225.38" x2="608.71" y2="260.17" stroke="#f6465d" stroke-width="1.4" /><rect x="605.71" y="226.32" width="6" height="25.39" rx="1.5" fill="#f6465d" /><line x1="619.44" y1="247.01" x2="619.44" y2="269.58" stroke="#f6465d" stroke-width="1.4" /><rect x="616.44" y="250.77" width="6" height="16.93" rx="1.5" fill="#f6465d" /><line x1="630.18" y1="250.77" x2="630.18" y2="285.56" stroke="#0ecb81" stroke-width="1.4" /><rect x="627.18" y="255.47" width="6" height="12.22" rx="1.5" fill="#0ecb81" /><line x1="640.91" y1="238.54" x2="640.91" y2="262.99" stroke="#0ecb81" stroke-width="1.4" /><rect x="637.91" y="247.95" width="6" height="7.52" rx="1.5" fill="#0ecb81" /><line x1="651.65" y1="244.19" x2="651.65" y2="273.34" stroke="#f6465d" stroke-width="1.4" /><rect x="648.65" y="247.95" width="6" height="16.93" rx="1.5" fill="#f6465d" /><line x1="662.38" y1="238.54" x2="662.38" y2="275.22" stroke="#0ecb81" stroke-width="1.4" /><rect x="659.38" y="259.23" width="6" height="5.64" rx="1.5" fill="#0ecb81" /><line x1="673.11" y1="244.19" x2="673.11" y2="284.62" stroke="#0ecb81" stroke-width="1.4" /><rect x="670.11" y="249.83" width="6" height="8.46" rx="1.5" fill="#0ecb81" /><line x1="683.85" y1="171.78" x2="683.85" y2="252.65" stroke="#0ecb81" stroke-width="1.4" /><rect x="680.85" y="188.71" width="6" height="60.18" rx="1.5" fill="#0ecb81" /><line x1="694.58" y1="152.03" x2="694.58" y2="210.33" stroke="#0ecb81" stroke-width="1.4" /><rect x="691.58" y="179.30" width="6" height="8.46" rx="1.5" fill="#0ecb81" /><line x1="705.32" y1="118.18" x2="705.32" y2="195.29" stroke="#0ecb81" stroke-width="1.4" /><rect x="702.32" y="141.69" width="6" height="37.61" rx="1.5" fill="#0ecb81" /><line x1="716.05" y1="120.06" x2="716.05" y2="148.27" stroke="#0ecb81" stroke-width="1.4" /><rect x="713.05" y="140.75" width="6" height="2.00" rx="1.5" fill="#0ecb81" /><line x1="726.78" y1="58.00" x2="726.78" y2="151.09" stroke="#0ecb81" stroke-width="1.4" /><rect x="723.78" y="138.87" width="6" height="2.00" rx="1.5" fill="#0ecb81" /><line x1="737.52" y1="125.70" x2="737.52" y2="166.14" stroke="#f6465d" stroke-width="1.4" /><rect x="734.52" y="137.93" width="6" height="22.57" rx="1.5" fill="#f6465d" /><line x1="748.25" y1="124.76" x2="748.25" y2="167.08" stroke="#0ecb81" stroke-width="1.4" /><rect x="745.25" y="152.97" width="6" height="8.46" rx="1.5" fill="#0ecb81" /><line x1="758.99" y1="145.45" x2="758.99" y2="164.26" stroke="#f6465d" stroke-width="1.4" /><rect x="755.99" y="152.97" width="6" height="5.64" rx="1.5" fill="#f6465d" /><line x1="769.72" y1="158.62" x2="769.72" y2="182.12" stroke="#f6465d" stroke-width="1.4" /><rect x="766.72" y="158.62" width="6" height="2.00" rx="1.5" fill="#f6465d" /><line x1="780.46" y1="151.09" x2="780.46" y2="192.47" stroke="#f6465d" stroke-width="1.4" /><rect x="777.46" y="158.62" width="6" height="27.27" rx="1.5" fill="#f6465d" /><line x1="791.19" y1="181.18" x2="791.19" y2="222.56" stroke="#f6465d" stroke-width="1.4" /><rect x="788.19" y="185.89" width="6" height="21.63" rx="1.5" fill="#f6465d" /><line x1="801.92" y1="208.45" x2="801.92" y2="230.08" stroke="#0ecb81" stroke-width="1.4" /><rect x="798.92" y="208.45" width="6" height="2.00" rx="1.5" fill="#0ecb81" /><line x1="812.66" y1="207.51" x2="812.66" y2="231.02" stroke="#f6465d" stroke-width="1.4" /><rect x="809.66" y="209.39" width="6" height="13.16" rx="1.5" fill="#f6465d" /><line x1="823.39" y1="222.56" x2="823.39" y2="260.17" stroke="#f6465d" stroke-width="1.4" /><rect x="820.39" y="223.50" width="6" height="28.21" rx="1.5" fill="#f6465d" /><line x1="834.13" y1="245.13" x2="834.13" y2="302.49" stroke="#f6465d" stroke-width="1.4" /><rect x="831.13" y="250.77" width="6" height="37.61" rx="1.5" fill="#f6465d" /><line x1="844.86" y1="284.62" x2="844.86" y2="366.43" stroke="#f6465d" stroke-width="1.4" /><rect x="841.86" y="287.44" width="6" height="39.49" rx="1.5" fill="#f6465d" /><line x1="855.59" y1="316.59" x2="855.59" y2="357.03" stroke="#f6465d" stroke-width="1.4" /><rect x="852.59" y="326.94" width="6" height="19.75" rx="1.5" fill="#f6465d" /><line x1="866.33" y1="319.41" x2="866.33" y2="354.21" stroke="#0ecb81" stroke-width="1.4" /><rect x="863.33" y="331.64" width="6" height="15.99" rx="1.5" fill="#0ecb81" /><line x1="877.06" y1="312.83" x2="877.06" y2="340.10" stroke="#0ecb81" stroke-width="1.4" /><rect x="874.06" y="322.23" width="6" height="9.40" rx="1.5" fill="#0ecb81" /><line x1="887.80" y1="294.96" x2="887.80" y2="333.52" stroke="#f6465d" stroke-width="1.4" /><rect x="884.80" y="323.17" width="6" height="8.46" rx="1.5" fill="#f6465d" /><line x1="898.53" y1="313.77" x2="898.53" y2="337.28" stroke="#0ecb81" stroke-width="1.4" /><rect x="895.53" y="321.29" width="6" height="9.40" rx="1.5" fill="#0ecb81" /><line x1="909.27" y1="321.29" x2="909.27" y2="381.47" stroke="#f6465d" stroke-width="1.4" /><rect x="906.27" y="321.29" width="6" height="32.91" rx="1.5" fill="#f6465d" /><line x1="920.00" y1="353.26" x2="920.00" y2="358.91" stroke="#f6465d" stroke-width="1.4" /><rect x="917.00" y="353.26" width="6" height="5.64" rx="1.5" fill="#f6465d" />
  <polyline points="275.95,279.92 286.68,362.67 394.03,139.81 404.76,279.92 447.70,108.78" fill="none" stroke="#2fc273" stroke-width="4" stroke-linecap="round" stroke-linejoin="round" />
  <circle cx="275.95" cy="279.92" r="5.5" fill="#2fc273" fill-opacity="0.15" stroke="#2fc273" stroke-width="2" /><text x="275.95" y="267.92" fill="#f3f4f6" font-size="15" font-weight="700" text-anchor="middle">X</text><circle cx="286.68" cy="362.67" r="5.5" fill="#2fc273" fill-opacity="0.15" stroke="#2fc273" stroke-width="2" /><text x="286.68" y="350.67" fill="#f3f4f6" font-size="15" font-weight="700" text-anchor="middle">A</text><circle cx="394.03" cy="139.81" r="5.5" fill="#2fc273" fill-opacity="0.15" stroke="#2fc273" stroke-width="2" /><text x="394.03" y="127.81" fill="#f3f4f6" font-size="15" font-weight="700" text-anchor="middle">B</text><circle cx="404.76" cy="279.92" r="5.5" fill="#2fc273" fill-opacity="0.15" stroke="#2fc273" stroke-width="2" /><text x="404.76" y="267.92" fill="#f3f4f6" font-size="15" font-weight="700" text-anchor="middle">C</text><circle cx="447.70" cy="108.78" r="5.5" fill="#2fc273" fill-opacity="0.15" stroke="#2fc273" stroke-width="2" /><text x="447.70" y="96.78" fill="#f3f4f6" font-size="15" font-weight="700" text-anchor="middle">D</text>
  <text x="56" y="492" fill="#8ba0b5" font-size="18">일반 완성 · TP1 0.091865 · TP2 0.091435 · SL 0.092674</text>
</svg>
