<svg xmlns="http://www.w3.org/2000/svg" width="960" height="540" viewBox="0 0 960 540">
  <rect width="960" height="540" rx="24" fill="#0b1220" />
  <rect x="28" y="28" width="904" height="484" rx="22" fill="#111827" stroke="#1f2937" />
  <text x="56" y="74" fill="#f3f4f6" font-size="34" font-weight="700">DRIFTUSDT · AB=CD</text>
  <text x="904" y="74" fill="#8ba0b5" font-size="20" text-anchor="end">Bullish (매수) · Score 84.0</text>
  <line x1="72" y1="58" x2="920" y2="58" stroke="#223045" stroke-width="1" stroke-dasharray="4 8" /><line x1="72" y1="156" x2="920" y2="156" stroke="#223045" stroke-width="1" stroke-dasharray="4 8" /><line x1="72" y1="255" x2="920" y2="255" stroke="#223045" stroke-width="1" stroke-dasharray="4 8" /><line x1="72" y1="353" x2="920" y2="353" stroke="#223045" stroke-width="1" stroke-dasharray="4 8" /><line x1="72" y1="452" x2="920" y2="452" stroke="#223045" stroke-width="1" stroke-dasharray="4 8" />
  <rect x="505.57" y="429.15" width="84" height="21.44" fill="#fbbf24" fill-opacity="0.12" stroke="#fbbf24" stroke-width="1.5" stroke-dasharray="6 6" />
  <line x1="72.00" y1="172.02" x2="72.00" y2="221.85" stroke="#f6465d" stroke-width="1.4" /><rect x="69.00" y="173.66" width="6" height="40.43" rx="1.5" fill="#f6465d" /><line x1="82.73" y1="198.34" x2="82.73" y2="233.14" stroke="#f6465d" stroke-width="1.4" /><rect x="79.73" y="213.63" width="6" height="14.34" rx="1.5" fill="#f6465d" /><line x1="93.47" y1="214.10" x2="93.47" y2="258.29" stroke="#f6465d" stroke-width="1.4" /><rect x="90.47" y="227.73" width="6" height="23.74" rx="1.5" fill="#f6465d" /><line x1="104.20" y1="235.49" x2="104.20" y2="294.02" stroke="#f6465d" stroke-width="1.4" /><rect x="101.20" y="251.24" width="6" height="34.56" rx="1.5" fill="#f6465d" /><line x1="114.94" y1="268.63" x2="114.94" y2="307.19" stroke="#0ecb81" stroke-width="1.4" /><rect x="111.94" y="281.80" width="6" height="4.00" rx="1.5" fill="#0ecb81" /><line x1="125.67" y1="237.84" x2="125.67" y2="302.96" stroke="#0ecb81" stroke-width="1.4" /><rect x="122.67" y="268.63" width="6" height="13.40" rx="1.5" fill="#0ecb81" /><line x1="136.41" y1="267.46" x2="136.41" y2="314.01" stroke="#f6465d" stroke-width="1.4" /><rect x="133.41" y="268.16" width="6" height="31.03" rx="1.5" fill="#f6465d" /><line x1="147.14" y1="289.56" x2="147.14" y2="365.25" stroke="#f6465d" stroke-width="1.4" /><rect x="144.14" y="299.20" width="6" height="65.82" rx="1.5" fill="#f6465d" /><line x1="157.87" y1="314.48" x2="157.87" y2="393.23" stroke="#0ecb81" stroke-width="1.4" /><rect x="154.87" y="328.11" width="6" height="36.20" rx="1.5" fill="#0ecb81" /><line x1="168.61" y1="309.07" x2="168.61" y2="339.87" stroke="#0ecb81" stroke-width="1.4" /><rect x="165.61" y="321.29" width="6" height="5.88" rx="1.5" fill="#0ecb81" /><line x1="179.34" y1="289.79" x2="179.34" y2="329.29" stroke="#0ecb81" stroke-width="1.4" /><rect x="176.34" y="301.55" width="6" height="19.75" rx="1.5" fill="#0ecb81" /><line x1="190.08" y1="273.10" x2="190.08" y2="306.48" stroke="#0ecb81" stroke-width="1.4" /><rect x="187.08" y="280.62" width="6" height="20.45" rx="1.5" fill="#0ecb81" /><line x1="200.81" y1="278.04" x2="200.81" y2="304.37" stroke="#f6465d" stroke-width="1.4" /><rect x="197.81" y="280.39" width="6" height="16.22" rx="1.5" fill="#f6465d" /><line x1="211.54" y1="267.22" x2="211.54" y2="302.72" stroke="#0ecb81" stroke-width="1.4" /><rect x="208.54" y="275.92" width="6" height="19.98" rx="1.5" fill="#0ecb81" /><line x1="222.28" y1="262.99" x2="222.28" y2="284.62" stroke="#0ecb81" stroke-width="1.4" /><rect x="219.28" y="270.05" width="6" height="5.41" rx="1.5" fill="#0ecb81" /><line x1="233.01" y1="242.31" x2="233.01" y2="276.16" stroke="#0ecb81" stroke-width="1.4" /><rect x="230.01" y="252.88" width="6" height="16.69" rx="1.5" fill="#0ecb81" /><line x1="243.75" y1="251.71" x2="243.75" y2="281.33" stroke="#f6465d" stroke-width="1.4" /><rect x="240.75" y="252.18" width="6" height="11.28" rx="1.5" fill="#f6465d" /><line x1="254.48" y1="251.00" x2="254.48" y2="282.74" stroke="#f6465d" stroke-width="1.4" /><rect x="251.48" y="263.93" width="6" height="4.94" rx="1.5" fill="#f6465d" /><line x1="265.22" y1="264.64" x2="265.22" y2="284.86" stroke="#f6465d" stroke-width="1.4" /><rect x="262.22" y="268.63" width="6" height="8.46" rx="1.5" fill="#f6465d" /><line x1="275.95" y1="259.94" x2="275.95" y2="285.80" stroke="#0ecb81" stroke-width="1.4" /><rect x="272.95" y="267.69" width="6" height="9.87" rx="1.5" fill="#0ecb81" /><line x1="286.68" y1="224.91" x2="286.68" y2="270.75" stroke="#0ecb81" stroke-width="1.4" /><rect x="283.68" y="244.19" width="6" height="22.80" rx="1.5" fill="#0ecb81" /><line x1="297.42" y1="201.64" x2="297.42" y2="254.06" stroke="#0ecb81" stroke-width="1.4" /><rect x="294.42" y="218.56" width="6" height="25.62" rx="1.5" fill="#0ecb81" /><line x1="308.15" y1="213.39" x2="308.15" y2="296.37" stroke="#f6465d" stroke-width="1.4" /><rect x="305.15" y="217.39" width="6" height="20.69" rx="1.5" fill="#f6465d" /><line x1="318.89" y1="232.90" x2="318.89" y2="269.81" stroke="#f6465d" stroke-width="1.4" /><rect x="315.89" y="237.60" width="6" height="26.56" rx="1.5" fill="#f6465d" /><line x1="329.62" y1="250.30" x2="329.62" y2="279.21" stroke="#f6465d" stroke-width="1.4" /><rect x="326.62" y="263.93" width="6" height="11.52" rx="1.5" fill="#f6465d" /><line x1="340.35" y1="260.17" x2="340.35" y2="289.09" stroke="#0ecb81" stroke-width="1.4" /><rect x="337.35" y="272.40" width="6" height="2.82" rx="1.5" fill="#0ecb81" /><line x1="351.09" y1="254.29" x2="351.09" y2="285.33" stroke="#f6465d" stroke-width="1.4" /><rect x="348.09" y="271.93" width="6" height="7.29" rx="1.5" fill="#f6465d" /><line x1="361.82" y1="275.92" x2="361.82" y2="314.24" stroke="#f6465d" stroke-width="1.4" /><rect x="358.82" y="278.74" width="6" height="19.51" rx="1.5" fill="#f6465d" /><line x1="372.56" y1="295.90" x2="372.56" y2="354.91" stroke="#f6465d" stroke-width="1.4" /><rect x="369.56" y="297.55" width="6" height="47.25" rx="1.5" fill="#f6465d" /><line x1="383.29" y1="309.77" x2="383.29" y2="359.85" stroke="#f6465d" stroke-width="1.4" /><rect x="380.29" y="344.10" width="6" height="12.93" rx="1.5" fill="#f6465d" /><line x1="394.03" y1="348.56" x2="394.03" y2="363.61" stroke="#0ecb81" stroke-width="1.4" /><rect x="391.03" y="352.56" width="6" height="4.00" rx="1.5" fill="#0ecb81" /><line x1="404.76" y1="317.53" x2="404.76" y2="359.61" stroke="#0ecb81" stroke-width="1.4" /><rect x="401.76" y="320.35" width="6" height="31.97" rx="1.5" fill="#0ecb81" /><line x1="415.49" y1="288.62" x2="415.49" y2="330.23" stroke="#0ecb81" stroke-width="1.4" /><rect x="412.49" y="318.47" width="6" height="2.00" rx="1.5" fill="#0ecb81" /><line x1="426.23" y1="311.18" x2="426.23" y2="337.04" stroke="#f6465d" stroke-width="1.4" /><rect x="423.23" y="318.47" width="6" height="16.46" rx="1.5" fill="#f6465d" /><line x1="436.96" y1="326.70" x2="436.96" y2="355.38" stroke="#f6465d" stroke-width="1.4" /><rect x="433.96" y="334.69" width="6" height="14.34" rx="1.5" fill="#f6465d" /><line x1="447.70" y1="335.16" x2="447.70" y2="363.84" stroke="#f6465d" stroke-width="1.4" /><rect x="444.70" y="348.80" width="6" height="13.16" rx="1.5" fill="#f6465d" /><line x1="458.43" y1="345.98" x2="458.43" y2="366.66" stroke="#0ecb81" stroke-width="1.4" /><rect x="455.43" y="350.21" width="6" height="11.75" rx="1.5" fill="#0ecb81" /><line x1="469.16" y1="345.74" x2="469.16" y2="361.02" stroke="#0ecb81" stroke-width="1.4" /><rect x="466.16" y="345.74" width="6" height="4.47" rx="1.5" fill="#0ecb81" /><line x1="479.90" y1="344.33" x2="479.90" y2="358.67" stroke="#f6465d" stroke-width="1.4" /><rect x="476.90" y="345.51" width="6" height="3.76" rx="1.5" fill="#f6465d" /><line x1="490.63" y1="349.03" x2="490.63" y2="372.54" stroke="#f6465d" stroke-width="1.4" /><rect x="487.63" y="349.03" width="6" height="18.34" rx="1.5" fill="#f6465d" /><line x1="501.37" y1="364.55" x2="501.37" y2="377.24" stroke="#f6465d" stroke-width="1.4" /><rect x="498.37" y="367.37" width="6" height="2.00" rx="1.5" fill="#f6465d" /><line x1="512.10" y1="363.37" x2="512.10" y2="413.21" stroke="#f6465d" stroke-width="1.4" /><rect x="509.10" y="368.08" width="6" height="36.67" rx="1.5" fill="#f6465d" /><line x1="522.84" y1="398.40" x2="522.84" y2="445.18" stroke="#f6465d" stroke-width="1.4" /><rect x="519.84" y="404.51" width="6" height="25.62" rx="1.5" fill="#f6465d" /><line x1="533.57" y1="407.57" x2="533.57" y2="452.00" stroke="#f6465d" stroke-width="1.4" /><rect x="530.57" y="429.90" width="6" height="14.34" rx="1.5" fill="#f6465d" /><line x1="544.30" y1="420.97" x2="544.30" y2="448.24" stroke="#0ecb81" stroke-width="1.4" /><rect x="541.30" y="425.44" width="6" height="18.57" rx="1.5" fill="#0ecb81" /><line x1="555.04" y1="420.26" x2="555.04" y2="436.01" stroke="#f6465d" stroke-width="1.4" /><rect x="552.04" y="425.44" width="6" height="6.35" rx="1.5" fill="#f6465d" /><line x1="565.77" y1="378.18" x2="565.77" y2="435.54" stroke="#0ecb81" stroke-width="1.4" /><rect x="562.77" y="380.77" width="6" height="51.48" rx="1.5" fill="#0ecb81" /><line x1="576.51" y1="353.74" x2="576.51" y2="402.63" stroke="#0ecb81" stroke-width="1.4" /><rect x="573.51" y="371.37" width="6" height="9.40" rx="1.5" fill="#0ecb81" /><line x1="587.24" y1="264.87" x2="587.24" y2="384.53" stroke="#0ecb81" stroke-width="1.4" /><rect x="584.24" y="310.01" width="6" height="60.65" rx="1.5" fill="#0ecb81" /><line x1="597.97" y1="214.10" x2="597.97" y2="337.51" stroke="#0ecb81" stroke-width="1.4" /><rect x="594.97" y="225.61" width="6" height="84.63" rx="1.5" fill="#0ecb81" /><line x1="608.71" y1="156.97" x2="608.71" y2="251.24" stroke="#0ecb81" stroke-width="1.4" /><rect x="605.71" y="190.12" width="6" height="35.50" rx="1.5" fill="#0ecb81" /><line x1="619.44" y1="148.74" x2="619.44" y2="281.33" stroke="#0ecb81" stroke-width="1.4" /><rect x="616.44" y="169.19" width="6" height="19.28" rx="1.5" fill="#0ecb81" /><line x1="630.18" y1="148.98" x2="630.18" y2="201.40" stroke="#f6465d" stroke-width="1.4" /><rect x="627.18" y="168.49" width="6" height="12.22" rx="1.5" fill="#f6465d" /><line x1="640.91" y1="133.70" x2="640.91" y2="224.67" stroke="#0ecb81" stroke-width="1.4" /><rect x="637.91" y="155.09" width="6" height="24.68" rx="1.5" fill="#0ecb81" /><line x1="651.65" y1="58.00" x2="651.65" y2="188.00" stroke="#0ecb81" stroke-width="1.4" /><rect x="648.65" y="118.65" width="6" height="36.44" rx="1.5" fill="#0ecb81" /><line x1="662.38" y1="74.46" x2="662.38" y2="213.86" stroke="#f6465d" stroke-width="1.4" /><rect x="659.38" y="118.65" width="6" height="52.42" rx="1.5" fill="#f6465d" /><line x1="673.11" y1="157.44" x2="673.11" y2="260.64" stroke="#f6465d" stroke-width="1.4" /><rect x="670.11" y="171.08" width="6" height="2.00" rx="1.5" fill="#f6465d" /><line x1="683.85" y1="148.98" x2="683.85" y2="183.53" stroke="#0ecb81" stroke-width="1.4" /><rect x="680.85" y="151.80" width="6" height="20.92" rx="1.5" fill="#0ecb81" /><line x1="694.58" y1="124.53" x2="694.58" y2="171.31" stroke="#0ecb81" stroke-width="1.4" /><rect x="691.58" y="134.17" width="6" height="17.16" rx="1.5" fill="#0ecb81" /><line x1="705.32" y1="126.64" x2="705.32" y2="160.03" stroke="#f6465d" stroke-width="1.4" /><rect x="702.32" y="133.23" width="6" height="3.53" rx="1.5" fill="#f6465d" /><line x1="716.05" y1="117.01" x2="716.05" y2="150.62" stroke="#0ecb81" stroke-width="1.4" /><rect x="713.05" y="132.52" width="6" height="4.00" rx="1.5" fill="#0ecb81" /><line x1="726.78" y1="108.78" x2="726.78" y2="161.20" stroke="#f6465d" stroke-width="1.4" /><rect x="723.78" y="132.52" width="6" height="2.00" rx="1.5" fill="#f6465d" /><line x1="737.52" y1="129.00" x2="737.52" y2="286.03" stroke="#f6465d" stroke-width="1.4" /><rect x="734.52" y="133.23" width="6" height="135.17" rx="1.5" fill="#f6465d" /><line x1="748.25" y1="164.26" x2="748.25" y2="282.74" stroke="#0ecb81" stroke-width="1.4" /><rect x="745.25" y="177.42" width="6" height="90.74" rx="1.5" fill="#0ecb81" /><line x1="758.99" y1="147.80" x2="758.99" y2="231.02" stroke="#0ecb81" stroke-width="1.4" /><rect x="755.99" y="167.08" width="6" height="10.11" rx="1.5" fill="#0ecb81" /><line x1="769.72" y1="149.45" x2="769.72" y2="222.09" stroke="#f6465d" stroke-width="1.4" /><rect x="766.72" y="166.84" width="6" height="29.62" rx="1.5" fill="#f6465d" /><line x1="780.46" y1="192.94" x2="780.46" y2="265.34" stroke="#f6465d" stroke-width="1.4" /><rect x="777.46" y="196.23" width="6" height="31.97" rx="1.5" fill="#f6465d" /><line x1="791.19" y1="194.58" x2="791.19" y2="253.35" stroke="#f6465d" stroke-width="1.4" /><rect x="788.19" y="227.50" width="6" height="9.64" rx="1.5" fill="#f6465d" /><line x1="801.92" y1="199.05" x2="801.92" y2="249.36" stroke="#0ecb81" stroke-width="1.4" /><rect x="798.92" y="205.87" width="6" height="31.27" rx="1.5" fill="#0ecb81" /><line x1="812.66" y1="174.84" x2="812.66" y2="224.44" stroke="#0ecb81" stroke-width="1.4" /><rect x="809.66" y="199.05" width="6" height="6.58" rx="1.5" fill="#0ecb81" /><line x1="823.39" y1="183.30" x2="823.39" y2="221.62" stroke="#0ecb81" stroke-width="1.4" /><rect x="820.39" y="188.00" width="6" height="11.75" rx="1.5" fill="#0ecb81" /><line x1="834.13" y1="183.53" x2="834.13" y2="214.57" stroke="#f6465d" stroke-width="1.4" /><rect x="831.13" y="187.53" width="6" height="13.87" rx="1.5" fill="#f6465d" /><line x1="844.86" y1="197.87" x2="844.86" y2="238.07" stroke="#f6465d" stroke-width="1.4" /><rect x="841.86" y="201.40" width="6" height="2.82" rx="1.5" fill="#f6465d" /><line x1="855.59" y1="188.94" x2="855.59" y2="216.68" stroke="#0ecb81" stroke-width="1.4" /><rect x="852.59" y="195.52" width="6" height="8.46" rx="1.5" fill="#0ecb81" /><line x1="866.33" y1="116.30" x2="866.33" y2="215.74" stroke="#0ecb81" stroke-width="1.4" /><rect x="863.33" y="131.82" width="6" height="63.00" rx="1.5" fill="#0ecb81" /><line x1="877.06" y1="120.30" x2="877.06" y2="166.14" stroke="#0ecb81" stroke-width="1.4" /><rect x="874.06" y="129.47" width="6" height="2.35" rx="1.5" fill="#0ecb81" /><line x1="887.80" y1="128.05" x2="887.80" y2="206.57" stroke="#f6465d" stroke-width="1.4" /><rect x="884.80" y="129.47" width="6" height="71.70" rx="1.5" fill="#f6465d" /><line x1="898.53" y1="168.96" x2="898.53" y2="226.55" stroke="#f6465d" stroke-width="1.4" /><rect x="895.53" y="201.17" width="6" height="19.75" rx="1.5" fill="#f6465d" /><line x1="909.27" y1="209.16" x2="909.27" y2="251.00" stroke="#f6465d" stroke-width="1.4" /><rect x="906.27" y="220.91" width="6" height="27.74" rx="1.5" fill="#f6465d" /><line x1="920.00" y1="230.32" x2="920.00" y2="275.69" stroke="#f6465d" stroke-width="1.4" /><rect x="917.00" y="248.89" width="6" height="23.74" rx="1.5" fill="#f6465d" />
  <polyline points="157.87,393.23 297.42,201.64 394.03,363.61 415.49,288.62 533.57,452.00" fill="none" stroke="#2fc273" stroke-width="4" stroke-linecap="round" stroke-linejoin="round" />
  <circle cx="157.87" cy="393.23" r="5.5" fill="#2fc273" fill-opacity="0.15" stroke="#2fc273" stroke-width="2" /><text x="157.87" y="381.23" fill="#f3f4f6" font-size="15" font-weight="700" text-anchor="middle">X</text><circle cx="297.42" cy="201.64" r="5.5" fill="#2fc273" fill-opacity="0.15" stroke="#2fc273" stroke-width="2" /><text x="297.42" y="189.64" fill="#f3f4f6" font-size="15" font-weight="700" text-anchor="middle">A</text><circle cx="394.03" cy="363.61" r="5.5" fill="#2fc273" fill-opacity="0.15" stroke="#2fc273" stroke-width="2" /><text x="394.03" y="351.61" fill="#f3f4f6" font-size="15" font-weight="700" text-anchor="middle">B</text><circle cx="415.49" cy="288.62" r="5.5" fill="#2fc273" fill-opacity="0.15" stroke="#2fc273" stroke-width="2" /><text x="415.49" y="276.62" fill="#f3f4f6" font-size="15" font-weight="700" text-anchor="middle">C</text><circle cx="533.57" cy="452.00" r="5.5" fill="#2fc273" fill-opacity="0.15" stroke="#2fc273" stroke-width="2" /><text x="533.57" y="440.00" fill="#f3f4f6" font-size="15" font-weight="700" text-anchor="middle">D</text>
  <text x="56" y="492" fill="#8ba0b5" font-size="18">일반 완성 · TP1 0.036105 · TP2 0.037745 · SL 0.032391</text>
</svg>
