<svg xmlns="http://www.w3.org/2000/svg" width="960" height="540" viewBox="0 0 960 540">
  <rect width="960" height="540" rx="24" fill="#0b1220" />
  <rect x="28" y="28" width="904" height="484" rx="22" fill="#111827" stroke="#1f2937" />
  <text x="56" y="74" fill="#f3f4f6" font-size="34" font-weight="700">DRIFTUSDT · AB=CD</text>
  <text x="904" y="74" fill="#8ba0b5" font-size="20" text-anchor="end">Bullish (매수) · Score 81.8</text>
  <line x1="72" y1="58" x2="920" y2="58" stroke="#223045" stroke-width="1" stroke-dasharray="4 8" /><line x1="72" y1="156" x2="920" y2="156" stroke="#223045" stroke-width="1" stroke-dasharray="4 8" /><line x1="72" y1="255" x2="920" y2="255" stroke="#223045" stroke-width="1" stroke-dasharray="4 8" /><line x1="72" y1="353" x2="920" y2="353" stroke="#223045" stroke-width="1" stroke-dasharray="4 8" /><line x1="72" y1="452" x2="920" y2="452" stroke="#223045" stroke-width="1" stroke-dasharray="4 8" />
  <rect x="655.85" y="435.77" width="84" height="15.23" fill="#fbbf24" fill-opacity="0.12" stroke="#fbbf24" stroke-width="1.5" stroke-dasharray="6 6" />
  <line x1="72.00" y1="304.86" x2="72.00" y2="352.62" stroke="#0ecb81" stroke-width="1.4" /><rect x="69.00" y="314.88" width="6" height="28.39" rx="1.5" fill="#0ecb81" /><line x1="82.73" y1="309.20" x2="82.73" y2="392.71" stroke="#f6465d" stroke-width="1.4" /><rect x="79.73" y="315.04" width="6" height="27.06" rx="1.5" fill="#f6465d" /><line x1="93.47" y1="321.22" x2="93.47" y2="358.97" stroke="#0ecb81" stroke-width="1.4" /><rect x="90.47" y="334.08" width="6" height="7.68" rx="1.5" fill="#0ecb81" /><line x1="104.20" y1="313.21" x2="104.20" y2="351.45" stroke="#0ecb81" stroke-width="1.4" /><rect x="101.20" y="322.23" width="6" height="11.36" rx="1.5" fill="#0ecb81" /><line x1="114.94" y1="274.79" x2="114.94" y2="362.31" stroke="#0ecb81" stroke-width="1.4" /><rect x="111.94" y="278.13" width="6" height="44.59" rx="1.5" fill="#0ecb81" /><line x1="125.67" y1="192.28" x2="125.67" y2="292.50" stroke="#0ecb81" stroke-width="1.4" /><rect x="122.67" y="194.46" width="6" height="83.51" rx="1.5" fill="#0ecb81" /><line x1="136.41" y1="58.00" x2="136.41" y2="247.23" stroke="#0ecb81" stroke-width="1.4" /><rect x="133.41" y="110.11" width="6" height="84.18" rx="1.5" fill="#0ecb81" /><line x1="147.14" y1="100.59" x2="147.14" y2="257.42" stroke="#f6465d" stroke-width="1.4" /><rect x="144.14" y="108.77" width="6" height="135.95" rx="1.5" fill="#f6465d" /><line x1="157.87" y1="236.54" x2="157.87" y2="296.67" stroke="#0ecb81" stroke-width="1.4" /><rect x="154.87" y="237.05" width="6" height="7.68" rx="1.5" fill="#0ecb81" /><line x1="168.61" y1="232.54" x2="168.61" y2="260.26" stroke="#f6465d" stroke-width="1.4" /><rect x="165.61" y="237.55" width="6" height="4.84" rx="1.5" fill="#f6465d" /><line x1="179.34" y1="242.06" x2="179.34" y2="269.11" stroke="#f6465d" stroke-width="1.4" /><rect x="176.34" y="242.06" width="6" height="5.18" rx="1.5" fill="#f6465d" /><line x1="190.08" y1="231.37" x2="190.08" y2="272.95" stroke="#f6465d" stroke-width="1.4" /><rect x="187.08" y="247.23" width="6" height="21.21" rx="1.5" fill="#f6465d" /><line x1="200.81" y1="265.94" x2="200.81" y2="290.32" stroke="#f6465d" stroke-width="1.4" /><rect x="197.81" y="268.11" width="6" height="13.53" rx="1.5" fill="#f6465d" /><line x1="211.54" y1="249.91" x2="211.54" y2="284.81" stroke="#0ecb81" stroke-width="1.4" /><rect x="208.54" y="254.75" width="6" height="27.39" rx="1.5" fill="#0ecb81" /><line x1="222.28" y1="253.08" x2="222.28" y2="288.49" stroke="#f6465d" stroke-width="1.4" /><rect x="219.28" y="254.25" width="6" height="28.73" rx="1.5" fill="#f6465d" /><line x1="233.01" y1="271.79" x2="233.01" y2="296.50" stroke="#f6465d" stroke-width="1.4" /><rect x="230.01" y="282.64" width="6" height="10.19" rx="1.5" fill="#f6465d" /><line x1="243.75" y1="282.98" x2="243.75" y2="314.38" stroke="#f6465d" stroke-width="1.4" /><rect x="240.75" y="292.66" width="6" height="16.87" rx="1.5" fill="#f6465d" /><line x1="254.48" y1="298.17" x2="254.48" y2="339.76" stroke="#f6465d" stroke-width="1.4" /><rect x="251.48" y="309.36" width="6" height="24.55" rx="1.5" fill="#f6465d" /><line x1="265.22" y1="321.72" x2="265.22" y2="349.12" stroke="#0ecb81" stroke-width="1.4" /><rect x="262.22" y="331.08" width="6" height="2.84" rx="1.5" fill="#0ecb81" /><line x1="275.95" y1="299.84" x2="275.95" y2="346.11" stroke="#0ecb81" stroke-width="1.4" /><rect x="272.95" y="321.72" width="6" height="9.52" rx="1.5" fill="#0ecb81" /><line x1="286.68" y1="320.89" x2="286.68" y2="353.96" stroke="#f6465d" stroke-width="1.4" /><rect x="283.68" y="321.39" width="6" height="22.05" rx="1.5" fill="#f6465d" /><line x1="297.42" y1="336.59" x2="297.42" y2="390.37" stroke="#f6465d" stroke-width="1.4" /><rect x="294.42" y="343.44" width="6" height="46.77" rx="1.5" fill="#f6465d" /><line x1="308.15" y1="354.29" x2="308.15" y2="410.25" stroke="#0ecb81" stroke-width="1.4" /><rect x="305.15" y="363.98" width="6" height="25.72" rx="1.5" fill="#0ecb81" /><line x1="318.89" y1="350.45" x2="318.89" y2="372.33" stroke="#0ecb81" stroke-width="1.4" /><rect x="315.89" y="359.14" width="6" height="4.18" rx="1.5" fill="#0ecb81" /><line x1="329.62" y1="336.76" x2="329.62" y2="364.82" stroke="#0ecb81" stroke-width="1.4" /><rect x="326.62" y="345.11" width="6" height="14.03" rx="1.5" fill="#0ecb81" /><line x1="340.35" y1="324.90" x2="340.35" y2="348.61" stroke="#0ecb81" stroke-width="1.4" /><rect x="337.35" y="330.24" width="6" height="14.53" rx="1.5" fill="#0ecb81" /><line x1="351.09" y1="328.41" x2="351.09" y2="347.11" stroke="#f6465d" stroke-width="1.4" /><rect x="348.09" y="330.08" width="6" height="11.52" rx="1.5" fill="#f6465d" /><line x1="361.82" y1="320.72" x2="361.82" y2="345.94" stroke="#0ecb81" stroke-width="1.4" /><rect x="358.82" y="326.90" width="6" height="14.20" rx="1.5" fill="#0ecb81" /><line x1="372.56" y1="317.72" x2="372.56" y2="333.08" stroke="#0ecb81" stroke-width="1.4" /><rect x="369.56" y="322.73" width="6" height="3.84" rx="1.5" fill="#0ecb81" /><line x1="383.29" y1="303.02" x2="383.29" y2="327.07" stroke="#0ecb81" stroke-width="1.4" /><rect x="380.29" y="310.53" width="6" height="11.86" rx="1.5" fill="#0ecb81" /><line x1="394.03" y1="309.70" x2="394.03" y2="330.74" stroke="#f6465d" stroke-width="1.4" /><rect x="391.03" y="310.03" width="6" height="8.02" rx="1.5" fill="#f6465d" /><line x1="404.76" y1="309.20" x2="404.76" y2="331.75" stroke="#f6465d" stroke-width="1.4" /><rect x="401.76" y="318.38" width="6" height="3.51" rx="1.5" fill="#f6465d" /><line x1="415.49" y1="318.89" x2="415.49" y2="333.25" stroke="#f6465d" stroke-width="1.4" /><rect x="412.49" y="321.72" width="6" height="6.01" rx="1.5" fill="#f6465d" /><line x1="426.23" y1="315.54" x2="426.23" y2="333.92" stroke="#0ecb81" stroke-width="1.4" /><rect x="423.23" y="321.06" width="6" height="7.01" rx="1.5" fill="#0ecb81" /><line x1="436.96" y1="290.66" x2="436.96" y2="323.23" stroke="#0ecb81" stroke-width="1.4" /><rect x="433.96" y="304.35" width="6" height="16.20" rx="1.5" fill="#0ecb81" /><line x1="447.70" y1="274.12" x2="447.70" y2="311.37" stroke="#0ecb81" stroke-width="1.4" /><rect x="444.70" y="286.15" width="6" height="18.21" rx="1.5" fill="#0ecb81" /><line x1="458.43" y1="282.47" x2="458.43" y2="341.43" stroke="#f6465d" stroke-width="1.4" /><rect x="455.43" y="285.31" width="6" height="14.70" rx="1.5" fill="#f6465d" /><line x1="469.16" y1="296.34" x2="469.16" y2="322.56" stroke="#f6465d" stroke-width="1.4" /><rect x="466.16" y="299.68" width="6" height="18.87" rx="1.5" fill="#f6465d" /><line x1="479.90" y1="308.70" x2="479.90" y2="329.24" stroke="#f6465d" stroke-width="1.4" /><rect x="476.90" y="318.38" width="6" height="8.18" rx="1.5" fill="#f6465d" /><line x1="490.63" y1="315.71" x2="490.63" y2="336.26" stroke="#0ecb81" stroke-width="1.4" /><rect x="487.63" y="324.40" width="6" height="2.00" rx="1.5" fill="#0ecb81" /><line x1="501.37" y1="311.54" x2="501.37" y2="333.58" stroke="#f6465d" stroke-width="1.4" /><rect x="498.37" y="324.06" width="6" height="5.18" rx="1.5" fill="#f6465d" /><line x1="512.10" y1="326.90" x2="512.10" y2="354.13" stroke="#f6465d" stroke-width="1.4" /><rect x="509.10" y="328.91" width="6" height="13.86" rx="1.5" fill="#f6465d" /><line x1="522.84" y1="341.10" x2="522.84" y2="383.02" stroke="#f6465d" stroke-width="1.4" /><rect x="519.84" y="342.27" width="6" height="33.57" rx="1.5" fill="#f6465d" /><line x1="533.57" y1="350.95" x2="533.57" y2="386.53" stroke="#f6465d" stroke-width="1.4" /><rect x="530.57" y="375.34" width="6" height="9.19" rx="1.5" fill="#f6465d" /><line x1="544.30" y1="378.51" x2="544.30" y2="389.20" stroke="#0ecb81" stroke-width="1.4" /><rect x="541.30" y="381.35" width="6" height="2.84" rx="1.5" fill="#0ecb81" /><line x1="555.04" y1="356.46" x2="555.04" y2="386.36" stroke="#0ecb81" stroke-width="1.4" /><rect x="552.04" y="358.47" width="6" height="22.71" rx="1.5" fill="#0ecb81" /><line x1="565.77" y1="335.92" x2="565.77" y2="365.48" stroke="#0ecb81" stroke-width="1.4" /><rect x="562.77" y="357.13" width="6" height="2.00" rx="1.5" fill="#0ecb81" /><line x1="576.51" y1="351.96" x2="576.51" y2="370.33" stroke="#f6465d" stroke-width="1.4" /><rect x="573.51" y="357.13" width="6" height="11.69" rx="1.5" fill="#f6465d" /><line x1="587.24" y1="362.98" x2="587.24" y2="383.35" stroke="#f6465d" stroke-width="1.4" /><rect x="584.24" y="368.66" width="6" height="10.19" rx="1.5" fill="#f6465d" /><line x1="597.97" y1="368.99" x2="597.97" y2="389.37" stroke="#f6465d" stroke-width="1.4" /><rect x="594.97" y="378.68" width="6" height="9.35" rx="1.5" fill="#f6465d" /><line x1="608.71" y1="376.67" x2="608.71" y2="391.37" stroke="#0ecb81" stroke-width="1.4" /><rect x="605.71" y="379.68" width="6" height="8.35" rx="1.5" fill="#0ecb81" /><line x1="619.44" y1="376.51" x2="619.44" y2="387.36" stroke="#0ecb81" stroke-width="1.4" /><rect x="616.44" y="376.51" width="6" height="3.17" rx="1.5" fill="#0ecb81" /><line x1="630.18" y1="375.50" x2="630.18" y2="385.69" stroke="#f6465d" stroke-width="1.4" /><rect x="627.18" y="376.34" width="6" height="2.67" rx="1.5" fill="#f6465d" /><line x1="640.91" y1="378.85" x2="640.91" y2="395.55" stroke="#f6465d" stroke-width="1.4" /><rect x="637.91" y="378.85" width="6" height="13.03" rx="1.5" fill="#f6465d" /><line x1="651.65" y1="389.87" x2="651.65" y2="398.89" stroke="#f6465d" stroke-width="1.4" /><rect x="648.65" y="391.87" width="6" height="2.00" rx="1.5" fill="#f6465d" /><line x1="662.38" y1="389.03" x2="662.38" y2="424.44" stroke="#f6465d" stroke-width="1.4" /><rect x="659.38" y="392.37" width="6" height="26.06" rx="1.5" fill="#f6465d" /><line x1="673.11" y1="413.92" x2="673.11" y2="447.16" stroke="#f6465d" stroke-width="1.4" /><rect x="670.11" y="418.26" width="6" height="18.21" rx="1.5" fill="#f6465d" /><line x1="683.85" y1="420.43" x2="683.85" y2="452.00" stroke="#f6465d" stroke-width="1.4" /><rect x="680.85" y="436.30" width="6" height="10.19" rx="1.5" fill="#f6465d" /><line x1="694.58" y1="429.95" x2="694.58" y2="449.33" stroke="#0ecb81" stroke-width="1.4" /><rect x="691.58" y="433.13" width="6" height="13.19" rx="1.5" fill="#0ecb81" /><line x1="705.32" y1="429.45" x2="705.32" y2="440.64" stroke="#f6465d" stroke-width="1.4" /><rect x="702.32" y="433.13" width="6" height="4.51" rx="1.5" fill="#f6465d" /><line x1="716.05" y1="399.56" x2="716.05" y2="440.31" stroke="#0ecb81" stroke-width="1.4" /><rect x="713.05" y="401.39" width="6" height="36.58" rx="1.5" fill="#0ecb81" /><line x1="726.78" y1="382.19" x2="726.78" y2="416.93" stroke="#0ecb81" stroke-width="1.4" /><rect x="723.78" y="394.71" width="6" height="6.68" rx="1.5" fill="#0ecb81" /><line x1="737.52" y1="319.05" x2="737.52" y2="404.07" stroke="#0ecb81" stroke-width="1.4" /><rect x="734.52" y="351.12" width="6" height="43.09" rx="1.5" fill="#0ecb81" /><line x1="748.25" y1="282.98" x2="748.25" y2="370.66" stroke="#0ecb81" stroke-width="1.4" /><rect x="745.25" y="291.16" width="6" height="60.13" rx="1.5" fill="#0ecb81" /><line x1="758.99" y1="242.39" x2="758.99" y2="309.36" stroke="#0ecb81" stroke-width="1.4" /><rect x="755.99" y="265.94" width="6" height="25.22" rx="1.5" fill="#0ecb81" /><line x1="769.72" y1="236.54" x2="769.72" y2="330.74" stroke="#0ecb81" stroke-width="1.4" /><rect x="766.72" y="251.08" width="6" height="13.70" rx="1.5" fill="#0ecb81" /><line x1="780.46" y1="236.71" x2="780.46" y2="273.96" stroke="#f6465d" stroke-width="1.4" /><rect x="777.46" y="250.57" width="6" height="8.69" rx="1.5" fill="#f6465d" /><line x1="791.19" y1="225.86" x2="791.19" y2="290.49" stroke="#0ecb81" stroke-width="1.4" /><rect x="788.19" y="241.05" width="6" height="17.54" rx="1.5" fill="#0ecb81" /><line x1="801.92" y1="172.07" x2="801.92" y2="264.44" stroke="#0ecb81" stroke-width="1.4" /><rect x="798.92" y="215.17" width="6" height="25.89" rx="1.5" fill="#0ecb81" /><line x1="812.66" y1="183.77" x2="812.66" y2="282.81" stroke="#f6465d" stroke-width="1.4" /><rect x="809.66" y="215.17" width="6" height="37.25" rx="1.5" fill="#f6465d" /><line x1="823.39" y1="242.72" x2="823.39" y2="316.05" stroke="#f6465d" stroke-width="1.4" /><rect x="820.39" y="252.41" width="6" height="2.00" rx="1.5" fill="#f6465d" /><line x1="834.13" y1="236.71" x2="834.13" y2="261.26" stroke="#0ecb81" stroke-width="1.4" /><rect x="831.13" y="238.72" width="6" height="14.86" rx="1.5" fill="#0ecb81" /><line x1="844.86" y1="219.34" x2="844.86" y2="252.58" stroke="#0ecb81" stroke-width="1.4" /><rect x="841.86" y="226.19" width="6" height="12.19" rx="1.5" fill="#0ecb81" /><line x1="855.59" y1="220.84" x2="855.59" y2="244.56" stroke="#f6465d" stroke-width="1.4" /><rect x="852.59" y="225.52" width="6" height="2.51" rx="1.5" fill="#f6465d" /><line x1="866.33" y1="214.00" x2="866.33" y2="237.88" stroke="#0ecb81" stroke-width="1.4" /><rect x="863.33" y="225.02" width="6" height="2.84" rx="1.5" fill="#0ecb81" /><line x1="877.06" y1="208.15" x2="877.06" y2="245.40" stroke="#f6465d" stroke-width="1.4" /><rect x="874.06" y="225.02" width="6" height="2.00" rx="1.5" fill="#f6465d" /><line x1="887.80" y1="222.51" x2="887.80" y2="334.08" stroke="#f6465d" stroke-width="1.4" /><rect x="884.80" y="225.52" width="6" height="96.04" rx="1.5" fill="#f6465d" /><line x1="898.53" y1="247.57" x2="898.53" y2="331.75" stroke="#0ecb81" stroke-width="1.4" /><rect x="895.53" y="256.92" width="6" height="64.47" rx="1.5" fill="#0ecb81" /><line x1="909.27" y1="235.88" x2="909.27" y2="295.00" stroke="#0ecb81" stroke-width="1.4" /><rect x="906.27" y="249.57" width="6" height="7.18" rx="1.5" fill="#0ecb81" /><line x1="920.00" y1="244.56" x2="920.00" y2="256.09" stroke="#f6465d" stroke-width="1.4" /><rect x="917.00" y="249.40" width="6" height="3.34" rx="1.5" fill="#f6465d" />
  <polyline points="308.15,410.25 447.70,274.12 544.30,389.20 565.77,335.92 683.85,452.00" fill="none" stroke="#2fc273" stroke-width="4" stroke-linecap="round" stroke-linejoin="round" />
  <circle cx="308.15" cy="410.25" r="5.5" fill="#2fc273" fill-opacity="0.15" stroke="#2fc273" stroke-width="2" /><text x="308.15" y="398.25" fill="#f3f4f6" font-size="15" font-weight="700" text-anchor="middle">X</text><circle cx="447.70" cy="274.12" r="5.5" fill="#2fc273" fill-opacity="0.15" stroke="#2fc273" stroke-width="2" /><text x="447.70" y="262.12" fill="#f3f4f6" font-size="15" font-weight="700" text-anchor="middle">A</text><circle cx="544.30" cy="389.20" r="5.5" fill="#2fc273" fill-opacity="0.15" stroke="#2fc273" stroke-width="2" /><text x="544.30" y="377.20" fill="#f3f4f6" font-size="15" font-weight="700" text-anchor="middle">B</text><circle cx="565.77" cy="335.92" r="5.5" fill="#2fc273" fill-opacity="0.15" stroke="#2fc273" stroke-width="2" /><text x="565.77" y="323.92" fill="#f3f4f6" font-size="15" font-weight="700" text-anchor="middle">C</text><circle cx="683.85" cy="452.00" r="5.5" fill="#2fc273" fill-opacity="0.15" stroke="#2fc273" stroke-width="2" /><text x="683.85" y="440.00" fill="#f3f4f6" font-size="15" font-weight="700" text-anchor="middle">D</text>
  <text x="56" y="492" fill="#8ba0b5" font-size="18">일반 완성 · TP1 0.036105 · TP2 0.037745 · SL 0.032391</text>
</svg>
