<svg xmlns="http://www.w3.org/2000/svg" width="960" height="540" viewBox="0 0 960 540">
  <rect width="960" height="540" rx="24" fill="#0b1220" />
  <rect x="28" y="28" width="904" height="484" rx="22" fill="#111827" stroke="#1f2937" />
  <text x="56" y="74" fill="#f3f4f6" font-size="34" font-weight="700">DUSDT · AB=CD</text>
  <text x="904" y="74" fill="#8ba0b5" font-size="20" text-anchor="end">Bullish (매수) · Score 83.0</text>
  <line x1="72" y1="58" x2="920" y2="58" stroke="#223045" stroke-width="1" stroke-dasharray="4 8" /><line x1="72" y1="156" x2="920" y2="156" stroke="#223045" stroke-width="1" stroke-dasharray="4 8" /><line x1="72" y1="255" x2="920" y2="255" stroke="#223045" stroke-width="1" stroke-dasharray="4 8" /><line x1="72" y1="353" x2="920" y2="353" stroke="#223045" stroke-width="1" stroke-dasharray="4 8" /><line x1="72" y1="452" x2="920" y2="452" stroke="#223045" stroke-width="1" stroke-dasharray="4 8" />
  <rect x="634.38" y="359.55" width="84" height="27.29" fill="#fbbf24" fill-opacity="0.12" stroke="#fbbf24" stroke-width="1.5" stroke-dasharray="6 6" />
  <line x1="72.00" y1="329.37" x2="72.00" y2="360.92" stroke="#0ecb81" stroke-width="1.4" /><rect x="69.00" y="343.88" width="6" height="8.16" rx="1.5" fill="#0ecb81" /><line x1="82.73" y1="333.94" x2="82.73" y2="347.90" stroke="#f6465d" stroke-width="1.4" /><rect x="79.73" y="343.90" width="6" height="2.00" rx="1.5" fill="#f6465d" /><line x1="93.47" y1="314.98" x2="93.47" y2="357.83" stroke="#f6465d" stroke-width="1.4" /><rect x="90.47" y="345.11" width="6" height="2.00" rx="1.5" fill="#f6465d" /><line x1="104.20" y1="335.86" x2="104.20" y2="416.76" stroke="#f6465d" stroke-width="1.4" /><rect x="101.20" y="347.07" width="6" height="56.00" rx="1.5" fill="#f6465d" /><line x1="114.94" y1="392.66" x2="114.94" y2="407.62" stroke="#0ecb81" stroke-width="1.4" /><rect x="111.94" y="398.29" width="6" height="4.78" rx="1.5" fill="#0ecb81" /><line x1="125.67" y1="388.26" x2="125.67" y2="403.88" stroke="#0ecb81" stroke-width="1.4" /><rect x="122.67" y="392.12" width="6" height="6.07" rx="1.5" fill="#0ecb81" /><line x1="136.41" y1="381.58" x2="136.41" y2="399.73" stroke="#0ecb81" stroke-width="1.4" /><rect x="133.41" y="388.47" width="6" height="3.61" rx="1.5" fill="#0ecb81" /><line x1="147.14" y1="386.40" x2="147.14" y2="431.45" stroke="#f6465d" stroke-width="1.4" /><rect x="144.14" y="388.34" width="6" height="37.72" rx="1.5" fill="#f6465d" /><line x1="157.87" y1="417.18" x2="157.87" y2="432.12" stroke="#0ecb81" stroke-width="1.4" /><rect x="154.87" y="421.66" width="6" height="4.32" rx="1.5" fill="#0ecb81" /><line x1="168.61" y1="411.33" x2="168.61" y2="424.94" stroke="#f6465d" stroke-width="1.4" /><rect x="165.61" y="421.68" width="6" height="2.52" rx="1.5" fill="#f6465d" /><line x1="179.34" y1="416.01" x2="179.34" y2="425.50" stroke="#0ecb81" stroke-width="1.4" /><rect x="176.34" y="422.04" width="6" height="2.19" rx="1.5" fill="#0ecb81" /><line x1="190.08" y1="420.83" x2="190.08" y2="425.67" stroke="#f6465d" stroke-width="1.4" /><rect x="187.08" y="422.02" width="6" height="2.63" rx="1.5" fill="#f6465d" /><line x1="200.81" y1="422.29" x2="200.81" y2="428.38" stroke="#0ecb81" stroke-width="1.4" /><rect x="197.81" y="423.02" width="6" height="2.00" rx="1.5" fill="#0ecb81" /><line x1="211.54" y1="422.73" x2="211.54" y2="426.13" stroke="#f6465d" stroke-width="1.4" /><rect x="208.54" y="422.98" width="6" height="2.19" rx="1.5" fill="#f6465d" /><line x1="222.28" y1="421.14" x2="222.28" y2="425.27" stroke="#0ecb81" stroke-width="1.4" /><rect x="219.28" y="424.21" width="6" height="2.00" rx="1.5" fill="#0ecb81" /><line x1="233.01" y1="423.64" x2="233.01" y2="427.44" stroke="#f6465d" stroke-width="1.4" /><rect x="230.01" y="424.19" width="6" height="3.07" rx="1.5" fill="#f6465d" /><line x1="243.75" y1="417.95" x2="243.75" y2="428.94" stroke="#0ecb81" stroke-width="1.4" /><rect x="240.75" y="419.30" width="6" height="7.97" rx="1.5" fill="#0ecb81" /><line x1="254.48" y1="416.38" x2="254.48" y2="421.83" stroke="#f6465d" stroke-width="1.4" /><rect x="251.48" y="419.39" width="6" height="2.00" rx="1.5" fill="#f6465d" /><line x1="265.22" y1="419.87" x2="265.22" y2="427.27" stroke="#f6465d" stroke-width="1.4" /><rect x="262.22" y="420.08" width="6" height="6.24" rx="1.5" fill="#f6465d" /><line x1="275.95" y1="425.92" x2="275.95" y2="430.47" stroke="#f6465d" stroke-width="1.4" /><rect x="272.95" y="426.31" width="6" height="2.00" rx="1.5" fill="#f6465d" /><line x1="286.68" y1="424.19" x2="286.68" y2="430.74" stroke="#f6465d" stroke-width="1.4" /><rect x="283.68" y="426.67" width="6" height="2.00" rx="1.5" fill="#f6465d" /><line x1="297.42" y1="428.36" x2="297.42" y2="434.77" stroke="#f6465d" stroke-width="1.4" /><rect x="294.42" y="428.40" width="6" height="5.47" rx="1.5" fill="#f6465d" /><line x1="308.15" y1="433.39" x2="308.15" y2="440.94" stroke="#f6465d" stroke-width="1.4" /><rect x="305.15" y="433.87" width="6" height="2.04" rx="1.5" fill="#f6465d" /><line x1="318.89" y1="434.03" x2="318.89" y2="437.39" stroke="#0ecb81" stroke-width="1.4" /><rect x="315.89" y="434.93" width="6" height="2.00" rx="1.5" fill="#0ecb81" /><line x1="329.62" y1="432.99" x2="329.62" y2="437.64" stroke="#f6465d" stroke-width="1.4" /><rect x="326.62" y="434.91" width="6" height="2.42" rx="1.5" fill="#f6465d" /><line x1="340.35" y1="436.87" x2="340.35" y2="443.67" stroke="#f6465d" stroke-width="1.4" /><rect x="337.35" y="437.33" width="6" height="3.92" rx="1.5" fill="#f6465d" /><line x1="351.09" y1="440.44" x2="351.09" y2="446.70" stroke="#f6465d" stroke-width="1.4" /><rect x="348.09" y="441.25" width="6" height="2.34" rx="1.5" fill="#f6465d" /><line x1="361.82" y1="442.92" x2="361.82" y2="447.83" stroke="#f6465d" stroke-width="1.4" /><rect x="358.82" y="443.55" width="6" height="2.15" rx="1.5" fill="#f6465d" /><line x1="372.56" y1="445.47" x2="372.56" y2="450.10" stroke="#f6465d" stroke-width="1.4" /><rect x="369.56" y="445.64" width="6" height="3.63" rx="1.5" fill="#f6465d" /><line x1="383.29" y1="438.75" x2="383.29" y2="450.44" stroke="#0ecb81" stroke-width="1.4" /><rect x="380.29" y="447.39" width="6" height="2.00" rx="1.5" fill="#0ecb81" /><line x1="394.03" y1="445.30" x2="394.03" y2="448.93" stroke="#f6465d" stroke-width="1.4" /><rect x="391.03" y="447.28" width="6" height="2.00" rx="1.5" fill="#f6465d" /><line x1="404.76" y1="446.62" x2="404.76" y2="452.00" stroke="#f6465d" stroke-width="1.4" /><rect x="401.76" y="447.95" width="6" height="2.44" rx="1.5" fill="#f6465d" /><line x1="415.49" y1="336.61" x2="415.49" y2="450.56" stroke="#0ecb81" stroke-width="1.4" /><rect x="412.49" y="355.33" width="6" height="95.04" rx="1.5" fill="#0ecb81" /><line x1="426.23" y1="334.40" x2="426.23" y2="381.20" stroke="#f6465d" stroke-width="1.4" /><rect x="423.23" y="355.29" width="6" height="2.34" rx="1.5" fill="#f6465d" /><line x1="436.96" y1="323.99" x2="436.96" y2="375.11" stroke="#f6465d" stroke-width="1.4" /><rect x="433.96" y="357.42" width="6" height="2.30" rx="1.5" fill="#f6465d" /><line x1="447.70" y1="349.34" x2="447.70" y2="367.16" stroke="#0ecb81" stroke-width="1.4" /><rect x="444.70" y="358.42" width="6" height="2.00" rx="1.5" fill="#0ecb81" /><line x1="458.43" y1="333.38" x2="458.43" y2="361.21" stroke="#0ecb81" stroke-width="1.4" /><rect x="455.43" y="351.43" width="6" height="6.95" rx="1.5" fill="#0ecb81" /><line x1="469.16" y1="327.33" x2="469.16" y2="362.38" stroke="#0ecb81" stroke-width="1.4" /><rect x="466.16" y="349.30" width="6" height="2.13" rx="1.5" fill="#0ecb81" /><line x1="479.90" y1="343.83" x2="479.90" y2="364.45" stroke="#f6465d" stroke-width="1.4" /><rect x="476.90" y="349.26" width="6" height="3.90" rx="1.5" fill="#f6465d" /><line x1="490.63" y1="329.21" x2="490.63" y2="358.11" stroke="#0ecb81" stroke-width="1.4" /><rect x="487.63" y="343.00" width="6" height="10.27" rx="1.5" fill="#0ecb81" /><line x1="501.37" y1="333.46" x2="501.37" y2="350.11" stroke="#0ecb81" stroke-width="1.4" /><rect x="498.37" y="342.27" width="6" height="2.00" rx="1.5" fill="#0ecb81" /><line x1="512.10" y1="338.95" x2="512.10" y2="352.35" stroke="#f6465d" stroke-width="1.4" /><rect x="509.10" y="342.23" width="6" height="5.07" rx="1.5" fill="#f6465d" /><line x1="522.84" y1="334.01" x2="522.84" y2="358.17" stroke="#0ecb81" stroke-width="1.4" /><rect x="519.84" y="335.80" width="6" height="11.50" rx="1.5" fill="#0ecb81" /><line x1="533.57" y1="333.61" x2="533.57" y2="346.44" stroke="#f6465d" stroke-width="1.4" /><rect x="530.57" y="335.80" width="6" height="3.21" rx="1.5" fill="#f6465d" /><line x1="544.30" y1="325.66" x2="544.30" y2="355.29" stroke="#f6465d" stroke-width="1.4" /><rect x="541.30" y="339.01" width="6" height="2.00" rx="1.5" fill="#f6465d" /><line x1="555.04" y1="333.63" x2="555.04" y2="344.40" stroke="#0ecb81" stroke-width="1.4" /><rect x="552.04" y="337.60" width="6" height="2.00" rx="1.5" fill="#0ecb81" /><line x1="565.77" y1="325.37" x2="565.77" y2="357.73" stroke="#f6465d" stroke-width="1.4" /><rect x="562.77" y="337.55" width="6" height="17.99" rx="1.5" fill="#f6465d" /><line x1="576.51" y1="347.67" x2="576.51" y2="379.28" stroke="#f6465d" stroke-width="1.4" /><rect x="573.51" y="355.60" width="6" height="9.39" rx="1.5" fill="#f6465d" /><line x1="587.24" y1="344.44" x2="587.24" y2="367.14" stroke="#0ecb81" stroke-width="1.4" /><rect x="584.24" y="351.89" width="6" height="13.10" rx="1.5" fill="#0ecb81" /><line x1="597.97" y1="348.72" x2="597.97" y2="368.06" stroke="#f6465d" stroke-width="1.4" /><rect x="594.97" y="351.85" width="6" height="14.48" rx="1.5" fill="#f6465d" /><line x1="608.71" y1="365.58" x2="608.71" y2="374.63" stroke="#f6465d" stroke-width="1.4" /><rect x="605.71" y="366.37" width="6" height="2.17" rx="1.5" fill="#f6465d" /><line x1="619.44" y1="363.41" x2="619.44" y2="378.60" stroke="#f6465d" stroke-width="1.4" /><rect x="616.44" y="368.77" width="6" height="7.47" rx="1.5" fill="#f6465d" /><line x1="630.18" y1="374.17" x2="630.18" y2="392.81" stroke="#f6465d" stroke-width="1.4" /><rect x="627.18" y="376.20" width="6" height="8.30" rx="1.5" fill="#f6465d" /><line x1="640.91" y1="379.24" x2="640.91" y2="387.82" stroke="#0ecb81" stroke-width="1.4" /><rect x="637.91" y="381.58" width="6" height="2.96" rx="1.5" fill="#0ecb81" /><line x1="651.65" y1="381.37" x2="651.65" y2="392.74" stroke="#f6465d" stroke-width="1.4" /><rect x="648.65" y="381.60" width="6" height="7.26" rx="1.5" fill="#f6465d" /><line x1="662.38" y1="377.22" x2="662.38" y2="396.60" stroke="#0ecb81" stroke-width="1.4" /><rect x="659.38" y="386.17" width="6" height="2.75" rx="1.5" fill="#0ecb81" /><line x1="673.11" y1="382.16" x2="673.11" y2="391.09" stroke="#f6465d" stroke-width="1.4" /><rect x="670.11" y="386.23" width="6" height="2.00" rx="1.5" fill="#f6465d" /><line x1="683.85" y1="281.24" x2="683.85" y2="388.05" stroke="#0ecb81" stroke-width="1.4" /><rect x="680.85" y="284.20" width="6" height="103.37" rx="1.5" fill="#0ecb81" /><line x1="694.58" y1="185.70" x2="694.58" y2="287.48" stroke="#0ecb81" stroke-width="1.4" /><rect x="691.58" y="231.72" width="6" height="52.48" rx="1.5" fill="#0ecb81" /><line x1="705.32" y1="189.74" x2="705.32" y2="244.33" stroke="#0ecb81" stroke-width="1.4" /><rect x="702.32" y="227.16" width="6" height="4.26" rx="1.5" fill="#0ecb81" /><line x1="716.05" y1="189.83" x2="716.05" y2="237.46" stroke="#0ecb81" stroke-width="1.4" /><rect x="713.05" y="197.86" width="6" height="29.29" rx="1.5" fill="#0ecb81" /><line x1="726.78" y1="185.65" x2="726.78" y2="216.95" stroke="#f6465d" stroke-width="1.4" /><rect x="723.78" y="197.67" width="6" height="7.43" rx="1.5" fill="#f6465d" /><line x1="737.52" y1="142.88" x2="737.52" y2="212.86" stroke="#0ecb81" stroke-width="1.4" /><rect x="734.52" y="175.64" width="6" height="29.19" rx="1.5" fill="#0ecb81" /><line x1="748.25" y1="75.90" x2="748.25" y2="183.65" stroke="#0ecb81" stroke-width="1.4" /><rect x="745.25" y="119.14" width="6" height="56.50" rx="1.5" fill="#0ecb81" /><line x1="758.99" y1="58.00" x2="758.99" y2="174.32" stroke="#f6465d" stroke-width="1.4" /><rect x="755.99" y="118.99" width="6" height="16.17" rx="1.5" fill="#f6465d" /><line x1="769.72" y1="109.35" x2="769.72" y2="168.09" stroke="#f6465d" stroke-width="1.4" /><rect x="766.72" y="135.24" width="6" height="21.07" rx="1.5" fill="#f6465d" /><line x1="780.46" y1="103.32" x2="780.46" y2="175.08" stroke="#0ecb81" stroke-width="1.4" /><rect x="777.46" y="131.15" width="6" height="25.10" rx="1.5" fill="#0ecb81" /><line x1="791.19" y1="109.83" x2="791.19" y2="163.60" stroke="#f6465d" stroke-width="1.4" /><rect x="788.19" y="131.15" width="6" height="19.32" rx="1.5" fill="#f6465d" /><line x1="801.92" y1="122.64" x2="801.92" y2="153.79" stroke="#f6465d" stroke-width="1.4" /><rect x="798.92" y="150.54" width="6" height="2.00" rx="1.5" fill="#f6465d" /><line x1="812.66" y1="104.99" x2="812.66" y2="202.97" stroke="#0ecb81" stroke-width="1.4" /><rect x="809.66" y="138.12" width="6" height="13.98" rx="1.5" fill="#0ecb81" /><line x1="823.39" y1="114.94" x2="823.39" y2="147.16" stroke="#0ecb81" stroke-width="1.4" /><rect x="820.39" y="129.44" width="6" height="8.45" rx="1.5" fill="#0ecb81" /><line x1="834.13" y1="126.48" x2="834.13" y2="153.86" stroke="#f6465d" stroke-width="1.4" /><rect x="831.13" y="129.11" width="6" height="17.61" rx="1.5" fill="#f6465d" /><line x1="844.86" y1="121.26" x2="844.86" y2="147.30" stroke="#0ecb81" stroke-width="1.4" /><rect x="841.86" y="140.92" width="6" height="6.01" rx="1.5" fill="#0ecb81" /><line x1="855.59" y1="139.94" x2="855.59" y2="189.41" stroke="#f6465d" stroke-width="1.4" /><rect x="852.59" y="140.75" width="6" height="36.41" rx="1.5" fill="#f6465d" /><line x1="866.33" y1="168.82" x2="866.33" y2="220.23" stroke="#f6465d" stroke-width="1.4" /><rect x="863.33" y="177.10" width="6" height="19.86" rx="1.5" fill="#f6465d" /><line x1="877.06" y1="170.63" x2="877.06" y2="208.17" stroke="#f6465d" stroke-width="1.4" /><rect x="874.06" y="196.98" width="6" height="4.44" rx="1.5" fill="#f6465d" /><line x1="887.80" y1="157.44" x2="887.80" y2="208.69" stroke="#0ecb81" stroke-width="1.4" /><rect x="884.80" y="184.99" width="6" height="16.36" rx="1.5" fill="#0ecb81" /><line x1="898.53" y1="179.37" x2="898.53" y2="210.98" stroke="#f6465d" stroke-width="1.4" /><rect x="895.53" y="184.99" width="6" height="13.96" rx="1.5" fill="#f6465d" /><line x1="909.27" y1="198.42" x2="909.27" y2="312.04" stroke="#f6465d" stroke-width="1.4" /><rect x="906.27" y="198.90" width="6" height="98.71" rx="1.5" fill="#f6465d" /><line x1="920.00" y1="295.99" x2="920.00" y2="299.33" stroke="#f6465d" stroke-width="1.4" /><rect x="917.00" y="297.60" width="6" height="2.00" rx="1.5" fill="#f6465d" />
  <polyline points="404.76,452.00 436.96,323.99 522.84,358.17 565.77,325.37 662.38,396.60" fill="none" stroke="#2fc273" stroke-width="4" stroke-linecap="round" stroke-linejoin="round" />
  <circle cx="404.76" cy="452.00" r="5.5" fill="#2fc273" fill-opacity="0.15" stroke="#2fc273" stroke-width="2" /><text x="404.76" y="440.00" fill="#f3f4f6" font-size="15" font-weight="700" text-anchor="middle">X</text><circle cx="436.96" cy="323.99" r="5.5" fill="#2fc273" fill-opacity="0.15" stroke="#2fc273" stroke-width="2" /><text x="436.96" y="311.99" fill="#f3f4f6" font-size="15" font-weight="700" text-anchor="middle">A</text><circle cx="522.84" cy="358.17" r="5.5" fill="#2fc273" fill-opacity="0.15" stroke="#2fc273" stroke-width="2" /><text x="522.84" y="346.17" fill="#f3f4f6" font-size="15" font-weight="700" text-anchor="middle">B</text><circle cx="565.77" cy="325.37" r="5.5" fill="#2fc273" fill-opacity="0.15" stroke="#2fc273" stroke-width="2" /><text x="565.77" y="313.37" fill="#f3f4f6" font-size="15" font-weight="700" text-anchor="middle">C</text><circle cx="662.38" cy="396.60" r="5.5" fill="#2fc273" fill-opacity="0.15" stroke="#2fc273" stroke-width="2" /><text x="662.38" y="384.60" fill="#f3f4f6" font-size="15" font-weight="700" text-anchor="middle">D</text>
  <text x="56" y="492" fill="#8ba0b5" font-size="18">일반 완성 · TP1 0.010774 · TP2 0.01158 · SL 0.008672</text>
</svg>
