<svg xmlns="http://www.w3.org/2000/svg" width="960" height="540" viewBox="0 0 960 540">
  <rect width="960" height="540" rx="24" fill="#0b1220" />
  <rect x="28" y="28" width="904" height="484" rx="22" fill="#111827" stroke="#1f2937" />
  <text x="56" y="74" fill="#f3f4f6" font-size="34" font-weight="700">ETCUSDT · AB=CD</text>
  <text x="904" y="74" fill="#8ba0b5" font-size="20" text-anchor="end">Bearish (매도) · Score 88.0</text>
  <line x1="72" y1="58" x2="920" y2="58" stroke="#223045" stroke-width="1" stroke-dasharray="4 8" /><line x1="72" y1="156" x2="920" y2="156" stroke="#223045" stroke-width="1" stroke-dasharray="4 8" /><line x1="72" y1="255" x2="920" y2="255" stroke="#223045" stroke-width="1" stroke-dasharray="4 8" /><line x1="72" y1="353" x2="920" y2="353" stroke="#223045" stroke-width="1" stroke-dasharray="4 8" /><line x1="72" y1="452" x2="920" y2="452" stroke="#223045" stroke-width="1" stroke-dasharray="4 8" />
  <rect x="237.22" y="328.57" width="84" height="28.19" fill="#fbbf24" fill-opacity="0.12" stroke="#fbbf24" stroke-width="1.5" stroke-dasharray="6 6" />
  <line x1="72.00" y1="436.18" x2="72.00" y2="452.00" stroke="#0ecb81" stroke-width="1.4" /><rect x="69.00" y="437.56" width="6" height="8.94" rx="1.5" fill="#0ecb81" /><line x1="82.73" y1="421.06" x2="82.73" y2="439.62" stroke="#0ecb81" stroke-width="1.4" /><rect x="79.73" y="421.75" width="6" height="16.16" rx="1.5" fill="#0ecb81" /><line x1="93.47" y1="391.15" x2="93.47" y2="430.34" stroke="#0ecb81" stroke-width="1.4" /><rect x="90.47" y="403.52" width="6" height="17.88" rx="1.5" fill="#0ecb81" /><line x1="104.20" y1="382.90" x2="104.20" y2="413.15" stroke="#0ecb81" stroke-width="1.4" /><rect x="101.20" y="393.55" width="6" height="9.63" rx="1.5" fill="#0ecb81" /><line x1="114.94" y1="392.52" x2="114.94" y2="412.46" stroke="#f6465d" stroke-width="1.4" /><rect x="111.94" y="393.55" width="6" height="9.97" rx="1.5" fill="#f6465d" /><line x1="125.67" y1="395.96" x2="125.67" y2="409.71" stroke="#0ecb81" stroke-width="1.4" /><rect x="122.67" y="399.40" width="6" height="3.78" rx="1.5" fill="#0ecb81" /><line x1="136.41" y1="386.33" x2="136.41" y2="411.77" stroke="#0ecb81" stroke-width="1.4" /><rect x="133.41" y="394.58" width="6" height="5.16" rx="1.5" fill="#0ecb81" /><line x1="147.14" y1="392.18" x2="147.14" y2="412.81" stroke="#f6465d" stroke-width="1.4" /><rect x="144.14" y="394.24" width="6" height="5.84" rx="1.5" fill="#f6465d" /><line x1="157.87" y1="392.52" x2="157.87" y2="403.18" stroke="#0ecb81" stroke-width="1.4" /><rect x="154.87" y="395.96" width="6" height="4.13" rx="1.5" fill="#0ecb81" /><line x1="168.61" y1="369.83" x2="168.61" y2="405.59" stroke="#0ecb81" stroke-width="1.4" /><rect x="165.61" y="395.27" width="6" height="2.00" rx="1.5" fill="#0ecb81" /><line x1="179.34" y1="389.43" x2="179.34" y2="403.87" stroke="#0ecb81" stroke-width="1.4" /><rect x="176.34" y="391.49" width="6" height="3.78" rx="1.5" fill="#0ecb81" /><line x1="190.08" y1="365.02" x2="190.08" y2="396.65" stroke="#0ecb81" stroke-width="1.4" /><rect x="187.08" y="368.11" width="6" height="23.38" rx="1.5" fill="#0ecb81" /><line x1="200.81" y1="361.92" x2="200.81" y2="388.74" stroke="#f6465d" stroke-width="1.4" /><rect x="197.81" y="368.11" width="6" height="17.88" rx="1.5" fill="#f6465d" /><line x1="211.54" y1="364.67" x2="211.54" y2="389.43" stroke="#0ecb81" stroke-width="1.4" /><rect x="208.54" y="366.05" width="6" height="19.94" rx="1.5" fill="#0ecb81" /><line x1="222.28" y1="362.95" x2="222.28" y2="386.68" stroke="#f6465d" stroke-width="1.4" /><rect x="219.28" y="366.05" width="6" height="12.03" rx="1.5" fill="#f6465d" /><line x1="233.01" y1="357.45" x2="233.01" y2="378.77" stroke="#0ecb81" stroke-width="1.4" /><rect x="230.01" y="368.46" width="6" height="9.63" rx="1.5" fill="#0ecb81" /><line x1="243.75" y1="360.55" x2="243.75" y2="382.55" stroke="#0ecb81" stroke-width="1.4" /><rect x="240.75" y="362.61" width="6" height="5.84" rx="1.5" fill="#0ecb81" /><line x1="254.48" y1="345.08" x2="254.48" y2="362.61" stroke="#0ecb81" stroke-width="1.4" /><rect x="251.48" y="354.02" width="6" height="8.60" rx="1.5" fill="#0ecb81" /><line x1="265.22" y1="338.20" x2="265.22" y2="365.36" stroke="#f6465d" stroke-width="1.4" /><rect x="262.22" y="354.02" width="6" height="6.53" rx="1.5" fill="#f6465d" /><line x1="275.95" y1="358.83" x2="275.95" y2="381.52" stroke="#f6465d" stroke-width="1.4" /><rect x="272.95" y="360.89" width="6" height="16.85" rx="1.5" fill="#f6465d" /><line x1="286.68" y1="371.55" x2="286.68" y2="380.83" stroke="#0ecb81" stroke-width="1.4" /><rect x="283.68" y="374.99" width="6" height="2.41" rx="1.5" fill="#0ecb81" /><line x1="297.42" y1="364.67" x2="297.42" y2="381.52" stroke="#0ecb81" stroke-width="1.4" /><rect x="294.42" y="367.08" width="6" height="7.91" rx="1.5" fill="#0ecb81" /><line x1="308.15" y1="359.86" x2="308.15" y2="374.64" stroke="#0ecb81" stroke-width="1.4" /><rect x="305.15" y="363.30" width="6" height="3.78" rx="1.5" fill="#0ecb81" /><line x1="318.89" y1="349.89" x2="318.89" y2="365.71" stroke="#0ecb81" stroke-width="1.4" /><rect x="315.89" y="354.02" width="6" height="9.28" rx="1.5" fill="#0ecb81" /><line x1="329.62" y1="340.95" x2="329.62" y2="356.08" stroke="#0ecb81" stroke-width="1.4" /><rect x="326.62" y="341.29" width="6" height="12.72" rx="1.5" fill="#0ecb81" /><line x1="340.35" y1="324.45" x2="340.35" y2="355.39" stroke="#0ecb81" stroke-width="1.4" /><rect x="337.35" y="325.82" width="6" height="15.47" rx="1.5" fill="#0ecb81" /><line x1="351.09" y1="323.07" x2="351.09" y2="341.29" stroke="#f6465d" stroke-width="1.4" /><rect x="348.09" y="325.82" width="6" height="13.06" rx="1.5" fill="#f6465d" /><line x1="361.82" y1="320.67" x2="361.82" y2="351.27" stroke="#0ecb81" stroke-width="1.4" /><rect x="358.82" y="326.51" width="6" height="12.38" rx="1.5" fill="#0ecb81" /><line x1="372.56" y1="316.54" x2="372.56" y2="332.36" stroke="#0ecb81" stroke-width="1.4" /><rect x="369.56" y="320.67" width="6" height="5.84" rx="1.5" fill="#0ecb81" /><line x1="383.29" y1="296.26" x2="383.29" y2="320.32" stroke="#0ecb81" stroke-width="1.4" /><rect x="380.29" y="301.41" width="6" height="18.91" rx="1.5" fill="#0ecb81" /><line x1="394.03" y1="274.94" x2="394.03" y2="309.32" stroke="#f6465d" stroke-width="1.4" /><rect x="391.03" y="301.41" width="6" height="6.53" rx="1.5" fill="#f6465d" /><line x1="404.76" y1="272.53" x2="404.76" y2="310.70" stroke="#0ecb81" stroke-width="1.4" /><rect x="401.76" y="278.72" width="6" height="29.22" rx="1.5" fill="#0ecb81" /><line x1="415.49" y1="248.12" x2="415.49" y2="278.72" stroke="#0ecb81" stroke-width="1.4" /><rect x="412.49" y="264.97" width="6" height="13.75" rx="1.5" fill="#0ecb81" /><line x1="426.23" y1="232.31" x2="426.23" y2="266.00" stroke="#0ecb81" stroke-width="1.4" /><rect x="423.23" y="233.68" width="6" height="31.29" rx="1.5" fill="#0ecb81" /><line x1="436.96" y1="216.15" x2="436.96" y2="297.98" stroke="#f6465d" stroke-width="1.4" /><rect x="433.96" y="233.68" width="6" height="60.51" rx="1.5" fill="#f6465d" /><line x1="447.70" y1="248.81" x2="447.70" y2="295.23" stroke="#0ecb81" stroke-width="1.4" /><rect x="444.70" y="261.53" width="6" height="32.66" rx="1.5" fill="#0ecb81" /><line x1="458.43" y1="235.75" x2="458.43" y2="275.63" stroke="#0ecb81" stroke-width="1.4" /><rect x="455.43" y="251.91" width="6" height="9.97" rx="1.5" fill="#0ecb81" /><line x1="469.16" y1="211.34" x2="469.16" y2="255.00" stroke="#0ecb81" stroke-width="1.4" /><rect x="466.16" y="242.97" width="6" height="8.94" rx="1.5" fill="#0ecb81" /><line x1="479.90" y1="136.73" x2="479.90" y2="252.59" stroke="#0ecb81" stroke-width="1.4" /><rect x="476.90" y="155.30" width="6" height="87.67" rx="1.5" fill="#0ecb81" /><line x1="490.63" y1="82.75" x2="490.63" y2="155.30" stroke="#0ecb81" stroke-width="1.4" /><rect x="487.63" y="88.94" width="6" height="66.35" rx="1.5" fill="#0ecb81" /><line x1="501.37" y1="58.00" x2="501.37" y2="113.70" stroke="#f6465d" stroke-width="1.4" /><rect x="498.37" y="89.29" width="6" height="9.97" rx="1.5" fill="#f6465d" /><line x1="512.10" y1="90.32" x2="512.10" y2="141.20" stroke="#f6465d" stroke-width="1.4" /><rect x="509.10" y="98.91" width="6" height="41.60" rx="1.5" fill="#f6465d" /><line x1="522.84" y1="140.86" x2="522.84" y2="181.43" stroke="#f6465d" stroke-width="1.4" /><rect x="519.84" y="140.86" width="6" height="32.66" rx="1.5" fill="#f6465d" /><line x1="533.57" y1="145.67" x2="533.57" y2="179.71" stroke="#0ecb81" stroke-width="1.4" /><rect x="530.57" y="156.67" width="6" height="17.19" rx="1.5" fill="#0ecb81" /><line x1="544.30" y1="152.20" x2="544.30" y2="197.93" stroke="#f6465d" stroke-width="1.4" /><rect x="541.30" y="157.02" width="6" height="31.97" rx="1.5" fill="#f6465d" /><line x1="555.04" y1="181.43" x2="555.04" y2="228.87" stroke="#f6465d" stroke-width="1.4" /><rect x="552.04" y="189.68" width="6" height="23.72" rx="1.5" fill="#f6465d" /><line x1="565.77" y1="204.12" x2="565.77" y2="234.03" stroke="#0ecb81" stroke-width="1.4" /><rect x="562.77" y="209.62" width="6" height="3.78" rx="1.5" fill="#0ecb81" /><line x1="576.51" y1="198.96" x2="576.51" y2="216.49" stroke="#f6465d" stroke-width="1.4" /><rect x="573.51" y="209.62" width="6" height="2.06" rx="1.5" fill="#f6465d" /><line x1="587.24" y1="206.87" x2="587.24" y2="243.65" stroke="#f6465d" stroke-width="1.4" /><rect x="584.24" y="211.68" width="6" height="25.44" rx="1.5" fill="#f6465d" /><line x1="597.97" y1="232.31" x2="597.97" y2="252.25" stroke="#f6465d" stroke-width="1.4" /><rect x="594.97" y="236.78" width="6" height="7.22" rx="1.5" fill="#f6465d" /><line x1="608.71" y1="231.97" x2="608.71" y2="262.56" stroke="#f6465d" stroke-width="1.4" /><rect x="605.71" y="244.00" width="6" height="5.16" rx="1.5" fill="#f6465d" /><line x1="619.44" y1="244.34" x2="619.44" y2="262.22" stroke="#0ecb81" stroke-width="1.4" /><rect x="616.44" y="246.40" width="6" height="2.75" rx="1.5" fill="#0ecb81" /><line x1="630.18" y1="233.68" x2="630.18" y2="259.47" stroke="#f6465d" stroke-width="1.4" /><rect x="627.18" y="246.40" width="6" height="2.06" rx="1.5" fill="#f6465d" /><line x1="640.91" y1="219.93" x2="640.91" y2="253.62" stroke="#0ecb81" stroke-width="1.4" /><rect x="637.91" y="225.43" width="6" height="23.03" rx="1.5" fill="#0ecb81" /><line x1="651.65" y1="217.87" x2="651.65" y2="250.19" stroke="#f6465d" stroke-width="1.4" /><rect x="648.65" y="225.43" width="6" height="15.47" rx="1.5" fill="#f6465d" /><line x1="662.38" y1="231.97" x2="662.38" y2="247.44" stroke="#0ecb81" stroke-width="1.4" /><rect x="659.38" y="239.53" width="6" height="2.00" rx="1.5" fill="#0ecb81" /><line x1="673.11" y1="221.65" x2="673.11" y2="241.94" stroke="#0ecb81" stroke-width="1.4" /><rect x="670.11" y="233.00" width="6" height="6.53" rx="1.5" fill="#0ecb81" /><line x1="683.85" y1="220.28" x2="683.85" y2="256.03" stroke="#f6465d" stroke-width="1.4" /><rect x="680.85" y="233.00" width="6" height="15.82" rx="1.5" fill="#f6465d" /><line x1="694.58" y1="244.00" x2="694.58" y2="268.06" stroke="#0ecb81" stroke-width="1.4" /><rect x="691.58" y="244.34" width="6" height="4.47" rx="1.5" fill="#0ecb81" /><line x1="705.32" y1="230.93" x2="705.32" y2="251.22" stroke="#0ecb81" stroke-width="1.4" /><rect x="702.32" y="233.00" width="6" height="11.69" rx="1.5" fill="#0ecb81" /><line x1="716.05" y1="179.36" x2="716.05" y2="242.62" stroke="#0ecb81" stroke-width="1.4" /><rect x="713.05" y="220.28" width="6" height="12.38" rx="1.5" fill="#0ecb81" /><line x1="726.78" y1="193.46" x2="726.78" y2="224.06" stroke="#f6465d" stroke-width="1.4" /><rect x="723.78" y="220.28" width="6" height="2.00" rx="1.5" fill="#f6465d" /><line x1="737.52" y1="216.84" x2="737.52" y2="239.87" stroke="#f6465d" stroke-width="1.4" /><rect x="734.52" y="221.31" width="6" height="4.81" rx="1.5" fill="#f6465d" /><line x1="748.25" y1="214.77" x2="748.25" y2="237.81" stroke="#0ecb81" stroke-width="1.4" /><rect x="745.25" y="217.87" width="6" height="8.60" rx="1.5" fill="#0ecb81" /><line x1="758.99" y1="192.77" x2="758.99" y2="226.12" stroke="#0ecb81" stroke-width="1.4" /><rect x="755.99" y="198.62" width="6" height="19.25" rx="1.5" fill="#0ecb81" /><line x1="769.72" y1="177.30" x2="769.72" y2="201.71" stroke="#0ecb81" stroke-width="1.4" /><rect x="766.72" y="183.14" width="6" height="15.13" rx="1.5" fill="#0ecb81" /><line x1="780.46" y1="151.17" x2="780.46" y2="201.37" stroke="#0ecb81" stroke-width="1.4" /><rect x="777.46" y="172.49" width="6" height="10.66" rx="1.5" fill="#0ecb81" /><line x1="791.19" y1="156.33" x2="791.19" y2="181.08" stroke="#0ecb81" stroke-width="1.4" /><rect x="788.19" y="165.61" width="6" height="6.88" rx="1.5" fill="#0ecb81" /><line x1="801.92" y1="119.88" x2="801.92" y2="169.39" stroke="#0ecb81" stroke-width="1.4" /><rect x="798.92" y="152.89" width="6" height="12.72" rx="1.5" fill="#0ecb81" /><line x1="812.66" y1="128.14" x2="812.66" y2="167.33" stroke="#f6465d" stroke-width="1.4" /><rect x="809.66" y="152.55" width="6" height="13.06" rx="1.5" fill="#f6465d" /><line x1="823.39" y1="125.73" x2="823.39" y2="175.24" stroke="#0ecb81" stroke-width="1.4" /><rect x="820.39" y="157.36" width="6" height="8.25" rx="1.5" fill="#0ecb81" /><line x1="834.13" y1="131.23" x2="834.13" y2="158.73" stroke="#0ecb81" stroke-width="1.4" /><rect x="831.13" y="134.67" width="6" height="22.69" rx="1.5" fill="#0ecb81" /><line x1="844.86" y1="122.98" x2="844.86" y2="152.89" stroke="#f6465d" stroke-width="1.4" /><rect x="841.86" y="134.67" width="6" height="16.16" rx="1.5" fill="#f6465d" /><line x1="855.59" y1="148.76" x2="855.59" y2="163.20" stroke="#f6465d" stroke-width="1.4" /><rect x="852.59" y="150.83" width="6" height="10.66" rx="1.5" fill="#f6465d" /><line x1="866.33" y1="153.23" x2="866.33" y2="175.24" stroke="#f6465d" stroke-width="1.4" /><rect x="863.33" y="161.49" width="6" height="12.03" rx="1.5" fill="#f6465d" /><line x1="877.06" y1="149.11" x2="877.06" y2="174.21" stroke="#0ecb81" stroke-width="1.4" /><rect x="874.06" y="161.83" width="6" height="11.69" rx="1.5" fill="#0ecb81" /><line x1="887.80" y1="151.51" x2="887.80" y2="173.86" stroke="#f6465d" stroke-width="1.4" /><rect x="884.80" y="161.49" width="6" height="3.44" rx="1.5" fill="#f6465d" /><line x1="898.53" y1="156.67" x2="898.53" y2="170.77" stroke="#f6465d" stroke-width="1.4" /><rect x="895.53" y="164.58" width="6" height="2.00" rx="1.5" fill="#f6465d" /><line x1="909.27" y1="138.45" x2="909.27" y2="167.33" stroke="#0ecb81" stroke-width="1.4" /><rect x="906.27" y="163.20" width="6" height="2.75" rx="1.5" fill="#0ecb81" /><line x1="920.00" y1="145.33" x2="920.00" y2="164.24" stroke="#0ecb81" stroke-width="1.4" /><rect x="917.00" y="162.52" width="6" height="2.00" rx="1.5" fill="#0ecb81" />
  <polyline points="72.00,422.78 72.00,467.13 104.20,382.90 147.14,412.81 265.22,338.20" fill="none" stroke="#2fc273" stroke-width="4" stroke-linecap="round" stroke-linejoin="round" />
  <circle cx="72.00" cy="422.78" r="5.5" fill="#2fc273" fill-opacity="0.15" stroke="#2fc273" stroke-width="2" /><text x="72.00" y="410.78" fill="#f3f4f6" font-size="15" font-weight="700" text-anchor="middle">X</text><circle cx="72.00" cy="467.13" r="5.5" fill="#2fc273" fill-opacity="0.15" stroke="#2fc273" stroke-width="2" /><text x="72.00" y="455.13" fill="#f3f4f6" font-size="15" font-weight="700" text-anchor="middle">A</text><circle cx="104.20" cy="382.90" r="5.5" fill="#2fc273" fill-opacity="0.15" stroke="#2fc273" stroke-width="2" /><text x="104.20" y="370.90" fill="#f3f4f6" font-size="15" font-weight="700" text-anchor="middle">B</text><circle cx="147.14" cy="412.81" r="5.5" fill="#2fc273" fill-opacity="0.15" stroke="#2fc273" stroke-width="2" /><text x="147.14" y="400.81" fill="#f3f4f6" font-size="15" font-weight="700" text-anchor="middle">C</text><circle cx="265.22" cy="338.20" r="5.5" fill="#2fc273" fill-opacity="0.15" stroke="#2fc273" stroke-width="2" /><text x="265.22" y="326.20" fill="#f3f4f6" font-size="15" font-weight="700" text-anchor="middle">D</text>
  <text x="56" y="492" fill="#8ba0b5" font-size="18">실시간 터치 · TP1 8.1041 · TP2 8.0529 · SL 8.2038</text>
</svg>
