<svg xmlns="http://www.w3.org/2000/svg" width="960" height="540" viewBox="0 0 960 540">
  <rect width="960" height="540" rx="24" fill="#0b1220" />
  <rect x="28" y="28" width="904" height="484" rx="22" fill="#111827" stroke="#1f2937" />
  <text x="56" y="74" fill="#f3f4f6" font-size="34" font-weight="700">ETHUSDT · AB=CD</text>
  <text x="904" y="74" fill="#8ba0b5" font-size="20" text-anchor="end">Bearish (매도) · Score 82.2</text>
  <line x1="72" y1="58" x2="920" y2="58" stroke="#223045" stroke-width="1" stroke-dasharray="4 8" /><line x1="72" y1="156" x2="920" y2="156" stroke="#223045" stroke-width="1" stroke-dasharray="4 8" /><line x1="72" y1="255" x2="920" y2="255" stroke="#223045" stroke-width="1" stroke-dasharray="4 8" /><line x1="72" y1="353" x2="920" y2="353" stroke="#223045" stroke-width="1" stroke-dasharray="4 8" /><line x1="72" y1="452" x2="920" y2="452" stroke="#223045" stroke-width="1" stroke-dasharray="4 8" />
  <rect x="559.24" y="106.22" width="84" height="59.56" fill="#fbbf24" fill-opacity="0.12" stroke="#fbbf24" stroke-width="1.5" stroke-dasharray="6 6" />
  <line x1="72.00" y1="238.34" x2="72.00" y2="287.77" stroke="#f6465d" stroke-width="1.4" /><rect x="69.00" y="259.46" width="6" height="2.00" rx="1.5" fill="#f6465d" /><line x1="82.73" y1="220.73" x2="82.73" y2="294.68" stroke="#0ecb81" stroke-width="1.4" /><rect x="79.73" y="226.14" width="6" height="35.16" rx="1.5" fill="#0ecb81" /><line x1="93.47" y1="226.20" x2="93.47" y2="287.66" stroke="#f6465d" stroke-width="1.4" /><rect x="90.47" y="226.20" width="6" height="55.87" rx="1.5" fill="#f6465d" /><line x1="104.20" y1="271.54" x2="104.20" y2="321.72" stroke="#f6465d" stroke-width="1.4" /><rect x="101.20" y="282.07" width="6" height="13.00" rx="1.5" fill="#f6465d" /><line x1="114.94" y1="289.32" x2="114.94" y2="365.22" stroke="#f6465d" stroke-width="1.4" /><rect x="111.94" y="295.08" width="6" height="29.58" rx="1.5" fill="#f6465d" /><line x1="125.67" y1="315.33" x2="125.67" y2="414.88" stroke="#f6465d" stroke-width="1.4" /><rect x="122.67" y="324.66" width="6" height="32.45" rx="1.5" fill="#f6465d" /><line x1="136.41" y1="355.10" x2="136.41" y2="408.67" stroke="#f6465d" stroke-width="1.4" /><rect x="133.41" y="357.17" width="6" height="35.33" rx="1.5" fill="#f6465d" /><line x1="147.14" y1="301.52" x2="147.14" y2="452.00" stroke="#0ecb81" stroke-width="1.4" /><rect x="144.14" y="324.60" width="6" height="67.84" rx="1.5" fill="#0ecb81" /><line x1="157.87" y1="127.17" x2="157.87" y2="359.93" stroke="#0ecb81" stroke-width="1.4" /><rect x="154.87" y="181.26" width="6" height="143.34" rx="1.5" fill="#0ecb81" /><line x1="168.61" y1="156.74" x2="168.61" y2="270.05" stroke="#f6465d" stroke-width="1.4" /><rect x="165.61" y="181.26" width="6" height="23.82" rx="1.5" fill="#f6465d" /><line x1="179.34" y1="104.15" x2="179.34" y2="247.95" stroke="#0ecb81" stroke-width="1.4" /><rect x="176.34" y="185.06" width="6" height="20.08" rx="1.5" fill="#0ecb81" /><line x1="190.08" y1="133.09" x2="190.08" y2="297.55" stroke="#f6465d" stroke-width="1.4" /><rect x="187.08" y="185.11" width="6" height="91.67" rx="1.5" fill="#f6465d" /><line x1="200.81" y1="178.96" x2="200.81" y2="298.76" stroke="#0ecb81" stroke-width="1.4" /><rect x="197.81" y="211.12" width="6" height="65.60" rx="1.5" fill="#0ecb81" /><line x1="211.54" y1="162.38" x2="211.54" y2="232.82" stroke="#0ecb81" stroke-width="1.4" /><rect x="208.54" y="170.96" width="6" height="40.11" rx="1.5" fill="#0ecb81" /><line x1="222.28" y1="119.05" x2="222.28" y2="198.35" stroke="#0ecb81" stroke-width="1.4" /><rect x="219.28" y="154.27" width="6" height="16.63" rx="1.5" fill="#0ecb81" /><line x1="233.01" y1="139.48" x2="233.01" y2="225.85" stroke="#f6465d" stroke-width="1.4" /><rect x="230.01" y="154.27" width="6" height="29.12" rx="1.5" fill="#f6465d" /><line x1="243.75" y1="174.35" x2="243.75" y2="240.76" stroke="#f6465d" stroke-width="1.4" /><rect x="240.75" y="183.39" width="6" height="18.13" rx="1.5" fill="#f6465d" /><line x1="254.48" y1="190.47" x2="254.48" y2="238.86" stroke="#f6465d" stroke-width="1.4" /><rect x="251.48" y="201.57" width="6" height="17.90" rx="1.5" fill="#f6465d" /><line x1="265.22" y1="203.64" x2="265.22" y2="262.28" stroke="#f6465d" stroke-width="1.4" /><rect x="262.22" y="219.41" width="6" height="22.50" rx="1.5" fill="#f6465d" /><line x1="275.95" y1="185.40" x2="275.95" y2="288.29" stroke="#f6465d" stroke-width="1.4" /><rect x="272.95" y="241.91" width="6" height="15.13" rx="1.5" fill="#f6465d" /><line x1="286.68" y1="201.00" x2="286.68" y2="320.80" stroke="#0ecb81" stroke-width="1.4" /><rect x="283.68" y="245.53" width="6" height="11.45" rx="1.5" fill="#0ecb81" /><line x1="297.42" y1="216.94" x2="297.42" y2="259.52" stroke="#0ecb81" stroke-width="1.4" /><rect x="294.42" y="236.50" width="6" height="9.09" rx="1.5" fill="#0ecb81" /><line x1="308.15" y1="213.48" x2="308.15" y2="267.75" stroke="#0ecb81" stroke-width="1.4" /><rect x="305.15" y="232.82" width="6" height="3.63" rx="1.5" fill="#0ecb81" /><line x1="318.89" y1="173.26" x2="318.89" y2="275.86" stroke="#0ecb81" stroke-width="1.4" /><rect x="315.89" y="218.32" width="6" height="14.50" rx="1.5" fill="#0ecb81" /><line x1="329.62" y1="161.69" x2="329.62" y2="232.01" stroke="#0ecb81" stroke-width="1.4" /><rect x="326.62" y="180.91" width="6" height="37.40" rx="1.5" fill="#0ecb81" /><line x1="340.35" y1="112.21" x2="340.35" y2="189.83" stroke="#0ecb81" stroke-width="1.4" /><rect x="337.35" y="167.56" width="6" height="13.29" rx="1.5" fill="#0ecb81" /><line x1="351.09" y1="132.12" x2="351.09" y2="212.56" stroke="#f6465d" stroke-width="1.4" /><rect x="348.09" y="167.56" width="6" height="29.52" rx="1.5" fill="#f6465d" /><line x1="361.82" y1="178.09" x2="361.82" y2="221.08" stroke="#0ecb81" stroke-width="1.4" /><rect x="358.82" y="195.82" width="6" height="2.00" rx="1.5" fill="#0ecb81" /><line x1="372.56" y1="195.82" x2="372.56" y2="242.14" stroke="#f6465d" stroke-width="1.4" /><rect x="369.56" y="195.87" width="6" height="7.94" rx="1.5" fill="#f6465d" /><line x1="383.29" y1="172.91" x2="383.29" y2="214.98" stroke="#0ecb81" stroke-width="1.4" /><rect x="380.29" y="185.46" width="6" height="18.30" rx="1.5" fill="#0ecb81" /><line x1="394.03" y1="58.00" x2="394.03" y2="290.59" stroke="#f6465d" stroke-width="1.4" /><rect x="391.03" y="185.40" width="6" height="73.83" rx="1.5" fill="#f6465d" /><line x1="404.76" y1="252.55" x2="404.76" y2="309.81" stroke="#f6465d" stroke-width="1.4" /><rect x="401.76" y="259.29" width="6" height="10.53" rx="1.5" fill="#f6465d" /><line x1="415.49" y1="215.78" x2="415.49" y2="286.85" stroke="#0ecb81" stroke-width="1.4" /><rect x="412.49" y="234.49" width="6" height="35.33" rx="1.5" fill="#0ecb81" /><line x1="426.23" y1="214.35" x2="426.23" y2="264.75" stroke="#f6465d" stroke-width="1.4" /><rect x="423.23" y="234.49" width="6" height="17.49" rx="1.5" fill="#f6465d" /><line x1="436.96" y1="219.81" x2="436.96" y2="261.93" stroke="#0ecb81" stroke-width="1.4" /><rect x="433.96" y="232.47" width="6" height="19.51" rx="1.5" fill="#0ecb81" /><line x1="447.70" y1="227.87" x2="447.70" y2="297.50" stroke="#f6465d" stroke-width="1.4" /><rect x="444.70" y="232.47" width="6" height="25.84" rx="1.5" fill="#f6465d" /><line x1="458.43" y1="239.38" x2="458.43" y2="271.89" stroke="#f6465d" stroke-width="1.4" /><rect x="455.43" y="258.37" width="6" height="5.75" rx="1.5" fill="#f6465d" /><line x1="469.16" y1="234.89" x2="469.16" y2="287.14" stroke="#0ecb81" stroke-width="1.4" /><rect x="466.16" y="245.53" width="6" height="18.59" rx="1.5" fill="#0ecb81" /><line x1="479.90" y1="230.17" x2="479.90" y2="248.99" stroke="#0ecb81" stroke-width="1.4" /><rect x="476.90" y="243.98" width="6" height="2.00" rx="1.5" fill="#0ecb81" /><line x1="490.63" y1="190.52" x2="490.63" y2="244.38" stroke="#0ecb81" stroke-width="1.4" /><rect x="487.63" y="212.04" width="6" height="31.88" rx="1.5" fill="#0ecb81" /><line x1="501.37" y1="203.58" x2="501.37" y2="262.16" stroke="#f6465d" stroke-width="1.4" /><rect x="498.37" y="211.99" width="6" height="35.50" rx="1.5" fill="#f6465d" /><line x1="512.10" y1="234.43" x2="512.10" y2="263.14" stroke="#0ecb81" stroke-width="1.4" /><rect x="509.10" y="236.96" width="6" height="10.53" rx="1.5" fill="#0ecb81" /><line x1="522.84" y1="236.50" x2="522.84" y2="251.06" stroke="#f6465d" stroke-width="1.4" /><rect x="519.84" y="236.90" width="6" height="9.67" rx="1.5" fill="#f6465d" /><line x1="533.57" y1="236.90" x2="533.57" y2="261.70" stroke="#f6465d" stroke-width="1.4" /><rect x="530.57" y="246.57" width="6" height="4.20" rx="1.5" fill="#f6465d" /><line x1="544.30" y1="238.23" x2="544.30" y2="271.77" stroke="#f6465d" stroke-width="1.4" /><rect x="541.30" y="250.71" width="6" height="6.96" rx="1.5" fill="#f6465d" /><line x1="555.04" y1="245.76" x2="555.04" y2="261.24" stroke="#f6465d" stroke-width="1.4" /><rect x="552.04" y="257.68" width="6" height="2.00" rx="1.5" fill="#f6465d" /><line x1="565.77" y1="249.39" x2="565.77" y2="268.09" stroke="#0ecb81" stroke-width="1.4" /><rect x="562.77" y="252.96" width="6" height="5.35" rx="1.5" fill="#0ecb81" /><line x1="576.51" y1="229.48" x2="576.51" y2="256.47" stroke="#0ecb81" stroke-width="1.4" /><rect x="573.51" y="237.82" width="6" height="15.19" rx="1.5" fill="#0ecb81" /><line x1="587.24" y1="210.61" x2="587.24" y2="242.48" stroke="#0ecb81" stroke-width="1.4" /><rect x="584.24" y="222.06" width="6" height="15.71" rx="1.5" fill="#0ecb81" /><line x1="597.97" y1="218.49" x2="597.97" y2="250.77" stroke="#f6465d" stroke-width="1.4" /><rect x="594.97" y="222.06" width="6" height="16.05" rx="1.5" fill="#f6465d" /><line x1="608.71" y1="227.87" x2="608.71" y2="263.20" stroke="#f6465d" stroke-width="1.4" /><rect x="605.71" y="238.05" width="6" height="18.87" rx="1.5" fill="#f6465d" /><line x1="619.44" y1="248.70" x2="619.44" y2="264.70" stroke="#f6465d" stroke-width="1.4" /><rect x="616.44" y="256.93" width="6" height="2.00" rx="1.5" fill="#f6465d" /><line x1="630.18" y1="230.98" x2="630.18" y2="274.19" stroke="#0ecb81" stroke-width="1.4" /><rect x="627.18" y="234.95" width="6" height="23.02" rx="1.5" fill="#0ecb81" /><line x1="640.91" y1="229.36" x2="640.91" y2="252.32" stroke="#f6465d" stroke-width="1.4" /><rect x="637.91" y="234.95" width="6" height="12.72" rx="1.5" fill="#f6465d" /><line x1="651.65" y1="239.38" x2="651.65" y2="271.03" stroke="#f6465d" stroke-width="1.4" /><rect x="648.65" y="247.66" width="6" height="12.49" rx="1.5" fill="#f6465d" /><line x1="662.38" y1="230.80" x2="662.38" y2="262.11" stroke="#0ecb81" stroke-width="1.4" /><rect x="659.38" y="240.47" width="6" height="19.62" rx="1.5" fill="#0ecb81" /><line x1="673.11" y1="232.93" x2="673.11" y2="294.04" stroke="#f6465d" stroke-width="1.4" /><rect x="670.11" y="240.47" width="6" height="2.00" rx="1.5" fill="#f6465d" /><line x1="683.85" y1="190.52" x2="683.85" y2="245.76" stroke="#0ecb81" stroke-width="1.4" /><rect x="680.85" y="224.07" width="6" height="17.44" rx="1.5" fill="#0ecb81" /><line x1="694.58" y1="186.72" x2="694.58" y2="240.53" stroke="#f6465d" stroke-width="1.4" /><rect x="691.58" y="224.07" width="6" height="2.93" rx="1.5" fill="#f6465d" /><line x1="705.32" y1="212.22" x2="705.32" y2="243.75" stroke="#0ecb81" stroke-width="1.4" /><rect x="702.32" y="220.10" width="6" height="6.85" rx="1.5" fill="#0ecb81" /><line x1="716.05" y1="211.58" x2="716.05" y2="232.18" stroke="#f6465d" stroke-width="1.4" /><rect x="713.05" y="220.10" width="6" height="9.61" rx="1.5" fill="#f6465d" /><line x1="726.78" y1="61.80" x2="726.78" y2="229.88" stroke="#0ecb81" stroke-width="1.4" /><rect x="723.78" y="174.53" width="6" height="55.24" rx="1.5" fill="#0ecb81" /><line x1="737.52" y1="173.03" x2="737.52" y2="204.10" stroke="#f6465d" stroke-width="1.4" /><rect x="734.52" y="174.53" width="6" height="10.93" rx="1.5" fill="#f6465d" /><line x1="748.25" y1="132.58" x2="748.25" y2="186.67" stroke="#0ecb81" stroke-width="1.4" /><rect x="745.25" y="151.74" width="6" height="33.72" rx="1.5" fill="#0ecb81" /><line x1="758.99" y1="130.27" x2="758.99" y2="154.21" stroke="#0ecb81" stroke-width="1.4" /><rect x="755.99" y="149.95" width="6" height="2.00" rx="1.5" fill="#0ecb81" /><line x1="769.72" y1="148.80" x2="769.72" y2="186.95" stroke="#f6465d" stroke-width="1.4" /><rect x="766.72" y="149.95" width="6" height="20.77" rx="1.5" fill="#f6465d" /><line x1="780.46" y1="169.75" x2="780.46" y2="200.82" stroke="#f6465d" stroke-width="1.4" /><rect x="777.46" y="170.73" width="6" height="18.18" rx="1.5" fill="#f6465d" /><line x1="791.19" y1="187.01" x2="791.19" y2="219.18" stroke="#f6465d" stroke-width="1.4" /><rect x="788.19" y="188.85" width="6" height="28.08" rx="1.5" fill="#f6465d" /><line x1="801.92" y1="200.82" x2="801.92" y2="238.51" stroke="#0ecb81" stroke-width="1.4" /><rect x="798.92" y="202.09" width="6" height="14.90" rx="1.5" fill="#0ecb81" /><line x1="812.66" y1="196.28" x2="812.66" y2="229.31" stroke="#f6465d" stroke-width="1.4" /><rect x="809.66" y="202.09" width="6" height="18.93" rx="1.5" fill="#f6465d" /><line x1="823.39" y1="212.39" x2="823.39" y2="236.44" stroke="#f6465d" stroke-width="1.4" /><rect x="820.39" y="221.02" width="6" height="8.29" rx="1.5" fill="#f6465d" /><line x1="834.13" y1="219.93" x2="834.13" y2="276.78" stroke="#f6465d" stroke-width="1.4" /><rect x="831.13" y="229.31" width="6" height="37.46" rx="1.5" fill="#f6465d" /><line x1="844.86" y1="264.64" x2="844.86" y2="390.03" stroke="#f6465d" stroke-width="1.4" /><rect x="841.86" y="266.77" width="6" height="60.36" rx="1.5" fill="#f6465d" /><line x1="855.59" y1="302.21" x2="855.59" y2="351.53" stroke="#f6465d" stroke-width="1.4" /><rect x="852.59" y="327.19" width="6" height="7.14" rx="1.5" fill="#f6465d" /><line x1="866.33" y1="316.83" x2="866.33" y2="342.55" stroke="#0ecb81" stroke-width="1.4" /><rect x="863.33" y="322.47" width="6" height="11.85" rx="1.5" fill="#0ecb81" /><line x1="877.06" y1="282.94" x2="877.06" y2="324.43" stroke="#0ecb81" stroke-width="1.4" /><rect x="874.06" y="292.78" width="6" height="29.69" rx="1.5" fill="#0ecb81" /><line x1="887.80" y1="243.23" x2="887.80" y2="305.03" stroke="#0ecb81" stroke-width="1.4" /><rect x="884.80" y="290.30" width="6" height="2.42" rx="1.5" fill="#0ecb81" /><line x1="898.53" y1="283.23" x2="898.53" y2="315.05" stroke="#f6465d" stroke-width="1.4" /><rect x="895.53" y="290.36" width="6" height="15.88" rx="1.5" fill="#f6465d" /><line x1="909.27" y1="306.18" x2="909.27" y2="422.88" stroke="#f6465d" stroke-width="1.4" /><rect x="906.27" y="306.24" width="6" height="80.10" rx="1.5" fill="#f6465d" /><line x1="920.00" y1="383.52" x2="920.00" y2="388.76" stroke="#0ecb81" stroke-width="1.4" /><rect x="917.00" y="384.50" width="6" height="2.00" rx="1.5" fill="#0ecb81" />
  <polyline points="394.03,58.00 404.76,309.81 490.63,190.52 544.30,271.77 587.24,210.61" fill="none" stroke="#2fc273" stroke-width="4" stroke-linecap="round" stroke-linejoin="round" />
  <circle cx="394.03" cy="58.00" r="5.5" fill="#2fc273" fill-opacity="0.15" stroke="#2fc273" stroke-width="2" /><text x="394.03" y="46.00" fill="#f3f4f6" font-size="15" font-weight="700" text-anchor="middle">X</text><circle cx="404.76" cy="309.81" r="5.5" fill="#2fc273" fill-opacity="0.15" stroke="#2fc273" stroke-width="2" /><text x="404.76" y="297.81" fill="#f3f4f6" font-size="15" font-weight="700" text-anchor="middle">A</text><circle cx="490.63" cy="190.52" r="5.5" fill="#2fc273" fill-opacity="0.15" stroke="#2fc273" stroke-width="2" /><text x="490.63" y="178.52" fill="#f3f4f6" font-size="15" font-weight="700" text-anchor="middle">B</text><circle cx="544.30" cy="271.77" r="5.5" fill="#2fc273" fill-opacity="0.15" stroke="#2fc273" stroke-width="2" /><text x="544.30" y="259.77" fill="#f3f4f6" font-size="15" font-weight="700" text-anchor="middle">C</text><circle cx="587.24" cy="210.61" r="5.5" fill="#2fc273" fill-opacity="0.15" stroke="#2fc273" stroke-width="2" /><text x="587.24" y="198.61" fill="#f3f4f6" font-size="15" font-weight="700" text-anchor="middle">D</text>
  <text x="56" y="492" fill="#8ba0b5" font-size="18">일반 완성 · TP1 2053.44 · TP2 2050.93 · SL 2063.19</text>
</svg>
