<svg xmlns="http://www.w3.org/2000/svg" width="960" height="540" viewBox="0 0 960 540">
  <rect width="960" height="540" rx="24" fill="#0b1220" />
  <rect x="28" y="28" width="904" height="484" rx="22" fill="#111827" stroke="#1f2937" />
  <text x="56" y="74" fill="#f3f4f6" font-size="34" font-weight="700">HBARUSDT · AB=CD</text>
  <text x="904" y="74" fill="#8ba0b5" font-size="20" text-anchor="end">Bearish (매도) · Score 88.6</text>
  <line x1="72" y1="58" x2="920" y2="58" stroke="#223045" stroke-width="1" stroke-dasharray="4 8" /><line x1="72" y1="156" x2="920" y2="156" stroke="#223045" stroke-width="1" stroke-dasharray="4 8" /><line x1="72" y1="255" x2="920" y2="255" stroke="#223045" stroke-width="1" stroke-dasharray="4 8" /><line x1="72" y1="353" x2="920" y2="353" stroke="#223045" stroke-width="1" stroke-dasharray="4 8" /><line x1="72" y1="452" x2="920" y2="452" stroke="#223045" stroke-width="1" stroke-dasharray="4 8" />
  <rect x="763.19" y="179.26" width="84" height="31.49" fill="#fbbf24" fill-opacity="0.12" stroke="#fbbf24" stroke-width="1.5" stroke-dasharray="6 6" />
  <line x1="72.00" y1="318.77" x2="72.00" y2="368.64" stroke="#0ecb81" stroke-width="1.4" /><rect x="69.00" y="318.77" width="6" height="34.20" rx="1.5" fill="#0ecb81" /><line x1="82.73" y1="276.02" x2="82.73" y2="326.60" stroke="#0ecb81" stroke-width="1.4" /><rect x="79.73" y="290.98" width="6" height="27.79" rx="1.5" fill="#0ecb81" /><line x1="93.47" y1="285.99" x2="93.47" y2="328.03" stroke="#f6465d" stroke-width="1.4" /><rect x="90.47" y="291.69" width="6" height="33.49" rx="1.5" fill="#f6465d" /><line x1="104.20" y1="318.77" x2="104.20" y2="342.28" stroke="#f6465d" stroke-width="1.4" /><rect x="101.20" y="325.18" width="6" height="4.27" rx="1.5" fill="#f6465d" /><line x1="114.94" y1="318.77" x2="114.94" y2="355.10" stroke="#f6465d" stroke-width="1.4" /><rect x="111.94" y="330.17" width="6" height="22.09" rx="1.5" fill="#f6465d" /><line x1="125.67" y1="350.83" x2="125.67" y2="385.74" stroke="#f6465d" stroke-width="1.4" /><rect x="122.67" y="352.25" width="6" height="22.09" rx="1.5" fill="#f6465d" /><line x1="136.41" y1="359.38" x2="136.41" y2="390.01" stroke="#f6465d" stroke-width="1.4" /><rect x="133.41" y="375.05" width="6" height="9.97" rx="1.5" fill="#f6465d" /><line x1="147.14" y1="382.18" x2="147.14" y2="452.00" stroke="#f6465d" stroke-width="1.4" /><rect x="144.14" y="385.03" width="6" height="9.26" rx="1.5" fill="#f6465d" /><line x1="157.87" y1="284.57" x2="157.87" y2="402.84" stroke="#0ecb81" stroke-width="1.4" /><rect x="154.87" y="308.79" width="6" height="86.21" rx="1.5" fill="#0ecb81" /><line x1="168.61" y1="288.13" x2="168.61" y2="352.25" stroke="#0ecb81" stroke-width="1.4" /><rect x="165.61" y="300.24" width="6" height="8.55" rx="1.5" fill="#0ecb81" /><line x1="179.34" y1="245.38" x2="179.34" y2="342.99" stroke="#0ecb81" stroke-width="1.4" /><rect x="176.34" y="270.32" width="6" height="30.64" rx="1.5" fill="#0ecb81" /><line x1="190.08" y1="235.41" x2="190.08" y2="325.89" stroke="#f6465d" stroke-width="1.4" /><rect x="187.08" y="271.03" width="6" height="50.59" rx="1.5" fill="#f6465d" /><line x1="200.81" y1="260.34" x2="200.81" y2="325.18" stroke="#0ecb81" stroke-width="1.4" /><rect x="197.81" y="263.91" width="6" height="58.42" rx="1.5" fill="#0ecb81" /><line x1="211.54" y1="251.79" x2="211.54" y2="305.94" stroke="#0ecb81" stroke-width="1.4" /><rect x="208.54" y="264.62" width="6" height="2.00" rx="1.5" fill="#0ecb81" /><line x1="222.28" y1="256.78" x2="222.28" y2="286.71" stroke="#f6465d" stroke-width="1.4" /><rect x="219.28" y="264.62" width="6" height="10.69" rx="1.5" fill="#f6465d" /><line x1="233.01" y1="257.49" x2="233.01" y2="285.28" stroke="#0ecb81" stroke-width="1.4" /><rect x="230.01" y="263.91" width="6" height="11.40" rx="1.5" fill="#0ecb81" /><line x1="243.75" y1="226.14" x2="243.75" y2="272.46" stroke="#0ecb81" stroke-width="1.4" /><rect x="240.75" y="234.69" width="6" height="29.92" rx="1.5" fill="#0ecb81" /><line x1="254.48" y1="219.02" x2="254.48" y2="251.79" stroke="#0ecb81" stroke-width="1.4" /><rect x="251.48" y="227.57" width="6" height="7.84" rx="1.5" fill="#0ecb81" /><line x1="265.22" y1="191.95" x2="265.22" y2="226.86" stroke="#0ecb81" stroke-width="1.4" /><rect x="262.22" y="209.05" width="6" height="17.81" rx="1.5" fill="#0ecb81" /><line x1="275.95" y1="177.70" x2="275.95" y2="241.82" stroke="#f6465d" stroke-width="1.4" /><rect x="272.95" y="209.76" width="6" height="23.51" rx="1.5" fill="#f6465d" /><line x1="286.68" y1="172.71" x2="286.68" y2="242.53" stroke="#0ecb81" stroke-width="1.4" /><rect x="283.68" y="215.46" width="6" height="17.81" rx="1.5" fill="#0ecb81" /><line x1="297.42" y1="145.63" x2="297.42" y2="214.75" stroke="#0ecb81" stroke-width="1.4" /><rect x="294.42" y="170.57" width="6" height="44.17" rx="1.5" fill="#0ecb81" /><line x1="308.15" y1="137.08" x2="308.15" y2="180.55" stroke="#0ecb81" stroke-width="1.4" /><rect x="305.15" y="139.22" width="6" height="31.35" rx="1.5" fill="#0ecb81" /><line x1="318.89" y1="97.90" x2="318.89" y2="170.57" stroke="#f6465d" stroke-width="1.4" /><rect x="315.89" y="139.22" width="6" height="2.00" rx="1.5" fill="#f6465d" /><line x1="329.62" y1="60.85" x2="329.62" y2="147.06" stroke="#0ecb81" stroke-width="1.4" /><rect x="326.62" y="71.54" width="6" height="68.40" rx="1.5" fill="#0ecb81" /><line x1="340.35" y1="58.00" x2="340.35" y2="108.59" stroke="#f6465d" stroke-width="1.4" /><rect x="337.35" y="70.82" width="6" height="12.82" rx="1.5" fill="#f6465d" /><line x1="351.09" y1="80.80" x2="351.09" y2="142.78" stroke="#f6465d" stroke-width="1.4" /><rect x="348.09" y="83.65" width="6" height="49.16" rx="1.5" fill="#f6465d" /><line x1="361.82" y1="126.40" x2="361.82" y2="178.41" stroke="#f6465d" stroke-width="1.4" /><rect x="358.82" y="132.10" width="6" height="35.62" rx="1.5" fill="#f6465d" /><line x1="372.56" y1="153.47" x2="372.56" y2="196.22" stroke="#0ecb81" stroke-width="1.4" /><rect x="369.56" y="161.31" width="6" height="6.41" rx="1.5" fill="#0ecb81" /><line x1="383.29" y1="152.05" x2="383.29" y2="174.85" stroke="#0ecb81" stroke-width="1.4" /><rect x="380.29" y="162.02" width="6" height="2.00" rx="1.5" fill="#0ecb81" /><line x1="394.03" y1="120.70" x2="394.03" y2="204.77" stroke="#f6465d" stroke-width="1.4" /><rect x="391.03" y="161.31" width="6" height="30.64" rx="1.5" fill="#f6465d" /><line x1="404.76" y1="184.82" x2="404.76" y2="233.98" stroke="#f6465d" stroke-width="1.4" /><rect x="401.76" y="191.23" width="6" height="24.22" rx="1.5" fill="#f6465d" /><line x1="415.49" y1="202.63" x2="415.49" y2="266.76" stroke="#f6465d" stroke-width="1.4" /><rect x="412.49" y="215.46" width="6" height="33.49" rx="1.5" fill="#f6465d" /><line x1="426.23" y1="230.42" x2="426.23" y2="263.19" stroke="#f6465d" stroke-width="1.4" /><rect x="423.23" y="249.66" width="6" height="3.56" rx="1.5" fill="#f6465d" /><line x1="436.96" y1="209.05" x2="436.96" y2="253.93" stroke="#0ecb81" stroke-width="1.4" /><rect x="433.96" y="213.32" width="6" height="39.90" rx="1.5" fill="#0ecb81" /><line x1="447.70" y1="202.63" x2="447.70" y2="237.54" stroke="#f6465d" stroke-width="1.4" /><rect x="444.70" y="214.03" width="6" height="6.41" rx="1.5" fill="#f6465d" /><line x1="458.43" y1="207.62" x2="458.43" y2="254.64" stroke="#f6465d" stroke-width="1.4" /><rect x="455.43" y="221.16" width="6" height="22.80" rx="1.5" fill="#f6465d" /><line x1="469.16" y1="233.27" x2="469.16" y2="268.18" stroke="#f6465d" stroke-width="1.4" /><rect x="466.16" y="243.96" width="6" height="4.99" rx="1.5" fill="#f6465d" /><line x1="479.90" y1="238.97" x2="479.90" y2="268.18" stroke="#f6465d" stroke-width="1.4" /><rect x="476.90" y="248.94" width="6" height="15.67" rx="1.5" fill="#f6465d" /><line x1="490.63" y1="251.08" x2="490.63" y2="278.87" stroke="#0ecb81" stroke-width="1.4" /><rect x="487.63" y="261.06" width="6" height="2.85" rx="1.5" fill="#0ecb81" /><line x1="501.37" y1="241.82" x2="501.37" y2="266.76" stroke="#0ecb81" stroke-width="1.4" /><rect x="498.37" y="256.78" width="6" height="4.27" rx="1.5" fill="#0ecb81" /><line x1="512.10" y1="247.52" x2="512.10" y2="269.61" stroke="#0ecb81" stroke-width="1.4" /><rect x="509.10" y="248.94" width="6" height="7.84" rx="1.5" fill="#0ecb81" /><line x1="522.84" y1="243.96" x2="522.84" y2="271.03" stroke="#f6465d" stroke-width="1.4" /><rect x="519.84" y="248.94" width="6" height="22.09" rx="1.5" fill="#f6465d" /><line x1="533.57" y1="258.21" x2="533.57" y2="283.14" stroke="#0ecb81" stroke-width="1.4" /><rect x="530.57" y="271.74" width="6" height="2.00" rx="1.5" fill="#0ecb81" /><line x1="544.30" y1="266.04" x2="544.30" y2="290.27" stroke="#f6465d" stroke-width="1.4" /><rect x="541.30" y="271.03" width="6" height="10.69" rx="1.5" fill="#f6465d" /><line x1="555.04" y1="258.21" x2="555.04" y2="288.13" stroke="#0ecb81" stroke-width="1.4" /><rect x="552.04" y="266.04" width="6" height="15.67" rx="1.5" fill="#0ecb81" /><line x1="565.77" y1="250.37" x2="565.77" y2="281.72" stroke="#0ecb81" stroke-width="1.4" /><rect x="562.77" y="261.06" width="6" height="4.27" rx="1.5" fill="#0ecb81" /><line x1="576.51" y1="238.97" x2="576.51" y2="270.32" stroke="#0ecb81" stroke-width="1.4" /><rect x="573.51" y="258.92" width="6" height="2.14" rx="1.5" fill="#0ecb81" /><line x1="587.24" y1="235.41" x2="587.24" y2="266.76" stroke="#0ecb81" stroke-width="1.4" /><rect x="584.24" y="243.96" width="6" height="14.25" rx="1.5" fill="#0ecb81" /><line x1="597.97" y1="241.11" x2="597.97" y2="275.31" stroke="#f6465d" stroke-width="1.4" /><rect x="594.97" y="244.67" width="6" height="26.36" rx="1.5" fill="#f6465d" /><line x1="608.71" y1="267.47" x2="608.71" y2="305.94" stroke="#f6465d" stroke-width="1.4" /><rect x="605.71" y="270.32" width="6" height="30.64" rx="1.5" fill="#f6465d" /><line x1="619.44" y1="285.99" x2="619.44" y2="310.93" stroke="#0ecb81" stroke-width="1.4" /><rect x="616.44" y="296.68" width="6" height="4.27" rx="1.5" fill="#0ecb81" /><line x1="630.18" y1="276.02" x2="630.18" y2="296.68" stroke="#0ecb81" stroke-width="1.4" /><rect x="627.18" y="278.16" width="6" height="17.81" rx="1.5" fill="#0ecb81" /><line x1="640.91" y1="267.47" x2="640.91" y2="290.98" stroke="#f6465d" stroke-width="1.4" /><rect x="637.91" y="278.87" width="6" height="7.84" rx="1.5" fill="#f6465d" /><line x1="651.65" y1="278.87" x2="651.65" y2="300.95" stroke="#f6465d" stroke-width="1.4" /><rect x="648.65" y="285.99" width="6" height="9.26" rx="1.5" fill="#f6465d" /><line x1="662.38" y1="285.99" x2="662.38" y2="308.79" stroke="#f6465d" stroke-width="1.4" /><rect x="659.38" y="295.25" width="6" height="12.82" rx="1.5" fill="#f6465d" /><line x1="673.11" y1="278.16" x2="673.11" y2="321.62" stroke="#0ecb81" stroke-width="1.4" /><rect x="670.11" y="290.27" width="6" height="17.10" rx="1.5" fill="#0ecb81" /><line x1="683.85" y1="268.18" x2="683.85" y2="303.80" stroke="#f6465d" stroke-width="1.4" /><rect x="680.85" y="289.56" width="6" height="5.70" rx="1.5" fill="#f6465d" /><line x1="694.58" y1="278.16" x2="694.58" y2="314.49" stroke="#f6465d" stroke-width="1.4" /><rect x="691.58" y="294.54" width="6" height="13.54" rx="1.5" fill="#f6465d" /><line x1="705.32" y1="260.34" x2="705.32" y2="318.77" stroke="#0ecb81" stroke-width="1.4" /><rect x="702.32" y="271.74" width="6" height="36.34" rx="1.5" fill="#0ecb81" /><line x1="716.05" y1="261.77" x2="716.05" y2="283.14" stroke="#f6465d" stroke-width="1.4" /><rect x="713.05" y="271.74" width="6" height="6.41" rx="1.5" fill="#f6465d" /><line x1="726.78" y1="234.69" x2="726.78" y2="280.29" stroke="#0ecb81" stroke-width="1.4" /><rect x="723.78" y="274.59" width="6" height="3.56" rx="1.5" fill="#0ecb81" /><line x1="737.52" y1="263.91" x2="737.52" y2="283.86" stroke="#0ecb81" stroke-width="1.4" /><rect x="734.52" y="270.32" width="6" height="4.27" rx="1.5" fill="#0ecb81" /><line x1="748.25" y1="265.33" x2="748.25" y2="294.54" stroke="#f6465d" stroke-width="1.4" /><rect x="745.25" y="271.03" width="6" height="10.69" rx="1.5" fill="#f6465d" /><line x1="758.99" y1="261.77" x2="758.99" y2="285.99" stroke="#0ecb81" stroke-width="1.4" /><rect x="755.99" y="268.18" width="6" height="12.82" rx="1.5" fill="#0ecb81" /><line x1="769.72" y1="260.34" x2="769.72" y2="285.28" stroke="#0ecb81" stroke-width="1.4" /><rect x="766.72" y="263.19" width="6" height="5.70" rx="1.5" fill="#0ecb81" /><line x1="780.46" y1="231.84" x2="780.46" y2="268.89" stroke="#0ecb81" stroke-width="1.4" /><rect x="777.46" y="231.84" width="6" height="31.35" rx="1.5" fill="#0ecb81" /><line x1="791.19" y1="225.43" x2="791.19" y2="276.02" stroke="#f6465d" stroke-width="1.4" /><rect x="788.19" y="231.84" width="6" height="42.75" rx="1.5" fill="#f6465d" /><line x1="801.92" y1="237.54" x2="801.92" y2="285.28" stroke="#0ecb81" stroke-width="1.4" /><rect x="798.92" y="248.23" width="6" height="27.07" rx="1.5" fill="#0ecb81" /><line x1="812.66" y1="233.27" x2="812.66" y2="259.63" stroke="#0ecb81" stroke-width="1.4" /><rect x="809.66" y="240.39" width="6" height="8.55" rx="1.5" fill="#0ecb81" /><line x1="823.39" y1="232.56" x2="823.39" y2="270.32" stroke="#f6465d" stroke-width="1.4" /><rect x="820.39" y="240.39" width="6" height="21.37" rx="1.5" fill="#f6465d" /><line x1="834.13" y1="244.67" x2="834.13" y2="309.50" stroke="#f6465d" stroke-width="1.4" /><rect x="831.13" y="261.77" width="6" height="33.49" rx="1.5" fill="#f6465d" /><line x1="844.86" y1="293.12" x2="844.86" y2="339.43" stroke="#f6465d" stroke-width="1.4" /><rect x="841.86" y="295.25" width="6" height="19.95" rx="1.5" fill="#f6465d" /><line x1="855.59" y1="304.52" x2="855.59" y2="350.83" stroke="#f6465d" stroke-width="1.4" /><rect x="852.59" y="315.20" width="6" height="23.51" rx="1.5" fill="#f6465d" /><line x1="866.33" y1="323.04" x2="866.33" y2="350.83" stroke="#0ecb81" stroke-width="1.4" /><rect x="863.33" y="325.89" width="6" height="12.11" rx="1.5" fill="#0ecb81" /><line x1="877.06" y1="302.38" x2="877.06" y2="333.02" stroke="#0ecb81" stroke-width="1.4" /><rect x="874.06" y="302.38" width="6" height="22.80" rx="1.5" fill="#0ecb81" /><line x1="887.80" y1="283.86" x2="887.80" y2="320.90" stroke="#f6465d" stroke-width="1.4" /><rect x="884.80" y="303.09" width="6" height="14.96" rx="1.5" fill="#f6465d" /><line x1="898.53" y1="308.79" x2="898.53" y2="331.59" stroke="#f6465d" stroke-width="1.4" /><rect x="895.53" y="317.34" width="6" height="2.14" rx="1.5" fill="#f6465d" /><line x1="909.27" y1="316.63" x2="909.27" y2="365.79" stroke="#f6465d" stroke-width="1.4" /><rect x="906.27" y="320.19" width="6" height="12.11" rx="1.5" fill="#f6465d" /><line x1="920.00" y1="331.59" x2="920.00" y2="332.30" stroke="#0ecb81" stroke-width="1.4" /><rect x="917.00" y="331.59" width="6" height="2.00" rx="1.5" fill="#0ecb81" />
  <polyline points="640.91,267.47 673.11,321.62 726.78,234.69 748.25,294.54 791.19,225.43" fill="none" stroke="#2fc273" stroke-width="4" stroke-linecap="round" stroke-linejoin="round" />
  <circle cx="640.91" cy="267.47" r="5.5" fill="#2fc273" fill-opacity="0.15" stroke="#2fc273" stroke-width="2" /><text x="640.91" y="255.47" fill="#f3f4f6" font-size="15" font-weight="700" text-anchor="middle">X</text><circle cx="673.11" cy="321.62" r="5.5" fill="#2fc273" fill-opacity="0.15" stroke="#2fc273" stroke-width="2" /><text x="673.11" y="309.62" fill="#f3f4f6" font-size="15" font-weight="700" text-anchor="middle">A</text><circle cx="726.78" cy="234.69" r="5.5" fill="#2fc273" fill-opacity="0.15" stroke="#2fc273" stroke-width="2" /><text x="726.78" y="222.69" fill="#f3f4f6" font-size="15" font-weight="700" text-anchor="middle">B</text><circle cx="748.25" cy="294.54" r="5.5" fill="#2fc273" fill-opacity="0.15" stroke="#2fc273" stroke-width="2" /><text x="748.25" y="282.54" fill="#f3f4f6" font-size="15" font-weight="700" text-anchor="middle">C</text><circle cx="791.19" cy="225.43" r="5.5" fill="#2fc273" fill-opacity="0.15" stroke="#2fc273" stroke-width="2" /><text x="791.19" y="213.43" fill="#f3f4f6" font-size="15" font-weight="700" text-anchor="middle">D</text>
  <text x="56" y="492" fill="#8ba0b5" font-size="18">일반 완성 · TP1 0.087599 · TP2 0.087371 · SL 0.088069</text>
</svg>
