<svg xmlns="http://www.w3.org/2000/svg" width="960" height="540" viewBox="0 0 960 540">
  <rect width="960" height="540" rx="24" fill="#0b1220" />
  <rect x="28" y="28" width="904" height="484" rx="22" fill="#111827" stroke="#1f2937" />
  <text x="56" y="74" fill="#f3f4f6" font-size="34" font-weight="700">HBARUSDT · AB=CD</text>
  <text x="904" y="74" fill="#8ba0b5" font-size="20" text-anchor="end">Bullish (매수) · Score 89.1</text>
  <line x1="72" y1="58" x2="920" y2="58" stroke="#223045" stroke-width="1" stroke-dasharray="4 8" /><line x1="72" y1="156" x2="920" y2="156" stroke="#223045" stroke-width="1" stroke-dasharray="4 8" /><line x1="72" y1="255" x2="920" y2="255" stroke="#223045" stroke-width="1" stroke-dasharray="4 8" /><line x1="72" y1="353" x2="920" y2="353" stroke="#223045" stroke-width="1" stroke-dasharray="4 8" /><line x1="72" y1="452" x2="920" y2="452" stroke="#223045" stroke-width="1" stroke-dasharray="4 8" />
  <rect x="408.96" y="350.80" width="84" height="38.70" fill="#fbbf24" fill-opacity="0.12" stroke="#fbbf24" stroke-width="1.5" stroke-dasharray="6 6" />
  <line x1="72.00" y1="342.95" x2="72.00" y2="371.09" stroke="#0ecb81" stroke-width="1.4" /><rect x="69.00" y="342.95" width="6" height="22.28" rx="1.5" fill="#0ecb81" /><line x1="82.73" y1="328.88" x2="82.73" y2="351.15" stroke="#0ecb81" stroke-width="1.4" /><rect x="79.73" y="338.26" width="6" height="4.69" rx="1.5" fill="#0ecb81" /><line x1="93.47" y1="335.91" x2="93.47" y2="378.13" stroke="#f6465d" stroke-width="1.4" /><rect x="90.47" y="338.26" width="6" height="31.66" rx="1.5" fill="#f6465d" /><line x1="104.20" y1="349.98" x2="104.20" y2="371.09" stroke="#0ecb81" stroke-width="1.4" /><rect x="101.20" y="366.40" width="6" height="3.52" rx="1.5" fill="#0ecb81" /><line x1="114.94" y1="345.29" x2="114.94" y2="368.74" stroke="#0ecb81" stroke-width="1.4" /><rect x="111.94" y="357.02" width="6" height="9.38" rx="1.5" fill="#0ecb81" /><line x1="125.67" y1="321.84" x2="125.67" y2="362.88" stroke="#0ecb81" stroke-width="1.4" /><rect x="122.67" y="331.22" width="6" height="26.97" rx="1.5" fill="#0ecb81" /><line x1="136.41" y1="330.05" x2="136.41" y2="364.05" stroke="#f6465d" stroke-width="1.4" /><rect x="133.41" y="331.22" width="6" height="14.07" rx="1.5" fill="#f6465d" /><line x1="147.14" y1="304.25" x2="147.14" y2="349.98" stroke="#0ecb81" stroke-width="1.4" /><rect x="144.14" y="312.46" width="6" height="34.01" rx="1.5" fill="#0ecb81" /><line x1="157.87" y1="299.56" x2="157.87" y2="332.39" stroke="#0ecb81" stroke-width="1.4" /><rect x="154.87" y="305.42" width="6" height="7.04" rx="1.5" fill="#0ecb81" /><line x1="168.61" y1="274.93" x2="168.61" y2="313.63" stroke="#0ecb81" stroke-width="1.4" /><rect x="165.61" y="281.97" width="6" height="23.45" rx="1.5" fill="#0ecb81" /><line x1="179.34" y1="276.11" x2="179.34" y2="304.25" stroke="#f6465d" stroke-width="1.4" /><rect x="176.34" y="281.97" width="6" height="9.38" rx="1.5" fill="#f6465d" /><line x1="190.08" y1="271.42" x2="190.08" y2="311.29" stroke="#f6465d" stroke-width="1.4" /><rect x="187.08" y="292.52" width="6" height="11.73" rx="1.5" fill="#f6465d" /><line x1="200.81" y1="280.80" x2="200.81" y2="310.11" stroke="#0ecb81" stroke-width="1.4" /><rect x="197.81" y="293.70" width="6" height="11.73" rx="1.5" fill="#0ecb81" /><line x1="211.54" y1="269.07" x2="211.54" y2="294.87" stroke="#0ecb81" stroke-width="1.4" /><rect x="208.54" y="273.76" width="6" height="19.93" rx="1.5" fill="#0ecb81" /><line x1="222.28" y1="255.00" x2="222.28" y2="285.49" stroke="#f6465d" stroke-width="1.4" /><rect x="219.28" y="273.76" width="6" height="8.21" rx="1.5" fill="#f6465d" /><line x1="233.01" y1="255.00" x2="233.01" y2="287.83" stroke="#0ecb81" stroke-width="1.4" /><rect x="230.01" y="267.90" width="6" height="14.07" rx="1.5" fill="#0ecb81" /><line x1="243.75" y1="250.31" x2="243.75" y2="267.90" stroke="#0ecb81" stroke-width="1.4" /><rect x="240.75" y="251.48" width="6" height="16.42" rx="1.5" fill="#0ecb81" /><line x1="254.48" y1="222.17" x2="254.48" y2="263.21" stroke="#0ecb81" stroke-width="1.4" /><rect x="251.48" y="226.86" width="6" height="24.63" rx="1.5" fill="#0ecb81" /><line x1="265.22" y1="213.96" x2="265.22" y2="247.96" stroke="#f6465d" stroke-width="1.4" /><rect x="262.22" y="226.86" width="6" height="11.73" rx="1.5" fill="#f6465d" /><line x1="275.95" y1="217.48" x2="275.95" y2="271.42" stroke="#f6465d" stroke-width="1.4" /><rect x="272.95" y="239.76" width="6" height="23.45" rx="1.5" fill="#f6465d" /><line x1="286.68" y1="259.69" x2="286.68" y2="305.42" stroke="#f6465d" stroke-width="1.4" /><rect x="283.68" y="262.04" width="6" height="30.49" rx="1.5" fill="#f6465d" /><line x1="297.42" y1="281.97" x2="297.42" y2="308.94" stroke="#0ecb81" stroke-width="1.4" /><rect x="294.42" y="285.49" width="6" height="7.04" rx="1.5" fill="#0ecb81" /><line x1="308.15" y1="280.80" x2="308.15" y2="298.39" stroke="#f6465d" stroke-width="1.4" /><rect x="305.15" y="285.49" width="6" height="9.38" rx="1.5" fill="#f6465d" /><line x1="318.89" y1="257.35" x2="318.89" y2="306.60" stroke="#0ecb81" stroke-width="1.4" /><rect x="315.89" y="258.52" width="6" height="37.52" rx="1.5" fill="#0ecb81" /><line x1="329.62" y1="218.65" x2="329.62" y2="290.18" stroke="#0ecb81" stroke-width="1.4" /><rect x="326.62" y="245.62" width="6" height="14.07" rx="1.5" fill="#0ecb81" /><line x1="340.35" y1="229.20" x2="340.35" y2="319.49" stroke="#f6465d" stroke-width="1.4" /><rect x="337.35" y="245.62" width="6" height="38.70" rx="1.5" fill="#f6465d" /><line x1="351.09" y1="278.45" x2="351.09" y2="300.73" stroke="#0ecb81" stroke-width="1.4" /><rect x="348.09" y="284.32" width="6" height="2.00" rx="1.5" fill="#0ecb81" /><line x1="361.82" y1="272.59" x2="361.82" y2="297.21" stroke="#f6465d" stroke-width="1.4" /><rect x="358.82" y="285.49" width="6" height="7.04" rx="1.5" fill="#f6465d" /><line x1="372.56" y1="278.45" x2="372.56" y2="303.08" stroke="#f6465d" stroke-width="1.4" /><rect x="369.56" y="293.70" width="6" height="3.52" rx="1.5" fill="#f6465d" /><line x1="383.29" y1="297.21" x2="383.29" y2="321.84" stroke="#f6465d" stroke-width="1.4" /><rect x="380.29" y="297.21" width="6" height="12.90" rx="1.5" fill="#f6465d" /><line x1="394.03" y1="296.04" x2="394.03" y2="318.32" stroke="#0ecb81" stroke-width="1.4" /><rect x="391.03" y="305.42" width="6" height="5.86" rx="1.5" fill="#0ecb81" /><line x1="404.76" y1="269.07" x2="404.76" y2="318.32" stroke="#0ecb81" stroke-width="1.4" /><rect x="401.76" y="281.97" width="6" height="22.28" rx="1.5" fill="#0ecb81" /><line x1="415.49" y1="276.11" x2="415.49" y2="310.11" stroke="#f6465d" stroke-width="1.4" /><rect x="412.49" y="283.14" width="6" height="12.90" rx="1.5" fill="#f6465d" /><line x1="426.23" y1="290.18" x2="426.23" y2="321.84" stroke="#f6465d" stroke-width="1.4" /><rect x="423.23" y="296.04" width="6" height="22.28" rx="1.5" fill="#f6465d" /><line x1="436.96" y1="304.25" x2="436.96" y2="353.50" stroke="#f6465d" stroke-width="1.4" /><rect x="433.96" y="318.32" width="6" height="4.69" rx="1.5" fill="#f6465d" /><line x1="447.70" y1="313.63" x2="447.70" y2="347.64" stroke="#f6465d" stroke-width="1.4" /><rect x="444.70" y="321.84" width="6" height="12.90" rx="1.5" fill="#f6465d" /><line x1="458.43" y1="328.88" x2="458.43" y2="347.64" stroke="#0ecb81" stroke-width="1.4" /><rect x="455.43" y="332.39" width="6" height="2.35" rx="1.5" fill="#0ecb81" /><line x1="469.16" y1="313.63" x2="469.16" y2="332.39" stroke="#0ecb81" stroke-width="1.4" /><rect x="466.16" y="319.49" width="6" height="12.90" rx="1.5" fill="#0ecb81" /><line x1="479.90" y1="303.08" x2="479.90" y2="340.60" stroke="#f6465d" stroke-width="1.4" /><rect x="476.90" y="318.32" width="6" height="16.42" rx="1.5" fill="#f6465d" /><line x1="490.63" y1="300.73" x2="490.63" y2="347.64" stroke="#0ecb81" stroke-width="1.4" /><rect x="487.63" y="321.84" width="6" height="14.07" rx="1.5" fill="#0ecb81" /><line x1="501.37" y1="315.98" x2="501.37" y2="338.26" stroke="#0ecb81" stroke-width="1.4" /><rect x="498.37" y="318.32" width="6" height="2.35" rx="1.5" fill="#0ecb81" /><line x1="512.10" y1="276.11" x2="512.10" y2="373.43" stroke="#f6465d" stroke-width="1.4" /><rect x="509.10" y="319.49" width="6" height="39.87" rx="1.5" fill="#f6465d" /><line x1="522.84" y1="317.15" x2="522.84" y2="400.40" stroke="#f6465d" stroke-width="1.4" /><rect x="519.84" y="359.36" width="6" height="22.28" rx="1.5" fill="#f6465d" /><line x1="533.57" y1="353.50" x2="533.57" y2="403.92" stroke="#0ecb81" stroke-width="1.4" /><rect x="530.57" y="358.19" width="6" height="22.28" rx="1.5" fill="#0ecb81" /><line x1="544.30" y1="349.98" x2="544.30" y2="385.16" stroke="#f6465d" stroke-width="1.4" /><rect x="541.30" y="357.02" width="6" height="8.21" rx="1.5" fill="#f6465d" /><line x1="555.04" y1="362.88" x2="555.04" y2="393.37" stroke="#f6465d" stroke-width="1.4" /><rect x="552.04" y="364.05" width="6" height="21.11" rx="1.5" fill="#f6465d" /><line x1="565.77" y1="378.13" x2="565.77" y2="421.51" stroke="#f6465d" stroke-width="1.4" /><rect x="562.77" y="383.99" width="6" height="29.32" rx="1.5" fill="#f6465d" /><line x1="576.51" y1="398.06" x2="576.51" y2="452.00" stroke="#f6465d" stroke-width="1.4" /><rect x="573.51" y="413.30" width="6" height="28.14" rx="1.5" fill="#f6465d" /><line x1="587.24" y1="406.27" x2="587.24" y2="452.00" stroke="#0ecb81" stroke-width="1.4" /><rect x="584.24" y="414.48" width="6" height="28.14" rx="1.5" fill="#0ecb81" /><line x1="597.97" y1="393.37" x2="597.97" y2="443.79" stroke="#f6465d" stroke-width="1.4" /><rect x="594.97" y="414.48" width="6" height="7.04" rx="1.5" fill="#f6465d" /><line x1="608.71" y1="383.99" x2="608.71" y2="435.58" stroke="#0ecb81" stroke-width="1.4" /><rect x="605.71" y="383.99" width="6" height="38.70" rx="1.5" fill="#0ecb81" /><line x1="619.44" y1="348.81" x2="619.44" y2="401.58" stroke="#0ecb81" stroke-width="1.4" /><rect x="616.44" y="375.78" width="6" height="8.21" rx="1.5" fill="#0ecb81" /><line x1="630.18" y1="303.08" x2="630.18" y2="379.30" stroke="#0ecb81" stroke-width="1.4" /><rect x="627.18" y="306.60" width="6" height="68.01" rx="1.5" fill="#0ecb81" /><line x1="640.91" y1="298.39" x2="640.91" y2="347.64" stroke="#f6465d" stroke-width="1.4" /><rect x="637.91" y="306.60" width="6" height="34.01" rx="1.5" fill="#f6465d" /><line x1="651.65" y1="323.01" x2="651.65" y2="386.33" stroke="#f6465d" stroke-width="1.4" /><rect x="648.65" y="341.77" width="6" height="34.01" rx="1.5" fill="#f6465d" /><line x1="662.38" y1="342.95" x2="662.38" y2="410.96" stroke="#0ecb81" stroke-width="1.4" /><rect x="659.38" y="376.95" width="6" height="2.00" rx="1.5" fill="#0ecb81" /><line x1="673.11" y1="274.93" x2="673.11" y2="381.64" stroke="#0ecb81" stroke-width="1.4" /><rect x="670.11" y="296.04" width="6" height="79.74" rx="1.5" fill="#0ecb81" /><line x1="683.85" y1="284.32" x2="683.85" y2="332.39" stroke="#f6465d" stroke-width="1.4" /><rect x="680.85" y="294.87" width="6" height="12.90" rx="1.5" fill="#f6465d" /><line x1="694.58" y1="273.76" x2="694.58" y2="313.63" stroke="#0ecb81" stroke-width="1.4" /><rect x="691.58" y="287.83" width="6" height="18.76" rx="1.5" fill="#0ecb81" /><line x1="705.32" y1="251.48" x2="705.32" y2="318.32" stroke="#f6465d" stroke-width="1.4" /><rect x="702.32" y="286.66" width="6" height="23.45" rx="1.5" fill="#f6465d" /><line x1="716.05" y1="310.11" x2="716.05" y2="385.16" stroke="#f6465d" stroke-width="1.4" /><rect x="713.05" y="311.29" width="6" height="59.80" rx="1.5" fill="#f6465d" /><line x1="726.78" y1="337.08" x2="726.78" y2="376.95" stroke="#0ecb81" stroke-width="1.4" /><rect x="723.78" y="338.26" width="6" height="32.83" rx="1.5" fill="#0ecb81" /><line x1="737.52" y1="286.66" x2="737.52" y2="341.77" stroke="#0ecb81" stroke-width="1.4" /><rect x="734.52" y="313.63" width="6" height="24.63" rx="1.5" fill="#0ecb81" /><line x1="748.25" y1="307.77" x2="748.25" y2="332.39" stroke="#f6465d" stroke-width="1.4" /><rect x="745.25" y="313.63" width="6" height="2.00" rx="1.5" fill="#f6465d" /><line x1="758.99" y1="293.70" x2="758.99" y2="313.63" stroke="#0ecb81" stroke-width="1.4" /><rect x="755.99" y="297.21" width="6" height="16.42" rx="1.5" fill="#0ecb81" /><line x1="769.72" y1="258.52" x2="769.72" y2="308.94" stroke="#0ecb81" stroke-width="1.4" /><rect x="766.72" y="260.86" width="6" height="37.52" rx="1.5" fill="#0ecb81" /><line x1="780.46" y1="252.65" x2="780.46" y2="294.87" stroke="#f6465d" stroke-width="1.4" /><rect x="777.46" y="259.69" width="6" height="26.97" rx="1.5" fill="#f6465d" /><line x1="791.19" y1="267.90" x2="791.19" y2="307.77" stroke="#0ecb81" stroke-width="1.4" /><rect x="788.19" y="269.07" width="6" height="16.42" rx="1.5" fill="#0ecb81" /><line x1="801.92" y1="240.93" x2="801.92" y2="272.59" stroke="#0ecb81" stroke-width="1.4" /><rect x="798.92" y="244.45" width="6" height="24.63" rx="1.5" fill="#0ecb81" /><line x1="812.66" y1="232.72" x2="812.66" y2="294.87" stroke="#f6465d" stroke-width="1.4" /><rect x="809.66" y="243.27" width="6" height="35.18" rx="1.5" fill="#f6465d" /><line x1="823.39" y1="245.62" x2="823.39" y2="286.66" stroke="#0ecb81" stroke-width="1.4" /><rect x="820.39" y="255.00" width="6" height="23.45" rx="1.5" fill="#0ecb81" /><line x1="834.13" y1="209.27" x2="834.13" y2="265.55" stroke="#0ecb81" stroke-width="1.4" /><rect x="831.13" y="213.96" width="6" height="42.21" rx="1.5" fill="#0ecb81" /><line x1="844.86" y1="198.71" x2="844.86" y2="228.03" stroke="#0ecb81" stroke-width="1.4" /><rect x="841.86" y="208.10" width="6" height="7.04" rx="1.5" fill="#0ecb81" /><line x1="855.59" y1="176.43" x2="855.59" y2="210.44" stroke="#0ecb81" stroke-width="1.4" /><rect x="852.59" y="178.78" width="6" height="29.32" rx="1.5" fill="#0ecb81" /><line x1="866.33" y1="128.36" x2="866.33" y2="192.85" stroke="#0ecb81" stroke-width="1.4" /><rect x="863.33" y="148.29" width="6" height="30.49" rx="1.5" fill="#0ecb81" /><line x1="877.06" y1="96.70" x2="877.06" y2="148.29" stroke="#0ecb81" stroke-width="1.4" /><rect x="874.06" y="115.46" width="6" height="31.66" rx="1.5" fill="#0ecb81" /><line x1="887.80" y1="81.45" x2="887.80" y2="123.67" stroke="#0ecb81" stroke-width="1.4" /><rect x="884.80" y="101.39" width="6" height="15.24" rx="1.5" fill="#0ecb81" /><line x1="898.53" y1="61.52" x2="898.53" y2="131.88" stroke="#f6465d" stroke-width="1.4" /><rect x="895.53" y="101.39" width="6" height="9.38" rx="1.5" fill="#f6465d" /><line x1="909.27" y1="68.55" x2="909.27" y2="121.32" stroke="#0ecb81" stroke-width="1.4" /><rect x="906.27" y="68.55" width="6" height="42.21" rx="1.5" fill="#0ecb81" /><line x1="920.00" y1="58.00" x2="920.00" y2="99.04" stroke="#f6465d" stroke-width="1.4" /><rect x="917.00" y="68.55" width="6" height="22.28" rx="1.5" fill="#f6465d" />
  <polyline points="297.42,308.94 329.62,218.65 383.29,321.84 404.76,269.07 436.96,353.50" fill="none" stroke="#2fc273" stroke-width="4" stroke-linecap="round" stroke-linejoin="round" />
  <circle cx="297.42" cy="308.94" r="5.5" fill="#2fc273" fill-opacity="0.15" stroke="#2fc273" stroke-width="2" /><text x="297.42" y="296.94" fill="#f3f4f6" font-size="15" font-weight="700" text-anchor="middle">X</text><circle cx="329.62" cy="218.65" r="5.5" fill="#2fc273" fill-opacity="0.15" stroke="#2fc273" stroke-width="2" /><text x="329.62" y="206.65" fill="#f3f4f6" font-size="15" font-weight="700" text-anchor="middle">A</text><circle cx="383.29" cy="321.84" r="5.5" fill="#2fc273" fill-opacity="0.15" stroke="#2fc273" stroke-width="2" /><text x="383.29" y="309.84" fill="#f3f4f6" font-size="15" font-weight="700" text-anchor="middle">B</text><circle cx="404.76" cy="269.07" r="5.5" fill="#2fc273" fill-opacity="0.15" stroke="#2fc273" stroke-width="2" /><text x="404.76" y="257.07" fill="#f3f4f6" font-size="15" font-weight="700" text-anchor="middle">C</text><circle cx="436.96" cy="353.50" r="5.5" fill="#2fc273" fill-opacity="0.15" stroke="#2fc273" stroke-width="2" /><text x="436.96" y="341.50" fill="#f3f4f6" font-size="15" font-weight="700" text-anchor="middle">D</text>
  <text x="56" y="492" fill="#8ba0b5" font-size="18">Complete · TP1 0.066475 · TP2 0.066645 · SL 0.0661</text>
</svg>
