<svg xmlns="http://www.w3.org/2000/svg" width="960" height="540" viewBox="0 0 960 540">
  <rect width="960" height="540" rx="24" fill="#0b1220" />
  <rect x="28" y="28" width="904" height="484" rx="22" fill="#111827" stroke="#1f2937" />
  <text x="56" y="74" fill="#f3f4f6" font-size="34" font-weight="700">HEMIUSDT · AB=CD</text>
  <text x="904" y="74" fill="#8ba0b5" font-size="20" text-anchor="end">Bearish (매도) · Score 81.7</text>
  <line x1="72" y1="58" x2="920" y2="58" stroke="#223045" stroke-width="1" stroke-dasharray="4 8" /><line x1="72" y1="156" x2="920" y2="156" stroke="#223045" stroke-width="1" stroke-dasharray="4 8" /><line x1="72" y1="255" x2="920" y2="255" stroke="#223045" stroke-width="1" stroke-dasharray="4 8" /><line x1="72" y1="353" x2="920" y2="353" stroke="#223045" stroke-width="1" stroke-dasharray="4 8" /><line x1="72" y1="452" x2="920" y2="452" stroke="#223045" stroke-width="1" stroke-dasharray="4 8" />
  <rect x="806.13" y="226.54" width="84" height="6.08" fill="#fbbf24" fill-opacity="0.12" stroke="#fbbf24" stroke-width="1.5" stroke-dasharray="6 6" />
  <line x1="72.00" y1="344.82" x2="72.00" y2="426.34" stroke="#0ecb81" stroke-width="1.4" /><rect x="69.00" y="349.64" width="6" height="58.37" rx="1.5" fill="#0ecb81" /><line x1="82.73" y1="304.49" x2="82.73" y2="375.50" stroke="#0ecb81" stroke-width="1.4" /><rect x="79.73" y="308.45" width="6" height="42.16" rx="1.5" fill="#0ecb81" /><line x1="93.47" y1="235.42" x2="93.47" y2="370.48" stroke="#f6465d" stroke-width="1.4" /><rect x="90.47" y="308.35" width="6" height="21.51" rx="1.5" fill="#f6465d" /><line x1="104.20" y1="315.97" x2="104.20" y2="365.95" stroke="#0ecb81" stroke-width="1.4" /><rect x="101.20" y="324.27" width="6" height="5.50" rx="1.5" fill="#0ecb81" /><line x1="114.94" y1="288.96" x2="114.94" y2="344.91" stroke="#0ecb81" stroke-width="1.4" /><rect x="111.94" y="300.54" width="6" height="23.44" rx="1.5" fill="#0ecb81" /><line x1="125.67" y1="112.80" x2="125.67" y2="337.58" stroke="#0ecb81" stroke-width="1.4" /><rect x="122.67" y="188.63" width="6" height="111.43" rx="1.5" fill="#0ecb81" /><line x1="136.41" y1="58.00" x2="136.41" y2="235.03" stroke="#0ecb81" stroke-width="1.4" /><rect x="133.41" y="165.38" width="6" height="23.25" rx="1.5" fill="#0ecb81" /><line x1="147.14" y1="151.77" x2="147.14" y2="253.75" stroke="#f6465d" stroke-width="1.4" /><rect x="144.14" y="165.28" width="6" height="55.86" rx="1.5" fill="#f6465d" /><line x1="157.87" y1="217.09" x2="157.87" y2="393.83" stroke="#f6465d" stroke-width="1.4" /><rect x="154.87" y="221.14" width="6" height="166.90" rx="1.5" fill="#f6465d" /><line x1="168.61" y1="353.11" x2="168.61" y2="414.86" stroke="#0ecb81" stroke-width="1.4" /><rect x="165.61" y="359.29" width="6" height="28.65" rx="1.5" fill="#0ecb81" /><line x1="179.34" y1="359.87" x2="179.34" y2="389.48" stroke="#f6465d" stroke-width="1.4" /><rect x="176.34" y="359.87" width="6" height="20.16" rx="1.5" fill="#f6465d" /><line x1="190.08" y1="342.41" x2="190.08" y2="395.37" stroke="#0ecb81" stroke-width="1.4" /><rect x="187.08" y="353.89" width="6" height="25.86" rx="1.5" fill="#0ecb81" /><line x1="200.81" y1="352.73" x2="200.81" y2="386.69" stroke="#f6465d" stroke-width="1.4" /><rect x="197.81" y="354.08" width="6" height="24.99" rx="1.5" fill="#f6465d" /><line x1="211.54" y1="364.11" x2="211.54" y2="385.72" stroke="#f6465d" stroke-width="1.4" /><rect x="208.54" y="378.97" width="6" height="3.86" rx="1.5" fill="#f6465d" /><line x1="222.28" y1="377.91" x2="222.28" y2="408.88" stroke="#f6465d" stroke-width="1.4" /><rect x="219.28" y="382.92" width="6" height="13.99" rx="1.5" fill="#f6465d" /><line x1="233.01" y1="393.44" x2="233.01" y2="404.73" stroke="#f6465d" stroke-width="1.4" /><rect x="230.01" y="396.72" width="6" height="2.00" rx="1.5" fill="#f6465d" /><line x1="243.75" y1="385.43" x2="243.75" y2="403.18" stroke="#f6465d" stroke-width="1.4" /><rect x="240.75" y="398.55" width="6" height="3.09" rx="1.5" fill="#f6465d" /><line x1="254.48" y1="399.81" x2="254.48" y2="436.56" stroke="#f6465d" stroke-width="1.4" /><rect x="251.48" y="401.93" width="6" height="31.26" rx="1.5" fill="#f6465d" /><line x1="265.22" y1="416.21" x2="265.22" y2="435.12" stroke="#0ecb81" stroke-width="1.4" /><rect x="262.22" y="423.44" width="6" height="9.65" rx="1.5" fill="#0ecb81" /><line x1="275.95" y1="420.65" x2="275.95" y2="435.99" stroke="#f6465d" stroke-width="1.4" /><rect x="272.95" y="423.44" width="6" height="5.11" rx="1.5" fill="#f6465d" /><line x1="286.68" y1="422.67" x2="286.68" y2="442.16" stroke="#f6465d" stroke-width="1.4" /><rect x="283.68" y="428.85" width="6" height="9.07" rx="1.5" fill="#f6465d" /><line x1="297.42" y1="427.50" x2="297.42" y2="452.00" stroke="#f6465d" stroke-width="1.4" /><rect x="294.42" y="437.72" width="6" height="3.18" rx="1.5" fill="#f6465d" /><line x1="308.15" y1="427.98" x2="308.15" y2="443.32" stroke="#0ecb81" stroke-width="1.4" /><rect x="305.15" y="430.68" width="6" height="10.32" rx="1.5" fill="#0ecb81" /><line x1="318.89" y1="404.53" x2="318.89" y2="431.74" stroke="#0ecb81" stroke-width="1.4" /><rect x="315.89" y="412.16" width="6" height="18.52" rx="1.5" fill="#0ecb81" /><line x1="329.62" y1="384.95" x2="329.62" y2="416.02" stroke="#0ecb81" stroke-width="1.4" /><rect x="326.62" y="403.38" width="6" height="8.59" rx="1.5" fill="#0ecb81" /><line x1="340.35" y1="394.40" x2="340.35" y2="420.65" stroke="#f6465d" stroke-width="1.4" /><rect x="337.35" y="403.28" width="6" height="12.83" rx="1.5" fill="#f6465d" /><line x1="351.09" y1="399.81" x2="351.09" y2="416.40" stroke="#0ecb81" stroke-width="1.4" /><rect x="348.09" y="399.90" width="6" height="15.92" rx="1.5" fill="#0ecb81" /><line x1="361.82" y1="369.32" x2="361.82" y2="404.05" stroke="#0ecb81" stroke-width="1.4" /><rect x="358.82" y="383.70" width="6" height="16.11" rx="1.5" fill="#0ecb81" /><line x1="372.56" y1="339.90" x2="372.56" y2="384.56" stroke="#0ecb81" stroke-width="1.4" /><rect x="369.56" y="347.90" width="6" height="35.70" rx="1.5" fill="#0ecb81" /><line x1="383.29" y1="320.02" x2="383.29" y2="359.48" stroke="#0ecb81" stroke-width="1.4" /><rect x="380.29" y="324.27" width="6" height="23.73" rx="1.5" fill="#0ecb81" /><line x1="394.03" y1="305.94" x2="394.03" y2="388.04" stroke="#f6465d" stroke-width="1.4" /><rect x="391.03" y="324.27" width="6" height="56.34" rx="1.5" fill="#f6465d" /><line x1="404.76" y1="356.20" x2="404.76" y2="411.38" stroke="#f6465d" stroke-width="1.4" /><rect x="401.76" y="380.51" width="6" height="2.00" rx="1.5" fill="#f6465d" /><line x1="415.49" y1="354.37" x2="415.49" y2="402.22" stroke="#0ecb81" stroke-width="1.4" /><rect x="412.49" y="370.00" width="6" height="10.32" rx="1.5" fill="#0ecb81" /><line x1="426.23" y1="324.27" x2="426.23" y2="371.06" stroke="#0ecb81" stroke-width="1.4" /><rect x="423.23" y="342.31" width="6" height="27.50" rx="1.5" fill="#0ecb81" /><line x1="436.96" y1="304.20" x2="436.96" y2="351.18" stroke="#0ecb81" stroke-width="1.4" /><rect x="433.96" y="339.99" width="6" height="2.00" rx="1.5" fill="#0ecb81" /><line x1="447.70" y1="332.85" x2="447.70" y2="351.38" stroke="#f6465d" stroke-width="1.4" /><rect x="444.70" y="339.70" width="6" height="2.41" rx="1.5" fill="#f6465d" /><line x1="458.43" y1="335.17" x2="458.43" y2="361.99" stroke="#f6465d" stroke-width="1.4" /><rect x="455.43" y="341.73" width="6" height="19.49" rx="1.5" fill="#f6465d" /><line x1="469.16" y1="357.55" x2="469.16" y2="374.15" stroke="#0ecb81" stroke-width="1.4" /><rect x="466.16" y="359.48" width="6" height="2.00" rx="1.5" fill="#0ecb81" /><line x1="479.90" y1="335.07" x2="479.90" y2="360.74" stroke="#0ecb81" stroke-width="1.4" /><rect x="476.90" y="337.49" width="6" height="21.90" rx="1.5" fill="#0ecb81" /><line x1="490.63" y1="200.49" x2="490.63" y2="342.21" stroke="#0ecb81" stroke-width="1.4" /><rect x="487.63" y="227.12" width="6" height="109.40" rx="1.5" fill="#0ecb81" /><line x1="501.37" y1="220.85" x2="501.37" y2="277.48" stroke="#f6465d" stroke-width="1.4" /><rect x="498.37" y="227.41" width="6" height="40.04" rx="1.5" fill="#f6465d" /><line x1="512.10" y1="256.74" x2="512.10" y2="299.47" stroke="#f6465d" stroke-width="1.4" /><rect x="509.10" y="267.35" width="6" height="21.90" rx="1.5" fill="#f6465d" /><line x1="522.84" y1="230.69" x2="522.84" y2="290.12" stroke="#0ecb81" stroke-width="1.4" /><rect x="519.84" y="263.49" width="6" height="25.08" rx="1.5" fill="#0ecb81" /><line x1="533.57" y1="232.62" x2="533.57" y2="278.15" stroke="#f6465d" stroke-width="1.4" /><rect x="530.57" y="263.59" width="6" height="8.20" rx="1.5" fill="#f6465d" /><line x1="544.30" y1="269.47" x2="544.30" y2="308.35" stroke="#f6465d" stroke-width="1.4" /><rect x="541.30" y="271.88" width="6" height="29.71" rx="1.5" fill="#f6465d" /><line x1="555.04" y1="251.24" x2="555.04" y2="306.23" stroke="#0ecb81" stroke-width="1.4" /><rect x="552.04" y="281.14" width="6" height="20.55" rx="1.5" fill="#0ecb81" /><line x1="565.77" y1="253.75" x2="565.77" y2="341.34" stroke="#f6465d" stroke-width="1.4" /><rect x="562.77" y="280.95" width="6" height="42.16" rx="1.5" fill="#f6465d" /><line x1="576.51" y1="293.40" x2="576.51" y2="337.58" stroke="#0ecb81" stroke-width="1.4" /><rect x="573.51" y="298.61" width="6" height="24.41" rx="1.5" fill="#0ecb81" /><line x1="587.24" y1="294.84" x2="587.24" y2="328.80" stroke="#f6465d" stroke-width="1.4" /><rect x="584.24" y="298.61" width="6" height="16.69" rx="1.5" fill="#f6465d" /><line x1="597.97" y1="314.81" x2="597.97" y2="329.86" stroke="#f6465d" stroke-width="1.4" /><rect x="594.97" y="315.30" width="6" height="10.61" rx="1.5" fill="#f6465d" /><line x1="608.71" y1="322.72" x2="608.71" y2="350.32" stroke="#f6465d" stroke-width="1.4" /><rect x="605.71" y="325.52" width="6" height="24.79" rx="1.5" fill="#f6465d" /><line x1="619.44" y1="333.24" x2="619.44" y2="357.94" stroke="#f6465d" stroke-width="1.4" /><rect x="616.44" y="350.12" width="6" height="7.72" rx="1.5" fill="#f6465d" /><line x1="630.18" y1="348.00" x2="630.18" y2="364.69" stroke="#f6465d" stroke-width="1.4" /><rect x="627.18" y="357.74" width="6" height="2.99" rx="1.5" fill="#f6465d" /><line x1="640.91" y1="356.01" x2="640.91" y2="366.72" stroke="#0ecb81" stroke-width="1.4" /><rect x="637.91" y="356.20" width="6" height="4.53" rx="1.5" fill="#0ecb81" /><line x1="651.65" y1="333.82" x2="651.65" y2="359.48" stroke="#0ecb81" stroke-width="1.4" /><rect x="648.65" y="344.33" width="6" height="12.16" rx="1.5" fill="#0ecb81" /><line x1="662.38" y1="332.37" x2="662.38" y2="355.72" stroke="#0ecb81" stroke-width="1.4" /><rect x="659.38" y="337.68" width="6" height="6.66" rx="1.5" fill="#0ecb81" /><line x1="673.11" y1="289.34" x2="673.11" y2="337.97" stroke="#0ecb81" stroke-width="1.4" /><rect x="670.11" y="301.21" width="6" height="36.47" rx="1.5" fill="#0ecb81" /><line x1="683.85" y1="199.82" x2="683.85" y2="303.62" stroke="#0ecb81" stroke-width="1.4" /><rect x="680.85" y="245.26" width="6" height="56.05" rx="1.5" fill="#0ecb81" /><line x1="694.58" y1="223.45" x2="694.58" y2="262.62" stroke="#f6465d" stroke-width="1.4" /><rect x="691.58" y="245.16" width="6" height="12.83" rx="1.5" fill="#f6465d" /><line x1="705.32" y1="241.20" x2="705.32" y2="280.08" stroke="#f6465d" stroke-width="1.4" /><rect x="702.32" y="258.38" width="6" height="20.26" rx="1.5" fill="#f6465d" /><line x1="716.05" y1="275.65" x2="716.05" y2="307.77" stroke="#f6465d" stroke-width="1.4" /><rect x="713.05" y="278.93" width="6" height="5.88" rx="1.5" fill="#f6465d" /><line x1="726.78" y1="277.48" x2="726.78" y2="302.08" stroke="#f6465d" stroke-width="1.4" /><rect x="723.78" y="284.71" width="6" height="12.16" rx="1.5" fill="#f6465d" /><line x1="737.52" y1="274.68" x2="737.52" y2="306.52" stroke="#f6465d" stroke-width="1.4" /><rect x="734.52" y="296.87" width="6" height="2.60" rx="1.5" fill="#f6465d" /><line x1="748.25" y1="254.32" x2="748.25" y2="299.57" stroke="#0ecb81" stroke-width="1.4" /><rect x="745.25" y="273.62" width="6" height="25.86" rx="1.5" fill="#0ecb81" /><line x1="758.99" y1="269.76" x2="758.99" y2="286.74" stroke="#f6465d" stroke-width="1.4" /><rect x="755.99" y="273.62" width="6" height="2.00" rx="1.5" fill="#f6465d" /><line x1="769.72" y1="270.92" x2="769.72" y2="303.82" stroke="#f6465d" stroke-width="1.4" /><rect x="766.72" y="273.81" width="6" height="5.31" rx="1.5" fill="#f6465d" /><line x1="780.46" y1="271.11" x2="780.46" y2="289.25" stroke="#f6465d" stroke-width="1.4" /><rect x="777.46" y="279.12" width="6" height="2.00" rx="1.5" fill="#f6465d" /><line x1="791.19" y1="242.94" x2="791.19" y2="283.07" stroke="#0ecb81" stroke-width="1.4" /><rect x="788.19" y="263.01" width="6" height="17.37" rx="1.5" fill="#0ecb81" /><line x1="801.92" y1="246.12" x2="801.92" y2="274.78" stroke="#0ecb81" stroke-width="1.4" /><rect x="798.92" y="252.88" width="6" height="10.03" rx="1.5" fill="#0ecb81" /><line x1="812.66" y1="229.24" x2="812.66" y2="260.02" stroke="#f6465d" stroke-width="1.4" /><rect x="809.66" y="252.88" width="6" height="2.00" rx="1.5" fill="#f6465d" /><line x1="823.39" y1="241.30" x2="823.39" y2="286.06" stroke="#f6465d" stroke-width="1.4" /><rect x="820.39" y="253.94" width="6" height="3.47" rx="1.5" fill="#f6465d" /><line x1="834.13" y1="223.65" x2="834.13" y2="274.20" stroke="#0ecb81" stroke-width="1.4" /><rect x="831.13" y="229.05" width="6" height="28.75" rx="1.5" fill="#0ecb81" /><line x1="844.86" y1="227.99" x2="844.86" y2="272.75" stroke="#f6465d" stroke-width="1.4" /><rect x="841.86" y="229.05" width="6" height="18.81" rx="1.5" fill="#f6465d" /><line x1="855.59" y1="231.94" x2="855.59" y2="262.52" stroke="#f6465d" stroke-width="1.4" /><rect x="852.59" y="247.76" width="6" height="5.69" rx="1.5" fill="#f6465d" /><line x1="866.33" y1="247.09" x2="866.33" y2="290.21" stroke="#f6465d" stroke-width="1.4" /><rect x="863.33" y="253.65" width="6" height="28.85" rx="1.5" fill="#f6465d" /><line x1="877.06" y1="279.50" x2="877.06" y2="311.73" stroke="#f6465d" stroke-width="1.4" /><rect x="874.06" y="282.40" width="6" height="20.84" rx="1.5" fill="#f6465d" /><line x1="887.80" y1="287.70" x2="887.80" y2="315.68" stroke="#0ecb81" stroke-width="1.4" /><rect x="884.80" y="297.83" width="6" height="5.31" rx="1.5" fill="#0ecb81" /><line x1="898.53" y1="296.29" x2="898.53" y2="342.12" stroke="#f6465d" stroke-width="1.4" /><rect x="895.53" y="297.83" width="6" height="39.26" rx="1.5" fill="#f6465d" /><line x1="909.27" y1="334.49" x2="909.27" y2="376.27" stroke="#f6465d" stroke-width="1.4" /><rect x="906.27" y="337.20" width="6" height="31.64" rx="1.5" fill="#f6465d" /><line x1="920.00" y1="359.96" x2="920.00" y2="371.73" stroke="#f6465d" stroke-width="1.4" /><rect x="917.00" y="368.84" width="6" height="2.00" rx="1.5" fill="#f6465d" />
  <polyline points="683.85,199.82 716.05,307.77 748.25,254.32 823.39,286.06 834.13,223.65" fill="none" stroke="#2fc273" stroke-width="4" stroke-linecap="round" stroke-linejoin="round" />
  <circle cx="683.85" cy="199.82" r="5.5" fill="#2fc273" fill-opacity="0.15" stroke="#2fc273" stroke-width="2" /><text x="683.85" y="187.82" fill="#f3f4f6" font-size="15" font-weight="700" text-anchor="middle">X</text><circle cx="716.05" cy="307.77" r="5.5" fill="#2fc273" fill-opacity="0.15" stroke="#2fc273" stroke-width="2" /><text x="716.05" y="295.77" fill="#f3f4f6" font-size="15" font-weight="700" text-anchor="middle">A</text><circle cx="748.25" cy="254.32" r="5.5" fill="#2fc273" fill-opacity="0.15" stroke="#2fc273" stroke-width="2" /><text x="748.25" y="242.32" fill="#f3f4f6" font-size="15" font-weight="700" text-anchor="middle">B</text><circle cx="823.39" cy="286.06" r="5.5" fill="#2fc273" fill-opacity="0.15" stroke="#2fc273" stroke-width="2" /><text x="823.39" y="274.06" fill="#f3f4f6" font-size="15" font-weight="700" text-anchor="middle">C</text><circle cx="834.13" cy="223.65" r="5.5" fill="#2fc273" fill-opacity="0.15" stroke="#2fc273" stroke-width="2" /><text x="834.13" y="211.65" fill="#f3f4f6" font-size="15" font-weight="700" text-anchor="middle">D</text>
  <text x="56" y="492" fill="#8ba0b5" font-size="18">일반 완성 · TP1 0.008775 · TP2 0.008622 · SL 0.009167</text>
</svg>
