<svg xmlns="http://www.w3.org/2000/svg" width="960" height="540" viewBox="0 0 960 540">
  <rect width="960" height="540" rx="24" fill="#0b1220" />
  <rect x="28" y="28" width="904" height="484" rx="22" fill="#111827" stroke="#1f2937" />
  <text x="56" y="74" fill="#f3f4f6" font-size="34" font-weight="700">HEMIUSDT · AB=CD</text>
  <text x="904" y="74" fill="#8ba0b5" font-size="20" text-anchor="end">Bearish (매도) · Score 79.6</text>
  <line x1="72" y1="58" x2="920" y2="58" stroke="#223045" stroke-width="1" stroke-dasharray="4 8" /><line x1="72" y1="156" x2="920" y2="156" stroke="#223045" stroke-width="1" stroke-dasharray="4 8" /><line x1="72" y1="255" x2="920" y2="255" stroke="#223045" stroke-width="1" stroke-dasharray="4 8" /><line x1="72" y1="353" x2="920" y2="353" stroke="#223045" stroke-width="1" stroke-dasharray="4 8" /><line x1="72" y1="452" x2="920" y2="452" stroke="#223045" stroke-width="1" stroke-dasharray="4 8" />
  <rect x="816.86" y="222.04" width="84" height="5.92" fill="#fbbf24" fill-opacity="0.12" stroke="#fbbf24" stroke-width="1.5" stroke-dasharray="6 6" />
  <line x1="72.00" y1="382.33" x2="72.00" y2="452.00" stroke="#0ecb81" stroke-width="1.4" /><rect x="69.00" y="399.23" width="6" height="36.34" rx="1.5" fill="#0ecb81" /><line x1="82.73" y1="337.16" x2="82.73" y2="416.51" stroke="#0ecb81" stroke-width="1.4" /><rect x="79.73" y="341.86" width="6" height="56.81" rx="1.5" fill="#0ecb81" /><line x1="93.47" y1="297.91" x2="93.47" y2="367.02" stroke="#0ecb81" stroke-width="1.4" /><rect x="90.47" y="301.76" width="6" height="41.03" rx="1.5" fill="#0ecb81" /><line x1="104.20" y1="230.68" x2="104.20" y2="362.14" stroke="#f6465d" stroke-width="1.4" /><rect x="101.20" y="301.67" width="6" height="20.94" rx="1.5" fill="#f6465d" /><line x1="114.94" y1="309.09" x2="114.94" y2="357.73" stroke="#0ecb81" stroke-width="1.4" /><rect x="111.94" y="317.16" width="6" height="5.35" rx="1.5" fill="#0ecb81" /><line x1="125.67" y1="282.79" x2="125.67" y2="337.26" stroke="#0ecb81" stroke-width="1.4" /><rect x="122.67" y="294.06" width="6" height="22.82" rx="1.5" fill="#0ecb81" /><line x1="136.41" y1="111.33" x2="136.41" y2="330.12" stroke="#0ecb81" stroke-width="1.4" /><rect x="133.41" y="185.14" width="6" height="108.45" rx="1.5" fill="#0ecb81" /><line x1="147.14" y1="58.00" x2="147.14" y2="230.30" stroke="#0ecb81" stroke-width="1.4" /><rect x="144.14" y="162.51" width="6" height="22.63" rx="1.5" fill="#0ecb81" /><line x1="157.87" y1="149.27" x2="157.87" y2="248.52" stroke="#f6465d" stroke-width="1.4" /><rect x="154.87" y="162.42" width="6" height="54.37" rx="1.5" fill="#f6465d" /><line x1="168.61" y1="212.84" x2="168.61" y2="384.86" stroke="#f6465d" stroke-width="1.4" /><rect x="165.61" y="216.78" width="6" height="162.45" rx="1.5" fill="#f6465d" /><line x1="179.34" y1="345.24" x2="179.34" y2="405.33" stroke="#0ecb81" stroke-width="1.4" /><rect x="176.34" y="351.25" width="6" height="27.89" rx="1.5" fill="#0ecb81" /><line x1="190.08" y1="351.81" x2="190.08" y2="380.64" stroke="#f6465d" stroke-width="1.4" /><rect x="187.08" y="351.81" width="6" height="19.62" rx="1.5" fill="#f6465d" /><line x1="200.81" y1="334.81" x2="200.81" y2="386.36" stroke="#0ecb81" stroke-width="1.4" /><rect x="197.81" y="345.99" width="6" height="25.16" rx="1.5" fill="#0ecb81" /><line x1="211.54" y1="344.86" x2="211.54" y2="377.91" stroke="#f6465d" stroke-width="1.4" /><rect x="208.54" y="346.18" width="6" height="24.32" rx="1.5" fill="#f6465d" /><line x1="222.28" y1="355.94" x2="222.28" y2="376.97" stroke="#f6465d" stroke-width="1.4" /><rect x="219.28" y="370.40" width="6" height="3.76" rx="1.5" fill="#f6465d" /><line x1="233.01" y1="369.37" x2="233.01" y2="399.51" stroke="#f6465d" stroke-width="1.4" /><rect x="230.01" y="374.25" width="6" height="13.62" rx="1.5" fill="#f6465d" /><line x1="243.75" y1="384.49" x2="243.75" y2="395.47" stroke="#f6465d" stroke-width="1.4" /><rect x="240.75" y="387.68" width="6" height="2.00" rx="1.5" fill="#f6465d" /><line x1="254.48" y1="376.69" x2="254.48" y2="393.97" stroke="#f6465d" stroke-width="1.4" /><rect x="251.48" y="389.46" width="6" height="3.00" rx="1.5" fill="#f6465d" /><line x1="265.22" y1="390.68" x2="265.22" y2="426.46" stroke="#f6465d" stroke-width="1.4" /><rect x="262.22" y="392.75" width="6" height="30.42" rx="1.5" fill="#f6465d" /><line x1="275.95" y1="406.65" x2="275.95" y2="425.05" stroke="#0ecb81" stroke-width="1.4" /><rect x="272.95" y="413.69" width="6" height="9.39" rx="1.5" fill="#0ecb81" /><line x1="286.68" y1="410.97" x2="286.68" y2="425.90" stroke="#f6465d" stroke-width="1.4" /><rect x="283.68" y="413.69" width="6" height="4.98" rx="1.5" fill="#f6465d" /><line x1="297.42" y1="412.94" x2="297.42" y2="431.91" stroke="#f6465d" stroke-width="1.4" /><rect x="294.42" y="418.95" width="6" height="8.83" rx="1.5" fill="#f6465d" /><line x1="308.15" y1="417.63" x2="308.15" y2="441.48" stroke="#f6465d" stroke-width="1.4" /><rect x="305.15" y="427.59" width="6" height="3.10" rx="1.5" fill="#f6465d" /><line x1="318.89" y1="418.10" x2="318.89" y2="433.03" stroke="#0ecb81" stroke-width="1.4" /><rect x="315.89" y="420.73" width="6" height="10.05" rx="1.5" fill="#0ecb81" /><line x1="329.62" y1="395.29" x2="329.62" y2="421.76" stroke="#0ecb81" stroke-width="1.4" /><rect x="326.62" y="402.70" width="6" height="18.03" rx="1.5" fill="#0ecb81" /><line x1="340.35" y1="376.22" x2="340.35" y2="406.46" stroke="#0ecb81" stroke-width="1.4" /><rect x="337.35" y="394.16" width="6" height="8.36" rx="1.5" fill="#0ecb81" /><line x1="351.09" y1="385.43" x2="351.09" y2="410.97" stroke="#f6465d" stroke-width="1.4" /><rect x="348.09" y="394.06" width="6" height="12.49" rx="1.5" fill="#f6465d" /><line x1="361.82" y1="390.68" x2="361.82" y2="406.83" stroke="#0ecb81" stroke-width="1.4" /><rect x="358.82" y="390.78" width="6" height="15.49" rx="1.5" fill="#0ecb81" /><line x1="372.56" y1="361.01" x2="372.56" y2="394.82" stroke="#0ecb81" stroke-width="1.4" /><rect x="369.56" y="375.00" width="6" height="15.68" rx="1.5" fill="#0ecb81" /><line x1="383.29" y1="332.37" x2="383.29" y2="375.85" stroke="#0ecb81" stroke-width="1.4" /><rect x="380.29" y="340.17" width="6" height="34.74" rx="1.5" fill="#0ecb81" /><line x1="394.03" y1="313.03" x2="394.03" y2="351.43" stroke="#0ecb81" stroke-width="1.4" /><rect x="391.03" y="317.16" width="6" height="23.10" rx="1.5" fill="#0ecb81" /><line x1="404.76" y1="299.32" x2="404.76" y2="379.23" stroke="#f6465d" stroke-width="1.4" /><rect x="401.76" y="317.16" width="6" height="54.84" rx="1.5" fill="#f6465d" /><line x1="415.49" y1="348.24" x2="415.49" y2="401.95" stroke="#f6465d" stroke-width="1.4" /><rect x="412.49" y="371.90" width="6" height="2.00" rx="1.5" fill="#f6465d" /><line x1="426.23" y1="346.46" x2="426.23" y2="393.03" stroke="#0ecb81" stroke-width="1.4" /><rect x="423.23" y="361.67" width="6" height="10.05" rx="1.5" fill="#0ecb81" /><line x1="436.96" y1="317.16" x2="436.96" y2="362.70" stroke="#0ecb81" stroke-width="1.4" /><rect x="433.96" y="334.72" width="6" height="26.76" rx="1.5" fill="#0ecb81" /><line x1="447.70" y1="297.63" x2="447.70" y2="343.36" stroke="#0ecb81" stroke-width="1.4" /><rect x="444.70" y="332.47" width="6" height="2.00" rx="1.5" fill="#0ecb81" /><line x1="458.43" y1="325.52" x2="458.43" y2="343.55" stroke="#f6465d" stroke-width="1.4" /><rect x="455.43" y="332.18" width="6" height="2.35" rx="1.5" fill="#f6465d" /><line x1="469.16" y1="327.77" x2="469.16" y2="353.88" stroke="#f6465d" stroke-width="1.4" /><rect x="466.16" y="334.16" width="6" height="18.97" rx="1.5" fill="#f6465d" /><line x1="479.90" y1="349.56" x2="479.90" y2="365.71" stroke="#0ecb81" stroke-width="1.4" /><rect x="476.90" y="351.43" width="6" height="2.00" rx="1.5" fill="#0ecb81" /><line x1="490.63" y1="327.68" x2="490.63" y2="352.65" stroke="#0ecb81" stroke-width="1.4" /><rect x="487.63" y="330.03" width="6" height="21.32" rx="1.5" fill="#0ecb81" /><line x1="501.37" y1="196.69" x2="501.37" y2="334.63" stroke="#0ecb81" stroke-width="1.4" /><rect x="498.37" y="222.60" width="6" height="106.48" rx="1.5" fill="#0ecb81" /><line x1="512.10" y1="216.50" x2="512.10" y2="271.62" stroke="#f6465d" stroke-width="1.4" /><rect x="509.10" y="222.89" width="6" height="38.97" rx="1.5" fill="#f6465d" /><line x1="522.84" y1="251.43" x2="522.84" y2="293.03" stroke="#f6465d" stroke-width="1.4" /><rect x="519.84" y="261.76" width="6" height="21.32" rx="1.5" fill="#f6465d" /><line x1="533.57" y1="226.08" x2="533.57" y2="283.92" stroke="#0ecb81" stroke-width="1.4" /><rect x="530.57" y="258.00" width="6" height="24.41" rx="1.5" fill="#0ecb81" /><line x1="544.30" y1="227.96" x2="544.30" y2="272.28" stroke="#f6465d" stroke-width="1.4" /><rect x="541.30" y="258.10" width="6" height="7.98" rx="1.5" fill="#f6465d" /><line x1="555.04" y1="263.83" x2="555.04" y2="301.67" stroke="#f6465d" stroke-width="1.4" /><rect x="552.04" y="266.17" width="6" height="28.92" rx="1.5" fill="#f6465d" /><line x1="565.77" y1="246.08" x2="565.77" y2="299.60" stroke="#0ecb81" stroke-width="1.4" /><rect x="562.77" y="275.19" width="6" height="20.00" rx="1.5" fill="#0ecb81" /><line x1="576.51" y1="248.52" x2="576.51" y2="333.78" stroke="#f6465d" stroke-width="1.4" /><rect x="573.51" y="275.00" width="6" height="41.03" rx="1.5" fill="#f6465d" /><line x1="587.24" y1="287.11" x2="587.24" y2="330.12" stroke="#0ecb81" stroke-width="1.4" /><rect x="584.24" y="292.18" width="6" height="23.76" rx="1.5" fill="#0ecb81" /><line x1="597.97" y1="288.52" x2="597.97" y2="321.57" stroke="#f6465d" stroke-width="1.4" /><rect x="594.97" y="292.18" width="6" height="16.24" rx="1.5" fill="#f6465d" /><line x1="608.71" y1="307.96" x2="608.71" y2="322.61" stroke="#f6465d" stroke-width="1.4" /><rect x="605.71" y="308.43" width="6" height="10.33" rx="1.5" fill="#f6465d" /><line x1="619.44" y1="315.66" x2="619.44" y2="342.51" stroke="#f6465d" stroke-width="1.4" /><rect x="616.44" y="318.38" width="6" height="24.13" rx="1.5" fill="#f6465d" /><line x1="630.18" y1="325.89" x2="630.18" y2="349.93" stroke="#f6465d" stroke-width="1.4" /><rect x="627.18" y="342.33" width="6" height="7.51" rx="1.5" fill="#f6465d" /><line x1="640.91" y1="340.26" x2="640.91" y2="356.50" stroke="#f6465d" stroke-width="1.4" /><rect x="637.91" y="349.74" width="6" height="2.91" rx="1.5" fill="#f6465d" /><line x1="651.65" y1="348.05" x2="651.65" y2="358.48" stroke="#0ecb81" stroke-width="1.4" /><rect x="648.65" y="348.24" width="6" height="4.41" rx="1.5" fill="#0ecb81" /><line x1="662.38" y1="326.46" x2="662.38" y2="351.43" stroke="#0ecb81" stroke-width="1.4" /><rect x="659.38" y="336.69" width="6" height="11.83" rx="1.5" fill="#0ecb81" /><line x1="673.11" y1="325.05" x2="673.11" y2="347.77" stroke="#0ecb81" stroke-width="1.4" /><rect x="670.11" y="330.21" width="6" height="6.48" rx="1.5" fill="#0ecb81" /><line x1="683.85" y1="283.17" x2="683.85" y2="330.49" stroke="#0ecb81" stroke-width="1.4" /><rect x="680.85" y="294.72" width="6" height="35.49" rx="1.5" fill="#0ecb81" /><line x1="694.58" y1="196.03" x2="694.58" y2="297.07" stroke="#0ecb81" stroke-width="1.4" /><rect x="691.58" y="240.26" width="6" height="54.56" rx="1.5" fill="#0ecb81" /><line x1="705.32" y1="219.04" x2="705.32" y2="257.16" stroke="#f6465d" stroke-width="1.4" /><rect x="702.32" y="240.16" width="6" height="12.49" rx="1.5" fill="#f6465d" /><line x1="716.05" y1="236.31" x2="716.05" y2="274.16" stroke="#f6465d" stroke-width="1.4" /><rect x="713.05" y="253.03" width="6" height="19.72" rx="1.5" fill="#f6465d" /><line x1="726.78" y1="269.84" x2="726.78" y2="301.10" stroke="#f6465d" stroke-width="1.4" /><rect x="723.78" y="273.03" width="6" height="5.73" rx="1.5" fill="#f6465d" /><line x1="737.52" y1="271.62" x2="737.52" y2="295.56" stroke="#f6465d" stroke-width="1.4" /><rect x="734.52" y="278.66" width="6" height="11.83" rx="1.5" fill="#f6465d" /><line x1="748.25" y1="268.90" x2="748.25" y2="299.88" stroke="#f6465d" stroke-width="1.4" /><rect x="745.25" y="290.49" width="6" height="2.54" rx="1.5" fill="#f6465d" /><line x1="758.99" y1="249.08" x2="758.99" y2="293.12" stroke="#0ecb81" stroke-width="1.4" /><rect x="755.99" y="267.86" width="6" height="25.16" rx="1.5" fill="#0ecb81" /><line x1="769.72" y1="264.11" x2="769.72" y2="280.63" stroke="#f6465d" stroke-width="1.4" /><rect x="766.72" y="267.86" width="6" height="2.00" rx="1.5" fill="#f6465d" /><line x1="780.46" y1="265.23" x2="780.46" y2="297.25" stroke="#f6465d" stroke-width="1.4" /><rect x="777.46" y="268.05" width="6" height="5.16" rx="1.5" fill="#f6465d" /><line x1="791.19" y1="265.42" x2="791.19" y2="283.08" stroke="#f6465d" stroke-width="1.4" /><rect x="788.19" y="273.22" width="6" height="2.00" rx="1.5" fill="#f6465d" /><line x1="801.92" y1="238.00" x2="801.92" y2="277.07" stroke="#0ecb81" stroke-width="1.4" /><rect x="798.92" y="257.54" width="6" height="16.90" rx="1.5" fill="#0ecb81" /><line x1="812.66" y1="241.10" x2="812.66" y2="268.99" stroke="#0ecb81" stroke-width="1.4" /><rect x="809.66" y="247.68" width="6" height="9.77" rx="1.5" fill="#0ecb81" /><line x1="823.39" y1="224.67" x2="823.39" y2="254.62" stroke="#f6465d" stroke-width="1.4" /><rect x="820.39" y="247.68" width="6" height="2.00" rx="1.5" fill="#f6465d" /><line x1="834.13" y1="236.41" x2="834.13" y2="279.98" stroke="#f6465d" stroke-width="1.4" /><rect x="831.13" y="248.71" width="6" height="3.38" rx="1.5" fill="#f6465d" /><line x1="844.86" y1="219.22" x2="844.86" y2="268.43" stroke="#0ecb81" stroke-width="1.4" /><rect x="841.86" y="224.48" width="6" height="27.98" rx="1.5" fill="#0ecb81" /><line x1="855.59" y1="223.45" x2="855.59" y2="267.02" stroke="#f6465d" stroke-width="1.4" /><rect x="852.59" y="224.48" width="6" height="18.31" rx="1.5" fill="#f6465d" /><line x1="866.33" y1="227.30" x2="866.33" y2="257.07" stroke="#f6465d" stroke-width="1.4" /><rect x="863.33" y="242.70" width="6" height="5.54" rx="1.5" fill="#f6465d" /><line x1="877.06" y1="242.04" x2="877.06" y2="284.01" stroke="#f6465d" stroke-width="1.4" /><rect x="874.06" y="248.43" width="6" height="28.08" rx="1.5" fill="#f6465d" /><line x1="887.80" y1="273.59" x2="887.80" y2="304.95" stroke="#f6465d" stroke-width="1.4" /><rect x="884.80" y="276.41" width="6" height="20.28" rx="1.5" fill="#f6465d" /><line x1="898.53" y1="281.57" x2="898.53" y2="308.80" stroke="#0ecb81" stroke-width="1.4" /><rect x="895.53" y="291.43" width="6" height="5.16" rx="1.5" fill="#0ecb81" /><line x1="909.27" y1="289.93" x2="909.27" y2="334.53" stroke="#f6465d" stroke-width="1.4" /><rect x="906.27" y="291.43" width="6" height="38.22" rx="1.5" fill="#f6465d" /><line x1="920.00" y1="328.90" x2="920.00" y2="331.90" stroke="#0ecb81" stroke-width="1.4" /><rect x="917.00" y="329.37" width="6" height="2.00" rx="1.5" fill="#0ecb81" />
  <polyline points="694.58,196.03 726.78,301.10 758.99,249.08 834.13,279.98 844.86,219.22" fill="none" stroke="#2fc273" stroke-width="4" stroke-linecap="round" stroke-linejoin="round" />
  <circle cx="694.58" cy="196.03" r="5.5" fill="#2fc273" fill-opacity="0.15" stroke="#2fc273" stroke-width="2" /><text x="694.58" y="184.03" fill="#f3f4f6" font-size="15" font-weight="700" text-anchor="middle">X</text><circle cx="726.78" cy="301.10" r="5.5" fill="#2fc273" fill-opacity="0.15" stroke="#2fc273" stroke-width="2" /><text x="726.78" y="289.10" fill="#f3f4f6" font-size="15" font-weight="700" text-anchor="middle">A</text><circle cx="758.99" cy="249.08" r="5.5" fill="#2fc273" fill-opacity="0.15" stroke="#2fc273" stroke-width="2" /><text x="758.99" y="237.08" fill="#f3f4f6" font-size="15" font-weight="700" text-anchor="middle">B</text><circle cx="834.13" cy="279.98" r="5.5" fill="#2fc273" fill-opacity="0.15" stroke="#2fc273" stroke-width="2" /><text x="834.13" y="267.98" fill="#f3f4f6" font-size="15" font-weight="700" text-anchor="middle">C</text><circle cx="844.86" cy="219.22" r="5.5" fill="#2fc273" fill-opacity="0.15" stroke="#2fc273" stroke-width="2" /><text x="844.86" y="207.22" fill="#f3f4f6" font-size="15" font-weight="700" text-anchor="middle">D</text>
  <text x="56" y="492" fill="#8ba0b5" font-size="18">일반 완성 · TP1 0.008775 · TP2 0.008622 · SL 0.009167</text>
</svg>
