<svg xmlns="http://www.w3.org/2000/svg" width="960" height="540" viewBox="0 0 960 540">
  <rect width="960" height="540" rx="24" fill="#0b1220" />
  <rect x="28" y="28" width="904" height="484" rx="22" fill="#111827" stroke="#1f2937" />
  <text x="56" y="74" fill="#f3f4f6" font-size="34" font-weight="700">HUSDT · AB=CD</text>
  <text x="904" y="74" fill="#8ba0b5" font-size="20" text-anchor="end">Bearish (매도) · Score 81.3</text>
  <line x1="72" y1="58" x2="920" y2="58" stroke="#223045" stroke-width="1" stroke-dasharray="4 8" /><line x1="72" y1="156" x2="920" y2="156" stroke="#223045" stroke-width="1" stroke-dasharray="4 8" /><line x1="72" y1="255" x2="920" y2="255" stroke="#223045" stroke-width="1" stroke-dasharray="4 8" /><line x1="72" y1="353" x2="920" y2="353" stroke="#223045" stroke-width="1" stroke-dasharray="4 8" /><line x1="72" y1="452" x2="920" y2="452" stroke="#223045" stroke-width="1" stroke-dasharray="4 8" />
  <rect x="473.37" y="185.08" width="84" height="19.42" fill="#fbbf24" fill-opacity="0.12" stroke="#fbbf24" stroke-width="1.5" stroke-dasharray="6 6" />
  <line x1="72.00" y1="244.65" x2="72.00" y2="282.28" stroke="#f6465d" stroke-width="1.4" /><rect x="69.00" y="248.79" width="6" height="19.19" rx="1.5" fill="#f6465d" /><line x1="82.73" y1="172.78" x2="82.73" y2="290.19" stroke="#0ecb81" stroke-width="1.4" /><rect x="79.73" y="199.49" width="6" height="67.74" rx="1.5" fill="#0ecb81" /><line x1="93.47" y1="185.57" x2="93.47" y2="226.96" stroke="#f6465d" stroke-width="1.4" /><rect x="90.47" y="199.87" width="6" height="5.64" rx="1.5" fill="#f6465d" /><line x1="104.20" y1="202.13" x2="104.20" y2="266.48" stroke="#f6465d" stroke-width="1.4" /><rect x="101.20" y="204.76" width="6" height="48.17" rx="1.5" fill="#f6465d" /><line x1="114.94" y1="235.62" x2="114.94" y2="272.12" stroke="#f6465d" stroke-width="1.4" /><rect x="111.94" y="252.18" width="6" height="3.76" rx="1.5" fill="#f6465d" /><line x1="125.67" y1="193.47" x2="125.67" y2="255.19" stroke="#0ecb81" stroke-width="1.4" /><rect x="122.67" y="226.21" width="6" height="27.85" rx="1.5" fill="#0ecb81" /><line x1="136.41" y1="171.27" x2="136.41" y2="235.24" stroke="#0ecb81" stroke-width="1.4" /><rect x="133.41" y="190.46" width="6" height="36.13" rx="1.5" fill="#0ecb81" /><line x1="147.14" y1="124.61" x2="147.14" y2="215.68" stroke="#0ecb81" stroke-width="1.4" /><rect x="144.14" y="155.84" width="6" height="35.00" rx="1.5" fill="#0ecb81" /><line x1="157.87" y1="152.45" x2="157.87" y2="249.92" stroke="#f6465d" stroke-width="1.4" /><rect x="154.87" y="155.84" width="6" height="66.61" rx="1.5" fill="#f6465d" /><line x1="168.61" y1="153.21" x2="168.61" y2="229.98" stroke="#0ecb81" stroke-width="1.4" /><rect x="165.61" y="205.89" width="6" height="15.81" rx="1.5" fill="#0ecb81" /><line x1="179.34" y1="190.84" x2="179.34" y2="259.70" stroke="#f6465d" stroke-width="1.4" /><rect x="176.34" y="205.89" width="6" height="44.78" rx="1.5" fill="#f6465d" /><line x1="190.08" y1="138.91" x2="190.08" y2="282.28" stroke="#0ecb81" stroke-width="1.4" /><rect x="187.08" y="146.43" width="6" height="102.73" rx="1.5" fill="#0ecb81" /><line x1="200.81" y1="58.00" x2="200.81" y2="213.04" stroke="#f6465d" stroke-width="1.4" /><rect x="197.81" y="146.06" width="6" height="42.90" rx="1.5" fill="#f6465d" /><line x1="211.54" y1="187.45" x2="211.54" y2="245.03" stroke="#f6465d" stroke-width="1.4" /><rect x="208.54" y="189.71" width="6" height="52.31" rx="1.5" fill="#f6465d" /><line x1="222.28" y1="238.25" x2="222.28" y2="310.51" stroke="#f6465d" stroke-width="1.4" /><rect x="219.28" y="240.89" width="6" height="60.59" rx="1.5" fill="#f6465d" /><line x1="233.01" y1="294.32" x2="233.01" y2="339.86" stroke="#f6465d" stroke-width="1.4" /><rect x="230.01" y="300.35" width="6" height="16.56" rx="1.5" fill="#f6465d" /><line x1="243.75" y1="313.14" x2="243.75" y2="368.83" stroke="#f6465d" stroke-width="1.4" /><rect x="240.75" y="316.15" width="6" height="17.31" rx="1.5" fill="#f6465d" /><line x1="254.48" y1="315.40" x2="254.48" y2="363.19" stroke="#f6465d" stroke-width="1.4" /><rect x="251.48" y="334.21" width="6" height="15.05" rx="1.5" fill="#f6465d" /><line x1="265.22" y1="345.13" x2="265.22" y2="375.23" stroke="#f6465d" stroke-width="1.4" /><rect x="262.22" y="350.77" width="6" height="15.43" rx="1.5" fill="#f6465d" /><line x1="275.95" y1="362.81" x2="275.95" y2="424.53" stroke="#f6465d" stroke-width="1.4" /><rect x="272.95" y="364.32" width="6" height="44.40" rx="1.5" fill="#f6465d" /><line x1="286.68" y1="356.04" x2="286.68" y2="415.50" stroke="#0ecb81" stroke-width="1.4" /><rect x="283.68" y="376.36" width="6" height="31.99" rx="1.5" fill="#0ecb81" /><line x1="297.42" y1="342.49" x2="297.42" y2="389.16" stroke="#0ecb81" stroke-width="1.4" /><rect x="294.42" y="377.11" width="6" height="2.00" rx="1.5" fill="#0ecb81" /><line x1="308.15" y1="369.96" x2="308.15" y2="442.22" stroke="#f6465d" stroke-width="1.4" /><rect x="305.15" y="375.61" width="6" height="29.73" rx="1.5" fill="#f6465d" /><line x1="318.89" y1="405.34" x2="318.89" y2="439.96" stroke="#f6465d" stroke-width="1.4" /><rect x="315.89" y="405.71" width="6" height="23.71" rx="1.5" fill="#f6465d" /><line x1="329.62" y1="398.19" x2="329.62" y2="446.36" stroke="#0ecb81" stroke-width="1.4" /><rect x="326.62" y="417.38" width="6" height="13.17" rx="1.5" fill="#0ecb81" /><line x1="340.35" y1="398.94" x2="340.35" y2="429.04" stroke="#f6465d" stroke-width="1.4" /><rect x="337.35" y="417.76" width="6" height="2.00" rx="1.5" fill="#f6465d" /><line x1="351.09" y1="394.42" x2="351.09" y2="425.66" stroke="#0ecb81" stroke-width="1.4" /><rect x="348.09" y="402.70" width="6" height="16.18" rx="1.5" fill="#0ecb81" /><line x1="361.82" y1="304.11" x2="361.82" y2="405.71" stroke="#0ecb81" stroke-width="1.4" /><rect x="358.82" y="304.49" width="6" height="98.59" rx="1.5" fill="#0ecb81" /><line x1="372.56" y1="278.14" x2="372.56" y2="342.12" stroke="#f6465d" stroke-width="1.4" /><rect x="369.56" y="305.61" width="6" height="25.97" rx="1.5" fill="#f6465d" /><line x1="383.29" y1="292.07" x2="383.29" y2="340.61" stroke="#0ecb81" stroke-width="1.4" /><rect x="380.29" y="309.75" width="6" height="22.20" rx="1.5" fill="#0ecb81" /><line x1="394.03" y1="292.07" x2="394.03" y2="339.48" stroke="#0ecb81" stroke-width="1.4" /><rect x="391.03" y="292.82" width="6" height="15.43" rx="1.5" fill="#0ecb81" /><line x1="404.76" y1="274.38" x2="404.76" y2="338.73" stroke="#f6465d" stroke-width="1.4" /><rect x="401.76" y="292.82" width="6" height="42.15" rx="1.5" fill="#f6465d" /><line x1="415.49" y1="320.29" x2="415.49" y2="339.86" stroke="#0ecb81" stroke-width="1.4" /><rect x="412.49" y="333.09" width="6" height="2.00" rx="1.5" fill="#0ecb81" /><line x1="426.23" y1="323.30" x2="426.23" y2="366.20" stroke="#f6465d" stroke-width="1.4" /><rect x="423.23" y="333.09" width="6" height="3.01" rx="1.5" fill="#f6465d" /><line x1="436.96" y1="330.83" x2="436.96" y2="364.32" stroke="#f6465d" stroke-width="1.4" /><rect x="433.96" y="336.47" width="6" height="20.70" rx="1.5" fill="#f6465d" /><line x1="447.70" y1="321.80" x2="447.70" y2="375.98" stroke="#0ecb81" stroke-width="1.4" /><rect x="444.70" y="323.68" width="6" height="33.49" rx="1.5" fill="#0ecb81" /><line x1="458.43" y1="180.30" x2="458.43" y2="331.20" stroke="#0ecb81" stroke-width="1.4" /><rect x="455.43" y="200.62" width="6" height="124.18" rx="1.5" fill="#0ecb81" /><line x1="469.16" y1="174.28" x2="469.16" y2="256.32" stroke="#0ecb81" stroke-width="1.4" /><rect x="466.16" y="187.45" width="6" height="13.55" rx="1.5" fill="#0ecb81" /><line x1="479.90" y1="123.85" x2="479.90" y2="227.34" stroke="#0ecb81" stroke-width="1.4" /><rect x="476.90" y="128.37" width="6" height="58.33" rx="1.5" fill="#0ecb81" /><line x1="490.63" y1="121.97" x2="490.63" y2="190.46" stroke="#f6465d" stroke-width="1.4" /><rect x="487.63" y="128.75" width="6" height="33.49" rx="1.5" fill="#f6465d" /><line x1="501.37" y1="110.68" x2="501.37" y2="167.88" stroke="#0ecb81" stroke-width="1.4" /><rect x="498.37" y="138.53" width="6" height="23.33" rx="1.5" fill="#0ecb81" /><line x1="512.10" y1="128.75" x2="512.10" y2="181.43" stroke="#f6465d" stroke-width="1.4" /><rect x="509.10" y="138.15" width="6" height="27.09" rx="1.5" fill="#f6465d" /><line x1="522.84" y1="128.37" x2="522.84" y2="194.23" stroke="#f6465d" stroke-width="1.4" /><rect x="519.84" y="164.12" width="6" height="13.92" rx="1.5" fill="#f6465d" /><line x1="533.57" y1="176.91" x2="533.57" y2="234.11" stroke="#f6465d" stroke-width="1.4" /><rect x="530.57" y="176.91" width="6" height="49.67" rx="1.5" fill="#f6465d" /><line x1="544.30" y1="199.87" x2="544.30" y2="251.43" stroke="#f6465d" stroke-width="1.4" /><rect x="541.30" y="226.21" width="6" height="2.26" rx="1.5" fill="#f6465d" /><line x1="555.04" y1="215.30" x2="555.04" y2="262.34" stroke="#f6465d" stroke-width="1.4" /><rect x="552.04" y="228.85" width="6" height="27.47" rx="1.5" fill="#f6465d" /><line x1="565.77" y1="230.35" x2="565.77" y2="265.35" stroke="#0ecb81" stroke-width="1.4" /><rect x="562.77" y="248.41" width="6" height="7.53" rx="1.5" fill="#0ecb81" /><line x1="576.51" y1="216.80" x2="576.51" y2="265.35" stroke="#0ecb81" stroke-width="1.4" /><rect x="573.51" y="230.73" width="6" height="18.44" rx="1.5" fill="#0ecb81" /><line x1="587.24" y1="223.95" x2="587.24" y2="241.26" stroke="#f6465d" stroke-width="1.4" /><rect x="584.24" y="231.86" width="6" height="2.00" rx="1.5" fill="#f6465d" /><line x1="597.97" y1="221.32" x2="597.97" y2="255.19" stroke="#f6465d" stroke-width="1.4" /><rect x="594.97" y="233.74" width="6" height="14.68" rx="1.5" fill="#f6465d" /><line x1="608.71" y1="244.28" x2="608.71" y2="273.63" stroke="#f6465d" stroke-width="1.4" /><rect x="605.71" y="247.29" width="6" height="18.06" rx="1.5" fill="#f6465d" /><line x1="619.44" y1="262.71" x2="619.44" y2="308.62" stroke="#f6465d" stroke-width="1.4" /><rect x="616.44" y="265.35" width="6" height="24.08" rx="1.5" fill="#f6465d" /><line x1="630.18" y1="274.38" x2="630.18" y2="336.10" stroke="#f6465d" stroke-width="1.4" /><rect x="627.18" y="289.06" width="6" height="35.75" rx="1.5" fill="#f6465d" /><line x1="640.91" y1="310.88" x2="640.91" y2="333.46" stroke="#0ecb81" stroke-width="1.4" /><rect x="637.91" y="315.40" width="6" height="9.41" rx="1.5" fill="#0ecb81" /><line x1="651.65" y1="297.34" x2="651.65" y2="342.49" stroke="#f6465d" stroke-width="1.4" /><rect x="648.65" y="315.40" width="6" height="8.28" rx="1.5" fill="#f6465d" /><line x1="662.38" y1="311.64" x2="662.38" y2="341.74" stroke="#f6465d" stroke-width="1.4" /><rect x="659.38" y="323.30" width="6" height="16.56" rx="1.5" fill="#f6465d" /><line x1="673.11" y1="336.85" x2="673.11" y2="355.66" stroke="#f6465d" stroke-width="1.4" /><rect x="670.11" y="340.23" width="6" height="2.00" rx="1.5" fill="#f6465d" /><line x1="683.85" y1="322.17" x2="683.85" y2="352.28" stroke="#0ecb81" stroke-width="1.4" /><rect x="680.85" y="338.73" width="6" height="3.01" rx="1.5" fill="#0ecb81" /><line x1="694.58" y1="306.74" x2="694.58" y2="344.00" stroke="#0ecb81" stroke-width="1.4" /><rect x="691.58" y="320.67" width="6" height="17.69" rx="1.5" fill="#0ecb81" /><line x1="705.32" y1="302.98" x2="705.32" y2="353.03" stroke="#0ecb81" stroke-width="1.4" /><rect x="702.32" y="314.27" width="6" height="6.40" rx="1.5" fill="#0ecb81" /><line x1="716.05" y1="307.50" x2="716.05" y2="354.16" stroke="#f6465d" stroke-width="1.4" /><rect x="713.05" y="314.27" width="6" height="24.84" rx="1.5" fill="#f6465d" /><line x1="726.78" y1="336.10" x2="726.78" y2="401.57" stroke="#f6465d" stroke-width="1.4" /><rect x="723.78" y="339.11" width="6" height="52.31" rx="1.5" fill="#f6465d" /><line x1="737.52" y1="382.76" x2="737.52" y2="409.85" stroke="#f6465d" stroke-width="1.4" /><rect x="734.52" y="392.17" width="6" height="11.67" rx="1.5" fill="#f6465d" /><line x1="748.25" y1="379.00" x2="748.25" y2="423.40" stroke="#0ecb81" stroke-width="1.4" /><rect x="745.25" y="389.91" width="6" height="13.55" rx="1.5" fill="#0ecb81" /><line x1="758.99" y1="376.36" x2="758.99" y2="429.04" stroke="#f6465d" stroke-width="1.4" /><rect x="755.99" y="389.53" width="6" height="15.81" rx="1.5" fill="#f6465d" /><line x1="769.72" y1="392.17" x2="769.72" y2="432.81" stroke="#f6465d" stroke-width="1.4" /><rect x="766.72" y="406.84" width="6" height="24.46" rx="1.5" fill="#f6465d" /><line x1="780.46" y1="397.81" x2="780.46" y2="452.00" stroke="#0ecb81" stroke-width="1.4" /><rect x="777.46" y="411.36" width="6" height="19.19" rx="1.5" fill="#0ecb81" /><line x1="791.19" y1="354.53" x2="791.19" y2="424.15" stroke="#0ecb81" stroke-width="1.4" /><rect x="788.19" y="378.62" width="6" height="31.23" rx="1.5" fill="#0ecb81" /><line x1="801.92" y1="355.29" x2="801.92" y2="403.83" stroke="#0ecb81" stroke-width="1.4" /><rect x="798.92" y="363.19" width="6" height="15.43" rx="1.5" fill="#0ecb81" /><line x1="812.66" y1="327.82" x2="812.66" y2="365.07" stroke="#0ecb81" stroke-width="1.4" /><rect x="809.66" y="361.31" width="6" height="2.00" rx="1.5" fill="#0ecb81" /><line x1="823.39" y1="344.37" x2="823.39" y2="376.36" stroke="#0ecb81" stroke-width="1.4" /><rect x="820.39" y="359.80" width="6" height="2.00" rx="1.5" fill="#0ecb81" /><line x1="834.13" y1="311.26" x2="834.13" y2="360.56" stroke="#0ecb81" stroke-width="1.4" /><rect x="831.13" y="323.68" width="6" height="36.50" rx="1.5" fill="#0ecb81" /><line x1="844.86" y1="275.89" x2="844.86" y2="335.34" stroke="#0ecb81" stroke-width="1.4" /><rect x="841.86" y="281.91" width="6" height="41.77" rx="1.5" fill="#0ecb81" /><line x1="855.59" y1="214.92" x2="855.59" y2="282.66" stroke="#0ecb81" stroke-width="1.4" /><rect x="852.59" y="259.33" width="6" height="22.96" rx="1.5" fill="#0ecb81" /><line x1="866.33" y1="206.64" x2="866.33" y2="300.35" stroke="#0ecb81" stroke-width="1.4" /><rect x="863.33" y="208.90" width="6" height="50.80" rx="1.5" fill="#0ecb81" /><line x1="877.06" y1="181.81" x2="877.06" y2="245.78" stroke="#0ecb81" stroke-width="1.4" /><rect x="874.06" y="203.63" width="6" height="6.40" rx="1.5" fill="#0ecb81" /><line x1="887.80" y1="154.71" x2="887.80" y2="210.03" stroke="#0ecb81" stroke-width="1.4" /><rect x="884.80" y="182.56" width="6" height="21.45" rx="1.5" fill="#0ecb81" /><line x1="898.53" y1="146.06" x2="898.53" y2="202.88" stroke="#f6465d" stroke-width="1.4" /><rect x="895.53" y="181.81" width="6" height="12.79" rx="1.5" fill="#f6465d" /><line x1="909.27" y1="147.94" x2="909.27" y2="215.30" stroke="#0ecb81" stroke-width="1.4" /><rect x="906.27" y="152.45" width="6" height="42.15" rx="1.5" fill="#0ecb81" /><line x1="920.00" y1="133.64" x2="920.00" y2="205.51" stroke="#f6465d" stroke-width="1.4" /><rect x="917.00" y="152.45" width="6" height="43.28" rx="1.5" fill="#f6465d" />
  <polyline points="200.81,58.00 329.62,446.36 404.76,274.38 447.70,375.98 501.37,110.68" fill="none" stroke="#2fc273" stroke-width="4" stroke-linecap="round" stroke-linejoin="round" />
  <circle cx="200.81" cy="58.00" r="5.5" fill="#2fc273" fill-opacity="0.15" stroke="#2fc273" stroke-width="2" /><text x="200.81" y="46.00" fill="#f3f4f6" font-size="15" font-weight="700" text-anchor="middle">X</text><circle cx="329.62" cy="446.36" r="5.5" fill="#2fc273" fill-opacity="0.15" stroke="#2fc273" stroke-width="2" /><text x="329.62" y="434.36" fill="#f3f4f6" font-size="15" font-weight="700" text-anchor="middle">A</text><circle cx="404.76" cy="274.38" r="5.5" fill="#2fc273" fill-opacity="0.15" stroke="#2fc273" stroke-width="2" /><text x="404.76" y="262.38" fill="#f3f4f6" font-size="15" font-weight="700" text-anchor="middle">B</text><circle cx="447.70" cy="375.98" r="5.5" fill="#2fc273" fill-opacity="0.15" stroke="#2fc273" stroke-width="2" /><text x="447.70" y="363.98" fill="#f3f4f6" font-size="15" font-weight="700" text-anchor="middle">C</text><circle cx="501.37" cy="110.68" r="5.5" fill="#2fc273" fill-opacity="0.15" stroke="#2fc273" stroke-width="2" /><text x="501.37" y="98.68" fill="#f3f4f6" font-size="15" font-weight="700" text-anchor="middle">D</text>
  <text x="56" y="492" fill="#8ba0b5" font-size="18">일반 완성 · TP1 0.084617 · TP2 0.082953 · SL 0.088652</text>
</svg>
