<svg xmlns="http://www.w3.org/2000/svg" width="960" height="540" viewBox="0 0 960 540">
  <rect width="960" height="540" rx="24" fill="#0b1220" />
  <rect x="28" y="28" width="904" height="484" rx="22" fill="#111827" stroke="#1f2937" />
  <text x="56" y="74" fill="#f3f4f6" font-size="34" font-weight="700">ICPUSDT · AB=CD</text>
  <text x="904" y="74" fill="#8ba0b5" font-size="20" text-anchor="end">Bullish (매수) · Score 88.2</text>
  <line x1="72" y1="58" x2="920" y2="58" stroke="#223045" stroke-width="1" stroke-dasharray="4 8" /><line x1="72" y1="156" x2="920" y2="156" stroke="#223045" stroke-width="1" stroke-dasharray="4 8" /><line x1="72" y1="255" x2="920" y2="255" stroke="#223045" stroke-width="1" stroke-dasharray="4 8" /><line x1="72" y1="353" x2="920" y2="353" stroke="#223045" stroke-width="1" stroke-dasharray="4 8" /><line x1="72" y1="452" x2="920" y2="452" stroke="#223045" stroke-width="1" stroke-dasharray="4 8" />
  <rect x="366.03" y="339.59" width="84" height="29.48" fill="#fbbf24" fill-opacity="0.12" stroke="#fbbf24" stroke-width="1.5" stroke-dasharray="6 6" />
  <line x1="72.00" y1="278.42" x2="72.00" y2="328.01" stroke="#f6465d" stroke-width="1.4" /><rect x="69.00" y="281.17" width="6" height="41.33" rx="1.5" fill="#f6465d" /><line x1="82.73" y1="314.24" x2="82.73" y2="333.52" stroke="#f6465d" stroke-width="1.4" /><rect x="79.73" y="319.75" width="6" height="13.78" rx="1.5" fill="#f6465d" /><line x1="93.47" y1="330.77" x2="93.47" y2="358.32" stroke="#f6465d" stroke-width="1.4" /><rect x="90.47" y="330.77" width="6" height="11.02" rx="1.5" fill="#f6465d" /><line x1="104.20" y1="333.52" x2="104.20" y2="352.81" stroke="#0ecb81" stroke-width="1.4" /><rect x="101.20" y="341.79" width="6" height="2.76" rx="1.5" fill="#0ecb81" /><line x1="114.94" y1="333.52" x2="114.94" y2="350.06" stroke="#0ecb81" stroke-width="1.4" /><rect x="111.94" y="339.03" width="6" height="2.76" rx="1.5" fill="#0ecb81" /><line x1="125.67" y1="319.75" x2="125.67" y2="372.10" stroke="#f6465d" stroke-width="1.4" /><rect x="122.67" y="339.03" width="6" height="5.51" rx="1.5" fill="#f6465d" /><line x1="136.41" y1="341.79" x2="136.41" y2="374.85" stroke="#f6465d" stroke-width="1.4" /><rect x="133.41" y="344.55" width="6" height="19.29" rx="1.5" fill="#f6465d" /><line x1="147.14" y1="339.03" x2="147.14" y2="372.10" stroke="#0ecb81" stroke-width="1.4" /><rect x="144.14" y="344.55" width="6" height="22.04" rx="1.5" fill="#0ecb81" /><line x1="157.87" y1="333.52" x2="157.87" y2="363.83" stroke="#f6465d" stroke-width="1.4" /><rect x="154.87" y="341.79" width="6" height="13.78" rx="1.5" fill="#f6465d" /><line x1="168.61" y1="336.28" x2="168.61" y2="369.34" stroke="#0ecb81" stroke-width="1.4" /><rect x="165.61" y="344.55" width="6" height="11.02" rx="1.5" fill="#0ecb81" /><line x1="179.34" y1="305.97" x2="179.34" y2="352.81" stroke="#0ecb81" stroke-width="1.4" /><rect x="176.34" y="308.73" width="6" height="35.82" rx="1.5" fill="#0ecb81" /><line x1="190.08" y1="283.93" x2="190.08" y2="322.50" stroke="#f6465d" stroke-width="1.4" /><rect x="187.08" y="308.73" width="6" height="2.76" rx="1.5" fill="#f6465d" /><line x1="200.81" y1="292.20" x2="200.81" y2="316.99" stroke="#0ecb81" stroke-width="1.4" /><rect x="197.81" y="297.71" width="6" height="13.78" rx="1.5" fill="#0ecb81" /><line x1="211.54" y1="281.17" x2="211.54" y2="303.22" stroke="#0ecb81" stroke-width="1.4" /><rect x="208.54" y="289.44" width="6" height="8.27" rx="1.5" fill="#0ecb81" /><line x1="222.28" y1="253.62" x2="222.28" y2="292.20" stroke="#0ecb81" stroke-width="1.4" /><rect x="219.28" y="270.15" width="6" height="19.29" rx="1.5" fill="#0ecb81" /><line x1="233.01" y1="234.34" x2="233.01" y2="270.15" stroke="#0ecb81" stroke-width="1.4" /><rect x="230.01" y="248.11" width="6" height="22.04" rx="1.5" fill="#0ecb81" /><line x1="243.75" y1="239.85" x2="243.75" y2="267.40" stroke="#f6465d" stroke-width="1.4" /><rect x="240.75" y="248.11" width="6" height="13.78" rx="1.5" fill="#f6465d" /><line x1="254.48" y1="228.83" x2="254.48" y2="278.42" stroke="#f6465d" stroke-width="1.4" /><rect x="251.48" y="261.89" width="6" height="8.27" rx="1.5" fill="#f6465d" /><line x1="265.22" y1="264.64" x2="265.22" y2="283.93" stroke="#f6465d" stroke-width="1.4" /><rect x="262.22" y="270.15" width="6" height="11.02" rx="1.5" fill="#f6465d" /><line x1="275.95" y1="245.36" x2="275.95" y2="281.17" stroke="#0ecb81" stroke-width="1.4" /><rect x="272.95" y="267.40" width="6" height="11.02" rx="1.5" fill="#0ecb81" /><line x1="286.68" y1="264.64" x2="286.68" y2="297.71" stroke="#f6465d" stroke-width="1.4" /><rect x="283.68" y="264.64" width="6" height="24.80" rx="1.5" fill="#f6465d" /><line x1="297.42" y1="278.42" x2="297.42" y2="314.24" stroke="#f6465d" stroke-width="1.4" /><rect x="294.42" y="289.44" width="6" height="16.53" rx="1.5" fill="#f6465d" /><line x1="308.15" y1="286.69" x2="308.15" y2="305.97" stroke="#0ecb81" stroke-width="1.4" /><rect x="305.15" y="294.95" width="6" height="8.27" rx="1.5" fill="#0ecb81" /><line x1="318.89" y1="286.69" x2="318.89" y2="300.46" stroke="#f6465d" stroke-width="1.4" /><rect x="315.89" y="292.20" width="6" height="5.51" rx="1.5" fill="#f6465d" /><line x1="329.62" y1="286.69" x2="329.62" y2="305.97" stroke="#0ecb81" stroke-width="1.4" /><rect x="326.62" y="294.95" width="6" height="2.76" rx="1.5" fill="#0ecb81" /><line x1="340.35" y1="281.17" x2="340.35" y2="297.71" stroke="#0ecb81" stroke-width="1.4" /><rect x="337.35" y="286.69" width="6" height="8.27" rx="1.5" fill="#0ecb81" /><line x1="351.09" y1="283.93" x2="351.09" y2="314.24" stroke="#f6465d" stroke-width="1.4" /><rect x="348.09" y="289.44" width="6" height="8.27" rx="1.5" fill="#f6465d" /><line x1="361.82" y1="272.91" x2="361.82" y2="308.73" stroke="#0ecb81" stroke-width="1.4" /><rect x="358.82" y="286.69" width="6" height="13.78" rx="1.5" fill="#0ecb81" /><line x1="372.56" y1="278.42" x2="372.56" y2="308.73" stroke="#f6465d" stroke-width="1.4" /><rect x="369.56" y="286.69" width="6" height="19.29" rx="1.5" fill="#f6465d" /><line x1="383.29" y1="305.97" x2="383.29" y2="339.03" stroke="#f6465d" stroke-width="1.4" /><rect x="380.29" y="308.73" width="6" height="8.27" rx="1.5" fill="#f6465d" /><line x1="394.03" y1="314.24" x2="394.03" y2="347.30" stroke="#f6465d" stroke-width="1.4" /><rect x="391.03" y="314.24" width="6" height="11.02" rx="1.5" fill="#f6465d" /><line x1="404.76" y1="311.48" x2="404.76" y2="344.55" stroke="#f6465d" stroke-width="1.4" /><rect x="401.76" y="322.50" width="6" height="5.51" rx="1.5" fill="#f6465d" /><line x1="415.49" y1="319.75" x2="415.49" y2="333.52" stroke="#0ecb81" stroke-width="1.4" /><rect x="412.49" y="325.26" width="6" height="2.76" rx="1.5" fill="#0ecb81" /><line x1="426.23" y1="311.48" x2="426.23" y2="339.03" stroke="#f6465d" stroke-width="1.4" /><rect x="423.23" y="325.26" width="6" height="13.78" rx="1.5" fill="#f6465d" /><line x1="436.96" y1="330.77" x2="436.96" y2="374.85" stroke="#f6465d" stroke-width="1.4" /><rect x="433.96" y="339.03" width="6" height="11.02" rx="1.5" fill="#f6465d" /><line x1="447.70" y1="347.30" x2="447.70" y2="405.16" stroke="#f6465d" stroke-width="1.4" /><rect x="444.70" y="347.30" width="6" height="27.55" rx="1.5" fill="#f6465d" /><line x1="458.43" y1="366.59" x2="458.43" y2="391.38" stroke="#0ecb81" stroke-width="1.4" /><rect x="455.43" y="366.59" width="6" height="8.27" rx="1.5" fill="#0ecb81" /><line x1="469.16" y1="355.57" x2="469.16" y2="374.85" stroke="#f6465d" stroke-width="1.4" /><rect x="466.16" y="366.59" width="6" height="2.76" rx="1.5" fill="#f6465d" /><line x1="479.90" y1="363.83" x2="479.90" y2="396.90" stroke="#f6465d" stroke-width="1.4" /><rect x="476.90" y="366.59" width="6" height="13.78" rx="1.5" fill="#f6465d" /><line x1="490.63" y1="330.77" x2="490.63" y2="385.87" stroke="#0ecb81" stroke-width="1.4" /><rect x="487.63" y="361.08" width="6" height="22.04" rx="1.5" fill="#0ecb81" /><line x1="501.37" y1="352.81" x2="501.37" y2="380.36" stroke="#f6465d" stroke-width="1.4" /><rect x="498.37" y="358.32" width="6" height="8.27" rx="1.5" fill="#f6465d" /><line x1="512.10" y1="316.99" x2="512.10" y2="396.90" stroke="#f6465d" stroke-width="1.4" /><rect x="509.10" y="366.59" width="6" height="13.78" rx="1.5" fill="#f6465d" /><line x1="522.84" y1="322.50" x2="522.84" y2="394.14" stroke="#f6465d" stroke-width="1.4" /><rect x="519.84" y="377.61" width="6" height="11.02" rx="1.5" fill="#f6465d" /><line x1="533.57" y1="339.03" x2="533.57" y2="396.90" stroke="#0ecb81" stroke-width="1.4" /><rect x="530.57" y="344.55" width="6" height="44.08" rx="1.5" fill="#0ecb81" /><line x1="544.30" y1="328.01" x2="544.30" y2="369.34" stroke="#0ecb81" stroke-width="1.4" /><rect x="541.30" y="339.03" width="6" height="5.51" rx="1.5" fill="#0ecb81" /><line x1="555.04" y1="333.52" x2="555.04" y2="377.61" stroke="#f6465d" stroke-width="1.4" /><rect x="552.04" y="339.03" width="6" height="27.55" rx="1.5" fill="#f6465d" /><line x1="565.77" y1="361.08" x2="565.77" y2="421.69" stroke="#f6465d" stroke-width="1.4" /><rect x="562.77" y="363.83" width="6" height="55.10" rx="1.5" fill="#f6465d" /><line x1="576.51" y1="391.38" x2="576.51" y2="452.00" stroke="#0ecb81" stroke-width="1.4" /><rect x="573.51" y="396.90" width="6" height="19.29" rx="1.5" fill="#0ecb81" /><line x1="587.24" y1="352.81" x2="587.24" y2="405.16" stroke="#0ecb81" stroke-width="1.4" /><rect x="584.24" y="372.10" width="6" height="24.80" rx="1.5" fill="#0ecb81" /><line x1="597.97" y1="358.32" x2="597.97" y2="421.69" stroke="#f6465d" stroke-width="1.4" /><rect x="594.97" y="372.10" width="6" height="16.53" rx="1.5" fill="#f6465d" /><line x1="608.71" y1="344.55" x2="608.71" y2="394.14" stroke="#0ecb81" stroke-width="1.4" /><rect x="605.71" y="352.81" width="6" height="35.82" rx="1.5" fill="#0ecb81" /><line x1="619.44" y1="330.77" x2="619.44" y2="358.32" stroke="#f6465d" stroke-width="1.4" /><rect x="616.44" y="350.06" width="6" height="2.76" rx="1.5" fill="#f6465d" /><line x1="630.18" y1="303.22" x2="630.18" y2="358.32" stroke="#0ecb81" stroke-width="1.4" /><rect x="627.18" y="311.48" width="6" height="41.33" rx="1.5" fill="#0ecb81" /><line x1="640.91" y1="305.97" x2="640.91" y2="336.28" stroke="#f6465d" stroke-width="1.4" /><rect x="637.91" y="308.73" width="6" height="13.78" rx="1.5" fill="#f6465d" /><line x1="651.65" y1="289.44" x2="651.65" y2="350.06" stroke="#f6465d" stroke-width="1.4" /><rect x="648.65" y="322.50" width="6" height="19.29" rx="1.5" fill="#f6465d" /><line x1="662.38" y1="311.48" x2="662.38" y2="366.59" stroke="#0ecb81" stroke-width="1.4" /><rect x="659.38" y="325.26" width="6" height="16.53" rx="1.5" fill="#0ecb81" /><line x1="673.11" y1="267.40" x2="673.11" y2="328.01" stroke="#0ecb81" stroke-width="1.4" /><rect x="670.11" y="278.42" width="6" height="46.84" rx="1.5" fill="#0ecb81" /><line x1="683.85" y1="248.11" x2="683.85" y2="311.48" stroke="#f6465d" stroke-width="1.4" /><rect x="680.85" y="275.66" width="6" height="13.78" rx="1.5" fill="#f6465d" /><line x1="694.58" y1="283.93" x2="694.58" y2="316.99" stroke="#f6465d" stroke-width="1.4" /><rect x="691.58" y="292.20" width="6" height="2.76" rx="1.5" fill="#f6465d" /><line x1="705.32" y1="250.87" x2="705.32" y2="294.95" stroke="#0ecb81" stroke-width="1.4" /><rect x="702.32" y="281.17" width="6" height="13.78" rx="1.5" fill="#0ecb81" /><line x1="716.05" y1="264.64" x2="716.05" y2="300.46" stroke="#0ecb81" stroke-width="1.4" /><rect x="713.05" y="267.40" width="6" height="13.78" rx="1.5" fill="#0ecb81" /><line x1="726.78" y1="237.09" x2="726.78" y2="281.17" stroke="#0ecb81" stroke-width="1.4" /><rect x="723.78" y="237.09" width="6" height="27.55" rx="1.5" fill="#0ecb81" /><line x1="737.52" y1="187.50" x2="737.52" y2="245.36" stroke="#0ecb81" stroke-width="1.4" /><rect x="734.52" y="228.83" width="6" height="8.27" rx="1.5" fill="#0ecb81" /><line x1="748.25" y1="176.48" x2="748.25" y2="234.34" stroke="#0ecb81" stroke-width="1.4" /><rect x="745.25" y="190.25" width="6" height="38.57" rx="1.5" fill="#0ecb81" /><line x1="758.99" y1="151.68" x2="758.99" y2="195.76" stroke="#0ecb81" stroke-width="1.4" /><rect x="755.99" y="184.74" width="6" height="5.51" rx="1.5" fill="#0ecb81" /><line x1="769.72" y1="96.57" x2="769.72" y2="195.76" stroke="#0ecb81" stroke-width="1.4" /><rect x="766.72" y="107.59" width="6" height="79.90" rx="1.5" fill="#0ecb81" /><line x1="780.46" y1="85.55" x2="780.46" y2="184.74" stroke="#f6465d" stroke-width="1.4" /><rect x="777.46" y="110.35" width="6" height="66.13" rx="1.5" fill="#f6465d" /><line x1="791.19" y1="137.90" x2="791.19" y2="181.99" stroke="#0ecb81" stroke-width="1.4" /><rect x="788.19" y="148.92" width="6" height="27.55" rx="1.5" fill="#0ecb81" /><line x1="801.92" y1="110.35" x2="801.92" y2="154.43" stroke="#0ecb81" stroke-width="1.4" /><rect x="798.92" y="146.17" width="6" height="2.00" rx="1.5" fill="#0ecb81" /><line x1="812.66" y1="135.15" x2="812.66" y2="162.70" stroke="#f6465d" stroke-width="1.4" /><rect x="809.66" y="143.41" width="6" height="11.02" rx="1.5" fill="#f6465d" /><line x1="823.39" y1="140.66" x2="823.39" y2="173.72" stroke="#0ecb81" stroke-width="1.4" /><rect x="820.39" y="157.19" width="6" height="2.00" rx="1.5" fill="#0ecb81" /><line x1="834.13" y1="124.13" x2="834.13" y2="162.70" stroke="#0ecb81" stroke-width="1.4" /><rect x="831.13" y="143.41" width="6" height="11.02" rx="1.5" fill="#0ecb81" /><line x1="844.86" y1="129.64" x2="844.86" y2="159.94" stroke="#0ecb81" stroke-width="1.4" /><rect x="841.86" y="137.90" width="6" height="8.27" rx="1.5" fill="#0ecb81" /><line x1="855.59" y1="132.39" x2="855.59" y2="154.43" stroke="#f6465d" stroke-width="1.4" /><rect x="852.59" y="137.90" width="6" height="8.27" rx="1.5" fill="#f6465d" /><line x1="866.33" y1="140.66" x2="866.33" y2="157.19" stroke="#f6465d" stroke-width="1.4" /><rect x="863.33" y="146.17" width="6" height="5.51" rx="1.5" fill="#f6465d" /><line x1="877.06" y1="146.17" x2="877.06" y2="195.76" stroke="#f6465d" stroke-width="1.4" /><rect x="874.06" y="151.68" width="6" height="33.06" rx="1.5" fill="#f6465d" /><line x1="887.80" y1="126.88" x2="887.80" y2="195.76" stroke="#0ecb81" stroke-width="1.4" /><rect x="884.80" y="126.88" width="6" height="57.86" rx="1.5" fill="#0ecb81" /><line x1="898.53" y1="110.35" x2="898.53" y2="140.66" stroke="#0ecb81" stroke-width="1.4" /><rect x="895.53" y="110.35" width="6" height="19.29" rx="1.5" fill="#0ecb81" /><line x1="909.27" y1="69.02" x2="909.27" y2="118.62" stroke="#0ecb81" stroke-width="1.4" /><rect x="906.27" y="77.29" width="6" height="33.06" rx="1.5" fill="#0ecb81" /><line x1="920.00" y1="58.00" x2="920.00" y2="82.80" stroke="#f6465d" stroke-width="1.4" /><rect x="917.00" y="74.53" width="6" height="5.51" rx="1.5" fill="#f6465d" />
  <polyline points="136.41,374.85 254.48,228.83 297.42,314.24 361.82,272.91 394.03,347.30" fill="none" stroke="#2fc273" stroke-width="4" stroke-linecap="round" stroke-linejoin="round" />
  <circle cx="136.41" cy="374.85" r="5.5" fill="#2fc273" fill-opacity="0.15" stroke="#2fc273" stroke-width="2" /><text x="136.41" y="362.85" fill="#f3f4f6" font-size="15" font-weight="700" text-anchor="middle">X</text><circle cx="254.48" cy="228.83" r="5.5" fill="#2fc273" fill-opacity="0.15" stroke="#2fc273" stroke-width="2" /><text x="254.48" y="216.83" fill="#f3f4f6" font-size="15" font-weight="700" text-anchor="middle">A</text><circle cx="297.42" cy="314.24" r="5.5" fill="#2fc273" fill-opacity="0.15" stroke="#2fc273" stroke-width="2" /><text x="297.42" y="302.24" fill="#f3f4f6" font-size="15" font-weight="700" text-anchor="middle">B</text><circle cx="361.82" cy="272.91" r="5.5" fill="#2fc273" fill-opacity="0.15" stroke="#2fc273" stroke-width="2" /><text x="361.82" y="260.91" fill="#f3f4f6" font-size="15" font-weight="700" text-anchor="middle">C</text><circle cx="394.03" cy="347.30" r="5.5" fill="#2fc273" fill-opacity="0.15" stroke="#2fc273" stroke-width="2" /><text x="394.03" y="335.30" fill="#f3f4f6" font-size="15" font-weight="700" text-anchor="middle">D</text>
  <text x="56" y="492" fill="#8ba0b5" font-size="18">Complete · TP1 2.1533 · TP2 2.1597 · SL 2.1361</text>
</svg>
