<svg xmlns="http://www.w3.org/2000/svg" width="960" height="540" viewBox="0 0 960 540">
  <rect width="960" height="540" rx="24" fill="#0b1220" />
  <rect x="28" y="28" width="904" height="484" rx="22" fill="#111827" stroke="#1f2937" />
  <text x="56" y="74" fill="#f3f4f6" font-size="34" font-weight="700">INJUSDT · AB=CD</text>
  <text x="904" y="74" fill="#8ba0b5" font-size="20" text-anchor="end">Bullish (매수) · Score 83.3</text>
  <line x1="72" y1="58" x2="920" y2="58" stroke="#223045" stroke-width="1" stroke-dasharray="4 8" /><line x1="72" y1="156" x2="920" y2="156" stroke="#223045" stroke-width="1" stroke-dasharray="4 8" /><line x1="72" y1="255" x2="920" y2="255" stroke="#223045" stroke-width="1" stroke-dasharray="4 8" /><line x1="72" y1="353" x2="920" y2="353" stroke="#223045" stroke-width="1" stroke-dasharray="4 8" /><line x1="72" y1="452" x2="920" y2="452" stroke="#223045" stroke-width="1" stroke-dasharray="4 8" />
  <rect x="559.24" y="414.88" width="84" height="24.72" fill="#fbbf24" fill-opacity="0.12" stroke="#fbbf24" stroke-width="1.5" stroke-dasharray="6 6" />
  <line x1="72.00" y1="411.50" x2="72.00" y2="438.50" stroke="#f6465d" stroke-width="1.4" /><rect x="69.00" y="413.19" width="6" height="5.91" rx="1.5" fill="#f6465d" /><line x1="82.73" y1="397.16" x2="82.73" y2="430.06" stroke="#f6465d" stroke-width="1.4" /><rect x="79.73" y="418.25" width="6" height="2.00" rx="1.5" fill="#f6465d" /><line x1="93.47" y1="413.19" x2="93.47" y2="452.00" stroke="#f6465d" stroke-width="1.4" /><rect x="90.47" y="419.10" width="6" height="13.50" rx="1.5" fill="#f6465d" /><line x1="104.20" y1="384.51" x2="104.20" y2="439.34" stroke="#0ecb81" stroke-width="1.4" /><rect x="101.20" y="410.66" width="6" height="21.94" rx="1.5" fill="#0ecb81" /><line x1="114.94" y1="352.45" x2="114.94" y2="423.31" stroke="#0ecb81" stroke-width="1.4" /><rect x="111.94" y="368.48" width="6" height="42.18" rx="1.5" fill="#0ecb81" /><line x1="125.67" y1="345.70" x2="125.67" y2="403.91" stroke="#0ecb81" stroke-width="1.4" /><rect x="122.67" y="358.35" width="6" height="10.12" rx="1.5" fill="#0ecb81" /><line x1="136.41" y1="329.67" x2="136.41" y2="380.29" stroke="#0ecb81" stroke-width="1.4" /><rect x="133.41" y="350.76" width="6" height="7.59" rx="1.5" fill="#0ecb81" /><line x1="147.14" y1="313.64" x2="147.14" y2="356.66" stroke="#f6465d" stroke-width="1.4" /><rect x="144.14" y="349.91" width="6" height="4.22" rx="1.5" fill="#f6465d" /><line x1="157.87" y1="344.01" x2="157.87" y2="387.88" stroke="#f6465d" stroke-width="1.4" /><rect x="154.87" y="353.29" width="6" height="32.06" rx="1.5" fill="#f6465d" /><line x1="168.61" y1="338.95" x2="168.61" y2="387.88" stroke="#0ecb81" stroke-width="1.4" /><rect x="165.61" y="355.82" width="6" height="29.53" rx="1.5" fill="#0ecb81" /><line x1="179.34" y1="306.04" x2="179.34" y2="357.51" stroke="#0ecb81" stroke-width="1.4" /><rect x="176.34" y="327.13" width="6" height="27.84" rx="1.5" fill="#0ecb81" /><line x1="190.08" y1="319.54" x2="190.08" y2="373.54" stroke="#f6465d" stroke-width="1.4" /><rect x="187.08" y="326.29" width="6" height="23.62" rx="1.5" fill="#f6465d" /><line x1="200.81" y1="329.67" x2="200.81" y2="360.04" stroke="#0ecb81" stroke-width="1.4" /><rect x="197.81" y="344.01" width="6" height="5.91" rx="1.5" fill="#0ecb81" /><line x1="211.54" y1="344.01" x2="211.54" y2="373.54" stroke="#f6465d" stroke-width="1.4" /><rect x="208.54" y="344.85" width="6" height="7.59" rx="1.5" fill="#f6465d" /><line x1="222.28" y1="332.20" x2="222.28" y2="359.19" stroke="#0ecb81" stroke-width="1.4" /><rect x="219.28" y="337.26" width="6" height="15.19" rx="1.5" fill="#0ecb81" /><line x1="233.01" y1="332.20" x2="233.01" y2="356.66" stroke="#0ecb81" stroke-width="1.4" /><rect x="230.01" y="333.88" width="6" height="4.22" rx="1.5" fill="#0ecb81" /><line x1="243.75" y1="318.70" x2="243.75" y2="339.79" stroke="#0ecb81" stroke-width="1.4" /><rect x="240.75" y="330.51" width="6" height="4.22" rx="1.5" fill="#0ecb81" /><line x1="254.48" y1="289.17" x2="254.48" y2="354.98" stroke="#0ecb81" stroke-width="1.4" /><rect x="251.48" y="316.17" width="6" height="13.50" rx="1.5" fill="#0ecb81" /><line x1="265.22" y1="315.32" x2="265.22" y2="381.97" stroke="#f6465d" stroke-width="1.4" /><rect x="262.22" y="315.32" width="6" height="64.96" rx="1.5" fill="#f6465d" /><line x1="275.95" y1="360.04" x2="275.95" y2="386.19" stroke="#0ecb81" stroke-width="1.4" /><rect x="272.95" y="376.91" width="6" height="3.37" rx="1.5" fill="#0ecb81" /><line x1="286.68" y1="372.69" x2="286.68" y2="408.13" stroke="#f6465d" stroke-width="1.4" /><rect x="283.68" y="377.76" width="6" height="28.69" rx="1.5" fill="#f6465d" /><line x1="297.42" y1="380.29" x2="297.42" y2="416.57" stroke="#0ecb81" stroke-width="1.4" /><rect x="294.42" y="384.51" width="6" height="21.94" rx="1.5" fill="#0ecb81" /><line x1="308.15" y1="364.26" x2="308.15" y2="390.41" stroke="#0ecb81" stroke-width="1.4" /><rect x="305.15" y="381.13" width="6" height="3.37" rx="1.5" fill="#0ecb81" /><line x1="318.89" y1="370.16" x2="318.89" y2="390.41" stroke="#0ecb81" stroke-width="1.4" /><rect x="315.89" y="378.60" width="6" height="3.37" rx="1.5" fill="#0ecb81" /><line x1="329.62" y1="379.44" x2="329.62" y2="398.00" stroke="#f6465d" stroke-width="1.4" /><rect x="326.62" y="379.44" width="6" height="10.97" rx="1.5" fill="#f6465d" /><line x1="340.35" y1="386.19" x2="340.35" y2="400.54" stroke="#0ecb81" stroke-width="1.4" /><rect x="337.35" y="387.88" width="6" height="3.37" rx="1.5" fill="#0ecb81" /><line x1="351.09" y1="387.88" x2="351.09" y2="414.03" stroke="#f6465d" stroke-width="1.4" /><rect x="348.09" y="387.88" width="6" height="25.31" rx="1.5" fill="#f6465d" /><line x1="361.82" y1="395.47" x2="361.82" y2="425.00" stroke="#0ecb81" stroke-width="1.4" /><rect x="358.82" y="403.07" width="6" height="10.12" rx="1.5" fill="#0ecb81" /><line x1="372.56" y1="398.00" x2="372.56" y2="429.22" stroke="#f6465d" stroke-width="1.4" /><rect x="369.56" y="403.07" width="6" height="21.94" rx="1.5" fill="#f6465d" /><line x1="383.29" y1="415.72" x2="383.29" y2="446.09" stroke="#f6465d" stroke-width="1.4" /><rect x="380.29" y="425.00" width="6" height="5.91" rx="1.5" fill="#f6465d" /><line x1="394.03" y1="394.63" x2="394.03" y2="435.13" stroke="#0ecb81" stroke-width="1.4" /><rect x="391.03" y="399.69" width="6" height="30.37" rx="1.5" fill="#0ecb81" /><line x1="404.76" y1="351.60" x2="404.76" y2="414.03" stroke="#0ecb81" stroke-width="1.4" /><rect x="401.76" y="374.38" width="6" height="25.31" rx="1.5" fill="#0ecb81" /><line x1="415.49" y1="346.54" x2="415.49" y2="389.57" stroke="#f6465d" stroke-width="1.4" /><rect x="412.49" y="373.54" width="6" height="3.37" rx="1.5" fill="#f6465d" /><line x1="426.23" y1="359.19" x2="426.23" y2="399.69" stroke="#f6465d" stroke-width="1.4" /><rect x="423.23" y="376.91" width="6" height="19.40" rx="1.5" fill="#f6465d" /><line x1="436.96" y1="364.26" x2="436.96" y2="426.69" stroke="#0ecb81" stroke-width="1.4" /><rect x="433.96" y="381.13" width="6" height="15.19" rx="1.5" fill="#0ecb81" /><line x1="447.70" y1="367.63" x2="447.70" y2="424.16" stroke="#0ecb81" stroke-width="1.4" /><rect x="444.70" y="367.63" width="6" height="12.66" rx="1.5" fill="#0ecb81" /><line x1="458.43" y1="344.85" x2="458.43" y2="372.69" stroke="#0ecb81" stroke-width="1.4" /><rect x="455.43" y="349.91" width="6" height="16.87" rx="1.5" fill="#0ecb81" /><line x1="469.16" y1="318.70" x2="469.16" y2="350.76" stroke="#0ecb81" stroke-width="1.4" /><rect x="466.16" y="326.29" width="6" height="22.78" rx="1.5" fill="#0ecb81" /><line x1="479.90" y1="320.39" x2="479.90" y2="384.51" stroke="#f6465d" stroke-width="1.4" /><rect x="476.90" y="325.45" width="6" height="54.00" rx="1.5" fill="#f6465d" /><line x1="490.63" y1="348.23" x2="490.63" y2="386.19" stroke="#0ecb81" stroke-width="1.4" /><rect x="487.63" y="368.48" width="6" height="10.97" rx="1.5" fill="#0ecb81" /><line x1="501.37" y1="365.94" x2="501.37" y2="388.72" stroke="#f6465d" stroke-width="1.4" /><rect x="498.37" y="367.63" width="6" height="10.97" rx="1.5" fill="#f6465d" /><line x1="512.10" y1="304.36" x2="512.10" y2="388.72" stroke="#f6465d" stroke-width="1.4" /><rect x="509.10" y="378.60" width="6" height="8.44" rx="1.5" fill="#f6465d" /><line x1="522.84" y1="341.48" x2="522.84" y2="387.04" stroke="#0ecb81" stroke-width="1.4" /><rect x="519.84" y="381.13" width="6" height="5.91" rx="1.5" fill="#0ecb81" /><line x1="533.57" y1="330.51" x2="533.57" y2="381.13" stroke="#0ecb81" stroke-width="1.4" /><rect x="530.57" y="349.91" width="6" height="31.22" rx="1.5" fill="#0ecb81" /><line x1="544.30" y1="335.57" x2="544.30" y2="365.94" stroke="#f6465d" stroke-width="1.4" /><rect x="541.30" y="350.76" width="6" height="2.00" rx="1.5" fill="#f6465d" /><line x1="555.04" y1="330.51" x2="555.04" y2="367.63" stroke="#0ecb81" stroke-width="1.4" /><rect x="552.04" y="342.32" width="6" height="10.97" rx="1.5" fill="#0ecb81" /><line x1="565.77" y1="341.48" x2="565.77" y2="387.88" stroke="#f6465d" stroke-width="1.4" /><rect x="562.77" y="342.32" width="6" height="40.50" rx="1.5" fill="#f6465d" /><line x1="576.51" y1="364.26" x2="576.51" y2="397.16" stroke="#f6465d" stroke-width="1.4" /><rect x="573.51" y="382.82" width="6" height="4.22" rx="1.5" fill="#f6465d" /><line x1="587.24" y1="354.98" x2="587.24" y2="404.75" stroke="#0ecb81" stroke-width="1.4" /><rect x="584.24" y="354.98" width="6" height="31.22" rx="1.5" fill="#0ecb81" /><line x1="597.97" y1="343.16" x2="597.97" y2="389.57" stroke="#0ecb81" stroke-width="1.4" /><rect x="594.97" y="350.76" width="6" height="4.22" rx="1.5" fill="#0ecb81" /><line x1="608.71" y1="252.05" x2="608.71" y2="350.76" stroke="#0ecb81" stroke-width="1.4" /><rect x="605.71" y="257.95" width="6" height="92.81" rx="1.5" fill="#0ecb81" /><line x1="619.44" y1="224.21" x2="619.44" y2="295.07" stroke="#f6465d" stroke-width="1.4" /><rect x="616.44" y="257.95" width="6" height="28.69" rx="1.5" fill="#f6465d" /><line x1="630.18" y1="214.08" x2="630.18" y2="293.39" stroke="#0ecb81" stroke-width="1.4" /><rect x="627.18" y="214.93" width="6" height="71.71" rx="1.5" fill="#0ecb81" /><line x1="640.91" y1="202.27" x2="640.91" y2="258.80" stroke="#f6465d" stroke-width="1.4" /><rect x="637.91" y="214.08" width="6" height="2.00" rx="1.5" fill="#f6465d" /><line x1="651.65" y1="191.30" x2="651.65" y2="249.52" stroke="#f6465d" stroke-width="1.4" /><rect x="648.65" y="215.77" width="6" height="15.19" rx="1.5" fill="#f6465d" /><line x1="662.38" y1="219.14" x2="662.38" y2="280.73" stroke="#f6465d" stroke-width="1.4" /><rect x="659.38" y="231.80" width="6" height="9.28" rx="1.5" fill="#f6465d" /><line x1="673.11" y1="188.77" x2="673.11" y2="241.08" stroke="#0ecb81" stroke-width="1.4" /><rect x="670.11" y="210.71" width="6" height="30.37" rx="1.5" fill="#0ecb81" /><line x1="683.85" y1="190.46" x2="683.85" y2="236.02" stroke="#0ecb81" stroke-width="1.4" /><rect x="680.85" y="194.68" width="6" height="16.03" rx="1.5" fill="#0ecb81" /><line x1="694.58" y1="122.12" x2="694.58" y2="196.36" stroke="#0ecb81" stroke-width="1.4" /><rect x="691.58" y="134.78" width="6" height="60.75" rx="1.5" fill="#0ecb81" /><line x1="705.32" y1="58.00" x2="705.32" y2="151.65" stroke="#f6465d" stroke-width="1.4" /><rect x="702.32" y="134.78" width="6" height="2.00" rx="1.5" fill="#f6465d" /><line x1="716.05" y1="81.62" x2="716.05" y2="144.06" stroke="#0ecb81" stroke-width="1.4" /><rect x="713.05" y="122.96" width="6" height="12.66" rx="1.5" fill="#0ecb81" /><line x1="726.78" y1="119.59" x2="726.78" y2="170.21" stroke="#f6465d" stroke-width="1.4" /><rect x="723.78" y="122.96" width="6" height="18.56" rx="1.5" fill="#f6465d" /><line x1="737.52" y1="136.46" x2="737.52" y2="179.49" stroke="#f6465d" stroke-width="1.4" /><rect x="734.52" y="143.21" width="6" height="32.06" rx="1.5" fill="#f6465d" /><line x1="748.25" y1="170.21" x2="748.25" y2="192.15" stroke="#f6465d" stroke-width="1.4" /><rect x="745.25" y="175.27" width="6" height="5.91" rx="1.5" fill="#f6465d" /><line x1="758.99" y1="152.49" x2="758.99" y2="182.02" stroke="#0ecb81" stroke-width="1.4" /><rect x="755.99" y="176.96" width="6" height="4.22" rx="1.5" fill="#0ecb81" /><line x1="769.72" y1="146.59" x2="769.72" y2="195.52" stroke="#0ecb81" stroke-width="1.4" /><rect x="766.72" y="156.71" width="6" height="20.25" rx="1.5" fill="#0ecb81" /><line x1="780.46" y1="136.46" x2="780.46" y2="203.11" stroke="#f6465d" stroke-width="1.4" /><rect x="777.46" y="155.87" width="6" height="41.34" rx="1.5" fill="#f6465d" /><line x1="791.19" y1="168.52" x2="791.19" y2="200.58" stroke="#0ecb81" stroke-width="1.4" /><rect x="788.19" y="190.46" width="6" height="6.75" rx="1.5" fill="#0ecb81" /><line x1="801.92" y1="142.37" x2="801.92" y2="199.74" stroke="#0ecb81" stroke-width="1.4" /><rect x="798.92" y="144.06" width="6" height="45.56" rx="1.5" fill="#0ecb81" /><line x1="812.66" y1="133.93" x2="812.66" y2="179.49" stroke="#f6465d" stroke-width="1.4" /><rect x="809.66" y="143.21" width="6" height="34.59" rx="1.5" fill="#f6465d" /><line x1="823.39" y1="149.96" x2="823.39" y2="196.36" stroke="#0ecb81" stroke-width="1.4" /><rect x="820.39" y="169.37" width="6" height="8.44" rx="1.5" fill="#0ecb81" /><line x1="834.13" y1="162.62" x2="834.13" y2="186.24" stroke="#f6465d" stroke-width="1.4" /><rect x="831.13" y="168.52" width="6" height="17.72" rx="1.5" fill="#f6465d" /><line x1="844.86" y1="158.40" x2="844.86" y2="192.15" stroke="#0ecb81" stroke-width="1.4" /><rect x="841.86" y="165.99" width="6" height="19.40" rx="1.5" fill="#0ecb81" /><line x1="855.59" y1="142.37" x2="855.59" y2="183.71" stroke="#0ecb81" stroke-width="1.4" /><rect x="852.59" y="162.62" width="6" height="3.37" rx="1.5" fill="#0ecb81" /><line x1="866.33" y1="145.74" x2="866.33" y2="173.58" stroke="#f6465d" stroke-width="1.4" /><rect x="863.33" y="161.77" width="6" height="2.00" rx="1.5" fill="#f6465d" /><line x1="877.06" y1="128.03" x2="877.06" y2="178.65" stroke="#0ecb81" stroke-width="1.4" /><rect x="874.06" y="138.99" width="6" height="22.78" rx="1.5" fill="#0ecb81" /><line x1="887.80" y1="122.12" x2="887.80" y2="147.43" stroke="#f6465d" stroke-width="1.4" /><rect x="884.80" y="138.15" width="6" height="4.22" rx="1.5" fill="#f6465d" /><line x1="898.53" y1="137.31" x2="898.53" y2="160.93" stroke="#f6465d" stroke-width="1.4" /><rect x="895.53" y="141.52" width="6" height="12.66" rx="1.5" fill="#f6465d" /><line x1="909.27" y1="143.21" x2="909.27" y2="194.68" stroke="#f6465d" stroke-width="1.4" /><rect x="906.27" y="153.34" width="6" height="28.69" rx="1.5" fill="#f6465d" /><line x1="920.00" y1="182.02" x2="920.00" y2="232.64" stroke="#f6465d" stroke-width="1.4" /><rect x="917.00" y="182.02" width="6" height="48.09" rx="1.5" fill="#f6465d" />
  <polyline points="501.37,388.72 512.10,304.36 512.10,388.72 555.04,330.51 587.24,404.75" fill="none" stroke="#2fc273" stroke-width="4" stroke-linecap="round" stroke-linejoin="round" />
  <circle cx="501.37" cy="388.72" r="5.5" fill="#2fc273" fill-opacity="0.15" stroke="#2fc273" stroke-width="2" /><text x="501.37" y="376.72" fill="#f3f4f6" font-size="15" font-weight="700" text-anchor="middle">X</text><circle cx="512.10" cy="304.36" r="5.5" fill="#2fc273" fill-opacity="0.15" stroke="#2fc273" stroke-width="2" /><text x="512.10" y="292.36" fill="#f3f4f6" font-size="15" font-weight="700" text-anchor="middle">A</text><circle cx="512.10" cy="388.72" r="5.5" fill="#2fc273" fill-opacity="0.15" stroke="#2fc273" stroke-width="2" /><text x="512.10" y="376.72" fill="#f3f4f6" font-size="15" font-weight="700" text-anchor="middle">B</text><circle cx="555.04" cy="330.51" r="5.5" fill="#2fc273" fill-opacity="0.15" stroke="#2fc273" stroke-width="2" /><text x="555.04" y="318.51" fill="#f3f4f6" font-size="15" font-weight="700" text-anchor="middle">C</text><circle cx="587.24" cy="404.75" r="5.5" fill="#2fc273" fill-opacity="0.15" stroke="#2fc273" stroke-width="2" /><text x="587.24" y="392.75" fill="#f3f4f6" font-size="15" font-weight="700" text-anchor="middle">D</text>
  <text x="56" y="492" fill="#8ba0b5" font-size="18">Complete · TP1 5.1076 · TP2 5.1284 · SL 5.061</text>
</svg>
