<svg xmlns="http://www.w3.org/2000/svg" width="960" height="540" viewBox="0 0 960 540">
  <rect width="960" height="540" rx="24" fill="#0b1220" />
  <rect x="28" y="28" width="904" height="484" rx="22" fill="#111827" stroke="#1f2937" />
  <text x="56" y="74" fill="#f3f4f6" font-size="34" font-weight="700">JCTUSDT · AB=CD</text>
  <text x="904" y="74" fill="#8ba0b5" font-size="20" text-anchor="end">Bullish (매수) · Score 73.0</text>
  <line x1="72" y1="58" x2="920" y2="58" stroke="#223045" stroke-width="1" stroke-dasharray="4 8" /><line x1="72" y1="156" x2="920" y2="156" stroke="#223045" stroke-width="1" stroke-dasharray="4 8" /><line x1="72" y1="255" x2="920" y2="255" stroke="#223045" stroke-width="1" stroke-dasharray="4 8" /><line x1="72" y1="353" x2="920" y2="353" stroke="#223045" stroke-width="1" stroke-dasharray="4 8" /><line x1="72" y1="452" x2="920" y2="452" stroke="#223045" stroke-width="1" stroke-dasharray="4 8" />
  <rect x="741.72" y="224.34" width="84" height="53.06" fill="#fbbf24" fill-opacity="0.12" stroke="#fbbf24" stroke-width="1.5" stroke-dasharray="6 6" />
  <line x1="72.00" y1="429.05" x2="72.00" y2="436.95" stroke="#0ecb81" stroke-width="1.4" /><rect x="69.00" y="429.97" width="6" height="5.88" rx="1.5" fill="#0ecb81" /><line x1="82.73" y1="424.46" x2="82.73" y2="431.25" stroke="#0ecb81" stroke-width="1.4" /><rect x="79.73" y="426.11" width="6" height="4.22" rx="1.5" fill="#0ecb81" /><line x1="93.47" y1="423.18" x2="93.47" y2="430.34" stroke="#f6465d" stroke-width="1.4" /><rect x="90.47" y="426.11" width="6" height="2.39" rx="1.5" fill="#f6465d" /><line x1="104.20" y1="425.93" x2="104.20" y2="430.15" stroke="#f6465d" stroke-width="1.4" /><rect x="101.20" y="428.50" width="6" height="2.00" rx="1.5" fill="#f6465d" /><line x1="114.94" y1="427.58" x2="114.94" y2="432.72" stroke="#f6465d" stroke-width="1.4" /><rect x="111.94" y="428.68" width="6" height="2.57" rx="1.5" fill="#f6465d" /><line x1="125.67" y1="425.19" x2="125.67" y2="431.80" stroke="#0ecb81" stroke-width="1.4" /><rect x="122.67" y="426.66" width="6" height="4.59" rx="1.5" fill="#0ecb81" /><line x1="136.41" y1="420.60" x2="136.41" y2="434.93" stroke="#f6465d" stroke-width="1.4" /><rect x="133.41" y="426.66" width="6" height="8.08" rx="1.5" fill="#f6465d" /><line x1="147.14" y1="434.01" x2="147.14" y2="446.12" stroke="#f6465d" stroke-width="1.4" /><rect x="144.14" y="434.19" width="6" height="11.20" rx="1.5" fill="#f6465d" /><line x1="157.87" y1="441.53" x2="157.87" y2="451.08" stroke="#f6465d" stroke-width="1.4" /><rect x="154.87" y="445.21" width="6" height="5.32" rx="1.5" fill="#f6465d" /><line x1="168.61" y1="437.86" x2="168.61" y2="452.00" stroke="#0ecb81" stroke-width="1.4" /><rect x="165.61" y="442.64" width="6" height="7.53" rx="1.5" fill="#0ecb81" /><line x1="179.34" y1="439.52" x2="179.34" y2="447.78" stroke="#f6465d" stroke-width="1.4" /><rect x="176.34" y="442.45" width="6" height="2.00" rx="1.5" fill="#f6465d" /><line x1="190.08" y1="440.07" x2="190.08" y2="446.49" stroke="#f6465d" stroke-width="1.4" /><rect x="187.08" y="443.37" width="6" height="2.00" rx="1.5" fill="#f6465d" /><line x1="200.81" y1="439.70" x2="200.81" y2="445.94" stroke="#0ecb81" stroke-width="1.4" /><rect x="197.81" y="443.00" width="6" height="2.20" rx="1.5" fill="#0ecb81" /><line x1="211.54" y1="439.52" x2="211.54" y2="445.57" stroke="#0ecb81" stroke-width="1.4" /><rect x="208.54" y="439.52" width="6" height="3.49" rx="1.5" fill="#0ecb81" /><line x1="222.28" y1="439.70" x2="222.28" y2="445.39" stroke="#f6465d" stroke-width="1.4" /><rect x="219.28" y="439.70" width="6" height="2.94" rx="1.5" fill="#f6465d" /><line x1="233.01" y1="437.86" x2="233.01" y2="444.66" stroke="#0ecb81" stroke-width="1.4" /><rect x="230.01" y="438.23" width="6" height="4.59" rx="1.5" fill="#0ecb81" /><line x1="243.75" y1="431.25" x2="243.75" y2="442.27" stroke="#0ecb81" stroke-width="1.4" /><rect x="240.75" y="433.64" width="6" height="4.77" rx="1.5" fill="#0ecb81" /><line x1="254.48" y1="429.05" x2="254.48" y2="435.66" stroke="#0ecb81" stroke-width="1.4" /><rect x="251.48" y="431.80" width="6" height="2.02" rx="1.5" fill="#0ecb81" /><line x1="265.22" y1="419.32" x2="265.22" y2="433.82" stroke="#0ecb81" stroke-width="1.4" /><rect x="262.22" y="420.79" width="6" height="11.02" rx="1.5" fill="#0ecb81" /><line x1="275.95" y1="417.30" x2="275.95" y2="433.09" stroke="#f6465d" stroke-width="1.4" /><rect x="272.95" y="420.42" width="6" height="4.41" rx="1.5" fill="#f6465d" /><line x1="286.68" y1="419.69" x2="286.68" y2="439.88" stroke="#0ecb81" stroke-width="1.4" /><rect x="283.68" y="420.79" width="6" height="4.04" rx="1.5" fill="#0ecb81" /><line x1="297.42" y1="419.50" x2="297.42" y2="426.11" stroke="#f6465d" stroke-width="1.4" /><rect x="294.42" y="420.97" width="6" height="2.75" rx="1.5" fill="#f6465d" /><line x1="308.15" y1="421.16" x2="308.15" y2="426.30" stroke="#0ecb81" stroke-width="1.4" /><rect x="305.15" y="422.26" width="6" height="2.00" rx="1.5" fill="#0ecb81" /><line x1="318.89" y1="419.50" x2="318.89" y2="424.83" stroke="#0ecb81" stroke-width="1.4" /><rect x="315.89" y="422.26" width="6" height="2.00" rx="1.5" fill="#0ecb81" /><line x1="329.62" y1="411.24" x2="329.62" y2="425.56" stroke="#0ecb81" stroke-width="1.4" /><rect x="326.62" y="417.30" width="6" height="5.14" rx="1.5" fill="#0ecb81" /><line x1="340.35" y1="415.46" x2="340.35" y2="420.60" stroke="#f6465d" stroke-width="1.4" /><rect x="337.35" y="417.67" width="6" height="2.00" rx="1.5" fill="#f6465d" /><line x1="351.09" y1="407.02" x2="351.09" y2="418.95" stroke="#0ecb81" stroke-width="1.4" /><rect x="348.09" y="414.00" width="6" height="3.86" rx="1.5" fill="#0ecb81" /><line x1="361.82" y1="411.06" x2="361.82" y2="428.13" stroke="#f6465d" stroke-width="1.4" /><rect x="358.82" y="413.81" width="6" height="2.39" rx="1.5" fill="#f6465d" /><line x1="372.56" y1="416.20" x2="372.56" y2="423.54" stroke="#f6465d" stroke-width="1.4" /><rect x="369.56" y="416.75" width="6" height="3.67" rx="1.5" fill="#f6465d" /><line x1="383.29" y1="413.26" x2="383.29" y2="421.34" stroke="#0ecb81" stroke-width="1.4" /><rect x="380.29" y="415.83" width="6" height="4.59" rx="1.5" fill="#0ecb81" /><line x1="394.03" y1="408.67" x2="394.03" y2="417.67" stroke="#0ecb81" stroke-width="1.4" /><rect x="391.03" y="410.51" width="6" height="5.51" rx="1.5" fill="#0ecb81" /><line x1="404.76" y1="395.08" x2="404.76" y2="411.06" stroke="#0ecb81" stroke-width="1.4" /><rect x="401.76" y="395.08" width="6" height="15.42" rx="1.5" fill="#0ecb81" /><line x1="415.49" y1="362.40" x2="415.49" y2="395.45" stroke="#0ecb81" stroke-width="1.4" /><rect x="412.49" y="363.87" width="6" height="31.21" rx="1.5" fill="#0ecb81" /><line x1="426.23" y1="280.70" x2="426.23" y2="368.28" stroke="#0ecb81" stroke-width="1.4" /><rect x="423.23" y="291.35" width="6" height="72.70" rx="1.5" fill="#0ecb81" /><line x1="436.96" y1="281.07" x2="436.96" y2="371.40" stroke="#f6465d" stroke-width="1.4" /><rect x="433.96" y="291.35" width="6" height="18.36" rx="1.5" fill="#f6465d" /><line x1="447.70" y1="274.28" x2="447.70" y2="330.64" stroke="#0ecb81" stroke-width="1.4" /><rect x="444.70" y="309.71" width="6" height="2.00" rx="1.5" fill="#0ecb81" /><line x1="458.43" y1="227.09" x2="458.43" y2="322.93" stroke="#0ecb81" stroke-width="1.4" /><rect x="455.43" y="237.01" width="6" height="72.89" rx="1.5" fill="#0ecb81" /><line x1="469.16" y1="176.97" x2="469.16" y2="252.43" stroke="#0ecb81" stroke-width="1.4" /><rect x="466.16" y="192.21" width="6" height="44.80" rx="1.5" fill="#0ecb81" /><line x1="479.90" y1="132.54" x2="479.90" y2="230.95" stroke="#0ecb81" stroke-width="1.4" /><rect x="476.90" y="171.46" width="6" height="20.93" rx="1.5" fill="#0ecb81" /><line x1="490.63" y1="156.96" x2="490.63" y2="216.26" stroke="#f6465d" stroke-width="1.4" /><rect x="487.63" y="171.28" width="6" height="11.93" rx="1.5" fill="#f6465d" /><line x1="501.37" y1="121.89" x2="501.37" y2="199.37" stroke="#0ecb81" stroke-width="1.4" /><rect x="498.37" y="156.41" width="6" height="26.81" rx="1.5" fill="#0ecb81" /><line x1="512.10" y1="147.96" x2="512.10" y2="209.65" stroke="#f6465d" stroke-width="1.4" /><rect x="509.10" y="156.41" width="6" height="38.92" rx="1.5" fill="#f6465d" /><line x1="522.84" y1="127.95" x2="522.84" y2="195.70" stroke="#0ecb81" stroke-width="1.4" /><rect x="519.84" y="162.28" width="6" height="33.05" rx="1.5" fill="#0ecb81" /><line x1="533.57" y1="131.26" x2="533.57" y2="170.55" stroke="#0ecb81" stroke-width="1.4" /><rect x="530.57" y="149.80" width="6" height="13.04" rx="1.5" fill="#0ecb81" /><line x1="544.30" y1="126.48" x2="544.30" y2="187.07" stroke="#0ecb81" stroke-width="1.4" /><rect x="541.30" y="145.03" width="6" height="4.96" rx="1.5" fill="#0ecb81" /><line x1="555.04" y1="126.48" x2="555.04" y2="172.75" stroke="#f6465d" stroke-width="1.4" /><rect x="552.04" y="145.39" width="6" height="22.03" rx="1.5" fill="#f6465d" /><line x1="565.77" y1="159.35" x2="565.77" y2="195.88" stroke="#0ecb81" stroke-width="1.4" /><rect x="562.77" y="165.59" width="6" height="2.00" rx="1.5" fill="#0ecb81" /><line x1="576.51" y1="149.62" x2="576.51" y2="169.26" stroke="#0ecb81" stroke-width="1.4" /><rect x="573.51" y="160.45" width="6" height="5.14" rx="1.5" fill="#0ecb81" /><line x1="587.24" y1="141.90" x2="587.24" y2="165.04" stroke="#0ecb81" stroke-width="1.4" /><rect x="584.24" y="143.92" width="6" height="16.89" rx="1.5" fill="#0ecb81" /><line x1="597.97" y1="58.00" x2="597.97" y2="179.91" stroke="#f6465d" stroke-width="1.4" /><rect x="594.97" y="143.92" width="6" height="10.83" rx="1.5" fill="#f6465d" /><line x1="608.71" y1="107.39" x2="608.71" y2="163.20" stroke="#0ecb81" stroke-width="1.4" /><rect x="605.71" y="130.70" width="6" height="24.23" rx="1.5" fill="#0ecb81" /><line x1="619.44" y1="122.08" x2="619.44" y2="159.35" stroke="#f6465d" stroke-width="1.4" /><rect x="616.44" y="130.70" width="6" height="11.38" rx="1.5" fill="#f6465d" /><line x1="630.18" y1="140.62" x2="630.18" y2="170.36" stroke="#f6465d" stroke-width="1.4" /><rect x="627.18" y="141.54" width="6" height="26.25" rx="1.5" fill="#f6465d" /><line x1="640.91" y1="134.01" x2="640.91" y2="170.73" stroke="#0ecb81" stroke-width="1.4" /><rect x="637.91" y="141.35" width="6" height="26.62" rx="1.5" fill="#0ecb81" /><line x1="651.65" y1="107.75" x2="651.65" y2="161.73" stroke="#f6465d" stroke-width="1.4" /><rect x="648.65" y="141.54" width="6" height="2.00" rx="1.5" fill="#f6465d" /><line x1="662.38" y1="130.70" x2="662.38" y2="167.79" stroke="#f6465d" stroke-width="1.4" /><rect x="659.38" y="141.54" width="6" height="16.89" rx="1.5" fill="#f6465d" /><line x1="673.11" y1="132.72" x2="673.11" y2="182.85" stroke="#f6465d" stroke-width="1.4" /><rect x="670.11" y="158.06" width="6" height="5.32" rx="1.5" fill="#f6465d" /><line x1="683.85" y1="148.70" x2="683.85" y2="165.77" stroke="#0ecb81" stroke-width="1.4" /><rect x="680.85" y="150.90" width="6" height="12.67" rx="1.5" fill="#0ecb81" /><line x1="694.58" y1="141.17" x2="694.58" y2="173.85" stroke="#f6465d" stroke-width="1.4" /><rect x="691.58" y="150.90" width="6" height="21.48" rx="1.5" fill="#f6465d" /><line x1="705.32" y1="143.37" x2="705.32" y2="173.30" stroke="#0ecb81" stroke-width="1.4" /><rect x="702.32" y="164.85" width="6" height="7.34" rx="1.5" fill="#0ecb81" /><line x1="716.05" y1="143.92" x2="716.05" y2="176.05" stroke="#0ecb81" stroke-width="1.4" /><rect x="713.05" y="158.06" width="6" height="7.16" rx="1.5" fill="#0ecb81" /><line x1="726.78" y1="111.43" x2="726.78" y2="190.74" stroke="#0ecb81" stroke-width="1.4" /><rect x="723.78" y="134.38" width="6" height="23.68" rx="1.5" fill="#0ecb81" /><line x1="737.52" y1="91.60" x2="737.52" y2="183.03" stroke="#f6465d" stroke-width="1.4" /><rect x="734.52" y="134.19" width="6" height="18.54" rx="1.5" fill="#f6465d" /><line x1="748.25" y1="149.62" x2="748.25" y2="176.24" stroke="#f6465d" stroke-width="1.4" /><rect x="745.25" y="152.92" width="6" height="13.77" rx="1.5" fill="#f6465d" /><line x1="758.99" y1="136.21" x2="758.99" y2="172.20" stroke="#0ecb81" stroke-width="1.4" /><rect x="755.99" y="141.90" width="6" height="24.79" rx="1.5" fill="#0ecb81" /><line x1="769.72" y1="135.66" x2="769.72" y2="202.49" stroke="#f6465d" stroke-width="1.4" /><rect x="766.72" y="142.09" width="6" height="37.45" rx="1.5" fill="#f6465d" /><line x1="780.46" y1="169.08" x2="780.46" y2="187.25" stroke="#f6465d" stroke-width="1.4" /><rect x="777.46" y="179.73" width="6" height="2.00" rx="1.5" fill="#f6465d" /><line x1="791.19" y1="142.82" x2="791.19" y2="181.74" stroke="#0ecb81" stroke-width="1.4" /><rect x="788.19" y="159.16" width="6" height="21.48" rx="1.5" fill="#0ecb81" /><line x1="801.92" y1="153.84" x2="801.92" y2="178.81" stroke="#f6465d" stroke-width="1.4" /><rect x="798.92" y="158.98" width="6" height="3.49" rx="1.5" fill="#f6465d" /><line x1="812.66" y1="154.21" x2="812.66" y2="183.58" stroke="#f6465d" stroke-width="1.4" /><rect x="809.66" y="162.83" width="6" height="18.91" rx="1.5" fill="#f6465d" /><line x1="823.39" y1="161.92" x2="823.39" y2="183.95" stroke="#0ecb81" stroke-width="1.4" /><rect x="820.39" y="165.04" width="6" height="16.71" rx="1.5" fill="#0ecb81" /><line x1="834.13" y1="161.92" x2="834.13" y2="172.75" stroke="#0ecb81" stroke-width="1.4" /><rect x="831.13" y="165.04" width="6" height="2.00" rx="1.5" fill="#0ecb81" /><line x1="844.86" y1="153.47" x2="844.86" y2="167.06" stroke="#0ecb81" stroke-width="1.4" /><rect x="841.86" y="161.00" width="6" height="3.67" rx="1.5" fill="#0ecb81" /><line x1="855.59" y1="155.12" x2="855.59" y2="169.26" stroke="#0ecb81" stroke-width="1.4" /><rect x="852.59" y="156.96" width="6" height="4.04" rx="1.5" fill="#0ecb81" /><line x1="866.33" y1="136.40" x2="866.33" y2="161.92" stroke="#0ecb81" stroke-width="1.4" /><rect x="863.33" y="151.08" width="6" height="5.88" rx="1.5" fill="#0ecb81" /><line x1="877.06" y1="139.88" x2="877.06" y2="152.92" stroke="#f6465d" stroke-width="1.4" /><rect x="874.06" y="150.90" width="6" height="2.00" rx="1.5" fill="#f6465d" /><line x1="887.80" y1="138.42" x2="887.80" y2="157.14" stroke="#0ecb81" stroke-width="1.4" /><rect x="884.80" y="147.96" width="6" height="4.41" rx="1.5" fill="#0ecb81" /><line x1="898.53" y1="147.23" x2="898.53" y2="181.93" stroke="#f6465d" stroke-width="1.4" /><rect x="895.53" y="148.15" width="6" height="21.66" rx="1.5" fill="#f6465d" /><line x1="909.27" y1="149.80" x2="909.27" y2="184.13" stroke="#0ecb81" stroke-width="1.4" /><rect x="906.27" y="153.47" width="6" height="16.16" rx="1.5" fill="#0ecb81" /><line x1="920.00" y1="138.42" x2="920.00" y2="181.38" stroke="#f6465d" stroke-width="1.4" /><rect x="917.00" y="153.65" width="6" height="21.11" rx="1.5" fill="#f6465d" />
  <polyline points="565.77,195.88 597.97,58.00 726.78,190.74 737.52,91.60 769.72,202.49" fill="none" stroke="#2fc273" stroke-width="4" stroke-linecap="round" stroke-linejoin="round" />
  <circle cx="565.77" cy="195.88" r="5.5" fill="#2fc273" fill-opacity="0.15" stroke="#2fc273" stroke-width="2" /><text x="565.77" y="183.88" fill="#f3f4f6" font-size="15" font-weight="700" text-anchor="middle">X</text><circle cx="597.97" cy="58.00" r="5.5" fill="#2fc273" fill-opacity="0.15" stroke="#2fc273" stroke-width="2" /><text x="597.97" y="46.00" fill="#f3f4f6" font-size="15" font-weight="700" text-anchor="middle">A</text><circle cx="726.78" cy="190.74" r="5.5" fill="#2fc273" fill-opacity="0.15" stroke="#2fc273" stroke-width="2" /><text x="726.78" y="178.74" fill="#f3f4f6" font-size="15" font-weight="700" text-anchor="middle">B</text><circle cx="737.52" cy="91.60" r="5.5" fill="#2fc273" fill-opacity="0.15" stroke="#2fc273" stroke-width="2" /><text x="737.52" y="79.60" fill="#f3f4f6" font-size="15" font-weight="700" text-anchor="middle">C</text><circle cx="769.72" cy="202.49" r="5.5" fill="#2fc273" fill-opacity="0.15" stroke="#2fc273" stroke-width="2" /><text x="769.72" y="190.49" fill="#f3f4f6" font-size="15" font-weight="700" text-anchor="middle">D</text>
  <text x="56" y="492" fill="#8ba0b5" font-size="18">일반 완성 · TP1 0.003842 · TP2 0.003984 · SL 0.003513</text>
</svg>
