<svg xmlns="http://www.w3.org/2000/svg" width="960" height="540" viewBox="0 0 960 540">
  <rect width="960" height="540" rx="24" fill="#0b1220" />
  <rect x="28" y="28" width="904" height="484" rx="22" fill="#111827" stroke="#1f2937" />
  <text x="56" y="74" fill="#f3f4f6" font-size="34" font-weight="700">KITEUSDT · AB=CD</text>
  <text x="904" y="74" fill="#8ba0b5" font-size="20" text-anchor="end">Bullish (매수) · Score 85.2</text>
  <line x1="72" y1="58" x2="920" y2="58" stroke="#223045" stroke-width="1" stroke-dasharray="4 8" /><line x1="72" y1="156" x2="920" y2="156" stroke="#223045" stroke-width="1" stroke-dasharray="4 8" /><line x1="72" y1="255" x2="920" y2="255" stroke="#223045" stroke-width="1" stroke-dasharray="4 8" /><line x1="72" y1="353" x2="920" y2="353" stroke="#223045" stroke-width="1" stroke-dasharray="4 8" /><line x1="72" y1="452" x2="920" y2="452" stroke="#223045" stroke-width="1" stroke-dasharray="4 8" />
  <rect x="569.97" y="429.61" width="84" height="19.75" fill="#fbbf24" fill-opacity="0.12" stroke="#fbbf24" stroke-width="1.5" stroke-dasharray="6 6" />
  <line x1="72.00" y1="58.00" x2="72.00" y2="401.08" stroke="#f6465d" stroke-width="1.4" /><rect x="69.00" y="357.84" width="6" height="33.58" rx="1.5" fill="#f6465d" /><line x1="82.73" y1="317.01" x2="82.73" y2="397.34" stroke="#0ecb81" stroke-width="1.4" /><rect x="79.73" y="381.32" width="6" height="10.10" rx="1.5" fill="#0ecb81" /><line x1="93.47" y1="340.28" x2="93.47" y2="452.00" stroke="#f6465d" stroke-width="1.4" /><rect x="90.47" y="381.32" width="6" height="4.83" rx="1.5" fill="#f6465d" /><line x1="104.20" y1="260.16" x2="104.20" y2="392.30" stroke="#0ecb81" stroke-width="1.4" /><rect x="101.20" y="281.89" width="6" height="104.04" rx="1.5" fill="#0ecb81" /><line x1="114.94" y1="253.35" x2="114.94" y2="295.28" stroke="#0ecb81" stroke-width="1.4" /><rect x="111.94" y="266.08" width="6" height="16.02" rx="1.5" fill="#0ecb81" /><line x1="125.67" y1="265.43" x2="125.67" y2="325.79" stroke="#f6465d" stroke-width="1.4" /><rect x="122.67" y="267.40" width="6" height="54.66" rx="1.5" fill="#f6465d" /><line x1="136.41" y1="260.38" x2="136.41" y2="329.08" stroke="#0ecb81" stroke-width="1.4" /><rect x="133.41" y="277.50" width="6" height="44.34" rx="1.5" fill="#0ecb81" /><line x1="147.14" y1="275.74" x2="147.14" y2="318.11" stroke="#f6465d" stroke-width="1.4" /><rect x="144.14" y="277.50" width="6" height="36.00" rx="1.5" fill="#f6465d" /><line x1="157.87" y1="312.18" x2="157.87" y2="344.23" stroke="#f6465d" stroke-width="1.4" /><rect x="154.87" y="313.28" width="6" height="29.41" rx="1.5" fill="#f6465d" /><line x1="168.61" y1="338.08" x2="168.61" y2="382.20" stroke="#f6465d" stroke-width="1.4" /><rect x="165.61" y="342.47" width="6" height="27.22" rx="1.5" fill="#f6465d" /><line x1="179.34" y1="310.86" x2="179.34" y2="381.32" stroke="#0ecb81" stroke-width="1.4" /><rect x="176.34" y="322.06" width="6" height="47.41" rx="1.5" fill="#0ecb81" /><line x1="190.08" y1="277.50" x2="190.08" y2="326.45" stroke="#0ecb81" stroke-width="1.4" /><rect x="187.08" y="280.35" width="6" height="41.49" rx="1.5" fill="#0ecb81" /><line x1="200.81" y1="245.01" x2="200.81" y2="291.11" stroke="#0ecb81" stroke-width="1.4" /><rect x="197.81" y="254.23" width="6" height="25.90" rx="1.5" fill="#0ecb81" /><line x1="211.54" y1="189.04" x2="211.54" y2="257.09" stroke="#0ecb81" stroke-width="1.4" /><rect x="208.54" y="200.02" width="6" height="54.00" rx="1.5" fill="#0ecb81" /><line x1="222.28" y1="192.99" x2="222.28" y2="270.91" stroke="#f6465d" stroke-width="1.4" /><rect x="219.28" y="199.80" width="6" height="63.00" rx="1.5" fill="#f6465d" /><line x1="233.01" y1="214.28" x2="233.01" y2="271.79" stroke="#0ecb81" stroke-width="1.4" /><rect x="230.01" y="230.09" width="6" height="32.49" rx="1.5" fill="#0ecb81" /><line x1="243.75" y1="210.33" x2="243.75" y2="234.48" stroke="#0ecb81" stroke-width="1.4" /><rect x="240.75" y="223.06" width="6" height="7.02" rx="1.5" fill="#0ecb81" /><line x1="254.48" y1="215.16" x2="254.48" y2="264.99" stroke="#f6465d" stroke-width="1.4" /><rect x="251.48" y="224.16" width="6" height="30.29" rx="1.5" fill="#f6465d" /><line x1="265.22" y1="225.92" x2="265.22" y2="257.09" stroke="#0ecb81" stroke-width="1.4" /><rect x="262.22" y="253.79" width="6" height="2.00" rx="1.5" fill="#0ecb81" /><line x1="275.95" y1="243.48" x2="275.95" y2="269.60" stroke="#f6465d" stroke-width="1.4" /><rect x="272.95" y="254.01" width="6" height="9.22" rx="1.5" fill="#f6465d" /><line x1="286.68" y1="210.99" x2="286.68" y2="275.30" stroke="#0ecb81" stroke-width="1.4" /><rect x="283.68" y="248.52" width="6" height="14.49" rx="1.5" fill="#0ecb81" /><line x1="297.42" y1="247.65" x2="297.42" y2="288.03" stroke="#f6465d" stroke-width="1.4" /><rect x="294.42" y="248.31" width="6" height="35.34" rx="1.5" fill="#f6465d" /><line x1="308.15" y1="258.62" x2="308.15" y2="286.94" stroke="#0ecb81" stroke-width="1.4" /><rect x="305.15" y="258.62" width="6" height="25.68" rx="1.5" fill="#0ecb81" /><line x1="318.89" y1="254.67" x2="318.89" y2="293.08" stroke="#f6465d" stroke-width="1.4" /><rect x="315.89" y="258.84" width="6" height="27.22" rx="1.5" fill="#f6465d" /><line x1="329.62" y1="286.06" x2="329.62" y2="311.08" stroke="#f6465d" stroke-width="1.4" /><rect x="326.62" y="286.06" width="6" height="14.93" rx="1.5" fill="#f6465d" /><line x1="340.35" y1="272.45" x2="340.35" y2="319.42" stroke="#0ecb81" stroke-width="1.4" /><rect x="337.35" y="300.77" width="6" height="2.00" rx="1.5" fill="#0ecb81" /><line x1="351.09" y1="286.94" x2="351.09" y2="325.13" stroke="#f6465d" stroke-width="1.4" /><rect x="348.09" y="300.11" width="6" height="13.83" rx="1.5" fill="#f6465d" /><line x1="361.82" y1="304.06" x2="361.82" y2="338.08" stroke="#f6465d" stroke-width="1.4" /><rect x="358.82" y="313.94" width="6" height="22.83" rx="1.5" fill="#f6465d" /><line x1="372.56" y1="312.18" x2="372.56" y2="343.35" stroke="#f6465d" stroke-width="1.4" /><rect x="369.56" y="336.54" width="6" height="4.61" rx="1.5" fill="#f6465d" /><line x1="383.29" y1="304.72" x2="383.29" y2="360.25" stroke="#f6465d" stroke-width="1.4" /><rect x="380.29" y="341.37" width="6" height="5.71" rx="1.5" fill="#f6465d" /><line x1="394.03" y1="316.79" x2="394.03" y2="354.10" stroke="#0ecb81" stroke-width="1.4" /><rect x="391.03" y="335.45" width="6" height="10.97" rx="1.5" fill="#0ecb81" /><line x1="404.76" y1="283.43" x2="404.76" y2="343.13" stroke="#0ecb81" stroke-width="1.4" /><rect x="401.76" y="291.11" width="6" height="44.12" rx="1.5" fill="#0ecb81" /><line x1="415.49" y1="273.33" x2="415.49" y2="313.94" stroke="#f6465d" stroke-width="1.4" /><rect x="412.49" y="291.11" width="6" height="22.39" rx="1.5" fill="#f6465d" /><line x1="426.23" y1="279.91" x2="426.23" y2="331.71" stroke="#0ecb81" stroke-width="1.4" /><rect x="423.23" y="305.59" width="6" height="7.46" rx="1.5" fill="#0ecb81" /><line x1="436.96" y1="268.94" x2="436.96" y2="313.28" stroke="#0ecb81" stroke-width="1.4" /><rect x="433.96" y="274.21" width="6" height="31.39" rx="1.5" fill="#0ecb81" /><line x1="447.70" y1="258.40" x2="447.70" y2="295.94" stroke="#f6465d" stroke-width="1.4" /><rect x="444.70" y="274.21" width="6" height="2.63" rx="1.5" fill="#f6465d" /><line x1="458.43" y1="272.67" x2="458.43" y2="307.35" stroke="#f6465d" stroke-width="1.4" /><rect x="455.43" y="277.28" width="6" height="28.75" rx="1.5" fill="#f6465d" /><line x1="469.16" y1="304.94" x2="469.16" y2="323.81" stroke="#f6465d" stroke-width="1.4" /><rect x="466.16" y="305.81" width="6" height="16.24" rx="1.5" fill="#f6465d" /><line x1="479.90" y1="288.91" x2="479.90" y2="331.93" stroke="#f6465d" stroke-width="1.4" /><rect x="476.90" y="321.84" width="6" height="2.00" rx="1.5" fill="#f6465d" /><line x1="490.63" y1="318.76" x2="490.63" y2="340.93" stroke="#f6465d" stroke-width="1.4" /><rect x="487.63" y="323.59" width="6" height="5.49" rx="1.5" fill="#f6465d" /><line x1="501.37" y1="321.40" x2="501.37" y2="338.74" stroke="#0ecb81" stroke-width="1.4" /><rect x="498.37" y="328.86" width="6" height="2.00" rx="1.5" fill="#0ecb81" /><line x1="512.10" y1="304.28" x2="512.10" y2="339.18" stroke="#f6465d" stroke-width="1.4" /><rect x="509.10" y="328.64" width="6" height="8.12" rx="1.5" fill="#f6465d" /><line x1="522.84" y1="309.33" x2="522.84" y2="341.59" stroke="#0ecb81" stroke-width="1.4" /><rect x="519.84" y="327.98" width="6" height="8.78" rx="1.5" fill="#0ecb81" /><line x1="533.57" y1="313.72" x2="533.57" y2="334.13" stroke="#0ecb81" stroke-width="1.4" /><rect x="530.57" y="326.89" width="6" height="2.00" rx="1.5" fill="#0ecb81" /><line x1="544.30" y1="310.42" x2="544.30" y2="336.76" stroke="#0ecb81" stroke-width="1.4" /><rect x="541.30" y="316.79" width="6" height="10.32" rx="1.5" fill="#0ecb81" /><line x1="555.04" y1="309.11" x2="555.04" y2="349.27" stroke="#f6465d" stroke-width="1.4" /><rect x="552.04" y="316.57" width="6" height="8.78" rx="1.5" fill="#f6465d" /><line x1="565.77" y1="308.89" x2="565.77" y2="338.30" stroke="#f6465d" stroke-width="1.4" /><rect x="562.77" y="324.91" width="6" height="5.71" rx="1.5" fill="#f6465d" /><line x1="576.51" y1="317.01" x2="576.51" y2="345.98" stroke="#f6465d" stroke-width="1.4" /><rect x="573.51" y="331.28" width="6" height="8.78" rx="1.5" fill="#f6465d" /><line x1="587.24" y1="333.69" x2="587.24" y2="374.74" stroke="#f6465d" stroke-width="1.4" /><rect x="584.24" y="340.06" width="6" height="29.19" rx="1.5" fill="#f6465d" /><line x1="597.97" y1="336.10" x2="597.97" y2="406.34" stroke="#0ecb81" stroke-width="1.4" /><rect x="594.97" y="359.59" width="6" height="9.22" rx="1.5" fill="#0ecb81" /><line x1="608.71" y1="309.55" x2="608.71" y2="363.32" stroke="#0ecb81" stroke-width="1.4" /><rect x="605.71" y="318.76" width="6" height="40.61" rx="1.5" fill="#0ecb81" /><line x1="619.44" y1="317.45" x2="619.44" y2="372.54" stroke="#f6465d" stroke-width="1.4" /><rect x="616.44" y="318.33" width="6" height="16.24" rx="1.5" fill="#f6465d" /><line x1="630.18" y1="278.82" x2="630.18" y2="341.37" stroke="#0ecb81" stroke-width="1.4" /><rect x="627.18" y="282.11" width="6" height="52.46" rx="1.5" fill="#0ecb81" /><line x1="640.91" y1="263.01" x2="640.91" y2="301.64" stroke="#f6465d" stroke-width="1.4" /><rect x="637.91" y="282.11" width="6" height="14.93" rx="1.5" fill="#f6465d" /><line x1="651.65" y1="255.55" x2="651.65" y2="308.01" stroke="#0ecb81" stroke-width="1.4" /><rect x="648.65" y="275.74" width="6" height="21.07" rx="1.5" fill="#0ecb81" /><line x1="662.38" y1="222.62" x2="662.38" y2="280.79" stroke="#0ecb81" stroke-width="1.4" /><rect x="659.38" y="234.48" width="6" height="41.27" rx="1.5" fill="#0ecb81" /><line x1="673.11" y1="202.43" x2="673.11" y2="241.06" stroke="#0ecb81" stroke-width="1.4" /><rect x="670.11" y="209.02" width="6" height="25.68" rx="1.5" fill="#0ecb81" /><line x1="683.85" y1="116.61" x2="683.85" y2="214.50" stroke="#0ecb81" stroke-width="1.4" /><rect x="680.85" y="126.92" width="6" height="82.09" rx="1.5" fill="#0ecb81" /><line x1="694.58" y1="96.19" x2="694.58" y2="180.70" stroke="#f6465d" stroke-width="1.4" /><rect x="691.58" y="126.48" width="6" height="28.32" rx="1.5" fill="#f6465d" /><line x1="705.32" y1="98.83" x2="705.32" y2="155.68" stroke="#0ecb81" stroke-width="1.4" /><rect x="702.32" y="142.29" width="6" height="12.51" rx="1.5" fill="#0ecb81" /><line x1="716.05" y1="133.95" x2="716.05" y2="212.53" stroke="#f6465d" stroke-width="1.4" /><rect x="713.05" y="141.85" width="6" height="65.41" rx="1.5" fill="#f6465d" /><line x1="726.78" y1="156.99" x2="726.78" y2="212.09" stroke="#0ecb81" stroke-width="1.4" /><rect x="723.78" y="162.04" width="6" height="45.22" rx="1.5" fill="#0ecb81" /><line x1="737.52" y1="160.51" x2="737.52" y2="221.97" stroke="#f6465d" stroke-width="1.4" /><rect x="734.52" y="161.82" width="6" height="49.17" rx="1.5" fill="#f6465d" /><line x1="748.25" y1="210.55" x2="748.25" y2="240.62" stroke="#f6465d" stroke-width="1.4" /><rect x="745.25" y="211.21" width="6" height="22.83" rx="1.5" fill="#f6465d" /><line x1="758.99" y1="223.28" x2="758.99" y2="268.72" stroke="#f6465d" stroke-width="1.4" /><rect x="755.99" y="233.60" width="6" height="21.29" rx="1.5" fill="#f6465d" /><line x1="769.72" y1="215.60" x2="769.72" y2="264.55" stroke="#0ecb81" stroke-width="1.4" /><rect x="766.72" y="250.50" width="6" height="3.95" rx="1.5" fill="#0ecb81" /><line x1="780.46" y1="220.43" x2="780.46" y2="257.74" stroke="#0ecb81" stroke-width="1.4" /><rect x="777.46" y="234.26" width="6" height="16.02" rx="1.5" fill="#0ecb81" /><line x1="791.19" y1="233.60" x2="791.19" y2="296.16" stroke="#f6465d" stroke-width="1.4" /><rect x="788.19" y="234.26" width="6" height="60.36" rx="1.5" fill="#f6465d" /><line x1="801.92" y1="241.28" x2="801.92" y2="304.28" stroke="#0ecb81" stroke-width="1.4" /><rect x="798.92" y="255.77" width="6" height="38.85" rx="1.5" fill="#0ecb81" /><line x1="812.66" y1="244.35" x2="812.66" y2="280.35" stroke="#f6465d" stroke-width="1.4" /><rect x="809.66" y="255.77" width="6" height="6.15" rx="1.5" fill="#f6465d" /><line x1="823.39" y1="248.09" x2="823.39" y2="277.72" stroke="#f6465d" stroke-width="1.4" /><rect x="820.39" y="261.91" width="6" height="2.85" rx="1.5" fill="#f6465d" /><line x1="834.13" y1="245.23" x2="834.13" y2="286.72" stroke="#f6465d" stroke-width="1.4" /><rect x="831.13" y="264.77" width="6" height="9.22" rx="1.5" fill="#f6465d" /><line x1="844.86" y1="228.11" x2="844.86" y2="292.64" stroke="#0ecb81" stroke-width="1.4" /><rect x="841.86" y="235.35" width="6" height="38.85" rx="1.5" fill="#0ecb81" /><line x1="855.59" y1="176.97" x2="855.59" y2="245.67" stroke="#0ecb81" stroke-width="1.4" /><rect x="852.59" y="189.26" width="6" height="46.09" rx="1.5" fill="#0ecb81" /><line x1="866.33" y1="167.75" x2="866.33" y2="228.55" stroke="#0ecb81" stroke-width="1.4" /><rect x="863.33" y="184.65" width="6" height="3.51" rx="1.5" fill="#0ecb81" /><line x1="877.06" y1="162.92" x2="877.06" y2="197.38" stroke="#0ecb81" stroke-width="1.4" /><rect x="874.06" y="172.58" width="6" height="12.07" rx="1.5" fill="#0ecb81" /><line x1="887.80" y1="132.63" x2="887.80" y2="173.90" stroke="#0ecb81" stroke-width="1.4" /><rect x="884.80" y="159.85" width="6" height="12.95" rx="1.5" fill="#0ecb81" /><line x1="898.53" y1="108.27" x2="898.53" y2="166.65" stroke="#0ecb81" stroke-width="1.4" /><rect x="895.53" y="137.02" width="6" height="22.61" rx="1.5" fill="#0ecb81" /><line x1="909.27" y1="133.29" x2="909.27" y2="187.94" stroke="#f6465d" stroke-width="1.4" /><rect x="906.27" y="137.24" width="6" height="42.36" rx="1.5" fill="#f6465d" /><line x1="920.00" y1="155.24" x2="920.00" y2="196.72" stroke="#0ecb81" stroke-width="1.4" /><rect x="917.00" y="167.09" width="6" height="12.51" rx="1.5" fill="#0ecb81" />
  <polyline points="168.61,382.20 211.54,189.04 383.29,360.25 447.70,258.40 597.97,406.34" fill="none" stroke="#2fc273" stroke-width="4" stroke-linecap="round" stroke-linejoin="round" />
  <circle cx="168.61" cy="382.20" r="5.5" fill="#2fc273" fill-opacity="0.15" stroke="#2fc273" stroke-width="2" /><text x="168.61" y="370.20" fill="#f3f4f6" font-size="15" font-weight="700" text-anchor="middle">X</text><circle cx="211.54" cy="189.04" r="5.5" fill="#2fc273" fill-opacity="0.15" stroke="#2fc273" stroke-width="2" /><text x="211.54" y="177.04" fill="#f3f4f6" font-size="15" font-weight="700" text-anchor="middle">A</text><circle cx="383.29" cy="360.25" r="5.5" fill="#2fc273" fill-opacity="0.15" stroke="#2fc273" stroke-width="2" /><text x="383.29" y="348.25" fill="#f3f4f6" font-size="15" font-weight="700" text-anchor="middle">B</text><circle cx="447.70" cy="258.40" r="5.5" fill="#2fc273" fill-opacity="0.15" stroke="#2fc273" stroke-width="2" /><text x="447.70" y="246.40" fill="#f3f4f6" font-size="15" font-weight="700" text-anchor="middle">C</text><circle cx="597.97" cy="406.34" r="5.5" fill="#2fc273" fill-opacity="0.15" stroke="#2fc273" stroke-width="2" /><text x="597.97" y="394.34" fill="#f3f4f6" font-size="15" font-weight="700" text-anchor="middle">D</text>
  <text x="56" y="492" fill="#8ba0b5" font-size="18">Complete · TP1 0.10875 · TP2 0.11035 · SL 0.10504</text>
</svg>
