<svg xmlns="http://www.w3.org/2000/svg" width="960" height="540" viewBox="0 0 960 540">
  <rect width="960" height="540" rx="24" fill="#0b1220" />
  <rect x="28" y="28" width="904" height="484" rx="22" fill="#111827" stroke="#1f2937" />
  <text x="56" y="74" fill="#f3f4f6" font-size="34" font-weight="700">KOMAUSDT · AB=CD</text>
  <text x="904" y="74" fill="#8ba0b5" font-size="20" text-anchor="end">Bullish (매수) · Score 88.1</text>
  <line x1="72" y1="58" x2="920" y2="58" stroke="#223045" stroke-width="1" stroke-dasharray="4 8" /><line x1="72" y1="156" x2="920" y2="156" stroke="#223045" stroke-width="1" stroke-dasharray="4 8" /><line x1="72" y1="255" x2="920" y2="255" stroke="#223045" stroke-width="1" stroke-dasharray="4 8" /><line x1="72" y1="353" x2="920" y2="353" stroke="#223045" stroke-width="1" stroke-dasharray="4 8" /><line x1="72" y1="452" x2="920" y2="452" stroke="#223045" stroke-width="1" stroke-dasharray="4 8" />
  <rect x="645.11" y="441.86" width="84" height="3.30" fill="#fbbf24" fill-opacity="0.12" stroke="#fbbf24" stroke-width="1.5" stroke-dasharray="6 6" />
  <line x1="72.00" y1="442.27" x2="72.00" y2="448.18" stroke="#f6465d" stroke-width="1.4" /><rect x="69.00" y="445.30" width="6" height="2.00" rx="1.5" fill="#f6465d" /><line x1="82.73" y1="440.83" x2="82.73" y2="446.93" stroke="#0ecb81" stroke-width="1.4" /><rect x="79.73" y="441.53" width="6" height="4.33" rx="1.5" fill="#0ecb81" /><line x1="93.47" y1="439.02" x2="93.47" y2="442.93" stroke="#0ecb81" stroke-width="1.4" /><rect x="90.47" y="439.85" width="6" height="2.00" rx="1.5" fill="#0ecb81" /><line x1="104.20" y1="438.55" x2="104.20" y2="441.62" stroke="#f6465d" stroke-width="1.4" /><rect x="101.20" y="440.04" width="6" height="2.00" rx="1.5" fill="#f6465d" /><line x1="114.94" y1="438.88" x2="114.94" y2="443.48" stroke="#f6465d" stroke-width="1.4" /><rect x="111.94" y="441.39" width="6" height="2.00" rx="1.5" fill="#f6465d" /><line x1="125.67" y1="440.55" x2="125.67" y2="447.21" stroke="#f6465d" stroke-width="1.4" /><rect x="122.67" y="442.46" width="6" height="4.05" rx="1.5" fill="#f6465d" /><line x1="136.41" y1="444.60" x2="136.41" y2="448.04" stroke="#f6465d" stroke-width="1.4" /><rect x="133.41" y="446.51" width="6" height="2.00" rx="1.5" fill="#f6465d" /><line x1="147.14" y1="443.90" x2="147.14" y2="452.00" stroke="#0ecb81" stroke-width="1.4" /><rect x="144.14" y="445.67" width="6" height="2.00" rx="1.5" fill="#0ecb81" /><line x1="157.87" y1="440.13" x2="157.87" y2="446.28" stroke="#0ecb81" stroke-width="1.4" /><rect x="154.87" y="441.58" width="6" height="3.54" rx="1.5" fill="#0ecb81" /><line x1="168.61" y1="441.90" x2="168.61" y2="445.07" stroke="#f6465d" stroke-width="1.4" /><rect x="165.61" y="442.32" width="6" height="2.28" rx="1.5" fill="#f6465d" /><line x1="179.34" y1="439.11" x2="179.34" y2="446.37" stroke="#0ecb81" stroke-width="1.4" /><rect x="176.34" y="440.65" width="6" height="3.96" rx="1.5" fill="#0ecb81" /><line x1="190.08" y1="440.13" x2="190.08" y2="444.83" stroke="#f6465d" stroke-width="1.4" /><rect x="187.08" y="440.37" width="6" height="3.54" rx="1.5" fill="#f6465d" /><line x1="200.81" y1="440.60" x2="200.81" y2="444.69" stroke="#0ecb81" stroke-width="1.4" /><rect x="197.81" y="444.18" width="6" height="2.00" rx="1.5" fill="#0ecb81" /><line x1="211.54" y1="439.99" x2="211.54" y2="443.62" stroke="#0ecb81" stroke-width="1.4" /><rect x="208.54" y="439.99" width="6" height="3.63" rx="1.5" fill="#0ecb81" /><line x1="222.28" y1="439.20" x2="222.28" y2="441.39" stroke="#0ecb81" stroke-width="1.4" /><rect x="219.28" y="439.58" width="6" height="2.00" rx="1.5" fill="#0ecb81" /><line x1="233.01" y1="438.88" x2="233.01" y2="442.09" stroke="#f6465d" stroke-width="1.4" /><rect x="230.01" y="439.58" width="6" height="2.00" rx="1.5" fill="#f6465d" /><line x1="243.75" y1="439.62" x2="243.75" y2="442.97" stroke="#f6465d" stroke-width="1.4" /><rect x="240.75" y="440.46" width="6" height="2.00" rx="1.5" fill="#f6465d" /><line x1="254.48" y1="439.72" x2="254.48" y2="442.97" stroke="#0ecb81" stroke-width="1.4" /><rect x="251.48" y="441.76" width="6" height="2.00" rx="1.5" fill="#0ecb81" /><line x1="265.22" y1="439.48" x2="265.22" y2="442.83" stroke="#f6465d" stroke-width="1.4" /><rect x="262.22" y="441.76" width="6" height="2.00" rx="1.5" fill="#f6465d" /><line x1="275.95" y1="440.23" x2="275.95" y2="443.44" stroke="#0ecb81" stroke-width="1.4" /><rect x="272.95" y="441.90" width="6" height="2.00" rx="1.5" fill="#0ecb81" /><line x1="286.68" y1="440.32" x2="286.68" y2="445.21" stroke="#0ecb81" stroke-width="1.4" /><rect x="283.68" y="441.53" width="6" height="2.00" rx="1.5" fill="#0ecb81" /><line x1="297.42" y1="439.39" x2="297.42" y2="445.16" stroke="#0ecb81" stroke-width="1.4" /><rect x="294.42" y="441.44" width="6" height="2.00" rx="1.5" fill="#0ecb81" /><line x1="308.15" y1="438.78" x2="308.15" y2="442.79" stroke="#0ecb81" stroke-width="1.4" /><rect x="305.15" y="439.06" width="6" height="2.00" rx="1.5" fill="#0ecb81" /><line x1="318.89" y1="437.39" x2="318.89" y2="439.20" stroke="#0ecb81" stroke-width="1.4" /><rect x="315.89" y="438.55" width="6" height="2.00" rx="1.5" fill="#0ecb81" /><line x1="329.62" y1="435.02" x2="329.62" y2="439.81" stroke="#0ecb81" stroke-width="1.4" /><rect x="326.62" y="438.41" width="6" height="2.00" rx="1.5" fill="#0ecb81" /><line x1="340.35" y1="433.43" x2="340.35" y2="439.53" stroke="#f6465d" stroke-width="1.4" /><rect x="337.35" y="438.13" width="6" height="2.00" rx="1.5" fill="#f6465d" /><line x1="351.09" y1="434.13" x2="351.09" y2="438.92" stroke="#0ecb81" stroke-width="1.4" /><rect x="348.09" y="435.53" width="6" height="3.35" rx="1.5" fill="#0ecb81" /><line x1="361.82" y1="432.97" x2="361.82" y2="436.55" stroke="#0ecb81" stroke-width="1.4" /><rect x="358.82" y="434.04" width="6" height="2.00" rx="1.5" fill="#0ecb81" /><line x1="372.56" y1="433.20" x2="372.56" y2="435.29" stroke="#f6465d" stroke-width="1.4" /><rect x="369.56" y="433.71" width="6" height="2.00" rx="1.5" fill="#f6465d" /><line x1="383.29" y1="432.08" x2="383.29" y2="435.11" stroke="#0ecb81" stroke-width="1.4" /><rect x="380.29" y="432.41" width="6" height="2.00" rx="1.5" fill="#0ecb81" /><line x1="394.03" y1="432.08" x2="394.03" y2="435.99" stroke="#f6465d" stroke-width="1.4" /><rect x="391.03" y="432.83" width="6" height="2.00" rx="1.5" fill="#f6465d" /><line x1="404.76" y1="432.04" x2="404.76" y2="435.11" stroke="#0ecb81" stroke-width="1.4" /><rect x="401.76" y="432.32" width="6" height="2.00" rx="1.5" fill="#0ecb81" /><line x1="415.49" y1="429.57" x2="415.49" y2="434.97" stroke="#f6465d" stroke-width="1.4" /><rect x="412.49" y="432.46" width="6" height="2.00" rx="1.5" fill="#f6465d" /><line x1="426.23" y1="430.83" x2="426.23" y2="434.13" stroke="#0ecb81" stroke-width="1.4" /><rect x="423.23" y="433.29" width="6" height="2.00" rx="1.5" fill="#0ecb81" /><line x1="436.96" y1="431.39" x2="436.96" y2="435.02" stroke="#f6465d" stroke-width="1.4" /><rect x="433.96" y="433.06" width="6" height="2.00" rx="1.5" fill="#f6465d" /><line x1="447.70" y1="431.20" x2="447.70" y2="434.50" stroke="#0ecb81" stroke-width="1.4" /><rect x="444.70" y="431.62" width="6" height="2.00" rx="1.5" fill="#0ecb81" /><line x1="458.43" y1="431.06" x2="458.43" y2="434.27" stroke="#f6465d" stroke-width="1.4" /><rect x="455.43" y="431.53" width="6" height="2.75" rx="1.5" fill="#f6465d" /><line x1="469.16" y1="433.11" x2="469.16" y2="435.71" stroke="#f6465d" stroke-width="1.4" /><rect x="466.16" y="434.08" width="6" height="2.00" rx="1.5" fill="#f6465d" /><line x1="479.90" y1="433.48" x2="479.90" y2="435.62" stroke="#f6465d" stroke-width="1.4" /><rect x="476.90" y="434.83" width="6" height="2.00" rx="1.5" fill="#f6465d" /><line x1="490.63" y1="433.76" x2="490.63" y2="436.23" stroke="#f6465d" stroke-width="1.4" /><rect x="487.63" y="435.25" width="6" height="2.00" rx="1.5" fill="#f6465d" /><line x1="501.37" y1="432.87" x2="501.37" y2="436.97" stroke="#f6465d" stroke-width="1.4" /><rect x="498.37" y="435.53" width="6" height="2.00" rx="1.5" fill="#f6465d" /><line x1="512.10" y1="435.99" x2="512.10" y2="439.16" stroke="#f6465d" stroke-width="1.4" /><rect x="509.10" y="435.99" width="6" height="2.00" rx="1.5" fill="#f6465d" /><line x1="522.84" y1="435.90" x2="522.84" y2="439.16" stroke="#f6465d" stroke-width="1.4" /><rect x="519.84" y="437.85" width="6" height="2.00" rx="1.5" fill="#f6465d" /><line x1="533.57" y1="433.90" x2="533.57" y2="438.41" stroke="#0ecb81" stroke-width="1.4" /><rect x="530.57" y="433.99" width="6" height="4.42" rx="1.5" fill="#0ecb81" /><line x1="544.30" y1="432.27" x2="544.30" y2="435.39" stroke="#f6465d" stroke-width="1.4" /><rect x="541.30" y="434.32" width="6" height="2.00" rx="1.5" fill="#f6465d" /><line x1="555.04" y1="435.02" x2="555.04" y2="438.64" stroke="#f6465d" stroke-width="1.4" /><rect x="552.04" y="435.48" width="6" height="2.37" rx="1.5" fill="#f6465d" /><line x1="565.77" y1="435.90" x2="565.77" y2="439.11" stroke="#0ecb81" stroke-width="1.4" /><rect x="562.77" y="436.74" width="6" height="2.00" rx="1.5" fill="#0ecb81" /><line x1="576.51" y1="436.32" x2="576.51" y2="440.51" stroke="#f6465d" stroke-width="1.4" /><rect x="573.51" y="436.78" width="6" height="2.00" rx="1.5" fill="#f6465d" /><line x1="587.24" y1="436.78" x2="587.24" y2="439.34" stroke="#0ecb81" stroke-width="1.4" /><rect x="584.24" y="437.48" width="6" height="2.00" rx="1.5" fill="#0ecb81" /><line x1="597.97" y1="436.64" x2="597.97" y2="440.04" stroke="#f6465d" stroke-width="1.4" /><rect x="594.97" y="437.48" width="6" height="2.00" rx="1.5" fill="#f6465d" /><line x1="608.71" y1="436.97" x2="608.71" y2="441.30" stroke="#f6465d" stroke-width="1.4" /><rect x="605.71" y="437.76" width="6" height="2.93" rx="1.5" fill="#f6465d" /><line x1="619.44" y1="439.20" x2="619.44" y2="441.76" stroke="#0ecb81" stroke-width="1.4" /><rect x="616.44" y="440.37" width="6" height="2.00" rx="1.5" fill="#0ecb81" /><line x1="630.18" y1="439.30" x2="630.18" y2="441.86" stroke="#f6465d" stroke-width="1.4" /><rect x="627.18" y="440.18" width="6" height="2.00" rx="1.5" fill="#f6465d" /><line x1="640.91" y1="439.30" x2="640.91" y2="442.41" stroke="#f6465d" stroke-width="1.4" /><rect x="637.91" y="440.83" width="6" height="2.00" rx="1.5" fill="#f6465d" /><line x1="651.65" y1="439.67" x2="651.65" y2="443.07" stroke="#0ecb81" stroke-width="1.4" /><rect x="648.65" y="441.81" width="6" height="2.00" rx="1.5" fill="#0ecb81" /><line x1="662.38" y1="441.02" x2="662.38" y2="442.69" stroke="#f6465d" stroke-width="1.4" /><rect x="659.38" y="441.62" width="6" height="2.00" rx="1.5" fill="#f6465d" /><line x1="673.11" y1="441.72" x2="673.11" y2="445.62" stroke="#f6465d" stroke-width="1.4" /><rect x="670.11" y="441.90" width="6" height="3.12" rx="1.5" fill="#f6465d" /><line x1="683.85" y1="439.62" x2="683.85" y2="445.35" stroke="#0ecb81" stroke-width="1.4" /><rect x="680.85" y="440.93" width="6" height="3.91" rx="1.5" fill="#0ecb81" /><line x1="694.58" y1="439.34" x2="694.58" y2="441.72" stroke="#f6465d" stroke-width="1.4" /><rect x="691.58" y="441.11" width="6" height="2.00" rx="1.5" fill="#f6465d" /><line x1="705.32" y1="439.48" x2="705.32" y2="441.81" stroke="#0ecb81" stroke-width="1.4" /><rect x="702.32" y="440.41" width="6" height="2.00" rx="1.5" fill="#0ecb81" /><line x1="716.05" y1="439.25" x2="716.05" y2="442.37" stroke="#0ecb81" stroke-width="1.4" /><rect x="713.05" y="439.99" width="6" height="2.00" rx="1.5" fill="#0ecb81" /><line x1="726.78" y1="437.20" x2="726.78" y2="439.99" stroke="#0ecb81" stroke-width="1.4" /><rect x="723.78" y="439.02" width="6" height="2.00" rx="1.5" fill="#0ecb81" /><line x1="737.52" y1="435.71" x2="737.52" y2="439.30" stroke="#0ecb81" stroke-width="1.4" /><rect x="734.52" y="436.04" width="6" height="3.26" rx="1.5" fill="#0ecb81" /><line x1="748.25" y1="433.62" x2="748.25" y2="437.71" stroke="#f6465d" stroke-width="1.4" /><rect x="745.25" y="435.85" width="6" height="2.00" rx="1.5" fill="#f6465d" /><line x1="758.99" y1="433.34" x2="758.99" y2="438.37" stroke="#0ecb81" stroke-width="1.4" /><rect x="755.99" y="434.41" width="6" height="2.23" rx="1.5" fill="#0ecb81" /><line x1="769.72" y1="431.57" x2="769.72" y2="435.39" stroke="#0ecb81" stroke-width="1.4" /><rect x="766.72" y="432.69" width="6" height="2.00" rx="1.5" fill="#0ecb81" /><line x1="780.46" y1="432.55" x2="780.46" y2="435.99" stroke="#f6465d" stroke-width="1.4" /><rect x="777.46" y="432.64" width="6" height="2.70" rx="1.5" fill="#f6465d" /><line x1="791.19" y1="434.64" x2="791.19" y2="438.32" stroke="#f6465d" stroke-width="1.4" /><rect x="788.19" y="435.48" width="6" height="2.00" rx="1.5" fill="#f6465d" /><line x1="801.92" y1="434.88" x2="801.92" y2="438.27" stroke="#0ecb81" stroke-width="1.4" /><rect x="798.92" y="436.27" width="6" height="2.00" rx="1.5" fill="#0ecb81" /><line x1="812.66" y1="435.67" x2="812.66" y2="438.51" stroke="#f6465d" stroke-width="1.4" /><rect x="809.66" y="436.55" width="6" height="2.00" rx="1.5" fill="#f6465d" /><line x1="823.39" y1="436.13" x2="823.39" y2="438.32" stroke="#0ecb81" stroke-width="1.4" /><rect x="820.39" y="437.34" width="6" height="2.00" rx="1.5" fill="#0ecb81" /><line x1="834.13" y1="437.20" x2="834.13" y2="440.41" stroke="#f6465d" stroke-width="1.4" /><rect x="831.13" y="437.39" width="6" height="2.00" rx="1.5" fill="#f6465d" /><line x1="844.86" y1="401.28" x2="844.86" y2="442.88" stroke="#0ecb81" stroke-width="1.4" /><rect x="841.86" y="406.49" width="6" height="32.34" rx="1.5" fill="#0ecb81" /><line x1="855.59" y1="323.61" x2="855.59" y2="410.82" stroke="#0ecb81" stroke-width="1.4" /><rect x="852.59" y="334.78" width="6" height="71.38" rx="1.5" fill="#0ecb81" /><line x1="866.33" y1="202.30" x2="866.33" y2="346.18" stroke="#0ecb81" stroke-width="1.4" /><rect x="863.33" y="219.98" width="6" height="115.22" rx="1.5" fill="#0ecb81" /><line x1="877.06" y1="118.54" x2="877.06" y2="283.87" stroke="#0ecb81" stroke-width="1.4" /><rect x="874.06" y="141.39" width="6" height="78.08" rx="1.5" fill="#0ecb81" /><line x1="887.80" y1="68.89" x2="887.80" y2="211.56" stroke="#f6465d" stroke-width="1.4" /><rect x="884.80" y="142.18" width="6" height="39.37" rx="1.5" fill="#f6465d" /><line x1="898.53" y1="136.36" x2="898.53" y2="215.70" stroke="#0ecb81" stroke-width="1.4" /><rect x="895.53" y="168.28" width="6" height="13.26" rx="1.5" fill="#0ecb81" /><line x1="909.27" y1="58.00" x2="909.27" y2="209.98" stroke="#0ecb81" stroke-width="1.4" /><rect x="906.27" y="138.64" width="6" height="28.99" rx="1.5" fill="#0ecb81" /><line x1="920.00" y1="134.50" x2="920.00" y2="140.18" stroke="#0ecb81" stroke-width="1.4" /><rect x="917.00" y="138.88" width="6" height="2.00" rx="1.5" fill="#0ecb81" />
  <polyline points="286.68,445.21 415.49,429.57 522.84,439.16 544.30,432.27 673.11,445.62" fill="none" stroke="#2fc273" stroke-width="4" stroke-linecap="round" stroke-linejoin="round" />
  <circle cx="286.68" cy="445.21" r="5.5" fill="#2fc273" fill-opacity="0.15" stroke="#2fc273" stroke-width="2" /><text x="286.68" y="433.21" fill="#f3f4f6" font-size="15" font-weight="700" text-anchor="middle">X</text><circle cx="415.49" cy="429.57" r="5.5" fill="#2fc273" fill-opacity="0.15" stroke="#2fc273" stroke-width="2" /><text x="415.49" y="417.57" fill="#f3f4f6" font-size="15" font-weight="700" text-anchor="middle">A</text><circle cx="522.84" cy="439.16" r="5.5" fill="#2fc273" fill-opacity="0.15" stroke="#2fc273" stroke-width="2" /><text x="522.84" y="427.16" fill="#f3f4f6" font-size="15" font-weight="700" text-anchor="middle">B</text><circle cx="544.30" cy="432.27" r="5.5" fill="#2fc273" fill-opacity="0.15" stroke="#2fc273" stroke-width="2" /><text x="544.30" y="420.27" fill="#f3f4f6" font-size="15" font-weight="700" text-anchor="middle">C</text><circle cx="673.11" cy="445.62" r="5.5" fill="#2fc273" fill-opacity="0.15" stroke="#2fc273" stroke-width="2" /><text x="673.11" y="433.62" fill="#f3f4f6" font-size="15" font-weight="700" text-anchor="middle">D</text>
  <text x="56" y="492" fill="#8ba0b5" font-size="18">일반 완성 · TP1 0.00628 · TP2 0.006347 · SL 0.006126</text>
</svg>
