<svg xmlns="http://www.w3.org/2000/svg" width="960" height="540" viewBox="0 0 960 540">
  <rect width="960" height="540" rx="24" fill="#0b1220" />
  <rect x="28" y="28" width="904" height="484" rx="22" fill="#111827" stroke="#1f2937" />
  <text x="56" y="74" fill="#f3f4f6" font-size="34" font-weight="700">MONUSDT · AB=CD</text>
  <text x="904" y="74" fill="#8ba0b5" font-size="20" text-anchor="end">Bearish (매도) · Score 89.3</text>
  <line x1="72" y1="58" x2="920" y2="58" stroke="#223045" stroke-width="1" stroke-dasharray="4 8" /><line x1="72" y1="156" x2="920" y2="156" stroke="#223045" stroke-width="1" stroke-dasharray="4 8" /><line x1="72" y1="255" x2="920" y2="255" stroke="#223045" stroke-width="1" stroke-dasharray="4 8" /><line x1="72" y1="353" x2="920" y2="353" stroke="#223045" stroke-width="1" stroke-dasharray="4 8" /><line x1="72" y1="452" x2="920" y2="452" stroke="#223045" stroke-width="1" stroke-dasharray="4 8" />
  <rect x="623.65" y="23.98" width="84" height="53.58" fill="#fbbf24" fill-opacity="0.12" stroke="#fbbf24" stroke-width="1.5" stroke-dasharray="6 6" />
  <line x1="72.00" y1="372.36" x2="72.00" y2="388.43" stroke="#0ecb81" stroke-width="1.4" /><rect x="69.00" y="386.33" width="6" height="2.00" rx="1.5" fill="#0ecb81" /><line x1="82.73" y1="385.63" x2="82.73" y2="412.18" stroke="#f6465d" stroke-width="1.4" /><rect x="79.73" y="386.33" width="6" height="20.96" rx="1.5" fill="#f6465d" /><line x1="93.47" y1="388.43" x2="93.47" y2="414.28" stroke="#0ecb81" stroke-width="1.4" /><rect x="90.47" y="402.40" width="6" height="4.89" rx="1.5" fill="#0ecb81" /><line x1="104.20" y1="384.24" x2="104.20" y2="407.99" stroke="#f6465d" stroke-width="1.4" /><rect x="101.20" y="402.40" width="6" height="2.00" rx="1.5" fill="#f6465d" /><line x1="114.94" y1="389.13" x2="114.94" y2="410.78" stroke="#0ecb81" stroke-width="1.4" /><rect x="111.94" y="403.80" width="6" height="2.00" rx="1.5" fill="#0ecb81" /><line x1="125.67" y1="403.80" x2="125.67" y2="428.25" stroke="#f6465d" stroke-width="1.4" /><rect x="122.67" y="404.50" width="6" height="18.16" rx="1.5" fill="#f6465d" /><line x1="136.41" y1="421.96" x2="136.41" y2="452.00" stroke="#f6465d" stroke-width="1.4" /><rect x="133.41" y="422.66" width="6" height="8.38" rx="1.5" fill="#f6465d" /><line x1="147.14" y1="407.29" x2="147.14" y2="437.33" stroke="#0ecb81" stroke-width="1.4" /><rect x="144.14" y="411.48" width="6" height="19.56" rx="1.5" fill="#0ecb81" /><line x1="157.87" y1="369.57" x2="157.87" y2="420.56" stroke="#0ecb81" stroke-width="1.4" /><rect x="154.87" y="382.84" width="6" height="28.64" rx="1.5" fill="#0ecb81" /><line x1="168.61" y1="373.76" x2="168.61" y2="394.72" stroke="#f6465d" stroke-width="1.4" /><rect x="165.61" y="382.14" width="6" height="5.59" rx="1.5" fill="#f6465d" /><line x1="179.34" y1="362.58" x2="179.34" y2="392.62" stroke="#0ecb81" stroke-width="1.4" /><rect x="176.34" y="378.65" width="6" height="9.78" rx="1.5" fill="#0ecb81" /><line x1="190.08" y1="368.17" x2="190.08" y2="391.92" stroke="#f6465d" stroke-width="1.4" /><rect x="187.08" y="379.35" width="6" height="11.88" rx="1.5" fill="#f6465d" /><line x1="200.81" y1="387.03" x2="200.81" y2="402.40" stroke="#0ecb81" stroke-width="1.4" /><rect x="197.81" y="387.03" width="6" height="3.49" rx="1.5" fill="#0ecb81" /><line x1="211.54" y1="370.96" x2="211.54" y2="389.13" stroke="#0ecb81" stroke-width="1.4" /><rect x="208.54" y="378.65" width="6" height="8.38" rx="1.5" fill="#0ecb81" /><line x1="222.28" y1="294.82" x2="222.28" y2="381.44" stroke="#0ecb81" stroke-width="1.4" /><rect x="219.28" y="294.82" width="6" height="83.13" rx="1.5" fill="#0ecb81" /><line x1="233.01" y1="236.14" x2="233.01" y2="299.01" stroke="#0ecb81" stroke-width="1.4" /><rect x="230.01" y="284.34" width="6" height="10.48" rx="1.5" fill="#0ecb81" /><line x1="243.75" y1="237.54" x2="243.75" y2="302.50" stroke="#0ecb81" stroke-width="1.4" /><rect x="240.75" y="255.00" width="6" height="29.34" rx="1.5" fill="#0ecb81" /><line x1="254.48" y1="254.30" x2="254.48" y2="293.42" stroke="#f6465d" stroke-width="1.4" /><rect x="251.48" y="255.00" width="6" height="33.53" rx="1.5" fill="#f6465d" /><line x1="265.22" y1="273.16" x2="265.22" y2="313.68" stroke="#0ecb81" stroke-width="1.4" /><rect x="262.22" y="284.34" width="6" height="4.19" rx="1.5" fill="#0ecb81" /><line x1="275.95" y1="268.27" x2="275.95" y2="296.91" stroke="#0ecb81" stroke-width="1.4" /><rect x="272.95" y="274.56" width="6" height="9.08" rx="1.5" fill="#0ecb81" /><line x1="286.68" y1="272.46" x2="286.68" y2="308.79" stroke="#f6465d" stroke-width="1.4" /><rect x="283.68" y="273.86" width="6" height="16.07" rx="1.5" fill="#f6465d" /><line x1="297.42" y1="285.74" x2="297.42" y2="316.48" stroke="#f6465d" stroke-width="1.4" /><rect x="294.42" y="289.93" width="6" height="15.37" rx="1.5" fill="#f6465d" /><line x1="308.15" y1="250.81" x2="308.15" y2="320.67" stroke="#0ecb81" stroke-width="1.4" /><rect x="305.15" y="258.49" width="6" height="46.80" rx="1.5" fill="#0ecb81" /><line x1="318.89" y1="193.52" x2="318.89" y2="259.89" stroke="#0ecb81" stroke-width="1.4" /><rect x="315.89" y="214.48" width="6" height="43.31" rx="1.5" fill="#0ecb81" /><line x1="329.62" y1="140.43" x2="329.62" y2="215.18" stroke="#0ecb81" stroke-width="1.4" /><rect x="326.62" y="164.88" width="6" height="48.90" rx="1.5" fill="#0ecb81" /><line x1="340.35" y1="126.46" x2="340.35" y2="172.57" stroke="#0ecb81" stroke-width="1.4" /><rect x="337.35" y="155.10" width="6" height="9.08" rx="1.5" fill="#0ecb81" /><line x1="351.09" y1="122.97" x2="351.09" y2="161.39" stroke="#0ecb81" stroke-width="1.4" /><rect x="348.09" y="149.51" width="6" height="4.89" rx="1.5" fill="#0ecb81" /><line x1="361.82" y1="142.53" x2="361.82" y2="188.63" stroke="#f6465d" stroke-width="1.4" /><rect x="358.82" y="150.21" width="6" height="19.56" rx="1.5" fill="#f6465d" /><line x1="372.56" y1="148.12" x2="372.56" y2="189.33" stroke="#0ecb81" stroke-width="1.4" /><rect x="369.56" y="164.88" width="6" height="4.89" rx="1.5" fill="#0ecb81" /><line x1="383.29" y1="151.61" x2="383.29" y2="185.84" stroke="#f6465d" stroke-width="1.4" /><rect x="380.29" y="164.88" width="6" height="2.10" rx="1.5" fill="#f6465d" /><line x1="394.03" y1="134.15" x2="394.03" y2="176.76" stroke="#0ecb81" stroke-width="1.4" /><rect x="391.03" y="156.50" width="6" height="11.18" rx="1.5" fill="#0ecb81" /><line x1="404.76" y1="130.65" x2="404.76" y2="176.76" stroke="#0ecb81" stroke-width="1.4" /><rect x="401.76" y="138.34" width="6" height="18.86" rx="1.5" fill="#0ecb81" /><line x1="415.49" y1="106.20" x2="415.49" y2="175.36" stroke="#f6465d" stroke-width="1.4" /><rect x="412.49" y="138.34" width="6" height="21.66" rx="1.5" fill="#f6465d" /><line x1="426.23" y1="124.37" x2="426.23" y2="183.05" stroke="#f6465d" stroke-width="1.4" /><rect x="423.23" y="159.99" width="6" height="16.77" rx="1.5" fill="#f6465d" /><line x1="436.96" y1="159.99" x2="436.96" y2="220.07" stroke="#0ecb81" stroke-width="1.4" /><rect x="433.96" y="169.07" width="6" height="8.38" rx="1.5" fill="#0ecb81" /><line x1="447.70" y1="165.58" x2="447.70" y2="197.02" stroke="#f6465d" stroke-width="1.4" /><rect x="444.70" y="169.77" width="6" height="16.77" rx="1.5" fill="#f6465d" /><line x1="458.43" y1="184.44" x2="458.43" y2="217.98" stroke="#f6465d" stroke-width="1.4" /><rect x="455.43" y="187.24" width="6" height="27.24" rx="1.5" fill="#f6465d" /><line x1="469.16" y1="183.05" x2="469.16" y2="222.17" stroke="#0ecb81" stroke-width="1.4" /><rect x="466.16" y="198.41" width="6" height="16.07" rx="1.5" fill="#0ecb81" /><line x1="479.90" y1="182.35" x2="479.90" y2="206.10" stroke="#0ecb81" stroke-width="1.4" /><rect x="476.90" y="196.32" width="6" height="2.79" rx="1.5" fill="#0ecb81" /><line x1="490.63" y1="136.94" x2="490.63" y2="195.62" stroke="#0ecb81" stroke-width="1.4" /><rect x="487.63" y="147.42" width="6" height="48.20" rx="1.5" fill="#0ecb81" /><line x1="501.37" y1="120.17" x2="501.37" y2="158.60" stroke="#0ecb81" stroke-width="1.4" /><rect x="498.37" y="129.26" width="6" height="18.86" rx="1.5" fill="#0ecb81" /><line x1="512.10" y1="113.89" x2="512.10" y2="141.13" stroke="#0ecb81" stroke-width="1.4" /><rect x="509.10" y="125.76" width="6" height="4.19" rx="1.5" fill="#0ecb81" /><line x1="522.84" y1="114.59" x2="522.84" y2="166.98" stroke="#f6465d" stroke-width="1.4" /><rect x="519.84" y="126.46" width="6" height="23.75" rx="1.5" fill="#f6465d" /><line x1="533.57" y1="127.16" x2="533.57" y2="161.39" stroke="#0ecb81" stroke-width="1.4" /><rect x="530.57" y="135.54" width="6" height="14.67" rx="1.5" fill="#0ecb81" /><line x1="544.30" y1="95.02" x2="544.30" y2="137.64" stroke="#0ecb81" stroke-width="1.4" /><rect x="541.30" y="114.59" width="6" height="21.66" rx="1.5" fill="#0ecb81" /><line x1="555.04" y1="84.55" x2="555.04" y2="127.16" stroke="#0ecb81" stroke-width="1.4" /><rect x="552.04" y="92.23" width="6" height="22.35" rx="1.5" fill="#0ecb81" /><line x1="565.77" y1="88.04" x2="565.77" y2="130.65" stroke="#f6465d" stroke-width="1.4" /><rect x="562.77" y="92.23" width="6" height="32.13" rx="1.5" fill="#f6465d" /><line x1="576.51" y1="106.90" x2="576.51" y2="143.23" stroke="#f6465d" stroke-width="1.4" /><rect x="573.51" y="125.06" width="6" height="2.79" rx="1.5" fill="#f6465d" /><line x1="587.24" y1="97.12" x2="587.24" y2="140.43" stroke="#0ecb81" stroke-width="1.4" /><rect x="584.24" y="98.52" width="6" height="28.64" rx="1.5" fill="#0ecb81" /><line x1="597.97" y1="78.96" x2="597.97" y2="117.38" stroke="#f6465d" stroke-width="1.4" /><rect x="594.97" y="97.82" width="6" height="12.57" rx="1.5" fill="#f6465d" /><line x1="608.71" y1="90.13" x2="608.71" y2="118.78" stroke="#0ecb81" stroke-width="1.4" /><rect x="605.71" y="106.90" width="6" height="3.49" rx="1.5" fill="#0ecb81" /><line x1="619.44" y1="98.52" x2="619.44" y2="132.05" stroke="#f6465d" stroke-width="1.4" /><rect x="616.44" y="106.90" width="6" height="18.16" rx="1.5" fill="#f6465d" /><line x1="630.18" y1="104.80" x2="630.18" y2="141.83" stroke="#0ecb81" stroke-width="1.4" /><rect x="627.18" y="108.30" width="6" height="16.07" rx="1.5" fill="#0ecb81" /><line x1="640.91" y1="81.75" x2="640.91" y2="109.00" stroke="#0ecb81" stroke-width="1.4" /><rect x="637.91" y="96.42" width="6" height="12.57" rx="1.5" fill="#0ecb81" /><line x1="651.65" y1="58.00" x2="651.65" y2="98.52" stroke="#0ecb81" stroke-width="1.4" /><rect x="648.65" y="92.93" width="6" height="3.49" rx="1.5" fill="#0ecb81" /><line x1="662.38" y1="80.35" x2="662.38" y2="132.75" stroke="#f6465d" stroke-width="1.4" /><rect x="659.38" y="92.93" width="6" height="25.85" rx="1.5" fill="#f6465d" /><line x1="673.11" y1="115.98" x2="673.11" y2="166.28" stroke="#f6465d" stroke-width="1.4" /><rect x="670.11" y="118.78" width="6" height="34.23" rx="1.5" fill="#f6465d" /><line x1="683.85" y1="133.45" x2="683.85" y2="157.20" stroke="#f6465d" stroke-width="1.4" /><rect x="680.85" y="153.71" width="6" height="2.10" rx="1.5" fill="#f6465d" /><line x1="694.58" y1="127.86" x2="694.58" y2="165.58" stroke="#0ecb81" stroke-width="1.4" /><rect x="691.58" y="129.95" width="6" height="25.85" rx="1.5" fill="#0ecb81" /><line x1="705.32" y1="88.04" x2="705.32" y2="132.05" stroke="#0ecb81" stroke-width="1.4" /><rect x="702.32" y="114.59" width="6" height="15.37" rx="1.5" fill="#0ecb81" /><line x1="716.05" y1="87.34" x2="716.05" y2="124.37" stroke="#0ecb81" stroke-width="1.4" /><rect x="713.05" y="98.52" width="6" height="16.07" rx="1.5" fill="#0ecb81" /><line x1="726.78" y1="69.88" x2="726.78" y2="102.01" stroke="#0ecb81" stroke-width="1.4" /><rect x="723.78" y="95.02" width="6" height="2.79" rx="1.5" fill="#0ecb81" /><line x1="737.52" y1="92.23" x2="737.52" y2="120.17" stroke="#f6465d" stroke-width="1.4" /><rect x="734.52" y="95.02" width="6" height="22.35" rx="1.5" fill="#f6465d" /><line x1="748.25" y1="106.20" x2="748.25" y2="126.46" stroke="#f6465d" stroke-width="1.4" /><rect x="745.25" y="116.68" width="6" height="8.38" rx="1.5" fill="#f6465d" /><line x1="758.99" y1="120.87" x2="758.99" y2="141.83" stroke="#f6465d" stroke-width="1.4" /><rect x="755.99" y="124.37" width="6" height="8.38" rx="1.5" fill="#f6465d" /><line x1="769.72" y1="115.98" x2="769.72" y2="142.53" stroke="#0ecb81" stroke-width="1.4" /><rect x="766.72" y="128.56" width="6" height="4.19" rx="1.5" fill="#0ecb81" /><line x1="780.46" y1="127.86" x2="780.46" y2="158.60" stroke="#f6465d" stroke-width="1.4" /><rect x="777.46" y="127.86" width="6" height="18.86" rx="1.5" fill="#f6465d" /><line x1="791.19" y1="142.53" x2="791.19" y2="184.44" stroke="#f6465d" stroke-width="1.4" /><rect x="788.19" y="146.72" width="6" height="30.74" rx="1.5" fill="#f6465d" /><line x1="801.92" y1="162.79" x2="801.92" y2="180.25" stroke="#0ecb81" stroke-width="1.4" /><rect x="798.92" y="173.27" width="6" height="4.19" rx="1.5" fill="#0ecb81" /><line x1="812.66" y1="171.87" x2="812.66" y2="187.94" stroke="#f6465d" stroke-width="1.4" /><rect x="809.66" y="173.27" width="6" height="5.59" rx="1.5" fill="#f6465d" /><line x1="823.39" y1="166.28" x2="823.39" y2="187.24" stroke="#0ecb81" stroke-width="1.4" /><rect x="820.39" y="173.96" width="6" height="5.59" rx="1.5" fill="#0ecb81" /><line x1="834.13" y1="165.58" x2="834.13" y2="182.35" stroke="#f6465d" stroke-width="1.4" /><rect x="831.13" y="173.27" width="6" height="3.49" rx="1.5" fill="#f6465d" /><line x1="844.86" y1="173.96" x2="844.86" y2="197.02" stroke="#f6465d" stroke-width="1.4" /><rect x="841.86" y="176.76" width="6" height="12.57" rx="1.5" fill="#f6465d" /><line x1="855.59" y1="186.54" x2="855.59" y2="204.70" stroke="#f6465d" stroke-width="1.4" /><rect x="852.59" y="189.33" width="6" height="7.68" rx="1.5" fill="#f6465d" /><line x1="866.33" y1="157.20" x2="866.33" y2="199.11" stroke="#0ecb81" stroke-width="1.4" /><rect x="863.33" y="165.58" width="6" height="30.74" rx="1.5" fill="#0ecb81" /><line x1="877.06" y1="148.12" x2="877.06" y2="173.27" stroke="#0ecb81" stroke-width="1.4" /><rect x="874.06" y="150.21" width="6" height="16.77" rx="1.5" fill="#0ecb81" /><line x1="887.80" y1="138.34" x2="887.80" y2="164.18" stroke="#f6465d" stroke-width="1.4" /><rect x="884.80" y="151.61" width="6" height="7.68" rx="1.5" fill="#f6465d" /><line x1="898.53" y1="149.51" x2="898.53" y2="172.57" stroke="#f6465d" stroke-width="1.4" /><rect x="895.53" y="159.29" width="6" height="5.59" rx="1.5" fill="#f6465d" /><line x1="909.27" y1="162.09" x2="909.27" y2="188.63" stroke="#f6465d" stroke-width="1.4" /><rect x="906.27" y="164.18" width="6" height="13.97" rx="1.5" fill="#f6465d" /><line x1="920.00" y1="176.76" x2="920.00" y2="178.16" stroke="#0ecb81" stroke-width="1.4" /><rect x="917.00" y="177.46" width="6" height="2.00" rx="1.5" fill="#0ecb81" />
  <polyline points="555.04,84.55 576.51,143.23 597.97,78.96 630.18,141.83 651.65,58.00" fill="none" stroke="#2fc273" stroke-width="4" stroke-linecap="round" stroke-linejoin="round" />
  <circle cx="555.04" cy="84.55" r="5.5" fill="#2fc273" fill-opacity="0.15" stroke="#2fc273" stroke-width="2" /><text x="555.04" y="72.55" fill="#f3f4f6" font-size="15" font-weight="700" text-anchor="middle">X</text><circle cx="576.51" cy="143.23" r="5.5" fill="#2fc273" fill-opacity="0.15" stroke="#2fc273" stroke-width="2" /><text x="576.51" y="131.23" fill="#f3f4f6" font-size="15" font-weight="700" text-anchor="middle">A</text><circle cx="597.97" cy="78.96" r="5.5" fill="#2fc273" fill-opacity="0.15" stroke="#2fc273" stroke-width="2" /><text x="597.97" y="66.96" fill="#f3f4f6" font-size="15" font-weight="700" text-anchor="middle">B</text><circle cx="630.18" cy="141.83" r="5.5" fill="#2fc273" fill-opacity="0.15" stroke="#2fc273" stroke-width="2" /><text x="630.18" y="129.83" fill="#f3f4f6" font-size="15" font-weight="700" text-anchor="middle">C</text><circle cx="651.65" cy="58.00" r="5.5" fill="#2fc273" fill-opacity="0.15" stroke="#2fc273" stroke-width="2" /><text x="651.65" y="46.00" fill="#f3f4f6" font-size="15" font-weight="700" text-anchor="middle">D</text>
  <text x="56" y="492" fill="#8ba0b5" font-size="18">일반 완성 · TP1 0.027792 · TP2 0.027508 · SL 0.028359</text>
</svg>
