<svg xmlns="http://www.w3.org/2000/svg" width="960" height="540" viewBox="0 0 960 540">
  <rect width="960" height="540" rx="24" fill="#0b1220" />
  <rect x="28" y="28" width="904" height="484" rx="22" fill="#111827" stroke="#1f2937" />
  <text x="56" y="74" fill="#f3f4f6" font-size="34" font-weight="700">MUSDT · AB=CD</text>
  <text x="904" y="74" fill="#8ba0b5" font-size="20" text-anchor="end">Bullish (매수) · Score 79.5</text>
  <line x1="72" y1="58" x2="920" y2="58" stroke="#223045" stroke-width="1" stroke-dasharray="4 8" /><line x1="72" y1="156" x2="920" y2="156" stroke="#223045" stroke-width="1" stroke-dasharray="4 8" /><line x1="72" y1="255" x2="920" y2="255" stroke="#223045" stroke-width="1" stroke-dasharray="4 8" /><line x1="72" y1="353" x2="920" y2="353" stroke="#223045" stroke-width="1" stroke-dasharray="4 8" /><line x1="72" y1="452" x2="920" y2="452" stroke="#223045" stroke-width="1" stroke-dasharray="4 8" />
  <rect x="408.96" y="276.08" width="84" height="25.73" fill="#fbbf24" fill-opacity="0.12" stroke="#fbbf24" stroke-width="1.5" stroke-dasharray="6 6" />
  <line x1="72.00" y1="290.28" x2="72.00" y2="363.19" stroke="#0ecb81" stroke-width="1.4" /><rect x="69.00" y="309.81" width="6" height="18.89" rx="1.5" fill="#0ecb81" /><line x1="82.73" y1="261.35" x2="82.73" y2="349.42" stroke="#f6465d" stroke-width="1.4" /><rect x="79.73" y="310.56" width="6" height="2.03" rx="1.5" fill="#f6465d" /><line x1="93.47" y1="245.98" x2="93.47" y2="344.51" stroke="#0ecb81" stroke-width="1.4" /><rect x="90.47" y="269.46" width="6" height="42.70" rx="1.5" fill="#0ecb81" /><line x1="104.20" y1="206.27" x2="104.20" y2="272.45" stroke="#0ecb81" stroke-width="1.4" /><rect x="101.20" y="258.04" width="6" height="11.32" rx="1.5" fill="#0ecb81" /><line x1="114.94" y1="249.50" x2="114.94" y2="331.70" stroke="#f6465d" stroke-width="1.4" /><rect x="111.94" y="258.04" width="6" height="72.80" rx="1.5" fill="#f6465d" /><line x1="125.67" y1="257.08" x2="125.67" y2="339.06" stroke="#0ecb81" stroke-width="1.4" /><rect x="122.67" y="272.77" width="6" height="58.07" rx="1.5" fill="#0ecb81" /><line x1="136.41" y1="242.99" x2="136.41" y2="300.53" stroke="#f6465d" stroke-width="1.4" /><rect x="133.41" y="272.77" width="6" height="20.82" rx="1.5" fill="#f6465d" /><line x1="147.14" y1="239.15" x2="147.14" y2="301.38" stroke="#0ecb81" stroke-width="1.4" /><rect x="144.14" y="248.11" width="6" height="45.47" rx="1.5" fill="#0ecb81" /><line x1="157.87" y1="209.58" x2="157.87" y2="256.55" stroke="#0ecb81" stroke-width="1.4" /><rect x="154.87" y="223.88" width="6" height="24.12" rx="1.5" fill="#0ecb81" /><line x1="168.61" y1="216.09" x2="168.61" y2="310.99" stroke="#f6465d" stroke-width="1.4" /><rect x="165.61" y="223.78" width="6" height="50.49" rx="1.5" fill="#f6465d" /><line x1="179.34" y1="226.98" x2="179.34" y2="283.98" stroke="#0ecb81" stroke-width="1.4" /><rect x="176.34" y="239.79" width="6" height="34.27" rx="1.5" fill="#0ecb81" /><line x1="190.08" y1="182.04" x2="190.08" y2="257.40" stroke="#0ecb81" stroke-width="1.4" /><rect x="187.08" y="192.93" width="6" height="46.75" rx="1.5" fill="#0ecb81" /><line x1="200.81" y1="141.58" x2="200.81" y2="252.06" stroke="#f6465d" stroke-width="1.4" /><rect x="197.81" y="193.03" width="6" height="43.66" rx="1.5" fill="#f6465d" /><line x1="211.54" y1="178.41" x2="211.54" y2="257.94" stroke="#0ecb81" stroke-width="1.4" /><rect x="208.54" y="191.75" width="6" height="44.83" rx="1.5" fill="#0ecb81" /><line x1="222.28" y1="103.15" x2="222.28" y2="194.42" stroke="#0ecb81" stroke-width="1.4" /><rect x="219.28" y="154.29" width="6" height="37.36" rx="1.5" fill="#0ecb81" /><line x1="233.01" y1="150.55" x2="233.01" y2="238.72" stroke="#f6465d" stroke-width="1.4" /><rect x="230.01" y="153.96" width="6" height="40.35" rx="1.5" fill="#f6465d" /><line x1="243.75" y1="146.49" x2="243.75" y2="217.48" stroke="#0ecb81" stroke-width="1.4" /><rect x="240.75" y="164.53" width="6" height="29.68" rx="1.5" fill="#0ecb81" /><line x1="254.48" y1="136.57" x2="254.48" y2="180.44" stroke="#0ecb81" stroke-width="1.4" /><rect x="251.48" y="159.94" width="6" height="4.59" rx="1.5" fill="#0ecb81" /><line x1="265.22" y1="140.30" x2="265.22" y2="182.57" stroke="#0ecb81" stroke-width="1.4" /><rect x="262.22" y="154.18" width="6" height="5.87" rx="1.5" fill="#0ecb81" /><line x1="275.95" y1="145.32" x2="275.95" y2="191.43" stroke="#f6465d" stroke-width="1.4" /><rect x="272.95" y="154.18" width="6" height="19.11" rx="1.5" fill="#f6465d" /><line x1="286.68" y1="163.36" x2="286.68" y2="205.10" stroke="#0ecb81" stroke-width="1.4" /><rect x="283.68" y="173.07" width="6" height="2.00" rx="1.5" fill="#0ecb81" /><line x1="297.42" y1="148.84" x2="297.42" y2="202.11" stroke="#0ecb81" stroke-width="1.4" /><rect x="294.42" y="155.78" width="6" height="17.19" rx="1.5" fill="#0ecb81" /><line x1="308.15" y1="122.69" x2="308.15" y2="189.94" stroke="#f6465d" stroke-width="1.4" /><rect x="305.15" y="155.89" width="6" height="13.13" rx="1.5" fill="#f6465d" /><line x1="318.89" y1="164.53" x2="318.89" y2="212.46" stroke="#f6465d" stroke-width="1.4" /><rect x="315.89" y="169.12" width="6" height="17.08" rx="1.5" fill="#f6465d" /><line x1="329.62" y1="137.31" x2="329.62" y2="188.76" stroke="#0ecb81" stroke-width="1.4" /><rect x="326.62" y="146.39" width="6" height="39.60" rx="1.5" fill="#0ecb81" /><line x1="340.35" y1="80.84" x2="340.35" y2="175.63" stroke="#0ecb81" stroke-width="1.4" /><rect x="337.35" y="144.36" width="6" height="2.03" rx="1.5" fill="#0ecb81" /><line x1="351.09" y1="137.74" x2="351.09" y2="223.35" stroke="#f6465d" stroke-width="1.4" /><rect x="348.09" y="144.36" width="6" height="41.52" rx="1.5" fill="#f6465d" /><line x1="361.82" y1="140.19" x2="361.82" y2="192.82" stroke="#0ecb81" stroke-width="1.4" /><rect x="358.82" y="153.00" width="6" height="32.88" rx="1.5" fill="#0ecb81" /><line x1="372.56" y1="146.07" x2="372.56" y2="181.19" stroke="#f6465d" stroke-width="1.4" /><rect x="369.56" y="153.00" width="6" height="11.64" rx="1.5" fill="#f6465d" /><line x1="383.29" y1="141.16" x2="383.29" y2="183.00" stroke="#f6465d" stroke-width="1.4" /><rect x="380.29" y="164.53" width="6" height="6.51" rx="1.5" fill="#f6465d" /><line x1="394.03" y1="133.58" x2="394.03" y2="180.86" stroke="#0ecb81" stroke-width="1.4" /><rect x="391.03" y="161.54" width="6" height="9.29" rx="1.5" fill="#0ecb81" /><line x1="404.76" y1="146.60" x2="404.76" y2="180.86" stroke="#f6465d" stroke-width="1.4" /><rect x="401.76" y="161.65" width="6" height="4.27" rx="1.5" fill="#f6465d" /><line x1="415.49" y1="161.01" x2="415.49" y2="193.99" stroke="#f6465d" stroke-width="1.4" /><rect x="412.49" y="165.92" width="6" height="23.27" rx="1.5" fill="#f6465d" /><line x1="426.23" y1="173.61" x2="426.23" y2="222.07" stroke="#f6465d" stroke-width="1.4" /><rect x="423.23" y="189.19" width="6" height="16.44" rx="1.5" fill="#f6465d" /><line x1="436.96" y1="181.40" x2="436.96" y2="313.23" stroke="#f6465d" stroke-width="1.4" /><rect x="433.96" y="205.74" width="6" height="55.19" rx="1.5" fill="#f6465d" /><line x1="447.70" y1="220.25" x2="447.70" y2="267.01" stroke="#0ecb81" stroke-width="1.4" /><rect x="444.70" y="245.23" width="6" height="15.69" rx="1.5" fill="#0ecb81" /><line x1="458.43" y1="114.90" x2="458.43" y2="246.30" stroke="#0ecb81" stroke-width="1.4" /><rect x="455.43" y="191.11" width="6" height="54.76" rx="1.5" fill="#0ecb81" /><line x1="469.16" y1="171.68" x2="469.16" y2="256.12" stroke="#f6465d" stroke-width="1.4" /><rect x="466.16" y="191.01" width="6" height="15.80" rx="1.5" fill="#f6465d" /><line x1="479.90" y1="185.56" x2="479.90" y2="221.11" stroke="#f6465d" stroke-width="1.4" /><rect x="476.90" y="206.91" width="6" height="13.66" rx="1.5" fill="#f6465d" /><line x1="490.63" y1="215.45" x2="490.63" y2="243.95" stroke="#f6465d" stroke-width="1.4" /><rect x="487.63" y="220.68" width="6" height="4.59" rx="1.5" fill="#f6465d" /><line x1="501.37" y1="211.29" x2="501.37" y2="246.19" stroke="#f6465d" stroke-width="1.4" /><rect x="498.37" y="225.27" width="6" height="8.33" rx="1.5" fill="#f6465d" /><line x1="512.10" y1="230.18" x2="512.10" y2="277.79" stroke="#f6465d" stroke-width="1.4" /><rect x="509.10" y="233.60" width="6" height="40.03" rx="1.5" fill="#f6465d" /><line x1="522.84" y1="269.25" x2="522.84" y2="323.48" stroke="#f6465d" stroke-width="1.4" /><rect x="519.84" y="273.63" width="6" height="41.74" rx="1.5" fill="#f6465d" /><line x1="533.57" y1="299.57" x2="533.57" y2="350.70" stroke="#f6465d" stroke-width="1.4" /><rect x="530.57" y="315.36" width="6" height="5.34" rx="1.5" fill="#f6465d" /><line x1="544.30" y1="302.24" x2="544.30" y2="338.85" stroke="#f6465d" stroke-width="1.4" /><rect x="541.30" y="320.70" width="6" height="15.69" rx="1.5" fill="#f6465d" /><line x1="555.04" y1="315.90" x2="555.04" y2="359.56" stroke="#0ecb81" stroke-width="1.4" /><rect x="552.04" y="327.00" width="6" height="9.39" rx="1.5" fill="#0ecb81" /><line x1="565.77" y1="324.12" x2="565.77" y2="352.19" stroke="#f6465d" stroke-width="1.4" /><rect x="562.77" y="327.00" width="6" height="15.80" rx="1.5" fill="#f6465d" /><line x1="576.51" y1="317.71" x2="576.51" y2="354.11" stroke="#f6465d" stroke-width="1.4" /><rect x="573.51" y="342.91" width="6" height="6.30" rx="1.5" fill="#f6465d" /><line x1="587.24" y1="326.79" x2="587.24" y2="354.33" stroke="#0ecb81" stroke-width="1.4" /><rect x="584.24" y="339.92" width="6" height="8.43" rx="1.5" fill="#0ecb81" /><line x1="597.97" y1="329.88" x2="597.97" y2="352.62" stroke="#0ecb81" stroke-width="1.4" /><rect x="594.97" y="335.22" width="6" height="4.70" rx="1.5" fill="#0ecb81" /><line x1="608.71" y1="318.99" x2="608.71" y2="351.34" stroke="#f6465d" stroke-width="1.4" /><rect x="605.71" y="335.33" width="6" height="12.17" rx="1.5" fill="#f6465d" /><line x1="619.44" y1="336.18" x2="619.44" y2="389.87" stroke="#0ecb81" stroke-width="1.4" /><rect x="616.44" y="340.77" width="6" height="6.73" rx="1.5" fill="#0ecb81" /><line x1="630.18" y1="331.27" x2="630.18" y2="368.52" stroke="#f6465d" stroke-width="1.4" /><rect x="627.18" y="340.45" width="6" height="2.99" rx="1.5" fill="#f6465d" /><line x1="640.91" y1="335.22" x2="640.91" y2="395.42" stroke="#f6465d" stroke-width="1.4" /><rect x="637.91" y="343.33" width="6" height="46.54" rx="1.5" fill="#f6465d" /><line x1="651.65" y1="380.37" x2="651.65" y2="425.21" stroke="#f6465d" stroke-width="1.4" /><rect x="648.65" y="389.66" width="6" height="27.86" rx="1.5" fill="#f6465d" /><line x1="662.38" y1="393.40" x2="662.38" y2="452.00" stroke="#f6465d" stroke-width="1.4" /><rect x="659.38" y="416.99" width="6" height="19.75" rx="1.5" fill="#f6465d" /><line x1="673.11" y1="378.56" x2="673.11" y2="439.19" stroke="#0ecb81" stroke-width="1.4" /><rect x="670.11" y="386.56" width="6" height="50.38" rx="1.5" fill="#0ecb81" /><line x1="683.85" y1="385.28" x2="683.85" y2="431.93" stroke="#f6465d" stroke-width="1.4" /><rect x="680.85" y="386.24" width="6" height="21.24" rx="1.5" fill="#f6465d" /><line x1="694.58" y1="404.39" x2="694.58" y2="423.82" stroke="#f6465d" stroke-width="1.4" /><rect x="691.58" y="407.49" width="6" height="9.82" rx="1.5" fill="#f6465d" /><line x1="705.32" y1="349.42" x2="705.32" y2="420.30" stroke="#0ecb81" stroke-width="1.4" /><rect x="702.32" y="405.99" width="6" height="11.32" rx="1.5" fill="#0ecb81" /><line x1="716.05" y1="373.22" x2="716.05" y2="407.59" stroke="#0ecb81" stroke-width="1.4" /><rect x="713.05" y="399.05" width="6" height="6.94" rx="1.5" fill="#0ecb81" /><line x1="726.78" y1="358.92" x2="726.78" y2="410.37" stroke="#0ecb81" stroke-width="1.4" /><rect x="723.78" y="381.55" width="6" height="17.40" rx="1.5" fill="#0ecb81" /><line x1="737.52" y1="351.87" x2="737.52" y2="394.14" stroke="#0ecb81" stroke-width="1.4" /><rect x="734.52" y="372.37" width="6" height="9.18" rx="1.5" fill="#0ecb81" /><line x1="748.25" y1="312.59" x2="748.25" y2="374.61" stroke="#0ecb81" stroke-width="1.4" /><rect x="745.25" y="328.39" width="6" height="44.09" rx="1.5" fill="#0ecb81" /><line x1="758.99" y1="144.78" x2="758.99" y2="332.12" stroke="#0ecb81" stroke-width="1.4" /><rect x="755.99" y="146.71" width="6" height="181.68" rx="1.5" fill="#0ecb81" /><line x1="769.72" y1="120.23" x2="769.72" y2="225.59" stroke="#f6465d" stroke-width="1.4" /><rect x="766.72" y="147.24" width="6" height="12.70" rx="1.5" fill="#f6465d" /><line x1="780.46" y1="94.83" x2="780.46" y2="175.31" stroke="#f6465d" stroke-width="1.4" /><rect x="777.46" y="159.30" width="6" height="7.37" rx="1.5" fill="#f6465d" /><line x1="791.19" y1="111.37" x2="791.19" y2="172.22" stroke="#0ecb81" stroke-width="1.4" /><rect x="788.19" y="115.64" width="6" height="49.85" rx="1.5" fill="#0ecb81" /><line x1="801.92" y1="96.54" x2="801.92" y2="149.91" stroke="#f6465d" stroke-width="1.4" /><rect x="798.92" y="115.86" width="6" height="2.00" rx="1.5" fill="#f6465d" /><line x1="812.66" y1="90.24" x2="812.66" y2="215.13" stroke="#f6465d" stroke-width="1.4" /><rect x="809.66" y="117.56" width="6" height="90.84" rx="1.5" fill="#f6465d" /><line x1="823.39" y1="201.25" x2="823.39" y2="308.00" stroke="#f6465d" stroke-width="1.4" /><rect x="820.39" y="207.76" width="6" height="8.65" rx="1.5" fill="#f6465d" /><line x1="834.13" y1="120.34" x2="834.13" y2="221.11" stroke="#0ecb81" stroke-width="1.4" /><rect x="831.13" y="146.28" width="6" height="70.24" rx="1.5" fill="#0ecb81" /><line x1="844.86" y1="101.45" x2="844.86" y2="175.21" stroke="#f6465d" stroke-width="1.4" /><rect x="841.86" y="146.49" width="6" height="2.00" rx="1.5" fill="#f6465d" /><line x1="855.59" y1="122.37" x2="855.59" y2="171.26" stroke="#f6465d" stroke-width="1.4" /><rect x="852.59" y="146.81" width="6" height="21.99" rx="1.5" fill="#f6465d" /><line x1="866.33" y1="58.00" x2="866.33" y2="188.55" stroke="#0ecb81" stroke-width="1.4" /><rect x="863.33" y="113.51" width="6" height="54.97" rx="1.5" fill="#0ecb81" /><line x1="877.06" y1="94.93" x2="877.06" y2="138.38" stroke="#0ecb81" stroke-width="1.4" /><rect x="874.06" y="108.28" width="6" height="5.23" rx="1.5" fill="#0ecb81" /><line x1="887.80" y1="101.02" x2="887.80" y2="134.11" stroke="#f6465d" stroke-width="1.4" /><rect x="884.80" y="109.67" width="6" height="17.93" rx="1.5" fill="#f6465d" /><line x1="898.53" y1="114.90" x2="898.53" y2="191.97" stroke="#f6465d" stroke-width="1.4" /><rect x="895.53" y="127.81" width="6" height="34.80" rx="1.5" fill="#f6465d" /><line x1="909.27" y1="151.30" x2="909.27" y2="190.58" stroke="#f6465d" stroke-width="1.4" /><rect x="906.27" y="162.72" width="6" height="8.43" rx="1.5" fill="#f6465d" /><line x1="920.00" y1="113.72" x2="920.00" y2="172.00" stroke="#0ecb81" stroke-width="1.4" /><rect x="917.00" y="150.02" width="6" height="20.50" rx="1.5" fill="#0ecb81" />
  <polyline points="168.61,310.99 340.35,80.84 351.09,223.35 394.03,133.58 436.96,313.23" fill="none" stroke="#2fc273" stroke-width="4" stroke-linecap="round" stroke-linejoin="round" />
  <circle cx="168.61" cy="310.99" r="5.5" fill="#2fc273" fill-opacity="0.15" stroke="#2fc273" stroke-width="2" /><text x="168.61" y="298.99" fill="#f3f4f6" font-size="15" font-weight="700" text-anchor="middle">X</text><circle cx="340.35" cy="80.84" r="5.5" fill="#2fc273" fill-opacity="0.15" stroke="#2fc273" stroke-width="2" /><text x="340.35" y="68.84" fill="#f3f4f6" font-size="15" font-weight="700" text-anchor="middle">A</text><circle cx="351.09" cy="223.35" r="5.5" fill="#2fc273" fill-opacity="0.15" stroke="#2fc273" stroke-width="2" /><text x="351.09" y="211.35" fill="#f3f4f6" font-size="15" font-weight="700" text-anchor="middle">B</text><circle cx="394.03" cy="133.58" r="5.5" fill="#2fc273" fill-opacity="0.15" stroke="#2fc273" stroke-width="2" /><text x="394.03" y="121.58" fill="#f3f4f6" font-size="15" font-weight="700" text-anchor="middle">C</text><circle cx="436.96" cy="313.23" r="5.5" fill="#2fc273" fill-opacity="0.15" stroke="#2fc273" stroke-width="2" /><text x="436.96" y="301.23" fill="#f3f4f6" font-size="15" font-weight="700" text-anchor="middle">D</text>
  <text x="56" y="492" fill="#8ba0b5" font-size="18">일반 완성 · TP1 2.6535 · TP2 2.6932 · SL 2.5612</text>
</svg>
