<svg xmlns="http://www.w3.org/2000/svg" width="960" height="540" viewBox="0 0 960 540">
  <rect width="960" height="540" rx="24" fill="#0b1220" />
  <rect x="28" y="28" width="904" height="484" rx="22" fill="#111827" stroke="#1f2937" />
  <text x="56" y="74" fill="#f3f4f6" font-size="34" font-weight="700">NEARUSDT · AB=CD</text>
  <text x="904" y="74" fill="#8ba0b5" font-size="20" text-anchor="end">Bullish (매수) · Score 90.4</text>
  <line x1="72" y1="58" x2="920" y2="58" stroke="#223045" stroke-width="1" stroke-dasharray="4 8" /><line x1="72" y1="156" x2="920" y2="156" stroke="#223045" stroke-width="1" stroke-dasharray="4 8" /><line x1="72" y1="255" x2="920" y2="255" stroke="#223045" stroke-width="1" stroke-dasharray="4 8" /><line x1="72" y1="353" x2="920" y2="353" stroke="#223045" stroke-width="1" stroke-dasharray="4 8" /><line x1="72" y1="452" x2="920" y2="452" stroke="#223045" stroke-width="1" stroke-dasharray="4 8" />
  <rect x="408.96" y="431.26" width="84" height="29.72" fill="#fbbf24" fill-opacity="0.12" stroke="#fbbf24" stroke-width="1.5" stroke-dasharray="6 6" />
  <line x1="72.00" y1="399.01" x2="72.00" y2="424.35" stroke="#f6465d" stroke-width="1.4" /><rect x="69.00" y="403.61" width="6" height="13.82" rx="1.5" fill="#f6465d" /><line x1="82.73" y1="373.66" x2="82.73" y2="424.35" stroke="#0ecb81" stroke-width="1.4" /><rect x="79.73" y="410.53" width="6" height="4.61" rx="1.5" fill="#0ecb81" /><line x1="93.47" y1="408.22" x2="93.47" y2="445.09" stroke="#f6465d" stroke-width="1.4" /><rect x="90.47" y="408.22" width="6" height="25.35" rx="1.5" fill="#f6465d" /><line x1="104.20" y1="422.05" x2="104.20" y2="452.00" stroke="#f6465d" stroke-width="1.4" /><rect x="101.20" y="433.57" width="6" height="11.52" rx="1.5" fill="#f6465d" /><line x1="114.94" y1="417.44" x2="114.94" y2="447.39" stroke="#0ecb81" stroke-width="1.4" /><rect x="111.94" y="424.35" width="6" height="18.43" rx="1.5" fill="#0ecb81" /><line x1="125.67" y1="387.49" x2="125.67" y2="426.65" stroke="#0ecb81" stroke-width="1.4" /><rect x="122.67" y="405.92" width="6" height="18.43" rx="1.5" fill="#0ecb81" /><line x1="136.41" y1="403.61" x2="136.41" y2="428.96" stroke="#f6465d" stroke-width="1.4" /><rect x="133.41" y="403.61" width="6" height="11.52" rx="1.5" fill="#f6465d" /><line x1="147.14" y1="389.79" x2="147.14" y2="422.05" stroke="#0ecb81" stroke-width="1.4" /><rect x="144.14" y="399.01" width="6" height="16.13" rx="1.5" fill="#0ecb81" /><line x1="157.87" y1="364.44" x2="157.87" y2="412.83" stroke="#f6465d" stroke-width="1.4" /><rect x="154.87" y="396.70" width="6" height="2.30" rx="1.5" fill="#f6465d" /><line x1="168.61" y1="375.96" x2="168.61" y2="408.22" stroke="#0ecb81" stroke-width="1.4" /><rect x="165.61" y="385.18" width="6" height="13.82" rx="1.5" fill="#0ecb81" /><line x1="179.34" y1="364.44" x2="179.34" y2="401.31" stroke="#0ecb81" stroke-width="1.4" /><rect x="176.34" y="369.05" width="6" height="16.13" rx="1.5" fill="#0ecb81" /><line x1="190.08" y1="327.58" x2="190.08" y2="369.05" stroke="#0ecb81" stroke-width="1.4" /><rect x="187.08" y="362.14" width="6" height="6.91" rx="1.5" fill="#0ecb81" /><line x1="200.81" y1="346.01" x2="200.81" y2="364.44" stroke="#0ecb81" stroke-width="1.4" /><rect x="197.81" y="357.53" width="6" height="2.30" rx="1.5" fill="#0ecb81" /><line x1="211.54" y1="346.01" x2="211.54" y2="369.05" stroke="#f6465d" stroke-width="1.4" /><rect x="208.54" y="357.53" width="6" height="2.30" rx="1.5" fill="#f6465d" /><line x1="222.28" y1="339.10" x2="222.28" y2="373.66" stroke="#f6465d" stroke-width="1.4" /><rect x="219.28" y="359.84" width="6" height="11.52" rx="1.5" fill="#f6465d" /><line x1="233.01" y1="350.62" x2="233.01" y2="378.27" stroke="#0ecb81" stroke-width="1.4" /><rect x="230.01" y="364.44" width="6" height="6.91" rx="1.5" fill="#0ecb81" /><line x1="243.75" y1="350.62" x2="243.75" y2="371.36" stroke="#0ecb81" stroke-width="1.4" /><rect x="240.75" y="364.44" width="6" height="2.00" rx="1.5" fill="#0ecb81" /><line x1="254.48" y1="348.32" x2="254.48" y2="378.27" stroke="#f6465d" stroke-width="1.4" /><rect x="251.48" y="364.44" width="6" height="9.22" rx="1.5" fill="#f6465d" /><line x1="265.22" y1="371.36" x2="265.22" y2="401.31" stroke="#f6465d" stroke-width="1.4" /><rect x="262.22" y="373.66" width="6" height="18.43" rx="1.5" fill="#f6465d" /><line x1="275.95" y1="357.53" x2="275.95" y2="394.40" stroke="#0ecb81" stroke-width="1.4" /><rect x="272.95" y="378.27" width="6" height="13.82" rx="1.5" fill="#0ecb81" /><line x1="286.68" y1="371.36" x2="286.68" y2="399.01" stroke="#f6465d" stroke-width="1.4" /><rect x="283.68" y="378.27" width="6" height="13.82" rx="1.5" fill="#f6465d" /><line x1="297.42" y1="378.27" x2="297.42" y2="401.31" stroke="#0ecb81" stroke-width="1.4" /><rect x="294.42" y="382.88" width="6" height="9.22" rx="1.5" fill="#0ecb81" /><line x1="308.15" y1="369.05" x2="308.15" y2="385.18" stroke="#0ecb81" stroke-width="1.4" /><rect x="305.15" y="375.96" width="6" height="6.91" rx="1.5" fill="#0ecb81" /><line x1="318.89" y1="350.62" x2="318.89" y2="380.57" stroke="#0ecb81" stroke-width="1.4" /><rect x="315.89" y="352.92" width="6" height="23.04" rx="1.5" fill="#0ecb81" /><line x1="329.62" y1="339.10" x2="329.62" y2="364.44" stroke="#f6465d" stroke-width="1.4" /><rect x="326.62" y="352.92" width="6" height="2.30" rx="1.5" fill="#f6465d" /><line x1="340.35" y1="332.19" x2="340.35" y2="362.14" stroke="#0ecb81" stroke-width="1.4" /><rect x="337.35" y="341.40" width="6" height="13.82" rx="1.5" fill="#0ecb81" /><line x1="351.09" y1="341.40" x2="351.09" y2="380.57" stroke="#f6465d" stroke-width="1.4" /><rect x="348.09" y="341.40" width="6" height="20.74" rx="1.5" fill="#f6465d" /><line x1="361.82" y1="352.92" x2="361.82" y2="380.57" stroke="#f6465d" stroke-width="1.4" /><rect x="358.82" y="359.84" width="6" height="13.82" rx="1.5" fill="#f6465d" /><line x1="372.56" y1="366.75" x2="372.56" y2="392.09" stroke="#f6465d" stroke-width="1.4" /><rect x="369.56" y="375.96" width="6" height="9.22" rx="1.5" fill="#f6465d" /><line x1="383.29" y1="375.96" x2="383.29" y2="410.53" stroke="#0ecb81" stroke-width="1.4" /><rect x="380.29" y="382.88" width="6" height="4.61" rx="1.5" fill="#0ecb81" /><line x1="394.03" y1="375.96" x2="394.03" y2="396.70" stroke="#0ecb81" stroke-width="1.4" /><rect x="391.03" y="380.57" width="6" height="2.30" rx="1.5" fill="#0ecb81" /><line x1="404.76" y1="352.92" x2="404.76" y2="394.40" stroke="#0ecb81" stroke-width="1.4" /><rect x="401.76" y="369.05" width="6" height="13.82" rx="1.5" fill="#0ecb81" /><line x1="415.49" y1="362.14" x2="415.49" y2="408.22" stroke="#f6465d" stroke-width="1.4" /><rect x="412.49" y="369.05" width="6" height="25.35" rx="1.5" fill="#f6465d" /><line x1="426.23" y1="385.18" x2="426.23" y2="428.96" stroke="#f6465d" stroke-width="1.4" /><rect x="423.23" y="392.09" width="6" height="23.04" rx="1.5" fill="#f6465d" /><line x1="436.96" y1="389.79" x2="436.96" y2="445.09" stroke="#0ecb81" stroke-width="1.4" /><rect x="433.96" y="410.53" width="6" height="4.61" rx="1.5" fill="#0ecb81" /><line x1="447.70" y1="399.01" x2="447.70" y2="438.18" stroke="#0ecb81" stroke-width="1.4" /><rect x="444.70" y="401.31" width="6" height="11.52" rx="1.5" fill="#0ecb81" /><line x1="458.43" y1="392.09" x2="458.43" y2="410.53" stroke="#0ecb81" stroke-width="1.4" /><rect x="455.43" y="396.70" width="6" height="2.30" rx="1.5" fill="#0ecb81" /><line x1="469.16" y1="385.18" x2="469.16" y2="403.61" stroke="#f6465d" stroke-width="1.4" /><rect x="466.16" y="394.40" width="6" height="2.30" rx="1.5" fill="#f6465d" /><line x1="479.90" y1="389.79" x2="479.90" y2="428.96" stroke="#f6465d" stroke-width="1.4" /><rect x="476.90" y="394.40" width="6" height="29.95" rx="1.5" fill="#f6465d" /><line x1="490.63" y1="366.75" x2="490.63" y2="433.57" stroke="#0ecb81" stroke-width="1.4" /><rect x="487.63" y="396.70" width="6" height="25.35" rx="1.5" fill="#0ecb81" /><line x1="501.37" y1="387.49" x2="501.37" y2="419.74" stroke="#0ecb81" stroke-width="1.4" /><rect x="498.37" y="394.40" width="6" height="4.61" rx="1.5" fill="#0ecb81" /><line x1="512.10" y1="341.40" x2="512.10" y2="410.53" stroke="#f6465d" stroke-width="1.4" /><rect x="509.10" y="396.70" width="6" height="2.30" rx="1.5" fill="#f6465d" /><line x1="522.84" y1="348.32" x2="522.84" y2="431.26" stroke="#f6465d" stroke-width="1.4" /><rect x="519.84" y="399.01" width="6" height="20.74" rx="1.5" fill="#f6465d" /><line x1="533.57" y1="366.75" x2="533.57" y2="419.74" stroke="#0ecb81" stroke-width="1.4" /><rect x="530.57" y="371.36" width="6" height="46.08" rx="1.5" fill="#0ecb81" /><line x1="544.30" y1="364.44" x2="544.30" y2="399.01" stroke="#f6465d" stroke-width="1.4" /><rect x="541.30" y="369.05" width="6" height="9.22" rx="1.5" fill="#f6465d" /><line x1="555.04" y1="373.66" x2="555.04" y2="408.22" stroke="#f6465d" stroke-width="1.4" /><rect x="552.04" y="378.27" width="6" height="20.74" rx="1.5" fill="#f6465d" /><line x1="565.77" y1="396.70" x2="565.77" y2="431.26" stroke="#f6465d" stroke-width="1.4" /><rect x="562.77" y="401.31" width="6" height="23.04" rx="1.5" fill="#f6465d" /><line x1="576.51" y1="405.92" x2="576.51" y2="440.48" stroke="#0ecb81" stroke-width="1.4" /><rect x="573.51" y="422.05" width="6" height="2.00" rx="1.5" fill="#0ecb81" /><line x1="587.24" y1="369.05" x2="587.24" y2="424.35" stroke="#0ecb81" stroke-width="1.4" /><rect x="584.24" y="375.96" width="6" height="43.78" rx="1.5" fill="#0ecb81" /><line x1="597.97" y1="352.92" x2="597.97" y2="396.70" stroke="#f6465d" stroke-width="1.4" /><rect x="594.97" y="375.96" width="6" height="6.91" rx="1.5" fill="#f6465d" /><line x1="608.71" y1="350.62" x2="608.71" y2="392.09" stroke="#0ecb81" stroke-width="1.4" /><rect x="605.71" y="352.92" width="6" height="29.95" rx="1.5" fill="#0ecb81" /><line x1="619.44" y1="316.06" x2="619.44" y2="359.84" stroke="#0ecb81" stroke-width="1.4" /><rect x="616.44" y="329.88" width="6" height="23.04" rx="1.5" fill="#0ecb81" /><line x1="630.18" y1="283.80" x2="630.18" y2="362.14" stroke="#0ecb81" stroke-width="1.4" /><rect x="627.18" y="299.93" width="6" height="29.95" rx="1.5" fill="#0ecb81" /><line x1="640.91" y1="214.68" x2="640.91" y2="329.88" stroke="#0ecb81" stroke-width="1.4" /><rect x="637.91" y="267.67" width="6" height="29.95" rx="1.5" fill="#0ecb81" /><line x1="651.65" y1="237.72" x2="651.65" y2="311.45" stroke="#f6465d" stroke-width="1.4" /><rect x="648.65" y="265.37" width="6" height="25.35" rx="1.5" fill="#f6465d" /><line x1="662.38" y1="244.63" x2="662.38" y2="316.06" stroke="#0ecb81" stroke-width="1.4" /><rect x="659.38" y="274.58" width="6" height="13.82" rx="1.5" fill="#0ecb81" /><line x1="673.11" y1="233.11" x2="673.11" y2="297.63" stroke="#0ecb81" stroke-width="1.4" /><rect x="670.11" y="246.94" width="6" height="27.65" rx="1.5" fill="#0ecb81" /><line x1="683.85" y1="228.50" x2="683.85" y2="269.98" stroke="#0ecb81" stroke-width="1.4" /><rect x="680.85" y="240.02" width="6" height="6.91" rx="1.5" fill="#0ecb81" /><line x1="694.58" y1="240.02" x2="694.58" y2="279.19" stroke="#f6465d" stroke-width="1.4" /><rect x="691.58" y="240.02" width="6" height="20.74" rx="1.5" fill="#f6465d" /><line x1="705.32" y1="235.42" x2="705.32" y2="281.50" stroke="#f6465d" stroke-width="1.4" /><rect x="702.32" y="260.76" width="6" height="13.82" rx="1.5" fill="#f6465d" /><line x1="716.05" y1="267.67" x2="716.05" y2="304.54" stroke="#0ecb81" stroke-width="1.4" /><rect x="713.05" y="276.89" width="6" height="2.00" rx="1.5" fill="#0ecb81" /><line x1="726.78" y1="246.94" x2="726.78" y2="279.19" stroke="#0ecb81" stroke-width="1.4" /><rect x="723.78" y="265.37" width="6" height="11.52" rx="1.5" fill="#0ecb81" /><line x1="737.52" y1="246.94" x2="737.52" y2="283.80" stroke="#f6465d" stroke-width="1.4" /><rect x="734.52" y="265.37" width="6" height="16.13" rx="1.5" fill="#f6465d" /><line x1="748.25" y1="269.98" x2="748.25" y2="306.84" stroke="#f6465d" stroke-width="1.4" /><rect x="745.25" y="281.50" width="6" height="13.82" rx="1.5" fill="#f6465d" /><line x1="758.99" y1="242.33" x2="758.99" y2="297.63" stroke="#0ecb81" stroke-width="1.4" /><rect x="755.99" y="251.54" width="6" height="43.78" rx="1.5" fill="#0ecb81" /><line x1="769.72" y1="189.33" x2="769.72" y2="272.28" stroke="#0ecb81" stroke-width="1.4" /><rect x="766.72" y="212.37" width="6" height="39.17" rx="1.5" fill="#0ecb81" /><line x1="780.46" y1="200.85" x2="780.46" y2="240.02" stroke="#f6465d" stroke-width="1.4" /><rect x="777.46" y="210.07" width="6" height="13.82" rx="1.5" fill="#f6465d" /><line x1="791.19" y1="170.90" x2="791.19" y2="246.94" stroke="#0ecb81" stroke-width="1.4" /><rect x="788.19" y="196.25" width="6" height="25.35" rx="1.5" fill="#0ecb81" /><line x1="801.92" y1="140.95" x2="801.92" y2="198.55" stroke="#0ecb81" stroke-width="1.4" /><rect x="798.92" y="150.16" width="6" height="43.78" rx="1.5" fill="#0ecb81" /><line x1="812.66" y1="110.99" x2="812.66" y2="150.16" stroke="#0ecb81" stroke-width="1.4" /><rect x="809.66" y="120.21" width="6" height="29.95" rx="1.5" fill="#0ecb81" /><line x1="823.39" y1="94.87" x2="823.39" y2="145.56" stroke="#0ecb81" stroke-width="1.4" /><rect x="820.39" y="110.99" width="6" height="11.52" rx="1.5" fill="#0ecb81" /><line x1="834.13" y1="58.00" x2="834.13" y2="127.12" stroke="#f6465d" stroke-width="1.4" /><rect x="831.13" y="108.69" width="6" height="13.82" rx="1.5" fill="#f6465d" /><line x1="844.86" y1="115.60" x2="844.86" y2="170.90" stroke="#f6465d" stroke-width="1.4" /><rect x="841.86" y="124.82" width="6" height="41.47" rx="1.5" fill="#f6465d" /><line x1="855.59" y1="154.77" x2="855.59" y2="210.07" stroke="#f6465d" stroke-width="1.4" /><rect x="852.59" y="163.99" width="6" height="32.26" rx="1.5" fill="#f6465d" /><line x1="866.33" y1="154.77" x2="866.33" y2="214.68" stroke="#0ecb81" stroke-width="1.4" /><rect x="863.33" y="196.25" width="6" height="2.30" rx="1.5" fill="#0ecb81" /><line x1="877.06" y1="180.12" x2="877.06" y2="233.11" stroke="#f6465d" stroke-width="1.4" /><rect x="874.06" y="193.94" width="6" height="25.35" rx="1.5" fill="#f6465d" /><line x1="887.80" y1="198.55" x2="887.80" y2="230.81" stroke="#0ecb81" stroke-width="1.4" /><rect x="884.80" y="210.07" width="6" height="11.52" rx="1.5" fill="#0ecb81" /><line x1="898.53" y1="200.85" x2="898.53" y2="265.37" stroke="#f6465d" stroke-width="1.4" /><rect x="895.53" y="210.07" width="6" height="27.65" rx="1.5" fill="#f6465d" /><line x1="909.27" y1="219.29" x2="909.27" y2="258.46" stroke="#0ecb81" stroke-width="1.4" /><rect x="906.27" y="233.11" width="6" height="6.91" rx="1.5" fill="#0ecb81" /><line x1="920.00" y1="230.81" x2="920.00" y2="283.80" stroke="#f6465d" stroke-width="1.4" /><rect x="917.00" y="233.11" width="6" height="43.78" rx="1.5" fill="#f6465d" />
  <polyline points="297.42,401.31 340.35,332.19 383.29,410.53 404.76,352.92 436.96,445.09" fill="none" stroke="#2fc273" stroke-width="4" stroke-linecap="round" stroke-linejoin="round" />
  <circle cx="297.42" cy="401.31" r="5.5" fill="#2fc273" fill-opacity="0.15" stroke="#2fc273" stroke-width="2" /><text x="297.42" y="389.31" fill="#f3f4f6" font-size="15" font-weight="700" text-anchor="middle">X</text><circle cx="340.35" cy="332.19" r="5.5" fill="#2fc273" fill-opacity="0.15" stroke="#2fc273" stroke-width="2" /><text x="340.35" y="320.19" fill="#f3f4f6" font-size="15" font-weight="700" text-anchor="middle">A</text><circle cx="383.29" cy="410.53" r="5.5" fill="#2fc273" fill-opacity="0.15" stroke="#2fc273" stroke-width="2" /><text x="383.29" y="398.53" fill="#f3f4f6" font-size="15" font-weight="700" text-anchor="middle">B</text><circle cx="404.76" cy="352.92" r="5.5" fill="#2fc273" fill-opacity="0.15" stroke="#2fc273" stroke-width="2" /><text x="404.76" y="340.92" fill="#f3f4f6" font-size="15" font-weight="700" text-anchor="middle">C</text><circle cx="436.96" cy="445.09" r="5.5" fill="#2fc273" fill-opacity="0.15" stroke="#2fc273" stroke-width="2" /><text x="436.96" y="433.09" fill="#f3f4f6" font-size="15" font-weight="700" text-anchor="middle">D</text>
  <text x="56" y="492" fill="#8ba0b5" font-size="18">Complete · TP1 1.9103 · TP2 1.9197 · SL 1.8911</text>
</svg>
