<svg xmlns="http://www.w3.org/2000/svg" width="960" height="540" viewBox="0 0 960 540">
  <rect width="960" height="540" rx="24" fill="#0b1220" />
  <rect x="28" y="28" width="904" height="484" rx="22" fill="#111827" stroke="#1f2937" />
  <text x="56" y="74" fill="#f3f4f6" font-size="34" font-weight="700">NIGHTUSDT · AB=CD</text>
  <text x="904" y="74" fill="#8ba0b5" font-size="20" text-anchor="end">Bullish (매수) · Score 72.5</text>
  <line x1="72" y1="58" x2="920" y2="58" stroke="#223045" stroke-width="1" stroke-dasharray="4 8" /><line x1="72" y1="156" x2="920" y2="156" stroke="#223045" stroke-width="1" stroke-dasharray="4 8" /><line x1="72" y1="255" x2="920" y2="255" stroke="#223045" stroke-width="1" stroke-dasharray="4 8" /><line x1="72" y1="353" x2="920" y2="353" stroke="#223045" stroke-width="1" stroke-dasharray="4 8" /><line x1="72" y1="452" x2="920" y2="452" stroke="#223045" stroke-width="1" stroke-dasharray="4 8" />
  <rect x="226.48" y="199.02" width="84" height="55.79" fill="#fbbf24" fill-opacity="0.12" stroke="#fbbf24" stroke-width="1.5" stroke-dasharray="6 6" />
  <line x1="72.00" y1="58.00" x2="72.00" y2="138.29" stroke="#f6465d" stroke-width="1.4" /><rect x="69.00" y="68.83" width="6" height="22.41" rx="1.5" fill="#f6465d" /><line x1="82.73" y1="76.67" x2="82.73" y2="98.33" stroke="#f6465d" stroke-width="1.4" /><rect x="79.73" y="91.61" width="6" height="2.61" rx="1.5" fill="#f6465d" /><line x1="93.47" y1="88.62" x2="93.47" y2="108.79" stroke="#f6465d" stroke-width="1.4" /><rect x="90.47" y="94.23" width="6" height="6.72" rx="1.5" fill="#f6465d" /><line x1="104.20" y1="96.09" x2="104.20" y2="124.85" stroke="#f6465d" stroke-width="1.4" /><rect x="101.20" y="100.95" width="6" height="22.03" rx="1.5" fill="#f6465d" /><line x1="114.94" y1="93.11" x2="114.94" y2="122.98" stroke="#0ecb81" stroke-width="1.4" /><rect x="111.94" y="99.45" width="6" height="23.53" rx="1.5" fill="#0ecb81" /><line x1="125.67" y1="79.29" x2="125.67" y2="105.06" stroke="#0ecb81" stroke-width="1.4" /><rect x="122.67" y="90.86" width="6" height="8.22" rx="1.5" fill="#0ecb81" /><line x1="136.41" y1="74.43" x2="136.41" y2="101.32" stroke="#0ecb81" stroke-width="1.4" /><rect x="133.41" y="78.91" width="6" height="11.58" rx="1.5" fill="#0ecb81" /><line x1="147.14" y1="68.83" x2="147.14" y2="96.09" stroke="#f6465d" stroke-width="1.4" /><rect x="144.14" y="78.91" width="6" height="5.60" rx="1.5" fill="#f6465d" /><line x1="157.87" y1="82.27" x2="157.87" y2="97.96" stroke="#f6465d" stroke-width="1.4" /><rect x="154.87" y="84.52" width="6" height="10.08" rx="1.5" fill="#f6465d" /><line x1="168.61" y1="84.52" x2="168.61" y2="103.56" stroke="#0ecb81" stroke-width="1.4" /><rect x="165.61" y="90.49" width="6" height="4.11" rx="1.5" fill="#0ecb81" /><line x1="179.34" y1="87.88" x2="179.34" y2="109.54" stroke="#f6465d" stroke-width="1.4" /><rect x="176.34" y="90.49" width="6" height="18.30" rx="1.5" fill="#f6465d" /><line x1="190.08" y1="107.67" x2="190.08" y2="150.24" stroke="#f6465d" stroke-width="1.4" /><rect x="187.08" y="108.79" width="6" height="26.14" rx="1.5" fill="#f6465d" /><line x1="200.81" y1="131.95" x2="200.81" y2="153.61" stroke="#f6465d" stroke-width="1.4" /><rect x="197.81" y="134.93" width="6" height="4.11" rx="1.5" fill="#f6465d" /><line x1="211.54" y1="124.10" x2="211.54" y2="148.75" stroke="#f6465d" stroke-width="1.4" /><rect x="208.54" y="139.04" width="6" height="2.00" rx="1.5" fill="#f6465d" /><line x1="222.28" y1="138.67" x2="222.28" y2="166.30" stroke="#f6465d" stroke-width="1.4" /><rect x="219.28" y="140.16" width="6" height="22.78" rx="1.5" fill="#f6465d" /><line x1="233.01" y1="152.86" x2="233.01" y2="174.15" stroke="#0ecb81" stroke-width="1.4" /><rect x="230.01" y="159.58" width="6" height="3.73" rx="1.5" fill="#0ecb81" /><line x1="243.75" y1="156.97" x2="243.75" y2="174.89" stroke="#f6465d" stroke-width="1.4" /><rect x="240.75" y="159.58" width="6" height="7.10" rx="1.5" fill="#f6465d" /><line x1="254.48" y1="164.44" x2="254.48" y2="187.59" stroke="#f6465d" stroke-width="1.4" /><rect x="251.48" y="166.30" width="6" height="13.07" rx="1.5" fill="#f6465d" /><line x1="265.22" y1="160.33" x2="265.22" y2="183.48" stroke="#0ecb81" stroke-width="1.4" /><rect x="262.22" y="165.56" width="6" height="13.82" rx="1.5" fill="#0ecb81" /><line x1="275.95" y1="154.73" x2="275.95" y2="180.49" stroke="#f6465d" stroke-width="1.4" /><rect x="272.95" y="165.56" width="6" height="2.00" rx="1.5" fill="#f6465d" /><line x1="286.68" y1="150.62" x2="286.68" y2="172.65" stroke="#0ecb81" stroke-width="1.4" /><rect x="283.68" y="161.45" width="6" height="4.85" rx="1.5" fill="#0ecb81" /><line x1="297.42" y1="151.74" x2="297.42" y2="170.41" stroke="#f6465d" stroke-width="1.4" /><rect x="294.42" y="161.07" width="6" height="8.96" rx="1.5" fill="#f6465d" /><line x1="308.15" y1="164.06" x2="308.15" y2="174.89" stroke="#0ecb81" stroke-width="1.4" /><rect x="305.15" y="169.66" width="6" height="2.00" rx="1.5" fill="#0ecb81" /><line x1="318.89" y1="161.82" x2="318.89" y2="173.03" stroke="#0ecb81" stroke-width="1.4" /><rect x="315.89" y="166.68" width="6" height="2.61" rx="1.5" fill="#0ecb81" /><line x1="329.62" y1="163.32" x2="329.62" y2="173.40" stroke="#f6465d" stroke-width="1.4" /><rect x="326.62" y="166.68" width="6" height="2.00" rx="1.5" fill="#f6465d" /><line x1="340.35" y1="166.30" x2="340.35" y2="178.25" stroke="#f6465d" stroke-width="1.4" /><rect x="337.35" y="168.17" width="6" height="8.59" rx="1.5" fill="#f6465d" /><line x1="351.09" y1="171.53" x2="351.09" y2="180.49" stroke="#0ecb81" stroke-width="1.4" /><rect x="348.09" y="171.53" width="6" height="4.85" rx="1.5" fill="#0ecb81" /><line x1="361.82" y1="170.04" x2="361.82" y2="189.83" stroke="#f6465d" stroke-width="1.4" /><rect x="358.82" y="171.53" width="6" height="14.56" rx="1.5" fill="#f6465d" /><line x1="372.56" y1="173.77" x2="372.56" y2="193.94" stroke="#0ecb81" stroke-width="1.4" /><rect x="369.56" y="178.25" width="6" height="7.84" rx="1.5" fill="#0ecb81" /><line x1="383.29" y1="174.15" x2="383.29" y2="203.65" stroke="#f6465d" stroke-width="1.4" /><rect x="380.29" y="178.25" width="6" height="23.90" rx="1.5" fill="#f6465d" /><line x1="394.03" y1="197.67" x2="394.03" y2="207.01" stroke="#f6465d" stroke-width="1.4" /><rect x="391.03" y="201.78" width="6" height="2.99" rx="1.5" fill="#f6465d" /><line x1="404.76" y1="189.08" x2="404.76" y2="207.38" stroke="#0ecb81" stroke-width="1.4" /><rect x="401.76" y="189.46" width="6" height="14.94" rx="1.5" fill="#0ecb81" /><line x1="415.49" y1="181.62" x2="415.49" y2="199.17" stroke="#0ecb81" stroke-width="1.4" /><rect x="412.49" y="189.46" width="6" height="2.00" rx="1.5" fill="#0ecb81" /><line x1="426.23" y1="189.08" x2="426.23" y2="206.26" stroke="#f6465d" stroke-width="1.4" /><rect x="423.23" y="189.46" width="6" height="10.83" rx="1.5" fill="#f6465d" /><line x1="436.96" y1="136.43" x2="436.96" y2="452.00" stroke="#f6465d" stroke-width="1.4" /><rect x="433.96" y="200.66" width="6" height="37.35" rx="1.5" fill="#f6465d" /><line x1="447.70" y1="233.53" x2="447.70" y2="284.32" stroke="#f6465d" stroke-width="1.4" /><rect x="444.70" y="238.38" width="6" height="28.38" rx="1.5" fill="#f6465d" /><line x1="458.43" y1="238.38" x2="458.43" y2="271.62" stroke="#0ecb81" stroke-width="1.4" /><rect x="455.43" y="254.81" width="6" height="11.58" rx="1.5" fill="#0ecb81" /><line x1="469.16" y1="238.38" x2="469.16" y2="266.02" stroke="#0ecb81" stroke-width="1.4" /><rect x="466.16" y="252.57" width="6" height="2.61" rx="1.5" fill="#0ecb81" /><line x1="479.90" y1="191.70" x2="479.90" y2="257.05" stroke="#0ecb81" stroke-width="1.4" /><rect x="476.90" y="223.07" width="6" height="29.88" rx="1.5" fill="#0ecb81" /><line x1="490.63" y1="210.00" x2="490.63" y2="238.75" stroke="#0ecb81" stroke-width="1.4" /><rect x="487.63" y="221.58" width="6" height="2.00" rx="1.5" fill="#0ecb81" /><line x1="501.37" y1="221.95" x2="501.37" y2="251.45" stroke="#f6465d" stroke-width="1.4" /><rect x="498.37" y="221.95" width="6" height="22.41" rx="1.5" fill="#f6465d" /><line x1="512.10" y1="231.66" x2="512.10" y2="245.48" stroke="#0ecb81" stroke-width="1.4" /><rect x="509.10" y="232.78" width="6" height="11.20" rx="1.5" fill="#0ecb81" /><line x1="522.84" y1="225.31" x2="522.84" y2="246.22" stroke="#0ecb81" stroke-width="1.4" /><rect x="519.84" y="230.16" width="6" height="2.61" rx="1.5" fill="#0ecb81" /><line x1="533.57" y1="221.95" x2="533.57" y2="238.75" stroke="#0ecb81" stroke-width="1.4" /><rect x="530.57" y="223.07" width="6" height="7.10" rx="1.5" fill="#0ecb81" /><line x1="544.30" y1="178.25" x2="544.30" y2="225.68" stroke="#0ecb81" stroke-width="1.4" /><rect x="541.30" y="190.58" width="6" height="32.86" rx="1.5" fill="#0ecb81" /><line x1="555.04" y1="153.98" x2="555.04" y2="193.19" stroke="#0ecb81" stroke-width="1.4" /><rect x="552.04" y="181.24" width="6" height="9.71" rx="1.5" fill="#0ecb81" /><line x1="565.77" y1="168.54" x2="565.77" y2="201.04" stroke="#f6465d" stroke-width="1.4" /><rect x="562.77" y="180.87" width="6" height="10.08" rx="1.5" fill="#f6465d" /><line x1="576.51" y1="185.72" x2="576.51" y2="203.28" stroke="#f6465d" stroke-width="1.4" /><rect x="573.51" y="191.33" width="6" height="8.22" rx="1.5" fill="#f6465d" /><line x1="587.24" y1="198.05" x2="587.24" y2="222.70" stroke="#f6465d" stroke-width="1.4" /><rect x="584.24" y="199.54" width="6" height="20.17" rx="1.5" fill="#f6465d" /><line x1="597.97" y1="215.60" x2="597.97" y2="238.75" stroke="#f6465d" stroke-width="1.4" /><rect x="594.97" y="219.33" width="6" height="15.69" rx="1.5" fill="#f6465d" /><line x1="608.71" y1="223.82" x2="608.71" y2="235.77" stroke="#0ecb81" stroke-width="1.4" /><rect x="605.71" y="234.65" width="6" height="2.00" rx="1.5" fill="#0ecb81" /><line x1="619.44" y1="214.48" x2="619.44" y2="237.63" stroke="#0ecb81" stroke-width="1.4" /><rect x="616.44" y="227.55" width="6" height="7.10" rx="1.5" fill="#0ecb81" /><line x1="630.18" y1="221.58" x2="630.18" y2="236.89" stroke="#f6465d" stroke-width="1.4" /><rect x="627.18" y="227.18" width="6" height="6.35" rx="1.5" fill="#f6465d" /><line x1="640.91" y1="223.82" x2="640.91" y2="246.97" stroke="#f6465d" stroke-width="1.4" /><rect x="637.91" y="233.15" width="6" height="11.95" rx="1.5" fill="#f6465d" /><line x1="651.65" y1="235.02" x2="651.65" y2="247.34" stroke="#0ecb81" stroke-width="1.4" /><rect x="648.65" y="237.26" width="6" height="7.84" rx="1.5" fill="#0ecb81" /><line x1="662.38" y1="232.03" x2="662.38" y2="243.98" stroke="#f6465d" stroke-width="1.4" /><rect x="659.38" y="237.26" width="6" height="2.00" rx="1.5" fill="#f6465d" /><line x1="673.11" y1="229.42" x2="673.11" y2="240.62" stroke="#0ecb81" stroke-width="1.4" /><rect x="670.11" y="236.89" width="6" height="2.00" rx="1.5" fill="#0ecb81" /><line x1="683.85" y1="230.54" x2="683.85" y2="242.86" stroke="#0ecb81" stroke-width="1.4" /><rect x="680.85" y="233.53" width="6" height="2.99" rx="1.5" fill="#0ecb81" /><line x1="694.58" y1="226.80" x2="694.58" y2="243.24" stroke="#f6465d" stroke-width="1.4" /><rect x="691.58" y="233.90" width="6" height="2.99" rx="1.5" fill="#f6465d" /><line x1="705.32" y1="229.42" x2="705.32" y2="246.60" stroke="#0ecb81" stroke-width="1.4" /><rect x="702.32" y="229.79" width="6" height="7.47" rx="1.5" fill="#0ecb81" /><line x1="716.05" y1="229.79" x2="716.05" y2="264.90" stroke="#f6465d" stroke-width="1.4" /><rect x="713.05" y="229.79" width="6" height="33.98" rx="1.5" fill="#f6465d" /><line x1="726.78" y1="236.89" x2="726.78" y2="383.28" stroke="#f6465d" stroke-width="1.4" /><rect x="723.78" y="263.78" width="6" height="2.00" rx="1.5" fill="#f6465d" /><line x1="737.52" y1="243.61" x2="737.52" y2="265.64" stroke="#0ecb81" stroke-width="1.4" /><rect x="734.52" y="245.85" width="6" height="19.42" rx="1.5" fill="#0ecb81" /><line x1="748.25" y1="232.03" x2="748.25" y2="256.68" stroke="#0ecb81" stroke-width="1.4" /><rect x="745.25" y="236.89" width="6" height="9.34" rx="1.5" fill="#0ecb81" /><line x1="758.99" y1="231.29" x2="758.99" y2="330.63" stroke="#f6465d" stroke-width="1.4" /><rect x="755.99" y="236.89" width="6" height="73.57" rx="1.5" fill="#f6465d" /><line x1="769.72" y1="301.12" x2="769.72" y2="317.55" stroke="#0ecb81" stroke-width="1.4" /><rect x="766.72" y="301.50" width="6" height="8.96" rx="1.5" fill="#0ecb81" /><line x1="780.46" y1="296.27" x2="780.46" y2="307.10" stroke="#0ecb81" stroke-width="1.4" /><rect x="777.46" y="299.63" width="6" height="2.00" rx="1.5" fill="#0ecb81" /><line x1="791.19" y1="271.25" x2="791.19" y2="307.84" stroke="#0ecb81" stroke-width="1.4" /><rect x="788.19" y="274.61" width="6" height="25.40" rx="1.5" fill="#0ecb81" /><line x1="801.92" y1="254.44" x2="801.92" y2="285.44" stroke="#0ecb81" stroke-width="1.4" /><rect x="798.92" y="265.64" width="6" height="8.59" rx="1.5" fill="#0ecb81" /><line x1="812.66" y1="254.07" x2="812.66" y2="270.13" stroke="#f6465d" stroke-width="1.4" /><rect x="809.66" y="265.27" width="6" height="2.99" rx="1.5" fill="#f6465d" /><line x1="823.39" y1="265.27" x2="823.39" y2="277.22" stroke="#f6465d" stroke-width="1.4" /><rect x="820.39" y="267.88" width="6" height="2.99" rx="1.5" fill="#f6465d" /><line x1="834.13" y1="212.99" x2="834.13" y2="275.73" stroke="#0ecb81" stroke-width="1.4" /><rect x="831.13" y="235.39" width="6" height="35.11" rx="1.5" fill="#0ecb81" /><line x1="844.86" y1="235.02" x2="844.86" y2="255.19" stroke="#f6465d" stroke-width="1.4" /><rect x="841.86" y="235.02" width="6" height="16.43" rx="1.5" fill="#f6465d" /><line x1="855.59" y1="248.84" x2="855.59" y2="259.67" stroke="#f6465d" stroke-width="1.4" /><rect x="852.59" y="251.08" width="6" height="5.23" rx="1.5" fill="#f6465d" /><line x1="866.33" y1="249.58" x2="866.33" y2="260.79" stroke="#0ecb81" stroke-width="1.4" /><rect x="863.33" y="250.71" width="6" height="5.60" rx="1.5" fill="#0ecb81" /><line x1="877.06" y1="241.37" x2="877.06" y2="254.07" stroke="#0ecb81" stroke-width="1.4" /><rect x="874.06" y="245.48" width="6" height="5.23" rx="1.5" fill="#0ecb81" /><line x1="887.80" y1="226.80" x2="887.80" y2="247.72" stroke="#f6465d" stroke-width="1.4" /><rect x="884.80" y="245.10" width="6" height="2.00" rx="1.5" fill="#f6465d" /><line x1="898.53" y1="224.56" x2="898.53" y2="249.96" stroke="#0ecb81" stroke-width="1.4" /><rect x="895.53" y="242.86" width="6" height="3.36" rx="1.5" fill="#0ecb81" /><line x1="909.27" y1="229.79" x2="909.27" y2="246.60" stroke="#0ecb81" stroke-width="1.4" /><rect x="906.27" y="232.03" width="6" height="10.83" rx="1.5" fill="#0ecb81" /><line x1="920.00" y1="211.49" x2="920.00" y2="232.03" stroke="#0ecb81" stroke-width="1.4" /><rect x="917.00" y="223.44" width="6" height="8.59" rx="1.5" fill="#0ecb81" />
  <polyline points="72.00,27.75 72.00,-47.69 72.00,138.29 147.14,68.83 254.48,187.59" fill="none" stroke="#2fc273" stroke-width="4" stroke-linecap="round" stroke-linejoin="round" />
  <circle cx="72.00" cy="27.75" r="5.5" fill="#2fc273" fill-opacity="0.15" stroke="#2fc273" stroke-width="2" /><text x="72.00" y="15.75" fill="#f3f4f6" font-size="15" font-weight="700" text-anchor="middle">X</text><circle cx="72.00" cy="-47.69" r="5.5" fill="#2fc273" fill-opacity="0.15" stroke="#2fc273" stroke-width="2" /><text x="72.00" y="-59.69" fill="#f3f4f6" font-size="15" font-weight="700" text-anchor="middle">A</text><circle cx="72.00" cy="138.29" r="5.5" fill="#2fc273" fill-opacity="0.15" stroke="#2fc273" stroke-width="2" /><text x="72.00" y="126.29" fill="#f3f4f6" font-size="15" font-weight="700" text-anchor="middle">B</text><circle cx="147.14" cy="68.83" r="5.5" fill="#2fc273" fill-opacity="0.15" stroke="#2fc273" stroke-width="2" /><text x="147.14" y="56.83" fill="#f3f4f6" font-size="15" font-weight="700" text-anchor="middle">C</text><circle cx="254.48" cy="187.59" r="5.5" fill="#2fc273" fill-opacity="0.15" stroke="#2fc273" stroke-width="2" /><text x="254.48" y="175.59" fill="#f3f4f6" font-size="15" font-weight="700" text-anchor="middle">D</text>
  <text x="56" y="492" fill="#8ba0b5" font-size="18">실시간 터치 · TP1 0.044745 · TP2 0.045495 · SL 0.043267</text>
</svg>
