<svg xmlns="http://www.w3.org/2000/svg" width="960" height="540" viewBox="0 0 960 540">
  <rect width="960" height="540" rx="24" fill="#0b1220" />
  <rect x="28" y="28" width="904" height="484" rx="22" fill="#111827" stroke="#1f2937" />
  <text x="56" y="74" fill="#f3f4f6" font-size="34" font-weight="700">NOMUSDT · AB=CD</text>
  <text x="904" y="74" fill="#8ba0b5" font-size="20" text-anchor="end">Bullish (매수) · Score 72.1</text>
  <line x1="72" y1="58" x2="920" y2="58" stroke="#223045" stroke-width="1" stroke-dasharray="4 8" /><line x1="72" y1="156" x2="920" y2="156" stroke="#223045" stroke-width="1" stroke-dasharray="4 8" /><line x1="72" y1="255" x2="920" y2="255" stroke="#223045" stroke-width="1" stroke-dasharray="4 8" /><line x1="72" y1="353" x2="920" y2="353" stroke="#223045" stroke-width="1" stroke-dasharray="4 8" /><line x1="72" y1="452" x2="920" y2="452" stroke="#223045" stroke-width="1" stroke-dasharray="4 8" />
  <rect x="419.70" y="178.46" width="84" height="239.04" fill="#fbbf24" fill-opacity="0.12" stroke="#fbbf24" stroke-width="1.5" stroke-dasharray="6 6" />
  <line x1="72.00" y1="139.76" x2="72.00" y2="228.18" stroke="#f6465d" stroke-width="1.4" /><rect x="69.00" y="156.86" width="6" height="41.31" rx="1.5" fill="#f6465d" /><line x1="82.73" y1="159.47" x2="82.73" y2="218.91" stroke="#f6465d" stroke-width="1.4" /><rect x="79.73" y="197.89" width="6" height="10.58" rx="1.5" fill="#f6465d" /><line x1="93.47" y1="184.84" x2="93.47" y2="266.60" stroke="#f6465d" stroke-width="1.4" /><rect x="90.47" y="208.32" width="6" height="51.61" rx="1.5" fill="#f6465d" /><line x1="104.20" y1="239.49" x2="104.20" y2="306.17" stroke="#f6465d" stroke-width="1.4" /><rect x="101.20" y="260.07" width="6" height="11.74" rx="1.5" fill="#f6465d" /><line x1="114.94" y1="270.37" x2="114.94" y2="322.41" stroke="#f6465d" stroke-width="1.4" /><rect x="111.94" y="271.82" width="6" height="39.72" rx="1.5" fill="#f6465d" /><line x1="125.67" y1="227.02" x2="125.67" y2="328.93" stroke="#0ecb81" stroke-width="1.4" /><rect x="122.67" y="246.59" width="6" height="64.80" rx="1.5" fill="#0ecb81" /><line x1="136.41" y1="146.86" x2="136.41" y2="271.82" stroke="#0ecb81" stroke-width="1.4" /><rect x="133.41" y="155.27" width="6" height="91.18" rx="1.5" fill="#0ecb81" /><line x1="147.14" y1="152.37" x2="147.14" y2="230.50" stroke="#f6465d" stroke-width="1.4" /><rect x="144.14" y="155.12" width="6" height="55.23" rx="1.5" fill="#f6465d" /><line x1="157.87" y1="151.64" x2="157.87" y2="252.54" stroke="#0ecb81" stroke-width="1.4" /><rect x="154.87" y="168.02" width="6" height="42.47" rx="1.5" fill="#0ecb81" /><line x1="168.61" y1="83.80" x2="168.61" y2="176.00" stroke="#0ecb81" stroke-width="1.4" /><rect x="165.61" y="158.75" width="6" height="8.99" rx="1.5" fill="#0ecb81" /><line x1="179.34" y1="139.18" x2="179.34" y2="209.34" stroke="#f6465d" stroke-width="1.4" /><rect x="176.34" y="158.89" width="6" height="38.85" rx="1.5" fill="#f6465d" /><line x1="190.08" y1="187.74" x2="190.08" y2="229.05" stroke="#f6465d" stroke-width="1.4" /><rect x="187.08" y="197.89" width="6" height="8.41" rx="1.5" fill="#f6465d" /><line x1="200.81" y1="202.23" x2="200.81" y2="244.27" stroke="#f6465d" stroke-width="1.4" /><rect x="197.81" y="206.44" width="6" height="29.72" rx="1.5" fill="#f6465d" /><line x1="211.54" y1="224.99" x2="211.54" y2="261.67" stroke="#f6465d" stroke-width="1.4" /><rect x="208.54" y="236.01" width="6" height="13.63" rx="1.5" fill="#f6465d" /><line x1="222.28" y1="219.05" x2="222.28" y2="251.38" stroke="#0ecb81" stroke-width="1.4" /><rect x="219.28" y="241.37" width="6" height="7.68" rx="1.5" fill="#0ecb81" /><line x1="233.01" y1="236.30" x2="233.01" y2="278.77" stroke="#f6465d" stroke-width="1.4" /><rect x="230.01" y="241.23" width="6" height="25.51" rx="1.5" fill="#f6465d" /><line x1="243.75" y1="265.29" x2="243.75" y2="322.99" stroke="#f6465d" stroke-width="1.4" /><rect x="240.75" y="266.60" width="6" height="51.61" rx="1.5" fill="#f6465d" /><line x1="254.48" y1="267.18" x2="254.48" y2="333.28" stroke="#0ecb81" stroke-width="1.4" /><rect x="251.48" y="289.50" width="6" height="28.85" rx="1.5" fill="#0ecb81" /><line x1="265.22" y1="263.12" x2="265.22" y2="302.84" stroke="#0ecb81" stroke-width="1.4" /><rect x="262.22" y="284.43" width="6" height="5.07" rx="1.5" fill="#0ecb81" /><line x1="275.95" y1="269.79" x2="275.95" y2="315.59" stroke="#f6465d" stroke-width="1.4" /><rect x="272.95" y="284.28" width="6" height="22.03" rx="1.5" fill="#f6465d" /><line x1="286.68" y1="270.66" x2="286.68" y2="311.10" stroke="#0ecb81" stroke-width="1.4" /><rect x="283.68" y="275.15" width="6" height="31.31" rx="1.5" fill="#0ecb81" /><line x1="297.42" y1="273.41" x2="297.42" y2="317.19" stroke="#f6465d" stroke-width="1.4" /><rect x="294.42" y="275.15" width="6" height="4.64" rx="1.5" fill="#f6465d" /><line x1="308.15" y1="224.99" x2="308.15" y2="281.24" stroke="#0ecb81" stroke-width="1.4" /><rect x="305.15" y="237.60" width="6" height="42.18" rx="1.5" fill="#0ecb81" /><line x1="318.89" y1="190.78" x2="318.89" y2="256.01" stroke="#f6465d" stroke-width="1.4" /><rect x="315.89" y="237.75" width="6" height="8.12" rx="1.5" fill="#f6465d" /><line x1="329.62" y1="200.21" x2="329.62" y2="262.10" stroke="#0ecb81" stroke-width="1.4" /><rect x="326.62" y="243.40" width="6" height="2.32" rx="1.5" fill="#0ecb81" /><line x1="340.35" y1="211.95" x2="340.35" y2="261.52" stroke="#f6465d" stroke-width="1.4" /><rect x="337.35" y="243.40" width="6" height="14.50" rx="1.5" fill="#f6465d" /><line x1="351.09" y1="226.73" x2="351.09" y2="269.35" stroke="#0ecb81" stroke-width="1.4" /><rect x="348.09" y="234.71" width="6" height="23.19" rx="1.5" fill="#0ecb81" /><line x1="361.82" y1="204.55" x2="361.82" y2="248.19" stroke="#0ecb81" stroke-width="1.4" /><rect x="358.82" y="218.76" width="6" height="15.95" rx="1.5" fill="#0ecb81" /><line x1="372.56" y1="99.89" x2="372.56" y2="230.07" stroke="#0ecb81" stroke-width="1.4" /><rect x="369.56" y="168.89" width="6" height="49.72" rx="1.5" fill="#0ecb81" /><line x1="383.29" y1="105.26" x2="383.29" y2="224.85" stroke="#f6465d" stroke-width="1.4" /><rect x="380.29" y="169.04" width="6" height="37.25" rx="1.5" fill="#f6465d" /><line x1="394.03" y1="181.36" x2="394.03" y2="259.78" stroke="#f6465d" stroke-width="1.4" /><rect x="391.03" y="206.00" width="6" height="39.14" rx="1.5" fill="#f6465d" /><line x1="404.76" y1="220.35" x2="404.76" y2="255.58" stroke="#0ecb81" stroke-width="1.4" /><rect x="401.76" y="243.11" width="6" height="2.17" rx="1.5" fill="#0ecb81" /><line x1="415.49" y1="212.82" x2="415.49" y2="249.20" stroke="#f6465d" stroke-width="1.4" /><rect x="412.49" y="243.11" width="6" height="2.00" rx="1.5" fill="#f6465d" /><line x1="426.23" y1="202.52" x2="426.23" y2="266.60" stroke="#0ecb81" stroke-width="1.4" /><rect x="423.23" y="205.86" width="6" height="38.27" rx="1.5" fill="#0ecb81" /><line x1="436.96" y1="196.00" x2="436.96" y2="247.75" stroke="#f6465d" stroke-width="1.4" /><rect x="433.96" y="205.71" width="6" height="38.70" rx="1.5" fill="#f6465d" /><line x1="447.70" y1="237.75" x2="447.70" y2="298.49" stroke="#f6465d" stroke-width="1.4" /><rect x="444.70" y="244.27" width="6" height="31.60" rx="1.5" fill="#f6465d" /><line x1="458.43" y1="267.61" x2="458.43" y2="290.52" stroke="#f6465d" stroke-width="1.4" /><rect x="455.43" y="275.87" width="6" height="5.80" rx="1.5" fill="#f6465d" /><line x1="469.16" y1="235.43" x2="469.16" y2="297.91" stroke="#0ecb81" stroke-width="1.4" /><rect x="466.16" y="254.57" width="6" height="26.53" rx="1.5" fill="#0ecb81" /><line x1="479.90" y1="216.88" x2="479.90" y2="265.00" stroke="#0ecb81" stroke-width="1.4" /><rect x="476.90" y="231.08" width="6" height="23.34" rx="1.5" fill="#0ecb81" /><line x1="490.63" y1="182.09" x2="490.63" y2="233.26" stroke="#0ecb81" stroke-width="1.4" /><rect x="487.63" y="204.99" width="6" height="26.53" rx="1.5" fill="#0ecb81" /><line x1="501.37" y1="58.00" x2="501.37" y2="214.27" stroke="#0ecb81" stroke-width="1.4" /><rect x="498.37" y="126.13" width="6" height="78.71" rx="1.5" fill="#0ecb81" /><line x1="512.10" y1="125.26" x2="512.10" y2="192.23" stroke="#f6465d" stroke-width="1.4" /><rect x="509.10" y="126.13" width="6" height="36.09" rx="1.5" fill="#f6465d" /><line x1="522.84" y1="141.64" x2="522.84" y2="184.11" stroke="#f6465d" stroke-width="1.4" /><rect x="519.84" y="162.23" width="6" height="15.66" rx="1.5" fill="#f6465d" /><line x1="533.57" y1="148.16" x2="533.57" y2="189.48" stroke="#f6465d" stroke-width="1.4" /><rect x="530.57" y="177.88" width="6" height="2.00" rx="1.5" fill="#f6465d" /><line x1="544.30" y1="166.72" x2="544.30" y2="193.97" stroke="#f6465d" stroke-width="1.4" /><rect x="541.30" y="178.90" width="6" height="9.42" rx="1.5" fill="#f6465d" /><line x1="555.04" y1="188.17" x2="555.04" y2="208.18" stroke="#f6465d" stroke-width="1.4" /><rect x="552.04" y="188.32" width="6" height="16.96" rx="1.5" fill="#f6465d" /><line x1="565.77" y1="197.89" x2="565.77" y2="230.94" stroke="#f6465d" stroke-width="1.4" /><rect x="562.77" y="205.28" width="6" height="16.09" rx="1.5" fill="#f6465d" /><line x1="576.51" y1="202.67" x2="576.51" y2="245.87" stroke="#0ecb81" stroke-width="1.4" /><rect x="573.51" y="212.24" width="6" height="9.42" rx="1.5" fill="#0ecb81" /><line x1="587.24" y1="200.79" x2="587.24" y2="241.95" stroke="#f6465d" stroke-width="1.4" /><rect x="584.24" y="212.67" width="6" height="26.67" rx="1.5" fill="#f6465d" /><line x1="597.97" y1="236.30" x2="597.97" y2="260.65" stroke="#f6465d" stroke-width="1.4" /><rect x="594.97" y="239.20" width="6" height="3.19" rx="1.5" fill="#f6465d" /><line x1="608.71" y1="222.82" x2="608.71" y2="253.12" stroke="#0ecb81" stroke-width="1.4" /><rect x="605.71" y="233.69" width="6" height="8.70" rx="1.5" fill="#0ecb81" /><line x1="619.44" y1="217.60" x2="619.44" y2="244.85" stroke="#0ecb81" stroke-width="1.4" /><rect x="616.44" y="228.62" width="6" height="5.07" rx="1.5" fill="#0ecb81" /><line x1="630.18" y1="217.17" x2="630.18" y2="269.50" stroke="#f6465d" stroke-width="1.4" /><rect x="627.18" y="228.76" width="6" height="34.65" rx="1.5" fill="#f6465d" /><line x1="640.91" y1="253.99" x2="640.91" y2="275.87" stroke="#f6465d" stroke-width="1.4" /><rect x="637.91" y="263.41" width="6" height="2.00" rx="1.5" fill="#f6465d" /><line x1="651.65" y1="259.06" x2="651.65" y2="285.88" stroke="#f6465d" stroke-width="1.4" /><rect x="648.65" y="264.71" width="6" height="11.45" rx="1.5" fill="#f6465d" /><line x1="662.38" y1="260.94" x2="662.38" y2="282.54" stroke="#f6465d" stroke-width="1.4" /><rect x="659.38" y="276.16" width="6" height="4.93" rx="1.5" fill="#f6465d" /><line x1="673.11" y1="272.40" x2="673.11" y2="297.04" stroke="#f6465d" stroke-width="1.4" /><rect x="670.11" y="281.09" width="6" height="7.25" rx="1.5" fill="#f6465d" /><line x1="683.85" y1="288.49" x2="683.85" y2="356.04" stroke="#f6465d" stroke-width="1.4" /><rect x="680.85" y="288.49" width="6" height="65.09" rx="1.5" fill="#f6465d" /><line x1="694.58" y1="336.03" x2="694.58" y2="378.22" stroke="#0ecb81" stroke-width="1.4" /><rect x="691.58" y="342.99" width="6" height="10.73" rx="1.5" fill="#0ecb81" /><line x1="705.32" y1="341.11" x2="705.32" y2="402.13" stroke="#f6465d" stroke-width="1.4" /><rect x="702.32" y="342.85" width="6" height="51.46" rx="1.5" fill="#f6465d" /><line x1="716.05" y1="355.89" x2="716.05" y2="399.09" stroke="#0ecb81" stroke-width="1.4" /><rect x="713.05" y="385.32" width="6" height="8.70" rx="1.5" fill="#0ecb81" /><line x1="726.78" y1="364.73" x2="726.78" y2="389.81" stroke="#f6465d" stroke-width="1.4" /><rect x="723.78" y="385.46" width="6" height="2.00" rx="1.5" fill="#f6465d" /><line x1="737.52" y1="382.56" x2="737.52" y2="416.05" stroke="#f6465d" stroke-width="1.4" /><rect x="734.52" y="386.19" width="6" height="21.74" rx="1.5" fill="#f6465d" /><line x1="748.25" y1="398.22" x2="748.25" y2="415.47" stroke="#f6465d" stroke-width="1.4" /><rect x="745.25" y="407.93" width="6" height="2.03" rx="1.5" fill="#f6465d" /><line x1="758.99" y1="382.13" x2="758.99" y2="412.57" stroke="#0ecb81" stroke-width="1.4" /><rect x="755.99" y="391.26" width="6" height="18.55" rx="1.5" fill="#0ecb81" /><line x1="769.72" y1="358.36" x2="769.72" y2="402.71" stroke="#0ecb81" stroke-width="1.4" /><rect x="766.72" y="370.97" width="6" height="20.15" rx="1.5" fill="#0ecb81" /><line x1="780.46" y1="369.08" x2="780.46" y2="412.28" stroke="#f6465d" stroke-width="1.4" /><rect x="777.46" y="370.82" width="6" height="31.46" rx="1.5" fill="#f6465d" /><line x1="791.19" y1="388.51" x2="791.19" y2="404.45" stroke="#0ecb81" stroke-width="1.4" /><rect x="788.19" y="394.74" width="6" height="7.25" rx="1.5" fill="#0ecb81" /><line x1="801.92" y1="377.93" x2="801.92" y2="397.35" stroke="#0ecb81" stroke-width="1.4" /><rect x="798.92" y="391.55" width="6" height="3.19" rx="1.5" fill="#0ecb81" /><line x1="812.66" y1="389.38" x2="812.66" y2="414.75" stroke="#f6465d" stroke-width="1.4" /><rect x="809.66" y="391.55" width="6" height="22.18" rx="1.5" fill="#f6465d" /><line x1="823.39" y1="407.64" x2="823.39" y2="425.04" stroke="#f6465d" stroke-width="1.4" /><rect x="820.39" y="413.59" width="6" height="2.32" rx="1.5" fill="#f6465d" /><line x1="834.13" y1="391.12" x2="834.13" y2="415.62" stroke="#0ecb81" stroke-width="1.4" /><rect x="831.13" y="405.32" width="6" height="10.15" rx="1.5" fill="#0ecb81" /><line x1="844.86" y1="395.61" x2="844.86" y2="408.95" stroke="#0ecb81" stroke-width="1.4" /><rect x="841.86" y="397.35" width="6" height="7.97" rx="1.5" fill="#0ecb81" /><line x1="855.59" y1="392.42" x2="855.59" y2="422.72" stroke="#f6465d" stroke-width="1.4" /><rect x="852.59" y="397.35" width="6" height="19.86" rx="1.5" fill="#f6465d" /><line x1="866.33" y1="411.99" x2="866.33" y2="436.05" stroke="#f6465d" stroke-width="1.4" /><rect x="863.33" y="417.35" width="6" height="15.66" rx="1.5" fill="#f6465d" /><line x1="877.06" y1="418.51" x2="877.06" y2="436.05" stroke="#0ecb81" stroke-width="1.4" /><rect x="874.06" y="420.54" width="6" height="12.61" rx="1.5" fill="#0ecb81" /><line x1="887.80" y1="416.48" x2="887.80" y2="445.77" stroke="#f6465d" stroke-width="1.4" /><rect x="884.80" y="420.54" width="6" height="17.11" rx="1.5" fill="#f6465d" /><line x1="898.53" y1="425.47" x2="898.53" y2="452.00" stroke="#f6465d" stroke-width="1.4" /><rect x="895.53" y="437.79" width="6" height="2.00" rx="1.5" fill="#f6465d" /><line x1="909.27" y1="425.91" x2="909.27" y2="440.98" stroke="#0ecb81" stroke-width="1.4" /><rect x="906.27" y="431.27" width="6" height="8.55" rx="1.5" fill="#0ecb81" /><line x1="920.00" y1="427.07" x2="920.00" y2="446.93" stroke="#f6465d" stroke-width="1.4" /><rect x="917.00" y="431.13" width="6" height="12.90" rx="1.5" fill="#f6465d" />
  <polyline points="254.48,333.28 318.89,190.78 351.09,269.35 372.56,99.89 447.70,298.49" fill="none" stroke="#2fc273" stroke-width="4" stroke-linecap="round" stroke-linejoin="round" />
  <circle cx="254.48" cy="333.28" r="5.5" fill="#2fc273" fill-opacity="0.15" stroke="#2fc273" stroke-width="2" /><text x="254.48" y="321.28" fill="#f3f4f6" font-size="15" font-weight="700" text-anchor="middle">X</text><circle cx="318.89" cy="190.78" r="5.5" fill="#2fc273" fill-opacity="0.15" stroke="#2fc273" stroke-width="2" /><text x="318.89" y="178.78" fill="#f3f4f6" font-size="15" font-weight="700" text-anchor="middle">A</text><circle cx="351.09" cy="269.35" r="5.5" fill="#2fc273" fill-opacity="0.15" stroke="#2fc273" stroke-width="2" /><text x="351.09" y="257.35" fill="#f3f4f6" font-size="15" font-weight="700" text-anchor="middle">B</text><circle cx="372.56" cy="99.89" r="5.5" fill="#2fc273" fill-opacity="0.15" stroke="#2fc273" stroke-width="2" /><text x="372.56" y="87.89" fill="#f3f4f6" font-size="15" font-weight="700" text-anchor="middle">C</text><circle cx="447.70" cy="298.49" r="5.5" fill="#2fc273" fill-opacity="0.15" stroke="#2fc273" stroke-width="2" /><text x="447.70" y="286.49" fill="#f3f4f6" font-size="15" font-weight="700" text-anchor="middle">D</text>
  <text x="56" y="492" fill="#8ba0b5" font-size="18">실시간 터치 · TP1 0.006474 · TP2 0.006798 · SL 0.005823</text>
</svg>
