<svg xmlns="http://www.w3.org/2000/svg" width="960" height="540" viewBox="0 0 960 540">
  <rect width="960" height="540" rx="24" fill="#0b1220" />
  <rect x="28" y="28" width="904" height="484" rx="22" fill="#111827" stroke="#1f2937" />
  <text x="56" y="74" fill="#f3f4f6" font-size="34" font-weight="700">ONTUSDT · AB=CD</text>
  <text x="904" y="74" fill="#8ba0b5" font-size="20" text-anchor="end">Bullish (매수) · Score 85.4</text>
  <line x1="72" y1="58" x2="920" y2="58" stroke="#223045" stroke-width="1" stroke-dasharray="4 8" /><line x1="72" y1="156" x2="920" y2="156" stroke="#223045" stroke-width="1" stroke-dasharray="4 8" /><line x1="72" y1="255" x2="920" y2="255" stroke="#223045" stroke-width="1" stroke-dasharray="4 8" /><line x1="72" y1="353" x2="920" y2="353" stroke="#223045" stroke-width="1" stroke-dasharray="4 8" /><line x1="72" y1="452" x2="920" y2="452" stroke="#223045" stroke-width="1" stroke-dasharray="4 8" />
  <rect x="741.72" y="377.88" width="84" height="156.55" fill="#fbbf24" fill-opacity="0.12" stroke="#fbbf24" stroke-width="1.5" stroke-dasharray="6 6" />
  <line x1="72.00" y1="221.84" x2="72.00" y2="259.55" stroke="#f6465d" stroke-width="1.4" /><rect x="69.00" y="234.84" width="6" height="24.71" rx="1.5" fill="#f6465d" /><line x1="82.73" y1="250.45" x2="82.73" y2="301.16" stroke="#f6465d" stroke-width="1.4" /><rect x="79.73" y="259.55" width="6" height="3.90" rx="1.5" fill="#f6465d" /><line x1="93.47" y1="194.53" x2="93.47" y2="273.85" stroke="#0ecb81" stroke-width="1.4" /><rect x="90.47" y="230.94" width="6" height="32.51" rx="1.5" fill="#0ecb81" /><line x1="104.20" y1="212.74" x2="104.20" y2="250.45" stroke="#f6465d" stroke-width="1.4" /><rect x="101.20" y="230.94" width="6" height="5.20" rx="1.5" fill="#f6465d" /><line x1="114.94" y1="154.22" x2="114.94" y2="275.16" stroke="#0ecb81" stroke-width="1.4" /><rect x="111.94" y="182.83" width="6" height="52.01" rx="1.5" fill="#0ecb81" /><line x1="125.67" y1="180.23" x2="125.67" y2="281.66" stroke="#f6465d" stroke-width="1.4" /><rect x="122.67" y="182.83" width="6" height="80.62" rx="1.5" fill="#f6465d" /><line x1="136.41" y1="232.24" x2="136.41" y2="268.65" stroke="#0ecb81" stroke-width="1.4" /><rect x="133.41" y="246.55" width="6" height="16.90" rx="1.5" fill="#0ecb81" /><line x1="147.14" y1="190.63" x2="147.14" y2="267.35" stroke="#0ecb81" stroke-width="1.4" /><rect x="144.14" y="206.24" width="6" height="40.31" rx="1.5" fill="#0ecb81" /><line x1="157.87" y1="69.70" x2="157.87" y2="232.24" stroke="#0ecb81" stroke-width="1.4" /><rect x="154.87" y="116.51" width="6" height="91.02" rx="1.5" fill="#0ecb81" /><line x1="168.61" y1="116.51" x2="168.61" y2="181.53" stroke="#f6465d" stroke-width="1.4" /><rect x="165.61" y="116.51" width="6" height="45.51" rx="1.5" fill="#f6465d" /><line x1="179.34" y1="106.11" x2="179.34" y2="169.83" stroke="#0ecb81" stroke-width="1.4" /><rect x="176.34" y="147.72" width="6" height="14.30" rx="1.5" fill="#0ecb81" /><line x1="190.08" y1="139.92" x2="190.08" y2="210.14" stroke="#f6465d" stroke-width="1.4" /><rect x="187.08" y="147.72" width="6" height="31.21" rx="1.5" fill="#f6465d" /><line x1="200.81" y1="155.52" x2="200.81" y2="199.74" stroke="#f6465d" stroke-width="1.4" /><rect x="197.81" y="177.63" width="6" height="15.60" rx="1.5" fill="#f6465d" /><line x1="211.54" y1="173.73" x2="211.54" y2="210.14" stroke="#0ecb81" stroke-width="1.4" /><rect x="208.54" y="181.53" width="6" height="11.70" rx="1.5" fill="#0ecb81" /><line x1="222.28" y1="155.52" x2="222.28" y2="201.04" stroke="#f6465d" stroke-width="1.4" /><rect x="219.28" y="181.53" width="6" height="3.90" rx="1.5" fill="#f6465d" /><line x1="233.01" y1="58.00" x2="233.01" y2="191.93" stroke="#0ecb81" stroke-width="1.4" /><rect x="230.01" y="107.41" width="6" height="78.02" rx="1.5" fill="#0ecb81" /><line x1="243.75" y1="103.51" x2="243.75" y2="262.15" stroke="#f6465d" stroke-width="1.4" /><rect x="240.75" y="106.11" width="6" height="119.63" rx="1.5" fill="#f6465d" /><line x1="254.48" y1="221.84" x2="254.48" y2="318.07" stroke="#f6465d" stroke-width="1.4" /><rect x="251.48" y="225.74" width="6" height="66.32" rx="1.5" fill="#f6465d" /><line x1="265.22" y1="271.25" x2="265.22" y2="328.47" stroke="#f6465d" stroke-width="1.4" /><rect x="262.22" y="292.06" width="6" height="18.20" rx="1.5" fill="#f6465d" /><line x1="275.95" y1="266.05" x2="275.95" y2="347.97" stroke="#0ecb81" stroke-width="1.4" /><rect x="272.95" y="272.55" width="6" height="37.71" rx="1.5" fill="#0ecb81" /><line x1="286.68" y1="268.65" x2="286.68" y2="301.16" stroke="#f6465d" stroke-width="1.4" /><rect x="283.68" y="272.55" width="6" height="7.80" rx="1.5" fill="#f6465d" /><line x1="297.42" y1="275.16" x2="297.42" y2="302.46" stroke="#f6465d" stroke-width="1.4" /><rect x="294.42" y="280.36" width="6" height="18.20" rx="1.5" fill="#f6465d" /><line x1="308.15" y1="269.95" x2="308.15" y2="305.06" stroke="#0ecb81" stroke-width="1.4" /><rect x="305.15" y="279.06" width="6" height="19.50" rx="1.5" fill="#0ecb81" /><line x1="318.89" y1="266.05" x2="318.89" y2="288.16" stroke="#f6465d" stroke-width="1.4" /><rect x="315.89" y="279.06" width="6" height="7.80" rx="1.5" fill="#f6465d" /><line x1="329.62" y1="263.45" x2="329.62" y2="294.66" stroke="#0ecb81" stroke-width="1.4" /><rect x="326.62" y="276.46" width="6" height="10.40" rx="1.5" fill="#0ecb81" /><line x1="340.35" y1="224.44" x2="340.35" y2="276.46" stroke="#0ecb81" stroke-width="1.4" /><rect x="337.35" y="234.84" width="6" height="41.61" rx="1.5" fill="#0ecb81" /><line x1="351.09" y1="207.54" x2="351.09" y2="256.95" stroke="#0ecb81" stroke-width="1.4" /><rect x="348.09" y="228.34" width="6" height="6.50" rx="1.5" fill="#0ecb81" /><line x1="361.82" y1="215.34" x2="361.82" y2="249.15" stroke="#0ecb81" stroke-width="1.4" /><rect x="358.82" y="227.04" width="6" height="2.00" rx="1.5" fill="#0ecb81" /><line x1="372.56" y1="225.74" x2="372.56" y2="319.37" stroke="#f6465d" stroke-width="1.4" /><rect x="369.56" y="227.04" width="6" height="59.82" rx="1.5" fill="#f6465d" /><line x1="383.29" y1="238.75" x2="383.29" y2="295.96" stroke="#0ecb81" stroke-width="1.4" /><rect x="380.29" y="272.55" width="6" height="14.30" rx="1.5" fill="#0ecb81" /><line x1="394.03" y1="238.75" x2="394.03" y2="273.85" stroke="#0ecb81" stroke-width="1.4" /><rect x="391.03" y="242.65" width="6" height="29.91" rx="1.5" fill="#0ecb81" /><line x1="404.76" y1="233.54" x2="404.76" y2="289.46" stroke="#f6465d" stroke-width="1.4" /><rect x="401.76" y="242.65" width="6" height="45.51" rx="1.5" fill="#f6465d" /><line x1="415.49" y1="264.75" x2="415.49" y2="299.86" stroke="#f6465d" stroke-width="1.4" /><rect x="412.49" y="288.16" width="6" height="5.20" rx="1.5" fill="#f6465d" /><line x1="426.23" y1="281.66" x2="426.23" y2="305.06" stroke="#f6465d" stroke-width="1.4" /><rect x="423.23" y="293.36" width="6" height="2.60" rx="1.5" fill="#f6465d" /><line x1="436.96" y1="280.36" x2="436.96" y2="305.06" stroke="#f6465d" stroke-width="1.4" /><rect x="433.96" y="295.96" width="6" height="2.00" rx="1.5" fill="#f6465d" /><line x1="447.70" y1="267.35" x2="447.70" y2="299.86" stroke="#0ecb81" stroke-width="1.4" /><rect x="444.70" y="282.96" width="6" height="14.30" rx="1.5" fill="#0ecb81" /><line x1="458.43" y1="275.16" x2="458.43" y2="295.96" stroke="#f6465d" stroke-width="1.4" /><rect x="455.43" y="282.96" width="6" height="5.20" rx="1.5" fill="#f6465d" /><line x1="469.16" y1="275.16" x2="469.16" y2="311.56" stroke="#f6465d" stroke-width="1.4" /><rect x="466.16" y="288.16" width="6" height="18.20" rx="1.5" fill="#f6465d" /><line x1="479.90" y1="294.66" x2="479.90" y2="318.07" stroke="#0ecb81" stroke-width="1.4" /><rect x="476.90" y="302.46" width="6" height="3.90" rx="1.5" fill="#0ecb81" /><line x1="490.63" y1="293.36" x2="490.63" y2="327.17" stroke="#f6465d" stroke-width="1.4" /><rect x="487.63" y="302.46" width="6" height="14.30" rx="1.5" fill="#f6465d" /><line x1="501.37" y1="284.26" x2="501.37" y2="334.97" stroke="#f6465d" stroke-width="1.4" /><rect x="498.37" y="316.77" width="6" height="14.30" rx="1.5" fill="#f6465d" /><line x1="512.10" y1="327.17" x2="512.10" y2="362.28" stroke="#f6465d" stroke-width="1.4" /><rect x="509.10" y="331.07" width="6" height="13.00" rx="1.5" fill="#f6465d" /><line x1="522.84" y1="340.17" x2="522.84" y2="362.28" stroke="#f6465d" stroke-width="1.4" /><rect x="519.84" y="344.07" width="6" height="3.90" rx="1.5" fill="#f6465d" /><line x1="533.57" y1="327.17" x2="533.57" y2="349.27" stroke="#0ecb81" stroke-width="1.4" /><rect x="530.57" y="342.77" width="6" height="5.20" rx="1.5" fill="#0ecb81" /><line x1="544.30" y1="331.07" x2="544.30" y2="359.68" stroke="#f6465d" stroke-width="1.4" /><rect x="541.30" y="341.47" width="6" height="16.90" rx="1.5" fill="#f6465d" /><line x1="555.04" y1="344.07" x2="555.04" y2="371.38" stroke="#f6465d" stroke-width="1.4" /><rect x="552.04" y="358.38" width="6" height="11.70" rx="1.5" fill="#f6465d" /><line x1="565.77" y1="354.48" x2="565.77" y2="370.08" stroke="#0ecb81" stroke-width="1.4" /><rect x="562.77" y="358.38" width="6" height="11.70" rx="1.5" fill="#0ecb81" /><line x1="576.51" y1="312.86" x2="576.51" y2="358.38" stroke="#0ecb81" stroke-width="1.4" /><rect x="573.51" y="320.67" width="6" height="37.71" rx="1.5" fill="#0ecb81" /><line x1="587.24" y1="305.06" x2="587.24" y2="332.37" stroke="#f6465d" stroke-width="1.4" /><rect x="584.24" y="320.67" width="6" height="10.40" rx="1.5" fill="#f6465d" /><line x1="597.97" y1="316.77" x2="597.97" y2="338.87" stroke="#f6465d" stroke-width="1.4" /><rect x="594.97" y="331.07" width="6" height="3.90" rx="1.5" fill="#f6465d" /><line x1="608.71" y1="325.87" x2="608.71" y2="346.67" stroke="#f6465d" stroke-width="1.4" /><rect x="605.71" y="334.97" width="6" height="10.40" rx="1.5" fill="#f6465d" /><line x1="619.44" y1="328.47" x2="619.44" y2="353.17" stroke="#f6465d" stroke-width="1.4" /><rect x="616.44" y="345.37" width="6" height="6.50" rx="1.5" fill="#f6465d" /><line x1="630.18" y1="350.57" x2="630.18" y2="403.89" stroke="#f6465d" stroke-width="1.4" /><rect x="627.18" y="351.87" width="6" height="24.71" rx="1.5" fill="#f6465d" /><line x1="640.91" y1="362.28" x2="640.91" y2="396.09" stroke="#f6465d" stroke-width="1.4" /><rect x="637.91" y="376.58" width="6" height="18.20" rx="1.5" fill="#f6465d" /><line x1="651.65" y1="383.08" x2="651.65" y2="411.69" stroke="#f6465d" stroke-width="1.4" /><rect x="648.65" y="394.79" width="6" height="11.70" rx="1.5" fill="#f6465d" /><line x1="662.38" y1="386.98" x2="662.38" y2="411.69" stroke="#0ecb81" stroke-width="1.4" /><rect x="659.38" y="392.18" width="6" height="14.30" rx="1.5" fill="#0ecb81" /><line x1="673.11" y1="353.17" x2="673.11" y2="394.79" stroke="#0ecb81" stroke-width="1.4" /><rect x="670.11" y="379.18" width="6" height="13.00" rx="1.5" fill="#0ecb81" /><line x1="683.85" y1="271.25" x2="683.85" y2="379.18" stroke="#0ecb81" stroke-width="1.4" /><rect x="680.85" y="320.67" width="6" height="58.51" rx="1.5" fill="#0ecb81" /><line x1="694.58" y1="271.25" x2="694.58" y2="342.77" stroke="#f6465d" stroke-width="1.4" /><rect x="691.58" y="320.67" width="6" height="22.11" rx="1.5" fill="#f6465d" /><line x1="705.32" y1="338.87" x2="705.32" y2="371.38" stroke="#f6465d" stroke-width="1.4" /><rect x="702.32" y="342.77" width="6" height="16.90" rx="1.5" fill="#f6465d" /><line x1="716.05" y1="318.07" x2="716.05" y2="370.08" stroke="#0ecb81" stroke-width="1.4" /><rect x="713.05" y="344.07" width="6" height="15.60" rx="1.5" fill="#0ecb81" /><line x1="726.78" y1="337.57" x2="726.78" y2="396.09" stroke="#f6465d" stroke-width="1.4" /><rect x="723.78" y="344.07" width="6" height="46.81" rx="1.5" fill="#f6465d" /><line x1="737.52" y1="379.18" x2="737.52" y2="394.79" stroke="#0ecb81" stroke-width="1.4" /><rect x="734.52" y="390.88" width="6" height="2.00" rx="1.5" fill="#0ecb81" /><line x1="748.25" y1="379.18" x2="748.25" y2="409.09" stroke="#f6465d" stroke-width="1.4" /><rect x="745.25" y="390.88" width="6" height="5.20" rx="1.5" fill="#f6465d" /><line x1="758.99" y1="394.79" x2="758.99" y2="428.59" stroke="#f6465d" stroke-width="1.4" /><rect x="755.99" y="396.09" width="6" height="18.20" rx="1.5" fill="#f6465d" /><line x1="769.72" y1="402.59" x2="769.72" y2="446.80" stroke="#f6465d" stroke-width="1.4" /><rect x="766.72" y="414.29" width="6" height="16.90" rx="1.5" fill="#f6465d" /><line x1="780.46" y1="379.18" x2="780.46" y2="431.19" stroke="#0ecb81" stroke-width="1.4" /><rect x="777.46" y="406.49" width="6" height="24.71" rx="1.5" fill="#0ecb81" /><line x1="791.19" y1="380.48" x2="791.19" y2="409.09" stroke="#0ecb81" stroke-width="1.4" /><rect x="788.19" y="394.79" width="6" height="11.70" rx="1.5" fill="#0ecb81" /><line x1="801.92" y1="390.88" x2="801.92" y2="416.89" stroke="#f6465d" stroke-width="1.4" /><rect x="798.92" y="394.79" width="6" height="22.11" rx="1.5" fill="#f6465d" /><line x1="812.66" y1="411.69" x2="812.66" y2="428.59" stroke="#f6465d" stroke-width="1.4" /><rect x="809.66" y="416.89" width="6" height="6.50" rx="1.5" fill="#f6465d" /><line x1="823.39" y1="420.79" x2="823.39" y2="436.40" stroke="#f6465d" stroke-width="1.4" /><rect x="820.39" y="423.39" width="6" height="7.80" rx="1.5" fill="#f6465d" /><line x1="834.13" y1="428.59" x2="834.13" y2="442.90" stroke="#f6465d" stroke-width="1.4" /><rect x="831.13" y="431.19" width="6" height="7.80" rx="1.5" fill="#f6465d" /><line x1="844.86" y1="425.99" x2="844.86" y2="440.30" stroke="#0ecb81" stroke-width="1.4" /><rect x="841.86" y="432.50" width="6" height="6.50" rx="1.5" fill="#0ecb81" /><line x1="855.59" y1="422.09" x2="855.59" y2="452.00" stroke="#0ecb81" stroke-width="1.4" /><rect x="852.59" y="431.19" width="6" height="2.00" rx="1.5" fill="#0ecb81" /><line x1="866.33" y1="414.29" x2="866.33" y2="439.00" stroke="#0ecb81" stroke-width="1.4" /><rect x="863.33" y="418.19" width="6" height="13.00" rx="1.5" fill="#0ecb81" /><line x1="877.06" y1="399.99" x2="877.06" y2="427.29" stroke="#0ecb81" stroke-width="1.4" /><rect x="874.06" y="418.19" width="6" height="2.00" rx="1.5" fill="#0ecb81" /><line x1="887.80" y1="402.59" x2="887.80" y2="440.30" stroke="#f6465d" stroke-width="1.4" /><rect x="884.80" y="418.19" width="6" height="15.60" rx="1.5" fill="#f6465d" /><line x1="898.53" y1="424.69" x2="898.53" y2="448.10" stroke="#f6465d" stroke-width="1.4" /><rect x="895.53" y="433.80" width="6" height="3.90" rx="1.5" fill="#f6465d" /><line x1="909.27" y1="396.09" x2="909.27" y2="437.70" stroke="#0ecb81" stroke-width="1.4" /><rect x="906.27" y="398.69" width="6" height="39.01" rx="1.5" fill="#0ecb81" /><line x1="920.00" y1="315.47" x2="920.00" y2="398.69" stroke="#0ecb81" stroke-width="1.4" /><rect x="917.00" y="345.37" width="6" height="53.31" rx="1.5" fill="#0ecb81" />
  <polyline points="555.04,371.38 587.24,305.06 662.38,411.69 694.58,271.25 769.72,446.80" fill="none" stroke="#2fc273" stroke-width="4" stroke-linecap="round" stroke-linejoin="round" />
  <circle cx="555.04" cy="371.38" r="5.5" fill="#2fc273" fill-opacity="0.15" stroke="#2fc273" stroke-width="2" /><text x="555.04" y="359.38" fill="#f3f4f6" font-size="15" font-weight="700" text-anchor="middle">X</text><circle cx="587.24" cy="305.06" r="5.5" fill="#2fc273" fill-opacity="0.15" stroke="#2fc273" stroke-width="2" /><text x="587.24" y="293.06" fill="#f3f4f6" font-size="15" font-weight="700" text-anchor="middle">A</text><circle cx="662.38" cy="411.69" r="5.5" fill="#2fc273" fill-opacity="0.15" stroke="#2fc273" stroke-width="2" /><text x="662.38" y="399.69" fill="#f3f4f6" font-size="15" font-weight="700" text-anchor="middle">B</text><circle cx="694.58" cy="271.25" r="5.5" fill="#2fc273" fill-opacity="0.15" stroke="#2fc273" stroke-width="2" /><text x="694.58" y="259.25" fill="#f3f4f6" font-size="15" font-weight="700" text-anchor="middle">C</text><circle cx="769.72" cy="446.80" r="5.5" fill="#2fc273" fill-opacity="0.15" stroke="#2fc273" stroke-width="2" /><text x="769.72" y="434.80" fill="#f3f4f6" font-size="15" font-weight="700" text-anchor="middle">D</text>
  <text x="56" y="492" fill="#8ba0b5" font-size="18">일반 완성 · TP1 0.094157 · TP2 0.097343 · SL 0.088337</text>
</svg>
