<svg xmlns="http://www.w3.org/2000/svg" width="960" height="540" viewBox="0 0 960 540">
  <rect width="960" height="540" rx="24" fill="#0b1220" />
  <rect x="28" y="28" width="904" height="484" rx="22" fill="#111827" stroke="#1f2937" />
  <text x="56" y="74" fill="#f3f4f6" font-size="34" font-weight="700">PENGUUSDT · AB=CD</text>
  <text x="904" y="74" fill="#8ba0b5" font-size="20" text-anchor="end">Bearish (매도) · Score 81.6</text>
  <line x1="72" y1="58" x2="920" y2="58" stroke="#223045" stroke-width="1" stroke-dasharray="4 8" /><line x1="72" y1="156" x2="920" y2="156" stroke="#223045" stroke-width="1" stroke-dasharray="4 8" /><line x1="72" y1="255" x2="920" y2="255" stroke="#223045" stroke-width="1" stroke-dasharray="4 8" /><line x1="72" y1="353" x2="920" y2="353" stroke="#223045" stroke-width="1" stroke-dasharray="4 8" /><line x1="72" y1="452" x2="920" y2="452" stroke="#223045" stroke-width="1" stroke-dasharray="4 8" />
  <rect x="366.03" y="59.67" width="84" height="26.66" fill="#fbbf24" fill-opacity="0.12" stroke="#fbbf24" stroke-width="1.5" stroke-dasharray="6 6" />
  <line x1="72.00" y1="177.95" x2="72.00" y2="240.42" stroke="#0ecb81" stroke-width="1.4" /><rect x="69.00" y="212.93" width="6" height="15.83" rx="1.5" fill="#0ecb81" /><line x1="82.73" y1="201.27" x2="82.73" y2="227.93" stroke="#0ecb81" stroke-width="1.4" /><rect x="79.73" y="205.44" width="6" height="8.33" rx="1.5" fill="#0ecb81" /><line x1="93.47" y1="205.44" x2="93.47" y2="263.75" stroke="#f6465d" stroke-width="1.4" /><rect x="90.47" y="205.44" width="6" height="49.98" rx="1.5" fill="#f6465d" /><line x1="104.20" y1="240.42" x2="104.20" y2="282.07" stroke="#f6465d" stroke-width="1.4" /><rect x="101.20" y="255.42" width="6" height="13.33" rx="1.5" fill="#f6465d" /><line x1="114.94" y1="263.75" x2="114.94" y2="312.89" stroke="#f6465d" stroke-width="1.4" /><rect x="111.94" y="268.74" width="6" height="24.99" rx="1.5" fill="#f6465d" /><line x1="125.67" y1="282.90" x2="125.67" y2="335.38" stroke="#f6465d" stroke-width="1.4" /><rect x="122.67" y="293.73" width="6" height="24.16" rx="1.5" fill="#f6465d" /><line x1="136.41" y1="316.22" x2="136.41" y2="388.69" stroke="#f6465d" stroke-width="1.4" /><rect x="133.41" y="317.06" width="6" height="40.82" rx="1.5" fill="#f6465d" /><line x1="147.14" y1="354.54" x2="147.14" y2="422.85" stroke="#f6465d" stroke-width="1.4" /><rect x="144.14" y="357.87" width="6" height="23.32" rx="1.5" fill="#f6465d" /><line x1="157.87" y1="257.08" x2="157.87" y2="404.52" stroke="#0ecb81" stroke-width="1.4" /><rect x="154.87" y="281.24" width="6" height="99.96" rx="1.5" fill="#0ecb81" /><line x1="168.61" y1="280.41" x2="168.61" y2="357.04" stroke="#f6465d" stroke-width="1.4" /><rect x="165.61" y="281.24" width="6" height="41.65" rx="1.5" fill="#f6465d" /><line x1="179.34" y1="259.58" x2="179.34" y2="342.88" stroke="#0ecb81" stroke-width="1.4" /><rect x="176.34" y="305.40" width="6" height="17.49" rx="1.5" fill="#0ecb81" /><line x1="190.08" y1="239.59" x2="190.08" y2="344.55" stroke="#f6465d" stroke-width="1.4" /><rect x="187.08" y="305.40" width="6" height="32.49" rx="1.5" fill="#f6465d" /><line x1="200.81" y1="277.07" x2="200.81" y2="340.38" stroke="#0ecb81" stroke-width="1.4" /><rect x="197.81" y="290.40" width="6" height="47.48" rx="1.5" fill="#0ecb81" /><line x1="211.54" y1="229.59" x2="211.54" y2="299.56" stroke="#0ecb81" stroke-width="1.4" /><rect x="208.54" y="238.76" width="6" height="51.64" rx="1.5" fill="#0ecb81" /><line x1="222.28" y1="184.61" x2="222.28" y2="255.42" stroke="#0ecb81" stroke-width="1.4" /><rect x="219.28" y="215.43" width="6" height="22.49" rx="1.5" fill="#0ecb81" /><line x1="233.01" y1="209.60" x2="233.01" y2="271.24" stroke="#f6465d" stroke-width="1.4" /><rect x="230.01" y="213.77" width="6" height="54.98" rx="1.5" fill="#f6465d" /><line x1="243.75" y1="257.08" x2="243.75" y2="305.40" stroke="#f6465d" stroke-width="1.4" /><rect x="240.75" y="268.74" width="6" height="13.33" rx="1.5" fill="#f6465d" /><line x1="254.48" y1="275.41" x2="254.48" y2="304.56" stroke="#0ecb81" stroke-width="1.4" /><rect x="251.48" y="282.90" width="6" height="2.00" rx="1.5" fill="#0ecb81" /><line x1="265.22" y1="272.08" x2="265.22" y2="297.90" stroke="#0ecb81" stroke-width="1.4" /><rect x="262.22" y="278.74" width="6" height="3.33" rx="1.5" fill="#0ecb81" /><line x1="275.95" y1="257.92" x2="275.95" y2="302.90" stroke="#0ecb81" stroke-width="1.4" /><rect x="272.95" y="277.91" width="6" height="2.00" rx="1.5" fill="#0ecb81" /><line x1="286.68" y1="232.93" x2="286.68" y2="288.74" stroke="#0ecb81" stroke-width="1.4" /><rect x="283.68" y="245.42" width="6" height="32.49" rx="1.5" fill="#0ecb81" /><line x1="297.42" y1="199.61" x2="297.42" y2="254.58" stroke="#0ecb81" stroke-width="1.4" /><rect x="294.42" y="222.93" width="6" height="22.49" rx="1.5" fill="#0ecb81" /><line x1="308.15" y1="176.28" x2="308.15" y2="237.09" stroke="#0ecb81" stroke-width="1.4" /><rect x="305.15" y="189.61" width="6" height="34.15" rx="1.5" fill="#0ecb81" /><line x1="318.89" y1="126.30" x2="318.89" y2="206.27" stroke="#0ecb81" stroke-width="1.4" /><rect x="315.89" y="154.63" width="6" height="34.15" rx="1.5" fill="#0ecb81" /><line x1="329.62" y1="99.65" x2="329.62" y2="174.62" stroke="#0ecb81" stroke-width="1.4" /><rect x="326.62" y="117.14" width="6" height="37.48" rx="1.5" fill="#0ecb81" /><line x1="340.35" y1="81.32" x2="340.35" y2="135.47" stroke="#f6465d" stroke-width="1.4" /><rect x="337.35" y="117.14" width="6" height="10.83" rx="1.5" fill="#f6465d" /><line x1="351.09" y1="77.99" x2="351.09" y2="132.97" stroke="#0ecb81" stroke-width="1.4" /><rect x="348.09" y="116.31" width="6" height="10.83" rx="1.5" fill="#0ecb81" /><line x1="361.82" y1="81.32" x2="361.82" y2="126.30" stroke="#0ecb81" stroke-width="1.4" /><rect x="358.82" y="84.66" width="6" height="31.65" rx="1.5" fill="#0ecb81" /><line x1="372.56" y1="68.00" x2="372.56" y2="135.47" stroke="#f6465d" stroke-width="1.4" /><rect x="369.56" y="84.66" width="6" height="17.49" rx="1.5" fill="#f6465d" /><line x1="383.29" y1="96.32" x2="383.29" y2="129.64" stroke="#f6465d" stroke-width="1.4" /><rect x="380.29" y="102.15" width="6" height="10.83" rx="1.5" fill="#f6465d" /><line x1="394.03" y1="58.00" x2="394.03" y2="165.45" stroke="#f6465d" stroke-width="1.4" /><rect x="391.03" y="113.81" width="6" height="32.49" rx="1.5" fill="#f6465d" /><line x1="404.76" y1="132.97" x2="404.76" y2="166.29" stroke="#0ecb81" stroke-width="1.4" /><rect x="401.76" y="138.80" width="6" height="9.16" rx="1.5" fill="#0ecb81" /><line x1="415.49" y1="113.81" x2="415.49" y2="169.62" stroke="#f6465d" stroke-width="1.4" /><rect x="412.49" y="139.63" width="6" height="3.33" rx="1.5" fill="#f6465d" /><line x1="426.23" y1="138.80" x2="426.23" y2="204.60" stroke="#f6465d" stroke-width="1.4" /><rect x="423.23" y="143.80" width="6" height="51.64" rx="1.5" fill="#f6465d" /><line x1="436.96" y1="156.29" x2="436.96" y2="202.94" stroke="#0ecb81" stroke-width="1.4" /><rect x="433.96" y="160.46" width="6" height="35.82" rx="1.5" fill="#0ecb81" /><line x1="447.70" y1="143.80" x2="447.70" y2="192.11" stroke="#f6465d" stroke-width="1.4" /><rect x="444.70" y="160.46" width="6" height="14.16" rx="1.5" fill="#f6465d" /><line x1="458.43" y1="142.96" x2="458.43" y2="194.61" stroke="#f6465d" stroke-width="1.4" /><rect x="455.43" y="175.45" width="6" height="15.83" rx="1.5" fill="#f6465d" /><line x1="469.16" y1="188.78" x2="469.16" y2="235.42" stroke="#f6465d" stroke-width="1.4" /><rect x="466.16" y="190.44" width="6" height="11.66" rx="1.5" fill="#f6465d" /><line x1="479.90" y1="192.11" x2="479.90" y2="239.59" stroke="#f6465d" stroke-width="1.4" /><rect x="476.90" y="202.11" width="6" height="10.83" rx="1.5" fill="#f6465d" /><line x1="490.63" y1="188.78" x2="490.63" y2="220.43" stroke="#f6465d" stroke-width="1.4" /><rect x="487.63" y="212.10" width="6" height="2.00" rx="1.5" fill="#f6465d" /><line x1="501.37" y1="201.27" x2="501.37" y2="254.58" stroke="#f6465d" stroke-width="1.4" /><rect x="498.37" y="212.10" width="6" height="30.82" rx="1.5" fill="#f6465d" /><line x1="512.10" y1="228.76" x2="512.10" y2="262.08" stroke="#0ecb81" stroke-width="1.4" /><rect x="509.10" y="235.42" width="6" height="7.50" rx="1.5" fill="#0ecb81" /><line x1="522.84" y1="232.09" x2="522.84" y2="261.25" stroke="#f6465d" stroke-width="1.4" /><rect x="519.84" y="235.42" width="6" height="10.00" rx="1.5" fill="#f6465d" /><line x1="533.57" y1="237.92" x2="533.57" y2="274.58" stroke="#f6465d" stroke-width="1.4" /><rect x="530.57" y="246.25" width="6" height="14.16" rx="1.5" fill="#f6465d" /><line x1="544.30" y1="253.75" x2="544.30" y2="285.40" stroke="#f6465d" stroke-width="1.4" /><rect x="541.30" y="259.58" width="6" height="14.99" rx="1.5" fill="#f6465d" /><line x1="555.04" y1="273.74" x2="555.04" y2="287.90" stroke="#f6465d" stroke-width="1.4" /><rect x="552.04" y="274.58" width="6" height="5.83" rx="1.5" fill="#f6465d" /><line x1="565.77" y1="230.43" x2="565.77" y2="287.07" stroke="#0ecb81" stroke-width="1.4" /><rect x="562.77" y="257.08" width="6" height="23.32" rx="1.5" fill="#0ecb81" /><line x1="576.51" y1="232.93" x2="576.51" y2="278.74" stroke="#0ecb81" stroke-width="1.4" /><rect x="573.51" y="255.42" width="6" height="2.00" rx="1.5" fill="#0ecb81" /><line x1="587.24" y1="214.60" x2="587.24" y2="272.91" stroke="#0ecb81" stroke-width="1.4" /><rect x="584.24" y="214.60" width="6" height="40.82" rx="1.5" fill="#0ecb81" /><line x1="597.97" y1="210.44" x2="597.97" y2="252.08" stroke="#f6465d" stroke-width="1.4" /><rect x="594.97" y="215.43" width="6" height="29.99" rx="1.5" fill="#f6465d" /><line x1="608.71" y1="244.59" x2="608.71" y2="307.06" stroke="#f6465d" stroke-width="1.4" /><rect x="605.71" y="244.59" width="6" height="53.31" rx="1.5" fill="#f6465d" /><line x1="619.44" y1="294.57" x2="619.44" y2="320.39" stroke="#f6465d" stroke-width="1.4" /><rect x="616.44" y="297.07" width="6" height="5.00" rx="1.5" fill="#f6465d" /><line x1="630.18" y1="266.25" x2="630.18" y2="303.73" stroke="#0ecb81" stroke-width="1.4" /><rect x="627.18" y="280.41" width="6" height="20.82" rx="1.5" fill="#0ecb81" /><line x1="640.91" y1="268.74" x2="640.91" y2="295.40" stroke="#0ecb81" stroke-width="1.4" /><rect x="637.91" y="272.08" width="6" height="7.50" rx="1.5" fill="#0ecb81" /><line x1="651.65" y1="257.92" x2="651.65" y2="284.57" stroke="#f6465d" stroke-width="1.4" /><rect x="648.65" y="272.08" width="6" height="11.66" rx="1.5" fill="#f6465d" /><line x1="662.38" y1="267.08" x2="662.38" y2="299.56" stroke="#f6465d" stroke-width="1.4" /><rect x="659.38" y="283.74" width="6" height="10.83" rx="1.5" fill="#f6465d" /><line x1="673.11" y1="266.25" x2="673.11" y2="329.55" stroke="#0ecb81" stroke-width="1.4" /><rect x="670.11" y="268.74" width="6" height="25.82" rx="1.5" fill="#0ecb81" /><line x1="683.85" y1="217.10" x2="683.85" y2="272.91" stroke="#0ecb81" stroke-width="1.4" /><rect x="680.85" y="247.09" width="6" height="21.66" rx="1.5" fill="#0ecb81" /><line x1="694.58" y1="228.76" x2="694.58" y2="280.41" stroke="#f6465d" stroke-width="1.4" /><rect x="691.58" y="247.92" width="6" height="29.99" rx="1.5" fill="#f6465d" /><line x1="705.32" y1="196.27" x2="705.32" y2="288.74" stroke="#0ecb81" stroke-width="1.4" /><rect x="702.32" y="220.43" width="6" height="57.48" rx="1.5" fill="#0ecb81" /><line x1="716.05" y1="203.77" x2="716.05" y2="242.92" stroke="#f6465d" stroke-width="1.4" /><rect x="713.05" y="220.43" width="6" height="19.16" rx="1.5" fill="#f6465d" /><line x1="726.78" y1="175.45" x2="726.78" y2="247.09" stroke="#0ecb81" stroke-width="1.4" /><rect x="723.78" y="233.76" width="6" height="5.83" rx="1.5" fill="#0ecb81" /><line x1="737.52" y1="228.76" x2="737.52" y2="254.58" stroke="#f6465d" stroke-width="1.4" /><rect x="734.52" y="233.76" width="6" height="18.33" rx="1.5" fill="#f6465d" /><line x1="748.25" y1="242.09" x2="748.25" y2="267.08" stroke="#0ecb81" stroke-width="1.4" /><rect x="745.25" y="252.08" width="6" height="2.00" rx="1.5" fill="#0ecb81" /><line x1="758.99" y1="233.76" x2="758.99" y2="262.08" stroke="#f6465d" stroke-width="1.4" /><rect x="755.99" y="252.08" width="6" height="7.50" rx="1.5" fill="#f6465d" /><line x1="769.72" y1="257.92" x2="769.72" y2="282.07" stroke="#f6465d" stroke-width="1.4" /><rect x="766.72" y="258.75" width="6" height="4.16" rx="1.5" fill="#f6465d" /><line x1="780.46" y1="257.08" x2="780.46" y2="297.07" stroke="#f6465d" stroke-width="1.4" /><rect x="777.46" y="262.08" width="6" height="22.49" rx="1.5" fill="#f6465d" /><line x1="791.19" y1="280.41" x2="791.19" y2="304.56" stroke="#f6465d" stroke-width="1.4" /><rect x="788.19" y="283.74" width="6" height="19.99" rx="1.5" fill="#f6465d" /><line x1="801.92" y1="299.56" x2="801.92" y2="326.22" stroke="#f6465d" stroke-width="1.4" /><rect x="798.92" y="304.56" width="6" height="2.00" rx="1.5" fill="#f6465d" /><line x1="812.66" y1="301.23" x2="812.66" y2="317.06" stroke="#f6465d" stroke-width="1.4" /><rect x="809.66" y="306.23" width="6" height="2.50" rx="1.5" fill="#f6465d" /><line x1="823.39" y1="308.73" x2="823.39" y2="328.72" stroke="#f6465d" stroke-width="1.4" /><rect x="820.39" y="308.73" width="6" height="18.33" rx="1.5" fill="#f6465d" /><line x1="834.13" y1="320.39" x2="834.13" y2="371.20" stroke="#f6465d" stroke-width="1.4" /><rect x="831.13" y="327.05" width="6" height="32.49" rx="1.5" fill="#f6465d" /><line x1="844.86" y1="357.87" x2="844.86" y2="420.35" stroke="#f6465d" stroke-width="1.4" /><rect x="841.86" y="358.71" width="6" height="29.99" rx="1.5" fill="#f6465d" /><line x1="855.59" y1="380.36" x2="855.59" y2="422.85" stroke="#f6465d" stroke-width="1.4" /><rect x="852.59" y="388.69" width="6" height="24.99" rx="1.5" fill="#f6465d" /><line x1="866.33" y1="387.03" x2="866.33" y2="421.18" stroke="#0ecb81" stroke-width="1.4" /><rect x="863.33" y="391.19" width="6" height="21.66" rx="1.5" fill="#0ecb81" /><line x1="877.06" y1="370.37" x2="877.06" y2="391.19" stroke="#0ecb81" stroke-width="1.4" /><rect x="874.06" y="376.20" width="6" height="14.16" rx="1.5" fill="#0ecb81" /><line x1="887.80" y1="350.38" x2="887.80" y2="394.52" stroke="#f6465d" stroke-width="1.4" /><rect x="884.80" y="376.20" width="6" height="18.33" rx="1.5" fill="#f6465d" /><line x1="898.53" y1="382.03" x2="898.53" y2="405.35" stroke="#0ecb81" stroke-width="1.4" /><rect x="895.53" y="388.69" width="6" height="6.66" rx="1.5" fill="#0ecb81" /><line x1="909.27" y1="387.86" x2="909.27" y2="452.00" stroke="#f6465d" stroke-width="1.4" /><rect x="906.27" y="389.53" width="6" height="34.99" rx="1.5" fill="#f6465d" /><line x1="920.00" y1="424.51" x2="920.00" y2="428.68" stroke="#f6465d" stroke-width="1.4" /><rect x="917.00" y="424.51" width="6" height="3.33" rx="1.5" fill="#f6465d" />
  <polyline points="72.00,177.95 147.14,422.85 222.28,184.61 243.75,305.40 394.03,58.00" fill="none" stroke="#2fc273" stroke-width="4" stroke-linecap="round" stroke-linejoin="round" />
  <circle cx="72.00" cy="177.95" r="5.5" fill="#2fc273" fill-opacity="0.15" stroke="#2fc273" stroke-width="2" /><text x="72.00" y="165.95" fill="#f3f4f6" font-size="15" font-weight="700" text-anchor="middle">X</text><circle cx="147.14" cy="422.85" r="5.5" fill="#2fc273" fill-opacity="0.15" stroke="#2fc273" stroke-width="2" /><text x="147.14" y="410.85" fill="#f3f4f6" font-size="15" font-weight="700" text-anchor="middle">A</text><circle cx="222.28" cy="184.61" r="5.5" fill="#2fc273" fill-opacity="0.15" stroke="#2fc273" stroke-width="2" /><text x="222.28" y="172.61" fill="#f3f4f6" font-size="15" font-weight="700" text-anchor="middle">B</text><circle cx="243.75" cy="305.40" r="5.5" fill="#2fc273" fill-opacity="0.15" stroke="#2fc273" stroke-width="2" /><text x="243.75" y="293.40" fill="#f3f4f6" font-size="15" font-weight="700" text-anchor="middle">C</text><circle cx="394.03" cy="58.00" r="5.5" fill="#2fc273" fill-opacity="0.15" stroke="#2fc273" stroke-width="2" /><text x="394.03" y="46.00" fill="#f3f4f6" font-size="15" font-weight="700" text-anchor="middle">D</text>
  <text x="56" y="492" fill="#8ba0b5" font-size="18">일반 완성 · TP1 0.006374 · TP2 0.006303 · SL 0.006525</text>
</svg>
