<svg xmlns="http://www.w3.org/2000/svg" width="960" height="540" viewBox="0 0 960 540">
  <rect width="960" height="540" rx="24" fill="#0b1220" />
  <rect x="28" y="28" width="904" height="484" rx="22" fill="#111827" stroke="#1f2937" />
  <text x="56" y="74" fill="#f3f4f6" font-size="34" font-weight="700">PENGUUSDT · AB=CD</text>
  <text x="904" y="74" fill="#8ba0b5" font-size="20" text-anchor="end">Bullish (매수) · Score 77.9</text>
  <line x1="72" y1="58" x2="920" y2="58" stroke="#223045" stroke-width="1" stroke-dasharray="4 8" /><line x1="72" y1="156" x2="920" y2="156" stroke="#223045" stroke-width="1" stroke-dasharray="4 8" /><line x1="72" y1="255" x2="920" y2="255" stroke="#223045" stroke-width="1" stroke-dasharray="4 8" /><line x1="72" y1="353" x2="920" y2="353" stroke="#223045" stroke-width="1" stroke-dasharray="4 8" /><line x1="72" y1="452" x2="920" y2="452" stroke="#223045" stroke-width="1" stroke-dasharray="4 8" />
  <rect x="602.18" y="331.21" width="84" height="129.01" fill="#fbbf24" fill-opacity="0.12" stroke="#fbbf24" stroke-width="1.5" stroke-dasharray="6 6" />
  <line x1="72.00" y1="259.11" x2="72.00" y2="300.85" stroke="#0ecb81" stroke-width="1.4" /><rect x="69.00" y="276.82" width="6" height="17.08" rx="1.5" fill="#0ecb81" /><line x1="82.73" y1="241.40" x2="82.73" y2="287.57" stroke="#0ecb81" stroke-width="1.4" /><rect x="79.73" y="251.52" width="6" height="25.93" rx="1.5" fill="#0ecb81" /><line x1="93.47" y1="203.46" x2="93.47" y2="264.17" stroke="#0ecb81" stroke-width="1.4" /><rect x="90.47" y="224.96" width="6" height="25.93" rx="1.5" fill="#0ecb81" /><line x1="104.20" y1="183.22" x2="104.20" y2="240.14" stroke="#0ecb81" stroke-width="1.4" /><rect x="101.20" y="196.50" width="6" height="28.46" rx="1.5" fill="#0ecb81" /><line x1="114.94" y1="169.31" x2="114.94" y2="210.41" stroke="#f6465d" stroke-width="1.4" /><rect x="111.94" y="196.50" width="6" height="8.22" rx="1.5" fill="#f6465d" /><line x1="125.67" y1="166.78" x2="125.67" y2="208.52" stroke="#0ecb81" stroke-width="1.4" /><rect x="122.67" y="195.87" width="6" height="8.22" rx="1.5" fill="#0ecb81" /><line x1="136.41" y1="169.31" x2="136.41" y2="203.46" stroke="#0ecb81" stroke-width="1.4" /><rect x="133.41" y="171.84" width="6" height="24.03" rx="1.5" fill="#0ecb81" /><line x1="147.14" y1="159.19" x2="147.14" y2="210.41" stroke="#f6465d" stroke-width="1.4" /><rect x="144.14" y="171.84" width="6" height="13.28" rx="1.5" fill="#f6465d" /><line x1="157.87" y1="180.69" x2="157.87" y2="205.99" stroke="#f6465d" stroke-width="1.4" /><rect x="154.87" y="185.12" width="6" height="8.22" rx="1.5" fill="#f6465d" /><line x1="168.61" y1="151.60" x2="168.61" y2="233.18" stroke="#f6465d" stroke-width="1.4" /><rect x="165.61" y="193.97" width="6" height="24.66" rx="1.5" fill="#f6465d" /><line x1="179.34" y1="208.52" x2="179.34" y2="233.81" stroke="#0ecb81" stroke-width="1.4" /><rect x="176.34" y="212.94" width="6" height="6.96" rx="1.5" fill="#0ecb81" /><line x1="190.08" y1="193.97" x2="190.08" y2="236.34" stroke="#f6465d" stroke-width="1.4" /><rect x="187.08" y="213.58" width="6" height="2.53" rx="1.5" fill="#f6465d" /><line x1="200.81" y1="212.94" x2="200.81" y2="262.91" stroke="#f6465d" stroke-width="1.4" /><rect x="197.81" y="216.74" width="6" height="39.21" rx="1.5" fill="#f6465d" /><line x1="211.54" y1="226.22" x2="211.54" y2="261.64" stroke="#0ecb81" stroke-width="1.4" /><rect x="208.54" y="229.39" width="6" height="27.19" rx="1.5" fill="#0ecb81" /><line x1="222.28" y1="216.74" x2="222.28" y2="253.42" stroke="#f6465d" stroke-width="1.4" /><rect x="219.28" y="229.39" width="6" height="10.75" rx="1.5" fill="#f6465d" /><line x1="233.01" y1="216.11" x2="233.01" y2="255.32" stroke="#f6465d" stroke-width="1.4" /><rect x="230.01" y="240.77" width="6" height="12.02" rx="1.5" fill="#f6465d" /><line x1="243.75" y1="250.89" x2="243.75" y2="286.30" stroke="#f6465d" stroke-width="1.4" /><rect x="240.75" y="252.15" width="6" height="8.85" rx="1.5" fill="#f6465d" /><line x1="254.48" y1="253.42" x2="254.48" y2="289.47" stroke="#f6465d" stroke-width="1.4" /><rect x="251.48" y="261.01" width="6" height="8.22" rx="1.5" fill="#f6465d" /><line x1="265.22" y1="250.89" x2="265.22" y2="274.92" stroke="#f6465d" stroke-width="1.4" /><rect x="262.22" y="268.60" width="6" height="2.00" rx="1.5" fill="#f6465d" /><line x1="275.95" y1="260.38" x2="275.95" y2="300.85" stroke="#f6465d" stroke-width="1.4" /><rect x="272.95" y="268.60" width="6" height="23.40" rx="1.5" fill="#f6465d" /><line x1="286.68" y1="281.25" x2="286.68" y2="306.54" stroke="#0ecb81" stroke-width="1.4" /><rect x="283.68" y="286.30" width="6" height="5.69" rx="1.5" fill="#0ecb81" /><line x1="297.42" y1="283.78" x2="297.42" y2="305.91" stroke="#f6465d" stroke-width="1.4" /><rect x="294.42" y="286.30" width="6" height="7.59" rx="1.5" fill="#f6465d" /><line x1="308.15" y1="288.20" x2="308.15" y2="316.03" stroke="#f6465d" stroke-width="1.4" /><rect x="305.15" y="294.53" width="6" height="10.75" rx="1.5" fill="#f6465d" /><line x1="318.89" y1="300.22" x2="318.89" y2="324.25" stroke="#f6465d" stroke-width="1.4" /><rect x="315.89" y="304.65" width="6" height="11.38" rx="1.5" fill="#f6465d" /><line x1="329.62" y1="315.40" x2="329.62" y2="326.15" stroke="#f6465d" stroke-width="1.4" /><rect x="326.62" y="316.03" width="6" height="4.43" rx="1.5" fill="#f6465d" /><line x1="340.35" y1="282.51" x2="340.35" y2="325.52" stroke="#0ecb81" stroke-width="1.4" /><rect x="337.35" y="302.75" width="6" height="17.71" rx="1.5" fill="#0ecb81" /><line x1="351.09" y1="284.41" x2="351.09" y2="319.19" stroke="#0ecb81" stroke-width="1.4" /><rect x="348.09" y="301.48" width="6" height="2.00" rx="1.5" fill="#0ecb81" /><line x1="361.82" y1="270.49" x2="361.82" y2="314.76" stroke="#0ecb81" stroke-width="1.4" /><rect x="358.82" y="270.49" width="6" height="30.99" rx="1.5" fill="#0ecb81" /><line x1="372.56" y1="267.33" x2="372.56" y2="298.95" stroke="#f6465d" stroke-width="1.4" /><rect x="369.56" y="271.13" width="6" height="22.77" rx="1.5" fill="#f6465d" /><line x1="383.29" y1="293.26" x2="383.29" y2="340.69" stroke="#f6465d" stroke-width="1.4" /><rect x="380.29" y="293.26" width="6" height="40.48" rx="1.5" fill="#f6465d" /><line x1="394.03" y1="331.21" x2="394.03" y2="350.81" stroke="#f6465d" stroke-width="1.4" /><rect x="391.03" y="333.10" width="6" height="3.79" rx="1.5" fill="#f6465d" /><line x1="404.76" y1="309.70" x2="404.76" y2="338.16" stroke="#0ecb81" stroke-width="1.4" /><rect x="401.76" y="320.46" width="6" height="15.81" rx="1.5" fill="#0ecb81" /><line x1="415.49" y1="311.60" x2="415.49" y2="331.84" stroke="#0ecb81" stroke-width="1.4" /><rect x="412.49" y="314.13" width="6" height="5.69" rx="1.5" fill="#0ecb81" /><line x1="426.23" y1="303.38" x2="426.23" y2="323.62" stroke="#f6465d" stroke-width="1.4" /><rect x="423.23" y="314.13" width="6" height="8.85" rx="1.5" fill="#f6465d" /><line x1="436.96" y1="310.34" x2="436.96" y2="335.00" stroke="#f6465d" stroke-width="1.4" /><rect x="433.96" y="322.99" width="6" height="8.22" rx="1.5" fill="#f6465d" /><line x1="447.70" y1="309.70" x2="447.70" y2="357.77" stroke="#0ecb81" stroke-width="1.4" /><rect x="444.70" y="311.60" width="6" height="19.61" rx="1.5" fill="#0ecb81" /><line x1="458.43" y1="272.39" x2="458.43" y2="314.76" stroke="#0ecb81" stroke-width="1.4" /><rect x="455.43" y="295.16" width="6" height="16.44" rx="1.5" fill="#0ecb81" /><line x1="469.16" y1="281.25" x2="469.16" y2="320.46" stroke="#f6465d" stroke-width="1.4" /><rect x="466.16" y="295.79" width="6" height="22.77" rx="1.5" fill="#f6465d" /><line x1="479.90" y1="256.58" x2="479.90" y2="326.78" stroke="#0ecb81" stroke-width="1.4" /><rect x="476.90" y="274.92" width="6" height="43.64" rx="1.5" fill="#0ecb81" /><line x1="490.63" y1="262.27" x2="490.63" y2="292.00" stroke="#f6465d" stroke-width="1.4" /><rect x="487.63" y="274.92" width="6" height="14.55" rx="1.5" fill="#f6465d" /><line x1="501.37" y1="240.77" x2="501.37" y2="295.16" stroke="#0ecb81" stroke-width="1.4" /><rect x="498.37" y="285.04" width="6" height="4.43" rx="1.5" fill="#0ecb81" /><line x1="512.10" y1="281.25" x2="512.10" y2="300.85" stroke="#f6465d" stroke-width="1.4" /><rect x="509.10" y="285.04" width="6" height="13.91" rx="1.5" fill="#f6465d" /><line x1="522.84" y1="291.36" x2="522.84" y2="310.34" stroke="#0ecb81" stroke-width="1.4" /><rect x="519.84" y="298.95" width="6" height="2.00" rx="1.5" fill="#0ecb81" /><line x1="533.57" y1="285.04" x2="533.57" y2="306.54" stroke="#f6465d" stroke-width="1.4" /><rect x="530.57" y="298.95" width="6" height="5.69" rx="1.5" fill="#f6465d" /><line x1="544.30" y1="303.38" x2="544.30" y2="321.72" stroke="#f6465d" stroke-width="1.4" /><rect x="541.30" y="304.01" width="6" height="3.16" rx="1.5" fill="#f6465d" /><line x1="555.04" y1="302.75" x2="555.04" y2="333.10" stroke="#f6465d" stroke-width="1.4" /><rect x="552.04" y="306.54" width="6" height="17.08" rx="1.5" fill="#f6465d" /><line x1="565.77" y1="320.46" x2="565.77" y2="338.80" stroke="#f6465d" stroke-width="1.4" /><rect x="562.77" y="322.99" width="6" height="15.18" rx="1.5" fill="#f6465d" /><line x1="576.51" y1="335.00" x2="576.51" y2="355.24" stroke="#f6465d" stroke-width="1.4" /><rect x="573.51" y="338.80" width="6" height="2.00" rx="1.5" fill="#f6465d" /><line x1="587.24" y1="336.27" x2="587.24" y2="348.28" stroke="#f6465d" stroke-width="1.4" /><rect x="584.24" y="340.06" width="6" height="2.00" rx="1.5" fill="#f6465d" /><line x1="597.97" y1="341.96" x2="597.97" y2="357.14" stroke="#f6465d" stroke-width="1.4" /><rect x="594.97" y="341.96" width="6" height="13.91" rx="1.5" fill="#f6465d" /><line x1="608.71" y1="350.81" x2="608.71" y2="389.39" stroke="#f6465d" stroke-width="1.4" /><rect x="605.71" y="355.87" width="6" height="24.66" rx="1.5" fill="#f6465d" /><line x1="619.44" y1="379.27" x2="619.44" y2="426.70" stroke="#f6465d" stroke-width="1.4" /><rect x="616.44" y="379.90" width="6" height="22.77" rx="1.5" fill="#f6465d" /><line x1="630.18" y1="396.35" x2="630.18" y2="428.60" stroke="#f6465d" stroke-width="1.4" /><rect x="627.18" y="402.67" width="6" height="18.97" rx="1.5" fill="#f6465d" /><line x1="640.91" y1="401.41" x2="640.91" y2="427.34" stroke="#0ecb81" stroke-width="1.4" /><rect x="637.91" y="404.57" width="6" height="16.44" rx="1.5" fill="#0ecb81" /><line x1="651.65" y1="388.76" x2="651.65" y2="404.57" stroke="#0ecb81" stroke-width="1.4" /><rect x="648.65" y="393.18" width="6" height="10.75" rx="1.5" fill="#0ecb81" /><line x1="662.38" y1="373.58" x2="662.38" y2="407.10" stroke="#f6465d" stroke-width="1.4" /><rect x="659.38" y="393.18" width="6" height="13.91" rx="1.5" fill="#f6465d" /><line x1="673.11" y1="397.61" x2="673.11" y2="415.32" stroke="#0ecb81" stroke-width="1.4" /><rect x="670.11" y="402.67" width="6" height="5.06" rx="1.5" fill="#0ecb81" /><line x1="683.85" y1="402.04" x2="683.85" y2="450.74" stroke="#f6465d" stroke-width="1.4" /><rect x="680.85" y="403.30" width="6" height="26.56" rx="1.5" fill="#f6465d" /><line x1="694.58" y1="406.47" x2="694.58" y2="452.00" stroke="#0ecb81" stroke-width="1.4" /><rect x="691.58" y="406.47" width="6" height="23.40" rx="1.5" fill="#0ecb81" /><line x1="705.32" y1="395.08" x2="705.32" y2="422.91" stroke="#f6465d" stroke-width="1.4" /><rect x="702.32" y="406.47" width="6" height="5.06" rx="1.5" fill="#f6465d" /><line x1="716.05" y1="347.02" x2="716.05" y2="433.03" stroke="#0ecb81" stroke-width="1.4" /><rect x="713.05" y="394.45" width="6" height="16.44" rx="1.5" fill="#0ecb81" /><line x1="726.78" y1="380.54" x2="726.78" y2="414.05" stroke="#f6465d" stroke-width="1.4" /><rect x="723.78" y="394.45" width="6" height="17.08" rx="1.5" fill="#f6465d" /><line x1="737.52" y1="392.55" x2="737.52" y2="427.34" stroke="#0ecb81" stroke-width="1.4" /><rect x="734.52" y="402.04" width="6" height="9.49" rx="1.5" fill="#0ecb81" /><line x1="748.25" y1="393.82" x2="748.25" y2="416.58" stroke="#f6465d" stroke-width="1.4" /><rect x="745.25" y="402.04" width="6" height="2.53" rx="1.5" fill="#f6465d" /><line x1="758.99" y1="394.45" x2="758.99" y2="427.97" stroke="#f6465d" stroke-width="1.4" /><rect x="755.99" y="404.57" width="6" height="7.59" rx="1.5" fill="#f6465d" /><line x1="769.72" y1="397.61" x2="769.72" y2="419.75" stroke="#0ecb81" stroke-width="1.4" /><rect x="766.72" y="407.10" width="6" height="4.43" rx="1.5" fill="#0ecb81" /><line x1="780.46" y1="403.30" x2="780.46" y2="434.29" stroke="#f6465d" stroke-width="1.4" /><rect x="777.46" y="407.73" width="6" height="5.69" rx="1.5" fill="#f6465d" /><line x1="791.19" y1="347.65" x2="791.19" y2="427.97" stroke="#0ecb81" stroke-width="1.4" /><rect x="788.19" y="350.18" width="6" height="63.24" rx="1.5" fill="#0ecb81" /><line x1="801.92" y1="263.54" x2="801.92" y2="357.77" stroke="#0ecb81" stroke-width="1.4" /><rect x="798.92" y="264.17" width="6" height="85.38" rx="1.5" fill="#0ecb81" /><line x1="812.66" y1="175.00" x2="812.66" y2="263.54" stroke="#0ecb81" stroke-width="1.4" /><rect x="809.66" y="215.47" width="6" height="48.06" rx="1.5" fill="#0ecb81" /><line x1="823.39" y1="202.83" x2="823.39" y2="248.36" stroke="#f6465d" stroke-width="1.4" /><rect x="820.39" y="216.11" width="6" height="6.96" rx="1.5" fill="#f6465d" /><line x1="834.13" y1="126.30" x2="834.13" y2="224.96" stroke="#0ecb81" stroke-width="1.4" /><rect x="831.13" y="164.25" width="6" height="58.82" rx="1.5" fill="#0ecb81" /><line x1="844.86" y1="148.44" x2="844.86" y2="219.27" stroke="#f6465d" stroke-width="1.4" /><rect x="841.86" y="164.88" width="6" height="43.64" rx="1.5" fill="#f6465d" /><line x1="855.59" y1="157.92" x2="855.59" y2="210.41" stroke="#0ecb81" stroke-width="1.4" /><rect x="852.59" y="191.44" width="6" height="17.08" rx="1.5" fill="#0ecb81" /><line x1="866.33" y1="183.22" x2="866.33" y2="213.58" stroke="#f6465d" stroke-width="1.4" /><rect x="863.33" y="192.07" width="6" height="18.97" rx="1.5" fill="#f6465d" /><line x1="877.06" y1="195.24" x2="877.06" y2="246.46" stroke="#f6465d" stroke-width="1.4" /><rect x="874.06" y="211.05" width="6" height="4.43" rx="1.5" fill="#f6465d" /><line x1="887.80" y1="203.46" x2="887.80" y2="238.87" stroke="#f6465d" stroke-width="1.4" /><rect x="884.80" y="215.47" width="6" height="2.00" rx="1.5" fill="#f6465d" /><line x1="898.53" y1="166.78" x2="898.53" y2="218.00" stroke="#0ecb81" stroke-width="1.4" /><rect x="895.53" y="193.97" width="6" height="22.13" rx="1.5" fill="#0ecb81" /><line x1="909.27" y1="122.51" x2="909.27" y2="194.60" stroke="#0ecb81" stroke-width="1.4" /><rect x="906.27" y="135.16" width="6" height="59.45" rx="1.5" fill="#0ecb81" /><line x1="920.00" y1="58.00" x2="920.00" y2="135.16" stroke="#0ecb81" stroke-width="1.4" /><rect x="917.00" y="76.97" width="6" height="58.18" rx="1.5" fill="#0ecb81" />
  <polyline points="329.62,326.15 372.56,267.33 447.70,357.77 501.37,240.77 630.18,428.60" fill="none" stroke="#2fc273" stroke-width="4" stroke-linecap="round" stroke-linejoin="round" />
  <circle cx="329.62" cy="326.15" r="5.5" fill="#2fc273" fill-opacity="0.15" stroke="#2fc273" stroke-width="2" /><text x="329.62" y="314.15" fill="#f3f4f6" font-size="15" font-weight="700" text-anchor="middle">X</text><circle cx="372.56" cy="267.33" r="5.5" fill="#2fc273" fill-opacity="0.15" stroke="#2fc273" stroke-width="2" /><text x="372.56" y="255.33" fill="#f3f4f6" font-size="15" font-weight="700" text-anchor="middle">A</text><circle cx="447.70" cy="357.77" r="5.5" fill="#2fc273" fill-opacity="0.15" stroke="#2fc273" stroke-width="2" /><text x="447.70" y="345.77" fill="#f3f4f6" font-size="15" font-weight="700" text-anchor="middle">B</text><circle cx="501.37" cy="240.77" r="5.5" fill="#2fc273" fill-opacity="0.15" stroke="#2fc273" stroke-width="2" /><text x="501.37" y="228.77" fill="#f3f4f6" font-size="15" font-weight="700" text-anchor="middle">C</text><circle cx="630.18" cy="428.60" r="5.5" fill="#2fc273" fill-opacity="0.15" stroke="#2fc273" stroke-width="2" /><text x="630.18" y="416.60" fill="#f3f4f6" font-size="15" font-weight="700" text-anchor="middle">D</text>
  <text x="56" y="492" fill="#8ba0b5" font-size="18">일반 완성 · TP1 0.006162 · TP2 0.006233 · SL 0.006037</text>
</svg>
