<svg xmlns="http://www.w3.org/2000/svg" width="960" height="540" viewBox="0 0 960 540">
  <rect width="960" height="540" rx="24" fill="#0b1220" />
  <rect x="28" y="28" width="904" height="484" rx="22" fill="#111827" stroke="#1f2937" />
  <text x="56" y="74" fill="#f3f4f6" font-size="34" font-weight="700">PENGUUSDT · AB=CD</text>
  <text x="904" y="74" fill="#8ba0b5" font-size="20" text-anchor="end">Bullish (매수) · Score 80.2</text>
  <line x1="72" y1="58" x2="920" y2="58" stroke="#223045" stroke-width="1" stroke-dasharray="4 8" /><line x1="72" y1="156" x2="920" y2="156" stroke="#223045" stroke-width="1" stroke-dasharray="4 8" /><line x1="72" y1="255" x2="920" y2="255" stroke="#223045" stroke-width="1" stroke-dasharray="4 8" /><line x1="72" y1="353" x2="920" y2="353" stroke="#223045" stroke-width="1" stroke-dasharray="4 8" /><line x1="72" y1="452" x2="920" y2="452" stroke="#223045" stroke-width="1" stroke-dasharray="4 8" />
  <rect x="494.84" y="361.72" width="84" height="78.03" fill="#fbbf24" fill-opacity="0.12" stroke="#fbbf24" stroke-width="1.5" stroke-dasharray="6 6" />
  <line x1="72.00" y1="204.89" x2="72.00" y2="269.92" stroke="#0ecb81" stroke-width="1.4" /><rect x="69.00" y="233.20" width="6" height="20.66" rx="1.5" fill="#0ecb81" /><line x1="82.73" y1="227.84" x2="82.73" y2="284.45" stroke="#f6465d" stroke-width="1.4" /><rect x="79.73" y="231.67" width="6" height="50.49" rx="1.5" fill="#f6465d" /><line x1="93.47" y1="271.45" x2="93.47" y2="315.82" stroke="#f6465d" stroke-width="1.4" /><rect x="90.47" y="282.16" width="6" height="12.24" rx="1.5" fill="#f6465d" /><line x1="104.20" y1="288.28" x2="104.20" y2="315.06" stroke="#0ecb81" stroke-width="1.4" /><rect x="101.20" y="295.17" width="6" height="2.00" rx="1.5" fill="#0ecb81" /><line x1="114.94" y1="285.22" x2="114.94" y2="308.94" stroke="#0ecb81" stroke-width="1.4" /><rect x="111.94" y="291.34" width="6" height="3.06" rx="1.5" fill="#0ecb81" /><line x1="125.67" y1="272.21" x2="125.67" y2="313.53" stroke="#0ecb81" stroke-width="1.4" /><rect x="122.67" y="290.57" width="6" height="2.00" rx="1.5" fill="#0ecb81" /><line x1="136.41" y1="249.26" x2="136.41" y2="300.52" stroke="#0ecb81" stroke-width="1.4" /><rect x="133.41" y="260.74" width="6" height="29.84" rx="1.5" fill="#0ecb81" /><line x1="147.14" y1="218.66" x2="147.14" y2="269.15" stroke="#0ecb81" stroke-width="1.4" /><rect x="144.14" y="240.08" width="6" height="20.66" rx="1.5" fill="#0ecb81" /><line x1="157.87" y1="197.24" x2="157.87" y2="253.09" stroke="#0ecb81" stroke-width="1.4" /><rect x="154.87" y="209.48" width="6" height="31.37" rx="1.5" fill="#0ecb81" /><line x1="168.61" y1="151.34" x2="168.61" y2="224.78" stroke="#0ecb81" stroke-width="1.4" /><rect x="165.61" y="177.35" width="6" height="31.37" rx="1.5" fill="#0ecb81" /><line x1="179.34" y1="126.85" x2="179.34" y2="195.71" stroke="#0ecb81" stroke-width="1.4" /><rect x="176.34" y="142.92" width="6" height="34.43" rx="1.5" fill="#0ecb81" /><line x1="190.08" y1="110.02" x2="190.08" y2="159.75" stroke="#f6465d" stroke-width="1.4" /><rect x="187.08" y="142.92" width="6" height="9.95" rx="1.5" fill="#f6465d" /><line x1="200.81" y1="106.96" x2="200.81" y2="157.46" stroke="#0ecb81" stroke-width="1.4" /><rect x="197.81" y="142.16" width="6" height="9.95" rx="1.5" fill="#0ecb81" /><line x1="211.54" y1="110.02" x2="211.54" y2="151.34" stroke="#0ecb81" stroke-width="1.4" /><rect x="208.54" y="113.08" width="6" height="29.07" rx="1.5" fill="#0ecb81" /><line x1="222.28" y1="97.78" x2="222.28" y2="159.75" stroke="#f6465d" stroke-width="1.4" /><rect x="219.28" y="113.08" width="6" height="16.07" rx="1.5" fill="#f6465d" /><line x1="233.01" y1="123.79" x2="233.01" y2="154.40" stroke="#f6465d" stroke-width="1.4" /><rect x="230.01" y="129.15" width="6" height="9.95" rx="1.5" fill="#f6465d" /><line x1="243.75" y1="88.60" x2="243.75" y2="187.29" stroke="#f6465d" stroke-width="1.4" /><rect x="240.75" y="139.86" width="6" height="29.84" rx="1.5" fill="#f6465d" /><line x1="254.48" y1="157.46" x2="254.48" y2="188.06" stroke="#0ecb81" stroke-width="1.4" /><rect x="251.48" y="162.81" width="6" height="8.42" rx="1.5" fill="#0ecb81" /><line x1="265.22" y1="139.86" x2="265.22" y2="191.12" stroke="#f6465d" stroke-width="1.4" /><rect x="262.22" y="163.58" width="6" height="3.06" rx="1.5" fill="#f6465d" /><line x1="275.95" y1="162.81" x2="275.95" y2="223.25" stroke="#f6465d" stroke-width="1.4" /><rect x="272.95" y="167.40" width="6" height="47.43" rx="1.5" fill="#f6465d" /><line x1="286.68" y1="178.88" x2="286.68" y2="221.72" stroke="#0ecb81" stroke-width="1.4" /><rect x="283.68" y="182.70" width="6" height="32.90" rx="1.5" fill="#0ecb81" /><line x1="297.42" y1="167.40" x2="297.42" y2="211.77" stroke="#f6465d" stroke-width="1.4" /><rect x="294.42" y="182.70" width="6" height="13.01" rx="1.5" fill="#f6465d" /><line x1="308.15" y1="166.64" x2="308.15" y2="214.07" stroke="#f6465d" stroke-width="1.4" /><rect x="305.15" y="196.47" width="6" height="14.54" rx="1.5" fill="#f6465d" /><line x1="318.89" y1="208.71" x2="318.89" y2="251.56" stroke="#f6465d" stroke-width="1.4" /><rect x="315.89" y="210.24" width="6" height="10.71" rx="1.5" fill="#f6465d" /><line x1="329.62" y1="211.77" x2="329.62" y2="255.38" stroke="#f6465d" stroke-width="1.4" /><rect x="326.62" y="220.96" width="6" height="9.95" rx="1.5" fill="#f6465d" /><line x1="340.35" y1="208.71" x2="340.35" y2="237.79" stroke="#f6465d" stroke-width="1.4" /><rect x="337.35" y="230.14" width="6" height="2.00" rx="1.5" fill="#f6465d" /><line x1="351.09" y1="220.19" x2="351.09" y2="269.15" stroke="#f6465d" stroke-width="1.4" /><rect x="348.09" y="230.14" width="6" height="28.31" rx="1.5" fill="#f6465d" /><line x1="361.82" y1="245.44" x2="361.82" y2="276.04" stroke="#0ecb81" stroke-width="1.4" /><rect x="358.82" y="251.56" width="6" height="6.89" rx="1.5" fill="#0ecb81" /><line x1="372.56" y1="248.50" x2="372.56" y2="275.27" stroke="#f6465d" stroke-width="1.4" /><rect x="369.56" y="251.56" width="6" height="9.18" rx="1.5" fill="#f6465d" /><line x1="383.29" y1="253.85" x2="383.29" y2="287.51" stroke="#f6465d" stroke-width="1.4" /><rect x="380.29" y="261.50" width="6" height="13.01" rx="1.5" fill="#f6465d" /><line x1="394.03" y1="268.39" x2="394.03" y2="297.46" stroke="#f6465d" stroke-width="1.4" /><rect x="391.03" y="273.74" width="6" height="13.77" rx="1.5" fill="#f6465d" /><line x1="404.76" y1="286.75" x2="404.76" y2="299.76" stroke="#f6465d" stroke-width="1.4" /><rect x="401.76" y="287.51" width="6" height="5.36" rx="1.5" fill="#f6465d" /><line x1="415.49" y1="246.97" x2="415.49" y2="298.99" stroke="#0ecb81" stroke-width="1.4" /><rect x="412.49" y="271.45" width="6" height="21.42" rx="1.5" fill="#0ecb81" /><line x1="426.23" y1="249.26" x2="426.23" y2="291.34" stroke="#0ecb81" stroke-width="1.4" /><rect x="423.23" y="269.92" width="6" height="2.00" rx="1.5" fill="#0ecb81" /><line x1="436.96" y1="232.43" x2="436.96" y2="285.98" stroke="#0ecb81" stroke-width="1.4" /><rect x="433.96" y="232.43" width="6" height="37.49" rx="1.5" fill="#0ecb81" /><line x1="447.70" y1="228.61" x2="447.70" y2="266.86" stroke="#f6465d" stroke-width="1.4" /><rect x="444.70" y="233.20" width="6" height="27.54" rx="1.5" fill="#f6465d" /><line x1="458.43" y1="259.97" x2="458.43" y2="317.35" stroke="#f6465d" stroke-width="1.4" /><rect x="455.43" y="259.97" width="6" height="48.96" rx="1.5" fill="#f6465d" /><line x1="469.16" y1="305.88" x2="469.16" y2="329.59" stroke="#f6465d" stroke-width="1.4" /><rect x="466.16" y="308.17" width="6" height="4.59" rx="1.5" fill="#f6465d" /><line x1="479.90" y1="279.86" x2="479.90" y2="314.29" stroke="#0ecb81" stroke-width="1.4" /><rect x="476.90" y="292.87" width="6" height="19.13" rx="1.5" fill="#0ecb81" /><line x1="490.63" y1="282.16" x2="490.63" y2="306.64" stroke="#0ecb81" stroke-width="1.4" /><rect x="487.63" y="285.22" width="6" height="6.89" rx="1.5" fill="#0ecb81" /><line x1="501.37" y1="272.21" x2="501.37" y2="296.70" stroke="#f6465d" stroke-width="1.4" /><rect x="498.37" y="285.22" width="6" height="10.71" rx="1.5" fill="#f6465d" /><line x1="512.10" y1="280.63" x2="512.10" y2="310.47" stroke="#f6465d" stroke-width="1.4" /><rect x="509.10" y="295.93" width="6" height="9.95" rx="1.5" fill="#f6465d" /><line x1="522.84" y1="279.86" x2="522.84" y2="338.01" stroke="#0ecb81" stroke-width="1.4" /><rect x="519.84" y="282.16" width="6" height="23.72" rx="1.5" fill="#0ecb81" /><line x1="533.57" y1="234.73" x2="533.57" y2="285.98" stroke="#0ecb81" stroke-width="1.4" /><rect x="530.57" y="262.27" width="6" height="19.89" rx="1.5" fill="#0ecb81" /><line x1="544.30" y1="245.44" x2="544.30" y2="292.87" stroke="#f6465d" stroke-width="1.4" /><rect x="541.30" y="263.03" width="6" height="27.54" rx="1.5" fill="#f6465d" /><line x1="555.04" y1="215.60" x2="555.04" y2="300.52" stroke="#0ecb81" stroke-width="1.4" /><rect x="552.04" y="237.79" width="6" height="52.79" rx="1.5" fill="#0ecb81" /><line x1="565.77" y1="222.49" x2="565.77" y2="258.44" stroke="#f6465d" stroke-width="1.4" /><rect x="562.77" y="237.79" width="6" height="17.60" rx="1.5" fill="#f6465d" /><line x1="576.51" y1="196.47" x2="576.51" y2="262.27" stroke="#0ecb81" stroke-width="1.4" /><rect x="573.51" y="250.03" width="6" height="5.36" rx="1.5" fill="#0ecb81" /><line x1="587.24" y1="245.44" x2="587.24" y2="269.15" stroke="#f6465d" stroke-width="1.4" /><rect x="584.24" y="250.03" width="6" height="16.83" rx="1.5" fill="#f6465d" /><line x1="597.97" y1="257.68" x2="597.97" y2="280.63" stroke="#0ecb81" stroke-width="1.4" /><rect x="594.97" y="266.86" width="6" height="2.00" rx="1.5" fill="#0ecb81" /><line x1="608.71" y1="250.03" x2="608.71" y2="276.04" stroke="#f6465d" stroke-width="1.4" /><rect x="605.71" y="266.86" width="6" height="6.89" rx="1.5" fill="#f6465d" /><line x1="619.44" y1="272.21" x2="619.44" y2="294.40" stroke="#f6465d" stroke-width="1.4" /><rect x="616.44" y="272.98" width="6" height="3.83" rx="1.5" fill="#f6465d" /><line x1="630.18" y1="271.45" x2="630.18" y2="308.17" stroke="#f6465d" stroke-width="1.4" /><rect x="627.18" y="276.04" width="6" height="20.66" rx="1.5" fill="#f6465d" /><line x1="640.91" y1="292.87" x2="640.91" y2="315.06" stroke="#f6465d" stroke-width="1.4" /><rect x="637.91" y="295.93" width="6" height="18.36" rx="1.5" fill="#f6465d" /><line x1="651.65" y1="310.47" x2="651.65" y2="334.95" stroke="#f6465d" stroke-width="1.4" /><rect x="648.65" y="315.06" width="6" height="2.00" rx="1.5" fill="#f6465d" /><line x1="662.38" y1="312.00" x2="662.38" y2="326.53" stroke="#f6465d" stroke-width="1.4" /><rect x="659.38" y="316.59" width="6" height="2.30" rx="1.5" fill="#f6465d" /><line x1="673.11" y1="318.88" x2="673.11" y2="337.24" stroke="#f6465d" stroke-width="1.4" /><rect x="670.11" y="318.88" width="6" height="16.83" rx="1.5" fill="#f6465d" /><line x1="683.85" y1="329.59" x2="683.85" y2="376.26" stroke="#f6465d" stroke-width="1.4" /><rect x="680.85" y="335.71" width="6" height="29.84" rx="1.5" fill="#f6465d" /><line x1="694.58" y1="364.02" x2="694.58" y2="421.40" stroke="#f6465d" stroke-width="1.4" /><rect x="691.58" y="364.78" width="6" height="27.54" rx="1.5" fill="#f6465d" /><line x1="705.32" y1="384.68" x2="705.32" y2="423.69" stroke="#f6465d" stroke-width="1.4" /><rect x="702.32" y="392.33" width="6" height="22.95" rx="1.5" fill="#f6465d" /><line x1="716.05" y1="390.80" x2="716.05" y2="422.16" stroke="#0ecb81" stroke-width="1.4" /><rect x="713.05" y="394.62" width="6" height="19.89" rx="1.5" fill="#0ecb81" /><line x1="726.78" y1="375.50" x2="726.78" y2="394.62" stroke="#0ecb81" stroke-width="1.4" /><rect x="723.78" y="380.85" width="6" height="13.01" rx="1.5" fill="#0ecb81" /><line x1="737.52" y1="357.13" x2="737.52" y2="397.68" stroke="#f6465d" stroke-width="1.4" /><rect x="734.52" y="380.85" width="6" height="16.83" rx="1.5" fill="#f6465d" /><line x1="748.25" y1="386.21" x2="748.25" y2="407.63" stroke="#0ecb81" stroke-width="1.4" /><rect x="745.25" y="392.33" width="6" height="6.12" rx="1.5" fill="#0ecb81" /><line x1="758.99" y1="391.56" x2="758.99" y2="450.47" stroke="#f6465d" stroke-width="1.4" /><rect x="755.99" y="393.09" width="6" height="32.13" rx="1.5" fill="#f6465d" /><line x1="769.72" y1="396.92" x2="769.72" y2="452.00" stroke="#0ecb81" stroke-width="1.4" /><rect x="766.72" y="396.92" width="6" height="28.31" rx="1.5" fill="#0ecb81" /><line x1="780.46" y1="383.15" x2="780.46" y2="416.81" stroke="#f6465d" stroke-width="1.4" /><rect x="777.46" y="396.92" width="6" height="6.12" rx="1.5" fill="#f6465d" /><line x1="791.19" y1="325.00" x2="791.19" y2="429.05" stroke="#0ecb81" stroke-width="1.4" /><rect x="788.19" y="382.38" width="6" height="19.89" rx="1.5" fill="#0ecb81" /><line x1="801.92" y1="365.55" x2="801.92" y2="406.10" stroke="#f6465d" stroke-width="1.4" /><rect x="798.92" y="382.38" width="6" height="20.66" rx="1.5" fill="#f6465d" /><line x1="812.66" y1="380.09" x2="812.66" y2="422.16" stroke="#0ecb81" stroke-width="1.4" /><rect x="809.66" y="391.56" width="6" height="11.48" rx="1.5" fill="#0ecb81" /><line x1="823.39" y1="381.62" x2="823.39" y2="409.16" stroke="#f6465d" stroke-width="1.4" /><rect x="820.39" y="391.56" width="6" height="3.06" rx="1.5" fill="#f6465d" /><line x1="834.13" y1="382.38" x2="834.13" y2="422.93" stroke="#f6465d" stroke-width="1.4" /><rect x="831.13" y="394.62" width="6" height="9.18" rx="1.5" fill="#f6465d" /><line x1="844.86" y1="386.21" x2="844.86" y2="412.98" stroke="#0ecb81" stroke-width="1.4" /><rect x="841.86" y="397.68" width="6" height="5.36" rx="1.5" fill="#0ecb81" /><line x1="855.59" y1="393.09" x2="855.59" y2="430.58" stroke="#f6465d" stroke-width="1.4" /><rect x="852.59" y="398.45" width="6" height="6.89" rx="1.5" fill="#f6465d" /><line x1="866.33" y1="325.77" x2="866.33" y2="422.93" stroke="#0ecb81" stroke-width="1.4" /><rect x="863.33" y="328.83" width="6" height="76.50" rx="1.5" fill="#0ecb81" /><line x1="877.06" y1="224.02" x2="877.06" y2="338.01" stroke="#0ecb81" stroke-width="1.4" /><rect x="874.06" y="224.78" width="6" height="103.28" rx="1.5" fill="#0ecb81" /><line x1="887.80" y1="116.91" x2="887.80" y2="224.02" stroke="#0ecb81" stroke-width="1.4" /><rect x="884.80" y="165.87" width="6" height="58.14" rx="1.5" fill="#0ecb81" /><line x1="898.53" y1="150.57" x2="898.53" y2="205.65" stroke="#f6465d" stroke-width="1.4" /><rect x="895.53" y="166.64" width="6" height="8.42" rx="1.5" fill="#f6465d" /><line x1="909.27" y1="58.00" x2="909.27" y2="177.35" stroke="#0ecb81" stroke-width="1.4" /><rect x="906.27" y="103.90" width="6" height="71.15" rx="1.5" fill="#0ecb81" /><line x1="920.00" y1="84.78" x2="920.00" y2="170.46" stroke="#f6465d" stroke-width="1.4" /><rect x="917.00" y="104.67" width="6" height="51.26" rx="1.5" fill="#f6465d" />
  <polyline points="93.47,315.82 243.75,88.60 404.76,299.76 447.70,228.61 522.84,338.01" fill="none" stroke="#2fc273" stroke-width="4" stroke-linecap="round" stroke-linejoin="round" />
  <circle cx="93.47" cy="315.82" r="5.5" fill="#2fc273" fill-opacity="0.15" stroke="#2fc273" stroke-width="2" /><text x="93.47" y="303.82" fill="#f3f4f6" font-size="15" font-weight="700" text-anchor="middle">X</text><circle cx="243.75" cy="88.60" r="5.5" fill="#2fc273" fill-opacity="0.15" stroke="#2fc273" stroke-width="2" /><text x="243.75" y="76.60" fill="#f3f4f6" font-size="15" font-weight="700" text-anchor="middle">A</text><circle cx="404.76" cy="299.76" r="5.5" fill="#2fc273" fill-opacity="0.15" stroke="#2fc273" stroke-width="2" /><text x="404.76" y="287.76" fill="#f3f4f6" font-size="15" font-weight="700" text-anchor="middle">B</text><circle cx="447.70" cy="228.61" r="5.5" fill="#2fc273" fill-opacity="0.15" stroke="#2fc273" stroke-width="2" /><text x="447.70" y="216.61" fill="#f3f4f6" font-size="15" font-weight="700" text-anchor="middle">C</text><circle cx="522.84" cy="338.01" r="5.5" fill="#2fc273" fill-opacity="0.15" stroke="#2fc273" stroke-width="2" /><text x="522.84" y="326.01" fill="#f3f4f6" font-size="15" font-weight="700" text-anchor="middle">D</text>
  <text x="56" y="492" fill="#8ba0b5" font-size="18">일반 완성 · TP1 0.006216 · TP2 0.006249 · SL 0.006122</text>
</svg>
