<svg xmlns="http://www.w3.org/2000/svg" width="960" height="540" viewBox="0 0 960 540">
  <rect width="960" height="540" rx="24" fill="#0b1220" />
  <rect x="28" y="28" width="904" height="484" rx="22" fill="#111827" stroke="#1f2937" />
  <text x="56" y="74" fill="#f3f4f6" font-size="34" font-weight="700">PIXELUSDT · AB=CD</text>
  <text x="904" y="74" fill="#8ba0b5" font-size="20" text-anchor="end">Bullish (매수) · Score 83.6</text>
  <line x1="72" y1="58" x2="920" y2="58" stroke="#223045" stroke-width="1" stroke-dasharray="4 8" /><line x1="72" y1="156" x2="920" y2="156" stroke="#223045" stroke-width="1" stroke-dasharray="4 8" /><line x1="72" y1="255" x2="920" y2="255" stroke="#223045" stroke-width="1" stroke-dasharray="4 8" /><line x1="72" y1="353" x2="920" y2="353" stroke="#223045" stroke-width="1" stroke-dasharray="4 8" /><line x1="72" y1="452" x2="920" y2="452" stroke="#223045" stroke-width="1" stroke-dasharray="4 8" />
  <rect x="569.97" y="398.84" width="84" height="8.14" fill="#fbbf24" fill-opacity="0.12" stroke="#fbbf24" stroke-width="1.5" stroke-dasharray="6 6" />
  <line x1="72.00" y1="58.00" x2="72.00" y2="96.15" stroke="#f6465d" stroke-width="1.4" /><rect x="69.00" y="62.83" width="6" height="27.47" rx="1.5" fill="#f6465d" /><line x1="82.73" y1="82.42" x2="82.73" y2="136.60" stroke="#f6465d" stroke-width="1.4" /><rect x="79.73" y="90.30" width="6" height="22.89" rx="1.5" fill="#f6465d" /><line x1="93.47" y1="108.36" x2="93.47" y2="168.90" stroke="#f6465d" stroke-width="1.4" /><rect x="90.47" y="113.20" width="6" height="48.58" rx="1.5" fill="#f6465d" /><line x1="104.20" y1="155.42" x2="104.20" y2="180.09" stroke="#f6465d" stroke-width="1.4" /><rect x="101.20" y="161.52" width="6" height="13.74" rx="1.5" fill="#f6465d" /><line x1="114.94" y1="167.63" x2="114.94" y2="201.46" stroke="#f6465d" stroke-width="1.4" /><rect x="111.94" y="175.26" width="6" height="24.42" rx="1.5" fill="#f6465d" /><line x1="125.67" y1="189.25" x2="125.67" y2="211.89" stroke="#0ecb81" stroke-width="1.4" /><rect x="122.67" y="193.57" width="6" height="6.10" rx="1.5" fill="#0ecb81" /><line x1="136.41" y1="186.70" x2="136.41" y2="228.17" stroke="#f6465d" stroke-width="1.4" /><rect x="133.41" y="193.57" width="6" height="29.76" rx="1.5" fill="#f6465d" /><line x1="147.14" y1="217.48" x2="147.14" y2="250.29" stroke="#f6465d" stroke-width="1.4" /><rect x="144.14" y="223.33" width="6" height="23.40" rx="1.5" fill="#f6465d" /><line x1="157.87" y1="242.66" x2="157.87" y2="294.55" stroke="#f6465d" stroke-width="1.4" /><rect x="154.87" y="246.73" width="6" height="20.09" rx="1.5" fill="#f6465d" /><line x1="168.61" y1="261.99" x2="168.61" y2="302.95" stroke="#f6465d" stroke-width="1.4" /><rect x="165.61" y="266.57" width="6" height="12.21" rx="1.5" fill="#f6465d" /><line x1="179.34" y1="266.32" x2="179.34" y2="309.81" stroke="#f6465d" stroke-width="1.4" /><rect x="176.34" y="278.78" width="6" height="18.57" rx="1.5" fill="#f6465d" /><line x1="190.08" y1="293.03" x2="190.08" y2="313.38" stroke="#f6465d" stroke-width="1.4" /><rect x="187.08" y="297.10" width="6" height="3.82" rx="1.5" fill="#f6465d" /><line x1="200.81" y1="299.64" x2="200.81" y2="328.89" stroke="#f6465d" stroke-width="1.4" /><rect x="197.81" y="300.91" width="6" height="19.59" rx="1.5" fill="#f6465d" /><line x1="211.54" y1="249.53" x2="211.54" y2="321.51" stroke="#0ecb81" stroke-width="1.4" /><rect x="208.54" y="284.89" width="6" height="35.61" rx="1.5" fill="#0ecb81" /><line x1="222.28" y1="277.77" x2="222.28" y2="305.24" stroke="#f6465d" stroke-width="1.4" /><rect x="219.28" y="284.89" width="6" height="13.48" rx="1.5" fill="#f6465d" /><line x1="233.01" y1="277.26" x2="233.01" y2="307.52" stroke="#0ecb81" stroke-width="1.4" /><rect x="230.01" y="282.34" width="6" height="15.77" rx="1.5" fill="#0ecb81" /><line x1="243.75" y1="258.18" x2="243.75" y2="282.34" stroke="#0ecb81" stroke-width="1.4" /><rect x="240.75" y="259.96" width="6" height="22.38" rx="1.5" fill="#0ecb81" /><line x1="254.48" y1="259.71" x2="254.48" y2="302.69" stroke="#f6465d" stroke-width="1.4" /><rect x="251.48" y="260.21" width="6" height="38.66" rx="1.5" fill="#f6465d" /><line x1="265.22" y1="279.55" x2="265.22" y2="312.36" stroke="#0ecb81" stroke-width="1.4" /><rect x="262.22" y="280.56" width="6" height="18.31" rx="1.5" fill="#0ecb81" /><line x1="275.95" y1="264.54" x2="275.95" y2="293.03" stroke="#0ecb81" stroke-width="1.4" /><rect x="272.95" y="273.19" width="6" height="7.12" rx="1.5" fill="#0ecb81" /><line x1="286.68" y1="273.19" x2="286.68" y2="292.77" stroke="#f6465d" stroke-width="1.4" /><rect x="283.68" y="273.19" width="6" height="15.01" rx="1.5" fill="#f6465d" /><line x1="297.42" y1="269.88" x2="297.42" y2="295.32" stroke="#0ecb81" stroke-width="1.4" /><rect x="294.42" y="271.41" width="6" height="16.28" rx="1.5" fill="#0ecb81" /><line x1="308.15" y1="263.78" x2="308.15" y2="283.87" stroke="#f6465d" stroke-width="1.4" /><rect x="305.15" y="271.66" width="6" height="10.43" rx="1.5" fill="#f6465d" /><line x1="318.89" y1="272.17" x2="318.89" y2="292.01" stroke="#f6465d" stroke-width="1.4" /><rect x="315.89" y="282.09" width="6" height="9.16" rx="1.5" fill="#f6465d" /><line x1="329.62" y1="285.40" x2="329.62" y2="336.52" stroke="#f6465d" stroke-width="1.4" /><rect x="326.62" y="291.50" width="6" height="33.32" rx="1.5" fill="#f6465d" /><line x1="340.35" y1="312.10" x2="340.35" y2="334.74" stroke="#f6465d" stroke-width="1.4" /><rect x="337.35" y="324.06" width="6" height="5.09" rx="1.5" fill="#f6465d" /><line x1="351.09" y1="320.50" x2="351.09" y2="346.19" stroke="#0ecb81" stroke-width="1.4" /><rect x="348.09" y="327.87" width="6" height="2.00" rx="1.5" fill="#0ecb81" /><line x1="361.82" y1="323.80" x2="361.82" y2="339.83" stroke="#f6465d" stroke-width="1.4" /><rect x="358.82" y="327.62" width="6" height="4.58" rx="1.5" fill="#f6465d" /><line x1="372.56" y1="330.42" x2="372.56" y2="360.18" stroke="#f6465d" stroke-width="1.4" /><rect x="369.56" y="332.20" width="6" height="5.60" rx="1.5" fill="#f6465d" /><line x1="383.29" y1="335.00" x2="383.29" y2="370.61" stroke="#f6465d" stroke-width="1.4" /><rect x="380.29" y="337.79" width="6" height="26.45" rx="1.5" fill="#f6465d" /><line x1="394.03" y1="361.70" x2="394.03" y2="384.60" stroke="#f6465d" stroke-width="1.4" /><rect x="391.03" y="363.99" width="6" height="11.45" rx="1.5" fill="#f6465d" /><line x1="404.76" y1="325.84" x2="404.76" y2="382.05" stroke="#0ecb81" stroke-width="1.4" /><rect x="401.76" y="338.05" width="6" height="37.39" rx="1.5" fill="#0ecb81" /><line x1="415.49" y1="328.64" x2="415.49" y2="369.33" stroke="#f6465d" stroke-width="1.4" /><rect x="412.49" y="338.05" width="6" height="7.12" rx="1.5" fill="#f6465d" /><line x1="426.23" y1="327.87" x2="426.23" y2="354.58" stroke="#0ecb81" stroke-width="1.4" /><rect x="423.23" y="342.63" width="6" height="2.80" rx="1.5" fill="#0ecb81" /><line x1="436.96" y1="311.34" x2="436.96" y2="366.79" stroke="#f6465d" stroke-width="1.4" /><rect x="433.96" y="342.37" width="6" height="9.92" rx="1.5" fill="#f6465d" /><line x1="447.70" y1="337.03" x2="447.70" y2="355.34" stroke="#0ecb81" stroke-width="1.4" /><rect x="444.70" y="337.03" width="6" height="15.01" rx="1.5" fill="#0ecb81" /><line x1="458.43" y1="314.14" x2="458.43" y2="340.08" stroke="#0ecb81" stroke-width="1.4" /><rect x="455.43" y="318.46" width="6" height="18.57" rx="1.5" fill="#0ecb81" /><line x1="469.16" y1="314.90" x2="469.16" y2="352.55" stroke="#f6465d" stroke-width="1.4" /><rect x="466.16" y="318.72" width="6" height="33.32" rx="1.5" fill="#f6465d" /><line x1="479.90" y1="347.71" x2="479.90" y2="370.10" stroke="#f6465d" stroke-width="1.4" /><rect x="476.90" y="351.78" width="6" height="4.83" rx="1.5" fill="#f6465d" /><line x1="490.63" y1="354.33" x2="490.63" y2="369.59" stroke="#f6465d" stroke-width="1.4" /><rect x="487.63" y="356.36" width="6" height="11.70" rx="1.5" fill="#f6465d" /><line x1="501.37" y1="362.97" x2="501.37" y2="373.66" stroke="#0ecb81" stroke-width="1.4" /><rect x="498.37" y="365.52" width="6" height="2.29" rx="1.5" fill="#0ecb81" /><line x1="512.10" y1="342.88" x2="512.10" y2="373.15" stroke="#0ecb81" stroke-width="1.4" /><rect x="509.10" y="351.27" width="6" height="14.24" rx="1.5" fill="#0ecb81" /><line x1="522.84" y1="348.22" x2="522.84" y2="368.57" stroke="#f6465d" stroke-width="1.4" /><rect x="519.84" y="351.27" width="6" height="9.67" rx="1.5" fill="#f6465d" /><line x1="533.57" y1="346.19" x2="533.57" y2="370.10" stroke="#f6465d" stroke-width="1.4" /><rect x="530.57" y="360.94" width="6" height="4.58" rx="1.5" fill="#f6465d" /><line x1="544.30" y1="362.72" x2="544.30" y2="372.13" stroke="#f6465d" stroke-width="1.4" /><rect x="541.30" y="365.26" width="6" height="2.00" rx="1.5" fill="#f6465d" /><line x1="555.04" y1="356.11" x2="555.04" y2="380.02" stroke="#f6465d" stroke-width="1.4" /><rect x="552.04" y="366.79" width="6" height="12.21" rx="1.5" fill="#f6465d" /><line x1="565.77" y1="360.18" x2="565.77" y2="390.95" stroke="#0ecb81" stroke-width="1.4" /><rect x="562.77" y="377.22" width="6" height="2.00" rx="1.5" fill="#0ecb81" /><line x1="576.51" y1="361.45" x2="576.51" y2="389.68" stroke="#f6465d" stroke-width="1.4" /><rect x="573.51" y="377.22" width="6" height="2.00" rx="1.5" fill="#f6465d" /><line x1="587.24" y1="375.69" x2="587.24" y2="415.88" stroke="#f6465d" stroke-width="1.4" /><rect x="584.24" y="377.98" width="6" height="25.94" rx="1.5" fill="#f6465d" /><line x1="597.97" y1="402.65" x2="597.97" y2="425.29" stroke="#f6465d" stroke-width="1.4" /><rect x="594.97" y="403.93" width="6" height="13.48" rx="1.5" fill="#f6465d" /><line x1="608.71" y1="405.96" x2="608.71" y2="424.53" stroke="#0ecb81" stroke-width="1.4" /><rect x="605.71" y="412.83" width="6" height="4.58" rx="1.5" fill="#0ecb81" /><line x1="619.44" y1="398.33" x2="619.44" y2="415.12" stroke="#0ecb81" stroke-width="1.4" /><rect x="616.44" y="407.74" width="6" height="4.83" rx="1.5" fill="#0ecb81" /><line x1="630.18" y1="397.57" x2="630.18" y2="412.57" stroke="#0ecb81" stroke-width="1.4" /><rect x="627.18" y="399.86" width="6" height="7.89" rx="1.5" fill="#0ecb81" /><line x1="640.91" y1="398.33" x2="640.91" y2="435.98" stroke="#f6465d" stroke-width="1.4" /><rect x="637.91" y="400.11" width="6" height="33.58" rx="1.5" fill="#f6465d" /><line x1="651.65" y1="431.40" x2="651.65" y2="452.00" stroke="#f6465d" stroke-width="1.4" /><rect x="648.65" y="433.69" width="6" height="12.97" rx="1.5" fill="#f6465d" /><line x1="662.38" y1="407.23" x2="662.38" y2="446.40" stroke="#0ecb81" stroke-width="1.4" /><rect x="659.38" y="413.59" width="6" height="32.81" rx="1.5" fill="#0ecb81" /><line x1="673.11" y1="381.29" x2="673.11" y2="414.10" stroke="#0ecb81" stroke-width="1.4" /><rect x="670.11" y="394.26" width="6" height="19.33" rx="1.5" fill="#0ecb81" /><line x1="683.85" y1="387.39" x2="683.85" y2="415.37" stroke="#f6465d" stroke-width="1.4" /><rect x="680.85" y="394.52" width="6" height="18.31" rx="1.5" fill="#f6465d" /><line x1="694.58" y1="398.33" x2="694.58" y2="425.29" stroke="#f6465d" stroke-width="1.4" /><rect x="691.58" y="412.83" width="6" height="12.21" rx="1.5" fill="#f6465d" /><line x1="705.32" y1="417.41" x2="705.32" y2="435.47" stroke="#f6465d" stroke-width="1.4" /><rect x="702.32" y="424.78" width="6" height="3.56" rx="1.5" fill="#f6465d" /><line x1="716.05" y1="415.63" x2="716.05" y2="433.18" stroke="#0ecb81" stroke-width="1.4" /><rect x="713.05" y="424.02" width="6" height="4.32" rx="1.5" fill="#0ecb81" /><line x1="726.78" y1="420.97" x2="726.78" y2="439.79" stroke="#f6465d" stroke-width="1.4" /><rect x="723.78" y="424.28" width="6" height="2.00" rx="1.5" fill="#f6465d" /><line x1="737.52" y1="417.41" x2="737.52" y2="436.99" stroke="#f6465d" stroke-width="1.4" /><rect x="734.52" y="426.06" width="6" height="10.43" rx="1.5" fill="#f6465d" /><line x1="748.25" y1="425.04" x2="748.25" y2="444.11" stroke="#0ecb81" stroke-width="1.4" /><rect x="745.25" y="432.67" width="6" height="3.31" rx="1.5" fill="#0ecb81" /><line x1="758.99" y1="395.02" x2="758.99" y2="435.21" stroke="#0ecb81" stroke-width="1.4" /><rect x="755.99" y="407.23" width="6" height="25.44" rx="1.5" fill="#0ecb81" /><line x1="769.72" y1="395.79" x2="769.72" y2="422.49" stroke="#0ecb81" stroke-width="1.4" /><rect x="766.72" y="399.60" width="6" height="7.12" rx="1.5" fill="#0ecb81" /><line x1="780.46" y1="393.75" x2="780.46" y2="426.82" stroke="#f6465d" stroke-width="1.4" /><rect x="777.46" y="399.60" width="6" height="25.44" rx="1.5" fill="#f6465d" /><line x1="791.19" y1="423.51" x2="791.19" y2="438.26" stroke="#0ecb81" stroke-width="1.4" /><rect x="788.19" y="424.28" width="6" height="2.00" rx="1.5" fill="#0ecb81" /><line x1="801.92" y1="414.86" x2="801.92" y2="431.65" stroke="#0ecb81" stroke-width="1.4" /><rect x="798.92" y="422.49" width="6" height="2.00" rx="1.5" fill="#0ecb81" /><line x1="812.66" y1="415.37" x2="812.66" y2="434.45" stroke="#f6465d" stroke-width="1.4" /><rect x="809.66" y="422.49" width="6" height="11.95" rx="1.5" fill="#f6465d" /><line x1="823.39" y1="407.23" x2="823.39" y2="438.01" stroke="#0ecb81" stroke-width="1.4" /><rect x="820.39" y="428.09" width="6" height="5.60" rx="1.5" fill="#0ecb81" /><line x1="834.13" y1="386.88" x2="834.13" y2="436.74" stroke="#0ecb81" stroke-width="1.4" /><rect x="831.13" y="388.66" width="6" height="39.43" rx="1.5" fill="#0ecb81" /><line x1="844.86" y1="152.37" x2="844.86" y2="388.41" stroke="#0ecb81" stroke-width="1.4" /><rect x="841.86" y="237.83" width="6" height="150.58" rx="1.5" fill="#0ecb81" /><line x1="855.59" y1="229.69" x2="855.59" y2="341.10" stroke="#f6465d" stroke-width="1.4" /><rect x="852.59" y="237.83" width="6" height="73.00" rx="1.5" fill="#f6465d" /><line x1="866.33" y1="280.56" x2="866.33" y2="348.48" stroke="#f6465d" stroke-width="1.4" /><rect x="863.33" y="310.83" width="6" height="25.69" rx="1.5" fill="#f6465d" /><line x1="877.06" y1="317.19" x2="877.06" y2="362.21" stroke="#0ecb81" stroke-width="1.4" /><rect x="874.06" y="336.27" width="6" height="2.00" rx="1.5" fill="#0ecb81" /><line x1="887.80" y1="300.40" x2="887.80" y2="349.49" stroke="#0ecb81" stroke-width="1.4" /><rect x="884.80" y="330.93" width="6" height="6.10" rx="1.5" fill="#0ecb81" /><line x1="898.53" y1="321.77" x2="898.53" y2="398.58" stroke="#f6465d" stroke-width="1.4" /><rect x="895.53" y="330.16" width="6" height="59.27" rx="1.5" fill="#f6465d" /><line x1="909.27" y1="388.66" x2="909.27" y2="418.93" stroke="#f6465d" stroke-width="1.4" /><rect x="906.27" y="389.17" width="6" height="20.60" rx="1.5" fill="#f6465d" /><line x1="920.00" y1="405.71" x2="920.00" y2="429.62" stroke="#f6465d" stroke-width="1.4" /><rect x="917.00" y="409.78" width="6" height="10.17" rx="1.5" fill="#f6465d" />
  <polyline points="394.03,384.60 436.96,311.34 501.37,373.66 512.10,342.88 597.97,425.29" fill="none" stroke="#2fc273" stroke-width="4" stroke-linecap="round" stroke-linejoin="round" />
  <circle cx="394.03" cy="384.60" r="5.5" fill="#2fc273" fill-opacity="0.15" stroke="#2fc273" stroke-width="2" /><text x="394.03" y="372.60" fill="#f3f4f6" font-size="15" font-weight="700" text-anchor="middle">X</text><circle cx="436.96" cy="311.34" r="5.5" fill="#2fc273" fill-opacity="0.15" stroke="#2fc273" stroke-width="2" /><text x="436.96" y="299.34" fill="#f3f4f6" font-size="15" font-weight="700" text-anchor="middle">A</text><circle cx="501.37" cy="373.66" r="5.5" fill="#2fc273" fill-opacity="0.15" stroke="#2fc273" stroke-width="2" /><text x="501.37" y="361.66" fill="#f3f4f6" font-size="15" font-weight="700" text-anchor="middle">B</text><circle cx="512.10" cy="342.88" r="5.5" fill="#2fc273" fill-opacity="0.15" stroke="#2fc273" stroke-width="2" /><text x="512.10" y="330.88" fill="#f3f4f6" font-size="15" font-weight="700" text-anchor="middle">C</text><circle cx="597.97" cy="425.29" r="5.5" fill="#2fc273" fill-opacity="0.15" stroke="#2fc273" stroke-width="2" /><text x="597.97" y="413.29" fill="#f3f4f6" font-size="15" font-weight="700" text-anchor="middle">D</text>
  <text x="56" y="492" fill="#8ba0b5" font-size="18">일반 완성 · TP1 0.006495 · TP2 0.006571 · SL 0.006334</text>
</svg>
