<svg xmlns="http://www.w3.org/2000/svg" width="960" height="540" viewBox="0 0 960 540">
  <rect width="960" height="540" rx="24" fill="#0b1220" />
  <rect x="28" y="28" width="904" height="484" rx="22" fill="#111827" stroke="#1f2937" />
  <text x="56" y="74" fill="#f3f4f6" font-size="34" font-weight="700">POLYXUSDT · AB=CD</text>
  <text x="904" y="74" fill="#8ba0b5" font-size="20" text-anchor="end">Bullish (매수) · Score 86.0</text>
  <line x1="72" y1="58" x2="920" y2="58" stroke="#223045" stroke-width="1" stroke-dasharray="4 8" /><line x1="72" y1="156" x2="920" y2="156" stroke="#223045" stroke-width="1" stroke-dasharray="4 8" /><line x1="72" y1="255" x2="920" y2="255" stroke="#223045" stroke-width="1" stroke-dasharray="4 8" /><line x1="72" y1="353" x2="920" y2="353" stroke="#223045" stroke-width="1" stroke-dasharray="4 8" /><line x1="72" y1="452" x2="920" y2="452" stroke="#223045" stroke-width="1" stroke-dasharray="4 8" />
  <rect x="258.68" y="454.99" width="84" height="6.59" fill="#fbbf24" fill-opacity="0.12" stroke="#fbbf24" stroke-width="1.5" stroke-dasharray="6 6" />
  <line x1="72.00" y1="397.07" x2="72.00" y2="419.34" stroke="#0ecb81" stroke-width="1.4" /><rect x="69.00" y="399.51" width="6" height="18.01" rx="1.5" fill="#0ecb81" /><line x1="82.73" y1="387.91" x2="82.73" y2="401.34" stroke="#0ecb81" stroke-width="1.4" /><rect x="79.73" y="397.07" width="6" height="3.05" rx="1.5" fill="#0ecb81" /><line x1="93.47" y1="394.32" x2="93.47" y2="421.48" stroke="#f6465d" stroke-width="1.4" /><rect x="90.47" y="397.07" width="6" height="20.45" rx="1.5" fill="#f6465d" /><line x1="104.20" y1="412.33" x2="104.20" y2="430.03" stroke="#f6465d" stroke-width="1.4" /><rect x="101.20" y="417.21" width="6" height="7.02" rx="1.5" fill="#f6465d" /><line x1="114.94" y1="418.12" x2="114.94" y2="427.58" stroke="#f6465d" stroke-width="1.4" /><rect x="111.94" y="423.92" width="6" height="2.00" rx="1.5" fill="#f6465d" /><line x1="125.67" y1="420.87" x2="125.67" y2="432.16" stroke="#f6465d" stroke-width="1.4" /><rect x="122.67" y="424.53" width="6" height="5.49" rx="1.5" fill="#f6465d" /><line x1="136.41" y1="426.97" x2="136.41" y2="435.82" stroke="#0ecb81" stroke-width="1.4" /><rect x="133.41" y="428.81" width="6" height="2.00" rx="1.5" fill="#0ecb81" /><line x1="147.14" y1="424.53" x2="147.14" y2="433.69" stroke="#f6465d" stroke-width="1.4" /><rect x="144.14" y="428.81" width="6" height="2.00" rx="1.5" fill="#f6465d" /><line x1="157.87" y1="412.02" x2="157.87" y2="434.91" stroke="#0ecb81" stroke-width="1.4" /><rect x="154.87" y="414.16" width="6" height="15.87" rx="1.5" fill="#0ecb81" /><line x1="168.61" y1="413.24" x2="168.61" y2="427.89" stroke="#f6465d" stroke-width="1.4" /><rect x="165.61" y="414.46" width="6" height="7.02" rx="1.5" fill="#f6465d" /><line x1="179.34" y1="414.46" x2="179.34" y2="426.67" stroke="#f6465d" stroke-width="1.4" /><rect x="176.34" y="421.79" width="6" height="3.66" rx="1.5" fill="#f6465d" /><line x1="190.08" y1="421.48" x2="190.08" y2="434.30" stroke="#f6465d" stroke-width="1.4" /><rect x="187.08" y="424.53" width="6" height="3.36" rx="1.5" fill="#f6465d" /><line x1="200.81" y1="419.34" x2="200.81" y2="428.81" stroke="#0ecb81" stroke-width="1.4" /><rect x="197.81" y="421.79" width="6" height="6.10" rx="1.5" fill="#0ecb81" /><line x1="211.54" y1="420.26" x2="211.54" y2="425.45" stroke="#f6465d" stroke-width="1.4" /><rect x="208.54" y="421.79" width="6" height="2.00" rx="1.5" fill="#f6465d" /><line x1="222.28" y1="417.21" x2="222.28" y2="425.75" stroke="#0ecb81" stroke-width="1.4" /><rect x="219.28" y="420.26" width="6" height="2.75" rx="1.5" fill="#0ecb81" /><line x1="233.01" y1="419.04" x2="233.01" y2="428.20" stroke="#f6465d" stroke-width="1.4" /><rect x="230.01" y="420.57" width="6" height="3.36" rx="1.5" fill="#f6465d" /><line x1="243.75" y1="418.12" x2="243.75" y2="428.50" stroke="#0ecb81" stroke-width="1.4" /><rect x="240.75" y="420.26" width="6" height="4.27" rx="1.5" fill="#0ecb81" /><line x1="254.48" y1="417.21" x2="254.48" y2="424.23" stroke="#0ecb81" stroke-width="1.4" /><rect x="251.48" y="417.51" width="6" height="3.05" rx="1.5" fill="#0ecb81" /><line x1="265.22" y1="417.51" x2="265.22" y2="446.81" stroke="#f6465d" stroke-width="1.4" /><rect x="262.22" y="417.82" width="6" height="21.06" rx="1.5" fill="#f6465d" /><line x1="275.95" y1="433.69" x2="275.95" y2="444.07" stroke="#0ecb81" stroke-width="1.4" /><rect x="272.95" y="436.74" width="6" height="2.44" rx="1.5" fill="#0ecb81" /><line x1="286.68" y1="433.38" x2="286.68" y2="452.00" stroke="#f6465d" stroke-width="1.4" /><rect x="283.68" y="436.74" width="6" height="6.10" rx="1.5" fill="#f6465d" /><line x1="297.42" y1="438.88" x2="297.42" y2="444.98" stroke="#0ecb81" stroke-width="1.4" /><rect x="294.42" y="442.54" width="6" height="2.00" rx="1.5" fill="#0ecb81" /><line x1="308.15" y1="406.53" x2="308.15" y2="443.45" stroke="#0ecb81" stroke-width="1.4" /><rect x="305.15" y="413.55" width="6" height="28.99" rx="1.5" fill="#0ecb81" /><line x1="318.89" y1="403.47" x2="318.89" y2="416.90" stroke="#0ecb81" stroke-width="1.4" /><rect x="315.89" y="403.47" width="6" height="10.07" rx="1.5" fill="#0ecb81" /><line x1="329.62" y1="389.44" x2="329.62" y2="412.94" stroke="#f6465d" stroke-width="1.4" /><rect x="326.62" y="403.78" width="6" height="4.88" rx="1.5" fill="#f6465d" /><line x1="340.35" y1="408.66" x2="340.35" y2="426.36" stroke="#f6465d" stroke-width="1.4" /><rect x="337.35" y="408.66" width="6" height="10.68" rx="1.5" fill="#f6465d" /><line x1="351.09" y1="396.15" x2="351.09" y2="419.34" stroke="#0ecb81" stroke-width="1.4" /><rect x="348.09" y="402.86" width="6" height="16.18" rx="1.5" fill="#0ecb81" /><line x1="361.82" y1="392.49" x2="361.82" y2="407.14" stroke="#f6465d" stroke-width="1.4" /><rect x="358.82" y="402.56" width="6" height="2.00" rx="1.5" fill="#f6465d" /><line x1="372.56" y1="401.03" x2="372.56" y2="417.21" stroke="#f6465d" stroke-width="1.4" /><rect x="369.56" y="403.78" width="6" height="4.58" rx="1.5" fill="#f6465d" /><line x1="383.29" y1="386.99" x2="383.29" y2="409.27" stroke="#0ecb81" stroke-width="1.4" /><rect x="380.29" y="388.52" width="6" height="20.45" rx="1.5" fill="#0ecb81" /><line x1="394.03" y1="388.83" x2="394.03" y2="412.94" stroke="#f6465d" stroke-width="1.4" /><rect x="391.03" y="388.83" width="6" height="23.19" rx="1.5" fill="#f6465d" /><line x1="404.76" y1="391.57" x2="404.76" y2="414.16" stroke="#0ecb81" stroke-width="1.4" /><rect x="401.76" y="393.71" width="6" height="18.01" rx="1.5" fill="#0ecb81" /><line x1="415.49" y1="389.74" x2="415.49" y2="402.25" stroke="#f6465d" stroke-width="1.4" /><rect x="412.49" y="393.71" width="6" height="5.49" rx="1.5" fill="#f6465d" /><line x1="426.23" y1="391.27" x2="426.23" y2="406.53" stroke="#f6465d" stroke-width="1.4" /><rect x="423.23" y="399.51" width="6" height="2.14" rx="1.5" fill="#f6465d" /><line x1="436.96" y1="396.76" x2="436.96" y2="405.31" stroke="#0ecb81" stroke-width="1.4" /><rect x="433.96" y="399.51" width="6" height="2.14" rx="1.5" fill="#0ecb81" /><line x1="447.70" y1="385.77" x2="447.70" y2="399.51" stroke="#0ecb81" stroke-width="1.4" /><rect x="444.70" y="393.71" width="6" height="5.49" rx="1.5" fill="#0ecb81" /><line x1="458.43" y1="380.59" x2="458.43" y2="396.76" stroke="#0ecb81" stroke-width="1.4" /><rect x="455.43" y="390.35" width="6" height="3.66" rx="1.5" fill="#0ecb81" /><line x1="469.16" y1="381.81" x2="469.16" y2="390.96" stroke="#0ecb81" stroke-width="1.4" /><rect x="466.16" y="385.47" width="6" height="4.58" rx="1.5" fill="#0ecb81" /><line x1="479.90" y1="376.01" x2="479.90" y2="388.83" stroke="#0ecb81" stroke-width="1.4" /><rect x="476.90" y="380.89" width="6" height="5.49" rx="1.5" fill="#0ecb81" /><line x1="490.63" y1="377.53" x2="490.63" y2="383.33" stroke="#f6465d" stroke-width="1.4" /><rect x="487.63" y="380.89" width="6" height="2.00" rx="1.5" fill="#f6465d" /><line x1="501.37" y1="380.59" x2="501.37" y2="398.59" stroke="#f6465d" stroke-width="1.4" /><rect x="498.37" y="382.72" width="6" height="15.56" rx="1.5" fill="#f6465d" /><line x1="512.10" y1="395.85" x2="512.10" y2="405.61" stroke="#f6465d" stroke-width="1.4" /><rect x="509.10" y="398.29" width="6" height="2.00" rx="1.5" fill="#f6465d" /><line x1="522.84" y1="139.79" x2="522.84" y2="402.86" stroke="#0ecb81" stroke-width="1.4" /><rect x="519.84" y="185.87" width="6" height="213.33" rx="1.5" fill="#0ecb81" /><line x1="533.57" y1="165.73" x2="533.57" y2="231.04" stroke="#0ecb81" stroke-width="1.4" /><rect x="530.57" y="176.72" width="6" height="9.16" rx="1.5" fill="#0ecb81" /><line x1="544.30" y1="137.65" x2="544.30" y2="204.19" stroke="#0ecb81" stroke-width="1.4" /><rect x="541.30" y="171.53" width="6" height="5.19" rx="1.5" fill="#0ecb81" /><line x1="555.04" y1="94.01" x2="555.04" y2="190.45" stroke="#0ecb81" stroke-width="1.4" /><rect x="552.04" y="108.05" width="6" height="63.17" rx="1.5" fill="#0ecb81" /><line x1="565.77" y1="71.73" x2="565.77" y2="151.39" stroke="#0ecb81" stroke-width="1.4" /><rect x="562.77" y="79.36" width="6" height="26.86" rx="1.5" fill="#0ecb81" /><line x1="576.51" y1="58.00" x2="576.51" y2="176.72" stroke="#f6465d" stroke-width="1.4" /><rect x="573.51" y="79.36" width="6" height="80.57" rx="1.5" fill="#f6465d" /><line x1="587.24" y1="138.26" x2="587.24" y2="166.65" stroke="#0ecb81" stroke-width="1.4" /><rect x="584.24" y="145.89" width="6" height="14.04" rx="1.5" fill="#0ecb81" /><line x1="597.97" y1="61.97" x2="597.97" y2="152.61" stroke="#0ecb81" stroke-width="1.4" /><rect x="594.97" y="83.94" width="6" height="61.34" rx="1.5" fill="#0ecb81" /><line x1="608.71" y1="82.42" x2="608.71" y2="121.17" stroke="#f6465d" stroke-width="1.4" /><rect x="605.71" y="83.94" width="6" height="28.99" rx="1.5" fill="#f6465d" /><line x1="619.44" y1="101.03" x2="619.44" y2="150.47" stroke="#0ecb81" stroke-width="1.4" /><rect x="616.44" y="112.63" width="6" height="2.00" rx="1.5" fill="#0ecb81" /><line x1="630.18" y1="104.08" x2="630.18" y2="145.28" stroke="#f6465d" stroke-width="1.4" /><rect x="627.18" y="111.41" width="6" height="15.26" rx="1.5" fill="#f6465d" /><line x1="640.91" y1="95.84" x2="640.91" y2="194.42" stroke="#f6465d" stroke-width="1.4" /><rect x="637.91" y="126.67" width="6" height="52.19" rx="1.5" fill="#f6465d" /><line x1="651.65" y1="141.62" x2="651.65" y2="199.00" stroke="#0ecb81" stroke-width="1.4" /><rect x="648.65" y="149.86" width="6" height="28.99" rx="1.5" fill="#0ecb81" /><line x1="662.38" y1="144.06" x2="662.38" y2="242.64" stroke="#f6465d" stroke-width="1.4" /><rect x="659.38" y="149.86" width="6" height="69.58" rx="1.5" fill="#f6465d" /><line x1="673.11" y1="209.68" x2="673.11" y2="247.22" stroke="#f6465d" stroke-width="1.4" /><rect x="670.11" y="219.75" width="6" height="11.29" rx="1.5" fill="#f6465d" /><line x1="683.85" y1="202.05" x2="683.85" y2="233.79" stroke="#0ecb81" stroke-width="1.4" /><rect x="680.85" y="204.49" width="6" height="26.55" rx="1.5" fill="#0ecb81" /><line x1="694.58" y1="205.10" x2="694.58" y2="229.52" stroke="#f6465d" stroke-width="1.4" /><rect x="691.58" y="205.10" width="6" height="7.63" rx="1.5" fill="#f6465d" /><line x1="705.32" y1="187.10" x2="705.32" y2="213.65" stroke="#0ecb81" stroke-width="1.4" /><rect x="702.32" y="197.17" width="6" height="15.26" rx="1.5" fill="#0ecb81" /><line x1="716.05" y1="187.40" x2="716.05" y2="198.08" stroke="#0ecb81" stroke-width="1.4" /><rect x="713.05" y="188.62" width="6" height="8.55" rx="1.5" fill="#0ecb81" /><line x1="726.78" y1="171.23" x2="726.78" y2="192.59" stroke="#0ecb81" stroke-width="1.4" /><rect x="723.78" y="172.14" width="6" height="17.09" rx="1.5" fill="#0ecb81" /><line x1="737.52" y1="170.92" x2="737.52" y2="193.81" stroke="#f6465d" stroke-width="1.4" /><rect x="734.52" y="171.53" width="6" height="7.02" rx="1.5" fill="#f6465d" /><line x1="748.25" y1="172.14" x2="748.25" y2="190.76" stroke="#f6465d" stroke-width="1.4" /><rect x="745.25" y="178.55" width="6" height="8.24" rx="1.5" fill="#f6465d" /><line x1="758.99" y1="177.02" x2="758.99" y2="204.19" stroke="#f6465d" stroke-width="1.4" /><rect x="755.99" y="186.48" width="6" height="9.46" rx="1.5" fill="#f6465d" /><line x1="769.72" y1="189.23" x2="769.72" y2="205.71" stroke="#f6465d" stroke-width="1.4" /><rect x="766.72" y="196.56" width="6" height="4.27" rx="1.5" fill="#f6465d" /><line x1="780.46" y1="134.91" x2="780.46" y2="264.61" stroke="#f6465d" stroke-width="1.4" /><rect x="777.46" y="200.52" width="6" height="9.46" rx="1.5" fill="#f6465d" /><line x1="791.19" y1="178.86" x2="791.19" y2="234.40" stroke="#f6465d" stroke-width="1.4" /><rect x="788.19" y="209.98" width="6" height="4.58" rx="1.5" fill="#f6465d" /><line x1="801.92" y1="183.43" x2="801.92" y2="239.59" stroke="#f6465d" stroke-width="1.4" /><rect x="798.92" y="214.56" width="6" height="16.79" rx="1.5" fill="#f6465d" /><line x1="812.66" y1="223.72" x2="812.66" y2="247.52" stroke="#f6465d" stroke-width="1.4" /><rect x="809.66" y="231.35" width="6" height="10.07" rx="1.5" fill="#f6465d" /><line x1="823.39" y1="239.89" x2="823.39" y2="257.90" stroke="#f6465d" stroke-width="1.4" /><rect x="820.39" y="241.42" width="6" height="8.55" rx="1.5" fill="#f6465d" /><line x1="834.13" y1="234.70" x2="834.13" y2="267.36" stroke="#f6465d" stroke-width="1.4" /><rect x="831.13" y="249.96" width="6" height="10.38" rx="1.5" fill="#f6465d" /><line x1="844.86" y1="251.19" x2="844.86" y2="272.55" stroke="#f6465d" stroke-width="1.4" /><rect x="841.86" y="260.04" width="6" height="2.00" rx="1.5" fill="#f6465d" /><line x1="855.59" y1="253.02" x2="855.59" y2="280.18" stroke="#f6465d" stroke-width="1.4" /><rect x="852.59" y="260.34" width="6" height="4.88" rx="1.5" fill="#f6465d" /><line x1="866.33" y1="251.19" x2="866.33" y2="266.44" stroke="#0ecb81" stroke-width="1.4" /><rect x="863.33" y="260.65" width="6" height="4.88" rx="1.5" fill="#0ecb81" /><line x1="877.06" y1="256.07" x2="877.06" y2="279.57" stroke="#f6465d" stroke-width="1.4" /><rect x="874.06" y="260.95" width="6" height="12.82" rx="1.5" fill="#f6465d" /><line x1="887.80" y1="269.19" x2="887.80" y2="286.59" stroke="#f6465d" stroke-width="1.4" /><rect x="884.80" y="273.46" width="6" height="7.32" rx="1.5" fill="#f6465d" /><line x1="898.53" y1="271.63" x2="898.53" y2="282.01" stroke="#0ecb81" stroke-width="1.4" /><rect x="895.53" y="274.68" width="6" height="6.10" rx="1.5" fill="#0ecb81" /><line x1="909.27" y1="272.85" x2="909.27" y2="316.19" stroke="#f6465d" stroke-width="1.4" /><rect x="906.27" y="274.68" width="6" height="38.15" rx="1.5" fill="#f6465d" /><line x1="920.00" y1="309.78" x2="920.00" y2="312.83" stroke="#0ecb81" stroke-width="1.4" /><rect x="917.00" y="312.22" width="6" height="2.00" rx="1.5" fill="#0ecb81" />
  <polyline points="72.00,435.21 82.73,387.91 136.41,435.82 157.87,412.02 286.68,452.00" fill="none" stroke="#2fc273" stroke-width="4" stroke-linecap="round" stroke-linejoin="round" />
  <circle cx="72.00" cy="435.21" r="5.5" fill="#2fc273" fill-opacity="0.15" stroke="#2fc273" stroke-width="2" /><text x="72.00" y="423.21" fill="#f3f4f6" font-size="15" font-weight="700" text-anchor="middle">X</text><circle cx="82.73" cy="387.91" r="5.5" fill="#2fc273" fill-opacity="0.15" stroke="#2fc273" stroke-width="2" /><text x="82.73" y="375.91" fill="#f3f4f6" font-size="15" font-weight="700" text-anchor="middle">A</text><circle cx="136.41" cy="435.82" r="5.5" fill="#2fc273" fill-opacity="0.15" stroke="#2fc273" stroke-width="2" /><text x="136.41" y="423.82" fill="#f3f4f6" font-size="15" font-weight="700" text-anchor="middle">B</text><circle cx="157.87" cy="412.02" r="5.5" fill="#2fc273" fill-opacity="0.15" stroke="#2fc273" stroke-width="2" /><text x="157.87" y="400.02" fill="#f3f4f6" font-size="15" font-weight="700" text-anchor="middle">C</text><circle cx="286.68" cy="452.00" r="5.5" fill="#2fc273" fill-opacity="0.15" stroke="#2fc273" stroke-width="2" /><text x="286.68" y="440.00" fill="#f3f4f6" font-size="15" font-weight="700" text-anchor="middle">D</text>
  <text x="56" y="492" fill="#8ba0b5" font-size="18">일반 완성 · TP1 0.0439 · TP2 0.04421 · SL 0.043199</text>
</svg>
