<svg xmlns="http://www.w3.org/2000/svg" width="960" height="540" viewBox="0 0 960 540">
  <rect width="960" height="540" rx="24" fill="#0b1220" />
  <rect x="28" y="28" width="904" height="484" rx="22" fill="#111827" stroke="#1f2937" />
  <text x="56" y="74" fill="#f3f4f6" font-size="34" font-weight="700">PROMUSDT · AB=CD</text>
  <text x="904" y="74" fill="#8ba0b5" font-size="20" text-anchor="end">Bullish (매수) · Score 74.5</text>
  <line x1="72" y1="58" x2="920" y2="58" stroke="#223045" stroke-width="1" stroke-dasharray="4 8" /><line x1="72" y1="156" x2="920" y2="156" stroke="#223045" stroke-width="1" stroke-dasharray="4 8" /><line x1="72" y1="255" x2="920" y2="255" stroke="#223045" stroke-width="1" stroke-dasharray="4 8" /><line x1="72" y1="353" x2="920" y2="353" stroke="#223045" stroke-width="1" stroke-dasharray="4 8" /><line x1="72" y1="452" x2="920" y2="452" stroke="#223045" stroke-width="1" stroke-dasharray="4 8" />
  <rect x="183.54" y="453.22" width="84" height="5.97" fill="#fbbf24" fill-opacity="0.12" stroke="#fbbf24" stroke-width="1.5" stroke-dasharray="6 6" />
  <line x1="72.00" y1="448.95" x2="72.00" y2="450.17" stroke="#f6465d" stroke-width="1.4" /><rect x="69.00" y="449.56" width="6" height="2.00" rx="1.5" fill="#f6465d" /><line x1="82.73" y1="448.65" x2="82.73" y2="450.17" stroke="#0ecb81" stroke-width="1.4" /><rect x="79.73" y="448.95" width="6" height="2.00" rx="1.5" fill="#0ecb81" /><line x1="93.47" y1="444.08" x2="93.47" y2="449.56" stroke="#0ecb81" stroke-width="1.4" /><rect x="90.47" y="446.52" width="6" height="2.44" rx="1.5" fill="#0ecb81" /><line x1="104.20" y1="443.16" x2="104.20" y2="446.52" stroke="#0ecb81" stroke-width="1.4" /><rect x="101.20" y="444.69" width="6" height="2.00" rx="1.5" fill="#0ecb81" /><line x1="114.94" y1="442.55" x2="114.94" y2="452.00" stroke="#f6465d" stroke-width="1.4" /><rect x="111.94" y="444.69" width="6" height="2.74" rx="1.5" fill="#f6465d" /><line x1="125.67" y1="444.99" x2="125.67" y2="449.26" stroke="#0ecb81" stroke-width="1.4" /><rect x="122.67" y="447.43" width="6" height="2.00" rx="1.5" fill="#0ecb81" /><line x1="136.41" y1="445.60" x2="136.41" y2="449.87" stroke="#f6465d" stroke-width="1.4" /><rect x="133.41" y="447.43" width="6" height="2.00" rx="1.5" fill="#f6465d" /><line x1="147.14" y1="447.12" x2="147.14" y2="448.95" stroke="#0ecb81" stroke-width="1.4" /><rect x="144.14" y="447.43" width="6" height="2.00" rx="1.5" fill="#0ecb81" /><line x1="157.87" y1="445.60" x2="157.87" y2="448.65" stroke="#0ecb81" stroke-width="1.4" /><rect x="154.87" y="446.82" width="6" height="2.00" rx="1.5" fill="#0ecb81" /><line x1="168.61" y1="444.69" x2="168.61" y2="446.82" stroke="#0ecb81" stroke-width="1.4" /><rect x="165.61" y="445.60" width="6" height="2.00" rx="1.5" fill="#0ecb81" /><line x1="179.34" y1="443.77" x2="179.34" y2="445.60" stroke="#0ecb81" stroke-width="1.4" /><rect x="176.34" y="443.77" width="6" height="2.00" rx="1.5" fill="#0ecb81" /><line x1="190.08" y1="444.08" x2="190.08" y2="447.12" stroke="#f6465d" stroke-width="1.4" /><rect x="187.08" y="444.08" width="6" height="2.00" rx="1.5" fill="#f6465d" /><line x1="200.81" y1="445.60" x2="200.81" y2="447.12" stroke="#f6465d" stroke-width="1.4" /><rect x="197.81" y="445.60" width="6" height="2.00" rx="1.5" fill="#f6465d" /><line x1="211.54" y1="446.52" x2="211.54" y2="448.95" stroke="#f6465d" stroke-width="1.4" /><rect x="208.54" y="446.82" width="6" height="2.00" rx="1.5" fill="#f6465d" /><line x1="222.28" y1="445.91" x2="222.28" y2="448.65" stroke="#0ecb81" stroke-width="1.4" /><rect x="219.28" y="445.91" width="6" height="2.74" rx="1.5" fill="#0ecb81" /><line x1="233.01" y1="445.91" x2="233.01" y2="446.82" stroke="#0ecb81" stroke-width="1.4" /><rect x="230.01" y="446.21" width="6" height="2.00" rx="1.5" fill="#0ecb81" /><line x1="243.75" y1="442.55" x2="243.75" y2="446.52" stroke="#0ecb81" stroke-width="1.4" /><rect x="240.75" y="442.55" width="6" height="3.96" rx="1.5" fill="#0ecb81" /><line x1="254.48" y1="442.55" x2="254.48" y2="444.99" stroke="#f6465d" stroke-width="1.4" /><rect x="251.48" y="442.55" width="6" height="2.00" rx="1.5" fill="#f6465d" /><line x1="265.22" y1="437.98" x2="265.22" y2="444.08" stroke="#0ecb81" stroke-width="1.4" /><rect x="262.22" y="438.90" width="6" height="4.88" rx="1.5" fill="#0ecb81" /><line x1="275.95" y1="430.97" x2="275.95" y2="439.20" stroke="#0ecb81" stroke-width="1.4" /><rect x="272.95" y="431.58" width="6" height="7.62" rx="1.5" fill="#0ecb81" /><line x1="286.68" y1="426.40" x2="286.68" y2="434.02" stroke="#0ecb81" stroke-width="1.4" /><rect x="283.68" y="427.62" width="6" height="3.96" rx="1.5" fill="#0ecb81" /><line x1="297.42" y1="425.79" x2="297.42" y2="437.07" stroke="#f6465d" stroke-width="1.4" /><rect x="294.42" y="427.93" width="6" height="5.18" rx="1.5" fill="#f6465d" /><line x1="308.15" y1="430.37" x2="308.15" y2="434.33" stroke="#0ecb81" stroke-width="1.4" /><rect x="305.15" y="432.19" width="6" height="2.00" rx="1.5" fill="#0ecb81" /><line x1="318.89" y1="427.62" x2="318.89" y2="432.80" stroke="#0ecb81" stroke-width="1.4" /><rect x="315.89" y="430.37" width="6" height="2.00" rx="1.5" fill="#0ecb81" /><line x1="329.62" y1="427.01" x2="329.62" y2="431.58" stroke="#0ecb81" stroke-width="1.4" /><rect x="326.62" y="430.06" width="6" height="2.00" rx="1.5" fill="#0ecb81" /><line x1="340.35" y1="429.45" x2="340.35" y2="433.41" stroke="#f6465d" stroke-width="1.4" /><rect x="337.35" y="430.06" width="6" height="2.00" rx="1.5" fill="#f6465d" /><line x1="351.09" y1="426.71" x2="351.09" y2="433.11" stroke="#0ecb81" stroke-width="1.4" /><rect x="348.09" y="427.01" width="6" height="4.27" rx="1.5" fill="#0ecb81" /><line x1="361.82" y1="425.49" x2="361.82" y2="430.06" stroke="#0ecb81" stroke-width="1.4" /><rect x="358.82" y="426.71" width="6" height="2.00" rx="1.5" fill="#0ecb81" /><line x1="372.56" y1="418.18" x2="372.56" y2="427.62" stroke="#0ecb81" stroke-width="1.4" /><rect x="369.56" y="418.79" width="6" height="7.92" rx="1.5" fill="#0ecb81" /><line x1="383.29" y1="413.91" x2="383.29" y2="425.18" stroke="#0ecb81" stroke-width="1.4" /><rect x="380.29" y="417.57" width="6" height="2.00" rx="1.5" fill="#0ecb81" /><line x1="394.03" y1="413.00" x2="394.03" y2="422.14" stroke="#0ecb81" stroke-width="1.4" /><rect x="391.03" y="417.87" width="6" height="2.00" rx="1.5" fill="#0ecb81" /><line x1="404.76" y1="410.86" x2="404.76" y2="418.48" stroke="#0ecb81" stroke-width="1.4" /><rect x="401.76" y="416.65" width="6" height="2.00" rx="1.5" fill="#0ecb81" /><line x1="415.49" y1="410.86" x2="415.49" y2="418.48" stroke="#0ecb81" stroke-width="1.4" /><rect x="412.49" y="411.47" width="6" height="5.18" rx="1.5" fill="#0ecb81" /><line x1="426.23" y1="392.58" x2="426.23" y2="412.39" stroke="#0ecb81" stroke-width="1.4" /><rect x="423.23" y="394.71" width="6" height="16.45" rx="1.5" fill="#0ecb81" /><line x1="436.96" y1="375.52" x2="436.96" y2="395.93" stroke="#0ecb81" stroke-width="1.4" /><rect x="433.96" y="388.62" width="6" height="6.09" rx="1.5" fill="#0ecb81" /><line x1="447.70" y1="355.10" x2="447.70" y2="395.63" stroke="#0ecb81" stroke-width="1.4" /><rect x="444.70" y="356.93" width="6" height="31.08" rx="1.5" fill="#0ecb81" /><line x1="458.43" y1="299.64" x2="458.43" y2="381.91" stroke="#0ecb81" stroke-width="1.4" /><rect x="455.43" y="349.31" width="6" height="7.31" rx="1.5" fill="#0ecb81" /><line x1="469.16" y1="302.99" x2="469.16" y2="358.45" stroke="#0ecb81" stroke-width="1.4" /><rect x="466.16" y="320.97" width="6" height="28.64" rx="1.5" fill="#0ecb81" /><line x1="479.90" y1="311.22" x2="479.90" y2="348.09" stroke="#f6465d" stroke-width="1.4" /><rect x="476.90" y="320.97" width="6" height="2.00" rx="1.5" fill="#f6465d" /><line x1="490.63" y1="307.87" x2="490.63" y2="373.08" stroke="#f6465d" stroke-width="1.4" /><rect x="487.63" y="321.28" width="6" height="44.18" rx="1.5" fill="#f6465d" /><line x1="501.37" y1="348.40" x2="501.37" y2="365.76" stroke="#0ecb81" stroke-width="1.4" /><rect x="498.37" y="356.93" width="6" height="8.53" rx="1.5" fill="#0ecb81" /><line x1="512.10" y1="341.08" x2="512.10" y2="360.28" stroke="#0ecb81" stroke-width="1.4" /><rect x="509.10" y="348.09" width="6" height="9.14" rx="1.5" fill="#0ecb81" /><line x1="522.84" y1="325.54" x2="522.84" y2="349.61" stroke="#0ecb81" stroke-width="1.4" /><rect x="519.84" y="334.07" width="6" height="14.32" rx="1.5" fill="#0ecb81" /><line x1="533.57" y1="322.19" x2="533.57" y2="345.04" stroke="#f6465d" stroke-width="1.4" /><rect x="530.57" y="333.77" width="6" height="6.70" rx="1.5" fill="#f6465d" /><line x1="544.30" y1="338.34" x2="544.30" y2="369.12" stroke="#f6465d" stroke-width="1.4" /><rect x="541.30" y="340.47" width="6" height="8.53" rx="1.5" fill="#f6465d" /><line x1="555.04" y1="327.07" x2="555.04" y2="350.22" stroke="#0ecb81" stroke-width="1.4" /><rect x="552.04" y="343.22" width="6" height="5.79" rx="1.5" fill="#0ecb81" /><line x1="565.77" y1="335.29" x2="565.77" y2="364.85" stroke="#f6465d" stroke-width="1.4" /><rect x="562.77" y="343.22" width="6" height="9.45" rx="1.5" fill="#f6465d" /><line x1="576.51" y1="327.07" x2="576.51" y2="363.02" stroke="#0ecb81" stroke-width="1.4" /><rect x="573.51" y="335.90" width="6" height="17.06" rx="1.5" fill="#0ecb81" /><line x1="587.24" y1="329.20" x2="587.24" y2="351.14" stroke="#f6465d" stroke-width="1.4" /><rect x="584.24" y="335.90" width="6" height="2.00" rx="1.5" fill="#f6465d" /><line x1="597.97" y1="278.31" x2="597.97" y2="338.95" stroke="#0ecb81" stroke-width="1.4" /><rect x="594.97" y="316.10" width="6" height="21.63" rx="1.5" fill="#0ecb81" /><line x1="608.71" y1="296.90" x2="608.71" y2="320.06" stroke="#0ecb81" stroke-width="1.4" /><rect x="605.71" y="300.25" width="6" height="15.24" rx="1.5" fill="#0ecb81" /><line x1="619.44" y1="278.62" x2="619.44" y2="311.22" stroke="#0ecb81" stroke-width="1.4" /><rect x="616.44" y="285.01" width="6" height="14.63" rx="1.5" fill="#0ecb81" /><line x1="630.18" y1="281.66" x2="630.18" y2="316.40" stroke="#f6465d" stroke-width="1.4" /><rect x="627.18" y="284.71" width="6" height="26.21" rx="1.5" fill="#f6465d" /><line x1="640.91" y1="273.13" x2="640.91" y2="311.83" stroke="#0ecb81" stroke-width="1.4" /><rect x="637.91" y="291.72" width="6" height="19.50" rx="1.5" fill="#0ecb81" /><line x1="651.65" y1="133.87" x2="651.65" y2="295.38" stroke="#0ecb81" stroke-width="1.4" /><rect x="648.65" y="196.04" width="6" height="95.38" rx="1.5" fill="#0ecb81" /><line x1="662.38" y1="85.12" x2="662.38" y2="214.02" stroke="#0ecb81" stroke-width="1.4" /><rect x="659.38" y="87.25" width="6" height="108.78" rx="1.5" fill="#0ecb81" /><line x1="673.11" y1="58.00" x2="673.11" y2="122.60" stroke="#f6465d" stroke-width="1.4" /><rect x="670.11" y="86.95" width="6" height="14.93" rx="1.5" fill="#f6465d" /><line x1="683.85" y1="97.31" x2="683.85" y2="184.15" stroke="#f6465d" stroke-width="1.4" /><rect x="680.85" y="101.88" width="6" height="60.94" rx="1.5" fill="#f6465d" /><line x1="694.58" y1="160.39" x2="694.58" y2="233.82" stroke="#f6465d" stroke-width="1.4" /><rect x="691.58" y="162.21" width="6" height="49.06" rx="1.5" fill="#f6465d" /><line x1="705.32" y1="193.29" x2="705.32" y2="221.33" stroke="#0ecb81" stroke-width="1.4" /><rect x="702.32" y="210.05" width="6" height="2.00" rx="1.5" fill="#0ecb81" /><line x1="716.05" y1="178.97" x2="716.05" y2="218.28" stroke="#f6465d" stroke-width="1.4" /><rect x="713.05" y="210.36" width="6" height="2.13" rx="1.5" fill="#f6465d" /><line x1="726.78" y1="188.11" x2="726.78" y2="227.42" stroke="#f6465d" stroke-width="1.4" /><rect x="723.78" y="212.49" width="6" height="3.35" rx="1.5" fill="#f6465d" /><line x1="737.52" y1="207.31" x2="737.52" y2="271.00" stroke="#f6465d" stroke-width="1.4" /><rect x="734.52" y="215.84" width="6" height="51.50" rx="1.5" fill="#f6465d" /><line x1="748.25" y1="239.61" x2="748.25" y2="279.23" stroke="#0ecb81" stroke-width="1.4" /><rect x="745.25" y="253.63" width="6" height="13.41" rx="1.5" fill="#0ecb81" /><line x1="758.99" y1="248.45" x2="758.99" y2="267.65" stroke="#0ecb81" stroke-width="1.4" /><rect x="755.99" y="253.93" width="6" height="2.00" rx="1.5" fill="#0ecb81" /><line x1="769.72" y1="213.10" x2="769.72" y2="290.50" stroke="#f6465d" stroke-width="1.4" /><rect x="766.72" y="253.63" width="6" height="27.73" rx="1.5" fill="#f6465d" /><line x1="780.46" y1="276.79" x2="780.46" y2="308.17" stroke="#f6465d" stroke-width="1.4" /><rect x="777.46" y="281.66" width="6" height="15.24" rx="1.5" fill="#f6465d" /><line x1="791.19" y1="261.25" x2="791.19" y2="303.91" stroke="#0ecb81" stroke-width="1.4" /><rect x="788.19" y="270.08" width="6" height="26.82" rx="1.5" fill="#0ecb81" /><line x1="801.92" y1="235.04" x2="801.92" y2="282.88" stroke="#0ecb81" stroke-width="1.4" /><rect x="798.92" y="257.29" width="6" height="12.80" rx="1.5" fill="#0ecb81" /><line x1="812.66" y1="255.76" x2="812.66" y2="279.53" stroke="#f6465d" stroke-width="1.4" /><rect x="809.66" y="256.68" width="6" height="5.18" rx="1.5" fill="#f6465d" /><line x1="823.39" y1="260.03" x2="823.39" y2="297.81" stroke="#f6465d" stroke-width="1.4" /><rect x="820.39" y="261.86" width="6" height="22.24" rx="1.5" fill="#f6465d" /><line x1="834.13" y1="262.16" x2="834.13" y2="292.94" stroke="#0ecb81" stroke-width="1.4" /><rect x="831.13" y="267.95" width="6" height="16.15" rx="1.5" fill="#0ecb81" /><line x1="844.86" y1="254.85" x2="844.86" y2="303.91" stroke="#f6465d" stroke-width="1.4" /><rect x="841.86" y="267.95" width="6" height="3.05" rx="1.5" fill="#f6465d" /><line x1="855.59" y1="271.00" x2="855.59" y2="359.37" stroke="#f6465d" stroke-width="1.4" /><rect x="852.59" y="271.30" width="6" height="63.99" rx="1.5" fill="#f6465d" /><line x1="866.33" y1="314.88" x2="866.33" y2="347.48" stroke="#f6465d" stroke-width="1.4" /><rect x="863.33" y="335.60" width="6" height="4.57" rx="1.5" fill="#f6465d" /><line x1="877.06" y1="336.82" x2="877.06" y2="351.14" stroke="#f6465d" stroke-width="1.4" /><rect x="874.06" y="340.17" width="6" height="4.88" rx="1.5" fill="#f6465d" /><line x1="887.80" y1="337.12" x2="887.80" y2="357.23" stroke="#0ecb81" stroke-width="1.4" /><rect x="884.80" y="338.65" width="6" height="6.40" rx="1.5" fill="#0ecb81" /><line x1="898.53" y1="318.23" x2="898.53" y2="345.35" stroke="#f6465d" stroke-width="1.4" /><rect x="895.53" y="338.04" width="6" height="2.00" rx="1.5" fill="#f6465d" /><line x1="909.27" y1="325.85" x2="909.27" y2="346.26" stroke="#f6465d" stroke-width="1.4" /><rect x="906.27" y="338.34" width="6" height="2.44" rx="1.5" fill="#f6465d" /><line x1="920.00" y1="336.21" x2="920.00" y2="347.48" stroke="#f6465d" stroke-width="1.4" /><rect x="917.00" y="340.47" width="6" height="6.40" rx="1.5" fill="#f6465d" />
  <polyline points="72.00,453.83 114.94,442.55 114.94,452.00 179.34,443.77 211.54,448.95" fill="none" stroke="#2fc273" stroke-width="4" stroke-linecap="round" stroke-linejoin="round" />
  <circle cx="72.00" cy="453.83" r="5.5" fill="#2fc273" fill-opacity="0.15" stroke="#2fc273" stroke-width="2" /><text x="72.00" y="441.83" fill="#f3f4f6" font-size="15" font-weight="700" text-anchor="middle">X</text><circle cx="114.94" cy="442.55" r="5.5" fill="#2fc273" fill-opacity="0.15" stroke="#2fc273" stroke-width="2" /><text x="114.94" y="430.55" fill="#f3f4f6" font-size="15" font-weight="700" text-anchor="middle">A</text><circle cx="114.94" cy="452.00" r="5.5" fill="#2fc273" fill-opacity="0.15" stroke="#2fc273" stroke-width="2" /><text x="114.94" y="440.00" fill="#f3f4f6" font-size="15" font-weight="700" text-anchor="middle">B</text><circle cx="179.34" cy="443.77" r="5.5" fill="#2fc273" fill-opacity="0.15" stroke="#2fc273" stroke-width="2" /><text x="179.34" y="431.77" fill="#f3f4f6" font-size="15" font-weight="700" text-anchor="middle">C</text><circle cx="211.54" cy="448.95" r="5.5" fill="#2fc273" fill-opacity="0.15" stroke="#2fc273" stroke-width="2" /><text x="211.54" y="436.95" fill="#f3f4f6" font-size="15" font-weight="700" text-anchor="middle">D</text>
  <text x="56" y="492" fill="#8ba0b5" font-size="18">Complete · TP1 1.3025 · TP2 1.3065 · SL 1.2912</text>
</svg>
