<svg xmlns="http://www.w3.org/2000/svg" width="960" height="540" viewBox="0 0 960 540">
  <rect width="960" height="540" rx="24" fill="#0b1220" />
  <rect x="28" y="28" width="904" height="484" rx="22" fill="#111827" stroke="#1f2937" />
  <text x="56" y="74" fill="#f3f4f6" font-size="34" font-weight="700">PUMPUSDT · AB=CD</text>
  <text x="904" y="74" fill="#8ba0b5" font-size="20" text-anchor="end">Bearish (매도) · Score 84.4</text>
  <line x1="72" y1="58" x2="920" y2="58" stroke="#223045" stroke-width="1" stroke-dasharray="4 8" /><line x1="72" y1="156" x2="920" y2="156" stroke="#223045" stroke-width="1" stroke-dasharray="4 8" /><line x1="72" y1="255" x2="920" y2="255" stroke="#223045" stroke-width="1" stroke-dasharray="4 8" /><line x1="72" y1="353" x2="920" y2="353" stroke="#223045" stroke-width="1" stroke-dasharray="4 8" /><line x1="72" y1="452" x2="920" y2="452" stroke="#223045" stroke-width="1" stroke-dasharray="4 8" />
  <rect x="569.97" y="104.17" width="84" height="49.25" fill="#fbbf24" fill-opacity="0.12" stroke="#fbbf24" stroke-width="1.5" stroke-dasharray="6 6" />
  <line x1="72.00" y1="239.61" x2="72.00" y2="282.70" stroke="#0ecb81" stroke-width="1.4" /><rect x="69.00" y="251.92" width="6" height="21.55" rx="1.5" fill="#0ecb81" /><line x1="82.73" y1="233.45" x2="82.73" y2="276.55" stroke="#0ecb81" stroke-width="1.4" /><rect x="79.73" y="236.53" width="6" height="15.39" rx="1.5" fill="#0ecb81" /><line x1="93.47" y1="233.45" x2="93.47" y2="304.25" stroke="#f6465d" stroke-width="1.4" /><rect x="90.47" y="233.45" width="6" height="70.80" rx="1.5" fill="#f6465d" /><line x1="104.20" y1="279.62" x2="104.20" y2="313.48" stroke="#0ecb81" stroke-width="1.4" /><rect x="101.20" y="291.94" width="6" height="9.23" rx="1.5" fill="#0ecb81" /><line x1="114.94" y1="288.86" x2="114.94" y2="347.34" stroke="#f6465d" stroke-width="1.4" /><rect x="111.94" y="288.86" width="6" height="36.94" rx="1.5" fill="#f6465d" /><line x1="125.67" y1="319.64" x2="125.67" y2="384.28" stroke="#f6465d" stroke-width="1.4" /><rect x="122.67" y="328.88" width="6" height="43.09" rx="1.5" fill="#f6465d" /><line x1="136.41" y1="368.89" x2="136.41" y2="418.14" stroke="#0ecb81" stroke-width="1.4" /><rect x="133.41" y="371.97" width="6" height="3.08" rx="1.5" fill="#0ecb81" /><line x1="147.14" y1="356.58" x2="147.14" y2="452.00" stroke="#f6465d" stroke-width="1.4" /><rect x="144.14" y="371.97" width="6" height="12.31" rx="1.5" fill="#f6465d" /><line x1="157.87" y1="267.31" x2="157.87" y2="411.98" stroke="#0ecb81" stroke-width="1.4" /><rect x="154.87" y="285.78" width="6" height="98.50" rx="1.5" fill="#0ecb81" /><line x1="168.61" y1="285.78" x2="168.61" y2="350.42" stroke="#f6465d" stroke-width="1.4" /><rect x="165.61" y="288.86" width="6" height="40.02" rx="1.5" fill="#f6465d" /><line x1="179.34" y1="264.23" x2="179.34" y2="350.42" stroke="#0ecb81" stroke-width="1.4" /><rect x="176.34" y="288.86" width="6" height="40.02" rx="1.5" fill="#0ecb81" /><line x1="190.08" y1="236.53" x2="190.08" y2="335.03" stroke="#f6465d" stroke-width="1.4" /><rect x="187.08" y="285.78" width="6" height="46.17" rx="1.5" fill="#f6465d" /><line x1="200.81" y1="273.47" x2="200.81" y2="335.03" stroke="#0ecb81" stroke-width="1.4" /><rect x="197.81" y="288.86" width="6" height="43.09" rx="1.5" fill="#0ecb81" /><line x1="211.54" y1="267.31" x2="211.54" y2="313.48" stroke="#0ecb81" stroke-width="1.4" /><rect x="208.54" y="273.47" width="6" height="15.39" rx="1.5" fill="#0ecb81" /><line x1="222.28" y1="174.97" x2="222.28" y2="295.02" stroke="#0ecb81" stroke-width="1.4" /><rect x="219.28" y="230.38" width="6" height="43.09" rx="1.5" fill="#0ecb81" /><line x1="233.01" y1="214.98" x2="233.01" y2="264.23" stroke="#f6465d" stroke-width="1.4" /><rect x="230.01" y="227.30" width="6" height="21.55" rx="1.5" fill="#f6465d" /><line x1="243.75" y1="227.30" x2="243.75" y2="258.08" stroke="#0ecb81" stroke-width="1.4" /><rect x="240.75" y="236.53" width="6" height="9.23" rx="1.5" fill="#0ecb81" /><line x1="254.48" y1="227.30" x2="254.48" y2="258.08" stroke="#0ecb81" stroke-width="1.4" /><rect x="251.48" y="239.61" width="6" height="2.00" rx="1.5" fill="#0ecb81" /><line x1="265.22" y1="224.22" x2="265.22" y2="264.23" stroke="#0ecb81" stroke-width="1.4" /><rect x="262.22" y="236.53" width="6" height="2.00" rx="1.5" fill="#0ecb81" /><line x1="275.95" y1="218.06" x2="275.95" y2="261.16" stroke="#0ecb81" stroke-width="1.4" /><rect x="272.95" y="239.61" width="6" height="2.00" rx="1.5" fill="#0ecb81" /><line x1="286.68" y1="199.59" x2="286.68" y2="255.00" stroke="#0ecb81" stroke-width="1.4" /><rect x="283.68" y="214.98" width="6" height="24.62" rx="1.5" fill="#0ecb81" /><line x1="297.42" y1="178.05" x2="297.42" y2="224.22" stroke="#0ecb81" stroke-width="1.4" /><rect x="294.42" y="199.59" width="6" height="15.39" rx="1.5" fill="#0ecb81" /><line x1="308.15" y1="181.13" x2="308.15" y2="224.22" stroke="#f6465d" stroke-width="1.4" /><rect x="305.15" y="199.59" width="6" height="15.39" rx="1.5" fill="#f6465d" /><line x1="318.89" y1="174.97" x2="318.89" y2="233.45" stroke="#0ecb81" stroke-width="1.4" /><rect x="315.89" y="199.59" width="6" height="12.31" rx="1.5" fill="#0ecb81" /><line x1="329.62" y1="153.42" x2="329.62" y2="214.98" stroke="#0ecb81" stroke-width="1.4" /><rect x="326.62" y="162.66" width="6" height="36.94" rx="1.5" fill="#0ecb81" /><line x1="340.35" y1="110.33" x2="340.35" y2="168.81" stroke="#0ecb81" stroke-width="1.4" /><rect x="337.35" y="134.95" width="6" height="27.70" rx="1.5" fill="#0ecb81" /><line x1="351.09" y1="98.02" x2="351.09" y2="138.03" stroke="#0ecb81" stroke-width="1.4" /><rect x="348.09" y="122.64" width="6" height="12.31" rx="1.5" fill="#0ecb81" /><line x1="361.82" y1="94.94" x2="361.82" y2="141.11" stroke="#0ecb81" stroke-width="1.4" /><rect x="358.82" y="110.33" width="6" height="12.31" rx="1.5" fill="#0ecb81" /><line x1="372.56" y1="110.33" x2="372.56" y2="162.66" stroke="#f6465d" stroke-width="1.4" /><rect x="369.56" y="110.33" width="6" height="24.62" rx="1.5" fill="#f6465d" /><line x1="383.29" y1="101.09" x2="383.29" y2="147.27" stroke="#0ecb81" stroke-width="1.4" /><rect x="380.29" y="107.25" width="6" height="27.70" rx="1.5" fill="#0ecb81" /><line x1="394.03" y1="58.00" x2="394.03" y2="178.05" stroke="#f6465d" stroke-width="1.4" /><rect x="391.03" y="107.25" width="6" height="52.33" rx="1.5" fill="#f6465d" /><line x1="404.76" y1="138.03" x2="404.76" y2="181.13" stroke="#0ecb81" stroke-width="1.4" /><rect x="401.76" y="144.19" width="6" height="12.31" rx="1.5" fill="#0ecb81" /><line x1="415.49" y1="98.02" x2="415.49" y2="156.50" stroke="#0ecb81" stroke-width="1.4" /><rect x="412.49" y="110.33" width="6" height="36.94" rx="1.5" fill="#0ecb81" /><line x1="426.23" y1="70.31" x2="426.23" y2="138.03" stroke="#f6465d" stroke-width="1.4" /><rect x="423.23" y="113.41" width="6" height="21.55" rx="1.5" fill="#f6465d" /><line x1="436.96" y1="110.33" x2="436.96" y2="138.03" stroke="#0ecb81" stroke-width="1.4" /><rect x="433.96" y="113.41" width="6" height="21.55" rx="1.5" fill="#0ecb81" /><line x1="447.70" y1="113.41" x2="447.70" y2="174.97" stroke="#f6465d" stroke-width="1.4" /><rect x="444.70" y="116.48" width="6" height="43.09" rx="1.5" fill="#f6465d" /><line x1="458.43" y1="138.03" x2="458.43" y2="174.97" stroke="#f6465d" stroke-width="1.4" /><rect x="455.43" y="162.66" width="6" height="9.23" rx="1.5" fill="#f6465d" /><line x1="469.16" y1="165.73" x2="469.16" y2="208.83" stroke="#0ecb81" stroke-width="1.4" /><rect x="466.16" y="165.73" width="6" height="9.23" rx="1.5" fill="#0ecb81" /><line x1="479.90" y1="153.42" x2="479.90" y2="184.20" stroke="#f6465d" stroke-width="1.4" /><rect x="476.90" y="168.81" width="6" height="6.16" rx="1.5" fill="#f6465d" /><line x1="490.63" y1="156.50" x2="490.63" y2="181.13" stroke="#0ecb81" stroke-width="1.4" /><rect x="487.63" y="156.50" width="6" height="18.47" rx="1.5" fill="#0ecb81" /><line x1="501.37" y1="153.42" x2="501.37" y2="208.83" stroke="#f6465d" stroke-width="1.4" /><rect x="498.37" y="156.50" width="6" height="46.17" rx="1.5" fill="#f6465d" /><line x1="512.10" y1="174.97" x2="512.10" y2="208.83" stroke="#0ecb81" stroke-width="1.4" /><rect x="509.10" y="178.05" width="6" height="24.62" rx="1.5" fill="#0ecb81" /><line x1="522.84" y1="178.05" x2="522.84" y2="199.59" stroke="#f6465d" stroke-width="1.4" /><rect x="519.84" y="178.05" width="6" height="15.39" rx="1.5" fill="#f6465d" /><line x1="533.57" y1="187.28" x2="533.57" y2="208.83" stroke="#0ecb81" stroke-width="1.4" /><rect x="530.57" y="193.44" width="6" height="2.00" rx="1.5" fill="#0ecb81" /><line x1="544.30" y1="168.81" x2="544.30" y2="202.67" stroke="#0ecb81" stroke-width="1.4" /><rect x="541.30" y="193.44" width="6" height="2.00" rx="1.5" fill="#0ecb81" /><line x1="555.04" y1="171.89" x2="555.04" y2="199.59" stroke="#0ecb81" stroke-width="1.4" /><rect x="552.04" y="184.20" width="6" height="9.23" rx="1.5" fill="#0ecb81" /><line x1="565.77" y1="171.89" x2="565.77" y2="196.52" stroke="#0ecb81" stroke-width="1.4" /><rect x="562.77" y="178.05" width="6" height="6.16" rx="1.5" fill="#0ecb81" /><line x1="576.51" y1="153.42" x2="576.51" y2="190.36" stroke="#f6465d" stroke-width="1.4" /><rect x="573.51" y="174.97" width="6" height="15.39" rx="1.5" fill="#f6465d" /><line x1="587.24" y1="144.19" x2="587.24" y2="196.52" stroke="#0ecb81" stroke-width="1.4" /><rect x="584.24" y="144.19" width="6" height="46.17" rx="1.5" fill="#0ecb81" /><line x1="597.97" y1="141.11" x2="597.97" y2="162.66" stroke="#f6465d" stroke-width="1.4" /><rect x="594.97" y="147.27" width="6" height="3.08" rx="1.5" fill="#f6465d" /><line x1="608.71" y1="144.19" x2="608.71" y2="190.36" stroke="#f6465d" stroke-width="1.4" /><rect x="605.71" y="150.34" width="6" height="36.94" rx="1.5" fill="#f6465d" /><line x1="619.44" y1="168.81" x2="619.44" y2="193.44" stroke="#0ecb81" stroke-width="1.4" /><rect x="616.44" y="178.05" width="6" height="6.16" rx="1.5" fill="#0ecb81" /><line x1="630.18" y1="147.27" x2="630.18" y2="193.44" stroke="#0ecb81" stroke-width="1.4" /><rect x="627.18" y="159.58" width="6" height="15.39" rx="1.5" fill="#0ecb81" /><line x1="640.91" y1="144.19" x2="640.91" y2="168.81" stroke="#0ecb81" stroke-width="1.4" /><rect x="637.91" y="153.42" width="6" height="3.08" rx="1.5" fill="#0ecb81" /><line x1="651.65" y1="144.19" x2="651.65" y2="181.13" stroke="#f6465d" stroke-width="1.4" /><rect x="648.65" y="150.34" width="6" height="3.08" rx="1.5" fill="#f6465d" /><line x1="662.38" y1="150.34" x2="662.38" y2="196.52" stroke="#f6465d" stroke-width="1.4" /><rect x="659.38" y="153.42" width="6" height="33.86" rx="1.5" fill="#f6465d" /><line x1="673.11" y1="174.97" x2="673.11" y2="233.45" stroke="#0ecb81" stroke-width="1.4" /><rect x="670.11" y="174.97" width="6" height="9.23" rx="1.5" fill="#0ecb81" /><line x1="683.85" y1="104.17" x2="683.85" y2="187.28" stroke="#0ecb81" stroke-width="1.4" /><rect x="680.85" y="138.03" width="6" height="40.02" rx="1.5" fill="#0ecb81" /><line x1="694.58" y1="104.17" x2="694.58" y2="162.66" stroke="#f6465d" stroke-width="1.4" /><rect x="691.58" y="138.03" width="6" height="18.47" rx="1.5" fill="#f6465d" /><line x1="705.32" y1="107.25" x2="705.32" y2="165.73" stroke="#0ecb81" stroke-width="1.4" /><rect x="702.32" y="122.64" width="6" height="33.86" rx="1.5" fill="#0ecb81" /><line x1="716.05" y1="107.25" x2="716.05" y2="131.88" stroke="#f6465d" stroke-width="1.4" /><rect x="713.05" y="119.56" width="6" height="6.16" rx="1.5" fill="#f6465d" /><line x1="726.78" y1="76.47" x2="726.78" y2="144.19" stroke="#f6465d" stroke-width="1.4" /><rect x="723.78" y="125.72" width="6" height="6.16" rx="1.5" fill="#f6465d" /><line x1="737.52" y1="128.80" x2="737.52" y2="147.27" stroke="#0ecb81" stroke-width="1.4" /><rect x="734.52" y="134.95" width="6" height="2.00" rx="1.5" fill="#0ecb81" /><line x1="748.25" y1="98.02" x2="748.25" y2="138.03" stroke="#0ecb81" stroke-width="1.4" /><rect x="745.25" y="122.64" width="6" height="12.31" rx="1.5" fill="#0ecb81" /><line x1="758.99" y1="98.02" x2="758.99" y2="128.80" stroke="#0ecb81" stroke-width="1.4" /><rect x="755.99" y="110.33" width="6" height="12.31" rx="1.5" fill="#0ecb81" /><line x1="769.72" y1="110.33" x2="769.72" y2="131.88" stroke="#f6465d" stroke-width="1.4" /><rect x="766.72" y="110.33" width="6" height="6.16" rx="1.5" fill="#f6465d" /><line x1="780.46" y1="113.41" x2="780.46" y2="141.11" stroke="#f6465d" stroke-width="1.4" /><rect x="777.46" y="113.41" width="6" height="18.47" rx="1.5" fill="#f6465d" /><line x1="791.19" y1="122.64" x2="791.19" y2="150.34" stroke="#f6465d" stroke-width="1.4" /><rect x="788.19" y="128.80" width="6" height="15.39" rx="1.5" fill="#f6465d" /><line x1="801.92" y1="134.95" x2="801.92" y2="162.66" stroke="#0ecb81" stroke-width="1.4" /><rect x="798.92" y="138.03" width="6" height="9.23" rx="1.5" fill="#0ecb81" /><line x1="812.66" y1="125.72" x2="812.66" y2="144.19" stroke="#0ecb81" stroke-width="1.4" /><rect x="809.66" y="138.03" width="6" height="3.08" rx="1.5" fill="#0ecb81" /><line x1="823.39" y1="134.95" x2="823.39" y2="159.58" stroke="#f6465d" stroke-width="1.4" /><rect x="820.39" y="134.95" width="6" height="12.31" rx="1.5" fill="#f6465d" /><line x1="834.13" y1="141.11" x2="834.13" y2="199.59" stroke="#f6465d" stroke-width="1.4" /><rect x="831.13" y="147.27" width="6" height="43.09" rx="1.5" fill="#f6465d" /><line x1="844.86" y1="184.20" x2="844.86" y2="236.53" stroke="#f6465d" stroke-width="1.4" /><rect x="841.86" y="193.44" width="6" height="9.23" rx="1.5" fill="#f6465d" /><line x1="855.59" y1="193.44" x2="855.59" y2="233.45" stroke="#f6465d" stroke-width="1.4" /><rect x="852.59" y="199.59" width="6" height="18.47" rx="1.5" fill="#f6465d" /><line x1="866.33" y1="199.59" x2="866.33" y2="221.14" stroke="#0ecb81" stroke-width="1.4" /><rect x="863.33" y="199.59" width="6" height="21.55" rx="1.5" fill="#0ecb81" /><line x1="877.06" y1="159.58" x2="877.06" y2="199.59" stroke="#0ecb81" stroke-width="1.4" /><rect x="874.06" y="159.58" width="6" height="40.02" rx="1.5" fill="#0ecb81" /><line x1="887.80" y1="141.11" x2="887.80" y2="196.52" stroke="#f6465d" stroke-width="1.4" /><rect x="884.80" y="162.66" width="6" height="33.86" rx="1.5" fill="#f6465d" /><line x1="898.53" y1="168.81" x2="898.53" y2="199.59" stroke="#0ecb81" stroke-width="1.4" /><rect x="895.53" y="178.05" width="6" height="18.47" rx="1.5" fill="#0ecb81" /><line x1="909.27" y1="171.89" x2="909.27" y2="248.84" stroke="#f6465d" stroke-width="1.4" /><rect x="906.27" y="174.97" width="6" height="55.41" rx="1.5" fill="#f6465d" /><line x1="920.00" y1="224.22" x2="920.00" y2="230.38" stroke="#0ecb81" stroke-width="1.4" /><rect x="917.00" y="224.22" width="6" height="6.16" rx="1.5" fill="#0ecb81" />
  <polyline points="394.03,58.00 469.16,208.83 501.37,153.42 533.57,208.83 597.97,141.11" fill="none" stroke="#2fc273" stroke-width="4" stroke-linecap="round" stroke-linejoin="round" />
  <circle cx="394.03" cy="58.00" r="5.5" fill="#2fc273" fill-opacity="0.15" stroke="#2fc273" stroke-width="2" /><text x="394.03" y="46.00" fill="#f3f4f6" font-size="15" font-weight="700" text-anchor="middle">X</text><circle cx="469.16" cy="208.83" r="5.5" fill="#2fc273" fill-opacity="0.15" stroke="#2fc273" stroke-width="2" /><text x="469.16" y="196.83" fill="#f3f4f6" font-size="15" font-weight="700" text-anchor="middle">A</text><circle cx="501.37" cy="153.42" r="5.5" fill="#2fc273" fill-opacity="0.15" stroke="#2fc273" stroke-width="2" /><text x="501.37" y="141.42" fill="#f3f4f6" font-size="15" font-weight="700" text-anchor="middle">B</text><circle cx="533.57" cy="208.83" r="5.5" fill="#2fc273" fill-opacity="0.15" stroke="#2fc273" stroke-width="2" /><text x="533.57" y="196.83" fill="#f3f4f6" font-size="15" font-weight="700" text-anchor="middle">C</text><circle cx="597.97" cy="141.11" r="5.5" fill="#2fc273" fill-opacity="0.15" stroke="#2fc273" stroke-width="2" /><text x="597.97" y="129.11" fill="#f3f4f6" font-size="15" font-weight="700" text-anchor="middle">D</text>
  <text x="56" y="492" fill="#8ba0b5" font-size="18">일반 완성 · TP1 0.001655 · TP2 0.001649 · SL 0.001669</text>
</svg>
