<svg xmlns="http://www.w3.org/2000/svg" width="960" height="540" viewBox="0 0 960 540">
  <rect width="960" height="540" rx="24" fill="#0b1220" />
  <rect x="28" y="28" width="904" height="484" rx="22" fill="#111827" stroke="#1f2937" />
  <text x="56" y="74" fill="#f3f4f6" font-size="34" font-weight="700">RENDERUSDT · AB=CD</text>
  <text x="904" y="74" fill="#8ba0b5" font-size="20" text-anchor="end">Bearish (매도) · Score 82.6</text>
  <line x1="72" y1="58" x2="920" y2="58" stroke="#223045" stroke-width="1" stroke-dasharray="4 8" /><line x1="72" y1="156" x2="920" y2="156" stroke="#223045" stroke-width="1" stroke-dasharray="4 8" /><line x1="72" y1="255" x2="920" y2="255" stroke="#223045" stroke-width="1" stroke-dasharray="4 8" /><line x1="72" y1="353" x2="920" y2="353" stroke="#223045" stroke-width="1" stroke-dasharray="4 8" /><line x1="72" y1="452" x2="920" y2="452" stroke="#223045" stroke-width="1" stroke-dasharray="4 8" />
  <rect x="806.13" y="99.61" width="84" height="46.93" fill="#fbbf24" fill-opacity="0.12" stroke="#fbbf24" stroke-width="1.5" stroke-dasharray="6 6" />
  <line x1="72.00" y1="388.55" x2="72.00" y2="423.96" stroke="#0ecb81" stroke-width="1.4" /><rect x="69.00" y="398.88" width="6" height="19.18" rx="1.5" fill="#0ecb81" /><line x1="82.73" y1="359.03" x2="82.73" y2="403.30" stroke="#0ecb81" stroke-width="1.4" /><rect x="79.73" y="361.99" width="6" height="36.89" rx="1.5" fill="#0ecb81" /><line x1="93.47" y1="360.51" x2="93.47" y2="406.25" stroke="#f6465d" stroke-width="1.4" /><rect x="90.47" y="363.46" width="6" height="42.79" rx="1.5" fill="#f6465d" /><line x1="104.20" y1="379.69" x2="104.20" y2="426.91" stroke="#f6465d" stroke-width="1.4" /><rect x="101.20" y="404.78" width="6" height="13.28" rx="1.5" fill="#f6465d" /><line x1="114.94" y1="415.11" x2="114.94" y2="435.77" stroke="#f6465d" stroke-width="1.4" /><rect x="111.94" y="416.58" width="6" height="5.90" rx="1.5" fill="#f6465d" /><line x1="125.67" y1="407.73" x2="125.67" y2="440.19" stroke="#0ecb81" stroke-width="1.4" /><rect x="122.67" y="415.11" width="6" height="7.38" rx="1.5" fill="#0ecb81" /><line x1="136.41" y1="397.40" x2="136.41" y2="431.34" stroke="#f6465d" stroke-width="1.4" /><rect x="133.41" y="416.58" width="6" height="13.28" rx="1.5" fill="#f6465d" /><line x1="147.14" y1="413.63" x2="147.14" y2="452.00" stroke="#0ecb81" stroke-width="1.4" /><rect x="144.14" y="416.58" width="6" height="13.28" rx="1.5" fill="#0ecb81" /><line x1="157.87" y1="325.09" x2="157.87" y2="422.49" stroke="#0ecb81" stroke-width="1.4" /><rect x="154.87" y="354.61" width="6" height="61.98" rx="1.5" fill="#0ecb81" /><line x1="168.61" y1="319.19" x2="168.61" y2="373.79" stroke="#0ecb81" stroke-width="1.4" /><rect x="165.61" y="338.37" width="6" height="14.76" rx="1.5" fill="#0ecb81" /><line x1="179.34" y1="305.91" x2="179.34" y2="363.46" stroke="#0ecb81" stroke-width="1.4" /><rect x="176.34" y="313.29" width="6" height="23.61" rx="1.5" fill="#0ecb81" /><line x1="190.08" y1="269.02" x2="190.08" y2="329.52" stroke="#f6465d" stroke-width="1.4" /><rect x="187.08" y="313.29" width="6" height="13.28" rx="1.5" fill="#f6465d" /><line x1="200.81" y1="279.35" x2="200.81" y2="345.75" stroke="#0ecb81" stroke-width="1.4" /><rect x="197.81" y="283.78" width="6" height="41.32" rx="1.5" fill="#0ecb81" /><line x1="211.54" y1="226.22" x2="211.54" y2="300.01" stroke="#0ecb81" stroke-width="1.4" /><rect x="208.54" y="230.65" width="6" height="51.65" rx="1.5" fill="#0ecb81" /><line x1="222.28" y1="164.25" x2="222.28" y2="248.36" stroke="#0ecb81" stroke-width="1.4" /><rect x="219.28" y="229.18" width="6" height="2.00" rx="1.5" fill="#0ecb81" /><line x1="233.01" y1="192.28" x2="233.01" y2="243.93" stroke="#0ecb81" stroke-width="1.4" /><rect x="230.01" y="218.85" width="6" height="10.33" rx="1.5" fill="#0ecb81" /><line x1="243.75" y1="181.96" x2="243.75" y2="223.27" stroke="#0ecb81" stroke-width="1.4" /><rect x="240.75" y="204.09" width="6" height="14.76" rx="1.5" fill="#0ecb81" /><line x1="254.48" y1="195.24" x2="254.48" y2="239.51" stroke="#0ecb81" stroke-width="1.4" /><rect x="251.48" y="196.71" width="6" height="8.85" rx="1.5" fill="#0ecb81" /><line x1="265.22" y1="179.00" x2="265.22" y2="238.03" stroke="#f6465d" stroke-width="1.4" /><rect x="262.22" y="196.71" width="6" height="28.04" rx="1.5" fill="#f6465d" /><line x1="275.95" y1="208.52" x2="275.95" y2="238.03" stroke="#f6465d" stroke-width="1.4" /><rect x="272.95" y="223.27" width="6" height="5.90" rx="1.5" fill="#f6465d" /><line x1="286.68" y1="190.81" x2="286.68" y2="239.51" stroke="#0ecb81" stroke-width="1.4" /><rect x="283.68" y="202.61" width="6" height="26.56" rx="1.5" fill="#0ecb81" /><line x1="297.42" y1="139.16" x2="297.42" y2="204.09" stroke="#0ecb81" stroke-width="1.4" /><rect x="294.42" y="155.39" width="6" height="47.22" rx="1.5" fill="#0ecb81" /><line x1="308.15" y1="111.12" x2="308.15" y2="180.48" stroke="#0ecb81" stroke-width="1.4" /><rect x="305.15" y="152.44" width="6" height="4.43" rx="1.5" fill="#0ecb81" /><line x1="318.89" y1="136.21" x2="318.89" y2="177.53" stroke="#f6465d" stroke-width="1.4" /><rect x="315.89" y="152.44" width="6" height="20.66" rx="1.5" fill="#f6465d" /><line x1="329.62" y1="112.60" x2="329.62" y2="176.05" stroke="#0ecb81" stroke-width="1.4" /><rect x="326.62" y="119.98" width="6" height="53.12" rx="1.5" fill="#0ecb81" /><line x1="340.35" y1="88.99" x2="340.35" y2="137.69" stroke="#0ecb81" stroke-width="1.4" /><rect x="337.35" y="115.55" width="6" height="4.43" rx="1.5" fill="#0ecb81" /><line x1="351.09" y1="97.84" x2="351.09" y2="177.53" stroke="#f6465d" stroke-width="1.4" /><rect x="348.09" y="114.07" width="6" height="61.98" rx="1.5" fill="#f6465d" /><line x1="361.82" y1="128.83" x2="361.82" y2="179.00" stroke="#0ecb81" stroke-width="1.4" /><rect x="358.82" y="158.34" width="6" height="17.71" rx="1.5" fill="#0ecb81" /><line x1="372.56" y1="134.73" x2="372.56" y2="167.20" stroke="#0ecb81" stroke-width="1.4" /><rect x="369.56" y="143.59" width="6" height="13.28" rx="1.5" fill="#0ecb81" /><line x1="383.29" y1="122.93" x2="383.29" y2="173.10" stroke="#0ecb81" stroke-width="1.4" /><rect x="380.29" y="124.40" width="6" height="19.18" rx="1.5" fill="#0ecb81" /><line x1="394.03" y1="99.32" x2="394.03" y2="171.63" stroke="#f6465d" stroke-width="1.4" /><rect x="391.03" y="125.88" width="6" height="32.46" rx="1.5" fill="#f6465d" /><line x1="404.76" y1="127.36" x2="404.76" y2="162.77" stroke="#0ecb81" stroke-width="1.4" /><rect x="401.76" y="143.59" width="6" height="13.28" rx="1.5" fill="#0ecb81" /><line x1="415.49" y1="112.60" x2="415.49" y2="152.44" stroke="#0ecb81" stroke-width="1.4" /><rect x="412.49" y="117.03" width="6" height="28.04" rx="1.5" fill="#0ecb81" /><line x1="426.23" y1="112.60" x2="426.23" y2="143.59" stroke="#f6465d" stroke-width="1.4" /><rect x="423.23" y="118.50" width="6" height="23.61" rx="1.5" fill="#f6465d" /><line x1="436.96" y1="117.03" x2="436.96" y2="149.49" stroke="#0ecb81" stroke-width="1.4" /><rect x="433.96" y="130.31" width="6" height="11.81" rx="1.5" fill="#0ecb81" /><line x1="447.70" y1="83.09" x2="447.70" y2="134.73" stroke="#0ecb81" stroke-width="1.4" /><rect x="444.70" y="96.37" width="6" height="32.46" rx="1.5" fill="#0ecb81" /><line x1="458.43" y1="74.23" x2="458.43" y2="131.78" stroke="#f6465d" stroke-width="1.4" /><rect x="455.43" y="96.37" width="6" height="32.46" rx="1.5" fill="#f6465d" /><line x1="469.16" y1="88.99" x2="469.16" y2="143.59" stroke="#0ecb81" stroke-width="1.4" /><rect x="466.16" y="93.42" width="6" height="33.94" rx="1.5" fill="#0ecb81" /><line x1="479.90" y1="62.43" x2="479.90" y2="105.22" stroke="#0ecb81" stroke-width="1.4" /><rect x="476.90" y="78.66" width="6" height="16.23" rx="1.5" fill="#0ecb81" /><line x1="490.63" y1="58.00" x2="490.63" y2="109.65" stroke="#f6465d" stroke-width="1.4" /><rect x="487.63" y="77.18" width="6" height="23.61" rx="1.5" fill="#f6465d" /><line x1="501.37" y1="97.84" x2="501.37" y2="124.40" stroke="#f6465d" stroke-width="1.4" /><rect x="498.37" y="102.27" width="6" height="14.76" rx="1.5" fill="#f6465d" /><line x1="512.10" y1="91.94" x2="512.10" y2="133.26" stroke="#0ecb81" stroke-width="1.4" /><rect x="509.10" y="94.89" width="6" height="22.13" rx="1.5" fill="#0ecb81" /><line x1="522.84" y1="81.61" x2="522.84" y2="133.26" stroke="#f6465d" stroke-width="1.4" /><rect x="519.84" y="94.89" width="6" height="30.99" rx="1.5" fill="#f6465d" /><line x1="533.57" y1="111.12" x2="533.57" y2="164.25" stroke="#f6465d" stroke-width="1.4" /><rect x="530.57" y="125.88" width="6" height="20.66" rx="1.5" fill="#f6465d" /><line x1="544.30" y1="119.98" x2="544.30" y2="153.92" stroke="#0ecb81" stroke-width="1.4" /><rect x="541.30" y="125.88" width="6" height="19.18" rx="1.5" fill="#0ecb81" /><line x1="555.04" y1="112.60" x2="555.04" y2="134.73" stroke="#0ecb81" stroke-width="1.4" /><rect x="552.04" y="121.45" width="6" height="2.95" rx="1.5" fill="#0ecb81" /><line x1="565.77" y1="115.55" x2="565.77" y2="137.69" stroke="#f6465d" stroke-width="1.4" /><rect x="562.77" y="122.93" width="6" height="13.28" rx="1.5" fill="#f6465d" /><line x1="576.51" y1="134.73" x2="576.51" y2="155.39" stroke="#f6465d" stroke-width="1.4" /><rect x="573.51" y="137.69" width="6" height="16.23" rx="1.5" fill="#f6465d" /><line x1="587.24" y1="96.37" x2="587.24" y2="158.34" stroke="#0ecb81" stroke-width="1.4" /><rect x="584.24" y="102.27" width="6" height="51.65" rx="1.5" fill="#0ecb81" /><line x1="597.97" y1="90.46" x2="597.97" y2="125.88" stroke="#f6465d" stroke-width="1.4" /><rect x="594.97" y="100.79" width="6" height="20.66" rx="1.5" fill="#f6465d" /><line x1="608.71" y1="108.17" x2="608.71" y2="142.11" stroke="#f6465d" stroke-width="1.4" /><rect x="605.71" y="121.45" width="6" height="19.18" rx="1.5" fill="#f6465d" /><line x1="619.44" y1="125.88" x2="619.44" y2="149.49" stroke="#f6465d" stroke-width="1.4" /><rect x="616.44" y="140.64" width="6" height="2.95" rx="1.5" fill="#f6465d" /><line x1="630.18" y1="127.36" x2="630.18" y2="153.92" stroke="#0ecb81" stroke-width="1.4" /><rect x="627.18" y="140.64" width="6" height="2.95" rx="1.5" fill="#0ecb81" /><line x1="640.91" y1="131.78" x2="640.91" y2="152.44" stroke="#0ecb81" stroke-width="1.4" /><rect x="637.91" y="137.69" width="6" height="4.43" rx="1.5" fill="#0ecb81" /><line x1="651.65" y1="128.83" x2="651.65" y2="148.01" stroke="#0ecb81" stroke-width="1.4" /><rect x="648.65" y="136.21" width="6" height="2.00" rx="1.5" fill="#0ecb81" /><line x1="662.38" y1="133.26" x2="662.38" y2="156.87" stroke="#f6465d" stroke-width="1.4" /><rect x="659.38" y="134.73" width="6" height="14.76" rx="1.5" fill="#f6465d" /><line x1="673.11" y1="143.59" x2="673.11" y2="170.15" stroke="#0ecb81" stroke-width="1.4" /><rect x="670.11" y="145.06" width="6" height="5.90" rx="1.5" fill="#0ecb81" /><line x1="683.85" y1="133.26" x2="683.85" y2="161.30" stroke="#f6465d" stroke-width="1.4" /><rect x="680.85" y="145.06" width="6" height="13.28" rx="1.5" fill="#f6465d" /><line x1="694.58" y1="155.39" x2="694.58" y2="204.09" stroke="#f6465d" stroke-width="1.4" /><rect x="691.58" y="156.87" width="6" height="45.75" rx="1.5" fill="#f6465d" /><line x1="705.32" y1="171.63" x2="705.32" y2="218.85" stroke="#0ecb81" stroke-width="1.4" /><rect x="702.32" y="181.96" width="6" height="20.66" rx="1.5" fill="#0ecb81" /><line x1="716.05" y1="165.72" x2="716.05" y2="193.76" stroke="#0ecb81" stroke-width="1.4" /><rect x="713.05" y="177.53" width="6" height="4.43" rx="1.5" fill="#0ecb81" /><line x1="726.78" y1="152.44" x2="726.78" y2="190.81" stroke="#f6465d" stroke-width="1.4" /><rect x="723.78" y="177.53" width="6" height="2.95" rx="1.5" fill="#f6465d" /><line x1="737.52" y1="177.53" x2="737.52" y2="193.76" stroke="#f6465d" stroke-width="1.4" /><rect x="734.52" y="179.00" width="6" height="8.85" rx="1.5" fill="#f6465d" /><line x1="748.25" y1="187.86" x2="748.25" y2="208.52" stroke="#f6465d" stroke-width="1.4" /><rect x="745.25" y="189.33" width="6" height="10.33" rx="1.5" fill="#f6465d" /><line x1="758.99" y1="183.43" x2="758.99" y2="202.61" stroke="#0ecb81" stroke-width="1.4" /><rect x="755.99" y="198.19" width="6" height="2.00" rx="1.5" fill="#0ecb81" /><line x1="769.72" y1="187.86" x2="769.72" y2="205.57" stroke="#0ecb81" stroke-width="1.4" /><rect x="766.72" y="192.28" width="6" height="5.90" rx="1.5" fill="#0ecb81" /><line x1="780.46" y1="183.43" x2="780.46" y2="212.94" stroke="#0ecb81" stroke-width="1.4" /><rect x="777.46" y="184.91" width="6" height="5.90" rx="1.5" fill="#0ecb81" /><line x1="791.19" y1="170.15" x2="791.19" y2="195.24" stroke="#f6465d" stroke-width="1.4" /><rect x="788.19" y="183.43" width="6" height="5.90" rx="1.5" fill="#f6465d" /><line x1="801.92" y1="183.43" x2="801.92" y2="201.14" stroke="#0ecb81" stroke-width="1.4" /><rect x="798.92" y="187.86" width="6" height="2.00" rx="1.5" fill="#0ecb81" /><line x1="812.66" y1="158.34" x2="812.66" y2="195.24" stroke="#0ecb81" stroke-width="1.4" /><rect x="809.66" y="158.34" width="6" height="28.04" rx="1.5" fill="#0ecb81" /><line x1="823.39" y1="142.11" x2="823.39" y2="164.25" stroke="#0ecb81" stroke-width="1.4" /><rect x="820.39" y="158.34" width="6" height="2.00" rx="1.5" fill="#0ecb81" /><line x1="834.13" y1="139.16" x2="834.13" y2="184.91" stroke="#f6465d" stroke-width="1.4" /><rect x="831.13" y="156.87" width="6" height="23.61" rx="1.5" fill="#f6465d" /><line x1="844.86" y1="170.15" x2="844.86" y2="212.94" stroke="#f6465d" stroke-width="1.4" /><rect x="841.86" y="181.96" width="6" height="14.76" rx="1.5" fill="#f6465d" /><line x1="855.59" y1="192.28" x2="855.59" y2="238.03" stroke="#f6465d" stroke-width="1.4" /><rect x="852.59" y="195.24" width="6" height="32.46" rx="1.5" fill="#f6465d" /><line x1="866.33" y1="212.94" x2="866.33" y2="238.03" stroke="#0ecb81" stroke-width="1.4" /><rect x="863.33" y="217.37" width="6" height="11.81" rx="1.5" fill="#0ecb81" /><line x1="877.06" y1="208.52" x2="877.06" y2="223.27" stroke="#0ecb81" stroke-width="1.4" /><rect x="874.06" y="215.90" width="6" height="2.00" rx="1.5" fill="#0ecb81" /><line x1="887.80" y1="193.76" x2="887.80" y2="223.27" stroke="#f6465d" stroke-width="1.4" /><rect x="884.80" y="215.90" width="6" height="5.90" rx="1.5" fill="#f6465d" /><line x1="898.53" y1="217.37" x2="898.53" y2="249.84" stroke="#f6465d" stroke-width="1.4" /><rect x="895.53" y="223.27" width="6" height="7.38" rx="1.5" fill="#f6465d" /><line x1="909.27" y1="230.65" x2="909.27" y2="266.07" stroke="#f6465d" stroke-width="1.4" /><rect x="906.27" y="230.65" width="6" height="16.23" rx="1.5" fill="#f6465d" /><line x1="920.00" y1="242.46" x2="920.00" y2="248.36" stroke="#0ecb81" stroke-width="1.4" /><rect x="917.00" y="243.93" width="6" height="2.95" rx="1.5" fill="#0ecb81" />
  <polyline points="597.97,90.46 705.32,218.85 726.78,152.44 780.46,212.94 834.13,139.16" fill="none" stroke="#2fc273" stroke-width="4" stroke-linecap="round" stroke-linejoin="round" />
  <circle cx="597.97" cy="90.46" r="5.5" fill="#2fc273" fill-opacity="0.15" stroke="#2fc273" stroke-width="2" /><text x="597.97" y="78.46" fill="#f3f4f6" font-size="15" font-weight="700" text-anchor="middle">X</text><circle cx="705.32" cy="218.85" r="5.5" fill="#2fc273" fill-opacity="0.15" stroke="#2fc273" stroke-width="2" /><text x="705.32" y="206.85" fill="#f3f4f6" font-size="15" font-weight="700" text-anchor="middle">A</text><circle cx="726.78" cy="152.44" r="5.5" fill="#2fc273" fill-opacity="0.15" stroke="#2fc273" stroke-width="2" /><text x="726.78" y="140.44" fill="#f3f4f6" font-size="15" font-weight="700" text-anchor="middle">B</text><circle cx="780.46" cy="212.94" r="5.5" fill="#2fc273" fill-opacity="0.15" stroke="#2fc273" stroke-width="2" /><text x="780.46" y="200.94" fill="#f3f4f6" font-size="15" font-weight="700" text-anchor="middle">C</text><circle cx="834.13" cy="139.16" r="5.5" fill="#2fc273" fill-opacity="0.15" stroke="#2fc273" stroke-width="2" /><text x="834.13" y="127.16" fill="#f3f4f6" font-size="15" font-weight="700" text-anchor="middle">D</text>
  <text x="56" y="492" fill="#8ba0b5" font-size="18">일반 완성 · TP1 1.8889 · TP2 1.8771 · SL 1.9193</text>
</svg>
