<svg xmlns="http://www.w3.org/2000/svg" width="960" height="540" viewBox="0 0 960 540">
  <rect width="960" height="540" rx="24" fill="#0b1220" />
  <rect x="28" y="28" width="904" height="484" rx="22" fill="#111827" stroke="#1f2937" />
  <text x="56" y="74" fill="#f3f4f6" font-size="34" font-weight="700">RENDERUSDT · AB=CD</text>
  <text x="904" y="74" fill="#8ba0b5" font-size="20" text-anchor="end">Bullish (매수) · Score 82.2</text>
  <line x1="72" y1="58" x2="920" y2="58" stroke="#223045" stroke-width="1" stroke-dasharray="4 8" /><line x1="72" y1="156" x2="920" y2="156" stroke="#223045" stroke-width="1" stroke-dasharray="4 8" /><line x1="72" y1="255" x2="920" y2="255" stroke="#223045" stroke-width="1" stroke-dasharray="4 8" /><line x1="72" y1="353" x2="920" y2="353" stroke="#223045" stroke-width="1" stroke-dasharray="4 8" /><line x1="72" y1="452" x2="920" y2="452" stroke="#223045" stroke-width="1" stroke-dasharray="4 8" />
  <rect x="763.19" y="531.92" width="84" height="19.92" fill="#fbbf24" fill-opacity="0.12" stroke="#fbbf24" stroke-width="1.5" stroke-dasharray="6 6" />
  <line x1="72.00" y1="259.48" x2="72.00" y2="357.98" stroke="#0ecb81" stroke-width="1.4" /><rect x="69.00" y="284.10" width="6" height="71.64" rx="1.5" fill="#0ecb81" /><line x1="82.73" y1="216.94" x2="82.73" y2="322.16" stroke="#0ecb81" stroke-width="1.4" /><rect x="79.73" y="279.62" width="6" height="6.72" rx="1.5" fill="#0ecb81" /><line x1="93.47" y1="255.00" x2="93.47" y2="317.68" stroke="#f6465d" stroke-width="1.4" /><rect x="90.47" y="279.62" width="6" height="31.34" rx="1.5" fill="#f6465d" /><line x1="104.20" y1="219.18" x2="104.20" y2="315.44" stroke="#0ecb81" stroke-width="1.4" /><rect x="101.20" y="230.37" width="6" height="80.59" rx="1.5" fill="#0ecb81" /><line x1="114.94" y1="183.36" x2="114.94" y2="257.24" stroke="#0ecb81" stroke-width="1.4" /><rect x="111.94" y="223.66" width="6" height="6.72" rx="1.5" fill="#0ecb81" /><line x1="125.67" y1="196.80" x2="125.67" y2="317.68" stroke="#f6465d" stroke-width="1.4" /><rect x="122.67" y="221.42" width="6" height="94.02" rx="1.5" fill="#f6465d" /><line x1="136.41" y1="243.81" x2="136.41" y2="319.92" stroke="#0ecb81" stroke-width="1.4" /><rect x="133.41" y="288.58" width="6" height="26.86" rx="1.5" fill="#0ecb81" /><line x1="147.14" y1="252.76" x2="147.14" y2="302.01" stroke="#0ecb81" stroke-width="1.4" /><rect x="144.14" y="266.19" width="6" height="20.15" rx="1.5" fill="#0ecb81" /><line x1="157.87" y1="234.85" x2="157.87" y2="310.97" stroke="#0ecb81" stroke-width="1.4" /><rect x="154.87" y="237.09" width="6" height="29.10" rx="1.5" fill="#0ecb81" /><line x1="168.61" y1="199.03" x2="168.61" y2="308.73" stroke="#f6465d" stroke-width="1.4" /><rect x="165.61" y="239.33" width="6" height="49.25" rx="1.5" fill="#f6465d" /><line x1="179.34" y1="241.57" x2="179.34" y2="295.30" stroke="#0ecb81" stroke-width="1.4" /><rect x="176.34" y="266.19" width="6" height="20.15" rx="1.5" fill="#0ecb81" /><line x1="190.08" y1="219.18" x2="190.08" y2="279.62" stroke="#0ecb81" stroke-width="1.4" /><rect x="187.08" y="225.90" width="6" height="42.53" rx="1.5" fill="#0ecb81" /><line x1="200.81" y1="219.18" x2="200.81" y2="266.19" stroke="#f6465d" stroke-width="1.4" /><rect x="197.81" y="228.14" width="6" height="35.82" rx="1.5" fill="#f6465d" /><line x1="211.54" y1="225.90" x2="211.54" y2="275.15" stroke="#0ecb81" stroke-width="1.4" /><rect x="208.54" y="246.05" width="6" height="17.91" rx="1.5" fill="#0ecb81" /><line x1="222.28" y1="174.41" x2="222.28" y2="252.76" stroke="#0ecb81" stroke-width="1.4" /><rect x="219.28" y="194.56" width="6" height="49.25" rx="1.5" fill="#0ecb81" /><line x1="233.01" y1="160.98" x2="233.01" y2="248.28" stroke="#f6465d" stroke-width="1.4" /><rect x="230.01" y="194.56" width="6" height="49.25" rx="1.5" fill="#f6465d" /><line x1="243.75" y1="183.36" x2="243.75" y2="266.19" stroke="#0ecb81" stroke-width="1.4" /><rect x="240.75" y="190.08" width="6" height="51.49" rx="1.5" fill="#0ecb81" /><line x1="254.48" y1="143.07" x2="254.48" y2="207.99" stroke="#0ecb81" stroke-width="1.4" /><rect x="251.48" y="167.69" width="6" height="24.63" rx="1.5" fill="#0ecb81" /><line x1="265.22" y1="136.35" x2="265.22" y2="214.70" stroke="#f6465d" stroke-width="1.4" /><rect x="262.22" y="165.45" width="6" height="35.82" rx="1.5" fill="#f6465d" /><line x1="275.95" y1="196.80" x2="275.95" y2="237.09" stroke="#f6465d" stroke-width="1.4" /><rect x="272.95" y="203.51" width="6" height="22.39" rx="1.5" fill="#f6465d" /><line x1="286.68" y1="187.84" x2="286.68" y2="250.52" stroke="#0ecb81" stroke-width="1.4" /><rect x="283.68" y="192.32" width="6" height="33.58" rx="1.5" fill="#0ecb81" /><line x1="297.42" y1="172.17" x2="297.42" y2="250.52" stroke="#f6465d" stroke-width="1.4" /><rect x="294.42" y="192.32" width="6" height="47.01" rx="1.5" fill="#f6465d" /><line x1="308.15" y1="216.94" x2="308.15" y2="297.53" stroke="#f6465d" stroke-width="1.4" /><rect x="305.15" y="239.33" width="6" height="31.34" rx="1.5" fill="#f6465d" /><line x1="318.89" y1="230.37" x2="318.89" y2="281.86" stroke="#0ecb81" stroke-width="1.4" /><rect x="315.89" y="239.33" width="6" height="29.10" rx="1.5" fill="#0ecb81" /><line x1="329.62" y1="219.18" x2="329.62" y2="252.76" stroke="#0ecb81" stroke-width="1.4" /><rect x="326.62" y="232.61" width="6" height="4.48" rx="1.5" fill="#0ecb81" /><line x1="340.35" y1="223.66" x2="340.35" y2="257.24" stroke="#f6465d" stroke-width="1.4" /><rect x="337.35" y="234.85" width="6" height="20.15" rx="1.5" fill="#f6465d" /><line x1="351.09" y1="252.76" x2="351.09" y2="284.10" stroke="#f6465d" stroke-width="1.4" /><rect x="348.09" y="257.24" width="6" height="24.63" rx="1.5" fill="#f6465d" /><line x1="361.82" y1="194.56" x2="361.82" y2="288.58" stroke="#0ecb81" stroke-width="1.4" /><rect x="358.82" y="203.51" width="6" height="78.35" rx="1.5" fill="#0ecb81" /><line x1="372.56" y1="185.60" x2="372.56" y2="239.33" stroke="#f6465d" stroke-width="1.4" /><rect x="369.56" y="201.27" width="6" height="31.34" rx="1.5" fill="#f6465d" /><line x1="383.29" y1="212.47" x2="383.29" y2="263.95" stroke="#f6465d" stroke-width="1.4" /><rect x="380.29" y="232.61" width="6" height="29.10" rx="1.5" fill="#f6465d" /><line x1="394.03" y1="239.33" x2="394.03" y2="275.15" stroke="#f6465d" stroke-width="1.4" /><rect x="391.03" y="261.72" width="6" height="4.48" rx="1.5" fill="#f6465d" /><line x1="404.76" y1="241.57" x2="404.76" y2="281.86" stroke="#0ecb81" stroke-width="1.4" /><rect x="401.76" y="261.72" width="6" height="4.48" rx="1.5" fill="#0ecb81" /><line x1="415.49" y1="248.28" x2="415.49" y2="279.62" stroke="#0ecb81" stroke-width="1.4" /><rect x="412.49" y="257.24" width="6" height="6.72" rx="1.5" fill="#0ecb81" /><line x1="426.23" y1="243.81" x2="426.23" y2="272.91" stroke="#0ecb81" stroke-width="1.4" /><rect x="423.23" y="255.00" width="6" height="2.24" rx="1.5" fill="#0ecb81" /><line x1="436.96" y1="250.52" x2="436.96" y2="286.34" stroke="#f6465d" stroke-width="1.4" /><rect x="433.96" y="252.76" width="6" height="22.39" rx="1.5" fill="#f6465d" /><line x1="447.70" y1="266.19" x2="447.70" y2="306.49" stroke="#0ecb81" stroke-width="1.4" /><rect x="444.70" y="268.43" width="6" height="8.95" rx="1.5" fill="#0ecb81" /><line x1="458.43" y1="250.52" x2="458.43" y2="293.06" stroke="#f6465d" stroke-width="1.4" /><rect x="455.43" y="268.43" width="6" height="20.15" rx="1.5" fill="#f6465d" /><line x1="469.16" y1="284.10" x2="469.16" y2="357.98" stroke="#f6465d" stroke-width="1.4" /><rect x="466.16" y="286.34" width="6" height="69.40" rx="1.5" fill="#f6465d" /><line x1="479.90" y1="308.73" x2="479.90" y2="380.36" stroke="#0ecb81" stroke-width="1.4" /><rect x="476.90" y="324.40" width="6" height="31.34" rx="1.5" fill="#0ecb81" /><line x1="490.63" y1="299.77" x2="490.63" y2="342.31" stroke="#0ecb81" stroke-width="1.4" /><rect x="487.63" y="317.68" width="6" height="6.72" rx="1.5" fill="#0ecb81" /><line x1="501.37" y1="279.62" x2="501.37" y2="337.83" stroke="#f6465d" stroke-width="1.4" /><rect x="498.37" y="317.68" width="6" height="4.48" rx="1.5" fill="#f6465d" /><line x1="512.10" y1="317.68" x2="512.10" y2="342.31" stroke="#f6465d" stroke-width="1.4" /><rect x="509.10" y="319.92" width="6" height="13.43" rx="1.5" fill="#f6465d" /><line x1="522.84" y1="333.35" x2="522.84" y2="364.69" stroke="#f6465d" stroke-width="1.4" /><rect x="519.84" y="335.59" width="6" height="15.67" rx="1.5" fill="#f6465d" /><line x1="533.57" y1="326.64" x2="533.57" y2="355.74" stroke="#0ecb81" stroke-width="1.4" /><rect x="530.57" y="349.02" width="6" height="2.24" rx="1.5" fill="#0ecb81" /><line x1="544.30" y1="333.35" x2="544.30" y2="360.22" stroke="#0ecb81" stroke-width="1.4" /><rect x="541.30" y="340.07" width="6" height="8.95" rx="1.5" fill="#0ecb81" /><line x1="555.04" y1="326.64" x2="555.04" y2="371.41" stroke="#0ecb81" stroke-width="1.4" /><rect x="552.04" y="328.88" width="6" height="8.95" rx="1.5" fill="#0ecb81" /><line x1="565.77" y1="306.49" x2="565.77" y2="344.55" stroke="#f6465d" stroke-width="1.4" /><rect x="562.77" y="326.64" width="6" height="8.95" rx="1.5" fill="#f6465d" /><line x1="576.51" y1="326.64" x2="576.51" y2="353.50" stroke="#0ecb81" stroke-width="1.4" /><rect x="573.51" y="333.35" width="6" height="2.24" rx="1.5" fill="#0ecb81" /><line x1="587.24" y1="288.58" x2="587.24" y2="344.55" stroke="#0ecb81" stroke-width="1.4" /><rect x="584.24" y="288.58" width="6" height="42.53" rx="1.5" fill="#0ecb81" /><line x1="597.97" y1="263.95" x2="597.97" y2="297.53" stroke="#0ecb81" stroke-width="1.4" /><rect x="594.97" y="288.58" width="6" height="2.00" rx="1.5" fill="#0ecb81" /><line x1="608.71" y1="259.48" x2="608.71" y2="328.88" stroke="#f6465d" stroke-width="1.4" /><rect x="605.71" y="286.34" width="6" height="35.82" rx="1.5" fill="#f6465d" /><line x1="619.44" y1="306.49" x2="619.44" y2="371.41" stroke="#f6465d" stroke-width="1.4" /><rect x="616.44" y="324.40" width="6" height="22.39" rx="1.5" fill="#f6465d" /><line x1="630.18" y1="340.07" x2="630.18" y2="409.47" stroke="#f6465d" stroke-width="1.4" /><rect x="627.18" y="344.55" width="6" height="49.25" rx="1.5" fill="#f6465d" /><line x1="640.91" y1="371.41" x2="640.91" y2="409.47" stroke="#0ecb81" stroke-width="1.4" /><rect x="637.91" y="378.13" width="6" height="17.91" rx="1.5" fill="#0ecb81" /><line x1="651.65" y1="364.69" x2="651.65" y2="387.08" stroke="#0ecb81" stroke-width="1.4" /><rect x="648.65" y="375.89" width="6" height="2.24" rx="1.5" fill="#0ecb81" /><line x1="662.38" y1="342.31" x2="662.38" y2="387.08" stroke="#f6465d" stroke-width="1.4" /><rect x="659.38" y="375.89" width="6" height="8.95" rx="1.5" fill="#f6465d" /><line x1="673.11" y1="378.13" x2="673.11" y2="427.38" stroke="#f6465d" stroke-width="1.4" /><rect x="670.11" y="387.08" width="6" height="11.19" rx="1.5" fill="#f6465d" /><line x1="683.85" y1="398.27" x2="683.85" y2="452.00" stroke="#f6465d" stroke-width="1.4" /><rect x="680.85" y="398.27" width="6" height="24.63" rx="1.5" fill="#f6465d" /><line x1="694.58" y1="402.75" x2="694.58" y2="445.28" stroke="#0ecb81" stroke-width="1.4" /><rect x="691.58" y="422.90" width="6" height="2.00" rx="1.5" fill="#0ecb81" /><line x1="705.32" y1="400.51" x2="705.32" y2="431.85" stroke="#f6465d" stroke-width="1.4" /><rect x="702.32" y="420.66" width="6" height="8.95" rx="1.5" fill="#f6465d" /><line x1="716.05" y1="351.26" x2="716.05" y2="449.76" stroke="#0ecb81" stroke-width="1.4" /><rect x="713.05" y="409.47" width="6" height="20.15" rx="1.5" fill="#0ecb81" /><line x1="726.78" y1="387.08" x2="726.78" y2="418.42" stroke="#f6465d" stroke-width="1.4" /><rect x="723.78" y="411.70" width="6" height="2.24" rx="1.5" fill="#f6465d" /><line x1="737.52" y1="378.13" x2="737.52" y2="418.42" stroke="#0ecb81" stroke-width="1.4" /><rect x="734.52" y="380.36" width="6" height="33.58" rx="1.5" fill="#0ecb81" /><line x1="748.25" y1="375.89" x2="748.25" y2="409.47" stroke="#f6465d" stroke-width="1.4" /><rect x="745.25" y="380.36" width="6" height="11.19" rx="1.5" fill="#f6465d" /><line x1="758.99" y1="369.17" x2="758.99" y2="418.42" stroke="#f6465d" stroke-width="1.4" /><rect x="755.99" y="391.56" width="6" height="11.19" rx="1.5" fill="#f6465d" /><line x1="769.72" y1="389.32" x2="769.72" y2="416.18" stroke="#0ecb81" stroke-width="1.4" /><rect x="766.72" y="398.27" width="6" height="4.48" rx="1.5" fill="#0ecb81" /><line x1="780.46" y1="384.84" x2="780.46" y2="418.42" stroke="#f6465d" stroke-width="1.4" /><rect x="777.46" y="398.27" width="6" height="4.48" rx="1.5" fill="#f6465d" /><line x1="791.19" y1="353.50" x2="791.19" y2="422.90" stroke="#0ecb81" stroke-width="1.4" /><rect x="788.19" y="357.98" width="6" height="42.53" rx="1.5" fill="#0ecb81" /><line x1="801.92" y1="261.72" x2="801.92" y2="373.65" stroke="#0ecb81" stroke-width="1.4" /><rect x="798.92" y="272.91" width="6" height="85.07" rx="1.5" fill="#0ecb81" /><line x1="812.66" y1="201.27" x2="812.66" y2="295.30" stroke="#0ecb81" stroke-width="1.4" /><rect x="809.66" y="270.67" width="6" height="2.24" rx="1.5" fill="#0ecb81" /><line x1="823.39" y1="203.51" x2="823.39" y2="304.25" stroke="#0ecb81" stroke-width="1.4" /><rect x="820.39" y="232.61" width="6" height="40.30" rx="1.5" fill="#0ecb81" /><line x1="834.13" y1="154.26" x2="834.13" y2="230.37" stroke="#0ecb81" stroke-width="1.4" /><rect x="831.13" y="165.45" width="6" height="64.92" rx="1.5" fill="#0ecb81" /><line x1="844.86" y1="127.40" x2="844.86" y2="169.93" stroke="#0ecb81" stroke-width="1.4" /><rect x="841.86" y="145.31" width="6" height="22.39" rx="1.5" fill="#0ecb81" /><line x1="855.59" y1="69.19" x2="855.59" y2="152.02" stroke="#0ecb81" stroke-width="1.4" /><rect x="852.59" y="71.43" width="6" height="71.64" rx="1.5" fill="#0ecb81" /><line x1="866.33" y1="58.00" x2="866.33" y2="156.50" stroke="#f6465d" stroke-width="1.4" /><rect x="863.33" y="71.43" width="6" height="78.35" rx="1.5" fill="#f6465d" /><line x1="877.06" y1="122.92" x2="877.06" y2="212.47" stroke="#f6465d" stroke-width="1.4" /><rect x="874.06" y="149.78" width="6" height="31.34" rx="1.5" fill="#f6465d" /><line x1="887.80" y1="178.89" x2="887.80" y2="250.52" stroke="#f6465d" stroke-width="1.4" /><rect x="884.80" y="181.12" width="6" height="38.06" rx="1.5" fill="#f6465d" /><line x1="898.53" y1="174.41" x2="898.53" y2="234.85" stroke="#0ecb81" stroke-width="1.4" /><rect x="895.53" y="194.56" width="6" height="24.63" rx="1.5" fill="#0ecb81" /><line x1="909.27" y1="129.64" x2="909.27" y2="199.03" stroke="#0ecb81" stroke-width="1.4" /><rect x="906.27" y="147.55" width="6" height="49.25" rx="1.5" fill="#0ecb81" /><line x1="920.00" y1="87.10" x2="920.00" y2="147.55" stroke="#0ecb81" stroke-width="1.4" /><rect x="917.00" y="127.40" width="6" height="20.15" rx="1.5" fill="#0ecb81" />
  <polyline points="555.04,371.41 608.71,259.48 683.85,452.00 716.05,351.26 791.19,422.90" fill="none" stroke="#2fc273" stroke-width="4" stroke-linecap="round" stroke-linejoin="round" />
  <circle cx="555.04" cy="371.41" r="5.5" fill="#2fc273" fill-opacity="0.15" stroke="#2fc273" stroke-width="2" /><text x="555.04" y="359.41" fill="#f3f4f6" font-size="15" font-weight="700" text-anchor="middle">X</text><circle cx="608.71" cy="259.48" r="5.5" fill="#2fc273" fill-opacity="0.15" stroke="#2fc273" stroke-width="2" /><text x="608.71" y="247.48" fill="#f3f4f6" font-size="15" font-weight="700" text-anchor="middle">A</text><circle cx="683.85" cy="452.00" r="5.5" fill="#2fc273" fill-opacity="0.15" stroke="#2fc273" stroke-width="2" /><text x="683.85" y="440.00" fill="#f3f4f6" font-size="15" font-weight="700" text-anchor="middle">B</text><circle cx="716.05" cy="351.26" r="5.5" fill="#2fc273" fill-opacity="0.15" stroke="#2fc273" stroke-width="2" /><text x="716.05" y="339.26" fill="#f3f4f6" font-size="15" font-weight="700" text-anchor="middle">C</text><circle cx="791.19" cy="422.90" r="5.5" fill="#2fc273" fill-opacity="0.15" stroke="#2fc273" stroke-width="2" /><text x="791.19" y="410.90" fill="#f3f4f6" font-size="15" font-weight="700" text-anchor="middle">D</text>
  <text x="56" y="492" fill="#8ba0b5" font-size="18">일반 완성 · TP1 1.8472 · TP2 1.8548 · SL 1.8285</text>
</svg>
