<svg xmlns="http://www.w3.org/2000/svg" width="960" height="540" viewBox="0 0 960 540">
  <rect width="960" height="540" rx="24" fill="#0b1220" />
  <rect x="28" y="28" width="904" height="484" rx="22" fill="#111827" stroke="#1f2937" />
  <text x="56" y="74" fill="#f3f4f6" font-size="34" font-weight="700">REUSDT · AB=CD</text>
  <text x="904" y="74" fill="#8ba0b5" font-size="20" text-anchor="end">Bullish (매수) · Score 80.4</text>
  <line x1="72" y1="58" x2="920" y2="58" stroke="#223045" stroke-width="1" stroke-dasharray="4 8" /><line x1="72" y1="156" x2="920" y2="156" stroke="#223045" stroke-width="1" stroke-dasharray="4 8" /><line x1="72" y1="255" x2="920" y2="255" stroke="#223045" stroke-width="1" stroke-dasharray="4 8" /><line x1="72" y1="353" x2="920" y2="353" stroke="#223045" stroke-width="1" stroke-dasharray="4 8" /><line x1="72" y1="452" x2="920" y2="452" stroke="#223045" stroke-width="1" stroke-dasharray="4 8" />
  <rect x="827.59" y="393.52" width="84" height="134.80" fill="#fbbf24" fill-opacity="0.12" stroke="#fbbf24" stroke-width="1.5" stroke-dasharray="6 6" />
  <line x1="72.00" y1="140.76" x2="72.00" y2="213.12" stroke="#0ecb81" stroke-width="1.4" /><rect x="69.00" y="148.20" width="6" height="55.01" rx="1.5" fill="#0ecb81" /><line x1="82.73" y1="135.81" x2="82.73" y2="205.69" stroke="#f6465d" stroke-width="1.4" /><rect x="79.73" y="148.20" width="6" height="52.04" rx="1.5" fill="#f6465d" /><line x1="93.47" y1="195.28" x2="93.47" y2="216.10" stroke="#f6465d" stroke-width="1.4" /><rect x="90.47" y="199.25" width="6" height="10.41" rx="1.5" fill="#f6465d" /><line x1="104.20" y1="161.08" x2="104.20" y2="227.00" stroke="#0ecb81" stroke-width="1.4" /><rect x="101.20" y="188.84" width="6" height="20.32" rx="1.5" fill="#0ecb81" /><line x1="114.94" y1="180.41" x2="114.94" y2="220.56" stroke="#f6465d" stroke-width="1.4" /><rect x="111.94" y="188.34" width="6" height="29.24" rx="1.5" fill="#f6465d" /><line x1="125.67" y1="192.31" x2="125.67" y2="225.02" stroke="#0ecb81" stroke-width="1.4" /><rect x="122.67" y="193.30" width="6" height="24.28" rx="1.5" fill="#0ecb81" /><line x1="136.41" y1="188.34" x2="136.41" y2="263.67" stroke="#f6465d" stroke-width="1.4" /><rect x="133.41" y="193.79" width="6" height="51.54" rx="1.5" fill="#f6465d" /><line x1="147.14" y1="236.91" x2="147.14" y2="266.65" stroke="#f6465d" stroke-width="1.4" /><rect x="144.14" y="245.34" width="6" height="9.42" rx="1.5" fill="#f6465d" /><line x1="157.87" y1="242.36" x2="157.87" y2="291.92" stroke="#f6465d" stroke-width="1.4" /><rect x="154.87" y="254.75" width="6" height="18.83" rx="1.5" fill="#f6465d" /><line x1="168.61" y1="256.24" x2="168.61" y2="325.13" stroke="#f6465d" stroke-width="1.4" /><rect x="165.61" y="273.09" width="6" height="41.13" rx="1.5" fill="#f6465d" /><line x1="179.34" y1="275.57" x2="179.34" y2="332.07" stroke="#0ecb81" stroke-width="1.4" /><rect x="176.34" y="285.48" width="6" height="28.74" rx="1.5" fill="#0ecb81" /><line x1="190.08" y1="252.27" x2="190.08" y2="304.31" stroke="#f6465d" stroke-width="1.4" /><rect x="187.08" y="284.98" width="6" height="2.00" rx="1.5" fill="#f6465d" /><line x1="200.81" y1="271.60" x2="200.81" y2="316.21" stroke="#f6465d" stroke-width="1.4" /><rect x="197.81" y="285.48" width="6" height="2.00" rx="1.5" fill="#f6465d" /><line x1="211.54" y1="236.42" x2="211.54" y2="287.46" stroke="#0ecb81" stroke-width="1.4" /><rect x="208.54" y="258.22" width="6" height="28.74" rx="1.5" fill="#0ecb81" /><line x1="222.28" y1="220.06" x2="222.28" y2="259.21" stroke="#0ecb81" stroke-width="1.4" /><rect x="219.28" y="247.81" width="6" height="10.41" rx="1.5" fill="#0ecb81" /><line x1="233.01" y1="247.32" x2="233.01" y2="272.59" stroke="#f6465d" stroke-width="1.4" /><rect x="230.01" y="247.81" width="6" height="16.35" rx="1.5" fill="#f6465d" /><line x1="243.75" y1="247.81" x2="243.75" y2="268.63" stroke="#0ecb81" stroke-width="1.4" /><rect x="240.75" y="261.19" width="6" height="2.48" rx="1.5" fill="#0ecb81" /><line x1="254.48" y1="261.19" x2="254.48" y2="370.72" stroke="#f6465d" stroke-width="1.4" /><rect x="251.48" y="262.19" width="6" height="82.76" rx="1.5" fill="#f6465d" /><line x1="265.22" y1="285.97" x2="265.22" y2="375.68" stroke="#0ecb81" stroke-width="1.4" /><rect x="262.22" y="287.46" width="6" height="57.49" rx="1.5" fill="#0ecb81" /><line x1="275.95" y1="181.40" x2="275.95" y2="297.37" stroke="#0ecb81" stroke-width="1.4" /><rect x="272.95" y="185.37" width="6" height="102.09" rx="1.5" fill="#0ecb81" /><line x1="286.68" y1="139.28" x2="286.68" y2="200.73" stroke="#0ecb81" stroke-width="1.4" /><rect x="283.68" y="184.87" width="6" height="2.00" rx="1.5" fill="#0ecb81" /><line x1="297.42" y1="172.48" x2="297.42" y2="218.08" stroke="#f6465d" stroke-width="1.4" /><rect x="294.42" y="184.87" width="6" height="8.43" rx="1.5" fill="#f6465d" /><line x1="308.15" y1="148.69" x2="308.15" y2="206.68" stroke="#0ecb81" stroke-width="1.4" /><rect x="305.15" y="169.01" width="6" height="24.78" rx="1.5" fill="#0ecb81" /><line x1="318.89" y1="63.45" x2="318.89" y2="169.51" stroke="#0ecb81" stroke-width="1.4" /><rect x="315.89" y="88.23" width="6" height="80.78" rx="1.5" fill="#0ecb81" /><line x1="329.62" y1="58.00" x2="329.62" y2="128.87" stroke="#f6465d" stroke-width="1.4" /><rect x="326.62" y="88.73" width="6" height="28.74" rx="1.5" fill="#f6465d" /><line x1="340.35" y1="84.27" x2="340.35" y2="126.89" stroke="#0ecb81" stroke-width="1.4" /><rect x="337.35" y="92.69" width="6" height="24.78" rx="1.5" fill="#0ecb81" /><line x1="351.09" y1="88.23" x2="351.09" y2="195.78" stroke="#f6465d" stroke-width="1.4" /><rect x="348.09" y="92.69" width="6" height="100.61" rx="1.5" fill="#f6465d" /><line x1="361.82" y1="182.39" x2="361.82" y2="233.44" stroke="#f6465d" stroke-width="1.4" /><rect x="358.82" y="192.31" width="6" height="31.22" rx="1.5" fill="#f6465d" /><line x1="372.56" y1="223.53" x2="372.56" y2="273.09" stroke="#f6465d" stroke-width="1.4" /><rect x="369.56" y="223.53" width="6" height="33.21" rx="1.5" fill="#f6465d" /><line x1="383.29" y1="253.27" x2="383.29" y2="294.40" stroke="#f6465d" stroke-width="1.4" /><rect x="380.29" y="257.23" width="6" height="31.22" rx="1.5" fill="#f6465d" /><line x1="394.03" y1="269.62" x2="394.03" y2="301.34" stroke="#f6465d" stroke-width="1.4" /><rect x="391.03" y="288.95" width="6" height="3.47" rx="1.5" fill="#f6465d" /><line x1="404.76" y1="252.77" x2="404.76" y2="298.36" stroke="#0ecb81" stroke-width="1.4" /><rect x="401.76" y="275.07" width="6" height="17.35" rx="1.5" fill="#0ecb81" /><line x1="415.49" y1="232.95" x2="415.49" y2="278.05" stroke="#0ecb81" stroke-width="1.4" /><rect x="412.49" y="235.92" width="6" height="38.66" rx="1.5" fill="#0ecb81" /><line x1="426.23" y1="235.92" x2="426.23" y2="266.65" stroke="#f6465d" stroke-width="1.4" /><rect x="423.23" y="235.92" width="6" height="8.43" rx="1.5" fill="#f6465d" /><line x1="436.96" y1="238.40" x2="436.96" y2="275.57" stroke="#f6465d" stroke-width="1.4" /><rect x="433.96" y="243.85" width="6" height="26.27" rx="1.5" fill="#f6465d" /><line x1="447.70" y1="261.69" x2="447.70" y2="293.90" stroke="#0ecb81" stroke-width="1.4" /><rect x="444.70" y="261.69" width="6" height="7.93" rx="1.5" fill="#0ecb81" /><line x1="458.43" y1="244.34" x2="458.43" y2="267.64" stroke="#0ecb81" stroke-width="1.4" /><rect x="455.43" y="252.27" width="6" height="9.91" rx="1.5" fill="#0ecb81" /><line x1="469.16" y1="247.32" x2="469.16" y2="276.06" stroke="#f6465d" stroke-width="1.4" /><rect x="466.16" y="252.27" width="6" height="7.43" rx="1.5" fill="#f6465d" /><line x1="479.90" y1="257.73" x2="479.90" y2="282.51" stroke="#f6465d" stroke-width="1.4" /><rect x="476.90" y="259.71" width="6" height="14.37" rx="1.5" fill="#f6465d" /><line x1="490.63" y1="261.19" x2="490.63" y2="286.47" stroke="#f6465d" stroke-width="1.4" /><rect x="487.63" y="274.08" width="6" height="5.45" rx="1.5" fill="#f6465d" /><line x1="501.37" y1="238.89" x2="501.37" y2="301.83" stroke="#0ecb81" stroke-width="1.4" /><rect x="498.37" y="272.10" width="6" height="7.93" rx="1.5" fill="#0ecb81" /><line x1="512.10" y1="265.16" x2="512.10" y2="316.70" stroke="#f6465d" stroke-width="1.4" /><rect x="509.10" y="272.10" width="6" height="22.30" rx="1.5" fill="#f6465d" /><line x1="522.84" y1="283.00" x2="522.84" y2="342.47" stroke="#f6465d" stroke-width="1.4" /><rect x="519.84" y="294.40" width="6" height="35.19" rx="1.5" fill="#f6465d" /><line x1="533.57" y1="306.29" x2="533.57" y2="339.50" stroke="#0ecb81" stroke-width="1.4" /><rect x="530.57" y="315.22" width="6" height="14.87" rx="1.5" fill="#0ecb81" /><line x1="544.30" y1="311.75" x2="544.30" y2="340.49" stroke="#f6465d" stroke-width="1.4" /><rect x="541.30" y="315.71" width="6" height="6.94" rx="1.5" fill="#f6465d" /><line x1="555.04" y1="291.92" x2="555.04" y2="333.55" stroke="#0ecb81" stroke-width="1.4" /><rect x="552.04" y="299.85" width="6" height="22.80" rx="1.5" fill="#0ecb81" /><line x1="565.77" y1="295.89" x2="565.77" y2="331.57" stroke="#f6465d" stroke-width="1.4" /><rect x="562.77" y="299.85" width="6" height="23.79" rx="1.5" fill="#f6465d" /><line x1="576.51" y1="315.71" x2="576.51" y2="346.44" stroke="#f6465d" stroke-width="1.4" /><rect x="573.51" y="323.64" width="6" height="9.91" rx="1.5" fill="#f6465d" /><line x1="587.24" y1="317.69" x2="587.24" y2="337.02" stroke="#0ecb81" stroke-width="1.4" /><rect x="584.24" y="330.58" width="6" height="3.47" rx="1.5" fill="#0ecb81" /><line x1="597.97" y1="323.14" x2="597.97" y2="362.79" stroke="#f6465d" stroke-width="1.4" /><rect x="594.97" y="330.08" width="6" height="6.94" rx="1.5" fill="#f6465d" /><line x1="608.71" y1="333.06" x2="608.71" y2="357.34" stroke="#f6465d" stroke-width="1.4" /><rect x="605.71" y="337.02" width="6" height="11.89" rx="1.5" fill="#f6465d" /><line x1="619.44" y1="331.57" x2="619.44" y2="427.22" stroke="#f6465d" stroke-width="1.4" /><rect x="616.44" y="348.42" width="6" height="46.09" rx="1.5" fill="#f6465d" /><line x1="630.18" y1="367.25" x2="630.18" y2="405.41" stroke="#0ecb81" stroke-width="1.4" /><rect x="627.18" y="370.72" width="6" height="23.29" rx="1.5" fill="#0ecb81" /><line x1="640.91" y1="369.73" x2="640.91" y2="406.41" stroke="#f6465d" stroke-width="1.4" /><rect x="637.91" y="371.22" width="6" height="33.21" rx="1.5" fill="#f6465d" /><line x1="651.65" y1="398.97" x2="651.65" y2="448.04" stroke="#f6465d" stroke-width="1.4" /><rect x="648.65" y="404.92" width="6" height="30.73" rx="1.5" fill="#f6465d" /><line x1="662.38" y1="416.32" x2="662.38" y2="452.00" stroke="#0ecb81" stroke-width="1.4" /><rect x="659.38" y="418.30" width="6" height="16.85" rx="1.5" fill="#0ecb81" /><line x1="673.11" y1="388.07" x2="673.11" y2="435.65" stroke="#0ecb81" stroke-width="1.4" /><rect x="670.11" y="393.52" width="6" height="24.28" rx="1.5" fill="#0ecb81" /><line x1="683.85" y1="389.06" x2="683.85" y2="422.76" stroke="#f6465d" stroke-width="1.4" /><rect x="680.85" y="393.52" width="6" height="6.44" rx="1.5" fill="#f6465d" /><line x1="694.58" y1="377.66" x2="694.58" y2="416.32" stroke="#0ecb81" stroke-width="1.4" /><rect x="691.58" y="388.56" width="6" height="11.40" rx="1.5" fill="#0ecb81" /><line x1="705.32" y1="334.54" x2="705.32" y2="390.05" stroke="#0ecb81" stroke-width="1.4" /><rect x="702.32" y="346.93" width="6" height="41.13" rx="1.5" fill="#0ecb81" /><line x1="716.05" y1="306.29" x2="716.05" y2="349.41" stroke="#0ecb81" stroke-width="1.4" /><rect x="713.05" y="329.09" width="6" height="17.84" rx="1.5" fill="#0ecb81" /><line x1="726.78" y1="320.17" x2="726.78" y2="363.29" stroke="#f6465d" stroke-width="1.4" /><rect x="723.78" y="329.09" width="6" height="32.71" rx="1.5" fill="#f6465d" /><line x1="737.52" y1="346.93" x2="737.52" y2="375.68" stroke="#f6465d" stroke-width="1.4" /><rect x="734.52" y="361.31" width="6" height="11.40" rx="1.5" fill="#f6465d" /><line x1="748.25" y1="371.22" x2="748.25" y2="394.51" stroke="#f6465d" stroke-width="1.4" /><rect x="745.25" y="372.21" width="6" height="19.33" rx="1.5" fill="#f6465d" /><line x1="758.99" y1="351.89" x2="758.99" y2="392.53" stroke="#0ecb81" stroke-width="1.4" /><rect x="755.99" y="360.31" width="6" height="31.22" rx="1.5" fill="#0ecb81" /><line x1="769.72" y1="359.82" x2="769.72" y2="408.88" stroke="#f6465d" stroke-width="1.4" /><rect x="766.72" y="359.82" width="6" height="47.08" rx="1.5" fill="#f6465d" /><line x1="780.46" y1="388.07" x2="780.46" y2="414.83" stroke="#0ecb81" stroke-width="1.4" /><rect x="777.46" y="399.47" width="6" height="7.43" rx="1.5" fill="#0ecb81" /><line x1="791.19" y1="389.06" x2="791.19" y2="412.85" stroke="#0ecb81" stroke-width="1.4" /><rect x="788.19" y="397.48" width="6" height="2.00" rx="1.5" fill="#0ecb81" /><line x1="801.92" y1="334.05" x2="801.92" y2="398.97" stroke="#0ecb81" stroke-width="1.4" /><rect x="798.92" y="348.42" width="6" height="49.06" rx="1.5" fill="#0ecb81" /><line x1="812.66" y1="284.98" x2="812.66" y2="367.25" stroke="#f6465d" stroke-width="1.4" /><rect x="809.66" y="347.92" width="6" height="16.85" rx="1.5" fill="#f6465d" /><line x1="823.39" y1="356.85" x2="823.39" y2="388.07" stroke="#f6465d" stroke-width="1.4" /><rect x="820.39" y="364.77" width="6" height="9.91" rx="1.5" fill="#f6465d" /><line x1="834.13" y1="364.28" x2="834.13" y2="380.63" stroke="#f6465d" stroke-width="1.4" /><rect x="831.13" y="374.69" width="6" height="3.96" rx="1.5" fill="#f6465d" /><line x1="844.86" y1="372.21" x2="844.86" y2="397.48" stroke="#f6465d" stroke-width="1.4" /><rect x="841.86" y="379.15" width="6" height="13.38" rx="1.5" fill="#f6465d" /><line x1="855.59" y1="389.06" x2="855.59" y2="420.78" stroke="#f6465d" stroke-width="1.4" /><rect x="852.59" y="392.53" width="6" height="6.94" rx="1.5" fill="#f6465d" /><line x1="866.33" y1="389.06" x2="866.33" y2="413.84" stroke="#0ecb81" stroke-width="1.4" /><rect x="863.33" y="397.48" width="6" height="2.00" rx="1.5" fill="#0ecb81" /><line x1="877.06" y1="356.85" x2="877.06" y2="399.96" stroke="#0ecb81" stroke-width="1.4" /><rect x="874.06" y="371.22" width="6" height="26.27" rx="1.5" fill="#0ecb81" /><line x1="887.80" y1="366.76" x2="887.80" y2="402.44" stroke="#f6465d" stroke-width="1.4" /><rect x="884.80" y="370.72" width="6" height="22.30" rx="1.5" fill="#f6465d" /><line x1="898.53" y1="378.65" x2="898.53" y2="401.45" stroke="#0ecb81" stroke-width="1.4" /><rect x="895.53" y="381.13" width="6" height="12.39" rx="1.5" fill="#0ecb81" /><line x1="909.27" y1="373.20" x2="909.27" y2="394.02" stroke="#0ecb81" stroke-width="1.4" /><rect x="906.27" y="374.69" width="6" height="5.95" rx="1.5" fill="#0ecb81" /><line x1="920.00" y1="354.37" x2="920.00" y2="386.58" stroke="#f6465d" stroke-width="1.4" /><rect x="917.00" y="374.69" width="6" height="6.94" rx="1.5" fill="#f6465d" />
  <polyline points="662.38,452.00 716.05,306.29 780.46,414.83 812.66,284.98 855.59,420.78" fill="none" stroke="#2fc273" stroke-width="4" stroke-linecap="round" stroke-linejoin="round" />
  <circle cx="662.38" cy="452.00" r="5.5" fill="#2fc273" fill-opacity="0.15" stroke="#2fc273" stroke-width="2" /><text x="662.38" y="440.00" fill="#f3f4f6" font-size="15" font-weight="700" text-anchor="middle">X</text><circle cx="716.05" cy="306.29" r="5.5" fill="#2fc273" fill-opacity="0.15" stroke="#2fc273" stroke-width="2" /><text x="716.05" y="294.29" fill="#f3f4f6" font-size="15" font-weight="700" text-anchor="middle">A</text><circle cx="780.46" cy="414.83" r="5.5" fill="#2fc273" fill-opacity="0.15" stroke="#2fc273" stroke-width="2" /><text x="780.46" y="402.83" fill="#f3f4f6" font-size="15" font-weight="700" text-anchor="middle">B</text><circle cx="812.66" cy="284.98" r="5.5" fill="#2fc273" fill-opacity="0.15" stroke="#2fc273" stroke-width="2" /><text x="812.66" y="272.98" fill="#f3f4f6" font-size="15" font-weight="700" text-anchor="middle">C</text><circle cx="855.59" cy="420.78" r="5.5" fill="#2fc273" fill-opacity="0.15" stroke="#2fc273" stroke-width="2" /><text x="855.59" y="408.78" fill="#f3f4f6" font-size="15" font-weight="700" text-anchor="middle">D</text>
  <text x="56" y="492" fill="#8ba0b5" font-size="18">Complete · TP1 0.37277 · TP2 0.37923 · SL 0.35848</text>
</svg>
