<svg xmlns="http://www.w3.org/2000/svg" width="960" height="540" viewBox="0 0 960 540">
  <rect width="960" height="540" rx="24" fill="#0b1220" />
  <rect x="28" y="28" width="904" height="484" rx="22" fill="#111827" stroke="#1f2937" />
  <text x="56" y="74" fill="#f3f4f6" font-size="34" font-weight="700">SIRENUSDT · AB=CD</text>
  <text x="904" y="74" fill="#8ba0b5" font-size="20" text-anchor="end">Bearish (매도) · Score 83.3</text>
  <line x1="72" y1="58" x2="920" y2="58" stroke="#223045" stroke-width="1" stroke-dasharray="4 8" /><line x1="72" y1="156" x2="920" y2="156" stroke="#223045" stroke-width="1" stroke-dasharray="4 8" /><line x1="72" y1="255" x2="920" y2="255" stroke="#223045" stroke-width="1" stroke-dasharray="4 8" /><line x1="72" y1="353" x2="920" y2="353" stroke="#223045" stroke-width="1" stroke-dasharray="4 8" /><line x1="72" y1="452" x2="920" y2="452" stroke="#223045" stroke-width="1" stroke-dasharray="4 8" />
  <rect x="269.42" y="217.34" width="84" height="58.99" fill="#fbbf24" fill-opacity="0.12" stroke="#fbbf24" stroke-width="1.5" stroke-dasharray="6 6" />
  <line x1="72.00" y1="353.84" x2="72.00" y2="377.69" stroke="#f6465d" stroke-width="1.4" /><rect x="69.00" y="355.22" width="6" height="12.84" rx="1.5" fill="#f6465d" /><line x1="82.73" y1="344.21" x2="82.73" y2="374.48" stroke="#0ecb81" stroke-width="1.4" /><rect x="79.73" y="345.13" width="6" height="22.93" rx="1.5" fill="#0ecb81" /><line x1="93.47" y1="337.33" x2="93.47" y2="368.52" stroke="#f6465d" stroke-width="1.4" /><rect x="90.47" y="344.67" width="6" height="19.26" rx="1.5" fill="#f6465d" /><line x1="104.20" y1="344.21" x2="104.20" y2="370.81" stroke="#0ecb81" stroke-width="1.4" /><rect x="101.20" y="352.01" width="6" height="11.93" rx="1.5" fill="#0ecb81" /><line x1="114.94" y1="342.84" x2="114.94" y2="361.18" stroke="#f6465d" stroke-width="1.4" /><rect x="111.94" y="351.55" width="6" height="2.00" rx="1.5" fill="#f6465d" /><line x1="125.67" y1="346.05" x2="125.67" y2="364.39" stroke="#f6465d" stroke-width="1.4" /><rect x="122.67" y="352.93" width="6" height="6.88" rx="1.5" fill="#f6465d" /><line x1="136.41" y1="353.84" x2="136.41" y2="369.90" stroke="#f6465d" stroke-width="1.4" /><rect x="133.41" y="359.35" width="6" height="6.88" rx="1.5" fill="#f6465d" /><line x1="147.14" y1="353.84" x2="147.14" y2="374.03" stroke="#0ecb81" stroke-width="1.4" /><rect x="144.14" y="363.93" width="6" height="2.75" rx="1.5" fill="#0ecb81" /><line x1="157.87" y1="362.10" x2="157.87" y2="382.74" stroke="#f6465d" stroke-width="1.4" /><rect x="154.87" y="364.39" width="6" height="5.96" rx="1.5" fill="#f6465d" /><line x1="168.61" y1="322.20" x2="168.61" y2="374.03" stroke="#0ecb81" stroke-width="1.4" /><rect x="165.61" y="329.53" width="6" height="41.28" rx="1.5" fill="#0ecb81" /><line x1="179.34" y1="288.71" x2="179.34" y2="330.91" stroke="#0ecb81" stroke-width="1.4" /><rect x="176.34" y="294.22" width="6" height="34.86" rx="1.5" fill="#0ecb81" /><line x1="190.08" y1="288.71" x2="190.08" y2="341.46" stroke="#f6465d" stroke-width="1.4" /><rect x="187.08" y="294.22" width="6" height="34.86" rx="1.5" fill="#f6465d" /><line x1="200.81" y1="318.98" x2="200.81" y2="338.25" stroke="#f6465d" stroke-width="1.4" /><rect x="197.81" y="329.53" width="6" height="6.88" rx="1.5" fill="#f6465d" /><line x1="211.54" y1="330.45" x2="211.54" y2="353.84" stroke="#f6465d" stroke-width="1.4" /><rect x="208.54" y="336.41" width="6" height="13.30" rx="1.5" fill="#f6465d" /><line x1="222.28" y1="346.05" x2="222.28" y2="370.36" stroke="#f6465d" stroke-width="1.4" /><rect x="219.28" y="350.17" width="6" height="2.75" rx="1.5" fill="#f6465d" /><line x1="233.01" y1="337.79" x2="233.01" y2="355.22" stroke="#0ecb81" stroke-width="1.4" /><rect x="230.01" y="340.54" width="6" height="12.38" rx="1.5" fill="#0ecb81" /><line x1="243.75" y1="327.70" x2="243.75" y2="352.93" stroke="#0ecb81" stroke-width="1.4" /><rect x="240.75" y="331.37" width="6" height="9.17" rx="1.5" fill="#0ecb81" /><line x1="254.48" y1="310.73" x2="254.48" y2="340.08" stroke="#0ecb81" stroke-width="1.4" /><rect x="251.48" y="329.99" width="6" height="2.00" rx="1.5" fill="#0ecb81" /><line x1="265.22" y1="282.75" x2="265.22" y2="333.20" stroke="#0ecb81" stroke-width="1.4" /><rect x="262.22" y="301.56" width="6" height="28.44" rx="1.5" fill="#0ecb81" /><line x1="275.95" y1="292.84" x2="275.95" y2="316.23" stroke="#f6465d" stroke-width="1.4" /><rect x="272.95" y="301.10" width="6" height="2.00" rx="1.5" fill="#f6465d" /><line x1="286.68" y1="285.96" x2="286.68" y2="332.29" stroke="#f6465d" stroke-width="1.4" /><rect x="283.68" y="302.01" width="6" height="22.47" rx="1.5" fill="#f6465d" /><line x1="297.42" y1="268.99" x2="297.42" y2="330.45" stroke="#0ecb81" stroke-width="1.4" /><rect x="294.42" y="278.62" width="6" height="45.87" rx="1.5" fill="#0ecb81" /><line x1="308.15" y1="275.41" x2="308.15" y2="306.60" stroke="#f6465d" stroke-width="1.4" /><rect x="305.15" y="278.16" width="6" height="23.85" rx="1.5" fill="#f6465d" /><line x1="318.89" y1="281.37" x2="318.89" y2="307.06" stroke="#0ecb81" stroke-width="1.4" /><rect x="315.89" y="291.92" width="6" height="10.09" rx="1.5" fill="#0ecb81" /><line x1="329.62" y1="278.62" x2="329.62" y2="303.85" stroke="#f6465d" stroke-width="1.4" /><rect x="326.62" y="291.46" width="6" height="9.17" rx="1.5" fill="#f6465d" /><line x1="340.35" y1="285.96" x2="340.35" y2="307.52" stroke="#f6465d" stroke-width="1.4" /><rect x="337.35" y="300.64" width="6" height="4.13" rx="1.5" fill="#f6465d" /><line x1="351.09" y1="301.10" x2="351.09" y2="329.99" stroke="#f6465d" stroke-width="1.4" /><rect x="348.09" y="304.77" width="6" height="15.59" rx="1.5" fill="#f6465d" /><line x1="361.82" y1="307.06" x2="361.82" y2="338.71" stroke="#f6465d" stroke-width="1.4" /><rect x="358.82" y="320.82" width="6" height="11.47" rx="1.5" fill="#f6465d" /><line x1="372.56" y1="331.83" x2="372.56" y2="363.48" stroke="#f6465d" stroke-width="1.4" /><rect x="369.56" y="332.75" width="6" height="25.69" rx="1.5" fill="#f6465d" /><line x1="383.29" y1="349.26" x2="383.29" y2="378.15" stroke="#0ecb81" stroke-width="1.4" /><rect x="380.29" y="357.05" width="6" height="2.00" rx="1.5" fill="#0ecb81" /><line x1="394.03" y1="354.30" x2="394.03" y2="396.50" stroke="#f6465d" stroke-width="1.4" /><rect x="391.03" y="357.05" width="6" height="29.36" rx="1.5" fill="#f6465d" /><line x1="404.76" y1="375.40" x2="404.76" y2="404.30" stroke="#f6465d" stroke-width="1.4" /><rect x="401.76" y="386.87" width="6" height="14.68" rx="1.5" fill="#f6465d" /><line x1="415.49" y1="393.29" x2="415.49" y2="418.98" stroke="#f6465d" stroke-width="1.4" /><rect x="412.49" y="401.55" width="6" height="13.30" rx="1.5" fill="#f6465d" /><line x1="426.23" y1="407.51" x2="426.23" y2="431.82" stroke="#f6465d" stroke-width="1.4" /><rect x="423.23" y="414.39" width="6" height="9.17" rx="1.5" fill="#f6465d" /><line x1="436.96" y1="404.76" x2="436.96" y2="452.00" stroke="#0ecb81" stroke-width="1.4" /><rect x="433.96" y="420.35" width="6" height="3.67" rx="1.5" fill="#0ecb81" /><line x1="447.70" y1="416.68" x2="447.70" y2="432.28" stroke="#f6465d" stroke-width="1.4" /><rect x="444.70" y="420.81" width="6" height="3.67" rx="1.5" fill="#f6465d" /><line x1="458.43" y1="419.43" x2="458.43" y2="441.45" stroke="#0ecb81" stroke-width="1.4" /><rect x="455.43" y="423.56" width="6" height="2.00" rx="1.5" fill="#0ecb81" /><line x1="469.16" y1="415.31" x2="469.16" y2="431.82" stroke="#0ecb81" stroke-width="1.4" /><rect x="466.16" y="418.98" width="6" height="4.59" rx="1.5" fill="#0ecb81" /><line x1="479.90" y1="414.39" x2="479.90" y2="439.16" stroke="#f6465d" stroke-width="1.4" /><rect x="476.90" y="418.52" width="6" height="13.76" rx="1.5" fill="#f6465d" /><line x1="490.63" y1="417.14" x2="490.63" y2="435.03" stroke="#0ecb81" stroke-width="1.4" /><rect x="487.63" y="420.35" width="6" height="12.38" rx="1.5" fill="#0ecb81" /><line x1="501.37" y1="419.43" x2="501.37" y2="436.86" stroke="#f6465d" stroke-width="1.4" /><rect x="498.37" y="420.35" width="6" height="8.71" rx="1.5" fill="#f6465d" /><line x1="512.10" y1="412.10" x2="512.10" y2="435.95" stroke="#f6465d" stroke-width="1.4" /><rect x="509.10" y="429.53" width="6" height="4.59" rx="1.5" fill="#f6465d" /><line x1="522.84" y1="215.78" x2="522.84" y2="435.03" stroke="#0ecb81" stroke-width="1.4" /><rect x="519.84" y="241.47" width="6" height="192.64" rx="1.5" fill="#0ecb81" /><line x1="533.57" y1="183.22" x2="533.57" y2="273.58" stroke="#0ecb81" stroke-width="1.4" /><rect x="530.57" y="237.80" width="6" height="4.13" rx="1.5" fill="#0ecb81" /><line x1="544.30" y1="190.56" x2="544.30" y2="265.78" stroke="#0ecb81" stroke-width="1.4" /><rect x="541.30" y="199.73" width="6" height="38.07" rx="1.5" fill="#0ecb81" /><line x1="555.04" y1="183.68" x2="555.04" y2="233.21" stroke="#f6465d" stroke-width="1.4" /><rect x="552.04" y="199.27" width="6" height="19.26" rx="1.5" fill="#f6465d" /><line x1="565.77" y1="153.86" x2="565.77" y2="226.79" stroke="#0ecb81" stroke-width="1.4" /><rect x="562.77" y="172.21" width="6" height="45.41" rx="1.5" fill="#0ecb81" /><line x1="576.51" y1="147.44" x2="576.51" y2="196.52" stroke="#f6465d" stroke-width="1.4" /><rect x="573.51" y="172.67" width="6" height="17.89" rx="1.5" fill="#f6465d" /><line x1="587.24" y1="165.79" x2="587.24" y2="224.04" stroke="#0ecb81" stroke-width="1.4" /><rect x="584.24" y="181.38" width="6" height="9.17" rx="1.5" fill="#0ecb81" /><line x1="597.97" y1="161.20" x2="597.97" y2="184.59" stroke="#0ecb81" stroke-width="1.4" /><rect x="594.97" y="162.12" width="6" height="19.26" rx="1.5" fill="#0ecb81" /><line x1="608.71" y1="120.38" x2="608.71" y2="173.59" stroke="#0ecb81" stroke-width="1.4" /><rect x="605.71" y="141.94" width="6" height="20.64" rx="1.5" fill="#0ecb81" /><line x1="619.44" y1="123.13" x2="619.44" y2="195.60" stroke="#f6465d" stroke-width="1.4" /><rect x="616.44" y="141.94" width="6" height="38.53" rx="1.5" fill="#f6465d" /><line x1="630.18" y1="168.54" x2="630.18" y2="225.42" stroke="#f6465d" stroke-width="1.4" /><rect x="627.18" y="180.47" width="6" height="2.00" rx="1.5" fill="#f6465d" /><line x1="640.91" y1="175.42" x2="640.91" y2="224.50" stroke="#f6465d" stroke-width="1.4" /><rect x="637.91" y="180.92" width="6" height="22.93" rx="1.5" fill="#f6465d" /><line x1="651.65" y1="175.88" x2="651.65" y2="211.20" stroke="#0ecb81" stroke-width="1.4" /><rect x="648.65" y="202.94" width="6" height="2.00" rx="1.5" fill="#0ecb81" /><line x1="662.38" y1="186.89" x2="662.38" y2="224.50" stroke="#0ecb81" stroke-width="1.4" /><rect x="659.38" y="193.77" width="6" height="8.26" rx="1.5" fill="#0ecb81" /><line x1="673.11" y1="58.00" x2="673.11" y2="198.81" stroke="#0ecb81" stroke-width="1.4" /><rect x="670.11" y="175.42" width="6" height="18.35" rx="1.5" fill="#0ecb81" /><line x1="683.85" y1="142.85" x2="683.85" y2="197.44" stroke="#f6465d" stroke-width="1.4" /><rect x="680.85" y="175.42" width="6" height="8.71" rx="1.5" fill="#f6465d" /><line x1="694.58" y1="145.15" x2="694.58" y2="185.97" stroke="#0ecb81" stroke-width="1.4" /><rect x="691.58" y="172.67" width="6" height="11.93" rx="1.5" fill="#0ecb81" /><line x1="705.32" y1="172.67" x2="705.32" y2="190.56" stroke="#f6465d" stroke-width="1.4" /><rect x="702.32" y="172.67" width="6" height="7.80" rx="1.5" fill="#f6465d" /><line x1="716.05" y1="153.40" x2="716.05" y2="186.43" stroke="#0ecb81" stroke-width="1.4" /><rect x="713.05" y="168.08" width="6" height="11.93" rx="1.5" fill="#0ecb81" /><line x1="726.78" y1="163.49" x2="726.78" y2="190.56" stroke="#f6465d" stroke-width="1.4" /><rect x="723.78" y="168.54" width="6" height="15.14" rx="1.5" fill="#f6465d" /><line x1="737.52" y1="151.57" x2="737.52" y2="189.64" stroke="#0ecb81" stroke-width="1.4" /><rect x="734.52" y="156.61" width="6" height="27.52" rx="1.5" fill="#0ecb81" /><line x1="748.25" y1="146.52" x2="748.25" y2="224.04" stroke="#f6465d" stroke-width="1.4" /><rect x="745.25" y="157.07" width="6" height="24.31" rx="1.5" fill="#f6465d" /><line x1="758.99" y1="178.63" x2="758.99" y2="218.99" stroke="#f6465d" stroke-width="1.4" /><rect x="755.99" y="181.38" width="6" height="23.85" rx="1.5" fill="#f6465d" /><line x1="769.72" y1="202.48" x2="769.72" y2="333.20" stroke="#f6465d" stroke-width="1.4" /><rect x="766.72" y="205.69" width="6" height="80.27" rx="1.5" fill="#f6465d" /><line x1="780.46" y1="273.12" x2="780.46" y2="302.47" stroke="#f6465d" stroke-width="1.4" /><rect x="777.46" y="286.42" width="6" height="13.30" rx="1.5" fill="#f6465d" /><line x1="791.19" y1="260.73" x2="791.19" y2="300.64" stroke="#0ecb81" stroke-width="1.4" /><rect x="788.19" y="262.57" width="6" height="37.15" rx="1.5" fill="#0ecb81" /><line x1="801.92" y1="261.19" x2="801.92" y2="291.01" stroke="#f6465d" stroke-width="1.4" /><rect x="798.92" y="262.57" width="6" height="15.59" rx="1.5" fill="#f6465d" /><line x1="812.66" y1="270.82" x2="812.66" y2="291.01" stroke="#f6465d" stroke-width="1.4" /><rect x="809.66" y="278.16" width="6" height="5.50" rx="1.5" fill="#f6465d" /><line x1="823.39" y1="272.66" x2="823.39" y2="289.63" stroke="#f6465d" stroke-width="1.4" /><rect x="820.39" y="283.67" width="6" height="4.13" rx="1.5" fill="#f6465d" /><line x1="834.13" y1="281.83" x2="834.13" y2="301.56" stroke="#f6465d" stroke-width="1.4" /><rect x="831.13" y="287.80" width="6" height="8.71" rx="1.5" fill="#f6465d" /><line x1="844.86" y1="292.38" x2="844.86" y2="358.43" stroke="#f6465d" stroke-width="1.4" /><rect x="841.86" y="296.97" width="6" height="41.74" rx="1.5" fill="#f6465d" /><line x1="855.59" y1="324.49" x2="855.59" y2="351.55" stroke="#f6465d" stroke-width="1.4" /><rect x="852.59" y="338.71" width="6" height="2.75" rx="1.5" fill="#f6465d" /><line x1="866.33" y1="317.61" x2="866.33" y2="344.67" stroke="#0ecb81" stroke-width="1.4" /><rect x="863.33" y="320.82" width="6" height="20.64" rx="1.5" fill="#0ecb81" /><line x1="877.06" y1="319.44" x2="877.06" y2="339.63" stroke="#f6465d" stroke-width="1.4" /><rect x="874.06" y="321.28" width="6" height="4.13" rx="1.5" fill="#f6465d" /><line x1="887.80" y1="324.03" x2="887.80" y2="339.63" stroke="#f6465d" stroke-width="1.4" /><rect x="884.80" y="324.95" width="6" height="7.80" rx="1.5" fill="#f6465d" /><line x1="898.53" y1="322.20" x2="898.53" y2="337.33" stroke="#f6465d" stroke-width="1.4" /><rect x="895.53" y="332.75" width="6" height="2.00" rx="1.5" fill="#f6465d" /><line x1="909.27" y1="325.41" x2="909.27" y2="349.26" stroke="#0ecb81" stroke-width="1.4" /><rect x="906.27" y="330.91" width="6" height="3.67" rx="1.5" fill="#0ecb81" /><line x1="920.00" y1="328.16" x2="920.00" y2="346.51" stroke="#f6465d" stroke-width="1.4" /><rect x="917.00" y="330.91" width="6" height="9.63" rx="1.5" fill="#f6465d" />
  <polyline points="93.47,337.33 157.87,382.74 190.08,288.71 222.28,370.36 297.42,268.99" fill="none" stroke="#2fc273" stroke-width="4" stroke-linecap="round" stroke-linejoin="round" />
  <circle cx="93.47" cy="337.33" r="5.5" fill="#2fc273" fill-opacity="0.15" stroke="#2fc273" stroke-width="2" /><text x="93.47" y="325.33" fill="#f3f4f6" font-size="15" font-weight="700" text-anchor="middle">X</text><circle cx="157.87" cy="382.74" r="5.5" fill="#2fc273" fill-opacity="0.15" stroke="#2fc273" stroke-width="2" /><text x="157.87" y="370.74" fill="#f3f4f6" font-size="15" font-weight="700" text-anchor="middle">A</text><circle cx="190.08" cy="288.71" r="5.5" fill="#2fc273" fill-opacity="0.15" stroke="#2fc273" stroke-width="2" /><text x="190.08" y="276.71" fill="#f3f4f6" font-size="15" font-weight="700" text-anchor="middle">B</text><circle cx="222.28" cy="370.36" r="5.5" fill="#2fc273" fill-opacity="0.15" stroke="#2fc273" stroke-width="2" /><text x="222.28" y="358.36" fill="#f3f4f6" font-size="15" font-weight="700" text-anchor="middle">C</text><circle cx="297.42" cy="268.99" r="5.5" fill="#2fc273" fill-opacity="0.15" stroke="#2fc273" stroke-width="2" /><text x="297.42" y="256.99" fill="#f3f4f6" font-size="15" font-weight="700" text-anchor="middle">D</text>
  <text x="56" y="492" fill="#8ba0b5" font-size="18">Complete · TP1 0.028796 · TP2 0.028274 · SL 0.029769</text>
</svg>
