<svg xmlns="http://www.w3.org/2000/svg" width="960" height="540" viewBox="0 0 960 540">
  <rect width="960" height="540" rx="24" fill="#0b1220" />
  <rect x="28" y="28" width="904" height="484" rx="22" fill="#111827" stroke="#1f2937" />
  <text x="56" y="74" fill="#f3f4f6" font-size="34" font-weight="700">SOLUSDT · AB=CD</text>
  <text x="904" y="74" fill="#8ba0b5" font-size="20" text-anchor="end">Bearish (매도) · Score 84.9</text>
  <line x1="72" y1="58" x2="920" y2="58" stroke="#223045" stroke-width="1" stroke-dasharray="4 8" /><line x1="72" y1="156" x2="920" y2="156" stroke="#223045" stroke-width="1" stroke-dasharray="4 8" /><line x1="72" y1="255" x2="920" y2="255" stroke="#223045" stroke-width="1" stroke-dasharray="4 8" /><line x1="72" y1="353" x2="920" y2="353" stroke="#223045" stroke-width="1" stroke-dasharray="4 8" /><line x1="72" y1="452" x2="920" y2="452" stroke="#223045" stroke-width="1" stroke-dasharray="4 8" />
  <rect x="784.66" y="204.60" width="84" height="43.32" fill="#fbbf24" fill-opacity="0.12" stroke="#fbbf24" stroke-width="1.5" stroke-dasharray="6 6" />
  <line x1="72.00" y1="372.87" x2="72.00" y2="409.52" stroke="#f6465d" stroke-width="1.4" /><rect x="69.00" y="379.53" width="6" height="29.15" rx="1.5" fill="#f6465d" /><line x1="82.73" y1="364.54" x2="82.73" y2="410.35" stroke="#0ecb81" stroke-width="1.4" /><rect x="79.73" y="383.70" width="6" height="25.82" rx="1.5" fill="#0ecb81" /><line x1="93.47" y1="354.54" x2="93.47" y2="405.35" stroke="#0ecb81" stroke-width="1.4" /><rect x="90.47" y="383.70" width="6" height="2.00" rx="1.5" fill="#0ecb81" /><line x1="104.20" y1="350.38" x2="104.20" y2="393.69" stroke="#0ecb81" stroke-width="1.4" /><rect x="101.20" y="356.21" width="6" height="27.49" rx="1.5" fill="#0ecb81" /><line x1="114.94" y1="310.39" x2="114.94" y2="373.70" stroke="#0ecb81" stroke-width="1.4" /><rect x="111.94" y="331.22" width="6" height="24.99" rx="1.5" fill="#0ecb81" /><line x1="125.67" y1="315.39" x2="125.67" y2="357.87" stroke="#f6465d" stroke-width="1.4" /><rect x="122.67" y="331.22" width="6" height="15.83" rx="1.5" fill="#f6465d" /><line x1="136.41" y1="307.89" x2="136.41" y2="352.88" stroke="#0ecb81" stroke-width="1.4" /><rect x="133.41" y="329.55" width="6" height="16.66" rx="1.5" fill="#0ecb81" /><line x1="147.14" y1="311.23" x2="147.14" y2="352.04" stroke="#0ecb81" stroke-width="1.4" /><rect x="144.14" y="312.89" width="6" height="16.66" rx="1.5" fill="#0ecb81" /><line x1="157.87" y1="287.07" x2="157.87" y2="336.22" stroke="#0ecb81" stroke-width="1.4" /><rect x="154.87" y="312.06" width="6" height="2.00" rx="1.5" fill="#0ecb81" /><line x1="168.61" y1="247.92" x2="168.61" y2="394.52" stroke="#f6465d" stroke-width="1.4" /><rect x="165.61" y="312.89" width="6" height="69.14" rx="1.5" fill="#f6465d" /><line x1="179.34" y1="357.04" x2="179.34" y2="397.02" stroke="#0ecb81" stroke-width="1.4" /><rect x="176.34" y="358.71" width="6" height="23.32" rx="1.5" fill="#0ecb81" /><line x1="190.08" y1="295.40" x2="190.08" y2="373.70" stroke="#0ecb81" stroke-width="1.4" /><rect x="187.08" y="306.23" width="6" height="52.48" rx="1.5" fill="#0ecb81" /><line x1="200.81" y1="269.58" x2="200.81" y2="314.56" stroke="#0ecb81" stroke-width="1.4" /><rect x="197.81" y="297.90" width="6" height="7.50" rx="1.5" fill="#0ecb81" /><line x1="211.54" y1="269.58" x2="211.54" y2="307.06" stroke="#0ecb81" stroke-width="1.4" /><rect x="208.54" y="279.57" width="6" height="18.33" rx="1.5" fill="#0ecb81" /><line x1="222.28" y1="279.57" x2="222.28" y2="335.38" stroke="#f6465d" stroke-width="1.4" /><rect x="219.28" y="279.57" width="6" height="31.65" rx="1.5" fill="#f6465d" /><line x1="233.01" y1="288.74" x2="233.01" y2="320.39" stroke="#f6465d" stroke-width="1.4" /><rect x="230.01" y="311.23" width="6" height="4.16" rx="1.5" fill="#f6465d" /><line x1="243.75" y1="301.23" x2="243.75" y2="337.88" stroke="#0ecb81" stroke-width="1.4" /><rect x="240.75" y="309.56" width="6" height="6.66" rx="1.5" fill="#0ecb81" /><line x1="254.48" y1="299.56" x2="254.48" y2="313.73" stroke="#f6465d" stroke-width="1.4" /><rect x="251.48" y="309.56" width="6" height="2.00" rx="1.5" fill="#f6465d" /><line x1="265.22" y1="268.74" x2="265.22" y2="317.06" stroke="#0ecb81" stroke-width="1.4" /><rect x="262.22" y="293.73" width="6" height="16.66" rx="1.5" fill="#0ecb81" /><line x1="275.95" y1="284.57" x2="275.95" y2="331.22" stroke="#f6465d" stroke-width="1.4" /><rect x="272.95" y="292.90" width="6" height="20.82" rx="1.5" fill="#f6465d" /><line x1="286.68" y1="281.24" x2="286.68" y2="317.06" stroke="#0ecb81" stroke-width="1.4" /><rect x="283.68" y="293.73" width="6" height="19.99" rx="1.5" fill="#0ecb81" /><line x1="297.42" y1="292.07" x2="297.42" y2="315.39" stroke="#f6465d" stroke-width="1.4" /><rect x="294.42" y="293.73" width="6" height="13.33" rx="1.5" fill="#f6465d" /><line x1="308.15" y1="298.73" x2="308.15" y2="325.39" stroke="#f6465d" stroke-width="1.4" /><rect x="305.15" y="307.06" width="6" height="7.50" rx="1.5" fill="#f6465d" /><line x1="318.89" y1="302.90" x2="318.89" y2="322.05" stroke="#0ecb81" stroke-width="1.4" /><rect x="315.89" y="312.06" width="6" height="3.33" rx="1.5" fill="#0ecb81" /><line x1="329.62" y1="303.73" x2="329.62" y2="313.73" stroke="#f6465d" stroke-width="1.4" /><rect x="326.62" y="311.23" width="6" height="2.00" rx="1.5" fill="#f6465d" /><line x1="340.35" y1="300.40" x2="340.35" y2="314.56" stroke="#0ecb81" stroke-width="1.4" /><rect x="337.35" y="305.40" width="6" height="7.50" rx="1.5" fill="#0ecb81" /><line x1="351.09" y1="303.73" x2="351.09" y2="317.89" stroke="#f6465d" stroke-width="1.4" /><rect x="348.09" y="306.23" width="6" height="4.16" rx="1.5" fill="#f6465d" /><line x1="361.82" y1="281.24" x2="361.82" y2="315.39" stroke="#0ecb81" stroke-width="1.4" /><rect x="358.82" y="287.90" width="6" height="22.49" rx="1.5" fill="#0ecb81" /><line x1="372.56" y1="287.07" x2="372.56" y2="309.56" stroke="#f6465d" stroke-width="1.4" /><rect x="369.56" y="287.90" width="6" height="12.49" rx="1.5" fill="#f6465d" /><line x1="383.29" y1="293.73" x2="383.29" y2="333.72" stroke="#f6465d" stroke-width="1.4" /><rect x="380.29" y="301.23" width="6" height="27.49" rx="1.5" fill="#f6465d" /><line x1="394.03" y1="318.72" x2="394.03" y2="335.38" stroke="#0ecb81" stroke-width="1.4" /><rect x="391.03" y="324.55" width="6" height="5.00" rx="1.5" fill="#0ecb81" /><line x1="404.76" y1="302.06" x2="404.76" y2="326.22" stroke="#0ecb81" stroke-width="1.4" /><rect x="401.76" y="307.06" width="6" height="17.49" rx="1.5" fill="#0ecb81" /><line x1="415.49" y1="302.90" x2="415.49" y2="325.39" stroke="#f6465d" stroke-width="1.4" /><rect x="412.49" y="307.89" width="6" height="3.33" rx="1.5" fill="#f6465d" /><line x1="426.23" y1="305.40" x2="426.23" y2="327.05" stroke="#f6465d" stroke-width="1.4" /><rect x="423.23" y="310.39" width="6" height="8.33" rx="1.5" fill="#f6465d" /><line x1="436.96" y1="307.06" x2="436.96" y2="334.55" stroke="#f6465d" stroke-width="1.4" /><rect x="433.96" y="319.56" width="6" height="5.00" rx="1.5" fill="#f6465d" /><line x1="447.70" y1="293.73" x2="447.70" y2="362.04" stroke="#0ecb81" stroke-width="1.4" /><rect x="444.70" y="296.23" width="6" height="29.15" rx="1.5" fill="#0ecb81" /><line x1="458.43" y1="186.28" x2="458.43" y2="302.90" stroke="#0ecb81" stroke-width="1.4" /><rect x="455.43" y="235.42" width="6" height="60.81" rx="1.5" fill="#0ecb81" /><line x1="469.16" y1="214.60" x2="469.16" y2="270.41" stroke="#f6465d" stroke-width="1.4" /><rect x="466.16" y="235.42" width="6" height="28.32" rx="1.5" fill="#f6465d" /><line x1="479.90" y1="240.42" x2="479.90" y2="276.24" stroke="#0ecb81" stroke-width="1.4" /><rect x="476.90" y="249.59" width="6" height="14.99" rx="1.5" fill="#0ecb81" /><line x1="490.63" y1="232.09" x2="490.63" y2="267.91" stroke="#f6465d" stroke-width="1.4" /><rect x="487.63" y="248.75" width="6" height="7.50" rx="1.5" fill="#f6465d" /><line x1="501.37" y1="216.27" x2="501.37" y2="265.41" stroke="#0ecb81" stroke-width="1.4" /><rect x="498.37" y="256.25" width="6" height="2.00" rx="1.5" fill="#0ecb81" /><line x1="512.10" y1="254.58" x2="512.10" y2="276.24" stroke="#f6465d" stroke-width="1.4" /><rect x="509.10" y="256.25" width="6" height="4.16" rx="1.5" fill="#f6465d" /><line x1="522.84" y1="240.42" x2="522.84" y2="263.75" stroke="#0ecb81" stroke-width="1.4" /><rect x="519.84" y="249.59" width="6" height="10.00" rx="1.5" fill="#0ecb81" /><line x1="533.57" y1="237.92" x2="533.57" y2="254.58" stroke="#0ecb81" stroke-width="1.4" /><rect x="530.57" y="242.92" width="6" height="6.66" rx="1.5" fill="#0ecb81" /><line x1="544.30" y1="243.75" x2="544.30" y2="268.74" stroke="#f6465d" stroke-width="1.4" /><rect x="541.30" y="243.75" width="6" height="13.33" rx="1.5" fill="#f6465d" /><line x1="555.04" y1="255.42" x2="555.04" y2="285.40" stroke="#f6465d" stroke-width="1.4" /><rect x="552.04" y="257.08" width="6" height="11.66" rx="1.5" fill="#f6465d" /><line x1="565.77" y1="260.41" x2="565.77" y2="287.07" stroke="#f6465d" stroke-width="1.4" /><rect x="562.77" y="268.74" width="6" height="15.83" rx="1.5" fill="#f6465d" /><line x1="576.51" y1="272.08" x2="576.51" y2="299.56" stroke="#0ecb81" stroke-width="1.4" /><rect x="573.51" y="277.91" width="6" height="7.50" rx="1.5" fill="#0ecb81" /><line x1="587.24" y1="275.41" x2="587.24" y2="293.73" stroke="#f6465d" stroke-width="1.4" /><rect x="584.24" y="278.74" width="6" height="2.00" rx="1.5" fill="#f6465d" /><line x1="597.97" y1="279.57" x2="597.97" y2="304.56" stroke="#f6465d" stroke-width="1.4" /><rect x="594.97" y="281.24" width="6" height="19.16" rx="1.5" fill="#f6465d" /><line x1="608.71" y1="292.07" x2="608.71" y2="316.22" stroke="#f6465d" stroke-width="1.4" /><rect x="605.71" y="300.40" width="6" height="2.50" rx="1.5" fill="#f6465d" /><line x1="619.44" y1="295.40" x2="619.44" y2="381.20" stroke="#f6465d" stroke-width="1.4" /><rect x="616.44" y="302.06" width="6" height="58.31" rx="1.5" fill="#f6465d" /><line x1="630.18" y1="336.22" x2="630.18" y2="367.04" stroke="#0ecb81" stroke-width="1.4" /><rect x="627.18" y="360.37" width="6" height="2.00" rx="1.5" fill="#0ecb81" /><line x1="640.91" y1="351.21" x2="640.91" y2="367.04" stroke="#0ecb81" stroke-width="1.4" /><rect x="637.91" y="359.54" width="6" height="2.00" rx="1.5" fill="#0ecb81" /><line x1="651.65" y1="337.05" x2="651.65" y2="358.71" stroke="#0ecb81" stroke-width="1.4" /><rect x="648.65" y="341.21" width="6" height="17.49" rx="1.5" fill="#0ecb81" /><line x1="662.38" y1="306.23" x2="662.38" y2="345.38" stroke="#0ecb81" stroke-width="1.4" /><rect x="659.38" y="340.38" width="6" height="2.00" rx="1.5" fill="#0ecb81" /><line x1="673.11" y1="332.88" x2="673.11" y2="347.88" stroke="#0ecb81" stroke-width="1.4" /><rect x="670.11" y="334.55" width="6" height="5.00" rx="1.5" fill="#0ecb81" /><line x1="683.85" y1="329.55" x2="683.85" y2="429.51" stroke="#f6465d" stroke-width="1.4" /><rect x="680.85" y="333.72" width="6" height="76.63" rx="1.5" fill="#f6465d" /><line x1="694.58" y1="387.03" x2="694.58" y2="452.00" stroke="#0ecb81" stroke-width="1.4" /><rect x="691.58" y="392.86" width="6" height="17.49" rx="1.5" fill="#0ecb81" /><line x1="705.32" y1="369.53" x2="705.32" y2="397.86" stroke="#0ecb81" stroke-width="1.4" /><rect x="702.32" y="385.36" width="6" height="7.50" rx="1.5" fill="#0ecb81" /><line x1="716.05" y1="297.07" x2="716.05" y2="412.02" stroke="#0ecb81" stroke-width="1.4" /><rect x="713.05" y="360.37" width="6" height="25.82" rx="1.5" fill="#0ecb81" /><line x1="726.78" y1="342.05" x2="726.78" y2="377.86" stroke="#f6465d" stroke-width="1.4" /><rect x="723.78" y="359.54" width="6" height="12.49" rx="1.5" fill="#f6465d" /><line x1="737.52" y1="332.05" x2="737.52" y2="379.53" stroke="#0ecb81" stroke-width="1.4" /><rect x="734.52" y="335.38" width="6" height="35.82" rx="1.5" fill="#0ecb81" /><line x1="748.25" y1="315.39" x2="748.25" y2="351.21" stroke="#0ecb81" stroke-width="1.4" /><rect x="745.25" y="330.38" width="6" height="5.83" rx="1.5" fill="#0ecb81" /><line x1="758.99" y1="307.06" x2="758.99" y2="366.20" stroke="#f6465d" stroke-width="1.4" /><rect x="755.99" y="331.22" width="6" height="10.83" rx="1.5" fill="#f6465d" /><line x1="769.72" y1="307.89" x2="769.72" y2="342.88" stroke="#0ecb81" stroke-width="1.4" /><rect x="766.72" y="312.06" width="6" height="29.99" rx="1.5" fill="#0ecb81" /><line x1="780.46" y1="310.39" x2="780.46" y2="369.53" stroke="#f6465d" stroke-width="1.4" /><rect x="777.46" y="312.89" width="6" height="35.82" rx="1.5" fill="#f6465d" /><line x1="791.19" y1="267.08" x2="791.19" y2="402.85" stroke="#0ecb81" stroke-width="1.4" /><rect x="788.19" y="278.74" width="6" height="69.97" rx="1.5" fill="#0ecb81" /><line x1="801.92" y1="147.13" x2="801.92" y2="287.90" stroke="#0ecb81" stroke-width="1.4" /><rect x="798.92" y="168.79" width="6" height="109.95" rx="1.5" fill="#0ecb81" /><line x1="812.66" y1="77.16" x2="812.66" y2="167.95" stroke="#0ecb81" stroke-width="1.4" /><rect x="809.66" y="131.30" width="6" height="36.65" rx="1.5" fill="#0ecb81" /><line x1="823.39" y1="122.97" x2="823.39" y2="187.11" stroke="#f6465d" stroke-width="1.4" /><rect x="820.39" y="131.30" width="6" height="52.48" rx="1.5" fill="#f6465d" /><line x1="834.13" y1="90.49" x2="834.13" y2="187.95" stroke="#0ecb81" stroke-width="1.4" /><rect x="831.13" y="124.64" width="6" height="59.14" rx="1.5" fill="#0ecb81" /><line x1="844.86" y1="117.97" x2="844.86" y2="164.62" stroke="#f6465d" stroke-width="1.4" /><rect x="841.86" y="124.64" width="6" height="25.82" rx="1.5" fill="#f6465d" /><line x1="855.59" y1="125.47" x2="855.59" y2="177.12" stroke="#f6465d" stroke-width="1.4" /><rect x="852.59" y="150.46" width="6" height="9.16" rx="1.5" fill="#f6465d" /><line x1="866.33" y1="152.13" x2="866.33" y2="172.95" stroke="#f6465d" stroke-width="1.4" /><rect x="863.33" y="158.79" width="6" height="9.16" rx="1.5" fill="#f6465d" /><line x1="877.06" y1="147.13" x2="877.06" y2="247.09" stroke="#f6465d" stroke-width="1.4" /><rect x="874.06" y="167.95" width="6" height="34.15" rx="1.5" fill="#f6465d" /><line x1="887.80" y1="161.29" x2="887.80" y2="218.77" stroke="#0ecb81" stroke-width="1.4" /><rect x="884.80" y="175.45" width="6" height="26.66" rx="1.5" fill="#0ecb81" /><line x1="898.53" y1="137.13" x2="898.53" y2="185.45" stroke="#0ecb81" stroke-width="1.4" /><rect x="895.53" y="161.29" width="6" height="14.99" rx="1.5" fill="#0ecb81" /><line x1="909.27" y1="58.00" x2="909.27" y2="170.45" stroke="#0ecb81" stroke-width="1.4" /><rect x="906.27" y="120.47" width="6" height="40.82" rx="1.5" fill="#0ecb81" /><line x1="920.00" y1="84.66" x2="920.00" y2="120.47" stroke="#0ecb81" stroke-width="1.4" /><rect x="917.00" y="112.14" width="6" height="8.33" rx="1.5" fill="#0ecb81" />
  <polyline points="662.38,306.23 694.58,452.00 716.05,297.07 791.19,402.85 812.66,77.16" fill="none" stroke="#2fc273" stroke-width="4" stroke-linecap="round" stroke-linejoin="round" />
  <circle cx="662.38" cy="306.23" r="5.5" fill="#2fc273" fill-opacity="0.15" stroke="#2fc273" stroke-width="2" /><text x="662.38" y="294.23" fill="#f3f4f6" font-size="15" font-weight="700" text-anchor="middle">X</text><circle cx="694.58" cy="452.00" r="5.5" fill="#2fc273" fill-opacity="0.15" stroke="#2fc273" stroke-width="2" /><text x="694.58" y="440.00" fill="#f3f4f6" font-size="15" font-weight="700" text-anchor="middle">A</text><circle cx="716.05" cy="297.07" r="5.5" fill="#2fc273" fill-opacity="0.15" stroke="#2fc273" stroke-width="2" /><text x="716.05" y="285.07" fill="#f3f4f6" font-size="15" font-weight="700" text-anchor="middle">B</text><circle cx="791.19" cy="402.85" r="5.5" fill="#2fc273" fill-opacity="0.15" stroke="#2fc273" stroke-width="2" /><text x="791.19" y="390.85" fill="#f3f4f6" font-size="15" font-weight="700" text-anchor="middle">C</text><circle cx="812.66" cy="77.16" r="5.5" fill="#2fc273" fill-opacity="0.15" stroke="#2fc273" stroke-width="2" /><text x="812.66" y="65.16" fill="#f3f4f6" font-size="15" font-weight="700" text-anchor="middle">D</text>
  <text x="56" y="492" fill="#8ba0b5" font-size="18">일반 완성 · TP1 81.456 · TP2 80.534 · SL 83.178</text>
</svg>
