<svg xmlns="http://www.w3.org/2000/svg" width="960" height="540" viewBox="0 0 960 540">
  <rect width="960" height="540" rx="24" fill="#0b1220" />
  <rect x="28" y="28" width="904" height="484" rx="22" fill="#111827" stroke="#1f2937" />
  <text x="56" y="74" fill="#f3f4f6" font-size="34" font-weight="700">SOLUSDT · AB=CD</text>
  <text x="904" y="74" fill="#8ba0b5" font-size="20" text-anchor="end">Bearish (매도) · Score 85.9</text>
  <line x1="72" y1="58" x2="920" y2="58" stroke="#223045" stroke-width="1" stroke-dasharray="4 8" /><line x1="72" y1="156" x2="920" y2="156" stroke="#223045" stroke-width="1" stroke-dasharray="4 8" /><line x1="72" y1="255" x2="920" y2="255" stroke="#223045" stroke-width="1" stroke-dasharray="4 8" /><line x1="72" y1="353" x2="920" y2="353" stroke="#223045" stroke-width="1" stroke-dasharray="4 8" /><line x1="72" y1="452" x2="920" y2="452" stroke="#223045" stroke-width="1" stroke-dasharray="4 8" />
  <rect x="462.63" y="64.53" width="84" height="32.01" fill="#fbbf24" fill-opacity="0.12" stroke="#fbbf24" stroke-width="1.5" stroke-dasharray="6 6" />
  <line x1="72.00" y1="235.73" x2="72.00" y2="274.27" stroke="#f6465d" stroke-width="1.4" /><rect x="69.00" y="249.10" width="6" height="11.80" rx="1.5" fill="#f6465d" /><line x1="82.73" y1="216.07" x2="82.73" y2="269.55" stroke="#0ecb81" stroke-width="1.4" /><rect x="79.73" y="219.22" width="6" height="41.68" rx="1.5" fill="#0ecb81" /><line x1="93.47" y1="219.22" x2="93.47" y2="267.19" stroke="#f6465d" stroke-width="1.4" /><rect x="90.47" y="219.22" width="6" height="40.89" rx="1.5" fill="#f6465d" /><line x1="104.20" y1="240.45" x2="104.20" y2="276.63" stroke="#0ecb81" stroke-width="1.4" /><rect x="101.20" y="248.32" width="6" height="12.58" rx="1.5" fill="#0ecb81" /><line x1="114.94" y1="244.38" x2="114.94" y2="286.06" stroke="#f6465d" stroke-width="1.4" /><rect x="111.94" y="249.10" width="6" height="29.10" rx="1.5" fill="#f6465d" /><line x1="125.67" y1="270.34" x2="125.67" y2="335.61" stroke="#f6465d" stroke-width="1.4" /><rect x="122.67" y="278.20" width="6" height="44.83" rx="1.5" fill="#f6465d" /><line x1="136.41" y1="301.01" x2="136.41" y2="357.63" stroke="#f6465d" stroke-width="1.4" /><rect x="133.41" y="322.24" width="6" height="27.52" rx="1.5" fill="#f6465d" /><line x1="147.14" y1="326.96" x2="147.14" y2="452.00" stroke="#f6465d" stroke-width="1.4" /><rect x="144.14" y="349.76" width="6" height="18.87" rx="1.5" fill="#f6465d" /><line x1="157.87" y1="212.93" x2="157.87" y2="386.73" stroke="#0ecb81" stroke-width="1.4" /><rect x="154.87" y="264.04" width="6" height="103.81" rx="1.5" fill="#0ecb81" /><line x1="168.61" y1="249.10" x2="168.61" y2="326.17" stroke="#f6465d" stroke-width="1.4" /><rect x="165.61" y="263.26" width="6" height="2.00" rx="1.5" fill="#f6465d" /><line x1="179.34" y1="197.98" x2="179.34" y2="291.57" stroke="#0ecb81" stroke-width="1.4" /><rect x="176.34" y="234.95" width="6" height="29.88" rx="1.5" fill="#0ecb81" /><line x1="190.08" y1="215.29" x2="190.08" y2="304.15" stroke="#f6465d" stroke-width="1.4" /><rect x="187.08" y="235.73" width="6" height="64.49" rx="1.5" fill="#f6465d" /><line x1="200.81" y1="245.96" x2="200.81" y2="314.38" stroke="#0ecb81" stroke-width="1.4" /><rect x="197.81" y="257.75" width="6" height="42.47" rx="1.5" fill="#0ecb81" /><line x1="211.54" y1="248.32" x2="211.54" y2="293.14" stroke="#f6465d" stroke-width="1.4" /><rect x="208.54" y="257.75" width="6" height="11.80" rx="1.5" fill="#f6465d" /><line x1="222.28" y1="239.66" x2="222.28" y2="286.85" stroke="#0ecb81" stroke-width="1.4" /><rect x="219.28" y="254.61" width="6" height="14.94" rx="1.5" fill="#0ecb81" /><line x1="233.01" y1="249.89" x2="233.01" y2="298.65" stroke="#f6465d" stroke-width="1.4" /><rect x="230.01" y="255.39" width="6" height="15.73" rx="1.5" fill="#f6465d" /><line x1="243.75" y1="257.75" x2="243.75" y2="290.78" stroke="#0ecb81" stroke-width="1.4" /><rect x="240.75" y="270.34" width="6" height="2.00" rx="1.5" fill="#0ecb81" /><line x1="254.48" y1="256.18" x2="254.48" y2="286.06" stroke="#f6465d" stroke-width="1.4" /><rect x="251.48" y="271.12" width="6" height="2.00" rx="1.5" fill="#f6465d" /><line x1="265.22" y1="237.31" x2="265.22" y2="278.99" stroke="#0ecb81" stroke-width="1.4" /><rect x="262.22" y="251.46" width="6" height="21.23" rx="1.5" fill="#0ecb81" /><line x1="275.95" y1="205.06" x2="275.95" y2="271.12" stroke="#f6465d" stroke-width="1.4" /><rect x="272.95" y="251.46" width="6" height="3.93" rx="1.5" fill="#f6465d" /><line x1="286.68" y1="221.58" x2="286.68" y2="281.35" stroke="#0ecb81" stroke-width="1.4" /><rect x="283.68" y="240.45" width="6" height="14.94" rx="1.5" fill="#0ecb81" /><line x1="297.42" y1="234.16" x2="297.42" y2="268.76" stroke="#f6465d" stroke-width="1.4" /><rect x="294.42" y="240.45" width="6" height="27.52" rx="1.5" fill="#f6465d" /><line x1="308.15" y1="226.30" x2="308.15" y2="269.55" stroke="#0ecb81" stroke-width="1.4" /><rect x="305.15" y="244.38" width="6" height="24.38" rx="1.5" fill="#0ecb81" /><line x1="318.89" y1="216.86" x2="318.89" y2="264.83" stroke="#0ecb81" stroke-width="1.4" /><rect x="315.89" y="244.38" width="6" height="2.00" rx="1.5" fill="#0ecb81" /><line x1="329.62" y1="212.93" x2="329.62" y2="253.82" stroke="#0ecb81" stroke-width="1.4" /><rect x="326.62" y="218.43" width="6" height="25.95" rx="1.5" fill="#0ecb81" /><line x1="340.35" y1="175.18" x2="340.35" y2="234.95" stroke="#0ecb81" stroke-width="1.4" /><rect x="337.35" y="194.84" width="6" height="23.59" rx="1.5" fill="#0ecb81" /><line x1="351.09" y1="179.90" x2="351.09" y2="220.00" stroke="#f6465d" stroke-width="1.4" /><rect x="348.09" y="194.84" width="6" height="14.94" rx="1.5" fill="#f6465d" /><line x1="361.82" y1="172.82" x2="361.82" y2="215.29" stroke="#0ecb81" stroke-width="1.4" /><rect x="358.82" y="193.27" width="6" height="15.73" rx="1.5" fill="#0ecb81" /><line x1="372.56" y1="175.96" x2="372.56" y2="214.50" stroke="#0ecb81" stroke-width="1.4" /><rect x="369.56" y="177.54" width="6" height="15.73" rx="1.5" fill="#0ecb81" /><line x1="383.29" y1="153.16" x2="383.29" y2="199.56" stroke="#0ecb81" stroke-width="1.4" /><rect x="380.29" y="176.75" width="6" height="2.00" rx="1.5" fill="#0ecb81" /><line x1="394.03" y1="116.20" x2="394.03" y2="254.61" stroke="#f6465d" stroke-width="1.4" /><rect x="391.03" y="177.54" width="6" height="65.27" rx="1.5" fill="#f6465d" /><line x1="404.76" y1="219.22" x2="404.76" y2="256.97" stroke="#0ecb81" stroke-width="1.4" /><rect x="401.76" y="220.79" width="6" height="22.02" rx="1.5" fill="#0ecb81" /><line x1="415.49" y1="161.02" x2="415.49" y2="234.95" stroke="#0ecb81" stroke-width="1.4" /><rect x="412.49" y="171.25" width="6" height="49.54" rx="1.5" fill="#0ecb81" /><line x1="426.23" y1="136.64" x2="426.23" y2="179.11" stroke="#0ecb81" stroke-width="1.4" /><rect x="423.23" y="163.38" width="6" height="7.08" rx="1.5" fill="#0ecb81" /><line x1="436.96" y1="136.64" x2="436.96" y2="172.03" stroke="#0ecb81" stroke-width="1.4" /><rect x="433.96" y="146.08" width="6" height="17.30" rx="1.5" fill="#0ecb81" /><line x1="447.70" y1="146.08" x2="447.70" y2="198.77" stroke="#f6465d" stroke-width="1.4" /><rect x="444.70" y="146.08" width="6" height="29.88" rx="1.5" fill="#f6465d" /><line x1="458.43" y1="154.73" x2="458.43" y2="184.61" stroke="#f6465d" stroke-width="1.4" /><rect x="455.43" y="175.96" width="6" height="3.93" rx="1.5" fill="#f6465d" /><line x1="469.16" y1="166.53" x2="469.16" y2="201.13" stroke="#0ecb81" stroke-width="1.4" /><rect x="466.16" y="174.39" width="6" height="6.29" rx="1.5" fill="#0ecb81" /><line x1="479.90" y1="164.95" x2="479.90" y2="178.32" stroke="#f6465d" stroke-width="1.4" /><rect x="476.90" y="174.39" width="6" height="2.00" rx="1.5" fill="#f6465d" /><line x1="490.63" y1="135.86" x2="490.63" y2="181.47" stroke="#0ecb81" stroke-width="1.4" /><rect x="487.63" y="159.45" width="6" height="15.73" rx="1.5" fill="#0ecb81" /><line x1="501.37" y1="150.80" x2="501.37" y2="194.84" stroke="#f6465d" stroke-width="1.4" /><rect x="498.37" y="158.66" width="6" height="19.66" rx="1.5" fill="#f6465d" /><line x1="512.10" y1="147.65" x2="512.10" y2="181.47" stroke="#0ecb81" stroke-width="1.4" /><rect x="509.10" y="159.45" width="6" height="18.87" rx="1.5" fill="#0ecb81" /><line x1="522.84" y1="157.88" x2="522.84" y2="179.90" stroke="#f6465d" stroke-width="1.4" /><rect x="519.84" y="159.45" width="6" height="12.58" rx="1.5" fill="#f6465d" /><line x1="533.57" y1="164.17" x2="533.57" y2="189.33" stroke="#f6465d" stroke-width="1.4" /><rect x="530.57" y="172.03" width="6" height="7.08" rx="1.5" fill="#f6465d" /><line x1="544.30" y1="168.10" x2="544.30" y2="186.19" stroke="#0ecb81" stroke-width="1.4" /><rect x="541.30" y="176.75" width="6" height="3.15" rx="1.5" fill="#0ecb81" /><line x1="555.04" y1="168.89" x2="555.04" y2="178.32" stroke="#f6465d" stroke-width="1.4" /><rect x="552.04" y="175.96" width="6" height="2.00" rx="1.5" fill="#f6465d" /><line x1="565.77" y1="165.74" x2="565.77" y2="179.11" stroke="#0ecb81" stroke-width="1.4" /><rect x="562.77" y="170.46" width="6" height="7.08" rx="1.5" fill="#0ecb81" /><line x1="576.51" y1="168.89" x2="576.51" y2="182.26" stroke="#f6465d" stroke-width="1.4" /><rect x="573.51" y="171.25" width="6" height="3.93" rx="1.5" fill="#f6465d" /><line x1="587.24" y1="147.65" x2="587.24" y2="179.90" stroke="#0ecb81" stroke-width="1.4" /><rect x="584.24" y="153.94" width="6" height="21.23" rx="1.5" fill="#0ecb81" /><line x1="597.97" y1="153.16" x2="597.97" y2="174.39" stroke="#f6465d" stroke-width="1.4" /><rect x="594.97" y="153.94" width="6" height="11.80" rx="1.5" fill="#f6465d" /><line x1="608.71" y1="159.45" x2="608.71" y2="197.20" stroke="#f6465d" stroke-width="1.4" /><rect x="605.71" y="166.53" width="6" height="25.95" rx="1.5" fill="#f6465d" /><line x1="619.44" y1="183.04" x2="619.44" y2="198.77" stroke="#0ecb81" stroke-width="1.4" /><rect x="616.44" y="188.55" width="6" height="4.72" rx="1.5" fill="#0ecb81" /><line x1="630.18" y1="167.31" x2="630.18" y2="190.12" stroke="#0ecb81" stroke-width="1.4" /><rect x="627.18" y="172.03" width="6" height="16.51" rx="1.5" fill="#0ecb81" /><line x1="640.91" y1="168.10" x2="640.91" y2="189.33" stroke="#f6465d" stroke-width="1.4" /><rect x="637.91" y="172.82" width="6" height="3.15" rx="1.5" fill="#f6465d" /><line x1="651.65" y1="170.46" x2="651.65" y2="190.91" stroke="#f6465d" stroke-width="1.4" /><rect x="648.65" y="175.18" width="6" height="7.86" rx="1.5" fill="#f6465d" /><line x1="662.38" y1="172.03" x2="662.38" y2="197.98" stroke="#f6465d" stroke-width="1.4" /><rect x="659.38" y="183.83" width="6" height="4.72" rx="1.5" fill="#f6465d" /><line x1="673.11" y1="159.45" x2="673.11" y2="223.94" stroke="#0ecb81" stroke-width="1.4" /><rect x="670.11" y="161.81" width="6" height="27.52" rx="1.5" fill="#0ecb81" /><line x1="683.85" y1="58.00" x2="683.85" y2="168.10" stroke="#0ecb81" stroke-width="1.4" /><rect x="680.85" y="104.40" width="6" height="57.41" rx="1.5" fill="#0ecb81" /><line x1="694.58" y1="84.74" x2="694.58" y2="137.43" stroke="#f6465d" stroke-width="1.4" /><rect x="691.58" y="104.40" width="6" height="26.74" rx="1.5" fill="#f6465d" /><line x1="705.32" y1="109.12" x2="705.32" y2="142.93" stroke="#0ecb81" stroke-width="1.4" /><rect x="702.32" y="117.77" width="6" height="14.16" rx="1.5" fill="#0ecb81" /><line x1="716.05" y1="101.25" x2="716.05" y2="135.07" stroke="#f6465d" stroke-width="1.4" /><rect x="713.05" y="116.98" width="6" height="7.08" rx="1.5" fill="#f6465d" /><line x1="726.78" y1="86.31" x2="726.78" y2="132.71" stroke="#0ecb81" stroke-width="1.4" /><rect x="723.78" y="124.06" width="6" height="2.00" rx="1.5" fill="#0ecb81" /><line x1="737.52" y1="122.49" x2="737.52" y2="142.93" stroke="#f6465d" stroke-width="1.4" /><rect x="734.52" y="124.06" width="6" height="3.93" rx="1.5" fill="#f6465d" /><line x1="748.25" y1="109.12" x2="748.25" y2="131.14" stroke="#0ecb81" stroke-width="1.4" /><rect x="745.25" y="117.77" width="6" height="9.44" rx="1.5" fill="#0ecb81" /><line x1="758.99" y1="106.76" x2="758.99" y2="122.49" stroke="#0ecb81" stroke-width="1.4" /><rect x="755.99" y="111.48" width="6" height="6.29" rx="1.5" fill="#0ecb81" /><line x1="769.72" y1="112.26" x2="769.72" y2="135.86" stroke="#f6465d" stroke-width="1.4" /><rect x="766.72" y="112.26" width="6" height="12.58" rx="1.5" fill="#f6465d" /><line x1="780.46" y1="123.27" x2="780.46" y2="151.58" stroke="#f6465d" stroke-width="1.4" /><rect x="777.46" y="124.85" width="6" height="11.01" rx="1.5" fill="#f6465d" /><line x1="791.19" y1="127.99" x2="791.19" y2="153.16" stroke="#f6465d" stroke-width="1.4" /><rect x="788.19" y="135.86" width="6" height="14.94" rx="1.5" fill="#f6465d" /><line x1="801.92" y1="139.00" x2="801.92" y2="164.95" stroke="#0ecb81" stroke-width="1.4" /><rect x="798.92" y="144.51" width="6" height="7.08" rx="1.5" fill="#0ecb81" /><line x1="812.66" y1="142.15" x2="812.66" y2="159.45" stroke="#f6465d" stroke-width="1.4" /><rect x="809.66" y="145.29" width="6" height="2.00" rx="1.5" fill="#f6465d" /><line x1="823.39" y1="146.08" x2="823.39" y2="169.67" stroke="#f6465d" stroke-width="1.4" /><rect x="820.39" y="147.65" width="6" height="18.09" rx="1.5" fill="#f6465d" /><line x1="834.13" y1="157.88" x2="834.13" y2="180.68" stroke="#f6465d" stroke-width="1.4" /><rect x="831.13" y="165.74" width="6" height="2.36" rx="1.5" fill="#f6465d" /><line x1="844.86" y1="161.02" x2="844.86" y2="242.02" stroke="#f6465d" stroke-width="1.4" /><rect x="841.86" y="167.31" width="6" height="55.05" rx="1.5" fill="#f6465d" /><line x1="855.59" y1="199.56" x2="855.59" y2="228.65" stroke="#0ecb81" stroke-width="1.4" /><rect x="852.59" y="222.36" width="6" height="2.00" rx="1.5" fill="#0ecb81" /><line x1="866.33" y1="213.71" x2="866.33" y2="228.65" stroke="#0ecb81" stroke-width="1.4" /><rect x="863.33" y="221.58" width="6" height="2.00" rx="1.5" fill="#0ecb81" /><line x1="877.06" y1="200.34" x2="877.06" y2="220.79" stroke="#0ecb81" stroke-width="1.4" /><rect x="874.06" y="204.28" width="6" height="16.51" rx="1.5" fill="#0ecb81" /><line x1="887.80" y1="171.25" x2="887.80" y2="208.21" stroke="#0ecb81" stroke-width="1.4" /><rect x="884.80" y="203.49" width="6" height="2.00" rx="1.5" fill="#0ecb81" /><line x1="898.53" y1="196.41" x2="898.53" y2="210.57" stroke="#0ecb81" stroke-width="1.4" /><rect x="895.53" y="197.98" width="6" height="4.72" rx="1.5" fill="#0ecb81" /><line x1="909.27" y1="193.27" x2="909.27" y2="287.64" stroke="#f6465d" stroke-width="1.4" /><rect x="906.27" y="197.20" width="6" height="72.35" rx="1.5" fill="#f6465d" /><line x1="920.00" y1="264.83" x2="920.00" y2="271.12" stroke="#0ecb81" stroke-width="1.4" /><rect x="917.00" y="267.19" width="6" height="2.36" rx="1.5" fill="#0ecb81" />
  <polyline points="394.03,116.20 404.76,256.97 436.96,136.64 469.16,201.13 490.63,135.86" fill="none" stroke="#2fc273" stroke-width="4" stroke-linecap="round" stroke-linejoin="round" />
  <circle cx="394.03" cy="116.20" r="5.5" fill="#2fc273" fill-opacity="0.15" stroke="#2fc273" stroke-width="2" /><text x="394.03" y="104.20" fill="#f3f4f6" font-size="15" font-weight="700" text-anchor="middle">X</text><circle cx="404.76" cy="256.97" r="5.5" fill="#2fc273" fill-opacity="0.15" stroke="#2fc273" stroke-width="2" /><text x="404.76" y="244.97" fill="#f3f4f6" font-size="15" font-weight="700" text-anchor="middle">A</text><circle cx="436.96" cy="136.64" r="5.5" fill="#2fc273" fill-opacity="0.15" stroke="#2fc273" stroke-width="2" /><text x="436.96" y="124.64" fill="#f3f4f6" font-size="15" font-weight="700" text-anchor="middle">B</text><circle cx="469.16" cy="201.13" r="5.5" fill="#2fc273" fill-opacity="0.15" stroke="#2fc273" stroke-width="2" /><text x="469.16" y="189.13" fill="#f3f4f6" font-size="15" font-weight="700" text-anchor="middle">C</text><circle cx="490.63" cy="135.86" r="5.5" fill="#2fc273" fill-opacity="0.15" stroke="#2fc273" stroke-width="2" /><text x="490.63" y="123.86" fill="#f3f4f6" font-size="15" font-weight="700" text-anchor="middle">D</text>
  <text x="56" y="492" fill="#8ba0b5" font-size="18">일반 완성 · TP1 80.333 · TP2 80.137 · SL 80.883</text>
</svg>
