<svg xmlns="http://www.w3.org/2000/svg" width="960" height="540" viewBox="0 0 960 540">
  <rect width="960" height="540" rx="24" fill="#0b1220" />
  <rect x="28" y="28" width="904" height="484" rx="22" fill="#111827" stroke="#1f2937" />
  <text x="56" y="74" fill="#f3f4f6" font-size="34" font-weight="700">SOLVUSDT · AB=CD</text>
  <text x="904" y="74" fill="#8ba0b5" font-size="20" text-anchor="end">Bullish (매수) · Score 83.6</text>
  <line x1="72" y1="58" x2="920" y2="58" stroke="#223045" stroke-width="1" stroke-dasharray="4 8" /><line x1="72" y1="156" x2="920" y2="156" stroke="#223045" stroke-width="1" stroke-dasharray="4 8" /><line x1="72" y1="255" x2="920" y2="255" stroke="#223045" stroke-width="1" stroke-dasharray="4 8" /><line x1="72" y1="353" x2="920" y2="353" stroke="#223045" stroke-width="1" stroke-dasharray="4 8" /><line x1="72" y1="452" x2="920" y2="452" stroke="#223045" stroke-width="1" stroke-dasharray="4 8" />
  <rect x="344.56" y="474.37" width="84" height="20.81" fill="#fbbf24" fill-opacity="0.12" stroke="#fbbf24" stroke-width="1.5" stroke-dasharray="6 6" />
  <line x1="72.00" y1="216.41" x2="72.00" y2="288.67" stroke="#f6465d" stroke-width="1.4" /><rect x="69.00" y="223.12" width="6" height="59.29" rx="1.5" fill="#f6465d" /><line x1="82.73" y1="243.25" x2="82.73" y2="361.83" stroke="#f6465d" stroke-width="1.4" /><rect x="79.73" y="282.41" width="6" height="69.58" rx="1.5" fill="#f6465d" /><line x1="93.47" y1="310.82" x2="93.47" y2="357.81" stroke="#0ecb81" stroke-width="1.4" /><rect x="90.47" y="345.73" width="6" height="6.49" rx="1.5" fill="#0ecb81" /><line x1="104.20" y1="322.23" x2="104.20" y2="362.06" stroke="#0ecb81" stroke-width="1.4" /><rect x="101.20" y="337.00" width="6" height="8.50" rx="1.5" fill="#0ecb81" /><line x1="114.94" y1="330.73" x2="114.94" y2="434.55" stroke="#f6465d" stroke-width="1.4" /><rect x="111.94" y="337.45" width="6" height="88.60" rx="1.5" fill="#f6465d" /><line x1="125.67" y1="385.33" x2="125.67" y2="442.38" stroke="#0ecb81" stroke-width="1.4" /><rect x="122.67" y="394.95" width="6" height="31.10" rx="1.5" fill="#0ecb81" /><line x1="136.41" y1="388.01" x2="136.41" y2="413.74" stroke="#f6465d" stroke-width="1.4" /><rect x="133.41" y="395.17" width="6" height="9.84" rx="1.5" fill="#f6465d" /><line x1="147.14" y1="395.62" x2="147.14" y2="428.96" stroke="#f6465d" stroke-width="1.4" /><rect x="144.14" y="405.46" width="6" height="22.82" rx="1.5" fill="#f6465d" /><line x1="157.87" y1="388.01" x2="157.87" y2="446.63" stroke="#0ecb81" stroke-width="1.4" /><rect x="154.87" y="396.51" width="6" height="31.77" rx="1.5" fill="#0ecb81" /><line x1="168.61" y1="350.87" x2="168.61" y2="400.54" stroke="#0ecb81" stroke-width="1.4" /><rect x="165.61" y="395.39" width="6" height="2.00" rx="1.5" fill="#0ecb81" /><line x1="179.34" y1="367.20" x2="179.34" y2="408.37" stroke="#0ecb81" stroke-width="1.4" /><rect x="176.34" y="389.80" width="6" height="5.37" rx="1.5" fill="#0ecb81" /><line x1="190.08" y1="320.89" x2="190.08" y2="398.75" stroke="#0ecb81" stroke-width="1.4" /><rect x="187.08" y="326.04" width="6" height="63.76" rx="1.5" fill="#0ecb81" /><line x1="200.81" y1="304.11" x2="200.81" y2="360.94" stroke="#f6465d" stroke-width="1.4" /><rect x="197.81" y="326.04" width="6" height="10.74" rx="1.5" fill="#f6465d" /><line x1="211.54" y1="328.50" x2="211.54" y2="401.66" stroke="#f6465d" stroke-width="1.4" /><rect x="208.54" y="337.22" width="6" height="55.49" rx="1.5" fill="#f6465d" /><line x1="222.28" y1="388.46" x2="222.28" y2="426.94" stroke="#f6465d" stroke-width="1.4" /><rect x="219.28" y="392.49" width="6" height="27.97" rx="1.5" fill="#f6465d" /><line x1="233.01" y1="409.94" x2="233.01" y2="439.92" stroke="#f6465d" stroke-width="1.4" /><rect x="230.01" y="420.45" width="6" height="14.10" rx="1.5" fill="#f6465d" /><line x1="243.75" y1="425.60" x2="243.75" y2="452.00" stroke="#0ecb81" stroke-width="1.4" /><rect x="240.75" y="431.19" width="6" height="3.80" rx="1.5" fill="#0ecb81" /><line x1="254.48" y1="421.12" x2="254.48" y2="450.66" stroke="#f6465d" stroke-width="1.4" /><rect x="251.48" y="431.19" width="6" height="7.61" rx="1.5" fill="#f6465d" /><line x1="265.22" y1="423.14" x2="265.22" y2="439.25" stroke="#0ecb81" stroke-width="1.4" /><rect x="262.22" y="430.52" width="6" height="8.05" rx="1.5" fill="#0ecb81" /><line x1="275.95" y1="425.15" x2="275.95" y2="441.71" stroke="#0ecb81" stroke-width="1.4" /><rect x="272.95" y="430.07" width="6" height="2.00" rx="1.5" fill="#0ecb81" /><line x1="286.68" y1="412.40" x2="286.68" y2="438.13" stroke="#0ecb81" stroke-width="1.4" /><rect x="283.68" y="422.47" width="6" height="7.83" rx="1.5" fill="#0ecb81" /><line x1="297.42" y1="377.27" x2="297.42" y2="433.65" stroke="#0ecb81" stroke-width="1.4" /><rect x="294.42" y="382.19" width="6" height="40.50" rx="1.5" fill="#0ecb81" /><line x1="308.15" y1="324.02" x2="308.15" y2="384.66" stroke="#0ecb81" stroke-width="1.4" /><rect x="305.15" y="375.48" width="6" height="6.26" rx="1.5" fill="#0ecb81" /><line x1="318.89" y1="375.48" x2="318.89" y2="430.97" stroke="#f6465d" stroke-width="1.4" /><rect x="315.89" y="375.48" width="6" height="53.03" rx="1.5" fill="#f6465d" /><line x1="329.62" y1="396.96" x2="329.62" y2="434.10" stroke="#0ecb81" stroke-width="1.4" /><rect x="326.62" y="416.65" width="6" height="11.41" rx="1.5" fill="#0ecb81" /><line x1="340.35" y1="373.24" x2="340.35" y2="424.70" stroke="#0ecb81" stroke-width="1.4" /><rect x="337.35" y="395.62" width="6" height="20.36" rx="1.5" fill="#0ecb81" /><line x1="351.09" y1="364.30" x2="351.09" y2="427.61" stroke="#f6465d" stroke-width="1.4" /><rect x="348.09" y="395.17" width="6" height="22.82" rx="1.5" fill="#f6465d" /><line x1="361.82" y1="400.32" x2="361.82" y2="428.06" stroke="#f6465d" stroke-width="1.4" /><rect x="358.82" y="417.77" width="6" height="5.59" rx="1.5" fill="#f6465d" /><line x1="372.56" y1="391.37" x2="372.56" y2="442.38" stroke="#0ecb81" stroke-width="1.4" /><rect x="369.56" y="398.53" width="6" height="24.83" rx="1.5" fill="#0ecb81" /><line x1="383.29" y1="373.92" x2="383.29" y2="417.99" stroke="#0ecb81" stroke-width="1.4" /><rect x="380.29" y="377.05" width="6" height="21.48" rx="1.5" fill="#0ecb81" /><line x1="394.03" y1="362.28" x2="394.03" y2="419.33" stroke="#f6465d" stroke-width="1.4" /><rect x="391.03" y="377.50" width="6" height="36.92" rx="1.5" fill="#f6465d" /><line x1="404.76" y1="375.71" x2="404.76" y2="424.03" stroke="#0ecb81" stroke-width="1.4" /><rect x="401.76" y="384.88" width="6" height="29.53" rx="1.5" fill="#0ecb81" /><line x1="415.49" y1="368.32" x2="415.49" y2="397.41" stroke="#0ecb81" stroke-width="1.4" /><rect x="412.49" y="382.19" width="6" height="2.24" rx="1.5" fill="#0ecb81" /><line x1="426.23" y1="382.42" x2="426.23" y2="408.15" stroke="#f6465d" stroke-width="1.4" /><rect x="423.23" y="382.64" width="6" height="17.45" rx="1.5" fill="#f6465d" /><line x1="436.96" y1="354.45" x2="436.96" y2="405.91" stroke="#0ecb81" stroke-width="1.4" /><rect x="433.96" y="360.94" width="6" height="38.93" rx="1.5" fill="#0ecb81" /><line x1="447.70" y1="305.90" x2="447.70" y2="384.88" stroke="#0ecb81" stroke-width="1.4" /><rect x="444.70" y="321.56" width="6" height="39.15" rx="1.5" fill="#0ecb81" /><line x1="458.43" y1="318.65" x2="458.43" y2="385.55" stroke="#f6465d" stroke-width="1.4" /><rect x="455.43" y="321.56" width="6" height="52.35" rx="1.5" fill="#f6465d" /><line x1="469.16" y1="353.56" x2="469.16" y2="393.83" stroke="#0ecb81" stroke-width="1.4" /><rect x="466.16" y="362.73" width="6" height="11.86" rx="1.5" fill="#0ecb81" /><line x1="479.90" y1="205.67" x2="479.90" y2="362.51" stroke="#0ecb81" stroke-width="1.4" /><rect x="476.90" y="251.53" width="6" height="110.97" rx="1.5" fill="#0ecb81" /><line x1="490.63" y1="161.59" x2="490.63" y2="302.32" stroke="#0ecb81" stroke-width="1.4" /><rect x="487.63" y="216.18" width="6" height="35.80" rx="1.5" fill="#0ecb81" /><line x1="501.37" y1="133.85" x2="501.37" y2="236.54" stroke="#0ecb81" stroke-width="1.4" /><rect x="498.37" y="212.38" width="6" height="4.25" rx="1.5" fill="#0ecb81" /><line x1="512.10" y1="210.81" x2="512.10" y2="263.61" stroke="#f6465d" stroke-width="1.4" /><rect x="509.10" y="211.93" width="6" height="31.77" rx="1.5" fill="#f6465d" /><line x1="522.84" y1="239.67" x2="522.84" y2="278.16" stroke="#f6465d" stroke-width="1.4" /><rect x="519.84" y="243.70" width="6" height="17.00" rx="1.5" fill="#f6465d" /><line x1="533.57" y1="165.62" x2="533.57" y2="260.71" stroke="#0ecb81" stroke-width="1.4" /><rect x="530.57" y="203.43" width="6" height="57.28" rx="1.5" fill="#0ecb81" /><line x1="544.30" y1="189.11" x2="544.30" y2="258.02" stroke="#f6465d" stroke-width="1.4" /><rect x="541.30" y="203.43" width="6" height="37.14" rx="1.5" fill="#f6465d" /><line x1="555.04" y1="204.99" x2="555.04" y2="260.48" stroke="#f6465d" stroke-width="1.4" /><rect x="552.04" y="240.57" width="6" height="16.78" rx="1.5" fill="#f6465d" /><line x1="565.77" y1="225.13" x2="565.77" y2="268.98" stroke="#0ecb81" stroke-width="1.4" /><rect x="562.77" y="234.08" width="6" height="23.27" rx="1.5" fill="#0ecb81" /><line x1="576.51" y1="174.34" x2="576.51" y2="236.54" stroke="#0ecb81" stroke-width="1.4" /><rect x="573.51" y="180.16" width="6" height="53.92" rx="1.5" fill="#0ecb81" /><line x1="587.24" y1="170.54" x2="587.24" y2="247.50" stroke="#f6465d" stroke-width="1.4" /><rect x="584.24" y="179.49" width="6" height="57.28" rx="1.5" fill="#f6465d" /><line x1="597.97" y1="184.41" x2="597.97" y2="250.64" stroke="#0ecb81" stroke-width="1.4" /><rect x="594.97" y="209.47" width="6" height="27.30" rx="1.5" fill="#0ecb81" /><line x1="608.71" y1="64.49" x2="608.71" y2="216.63" stroke="#0ecb81" stroke-width="1.4" /><rect x="605.71" y="110.35" width="6" height="98.89" rx="1.5" fill="#0ecb81" /><line x1="619.44" y1="73.44" x2="619.44" y2="183.29" stroke="#f6465d" stroke-width="1.4" /><rect x="616.44" y="111.47" width="6" height="35.13" rx="1.5" fill="#f6465d" /><line x1="630.18" y1="104.76" x2="630.18" y2="194.93" stroke="#0ecb81" stroke-width="1.4" /><rect x="627.18" y="126.24" width="6" height="20.36" rx="1.5" fill="#0ecb81" /><line x1="640.91" y1="58.00" x2="640.91" y2="143.47" stroke="#0ecb81" stroke-width="1.4" /><rect x="637.91" y="94.92" width="6" height="31.32" rx="1.5" fill="#0ecb81" /><line x1="651.65" y1="79.25" x2="651.65" y2="155.10" stroke="#f6465d" stroke-width="1.4" /><rect x="648.65" y="94.25" width="6" height="48.77" rx="1.5" fill="#f6465d" /><line x1="662.38" y1="100.29" x2="662.38" y2="173.22" stroke="#0ecb81" stroke-width="1.4" /><rect x="659.38" y="127.58" width="6" height="14.77" rx="1.5" fill="#0ecb81" /><line x1="673.11" y1="71.20" x2="673.11" y2="137.87" stroke="#0ecb81" stroke-width="1.4" /><rect x="670.11" y="110.35" width="6" height="17.45" rx="1.5" fill="#0ecb81" /><line x1="683.85" y1="109.46" x2="683.85" y2="258.02" stroke="#f6465d" stroke-width="1.4" /><rect x="680.85" y="109.91" width="6" height="99.56" rx="1.5" fill="#f6465d" /><line x1="694.58" y1="192.91" x2="694.58" y2="317.31" stroke="#f6465d" stroke-width="1.4" /><rect x="691.58" y="209.69" width="6" height="90.39" rx="1.5" fill="#f6465d" /><line x1="705.32" y1="293.37" x2="705.32" y2="325.14" stroke="#f6465d" stroke-width="1.4" /><rect x="702.32" y="299.64" width="6" height="2.68" rx="1.5" fill="#f6465d" /><line x1="716.05" y1="272.12" x2="716.05" y2="314.85" stroke="#f6465d" stroke-width="1.4" /><rect x="713.05" y="302.99" width="6" height="2.00" rx="1.5" fill="#f6465d" /><line x1="726.78" y1="250.19" x2="726.78" y2="312.61" stroke="#f6465d" stroke-width="1.4" /><rect x="723.78" y="303.22" width="6" height="2.46" rx="1.5" fill="#f6465d" /><line x1="737.52" y1="297.62" x2="737.52" y2="362.06" stroke="#f6465d" stroke-width="1.4" /><rect x="734.52" y="305.90" width="6" height="51.91" rx="1.5" fill="#f6465d" /><line x1="748.25" y1="354.67" x2="748.25" y2="379.51" stroke="#f6465d" stroke-width="1.4" /><rect x="745.25" y="357.81" width="6" height="2.68" rx="1.5" fill="#f6465d" /><line x1="758.99" y1="356.24" x2="758.99" y2="400.99" stroke="#f6465d" stroke-width="1.4" /><rect x="755.99" y="360.49" width="6" height="19.47" rx="1.5" fill="#f6465d" /><line x1="769.72" y1="376.15" x2="769.72" y2="391.37" stroke="#f6465d" stroke-width="1.4" /><rect x="766.72" y="380.18" width="6" height="7.61" rx="1.5" fill="#f6465d" /><line x1="780.46" y1="380.18" x2="780.46" y2="396.96" stroke="#0ecb81" stroke-width="1.4" /><rect x="777.46" y="388.01" width="6" height="2.00" rx="1.5" fill="#0ecb81" /><line x1="791.19" y1="368.10" x2="791.19" y2="388.91" stroke="#0ecb81" stroke-width="1.4" /><rect x="788.19" y="369.89" width="6" height="18.35" rx="1.5" fill="#0ecb81" /><line x1="801.92" y1="363.62" x2="801.92" y2="380.40" stroke="#f6465d" stroke-width="1.4" /><rect x="798.92" y="369.89" width="6" height="2.91" rx="1.5" fill="#f6465d" /><line x1="812.66" y1="368.99" x2="812.66" y2="396.74" stroke="#f6465d" stroke-width="1.4" /><rect x="809.66" y="372.80" width="6" height="23.94" rx="1.5" fill="#f6465d" /><line x1="823.39" y1="394.50" x2="823.39" y2="414.19" stroke="#f6465d" stroke-width="1.4" /><rect x="820.39" y="396.74" width="6" height="10.74" rx="1.5" fill="#f6465d" /><line x1="834.13" y1="391.37" x2="834.13" y2="411.73" stroke="#0ecb81" stroke-width="1.4" /><rect x="831.13" y="401.44" width="6" height="6.04" rx="1.5" fill="#0ecb81" /><line x1="844.86" y1="398.75" x2="844.86" y2="410.61" stroke="#f6465d" stroke-width="1.4" /><rect x="841.86" y="401.21" width="6" height="4.92" rx="1.5" fill="#f6465d" /><line x1="855.59" y1="386.89" x2="855.59" y2="410.16" stroke="#0ecb81" stroke-width="1.4" /><rect x="852.59" y="398.97" width="6" height="7.38" rx="1.5" fill="#0ecb81" /><line x1="866.33" y1="391.14" x2="866.33" y2="408.37" stroke="#f6465d" stroke-width="1.4" /><rect x="863.33" y="399.42" width="6" height="2.46" rx="1.5" fill="#f6465d" /><line x1="877.06" y1="368.10" x2="877.06" y2="405.91" stroke="#0ecb81" stroke-width="1.4" /><rect x="874.06" y="378.17" width="6" height="23.49" rx="1.5" fill="#0ecb81" /><line x1="887.80" y1="374.59" x2="887.80" y2="403.23" stroke="#f6465d" stroke-width="1.4" /><rect x="884.80" y="379.06" width="6" height="11.86" rx="1.5" fill="#f6465d" /><line x1="898.53" y1="389.35" x2="898.53" y2="429.40" stroke="#f6465d" stroke-width="1.4" /><rect x="895.53" y="391.37" width="6" height="36.92" rx="1.5" fill="#f6465d" /><line x1="909.27" y1="413.96" x2="909.27" y2="442.38" stroke="#0ecb81" stroke-width="1.4" /><rect x="906.27" y="413.96" width="6" height="14.10" rx="1.5" fill="#0ecb81" /><line x1="920.00" y1="409.71" x2="920.00" y2="427.39" stroke="#f6465d" stroke-width="1.4" /><rect x="917.00" y="414.86" width="6" height="10.74" rx="1.5" fill="#f6465d" />
  <polyline points="243.75,452.00 308.15,324.02 329.62,434.10 351.09,364.30 372.56,442.38" fill="none" stroke="#2fc273" stroke-width="4" stroke-linecap="round" stroke-linejoin="round" />
  <circle cx="243.75" cy="452.00" r="5.5" fill="#2fc273" fill-opacity="0.15" stroke="#2fc273" stroke-width="2" /><text x="243.75" y="440.00" fill="#f3f4f6" font-size="15" font-weight="700" text-anchor="middle">X</text><circle cx="308.15" cy="324.02" r="5.5" fill="#2fc273" fill-opacity="0.15" stroke="#2fc273" stroke-width="2" /><text x="308.15" y="312.02" fill="#f3f4f6" font-size="15" font-weight="700" text-anchor="middle">A</text><circle cx="329.62" cy="434.10" r="5.5" fill="#2fc273" fill-opacity="0.15" stroke="#2fc273" stroke-width="2" /><text x="329.62" y="422.10" fill="#f3f4f6" font-size="15" font-weight="700" text-anchor="middle">B</text><circle cx="351.09" cy="364.30" r="5.5" fill="#2fc273" fill-opacity="0.15" stroke="#2fc273" stroke-width="2" /><text x="351.09" y="352.30" fill="#f3f4f6" font-size="15" font-weight="700" text-anchor="middle">C</text><circle cx="372.56" cy="442.38" r="5.5" fill="#2fc273" fill-opacity="0.15" stroke="#2fc273" stroke-width="2" /><text x="372.56" y="430.38" fill="#f3f4f6" font-size="15" font-weight="700" text-anchor="middle">D</text>
  <text x="56" y="492" fill="#8ba0b5" font-size="18">일반 완성 · TP1 0.004184 · TP2 0.004267 · SL 0.003977</text>
</svg>
