<svg xmlns="http://www.w3.org/2000/svg" width="960" height="540" viewBox="0 0 960 540">
  <rect width="960" height="540" rx="24" fill="#0b1220" />
  <rect x="28" y="28" width="904" height="484" rx="22" fill="#111827" stroke="#1f2937" />
  <text x="56" y="74" fill="#f3f4f6" font-size="34" font-weight="700">SUIUSDT · AB=CD</text>
  <text x="904" y="74" fill="#8ba0b5" font-size="20" text-anchor="end">Bullish (매수) · Score 84.6</text>
  <line x1="72" y1="58" x2="920" y2="58" stroke="#223045" stroke-width="1" stroke-dasharray="4 8" /><line x1="72" y1="156" x2="920" y2="156" stroke="#223045" stroke-width="1" stroke-dasharray="4 8" /><line x1="72" y1="255" x2="920" y2="255" stroke="#223045" stroke-width="1" stroke-dasharray="4 8" /><line x1="72" y1="353" x2="920" y2="353" stroke="#223045" stroke-width="1" stroke-dasharray="4 8" /><line x1="72" y1="452" x2="920" y2="452" stroke="#223045" stroke-width="1" stroke-dasharray="4 8" />
  <rect x="569.97" y="364.63" width="84" height="149.87" fill="#fbbf24" fill-opacity="0.12" stroke="#fbbf24" stroke-width="1.5" stroke-dasharray="6 6" />
  <line x1="72.00" y1="404.12" x2="72.00" y2="429.32" stroke="#0ecb81" stroke-width="1.4" /><rect x="69.00" y="411.68" width="6" height="7.56" rx="1.5" fill="#0ecb81" /><line x1="82.73" y1="384.79" x2="82.73" y2="419.24" stroke="#0ecb81" stroke-width="1.4" /><rect x="79.73" y="401.59" width="6" height="9.24" rx="1.5" fill="#0ecb81" /><line x1="93.47" y1="399.91" x2="93.47" y2="437.72" stroke="#f6465d" stroke-width="1.4" /><rect x="90.47" y="401.59" width="6" height="23.52" rx="1.5" fill="#f6465d" /><line x1="104.20" y1="413.36" x2="104.20" y2="431.00" stroke="#0ecb81" stroke-width="1.4" /><rect x="101.20" y="416.72" width="6" height="8.40" rx="1.5" fill="#0ecb81" /><line x1="114.94" y1="406.64" x2="114.94" y2="423.44" stroke="#f6465d" stroke-width="1.4" /><rect x="111.94" y="416.72" width="6" height="2.52" rx="1.5" fill="#f6465d" /><line x1="125.67" y1="391.51" x2="125.67" y2="436.88" stroke="#0ecb81" stroke-width="1.4" /><rect x="122.67" y="413.36" width="6" height="5.04" rx="1.5" fill="#0ecb81" /><line x1="136.41" y1="413.36" x2="136.41" y2="449.48" stroke="#f6465d" stroke-width="1.4" /><rect x="133.41" y="413.36" width="6" height="31.08" rx="1.5" fill="#f6465d" /><line x1="147.14" y1="409.16" x2="147.14" y2="452.00" stroke="#0ecb81" stroke-width="1.4" /><rect x="144.14" y="415.04" width="6" height="28.56" rx="1.5" fill="#0ecb81" /><line x1="157.87" y1="405.80" x2="157.87" y2="434.36" stroke="#f6465d" stroke-width="1.4" /><rect x="154.87" y="414.20" width="6" height="6.72" rx="1.5" fill="#f6465d" /><line x1="168.61" y1="396.55" x2="168.61" y2="427.64" stroke="#0ecb81" stroke-width="1.4" /><rect x="165.61" y="409.16" width="6" height="10.92" rx="1.5" fill="#0ecb81" /><line x1="179.34" y1="375.55" x2="179.34" y2="417.56" stroke="#0ecb81" stroke-width="1.4" /><rect x="176.34" y="380.59" width="6" height="28.56" rx="1.5" fill="#0ecb81" /><line x1="190.08" y1="351.19" x2="190.08" y2="392.35" stroke="#0ecb81" stroke-width="1.4" /><rect x="187.08" y="379.75" width="6" height="2.00" rx="1.5" fill="#0ecb81" /><line x1="200.81" y1="357.91" x2="200.81" y2="383.11" stroke="#0ecb81" stroke-width="1.4" /><rect x="197.81" y="362.11" width="6" height="17.64" rx="1.5" fill="#0ecb81" /><line x1="211.54" y1="345.31" x2="211.54" y2="371.35" stroke="#0ecb81" stroke-width="1.4" /><rect x="208.54" y="352.87" width="6" height="9.24" rx="1.5" fill="#0ecb81" /><line x1="222.28" y1="325.99" x2="222.28" y2="386.47" stroke="#f6465d" stroke-width="1.4" /><rect x="219.28" y="352.03" width="6" height="25.20" rx="1.5" fill="#f6465d" /><line x1="233.01" y1="335.23" x2="233.01" y2="377.23" stroke="#0ecb81" stroke-width="1.4" /><rect x="230.01" y="346.99" width="6" height="30.24" rx="1.5" fill="#0ecb81" /><line x1="243.75" y1="340.27" x2="243.75" y2="364.63" stroke="#f6465d" stroke-width="1.4" /><rect x="240.75" y="346.99" width="6" height="4.20" rx="1.5" fill="#f6465d" /><line x1="254.48" y1="342.79" x2="254.48" y2="362.11" stroke="#0ecb81" stroke-width="1.4" /><rect x="251.48" y="347.83" width="6" height="2.52" rx="1.5" fill="#0ecb81" /><line x1="265.22" y1="347.83" x2="265.22" y2="370.51" stroke="#f6465d" stroke-width="1.4" /><rect x="262.22" y="347.83" width="6" height="10.92" rx="1.5" fill="#f6465d" /><line x1="275.95" y1="314.23" x2="275.95" y2="358.75" stroke="#0ecb81" stroke-width="1.4" /><rect x="272.95" y="326.83" width="6" height="31.92" rx="1.5" fill="#0ecb81" /><line x1="286.68" y1="321.79" x2="286.68" y2="372.19" stroke="#f6465d" stroke-width="1.4" /><rect x="283.68" y="325.99" width="6" height="35.28" rx="1.5" fill="#f6465d" /><line x1="297.42" y1="348.67" x2="297.42" y2="373.03" stroke="#0ecb81" stroke-width="1.4" /><rect x="294.42" y="360.43" width="6" height="2.00" rx="1.5" fill="#0ecb81" /><line x1="308.15" y1="349.51" x2="308.15" y2="375.55" stroke="#f6465d" stroke-width="1.4" /><rect x="305.15" y="361.27" width="6" height="5.04" rx="1.5" fill="#f6465d" /><line x1="318.89" y1="326.83" x2="318.89" y2="367.99" stroke="#0ecb81" stroke-width="1.4" /><rect x="315.89" y="331.03" width="6" height="35.28" rx="1.5" fill="#0ecb81" /><line x1="329.62" y1="322.63" x2="329.62" y2="344.47" stroke="#f6465d" stroke-width="1.4" /><rect x="326.62" y="331.87" width="6" height="5.88" rx="1.5" fill="#f6465d" /><line x1="340.35" y1="310.03" x2="340.35" y2="341.95" stroke="#0ecb81" stroke-width="1.4" /><rect x="337.35" y="319.27" width="6" height="18.48" rx="1.5" fill="#0ecb81" /><line x1="351.09" y1="295.74" x2="351.09" y2="349.51" stroke="#0ecb81" stroke-width="1.4" /><rect x="348.09" y="309.19" width="6" height="10.08" rx="1.5" fill="#0ecb81" /><line x1="361.82" y1="232.74" x2="361.82" y2="325.15" stroke="#0ecb81" stroke-width="1.4" /><rect x="358.82" y="260.46" width="6" height="48.72" rx="1.5" fill="#0ecb81" /><line x1="372.56" y1="247.02" x2="372.56" y2="297.42" stroke="#f6465d" stroke-width="1.4" /><rect x="369.56" y="260.46" width="6" height="36.12" rx="1.5" fill="#f6465d" /><line x1="383.29" y1="269.70" x2="383.29" y2="306.67" stroke="#0ecb81" stroke-width="1.4" /><rect x="380.29" y="284.82" width="6" height="12.60" rx="1.5" fill="#0ecb81" /><line x1="394.03" y1="269.70" x2="394.03" y2="315.07" stroke="#0ecb81" stroke-width="1.4" /><rect x="391.03" y="273.90" width="6" height="10.92" rx="1.5" fill="#0ecb81" /><line x1="404.76" y1="253.74" x2="404.76" y2="294.06" stroke="#f6465d" stroke-width="1.4" /><rect x="401.76" y="273.90" width="6" height="5.88" rx="1.5" fill="#f6465d" /><line x1="415.49" y1="258.78" x2="415.49" y2="297.42" stroke="#f6465d" stroke-width="1.4" /><rect x="412.49" y="280.62" width="6" height="5.04" rx="1.5" fill="#f6465d" /><line x1="426.23" y1="272.22" x2="426.23" y2="304.99" stroke="#f6465d" stroke-width="1.4" /><rect x="423.23" y="284.82" width="6" height="15.96" rx="1.5" fill="#f6465d" /><line x1="436.96" y1="298.26" x2="436.96" y2="354.55" stroke="#f6465d" stroke-width="1.4" /><rect x="433.96" y="300.78" width="6" height="29.40" rx="1.5" fill="#f6465d" /><line x1="447.70" y1="328.51" x2="447.70" y2="377.23" stroke="#f6465d" stroke-width="1.4" /><rect x="444.70" y="330.19" width="6" height="4.20" rx="1.5" fill="#f6465d" /><line x1="458.43" y1="301.62" x2="458.43" y2="344.47" stroke="#0ecb81" stroke-width="1.4" /><rect x="455.43" y="302.46" width="6" height="31.08" rx="1.5" fill="#0ecb81" /><line x1="469.16" y1="281.46" x2="469.16" y2="307.51" stroke="#0ecb81" stroke-width="1.4" /><rect x="466.16" y="281.46" width="6" height="21.00" rx="1.5" fill="#0ecb81" /><line x1="479.90" y1="276.42" x2="479.90" y2="337.75" stroke="#f6465d" stroke-width="1.4" /><rect x="476.90" y="282.30" width="6" height="45.36" rx="1.5" fill="#f6465d" /><line x1="490.63" y1="262.98" x2="490.63" y2="333.55" stroke="#0ecb81" stroke-width="1.4" /><rect x="487.63" y="306.67" width="6" height="21.00" rx="1.5" fill="#0ecb81" /><line x1="501.37" y1="295.74" x2="501.37" y2="326.83" stroke="#0ecb81" stroke-width="1.4" /><rect x="498.37" y="299.10" width="6" height="7.56" rx="1.5" fill="#0ecb81" /><line x1="512.10" y1="243.66" x2="512.10" y2="317.59" stroke="#0ecb81" stroke-width="1.4" /><rect x="509.10" y="286.50" width="6" height="12.60" rx="1.5" fill="#0ecb81" /><line x1="522.84" y1="220.14" x2="522.84" y2="316.75" stroke="#f6465d" stroke-width="1.4" /><rect x="519.84" y="285.66" width="6" height="19.32" rx="1.5" fill="#f6465d" /><line x1="533.57" y1="257.10" x2="533.57" y2="307.51" stroke="#0ecb81" stroke-width="1.4" /><rect x="530.57" y="272.22" width="6" height="33.60" rx="1.5" fill="#0ecb81" /><line x1="544.30" y1="258.78" x2="544.30" y2="309.19" stroke="#f6465d" stroke-width="1.4" /><rect x="541.30" y="271.38" width="6" height="21.00" rx="1.5" fill="#f6465d" /><line x1="555.04" y1="290.70" x2="555.04" y2="331.87" stroke="#f6465d" stroke-width="1.4" /><rect x="552.04" y="292.38" width="6" height="26.04" rx="1.5" fill="#f6465d" /><line x1="565.77" y1="315.07" x2="565.77" y2="384.79" stroke="#f6465d" stroke-width="1.4" /><rect x="562.77" y="317.59" width="6" height="47.04" rx="1.5" fill="#f6465d" /><line x1="576.51" y1="349.51" x2="576.51" y2="385.63" stroke="#f6465d" stroke-width="1.4" /><rect x="573.51" y="364.63" width="6" height="9.24" rx="1.5" fill="#f6465d" /><line x1="587.24" y1="315.07" x2="587.24" y2="378.91" stroke="#0ecb81" stroke-width="1.4" /><rect x="584.24" y="319.27" width="6" height="53.77" rx="1.5" fill="#0ecb81" /><line x1="597.97" y1="299.94" x2="597.97" y2="388.99" stroke="#f6465d" stroke-width="1.4" /><rect x="594.97" y="320.11" width="6" height="42.84" rx="1.5" fill="#f6465d" /><line x1="608.71" y1="353.71" x2="608.71" y2="380.59" stroke="#0ecb81" stroke-width="1.4" /><rect x="605.71" y="358.75" width="6" height="5.04" rx="1.5" fill="#0ecb81" /><line x1="619.44" y1="321.79" x2="619.44" y2="367.15" stroke="#0ecb81" stroke-width="1.4" /><rect x="616.44" y="336.91" width="6" height="21.84" rx="1.5" fill="#0ecb81" /><line x1="630.18" y1="247.02" x2="630.18" y2="343.63" stroke="#0ecb81" stroke-width="1.4" /><rect x="627.18" y="257.10" width="6" height="79.81" rx="1.5" fill="#0ecb81" /><line x1="640.91" y1="242.82" x2="640.91" y2="284.82" stroke="#f6465d" stroke-width="1.4" /><rect x="637.91" y="257.94" width="6" height="9.24" rx="1.5" fill="#f6465d" /><line x1="651.65" y1="209.22" x2="651.65" y2="294.90" stroke="#f6465d" stroke-width="1.4" /><rect x="648.65" y="268.02" width="6" height="15.12" rx="1.5" fill="#f6465d" /><line x1="662.38" y1="243.66" x2="662.38" y2="317.59" stroke="#0ecb81" stroke-width="1.4" /><rect x="659.38" y="276.42" width="6" height="6.72" rx="1.5" fill="#0ecb81" /><line x1="673.11" y1="156.29" x2="673.11" y2="279.78" stroke="#0ecb81" stroke-width="1.4" /><rect x="670.11" y="164.69" width="6" height="111.73" rx="1.5" fill="#0ecb81" /><line x1="683.85" y1="158.81" x2="683.85" y2="220.14" stroke="#f6465d" stroke-width="1.4" /><rect x="680.85" y="164.69" width="6" height="17.64" rx="1.5" fill="#f6465d" /><line x1="694.58" y1="146.21" x2="694.58" y2="205.86" stroke="#0ecb81" stroke-width="1.4" /><rect x="691.58" y="150.41" width="6" height="32.76" rx="1.5" fill="#0ecb81" /><line x1="705.32" y1="89.92" x2="705.32" y2="156.29" stroke="#0ecb81" stroke-width="1.4" /><rect x="702.32" y="147.05" width="6" height="3.36" rx="1.5" fill="#0ecb81" /><line x1="716.05" y1="130.25" x2="716.05" y2="181.49" stroke="#f6465d" stroke-width="1.4" /><rect x="713.05" y="147.05" width="6" height="2.00" rx="1.5" fill="#f6465d" /><line x1="726.78" y1="124.37" x2="726.78" y2="165.53" stroke="#0ecb81" stroke-width="1.4" /><rect x="723.78" y="130.25" width="6" height="17.64" rx="1.5" fill="#0ecb81" /><line x1="737.52" y1="120.17" x2="737.52" y2="171.41" stroke="#f6465d" stroke-width="1.4" /><rect x="734.52" y="131.09" width="6" height="38.64" rx="1.5" fill="#f6465d" /><line x1="748.25" y1="169.73" x2="748.25" y2="211.74" stroke="#f6465d" stroke-width="1.4" /><rect x="745.25" y="169.73" width="6" height="31.08" rx="1.5" fill="#f6465d" /><line x1="758.99" y1="168.89" x2="758.99" y2="203.33" stroke="#0ecb81" stroke-width="1.4" /><rect x="755.99" y="172.25" width="6" height="28.56" rx="1.5" fill="#0ecb81" /><line x1="769.72" y1="123.53" x2="769.72" y2="187.37" stroke="#0ecb81" stroke-width="1.4" /><rect x="766.72" y="131.09" width="6" height="41.16" rx="1.5" fill="#0ecb81" /><line x1="780.46" y1="117.65" x2="780.46" y2="177.29" stroke="#f6465d" stroke-width="1.4" /><rect x="777.46" y="131.09" width="6" height="42.84" rx="1.5" fill="#f6465d" /><line x1="791.19" y1="147.89" x2="791.19" y2="204.17" stroke="#0ecb81" stroke-width="1.4" /><rect x="788.19" y="165.53" width="6" height="8.40" rx="1.5" fill="#0ecb81" /><line x1="801.92" y1="136.97" x2="801.92" y2="166.37" stroke="#0ecb81" stroke-width="1.4" /><rect x="798.92" y="140.33" width="6" height="26.04" rx="1.5" fill="#0ecb81" /><line x1="812.66" y1="125.21" x2="812.66" y2="166.37" stroke="#0ecb81" stroke-width="1.4" /><rect x="809.66" y="131.93" width="6" height="8.40" rx="1.5" fill="#0ecb81" /><line x1="823.39" y1="73.12" x2="823.39" y2="142.85" stroke="#0ecb81" stroke-width="1.4" /><rect x="820.39" y="97.48" width="6" height="33.60" rx="1.5" fill="#0ecb81" /><line x1="834.13" y1="67.24" x2="834.13" y2="109.25" stroke="#0ecb81" stroke-width="1.4" /><rect x="831.13" y="94.96" width="6" height="2.52" rx="1.5" fill="#0ecb81" /><line x1="844.86" y1="58.00" x2="844.86" y2="106.72" stroke="#0ecb81" stroke-width="1.4" /><rect x="841.86" y="65.56" width="6" height="29.40" rx="1.5" fill="#0ecb81" /><line x1="855.59" y1="62.20" x2="855.59" y2="110.93" stroke="#f6465d" stroke-width="1.4" /><rect x="852.59" y="64.72" width="6" height="44.52" rx="1.5" fill="#f6465d" /><line x1="866.33" y1="90.76" x2="866.33" y2="123.53" stroke="#0ecb81" stroke-width="1.4" /><rect x="863.33" y="103.36" width="6" height="5.88" rx="1.5" fill="#0ecb81" /><line x1="877.06" y1="89.08" x2="877.06" y2="120.17" stroke="#f6465d" stroke-width="1.4" /><rect x="874.06" y="102.52" width="6" height="2.52" rx="1.5" fill="#f6465d" /><line x1="887.80" y1="103.36" x2="887.80" y2="173.09" stroke="#f6465d" stroke-width="1.4" /><rect x="884.80" y="105.88" width="6" height="28.56" rx="1.5" fill="#f6465d" /><line x1="898.53" y1="121.85" x2="898.53" y2="147.89" stroke="#f6465d" stroke-width="1.4" /><rect x="895.53" y="134.45" width="6" height="2.52" rx="1.5" fill="#f6465d" /><line x1="909.27" y1="119.33" x2="909.27" y2="156.29" stroke="#0ecb81" stroke-width="1.4" /><rect x="906.27" y="131.93" width="6" height="5.04" rx="1.5" fill="#0ecb81" /><line x1="920.00" y1="128.57" x2="920.00" y2="169.73" stroke="#f6465d" stroke-width="1.4" /><rect x="917.00" y="131.09" width="6" height="31.08" rx="1.5" fill="#f6465d" />
  <polyline points="308.15,375.55 361.82,232.74 447.70,377.23 522.84,220.14 597.97,388.99" fill="none" stroke="#2fc273" stroke-width="4" stroke-linecap="round" stroke-linejoin="round" />
  <circle cx="308.15" cy="375.55" r="5.5" fill="#2fc273" fill-opacity="0.15" stroke="#2fc273" stroke-width="2" /><text x="308.15" y="363.55" fill="#f3f4f6" font-size="15" font-weight="700" text-anchor="middle">X</text><circle cx="361.82" cy="232.74" r="5.5" fill="#2fc273" fill-opacity="0.15" stroke="#2fc273" stroke-width="2" /><text x="361.82" y="220.74" fill="#f3f4f6" font-size="15" font-weight="700" text-anchor="middle">A</text><circle cx="447.70" cy="377.23" r="5.5" fill="#2fc273" fill-opacity="0.15" stroke="#2fc273" stroke-width="2" /><text x="447.70" y="365.23" fill="#f3f4f6" font-size="15" font-weight="700" text-anchor="middle">B</text><circle cx="522.84" cy="220.14" r="5.5" fill="#2fc273" fill-opacity="0.15" stroke="#2fc273" stroke-width="2" /><text x="522.84" y="208.14" fill="#f3f4f6" font-size="15" font-weight="700" text-anchor="middle">C</text><circle cx="597.97" cy="388.99" r="5.5" fill="#2fc273" fill-opacity="0.15" stroke="#2fc273" stroke-width="2" /><text x="597.97" y="376.99" fill="#f3f4f6" font-size="15" font-weight="700" text-anchor="middle">D</text>
  <text x="56" y="492" fill="#8ba0b5" font-size="18">Complete · TP1 0.74628 · TP2 0.75102 · SL 0.73639</text>
</svg>
