<svg xmlns="http://www.w3.org/2000/svg" width="960" height="540" viewBox="0 0 960 540">
  <rect width="960" height="540" rx="24" fill="#0b1220" />
  <rect x="28" y="28" width="904" height="484" rx="22" fill="#111827" stroke="#1f2937" />
  <text x="56" y="74" fill="#f3f4f6" font-size="34" font-weight="700">SYNUSDT · AB=CD</text>
  <text x="904" y="74" fill="#8ba0b5" font-size="20" text-anchor="end">Bearish (매도) · Score 70.6</text>
  <line x1="72" y1="58" x2="920" y2="58" stroke="#223045" stroke-width="1" stroke-dasharray="4 8" /><line x1="72" y1="156" x2="920" y2="156" stroke="#223045" stroke-width="1" stroke-dasharray="4 8" /><line x1="72" y1="255" x2="920" y2="255" stroke="#223045" stroke-width="1" stroke-dasharray="4 8" /><line x1="72" y1="353" x2="920" y2="353" stroke="#223045" stroke-width="1" stroke-dasharray="4 8" /><line x1="72" y1="452" x2="920" y2="452" stroke="#223045" stroke-width="1" stroke-dasharray="4 8" />
  <rect x="752.46" y="-126.49" width="84" height="146.17" fill="#fbbf24" fill-opacity="0.12" stroke="#fbbf24" stroke-width="1.5" stroke-dasharray="6 6" />
  <line x1="72.00" y1="163.56" x2="72.00" y2="252.98" stroke="#f6465d" stroke-width="1.4" /><rect x="69.00" y="215.33" width="6" height="30.26" rx="1.5" fill="#f6465d" /><line x1="82.73" y1="225.42" x2="82.73" y2="269.79" stroke="#0ecb81" stroke-width="1.4" /><rect x="79.73" y="244.24" width="6" height="2.00" rx="1.5" fill="#0ecb81" /><line x1="93.47" y1="226.76" x2="93.47" y2="275.84" stroke="#f6465d" stroke-width="1.4" /><rect x="90.47" y="243.57" width="6" height="16.81" rx="1.5" fill="#f6465d" /><line x1="104.20" y1="250.97" x2="104.20" y2="316.86" stroke="#f6465d" stroke-width="1.4" /><rect x="101.20" y="260.38" width="6" height="50.43" rx="1.5" fill="#f6465d" /><line x1="114.94" y1="220.71" x2="114.94" y2="318.20" stroke="#0ecb81" stroke-width="1.4" /><rect x="111.94" y="227.43" width="6" height="82.70" rx="1.5" fill="#0ecb81" /><line x1="125.67" y1="137.34" x2="125.67" y2="231.47" stroke="#0ecb81" stroke-width="1.4" /><rect x="122.67" y="138.68" width="6" height="90.10" rx="1.5" fill="#0ecb81" /><line x1="136.41" y1="109.77" x2="136.41" y2="187.76" stroke="#0ecb81" stroke-width="1.4" /><rect x="133.41" y="113.13" width="6" height="25.55" rx="1.5" fill="#0ecb81" /><line x1="147.14" y1="58.00" x2="147.14" y2="162.22" stroke="#f6465d" stroke-width="1.4" /><rect x="144.14" y="113.81" width="6" height="14.12" rx="1.5" fill="#f6465d" /><line x1="157.87" y1="117.84" x2="157.87" y2="196.51" stroke="#f6465d" stroke-width="1.4" /><rect x="154.87" y="126.58" width="6" height="51.10" rx="1.5" fill="#f6465d" /><line x1="168.61" y1="156.16" x2="168.61" y2="207.94" stroke="#0ecb81" stroke-width="1.4" /><rect x="165.61" y="162.89" width="6" height="14.12" rx="1.5" fill="#0ecb81" /><line x1="179.34" y1="119.18" x2="179.34" y2="177.01" stroke="#f6465d" stroke-width="1.4" /><rect x="176.34" y="163.56" width="6" height="2.00" rx="1.5" fill="#f6465d" /><line x1="190.08" y1="132.63" x2="190.08" y2="203.23" stroke="#0ecb81" stroke-width="1.4" /><rect x="187.08" y="133.98" width="6" height="30.26" rx="1.5" fill="#0ecb81" /><line x1="200.81" y1="68.76" x2="200.81" y2="144.73" stroke="#0ecb81" stroke-width="1.4" /><rect x="197.81" y="104.39" width="6" height="29.58" rx="1.5" fill="#0ecb81" /><line x1="211.54" y1="74.81" x2="211.54" y2="242.23" stroke="#f6465d" stroke-width="1.4" /><rect x="208.54" y="105.06" width="6" height="120.35" rx="1.5" fill="#f6465d" /><line x1="222.28" y1="139.35" x2="222.28" y2="251.64" stroke="#0ecb81" stroke-width="1.4" /><rect x="219.28" y="181.04" width="6" height="45.72" rx="1.5" fill="#0ecb81" /><line x1="233.01" y1="144.73" x2="233.01" y2="214.66" stroke="#f6465d" stroke-width="1.4" /><rect x="230.01" y="181.71" width="6" height="14.12" rx="1.5" fill="#f6465d" /><line x1="243.75" y1="190.45" x2="243.75" y2="222.73" stroke="#f6465d" stroke-width="1.4" /><rect x="240.75" y="197.18" width="6" height="14.79" rx="1.5" fill="#f6465d" /><line x1="254.48" y1="154.82" x2="254.48" y2="219.37" stroke="#0ecb81" stroke-width="1.4" /><rect x="251.48" y="199.87" width="6" height="11.43" rx="1.5" fill="#0ecb81" /><line x1="265.22" y1="180.37" x2="265.22" y2="271.14" stroke="#f6465d" stroke-width="1.4" /><rect x="262.22" y="200.54" width="6" height="50.43" rx="1.5" fill="#f6465d" /><line x1="275.95" y1="241.55" x2="275.95" y2="279.20" stroke="#0ecb81" stroke-width="1.4" /><rect x="272.95" y="248.95" width="6" height="2.02" rx="1.5" fill="#0ecb81" /><line x1="286.68" y1="248.95" x2="286.68" y2="289.96" stroke="#f6465d" stroke-width="1.4" /><rect x="283.68" y="248.95" width="6" height="28.91" rx="1.5" fill="#f6465d" /><line x1="297.42" y1="201.88" x2="297.42" y2="285.26" stroke="#0ecb81" stroke-width="1.4" /><rect x="294.42" y="208.61" width="6" height="69.25" rx="1.5" fill="#0ecb81" /><line x1="308.15" y1="209.28" x2="308.15" y2="257.02" stroke="#f6465d" stroke-width="1.4" /><rect x="305.15" y="209.28" width="6" height="31.60" rx="1.5" fill="#f6465d" /><line x1="318.89" y1="240.88" x2="318.89" y2="271.81" stroke="#f6465d" stroke-width="1.4" /><rect x="315.89" y="240.88" width="6" height="15.46" rx="1.5" fill="#f6465d" /><line x1="329.62" y1="207.26" x2="329.62" y2="267.10" stroke="#0ecb81" stroke-width="1.4" /><rect x="326.62" y="237.52" width="6" height="18.83" rx="1.5" fill="#0ecb81" /><line x1="340.35" y1="221.38" x2="340.35" y2="268.45" stroke="#f6465d" stroke-width="1.4" /><rect x="337.35" y="238.19" width="6" height="28.91" rx="1.5" fill="#f6465d" /><line x1="351.09" y1="250.29" x2="351.09" y2="287.54" stroke="#f6465d" stroke-width="1.4" /><rect x="348.09" y="267.10" width="6" height="14.79" rx="1.5" fill="#f6465d" /><line x1="361.82" y1="275.84" x2="361.82" y2="358.54" stroke="#f6465d" stroke-width="1.4" /><rect x="358.82" y="281.89" width="6" height="71.27" rx="1.5" fill="#f6465d" /><line x1="372.56" y1="282.57" x2="372.56" y2="357.87" stroke="#0ecb81" stroke-width="1.4" /><rect x="369.56" y="294.67" width="6" height="59.84" rx="1.5" fill="#0ecb81" /><line x1="383.29" y1="281.89" x2="383.29" y2="339.04" stroke="#f6465d" stroke-width="1.4" /><rect x="380.29" y="296.01" width="6" height="24.20" rx="1.5" fill="#f6465d" /><line x1="394.03" y1="301.39" x2="394.03" y2="343.75" stroke="#0ecb81" stroke-width="1.4" /><rect x="391.03" y="313.49" width="6" height="6.72" rx="1.5" fill="#0ecb81" /><line x1="404.76" y1="294.00" x2="404.76" y2="320.89" stroke="#f6465d" stroke-width="1.4" /><rect x="401.76" y="313.49" width="6" height="2.00" rx="1.5" fill="#f6465d" /><line x1="415.49" y1="299.38" x2="415.49" y2="333.67" stroke="#f6465d" stroke-width="1.4" /><rect x="412.49" y="314.84" width="6" height="6.05" rx="1.5" fill="#f6465d" /><line x1="426.23" y1="242.23" x2="426.23" y2="329.63" stroke="#0ecb81" stroke-width="1.4" /><rect x="423.23" y="260.38" width="6" height="59.84" rx="1.5" fill="#0ecb81" /><line x1="436.96" y1="209.95" x2="436.96" y2="261.05" stroke="#0ecb81" stroke-width="1.4" /><rect x="433.96" y="250.29" width="6" height="9.41" rx="1.5" fill="#0ecb81" /><line x1="447.70" y1="244.91" x2="447.70" y2="298.03" stroke="#f6465d" stroke-width="1.4" /><rect x="444.70" y="249.62" width="6" height="42.36" rx="1.5" fill="#f6465d" /><line x1="458.43" y1="281.89" x2="458.43" y2="310.81" stroke="#f6465d" stroke-width="1.4" /><rect x="455.43" y="291.98" width="6" height="16.81" rx="1.5" fill="#f6465d" /><line x1="469.16" y1="296.01" x2="469.16" y2="325.60" stroke="#0ecb81" stroke-width="1.4" /><rect x="466.16" y="304.75" width="6" height="3.36" rx="1.5" fill="#0ecb81" /><line x1="479.90" y1="294.00" x2="479.90" y2="334.34" stroke="#f6465d" stroke-width="1.4" /><rect x="476.90" y="304.08" width="6" height="20.84" rx="1.5" fill="#f6465d" /><line x1="490.63" y1="298.70" x2="490.63" y2="333.67" stroke="#0ecb81" stroke-width="1.4" /><rect x="487.63" y="298.70" width="6" height="26.22" rx="1.5" fill="#0ecb81" /><line x1="501.37" y1="267.10" x2="501.37" y2="306.10" stroke="#0ecb81" stroke-width="1.4" /><rect x="498.37" y="277.19" width="6" height="22.19" rx="1.5" fill="#0ecb81" /><line x1="512.10" y1="270.46" x2="512.10" y2="302.74" stroke="#f6465d" stroke-width="1.4" /><rect x="509.10" y="277.19" width="6" height="14.12" rx="1.5" fill="#f6465d" /><line x1="522.84" y1="269.12" x2="522.84" y2="299.38" stroke="#f6465d" stroke-width="1.4" /><rect x="519.84" y="290.63" width="6" height="4.03" rx="1.5" fill="#f6465d" /><line x1="533.57" y1="279.88" x2="533.57" y2="313.49" stroke="#f6465d" stroke-width="1.4" /><rect x="530.57" y="294.00" width="6" height="4.03" rx="1.5" fill="#f6465d" /><line x1="544.30" y1="282.57" x2="544.30" y2="308.12" stroke="#f6465d" stroke-width="1.4" /><rect x="541.30" y="298.03" width="6" height="5.38" rx="1.5" fill="#f6465d" /><line x1="555.04" y1="281.89" x2="555.04" y2="324.92" stroke="#0ecb81" stroke-width="1.4" /><rect x="552.04" y="283.91" width="6" height="18.83" rx="1.5" fill="#0ecb81" /><line x1="565.77" y1="245.59" x2="565.77" y2="291.31" stroke="#0ecb81" stroke-width="1.4" /><rect x="562.77" y="275.17" width="6" height="8.07" rx="1.5" fill="#0ecb81" /><line x1="576.51" y1="271.14" x2="576.51" y2="321.56" stroke="#f6465d" stroke-width="1.4" /><rect x="573.51" y="275.17" width="6" height="9.41" rx="1.5" fill="#f6465d" /><line x1="587.24" y1="277.19" x2="587.24" y2="316.86" stroke="#f6465d" stroke-width="1.4" /><rect x="584.24" y="283.91" width="6" height="30.26" rx="1.5" fill="#f6465d" /><line x1="597.97" y1="111.79" x2="597.97" y2="337.03" stroke="#0ecb81" stroke-width="1.4" /><rect x="594.97" y="135.32" width="6" height="178.85" rx="1.5" fill="#0ecb81" /><line x1="608.71" y1="67.41" x2="608.71" y2="157.51" stroke="#f6465d" stroke-width="1.4" /><rect x="605.71" y="134.65" width="6" height="5.38" rx="1.5" fill="#f6465d" /><line x1="619.44" y1="132.63" x2="619.44" y2="194.49" stroke="#f6465d" stroke-width="1.4" /><rect x="616.44" y="140.03" width="6" height="24.20" rx="1.5" fill="#f6465d" /><line x1="630.18" y1="138.68" x2="630.18" y2="199.19" stroke="#0ecb81" stroke-width="1.4" /><rect x="627.18" y="154.15" width="6" height="10.76" rx="1.5" fill="#0ecb81" /><line x1="640.91" y1="139.35" x2="640.91" y2="207.26" stroke="#f6465d" stroke-width="1.4" /><rect x="637.91" y="153.47" width="6" height="41.69" rx="1.5" fill="#f6465d" /><line x1="651.65" y1="181.71" x2="651.65" y2="258.36" stroke="#f6465d" stroke-width="1.4" /><rect x="648.65" y="195.16" width="6" height="36.98" rx="1.5" fill="#f6465d" /><line x1="662.38" y1="231.47" x2="662.38" y2="265.09" stroke="#f6465d" stroke-width="1.4" /><rect x="659.38" y="232.14" width="6" height="26.89" rx="1.5" fill="#f6465d" /><line x1="673.11" y1="247.60" x2="673.11" y2="286.60" stroke="#f6465d" stroke-width="1.4" /><rect x="670.11" y="259.03" width="6" height="10.76" rx="1.5" fill="#f6465d" /><line x1="683.85" y1="266.43" x2="683.85" y2="287.95" stroke="#f6465d" stroke-width="1.4" /><rect x="680.85" y="269.79" width="6" height="11.43" rx="1.5" fill="#f6465d" /><line x1="694.58" y1="256.34" x2="694.58" y2="287.27" stroke="#0ecb81" stroke-width="1.4" /><rect x="691.58" y="265.76" width="6" height="15.46" rx="1.5" fill="#0ecb81" /><line x1="705.32" y1="262.40" x2="705.32" y2="283.91" stroke="#0ecb81" stroke-width="1.4" /><rect x="702.32" y="265.09" width="6" height="2.00" rx="1.5" fill="#0ecb81" /><line x1="716.05" y1="263.07" x2="716.05" y2="289.29" stroke="#f6465d" stroke-width="1.4" /><rect x="713.05" y="265.09" width="6" height="12.10" rx="1.5" fill="#f6465d" /><line x1="726.78" y1="259.71" x2="726.78" y2="287.95" stroke="#0ecb81" stroke-width="1.4" /><rect x="723.78" y="261.05" width="6" height="16.14" rx="1.5" fill="#0ecb81" /><line x1="737.52" y1="199.87" x2="737.52" y2="268.45" stroke="#0ecb81" stroke-width="1.4" /><rect x="734.52" y="222.05" width="6" height="38.32" rx="1.5" fill="#0ecb81" /><line x1="748.25" y1="199.19" x2="748.25" y2="234.83" stroke="#0ecb81" stroke-width="1.4" /><rect x="745.25" y="201.88" width="6" height="20.84" rx="1.5" fill="#0ecb81" /><line x1="758.99" y1="194.49" x2="758.99" y2="230.12" stroke="#f6465d" stroke-width="1.4" /><rect x="755.99" y="201.88" width="6" height="14.12" rx="1.5" fill="#f6465d" /><line x1="769.72" y1="199.87" x2="769.72" y2="223.40" stroke="#0ecb81" stroke-width="1.4" /><rect x="766.72" y="205.92" width="6" height="10.09" rx="1.5" fill="#0ecb81" /><line x1="780.46" y1="181.04" x2="780.46" y2="224.07" stroke="#f6465d" stroke-width="1.4" /><rect x="777.46" y="206.59" width="6" height="2.69" rx="1.5" fill="#f6465d" /><line x1="791.19" y1="190.45" x2="791.19" y2="218.69" stroke="#0ecb81" stroke-width="1.4" /><rect x="788.19" y="193.14" width="6" height="16.14" rx="1.5" fill="#0ecb81" /><line x1="801.92" y1="192.47" x2="801.92" y2="236.17" stroke="#f6465d" stroke-width="1.4" /><rect x="798.92" y="192.47" width="6" height="39.00" rx="1.5" fill="#f6465d" /><line x1="812.66" y1="219.37" x2="812.66" y2="256.34" stroke="#f6465d" stroke-width="1.4" /><rect x="809.66" y="231.47" width="6" height="11.43" rx="1.5" fill="#f6465d" /><line x1="823.39" y1="238.19" x2="823.39" y2="263.74" stroke="#f6465d" stroke-width="1.4" /><rect x="820.39" y="242.90" width="6" height="13.45" rx="1.5" fill="#f6465d" /><line x1="834.13" y1="255.00" x2="834.13" y2="291.91" stroke="#f6465d" stroke-width="1.4" /><rect x="831.13" y="256.34" width="6" height="29.58" rx="1.5" fill="#f6465d" /><line x1="844.86" y1="273.15" x2="844.86" y2="321.56" stroke="#f6465d" stroke-width="1.4" /><rect x="841.86" y="285.93" width="6" height="14.12" rx="1.5" fill="#f6465d" /><line x1="855.59" y1="300.05" x2="855.59" y2="353.84" stroke="#f6465d" stroke-width="1.4" /><rect x="852.59" y="300.05" width="6" height="28.24" rx="1.5" fill="#f6465d" /><line x1="866.33" y1="326.94" x2="866.33" y2="392.16" stroke="#f6465d" stroke-width="1.4" /><rect x="863.33" y="329.63" width="6" height="55.13" rx="1.5" fill="#f6465d" /><line x1="877.06" y1="363.92" x2="877.06" y2="392.16" stroke="#0ecb81" stroke-width="1.4" /><rect x="874.06" y="382.08" width="6" height="3.36" rx="1.5" fill="#0ecb81" /><line x1="887.80" y1="370.44" x2="887.80" y2="392.83" stroke="#f6465d" stroke-width="1.4" /><rect x="884.80" y="381.40" width="6" height="10.09" rx="1.5" fill="#f6465d" /><line x1="898.53" y1="374.01" x2="898.53" y2="452.00" stroke="#f6465d" stroke-width="1.4" /><rect x="895.53" y="392.16" width="6" height="21.52" rx="1.5" fill="#f6465d" /><line x1="909.27" y1="402.25" x2="909.27" y2="433.85" stroke="#f6465d" stroke-width="1.4" /><rect x="906.27" y="414.35" width="6" height="4.71" rx="1.5" fill="#f6465d" /><line x1="920.00" y1="416.37" x2="920.00" y2="431.83" stroke="#f6465d" stroke-width="1.4" /><rect x="917.00" y="419.73" width="6" height="8.74" rx="1.5" fill="#f6465d" />
  <polyline points="501.37,267.10 597.97,337.03 608.71,67.41 716.05,289.29 780.46,181.04" fill="none" stroke="#2fc273" stroke-width="4" stroke-linecap="round" stroke-linejoin="round" />
  <circle cx="501.37" cy="267.10" r="5.5" fill="#2fc273" fill-opacity="0.15" stroke="#2fc273" stroke-width="2" /><text x="501.37" y="255.10" fill="#f3f4f6" font-size="15" font-weight="700" text-anchor="middle">X</text><circle cx="597.97" cy="337.03" r="5.5" fill="#2fc273" fill-opacity="0.15" stroke="#2fc273" stroke-width="2" /><text x="597.97" y="325.03" fill="#f3f4f6" font-size="15" font-weight="700" text-anchor="middle">A</text><circle cx="608.71" cy="67.41" r="5.5" fill="#2fc273" fill-opacity="0.15" stroke="#2fc273" stroke-width="2" /><text x="608.71" y="55.41" fill="#f3f4f6" font-size="15" font-weight="700" text-anchor="middle">B</text><circle cx="716.05" cy="289.29" r="5.5" fill="#2fc273" fill-opacity="0.15" stroke="#2fc273" stroke-width="2" /><text x="716.05" y="277.29" fill="#f3f4f6" font-size="15" font-weight="700" text-anchor="middle">C</text><circle cx="780.46" cy="181.04" r="5.5" fill="#2fc273" fill-opacity="0.15" stroke="#2fc273" stroke-width="2" /><text x="780.46" y="169.04" fill="#f3f4f6" font-size="15" font-weight="700" text-anchor="middle">D</text>
  <text x="56" y="492" fill="#8ba0b5" font-size="18">Complete · TP1 0.22335 · TP2 0.21955 · SL 0.23085</text>
</svg>
