<svg xmlns="http://www.w3.org/2000/svg" width="960" height="540" viewBox="0 0 960 540">
  <rect width="960" height="540" rx="24" fill="#0b1220" />
  <rect x="28" y="28" width="904" height="484" rx="22" fill="#111827" stroke="#1f2937" />
  <text x="56" y="74" fill="#f3f4f6" font-size="34" font-weight="700">VVVUSDT · AB=CD</text>
  <text x="904" y="74" fill="#8ba0b5" font-size="20" text-anchor="end">Bullish (매수) · Score 83.7</text>
  <line x1="72" y1="58" x2="920" y2="58" stroke="#223045" stroke-width="1" stroke-dasharray="4 8" /><line x1="72" y1="156" x2="920" y2="156" stroke="#223045" stroke-width="1" stroke-dasharray="4 8" /><line x1="72" y1="255" x2="920" y2="255" stroke="#223045" stroke-width="1" stroke-dasharray="4 8" /><line x1="72" y1="353" x2="920" y2="353" stroke="#223045" stroke-width="1" stroke-dasharray="4 8" /><line x1="72" y1="452" x2="920" y2="452" stroke="#223045" stroke-width="1" stroke-dasharray="4 8" />
  <rect x="430.43" y="462.93" width="84" height="161.45" fill="#fbbf24" fill-opacity="0.12" stroke="#fbbf24" stroke-width="1.5" stroke-dasharray="6 6" />
  <line x1="72.00" y1="261.61" x2="72.00" y2="342.72" stroke="#0ecb81" stroke-width="1.4" /><rect x="69.00" y="311.08" width="6" height="2.30" rx="1.5" fill="#0ecb81" /><line x1="82.73" y1="231.71" x2="82.73" y2="353.07" stroke="#0ecb81" stroke-width="1.4" /><rect x="79.73" y="262.19" width="6" height="48.89" rx="1.5" fill="#0ecb81" /><line x1="93.47" y1="185.69" x2="93.47" y2="285.20" stroke="#0ecb81" stroke-width="1.4" /><rect x="90.47" y="261.04" width="6" height="2.00" rx="1.5" fill="#0ecb81" /><line x1="104.20" y1="240.91" x2="104.20" y2="379.53" stroke="#f6465d" stroke-width="1.4" /><rect x="101.20" y="261.61" width="6" height="113.89" rx="1.5" fill="#f6465d" /><line x1="114.94" y1="276.57" x2="114.94" y2="400.81" stroke="#0ecb81" stroke-width="1.4" /><rect x="111.94" y="312.81" width="6" height="62.69" rx="1.5" fill="#0ecb81" /><line x1="125.67" y1="269.67" x2="125.67" y2="331.79" stroke="#0ecb81" stroke-width="1.4" /><rect x="122.67" y="285.20" width="6" height="27.03" rx="1.5" fill="#0ecb81" /><line x1="136.41" y1="247.24" x2="136.41" y2="343.87" stroke="#f6465d" stroke-width="1.4" /><rect x="133.41" y="284.62" width="6" height="29.91" rx="1.5" fill="#f6465d" /><line x1="147.14" y1="300.73" x2="147.14" y2="396.21" stroke="#f6465d" stroke-width="1.4" /><rect x="144.14" y="315.11" width="6" height="48.32" rx="1.5" fill="#f6465d" /><line x1="157.87" y1="351.92" x2="157.87" y2="443.37" stroke="#f6465d" stroke-width="1.4" /><rect x="154.87" y="363.42" width="6" height="41.99" rx="1.5" fill="#f6465d" /><line x1="168.61" y1="375.50" x2="168.61" y2="447.40" stroke="#f6465d" stroke-width="1.4" /><rect x="165.61" y="403.68" width="6" height="14.38" rx="1.5" fill="#f6465d" /><line x1="179.34" y1="246.08" x2="179.34" y2="420.94" stroke="#0ecb81" stroke-width="1.4" /><rect x="176.34" y="317.98" width="6" height="100.08" rx="1.5" fill="#0ecb81" /><line x1="190.08" y1="292.10" x2="190.08" y2="407.14" stroke="#f6465d" stroke-width="1.4" /><rect x="187.08" y="317.98" width="6" height="40.84" rx="1.5" fill="#f6465d" /><line x1="200.81" y1="271.97" x2="200.81" y2="368.60" stroke="#f6465d" stroke-width="1.4" /><rect x="197.81" y="359.40" width="6" height="2.00" rx="1.5" fill="#f6465d" /><line x1="211.54" y1="323.73" x2="211.54" y2="384.70" stroke="#0ecb81" stroke-width="1.4" /><rect x="208.54" y="330.06" width="6" height="31.06" rx="1.5" fill="#0ecb81" /><line x1="222.28" y1="305.90" x2="222.28" y2="359.97" stroke="#0ecb81" stroke-width="1.4" /><rect x="219.28" y="317.98" width="6" height="12.08" rx="1.5" fill="#0ecb81" /><line x1="233.01" y1="240.33" x2="233.01" y2="341.56" stroke="#0ecb81" stroke-width="1.4" /><rect x="230.01" y="275.42" width="6" height="43.71" rx="1.5" fill="#0ecb81" /><line x1="243.75" y1="79.28" x2="243.75" y2="294.98" stroke="#0ecb81" stroke-width="1.4" /><rect x="240.75" y="229.40" width="6" height="46.59" rx="1.5" fill="#0ecb81" /><line x1="254.48" y1="199.49" x2="254.48" y2="303.60" stroke="#f6465d" stroke-width="1.4" /><rect x="251.48" y="228.83" width="6" height="48.89" rx="1.5" fill="#f6465d" /><line x1="265.22" y1="243.78" x2="265.22" y2="292.67" stroke="#0ecb81" stroke-width="1.4" /><rect x="262.22" y="248.39" width="6" height="29.33" rx="1.5" fill="#0ecb81" /><line x1="275.95" y1="235.16" x2="275.95" y2="284.62" stroke="#0ecb81" stroke-width="1.4" /><rect x="272.95" y="239.18" width="6" height="9.20" rx="1.5" fill="#0ecb81" /><line x1="286.68" y1="235.16" x2="286.68" y2="267.94" stroke="#f6465d" stroke-width="1.4" /><rect x="283.68" y="239.18" width="6" height="24.73" rx="1.5" fill="#f6465d" /><line x1="297.42" y1="240.33" x2="297.42" y2="281.75" stroke="#0ecb81" stroke-width="1.4" /><rect x="294.42" y="255.29" width="6" height="9.20" rx="1.5" fill="#0ecb81" /><line x1="308.15" y1="241.48" x2="308.15" y2="344.44" stroke="#f6465d" stroke-width="1.4" /><rect x="305.15" y="255.29" width="6" height="75.35" rx="1.5" fill="#f6465d" /><line x1="318.89" y1="317.41" x2="318.89" y2="399.66" stroke="#f6465d" stroke-width="1.4" /><rect x="315.89" y="331.21" width="6" height="13.80" rx="1.5" fill="#f6465d" /><line x1="329.62" y1="311.66" x2="329.62" y2="370.90" stroke="#0ecb81" stroke-width="1.4" /><rect x="326.62" y="335.24" width="6" height="9.78" rx="1.5" fill="#0ecb81" /><line x1="340.35" y1="273.69" x2="340.35" y2="338.69" stroke="#0ecb81" stroke-width="1.4" /><rect x="337.35" y="283.47" width="6" height="51.77" rx="1.5" fill="#0ecb81" /><line x1="351.09" y1="254.14" x2="351.09" y2="288.07" stroke="#0ecb81" stroke-width="1.4" /><rect x="348.09" y="259.89" width="6" height="23.01" rx="1.5" fill="#0ecb81" /><line x1="361.82" y1="142.55" x2="361.82" y2="272.54" stroke="#0ecb81" stroke-width="1.4" /><rect x="358.82" y="237.46" width="6" height="21.86" rx="1.5" fill="#0ecb81" /><line x1="372.56" y1="223.08" x2="372.56" y2="251.84" stroke="#f6465d" stroke-width="1.4" /><rect x="369.56" y="237.46" width="6" height="2.00" rx="1.5" fill="#f6465d" /><line x1="383.29" y1="220.78" x2="383.29" y2="254.71" stroke="#f6465d" stroke-width="1.4" /><rect x="380.29" y="238.61" width="6" height="7.48" rx="1.5" fill="#f6465d" /><line x1="394.03" y1="232.28" x2="394.03" y2="259.89" stroke="#0ecb81" stroke-width="1.4" /><rect x="391.03" y="235.16" width="6" height="10.93" rx="1.5" fill="#0ecb81" /><line x1="404.76" y1="221.35" x2="404.76" y2="288.07" stroke="#f6465d" stroke-width="1.4" /><rect x="401.76" y="235.16" width="6" height="6.90" rx="1.5" fill="#f6465d" /><line x1="415.49" y1="229.40" x2="415.49" y2="380.68" stroke="#f6465d" stroke-width="1.4" /><rect x="412.49" y="242.06" width="6" height="129.99" rx="1.5" fill="#f6465d" /><line x1="426.23" y1="338.69" x2="426.23" y2="431.29" stroke="#f6465d" stroke-width="1.4" /><rect x="423.23" y="372.62" width="6" height="26.46" rx="1.5" fill="#f6465d" /><line x1="436.96" y1="394.48" x2="436.96" y2="438.20" stroke="#f6465d" stroke-width="1.4" /><rect x="433.96" y="399.66" width="6" height="14.95" rx="1.5" fill="#f6465d" /><line x1="447.70" y1="412.31" x2="447.70" y2="450.85" stroke="#f6465d" stroke-width="1.4" /><rect x="444.70" y="415.19" width="6" height="21.86" rx="1.5" fill="#f6465d" /><line x1="458.43" y1="381.25" x2="458.43" y2="452.00" stroke="#0ecb81" stroke-width="1.4" /><rect x="455.43" y="422.67" width="6" height="14.95" rx="1.5" fill="#0ecb81" /><line x1="469.16" y1="349.62" x2="469.16" y2="429.57" stroke="#0ecb81" stroke-width="1.4" /><rect x="466.16" y="376.08" width="6" height="46.59" rx="1.5" fill="#0ecb81" /><line x1="479.90" y1="362.27" x2="479.90" y2="403.68" stroke="#f6465d" stroke-width="1.4" /><rect x="476.90" y="375.50" width="6" height="15.53" rx="1.5" fill="#f6465d" /><line x1="490.63" y1="288.65" x2="490.63" y2="391.03" stroke="#0ecb81" stroke-width="1.4" /><rect x="487.63" y="303.60" width="6" height="87.43" rx="1.5" fill="#0ecb81" /><line x1="501.37" y1="292.67" x2="501.37" y2="368.02" stroke="#f6465d" stroke-width="1.4" /><rect x="498.37" y="303.03" width="6" height="51.77" rx="1.5" fill="#f6465d" /><line x1="512.10" y1="321.43" x2="512.10" y2="374.35" stroke="#0ecb81" stroke-width="1.4" /><rect x="509.10" y="350.77" width="6" height="3.45" rx="1.5" fill="#0ecb81" /><line x1="522.84" y1="319.71" x2="522.84" y2="366.30" stroke="#f6465d" stroke-width="1.4" /><rect x="519.84" y="350.77" width="6" height="2.30" rx="1.5" fill="#f6465d" /><line x1="533.57" y1="252.41" x2="533.57" y2="358.82" stroke="#0ecb81" stroke-width="1.4" /><rect x="530.57" y="268.52" width="6" height="83.98" rx="1.5" fill="#0ecb81" /><line x1="544.30" y1="204.10" x2="544.30" y2="300.73" stroke="#f6465d" stroke-width="1.4" /><rect x="541.30" y="268.52" width="6" height="24.16" rx="1.5" fill="#f6465d" /><line x1="555.04" y1="232.86" x2="555.04" y2="329.49" stroke="#0ecb81" stroke-width="1.4" /><rect x="552.04" y="256.44" width="6" height="36.24" rx="1.5" fill="#0ecb81" /><line x1="565.77" y1="256.44" x2="565.77" y2="324.31" stroke="#f6465d" stroke-width="1.4" /><rect x="562.77" y="256.44" width="6" height="34.51" rx="1.5" fill="#f6465d" /><line x1="576.51" y1="264.49" x2="576.51" y2="330.64" stroke="#f6465d" stroke-width="1.4" /><rect x="573.51" y="289.80" width="6" height="14.95" rx="1.5" fill="#f6465d" /><line x1="587.24" y1="297.85" x2="587.24" y2="331.21" stroke="#f6465d" stroke-width="1.4" /><rect x="584.24" y="304.75" width="6" height="22.43" rx="1.5" fill="#f6465d" /><line x1="597.97" y1="303.03" x2="597.97" y2="362.27" stroke="#f6465d" stroke-width="1.4" /><rect x="594.97" y="327.76" width="6" height="14.95" rx="1.5" fill="#f6465d" /><line x1="608.71" y1="312.81" x2="608.71" y2="357.67" stroke="#0ecb81" stroke-width="1.4" /><rect x="605.71" y="339.26" width="6" height="3.45" rx="1.5" fill="#0ecb81" /><line x1="619.44" y1="309.35" x2="619.44" y2="358.25" stroke="#f6465d" stroke-width="1.4" /><rect x="616.44" y="339.26" width="6" height="2.00" rx="1.5" fill="#f6465d" /><line x1="630.18" y1="313.96" x2="630.18" y2="404.26" stroke="#f6465d" stroke-width="1.4" /><rect x="627.18" y="340.99" width="6" height="48.32" rx="1.5" fill="#f6465d" /><line x1="640.91" y1="385.28" x2="640.91" y2="428.99" stroke="#f6465d" stroke-width="1.4" /><rect x="637.91" y="388.73" width="6" height="18.41" rx="1.5" fill="#f6465d" /><line x1="651.65" y1="397.93" x2="651.65" y2="434.17" stroke="#f6465d" stroke-width="1.4" /><rect x="648.65" y="407.14" width="6" height="9.78" rx="1.5" fill="#f6465d" /><line x1="662.38" y1="409.44" x2="662.38" y2="438.77" stroke="#f6465d" stroke-width="1.4" /><rect x="659.38" y="416.91" width="6" height="4.60" rx="1.5" fill="#f6465d" /><line x1="673.11" y1="309.35" x2="673.11" y2="434.17" stroke="#0ecb81" stroke-width="1.4" /><rect x="670.11" y="312.81" width="6" height="109.28" rx="1.5" fill="#0ecb81" /><line x1="683.85" y1="251.26" x2="683.85" y2="327.19" stroke="#0ecb81" stroke-width="1.4" /><rect x="680.85" y="284.62" width="6" height="28.76" rx="1.5" fill="#0ecb81" /><line x1="694.58" y1="259.31" x2="694.58" y2="328.34" stroke="#0ecb81" stroke-width="1.4" /><rect x="691.58" y="282.32" width="6" height="2.30" rx="1.5" fill="#0ecb81" /><line x1="705.32" y1="259.89" x2="705.32" y2="348.47" stroke="#f6465d" stroke-width="1.4" /><rect x="702.32" y="281.75" width="6" height="40.26" rx="1.5" fill="#f6465d" /><line x1="716.05" y1="298.43" x2="716.05" y2="334.09" stroke="#0ecb81" stroke-width="1.4" /><rect x="713.05" y="322.01" width="6" height="2.00" rx="1.5" fill="#0ecb81" /><line x1="726.78" y1="269.09" x2="726.78" y2="381.25" stroke="#0ecb81" stroke-width="1.4" /><rect x="723.78" y="305.90" width="6" height="16.68" rx="1.5" fill="#0ecb81" /><line x1="737.52" y1="282.90" x2="737.52" y2="327.76" stroke="#f6465d" stroke-width="1.4" /><rect x="734.52" y="305.90" width="6" height="12.08" rx="1.5" fill="#f6465d" /><line x1="748.25" y1="311.66" x2="748.25" y2="365.15" stroke="#f6465d" stroke-width="1.4" /><rect x="745.25" y="317.41" width="6" height="37.39" rx="1.5" fill="#f6465d" /><line x1="758.99" y1="313.38" x2="758.99" y2="398.51" stroke="#f6465d" stroke-width="1.4" /><rect x="755.99" y="354.22" width="6" height="21.86" rx="1.5" fill="#f6465d" /><line x1="769.72" y1="327.76" x2="769.72" y2="431.87" stroke="#0ecb81" stroke-width="1.4" /><rect x="766.72" y="330.06" width="6" height="46.59" rx="1.5" fill="#0ecb81" /><line x1="780.46" y1="235.73" x2="780.46" y2="345.02" stroke="#0ecb81" stroke-width="1.4" /><rect x="777.46" y="262.19" width="6" height="67.30" rx="1.5" fill="#0ecb81" /><line x1="791.19" y1="179.36" x2="791.19" y2="292.67" stroke="#0ecb81" stroke-width="1.4" /><rect x="788.19" y="201.22" width="6" height="60.97" rx="1.5" fill="#0ecb81" /><line x1="801.92" y1="191.44" x2="801.92" y2="292.10" stroke="#f6465d" stroke-width="1.4" /><rect x="798.92" y="200.65" width="6" height="78.80" rx="1.5" fill="#f6465d" /><line x1="812.66" y1="97.11" x2="812.66" y2="278.87" stroke="#0ecb81" stroke-width="1.4" /><rect x="809.66" y="116.09" width="6" height="162.78" rx="1.5" fill="#0ecb81" /><line x1="823.39" y1="116.67" x2="823.39" y2="183.39" stroke="#f6465d" stroke-width="1.4" /><rect x="820.39" y="116.67" width="6" height="46.01" rx="1.5" fill="#f6465d" /><line x1="834.13" y1="135.65" x2="834.13" y2="199.49" stroke="#f6465d" stroke-width="1.4" /><rect x="831.13" y="163.26" width="6" height="3.45" rx="1.5" fill="#f6465d" /><line x1="844.86" y1="114.37" x2="844.86" y2="213.87" stroke="#0ecb81" stroke-width="1.4" /><rect x="841.86" y="130.47" width="6" height="35.66" rx="1.5" fill="#0ecb81" /><line x1="855.59" y1="128.17" x2="855.59" y2="188.57" stroke="#f6465d" stroke-width="1.4" /><rect x="852.59" y="130.47" width="6" height="37.39" rx="1.5" fill="#f6465d" /><line x1="866.33" y1="58.00" x2="866.33" y2="179.94" stroke="#0ecb81" stroke-width="1.4" /><rect x="863.33" y="81.58" width="6" height="86.85" rx="1.5" fill="#0ecb81" /><line x1="877.06" y1="63.18" x2="877.06" y2="196.04" stroke="#f6465d" stroke-width="1.4" /><rect x="874.06" y="81.01" width="6" height="113.31" rx="1.5" fill="#f6465d" /><line x1="887.80" y1="150.03" x2="887.80" y2="262.76" stroke="#f6465d" stroke-width="1.4" /><rect x="884.80" y="194.32" width="6" height="24.73" rx="1.5" fill="#f6465d" /><line x1="898.53" y1="206.97" x2="898.53" y2="275.99" stroke="#0ecb81" stroke-width="1.4" /><rect x="895.53" y="208.12" width="6" height="10.93" rx="1.5" fill="#0ecb81" /><line x1="909.27" y1="144.28" x2="909.27" y2="220.78" stroke="#0ecb81" stroke-width="1.4" /><rect x="906.27" y="147.73" width="6" height="60.39" rx="1.5" fill="#0ecb81" /><line x1="920.00" y1="110.92" x2="920.00" y2="166.13" stroke="#f6465d" stroke-width="1.4" /><rect x="917.00" y="147.73" width="6" height="14.95" rx="1.5" fill="#f6465d" />
  <polyline points="168.61,447.40 243.75,79.28 318.89,399.66 361.82,142.55 458.43,452.00" fill="none" stroke="#2fc273" stroke-width="4" stroke-linecap="round" stroke-linejoin="round" />
  <circle cx="168.61" cy="447.40" r="5.5" fill="#2fc273" fill-opacity="0.15" stroke="#2fc273" stroke-width="2" /><text x="168.61" y="435.40" fill="#f3f4f6" font-size="15" font-weight="700" text-anchor="middle">X</text><circle cx="243.75" cy="79.28" r="5.5" fill="#2fc273" fill-opacity="0.15" stroke="#2fc273" stroke-width="2" /><text x="243.75" y="67.28" fill="#f3f4f6" font-size="15" font-weight="700" text-anchor="middle">A</text><circle cx="318.89" cy="399.66" r="5.5" fill="#2fc273" fill-opacity="0.15" stroke="#2fc273" stroke-width="2" /><text x="318.89" y="387.66" fill="#f3f4f6" font-size="15" font-weight="700" text-anchor="middle">B</text><circle cx="361.82" cy="142.55" r="5.5" fill="#2fc273" fill-opacity="0.15" stroke="#2fc273" stroke-width="2" /><text x="361.82" y="130.55" fill="#f3f4f6" font-size="15" font-weight="700" text-anchor="middle">C</text><circle cx="458.43" cy="452.00" r="5.5" fill="#2fc273" fill-opacity="0.15" stroke="#2fc273" stroke-width="2" /><text x="458.43" y="440.00" fill="#f3f4f6" font-size="15" font-weight="700" text-anchor="middle">D</text>
  <text x="56" y="492" fill="#8ba0b5" font-size="18">일반 완성 · TP1 7.0575 · TP2 7.1845 · SL 6.7688</text>
</svg>
