<svg xmlns="http://www.w3.org/2000/svg" width="960" height="540" viewBox="0 0 960 540">
  <rect width="960" height="540" rx="24" fill="#0b1220" />
  <rect x="28" y="28" width="904" height="484" rx="22" fill="#111827" stroke="#1f2937" />
  <text x="56" y="74" fill="#f3f4f6" font-size="34" font-weight="700">XAUTUSDT · AB=CD</text>
  <text x="904" y="74" fill="#8ba0b5" font-size="20" text-anchor="end">Bullish (매수) · Score 84.7</text>
  <line x1="72" y1="58" x2="920" y2="58" stroke="#223045" stroke-width="1" stroke-dasharray="4 8" /><line x1="72" y1="156" x2="920" y2="156" stroke="#223045" stroke-width="1" stroke-dasharray="4 8" /><line x1="72" y1="255" x2="920" y2="255" stroke="#223045" stroke-width="1" stroke-dasharray="4 8" /><line x1="72" y1="353" x2="920" y2="353" stroke="#223045" stroke-width="1" stroke-dasharray="4 8" /><line x1="72" y1="452" x2="920" y2="452" stroke="#223045" stroke-width="1" stroke-dasharray="4 8" />
  <rect x="387.49" y="178.80" width="84" height="81.53" fill="#fbbf24" fill-opacity="0.12" stroke="#fbbf24" stroke-width="1.5" stroke-dasharray="6 6" />
  <line x1="72.00" y1="220.11" x2="72.00" y2="391.78" stroke="#0ecb81" stroke-width="1.4" /><rect x="69.00" y="244.38" width="6" height="144.68" rx="1.5" fill="#0ecb81" /><line x1="82.73" y1="226.56" x2="82.73" y2="330.36" stroke="#f6465d" stroke-width="1.4" /><rect x="79.73" y="244.35" width="6" height="77.61" rx="1.5" fill="#f6465d" /><line x1="93.47" y1="283.36" x2="93.47" y2="348.14" stroke="#0ecb81" stroke-width="1.4" /><rect x="90.47" y="310.53" width="6" height="11.85" rx="1.5" fill="#0ecb81" /><line x1="104.20" y1="271.16" x2="104.20" y2="366.80" stroke="#0ecb81" stroke-width="1.4" /><rect x="101.20" y="307.21" width="6" height="3.28" rx="1.5" fill="#0ecb81" /><line x1="114.94" y1="284.39" x2="114.94" y2="405.50" stroke="#f6465d" stroke-width="1.4" /><rect x="111.94" y="307.18" width="6" height="81.81" rx="1.5" fill="#f6465d" /><line x1="125.67" y1="291.34" x2="125.67" y2="404.34" stroke="#0ecb81" stroke-width="1.4" /><rect x="122.67" y="382.50" width="6" height="6.77" rx="1.5" fill="#0ecb81" /><line x1="136.41" y1="214.25" x2="136.41" y2="452.00" stroke="#0ecb81" stroke-width="1.4" /><rect x="133.41" y="232.63" width="6" height="149.83" rx="1.5" fill="#0ecb81" /><line x1="147.14" y1="58.00" x2="147.14" y2="278.67" stroke="#0ecb81" stroke-width="1.4" /><rect x="144.14" y="115.54" width="6" height="117.09" rx="1.5" fill="#0ecb81" /><line x1="157.87" y1="111.77" x2="157.87" y2="211.47" stroke="#f6465d" stroke-width="1.4" /><rect x="154.87" y="115.58" width="6" height="74.83" rx="1.5" fill="#f6465d" /><line x1="168.61" y1="156.01" x2="168.61" y2="244.03" stroke="#0ecb81" stroke-width="1.4" /><rect x="165.61" y="185.64" width="6" height="4.76" rx="1.5" fill="#0ecb81" /><line x1="179.34" y1="165.53" x2="179.34" y2="235.74" stroke="#f6465d" stroke-width="1.4" /><rect x="176.34" y="185.82" width="6" height="45.97" rx="1.5" fill="#f6465d" /><line x1="190.08" y1="154.24" x2="190.08" y2="237.75" stroke="#0ecb81" stroke-width="1.4" /><rect x="187.08" y="160.77" width="6" height="71.02" rx="1.5" fill="#0ecb81" /><line x1="200.81" y1="117.97" x2="200.81" y2="175.73" stroke="#0ecb81" stroke-width="1.4" /><rect x="197.81" y="149.30" width="6" height="11.43" rx="1.5" fill="#0ecb81" /><line x1="211.54" y1="138.26" x2="211.54" y2="172.66" stroke="#0ecb81" stroke-width="1.4" /><rect x="208.54" y="140.24" width="6" height="9.07" rx="1.5" fill="#0ecb81" /><line x1="222.28" y1="127.18" x2="222.28" y2="153.64" stroke="#0ecb81" stroke-width="1.4" /><rect x="219.28" y="127.25" width="6" height="13.02" rx="1.5" fill="#0ecb81" /><line x1="233.01" y1="126.94" x2="233.01" y2="152.09" stroke="#f6465d" stroke-width="1.4" /><rect x="230.01" y="127.25" width="6" height="18.80" rx="1.5" fill="#f6465d" /><line x1="243.75" y1="129.44" x2="243.75" y2="147.12" stroke="#0ecb81" stroke-width="1.4" /><rect x="240.75" y="134.20" width="6" height="11.85" rx="1.5" fill="#0ecb81" /><line x1="254.48" y1="121.29" x2="254.48" y2="157.06" stroke="#f6465d" stroke-width="1.4" /><rect x="251.48" y="134.20" width="6" height="18.27" rx="1.5" fill="#f6465d" /><line x1="265.22" y1="142.42" x2="265.22" y2="167.19" stroke="#f6465d" stroke-width="1.4" /><rect x="262.22" y="152.48" width="6" height="10.76" rx="1.5" fill="#f6465d" /><line x1="275.95" y1="145.21" x2="275.95" y2="163.24" stroke="#0ecb81" stroke-width="1.4" /><rect x="272.95" y="145.21" width="6" height="18.03" rx="1.5" fill="#0ecb81" /><line x1="286.68" y1="140.98" x2="286.68" y2="154.70" stroke="#f6465d" stroke-width="1.4" /><rect x="283.68" y="145.21" width="6" height="4.80" rx="1.5" fill="#f6465d" /><line x1="297.42" y1="140.24" x2="297.42" y2="150.22" stroke="#0ecb81" stroke-width="1.4" /><rect x="294.42" y="140.24" width="6" height="9.81" rx="1.5" fill="#0ecb81" /><line x1="308.15" y1="133.89" x2="308.15" y2="149.30" stroke="#0ecb81" stroke-width="1.4" /><rect x="305.15" y="136.14" width="6" height="4.13" rx="1.5" fill="#0ecb81" /><line x1="318.89" y1="131.77" x2="318.89" y2="140.91" stroke="#f6465d" stroke-width="1.4" /><rect x="315.89" y="136.11" width="6" height="4.76" rx="1.5" fill="#f6465d" /><line x1="329.62" y1="140.87" x2="329.62" y2="169.55" stroke="#f6465d" stroke-width="1.4" /><rect x="326.62" y="140.91" width="6" height="25.30" rx="1.5" fill="#f6465d" /><line x1="340.35" y1="151.35" x2="340.35" y2="166.20" stroke="#0ecb81" stroke-width="1.4" /><rect x="337.35" y="151.35" width="6" height="14.85" rx="1.5" fill="#0ecb81" /><line x1="351.09" y1="149.48" x2="351.09" y2="152.41" stroke="#0ecb81" stroke-width="1.4" /><rect x="348.09" y="151.28" width="6" height="2.00" rx="1.5" fill="#0ecb81" /><line x1="361.82" y1="151.24" x2="361.82" y2="158.55" stroke="#f6465d" stroke-width="1.4" /><rect x="358.82" y="151.28" width="6" height="7.27" rx="1.5" fill="#f6465d" /><line x1="372.56" y1="158.51" x2="372.56" y2="176.36" stroke="#f6465d" stroke-width="1.4" /><rect x="369.56" y="158.51" width="6" height="4.59" rx="1.5" fill="#f6465d" /><line x1="383.29" y1="151.49" x2="383.29" y2="208.93" stroke="#f6465d" stroke-width="1.4" /><rect x="380.29" y="163.06" width="6" height="35.70" rx="1.5" fill="#f6465d" /><line x1="394.03" y1="187.76" x2="394.03" y2="206.31" stroke="#0ecb81" stroke-width="1.4" /><rect x="391.03" y="192.20" width="6" height="6.60" rx="1.5" fill="#0ecb81" /><line x1="404.76" y1="188.04" x2="404.76" y2="202.12" stroke="#f6465d" stroke-width="1.4" /><rect x="401.76" y="192.27" width="6" height="8.40" rx="1.5" fill="#f6465d" /><line x1="415.49" y1="187.76" x2="415.49" y2="215.59" stroke="#0ecb81" stroke-width="1.4" /><rect x="412.49" y="197.88" width="6" height="2.82" rx="1.5" fill="#0ecb81" /><line x1="426.23" y1="186.35" x2="426.23" y2="198.55" stroke="#0ecb81" stroke-width="1.4" /><rect x="423.23" y="186.56" width="6" height="11.32" rx="1.5" fill="#0ecb81" /><line x1="436.96" y1="186.42" x2="436.96" y2="209.56" stroke="#f6465d" stroke-width="1.4" /><rect x="433.96" y="186.56" width="6" height="13.41" rx="1.5" fill="#f6465d" /><line x1="447.70" y1="199.93" x2="447.70" y2="214.29" stroke="#f6465d" stroke-width="1.4" /><rect x="444.70" y="199.93" width="6" height="12.77" rx="1.5" fill="#f6465d" /><line x1="458.43" y1="192.38" x2="458.43" y2="212.70" stroke="#0ecb81" stroke-width="1.4" /><rect x="455.43" y="207.62" width="6" height="5.08" rx="1.5" fill="#0ecb81" /><line x1="469.16" y1="198.48" x2="469.16" y2="210.83" stroke="#0ecb81" stroke-width="1.4" /><rect x="466.16" y="198.48" width="6" height="9.14" rx="1.5" fill="#0ecb81" /><line x1="479.90" y1="192.03" x2="479.90" y2="209.42" stroke="#f6465d" stroke-width="1.4" /><rect x="476.90" y="198.52" width="6" height="3.85" rx="1.5" fill="#f6465d" /><line x1="490.63" y1="198.84" x2="490.63" y2="207.48" stroke="#f6465d" stroke-width="1.4" /><rect x="487.63" y="202.36" width="6" height="3.00" rx="1.5" fill="#f6465d" /><line x1="501.37" y1="191.96" x2="501.37" y2="205.36" stroke="#0ecb81" stroke-width="1.4" /><rect x="498.37" y="192.20" width="6" height="13.16" rx="1.5" fill="#0ecb81" /><line x1="512.10" y1="192.17" x2="512.10" y2="202.54" stroke="#f6465d" stroke-width="1.4" /><rect x="509.10" y="192.17" width="6" height="2.68" rx="1.5" fill="#f6465d" /><line x1="522.84" y1="179.89" x2="522.84" y2="194.85" stroke="#0ecb81" stroke-width="1.4" /><rect x="519.84" y="181.34" width="6" height="13.48" rx="1.5" fill="#0ecb81" /><line x1="533.57" y1="174.17" x2="533.57" y2="187.76" stroke="#0ecb81" stroke-width="1.4" /><rect x="530.57" y="176.33" width="6" height="4.97" rx="1.5" fill="#0ecb81" /><line x1="544.30" y1="169.41" x2="544.30" y2="177.95" stroke="#0ecb81" stroke-width="1.4" /><rect x="541.30" y="169.59" width="6" height="6.70" rx="1.5" fill="#0ecb81" /><line x1="555.04" y1="169.41" x2="555.04" y2="177.42" stroke="#f6465d" stroke-width="1.4" /><rect x="552.04" y="169.55" width="6" height="7.83" rx="1.5" fill="#f6465d" /><line x1="565.77" y1="173.58" x2="565.77" y2="183.45" stroke="#0ecb81" stroke-width="1.4" /><rect x="562.77" y="176.86" width="6" height="2.00" rx="1.5" fill="#0ecb81" /><line x1="576.51" y1="170.65" x2="576.51" y2="183.52" stroke="#f6465d" stroke-width="1.4" /><rect x="573.51" y="176.82" width="6" height="3.25" rx="1.5" fill="#f6465d" /><line x1="587.24" y1="174.67" x2="587.24" y2="184.41" stroke="#f6465d" stroke-width="1.4" /><rect x="584.24" y="180.07" width="6" height="4.34" rx="1.5" fill="#f6465d" /><line x1="597.97" y1="184.41" x2="597.97" y2="194.81" stroke="#f6465d" stroke-width="1.4" /><rect x="594.97" y="184.41" width="6" height="9.84" rx="1.5" fill="#f6465d" /><line x1="608.71" y1="170.12" x2="608.71" y2="194.25" stroke="#0ecb81" stroke-width="1.4" /><rect x="605.71" y="171.46" width="6" height="22.79" rx="1.5" fill="#0ecb81" /><line x1="619.44" y1="156.64" x2="619.44" y2="171.35" stroke="#0ecb81" stroke-width="1.4" /><rect x="616.44" y="158.33" width="6" height="13.02" rx="1.5" fill="#0ecb81" /><line x1="630.18" y1="147.47" x2="630.18" y2="173.50" stroke="#f6465d" stroke-width="1.4" /><rect x="627.18" y="158.33" width="6" height="6.32" rx="1.5" fill="#f6465d" /><line x1="640.91" y1="149.30" x2="640.91" y2="164.65" stroke="#0ecb81" stroke-width="1.4" /><rect x="637.91" y="149.30" width="6" height="15.31" rx="1.5" fill="#0ecb81" /><line x1="651.65" y1="149.30" x2="651.65" y2="149.34" stroke="#0ecb81" stroke-width="1.4" /><rect x="648.65" y="149.30" width="6" height="2.00" rx="1.5" fill="#0ecb81" /><line x1="662.38" y1="144.61" x2="662.38" y2="150.01" stroke="#f6465d" stroke-width="1.4" /><rect x="659.38" y="149.30" width="6" height="2.00" rx="1.5" fill="#f6465d" /><line x1="673.11" y1="149.97" x2="673.11" y2="179.26" stroke="#f6465d" stroke-width="1.4" /><rect x="670.11" y="149.97" width="6" height="9.21" rx="1.5" fill="#f6465d" /><line x1="683.85" y1="145.42" x2="683.85" y2="159.18" stroke="#0ecb81" stroke-width="1.4" /><rect x="680.85" y="153.22" width="6" height="5.96" rx="1.5" fill="#0ecb81" /><line x1="694.58" y1="153.18" x2="694.58" y2="164.23" stroke="#f6465d" stroke-width="1.4" /><rect x="691.58" y="153.18" width="6" height="11.04" rx="1.5" fill="#f6465d" /><line x1="705.32" y1="158.76" x2="705.32" y2="184.55" stroke="#f6465d" stroke-width="1.4" /><rect x="702.32" y="164.19" width="6" height="20.32" rx="1.5" fill="#f6465d" /><line x1="716.05" y1="184.05" x2="716.05" y2="194.46" stroke="#f6465d" stroke-width="1.4" /><rect x="713.05" y="184.55" width="6" height="9.91" rx="1.5" fill="#f6465d" /><line x1="726.78" y1="176.22" x2="726.78" y2="194.46" stroke="#0ecb81" stroke-width="1.4" /><rect x="723.78" y="176.26" width="6" height="18.20" rx="1.5" fill="#0ecb81" /><line x1="737.52" y1="176.22" x2="737.52" y2="194.46" stroke="#f6465d" stroke-width="1.4" /><rect x="734.52" y="176.26" width="6" height="16.09" rx="1.5" fill="#f6465d" /><line x1="748.25" y1="176.54" x2="748.25" y2="192.38" stroke="#0ecb81" stroke-width="1.4" /><rect x="745.25" y="185.82" width="6" height="6.56" rx="1.5" fill="#0ecb81" /><line x1="758.99" y1="177.17" x2="758.99" y2="187.83" stroke="#f6465d" stroke-width="1.4" /><rect x="755.99" y="185.78" width="6" height="2.00" rx="1.5" fill="#f6465d" /><line x1="769.72" y1="171.60" x2="769.72" y2="194.25" stroke="#f6465d" stroke-width="1.4" /><rect x="766.72" y="187.76" width="6" height="2.00" rx="1.5" fill="#f6465d" /><line x1="780.46" y1="173.65" x2="780.46" y2="188.29" stroke="#0ecb81" stroke-width="1.4" /><rect x="777.46" y="183.91" width="6" height="4.34" rx="1.5" fill="#0ecb81" /><line x1="791.19" y1="183.88" x2="791.19" y2="183.91" stroke="#0ecb81" stroke-width="1.4" /><rect x="788.19" y="183.88" width="6" height="2.00" rx="1.5" fill="#0ecb81" /><line x1="801.92" y1="174.88" x2="801.92" y2="187.76" stroke="#0ecb81" stroke-width="1.4" /><rect x="798.92" y="177.39" width="6" height="6.53" rx="1.5" fill="#0ecb81" /><line x1="812.66" y1="177.35" x2="812.66" y2="184.23" stroke="#f6465d" stroke-width="1.4" /><rect x="809.66" y="177.39" width="6" height="2.29" rx="1.5" fill="#f6465d" /><line x1="823.39" y1="177.35" x2="823.39" y2="183.84" stroke="#0ecb81" stroke-width="1.4" /><rect x="820.39" y="179.04" width="6" height="2.00" rx="1.5" fill="#0ecb81" /><line x1="834.13" y1="173.82" x2="834.13" y2="191.29" stroke="#f6465d" stroke-width="1.4" /><rect x="831.13" y="179.04" width="6" height="3.07" rx="1.5" fill="#f6465d" /><line x1="844.86" y1="181.94" x2="844.86" y2="210.79" stroke="#f6465d" stroke-width="1.4" /><rect x="841.86" y="182.11" width="6" height="8.22" rx="1.5" fill="#f6465d" /><line x1="855.59" y1="174.60" x2="855.59" y2="199.15" stroke="#0ecb81" stroke-width="1.4" /><rect x="852.59" y="187.90" width="6" height="2.47" rx="1.5" fill="#0ecb81" /><line x1="866.33" y1="187.23" x2="866.33" y2="207.34" stroke="#f6465d" stroke-width="1.4" /><rect x="863.33" y="187.93" width="6" height="10.62" rx="1.5" fill="#f6465d" /><line x1="877.06" y1="198.52" x2="877.06" y2="224.98" stroke="#f6465d" stroke-width="1.4" /><rect x="874.06" y="198.55" width="6" height="19.93" rx="1.5" fill="#f6465d" /><line x1="887.80" y1="215.13" x2="887.80" y2="242.76" stroke="#f6465d" stroke-width="1.4" /><rect x="884.80" y="218.49" width="6" height="2.00" rx="1.5" fill="#f6465d" /><line x1="898.53" y1="220.07" x2="898.53" y2="286.72" stroke="#f6465d" stroke-width="1.4" /><rect x="895.53" y="220.11" width="6" height="30.09" rx="1.5" fill="#f6465d" /><line x1="909.27" y1="197.46" x2="909.27" y2="269.96" stroke="#0ecb81" stroke-width="1.4" /><rect x="906.27" y="247.38" width="6" height="2.82" rx="1.5" fill="#0ecb81" /><line x1="920.00" y1="217.74" x2="920.00" y2="247.38" stroke="#0ecb81" stroke-width="1.4" /><rect x="917.00" y="236.48" width="6" height="10.87" rx="1.5" fill="#0ecb81" />
  <polyline points="72.00,541.86 147.14,58.00 265.22,167.19 318.89,131.77 415.49,215.59" fill="none" stroke="#2fc273" stroke-width="4" stroke-linecap="round" stroke-linejoin="round" />
  <circle cx="72.00" cy="541.86" r="5.5" fill="#2fc273" fill-opacity="0.15" stroke="#2fc273" stroke-width="2" /><text x="72.00" y="529.86" fill="#f3f4f6" font-size="15" font-weight="700" text-anchor="middle">X</text><circle cx="147.14" cy="58.00" r="5.5" fill="#2fc273" fill-opacity="0.15" stroke="#2fc273" stroke-width="2" /><text x="147.14" y="46.00" fill="#f3f4f6" font-size="15" font-weight="700" text-anchor="middle">A</text><circle cx="265.22" cy="167.19" r="5.5" fill="#2fc273" fill-opacity="0.15" stroke="#2fc273" stroke-width="2" /><text x="265.22" y="155.19" fill="#f3f4f6" font-size="15" font-weight="700" text-anchor="middle">B</text><circle cx="318.89" cy="131.77" r="5.5" fill="#2fc273" fill-opacity="0.15" stroke="#2fc273" stroke-width="2" /><text x="318.89" y="119.77" fill="#f3f4f6" font-size="15" font-weight="700" text-anchor="middle">C</text><circle cx="415.49" cy="215.59" r="5.5" fill="#2fc273" fill-opacity="0.15" stroke="#2fc273" stroke-width="2" /><text x="415.49" y="203.59" fill="#f3f4f6" font-size="15" font-weight="700" text-anchor="middle">D</text>
  <text x="56" y="492" fill="#8ba0b5" font-size="18">실시간 터치 · TP1 4633.19 · TP2 4638.79 · SL 4606.28</text>
</svg>
