<svg xmlns="http://www.w3.org/2000/svg" width="960" height="540" viewBox="0 0 960 540">
  <rect width="960" height="540" rx="24" fill="#0b1220" />
  <rect x="28" y="28" width="904" height="484" rx="22" fill="#111827" stroke="#1f2937" />
  <text x="56" y="74" fill="#f3f4f6" font-size="34" font-weight="700">XMRUSDT · AB=CD</text>
  <text x="904" y="74" fill="#8ba0b5" font-size="20" text-anchor="end">Bearish (매도) · Score 88.5</text>
  <line x1="72" y1="58" x2="920" y2="58" stroke="#223045" stroke-width="1" stroke-dasharray="4 8" /><line x1="72" y1="156" x2="920" y2="156" stroke="#223045" stroke-width="1" stroke-dasharray="4 8" /><line x1="72" y1="255" x2="920" y2="255" stroke="#223045" stroke-width="1" stroke-dasharray="4 8" /><line x1="72" y1="353" x2="920" y2="353" stroke="#223045" stroke-width="1" stroke-dasharray="4 8" /><line x1="72" y1="452" x2="920" y2="452" stroke="#223045" stroke-width="1" stroke-dasharray="4 8" />
  <rect x="784.66" y="20.19" width="84" height="69.51" fill="#fbbf24" fill-opacity="0.12" stroke="#fbbf24" stroke-width="1.5" stroke-dasharray="6 6" />
  <line x1="72.00" y1="159.59" x2="72.00" y2="237.63" stroke="#0ecb81" stroke-width="1.4" /><rect x="69.00" y="169.84" width="6" height="60.76" rx="1.5" fill="#0ecb81" /><line x1="82.73" y1="151.04" x2="82.73" y2="187.12" stroke="#0ecb81" stroke-width="1.4" /><rect x="79.73" y="163.38" width="6" height="6.46" rx="1.5" fill="#0ecb81" /><line x1="93.47" y1="143.07" x2="93.47" y2="179.90" stroke="#0ecb81" stroke-width="1.4" /><rect x="90.47" y="159.59" width="6" height="3.99" rx="1.5" fill="#0ecb81" /><line x1="104.20" y1="158.64" x2="104.20" y2="215.22" stroke="#f6465d" stroke-width="1.4" /><rect x="101.20" y="159.59" width="6" height="51.27" rx="1.5" fill="#f6465d" /><line x1="114.94" y1="186.55" x2="114.94" y2="232.50" stroke="#0ecb81" stroke-width="1.4" /><rect x="111.94" y="199.27" width="6" height="11.39" rx="1.5" fill="#0ecb81" /><line x1="125.67" y1="171.17" x2="125.67" y2="231.93" stroke="#f6465d" stroke-width="1.4" /><rect x="122.67" y="199.27" width="6" height="5.13" rx="1.5" fill="#f6465d" /><line x1="136.41" y1="164.52" x2="136.41" y2="215.41" stroke="#0ecb81" stroke-width="1.4" /><rect x="133.41" y="190.73" width="6" height="14.05" rx="1.5" fill="#0ecb81" /><line x1="147.14" y1="179.90" x2="147.14" y2="230.22" stroke="#f6465d" stroke-width="1.4" /><rect x="144.14" y="190.35" width="6" height="32.85" rx="1.5" fill="#f6465d" /><line x1="157.87" y1="202.31" x2="157.87" y2="233.83" stroke="#0ecb81" stroke-width="1.4" /><rect x="154.87" y="217.88" width="6" height="5.32" rx="1.5" fill="#0ecb81" /><line x1="168.61" y1="215.22" x2="168.61" y2="292.31" stroke="#f6465d" stroke-width="1.4" /><rect x="165.61" y="218.07" width="6" height="42.15" rx="1.5" fill="#f6465d" /><line x1="179.34" y1="248.26" x2="179.34" y2="292.69" stroke="#f6465d" stroke-width="1.4" /><rect x="176.34" y="260.41" width="6" height="30.95" rx="1.5" fill="#f6465d" /><line x1="190.08" y1="267.06" x2="190.08" y2="324.02" stroke="#0ecb81" stroke-width="1.4" /><rect x="187.08" y="278.83" width="6" height="12.34" rx="1.5" fill="#0ecb81" /><line x1="200.81" y1="257.18" x2="200.81" y2="325.54" stroke="#f6465d" stroke-width="1.4" /><rect x="197.81" y="278.45" width="6" height="27.34" rx="1.5" fill="#f6465d" /><line x1="211.54" y1="294.59" x2="211.54" y2="364.85" stroke="#f6465d" stroke-width="1.4" /><rect x="208.54" y="305.98" width="6" height="51.27" rx="1.5" fill="#f6465d" /><line x1="222.28" y1="351.17" x2="222.28" y2="418.77" stroke="#f6465d" stroke-width="1.4" /><rect x="219.28" y="357.06" width="6" height="57.15" rx="1.5" fill="#f6465d" /><line x1="233.01" y1="392.38" x2="233.01" y2="452.00" stroke="#f6465d" stroke-width="1.4" /><rect x="230.01" y="414.21" width="6" height="6.65" rx="1.5" fill="#f6465d" /><line x1="243.75" y1="369.59" x2="243.75" y2="429.97" stroke="#0ecb81" stroke-width="1.4" /><rect x="240.75" y="378.52" width="6" height="42.15" rx="1.5" fill="#0ecb81" /><line x1="254.48" y1="346.24" x2="254.48" y2="391.62" stroke="#f6465d" stroke-width="1.4" /><rect x="251.48" y="378.52" width="6" height="2.00" rx="1.5" fill="#f6465d" /><line x1="265.22" y1="363.14" x2="265.22" y2="401.11" stroke="#0ecb81" stroke-width="1.4" /><rect x="262.22" y="363.90" width="6" height="15.19" rx="1.5" fill="#0ecb81" /><line x1="275.95" y1="356.11" x2="275.95" y2="393.33" stroke="#f6465d" stroke-width="1.4" /><rect x="272.95" y="363.90" width="6" height="28.10" rx="1.5" fill="#f6465d" /><line x1="286.68" y1="389.53" x2="286.68" y2="423.14" stroke="#0ecb81" stroke-width="1.4" /><rect x="283.68" y="392.19" width="6" height="2.00" rx="1.5" fill="#0ecb81" /><line x1="297.42" y1="390.29" x2="297.42" y2="421.81" stroke="#f6465d" stroke-width="1.4" /><rect x="294.42" y="392.38" width="6" height="9.87" rx="1.5" fill="#f6465d" /><line x1="308.15" y1="396.37" x2="308.15" y2="436.24" stroke="#f6465d" stroke-width="1.4" /><rect x="305.15" y="402.25" width="6" height="30.57" rx="1.5" fill="#f6465d" /><line x1="318.89" y1="396.37" x2="318.89" y2="437.19" stroke="#0ecb81" stroke-width="1.4" /><rect x="315.89" y="411.75" width="6" height="21.08" rx="1.5" fill="#0ecb81" /><line x1="329.62" y1="365.98" x2="329.62" y2="420.29" stroke="#0ecb81" stroke-width="1.4" /><rect x="326.62" y="371.87" width="6" height="39.87" rx="1.5" fill="#0ecb81" /><line x1="340.35" y1="372.06" x2="340.35" y2="434.34" stroke="#f6465d" stroke-width="1.4" /><rect x="337.35" y="372.06" width="6" height="49.18" rx="1.5" fill="#f6465d" /><line x1="351.09" y1="378.14" x2="351.09" y2="428.64" stroke="#0ecb81" stroke-width="1.4" /><rect x="348.09" y="385.16" width="6" height="36.08" rx="1.5" fill="#0ecb81" /><line x1="361.82" y1="375.29" x2="361.82" y2="401.11" stroke="#0ecb81" stroke-width="1.4" /><rect x="358.82" y="375.48" width="6" height="9.49" rx="1.5" fill="#0ecb81" /><line x1="372.56" y1="334.65" x2="372.56" y2="397.69" stroke="#0ecb81" stroke-width="1.4" /><rect x="369.56" y="342.63" width="6" height="33.04" rx="1.5" fill="#0ecb81" /><line x1="383.29" y1="330.10" x2="383.29" y2="377.76" stroke="#f6465d" stroke-width="1.4" /><rect x="380.29" y="342.82" width="6" height="24.11" rx="1.5" fill="#f6465d" /><line x1="394.03" y1="358.01" x2="394.03" y2="380.99" stroke="#f6465d" stroke-width="1.4" /><rect x="391.03" y="366.93" width="6" height="8.16" rx="1.5" fill="#f6465d" /><line x1="404.76" y1="371.30" x2="404.76" y2="414.78" stroke="#f6465d" stroke-width="1.4" /><rect x="401.76" y="374.91" width="6" height="18.61" rx="1.5" fill="#f6465d" /><line x1="415.49" y1="383.64" x2="415.49" y2="405.86" stroke="#f6465d" stroke-width="1.4" /><rect x="412.49" y="393.52" width="6" height="6.46" rx="1.5" fill="#f6465d" /><line x1="426.23" y1="395.23" x2="426.23" y2="413.07" stroke="#f6465d" stroke-width="1.4" /><rect x="423.23" y="399.97" width="6" height="7.03" rx="1.5" fill="#f6465d" /><line x1="436.96" y1="378.14" x2="436.96" y2="415.92" stroke="#0ecb81" stroke-width="1.4" /><rect x="433.96" y="405.67" width="6" height="2.00" rx="1.5" fill="#0ecb81" /><line x1="447.70" y1="388.96" x2="447.70" y2="409.66" stroke="#0ecb81" stroke-width="1.4" /><rect x="444.70" y="395.23" width="6" height="10.25" rx="1.5" fill="#0ecb81" /><line x1="458.43" y1="349.65" x2="458.43" y2="410.80" stroke="#0ecb81" stroke-width="1.4" /><rect x="455.43" y="365.41" width="6" height="29.62" rx="1.5" fill="#0ecb81" /><line x1="469.16" y1="343.39" x2="469.16" y2="374.91" stroke="#f6465d" stroke-width="1.4" /><rect x="466.16" y="365.41" width="6" height="7.97" rx="1.5" fill="#f6465d" /><line x1="479.90" y1="321.55" x2="479.90" y2="380.80" stroke="#0ecb81" stroke-width="1.4" /><rect x="476.90" y="330.86" width="6" height="42.53" rx="1.5" fill="#0ecb81" /><line x1="490.63" y1="282.63" x2="490.63" y2="346.62" stroke="#0ecb81" stroke-width="1.4" /><rect x="487.63" y="299.72" width="6" height="31.14" rx="1.5" fill="#0ecb81" /><line x1="501.37" y1="279.40" x2="501.37" y2="335.41" stroke="#f6465d" stroke-width="1.4" /><rect x="498.37" y="299.91" width="6" height="16.33" rx="1.5" fill="#f6465d" /><line x1="512.10" y1="236.30" x2="512.10" y2="317.19" stroke="#0ecb81" stroke-width="1.4" /><rect x="509.10" y="244.46" width="6" height="71.58" rx="1.5" fill="#0ecb81" /><line x1="522.84" y1="224.33" x2="522.84" y2="276.93" stroke="#0ecb81" stroke-width="1.4" /><rect x="519.84" y="226.42" width="6" height="18.42" rx="1.5" fill="#0ecb81" /><line x1="533.57" y1="208.57" x2="533.57" y2="256.42" stroke="#f6465d" stroke-width="1.4" /><rect x="530.57" y="226.80" width="6" height="10.25" rx="1.5" fill="#f6465d" /><line x1="544.30" y1="213.13" x2="544.30" y2="244.46" stroke="#0ecb81" stroke-width="1.4" /><rect x="541.30" y="224.33" width="6" height="12.72" rx="1.5" fill="#0ecb81" /><line x1="555.04" y1="215.60" x2="555.04" y2="266.30" stroke="#0ecb81" stroke-width="1.4" /><rect x="552.04" y="215.60" width="6" height="8.35" rx="1.5" fill="#0ecb81" /><line x1="565.77" y1="194.90" x2="565.77" y2="256.80" stroke="#f6465d" stroke-width="1.4" /><rect x="562.77" y="215.41" width="6" height="35.89" rx="1.5" fill="#f6465d" /><line x1="576.51" y1="196.80" x2="576.51" y2="256.99" stroke="#0ecb81" stroke-width="1.4" /><rect x="573.51" y="210.47" width="6" height="40.63" rx="1.5" fill="#0ecb81" /><line x1="587.24" y1="208.95" x2="587.24" y2="247.50" stroke="#f6465d" stroke-width="1.4" /><rect x="584.24" y="210.47" width="6" height="10.44" rx="1.5" fill="#f6465d" /><line x1="597.97" y1="192.81" x2="597.97" y2="241.04" stroke="#0ecb81" stroke-width="1.4" /><rect x="594.97" y="200.98" width="6" height="19.75" rx="1.5" fill="#0ecb81" /><line x1="608.71" y1="148.76" x2="608.71" y2="201.74" stroke="#0ecb81" stroke-width="1.4" /><rect x="605.71" y="185.98" width="6" height="15.19" rx="1.5" fill="#0ecb81" /><line x1="619.44" y1="154.65" x2="619.44" y2="206.49" stroke="#f6465d" stroke-width="1.4" /><rect x="616.44" y="185.98" width="6" height="17.09" rx="1.5" fill="#f6465d" /><line x1="630.18" y1="186.36" x2="630.18" y2="223.76" stroke="#f6465d" stroke-width="1.4" /><rect x="627.18" y="203.07" width="6" height="2.00" rx="1.5" fill="#f6465d" /><line x1="640.91" y1="195.85" x2="640.91" y2="238.77" stroke="#f6465d" stroke-width="1.4" /><rect x="637.91" y="204.40" width="6" height="24.49" rx="1.5" fill="#f6465d" /><line x1="651.65" y1="192.81" x2="651.65" y2="239.52" stroke="#0ecb81" stroke-width="1.4" /><rect x="648.65" y="193.95" width="6" height="34.75" rx="1.5" fill="#0ecb81" /><line x1="662.38" y1="173.07" x2="662.38" y2="212.94" stroke="#f6465d" stroke-width="1.4" /><rect x="659.38" y="193.57" width="6" height="11.20" rx="1.5" fill="#f6465d" /><line x1="673.11" y1="186.74" x2="673.11" y2="224.14" stroke="#0ecb81" stroke-width="1.4" /><rect x="670.11" y="200.41" width="6" height="4.18" rx="1.5" fill="#0ecb81" /><line x1="683.85" y1="171.36" x2="683.85" y2="201.55" stroke="#0ecb81" stroke-width="1.4" /><rect x="680.85" y="180.28" width="6" height="19.94" rx="1.5" fill="#0ecb81" /><line x1="694.58" y1="117.62" x2="694.58" y2="182.18" stroke="#0ecb81" stroke-width="1.4" /><rect x="691.58" y="122.56" width="6" height="57.53" rx="1.5" fill="#0ecb81" /><line x1="705.32" y1="89.33" x2="705.32" y2="148.00" stroke="#0ecb81" stroke-width="1.4" /><rect x="702.32" y="95.03" width="6" height="27.53" rx="1.5" fill="#0ecb81" /><line x1="716.05" y1="83.06" x2="716.05" y2="138.32" stroke="#f6465d" stroke-width="1.4" /><rect x="713.05" y="95.03" width="6" height="19.18" rx="1.5" fill="#f6465d" /><line x1="726.78" y1="98.06" x2="726.78" y2="121.23" stroke="#0ecb81" stroke-width="1.4" /><rect x="723.78" y="105.85" width="6" height="8.35" rx="1.5" fill="#0ecb81" /><line x1="737.52" y1="104.33" x2="737.52" y2="174.02" stroke="#f6465d" stroke-width="1.4" /><rect x="734.52" y="105.85" width="6" height="27.53" rx="1.5" fill="#f6465d" /><line x1="748.25" y1="113.25" x2="748.25" y2="153.32" stroke="#f6465d" stroke-width="1.4" /><rect x="745.25" y="133.00" width="6" height="2.00" rx="1.5" fill="#f6465d" /><line x1="758.99" y1="91.23" x2="758.99" y2="145.34" stroke="#0ecb81" stroke-width="1.4" /><rect x="755.99" y="130.53" width="6" height="4.18" rx="1.5" fill="#0ecb81" /><line x1="769.72" y1="104.52" x2="769.72" y2="148.57" stroke="#0ecb81" stroke-width="1.4" /><rect x="766.72" y="120.28" width="6" height="10.06" rx="1.5" fill="#0ecb81" /><line x1="780.46" y1="119.52" x2="780.46" y2="172.50" stroke="#f6465d" stroke-width="1.4" /><rect x="777.46" y="120.28" width="6" height="11.39" rx="1.5" fill="#f6465d" /><line x1="791.19" y1="105.66" x2="791.19" y2="159.59" stroke="#0ecb81" stroke-width="1.4" /><rect x="788.19" y="109.46" width="6" height="22.22" rx="1.5" fill="#0ecb81" /><line x1="801.92" y1="87.24" x2="801.92" y2="119.90" stroke="#f6465d" stroke-width="1.4" /><rect x="798.92" y="109.46" width="6" height="2.00" rx="1.5" fill="#f6465d" /><line x1="812.66" y1="86.48" x2="812.66" y2="126.17" stroke="#0ecb81" stroke-width="1.4" /><rect x="809.66" y="108.51" width="6" height="2.47" rx="1.5" fill="#0ecb81" /><line x1="823.39" y1="103.57" x2="823.39" y2="154.84" stroke="#f6465d" stroke-width="1.4" /><rect x="820.39" y="109.08" width="6" height="39.12" rx="1.5" fill="#f6465d" /><line x1="834.13" y1="100.15" x2="834.13" y2="188.64" stroke="#f6465d" stroke-width="1.4" /><rect x="831.13" y="148.19" width="6" height="19.37" rx="1.5" fill="#f6465d" /><line x1="844.86" y1="138.51" x2="844.86" y2="174.40" stroke="#0ecb81" stroke-width="1.4" /><rect x="841.86" y="156.17" width="6" height="11.58" rx="1.5" fill="#0ecb81" /><line x1="855.59" y1="119.90" x2="855.59" y2="166.99" stroke="#0ecb81" stroke-width="1.4" /><rect x="852.59" y="137.37" width="6" height="18.42" rx="1.5" fill="#0ecb81" /><line x1="866.33" y1="125.60" x2="866.33" y2="141.93" stroke="#0ecb81" stroke-width="1.4" /><rect x="863.33" y="132.81" width="6" height="4.56" rx="1.5" fill="#0ecb81" /><line x1="877.06" y1="106.04" x2="877.06" y2="140.41" stroke="#0ecb81" stroke-width="1.4" /><rect x="874.06" y="106.42" width="6" height="26.39" rx="1.5" fill="#0ecb81" /><line x1="887.80" y1="100.34" x2="887.80" y2="156.36" stroke="#0ecb81" stroke-width="1.4" /><rect x="884.80" y="100.53" width="6" height="5.89" rx="1.5" fill="#0ecb81" /><line x1="898.53" y1="58.00" x2="898.53" y2="144.02" stroke="#0ecb81" stroke-width="1.4" /><rect x="895.53" y="61.80" width="6" height="38.74" rx="1.5" fill="#0ecb81" /><line x1="909.27" y1="59.71" x2="909.27" y2="115.72" stroke="#f6465d" stroke-width="1.4" /><rect x="906.27" y="61.80" width="6" height="48.23" rx="1.5" fill="#f6465d" /><line x1="920.00" y1="90.47" x2="920.00" y2="119.52" stroke="#0ecb81" stroke-width="1.4" /><rect x="917.00" y="99.58" width="6" height="9.49" rx="1.5" fill="#0ecb81" />
  <polyline points="716.05,83.06 737.52,174.02 758.99,91.23 780.46,172.50 812.66,86.48" fill="none" stroke="#2fc273" stroke-width="4" stroke-linecap="round" stroke-linejoin="round" />
  <circle cx="716.05" cy="83.06" r="5.5" fill="#2fc273" fill-opacity="0.15" stroke="#2fc273" stroke-width="2" /><text x="716.05" y="71.06" fill="#f3f4f6" font-size="15" font-weight="700" text-anchor="middle">X</text><circle cx="737.52" cy="174.02" r="5.5" fill="#2fc273" fill-opacity="0.15" stroke="#2fc273" stroke-width="2" /><text x="737.52" y="162.02" fill="#f3f4f6" font-size="15" font-weight="700" text-anchor="middle">A</text><circle cx="758.99" cy="91.23" r="5.5" fill="#2fc273" fill-opacity="0.15" stroke="#2fc273" stroke-width="2" /><text x="758.99" y="79.23" fill="#f3f4f6" font-size="15" font-weight="700" text-anchor="middle">B</text><circle cx="780.46" cy="172.50" r="5.5" fill="#2fc273" fill-opacity="0.15" stroke="#2fc273" stroke-width="2" /><text x="780.46" y="160.50" fill="#f3f4f6" font-size="15" font-weight="700" text-anchor="middle">C</text><circle cx="812.66" cy="86.48" r="5.5" fill="#2fc273" fill-opacity="0.15" stroke="#2fc273" stroke-width="2" /><text x="812.66" y="74.48" fill="#f3f4f6" font-size="15" font-weight="700" text-anchor="middle">D</text>
  <text x="56" y="492" fill="#8ba0b5" font-size="18">일반 완성 · TP1 331.03 · TP2 329.96 · SL 333.383</text>
</svg>
