<svg xmlns="http://www.w3.org/2000/svg" width="960" height="540" viewBox="0 0 960 540">
  <rect width="960" height="540" rx="24" fill="#0b1220" />
  <rect x="28" y="28" width="904" height="484" rx="22" fill="#111827" stroke="#1f2937" />
  <text x="56" y="74" fill="#f3f4f6" font-size="34" font-weight="700">XRPUSDT · AB=CD</text>
  <text x="904" y="74" fill="#8ba0b5" font-size="20" text-anchor="end">Bullish (매수) · Score 82.6</text>
  <line x1="72" y1="58" x2="920" y2="58" stroke="#223045" stroke-width="1" stroke-dasharray="4 8" /><line x1="72" y1="156" x2="920" y2="156" stroke="#223045" stroke-width="1" stroke-dasharray="4 8" /><line x1="72" y1="255" x2="920" y2="255" stroke="#223045" stroke-width="1" stroke-dasharray="4 8" /><line x1="72" y1="353" x2="920" y2="353" stroke="#223045" stroke-width="1" stroke-dasharray="4 8" /><line x1="72" y1="452" x2="920" y2="452" stroke="#223045" stroke-width="1" stroke-dasharray="4 8" />
  <rect x="494.84" y="310.58" width="84" height="35.77" fill="#fbbf24" fill-opacity="0.12" stroke="#fbbf24" stroke-width="1.5" stroke-dasharray="6 6" />
  <line x1="72.00" y1="205.47" x2="72.00" y2="302.32" stroke="#0ecb81" stroke-width="1.4" /><rect x="69.00" y="230.79" width="6" height="54.48" rx="1.5" fill="#0ecb81" /><line x1="82.73" y1="220.33" x2="82.73" y2="260.50" stroke="#f6465d" stroke-width="1.4" /><rect x="79.73" y="230.24" width="6" height="13.21" rx="1.5" fill="#f6465d" /><line x1="93.47" y1="226.39" x2="93.47" y2="262.15" stroke="#0ecb81" stroke-width="1.4" /><rect x="90.47" y="231.89" width="6" height="11.56" rx="1.5" fill="#0ecb81" /><line x1="104.20" y1="213.73" x2="104.20" y2="243.44" stroke="#0ecb81" stroke-width="1.4" /><rect x="101.20" y="219.78" width="6" height="11.56" rx="1.5" fill="#0ecb81" /><line x1="114.94" y1="198.32" x2="114.94" y2="250.60" stroke="#f6465d" stroke-width="1.4" /><rect x="111.94" y="219.78" width="6" height="22.56" rx="1.5" fill="#f6465d" /><line x1="125.67" y1="215.93" x2="125.67" y2="260.50" stroke="#f6465d" stroke-width="1.4" /><rect x="122.67" y="242.89" width="6" height="11.01" rx="1.5" fill="#f6465d" /><line x1="136.41" y1="234.09" x2="136.41" y2="311.13" stroke="#f6465d" stroke-width="1.4" /><rect x="133.41" y="253.90" width="6" height="33.57" rx="1.5" fill="#f6465d" /><line x1="147.14" y1="208.23" x2="147.14" y2="290.22" stroke="#0ecb81" stroke-width="1.4" /><rect x="144.14" y="209.88" width="6" height="77.04" rx="1.5" fill="#0ecb81" /><line x1="157.87" y1="199.97" x2="157.87" y2="250.05" stroke="#f6465d" stroke-width="1.4" /><rect x="154.87" y="209.88" width="6" height="9.35" rx="1.5" fill="#f6465d" /><line x1="168.61" y1="184.56" x2="168.61" y2="241.79" stroke="#f6465d" stroke-width="1.4" /><rect x="165.61" y="219.78" width="6" height="7.70" rx="1.5" fill="#f6465d" /><line x1="179.34" y1="214.83" x2="179.34" y2="245.65" stroke="#0ecb81" stroke-width="1.4" /><rect x="176.34" y="222.53" width="6" height="4.95" rx="1.5" fill="#0ecb81" /><line x1="190.08" y1="196.12" x2="190.08" y2="236.84" stroke="#f6465d" stroke-width="1.4" /><rect x="187.08" y="221.98" width="6" height="4.40" rx="1.5" fill="#f6465d" /><line x1="200.81" y1="209.88" x2="200.81" y2="237.94" stroke="#f6465d" stroke-width="1.4" /><rect x="197.81" y="225.84" width="6" height="5.50" rx="1.5" fill="#f6465d" /><line x1="211.54" y1="231.34" x2="211.54" y2="268.76" stroke="#f6465d" stroke-width="1.4" /><rect x="208.54" y="231.34" width="6" height="34.12" rx="1.5" fill="#f6465d" /><line x1="222.28" y1="232.99" x2="222.28" y2="278.11" stroke="#0ecb81" stroke-width="1.4" /><rect x="219.28" y="242.34" width="6" height="22.56" rx="1.5" fill="#0ecb81" /><line x1="233.01" y1="193.92" x2="233.01" y2="247.30" stroke="#0ecb81" stroke-width="1.4" /><rect x="230.01" y="217.03" width="6" height="25.31" rx="1.5" fill="#0ecb81" /><line x1="243.75" y1="129.54" x2="243.75" y2="228.59" stroke="#f6465d" stroke-width="1.4" /><rect x="240.75" y="217.03" width="6" height="2.20" rx="1.5" fill="#f6465d" /><line x1="254.48" y1="215.93" x2="254.48" y2="249.50" stroke="#f6465d" stroke-width="1.4" /><rect x="251.48" y="219.23" width="6" height="12.66" rx="1.5" fill="#f6465d" /><line x1="265.22" y1="213.18" x2="265.22" y2="247.30" stroke="#0ecb81" stroke-width="1.4" /><rect x="262.22" y="224.73" width="6" height="7.70" rx="1.5" fill="#0ecb81" /><line x1="275.95" y1="201.07" x2="275.95" y2="229.14" stroke="#f6465d" stroke-width="1.4" /><rect x="272.95" y="224.18" width="6" height="3.30" rx="1.5" fill="#f6465d" /><line x1="286.68" y1="189.52" x2="286.68" y2="227.49" stroke="#0ecb81" stroke-width="1.4" /><rect x="283.68" y="194.47" width="6" height="33.02" rx="1.5" fill="#0ecb81" /><line x1="297.42" y1="190.07" x2="297.42" y2="224.18" stroke="#f6465d" stroke-width="1.4" /><rect x="294.42" y="193.92" width="6" height="18.71" rx="1.5" fill="#f6465d" /><line x1="308.15" y1="205.47" x2="308.15" y2="232.99" stroke="#f6465d" stroke-width="1.4" /><rect x="305.15" y="212.63" width="6" height="16.51" rx="1.5" fill="#f6465d" /><line x1="318.89" y1="226.39" x2="318.89" y2="255.55" stroke="#f6465d" stroke-width="1.4" /><rect x="315.89" y="229.14" width="6" height="2.20" rx="1.5" fill="#f6465d" /><line x1="329.62" y1="223.08" x2="329.62" y2="240.14" stroke="#f6465d" stroke-width="1.4" /><rect x="326.62" y="231.34" width="6" height="6.05" rx="1.5" fill="#f6465d" /><line x1="340.35" y1="220.88" x2="340.35" y2="257.75" stroke="#0ecb81" stroke-width="1.4" /><rect x="337.35" y="228.59" width="6" height="9.35" rx="1.5" fill="#0ecb81" /><line x1="351.09" y1="206.03" x2="351.09" y2="242.89" stroke="#f6465d" stroke-width="1.4" /><rect x="348.09" y="229.14" width="6" height="8.25" rx="1.5" fill="#f6465d" /><line x1="361.82" y1="225.84" x2="361.82" y2="261.60" stroke="#0ecb81" stroke-width="1.4" /><rect x="358.82" y="228.04" width="6" height="9.91" rx="1.5" fill="#0ecb81" /><line x1="372.56" y1="223.63" x2="372.56" y2="241.79" stroke="#f6465d" stroke-width="1.4" /><rect x="369.56" y="228.59" width="6" height="12.11" rx="1.5" fill="#f6465d" /><line x1="383.29" y1="232.44" x2="383.29" y2="250.60" stroke="#f6465d" stroke-width="1.4" /><rect x="380.29" y="240.69" width="6" height="6.60" rx="1.5" fill="#f6465d" /><line x1="394.03" y1="245.65" x2="394.03" y2="256.10" stroke="#f6465d" stroke-width="1.4" /><rect x="391.03" y="247.85" width="6" height="2.00" rx="1.5" fill="#f6465d" /><line x1="404.76" y1="236.29" x2="404.76" y2="250.05" stroke="#0ecb81" stroke-width="1.4" /><rect x="401.76" y="241.24" width="6" height="7.15" rx="1.5" fill="#0ecb81" /><line x1="415.49" y1="227.49" x2="415.49" y2="245.09" stroke="#0ecb81" stroke-width="1.4" /><rect x="412.49" y="239.04" width="6" height="2.75" rx="1.5" fill="#0ecb81" /><line x1="426.23" y1="226.94" x2="426.23" y2="244.54" stroke="#0ecb81" stroke-width="1.4" /><rect x="423.23" y="235.19" width="6" height="3.85" rx="1.5" fill="#0ecb81" /><line x1="436.96" y1="215.38" x2="436.96" y2="240.14" stroke="#0ecb81" stroke-width="1.4" /><rect x="433.96" y="220.33" width="6" height="14.86" rx="1.5" fill="#0ecb81" /><line x1="447.70" y1="218.68" x2="447.70" y2="246.20" stroke="#f6465d" stroke-width="1.4" /><rect x="444.70" y="220.88" width="6" height="20.91" rx="1.5" fill="#f6465d" /><line x1="458.43" y1="238.49" x2="458.43" y2="255.00" stroke="#f6465d" stroke-width="1.4" /><rect x="455.43" y="241.24" width="6" height="11.01" rx="1.5" fill="#f6465d" /><line x1="469.16" y1="250.60" x2="469.16" y2="261.05" stroke="#f6465d" stroke-width="1.4" /><rect x="466.16" y="252.25" width="6" height="8.25" rx="1.5" fill="#f6465d" /><line x1="479.90" y1="248.95" x2="479.90" y2="292.97" stroke="#0ecb81" stroke-width="1.4" /><rect x="476.90" y="252.25" width="6" height="8.25" rx="1.5" fill="#0ecb81" /><line x1="490.63" y1="238.49" x2="490.63" y2="269.86" stroke="#f6465d" stroke-width="1.4" /><rect x="487.63" y="252.25" width="6" height="11.01" rx="1.5" fill="#f6465d" /><line x1="501.37" y1="263.25" x2="501.37" y2="280.31" stroke="#f6465d" stroke-width="1.4" /><rect x="498.37" y="263.25" width="6" height="9.35" rx="1.5" fill="#f6465d" /><line x1="512.10" y1="266.01" x2="512.10" y2="285.27" stroke="#f6465d" stroke-width="1.4" /><rect x="509.10" y="272.06" width="6" height="6.60" rx="1.5" fill="#f6465d" /><line x1="522.84" y1="259.40" x2="522.84" y2="294.62" stroke="#0ecb81" stroke-width="1.4" /><rect x="519.84" y="261.60" width="6" height="17.06" rx="1.5" fill="#0ecb81" /><line x1="533.57" y1="236.84" x2="533.57" y2="267.66" stroke="#0ecb81" stroke-width="1.4" /><rect x="530.57" y="259.95" width="6" height="2.00" rx="1.5" fill="#0ecb81" /><line x1="544.30" y1="242.34" x2="544.30" y2="272.06" stroke="#f6465d" stroke-width="1.4" /><rect x="541.30" y="259.40" width="6" height="3.30" rx="1.5" fill="#f6465d" /><line x1="555.04" y1="240.69" x2="555.04" y2="264.91" stroke="#0ecb81" stroke-width="1.4" /><rect x="552.04" y="250.05" width="6" height="12.66" rx="1.5" fill="#0ecb81" /><line x1="565.77" y1="242.34" x2="565.77" y2="257.75" stroke="#f6465d" stroke-width="1.4" /><rect x="562.77" y="250.05" width="6" height="5.50" rx="1.5" fill="#f6465d" /><line x1="576.51" y1="204.37" x2="576.51" y2="257.20" stroke="#0ecb81" stroke-width="1.4" /><rect x="573.51" y="232.99" width="6" height="23.11" rx="1.5" fill="#0ecb81" /><line x1="587.24" y1="229.14" x2="587.24" y2="244.54" stroke="#f6465d" stroke-width="1.4" /><rect x="584.24" y="232.44" width="6" height="5.50" rx="1.5" fill="#f6465d" /><line x1="597.97" y1="225.84" x2="597.97" y2="252.25" stroke="#0ecb81" stroke-width="1.4" /><rect x="594.97" y="235.74" width="6" height="2.20" rx="1.5" fill="#0ecb81" /><line x1="608.71" y1="226.39" x2="608.71" y2="240.69" stroke="#f6465d" stroke-width="1.4" /><rect x="605.71" y="235.74" width="6" height="2.00" rx="1.5" fill="#f6465d" /><line x1="619.44" y1="237.94" x2="619.44" y2="256.10" stroke="#f6465d" stroke-width="1.4" /><rect x="616.44" y="237.94" width="6" height="7.70" rx="1.5" fill="#f6465d" /><line x1="630.18" y1="244.54" x2="630.18" y2="266.56" stroke="#f6465d" stroke-width="1.4" /><rect x="627.18" y="245.65" width="6" height="15.41" rx="1.5" fill="#f6465d" /><line x1="640.91" y1="251.70" x2="640.91" y2="266.56" stroke="#0ecb81" stroke-width="1.4" /><rect x="637.91" y="258.85" width="6" height="2.75" rx="1.5" fill="#0ecb81" /><line x1="651.65" y1="220.88" x2="651.65" y2="274.81" stroke="#0ecb81" stroke-width="1.4" /><rect x="648.65" y="236.84" width="6" height="22.01" rx="1.5" fill="#0ecb81" /><line x1="662.38" y1="234.64" x2="662.38" y2="257.20" stroke="#f6465d" stroke-width="1.4" /><rect x="659.38" y="237.39" width="6" height="19.26" rx="1.5" fill="#f6465d" /><line x1="673.11" y1="242.34" x2="673.11" y2="279.76" stroke="#f6465d" stroke-width="1.4" /><rect x="670.11" y="257.20" width="6" height="13.21" rx="1.5" fill="#f6465d" /><line x1="683.85" y1="262.15" x2="683.85" y2="331.49" stroke="#f6465d" stroke-width="1.4" /><rect x="680.85" y="269.86" width="6" height="56.68" rx="1.5" fill="#f6465d" /><line x1="694.58" y1="312.23" x2="694.58" y2="355.70" stroke="#0ecb81" stroke-width="1.4" /><rect x="691.58" y="322.13" width="6" height="4.40" rx="1.5" fill="#0ecb81" /><line x1="705.32" y1="310.58" x2="705.32" y2="350.75" stroke="#f6465d" stroke-width="1.4" /><rect x="702.32" y="322.68" width="6" height="19.81" rx="1.5" fill="#f6465d" /><line x1="716.05" y1="330.39" x2="716.05" y2="347.45" stroke="#0ecb81" stroke-width="1.4" /><rect x="713.05" y="334.79" width="6" height="7.70" rx="1.5" fill="#0ecb81" /><line x1="726.78" y1="319.93" x2="726.78" y2="337.54" stroke="#0ecb81" stroke-width="1.4" /><rect x="723.78" y="325.99" width="6" height="8.80" rx="1.5" fill="#0ecb81" /><line x1="737.52" y1="307.28" x2="737.52" y2="340.84" stroke="#f6465d" stroke-width="1.4" /><rect x="734.52" y="325.99" width="6" height="11.01" rx="1.5" fill="#f6465d" /><line x1="748.25" y1="325.99" x2="748.25" y2="344.15" stroke="#0ecb81" stroke-width="1.4" /><rect x="745.25" y="336.99" width="6" height="2.00" rx="1.5" fill="#0ecb81" /><line x1="758.99" y1="336.99" x2="758.99" y2="452.00" stroke="#f6465d" stroke-width="1.4" /><rect x="755.99" y="336.99" width="6" height="90.25" rx="1.5" fill="#f6465d" /><line x1="769.72" y1="371.11" x2="769.72" y2="440.44" stroke="#0ecb81" stroke-width="1.4" /><rect x="766.72" y="390.92" width="6" height="36.32" rx="1.5" fill="#0ecb81" /><line x1="780.46" y1="380.46" x2="780.46" y2="411.28" stroke="#f6465d" stroke-width="1.4" /><rect x="777.46" y="390.37" width="6" height="15.41" rx="1.5" fill="#f6465d" /><line x1="791.19" y1="294.07" x2="791.19" y2="421.18" stroke="#0ecb81" stroke-width="1.4" /><rect x="788.19" y="349.10" width="6" height="56.13" rx="1.5" fill="#0ecb81" /><line x1="801.92" y1="317.73" x2="801.92" y2="349.10" stroke="#0ecb81" stroke-width="1.4" /><rect x="798.92" y="342.49" width="6" height="6.60" rx="1.5" fill="#0ecb81" /><line x1="812.66" y1="312.78" x2="812.66" y2="348.00" stroke="#0ecb81" stroke-width="1.4" /><rect x="809.66" y="317.18" width="6" height="24.76" rx="1.5" fill="#0ecb81" /><line x1="823.39" y1="303.97" x2="823.39" y2="336.44" stroke="#0ecb81" stroke-width="1.4" /><rect x="820.39" y="313.88" width="6" height="3.30" rx="1.5" fill="#0ecb81" /><line x1="834.13" y1="287.47" x2="834.13" y2="334.24" stroke="#f6465d" stroke-width="1.4" /><rect x="831.13" y="313.88" width="6" height="13.21" rx="1.5" fill="#f6465d" /><line x1="844.86" y1="300.12" x2="844.86" y2="331.49" stroke="#0ecb81" stroke-width="1.4" /><rect x="841.86" y="305.63" width="6" height="21.46" rx="1.5" fill="#0ecb81" /><line x1="855.59" y1="304.53" x2="855.59" y2="338.64" stroke="#f6465d" stroke-width="1.4" /><rect x="852.59" y="305.63" width="6" height="19.26" rx="1.5" fill="#f6465d" /><line x1="866.33" y1="256.10" x2="866.33" y2="345.80" stroke="#0ecb81" stroke-width="1.4" /><rect x="863.33" y="261.05" width="6" height="63.83" rx="1.5" fill="#0ecb81" /><line x1="877.06" y1="150.45" x2="877.06" y2="266.56" stroke="#0ecb81" stroke-width="1.4" /><rect x="874.06" y="182.91" width="6" height="78.14" rx="1.5" fill="#0ecb81" /><line x1="887.80" y1="108.63" x2="887.80" y2="182.91" stroke="#0ecb81" stroke-width="1.4" /><rect x="884.80" y="154.85" width="6" height="28.06" rx="1.5" fill="#0ecb81" /><line x1="898.53" y1="143.29" x2="898.53" y2="186.22" stroke="#f6465d" stroke-width="1.4" /><rect x="895.53" y="154.85" width="6" height="10.46" rx="1.5" fill="#f6465d" /><line x1="909.27" y1="58.00" x2="909.27" y2="168.06" stroke="#0ecb81" stroke-width="1.4" /><rect x="906.27" y="106.42" width="6" height="59.43" rx="1.5" fill="#0ecb81" /><line x1="920.00" y1="95.97" x2="920.00" y2="129.54" stroke="#f6465d" stroke-width="1.4" /><rect x="917.00" y="106.42" width="6" height="14.86" rx="1.5" fill="#f6465d" />
  <polyline points="361.82,261.60 436.96,215.38 479.90,292.97 490.63,238.49 522.84,294.62" fill="none" stroke="#2fc273" stroke-width="4" stroke-linecap="round" stroke-linejoin="round" />
  <circle cx="361.82" cy="261.60" r="5.5" fill="#2fc273" fill-opacity="0.15" stroke="#2fc273" stroke-width="2" /><text x="361.82" y="249.60" fill="#f3f4f6" font-size="15" font-weight="700" text-anchor="middle">X</text><circle cx="436.96" cy="215.38" r="5.5" fill="#2fc273" fill-opacity="0.15" stroke="#2fc273" stroke-width="2" /><text x="436.96" y="203.38" fill="#f3f4f6" font-size="15" font-weight="700" text-anchor="middle">A</text><circle cx="479.90" cy="292.97" r="5.5" fill="#2fc273" fill-opacity="0.15" stroke="#2fc273" stroke-width="2" /><text x="479.90" y="280.97" fill="#f3f4f6" font-size="15" font-weight="700" text-anchor="middle">B</text><circle cx="490.63" cy="238.49" r="5.5" fill="#2fc273" fill-opacity="0.15" stroke="#2fc273" stroke-width="2" /><text x="490.63" y="226.49" fill="#f3f4f6" font-size="15" font-weight="700" text-anchor="middle">C</text><circle cx="522.84" cy="294.62" r="5.5" fill="#2fc273" fill-opacity="0.15" stroke="#2fc273" stroke-width="2" /><text x="522.84" y="282.62" fill="#f3f4f6" font-size="15" font-weight="700" text-anchor="middle">D</text>
  <text x="56" y="492" fill="#8ba0b5" font-size="18">일반 완성 · TP1 1.3095 · TP2 1.3119 · SL 1.3045</text>
</svg>
