<svg xmlns="http://www.w3.org/2000/svg" width="960" height="540" viewBox="0 0 960 540">
  <rect width="960" height="540" rx="24" fill="#0b1220" />
  <rect x="28" y="28" width="904" height="484" rx="22" fill="#111827" stroke="#1f2937" />
  <text x="56" y="74" fill="#f3f4f6" font-size="34" font-weight="700">ZBTUSDT · AB=CD</text>
  <text x="904" y="74" fill="#8ba0b5" font-size="20" text-anchor="end">Bullish (매수) · Score 90.3</text>
  <line x1="72" y1="58" x2="920" y2="58" stroke="#223045" stroke-width="1" stroke-dasharray="4 8" /><line x1="72" y1="156" x2="920" y2="156" stroke="#223045" stroke-width="1" stroke-dasharray="4 8" /><line x1="72" y1="255" x2="920" y2="255" stroke="#223045" stroke-width="1" stroke-dasharray="4 8" /><line x1="72" y1="353" x2="920" y2="353" stroke="#223045" stroke-width="1" stroke-dasharray="4 8" /><line x1="72" y1="452" x2="920" y2="452" stroke="#223045" stroke-width="1" stroke-dasharray="4 8" />
  <rect x="569.97" y="303.19" width="84" height="43.23" fill="#fbbf24" fill-opacity="0.12" stroke="#fbbf24" stroke-width="1.5" stroke-dasharray="6 6" />
  <line x1="72.00" y1="411.16" x2="72.00" y2="452.00" stroke="#0ecb81" stroke-width="1.4" /><rect x="69.00" y="416.51" width="6" height="11.44" rx="1.5" fill="#0ecb81" /><line x1="82.73" y1="403.88" x2="82.73" y2="427.94" stroke="#0ecb81" stroke-width="1.4" /><rect x="79.73" y="407.00" width="6" height="9.50" rx="1.5" fill="#0ecb81" /><line x1="93.47" y1="389.63" x2="93.47" y2="410.42" stroke="#0ecb81" stroke-width="1.4" /><rect x="90.47" y="396.01" width="6" height="10.69" rx="1.5" fill="#0ecb81" /><line x1="104.20" y1="366.75" x2="104.20" y2="399.13" stroke="#0ecb81" stroke-width="1.4" /><rect x="101.20" y="369.13" width="6" height="26.43" rx="1.5" fill="#0ecb81" /><line x1="114.94" y1="313.44" x2="114.94" y2="369.72" stroke="#0ecb81" stroke-width="1.4" /><rect x="111.94" y="317.89" width="6" height="51.24" rx="1.5" fill="#0ecb81" /><line x1="125.67" y1="307.20" x2="125.67" y2="327.55" stroke="#f6465d" stroke-width="1.4" /><rect x="122.67" y="317.75" width="6" height="2.67" rx="1.5" fill="#f6465d" /><line x1="136.41" y1="263.39" x2="136.41" y2="322.50" stroke="#0ecb81" stroke-width="1.4" /><rect x="133.41" y="274.53" width="6" height="45.74" rx="1.5" fill="#0ecb81" /><line x1="147.14" y1="246.91" x2="147.14" y2="281.95" stroke="#f6465d" stroke-width="1.4" /><rect x="144.14" y="273.94" width="6" height="2.00" rx="1.5" fill="#f6465d" /><line x1="157.87" y1="210.08" x2="157.87" y2="284.78" stroke="#0ecb81" stroke-width="1.4" /><rect x="154.87" y="214.83" width="6" height="60.30" rx="1.5" fill="#0ecb81" /><line x1="168.61" y1="137.30" x2="168.61" y2="218.84" stroke="#0ecb81" stroke-width="1.4" /><rect x="165.61" y="163.15" width="6" height="50.79" rx="1.5" fill="#0ecb81" /><line x1="179.34" y1="100.62" x2="179.34" y2="188.99" stroke="#0ecb81" stroke-width="1.4" /><rect x="176.34" y="116.07" width="6" height="46.93" rx="1.5" fill="#0ecb81" /><line x1="190.08" y1="64.09" x2="190.08" y2="127.35" stroke="#0ecb81" stroke-width="1.4" /><rect x="187.08" y="89.63" width="6" height="26.29" rx="1.5" fill="#0ecb81" /><line x1="200.81" y1="60.38" x2="200.81" y2="163.15" stroke="#f6465d" stroke-width="1.4" /><rect x="197.81" y="90.08" width="6" height="70.69" rx="1.5" fill="#f6465d" /><line x1="211.54" y1="155.87" x2="211.54" y2="214.09" stroke="#f6465d" stroke-width="1.4" /><rect x="208.54" y="160.92" width="6" height="47.67" rx="1.5" fill="#f6465d" /><line x1="222.28" y1="142.65" x2="222.28" y2="225.97" stroke="#0ecb81" stroke-width="1.4" /><rect x="219.28" y="156.17" width="6" height="52.28" rx="1.5" fill="#0ecb81" /><line x1="233.01" y1="117.26" x2="233.01" y2="168.64" stroke="#0ecb81" stroke-width="1.4" /><rect x="230.01" y="145.32" width="6" height="10.84" rx="1.5" fill="#0ecb81" /><line x1="243.75" y1="118.00" x2="243.75" y2="157.95" stroke="#0ecb81" stroke-width="1.4" /><rect x="240.75" y="133.74" width="6" height="10.99" rx="1.5" fill="#0ecb81" /><line x1="254.48" y1="92.45" x2="254.48" y2="145.32" stroke="#0ecb81" stroke-width="1.4" /><rect x="251.48" y="97.65" width="6" height="35.94" rx="1.5" fill="#0ecb81" /><line x1="265.22" y1="70.18" x2="265.22" y2="135.82" stroke="#f6465d" stroke-width="1.4" /><rect x="262.22" y="97.80" width="6" height="21.24" rx="1.5" fill="#f6465d" /><line x1="275.95" y1="68.10" x2="275.95" y2="119.48" stroke="#0ecb81" stroke-width="1.4" /><rect x="272.95" y="92.60" width="6" height="26.43" rx="1.5" fill="#0ecb81" /><line x1="286.68" y1="58.00" x2="286.68" y2="94.83" stroke="#0ecb81" stroke-width="1.4" /><rect x="283.68" y="75.38" width="6" height="17.82" rx="1.5" fill="#0ecb81" /><line x1="297.42" y1="75.23" x2="297.42" y2="115.77" stroke="#f6465d" stroke-width="1.4" /><rect x="294.42" y="75.38" width="6" height="31.34" rx="1.5" fill="#f6465d" /><line x1="308.15" y1="76.42" x2="308.15" y2="144.28" stroke="#f6465d" stroke-width="1.4" /><rect x="305.15" y="106.27" width="6" height="30.00" rx="1.5" fill="#f6465d" /><line x1="318.89" y1="72.85" x2="318.89" y2="143.54" stroke="#0ecb81" stroke-width="1.4" /><rect x="315.89" y="102.70" width="6" height="33.42" rx="1.5" fill="#0ecb81" /><line x1="329.62" y1="93.05" x2="329.62" y2="193.89" stroke="#f6465d" stroke-width="1.4" /><rect x="326.62" y="102.55" width="6" height="79.75" rx="1.5" fill="#f6465d" /><line x1="340.35" y1="150.08" x2="340.35" y2="192.25" stroke="#0ecb81" stroke-width="1.4" /><rect x="337.35" y="176.07" width="6" height="6.09" rx="1.5" fill="#0ecb81" /><line x1="351.09" y1="166.41" x2="351.09" y2="223.59" stroke="#f6465d" stroke-width="1.4" /><rect x="348.09" y="176.07" width="6" height="30.59" rx="1.5" fill="#f6465d" /><line x1="361.82" y1="185.57" x2="361.82" y2="214.09" stroke="#f6465d" stroke-width="1.4" /><rect x="358.82" y="206.66" width="6" height="4.90" rx="1.5" fill="#f6465d" /><line x1="372.56" y1="184.83" x2="372.56" y2="211.41" stroke="#0ecb81" stroke-width="1.4" /><rect x="369.56" y="203.39" width="6" height="8.02" rx="1.5" fill="#0ecb81" /><line x1="383.29" y1="195.82" x2="383.29" y2="223.29" stroke="#f6465d" stroke-width="1.4" /><rect x="380.29" y="203.39" width="6" height="9.50" rx="1.5" fill="#f6465d" /><line x1="394.03" y1="210.22" x2="394.03" y2="245.57" stroke="#f6465d" stroke-width="1.4" /><rect x="391.03" y="212.90" width="6" height="27.62" rx="1.5" fill="#f6465d" /><line x1="404.76" y1="217.20" x2="404.76" y2="243.34" stroke="#0ecb81" stroke-width="1.4" /><rect x="401.76" y="222.10" width="6" height="18.56" rx="1.5" fill="#0ecb81" /><line x1="415.49" y1="221.81" x2="415.49" y2="240.97" stroke="#f6465d" stroke-width="1.4" /><rect x="412.49" y="222.10" width="6" height="7.43" rx="1.5" fill="#f6465d" /><line x1="426.23" y1="212.90" x2="426.23" y2="251.36" stroke="#f6465d" stroke-width="1.4" /><rect x="423.23" y="229.68" width="6" height="10.54" rx="1.5" fill="#f6465d" /><line x1="436.96" y1="235.32" x2="436.96" y2="254.48" stroke="#f6465d" stroke-width="1.4" /><rect x="433.96" y="240.07" width="6" height="6.24" rx="1.5" fill="#f6465d" /><line x1="447.70" y1="216.91" x2="447.70" y2="259.83" stroke="#0ecb81" stroke-width="1.4" /><rect x="444.70" y="220.17" width="6" height="25.99" rx="1.5" fill="#0ecb81" /><line x1="458.43" y1="186.02" x2="458.43" y2="223.74" stroke="#0ecb81" stroke-width="1.4" /><rect x="455.43" y="207.55" width="6" height="12.47" rx="1.5" fill="#0ecb81" /><line x1="469.16" y1="202.95" x2="469.16" y2="230.87" stroke="#f6465d" stroke-width="1.4" /><rect x="466.16" y="207.40" width="6" height="14.70" rx="1.5" fill="#f6465d" /><line x1="479.90" y1="221.96" x2="479.90" y2="255.22" stroke="#f6465d" stroke-width="1.4" /><rect x="476.90" y="222.10" width="6" height="26.43" rx="1.5" fill="#f6465d" /><line x1="490.63" y1="243.79" x2="490.63" y2="263.69" stroke="#f6465d" stroke-width="1.4" /><rect x="487.63" y="248.54" width="6" height="5.20" rx="1.5" fill="#f6465d" /><line x1="501.37" y1="247.65" x2="501.37" y2="266.81" stroke="#f6465d" stroke-width="1.4" /><rect x="498.37" y="253.74" width="6" height="8.32" rx="1.5" fill="#f6465d" /><line x1="512.10" y1="242.90" x2="512.10" y2="265.92" stroke="#0ecb81" stroke-width="1.4" /><rect x="509.10" y="259.38" width="6" height="2.52" rx="1.5" fill="#0ecb81" /><line x1="522.84" y1="252.70" x2="522.84" y2="281.66" stroke="#f6465d" stroke-width="1.4" /><rect x="519.84" y="259.23" width="6" height="7.13" rx="1.5" fill="#f6465d" /><line x1="533.57" y1="207.55" x2="533.57" y2="277.05" stroke="#0ecb81" stroke-width="1.4" /><rect x="530.57" y="219.88" width="6" height="46.34" rx="1.5" fill="#0ecb81" /><line x1="544.30" y1="217.50" x2="544.30" y2="269.03" stroke="#f6465d" stroke-width="1.4" /><rect x="541.30" y="219.73" width="6" height="47.08" rx="1.5" fill="#f6465d" /><line x1="555.04" y1="264.43" x2="555.04" y2="279.28" stroke="#f6465d" stroke-width="1.4" /><rect x="552.04" y="266.96" width="6" height="2.00" rx="1.5" fill="#f6465d" /><line x1="565.77" y1="265.77" x2="565.77" y2="296.21" stroke="#f6465d" stroke-width="1.4" /><rect x="562.77" y="268.59" width="6" height="23.91" rx="1.5" fill="#f6465d" /><line x1="576.51" y1="284.03" x2="576.51" y2="314.63" stroke="#0ecb81" stroke-width="1.4" /><rect x="573.51" y="291.01" width="6" height="2.00" rx="1.5" fill="#0ecb81" /><line x1="587.24" y1="289.83" x2="587.24" y2="312.40" stroke="#f6465d" stroke-width="1.4" /><rect x="584.24" y="290.87" width="6" height="16.04" rx="1.5" fill="#f6465d" /><line x1="597.97" y1="301.26" x2="597.97" y2="317.75" stroke="#0ecb81" stroke-width="1.4" /><rect x="594.97" y="305.27" width="6" height="2.00" rx="1.5" fill="#0ecb81" /><line x1="608.71" y1="285.22" x2="608.71" y2="312.25" stroke="#0ecb81" stroke-width="1.4" /><rect x="605.71" y="294.43" width="6" height="10.69" rx="1.5" fill="#0ecb81" /><line x1="619.44" y1="271.71" x2="619.44" y2="298.29" stroke="#0ecb81" stroke-width="1.4" /><rect x="616.44" y="277.65" width="6" height="16.78" rx="1.5" fill="#0ecb81" /><line x1="630.18" y1="268.14" x2="630.18" y2="288.04" stroke="#0ecb81" stroke-width="1.4" /><rect x="627.18" y="275.72" width="6" height="2.00" rx="1.5" fill="#0ecb81" /><line x1="640.91" y1="275.72" x2="640.91" y2="305.27" stroke="#f6465d" stroke-width="1.4" /><rect x="637.91" y="275.72" width="6" height="28.66" rx="1.5" fill="#f6465d" /><line x1="651.65" y1="302.60" x2="651.65" y2="311.06" stroke="#f6465d" stroke-width="1.4" /><rect x="648.65" y="304.38" width="6" height="2.23" rx="1.5" fill="#f6465d" /><line x1="662.38" y1="304.38" x2="662.38" y2="329.48" stroke="#f6465d" stroke-width="1.4" /><rect x="659.38" y="306.76" width="6" height="12.92" rx="1.5" fill="#f6465d" /><line x1="673.11" y1="304.38" x2="673.11" y2="321.46" stroke="#0ecb81" stroke-width="1.4" /><rect x="670.11" y="307.05" width="6" height="12.47" rx="1.5" fill="#0ecb81" /><line x1="683.85" y1="305.42" x2="683.85" y2="323.83" stroke="#f6465d" stroke-width="1.4" /><rect x="680.85" y="306.90" width="6" height="13.51" rx="1.5" fill="#f6465d" /><line x1="694.58" y1="310.91" x2="694.58" y2="323.83" stroke="#0ecb81" stroke-width="1.4" /><rect x="691.58" y="315.07" width="6" height="5.49" rx="1.5" fill="#0ecb81" /><line x1="705.32" y1="312.99" x2="705.32" y2="327.70" stroke="#f6465d" stroke-width="1.4" /><rect x="702.32" y="314.92" width="6" height="7.28" rx="1.5" fill="#f6465d" /><line x1="716.05" y1="314.92" x2="716.05" y2="328.88" stroke="#f6465d" stroke-width="1.4" /><rect x="713.05" y="322.20" width="6" height="3.42" rx="1.5" fill="#f6465d" /><line x1="726.78" y1="323.09" x2="726.78" y2="343.29" stroke="#f6465d" stroke-width="1.4" /><rect x="723.78" y="325.47" width="6" height="10.84" rx="1.5" fill="#f6465d" /><line x1="737.52" y1="308.84" x2="737.52" y2="345.81" stroke="#0ecb81" stroke-width="1.4" /><rect x="734.52" y="311.81" width="6" height="24.50" rx="1.5" fill="#0ecb81" /><line x1="748.25" y1="295.62" x2="748.25" y2="316.26" stroke="#f6465d" stroke-width="1.4" /><rect x="745.25" y="311.95" width="6" height="2.00" rx="1.5" fill="#f6465d" /><line x1="758.99" y1="305.12" x2="758.99" y2="320.57" stroke="#0ecb81" stroke-width="1.4" /><rect x="755.99" y="308.98" width="6" height="4.01" rx="1.5" fill="#0ecb81" /><line x1="769.72" y1="299.48" x2="769.72" y2="338.24" stroke="#f6465d" stroke-width="1.4" /><rect x="766.72" y="308.84" width="6" height="29.11" rx="1.5" fill="#f6465d" /><line x1="780.46" y1="334.38" x2="780.46" y2="356.21" stroke="#f6465d" stroke-width="1.4" /><rect x="777.46" y="337.94" width="6" height="2.00" rx="1.5" fill="#f6465d" /><line x1="791.19" y1="267.85" x2="791.19" y2="338.09" stroke="#0ecb81" stroke-width="1.4" /><rect x="788.19" y="273.49" width="6" height="64.60" rx="1.5" fill="#0ecb81" /><line x1="801.92" y1="259.68" x2="801.92" y2="311.06" stroke="#f6465d" stroke-width="1.4" /><rect x="798.92" y="273.49" width="6" height="31.93" rx="1.5" fill="#f6465d" /><line x1="812.66" y1="302.75" x2="812.66" y2="321.76" stroke="#f6465d" stroke-width="1.4" /><rect x="809.66" y="305.42" width="6" height="2.82" rx="1.5" fill="#f6465d" /><line x1="823.39" y1="284.33" x2="823.39" y2="314.18" stroke="#0ecb81" stroke-width="1.4" /><rect x="820.39" y="290.72" width="6" height="17.52" rx="1.5" fill="#0ecb81" /><line x1="834.13" y1="266.96" x2="834.13" y2="299.78" stroke="#f6465d" stroke-width="1.4" /><rect x="831.13" y="290.72" width="6" height="8.32" rx="1.5" fill="#f6465d" /><line x1="844.86" y1="276.16" x2="844.86" y2="308.09" stroke="#0ecb81" stroke-width="1.4" /><rect x="841.86" y="296.66" width="6" height="2.23" rx="1.5" fill="#0ecb81" /><line x1="855.59" y1="255.97" x2="855.59" y2="299.33" stroke="#0ecb81" stroke-width="1.4" /><rect x="852.59" y="258.04" width="6" height="38.76" rx="1.5" fill="#0ecb81" /><line x1="866.33" y1="256.71" x2="866.33" y2="274.08" stroke="#f6465d" stroke-width="1.4" /><rect x="863.33" y="257.90" width="6" height="12.03" rx="1.5" fill="#f6465d" /><line x1="877.06" y1="239.33" x2="877.06" y2="269.93" stroke="#0ecb81" stroke-width="1.4" /><rect x="874.06" y="249.28" width="6" height="20.49" rx="1.5" fill="#0ecb81" /><line x1="887.80" y1="210.67" x2="887.80" y2="252.25" stroke="#0ecb81" stroke-width="1.4" /><rect x="884.80" y="214.23" width="6" height="35.05" rx="1.5" fill="#0ecb81" /><line x1="898.53" y1="155.87" x2="898.53" y2="219.58" stroke="#0ecb81" stroke-width="1.4" /><rect x="895.53" y="190.03" width="6" height="24.36" rx="1.5" fill="#0ecb81" /><line x1="909.27" y1="147.55" x2="909.27" y2="199.68" stroke="#0ecb81" stroke-width="1.4" /><rect x="906.27" y="179.63" width="6" height="10.40" rx="1.5" fill="#0ecb81" /><line x1="920.00" y1="168.49" x2="920.00" y2="195.97" stroke="#f6465d" stroke-width="1.4" /><rect x="917.00" y="179.63" width="6" height="4.75" rx="1.5" fill="#f6465d" />
  <polyline points="447.70,259.83 458.43,186.02 522.84,281.66 533.57,207.55 597.97,317.75" fill="none" stroke="#2fc273" stroke-width="4" stroke-linecap="round" stroke-linejoin="round" />
  <circle cx="447.70" cy="259.83" r="5.5" fill="#2fc273" fill-opacity="0.15" stroke="#2fc273" stroke-width="2" /><text x="447.70" y="247.83" fill="#f3f4f6" font-size="15" font-weight="700" text-anchor="middle">X</text><circle cx="458.43" cy="186.02" r="5.5" fill="#2fc273" fill-opacity="0.15" stroke="#2fc273" stroke-width="2" /><text x="458.43" y="174.02" fill="#f3f4f6" font-size="15" font-weight="700" text-anchor="middle">A</text><circle cx="522.84" cy="281.66" r="5.5" fill="#2fc273" fill-opacity="0.15" stroke="#2fc273" stroke-width="2" /><text x="522.84" y="269.66" fill="#f3f4f6" font-size="15" font-weight="700" text-anchor="middle">B</text><circle cx="533.57" cy="207.55" r="5.5" fill="#2fc273" fill-opacity="0.15" stroke="#2fc273" stroke-width="2" /><text x="533.57" y="195.55" fill="#f3f4f6" font-size="15" font-weight="700" text-anchor="middle">C</text><circle cx="597.97" cy="317.75" r="5.5" fill="#2fc273" fill-opacity="0.15" stroke="#2fc273" stroke-width="2" /><text x="597.97" y="305.75" fill="#f3f4f6" font-size="15" font-weight="700" text-anchor="middle">D</text>
  <text x="56" y="492" fill="#8ba0b5" font-size="18">Complete · TP1 0.092434 · TP2 0.094186 · SL 0.088954</text>
</svg>
