<svg xmlns="http://www.w3.org/2000/svg" width="960" height="540" viewBox="0 0 960 540">
  <rect width="960" height="540" rx="24" fill="#0b1220" />
  <rect x="28" y="28" width="904" height="484" rx="22" fill="#111827" stroke="#1f2937" />
  <text x="56" y="74" fill="#f3f4f6" font-size="34" font-weight="700">ZECUSDT · AB=CD</text>
  <text x="904" y="74" fill="#8ba0b5" font-size="20" text-anchor="end">Bullish (매수) · Score 81.7</text>
  <line x1="72" y1="58" x2="920" y2="58" stroke="#223045" stroke-width="1" stroke-dasharray="4 8" /><line x1="72" y1="156" x2="920" y2="156" stroke="#223045" stroke-width="1" stroke-dasharray="4 8" /><line x1="72" y1="255" x2="920" y2="255" stroke="#223045" stroke-width="1" stroke-dasharray="4 8" /><line x1="72" y1="353" x2="920" y2="353" stroke="#223045" stroke-width="1" stroke-dasharray="4 8" /><line x1="72" y1="452" x2="920" y2="452" stroke="#223045" stroke-width="1" stroke-dasharray="4 8" />
  <rect x="763.19" y="462.76" width="84" height="20.30" fill="#fbbf24" fill-opacity="0.12" stroke="#fbbf24" stroke-width="1.5" stroke-dasharray="6 6" />
  <line x1="72.00" y1="366.03" x2="72.00" y2="392.33" stroke="#0ecb81" stroke-width="1.4" /><rect x="69.00" y="377.75" width="6" height="10.76" rx="1.5" fill="#0ecb81" /><line x1="82.73" y1="357.04" x2="82.73" y2="383.74" stroke="#0ecb81" stroke-width="1.4" /><rect x="79.73" y="371.07" width="6" height="6.68" rx="1.5" fill="#0ecb81" /><line x1="93.47" y1="368.76" x2="93.47" y2="413.17" stroke="#f6465d" stroke-width="1.4" /><rect x="90.47" y="370.94" width="6" height="28.34" rx="1.5" fill="#f6465d" /><line x1="104.20" y1="370.12" x2="104.20" y2="405.41" stroke="#0ecb81" stroke-width="1.4" /><rect x="101.20" y="385.24" width="6" height="13.90" rx="1.5" fill="#0ecb81" /><line x1="114.94" y1="359.63" x2="114.94" y2="390.42" stroke="#0ecb81" stroke-width="1.4" /><rect x="111.94" y="384.97" width="6" height="2.00" rx="1.5" fill="#0ecb81" /><line x1="125.67" y1="352.96" x2="125.67" y2="390.28" stroke="#0ecb81" stroke-width="1.4" /><rect x="122.67" y="377.75" width="6" height="7.08" rx="1.5" fill="#0ecb81" /><line x1="136.41" y1="365.08" x2="136.41" y2="396.28" stroke="#f6465d" stroke-width="1.4" /><rect x="133.41" y="377.89" width="6" height="6.40" rx="1.5" fill="#f6465d" /><line x1="147.14" y1="363.31" x2="147.14" y2="392.19" stroke="#0ecb81" stroke-width="1.4" /><rect x="144.14" y="368.35" width="6" height="16.08" rx="1.5" fill="#0ecb81" /><line x1="157.87" y1="360.18" x2="157.87" y2="378.43" stroke="#0ecb81" stroke-width="1.4" /><rect x="154.87" y="366.85" width="6" height="2.00" rx="1.5" fill="#0ecb81" /><line x1="168.61" y1="345.46" x2="168.61" y2="421.48" stroke="#f6465d" stroke-width="1.4" /><rect x="165.61" y="366.85" width="6" height="51.63" rx="1.5" fill="#f6465d" /><line x1="179.34" y1="400.37" x2="179.34" y2="434.56" stroke="#0ecb81" stroke-width="1.4" /><rect x="176.34" y="404.59" width="6" height="13.76" rx="1.5" fill="#0ecb81" /><line x1="190.08" y1="378.84" x2="190.08" y2="409.36" stroke="#0ecb81" stroke-width="1.4" /><rect x="187.08" y="386.33" width="6" height="18.12" rx="1.5" fill="#0ecb81" /><line x1="200.81" y1="380.20" x2="200.81" y2="425.16" stroke="#f6465d" stroke-width="1.4" /><rect x="197.81" y="386.33" width="6" height="27.11" rx="1.5" fill="#f6465d" /><line x1="211.54" y1="400.77" x2="211.54" y2="421.89" stroke="#0ecb81" stroke-width="1.4" /><rect x="208.54" y="405.41" width="6" height="7.90" rx="1.5" fill="#0ecb81" /><line x1="222.28" y1="401.59" x2="222.28" y2="431.84" stroke="#f6465d" stroke-width="1.4" /><rect x="219.28" y="405.54" width="6" height="11.17" rx="1.5" fill="#f6465d" /><line x1="233.01" y1="409.22" x2="233.01" y2="434.43" stroke="#f6465d" stroke-width="1.4" /><rect x="230.01" y="416.71" width="6" height="12.13" rx="1.5" fill="#f6465d" /><line x1="243.75" y1="402.82" x2="243.75" y2="431.70" stroke="#0ecb81" stroke-width="1.4" /><rect x="240.75" y="418.76" width="6" height="10.08" rx="1.5" fill="#0ecb81" /><line x1="254.48" y1="397.64" x2="254.48" y2="423.80" stroke="#0ecb81" stroke-width="1.4" /><rect x="251.48" y="401.05" width="6" height="17.71" rx="1.5" fill="#0ecb81" /><line x1="265.22" y1="388.65" x2="265.22" y2="403.91" stroke="#0ecb81" stroke-width="1.4" /><rect x="262.22" y="401.05" width="6" height="2.00" rx="1.5" fill="#0ecb81" /><line x1="275.95" y1="400.91" x2="275.95" y2="446.28" stroke="#f6465d" stroke-width="1.4" /><rect x="272.95" y="401.18" width="6" height="34.74" rx="1.5" fill="#f6465d" /><line x1="286.68" y1="420.80" x2="286.68" y2="452.00" stroke="#0ecb81" stroke-width="1.4" /><rect x="283.68" y="421.07" width="6" height="14.71" rx="1.5" fill="#0ecb81" /><line x1="297.42" y1="401.73" x2="297.42" y2="432.25" stroke="#0ecb81" stroke-width="1.4" /><rect x="294.42" y="407.04" width="6" height="14.03" rx="1.5" fill="#0ecb81" /><line x1="308.15" y1="397.64" x2="308.15" y2="421.76" stroke="#f6465d" stroke-width="1.4" /><rect x="305.15" y="407.18" width="6" height="4.09" rx="1.5" fill="#f6465d" /><line x1="318.89" y1="392.19" x2="318.89" y2="414.26" stroke="#0ecb81" stroke-width="1.4" /><rect x="315.89" y="402.82" width="6" height="8.58" rx="1.5" fill="#0ecb81" /><line x1="329.62" y1="390.56" x2="329.62" y2="409.49" stroke="#f6465d" stroke-width="1.4" /><rect x="326.62" y="402.68" width="6" height="2.00" rx="1.5" fill="#f6465d" /><line x1="340.35" y1="381.57" x2="340.35" y2="413.04" stroke="#0ecb81" stroke-width="1.4" /><rect x="337.35" y="396.41" width="6" height="6.81" rx="1.5" fill="#0ecb81" /><line x1="351.09" y1="392.33" x2="351.09" y2="408.68" stroke="#f6465d" stroke-width="1.4" /><rect x="348.09" y="396.41" width="6" height="3.41" rx="1.5" fill="#f6465d" /><line x1="361.82" y1="382.79" x2="361.82" y2="416.17" stroke="#0ecb81" stroke-width="1.4" /><rect x="358.82" y="383.74" width="6" height="16.21" rx="1.5" fill="#0ecb81" /><line x1="372.56" y1="370.12" x2="372.56" y2="390.28" stroke="#0ecb81" stroke-width="1.4" /><rect x="369.56" y="380.48" width="6" height="3.27" rx="1.5" fill="#0ecb81" /><line x1="383.29" y1="372.71" x2="383.29" y2="387.83" stroke="#0ecb81" stroke-width="1.4" /><rect x="380.29" y="379.66" width="6" height="2.00" rx="1.5" fill="#0ecb81" /><line x1="394.03" y1="351.05" x2="394.03" y2="385.92" stroke="#0ecb81" stroke-width="1.4" /><rect x="391.03" y="355.27" width="6" height="24.25" rx="1.5" fill="#0ecb81" /><line x1="404.76" y1="276.39" x2="404.76" y2="355.41" stroke="#0ecb81" stroke-width="1.4" /><rect x="401.76" y="287.15" width="6" height="68.12" rx="1.5" fill="#0ecb81" /><line x1="415.49" y1="226.66" x2="415.49" y2="299.41" stroke="#0ecb81" stroke-width="1.4" /><rect x="412.49" y="275.71" width="6" height="11.58" rx="1.5" fill="#0ecb81" /><line x1="426.23" y1="270.67" x2="426.23" y2="306.36" stroke="#f6465d" stroke-width="1.4" /><rect x="423.23" y="275.71" width="6" height="10.08" rx="1.5" fill="#f6465d" /><line x1="436.96" y1="202.82" x2="436.96" y2="288.24" stroke="#0ecb81" stroke-width="1.4" /><rect x="433.96" y="234.84" width="6" height="50.95" rx="1.5" fill="#0ecb81" /><line x1="447.70" y1="223.67" x2="447.70" y2="272.17" stroke="#f6465d" stroke-width="1.4" /><rect x="444.70" y="234.70" width="6" height="2.00" rx="1.5" fill="#f6465d" /><line x1="458.43" y1="195.74" x2="458.43" y2="245.33" stroke="#0ecb81" stroke-width="1.4" /><rect x="455.43" y="219.17" width="6" height="15.94" rx="1.5" fill="#0ecb81" /><line x1="469.16" y1="208.41" x2="469.16" y2="257.72" stroke="#f6465d" stroke-width="1.4" /><rect x="466.16" y="219.17" width="6" height="30.79" rx="1.5" fill="#f6465d" /><line x1="479.90" y1="168.90" x2="479.90" y2="256.63" stroke="#0ecb81" stroke-width="1.4" /><rect x="476.90" y="176.66" width="6" height="73.30" rx="1.5" fill="#0ecb81" /><line x1="490.63" y1="154.46" x2="490.63" y2="199.01" stroke="#f6465d" stroke-width="1.4" /><rect x="487.63" y="176.53" width="6" height="13.08" rx="1.5" fill="#f6465d" /><line x1="501.37" y1="165.08" x2="501.37" y2="216.58" stroke="#f6465d" stroke-width="1.4" /><rect x="498.37" y="189.74" width="6" height="4.22" rx="1.5" fill="#f6465d" /><line x1="512.10" y1="173.53" x2="512.10" y2="200.78" stroke="#0ecb81" stroke-width="1.4" /><rect x="509.10" y="186.34" width="6" height="7.63" rx="1.5" fill="#0ecb81" /><line x1="522.84" y1="166.58" x2="522.84" y2="194.92" stroke="#f6465d" stroke-width="1.4" /><rect x="519.84" y="186.47" width="6" height="6.68" rx="1.5" fill="#f6465d" /><line x1="533.57" y1="173.67" x2="533.57" y2="200.23" stroke="#0ecb81" stroke-width="1.4" /><rect x="530.57" y="185.93" width="6" height="7.22" rx="1.5" fill="#0ecb81" /><line x1="544.30" y1="185.52" x2="544.30" y2="212.90" stroke="#f6465d" stroke-width="1.4" /><rect x="541.30" y="186.06" width="6" height="5.72" rx="1.5" fill="#f6465d" /><line x1="555.04" y1="187.43" x2="555.04" y2="232.25" stroke="#f6465d" stroke-width="1.4" /><rect x="552.04" y="191.79" width="6" height="27.79" rx="1.5" fill="#f6465d" /><line x1="565.77" y1="218.62" x2="565.77" y2="255.41" stroke="#f6465d" stroke-width="1.4" /><rect x="562.77" y="219.44" width="6" height="27.11" rx="1.5" fill="#f6465d" /><line x1="576.51" y1="240.42" x2="576.51" y2="264.26" stroke="#0ecb81" stroke-width="1.4" /><rect x="573.51" y="245.60" width="6" height="2.00" rx="1.5" fill="#0ecb81" /><line x1="587.24" y1="237.43" x2="587.24" y2="255.54" stroke="#f6465d" stroke-width="1.4" /><rect x="584.24" y="245.60" width="6" height="9.40" rx="1.5" fill="#f6465d" /><line x1="597.97" y1="229.66" x2="597.97" y2="257.45" stroke="#0ecb81" stroke-width="1.4" /><rect x="594.97" y="237.97" width="6" height="17.17" rx="1.5" fill="#0ecb81" /><line x1="608.71" y1="234.16" x2="608.71" y2="285.11" stroke="#f6465d" stroke-width="1.4" /><rect x="605.71" y="237.97" width="6" height="43.05" rx="1.5" fill="#f6465d" /><line x1="619.44" y1="252.14" x2="619.44" y2="303.23" stroke="#0ecb81" stroke-width="1.4" /><rect x="616.44" y="274.75" width="6" height="5.99" rx="1.5" fill="#0ecb81" /><line x1="630.18" y1="262.08" x2="630.18" y2="287.56" stroke="#f6465d" stroke-width="1.4" /><rect x="627.18" y="274.75" width="6" height="10.63" rx="1.5" fill="#f6465d" /><line x1="640.91" y1="268.08" x2="640.91" y2="288.38" stroke="#0ecb81" stroke-width="1.4" /><rect x="637.91" y="271.76" width="6" height="13.76" rx="1.5" fill="#0ecb81" /><line x1="651.65" y1="210.72" x2="651.65" y2="273.66" stroke="#0ecb81" stroke-width="1.4" /><rect x="648.65" y="229.93" width="6" height="41.83" rx="1.5" fill="#0ecb81" /><line x1="662.38" y1="218.35" x2="662.38" y2="286.20" stroke="#f6465d" stroke-width="1.4" /><rect x="659.38" y="230.07" width="6" height="49.59" rx="1.5" fill="#f6465d" /><line x1="673.11" y1="276.66" x2="673.11" y2="299.55" stroke="#f6465d" stroke-width="1.4" /><rect x="670.11" y="279.80" width="6" height="14.85" rx="1.5" fill="#f6465d" /><line x1="683.85" y1="293.15" x2="683.85" y2="371.21" stroke="#f6465d" stroke-width="1.4" /><rect x="680.85" y="294.65" width="6" height="49.05" rx="1.5" fill="#f6465d" /><line x1="694.58" y1="343.42" x2="694.58" y2="389.06" stroke="#f6465d" stroke-width="1.4" /><rect x="691.58" y="343.69" width="6" height="11.99" rx="1.5" fill="#f6465d" /><line x1="705.32" y1="340.69" x2="705.32" y2="373.12" stroke="#0ecb81" stroke-width="1.4" /><rect x="702.32" y="355.54" width="6" height="2.00" rx="1.5" fill="#0ecb81" /><line x1="716.05" y1="304.86" x2="716.05" y2="369.44" stroke="#0ecb81" stroke-width="1.4" /><rect x="713.05" y="324.75" width="6" height="30.79" rx="1.5" fill="#0ecb81" /><line x1="726.78" y1="304.73" x2="726.78" y2="357.72" stroke="#f6465d" stroke-width="1.4" /><rect x="723.78" y="324.75" width="6" height="23.98" rx="1.5" fill="#f6465d" /><line x1="737.52" y1="330.75" x2="737.52" y2="354.86" stroke="#0ecb81" stroke-width="1.4" /><rect x="734.52" y="338.24" width="6" height="10.35" rx="1.5" fill="#0ecb81" /><line x1="748.25" y1="312.49" x2="748.25" y2="349.69" stroke="#0ecb81" stroke-width="1.4" /><rect x="745.25" y="322.71" width="6" height="15.67" rx="1.5" fill="#0ecb81" /><line x1="758.99" y1="319.44" x2="758.99" y2="346.42" stroke="#f6465d" stroke-width="1.4" /><rect x="755.99" y="322.57" width="6" height="12.67" rx="1.5" fill="#f6465d" /><line x1="769.72" y1="321.89" x2="769.72" y2="349.69" stroke="#0ecb81" stroke-width="1.4" /><rect x="766.72" y="326.66" width="6" height="8.58" rx="1.5" fill="#0ecb81" /><line x1="780.46" y1="323.94" x2="780.46" y2="367.26" stroke="#f6465d" stroke-width="1.4" /><rect x="777.46" y="326.66" width="6" height="36.38" rx="1.5" fill="#f6465d" /><line x1="791.19" y1="310.59" x2="791.19" y2="379.66" stroke="#0ecb81" stroke-width="1.4" /><rect x="788.19" y="314.94" width="6" height="47.96" rx="1.5" fill="#0ecb81" /><line x1="801.92" y1="271.48" x2="801.92" y2="318.90" stroke="#0ecb81" stroke-width="1.4" /><rect x="798.92" y="276.12" width="6" height="38.69" rx="1.5" fill="#0ecb81" /><line x1="812.66" y1="217.13" x2="812.66" y2="276.66" stroke="#0ecb81" stroke-width="1.4" /><rect x="809.66" y="236.34" width="6" height="39.65" rx="1.5" fill="#0ecb81" /><line x1="823.39" y1="209.36" x2="823.39" y2="251.59" stroke="#0ecb81" stroke-width="1.4" /><rect x="820.39" y="235.93" width="6" height="2.00" rx="1.5" fill="#0ecb81" /><line x1="834.13" y1="135.66" x2="834.13" y2="240.56" stroke="#0ecb81" stroke-width="1.4" /><rect x="831.13" y="145.19" width="6" height="90.60" rx="1.5" fill="#0ecb81" /><line x1="844.86" y1="74.76" x2="844.86" y2="158.68" stroke="#0ecb81" stroke-width="1.4" /><rect x="841.86" y="128.30" width="6" height="17.03" rx="1.5" fill="#0ecb81" /><line x1="855.59" y1="116.72" x2="855.59" y2="170.94" stroke="#f6465d" stroke-width="1.4" /><rect x="852.59" y="128.30" width="6" height="29.43" rx="1.5" fill="#f6465d" /><line x1="866.33" y1="126.80" x2="866.33" y2="167.40" stroke="#0ecb81" stroke-width="1.4" /><rect x="863.33" y="128.98" width="6" height="28.75" rx="1.5" fill="#0ecb81" /><line x1="877.06" y1="129.12" x2="877.06" y2="190.56" stroke="#f6465d" stroke-width="1.4" /><rect x="874.06" y="129.12" width="6" height="45.78" rx="1.5" fill="#f6465d" /><line x1="887.80" y1="163.86" x2="887.80" y2="205.41" stroke="#0ecb81" stroke-width="1.4" /><rect x="884.80" y="167.13" width="6" height="7.77" rx="1.5" fill="#0ecb81" /><line x1="898.53" y1="143.56" x2="898.53" y2="182.11" stroke="#0ecb81" stroke-width="1.4" /><rect x="895.53" y="154.18" width="6" height="12.94" rx="1.5" fill="#0ecb81" /><line x1="909.27" y1="88.65" x2="909.27" y2="157.59" stroke="#0ecb81" stroke-width="1.4" /><rect x="906.27" y="112.22" width="6" height="41.83" rx="1.5" fill="#0ecb81" /><line x1="920.00" y1="58.00" x2="920.00" y2="134.43" stroke="#f6465d" stroke-width="1.4" /><rect x="917.00" y="112.09" width="6" height="17.71" rx="1.5" fill="#f6465d" />
  <polyline points="619.44,303.23 651.65,210.72 694.58,389.06 726.78,304.73 791.19,379.66" fill="none" stroke="#2fc273" stroke-width="4" stroke-linecap="round" stroke-linejoin="round" />
  <circle cx="619.44" cy="303.23" r="5.5" fill="#2fc273" fill-opacity="0.15" stroke="#2fc273" stroke-width="2" /><text x="619.44" y="291.23" fill="#f3f4f6" font-size="15" font-weight="700" text-anchor="middle">X</text><circle cx="651.65" cy="210.72" r="5.5" fill="#2fc273" fill-opacity="0.15" stroke="#2fc273" stroke-width="2" /><text x="651.65" y="198.72" fill="#f3f4f6" font-size="15" font-weight="700" text-anchor="middle">A</text><circle cx="694.58" cy="389.06" r="5.5" fill="#2fc273" fill-opacity="0.15" stroke="#2fc273" stroke-width="2" /><text x="694.58" y="377.06" fill="#f3f4f6" font-size="15" font-weight="700" text-anchor="middle">B</text><circle cx="726.78" cy="304.73" r="5.5" fill="#2fc273" fill-opacity="0.15" stroke="#2fc273" stroke-width="2" /><text x="726.78" y="292.73" fill="#f3f4f6" font-size="15" font-weight="700" text-anchor="middle">C</text><circle cx="791.19" cy="379.66" r="5.5" fill="#2fc273" fill-opacity="0.15" stroke="#2fc273" stroke-width="2" /><text x="791.19" y="367.66" fill="#f3f4f6" font-size="15" font-weight="700" text-anchor="middle">D</text>
  <text x="56" y="492" fill="#8ba0b5" font-size="18">일반 완성 · TP1 239.401 · TP2 240.699 · SL 236.417</text>
</svg>
