<svg xmlns="http://www.w3.org/2000/svg" width="960" height="540" viewBox="0 0 960 540">
  <rect width="960" height="540" rx="24" fill="#0b1220" />
  <rect x="28" y="28" width="904" height="484" rx="22" fill="#111827" stroke="#1f2937" />
  <text x="56" y="74" fill="#f3f4f6" font-size="34" font-weight="700">ZECUSDT · AB=CD</text>
  <text x="904" y="74" fill="#8ba0b5" font-size="20" text-anchor="end">Bullish (매수) · Score 85.6</text>
  <line x1="72" y1="58" x2="920" y2="58" stroke="#223045" stroke-width="1" stroke-dasharray="4 8" /><line x1="72" y1="156" x2="920" y2="156" stroke="#223045" stroke-width="1" stroke-dasharray="4 8" /><line x1="72" y1="255" x2="920" y2="255" stroke="#223045" stroke-width="1" stroke-dasharray="4 8" /><line x1="72" y1="353" x2="920" y2="353" stroke="#223045" stroke-width="1" stroke-dasharray="4 8" /><line x1="72" y1="452" x2="920" y2="452" stroke="#223045" stroke-width="1" stroke-dasharray="4 8" />
  <rect x="333.82" y="469.10" width="84" height="16.38" fill="#fbbf24" fill-opacity="0.12" stroke="#fbbf24" stroke-width="1.5" stroke-dasharray="6 6" />
  <line x1="72.00" y1="255.64" x2="72.00" y2="331.77" stroke="#0ecb81" stroke-width="1.4" /><rect x="69.00" y="307.43" width="6" height="7.40" rx="1.5" fill="#0ecb81" /><line x1="82.73" y1="298.75" x2="82.73" y2="354.96" stroke="#f6465d" stroke-width="1.4" /><rect x="79.73" y="307.43" width="6" height="11.67" rx="1.5" fill="#f6465d" /><line x1="93.47" y1="299.47" x2="93.47" y2="335.75" stroke="#f6465d" stroke-width="1.4" /><rect x="90.47" y="319.10" width="6" height="12.38" rx="1.5" fill="#f6465d" /><line x1="104.20" y1="302.45" x2="104.20" y2="342.72" stroke="#0ecb81" stroke-width="1.4" /><rect x="101.20" y="328.92" width="6" height="2.56" rx="1.5" fill="#0ecb81" /><line x1="114.94" y1="319.81" x2="114.94" y2="373.31" stroke="#f6465d" stroke-width="1.4" /><rect x="111.94" y="328.78" width="6" height="33.58" rx="1.5" fill="#f6465d" /><line x1="125.67" y1="345.99" x2="125.67" y2="391.10" stroke="#f6465d" stroke-width="1.4" /><rect x="122.67" y="362.50" width="6" height="21.06" rx="1.5" fill="#f6465d" /><line x1="136.41" y1="351.12" x2="136.41" y2="400.63" stroke="#f6465d" stroke-width="1.4" /><rect x="133.41" y="383.56" width="6" height="2.00" rx="1.5" fill="#f6465d" /><line x1="147.14" y1="362.22" x2="147.14" y2="389.68" stroke="#0ecb81" stroke-width="1.4" /><rect x="144.14" y="374.45" width="6" height="11.24" rx="1.5" fill="#0ecb81" /><line x1="157.87" y1="352.82" x2="157.87" y2="380.71" stroke="#0ecb81" stroke-width="1.4" /><rect x="154.87" y="367.48" width="6" height="6.97" rx="1.5" fill="#0ecb81" /><line x1="168.61" y1="365.06" x2="168.61" y2="411.45" stroke="#f6465d" stroke-width="1.4" /><rect x="165.61" y="367.34" width="6" height="29.60" rx="1.5" fill="#f6465d" /><line x1="179.34" y1="366.48" x2="179.34" y2="403.34" stroke="#0ecb81" stroke-width="1.4" /><rect x="176.34" y="382.28" width="6" height="14.51" rx="1.5" fill="#0ecb81" /><line x1="190.08" y1="355.53" x2="190.08" y2="387.69" stroke="#0ecb81" stroke-width="1.4" /><rect x="187.08" y="381.99" width="6" height="2.00" rx="1.5" fill="#0ecb81" /><line x1="200.81" y1="348.56" x2="200.81" y2="387.54" stroke="#0ecb81" stroke-width="1.4" /><rect x="197.81" y="374.45" width="6" height="7.40" rx="1.5" fill="#0ecb81" /><line x1="211.54" y1="361.22" x2="211.54" y2="393.80" stroke="#f6465d" stroke-width="1.4" /><rect x="208.54" y="374.59" width="6" height="6.69" rx="1.5" fill="#f6465d" /><line x1="222.28" y1="359.37" x2="222.28" y2="389.53" stroke="#0ecb81" stroke-width="1.4" /><rect x="219.28" y="364.63" width="6" height="16.79" rx="1.5" fill="#0ecb81" /><line x1="233.01" y1="356.10" x2="233.01" y2="375.16" stroke="#0ecb81" stroke-width="1.4" /><rect x="230.01" y="363.07" width="6" height="2.00" rx="1.5" fill="#0ecb81" /><line x1="243.75" y1="340.73" x2="243.75" y2="420.13" stroke="#f6465d" stroke-width="1.4" /><rect x="240.75" y="363.07" width="6" height="53.93" rx="1.5" fill="#f6465d" /><line x1="254.48" y1="398.07" x2="254.48" y2="433.79" stroke="#0ecb81" stroke-width="1.4" /><rect x="251.48" y="402.48" width="6" height="14.37" rx="1.5" fill="#0ecb81" /><line x1="265.22" y1="375.59" x2="265.22" y2="407.46" stroke="#0ecb81" stroke-width="1.4" /><rect x="262.22" y="383.42" width="6" height="18.92" rx="1.5" fill="#0ecb81" /><line x1="275.95" y1="377.01" x2="275.95" y2="423.97" stroke="#f6465d" stroke-width="1.4" /><rect x="272.95" y="383.42" width="6" height="28.32" rx="1.5" fill="#f6465d" /><line x1="286.68" y1="398.50" x2="286.68" y2="420.55" stroke="#0ecb81" stroke-width="1.4" /><rect x="283.68" y="403.34" width="6" height="8.25" rx="1.5" fill="#0ecb81" /><line x1="297.42" y1="399.35" x2="297.42" y2="430.94" stroke="#f6465d" stroke-width="1.4" /><rect x="294.42" y="403.48" width="6" height="11.67" rx="1.5" fill="#f6465d" /><line x1="308.15" y1="407.32" x2="308.15" y2="433.64" stroke="#f6465d" stroke-width="1.4" /><rect x="305.15" y="415.15" width="6" height="12.66" rx="1.5" fill="#f6465d" /><line x1="318.89" y1="400.63" x2="318.89" y2="430.80" stroke="#0ecb81" stroke-width="1.4" /><rect x="315.89" y="417.28" width="6" height="10.53" rx="1.5" fill="#0ecb81" /><line x1="329.62" y1="395.23" x2="329.62" y2="422.55" stroke="#0ecb81" stroke-width="1.4" /><rect x="326.62" y="398.78" width="6" height="18.50" rx="1.5" fill="#0ecb81" /><line x1="340.35" y1="385.84" x2="340.35" y2="401.77" stroke="#0ecb81" stroke-width="1.4" /><rect x="337.35" y="398.78" width="6" height="2.00" rx="1.5" fill="#0ecb81" /><line x1="351.09" y1="398.64" x2="351.09" y2="446.02" stroke="#f6465d" stroke-width="1.4" /><rect x="348.09" y="398.93" width="6" height="36.28" rx="1.5" fill="#f6465d" /><line x1="361.82" y1="419.42" x2="361.82" y2="452.00" stroke="#0ecb81" stroke-width="1.4" /><rect x="358.82" y="419.70" width="6" height="15.37" rx="1.5" fill="#0ecb81" /><line x1="372.56" y1="399.50" x2="372.56" y2="431.37" stroke="#0ecb81" stroke-width="1.4" /><rect x="369.56" y="405.04" width="6" height="14.66" rx="1.5" fill="#0ecb81" /><line x1="383.29" y1="395.23" x2="383.29" y2="420.41" stroke="#f6465d" stroke-width="1.4" /><rect x="380.29" y="405.19" width="6" height="4.27" rx="1.5" fill="#f6465d" /><line x1="394.03" y1="389.53" x2="394.03" y2="412.59" stroke="#0ecb81" stroke-width="1.4" /><rect x="391.03" y="400.63" width="6" height="8.96" rx="1.5" fill="#0ecb81" /><line x1="404.76" y1="387.83" x2="404.76" y2="407.61" stroke="#f6465d" stroke-width="1.4" /><rect x="401.76" y="400.49" width="6" height="2.00" rx="1.5" fill="#f6465d" /><line x1="415.49" y1="378.44" x2="415.49" y2="411.31" stroke="#0ecb81" stroke-width="1.4" /><rect x="412.49" y="393.95" width="6" height="7.11" rx="1.5" fill="#0ecb81" /><line x1="426.23" y1="389.68" x2="426.23" y2="406.75" stroke="#f6465d" stroke-width="1.4" /><rect x="423.23" y="393.95" width="6" height="3.56" rx="1.5" fill="#f6465d" /><line x1="436.96" y1="379.72" x2="436.96" y2="414.58" stroke="#0ecb81" stroke-width="1.4" /><rect x="433.96" y="380.71" width="6" height="16.93" rx="1.5" fill="#0ecb81" /><line x1="447.70" y1="366.48" x2="447.70" y2="387.54" stroke="#0ecb81" stroke-width="1.4" /><rect x="444.70" y="377.30" width="6" height="3.41" rx="1.5" fill="#0ecb81" /><line x1="458.43" y1="369.19" x2="458.43" y2="384.98" stroke="#0ecb81" stroke-width="1.4" /><rect x="455.43" y="376.44" width="6" height="2.00" rx="1.5" fill="#0ecb81" /><line x1="469.16" y1="346.56" x2="469.16" y2="382.99" stroke="#0ecb81" stroke-width="1.4" /><rect x="466.16" y="350.97" width="6" height="25.33" rx="1.5" fill="#0ecb81" /><line x1="479.90" y1="268.59" x2="479.90" y2="351.12" stroke="#0ecb81" stroke-width="1.4" /><rect x="476.90" y="279.83" width="6" height="71.14" rx="1.5" fill="#0ecb81" /><line x1="490.63" y1="216.65" x2="490.63" y2="292.64" stroke="#0ecb81" stroke-width="1.4" /><rect x="487.63" y="267.88" width="6" height="12.09" rx="1.5" fill="#0ecb81" /><line x1="501.37" y1="262.61" x2="501.37" y2="299.89" stroke="#f6465d" stroke-width="1.4" /><rect x="498.37" y="267.88" width="6" height="10.53" rx="1.5" fill="#f6465d" /><line x1="512.10" y1="191.75" x2="512.10" y2="280.97" stroke="#0ecb81" stroke-width="1.4" /><rect x="509.10" y="225.19" width="6" height="53.22" rx="1.5" fill="#0ecb81" /><line x1="522.84" y1="213.52" x2="522.84" y2="264.18" stroke="#f6465d" stroke-width="1.4" /><rect x="519.84" y="225.05" width="6" height="2.00" rx="1.5" fill="#f6465d" /><line x1="533.57" y1="184.35" x2="533.57" y2="236.15" stroke="#0ecb81" stroke-width="1.4" /><rect x="530.57" y="208.83" width="6" height="16.65" rx="1.5" fill="#0ecb81" /><line x1="544.30" y1="197.59" x2="544.30" y2="249.09" stroke="#f6465d" stroke-width="1.4" /><rect x="541.30" y="208.83" width="6" height="32.16" rx="1.5" fill="#f6465d" /><line x1="555.04" y1="156.32" x2="555.04" y2="247.96" stroke="#0ecb81" stroke-width="1.4" /><rect x="552.04" y="164.43" width="6" height="76.55" rx="1.5" fill="#0ecb81" /><line x1="565.77" y1="141.24" x2="565.77" y2="187.77" stroke="#f6465d" stroke-width="1.4" /><rect x="562.77" y="164.29" width="6" height="13.66" rx="1.5" fill="#f6465d" /><line x1="576.51" y1="152.34" x2="576.51" y2="206.12" stroke="#f6465d" stroke-width="1.4" /><rect x="573.51" y="178.09" width="6" height="4.41" rx="1.5" fill="#f6465d" /><line x1="587.24" y1="161.16" x2="587.24" y2="189.62" stroke="#0ecb81" stroke-width="1.4" /><rect x="584.24" y="174.54" width="6" height="7.97" rx="1.5" fill="#0ecb81" /><line x1="597.97" y1="153.90" x2="597.97" y2="183.50" stroke="#f6465d" stroke-width="1.4" /><rect x="594.97" y="174.68" width="6" height="6.97" rx="1.5" fill="#f6465d" /><line x1="608.71" y1="161.30" x2="608.71" y2="189.05" stroke="#0ecb81" stroke-width="1.4" /><rect x="605.71" y="174.11" width="6" height="7.54" rx="1.5" fill="#0ecb81" /><line x1="619.44" y1="173.68" x2="619.44" y2="202.28" stroke="#f6465d" stroke-width="1.4" /><rect x="616.44" y="174.25" width="6" height="5.98" rx="1.5" fill="#f6465d" /><line x1="630.18" y1="175.67" x2="630.18" y2="222.49" stroke="#f6465d" stroke-width="1.4" /><rect x="627.18" y="180.23" width="6" height="29.03" rx="1.5" fill="#f6465d" /><line x1="640.91" y1="208.26" x2="640.91" y2="246.68" stroke="#f6465d" stroke-width="1.4" /><rect x="637.91" y="209.11" width="6" height="28.32" rx="1.5" fill="#f6465d" /><line x1="651.65" y1="231.02" x2="651.65" y2="255.92" stroke="#0ecb81" stroke-width="1.4" /><rect x="648.65" y="236.43" width="6" height="2.00" rx="1.5" fill="#0ecb81" /><line x1="662.38" y1="227.89" x2="662.38" y2="246.82" stroke="#f6465d" stroke-width="1.4" /><rect x="659.38" y="236.43" width="6" height="9.82" rx="1.5" fill="#f6465d" /><line x1="673.11" y1="219.78" x2="673.11" y2="248.81" stroke="#0ecb81" stroke-width="1.4" /><rect x="670.11" y="228.46" width="6" height="17.93" rx="1.5" fill="#0ecb81" /><line x1="683.85" y1="224.48" x2="683.85" y2="277.70" stroke="#f6465d" stroke-width="1.4" /><rect x="680.85" y="228.46" width="6" height="44.96" rx="1.5" fill="#f6465d" /><line x1="694.58" y1="243.26" x2="694.58" y2="296.62" stroke="#0ecb81" stroke-width="1.4" /><rect x="691.58" y="266.88" width="6" height="6.26" rx="1.5" fill="#0ecb81" /><line x1="705.32" y1="253.65" x2="705.32" y2="280.26" stroke="#f6465d" stroke-width="1.4" /><rect x="702.32" y="266.88" width="6" height="11.10" rx="1.5" fill="#f6465d" /><line x1="716.05" y1="259.91" x2="716.05" y2="281.11" stroke="#0ecb81" stroke-width="1.4" /><rect x="713.05" y="263.75" width="6" height="14.37" rx="1.5" fill="#0ecb81" /><line x1="726.78" y1="200.01" x2="726.78" y2="265.74" stroke="#0ecb81" stroke-width="1.4" /><rect x="723.78" y="220.07" width="6" height="43.68" rx="1.5" fill="#0ecb81" /><line x1="737.52" y1="207.97" x2="737.52" y2="278.83" stroke="#f6465d" stroke-width="1.4" /><rect x="734.52" y="220.21" width="6" height="51.79" rx="1.5" fill="#f6465d" /><line x1="748.25" y1="268.87" x2="748.25" y2="292.78" stroke="#f6465d" stroke-width="1.4" /><rect x="745.25" y="272.15" width="6" height="15.51" rx="1.5" fill="#f6465d" /><line x1="758.99" y1="286.09" x2="758.99" y2="367.62" stroke="#f6465d" stroke-width="1.4" /><rect x="755.99" y="287.66" width="6" height="51.22" rx="1.5" fill="#f6465d" /><line x1="769.72" y1="338.60" x2="769.72" y2="386.26" stroke="#f6465d" stroke-width="1.4" /><rect x="766.72" y="338.88" width="6" height="12.52" rx="1.5" fill="#f6465d" /><line x1="780.46" y1="335.75" x2="780.46" y2="369.61" stroke="#0ecb81" stroke-width="1.4" /><rect x="777.46" y="351.26" width="6" height="2.00" rx="1.5" fill="#0ecb81" /><line x1="791.19" y1="298.33" x2="791.19" y2="365.77" stroke="#0ecb81" stroke-width="1.4" /><rect x="788.19" y="319.10" width="6" height="32.16" rx="1.5" fill="#0ecb81" /><line x1="801.92" y1="298.18" x2="801.92" y2="353.54" stroke="#f6465d" stroke-width="1.4" /><rect x="798.92" y="319.10" width="6" height="25.04" rx="1.5" fill="#f6465d" /><line x1="812.66" y1="325.36" x2="812.66" y2="350.55" stroke="#0ecb81" stroke-width="1.4" /><rect x="809.66" y="333.19" width="6" height="10.81" rx="1.5" fill="#0ecb81" /><line x1="823.39" y1="306.30" x2="823.39" y2="345.14" stroke="#0ecb81" stroke-width="1.4" /><rect x="820.39" y="316.97" width="6" height="16.36" rx="1.5" fill="#0ecb81" /><line x1="834.13" y1="313.55" x2="834.13" y2="341.73" stroke="#f6465d" stroke-width="1.4" /><rect x="831.13" y="316.82" width="6" height="13.23" rx="1.5" fill="#f6465d" /><line x1="844.86" y1="316.11" x2="844.86" y2="345.14" stroke="#0ecb81" stroke-width="1.4" /><rect x="841.86" y="321.09" width="6" height="8.96" rx="1.5" fill="#0ecb81" /><line x1="855.59" y1="318.25" x2="855.59" y2="363.50" stroke="#f6465d" stroke-width="1.4" /><rect x="852.59" y="321.09" width="6" height="37.99" rx="1.5" fill="#f6465d" /><line x1="866.33" y1="304.30" x2="866.33" y2="376.44" stroke="#0ecb81" stroke-width="1.4" /><rect x="863.33" y="308.86" width="6" height="50.09" rx="1.5" fill="#0ecb81" /><line x1="877.06" y1="263.47" x2="877.06" y2="312.98" stroke="#0ecb81" stroke-width="1.4" /><rect x="874.06" y="268.30" width="6" height="40.41" rx="1.5" fill="#0ecb81" /><line x1="887.80" y1="206.69" x2="887.80" y2="268.87" stroke="#0ecb81" stroke-width="1.4" /><rect x="884.80" y="226.76" width="6" height="41.41" rx="1.5" fill="#0ecb81" /><line x1="898.53" y1="198.58" x2="898.53" y2="242.69" stroke="#0ecb81" stroke-width="1.4" /><rect x="895.53" y="226.33" width="6" height="2.00" rx="1.5" fill="#0ecb81" /><line x1="909.27" y1="121.60" x2="909.27" y2="231.17" stroke="#0ecb81" stroke-width="1.4" /><rect x="906.27" y="131.56" width="6" height="94.62" rx="1.5" fill="#0ecb81" /><line x1="920.00" y1="58.00" x2="920.00" y2="145.65" stroke="#0ecb81" stroke-width="1.4" /><rect x="917.00" y="125.59" width="6" height="6.12" rx="1.5" fill="#0ecb81" />
  <polyline points="168.61,411.45 243.75,340.73 254.48,433.79 340.35,385.84 361.82,452.00" fill="none" stroke="#2fc273" stroke-width="4" stroke-linecap="round" stroke-linejoin="round" />
  <circle cx="168.61" cy="411.45" r="5.5" fill="#2fc273" fill-opacity="0.15" stroke="#2fc273" stroke-width="2" /><text x="168.61" y="399.45" fill="#f3f4f6" font-size="15" font-weight="700" text-anchor="middle">X</text><circle cx="243.75" cy="340.73" r="5.5" fill="#2fc273" fill-opacity="0.15" stroke="#2fc273" stroke-width="2" /><text x="243.75" y="328.73" fill="#f3f4f6" font-size="15" font-weight="700" text-anchor="middle">A</text><circle cx="254.48" cy="433.79" r="5.5" fill="#2fc273" fill-opacity="0.15" stroke="#2fc273" stroke-width="2" /><text x="254.48" y="421.79" fill="#f3f4f6" font-size="15" font-weight="700" text-anchor="middle">B</text><circle cx="340.35" cy="385.84" r="5.5" fill="#2fc273" fill-opacity="0.15" stroke="#2fc273" stroke-width="2" /><text x="340.35" y="373.84" fill="#f3f4f6" font-size="15" font-weight="700" text-anchor="middle">C</text><circle cx="361.82" cy="452.00" r="5.5" fill="#2fc273" fill-opacity="0.15" stroke="#2fc273" stroke-width="2" /><text x="361.82" y="440.00" fill="#f3f4f6" font-size="15" font-weight="700" text-anchor="middle">D</text>
  <text x="56" y="492" fill="#8ba0b5" font-size="18">일반 완성 · TP1 233.766 · TP2 234.864 · SL 231.344</text>
</svg>
