<svg xmlns="http://www.w3.org/2000/svg" width="960" height="540" viewBox="0 0 960 540">
  <rect width="960" height="540" rx="24" fill="#0b1220" />
  <rect x="28" y="28" width="904" height="484" rx="22" fill="#111827" stroke="#1f2937" />
  <text x="56" y="74" fill="#f3f4f6" font-size="34" font-weight="700">币安人生USDT · AB=CD</text>
  <text x="904" y="74" fill="#8ba0b5" font-size="20" text-anchor="end">Bearish (매도) · Score 78.8</text>
  <line x1="72" y1="58" x2="920" y2="58" stroke="#223045" stroke-width="1" stroke-dasharray="4 8" /><line x1="72" y1="156" x2="920" y2="156" stroke="#223045" stroke-width="1" stroke-dasharray="4 8" /><line x1="72" y1="255" x2="920" y2="255" stroke="#223045" stroke-width="1" stroke-dasharray="4 8" /><line x1="72" y1="353" x2="920" y2="353" stroke="#223045" stroke-width="1" stroke-dasharray="4 8" /><line x1="72" y1="452" x2="920" y2="452" stroke="#223045" stroke-width="1" stroke-dasharray="4 8" />
  <rect x="505.57" y="300.98" width="84" height="10.45" fill="#fbbf24" fill-opacity="0.12" stroke="#fbbf24" stroke-width="1.5" stroke-dasharray="6 6" />
  <line x1="72.00" y1="404.39" x2="72.00" y2="435.05" stroke="#0ecb81" stroke-width="1.4" /><rect x="69.00" y="420.07" width="6" height="14.83" rx="1.5" fill="#0ecb81" /><line x1="82.73" y1="375.86" x2="82.73" y2="420.07" stroke="#0ecb81" stroke-width="1.4" /><rect x="79.73" y="405.95" width="6" height="14.13" rx="1.5" fill="#0ecb81" /><line x1="93.47" y1="383.91" x2="93.47" y2="442.39" stroke="#0ecb81" stroke-width="1.4" /><rect x="90.47" y="397.19" width="6" height="8.76" rx="1.5" fill="#0ecb81" /><line x1="104.20" y1="317.37" x2="104.20" y2="412.87" stroke="#0ecb81" stroke-width="1.4" /><rect x="101.20" y="389.70" width="6" height="7.49" rx="1.5" fill="#0ecb81" /><line x1="114.94" y1="359.61" x2="114.94" y2="436.60" stroke="#f6465d" stroke-width="1.4" /><rect x="111.94" y="389.56" width="6" height="23.87" rx="1.5" fill="#f6465d" /><line x1="125.67" y1="410.18" x2="125.67" y2="452.00" stroke="#f6465d" stroke-width="1.4" /><rect x="122.67" y="413.01" width="6" height="30.37" rx="1.5" fill="#f6465d" /><line x1="136.41" y1="430.24" x2="136.41" y2="445.78" stroke="#0ecb81" stroke-width="1.4" /><rect x="133.41" y="434.34" width="6" height="8.62" rx="1.5" fill="#0ecb81" /><line x1="147.14" y1="421.06" x2="147.14" y2="437.87" stroke="#0ecb81" stroke-width="1.4" /><rect x="144.14" y="421.91" width="6" height="12.43" rx="1.5" fill="#0ecb81" /><line x1="157.87" y1="407.50" x2="157.87" y2="427.00" stroke="#0ecb81" stroke-width="1.4" /><rect x="154.87" y="412.02" width="6" height="9.89" rx="1.5" fill="#0ecb81" /><line x1="168.61" y1="399.31" x2="168.61" y2="428.27" stroke="#f6465d" stroke-width="1.4" /><rect x="165.61" y="411.60" width="6" height="9.75" rx="1.5" fill="#f6465d" /><line x1="179.34" y1="383.06" x2="179.34" y2="423.18" stroke="#0ecb81" stroke-width="1.4" /><rect x="176.34" y="393.37" width="6" height="28.11" rx="1.5" fill="#0ecb81" /><line x1="190.08" y1="376.28" x2="190.08" y2="400.72" stroke="#0ecb81" stroke-width="1.4" /><rect x="187.08" y="389.70" width="6" height="3.39" rx="1.5" fill="#0ecb81" /><line x1="200.81" y1="363.14" x2="200.81" y2="393.80" stroke="#0ecb81" stroke-width="1.4" /><rect x="197.81" y="372.32" width="6" height="17.38" rx="1.5" fill="#0ecb81" /><line x1="211.54" y1="362.29" x2="211.54" y2="386.87" stroke="#f6465d" stroke-width="1.4" /><rect x="208.54" y="372.75" width="6" height="6.07" rx="1.5" fill="#f6465d" /><line x1="222.28" y1="378.12" x2="222.28" y2="408.77" stroke="#f6465d" stroke-width="1.4" /><rect x="219.28" y="378.68" width="6" height="8.33" rx="1.5" fill="#f6465d" /><line x1="233.01" y1="369.78" x2="233.01" y2="393.37" stroke="#0ecb81" stroke-width="1.4" /><rect x="230.01" y="378.26" width="6" height="8.76" rx="1.5" fill="#0ecb81" /><line x1="243.75" y1="367.52" x2="243.75" y2="382.35" stroke="#0ecb81" stroke-width="1.4" /><rect x="240.75" y="367.80" width="6" height="10.45" rx="1.5" fill="#0ecb81" /><line x1="254.48" y1="331.21" x2="254.48" y2="370.91" stroke="#0ecb81" stroke-width="1.4" /><rect x="251.48" y="347.04" width="6" height="21.05" rx="1.5" fill="#0ecb81" /><line x1="265.22" y1="317.79" x2="265.22" y2="358.34" stroke="#0ecb81" stroke-width="1.4" /><rect x="262.22" y="342.80" width="6" height="4.24" rx="1.5" fill="#0ecb81" /><line x1="275.95" y1="327.54" x2="275.95" y2="350.14" stroke="#0ecb81" stroke-width="1.4" /><rect x="272.95" y="330.37" width="6" height="12.29" rx="1.5" fill="#0ecb81" /><line x1="286.68" y1="320.62" x2="286.68" y2="342.66" stroke="#f6465d" stroke-width="1.4" /><rect x="283.68" y="330.37" width="6" height="3.67" rx="1.5" fill="#f6465d" /><line x1="297.42" y1="327.82" x2="297.42" y2="354.81" stroke="#0ecb81" stroke-width="1.4" /><rect x="294.42" y="332.06" width="6" height="2.00" rx="1.5" fill="#0ecb81" /><line x1="308.15" y1="332.20" x2="308.15" y2="351.70" stroke="#f6465d" stroke-width="1.4" /><rect x="305.15" y="332.20" width="6" height="7.49" rx="1.5" fill="#f6465d" /><line x1="318.89" y1="299.71" x2="318.89" y2="376.28" stroke="#f6465d" stroke-width="1.4" /><rect x="315.89" y="339.83" width="6" height="14.27" rx="1.5" fill="#f6465d" /><line x1="329.62" y1="349.30" x2="329.62" y2="376.28" stroke="#f6465d" stroke-width="1.4" /><rect x="326.62" y="354.10" width="6" height="5.65" rx="1.5" fill="#f6465d" /><line x1="340.35" y1="355.37" x2="340.35" y2="368.09" stroke="#f6465d" stroke-width="1.4" /><rect x="337.35" y="360.17" width="6" height="2.00" rx="1.5" fill="#f6465d" /><line x1="351.09" y1="351.70" x2="351.09" y2="366.25" stroke="#0ecb81" stroke-width="1.4" /><rect x="348.09" y="353.11" width="6" height="6.92" rx="1.5" fill="#0ecb81" /><line x1="361.82" y1="345.62" x2="361.82" y2="357.49" stroke="#0ecb81" stroke-width="1.4" /><rect x="358.82" y="350.71" width="6" height="2.40" rx="1.5" fill="#0ecb81" /><line x1="372.56" y1="350.14" x2="372.56" y2="389.14" stroke="#f6465d" stroke-width="1.4" /><rect x="369.56" y="350.71" width="6" height="20.48" rx="1.5" fill="#f6465d" /><line x1="383.29" y1="360.60" x2="383.29" y2="375.86" stroke="#0ecb81" stroke-width="1.4" /><rect x="380.29" y="365.26" width="6" height="6.07" rx="1.5" fill="#0ecb81" /><line x1="394.03" y1="363.71" x2="394.03" y2="384.61" stroke="#f6465d" stroke-width="1.4" /><rect x="391.03" y="365.26" width="6" height="4.80" rx="1.5" fill="#f6465d" /><line x1="404.76" y1="352.69" x2="404.76" y2="372.04" stroke="#0ecb81" stroke-width="1.4" /><rect x="401.76" y="355.94" width="6" height="13.99" rx="1.5" fill="#0ecb81" /><line x1="415.49" y1="333.19" x2="415.49" y2="359.33" stroke="#0ecb81" stroke-width="1.4" /><rect x="412.49" y="340.40" width="6" height="16.10" rx="1.5" fill="#0ecb81" /><line x1="426.23" y1="333.48" x2="426.23" y2="350.14" stroke="#f6465d" stroke-width="1.4" /><rect x="423.23" y="340.26" width="6" height="7.20" rx="1.5" fill="#f6465d" /><line x1="436.96" y1="332.34" x2="436.96" y2="357.07" stroke="#0ecb81" stroke-width="1.4" /><rect x="433.96" y="347.04" width="6" height="2.00" rx="1.5" fill="#0ecb81" /><line x1="447.70" y1="343.36" x2="447.70" y2="367.38" stroke="#f6465d" stroke-width="1.4" /><rect x="444.70" y="347.04" width="6" height="4.66" rx="1.5" fill="#f6465d" /><line x1="458.43" y1="348.59" x2="458.43" y2="368.23" stroke="#f6465d" stroke-width="1.4" /><rect x="455.43" y="351.70" width="6" height="3.11" rx="1.5" fill="#f6465d" /><line x1="469.16" y1="349.16" x2="469.16" y2="357.21" stroke="#0ecb81" stroke-width="1.4" /><rect x="466.16" y="353.96" width="6" height="2.00" rx="1.5" fill="#0ecb81" /><line x1="479.90" y1="330.79" x2="479.90" y2="354.24" stroke="#0ecb81" stroke-width="1.4" /><rect x="476.90" y="339.55" width="6" height="14.55" rx="1.5" fill="#0ecb81" /><line x1="490.63" y1="327.26" x2="490.63" y2="347.18" stroke="#0ecb81" stroke-width="1.4" /><rect x="487.63" y="336.30" width="6" height="3.25" rx="1.5" fill="#0ecb81" /><line x1="501.37" y1="321.47" x2="501.37" y2="339.55" stroke="#0ecb81" stroke-width="1.4" /><rect x="498.37" y="325.42" width="6" height="10.74" rx="1.5" fill="#0ecb81" /><line x1="512.10" y1="316.66" x2="512.10" y2="336.87" stroke="#0ecb81" stroke-width="1.4" /><rect x="509.10" y="320.05" width="6" height="5.51" rx="1.5" fill="#0ecb81" /><line x1="522.84" y1="300.14" x2="522.84" y2="320.05" stroke="#0ecb81" stroke-width="1.4" /><rect x="519.84" y="306.92" width="6" height="13.14" rx="1.5" fill="#0ecb81" /><line x1="533.57" y1="288.13" x2="533.57" y2="309.04" stroke="#0ecb81" stroke-width="1.4" /><rect x="530.57" y="304.80" width="6" height="2.00" rx="1.5" fill="#0ecb81" /><line x1="544.30" y1="304.80" x2="544.30" y2="332.91" stroke="#f6465d" stroke-width="1.4" /><rect x="541.30" y="304.80" width="6" height="18.08" rx="1.5" fill="#f6465d" /><line x1="555.04" y1="319.35" x2="555.04" y2="332.91" stroke="#f6465d" stroke-width="1.4" /><rect x="552.04" y="322.74" width="6" height="6.22" rx="1.5" fill="#f6465d" /><line x1="565.77" y1="317.65" x2="565.77" y2="334.61" stroke="#f6465d" stroke-width="1.4" /><rect x="562.77" y="329.24" width="6" height="2.00" rx="1.5" fill="#f6465d" /><line x1="576.51" y1="311.01" x2="576.51" y2="335.17" stroke="#0ecb81" stroke-width="1.4" /><rect x="573.51" y="319.63" width="6" height="11.30" rx="1.5" fill="#0ecb81" /><line x1="587.24" y1="302.40" x2="587.24" y2="323.16" stroke="#0ecb81" stroke-width="1.4" /><rect x="584.24" y="305.08" width="6" height="14.41" rx="1.5" fill="#0ecb81" /><line x1="597.97" y1="299.85" x2="597.97" y2="324.86" stroke="#f6465d" stroke-width="1.4" /><rect x="594.97" y="305.08" width="6" height="11.30" rx="1.5" fill="#f6465d" /><line x1="608.71" y1="302.68" x2="608.71" y2="320.76" stroke="#0ecb81" stroke-width="1.4" /><rect x="605.71" y="310.02" width="6" height="6.64" rx="1.5" fill="#0ecb81" /><line x1="619.44" y1="305.22" x2="619.44" y2="325.00" stroke="#f6465d" stroke-width="1.4" /><rect x="616.44" y="309.74" width="6" height="9.18" rx="1.5" fill="#f6465d" /><line x1="630.18" y1="311.58" x2="630.18" y2="340.40" stroke="#f6465d" stroke-width="1.4" /><rect x="627.18" y="318.92" width="6" height="2.97" rx="1.5" fill="#f6465d" /><line x1="640.91" y1="289.96" x2="640.91" y2="324.58" stroke="#0ecb81" stroke-width="1.4" /><rect x="637.91" y="295.76" width="6" height="26.13" rx="1.5" fill="#0ecb81" /><line x1="651.65" y1="290.25" x2="651.65" y2="310.31" stroke="#f6465d" stroke-width="1.4" /><rect x="648.65" y="295.90" width="6" height="5.65" rx="1.5" fill="#f6465d" /><line x1="662.38" y1="262.42" x2="662.38" y2="302.68" stroke="#0ecb81" stroke-width="1.4" /><rect x="659.38" y="277.53" width="6" height="23.87" rx="1.5" fill="#0ecb81" /><line x1="673.11" y1="274.99" x2="673.11" y2="290.39" stroke="#0ecb81" stroke-width="1.4" /><rect x="670.11" y="275.98" width="6" height="2.00" rx="1.5" fill="#0ecb81" /><line x1="683.85" y1="270.75" x2="683.85" y2="316.66" stroke="#f6465d" stroke-width="1.4" /><rect x="680.85" y="275.55" width="6" height="4.66" rx="1.5" fill="#f6465d" /><line x1="694.58" y1="280.64" x2="694.58" y2="307.34" stroke="#f6465d" stroke-width="1.4" /><rect x="691.58" y="280.64" width="6" height="16.39" rx="1.5" fill="#f6465d" /><line x1="705.32" y1="281.63" x2="705.32" y2="301.97" stroke="#0ecb81" stroke-width="1.4" /><rect x="702.32" y="283.18" width="6" height="13.99" rx="1.5" fill="#0ecb81" /><line x1="716.05" y1="199.27" x2="716.05" y2="285.73" stroke="#0ecb81" stroke-width="1.4" /><rect x="713.05" y="215.37" width="6" height="68.23" rx="1.5" fill="#0ecb81" /><line x1="726.78" y1="183.73" x2="726.78" y2="244.48" stroke="#f6465d" stroke-width="1.4" /><rect x="723.78" y="215.66" width="6" height="19.78" rx="1.5" fill="#f6465d" /><line x1="737.52" y1="215.94" x2="737.52" y2="251.82" stroke="#0ecb81" stroke-width="1.4" /><rect x="734.52" y="233.46" width="6" height="2.40" rx="1.5" fill="#0ecb81" /><line x1="748.25" y1="231.76" x2="748.25" y2="244.33" stroke="#f6465d" stroke-width="1.4" /><rect x="745.25" y="233.46" width="6" height="2.00" rx="1.5" fill="#f6465d" /><line x1="758.99" y1="192.49" x2="758.99" y2="240.24" stroke="#0ecb81" stroke-width="1.4" /><rect x="755.99" y="211.98" width="6" height="23.31" rx="1.5" fill="#0ecb81" /><line x1="769.72" y1="171.02" x2="769.72" y2="212.12" stroke="#0ecb81" stroke-width="1.4" /><rect x="766.72" y="185.14" width="6" height="26.98" rx="1.5" fill="#0ecb81" /><line x1="780.46" y1="174.26" x2="780.46" y2="207.60" stroke="#f6465d" stroke-width="1.4" /><rect x="777.46" y="185.28" width="6" height="4.52" rx="1.5" fill="#f6465d" /><line x1="791.19" y1="147.00" x2="791.19" y2="192.77" stroke="#0ecb81" stroke-width="1.4" /><rect x="788.19" y="162.68" width="6" height="26.84" rx="1.5" fill="#0ecb81" /><line x1="801.92" y1="148.13" x2="801.92" y2="178.79" stroke="#f6465d" stroke-width="1.4" /><rect x="798.92" y="162.40" width="6" height="2.00" rx="1.5" fill="#f6465d" /><line x1="812.66" y1="58.00" x2="812.66" y2="175.25" stroke="#0ecb81" stroke-width="1.4" /><rect x="809.66" y="104.20" width="6" height="58.49" rx="1.5" fill="#0ecb81" /><line x1="823.39" y1="97.98" x2="823.39" y2="189.52" stroke="#f6465d" stroke-width="1.4" /><rect x="820.39" y="104.48" width="6" height="61.17" rx="1.5" fill="#f6465d" /><line x1="834.13" y1="161.97" x2="834.13" y2="202.09" stroke="#f6465d" stroke-width="1.4" /><rect x="831.13" y="165.65" width="6" height="25.43" rx="1.5" fill="#f6465d" /><line x1="844.86" y1="189.80" x2="844.86" y2="235.58" stroke="#f6465d" stroke-width="1.4" /><rect x="841.86" y="190.93" width="6" height="20.34" rx="1.5" fill="#f6465d" /><line x1="855.59" y1="200.26" x2="855.59" y2="226.68" stroke="#f6465d" stroke-width="1.4" /><rect x="852.59" y="211.14" width="6" height="14.41" rx="1.5" fill="#f6465d" /><line x1="866.33" y1="188.11" x2="866.33" y2="227.38" stroke="#0ecb81" stroke-width="1.4" /><rect x="863.33" y="190.65" width="6" height="35.18" rx="1.5" fill="#0ecb81" /><line x1="877.06" y1="177.66" x2="877.06" y2="202.24" stroke="#0ecb81" stroke-width="1.4" /><rect x="874.06" y="179.21" width="6" height="11.58" rx="1.5" fill="#0ecb81" /><line x1="887.80" y1="176.52" x2="887.80" y2="204.92" stroke="#f6465d" stroke-width="1.4" /><rect x="884.80" y="179.07" width="6" height="8.62" rx="1.5" fill="#f6465d" /><line x1="898.53" y1="161.69" x2="898.53" y2="195.46" stroke="#0ecb81" stroke-width="1.4" /><rect x="895.53" y="173.13" width="6" height="14.55" rx="1.5" fill="#0ecb81" /><line x1="909.27" y1="150.67" x2="909.27" y2="184.01" stroke="#0ecb81" stroke-width="1.4" /><rect x="906.27" y="164.09" width="6" height="8.33" rx="1.5" fill="#0ecb81" /><line x1="920.00" y1="161.97" x2="920.00" y2="199.27" stroke="#f6465d" stroke-width="1.4" /><rect x="917.00" y="163.81" width="6" height="34.61" rx="1.5" fill="#f6465d" />
  <polyline points="361.82,345.62 372.56,389.14 436.96,332.34 458.43,368.23 533.57,288.13" fill="none" stroke="#2fc273" stroke-width="4" stroke-linecap="round" stroke-linejoin="round" />
  <circle cx="361.82" cy="345.62" r="5.5" fill="#2fc273" fill-opacity="0.15" stroke="#2fc273" stroke-width="2" /><text x="361.82" y="333.62" fill="#f3f4f6" font-size="15" font-weight="700" text-anchor="middle">X</text><circle cx="372.56" cy="389.14" r="5.5" fill="#2fc273" fill-opacity="0.15" stroke="#2fc273" stroke-width="2" /><text x="372.56" y="377.14" fill="#f3f4f6" font-size="15" font-weight="700" text-anchor="middle">A</text><circle cx="436.96" cy="332.34" r="5.5" fill="#2fc273" fill-opacity="0.15" stroke="#2fc273" stroke-width="2" /><text x="436.96" y="320.34" fill="#f3f4f6" font-size="15" font-weight="700" text-anchor="middle">B</text><circle cx="458.43" cy="368.23" r="5.5" fill="#2fc273" fill-opacity="0.15" stroke="#2fc273" stroke-width="2" /><text x="458.43" y="356.23" fill="#f3f4f6" font-size="15" font-weight="700" text-anchor="middle">C</text><circle cx="533.57" cy="288.13" r="5.5" fill="#2fc273" fill-opacity="0.15" stroke="#2fc273" stroke-width="2" /><text x="533.57" y="276.13" fill="#f3f4f6" font-size="15" font-weight="700" text-anchor="middle">D</text>
  <text x="56" y="492" fill="#8ba0b5" font-size="18">실시간 터치 · TP1 0.057544 · TP2 0.056206 · SL 0.06011</text>
</svg>
