<svg xmlns="http://www.w3.org/2000/svg" width="960" height="540" viewBox="0 0 960 540">
  <rect width="960" height="540" rx="24" fill="#0b1220" />
  <rect x="28" y="28" width="904" height="484" rx="22" fill="#111827" stroke="#1f2937" />
  <text x="56" y="74" fill="#f3f4f6" font-size="34" font-weight="700">币安人生USDT · AB=CD</text>
  <text x="904" y="74" fill="#8ba0b5" font-size="20" text-anchor="end">Bullish (매수) · Score 78.4</text>
  <line x1="72" y1="58" x2="920" y2="58" stroke="#223045" stroke-width="1" stroke-dasharray="4 8" /><line x1="72" y1="156" x2="920" y2="156" stroke="#223045" stroke-width="1" stroke-dasharray="4 8" /><line x1="72" y1="255" x2="920" y2="255" stroke="#223045" stroke-width="1" stroke-dasharray="4 8" /><line x1="72" y1="353" x2="920" y2="353" stroke="#223045" stroke-width="1" stroke-dasharray="4 8" /><line x1="72" y1="452" x2="920" y2="452" stroke="#223045" stroke-width="1" stroke-dasharray="4 8" />
  <rect x="677.32" y="340.02" width="84" height="18.69" fill="#fbbf24" fill-opacity="0.12" stroke="#fbbf24" stroke-width="1.5" stroke-dasharray="6 6" />
  <line x1="72.00" y1="435.59" x2="72.00" y2="452.00" stroke="#0ecb81" stroke-width="1.4" /><rect x="69.00" y="437.52" width="6" height="7.17" rx="1.5" fill="#0ecb81" /><line x1="82.73" y1="436.83" x2="82.73" y2="447.59" stroke="#f6465d" stroke-width="1.4" /><rect x="79.73" y="437.38" width="6" height="5.65" rx="1.5" fill="#f6465d" /><line x1="93.47" y1="438.35" x2="93.47" y2="444.69" stroke="#0ecb81" stroke-width="1.4" /><rect x="90.47" y="441.93" width="6" height="2.00" rx="1.5" fill="#0ecb81" /><line x1="104.20" y1="439.86" x2="104.20" y2="449.66" stroke="#f6465d" stroke-width="1.4" /><rect x="101.20" y="441.93" width="6" height="3.59" rx="1.5" fill="#f6465d" /><line x1="114.94" y1="432.83" x2="114.94" y2="447.04" stroke="#0ecb81" stroke-width="1.4" /><rect x="111.94" y="436.00" width="6" height="9.24" rx="1.5" fill="#0ecb81" /><line x1="125.67" y1="416.56" x2="125.67" y2="439.59" stroke="#0ecb81" stroke-width="1.4" /><rect x="122.67" y="432.42" width="6" height="3.59" rx="1.5" fill="#0ecb81" /><line x1="136.41" y1="416.56" x2="136.41" y2="434.35" stroke="#0ecb81" stroke-width="1.4" /><rect x="133.41" y="425.94" width="6" height="6.48" rx="1.5" fill="#0ecb81" /><line x1="147.14" y1="396.15" x2="147.14" y2="426.07" stroke="#0ecb81" stroke-width="1.4" /><rect x="144.14" y="411.46" width="6" height="14.48" rx="1.5" fill="#0ecb81" /><line x1="157.87" y1="368.29" x2="157.87" y2="411.46" stroke="#0ecb81" stroke-width="1.4" /><rect x="154.87" y="397.66" width="6" height="13.79" rx="1.5" fill="#0ecb81" /><line x1="168.61" y1="376.15" x2="168.61" y2="433.24" stroke="#0ecb81" stroke-width="1.4" /><rect x="165.61" y="389.11" width="6" height="8.55" rx="1.5" fill="#0ecb81" /><line x1="179.34" y1="311.20" x2="179.34" y2="404.42" stroke="#0ecb81" stroke-width="1.4" /><rect x="176.34" y="381.81" width="6" height="7.31" rx="1.5" fill="#0ecb81" /><line x1="190.08" y1="352.43" x2="190.08" y2="427.59" stroke="#f6465d" stroke-width="1.4" /><rect x="187.08" y="381.67" width="6" height="23.31" rx="1.5" fill="#f6465d" /><line x1="200.81" y1="401.80" x2="200.81" y2="442.62" stroke="#f6465d" stroke-width="1.4" /><rect x="197.81" y="404.56" width="6" height="29.65" rx="1.5" fill="#f6465d" /><line x1="211.54" y1="421.38" x2="211.54" y2="436.55" stroke="#0ecb81" stroke-width="1.4" /><rect x="208.54" y="425.38" width="6" height="8.41" rx="1.5" fill="#0ecb81" /><line x1="222.28" y1="412.42" x2="222.28" y2="428.83" stroke="#0ecb81" stroke-width="1.4" /><rect x="219.28" y="413.25" width="6" height="12.14" rx="1.5" fill="#0ecb81" /><line x1="233.01" y1="399.18" x2="233.01" y2="418.21" stroke="#0ecb81" stroke-width="1.4" /><rect x="230.01" y="403.59" width="6" height="9.65" rx="1.5" fill="#0ecb81" /><line x1="243.75" y1="391.18" x2="243.75" y2="419.45" stroke="#f6465d" stroke-width="1.4" /><rect x="240.75" y="403.18" width="6" height="9.52" rx="1.5" fill="#f6465d" /><line x1="254.48" y1="375.32" x2="254.48" y2="414.49" stroke="#0ecb81" stroke-width="1.4" /><rect x="251.48" y="385.39" width="6" height="27.44" rx="1.5" fill="#0ecb81" /><line x1="265.22" y1="368.70" x2="265.22" y2="392.56" stroke="#0ecb81" stroke-width="1.4" /><rect x="262.22" y="381.81" width="6" height="3.31" rx="1.5" fill="#0ecb81" /><line x1="275.95" y1="355.88" x2="275.95" y2="385.80" stroke="#0ecb81" stroke-width="1.4" /><rect x="272.95" y="364.84" width="6" height="16.96" rx="1.5" fill="#0ecb81" /><line x1="286.68" y1="355.05" x2="286.68" y2="379.05" stroke="#f6465d" stroke-width="1.4" /><rect x="283.68" y="365.26" width="6" height="5.93" rx="1.5" fill="#f6465d" /><line x1="297.42" y1="370.50" x2="297.42" y2="400.42" stroke="#f6465d" stroke-width="1.4" /><rect x="294.42" y="371.05" width="6" height="8.14" rx="1.5" fill="#f6465d" /><line x1="308.15" y1="362.36" x2="308.15" y2="385.39" stroke="#0ecb81" stroke-width="1.4" /><rect x="305.15" y="370.63" width="6" height="8.55" rx="1.5" fill="#0ecb81" /><line x1="318.89" y1="360.15" x2="318.89" y2="374.63" stroke="#0ecb81" stroke-width="1.4" /><rect x="315.89" y="360.43" width="6" height="10.21" rx="1.5" fill="#0ecb81" /><line x1="329.62" y1="324.71" x2="329.62" y2="363.46" stroke="#0ecb81" stroke-width="1.4" /><rect x="326.62" y="340.16" width="6" height="20.55" rx="1.5" fill="#0ecb81" /><line x1="340.35" y1="311.61" x2="340.35" y2="351.19" stroke="#0ecb81" stroke-width="1.4" /><rect x="337.35" y="336.02" width="6" height="4.14" rx="1.5" fill="#0ecb81" /><line x1="351.09" y1="321.13" x2="351.09" y2="343.19" stroke="#0ecb81" stroke-width="1.4" /><rect x="348.09" y="323.88" width="6" height="12.00" rx="1.5" fill="#0ecb81" /><line x1="361.82" y1="314.37" x2="361.82" y2="335.88" stroke="#f6465d" stroke-width="1.4" /><rect x="358.82" y="323.88" width="6" height="3.59" rx="1.5" fill="#f6465d" /><line x1="372.56" y1="321.40" x2="372.56" y2="347.74" stroke="#0ecb81" stroke-width="1.4" /><rect x="369.56" y="325.54" width="6" height="2.00" rx="1.5" fill="#0ecb81" /><line x1="383.29" y1="325.68" x2="383.29" y2="344.71" stroke="#f6465d" stroke-width="1.4" /><rect x="380.29" y="325.68" width="6" height="7.31" rx="1.5" fill="#f6465d" /><line x1="394.03" y1="293.96" x2="394.03" y2="368.70" stroke="#f6465d" stroke-width="1.4" /><rect x="391.03" y="333.12" width="6" height="13.93" rx="1.5" fill="#f6465d" /><line x1="404.76" y1="342.36" x2="404.76" y2="368.70" stroke="#f6465d" stroke-width="1.4" /><rect x="401.76" y="347.05" width="6" height="5.52" rx="1.5" fill="#f6465d" /><line x1="415.49" y1="348.29" x2="415.49" y2="360.71" stroke="#f6465d" stroke-width="1.4" /><rect x="412.49" y="352.98" width="6" height="2.00" rx="1.5" fill="#f6465d" /><line x1="426.23" y1="344.71" x2="426.23" y2="358.91" stroke="#0ecb81" stroke-width="1.4" /><rect x="423.23" y="346.09" width="6" height="6.76" rx="1.5" fill="#0ecb81" /><line x1="436.96" y1="338.78" x2="436.96" y2="350.36" stroke="#0ecb81" stroke-width="1.4" /><rect x="433.96" y="343.74" width="6" height="2.34" rx="1.5" fill="#0ecb81" /><line x1="447.70" y1="343.19" x2="447.70" y2="381.25" stroke="#f6465d" stroke-width="1.4" /><rect x="444.70" y="343.74" width="6" height="20.00" rx="1.5" fill="#f6465d" /><line x1="458.43" y1="353.40" x2="458.43" y2="368.29" stroke="#0ecb81" stroke-width="1.4" /><rect x="455.43" y="357.95" width="6" height="5.93" rx="1.5" fill="#0ecb81" /><line x1="469.16" y1="356.43" x2="469.16" y2="376.84" stroke="#f6465d" stroke-width="1.4" /><rect x="466.16" y="357.95" width="6" height="4.69" rx="1.5" fill="#f6465d" /><line x1="479.90" y1="345.67" x2="479.90" y2="364.57" stroke="#0ecb81" stroke-width="1.4" /><rect x="476.90" y="348.85" width="6" height="13.65" rx="1.5" fill="#0ecb81" /><line x1="490.63" y1="326.64" x2="490.63" y2="352.16" stroke="#0ecb81" stroke-width="1.4" /><rect x="487.63" y="333.68" width="6" height="15.72" rx="1.5" fill="#0ecb81" /><line x1="501.37" y1="326.92" x2="501.37" y2="343.19" stroke="#f6465d" stroke-width="1.4" /><rect x="498.37" y="333.54" width="6" height="7.03" rx="1.5" fill="#f6465d" /><line x1="512.10" y1="325.82" x2="512.10" y2="349.95" stroke="#0ecb81" stroke-width="1.4" /><rect x="509.10" y="340.16" width="6" height="2.00" rx="1.5" fill="#0ecb81" /><line x1="522.84" y1="336.57" x2="522.84" y2="360.02" stroke="#f6465d" stroke-width="1.4" /><rect x="519.84" y="340.16" width="6" height="4.55" rx="1.5" fill="#f6465d" /><line x1="533.57" y1="341.67" x2="533.57" y2="360.84" stroke="#f6465d" stroke-width="1.4" /><rect x="530.57" y="344.71" width="6" height="3.03" rx="1.5" fill="#f6465d" /><line x1="544.30" y1="342.23" x2="544.30" y2="350.09" stroke="#0ecb81" stroke-width="1.4" /><rect x="541.30" y="346.91" width="6" height="2.00" rx="1.5" fill="#0ecb81" /><line x1="555.04" y1="324.30" x2="555.04" y2="347.19" stroke="#0ecb81" stroke-width="1.4" /><rect x="552.04" y="332.85" width="6" height="14.20" rx="1.5" fill="#0ecb81" /><line x1="565.77" y1="320.85" x2="565.77" y2="340.30" stroke="#0ecb81" stroke-width="1.4" /><rect x="562.77" y="329.68" width="6" height="3.17" rx="1.5" fill="#0ecb81" /><line x1="576.51" y1="315.20" x2="576.51" y2="332.85" stroke="#0ecb81" stroke-width="1.4" /><rect x="573.51" y="319.06" width="6" height="10.48" rx="1.5" fill="#0ecb81" /><line x1="587.24" y1="310.51" x2="587.24" y2="330.23" stroke="#0ecb81" stroke-width="1.4" /><rect x="584.24" y="313.82" width="6" height="5.38" rx="1.5" fill="#0ecb81" /><line x1="597.97" y1="294.37" x2="597.97" y2="313.82" stroke="#0ecb81" stroke-width="1.4" /><rect x="594.97" y="300.99" width="6" height="12.83" rx="1.5" fill="#0ecb81" /><line x1="608.71" y1="282.65" x2="608.71" y2="303.06" stroke="#0ecb81" stroke-width="1.4" /><rect x="605.71" y="298.92" width="6" height="2.00" rx="1.5" fill="#0ecb81" /><line x1="619.44" y1="298.92" x2="619.44" y2="326.37" stroke="#f6465d" stroke-width="1.4" /><rect x="616.44" y="298.92" width="6" height="17.65" rx="1.5" fill="#f6465d" /><line x1="630.18" y1="313.13" x2="630.18" y2="326.37" stroke="#f6465d" stroke-width="1.4" /><rect x="627.18" y="316.44" width="6" height="6.07" rx="1.5" fill="#f6465d" /><line x1="640.91" y1="311.47" x2="640.91" y2="328.02" stroke="#f6465d" stroke-width="1.4" /><rect x="637.91" y="322.78" width="6" height="2.00" rx="1.5" fill="#f6465d" /><line x1="651.65" y1="304.99" x2="651.65" y2="328.57" stroke="#0ecb81" stroke-width="1.4" /><rect x="648.65" y="313.40" width="6" height="11.03" rx="1.5" fill="#0ecb81" /><line x1="662.38" y1="296.58" x2="662.38" y2="316.85" stroke="#0ecb81" stroke-width="1.4" /><rect x="659.38" y="299.20" width="6" height="14.07" rx="1.5" fill="#0ecb81" /><line x1="673.11" y1="294.10" x2="673.11" y2="318.51" stroke="#f6465d" stroke-width="1.4" /><rect x="670.11" y="299.20" width="6" height="11.03" rx="1.5" fill="#f6465d" /><line x1="683.85" y1="296.85" x2="683.85" y2="314.51" stroke="#0ecb81" stroke-width="1.4" /><rect x="680.85" y="304.03" width="6" height="6.48" rx="1.5" fill="#0ecb81" /><line x1="694.58" y1="299.34" x2="694.58" y2="318.64" stroke="#f6465d" stroke-width="1.4" /><rect x="691.58" y="303.75" width="6" height="8.96" rx="1.5" fill="#f6465d" /><line x1="705.32" y1="305.54" x2="705.32" y2="333.68" stroke="#f6465d" stroke-width="1.4" /><rect x="702.32" y="312.71" width="6" height="2.90" rx="1.5" fill="#f6465d" /><line x1="716.05" y1="284.44" x2="716.05" y2="318.23" stroke="#0ecb81" stroke-width="1.4" /><rect x="713.05" y="290.10" width="6" height="25.51" rx="1.5" fill="#0ecb81" /><line x1="726.78" y1="284.72" x2="726.78" y2="304.30" stroke="#f6465d" stroke-width="1.4" /><rect x="723.78" y="290.24" width="6" height="5.52" rx="1.5" fill="#f6465d" /><line x1="737.52" y1="257.55" x2="737.52" y2="296.85" stroke="#0ecb81" stroke-width="1.4" /><rect x="734.52" y="272.31" width="6" height="23.31" rx="1.5" fill="#0ecb81" /><line x1="748.25" y1="269.82" x2="748.25" y2="284.86" stroke="#0ecb81" stroke-width="1.4" /><rect x="745.25" y="270.79" width="6" height="2.00" rx="1.5" fill="#0ecb81" /><line x1="758.99" y1="265.69" x2="758.99" y2="310.51" stroke="#f6465d" stroke-width="1.4" /><rect x="755.99" y="270.38" width="6" height="4.55" rx="1.5" fill="#f6465d" /><line x1="769.72" y1="275.34" x2="769.72" y2="301.41" stroke="#f6465d" stroke-width="1.4" /><rect x="766.72" y="275.34" width="6" height="16.00" rx="1.5" fill="#f6465d" /><line x1="780.46" y1="276.31" x2="780.46" y2="296.17" stroke="#0ecb81" stroke-width="1.4" /><rect x="777.46" y="277.82" width="6" height="13.65" rx="1.5" fill="#0ecb81" /><line x1="791.19" y1="195.91" x2="791.19" y2="280.31" stroke="#0ecb81" stroke-width="1.4" /><rect x="788.19" y="211.63" width="6" height="66.61" rx="1.5" fill="#0ecb81" /><line x1="801.92" y1="180.74" x2="801.92" y2="240.04" stroke="#f6465d" stroke-width="1.4" /><rect x="798.92" y="211.90" width="6" height="19.31" rx="1.5" fill="#f6465d" /><line x1="812.66" y1="212.18" x2="812.66" y2="247.21" stroke="#0ecb81" stroke-width="1.4" /><rect x="809.66" y="229.28" width="6" height="2.34" rx="1.5" fill="#0ecb81" /><line x1="823.39" y1="227.63" x2="823.39" y2="239.90" stroke="#f6465d" stroke-width="1.4" /><rect x="820.39" y="229.28" width="6" height="2.00" rx="1.5" fill="#f6465d" /><line x1="834.13" y1="189.29" x2="834.13" y2="235.90" stroke="#0ecb81" stroke-width="1.4" /><rect x="831.13" y="208.32" width="6" height="22.75" rx="1.5" fill="#0ecb81" /><line x1="844.86" y1="168.33" x2="844.86" y2="208.46" stroke="#0ecb81" stroke-width="1.4" /><rect x="841.86" y="182.12" width="6" height="26.34" rx="1.5" fill="#0ecb81" /><line x1="855.59" y1="171.50" x2="855.59" y2="204.04" stroke="#f6465d" stroke-width="1.4" /><rect x="852.59" y="182.25" width="6" height="4.41" rx="1.5" fill="#f6465d" /><line x1="866.33" y1="144.88" x2="866.33" y2="189.56" stroke="#0ecb81" stroke-width="1.4" /><rect x="863.33" y="160.19" width="6" height="26.20" rx="1.5" fill="#0ecb81" /><line x1="877.06" y1="145.98" x2="877.06" y2="175.91" stroke="#f6465d" stroke-width="1.4" /><rect x="874.06" y="159.91" width="6" height="2.00" rx="1.5" fill="#f6465d" /><line x1="887.80" y1="58.00" x2="887.80" y2="172.46" stroke="#0ecb81" stroke-width="1.4" /><rect x="884.80" y="103.10" width="6" height="57.09" rx="1.5" fill="#0ecb81" /><line x1="898.53" y1="97.03" x2="898.53" y2="186.39" stroke="#f6465d" stroke-width="1.4" /><rect x="895.53" y="103.37" width="6" height="59.71" rx="1.5" fill="#f6465d" /><line x1="909.27" y1="159.50" x2="909.27" y2="198.67" stroke="#f6465d" stroke-width="1.4" /><rect x="906.27" y="163.09" width="6" height="24.82" rx="1.5" fill="#f6465d" /><line x1="920.00" y1="186.67" x2="920.00" y2="231.35" stroke="#f6465d" stroke-width="1.4" /><rect x="917.00" y="187.77" width="6" height="36.27" rx="1.5" fill="#f6465d" />
  <polyline points="533.57,360.84 608.71,282.65 651.65,328.57 673.11,294.10 705.32,333.68" fill="none" stroke="#2fc273" stroke-width="4" stroke-linecap="round" stroke-linejoin="round" />
  <circle cx="533.57" cy="360.84" r="5.5" fill="#2fc273" fill-opacity="0.15" stroke="#2fc273" stroke-width="2" /><text x="533.57" y="348.84" fill="#f3f4f6" font-size="15" font-weight="700" text-anchor="middle">X</text><circle cx="608.71" cy="282.65" r="5.5" fill="#2fc273" fill-opacity="0.15" stroke="#2fc273" stroke-width="2" /><text x="608.71" y="270.65" fill="#f3f4f6" font-size="15" font-weight="700" text-anchor="middle">A</text><circle cx="651.65" cy="328.57" r="5.5" fill="#2fc273" fill-opacity="0.15" stroke="#2fc273" stroke-width="2" /><text x="651.65" y="316.57" fill="#f3f4f6" font-size="15" font-weight="700" text-anchor="middle">B</text><circle cx="673.11" cy="294.10" r="5.5" fill="#2fc273" fill-opacity="0.15" stroke="#2fc273" stroke-width="2" /><text x="673.11" y="282.10" fill="#f3f4f6" font-size="15" font-weight="700" text-anchor="middle">C</text><circle cx="705.32" cy="333.68" r="5.5" fill="#2fc273" fill-opacity="0.15" stroke="#2fc273" stroke-width="2" /><text x="705.32" y="321.68" fill="#f3f4f6" font-size="15" font-weight="700" text-anchor="middle">D</text>
  <text x="56" y="492" fill="#8ba0b5" font-size="18">일반 완성 · TP1 0.057106 · TP2 0.057784 · SL 0.055273</text>
</svg>
