<svg xmlns="http://www.w3.org/2000/svg" width="960" height="540" viewBox="0 0 960 540">
  <rect width="960" height="540" rx="24" fill="#0b1220" />
  <rect x="28" y="28" width="904" height="484" rx="22" fill="#111827" stroke="#1f2937" />
  <text x="56" y="74" fill="#f3f4f6" font-size="34" font-weight="700">1000PEPEUSDT · AB=CD</text>
  <text x="904" y="74" fill="#8ba0b5" font-size="20" text-anchor="end">Bearish (매도) · Score 87.1</text>
  <line x1="72" y1="58" x2="920" y2="58" stroke="#223045" stroke-width="1" stroke-dasharray="4 8" /><line x1="72" y1="156" x2="920" y2="156" stroke="#223045" stroke-width="1" stroke-dasharray="4 8" /><line x1="72" y1="255" x2="920" y2="255" stroke="#223045" stroke-width="1" stroke-dasharray="4 8" /><line x1="72" y1="353" x2="920" y2="353" stroke="#223045" stroke-width="1" stroke-dasharray="4 8" /><line x1="72" y1="452" x2="920" y2="452" stroke="#223045" stroke-width="1" stroke-dasharray="4 8" />
  <rect x="849.06" y="154.50" width="84" height="127.96" fill="#fbbf24" fill-opacity="0.12" stroke="#fbbf24" stroke-width="1.5" stroke-dasharray="6 6" />
  <line x1="72.00" y1="342.17" x2="72.00" y2="367.76" stroke="#f6465d" stroke-width="1.4" /><rect x="69.00" y="345.90" width="6" height="14.93" rx="1.5" fill="#f6465d" /><line x1="82.73" y1="360.83" x2="82.73" y2="373.09" stroke="#f6465d" stroke-width="1.4" /><rect x="79.73" y="361.36" width="6" height="2.13" rx="1.5" fill="#f6465d" /><line x1="93.47" y1="354.43" x2="93.47" y2="384.82" stroke="#f6465d" stroke-width="1.4" /><rect x="90.47" y="363.50" width="6" height="5.86" rx="1.5" fill="#f6465d" /><line x1="104.20" y1="365.10" x2="104.20" y2="406.15" stroke="#f6465d" stroke-width="1.4" /><rect x="101.20" y="368.83" width="6" height="36.25" rx="1.5" fill="#f6465d" /><line x1="114.94" y1="383.22" x2="114.94" y2="426.41" stroke="#0ecb81" stroke-width="1.4" /><rect x="111.94" y="384.82" width="6" height="20.79" rx="1.5" fill="#0ecb81" /><line x1="125.67" y1="379.49" x2="125.67" y2="424.28" stroke="#f6465d" stroke-width="1.4" /><rect x="122.67" y="384.82" width="6" height="6.40" rx="1.5" fill="#f6465d" /><line x1="136.41" y1="316.58" x2="136.41" y2="395.49" stroke="#0ecb81" stroke-width="1.4" /><rect x="133.41" y="362.43" width="6" height="29.86" rx="1.5" fill="#0ecb81" /><line x1="147.14" y1="354.97" x2="147.14" y2="419.48" stroke="#f6465d" stroke-width="1.4" /><rect x="144.14" y="362.43" width="6" height="50.65" rx="1.5" fill="#f6465d" /><line x1="157.87" y1="413.61" x2="157.87" y2="452.00" stroke="#f6465d" stroke-width="1.4" /><rect x="154.87" y="413.61" width="6" height="17.06" rx="1.5" fill="#f6465d" /><line x1="168.61" y1="399.22" x2="168.61" y2="447.73" stroke="#0ecb81" stroke-width="1.4" /><rect x="165.61" y="409.35" width="6" height="21.86" rx="1.5" fill="#0ecb81" /><line x1="179.34" y1="357.10" x2="179.34" y2="429.07" stroke="#0ecb81" stroke-width="1.4" /><rect x="176.34" y="366.70" width="6" height="42.65" rx="1.5" fill="#0ecb81" /><line x1="190.08" y1="364.03" x2="190.08" y2="401.35" stroke="#f6465d" stroke-width="1.4" /><rect x="187.08" y="366.70" width="6" height="7.46" rx="1.5" fill="#f6465d" /><line x1="200.81" y1="367.76" x2="200.81" y2="393.35" stroke="#0ecb81" stroke-width="1.4" /><rect x="197.81" y="369.89" width="6" height="4.80" rx="1.5" fill="#0ecb81" /><line x1="211.54" y1="243.54" x2="211.54" y2="373.63" stroke="#0ecb81" stroke-width="1.4" /><rect x="208.54" y="320.31" width="6" height="49.58" rx="1.5" fill="#0ecb81" /><line x1="222.28" y1="320.31" x2="222.28" y2="389.62" stroke="#f6465d" stroke-width="1.4" /><rect x="219.28" y="320.31" width="6" height="58.65" rx="1.5" fill="#f6465d" /><line x1="233.01" y1="248.87" x2="233.01" y2="382.69" stroke="#0ecb81" stroke-width="1.4" /><rect x="230.01" y="306.98" width="6" height="71.98" rx="1.5" fill="#0ecb81" /><line x1="243.75" y1="301.65" x2="243.75" y2="338.97" stroke="#f6465d" stroke-width="1.4" /><rect x="240.75" y="306.98" width="6" height="12.26" rx="1.5" fill="#f6465d" /><line x1="254.48" y1="297.39" x2="254.48" y2="319.78" stroke="#0ecb81" stroke-width="1.4" /><rect x="251.48" y="313.38" width="6" height="5.86" rx="1.5" fill="#0ecb81" /><line x1="265.22" y1="295.79" x2="265.22" y2="322.98" stroke="#0ecb81" stroke-width="1.4" /><rect x="262.22" y="313.38" width="6" height="2.00" rx="1.5" fill="#0ecb81" /><line x1="275.95" y1="306.45" x2="275.95" y2="350.70" stroke="#f6465d" stroke-width="1.4" /><rect x="272.95" y="313.38" width="6" height="33.59" rx="1.5" fill="#f6465d" /><line x1="286.68" y1="296.32" x2="286.68" y2="354.43" stroke="#0ecb81" stroke-width="1.4" /><rect x="283.68" y="312.31" width="6" height="34.12" rx="1.5" fill="#0ecb81" /><line x1="297.42" y1="278.19" x2="297.42" y2="318.71" stroke="#0ecb81" stroke-width="1.4" /><rect x="294.42" y="298.99" width="6" height="13.33" rx="1.5" fill="#0ecb81" /><line x1="308.15" y1="285.12" x2="308.15" y2="323.51" stroke="#f6465d" stroke-width="1.4" /><rect x="305.15" y="298.45" width="6" height="2.67" rx="1.5" fill="#f6465d" /><line x1="318.89" y1="268.60" x2="318.89" y2="318.18" stroke="#f6465d" stroke-width="1.4" /><rect x="315.89" y="300.58" width="6" height="15.46" rx="1.5" fill="#f6465d" /><line x1="329.62" y1="315.51" x2="329.62" y2="362.96" stroke="#f6465d" stroke-width="1.4" /><rect x="326.62" y="315.51" width="6" height="24.53" rx="1.5" fill="#f6465d" /><line x1="340.35" y1="335.24" x2="340.35" y2="375.76" stroke="#f6465d" stroke-width="1.4" /><rect x="337.35" y="339.50" width="6" height="2.00" rx="1.5" fill="#f6465d" /><line x1="351.09" y1="287.79" x2="351.09" y2="340.57" stroke="#0ecb81" stroke-width="1.4" /><rect x="348.09" y="322.98" width="6" height="17.06" rx="1.5" fill="#0ecb81" /><line x1="361.82" y1="207.82" x2="361.82" y2="322.98" stroke="#0ecb81" stroke-width="1.4" /><rect x="358.82" y="297.39" width="6" height="25.59" rx="1.5" fill="#0ecb81" /><line x1="372.56" y1="272.86" x2="372.56" y2="305.38" stroke="#0ecb81" stroke-width="1.4" /><rect x="369.56" y="287.26" width="6" height="9.60" rx="1.5" fill="#0ecb81" /><line x1="383.29" y1="245.67" x2="383.29" y2="289.92" stroke="#0ecb81" stroke-width="1.4" /><rect x="380.29" y="278.19" width="6" height="10.13" rx="1.5" fill="#0ecb81" /><line x1="394.03" y1="265.93" x2="394.03" y2="298.45" stroke="#f6465d" stroke-width="1.4" /><rect x="391.03" y="278.73" width="6" height="3.73" rx="1.5" fill="#f6465d" /><line x1="404.76" y1="251.53" x2="404.76" y2="293.65" stroke="#0ecb81" stroke-width="1.4" /><rect x="401.76" y="253.13" width="6" height="29.32" rx="1.5" fill="#0ecb81" /><line x1="415.49" y1="197.69" x2="415.49" y2="256.33" stroke="#0ecb81" stroke-width="1.4" /><rect x="412.49" y="200.88" width="6" height="51.72" rx="1.5" fill="#0ecb81" /><line x1="426.23" y1="155.03" x2="426.23" y2="229.14" stroke="#0ecb81" stroke-width="1.4" /><rect x="423.23" y="198.22" width="6" height="3.73" rx="1.5" fill="#0ecb81" /><line x1="436.96" y1="184.36" x2="436.96" y2="220.08" stroke="#f6465d" stroke-width="1.4" /><rect x="433.96" y="197.69" width="6" height="8.53" rx="1.5" fill="#f6465d" /><line x1="447.70" y1="169.43" x2="447.70" y2="217.95" stroke="#0ecb81" stroke-width="1.4" /><rect x="444.70" y="205.15" width="6" height="2.00" rx="1.5" fill="#0ecb81" /><line x1="458.43" y1="193.42" x2="458.43" y2="265.40" stroke="#f6465d" stroke-width="1.4" /><rect x="455.43" y="205.15" width="6" height="26.12" rx="1.5" fill="#f6465d" /><line x1="469.16" y1="109.72" x2="469.16" y2="237.67" stroke="#0ecb81" stroke-width="1.4" /><rect x="466.16" y="132.64" width="6" height="99.17" rx="1.5" fill="#0ecb81" /><line x1="479.90" y1="58.00" x2="479.90" y2="160.37" stroke="#0ecb81" stroke-width="1.4" /><rect x="476.90" y="132.11" width="6" height="2.00" rx="1.5" fill="#0ecb81" /><line x1="490.63" y1="127.31" x2="490.63" y2="230.21" stroke="#f6465d" stroke-width="1.4" /><rect x="487.63" y="131.58" width="6" height="91.70" rx="1.5" fill="#f6465d" /><line x1="501.37" y1="180.63" x2="501.37" y2="235.01" stroke="#0ecb81" stroke-width="1.4" /><rect x="498.37" y="188.09" width="6" height="34.65" rx="1.5" fill="#0ecb81" /><line x1="512.10" y1="173.16" x2="512.10" y2="210.48" stroke="#f6465d" stroke-width="1.4" /><rect x="509.10" y="188.09" width="6" height="3.73" rx="1.5" fill="#f6465d" /><line x1="522.84" y1="157.17" x2="522.84" y2="206.22" stroke="#f6465d" stroke-width="1.4" /><rect x="519.84" y="191.82" width="6" height="8.00" rx="1.5" fill="#f6465d" /><line x1="533.57" y1="188.62" x2="533.57" y2="257.40" stroke="#f6465d" stroke-width="1.4" /><rect x="530.57" y="199.29" width="6" height="19.19" rx="1.5" fill="#f6465d" /><line x1="544.30" y1="206.75" x2="544.30" y2="254.20" stroke="#f6465d" stroke-width="1.4" /><rect x="541.30" y="218.48" width="6" height="31.46" rx="1.5" fill="#f6465d" /><line x1="555.04" y1="213.68" x2="555.04" y2="254.20" stroke="#0ecb81" stroke-width="1.4" /><rect x="552.04" y="225.41" width="6" height="25.06" rx="1.5" fill="#0ecb81" /><line x1="565.77" y1="223.28" x2="565.77" y2="276.59" stroke="#f6465d" stroke-width="1.4" /><rect x="562.77" y="225.94" width="6" height="27.72" rx="1.5" fill="#f6465d" /><line x1="576.51" y1="253.67" x2="576.51" y2="281.39" stroke="#f6465d" stroke-width="1.4" /><rect x="573.51" y="253.67" width="6" height="20.26" rx="1.5" fill="#f6465d" /><line x1="587.24" y1="259.00" x2="587.24" y2="292.05" stroke="#f6465d" stroke-width="1.4" /><rect x="584.24" y="274.46" width="6" height="10.13" rx="1.5" fill="#f6465d" /><line x1="597.97" y1="281.39" x2="597.97" y2="344.84" stroke="#f6465d" stroke-width="1.4" /><rect x="594.97" y="284.06" width="6" height="50.12" rx="1.5" fill="#f6465d" /><line x1="608.71" y1="320.31" x2="608.71" y2="433.34" stroke="#f6465d" stroke-width="1.4" /><rect x="605.71" y="333.64" width="6" height="31.99" rx="1.5" fill="#f6465d" /><line x1="619.44" y1="341.10" x2="619.44" y2="377.36" stroke="#0ecb81" stroke-width="1.4" /><rect x="616.44" y="350.17" width="6" height="15.46" rx="1.5" fill="#0ecb81" /><line x1="630.18" y1="325.64" x2="630.18" y2="361.36" stroke="#0ecb81" stroke-width="1.4" /><rect x="627.18" y="332.57" width="6" height="17.59" rx="1.5" fill="#0ecb81" /><line x1="640.91" y1="300.58" x2="640.91" y2="364.56" stroke="#0ecb81" stroke-width="1.4" /><rect x="637.91" y="302.18" width="6" height="30.39" rx="1.5" fill="#0ecb81" /><line x1="651.65" y1="282.46" x2="651.65" y2="314.45" stroke="#0ecb81" stroke-width="1.4" /><rect x="648.65" y="302.18" width="6" height="2.00" rx="1.5" fill="#0ecb81" /><line x1="662.38" y1="294.72" x2="662.38" y2="354.43" stroke="#f6465d" stroke-width="1.4" /><rect x="659.38" y="302.18" width="6" height="45.32" rx="1.5" fill="#f6465d" /><line x1="673.11" y1="329.91" x2="673.11" y2="361.90" stroke="#0ecb81" stroke-width="1.4" /><rect x="670.11" y="336.31" width="6" height="10.66" rx="1.5" fill="#0ecb81" /><line x1="683.85" y1="306.98" x2="683.85" y2="349.63" stroke="#0ecb81" stroke-width="1.4" /><rect x="680.85" y="314.45" width="6" height="22.39" rx="1.5" fill="#0ecb81" /><line x1="694.58" y1="308.05" x2="694.58" y2="348.04" stroke="#f6465d" stroke-width="1.4" /><rect x="691.58" y="314.45" width="6" height="5.86" rx="1.5" fill="#f6465d" /><line x1="705.32" y1="303.25" x2="705.32" y2="344.30" stroke="#f6465d" stroke-width="1.4" /><rect x="702.32" y="319.78" width="6" height="14.93" rx="1.5" fill="#f6465d" /><line x1="716.05" y1="312.85" x2="716.05" y2="344.30" stroke="#0ecb81" stroke-width="1.4" /><rect x="713.05" y="320.84" width="6" height="13.33" rx="1.5" fill="#0ecb81" /><line x1="726.78" y1="316.58" x2="726.78" y2="337.37" stroke="#f6465d" stroke-width="1.4" /><rect x="723.78" y="320.84" width="6" height="6.40" rx="1.5" fill="#f6465d" /><line x1="737.52" y1="323.51" x2="737.52" y2="361.36" stroke="#f6465d" stroke-width="1.4" /><rect x="734.52" y="326.71" width="6" height="28.79" rx="1.5" fill="#f6465d" /><line x1="748.25" y1="341.64" x2="748.25" y2="370.96" stroke="#0ecb81" stroke-width="1.4" /><rect x="745.25" y="342.17" width="6" height="13.86" rx="1.5" fill="#0ecb81" /><line x1="758.99" y1="342.17" x2="758.99" y2="373.09" stroke="#f6465d" stroke-width="1.4" /><rect x="755.99" y="342.17" width="6" height="21.33" rx="1.5" fill="#f6465d" /><line x1="769.72" y1="346.44" x2="769.72" y2="374.16" stroke="#0ecb81" stroke-width="1.4" /><rect x="766.72" y="357.63" width="6" height="5.86" rx="1.5" fill="#0ecb81" /><line x1="780.46" y1="352.30" x2="780.46" y2="374.69" stroke="#f6465d" stroke-width="1.4" /><rect x="777.46" y="357.63" width="6" height="13.86" rx="1.5" fill="#f6465d" /><line x1="791.19" y1="337.91" x2="791.19" y2="389.09" stroke="#0ecb81" stroke-width="1.4" /><rect x="788.19" y="350.17" width="6" height="21.33" rx="1.5" fill="#0ecb81" /><line x1="801.92" y1="337.37" x2="801.92" y2="389.62" stroke="#f6465d" stroke-width="1.4" /><rect x="798.92" y="350.17" width="6" height="25.59" rx="1.5" fill="#f6465d" /><line x1="812.66" y1="369.36" x2="812.66" y2="414.15" stroke="#f6465d" stroke-width="1.4" /><rect x="809.66" y="376.29" width="6" height="27.19" rx="1.5" fill="#f6465d" /><line x1="823.39" y1="393.89" x2="823.39" y2="431.74" stroke="#f6465d" stroke-width="1.4" /><rect x="820.39" y="404.02" width="6" height="15.46" rx="1.5" fill="#f6465d" /><line x1="834.13" y1="361.36" x2="834.13" y2="431.21" stroke="#0ecb81" stroke-width="1.4" /><rect x="831.13" y="364.56" width="6" height="54.91" rx="1.5" fill="#0ecb81" /><line x1="844.86" y1="333.11" x2="844.86" y2="372.03" stroke="#0ecb81" stroke-width="1.4" /><rect x="841.86" y="337.37" width="6" height="26.66" rx="1.5" fill="#0ecb81" /><line x1="855.59" y1="315.51" x2="855.59" y2="348.57" stroke="#0ecb81" stroke-width="1.4" /><rect x="852.59" y="327.78" width="6" height="9.60" rx="1.5" fill="#0ecb81" /><line x1="866.33" y1="321.91" x2="866.33" y2="363.50" stroke="#0ecb81" stroke-width="1.4" /><rect x="863.33" y="326.71" width="6" height="2.00" rx="1.5" fill="#0ecb81" /><line x1="877.06" y1="303.78" x2="877.06" y2="357.10" stroke="#f6465d" stroke-width="1.4" /><rect x="874.06" y="326.18" width="6" height="28.79" rx="1.5" fill="#f6465d" /><line x1="887.80" y1="308.05" x2="887.80" y2="354.97" stroke="#0ecb81" stroke-width="1.4" /><rect x="884.80" y="308.05" width="6" height="46.92" rx="1.5" fill="#0ecb81" /><line x1="898.53" y1="308.05" x2="898.53" y2="343.24" stroke="#f6465d" stroke-width="1.4" /><rect x="895.53" y="308.05" width="6" height="17.06" rx="1.5" fill="#f6465d" /><line x1="909.27" y1="320.31" x2="909.27" y2="395.49" stroke="#f6465d" stroke-width="1.4" /><rect x="906.27" y="325.11" width="6" height="66.64" rx="1.5" fill="#f6465d" /><line x1="920.00" y1="369.36" x2="920.00" y2="414.68" stroke="#f6465d" stroke-width="1.4" /><rect x="917.00" y="392.82" width="6" height="11.73" rx="1.5" fill="#f6465d" />
  <polyline points="479.90,58.53 608.71,431.74 651.65,282.46 823.39,431.74 877.06,303.78" fill="none" stroke="#2fc273" stroke-width="4" stroke-linecap="round" stroke-linejoin="round" />
  <circle cx="479.90" cy="58.53" r="5.5" fill="#2fc273" fill-opacity="0.15" stroke="#2fc273" stroke-width="2" /><text x="479.90" y="46.53" fill="#f3f4f6" font-size="15" font-weight="700" text-anchor="middle">X</text><circle cx="608.71" cy="431.74" r="5.5" fill="#2fc273" fill-opacity="0.15" stroke="#2fc273" stroke-width="2" /><text x="608.71" y="419.74" fill="#f3f4f6" font-size="15" font-weight="700" text-anchor="middle">A</text><circle cx="651.65" cy="282.46" r="5.5" fill="#2fc273" fill-opacity="0.15" stroke="#2fc273" stroke-width="2" /><text x="651.65" y="270.46" fill="#f3f4f6" font-size="15" font-weight="700" text-anchor="middle">B</text><circle cx="823.39" cy="431.74" r="5.5" fill="#2fc273" fill-opacity="0.15" stroke="#2fc273" stroke-width="2" /><text x="823.39" y="419.74" fill="#f3f4f6" font-size="15" font-weight="700" text-anchor="middle">C</text><circle cx="877.06" cy="303.78" r="5.5" fill="#2fc273" fill-opacity="0.15" stroke="#2fc273" stroke-width="2" /><text x="877.06" y="291.78" fill="#f3f4f6" font-size="15" font-weight="700" text-anchor="middle">D</text>
  <text x="56" y="492" fill="#8ba0b5" font-size="18">Complete · TP1 0.002923 · TP2 0.002917 · SL 0.002941</text>
</svg>
