<svg xmlns="http://www.w3.org/2000/svg" width="960" height="540" viewBox="0 0 960 540">
  <rect width="960" height="540" rx="24" fill="#0b1220" />
  <rect x="28" y="28" width="904" height="484" rx="22" fill="#111827" stroke="#1f2937" />
  <text x="56" y="74" fill="#f3f4f6" font-size="34" font-weight="700">ADAUSDT · AB=CD</text>
  <text x="904" y="74" fill="#8ba0b5" font-size="20" text-anchor="end">Bearish (매도) · Score 85.7</text>
  <line x1="72" y1="58" x2="920" y2="58" stroke="#223045" stroke-width="1" stroke-dasharray="4 8" /><line x1="72" y1="156" x2="920" y2="156" stroke="#223045" stroke-width="1" stroke-dasharray="4 8" /><line x1="72" y1="255" x2="920" y2="255" stroke="#223045" stroke-width="1" stroke-dasharray="4 8" /><line x1="72" y1="353" x2="920" y2="353" stroke="#223045" stroke-width="1" stroke-dasharray="4 8" /><line x1="72" y1="452" x2="920" y2="452" stroke="#223045" stroke-width="1" stroke-dasharray="4 8" />
  <rect x="859.80" y="-11.29" width="84" height="29.66" fill="#fbbf24" fill-opacity="0.12" stroke="#fbbf24" stroke-width="1.5" stroke-dasharray="6 6" />
  <line x1="72.00" y1="424.83" x2="72.00" y2="433.89" stroke="#f6465d" stroke-width="1.4" /><rect x="69.00" y="427.09" width="6" height="6.79" rx="1.5" fill="#f6465d" /><line x1="82.73" y1="429.36" x2="82.73" y2="436.15" stroke="#f6465d" stroke-width="1.4" /><rect x="79.73" y="431.62" width="6" height="2.26" rx="1.5" fill="#f6465d" /><line x1="93.47" y1="429.36" x2="93.47" y2="445.21" stroke="#f6465d" stroke-width="1.4" /><rect x="90.47" y="431.62" width="6" height="9.06" rx="1.5" fill="#f6465d" /><line x1="104.20" y1="438.41" x2="104.20" y2="445.21" stroke="#f6465d" stroke-width="1.4" /><rect x="101.20" y="440.68" width="6" height="4.53" rx="1.5" fill="#f6465d" /><line x1="114.94" y1="442.94" x2="114.94" y2="452.00" stroke="#f6465d" stroke-width="1.4" /><rect x="111.94" y="442.94" width="6" height="6.79" rx="1.5" fill="#f6465d" /><line x1="125.67" y1="433.89" x2="125.67" y2="449.74" stroke="#0ecb81" stroke-width="1.4" /><rect x="122.67" y="436.15" width="6" height="11.32" rx="1.5" fill="#0ecb81" /><line x1="136.41" y1="413.51" x2="136.41" y2="440.68" stroke="#0ecb81" stroke-width="1.4" /><rect x="133.41" y="418.03" width="6" height="18.11" rx="1.5" fill="#0ecb81" /><line x1="147.14" y1="386.33" x2="147.14" y2="418.03" stroke="#0ecb81" stroke-width="1.4" /><rect x="144.14" y="386.33" width="6" height="29.44" rx="1.5" fill="#0ecb81" /><line x1="157.87" y1="381.80" x2="157.87" y2="397.66" stroke="#f6465d" stroke-width="1.4" /><rect x="154.87" y="388.60" width="6" height="2.26" rx="1.5" fill="#f6465d" /><line x1="168.61" y1="338.78" x2="168.61" y2="402.18" stroke="#0ecb81" stroke-width="1.4" /><rect x="165.61" y="390.86" width="6" height="2.00" rx="1.5" fill="#0ecb81" /><line x1="179.34" y1="388.60" x2="179.34" y2="413.51" stroke="#f6465d" stroke-width="1.4" /><rect x="176.34" y="390.86" width="6" height="4.53" rx="1.5" fill="#f6465d" /><line x1="190.08" y1="395.39" x2="190.08" y2="415.77" stroke="#f6465d" stroke-width="1.4" /><rect x="187.08" y="395.39" width="6" height="9.06" rx="1.5" fill="#f6465d" /><line x1="200.81" y1="399.92" x2="200.81" y2="415.77" stroke="#f6465d" stroke-width="1.4" /><rect x="197.81" y="404.45" width="6" height="6.79" rx="1.5" fill="#f6465d" /><line x1="211.54" y1="406.71" x2="211.54" y2="424.83" stroke="#f6465d" stroke-width="1.4" /><rect x="208.54" y="413.51" width="6" height="6.79" rx="1.5" fill="#f6465d" /><line x1="222.28" y1="413.51" x2="222.28" y2="433.89" stroke="#0ecb81" stroke-width="1.4" /><rect x="219.28" y="415.77" width="6" height="6.79" rx="1.5" fill="#0ecb81" /><line x1="233.01" y1="388.60" x2="233.01" y2="420.30" stroke="#0ecb81" stroke-width="1.4" /><rect x="230.01" y="402.18" width="6" height="15.85" rx="1.5" fill="#0ecb81" /><line x1="243.75" y1="390.86" x2="243.75" y2="408.98" stroke="#0ecb81" stroke-width="1.4" /><rect x="240.75" y="390.86" width="6" height="11.32" rx="1.5" fill="#0ecb81" /><line x1="254.48" y1="365.95" x2="254.48" y2="399.92" stroke="#0ecb81" stroke-width="1.4" /><rect x="251.48" y="377.28" width="6" height="13.59" rx="1.5" fill="#0ecb81" /><line x1="265.22" y1="356.90" x2="265.22" y2="381.80" stroke="#0ecb81" stroke-width="1.4" /><rect x="262.22" y="359.16" width="6" height="20.38" rx="1.5" fill="#0ecb81" /><line x1="275.95" y1="354.63" x2="275.95" y2="372.75" stroke="#f6465d" stroke-width="1.4" /><rect x="272.95" y="361.43" width="6" height="9.06" rx="1.5" fill="#f6465d" /><line x1="286.68" y1="345.57" x2="286.68" y2="372.75" stroke="#0ecb81" stroke-width="1.4" /><rect x="283.68" y="352.37" width="6" height="18.11" rx="1.5" fill="#0ecb81" /><line x1="297.42" y1="338.78" x2="297.42" y2="368.22" stroke="#f6465d" stroke-width="1.4" /><rect x="294.42" y="352.37" width="6" height="6.79" rx="1.5" fill="#f6465d" /><line x1="308.15" y1="318.40" x2="308.15" y2="361.43" stroke="#0ecb81" stroke-width="1.4" /><rect x="305.15" y="338.78" width="6" height="20.38" rx="1.5" fill="#0ecb81" /><line x1="318.89" y1="322.93" x2="318.89" y2="347.84" stroke="#0ecb81" stroke-width="1.4" /><rect x="315.89" y="322.93" width="6" height="15.85" rx="1.5" fill="#0ecb81" /><line x1="329.62" y1="261.79" x2="329.62" y2="322.93" stroke="#0ecb81" stroke-width="1.4" /><rect x="326.62" y="266.32" width="6" height="56.61" rx="1.5" fill="#0ecb81" /><line x1="340.35" y1="266.32" x2="340.35" y2="304.82" stroke="#f6465d" stroke-width="1.4" /><rect x="337.35" y="266.32" width="6" height="27.17" rx="1.5" fill="#f6465d" /><line x1="351.09" y1="279.91" x2="351.09" y2="300.29" stroke="#0ecb81" stroke-width="1.4" /><rect x="348.09" y="284.44" width="6" height="11.32" rx="1.5" fill="#0ecb81" /><line x1="361.82" y1="250.47" x2="361.82" y2="288.97" stroke="#0ecb81" stroke-width="1.4" /><rect x="358.82" y="255.00" width="6" height="31.70" rx="1.5" fill="#0ecb81" /><line x1="372.56" y1="248.21" x2="372.56" y2="266.32" stroke="#f6465d" stroke-width="1.4" /><rect x="369.56" y="255.00" width="6" height="9.06" rx="1.5" fill="#f6465d" /><line x1="383.29" y1="261.79" x2="383.29" y2="279.91" stroke="#f6465d" stroke-width="1.4" /><rect x="380.29" y="264.06" width="6" height="9.06" rx="1.5" fill="#f6465d" /><line x1="394.03" y1="261.79" x2="394.03" y2="273.11" stroke="#0ecb81" stroke-width="1.4" /><rect x="391.03" y="264.06" width="6" height="9.06" rx="1.5" fill="#0ecb81" /><line x1="404.76" y1="252.74" x2="404.76" y2="268.59" stroke="#0ecb81" stroke-width="1.4" /><rect x="401.76" y="261.79" width="6" height="2.26" rx="1.5" fill="#0ecb81" /><line x1="415.49" y1="250.47" x2="415.49" y2="264.06" stroke="#0ecb81" stroke-width="1.4" /><rect x="412.49" y="252.74" width="6" height="11.32" rx="1.5" fill="#0ecb81" /><line x1="426.23" y1="116.87" x2="426.23" y2="252.74" stroke="#0ecb81" stroke-width="1.4" /><rect x="423.23" y="180.28" width="6" height="70.20" rx="1.5" fill="#0ecb81" /><line x1="436.96" y1="159.90" x2="436.96" y2="182.54" stroke="#0ecb81" stroke-width="1.4" /><rect x="433.96" y="166.69" width="6" height="13.59" rx="1.5" fill="#0ecb81" /><line x1="447.70" y1="159.90" x2="447.70" y2="184.80" stroke="#0ecb81" stroke-width="1.4" /><rect x="444.70" y="162.16" width="6" height="6.79" rx="1.5" fill="#0ecb81" /><line x1="458.43" y1="144.05" x2="458.43" y2="180.28" stroke="#f6465d" stroke-width="1.4" /><rect x="455.43" y="162.16" width="6" height="18.11" rx="1.5" fill="#f6465d" /><line x1="469.16" y1="164.43" x2="469.16" y2="198.39" stroke="#0ecb81" stroke-width="1.4" /><rect x="466.16" y="168.95" width="6" height="11.32" rx="1.5" fill="#0ecb81" /><line x1="479.90" y1="157.63" x2="479.90" y2="175.75" stroke="#0ecb81" stroke-width="1.4" /><rect x="476.90" y="166.69" width="6" height="2.26" rx="1.5" fill="#0ecb81" /><line x1="490.63" y1="150.84" x2="490.63" y2="184.80" stroke="#f6465d" stroke-width="1.4" /><rect x="487.63" y="168.95" width="6" height="11.32" rx="1.5" fill="#f6465d" /><line x1="501.37" y1="162.16" x2="501.37" y2="182.54" stroke="#0ecb81" stroke-width="1.4" /><rect x="498.37" y="166.69" width="6" height="15.85" rx="1.5" fill="#0ecb81" /><line x1="512.10" y1="141.78" x2="512.10" y2="168.95" stroke="#0ecb81" stroke-width="1.4" /><rect x="509.10" y="146.31" width="6" height="20.38" rx="1.5" fill="#0ecb81" /><line x1="522.84" y1="132.72" x2="522.84" y2="159.90" stroke="#f6465d" stroke-width="1.4" /><rect x="519.84" y="146.31" width="6" height="9.06" rx="1.5" fill="#f6465d" /><line x1="533.57" y1="155.37" x2="533.57" y2="171.22" stroke="#f6465d" stroke-width="1.4" /><rect x="530.57" y="155.37" width="6" height="9.06" rx="1.5" fill="#f6465d" /><line x1="544.30" y1="162.16" x2="544.30" y2="184.80" stroke="#f6465d" stroke-width="1.4" /><rect x="541.30" y="164.43" width="6" height="9.06" rx="1.5" fill="#f6465d" /><line x1="555.04" y1="153.10" x2="555.04" y2="178.01" stroke="#0ecb81" stroke-width="1.4" /><rect x="552.04" y="173.48" width="6" height="2.00" rx="1.5" fill="#0ecb81" /><line x1="565.77" y1="164.43" x2="565.77" y2="187.07" stroke="#0ecb81" stroke-width="1.4" /><rect x="562.77" y="171.22" width="6" height="2.26" rx="1.5" fill="#0ecb81" /><line x1="576.51" y1="157.63" x2="576.51" y2="173.48" stroke="#0ecb81" stroke-width="1.4" /><rect x="573.51" y="171.22" width="6" height="2.00" rx="1.5" fill="#0ecb81" /><line x1="587.24" y1="168.95" x2="587.24" y2="191.60" stroke="#f6465d" stroke-width="1.4" /><rect x="584.24" y="171.22" width="6" height="13.59" rx="1.5" fill="#f6465d" /><line x1="597.97" y1="180.28" x2="597.97" y2="209.71" stroke="#0ecb81" stroke-width="1.4" /><rect x="594.97" y="187.07" width="6" height="2.00" rx="1.5" fill="#0ecb81" /><line x1="608.71" y1="182.54" x2="608.71" y2="191.60" stroke="#0ecb81" stroke-width="1.4" /><rect x="605.71" y="182.54" width="6" height="4.53" rx="1.5" fill="#0ecb81" /><line x1="619.44" y1="171.22" x2="619.44" y2="184.80" stroke="#0ecb81" stroke-width="1.4" /><rect x="616.44" y="173.48" width="6" height="11.32" rx="1.5" fill="#0ecb81" /><line x1="630.18" y1="157.63" x2="630.18" y2="175.75" stroke="#0ecb81" stroke-width="1.4" /><rect x="627.18" y="166.69" width="6" height="9.06" rx="1.5" fill="#0ecb81" /><line x1="640.91" y1="164.43" x2="640.91" y2="173.48" stroke="#0ecb81" stroke-width="1.4" /><rect x="637.91" y="166.69" width="6" height="2.26" rx="1.5" fill="#0ecb81" /><line x1="651.65" y1="159.90" x2="651.65" y2="171.22" stroke="#f6465d" stroke-width="1.4" /><rect x="648.65" y="166.69" width="6" height="4.53" rx="1.5" fill="#f6465d" /><line x1="662.38" y1="159.90" x2="662.38" y2="175.75" stroke="#f6465d" stroke-width="1.4" /><rect x="659.38" y="168.95" width="6" height="4.53" rx="1.5" fill="#f6465d" /><line x1="673.11" y1="164.43" x2="673.11" y2="175.75" stroke="#0ecb81" stroke-width="1.4" /><rect x="670.11" y="164.43" width="6" height="11.32" rx="1.5" fill="#0ecb81" /><line x1="683.85" y1="148.57" x2="683.85" y2="173.48" stroke="#0ecb81" stroke-width="1.4" /><rect x="680.85" y="150.84" width="6" height="13.59" rx="1.5" fill="#0ecb81" /><line x1="694.58" y1="141.78" x2="694.58" y2="166.69" stroke="#0ecb81" stroke-width="1.4" /><rect x="691.58" y="146.31" width="6" height="4.53" rx="1.5" fill="#0ecb81" /><line x1="705.32" y1="58.00" x2="705.32" y2="146.31" stroke="#0ecb81" stroke-width="1.4" /><rect x="702.32" y="96.49" width="6" height="47.55" rx="1.5" fill="#0ecb81" /><line x1="716.05" y1="82.91" x2="716.05" y2="112.34" stroke="#0ecb81" stroke-width="1.4" /><rect x="713.05" y="89.70" width="6" height="6.79" rx="1.5" fill="#0ecb81" /><line x1="726.78" y1="87.44" x2="726.78" y2="119.14" stroke="#f6465d" stroke-width="1.4" /><rect x="723.78" y="89.70" width="6" height="20.38" rx="1.5" fill="#f6465d" /><line x1="737.52" y1="101.02" x2="737.52" y2="119.14" stroke="#0ecb81" stroke-width="1.4" /><rect x="734.52" y="103.29" width="6" height="9.06" rx="1.5" fill="#0ecb81" /><line x1="748.25" y1="82.91" x2="748.25" y2="103.29" stroke="#0ecb81" stroke-width="1.4" /><rect x="745.25" y="91.97" width="6" height="11.32" rx="1.5" fill="#0ecb81" /><line x1="758.99" y1="89.70" x2="758.99" y2="112.34" stroke="#f6465d" stroke-width="1.4" /><rect x="755.99" y="91.97" width="6" height="11.32" rx="1.5" fill="#f6465d" /><line x1="769.72" y1="103.29" x2="769.72" y2="114.61" stroke="#f6465d" stroke-width="1.4" /><rect x="766.72" y="103.29" width="6" height="2.26" rx="1.5" fill="#f6465d" /><line x1="780.46" y1="91.97" x2="780.46" y2="110.08" stroke="#0ecb81" stroke-width="1.4" /><rect x="777.46" y="98.76" width="6" height="6.79" rx="1.5" fill="#0ecb81" /><line x1="791.19" y1="94.23" x2="791.19" y2="112.34" stroke="#f6465d" stroke-width="1.4" /><rect x="788.19" y="101.02" width="6" height="6.79" rx="1.5" fill="#f6465d" /><line x1="801.92" y1="105.55" x2="801.92" y2="112.34" stroke="#f6465d" stroke-width="1.4" /><rect x="798.92" y="107.82" width="6" height="4.53" rx="1.5" fill="#f6465d" /><line x1="812.66" y1="98.76" x2="812.66" y2="112.34" stroke="#0ecb81" stroke-width="1.4" /><rect x="809.66" y="103.29" width="6" height="6.79" rx="1.5" fill="#0ecb81" /><line x1="823.39" y1="94.23" x2="823.39" y2="110.08" stroke="#0ecb81" stroke-width="1.4" /><rect x="820.39" y="96.49" width="6" height="6.79" rx="1.5" fill="#0ecb81" /><line x1="834.13" y1="87.44" x2="834.13" y2="110.08" stroke="#f6465d" stroke-width="1.4" /><rect x="831.13" y="96.49" width="6" height="11.32" rx="1.5" fill="#f6465d" /><line x1="844.86" y1="94.23" x2="844.86" y2="119.14" stroke="#f6465d" stroke-width="1.4" /><rect x="841.86" y="107.82" width="6" height="4.53" rx="1.5" fill="#f6465d" /><line x1="855.59" y1="105.55" x2="855.59" y2="128.20" stroke="#f6465d" stroke-width="1.4" /><rect x="852.59" y="114.61" width="6" height="9.06" rx="1.5" fill="#f6465d" /><line x1="866.33" y1="116.87" x2="866.33" y2="125.93" stroke="#0ecb81" stroke-width="1.4" /><rect x="863.33" y="119.14" width="6" height="2.26" rx="1.5" fill="#0ecb81" /><line x1="877.06" y1="112.34" x2="877.06" y2="121.40" stroke="#0ecb81" stroke-width="1.4" /><rect x="874.06" y="114.61" width="6" height="2.26" rx="1.5" fill="#0ecb81" /><line x1="887.80" y1="101.02" x2="887.80" y2="121.40" stroke="#0ecb81" stroke-width="1.4" /><rect x="884.80" y="110.08" width="6" height="4.53" rx="1.5" fill="#0ecb81" /><line x1="898.53" y1="110.08" x2="898.53" y2="123.67" stroke="#f6465d" stroke-width="1.4" /><rect x="895.53" y="110.08" width="6" height="4.53" rx="1.5" fill="#f6465d" /><line x1="909.27" y1="103.29" x2="909.27" y2="116.87" stroke="#0ecb81" stroke-width="1.4" /><rect x="906.27" y="110.08" width="6" height="2.26" rx="1.5" fill="#0ecb81" /><line x1="920.00" y1="105.55" x2="920.00" y2="123.67" stroke="#f6465d" stroke-width="1.4" /><rect x="917.00" y="112.34" width="6" height="2.26" rx="1.5" fill="#f6465d" />
  <polyline points="630.18,157.63 673.11,175.75 705.32,58.00 855.59,128.20 887.80,101.02" fill="none" stroke="#2fc273" stroke-width="4" stroke-linecap="round" stroke-linejoin="round" />
  <circle cx="630.18" cy="157.63" r="5.5" fill="#2fc273" fill-opacity="0.15" stroke="#2fc273" stroke-width="2" /><text x="630.18" y="145.63" fill="#f3f4f6" font-size="15" font-weight="700" text-anchor="middle">X</text><circle cx="673.11" cy="175.75" r="5.5" fill="#2fc273" fill-opacity="0.15" stroke="#2fc273" stroke-width="2" /><text x="673.11" y="163.75" fill="#f3f4f6" font-size="15" font-weight="700" text-anchor="middle">A</text><circle cx="705.32" cy="58.00" r="5.5" fill="#2fc273" fill-opacity="0.15" stroke="#2fc273" stroke-width="2" /><text x="705.32" y="46.00" fill="#f3f4f6" font-size="15" font-weight="700" text-anchor="middle">B</text><circle cx="855.59" cy="128.20" r="5.5" fill="#2fc273" fill-opacity="0.15" stroke="#2fc273" stroke-width="2" /><text x="855.59" y="116.20" fill="#f3f4f6" font-size="15" font-weight="700" text-anchor="middle">C</text><circle cx="887.80" cy="101.02" r="5.5" fill="#2fc273" fill-opacity="0.15" stroke="#2fc273" stroke-width="2" /><text x="887.80" y="89.02" fill="#f3f4f6" font-size="15" font-weight="700" text-anchor="middle">D</text>
  <text x="56" y="492" fill="#8ba0b5" font-size="18">일반 완성 · TP1 0.25694 · TP2 0.25666 · SL 0.2575</text>
</svg>
