<svg xmlns="http://www.w3.org/2000/svg" width="960" height="540" viewBox="0 0 960 540">
  <rect width="960" height="540" rx="24" fill="#0b1220" />
  <rect x="28" y="28" width="904" height="484" rx="22" fill="#111827" stroke="#1f2937" />
  <text x="56" y="74" fill="#f3f4f6" font-size="34" font-weight="700">AEROUSDT · AB=CD</text>
  <text x="904" y="74" fill="#8ba0b5" font-size="20" text-anchor="end">Bullish (매수) · Score 86.9</text>
  <line x1="72" y1="58" x2="920" y2="58" stroke="#223045" stroke-width="1" stroke-dasharray="4 8" /><line x1="72" y1="156" x2="920" y2="156" stroke="#223045" stroke-width="1" stroke-dasharray="4 8" /><line x1="72" y1="255" x2="920" y2="255" stroke="#223045" stroke-width="1" stroke-dasharray="4 8" /><line x1="72" y1="353" x2="920" y2="353" stroke="#223045" stroke-width="1" stroke-dasharray="4 8" /><line x1="72" y1="452" x2="920" y2="452" stroke="#223045" stroke-width="1" stroke-dasharray="4 8" />
  <rect x="65.47" y="483.08" width="84" height="39.77" fill="#fbbf24" fill-opacity="0.12" stroke="#fbbf24" stroke-width="1.5" stroke-dasharray="6 6" />
  <line x1="72.00" y1="431.65" x2="72.00" y2="448.30" stroke="#f6465d" stroke-width="1.4" /><rect x="69.00" y="431.65" width="6" height="2.00" rx="1.5" fill="#f6465d" /><line x1="82.73" y1="431.65" x2="82.73" y2="450.15" stroke="#f6465d" stroke-width="1.4" /><rect x="79.73" y="433.50" width="6" height="12.95" rx="1.5" fill="#f6465d" /><line x1="93.47" y1="429.80" x2="93.47" y2="452.00" stroke="#0ecb81" stroke-width="1.4" /><rect x="90.47" y="433.50" width="6" height="14.80" rx="1.5" fill="#0ecb81" /><line x1="104.20" y1="416.85" x2="104.20" y2="433.50" stroke="#0ecb81" stroke-width="1.4" /><rect x="101.20" y="424.25" width="6" height="9.25" rx="1.5" fill="#0ecb81" /><line x1="114.94" y1="411.31" x2="114.94" y2="448.30" stroke="#0ecb81" stroke-width="1.4" /><rect x="111.94" y="413.15" width="6" height="11.10" rx="1.5" fill="#0ecb81" /><line x1="125.67" y1="411.31" x2="125.67" y2="433.50" stroke="#0ecb81" stroke-width="1.4" /><rect x="122.67" y="411.31" width="6" height="3.70" rx="1.5" fill="#0ecb81" /><line x1="136.41" y1="402.06" x2="136.41" y2="431.65" stroke="#f6465d" stroke-width="1.4" /><rect x="133.41" y="411.31" width="6" height="12.95" rx="1.5" fill="#f6465d" /><line x1="147.14" y1="424.25" x2="147.14" y2="450.15" stroke="#f6465d" stroke-width="1.4" /><rect x="144.14" y="424.25" width="6" height="12.95" rx="1.5" fill="#f6465d" /><line x1="157.87" y1="418.70" x2="157.87" y2="446.45" stroke="#0ecb81" stroke-width="1.4" /><rect x="154.87" y="420.55" width="6" height="16.65" rx="1.5" fill="#0ecb81" /><line x1="168.61" y1="376.16" x2="168.61" y2="420.55" stroke="#0ecb81" stroke-width="1.4" /><rect x="165.61" y="376.16" width="6" height="42.54" rx="1.5" fill="#0ecb81" /><line x1="179.34" y1="365.06" x2="179.34" y2="403.91" stroke="#0ecb81" stroke-width="1.4" /><rect x="176.34" y="366.91" width="6" height="9.25" rx="1.5" fill="#0ecb81" /><line x1="190.08" y1="353.96" x2="190.08" y2="366.91" stroke="#0ecb81" stroke-width="1.4" /><rect x="187.08" y="361.36" width="6" height="5.55" rx="1.5" fill="#0ecb81" /><line x1="200.81" y1="346.56" x2="200.81" y2="363.21" stroke="#0ecb81" stroke-width="1.4" /><rect x="197.81" y="352.11" width="6" height="7.40" rx="1.5" fill="#0ecb81" /><line x1="211.54" y1="344.71" x2="211.54" y2="357.66" stroke="#0ecb81" stroke-width="1.4" /><rect x="208.54" y="348.41" width="6" height="5.55" rx="1.5" fill="#0ecb81" /><line x1="222.28" y1="283.67" x2="222.28" y2="352.11" stroke="#0ecb81" stroke-width="1.4" /><rect x="219.28" y="315.12" width="6" height="33.30" rx="1.5" fill="#0ecb81" /><line x1="233.01" y1="296.62" x2="233.01" y2="324.37" stroke="#f6465d" stroke-width="1.4" /><rect x="230.01" y="315.12" width="6" height="5.55" rx="1.5" fill="#f6465d" /><line x1="243.75" y1="318.82" x2="243.75" y2="342.86" stroke="#f6465d" stroke-width="1.4" /><rect x="240.75" y="322.52" width="6" height="2.00" rx="1.5" fill="#f6465d" /><line x1="254.48" y1="261.47" x2="254.48" y2="326.22" stroke="#0ecb81" stroke-width="1.4" /><rect x="251.48" y="276.27" width="6" height="48.09" rx="1.5" fill="#0ecb81" /><line x1="265.22" y1="268.87" x2="265.22" y2="309.57" stroke="#0ecb81" stroke-width="1.4" /><rect x="262.22" y="270.72" width="6" height="5.55" rx="1.5" fill="#0ecb81" /><line x1="275.95" y1="257.77" x2="275.95" y2="278.12" stroke="#0ecb81" stroke-width="1.4" /><rect x="272.95" y="267.02" width="6" height="5.55" rx="1.5" fill="#0ecb81" /><line x1="286.68" y1="246.68" x2="286.68" y2="274.42" stroke="#0ecb81" stroke-width="1.4" /><rect x="283.68" y="257.77" width="6" height="7.40" rx="1.5" fill="#0ecb81" /><line x1="297.42" y1="246.68" x2="297.42" y2="276.27" stroke="#f6465d" stroke-width="1.4" /><rect x="294.42" y="261.47" width="6" height="7.40" rx="1.5" fill="#f6465d" /><line x1="308.15" y1="239.28" x2="308.15" y2="276.27" stroke="#0ecb81" stroke-width="1.4" /><rect x="305.15" y="244.83" width="6" height="24.05" rx="1.5" fill="#0ecb81" /><line x1="318.89" y1="235.58" x2="318.89" y2="252.23" stroke="#0ecb81" stroke-width="1.4" /><rect x="315.89" y="242.98" width="6" height="3.70" rx="1.5" fill="#0ecb81" /><line x1="329.62" y1="196.73" x2="329.62" y2="242.98" stroke="#0ecb81" stroke-width="1.4" /><rect x="326.62" y="205.98" width="6" height="37.00" rx="1.5" fill="#0ecb81" /><line x1="340.35" y1="174.54" x2="340.35" y2="215.23" stroke="#0ecb81" stroke-width="1.4" /><rect x="337.35" y="180.08" width="6" height="25.90" rx="1.5" fill="#0ecb81" /><line x1="351.09" y1="148.64" x2="351.09" y2="198.58" stroke="#0ecb81" stroke-width="1.4" /><rect x="348.09" y="167.14" width="6" height="14.80" rx="1.5" fill="#0ecb81" /><line x1="361.82" y1="58.00" x2="361.82" y2="178.23" stroke="#0ecb81" stroke-width="1.4" /><rect x="358.82" y="126.44" width="6" height="37.00" rx="1.5" fill="#0ecb81" /><line x1="372.56" y1="124.59" x2="372.56" y2="187.48" stroke="#f6465d" stroke-width="1.4" /><rect x="369.56" y="128.29" width="6" height="29.60" rx="1.5" fill="#f6465d" /><line x1="383.29" y1="135.69" x2="383.29" y2="161.59" stroke="#0ecb81" stroke-width="1.4" /><rect x="380.29" y="146.79" width="6" height="14.80" rx="1.5" fill="#0ecb81" /><line x1="394.03" y1="120.89" x2="394.03" y2="157.89" stroke="#0ecb81" stroke-width="1.4" /><rect x="391.03" y="126.44" width="6" height="18.50" rx="1.5" fill="#0ecb81" /><line x1="404.76" y1="115.34" x2="404.76" y2="141.24" stroke="#f6465d" stroke-width="1.4" /><rect x="401.76" y="126.44" width="6" height="14.80" rx="1.5" fill="#f6465d" /><line x1="415.49" y1="95.00" x2="415.49" y2="141.24" stroke="#0ecb81" stroke-width="1.4" /><rect x="412.49" y="104.24" width="6" height="37.00" rx="1.5" fill="#0ecb81" /><line x1="426.23" y1="91.30" x2="426.23" y2="120.89" stroke="#0ecb81" stroke-width="1.4" /><rect x="423.23" y="98.69" width="6" height="7.40" rx="1.5" fill="#0ecb81" /><line x1="436.96" y1="98.69" x2="436.96" y2="122.74" stroke="#f6465d" stroke-width="1.4" /><rect x="433.96" y="98.69" width="6" height="16.65" rx="1.5" fill="#f6465d" /><line x1="447.70" y1="104.24" x2="447.70" y2="207.83" stroke="#f6465d" stroke-width="1.4" /><rect x="444.70" y="115.34" width="6" height="12.95" rx="1.5" fill="#f6465d" /><line x1="458.43" y1="124.59" x2="458.43" y2="183.78" stroke="#f6465d" stroke-width="1.4" /><rect x="455.43" y="126.44" width="6" height="57.34" rx="1.5" fill="#f6465d" /><line x1="469.16" y1="154.19" x2="469.16" y2="187.48" stroke="#0ecb81" stroke-width="1.4" /><rect x="466.16" y="180.08" width="6" height="2.00" rx="1.5" fill="#0ecb81" /><line x1="479.90" y1="167.14" x2="479.90" y2="191.18" stroke="#0ecb81" stroke-width="1.4" /><rect x="476.90" y="178.23" width="6" height="2.00" rx="1.5" fill="#0ecb81" /><line x1="490.63" y1="170.84" x2="490.63" y2="204.13" stroke="#f6465d" stroke-width="1.4" /><rect x="487.63" y="178.23" width="6" height="20.35" rx="1.5" fill="#f6465d" /><line x1="501.37" y1="196.73" x2="501.37" y2="228.18" stroke="#f6465d" stroke-width="1.4" /><rect x="498.37" y="198.58" width="6" height="24.05" rx="1.5" fill="#f6465d" /><line x1="512.10" y1="205.98" x2="512.10" y2="235.58" stroke="#0ecb81" stroke-width="1.4" /><rect x="509.10" y="215.23" width="6" height="5.55" rx="1.5" fill="#0ecb81" /><line x1="522.84" y1="194.88" x2="522.84" y2="217.08" stroke="#0ecb81" stroke-width="1.4" /><rect x="519.84" y="207.83" width="6" height="7.40" rx="1.5" fill="#0ecb81" /><line x1="533.57" y1="202.28" x2="533.57" y2="217.08" stroke="#f6465d" stroke-width="1.4" /><rect x="530.57" y="207.83" width="6" height="3.70" rx="1.5" fill="#f6465d" /><line x1="544.30" y1="200.43" x2="544.30" y2="218.93" stroke="#f6465d" stroke-width="1.4" /><rect x="541.30" y="209.68" width="6" height="7.40" rx="1.5" fill="#f6465d" /><line x1="555.04" y1="205.98" x2="555.04" y2="233.73" stroke="#0ecb81" stroke-width="1.4" /><rect x="552.04" y="213.38" width="6" height="3.70" rx="1.5" fill="#0ecb81" /><line x1="565.77" y1="213.38" x2="565.77" y2="228.18" stroke="#f6465d" stroke-width="1.4" /><rect x="562.77" y="213.38" width="6" height="9.25" rx="1.5" fill="#f6465d" /><line x1="576.51" y1="215.23" x2="576.51" y2="231.88" stroke="#0ecb81" stroke-width="1.4" /><rect x="573.51" y="222.63" width="6" height="2.00" rx="1.5" fill="#0ecb81" /><line x1="587.24" y1="220.78" x2="587.24" y2="233.73" stroke="#f6465d" stroke-width="1.4" /><rect x="584.24" y="222.63" width="6" height="3.70" rx="1.5" fill="#f6465d" /><line x1="597.97" y1="218.93" x2="597.97" y2="230.03" stroke="#0ecb81" stroke-width="1.4" /><rect x="594.97" y="218.93" width="6" height="7.40" rx="1.5" fill="#0ecb81" /><line x1="608.71" y1="204.13" x2="608.71" y2="230.03" stroke="#0ecb81" stroke-width="1.4" /><rect x="605.71" y="218.93" width="6" height="2.00" rx="1.5" fill="#0ecb81" /><line x1="619.44" y1="181.93" x2="619.44" y2="220.78" stroke="#0ecb81" stroke-width="1.4" /><rect x="616.44" y="187.48" width="6" height="29.60" rx="1.5" fill="#0ecb81" /><line x1="630.18" y1="183.78" x2="630.18" y2="207.83" stroke="#f6465d" stroke-width="1.4" /><rect x="627.18" y="187.48" width="6" height="16.65" rx="1.5" fill="#f6465d" /><line x1="640.91" y1="191.18" x2="640.91" y2="228.18" stroke="#f6465d" stroke-width="1.4" /><rect x="637.91" y="205.98" width="6" height="5.55" rx="1.5" fill="#f6465d" /><line x1="651.65" y1="204.13" x2="651.65" y2="222.63" stroke="#0ecb81" stroke-width="1.4" /><rect x="648.65" y="211.53" width="6" height="2.00" rx="1.5" fill="#0ecb81" /><line x1="662.38" y1="148.64" x2="662.38" y2="218.93" stroke="#f6465d" stroke-width="1.4" /><rect x="659.38" y="213.38" width="6" height="2.00" rx="1.5" fill="#f6465d" /><line x1="673.11" y1="207.83" x2="673.11" y2="220.78" stroke="#f6465d" stroke-width="1.4" /><rect x="670.11" y="217.08" width="6" height="2.00" rx="1.5" fill="#f6465d" /><line x1="683.85" y1="187.48" x2="683.85" y2="233.73" stroke="#0ecb81" stroke-width="1.4" /><rect x="680.85" y="194.88" width="6" height="25.90" rx="1.5" fill="#0ecb81" /><line x1="694.58" y1="183.78" x2="694.58" y2="209.68" stroke="#0ecb81" stroke-width="1.4" /><rect x="691.58" y="185.63" width="6" height="11.10" rx="1.5" fill="#0ecb81" /><line x1="705.32" y1="154.19" x2="705.32" y2="194.88" stroke="#0ecb81" stroke-width="1.4" /><rect x="702.32" y="159.74" width="6" height="25.90" rx="1.5" fill="#0ecb81" /><line x1="716.05" y1="89.45" x2="716.05" y2="159.74" stroke="#0ecb81" stroke-width="1.4" /><rect x="713.05" y="107.94" width="6" height="49.94" rx="1.5" fill="#0ecb81" /><line x1="726.78" y1="89.45" x2="726.78" y2="119.04" stroke="#0ecb81" stroke-width="1.4" /><rect x="723.78" y="91.30" width="6" height="18.50" rx="1.5" fill="#0ecb81" /><line x1="737.52" y1="91.30" x2="737.52" y2="120.89" stroke="#0ecb81" stroke-width="1.4" /><rect x="734.52" y="91.30" width="6" height="2.00" rx="1.5" fill="#0ecb81" /><line x1="748.25" y1="83.90" x2="748.25" y2="131.99" stroke="#f6465d" stroke-width="1.4" /><rect x="745.25" y="91.30" width="6" height="35.15" rx="1.5" fill="#f6465d" /><line x1="758.99" y1="124.59" x2="758.99" y2="144.94" stroke="#f6465d" stroke-width="1.4" /><rect x="755.99" y="128.29" width="6" height="7.40" rx="1.5" fill="#f6465d" /><line x1="769.72" y1="131.99" x2="769.72" y2="172.69" stroke="#f6465d" stroke-width="1.4" /><rect x="766.72" y="135.69" width="6" height="24.05" rx="1.5" fill="#f6465d" /><line x1="780.46" y1="144.94" x2="780.46" y2="176.38" stroke="#f6465d" stroke-width="1.4" /><rect x="777.46" y="159.74" width="6" height="3.70" rx="1.5" fill="#f6465d" /><line x1="791.19" y1="137.54" x2="791.19" y2="191.18" stroke="#0ecb81" stroke-width="1.4" /><rect x="788.19" y="141.24" width="6" height="20.35" rx="1.5" fill="#0ecb81" /><line x1="801.92" y1="109.79" x2="801.92" y2="150.49" stroke="#0ecb81" stroke-width="1.4" /><rect x="798.92" y="126.44" width="6" height="14.80" rx="1.5" fill="#0ecb81" /><line x1="812.66" y1="115.34" x2="812.66" y2="159.74" stroke="#f6465d" stroke-width="1.4" /><rect x="809.66" y="126.44" width="6" height="29.60" rx="1.5" fill="#f6465d" /><line x1="823.39" y1="156.04" x2="823.39" y2="180.08" stroke="#f6465d" stroke-width="1.4" /><rect x="820.39" y="156.04" width="6" height="14.80" rx="1.5" fill="#f6465d" /><line x1="834.13" y1="144.94" x2="834.13" y2="172.69" stroke="#0ecb81" stroke-width="1.4" /><rect x="831.13" y="154.19" width="6" height="16.65" rx="1.5" fill="#0ecb81" /><line x1="844.86" y1="135.69" x2="844.86" y2="163.44" stroke="#0ecb81" stroke-width="1.4" /><rect x="841.86" y="137.54" width="6" height="16.65" rx="1.5" fill="#0ecb81" /><line x1="855.59" y1="89.45" x2="855.59" y2="144.94" stroke="#0ecb81" stroke-width="1.4" /><rect x="852.59" y="93.15" width="6" height="44.39" rx="1.5" fill="#0ecb81" /><line x1="866.33" y1="89.45" x2="866.33" y2="120.89" stroke="#f6465d" stroke-width="1.4" /><rect x="863.33" y="93.15" width="6" height="16.65" rx="1.5" fill="#f6465d" /><line x1="877.06" y1="96.85" x2="877.06" y2="168.99" stroke="#f6465d" stroke-width="1.4" /><rect x="874.06" y="111.64" width="6" height="49.94" rx="1.5" fill="#f6465d" /><line x1="887.80" y1="117.19" x2="887.80" y2="163.44" stroke="#0ecb81" stroke-width="1.4" /><rect x="884.80" y="124.59" width="6" height="38.85" rx="1.5" fill="#0ecb81" /><line x1="898.53" y1="124.59" x2="898.53" y2="161.59" stroke="#f6465d" stroke-width="1.4" /><rect x="895.53" y="124.59" width="6" height="33.30" rx="1.5" fill="#f6465d" /><line x1="909.27" y1="143.09" x2="909.27" y2="200.43" stroke="#f6465d" stroke-width="1.4" /><rect x="906.27" y="159.74" width="6" height="31.45" rx="1.5" fill="#f6465d" /><line x1="920.00" y1="187.48" x2="920.00" y2="215.23" stroke="#f6465d" stroke-width="1.4" /><rect x="917.00" y="191.18" width="6" height="18.50" rx="1.5" fill="#f6465d" />
  <polyline points="72.00,418.70 72.00,366.91 72.00,459.40 72.00,416.85 93.47,452.00" fill="none" stroke="#2fc273" stroke-width="4" stroke-linecap="round" stroke-linejoin="round" />
  <circle cx="72.00" cy="418.70" r="5.5" fill="#2fc273" fill-opacity="0.15" stroke="#2fc273" stroke-width="2" /><text x="72.00" y="406.70" fill="#f3f4f6" font-size="15" font-weight="700" text-anchor="middle">X</text><circle cx="72.00" cy="366.91" r="5.5" fill="#2fc273" fill-opacity="0.15" stroke="#2fc273" stroke-width="2" /><text x="72.00" y="354.91" fill="#f3f4f6" font-size="15" font-weight="700" text-anchor="middle">A</text><circle cx="72.00" cy="459.40" r="5.5" fill="#2fc273" fill-opacity="0.15" stroke="#2fc273" stroke-width="2" /><text x="72.00" y="447.40" fill="#f3f4f6" font-size="15" font-weight="700" text-anchor="middle">B</text><circle cx="72.00" cy="416.85" r="5.5" fill="#2fc273" fill-opacity="0.15" stroke="#2fc273" stroke-width="2" /><text x="72.00" y="404.85" fill="#f3f4f6" font-size="15" font-weight="700" text-anchor="middle">C</text><circle cx="93.47" cy="452.00" r="5.5" fill="#2fc273" fill-opacity="0.15" stroke="#2fc273" stroke-width="2" /><text x="93.47" y="440.00" fill="#f3f4f6" font-size="15" font-weight="700" text-anchor="middle">D</text>
  <text x="56" y="492" fill="#8ba0b5" font-size="18">Complete · TP1 0.43483 · TP2 0.43527 · SL 0.43374</text>
</svg>
