<svg xmlns="http://www.w3.org/2000/svg" width="960" height="540" viewBox="0 0 960 540">
  <rect width="960" height="540" rx="24" fill="#0b1220" />
  <rect x="28" y="28" width="904" height="484" rx="22" fill="#111827" stroke="#1f2937" />
  <text x="56" y="74" fill="#f3f4f6" font-size="34" font-weight="700">AKEUSDT · AB=CD</text>
  <text x="904" y="74" fill="#8ba0b5" font-size="20" text-anchor="end">Bearish (매도) · Score 81.1</text>
  <line x1="72" y1="58" x2="920" y2="58" stroke="#223045" stroke-width="1" stroke-dasharray="4 8" /><line x1="72" y1="156" x2="920" y2="156" stroke="#223045" stroke-width="1" stroke-dasharray="4 8" /><line x1="72" y1="255" x2="920" y2="255" stroke="#223045" stroke-width="1" stroke-dasharray="4 8" /><line x1="72" y1="353" x2="920" y2="353" stroke="#223045" stroke-width="1" stroke-dasharray="4 8" /><line x1="72" y1="452" x2="920" y2="452" stroke="#223045" stroke-width="1" stroke-dasharray="4 8" />
  <rect x="838.33" y="148.15" width="84" height="9.23" fill="#fbbf24" fill-opacity="0.12" stroke="#fbbf24" stroke-width="1.5" stroke-dasharray="6 6" />
  <line x1="72.00" y1="159.40" x2="72.00" y2="198.85" stroke="#f6465d" stroke-width="1.4" /><rect x="69.00" y="161.58" width="6" height="32.99" rx="1.5" fill="#f6465d" /><line x1="82.73" y1="194.57" x2="82.73" y2="218.57" stroke="#f6465d" stroke-width="1.4" /><rect x="79.73" y="194.65" width="6" height="18.55" rx="1.5" fill="#f6465d" /><line x1="93.47" y1="211.27" x2="93.47" y2="241.99" stroke="#f6465d" stroke-width="1.4" /><rect x="90.47" y="213.12" width="6" height="2.00" rx="1.5" fill="#f6465d" /><line x1="104.20" y1="213.70" x2="104.20" y2="234.35" stroke="#f6465d" stroke-width="1.4" /><rect x="101.20" y="213.95" width="6" height="8.23" rx="1.5" fill="#f6465d" /><line x1="114.94" y1="192.38" x2="114.94" y2="251.64" stroke="#f6465d" stroke-width="1.4" /><rect x="111.94" y="222.26" width="6" height="2.69" rx="1.5" fill="#f6465d" /><line x1="125.67" y1="191.63" x2="125.67" y2="234.60" stroke="#0ecb81" stroke-width="1.4" /><rect x="122.67" y="199.94" width="6" height="25.10" rx="1.5" fill="#0ecb81" /><line x1="136.41" y1="170.14" x2="136.41" y2="210.26" stroke="#0ecb81" stroke-width="1.4" /><rect x="133.41" y="170.73" width="6" height="29.38" rx="1.5" fill="#0ecb81" /><line x1="147.14" y1="166.61" x2="147.14" y2="189.61" stroke="#f6465d" stroke-width="1.4" /><rect x="144.14" y="170.73" width="6" height="9.90" rx="1.5" fill="#f6465d" /><line x1="157.87" y1="174.84" x2="157.87" y2="205.90" stroke="#f6465d" stroke-width="1.4" /><rect x="154.87" y="180.63" width="6" height="18.30" rx="1.5" fill="#f6465d" /><line x1="168.61" y1="195.91" x2="168.61" y2="452.00" stroke="#f6465d" stroke-width="1.4" /><rect x="165.61" y="198.93" width="6" height="34.08" rx="1.5" fill="#f6465d" /><line x1="179.34" y1="58.00" x2="179.34" y2="253.91" stroke="#0ecb81" stroke-width="1.4" /><rect x="176.34" y="138.75" width="6" height="94.76" rx="1.5" fill="#0ecb81" /><line x1="190.08" y1="75.12" x2="190.08" y2="171.48" stroke="#0ecb81" stroke-width="1.4" /><rect x="187.08" y="133.71" width="6" height="5.71" rx="1.5" fill="#0ecb81" /><line x1="200.81" y1="103.16" x2="200.81" y2="175.01" stroke="#f6465d" stroke-width="1.4" /><rect x="197.81" y="133.63" width="6" height="24.59" rx="1.5" fill="#f6465d" /><line x1="211.54" y1="94.60" x2="211.54" y2="157.80" stroke="#0ecb81" stroke-width="1.4" /><rect x="208.54" y="107.27" width="6" height="50.53" rx="1.5" fill="#0ecb81" /><line x1="222.28" y1="66.06" x2="222.28" y2="126.91" stroke="#0ecb81" stroke-width="1.4" /><rect x="219.28" y="98.54" width="6" height="8.98" rx="1.5" fill="#0ecb81" /><line x1="233.01" y1="81.08" x2="233.01" y2="119.11" stroke="#0ecb81" stroke-width="1.4" /><rect x="230.01" y="87.88" width="6" height="10.66" rx="1.5" fill="#0ecb81" /><line x1="243.75" y1="82.01" x2="243.75" y2="104.00" stroke="#f6465d" stroke-width="1.4" /><rect x="240.75" y="87.13" width="6" height="7.39" rx="1.5" fill="#f6465d" /><line x1="254.48" y1="88.47" x2="254.48" y2="161.58" stroke="#f6465d" stroke-width="1.4" /><rect x="251.48" y="94.60" width="6" height="33.74" rx="1.5" fill="#f6465d" /><line x1="265.22" y1="123.14" x2="265.22" y2="201.95" stroke="#f6465d" stroke-width="1.4" /><rect x="262.22" y="127.92" width="6" height="36.68" rx="1.5" fill="#f6465d" /><line x1="275.95" y1="137.24" x2="275.95" y2="164.77" stroke="#0ecb81" stroke-width="1.4" /><rect x="272.95" y="153.18" width="6" height="11.33" rx="1.5" fill="#0ecb81" /><line x1="286.68" y1="132.45" x2="286.68" y2="168.54" stroke="#f6465d" stroke-width="1.4" /><rect x="283.68" y="153.27" width="6" height="12.17" rx="1.5" fill="#f6465d" /><line x1="297.42" y1="153.52" x2="297.42" y2="213.95" stroke="#f6465d" stroke-width="1.4" /><rect x="294.42" y="165.10" width="6" height="33.41" rx="1.5" fill="#f6465d" /><line x1="308.15" y1="164.43" x2="308.15" y2="211.02" stroke="#0ecb81" stroke-width="1.4" /><rect x="305.15" y="169.05" width="6" height="29.46" rx="1.5" fill="#0ecb81" /><line x1="318.89" y1="166.53" x2="318.89" y2="220.25" stroke="#f6465d" stroke-width="1.4" /><rect x="315.89" y="168.96" width="6" height="45.49" rx="1.5" fill="#f6465d" /><line x1="329.62" y1="195.15" x2="329.62" y2="226.80" stroke="#0ecb81" stroke-width="1.4" /><rect x="326.62" y="200.61" width="6" height="13.60" rx="1.5" fill="#0ecb81" /><line x1="340.35" y1="179.29" x2="340.35" y2="219.33" stroke="#f6465d" stroke-width="1.4" /><rect x="337.35" y="200.19" width="6" height="18.21" rx="1.5" fill="#f6465d" /><line x1="351.09" y1="139.75" x2="351.09" y2="225.62" stroke="#0ecb81" stroke-width="1.4" /><rect x="348.09" y="152.01" width="6" height="66.06" rx="1.5" fill="#0ecb81" /><line x1="361.82" y1="151.34" x2="361.82" y2="200.69" stroke="#f6465d" stroke-width="1.4" /><rect x="358.82" y="152.09" width="6" height="46.92" rx="1.5" fill="#f6465d" /><line x1="372.56" y1="190.03" x2="372.56" y2="216.64" stroke="#f6465d" stroke-width="1.4" /><rect x="369.56" y="198.76" width="6" height="16.37" rx="1.5" fill="#f6465d" /><line x1="383.29" y1="176.69" x2="383.29" y2="245.52" stroke="#f6465d" stroke-width="1.4" /><rect x="380.29" y="215.05" width="6" height="17.46" rx="1.5" fill="#f6465d" /><line x1="394.03" y1="198.93" x2="394.03" y2="232.84" stroke="#0ecb81" stroke-width="1.4" /><rect x="391.03" y="217.23" width="6" height="15.02" rx="1.5" fill="#0ecb81" /><line x1="404.76" y1="193.64" x2="404.76" y2="229.40" stroke="#0ecb81" stroke-width="1.4" /><rect x="401.76" y="212.53" width="6" height="4.70" rx="1.5" fill="#0ecb81" /><line x1="415.49" y1="195.49" x2="415.49" y2="225.87" stroke="#f6465d" stroke-width="1.4" /><rect x="412.49" y="212.44" width="6" height="11.67" rx="1.5" fill="#f6465d" /><line x1="426.23" y1="220.92" x2="426.23" y2="241.07" stroke="#f6465d" stroke-width="1.4" /><rect x="423.23" y="224.61" width="6" height="9.82" rx="1.5" fill="#f6465d" /><line x1="436.96" y1="217.06" x2="436.96" y2="243.50" stroke="#0ecb81" stroke-width="1.4" /><rect x="433.96" y="229.32" width="6" height="5.04" rx="1.5" fill="#0ecb81" /><line x1="447.70" y1="213.79" x2="447.70" y2="238.04" stroke="#0ecb81" stroke-width="1.4" /><rect x="444.70" y="224.53" width="6" height="4.95" rx="1.5" fill="#0ecb81" /><line x1="458.43" y1="221.34" x2="458.43" y2="234.27" stroke="#f6465d" stroke-width="1.4" /><rect x="455.43" y="224.45" width="6" height="3.61" rx="1.5" fill="#f6465d" /><line x1="469.16" y1="221.51" x2="469.16" y2="236.11" stroke="#0ecb81" stroke-width="1.4" /><rect x="466.16" y="226.55" width="6" height="2.00" rx="1.5" fill="#0ecb81" /><line x1="479.90" y1="185.67" x2="479.90" y2="231.41" stroke="#0ecb81" stroke-width="1.4" /><rect x="476.90" y="202.71" width="6" height="24.17" rx="1.5" fill="#0ecb81" /><line x1="490.63" y1="188.44" x2="490.63" y2="212.44" stroke="#f6465d" stroke-width="1.4" /><rect x="487.63" y="203.29" width="6" height="5.88" rx="1.5" fill="#f6465d" /><line x1="501.37" y1="204.05" x2="501.37" y2="232.09" stroke="#0ecb81" stroke-width="1.4" /><rect x="498.37" y="207.83" width="6" height="2.00" rx="1.5" fill="#0ecb81" /><line x1="512.10" y1="174.17" x2="512.10" y2="208.58" stroke="#0ecb81" stroke-width="1.4" /><rect x="509.10" y="203.97" width="6" height="3.95" rx="1.5" fill="#0ecb81" /><line x1="522.84" y1="195.32" x2="522.84" y2="215.47" stroke="#0ecb81" stroke-width="1.4" /><rect x="519.84" y="195.32" width="6" height="8.56" rx="1.5" fill="#0ecb81" /><line x1="533.57" y1="187.01" x2="533.57" y2="205.90" stroke="#f6465d" stroke-width="1.4" /><rect x="530.57" y="195.32" width="6" height="2.00" rx="1.5" fill="#f6465d" /><line x1="544.30" y1="182.56" x2="544.30" y2="200.27" stroke="#0ecb81" stroke-width="1.4" /><rect x="541.30" y="192.72" width="6" height="2.85" rx="1.5" fill="#0ecb81" /><line x1="555.04" y1="188.10" x2="555.04" y2="195.66" stroke="#f6465d" stroke-width="1.4" /><rect x="552.04" y="192.63" width="6" height="3.02" rx="1.5" fill="#f6465d" /><line x1="565.77" y1="182.65" x2="565.77" y2="199.18" stroke="#0ecb81" stroke-width="1.4" /><rect x="562.77" y="189.36" width="6" height="6.21" rx="1.5" fill="#0ecb81" /><line x1="576.51" y1="186.93" x2="576.51" y2="221.09" stroke="#f6465d" stroke-width="1.4" /><rect x="573.51" y="189.36" width="6" height="26.19" rx="1.5" fill="#f6465d" /><line x1="587.24" y1="212.61" x2="587.24" y2="224.53" stroke="#0ecb81" stroke-width="1.4" /><rect x="584.24" y="214.96" width="6" height="2.00" rx="1.5" fill="#0ecb81" /><line x1="597.97" y1="212.70" x2="597.97" y2="224.11" stroke="#f6465d" stroke-width="1.4" /><rect x="594.97" y="215.05" width="6" height="6.04" rx="1.5" fill="#f6465d" /><line x1="608.71" y1="213.95" x2="608.71" y2="226.04" stroke="#f6465d" stroke-width="1.4" /><rect x="605.71" y="221.17" width="6" height="2.00" rx="1.5" fill="#f6465d" /><line x1="619.44" y1="203.55" x2="619.44" y2="232.09" stroke="#0ecb81" stroke-width="1.4" /><rect x="616.44" y="212.44" width="6" height="9.90" rx="1.5" fill="#0ecb81" /><line x1="630.18" y1="212.36" x2="630.18" y2="224.53" stroke="#f6465d" stroke-width="1.4" /><rect x="627.18" y="212.36" width="6" height="11.84" rx="1.5" fill="#f6465d" /><line x1="640.91" y1="213.20" x2="640.91" y2="227.38" stroke="#0ecb81" stroke-width="1.4" /><rect x="637.91" y="219.58" width="6" height="4.53" rx="1.5" fill="#0ecb81" /><line x1="651.65" y1="213.70" x2="651.65" y2="237.12" stroke="#f6465d" stroke-width="1.4" /><rect x="648.65" y="219.49" width="6" height="11.42" rx="1.5" fill="#f6465d" /><line x1="662.38" y1="230.99" x2="662.38" y2="253.82" stroke="#f6465d" stroke-width="1.4" /><rect x="659.38" y="231.25" width="6" height="2.00" rx="1.5" fill="#f6465d" /><line x1="673.11" y1="195.91" x2="673.11" y2="249.29" stroke="#f6465d" stroke-width="1.4" /><rect x="670.11" y="231.75" width="6" height="4.62" rx="1.5" fill="#f6465d" /><line x1="683.85" y1="211.94" x2="683.85" y2="246.52" stroke="#f6465d" stroke-width="1.4" /><rect x="680.85" y="236.45" width="6" height="3.44" rx="1.5" fill="#f6465d" /><line x1="694.58" y1="224.70" x2="694.58" y2="239.81" stroke="#0ecb81" stroke-width="1.4" /><rect x="691.58" y="226.55" width="6" height="13.26" rx="1.5" fill="#0ecb81" /><line x1="705.32" y1="217.48" x2="705.32" y2="226.46" stroke="#0ecb81" stroke-width="1.4" /><rect x="702.32" y="221.17" width="6" height="5.29" rx="1.5" fill="#0ecb81" /><line x1="716.05" y1="219.58" x2="716.05" y2="229.82" stroke="#f6465d" stroke-width="1.4" /><rect x="713.05" y="221.01" width="6" height="3.11" rx="1.5" fill="#f6465d" /><line x1="726.78" y1="207.32" x2="726.78" y2="224.36" stroke="#0ecb81" stroke-width="1.4" /><rect x="723.78" y="208.50" width="6" height="15.61" rx="1.5" fill="#0ecb81" /><line x1="737.52" y1="189.03" x2="737.52" y2="209.00" stroke="#0ecb81" stroke-width="1.4" /><rect x="734.52" y="202.96" width="6" height="5.54" rx="1.5" fill="#0ecb81" /><line x1="748.25" y1="184.66" x2="748.25" y2="202.88" stroke="#0ecb81" stroke-width="1.4" /><rect x="745.25" y="189.11" width="6" height="13.77" rx="1.5" fill="#0ecb81" /><line x1="758.99" y1="186.93" x2="758.99" y2="201.20" stroke="#f6465d" stroke-width="1.4" /><rect x="755.99" y="188.94" width="6" height="4.62" rx="1.5" fill="#f6465d" /><line x1="769.72" y1="192.30" x2="769.72" y2="207.91" stroke="#f6465d" stroke-width="1.4" /><rect x="766.72" y="193.31" width="6" height="5.62" rx="1.5" fill="#f6465d" /><line x1="780.46" y1="189.11" x2="780.46" y2="216.14" stroke="#f6465d" stroke-width="1.4" /><rect x="777.46" y="199.01" width="6" height="13.51" rx="1.5" fill="#f6465d" /><line x1="791.19" y1="210.18" x2="791.19" y2="226.63" stroke="#f6465d" stroke-width="1.4" /><rect x="788.19" y="212.44" width="6" height="2.69" rx="1.5" fill="#f6465d" /><line x1="801.92" y1="202.04" x2="801.92" y2="225.37" stroke="#f6465d" stroke-width="1.4" /><rect x="798.92" y="215.21" width="6" height="2.01" rx="1.5" fill="#f6465d" /><line x1="812.66" y1="212.28" x2="812.66" y2="221.93" stroke="#f6465d" stroke-width="1.4" /><rect x="809.66" y="217.65" width="6" height="2.00" rx="1.5" fill="#f6465d" /><line x1="823.39" y1="212.95" x2="823.39" y2="222.26" stroke="#0ecb81" stroke-width="1.4" /><rect x="820.39" y="218.74" width="6" height="2.00" rx="1.5" fill="#0ecb81" /><line x1="834.13" y1="203.88" x2="834.13" y2="219.91" stroke="#0ecb81" stroke-width="1.4" /><rect x="831.13" y="212.78" width="6" height="6.21" rx="1.5" fill="#0ecb81" /><line x1="844.86" y1="211.60" x2="844.86" y2="219.91" stroke="#0ecb81" stroke-width="1.4" /><rect x="841.86" y="211.86" width="6" height="2.00" rx="1.5" fill="#0ecb81" /><line x1="855.59" y1="204.47" x2="855.59" y2="218.74" stroke="#f6465d" stroke-width="1.4" /><rect x="852.59" y="211.69" width="6" height="2.10" rx="1.5" fill="#f6465d" /><line x1="866.33" y1="196.83" x2="866.33" y2="225.03" stroke="#0ecb81" stroke-width="1.4" /><rect x="863.33" y="203.13" width="6" height="10.58" rx="1.5" fill="#0ecb81" /><line x1="877.06" y1="198.01" x2="877.06" y2="220.33" stroke="#f6465d" stroke-width="1.4" /><rect x="874.06" y="203.13" width="6" height="15.78" rx="1.5" fill="#f6465d" /><line x1="887.80" y1="218.32" x2="887.80" y2="229.73" stroke="#f6465d" stroke-width="1.4" /><rect x="884.80" y="218.82" width="6" height="5.20" rx="1.5" fill="#f6465d" /><line x1="898.53" y1="215.72" x2="898.53" y2="233.85" stroke="#f6465d" stroke-width="1.4" /><rect x="895.53" y="223.61" width="6" height="4.87" rx="1.5" fill="#f6465d" /><line x1="909.27" y1="214.37" x2="909.27" y2="233.85" stroke="#f6465d" stroke-width="1.4" /><rect x="906.27" y="228.39" width="6" height="2.00" rx="1.5" fill="#f6465d" /><line x1="920.00" y1="223.27" x2="920.00" y2="233.85" stroke="#0ecb81" stroke-width="1.4" /><rect x="917.00" y="227.55" width="6" height="2.27" rx="1.5" fill="#0ecb81" />
  <polyline points="512.10,174.17 662.38,253.91 748.25,185.08 791.19,226.21 866.33,196.83" fill="none" stroke="#2fc273" stroke-width="4" stroke-linecap="round" stroke-linejoin="round" />
  <circle cx="512.10" cy="174.17" r="5.5" fill="#2fc273" fill-opacity="0.15" stroke="#2fc273" stroke-width="2" /><text x="512.10" y="162.17" fill="#f3f4f6" font-size="15" font-weight="700" text-anchor="middle">X</text><circle cx="662.38" cy="253.91" r="5.5" fill="#2fc273" fill-opacity="0.15" stroke="#2fc273" stroke-width="2" /><text x="662.38" y="241.91" fill="#f3f4f6" font-size="15" font-weight="700" text-anchor="middle">A</text><circle cx="748.25" cy="185.08" r="5.5" fill="#2fc273" fill-opacity="0.15" stroke="#2fc273" stroke-width="2" /><text x="748.25" y="173.08" fill="#f3f4f6" font-size="15" font-weight="700" text-anchor="middle">B</text><circle cx="791.19" cy="226.21" r="5.5" fill="#2fc273" fill-opacity="0.15" stroke="#2fc273" stroke-width="2" /><text x="791.19" y="214.21" fill="#f3f4f6" font-size="15" font-weight="700" text-anchor="middle">C</text><circle cx="866.33" cy="196.83" r="5.5" fill="#2fc273" fill-opacity="0.15" stroke="#2fc273" stroke-width="2" /><text x="866.33" y="184.83" fill="#f3f4f6" font-size="15" font-weight="700" text-anchor="middle">D</text>
  <text x="56" y="492" fill="#8ba0b5" font-size="18">Complete · TP1 0.001644 · TP2 0.001636 · SL 0.00167</text>
</svg>
