<svg xmlns="http://www.w3.org/2000/svg" width="960" height="540" viewBox="0 0 960 540">
  <rect width="960" height="540" rx="24" fill="#0b1220" />
  <rect x="28" y="28" width="904" height="484" rx="22" fill="#111827" stroke="#1f2937" />
  <text x="56" y="74" fill="#f3f4f6" font-size="34" font-weight="700">APRUSDT · AB=CD</text>
  <text x="904" y="74" fill="#8ba0b5" font-size="20" text-anchor="end">Bullish (매수) · Score 83.6</text>
  <line x1="72" y1="58" x2="920" y2="58" stroke="#223045" stroke-width="1" stroke-dasharray="4 8" /><line x1="72" y1="156" x2="920" y2="156" stroke="#223045" stroke-width="1" stroke-dasharray="4 8" /><line x1="72" y1="255" x2="920" y2="255" stroke="#223045" stroke-width="1" stroke-dasharray="4 8" /><line x1="72" y1="353" x2="920" y2="353" stroke="#223045" stroke-width="1" stroke-dasharray="4 8" /><line x1="72" y1="452" x2="920" y2="452" stroke="#223045" stroke-width="1" stroke-dasharray="4 8" />
  <rect x="559.24" y="290.48" width="84" height="184.44" fill="#fbbf24" fill-opacity="0.12" stroke="#fbbf24" stroke-width="1.5" stroke-dasharray="6 6" />
  <line x1="72.00" y1="378.17" x2="72.00" y2="452.00" stroke="#f6465d" stroke-width="1.4" /><rect x="69.00" y="381.05" width="6" height="27.31" rx="1.5" fill="#f6465d" /><line x1="82.73" y1="370.07" x2="82.73" y2="417.83" stroke="#0ecb81" stroke-width="1.4" /><rect x="79.73" y="388.19" width="6" height="20.31" rx="1.5" fill="#0ecb81" /><line x1="93.47" y1="346.33" x2="93.47" y2="414.26" stroke="#0ecb81" stroke-width="1.4" /><rect x="90.47" y="364.58" width="6" height="24.29" rx="1.5" fill="#0ecb81" /><line x1="104.20" y1="329.04" x2="104.20" y2="375.29" stroke="#0ecb81" stroke-width="1.4" /><rect x="101.20" y="348.53" width="6" height="16.33" rx="1.5" fill="#0ecb81" /><line x1="114.94" y1="324.78" x2="114.94" y2="355.39" stroke="#0ecb81" stroke-width="1.4" /><rect x="111.94" y="327.80" width="6" height="22.37" rx="1.5" fill="#0ecb81" /><line x1="125.67" y1="324.92" x2="125.67" y2="351.82" stroke="#f6465d" stroke-width="1.4" /><rect x="122.67" y="327.67" width="6" height="20.31" rx="1.5" fill="#f6465d" /><line x1="136.41" y1="296.93" x2="136.41" y2="356.21" stroke="#0ecb81" stroke-width="1.4" /><rect x="133.41" y="313.94" width="6" height="34.99" rx="1.5" fill="#0ecb81" /><line x1="147.14" y1="303.79" x2="147.14" y2="330.55" stroke="#f6465d" stroke-width="1.4" /><rect x="144.14" y="313.12" width="6" height="6.72" rx="1.5" fill="#f6465d" /><line x1="157.87" y1="305.02" x2="157.87" y2="350.86" stroke="#0ecb81" stroke-width="1.4" /><rect x="154.87" y="310.24" width="6" height="9.47" rx="1.5" fill="#0ecb81" /><line x1="168.61" y1="285.12" x2="168.61" y2="326.02" stroke="#f6465d" stroke-width="1.4" /><rect x="165.61" y="309.83" width="6" height="11.25" rx="1.5" fill="#f6465d" /><line x1="179.34" y1="266.46" x2="179.34" y2="336.17" stroke="#0ecb81" stroke-width="1.4" /><rect x="176.34" y="305.71" width="6" height="15.51" rx="1.5" fill="#0ecb81" /><line x1="190.08" y1="305.30" x2="190.08" y2="332.61" stroke="#f6465d" stroke-width="1.4" /><rect x="187.08" y="306.94" width="6" height="24.56" rx="1.5" fill="#f6465d" /><line x1="200.81" y1="285.26" x2="200.81" y2="331.51" stroke="#0ecb81" stroke-width="1.4" /><rect x="197.81" y="312.02" width="6" height="19.49" rx="1.5" fill="#0ecb81" /><line x1="211.54" y1="300.08" x2="211.54" y2="366.91" stroke="#f6465d" stroke-width="1.4" /><rect x="208.54" y="312.16" width="6" height="30.88" rx="1.5" fill="#f6465d" /><line x1="222.28" y1="331.23" x2="222.28" y2="362.52" stroke="#f6465d" stroke-width="1.4" /><rect x="219.28" y="341.66" width="6" height="9.47" rx="1.5" fill="#f6465d" /><line x1="233.01" y1="302.14" x2="233.01" y2="399.16" stroke="#0ecb81" stroke-width="1.4" /><rect x="230.01" y="304.75" width="6" height="47.07" rx="1.5" fill="#0ecb81" /><line x1="243.75" y1="294.04" x2="243.75" y2="313.39" stroke="#f6465d" stroke-width="1.4" /><rect x="240.75" y="303.65" width="6" height="9.06" rx="1.5" fill="#f6465d" /><line x1="254.48" y1="299.67" x2="254.48" y2="322.73" stroke="#f6465d" stroke-width="1.4" /><rect x="251.48" y="312.71" width="6" height="2.47" rx="1.5" fill="#f6465d" /><line x1="265.22" y1="58.00" x2="265.22" y2="321.08" stroke="#0ecb81" stroke-width="1.4" /><rect x="262.22" y="226.25" width="6" height="88.93" rx="1.5" fill="#0ecb81" /><line x1="275.95" y1="211.15" x2="275.95" y2="240.38" stroke="#f6465d" stroke-width="1.4" /><rect x="272.95" y="225.43" width="6" height="9.19" rx="1.5" fill="#f6465d" /><line x1="286.68" y1="212.80" x2="286.68" y2="255.07" stroke="#0ecb81" stroke-width="1.4" /><rect x="283.68" y="222.96" width="6" height="12.08" rx="1.5" fill="#0ecb81" /><line x1="297.42" y1="175.06" x2="297.42" y2="227.90" stroke="#0ecb81" stroke-width="1.4" /><rect x="294.42" y="215.13" width="6" height="9.19" rx="1.5" fill="#0ecb81" /><line x1="308.15" y1="208.27" x2="308.15" y2="270.85" stroke="#f6465d" stroke-width="1.4" /><rect x="305.15" y="213.62" width="6" height="36.64" rx="1.5" fill="#f6465d" /><line x1="318.89" y1="245.46" x2="318.89" y2="350.03" stroke="#f6465d" stroke-width="1.4" /><rect x="315.89" y="251.23" width="6" height="58.32" rx="1.5" fill="#f6465d" /><line x1="329.62" y1="288.69" x2="329.62" y2="327.25" stroke="#0ecb81" stroke-width="1.4" /><rect x="326.62" y="306.12" width="6" height="3.43" rx="1.5" fill="#0ecb81" /><line x1="340.35" y1="297.34" x2="340.35" y2="328.49" stroke="#f6465d" stroke-width="1.4" /><rect x="337.35" y="304.47" width="6" height="5.21" rx="1.5" fill="#f6465d" /><line x1="351.09" y1="289.10" x2="351.09" y2="318.33" stroke="#0ecb81" stroke-width="1.4" /><rect x="348.09" y="308.18" width="6" height="2.00" rx="1.5" fill="#0ecb81" /><line x1="361.82" y1="301.45" x2="361.82" y2="324.78" stroke="#f6465d" stroke-width="1.4" /><rect x="358.82" y="306.53" width="6" height="4.25" rx="1.5" fill="#f6465d" /><line x1="372.56" y1="268.79" x2="372.56" y2="319.98" stroke="#0ecb81" stroke-width="1.4" /><rect x="369.56" y="282.65" width="6" height="28.41" rx="1.5" fill="#0ecb81" /><line x1="383.29" y1="250.68" x2="383.29" y2="290.48" stroke="#f6465d" stroke-width="1.4" /><rect x="380.29" y="283.34" width="6" height="5.49" rx="1.5" fill="#f6465d" /><line x1="394.03" y1="266.18" x2="394.03" y2="309.41" stroke="#f6465d" stroke-width="1.4" /><rect x="391.03" y="286.77" width="6" height="19.21" rx="1.5" fill="#f6465d" /><line x1="404.76" y1="296.93" x2="404.76" y2="323.96" stroke="#f6465d" stroke-width="1.4" /><rect x="401.76" y="305.43" width="6" height="7.00" rx="1.5" fill="#f6465d" /><line x1="415.49" y1="302.55" x2="415.49" y2="319.43" stroke="#0ecb81" stroke-width="1.4" /><rect x="412.49" y="309.41" width="6" height="4.12" rx="1.5" fill="#0ecb81" /><line x1="426.23" y1="299.53" x2="426.23" y2="317.51" stroke="#f6465d" stroke-width="1.4" /><rect x="423.23" y="309.41" width="6" height="6.18" rx="1.5" fill="#f6465d" /><line x1="436.96" y1="303.24" x2="436.96" y2="387.36" stroke="#f6465d" stroke-width="1.4" /><rect x="433.96" y="315.45" width="6" height="29.23" rx="1.5" fill="#f6465d" /><line x1="447.70" y1="305.43" x2="447.70" y2="353.60" stroke="#0ecb81" stroke-width="1.4" /><rect x="444.70" y="314.77" width="6" height="31.29" rx="1.5" fill="#0ecb81" /><line x1="458.43" y1="298.57" x2="458.43" y2="330.96" stroke="#f6465d" stroke-width="1.4" /><rect x="455.43" y="314.63" width="6" height="8.23" rx="1.5" fill="#f6465d" /><line x1="469.16" y1="309.83" x2="469.16" y2="347.56" stroke="#f6465d" stroke-width="1.4" /><rect x="466.16" y="322.59" width="6" height="13.17" rx="1.5" fill="#f6465d" /><line x1="479.90" y1="328.08" x2="479.90" y2="360.19" stroke="#f6465d" stroke-width="1.4" /><rect x="476.90" y="335.76" width="6" height="11.39" rx="1.5" fill="#f6465d" /><line x1="490.63" y1="304.47" x2="490.63" y2="354.01" stroke="#0ecb81" stroke-width="1.4" /><rect x="487.63" y="325.61" width="6" height="23.06" rx="1.5" fill="#0ecb81" /><line x1="501.37" y1="317.92" x2="501.37" y2="345.37" stroke="#f6465d" stroke-width="1.4" /><rect x="498.37" y="323.41" width="6" height="18.66" rx="1.5" fill="#f6465d" /><line x1="512.10" y1="304.75" x2="512.10" y2="344.68" stroke="#0ecb81" stroke-width="1.4" /><rect x="509.10" y="311.33" width="6" height="33.35" rx="1.5" fill="#0ecb81" /><line x1="522.84" y1="300.22" x2="522.84" y2="320.25" stroke="#f6465d" stroke-width="1.4" /><rect x="519.84" y="312.30" width="6" height="4.12" rx="1.5" fill="#f6465d" /><line x1="533.57" y1="300.77" x2="533.57" y2="322.31" stroke="#0ecb81" stroke-width="1.4" /><rect x="530.57" y="313.12" width="6" height="3.29" rx="1.5" fill="#0ecb81" /><line x1="544.30" y1="298.57" x2="544.30" y2="314.90" stroke="#f6465d" stroke-width="1.4" /><rect x="541.30" y="311.61" width="6" height="2.00" rx="1.5" fill="#f6465d" /><line x1="555.04" y1="291.16" x2="555.04" y2="314.63" stroke="#0ecb81" stroke-width="1.4" /><rect x="552.04" y="309.83" width="6" height="3.57" rx="1.5" fill="#0ecb81" /><line x1="565.77" y1="228.86" x2="565.77" y2="342.90" stroke="#0ecb81" stroke-width="1.4" /><rect x="562.77" y="256.72" width="6" height="52.70" rx="1.5" fill="#0ecb81" /><line x1="576.51" y1="255.62" x2="576.51" y2="328.49" stroke="#f6465d" stroke-width="1.4" /><rect x="573.51" y="256.30" width="6" height="57.64" rx="1.5" fill="#f6465d" /><line x1="587.24" y1="305.71" x2="587.24" y2="389.56" stroke="#f6465d" stroke-width="1.4" /><rect x="584.24" y="312.30" width="6" height="38.56" rx="1.5" fill="#f6465d" /><line x1="597.97" y1="331.37" x2="597.97" y2="371.99" stroke="#0ecb81" stroke-width="1.4" /><rect x="594.97" y="333.57" width="6" height="17.29" rx="1.5" fill="#0ecb81" /><line x1="608.71" y1="299.40" x2="608.71" y2="336.04" stroke="#0ecb81" stroke-width="1.4" /><rect x="605.71" y="313.12" width="6" height="20.59" rx="1.5" fill="#0ecb81" /><line x1="619.44" y1="302.69" x2="619.44" y2="330.00" stroke="#0ecb81" stroke-width="1.4" /><rect x="616.44" y="308.04" width="6" height="3.57" rx="1.5" fill="#0ecb81" /><line x1="630.18" y1="287.32" x2="630.18" y2="344.68" stroke="#f6465d" stroke-width="1.4" /><rect x="627.18" y="308.45" width="6" height="2.00" rx="1.5" fill="#f6465d" /><line x1="640.91" y1="296.51" x2="640.91" y2="329.04" stroke="#f6465d" stroke-width="1.4" /><rect x="637.91" y="307.90" width="6" height="5.49" rx="1.5" fill="#f6465d" /><line x1="651.65" y1="299.94" x2="651.65" y2="326.84" stroke="#f6465d" stroke-width="1.4" /><rect x="648.65" y="312.71" width="6" height="3.98" rx="1.5" fill="#f6465d" /><line x1="662.38" y1="305.71" x2="662.38" y2="327.39" stroke="#0ecb81" stroke-width="1.4" /><rect x="659.38" y="309.00" width="6" height="8.10" rx="1.5" fill="#0ecb81" /><line x1="673.11" y1="297.20" x2="673.11" y2="315.73" stroke="#f6465d" stroke-width="1.4" /><rect x="670.11" y="308.86" width="6" height="3.71" rx="1.5" fill="#f6465d" /><line x1="683.85" y1="298.30" x2="683.85" y2="317.65" stroke="#0ecb81" stroke-width="1.4" /><rect x="680.85" y="309.41" width="6" height="3.16" rx="1.5" fill="#0ecb81" /><line x1="694.58" y1="300.22" x2="694.58" y2="334.39" stroke="#0ecb81" stroke-width="1.4" /><rect x="691.58" y="307.77" width="6" height="2.00" rx="1.5" fill="#0ecb81" /><line x1="705.32" y1="300.63" x2="705.32" y2="322.73" stroke="#f6465d" stroke-width="1.4" /><rect x="702.32" y="305.71" width="6" height="2.00" rx="1.5" fill="#f6465d" /><line x1="716.05" y1="278.12" x2="716.05" y2="318.47" stroke="#0ecb81" stroke-width="1.4" /><rect x="713.05" y="287.32" width="6" height="18.25" rx="1.5" fill="#0ecb81" /><line x1="726.78" y1="284.30" x2="726.78" y2="318.75" stroke="#f6465d" stroke-width="1.4" /><rect x="723.78" y="288.14" width="6" height="24.70" rx="1.5" fill="#f6465d" /><line x1="737.52" y1="305.16" x2="737.52" y2="325.20" stroke="#0ecb81" stroke-width="1.4" /><rect x="734.52" y="307.77" width="6" height="3.98" rx="1.5" fill="#0ecb81" /><line x1="748.25" y1="297.06" x2="748.25" y2="317.24" stroke="#0ecb81" stroke-width="1.4" /><rect x="745.25" y="301.32" width="6" height="6.45" rx="1.5" fill="#0ecb81" /><line x1="758.99" y1="296.10" x2="758.99" y2="317.10" stroke="#f6465d" stroke-width="1.4" /><rect x="755.99" y="301.32" width="6" height="2.00" rx="1.5" fill="#f6465d" /><line x1="769.72" y1="300.49" x2="769.72" y2="318.06" stroke="#f6465d" stroke-width="1.4" /><rect x="766.72" y="302.55" width="6" height="6.04" rx="1.5" fill="#f6465d" /><line x1="780.46" y1="305.57" x2="780.46" y2="316.55" stroke="#f6465d" stroke-width="1.4" /><rect x="777.46" y="308.73" width="6" height="2.00" rx="1.5" fill="#f6465d" /><line x1="791.19" y1="307.49" x2="791.19" y2="333.70" stroke="#f6465d" stroke-width="1.4" /><rect x="788.19" y="310.10" width="6" height="14.41" rx="1.5" fill="#f6465d" /><line x1="801.92" y1="317.51" x2="801.92" y2="363.21" stroke="#f6465d" stroke-width="1.4" /><rect x="798.92" y="323.14" width="6" height="9.47" rx="1.5" fill="#f6465d" /><line x1="812.66" y1="302.28" x2="812.66" y2="334.25" stroke="#0ecb81" stroke-width="1.4" /><rect x="809.66" y="322.86" width="6" height="9.61" rx="1.5" fill="#0ecb81" /><line x1="823.39" y1="318.75" x2="823.39" y2="381.74" stroke="#f6465d" stroke-width="1.4" /><rect x="820.39" y="322.31" width="6" height="10.57" rx="1.5" fill="#f6465d" /><line x1="834.13" y1="305.43" x2="834.13" y2="333.84" stroke="#0ecb81" stroke-width="1.4" /><rect x="831.13" y="314.35" width="6" height="18.39" rx="1.5" fill="#0ecb81" /><line x1="844.86" y1="303.51" x2="844.86" y2="329.31" stroke="#f6465d" stroke-width="1.4" /><rect x="841.86" y="314.08" width="6" height="3.84" rx="1.5" fill="#f6465d" /><line x1="855.59" y1="305.85" x2="855.59" y2="327.53" stroke="#f6465d" stroke-width="1.4" /><rect x="852.59" y="316.96" width="6" height="2.00" rx="1.5" fill="#f6465d" /><line x1="866.33" y1="303.24" x2="866.33" y2="320.39" stroke="#0ecb81" stroke-width="1.4" /><rect x="863.33" y="309.55" width="6" height="8.37" rx="1.5" fill="#0ecb81" /><line x1="877.06" y1="302.69" x2="877.06" y2="319.16" stroke="#f6465d" stroke-width="1.4" /><rect x="874.06" y="309.55" width="6" height="8.37" rx="1.5" fill="#f6465d" /><line x1="887.80" y1="288.97" x2="887.80" y2="319.84" stroke="#0ecb81" stroke-width="1.4" /><rect x="884.80" y="309.69" width="6" height="7.41" rx="1.5" fill="#0ecb81" /><line x1="898.53" y1="305.02" x2="898.53" y2="314.77" stroke="#f6465d" stroke-width="1.4" /><rect x="895.53" y="309.55" width="6" height="2.00" rx="1.5" fill="#f6465d" /><line x1="909.27" y1="298.43" x2="909.27" y2="314.77" stroke="#f6465d" stroke-width="1.4" /><rect x="906.27" y="310.51" width="6" height="2.88" rx="1.5" fill="#f6465d" /><line x1="920.00" y1="311.20" x2="920.00" y2="344.00" stroke="#f6465d" stroke-width="1.4" /><rect x="917.00" y="313.39" width="6" height="7.96" rx="1.5" fill="#f6465d" />
  <polyline points="436.96,387.36 458.43,298.57 479.90,360.19 565.77,228.86 587.24,389.56" fill="none" stroke="#2fc273" stroke-width="4" stroke-linecap="round" stroke-linejoin="round" />
  <circle cx="436.96" cy="387.36" r="5.5" fill="#2fc273" fill-opacity="0.15" stroke="#2fc273" stroke-width="2" /><text x="436.96" y="375.36" fill="#f3f4f6" font-size="15" font-weight="700" text-anchor="middle">X</text><circle cx="458.43" cy="298.57" r="5.5" fill="#2fc273" fill-opacity="0.15" stroke="#2fc273" stroke-width="2" /><text x="458.43" y="286.57" fill="#f3f4f6" font-size="15" font-weight="700" text-anchor="middle">A</text><circle cx="479.90" cy="360.19" r="5.5" fill="#2fc273" fill-opacity="0.15" stroke="#2fc273" stroke-width="2" /><text x="479.90" y="348.19" fill="#f3f4f6" font-size="15" font-weight="700" text-anchor="middle">B</text><circle cx="565.77" cy="228.86" r="5.5" fill="#2fc273" fill-opacity="0.15" stroke="#2fc273" stroke-width="2" /><text x="565.77" y="216.86" fill="#f3f4f6" font-size="15" font-weight="700" text-anchor="middle">C</text><circle cx="587.24" cy="389.56" r="5.5" fill="#2fc273" fill-opacity="0.15" stroke="#2fc273" stroke-width="2" /><text x="587.24" y="377.56" fill="#f3f4f6" font-size="15" font-weight="700" text-anchor="middle">D</text>
  <text x="56" y="492" fill="#8ba0b5" font-size="18">일반 완성 · TP1 0.23164 · TP2 0.23441 · SL 0.22633</text>
</svg>
