<svg xmlns="http://www.w3.org/2000/svg" width="960" height="540" viewBox="0 0 960 540">
  <rect width="960" height="540" rx="24" fill="#0b1220" />
  <rect x="28" y="28" width="904" height="484" rx="22" fill="#111827" stroke="#1f2937" />
  <text x="56" y="74" fill="#f3f4f6" font-size="34" font-weight="700">APTUSDT · AB=CD</text>
  <text x="904" y="74" fill="#8ba0b5" font-size="20" text-anchor="end">Bullish (매수) · Score 90.1</text>
  <line x1="72" y1="58" x2="920" y2="58" stroke="#223045" stroke-width="1" stroke-dasharray="4 8" /><line x1="72" y1="156" x2="920" y2="156" stroke="#223045" stroke-width="1" stroke-dasharray="4 8" /><line x1="72" y1="255" x2="920" y2="255" stroke="#223045" stroke-width="1" stroke-dasharray="4 8" /><line x1="72" y1="353" x2="920" y2="353" stroke="#223045" stroke-width="1" stroke-dasharray="4 8" /><line x1="72" y1="452" x2="920" y2="452" stroke="#223045" stroke-width="1" stroke-dasharray="4 8" />
  <rect x="677.32" y="324.16" width="84" height="117.35" fill="#fbbf24" fill-opacity="0.12" stroke="#fbbf24" stroke-width="1.5" stroke-dasharray="6 6" />
  <line x1="72.00" y1="213.90" x2="72.00" y2="256.42" stroke="#f6465d" stroke-width="1.4" /><rect x="69.00" y="253.58" width="6" height="2.83" rx="1.5" fill="#f6465d" /><line x1="82.73" y1="219.57" x2="82.73" y2="259.25" stroke="#0ecb81" stroke-width="1.4" /><rect x="79.73" y="230.91" width="6" height="22.68" rx="1.5" fill="#0ecb81" /><line x1="93.47" y1="211.06" x2="93.47" y2="245.08" stroke="#0ecb81" stroke-width="1.4" /><rect x="90.47" y="211.06" width="6" height="19.84" rx="1.5" fill="#0ecb81" /><line x1="104.20" y1="213.90" x2="104.20" y2="259.25" stroke="#f6465d" stroke-width="1.4" /><rect x="101.20" y="213.90" width="6" height="36.85" rx="1.5" fill="#f6465d" /><line x1="114.94" y1="239.41" x2="114.94" y2="253.58" stroke="#0ecb81" stroke-width="1.4" /><rect x="111.94" y="247.91" width="6" height="2.83" rx="1.5" fill="#0ecb81" /><line x1="125.67" y1="230.91" x2="125.67" y2="273.42" stroke="#0ecb81" stroke-width="1.4" /><rect x="122.67" y="247.91" width="6" height="2.00" rx="1.5" fill="#0ecb81" /><line x1="136.41" y1="216.73" x2="136.41" y2="250.75" stroke="#0ecb81" stroke-width="1.4" /><rect x="133.41" y="219.57" width="6" height="28.35" rx="1.5" fill="#0ecb81" /><line x1="147.14" y1="211.06" x2="147.14" y2="228.07" stroke="#f6465d" stroke-width="1.4" /><rect x="144.14" y="216.73" width="6" height="5.67" rx="1.5" fill="#f6465d" /><line x1="157.87" y1="219.57" x2="157.87" y2="239.41" stroke="#f6465d" stroke-width="1.4" /><rect x="154.87" y="222.40" width="6" height="2.83" rx="1.5" fill="#f6465d" /><line x1="168.61" y1="199.73" x2="168.61" y2="228.07" stroke="#0ecb81" stroke-width="1.4" /><rect x="165.61" y="205.40" width="6" height="17.01" rx="1.5" fill="#0ecb81" /><line x1="179.34" y1="177.05" x2="179.34" y2="208.23" stroke="#0ecb81" stroke-width="1.4" /><rect x="176.34" y="199.73" width="6" height="5.67" rx="1.5" fill="#0ecb81" /><line x1="190.08" y1="194.06" x2="190.08" y2="216.73" stroke="#f6465d" stroke-width="1.4" /><rect x="187.08" y="199.73" width="6" height="11.34" rx="1.5" fill="#f6465d" /><line x1="200.81" y1="199.73" x2="200.81" y2="250.75" stroke="#f6465d" stroke-width="1.4" /><rect x="197.81" y="211.06" width="6" height="39.68" rx="1.5" fill="#f6465d" /><line x1="211.54" y1="233.74" x2="211.54" y2="264.92" stroke="#0ecb81" stroke-width="1.4" /><rect x="208.54" y="242.24" width="6" height="8.50" rx="1.5" fill="#0ecb81" /><line x1="222.28" y1="213.90" x2="222.28" y2="245.08" stroke="#0ecb81" stroke-width="1.4" /><rect x="219.28" y="233.74" width="6" height="8.50" rx="1.5" fill="#0ecb81" /><line x1="233.01" y1="191.22" x2="233.01" y2="239.41" stroke="#0ecb81" stroke-width="1.4" /><rect x="230.01" y="194.06" width="6" height="39.68" rx="1.5" fill="#0ecb81" /><line x1="243.75" y1="185.55" x2="243.75" y2="247.91" stroke="#f6465d" stroke-width="1.4" /><rect x="240.75" y="194.06" width="6" height="28.35" rx="1.5" fill="#f6465d" /><line x1="254.48" y1="211.06" x2="254.48" y2="239.41" stroke="#f6465d" stroke-width="1.4" /><rect x="251.48" y="219.57" width="6" height="11.34" rx="1.5" fill="#f6465d" /><line x1="265.22" y1="211.06" x2="265.22" y2="245.08" stroke="#0ecb81" stroke-width="1.4" /><rect x="262.22" y="219.57" width="6" height="11.34" rx="1.5" fill="#0ecb81" /><line x1="275.95" y1="196.89" x2="275.95" y2="225.24" stroke="#0ecb81" stroke-width="1.4" /><rect x="272.95" y="205.40" width="6" height="11.34" rx="1.5" fill="#0ecb81" /><line x1="286.68" y1="162.88" x2="286.68" y2="205.40" stroke="#0ecb81" stroke-width="1.4" /><rect x="283.68" y="171.38" width="6" height="34.01" rx="1.5" fill="#0ecb81" /><line x1="297.42" y1="168.55" x2="297.42" y2="199.73" stroke="#f6465d" stroke-width="1.4" /><rect x="294.42" y="168.55" width="6" height="22.68" rx="1.5" fill="#f6465d" /><line x1="308.15" y1="179.88" x2="308.15" y2="211.06" stroke="#f6465d" stroke-width="1.4" /><rect x="305.15" y="188.39" width="6" height="8.50" rx="1.5" fill="#f6465d" /><line x1="318.89" y1="168.55" x2="318.89" y2="205.40" stroke="#0ecb81" stroke-width="1.4" /><rect x="315.89" y="174.22" width="6" height="22.68" rx="1.5" fill="#0ecb81" /><line x1="329.62" y1="162.88" x2="329.62" y2="188.39" stroke="#0ecb81" stroke-width="1.4" /><rect x="326.62" y="168.55" width="6" height="2.83" rx="1.5" fill="#0ecb81" /><line x1="340.35" y1="154.37" x2="340.35" y2="182.72" stroke="#f6465d" stroke-width="1.4" /><rect x="337.35" y="171.38" width="6" height="5.67" rx="1.5" fill="#f6465d" /><line x1="351.09" y1="151.54" x2="351.09" y2="177.05" stroke="#f6465d" stroke-width="1.4" /><rect x="348.09" y="174.22" width="6" height="2.83" rx="1.5" fill="#f6465d" /><line x1="361.82" y1="145.87" x2="361.82" y2="185.55" stroke="#0ecb81" stroke-width="1.4" /><rect x="358.82" y="160.04" width="6" height="17.01" rx="1.5" fill="#0ecb81" /><line x1="372.56" y1="154.37" x2="372.56" y2="177.05" stroke="#f6465d" stroke-width="1.4" /><rect x="369.56" y="160.04" width="6" height="8.50" rx="1.5" fill="#f6465d" /><line x1="383.29" y1="168.55" x2="383.29" y2="194.06" stroke="#f6465d" stroke-width="1.4" /><rect x="380.29" y="171.38" width="6" height="11.34" rx="1.5" fill="#f6465d" /><line x1="394.03" y1="171.38" x2="394.03" y2="199.73" stroke="#f6465d" stroke-width="1.4" /><rect x="391.03" y="182.72" width="6" height="8.50" rx="1.5" fill="#f6465d" /><line x1="404.76" y1="179.88" x2="404.76" y2="208.23" stroke="#f6465d" stroke-width="1.4" /><rect x="401.76" y="194.06" width="6" height="14.17" rx="1.5" fill="#f6465d" /><line x1="415.49" y1="179.88" x2="415.49" y2="211.06" stroke="#0ecb81" stroke-width="1.4" /><rect x="412.49" y="188.39" width="6" height="19.84" rx="1.5" fill="#0ecb81" /><line x1="426.23" y1="179.88" x2="426.23" y2="211.06" stroke="#0ecb81" stroke-width="1.4" /><rect x="423.23" y="179.88" width="6" height="8.50" rx="1.5" fill="#0ecb81" /><line x1="436.96" y1="94.85" x2="436.96" y2="179.88" stroke="#0ecb81" stroke-width="1.4" /><rect x="433.96" y="140.20" width="6" height="39.68" rx="1.5" fill="#0ecb81" /><line x1="447.70" y1="140.20" x2="447.70" y2="185.55" stroke="#f6465d" stroke-width="1.4" /><rect x="444.70" y="143.04" width="6" height="36.85" rx="1.5" fill="#f6465d" /><line x1="458.43" y1="171.38" x2="458.43" y2="228.07" stroke="#f6465d" stroke-width="1.4" /><rect x="455.43" y="179.88" width="6" height="48.19" rx="1.5" fill="#f6465d" /><line x1="469.16" y1="213.90" x2="469.16" y2="236.58" stroke="#0ecb81" stroke-width="1.4" /><rect x="466.16" y="222.40" width="6" height="8.50" rx="1.5" fill="#0ecb81" /><line x1="479.90" y1="219.57" x2="479.90" y2="242.24" stroke="#f6465d" stroke-width="1.4" /><rect x="476.90" y="225.24" width="6" height="17.01" rx="1.5" fill="#f6465d" /><line x1="490.63" y1="230.91" x2="490.63" y2="267.76" stroke="#f6465d" stroke-width="1.4" /><rect x="487.63" y="242.24" width="6" height="2.83" rx="1.5" fill="#f6465d" /><line x1="501.37" y1="233.74" x2="501.37" y2="256.42" stroke="#0ecb81" stroke-width="1.4" /><rect x="498.37" y="239.41" width="6" height="2.83" rx="1.5" fill="#0ecb81" /><line x1="512.10" y1="239.41" x2="512.10" y2="267.76" stroke="#f6465d" stroke-width="1.4" /><rect x="509.10" y="242.24" width="6" height="25.51" rx="1.5" fill="#f6465d" /><line x1="522.84" y1="228.07" x2="522.84" y2="267.76" stroke="#0ecb81" stroke-width="1.4" /><rect x="519.84" y="256.42" width="6" height="8.50" rx="1.5" fill="#0ecb81" /><line x1="533.57" y1="242.24" x2="533.57" y2="276.26" stroke="#f6465d" stroke-width="1.4" /><rect x="530.57" y="256.42" width="6" height="17.01" rx="1.5" fill="#f6465d" /><line x1="544.30" y1="262.09" x2="544.30" y2="293.27" stroke="#0ecb81" stroke-width="1.4" /><rect x="541.30" y="264.92" width="6" height="8.50" rx="1.5" fill="#0ecb81" /><line x1="555.04" y1="199.73" x2="555.04" y2="267.76" stroke="#0ecb81" stroke-width="1.4" /><rect x="552.04" y="199.73" width="6" height="62.36" rx="1.5" fill="#0ecb81" /><line x1="565.77" y1="194.06" x2="565.77" y2="225.24" stroke="#0ecb81" stroke-width="1.4" /><rect x="562.77" y="199.73" width="6" height="2.00" rx="1.5" fill="#0ecb81" /><line x1="576.51" y1="188.39" x2="576.51" y2="211.06" stroke="#f6465d" stroke-width="1.4" /><rect x="573.51" y="196.89" width="6" height="11.34" rx="1.5" fill="#f6465d" /><line x1="587.24" y1="185.55" x2="587.24" y2="213.90" stroke="#0ecb81" stroke-width="1.4" /><rect x="584.24" y="208.23" width="6" height="2.00" rx="1.5" fill="#0ecb81" /><line x1="597.97" y1="194.06" x2="597.97" y2="213.90" stroke="#0ecb81" stroke-width="1.4" /><rect x="594.97" y="202.56" width="6" height="2.83" rx="1.5" fill="#0ecb81" /><line x1="608.71" y1="194.06" x2="608.71" y2="205.40" stroke="#0ecb81" stroke-width="1.4" /><rect x="605.71" y="196.89" width="6" height="8.50" rx="1.5" fill="#0ecb81" /><line x1="619.44" y1="188.39" x2="619.44" y2="208.23" stroke="#f6465d" stroke-width="1.4" /><rect x="616.44" y="196.89" width="6" height="8.50" rx="1.5" fill="#f6465d" /><line x1="630.18" y1="140.20" x2="630.18" y2="213.90" stroke="#0ecb81" stroke-width="1.4" /><rect x="627.18" y="143.04" width="6" height="62.36" rx="1.5" fill="#0ecb81" /><line x1="640.91" y1="143.04" x2="640.91" y2="199.73" stroke="#f6465d" stroke-width="1.4" /><rect x="637.91" y="145.87" width="6" height="48.19" rx="1.5" fill="#f6465d" /><line x1="651.65" y1="168.55" x2="651.65" y2="196.89" stroke="#f6465d" stroke-width="1.4" /><rect x="648.65" y="194.06" width="6" height="2.83" rx="1.5" fill="#f6465d" /><line x1="662.38" y1="194.06" x2="662.38" y2="225.24" stroke="#f6465d" stroke-width="1.4" /><rect x="659.38" y="196.89" width="6" height="17.01" rx="1.5" fill="#f6465d" /><line x1="673.11" y1="208.23" x2="673.11" y2="245.08" stroke="#f6465d" stroke-width="1.4" /><rect x="670.11" y="216.73" width="6" height="19.84" rx="1.5" fill="#f6465d" /><line x1="683.85" y1="208.23" x2="683.85" y2="341.45" stroke="#f6465d" stroke-width="1.4" /><rect x="680.85" y="236.58" width="6" height="45.35" rx="1.5" fill="#f6465d" /><line x1="694.58" y1="259.25" x2="694.58" y2="315.94" stroke="#f6465d" stroke-width="1.4" /><rect x="691.58" y="281.93" width="6" height="17.01" rx="1.5" fill="#f6465d" /><line x1="705.32" y1="284.76" x2="705.32" y2="452.00" stroke="#f6465d" stroke-width="1.4" /><rect x="702.32" y="301.77" width="6" height="62.36" rx="1.5" fill="#f6465d" /><line x1="716.05" y1="307.44" x2="716.05" y2="375.47" stroke="#0ecb81" stroke-width="1.4" /><rect x="713.05" y="315.94" width="6" height="48.19" rx="1.5" fill="#0ecb81" /><line x1="726.78" y1="245.08" x2="726.78" y2="321.61" stroke="#0ecb81" stroke-width="1.4" /><rect x="723.78" y="259.25" width="6" height="62.36" rx="1.5" fill="#0ecb81" /><line x1="737.52" y1="202.56" x2="737.52" y2="259.25" stroke="#0ecb81" stroke-width="1.4" /><rect x="734.52" y="205.40" width="6" height="53.86" rx="1.5" fill="#0ecb81" /><line x1="748.25" y1="154.37" x2="748.25" y2="216.73" stroke="#0ecb81" stroke-width="1.4" /><rect x="745.25" y="171.38" width="6" height="34.01" rx="1.5" fill="#0ecb81" /><line x1="758.99" y1="171.38" x2="758.99" y2="208.23" stroke="#f6465d" stroke-width="1.4" /><rect x="755.99" y="171.38" width="6" height="25.51" rx="1.5" fill="#f6465d" /><line x1="769.72" y1="194.06" x2="769.72" y2="239.41" stroke="#f6465d" stroke-width="1.4" /><rect x="766.72" y="194.06" width="6" height="42.52" rx="1.5" fill="#f6465d" /><line x1="780.46" y1="233.74" x2="780.46" y2="287.60" stroke="#f6465d" stroke-width="1.4" /><rect x="777.46" y="236.58" width="6" height="14.17" rx="1.5" fill="#f6465d" /><line x1="791.19" y1="245.08" x2="791.19" y2="270.59" stroke="#f6465d" stroke-width="1.4" /><rect x="788.19" y="250.75" width="6" height="5.67" rx="1.5" fill="#f6465d" /><line x1="801.92" y1="239.41" x2="801.92" y2="307.44" stroke="#f6465d" stroke-width="1.4" /><rect x="798.92" y="259.25" width="6" height="42.52" rx="1.5" fill="#f6465d" /><line x1="812.66" y1="247.91" x2="812.66" y2="327.28" stroke="#0ecb81" stroke-width="1.4" /><rect x="809.66" y="250.75" width="6" height="53.86" rx="1.5" fill="#0ecb81" /><line x1="823.39" y1="205.40" x2="823.39" y2="259.25" stroke="#0ecb81" stroke-width="1.4" /><rect x="820.39" y="208.23" width="6" height="42.52" rx="1.5" fill="#0ecb81" /><line x1="834.13" y1="185.55" x2="834.13" y2="222.40" stroke="#f6465d" stroke-width="1.4" /><rect x="831.13" y="205.40" width="6" height="17.01" rx="1.5" fill="#f6465d" /><line x1="844.86" y1="168.55" x2="844.86" y2="228.07" stroke="#0ecb81" stroke-width="1.4" /><rect x="841.86" y="194.06" width="6" height="28.35" rx="1.5" fill="#0ecb81" /><line x1="855.59" y1="154.37" x2="855.59" y2="194.06" stroke="#0ecb81" stroke-width="1.4" /><rect x="852.59" y="179.88" width="6" height="14.17" rx="1.5" fill="#0ecb81" /><line x1="866.33" y1="126.03" x2="866.33" y2="191.22" stroke="#0ecb81" stroke-width="1.4" /><rect x="863.33" y="134.53" width="6" height="45.35" rx="1.5" fill="#0ecb81" /><line x1="877.06" y1="58.00" x2="877.06" y2="140.20" stroke="#0ecb81" stroke-width="1.4" /><rect x="874.06" y="69.34" width="6" height="62.36" rx="1.5" fill="#0ecb81" /><line x1="887.80" y1="66.50" x2="887.80" y2="117.53" stroke="#f6465d" stroke-width="1.4" /><rect x="884.80" y="72.17" width="6" height="17.01" rx="1.5" fill="#f6465d" /><line x1="898.53" y1="89.18" x2="898.53" y2="151.54" stroke="#f6465d" stroke-width="1.4" /><rect x="895.53" y="89.18" width="6" height="53.86" rx="1.5" fill="#f6465d" /><line x1="909.27" y1="134.53" x2="909.27" y2="182.72" stroke="#f6465d" stroke-width="1.4" /><rect x="906.27" y="140.20" width="6" height="25.51" rx="1.5" fill="#f6465d" /><line x1="920.00" y1="148.71" x2="920.00" y2="171.38" stroke="#0ecb81" stroke-width="1.4" /><rect x="917.00" y="148.71" width="6" height="17.01" rx="1.5" fill="#0ecb81" />
  <polyline points="415.49,211.06 436.96,94.85 544.30,293.27 630.18,140.20 705.32,452.00" fill="none" stroke="#2fc273" stroke-width="4" stroke-linecap="round" stroke-linejoin="round" />
  <circle cx="415.49" cy="211.06" r="5.5" fill="#2fc273" fill-opacity="0.15" stroke="#2fc273" stroke-width="2" /><text x="415.49" y="199.06" fill="#f3f4f6" font-size="15" font-weight="700" text-anchor="middle">X</text><circle cx="436.96" cy="94.85" r="5.5" fill="#2fc273" fill-opacity="0.15" stroke="#2fc273" stroke-width="2" /><text x="436.96" y="82.85" fill="#f3f4f6" font-size="15" font-weight="700" text-anchor="middle">A</text><circle cx="544.30" cy="293.27" r="5.5" fill="#2fc273" fill-opacity="0.15" stroke="#2fc273" stroke-width="2" /><text x="544.30" y="281.27" fill="#f3f4f6" font-size="15" font-weight="700" text-anchor="middle">B</text><circle cx="630.18" cy="140.20" r="5.5" fill="#2fc273" fill-opacity="0.15" stroke="#2fc273" stroke-width="2" /><text x="630.18" y="128.20" fill="#f3f4f6" font-size="15" font-weight="700" text-anchor="middle">C</text><circle cx="705.32" cy="452.00" r="5.5" fill="#2fc273" fill-opacity="0.15" stroke="#2fc273" stroke-width="2" /><text x="705.32" y="440.00" fill="#f3f4f6" font-size="15" font-weight="700" text-anchor="middle">D</text>
  <text x="56" y="492" fill="#8ba0b5" font-size="18">일반 완성 · TP1 0.8287 · TP2 0.8313 · SL 0.82397</text>
</svg>
