<svg xmlns="http://www.w3.org/2000/svg" width="960" height="540" viewBox="0 0 960 540">
  <rect width="960" height="540" rx="24" fill="#0b1220" />
  <rect x="28" y="28" width="904" height="484" rx="22" fill="#111827" stroke="#1f2937" />
  <text x="56" y="74" fill="#f3f4f6" font-size="34" font-weight="700">APTUSDT · AB=CD</text>
  <text x="904" y="74" fill="#8ba0b5" font-size="20" text-anchor="end">Bearish (매도) · Score 87.8</text>
  <line x1="72" y1="58" x2="920" y2="58" stroke="#223045" stroke-width="1" stroke-dasharray="4 8" /><line x1="72" y1="156" x2="920" y2="156" stroke="#223045" stroke-width="1" stroke-dasharray="4 8" /><line x1="72" y1="255" x2="920" y2="255" stroke="#223045" stroke-width="1" stroke-dasharray="4 8" /><line x1="72" y1="353" x2="920" y2="353" stroke="#223045" stroke-width="1" stroke-dasharray="4 8" /><line x1="72" y1="452" x2="920" y2="452" stroke="#223045" stroke-width="1" stroke-dasharray="4 8" />
  <rect x="838.33" y="-15.76" width="84" height="72.51" fill="#fbbf24" fill-opacity="0.12" stroke="#fbbf24" stroke-width="1.5" stroke-dasharray="6 6" />
  <line x1="72.00" y1="423.05" x2="72.00" y2="444.45" stroke="#f6465d" stroke-width="1.4" /><rect x="69.00" y="434.38" width="6" height="3.78" rx="1.5" fill="#f6465d" /><line x1="82.73" y1="430.60" x2="82.73" y2="446.96" stroke="#0ecb81" stroke-width="1.4" /><rect x="79.73" y="430.60" width="6" height="7.55" rx="1.5" fill="#0ecb81" /><line x1="93.47" y1="421.79" x2="93.47" y2="434.38" stroke="#0ecb81" stroke-width="1.4" /><rect x="90.47" y="424.31" width="6" height="6.29" rx="1.5" fill="#0ecb81" /><line x1="104.20" y1="424.31" x2="104.20" y2="438.15" stroke="#0ecb81" stroke-width="1.4" /><rect x="101.20" y="424.31" width="6" height="2.00" rx="1.5" fill="#0ecb81" /><line x1="114.94" y1="390.32" x2="114.94" y2="424.31" stroke="#0ecb81" stroke-width="1.4" /><rect x="111.94" y="402.91" width="6" height="21.40" rx="1.5" fill="#0ecb81" /><line x1="125.67" y1="389.06" x2="125.67" y2="404.17" stroke="#0ecb81" stroke-width="1.4" /><rect x="122.67" y="401.65" width="6" height="2.00" rx="1.5" fill="#0ecb81" /><line x1="136.41" y1="399.13" x2="136.41" y2="426.82" stroke="#f6465d" stroke-width="1.4" /><rect x="133.41" y="402.91" width="6" height="23.92" rx="1.5" fill="#f6465d" /><line x1="147.14" y1="416.75" x2="147.14" y2="434.38" stroke="#0ecb81" stroke-width="1.4" /><rect x="144.14" y="416.75" width="6" height="10.07" rx="1.5" fill="#0ecb81" /><line x1="157.87" y1="396.61" x2="157.87" y2="420.53" stroke="#0ecb81" stroke-width="1.4" /><rect x="154.87" y="407.94" width="6" height="7.55" rx="1.5" fill="#0ecb81" /><line x1="168.61" y1="397.87" x2="168.61" y2="414.24" stroke="#0ecb81" stroke-width="1.4" /><rect x="165.61" y="404.17" width="6" height="3.78" rx="1.5" fill="#0ecb81" /><line x1="179.34" y1="402.91" x2="179.34" y2="418.01" stroke="#f6465d" stroke-width="1.4" /><rect x="176.34" y="402.91" width="6" height="12.59" rx="1.5" fill="#f6465d" /><line x1="190.08" y1="406.68" x2="190.08" y2="429.34" stroke="#0ecb81" stroke-width="1.4" /><rect x="187.08" y="410.46" width="6" height="6.29" rx="1.5" fill="#0ecb81" /><line x1="200.81" y1="381.51" x2="200.81" y2="409.20" stroke="#0ecb81" stroke-width="1.4" /><rect x="197.81" y="402.91" width="6" height="6.29" rx="1.5" fill="#0ecb81" /><line x1="211.54" y1="391.58" x2="211.54" y2="407.94" stroke="#0ecb81" stroke-width="1.4" /><rect x="208.54" y="402.91" width="6" height="2.00" rx="1.5" fill="#0ecb81" /><line x1="222.28" y1="402.91" x2="222.28" y2="423.05" stroke="#f6465d" stroke-width="1.4" /><rect x="219.28" y="402.91" width="6" height="12.59" rx="1.5" fill="#f6465d" /><line x1="233.01" y1="410.46" x2="233.01" y2="423.05" stroke="#0ecb81" stroke-width="1.4" /><rect x="230.01" y="412.98" width="6" height="2.00" rx="1.5" fill="#0ecb81" /><line x1="243.75" y1="407.94" x2="243.75" y2="418.01" stroke="#0ecb81" stroke-width="1.4" /><rect x="240.75" y="412.98" width="6" height="2.00" rx="1.5" fill="#0ecb81" /><line x1="254.48" y1="392.84" x2="254.48" y2="418.01" stroke="#0ecb81" stroke-width="1.4" /><rect x="251.48" y="401.65" width="6" height="11.33" rx="1.5" fill="#0ecb81" /><line x1="265.22" y1="400.39" x2="265.22" y2="411.72" stroke="#f6465d" stroke-width="1.4" /><rect x="262.22" y="401.65" width="6" height="2.00" rx="1.5" fill="#f6465d" /><line x1="275.95" y1="391.58" x2="275.95" y2="405.42" stroke="#0ecb81" stroke-width="1.4" /><rect x="272.95" y="397.87" width="6" height="5.04" rx="1.5" fill="#0ecb81" /><line x1="286.68" y1="397.87" x2="286.68" y2="424.31" stroke="#f6465d" stroke-width="1.4" /><rect x="283.68" y="399.13" width="6" height="23.92" rx="1.5" fill="#f6465d" /><line x1="297.42" y1="411.72" x2="297.42" y2="445.71" stroke="#f6465d" stroke-width="1.4" /><rect x="294.42" y="421.79" width="6" height="17.62" rx="1.5" fill="#f6465d" /><line x1="308.15" y1="407.94" x2="308.15" y2="440.67" stroke="#0ecb81" stroke-width="1.4" /><rect x="305.15" y="425.57" width="6" height="13.85" rx="1.5" fill="#0ecb81" /><line x1="318.89" y1="387.80" x2="318.89" y2="426.82" stroke="#0ecb81" stroke-width="1.4" /><rect x="315.89" y="399.13" width="6" height="26.43" rx="1.5" fill="#0ecb81" /><line x1="329.62" y1="399.13" x2="329.62" y2="412.98" stroke="#f6465d" stroke-width="1.4" /><rect x="326.62" y="399.13" width="6" height="12.59" rx="1.5" fill="#f6465d" /><line x1="340.35" y1="407.94" x2="340.35" y2="450.74" stroke="#f6465d" stroke-width="1.4" /><rect x="337.35" y="410.46" width="6" height="18.88" rx="1.5" fill="#f6465d" /><line x1="351.09" y1="425.57" x2="351.09" y2="452.00" stroke="#f6465d" stroke-width="1.4" /><rect x="348.09" y="428.08" width="6" height="20.14" rx="1.5" fill="#f6465d" /><line x1="361.82" y1="423.05" x2="361.82" y2="452.00" stroke="#0ecb81" stroke-width="1.4" /><rect x="358.82" y="429.34" width="6" height="18.88" rx="1.5" fill="#0ecb81" /><line x1="372.56" y1="423.05" x2="372.56" y2="439.41" stroke="#0ecb81" stroke-width="1.4" /><rect x="369.56" y="428.08" width="6" height="2.52" rx="1.5" fill="#0ecb81" /><line x1="383.29" y1="415.50" x2="383.29" y2="435.64" stroke="#0ecb81" stroke-width="1.4" /><rect x="380.29" y="428.08" width="6" height="2.00" rx="1.5" fill="#0ecb81" /><line x1="394.03" y1="423.05" x2="394.03" y2="431.86" stroke="#f6465d" stroke-width="1.4" /><rect x="391.03" y="428.08" width="6" height="2.00" rx="1.5" fill="#f6465d" /><line x1="404.76" y1="399.13" x2="404.76" y2="429.34" stroke="#0ecb81" stroke-width="1.4" /><rect x="401.76" y="418.01" width="6" height="11.33" rx="1.5" fill="#0ecb81" /><line x1="415.49" y1="414.24" x2="415.49" y2="421.79" stroke="#0ecb81" stroke-width="1.4" /><rect x="412.49" y="419.27" width="6" height="2.00" rx="1.5" fill="#0ecb81" /><line x1="426.23" y1="415.50" x2="426.23" y2="433.12" stroke="#f6465d" stroke-width="1.4" /><rect x="423.23" y="418.01" width="6" height="10.07" rx="1.5" fill="#f6465d" /><line x1="436.96" y1="426.82" x2="436.96" y2="441.93" stroke="#f6465d" stroke-width="1.4" /><rect x="433.96" y="426.82" width="6" height="11.33" rx="1.5" fill="#f6465d" /><line x1="447.70" y1="430.60" x2="447.70" y2="439.41" stroke="#0ecb81" stroke-width="1.4" /><rect x="444.70" y="435.64" width="6" height="2.52" rx="1.5" fill="#0ecb81" /><line x1="458.43" y1="405.42" x2="458.43" y2="436.89" stroke="#0ecb81" stroke-width="1.4" /><rect x="455.43" y="407.94" width="6" height="26.43" rx="1.5" fill="#0ecb81" /><line x1="469.16" y1="368.92" x2="469.16" y2="407.94" stroke="#0ecb81" stroke-width="1.4" /><rect x="466.16" y="376.47" width="6" height="30.21" rx="1.5" fill="#0ecb81" /><line x1="479.90" y1="368.92" x2="479.90" y2="397.87" stroke="#f6465d" stroke-width="1.4" /><rect x="476.90" y="375.21" width="6" height="17.62" rx="1.5" fill="#f6465d" /><line x1="490.63" y1="385.28" x2="490.63" y2="404.17" stroke="#f6465d" stroke-width="1.4" /><rect x="487.63" y="391.58" width="6" height="2.00" rx="1.5" fill="#f6465d" /><line x1="501.37" y1="376.47" x2="501.37" y2="394.10" stroke="#0ecb81" stroke-width="1.4" /><rect x="498.37" y="387.80" width="6" height="5.04" rx="1.5" fill="#0ecb81" /><line x1="512.10" y1="380.25" x2="512.10" y2="390.32" stroke="#0ecb81" stroke-width="1.4" /><rect x="509.10" y="382.77" width="6" height="5.04" rx="1.5" fill="#0ecb81" /><line x1="522.84" y1="352.56" x2="522.84" y2="389.06" stroke="#0ecb81" stroke-width="1.4" /><rect x="519.84" y="357.59" width="6" height="23.92" rx="1.5" fill="#0ecb81" /><line x1="533.57" y1="332.42" x2="533.57" y2="360.11" stroke="#0ecb81" stroke-width="1.4" /><rect x="530.57" y="341.23" width="6" height="16.36" rx="1.5" fill="#0ecb81" /><line x1="544.30" y1="331.16" x2="544.30" y2="353.81" stroke="#f6465d" stroke-width="1.4" /><rect x="541.30" y="341.23" width="6" height="7.55" rx="1.5" fill="#f6465d" /><line x1="555.04" y1="326.12" x2="555.04" y2="350.04" stroke="#0ecb81" stroke-width="1.4" /><rect x="552.04" y="336.19" width="6" height="11.33" rx="1.5" fill="#0ecb81" /><line x1="565.77" y1="312.27" x2="565.77" y2="341.23" stroke="#0ecb81" stroke-width="1.4" /><rect x="562.77" y="324.86" width="6" height="11.33" rx="1.5" fill="#0ecb81" /><line x1="576.51" y1="312.27" x2="576.51" y2="332.42" stroke="#0ecb81" stroke-width="1.4" /><rect x="573.51" y="318.57" width="6" height="6.29" rx="1.5" fill="#0ecb81" /><line x1="587.24" y1="304.72" x2="587.24" y2="318.57" stroke="#0ecb81" stroke-width="1.4" /><rect x="584.24" y="309.76" width="6" height="8.81" rx="1.5" fill="#0ecb81" /><line x1="597.97" y1="279.55" x2="597.97" y2="309.76" stroke="#0ecb81" stroke-width="1.4" /><rect x="594.97" y="288.36" width="6" height="21.40" rx="1.5" fill="#0ecb81" /><line x1="608.71" y1="279.55" x2="608.71" y2="290.88" stroke="#f6465d" stroke-width="1.4" /><rect x="605.71" y="288.36" width="6" height="2.52" rx="1.5" fill="#f6465d" /><line x1="619.44" y1="245.56" x2="619.44" y2="290.88" stroke="#0ecb81" stroke-width="1.4" /><rect x="616.44" y="250.59" width="6" height="39.02" rx="1.5" fill="#0ecb81" /><line x1="630.18" y1="229.19" x2="630.18" y2="271.99" stroke="#0ecb81" stroke-width="1.4" /><rect x="627.18" y="244.30" width="6" height="6.29" rx="1.5" fill="#0ecb81" /><line x1="640.91" y1="241.78" x2="640.91" y2="263.18" stroke="#f6465d" stroke-width="1.4" /><rect x="637.91" y="244.30" width="6" height="17.62" rx="1.5" fill="#f6465d" /><line x1="651.65" y1="258.15" x2="651.65" y2="295.91" stroke="#f6465d" stroke-width="1.4" /><rect x="648.65" y="260.66" width="6" height="32.73" rx="1.5" fill="#f6465d" /><line x1="662.38" y1="283.32" x2="662.38" y2="303.46" stroke="#f6465d" stroke-width="1.4" /><rect x="659.38" y="294.65" width="6" height="2.52" rx="1.5" fill="#f6465d" /><line x1="673.11" y1="292.13" x2="673.11" y2="305.98" stroke="#f6465d" stroke-width="1.4" /><rect x="670.11" y="295.91" width="6" height="3.78" rx="1.5" fill="#f6465d" /><line x1="683.85" y1="279.55" x2="683.85" y2="299.69" stroke="#0ecb81" stroke-width="1.4" /><rect x="680.85" y="285.84" width="6" height="12.59" rx="1.5" fill="#0ecb81" /><line x1="694.58" y1="283.32" x2="694.58" y2="297.17" stroke="#0ecb81" stroke-width="1.4" /><rect x="691.58" y="287.10" width="6" height="2.00" rx="1.5" fill="#0ecb81" /><line x1="705.32" y1="229.19" x2="705.32" y2="285.84" stroke="#0ecb81" stroke-width="1.4" /><rect x="702.32" y="249.34" width="6" height="36.50" rx="1.5" fill="#0ecb81" /><line x1="716.05" y1="166.26" x2="716.05" y2="250.59" stroke="#0ecb81" stroke-width="1.4" /><rect x="713.05" y="176.33" width="6" height="73.01" rx="1.5" fill="#0ecb81" /><line x1="726.78" y1="109.61" x2="726.78" y2="196.47" stroke="#f6465d" stroke-width="1.4" /><rect x="723.78" y="177.58" width="6" height="8.81" rx="1.5" fill="#f6465d" /><line x1="737.52" y1="186.40" x2="737.52" y2="232.97" stroke="#f6465d" stroke-width="1.4" /><rect x="734.52" y="186.40" width="6" height="36.50" rx="1.5" fill="#f6465d" /><line x1="748.25" y1="185.14" x2="748.25" y2="221.64" stroke="#0ecb81" stroke-width="1.4" /><rect x="745.25" y="221.64" width="6" height="2.00" rx="1.5" fill="#0ecb81" /><line x1="758.99" y1="217.87" x2="758.99" y2="245.56" stroke="#f6465d" stroke-width="1.4" /><rect x="755.99" y="220.38" width="6" height="17.62" rx="1.5" fill="#f6465d" /><line x1="769.72" y1="212.83" x2="769.72" y2="253.11" stroke="#0ecb81" stroke-width="1.4" /><rect x="766.72" y="219.12" width="6" height="18.88" rx="1.5" fill="#0ecb81" /><line x1="780.46" y1="192.69" x2="780.46" y2="217.87" stroke="#0ecb81" stroke-width="1.4" /><rect x="777.46" y="193.95" width="6" height="23.92" rx="1.5" fill="#0ecb81" /><line x1="791.19" y1="182.62" x2="791.19" y2="205.28" stroke="#0ecb81" stroke-width="1.4" /><rect x="788.19" y="188.91" width="6" height="5.04" rx="1.5" fill="#0ecb81" /><line x1="801.92" y1="173.81" x2="801.92" y2="192.69" stroke="#0ecb81" stroke-width="1.4" /><rect x="798.92" y="175.07" width="6" height="12.59" rx="1.5" fill="#0ecb81" /><line x1="812.66" y1="147.37" x2="812.66" y2="177.58" stroke="#0ecb81" stroke-width="1.4" /><rect x="809.66" y="152.41" width="6" height="22.66" rx="1.5" fill="#0ecb81" /><line x1="823.39" y1="148.63" x2="823.39" y2="171.29" stroke="#f6465d" stroke-width="1.4" /><rect x="820.39" y="153.67" width="6" height="2.00" rx="1.5" fill="#f6465d" /><line x1="834.13" y1="122.20" x2="834.13" y2="156.19" stroke="#0ecb81" stroke-width="1.4" /><rect x="831.13" y="124.72" width="6" height="31.47" rx="1.5" fill="#0ecb81" /><line x1="844.86" y1="90.73" x2="844.86" y2="125.97" stroke="#0ecb81" stroke-width="1.4" /><rect x="841.86" y="104.58" width="6" height="20.14" rx="1.5" fill="#0ecb81" /><line x1="855.59" y1="65.55" x2="855.59" y2="110.87" stroke="#0ecb81" stroke-width="1.4" /><rect x="852.59" y="66.81" width="6" height="39.02" rx="1.5" fill="#0ecb81" /><line x1="866.33" y1="58.00" x2="866.33" y2="84.43" stroke="#f6465d" stroke-width="1.4" /><rect x="863.33" y="65.55" width="6" height="12.59" rx="1.5" fill="#f6465d" /><line x1="877.06" y1="64.29" x2="877.06" y2="120.94" stroke="#f6465d" stroke-width="1.4" /><rect x="874.06" y="76.88" width="6" height="12.59" rx="1.5" fill="#f6465d" /><line x1="887.80" y1="78.14" x2="887.80" y2="103.32" stroke="#0ecb81" stroke-width="1.4" /><rect x="884.80" y="81.92" width="6" height="7.55" rx="1.5" fill="#0ecb81" /><line x1="898.53" y1="68.07" x2="898.53" y2="99.54" stroke="#f6465d" stroke-width="1.4" /><rect x="895.53" y="81.92" width="6" height="10.07" rx="1.5" fill="#f6465d" /><line x1="909.27" y1="86.95" x2="909.27" y2="132.27" stroke="#f6465d" stroke-width="1.4" /><rect x="906.27" y="90.73" width="6" height="26.43" rx="1.5" fill="#f6465d" /><line x1="920.00" y1="109.61" x2="920.00" y2="149.89" stroke="#f6465d" stroke-width="1.4" /><rect x="917.00" y="115.90" width="6" height="18.88" rx="1.5" fill="#f6465d" />
  <polyline points="630.18,229.19 673.11,305.98 726.78,109.61 769.72,253.11 866.33,58.00" fill="none" stroke="#2fc273" stroke-width="4" stroke-linecap="round" stroke-linejoin="round" />
  <circle cx="630.18" cy="229.19" r="5.5" fill="#2fc273" fill-opacity="0.15" stroke="#2fc273" stroke-width="2" /><text x="630.18" y="217.19" fill="#f3f4f6" font-size="15" font-weight="700" text-anchor="middle">X</text><circle cx="673.11" cy="305.98" r="5.5" fill="#2fc273" fill-opacity="0.15" stroke="#2fc273" stroke-width="2" /><text x="673.11" y="293.98" fill="#f3f4f6" font-size="15" font-weight="700" text-anchor="middle">A</text><circle cx="726.78" cy="109.61" r="5.5" fill="#2fc273" fill-opacity="0.15" stroke="#2fc273" stroke-width="2" /><text x="726.78" y="97.61" fill="#f3f4f6" font-size="15" font-weight="700" text-anchor="middle">B</text><circle cx="769.72" cy="253.11" r="5.5" fill="#2fc273" fill-opacity="0.15" stroke="#2fc273" stroke-width="2" /><text x="769.72" y="241.11" fill="#f3f4f6" font-size="15" font-weight="700" text-anchor="middle">C</text><circle cx="866.33" cy="58.00" r="5.5" fill="#2fc273" fill-opacity="0.15" stroke="#2fc273" stroke-width="2" /><text x="866.33" y="46.00" fill="#f3f4f6" font-size="15" font-weight="700" text-anchor="middle">D</text>
  <text x="56" y="492" fill="#8ba0b5" font-size="18">일반 완성 · TP1 0.87418 · TP2 0.87052 · SL 0.88089</text>
</svg>
