<svg xmlns="http://www.w3.org/2000/svg" width="960" height="540" viewBox="0 0 960 540">
  <rect width="960" height="540" rx="24" fill="#0b1220" />
  <rect x="28" y="28" width="904" height="484" rx="22" fill="#111827" stroke="#1f2937" />
  <text x="56" y="74" fill="#f3f4f6" font-size="34" font-weight="700">APTUSDT · AB=CD</text>
  <text x="904" y="74" fill="#8ba0b5" font-size="20" text-anchor="end">Bearish (매도) · Score 88.1</text>
  <line x1="72" y1="58" x2="920" y2="58" stroke="#223045" stroke-width="1" stroke-dasharray="4 8" /><line x1="72" y1="156" x2="920" y2="156" stroke="#223045" stroke-width="1" stroke-dasharray="4 8" /><line x1="72" y1="255" x2="920" y2="255" stroke="#223045" stroke-width="1" stroke-dasharray="4 8" /><line x1="72" y1="353" x2="920" y2="353" stroke="#223045" stroke-width="1" stroke-dasharray="4 8" /><line x1="72" y1="452" x2="920" y2="452" stroke="#223045" stroke-width="1" stroke-dasharray="4 8" />
  <rect x="290.89" y="31.04" width="84" height="128.15" fill="#fbbf24" fill-opacity="0.12" stroke="#fbbf24" stroke-width="1.5" stroke-dasharray="6 6" />
  <line x1="72.00" y1="157.54" x2="72.00" y2="248.78" stroke="#0ecb81" stroke-width="1.4" /><rect x="69.00" y="194.86" width="6" height="41.47" rx="1.5" fill="#0ecb81" /><line x1="82.73" y1="120.21" x2="82.73" y2="203.16" stroke="#0ecb81" stroke-width="1.4" /><rect x="79.73" y="132.65" width="6" height="66.36" rx="1.5" fill="#0ecb81" /><line x1="93.47" y1="91.18" x2="93.47" y2="157.54" stroke="#f6465d" stroke-width="1.4" /><rect x="90.47" y="132.65" width="6" height="4.15" rx="1.5" fill="#f6465d" /><line x1="104.20" y1="58.00" x2="104.20" y2="236.34" stroke="#f6465d" stroke-width="1.4" /><rect x="101.20" y="136.80" width="6" height="99.54" rx="1.5" fill="#f6465d" /><line x1="114.94" y1="178.27" x2="114.94" y2="248.78" stroke="#0ecb81" stroke-width="1.4" /><rect x="111.94" y="199.01" width="6" height="37.33" rx="1.5" fill="#0ecb81" /><line x1="125.67" y1="174.13" x2="125.67" y2="223.89" stroke="#0ecb81" stroke-width="1.4" /><rect x="122.67" y="190.72" width="6" height="8.29" rx="1.5" fill="#0ecb81" /><line x1="136.41" y1="153.39" x2="136.41" y2="223.89" stroke="#f6465d" stroke-width="1.4" /><rect x="133.41" y="194.86" width="6" height="16.59" rx="1.5" fill="#f6465d" /><line x1="147.14" y1="174.13" x2="147.14" y2="228.04" stroke="#f6465d" stroke-width="1.4" /><rect x="144.14" y="207.31" width="6" height="12.44" rx="1.5" fill="#f6465d" /><line x1="157.87" y1="157.54" x2="157.87" y2="228.04" stroke="#0ecb81" stroke-width="1.4" /><rect x="154.87" y="165.83" width="6" height="49.77" rx="1.5" fill="#0ecb81" /><line x1="168.61" y1="153.39" x2="168.61" y2="190.72" stroke="#f6465d" stroke-width="1.4" /><rect x="165.61" y="169.98" width="6" height="4.15" rx="1.5" fill="#f6465d" /><line x1="179.34" y1="132.65" x2="179.34" y2="190.72" stroke="#0ecb81" stroke-width="1.4" /><rect x="176.34" y="153.39" width="6" height="24.88" rx="1.5" fill="#0ecb81" /><line x1="190.08" y1="128.51" x2="190.08" y2="203.16" stroke="#0ecb81" stroke-width="1.4" /><rect x="187.08" y="140.95" width="6" height="12.44" rx="1.5" fill="#0ecb81" /><line x1="200.81" y1="136.80" x2="200.81" y2="190.72" stroke="#f6465d" stroke-width="1.4" /><rect x="197.81" y="136.80" width="6" height="24.88" rx="1.5" fill="#f6465d" /><line x1="211.54" y1="149.24" x2="211.54" y2="194.86" stroke="#f6465d" stroke-width="1.4" /><rect x="208.54" y="161.68" width="6" height="33.18" rx="1.5" fill="#f6465d" /><line x1="222.28" y1="165.83" x2="222.28" y2="223.89" stroke="#f6465d" stroke-width="1.4" /><rect x="219.28" y="194.86" width="6" height="24.88" rx="1.5" fill="#f6465d" /><line x1="233.01" y1="182.42" x2="233.01" y2="223.89" stroke="#0ecb81" stroke-width="1.4" /><rect x="230.01" y="199.01" width="6" height="24.88" rx="1.5" fill="#0ecb81" /><line x1="243.75" y1="199.01" x2="243.75" y2="257.07" stroke="#f6465d" stroke-width="1.4" /><rect x="240.75" y="199.01" width="6" height="16.59" rx="1.5" fill="#f6465d" /><line x1="254.48" y1="145.09" x2="254.48" y2="215.60" stroke="#0ecb81" stroke-width="1.4" /><rect x="251.48" y="165.83" width="6" height="49.77" rx="1.5" fill="#0ecb81" /><line x1="265.22" y1="153.39" x2="265.22" y2="215.60" stroke="#f6465d" stroke-width="1.4" /><rect x="262.22" y="165.83" width="6" height="33.18" rx="1.5" fill="#f6465d" /><line x1="275.95" y1="194.86" x2="275.95" y2="240.48" stroke="#f6465d" stroke-width="1.4" /><rect x="272.95" y="199.01" width="6" height="41.47" rx="1.5" fill="#f6465d" /><line x1="286.68" y1="169.98" x2="286.68" y2="240.48" stroke="#0ecb81" stroke-width="1.4" /><rect x="283.68" y="174.13" width="6" height="66.36" rx="1.5" fill="#0ecb81" /><line x1="297.42" y1="169.98" x2="297.42" y2="199.01" stroke="#f6465d" stroke-width="1.4" /><rect x="294.42" y="169.98" width="6" height="12.44" rx="1.5" fill="#f6465d" /><line x1="308.15" y1="140.95" x2="308.15" y2="207.31" stroke="#0ecb81" stroke-width="1.4" /><rect x="305.15" y="149.24" width="6" height="29.03" rx="1.5" fill="#0ecb81" /><line x1="318.89" y1="120.21" x2="318.89" y2="149.24" stroke="#0ecb81" stroke-width="1.4" /><rect x="315.89" y="132.65" width="6" height="12.44" rx="1.5" fill="#0ecb81" /><line x1="329.62" y1="128.51" x2="329.62" y2="157.54" stroke="#0ecb81" stroke-width="1.4" /><rect x="326.62" y="132.65" width="6" height="2.00" rx="1.5" fill="#0ecb81" /><line x1="340.35" y1="128.51" x2="340.35" y2="190.72" stroke="#f6465d" stroke-width="1.4" /><rect x="337.35" y="132.65" width="6" height="45.62" rx="1.5" fill="#f6465d" /><line x1="351.09" y1="132.65" x2="351.09" y2="178.27" stroke="#0ecb81" stroke-width="1.4" /><rect x="348.09" y="140.95" width="6" height="33.18" rx="1.5" fill="#0ecb81" /><line x1="361.82" y1="132.65" x2="361.82" y2="157.54" stroke="#0ecb81" stroke-width="1.4" /><rect x="358.82" y="140.95" width="6" height="2.00" rx="1.5" fill="#0ecb81" /><line x1="372.56" y1="128.51" x2="372.56" y2="186.57" stroke="#f6465d" stroke-width="1.4" /><rect x="369.56" y="140.95" width="6" height="33.18" rx="1.5" fill="#f6465d" /><line x1="383.29" y1="157.54" x2="383.29" y2="207.31" stroke="#f6465d" stroke-width="1.4" /><rect x="380.29" y="169.98" width="6" height="24.88" rx="1.5" fill="#f6465d" /><line x1="394.03" y1="169.98" x2="394.03" y2="211.45" stroke="#0ecb81" stroke-width="1.4" /><rect x="391.03" y="190.72" width="6" height="4.15" rx="1.5" fill="#0ecb81" /><line x1="404.76" y1="178.27" x2="404.76" y2="211.45" stroke="#f6465d" stroke-width="1.4" /><rect x="401.76" y="190.72" width="6" height="4.15" rx="1.5" fill="#f6465d" /><line x1="415.49" y1="178.27" x2="415.49" y2="203.16" stroke="#0ecb81" stroke-width="1.4" /><rect x="412.49" y="186.57" width="6" height="12.44" rx="1.5" fill="#0ecb81" /><line x1="426.23" y1="182.42" x2="426.23" y2="240.48" stroke="#f6465d" stroke-width="1.4" /><rect x="423.23" y="186.57" width="6" height="37.33" rx="1.5" fill="#f6465d" /><line x1="436.96" y1="211.45" x2="436.96" y2="244.63" stroke="#f6465d" stroke-width="1.4" /><rect x="433.96" y="223.89" width="6" height="12.44" rx="1.5" fill="#f6465d" /><line x1="447.70" y1="232.19" x2="447.70" y2="298.55" stroke="#f6465d" stroke-width="1.4" /><rect x="444.70" y="236.34" width="6" height="53.92" rx="1.5" fill="#f6465d" /><line x1="458.43" y1="290.25" x2="458.43" y2="356.61" stroke="#f6465d" stroke-width="1.4" /><rect x="455.43" y="290.25" width="6" height="29.03" rx="1.5" fill="#f6465d" /><line x1="469.16" y1="298.55" x2="469.16" y2="335.87" stroke="#0ecb81" stroke-width="1.4" /><rect x="466.16" y="310.99" width="6" height="12.44" rx="1.5" fill="#0ecb81" /><line x1="479.90" y1="302.69" x2="479.90" y2="352.46" stroke="#f6465d" stroke-width="1.4" /><rect x="476.90" y="315.14" width="6" height="37.33" rx="1.5" fill="#f6465d" /><line x1="490.63" y1="327.58" x2="490.63" y2="377.35" stroke="#f6465d" stroke-width="1.4" /><rect x="487.63" y="348.32" width="6" height="16.59" rx="1.5" fill="#f6465d" /><line x1="501.37" y1="335.87" x2="501.37" y2="373.20" stroke="#0ecb81" stroke-width="1.4" /><rect x="498.37" y="348.32" width="6" height="16.59" rx="1.5" fill="#0ecb81" /><line x1="512.10" y1="323.43" x2="512.10" y2="373.20" stroke="#f6465d" stroke-width="1.4" /><rect x="509.10" y="348.32" width="6" height="8.29" rx="1.5" fill="#f6465d" /><line x1="522.84" y1="302.69" x2="522.84" y2="360.76" stroke="#0ecb81" stroke-width="1.4" /><rect x="519.84" y="327.58" width="6" height="33.18" rx="1.5" fill="#0ecb81" /><line x1="533.57" y1="315.14" x2="533.57" y2="352.46" stroke="#f6465d" stroke-width="1.4" /><rect x="530.57" y="323.43" width="6" height="24.88" rx="1.5" fill="#f6465d" /><line x1="544.30" y1="315.14" x2="544.30" y2="352.46" stroke="#0ecb81" stroke-width="1.4" /><rect x="541.30" y="331.73" width="6" height="16.59" rx="1.5" fill="#0ecb81" /><line x1="555.04" y1="265.37" x2="555.04" y2="327.58" stroke="#0ecb81" stroke-width="1.4" /><rect x="552.04" y="281.96" width="6" height="45.62" rx="1.5" fill="#0ecb81" /><line x1="565.77" y1="265.37" x2="565.77" y2="315.14" stroke="#f6465d" stroke-width="1.4" /><rect x="562.77" y="281.96" width="6" height="24.88" rx="1.5" fill="#f6465d" /><line x1="576.51" y1="269.52" x2="576.51" y2="306.84" stroke="#0ecb81" stroke-width="1.4" /><rect x="573.51" y="273.66" width="6" height="33.18" rx="1.5" fill="#0ecb81" /><line x1="587.24" y1="261.22" x2="587.24" y2="327.58" stroke="#f6465d" stroke-width="1.4" /><rect x="584.24" y="273.66" width="6" height="45.62" rx="1.5" fill="#f6465d" /><line x1="597.97" y1="310.99" x2="597.97" y2="335.87" stroke="#0ecb81" stroke-width="1.4" /><rect x="594.97" y="323.43" width="6" height="2.00" rx="1.5" fill="#0ecb81" /><line x1="608.71" y1="302.69" x2="608.71" y2="352.46" stroke="#0ecb81" stroke-width="1.4" /><rect x="605.71" y="306.84" width="6" height="16.59" rx="1.5" fill="#0ecb81" /><line x1="619.44" y1="281.96" x2="619.44" y2="335.87" stroke="#0ecb81" stroke-width="1.4" /><rect x="616.44" y="310.99" width="6" height="2.00" rx="1.5" fill="#0ecb81" /><line x1="630.18" y1="286.11" x2="630.18" y2="327.58" stroke="#f6465d" stroke-width="1.4" /><rect x="627.18" y="315.14" width="6" height="4.15" rx="1.5" fill="#f6465d" /><line x1="640.91" y1="286.11" x2="640.91" y2="356.61" stroke="#0ecb81" stroke-width="1.4" /><rect x="637.91" y="298.55" width="6" height="16.59" rx="1.5" fill="#0ecb81" /><line x1="651.65" y1="277.81" x2="651.65" y2="319.28" stroke="#f6465d" stroke-width="1.4" /><rect x="648.65" y="298.55" width="6" height="8.29" rx="1.5" fill="#f6465d" /><line x1="662.38" y1="302.69" x2="662.38" y2="356.61" stroke="#f6465d" stroke-width="1.4" /><rect x="659.38" y="306.84" width="6" height="45.62" rx="1.5" fill="#f6465d" /><line x1="673.11" y1="340.02" x2="673.11" y2="369.05" stroke="#0ecb81" stroke-width="1.4" /><rect x="670.11" y="348.32" width="6" height="4.15" rx="1.5" fill="#0ecb81" /><line x1="683.85" y1="315.14" x2="683.85" y2="398.08" stroke="#0ecb81" stroke-width="1.4" /><rect x="680.85" y="319.28" width="6" height="29.03" rx="1.5" fill="#0ecb81" /><line x1="694.58" y1="315.14" x2="694.58" y2="373.20" stroke="#f6465d" stroke-width="1.4" /><rect x="691.58" y="319.28" width="6" height="20.74" rx="1.5" fill="#f6465d" /><line x1="705.32" y1="323.43" x2="705.32" y2="356.61" stroke="#0ecb81" stroke-width="1.4" /><rect x="702.32" y="327.58" width="6" height="12.44" rx="1.5" fill="#0ecb81" /><line x1="716.05" y1="323.43" x2="716.05" y2="352.46" stroke="#f6465d" stroke-width="1.4" /><rect x="713.05" y="327.58" width="6" height="20.74" rx="1.5" fill="#f6465d" /><line x1="726.78" y1="348.32" x2="726.78" y2="393.94" stroke="#f6465d" stroke-width="1.4" /><rect x="723.78" y="348.32" width="6" height="20.74" rx="1.5" fill="#f6465d" /><line x1="737.52" y1="348.32" x2="737.52" y2="389.79" stroke="#0ecb81" stroke-width="1.4" /><rect x="734.52" y="356.61" width="6" height="16.59" rx="1.5" fill="#0ecb81" /><line x1="748.25" y1="340.02" x2="748.25" y2="356.61" stroke="#0ecb81" stroke-width="1.4" /><rect x="745.25" y="356.61" width="6" height="2.00" rx="1.5" fill="#0ecb81" /><line x1="758.99" y1="340.02" x2="758.99" y2="393.94" stroke="#0ecb81" stroke-width="1.4" /><rect x="755.99" y="348.32" width="6" height="8.29" rx="1.5" fill="#0ecb81" /><line x1="769.72" y1="252.93" x2="769.72" y2="348.32" stroke="#0ecb81" stroke-width="1.4" /><rect x="766.72" y="306.84" width="6" height="41.47" rx="1.5" fill="#0ecb81" /><line x1="780.46" y1="306.84" x2="780.46" y2="344.17" stroke="#f6465d" stroke-width="1.4" /><rect x="777.46" y="306.84" width="6" height="37.33" rx="1.5" fill="#f6465d" /><line x1="791.19" y1="335.87" x2="791.19" y2="377.35" stroke="#f6465d" stroke-width="1.4" /><rect x="788.19" y="340.02" width="6" height="16.59" rx="1.5" fill="#f6465d" /><line x1="801.92" y1="335.87" x2="801.92" y2="452.00" stroke="#f6465d" stroke-width="1.4" /><rect x="798.92" y="352.46" width="6" height="4.15" rx="1.5" fill="#f6465d" /><line x1="812.66" y1="310.99" x2="812.66" y2="360.76" stroke="#0ecb81" stroke-width="1.4" /><rect x="809.66" y="352.46" width="6" height="8.29" rx="1.5" fill="#0ecb81" /><line x1="823.39" y1="344.17" x2="823.39" y2="393.94" stroke="#f6465d" stroke-width="1.4" /><rect x="820.39" y="352.46" width="6" height="29.03" rx="1.5" fill="#f6465d" /><line x1="834.13" y1="302.69" x2="834.13" y2="406.38" stroke="#0ecb81" stroke-width="1.4" /><rect x="831.13" y="306.84" width="6" height="70.51" rx="1.5" fill="#0ecb81" /><line x1="844.86" y1="257.07" x2="844.86" y2="315.14" stroke="#0ecb81" stroke-width="1.4" /><rect x="841.86" y="265.37" width="6" height="37.33" rx="1.5" fill="#0ecb81" /><line x1="855.59" y1="257.07" x2="855.59" y2="306.84" stroke="#f6465d" stroke-width="1.4" /><rect x="852.59" y="269.52" width="6" height="4.15" rx="1.5" fill="#f6465d" /><line x1="866.33" y1="261.22" x2="866.33" y2="306.84" stroke="#0ecb81" stroke-width="1.4" /><rect x="863.33" y="273.66" width="6" height="2.00" rx="1.5" fill="#0ecb81" /><line x1="877.06" y1="244.63" x2="877.06" y2="344.17" stroke="#f6465d" stroke-width="1.4" /><rect x="874.06" y="273.66" width="6" height="70.51" rx="1.5" fill="#f6465d" /><line x1="887.80" y1="281.96" x2="887.80" y2="344.17" stroke="#0ecb81" stroke-width="1.4" /><rect x="884.80" y="290.25" width="6" height="53.92" rx="1.5" fill="#0ecb81" /><line x1="898.53" y1="286.11" x2="898.53" y2="340.02" stroke="#f6465d" stroke-width="1.4" /><rect x="895.53" y="290.25" width="6" height="12.44" rx="1.5" fill="#f6465d" /><line x1="909.27" y1="302.69" x2="909.27" y2="398.08" stroke="#f6465d" stroke-width="1.4" /><rect x="906.27" y="306.84" width="6" height="87.09" rx="1.5" fill="#f6465d" /><line x1="920.00" y1="352.46" x2="920.00" y2="414.67" stroke="#0ecb81" stroke-width="1.4" /><rect x="917.00" y="377.35" width="6" height="16.59" rx="1.5" fill="#0ecb81" />
  <polyline points="190.08,128.51 243.75,257.07 254.48,145.09 286.68,240.48 318.89,120.21" fill="none" stroke="#2fc273" stroke-width="4" stroke-linecap="round" stroke-linejoin="round" />
  <circle cx="190.08" cy="128.51" r="5.5" fill="#2fc273" fill-opacity="0.15" stroke="#2fc273" stroke-width="2" /><text x="190.08" y="116.51" fill="#f3f4f6" font-size="15" font-weight="700" text-anchor="middle">X</text><circle cx="243.75" cy="257.07" r="5.5" fill="#2fc273" fill-opacity="0.15" stroke="#2fc273" stroke-width="2" /><text x="243.75" y="245.07" fill="#f3f4f6" font-size="15" font-weight="700" text-anchor="middle">A</text><circle cx="254.48" cy="145.09" r="5.5" fill="#2fc273" fill-opacity="0.15" stroke="#2fc273" stroke-width="2" /><text x="254.48" y="133.09" fill="#f3f4f6" font-size="15" font-weight="700" text-anchor="middle">B</text><circle cx="286.68" cy="240.48" r="5.5" fill="#2fc273" fill-opacity="0.15" stroke="#2fc273" stroke-width="2" /><text x="286.68" y="228.48" fill="#f3f4f6" font-size="15" font-weight="700" text-anchor="middle">C</text><circle cx="318.89" cy="120.21" r="5.5" fill="#2fc273" fill-opacity="0.15" stroke="#2fc273" stroke-width="2" /><text x="318.89" y="108.21" fill="#f3f4f6" font-size="15" font-weight="700" text-anchor="middle">D</text>
  <text x="56" y="492" fill="#8ba0b5" font-size="18">Complete · TP1 0.61789 · TP2 0.61721 · SL 0.6194</text>
</svg>
