<svg xmlns="http://www.w3.org/2000/svg" width="960" height="540" viewBox="0 0 960 540">
  <rect width="960" height="540" rx="24" fill="#0b1220" />
  <rect x="28" y="28" width="904" height="484" rx="22" fill="#111827" stroke="#1f2937" />
  <text x="56" y="74" fill="#f3f4f6" font-size="34" font-weight="700">ARIAUSDT · AB=CD</text>
  <text x="904" y="74" fill="#8ba0b5" font-size="20" text-anchor="end">Bullish (매수) · Score 92.5</text>
  <line x1="72" y1="58" x2="920" y2="58" stroke="#223045" stroke-width="1" stroke-dasharray="4 8" /><line x1="72" y1="156" x2="920" y2="156" stroke="#223045" stroke-width="1" stroke-dasharray="4 8" /><line x1="72" y1="255" x2="920" y2="255" stroke="#223045" stroke-width="1" stroke-dasharray="4 8" /><line x1="72" y1="353" x2="920" y2="353" stroke="#223045" stroke-width="1" stroke-dasharray="4 8" /><line x1="72" y1="452" x2="920" y2="452" stroke="#223045" stroke-width="1" stroke-dasharray="4 8" />
  <rect x="645.11" y="460.24" width="84" height="20.70" fill="#fbbf24" fill-opacity="0.12" stroke="#fbbf24" stroke-width="1.5" stroke-dasharray="6 6" />
  <line x1="72.00" y1="156.22" x2="72.00" y2="244.62" stroke="#0ecb81" stroke-width="1.4" /><rect x="69.00" y="175.54" width="6" height="62.37" rx="1.5" fill="#0ecb81" /><line x1="82.73" y1="154.01" x2="82.73" y2="211.25" stroke="#f6465d" stroke-width="1.4" /><rect x="79.73" y="175.40" width="6" height="7.89" rx="1.5" fill="#f6465d" /><line x1="93.47" y1="145.56" x2="93.47" y2="190.97" stroke="#0ecb81" stroke-width="1.4" /><rect x="90.47" y="157.88" width="6" height="25.40" rx="1.5" fill="#0ecb81" /><line x1="104.20" y1="110.12" x2="104.20" y2="167.37" stroke="#f6465d" stroke-width="1.4" /><rect x="101.20" y="158.09" width="6" height="3.95" rx="1.5" fill="#f6465d" /><line x1="114.94" y1="130.47" x2="114.94" y2="198.59" stroke="#f6465d" stroke-width="1.4" /><rect x="111.94" y="162.04" width="6" height="9.69" rx="1.5" fill="#f6465d" /><line x1="125.67" y1="121.89" x2="125.67" y2="185.78" stroke="#0ecb81" stroke-width="1.4" /><rect x="122.67" y="143.49" width="6" height="27.83" rx="1.5" fill="#0ecb81" /><line x1="136.41" y1="103.27" x2="136.41" y2="153.59" stroke="#0ecb81" stroke-width="1.4" /><rect x="133.41" y="123.69" width="6" height="20.00" rx="1.5" fill="#0ecb81" /><line x1="147.14" y1="119.47" x2="147.14" y2="167.71" stroke="#f6465d" stroke-width="1.4" /><rect x="144.14" y="125.42" width="6" height="15.30" rx="1.5" fill="#f6465d" /><line x1="157.87" y1="112.27" x2="157.87" y2="209.25" stroke="#f6465d" stroke-width="1.4" /><rect x="154.87" y="140.79" width="6" height="46.10" rx="1.5" fill="#f6465d" /><line x1="168.61" y1="175.74" x2="168.61" y2="254.79" stroke="#f6465d" stroke-width="1.4" /><rect x="165.61" y="186.89" width="6" height="21.60" rx="1.5" fill="#f6465d" /><line x1="179.34" y1="192.08" x2="179.34" y2="296.95" stroke="#f6465d" stroke-width="1.4" /><rect x="176.34" y="208.48" width="6" height="5.33" rx="1.5" fill="#f6465d" /><line x1="190.08" y1="137.46" x2="190.08" y2="218.24" stroke="#0ecb81" stroke-width="1.4" /><rect x="187.08" y="155.67" width="6" height="57.94" rx="1.5" fill="#0ecb81" /><line x1="200.81" y1="89.29" x2="200.81" y2="177.75" stroke="#0ecb81" stroke-width="1.4" /><rect x="197.81" y="121.61" width="6" height="33.99" rx="1.5" fill="#0ecb81" /><line x1="211.54" y1="58.00" x2="211.54" y2="147.02" stroke="#0ecb81" stroke-width="1.4" /><rect x="208.54" y="106.73" width="6" height="13.84" rx="1.5" fill="#0ecb81" /><line x1="222.28" y1="80.70" x2="222.28" y2="132.76" stroke="#f6465d" stroke-width="1.4" /><rect x="219.28" y="105.21" width="6" height="14.54" rx="1.5" fill="#f6465d" /><line x1="233.01" y1="109.78" x2="233.01" y2="224.54" stroke="#f6465d" stroke-width="1.4" /><rect x="230.01" y="119.61" width="6" height="38.97" rx="1.5" fill="#f6465d" /><line x1="243.75" y1="132.90" x2="243.75" y2="202.25" stroke="#f6465d" stroke-width="1.4" /><rect x="240.75" y="159.06" width="6" height="16.34" rx="1.5" fill="#f6465d" /><line x1="254.48" y1="152.97" x2="254.48" y2="217.34" stroke="#f6465d" stroke-width="1.4" /><rect x="251.48" y="176.09" width="6" height="17.30" rx="1.5" fill="#f6465d" /><line x1="265.22" y1="158.92" x2="265.22" y2="236.73" stroke="#f6465d" stroke-width="1.4" /><rect x="262.22" y="192.84" width="6" height="17.51" rx="1.5" fill="#f6465d" /><line x1="275.95" y1="132.90" x2="275.95" y2="225.58" stroke="#0ecb81" stroke-width="1.4" /><rect x="272.95" y="137.95" width="6" height="72.89" rx="1.5" fill="#0ecb81" /><line x1="286.68" y1="122.03" x2="286.68" y2="160.45" stroke="#f6465d" stroke-width="1.4" /><rect x="283.68" y="138.02" width="6" height="18.48" rx="1.5" fill="#f6465d" /><line x1="297.42" y1="120.44" x2="297.42" y2="155.12" stroke="#0ecb81" stroke-width="1.4" /><rect x="294.42" y="124.17" width="6" height="30.66" rx="1.5" fill="#0ecb81" /><line x1="308.15" y1="117.81" x2="308.15" y2="215.41" stroke="#f6465d" stroke-width="1.4" /><rect x="305.15" y="122.65" width="6" height="65.90" rx="1.5" fill="#f6465d" /><line x1="318.89" y1="133.59" x2="318.89" y2="191.73" stroke="#0ecb81" stroke-width="1.4" /><rect x="315.89" y="161.35" width="6" height="27.41" rx="1.5" fill="#0ecb81" /><line x1="329.62" y1="156.43" x2="329.62" y2="205.30" stroke="#f6465d" stroke-width="1.4" /><rect x="326.62" y="161.55" width="6" height="15.02" rx="1.5" fill="#f6465d" /><line x1="340.35" y1="145.15" x2="340.35" y2="206.34" stroke="#0ecb81" stroke-width="1.4" /><rect x="337.35" y="150.34" width="6" height="27.34" rx="1.5" fill="#0ecb81" /><line x1="351.09" y1="144.66" x2="351.09" y2="206.27" stroke="#f6465d" stroke-width="1.4" /><rect x="348.09" y="150.41" width="6" height="27.83" rx="1.5" fill="#f6465d" /><line x1="361.82" y1="151.59" x2="361.82" y2="213.19" stroke="#0ecb81" stroke-width="1.4" /><rect x="358.82" y="162.87" width="6" height="15.44" rx="1.5" fill="#0ecb81" /><line x1="372.56" y1="152.69" x2="372.56" y2="199.28" stroke="#f6465d" stroke-width="1.4" /><rect x="369.56" y="163.01" width="6" height="28.17" rx="1.5" fill="#f6465d" /><line x1="383.29" y1="156.43" x2="383.29" y2="200.04" stroke="#f6465d" stroke-width="1.4" /><rect x="380.29" y="191.04" width="6" height="6.92" rx="1.5" fill="#f6465d" /><line x1="394.03" y1="182.46" x2="394.03" y2="262.13" stroke="#f6465d" stroke-width="1.4" /><rect x="391.03" y="197.96" width="6" height="17.58" rx="1.5" fill="#f6465d" /><line x1="404.76" y1="144.66" x2="404.76" y2="219.14" stroke="#0ecb81" stroke-width="1.4" /><rect x="401.76" y="162.80" width="6" height="51.15" rx="1.5" fill="#0ecb81" /><line x1="415.49" y1="126.67" x2="415.49" y2="187.30" stroke="#0ecb81" stroke-width="1.4" /><rect x="412.49" y="160.79" width="6" height="2.00" rx="1.5" fill="#0ecb81" /><line x1="426.23" y1="110.75" x2="426.23" y2="166.05" stroke="#0ecb81" stroke-width="1.4" /><rect x="423.23" y="146.05" width="6" height="13.77" rx="1.5" fill="#0ecb81" /><line x1="436.96" y1="116.42" x2="436.96" y2="161.97" stroke="#0ecb81" stroke-width="1.4" /><rect x="433.96" y="137.53" width="6" height="7.54" rx="1.5" fill="#0ecb81" /><line x1="447.70" y1="128.33" x2="447.70" y2="184.95" stroke="#f6465d" stroke-width="1.4" /><rect x="444.70" y="136.98" width="6" height="28.80" rx="1.5" fill="#f6465d" /><line x1="458.43" y1="131.44" x2="458.43" y2="222.54" stroke="#f6465d" stroke-width="1.4" /><rect x="455.43" y="165.78" width="6" height="31.70" rx="1.5" fill="#f6465d" /><line x1="469.16" y1="168.48" x2="469.16" y2="220.11" stroke="#f6465d" stroke-width="1.4" /><rect x="466.16" y="197.34" width="6" height="10.24" rx="1.5" fill="#f6465d" /><line x1="479.90" y1="187.86" x2="479.90" y2="227.45" stroke="#f6465d" stroke-width="1.4" /><rect x="476.90" y="206.55" width="6" height="7.48" rx="1.5" fill="#f6465d" /><line x1="490.63" y1="185.16" x2="490.63" y2="222.54" stroke="#0ecb81" stroke-width="1.4" /><rect x="487.63" y="213.61" width="6" height="2.00" rx="1.5" fill="#0ecb81" /><line x1="501.37" y1="208.83" x2="501.37" y2="348.38" stroke="#f6465d" stroke-width="1.4" /><rect x="498.37" y="212.91" width="6" height="135.46" rx="1.5" fill="#f6465d" /><line x1="512.10" y1="200.18" x2="512.10" y2="346.44" stroke="#0ecb81" stroke-width="1.4" /><rect x="509.10" y="232.16" width="6" height="114.28" rx="1.5" fill="#0ecb81" /><line x1="522.84" y1="110.75" x2="522.84" y2="232.57" stroke="#0ecb81" stroke-width="1.4" /><rect x="519.84" y="152.55" width="6" height="80.02" rx="1.5" fill="#0ecb81" /><line x1="533.57" y1="94.34" x2="533.57" y2="212.08" stroke="#f6465d" stroke-width="1.4" /><rect x="530.57" y="151.24" width="6" height="50.12" rx="1.5" fill="#f6465d" /><line x1="544.30" y1="188.34" x2="544.30" y2="272.72" stroke="#f6465d" stroke-width="1.4" /><rect x="541.30" y="200.45" width="6" height="71.43" rx="1.5" fill="#f6465d" /><line x1="555.04" y1="219.49" x2="555.04" y2="348.65" stroke="#f6465d" stroke-width="1.4" /><rect x="552.04" y="270.78" width="6" height="54.13" rx="1.5" fill="#f6465d" /><line x1="565.77" y1="256.66" x2="565.77" y2="332.66" stroke="#0ecb81" stroke-width="1.4" /><rect x="562.77" y="282.20" width="6" height="42.71" rx="1.5" fill="#0ecb81" /><line x1="576.51" y1="243.23" x2="576.51" y2="280.06" stroke="#0ecb81" stroke-width="1.4" /><rect x="573.51" y="254.24" width="6" height="25.82" rx="1.5" fill="#0ecb81" /><line x1="587.24" y1="235.62" x2="587.24" y2="276.53" stroke="#0ecb81" stroke-width="1.4" /><rect x="584.24" y="237.42" width="6" height="15.92" rx="1.5" fill="#0ecb81" /><line x1="597.97" y1="223.71" x2="597.97" y2="350.66" stroke="#f6465d" stroke-width="1.4" /><rect x="594.97" y="236.80" width="6" height="83.69" rx="1.5" fill="#f6465d" /><line x1="608.71" y1="219.42" x2="608.71" y2="324.08" stroke="#0ecb81" stroke-width="1.4" /><rect x="605.71" y="237.00" width="6" height="81.54" rx="1.5" fill="#0ecb81" /><line x1="619.44" y1="233.54" x2="619.44" y2="297.22" stroke="#f6465d" stroke-width="1.4" /><rect x="616.44" y="237.00" width="6" height="26.51" rx="1.5" fill="#f6465d" /><line x1="630.18" y1="255.97" x2="630.18" y2="330.24" stroke="#f6465d" stroke-width="1.4" /><rect x="627.18" y="265.73" width="6" height="42.50" rx="1.5" fill="#f6465d" /><line x1="640.91" y1="269.47" x2="640.91" y2="403.55" stroke="#0ecb81" stroke-width="1.4" /><rect x="637.91" y="302.69" width="6" height="5.47" rx="1.5" fill="#0ecb81" /><line x1="651.65" y1="271.89" x2="651.65" y2="344.57" stroke="#f6465d" stroke-width="1.4" /><rect x="648.65" y="303.73" width="6" height="2.00" rx="1.5" fill="#f6465d" /><line x1="662.38" y1="303.52" x2="662.38" y2="379.87" stroke="#f6465d" stroke-width="1.4" /><rect x="659.38" y="304.08" width="6" height="70.95" rx="1.5" fill="#f6465d" /><line x1="673.11" y1="356.48" x2="673.11" y2="432.62" stroke="#f6465d" stroke-width="1.4" /><rect x="670.11" y="374.54" width="6" height="31.36" rx="1.5" fill="#f6465d" /><line x1="683.85" y1="312.80" x2="683.85" y2="406.38" stroke="#0ecb81" stroke-width="1.4" /><rect x="680.85" y="374.34" width="6" height="31.50" rx="1.5" fill="#0ecb81" /><line x1="694.58" y1="333.84" x2="694.58" y2="397.25" stroke="#0ecb81" stroke-width="1.4" /><rect x="691.58" y="361.81" width="6" height="10.80" rx="1.5" fill="#0ecb81" /><line x1="705.32" y1="311.90" x2="705.32" y2="386.93" stroke="#0ecb81" stroke-width="1.4" /><rect x="702.32" y="328.23" width="6" height="33.57" rx="1.5" fill="#0ecb81" /><line x1="716.05" y1="303.73" x2="716.05" y2="356.89" stroke="#f6465d" stroke-width="1.4" /><rect x="713.05" y="327.27" width="6" height="13.22" rx="1.5" fill="#f6465d" /><line x1="726.78" y1="313.35" x2="726.78" y2="378.56" stroke="#f6465d" stroke-width="1.4" /><rect x="723.78" y="340.49" width="6" height="32.39" rx="1.5" fill="#f6465d" /><line x1="737.52" y1="344.43" x2="737.52" y2="412.48" stroke="#f6465d" stroke-width="1.4" /><rect x="734.52" y="372.88" width="6" height="31.77" rx="1.5" fill="#f6465d" /><line x1="748.25" y1="322.97" x2="748.25" y2="408.39" stroke="#0ecb81" stroke-width="1.4" /><rect x="745.25" y="353.78" width="6" height="50.88" rx="1.5" fill="#0ecb81" /><line x1="758.99" y1="331.56" x2="758.99" y2="404.52" stroke="#f6465d" stroke-width="1.4" /><rect x="755.99" y="353.78" width="6" height="38.28" rx="1.5" fill="#f6465d" /><line x1="769.72" y1="364.44" x2="769.72" y2="435.32" stroke="#0ecb81" stroke-width="1.4" /><rect x="766.72" y="381.74" width="6" height="10.31" rx="1.5" fill="#0ecb81" /><line x1="780.46" y1="347.96" x2="780.46" y2="387.97" stroke="#0ecb81" stroke-width="1.4" /><rect x="777.46" y="370.67" width="6" height="9.83" rx="1.5" fill="#0ecb81" /><line x1="791.19" y1="359.04" x2="791.19" y2="427.91" stroke="#f6465d" stroke-width="1.4" /><rect x="788.19" y="370.32" width="6" height="35.86" rx="1.5" fill="#f6465d" /><line x1="801.92" y1="393.65" x2="801.92" y2="452.00" stroke="#f6465d" stroke-width="1.4" /><rect x="798.92" y="405.76" width="6" height="11.56" rx="1.5" fill="#f6465d" /><line x1="812.66" y1="362.15" x2="812.66" y2="429.64" stroke="#0ecb81" stroke-width="1.4" /><rect x="809.66" y="398.70" width="6" height="18.14" rx="1.5" fill="#0ecb81" /><line x1="823.39" y1="388.32" x2="823.39" y2="435.53" stroke="#f6465d" stroke-width="1.4" /><rect x="820.39" y="398.56" width="6" height="14.88" rx="1.5" fill="#f6465d" /><line x1="834.13" y1="364.23" x2="834.13" y2="421.20" stroke="#0ecb81" stroke-width="1.4" /><rect x="831.13" y="365.89" width="6" height="47.35" rx="1.5" fill="#0ecb81" /><line x1="844.86" y1="283.59" x2="844.86" y2="386.93" stroke="#0ecb81" stroke-width="1.4" /><rect x="841.86" y="297.02" width="6" height="68.87" rx="1.5" fill="#0ecb81" /><line x1="855.59" y1="191.39" x2="855.59" y2="305.81" stroke="#0ecb81" stroke-width="1.4" /><rect x="852.59" y="227.17" width="6" height="68.80" rx="1.5" fill="#0ecb81" /><line x1="866.33" y1="226.76" x2="866.33" y2="294.66" stroke="#f6465d" stroke-width="1.4" /><rect x="863.33" y="226.76" width="6" height="50.18" rx="1.5" fill="#f6465d" /><line x1="877.06" y1="273.41" x2="877.06" y2="326.50" stroke="#f6465d" stroke-width="1.4" /><rect x="874.06" y="278.40" width="6" height="36.27" rx="1.5" fill="#f6465d" /><line x1="887.80" y1="283.10" x2="887.80" y2="336.75" stroke="#0ecb81" stroke-width="1.4" /><rect x="884.80" y="298.47" width="6" height="15.30" rx="1.5" fill="#0ecb81" /><line x1="898.53" y1="297.29" x2="898.53" y2="406.66" stroke="#f6465d" stroke-width="1.4" /><rect x="895.53" y="298.47" width="6" height="98.85" rx="1.5" fill="#f6465d" /><line x1="909.27" y1="319.31" x2="909.27" y2="406.45" stroke="#0ecb81" stroke-width="1.4" /><rect x="906.27" y="349.76" width="6" height="45.96" rx="1.5" fill="#0ecb81" /><line x1="920.00" y1="320.34" x2="920.00" y2="370.18" stroke="#f6465d" stroke-width="1.4" /><rect x="917.00" y="348.86" width="6" height="3.05" rx="1.5" fill="#f6465d" />
  <polyline points="501.37,348.38 533.57,94.34 597.97,350.66 608.71,219.42 673.11,432.62" fill="none" stroke="#2fc273" stroke-width="4" stroke-linecap="round" stroke-linejoin="round" />
  <circle cx="501.37" cy="348.38" r="5.5" fill="#2fc273" fill-opacity="0.15" stroke="#2fc273" stroke-width="2" /><text x="501.37" y="336.38" fill="#f3f4f6" font-size="15" font-weight="700" text-anchor="middle">X</text><circle cx="533.57" cy="94.34" r="5.5" fill="#2fc273" fill-opacity="0.15" stroke="#2fc273" stroke-width="2" /><text x="533.57" y="82.34" fill="#f3f4f6" font-size="15" font-weight="700" text-anchor="middle">A</text><circle cx="597.97" cy="350.66" r="5.5" fill="#2fc273" fill-opacity="0.15" stroke="#2fc273" stroke-width="2" /><text x="597.97" y="338.66" fill="#f3f4f6" font-size="15" font-weight="700" text-anchor="middle">B</text><circle cx="608.71" cy="219.42" r="5.5" fill="#2fc273" fill-opacity="0.15" stroke="#2fc273" stroke-width="2" /><text x="608.71" y="207.42" fill="#f3f4f6" font-size="15" font-weight="700" text-anchor="middle">C</text><circle cx="673.11" cy="432.62" r="5.5" fill="#2fc273" fill-opacity="0.15" stroke="#2fc273" stroke-width="2" /><text x="673.11" y="420.62" fill="#f3f4f6" font-size="15" font-weight="700" text-anchor="middle">D</text>
  <text x="56" y="492" fill="#8ba0b5" font-size="18">일반 완성 · TP1 0.61517 · TP2 0.62243 · SL 0.59863</text>
</svg>
