<svg xmlns="http://www.w3.org/2000/svg" width="960" height="540" viewBox="0 0 960 540">
  <rect width="960" height="540" rx="24" fill="#0b1220" />
  <rect x="28" y="28" width="904" height="484" rx="22" fill="#111827" stroke="#1f2937" />
  <text x="56" y="74" fill="#f3f4f6" font-size="34" font-weight="700">AVAXUSDT · AB=CD</text>
  <text x="904" y="74" fill="#8ba0b5" font-size="20" text-anchor="end">Bullish (매수) · Score 82.3</text>
  <line x1="72" y1="58" x2="920" y2="58" stroke="#223045" stroke-width="1" stroke-dasharray="4 8" /><line x1="72" y1="156" x2="920" y2="156" stroke="#223045" stroke-width="1" stroke-dasharray="4 8" /><line x1="72" y1="255" x2="920" y2="255" stroke="#223045" stroke-width="1" stroke-dasharray="4 8" /><line x1="72" y1="353" x2="920" y2="353" stroke="#223045" stroke-width="1" stroke-dasharray="4 8" /><line x1="72" y1="452" x2="920" y2="452" stroke="#223045" stroke-width="1" stroke-dasharray="4 8" />
  <rect x="183.54" y="446.56" width="84" height="20.28" fill="#fbbf24" fill-opacity="0.12" stroke="#fbbf24" stroke-width="1.5" stroke-dasharray="6 6" />
  <line x1="72.00" y1="427.12" x2="72.00" y2="434.03" stroke="#f6465d" stroke-width="1.4" /><rect x="69.00" y="428.50" width="6" height="4.15" rx="1.5" fill="#f6465d" /><line x1="82.73" y1="431.26" x2="82.73" y2="436.79" stroke="#f6465d" stroke-width="1.4" /><rect x="79.73" y="432.65" width="6" height="3.23" rx="1.5" fill="#f6465d" /><line x1="93.47" y1="435.87" x2="93.47" y2="441.40" stroke="#f6465d" stroke-width="1.4" /><rect x="90.47" y="435.87" width="6" height="2.30" rx="1.5" fill="#f6465d" /><line x1="104.20" y1="436.33" x2="104.20" y2="439.10" stroke="#f6465d" stroke-width="1.4" /><rect x="101.20" y="438.18" width="6" height="2.00" rx="1.5" fill="#f6465d" /><line x1="114.94" y1="438.18" x2="114.94" y2="440.94" stroke="#f6465d" stroke-width="1.4" /><rect x="111.94" y="439.10" width="6" height="2.00" rx="1.5" fill="#f6465d" /><line x1="125.67" y1="436.79" x2="125.67" y2="443.71" stroke="#0ecb81" stroke-width="1.4" /><rect x="122.67" y="439.10" width="6" height="2.00" rx="1.5" fill="#0ecb81" /><line x1="136.41" y1="431.72" x2="136.41" y2="439.10" stroke="#0ecb81" stroke-width="1.4" /><rect x="133.41" y="431.72" width="6" height="7.37" rx="1.5" fill="#0ecb81" /><line x1="147.14" y1="420.66" x2="147.14" y2="432.18" stroke="#0ecb81" stroke-width="1.4" /><rect x="144.14" y="422.51" width="6" height="9.68" rx="1.5" fill="#0ecb81" /><line x1="157.87" y1="421.13" x2="157.87" y2="433.11" stroke="#f6465d" stroke-width="1.4" /><rect x="154.87" y="422.51" width="6" height="8.29" rx="1.5" fill="#f6465d" /><line x1="168.61" y1="419.28" x2="168.61" y2="436.33" stroke="#0ecb81" stroke-width="1.4" /><rect x="165.61" y="423.89" width="6" height="6.91" rx="1.5" fill="#0ecb81" /><line x1="179.34" y1="423.43" x2="179.34" y2="434.49" stroke="#f6465d" stroke-width="1.4" /><rect x="176.34" y="423.89" width="6" height="4.61" rx="1.5" fill="#f6465d" /><line x1="190.08" y1="428.50" x2="190.08" y2="445.09" stroke="#f6465d" stroke-width="1.4" /><rect x="187.08" y="428.50" width="6" height="8.76" rx="1.5" fill="#f6465d" /><line x1="200.81" y1="434.95" x2="200.81" y2="442.78" stroke="#f6465d" stroke-width="1.4" /><rect x="197.81" y="437.71" width="6" height="3.69" rx="1.5" fill="#f6465d" /><line x1="211.54" y1="439.10" x2="211.54" y2="452.00" stroke="#f6465d" stroke-width="1.4" /><rect x="208.54" y="440.94" width="6" height="5.07" rx="1.5" fill="#f6465d" /><line x1="222.28" y1="441.40" x2="222.28" y2="451.54" stroke="#0ecb81" stroke-width="1.4" /><rect x="219.28" y="441.86" width="6" height="4.15" rx="1.5" fill="#0ecb81" /><line x1="233.01" y1="425.73" x2="233.01" y2="443.24" stroke="#0ecb81" stroke-width="1.4" /><rect x="230.01" y="433.57" width="6" height="8.76" rx="1.5" fill="#0ecb81" /><line x1="243.75" y1="422.97" x2="243.75" y2="436.33" stroke="#0ecb81" stroke-width="1.4" /><rect x="240.75" y="422.97" width="6" height="10.60" rx="1.5" fill="#0ecb81" /><line x1="254.48" y1="400.85" x2="254.48" y2="426.19" stroke="#0ecb81" stroke-width="1.4" /><rect x="251.48" y="408.68" width="6" height="14.29" rx="1.5" fill="#0ecb81" /><line x1="265.22" y1="387.02" x2="265.22" y2="409.60" stroke="#0ecb81" stroke-width="1.4" /><rect x="262.22" y="394.40" width="6" height="14.75" rx="1.5" fill="#0ecb81" /><line x1="275.95" y1="388.41" x2="275.95" y2="396.70" stroke="#f6465d" stroke-width="1.4" /><rect x="272.95" y="394.40" width="6" height="2.30" rx="1.5" fill="#f6465d" /><line x1="286.68" y1="378.73" x2="286.68" y2="397.16" stroke="#0ecb81" stroke-width="1.4" /><rect x="283.68" y="383.80" width="6" height="12.90" rx="1.5" fill="#0ecb81" /><line x1="297.42" y1="375.04" x2="297.42" y2="392.09" stroke="#f6465d" stroke-width="1.4" /><rect x="294.42" y="383.34" width="6" height="6.91" rx="1.5" fill="#f6465d" /><line x1="308.15" y1="367.67" x2="308.15" y2="391.17" stroke="#0ecb81" stroke-width="1.4" /><rect x="305.15" y="379.19" width="6" height="10.60" rx="1.5" fill="#0ecb81" /><line x1="318.89" y1="364.44" x2="318.89" y2="383.34" stroke="#0ecb81" stroke-width="1.4" /><rect x="315.89" y="364.44" width="6" height="14.75" rx="1.5" fill="#0ecb81" /><line x1="329.62" y1="332.65" x2="329.62" y2="365.37" stroke="#0ecb81" stroke-width="1.4" /><rect x="326.62" y="337.26" width="6" height="27.19" rx="1.5" fill="#0ecb81" /><line x1="340.35" y1="333.11" x2="340.35" y2="356.61" stroke="#f6465d" stroke-width="1.4" /><rect x="337.35" y="337.26" width="6" height="12.44" rx="1.5" fill="#f6465d" /><line x1="351.09" y1="347.85" x2="351.09" y2="358.45" stroke="#f6465d" stroke-width="1.4" /><rect x="348.09" y="350.16" width="6" height="2.00" rx="1.5" fill="#f6465d" /><line x1="361.82" y1="325.74" x2="361.82" y2="352.00" stroke="#0ecb81" stroke-width="1.4" /><rect x="358.82" y="328.50" width="6" height="22.58" rx="1.5" fill="#0ecb81" /><line x1="372.56" y1="325.27" x2="372.56" y2="340.94" stroke="#f6465d" stroke-width="1.4" /><rect x="369.56" y="328.50" width="6" height="10.60" rx="1.5" fill="#f6465d" /><line x1="383.29" y1="335.41" x2="383.29" y2="350.16" stroke="#f6465d" stroke-width="1.4" /><rect x="380.29" y="339.56" width="6" height="3.69" rx="1.5" fill="#f6465d" /><line x1="394.03" y1="336.33" x2="394.03" y2="344.17" stroke="#0ecb81" stroke-width="1.4" /><rect x="391.03" y="341.86" width="6" height="2.00" rx="1.5" fill="#0ecb81" /><line x1="404.76" y1="331.27" x2="404.76" y2="344.17" stroke="#0ecb81" stroke-width="1.4" /><rect x="401.76" y="339.10" width="6" height="2.76" rx="1.5" fill="#0ecb81" /><line x1="415.49" y1="332.65" x2="415.49" y2="340.48" stroke="#0ecb81" stroke-width="1.4" /><rect x="412.49" y="333.57" width="6" height="5.53" rx="1.5" fill="#0ecb81" /><line x1="426.23" y1="276.89" x2="426.23" y2="333.57" stroke="#0ecb81" stroke-width="1.4" /><rect x="423.23" y="296.70" width="6" height="36.87" rx="1.5" fill="#0ecb81" /><line x1="436.96" y1="275.05" x2="436.96" y2="296.70" stroke="#0ecb81" stroke-width="1.4" /><rect x="433.96" y="284.72" width="6" height="11.52" rx="1.5" fill="#0ecb81" /><line x1="447.70" y1="277.35" x2="447.70" y2="293.94" stroke="#0ecb81" stroke-width="1.4" /><rect x="444.70" y="277.81" width="6" height="6.45" rx="1.5" fill="#0ecb81" /><line x1="458.43" y1="258.00" x2="458.43" y2="278.27" stroke="#0ecb81" stroke-width="1.4" /><rect x="455.43" y="265.83" width="6" height="12.44" rx="1.5" fill="#0ecb81" /><line x1="469.16" y1="252.93" x2="469.16" y2="282.88" stroke="#0ecb81" stroke-width="1.4" /><rect x="466.16" y="256.61" width="6" height="9.68" rx="1.5" fill="#0ecb81" /><line x1="479.90" y1="229.89" x2="479.90" y2="256.15" stroke="#0ecb81" stroke-width="1.4" /><rect x="476.90" y="241.41" width="6" height="14.75" rx="1.5" fill="#0ecb81" /><line x1="490.63" y1="227.12" x2="490.63" y2="251.54" stroke="#f6465d" stroke-width="1.4" /><rect x="487.63" y="240.95" width="6" height="5.99" rx="1.5" fill="#f6465d" /><line x1="501.37" y1="234.03" x2="501.37" y2="246.94" stroke="#0ecb81" stroke-width="1.4" /><rect x="498.37" y="239.56" width="6" height="7.37" rx="1.5" fill="#0ecb81" /><line x1="512.10" y1="209.15" x2="512.10" y2="239.56" stroke="#0ecb81" stroke-width="1.4" /><rect x="509.10" y="212.37" width="6" height="26.73" rx="1.5" fill="#0ecb81" /><line x1="522.84" y1="164.45" x2="522.84" y2="215.14" stroke="#0ecb81" stroke-width="1.4" /><rect x="519.84" y="180.12" width="6" height="32.72" rx="1.5" fill="#0ecb81" /><line x1="533.57" y1="177.35" x2="533.57" y2="194.40" stroke="#f6465d" stroke-width="1.4" /><rect x="530.57" y="179.66" width="6" height="2.00" rx="1.5" fill="#f6465d" /><line x1="544.30" y1="168.60" x2="544.30" y2="185.65" stroke="#0ecb81" stroke-width="1.4" /><rect x="541.30" y="168.60" width="6" height="13.36" rx="1.5" fill="#0ecb81" /><line x1="555.04" y1="81.50" x2="555.04" y2="168.60" stroke="#0ecb81" stroke-width="1.4" /><rect x="552.04" y="150.16" width="6" height="17.97" rx="1.5" fill="#0ecb81" /><line x1="565.77" y1="135.88" x2="565.77" y2="152.47" stroke="#0ecb81" stroke-width="1.4" /><rect x="562.77" y="140.95" width="6" height="8.76" rx="1.5" fill="#0ecb81" /><line x1="576.51" y1="132.65" x2="576.51" y2="150.16" stroke="#f6465d" stroke-width="1.4" /><rect x="573.51" y="140.49" width="6" height="4.15" rx="1.5" fill="#f6465d" /><line x1="587.24" y1="130.81" x2="587.24" y2="148.32" stroke="#0ecb81" stroke-width="1.4" /><rect x="584.24" y="130.81" width="6" height="13.82" rx="1.5" fill="#0ecb81" /><line x1="597.97" y1="128.04" x2="597.97" y2="165.83" stroke="#f6465d" stroke-width="1.4" /><rect x="594.97" y="130.35" width="6" height="13.36" rx="1.5" fill="#f6465d" /><line x1="608.71" y1="134.04" x2="608.71" y2="148.32" stroke="#0ecb81" stroke-width="1.4" /><rect x="605.71" y="137.72" width="6" height="6.45" rx="1.5" fill="#0ecb81" /><line x1="619.44" y1="128.51" x2="619.44" y2="163.07" stroke="#f6465d" stroke-width="1.4" /><rect x="616.44" y="137.26" width="6" height="8.76" rx="1.5" fill="#f6465d" /><line x1="630.18" y1="139.10" x2="630.18" y2="152.47" stroke="#f6465d" stroke-width="1.4" /><rect x="627.18" y="145.56" width="6" height="4.15" rx="1.5" fill="#f6465d" /><line x1="640.91" y1="150.16" x2="640.91" y2="177.81" stroke="#f6465d" stroke-width="1.4" /><rect x="637.91" y="150.16" width="6" height="18.89" rx="1.5" fill="#f6465d" /><line x1="651.65" y1="150.16" x2="651.65" y2="178.73" stroke="#0ecb81" stroke-width="1.4" /><rect x="648.65" y="157.08" width="6" height="12.44" rx="1.5" fill="#0ecb81" /><line x1="662.38" y1="157.54" x2="662.38" y2="181.04" stroke="#f6465d" stroke-width="1.4" /><rect x="659.38" y="157.54" width="6" height="20.28" rx="1.5" fill="#f6465d" /><line x1="673.11" y1="160.30" x2="673.11" y2="178.27" stroke="#0ecb81" stroke-width="1.4" /><rect x="670.11" y="166.75" width="6" height="11.52" rx="1.5" fill="#0ecb81" /><line x1="683.85" y1="147.40" x2="683.85" y2="166.75" stroke="#0ecb81" stroke-width="1.4" /><rect x="680.85" y="149.70" width="6" height="17.05" rx="1.5" fill="#0ecb81" /><line x1="694.58" y1="137.72" x2="694.58" y2="158.92" stroke="#0ecb81" stroke-width="1.4" /><rect x="691.58" y="138.18" width="6" height="11.52" rx="1.5" fill="#0ecb81" /><line x1="705.32" y1="85.19" x2="705.32" y2="141.41" stroke="#0ecb81" stroke-width="1.4" /><rect x="702.32" y="110.99" width="6" height="27.65" rx="1.5" fill="#0ecb81" /><line x1="716.05" y1="88.41" x2="716.05" y2="115.60" stroke="#0ecb81" stroke-width="1.4" /><rect x="713.05" y="94.40" width="6" height="16.13" rx="1.5" fill="#0ecb81" /><line x1="726.78" y1="84.73" x2="726.78" y2="101.32" stroke="#f6465d" stroke-width="1.4" /><rect x="723.78" y="94.40" width="6" height="4.15" rx="1.5" fill="#f6465d" /><line x1="737.52" y1="91.64" x2="737.52" y2="103.62" stroke="#0ecb81" stroke-width="1.4" /><rect x="734.52" y="92.56" width="6" height="5.99" rx="1.5" fill="#0ecb81" /><line x1="748.25" y1="58.00" x2="748.25" y2="92.56" stroke="#0ecb81" stroke-width="1.4" /><rect x="745.25" y="73.21" width="6" height="19.35" rx="1.5" fill="#0ecb81" /><line x1="758.99" y1="68.14" x2="758.99" y2="83.35" stroke="#0ecb81" stroke-width="1.4" /><rect x="755.99" y="73.21" width="6" height="2.00" rx="1.5" fill="#0ecb81" /><line x1="769.72" y1="73.21" x2="769.72" y2="93.94" stroke="#f6465d" stroke-width="1.4" /><rect x="766.72" y="73.21" width="6" height="12.44" rx="1.5" fill="#f6465d" /><line x1="780.46" y1="81.96" x2="780.46" y2="93.94" stroke="#f6465d" stroke-width="1.4" /><rect x="777.46" y="85.19" width="6" height="2.76" rx="1.5" fill="#f6465d" /><line x1="791.19" y1="78.74" x2="791.19" y2="89.80" stroke="#0ecb81" stroke-width="1.4" /><rect x="788.19" y="83.35" width="6" height="4.15" rx="1.5" fill="#0ecb81" /><line x1="801.92" y1="82.42" x2="801.92" y2="94.87" stroke="#f6465d" stroke-width="1.4" /><rect x="798.92" y="83.81" width="6" height="5.07" rx="1.5" fill="#f6465d" /><line x1="812.66" y1="78.28" x2="812.66" y2="97.17" stroke="#f6465d" stroke-width="1.4" /><rect x="809.66" y="89.34" width="6" height="3.23" rx="1.5" fill="#f6465d" /><line x1="823.39" y1="75.51" x2="823.39" y2="96.71" stroke="#f6465d" stroke-width="1.4" /><rect x="820.39" y="93.02" width="6" height="2.00" rx="1.5" fill="#f6465d" /><line x1="834.13" y1="87.49" x2="834.13" y2="98.09" stroke="#0ecb81" stroke-width="1.4" /><rect x="831.13" y="92.56" width="6" height="2.00" rx="1.5" fill="#0ecb81" /><line x1="844.86" y1="87.03" x2="844.86" y2="104.08" stroke="#f6465d" stroke-width="1.4" /><rect x="841.86" y="92.56" width="6" height="10.60" rx="1.5" fill="#f6465d" /><line x1="855.59" y1="93.94" x2="855.59" y2="108.69" stroke="#0ecb81" stroke-width="1.4" /><rect x="852.59" y="102.70" width="6" height="2.00" rx="1.5" fill="#0ecb81" /><line x1="866.33" y1="100.86" x2="866.33" y2="111.92" stroke="#f6465d" stroke-width="1.4" /><rect x="863.33" y="102.24" width="6" height="4.61" rx="1.5" fill="#f6465d" /><line x1="877.06" y1="103.16" x2="877.06" y2="117.45" stroke="#f6465d" stroke-width="1.4" /><rect x="874.06" y="106.85" width="6" height="8.76" rx="1.5" fill="#f6465d" /><line x1="887.80" y1="112.38" x2="887.80" y2="126.66" stroke="#f6465d" stroke-width="1.4" /><rect x="884.80" y="115.14" width="6" height="10.60" rx="1.5" fill="#f6465d" /><line x1="898.53" y1="125.74" x2="898.53" y2="138.64" stroke="#f6465d" stroke-width="1.4" /><rect x="895.53" y="126.20" width="6" height="7.83" rx="1.5" fill="#f6465d" /><line x1="909.27" y1="132.65" x2="909.27" y2="145.09" stroke="#f6465d" stroke-width="1.4" /><rect x="906.27" y="134.50" width="6" height="9.68" rx="1.5" fill="#f6465d" /><line x1="920.00" y1="142.79" x2="920.00" y2="155.69" stroke="#f6465d" stroke-width="1.4" /><rect x="917.00" y="144.63" width="6" height="6.45" rx="1.5" fill="#f6465d" />
  <polyline points="72.00,448.31 72.00,414.67 125.67,443.71 168.61,419.28 211.54,452.00" fill="none" stroke="#2fc273" stroke-width="4" stroke-linecap="round" stroke-linejoin="round" />
  <circle cx="72.00" cy="448.31" r="5.5" fill="#2fc273" fill-opacity="0.15" stroke="#2fc273" stroke-width="2" /><text x="72.00" y="436.31" fill="#f3f4f6" font-size="15" font-weight="700" text-anchor="middle">X</text><circle cx="72.00" cy="414.67" r="5.5" fill="#2fc273" fill-opacity="0.15" stroke="#2fc273" stroke-width="2" /><text x="72.00" y="402.67" fill="#f3f4f6" font-size="15" font-weight="700" text-anchor="middle">A</text><circle cx="125.67" cy="443.71" r="5.5" fill="#2fc273" fill-opacity="0.15" stroke="#2fc273" stroke-width="2" /><text x="125.67" y="431.71" fill="#f3f4f6" font-size="15" font-weight="700" text-anchor="middle">B</text><circle cx="168.61" cy="419.28" r="5.5" fill="#2fc273" fill-opacity="0.15" stroke="#2fc273" stroke-width="2" /><text x="168.61" y="407.28" fill="#f3f4f6" font-size="15" font-weight="700" text-anchor="middle">C</text><circle cx="211.54" cy="452.00" r="5.5" fill="#2fc273" fill-opacity="0.15" stroke="#2fc273" stroke-width="2" /><text x="211.54" y="440.00" fill="#f3f4f6" font-size="15" font-weight="700" text-anchor="middle">D</text>
  <text x="56" y="492" fill="#8ba0b5" font-size="18">일반 완성 · TP1 8.8351 · TP2 8.8519 · SL 8.7985</text>
</svg>
