<svg xmlns="http://www.w3.org/2000/svg" width="960" height="540" viewBox="0 0 960 540">
  <rect width="960" height="540" rx="24" fill="#0b1220" />
  <rect x="28" y="28" width="904" height="484" rx="22" fill="#111827" stroke="#1f2937" />
  <text x="56" y="74" fill="#f3f4f6" font-size="34" font-weight="700">BANANAS31USDT · AB=CD</text>
  <text x="904" y="74" fill="#8ba0b5" font-size="20" text-anchor="end">Bearish (매도) · Score 84.8</text>
  <line x1="72" y1="58" x2="920" y2="58" stroke="#223045" stroke-width="1" stroke-dasharray="4 8" /><line x1="72" y1="156" x2="920" y2="156" stroke="#223045" stroke-width="1" stroke-dasharray="4 8" /><line x1="72" y1="255" x2="920" y2="255" stroke="#223045" stroke-width="1" stroke-dasharray="4 8" /><line x1="72" y1="353" x2="920" y2="353" stroke="#223045" stroke-width="1" stroke-dasharray="4 8" /><line x1="72" y1="452" x2="920" y2="452" stroke="#223045" stroke-width="1" stroke-dasharray="4 8" />
  <rect x="795.39" y="-11.77" width="84" height="65.39" fill="#fbbf24" fill-opacity="0.12" stroke="#fbbf24" stroke-width="1.5" stroke-dasharray="6 6" />
  <line x1="72.00" y1="213.68" x2="72.00" y2="229.55" stroke="#f6465d" stroke-width="1.4" /><rect x="69.00" y="215.33" width="6" height="13.13" rx="1.5" fill="#f6465d" /><line x1="82.73" y1="227.09" x2="82.73" y2="237.49" stroke="#f6465d" stroke-width="1.4" /><rect x="79.73" y="227.91" width="6" height="4.38" rx="1.5" fill="#f6465d" /><line x1="93.47" y1="225.18" x2="93.47" y2="250.35" stroke="#0ecb81" stroke-width="1.4" /><rect x="90.47" y="233.11" width="6" height="2.00" rx="1.5" fill="#0ecb81" /><line x1="104.20" y1="227.91" x2="104.20" y2="235.85" stroke="#0ecb81" stroke-width="1.4" /><rect x="101.20" y="228.46" width="6" height="4.65" rx="1.5" fill="#0ecb81" /><line x1="114.94" y1="224.90" x2="114.94" y2="231.47" stroke="#0ecb81" stroke-width="1.4" /><rect x="111.94" y="227.64" width="6" height="2.00" rx="1.5" fill="#0ecb81" /><line x1="125.67" y1="227.09" x2="125.67" y2="239.13" stroke="#f6465d" stroke-width="1.4" /><rect x="122.67" y="228.19" width="6" height="7.93" rx="1.5" fill="#f6465d" /><line x1="136.41" y1="235.57" x2="136.41" y2="244.33" stroke="#f6465d" stroke-width="1.4" /><rect x="133.41" y="236.12" width="6" height="2.46" rx="1.5" fill="#f6465d" /><line x1="147.14" y1="237.22" x2="147.14" y2="250.07" stroke="#f6465d" stroke-width="1.4" /><rect x="144.14" y="238.86" width="6" height="7.11" rx="1.5" fill="#f6465d" /><line x1="157.87" y1="243.23" x2="157.87" y2="248.98" stroke="#0ecb81" stroke-width="1.4" /><rect x="154.87" y="245.70" width="6" height="2.00" rx="1.5" fill="#0ecb81" /><line x1="168.61" y1="239.40" x2="168.61" y2="256.37" stroke="#f6465d" stroke-width="1.4" /><rect x="165.61" y="245.15" width="6" height="2.19" rx="1.5" fill="#f6465d" /><line x1="179.34" y1="244.06" x2="179.34" y2="254.45" stroke="#f6465d" stroke-width="1.4" /><rect x="176.34" y="247.34" width="6" height="3.01" rx="1.5" fill="#f6465d" /><line x1="190.08" y1="245.97" x2="190.08" y2="252.54" stroke="#0ecb81" stroke-width="1.4" /><rect x="187.08" y="247.07" width="6" height="3.28" rx="1.5" fill="#0ecb81" /><line x1="200.81" y1="245.70" x2="200.81" y2="255.00" stroke="#f6465d" stroke-width="1.4" /><rect x="197.81" y="247.07" width="6" height="2.00" rx="1.5" fill="#f6465d" /><line x1="211.54" y1="240.50" x2="211.54" y2="248.16" stroke="#0ecb81" stroke-width="1.4" /><rect x="208.54" y="243.78" width="6" height="4.10" rx="1.5" fill="#0ecb81" /><line x1="222.28" y1="242.69" x2="222.28" y2="252.26" stroke="#f6465d" stroke-width="1.4" /><rect x="219.28" y="244.06" width="6" height="5.20" rx="1.5" fill="#f6465d" /><line x1="233.01" y1="241.05" x2="233.01" y2="249.53" stroke="#0ecb81" stroke-width="1.4" /><rect x="230.01" y="242.69" width="6" height="6.29" rx="1.5" fill="#0ecb81" /><line x1="243.75" y1="239.13" x2="243.75" y2="249.25" stroke="#f6465d" stroke-width="1.4" /><rect x="240.75" y="242.69" width="6" height="5.20" rx="1.5" fill="#f6465d" /><line x1="254.48" y1="247.61" x2="254.48" y2="258.01" stroke="#f6465d" stroke-width="1.4" /><rect x="251.48" y="247.89" width="6" height="4.38" rx="1.5" fill="#f6465d" /><line x1="265.22" y1="247.34" x2="265.22" y2="259.10" stroke="#f6465d" stroke-width="1.4" /><rect x="262.22" y="252.26" width="6" height="2.74" rx="1.5" fill="#f6465d" /><line x1="275.95" y1="247.07" x2="275.95" y2="256.09" stroke="#0ecb81" stroke-width="1.4" /><rect x="272.95" y="247.07" width="6" height="7.39" rx="1.5" fill="#0ecb81" /><line x1="286.68" y1="244.06" x2="286.68" y2="252.26" stroke="#0ecb81" stroke-width="1.4" /><rect x="283.68" y="244.60" width="6" height="2.46" rx="1.5" fill="#0ecb81" /><line x1="297.42" y1="243.78" x2="297.42" y2="265.40" stroke="#f6465d" stroke-width="1.4" /><rect x="294.42" y="244.88" width="6" height="10.94" rx="1.5" fill="#f6465d" /><line x1="308.15" y1="242.41" x2="308.15" y2="255.55" stroke="#0ecb81" stroke-width="1.4" /><rect x="305.15" y="253.63" width="6" height="2.00" rx="1.5" fill="#0ecb81" /><line x1="318.89" y1="252.81" x2="318.89" y2="260.47" stroke="#f6465d" stroke-width="1.4" /><rect x="315.89" y="253.36" width="6" height="2.00" rx="1.5" fill="#f6465d" /><line x1="329.62" y1="254.18" x2="329.62" y2="265.67" stroke="#f6465d" stroke-width="1.4" /><rect x="326.62" y="254.45" width="6" height="8.48" rx="1.5" fill="#f6465d" /><line x1="340.35" y1="256.37" x2="340.35" y2="269.23" stroke="#f6465d" stroke-width="1.4" /><rect x="337.35" y="262.93" width="6" height="3.28" rx="1.5" fill="#f6465d" /><line x1="351.09" y1="264.03" x2="351.09" y2="299.05" stroke="#f6465d" stroke-width="1.4" /><rect x="348.09" y="266.22" width="6" height="25.45" rx="1.5" fill="#f6465d" /><line x1="361.82" y1="282.09" x2="361.82" y2="316.29" stroke="#f6465d" stroke-width="1.4" /><rect x="358.82" y="290.30" width="6" height="6.29" rx="1.5" fill="#f6465d" /><line x1="372.56" y1="285.37" x2="372.56" y2="315.74" stroke="#f6465d" stroke-width="1.4" /><rect x="369.56" y="296.86" width="6" height="16.96" rx="1.5" fill="#f6465d" /><line x1="383.29" y1="305.34" x2="383.29" y2="325.04" stroke="#f6465d" stroke-width="1.4" /><rect x="380.29" y="313.55" width="6" height="7.11" rx="1.5" fill="#f6465d" /><line x1="394.03" y1="303.98" x2="394.03" y2="320.94" stroke="#0ecb81" stroke-width="1.4" /><rect x="391.03" y="313.28" width="6" height="7.11" rx="1.5" fill="#0ecb81" /><line x1="404.76" y1="301.51" x2="404.76" y2="314.37" stroke="#0ecb81" stroke-width="1.4" /><rect x="401.76" y="308.08" width="6" height="4.65" rx="1.5" fill="#0ecb81" /><line x1="415.49" y1="306.99" x2="415.49" y2="335.44" stroke="#f6465d" stroke-width="1.4" /><rect x="412.49" y="308.35" width="6" height="24.35" rx="1.5" fill="#f6465d" /><line x1="426.23" y1="327.51" x2="426.23" y2="349.94" stroke="#f6465d" stroke-width="1.4" /><rect x="423.23" y="332.43" width="6" height="15.32" rx="1.5" fill="#f6465d" /><line x1="436.96" y1="334.89" x2="436.96" y2="354.59" stroke="#0ecb81" stroke-width="1.4" /><rect x="433.96" y="337.63" width="6" height="9.30" rx="1.5" fill="#0ecb81" /><line x1="447.70" y1="337.36" x2="447.70" y2="347.75" stroke="#f6465d" stroke-width="1.4" /><rect x="444.70" y="337.36" width="6" height="7.66" rx="1.5" fill="#f6465d" /><line x1="458.43" y1="335.72" x2="458.43" y2="348.03" stroke="#0ecb81" stroke-width="1.4" /><rect x="455.43" y="342.28" width="6" height="2.00" rx="1.5" fill="#0ecb81" /><line x1="469.16" y1="335.99" x2="469.16" y2="350.49" stroke="#0ecb81" stroke-width="1.4" /><rect x="466.16" y="338.18" width="6" height="3.56" rx="1.5" fill="#0ecb81" /><line x1="479.90" y1="324.77" x2="479.90" y2="342.56" stroke="#0ecb81" stroke-width="1.4" /><rect x="476.90" y="330.24" width="6" height="7.39" rx="1.5" fill="#0ecb81" /><line x1="490.63" y1="327.23" x2="490.63" y2="352.95" stroke="#f6465d" stroke-width="1.4" /><rect x="487.63" y="329.42" width="6" height="19.97" rx="1.5" fill="#f6465d" /><line x1="501.37" y1="342.83" x2="501.37" y2="356.24" stroke="#0ecb81" stroke-width="1.4" /><rect x="498.37" y="345.29" width="6" height="4.38" rx="1.5" fill="#0ecb81" /><line x1="512.10" y1="343.10" x2="512.10" y2="400.01" stroke="#f6465d" stroke-width="1.4" /><rect x="509.10" y="345.02" width="6" height="38.03" rx="1.5" fill="#f6465d" /><line x1="522.84" y1="367.73" x2="522.84" y2="384.42" stroke="#0ecb81" stroke-width="1.4" /><rect x="519.84" y="370.46" width="6" height="12.86" rx="1.5" fill="#0ecb81" /><line x1="533.57" y1="353.77" x2="533.57" y2="374.57" stroke="#0ecb81" stroke-width="1.4" /><rect x="530.57" y="365.54" width="6" height="4.93" rx="1.5" fill="#0ecb81" /><line x1="544.30" y1="365.27" x2="544.30" y2="388.80" stroke="#f6465d" stroke-width="1.4" /><rect x="541.30" y="365.54" width="6" height="13.95" rx="1.5" fill="#f6465d" /><line x1="555.04" y1="360.34" x2="555.04" y2="384.14" stroke="#0ecb81" stroke-width="1.4" /><rect x="552.04" y="366.36" width="6" height="13.41" rx="1.5" fill="#0ecb81" /><line x1="565.77" y1="348.58" x2="565.77" y2="368.82" stroke="#0ecb81" stroke-width="1.4" /><rect x="562.77" y="356.78" width="6" height="9.30" rx="1.5" fill="#0ecb81" /><line x1="576.51" y1="356.51" x2="576.51" y2="380.86" stroke="#f6465d" stroke-width="1.4" /><rect x="573.51" y="357.06" width="6" height="19.15" rx="1.5" fill="#f6465d" /><line x1="587.24" y1="373.20" x2="587.24" y2="389.07" stroke="#f6465d" stroke-width="1.4" /><rect x="584.24" y="377.58" width="6" height="4.38" rx="1.5" fill="#f6465d" /><line x1="597.97" y1="381.13" x2="597.97" y2="394.54" stroke="#f6465d" stroke-width="1.4" /><rect x="594.97" y="381.96" width="6" height="6.84" rx="1.5" fill="#f6465d" /><line x1="608.71" y1="384.14" x2="608.71" y2="397.00" stroke="#f6465d" stroke-width="1.4" /><rect x="605.71" y="388.25" width="6" height="3.56" rx="1.5" fill="#f6465d" /><line x1="619.44" y1="389.89" x2="619.44" y2="398.92" stroke="#0ecb81" stroke-width="1.4" /><rect x="616.44" y="391.53" width="6" height="2.00" rx="1.5" fill="#0ecb81" /><line x1="630.18" y1="383.60" x2="630.18" y2="404.39" stroke="#f6465d" stroke-width="1.4" /><rect x="627.18" y="390.98" width="6" height="10.67" rx="1.5" fill="#f6465d" /><line x1="640.91" y1="368.00" x2="640.91" y2="403.57" stroke="#0ecb81" stroke-width="1.4" /><rect x="637.91" y="373.47" width="6" height="27.91" rx="1.5" fill="#0ecb81" /><line x1="651.65" y1="369.64" x2="651.65" y2="400.56" stroke="#f6465d" stroke-width="1.4" /><rect x="648.65" y="373.47" width="6" height="22.44" rx="1.5" fill="#f6465d" /><line x1="662.38" y1="395.91" x2="662.38" y2="419.44" stroke="#f6465d" stroke-width="1.4" /><rect x="659.38" y="395.91" width="6" height="21.62" rx="1.5" fill="#f6465d" /><line x1="673.11" y1="415.61" x2="673.11" y2="452.00" stroke="#f6465d" stroke-width="1.4" /><rect x="670.11" y="417.25" width="6" height="9.58" rx="1.5" fill="#f6465d" /><line x1="683.85" y1="416.98" x2="683.85" y2="433.12" stroke="#0ecb81" stroke-width="1.4" /><rect x="680.85" y="420.81" width="6" height="6.57" rx="1.5" fill="#0ecb81" /><line x1="694.58" y1="406.03" x2="694.58" y2="420.81" stroke="#0ecb81" stroke-width="1.4" /><rect x="691.58" y="410.14" width="6" height="10.40" rx="1.5" fill="#0ecb81" /><line x1="705.32" y1="393.45" x2="705.32" y2="415.61" stroke="#0ecb81" stroke-width="1.4" /><rect x="702.32" y="399.47" width="6" height="10.40" rx="1.5" fill="#0ecb81" /><line x1="716.05" y1="219.70" x2="716.05" y2="402.20" stroke="#0ecb81" stroke-width="1.4" /><rect x="713.05" y="268.95" width="6" height="130.51" rx="1.5" fill="#0ecb81" /><line x1="726.78" y1="166.08" x2="726.78" y2="276.62" stroke="#0ecb81" stroke-width="1.4" /><rect x="723.78" y="237.76" width="6" height="31.19" rx="1.5" fill="#0ecb81" /><line x1="737.52" y1="216.15" x2="737.52" y2="275.52" stroke="#0ecb81" stroke-width="1.4" /><rect x="734.52" y="230.38" width="6" height="6.29" rx="1.5" fill="#0ecb81" /><line x1="748.25" y1="159.51" x2="748.25" y2="248.71" stroke="#0ecb81" stroke-width="1.4" /><rect x="745.25" y="230.38" width="6" height="2.00" rx="1.5" fill="#0ecb81" /><line x1="758.99" y1="221.62" x2="758.99" y2="280.72" stroke="#f6465d" stroke-width="1.4" /><rect x="755.99" y="230.10" width="6" height="33.38" rx="1.5" fill="#f6465d" /><line x1="769.72" y1="228.73" x2="769.72" y2="268.41" stroke="#0ecb81" stroke-width="1.4" /><rect x="766.72" y="241.87" width="6" height="21.62" rx="1.5" fill="#0ecb81" /><line x1="780.46" y1="221.62" x2="780.46" y2="253.36" stroke="#0ecb81" stroke-width="1.4" /><rect x="777.46" y="230.65" width="6" height="11.22" rx="1.5" fill="#0ecb81" /><line x1="791.19" y1="166.62" x2="791.19" y2="230.92" stroke="#0ecb81" stroke-width="1.4" /><rect x="788.19" y="213.68" width="6" height="16.96" rx="1.5" fill="#0ecb81" /><line x1="801.92" y1="149.93" x2="801.92" y2="223.26" stroke="#0ecb81" stroke-width="1.4" /><rect x="798.92" y="151.58" width="6" height="62.66" rx="1.5" fill="#0ecb81" /><line x1="812.66" y1="122.85" x2="812.66" y2="160.88" stroke="#f6465d" stroke-width="1.4" /><rect x="809.66" y="151.85" width="6" height="5.75" rx="1.5" fill="#f6465d" /><line x1="823.39" y1="58.00" x2="823.39" y2="164.98" stroke="#0ecb81" stroke-width="1.4" /><rect x="820.39" y="129.41" width="6" height="28.73" rx="1.5" fill="#0ecb81" /><line x1="834.13" y1="97.13" x2="834.13" y2="133.79" stroke="#0ecb81" stroke-width="1.4" /><rect x="831.13" y="105.61" width="6" height="23.26" rx="1.5" fill="#0ecb81" /><line x1="844.86" y1="98.49" x2="844.86" y2="131.33" stroke="#f6465d" stroke-width="1.4" /><rect x="841.86" y="107.52" width="6" height="6.84" rx="1.5" fill="#f6465d" /><line x1="855.59" y1="99.86" x2="855.59" y2="126.95" stroke="#f6465d" stroke-width="1.4" /><rect x="852.59" y="114.64" width="6" height="4.38" rx="1.5" fill="#f6465d" /><line x1="866.33" y1="114.36" x2="866.33" y2="142.27" stroke="#f6465d" stroke-width="1.4" /><rect x="863.33" y="118.74" width="6" height="14.78" rx="1.5" fill="#f6465d" /><line x1="877.06" y1="114.64" x2="877.06" y2="138.99" stroke="#0ecb81" stroke-width="1.4" /><rect x="874.06" y="117.37" width="6" height="16.42" rx="1.5" fill="#0ecb81" /><line x1="887.80" y1="105.61" x2="887.80" y2="133.79" stroke="#f6465d" stroke-width="1.4" /><rect x="884.80" y="117.65" width="6" height="4.93" rx="1.5" fill="#f6465d" /><line x1="898.53" y1="121.75" x2="898.53" y2="192.07" stroke="#f6465d" stroke-width="1.4" /><rect x="895.53" y="122.85" width="6" height="49.25" rx="1.5" fill="#f6465d" /><line x1="909.27" y1="163.07" x2="909.27" y2="192.34" stroke="#f6465d" stroke-width="1.4" /><rect x="906.27" y="172.64" width="6" height="5.75" rx="1.5" fill="#f6465d" /><line x1="920.00" y1="169.91" x2="920.00" y2="191.52" stroke="#f6465d" stroke-width="1.4" /><rect x="917.00" y="179.76" width="6" height="5.20" rx="1.5" fill="#f6465d" />
  <polyline points="565.77,348.58 673.11,452.00 748.25,159.51 758.99,280.72 823.39,58.00" fill="none" stroke="#2fc273" stroke-width="4" stroke-linecap="round" stroke-linejoin="round" />
  <circle cx="565.77" cy="348.58" r="5.5" fill="#2fc273" fill-opacity="0.15" stroke="#2fc273" stroke-width="2" /><text x="565.77" y="336.58" fill="#f3f4f6" font-size="15" font-weight="700" text-anchor="middle">X</text><circle cx="673.11" cy="452.00" r="5.5" fill="#2fc273" fill-opacity="0.15" stroke="#2fc273" stroke-width="2" /><text x="673.11" y="440.00" fill="#f3f4f6" font-size="15" font-weight="700" text-anchor="middle">A</text><circle cx="748.25" cy="159.51" r="5.5" fill="#2fc273" fill-opacity="0.15" stroke="#2fc273" stroke-width="2" /><text x="748.25" y="147.51" fill="#f3f4f6" font-size="15" font-weight="700" text-anchor="middle">B</text><circle cx="758.99" cy="280.72" r="5.5" fill="#2fc273" fill-opacity="0.15" stroke="#2fc273" stroke-width="2" /><text x="758.99" y="268.72" fill="#f3f4f6" font-size="15" font-weight="700" text-anchor="middle">C</text><circle cx="823.39" cy="58.00" r="5.5" fill="#2fc273" fill-opacity="0.15" stroke="#2fc273" stroke-width="2" /><text x="823.39" y="46.00" fill="#f3f4f6" font-size="15" font-weight="700" text-anchor="middle">D</text>
  <text x="56" y="492" fill="#8ba0b5" font-size="18">일반 완성 · TP1 0.01057 · TP2 0.010378 · SL 0.01093</text>
</svg>
