<svg xmlns="http://www.w3.org/2000/svg" width="960" height="540" viewBox="0 0 960 540">
  <rect width="960" height="540" rx="24" fill="#0b1220" />
  <rect x="28" y="28" width="904" height="484" rx="22" fill="#111827" stroke="#1f2937" />
  <text x="56" y="74" fill="#f3f4f6" font-size="34" font-weight="700">BANKUSDT · AB=CD</text>
  <text x="904" y="74" fill="#8ba0b5" font-size="20" text-anchor="end">Bearish (매도) · Score 79.0</text>
  <line x1="72" y1="58" x2="920" y2="58" stroke="#223045" stroke-width="1" stroke-dasharray="4 8" /><line x1="72" y1="156" x2="920" y2="156" stroke="#223045" stroke-width="1" stroke-dasharray="4 8" /><line x1="72" y1="255" x2="920" y2="255" stroke="#223045" stroke-width="1" stroke-dasharray="4 8" /><line x1="72" y1="353" x2="920" y2="353" stroke="#223045" stroke-width="1" stroke-dasharray="4 8" /><line x1="72" y1="452" x2="920" y2="452" stroke="#223045" stroke-width="1" stroke-dasharray="4 8" />
  <rect x="666.58" y="419.64" width="84" height="8.70" fill="#fbbf24" fill-opacity="0.12" stroke="#fbbf24" stroke-width="1.5" stroke-dasharray="6 6" />
  <line x1="72.00" y1="58.00" x2="72.00" y2="117.57" stroke="#f6465d" stroke-width="1.4" /><rect x="69.00" y="60.93" width="6" height="54.16" rx="1.5" fill="#f6465d" /><line x1="82.73" y1="100.21" x2="82.73" y2="164.81" stroke="#f6465d" stroke-width="1.4" /><rect x="79.73" y="114.52" width="6" height="49.32" rx="1.5" fill="#f6465d" /><line x1="93.47" y1="147.93" x2="93.47" y2="279.55" stroke="#f6465d" stroke-width="1.4" /><rect x="90.47" y="163.86" width="6" height="105.19" rx="1.5" fill="#f6465d" /><line x1="104.20" y1="253.30" x2="104.20" y2="359.12" stroke="#f6465d" stroke-width="1.4" /><rect x="101.20" y="269.05" width="6" height="90.03" rx="1.5" fill="#f6465d" /><line x1="114.94" y1="303.33" x2="114.94" y2="392.71" stroke="#f6465d" stroke-width="1.4" /><rect x="111.94" y="359.08" width="6" height="11.55" rx="1.5" fill="#f6465d" /><line x1="125.67" y1="353.83" x2="125.67" y2="429.13" stroke="#f6465d" stroke-width="1.4" /><rect x="122.67" y="369.82" width="6" height="21.12" rx="1.5" fill="#f6465d" /><line x1="136.41" y1="379.93" x2="136.41" y2="432.28" stroke="#0ecb81" stroke-width="1.4" /><rect x="133.41" y="385.63" width="6" height="5.59" rx="1.5" fill="#0ecb81" /><line x1="147.14" y1="382.22" x2="147.14" y2="406.64" stroke="#f6465d" stroke-width="1.4" /><rect x="144.14" y="385.85" width="6" height="2.00" rx="1.5" fill="#f6465d" /><line x1="157.87" y1="364.94" x2="157.87" y2="409.02" stroke="#f6465d" stroke-width="1.4" /><rect x="154.87" y="386.60" width="6" height="20.43" rx="1.5" fill="#f6465d" /><line x1="168.61" y1="406.60" x2="168.61" y2="446.39" stroke="#f6465d" stroke-width="1.4" /><rect x="165.61" y="406.70" width="6" height="13.46" rx="1.5" fill="#f6465d" /><line x1="179.34" y1="416.17" x2="179.34" y2="439.00" stroke="#f6465d" stroke-width="1.4" /><rect x="176.34" y="420.15" width="6" height="7.63" rx="1.5" fill="#f6465d" /><line x1="190.08" y1="401.39" x2="190.08" y2="429.57" stroke="#0ecb81" stroke-width="1.4" /><rect x="187.08" y="407.61" width="6" height="20.11" rx="1.5" fill="#0ecb81" /><line x1="200.81" y1="387.50" x2="200.81" y2="417.00" stroke="#f6465d" stroke-width="1.4" /><rect x="197.81" y="407.63" width="6" height="2.00" rx="1.5" fill="#f6465d" /><line x1="211.54" y1="394.95" x2="211.54" y2="410.07" stroke="#0ecb81" stroke-width="1.4" /><rect x="208.54" y="402.44" width="6" height="6.56" rx="1.5" fill="#0ecb81" /><line x1="222.28" y1="382.15" x2="222.28" y2="404.12" stroke="#0ecb81" stroke-width="1.4" /><rect x="219.28" y="394.47" width="6" height="7.95" rx="1.5" fill="#0ecb81" /><line x1="233.01" y1="381.67" x2="233.01" y2="413.30" stroke="#0ecb81" stroke-width="1.4" /><rect x="230.01" y="382.96" width="6" height="11.55" rx="1.5" fill="#0ecb81" /><line x1="243.75" y1="369.70" x2="243.75" y2="393.08" stroke="#0ecb81" stroke-width="1.4" /><rect x="240.75" y="373.62" width="6" height="9.23" rx="1.5" fill="#0ecb81" /><line x1="254.48" y1="369.52" x2="254.48" y2="442.37" stroke="#f6465d" stroke-width="1.4" /><rect x="251.48" y="373.54" width="6" height="66.15" rx="1.5" fill="#f6465d" /><line x1="265.22" y1="416.55" x2="265.22" y2="443.16" stroke="#0ecb81" stroke-width="1.4" /><rect x="262.22" y="420.17" width="6" height="19.46" rx="1.5" fill="#0ecb81" /><line x1="275.95" y1="414.13" x2="275.95" y2="431.53" stroke="#f6465d" stroke-width="1.4" /><rect x="272.95" y="420.11" width="6" height="9.29" rx="1.5" fill="#f6465d" /><line x1="286.68" y1="416.37" x2="286.68" y2="430.00" stroke="#0ecb81" stroke-width="1.4" /><rect x="283.68" y="422.47" width="6" height="6.94" rx="1.5" fill="#0ecb81" /><line x1="297.42" y1="418.59" x2="297.42" y2="434.13" stroke="#f6465d" stroke-width="1.4" /><rect x="294.42" y="422.45" width="6" height="3.03" rx="1.5" fill="#f6465d" /><line x1="308.15" y1="420.19" x2="308.15" y2="431.85" stroke="#0ecb81" stroke-width="1.4" /><rect x="305.15" y="421.56" width="6" height="3.96" rx="1.5" fill="#0ecb81" /><line x1="318.89" y1="420.55" x2="318.89" y2="439.26" stroke="#f6465d" stroke-width="1.4" /><rect x="315.89" y="421.54" width="6" height="7.09" rx="1.5" fill="#f6465d" /><line x1="329.62" y1="417.42" x2="329.62" y2="445.40" stroke="#0ecb81" stroke-width="1.4" /><rect x="326.62" y="420.00" width="6" height="8.64" rx="1.5" fill="#0ecb81" /><line x1="340.35" y1="415.64" x2="340.35" y2="425.96" stroke="#0ecb81" stroke-width="1.4" /><rect x="337.35" y="418.15" width="6" height="2.00" rx="1.5" fill="#0ecb81" /><line x1="351.09" y1="410.09" x2="351.09" y2="429.96" stroke="#f6465d" stroke-width="1.4" /><rect x="348.09" y="418.11" width="6" height="4.97" rx="1.5" fill="#f6465d" /><line x1="361.82" y1="418.59" x2="361.82" y2="427.21" stroke="#f6465d" stroke-width="1.4" /><rect x="358.82" y="422.99" width="6" height="2.28" rx="1.5" fill="#f6465d" /><line x1="372.56" y1="423.19" x2="372.56" y2="432.28" stroke="#0ecb81" stroke-width="1.4" /><rect x="369.56" y="425.17" width="6" height="2.00" rx="1.5" fill="#0ecb81" /><line x1="383.29" y1="419.76" x2="383.29" y2="426.85" stroke="#0ecb81" stroke-width="1.4" /><rect x="380.29" y="420.57" width="6" height="4.66" rx="1.5" fill="#0ecb81" /><line x1="394.03" y1="409.12" x2="394.03" y2="423.54" stroke="#0ecb81" stroke-width="1.4" /><rect x="391.03" y="410.23" width="6" height="10.23" rx="1.5" fill="#0ecb81" /><line x1="404.76" y1="406.54" x2="404.76" y2="417.06" stroke="#0ecb81" stroke-width="1.4" /><rect x="401.76" y="409.37" width="6" height="2.00" rx="1.5" fill="#0ecb81" /><line x1="415.49" y1="408.70" x2="415.49" y2="427.21" stroke="#f6465d" stroke-width="1.4" /><rect x="412.49" y="409.39" width="6" height="12.46" rx="1.5" fill="#f6465d" /><line x1="426.23" y1="415.10" x2="426.23" y2="423.34" stroke="#0ecb81" stroke-width="1.4" /><rect x="423.23" y="416.11" width="6" height="5.69" rx="1.5" fill="#0ecb81" /><line x1="436.96" y1="415.95" x2="436.96" y2="422.77" stroke="#f6465d" stroke-width="1.4" /><rect x="433.96" y="416.13" width="6" height="4.04" rx="1.5" fill="#f6465d" /><line x1="447.70" y1="418.87" x2="447.70" y2="423.88" stroke="#f6465d" stroke-width="1.4" /><rect x="444.70" y="420.19" width="6" height="2.00" rx="1.5" fill="#f6465d" /><line x1="458.43" y1="419.68" x2="458.43" y2="426.02" stroke="#f6465d" stroke-width="1.4" /><rect x="455.43" y="420.75" width="6" height="2.00" rx="1.5" fill="#f6465d" /><line x1="469.16" y1="421.44" x2="469.16" y2="427.76" stroke="#f6465d" stroke-width="1.4" /><rect x="466.16" y="421.96" width="6" height="2.93" rx="1.5" fill="#f6465d" /><line x1="479.90" y1="422.45" x2="479.90" y2="427.82" stroke="#f6465d" stroke-width="1.4" /><rect x="476.90" y="424.91" width="6" height="2.00" rx="1.5" fill="#f6465d" /><line x1="490.63" y1="424.71" x2="490.63" y2="437.41" stroke="#f6465d" stroke-width="1.4" /><rect x="487.63" y="426.87" width="6" height="6.98" rx="1.5" fill="#f6465d" /><line x1="501.37" y1="425.58" x2="501.37" y2="452.00" stroke="#0ecb81" stroke-width="1.4" /><rect x="498.37" y="428.40" width="6" height="5.47" rx="1.5" fill="#0ecb81" /><line x1="512.10" y1="427.05" x2="512.10" y2="441.64" stroke="#f6465d" stroke-width="1.4" /><rect x="509.10" y="428.38" width="6" height="5.51" rx="1.5" fill="#f6465d" /><line x1="522.84" y1="422.99" x2="522.84" y2="439.32" stroke="#0ecb81" stroke-width="1.4" /><rect x="519.84" y="431.87" width="6" height="2.00" rx="1.5" fill="#0ecb81" /><line x1="533.57" y1="427.05" x2="533.57" y2="434.66" stroke="#0ecb81" stroke-width="1.4" /><rect x="530.57" y="428.06" width="6" height="3.82" rx="1.5" fill="#0ecb81" /><line x1="544.30" y1="427.01" x2="544.30" y2="437.08" stroke="#f6465d" stroke-width="1.4" /><rect x="541.30" y="428.06" width="6" height="3.05" rx="1.5" fill="#f6465d" /><line x1="555.04" y1="427.86" x2="555.04" y2="434.38" stroke="#0ecb81" stroke-width="1.4" /><rect x="552.04" y="430.56" width="6" height="2.00" rx="1.5" fill="#0ecb81" /><line x1="565.77" y1="430.12" x2="565.77" y2="436.44" stroke="#f6465d" stroke-width="1.4" /><rect x="562.77" y="430.56" width="6" height="2.00" rx="1.5" fill="#f6465d" /><line x1="576.51" y1="430.46" x2="576.51" y2="435.14" stroke="#f6465d" stroke-width="1.4" /><rect x="573.51" y="431.75" width="6" height="2.00" rx="1.5" fill="#f6465d" /><line x1="587.24" y1="430.76" x2="587.24" y2="437.79" stroke="#f6465d" stroke-width="1.4" /><rect x="584.24" y="433.69" width="6" height="2.14" rx="1.5" fill="#f6465d" /><line x1="597.97" y1="435.49" x2="597.97" y2="443.95" stroke="#f6465d" stroke-width="1.4" /><rect x="594.97" y="435.83" width="6" height="4.10" rx="1.5" fill="#f6465d" /><line x1="608.71" y1="435.61" x2="608.71" y2="442.21" stroke="#0ecb81" stroke-width="1.4" /><rect x="605.71" y="438.35" width="6" height="2.00" rx="1.5" fill="#0ecb81" /><line x1="619.44" y1="430.14" x2="619.44" y2="439.02" stroke="#0ecb81" stroke-width="1.4" /><rect x="616.44" y="434.48" width="6" height="3.88" rx="1.5" fill="#0ecb81" /><line x1="630.18" y1="432.56" x2="630.18" y2="436.29" stroke="#f6465d" stroke-width="1.4" /><rect x="627.18" y="434.42" width="6" height="2.00" rx="1.5" fill="#f6465d" /><line x1="640.91" y1="431.89" x2="640.91" y2="438.92" stroke="#f6465d" stroke-width="1.4" /><rect x="637.91" y="435.75" width="6" height="2.50" rx="1.5" fill="#f6465d" /><line x1="651.65" y1="436.82" x2="651.65" y2="442.13" stroke="#f6465d" stroke-width="1.4" /><rect x="648.65" y="438.31" width="6" height="2.00" rx="1.5" fill="#f6465d" /><line x1="662.38" y1="433.53" x2="662.38" y2="442.15" stroke="#0ecb81" stroke-width="1.4" /><rect x="659.38" y="433.93" width="6" height="5.93" rx="1.5" fill="#0ecb81" /><line x1="673.11" y1="432.48" x2="673.11" y2="437.83" stroke="#0ecb81" stroke-width="1.4" /><rect x="670.11" y="433.39" width="6" height="2.00" rx="1.5" fill="#0ecb81" /><line x1="683.85" y1="431.57" x2="683.85" y2="435.79" stroke="#0ecb81" stroke-width="1.4" /><rect x="680.85" y="432.14" width="6" height="2.00" rx="1.5" fill="#0ecb81" /><line x1="694.58" y1="424.85" x2="694.58" y2="435.10" stroke="#0ecb81" stroke-width="1.4" /><rect x="691.58" y="431.01" width="6" height="2.00" rx="1.5" fill="#0ecb81" /><line x1="705.32" y1="431.01" x2="705.32" y2="437.22" stroke="#f6465d" stroke-width="1.4" /><rect x="702.32" y="431.01" width="6" height="3.45" rx="1.5" fill="#f6465d" /><line x1="716.05" y1="434.30" x2="716.05" y2="437.45" stroke="#f6465d" stroke-width="1.4" /><rect x="713.05" y="434.38" width="6" height="2.00" rx="1.5" fill="#f6465d" /><line x1="726.78" y1="433.57" x2="726.78" y2="437.83" stroke="#0ecb81" stroke-width="1.4" /><rect x="723.78" y="434.92" width="6" height="2.00" rx="1.5" fill="#0ecb81" /><line x1="737.52" y1="431.39" x2="737.52" y2="435.93" stroke="#0ecb81" stroke-width="1.4" /><rect x="734.52" y="432.34" width="6" height="2.62" rx="1.5" fill="#0ecb81" /><line x1="748.25" y1="426.28" x2="748.25" y2="434.80" stroke="#0ecb81" stroke-width="1.4" /><rect x="745.25" y="427.19" width="6" height="5.15" rx="1.5" fill="#0ecb81" /><line x1="758.99" y1="418.23" x2="758.99" y2="429.17" stroke="#0ecb81" stroke-width="1.4" /><rect x="755.99" y="422.37" width="6" height="4.82" rx="1.5" fill="#0ecb81" /><line x1="769.72" y1="420.29" x2="769.72" y2="428.85" stroke="#f6465d" stroke-width="1.4" /><rect x="766.72" y="422.37" width="6" height="2.00" rx="1.5" fill="#f6465d" /><line x1="780.46" y1="406.08" x2="780.46" y2="424.06" stroke="#0ecb81" stroke-width="1.4" /><rect x="777.46" y="413.71" width="6" height="9.95" rx="1.5" fill="#0ecb81" /><line x1="791.19" y1="400.34" x2="791.19" y2="416.01" stroke="#0ecb81" stroke-width="1.4" /><rect x="788.19" y="402.48" width="6" height="11.20" rx="1.5" fill="#0ecb81" /><line x1="801.92" y1="397.05" x2="801.92" y2="409.43" stroke="#f6465d" stroke-width="1.4" /><rect x="798.92" y="402.70" width="6" height="4.20" rx="1.5" fill="#f6465d" /><line x1="812.66" y1="384.52" x2="812.66" y2="406.90" stroke="#0ecb81" stroke-width="1.4" /><rect x="809.66" y="393.78" width="6" height="13.12" rx="1.5" fill="#0ecb81" /><line x1="823.39" y1="390.15" x2="823.39" y2="401.37" stroke="#f6465d" stroke-width="1.4" /><rect x="820.39" y="393.76" width="6" height="7.13" rx="1.5" fill="#f6465d" /><line x1="834.13" y1="383.99" x2="834.13" y2="403.69" stroke="#0ecb81" stroke-width="1.4" /><rect x="831.13" y="389.64" width="6" height="11.26" rx="1.5" fill="#0ecb81" /><line x1="844.86" y1="380.28" x2="844.86" y2="390.07" stroke="#0ecb81" stroke-width="1.4" /><rect x="841.86" y="381.75" width="6" height="7.89" rx="1.5" fill="#0ecb81" /><line x1="855.59" y1="374.58" x2="855.59" y2="385.28" stroke="#0ecb81" stroke-width="1.4" /><rect x="852.59" y="378.54" width="6" height="3.19" rx="1.5" fill="#0ecb81" /><line x1="866.33" y1="374.67" x2="866.33" y2="383.61" stroke="#0ecb81" stroke-width="1.4" /><rect x="863.33" y="375.78" width="6" height="2.75" rx="1.5" fill="#0ecb81" /><line x1="877.06" y1="364.01" x2="877.06" y2="375.92" stroke="#0ecb81" stroke-width="1.4" /><rect x="874.06" y="366.37" width="6" height="9.41" rx="1.5" fill="#0ecb81" /><line x1="887.80" y1="366.21" x2="887.80" y2="401.98" stroke="#f6465d" stroke-width="1.4" /><rect x="884.80" y="366.33" width="6" height="29.19" rx="1.5" fill="#f6465d" /><line x1="898.53" y1="386.05" x2="898.53" y2="407.43" stroke="#f6465d" stroke-width="1.4" /><rect x="895.53" y="395.62" width="6" height="5.73" rx="1.5" fill="#f6465d" /><line x1="909.27" y1="391.40" x2="909.27" y2="409.06" stroke="#0ecb81" stroke-width="1.4" /><rect x="906.27" y="396.39" width="6" height="4.97" rx="1.5" fill="#0ecb81" /><line x1="920.00" y1="394.00" x2="920.00" y2="401.49" stroke="#f6465d" stroke-width="1.4" /><rect x="917.00" y="396.41" width="6" height="5.09" rx="1.5" fill="#f6465d" />
  <polyline points="522.84,422.99 597.97,443.95 619.44,430.14 662.38,442.15 694.58,424.85" fill="none" stroke="#2fc273" stroke-width="4" stroke-linecap="round" stroke-linejoin="round" />
  <circle cx="522.84" cy="422.99" r="5.5" fill="#2fc273" fill-opacity="0.15" stroke="#2fc273" stroke-width="2" /><text x="522.84" y="410.99" fill="#f3f4f6" font-size="15" font-weight="700" text-anchor="middle">X</text><circle cx="597.97" cy="443.95" r="5.5" fill="#2fc273" fill-opacity="0.15" stroke="#2fc273" stroke-width="2" /><text x="597.97" y="431.95" fill="#f3f4f6" font-size="15" font-weight="700" text-anchor="middle">A</text><circle cx="619.44" cy="430.14" r="5.5" fill="#2fc273" fill-opacity="0.15" stroke="#2fc273" stroke-width="2" /><text x="619.44" y="418.14" fill="#f3f4f6" font-size="15" font-weight="700" text-anchor="middle">B</text><circle cx="662.38" cy="442.15" r="5.5" fill="#2fc273" fill-opacity="0.15" stroke="#2fc273" stroke-width="2" /><text x="662.38" y="430.15" fill="#f3f4f6" font-size="15" font-weight="700" text-anchor="middle">C</text><circle cx="694.58" cy="424.85" r="5.5" fill="#2fc273" fill-opacity="0.15" stroke="#2fc273" stroke-width="2" /><text x="694.58" y="412.85" fill="#f3f4f6" font-size="15" font-weight="700" text-anchor="middle">D</text>
  <text x="56" y="492" fill="#8ba0b5" font-size="18">Realtime Touch · TP1 0.14141 · TP2 0.13938 · SL 0.14603</text>
</svg>
