<svg xmlns="http://www.w3.org/2000/svg" width="960" height="540" viewBox="0 0 960 540">
  <rect width="960" height="540" rx="24" fill="#0b1220" />
  <rect x="28" y="28" width="904" height="484" rx="22" fill="#111827" stroke="#1f2937" />
  <text x="56" y="74" fill="#f3f4f6" font-size="34" font-weight="700">BCHUSDT · AB=CD</text>
  <text x="904" y="74" fill="#8ba0b5" font-size="20" text-anchor="end">Bearish (매도) · Score 81.1</text>
  <line x1="72" y1="58" x2="920" y2="58" stroke="#223045" stroke-width="1" stroke-dasharray="4 8" /><line x1="72" y1="156" x2="920" y2="156" stroke="#223045" stroke-width="1" stroke-dasharray="4 8" /><line x1="72" y1="255" x2="920" y2="255" stroke="#223045" stroke-width="1" stroke-dasharray="4 8" /><line x1="72" y1="353" x2="920" y2="353" stroke="#223045" stroke-width="1" stroke-dasharray="4 8" /><line x1="72" y1="452" x2="920" y2="452" stroke="#223045" stroke-width="1" stroke-dasharray="4 8" />
  <rect x="838.33" y="275.83" width="84" height="70.95" fill="#fbbf24" fill-opacity="0.12" stroke="#fbbf24" stroke-width="1.5" stroke-dasharray="6 6" />
  <line x1="72.00" y1="85.81" x2="72.00" y2="104.35" stroke="#f6465d" stroke-width="1.4" /><rect x="69.00" y="96.41" width="6" height="7.95" rx="1.5" fill="#f6465d" /><line x1="82.73" y1="99.06" x2="82.73" y2="111.31" stroke="#0ecb81" stroke-width="1.4" /><rect x="79.73" y="102.04" width="6" height="2.65" rx="1.5" fill="#0ecb81" /><line x1="93.47" y1="82.50" x2="93.47" y2="101.70" stroke="#0ecb81" stroke-width="1.4" /><rect x="90.47" y="82.50" width="6" height="19.20" rx="1.5" fill="#0ecb81" /><line x1="104.20" y1="75.88" x2="104.20" y2="95.74" stroke="#f6465d" stroke-width="1.4" /><rect x="101.20" y="82.83" width="6" height="3.64" rx="1.5" fill="#f6465d" /><line x1="114.94" y1="83.49" x2="114.94" y2="93.10" stroke="#f6465d" stroke-width="1.4" /><rect x="111.94" y="86.47" width="6" height="6.29" rx="1.5" fill="#f6465d" /><line x1="125.67" y1="84.49" x2="125.67" y2="93.43" stroke="#0ecb81" stroke-width="1.4" /><rect x="122.67" y="90.45" width="6" height="2.00" rx="1.5" fill="#0ecb81" /><line x1="136.41" y1="82.83" x2="136.41" y2="98.72" stroke="#f6465d" stroke-width="1.4" /><rect x="133.41" y="90.45" width="6" height="8.28" rx="1.5" fill="#f6465d" /><line x1="147.14" y1="93.10" x2="147.14" y2="98.72" stroke="#0ecb81" stroke-width="1.4" /><rect x="144.14" y="94.09" width="6" height="4.30" rx="1.5" fill="#0ecb81" /><line x1="157.87" y1="84.82" x2="157.87" y2="99.06" stroke="#0ecb81" stroke-width="1.4" /><rect x="154.87" y="84.82" width="6" height="9.27" rx="1.5" fill="#0ecb81" /><line x1="168.61" y1="81.18" x2="168.61" y2="85.15" stroke="#0ecb81" stroke-width="1.4" /><rect x="165.61" y="83.49" width="6" height="2.00" rx="1.5" fill="#0ecb81" /><line x1="179.34" y1="83.49" x2="179.34" y2="103.03" stroke="#f6465d" stroke-width="1.4" /><rect x="176.34" y="83.49" width="6" height="15.56" rx="1.5" fill="#f6465d" /><line x1="190.08" y1="98.72" x2="190.08" y2="107.00" stroke="#f6465d" stroke-width="1.4" /><rect x="187.08" y="99.06" width="6" height="6.29" rx="1.5" fill="#f6465d" /><line x1="200.81" y1="95.41" x2="200.81" y2="106.01" stroke="#0ecb81" stroke-width="1.4" /><rect x="197.81" y="98.06" width="6" height="7.28" rx="1.5" fill="#0ecb81" /><line x1="211.54" y1="97.73" x2="211.54" y2="107.33" stroke="#f6465d" stroke-width="1.4" /><rect x="208.54" y="98.06" width="6" height="4.30" rx="1.5" fill="#f6465d" /><line x1="222.28" y1="98.39" x2="222.28" y2="103.69" stroke="#0ecb81" stroke-width="1.4" /><rect x="219.28" y="101.37" width="6" height="2.00" rx="1.5" fill="#0ecb81" /><line x1="233.01" y1="83.16" x2="233.01" y2="106.34" stroke="#0ecb81" stroke-width="1.4" /><rect x="230.01" y="86.14" width="6" height="14.90" rx="1.5" fill="#0ecb81" /><line x1="243.75" y1="71.24" x2="243.75" y2="100.38" stroke="#f6465d" stroke-width="1.4" /><rect x="240.75" y="85.81" width="6" height="2.00" rx="1.5" fill="#f6465d" /><line x1="254.48" y1="86.14" x2="254.48" y2="113.29" stroke="#f6465d" stroke-width="1.4" /><rect x="251.48" y="86.14" width="6" height="20.20" rx="1.5" fill="#f6465d" /><line x1="265.22" y1="104.02" x2="265.22" y2="113.95" stroke="#0ecb81" stroke-width="1.4" /><rect x="262.22" y="105.68" width="6" height="2.00" rx="1.5" fill="#0ecb81" /><line x1="275.95" y1="95.08" x2="275.95" y2="114.95" stroke="#0ecb81" stroke-width="1.4" /><rect x="272.95" y="100.71" width="6" height="5.30" rx="1.5" fill="#0ecb81" /><line x1="286.68" y1="66.61" x2="286.68" y2="100.38" stroke="#0ecb81" stroke-width="1.4" /><rect x="283.68" y="76.87" width="6" height="23.51" rx="1.5" fill="#0ecb81" /><line x1="297.42" y1="73.23" x2="297.42" y2="83.16" stroke="#f6465d" stroke-width="1.4" /><rect x="294.42" y="76.87" width="6" height="2.00" rx="1.5" fill="#f6465d" /><line x1="308.15" y1="74.22" x2="308.15" y2="81.84" stroke="#f6465d" stroke-width="1.4" /><rect x="305.15" y="78.53" width="6" height="2.98" rx="1.5" fill="#f6465d" /><line x1="318.89" y1="74.89" x2="318.89" y2="82.50" stroke="#0ecb81" stroke-width="1.4" /><rect x="315.89" y="76.21" width="6" height="5.30" rx="1.5" fill="#0ecb81" /><line x1="329.62" y1="74.89" x2="329.62" y2="80.51" stroke="#f6465d" stroke-width="1.4" /><rect x="326.62" y="75.88" width="6" height="2.00" rx="1.5" fill="#f6465d" /><line x1="340.35" y1="72.24" x2="340.35" y2="77.20" stroke="#0ecb81" stroke-width="1.4" /><rect x="337.35" y="75.55" width="6" height="2.00" rx="1.5" fill="#0ecb81" /><line x1="351.09" y1="73.56" x2="351.09" y2="78.86" stroke="#f6465d" stroke-width="1.4" /><rect x="348.09" y="75.55" width="6" height="2.00" rx="1.5" fill="#f6465d" /><line x1="361.82" y1="74.89" x2="361.82" y2="85.15" stroke="#f6465d" stroke-width="1.4" /><rect x="358.82" y="77.20" width="6" height="5.96" rx="1.5" fill="#f6465d" /><line x1="372.56" y1="73.23" x2="372.56" y2="83.49" stroke="#0ecb81" stroke-width="1.4" /><rect x="369.56" y="74.55" width="6" height="8.61" rx="1.5" fill="#0ecb81" /><line x1="383.29" y1="74.22" x2="383.29" y2="97.07" stroke="#f6465d" stroke-width="1.4" /><rect x="380.29" y="74.22" width="6" height="22.18" rx="1.5" fill="#f6465d" /><line x1="394.03" y1="95.08" x2="394.03" y2="99.72" stroke="#0ecb81" stroke-width="1.4" /><rect x="391.03" y="95.08" width="6" height="2.00" rx="1.5" fill="#0ecb81" /><line x1="404.76" y1="87.47" x2="404.76" y2="95.74" stroke="#0ecb81" stroke-width="1.4" /><rect x="401.76" y="93.76" width="6" height="2.00" rx="1.5" fill="#0ecb81" /><line x1="415.49" y1="79.52" x2="415.49" y2="93.76" stroke="#0ecb81" stroke-width="1.4" /><rect x="412.49" y="79.52" width="6" height="13.91" rx="1.5" fill="#0ecb81" /><line x1="426.23" y1="80.51" x2="426.23" y2="88.79" stroke="#f6465d" stroke-width="1.4" /><rect x="423.23" y="80.51" width="6" height="6.29" rx="1.5" fill="#f6465d" /><line x1="436.96" y1="58.00" x2="436.96" y2="86.81" stroke="#0ecb81" stroke-width="1.4" /><rect x="433.96" y="78.53" width="6" height="7.95" rx="1.5" fill="#0ecb81" /><line x1="447.70" y1="78.20" x2="447.70" y2="85.15" stroke="#f6465d" stroke-width="1.4" /><rect x="444.70" y="78.53" width="6" height="2.00" rx="1.5" fill="#f6465d" /><line x1="458.43" y1="79.85" x2="458.43" y2="99.72" stroke="#f6465d" stroke-width="1.4" /><rect x="455.43" y="80.18" width="6" height="19.53" rx="1.5" fill="#f6465d" /><line x1="469.16" y1="98.39" x2="469.16" y2="103.36" stroke="#f6465d" stroke-width="1.4" /><rect x="466.16" y="99.72" width="6" height="2.00" rx="1.5" fill="#f6465d" /><line x1="479.90" y1="99.39" x2="479.90" y2="107.00" stroke="#f6465d" stroke-width="1.4" /><rect x="476.90" y="101.04" width="6" height="5.96" rx="1.5" fill="#f6465d" /><line x1="490.63" y1="99.39" x2="490.63" y2="108.33" stroke="#0ecb81" stroke-width="1.4" /><rect x="487.63" y="104.35" width="6" height="2.65" rx="1.5" fill="#0ecb81" /><line x1="501.37" y1="100.05" x2="501.37" y2="108.99" stroke="#f6465d" stroke-width="1.4" /><rect x="498.37" y="104.02" width="6" height="4.64" rx="1.5" fill="#f6465d" /><line x1="512.10" y1="94.42" x2="512.10" y2="109.98" stroke="#0ecb81" stroke-width="1.4" /><rect x="509.10" y="107.33" width="6" height="2.00" rx="1.5" fill="#0ecb81" /><line x1="522.84" y1="107.33" x2="522.84" y2="113.29" stroke="#f6465d" stroke-width="1.4" /><rect x="519.84" y="107.33" width="6" height="5.63" rx="1.5" fill="#f6465d" /><line x1="533.57" y1="110.31" x2="533.57" y2="113.62" stroke="#0ecb81" stroke-width="1.4" /><rect x="530.57" y="112.63" width="6" height="2.00" rx="1.5" fill="#0ecb81" /><line x1="544.30" y1="112.30" x2="544.30" y2="146.40" stroke="#f6465d" stroke-width="1.4" /><rect x="541.30" y="112.63" width="6" height="26.16" rx="1.5" fill="#f6465d" /><line x1="555.04" y1="136.14" x2="555.04" y2="153.35" stroke="#f6465d" stroke-width="1.4" /><rect x="552.04" y="138.46" width="6" height="13.24" rx="1.5" fill="#f6465d" /><line x1="565.77" y1="150.71" x2="565.77" y2="167.26" stroke="#f6465d" stroke-width="1.4" /><rect x="562.77" y="151.70" width="6" height="13.57" rx="1.5" fill="#f6465d" /><line x1="576.51" y1="161.63" x2="576.51" y2="185.47" stroke="#f6465d" stroke-width="1.4" /><rect x="573.51" y="164.94" width="6" height="12.58" rx="1.5" fill="#f6465d" /><line x1="587.24" y1="161.96" x2="587.24" y2="186.46" stroke="#0ecb81" stroke-width="1.4" /><rect x="584.24" y="172.56" width="6" height="4.97" rx="1.5" fill="#0ecb81" /><line x1="597.97" y1="170.90" x2="597.97" y2="184.15" stroke="#f6465d" stroke-width="1.4" /><rect x="594.97" y="172.89" width="6" height="2.00" rx="1.5" fill="#f6465d" /><line x1="608.71" y1="166.60" x2="608.71" y2="179.51" stroke="#0ecb81" stroke-width="1.4" /><rect x="605.71" y="171.23" width="6" height="3.31" rx="1.5" fill="#0ecb81" /><line x1="619.44" y1="167.92" x2="619.44" y2="201.69" stroke="#f6465d" stroke-width="1.4" /><rect x="616.44" y="170.90" width="6" height="2.00" rx="1.5" fill="#f6465d" /><line x1="630.18" y1="165.27" x2="630.18" y2="195.40" stroke="#f6465d" stroke-width="1.4" /><rect x="627.18" y="172.56" width="6" height="12.25" rx="1.5" fill="#f6465d" /><line x1="640.91" y1="164.94" x2="640.91" y2="190.77" stroke="#0ecb81" stroke-width="1.4" /><rect x="637.91" y="179.51" width="6" height="5.30" rx="1.5" fill="#0ecb81" /><line x1="651.65" y1="178.52" x2="651.65" y2="205.01" stroke="#f6465d" stroke-width="1.4" /><rect x="648.65" y="179.18" width="6" height="23.84" rx="1.5" fill="#f6465d" /><line x1="662.38" y1="202.69" x2="662.38" y2="254.67" stroke="#f6465d" stroke-width="1.4" /><rect x="659.38" y="202.69" width="6" height="37.74" rx="1.5" fill="#f6465d" /><line x1="673.11" y1="238.45" x2="673.11" y2="308.64" stroke="#f6465d" stroke-width="1.4" /><rect x="670.11" y="240.76" width="6" height="44.37" rx="1.5" fill="#f6465d" /><line x1="683.85" y1="284.47" x2="683.85" y2="347.04" stroke="#f6465d" stroke-width="1.4" /><rect x="680.85" y="285.13" width="6" height="18.21" rx="1.5" fill="#f6465d" /><line x1="694.58" y1="301.35" x2="694.58" y2="375.52" stroke="#f6465d" stroke-width="1.4" /><rect x="691.58" y="303.34" width="6" height="56.62" rx="1.5" fill="#f6465d" /><line x1="705.32" y1="358.63" x2="705.32" y2="387.77" stroke="#f6465d" stroke-width="1.4" /><rect x="702.32" y="359.63" width="6" height="23.18" rx="1.5" fill="#f6465d" /><line x1="716.05" y1="362.94" x2="716.05" y2="393.73" stroke="#0ecb81" stroke-width="1.4" /><rect x="713.05" y="372.21" width="6" height="10.59" rx="1.5" fill="#0ecb81" /><line x1="726.78" y1="328.17" x2="726.78" y2="378.50" stroke="#0ecb81" stroke-width="1.4" /><rect x="723.78" y="342.74" width="6" height="29.14" rx="1.5" fill="#0ecb81" /><line x1="737.52" y1="329.83" x2="737.52" y2="357.97" stroke="#f6465d" stroke-width="1.4" /><rect x="734.52" y="342.74" width="6" height="10.26" rx="1.5" fill="#f6465d" /><line x1="748.25" y1="349.36" x2="748.25" y2="383.46" stroke="#f6465d" stroke-width="1.4" /><rect x="745.25" y="353.00" width="6" height="29.80" rx="1.5" fill="#f6465d" /><line x1="758.99" y1="378.50" x2="758.99" y2="412.60" stroke="#f6465d" stroke-width="1.4" /><rect x="755.99" y="383.13" width="6" height="2.65" rx="1.5" fill="#f6465d" /><line x1="769.72" y1="385.45" x2="769.72" y2="408.96" stroke="#f6465d" stroke-width="1.4" /><rect x="766.72" y="385.45" width="6" height="4.30" rx="1.5" fill="#f6465d" /><line x1="780.46" y1="373.53" x2="780.46" y2="399.69" stroke="#0ecb81" stroke-width="1.4" /><rect x="777.46" y="373.86" width="6" height="16.55" rx="1.5" fill="#0ecb81" /><line x1="791.19" y1="356.98" x2="791.19" y2="384.79" stroke="#0ecb81" stroke-width="1.4" /><rect x="788.19" y="362.61" width="6" height="10.93" rx="1.5" fill="#0ecb81" /><line x1="801.92" y1="342.41" x2="801.92" y2="388.10" stroke="#f6465d" stroke-width="1.4" /><rect x="798.92" y="362.61" width="6" height="23.18" rx="1.5" fill="#f6465d" /><line x1="812.66" y1="377.50" x2="812.66" y2="405.65" stroke="#f6465d" stroke-width="1.4" /><rect x="809.66" y="385.78" width="6" height="17.55" rx="1.5" fill="#f6465d" /><line x1="823.39" y1="378.83" x2="823.39" y2="404.32" stroke="#0ecb81" stroke-width="1.4" /><rect x="820.39" y="382.47" width="6" height="20.53" rx="1.5" fill="#0ecb81" /><line x1="834.13" y1="376.84" x2="834.13" y2="386.11" stroke="#0ecb81" stroke-width="1.4" /><rect x="831.13" y="377.17" width="6" height="5.63" rx="1.5" fill="#0ecb81" /><line x1="844.86" y1="370.22" x2="844.86" y2="385.45" stroke="#f6465d" stroke-width="1.4" /><rect x="841.86" y="377.17" width="6" height="7.95" rx="1.5" fill="#f6465d" /><line x1="855.59" y1="369.89" x2="855.59" y2="396.38" stroke="#f6465d" stroke-width="1.4" /><rect x="852.59" y="385.12" width="6" height="6.29" rx="1.5" fill="#f6465d" /><line x1="866.33" y1="355.65" x2="866.33" y2="391.08" stroke="#0ecb81" stroke-width="1.4" /><rect x="863.33" y="378.50" width="6" height="12.58" rx="1.5" fill="#0ecb81" /><line x1="877.06" y1="368.90" x2="877.06" y2="396.38" stroke="#0ecb81" stroke-width="1.4" /><rect x="874.06" y="375.85" width="6" height="2.32" rx="1.5" fill="#0ecb81" /><line x1="887.80" y1="371.88" x2="887.80" y2="419.22" stroke="#f6465d" stroke-width="1.4" /><rect x="884.80" y="375.52" width="6" height="36.75" rx="1.5" fill="#f6465d" /><line x1="898.53" y1="399.03" x2="898.53" y2="419.22" stroke="#0ecb81" stroke-width="1.4" /><rect x="895.53" y="409.62" width="6" height="2.65" rx="1.5" fill="#0ecb81" /><line x1="909.27" y1="409.29" x2="909.27" y2="446.70" stroke="#f6465d" stroke-width="1.4" /><rect x="906.27" y="409.62" width="6" height="29.80" rx="1.5" fill="#f6465d" /><line x1="920.00" y1="436.77" x2="920.00" y2="452.00" stroke="#f6465d" stroke-width="1.4" /><rect x="917.00" y="439.09" width="6" height="7.28" rx="1.5" fill="#f6465d" />
  <polyline points="436.96,58.00 758.99,412.60 801.92,342.41 812.66,405.65 866.33,355.65" fill="none" stroke="#2fc273" stroke-width="4" stroke-linecap="round" stroke-linejoin="round" />
  <circle cx="436.96" cy="58.00" r="5.5" fill="#2fc273" fill-opacity="0.15" stroke="#2fc273" stroke-width="2" /><text x="436.96" y="46.00" fill="#f3f4f6" font-size="15" font-weight="700" text-anchor="middle">X</text><circle cx="758.99" cy="412.60" r="5.5" fill="#2fc273" fill-opacity="0.15" stroke="#2fc273" stroke-width="2" /><text x="758.99" y="400.60" fill="#f3f4f6" font-size="15" font-weight="700" text-anchor="middle">A</text><circle cx="801.92" cy="342.41" r="5.5" fill="#2fc273" fill-opacity="0.15" stroke="#2fc273" stroke-width="2" /><text x="801.92" y="330.41" fill="#f3f4f6" font-size="15" font-weight="700" text-anchor="middle">B</text><circle cx="812.66" cy="405.65" r="5.5" fill="#2fc273" fill-opacity="0.15" stroke="#2fc273" stroke-width="2" /><text x="812.66" y="393.65" fill="#f3f4f6" font-size="15" font-weight="700" text-anchor="middle">C</text><circle cx="866.33" cy="355.65" r="5.5" fill="#2fc273" fill-opacity="0.15" stroke="#2fc273" stroke-width="2" /><text x="866.33" y="343.65" fill="#f3f4f6" font-size="15" font-weight="700" text-anchor="middle">D</text>
  <text x="56" y="492" fill="#8ba0b5" font-size="18">일반 완성 · TP1 426.613 · TP2 426.257 · SL 428.582</text>
</svg>
