<svg xmlns="http://www.w3.org/2000/svg" width="960" height="540" viewBox="0 0 960 540">
  <rect width="960" height="540" rx="24" fill="#0b1220" />
  <rect x="28" y="28" width="904" height="484" rx="22" fill="#111827" stroke="#1f2937" />
  <text x="56" y="74" fill="#f3f4f6" font-size="34" font-weight="700">BCHUSDT · AB=CD</text>
  <text x="904" y="74" fill="#8ba0b5" font-size="20" text-anchor="end">Bearish (매도) · Score 87.7</text>
  <line x1="72" y1="58" x2="920" y2="58" stroke="#223045" stroke-width="1" stroke-dasharray="4 8" /><line x1="72" y1="156" x2="920" y2="156" stroke="#223045" stroke-width="1" stroke-dasharray="4 8" /><line x1="72" y1="255" x2="920" y2="255" stroke="#223045" stroke-width="1" stroke-dasharray="4 8" /><line x1="72" y1="353" x2="920" y2="353" stroke="#223045" stroke-width="1" stroke-dasharray="4 8" /><line x1="72" y1="452" x2="920" y2="452" stroke="#223045" stroke-width="1" stroke-dasharray="4 8" />
  <rect x="387.49" y="18.87" width="84" height="84.46" fill="#fbbf24" fill-opacity="0.12" stroke="#fbbf24" stroke-width="1.5" stroke-dasharray="6 6" />
  <line x1="72.00" y1="61.87" x2="72.00" y2="78.92" stroke="#0ecb81" stroke-width="1.4" /><rect x="69.00" y="77.76" width="6" height="2.00" rx="1.5" fill="#0ecb81" /><line x1="82.73" y1="58.00" x2="82.73" y2="83.57" stroke="#0ecb81" stroke-width="1.4" /><rect x="79.73" y="64.97" width="6" height="12.40" rx="1.5" fill="#0ecb81" /><line x1="93.47" y1="63.04" x2="93.47" y2="80.86" stroke="#f6465d" stroke-width="1.4" /><rect x="90.47" y="64.59" width="6" height="7.36" rx="1.5" fill="#f6465d" /><line x1="104.20" y1="68.07" x2="104.20" y2="75.82" stroke="#f6465d" stroke-width="1.4" /><rect x="101.20" y="70.78" width="6" height="5.04" rx="1.5" fill="#f6465d" /><line x1="114.94" y1="66.14" x2="114.94" y2="79.31" stroke="#0ecb81" stroke-width="1.4" /><rect x="111.94" y="73.50" width="6" height="2.32" rx="1.5" fill="#0ecb81" /><line x1="125.67" y1="64.20" x2="125.67" y2="75.05" stroke="#0ecb81" stroke-width="1.4" /><rect x="122.67" y="67.30" width="6" height="6.59" rx="1.5" fill="#0ecb81" /><line x1="136.41" y1="60.32" x2="136.41" y2="82.79" stroke="#f6465d" stroke-width="1.4" /><rect x="133.41" y="67.30" width="6" height="15.50" rx="1.5" fill="#f6465d" /><line x1="147.14" y1="64.59" x2="147.14" y2="85.12" stroke="#0ecb81" stroke-width="1.4" /><rect x="144.14" y="67.30" width="6" height="15.50" rx="1.5" fill="#0ecb81" /><line x1="157.87" y1="62.26" x2="157.87" y2="81.63" stroke="#f6465d" stroke-width="1.4" /><rect x="154.87" y="68.46" width="6" height="13.17" rx="1.5" fill="#f6465d" /><line x1="168.61" y1="68.85" x2="168.61" y2="82.02" stroke="#0ecb81" stroke-width="1.4" /><rect x="165.61" y="69.24" width="6" height="12.78" rx="1.5" fill="#0ecb81" /><line x1="179.34" y1="67.69" x2="179.34" y2="90.16" stroke="#f6465d" stroke-width="1.4" /><rect x="176.34" y="69.24" width="6" height="10.46" rx="1.5" fill="#f6465d" /><line x1="190.08" y1="76.60" x2="190.08" y2="83.18" stroke="#f6465d" stroke-width="1.4" /><rect x="187.08" y="79.31" width="6" height="3.10" rx="1.5" fill="#f6465d" /><line x1="200.81" y1="82.41" x2="200.81" y2="85.12" stroke="#f6465d" stroke-width="1.4" /><rect x="197.81" y="82.79" width="6" height="2.32" rx="1.5" fill="#f6465d" /><line x1="211.54" y1="85.12" x2="211.54" y2="113.40" stroke="#f6465d" stroke-width="1.4" /><rect x="208.54" y="85.12" width="6" height="22.08" rx="1.5" fill="#f6465d" /><line x1="222.28" y1="92.09" x2="222.28" y2="122.70" stroke="#f6465d" stroke-width="1.4" /><rect x="219.28" y="107.59" width="6" height="3.10" rx="1.5" fill="#f6465d" /><line x1="233.01" y1="104.10" x2="233.01" y2="110.69" stroke="#0ecb81" stroke-width="1.4" /><rect x="230.01" y="104.10" width="6" height="6.59" rx="1.5" fill="#0ecb81" /><line x1="243.75" y1="91.71" x2="243.75" y2="113.40" stroke="#f6465d" stroke-width="1.4" /><rect x="240.75" y="104.10" width="6" height="9.30" rx="1.5" fill="#f6465d" /><line x1="254.48" y1="107.20" x2="254.48" y2="121.54" stroke="#0ecb81" stroke-width="1.4" /><rect x="251.48" y="110.69" width="6" height="3.10" rx="1.5" fill="#0ecb81" /><line x1="265.22" y1="87.83" x2="265.22" y2="110.30" stroke="#0ecb81" stroke-width="1.4" /><rect x="262.22" y="87.83" width="6" height="22.47" rx="1.5" fill="#0ecb81" /><line x1="275.95" y1="80.08" x2="275.95" y2="103.33" stroke="#f6465d" stroke-width="1.4" /><rect x="272.95" y="88.22" width="6" height="4.26" rx="1.5" fill="#f6465d" /><line x1="286.68" y1="88.99" x2="286.68" y2="100.23" stroke="#f6465d" stroke-width="1.4" /><rect x="283.68" y="92.48" width="6" height="7.36" rx="1.5" fill="#f6465d" /><line x1="297.42" y1="90.16" x2="297.42" y2="100.62" stroke="#0ecb81" stroke-width="1.4" /><rect x="294.42" y="97.13" width="6" height="2.32" rx="1.5" fill="#0ecb81" /><line x1="308.15" y1="88.22" x2="308.15" y2="106.81" stroke="#f6465d" stroke-width="1.4" /><rect x="305.15" y="97.13" width="6" height="9.69" rx="1.5" fill="#f6465d" /><line x1="318.89" y1="100.23" x2="318.89" y2="106.81" stroke="#0ecb81" stroke-width="1.4" /><rect x="315.89" y="101.39" width="6" height="5.04" rx="1.5" fill="#0ecb81" /><line x1="329.62" y1="90.54" x2="329.62" y2="107.20" stroke="#0ecb81" stroke-width="1.4" /><rect x="326.62" y="90.54" width="6" height="10.85" rx="1.5" fill="#0ecb81" /><line x1="340.35" y1="86.28" x2="340.35" y2="90.93" stroke="#0ecb81" stroke-width="1.4" /><rect x="337.35" y="88.99" width="6" height="2.00" rx="1.5" fill="#0ecb81" /><line x1="351.09" y1="88.99" x2="351.09" y2="111.85" stroke="#f6465d" stroke-width="1.4" /><rect x="348.09" y="88.99" width="6" height="18.21" rx="1.5" fill="#f6465d" /><line x1="361.82" y1="106.81" x2="361.82" y2="116.50" stroke="#f6465d" stroke-width="1.4" /><rect x="358.82" y="107.20" width="6" height="7.36" rx="1.5" fill="#f6465d" /><line x1="372.56" y1="102.94" x2="372.56" y2="115.34" stroke="#0ecb81" stroke-width="1.4" /><rect x="369.56" y="106.04" width="6" height="8.52" rx="1.5" fill="#0ecb81" /><line x1="383.29" y1="105.65" x2="383.29" y2="116.89" stroke="#f6465d" stroke-width="1.4" /><rect x="380.29" y="106.04" width="6" height="5.04" rx="1.5" fill="#f6465d" /><line x1="394.03" y1="106.43" x2="394.03" y2="112.63" stroke="#0ecb81" stroke-width="1.4" /><rect x="391.03" y="109.91" width="6" height="2.00" rx="1.5" fill="#0ecb81" /><line x1="404.76" y1="88.61" x2="404.76" y2="115.72" stroke="#0ecb81" stroke-width="1.4" /><rect x="401.76" y="92.09" width="6" height="17.43" rx="1.5" fill="#0ecb81" /><line x1="415.49" y1="74.66" x2="415.49" y2="108.75" stroke="#f6465d" stroke-width="1.4" /><rect x="412.49" y="91.71" width="6" height="2.00" rx="1.5" fill="#f6465d" /><line x1="426.23" y1="92.09" x2="426.23" y2="123.86" stroke="#f6465d" stroke-width="1.4" /><rect x="423.23" y="92.09" width="6" height="23.63" rx="1.5" fill="#f6465d" /><line x1="436.96" y1="113.01" x2="436.96" y2="124.64" stroke="#0ecb81" stroke-width="1.4" /><rect x="433.96" y="114.95" width="6" height="2.00" rx="1.5" fill="#0ecb81" /><line x1="447.70" y1="102.55" x2="447.70" y2="125.80" stroke="#0ecb81" stroke-width="1.4" /><rect x="444.70" y="109.14" width="6" height="6.20" rx="1.5" fill="#0ecb81" /><line x1="458.43" y1="69.24" x2="458.43" y2="108.75" stroke="#0ecb81" stroke-width="1.4" /><rect x="455.43" y="81.24" width="6" height="27.51" rx="1.5" fill="#0ecb81" /><line x1="469.16" y1="76.98" x2="469.16" y2="88.61" stroke="#f6465d" stroke-width="1.4" /><rect x="466.16" y="81.24" width="6" height="2.00" rx="1.5" fill="#f6465d" /><line x1="479.90" y1="78.15" x2="479.90" y2="87.06" stroke="#f6465d" stroke-width="1.4" /><rect x="476.90" y="83.18" width="6" height="3.49" rx="1.5" fill="#f6465d" /><line x1="490.63" y1="78.92" x2="490.63" y2="87.83" stroke="#0ecb81" stroke-width="1.4" /><rect x="487.63" y="80.47" width="6" height="6.20" rx="1.5" fill="#0ecb81" /><line x1="501.37" y1="78.92" x2="501.37" y2="85.51" stroke="#f6465d" stroke-width="1.4" /><rect x="498.37" y="80.08" width="6" height="2.00" rx="1.5" fill="#f6465d" /><line x1="512.10" y1="75.82" x2="512.10" y2="81.63" stroke="#0ecb81" stroke-width="1.4" /><rect x="509.10" y="79.70" width="6" height="2.00" rx="1.5" fill="#0ecb81" /><line x1="522.84" y1="77.37" x2="522.84" y2="83.57" stroke="#f6465d" stroke-width="1.4" /><rect x="519.84" y="79.70" width="6" height="2.00" rx="1.5" fill="#f6465d" /><line x1="533.57" y1="78.92" x2="533.57" y2="90.93" stroke="#f6465d" stroke-width="1.4" /><rect x="530.57" y="81.63" width="6" height="6.97" rx="1.5" fill="#f6465d" /><line x1="544.30" y1="76.98" x2="544.30" y2="88.99" stroke="#0ecb81" stroke-width="1.4" /><rect x="541.30" y="78.53" width="6" height="10.07" rx="1.5" fill="#0ecb81" /><line x1="555.04" y1="78.15" x2="555.04" y2="104.88" stroke="#f6465d" stroke-width="1.4" /><rect x="552.04" y="78.15" width="6" height="25.96" rx="1.5" fill="#f6465d" /><line x1="565.77" y1="102.55" x2="565.77" y2="107.98" stroke="#0ecb81" stroke-width="1.4" /><rect x="562.77" y="102.55" width="6" height="2.00" rx="1.5" fill="#0ecb81" /><line x1="576.51" y1="93.64" x2="576.51" y2="103.33" stroke="#0ecb81" stroke-width="1.4" /><rect x="573.51" y="101.00" width="6" height="2.32" rx="1.5" fill="#0ecb81" /><line x1="587.24" y1="84.34" x2="587.24" y2="101.00" stroke="#0ecb81" stroke-width="1.4" /><rect x="584.24" y="84.34" width="6" height="16.27" rx="1.5" fill="#0ecb81" /><line x1="597.97" y1="85.51" x2="597.97" y2="95.19" stroke="#f6465d" stroke-width="1.4" /><rect x="594.97" y="85.51" width="6" height="7.36" rx="1.5" fill="#f6465d" /><line x1="608.71" y1="59.16" x2="608.71" y2="92.87" stroke="#0ecb81" stroke-width="1.4" /><rect x="605.71" y="83.18" width="6" height="9.30" rx="1.5" fill="#0ecb81" /><line x1="619.44" y1="82.79" x2="619.44" y2="90.93" stroke="#f6465d" stroke-width="1.4" /><rect x="616.44" y="83.18" width="6" height="2.00" rx="1.5" fill="#f6465d" /><line x1="630.18" y1="84.73" x2="630.18" y2="107.98" stroke="#f6465d" stroke-width="1.4" /><rect x="627.18" y="85.12" width="6" height="22.86" rx="1.5" fill="#f6465d" /><line x1="640.91" y1="106.43" x2="640.91" y2="112.24" stroke="#f6465d" stroke-width="1.4" /><rect x="637.91" y="107.98" width="6" height="2.00" rx="1.5" fill="#f6465d" /><line x1="651.65" y1="107.59" x2="651.65" y2="116.50" stroke="#f6465d" stroke-width="1.4" /><rect x="648.65" y="109.53" width="6" height="6.97" rx="1.5" fill="#f6465d" /><line x1="662.38" y1="107.59" x2="662.38" y2="118.05" stroke="#0ecb81" stroke-width="1.4" /><rect x="659.38" y="113.40" width="6" height="3.10" rx="1.5" fill="#0ecb81" /><line x1="673.11" y1="108.36" x2="673.11" y2="118.82" stroke="#f6465d" stroke-width="1.4" /><rect x="670.11" y="113.01" width="6" height="5.42" rx="1.5" fill="#f6465d" /><line x1="683.85" y1="101.78" x2="683.85" y2="119.99" stroke="#0ecb81" stroke-width="1.4" /><rect x="680.85" y="116.89" width="6" height="2.00" rx="1.5" fill="#0ecb81" /><line x1="694.58" y1="116.89" x2="694.58" y2="123.86" stroke="#f6465d" stroke-width="1.4" /><rect x="691.58" y="116.89" width="6" height="6.59" rx="1.5" fill="#f6465d" /><line x1="705.32" y1="120.37" x2="705.32" y2="124.25" stroke="#0ecb81" stroke-width="1.4" /><rect x="702.32" y="123.09" width="6" height="2.00" rx="1.5" fill="#0ecb81" /><line x1="716.05" y1="122.70" x2="716.05" y2="162.60" stroke="#f6465d" stroke-width="1.4" /><rect x="713.05" y="123.09" width="6" height="30.61" rx="1.5" fill="#f6465d" /><line x1="726.78" y1="150.59" x2="726.78" y2="170.74" stroke="#f6465d" stroke-width="1.4" /><rect x="723.78" y="153.30" width="6" height="15.50" rx="1.5" fill="#f6465d" /><line x1="737.52" y1="167.64" x2="737.52" y2="187.01" stroke="#f6465d" stroke-width="1.4" /><rect x="734.52" y="168.80" width="6" height="15.88" rx="1.5" fill="#f6465d" /><line x1="748.25" y1="180.42" x2="748.25" y2="208.32" stroke="#f6465d" stroke-width="1.4" /><rect x="745.25" y="184.30" width="6" height="14.72" rx="1.5" fill="#f6465d" /><line x1="758.99" y1="180.81" x2="758.99" y2="209.48" stroke="#0ecb81" stroke-width="1.4" /><rect x="755.99" y="193.21" width="6" height="5.81" rx="1.5" fill="#0ecb81" /><line x1="769.72" y1="191.27" x2="769.72" y2="206.77" stroke="#f6465d" stroke-width="1.4" /><rect x="766.72" y="193.59" width="6" height="2.00" rx="1.5" fill="#f6465d" /><line x1="780.46" y1="186.23" x2="780.46" y2="201.34" stroke="#0ecb81" stroke-width="1.4" /><rect x="777.46" y="191.66" width="6" height="3.87" rx="1.5" fill="#0ecb81" /><line x1="791.19" y1="187.78" x2="791.19" y2="227.30" stroke="#f6465d" stroke-width="1.4" /><rect x="788.19" y="191.27" width="6" height="2.32" rx="1.5" fill="#f6465d" /><line x1="801.92" y1="184.68" x2="801.92" y2="219.94" stroke="#f6465d" stroke-width="1.4" /><rect x="798.92" y="193.21" width="6" height="14.33" rx="1.5" fill="#f6465d" /><line x1="812.66" y1="184.30" x2="812.66" y2="214.52" stroke="#0ecb81" stroke-width="1.4" /><rect x="809.66" y="201.34" width="6" height="6.20" rx="1.5" fill="#0ecb81" /><line x1="823.39" y1="200.18" x2="823.39" y2="231.17" stroke="#f6465d" stroke-width="1.4" /><rect x="820.39" y="200.96" width="6" height="27.89" rx="1.5" fill="#f6465d" /><line x1="834.13" y1="228.46" x2="834.13" y2="289.29" stroke="#f6465d" stroke-width="1.4" /><rect x="831.13" y="228.46" width="6" height="44.17" rx="1.5" fill="#f6465d" /><line x1="844.86" y1="270.30" x2="844.86" y2="352.43" stroke="#f6465d" stroke-width="1.4" /><rect x="841.86" y="273.01" width="6" height="51.91" rx="1.5" fill="#f6465d" /><line x1="855.59" y1="324.15" x2="855.59" y2="397.37" stroke="#f6465d" stroke-width="1.4" /><rect x="852.59" y="324.93" width="6" height="21.31" rx="1.5" fill="#f6465d" /><line x1="866.33" y1="343.91" x2="866.33" y2="430.69" stroke="#f6465d" stroke-width="1.4" /><rect x="863.33" y="346.24" width="6" height="66.25" rx="1.5" fill="#f6465d" /><line x1="877.06" y1="410.93" x2="877.06" y2="445.03" stroke="#f6465d" stroke-width="1.4" /><rect x="874.06" y="412.10" width="6" height="27.12" rx="1.5" fill="#f6465d" /><line x1="887.80" y1="415.97" x2="887.80" y2="452.00" stroke="#0ecb81" stroke-width="1.4" /><rect x="884.80" y="426.82" width="6" height="12.40" rx="1.5" fill="#0ecb81" /><line x1="898.53" y1="375.29" x2="898.53" y2="434.18" stroke="#0ecb81" stroke-width="1.4" /><rect x="895.53" y="392.34" width="6" height="34.09" rx="1.5" fill="#0ecb81" /><line x1="909.27" y1="377.23" x2="909.27" y2="410.16" stroke="#f6465d" stroke-width="1.4" /><rect x="906.27" y="392.34" width="6" height="12.01" rx="1.5" fill="#f6465d" /><line x1="920.00" y1="400.09" x2="920.00" y2="410.16" stroke="#f6465d" stroke-width="1.4" /><rect x="917.00" y="404.35" width="6" height="5.04" rx="1.5" fill="#f6465d" />
  <polyline points="82.73,58.00 222.28,122.70 275.95,80.08 383.29,116.89 415.49,74.66" fill="none" stroke="#2fc273" stroke-width="4" stroke-linecap="round" stroke-linejoin="round" />
  <circle cx="82.73" cy="58.00" r="5.5" fill="#2fc273" fill-opacity="0.15" stroke="#2fc273" stroke-width="2" /><text x="82.73" y="46.00" fill="#f3f4f6" font-size="15" font-weight="700" text-anchor="middle">X</text><circle cx="222.28" cy="122.70" r="5.5" fill="#2fc273" fill-opacity="0.15" stroke="#2fc273" stroke-width="2" /><text x="222.28" y="110.70" fill="#f3f4f6" font-size="15" font-weight="700" text-anchor="middle">A</text><circle cx="275.95" cy="80.08" r="5.5" fill="#2fc273" fill-opacity="0.15" stroke="#2fc273" stroke-width="2" /><text x="275.95" y="68.08" fill="#f3f4f6" font-size="15" font-weight="700" text-anchor="middle">B</text><circle cx="383.29" cy="116.89" r="5.5" fill="#2fc273" fill-opacity="0.15" stroke="#2fc273" stroke-width="2" /><text x="383.29" y="104.89" fill="#f3f4f6" font-size="15" font-weight="700" text-anchor="middle">C</text><circle cx="415.49" cy="74.66" r="5.5" fill="#2fc273" fill-opacity="0.15" stroke="#2fc273" stroke-width="2" /><text x="415.49" y="62.66" fill="#f3f4f6" font-size="15" font-weight="700" text-anchor="middle">D</text>
  <text x="56" y="492" fill="#8ba0b5" font-size="18">일반 완성 · TP1 435.364 · TP2 435.106 · SL 435.997</text>
</svg>
