<svg xmlns="http://www.w3.org/2000/svg" width="960" height="540" viewBox="0 0 960 540">
  <rect width="960" height="540" rx="24" fill="#0b1220" />
  <rect x="28" y="28" width="904" height="484" rx="22" fill="#111827" stroke="#1f2937" />
  <text x="56" y="74" fill="#f3f4f6" font-size="34" font-weight="700">BCHUSDT · AB=CD</text>
  <text x="904" y="74" fill="#8ba0b5" font-size="20" text-anchor="end">Bullish (매수) · Score 84.7</text>
  <line x1="72" y1="58" x2="920" y2="58" stroke="#223045" stroke-width="1" stroke-dasharray="4 8" /><line x1="72" y1="156" x2="920" y2="156" stroke="#223045" stroke-width="1" stroke-dasharray="4 8" /><line x1="72" y1="255" x2="920" y2="255" stroke="#223045" stroke-width="1" stroke-dasharray="4 8" /><line x1="72" y1="353" x2="920" y2="353" stroke="#223045" stroke-width="1" stroke-dasharray="4 8" /><line x1="72" y1="452" x2="920" y2="452" stroke="#223045" stroke-width="1" stroke-dasharray="4 8" />
  <rect x="194.28" y="459.84" width="84" height="61.73" fill="#fbbf24" fill-opacity="0.12" stroke="#fbbf24" stroke-width="1.5" stroke-dasharray="6 6" />
  <line x1="72.00" y1="353.87" x2="72.00" y2="377.96" stroke="#f6465d" stroke-width="1.4" /><rect x="69.00" y="356.51" width="6" height="16.45" rx="1.5" fill="#f6465d" /><line x1="82.73" y1="372.08" x2="82.73" y2="401.76" stroke="#f6465d" stroke-width="1.4" /><rect x="79.73" y="373.55" width="6" height="11.16" rx="1.5" fill="#f6465d" /><line x1="93.47" y1="370.03" x2="93.47" y2="398.53" stroke="#0ecb81" stroke-width="1.4" /><rect x="90.47" y="371.79" width="6" height="13.22" rx="1.5" fill="#0ecb81" /><line x1="104.20" y1="369.73" x2="104.20" y2="390.59" stroke="#f6465d" stroke-width="1.4" /><rect x="101.20" y="371.50" width="6" height="19.10" rx="1.5" fill="#f6465d" /><line x1="114.94" y1="389.12" x2="114.94" y2="427.03" stroke="#f6465d" stroke-width="1.4" /><rect x="111.94" y="389.12" width="6" height="25.27" rx="1.5" fill="#f6465d" /><line x1="125.67" y1="407.63" x2="125.67" y2="437.90" stroke="#f6465d" stroke-width="1.4" /><rect x="122.67" y="414.39" width="6" height="12.34" rx="1.5" fill="#f6465d" /><line x1="136.41" y1="426.73" x2="136.41" y2="437.60" stroke="#f6465d" stroke-width="1.4" /><rect x="133.41" y="427.32" width="6" height="9.99" rx="1.5" fill="#f6465d" /><line x1="147.14" y1="414.69" x2="147.14" y2="437.31" stroke="#0ecb81" stroke-width="1.4" /><rect x="144.14" y="424.68" width="6" height="12.63" rx="1.5" fill="#0ecb81" /><line x1="157.87" y1="410.57" x2="157.87" y2="437.60" stroke="#f6465d" stroke-width="1.4" /><rect x="154.87" y="424.68" width="6" height="12.05" rx="1.5" fill="#f6465d" /><line x1="168.61" y1="371.50" x2="168.61" y2="437.60" stroke="#0ecb81" stroke-width="1.4" /><rect x="165.61" y="371.79" width="6" height="65.23" rx="1.5" fill="#0ecb81" /><line x1="179.34" y1="371.79" x2="179.34" y2="406.75" stroke="#f6465d" stroke-width="1.4" /><rect x="176.34" y="371.79" width="6" height="21.45" rx="1.5" fill="#f6465d" /><line x1="190.08" y1="393.24" x2="190.08" y2="415.27" stroke="#f6465d" stroke-width="1.4" /><rect x="187.08" y="393.24" width="6" height="13.52" rx="1.5" fill="#f6465d" /><line x1="200.81" y1="401.17" x2="200.81" y2="425.56" stroke="#f6465d" stroke-width="1.4" /><rect x="197.81" y="406.75" width="6" height="17.63" rx="1.5" fill="#f6465d" /><line x1="211.54" y1="421.15" x2="211.54" y2="440.54" stroke="#f6465d" stroke-width="1.4" /><rect x="208.54" y="424.09" width="6" height="9.40" rx="1.5" fill="#f6465d" /><line x1="222.28" y1="432.02" x2="222.28" y2="452.00" stroke="#f6465d" stroke-width="1.4" /><rect x="219.28" y="433.20" width="6" height="2.94" rx="1.5" fill="#f6465d" /><line x1="233.01" y1="434.67" x2="233.01" y2="448.47" stroke="#f6465d" stroke-width="1.4" /><rect x="230.01" y="436.43" width="6" height="5.29" rx="1.5" fill="#f6465d" /><line x1="243.75" y1="426.73" x2="243.75" y2="443.48" stroke="#0ecb81" stroke-width="1.4" /><rect x="240.75" y="427.61" width="6" height="13.52" rx="1.5" fill="#0ecb81" /><line x1="254.48" y1="398.82" x2="254.48" y2="440.54" stroke="#0ecb81" stroke-width="1.4" /><rect x="251.48" y="401.17" width="6" height="26.44" rx="1.5" fill="#0ecb81" /><line x1="265.22" y1="371.20" x2="265.22" y2="417.62" stroke="#0ecb81" stroke-width="1.4" /><rect x="262.22" y="381.49" width="6" height="19.98" rx="1.5" fill="#0ecb81" /><line x1="275.95" y1="355.34" x2="275.95" y2="384.72" stroke="#0ecb81" stroke-width="1.4" /><rect x="272.95" y="367.38" width="6" height="13.81" rx="1.5" fill="#0ecb81" /><line x1="286.68" y1="333.89" x2="286.68" y2="367.38" stroke="#0ecb81" stroke-width="1.4" /><rect x="283.68" y="341.23" width="6" height="26.15" rx="1.5" fill="#0ecb81" /><line x1="297.42" y1="318.90" x2="297.42" y2="345.64" stroke="#0ecb81" stroke-width="1.4" /><rect x="294.42" y="320.96" width="6" height="19.98" rx="1.5" fill="#0ecb81" /><line x1="308.15" y1="320.67" x2="308.15" y2="371.50" stroke="#f6465d" stroke-width="1.4" /><rect x="305.15" y="320.67" width="6" height="27.32" rx="1.5" fill="#f6465d" /><line x1="318.89" y1="339.76" x2="318.89" y2="370.32" stroke="#0ecb81" stroke-width="1.4" /><rect x="315.89" y="343.00" width="6" height="4.99" rx="1.5" fill="#0ecb81" /><line x1="329.62" y1="284.23" x2="329.62" y2="345.35" stroke="#0ecb81" stroke-width="1.4" /><rect x="326.62" y="311.56" width="6" height="31.73" rx="1.5" fill="#0ecb81" /><line x1="340.35" y1="295.69" x2="340.35" y2="358.86" stroke="#f6465d" stroke-width="1.4" /><rect x="337.35" y="311.26" width="6" height="41.13" rx="1.5" fill="#f6465d" /><line x1="351.09" y1="330.66" x2="351.09" y2="360.04" stroke="#0ecb81" stroke-width="1.4" /><rect x="348.09" y="338.00" width="6" height="14.69" rx="1.5" fill="#0ecb81" /><line x1="361.82" y1="202.55" x2="361.82" y2="339.47" stroke="#0ecb81" stroke-width="1.4" /><rect x="358.82" y="250.74" width="6" height="87.56" rx="1.5" fill="#0ecb81" /><line x1="372.56" y1="249.56" x2="372.56" y2="276.89" stroke="#f6465d" stroke-width="1.4" /><rect x="369.56" y="250.74" width="6" height="22.33" rx="1.5" fill="#f6465d" /><line x1="383.29" y1="263.67" x2="383.29" y2="312.73" stroke="#f6465d" stroke-width="1.4" /><rect x="380.29" y="273.07" width="6" height="38.20" rx="1.5" fill="#f6465d" /><line x1="394.03" y1="281.88" x2="394.03" y2="314.20" stroke="#0ecb81" stroke-width="1.4" /><rect x="391.03" y="295.40" width="6" height="15.57" rx="1.5" fill="#0ecb81" /><line x1="404.76" y1="280.12" x2="404.76" y2="302.74" stroke="#0ecb81" stroke-width="1.4" /><rect x="401.76" y="288.35" width="6" height="7.35" rx="1.5" fill="#0ecb81" /><line x1="415.49" y1="248.68" x2="415.49" y2="288.94" stroke="#0ecb81" stroke-width="1.4" /><rect x="412.49" y="251.62" width="6" height="37.02" rx="1.5" fill="#0ecb81" /><line x1="426.23" y1="161.72" x2="426.23" y2="251.62" stroke="#0ecb81" stroke-width="1.4" /><rect x="423.23" y="169.35" width="6" height="82.27" rx="1.5" fill="#0ecb81" /><line x1="436.96" y1="155.55" x2="436.96" y2="214.60" stroke="#f6465d" stroke-width="1.4" /><rect x="433.96" y="169.35" width="6" height="34.96" rx="1.5" fill="#f6465d" /><line x1="447.70" y1="191.98" x2="447.70" y2="221.65" stroke="#0ecb81" stroke-width="1.4" /><rect x="444.70" y="191.98" width="6" height="12.34" rx="1.5" fill="#0ecb81" /><line x1="458.43" y1="173.17" x2="458.43" y2="223.71" stroke="#f6465d" stroke-width="1.4" /><rect x="455.43" y="191.98" width="6" height="19.69" rx="1.5" fill="#f6465d" /><line x1="469.16" y1="157.60" x2="469.16" y2="221.65" stroke="#0ecb81" stroke-width="1.4" /><rect x="466.16" y="157.60" width="6" height="54.35" rx="1.5" fill="#0ecb81" /><line x1="479.90" y1="148.79" x2="479.90" y2="180.52" stroke="#f6465d" stroke-width="1.4" /><rect x="476.90" y="157.90" width="6" height="22.62" rx="1.5" fill="#f6465d" /><line x1="490.63" y1="147.02" x2="490.63" y2="182.58" stroke="#0ecb81" stroke-width="1.4" /><rect x="487.63" y="170.24" width="6" height="9.99" rx="1.5" fill="#0ecb81" /><line x1="501.37" y1="133.80" x2="501.37" y2="176.11" stroke="#0ecb81" stroke-width="1.4" /><rect x="498.37" y="162.01" width="6" height="7.93" rx="1.5" fill="#0ecb81" /><line x1="512.10" y1="129.69" x2="512.10" y2="162.30" stroke="#0ecb81" stroke-width="1.4" /><rect x="509.10" y="149.96" width="6" height="12.05" rx="1.5" fill="#0ecb81" /><line x1="522.84" y1="141.74" x2="522.84" y2="166.71" stroke="#f6465d" stroke-width="1.4" /><rect x="519.84" y="149.96" width="6" height="16.75" rx="1.5" fill="#f6465d" /><line x1="533.57" y1="149.38" x2="533.57" y2="184.34" stroke="#f6465d" stroke-width="1.4" /><rect x="530.57" y="166.42" width="6" height="2.35" rx="1.5" fill="#f6465d" /><line x1="544.30" y1="155.84" x2="544.30" y2="175.23" stroke="#0ecb81" stroke-width="1.4" /><rect x="541.30" y="164.36" width="6" height="4.70" rx="1.5" fill="#0ecb81" /><line x1="555.04" y1="147.02" x2="555.04" y2="165.24" stroke="#0ecb81" stroke-width="1.4" /><rect x="552.04" y="160.54" width="6" height="3.82" rx="1.5" fill="#0ecb81" /><line x1="565.77" y1="150.55" x2="565.77" y2="176.11" stroke="#f6465d" stroke-width="1.4" /><rect x="562.77" y="160.25" width="6" height="7.64" rx="1.5" fill="#f6465d" /><line x1="576.51" y1="152.61" x2="576.51" y2="184.93" stroke="#f6465d" stroke-width="1.4" /><rect x="573.51" y="168.18" width="6" height="14.40" rx="1.5" fill="#f6465d" /><line x1="587.24" y1="169.65" x2="587.24" y2="182.58" stroke="#0ecb81" stroke-width="1.4" /><rect x="584.24" y="174.06" width="6" height="8.23" rx="1.5" fill="#0ecb81" /><line x1="597.97" y1="166.12" x2="597.97" y2="190.21" stroke="#f6465d" stroke-width="1.4" /><rect x="594.97" y="174.06" width="6" height="6.46" rx="1.5" fill="#f6465d" /><line x1="608.71" y1="166.71" x2="608.71" y2="181.11" stroke="#0ecb81" stroke-width="1.4" /><rect x="605.71" y="170.24" width="6" height="9.99" rx="1.5" fill="#0ecb81" /><line x1="619.44" y1="167.30" x2="619.44" y2="185.22" stroke="#f6465d" stroke-width="1.4" /><rect x="616.44" y="170.53" width="6" height="9.99" rx="1.5" fill="#f6465d" /><line x1="630.18" y1="147.02" x2="630.18" y2="179.64" stroke="#0ecb81" stroke-width="1.4" /><rect x="627.18" y="147.91" width="6" height="31.73" rx="1.5" fill="#0ecb81" /><line x1="640.91" y1="135.86" x2="640.91" y2="162.01" stroke="#f6465d" stroke-width="1.4" /><rect x="637.91" y="148.20" width="6" height="13.81" rx="1.5" fill="#f6465d" /><line x1="651.65" y1="129.69" x2="651.65" y2="162.01" stroke="#0ecb81" stroke-width="1.4" /><rect x="648.65" y="136.45" width="6" height="25.56" rx="1.5" fill="#0ecb81" /><line x1="662.38" y1="126.16" x2="662.38" y2="151.43" stroke="#f6465d" stroke-width="1.4" /><rect x="659.38" y="136.15" width="6" height="15.28" rx="1.5" fill="#f6465d" /><line x1="673.11" y1="137.92" x2="673.11" y2="191.39" stroke="#f6465d" stroke-width="1.4" /><rect x="670.11" y="150.26" width="6" height="6.46" rx="1.5" fill="#f6465d" /><line x1="683.85" y1="107.95" x2="683.85" y2="157.31" stroke="#0ecb81" stroke-width="1.4" /><rect x="680.85" y="110.59" width="6" height="45.83" rx="1.5" fill="#0ecb81" /><line x1="694.58" y1="106.18" x2="694.58" y2="127.05" stroke="#0ecb81" stroke-width="1.4" /><rect x="691.58" y="111.18" width="6" height="2.00" rx="1.5" fill="#0ecb81" /><line x1="705.32" y1="58.00" x2="705.32" y2="119.11" stroke="#0ecb81" stroke-width="1.4" /><rect x="702.32" y="77.39" width="6" height="34.38" rx="1.5" fill="#0ecb81" /><line x1="716.05" y1="75.92" x2="716.05" y2="122.93" stroke="#f6465d" stroke-width="1.4" /><rect x="713.05" y="77.69" width="6" height="28.50" rx="1.5" fill="#f6465d" /><line x1="726.78" y1="86.21" x2="726.78" y2="112.35" stroke="#f6465d" stroke-width="1.4" /><rect x="723.78" y="106.18" width="6" height="2.00" rx="1.5" fill="#f6465d" /><line x1="737.52" y1="67.70" x2="737.52" y2="118.23" stroke="#0ecb81" stroke-width="1.4" /><rect x="734.52" y="85.32" width="6" height="20.86" rx="1.5" fill="#0ecb81" /><line x1="748.25" y1="72.40" x2="748.25" y2="124.99" stroke="#f6465d" stroke-width="1.4" /><rect x="745.25" y="85.32" width="6" height="13.22" rx="1.5" fill="#f6465d" /><line x1="758.99" y1="90.03" x2="758.99" y2="119.41" stroke="#f6465d" stroke-width="1.4" /><rect x="755.99" y="98.25" width="6" height="5.58" rx="1.5" fill="#f6465d" /><line x1="769.72" y1="102.95" x2="769.72" y2="124.40" stroke="#f6465d" stroke-width="1.4" /><rect x="766.72" y="103.54" width="6" height="11.46" rx="1.5" fill="#f6465d" /><line x1="780.46" y1="83.56" x2="780.46" y2="115.00" stroke="#0ecb81" stroke-width="1.4" /><rect x="777.46" y="85.62" width="6" height="29.38" rx="1.5" fill="#0ecb81" /><line x1="791.19" y1="82.68" x2="791.19" y2="102.07" stroke="#f6465d" stroke-width="1.4" /><rect x="788.19" y="85.62" width="6" height="9.99" rx="1.5" fill="#f6465d" /><line x1="801.92" y1="80.04" x2="801.92" y2="99.43" stroke="#0ecb81" stroke-width="1.4" /><rect x="798.92" y="95.61" width="6" height="2.00" rx="1.5" fill="#0ecb81" /><line x1="812.66" y1="79.15" x2="812.66" y2="96.49" stroke="#0ecb81" stroke-width="1.4" /><rect x="809.66" y="86.21" width="6" height="9.70" rx="1.5" fill="#0ecb81" /><line x1="823.39" y1="66.23" x2="823.39" y2="104.42" stroke="#f6465d" stroke-width="1.4" /><rect x="820.39" y="86.21" width="6" height="2.00" rx="1.5" fill="#f6465d" /><line x1="834.13" y1="80.92" x2="834.13" y2="122.34" stroke="#f6465d" stroke-width="1.4" /><rect x="831.13" y="87.97" width="6" height="34.08" rx="1.5" fill="#f6465d" /><line x1="844.86" y1="96.78" x2="844.86" y2="122.05" stroke="#0ecb81" stroke-width="1.4" /><rect x="841.86" y="110.89" width="6" height="11.16" rx="1.5" fill="#0ecb81" /><line x1="855.59" y1="97.96" x2="855.59" y2="121.46" stroke="#0ecb81" stroke-width="1.4" /><rect x="852.59" y="104.72" width="6" height="6.46" rx="1.5" fill="#0ecb81" /><line x1="866.33" y1="98.55" x2="866.33" y2="109.12" stroke="#f6465d" stroke-width="1.4" /><rect x="863.33" y="104.72" width="6" height="3.53" rx="1.5" fill="#f6465d" /><line x1="877.06" y1="103.83" x2="877.06" y2="123.23" stroke="#f6465d" stroke-width="1.4" /><rect x="874.06" y="108.54" width="6" height="7.93" rx="1.5" fill="#f6465d" /><line x1="887.80" y1="104.72" x2="887.80" y2="121.17" stroke="#0ecb81" stroke-width="1.4" /><rect x="884.80" y="105.01" width="6" height="11.16" rx="1.5" fill="#0ecb81" /><line x1="898.53" y1="105.01" x2="898.53" y2="119.41" stroke="#f6465d" stroke-width="1.4" /><rect x="895.53" y="105.01" width="6" height="5.29" rx="1.5" fill="#f6465d" /><line x1="909.27" y1="95.61" x2="909.27" y2="114.41" stroke="#0ecb81" stroke-width="1.4" /><rect x="906.27" y="109.42" width="6" height="2.00" rx="1.5" fill="#0ecb81" /><line x1="920.00" y1="107.36" x2="920.00" y2="133.80" stroke="#f6465d" stroke-width="1.4" /><rect x="917.00" y="109.42" width="6" height="13.22" rx="1.5" fill="#f6465d" />
  <polyline points="72.00,384.72 72.00,323.90 125.67,437.90 168.61,371.50 222.28,452.00" fill="none" stroke="#2fc273" stroke-width="4" stroke-linecap="round" stroke-linejoin="round" />
  <circle cx="72.00" cy="384.72" r="5.5" fill="#2fc273" fill-opacity="0.15" stroke="#2fc273" stroke-width="2" /><text x="72.00" y="372.72" fill="#f3f4f6" font-size="15" font-weight="700" text-anchor="middle">X</text><circle cx="72.00" cy="323.90" r="5.5" fill="#2fc273" fill-opacity="0.15" stroke="#2fc273" stroke-width="2" /><text x="72.00" y="311.90" fill="#f3f4f6" font-size="15" font-weight="700" text-anchor="middle">A</text><circle cx="125.67" cy="437.90" r="5.5" fill="#2fc273" fill-opacity="0.15" stroke="#2fc273" stroke-width="2" /><text x="125.67" y="425.90" fill="#f3f4f6" font-size="15" font-weight="700" text-anchor="middle">B</text><circle cx="168.61" cy="371.50" r="5.5" fill="#2fc273" fill-opacity="0.15" stroke="#2fc273" stroke-width="2" /><text x="168.61" y="359.50" fill="#f3f4f6" font-size="15" font-weight="700" text-anchor="middle">C</text><circle cx="222.28" cy="452.00" r="5.5" fill="#2fc273" fill-opacity="0.15" stroke="#2fc273" stroke-width="2" /><text x="222.28" y="440.00" fill="#f3f4f6" font-size="15" font-weight="700" text-anchor="middle">D</text>
  <text x="56" y="492" fill="#8ba0b5" font-size="18">일반 완성 · TP1 422.557 · TP2 423.203 · SL 421.241</text>
</svg>
