<svg xmlns="http://www.w3.org/2000/svg" width="960" height="540" viewBox="0 0 960 540">
  <rect width="960" height="540" rx="24" fill="#0b1220" />
  <rect x="28" y="28" width="904" height="484" rx="22" fill="#111827" stroke="#1f2937" />
  <text x="56" y="74" fill="#f3f4f6" font-size="34" font-weight="700">BEATUSDT · AB=CD</text>
  <text x="904" y="74" fill="#8ba0b5" font-size="20" text-anchor="end">Bearish (매도) · Score 87.9</text>
  <line x1="72" y1="58" x2="920" y2="58" stroke="#223045" stroke-width="1" stroke-dasharray="4 8" /><line x1="72" y1="156" x2="920" y2="156" stroke="#223045" stroke-width="1" stroke-dasharray="4 8" /><line x1="72" y1="255" x2="920" y2="255" stroke="#223045" stroke-width="1" stroke-dasharray="4 8" /><line x1="72" y1="353" x2="920" y2="353" stroke="#223045" stroke-width="1" stroke-dasharray="4 8" /><line x1="72" y1="452" x2="920" y2="452" stroke="#223045" stroke-width="1" stroke-dasharray="4 8" />
  <rect x="462.63" y="145.19" width="84" height="46.11" fill="#fbbf24" fill-opacity="0.12" stroke="#fbbf24" stroke-width="1.5" stroke-dasharray="6 6" />
  <line x1="72.00" y1="353.25" x2="72.00" y2="452.00" stroke="#0ecb81" stroke-width="1.4" /><rect x="69.00" y="370.04" width="6" height="73.07" rx="1.5" fill="#0ecb81" /><line x1="82.73" y1="294.01" x2="82.73" y2="378.93" stroke="#0ecb81" stroke-width="1.4" /><rect x="79.73" y="332.52" width="6" height="37.52" rx="1.5" fill="#0ecb81" /><line x1="93.47" y1="199.21" x2="93.47" y2="331.53" stroke="#0ecb81" stroke-width="1.4" /><rect x="90.47" y="234.76" width="6" height="96.77" rx="1.5" fill="#0ecb81" /><line x1="104.20" y1="234.76" x2="104.20" y2="279.19" stroke="#f6465d" stroke-width="1.4" /><rect x="101.20" y="234.76" width="6" height="28.64" rx="1.5" fill="#f6465d" /><line x1="114.94" y1="264.38" x2="114.94" y2="297.95" stroke="#f6465d" stroke-width="1.4" /><rect x="111.94" y="264.38" width="6" height="20.74" rx="1.5" fill="#f6465d" /><line x1="125.67" y1="266.36" x2="125.67" y2="295.98" stroke="#0ecb81" stroke-width="1.4" /><rect x="122.67" y="282.16" width="6" height="2.96" rx="1.5" fill="#0ecb81" /><line x1="136.41" y1="281.17" x2="136.41" y2="324.62" stroke="#f6465d" stroke-width="1.4" /><rect x="133.41" y="281.17" width="6" height="33.57" rx="1.5" fill="#f6465d" /><line x1="147.14" y1="176.50" x2="147.14" y2="317.70" stroke="#0ecb81" stroke-width="1.4" /><rect x="144.14" y="196.25" width="6" height="119.48" rx="1.5" fill="#0ecb81" /><line x1="157.87" y1="113.30" x2="157.87" y2="209.08" stroke="#0ecb81" stroke-width="1.4" /><rect x="154.87" y="123.17" width="6" height="72.09" rx="1.5" fill="#0ecb81" /><line x1="168.61" y1="58.00" x2="168.61" y2="137.00" stroke="#0ecb81" stroke-width="1.4" /><rect x="165.61" y="116.26" width="6" height="6.91" rx="1.5" fill="#0ecb81" /><line x1="179.34" y1="114.29" x2="179.34" y2="194.27" stroke="#f6465d" stroke-width="1.4" /><rect x="176.34" y="117.25" width="6" height="37.52" rx="1.5" fill="#f6465d" /><line x1="190.08" y1="121.20" x2="190.08" y2="174.52" stroke="#f6465d" stroke-width="1.4" /><rect x="187.08" y="154.77" width="6" height="11.85" rx="1.5" fill="#f6465d" /><line x1="200.81" y1="144.90" x2="200.81" y2="176.50" stroke="#0ecb81" stroke-width="1.4" /><rect x="197.81" y="158.72" width="6" height="8.89" rx="1.5" fill="#0ecb81" /><line x1="211.54" y1="146.87" x2="211.54" y2="219.94" stroke="#f6465d" stroke-width="1.4" /><rect x="208.54" y="159.71" width="6" height="31.60" rx="1.5" fill="#f6465d" /><line x1="222.28" y1="167.61" x2="222.28" y2="248.58" stroke="#f6465d" stroke-width="1.4" /><rect x="219.28" y="191.31" width="6" height="47.40" rx="1.5" fill="#f6465d" /><line x1="233.01" y1="218.96" x2="233.01" y2="249.57" stroke="#f6465d" stroke-width="1.4" /><rect x="230.01" y="239.69" width="6" height="2.00" rx="1.5" fill="#f6465d" /><line x1="243.75" y1="220.93" x2="243.75" y2="244.63" stroke="#0ecb81" stroke-width="1.4" /><rect x="240.75" y="223.89" width="6" height="18.76" rx="1.5" fill="#0ecb81" /><line x1="254.48" y1="213.03" x2="254.48" y2="238.71" stroke="#0ecb81" stroke-width="1.4" /><rect x="251.48" y="221.92" width="6" height="2.96" rx="1.5" fill="#0ecb81" /><line x1="265.22" y1="183.41" x2="265.22" y2="224.88" stroke="#0ecb81" stroke-width="1.4" /><rect x="262.22" y="214.02" width="6" height="6.91" rx="1.5" fill="#0ecb81" /><line x1="275.95" y1="205.13" x2="275.95" y2="236.73" stroke="#f6465d" stroke-width="1.4" /><rect x="272.95" y="214.02" width="6" height="21.72" rx="1.5" fill="#f6465d" /><line x1="286.68" y1="235.74" x2="286.68" y2="280.18" stroke="#f6465d" stroke-width="1.4" /><rect x="283.68" y="235.74" width="6" height="24.69" rx="1.5" fill="#f6465d" /><line x1="297.42" y1="234.76" x2="297.42" y2="274.26" stroke="#0ecb81" stroke-width="1.4" /><rect x="294.42" y="234.76" width="6" height="25.67" rx="1.5" fill="#0ecb81" /><line x1="308.15" y1="191.31" x2="308.15" y2="236.73" stroke="#0ecb81" stroke-width="1.4" /><rect x="305.15" y="222.91" width="6" height="13.82" rx="1.5" fill="#0ecb81" /><line x1="318.89" y1="207.11" x2="318.89" y2="229.82" stroke="#0ecb81" stroke-width="1.4" /><rect x="315.89" y="215.99" width="6" height="6.91" rx="1.5" fill="#0ecb81" /><line x1="329.62" y1="215.01" x2="329.62" y2="240.68" stroke="#f6465d" stroke-width="1.4" /><rect x="326.62" y="215.99" width="6" height="16.79" rx="1.5" fill="#f6465d" /><line x1="340.35" y1="221.92" x2="340.35" y2="239.69" stroke="#f6465d" stroke-width="1.4" /><rect x="337.35" y="232.78" width="6" height="2.96" rx="1.5" fill="#f6465d" /><line x1="351.09" y1="227.84" x2="351.09" y2="245.62" stroke="#0ecb81" stroke-width="1.4" /><rect x="348.09" y="231.79" width="6" height="4.94" rx="1.5" fill="#0ecb81" /><line x1="361.82" y1="190.32" x2="361.82" y2="238.71" stroke="#0ecb81" stroke-width="1.4" /><rect x="358.82" y="210.07" width="6" height="20.74" rx="1.5" fill="#0ecb81" /><line x1="372.56" y1="211.06" x2="372.56" y2="256.48" stroke="#f6465d" stroke-width="1.4" /><rect x="369.56" y="211.06" width="6" height="16.79" rx="1.5" fill="#f6465d" /><line x1="383.29" y1="216.98" x2="383.29" y2="247.59" stroke="#f6465d" stroke-width="1.4" /><rect x="380.29" y="227.84" width="6" height="7.90" rx="1.5" fill="#f6465d" /><line x1="394.03" y1="223.89" x2="394.03" y2="249.57" stroke="#0ecb81" stroke-width="1.4" /><rect x="391.03" y="230.81" width="6" height="5.92" rx="1.5" fill="#0ecb81" /><line x1="404.76" y1="214.02" x2="404.76" y2="244.63" stroke="#f6465d" stroke-width="1.4" /><rect x="401.76" y="230.81" width="6" height="4.94" rx="1.5" fill="#f6465d" /><line x1="415.49" y1="198.22" x2="415.49" y2="238.71" stroke="#0ecb81" stroke-width="1.4" /><rect x="412.49" y="200.20" width="6" height="36.54" rx="1.5" fill="#0ecb81" /><line x1="426.23" y1="195.26" x2="426.23" y2="221.92" stroke="#f6465d" stroke-width="1.4" /><rect x="423.23" y="199.21" width="6" height="11.85" rx="1.5" fill="#f6465d" /><line x1="436.96" y1="212.05" x2="436.96" y2="241.67" stroke="#f6465d" stroke-width="1.4" /><rect x="433.96" y="212.05" width="6" height="24.69" rx="1.5" fill="#f6465d" /><line x1="447.70" y1="228.83" x2="447.70" y2="252.53" stroke="#f6465d" stroke-width="1.4" /><rect x="444.70" y="236.73" width="6" height="3.95" rx="1.5" fill="#f6465d" /><line x1="458.43" y1="224.88" x2="458.43" y2="248.58" stroke="#0ecb81" stroke-width="1.4" /><rect x="455.43" y="225.87" width="6" height="13.82" rx="1.5" fill="#0ecb81" /><line x1="469.16" y1="223.89" x2="469.16" y2="237.72" stroke="#f6465d" stroke-width="1.4" /><rect x="466.16" y="225.87" width="6" height="3.95" rx="1.5" fill="#f6465d" /><line x1="479.90" y1="221.92" x2="479.90" y2="235.74" stroke="#0ecb81" stroke-width="1.4" /><rect x="476.90" y="230.81" width="6" height="2.00" rx="1.5" fill="#0ecb81" /><line x1="490.63" y1="192.30" x2="490.63" y2="239.69" stroke="#0ecb81" stroke-width="1.4" /><rect x="487.63" y="222.91" width="6" height="8.89" rx="1.5" fill="#0ecb81" /><line x1="501.37" y1="208.10" x2="501.37" y2="232.78" stroke="#f6465d" stroke-width="1.4" /><rect x="498.37" y="221.92" width="6" height="8.89" rx="1.5" fill="#f6465d" /><line x1="512.10" y1="219.94" x2="512.10" y2="237.72" stroke="#0ecb81" stroke-width="1.4" /><rect x="509.10" y="220.93" width="6" height="9.87" rx="1.5" fill="#0ecb81" /><line x1="522.84" y1="205.13" x2="522.84" y2="227.84" stroke="#f6465d" stroke-width="1.4" /><rect x="519.84" y="221.92" width="6" height="2.00" rx="1.5" fill="#f6465d" /><line x1="533.57" y1="193.28" x2="533.57" y2="221.92" stroke="#0ecb81" stroke-width="1.4" /><rect x="530.57" y="209.08" width="6" height="12.84" rx="1.5" fill="#0ecb81" /><line x1="544.30" y1="200.20" x2="544.30" y2="255.49" stroke="#f6465d" stroke-width="1.4" /><rect x="541.30" y="209.08" width="6" height="34.56" rx="1.5" fill="#f6465d" /><line x1="555.04" y1="242.66" x2="555.04" y2="273.27" stroke="#f6465d" stroke-width="1.4" /><rect x="552.04" y="243.64" width="6" height="12.84" rx="1.5" fill="#f6465d" /><line x1="565.77" y1="239.69" x2="565.77" y2="261.42" stroke="#0ecb81" stroke-width="1.4" /><rect x="562.77" y="256.48" width="6" height="2.00" rx="1.5" fill="#0ecb81" /><line x1="576.51" y1="256.48" x2="576.51" y2="292.03" stroke="#f6465d" stroke-width="1.4" /><rect x="573.51" y="257.47" width="6" height="8.89" rx="1.5" fill="#f6465d" /><line x1="587.24" y1="261.42" x2="587.24" y2="274.26" stroke="#0ecb81" stroke-width="1.4" /><rect x="584.24" y="263.39" width="6" height="2.96" rx="1.5" fill="#0ecb81" /><line x1="597.97" y1="257.47" x2="597.97" y2="281.17" stroke="#f6465d" stroke-width="1.4" /><rect x="594.97" y="266.36" width="6" height="13.82" rx="1.5" fill="#f6465d" /><line x1="608.71" y1="274.26" x2="608.71" y2="297.95" stroke="#f6465d" stroke-width="1.4" /><rect x="605.71" y="279.19" width="6" height="9.87" rx="1.5" fill="#f6465d" /><line x1="619.44" y1="284.13" x2="619.44" y2="298.94" stroke="#f6465d" stroke-width="1.4" /><rect x="616.44" y="287.09" width="6" height="2.96" rx="1.5" fill="#f6465d" /><line x1="630.18" y1="284.13" x2="630.18" y2="307.83" stroke="#f6465d" stroke-width="1.4" /><rect x="627.18" y="288.08" width="6" height="7.90" rx="1.5" fill="#f6465d" /><line x1="640.91" y1="291.04" x2="640.91" y2="309.80" stroke="#f6465d" stroke-width="1.4" /><rect x="637.91" y="295.98" width="6" height="6.91" rx="1.5" fill="#f6465d" /><line x1="651.65" y1="272.28" x2="651.65" y2="307.83" stroke="#0ecb81" stroke-width="1.4" /><rect x="648.65" y="277.22" width="6" height="25.67" rx="1.5" fill="#0ecb81" /><line x1="662.38" y1="262.41" x2="662.38" y2="286.11" stroke="#f6465d" stroke-width="1.4" /><rect x="659.38" y="278.21" width="6" height="6.91" rx="1.5" fill="#f6465d" /><line x1="673.11" y1="283.14" x2="673.11" y2="305.85" stroke="#f6465d" stroke-width="1.4" /><rect x="670.11" y="283.14" width="6" height="21.72" rx="1.5" fill="#f6465d" /><line x1="683.85" y1="284.13" x2="683.85" y2="309.80" stroke="#0ecb81" stroke-width="1.4" /><rect x="680.85" y="296.97" width="6" height="6.91" rx="1.5" fill="#0ecb81" /><line x1="694.58" y1="293.02" x2="694.58" y2="322.64" stroke="#f6465d" stroke-width="1.4" /><rect x="691.58" y="296.97" width="6" height="14.81" rx="1.5" fill="#f6465d" /><line x1="705.32" y1="301.90" x2="705.32" y2="316.72" stroke="#0ecb81" stroke-width="1.4" /><rect x="702.32" y="307.83" width="6" height="2.96" rx="1.5" fill="#0ecb81" /><line x1="716.05" y1="296.97" x2="716.05" y2="348.32" stroke="#f6465d" stroke-width="1.4" /><rect x="713.05" y="306.84" width="6" height="17.77" rx="1.5" fill="#f6465d" /><line x1="726.78" y1="300.92" x2="726.78" y2="332.52" stroke="#0ecb81" stroke-width="1.4" /><rect x="723.78" y="309.80" width="6" height="13.82" rx="1.5" fill="#0ecb81" /><line x1="737.52" y1="299.93" x2="737.52" y2="333.50" stroke="#f6465d" stroke-width="1.4" /><rect x="734.52" y="307.83" width="6" height="21.72" rx="1.5" fill="#f6465d" /><line x1="748.25" y1="314.74" x2="748.25" y2="342.39" stroke="#0ecb81" stroke-width="1.4" /><rect x="745.25" y="323.63" width="6" height="5.92" rx="1.5" fill="#0ecb81" /><line x1="758.99" y1="320.67" x2="758.99" y2="333.50" stroke="#f6465d" stroke-width="1.4" /><rect x="755.99" y="322.64" width="6" height="5.92" rx="1.5" fill="#f6465d" /><line x1="769.72" y1="325.60" x2="769.72" y2="383.86" stroke="#f6465d" stroke-width="1.4" /><rect x="766.72" y="328.57" width="6" height="23.70" rx="1.5" fill="#f6465d" /><line x1="780.46" y1="350.29" x2="780.46" y2="371.03" stroke="#f6465d" stroke-width="1.4" /><rect x="777.46" y="351.28" width="6" height="18.76" rx="1.5" fill="#f6465d" /><line x1="791.19" y1="361.15" x2="791.19" y2="378.93" stroke="#f6465d" stroke-width="1.4" /><rect x="788.19" y="368.07" width="6" height="2.00" rx="1.5" fill="#f6465d" /><line x1="801.92" y1="345.35" x2="801.92" y2="374.98" stroke="#0ecb81" stroke-width="1.4" /><rect x="798.92" y="353.25" width="6" height="15.80" rx="1.5" fill="#0ecb81" /><line x1="812.66" y1="341.40" x2="812.66" y2="355.23" stroke="#0ecb81" stroke-width="1.4" /><rect x="809.66" y="351.28" width="6" height="2.00" rx="1.5" fill="#0ecb81" /><line x1="823.39" y1="330.54" x2="823.39" y2="350.29" stroke="#0ecb81" stroke-width="1.4" /><rect x="820.39" y="339.43" width="6" height="10.86" rx="1.5" fill="#0ecb81" /><line x1="834.13" y1="297.95" x2="834.13" y2="337.45" stroke="#0ecb81" stroke-width="1.4" /><rect x="831.13" y="300.92" width="6" height="36.54" rx="1.5" fill="#0ecb81" /><line x1="844.86" y1="280.18" x2="844.86" y2="318.69" stroke="#0ecb81" stroke-width="1.4" /><rect x="841.86" y="299.93" width="6" height="2.00" rx="1.5" fill="#0ecb81" /><line x1="855.59" y1="285.12" x2="855.59" y2="315.73" stroke="#f6465d" stroke-width="1.4" /><rect x="852.59" y="299.93" width="6" height="2.00" rx="1.5" fill="#f6465d" /><line x1="866.33" y1="266.36" x2="866.33" y2="302.89" stroke="#f6465d" stroke-width="1.4" /><rect x="863.33" y="299.93" width="6" height="2.00" rx="1.5" fill="#f6465d" /><line x1="877.06" y1="277.22" x2="877.06" y2="313.75" stroke="#0ecb81" stroke-width="1.4" /><rect x="874.06" y="283.14" width="6" height="17.77" rx="1.5" fill="#0ecb81" /><line x1="887.80" y1="262.41" x2="887.80" y2="300.92" stroke="#0ecb81" stroke-width="1.4" /><rect x="884.80" y="262.41" width="6" height="21.72" rx="1.5" fill="#0ecb81" /><line x1="898.53" y1="257.47" x2="898.53" y2="287.09" stroke="#f6465d" stroke-width="1.4" /><rect x="895.53" y="263.39" width="6" height="13.82" rx="1.5" fill="#f6465d" /><line x1="909.27" y1="273.27" x2="909.27" y2="291.04" stroke="#0ecb81" stroke-width="1.4" /><rect x="906.27" y="274.26" width="6" height="2.96" rx="1.5" fill="#0ecb81" /><line x1="920.00" y1="267.34" x2="920.00" y2="282.16" stroke="#0ecb81" stroke-width="1.4" /><rect x="917.00" y="271.29" width="6" height="4.94" rx="1.5" fill="#0ecb81" />
  <polyline points="361.82,190.32 372.56,256.48 426.23,195.26 447.70,252.53 490.63,192.30" fill="none" stroke="#2fc273" stroke-width="4" stroke-linecap="round" stroke-linejoin="round" />
  <circle cx="361.82" cy="190.32" r="5.5" fill="#2fc273" fill-opacity="0.15" stroke="#2fc273" stroke-width="2" /><text x="361.82" y="178.32" fill="#f3f4f6" font-size="15" font-weight="700" text-anchor="middle">X</text><circle cx="372.56" cy="256.48" r="5.5" fill="#2fc273" fill-opacity="0.15" stroke="#2fc273" stroke-width="2" /><text x="372.56" y="244.48" fill="#f3f4f6" font-size="15" font-weight="700" text-anchor="middle">A</text><circle cx="426.23" cy="195.26" r="5.5" fill="#2fc273" fill-opacity="0.15" stroke="#2fc273" stroke-width="2" /><text x="426.23" y="183.26" fill="#f3f4f6" font-size="15" font-weight="700" text-anchor="middle">B</text><circle cx="447.70" cy="252.53" r="5.5" fill="#2fc273" fill-opacity="0.15" stroke="#2fc273" stroke-width="2" /><text x="447.70" y="240.53" fill="#f3f4f6" font-size="15" font-weight="700" text-anchor="middle">C</text><circle cx="490.63" cy="192.30" r="5.5" fill="#2fc273" fill-opacity="0.15" stroke="#2fc273" stroke-width="2" /><text x="490.63" y="180.30" fill="#f3f4f6" font-size="15" font-weight="700" text-anchor="middle">D</text>
  <text x="56" y="492" fill="#8ba0b5" font-size="18">일반 완성 · TP1 0.33667 · TP2 0.33523 · SL 0.33987</text>
</svg>
