<svg xmlns="http://www.w3.org/2000/svg" width="960" height="540" viewBox="0 0 960 540">
  <rect width="960" height="540" rx="24" fill="#0b1220" />
  <rect x="28" y="28" width="904" height="484" rx="22" fill="#111827" stroke="#1f2937" />
  <text x="56" y="74" fill="#f3f4f6" font-size="34" font-weight="700">BNBUSDT · AB=CD</text>
  <text x="904" y="74" fill="#8ba0b5" font-size="20" text-anchor="end">Bearish (매도) · Score 81.9</text>
  <line x1="72" y1="58" x2="920" y2="58" stroke="#223045" stroke-width="1" stroke-dasharray="4 8" /><line x1="72" y1="156" x2="920" y2="156" stroke="#223045" stroke-width="1" stroke-dasharray="4 8" /><line x1="72" y1="255" x2="920" y2="255" stroke="#223045" stroke-width="1" stroke-dasharray="4 8" /><line x1="72" y1="353" x2="920" y2="353" stroke="#223045" stroke-width="1" stroke-dasharray="4 8" /><line x1="72" y1="452" x2="920" y2="452" stroke="#223045" stroke-width="1" stroke-dasharray="4 8" />
  <rect x="484.10" y="-44.43" width="84" height="69.04" fill="#fbbf24" fill-opacity="0.12" stroke="#fbbf24" stroke-width="1.5" stroke-dasharray="6 6" />
  <line x1="72.00" y1="417.89" x2="72.00" y2="428.05" stroke="#f6465d" stroke-width="1.4" /><rect x="69.00" y="417.89" width="6" height="10.17" rx="1.5" fill="#f6465d" /><line x1="82.73" y1="427.83" x2="82.73" y2="438.44" stroke="#f6465d" stroke-width="1.4" /><rect x="79.73" y="427.83" width="6" height="8.81" rx="1.5" fill="#f6465d" /><line x1="93.47" y1="435.73" x2="93.47" y2="448.39" stroke="#f6465d" stroke-width="1.4" /><rect x="90.47" y="436.64" width="6" height="4.29" rx="1.5" fill="#f6465d" /><line x1="104.20" y1="440.70" x2="104.20" y2="446.13" stroke="#f6465d" stroke-width="1.4" /><rect x="101.20" y="440.70" width="6" height="5.42" rx="1.5" fill="#f6465d" /><line x1="114.94" y1="445.45" x2="114.94" y2="447.48" stroke="#f6465d" stroke-width="1.4" /><rect x="111.94" y="445.90" width="6" height="2.00" rx="1.5" fill="#f6465d" /><line x1="125.67" y1="436.41" x2="125.67" y2="452.00" stroke="#0ecb81" stroke-width="1.4" /><rect x="122.67" y="442.96" width="6" height="3.84" rx="1.5" fill="#0ecb81" /><line x1="136.41" y1="424.21" x2="136.41" y2="442.96" stroke="#0ecb81" stroke-width="1.4" /><rect x="133.41" y="424.44" width="6" height="18.53" rx="1.5" fill="#0ecb81" /><line x1="147.14" y1="416.08" x2="147.14" y2="424.66" stroke="#0ecb81" stroke-width="1.4" /><rect x="144.14" y="416.31" width="6" height="8.13" rx="1.5" fill="#0ecb81" /><line x1="157.87" y1="416.08" x2="157.87" y2="441.61" stroke="#f6465d" stroke-width="1.4" /><rect x="154.87" y="416.08" width="6" height="19.20" rx="1.5" fill="#f6465d" /><line x1="168.61" y1="393.49" x2="168.61" y2="437.77" stroke="#0ecb81" stroke-width="1.4" /><rect x="165.61" y="398.91" width="6" height="36.37" rx="1.5" fill="#0ecb81" /><line x1="179.34" y1="392.58" x2="179.34" y2="411.79" stroke="#f6465d" stroke-width="1.4" /><rect x="176.34" y="399.14" width="6" height="2.00" rx="1.5" fill="#f6465d" /><line x1="190.08" y1="400.04" x2="190.08" y2="441.38" stroke="#f6465d" stroke-width="1.4" /><rect x="187.08" y="400.49" width="6" height="23.27" rx="1.5" fill="#f6465d" /><line x1="200.81" y1="413.14" x2="200.81" y2="428.96" stroke="#f6465d" stroke-width="1.4" /><rect x="197.81" y="423.76" width="6" height="5.20" rx="1.5" fill="#f6465d" /><line x1="211.54" y1="426.70" x2="211.54" y2="447.93" stroke="#f6465d" stroke-width="1.4" /><rect x="208.54" y="428.96" width="6" height="2.49" rx="1.5" fill="#f6465d" /><line x1="222.28" y1="421.73" x2="222.28" y2="445.00" stroke="#0ecb81" stroke-width="1.4" /><rect x="219.28" y="421.95" width="6" height="9.26" rx="1.5" fill="#0ecb81" /><line x1="233.01" y1="390.78" x2="233.01" y2="423.08" stroke="#0ecb81" stroke-width="1.4" /><rect x="230.01" y="408.85" width="6" height="13.33" rx="1.5" fill="#0ecb81" /><line x1="243.75" y1="384.22" x2="243.75" y2="415.85" stroke="#0ecb81" stroke-width="1.4" /><rect x="240.75" y="385.58" width="6" height="23.04" rx="1.5" fill="#0ecb81" /><line x1="254.48" y1="349.66" x2="254.48" y2="391.91" stroke="#0ecb81" stroke-width="1.4" /><rect x="251.48" y="361.41" width="6" height="24.17" rx="1.5" fill="#0ecb81" /><line x1="265.22" y1="321.87" x2="265.22" y2="365.47" stroke="#0ecb81" stroke-width="1.4" /><rect x="262.22" y="339.27" width="6" height="22.14" rx="1.5" fill="#0ecb81" /><line x1="275.95" y1="318.03" x2="275.95" y2="339.04" stroke="#0ecb81" stroke-width="1.4" /><rect x="272.95" y="335.20" width="6" height="3.84" rx="1.5" fill="#0ecb81" /><line x1="286.68" y1="289.11" x2="286.68" y2="335.20" stroke="#0ecb81" stroke-width="1.4" /><rect x="283.68" y="303.80" width="6" height="31.40" rx="1.5" fill="#0ecb81" /><line x1="297.42" y1="250.93" x2="297.42" y2="311.25" stroke="#0ecb81" stroke-width="1.4" /><rect x="294.42" y="300.18" width="6" height="3.61" rx="1.5" fill="#0ecb81" /><line x1="308.15" y1="245.51" x2="308.15" y2="300.41" stroke="#0ecb81" stroke-width="1.4" /><rect x="305.15" y="273.07" width="6" height="27.11" rx="1.5" fill="#0ecb81" /><line x1="318.89" y1="235.57" x2="318.89" y2="277.14" stroke="#0ecb81" stroke-width="1.4" /><rect x="315.89" y="241.22" width="6" height="31.85" rx="1.5" fill="#0ecb81" /><line x1="329.62" y1="186.55" x2="329.62" y2="243.70" stroke="#0ecb81" stroke-width="1.4" /><rect x="326.62" y="193.10" width="6" height="48.35" rx="1.5" fill="#0ecb81" /><line x1="340.35" y1="151.98" x2="340.35" y2="212.75" stroke="#f6465d" stroke-width="1.4" /><rect x="337.35" y="193.10" width="6" height="7.46" rx="1.5" fill="#f6465d" /><line x1="351.09" y1="183.38" x2="351.09" y2="215.46" stroke="#f6465d" stroke-width="1.4" /><rect x="348.09" y="200.55" width="6" height="14.68" rx="1.5" fill="#f6465d" /><line x1="361.82" y1="157.86" x2="361.82" y2="217.72" stroke="#0ecb81" stroke-width="1.4" /><rect x="358.82" y="158.76" width="6" height="56.71" rx="1.5" fill="#0ecb81" /><line x1="372.56" y1="144.98" x2="372.56" y2="180.45" stroke="#f6465d" stroke-width="1.4" /><rect x="369.56" y="158.53" width="6" height="20.33" rx="1.5" fill="#f6465d" /><line x1="383.29" y1="174.80" x2="383.29" y2="201.68" stroke="#f6465d" stroke-width="1.4" /><rect x="380.29" y="178.87" width="6" height="11.52" rx="1.5" fill="#f6465d" /><line x1="394.03" y1="174.12" x2="394.03" y2="197.62" stroke="#f6465d" stroke-width="1.4" /><rect x="391.03" y="190.39" width="6" height="3.84" rx="1.5" fill="#f6465d" /><line x1="404.76" y1="185.42" x2="404.76" y2="207.11" stroke="#f6465d" stroke-width="1.4" /><rect x="401.76" y="194.45" width="6" height="2.00" rx="1.5" fill="#f6465d" /><line x1="415.49" y1="191.52" x2="415.49" y2="205.30" stroke="#f6465d" stroke-width="1.4" /><rect x="412.49" y="196.04" width="6" height="4.97" rx="1.5" fill="#f6465d" /><line x1="426.23" y1="58.00" x2="426.23" y2="200.78" stroke="#0ecb81" stroke-width="1.4" /><rect x="423.23" y="109.28" width="6" height="91.50" rx="1.5" fill="#0ecb81" /><line x1="436.96" y1="83.53" x2="436.96" y2="117.19" stroke="#f6465d" stroke-width="1.4" /><rect x="433.96" y="109.06" width="6" height="4.97" rx="1.5" fill="#f6465d" /><line x1="447.70" y1="113.80" x2="447.70" y2="138.20" stroke="#f6465d" stroke-width="1.4" /><rect x="444.70" y="114.03" width="6" height="16.94" rx="1.5" fill="#f6465d" /><line x1="458.43" y1="109.74" x2="458.43" y2="135.26" stroke="#0ecb81" stroke-width="1.4" /><rect x="455.43" y="129.39" width="6" height="2.00" rx="1.5" fill="#0ecb81" /><line x1="469.16" y1="122.16" x2="469.16" y2="156.05" stroke="#0ecb81" stroke-width="1.4" /><rect x="466.16" y="126.00" width="6" height="3.39" rx="1.5" fill="#0ecb81" /><line x1="479.90" y1="122.16" x2="479.90" y2="147.01" stroke="#f6465d" stroke-width="1.4" /><rect x="476.90" y="126.00" width="6" height="14.46" rx="1.5" fill="#f6465d" /><line x1="490.63" y1="122.16" x2="490.63" y2="161.02" stroke="#f6465d" stroke-width="1.4" /><rect x="487.63" y="140.69" width="6" height="19.88" rx="1.5" fill="#f6465d" /><line x1="501.37" y1="136.62" x2="501.37" y2="163.50" stroke="#0ecb81" stroke-width="1.4" /><rect x="498.37" y="139.10" width="6" height="21.46" rx="1.5" fill="#0ecb81" /><line x1="512.10" y1="100.92" x2="512.10" y2="140.46" stroke="#0ecb81" stroke-width="1.4" /><rect x="509.10" y="117.87" width="6" height="21.24" rx="1.5" fill="#0ecb81" /><line x1="522.84" y1="111.77" x2="522.84" y2="135.72" stroke="#f6465d" stroke-width="1.4" /><rect x="519.84" y="117.87" width="6" height="17.62" rx="1.5" fill="#f6465d" /><line x1="533.57" y1="127.13" x2="533.57" y2="150.85" stroke="#f6465d" stroke-width="1.4" /><rect x="530.57" y="135.49" width="6" height="14.68" rx="1.5" fill="#f6465d" /><line x1="544.30" y1="142.49" x2="544.30" y2="159.66" stroke="#f6465d" stroke-width="1.4" /><rect x="541.30" y="150.17" width="6" height="4.52" rx="1.5" fill="#f6465d" /><line x1="555.04" y1="148.14" x2="555.04" y2="185.87" stroke="#f6465d" stroke-width="1.4" /><rect x="552.04" y="154.92" width="6" height="26.66" rx="1.5" fill="#f6465d" /><line x1="565.77" y1="172.54" x2="565.77" y2="192.42" stroke="#f6465d" stroke-width="1.4" /><rect x="562.77" y="181.35" width="6" height="2.49" rx="1.5" fill="#f6465d" /><line x1="576.51" y1="175.48" x2="576.51" y2="203.26" stroke="#f6465d" stroke-width="1.4" /><rect x="573.51" y="183.61" width="6" height="19.43" rx="1.5" fill="#f6465d" /><line x1="587.24" y1="200.78" x2="587.24" y2="214.79" stroke="#0ecb81" stroke-width="1.4" /><rect x="584.24" y="202.36" width="6" height="2.00" rx="1.5" fill="#0ecb81" /><line x1="597.97" y1="188.13" x2="597.97" y2="211.40" stroke="#0ecb81" stroke-width="1.4" /><rect x="594.97" y="202.14" width="6" height="2.00" rx="1.5" fill="#0ecb81" /><line x1="608.71" y1="189.48" x2="608.71" y2="202.36" stroke="#0ecb81" stroke-width="1.4" /><rect x="605.71" y="193.55" width="6" height="8.58" rx="1.5" fill="#0ecb81" /><line x1="619.44" y1="190.61" x2="619.44" y2="224.73" stroke="#f6465d" stroke-width="1.4" /><rect x="616.44" y="193.78" width="6" height="20.33" rx="1.5" fill="#f6465d" /><line x1="630.18" y1="195.81" x2="630.18" y2="216.14" stroke="#0ecb81" stroke-width="1.4" /><rect x="627.18" y="203.49" width="6" height="10.62" rx="1.5" fill="#0ecb81" /><line x1="640.91" y1="203.26" x2="640.91" y2="221.79" stroke="#f6465d" stroke-width="1.4" /><rect x="637.91" y="203.26" width="6" height="14.91" rx="1.5" fill="#f6465d" /><line x1="651.65" y1="201.68" x2="651.65" y2="218.18" stroke="#0ecb81" stroke-width="1.4" /><rect x="648.65" y="211.85" width="6" height="6.33" rx="1.5" fill="#0ecb81" /><line x1="662.38" y1="198.29" x2="662.38" y2="215.01" stroke="#f6465d" stroke-width="1.4" /><rect x="659.38" y="211.85" width="6" height="3.16" rx="1.5" fill="#f6465d" /><line x1="673.11" y1="205.52" x2="673.11" y2="221.79" stroke="#f6465d" stroke-width="1.4" /><rect x="670.11" y="215.24" width="6" height="2.03" rx="1.5" fill="#f6465d" /><line x1="683.85" y1="197.17" x2="683.85" y2="220.89" stroke="#0ecb81" stroke-width="1.4" /><rect x="680.85" y="198.29" width="6" height="18.98" rx="1.5" fill="#0ecb81" /><line x1="694.58" y1="191.29" x2="694.58" y2="211.85" stroke="#0ecb81" stroke-width="1.4" /><rect x="691.58" y="193.55" width="6" height="4.74" rx="1.5" fill="#0ecb81" /><line x1="705.32" y1="116.51" x2="705.32" y2="199.88" stroke="#0ecb81" stroke-width="1.4" /><rect x="702.32" y="155.14" width="6" height="38.41" rx="1.5" fill="#0ecb81" /><line x1="716.05" y1="131.65" x2="716.05" y2="165.99" stroke="#0ecb81" stroke-width="1.4" /><rect x="713.05" y="141.59" width="6" height="13.56" rx="1.5" fill="#0ecb81" /><line x1="726.78" y1="133.23" x2="726.78" y2="154.01" stroke="#f6465d" stroke-width="1.4" /><rect x="723.78" y="141.59" width="6" height="7.91" rx="1.5" fill="#f6465d" /><line x1="737.52" y1="148.37" x2="737.52" y2="165.76" stroke="#f6465d" stroke-width="1.4" /><rect x="734.52" y="149.50" width="6" height="2.26" rx="1.5" fill="#f6465d" /><line x1="748.25" y1="130.07" x2="748.25" y2="151.76" stroke="#0ecb81" stroke-width="1.4" /><rect x="745.25" y="135.72" width="6" height="16.04" rx="1.5" fill="#0ecb81" /><line x1="758.99" y1="133.91" x2="758.99" y2="161.24" stroke="#f6465d" stroke-width="1.4" /><rect x="755.99" y="135.72" width="6" height="15.36" rx="1.5" fill="#f6465d" /><line x1="769.72" y1="150.85" x2="769.72" y2="169.15" stroke="#f6465d" stroke-width="1.4" /><rect x="766.72" y="150.85" width="6" height="16.04" rx="1.5" fill="#f6465d" /><line x1="780.46" y1="153.56" x2="780.46" y2="167.12" stroke="#0ecb81" stroke-width="1.4" /><rect x="777.46" y="165.31" width="6" height="2.00" rx="1.5" fill="#0ecb81" /><line x1="791.19" y1="153.34" x2="791.19" y2="166.44" stroke="#0ecb81" stroke-width="1.4" /><rect x="788.19" y="161.92" width="6" height="3.39" rx="1.5" fill="#0ecb81" /><line x1="801.92" y1="159.66" x2="801.92" y2="166.21" stroke="#f6465d" stroke-width="1.4" /><rect x="798.92" y="162.15" width="6" height="4.07" rx="1.5" fill="#f6465d" /><line x1="812.66" y1="163.28" x2="812.66" y2="173.22" stroke="#f6465d" stroke-width="1.4" /><rect x="809.66" y="166.21" width="6" height="2.00" rx="1.5" fill="#f6465d" /><line x1="823.39" y1="164.86" x2="823.39" y2="183.84" stroke="#f6465d" stroke-width="1.4" /><rect x="820.39" y="168.02" width="6" height="13.78" rx="1.5" fill="#f6465d" /><line x1="834.13" y1="168.70" x2="834.13" y2="190.39" stroke="#f6465d" stroke-width="1.4" /><rect x="831.13" y="181.80" width="6" height="8.58" rx="1.5" fill="#f6465d" /><line x1="844.86" y1="182.71" x2="844.86" y2="204.85" stroke="#f6465d" stroke-width="1.4" /><rect x="841.86" y="190.16" width="6" height="10.39" rx="1.5" fill="#f6465d" /><line x1="855.59" y1="182.71" x2="855.59" y2="205.98" stroke="#0ecb81" stroke-width="1.4" /><rect x="852.59" y="188.58" width="6" height="12.20" rx="1.5" fill="#0ecb81" /><line x1="866.33" y1="185.42" x2="866.33" y2="194.00" stroke="#f6465d" stroke-width="1.4" /><rect x="863.33" y="188.35" width="6" height="4.29" rx="1.5" fill="#f6465d" /><line x1="877.06" y1="189.94" x2="877.06" y2="200.10" stroke="#f6465d" stroke-width="1.4" /><rect x="874.06" y="192.42" width="6" height="7.00" rx="1.5" fill="#f6465d" /><line x1="887.80" y1="194.91" x2="887.80" y2="209.14" stroke="#f6465d" stroke-width="1.4" /><rect x="884.80" y="199.20" width="6" height="9.71" rx="1.5" fill="#f6465d" /><line x1="898.53" y1="208.91" x2="898.53" y2="221.11" stroke="#f6465d" stroke-width="1.4" /><rect x="895.53" y="209.14" width="6" height="6.33" rx="1.5" fill="#f6465d" /><line x1="909.27" y1="208.01" x2="909.27" y2="218.40" stroke="#0ecb81" stroke-width="1.4" /><rect x="906.27" y="212.98" width="6" height="2.49" rx="1.5" fill="#0ecb81" /><line x1="920.00" y1="210.27" x2="920.00" y2="228.79" stroke="#f6465d" stroke-width="1.4" /><rect x="917.00" y="212.98" width="6" height="11.97" rx="1.5" fill="#f6465d" />
  <polyline points="372.56,144.98 404.76,207.11 426.23,58.00 501.37,163.50 512.10,100.92" fill="none" stroke="#2fc273" stroke-width="4" stroke-linecap="round" stroke-linejoin="round" />
  <circle cx="372.56" cy="144.98" r="5.5" fill="#2fc273" fill-opacity="0.15" stroke="#2fc273" stroke-width="2" /><text x="372.56" y="132.98" fill="#f3f4f6" font-size="15" font-weight="700" text-anchor="middle">X</text><circle cx="404.76" cy="207.11" r="5.5" fill="#2fc273" fill-opacity="0.15" stroke="#2fc273" stroke-width="2" /><text x="404.76" y="195.11" fill="#f3f4f6" font-size="15" font-weight="700" text-anchor="middle">A</text><circle cx="426.23" cy="58.00" r="5.5" fill="#2fc273" fill-opacity="0.15" stroke="#2fc273" stroke-width="2" /><text x="426.23" y="46.00" fill="#f3f4f6" font-size="15" font-weight="700" text-anchor="middle">B</text><circle cx="501.37" cy="163.50" r="5.5" fill="#2fc273" fill-opacity="0.15" stroke="#2fc273" stroke-width="2" /><text x="501.37" y="151.50" fill="#f3f4f6" font-size="15" font-weight="700" text-anchor="middle">C</text><circle cx="512.10" cy="100.92" r="5.5" fill="#2fc273" fill-opacity="0.15" stroke="#2fc273" stroke-width="2" /><text x="512.10" y="88.92" fill="#f3f4f6" font-size="15" font-weight="700" text-anchor="middle">D</text>
  <text x="56" y="492" fill="#8ba0b5" font-size="18">일반 완성 · TP1 605.182 · TP2 604.528 · SL 606.597</text>
</svg>
