<svg xmlns="http://www.w3.org/2000/svg" width="960" height="540" viewBox="0 0 960 540">
  <rect width="960" height="540" rx="24" fill="#0b1220" />
  <rect x="28" y="28" width="904" height="484" rx="22" fill="#111827" stroke="#1f2937" />
  <text x="56" y="74" fill="#f3f4f6" font-size="34" font-weight="700">BNBUSDT · AB=CD</text>
  <text x="904" y="74" fill="#8ba0b5" font-size="20" text-anchor="end">Bearish (매도) · Score 83.0</text>
  <line x1="72" y1="58" x2="920" y2="58" stroke="#223045" stroke-width="1" stroke-dasharray="4 8" /><line x1="72" y1="156" x2="920" y2="156" stroke="#223045" stroke-width="1" stroke-dasharray="4 8" /><line x1="72" y1="255" x2="920" y2="255" stroke="#223045" stroke-width="1" stroke-dasharray="4 8" /><line x1="72" y1="353" x2="920" y2="353" stroke="#223045" stroke-width="1" stroke-dasharray="4 8" /><line x1="72" y1="452" x2="920" y2="452" stroke="#223045" stroke-width="1" stroke-dasharray="4 8" />
  <rect x="398.23" y="-141.11" width="84" height="211.71" fill="#fbbf24" fill-opacity="0.12" stroke="#fbbf24" stroke-width="1.5" stroke-dasharray="6 6" />
  <line x1="72.00" y1="271.39" x2="72.00" y2="303.43" stroke="#0ecb81" stroke-width="1.4" /><rect x="69.00" y="278.67" width="6" height="9.47" rx="1.5" fill="#0ecb81" /><line x1="82.73" y1="263.38" x2="82.73" y2="291.05" stroke="#0ecb81" stroke-width="1.4" /><rect x="79.73" y="275.03" width="6" height="4.37" rx="1.5" fill="#0ecb81" /><line x1="93.47" y1="245.17" x2="93.47" y2="275.03" stroke="#0ecb81" stroke-width="1.4" /><rect x="90.47" y="245.17" width="6" height="29.13" rx="1.5" fill="#0ecb81" /><line x1="104.20" y1="242.98" x2="104.20" y2="288.14" stroke="#f6465d" stroke-width="1.4" /><rect x="101.20" y="245.17" width="6" height="40.78" rx="1.5" fill="#f6465d" /><line x1="114.94" y1="252.45" x2="114.94" y2="316.54" stroke="#0ecb81" stroke-width="1.4" /><rect x="111.94" y="253.18" width="6" height="32.77" rx="1.5" fill="#0ecb81" /><line x1="125.67" y1="252.45" x2="125.67" y2="307.07" stroke="#f6465d" stroke-width="1.4" /><rect x="122.67" y="253.18" width="6" height="18.21" rx="1.5" fill="#f6465d" /><line x1="136.41" y1="159.96" x2="136.41" y2="271.39" stroke="#0ecb81" stroke-width="1.4" /><rect x="133.41" y="208.75" width="6" height="62.63" rx="1.5" fill="#0ecb81" /><line x1="147.14" y1="206.57" x2="147.14" y2="259.01" stroke="#f6465d" stroke-width="1.4" /><rect x="144.14" y="208.03" width="6" height="48.07" rx="1.5" fill="#f6465d" /><line x1="157.87" y1="250.27" x2="157.87" y2="286.68" stroke="#f6465d" stroke-width="1.4" /><rect x="154.87" y="256.09" width="6" height="3.64" rx="1.5" fill="#f6465d" /><line x1="168.61" y1="172.34" x2="168.61" y2="260.46" stroke="#0ecb81" stroke-width="1.4" /><rect x="165.61" y="173.80" width="6" height="86.67" rx="1.5" fill="#0ecb81" /><line x1="179.34" y1="163.60" x2="179.34" y2="218.22" stroke="#0ecb81" stroke-width="1.4" /><rect x="176.34" y="169.43" width="6" height="5.10" rx="1.5" fill="#0ecb81" /><line x1="190.08" y1="168.70" x2="190.08" y2="216.04" stroke="#f6465d" stroke-width="1.4" /><rect x="187.08" y="168.70" width="6" height="26.22" rx="1.5" fill="#f6465d" /><line x1="200.81" y1="194.19" x2="200.81" y2="218.22" stroke="#f6465d" stroke-width="1.4" /><rect x="197.81" y="194.19" width="6" height="10.20" rx="1.5" fill="#f6465d" /><line x1="211.54" y1="196.37" x2="211.54" y2="215.31" stroke="#f6465d" stroke-width="1.4" /><rect x="208.54" y="205.11" width="6" height="7.28" rx="1.5" fill="#f6465d" /><line x1="222.28" y1="212.40" x2="222.28" y2="259.01" stroke="#f6465d" stroke-width="1.4" /><rect x="219.28" y="212.40" width="6" height="18.21" rx="1.5" fill="#f6465d" /><line x1="233.01" y1="199.29" x2="233.01" y2="231.33" stroke="#0ecb81" stroke-width="1.4" /><rect x="230.01" y="202.20" width="6" height="29.13" rx="1.5" fill="#0ecb81" /><line x1="243.75" y1="183.99" x2="243.75" y2="216.77" stroke="#0ecb81" stroke-width="1.4" /><rect x="240.75" y="194.92" width="6" height="7.28" rx="1.5" fill="#0ecb81" /><line x1="254.48" y1="163.60" x2="254.48" y2="194.92" stroke="#0ecb81" stroke-width="1.4" /><rect x="251.48" y="183.99" width="6" height="10.92" rx="1.5" fill="#0ecb81" /><line x1="265.22" y1="166.51" x2="265.22" y2="201.47" stroke="#0ecb81" stroke-width="1.4" /><rect x="262.22" y="169.43" width="6" height="15.29" rx="1.5" fill="#0ecb81" /><line x1="275.95" y1="115.53" x2="275.95" y2="169.43" stroke="#0ecb81" stroke-width="1.4" /><rect x="272.95" y="128.64" width="6" height="40.78" rx="1.5" fill="#0ecb81" /><line x1="286.68" y1="87.13" x2="286.68" y2="138.11" stroke="#0ecb81" stroke-width="1.4" /><rect x="283.68" y="105.34" width="6" height="22.58" rx="1.5" fill="#0ecb81" /><line x1="297.42" y1="65.28" x2="297.42" y2="120.63" stroke="#f6465d" stroke-width="1.4" /><rect x="294.42" y="105.34" width="6" height="2.00" rx="1.5" fill="#f6465d" /><line x1="308.15" y1="106.07" x2="308.15" y2="133.01" stroke="#f6465d" stroke-width="1.4" /><rect x="305.15" y="106.79" width="6" height="14.57" rx="1.5" fill="#f6465d" /><line x1="318.89" y1="90.77" x2="318.89" y2="121.36" stroke="#0ecb81" stroke-width="1.4" /><rect x="315.89" y="96.60" width="6" height="24.03" rx="1.5" fill="#0ecb81" /><line x1="329.62" y1="68.20" x2="329.62" y2="112.62" stroke="#0ecb81" stroke-width="1.4" /><rect x="326.62" y="70.38" width="6" height="26.22" rx="1.5" fill="#0ecb81" /><line x1="340.35" y1="64.55" x2="340.35" y2="105.34" stroke="#f6465d" stroke-width="1.4" /><rect x="337.35" y="70.38" width="6" height="12.38" rx="1.5" fill="#f6465d" /><line x1="351.09" y1="58.00" x2="351.09" y2="100.97" stroke="#f6465d" stroke-width="1.4" /><rect x="348.09" y="82.76" width="6" height="10.20" rx="1.5" fill="#f6465d" /><line x1="361.82" y1="87.13" x2="361.82" y2="114.81" stroke="#f6465d" stroke-width="1.4" /><rect x="358.82" y="92.96" width="6" height="8.01" rx="1.5" fill="#f6465d" /><line x1="372.56" y1="74.75" x2="372.56" y2="136.65" stroke="#f6465d" stroke-width="1.4" /><rect x="369.56" y="100.97" width="6" height="24.03" rx="1.5" fill="#f6465d" /><line x1="383.29" y1="111.89" x2="383.29" y2="143.94" stroke="#f6465d" stroke-width="1.4" /><rect x="380.29" y="124.27" width="6" height="2.91" rx="1.5" fill="#f6465d" /><line x1="394.03" y1="127.19" x2="394.03" y2="173.07" stroke="#f6465d" stroke-width="1.4" /><rect x="391.03" y="127.19" width="6" height="24.76" rx="1.5" fill="#f6465d" /><line x1="404.76" y1="149.76" x2="404.76" y2="170.88" stroke="#f6465d" stroke-width="1.4" /><rect x="401.76" y="151.22" width="6" height="8.01" rx="1.5" fill="#f6465d" /><line x1="415.49" y1="111.16" x2="415.49" y2="163.60" stroke="#0ecb81" stroke-width="1.4" /><rect x="412.49" y="111.89" width="6" height="47.34" rx="1.5" fill="#0ecb81" /><line x1="426.23" y1="98.06" x2="426.23" y2="151.95" stroke="#f6465d" stroke-width="1.4" /><rect x="423.23" y="111.89" width="6" height="29.13" rx="1.5" fill="#f6465d" /><line x1="436.96" y1="127.91" x2="436.96" y2="157.77" stroke="#0ecb81" stroke-width="1.4" /><rect x="433.96" y="139.57" width="6" height="2.00" rx="1.5" fill="#0ecb81" /><line x1="447.70" y1="126.46" x2="447.70" y2="170.16" stroke="#f6465d" stroke-width="1.4" /><rect x="444.70" y="139.57" width="6" height="29.86" rx="1.5" fill="#f6465d" /><line x1="458.43" y1="169.43" x2="458.43" y2="247.35" stroke="#f6465d" stroke-width="1.4" /><rect x="455.43" y="170.16" width="6" height="62.63" rx="1.5" fill="#f6465d" /><line x1="469.16" y1="196.37" x2="469.16" y2="234.24" stroke="#0ecb81" stroke-width="1.4" /><rect x="466.16" y="199.29" width="6" height="33.50" rx="1.5" fill="#0ecb81" /><line x1="479.90" y1="188.36" x2="479.90" y2="234.97" stroke="#f6465d" stroke-width="1.4" /><rect x="476.90" y="199.29" width="6" height="29.86" rx="1.5" fill="#f6465d" /><line x1="490.63" y1="219.68" x2="490.63" y2="269.93" stroke="#f6465d" stroke-width="1.4" /><rect x="487.63" y="229.15" width="6" height="36.41" rx="1.5" fill="#f6465d" /><line x1="501.37" y1="238.61" x2="501.37" y2="265.56" stroke="#0ecb81" stroke-width="1.4" /><rect x="498.37" y="248.81" width="6" height="16.02" rx="1.5" fill="#0ecb81" /><line x1="512.10" y1="241.53" x2="512.10" y2="270.66" stroke="#f6465d" stroke-width="1.4" /><rect x="509.10" y="249.54" width="6" height="20.39" rx="1.5" fill="#f6465d" /><line x1="522.84" y1="269.20" x2="522.84" y2="307.80" stroke="#f6465d" stroke-width="1.4" /><rect x="519.84" y="269.93" width="6" height="21.85" rx="1.5" fill="#f6465d" /><line x1="533.57" y1="281.58" x2="533.57" y2="296.15" stroke="#0ecb81" stroke-width="1.4" /><rect x="530.57" y="281.58" width="6" height="10.20" rx="1.5" fill="#0ecb81" /><line x1="544.30" y1="242.26" x2="544.30" y2="285.22" stroke="#0ecb81" stroke-width="1.4" /><rect x="541.30" y="242.26" width="6" height="38.60" rx="1.5" fill="#0ecb81" /><line x1="555.04" y1="242.26" x2="555.04" y2="274.30" stroke="#f6465d" stroke-width="1.4" /><rect x="552.04" y="242.98" width="6" height="15.29" rx="1.5" fill="#f6465d" /><line x1="565.77" y1="258.28" x2="565.77" y2="265.56" stroke="#f6465d" stroke-width="1.4" /><rect x="562.77" y="259.01" width="6" height="4.37" rx="1.5" fill="#f6465d" /><line x1="576.51" y1="255.36" x2="576.51" y2="265.56" stroke="#f6465d" stroke-width="1.4" /><rect x="573.51" y="263.38" width="6" height="2.00" rx="1.5" fill="#f6465d" /><line x1="587.24" y1="264.10" x2="587.24" y2="302.70" stroke="#f6465d" stroke-width="1.4" /><rect x="584.24" y="264.10" width="6" height="34.23" rx="1.5" fill="#f6465d" /><line x1="597.97" y1="283.04" x2="597.97" y2="320.18" stroke="#0ecb81" stroke-width="1.4" /><rect x="594.97" y="283.77" width="6" height="14.57" rx="1.5" fill="#0ecb81" /><line x1="608.71" y1="278.67" x2="608.71" y2="319.45" stroke="#f6465d" stroke-width="1.4" /><rect x="605.71" y="283.04" width="6" height="20.39" rx="1.5" fill="#f6465d" /><line x1="619.44" y1="246.62" x2="619.44" y2="303.43" stroke="#0ecb81" stroke-width="1.4" /><rect x="616.44" y="250.27" width="6" height="53.16" rx="1.5" fill="#0ecb81" /><line x1="630.18" y1="218.95" x2="630.18" y2="256.82" stroke="#f6465d" stroke-width="1.4" /><rect x="627.18" y="250.27" width="6" height="2.91" rx="1.5" fill="#f6465d" /><line x1="640.91" y1="236.43" x2="640.91" y2="277.21" stroke="#0ecb81" stroke-width="1.4" /><rect x="637.91" y="248.08" width="6" height="5.10" rx="1.5" fill="#0ecb81" /><line x1="651.65" y1="226.23" x2="651.65" y2="257.55" stroke="#f6465d" stroke-width="1.4" /><rect x="648.65" y="248.08" width="6" height="2.18" rx="1.5" fill="#f6465d" /><line x1="662.38" y1="242.26" x2="662.38" y2="268.47" stroke="#f6465d" stroke-width="1.4" /><rect x="659.38" y="249.54" width="6" height="10.92" rx="1.5" fill="#f6465d" /><line x1="673.11" y1="231.33" x2="673.11" y2="269.20" stroke="#0ecb81" stroke-width="1.4" /><rect x="670.11" y="231.33" width="6" height="28.40" rx="1.5" fill="#0ecb81" /><line x1="683.85" y1="208.03" x2="683.85" y2="257.55" stroke="#0ecb81" stroke-width="1.4" /><rect x="680.85" y="211.67" width="6" height="19.66" rx="1.5" fill="#0ecb81" /><line x1="694.58" y1="207.30" x2="694.58" y2="244.44" stroke="#f6465d" stroke-width="1.4" /><rect x="691.58" y="211.67" width="6" height="11.65" rx="1.5" fill="#f6465d" /><line x1="705.32" y1="184.72" x2="705.32" y2="222.59" stroke="#0ecb81" stroke-width="1.4" /><rect x="702.32" y="184.72" width="6" height="37.87" rx="1.5" fill="#0ecb81" /><line x1="716.05" y1="184.72" x2="716.05" y2="240.07" stroke="#f6465d" stroke-width="1.4" /><rect x="713.05" y="185.45" width="6" height="39.33" rx="1.5" fill="#f6465d" /><line x1="726.78" y1="192.00" x2="726.78" y2="229.15" stroke="#0ecb81" stroke-width="1.4" /><rect x="723.78" y="207.30" width="6" height="17.48" rx="1.5" fill="#0ecb81" /><line x1="737.52" y1="190.55" x2="737.52" y2="233.52" stroke="#f6465d" stroke-width="1.4" /><rect x="734.52" y="207.30" width="6" height="8.74" rx="1.5" fill="#f6465d" /><line x1="748.25" y1="204.38" x2="748.25" y2="227.69" stroke="#f6465d" stroke-width="1.4" /><rect x="745.25" y="216.04" width="6" height="10.92" rx="1.5" fill="#f6465d" /><line x1="758.99" y1="225.50" x2="758.99" y2="274.30" stroke="#f6465d" stroke-width="1.4" /><rect x="755.99" y="226.96" width="6" height="16.75" rx="1.5" fill="#f6465d" /><line x1="769.72" y1="234.97" x2="769.72" y2="285.95" stroke="#f6465d" stroke-width="1.4" /><rect x="766.72" y="243.71" width="6" height="34.96" rx="1.5" fill="#f6465d" /><line x1="780.46" y1="248.08" x2="780.46" y2="296.15" stroke="#0ecb81" stroke-width="1.4" /><rect x="777.46" y="277.21" width="6" height="2.00" rx="1.5" fill="#0ecb81" /><line x1="791.19" y1="264.10" x2="791.19" y2="287.41" stroke="#0ecb81" stroke-width="1.4" /><rect x="788.19" y="273.57" width="6" height="3.64" rx="1.5" fill="#0ecb81" /><line x1="801.92" y1="244.44" x2="801.92" y2="298.33" stroke="#0ecb81" stroke-width="1.4" /><rect x="798.92" y="266.29" width="6" height="6.55" rx="1.5" fill="#0ecb81" /><line x1="812.66" y1="226.23" x2="812.66" y2="285.95" stroke="#f6465d" stroke-width="1.4" /><rect x="809.66" y="266.29" width="6" height="8.74" rx="1.5" fill="#f6465d" /><line x1="823.39" y1="275.03" x2="823.39" y2="326.01" stroke="#f6465d" stroke-width="1.4" /><rect x="820.39" y="275.03" width="6" height="15.29" rx="1.5" fill="#f6465d" /><line x1="834.13" y1="240.80" x2="834.13" y2="312.90" stroke="#0ecb81" stroke-width="1.4" /><rect x="831.13" y="242.26" width="6" height="48.07" rx="1.5" fill="#0ecb81" /><line x1="844.86" y1="210.21" x2="844.86" y2="257.55" stroke="#0ecb81" stroke-width="1.4" /><rect x="841.86" y="237.89" width="6" height="4.37" rx="1.5" fill="#0ecb81" /><line x1="855.59" y1="191.28" x2="855.59" y2="238.61" stroke="#0ecb81" stroke-width="1.4" /><rect x="852.59" y="208.03" width="6" height="30.59" rx="1.5" fill="#0ecb81" /><line x1="866.33" y1="200.74" x2="866.33" y2="421.41" stroke="#f6465d" stroke-width="1.4" /><rect x="863.33" y="207.30" width="6" height="195.91" rx="1.5" fill="#f6465d" /><line x1="877.06" y1="318.72" x2="877.06" y2="430.15" stroke="#0ecb81" stroke-width="1.4" /><rect x="874.06" y="357.32" width="6" height="45.88" rx="1.5" fill="#0ecb81" /><line x1="887.80" y1="304.89" x2="887.80" y2="386.45" stroke="#0ecb81" stroke-width="1.4" /><rect x="884.80" y="304.89" width="6" height="52.44" rx="1.5" fill="#0ecb81" /><line x1="898.53" y1="298.33" x2="898.53" y2="377.72" stroke="#f6465d" stroke-width="1.4" /><rect x="895.53" y="304.89" width="6" height="50.98" rx="1.5" fill="#f6465d" /><line x1="909.27" y1="350.77" x2="909.27" y2="451.27" stroke="#f6465d" stroke-width="1.4" /><rect x="906.27" y="355.87" width="6" height="85.94" rx="1.5" fill="#f6465d" /><line x1="920.00" y1="419.23" x2="920.00" y2="452.00" stroke="#0ecb81" stroke-width="1.4" /><rect x="917.00" y="419.96" width="6" height="21.85" rx="1.5" fill="#0ecb81" />
  <polyline points="136.41,159.96 222.28,259.01 351.09,58.00 394.03,173.07 426.23,98.06" fill="none" stroke="#2fc273" stroke-width="4" stroke-linecap="round" stroke-linejoin="round" />
  <circle cx="136.41" cy="159.96" r="5.5" fill="#2fc273" fill-opacity="0.15" stroke="#2fc273" stroke-width="2" /><text x="136.41" y="147.96" fill="#f3f4f6" font-size="15" font-weight="700" text-anchor="middle">X</text><circle cx="222.28" cy="259.01" r="5.5" fill="#2fc273" fill-opacity="0.15" stroke="#2fc273" stroke-width="2" /><text x="222.28" y="247.01" fill="#f3f4f6" font-size="15" font-weight="700" text-anchor="middle">A</text><circle cx="351.09" cy="58.00" r="5.5" fill="#2fc273" fill-opacity="0.15" stroke="#2fc273" stroke-width="2" /><text x="351.09" y="46.00" fill="#f3f4f6" font-size="15" font-weight="700" text-anchor="middle">B</text><circle cx="394.03" cy="173.07" r="5.5" fill="#2fc273" fill-opacity="0.15" stroke="#2fc273" stroke-width="2" /><text x="394.03" y="161.07" fill="#f3f4f6" font-size="15" font-weight="700" text-anchor="middle">C</text><circle cx="426.23" cy="98.06" r="5.5" fill="#2fc273" fill-opacity="0.15" stroke="#2fc273" stroke-width="2" /><text x="426.23" y="86.06" fill="#f3f4f6" font-size="15" font-weight="700" text-anchor="middle">D</text>
  <text x="56" y="492" fill="#8ba0b5" font-size="18">Complete · TP1 579.257 · TP2 579.013 · SL 579.827</text>
</svg>
