<svg xmlns="http://www.w3.org/2000/svg" width="960" height="540" viewBox="0 0 960 540">
  <rect width="960" height="540" rx="24" fill="#0b1220" />
  <rect x="28" y="28" width="904" height="484" rx="22" fill="#111827" stroke="#1f2937" />
  <text x="56" y="74" fill="#f3f4f6" font-size="34" font-weight="700">BNBUSDT · AB=CD</text>
  <text x="904" y="74" fill="#8ba0b5" font-size="20" text-anchor="end">Bearish (매도) · Score 88.4</text>
  <line x1="72" y1="58" x2="920" y2="58" stroke="#223045" stroke-width="1" stroke-dasharray="4 8" /><line x1="72" y1="156" x2="920" y2="156" stroke="#223045" stroke-width="1" stroke-dasharray="4 8" /><line x1="72" y1="255" x2="920" y2="255" stroke="#223045" stroke-width="1" stroke-dasharray="4 8" /><line x1="72" y1="353" x2="920" y2="353" stroke="#223045" stroke-width="1" stroke-dasharray="4 8" /><line x1="72" y1="452" x2="920" y2="452" stroke="#223045" stroke-width="1" stroke-dasharray="4 8" />
  <rect x="301.62" y="8.60" width="84" height="141.78" fill="#fbbf24" fill-opacity="0.12" stroke="#fbbf24" stroke-width="1.5" stroke-dasharray="6 6" />
  <line x1="72.00" y1="300.97" x2="72.00" y2="327.65" stroke="#f6465d" stroke-width="1.4" /><rect x="69.00" y="322.89" width="6" height="3.33" rx="1.5" fill="#f6465d" /><line x1="82.73" y1="306.22" x2="82.73" y2="331.47" stroke="#0ecb81" stroke-width="1.4" /><rect x="79.73" y="306.22" width="6" height="19.53" rx="1.5" fill="#0ecb81" /><line x1="93.47" y1="290.49" x2="93.47" y2="306.22" stroke="#0ecb81" stroke-width="1.4" /><rect x="90.47" y="292.88" width="6" height="12.86" rx="1.5" fill="#0ecb81" /><line x1="104.20" y1="276.20" x2="104.20" y2="308.60" stroke="#0ecb81" stroke-width="1.4" /><rect x="101.20" y="280.01" width="6" height="12.86" rx="1.5" fill="#0ecb81" /><line x1="114.94" y1="245.23" x2="114.94" y2="280.01" stroke="#0ecb81" stroke-width="1.4" /><rect x="111.94" y="258.57" width="6" height="20.96" rx="1.5" fill="#0ecb81" /><line x1="125.67" y1="239.04" x2="125.67" y2="259.05" stroke="#0ecb81" stroke-width="1.4" /><rect x="122.67" y="239.52" width="6" height="19.06" rx="1.5" fill="#0ecb81" /><line x1="136.41" y1="222.84" x2="136.41" y2="239.52" stroke="#0ecb81" stroke-width="1.4" /><rect x="133.41" y="222.84" width="6" height="16.20" rx="1.5" fill="#0ecb81" /><line x1="147.14" y1="207.60" x2="147.14" y2="223.32" stroke="#0ecb81" stroke-width="1.4" /><rect x="144.14" y="221.41" width="6" height="2.00" rx="1.5" fill="#0ecb81" /><line x1="157.87" y1="202.83" x2="157.87" y2="226.18" stroke="#0ecb81" stroke-width="1.4" /><rect x="154.87" y="216.65" width="6" height="4.76" rx="1.5" fill="#0ecb81" /><line x1="168.61" y1="190.92" x2="168.61" y2="218.55" stroke="#0ecb81" stroke-width="1.4" /><rect x="165.61" y="192.83" width="6" height="23.82" rx="1.5" fill="#0ecb81" /><line x1="179.34" y1="161.38" x2="179.34" y2="200.45" stroke="#0ecb81" stroke-width="1.4" /><rect x="176.34" y="178.06" width="6" height="15.25" rx="1.5" fill="#0ecb81" /><line x1="190.08" y1="169.01" x2="190.08" y2="186.63" stroke="#f6465d" stroke-width="1.4" /><rect x="187.08" y="177.58" width="6" height="2.00" rx="1.5" fill="#f6465d" /><line x1="200.81" y1="178.06" x2="200.81" y2="182.35" stroke="#f6465d" stroke-width="1.4" /><rect x="197.81" y="178.53" width="6" height="2.00" rx="1.5" fill="#f6465d" /><line x1="211.54" y1="179.96" x2="211.54" y2="211.41" stroke="#f6465d" stroke-width="1.4" /><rect x="208.54" y="179.96" width="6" height="26.68" rx="1.5" fill="#f6465d" /><line x1="222.28" y1="189.49" x2="222.28" y2="208.55" stroke="#0ecb81" stroke-width="1.4" /><rect x="219.28" y="195.21" width="6" height="11.43" rx="1.5" fill="#0ecb81" /><line x1="233.01" y1="143.28" x2="233.01" y2="195.21" stroke="#0ecb81" stroke-width="1.4" /><rect x="230.01" y="148.52" width="6" height="46.21" rx="1.5" fill="#0ecb81" /><line x1="243.75" y1="146.14" x2="243.75" y2="179.01" stroke="#f6465d" stroke-width="1.4" /><rect x="240.75" y="148.04" width="6" height="26.20" rx="1.5" fill="#f6465d" /><line x1="254.48" y1="159.48" x2="254.48" y2="184.25" stroke="#0ecb81" stroke-width="1.4" /><rect x="251.48" y="167.58" width="6" height="6.67" rx="1.5" fill="#0ecb81" /><line x1="265.22" y1="162.81" x2="265.22" y2="172.34" stroke="#0ecb81" stroke-width="1.4" /><rect x="262.22" y="166.15" width="6" height="2.00" rx="1.5" fill="#0ecb81" /><line x1="275.95" y1="154.24" x2="275.95" y2="174.25" stroke="#0ecb81" stroke-width="1.4" /><rect x="272.95" y="158.52" width="6" height="8.10" rx="1.5" fill="#0ecb81" /><line x1="286.68" y1="141.85" x2="286.68" y2="158.52" stroke="#0ecb81" stroke-width="1.4" /><rect x="283.68" y="142.33" width="6" height="16.20" rx="1.5" fill="#0ecb81" /><line x1="297.42" y1="137.09" x2="297.42" y2="149.47" stroke="#f6465d" stroke-width="1.4" /><rect x="294.42" y="142.33" width="6" height="3.33" rx="1.5" fill="#f6465d" /><line x1="308.15" y1="132.80" x2="308.15" y2="153.28" stroke="#0ecb81" stroke-width="1.4" /><rect x="305.15" y="144.23" width="6" height="2.00" rx="1.5" fill="#0ecb81" /><line x1="318.89" y1="133.75" x2="318.89" y2="146.61" stroke="#0ecb81" stroke-width="1.4" /><rect x="315.89" y="135.18" width="6" height="8.58" rx="1.5" fill="#0ecb81" /><line x1="329.62" y1="127.08" x2="329.62" y2="145.19" stroke="#0ecb81" stroke-width="1.4" /><rect x="326.62" y="130.89" width="6" height="4.76" rx="1.5" fill="#0ecb81" /><line x1="340.35" y1="130.89" x2="340.35" y2="147.57" stroke="#f6465d" stroke-width="1.4" /><rect x="337.35" y="130.89" width="6" height="14.29" rx="1.5" fill="#f6465d" /><line x1="351.09" y1="145.19" x2="351.09" y2="154.71" stroke="#f6465d" stroke-width="1.4" /><rect x="348.09" y="145.66" width="6" height="3.81" rx="1.5" fill="#f6465d" /><line x1="361.82" y1="149.00" x2="361.82" y2="168.05" stroke="#f6465d" stroke-width="1.4" /><rect x="358.82" y="149.47" width="6" height="5.72" rx="1.5" fill="#f6465d" /><line x1="372.56" y1="139.47" x2="372.56" y2="155.67" stroke="#0ecb81" stroke-width="1.4" /><rect x="369.56" y="151.38" width="6" height="3.81" rx="1.5" fill="#0ecb81" /><line x1="383.29" y1="146.61" x2="383.29" y2="173.77" stroke="#f6465d" stroke-width="1.4" /><rect x="380.29" y="151.38" width="6" height="18.10" rx="1.5" fill="#f6465d" /><line x1="394.03" y1="159.95" x2="394.03" y2="172.82" stroke="#f6465d" stroke-width="1.4" /><rect x="391.03" y="169.48" width="6" height="2.00" rx="1.5" fill="#f6465d" /><line x1="404.76" y1="156.62" x2="404.76" y2="172.34" stroke="#0ecb81" stroke-width="1.4" /><rect x="401.76" y="169.48" width="6" height="2.00" rx="1.5" fill="#0ecb81" /><line x1="415.49" y1="159.95" x2="415.49" y2="172.34" stroke="#0ecb81" stroke-width="1.4" /><rect x="412.49" y="159.95" width="6" height="9.53" rx="1.5" fill="#0ecb81" /><line x1="426.23" y1="147.57" x2="426.23" y2="171.39" stroke="#0ecb81" stroke-width="1.4" /><rect x="423.23" y="152.33" width="6" height="7.62" rx="1.5" fill="#0ecb81" /><line x1="436.96" y1="58.00" x2="436.96" y2="152.81" stroke="#0ecb81" stroke-width="1.4" /><rect x="433.96" y="117.08" width="6" height="35.26" rx="1.5" fill="#0ecb81" /><line x1="447.70" y1="98.02" x2="447.70" y2="117.08" stroke="#0ecb81" stroke-width="1.4" /><rect x="444.70" y="98.02" width="6" height="19.06" rx="1.5" fill="#0ecb81" /><line x1="458.43" y1="93.73" x2="458.43" y2="120.41" stroke="#f6465d" stroke-width="1.4" /><rect x="455.43" y="98.50" width="6" height="20.49" rx="1.5" fill="#f6465d" /><line x1="469.16" y1="109.93" x2="469.16" y2="131.37" stroke="#f6465d" stroke-width="1.4" /><rect x="466.16" y="119.46" width="6" height="7.15" rx="1.5" fill="#f6465d" /><line x1="479.90" y1="121.36" x2="479.90" y2="129.46" stroke="#f6465d" stroke-width="1.4" /><rect x="476.90" y="126.60" width="6" height="2.38" rx="1.5" fill="#f6465d" /><line x1="490.63" y1="99.93" x2="490.63" y2="144.23" stroke="#0ecb81" stroke-width="1.4" /><rect x="487.63" y="125.18" width="6" height="4.29" rx="1.5" fill="#0ecb81" /><line x1="501.37" y1="112.79" x2="501.37" y2="136.13" stroke="#f6465d" stroke-width="1.4" /><rect x="498.37" y="124.70" width="6" height="11.43" rx="1.5" fill="#f6465d" /><line x1="512.10" y1="123.75" x2="512.10" y2="137.09" stroke="#0ecb81" stroke-width="1.4" /><rect x="509.10" y="131.85" width="6" height="4.29" rx="1.5" fill="#0ecb81" /><line x1="522.84" y1="108.50" x2="522.84" y2="137.09" stroke="#0ecb81" stroke-width="1.4" /><rect x="519.84" y="123.27" width="6" height="8.58" rx="1.5" fill="#0ecb81" /><line x1="533.57" y1="119.46" x2="533.57" y2="142.80" stroke="#f6465d" stroke-width="1.4" /><rect x="530.57" y="122.79" width="6" height="20.01" rx="1.5" fill="#f6465d" /><line x1="544.30" y1="141.37" x2="544.30" y2="169.01" stroke="#f6465d" stroke-width="1.4" /><rect x="541.30" y="142.80" width="6" height="18.58" rx="1.5" fill="#f6465d" /><line x1="555.04" y1="142.80" x2="555.04" y2="165.19" stroke="#0ecb81" stroke-width="1.4" /><rect x="552.04" y="142.80" width="6" height="19.06" rx="1.5" fill="#0ecb81" /><line x1="565.77" y1="133.75" x2="565.77" y2="159.00" stroke="#0ecb81" stroke-width="1.4" /><rect x="562.77" y="136.13" width="6" height="7.15" rx="1.5" fill="#0ecb81" /><line x1="576.51" y1="132.80" x2="576.51" y2="147.57" stroke="#f6465d" stroke-width="1.4" /><rect x="573.51" y="135.66" width="6" height="11.91" rx="1.5" fill="#f6465d" /><line x1="587.24" y1="134.23" x2="587.24" y2="148.04" stroke="#0ecb81" stroke-width="1.4" /><rect x="584.24" y="135.66" width="6" height="11.91" rx="1.5" fill="#0ecb81" /><line x1="597.97" y1="128.51" x2="597.97" y2="135.66" stroke="#0ecb81" stroke-width="1.4" /><rect x="594.97" y="130.89" width="6" height="4.76" rx="1.5" fill="#0ecb81" /><line x1="608.71" y1="119.93" x2="608.71" y2="130.89" stroke="#0ecb81" stroke-width="1.4" /><rect x="605.71" y="119.93" width="6" height="10.48" rx="1.5" fill="#0ecb81" /><line x1="619.44" y1="119.93" x2="619.44" y2="159.00" stroke="#f6465d" stroke-width="1.4" /><rect x="616.44" y="119.93" width="6" height="39.07" rx="1.5" fill="#f6465d" /><line x1="630.18" y1="138.04" x2="630.18" y2="159.00" stroke="#0ecb81" stroke-width="1.4" /><rect x="627.18" y="145.66" width="6" height="12.86" rx="1.5" fill="#0ecb81" /><line x1="640.91" y1="145.19" x2="640.91" y2="176.15" stroke="#f6465d" stroke-width="1.4" /><rect x="637.91" y="145.19" width="6" height="28.11" rx="1.5" fill="#f6465d" /><line x1="651.65" y1="164.24" x2="651.65" y2="190.92" stroke="#f6465d" stroke-width="1.4" /><rect x="648.65" y="173.29" width="6" height="9.53" rx="1.5" fill="#f6465d" /><line x1="662.38" y1="172.82" x2="662.38" y2="193.78" stroke="#f6465d" stroke-width="1.4" /><rect x="659.38" y="183.30" width="6" height="10.48" rx="1.5" fill="#f6465d" /><line x1="673.11" y1="188.54" x2="673.11" y2="203.31" stroke="#f6465d" stroke-width="1.4" /><rect x="670.11" y="193.78" width="6" height="9.53" rx="1.5" fill="#f6465d" /><line x1="683.85" y1="196.64" x2="683.85" y2="267.15" stroke="#f6465d" stroke-width="1.4" /><rect x="680.85" y="203.31" width="6" height="55.74" rx="1.5" fill="#f6465d" /><line x1="694.58" y1="248.57" x2="694.58" y2="297.64" stroke="#f6465d" stroke-width="1.4" /><rect x="691.58" y="258.57" width="6" height="20.49" rx="1.5" fill="#f6465d" /><line x1="705.32" y1="269.53" x2="705.32" y2="319.56" stroke="#f6465d" stroke-width="1.4" /><rect x="702.32" y="278.58" width="6" height="30.97" rx="1.5" fill="#f6465d" /><line x1="716.05" y1="308.12" x2="716.05" y2="357.67" stroke="#f6465d" stroke-width="1.4" /><rect x="713.05" y="309.55" width="6" height="38.11" rx="1.5" fill="#f6465d" /><line x1="726.78" y1="319.08" x2="726.78" y2="349.09" stroke="#0ecb81" stroke-width="1.4" /><rect x="723.78" y="330.99" width="6" height="16.20" rx="1.5" fill="#0ecb81" /><line x1="737.52" y1="321.94" x2="737.52" y2="336.23" stroke="#f6465d" stroke-width="1.4" /><rect x="734.52" y="331.47" width="6" height="4.76" rx="1.5" fill="#f6465d" /><line x1="748.25" y1="330.51" x2="748.25" y2="360.05" stroke="#f6465d" stroke-width="1.4" /><rect x="745.25" y="335.75" width="6" height="2.86" rx="1.5" fill="#f6465d" /><line x1="758.99" y1="336.71" x2="758.99" y2="357.67" stroke="#f6465d" stroke-width="1.4" /><rect x="755.99" y="338.14" width="6" height="9.05" rx="1.5" fill="#f6465d" /><line x1="769.72" y1="329.08" x2="769.72" y2="404.36" stroke="#f6465d" stroke-width="1.4" /><rect x="766.72" y="346.71" width="6" height="52.41" rx="1.5" fill="#f6465d" /><line x1="780.46" y1="380.06" x2="780.46" y2="409.60" stroke="#0ecb81" stroke-width="1.4" /><rect x="777.46" y="380.54" width="6" height="18.58" rx="1.5" fill="#0ecb81" /><line x1="791.19" y1="354.81" x2="791.19" y2="383.40" stroke="#0ecb81" stroke-width="1.4" /><rect x="788.19" y="365.29" width="6" height="14.77" rx="1.5" fill="#0ecb81" /><line x1="801.92" y1="356.72" x2="801.92" y2="442.95" stroke="#f6465d" stroke-width="1.4" /><rect x="798.92" y="365.77" width="6" height="68.13" rx="1.5" fill="#f6465d" /><line x1="812.66" y1="407.69" x2="812.66" y2="452.00" stroke="#0ecb81" stroke-width="1.4" /><rect x="809.66" y="422.94" width="6" height="10.96" rx="1.5" fill="#0ecb81" /><line x1="823.39" y1="404.83" x2="823.39" y2="431.51" stroke="#0ecb81" stroke-width="1.4" /><rect x="820.39" y="404.83" width="6" height="18.10" rx="1.5" fill="#0ecb81" /><line x1="834.13" y1="392.45" x2="834.13" y2="412.93" stroke="#0ecb81" stroke-width="1.4" /><rect x="831.13" y="395.31" width="6" height="10.00" rx="1.5" fill="#0ecb81" /><line x1="844.86" y1="375.30" x2="844.86" y2="395.78" stroke="#0ecb81" stroke-width="1.4" /><rect x="841.86" y="383.40" width="6" height="12.39" rx="1.5" fill="#0ecb81" /><line x1="855.59" y1="350.05" x2="855.59" y2="383.87" stroke="#0ecb81" stroke-width="1.4" /><rect x="852.59" y="364.34" width="6" height="19.06" rx="1.5" fill="#0ecb81" /><line x1="866.33" y1="340.52" x2="866.33" y2="369.58" stroke="#0ecb81" stroke-width="1.4" /><rect x="863.33" y="359.57" width="6" height="4.76" rx="1.5" fill="#0ecb81" /><line x1="877.06" y1="298.59" x2="877.06" y2="372.44" stroke="#0ecb81" stroke-width="1.4" /><rect x="874.06" y="305.26" width="6" height="54.31" rx="1.5" fill="#0ecb81" /><line x1="887.80" y1="305.26" x2="887.80" y2="338.14" stroke="#f6465d" stroke-width="1.4" /><rect x="884.80" y="305.26" width="6" height="15.72" rx="1.5" fill="#f6465d" /><line x1="898.53" y1="310.03" x2="898.53" y2="340.04" stroke="#f6465d" stroke-width="1.4" /><rect x="895.53" y="320.98" width="6" height="8.10" rx="1.5" fill="#f6465d" /><line x1="909.27" y1="324.32" x2="909.27" y2="354.33" stroke="#f6465d" stroke-width="1.4" /><rect x="906.27" y="329.56" width="6" height="12.86" rx="1.5" fill="#f6465d" /><line x1="920.00" y1="337.18" x2="920.00" y2="354.33" stroke="#0ecb81" stroke-width="1.4" /><rect x="917.00" y="337.18" width="6" height="4.76" rx="1.5" fill="#0ecb81" />
  <polyline points="72.00,244.28 82.73,331.47 179.34,161.38 211.54,211.41 329.62,127.08" fill="none" stroke="#2fc273" stroke-width="4" stroke-linecap="round" stroke-linejoin="round" />
  <circle cx="72.00" cy="244.28" r="5.5" fill="#2fc273" fill-opacity="0.15" stroke="#2fc273" stroke-width="2" /><text x="72.00" y="232.28" fill="#f3f4f6" font-size="15" font-weight="700" text-anchor="middle">X</text><circle cx="82.73" cy="331.47" r="5.5" fill="#2fc273" fill-opacity="0.15" stroke="#2fc273" stroke-width="2" /><text x="82.73" y="319.47" fill="#f3f4f6" font-size="15" font-weight="700" text-anchor="middle">A</text><circle cx="179.34" cy="161.38" r="5.5" fill="#2fc273" fill-opacity="0.15" stroke="#2fc273" stroke-width="2" /><text x="179.34" y="149.38" fill="#f3f4f6" font-size="15" font-weight="700" text-anchor="middle">B</text><circle cx="211.54" cy="211.41" r="5.5" fill="#2fc273" fill-opacity="0.15" stroke="#2fc273" stroke-width="2" /><text x="211.54" y="199.41" fill="#f3f4f6" font-size="15" font-weight="700" text-anchor="middle">C</text><circle cx="329.62" cy="127.08" r="5.5" fill="#2fc273" fill-opacity="0.15" stroke="#2fc273" stroke-width="2" /><text x="329.62" y="115.08" fill="#f3f4f6" font-size="15" font-weight="700" text-anchor="middle">D</text>
  <text x="56" y="492" fill="#8ba0b5" font-size="18">일반 완성 · TP1 593.414 · TP2 592.996 · SL 594.328</text>
</svg>
