<svg xmlns="http://www.w3.org/2000/svg" width="960" height="540" viewBox="0 0 960 540">
  <rect width="960" height="540" rx="24" fill="#0b1220" />
  <rect x="28" y="28" width="904" height="484" rx="22" fill="#111827" stroke="#1f2937" />
  <text x="56" y="74" fill="#f3f4f6" font-size="34" font-weight="700">BRUSDT · AB=CD</text>
  <text x="904" y="74" fill="#8ba0b5" font-size="20" text-anchor="end">Bearish (매도) · Score 80.3</text>
  <line x1="72" y1="58" x2="920" y2="58" stroke="#223045" stroke-width="1" stroke-dasharray="4 8" /><line x1="72" y1="156" x2="920" y2="156" stroke="#223045" stroke-width="1" stroke-dasharray="4 8" /><line x1="72" y1="255" x2="920" y2="255" stroke="#223045" stroke-width="1" stroke-dasharray="4 8" /><line x1="72" y1="353" x2="920" y2="353" stroke="#223045" stroke-width="1" stroke-dasharray="4 8" /><line x1="72" y1="452" x2="920" y2="452" stroke="#223045" stroke-width="1" stroke-dasharray="4 8" />
  <rect x="366.03" y="-56.55" width="84" height="75.69" fill="#fbbf24" fill-opacity="0.12" stroke="#fbbf24" stroke-width="1.5" stroke-dasharray="6 6" />
  <line x1="72.00" y1="68.48" x2="72.00" y2="129.30" stroke="#f6465d" stroke-width="1.4" /><rect x="69.00" y="68.48" width="6" height="37.17" rx="1.5" fill="#f6465d" /><line x1="82.73" y1="105.64" x2="82.73" y2="132.00" stroke="#f6465d" stroke-width="1.4" /><rect x="79.73" y="105.98" width="6" height="21.29" rx="1.5" fill="#f6465d" /><line x1="93.47" y1="115.11" x2="93.47" y2="144.50" stroke="#f6465d" stroke-width="1.4" /><rect x="90.47" y="127.61" width="6" height="10.81" rx="1.5" fill="#f6465d" /><line x1="104.20" y1="114.77" x2="104.20" y2="227.97" stroke="#f6465d" stroke-width="1.4" /><rect x="101.20" y="138.76" width="6" height="23.32" rx="1.5" fill="#f6465d" /><line x1="114.94" y1="150.59" x2="114.94" y2="207.02" stroke="#f6465d" stroke-width="1.4" /><rect x="111.94" y="162.08" width="6" height="2.03" rx="1.5" fill="#f6465d" /><line x1="125.67" y1="91.45" x2="125.67" y2="164.78" stroke="#0ecb81" stroke-width="1.4" /><rect x="122.67" y="117.81" width="6" height="46.29" rx="1.5" fill="#0ecb81" /><line x1="136.41" y1="120.51" x2="136.41" y2="220.53" stroke="#f6465d" stroke-width="1.4" /><rect x="133.41" y="120.51" width="6" height="62.85" rx="1.5" fill="#f6465d" /><line x1="147.14" y1="171.54" x2="147.14" y2="188.77" stroke="#0ecb81" stroke-width="1.4" /><rect x="144.14" y="180.66" width="6" height="2.03" rx="1.5" fill="#0ecb81" /><line x1="157.87" y1="137.75" x2="157.87" y2="185.05" stroke="#0ecb81" stroke-width="1.4" /><rect x="154.87" y="147.21" width="6" height="33.45" rx="1.5" fill="#0ecb81" /><line x1="168.61" y1="142.14" x2="168.61" y2="181.34" stroke="#f6465d" stroke-width="1.4" /><rect x="165.61" y="146.87" width="6" height="10.48" rx="1.5" fill="#f6465d" /><line x1="179.34" y1="94.16" x2="179.34" y2="157.01" stroke="#0ecb81" stroke-width="1.4" /><rect x="176.34" y="98.21" width="6" height="58.80" rx="1.5" fill="#0ecb81" /><line x1="190.08" y1="90.10" x2="190.08" y2="123.55" stroke="#f6465d" stroke-width="1.4" /><rect x="187.08" y="97.87" width="6" height="3.38" rx="1.5" fill="#f6465d" /><line x1="200.81" y1="92.80" x2="200.81" y2="170.19" stroke="#f6465d" stroke-width="1.4" /><rect x="197.81" y="100.91" width="6" height="57.44" rx="1.5" fill="#f6465d" /><line x1="211.54" y1="64.76" x2="211.54" y2="157.68" stroke="#0ecb81" stroke-width="1.4" /><rect x="208.54" y="74.56" width="6" height="83.13" rx="1.5" fill="#0ecb81" /><line x1="222.28" y1="73.54" x2="222.28" y2="155.66" stroke="#f6465d" stroke-width="1.4" /><rect x="219.28" y="74.56" width="6" height="61.50" rx="1.5" fill="#f6465d" /><line x1="233.01" y1="91.11" x2="233.01" y2="140.45" stroke="#0ecb81" stroke-width="1.4" /><rect x="230.01" y="103.96" width="6" height="31.76" rx="1.5" fill="#0ecb81" /><line x1="243.75" y1="61.04" x2="243.75" y2="134.03" stroke="#0ecb81" stroke-width="1.4" /><rect x="240.75" y="61.04" width="6" height="43.59" rx="1.5" fill="#0ecb81" /><line x1="254.48" y1="58.00" x2="254.48" y2="116.80" stroke="#f6465d" stroke-width="1.4" /><rect x="251.48" y="60.70" width="6" height="40.21" rx="1.5" fill="#f6465d" /><line x1="265.22" y1="98.21" x2="265.22" y2="150.59" stroke="#f6465d" stroke-width="1.4" /><rect x="262.22" y="101.25" width="6" height="43.93" rx="1.5" fill="#f6465d" /><line x1="275.95" y1="108.69" x2="275.95" y2="152.95" stroke="#0ecb81" stroke-width="1.4" /><rect x="272.95" y="110.71" width="6" height="34.47" rx="1.5" fill="#0ecb81" /><line x1="286.68" y1="92.80" x2="286.68" y2="165.79" stroke="#f6465d" stroke-width="1.4" /><rect x="283.68" y="110.38" width="6" height="37.17" rx="1.5" fill="#f6465d" /><line x1="297.42" y1="102.27" x2="297.42" y2="173.90" stroke="#0ecb81" stroke-width="1.4" /><rect x="294.42" y="130.31" width="6" height="16.22" rx="1.5" fill="#0ecb81" /><line x1="308.15" y1="112.40" x2="308.15" y2="144.50" stroke="#0ecb81" stroke-width="1.4" /><rect x="305.15" y="126.60" width="6" height="4.05" rx="1.5" fill="#0ecb81" /><line x1="318.89" y1="119.84" x2="318.89" y2="145.18" stroke="#f6465d" stroke-width="1.4" /><rect x="315.89" y="126.93" width="6" height="13.18" rx="1.5" fill="#f6465d" /><line x1="329.62" y1="106.66" x2="329.62" y2="179.65" stroke="#f6465d" stroke-width="1.4" /><rect x="326.62" y="139.77" width="6" height="27.71" rx="1.5" fill="#f6465d" /><line x1="340.35" y1="162.75" x2="340.35" y2="189.11" stroke="#f6465d" stroke-width="1.4" /><rect x="337.35" y="167.14" width="6" height="3.72" rx="1.5" fill="#f6465d" /><line x1="351.09" y1="148.90" x2="351.09" y2="177.28" stroke="#0ecb81" stroke-width="1.4" /><rect x="348.09" y="163.77" width="6" height="6.76" rx="1.5" fill="#0ecb81" /><line x1="361.82" y1="107.67" x2="361.82" y2="170.86" stroke="#0ecb81" stroke-width="1.4" /><rect x="358.82" y="127.27" width="6" height="36.83" rx="1.5" fill="#0ecb81" /><line x1="372.56" y1="93.48" x2="372.56" y2="183.36" stroke="#0ecb81" stroke-width="1.4" /><rect x="369.56" y="100.24" width="6" height="27.37" rx="1.5" fill="#0ecb81" /><line x1="383.29" y1="68.48" x2="383.29" y2="117.47" stroke="#0ecb81" stroke-width="1.4" /><rect x="380.29" y="73.88" width="6" height="27.37" rx="1.5" fill="#0ecb81" /><line x1="394.03" y1="67.80" x2="394.03" y2="109.70" stroke="#f6465d" stroke-width="1.4" /><rect x="391.03" y="74.56" width="6" height="16.56" rx="1.5" fill="#f6465d" /><line x1="404.76" y1="89.43" x2="404.76" y2="132.00" stroke="#f6465d" stroke-width="1.4" /><rect x="401.76" y="91.11" width="6" height="35.82" rx="1.5" fill="#f6465d" /><line x1="415.49" y1="105.64" x2="415.49" y2="152.95" stroke="#f6465d" stroke-width="1.4" /><rect x="412.49" y="128.62" width="6" height="2.70" rx="1.5" fill="#f6465d" /><line x1="426.23" y1="109.02" x2="426.23" y2="173.90" stroke="#f6465d" stroke-width="1.4" /><rect x="423.23" y="129.30" width="6" height="17.57" rx="1.5" fill="#f6465d" /><line x1="436.96" y1="141.80" x2="436.96" y2="173.56" stroke="#f6465d" stroke-width="1.4" /><rect x="433.96" y="146.53" width="6" height="5.74" rx="1.5" fill="#f6465d" /><line x1="447.70" y1="130.31" x2="447.70" y2="169.51" stroke="#f6465d" stroke-width="1.4" /><rect x="444.70" y="151.94" width="6" height="2.00" rx="1.5" fill="#f6465d" /><line x1="458.43" y1="109.02" x2="458.43" y2="173.90" stroke="#f6465d" stroke-width="1.4" /><rect x="455.43" y="152.28" width="6" height="17.57" rx="1.5" fill="#f6465d" /><line x1="469.16" y1="164.44" x2="469.16" y2="200.93" stroke="#f6465d" stroke-width="1.4" /><rect x="466.16" y="169.17" width="6" height="2.00" rx="1.5" fill="#f6465d" /><line x1="479.90" y1="148.56" x2="479.90" y2="200.60" stroke="#f6465d" stroke-width="1.4" /><rect x="476.90" y="169.17" width="6" height="4.05" rx="1.5" fill="#f6465d" /><line x1="490.63" y1="170.52" x2="490.63" y2="209.72" stroke="#f6465d" stroke-width="1.4" /><rect x="487.63" y="173.23" width="6" height="28.05" rx="1.5" fill="#f6465d" /><line x1="501.37" y1="173.23" x2="501.37" y2="211.07" stroke="#0ecb81" stroke-width="1.4" /><rect x="498.37" y="181.00" width="6" height="20.61" rx="1.5" fill="#0ecb81" /><line x1="512.10" y1="162.75" x2="512.10" y2="200.26" stroke="#0ecb81" stroke-width="1.4" /><rect x="509.10" y="168.16" width="6" height="12.84" rx="1.5" fill="#0ecb81" /><line x1="522.84" y1="165.45" x2="522.84" y2="197.89" stroke="#f6465d" stroke-width="1.4" /><rect x="519.84" y="168.16" width="6" height="2.00" rx="1.5" fill="#f6465d" /><line x1="533.57" y1="161.74" x2="533.57" y2="205.33" stroke="#f6465d" stroke-width="1.4" /><rect x="530.57" y="169.17" width="6" height="35.48" rx="1.5" fill="#f6465d" /><line x1="544.30" y1="200.26" x2="544.30" y2="218.51" stroke="#f6465d" stroke-width="1.4" /><rect x="541.30" y="204.65" width="6" height="2.00" rx="1.5" fill="#f6465d" /><line x1="555.04" y1="165.45" x2="555.04" y2="211.75" stroke="#0ecb81" stroke-width="1.4" /><rect x="552.04" y="171.54" width="6" height="33.79" rx="1.5" fill="#0ecb81" /><line x1="565.77" y1="159.37" x2="565.77" y2="179.31" stroke="#f6465d" stroke-width="1.4" /><rect x="562.77" y="171.87" width="6" height="3.38" rx="1.5" fill="#f6465d" /><line x1="576.51" y1="152.28" x2="576.51" y2="189.45" stroke="#0ecb81" stroke-width="1.4" /><rect x="573.51" y="170.86" width="6" height="4.39" rx="1.5" fill="#0ecb81" /><line x1="587.24" y1="166.81" x2="587.24" y2="305.01" stroke="#f6465d" stroke-width="1.4" /><rect x="584.24" y="170.86" width="6" height="96.30" rx="1.5" fill="#f6465d" /><line x1="597.97" y1="196.20" x2="597.97" y2="276.63" stroke="#0ecb81" stroke-width="1.4" /><rect x="594.97" y="220.20" width="6" height="46.29" rx="1.5" fill="#0ecb81" /><line x1="608.71" y1="186.40" x2="608.71" y2="220.20" stroke="#0ecb81" stroke-width="1.4" /><rect x="605.71" y="188.77" width="6" height="31.43" rx="1.5" fill="#0ecb81" /><line x1="619.44" y1="186.74" x2="619.44" y2="213.10" stroke="#f6465d" stroke-width="1.4" /><rect x="616.44" y="188.43" width="6" height="15.88" rx="1.5" fill="#f6465d" /><line x1="630.18" y1="197.56" x2="630.18" y2="221.55" stroke="#f6465d" stroke-width="1.4" /><rect x="627.18" y="204.31" width="6" height="7.43" rx="1.5" fill="#f6465d" /><line x1="640.91" y1="200.93" x2="640.91" y2="228.31" stroke="#f6465d" stroke-width="1.4" /><rect x="637.91" y="211.75" width="6" height="9.46" rx="1.5" fill="#f6465d" /><line x1="651.65" y1="220.20" x2="651.65" y2="274.60" stroke="#f6465d" stroke-width="1.4" /><rect x="648.65" y="221.89" width="6" height="39.87" rx="1.5" fill="#f6465d" /><line x1="662.38" y1="250.27" x2="662.38" y2="274.94" stroke="#f6465d" stroke-width="1.4" /><rect x="659.38" y="259.73" width="6" height="13.52" rx="1.5" fill="#f6465d" /><line x1="673.11" y1="256.35" x2="673.11" y2="304.33" stroke="#f6465d" stroke-width="1.4" /><rect x="670.11" y="272.91" width="6" height="18.25" rx="1.5" fill="#f6465d" /><line x1="683.85" y1="279.33" x2="683.85" y2="354.68" stroke="#f6465d" stroke-width="1.4" /><rect x="680.85" y="290.82" width="6" height="26.36" rx="1.5" fill="#f6465d" /><line x1="694.58" y1="302.64" x2="694.58" y2="408.07" stroke="#f6465d" stroke-width="1.4" /><rect x="691.58" y="316.16" width="6" height="74.00" rx="1.5" fill="#f6465d" /><line x1="705.32" y1="379.35" x2="705.32" y2="452.00" stroke="#f6465d" stroke-width="1.4" /><rect x="702.32" y="388.47" width="6" height="22.30" rx="1.5" fill="#f6465d" /><line x1="716.05" y1="313.80" x2="716.05" y2="410.78" stroke="#0ecb81" stroke-width="1.4" /><rect x="713.05" y="320.89" width="6" height="89.88" rx="1.5" fill="#0ecb81" /><line x1="726.78" y1="268.52" x2="726.78" y2="322.92" stroke="#0ecb81" stroke-width="1.4" /><rect x="723.78" y="286.09" width="6" height="35.14" rx="1.5" fill="#0ecb81" /><line x1="737.52" y1="257.70" x2="737.52" y2="310.08" stroke="#f6465d" stroke-width="1.4" /><rect x="734.52" y="286.43" width="6" height="20.95" rx="1.5" fill="#f6465d" /><line x1="748.25" y1="279.67" x2="748.25" y2="307.71" stroke="#0ecb81" stroke-width="1.4" /><rect x="745.25" y="303.32" width="6" height="3.72" rx="1.5" fill="#0ecb81" /><line x1="758.99" y1="277.98" x2="758.99" y2="311.43" stroke="#0ecb81" stroke-width="1.4" /><rect x="755.99" y="296.90" width="6" height="6.42" rx="1.5" fill="#0ecb81" /><line x1="769.72" y1="294.87" x2="769.72" y2="312.11" stroke="#f6465d" stroke-width="1.4" /><rect x="766.72" y="295.89" width="6" height="7.77" rx="1.5" fill="#f6465d" /><line x1="780.46" y1="280.68" x2="780.46" y2="307.04" stroke="#0ecb81" stroke-width="1.4" /><rect x="777.46" y="289.13" width="6" height="14.19" rx="1.5" fill="#0ecb81" /><line x1="791.19" y1="289.13" x2="791.19" y2="309.40" stroke="#f6465d" stroke-width="1.4" /><rect x="788.19" y="289.13" width="6" height="5.07" rx="1.5" fill="#f6465d" /><line x1="801.92" y1="291.83" x2="801.92" y2="314.47" stroke="#f6465d" stroke-width="1.4" /><rect x="798.92" y="296.56" width="6" height="7.43" rx="1.5" fill="#f6465d" /><line x1="812.66" y1="285.75" x2="812.66" y2="325.28" stroke="#f6465d" stroke-width="1.4" /><rect x="809.66" y="304.00" width="6" height="17.91" rx="1.5" fill="#f6465d" /><line x1="823.39" y1="316.16" x2="823.39" y2="350.29" stroke="#f6465d" stroke-width="1.4" /><rect x="820.39" y="321.57" width="6" height="27.37" rx="1.5" fill="#f6465d" /><line x1="834.13" y1="343.53" x2="834.13" y2="358.74" stroke="#f6465d" stroke-width="1.4" /><rect x="831.13" y="348.94" width="6" height="2.00" rx="1.5" fill="#f6465d" /><line x1="844.86" y1="332.72" x2="844.86" y2="361.78" stroke="#f6465d" stroke-width="1.4" /><rect x="841.86" y="350.29" width="6" height="8.79" rx="1.5" fill="#f6465d" /><line x1="855.59" y1="347.25" x2="855.59" y2="360.77" stroke="#0ecb81" stroke-width="1.4" /><rect x="852.59" y="353.67" width="6" height="4.39" rx="1.5" fill="#0ecb81" /><line x1="866.33" y1="351.30" x2="866.33" y2="380.03" stroke="#f6465d" stroke-width="1.4" /><rect x="863.33" y="353.67" width="6" height="22.64" rx="1.5" fill="#f6465d" /><line x1="877.06" y1="363.47" x2="877.06" y2="381.38" stroke="#0ecb81" stroke-width="1.4" /><rect x="874.06" y="368.87" width="6" height="6.76" rx="1.5" fill="#0ecb81" /><line x1="887.80" y1="352.32" x2="887.80" y2="375.63" stroke="#0ecb81" stroke-width="1.4" /><rect x="884.80" y="365.50" width="6" height="3.38" rx="1.5" fill="#0ecb81" /><line x1="898.53" y1="330.69" x2="898.53" y2="397.93" stroke="#0ecb81" stroke-width="1.4" /><rect x="895.53" y="338.80" width="6" height="27.71" rx="1.5" fill="#0ecb81" /><line x1="909.27" y1="331.37" x2="909.27" y2="383.40" stroke="#f6465d" stroke-width="1.4" /><rect x="906.27" y="338.80" width="6" height="43.25" rx="1.5" fill="#f6465d" /><line x1="920.00" y1="376.65" x2="920.00" y2="400.98" stroke="#f6465d" stroke-width="1.4" /><rect x="917.00" y="382.05" width="6" height="5.41" rx="1.5" fill="#f6465d" />
  <polyline points="72.00,-59.25 104.20,227.97 254.48,58.00 340.35,189.11 394.03,67.80" fill="none" stroke="#2fc273" stroke-width="4" stroke-linecap="round" stroke-linejoin="round" />
  <circle cx="72.00" cy="-59.25" r="5.5" fill="#2fc273" fill-opacity="0.15" stroke="#2fc273" stroke-width="2" /><text x="72.00" y="-71.25" fill="#f3f4f6" font-size="15" font-weight="700" text-anchor="middle">X</text><circle cx="104.20" cy="227.97" r="5.5" fill="#2fc273" fill-opacity="0.15" stroke="#2fc273" stroke-width="2" /><text x="104.20" y="215.97" fill="#f3f4f6" font-size="15" font-weight="700" text-anchor="middle">A</text><circle cx="254.48" cy="58.00" r="5.5" fill="#2fc273" fill-opacity="0.15" stroke="#2fc273" stroke-width="2" /><text x="254.48" y="46.00" fill="#f3f4f6" font-size="15" font-weight="700" text-anchor="middle">B</text><circle cx="340.35" cy="189.11" r="5.5" fill="#2fc273" fill-opacity="0.15" stroke="#2fc273" stroke-width="2" /><text x="340.35" y="177.11" fill="#f3f4f6" font-size="15" font-weight="700" text-anchor="middle">C</text><circle cx="394.03" cy="67.80" r="5.5" fill="#2fc273" fill-opacity="0.15" stroke="#2fc273" stroke-width="2" /><text x="394.03" y="55.80" fill="#f3f4f6" font-size="15" font-weight="700" text-anchor="middle">D</text>
  <text x="56" y="492" fill="#8ba0b5" font-size="18">일반 완성 · TP1 0.13365 · TP2 0.1328 · SL 0.13612</text>
</svg>
