<svg xmlns="http://www.w3.org/2000/svg" width="960" height="540" viewBox="0 0 960 540">
  <rect width="960" height="540" rx="24" fill="#0b1220" />
  <rect x="28" y="28" width="904" height="484" rx="22" fill="#111827" stroke="#1f2937" />
  <text x="56" y="74" fill="#f3f4f6" font-size="34" font-weight="700">BRUSDT · AB=CD</text>
  <text x="904" y="74" fill="#8ba0b5" font-size="20" text-anchor="end">Bearish (매도) · Score 82.3</text>
  <line x1="72" y1="58" x2="920" y2="58" stroke="#223045" stroke-width="1" stroke-dasharray="4 8" /><line x1="72" y1="156" x2="920" y2="156" stroke="#223045" stroke-width="1" stroke-dasharray="4 8" /><line x1="72" y1="255" x2="920" y2="255" stroke="#223045" stroke-width="1" stroke-dasharray="4 8" /><line x1="72" y1="353" x2="920" y2="353" stroke="#223045" stroke-width="1" stroke-dasharray="4 8" /><line x1="72" y1="452" x2="920" y2="452" stroke="#223045" stroke-width="1" stroke-dasharray="4 8" />
  <rect x="290.89" y="66.96" width="84" height="19.75" fill="#fbbf24" fill-opacity="0.12" stroke="#fbbf24" stroke-width="1.5" stroke-dasharray="6 6" />
  <line x1="72.00" y1="110.21" x2="72.00" y2="125.59" stroke="#0ecb81" stroke-width="1.4" /><rect x="69.00" y="116.09" width="6" height="8.96" rx="1.5" fill="#0ecb81" /><line x1="82.73" y1="116.15" x2="82.73" y2="127.96" stroke="#f6465d" stroke-width="1.4" /><rect x="79.73" y="116.15" width="6" height="6.06" rx="1.5" fill="#f6465d" /><line x1="93.47" y1="100.40" x2="93.47" y2="122.57" stroke="#0ecb81" stroke-width="1.4" /><rect x="90.47" y="113.06" width="6" height="9.21" rx="1.5" fill="#0ecb81" /><line x1="104.20" y1="103.85" x2="104.20" y2="114.93" stroke="#f6465d" stroke-width="1.4" /><rect x="101.20" y="113.12" width="6" height="2.00" rx="1.5" fill="#f6465d" /><line x1="114.94" y1="113.97" x2="114.94" y2="123.78" stroke="#f6465d" stroke-width="1.4" /><rect x="111.94" y="113.97" width="6" height="6.78" rx="1.5" fill="#f6465d" /><line x1="125.67" y1="109.91" x2="125.67" y2="124.75" stroke="#0ecb81" stroke-width="1.4" /><rect x="122.67" y="111.24" width="6" height="9.45" rx="1.5" fill="#0ecb81" /><line x1="136.41" y1="106.27" x2="136.41" y2="113.00" stroke="#0ecb81" stroke-width="1.4" /><rect x="133.41" y="110.21" width="6" height="2.00" rx="1.5" fill="#0ecb81" /><line x1="147.14" y1="91.74" x2="147.14" y2="110.76" stroke="#0ecb81" stroke-width="1.4" /><rect x="144.14" y="91.80" width="6" height="18.11" rx="1.5" fill="#0ecb81" /><line x1="157.87" y1="91.62" x2="157.87" y2="107.06" stroke="#f6465d" stroke-width="1.4" /><rect x="154.87" y="92.89" width="6" height="10.05" rx="1.5" fill="#f6465d" /><line x1="168.61" y1="100.22" x2="168.61" y2="108.57" stroke="#0ecb81" stroke-width="1.4" /><rect x="165.61" y="102.76" width="6" height="2.00" rx="1.5" fill="#0ecb81" /><line x1="179.34" y1="92.52" x2="179.34" y2="102.76" stroke="#0ecb81" stroke-width="1.4" /><rect x="176.34" y="96.52" width="6" height="6.24" rx="1.5" fill="#0ecb81" /><line x1="190.08" y1="94.95" x2="190.08" y2="101.12" stroke="#f6465d" stroke-width="1.4" /><rect x="187.08" y="96.52" width="6" height="2.24" rx="1.5" fill="#f6465d" /><line x1="200.81" y1="95.31" x2="200.81" y2="107.36" stroke="#f6465d" stroke-width="1.4" /><rect x="197.81" y="98.76" width="6" height="7.69" rx="1.5" fill="#f6465d" /><line x1="211.54" y1="104.76" x2="211.54" y2="115.42" stroke="#f6465d" stroke-width="1.4" /><rect x="208.54" y="106.52" width="6" height="3.45" rx="1.5" fill="#f6465d" /><line x1="222.28" y1="92.52" x2="222.28" y2="111.36" stroke="#0ecb81" stroke-width="1.4" /><rect x="219.28" y="97.98" width="6" height="11.99" rx="1.5" fill="#0ecb81" /><line x1="233.01" y1="91.74" x2="233.01" y2="119.84" stroke="#f6465d" stroke-width="1.4" /><rect x="230.01" y="98.04" width="6" height="7.39" rx="1.5" fill="#f6465d" /><line x1="243.75" y1="96.04" x2="243.75" y2="105.91" stroke="#0ecb81" stroke-width="1.4" /><rect x="240.75" y="101.61" width="6" height="3.82" rx="1.5" fill="#0ecb81" /><line x1="254.48" y1="98.82" x2="254.48" y2="105.49" stroke="#0ecb81" stroke-width="1.4" /><rect x="251.48" y="100.64" width="6" height="2.00" rx="1.5" fill="#0ecb81" /><line x1="265.22" y1="99.37" x2="265.22" y2="104.70" stroke="#f6465d" stroke-width="1.4" /><rect x="262.22" y="100.64" width="6" height="2.00" rx="1.5" fill="#f6465d" /><line x1="275.95" y1="89.86" x2="275.95" y2="104.09" stroke="#0ecb81" stroke-width="1.4" /><rect x="272.95" y="93.43" width="6" height="7.75" rx="1.5" fill="#0ecb81" /><line x1="286.68" y1="91.74" x2="286.68" y2="101.73" stroke="#f6465d" stroke-width="1.4" /><rect x="283.68" y="93.49" width="6" height="3.88" rx="1.5" fill="#f6465d" /><line x1="297.42" y1="90.04" x2="297.42" y2="97.55" stroke="#0ecb81" stroke-width="1.4" /><rect x="294.42" y="92.04" width="6" height="5.33" rx="1.5" fill="#0ecb81" /><line x1="308.15" y1="85.68" x2="308.15" y2="98.52" stroke="#0ecb81" stroke-width="1.4" /><rect x="305.15" y="87.62" width="6" height="4.30" rx="1.5" fill="#0ecb81" /><line x1="318.89" y1="58.00" x2="318.89" y2="108.51" stroke="#f6465d" stroke-width="1.4" /><rect x="315.89" y="87.62" width="6" height="2.60" rx="1.5" fill="#f6465d" /><line x1="329.62" y1="70.54" x2="329.62" y2="109.18" stroke="#f6465d" stroke-width="1.4" /><rect x="326.62" y="90.22" width="6" height="13.02" rx="1.5" fill="#f6465d" /><line x1="340.35" y1="89.62" x2="340.35" y2="103.97" stroke="#0ecb81" stroke-width="1.4" /><rect x="337.35" y="90.95" width="6" height="12.66" rx="1.5" fill="#0ecb81" /><line x1="351.09" y1="82.53" x2="351.09" y2="95.98" stroke="#0ecb81" stroke-width="1.4" /><rect x="348.09" y="90.89" width="6" height="2.00" rx="1.5" fill="#0ecb81" /><line x1="361.82" y1="88.53" x2="361.82" y2="136.80" stroke="#f6465d" stroke-width="1.4" /><rect x="358.82" y="90.89" width="6" height="43.12" rx="1.5" fill="#f6465d" /><line x1="372.56" y1="133.17" x2="372.56" y2="190.28" stroke="#f6465d" stroke-width="1.4" /><rect x="369.56" y="134.80" width="6" height="42.03" rx="1.5" fill="#f6465d" /><line x1="383.29" y1="155.76" x2="383.29" y2="177.74" stroke="#0ecb81" stroke-width="1.4" /><rect x="380.29" y="164.00" width="6" height="13.14" rx="1.5" fill="#0ecb81" /><line x1="394.03" y1="144.73" x2="394.03" y2="169.14" stroke="#0ecb81" stroke-width="1.4" /><rect x="391.03" y="151.64" width="6" height="12.42" rx="1.5" fill="#0ecb81" /><line x1="404.76" y1="146.43" x2="404.76" y2="188.65" stroke="#f6465d" stroke-width="1.4" /><rect x="401.76" y="151.22" width="6" height="5.75" rx="1.5" fill="#f6465d" /><line x1="415.49" y1="155.46" x2="415.49" y2="171.69" stroke="#f6465d" stroke-width="1.4" /><rect x="412.49" y="156.97" width="6" height="4.18" rx="1.5" fill="#f6465d" /><line x1="426.23" y1="147.58" x2="426.23" y2="162.12" stroke="#0ecb81" stroke-width="1.4" /><rect x="423.23" y="160.72" width="6" height="2.00" rx="1.5" fill="#0ecb81" /><line x1="436.96" y1="140.86" x2="436.96" y2="165.87" stroke="#0ecb81" stroke-width="1.4" /><rect x="433.96" y="141.71" width="6" height="18.96" rx="1.5" fill="#0ecb81" /><line x1="447.70" y1="138.13" x2="447.70" y2="144.19" stroke="#0ecb81" stroke-width="1.4" /><rect x="444.70" y="140.37" width="6" height="2.00" rx="1.5" fill="#0ecb81" /><line x1="458.43" y1="106.03" x2="458.43" y2="142.07" stroke="#0ecb81" stroke-width="1.4" /><rect x="455.43" y="112.45" width="6" height="28.53" rx="1.5" fill="#0ecb81" /><line x1="469.16" y1="109.97" x2="469.16" y2="138.01" stroke="#f6465d" stroke-width="1.4" /><rect x="466.16" y="112.51" width="6" height="19.75" rx="1.5" fill="#f6465d" /><line x1="479.90" y1="121.48" x2="479.90" y2="133.47" stroke="#0ecb81" stroke-width="1.4" /><rect x="476.90" y="130.14" width="6" height="2.00" rx="1.5" fill="#0ecb81" /><line x1="490.63" y1="126.62" x2="490.63" y2="139.53" stroke="#f6465d" stroke-width="1.4" /><rect x="487.63" y="130.08" width="6" height="2.30" rx="1.5" fill="#f6465d" /><line x1="501.37" y1="123.23" x2="501.37" y2="148.85" stroke="#f6465d" stroke-width="1.4" /><rect x="498.37" y="132.38" width="6" height="10.18" rx="1.5" fill="#f6465d" /><line x1="512.10" y1="139.47" x2="512.10" y2="152.25" stroke="#f6465d" stroke-width="1.4" /><rect x="509.10" y="142.13" width="6" height="3.33" rx="1.5" fill="#f6465d" /><line x1="522.84" y1="143.40" x2="522.84" y2="160.79" stroke="#f6465d" stroke-width="1.4" /><rect x="519.84" y="145.46" width="6" height="7.81" rx="1.5" fill="#f6465d" /><line x1="533.57" y1="152.73" x2="533.57" y2="174.11" stroke="#f6465d" stroke-width="1.4" /><rect x="530.57" y="152.73" width="6" height="14.11" rx="1.5" fill="#f6465d" /><line x1="544.30" y1="162.48" x2="544.30" y2="173.32" stroke="#f6465d" stroke-width="1.4" /><rect x="541.30" y="166.72" width="6" height="3.76" rx="1.5" fill="#f6465d" /><line x1="555.04" y1="166.72" x2="555.04" y2="183.86" stroke="#f6465d" stroke-width="1.4" /><rect x="552.04" y="169.93" width="6" height="11.87" rx="1.5" fill="#f6465d" /><line x1="565.77" y1="179.92" x2="565.77" y2="203.24" stroke="#f6465d" stroke-width="1.4" /><rect x="562.77" y="181.68" width="6" height="14.35" rx="1.5" fill="#f6465d" /><line x1="576.51" y1="193.55" x2="576.51" y2="214.45" stroke="#f6465d" stroke-width="1.4" /><rect x="573.51" y="196.28" width="6" height="11.99" rx="1.5" fill="#f6465d" /><line x1="587.24" y1="179.99" x2="587.24" y2="210.27" stroke="#0ecb81" stroke-width="1.4" /><rect x="584.24" y="187.44" width="6" height="20.59" rx="1.5" fill="#0ecb81" /><line x1="597.97" y1="177.44" x2="597.97" y2="199.79" stroke="#f6465d" stroke-width="1.4" /><rect x="594.97" y="187.31" width="6" height="2.00" rx="1.5" fill="#f6465d" /><line x1="608.71" y1="184.71" x2="608.71" y2="192.77" stroke="#f6465d" stroke-width="1.4" /><rect x="605.71" y="187.86" width="6" height="2.00" rx="1.5" fill="#f6465d" /><line x1="619.44" y1="185.56" x2="619.44" y2="193.37" stroke="#f6465d" stroke-width="1.4" /><rect x="616.44" y="189.62" width="6" height="2.42" rx="1.5" fill="#f6465d" /><line x1="630.18" y1="189.19" x2="630.18" y2="198.28" stroke="#f6465d" stroke-width="1.4" /><rect x="627.18" y="191.68" width="6" height="6.42" rx="1.5" fill="#f6465d" /><line x1="640.91" y1="183.86" x2="640.91" y2="205.73" stroke="#0ecb81" stroke-width="1.4" /><rect x="637.91" y="193.25" width="6" height="4.85" rx="1.5" fill="#0ecb81" /><line x1="651.65" y1="179.99" x2="651.65" y2="195.73" stroke="#0ecb81" stroke-width="1.4" /><rect x="648.65" y="185.62" width="6" height="7.15" rx="1.5" fill="#0ecb81" /><line x1="662.38" y1="175.81" x2="662.38" y2="200.64" stroke="#f6465d" stroke-width="1.4" /><rect x="659.38" y="185.13" width="6" height="13.93" rx="1.5" fill="#f6465d" /><line x1="673.11" y1="194.46" x2="673.11" y2="206.76" stroke="#f6465d" stroke-width="1.4" /><rect x="670.11" y="199.00" width="6" height="7.33" rx="1.5" fill="#f6465d" /><line x1="683.85" y1="205.49" x2="683.85" y2="294.34" stroke="#f6465d" stroke-width="1.4" /><rect x="680.85" y="206.33" width="6" height="85.28" rx="1.5" fill="#f6465d" /><line x1="694.58" y1="283.50" x2="694.58" y2="354.06" stroke="#f6465d" stroke-width="1.4" /><rect x="691.58" y="291.67" width="6" height="50.88" rx="1.5" fill="#f6465d" /><line x1="705.32" y1="342.98" x2="705.32" y2="452.00" stroke="#f6465d" stroke-width="1.4" /><rect x="702.32" y="343.64" width="6" height="102.06" rx="1.5" fill="#f6465d" /><line x1="716.05" y1="292.95" x2="716.05" y2="447.70" stroke="#0ecb81" stroke-width="1.4" /><rect x="713.05" y="320.87" width="6" height="124.11" rx="1.5" fill="#0ecb81" /><line x1="726.78" y1="256.97" x2="726.78" y2="338.37" stroke="#0ecb81" stroke-width="1.4" /><rect x="723.78" y="267.57" width="6" height="53.24" rx="1.5" fill="#0ecb81" /><line x1="737.52" y1="265.51" x2="737.52" y2="308.51" stroke="#f6465d" stroke-width="1.4" /><rect x="734.52" y="266.72" width="6" height="10.42" rx="1.5" fill="#f6465d" /><line x1="748.25" y1="248.97" x2="748.25" y2="280.65" stroke="#0ecb81" stroke-width="1.4" /><rect x="745.25" y="266.11" width="6" height="11.08" rx="1.5" fill="#0ecb81" /><line x1="758.99" y1="260.48" x2="758.99" y2="289.92" stroke="#f6465d" stroke-width="1.4" /><rect x="755.99" y="266.30" width="6" height="18.84" rx="1.5" fill="#f6465d" /><line x1="769.72" y1="251.70" x2="769.72" y2="292.16" stroke="#0ecb81" stroke-width="1.4" /><rect x="766.72" y="263.27" width="6" height="21.68" rx="1.5" fill="#0ecb81" /><line x1="780.46" y1="232.56" x2="780.46" y2="278.83" stroke="#0ecb81" stroke-width="1.4" /><rect x="777.46" y="235.65" width="6" height="27.62" rx="1.5" fill="#0ecb81" /><line x1="791.19" y1="220.32" x2="791.19" y2="242.73" stroke="#0ecb81" stroke-width="1.4" /><rect x="788.19" y="234.86" width="6" height="2.00" rx="1.5" fill="#0ecb81" /><line x1="801.92" y1="223.41" x2="801.92" y2="246.19" stroke="#0ecb81" stroke-width="1.4" /><rect x="798.92" y="231.65" width="6" height="3.69" rx="1.5" fill="#0ecb81" /><line x1="812.66" y1="218.99" x2="812.66" y2="233.83" stroke="#0ecb81" stroke-width="1.4" /><rect x="809.66" y="227.23" width="6" height="4.78" rx="1.5" fill="#0ecb81" /><line x1="823.39" y1="226.20" x2="823.39" y2="253.15" stroke="#f6465d" stroke-width="1.4" /><rect x="820.39" y="227.05" width="6" height="10.90" rx="1.5" fill="#f6465d" /><line x1="834.13" y1="236.19" x2="834.13" y2="260.24" stroke="#f6465d" stroke-width="1.4" /><rect x="831.13" y="237.71" width="6" height="12.11" rx="1.5" fill="#f6465d" /><line x1="844.86" y1="220.87" x2="844.86" y2="251.52" stroke="#0ecb81" stroke-width="1.4" /><rect x="841.86" y="226.62" width="6" height="23.32" rx="1.5" fill="#0ecb81" /><line x1="855.59" y1="224.50" x2="855.59" y2="253.58" stroke="#f6465d" stroke-width="1.4" /><rect x="852.59" y="226.44" width="6" height="21.74" rx="1.5" fill="#f6465d" /><line x1="866.33" y1="242.31" x2="866.33" y2="258.42" stroke="#0ecb81" stroke-width="1.4" /><rect x="863.33" y="243.22" width="6" height="5.03" rx="1.5" fill="#0ecb81" /><line x1="877.06" y1="241.22" x2="877.06" y2="254.42" stroke="#f6465d" stroke-width="1.4" /><rect x="874.06" y="243.16" width="6" height="6.97" rx="1.5" fill="#f6465d" /><line x1="887.80" y1="248.61" x2="887.80" y2="287.25" stroke="#f6465d" stroke-width="1.4" /><rect x="884.80" y="250.12" width="6" height="19.99" rx="1.5" fill="#f6465d" /><line x1="898.53" y1="268.05" x2="898.53" y2="314.75" stroke="#f6465d" stroke-width="1.4" /><rect x="895.53" y="270.05" width="6" height="40.34" rx="1.5" fill="#f6465d" /><line x1="909.27" y1="297.85" x2="909.27" y2="320.87" stroke="#f6465d" stroke-width="1.4" /><rect x="906.27" y="310.45" width="6" height="8.06" rx="1.5" fill="#f6465d" /><line x1="920.00" y1="312.57" x2="920.00" y2="323.35" stroke="#f6465d" stroke-width="1.4" /><rect x="917.00" y="318.57" width="6" height="2.00" rx="1.5" fill="#f6465d" />
  <polyline points="93.47,100.40 125.67,124.75 157.87,91.62 233.01,119.84 318.89,58.00" fill="none" stroke="#2fc273" stroke-width="4" stroke-linecap="round" stroke-linejoin="round" />
  <circle cx="93.47" cy="100.40" r="5.5" fill="#2fc273" fill-opacity="0.15" stroke="#2fc273" stroke-width="2" /><text x="93.47" y="88.40" fill="#f3f4f6" font-size="15" font-weight="700" text-anchor="middle">X</text><circle cx="125.67" cy="124.75" r="5.5" fill="#2fc273" fill-opacity="0.15" stroke="#2fc273" stroke-width="2" /><text x="125.67" y="112.75" fill="#f3f4f6" font-size="15" font-weight="700" text-anchor="middle">A</text><circle cx="157.87" cy="91.62" r="5.5" fill="#2fc273" fill-opacity="0.15" stroke="#2fc273" stroke-width="2" /><text x="157.87" y="79.62" fill="#f3f4f6" font-size="15" font-weight="700" text-anchor="middle">B</text><circle cx="233.01" cy="119.84" r="5.5" fill="#2fc273" fill-opacity="0.15" stroke="#2fc273" stroke-width="2" /><text x="233.01" y="107.84" fill="#f3f4f6" font-size="15" font-weight="700" text-anchor="middle">C</text><circle cx="318.89" cy="58.00" r="5.5" fill="#2fc273" fill-opacity="0.15" stroke="#2fc273" stroke-width="2" /><text x="318.89" y="46.00" fill="#f3f4f6" font-size="15" font-weight="700" text-anchor="middle">D</text>
  <text x="56" y="492" fill="#8ba0b5" font-size="18">일반 완성 · TP1 0.19067 · TP2 0.18826 · SL 0.19509</text>
</svg>
