<svg xmlns="http://www.w3.org/2000/svg" width="960" height="540" viewBox="0 0 960 540">
  <rect width="960" height="540" rx="24" fill="#0b1220" />
  <rect x="28" y="28" width="904" height="484" rx="22" fill="#111827" stroke="#1f2937" />
  <text x="56" y="74" fill="#f3f4f6" font-size="34" font-weight="700">BRUSDT · AB=CD</text>
  <text x="904" y="74" fill="#8ba0b5" font-size="20" text-anchor="end">Bearish (매도) · Score 85.6</text>
  <line x1="72" y1="58" x2="920" y2="58" stroke="#223045" stroke-width="1" stroke-dasharray="4 8" /><line x1="72" y1="156" x2="920" y2="156" stroke="#223045" stroke-width="1" stroke-dasharray="4 8" /><line x1="72" y1="255" x2="920" y2="255" stroke="#223045" stroke-width="1" stroke-dasharray="4 8" /><line x1="72" y1="353" x2="920" y2="353" stroke="#223045" stroke-width="1" stroke-dasharray="4 8" /><line x1="72" y1="452" x2="920" y2="452" stroke="#223045" stroke-width="1" stroke-dasharray="4 8" />
  <rect x="688.05" y="356.25" width="84" height="31.70" fill="#fbbf24" fill-opacity="0.12" stroke="#fbbf24" stroke-width="1.5" stroke-dasharray="6 6" />
  <line x1="72.00" y1="363.96" x2="72.00" y2="391.69" stroke="#0ecb81" stroke-width="1.4" /><rect x="69.00" y="367.04" width="6" height="24.65" rx="1.5" fill="#0ecb81" /><line x1="82.73" y1="363.52" x2="82.73" y2="379.58" stroke="#f6465d" stroke-width="1.4" /><rect x="79.73" y="367.70" width="6" height="2.42" rx="1.5" fill="#f6465d" /><line x1="93.47" y1="355.81" x2="93.47" y2="391.69" stroke="#f6465d" stroke-width="1.4" /><rect x="90.47" y="366.82" width="6" height="16.95" rx="1.5" fill="#f6465d" /><line x1="104.20" y1="353.83" x2="104.20" y2="383.77" stroke="#0ecb81" stroke-width="1.4" /><rect x="101.20" y="371.88" width="6" height="11.67" rx="1.5" fill="#0ecb81" /><line x1="114.94" y1="357.57" x2="114.94" y2="391.69" stroke="#f6465d" stroke-width="1.4" /><rect x="111.94" y="370.78" width="6" height="13.21" rx="1.5" fill="#f6465d" /><line x1="125.67" y1="378.70" x2="125.67" y2="397.19" stroke="#0ecb81" stroke-width="1.4" /><rect x="122.67" y="381.56" width="6" height="2.64" rx="1.5" fill="#0ecb81" /><line x1="136.41" y1="321.47" x2="136.41" y2="381.56" stroke="#0ecb81" stroke-width="1.4" /><rect x="133.41" y="358.01" width="6" height="23.55" rx="1.5" fill="#0ecb81" /><line x1="147.14" y1="345.91" x2="147.14" y2="376.28" stroke="#0ecb81" stroke-width="1.4" /><rect x="144.14" y="347.23" width="6" height="10.79" rx="1.5" fill="#0ecb81" /><line x1="157.87" y1="269.75" x2="157.87" y2="347.23" stroke="#0ecb81" stroke-width="1.4" /><rect x="154.87" y="313.33" width="6" height="33.90" rx="1.5" fill="#0ecb81" /><line x1="168.61" y1="309.81" x2="168.61" y2="357.79" stroke="#f6465d" stroke-width="1.4" /><rect x="165.61" y="313.33" width="6" height="41.82" rx="1.5" fill="#f6465d" /><line x1="179.34" y1="339.52" x2="179.34" y2="359.55" stroke="#0ecb81" stroke-width="1.4" /><rect x="176.34" y="350.09" width="6" height="4.84" rx="1.5" fill="#0ecb81" /><line x1="190.08" y1="343.93" x2="190.08" y2="373.64" stroke="#f6465d" stroke-width="1.4" /><rect x="187.08" y="350.97" width="6" height="14.31" rx="1.5" fill="#f6465d" /><line x1="200.81" y1="365.50" x2="200.81" y2="382.22" stroke="#f6465d" stroke-width="1.4" /><rect x="197.81" y="365.50" width="6" height="14.53" rx="1.5" fill="#f6465d" /><line x1="211.54" y1="340.18" x2="211.54" y2="391.25" stroke="#0ecb81" stroke-width="1.4" /><rect x="208.54" y="342.38" width="6" height="37.86" rx="1.5" fill="#0ecb81" /><line x1="222.28" y1="297.92" x2="222.28" y2="342.16" stroke="#0ecb81" stroke-width="1.4" /><rect x="219.28" y="301.22" width="6" height="40.94" rx="1.5" fill="#0ecb81" /><line x1="233.01" y1="273.71" x2="233.01" y2="310.91" stroke="#0ecb81" stroke-width="1.4" /><rect x="230.01" y="273.71" width="6" height="27.29" rx="1.5" fill="#0ecb81" /><line x1="243.75" y1="272.17" x2="243.75" y2="306.73" stroke="#f6465d" stroke-width="1.4" /><rect x="240.75" y="273.71" width="6" height="26.85" rx="1.5" fill="#f6465d" /><line x1="254.48" y1="278.99" x2="254.48" y2="311.13" stroke="#0ecb81" stroke-width="1.4" /><rect x="251.48" y="283.39" width="6" height="17.17" rx="1.5" fill="#0ecb81" /><line x1="265.22" y1="257.86" x2="265.22" y2="298.36" stroke="#f6465d" stroke-width="1.4" /><rect x="262.22" y="283.17" width="6" height="13.43" rx="1.5" fill="#f6465d" /><line x1="275.95" y1="292.64" x2="275.95" y2="320.59" stroke="#f6465d" stroke-width="1.4" /><rect x="272.95" y="296.82" width="6" height="21.57" rx="1.5" fill="#f6465d" /><line x1="286.68" y1="316.63" x2="286.68" y2="408.20" stroke="#f6465d" stroke-width="1.4" /><rect x="283.68" y="318.39" width="6" height="62.07" rx="1.5" fill="#f6465d" /><line x1="297.42" y1="365.50" x2="297.42" y2="401.37" stroke="#f6465d" stroke-width="1.4" /><rect x="294.42" y="380.46" width="6" height="14.09" rx="1.5" fill="#f6465d" /><line x1="308.15" y1="371.00" x2="308.15" y2="413.48" stroke="#0ecb81" stroke-width="1.4" /><rect x="305.15" y="374.96" width="6" height="19.59" rx="1.5" fill="#0ecb81" /><line x1="318.89" y1="368.36" x2="318.89" y2="393.23" stroke="#f6465d" stroke-width="1.4" /><rect x="315.89" y="374.74" width="6" height="2.64" rx="1.5" fill="#f6465d" /><line x1="329.62" y1="348.99" x2="329.62" y2="383.33" stroke="#0ecb81" stroke-width="1.4" /><rect x="326.62" y="351.19" width="6" height="26.41" rx="1.5" fill="#0ecb81" /><line x1="340.35" y1="341.94" x2="340.35" y2="364.40" stroke="#0ecb81" stroke-width="1.4" /><rect x="337.35" y="341.94" width="6" height="8.80" rx="1.5" fill="#0ecb81" /><line x1="351.09" y1="342.82" x2="351.09" y2="371.00" stroke="#f6465d" stroke-width="1.4" /><rect x="348.09" y="342.82" width="6" height="27.51" rx="1.5" fill="#f6465d" /><line x1="361.82" y1="362.19" x2="361.82" y2="383.77" stroke="#0ecb81" stroke-width="1.4" /><rect x="358.82" y="368.80" width="6" height="2.00" rx="1.5" fill="#0ecb81" /><line x1="372.56" y1="351.63" x2="372.56" y2="381.12" stroke="#f6465d" stroke-width="1.4" /><rect x="369.56" y="368.58" width="6" height="8.36" rx="1.5" fill="#f6465d" /><line x1="383.29" y1="360.43" x2="383.29" y2="385.53" stroke="#f6465d" stroke-width="1.4" /><rect x="380.29" y="376.72" width="6" height="2.00" rx="1.5" fill="#f6465d" /><line x1="394.03" y1="348.11" x2="394.03" y2="379.80" stroke="#0ecb81" stroke-width="1.4" /><rect x="391.03" y="362.63" width="6" height="15.63" rx="1.5" fill="#0ecb81" /><line x1="404.76" y1="361.09" x2="404.76" y2="378.26" stroke="#f6465d" stroke-width="1.4" /><rect x="401.76" y="361.75" width="6" height="2.64" rx="1.5" fill="#f6465d" /><line x1="415.49" y1="362.41" x2="415.49" y2="389.27" stroke="#f6465d" stroke-width="1.4" /><rect x="412.49" y="364.18" width="6" height="20.47" rx="1.5" fill="#f6465d" /><line x1="426.23" y1="323.67" x2="426.23" y2="390.59" stroke="#0ecb81" stroke-width="1.4" /><rect x="423.23" y="323.67" width="6" height="60.75" rx="1.5" fill="#0ecb81" /><line x1="436.96" y1="290.44" x2="436.96" y2="342.38" stroke="#0ecb81" stroke-width="1.4" /><rect x="433.96" y="306.51" width="6" height="16.95" rx="1.5" fill="#0ecb81" /><line x1="447.70" y1="264.46" x2="447.70" y2="316.85" stroke="#0ecb81" stroke-width="1.4" /><rect x="444.70" y="289.56" width="6" height="17.17" rx="1.5" fill="#0ecb81" /><line x1="458.43" y1="282.51" x2="458.43" y2="314.65" stroke="#f6465d" stroke-width="1.4" /><rect x="455.43" y="289.34" width="6" height="2.00" rx="1.5" fill="#f6465d" /><line x1="469.16" y1="283.17" x2="469.16" y2="312.67" stroke="#0ecb81" stroke-width="1.4" /><rect x="466.16" y="286.26" width="6" height="4.62" rx="1.5" fill="#0ecb81" /><line x1="479.90" y1="279.43" x2="479.90" y2="301.22" stroke="#f6465d" stroke-width="1.4" /><rect x="476.90" y="288.68" width="6" height="8.58" rx="1.5" fill="#f6465d" /><line x1="490.63" y1="295.50" x2="490.63" y2="351.41" stroke="#f6465d" stroke-width="1.4" /><rect x="487.63" y="297.92" width="6" height="36.76" rx="1.5" fill="#f6465d" /><line x1="501.37" y1="328.74" x2="501.37" y2="379.80" stroke="#f6465d" stroke-width="1.4" /><rect x="498.37" y="334.46" width="6" height="30.60" rx="1.5" fill="#f6465d" /><line x1="512.10" y1="320.37" x2="512.10" y2="365.94" stroke="#0ecb81" stroke-width="1.4" /><rect x="509.10" y="323.01" width="6" height="41.82" rx="1.5" fill="#0ecb81" /><line x1="522.84" y1="323.67" x2="522.84" y2="358.23" stroke="#f6465d" stroke-width="1.4" /><rect x="519.84" y="324.12" width="6" height="23.33" rx="1.5" fill="#f6465d" /><line x1="533.57" y1="346.35" x2="533.57" y2="373.64" stroke="#f6465d" stroke-width="1.4" /><rect x="530.57" y="347.45" width="6" height="11.67" rx="1.5" fill="#f6465d" /><line x1="544.30" y1="345.69" x2="544.30" y2="382.00" stroke="#0ecb81" stroke-width="1.4" /><rect x="541.30" y="351.85" width="6" height="7.26" rx="1.5" fill="#0ecb81" /><line x1="555.04" y1="331.38" x2="555.04" y2="390.15" stroke="#f6465d" stroke-width="1.4" /><rect x="552.04" y="351.85" width="6" height="19.81" rx="1.5" fill="#f6465d" /><line x1="565.77" y1="365.94" x2="565.77" y2="415.46" stroke="#f6465d" stroke-width="1.4" /><rect x="562.77" y="371.66" width="6" height="30.38" rx="1.5" fill="#f6465d" /><line x1="576.51" y1="380.90" x2="576.51" y2="412.16" stroke="#0ecb81" stroke-width="1.4" /><rect x="573.51" y="389.49" width="6" height="12.55" rx="1.5" fill="#0ecb81" /><line x1="587.24" y1="383.55" x2="587.24" y2="400.93" stroke="#f6465d" stroke-width="1.4" /><rect x="584.24" y="389.49" width="6" height="2.64" rx="1.5" fill="#f6465d" /><line x1="597.97" y1="381.12" x2="597.97" y2="428.89" stroke="#0ecb81" stroke-width="1.4" /><rect x="594.97" y="386.63" width="6" height="5.72" rx="1.5" fill="#0ecb81" /><line x1="608.71" y1="368.14" x2="608.71" y2="392.57" stroke="#0ecb81" stroke-width="1.4" /><rect x="605.71" y="368.80" width="6" height="18.05" rx="1.5" fill="#0ecb81" /><line x1="619.44" y1="368.80" x2="619.44" y2="396.97" stroke="#f6465d" stroke-width="1.4" /><rect x="616.44" y="369.02" width="6" height="19.15" rx="1.5" fill="#f6465d" /><line x1="630.18" y1="382.00" x2="630.18" y2="415.90" stroke="#f6465d" stroke-width="1.4" /><rect x="627.18" y="387.73" width="6" height="19.37" rx="1.5" fill="#f6465d" /><line x1="640.91" y1="401.15" x2="640.91" y2="432.19" stroke="#f6465d" stroke-width="1.4" /><rect x="637.91" y="407.32" width="6" height="22.01" rx="1.5" fill="#f6465d" /><line x1="651.65" y1="415.24" x2="651.65" y2="434.17" stroke="#f6465d" stroke-width="1.4" /><rect x="648.65" y="429.33" width="6" height="3.08" rx="1.5" fill="#f6465d" /><line x1="662.38" y1="417.88" x2="662.38" y2="452.00" stroke="#0ecb81" stroke-width="1.4" /><rect x="659.38" y="423.61" width="6" height="8.36" rx="1.5" fill="#0ecb81" /><line x1="673.11" y1="396.75" x2="673.11" y2="433.07" stroke="#0ecb81" stroke-width="1.4" /><rect x="670.11" y="410.18" width="6" height="13.87" rx="1.5" fill="#0ecb81" /><line x1="683.85" y1="399.61" x2="683.85" y2="419.86" stroke="#0ecb81" stroke-width="1.4" /><rect x="680.85" y="407.76" width="6" height="2.20" rx="1.5" fill="#0ecb81" /><line x1="694.58" y1="400.27" x2="694.58" y2="431.09" stroke="#f6465d" stroke-width="1.4" /><rect x="691.58" y="407.76" width="6" height="18.93" rx="1.5" fill="#f6465d" /><line x1="705.32" y1="422.28" x2="705.32" y2="443.20" stroke="#f6465d" stroke-width="1.4" /><rect x="702.32" y="427.13" width="6" height="10.57" rx="1.5" fill="#f6465d" /><line x1="716.05" y1="370.56" x2="716.05" y2="442.76" stroke="#0ecb81" stroke-width="1.4" /><rect x="713.05" y="395.87" width="6" height="41.82" rx="1.5" fill="#0ecb81" /><line x1="726.78" y1="383.11" x2="726.78" y2="411.06" stroke="#f6465d" stroke-width="1.4" /><rect x="723.78" y="395.87" width="6" height="11.45" rx="1.5" fill="#f6465d" /><line x1="737.52" y1="402.92" x2="737.52" y2="427.35" stroke="#f6465d" stroke-width="1.4" /><rect x="734.52" y="406.00" width="6" height="12.11" rx="1.5" fill="#f6465d" /><line x1="748.25" y1="402.92" x2="748.25" y2="426.03" stroke="#0ecb81" stroke-width="1.4" /><rect x="745.25" y="413.70" width="6" height="4.18" rx="1.5" fill="#0ecb81" /><line x1="758.99" y1="406.22" x2="758.99" y2="433.73" stroke="#f6465d" stroke-width="1.4" /><rect x="755.99" y="413.70" width="6" height="7.04" rx="1.5" fill="#f6465d" /><line x1="769.72" y1="415.90" x2="769.72" y2="435.93" stroke="#f6465d" stroke-width="1.4" /><rect x="766.72" y="420.52" width="6" height="9.02" rx="1.5" fill="#f6465d" /><line x1="780.46" y1="413.92" x2="780.46" y2="439.23" stroke="#0ecb81" stroke-width="1.4" /><rect x="777.46" y="423.39" width="6" height="5.72" rx="1.5" fill="#0ecb81" /><line x1="791.19" y1="399.17" x2="791.19" y2="432.63" stroke="#0ecb81" stroke-width="1.4" /><rect x="788.19" y="400.49" width="6" height="22.67" rx="1.5" fill="#0ecb81" /><line x1="801.92" y1="355.81" x2="801.92" y2="416.12" stroke="#0ecb81" stroke-width="1.4" /><rect x="798.92" y="363.74" width="6" height="35.88" rx="1.5" fill="#0ecb81" /><line x1="812.66" y1="114.13" x2="812.66" y2="363.74" stroke="#0ecb81" stroke-width="1.4" /><rect x="809.66" y="116.77" width="6" height="246.08" rx="1.5" fill="#0ecb81" /><line x1="823.39" y1="102.24" x2="823.39" y2="215.16" stroke="#f6465d" stroke-width="1.4" /><rect x="820.39" y="117.21" width="6" height="55.25" rx="1.5" fill="#f6465d" /><line x1="834.13" y1="87.94" x2="834.13" y2="194.69" stroke="#0ecb81" stroke-width="1.4" /><rect x="831.13" y="93.66" width="6" height="77.92" rx="1.5" fill="#0ecb81" /><line x1="844.86" y1="65.26" x2="844.86" y2="175.98" stroke="#f6465d" stroke-width="1.4" /><rect x="841.86" y="93.66" width="6" height="32.58" rx="1.5" fill="#f6465d" /><line x1="855.59" y1="58.00" x2="855.59" y2="129.10" stroke="#0ecb81" stroke-width="1.4" /><rect x="852.59" y="67.24" width="6" height="58.77" rx="1.5" fill="#0ecb81" /><line x1="866.33" y1="61.96" x2="866.33" y2="162.33" stroke="#f6465d" stroke-width="1.4" /><rect x="863.33" y="66.36" width="6" height="86.06" rx="1.5" fill="#f6465d" /><line x1="877.06" y1="138.78" x2="877.06" y2="186.55" stroke="#f6465d" stroke-width="1.4" /><rect x="874.06" y="152.43" width="6" height="17.61" rx="1.5" fill="#f6465d" /><line x1="887.80" y1="167.84" x2="887.80" y2="232.77" stroke="#f6465d" stroke-width="1.4" /><rect x="884.80" y="169.16" width="6" height="51.07" rx="1.5" fill="#f6465d" /><line x1="898.53" y1="188.97" x2="898.53" y2="240.69" stroke="#0ecb81" stroke-width="1.4" /><rect x="895.53" y="199.53" width="6" height="21.35" rx="1.5" fill="#0ecb81" /><line x1="909.27" y1="195.13" x2="909.27" y2="232.33" stroke="#f6465d" stroke-width="1.4" /><rect x="906.27" y="199.31" width="6" height="25.75" rx="1.5" fill="#f6465d" /><line x1="920.00" y1="218.46" x2="920.00" y2="252.14" stroke="#0ecb81" stroke-width="1.4" /><rect x="917.00" y="220.22" width="6" height="5.50" rx="1.5" fill="#0ecb81" />
  <polyline points="608.71,368.14 662.38,452.00 673.11,396.75 705.32,443.20 716.05,370.56" fill="none" stroke="#2fc273" stroke-width="4" stroke-linecap="round" stroke-linejoin="round" />
  <circle cx="608.71" cy="368.14" r="5.5" fill="#2fc273" fill-opacity="0.15" stroke="#2fc273" stroke-width="2" /><text x="608.71" y="356.14" fill="#f3f4f6" font-size="15" font-weight="700" text-anchor="middle">X</text><circle cx="662.38" cy="452.00" r="5.5" fill="#2fc273" fill-opacity="0.15" stroke="#2fc273" stroke-width="2" /><text x="662.38" y="440.00" fill="#f3f4f6" font-size="15" font-weight="700" text-anchor="middle">A</text><circle cx="673.11" cy="396.75" r="5.5" fill="#2fc273" fill-opacity="0.15" stroke="#2fc273" stroke-width="2" /><text x="673.11" y="384.75" fill="#f3f4f6" font-size="15" font-weight="700" text-anchor="middle">B</text><circle cx="705.32" cy="443.20" r="5.5" fill="#2fc273" fill-opacity="0.15" stroke="#2fc273" stroke-width="2" /><text x="705.32" y="431.20" fill="#f3f4f6" font-size="15" font-weight="700" text-anchor="middle">C</text><circle cx="716.05" cy="370.56" r="5.5" fill="#2fc273" fill-opacity="0.15" stroke="#2fc273" stroke-width="2" /><text x="716.05" y="358.56" fill="#f3f4f6" font-size="15" font-weight="700" text-anchor="middle">D</text>
  <text x="56" y="492" fill="#8ba0b5" font-size="18">실시간 터치 · TP1 0.12689 · TP2 0.12611 · SL 0.12865</text>
</svg>
