<svg xmlns="http://www.w3.org/2000/svg" width="960" height="540" viewBox="0 0 960 540">
  <rect width="960" height="540" rx="24" fill="#0b1220" />
  <rect x="28" y="28" width="904" height="484" rx="22" fill="#111827" stroke="#1f2937" />
  <text x="56" y="74" fill="#f3f4f6" font-size="34" font-weight="700">BSBUSDT · AB=CD</text>
  <text x="904" y="74" fill="#8ba0b5" font-size="20" text-anchor="end">Bearish (매도) · Score 76.2</text>
  <line x1="72" y1="58" x2="920" y2="58" stroke="#223045" stroke-width="1" stroke-dasharray="4 8" /><line x1="72" y1="156" x2="920" y2="156" stroke="#223045" stroke-width="1" stroke-dasharray="4 8" /><line x1="72" y1="255" x2="920" y2="255" stroke="#223045" stroke-width="1" stroke-dasharray="4 8" /><line x1="72" y1="353" x2="920" y2="353" stroke="#223045" stroke-width="1" stroke-dasharray="4 8" /><line x1="72" y1="452" x2="920" y2="452" stroke="#223045" stroke-width="1" stroke-dasharray="4 8" />
  <rect x="816.86" y="316.29" width="84" height="19.21" fill="#fbbf24" fill-opacity="0.12" stroke="#fbbf24" stroke-width="1.5" stroke-dasharray="6 6" />
  <line x1="72.00" y1="58.25" x2="72.00" y2="79.35" stroke="#f6465d" stroke-width="1.4" /><rect x="69.00" y="58.25" width="6" height="4.93" rx="1.5" fill="#f6465d" /><line x1="82.73" y1="58.00" x2="82.73" y2="71.87" stroke="#f6465d" stroke-width="1.4" /><rect x="79.73" y="63.34" width="6" height="2.00" rx="1.5" fill="#f6465d" /><line x1="93.47" y1="62.52" x2="93.47" y2="73.93" stroke="#0ecb81" stroke-width="1.4" /><rect x="90.47" y="64.90" width="6" height="2.00" rx="1.5" fill="#0ecb81" /><line x1="104.20" y1="64.98" x2="104.20" y2="101.60" stroke="#f6465d" stroke-width="1.4" /><rect x="101.20" y="64.98" width="6" height="30.30" rx="1.5" fill="#f6465d" /><line x1="114.94" y1="79.26" x2="114.94" y2="96.26" stroke="#0ecb81" stroke-width="1.4" /><rect x="111.94" y="91.17" width="6" height="4.11" rx="1.5" fill="#0ecb81" /><line x1="125.67" y1="88.95" x2="125.67" y2="110.87" stroke="#f6465d" stroke-width="1.4" /><rect x="122.67" y="91.00" width="6" height="10.67" rx="1.5" fill="#f6465d" /><line x1="136.41" y1="97.41" x2="136.41" y2="116.62" stroke="#f6465d" stroke-width="1.4" /><rect x="133.41" y="102.09" width="6" height="14.29" rx="1.5" fill="#f6465d" /><line x1="147.14" y1="106.85" x2="147.14" y2="130.25" stroke="#0ecb81" stroke-width="1.4" /><rect x="144.14" y="109.31" width="6" height="6.65" rx="1.5" fill="#0ecb81" /><line x1="157.87" y1="109.31" x2="157.87" y2="141.00" stroke="#f6465d" stroke-width="1.4" /><rect x="154.87" y="109.31" width="6" height="25.29" rx="1.5" fill="#f6465d" /><line x1="168.61" y1="134.44" x2="168.61" y2="188.13" stroke="#f6465d" stroke-width="1.4" /><rect x="165.61" y="134.52" width="6" height="48.44" rx="1.5" fill="#f6465d" /><line x1="179.34" y1="171.54" x2="179.34" y2="206.27" stroke="#f6465d" stroke-width="1.4" /><rect x="176.34" y="182.96" width="6" height="20.77" rx="1.5" fill="#f6465d" /><line x1="190.08" y1="201.18" x2="190.08" y2="264.98" stroke="#f6465d" stroke-width="1.4" /><rect x="187.08" y="203.24" width="6" height="25.53" rx="1.5" fill="#f6465d" /><line x1="200.81" y1="221.13" x2="200.81" y2="288.62" stroke="#f6465d" stroke-width="1.4" /><rect x="197.81" y="228.93" width="6" height="36.21" rx="1.5" fill="#f6465d" /><line x1="211.54" y1="261.53" x2="211.54" y2="290.43" stroke="#f6465d" stroke-width="1.4" /><rect x="208.54" y="264.48" width="6" height="10.02" rx="1.5" fill="#f6465d" /><line x1="222.28" y1="254.06" x2="222.28" y2="281.56" stroke="#0ecb81" stroke-width="1.4" /><rect x="219.28" y="266.86" width="6" height="8.13" rx="1.5" fill="#0ecb81" /><line x1="233.01" y1="261.86" x2="233.01" y2="283.45" stroke="#0ecb81" stroke-width="1.4" /><rect x="230.01" y="265.55" width="6" height="2.00" rx="1.5" fill="#0ecb81" /><line x1="243.75" y1="266.78" x2="243.75" y2="316.04" stroke="#f6465d" stroke-width="1.4" /><rect x="240.75" y="266.78" width="6" height="43.18" rx="1.5" fill="#f6465d" /><line x1="254.48" y1="292.97" x2="254.48" y2="321.46" stroke="#0ecb81" stroke-width="1.4" /><rect x="251.48" y="295.84" width="6" height="14.12" rx="1.5" fill="#0ecb81" /><line x1="265.22" y1="289.03" x2="265.22" y2="318.42" stroke="#f6465d" stroke-width="1.4" /><rect x="262.22" y="295.84" width="6" height="15.27" rx="1.5" fill="#f6465d" /><line x1="275.95" y1="274.01" x2="275.95" y2="314.40" stroke="#0ecb81" stroke-width="1.4" /><rect x="272.95" y="274.01" width="6" height="38.83" rx="1.5" fill="#0ecb81" /><line x1="286.68" y1="240.59" x2="286.68" y2="278.60" stroke="#0ecb81" stroke-width="1.4" /><rect x="283.68" y="244.04" width="6" height="30.54" rx="1.5" fill="#0ecb81" /><line x1="297.42" y1="230.99" x2="297.42" y2="249.79" stroke="#0ecb81" stroke-width="1.4" /><rect x="294.42" y="242.81" width="6" height="2.00" rx="1.5" fill="#0ecb81" /><line x1="308.15" y1="243.38" x2="308.15" y2="292.97" stroke="#f6465d" stroke-width="1.4" /><rect x="305.15" y="243.38" width="6" height="45.57" rx="1.5" fill="#f6465d" /><line x1="318.89" y1="256.85" x2="318.89" y2="294.29" stroke="#0ecb81" stroke-width="1.4" /><rect x="315.89" y="262.18" width="6" height="27.26" rx="1.5" fill="#0ecb81" /><line x1="329.62" y1="255.29" x2="329.62" y2="278.36" stroke="#f6465d" stroke-width="1.4" /><rect x="326.62" y="262.68" width="6" height="7.88" rx="1.5" fill="#f6465d" /><line x1="340.35" y1="265.30" x2="340.35" y2="281.64" stroke="#f6465d" stroke-width="1.4" /><rect x="337.35" y="270.56" width="6" height="2.22" rx="1.5" fill="#f6465d" /><line x1="351.09" y1="261.77" x2="351.09" y2="280.08" stroke="#f6465d" stroke-width="1.4" /><rect x="348.09" y="272.04" width="6" height="3.12" rx="1.5" fill="#f6465d" /><line x1="361.82" y1="266.54" x2="361.82" y2="276.63" stroke="#0ecb81" stroke-width="1.4" /><rect x="358.82" y="269.82" width="6" height="5.34" rx="1.5" fill="#0ecb81" /><line x1="372.56" y1="247.16" x2="372.56" y2="280.25" stroke="#0ecb81" stroke-width="1.4" /><rect x="369.56" y="262.92" width="6" height="7.31" rx="1.5" fill="#0ecb81" /><line x1="383.29" y1="260.46" x2="383.29" y2="276.14" stroke="#f6465d" stroke-width="1.4" /><rect x="380.29" y="262.68" width="6" height="2.00" rx="1.5" fill="#f6465d" /><line x1="394.03" y1="260.79" x2="394.03" y2="276.88" stroke="#f6465d" stroke-width="1.4" /><rect x="391.03" y="263.17" width="6" height="9.44" rx="1.5" fill="#f6465d" /><line x1="404.76" y1="271.95" x2="404.76" y2="294.20" stroke="#f6465d" stroke-width="1.4" /><rect x="401.76" y="272.69" width="6" height="14.70" rx="1.5" fill="#f6465d" /><line x1="415.49" y1="272.94" x2="415.49" y2="291.33" stroke="#0ecb81" stroke-width="1.4" /><rect x="412.49" y="275.16" width="6" height="12.89" rx="1.5" fill="#0ecb81" /><line x1="426.23" y1="272.94" x2="426.23" y2="292.07" stroke="#f6465d" stroke-width="1.4" /><rect x="423.23" y="275.24" width="6" height="14.12" rx="1.5" fill="#f6465d" /><line x1="436.96" y1="284.84" x2="436.96" y2="294.94" stroke="#0ecb81" stroke-width="1.4" /><rect x="433.96" y="285.34" width="6" height="5.17" rx="1.5" fill="#0ecb81" /><line x1="447.70" y1="275.24" x2="447.70" y2="291.58" stroke="#0ecb81" stroke-width="1.4" /><rect x="444.70" y="278.69" width="6" height="6.98" rx="1.5" fill="#0ecb81" /><line x1="458.43" y1="273.76" x2="458.43" y2="294.12" stroke="#f6465d" stroke-width="1.4" /><rect x="455.43" y="278.85" width="6" height="11.74" rx="1.5" fill="#f6465d" /><line x1="469.16" y1="281.81" x2="469.16" y2="321.46" stroke="#f6465d" stroke-width="1.4" /><rect x="466.16" y="290.59" width="6" height="11.08" rx="1.5" fill="#f6465d" /><line x1="479.90" y1="295.11" x2="479.90" y2="314.73" stroke="#f6465d" stroke-width="1.4" /><rect x="476.90" y="302.00" width="6" height="11.58" rx="1.5" fill="#f6465d" /><line x1="490.63" y1="303.97" x2="490.63" y2="316.78" stroke="#0ecb81" stroke-width="1.4" /><rect x="487.63" y="310.54" width="6" height="2.22" rx="1.5" fill="#0ecb81" /><line x1="501.37" y1="310.29" x2="501.37" y2="419.41" stroke="#f6465d" stroke-width="1.4" /><rect x="498.37" y="310.46" width="6" height="58.21" rx="1.5" fill="#f6465d" /><line x1="512.10" y1="369.16" x2="512.10" y2="404.96" stroke="#f6465d" stroke-width="1.4" /><rect x="509.10" y="369.16" width="6" height="8.54" rx="1.5" fill="#f6465d" /><line x1="522.84" y1="363.58" x2="522.84" y2="395.60" stroke="#f6465d" stroke-width="1.4" /><rect x="519.84" y="377.70" width="6" height="6.08" rx="1.5" fill="#f6465d" /><line x1="533.57" y1="369.74" x2="533.57" y2="393.63" stroke="#0ecb81" stroke-width="1.4" /><rect x="530.57" y="378.03" width="6" height="5.75" rx="1.5" fill="#0ecb81" /><line x1="544.30" y1="374.25" x2="544.30" y2="387.96" stroke="#f6465d" stroke-width="1.4" /><rect x="541.30" y="376.71" width="6" height="8.54" rx="1.5" fill="#f6465d" /><line x1="555.04" y1="380.90" x2="555.04" y2="410.29" stroke="#f6465d" stroke-width="1.4" /><rect x="552.04" y="385.25" width="6" height="2.00" rx="1.5" fill="#f6465d" /><line x1="565.77" y1="358.24" x2="565.77" y2="392.97" stroke="#0ecb81" stroke-width="1.4" /><rect x="562.77" y="367.35" width="6" height="19.62" rx="1.5" fill="#0ecb81" /><line x1="576.51" y1="367.35" x2="576.51" y2="383.86" stroke="#f6465d" stroke-width="1.4" /><rect x="573.51" y="367.35" width="6" height="6.90" rx="1.5" fill="#f6465d" /><line x1="587.24" y1="366.78" x2="587.24" y2="388.86" stroke="#f6465d" stroke-width="1.4" /><rect x="584.24" y="375.48" width="6" height="9.28" rx="1.5" fill="#f6465d" /><line x1="597.97" y1="362.02" x2="597.97" y2="387.96" stroke="#0ecb81" stroke-width="1.4" /><rect x="594.97" y="364.40" width="6" height="20.44" rx="1.5" fill="#0ecb81" /><line x1="608.71" y1="355.04" x2="608.71" y2="383.53" stroke="#f6465d" stroke-width="1.4" /><rect x="605.71" y="364.97" width="6" height="6.90" rx="1.5" fill="#f6465d" /><line x1="619.44" y1="365.88" x2="619.44" y2="382.87" stroke="#f6465d" stroke-width="1.4" /><rect x="616.44" y="371.95" width="6" height="2.00" rx="1.5" fill="#f6465d" /><line x1="630.18" y1="360.95" x2="630.18" y2="378.60" stroke="#0ecb81" stroke-width="1.4" /><rect x="627.18" y="372.44" width="6" height="2.00" rx="1.5" fill="#0ecb81" /><line x1="640.91" y1="349.70" x2="640.91" y2="378.44" stroke="#0ecb81" stroke-width="1.4" /><rect x="637.91" y="354.46" width="6" height="17.98" rx="1.5" fill="#0ecb81" /><line x1="651.65" y1="339.36" x2="651.65" y2="360.62" stroke="#0ecb81" stroke-width="1.4" /><rect x="648.65" y="349.21" width="6" height="5.25" rx="1.5" fill="#0ecb81" /><line x1="662.38" y1="349.62" x2="662.38" y2="374.17" stroke="#f6465d" stroke-width="1.4" /><rect x="659.38" y="350.28" width="6" height="14.70" rx="1.5" fill="#f6465d" /><line x1="673.11" y1="360.62" x2="673.11" y2="371.87" stroke="#f6465d" stroke-width="1.4" /><rect x="670.11" y="365.71" width="6" height="2.00" rx="1.5" fill="#f6465d" /><line x1="683.85" y1="355.53" x2="683.85" y2="369.49" stroke="#0ecb81" stroke-width="1.4" /><rect x="680.85" y="365.96" width="6" height="2.00" rx="1.5" fill="#0ecb81" /><line x1="694.58" y1="355.12" x2="694.58" y2="368.83" stroke="#0ecb81" stroke-width="1.4" /><rect x="691.58" y="358.90" width="6" height="7.55" rx="1.5" fill="#0ecb81" /><line x1="705.32" y1="354.14" x2="705.32" y2="361.61" stroke="#0ecb81" stroke-width="1.4" /><rect x="702.32" y="356.85" width="6" height="2.05" rx="1.5" fill="#0ecb81" /><line x1="716.05" y1="341.57" x2="716.05" y2="358.32" stroke="#0ecb81" stroke-width="1.4" /><rect x="713.05" y="353.64" width="6" height="3.28" rx="1.5" fill="#0ecb81" /><line x1="726.78" y1="347.32" x2="726.78" y2="359.23" stroke="#0ecb81" stroke-width="1.4" /><rect x="723.78" y="351.34" width="6" height="2.63" rx="1.5" fill="#0ecb81" /><line x1="737.52" y1="347.81" x2="737.52" y2="363.82" stroke="#f6465d" stroke-width="1.4" /><rect x="734.52" y="351.34" width="6" height="9.03" rx="1.5" fill="#f6465d" /><line x1="748.25" y1="348.39" x2="748.25" y2="364.48" stroke="#0ecb81" stroke-width="1.4" /><rect x="745.25" y="354.30" width="6" height="6.90" rx="1.5" fill="#0ecb81" /><line x1="758.99" y1="337.72" x2="758.99" y2="358.32" stroke="#f6465d" stroke-width="1.4" /><rect x="755.99" y="354.38" width="6" height="2.00" rx="1.5" fill="#f6465d" /><line x1="769.72" y1="351.26" x2="769.72" y2="359.80" stroke="#f6465d" stroke-width="1.4" /><rect x="766.72" y="355.29" width="6" height="2.00" rx="1.5" fill="#f6465d" /><line x1="780.46" y1="352.49" x2="780.46" y2="361.20" stroke="#f6465d" stroke-width="1.4" /><rect x="777.46" y="356.76" width="6" height="2.00" rx="1.5" fill="#f6465d" /><line x1="791.19" y1="346.50" x2="791.19" y2="360.29" stroke="#0ecb81" stroke-width="1.4" /><rect x="788.19" y="357.09" width="6" height="2.00" rx="1.5" fill="#0ecb81" /><line x1="801.92" y1="353.89" x2="801.92" y2="362.26" stroke="#0ecb81" stroke-width="1.4" /><rect x="798.92" y="356.27" width="6" height="2.00" rx="1.5" fill="#0ecb81" /><line x1="812.66" y1="348.64" x2="812.66" y2="360.05" stroke="#0ecb81" stroke-width="1.4" /><rect x="809.66" y="351.59" width="6" height="4.68" rx="1.5" fill="#0ecb81" /><line x1="823.39" y1="326.06" x2="823.39" y2="353.07" stroke="#0ecb81" stroke-width="1.4" /><rect x="820.39" y="337.31" width="6" height="14.20" rx="1.5" fill="#0ecb81" /><line x1="834.13" y1="310.95" x2="834.13" y2="337.55" stroke="#0ecb81" stroke-width="1.4" /><rect x="831.13" y="312.35" width="6" height="24.22" rx="1.5" fill="#0ecb81" /><line x1="844.86" y1="298.96" x2="844.86" y2="325.24" stroke="#0ecb81" stroke-width="1.4" /><rect x="841.86" y="303.56" width="6" height="8.95" rx="1.5" fill="#0ecb81" /><line x1="855.59" y1="303.64" x2="855.59" y2="333.61" stroke="#f6465d" stroke-width="1.4" /><rect x="852.59" y="303.64" width="6" height="28.32" rx="1.5" fill="#f6465d" /><line x1="866.33" y1="307.59" x2="866.33" y2="333.78" stroke="#0ecb81" stroke-width="1.4" /><rect x="863.33" y="319.00" width="6" height="13.30" rx="1.5" fill="#0ecb81" /><line x1="877.06" y1="318.09" x2="877.06" y2="374.09" stroke="#f6465d" stroke-width="1.4" /><rect x="874.06" y="318.83" width="6" height="48.60" rx="1.5" fill="#f6465d" /><line x1="887.80" y1="361.44" x2="887.80" y2="398.72" stroke="#f6465d" stroke-width="1.4" /><rect x="884.80" y="367.11" width="6" height="11.25" rx="1.5" fill="#f6465d" /><line x1="898.53" y1="376.06" x2="898.53" y2="390.59" stroke="#f6465d" stroke-width="1.4" /><rect x="895.53" y="378.68" width="6" height="3.28" rx="1.5" fill="#f6465d" /><line x1="909.27" y1="380.08" x2="909.27" y2="452.00" stroke="#f6465d" stroke-width="1.4" /><rect x="906.27" y="381.97" width="6" height="51.97" rx="1.5" fill="#f6465d" /><line x1="920.00" y1="421.29" x2="920.00" y2="440.92" stroke="#f6465d" stroke-width="1.4" /><rect x="917.00" y="433.94" width="6" height="5.01" rx="1.5" fill="#f6465d" />
  <polyline points="651.65,339.36 748.25,364.48 758.99,337.72 801.92,362.26 844.86,298.96" fill="none" stroke="#2fc273" stroke-width="4" stroke-linecap="round" stroke-linejoin="round" />
  <circle cx="651.65" cy="339.36" r="5.5" fill="#2fc273" fill-opacity="0.15" stroke="#2fc273" stroke-width="2" /><text x="651.65" y="327.36" fill="#f3f4f6" font-size="15" font-weight="700" text-anchor="middle">X</text><circle cx="748.25" cy="364.48" r="5.5" fill="#2fc273" fill-opacity="0.15" stroke="#2fc273" stroke-width="2" /><text x="748.25" y="352.48" fill="#f3f4f6" font-size="15" font-weight="700" text-anchor="middle">A</text><circle cx="758.99" cy="337.72" r="5.5" fill="#2fc273" fill-opacity="0.15" stroke="#2fc273" stroke-width="2" /><text x="758.99" y="325.72" fill="#f3f4f6" font-size="15" font-weight="700" text-anchor="middle">B</text><circle cx="801.92" cy="362.26" r="5.5" fill="#2fc273" fill-opacity="0.15" stroke="#2fc273" stroke-width="2" /><text x="801.92" y="350.26" fill="#f3f4f6" font-size="15" font-weight="700" text-anchor="middle">C</text><circle cx="844.86" cy="298.96" r="5.5" fill="#2fc273" fill-opacity="0.15" stroke="#2fc273" stroke-width="2" /><text x="844.86" y="286.96" fill="#f3f4f6" font-size="15" font-weight="700" text-anchor="middle">D</text>
  <text x="56" y="492" fill="#8ba0b5" font-size="18">일반 완성 · TP1 0.21121 · TP2 0.2094 · SL 0.21456</text>
</svg>
