<svg xmlns="http://www.w3.org/2000/svg" width="960" height="540" viewBox="0 0 960 540">
  <rect width="960" height="540" rx="24" fill="#0b1220" />
  <rect x="28" y="28" width="904" height="484" rx="22" fill="#111827" stroke="#1f2937" />
  <text x="56" y="74" fill="#f3f4f6" font-size="34" font-weight="700">BSBUSDT · AB=CD</text>
  <text x="904" y="74" fill="#8ba0b5" font-size="20" text-anchor="end">Bearish (매도) · Score 86.2</text>
  <line x1="72" y1="58" x2="920" y2="58" stroke="#223045" stroke-width="1" stroke-dasharray="4 8" /><line x1="72" y1="156" x2="920" y2="156" stroke="#223045" stroke-width="1" stroke-dasharray="4 8" /><line x1="72" y1="255" x2="920" y2="255" stroke="#223045" stroke-width="1" stroke-dasharray="4 8" /><line x1="72" y1="353" x2="920" y2="353" stroke="#223045" stroke-width="1" stroke-dasharray="4 8" /><line x1="72" y1="452" x2="920" y2="452" stroke="#223045" stroke-width="1" stroke-dasharray="4 8" />
  <rect x="784.66" y="103.57" width="84" height="32.89" fill="#fbbf24" fill-opacity="0.12" stroke="#fbbf24" stroke-width="1.5" stroke-dasharray="6 6" />
  <line x1="72.00" y1="424.96" x2="72.00" y2="445.02" stroke="#0ecb81" stroke-width="1.4" /><rect x="69.00" y="428.73" width="6" height="11.87" rx="1.5" fill="#0ecb81" /><line x1="82.73" y1="408.84" x2="82.73" y2="429.14" stroke="#0ecb81" stroke-width="1.4" /><rect x="79.73" y="412.37" width="6" height="15.56" rx="1.5" fill="#0ecb81" /><line x1="93.47" y1="409.24" x2="93.47" y2="424.08" stroke="#f6465d" stroke-width="1.4" /><rect x="90.47" y="412.45" width="6" height="10.91" rx="1.5" fill="#f6465d" /><line x1="104.20" y1="413.17" x2="104.20" y2="427.37" stroke="#0ecb81" stroke-width="1.4" /><rect x="101.20" y="417.66" width="6" height="5.70" rx="1.5" fill="#0ecb81" /><line x1="114.94" y1="417.58" x2="114.94" y2="434.35" stroke="#f6465d" stroke-width="1.4" /><rect x="111.94" y="417.74" width="6" height="15.89" rx="1.5" fill="#f6465d" /><line x1="125.67" y1="433.47" x2="125.67" y2="444.70" stroke="#f6465d" stroke-width="1.4" /><rect x="122.67" y="433.71" width="6" height="3.29" rx="1.5" fill="#f6465d" /><line x1="136.41" y1="437.08" x2="136.41" y2="446.70" stroke="#f6465d" stroke-width="1.4" /><rect x="133.41" y="437.08" width="6" height="3.61" rx="1.5" fill="#f6465d" /><line x1="147.14" y1="429.78" x2="147.14" y2="452.00" stroke="#0ecb81" stroke-width="1.4" /><rect x="144.14" y="439.24" width="6" height="2.00" rx="1.5" fill="#0ecb81" /><line x1="157.87" y1="428.33" x2="157.87" y2="439.48" stroke="#0ecb81" stroke-width="1.4" /><rect x="154.87" y="432.67" width="6" height="6.58" rx="1.5" fill="#0ecb81" /><line x1="168.61" y1="433.15" x2="168.61" y2="441.09" stroke="#f6465d" stroke-width="1.4" /><rect x="165.61" y="433.79" width="6" height="2.00" rx="1.5" fill="#f6465d" /><line x1="179.34" y1="423.28" x2="179.34" y2="446.62" stroke="#f6465d" stroke-width="1.4" /><rect x="176.34" y="435.31" width="6" height="6.26" rx="1.5" fill="#f6465d" /><line x1="190.08" y1="399.85" x2="190.08" y2="444.14" stroke="#0ecb81" stroke-width="1.4" /><rect x="187.08" y="417.74" width="6" height="23.83" rx="1.5" fill="#0ecb81" /><line x1="200.81" y1="410.12" x2="200.81" y2="423.36" stroke="#f6465d" stroke-width="1.4" /><rect x="197.81" y="417.42" width="6" height="4.89" rx="1.5" fill="#f6465d" /><line x1="211.54" y1="415.90" x2="211.54" y2="426.09" stroke="#f6465d" stroke-width="1.4" /><rect x="208.54" y="421.03" width="6" height="2.00" rx="1.5" fill="#f6465d" /><line x1="222.28" y1="417.34" x2="222.28" y2="423.44" stroke="#0ecb81" stroke-width="1.4" /><rect x="219.28" y="421.11" width="6" height="2.00" rx="1.5" fill="#0ecb81" /><line x1="233.01" y1="419.11" x2="233.01" y2="424.16" stroke="#f6465d" stroke-width="1.4" /><rect x="230.01" y="420.87" width="6" height="2.00" rx="1.5" fill="#f6465d" /><line x1="243.75" y1="415.58" x2="243.75" y2="426.09" stroke="#f6465d" stroke-width="1.4" /><rect x="240.75" y="421.51" width="6" height="2.00" rx="1.5" fill="#f6465d" /><line x1="254.48" y1="417.42" x2="254.48" y2="427.29" stroke="#0ecb81" stroke-width="1.4" /><rect x="251.48" y="421.51" width="6" height="2.00" rx="1.5" fill="#0ecb81" /><line x1="265.22" y1="409.72" x2="265.22" y2="422.24" stroke="#0ecb81" stroke-width="1.4" /><rect x="262.22" y="418.87" width="6" height="2.65" rx="1.5" fill="#0ecb81" /><line x1="275.95" y1="411.00" x2="275.95" y2="421.67" stroke="#0ecb81" stroke-width="1.4" /><rect x="272.95" y="411.00" width="6" height="7.46" rx="1.5" fill="#0ecb81" /><line x1="286.68" y1="409.32" x2="286.68" y2="434.91" stroke="#f6465d" stroke-width="1.4" /><rect x="283.68" y="410.92" width="6" height="14.28" rx="1.5" fill="#f6465d" /><line x1="297.42" y1="420.87" x2="297.42" y2="427.85" stroke="#f6465d" stroke-width="1.4" /><rect x="294.42" y="425.20" width="6" height="2.49" rx="1.5" fill="#f6465d" /><line x1="308.15" y1="422.48" x2="308.15" y2="429.46" stroke="#0ecb81" stroke-width="1.4" /><rect x="305.15" y="424.72" width="6" height="2.73" rx="1.5" fill="#0ecb81" /><line x1="318.89" y1="422.88" x2="318.89" y2="429.62" stroke="#f6465d" stroke-width="1.4" /><rect x="315.89" y="424.80" width="6" height="2.00" rx="1.5" fill="#f6465d" /><line x1="329.62" y1="422.40" x2="329.62" y2="432.10" stroke="#f6465d" stroke-width="1.4" /><rect x="326.62" y="425.77" width="6" height="2.09" rx="1.5" fill="#f6465d" /><line x1="340.35" y1="422.80" x2="340.35" y2="432.50" stroke="#f6465d" stroke-width="1.4" /><rect x="337.35" y="427.45" width="6" height="2.00" rx="1.5" fill="#f6465d" /><line x1="351.09" y1="424.56" x2="351.09" y2="432.99" stroke="#0ecb81" stroke-width="1.4" /><rect x="348.09" y="428.33" width="6" height="2.00" rx="1.5" fill="#0ecb81" /><line x1="361.82" y1="428.25" x2="361.82" y2="445.98" stroke="#f6465d" stroke-width="1.4" /><rect x="358.82" y="428.25" width="6" height="12.60" rx="1.5" fill="#f6465d" /><line x1="372.56" y1="437.00" x2="372.56" y2="445.82" stroke="#0ecb81" stroke-width="1.4" /><rect x="369.56" y="437.32" width="6" height="3.53" rx="1.5" fill="#0ecb81" /><line x1="383.29" y1="427.45" x2="383.29" y2="442.05" stroke="#0ecb81" stroke-width="1.4" /><rect x="380.29" y="433.15" width="6" height="4.01" rx="1.5" fill="#0ecb81" /><line x1="394.03" y1="399.05" x2="394.03" y2="435.55" stroke="#0ecb81" stroke-width="1.4" /><rect x="391.03" y="416.06" width="6" height="17.17" rx="1.5" fill="#0ecb81" /><line x1="404.76" y1="399.05" x2="404.76" y2="423.04" stroke="#0ecb81" stroke-width="1.4" /><rect x="401.76" y="399.05" width="6" height="18.21" rx="1.5" fill="#0ecb81" /><line x1="415.49" y1="399.05" x2="415.49" y2="408.36" stroke="#f6465d" stroke-width="1.4" /><rect x="412.49" y="399.45" width="6" height="4.25" rx="1.5" fill="#f6465d" /><line x1="426.23" y1="400.25" x2="426.23" y2="424.32" stroke="#f6465d" stroke-width="1.4" /><rect x="423.23" y="403.30" width="6" height="11.15" rx="1.5" fill="#f6465d" /><line x1="436.96" y1="385.73" x2="436.96" y2="414.93" stroke="#0ecb81" stroke-width="1.4" /><rect x="433.96" y="392.55" width="6" height="21.90" rx="1.5" fill="#0ecb81" /><line x1="447.70" y1="383.73" x2="447.70" y2="394.96" stroke="#0ecb81" stroke-width="1.4" /><rect x="444.70" y="385.09" width="6" height="8.02" rx="1.5" fill="#0ecb81" /><line x1="458.43" y1="382.20" x2="458.43" y2="389.18" stroke="#0ecb81" stroke-width="1.4" /><rect x="455.43" y="384.69" width="6" height="2.00" rx="1.5" fill="#0ecb81" /><line x1="469.16" y1="354.52" x2="469.16" y2="386.45" stroke="#0ecb81" stroke-width="1.4" /><rect x="466.16" y="367.60" width="6" height="16.93" rx="1.5" fill="#0ecb81" /><line x1="479.90" y1="360.38" x2="479.90" y2="401.06" stroke="#f6465d" stroke-width="1.4" /><rect x="476.90" y="367.36" width="6" height="12.36" rx="1.5" fill="#f6465d" /><line x1="490.63" y1="377.39" x2="490.63" y2="386.21" stroke="#f6465d" stroke-width="1.4" /><rect x="487.63" y="379.79" width="6" height="2.81" rx="1.5" fill="#f6465d" /><line x1="501.37" y1="370.49" x2="501.37" y2="383.08" stroke="#0ecb81" stroke-width="1.4" /><rect x="498.37" y="379.31" width="6" height="3.29" rx="1.5" fill="#0ecb81" /><line x1="512.10" y1="362.14" x2="512.10" y2="386.21" stroke="#0ecb81" stroke-width="1.4" /><rect x="509.10" y="367.44" width="6" height="11.95" rx="1.5" fill="#0ecb81" /><line x1="522.84" y1="363.11" x2="522.84" y2="372.49" stroke="#f6465d" stroke-width="1.4" /><rect x="519.84" y="366.96" width="6" height="2.00" rx="1.5" fill="#f6465d" /><line x1="533.57" y1="352.84" x2="533.57" y2="372.73" stroke="#0ecb81" stroke-width="1.4" /><rect x="530.57" y="358.53" width="6" height="9.23" rx="1.5" fill="#0ecb81" /><line x1="544.30" y1="314.09" x2="544.30" y2="358.77" stroke="#0ecb81" stroke-width="1.4" /><rect x="541.30" y="324.20" width="6" height="34.26" rx="1.5" fill="#0ecb81" /><line x1="555.04" y1="303.02" x2="555.04" y2="327.25" stroke="#f6465d" stroke-width="1.4" /><rect x="552.04" y="322.75" width="6" height="2.00" rx="1.5" fill="#f6465d" /><line x1="565.77" y1="311.76" x2="565.77" y2="334.71" stroke="#0ecb81" stroke-width="1.4" /><rect x="562.77" y="320.19" width="6" height="3.53" rx="1.5" fill="#0ecb81" /><line x1="576.51" y1="297.96" x2="576.51" y2="325.32" stroke="#0ecb81" stroke-width="1.4" /><rect x="573.51" y="313.05" width="6" height="7.86" rx="1.5" fill="#0ecb81" /><line x1="587.24" y1="299.73" x2="587.24" y2="317.22" stroke="#0ecb81" stroke-width="1.4" /><rect x="584.24" y="304.86" width="6" height="8.66" rx="1.5" fill="#0ecb81" /><line x1="597.97" y1="262.02" x2="597.97" y2="306.87" stroke="#0ecb81" stroke-width="1.4" /><rect x="594.97" y="280.07" width="6" height="24.79" rx="1.5" fill="#0ecb81" /><line x1="608.71" y1="264.35" x2="608.71" y2="285.45" stroke="#0ecb81" stroke-width="1.4" /><rect x="605.71" y="274.94" width="6" height="5.13" rx="1.5" fill="#0ecb81" /><line x1="619.44" y1="200.16" x2="619.44" y2="279.91" stroke="#0ecb81" stroke-width="1.4" /><rect x="616.44" y="224.95" width="6" height="49.26" rx="1.5" fill="#0ecb81" /><line x1="630.18" y1="128.68" x2="630.18" y2="232.09" stroke="#0ecb81" stroke-width="1.4" /><rect x="627.18" y="138.87" width="6" height="86.16" rx="1.5" fill="#0ecb81" /><line x1="640.91" y1="138.95" x2="640.91" y2="177.62" stroke="#f6465d" stroke-width="1.4" /><rect x="637.91" y="138.95" width="6" height="20.78" rx="1.5" fill="#f6465d" /><line x1="651.65" y1="152.59" x2="651.65" y2="170.40" stroke="#f6465d" stroke-width="1.4" /><rect x="648.65" y="160.13" width="6" height="4.25" rx="1.5" fill="#f6465d" /><line x1="662.38" y1="158.45" x2="662.38" y2="249.34" stroke="#f6465d" stroke-width="1.4" /><rect x="659.38" y="165.35" width="6" height="51.75" rx="1.5" fill="#f6465d" /><line x1="673.11" y1="210.43" x2="673.11" y2="255.76" stroke="#f6465d" stroke-width="1.4" /><rect x="670.11" y="215.89" width="6" height="31.29" rx="1.5" fill="#f6465d" /><line x1="683.85" y1="227.20" x2="683.85" y2="256.64" stroke="#0ecb81" stroke-width="1.4" /><rect x="680.85" y="247.10" width="6" height="2.00" rx="1.5" fill="#0ecb81" /><line x1="694.58" y1="219.42" x2="694.58" y2="275.26" stroke="#0ecb81" stroke-width="1.4" /><rect x="691.58" y="229.69" width="6" height="15.97" rx="1.5" fill="#0ecb81" /><line x1="705.32" y1="223.59" x2="705.32" y2="250.55" stroke="#f6465d" stroke-width="1.4" /><rect x="702.32" y="228.81" width="6" height="8.02" rx="1.5" fill="#f6465d" /><line x1="716.05" y1="217.17" x2="716.05" y2="256.72" stroke="#0ecb81" stroke-width="1.4" /><rect x="713.05" y="226.88" width="6" height="9.95" rx="1.5" fill="#0ecb81" /><line x1="726.78" y1="191.90" x2="726.78" y2="237.07" stroke="#0ecb81" stroke-width="1.4" /><rect x="723.78" y="198.40" width="6" height="29.28" rx="1.5" fill="#0ecb81" /><line x1="737.52" y1="168.63" x2="737.52" y2="220.54" stroke="#f6465d" stroke-width="1.4" /><rect x="734.52" y="198.48" width="6" height="19.58" rx="1.5" fill="#f6465d" /><line x1="748.25" y1="209.79" x2="748.25" y2="234.10" stroke="#f6465d" stroke-width="1.4" /><rect x="745.25" y="216.69" width="6" height="7.70" rx="1.5" fill="#f6465d" /><line x1="758.99" y1="213.56" x2="758.99" y2="243.09" stroke="#f6465d" stroke-width="1.4" /><rect x="755.99" y="224.39" width="6" height="2.65" rx="1.5" fill="#f6465d" /><line x1="769.72" y1="184.36" x2="769.72" y2="227.44" stroke="#0ecb81" stroke-width="1.4" /><rect x="766.72" y="193.67" width="6" height="33.29" rx="1.5" fill="#0ecb81" /><line x1="780.46" y1="175.45" x2="780.46" y2="199.28" stroke="#0ecb81" stroke-width="1.4" /><rect x="777.46" y="182.11" width="6" height="11.47" rx="1.5" fill="#0ecb81" /><line x1="791.19" y1="173.85" x2="791.19" y2="216.45" stroke="#f6465d" stroke-width="1.4" /><rect x="788.19" y="182.19" width="6" height="4.65" rx="1.5" fill="#f6465d" /><line x1="801.92" y1="174.01" x2="801.92" y2="200.97" stroke="#0ecb81" stroke-width="1.4" /><rect x="798.92" y="183.96" width="6" height="2.65" rx="1.5" fill="#0ecb81" /><line x1="812.66" y1="58.00" x2="812.66" y2="187.65" stroke="#0ecb81" stroke-width="1.4" /><rect x="809.66" y="107.66" width="6" height="76.06" rx="1.5" fill="#0ecb81" /><line x1="823.39" y1="70.44" x2="823.39" y2="133.33" stroke="#0ecb81" stroke-width="1.4" /><rect x="820.39" y="94.99" width="6" height="11.87" rx="1.5" fill="#0ecb81" /><line x1="834.13" y1="81.35" x2="834.13" y2="186.04" stroke="#f6465d" stroke-width="1.4" /><rect x="831.13" y="92.82" width="6" height="62.58" rx="1.5" fill="#f6465d" /><line x1="844.86" y1="145.13" x2="844.86" y2="188.13" stroke="#f6465d" stroke-width="1.4" /><rect x="841.86" y="155.48" width="6" height="21.98" rx="1.5" fill="#f6465d" /><line x1="855.59" y1="134.22" x2="855.59" y2="177.62" stroke="#0ecb81" stroke-width="1.4" /><rect x="852.59" y="137.35" width="6" height="38.99" rx="1.5" fill="#0ecb81" /><line x1="866.33" y1="136.30" x2="866.33" y2="234.66" stroke="#f6465d" stroke-width="1.4" /><rect x="863.33" y="140.55" width="6" height="46.85" rx="1.5" fill="#f6465d" /><line x1="877.06" y1="145.53" x2="877.06" y2="187.65" stroke="#0ecb81" stroke-width="1.4" /><rect x="874.06" y="165.26" width="6" height="22.06" rx="1.5" fill="#0ecb81" /><line x1="887.80" y1="148.74" x2="887.80" y2="177.06" stroke="#f6465d" stroke-width="1.4" /><rect x="884.80" y="165.10" width="6" height="8.02" rx="1.5" fill="#f6465d" /><line x1="898.53" y1="142.88" x2="898.53" y2="180.99" stroke="#0ecb81" stroke-width="1.4" /><rect x="895.53" y="154.11" width="6" height="18.29" rx="1.5" fill="#0ecb81" /><line x1="909.27" y1="134.62" x2="909.27" y2="159.17" stroke="#0ecb81" stroke-width="1.4" /><rect x="906.27" y="140.63" width="6" height="12.92" rx="1.5" fill="#0ecb81" /><line x1="920.00" y1="132.69" x2="920.00" y2="144.25" stroke="#0ecb81" stroke-width="1.4" /><rect x="917.00" y="135.18" width="6" height="4.73" rx="1.5" fill="#0ecb81" />
  <polyline points="630.18,128.68 694.58,275.26 737.52,168.63 758.99,243.09 812.66,58.00" fill="none" stroke="#2fc273" stroke-width="4" stroke-linecap="round" stroke-linejoin="round" />
  <circle cx="630.18" cy="128.68" r="5.5" fill="#2fc273" fill-opacity="0.15" stroke="#2fc273" stroke-width="2" /><text x="630.18" y="116.68" fill="#f3f4f6" font-size="15" font-weight="700" text-anchor="middle">X</text><circle cx="694.58" cy="275.26" r="5.5" fill="#2fc273" fill-opacity="0.15" stroke="#2fc273" stroke-width="2" /><text x="694.58" y="263.26" fill="#f3f4f6" font-size="15" font-weight="700" text-anchor="middle">A</text><circle cx="737.52" cy="168.63" r="5.5" fill="#2fc273" fill-opacity="0.15" stroke="#2fc273" stroke-width="2" /><text x="737.52" y="156.63" fill="#f3f4f6" font-size="15" font-weight="700" text-anchor="middle">B</text><circle cx="758.99" cy="243.09" r="5.5" fill="#2fc273" fill-opacity="0.15" stroke="#2fc273" stroke-width="2" /><text x="758.99" y="231.09" fill="#f3f4f6" font-size="15" font-weight="700" text-anchor="middle">C</text><circle cx="812.66" cy="58.00" r="5.5" fill="#2fc273" fill-opacity="0.15" stroke="#2fc273" stroke-width="2" /><text x="812.66" y="46.00" fill="#f3f4f6" font-size="15" font-weight="700" text-anchor="middle">D</text>
  <text x="56" y="492" fill="#8ba0b5" font-size="18">일반 완성 · TP1 0.2761 · TP2 0.27065 · SL 0.28729</text>
</svg>
