<svg xmlns="http://www.w3.org/2000/svg" width="960" height="540" viewBox="0 0 960 540">
  <rect width="960" height="540" rx="24" fill="#0b1220" />
  <rect x="28" y="28" width="904" height="484" rx="22" fill="#111827" stroke="#1f2937" />
  <text x="56" y="74" fill="#f3f4f6" font-size="34" font-weight="700">BSBUSDT · AB=CD</text>
  <text x="904" y="74" fill="#8ba0b5" font-size="20" text-anchor="end">Bearish (매도) · Score 81.5</text>
  <line x1="72" y1="58" x2="920" y2="58" stroke="#223045" stroke-width="1" stroke-dasharray="4 8" /><line x1="72" y1="156" x2="920" y2="156" stroke="#223045" stroke-width="1" stroke-dasharray="4 8" /><line x1="72" y1="255" x2="920" y2="255" stroke="#223045" stroke-width="1" stroke-dasharray="4 8" /><line x1="72" y1="353" x2="920" y2="353" stroke="#223045" stroke-width="1" stroke-dasharray="4 8" /><line x1="72" y1="452" x2="920" y2="452" stroke="#223045" stroke-width="1" stroke-dasharray="4 8" />
  <rect x="387.49" y="227.29" width="84" height="16.12" fill="#fbbf24" fill-opacity="0.12" stroke="#fbbf24" stroke-width="1.5" stroke-dasharray="6 6" />
  <line x1="72.00" y1="88.47" x2="72.00" y2="118.82" stroke="#f6465d" stroke-width="1.4" /><rect x="69.00" y="101.29" width="6" height="3.06" rx="1.5" fill="#f6465d" /><line x1="82.73" y1="92.00" x2="82.73" y2="115.18" stroke="#0ecb81" stroke-width="1.4" /><rect x="79.73" y="102.59" width="6" height="2.94" rx="1.5" fill="#0ecb81" /><line x1="93.47" y1="72.71" x2="93.47" y2="103.65" stroke="#0ecb81" stroke-width="1.4" /><rect x="90.47" y="84.12" width="6" height="18.82" rx="1.5" fill="#0ecb81" /><line x1="104.20" y1="61.88" x2="104.20" y2="111.41" stroke="#0ecb81" stroke-width="1.4" /><rect x="101.20" y="66.94" width="6" height="17.29" rx="1.5" fill="#0ecb81" /><line x1="114.94" y1="58.00" x2="114.94" y2="84.94" stroke="#f6465d" stroke-width="1.4" /><rect x="111.94" y="70.59" width="6" height="10.24" rx="1.5" fill="#f6465d" /><line x1="125.67" y1="70.94" x2="125.67" y2="85.76" stroke="#0ecb81" stroke-width="1.4" /><rect x="122.67" y="76.82" width="6" height="4.94" rx="1.5" fill="#0ecb81" /><line x1="136.41" y1="61.65" x2="136.41" y2="118.59" stroke="#f6465d" stroke-width="1.4" /><rect x="133.41" y="78.82" width="6" height="35.65" rx="1.5" fill="#f6465d" /><line x1="147.14" y1="109.18" x2="147.14" y2="163.41" stroke="#0ecb81" stroke-width="1.4" /><rect x="144.14" y="114.82" width="6" height="2.00" rx="1.5" fill="#0ecb81" /><line x1="157.87" y1="113.41" x2="157.87" y2="141.06" stroke="#f6465d" stroke-width="1.4" /><rect x="154.87" y="114.82" width="6" height="23.76" rx="1.5" fill="#f6465d" /><line x1="168.61" y1="134.00" x2="168.61" y2="160.94" stroke="#f6465d" stroke-width="1.4" /><rect x="165.61" y="139.29" width="6" height="14.59" rx="1.5" fill="#f6465d" /><line x1="179.34" y1="140.94" x2="179.34" y2="182.71" stroke="#f6465d" stroke-width="1.4" /><rect x="176.34" y="154.00" width="6" height="14.82" rx="1.5" fill="#f6465d" /><line x1="190.08" y1="168.00" x2="190.08" y2="244.94" stroke="#f6465d" stroke-width="1.4" /><rect x="187.08" y="169.41" width="6" height="45.41" rx="1.5" fill="#f6465d" /><line x1="200.81" y1="186.82" x2="200.81" y2="364.59" stroke="#f6465d" stroke-width="1.4" /><rect x="197.81" y="214.82" width="6" height="142.12" rx="1.5" fill="#f6465d" /><line x1="211.54" y1="332.00" x2="211.54" y2="380.24" stroke="#0ecb81" stroke-width="1.4" /><rect x="208.54" y="348.82" width="6" height="8.24" rx="1.5" fill="#0ecb81" /><line x1="222.28" y1="272.00" x2="222.28" y2="355.29" stroke="#0ecb81" stroke-width="1.4" /><rect x="219.28" y="283.88" width="6" height="65.88" rx="1.5" fill="#0ecb81" /><line x1="233.01" y1="241.18" x2="233.01" y2="287.88" stroke="#0ecb81" stroke-width="1.4" /><rect x="230.01" y="251.29" width="6" height="32.82" rx="1.5" fill="#0ecb81" /><line x1="243.75" y1="247.53" x2="243.75" y2="278.35" stroke="#f6465d" stroke-width="1.4" /><rect x="240.75" y="251.41" width="6" height="2.00" rx="1.5" fill="#f6465d" /><line x1="254.48" y1="248.59" x2="254.48" y2="297.29" stroke="#f6465d" stroke-width="1.4" /><rect x="251.48" y="252.59" width="6" height="27.29" rx="1.5" fill="#f6465d" /><line x1="265.22" y1="251.29" x2="265.22" y2="304.59" stroke="#0ecb81" stroke-width="1.4" /><rect x="262.22" y="278.24" width="6" height="2.00" rx="1.5" fill="#0ecb81" /><line x1="275.95" y1="258.24" x2="275.95" y2="310.94" stroke="#f6465d" stroke-width="1.4" /><rect x="272.95" y="278.82" width="6" height="18.94" rx="1.5" fill="#f6465d" /><line x1="286.68" y1="295.06" x2="286.68" y2="326.59" stroke="#f6465d" stroke-width="1.4" /><rect x="283.68" y="298.47" width="6" height="17.06" rx="1.5" fill="#f6465d" /><line x1="297.42" y1="302.71" x2="297.42" y2="347.41" stroke="#f6465d" stroke-width="1.4" /><rect x="294.42" y="314.71" width="6" height="16.82" rx="1.5" fill="#f6465d" /><line x1="308.15" y1="326.82" x2="308.15" y2="348.59" stroke="#f6465d" stroke-width="1.4" /><rect x="305.15" y="331.53" width="6" height="12.12" rx="1.5" fill="#f6465d" /><line x1="318.89" y1="315.65" x2="318.89" y2="354.35" stroke="#0ecb81" stroke-width="1.4" /><rect x="315.89" y="317.29" width="6" height="26.94" rx="1.5" fill="#0ecb81" /><line x1="329.62" y1="282.00" x2="329.62" y2="318.94" stroke="#0ecb81" stroke-width="1.4" /><rect x="326.62" y="297.65" width="6" height="19.65" rx="1.5" fill="#0ecb81" /><line x1="340.35" y1="281.18" x2="340.35" y2="315.06" stroke="#0ecb81" stroke-width="1.4" /><rect x="337.35" y="284.82" width="6" height="12.94" rx="1.5" fill="#0ecb81" /><line x1="351.09" y1="284.82" x2="351.09" y2="322.00" stroke="#f6465d" stroke-width="1.4" /><rect x="348.09" y="284.82" width="6" height="17.18" rx="1.5" fill="#f6465d" /><line x1="361.82" y1="290.35" x2="361.82" y2="325.88" stroke="#f6465d" stroke-width="1.4" /><rect x="358.82" y="301.76" width="6" height="12.82" rx="1.5" fill="#f6465d" /><line x1="372.56" y1="299.06" x2="372.56" y2="339.18" stroke="#f6465d" stroke-width="1.4" /><rect x="369.56" y="315.06" width="6" height="16.00" rx="1.5" fill="#f6465d" /><line x1="383.29" y1="268.94" x2="383.29" y2="332.94" stroke="#0ecb81" stroke-width="1.4" /><rect x="380.29" y="276.47" width="6" height="55.06" rx="1.5" fill="#0ecb81" /><line x1="394.03" y1="256.12" x2="394.03" y2="293.41" stroke="#f6465d" stroke-width="1.4" /><rect x="391.03" y="275.76" width="6" height="10.12" rx="1.5" fill="#f6465d" /><line x1="404.76" y1="273.76" x2="404.76" y2="307.18" stroke="#0ecb81" stroke-width="1.4" /><rect x="401.76" y="281.53" width="6" height="4.47" rx="1.5" fill="#0ecb81" /><line x1="415.49" y1="252.24" x2="415.49" y2="303.41" stroke="#f6465d" stroke-width="1.4" /><rect x="412.49" y="280.35" width="6" height="12.59" rx="1.5" fill="#f6465d" /><line x1="426.23" y1="275.18" x2="426.23" y2="322.24" stroke="#f6465d" stroke-width="1.4" /><rect x="423.23" y="292.94" width="6" height="20.00" rx="1.5" fill="#f6465d" /><line x1="436.96" y1="290.12" x2="436.96" y2="329.76" stroke="#0ecb81" stroke-width="1.4" /><rect x="433.96" y="305.76" width="6" height="6.59" rx="1.5" fill="#0ecb81" /><line x1="447.70" y1="306.94" x2="447.70" y2="357.29" stroke="#f6465d" stroke-width="1.4" /><rect x="444.70" y="306.94" width="6" height="44.35" rx="1.5" fill="#f6465d" /><line x1="458.43" y1="346.47" x2="458.43" y2="423.29" stroke="#f6465d" stroke-width="1.4" /><rect x="455.43" y="352.00" width="6" height="58.82" rx="1.5" fill="#f6465d" /><line x1="469.16" y1="368.59" x2="469.16" y2="414.94" stroke="#0ecb81" stroke-width="1.4" /><rect x="466.16" y="378.12" width="6" height="33.76" rx="1.5" fill="#0ecb81" /><line x1="479.90" y1="371.29" x2="479.90" y2="394.12" stroke="#0ecb81" stroke-width="1.4" /><rect x="476.90" y="378.35" width="6" height="2.00" rx="1.5" fill="#0ecb81" /><line x1="490.63" y1="362.47" x2="490.63" y2="391.18" stroke="#0ecb81" stroke-width="1.4" /><rect x="487.63" y="375.29" width="6" height="4.35" rx="1.5" fill="#0ecb81" /><line x1="501.37" y1="369.88" x2="501.37" y2="404.59" stroke="#f6465d" stroke-width="1.4" /><rect x="498.37" y="376.35" width="6" height="23.88" rx="1.5" fill="#f6465d" /><line x1="512.10" y1="377.65" x2="512.10" y2="410.00" stroke="#0ecb81" stroke-width="1.4" /><rect x="509.10" y="378.59" width="6" height="22.59" rx="1.5" fill="#0ecb81" /><line x1="522.84" y1="336.24" x2="522.84" y2="379.53" stroke="#0ecb81" stroke-width="1.4" /><rect x="519.84" y="346.12" width="6" height="33.18" rx="1.5" fill="#0ecb81" /><line x1="533.57" y1="326.35" x2="533.57" y2="365.18" stroke="#f6465d" stroke-width="1.4" /><rect x="530.57" y="345.76" width="6" height="4.94" rx="1.5" fill="#f6465d" /><line x1="544.30" y1="315.29" x2="544.30" y2="354.47" stroke="#0ecb81" stroke-width="1.4" /><rect x="541.30" y="320.24" width="6" height="30.24" rx="1.5" fill="#0ecb81" /><line x1="555.04" y1="290.59" x2="555.04" y2="344.71" stroke="#f6465d" stroke-width="1.4" /><rect x="552.04" y="318.71" width="6" height="9.18" rx="1.5" fill="#f6465d" /><line x1="565.77" y1="306.59" x2="565.77" y2="354.47" stroke="#f6465d" stroke-width="1.4" /><rect x="562.77" y="327.88" width="6" height="25.29" rx="1.5" fill="#f6465d" /><line x1="576.51" y1="351.18" x2="576.51" y2="386.00" stroke="#f6465d" stroke-width="1.4" /><rect x="573.51" y="352.35" width="6" height="26.12" rx="1.5" fill="#f6465d" /><line x1="587.24" y1="366.00" x2="587.24" y2="398.00" stroke="#f6465d" stroke-width="1.4" /><rect x="584.24" y="378.12" width="6" height="14.12" rx="1.5" fill="#f6465d" /><line x1="597.97" y1="392.35" x2="597.97" y2="421.53" stroke="#f6465d" stroke-width="1.4" /><rect x="594.97" y="392.35" width="6" height="20.82" rx="1.5" fill="#f6465d" /><line x1="608.71" y1="405.65" x2="608.71" y2="429.18" stroke="#0ecb81" stroke-width="1.4" /><rect x="605.71" y="405.65" width="6" height="8.59" rx="1.5" fill="#0ecb81" /><line x1="619.44" y1="403.88" x2="619.44" y2="425.76" stroke="#f6465d" stroke-width="1.4" /><rect x="616.44" y="405.53" width="6" height="5.76" rx="1.5" fill="#f6465d" /><line x1="630.18" y1="395.53" x2="630.18" y2="441.65" stroke="#0ecb81" stroke-width="1.4" /><rect x="627.18" y="406.12" width="6" height="5.29" rx="1.5" fill="#0ecb81" /><line x1="640.91" y1="396.47" x2="640.91" y2="425.18" stroke="#0ecb81" stroke-width="1.4" /><rect x="637.91" y="398.24" width="6" height="7.29" rx="1.5" fill="#0ecb81" /><line x1="651.65" y1="381.65" x2="651.65" y2="408.47" stroke="#0ecb81" stroke-width="1.4" /><rect x="648.65" y="397.06" width="6" height="2.00" rx="1.5" fill="#0ecb81" /><line x1="662.38" y1="391.41" x2="662.38" y2="420.24" stroke="#f6465d" stroke-width="1.4" /><rect x="659.38" y="397.06" width="6" height="7.29" rx="1.5" fill="#f6465d" /><line x1="673.11" y1="389.41" x2="673.11" y2="421.65" stroke="#f6465d" stroke-width="1.4" /><rect x="670.11" y="403.29" width="6" height="15.06" rx="1.5" fill="#f6465d" /><line x1="683.85" y1="382.59" x2="683.85" y2="425.29" stroke="#0ecb81" stroke-width="1.4" /><rect x="680.85" y="389.88" width="6" height="29.06" rx="1.5" fill="#0ecb81" /><line x1="694.58" y1="370.71" x2="694.58" y2="394.35" stroke="#0ecb81" stroke-width="1.4" /><rect x="691.58" y="375.65" width="6" height="14.35" rx="1.5" fill="#0ecb81" /><line x1="705.32" y1="365.76" x2="705.32" y2="403.41" stroke="#f6465d" stroke-width="1.4" /><rect x="702.32" y="376.94" width="6" height="16.47" rx="1.5" fill="#f6465d" /><line x1="716.05" y1="393.29" x2="716.05" y2="431.29" stroke="#f6465d" stroke-width="1.4" /><rect x="713.05" y="393.29" width="6" height="32.24" rx="1.5" fill="#f6465d" /><line x1="726.78" y1="404.71" x2="726.78" y2="452.00" stroke="#f6465d" stroke-width="1.4" /><rect x="723.78" y="425.53" width="6" height="10.00" rx="1.5" fill="#f6465d" /><line x1="737.52" y1="411.06" x2="737.52" y2="437.41" stroke="#0ecb81" stroke-width="1.4" /><rect x="734.52" y="411.06" width="6" height="24.59" rx="1.5" fill="#0ecb81" /><line x1="748.25" y1="396.47" x2="748.25" y2="422.59" stroke="#f6465d" stroke-width="1.4" /><rect x="745.25" y="412.00" width="6" height="7.65" rx="1.5" fill="#f6465d" /><line x1="758.99" y1="410.24" x2="758.99" y2="425.76" stroke="#0ecb81" stroke-width="1.4" /><rect x="755.99" y="410.71" width="6" height="9.41" rx="1.5" fill="#0ecb81" /><line x1="769.72" y1="402.59" x2="769.72" y2="436.00" stroke="#f6465d" stroke-width="1.4" /><rect x="766.72" y="411.41" width="6" height="22.12" rx="1.5" fill="#f6465d" /><line x1="780.46" y1="425.41" x2="780.46" y2="442.71" stroke="#0ecb81" stroke-width="1.4" /><rect x="777.46" y="429.76" width="6" height="4.00" rx="1.5" fill="#0ecb81" /><line x1="791.19" y1="415.29" x2="791.19" y2="441.65" stroke="#0ecb81" stroke-width="1.4" /><rect x="788.19" y="429.29" width="6" height="2.00" rx="1.5" fill="#0ecb81" /><line x1="801.92" y1="414.12" x2="801.92" y2="435.29" stroke="#0ecb81" stroke-width="1.4" /><rect x="798.92" y="414.12" width="6" height="16.00" rx="1.5" fill="#0ecb81" /><line x1="812.66" y1="370.35" x2="812.66" y2="417.29" stroke="#0ecb81" stroke-width="1.4" /><rect x="809.66" y="371.53" width="6" height="42.59" rx="1.5" fill="#0ecb81" /><line x1="823.39" y1="369.18" x2="823.39" y2="394.94" stroke="#f6465d" stroke-width="1.4" /><rect x="820.39" y="371.41" width="6" height="21.65" rx="1.5" fill="#f6465d" /><line x1="834.13" y1="367.06" x2="834.13" y2="395.53" stroke="#0ecb81" stroke-width="1.4" /><rect x="831.13" y="372.24" width="6" height="19.88" rx="1.5" fill="#0ecb81" /><line x1="844.86" y1="371.88" x2="844.86" y2="402.71" stroke="#f6465d" stroke-width="1.4" /><rect x="841.86" y="372.24" width="6" height="27.06" rx="1.5" fill="#f6465d" /><line x1="855.59" y1="388.12" x2="855.59" y2="409.76" stroke="#0ecb81" stroke-width="1.4" /><rect x="852.59" y="393.41" width="6" height="6.00" rx="1.5" fill="#0ecb81" /><line x1="866.33" y1="378.71" x2="866.33" y2="411.76" stroke="#f6465d" stroke-width="1.4" /><rect x="863.33" y="393.29" width="6" height="2.00" rx="1.5" fill="#f6465d" /><line x1="877.06" y1="384.00" x2="877.06" y2="417.06" stroke="#0ecb81" stroke-width="1.4" /><rect x="874.06" y="393.76" width="6" height="2.00" rx="1.5" fill="#0ecb81" /><line x1="887.80" y1="378.47" x2="887.80" y2="399.76" stroke="#0ecb81" stroke-width="1.4" /><rect x="884.80" y="386.94" width="6" height="7.76" rx="1.5" fill="#0ecb81" /><line x1="898.53" y1="376.59" x2="898.53" y2="394.00" stroke="#0ecb81" stroke-width="1.4" /><rect x="895.53" y="380.47" width="6" height="7.76" rx="1.5" fill="#0ecb81" /><line x1="909.27" y1="378.82" x2="909.27" y2="399.65" stroke="#f6465d" stroke-width="1.4" /><rect x="906.27" y="381.06" width="6" height="10.24" rx="1.5" fill="#f6465d" /><line x1="920.00" y1="383.88" x2="920.00" y2="394.94" stroke="#0ecb81" stroke-width="1.4" /><rect x="917.00" y="385.41" width="6" height="6.00" rx="1.5" fill="#0ecb81" />
  <polyline points="114.94,58.00 211.54,380.24 340.35,281.18 372.56,339.18 415.49,252.24" fill="none" stroke="#2fc273" stroke-width="4" stroke-linecap="round" stroke-linejoin="round" />
  <circle cx="114.94" cy="58.00" r="5.5" fill="#2fc273" fill-opacity="0.15" stroke="#2fc273" stroke-width="2" /><text x="114.94" y="46.00" fill="#f3f4f6" font-size="15" font-weight="700" text-anchor="middle">X</text><circle cx="211.54" cy="380.24" r="5.5" fill="#2fc273" fill-opacity="0.15" stroke="#2fc273" stroke-width="2" /><text x="211.54" y="368.24" fill="#f3f4f6" font-size="15" font-weight="700" text-anchor="middle">A</text><circle cx="340.35" cy="281.18" r="5.5" fill="#2fc273" fill-opacity="0.15" stroke="#2fc273" stroke-width="2" /><text x="340.35" y="269.18" fill="#f3f4f6" font-size="15" font-weight="700" text-anchor="middle">B</text><circle cx="372.56" cy="339.18" r="5.5" fill="#2fc273" fill-opacity="0.15" stroke="#2fc273" stroke-width="2" /><text x="372.56" y="327.18" fill="#f3f4f6" font-size="15" font-weight="700" text-anchor="middle">C</text><circle cx="415.49" cy="252.24" r="5.5" fill="#2fc273" fill-opacity="0.15" stroke="#2fc273" stroke-width="2" /><text x="415.49" y="240.24" fill="#f3f4f6" font-size="15" font-weight="700" text-anchor="middle">D</text>
  <text x="56" y="492" fill="#8ba0b5" font-size="18">일반 완성 · TP1 0.25536 · TP2 0.25361 · SL 0.26174</text>
</svg>
