<svg xmlns="http://www.w3.org/2000/svg" width="960" height="540" viewBox="0 0 960 540">
  <rect width="960" height="540" rx="24" fill="#0b1220" />
  <rect x="28" y="28" width="904" height="484" rx="22" fill="#111827" stroke="#1f2937" />
  <text x="56" y="74" fill="#f3f4f6" font-size="34" font-weight="700">BULLAUSDT · AB=CD</text>
  <text x="904" y="74" fill="#8ba0b5" font-size="20" text-anchor="end">Bearish (매도) · Score 85.8</text>
  <line x1="72" y1="58" x2="920" y2="58" stroke="#223045" stroke-width="1" stroke-dasharray="4 8" /><line x1="72" y1="156" x2="920" y2="156" stroke="#223045" stroke-width="1" stroke-dasharray="4 8" /><line x1="72" y1="255" x2="920" y2="255" stroke="#223045" stroke-width="1" stroke-dasharray="4 8" /><line x1="72" y1="353" x2="920" y2="353" stroke="#223045" stroke-width="1" stroke-dasharray="4 8" /><line x1="72" y1="452" x2="920" y2="452" stroke="#223045" stroke-width="1" stroke-dasharray="4 8" />
  <rect x="516.30" y="45.96" width="84" height="36.44" fill="#fbbf24" fill-opacity="0.12" stroke="#fbbf24" stroke-width="1.5" stroke-dasharray="6 6" />
  <line x1="72.00" y1="247.68" x2="72.00" y2="323.49" stroke="#f6465d" stroke-width="1.4" /><rect x="69.00" y="251.91" width="6" height="2.00" rx="1.5" fill="#f6465d" /><line x1="82.73" y1="170.25" x2="82.73" y2="275.01" stroke="#0ecb81" stroke-width="1.4" /><rect x="79.73" y="236.29" width="6" height="17.57" rx="1.5" fill="#0ecb81" /><line x1="93.47" y1="220.68" x2="93.47" y2="348.21" stroke="#f6465d" stroke-width="1.4" /><rect x="90.47" y="234.67" width="6" height="64.42" rx="1.5" fill="#f6465d" /><line x1="104.20" y1="272.73" x2="104.20" y2="323.81" stroke="#f6465d" stroke-width="1.4" /><rect x="101.20" y="299.09" width="6" height="2.00" rx="1.5" fill="#f6465d" /><line x1="114.94" y1="288.35" x2="114.94" y2="325.44" stroke="#0ecb81" stroke-width="1.4" /><rect x="111.94" y="298.76" width="6" height="2.60" rx="1.5" fill="#0ecb81" /><line x1="125.67" y1="260.04" x2="125.67" y2="310.80" stroke="#0ecb81" stroke-width="1.4" /><rect x="122.67" y="290.95" width="6" height="9.44" rx="1.5" fill="#0ecb81" /><line x1="136.41" y1="228.16" x2="136.41" y2="296.81" stroke="#0ecb81" stroke-width="1.4" /><rect x="133.41" y="250.28" width="6" height="37.74" rx="1.5" fill="#0ecb81" /><line x1="147.14" y1="200.50" x2="147.14" y2="249.63" stroke="#0ecb81" stroke-width="1.4" /><rect x="144.14" y="223.93" width="6" height="24.08" rx="1.5" fill="#0ecb81" /><line x1="157.87" y1="204.73" x2="157.87" y2="240.85" stroke="#0ecb81" stroke-width="1.4" /><rect x="154.87" y="217.42" width="6" height="5.86" rx="1.5" fill="#0ecb81" /><line x1="168.61" y1="184.89" x2="168.61" y2="232.06" stroke="#0ecb81" stroke-width="1.4" /><rect x="165.61" y="210.91" width="6" height="6.18" rx="1.5" fill="#0ecb81" /><line x1="179.34" y1="126.97" x2="179.34" y2="242.80" stroke="#0ecb81" stroke-width="1.4" /><rect x="176.34" y="181.63" width="6" height="29.28" rx="1.5" fill="#0ecb81" /><line x1="190.08" y1="153.98" x2="190.08" y2="201.48" stroke="#0ecb81" stroke-width="1.4" /><rect x="187.08" y="181.31" width="6" height="2.00" rx="1.5" fill="#0ecb81" /><line x1="200.81" y1="174.15" x2="200.81" y2="206.36" stroke="#f6465d" stroke-width="1.4" /><rect x="197.81" y="180.98" width="6" height="4.88" rx="1.5" fill="#f6465d" /><line x1="211.54" y1="169.27" x2="211.54" y2="202.13" stroke="#0ecb81" stroke-width="1.4" /><rect x="208.54" y="182.28" width="6" height="4.23" rx="1.5" fill="#0ecb81" /><line x1="222.28" y1="163.74" x2="222.28" y2="194.97" stroke="#0ecb81" stroke-width="1.4" /><rect x="219.28" y="167.64" width="6" height="14.97" rx="1.5" fill="#0ecb81" /><line x1="233.01" y1="133.16" x2="233.01" y2="185.54" stroke="#0ecb81" stroke-width="1.4" /><rect x="230.01" y="145.84" width="6" height="20.82" rx="1.5" fill="#0ecb81" /><line x1="243.75" y1="134.13" x2="243.75" y2="177.73" stroke="#f6465d" stroke-width="1.4" /><rect x="240.75" y="145.52" width="6" height="24.40" rx="1.5" fill="#f6465d" /><line x1="254.48" y1="169.60" x2="254.48" y2="215.47" stroke="#f6465d" stroke-width="1.4" /><rect x="251.48" y="170.57" width="6" height="30.91" rx="1.5" fill="#f6465d" /><line x1="265.22" y1="169.27" x2="265.22" y2="205.06" stroke="#0ecb81" stroke-width="1.4" /><rect x="262.22" y="183.91" width="6" height="18.55" rx="1.5" fill="#0ecb81" /><line x1="275.95" y1="138.36" x2="275.95" y2="206.03" stroke="#0ecb81" stroke-width="1.4" /><rect x="272.95" y="157.23" width="6" height="26.35" rx="1.5" fill="#0ecb81" /><line x1="286.68" y1="58.00" x2="286.68" y2="204.08" stroke="#f6465d" stroke-width="1.4" /><rect x="283.68" y="156.58" width="6" height="15.62" rx="1.5" fill="#f6465d" /><line x1="297.42" y1="167.97" x2="297.42" y2="223.28" stroke="#f6465d" stroke-width="1.4" /><rect x="294.42" y="171.22" width="6" height="23.10" rx="1.5" fill="#f6465d" /><line x1="308.15" y1="175.45" x2="308.15" y2="203.43" stroke="#0ecb81" stroke-width="1.4" /><rect x="305.15" y="183.91" width="6" height="10.41" rx="1.5" fill="#0ecb81" /><line x1="318.89" y1="173.82" x2="318.89" y2="206.03" stroke="#0ecb81" stroke-width="1.4" /><rect x="315.89" y="178.38" width="6" height="5.21" rx="1.5" fill="#0ecb81" /><line x1="329.62" y1="176.10" x2="329.62" y2="217.75" stroke="#f6465d" stroke-width="1.4" /><rect x="326.62" y="177.73" width="6" height="22.12" rx="1.5" fill="#f6465d" /><line x1="340.35" y1="184.56" x2="340.35" y2="205.38" stroke="#0ecb81" stroke-width="1.4" /><rect x="337.35" y="192.04" width="6" height="7.81" rx="1.5" fill="#0ecb81" /><line x1="351.09" y1="187.16" x2="351.09" y2="210.59" stroke="#f6465d" stroke-width="1.4" /><rect x="348.09" y="192.04" width="6" height="4.23" rx="1.5" fill="#f6465d" /><line x1="361.82" y1="183.59" x2="361.82" y2="216.12" stroke="#0ecb81" stroke-width="1.4" /><rect x="358.82" y="184.24" width="6" height="11.39" rx="1.5" fill="#0ecb81" /><line x1="372.56" y1="166.02" x2="372.56" y2="211.89" stroke="#f6465d" stroke-width="1.4" /><rect x="369.56" y="183.91" width="6" height="11.06" rx="1.5" fill="#f6465d" /><line x1="383.29" y1="182.61" x2="383.29" y2="199.85" stroke="#0ecb81" stroke-width="1.4" /><rect x="380.29" y="183.59" width="6" height="10.74" rx="1.5" fill="#0ecb81" /><line x1="394.03" y1="133.81" x2="394.03" y2="183.59" stroke="#0ecb81" stroke-width="1.4" /><rect x="391.03" y="149.75" width="6" height="33.51" rx="1.5" fill="#0ecb81" /><line x1="404.76" y1="113.96" x2="404.76" y2="187.16" stroke="#f6465d" stroke-width="1.4" /><rect x="401.76" y="149.75" width="6" height="11.06" rx="1.5" fill="#f6465d" /><line x1="415.49" y1="139.01" x2="415.49" y2="198.55" stroke="#f6465d" stroke-width="1.4" /><rect x="412.49" y="160.81" width="6" height="2.00" rx="1.5" fill="#f6465d" /><line x1="426.23" y1="136.73" x2="426.23" y2="167.64" stroke="#0ecb81" stroke-width="1.4" /><rect x="423.23" y="160.49" width="6" height="2.00" rx="1.5" fill="#0ecb81" /><line x1="436.96" y1="123.07" x2="436.96" y2="170.90" stroke="#0ecb81" stroke-width="1.4" /><rect x="433.96" y="149.75" width="6" height="11.06" rx="1.5" fill="#0ecb81" /><line x1="447.70" y1="123.40" x2="447.70" y2="165.04" stroke="#f6465d" stroke-width="1.4" /><rect x="444.70" y="149.75" width="6" height="3.90" rx="1.5" fill="#f6465d" /><line x1="458.43" y1="136.08" x2="458.43" y2="162.11" stroke="#f6465d" stroke-width="1.4" /><rect x="455.43" y="153.33" width="6" height="2.00" rx="1.5" fill="#f6465d" /><line x1="469.16" y1="153.65" x2="469.16" y2="173.17" stroke="#f6465d" stroke-width="1.4" /><rect x="466.16" y="154.63" width="6" height="14.97" rx="1.5" fill="#f6465d" /><line x1="479.90" y1="159.83" x2="479.90" y2="182.61" stroke="#f6465d" stroke-width="1.4" /><rect x="476.90" y="169.92" width="6" height="4.55" rx="1.5" fill="#f6465d" /><line x1="490.63" y1="165.04" x2="490.63" y2="191.72" stroke="#f6465d" stroke-width="1.4" /><rect x="487.63" y="175.13" width="6" height="11.39" rx="1.5" fill="#f6465d" /><line x1="501.37" y1="141.29" x2="501.37" y2="186.51" stroke="#0ecb81" stroke-width="1.4" /><rect x="498.37" y="145.19" width="6" height="40.34" rx="1.5" fill="#0ecb81" /><line x1="512.10" y1="114.61" x2="512.10" y2="154.30" stroke="#0ecb81" stroke-width="1.4" /><rect x="509.10" y="119.17" width="6" height="26.68" rx="1.5" fill="#0ecb81" /><line x1="522.84" y1="100.95" x2="522.84" y2="145.52" stroke="#f6465d" stroke-width="1.4" /><rect x="519.84" y="119.17" width="6" height="17.24" rx="1.5" fill="#f6465d" /><line x1="533.57" y1="110.71" x2="533.57" y2="147.80" stroke="#0ecb81" stroke-width="1.4" /><rect x="530.57" y="114.29" width="6" height="22.77" rx="1.5" fill="#0ecb81" /><line x1="544.30" y1="90.21" x2="544.30" y2="118.52" stroke="#0ecb81" stroke-width="1.4" /><rect x="541.30" y="103.87" width="6" height="10.41" rx="1.5" fill="#0ecb81" /><line x1="555.04" y1="91.19" x2="555.04" y2="131.53" stroke="#f6465d" stroke-width="1.4" /><rect x="552.04" y="103.55" width="6" height="19.20" rx="1.5" fill="#f6465d" /><line x1="565.77" y1="112.01" x2="565.77" y2="145.52" stroke="#f6465d" stroke-width="1.4" /><rect x="562.77" y="122.74" width="6" height="6.83" rx="1.5" fill="#f6465d" /><line x1="576.51" y1="118.19" x2="576.51" y2="140.31" stroke="#0ecb81" stroke-width="1.4" /><rect x="573.51" y="126.97" width="6" height="2.28" rx="1.5" fill="#0ecb81" /><line x1="587.24" y1="102.25" x2="587.24" y2="132.18" stroke="#0ecb81" stroke-width="1.4" /><rect x="584.24" y="113.64" width="6" height="13.01" rx="1.5" fill="#0ecb81" /><line x1="597.97" y1="112.01" x2="597.97" y2="163.74" stroke="#f6465d" stroke-width="1.4" /><rect x="594.97" y="113.64" width="6" height="2.00" rx="1.5" fill="#f6465d" /><line x1="608.71" y1="113.64" x2="608.71" y2="142.27" stroke="#f6465d" stroke-width="1.4" /><rect x="605.71" y="115.26" width="6" height="24.40" rx="1.5" fill="#f6465d" /><line x1="619.44" y1="138.36" x2="619.44" y2="177.40" stroke="#f6465d" stroke-width="1.4" /><rect x="616.44" y="138.69" width="6" height="21.15" rx="1.5" fill="#f6465d" /><line x1="630.18" y1="148.45" x2="630.18" y2="180.66" stroke="#f6465d" stroke-width="1.4" /><rect x="627.18" y="159.51" width="6" height="20.82" rx="1.5" fill="#f6465d" /><line x1="640.91" y1="175.13" x2="640.91" y2="304.29" stroke="#f6465d" stroke-width="1.4" /><rect x="637.91" y="180.01" width="6" height="112.57" rx="1.5" fill="#f6465d" /><line x1="651.65" y1="234.67" x2="651.65" y2="335.20" stroke="#0ecb81" stroke-width="1.4" /><rect x="648.65" y="278.91" width="6" height="13.99" rx="1.5" fill="#0ecb81" /><line x1="662.38" y1="226.53" x2="662.38" y2="278.59" stroke="#0ecb81" stroke-width="1.4" /><rect x="659.38" y="244.43" width="6" height="34.16" rx="1.5" fill="#0ecb81" /><line x1="673.11" y1="211.89" x2="673.11" y2="246.05" stroke="#0ecb81" stroke-width="1.4" /><rect x="670.11" y="232.06" width="6" height="12.36" rx="1.5" fill="#0ecb81" /><line x1="683.85" y1="218.40" x2="683.85" y2="240.52" stroke="#0ecb81" stroke-width="1.4" /><rect x="680.85" y="221.98" width="6" height="9.11" rx="1.5" fill="#0ecb81" /><line x1="694.58" y1="209.29" x2="694.58" y2="233.69" stroke="#f6465d" stroke-width="1.4" /><rect x="691.58" y="221.65" width="6" height="9.11" rx="1.5" fill="#f6465d" /><line x1="705.32" y1="230.11" x2="705.32" y2="251.91" stroke="#f6465d" stroke-width="1.4" /><rect x="702.32" y="230.76" width="6" height="10.41" rx="1.5" fill="#f6465d" /><line x1="716.05" y1="230.76" x2="716.05" y2="287.37" stroke="#f6465d" stroke-width="1.4" /><rect x="713.05" y="241.17" width="6" height="37.42" rx="1.5" fill="#f6465d" /><line x1="726.78" y1="274.36" x2="726.78" y2="314.38" stroke="#f6465d" stroke-width="1.4" /><rect x="723.78" y="277.94" width="6" height="23.43" rx="1.5" fill="#f6465d" /><line x1="737.52" y1="298.43" x2="737.52" y2="452.00" stroke="#f6465d" stroke-width="1.4" /><rect x="734.52" y="301.36" width="6" height="76.78" rx="1.5" fill="#f6465d" /><line x1="748.25" y1="357.65" x2="748.25" y2="442.24" stroke="#f6465d" stroke-width="1.4" /><rect x="745.25" y="377.82" width="6" height="2.93" rx="1.5" fill="#f6465d" /><line x1="758.99" y1="357.65" x2="758.99" y2="398.32" stroke="#0ecb81" stroke-width="1.4" /><rect x="755.99" y="371.64" width="6" height="8.13" rx="1.5" fill="#0ecb81" /><line x1="769.72" y1="356.67" x2="769.72" y2="387.26" stroke="#0ecb81" stroke-width="1.4" /><rect x="766.72" y="362.53" width="6" height="8.78" rx="1.5" fill="#0ecb81" /><line x1="780.46" y1="322.51" x2="780.46" y2="370.34" stroke="#0ecb81" stroke-width="1.4" /><rect x="777.46" y="340.73" width="6" height="22.12" rx="1.5" fill="#0ecb81" /><line x1="791.19" y1="265.57" x2="791.19" y2="343.33" stroke="#0ecb81" stroke-width="1.4" /><rect x="788.19" y="280.87" width="6" height="59.86" rx="1.5" fill="#0ecb81" /><line x1="801.92" y1="236.62" x2="801.92" y2="298.11" stroke="#0ecb81" stroke-width="1.4" /><rect x="798.92" y="272.08" width="6" height="9.11" rx="1.5" fill="#0ecb81" /><line x1="812.66" y1="224.25" x2="812.66" y2="277.94" stroke="#0ecb81" stroke-width="1.4" /><rect x="809.66" y="236.94" width="6" height="35.14" rx="1.5" fill="#0ecb81" /><line x1="823.39" y1="192.04" x2="823.39" y2="238.24" stroke="#0ecb81" stroke-width="1.4" /><rect x="820.39" y="214.82" width="6" height="22.12" rx="1.5" fill="#0ecb81" /><line x1="834.13" y1="182.28" x2="834.13" y2="223.28" stroke="#0ecb81" stroke-width="1.4" /><rect x="831.13" y="186.84" width="6" height="28.63" rx="1.5" fill="#0ecb81" /><line x1="844.86" y1="174.48" x2="844.86" y2="228.81" stroke="#f6465d" stroke-width="1.4" /><rect x="841.86" y="187.16" width="6" height="22.12" rx="1.5" fill="#f6465d" /><line x1="855.59" y1="174.80" x2="855.59" y2="227.18" stroke="#0ecb81" stroke-width="1.4" /><rect x="852.59" y="208.64" width="6" height="2.00" rx="1.5" fill="#0ecb81" /><line x1="866.33" y1="189.77" x2="866.33" y2="216.12" stroke="#0ecb81" stroke-width="1.4" /><rect x="863.33" y="203.43" width="6" height="5.86" rx="1.5" fill="#0ecb81" /><line x1="877.06" y1="189.77" x2="877.06" y2="209.29" stroke="#0ecb81" stroke-width="1.4" /><rect x="874.06" y="199.85" width="6" height="3.90" rx="1.5" fill="#0ecb81" /><line x1="887.80" y1="178.71" x2="887.80" y2="211.24" stroke="#0ecb81" stroke-width="1.4" /><rect x="884.80" y="181.31" width="6" height="18.55" rx="1.5" fill="#0ecb81" /><line x1="898.53" y1="179.36" x2="898.53" y2="205.71" stroke="#f6465d" stroke-width="1.4" /><rect x="895.53" y="180.98" width="6" height="3.90" rx="1.5" fill="#f6465d" /><line x1="909.27" y1="177.40" x2="909.27" y2="211.89" stroke="#f6465d" stroke-width="1.4" /><rect x="906.27" y="184.56" width="6" height="25.70" rx="1.5" fill="#f6465d" /><line x1="920.00" y1="176.75" x2="920.00" y2="219.37" stroke="#0ecb81" stroke-width="1.4" /><rect x="917.00" y="189.77" width="6" height="18.55" rx="1.5" fill="#0ecb81" />
  <polyline points="286.68,58.00 297.42,223.28 404.76,113.96 490.63,191.72 544.30,90.21" fill="none" stroke="#2fc273" stroke-width="4" stroke-linecap="round" stroke-linejoin="round" />
  <circle cx="286.68" cy="58.00" r="5.5" fill="#2fc273" fill-opacity="0.15" stroke="#2fc273" stroke-width="2" /><text x="286.68" y="46.00" fill="#f3f4f6" font-size="15" font-weight="700" text-anchor="middle">X</text><circle cx="297.42" cy="223.28" r="5.5" fill="#2fc273" fill-opacity="0.15" stroke="#2fc273" stroke-width="2" /><text x="297.42" y="211.28" fill="#f3f4f6" font-size="15" font-weight="700" text-anchor="middle">A</text><circle cx="404.76" cy="113.96" r="5.5" fill="#2fc273" fill-opacity="0.15" stroke="#2fc273" stroke-width="2" /><text x="404.76" y="101.96" fill="#f3f4f6" font-size="15" font-weight="700" text-anchor="middle">B</text><circle cx="490.63" cy="191.72" r="5.5" fill="#2fc273" fill-opacity="0.15" stroke="#2fc273" stroke-width="2" /><text x="490.63" y="179.72" fill="#f3f4f6" font-size="15" font-weight="700" text-anchor="middle">C</text><circle cx="544.30" cy="90.21" r="5.5" fill="#2fc273" fill-opacity="0.15" stroke="#2fc273" stroke-width="2" /><text x="544.30" y="78.21" fill="#f3f4f6" font-size="15" font-weight="700" text-anchor="middle">D</text>
  <text x="56" y="492" fill="#8ba0b5" font-size="18">일반 완성 · TP1 0.008363 · TP2 0.008289 · SL 0.008548</text>
</svg>
