<svg xmlns="http://www.w3.org/2000/svg" width="960" height="540" viewBox="0 0 960 540">
  <rect width="960" height="540" rx="24" fill="#0b1220" />
  <rect x="28" y="28" width="904" height="484" rx="22" fill="#111827" stroke="#1f2937" />
  <text x="56" y="74" fill="#f3f4f6" font-size="34" font-weight="700">DASHUSDT · AB=CD</text>
  <text x="904" y="74" fill="#8ba0b5" font-size="20" text-anchor="end">Bullish (매수) · Score 85.1</text>
  <line x1="72" y1="58" x2="920" y2="58" stroke="#223045" stroke-width="1" stroke-dasharray="4 8" /><line x1="72" y1="156" x2="920" y2="156" stroke="#223045" stroke-width="1" stroke-dasharray="4 8" /><line x1="72" y1="255" x2="920" y2="255" stroke="#223045" stroke-width="1" stroke-dasharray="4 8" /><line x1="72" y1="353" x2="920" y2="353" stroke="#223045" stroke-width="1" stroke-dasharray="4 8" /><line x1="72" y1="452" x2="920" y2="452" stroke="#223045" stroke-width="1" stroke-dasharray="4 8" />
  <rect x="86.94" y="411.91" width="84" height="51.50" fill="#fbbf24" fill-opacity="0.12" stroke="#fbbf24" stroke-width="1.5" stroke-dasharray="6 6" />
  <line x1="72.00" y1="427.81" x2="72.00" y2="445.09" stroke="#f6465d" stroke-width="1.4" /><rect x="69.00" y="431.26" width="6" height="6.91" rx="1.5" fill="#f6465d" /><line x1="82.73" y1="431.26" x2="82.73" y2="445.09" stroke="#0ecb81" stroke-width="1.4" /><rect x="79.73" y="438.18" width="6" height="2.00" rx="1.5" fill="#0ecb81" /><line x1="93.47" y1="434.72" x2="93.47" y2="452.00" stroke="#f6465d" stroke-width="1.4" /><rect x="90.47" y="438.18" width="6" height="6.91" rx="1.5" fill="#f6465d" /><line x1="104.20" y1="434.72" x2="104.20" y2="445.09" stroke="#0ecb81" stroke-width="1.4" /><rect x="101.20" y="445.09" width="6" height="2.00" rx="1.5" fill="#0ecb81" /><line x1="114.94" y1="438.18" x2="114.94" y2="452.00" stroke="#f6465d" stroke-width="1.4" /><rect x="111.94" y="441.63" width="6" height="6.91" rx="1.5" fill="#f6465d" /><line x1="125.67" y1="438.18" x2="125.67" y2="448.54" stroke="#0ecb81" stroke-width="1.4" /><rect x="122.67" y="441.63" width="6" height="6.91" rx="1.5" fill="#0ecb81" /><line x1="136.41" y1="424.35" x2="136.41" y2="445.09" stroke="#0ecb81" stroke-width="1.4" /><rect x="133.41" y="427.81" width="6" height="17.28" rx="1.5" fill="#0ecb81" /><line x1="147.14" y1="393.25" x2="147.14" y2="431.26" stroke="#0ecb81" stroke-width="1.4" /><rect x="144.14" y="393.25" width="6" height="34.56" rx="1.5" fill="#0ecb81" /><line x1="157.87" y1="389.79" x2="157.87" y2="434.72" stroke="#f6465d" stroke-width="1.4" /><rect x="154.87" y="393.25" width="6" height="41.47" rx="1.5" fill="#f6465d" /><line x1="168.61" y1="375.96" x2="168.61" y2="445.09" stroke="#0ecb81" stroke-width="1.4" /><rect x="165.61" y="389.79" width="6" height="44.93" rx="1.5" fill="#0ecb81" /><line x1="179.34" y1="372.51" x2="179.34" y2="400.16" stroke="#0ecb81" stroke-width="1.4" /><rect x="176.34" y="386.33" width="6" height="3.46" rx="1.5" fill="#0ecb81" /><line x1="190.08" y1="386.33" x2="190.08" y2="424.35" stroke="#f6465d" stroke-width="1.4" /><rect x="187.08" y="386.33" width="6" height="13.82" rx="1.5" fill="#f6465d" /><line x1="200.81" y1="396.70" x2="200.81" y2="424.35" stroke="#f6465d" stroke-width="1.4" /><rect x="197.81" y="403.61" width="6" height="13.82" rx="1.5" fill="#f6465d" /><line x1="211.54" y1="417.44" x2="211.54" y2="441.63" stroke="#f6465d" stroke-width="1.4" /><rect x="208.54" y="417.44" width="6" height="6.91" rx="1.5" fill="#f6465d" /><line x1="222.28" y1="417.44" x2="222.28" y2="438.18" stroke="#0ecb81" stroke-width="1.4" /><rect x="219.28" y="417.44" width="6" height="10.37" rx="1.5" fill="#0ecb81" /><line x1="233.01" y1="386.33" x2="233.01" y2="417.44" stroke="#0ecb81" stroke-width="1.4" /><rect x="230.01" y="393.25" width="6" height="24.19" rx="1.5" fill="#0ecb81" /><line x1="243.75" y1="372.51" x2="243.75" y2="400.16" stroke="#0ecb81" stroke-width="1.4" /><rect x="240.75" y="372.51" width="6" height="17.28" rx="1.5" fill="#0ecb81" /><line x1="254.48" y1="334.49" x2="254.48" y2="386.33" stroke="#0ecb81" stroke-width="1.4" /><rect x="251.48" y="348.32" width="6" height="27.65" rx="1.5" fill="#0ecb81" /><line x1="265.22" y1="317.21" x2="265.22" y2="351.77" stroke="#0ecb81" stroke-width="1.4" /><rect x="262.22" y="324.12" width="6" height="24.19" rx="1.5" fill="#0ecb81" /><line x1="275.95" y1="310.30" x2="275.95" y2="341.40" stroke="#f6465d" stroke-width="1.4" /><rect x="272.95" y="320.67" width="6" height="20.74" rx="1.5" fill="#f6465d" /><line x1="286.68" y1="282.65" x2="286.68" y2="334.49" stroke="#0ecb81" stroke-width="1.4" /><rect x="283.68" y="296.47" width="6" height="38.02" rx="1.5" fill="#0ecb81" /><line x1="297.42" y1="234.26" x2="297.42" y2="296.47" stroke="#0ecb81" stroke-width="1.4" /><rect x="294.42" y="275.74" width="6" height="17.28" rx="1.5" fill="#0ecb81" /><line x1="308.15" y1="261.91" x2="308.15" y2="286.11" stroke="#0ecb81" stroke-width="1.4" /><rect x="305.15" y="279.19" width="6" height="2.00" rx="1.5" fill="#0ecb81" /><line x1="318.89" y1="265.37" x2="318.89" y2="296.47" stroke="#0ecb81" stroke-width="1.4" /><rect x="315.89" y="268.82" width="6" height="10.37" rx="1.5" fill="#0ecb81" /><line x1="329.62" y1="223.89" x2="329.62" y2="265.37" stroke="#0ecb81" stroke-width="1.4" /><rect x="326.62" y="223.89" width="6" height="41.47" rx="1.5" fill="#0ecb81" /><line x1="340.35" y1="213.53" x2="340.35" y2="286.11" stroke="#f6465d" stroke-width="1.4" /><rect x="337.35" y="223.89" width="6" height="51.84" rx="1.5" fill="#f6465d" /><line x1="351.09" y1="255.00" x2="351.09" y2="282.65" stroke="#0ecb81" stroke-width="1.4" /><rect x="348.09" y="261.91" width="6" height="13.82" rx="1.5" fill="#0ecb81" /><line x1="361.82" y1="210.07" x2="361.82" y2="261.91" stroke="#0ecb81" stroke-width="1.4" /><rect x="358.82" y="227.35" width="6" height="34.56" rx="1.5" fill="#0ecb81" /><line x1="372.56" y1="213.53" x2="372.56" y2="241.18" stroke="#f6465d" stroke-width="1.4" /><rect x="369.56" y="227.35" width="6" height="13.82" rx="1.5" fill="#f6465d" /><line x1="383.29" y1="234.26" x2="383.29" y2="265.37" stroke="#f6465d" stroke-width="1.4" /><rect x="380.29" y="237.72" width="6" height="13.82" rx="1.5" fill="#f6465d" /><line x1="394.03" y1="230.81" x2="394.03" y2="258.46" stroke="#f6465d" stroke-width="1.4" /><rect x="391.03" y="248.09" width="6" height="6.91" rx="1.5" fill="#f6465d" /><line x1="404.76" y1="234.26" x2="404.76" y2="261.91" stroke="#0ecb81" stroke-width="1.4" /><rect x="401.76" y="244.63" width="6" height="10.37" rx="1.5" fill="#0ecb81" /><line x1="415.49" y1="227.35" x2="415.49" y2="248.09" stroke="#0ecb81" stroke-width="1.4" /><rect x="412.49" y="227.35" width="6" height="17.28" rx="1.5" fill="#0ecb81" /><line x1="426.23" y1="134.04" x2="426.23" y2="227.35" stroke="#0ecb81" stroke-width="1.4" /><rect x="423.23" y="161.68" width="6" height="62.21" rx="1.5" fill="#0ecb81" /><line x1="436.96" y1="134.04" x2="436.96" y2="158.23" stroke="#0ecb81" stroke-width="1.4" /><rect x="433.96" y="154.77" width="6" height="3.46" rx="1.5" fill="#0ecb81" /><line x1="447.70" y1="109.84" x2="447.70" y2="175.51" stroke="#0ecb81" stroke-width="1.4" /><rect x="444.70" y="116.75" width="6" height="41.47" rx="1.5" fill="#0ecb81" /><line x1="458.43" y1="102.93" x2="458.43" y2="151.32" stroke="#f6465d" stroke-width="1.4" /><rect x="455.43" y="120.21" width="6" height="24.19" rx="1.5" fill="#f6465d" /><line x1="469.16" y1="96.02" x2="469.16" y2="161.68" stroke="#0ecb81" stroke-width="1.4" /><rect x="466.16" y="102.93" width="6" height="41.47" rx="1.5" fill="#0ecb81" /><line x1="479.90" y1="96.02" x2="479.90" y2="123.67" stroke="#0ecb81" stroke-width="1.4" /><rect x="476.90" y="102.93" width="6" height="2.00" rx="1.5" fill="#0ecb81" /><line x1="490.63" y1="89.11" x2="490.63" y2="134.04" stroke="#f6465d" stroke-width="1.4" /><rect x="487.63" y="102.93" width="6" height="31.11" rx="1.5" fill="#f6465d" /><line x1="501.37" y1="71.82" x2="501.37" y2="134.04" stroke="#0ecb81" stroke-width="1.4" /><rect x="498.37" y="82.19" width="6" height="48.39" rx="1.5" fill="#0ecb81" /><line x1="512.10" y1="58.00" x2="512.10" y2="89.11" stroke="#0ecb81" stroke-width="1.4" /><rect x="509.10" y="78.74" width="6" height="2.00" rx="1.5" fill="#0ecb81" /><line x1="522.84" y1="64.91" x2="522.84" y2="89.11" stroke="#f6465d" stroke-width="1.4" /><rect x="519.84" y="75.28" width="6" height="6.91" rx="1.5" fill="#f6465d" /><line x1="533.57" y1="71.82" x2="533.57" y2="106.39" stroke="#f6465d" stroke-width="1.4" /><rect x="530.57" y="82.19" width="6" height="17.28" rx="1.5" fill="#f6465d" /><line x1="544.30" y1="92.56" x2="544.30" y2="130.58" stroke="#f6465d" stroke-width="1.4" /><rect x="541.30" y="99.47" width="6" height="31.11" rx="1.5" fill="#f6465d" /><line x1="555.04" y1="120.21" x2="555.04" y2="168.60" stroke="#f6465d" stroke-width="1.4" /><rect x="552.04" y="127.12" width="6" height="34.56" rx="1.5" fill="#f6465d" /><line x1="565.77" y1="147.86" x2="565.77" y2="172.05" stroke="#f6465d" stroke-width="1.4" /><rect x="562.77" y="158.23" width="6" height="3.46" rx="1.5" fill="#f6465d" /><line x1="576.51" y1="127.12" x2="576.51" y2="161.68" stroke="#0ecb81" stroke-width="1.4" /><rect x="573.51" y="158.23" width="6" height="3.46" rx="1.5" fill="#0ecb81" /><line x1="587.24" y1="144.40" x2="587.24" y2="168.60" stroke="#0ecb81" stroke-width="1.4" /><rect x="584.24" y="154.77" width="6" height="3.46" rx="1.5" fill="#0ecb81" /><line x1="597.97" y1="154.77" x2="597.97" y2="178.96" stroke="#f6465d" stroke-width="1.4" /><rect x="594.97" y="158.23" width="6" height="17.28" rx="1.5" fill="#f6465d" /><line x1="608.71" y1="165.14" x2="608.71" y2="175.51" stroke="#0ecb81" stroke-width="1.4" /><rect x="605.71" y="168.60" width="6" height="6.91" rx="1.5" fill="#0ecb81" /><line x1="619.44" y1="168.60" x2="619.44" y2="192.79" stroke="#f6465d" stroke-width="1.4" /><rect x="616.44" y="168.60" width="6" height="13.82" rx="1.5" fill="#f6465d" /><line x1="630.18" y1="175.51" x2="630.18" y2="196.25" stroke="#0ecb81" stroke-width="1.4" /><rect x="627.18" y="182.42" width="6" height="3.46" rx="1.5" fill="#0ecb81" /><line x1="640.91" y1="185.88" x2="640.91" y2="203.16" stroke="#f6465d" stroke-width="1.4" /><rect x="637.91" y="185.88" width="6" height="13.82" rx="1.5" fill="#f6465d" /><line x1="651.65" y1="182.42" x2="651.65" y2="199.70" stroke="#0ecb81" stroke-width="1.4" /><rect x="648.65" y="192.79" width="6" height="6.91" rx="1.5" fill="#0ecb81" /><line x1="662.38" y1="172.05" x2="662.38" y2="199.70" stroke="#0ecb81" stroke-width="1.4" /><rect x="659.38" y="182.42" width="6" height="10.37" rx="1.5" fill="#0ecb81" /><line x1="673.11" y1="172.05" x2="673.11" y2="192.79" stroke="#f6465d" stroke-width="1.4" /><rect x="670.11" y="178.96" width="6" height="10.37" rx="1.5" fill="#f6465d" /><line x1="683.85" y1="151.32" x2="683.85" y2="192.79" stroke="#0ecb81" stroke-width="1.4" /><rect x="680.85" y="154.77" width="6" height="38.02" rx="1.5" fill="#0ecb81" /><line x1="694.58" y1="154.77" x2="694.58" y2="182.42" stroke="#f6465d" stroke-width="1.4" /><rect x="691.58" y="154.77" width="6" height="3.46" rx="1.5" fill="#f6465d" /><line x1="705.32" y1="68.37" x2="705.32" y2="168.60" stroke="#0ecb81" stroke-width="1.4" /><rect x="702.32" y="123.67" width="6" height="38.02" rx="1.5" fill="#0ecb81" /><line x1="716.05" y1="78.74" x2="716.05" y2="127.12" stroke="#0ecb81" stroke-width="1.4" /><rect x="713.05" y="89.11" width="6" height="38.02" rx="1.5" fill="#0ecb81" /><line x1="726.78" y1="85.65" x2="726.78" y2="134.04" stroke="#f6465d" stroke-width="1.4" /><rect x="723.78" y="89.11" width="6" height="41.47" rx="1.5" fill="#f6465d" /><line x1="737.52" y1="109.84" x2="737.52" y2="140.95" stroke="#0ecb81" stroke-width="1.4" /><rect x="734.52" y="116.75" width="6" height="13.82" rx="1.5" fill="#0ecb81" /><line x1="748.25" y1="85.65" x2="748.25" y2="120.21" stroke="#f6465d" stroke-width="1.4" /><rect x="745.25" y="113.30" width="6" height="3.46" rx="1.5" fill="#f6465d" /><line x1="758.99" y1="106.39" x2="758.99" y2="147.86" stroke="#f6465d" stroke-width="1.4" /><rect x="755.99" y="120.21" width="6" height="24.19" rx="1.5" fill="#f6465d" /><line x1="769.72" y1="113.30" x2="769.72" y2="147.86" stroke="#0ecb81" stroke-width="1.4" /><rect x="766.72" y="120.21" width="6" height="27.65" rx="1.5" fill="#0ecb81" /><line x1="780.46" y1="102.93" x2="780.46" y2="130.58" stroke="#f6465d" stroke-width="1.4" /><rect x="777.46" y="116.75" width="6" height="13.82" rx="1.5" fill="#f6465d" /><line x1="791.19" y1="109.84" x2="791.19" y2="137.49" stroke="#f6465d" stroke-width="1.4" /><rect x="788.19" y="127.12" width="6" height="10.37" rx="1.5" fill="#f6465d" /><line x1="801.92" y1="116.75" x2="801.92" y2="137.49" stroke="#0ecb81" stroke-width="1.4" /><rect x="798.92" y="137.49" width="6" height="2.00" rx="1.5" fill="#0ecb81" /><line x1="812.66" y1="106.39" x2="812.66" y2="137.49" stroke="#0ecb81" stroke-width="1.4" /><rect x="809.66" y="120.21" width="6" height="17.28" rx="1.5" fill="#0ecb81" /><line x1="823.39" y1="78.74" x2="823.39" y2="123.67" stroke="#0ecb81" stroke-width="1.4" /><rect x="820.39" y="106.39" width="6" height="10.37" rx="1.5" fill="#0ecb81" /><line x1="834.13" y1="75.28" x2="834.13" y2="109.84" stroke="#f6465d" stroke-width="1.4" /><rect x="831.13" y="106.39" width="6" height="3.46" rx="1.5" fill="#f6465d" /><line x1="844.86" y1="85.65" x2="844.86" y2="123.67" stroke="#f6465d" stroke-width="1.4" /><rect x="841.86" y="109.84" width="6" height="13.82" rx="1.5" fill="#f6465d" /><line x1="855.59" y1="82.19" x2="855.59" y2="127.12" stroke="#0ecb81" stroke-width="1.4" /><rect x="852.59" y="85.65" width="6" height="38.02" rx="1.5" fill="#0ecb81" /><line x1="866.33" y1="68.37" x2="866.33" y2="82.19" stroke="#0ecb81" stroke-width="1.4" /><rect x="863.33" y="71.82" width="6" height="10.37" rx="1.5" fill="#0ecb81" /><line x1="877.06" y1="75.28" x2="877.06" y2="106.39" stroke="#f6465d" stroke-width="1.4" /><rect x="874.06" y="75.28" width="6" height="27.65" rx="1.5" fill="#f6465d" /><line x1="887.80" y1="96.02" x2="887.80" y2="120.21" stroke="#f6465d" stroke-width="1.4" /><rect x="884.80" y="106.39" width="6" height="10.37" rx="1.5" fill="#f6465d" /><line x1="898.53" y1="113.30" x2="898.53" y2="151.32" stroke="#f6465d" stroke-width="1.4" /><rect x="895.53" y="116.75" width="6" height="17.28" rx="1.5" fill="#f6465d" /><line x1="909.27" y1="120.21" x2="909.27" y2="140.95" stroke="#0ecb81" stroke-width="1.4" /><rect x="906.27" y="130.58" width="6" height="3.46" rx="1.5" fill="#0ecb81" /><line x1="920.00" y1="120.21" x2="920.00" y2="140.95" stroke="#0ecb81" stroke-width="1.4" /><rect x="917.00" y="127.12" width="6" height="6.91" rx="1.5" fill="#0ecb81" />
  <polyline points="72.00,424.35 72.00,382.88 72.00,420.89 72.00,386.33 114.94,452.00" fill="none" stroke="#2fc273" stroke-width="4" stroke-linecap="round" stroke-linejoin="round" />
  <circle cx="72.00" cy="424.35" r="5.5" fill="#2fc273" fill-opacity="0.15" stroke="#2fc273" stroke-width="2" /><text x="72.00" y="412.35" fill="#f3f4f6" font-size="15" font-weight="700" text-anchor="middle">X</text><circle cx="72.00" cy="382.88" r="5.5" fill="#2fc273" fill-opacity="0.15" stroke="#2fc273" stroke-width="2" /><text x="72.00" y="370.88" fill="#f3f4f6" font-size="15" font-weight="700" text-anchor="middle">A</text><circle cx="72.00" cy="420.89" r="5.5" fill="#2fc273" fill-opacity="0.15" stroke="#2fc273" stroke-width="2" /><text x="72.00" y="408.89" fill="#f3f4f6" font-size="15" font-weight="700" text-anchor="middle">B</text><circle cx="72.00" cy="386.33" r="5.5" fill="#2fc273" fill-opacity="0.15" stroke="#2fc273" stroke-width="2" /><text x="72.00" y="374.33" fill="#f3f4f6" font-size="15" font-weight="700" text-anchor="middle">C</text><circle cx="114.94" cy="452.00" r="5.5" fill="#2fc273" fill-opacity="0.15" stroke="#2fc273" stroke-width="2" /><text x="114.94" y="440.00" fill="#f3f4f6" font-size="15" font-weight="700" text-anchor="middle">D</text>
  <text x="56" y="492" fill="#8ba0b5" font-size="18">일반 완성 · TP1 29.843 · TP2 29.887 · SL 29.754</text>
</svg>
