<svg xmlns="http://www.w3.org/2000/svg" width="960" height="540" viewBox="0 0 960 540">
  <rect width="960" height="540" rx="24" fill="#0b1220" />
  <rect x="28" y="28" width="904" height="484" rx="22" fill="#111827" stroke="#1f2937" />
  <text x="56" y="74" fill="#f3f4f6" font-size="34" font-weight="700">DEGOUSDT · AB=CD</text>
  <text x="904" y="74" fill="#8ba0b5" font-size="20" text-anchor="end">Bullish (매수) · Score 86.6</text>
  <line x1="72" y1="58" x2="920" y2="58" stroke="#223045" stroke-width="1" stroke-dasharray="4 8" /><line x1="72" y1="156" x2="920" y2="156" stroke="#223045" stroke-width="1" stroke-dasharray="4 8" /><line x1="72" y1="255" x2="920" y2="255" stroke="#223045" stroke-width="1" stroke-dasharray="4 8" /><line x1="72" y1="353" x2="920" y2="353" stroke="#223045" stroke-width="1" stroke-dasharray="4 8" /><line x1="72" y1="452" x2="920" y2="452" stroke="#223045" stroke-width="1" stroke-dasharray="4 8" />
  <rect x="205.01" y="374.10" width="84" height="5.13" fill="#fbbf24" fill-opacity="0.12" stroke="#fbbf24" stroke-width="1.5" stroke-dasharray="6 6" />
  <line x1="72.00" y1="338.60" x2="72.00" y2="346.19" stroke="#f6465d" stroke-width="1.4" /><rect x="69.00" y="338.60" width="6" height="6.14" rx="1.5" fill="#f6465d" /><line x1="82.73" y1="332.82" x2="82.73" y2="345.83" stroke="#0ecb81" stroke-width="1.4" /><rect x="79.73" y="332.82" width="6" height="12.28" rx="1.5" fill="#0ecb81" /><line x1="93.47" y1="330.66" x2="93.47" y2="336.08" stroke="#f6465d" stroke-width="1.4" /><rect x="90.47" y="332.82" width="6" height="2.00" rx="1.5" fill="#f6465d" /><line x1="104.20" y1="331.38" x2="104.20" y2="339.33" stroke="#f6465d" stroke-width="1.4" /><rect x="101.20" y="333.55" width="6" height="5.78" rx="1.5" fill="#f6465d" /><line x1="114.94" y1="337.88" x2="114.94" y2="346.19" stroke="#f6465d" stroke-width="1.4" /><rect x="111.94" y="339.33" width="6" height="5.78" rx="1.5" fill="#f6465d" /><line x1="125.67" y1="342.21" x2="125.67" y2="347.63" stroke="#0ecb81" stroke-width="1.4" /><rect x="122.67" y="342.58" width="6" height="2.89" rx="1.5" fill="#0ecb81" /><line x1="136.41" y1="339.69" x2="136.41" y2="345.83" stroke="#f6465d" stroke-width="1.4" /><rect x="133.41" y="342.94" width="6" height="2.00" rx="1.5" fill="#f6465d" /><line x1="147.14" y1="344.02" x2="147.14" y2="351.24" stroke="#f6465d" stroke-width="1.4" /><rect x="144.14" y="344.74" width="6" height="2.53" rx="1.5" fill="#f6465d" /><line x1="157.87" y1="345.46" x2="157.87" y2="352.69" stroke="#f6465d" stroke-width="1.4" /><rect x="154.87" y="346.91" width="6" height="5.42" rx="1.5" fill="#f6465d" /><line x1="168.61" y1="350.88" x2="168.61" y2="362.08" stroke="#f6465d" stroke-width="1.4" /><rect x="165.61" y="352.33" width="6" height="6.86" rx="1.5" fill="#f6465d" /><line x1="179.34" y1="355.58" x2="179.34" y2="361.72" stroke="#0ecb81" stroke-width="1.4" /><rect x="176.34" y="358.47" width="6" height="2.00" rx="1.5" fill="#0ecb81" /><line x1="190.08" y1="351.97" x2="190.08" y2="358.47" stroke="#0ecb81" stroke-width="1.4" /><rect x="187.08" y="352.69" width="6" height="5.78" rx="1.5" fill="#0ecb81" /><line x1="200.81" y1="344.38" x2="200.81" y2="352.69" stroke="#0ecb81" stroke-width="1.4" /><rect x="197.81" y="350.88" width="6" height="2.00" rx="1.5" fill="#0ecb81" /><line x1="211.54" y1="345.83" x2="211.54" y2="352.69" stroke="#f6465d" stroke-width="1.4" /><rect x="208.54" y="350.88" width="6" height="2.00" rx="1.5" fill="#f6465d" /><line x1="222.28" y1="350.52" x2="222.28" y2="353.05" stroke="#f6465d" stroke-width="1.4" /><rect x="219.28" y="351.24" width="6" height="2.00" rx="1.5" fill="#f6465d" /><line x1="233.01" y1="351.97" x2="233.01" y2="371.83" stroke="#f6465d" stroke-width="1.4" /><rect x="230.01" y="351.97" width="6" height="15.53" rx="1.5" fill="#f6465d" /><line x1="243.75" y1="364.97" x2="243.75" y2="370.74" stroke="#f6465d" stroke-width="1.4" /><rect x="240.75" y="367.13" width="6" height="2.53" rx="1.5" fill="#f6465d" /><line x1="254.48" y1="363.16" x2="254.48" y2="370.02" stroke="#0ecb81" stroke-width="1.4" /><rect x="251.48" y="364.24" width="6" height="5.06" rx="1.5" fill="#0ecb81" /><line x1="265.22" y1="354.13" x2="265.22" y2="364.24" stroke="#0ecb81" stroke-width="1.4" /><rect x="262.22" y="355.22" width="6" height="9.03" rx="1.5" fill="#0ecb81" /><line x1="275.95" y1="351.24" x2="275.95" y2="355.58" stroke="#0ecb81" stroke-width="1.4" /><rect x="272.95" y="354.85" width="6" height="2.00" rx="1.5" fill="#0ecb81" /><line x1="286.68" y1="354.49" x2="286.68" y2="357.02" stroke="#f6465d" stroke-width="1.4" /><rect x="283.68" y="355.22" width="6" height="2.00" rx="1.5" fill="#f6465d" /><line x1="297.42" y1="347.27" x2="297.42" y2="356.30" stroke="#0ecb81" stroke-width="1.4" /><rect x="294.42" y="353.05" width="6" height="3.25" rx="1.5" fill="#0ecb81" /><line x1="308.15" y1="350.88" x2="308.15" y2="358.83" stroke="#f6465d" stroke-width="1.4" /><rect x="305.15" y="352.69" width="6" height="5.06" rx="1.5" fill="#f6465d" /><line x1="318.89" y1="357.38" x2="318.89" y2="360.63" stroke="#f6465d" stroke-width="1.4" /><rect x="315.89" y="357.38" width="6" height="2.00" rx="1.5" fill="#f6465d" /><line x1="329.62" y1="356.66" x2="329.62" y2="361.35" stroke="#0ecb81" stroke-width="1.4" /><rect x="326.62" y="358.10" width="6" height="2.00" rx="1.5" fill="#0ecb81" /><line x1="340.35" y1="358.10" x2="340.35" y2="365.69" stroke="#f6465d" stroke-width="1.4" /><rect x="337.35" y="358.10" width="6" height="4.69" rx="1.5" fill="#f6465d" /><line x1="351.09" y1="361.72" x2="351.09" y2="370.38" stroke="#f6465d" stroke-width="1.4" /><rect x="348.09" y="362.44" width="6" height="7.58" rx="1.5" fill="#f6465d" /><line x1="361.82" y1="368.22" x2="361.82" y2="371.83" stroke="#f6465d" stroke-width="1.4" /><rect x="358.82" y="369.30" width="6" height="2.00" rx="1.5" fill="#f6465d" /><line x1="372.56" y1="370.02" x2="372.56" y2="380.49" stroke="#f6465d" stroke-width="1.4" /><rect x="369.56" y="370.74" width="6" height="3.25" rx="1.5" fill="#f6465d" /><line x1="383.29" y1="370.74" x2="383.29" y2="373.63" stroke="#0ecb81" stroke-width="1.4" /><rect x="380.29" y="372.91" width="6" height="2.00" rx="1.5" fill="#0ecb81" /><line x1="394.03" y1="369.66" x2="394.03" y2="373.99" stroke="#0ecb81" stroke-width="1.4" /><rect x="391.03" y="370.02" width="6" height="2.53" rx="1.5" fill="#0ecb81" /><line x1="404.76" y1="366.05" x2="404.76" y2="372.91" stroke="#f6465d" stroke-width="1.4" /><rect x="401.76" y="369.66" width="6" height="2.00" rx="1.5" fill="#f6465d" /><line x1="415.49" y1="364.97" x2="415.49" y2="371.11" stroke="#0ecb81" stroke-width="1.4" /><rect x="412.49" y="367.49" width="6" height="3.25" rx="1.5" fill="#0ecb81" /><line x1="426.23" y1="367.49" x2="426.23" y2="373.27" stroke="#f6465d" stroke-width="1.4" /><rect x="423.23" y="367.49" width="6" height="4.33" rx="1.5" fill="#f6465d" /><line x1="436.96" y1="371.47" x2="436.96" y2="379.05" stroke="#f6465d" stroke-width="1.4" /><rect x="433.96" y="371.83" width="6" height="5.78" rx="1.5" fill="#f6465d" /><line x1="447.70" y1="374.36" x2="447.70" y2="377.97" stroke="#0ecb81" stroke-width="1.4" /><rect x="444.70" y="376.88" width="6" height="2.00" rx="1.5" fill="#0ecb81" /><line x1="458.43" y1="372.91" x2="458.43" y2="376.88" stroke="#0ecb81" stroke-width="1.4" /><rect x="455.43" y="375.80" width="6" height="2.00" rx="1.5" fill="#0ecb81" /><line x1="469.16" y1="374.72" x2="469.16" y2="389.16" stroke="#f6465d" stroke-width="1.4" /><rect x="466.16" y="375.80" width="6" height="8.67" rx="1.5" fill="#f6465d" /><line x1="479.90" y1="382.66" x2="479.90" y2="388.80" stroke="#f6465d" stroke-width="1.4" /><rect x="476.90" y="384.11" width="6" height="2.00" rx="1.5" fill="#f6465d" /><line x1="490.63" y1="380.86" x2="490.63" y2="385.91" stroke="#0ecb81" stroke-width="1.4" /><rect x="487.63" y="383.75" width="6" height="2.00" rx="1.5" fill="#0ecb81" /><line x1="501.37" y1="381.22" x2="501.37" y2="384.47" stroke="#0ecb81" stroke-width="1.4" /><rect x="498.37" y="383.38" width="6" height="2.00" rx="1.5" fill="#0ecb81" /><line x1="512.10" y1="383.02" x2="512.10" y2="390.25" stroke="#f6465d" stroke-width="1.4" /><rect x="509.10" y="383.02" width="6" height="2.53" rx="1.5" fill="#f6465d" /><line x1="522.84" y1="384.11" x2="522.84" y2="387.00" stroke="#f6465d" stroke-width="1.4" /><rect x="519.84" y="385.19" width="6" height="2.00" rx="1.5" fill="#f6465d" /><line x1="533.57" y1="384.83" x2="533.57" y2="389.52" stroke="#f6465d" stroke-width="1.4" /><rect x="530.57" y="385.55" width="6" height="2.17" rx="1.5" fill="#f6465d" /><line x1="544.30" y1="386.27" x2="544.30" y2="435.39" stroke="#f6465d" stroke-width="1.4" /><rect x="541.30" y="387.72" width="6" height="40.45" rx="1.5" fill="#f6465d" /><line x1="555.04" y1="418.41" x2="555.04" y2="452.00" stroke="#f6465d" stroke-width="1.4" /><rect x="552.04" y="427.80" width="6" height="12.28" rx="1.5" fill="#f6465d" /><line x1="565.77" y1="426.00" x2="565.77" y2="440.80" stroke="#0ecb81" stroke-width="1.4" /><rect x="562.77" y="435.03" width="6" height="4.69" rx="1.5" fill="#0ecb81" /><line x1="576.51" y1="424.91" x2="576.51" y2="436.47" stroke="#0ecb81" stroke-width="1.4" /><rect x="573.51" y="427.08" width="6" height="7.58" rx="1.5" fill="#0ecb81" /><line x1="587.24" y1="424.91" x2="587.24" y2="433.58" stroke="#f6465d" stroke-width="1.4" /><rect x="584.24" y="426.72" width="6" height="4.69" rx="1.5" fill="#f6465d" /><line x1="597.97" y1="418.78" x2="597.97" y2="431.42" stroke="#0ecb81" stroke-width="1.4" /><rect x="594.97" y="419.86" width="6" height="11.56" rx="1.5" fill="#0ecb81" /><line x1="608.71" y1="418.41" x2="608.71" y2="423.83" stroke="#f6465d" stroke-width="1.4" /><rect x="605.71" y="420.22" width="6" height="2.00" rx="1.5" fill="#f6465d" /><line x1="619.44" y1="408.66" x2="619.44" y2="422.75" stroke="#0ecb81" stroke-width="1.4" /><rect x="616.44" y="409.75" width="6" height="11.56" rx="1.5" fill="#0ecb81" /><line x1="630.18" y1="409.39" x2="630.18" y2="415.16" stroke="#f6465d" stroke-width="1.4" /><rect x="627.18" y="409.75" width="6" height="2.00" rx="1.5" fill="#f6465d" /><line x1="640.91" y1="410.83" x2="640.91" y2="415.53" stroke="#0ecb81" stroke-width="1.4" /><rect x="637.91" y="411.19" width="6" height="2.00" rx="1.5" fill="#0ecb81" /><line x1="651.65" y1="406.14" x2="651.65" y2="412.27" stroke="#0ecb81" stroke-width="1.4" /><rect x="648.65" y="406.86" width="6" height="4.33" rx="1.5" fill="#0ecb81" /><line x1="662.38" y1="406.86" x2="662.38" y2="410.11" stroke="#f6465d" stroke-width="1.4" /><rect x="659.38" y="406.86" width="6" height="2.00" rx="1.5" fill="#f6465d" /><line x1="673.11" y1="407.94" x2="673.11" y2="413.72" stroke="#f6465d" stroke-width="1.4" /><rect x="670.11" y="408.30" width="6" height="2.00" rx="1.5" fill="#f6465d" /><line x1="683.85" y1="409.02" x2="683.85" y2="416.25" stroke="#f6465d" stroke-width="1.4" /><rect x="680.85" y="410.11" width="6" height="3.61" rx="1.5" fill="#f6465d" /><line x1="694.58" y1="404.69" x2="694.58" y2="414.08" stroke="#0ecb81" stroke-width="1.4" /><rect x="691.58" y="406.86" width="6" height="6.86" rx="1.5" fill="#0ecb81" /><line x1="705.32" y1="405.05" x2="705.32" y2="408.66" stroke="#f6465d" stroke-width="1.4" /><rect x="702.32" y="407.22" width="6" height="2.00" rx="1.5" fill="#f6465d" /><line x1="716.05" y1="399.64" x2="716.05" y2="407.58" stroke="#0ecb81" stroke-width="1.4" /><rect x="713.05" y="400.36" width="6" height="6.86" rx="1.5" fill="#0ecb81" /><line x1="726.78" y1="400.00" x2="726.78" y2="406.50" stroke="#f6465d" stroke-width="1.4" /><rect x="723.78" y="400.72" width="6" height="5.78" rx="1.5" fill="#f6465d" /><line x1="737.52" y1="404.69" x2="737.52" y2="411.19" stroke="#f6465d" stroke-width="1.4" /><rect x="734.52" y="406.50" width="6" height="2.00" rx="1.5" fill="#f6465d" /><line x1="748.25" y1="399.27" x2="748.25" y2="407.22" stroke="#0ecb81" stroke-width="1.4" /><rect x="745.25" y="403.61" width="6" height="3.25" rx="1.5" fill="#0ecb81" /><line x1="758.99" y1="374.72" x2="758.99" y2="403.25" stroke="#0ecb81" stroke-width="1.4" /><rect x="755.99" y="375.08" width="6" height="28.17" rx="1.5" fill="#0ecb81" /><line x1="769.72" y1="281.18" x2="769.72" y2="377.24" stroke="#0ecb81" stroke-width="1.4" /><rect x="766.72" y="284.07" width="6" height="90.65" rx="1.5" fill="#0ecb81" /><line x1="780.46" y1="210.40" x2="780.46" y2="310.43" stroke="#0ecb81" stroke-width="1.4" /><rect x="777.46" y="219.07" width="6" height="65.00" rx="1.5" fill="#0ecb81" /><line x1="791.19" y1="130.23" x2="791.19" y2="236.40" stroke="#0ecb81" stroke-width="1.4" /><rect x="788.19" y="142.87" width="6" height="75.48" rx="1.5" fill="#0ecb81" /><line x1="801.92" y1="134.20" x2="801.92" y2="253.01" stroke="#f6465d" stroke-width="1.4" /><rect x="798.92" y="141.78" width="6" height="33.22" rx="1.5" fill="#f6465d" /><line x1="812.66" y1="122.64" x2="812.66" y2="224.85" stroke="#f6465d" stroke-width="1.4" /><rect x="809.66" y="175.37" width="6" height="32.50" rx="1.5" fill="#f6465d" /><line x1="823.39" y1="109.28" x2="823.39" y2="213.29" stroke="#0ecb81" stroke-width="1.4" /><rect x="820.39" y="138.17" width="6" height="69.34" rx="1.5" fill="#0ecb81" /><line x1="834.13" y1="138.17" x2="834.13" y2="204.26" stroke="#f6465d" stroke-width="1.4" /><rect x="831.13" y="138.53" width="6" height="60.31" rx="1.5" fill="#f6465d" /><line x1="844.86" y1="146.12" x2="844.86" y2="205.34" stroke="#0ecb81" stroke-width="1.4" /><rect x="841.86" y="149.01" width="6" height="50.20" rx="1.5" fill="#0ecb81" /><line x1="855.59" y1="105.67" x2="855.59" y2="170.67" stroke="#0ecb81" stroke-width="1.4" /><rect x="852.59" y="135.28" width="6" height="13.72" rx="1.5" fill="#0ecb81" /><line x1="866.33" y1="61.61" x2="866.33" y2="150.81" stroke="#0ecb81" stroke-width="1.4" /><rect x="863.33" y="67.75" width="6" height="66.81" rx="1.5" fill="#0ecb81" /><line x1="877.06" y1="58.00" x2="877.06" y2="96.64" stroke="#f6465d" stroke-width="1.4" /><rect x="874.06" y="66.67" width="6" height="10.47" rx="1.5" fill="#f6465d" /><line x1="887.80" y1="76.06" x2="887.80" y2="133.12" stroke="#f6465d" stroke-width="1.4" /><rect x="884.80" y="77.14" width="6" height="44.78" rx="1.5" fill="#f6465d" /><line x1="898.53" y1="91.59" x2="898.53" y2="134.56" stroke="#0ecb81" stroke-width="1.4" /><rect x="895.53" y="94.84" width="6" height="26.36" rx="1.5" fill="#0ecb81" /><line x1="909.27" y1="80.75" x2="909.27" y2="139.98" stroke="#f6465d" stroke-width="1.4" /><rect x="906.27" y="95.92" width="6" height="20.95" rx="1.5" fill="#f6465d" /><line x1="920.00" y1="91.22" x2="920.00" y2="150.81" stroke="#f6465d" stroke-width="1.4" /><rect x="917.00" y="115.78" width="6" height="24.56" rx="1.5" fill="#f6465d" />
  <polyline points="72.00,346.19 93.47,330.66 168.61,362.08 200.81,344.38 233.01,371.83" fill="none" stroke="#2fc273" stroke-width="4" stroke-linecap="round" stroke-linejoin="round" />
  <circle cx="72.00" cy="346.19" r="5.5" fill="#2fc273" fill-opacity="0.15" stroke="#2fc273" stroke-width="2" /><text x="72.00" y="334.19" fill="#f3f4f6" font-size="15" font-weight="700" text-anchor="middle">X</text><circle cx="93.47" cy="330.66" r="5.5" fill="#2fc273" fill-opacity="0.15" stroke="#2fc273" stroke-width="2" /><text x="93.47" y="318.66" fill="#f3f4f6" font-size="15" font-weight="700" text-anchor="middle">A</text><circle cx="168.61" cy="362.08" r="5.5" fill="#2fc273" fill-opacity="0.15" stroke="#2fc273" stroke-width="2" /><text x="168.61" y="350.08" fill="#f3f4f6" font-size="15" font-weight="700" text-anchor="middle">B</text><circle cx="200.81" cy="344.38" r="5.5" fill="#2fc273" fill-opacity="0.15" stroke="#2fc273" stroke-width="2" /><text x="200.81" y="332.38" fill="#f3f4f6" font-size="15" font-weight="700" text-anchor="middle">C</text><circle cx="233.01" cy="371.83" r="5.5" fill="#2fc273" fill-opacity="0.15" stroke="#2fc273" stroke-width="2" /><text x="233.01" y="359.83" fill="#f3f4f6" font-size="15" font-weight="700" text-anchor="middle">D</text>
  <text x="56" y="492" fill="#8ba0b5" font-size="18">일반 완성 · TP1 0.2888 · TP2 0.2906 · SL 0.28534</text>
</svg>
