<svg xmlns="http://www.w3.org/2000/svg" width="960" height="540" viewBox="0 0 960 540">
  <rect width="960" height="540" rx="24" fill="#0b1220" />
  <rect x="28" y="28" width="904" height="484" rx="22" fill="#111827" stroke="#1f2937" />
  <text x="56" y="74" fill="#f3f4f6" font-size="34" font-weight="700">DEXEUSDT · AB=CD</text>
  <text x="904" y="74" fill="#8ba0b5" font-size="20" text-anchor="end">Bearish (매도) · Score 81.2</text>
  <line x1="72" y1="58" x2="920" y2="58" stroke="#223045" stroke-width="1" stroke-dasharray="4 8" /><line x1="72" y1="156" x2="920" y2="156" stroke="#223045" stroke-width="1" stroke-dasharray="4 8" /><line x1="72" y1="255" x2="920" y2="255" stroke="#223045" stroke-width="1" stroke-dasharray="4 8" /><line x1="72" y1="353" x2="920" y2="353" stroke="#223045" stroke-width="1" stroke-dasharray="4 8" /><line x1="72" y1="452" x2="920" y2="452" stroke="#223045" stroke-width="1" stroke-dasharray="4 8" />
  <rect x="451.90" y="277.65" width="84" height="14.57" fill="#fbbf24" fill-opacity="0.12" stroke="#fbbf24" stroke-width="1.5" stroke-dasharray="6 6" />
  <line x1="72.00" y1="117.03" x2="72.00" y2="146.42" stroke="#0ecb81" stroke-width="1.4" /><rect x="69.00" y="117.03" width="6" height="25.55" rx="1.5" fill="#0ecb81" /><line x1="82.73" y1="96.51" x2="82.73" y2="124.35" stroke="#f6465d" stroke-width="1.4" /><rect x="79.73" y="117.03" width="6" height="2.00" rx="1.5" fill="#f6465d" /><line x1="93.47" y1="104.19" x2="93.47" y2="133.10" stroke="#f6465d" stroke-width="1.4" /><rect x="90.47" y="119.07" width="6" height="9.00" rx="1.5" fill="#f6465d" /><line x1="104.20" y1="90.15" x2="104.20" y2="128.07" stroke="#0ecb81" stroke-width="1.4" /><rect x="101.20" y="90.27" width="6" height="37.79" rx="1.5" fill="#0ecb81" /><line x1="114.94" y1="58.00" x2="114.94" y2="93.39" stroke="#0ecb81" stroke-width="1.4" /><rect x="111.94" y="60.16" width="6" height="30.35" rx="1.5" fill="#0ecb81" /><line x1="125.67" y1="59.92" x2="125.67" y2="98.31" stroke="#f6465d" stroke-width="1.4" /><rect x="122.67" y="60.16" width="6" height="14.40" rx="1.5" fill="#f6465d" /><line x1="136.41" y1="62.92" x2="136.41" y2="81.04" stroke="#f6465d" stroke-width="1.4" /><rect x="133.41" y="74.56" width="6" height="4.20" rx="1.5" fill="#f6465d" /><line x1="147.14" y1="68.80" x2="147.14" y2="110.79" stroke="#f6465d" stroke-width="1.4" /><rect x="144.14" y="78.52" width="6" height="2.00" rx="1.5" fill="#f6465d" /><line x1="157.87" y1="72.04" x2="157.87" y2="101.19" stroke="#f6465d" stroke-width="1.4" /><rect x="154.87" y="78.64" width="6" height="21.84" rx="1.5" fill="#f6465d" /><line x1="168.61" y1="88.71" x2="168.61" y2="137.42" stroke="#f6465d" stroke-width="1.4" /><rect x="165.61" y="100.47" width="6" height="36.47" rx="1.5" fill="#f6465d" /><line x1="179.34" y1="119.79" x2="179.34" y2="162.14" stroke="#f6465d" stroke-width="1.4" /><rect x="176.34" y="136.70" width="6" height="20.04" rx="1.5" fill="#f6465d" /><line x1="190.08" y1="140.18" x2="190.08" y2="168.50" stroke="#f6465d" stroke-width="1.4" /><rect x="187.08" y="156.62" width="6" height="7.44" rx="1.5" fill="#f6465d" /><line x1="200.81" y1="160.34" x2="200.81" y2="177.86" stroke="#f6465d" stroke-width="1.4" /><rect x="197.81" y="163.94" width="6" height="9.36" rx="1.5" fill="#f6465d" /><line x1="211.54" y1="173.18" x2="211.54" y2="244.32" stroke="#f6465d" stroke-width="1.4" /><rect x="208.54" y="173.18" width="6" height="67.43" rx="1.5" fill="#f6465d" /><line x1="222.28" y1="231.96" x2="222.28" y2="309.71" stroke="#f6465d" stroke-width="1.4" /><rect x="219.28" y="240.48" width="6" height="18.36" rx="1.5" fill="#f6465d" /><line x1="233.01" y1="243.72" x2="233.01" y2="294.59" stroke="#f6465d" stroke-width="1.4" /><rect x="230.01" y="258.60" width="6" height="13.80" rx="1.5" fill="#f6465d" /><line x1="243.75" y1="267.84" x2="243.75" y2="303.23" stroke="#0ecb81" stroke-width="1.4" /><rect x="240.75" y="270.24" width="6" height="2.16" rx="1.5" fill="#0ecb81" /><line x1="254.48" y1="267.36" x2="254.48" y2="296.39" stroke="#f6465d" stroke-width="1.4" /><rect x="251.48" y="270.36" width="6" height="23.64" rx="1.5" fill="#f6465d" /><line x1="265.22" y1="292.55" x2="265.22" y2="338.86" stroke="#f6465d" stroke-width="1.4" /><rect x="262.22" y="294.11" width="6" height="18.72" rx="1.5" fill="#f6465d" /><line x1="275.95" y1="302.63" x2="275.95" y2="346.54" stroke="#f6465d" stroke-width="1.4" /><rect x="272.95" y="312.83" width="6" height="27.35" rx="1.5" fill="#f6465d" /><line x1="286.68" y1="310.91" x2="286.68" y2="343.59" stroke="#0ecb81" stroke-width="1.4" /><rect x="283.68" y="320.63" width="6" height="19.56" rx="1.5" fill="#0ecb81" /><line x1="297.42" y1="313.91" x2="297.42" y2="338.38" stroke="#f6465d" stroke-width="1.4" /><rect x="294.42" y="320.63" width="6" height="4.80" rx="1.5" fill="#f6465d" /><line x1="308.15" y1="319.79" x2="308.15" y2="334.06" stroke="#f6465d" stroke-width="1.4" /><rect x="305.15" y="325.31" width="6" height="4.08" rx="1.5" fill="#f6465d" /><line x1="318.89" y1="325.91" x2="318.89" y2="342.10" stroke="#f6465d" stroke-width="1.4" /><rect x="315.89" y="329.50" width="6" height="6.72" rx="1.5" fill="#f6465d" /><line x1="329.62" y1="333.10" x2="329.62" y2="349.30" stroke="#f6465d" stroke-width="1.4" /><rect x="326.62" y="336.22" width="6" height="4.32" rx="1.5" fill="#f6465d" /><line x1="340.35" y1="326.03" x2="340.35" y2="344.38" stroke="#0ecb81" stroke-width="1.4" /><rect x="337.35" y="329.14" width="6" height="11.64" rx="1.5" fill="#0ecb81" /><line x1="351.09" y1="324.35" x2="351.09" y2="342.94" stroke="#f6465d" stroke-width="1.4" /><rect x="348.09" y="329.26" width="6" height="2.00" rx="1.5" fill="#f6465d" /><line x1="361.82" y1="320.15" x2="361.82" y2="333.94" stroke="#0ecb81" stroke-width="1.4" /><rect x="358.82" y="320.51" width="6" height="9.84" rx="1.5" fill="#0ecb81" /><line x1="372.56" y1="310.55" x2="372.56" y2="325.07" stroke="#0ecb81" stroke-width="1.4" /><rect x="369.56" y="313.67" width="6" height="6.96" rx="1.5" fill="#0ecb81" /><line x1="383.29" y1="305.63" x2="383.29" y2="320.75" stroke="#f6465d" stroke-width="1.4" /><rect x="380.29" y="313.79" width="6" height="2.00" rx="1.5" fill="#f6465d" /><line x1="394.03" y1="310.79" x2="394.03" y2="320.15" stroke="#f6465d" stroke-width="1.4" /><rect x="391.03" y="314.75" width="6" height="2.00" rx="1.5" fill="#f6465d" /><line x1="404.76" y1="313.07" x2="404.76" y2="321.59" stroke="#f6465d" stroke-width="1.4" /><rect x="401.76" y="315.95" width="6" height="2.16" rx="1.5" fill="#f6465d" /><line x1="415.49" y1="317.75" x2="415.49" y2="323.27" stroke="#f6465d" stroke-width="1.4" /><rect x="412.49" y="318.23" width="6" height="2.00" rx="1.5" fill="#f6465d" /><line x1="426.23" y1="316.43" x2="426.23" y2="321.83" stroke="#f6465d" stroke-width="1.4" /><rect x="423.23" y="319.19" width="6" height="2.00" rx="1.5" fill="#f6465d" /><line x1="436.96" y1="317.27" x2="436.96" y2="323.75" stroke="#f6465d" stroke-width="1.4" /><rect x="433.96" y="319.91" width="6" height="2.00" rx="1.5" fill="#f6465d" /><line x1="447.70" y1="318.47" x2="447.70" y2="323.51" stroke="#f6465d" stroke-width="1.4" /><rect x="444.70" y="320.15" width="6" height="2.00" rx="1.5" fill="#f6465d" /><line x1="458.43" y1="319.67" x2="458.43" y2="323.27" stroke="#0ecb81" stroke-width="1.4" /><rect x="455.43" y="320.63" width="6" height="2.00" rx="1.5" fill="#0ecb81" /><line x1="469.16" y1="310.91" x2="469.16" y2="322.79" stroke="#0ecb81" stroke-width="1.4" /><rect x="466.16" y="311.39" width="6" height="9.36" rx="1.5" fill="#0ecb81" /><line x1="479.90" y1="282.23" x2="479.90" y2="312.95" stroke="#0ecb81" stroke-width="1.4" /><rect x="476.90" y="297.95" width="6" height="13.44" rx="1.5" fill="#0ecb81" /><line x1="490.63" y1="297.59" x2="490.63" y2="359.26" stroke="#f6465d" stroke-width="1.4" /><rect x="487.63" y="297.83" width="6" height="58.07" rx="1.5" fill="#f6465d" /><line x1="501.37" y1="354.34" x2="501.37" y2="389.49" stroke="#f6465d" stroke-width="1.4" /><rect x="498.37" y="355.54" width="6" height="19.80" rx="1.5" fill="#f6465d" /><line x1="512.10" y1="363.70" x2="512.10" y2="389.01" stroke="#f6465d" stroke-width="1.4" /><rect x="509.10" y="375.34" width="6" height="10.44" rx="1.5" fill="#f6465d" /><line x1="522.84" y1="378.10" x2="522.84" y2="396.57" stroke="#f6465d" stroke-width="1.4" /><rect x="519.84" y="385.65" width="6" height="3.48" rx="1.5" fill="#f6465d" /><line x1="533.57" y1="383.49" x2="533.57" y2="403.41" stroke="#f6465d" stroke-width="1.4" /><rect x="530.57" y="389.25" width="6" height="10.68" rx="1.5" fill="#f6465d" /><line x1="544.30" y1="393.69" x2="544.30" y2="406.89" stroke="#f6465d" stroke-width="1.4" /><rect x="541.30" y="399.93" width="6" height="2.00" rx="1.5" fill="#f6465d" /><line x1="555.04" y1="396.69" x2="555.04" y2="404.49" stroke="#f6465d" stroke-width="1.4" /><rect x="552.04" y="400.41" width="6" height="2.16" rx="1.5" fill="#f6465d" /><line x1="565.77" y1="401.85" x2="565.77" y2="425.73" stroke="#f6465d" stroke-width="1.4" /><rect x="562.77" y="402.69" width="6" height="21.84" rx="1.5" fill="#f6465d" /><line x1="576.51" y1="408.09" x2="576.51" y2="427.29" stroke="#0ecb81" stroke-width="1.4" /><rect x="573.51" y="410.97" width="6" height="13.56" rx="1.5" fill="#0ecb81" /><line x1="587.24" y1="400.05" x2="587.24" y2="418.89" stroke="#f6465d" stroke-width="1.4" /><rect x="584.24" y="410.85" width="6" height="5.40" rx="1.5" fill="#f6465d" /><line x1="597.97" y1="410.61" x2="597.97" y2="425.97" stroke="#0ecb81" stroke-width="1.4" /><rect x="594.97" y="416.01" width="6" height="2.00" rx="1.5" fill="#0ecb81" /><line x1="608.71" y1="415.41" x2="608.71" y2="426.09" stroke="#f6465d" stroke-width="1.4" /><rect x="605.71" y="415.77" width="6" height="8.28" rx="1.5" fill="#f6465d" /><line x1="619.44" y1="419.61" x2="619.44" y2="432.08" stroke="#0ecb81" stroke-width="1.4" /><rect x="616.44" y="421.41" width="6" height="2.52" rx="1.5" fill="#0ecb81" /><line x1="630.18" y1="412.89" x2="630.18" y2="426.69" stroke="#0ecb81" stroke-width="1.4" /><rect x="627.18" y="419.73" width="6" height="2.00" rx="1.5" fill="#0ecb81" /><line x1="640.91" y1="416.01" x2="640.91" y2="426.81" stroke="#f6465d" stroke-width="1.4" /><rect x="637.91" y="419.89" width="6" height="2.00" rx="1.5" fill="#f6465d" /><line x1="651.65" y1="419.37" x2="651.65" y2="425.37" stroke="#f6465d" stroke-width="1.4" /><rect x="648.65" y="419.97" width="6" height="5.28" rx="1.5" fill="#f6465d" /><line x1="662.38" y1="422.49" x2="662.38" y2="433.64" stroke="#f6465d" stroke-width="1.4" /><rect x="659.38" y="425.37" width="6" height="4.08" rx="1.5" fill="#f6465d" /><line x1="673.11" y1="425.61" x2="673.11" y2="430.64" stroke="#0ecb81" stroke-width="1.4" /><rect x="670.11" y="428.48" width="6" height="2.00" rx="1.5" fill="#0ecb81" /><line x1="683.85" y1="427.05" x2="683.85" y2="431.60" stroke="#f6465d" stroke-width="1.4" /><rect x="680.85" y="428.48" width="6" height="2.28" rx="1.5" fill="#f6465d" /><line x1="694.58" y1="430.76" x2="694.58" y2="436.52" stroke="#f6465d" stroke-width="1.4" /><rect x="691.58" y="430.88" width="6" height="4.92" rx="1.5" fill="#f6465d" /><line x1="705.32" y1="428.96" x2="705.32" y2="436.04" stroke="#0ecb81" stroke-width="1.4" /><rect x="702.32" y="432.80" width="6" height="3.12" rx="1.5" fill="#0ecb81" /><line x1="716.05" y1="430.04" x2="716.05" y2="435.20" stroke="#0ecb81" stroke-width="1.4" /><rect x="713.05" y="431.72" width="6" height="2.00" rx="1.5" fill="#0ecb81" /><line x1="726.78" y1="431.12" x2="726.78" y2="436.04" stroke="#f6465d" stroke-width="1.4" /><rect x="723.78" y="431.84" width="6" height="2.52" rx="1.5" fill="#f6465d" /><line x1="737.52" y1="432.20" x2="737.52" y2="444.44" stroke="#f6465d" stroke-width="1.4" /><rect x="734.52" y="434.24" width="6" height="9.24" rx="1.5" fill="#f6465d" /><line x1="748.25" y1="441.56" x2="748.25" y2="452.00" stroke="#f6465d" stroke-width="1.4" /><rect x="745.25" y="443.36" width="6" height="6.36" rx="1.5" fill="#f6465d" /><line x1="758.99" y1="444.44" x2="758.99" y2="450.56" stroke="#0ecb81" stroke-width="1.4" /><rect x="755.99" y="448.40" width="6" height="2.00" rx="1.5" fill="#0ecb81" /><line x1="769.72" y1="444.92" x2="769.72" y2="451.64" stroke="#0ecb81" stroke-width="1.4" /><rect x="766.72" y="447.68" width="6" height="2.00" rx="1.5" fill="#0ecb81" /><line x1="780.46" y1="434.24" x2="780.46" y2="449.60" stroke="#0ecb81" stroke-width="1.4" /><rect x="777.46" y="441.44" width="6" height="6.24" rx="1.5" fill="#0ecb81" /><line x1="791.19" y1="434.24" x2="791.19" y2="442.88" stroke="#0ecb81" stroke-width="1.4" /><rect x="788.19" y="439.28" width="6" height="2.04" rx="1.5" fill="#0ecb81" /><line x1="801.92" y1="437.84" x2="801.92" y2="444.80" stroke="#f6465d" stroke-width="1.4" /><rect x="798.92" y="439.40" width="6" height="3.48" rx="1.5" fill="#f6465d" /><line x1="812.66" y1="436.64" x2="812.66" y2="443.12" stroke="#0ecb81" stroke-width="1.4" /><rect x="809.66" y="436.88" width="6" height="6.12" rx="1.5" fill="#0ecb81" /><line x1="823.39" y1="423.93" x2="823.39" y2="441.92" stroke="#f6465d" stroke-width="1.4" /><rect x="820.39" y="436.88" width="6" height="2.64" rx="1.5" fill="#f6465d" /><line x1="834.13" y1="433.04" x2="834.13" y2="439.64" stroke="#0ecb81" stroke-width="1.4" /><rect x="831.13" y="438.92" width="6" height="2.00" rx="1.5" fill="#0ecb81" /><line x1="844.86" y1="433.52" x2="844.86" y2="439.88" stroke="#0ecb81" stroke-width="1.4" /><rect x="841.86" y="433.52" width="6" height="5.28" rx="1.5" fill="#0ecb81" /><line x1="855.59" y1="426.21" x2="855.59" y2="433.88" stroke="#0ecb81" stroke-width="1.4" /><rect x="852.59" y="427.52" width="6" height="6.24" rx="1.5" fill="#0ecb81" /><line x1="866.33" y1="426.93" x2="866.33" y2="441.68" stroke="#f6465d" stroke-width="1.4" /><rect x="863.33" y="427.29" width="6" height="13.32" rx="1.5" fill="#f6465d" /><line x1="877.06" y1="438.80" x2="877.06" y2="446.96" stroke="#f6465d" stroke-width="1.4" /><rect x="874.06" y="440.72" width="6" height="3.24" rx="1.5" fill="#f6465d" /><line x1="887.80" y1="438.68" x2="887.80" y2="444.56" stroke="#0ecb81" stroke-width="1.4" /><rect x="884.80" y="440.72" width="6" height="3.24" rx="1.5" fill="#0ecb81" /><line x1="898.53" y1="438.08" x2="898.53" y2="441.80" stroke="#0ecb81" stroke-width="1.4" /><rect x="895.53" y="439.40" width="6" height="2.00" rx="1.5" fill="#0ecb81" /><line x1="909.27" y1="438.80" x2="909.27" y2="445.04" stroke="#f6465d" stroke-width="1.4" /><rect x="906.27" y="439.28" width="6" height="4.44" rx="1.5" fill="#f6465d" /><line x1="920.00" y1="441.80" x2="920.00" y2="446.48" stroke="#f6465d" stroke-width="1.4" /><rect x="917.00" y="443.72" width="6" height="2.64" rx="1.5" fill="#f6465d" />
  <polyline points="114.94,58.00 329.62,349.30 383.29,305.63 436.96,323.75 479.90,282.23" fill="none" stroke="#2fc273" stroke-width="4" stroke-linecap="round" stroke-linejoin="round" />
  <circle cx="114.94" cy="58.00" r="5.5" fill="#2fc273" fill-opacity="0.15" stroke="#2fc273" stroke-width="2" /><text x="114.94" y="46.00" fill="#f3f4f6" font-size="15" font-weight="700" text-anchor="middle">X</text><circle cx="329.62" cy="349.30" r="5.5" fill="#2fc273" fill-opacity="0.15" stroke="#2fc273" stroke-width="2" /><text x="329.62" y="337.30" fill="#f3f4f6" font-size="15" font-weight="700" text-anchor="middle">A</text><circle cx="383.29" cy="305.63" r="5.5" fill="#2fc273" fill-opacity="0.15" stroke="#2fc273" stroke-width="2" /><text x="383.29" y="293.63" fill="#f3f4f6" font-size="15" font-weight="700" text-anchor="middle">B</text><circle cx="436.96" cy="323.75" r="5.5" fill="#2fc273" fill-opacity="0.15" stroke="#2fc273" stroke-width="2" /><text x="436.96" y="311.75" fill="#f3f4f6" font-size="15" font-weight="700" text-anchor="middle">C</text><circle cx="479.90" cy="282.23" r="5.5" fill="#2fc273" fill-opacity="0.15" stroke="#2fc273" stroke-width="2" /><text x="479.90" y="270.23" fill="#f3f4f6" font-size="15" font-weight="700" text-anchor="middle">D</text>
  <text x="56" y="492" fill="#8ba0b5" font-size="18">Complete · TP1 22.468 · TP2 21.652 · SL 26.946</text>
</svg>
