<svg xmlns="http://www.w3.org/2000/svg" width="960" height="540" viewBox="0 0 960 540">
  <rect width="960" height="540" rx="24" fill="#0b1220" />
  <rect x="28" y="28" width="904" height="484" rx="22" fill="#111827" stroke="#1f2937" />
  <text x="56" y="74" fill="#f3f4f6" font-size="34" font-weight="700">DRIFTUSDT · AB=CD</text>
  <text x="904" y="74" fill="#8ba0b5" font-size="20" text-anchor="end">Bearish (매도) · Score 76.4</text>
  <line x1="72" y1="58" x2="920" y2="58" stroke="#223045" stroke-width="1" stroke-dasharray="4 8" /><line x1="72" y1="156" x2="920" y2="156" stroke="#223045" stroke-width="1" stroke-dasharray="4 8" /><line x1="72" y1="255" x2="920" y2="255" stroke="#223045" stroke-width="1" stroke-dasharray="4 8" /><line x1="72" y1="353" x2="920" y2="353" stroke="#223045" stroke-width="1" stroke-dasharray="4 8" /><line x1="72" y1="452" x2="920" y2="452" stroke="#223045" stroke-width="1" stroke-dasharray="4 8" />
  <rect x="677.32" y="29.10" width="84" height="87.94" fill="#fbbf24" fill-opacity="0.12" stroke="#fbbf24" stroke-width="1.5" stroke-dasharray="6 6" />
  <line x1="72.00" y1="119.66" x2="72.00" y2="152.06" stroke="#0ecb81" stroke-width="1.4" /><rect x="69.00" y="135.34" width="6" height="14.63" rx="1.5" fill="#0ecb81" /><line x1="82.73" y1="112.87" x2="82.73" y2="138.99" stroke="#0ecb81" stroke-width="1.4" /><rect x="79.73" y="122.27" width="6" height="14.63" rx="1.5" fill="#0ecb81" /><line x1="93.47" y1="112.87" x2="93.47" y2="145.79" stroke="#0ecb81" stroke-width="1.4" /><rect x="90.47" y="120.18" width="6" height="2.09" rx="1.5" fill="#0ecb81" /><line x1="104.20" y1="112.87" x2="104.20" y2="151.01" stroke="#0ecb81" stroke-width="1.4" /><rect x="101.20" y="119.66" width="6" height="2.00" rx="1.5" fill="#0ecb81" /><line x1="114.94" y1="101.89" x2="114.94" y2="125.93" stroke="#0ecb81" stroke-width="1.4" /><rect x="111.94" y="112.87" width="6" height="5.75" rx="1.5" fill="#0ecb81" /><line x1="125.67" y1="95.10" x2="125.67" y2="117.05" stroke="#0ecb81" stroke-width="1.4" /><rect x="122.67" y="101.89" width="6" height="11.50" rx="1.5" fill="#0ecb81" /><line x1="136.41" y1="89.88" x2="136.41" y2="108.16" stroke="#f6465d" stroke-width="1.4" /><rect x="133.41" y="100.85" width="6" height="3.14" rx="1.5" fill="#f6465d" /><line x1="147.14" y1="77.33" x2="147.14" y2="106.07" stroke="#0ecb81" stroke-width="1.4" /><rect x="144.14" y="92.49" width="6" height="11.50" rx="1.5" fill="#0ecb81" /><line x1="157.87" y1="76.29" x2="157.87" y2="112.87" stroke="#f6465d" stroke-width="1.4" /><rect x="154.87" y="91.97" width="6" height="11.50" rx="1.5" fill="#f6465d" /><line x1="168.61" y1="97.71" x2="168.61" y2="130.11" stroke="#f6465d" stroke-width="1.4" /><rect x="165.61" y="103.46" width="6" height="15.15" rx="1.5" fill="#f6465d" /><line x1="179.34" y1="112.87" x2="179.34" y2="140.04" stroke="#f6465d" stroke-width="1.4" /><rect x="176.34" y="118.09" width="6" height="15.68" rx="1.5" fill="#f6465d" /><line x1="190.08" y1="125.41" x2="190.08" y2="140.04" stroke="#f6465d" stroke-width="1.4" /><rect x="187.08" y="133.77" width="6" height="2.00" rx="1.5" fill="#f6465d" /><line x1="200.81" y1="116.53" x2="200.81" y2="140.04" stroke="#0ecb81" stroke-width="1.4" /><rect x="197.81" y="130.63" width="6" height="5.23" rx="1.5" fill="#0ecb81" /><line x1="211.54" y1="101.37" x2="211.54" y2="133.25" stroke="#0ecb81" stroke-width="1.4" /><rect x="208.54" y="102.94" width="6" height="27.69" rx="1.5" fill="#0ecb81" /><line x1="222.28" y1="98.76" x2="222.28" y2="114.44" stroke="#f6465d" stroke-width="1.4" /><rect x="219.28" y="103.98" width="6" height="6.79" rx="1.5" fill="#f6465d" /><line x1="233.01" y1="103.46" x2="233.01" y2="155.19" stroke="#f6465d" stroke-width="1.4" /><rect x="230.01" y="110.78" width="6" height="12.54" rx="1.5" fill="#f6465d" /><line x1="243.75" y1="117.57" x2="243.75" y2="146.31" stroke="#f6465d" stroke-width="1.4" /><rect x="240.75" y="122.80" width="6" height="6.27" rx="1.5" fill="#f6465d" /><line x1="254.48" y1="95.62" x2="254.48" y2="130.11" stroke="#0ecb81" stroke-width="1.4" /><rect x="251.48" y="95.62" width="6" height="33.44" rx="1.5" fill="#0ecb81" /><line x1="265.22" y1="58.00" x2="265.22" y2="101.37" stroke="#0ecb81" stroke-width="1.4" /><rect x="262.22" y="71.59" width="6" height="24.56" rx="1.5" fill="#0ecb81" /><line x1="275.95" y1="60.61" x2="275.95" y2="154.15" stroke="#f6465d" stroke-width="1.4" /><rect x="272.95" y="71.59" width="6" height="62.18" rx="1.5" fill="#f6465d" /><line x1="286.68" y1="122.27" x2="286.68" y2="149.97" stroke="#0ecb81" stroke-width="1.4" /><rect x="283.68" y="132.72" width="6" height="2.00" rx="1.5" fill="#0ecb81" /><line x1="297.42" y1="126.45" x2="297.42" y2="145.27" stroke="#f6465d" stroke-width="1.4" /><rect x="294.42" y="132.72" width="6" height="7.84" rx="1.5" fill="#f6465d" /><line x1="308.15" y1="125.41" x2="308.15" y2="154.67" stroke="#f6465d" stroke-width="1.4" /><rect x="305.15" y="140.04" width="6" height="7.32" rx="1.5" fill="#f6465d" /><line x1="318.89" y1="132.72" x2="318.89" y2="174.53" stroke="#0ecb81" stroke-width="1.4" /><rect x="315.89" y="144.74" width="6" height="3.66" rx="1.5" fill="#0ecb81" /><line x1="329.62" y1="104.51" x2="329.62" y2="150.49" stroke="#0ecb81" stroke-width="1.4" /><rect x="326.62" y="109.21" width="6" height="35.53" rx="1.5" fill="#0ecb81" /><line x1="340.35" y1="96.15" x2="340.35" y2="111.82" stroke="#0ecb81" stroke-width="1.4" /><rect x="337.35" y="103.98" width="6" height="5.23" rx="1.5" fill="#0ecb81" /><line x1="351.09" y1="101.89" x2="351.09" y2="126.98" stroke="#f6465d" stroke-width="1.4" /><rect x="348.09" y="103.98" width="6" height="9.41" rx="1.5" fill="#f6465d" /><line x1="361.82" y1="102.94" x2="361.82" y2="172.44" stroke="#f6465d" stroke-width="1.4" /><rect x="358.82" y="112.34" width="6" height="55.91" rx="1.5" fill="#f6465d" /><line x1="372.56" y1="159.90" x2="372.56" y2="184.46" stroke="#f6465d" stroke-width="1.4" /><rect x="369.56" y="167.21" width="6" height="5.23" rx="1.5" fill="#f6465d" /><line x1="383.29" y1="167.73" x2="383.29" y2="198.04" stroke="#f6465d" stroke-width="1.4" /><rect x="380.29" y="172.96" width="6" height="22.47" rx="1.5" fill="#f6465d" /><line x1="394.03" y1="170.35" x2="394.03" y2="237.23" stroke="#f6465d" stroke-width="1.4" /><rect x="391.03" y="195.43" width="6" height="29.79" rx="1.5" fill="#f6465d" /><line x1="404.76" y1="225.21" x2="404.76" y2="292.62" stroke="#f6465d" stroke-width="1.4" /><rect x="401.76" y="225.21" width="6" height="44.42" rx="1.5" fill="#f6465d" /><line x1="415.49" y1="260.23" x2="415.49" y2="389.82" stroke="#f6465d" stroke-width="1.4" /><rect x="412.49" y="269.11" width="6" height="90.92" rx="1.5" fill="#f6465d" /><line x1="426.23" y1="353.24" x2="426.23" y2="445.21" stroke="#f6465d" stroke-width="1.4" /><rect x="423.23" y="362.12" width="6" height="58.53" rx="1.5" fill="#f6465d" /><line x1="436.96" y1="266.50" x2="436.96" y2="424.31" stroke="#0ecb81" stroke-width="1.4" /><rect x="433.96" y="332.34" width="6" height="88.31" rx="1.5" fill="#0ecb81" /><line x1="447.70" y1="296.28" x2="447.70" y2="386.68" stroke="#f6465d" stroke-width="1.4" /><rect x="444.70" y="331.81" width="6" height="34.49" rx="1.5" fill="#f6465d" /><line x1="458.43" y1="354.28" x2="458.43" y2="403.40" stroke="#f6465d" stroke-width="1.4" /><rect x="455.43" y="366.82" width="6" height="13.59" rx="1.5" fill="#f6465d" /><line x1="469.16" y1="376.23" x2="469.16" y2="439.98" stroke="#f6465d" stroke-width="1.4" /><rect x="466.16" y="380.41" width="6" height="52.25" rx="1.5" fill="#f6465d" /><line x1="479.90" y1="408.63" x2="479.90" y2="452.00" stroke="#0ecb81" stroke-width="1.4" /><rect x="476.90" y="412.81" width="6" height="18.29" rx="1.5" fill="#0ecb81" /><line x1="490.63" y1="282.17" x2="490.63" y2="444.68" stroke="#0ecb81" stroke-width="1.4" /><rect x="487.63" y="345.40" width="6" height="66.89" rx="1.5" fill="#0ecb81" /><line x1="501.37" y1="261.27" x2="501.37" y2="371.01" stroke="#0ecb81" stroke-width="1.4" /><rect x="498.37" y="275.90" width="6" height="68.45" rx="1.5" fill="#0ecb81" /><line x1="512.10" y1="181.32" x2="512.10" y2="288.44" stroke="#0ecb81" stroke-width="1.4" /><rect x="509.10" y="260.75" width="6" height="13.59" rx="1.5" fill="#0ecb81" /><line x1="522.84" y1="235.14" x2="522.84" y2="307.78" stroke="#f6465d" stroke-width="1.4" /><rect x="519.84" y="260.75" width="6" height="39.19" rx="1.5" fill="#f6465d" /><line x1="533.57" y1="285.31" x2="533.57" y2="373.10" stroke="#f6465d" stroke-width="1.4" /><rect x="530.57" y="299.94" width="6" height="72.11" rx="1.5" fill="#f6465d" /><line x1="544.30" y1="307.25" x2="544.30" y2="381.98" stroke="#0ecb81" stroke-width="1.4" /><rect x="541.30" y="326.07" width="6" height="46.51" rx="1.5" fill="#0ecb81" /><line x1="555.04" y1="294.19" x2="555.04" y2="327.11" stroke="#0ecb81" stroke-width="1.4" /><rect x="552.04" y="297.33" width="6" height="29.26" rx="1.5" fill="#0ecb81" /><line x1="565.77" y1="237.23" x2="565.77" y2="306.73" stroke="#0ecb81" stroke-width="1.4" /><rect x="562.77" y="267.54" width="6" height="30.83" rx="1.5" fill="#0ecb81" /><line x1="576.51" y1="245.07" x2="576.51" y2="279.04" stroke="#f6465d" stroke-width="1.4" /><rect x="573.51" y="265.97" width="6" height="4.70" rx="1.5" fill="#f6465d" /><line x1="587.24" y1="251.34" x2="587.24" y2="280.08" stroke="#0ecb81" stroke-width="1.4" /><rect x="584.24" y="256.05" width="6" height="14.63" rx="1.5" fill="#0ecb81" /><line x1="597.97" y1="207.45" x2="597.97" y2="262.84" stroke="#0ecb81" stroke-width="1.4" /><rect x="594.97" y="227.83" width="6" height="28.22" rx="1.5" fill="#0ecb81" /><line x1="608.71" y1="182.89" x2="608.71" y2="227.83" stroke="#0ecb81" stroke-width="1.4" /><rect x="605.71" y="210.58" width="6" height="17.24" rx="1.5" fill="#0ecb81" /><line x1="619.44" y1="193.34" x2="619.44" y2="246.12" stroke="#f6465d" stroke-width="1.4" /><rect x="616.44" y="210.06" width="6" height="28.74" rx="1.5" fill="#f6465d" /><line x1="630.18" y1="207.45" x2="630.18" y2="240.89" stroke="#0ecb81" stroke-width="1.4" /><rect x="627.18" y="226.26" width="6" height="11.50" rx="1.5" fill="#0ecb81" /><line x1="640.91" y1="219.47" x2="640.91" y2="244.03" stroke="#f6465d" stroke-width="1.4" /><rect x="637.91" y="225.74" width="6" height="7.32" rx="1.5" fill="#f6465d" /><line x1="651.65" y1="212.67" x2="651.65" y2="237.23" stroke="#0ecb81" stroke-width="1.4" /><rect x="648.65" y="221.56" width="6" height="12.02" rx="1.5" fill="#0ecb81" /><line x1="662.38" y1="169.30" x2="662.38" y2="222.60" stroke="#0ecb81" stroke-width="1.4" /><rect x="659.38" y="187.07" width="6" height="34.49" rx="1.5" fill="#0ecb81" /><line x1="673.11" y1="187.59" x2="673.11" y2="268.59" stroke="#f6465d" stroke-width="1.4" /><rect x="670.11" y="187.59" width="6" height="68.98" rx="1.5" fill="#f6465d" /><line x1="683.85" y1="234.62" x2="683.85" y2="329.72" stroke="#0ecb81" stroke-width="1.4" /><rect x="680.85" y="251.86" width="6" height="4.70" rx="1.5" fill="#0ecb81" /><line x1="694.58" y1="193.86" x2="694.58" y2="264.93" stroke="#0ecb81" stroke-width="1.4" /><rect x="691.58" y="194.38" width="6" height="57.48" rx="1.5" fill="#0ecb81" /><line x1="705.32" y1="144.74" x2="705.32" y2="195.95" stroke="#0ecb81" stroke-width="1.4" /><rect x="702.32" y="168.26" width="6" height="26.65" rx="1.5" fill="#0ecb81" /><line x1="716.05" y1="160.94" x2="716.05" y2="214.24" stroke="#f6465d" stroke-width="1.4" /><rect x="713.05" y="168.26" width="6" height="19.86" rx="1.5" fill="#f6465d" /><line x1="726.78" y1="165.12" x2="726.78" y2="191.25" stroke="#f6465d" stroke-width="1.4" /><rect x="723.78" y="188.11" width="6" height="3.14" rx="1.5" fill="#f6465d" /><line x1="737.52" y1="158.85" x2="737.52" y2="196.47" stroke="#0ecb81" stroke-width="1.4" /><rect x="734.52" y="187.59" width="6" height="3.66" rx="1.5" fill="#0ecb81" /><line x1="748.25" y1="148.40" x2="748.25" y2="207.97" stroke="#0ecb81" stroke-width="1.4" /><rect x="745.25" y="183.41" width="6" height="3.66" rx="1.5" fill="#0ecb81" /><line x1="758.99" y1="170.35" x2="758.99" y2="265.45" stroke="#f6465d" stroke-width="1.4" /><rect x="755.99" y="183.41" width="6" height="71.07" rx="1.5" fill="#f6465d" /><line x1="769.72" y1="237.76" x2="769.72" y2="309.87" stroke="#0ecb81" stroke-width="1.4" /><rect x="766.72" y="244.55" width="6" height="10.45" rx="1.5" fill="#0ecb81" /><line x1="780.46" y1="244.55" x2="780.46" y2="272.77" stroke="#f6465d" stroke-width="1.4" /><rect x="777.46" y="245.07" width="6" height="4.70" rx="1.5" fill="#f6465d" /><line x1="791.19" y1="241.41" x2="791.19" y2="260.23" stroke="#0ecb81" stroke-width="1.4" /><rect x="788.19" y="246.12" width="6" height="3.66" rx="1.5" fill="#0ecb81" /><line x1="801.92" y1="237.23" x2="801.92" y2="263.36" stroke="#f6465d" stroke-width="1.4" /><rect x="798.92" y="247.16" width="6" height="3.14" rx="1.5" fill="#f6465d" /><line x1="812.66" y1="234.10" x2="812.66" y2="273.81" stroke="#0ecb81" stroke-width="1.4" /><rect x="809.66" y="234.62" width="6" height="15.68" rx="1.5" fill="#0ecb81" /><line x1="823.39" y1="218.42" x2="823.39" y2="267.54" stroke="#f6465d" stroke-width="1.4" /><rect x="820.39" y="234.10" width="6" height="2.09" rx="1.5" fill="#f6465d" /><line x1="834.13" y1="227.31" x2="834.13" y2="271.72" stroke="#0ecb81" stroke-width="1.4" /><rect x="831.13" y="235.14" width="6" height="2.00" rx="1.5" fill="#0ecb81" /><line x1="844.86" y1="193.86" x2="844.86" y2="244.55" stroke="#0ecb81" stroke-width="1.4" /><rect x="841.86" y="199.61" width="6" height="34.49" rx="1.5" fill="#0ecb81" /><line x1="855.59" y1="197.52" x2="855.59" y2="267.02" stroke="#f6465d" stroke-width="1.4" /><rect x="852.59" y="198.04" width="6" height="42.85" rx="1.5" fill="#f6465d" /><line x1="866.33" y1="236.19" x2="866.33" y2="272.24" stroke="#f6465d" stroke-width="1.4" /><rect x="863.33" y="240.37" width="6" height="12.54" rx="1.5" fill="#f6465d" /><line x1="877.06" y1="245.07" x2="877.06" y2="314.05" stroke="#f6465d" stroke-width="1.4" /><rect x="874.06" y="252.39" width="6" height="50.69" rx="1.5" fill="#f6465d" /><line x1="887.80" y1="298.89" x2="887.80" y2="369.96" stroke="#f6465d" stroke-width="1.4" /><rect x="884.80" y="302.55" width="6" height="49.12" rx="1.5" fill="#f6465d" /><line x1="898.53" y1="346.45" x2="898.53" y2="392.43" stroke="#f6465d" stroke-width="1.4" /><rect x="895.53" y="353.76" width="6" height="32.40" rx="1.5" fill="#f6465d" /><line x1="909.27" y1="319.80" x2="909.27" y2="406.02" stroke="#0ecb81" stroke-width="1.4" /><rect x="906.27" y="332.34" width="6" height="53.82" rx="1.5" fill="#0ecb81" /><line x1="920.00" y1="333.38" x2="920.00" y2="368.92" stroke="#f6465d" stroke-width="1.4" /><rect x="917.00" y="333.38" width="6" height="10.97" rx="1.5" fill="#f6465d" />
  <polyline points="512.10,181.32 544.30,381.98 662.38,169.30 683.85,329.72 705.32,144.74" fill="none" stroke="#2fc273" stroke-width="4" stroke-linecap="round" stroke-linejoin="round" />
  <circle cx="512.10" cy="181.32" r="5.5" fill="#2fc273" fill-opacity="0.15" stroke="#2fc273" stroke-width="2" /><text x="512.10" y="169.32" fill="#f3f4f6" font-size="15" font-weight="700" text-anchor="middle">X</text><circle cx="544.30" cy="381.98" r="5.5" fill="#2fc273" fill-opacity="0.15" stroke="#2fc273" stroke-width="2" /><text x="544.30" y="369.98" fill="#f3f4f6" font-size="15" font-weight="700" text-anchor="middle">A</text><circle cx="662.38" cy="169.30" r="5.5" fill="#2fc273" fill-opacity="0.15" stroke="#2fc273" stroke-width="2" /><text x="662.38" y="157.30" fill="#f3f4f6" font-size="15" font-weight="700" text-anchor="middle">B</text><circle cx="683.85" cy="329.72" r="5.5" fill="#2fc273" fill-opacity="0.15" stroke="#2fc273" stroke-width="2" /><text x="683.85" y="317.72" fill="#f3f4f6" font-size="15" font-weight="700" text-anchor="middle">C</text><circle cx="705.32" cy="144.74" r="5.5" fill="#2fc273" fill-opacity="0.15" stroke="#2fc273" stroke-width="2" /><text x="705.32" y="132.74" fill="#f3f4f6" font-size="15" font-weight="700" text-anchor="middle">D</text>
  <text x="56" y="492" fill="#8ba0b5" font-size="18">일반 완성 · TP1 0.045038 · TP2 0.044202 · SL 0.046889</text>
</svg>
