<svg xmlns="http://www.w3.org/2000/svg" width="960" height="540" viewBox="0 0 960 540">
  <rect width="960" height="540" rx="24" fill="#0b1220" />
  <rect x="28" y="28" width="904" height="484" rx="22" fill="#111827" stroke="#1f2937" />
  <text x="56" y="74" fill="#f3f4f6" font-size="34" font-weight="700">EDGEUSDT · AB=CD</text>
  <text x="904" y="74" fill="#8ba0b5" font-size="20" text-anchor="end">Bearish (매도) · Score 86.8</text>
  <line x1="72" y1="58" x2="920" y2="58" stroke="#223045" stroke-width="1" stroke-dasharray="4 8" /><line x1="72" y1="156" x2="920" y2="156" stroke="#223045" stroke-width="1" stroke-dasharray="4 8" /><line x1="72" y1="255" x2="920" y2="255" stroke="#223045" stroke-width="1" stroke-dasharray="4 8" /><line x1="72" y1="353" x2="920" y2="353" stroke="#223045" stroke-width="1" stroke-dasharray="4 8" /><line x1="72" y1="452" x2="920" y2="452" stroke="#223045" stroke-width="1" stroke-dasharray="4 8" />
  <rect x="344.56" y="58.28" width="84" height="77.86" fill="#fbbf24" fill-opacity="0.12" stroke="#fbbf24" stroke-width="1.5" stroke-dasharray="6 6" />
  <line x1="72.00" y1="160.35" x2="72.00" y2="193.37" stroke="#0ecb81" stroke-width="1.4" /><rect x="69.00" y="172.46" width="6" height="10.46" rx="1.5" fill="#0ecb81" /><line x1="82.73" y1="165.85" x2="82.73" y2="206.58" stroke="#0ecb81" stroke-width="1.4" /><rect x="79.73" y="170.26" width="6" height="3.85" rx="1.5" fill="#0ecb81" /><line x1="93.47" y1="159.25" x2="93.47" y2="184.56" stroke="#f6465d" stroke-width="1.4" /><rect x="90.47" y="170.81" width="6" height="8.80" rx="1.5" fill="#f6465d" /><line x1="104.20" y1="177.41" x2="104.20" y2="210.98" stroke="#f6465d" stroke-width="1.4" /><rect x="101.20" y="180.16" width="6" height="30.82" rx="1.5" fill="#f6465d" /><line x1="114.94" y1="189.52" x2="114.94" y2="213.18" stroke="#0ecb81" stroke-width="1.4" /><rect x="111.94" y="196.12" width="6" height="14.86" rx="1.5" fill="#0ecb81" /><line x1="125.67" y1="180.16" x2="125.67" y2="212.63" stroke="#f6465d" stroke-width="1.4" /><rect x="122.67" y="195.02" width="6" height="10.46" rx="1.5" fill="#f6465d" /><line x1="136.41" y1="194.47" x2="136.41" y2="225.84" stroke="#f6465d" stroke-width="1.4" /><rect x="133.41" y="206.03" width="6" height="13.76" rx="1.5" fill="#f6465d" /><line x1="147.14" y1="207.68" x2="147.14" y2="226.94" stroke="#0ecb81" stroke-width="1.4" /><rect x="144.14" y="215.93" width="6" height="3.30" rx="1.5" fill="#0ecb81" /><line x1="157.87" y1="208.78" x2="157.87" y2="231.89" stroke="#f6465d" stroke-width="1.4" /><rect x="154.87" y="215.38" width="6" height="4.40" rx="1.5" fill="#f6465d" /><line x1="168.61" y1="171.36" x2="168.61" y2="232.99" stroke="#0ecb81" stroke-width="1.4" /><rect x="165.61" y="210.43" width="6" height="9.91" rx="1.5" fill="#0ecb81" /><line x1="179.34" y1="201.07" x2="179.34" y2="247.30" stroke="#f6465d" stroke-width="1.4" /><rect x="176.34" y="210.43" width="6" height="2.20" rx="1.5" fill="#f6465d" /><line x1="190.08" y1="175.21" x2="190.08" y2="215.93" stroke="#0ecb81" stroke-width="1.4" /><rect x="187.08" y="192.82" width="6" height="19.26" rx="1.5" fill="#0ecb81" /><line x1="200.81" y1="182.36" x2="200.81" y2="230.79" stroke="#f6465d" stroke-width="1.4" /><rect x="197.81" y="192.27" width="6" height="34.67" rx="1.5" fill="#f6465d" /><line x1="211.54" y1="216.48" x2="211.54" y2="249.50" stroke="#f6465d" stroke-width="1.4" /><rect x="208.54" y="226.94" width="6" height="22.01" rx="1.5" fill="#f6465d" /><line x1="222.28" y1="213.73" x2="222.28" y2="257.75" stroke="#0ecb81" stroke-width="1.4" /><rect x="219.28" y="216.48" width="6" height="32.47" rx="1.5" fill="#0ecb81" /><line x1="233.01" y1="191.17" x2="233.01" y2="245.65" stroke="#f6465d" stroke-width="1.4" /><rect x="230.01" y="217.03" width="6" height="11.01" rx="1.5" fill="#f6465d" /><line x1="243.75" y1="225.28" x2="243.75" y2="259.95" stroke="#0ecb81" stroke-width="1.4" /><rect x="240.75" y="226.39" width="6" height="2.00" rx="1.5" fill="#0ecb81" /><line x1="254.48" y1="213.18" x2="254.48" y2="257.75" stroke="#f6465d" stroke-width="1.4" /><rect x="251.48" y="225.28" width="6" height="23.66" rx="1.5" fill="#f6465d" /><line x1="265.22" y1="221.43" x2="265.22" y2="274.81" stroke="#f6465d" stroke-width="1.4" /><rect x="262.22" y="248.40" width="6" height="7.15" rx="1.5" fill="#f6465d" /><line x1="275.95" y1="236.84" x2="275.95" y2="272.06" stroke="#0ecb81" stroke-width="1.4" /><rect x="272.95" y="252.25" width="6" height="3.85" rx="1.5" fill="#0ecb81" /><line x1="286.68" y1="228.04" x2="286.68" y2="261.60" stroke="#0ecb81" stroke-width="1.4" /><rect x="283.68" y="240.14" width="6" height="11.56" rx="1.5" fill="#0ecb81" /><line x1="297.42" y1="231.89" x2="297.42" y2="273.71" stroke="#f6465d" stroke-width="1.4" /><rect x="294.42" y="239.59" width="6" height="29.72" rx="1.5" fill="#f6465d" /><line x1="308.15" y1="224.18" x2="308.15" y2="273.16" stroke="#0ecb81" stroke-width="1.4" /><rect x="305.15" y="224.18" width="6" height="46.77" rx="1.5" fill="#0ecb81" /><line x1="318.89" y1="199.42" x2="318.89" y2="247.30" stroke="#0ecb81" stroke-width="1.4" /><rect x="315.89" y="203.82" width="6" height="19.81" rx="1.5" fill="#0ecb81" /><line x1="329.62" y1="201.07" x2="329.62" y2="243.44" stroke="#f6465d" stroke-width="1.4" /><rect x="326.62" y="203.82" width="6" height="31.37" rx="1.5" fill="#f6465d" /><line x1="340.35" y1="207.13" x2="340.35" y2="241.79" stroke="#0ecb81" stroke-width="1.4" /><rect x="337.35" y="208.23" width="6" height="26.96" rx="1.5" fill="#0ecb81" /><line x1="351.09" y1="191.17" x2="351.09" y2="240.69" stroke="#f6465d" stroke-width="1.4" /><rect x="348.09" y="208.78" width="6" height="16.51" rx="1.5" fill="#f6465d" /><line x1="361.82" y1="97.07" x2="361.82" y2="231.34" stroke="#0ecb81" stroke-width="1.4" /><rect x="358.82" y="105.87" width="6" height="119.96" rx="1.5" fill="#0ecb81" /><line x1="372.56" y1="58.00" x2="372.56" y2="127.89" stroke="#0ecb81" stroke-width="1.4" /><rect x="369.56" y="92.12" width="6" height="14.31" rx="1.5" fill="#0ecb81" /><line x1="383.29" y1="89.37" x2="383.29" y2="164.20" stroke="#f6465d" stroke-width="1.4" /><rect x="380.29" y="94.32" width="6" height="57.78" rx="1.5" fill="#f6465d" /><line x1="394.03" y1="115.23" x2="394.03" y2="163.65" stroke="#0ecb81" stroke-width="1.4" /><rect x="391.03" y="139.44" width="6" height="13.21" rx="1.5" fill="#0ecb81" /><line x1="404.76" y1="135.59" x2="404.76" y2="166.41" stroke="#f6465d" stroke-width="1.4" /><rect x="401.76" y="139.99" width="6" height="9.91" rx="1.5" fill="#f6465d" /><line x1="415.49" y1="139.44" x2="415.49" y2="181.26" stroke="#f6465d" stroke-width="1.4" /><rect x="412.49" y="150.45" width="6" height="23.11" rx="1.5" fill="#f6465d" /><line x1="426.23" y1="157.05" x2="426.23" y2="206.58" stroke="#0ecb81" stroke-width="1.4" /><rect x="423.23" y="160.35" width="6" height="13.76" rx="1.5" fill="#0ecb81" /><line x1="436.96" y1="116.33" x2="436.96" y2="160.90" stroke="#0ecb81" stroke-width="1.4" /><rect x="433.96" y="159.25" width="6" height="2.00" rx="1.5" fill="#0ecb81" /><line x1="447.70" y1="149.90" x2="447.70" y2="213.18" stroke="#f6465d" stroke-width="1.4" /><rect x="444.70" y="159.25" width="6" height="34.67" rx="1.5" fill="#f6465d" /><line x1="458.43" y1="183.46" x2="458.43" y2="234.09" stroke="#f6465d" stroke-width="1.4" /><rect x="455.43" y="194.47" width="6" height="23.11" rx="1.5" fill="#f6465d" /><line x1="469.16" y1="217.58" x2="469.16" y2="263.80" stroke="#f6465d" stroke-width="1.4" /><rect x="466.16" y="217.58" width="6" height="16.51" rx="1.5" fill="#f6465d" /><line x1="479.90" y1="228.59" x2="479.90" y2="270.41" stroke="#f6465d" stroke-width="1.4" /><rect x="476.90" y="233.54" width="6" height="32.47" rx="1.5" fill="#f6465d" /><line x1="490.63" y1="266.01" x2="490.63" y2="357.90" stroke="#f6465d" stroke-width="1.4" /><rect x="487.63" y="266.01" width="6" height="35.77" rx="1.5" fill="#f6465d" /><line x1="501.37" y1="266.01" x2="501.37" y2="343.59" stroke="#f6465d" stroke-width="1.4" /><rect x="498.37" y="302.87" width="6" height="18.16" rx="1.5" fill="#f6465d" /><line x1="512.10" y1="283.61" x2="512.10" y2="328.74" stroke="#0ecb81" stroke-width="1.4" /><rect x="509.10" y="299.57" width="6" height="20.91" rx="1.5" fill="#0ecb81" /><line x1="522.84" y1="273.16" x2="522.84" y2="306.18" stroke="#0ecb81" stroke-width="1.4" /><rect x="519.84" y="292.42" width="6" height="6.60" rx="1.5" fill="#0ecb81" /><line x1="533.57" y1="273.71" x2="533.57" y2="301.22" stroke="#0ecb81" stroke-width="1.4" /><rect x="530.57" y="284.72" width="6" height="7.70" rx="1.5" fill="#0ecb81" /><line x1="544.30" y1="285.27" x2="544.30" y2="332.04" stroke="#f6465d" stroke-width="1.4" /><rect x="541.30" y="285.27" width="6" height="39.62" rx="1.5" fill="#f6465d" /><line x1="555.04" y1="306.18" x2="555.04" y2="334.79" stroke="#0ecb81" stroke-width="1.4" /><rect x="552.04" y="317.73" width="6" height="7.15" rx="1.5" fill="#0ecb81" /><line x1="565.77" y1="310.03" x2="565.77" y2="351.30" stroke="#f6465d" stroke-width="1.4" /><rect x="562.77" y="318.28" width="6" height="13.76" rx="1.5" fill="#f6465d" /><line x1="576.51" y1="300.12" x2="576.51" y2="337.54" stroke="#0ecb81" stroke-width="1.4" /><rect x="573.51" y="324.89" width="6" height="6.05" rx="1.5" fill="#0ecb81" /><line x1="587.24" y1="323.78" x2="587.24" y2="351.85" stroke="#f6465d" stroke-width="1.4" /><rect x="584.24" y="324.34" width="6" height="2.20" rx="1.5" fill="#f6465d" /><line x1="597.97" y1="320.48" x2="597.97" y2="346.90" stroke="#f6465d" stroke-width="1.4" /><rect x="594.97" y="327.09" width="6" height="18.16" rx="1.5" fill="#f6465d" /><line x1="608.71" y1="329.29" x2="608.71" y2="346.90" stroke="#0ecb81" stroke-width="1.4" /><rect x="605.71" y="336.99" width="6" height="7.70" rx="1.5" fill="#0ecb81" /><line x1="619.44" y1="324.34" x2="619.44" y2="341.94" stroke="#0ecb81" stroke-width="1.4" /><rect x="616.44" y="332.59" width="6" height="4.40" rx="1.5" fill="#0ecb81" /><line x1="630.18" y1="323.23" x2="630.18" y2="387.07" stroke="#f6465d" stroke-width="1.4" /><rect x="627.18" y="333.14" width="6" height="49.53" rx="1.5" fill="#f6465d" /><line x1="640.91" y1="361.20" x2="640.91" y2="400.27" stroke="#0ecb81" stroke-width="1.4" /><rect x="637.91" y="382.11" width="6" height="2.00" rx="1.5" fill="#0ecb81" /><line x1="651.65" y1="363.96" x2="651.65" y2="383.77" stroke="#0ecb81" stroke-width="1.4" /><rect x="648.65" y="374.41" width="6" height="7.15" rx="1.5" fill="#0ecb81" /><line x1="662.38" y1="372.21" x2="662.38" y2="392.57" stroke="#f6465d" stroke-width="1.4" /><rect x="659.38" y="374.41" width="6" height="17.61" rx="1.5" fill="#f6465d" /><line x1="673.11" y1="366.16" x2="673.11" y2="393.12" stroke="#0ecb81" stroke-width="1.4" /><rect x="670.11" y="371.11" width="6" height="20.36" rx="1.5" fill="#0ecb81" /><line x1="683.85" y1="361.75" x2="683.85" y2="420.08" stroke="#f6465d" stroke-width="1.4" /><rect x="680.85" y="372.76" width="6" height="35.77" rx="1.5" fill="#f6465d" /><line x1="694.58" y1="391.47" x2="694.58" y2="412.38" stroke="#0ecb81" stroke-width="1.4" /><rect x="691.58" y="403.58" width="6" height="4.95" rx="1.5" fill="#0ecb81" /><line x1="705.32" y1="368.91" x2="705.32" y2="407.43" stroke="#0ecb81" stroke-width="1.4" /><rect x="702.32" y="387.07" width="6" height="16.51" rx="1.5" fill="#0ecb81" /><line x1="716.05" y1="384.87" x2="716.05" y2="403.03" stroke="#f6465d" stroke-width="1.4" /><rect x="713.05" y="387.07" width="6" height="2.00" rx="1.5" fill="#f6465d" /><line x1="726.78" y1="383.22" x2="726.78" y2="413.48" stroke="#f6465d" stroke-width="1.4" /><rect x="723.78" y="387.62" width="6" height="24.76" rx="1.5" fill="#f6465d" /><line x1="737.52" y1="405.23" x2="737.52" y2="452.00" stroke="#f6465d" stroke-width="1.4" /><rect x="734.52" y="412.38" width="6" height="3.85" rx="1.5" fill="#f6465d" /><line x1="748.25" y1="342.49" x2="748.25" y2="417.88" stroke="#0ecb81" stroke-width="1.4" /><rect x="745.25" y="361.20" width="6" height="56.13" rx="1.5" fill="#0ecb81" /><line x1="758.99" y1="351.85" x2="758.99" y2="372.21" stroke="#f6465d" stroke-width="1.4" /><rect x="755.99" y="360.65" width="6" height="9.91" rx="1.5" fill="#f6465d" /><line x1="769.72" y1="303.97" x2="769.72" y2="374.41" stroke="#0ecb81" stroke-width="1.4" /><rect x="766.72" y="321.58" width="6" height="48.42" rx="1.5" fill="#0ecb81" /><line x1="780.46" y1="298.47" x2="780.46" y2="339.19" stroke="#0ecb81" stroke-width="1.4" /><rect x="777.46" y="320.48" width="6" height="2.20" rx="1.5" fill="#0ecb81" /><line x1="791.19" y1="319.38" x2="791.19" y2="349.65" stroke="#f6465d" stroke-width="1.4" /><rect x="788.19" y="321.03" width="6" height="20.36" rx="1.5" fill="#f6465d" /><line x1="801.92" y1="338.64" x2="801.92" y2="362.85" stroke="#f6465d" stroke-width="1.4" /><rect x="798.92" y="340.84" width="6" height="2.75" rx="1.5" fill="#f6465d" /><line x1="812.66" y1="289.67" x2="812.66" y2="355.70" stroke="#0ecb81" stroke-width="1.4" /><rect x="809.66" y="294.62" width="6" height="49.53" rx="1.5" fill="#0ecb81" /><line x1="823.39" y1="293.52" x2="823.39" y2="334.79" stroke="#f6465d" stroke-width="1.4" /><rect x="820.39" y="294.07" width="6" height="39.62" rx="1.5" fill="#f6465d" /><line x1="834.13" y1="327.64" x2="834.13" y2="346.35" stroke="#0ecb81" stroke-width="1.4" /><rect x="831.13" y="329.29" width="6" height="4.95" rx="1.5" fill="#0ecb81" /><line x1="844.86" y1="311.68" x2="844.86" y2="342.49" stroke="#f6465d" stroke-width="1.4" /><rect x="841.86" y="328.74" width="6" height="11.01" rx="1.5" fill="#f6465d" /><line x1="855.59" y1="325.44" x2="855.59" y2="348.00" stroke="#f6465d" stroke-width="1.4" /><rect x="852.59" y="340.29" width="6" height="2.75" rx="1.5" fill="#f6465d" /><line x1="866.33" y1="319.38" x2="866.33" y2="348.00" stroke="#0ecb81" stroke-width="1.4" /><rect x="863.33" y="332.59" width="6" height="10.46" rx="1.5" fill="#0ecb81" /><line x1="877.06" y1="327.64" x2="877.06" y2="346.35" stroke="#f6465d" stroke-width="1.4" /><rect x="874.06" y="332.04" width="6" height="3.85" rx="1.5" fill="#f6465d" /><line x1="887.80" y1="310.58" x2="887.80" y2="340.29" stroke="#0ecb81" stroke-width="1.4" /><rect x="884.80" y="313.33" width="6" height="22.56" rx="1.5" fill="#0ecb81" /><line x1="898.53" y1="289.12" x2="898.53" y2="324.34" stroke="#0ecb81" stroke-width="1.4" /><rect x="895.53" y="297.37" width="6" height="14.86" rx="1.5" fill="#0ecb81" /><line x1="909.27" y1="277.01" x2="909.27" y2="308.38" stroke="#0ecb81" stroke-width="1.4" /><rect x="906.27" y="291.87" width="6" height="6.05" rx="1.5" fill="#0ecb81" /><line x1="920.00" y1="281.41" x2="920.00" y2="308.38" stroke="#f6465d" stroke-width="1.4" /><rect x="917.00" y="292.42" width="6" height="15.41" rx="1.5" fill="#f6465d" />
  <polyline points="72.00,73.96 72.00,297.92 93.47,159.25 265.22,274.81 372.56,58.00" fill="none" stroke="#2fc273" stroke-width="4" stroke-linecap="round" stroke-linejoin="round" />
  <circle cx="72.00" cy="73.96" r="5.5" fill="#2fc273" fill-opacity="0.15" stroke="#2fc273" stroke-width="2" /><text x="72.00" y="61.96" fill="#f3f4f6" font-size="15" font-weight="700" text-anchor="middle">X</text><circle cx="72.00" cy="297.92" r="5.5" fill="#2fc273" fill-opacity="0.15" stroke="#2fc273" stroke-width="2" /><text x="72.00" y="285.92" fill="#f3f4f6" font-size="15" font-weight="700" text-anchor="middle">A</text><circle cx="93.47" cy="159.25" r="5.5" fill="#2fc273" fill-opacity="0.15" stroke="#2fc273" stroke-width="2" /><text x="93.47" y="147.25" fill="#f3f4f6" font-size="15" font-weight="700" text-anchor="middle">B</text><circle cx="265.22" cy="274.81" r="5.5" fill="#2fc273" fill-opacity="0.15" stroke="#2fc273" stroke-width="2" /><text x="265.22" y="262.81" fill="#f3f4f6" font-size="15" font-weight="700" text-anchor="middle">C</text><circle cx="372.56" cy="58.00" r="5.5" fill="#2fc273" fill-opacity="0.15" stroke="#2fc273" stroke-width="2" /><text x="372.56" y="46.00" fill="#f3f4f6" font-size="15" font-weight="700" text-anchor="middle">D</text>
  <text x="56" y="492" fill="#8ba0b5" font-size="18">일반 완성 · TP1 0.91855 · TP2 0.90925 · SL 0.93889</text>
</svg>
