<svg xmlns="http://www.w3.org/2000/svg" width="960" height="540" viewBox="0 0 960 540">
  <rect width="960" height="540" rx="24" fill="#0b1220" />
  <rect x="28" y="28" width="904" height="484" rx="22" fill="#111827" stroke="#1f2937" />
  <text x="56" y="74" fill="#f3f4f6" font-size="34" font-weight="700">EDGEUSDT · AB=CD</text>
  <text x="904" y="74" fill="#8ba0b5" font-size="20" text-anchor="end">Bearish (매도) · Score 85.6</text>
  <line x1="72" y1="58" x2="920" y2="58" stroke="#223045" stroke-width="1" stroke-dasharray="4 8" /><line x1="72" y1="156" x2="920" y2="156" stroke="#223045" stroke-width="1" stroke-dasharray="4 8" /><line x1="72" y1="255" x2="920" y2="255" stroke="#223045" stroke-width="1" stroke-dasharray="4 8" /><line x1="72" y1="353" x2="920" y2="353" stroke="#223045" stroke-width="1" stroke-dasharray="4 8" /><line x1="72" y1="452" x2="920" y2="452" stroke="#223045" stroke-width="1" stroke-dasharray="4 8" />
  <rect x="537.77" y="74.44" width="84" height="23.90" fill="#fbbf24" fill-opacity="0.12" stroke="#fbbf24" stroke-width="1.5" stroke-dasharray="6 6" />
  <line x1="72.00" y1="84.09" x2="72.00" y2="161.33" stroke="#f6465d" stroke-width="1.4" /><rect x="69.00" y="101.84" width="6" height="6.78" rx="1.5" fill="#f6465d" /><line x1="82.73" y1="79.40" x2="82.73" y2="116.97" stroke="#0ecb81" stroke-width="1.4" /><rect x="79.73" y="95.05" width="6" height="13.57" rx="1.5" fill="#0ecb81" /><line x1="93.47" y1="58.00" x2="93.47" y2="102.88" stroke="#0ecb81" stroke-width="1.4" /><rect x="90.47" y="88.79" width="6" height="6.78" rx="1.5" fill="#0ecb81" /><line x1="104.20" y1="78.35" x2="104.20" y2="132.63" stroke="#f6465d" stroke-width="1.4" /><rect x="101.20" y="89.31" width="6" height="14.61" rx="1.5" fill="#f6465d" /><line x1="114.94" y1="94.01" x2="114.94" y2="159.76" stroke="#f6465d" stroke-width="1.4" /><rect x="111.94" y="104.45" width="6" height="32.88" rx="1.5" fill="#f6465d" /><line x1="125.67" y1="112.79" x2="125.67" y2="143.58" stroke="#0ecb81" stroke-width="1.4" /><rect x="122.67" y="125.84" width="6" height="12.00" rx="1.5" fill="#0ecb81" /><line x1="136.41" y1="118.54" x2="136.41" y2="170.20" stroke="#f6465d" stroke-width="1.4" /><rect x="133.41" y="126.88" width="6" height="37.57" rx="1.5" fill="#f6465d" /><line x1="147.14" y1="146.72" x2="147.14" y2="171.76" stroke="#0ecb81" stroke-width="1.4" /><rect x="144.14" y="157.15" width="6" height="6.78" rx="1.5" fill="#0ecb81" /><line x1="157.87" y1="107.58" x2="157.87" y2="157.67" stroke="#0ecb81" stroke-width="1.4" /><rect x="154.87" y="137.84" width="6" height="18.79" rx="1.5" fill="#0ecb81" /><line x1="168.61" y1="103.40" x2="168.61" y2="150.89" stroke="#0ecb81" stroke-width="1.4" /><rect x="165.61" y="132.63" width="6" height="5.74" rx="1.5" fill="#0ecb81" /><line x1="179.34" y1="110.71" x2="179.34" y2="162.89" stroke="#0ecb81" stroke-width="1.4" /><rect x="176.34" y="131.06" width="6" height="2.09" rx="1.5" fill="#0ecb81" /><line x1="190.08" y1="128.45" x2="190.08" y2="209.34" stroke="#f6465d" stroke-width="1.4" /><rect x="187.08" y="131.06" width="6" height="39.14" rx="1.5" fill="#f6465d" /><line x1="200.81" y1="161.33" x2="200.81" y2="254.74" stroke="#f6465d" stroke-width="1.4" /><rect x="197.81" y="170.20" width="6" height="70.97" rx="1.5" fill="#f6465d" /><line x1="211.54" y1="212.47" x2="211.54" y2="326.75" stroke="#f6465d" stroke-width="1.4" /><rect x="208.54" y="242.21" width="6" height="60.01" rx="1.5" fill="#f6465d" /><line x1="222.28" y1="246.39" x2="222.28" y2="322.06" stroke="#f6465d" stroke-width="1.4" /><rect x="219.28" y="304.32" width="6" height="4.70" rx="1.5" fill="#f6465d" /><line x1="233.01" y1="307.97" x2="233.01" y2="414.43" stroke="#f6465d" stroke-width="1.4" /><rect x="230.01" y="309.01" width="6" height="52.19" rx="1.5" fill="#f6465d" /><line x1="243.75" y1="313.71" x2="243.75" y2="387.29" stroke="#f6465d" stroke-width="1.4" /><rect x="240.75" y="361.72" width="6" height="5.74" rx="1.5" fill="#f6465d" /><line x1="254.48" y1="317.88" x2="254.48" y2="377.37" stroke="#0ecb81" stroke-width="1.4" /><rect x="251.48" y="340.85" width="6" height="27.14" rx="1.5" fill="#0ecb81" /><line x1="265.22" y1="334.58" x2="265.22" y2="378.94" stroke="#f6465d" stroke-width="1.4" /><rect x="262.22" y="341.37" width="6" height="37.05" rx="1.5" fill="#f6465d" /><line x1="275.95" y1="369.03" x2="275.95" y2="420.69" stroke="#f6465d" stroke-width="1.4" /><rect x="272.95" y="378.42" width="6" height="2.00" rx="1.5" fill="#f6465d" /><line x1="286.68" y1="324.15" x2="286.68" y2="387.81" stroke="#0ecb81" stroke-width="1.4" /><rect x="283.68" y="331.45" width="6" height="47.49" rx="1.5" fill="#0ecb81" /><line x1="297.42" y1="319.45" x2="297.42" y2="402.42" stroke="#f6465d" stroke-width="1.4" /><rect x="294.42" y="333.02" width="6" height="55.84" rx="1.5" fill="#f6465d" /><line x1="308.15" y1="377.90" x2="308.15" y2="452.00" stroke="#f6465d" stroke-width="1.4" /><rect x="305.15" y="390.42" width="6" height="53.23" rx="1.5" fill="#f6465d" /><line x1="318.89" y1="398.25" x2="318.89" y2="443.65" stroke="#0ecb81" stroke-width="1.4" /><rect x="315.89" y="423.30" width="6" height="20.35" rx="1.5" fill="#0ecb81" /><line x1="329.62" y1="379.98" x2="329.62" y2="422.78" stroke="#0ecb81" stroke-width="1.4" /><rect x="326.62" y="390.94" width="6" height="31.83" rx="1.5" fill="#0ecb81" /><line x1="340.35" y1="368.50" x2="340.35" y2="411.82" stroke="#f6465d" stroke-width="1.4" /><rect x="337.35" y="391.46" width="6" height="2.00" rx="1.5" fill="#f6465d" /><line x1="351.09" y1="381.55" x2="351.09" y2="400.86" stroke="#0ecb81" stroke-width="1.4" /><rect x="348.09" y="389.90" width="6" height="2.61" rx="1.5" fill="#0ecb81" /><line x1="361.82" y1="336.15" x2="361.82" y2="389.38" stroke="#0ecb81" stroke-width="1.4" /><rect x="358.82" y="342.41" width="6" height="46.97" rx="1.5" fill="#0ecb81" /><line x1="372.56" y1="323.10" x2="372.56" y2="365.89" stroke="#0ecb81" stroke-width="1.4" /><rect x="369.56" y="328.32" width="6" height="11.48" rx="1.5" fill="#0ecb81" /><line x1="383.29" y1="313.19" x2="383.29" y2="352.85" stroke="#0ecb81" stroke-width="1.4" /><rect x="380.29" y="317.36" width="6" height="10.96" rx="1.5" fill="#0ecb81" /><line x1="394.03" y1="284.48" x2="394.03" y2="345.54" stroke="#0ecb81" stroke-width="1.4" /><rect x="391.03" y="294.92" width="6" height="23.48" rx="1.5" fill="#0ecb81" /><line x1="404.76" y1="265.18" x2="404.76" y2="323.62" stroke="#0ecb81" stroke-width="1.4" /><rect x="401.76" y="279.27" width="6" height="15.66" rx="1.5" fill="#0ecb81" /><line x1="415.49" y1="270.92" x2="415.49" y2="303.27" stroke="#0ecb81" stroke-width="1.4" /><rect x="412.49" y="271.44" width="6" height="8.35" rx="1.5" fill="#0ecb81" /><line x1="426.23" y1="231.26" x2="426.23" y2="288.66" stroke="#0ecb81" stroke-width="1.4" /><rect x="423.23" y="252.65" width="6" height="19.31" rx="1.5" fill="#0ecb81" /><line x1="436.96" y1="203.08" x2="436.96" y2="262.05" stroke="#0ecb81" stroke-width="1.4" /><rect x="433.96" y="228.12" width="6" height="24.01" rx="1.5" fill="#0ecb81" /><line x1="447.70" y1="206.73" x2="447.70" y2="242.21" stroke="#0ecb81" stroke-width="1.4" /><rect x="444.70" y="225.52" width="6" height="2.09" rx="1.5" fill="#0ecb81" /><line x1="458.43" y1="217.69" x2="458.43" y2="297.53" stroke="#f6465d" stroke-width="1.4" /><rect x="455.43" y="225.52" width="6" height="60.01" rx="1.5" fill="#f6465d" /><line x1="469.16" y1="270.92" x2="469.16" y2="315.27" stroke="#f6465d" stroke-width="1.4" /><rect x="466.16" y="285.53" width="6" height="10.96" rx="1.5" fill="#f6465d" /><line x1="479.90" y1="279.27" x2="479.90" y2="326.23" stroke="#0ecb81" stroke-width="1.4" /><rect x="476.90" y="288.14" width="6" height="7.83" rx="1.5" fill="#0ecb81" /><line x1="490.63" y1="271.44" x2="490.63" y2="309.01" stroke="#f6465d" stroke-width="1.4" /><rect x="487.63" y="288.14" width="6" height="19.31" rx="1.5" fill="#f6465d" /><line x1="501.37" y1="251.61" x2="501.37" y2="308.49" stroke="#0ecb81" stroke-width="1.4" /><rect x="498.37" y="280.83" width="6" height="27.14" rx="1.5" fill="#0ecb81" /><line x1="512.10" y1="226.56" x2="512.10" y2="282.40" stroke="#0ecb81" stroke-width="1.4" /><rect x="509.10" y="237.00" width="6" height="44.36" rx="1.5" fill="#0ecb81" /><line x1="522.84" y1="205.16" x2="522.84" y2="243.26" stroke="#0ecb81" stroke-width="1.4" /><rect x="519.84" y="230.21" width="6" height="5.22" rx="1.5" fill="#0ecb81" /><line x1="533.57" y1="211.43" x2="533.57" y2="234.39" stroke="#0ecb81" stroke-width="1.4" /><rect x="530.57" y="223.43" width="6" height="6.26" rx="1.5" fill="#0ecb81" /><line x1="544.30" y1="161.33" x2="544.30" y2="241.69" stroke="#0ecb81" stroke-width="1.4" /><rect x="541.30" y="170.20" width="6" height="52.71" rx="1.5" fill="#0ecb81" /><line x1="555.04" y1="128.97" x2="555.04" y2="188.46" stroke="#0ecb81" stroke-width="1.4" /><rect x="552.04" y="138.37" width="6" height="31.83" rx="1.5" fill="#0ecb81" /><line x1="565.77" y1="97.14" x2="565.77" y2="144.63" stroke="#0ecb81" stroke-width="1.4" /><rect x="562.77" y="135.76" width="6" height="3.65" rx="1.5" fill="#0ecb81" /><line x1="576.51" y1="121.67" x2="576.51" y2="194.73" stroke="#f6465d" stroke-width="1.4" /><rect x="573.51" y="135.76" width="6" height="56.88" rx="1.5" fill="#f6465d" /><line x1="587.24" y1="108.10" x2="587.24" y2="194.20" stroke="#0ecb81" stroke-width="1.4" /><rect x="584.24" y="116.97" width="6" height="75.67" rx="1.5" fill="#0ecb81" /><line x1="597.97" y1="103.92" x2="597.97" y2="154.54" stroke="#f6465d" stroke-width="1.4" /><rect x="594.97" y="117.49" width="6" height="37.05" rx="1.5" fill="#f6465d" /><line x1="608.71" y1="123.23" x2="608.71" y2="170.72" stroke="#f6465d" stroke-width="1.4" /><rect x="605.71" y="154.02" width="6" height="6.26" rx="1.5" fill="#f6465d" /><line x1="619.44" y1="145.67" x2="619.44" y2="183.25" stroke="#f6465d" stroke-width="1.4" /><rect x="616.44" y="160.28" width="6" height="5.22" rx="1.5" fill="#f6465d" /><line x1="630.18" y1="165.50" x2="630.18" y2="223.43" stroke="#f6465d" stroke-width="1.4" /><rect x="627.18" y="165.50" width="6" height="18.26" rx="1.5" fill="#f6465d" /><line x1="640.91" y1="183.25" x2="640.91" y2="262.57" stroke="#f6465d" stroke-width="1.4" /><rect x="637.91" y="183.77" width="6" height="62.62" rx="1.5" fill="#f6465d" /><line x1="651.65" y1="212.47" x2="651.65" y2="252.13" stroke="#0ecb81" stroke-width="1.4" /><rect x="648.65" y="222.91" width="6" height="22.96" rx="1.5" fill="#0ecb81" /><line x1="662.38" y1="217.69" x2="662.38" y2="286.05" stroke="#f6465d" stroke-width="1.4" /><rect x="659.38" y="222.91" width="6" height="50.10" rx="1.5" fill="#f6465d" /><line x1="673.11" y1="242.21" x2="673.11" y2="281.88" stroke="#0ecb81" stroke-width="1.4" /><rect x="670.11" y="250.56" width="6" height="24.01" rx="1.5" fill="#0ecb81" /><line x1="683.85" y1="249.52" x2="683.85" y2="313.71" stroke="#f6465d" stroke-width="1.4" /><rect x="680.85" y="251.09" width="6" height="49.58" rx="1.5" fill="#f6465d" /><line x1="694.58" y1="271.96" x2="694.58" y2="320.49" stroke="#0ecb81" stroke-width="1.4" /><rect x="691.58" y="276.14" width="6" height="25.05" rx="1.5" fill="#0ecb81" /><line x1="705.32" y1="257.35" x2="705.32" y2="282.92" stroke="#0ecb81" stroke-width="1.4" /><rect x="702.32" y="262.05" width="6" height="14.09" rx="1.5" fill="#0ecb81" /><line x1="716.05" y1="257.35" x2="716.05" y2="295.44" stroke="#f6465d" stroke-width="1.4" /><rect x="713.05" y="262.05" width="6" height="27.66" rx="1.5" fill="#f6465d" /><line x1="726.78" y1="244.30" x2="726.78" y2="297.01" stroke="#0ecb81" stroke-width="1.4" /><rect x="723.78" y="277.70" width="6" height="12.52" rx="1.5" fill="#0ecb81" /><line x1="737.52" y1="276.14" x2="737.52" y2="317.36" stroke="#f6465d" stroke-width="1.4" /><rect x="734.52" y="279.27" width="6" height="13.57" rx="1.5" fill="#f6465d" /><line x1="748.25" y1="244.30" x2="748.25" y2="298.57" stroke="#0ecb81" stroke-width="1.4" /><rect x="745.25" y="245.87" width="6" height="46.45" rx="1.5" fill="#0ecb81" /><line x1="758.99" y1="198.38" x2="758.99" y2="269.35" stroke="#f6465d" stroke-width="1.4" /><rect x="755.99" y="245.87" width="6" height="5.22" rx="1.5" fill="#f6465d" /><line x1="769.72" y1="231.78" x2="769.72" y2="265.70" stroke="#f6465d" stroke-width="1.4" /><rect x="766.72" y="251.09" width="6" height="3.65" rx="1.5" fill="#f6465d" /><line x1="780.46" y1="234.91" x2="780.46" y2="273.00" stroke="#0ecb81" stroke-width="1.4" /><rect x="777.46" y="244.30" width="6" height="11.48" rx="1.5" fill="#0ecb81" /><line x1="791.19" y1="240.13" x2="791.19" y2="266.22" stroke="#f6465d" stroke-width="1.4" /><rect x="788.19" y="243.78" width="6" height="18.26" rx="1.5" fill="#f6465d" /><line x1="801.92" y1="257.35" x2="801.92" y2="323.62" stroke="#f6465d" stroke-width="1.4" /><rect x="798.92" y="262.57" width="6" height="42.27" rx="1.5" fill="#f6465d" /><line x1="812.66" y1="252.13" x2="812.66" y2="303.79" stroke="#0ecb81" stroke-width="1.4" /><rect x="809.66" y="279.27" width="6" height="24.53" rx="1.5" fill="#0ecb81" /><line x1="823.39" y1="251.61" x2="823.39" y2="286.57" stroke="#0ecb81" stroke-width="1.4" /><rect x="820.39" y="277.18" width="6" height="2.09" rx="1.5" fill="#0ecb81" /><line x1="834.13" y1="261.00" x2="834.13" y2="293.88" stroke="#f6465d" stroke-width="1.4" /><rect x="831.13" y="276.14" width="6" height="10.96" rx="1.5" fill="#f6465d" /><line x1="844.86" y1="238.04" x2="844.86" y2="287.09" stroke="#0ecb81" stroke-width="1.4" /><rect x="841.86" y="251.61" width="6" height="35.49" rx="1.5" fill="#0ecb81" /><line x1="855.59" y1="239.61" x2="855.59" y2="261.52" stroke="#f6465d" stroke-width="1.4" /><rect x="852.59" y="250.56" width="6" height="4.17" rx="1.5" fill="#f6465d" /><line x1="866.33" y1="251.09" x2="866.33" y2="279.27" stroke="#f6465d" stroke-width="1.4" /><rect x="863.33" y="254.22" width="6" height="20.87" rx="1.5" fill="#f6465d" /><line x1="877.06" y1="223.95" x2="877.06" y2="279.27" stroke="#0ecb81" stroke-width="1.4" /><rect x="874.06" y="233.34" width="6" height="42.27" rx="1.5" fill="#0ecb81" /><line x1="887.80" y1="231.78" x2="887.80" y2="268.31" stroke="#f6465d" stroke-width="1.4" /><rect x="884.80" y="232.82" width="6" height="19.31" rx="1.5" fill="#f6465d" /><line x1="898.53" y1="217.69" x2="898.53" y2="266.74" stroke="#0ecb81" stroke-width="1.4" /><rect x="895.53" y="252.13" width="6" height="2.00" rx="1.5" fill="#0ecb81" /><line x1="909.27" y1="232.82" x2="909.27" y2="261.52" stroke="#f6465d" stroke-width="1.4" /><rect x="906.27" y="252.13" width="6" height="2.00" rx="1.5" fill="#f6465d" /><line x1="920.00" y1="222.38" x2="920.00" y2="274.57" stroke="#0ecb81" stroke-width="1.4" /><rect x="917.00" y="224.47" width="6" height="27.66" rx="1.5" fill="#0ecb81" />
  <polyline points="297.42,319.45 308.15,452.00 436.96,203.08 479.90,326.23 565.77,97.14" fill="none" stroke="#2fc273" stroke-width="4" stroke-linecap="round" stroke-linejoin="round" />
  <circle cx="297.42" cy="319.45" r="5.5" fill="#2fc273" fill-opacity="0.15" stroke="#2fc273" stroke-width="2" /><text x="297.42" y="307.45" fill="#f3f4f6" font-size="15" font-weight="700" text-anchor="middle">X</text><circle cx="308.15" cy="452.00" r="5.5" fill="#2fc273" fill-opacity="0.15" stroke="#2fc273" stroke-width="2" /><text x="308.15" y="440.00" fill="#f3f4f6" font-size="15" font-weight="700" text-anchor="middle">A</text><circle cx="436.96" cy="203.08" r="5.5" fill="#2fc273" fill-opacity="0.15" stroke="#2fc273" stroke-width="2" /><text x="436.96" y="191.08" fill="#f3f4f6" font-size="15" font-weight="700" text-anchor="middle">B</text><circle cx="479.90" cy="326.23" r="5.5" fill="#2fc273" fill-opacity="0.15" stroke="#2fc273" stroke-width="2" /><text x="479.90" y="314.23" fill="#f3f4f6" font-size="15" font-weight="700" text-anchor="middle">C</text><circle cx="565.77" cy="97.14" r="5.5" fill="#2fc273" fill-opacity="0.15" stroke="#2fc273" stroke-width="2" /><text x="565.77" y="85.14" fill="#f3f4f6" font-size="15" font-weight="700" text-anchor="middle">D</text>
  <text x="56" y="492" fill="#8ba0b5" font-size="18">일반 완성 · TP1 0.89723 · TP2 0.88687 · SL 0.9173</text>
</svg>
