<svg xmlns="http://www.w3.org/2000/svg" width="960" height="540" viewBox="0 0 960 540">
  <rect width="960" height="540" rx="24" fill="#0b1220" />
  <rect x="28" y="28" width="904" height="484" rx="22" fill="#111827" stroke="#1f2937" />
  <text x="56" y="74" fill="#f3f4f6" font-size="34" font-weight="700">EDGEUSDT · AB=CD</text>
  <text x="904" y="74" fill="#8ba0b5" font-size="20" text-anchor="end">Bearish (매도) · Score 83.4</text>
  <line x1="72" y1="58" x2="920" y2="58" stroke="#223045" stroke-width="1" stroke-dasharray="4 8" /><line x1="72" y1="156" x2="920" y2="156" stroke="#223045" stroke-width="1" stroke-dasharray="4 8" /><line x1="72" y1="255" x2="920" y2="255" stroke="#223045" stroke-width="1" stroke-dasharray="4 8" /><line x1="72" y1="353" x2="920" y2="353" stroke="#223045" stroke-width="1" stroke-dasharray="4 8" /><line x1="72" y1="452" x2="920" y2="452" stroke="#223045" stroke-width="1" stroke-dasharray="4 8" />
  <rect x="709.52" y="186.83" width="84" height="16.79" fill="#fbbf24" fill-opacity="0.12" stroke="#fbbf24" stroke-width="1.5" stroke-dasharray="6 6" />
  <line x1="72.00" y1="132.40" x2="72.00" y2="200.94" stroke="#0ecb81" stroke-width="1.4" /><rect x="69.00" y="152.19" width="6" height="30.42" rx="1.5" fill="#0ecb81" /><line x1="82.73" y1="121.04" x2="82.73" y2="178.22" stroke="#0ecb81" stroke-width="1.4" /><rect x="79.73" y="137.17" width="6" height="15.03" rx="1.5" fill="#0ecb81" /><line x1="93.47" y1="74.49" x2="93.47" y2="151.09" stroke="#0ecb81" stroke-width="1.4" /><rect x="90.47" y="75.96" width="6" height="60.84" rx="1.5" fill="#0ecb81" /><line x1="104.20" y1="58.00" x2="104.20" y2="95.02" stroke="#0ecb81" stroke-width="1.4" /><rect x="101.20" y="73.03" width="6" height="3.67" rx="1.5" fill="#0ecb81" /><line x1="114.94" y1="61.30" x2="114.94" y2="117.01" stroke="#f6465d" stroke-width="1.4" /><rect x="111.94" y="72.66" width="6" height="30.05" rx="1.5" fill="#f6465d" /><line x1="125.67" y1="83.66" x2="125.67" y2="114.81" stroke="#0ecb81" stroke-width="1.4" /><rect x="122.67" y="91.72" width="6" height="10.26" rx="1.5" fill="#0ecb81" /><line x1="136.41" y1="83.66" x2="136.41" y2="150.73" stroke="#f6465d" stroke-width="1.4" /><rect x="133.41" y="92.09" width="6" height="46.18" rx="1.5" fill="#f6465d" /><line x1="147.14" y1="137.53" x2="147.14" y2="208.27" stroke="#f6465d" stroke-width="1.4" /><rect x="144.14" y="138.27" width="6" height="37.75" rx="1.5" fill="#f6465d" /><line x1="157.87" y1="154.76" x2="157.87" y2="185.91" stroke="#0ecb81" stroke-width="1.4" /><rect x="154.87" y="169.42" width="6" height="6.23" rx="1.5" fill="#0ecb81" /><line x1="168.61" y1="141.20" x2="168.61" y2="169.05" stroke="#0ecb81" stroke-width="1.4" /><rect x="165.61" y="152.93" width="6" height="15.39" rx="1.5" fill="#0ecb81" /><line x1="179.34" y1="136.07" x2="179.34" y2="194.34" stroke="#f6465d" stroke-width="1.4" /><rect x="176.34" y="153.66" width="6" height="34.09" rx="1.5" fill="#f6465d" /><line x1="190.08" y1="149.63" x2="190.08" y2="191.04" stroke="#0ecb81" stroke-width="1.4" /><rect x="187.08" y="156.23" width="6" height="30.79" rx="1.5" fill="#0ecb81" /><line x1="200.81" y1="133.13" x2="200.81" y2="178.22" stroke="#f6465d" stroke-width="1.4" /><rect x="197.81" y="157.69" width="6" height="15.76" rx="1.5" fill="#f6465d" /><line x1="211.54" y1="164.29" x2="211.54" y2="280.47" stroke="#f6465d" stroke-width="1.4" /><rect x="208.54" y="173.45" width="6" height="36.65" rx="1.5" fill="#f6465d" /><line x1="222.28" y1="129.84" x2="222.28" y2="210.84" stroke="#0ecb81" stroke-width="1.4" /><rect x="219.28" y="169.79" width="6" height="40.32" rx="1.5" fill="#0ecb81" /><line x1="233.01" y1="162.82" x2="233.01" y2="209.37" stroke="#f6465d" stroke-width="1.4" /><rect x="230.01" y="170.15" width="6" height="35.92" rx="1.5" fill="#f6465d" /><line x1="243.75" y1="193.61" x2="243.75" y2="247.85" stroke="#f6465d" stroke-width="1.4" /><rect x="240.75" y="206.07" width="6" height="4.76" rx="1.5" fill="#f6465d" /><line x1="254.48" y1="190.31" x2="254.48" y2="216.70" stroke="#0ecb81" stroke-width="1.4" /><rect x="251.48" y="201.31" width="6" height="9.53" rx="1.5" fill="#0ecb81" /><line x1="265.22" y1="175.28" x2="265.22" y2="206.80" stroke="#0ecb81" stroke-width="1.4" /><rect x="262.22" y="196.91" width="6" height="4.76" rx="1.5" fill="#0ecb81" /><line x1="275.95" y1="189.58" x2="275.95" y2="227.69" stroke="#f6465d" stroke-width="1.4" /><rect x="272.95" y="197.27" width="6" height="10.26" rx="1.5" fill="#f6465d" /><line x1="286.68" y1="200.57" x2="286.68" y2="246.75" stroke="#f6465d" stroke-width="1.4" /><rect x="283.68" y="207.90" width="6" height="23.09" rx="1.5" fill="#f6465d" /><line x1="297.42" y1="213.77" x2="297.42" y2="235.39" stroke="#0ecb81" stroke-width="1.4" /><rect x="294.42" y="222.93" width="6" height="8.43" rx="1.5" fill="#0ecb81" /><line x1="308.15" y1="217.80" x2="308.15" y2="254.08" stroke="#f6465d" stroke-width="1.4" /><rect x="305.15" y="223.66" width="6" height="26.39" rx="1.5" fill="#f6465d" /><line x1="318.89" y1="237.59" x2="318.89" y2="255.18" stroke="#0ecb81" stroke-width="1.4" /><rect x="315.89" y="244.92" width="6" height="4.76" rx="1.5" fill="#0ecb81" /><line x1="329.62" y1="210.10" x2="329.62" y2="245.29" stroke="#0ecb81" stroke-width="1.4" /><rect x="326.62" y="231.36" width="6" height="13.19" rx="1.5" fill="#0ecb81" /><line x1="340.35" y1="207.17" x2="340.35" y2="240.52" stroke="#0ecb81" stroke-width="1.4" /><rect x="337.35" y="227.69" width="6" height="4.03" rx="1.5" fill="#0ecb81" /><line x1="351.09" y1="212.30" x2="351.09" y2="248.95" stroke="#0ecb81" stroke-width="1.4" /><rect x="348.09" y="226.60" width="6" height="2.00" rx="1.5" fill="#0ecb81" /><line x1="361.82" y1="224.76" x2="361.82" y2="281.57" stroke="#f6465d" stroke-width="1.4" /><rect x="358.82" y="226.60" width="6" height="27.49" rx="1.5" fill="#f6465d" /><line x1="372.56" y1="247.85" x2="372.56" y2="313.46" stroke="#f6465d" stroke-width="1.4" /><rect x="369.56" y="254.08" width="6" height="49.85" rx="1.5" fill="#f6465d" /><line x1="383.29" y1="283.77" x2="383.29" y2="364.04" stroke="#f6465d" stroke-width="1.4" /><rect x="380.29" y="304.66" width="6" height="42.15" rx="1.5" fill="#f6465d" /><line x1="394.03" y1="307.59" x2="394.03" y2="360.74" stroke="#f6465d" stroke-width="1.4" /><rect x="391.03" y="348.28" width="6" height="3.30" rx="1.5" fill="#f6465d" /><line x1="404.76" y1="350.84" x2="404.76" y2="425.61" stroke="#f6465d" stroke-width="1.4" /><rect x="401.76" y="351.58" width="6" height="36.65" rx="1.5" fill="#f6465d" /><line x1="415.49" y1="354.87" x2="415.49" y2="406.55" stroke="#f6465d" stroke-width="1.4" /><rect x="412.49" y="388.59" width="6" height="4.03" rx="1.5" fill="#f6465d" /><line x1="426.23" y1="357.81" x2="426.23" y2="399.59" stroke="#0ecb81" stroke-width="1.4" /><rect x="423.23" y="373.93" width="6" height="19.06" rx="1.5" fill="#0ecb81" /><line x1="436.96" y1="369.53" x2="436.96" y2="400.69" stroke="#f6465d" stroke-width="1.4" /><rect x="433.96" y="374.30" width="6" height="26.02" rx="1.5" fill="#f6465d" /><line x1="447.70" y1="393.72" x2="447.70" y2="430.01" stroke="#f6465d" stroke-width="1.4" /><rect x="444.70" y="400.32" width="6" height="2.00" rx="1.5" fill="#f6465d" /><line x1="458.43" y1="362.20" x2="458.43" y2="406.92" stroke="#0ecb81" stroke-width="1.4" /><rect x="455.43" y="367.34" width="6" height="33.35" rx="1.5" fill="#0ecb81" /><line x1="469.16" y1="358.91" x2="469.16" y2="417.18" stroke="#f6465d" stroke-width="1.4" /><rect x="466.16" y="368.44" width="6" height="39.22" rx="1.5" fill="#f6465d" /><line x1="479.90" y1="399.96" x2="479.90" y2="452.00" stroke="#f6465d" stroke-width="1.4" /><rect x="476.90" y="408.75" width="6" height="37.38" rx="1.5" fill="#f6465d" /><line x1="490.63" y1="414.25" x2="490.63" y2="446.14" stroke="#0ecb81" stroke-width="1.4" /><rect x="487.63" y="431.84" width="6" height="14.29" rx="1.5" fill="#0ecb81" /><line x1="501.37" y1="401.42" x2="501.37" y2="431.48" stroke="#0ecb81" stroke-width="1.4" /><rect x="498.37" y="409.12" width="6" height="22.36" rx="1.5" fill="#0ecb81" /><line x1="512.10" y1="393.36" x2="512.10" y2="423.78" stroke="#f6465d" stroke-width="1.4" /><rect x="509.10" y="409.48" width="6" height="2.00" rx="1.5" fill="#f6465d" /><line x1="522.84" y1="402.52" x2="522.84" y2="416.08" stroke="#0ecb81" stroke-width="1.4" /><rect x="519.84" y="408.39" width="6" height="2.00" rx="1.5" fill="#0ecb81" /><line x1="533.57" y1="370.63" x2="533.57" y2="408.02" stroke="#0ecb81" stroke-width="1.4" /><rect x="530.57" y="375.03" width="6" height="32.99" rx="1.5" fill="#0ecb81" /><line x1="544.30" y1="361.47" x2="544.30" y2="391.53" stroke="#0ecb81" stroke-width="1.4" /><rect x="541.30" y="365.14" width="6" height="8.06" rx="1.5" fill="#0ecb81" /><line x1="555.04" y1="354.51" x2="555.04" y2="382.36" stroke="#0ecb81" stroke-width="1.4" /><rect x="552.04" y="357.44" width="6" height="7.70" rx="1.5" fill="#0ecb81" /><line x1="565.77" y1="334.35" x2="565.77" y2="377.23" stroke="#0ecb81" stroke-width="1.4" /><rect x="562.77" y="341.68" width="6" height="16.49" rx="1.5" fill="#0ecb81" /><line x1="576.51" y1="320.79" x2="576.51" y2="361.84" stroke="#0ecb81" stroke-width="1.4" /><rect x="573.51" y="330.68" width="6" height="11.00" rx="1.5" fill="#0ecb81" /><line x1="587.24" y1="324.82" x2="587.24" y2="347.54" stroke="#0ecb81" stroke-width="1.4" /><rect x="584.24" y="325.19" width="6" height="5.86" rx="1.5" fill="#0ecb81" /><line x1="597.97" y1="296.97" x2="597.97" y2="337.28" stroke="#0ecb81" stroke-width="1.4" /><rect x="594.97" y="311.99" width="6" height="13.56" rx="1.5" fill="#0ecb81" /><line x1="608.71" y1="277.17" x2="608.71" y2="318.59" stroke="#0ecb81" stroke-width="1.4" /><rect x="605.71" y="294.77" width="6" height="16.86" rx="1.5" fill="#0ecb81" /><line x1="619.44" y1="279.74" x2="619.44" y2="304.66" stroke="#0ecb81" stroke-width="1.4" /><rect x="616.44" y="292.93" width="6" height="2.00" rx="1.5" fill="#0ecb81" /><line x1="630.18" y1="287.44" x2="630.18" y2="343.51" stroke="#f6465d" stroke-width="1.4" /><rect x="627.18" y="292.93" width="6" height="42.15" rx="1.5" fill="#f6465d" /><line x1="640.91" y1="324.82" x2="640.91" y2="355.97" stroke="#f6465d" stroke-width="1.4" /><rect x="637.91" y="335.08" width="6" height="7.70" rx="1.5" fill="#f6465d" /><line x1="651.65" y1="330.68" x2="651.65" y2="363.67" stroke="#0ecb81" stroke-width="1.4" /><rect x="648.65" y="336.92" width="6" height="5.50" rx="1.5" fill="#0ecb81" /><line x1="662.38" y1="325.19" x2="662.38" y2="351.58" stroke="#f6465d" stroke-width="1.4" /><rect x="659.38" y="336.92" width="6" height="13.56" rx="1.5" fill="#f6465d" /><line x1="673.11" y1="311.26" x2="673.11" y2="351.21" stroke="#0ecb81" stroke-width="1.4" /><rect x="670.11" y="331.78" width="6" height="19.06" rx="1.5" fill="#0ecb81" /><line x1="683.85" y1="293.67" x2="683.85" y2="332.88" stroke="#0ecb81" stroke-width="1.4" /><rect x="680.85" y="301.00" width="6" height="31.15" rx="1.5" fill="#0ecb81" /><line x1="694.58" y1="278.64" x2="694.58" y2="305.40" stroke="#0ecb81" stroke-width="1.4" /><rect x="691.58" y="296.23" width="6" height="3.67" rx="1.5" fill="#0ecb81" /><line x1="705.32" y1="283.04" x2="705.32" y2="299.16" stroke="#0ecb81" stroke-width="1.4" /><rect x="702.32" y="291.47" width="6" height="4.40" rx="1.5" fill="#0ecb81" /><line x1="716.05" y1="247.85" x2="716.05" y2="304.30" stroke="#0ecb81" stroke-width="1.4" /><rect x="713.05" y="254.08" width="6" height="37.02" rx="1.5" fill="#0ecb81" /><line x1="726.78" y1="225.13" x2="726.78" y2="266.91" stroke="#0ecb81" stroke-width="1.4" /><rect x="723.78" y="231.73" width="6" height="22.36" rx="1.5" fill="#0ecb81" /><line x1="737.52" y1="202.77" x2="737.52" y2="236.12" stroke="#0ecb81" stroke-width="1.4" /><rect x="734.52" y="229.89" width="6" height="2.57" rx="1.5" fill="#0ecb81" /><line x1="748.25" y1="220.00" x2="748.25" y2="271.31" stroke="#f6465d" stroke-width="1.4" /><rect x="745.25" y="229.89" width="6" height="39.95" rx="1.5" fill="#f6465d" /><line x1="758.99" y1="210.47" x2="758.99" y2="270.94" stroke="#0ecb81" stroke-width="1.4" /><rect x="755.99" y="216.70" width="6" height="53.14" rx="1.5" fill="#0ecb81" /><line x1="769.72" y1="207.54" x2="769.72" y2="243.09" stroke="#f6465d" stroke-width="1.4" /><rect x="766.72" y="217.07" width="6" height="26.02" rx="1.5" fill="#f6465d" /><line x1="780.46" y1="221.10" x2="780.46" y2="254.45" stroke="#f6465d" stroke-width="1.4" /><rect x="777.46" y="242.72" width="6" height="4.40" rx="1.5" fill="#f6465d" /><line x1="791.19" y1="236.86" x2="791.19" y2="263.25" stroke="#f6465d" stroke-width="1.4" /><rect x="788.19" y="247.12" width="6" height="3.67" rx="1.5" fill="#f6465d" /><line x1="801.92" y1="250.79" x2="801.92" y2="291.47" stroke="#f6465d" stroke-width="1.4" /><rect x="798.92" y="250.79" width="6" height="12.83" rx="1.5" fill="#f6465d" /><line x1="812.66" y1="263.25" x2="812.66" y2="318.96" stroke="#f6465d" stroke-width="1.4" /><rect x="809.66" y="263.61" width="6" height="43.98" rx="1.5" fill="#f6465d" /><line x1="823.39" y1="283.77" x2="823.39" y2="311.63" stroke="#0ecb81" stroke-width="1.4" /><rect x="820.39" y="291.10" width="6" height="16.13" rx="1.5" fill="#0ecb81" /><line x1="834.13" y1="287.44" x2="834.13" y2="335.45" stroke="#f6465d" stroke-width="1.4" /><rect x="831.13" y="291.10" width="6" height="35.19" rx="1.5" fill="#f6465d" /><line x1="844.86" y1="304.66" x2="844.86" y2="332.52" stroke="#0ecb81" stroke-width="1.4" /><rect x="841.86" y="310.53" width="6" height="16.86" rx="1.5" fill="#0ecb81" /><line x1="855.59" y1="309.79" x2="855.59" y2="354.87" stroke="#f6465d" stroke-width="1.4" /><rect x="852.59" y="310.89" width="6" height="34.82" rx="1.5" fill="#f6465d" /><line x1="866.33" y1="325.55" x2="866.33" y2="359.64" stroke="#0ecb81" stroke-width="1.4" /><rect x="863.33" y="328.49" width="6" height="17.59" rx="1.5" fill="#0ecb81" /><line x1="877.06" y1="315.29" x2="877.06" y2="333.25" stroke="#0ecb81" stroke-width="1.4" /><rect x="874.06" y="318.59" width="6" height="9.90" rx="1.5" fill="#0ecb81" /><line x1="887.80" y1="315.29" x2="887.80" y2="342.05" stroke="#f6465d" stroke-width="1.4" /><rect x="884.80" y="318.59" width="6" height="19.43" rx="1.5" fill="#f6465d" /><line x1="898.53" y1="306.13" x2="898.53" y2="343.15" stroke="#0ecb81" stroke-width="1.4" /><rect x="895.53" y="329.59" width="6" height="8.80" rx="1.5" fill="#0ecb81" /><line x1="909.27" y1="328.49" x2="909.27" y2="357.44" stroke="#f6465d" stroke-width="1.4" /><rect x="906.27" y="330.68" width="6" height="9.53" rx="1.5" fill="#f6465d" /><line x1="920.00" y1="337.65" x2="920.00" y2="344.25" stroke="#0ecb81" stroke-width="1.4" /><rect x="917.00" y="338.75" width="6" height="2.00" rx="1.5" fill="#0ecb81" />
  <polyline points="469.16,358.91 479.90,452.00 608.71,277.17 651.65,363.67 737.52,202.77" fill="none" stroke="#2fc273" stroke-width="4" stroke-linecap="round" stroke-linejoin="round" />
  <circle cx="469.16" cy="358.91" r="5.5" fill="#2fc273" fill-opacity="0.15" stroke="#2fc273" stroke-width="2" /><text x="469.16" y="346.91" fill="#f3f4f6" font-size="15" font-weight="700" text-anchor="middle">X</text><circle cx="479.90" cy="452.00" r="5.5" fill="#2fc273" fill-opacity="0.15" stroke="#2fc273" stroke-width="2" /><text x="479.90" y="440.00" fill="#f3f4f6" font-size="15" font-weight="700" text-anchor="middle">A</text><circle cx="608.71" cy="277.17" r="5.5" fill="#2fc273" fill-opacity="0.15" stroke="#2fc273" stroke-width="2" /><text x="608.71" y="265.17" fill="#f3f4f6" font-size="15" font-weight="700" text-anchor="middle">B</text><circle cx="651.65" cy="363.67" r="5.5" fill="#2fc273" fill-opacity="0.15" stroke="#2fc273" stroke-width="2" /><text x="651.65" y="351.67" fill="#f3f4f6" font-size="15" font-weight="700" text-anchor="middle">C</text><circle cx="737.52" cy="202.77" r="5.5" fill="#2fc273" fill-opacity="0.15" stroke="#2fc273" stroke-width="2" /><text x="737.52" y="190.77" fill="#f3f4f6" font-size="15" font-weight="700" text-anchor="middle">D</text>
  <text x="56" y="492" fill="#8ba0b5" font-size="18">일반 완성 · TP1 0.89723 · TP2 0.88687 · SL 0.9173</text>
</svg>
