<svg xmlns="http://www.w3.org/2000/svg" width="960" height="540" viewBox="0 0 960 540">
  <rect width="960" height="540" rx="24" fill="#0b1220" />
  <rect x="28" y="28" width="904" height="484" rx="22" fill="#111827" stroke="#1f2937" />
  <text x="56" y="74" fill="#f3f4f6" font-size="34" font-weight="700">ETHUSDT · AB=CD</text>
  <text x="904" y="74" fill="#8ba0b5" font-size="20" text-anchor="end">Bearish (매도) · Score 83.6</text>
  <line x1="72" y1="58" x2="920" y2="58" stroke="#223045" stroke-width="1" stroke-dasharray="4 8" /><line x1="72" y1="156" x2="920" y2="156" stroke="#223045" stroke-width="1" stroke-dasharray="4 8" /><line x1="72" y1="255" x2="920" y2="255" stroke="#223045" stroke-width="1" stroke-dasharray="4 8" /><line x1="72" y1="353" x2="920" y2="353" stroke="#223045" stroke-width="1" stroke-dasharray="4 8" /><line x1="72" y1="452" x2="920" y2="452" stroke="#223045" stroke-width="1" stroke-dasharray="4 8" />
  <rect x="827.59" y="171.93" width="84" height="138.48" fill="#fbbf24" fill-opacity="0.12" stroke="#fbbf24" stroke-width="1.5" stroke-dasharray="6 6" />
  <line x1="72.00" y1="89.62" x2="72.00" y2="122.38" stroke="#f6465d" stroke-width="1.4" /><rect x="69.00" y="91.42" width="6" height="25.77" rx="1.5" fill="#f6465d" /><line x1="82.73" y1="111.05" x2="82.73" y2="170.90" stroke="#f6465d" stroke-width="1.4" /><rect x="79.73" y="117.09" width="6" height="6.89" rx="1.5" fill="#f6465d" /><line x1="93.47" y1="111.24" x2="93.47" y2="137.20" stroke="#f6465d" stroke-width="1.4" /><rect x="90.47" y="123.98" width="6" height="3.40" rx="1.5" fill="#f6465d" /><line x1="104.20" y1="102.55" x2="104.20" y2="127.47" stroke="#0ecb81" stroke-width="1.4" /><rect x="101.20" y="118.32" width="6" height="9.06" rx="1.5" fill="#0ecb81" /><line x1="114.94" y1="105.29" x2="114.94" y2="125.96" stroke="#0ecb81" stroke-width="1.4" /><rect x="111.94" y="114.83" width="6" height="3.49" rx="1.5" fill="#0ecb81" /><line x1="125.67" y1="95.38" x2="125.67" y2="114.92" stroke="#0ecb81" stroke-width="1.4" /><rect x="122.67" y="95.38" width="6" height="19.45" rx="1.5" fill="#0ecb81" /><line x1="136.41" y1="77.07" x2="136.41" y2="95.38" stroke="#0ecb81" stroke-width="1.4" /><rect x="133.41" y="87.73" width="6" height="7.65" rx="1.5" fill="#0ecb81" /><line x1="147.14" y1="67.72" x2="147.14" y2="91.70" stroke="#f6465d" stroke-width="1.4" /><rect x="144.14" y="87.64" width="6" height="4.06" rx="1.5" fill="#f6465d" /><line x1="157.87" y1="59.98" x2="157.87" y2="95.00" stroke="#0ecb81" stroke-width="1.4" /><rect x="154.87" y="64.42" width="6" height="27.19" rx="1.5" fill="#0ecb81" /><line x1="168.61" y1="62.53" x2="168.61" y2="75.09" stroke="#f6465d" stroke-width="1.4" /><rect x="165.61" y="64.42" width="6" height="2.00" rx="1.5" fill="#f6465d" /><line x1="179.34" y1="58.00" x2="179.34" y2="79.52" stroke="#f6465d" stroke-width="1.4" /><rect x="176.34" y="65.83" width="6" height="6.89" rx="1.5" fill="#f6465d" /><line x1="190.08" y1="72.73" x2="190.08" y2="93.68" stroke="#f6465d" stroke-width="1.4" /><rect x="187.08" y="72.73" width="6" height="18.97" rx="1.5" fill="#f6465d" /><line x1="200.81" y1="85.47" x2="200.81" y2="116.71" stroke="#f6465d" stroke-width="1.4" /><rect x="197.81" y="91.60" width="6" height="19.63" rx="1.5" fill="#f6465d" /><line x1="211.54" y1="99.06" x2="211.54" y2="123.89" stroke="#f6465d" stroke-width="1.4" /><rect x="208.54" y="111.14" width="6" height="6.89" rx="1.5" fill="#f6465d" /><line x1="222.28" y1="85.56" x2="222.28" y2="121.34" stroke="#0ecb81" stroke-width="1.4" /><rect x="219.28" y="92.08" width="6" height="26.05" rx="1.5" fill="#0ecb81" /><line x1="233.01" y1="85.47" x2="233.01" y2="101.14" stroke="#f6465d" stroke-width="1.4" /><rect x="230.01" y="92.08" width="6" height="2.08" rx="1.5" fill="#f6465d" /><line x1="243.75" y1="78.29" x2="243.75" y2="94.91" stroke="#f6465d" stroke-width="1.4" /><rect x="240.75" y="94.06" width="6" height="2.00" rx="1.5" fill="#f6465d" /><line x1="254.48" y1="80.18" x2="254.48" y2="102.18" stroke="#f6465d" stroke-width="1.4" /><rect x="251.48" y="94.81" width="6" height="3.59" rx="1.5" fill="#f6465d" /><line x1="265.22" y1="90.00" x2="265.22" y2="104.35" stroke="#f6465d" stroke-width="1.4" /><rect x="262.22" y="98.40" width="6" height="4.34" rx="1.5" fill="#f6465d" /><line x1="275.95" y1="93.21" x2="275.95" y2="109.07" stroke="#0ecb81" stroke-width="1.4" /><rect x="272.95" y="94.44" width="6" height="8.21" rx="1.5" fill="#0ecb81" /><line x1="286.68" y1="94.44" x2="286.68" y2="139.37" stroke="#f6465d" stroke-width="1.4" /><rect x="283.68" y="94.44" width="6" height="31.62" rx="1.5" fill="#f6465d" /><line x1="297.42" y1="104.54" x2="297.42" y2="128.80" stroke="#0ecb81" stroke-width="1.4" /><rect x="294.42" y="106.24" width="6" height="19.82" rx="1.5" fill="#0ecb81" /><line x1="308.15" y1="104.54" x2="308.15" y2="126.25" stroke="#f6465d" stroke-width="1.4" /><rect x="305.15" y="106.24" width="6" height="7.08" rx="1.5" fill="#f6465d" /><line x1="318.89" y1="100.10" x2="318.89" y2="129.36" stroke="#f6465d" stroke-width="1.4" /><rect x="315.89" y="113.31" width="6" height="14.35" rx="1.5" fill="#f6465d" /><line x1="329.62" y1="111.71" x2="329.62" y2="142.01" stroke="#f6465d" stroke-width="1.4" /><rect x="326.62" y="127.66" width="6" height="3.30" rx="1.5" fill="#f6465d" /><line x1="340.35" y1="106.24" x2="340.35" y2="131.06" stroke="#0ecb81" stroke-width="1.4" /><rect x="337.35" y="111.52" width="6" height="19.54" rx="1.5" fill="#0ecb81" /><line x1="351.09" y1="102.55" x2="351.09" y2="118.03" stroke="#f6465d" stroke-width="1.4" /><rect x="348.09" y="111.52" width="6" height="2.00" rx="1.5" fill="#f6465d" /><line x1="361.82" y1="113.41" x2="361.82" y2="130.97" stroke="#f6465d" stroke-width="1.4" /><rect x="358.82" y="113.41" width="6" height="14.54" rx="1.5" fill="#f6465d" /><line x1="372.56" y1="121.06" x2="372.56" y2="157.96" stroke="#f6465d" stroke-width="1.4" /><rect x="369.56" y="127.85" width="6" height="5.95" rx="1.5" fill="#f6465d" /><line x1="383.29" y1="129.46" x2="383.29" y2="146.82" stroke="#0ecb81" stroke-width="1.4" /><rect x="380.29" y="132.85" width="6" height="2.00" rx="1.5" fill="#0ecb81" /><line x1="394.03" y1="132.85" x2="394.03" y2="154.75" stroke="#f6465d" stroke-width="1.4" /><rect x="391.03" y="132.85" width="6" height="19.16" rx="1.5" fill="#f6465d" /><line x1="404.76" y1="146.45" x2="404.76" y2="177.79" stroke="#0ecb81" stroke-width="1.4" /><rect x="401.76" y="149.37" width="6" height="2.55" rx="1.5" fill="#0ecb81" /><line x1="415.49" y1="104.35" x2="415.49" y2="149.47" stroke="#0ecb81" stroke-width="1.4" /><rect x="412.49" y="112.09" width="6" height="37.29" rx="1.5" fill="#0ecb81" /><line x1="426.23" y1="96.98" x2="426.23" y2="125.68" stroke="#0ecb81" stroke-width="1.4" /><rect x="423.23" y="104.06" width="6" height="7.93" rx="1.5" fill="#0ecb81" /><line x1="436.96" y1="104.06" x2="436.96" y2="124.83" stroke="#f6465d" stroke-width="1.4" /><rect x="433.96" y="104.16" width="6" height="16.99" rx="1.5" fill="#f6465d" /><line x1="447.70" y1="93.68" x2="447.70" y2="127.10" stroke="#0ecb81" stroke-width="1.4" /><rect x="444.70" y="93.68" width="6" height="27.47" rx="1.5" fill="#0ecb81" /><line x1="458.43" y1="93.68" x2="458.43" y2="109.92" stroke="#f6465d" stroke-width="1.4" /><rect x="455.43" y="93.68" width="6" height="12.08" rx="1.5" fill="#f6465d" /><line x1="469.16" y1="98.12" x2="469.16" y2="114.26" stroke="#f6465d" stroke-width="1.4" /><rect x="466.16" y="105.76" width="6" height="6.32" rx="1.5" fill="#f6465d" /><line x1="479.90" y1="86.41" x2="479.90" y2="118.98" stroke="#0ecb81" stroke-width="1.4" /><rect x="476.90" y="86.41" width="6" height="25.68" rx="1.5" fill="#0ecb81" /><line x1="490.63" y1="83.58" x2="490.63" y2="116.15" stroke="#f6465d" stroke-width="1.4" /><rect x="487.63" y="86.41" width="6" height="28.79" rx="1.5" fill="#f6465d" /><line x1="501.37" y1="99.06" x2="501.37" y2="133.70" stroke="#f6465d" stroke-width="1.4" /><rect x="498.37" y="115.30" width="6" height="16.90" rx="1.5" fill="#f6465d" /><line x1="512.10" y1="117.47" x2="512.10" y2="139.46" stroke="#0ecb81" stroke-width="1.4" /><rect x="509.10" y="123.32" width="6" height="8.87" rx="1.5" fill="#0ecb81" /><line x1="522.84" y1="123.23" x2="522.84" y2="162.12" stroke="#f6465d" stroke-width="1.4" /><rect x="519.84" y="123.32" width="6" height="37.10" rx="1.5" fill="#f6465d" /><line x1="533.57" y1="146.64" x2="533.57" y2="203.74" stroke="#f6465d" stroke-width="1.4" /><rect x="530.57" y="160.32" width="6" height="21.99" rx="1.5" fill="#f6465d" /><line x1="544.30" y1="170.42" x2="544.30" y2="190.91" stroke="#f6465d" stroke-width="1.4" /><rect x="541.30" y="182.32" width="6" height="2.00" rx="1.5" fill="#f6465d" /><line x1="555.04" y1="177.03" x2="555.04" y2="217.62" stroke="#f6465d" stroke-width="1.4" /><rect x="552.04" y="184.11" width="6" height="25.11" rx="1.5" fill="#f6465d" /><line x1="565.77" y1="183.45" x2="565.77" y2="224.32" stroke="#f6465d" stroke-width="1.4" /><rect x="562.77" y="209.12" width="6" height="7.55" rx="1.5" fill="#f6465d" /><line x1="576.51" y1="208.18" x2="576.51" y2="359.31" stroke="#f6465d" stroke-width="1.4" /><rect x="573.51" y="216.77" width="6" height="92.98" rx="1.5" fill="#f6465d" /><line x1="587.24" y1="288.13" x2="587.24" y2="329.76" stroke="#0ecb81" stroke-width="1.4" /><rect x="584.24" y="307.20" width="6" height="2.55" rx="1.5" fill="#0ecb81" /><line x1="597.97" y1="231.02" x2="597.97" y2="310.79" stroke="#0ecb81" stroke-width="1.4" /><rect x="594.97" y="252.73" width="6" height="54.56" rx="1.5" fill="#0ecb81" /><line x1="608.71" y1="238.01" x2="608.71" y2="256.13" stroke="#f6465d" stroke-width="1.4" /><rect x="605.71" y="252.64" width="6" height="2.00" rx="1.5" fill="#f6465d" /><line x1="619.44" y1="249.53" x2="619.44" y2="270.57" stroke="#f6465d" stroke-width="1.4" /><rect x="616.44" y="253.21" width="6" height="13.22" rx="1.5" fill="#f6465d" /><line x1="630.18" y1="250.19" x2="630.18" y2="295.87" stroke="#f6465d" stroke-width="1.4" /><rect x="627.18" y="266.42" width="6" height="10.76" rx="1.5" fill="#f6465d" /><line x1="640.91" y1="266.33" x2="640.91" y2="325.42" stroke="#f6465d" stroke-width="1.4" /><rect x="637.91" y="277.18" width="6" height="44.37" rx="1.5" fill="#f6465d" /><line x1="651.65" y1="277.56" x2="651.65" y2="345.05" stroke="#0ecb81" stroke-width="1.4" /><rect x="648.65" y="277.56" width="6" height="43.89" rx="1.5" fill="#0ecb81" /><line x1="662.38" y1="261.23" x2="662.38" y2="312.01" stroke="#f6465d" stroke-width="1.4" /><rect x="659.38" y="277.56" width="6" height="30.58" rx="1.5" fill="#f6465d" /><line x1="673.11" y1="308.05" x2="673.11" y2="434.25" stroke="#f6465d" stroke-width="1.4" /><rect x="670.11" y="308.05" width="6" height="109.78" rx="1.5" fill="#f6465d" /><line x1="683.85" y1="349.87" x2="683.85" y2="444.17" stroke="#0ecb81" stroke-width="1.4" /><rect x="680.85" y="351.38" width="6" height="66.36" rx="1.5" fill="#0ecb81" /><line x1="694.58" y1="318.90" x2="694.58" y2="376.01" stroke="#f6465d" stroke-width="1.4" /><rect x="691.58" y="351.47" width="6" height="17.84" rx="1.5" fill="#f6465d" /><line x1="705.32" y1="313.90" x2="705.32" y2="383.47" stroke="#0ecb81" stroke-width="1.4" /><rect x="702.32" y="317.58" width="6" height="51.73" rx="1.5" fill="#0ecb81" /><line x1="716.05" y1="302.57" x2="716.05" y2="359.21" stroke="#f6465d" stroke-width="1.4" /><rect x="713.05" y="317.58" width="6" height="41.63" rx="1.5" fill="#f6465d" /><line x1="726.78" y1="352.79" x2="726.78" y2="423.02" stroke="#f6465d" stroke-width="1.4" /><rect x="723.78" y="359.21" width="6" height="31.81" rx="1.5" fill="#f6465d" /><line x1="737.52" y1="369.50" x2="737.52" y2="421.23" stroke="#0ecb81" stroke-width="1.4" /><rect x="734.52" y="382.53" width="6" height="8.50" rx="1.5" fill="#0ecb81" /><line x1="748.25" y1="340.24" x2="748.25" y2="403.48" stroke="#0ecb81" stroke-width="1.4" /><rect x="745.25" y="349.68" width="6" height="32.85" rx="1.5" fill="#0ecb81" /><line x1="758.99" y1="346.66" x2="758.99" y2="385.55" stroke="#f6465d" stroke-width="1.4" /><rect x="755.99" y="349.77" width="6" height="35.78" rx="1.5" fill="#f6465d" /><line x1="769.72" y1="353.45" x2="769.72" y2="402.82" stroke="#f6465d" stroke-width="1.4" /><rect x="766.72" y="385.64" width="6" height="12.37" rx="1.5" fill="#f6465d" /><line x1="780.46" y1="372.05" x2="780.46" y2="407.45" stroke="#f6465d" stroke-width="1.4" /><rect x="777.46" y="398.01" width="6" height="5.66" rx="1.5" fill="#f6465d" /><line x1="791.19" y1="384.32" x2="791.19" y2="452.00" stroke="#0ecb81" stroke-width="1.4" /><rect x="788.19" y="388.47" width="6" height="15.20" rx="1.5" fill="#0ecb81" /><line x1="801.92" y1="341.37" x2="801.92" y2="388.57" stroke="#0ecb81" stroke-width="1.4" /><rect x="798.92" y="351.19" width="6" height="37.29" rx="1.5" fill="#0ecb81" /><line x1="812.66" y1="299.74" x2="812.66" y2="351.75" stroke="#0ecb81" stroke-width="1.4" /><rect x="809.66" y="303.33" width="6" height="47.76" rx="1.5" fill="#0ecb81" /><line x1="823.39" y1="303.42" x2="823.39" y2="359.21" stroke="#f6465d" stroke-width="1.4" /><rect x="820.39" y="303.42" width="6" height="46.91" rx="1.5" fill="#f6465d" /><line x1="834.13" y1="350.34" x2="834.13" y2="387.53" stroke="#f6465d" stroke-width="1.4" /><rect x="831.13" y="350.34" width="6" height="32.38" rx="1.5" fill="#f6465d" /><line x1="844.86" y1="280.01" x2="844.86" y2="385.17" stroke="#0ecb81" stroke-width="1.4" /><rect x="841.86" y="281.15" width="6" height="101.57" rx="1.5" fill="#0ecb81" /><line x1="855.59" y1="246.03" x2="855.59" y2="328.25" stroke="#f6465d" stroke-width="1.4" /><rect x="852.59" y="281.24" width="6" height="43.70" rx="1.5" fill="#f6465d" /><line x1="866.33" y1="288.51" x2="866.33" y2="330.14" stroke="#0ecb81" stroke-width="1.4" /><rect x="863.33" y="302.48" width="6" height="22.47" rx="1.5" fill="#0ecb81" /><line x1="877.06" y1="262.27" x2="877.06" y2="302.57" stroke="#0ecb81" stroke-width="1.4" /><rect x="874.06" y="280.30" width="6" height="22.18" rx="1.5" fill="#0ecb81" /><line x1="887.80" y1="261.51" x2="887.80" y2="294.65" stroke="#0ecb81" stroke-width="1.4" /><rect x="884.80" y="267.08" width="6" height="13.12" rx="1.5" fill="#0ecb81" /><line x1="898.53" y1="250.37" x2="898.53" y2="281.71" stroke="#0ecb81" stroke-width="1.4" /><rect x="895.53" y="250.85" width="6" height="16.14" rx="1.5" fill="#0ecb81" /><line x1="909.27" y1="239.24" x2="909.27" y2="293.51" stroke="#f6465d" stroke-width="1.4" /><rect x="906.27" y="250.94" width="6" height="35.11" rx="1.5" fill="#f6465d" /><line x1="920.00" y1="278.79" x2="920.00" y2="295.49" stroke="#f6465d" stroke-width="1.4" /><rect x="917.00" y="286.15" width="6" height="8.68" rx="1.5" fill="#f6465d" />
  <polyline points="490.63,83.58 683.85,444.17 716.05,302.57 791.19,452.00 855.59,246.03" fill="none" stroke="#2fc273" stroke-width="4" stroke-linecap="round" stroke-linejoin="round" />
  <circle cx="490.63" cy="83.58" r="5.5" fill="#2fc273" fill-opacity="0.15" stroke="#2fc273" stroke-width="2" /><text x="490.63" y="71.58" fill="#f3f4f6" font-size="15" font-weight="700" text-anchor="middle">X</text><circle cx="683.85" cy="444.17" r="5.5" fill="#2fc273" fill-opacity="0.15" stroke="#2fc273" stroke-width="2" /><text x="683.85" y="432.17" fill="#f3f4f6" font-size="15" font-weight="700" text-anchor="middle">A</text><circle cx="716.05" cy="302.57" r="5.5" fill="#2fc273" fill-opacity="0.15" stroke="#2fc273" stroke-width="2" /><text x="716.05" y="290.57" fill="#f3f4f6" font-size="15" font-weight="700" text-anchor="middle">B</text><circle cx="791.19" cy="452.00" r="5.5" fill="#2fc273" fill-opacity="0.15" stroke="#2fc273" stroke-width="2" /><text x="791.19" y="440.00" fill="#f3f4f6" font-size="15" font-weight="700" text-anchor="middle">C</text><circle cx="855.59" cy="246.03" r="5.5" fill="#2fc273" fill-opacity="0.15" stroke="#2fc273" stroke-width="2" /><text x="855.59" y="234.03" fill="#f3f4f6" font-size="15" font-weight="700" text-anchor="middle">D</text>
  <text x="56" y="492" fill="#8ba0b5" font-size="18">Complete · TP1 1859.65 · TP2 1854.51 · SL 1872.96</text>
</svg>
