<svg xmlns="http://www.w3.org/2000/svg" width="960" height="540" viewBox="0 0 960 540">
  <rect width="960" height="540" rx="24" fill="#0b1220" />
  <rect x="28" y="28" width="904" height="484" rx="22" fill="#111827" stroke="#1f2937" />
  <text x="56" y="74" fill="#f3f4f6" font-size="34" font-weight="700">FETUSDT · AB=CD</text>
  <text x="904" y="74" fill="#8ba0b5" font-size="20" text-anchor="end">Bearish (매도) · Score 88.1</text>
  <line x1="72" y1="58" x2="920" y2="58" stroke="#223045" stroke-width="1" stroke-dasharray="4 8" /><line x1="72" y1="156" x2="920" y2="156" stroke="#223045" stroke-width="1" stroke-dasharray="4 8" /><line x1="72" y1="255" x2="920" y2="255" stroke="#223045" stroke-width="1" stroke-dasharray="4 8" /><line x1="72" y1="353" x2="920" y2="353" stroke="#223045" stroke-width="1" stroke-dasharray="4 8" /><line x1="72" y1="452" x2="920" y2="452" stroke="#223045" stroke-width="1" stroke-dasharray="4 8" />
  <rect x="677.32" y="59.15" width="84" height="20.52" fill="#fbbf24" fill-opacity="0.12" stroke="#fbbf24" stroke-width="1.5" stroke-dasharray="6 6" />
  <line x1="72.00" y1="422.45" x2="72.00" y2="427.38" stroke="#f6465d" stroke-width="1.4" /><rect x="69.00" y="425.73" width="6" height="2.00" rx="1.5" fill="#f6465d" /><line x1="82.73" y1="425.73" x2="82.73" y2="435.58" stroke="#f6465d" stroke-width="1.4" /><rect x="79.73" y="425.73" width="6" height="8.21" rx="1.5" fill="#f6465d" /><line x1="93.47" y1="433.94" x2="93.47" y2="450.36" stroke="#f6465d" stroke-width="1.4" /><rect x="90.47" y="433.94" width="6" height="13.13" rx="1.5" fill="#f6465d" /><line x1="104.20" y1="442.15" x2="104.20" y2="452.00" stroke="#f6465d" stroke-width="1.4" /><rect x="101.20" y="447.08" width="6" height="2.00" rx="1.5" fill="#f6465d" /><line x1="114.94" y1="447.08" x2="114.94" y2="452.00" stroke="#f6465d" stroke-width="1.4" /><rect x="111.94" y="448.72" width="6" height="2.00" rx="1.5" fill="#f6465d" /><line x1="125.67" y1="440.51" x2="125.67" y2="448.72" stroke="#0ecb81" stroke-width="1.4" /><rect x="122.67" y="442.15" width="6" height="6.57" rx="1.5" fill="#0ecb81" /><line x1="136.41" y1="427.38" x2="136.41" y2="442.15" stroke="#0ecb81" stroke-width="1.4" /><rect x="133.41" y="427.38" width="6" height="14.77" rx="1.5" fill="#0ecb81" /><line x1="147.14" y1="412.60" x2="147.14" y2="429.02" stroke="#0ecb81" stroke-width="1.4" /><rect x="144.14" y="415.88" width="6" height="13.13" rx="1.5" fill="#0ecb81" /><line x1="157.87" y1="415.88" x2="157.87" y2="432.30" stroke="#f6465d" stroke-width="1.4" /><rect x="154.87" y="415.88" width="6" height="16.42" rx="1.5" fill="#f6465d" /><line x1="168.61" y1="402.75" x2="168.61" y2="435.58" stroke="#0ecb81" stroke-width="1.4" /><rect x="165.61" y="410.96" width="6" height="21.34" rx="1.5" fill="#0ecb81" /><line x1="179.34" y1="406.03" x2="179.34" y2="422.45" stroke="#f6465d" stroke-width="1.4" /><rect x="176.34" y="409.32" width="6" height="4.92" rx="1.5" fill="#f6465d" /><line x1="190.08" y1="409.32" x2="190.08" y2="429.02" stroke="#f6465d" stroke-width="1.4" /><rect x="187.08" y="414.24" width="6" height="4.92" rx="1.5" fill="#f6465d" /><line x1="200.81" y1="414.24" x2="200.81" y2="425.73" stroke="#f6465d" stroke-width="1.4" /><rect x="197.81" y="417.53" width="6" height="6.57" rx="1.5" fill="#f6465d" /><line x1="211.54" y1="420.81" x2="211.54" y2="433.94" stroke="#f6465d" stroke-width="1.4" /><rect x="208.54" y="424.09" width="6" height="3.28" rx="1.5" fill="#f6465d" /><line x1="222.28" y1="415.88" x2="222.28" y2="432.30" stroke="#0ecb81" stroke-width="1.4" /><rect x="219.28" y="415.88" width="6" height="11.49" rx="1.5" fill="#0ecb81" /><line x1="233.01" y1="404.39" x2="233.01" y2="419.17" stroke="#0ecb81" stroke-width="1.4" /><rect x="230.01" y="409.32" width="6" height="8.21" rx="1.5" fill="#0ecb81" /><line x1="243.75" y1="396.18" x2="243.75" y2="417.53" stroke="#0ecb81" stroke-width="1.4" /><rect x="240.75" y="396.18" width="6" height="14.78" rx="1.5" fill="#0ecb81" /><line x1="254.48" y1="383.05" x2="254.48" y2="399.47" stroke="#0ecb81" stroke-width="1.4" /><rect x="251.48" y="386.33" width="6" height="11.49" rx="1.5" fill="#0ecb81" /><line x1="265.22" y1="360.07" x2="265.22" y2="386.33" stroke="#0ecb81" stroke-width="1.4" /><rect x="262.22" y="374.84" width="6" height="11.49" rx="1.5" fill="#0ecb81" /><line x1="275.95" y1="368.28" x2="275.95" y2="386.33" stroke="#f6465d" stroke-width="1.4" /><rect x="272.95" y="373.20" width="6" height="13.13" rx="1.5" fill="#f6465d" /><line x1="286.68" y1="366.63" x2="286.68" y2="387.97" stroke="#0ecb81" stroke-width="1.4" /><rect x="283.68" y="379.77" width="6" height="4.93" rx="1.5" fill="#0ecb81" /><line x1="297.42" y1="374.84" x2="297.42" y2="397.83" stroke="#f6465d" stroke-width="1.4" /><rect x="294.42" y="381.41" width="6" height="11.49" rx="1.5" fill="#f6465d" /><line x1="308.15" y1="369.92" x2="308.15" y2="392.90" stroke="#0ecb81" stroke-width="1.4" /><rect x="305.15" y="373.20" width="6" height="19.70" rx="1.5" fill="#0ecb81" /><line x1="318.89" y1="346.93" x2="318.89" y2="378.12" stroke="#0ecb81" stroke-width="1.4" /><rect x="315.89" y="355.14" width="6" height="18.06" rx="1.5" fill="#0ecb81" /><line x1="329.62" y1="322.31" x2="329.62" y2="353.50" stroke="#0ecb81" stroke-width="1.4" /><rect x="326.62" y="325.59" width="6" height="27.91" rx="1.5" fill="#0ecb81" /><line x1="340.35" y1="323.95" x2="340.35" y2="353.50" stroke="#f6465d" stroke-width="1.4" /><rect x="337.35" y="327.23" width="6" height="19.70" rx="1.5" fill="#f6465d" /><line x1="351.09" y1="335.44" x2="351.09" y2="351.86" stroke="#0ecb81" stroke-width="1.4" /><rect x="348.09" y="343.65" width="6" height="3.28" rx="1.5" fill="#0ecb81" /><line x1="361.82" y1="299.32" x2="361.82" y2="343.65" stroke="#0ecb81" stroke-width="1.4" /><rect x="358.82" y="310.82" width="6" height="32.83" rx="1.5" fill="#0ecb81" /><line x1="372.56" y1="297.68" x2="372.56" y2="314.10" stroke="#0ecb81" stroke-width="1.4" /><rect x="369.56" y="304.25" width="6" height="4.92" rx="1.5" fill="#0ecb81" /><line x1="383.29" y1="300.97" x2="383.29" y2="330.52" stroke="#f6465d" stroke-width="1.4" /><rect x="380.29" y="305.89" width="6" height="14.77" rx="1.5" fill="#f6465d" /><line x1="394.03" y1="310.82" x2="394.03" y2="320.67" stroke="#0ecb81" stroke-width="1.4" /><rect x="391.03" y="314.10" width="6" height="6.57" rx="1.5" fill="#0ecb81" /><line x1="404.76" y1="307.53" x2="404.76" y2="323.95" stroke="#0ecb81" stroke-width="1.4" /><rect x="401.76" y="312.46" width="6" height="2.00" rx="1.5" fill="#0ecb81" /><line x1="415.49" y1="297.68" x2="415.49" y2="315.74" stroke="#0ecb81" stroke-width="1.4" /><rect x="412.49" y="299.32" width="6" height="11.49" rx="1.5" fill="#0ecb81" /><line x1="426.23" y1="255.00" x2="426.23" y2="299.32" stroke="#0ecb81" stroke-width="1.4" /><rect x="423.23" y="268.13" width="6" height="31.19" rx="1.5" fill="#0ecb81" /><line x1="436.96" y1="236.94" x2="436.96" y2="269.77" stroke="#0ecb81" stroke-width="1.4" /><rect x="433.96" y="259.92" width="6" height="8.21" rx="1.5" fill="#0ecb81" /><line x1="447.70" y1="225.45" x2="447.70" y2="261.57" stroke="#0ecb81" stroke-width="1.4" /><rect x="444.70" y="228.73" width="6" height="32.83" rx="1.5" fill="#0ecb81" /><line x1="458.43" y1="200.82" x2="458.43" y2="232.02" stroke="#0ecb81" stroke-width="1.4" /><rect x="455.43" y="218.88" width="6" height="9.85" rx="1.5" fill="#0ecb81" /><line x1="469.16" y1="205.75" x2="469.16" y2="236.94" stroke="#0ecb81" stroke-width="1.4" /><rect x="466.16" y="207.39" width="6" height="11.49" rx="1.5" fill="#0ecb81" /><line x1="479.90" y1="204.11" x2="479.90" y2="228.73" stroke="#f6465d" stroke-width="1.4" /><rect x="476.90" y="209.03" width="6" height="13.13" rx="1.5" fill="#f6465d" /><line x1="490.63" y1="212.32" x2="490.63" y2="232.02" stroke="#f6465d" stroke-width="1.4" /><rect x="487.63" y="222.17" width="6" height="3.28" rx="1.5" fill="#f6465d" /><line x1="501.37" y1="207.39" x2="501.37" y2="232.02" stroke="#0ecb81" stroke-width="1.4" /><rect x="498.37" y="210.68" width="6" height="14.77" rx="1.5" fill="#0ecb81" /><line x1="512.10" y1="186.05" x2="512.10" y2="209.03" stroke="#0ecb81" stroke-width="1.4" /><rect x="509.10" y="187.69" width="6" height="21.34" rx="1.5" fill="#0ecb81" /><line x1="522.84" y1="181.12" x2="522.84" y2="197.54" stroke="#f6465d" stroke-width="1.4" /><rect x="519.84" y="187.69" width="6" height="2.00" rx="1.5" fill="#f6465d" /><line x1="533.57" y1="176.20" x2="533.57" y2="189.33" stroke="#0ecb81" stroke-width="1.4" /><rect x="530.57" y="179.48" width="6" height="9.85" rx="1.5" fill="#0ecb81" /><line x1="544.30" y1="154.86" x2="544.30" y2="182.77" stroke="#0ecb81" stroke-width="1.4" /><rect x="541.30" y="177.84" width="6" height="2.00" rx="1.5" fill="#0ecb81" /><line x1="555.04" y1="176.20" x2="555.04" y2="204.11" stroke="#0ecb81" stroke-width="1.4" /><rect x="552.04" y="177.84" width="6" height="2.00" rx="1.5" fill="#0ecb81" /><line x1="565.77" y1="174.56" x2="565.77" y2="202.47" stroke="#f6465d" stroke-width="1.4" /><rect x="562.77" y="177.84" width="6" height="9.85" rx="1.5" fill="#f6465d" /><line x1="576.51" y1="177.84" x2="576.51" y2="194.26" stroke="#f6465d" stroke-width="1.4" /><rect x="573.51" y="187.69" width="6" height="4.92" rx="1.5" fill="#f6465d" /><line x1="587.24" y1="181.12" x2="587.24" y2="200.82" stroke="#0ecb81" stroke-width="1.4" /><rect x="584.24" y="189.33" width="6" height="2.00" rx="1.5" fill="#0ecb81" /><line x1="597.97" y1="177.84" x2="597.97" y2="204.11" stroke="#0ecb81" stroke-width="1.4" /><rect x="594.97" y="179.48" width="6" height="8.21" rx="1.5" fill="#0ecb81" /><line x1="608.71" y1="149.93" x2="608.71" y2="181.12" stroke="#0ecb81" stroke-width="1.4" /><rect x="605.71" y="151.57" width="6" height="27.91" rx="1.5" fill="#0ecb81" /><line x1="619.44" y1="126.95" x2="619.44" y2="161.43" stroke="#0ecb81" stroke-width="1.4" /><rect x="616.44" y="140.08" width="6" height="11.49" rx="1.5" fill="#0ecb81" /><line x1="630.18" y1="117.10" x2="630.18" y2="146.65" stroke="#0ecb81" stroke-width="1.4" /><rect x="627.18" y="123.67" width="6" height="18.06" rx="1.5" fill="#0ecb81" /><line x1="640.91" y1="112.17" x2="640.91" y2="151.57" stroke="#f6465d" stroke-width="1.4" /><rect x="637.91" y="123.67" width="6" height="8.21" rx="1.5" fill="#f6465d" /><line x1="651.65" y1="118.74" x2="651.65" y2="133.52" stroke="#0ecb81" stroke-width="1.4" /><rect x="648.65" y="126.95" width="6" height="4.92" rx="1.5" fill="#0ecb81" /><line x1="662.38" y1="118.74" x2="662.38" y2="133.52" stroke="#f6465d" stroke-width="1.4" /><rect x="659.38" y="126.95" width="6" height="2.00" rx="1.5" fill="#f6465d" /><line x1="673.11" y1="126.95" x2="673.11" y2="163.07" stroke="#f6465d" stroke-width="1.4" /><rect x="670.11" y="128.59" width="6" height="4.92" rx="1.5" fill="#f6465d" /><line x1="683.85" y1="103.97" x2="683.85" y2="149.93" stroke="#0ecb81" stroke-width="1.4" /><rect x="680.85" y="110.53" width="6" height="21.34" rx="1.5" fill="#0ecb81" /><line x1="694.58" y1="94.12" x2="694.58" y2="122.02" stroke="#0ecb81" stroke-width="1.4" /><rect x="691.58" y="102.32" width="6" height="6.57" rx="1.5" fill="#0ecb81" /><line x1="705.32" y1="58.00" x2="705.32" y2="110.53" stroke="#f6465d" stroke-width="1.4" /><rect x="702.32" y="103.97" width="6" height="3.28" rx="1.5" fill="#f6465d" /><line x1="716.05" y1="82.63" x2="716.05" y2="110.53" stroke="#0ecb81" stroke-width="1.4" /><rect x="713.05" y="97.40" width="6" height="9.85" rx="1.5" fill="#0ecb81" /><line x1="726.78" y1="95.76" x2="726.78" y2="148.29" stroke="#f6465d" stroke-width="1.4" /><rect x="723.78" y="95.76" width="6" height="47.61" rx="1.5" fill="#f6465d" /><line x1="737.52" y1="115.46" x2="737.52" y2="153.22" stroke="#0ecb81" stroke-width="1.4" /><rect x="734.52" y="122.02" width="6" height="21.34" rx="1.5" fill="#0ecb81" /><line x1="748.25" y1="107.25" x2="748.25" y2="153.22" stroke="#f6465d" stroke-width="1.4" /><rect x="745.25" y="122.02" width="6" height="18.06" rx="1.5" fill="#f6465d" /><line x1="758.99" y1="140.08" x2="758.99" y2="187.69" stroke="#f6465d" stroke-width="1.4" /><rect x="755.99" y="141.72" width="6" height="36.12" rx="1.5" fill="#f6465d" /><line x1="769.72" y1="169.63" x2="769.72" y2="186.05" stroke="#f6465d" stroke-width="1.4" /><rect x="766.72" y="177.84" width="6" height="6.57" rx="1.5" fill="#f6465d" /><line x1="780.46" y1="159.78" x2="780.46" y2="187.69" stroke="#0ecb81" stroke-width="1.4" /><rect x="777.46" y="172.92" width="6" height="9.85" rx="1.5" fill="#0ecb81" /><line x1="791.19" y1="161.43" x2="791.19" y2="174.56" stroke="#0ecb81" stroke-width="1.4" /><rect x="788.19" y="161.43" width="6" height="13.13" rx="1.5" fill="#0ecb81" /><line x1="801.92" y1="146.65" x2="801.92" y2="167.99" stroke="#0ecb81" stroke-width="1.4" /><rect x="798.92" y="159.78" width="6" height="2.00" rx="1.5" fill="#0ecb81" /><line x1="812.66" y1="146.65" x2="812.66" y2="169.63" stroke="#0ecb81" stroke-width="1.4" /><rect x="809.66" y="161.43" width="6" height="2.00" rx="1.5" fill="#0ecb81" /><line x1="823.39" y1="149.93" x2="823.39" y2="163.07" stroke="#0ecb81" stroke-width="1.4" /><rect x="820.39" y="156.50" width="6" height="4.93" rx="1.5" fill="#0ecb81" /><line x1="834.13" y1="149.93" x2="834.13" y2="171.27" stroke="#f6465d" stroke-width="1.4" /><rect x="831.13" y="158.14" width="6" height="3.28" rx="1.5" fill="#f6465d" /><line x1="844.86" y1="143.37" x2="844.86" y2="167.99" stroke="#0ecb81" stroke-width="1.4" /><rect x="841.86" y="161.43" width="6" height="2.00" rx="1.5" fill="#0ecb81" /><line x1="855.59" y1="154.86" x2="855.59" y2="169.63" stroke="#0ecb81" stroke-width="1.4" /><rect x="852.59" y="161.43" width="6" height="2.00" rx="1.5" fill="#0ecb81" /><line x1="866.33" y1="151.57" x2="866.33" y2="166.35" stroke="#0ecb81" stroke-width="1.4" /><rect x="863.33" y="156.50" width="6" height="4.93" rx="1.5" fill="#0ecb81" /><line x1="877.06" y1="153.22" x2="877.06" y2="166.35" stroke="#f6465d" stroke-width="1.4" /><rect x="874.06" y="156.50" width="6" height="6.57" rx="1.5" fill="#f6465d" /><line x1="887.80" y1="159.78" x2="887.80" y2="167.99" stroke="#f6465d" stroke-width="1.4" /><rect x="884.80" y="161.43" width="6" height="2.00" rx="1.5" fill="#f6465d" /><line x1="898.53" y1="151.57" x2="898.53" y2="169.63" stroke="#0ecb81" stroke-width="1.4" /><rect x="895.53" y="156.50" width="6" height="6.57" rx="1.5" fill="#0ecb81" /><line x1="909.27" y1="146.65" x2="909.27" y2="156.50" stroke="#0ecb81" stroke-width="1.4" /><rect x="906.27" y="154.86" width="6" height="2.00" rx="1.5" fill="#0ecb81" /><line x1="920.00" y1="153.22" x2="920.00" y2="184.41" stroke="#f6465d" stroke-width="1.4" /><rect x="917.00" y="156.50" width="6" height="8.21" rx="1.5" fill="#f6465d" />
  <polyline points="544.30,154.86 597.97,204.11 640.91,112.17 673.11,163.07 705.32,58.00" fill="none" stroke="#2fc273" stroke-width="4" stroke-linecap="round" stroke-linejoin="round" />
  <circle cx="544.30" cy="154.86" r="5.5" fill="#2fc273" fill-opacity="0.15" stroke="#2fc273" stroke-width="2" /><text x="544.30" y="142.86" fill="#f3f4f6" font-size="15" font-weight="700" text-anchor="middle">X</text><circle cx="597.97" cy="204.11" r="5.5" fill="#2fc273" fill-opacity="0.15" stroke="#2fc273" stroke-width="2" /><text x="597.97" y="192.11" fill="#f3f4f6" font-size="15" font-weight="700" text-anchor="middle">A</text><circle cx="640.91" cy="112.17" r="5.5" fill="#2fc273" fill-opacity="0.15" stroke="#2fc273" stroke-width="2" /><text x="640.91" y="100.17" fill="#f3f4f6" font-size="15" font-weight="700" text-anchor="middle">B</text><circle cx="673.11" cy="163.07" r="5.5" fill="#2fc273" fill-opacity="0.15" stroke="#2fc273" stroke-width="2" /><text x="673.11" y="151.07" fill="#f3f4f6" font-size="15" font-weight="700" text-anchor="middle">C</text><circle cx="705.32" cy="58.00" r="5.5" fill="#2fc273" fill-opacity="0.15" stroke="#2fc273" stroke-width="2" /><text x="705.32" y="46.00" fill="#f3f4f6" font-size="15" font-weight="700" text-anchor="middle">D</text>
  <text x="56" y="492" fill="#8ba0b5" font-size="18">일반 완성 · TP1 0.24766 · TP2 0.24614 · SL 0.25049</text>
</svg>
