<svg xmlns="http://www.w3.org/2000/svg" width="960" height="540" viewBox="0 0 960 540">
  <rect width="960" height="540" rx="24" fill="#0b1220" />
  <rect x="28" y="28" width="904" height="484" rx="22" fill="#111827" stroke="#1f2937" />
  <text x="56" y="74" fill="#f3f4f6" font-size="34" font-weight="700">FOGOUSDT · AB=CD</text>
  <text x="904" y="74" fill="#8ba0b5" font-size="20" text-anchor="end">Bullish (매수) · Score 89.6</text>
  <line x1="72" y1="58" x2="920" y2="58" stroke="#223045" stroke-width="1" stroke-dasharray="4 8" /><line x1="72" y1="156" x2="920" y2="156" stroke="#223045" stroke-width="1" stroke-dasharray="4 8" /><line x1="72" y1="255" x2="920" y2="255" stroke="#223045" stroke-width="1" stroke-dasharray="4 8" /><line x1="72" y1="353" x2="920" y2="353" stroke="#223045" stroke-width="1" stroke-dasharray="4 8" /><line x1="72" y1="452" x2="920" y2="452" stroke="#223045" stroke-width="1" stroke-dasharray="4 8" />
  <rect x="688.05" y="429.00" width="84" height="62.16" fill="#fbbf24" fill-opacity="0.12" stroke="#fbbf24" stroke-width="1.5" stroke-dasharray="6 6" />
  <line x1="72.00" y1="168.12" x2="72.00" y2="234.20" stroke="#0ecb81" stroke-width="1.4" /><rect x="69.00" y="187.70" width="6" height="44.05" rx="1.5" fill="#0ecb81" /><line x1="82.73" y1="182.81" x2="82.73" y2="231.75" stroke="#f6465d" stroke-width="1.4" /><rect x="79.73" y="187.70" width="6" height="19.58" rx="1.5" fill="#f6465d" /><line x1="93.47" y1="163.23" x2="93.47" y2="204.83" stroke="#0ecb81" stroke-width="1.4" /><rect x="90.47" y="170.57" width="6" height="34.26" rx="1.5" fill="#0ecb81" /><line x1="104.20" y1="173.02" x2="104.20" y2="221.96" stroke="#f6465d" stroke-width="1.4" /><rect x="101.20" y="175.47" width="6" height="26.92" rx="1.5" fill="#f6465d" /><line x1="114.94" y1="170.57" x2="114.94" y2="207.28" stroke="#0ecb81" stroke-width="1.4" /><rect x="111.94" y="197.49" width="6" height="7.34" rx="1.5" fill="#0ecb81" /><line x1="125.67" y1="192.60" x2="125.67" y2="231.75" stroke="#f6465d" stroke-width="1.4" /><rect x="122.67" y="199.94" width="6" height="22.02" rx="1.5" fill="#f6465d" /><line x1="136.41" y1="192.60" x2="136.41" y2="243.99" stroke="#0ecb81" stroke-width="1.4" /><rect x="133.41" y="204.83" width="6" height="17.13" rx="1.5" fill="#0ecb81" /><line x1="147.14" y1="173.02" x2="147.14" y2="212.17" stroke="#0ecb81" stroke-width="1.4" /><rect x="144.14" y="175.47" width="6" height="29.37" rx="1.5" fill="#0ecb81" /><line x1="157.87" y1="153.44" x2="157.87" y2="190.15" stroke="#0ecb81" stroke-width="1.4" /><rect x="154.87" y="163.23" width="6" height="12.24" rx="1.5" fill="#0ecb81" /><line x1="168.61" y1="158.34" x2="168.61" y2="190.15" stroke="#f6465d" stroke-width="1.4" /><rect x="165.61" y="165.68" width="6" height="12.24" rx="1.5" fill="#f6465d" /><line x1="179.34" y1="177.91" x2="179.34" y2="212.17" stroke="#f6465d" stroke-width="1.4" /><rect x="176.34" y="180.36" width="6" height="19.58" rx="1.5" fill="#f6465d" /><line x1="190.08" y1="131.42" x2="190.08" y2="202.39" stroke="#0ecb81" stroke-width="1.4" /><rect x="187.08" y="131.42" width="6" height="68.52" rx="1.5" fill="#0ecb81" /><line x1="200.81" y1="106.94" x2="200.81" y2="180.36" stroke="#f6465d" stroke-width="1.4" /><rect x="197.81" y="136.31" width="6" height="31.81" rx="1.5" fill="#f6465d" /><line x1="211.54" y1="158.34" x2="211.54" y2="217.07" stroke="#f6465d" stroke-width="1.4" /><rect x="208.54" y="168.12" width="6" height="4.89" rx="1.5" fill="#f6465d" /><line x1="222.28" y1="128.97" x2="222.28" y2="177.91" stroke="#0ecb81" stroke-width="1.4" /><rect x="219.28" y="148.55" width="6" height="22.02" rx="1.5" fill="#0ecb81" /><line x1="233.01" y1="114.29" x2="233.01" y2="165.68" stroke="#f6465d" stroke-width="1.4" /><rect x="230.01" y="146.10" width="6" height="19.58" rx="1.5" fill="#f6465d" /><line x1="243.75" y1="119.18" x2="243.75" y2="182.81" stroke="#0ecb81" stroke-width="1.4" /><rect x="240.75" y="119.18" width="6" height="46.50" rx="1.5" fill="#0ecb81" /><line x1="254.48" y1="77.58" x2="254.48" y2="128.97" stroke="#0ecb81" stroke-width="1.4" /><rect x="251.48" y="106.94" width="6" height="17.13" rx="1.5" fill="#0ecb81" /><line x1="265.22" y1="58.00" x2="265.22" y2="106.94" stroke="#0ecb81" stroke-width="1.4" /><rect x="262.22" y="75.13" width="6" height="31.81" rx="1.5" fill="#0ecb81" /><line x1="275.95" y1="67.79" x2="275.95" y2="99.60" stroke="#f6465d" stroke-width="1.4" /><rect x="272.95" y="75.13" width="6" height="14.68" rx="1.5" fill="#f6465d" /><line x1="286.68" y1="80.02" x2="286.68" y2="128.97" stroke="#f6465d" stroke-width="1.4" /><rect x="283.68" y="87.37" width="6" height="24.47" rx="1.5" fill="#f6465d" /><line x1="297.42" y1="109.39" x2="297.42" y2="185.25" stroke="#f6465d" stroke-width="1.4" /><rect x="294.42" y="114.29" width="6" height="34.26" rx="1.5" fill="#f6465d" /><line x1="308.15" y1="143.65" x2="308.15" y2="190.15" stroke="#f6465d" stroke-width="1.4" /><rect x="305.15" y="148.55" width="6" height="29.37" rx="1.5" fill="#f6465d" /><line x1="318.89" y1="136.31" x2="318.89" y2="199.94" stroke="#0ecb81" stroke-width="1.4" /><rect x="315.89" y="160.78" width="6" height="17.13" rx="1.5" fill="#0ecb81" /><line x1="329.62" y1="114.29" x2="329.62" y2="163.23" stroke="#0ecb81" stroke-width="1.4" /><rect x="326.62" y="138.76" width="6" height="24.47" rx="1.5" fill="#0ecb81" /><line x1="340.35" y1="131.42" x2="340.35" y2="158.34" stroke="#f6465d" stroke-width="1.4" /><rect x="337.35" y="136.31" width="6" height="12.24" rx="1.5" fill="#f6465d" /><line x1="351.09" y1="146.10" x2="351.09" y2="231.75" stroke="#f6465d" stroke-width="1.4" /><rect x="348.09" y="150.99" width="6" height="73.42" rx="1.5" fill="#f6465d" /><line x1="361.82" y1="204.83" x2="361.82" y2="268.46" stroke="#f6465d" stroke-width="1.4" /><rect x="358.82" y="224.41" width="6" height="26.92" rx="1.5" fill="#f6465d" /><line x1="372.56" y1="241.54" x2="372.56" y2="278.25" stroke="#f6465d" stroke-width="1.4" /><rect x="369.56" y="248.88" width="6" height="12.24" rx="1.5" fill="#f6465d" /><line x1="383.29" y1="246.43" x2="383.29" y2="314.96" stroke="#f6465d" stroke-width="1.4" /><rect x="380.29" y="261.12" width="6" height="24.47" rx="1.5" fill="#f6465d" /><line x1="394.03" y1="248.88" x2="394.03" y2="312.51" stroke="#0ecb81" stroke-width="1.4" /><rect x="391.03" y="253.78" width="6" height="26.92" rx="1.5" fill="#0ecb81" /><line x1="404.76" y1="243.99" x2="404.76" y2="319.85" stroke="#f6465d" stroke-width="1.4" /><rect x="401.76" y="253.78" width="6" height="39.16" rx="1.5" fill="#f6465d" /><line x1="415.49" y1="273.35" x2="415.49" y2="295.38" stroke="#0ecb81" stroke-width="1.4" /><rect x="412.49" y="275.80" width="6" height="19.58" rx="1.5" fill="#0ecb81" /><line x1="426.23" y1="234.20" x2="426.23" y2="275.80" stroke="#0ecb81" stroke-width="1.4" /><rect x="423.23" y="261.12" width="6" height="14.68" rx="1.5" fill="#0ecb81" /><line x1="436.96" y1="212.17" x2="436.96" y2="258.67" stroke="#0ecb81" stroke-width="1.4" /><rect x="433.96" y="226.86" width="6" height="31.81" rx="1.5" fill="#0ecb81" /><line x1="447.70" y1="212.17" x2="447.70" y2="261.12" stroke="#f6465d" stroke-width="1.4" /><rect x="444.70" y="224.41" width="6" height="34.26" rx="1.5" fill="#f6465d" /><line x1="458.43" y1="231.75" x2="458.43" y2="268.46" stroke="#0ecb81" stroke-width="1.4" /><rect x="455.43" y="251.33" width="6" height="7.34" rx="1.5" fill="#0ecb81" /><line x1="469.16" y1="199.94" x2="469.16" y2="258.67" stroke="#0ecb81" stroke-width="1.4" /><rect x="466.16" y="204.83" width="6" height="48.94" rx="1.5" fill="#0ecb81" /><line x1="479.90" y1="192.60" x2="479.90" y2="221.96" stroke="#0ecb81" stroke-width="1.4" /><rect x="476.90" y="199.94" width="6" height="4.89" rx="1.5" fill="#0ecb81" /><line x1="490.63" y1="175.47" x2="490.63" y2="226.86" stroke="#f6465d" stroke-width="1.4" /><rect x="487.63" y="202.39" width="6" height="17.13" rx="1.5" fill="#f6465d" /><line x1="501.37" y1="219.52" x2="501.37" y2="283.14" stroke="#f6465d" stroke-width="1.4" /><rect x="498.37" y="221.96" width="6" height="14.68" rx="1.5" fill="#f6465d" /><line x1="512.10" y1="207.28" x2="512.10" y2="261.12" stroke="#0ecb81" stroke-width="1.4" /><rect x="509.10" y="234.20" width="6" height="2.45" rx="1.5" fill="#0ecb81" /><line x1="522.84" y1="185.25" x2="522.84" y2="251.33" stroke="#0ecb81" stroke-width="1.4" /><rect x="519.84" y="199.94" width="6" height="31.81" rx="1.5" fill="#0ecb81" /><line x1="533.57" y1="185.25" x2="533.57" y2="224.41" stroke="#f6465d" stroke-width="1.4" /><rect x="530.57" y="202.39" width="6" height="2.45" rx="1.5" fill="#f6465d" /><line x1="544.30" y1="197.49" x2="544.30" y2="248.88" stroke="#f6465d" stroke-width="1.4" /><rect x="541.30" y="204.83" width="6" height="29.37" rx="1.5" fill="#f6465d" /><line x1="555.04" y1="229.30" x2="555.04" y2="295.38" stroke="#f6465d" stroke-width="1.4" /><rect x="552.04" y="236.65" width="6" height="48.94" rx="1.5" fill="#f6465d" /><line x1="565.77" y1="268.46" x2="565.77" y2="314.96" stroke="#f6465d" stroke-width="1.4" /><rect x="562.77" y="285.59" width="6" height="7.34" rx="1.5" fill="#f6465d" /><line x1="576.51" y1="292.93" x2="576.51" y2="339.43" stroke="#f6465d" stroke-width="1.4" /><rect x="573.51" y="295.38" width="6" height="31.81" rx="1.5" fill="#f6465d" /><line x1="587.24" y1="305.17" x2="587.24" y2="346.77" stroke="#f6465d" stroke-width="1.4" /><rect x="584.24" y="322.30" width="6" height="9.79" rx="1.5" fill="#f6465d" /><line x1="597.97" y1="332.09" x2="597.97" y2="371.24" stroke="#f6465d" stroke-width="1.4" /><rect x="594.97" y="334.53" width="6" height="26.92" rx="1.5" fill="#f6465d" /><line x1="608.71" y1="341.88" x2="608.71" y2="371.24" stroke="#0ecb81" stroke-width="1.4" /><rect x="605.71" y="346.77" width="6" height="14.68" rx="1.5" fill="#0ecb81" /><line x1="619.44" y1="319.85" x2="619.44" y2="361.45" stroke="#0ecb81" stroke-width="1.4" /><rect x="616.44" y="339.43" width="6" height="12.24" rx="1.5" fill="#0ecb81" /><line x1="630.18" y1="305.17" x2="630.18" y2="344.32" stroke="#0ecb81" stroke-width="1.4" /><rect x="627.18" y="319.85" width="6" height="22.02" rx="1.5" fill="#0ecb81" /><line x1="640.91" y1="314.96" x2="640.91" y2="346.77" stroke="#f6465d" stroke-width="1.4" /><rect x="637.91" y="322.30" width="6" height="14.68" rx="1.5" fill="#f6465d" /><line x1="651.65" y1="336.98" x2="651.65" y2="371.24" stroke="#f6465d" stroke-width="1.4" /><rect x="648.65" y="341.88" width="6" height="7.34" rx="1.5" fill="#f6465d" /><line x1="662.38" y1="349.22" x2="662.38" y2="390.82" stroke="#f6465d" stroke-width="1.4" /><rect x="659.38" y="349.22" width="6" height="19.58" rx="1.5" fill="#f6465d" /><line x1="673.11" y1="359.01" x2="673.11" y2="393.27" stroke="#f6465d" stroke-width="1.4" /><rect x="670.11" y="366.35" width="6" height="17.13" rx="1.5" fill="#f6465d" /><line x1="683.85" y1="363.90" x2="683.85" y2="393.27" stroke="#0ecb81" stroke-width="1.4" /><rect x="680.85" y="383.48" width="6" height="2.45" rx="1.5" fill="#0ecb81" /><line x1="694.58" y1="366.35" x2="694.58" y2="429.98" stroke="#f6465d" stroke-width="1.4" /><rect x="691.58" y="383.48" width="6" height="19.58" rx="1.5" fill="#f6465d" /><line x1="705.32" y1="383.48" x2="705.32" y2="412.84" stroke="#f6465d" stroke-width="1.4" /><rect x="702.32" y="400.61" width="6" height="4.89" rx="1.5" fill="#f6465d" /><line x1="716.05" y1="403.06" x2="716.05" y2="452.00" stroke="#f6465d" stroke-width="1.4" /><rect x="713.05" y="403.06" width="6" height="29.37" rx="1.5" fill="#f6465d" /><line x1="726.78" y1="385.93" x2="726.78" y2="437.32" stroke="#0ecb81" stroke-width="1.4" /><rect x="723.78" y="398.16" width="6" height="36.71" rx="1.5" fill="#0ecb81" /><line x1="737.52" y1="395.71" x2="737.52" y2="429.98" stroke="#0ecb81" stroke-width="1.4" /><rect x="734.52" y="398.16" width="6" height="2.45" rx="1.5" fill="#0ecb81" /><line x1="748.25" y1="368.80" x2="748.25" y2="415.29" stroke="#0ecb81" stroke-width="1.4" /><rect x="745.25" y="393.27" width="6" height="9.79" rx="1.5" fill="#0ecb81" /><line x1="758.99" y1="390.82" x2="758.99" y2="407.95" stroke="#f6465d" stroke-width="1.4" /><rect x="755.99" y="395.71" width="6" height="2.45" rx="1.5" fill="#f6465d" /><line x1="769.72" y1="395.71" x2="769.72" y2="429.98" stroke="#f6465d" stroke-width="1.4" /><rect x="766.72" y="398.16" width="6" height="17.13" rx="1.5" fill="#f6465d" /><line x1="780.46" y1="410.40" x2="780.46" y2="427.53" stroke="#f6465d" stroke-width="1.4" /><rect x="777.46" y="412.84" width="6" height="4.89" rx="1.5" fill="#f6465d" /><line x1="791.19" y1="412.84" x2="791.19" y2="439.76" stroke="#f6465d" stroke-width="1.4" /><rect x="788.19" y="420.19" width="6" height="9.79" rx="1.5" fill="#f6465d" /><line x1="801.92" y1="400.61" x2="801.92" y2="432.42" stroke="#0ecb81" stroke-width="1.4" /><rect x="798.92" y="405.50" width="6" height="24.47" rx="1.5" fill="#0ecb81" /><line x1="812.66" y1="383.48" x2="812.66" y2="407.95" stroke="#f6465d" stroke-width="1.4" /><rect x="809.66" y="405.50" width="6" height="2.45" rx="1.5" fill="#f6465d" /><line x1="823.39" y1="393.27" x2="823.39" y2="412.84" stroke="#0ecb81" stroke-width="1.4" /><rect x="820.39" y="403.06" width="6" height="4.89" rx="1.5" fill="#0ecb81" /><line x1="834.13" y1="373.69" x2="834.13" y2="400.61" stroke="#0ecb81" stroke-width="1.4" /><rect x="831.13" y="388.37" width="6" height="12.24" rx="1.5" fill="#0ecb81" /><line x1="844.86" y1="383.48" x2="844.86" y2="417.74" stroke="#f6465d" stroke-width="1.4" /><rect x="841.86" y="388.37" width="6" height="9.79" rx="1.5" fill="#f6465d" /><line x1="855.59" y1="393.27" x2="855.59" y2="412.84" stroke="#f6465d" stroke-width="1.4" /><rect x="852.59" y="398.16" width="6" height="7.34" rx="1.5" fill="#f6465d" /><line x1="866.33" y1="390.82" x2="866.33" y2="412.84" stroke="#0ecb81" stroke-width="1.4" /><rect x="863.33" y="407.95" width="6" height="2.00" rx="1.5" fill="#0ecb81" /><line x1="877.06" y1="395.71" x2="877.06" y2="412.84" stroke="#0ecb81" stroke-width="1.4" /><rect x="874.06" y="405.50" width="6" height="2.45" rx="1.5" fill="#0ecb81" /><line x1="887.80" y1="400.61" x2="887.80" y2="412.84" stroke="#f6465d" stroke-width="1.4" /><rect x="884.80" y="405.50" width="6" height="2.45" rx="1.5" fill="#f6465d" /><line x1="898.53" y1="405.50" x2="898.53" y2="432.42" stroke="#f6465d" stroke-width="1.4" /><rect x="895.53" y="405.50" width="6" height="17.13" rx="1.5" fill="#f6465d" /><line x1="909.27" y1="412.84" x2="909.27" y2="432.42" stroke="#0ecb81" stroke-width="1.4" /><rect x="906.27" y="417.74" width="6" height="7.34" rx="1.5" fill="#0ecb81" /><line x1="920.00" y1="420.19" x2="920.00" y2="437.32" stroke="#f6465d" stroke-width="1.4" /><rect x="917.00" y="420.19" width="6" height="12.24" rx="1.5" fill="#f6465d" />
  <polyline points="501.37,283.14 533.57,185.25 608.71,371.24 630.18,305.17 716.05,452.00" fill="none" stroke="#2fc273" stroke-width="4" stroke-linecap="round" stroke-linejoin="round" />
  <circle cx="501.37" cy="283.14" r="5.5" fill="#2fc273" fill-opacity="0.15" stroke="#2fc273" stroke-width="2" /><text x="501.37" y="271.14" fill="#f3f4f6" font-size="15" font-weight="700" text-anchor="middle">X</text><circle cx="533.57" cy="185.25" r="5.5" fill="#2fc273" fill-opacity="0.15" stroke="#2fc273" stroke-width="2" /><text x="533.57" y="173.25" fill="#f3f4f6" font-size="15" font-weight="700" text-anchor="middle">A</text><circle cx="608.71" cy="371.24" r="5.5" fill="#2fc273" fill-opacity="0.15" stroke="#2fc273" stroke-width="2" /><text x="608.71" y="359.24" fill="#f3f4f6" font-size="15" font-weight="700" text-anchor="middle">B</text><circle cx="630.18" cy="305.17" r="5.5" fill="#2fc273" fill-opacity="0.15" stroke="#2fc273" stroke-width="2" /><text x="630.18" y="293.17" fill="#f3f4f6" font-size="15" font-weight="700" text-anchor="middle">C</text><circle cx="716.05" cy="452.00" r="5.5" fill="#2fc273" fill-opacity="0.15" stroke="#2fc273" stroke-width="2" /><text x="716.05" y="440.00" fill="#f3f4f6" font-size="15" font-weight="700" text-anchor="middle">D</text>
  <text x="56" y="492" fill="#8ba0b5" font-size="18">일반 완성 · TP1 0.019299 · TP2 0.019441 · SL 0.019018</text>
</svg>
