<svg xmlns="http://www.w3.org/2000/svg" width="960" height="540" viewBox="0 0 960 540">
  <rect width="960" height="540" rx="24" fill="#0b1220" />
  <rect x="28" y="28" width="904" height="484" rx="22" fill="#111827" stroke="#1f2937" />
  <text x="56" y="74" fill="#f3f4f6" font-size="34" font-weight="700">HBARUSDT · AB=CD</text>
  <text x="904" y="74" fill="#8ba0b5" font-size="20" text-anchor="end">Bullish (매수) · Score 89.1</text>
  <line x1="72" y1="58" x2="920" y2="58" stroke="#223045" stroke-width="1" stroke-dasharray="4 8" /><line x1="72" y1="156" x2="920" y2="156" stroke="#223045" stroke-width="1" stroke-dasharray="4 8" /><line x1="72" y1="255" x2="920" y2="255" stroke="#223045" stroke-width="1" stroke-dasharray="4 8" /><line x1="72" y1="353" x2="920" y2="353" stroke="#223045" stroke-width="1" stroke-dasharray="4 8" /><line x1="72" y1="452" x2="920" y2="452" stroke="#223045" stroke-width="1" stroke-dasharray="4 8" />
  <rect x="838.33" y="263.91" width="84" height="148.01" fill="#fbbf24" fill-opacity="0.12" stroke="#fbbf24" stroke-width="1.5" stroke-dasharray="6 6" />
  <line x1="72.00" y1="208.75" x2="72.00" y2="239.58" stroke="#0ecb81" stroke-width="1.4" /><rect x="69.00" y="232.73" width="6" height="6.85" rx="1.5" fill="#0ecb81" /><line x1="82.73" y1="164.21" x2="82.73" y2="236.16" stroke="#0ecb81" stroke-width="1.4" /><rect x="79.73" y="212.17" width="6" height="20.56" rx="1.5" fill="#0ecb81" /><line x1="93.47" y1="160.78" x2="93.47" y2="222.45" stroke="#0ecb81" stroke-width="1.4" /><rect x="90.47" y="184.77" width="6" height="23.98" rx="1.5" fill="#0ecb81" /><line x1="104.20" y1="184.77" x2="104.20" y2="198.47" stroke="#f6465d" stroke-width="1.4" /><rect x="101.20" y="188.19" width="6" height="10.28" rx="1.5" fill="#f6465d" /><line x1="114.94" y1="174.49" x2="114.94" y2="205.32" stroke="#f6465d" stroke-width="1.4" /><rect x="111.94" y="198.47" width="6" height="6.85" rx="1.5" fill="#f6465d" /><line x1="125.67" y1="184.77" x2="125.67" y2="212.17" stroke="#0ecb81" stroke-width="1.4" /><rect x="122.67" y="184.77" width="6" height="17.13" rx="1.5" fill="#0ecb81" /><line x1="136.41" y1="167.63" x2="136.41" y2="208.75" stroke="#f6465d" stroke-width="1.4" /><rect x="133.41" y="184.77" width="6" height="23.98" rx="1.5" fill="#f6465d" /><line x1="147.14" y1="188.19" x2="147.14" y2="229.30" stroke="#f6465d" stroke-width="1.4" /><rect x="144.14" y="208.75" width="6" height="17.13" rx="1.5" fill="#f6465d" /><line x1="157.87" y1="157.36" x2="157.87" y2="225.88" stroke="#0ecb81" stroke-width="1.4" /><rect x="154.87" y="222.45" width="6" height="3.43" rx="1.5" fill="#0ecb81" /><line x1="168.61" y1="171.06" x2="168.61" y2="222.45" stroke="#0ecb81" stroke-width="1.4" /><rect x="165.61" y="195.04" width="6" height="27.41" rx="1.5" fill="#0ecb81" /><line x1="179.34" y1="184.77" x2="179.34" y2="243.01" stroke="#f6465d" stroke-width="1.4" /><rect x="176.34" y="195.04" width="6" height="23.98" rx="1.5" fill="#f6465d" /><line x1="190.08" y1="212.17" x2="190.08" y2="260.14" stroke="#f6465d" stroke-width="1.4" /><rect x="187.08" y="215.60" width="6" height="44.54" rx="1.5" fill="#f6465d" /><line x1="200.81" y1="256.71" x2="200.81" y2="284.12" stroke="#f6465d" stroke-width="1.4" /><rect x="197.81" y="263.57" width="6" height="17.13" rx="1.5" fill="#f6465d" /><line x1="211.54" y1="266.99" x2="211.54" y2="356.07" stroke="#f6465d" stroke-width="1.4" /><rect x="208.54" y="277.27" width="6" height="68.52" rx="1.5" fill="#f6465d" /><line x1="222.28" y1="342.37" x2="222.28" y2="380.05" stroke="#f6465d" stroke-width="1.4" /><rect x="219.28" y="345.79" width="6" height="13.70" rx="1.5" fill="#f6465d" /><line x1="233.01" y1="328.66" x2="233.01" y2="359.50" stroke="#0ecb81" stroke-width="1.4" /><rect x="230.01" y="335.51" width="6" height="23.98" rx="1.5" fill="#0ecb81" /><line x1="243.75" y1="304.68" x2="243.75" y2="345.79" stroke="#f6465d" stroke-width="1.4" /><rect x="240.75" y="335.51" width="6" height="10.28" rx="1.5" fill="#f6465d" /><line x1="254.48" y1="311.53" x2="254.48" y2="349.22" stroke="#0ecb81" stroke-width="1.4" /><rect x="251.48" y="338.94" width="6" height="6.85" rx="1.5" fill="#0ecb81" /><line x1="265.22" y1="308.10" x2="265.22" y2="342.37" stroke="#0ecb81" stroke-width="1.4" /><rect x="262.22" y="321.81" width="6" height="17.13" rx="1.5" fill="#0ecb81" /><line x1="275.95" y1="311.53" x2="275.95" y2="342.37" stroke="#0ecb81" stroke-width="1.4" /><rect x="272.95" y="314.96" width="6" height="3.43" rx="1.5" fill="#0ecb81" /><line x1="286.68" y1="284.12" x2="286.68" y2="314.96" stroke="#0ecb81" stroke-width="1.4" /><rect x="283.68" y="284.12" width="6" height="30.83" rx="1.5" fill="#0ecb81" /><line x1="297.42" y1="273.84" x2="297.42" y2="328.66" stroke="#f6465d" stroke-width="1.4" /><rect x="294.42" y="284.12" width="6" height="27.41" rx="1.5" fill="#f6465d" /><line x1="308.15" y1="290.97" x2="308.15" y2="356.07" stroke="#f6465d" stroke-width="1.4" /><rect x="305.15" y="311.53" width="6" height="6.85" rx="1.5" fill="#f6465d" /><line x1="318.89" y1="308.10" x2="318.89" y2="349.22" stroke="#f6465d" stroke-width="1.4" /><rect x="315.89" y="318.38" width="6" height="30.83" rx="1.5" fill="#f6465d" /><line x1="329.62" y1="318.38" x2="329.62" y2="362.92" stroke="#f6465d" stroke-width="1.4" /><rect x="326.62" y="345.79" width="6" height="3.43" rx="1.5" fill="#f6465d" /><line x1="340.35" y1="328.66" x2="340.35" y2="345.79" stroke="#0ecb81" stroke-width="1.4" /><rect x="337.35" y="335.51" width="6" height="10.28" rx="1.5" fill="#0ecb81" /><line x1="351.09" y1="335.51" x2="351.09" y2="369.77" stroke="#f6465d" stroke-width="1.4" /><rect x="348.09" y="335.51" width="6" height="34.26" rx="1.5" fill="#f6465d" /><line x1="361.82" y1="362.92" x2="361.82" y2="380.05" stroke="#f6465d" stroke-width="1.4" /><rect x="358.82" y="369.77" width="6" height="6.85" rx="1.5" fill="#f6465d" /><line x1="372.56" y1="325.23" x2="372.56" y2="376.63" stroke="#0ecb81" stroke-width="1.4" /><rect x="369.56" y="328.66" width="6" height="47.97" rx="1.5" fill="#0ecb81" /><line x1="383.29" y1="290.97" x2="383.29" y2="332.09" stroke="#0ecb81" stroke-width="1.4" /><rect x="380.29" y="294.40" width="6" height="34.26" rx="1.5" fill="#0ecb81" /><line x1="394.03" y1="246.43" x2="394.03" y2="294.40" stroke="#0ecb81" stroke-width="1.4" /><rect x="391.03" y="260.14" width="6" height="34.26" rx="1.5" fill="#0ecb81" /><line x1="404.76" y1="208.75" x2="404.76" y2="263.57" stroke="#0ecb81" stroke-width="1.4" /><rect x="401.76" y="229.30" width="6" height="27.41" rx="1.5" fill="#0ecb81" /><line x1="415.49" y1="205.32" x2="415.49" y2="266.99" stroke="#f6465d" stroke-width="1.4" /><rect x="412.49" y="229.30" width="6" height="17.13" rx="1.5" fill="#f6465d" /><line x1="426.23" y1="232.73" x2="426.23" y2="294.40" stroke="#f6465d" stroke-width="1.4" /><rect x="423.23" y="243.01" width="6" height="41.11" rx="1.5" fill="#f6465d" /><line x1="436.96" y1="263.57" x2="436.96" y2="294.40" stroke="#0ecb81" stroke-width="1.4" /><rect x="433.96" y="266.99" width="6" height="13.70" rx="1.5" fill="#0ecb81" /><line x1="447.70" y1="225.88" x2="447.70" y2="270.42" stroke="#0ecb81" stroke-width="1.4" /><rect x="444.70" y="232.73" width="6" height="34.26" rx="1.5" fill="#0ecb81" /><line x1="458.43" y1="212.17" x2="458.43" y2="239.58" stroke="#0ecb81" stroke-width="1.4" /><rect x="455.43" y="229.30" width="6" height="3.43" rx="1.5" fill="#0ecb81" /><line x1="469.16" y1="215.60" x2="469.16" y2="273.84" stroke="#f6465d" stroke-width="1.4" /><rect x="466.16" y="229.30" width="6" height="20.56" rx="1.5" fill="#f6465d" /><line x1="479.90" y1="236.16" x2="479.90" y2="260.14" stroke="#0ecb81" stroke-width="1.4" /><rect x="476.90" y="246.43" width="6" height="2.00" rx="1.5" fill="#0ecb81" /><line x1="490.63" y1="181.34" x2="490.63" y2="246.43" stroke="#0ecb81" stroke-width="1.4" /><rect x="487.63" y="188.19" width="6" height="58.24" rx="1.5" fill="#0ecb81" /><line x1="501.37" y1="171.06" x2="501.37" y2="195.04" stroke="#0ecb81" stroke-width="1.4" /><rect x="498.37" y="171.06" width="6" height="20.56" rx="1.5" fill="#0ecb81" /><line x1="512.10" y1="157.36" x2="512.10" y2="174.49" stroke="#0ecb81" stroke-width="1.4" /><rect x="509.10" y="164.21" width="6" height="6.85" rx="1.5" fill="#0ecb81" /><line x1="522.84" y1="147.08" x2="522.84" y2="174.49" stroke="#0ecb81" stroke-width="1.4" /><rect x="519.84" y="147.08" width="6" height="17.13" rx="1.5" fill="#0ecb81" /><line x1="533.57" y1="150.50" x2="533.57" y2="188.19" stroke="#f6465d" stroke-width="1.4" /><rect x="530.57" y="150.50" width="6" height="30.83" rx="1.5" fill="#f6465d" /><line x1="544.30" y1="177.91" x2="544.30" y2="236.16" stroke="#f6465d" stroke-width="1.4" /><rect x="541.30" y="177.91" width="6" height="58.24" rx="1.5" fill="#f6465d" /><line x1="555.04" y1="212.17" x2="555.04" y2="232.73" stroke="#0ecb81" stroke-width="1.4" /><rect x="552.04" y="219.03" width="6" height="13.70" rx="1.5" fill="#0ecb81" /><line x1="565.77" y1="215.60" x2="565.77" y2="232.73" stroke="#f6465d" stroke-width="1.4" /><rect x="562.77" y="219.03" width="6" height="10.28" rx="1.5" fill="#f6465d" /><line x1="576.51" y1="215.60" x2="576.51" y2="229.30" stroke="#0ecb81" stroke-width="1.4" /><rect x="573.51" y="222.45" width="6" height="6.85" rx="1.5" fill="#0ecb81" /><line x1="587.24" y1="195.04" x2="587.24" y2="225.88" stroke="#0ecb81" stroke-width="1.4" /><rect x="584.24" y="195.04" width="6" height="27.41" rx="1.5" fill="#0ecb81" /><line x1="597.97" y1="140.23" x2="597.97" y2="212.17" stroke="#0ecb81" stroke-width="1.4" /><rect x="594.97" y="147.08" width="6" height="44.54" rx="1.5" fill="#0ecb81" /><line x1="608.71" y1="58.00" x2="608.71" y2="160.78" stroke="#0ecb81" stroke-width="1.4" /><rect x="605.71" y="95.69" width="6" height="51.39" rx="1.5" fill="#0ecb81" /><line x1="619.44" y1="95.69" x2="619.44" y2="167.63" stroke="#f6465d" stroke-width="1.4" /><rect x="616.44" y="95.69" width="6" height="34.26" rx="1.5" fill="#f6465d" /><line x1="630.18" y1="129.95" x2="630.18" y2="212.17" stroke="#f6465d" stroke-width="1.4" /><rect x="627.18" y="129.95" width="6" height="78.80" rx="1.5" fill="#f6465d" /><line x1="640.91" y1="195.04" x2="640.91" y2="222.45" stroke="#0ecb81" stroke-width="1.4" /><rect x="637.91" y="212.17" width="6" height="2.00" rx="1.5" fill="#0ecb81" /><line x1="651.65" y1="201.90" x2="651.65" y2="222.45" stroke="#f6465d" stroke-width="1.4" /><rect x="648.65" y="212.17" width="6" height="10.28" rx="1.5" fill="#f6465d" /><line x1="662.38" y1="212.17" x2="662.38" y2="256.71" stroke="#0ecb81" stroke-width="1.4" /><rect x="659.38" y="219.03" width="6" height="2.00" rx="1.5" fill="#0ecb81" /><line x1="673.11" y1="212.17" x2="673.11" y2="236.16" stroke="#f6465d" stroke-width="1.4" /><rect x="670.11" y="215.60" width="6" height="17.13" rx="1.5" fill="#f6465d" /><line x1="683.85" y1="215.60" x2="683.85" y2="236.16" stroke="#0ecb81" stroke-width="1.4" /><rect x="680.85" y="222.45" width="6" height="13.70" rx="1.5" fill="#0ecb81" /><line x1="694.58" y1="177.91" x2="694.58" y2="225.88" stroke="#0ecb81" stroke-width="1.4" /><rect x="691.58" y="195.04" width="6" height="30.83" rx="1.5" fill="#0ecb81" /><line x1="705.32" y1="181.34" x2="705.32" y2="222.45" stroke="#f6465d" stroke-width="1.4" /><rect x="702.32" y="195.04" width="6" height="27.41" rx="1.5" fill="#f6465d" /><line x1="716.05" y1="219.03" x2="716.05" y2="270.42" stroke="#f6465d" stroke-width="1.4" /><rect x="713.05" y="219.03" width="6" height="41.11" rx="1.5" fill="#f6465d" /><line x1="726.78" y1="249.86" x2="726.78" y2="277.27" stroke="#0ecb81" stroke-width="1.4" /><rect x="723.78" y="253.29" width="6" height="6.85" rx="1.5" fill="#0ecb81" /><line x1="737.52" y1="246.43" x2="737.52" y2="263.57" stroke="#f6465d" stroke-width="1.4" /><rect x="734.52" y="253.29" width="6" height="3.43" rx="1.5" fill="#f6465d" /><line x1="748.25" y1="249.86" x2="748.25" y2="280.70" stroke="#f6465d" stroke-width="1.4" /><rect x="745.25" y="253.29" width="6" height="17.13" rx="1.5" fill="#f6465d" /><line x1="758.99" y1="266.99" x2="758.99" y2="287.55" stroke="#f6465d" stroke-width="1.4" /><rect x="755.99" y="266.99" width="6" height="3.43" rx="1.5" fill="#f6465d" /><line x1="769.72" y1="232.73" x2="769.72" y2="270.42" stroke="#0ecb81" stroke-width="1.4" /><rect x="766.72" y="236.16" width="6" height="34.26" rx="1.5" fill="#0ecb81" /><line x1="780.46" y1="219.03" x2="780.46" y2="243.01" stroke="#0ecb81" stroke-width="1.4" /><rect x="777.46" y="229.30" width="6" height="6.85" rx="1.5" fill="#0ecb81" /><line x1="791.19" y1="232.73" x2="791.19" y2="273.84" stroke="#f6465d" stroke-width="1.4" /><rect x="788.19" y="232.73" width="6" height="37.69" rx="1.5" fill="#f6465d" /><line x1="801.92" y1="215.60" x2="801.92" y2="273.84" stroke="#0ecb81" stroke-width="1.4" /><rect x="798.92" y="219.03" width="6" height="54.82" rx="1.5" fill="#0ecb81" /><line x1="812.66" y1="222.45" x2="812.66" y2="287.55" stroke="#f6465d" stroke-width="1.4" /><rect x="809.66" y="222.45" width="6" height="65.10" rx="1.5" fill="#f6465d" /><line x1="823.39" y1="270.42" x2="823.39" y2="311.53" stroke="#f6465d" stroke-width="1.4" /><rect x="820.39" y="287.55" width="6" height="20.56" rx="1.5" fill="#f6465d" /><line x1="834.13" y1="290.97" x2="834.13" y2="314.96" stroke="#f6465d" stroke-width="1.4" /><rect x="831.13" y="308.10" width="6" height="6.85" rx="1.5" fill="#f6465d" /><line x1="844.86" y1="308.10" x2="844.86" y2="342.37" stroke="#f6465d" stroke-width="1.4" /><rect x="841.86" y="314.96" width="6" height="23.98" rx="1.5" fill="#f6465d" /><line x1="855.59" y1="335.51" x2="855.59" y2="414.31" stroke="#f6465d" stroke-width="1.4" /><rect x="852.59" y="342.37" width="6" height="51.39" rx="1.5" fill="#f6465d" /><line x1="866.33" y1="352.64" x2="866.33" y2="452.00" stroke="#0ecb81" stroke-width="1.4" /><rect x="863.33" y="369.77" width="6" height="23.98" rx="1.5" fill="#0ecb81" /><line x1="877.06" y1="338.94" x2="877.06" y2="404.03" stroke="#f6465d" stroke-width="1.4" /><rect x="874.06" y="369.77" width="6" height="3.43" rx="1.5" fill="#f6465d" /><line x1="887.80" y1="342.37" x2="887.80" y2="380.05" stroke="#0ecb81" stroke-width="1.4" /><rect x="884.80" y="352.64" width="6" height="20.56" rx="1.5" fill="#0ecb81" /><line x1="898.53" y1="297.83" x2="898.53" y2="349.22" stroke="#0ecb81" stroke-width="1.4" /><rect x="895.53" y="311.53" width="6" height="37.69" rx="1.5" fill="#0ecb81" /><line x1="909.27" y1="287.55" x2="909.27" y2="314.96" stroke="#0ecb81" stroke-width="1.4" /><rect x="906.27" y="290.97" width="6" height="23.98" rx="1.5" fill="#0ecb81" /><line x1="920.00" y1="287.55" x2="920.00" y2="290.97" stroke="#0ecb81" stroke-width="1.4" /><rect x="917.00" y="287.55" width="6" height="2.00" rx="1.5" fill="#0ecb81" />
  <polyline points="662.38,256.71 694.58,177.91 758.99,287.55 801.92,215.60 866.33,452.00" fill="none" stroke="#2fc273" stroke-width="4" stroke-linecap="round" stroke-linejoin="round" />
  <circle cx="662.38" cy="256.71" r="5.5" fill="#2fc273" fill-opacity="0.15" stroke="#2fc273" stroke-width="2" /><text x="662.38" y="244.71" fill="#f3f4f6" font-size="15" font-weight="700" text-anchor="middle">X</text><circle cx="694.58" cy="177.91" r="5.5" fill="#2fc273" fill-opacity="0.15" stroke="#2fc273" stroke-width="2" /><text x="694.58" y="165.91" fill="#f3f4f6" font-size="15" font-weight="700" text-anchor="middle">A</text><circle cx="758.99" cy="287.55" r="5.5" fill="#2fc273" fill-opacity="0.15" stroke="#2fc273" stroke-width="2" /><text x="758.99" y="275.55" fill="#f3f4f6" font-size="15" font-weight="700" text-anchor="middle">B</text><circle cx="801.92" cy="215.60" r="5.5" fill="#2fc273" fill-opacity="0.15" stroke="#2fc273" stroke-width="2" /><text x="801.92" y="203.60" fill="#f3f4f6" font-size="15" font-weight="700" text-anchor="middle">C</text><circle cx="866.33" cy="452.00" r="5.5" fill="#2fc273" fill-opacity="0.15" stroke="#2fc273" stroke-width="2" /><text x="866.33" y="440.00" fill="#f3f4f6" font-size="15" font-weight="700" text-anchor="middle">D</text>
  <text x="56" y="492" fill="#8ba0b5" font-size="18">일반 완성 · TP1 0.086264 · TP2 0.086426 · SL 0.08597</text>
</svg>
