<svg xmlns="http://www.w3.org/2000/svg" width="960" height="540" viewBox="0 0 960 540">
  <rect width="960" height="540" rx="24" fill="#0b1220" />
  <rect x="28" y="28" width="904" height="484" rx="22" fill="#111827" stroke="#1f2937" />
  <text x="56" y="74" fill="#f3f4f6" font-size="34" font-weight="700">HEMIUSDT · AB=CD</text>
  <text x="904" y="74" fill="#8ba0b5" font-size="20" text-anchor="end">Bullish (매수) · Score 82.8</text>
  <line x1="72" y1="58" x2="920" y2="58" stroke="#223045" stroke-width="1" stroke-dasharray="4 8" /><line x1="72" y1="156" x2="920" y2="156" stroke="#223045" stroke-width="1" stroke-dasharray="4 8" /><line x1="72" y1="255" x2="920" y2="255" stroke="#223045" stroke-width="1" stroke-dasharray="4 8" /><line x1="72" y1="353" x2="920" y2="353" stroke="#223045" stroke-width="1" stroke-dasharray="4 8" /><line x1="72" y1="452" x2="920" y2="452" stroke="#223045" stroke-width="1" stroke-dasharray="4 8" />
  <rect x="806.13" y="391.36" width="84" height="53.90" fill="#fbbf24" fill-opacity="0.12" stroke="#fbbf24" stroke-width="1.5" stroke-dasharray="6 6" />
  <line x1="72.00" y1="161.31" x2="72.00" y2="196.61" stroke="#f6465d" stroke-width="1.4" /><rect x="69.00" y="161.31" width="6" height="23.74" rx="1.5" fill="#f6465d" /><line x1="82.73" y1="157.14" x2="82.73" y2="192.11" stroke="#0ecb81" stroke-width="1.4" /><rect x="79.73" y="159.71" width="6" height="26.63" rx="1.5" fill="#0ecb81" /><line x1="93.47" y1="144.95" x2="93.47" y2="168.69" stroke="#0ecb81" stroke-width="1.4" /><rect x="90.47" y="154.25" width="6" height="5.78" rx="1.5" fill="#0ecb81" /><line x1="104.20" y1="130.51" x2="104.20" y2="159.07" stroke="#0ecb81" stroke-width="1.4" /><rect x="101.20" y="137.89" width="6" height="17.00" rx="1.5" fill="#0ecb81" /><line x1="114.94" y1="127.62" x2="114.94" y2="154.57" stroke="#0ecb81" stroke-width="1.4" /><rect x="111.94" y="127.94" width="6" height="9.63" rx="1.5" fill="#0ecb81" /><line x1="125.67" y1="72.12" x2="125.67" y2="143.02" stroke="#0ecb81" stroke-width="1.4" /><rect x="122.67" y="91.37" width="6" height="36.90" rx="1.5" fill="#0ecb81" /><line x1="136.41" y1="58.00" x2="136.41" y2="106.13" stroke="#0ecb81" stroke-width="1.4" /><rect x="133.41" y="75.97" width="6" height="16.68" rx="1.5" fill="#0ecb81" /><line x1="147.14" y1="75.97" x2="147.14" y2="129.23" stroke="#f6465d" stroke-width="1.4" /><rect x="144.14" y="75.97" width="6" height="36.90" rx="1.5" fill="#f6465d" /><line x1="157.87" y1="72.44" x2="157.87" y2="124.74" stroke="#0ecb81" stroke-width="1.4" /><rect x="154.87" y="102.28" width="6" height="10.91" rx="1.5" fill="#0ecb81" /><line x1="168.61" y1="85.59" x2="168.61" y2="122.17" stroke="#f6465d" stroke-width="1.4" /><rect x="165.61" y="101.96" width="6" height="11.23" rx="1.5" fill="#f6465d" /><line x1="179.34" y1="110.94" x2="179.34" y2="182.17" stroke="#f6465d" stroke-width="1.4" /><rect x="176.34" y="113.19" width="6" height="65.45" rx="1.5" fill="#f6465d" /><line x1="190.08" y1="167.41" x2="190.08" y2="208.48" stroke="#f6465d" stroke-width="1.4" /><rect x="187.08" y="177.36" width="6" height="11.55" rx="1.5" fill="#f6465d" /><line x1="200.81" y1="174.47" x2="200.81" y2="210.40" stroke="#0ecb81" stroke-width="1.4" /><rect x="197.81" y="180.56" width="6" height="8.66" rx="1.5" fill="#0ecb81" /><line x1="211.54" y1="157.78" x2="211.54" y2="221.31" stroke="#0ecb81" stroke-width="1.4" /><rect x="208.54" y="165.16" width="6" height="15.40" rx="1.5" fill="#0ecb81" /><line x1="222.28" y1="133.40" x2="222.28" y2="177.03" stroke="#0ecb81" stroke-width="1.4" /><rect x="219.28" y="138.85" width="6" height="26.31" rx="1.5" fill="#0ecb81" /><line x1="233.01" y1="115.75" x2="233.01" y2="165.48" stroke="#f6465d" stroke-width="1.4" /><rect x="230.01" y="139.17" width="6" height="17.33" rx="1.5" fill="#f6465d" /><line x1="243.75" y1="129.87" x2="243.75" y2="164.20" stroke="#0ecb81" stroke-width="1.4" /><rect x="240.75" y="135.00" width="6" height="21.50" rx="1.5" fill="#0ecb81" /><line x1="254.48" y1="135.32" x2="254.48" y2="155.86" stroke="#f6465d" stroke-width="1.4" /><rect x="251.48" y="135.32" width="6" height="17.97" rx="1.5" fill="#f6465d" /><line x1="265.22" y1="136.61" x2="265.22" y2="156.50" stroke="#0ecb81" stroke-width="1.4" /><rect x="262.22" y="138.53" width="6" height="15.08" rx="1.5" fill="#0ecb81" /><line x1="275.95" y1="85.59" x2="275.95" y2="144.63" stroke="#0ecb81" stroke-width="1.4" /><rect x="272.95" y="119.60" width="6" height="18.61" rx="1.5" fill="#0ecb81" /><line x1="286.68" y1="110.62" x2="286.68" y2="135.64" stroke="#f6465d" stroke-width="1.4" /><rect x="283.68" y="119.92" width="6" height="10.59" rx="1.5" fill="#f6465d" /><line x1="297.42" y1="125.70" x2="297.42" y2="161.31" stroke="#f6465d" stroke-width="1.4" /><rect x="294.42" y="130.51" width="6" height="21.82" rx="1.5" fill="#f6465d" /><line x1="308.15" y1="138.85" x2="308.15" y2="168.05" stroke="#f6465d" stroke-width="1.4" /><rect x="305.15" y="152.01" width="6" height="3.85" rx="1.5" fill="#f6465d" /><line x1="318.89" y1="147.20" x2="318.89" y2="187.30" stroke="#f6465d" stroke-width="1.4" /><rect x="315.89" y="155.54" width="6" height="26.95" rx="1.5" fill="#f6465d" /><line x1="329.62" y1="146.23" x2="329.62" y2="184.09" stroke="#0ecb81" stroke-width="1.4" /><rect x="326.62" y="157.46" width="6" height="25.35" rx="1.5" fill="#0ecb81" /><line x1="340.35" y1="152.01" x2="340.35" y2="175.43" stroke="#f6465d" stroke-width="1.4" /><rect x="337.35" y="157.14" width="6" height="4.17" rx="1.5" fill="#f6465d" /><line x1="351.09" y1="138.21" x2="351.09" y2="178.64" stroke="#f6465d" stroke-width="1.4" /><rect x="348.09" y="161.63" width="6" height="2.00" rx="1.5" fill="#f6465d" /><line x1="361.82" y1="98.75" x2="361.82" y2="176.07" stroke="#0ecb81" stroke-width="1.4" /><rect x="358.82" y="111.58" width="6" height="51.98" rx="1.5" fill="#0ecb81" /><line x1="372.56" y1="110.30" x2="372.56" y2="173.18" stroke="#f6465d" stroke-width="1.4" /><rect x="369.56" y="111.26" width="6" height="60.64" rx="1.5" fill="#f6465d" /><line x1="383.29" y1="157.46" x2="383.29" y2="182.49" stroke="#0ecb81" stroke-width="1.4" /><rect x="380.29" y="164.20" width="6" height="8.34" rx="1.5" fill="#0ecb81" /><line x1="394.03" y1="133.72" x2="394.03" y2="167.73" stroke="#0ecb81" stroke-width="1.4" /><rect x="391.03" y="157.14" width="6" height="6.10" rx="1.5" fill="#0ecb81" /><line x1="404.76" y1="156.82" x2="404.76" y2="186.02" stroke="#f6465d" stroke-width="1.4" /><rect x="401.76" y="157.78" width="6" height="14.76" rx="1.5" fill="#f6465d" /><line x1="415.49" y1="142.06" x2="415.49" y2="182.17" stroke="#0ecb81" stroke-width="1.4" /><rect x="412.49" y="158.43" width="6" height="14.44" rx="1.5" fill="#0ecb81" /><line x1="426.23" y1="155.22" x2="426.23" y2="169.01" stroke="#f6465d" stroke-width="1.4" /><rect x="423.23" y="158.43" width="6" height="5.13" rx="1.5" fill="#f6465d" /><line x1="436.96" y1="147.20" x2="436.96" y2="168.69" stroke="#0ecb81" stroke-width="1.4" /><rect x="433.96" y="150.40" width="6" height="13.15" rx="1.5" fill="#0ecb81" /><line x1="447.70" y1="135.97" x2="447.70" y2="190.19" stroke="#f6465d" stroke-width="1.4" /><rect x="444.70" y="150.72" width="6" height="27.27" rx="1.5" fill="#f6465d" /><line x1="458.43" y1="177.03" x2="458.43" y2="215.86" stroke="#f6465d" stroke-width="1.4" /><rect x="455.43" y="178.96" width="6" height="31.44" rx="1.5" fill="#f6465d" /><line x1="469.16" y1="195.32" x2="469.16" y2="235.75" stroke="#0ecb81" stroke-width="1.4" /><rect x="466.16" y="198.53" width="6" height="11.23" rx="1.5" fill="#0ecb81" /><line x1="479.90" y1="191.15" x2="479.90" y2="215.54" stroke="#f6465d" stroke-width="1.4" /><rect x="476.90" y="198.53" width="6" height="3.85" rx="1.5" fill="#f6465d" /><line x1="490.63" y1="201.10" x2="490.63" y2="219.71" stroke="#f6465d" stroke-width="1.4" /><rect x="487.63" y="202.38" width="6" height="11.23" rx="1.5" fill="#f6465d" /><line x1="501.37" y1="206.23" x2="501.37" y2="222.92" stroke="#f6465d" stroke-width="1.4" /><rect x="498.37" y="213.29" width="6" height="2.89" rx="1.5" fill="#f6465d" /><line x1="512.10" y1="210.08" x2="512.10" y2="249.55" stroke="#f6465d" stroke-width="1.4" /><rect x="509.10" y="216.18" width="6" height="31.44" rx="1.5" fill="#f6465d" /><line x1="522.84" y1="244.09" x2="522.84" y2="279.38" stroke="#f6465d" stroke-width="1.4" /><rect x="519.84" y="247.30" width="6" height="6.42" rx="1.5" fill="#f6465d" /><line x1="533.57" y1="248.26" x2="533.57" y2="265.27" stroke="#f6465d" stroke-width="1.4" /><rect x="530.57" y="253.40" width="6" height="9.95" rx="1.5" fill="#f6465d" /><line x1="544.30" y1="246.98" x2="544.30" y2="265.59" stroke="#0ecb81" stroke-width="1.4" /><rect x="541.30" y="256.60" width="6" height="6.74" rx="1.5" fill="#0ecb81" /><line x1="555.04" y1="252.43" x2="555.04" y2="262.38" stroke="#0ecb81" stroke-width="1.4" /><rect x="552.04" y="253.07" width="6" height="3.53" rx="1.5" fill="#0ecb81" /><line x1="565.77" y1="251.15" x2="565.77" y2="268.15" stroke="#f6465d" stroke-width="1.4" /><rect x="562.77" y="252.43" width="6" height="8.66" rx="1.5" fill="#f6465d" /><line x1="576.51" y1="243.77" x2="576.51" y2="272.65" stroke="#f6465d" stroke-width="1.4" /><rect x="573.51" y="259.81" width="6" height="8.66" rx="1.5" fill="#f6465d" /><line x1="587.24" y1="265.59" x2="587.24" y2="304.09" stroke="#f6465d" stroke-width="1.4" /><rect x="584.24" y="268.80" width="6" height="29.84" rx="1.5" fill="#f6465d" /><line x1="597.97" y1="288.69" x2="597.97" y2="311.47" stroke="#f6465d" stroke-width="1.4" /><rect x="594.97" y="298.31" width="6" height="6.42" rx="1.5" fill="#f6465d" /><line x1="608.71" y1="292.54" x2="608.71" y2="310.51" stroke="#0ecb81" stroke-width="1.4" /><rect x="605.71" y="298.31" width="6" height="5.78" rx="1.5" fill="#0ecb81" /><line x1="619.44" y1="283.23" x2="619.44" y2="310.83" stroke="#f6465d" stroke-width="1.4" /><rect x="616.44" y="298.64" width="6" height="7.06" rx="1.5" fill="#f6465d" /><line x1="630.18" y1="305.69" x2="630.18" y2="350.93" stroke="#f6465d" stroke-width="1.4" /><rect x="627.18" y="306.34" width="6" height="25.99" rx="1.5" fill="#f6465d" /><line x1="640.91" y1="310.51" x2="640.91" y2="332.32" stroke="#0ecb81" stroke-width="1.4" /><rect x="637.91" y="315.96" width="6" height="16.36" rx="1.5" fill="#0ecb81" /><line x1="651.65" y1="308.26" x2="651.65" y2="329.76" stroke="#f6465d" stroke-width="1.4" /><rect x="648.65" y="316.60" width="6" height="6.10" rx="1.5" fill="#f6465d" /><line x1="662.38" y1="318.53" x2="662.38" y2="339.70" stroke="#f6465d" stroke-width="1.4" /><rect x="659.38" y="322.38" width="6" height="12.51" rx="1.5" fill="#f6465d" /><line x1="673.11" y1="315.64" x2="673.11" y2="364.09" stroke="#f6465d" stroke-width="1.4" /><rect x="670.11" y="334.89" width="6" height="6.10" rx="1.5" fill="#f6465d" /><line x1="683.85" y1="326.55" x2="683.85" y2="344.20" stroke="#0ecb81" stroke-width="1.4" /><rect x="680.85" y="329.44" width="6" height="11.87" rx="1.5" fill="#0ecb81" /><line x1="694.58" y1="326.23" x2="694.58" y2="337.14" stroke="#f6465d" stroke-width="1.4" /><rect x="691.58" y="329.44" width="6" height="2.00" rx="1.5" fill="#f6465d" /><line x1="705.32" y1="327.51" x2="705.32" y2="342.59" stroke="#f6465d" stroke-width="1.4" /><rect x="702.32" y="330.72" width="6" height="3.21" rx="1.5" fill="#f6465d" /><line x1="716.05" y1="318.85" x2="716.05" y2="336.50" stroke="#0ecb81" stroke-width="1.4" /><rect x="713.05" y="320.77" width="6" height="13.15" rx="1.5" fill="#0ecb81" /><line x1="726.78" y1="315.96" x2="726.78" y2="338.42" stroke="#f6465d" stroke-width="1.4" /><rect x="723.78" y="320.77" width="6" height="2.00" rx="1.5" fill="#f6465d" /><line x1="737.52" y1="275.86" x2="737.52" y2="340.02" stroke="#0ecb81" stroke-width="1.4" /><rect x="734.52" y="285.48" width="6" height="36.26" rx="1.5" fill="#0ecb81" /><line x1="748.25" y1="271.04" x2="748.25" y2="307.30" stroke="#0ecb81" stroke-width="1.4" /><rect x="745.25" y="283.56" width="6" height="2.57" rx="1.5" fill="#0ecb81" /><line x1="758.99" y1="275.21" x2="758.99" y2="344.52" stroke="#f6465d" stroke-width="1.4" /><rect x="755.99" y="284.84" width="6" height="30.80" rx="1.5" fill="#f6465d" /><line x1="769.72" y1="288.69" x2="769.72" y2="318.85" stroke="#0ecb81" stroke-width="1.4" /><rect x="766.72" y="291.26" width="6" height="24.71" rx="1.5" fill="#0ecb81" /><line x1="780.46" y1="290.93" x2="780.46" y2="316.28" stroke="#f6465d" stroke-width="1.4" /><rect x="777.46" y="290.93" width="6" height="13.80" rx="1.5" fill="#f6465d" /><line x1="791.19" y1="299.60" x2="791.19" y2="347.72" stroke="#f6465d" stroke-width="1.4" /><rect x="788.19" y="304.73" width="6" height="39.46" rx="1.5" fill="#f6465d" /><line x1="801.92" y1="335.53" x2="801.92" y2="353.50" stroke="#f6465d" stroke-width="1.4" /><rect x="798.92" y="344.52" width="6" height="4.81" rx="1.5" fill="#f6465d" /><line x1="812.66" y1="348.69" x2="812.66" y2="378.21" stroke="#f6465d" stroke-width="1.4" /><rect x="809.66" y="349.65" width="6" height="21.50" rx="1.5" fill="#f6465d" /><line x1="823.39" y1="367.62" x2="823.39" y2="416.71" stroke="#f6465d" stroke-width="1.4" /><rect x="820.39" y="370.83" width="6" height="39.79" rx="1.5" fill="#f6465d" /><line x1="834.13" y1="388.79" x2="834.13" y2="417.67" stroke="#0ecb81" stroke-width="1.4" /><rect x="831.13" y="393.93" width="6" height="16.36" rx="1.5" fill="#0ecb81" /><line x1="844.86" y1="380.77" x2="844.86" y2="398.42" stroke="#0ecb81" stroke-width="1.4" /><rect x="841.86" y="386.87" width="6" height="6.42" rx="1.5" fill="#0ecb81" /><line x1="855.59" y1="371.15" x2="855.59" y2="395.21" stroke="#0ecb81" stroke-width="1.4" /><rect x="852.59" y="375.32" width="6" height="11.23" rx="1.5" fill="#0ecb81" /><line x1="866.33" y1="373.07" x2="866.33" y2="400.66" stroke="#0ecb81" stroke-width="1.4" /><rect x="863.33" y="375.32" width="6" height="2.00" rx="1.5" fill="#0ecb81" /><line x1="877.06" y1="364.73" x2="877.06" y2="393.61" stroke="#f6465d" stroke-width="1.4" /><rect x="874.06" y="375.64" width="6" height="13.80" rx="1.5" fill="#f6465d" /><line x1="887.80" y1="386.23" x2="887.80" y2="428.90" stroke="#f6465d" stroke-width="1.4" /><rect x="884.80" y="388.79" width="6" height="34.33" rx="1.5" fill="#f6465d" /><line x1="898.53" y1="418.31" x2="898.53" y2="452.00" stroke="#f6465d" stroke-width="1.4" /><rect x="895.53" y="422.80" width="6" height="5.78" rx="1.5" fill="#f6465d" /><line x1="909.27" y1="427.94" x2="909.27" y2="442.70" stroke="#f6465d" stroke-width="1.4" /><rect x="906.27" y="429.86" width="6" height="5.45" rx="1.5" fill="#f6465d" /><line x1="920.00" y1="434.35" x2="920.00" y2="443.02" stroke="#0ecb81" stroke-width="1.4" /><rect x="917.00" y="434.35" width="6" height="2.00" rx="1.5" fill="#0ecb81" />
  <polyline points="522.84,279.38 576.51,243.77 673.11,364.09 748.25,271.04 834.13,417.67" fill="none" stroke="#2fc273" stroke-width="4" stroke-linecap="round" stroke-linejoin="round" />
  <circle cx="522.84" cy="279.38" r="5.5" fill="#2fc273" fill-opacity="0.15" stroke="#2fc273" stroke-width="2" /><text x="522.84" y="267.38" fill="#f3f4f6" font-size="15" font-weight="700" text-anchor="middle">X</text><circle cx="576.51" cy="243.77" r="5.5" fill="#2fc273" fill-opacity="0.15" stroke="#2fc273" stroke-width="2" /><text x="576.51" y="231.77" fill="#f3f4f6" font-size="15" font-weight="700" text-anchor="middle">A</text><circle cx="673.11" cy="364.09" r="5.5" fill="#2fc273" fill-opacity="0.15" stroke="#2fc273" stroke-width="2" /><text x="673.11" y="352.09" fill="#f3f4f6" font-size="15" font-weight="700" text-anchor="middle">B</text><circle cx="748.25" cy="271.04" r="5.5" fill="#2fc273" fill-opacity="0.15" stroke="#2fc273" stroke-width="2" /><text x="748.25" y="259.04" fill="#f3f4f6" font-size="15" font-weight="700" text-anchor="middle">C</text><circle cx="834.13" cy="417.67" r="5.5" fill="#2fc273" fill-opacity="0.15" stroke="#2fc273" stroke-width="2" /><text x="834.13" y="405.67" fill="#f3f4f6" font-size="15" font-weight="700" text-anchor="middle">D</text>
  <text x="56" y="492" fill="#8ba0b5" font-size="18">실시간 터치 · TP1 0.008076 · TP2 0.008183 · SL 0.007887</text>
</svg>
