<svg xmlns="http://www.w3.org/2000/svg" width="960" height="540" viewBox="0 0 960 540">
  <rect width="960" height="540" rx="24" fill="#0b1220" />
  <rect x="28" y="28" width="904" height="484" rx="22" fill="#111827" stroke="#1f2937" />
  <text x="56" y="74" fill="#f3f4f6" font-size="34" font-weight="700">HUSDT · AB=CD</text>
  <text x="904" y="74" fill="#8ba0b5" font-size="20" text-anchor="end">Bearish (매도) · Score 88.2</text>
  <line x1="72" y1="58" x2="920" y2="58" stroke="#223045" stroke-width="1" stroke-dasharray="4 8" /><line x1="72" y1="156" x2="920" y2="156" stroke="#223045" stroke-width="1" stroke-dasharray="4 8" /><line x1="72" y1="255" x2="920" y2="255" stroke="#223045" stroke-width="1" stroke-dasharray="4 8" /><line x1="72" y1="353" x2="920" y2="353" stroke="#223045" stroke-width="1" stroke-dasharray="4 8" /><line x1="72" y1="452" x2="920" y2="452" stroke="#223045" stroke-width="1" stroke-dasharray="4 8" />
  <rect x="387.49" y="159.05" width="84" height="74.97" fill="#fbbf24" fill-opacity="0.12" stroke="#fbbf24" stroke-width="1.5" stroke-dasharray="6 6" />
  <line x1="72.00" y1="145.56" x2="72.00" y2="172.92" stroke="#0ecb81" stroke-width="1.4" /><rect x="69.00" y="156.50" width="6" height="10.94" rx="1.5" fill="#0ecb81" /><line x1="82.73" y1="107.25" x2="82.73" y2="161.97" stroke="#0ecb81" stroke-width="1.4" /><rect x="79.73" y="127.31" width="6" height="29.19" rx="1.5" fill="#0ecb81" /><line x1="93.47" y1="116.37" x2="93.47" y2="165.62" stroke="#f6465d" stroke-width="1.4" /><rect x="90.47" y="127.31" width="6" height="29.19" rx="1.5" fill="#f6465d" /><line x1="104.20" y1="136.44" x2="104.20" y2="171.09" stroke="#0ecb81" stroke-width="1.4" /><rect x="101.20" y="156.50" width="6" height="2.00" rx="1.5" fill="#0ecb81" /><line x1="114.94" y1="127.31" x2="114.94" y2="163.80" stroke="#0ecb81" stroke-width="1.4" /><rect x="111.94" y="138.26" width="6" height="16.42" rx="1.5" fill="#0ecb81" /><line x1="125.67" y1="81.71" x2="125.67" y2="145.56" stroke="#0ecb81" stroke-width="1.4" /><rect x="122.67" y="112.72" width="6" height="25.54" rx="1.5" fill="#0ecb81" /><line x1="136.41" y1="59.82" x2="136.41" y2="130.96" stroke="#f6465d" stroke-width="1.4" /><rect x="133.41" y="109.07" width="6" height="21.89" rx="1.5" fill="#f6465d" /><line x1="147.14" y1="92.66" x2="147.14" y2="141.91" stroke="#0ecb81" stroke-width="1.4" /><rect x="144.14" y="105.43" width="6" height="23.71" rx="1.5" fill="#0ecb81" /><line x1="157.87" y1="58.00" x2="157.87" y2="116.37" stroke="#0ecb81" stroke-width="1.4" /><rect x="154.87" y="72.59" width="6" height="34.66" rx="1.5" fill="#0ecb81" /><line x1="168.61" y1="58.00" x2="168.61" y2="99.95" stroke="#f6465d" stroke-width="1.4" /><rect x="165.61" y="72.59" width="6" height="9.12" rx="1.5" fill="#f6465d" /><line x1="179.34" y1="72.59" x2="179.34" y2="149.20" stroke="#f6465d" stroke-width="1.4" /><rect x="176.34" y="79.89" width="6" height="67.49" rx="1.5" fill="#f6465d" /><line x1="190.08" y1="123.67" x2="190.08" y2="165.62" stroke="#f6465d" stroke-width="1.4" /><rect x="187.08" y="141.91" width="6" height="9.12" rx="1.5" fill="#f6465d" /><line x1="200.81" y1="151.03" x2="200.81" y2="318.84" stroke="#f6465d" stroke-width="1.4" /><rect x="197.81" y="156.50" width="6" height="100.32" rx="1.5" fill="#f6465d" /><line x1="211.54" y1="242.23" x2="211.54" y2="344.38" stroke="#f6465d" stroke-width="1.4" /><rect x="208.54" y="256.82" width="6" height="62.02" rx="1.5" fill="#f6465d" /><line x1="222.28" y1="311.55" x2="222.28" y2="353.50" stroke="#f6465d" stroke-width="1.4" /><rect x="219.28" y="320.67" width="6" height="18.24" rx="1.5" fill="#f6465d" /><line x1="233.01" y1="284.19" x2="233.01" y2="357.15" stroke="#0ecb81" stroke-width="1.4" /><rect x="230.01" y="333.44" width="6" height="5.47" rx="1.5" fill="#0ecb81" /><line x1="243.75" y1="273.24" x2="243.75" y2="337.08" stroke="#0ecb81" stroke-width="1.4" /><rect x="240.75" y="307.90" width="6" height="18.24" rx="1.5" fill="#0ecb81" /><line x1="254.48" y1="256.82" x2="254.48" y2="318.84" stroke="#0ecb81" stroke-width="1.4" /><rect x="251.48" y="260.47" width="6" height="47.43" rx="1.5" fill="#0ecb81" /><line x1="265.22" y1="245.88" x2="265.22" y2="313.37" stroke="#f6465d" stroke-width="1.4" /><rect x="262.22" y="264.12" width="6" height="38.31" rx="1.5" fill="#f6465d" /><line x1="275.95" y1="260.47" x2="275.95" y2="309.72" stroke="#0ecb81" stroke-width="1.4" /><rect x="272.95" y="287.83" width="6" height="14.59" rx="1.5" fill="#0ecb81" /><line x1="286.68" y1="256.82" x2="286.68" y2="300.60" stroke="#0ecb81" stroke-width="1.4" /><rect x="283.68" y="267.77" width="6" height="14.59" rx="1.5" fill="#0ecb81" /><line x1="297.42" y1="251.35" x2="297.42" y2="324.31" stroke="#f6465d" stroke-width="1.4" /><rect x="294.42" y="269.59" width="6" height="38.31" rx="1.5" fill="#f6465d" /><line x1="308.15" y1="265.94" x2="308.15" y2="313.37" stroke="#0ecb81" stroke-width="1.4" /><rect x="305.15" y="269.59" width="6" height="38.31" rx="1.5" fill="#0ecb81" /><line x1="318.89" y1="256.82" x2="318.89" y2="287.83" stroke="#f6465d" stroke-width="1.4" /><rect x="315.89" y="271.42" width="6" height="5.47" rx="1.5" fill="#f6465d" /><line x1="329.62" y1="260.47" x2="329.62" y2="291.48" stroke="#f6465d" stroke-width="1.4" /><rect x="326.62" y="276.89" width="6" height="2.00" rx="1.5" fill="#f6465d" /><line x1="340.35" y1="262.30" x2="340.35" y2="344.38" stroke="#0ecb81" stroke-width="1.4" /><rect x="337.35" y="271.42" width="6" height="5.47" rx="1.5" fill="#0ecb81" /><line x1="351.09" y1="253.18" x2="351.09" y2="317.02" stroke="#f6465d" stroke-width="1.4" /><rect x="348.09" y="264.12" width="6" height="31.01" rx="1.5" fill="#f6465d" /><line x1="361.82" y1="249.53" x2="361.82" y2="306.07" stroke="#0ecb81" stroke-width="1.4" /><rect x="358.82" y="262.30" width="6" height="27.36" rx="1.5" fill="#0ecb81" /><line x1="372.56" y1="234.94" x2="372.56" y2="300.60" stroke="#f6465d" stroke-width="1.4" /><rect x="369.56" y="264.12" width="6" height="25.54" rx="1.5" fill="#f6465d" /><line x1="383.29" y1="258.65" x2="383.29" y2="291.48" stroke="#0ecb81" stroke-width="1.4" /><rect x="380.29" y="260.47" width="6" height="27.36" rx="1.5" fill="#0ecb81" /><line x1="394.03" y1="236.76" x2="394.03" y2="275.06" stroke="#0ecb81" stroke-width="1.4" /><rect x="391.03" y="256.82" width="6" height="3.65" rx="1.5" fill="#0ecb81" /><line x1="404.76" y1="169.27" x2="404.76" y2="256.82" stroke="#0ecb81" stroke-width="1.4" /><rect x="401.76" y="169.27" width="6" height="87.56" rx="1.5" fill="#0ecb81" /><line x1="415.49" y1="169.27" x2="415.49" y2="203.93" stroke="#f6465d" stroke-width="1.4" /><rect x="412.49" y="169.27" width="6" height="14.59" rx="1.5" fill="#f6465d" /><line x1="426.23" y1="176.56" x2="426.23" y2="242.23" stroke="#f6465d" stroke-width="1.4" /><rect x="423.23" y="185.69" width="6" height="18.24" rx="1.5" fill="#f6465d" /><line x1="436.96" y1="185.69" x2="436.96" y2="251.35" stroke="#f6465d" stroke-width="1.4" /><rect x="433.96" y="200.28" width="6" height="18.24" rx="1.5" fill="#f6465d" /><line x1="447.70" y1="191.16" x2="447.70" y2="223.99" stroke="#0ecb81" stroke-width="1.4" /><rect x="444.70" y="218.52" width="6" height="2.00" rx="1.5" fill="#0ecb81" /><line x1="458.43" y1="203.93" x2="458.43" y2="249.53" stroke="#f6465d" stroke-width="1.4" /><rect x="455.43" y="213.05" width="6" height="10.94" rx="1.5" fill="#f6465d" /><line x1="469.16" y1="207.57" x2="469.16" y2="249.53" stroke="#0ecb81" stroke-width="1.4" /><rect x="466.16" y="229.46" width="6" height="2.00" rx="1.5" fill="#0ecb81" /><line x1="479.90" y1="222.17" x2="479.90" y2="276.89" stroke="#f6465d" stroke-width="1.4" /><rect x="476.90" y="233.11" width="6" height="34.66" rx="1.5" fill="#f6465d" /><line x1="490.63" y1="264.12" x2="490.63" y2="324.31" stroke="#f6465d" stroke-width="1.4" /><rect x="487.63" y="267.77" width="6" height="54.72" rx="1.5" fill="#f6465d" /><line x1="501.37" y1="302.43" x2="501.37" y2="355.32" stroke="#f6465d" stroke-width="1.4" /><rect x="498.37" y="322.49" width="6" height="27.36" rx="1.5" fill="#f6465d" /><line x1="512.10" y1="335.26" x2="512.10" y2="388.16" stroke="#f6465d" stroke-width="1.4" /><rect x="509.10" y="349.85" width="6" height="9.12" rx="1.5" fill="#f6465d" /><line x1="522.84" y1="289.66" x2="522.84" y2="364.44" stroke="#0ecb81" stroke-width="1.4" /><rect x="519.84" y="296.95" width="6" height="60.19" rx="1.5" fill="#0ecb81" /><line x1="533.57" y1="238.58" x2="533.57" y2="304.25" stroke="#0ecb81" stroke-width="1.4" /><rect x="530.57" y="273.24" width="6" height="21.89" rx="1.5" fill="#0ecb81" /><line x1="544.30" y1="265.94" x2="544.30" y2="302.43" stroke="#f6465d" stroke-width="1.4" /><rect x="541.30" y="271.42" width="6" height="21.89" rx="1.5" fill="#f6465d" /><line x1="555.04" y1="291.48" x2="555.04" y2="320.67" stroke="#f6465d" stroke-width="1.4" /><rect x="552.04" y="291.48" width="6" height="14.59" rx="1.5" fill="#f6465d" /><line x1="565.77" y1="269.59" x2="565.77" y2="304.25" stroke="#0ecb81" stroke-width="1.4" /><rect x="562.77" y="289.66" width="6" height="14.59" rx="1.5" fill="#0ecb81" /><line x1="576.51" y1="282.36" x2="576.51" y2="315.19" stroke="#f6465d" stroke-width="1.4" /><rect x="573.51" y="287.83" width="6" height="25.54" rx="1.5" fill="#f6465d" /><line x1="587.24" y1="304.25" x2="587.24" y2="348.03" stroke="#f6465d" stroke-width="1.4" /><rect x="584.24" y="311.55" width="6" height="36.48" rx="1.5" fill="#f6465d" /><line x1="597.97" y1="348.03" x2="597.97" y2="384.51" stroke="#f6465d" stroke-width="1.4" /><rect x="594.97" y="348.03" width="6" height="12.77" rx="1.5" fill="#f6465d" /><line x1="608.71" y1="326.14" x2="608.71" y2="364.44" stroke="#0ecb81" stroke-width="1.4" /><rect x="605.71" y="358.97" width="6" height="2.00" rx="1.5" fill="#0ecb81" /><line x1="619.44" y1="353.50" x2="619.44" y2="375.39" stroke="#f6465d" stroke-width="1.4" /><rect x="616.44" y="358.97" width="6" height="3.65" rx="1.5" fill="#f6465d" /><line x1="630.18" y1="358.97" x2="630.18" y2="371.74" stroke="#0ecb81" stroke-width="1.4" /><rect x="627.18" y="358.97" width="6" height="3.65" rx="1.5" fill="#0ecb81" /><line x1="640.91" y1="349.85" x2="640.91" y2="369.92" stroke="#f6465d" stroke-width="1.4" /><rect x="637.91" y="358.97" width="6" height="7.30" rx="1.5" fill="#f6465d" /><line x1="651.65" y1="360.80" x2="651.65" y2="379.04" stroke="#f6465d" stroke-width="1.4" /><rect x="648.65" y="364.44" width="6" height="10.94" rx="1.5" fill="#f6465d" /><line x1="662.38" y1="375.39" x2="662.38" y2="419.17" stroke="#f6465d" stroke-width="1.4" /><rect x="659.38" y="377.21" width="6" height="16.42" rx="1.5" fill="#f6465d" /><line x1="673.11" y1="375.39" x2="673.11" y2="411.87" stroke="#0ecb81" stroke-width="1.4" /><rect x="670.11" y="393.63" width="6" height="2.00" rx="1.5" fill="#0ecb81" /><line x1="683.85" y1="386.33" x2="683.85" y2="430.11" stroke="#f6465d" stroke-width="1.4" /><rect x="680.85" y="391.81" width="6" height="34.66" rx="1.5" fill="#f6465d" /><line x1="694.58" y1="411.87" x2="694.58" y2="431.94" stroke="#0ecb81" stroke-width="1.4" /><rect x="691.58" y="422.81" width="6" height="2.00" rx="1.5" fill="#0ecb81" /><line x1="705.32" y1="408.22" x2="705.32" y2="422.81" stroke="#0ecb81" stroke-width="1.4" /><rect x="702.32" y="413.69" width="6" height="3.65" rx="1.5" fill="#0ecb81" /><line x1="716.05" y1="413.69" x2="716.05" y2="452.00" stroke="#f6465d" stroke-width="1.4" /><rect x="713.05" y="413.69" width="6" height="21.89" rx="1.5" fill="#f6465d" /><line x1="726.78" y1="422.81" x2="726.78" y2="444.70" stroke="#f6465d" stroke-width="1.4" /><rect x="723.78" y="435.58" width="6" height="2.00" rx="1.5" fill="#f6465d" /><line x1="737.52" y1="402.75" x2="737.52" y2="444.70" stroke="#0ecb81" stroke-width="1.4" /><rect x="734.52" y="420.99" width="6" height="14.59" rx="1.5" fill="#0ecb81" /><line x1="748.25" y1="384.51" x2="748.25" y2="420.99" stroke="#0ecb81" stroke-width="1.4" /><rect x="745.25" y="391.81" width="6" height="29.19" rx="1.5" fill="#0ecb81" /><line x1="758.99" y1="369.92" x2="758.99" y2="389.98" stroke="#0ecb81" stroke-width="1.4" /><rect x="755.99" y="369.92" width="6" height="20.06" rx="1.5" fill="#0ecb81" /><line x1="769.72" y1="360.80" x2="769.72" y2="393.63" stroke="#f6465d" stroke-width="1.4" /><rect x="766.72" y="371.74" width="6" height="5.47" rx="1.5" fill="#f6465d" /><line x1="780.46" y1="362.62" x2="780.46" y2="411.87" stroke="#f6465d" stroke-width="1.4" /><rect x="777.46" y="377.21" width="6" height="7.30" rx="1.5" fill="#f6465d" /><line x1="791.19" y1="368.09" x2="791.19" y2="419.17" stroke="#f6465d" stroke-width="1.4" /><rect x="788.19" y="384.51" width="6" height="25.54" rx="1.5" fill="#f6465d" /><line x1="801.92" y1="289.66" x2="801.92" y2="410.05" stroke="#0ecb81" stroke-width="1.4" /><rect x="798.92" y="296.95" width="6" height="105.80" rx="1.5" fill="#0ecb81" /><line x1="812.66" y1="291.48" x2="812.66" y2="406.40" stroke="#f6465d" stroke-width="1.4" /><rect x="809.66" y="295.13" width="6" height="78.44" rx="1.5" fill="#f6465d" /><line x1="823.39" y1="358.97" x2="823.39" y2="388.16" stroke="#0ecb81" stroke-width="1.4" /><rect x="820.39" y="360.80" width="6" height="12.77" rx="1.5" fill="#0ecb81" /><line x1="834.13" y1="351.68" x2="834.13" y2="382.69" stroke="#f6465d" stroke-width="1.4" /><rect x="831.13" y="360.80" width="6" height="10.94" rx="1.5" fill="#f6465d" /><line x1="844.86" y1="373.56" x2="844.86" y2="435.58" stroke="#f6465d" stroke-width="1.4" /><rect x="841.86" y="377.21" width="6" height="18.24" rx="1.5" fill="#f6465d" /><line x1="855.59" y1="379.04" x2="855.59" y2="415.52" stroke="#f6465d" stroke-width="1.4" /><rect x="852.59" y="395.45" width="6" height="12.77" rx="1.5" fill="#f6465d" /><line x1="866.33" y1="373.56" x2="866.33" y2="433.76" stroke="#0ecb81" stroke-width="1.4" /><rect x="863.33" y="391.81" width="6" height="10.94" rx="1.5" fill="#0ecb81" /><line x1="877.06" y1="386.33" x2="877.06" y2="428.29" stroke="#f6465d" stroke-width="1.4" /><rect x="874.06" y="393.63" width="6" height="23.71" rx="1.5" fill="#f6465d" /><line x1="887.80" y1="379.04" x2="887.80" y2="433.76" stroke="#0ecb81" stroke-width="1.4" /><rect x="884.80" y="397.28" width="6" height="23.71" rx="1.5" fill="#0ecb81" /><line x1="898.53" y1="331.61" x2="898.53" y2="404.57" stroke="#0ecb81" stroke-width="1.4" /><rect x="895.53" y="362.62" width="6" height="38.31" rx="1.5" fill="#0ecb81" /><line x1="909.27" y1="337.08" x2="909.27" y2="379.04" stroke="#f6465d" stroke-width="1.4" /><rect x="906.27" y="362.62" width="6" height="7.30" rx="1.5" fill="#f6465d" /><line x1="920.00" y1="327.96" x2="920.00" y2="375.39" stroke="#0ecb81" stroke-width="1.4" /><rect x="917.00" y="338.91" width="6" height="29.19" rx="1.5" fill="#0ecb81" />
  <polyline points="168.61,58.00 233.01,357.15 265.22,245.88 340.35,344.38 415.49,169.27" fill="none" stroke="#2fc273" stroke-width="4" stroke-linecap="round" stroke-linejoin="round" />
  <circle cx="168.61" cy="58.00" r="5.5" fill="#2fc273" fill-opacity="0.15" stroke="#2fc273" stroke-width="2" /><text x="168.61" y="46.00" fill="#f3f4f6" font-size="15" font-weight="700" text-anchor="middle">X</text><circle cx="233.01" cy="357.15" r="5.5" fill="#2fc273" fill-opacity="0.15" stroke="#2fc273" stroke-width="2" /><text x="233.01" y="345.15" fill="#f3f4f6" font-size="15" font-weight="700" text-anchor="middle">A</text><circle cx="265.22" cy="245.88" r="5.5" fill="#2fc273" fill-opacity="0.15" stroke="#2fc273" stroke-width="2" /><text x="265.22" y="233.88" fill="#f3f4f6" font-size="15" font-weight="700" text-anchor="middle">B</text><circle cx="340.35" cy="344.38" r="5.5" fill="#2fc273" fill-opacity="0.15" stroke="#2fc273" stroke-width="2" /><text x="340.35" y="332.38" fill="#f3f4f6" font-size="15" font-weight="700" text-anchor="middle">C</text><circle cx="415.49" cy="169.27" r="5.5" fill="#2fc273" fill-opacity="0.15" stroke="#2fc273" stroke-width="2" /><text x="415.49" y="157.27" fill="#f3f4f6" font-size="15" font-weight="700" text-anchor="middle">D</text>
  <text x="56" y="492" fill="#8ba0b5" font-size="18">일반 완성 · TP1 0.081983 · TP2 0.081757 · SL 0.082563</text>
</svg>
