<svg xmlns="http://www.w3.org/2000/svg" width="960" height="540" viewBox="0 0 960 540">
  <rect width="960" height="540" rx="24" fill="#0b1220" />
  <rect x="28" y="28" width="904" height="484" rx="22" fill="#111827" stroke="#1f2937" />
  <text x="56" y="74" fill="#f3f4f6" font-size="34" font-weight="700">HUSDT · AB=CD</text>
  <text x="904" y="74" fill="#8ba0b5" font-size="20" text-anchor="end">Bullish (매수) · Score 88.3</text>
  <line x1="72" y1="58" x2="920" y2="58" stroke="#223045" stroke-width="1" stroke-dasharray="4 8" /><line x1="72" y1="156" x2="920" y2="156" stroke="#223045" stroke-width="1" stroke-dasharray="4 8" /><line x1="72" y1="255" x2="920" y2="255" stroke="#223045" stroke-width="1" stroke-dasharray="4 8" /><line x1="72" y1="353" x2="920" y2="353" stroke="#223045" stroke-width="1" stroke-dasharray="4 8" /><line x1="72" y1="452" x2="920" y2="452" stroke="#223045" stroke-width="1" stroke-dasharray="4 8" />
  <rect x="688.05" y="266.38" width="84" height="37.44" fill="#fbbf24" fill-opacity="0.12" stroke="#fbbf24" stroke-width="1.5" stroke-dasharray="6 6" />
  <line x1="72.00" y1="293.69" x2="72.00" y2="340.83" stroke="#0ecb81" stroke-width="1.4" /><rect x="69.00" y="301.69" width="6" height="25.79" rx="1.5" fill="#0ecb81" /><line x1="82.73" y1="301.69" x2="82.73" y2="347.05" stroke="#f6465d" stroke-width="1.4" /><rect x="79.73" y="304.36" width="6" height="8.00" rx="1.5" fill="#f6465d" /><line x1="93.47" y1="296.36" x2="93.47" y2="339.94" stroke="#f6465d" stroke-width="1.4" /><rect x="90.47" y="312.37" width="6" height="23.12" rx="1.5" fill="#f6465d" /><line x1="104.20" y1="271.45" x2="104.20" y2="346.16" stroke="#0ecb81" stroke-width="1.4" /><rect x="101.20" y="274.12" width="6" height="62.26" rx="1.5" fill="#0ecb81" /><line x1="114.94" y1="250.11" x2="114.94" y2="293.69" stroke="#f6465d" stroke-width="1.4" /><rect x="111.94" y="273.23" width="6" height="17.79" rx="1.5" fill="#f6465d" /><line x1="125.67" y1="283.91" x2="125.67" y2="327.49" stroke="#f6465d" stroke-width="1.4" /><rect x="122.67" y="291.91" width="6" height="33.80" rx="1.5" fill="#f6465d" /><line x1="136.41" y1="276.79" x2="136.41" y2="356.84" stroke="#0ecb81" stroke-width="1.4" /><rect x="133.41" y="307.03" width="6" height="16.01" rx="1.5" fill="#0ecb81" /><line x1="147.14" y1="305.25" x2="147.14" y2="380.85" stroke="#f6465d" stroke-width="1.4" /><rect x="144.14" y="307.92" width="6" height="66.70" rx="1.5" fill="#f6465d" /><line x1="157.87" y1="323.04" x2="157.87" y2="382.63" stroke="#0ecb81" stroke-width="1.4" /><rect x="154.87" y="355.06" width="6" height="17.79" rx="1.5" fill="#0ecb81" /><line x1="168.61" y1="320.37" x2="168.61" y2="360.39" stroke="#0ecb81" stroke-width="1.4" /><rect x="165.61" y="339.05" width="6" height="16.90" rx="1.5" fill="#0ecb81" /><line x1="179.34" y1="314.14" x2="179.34" y2="347.94" stroke="#f6465d" stroke-width="1.4" /><rect x="176.34" y="341.72" width="6" height="4.45" rx="1.5" fill="#f6465d" /><line x1="190.08" y1="325.71" x2="190.08" y2="353.28" stroke="#0ecb81" stroke-width="1.4" /><rect x="187.08" y="343.49" width="6" height="2.67" rx="1.5" fill="#0ecb81" /><line x1="200.81" y1="309.70" x2="200.81" y2="354.17" stroke="#f6465d" stroke-width="1.4" /><rect x="197.81" y="339.94" width="6" height="8.00" rx="1.5" fill="#f6465d" /><line x1="211.54" y1="337.27" x2="211.54" y2="375.51" stroke="#f6465d" stroke-width="1.4" /><rect x="208.54" y="347.94" width="6" height="27.57" rx="1.5" fill="#f6465d" /><line x1="222.28" y1="351.50" x2="222.28" y2="427.10" stroke="#f6465d" stroke-width="1.4" /><rect x="219.28" y="375.51" width="6" height="42.69" rx="1.5" fill="#f6465d" /><line x1="233.01" y1="405.75" x2="233.01" y2="452.00" stroke="#f6465d" stroke-width="1.4" /><rect x="230.01" y="416.42" width="6" height="14.23" rx="1.5" fill="#f6465d" /><line x1="243.75" y1="400.42" x2="243.75" y2="452.00" stroke="#0ecb81" stroke-width="1.4" /><rect x="240.75" y="421.76" width="6" height="8.89" rx="1.5" fill="#0ecb81" /><line x1="254.48" y1="403.08" x2="254.48" y2="445.77" stroke="#0ecb81" stroke-width="1.4" /><rect x="251.48" y="418.20" width="6" height="2.00" rx="1.5" fill="#0ecb81" /><line x1="265.22" y1="379.96" x2="265.22" y2="427.10" stroke="#0ecb81" stroke-width="1.4" /><rect x="262.22" y="387.96" width="6" height="28.46" rx="1.5" fill="#0ecb81" /><line x1="275.95" y1="324.82" x2="275.95" y2="395.97" stroke="#0ecb81" stroke-width="1.4" /><rect x="272.95" y="329.26" width="6" height="59.59" rx="1.5" fill="#0ecb81" /><line x1="286.68" y1="230.54" x2="286.68" y2="333.71" stroke="#0ecb81" stroke-width="1.4" /><rect x="283.68" y="235.88" width="6" height="94.28" rx="1.5" fill="#0ecb81" /><line x1="297.42" y1="171.84" x2="297.42" y2="283.91" stroke="#f6465d" stroke-width="1.4" /><rect x="294.42" y="238.55" width="6" height="31.13" rx="1.5" fill="#f6465d" /><line x1="308.15" y1="210.98" x2="308.15" y2="273.23" stroke="#0ecb81" stroke-width="1.4" /><rect x="305.15" y="237.66" width="6" height="32.02" rx="1.5" fill="#0ecb81" /><line x1="318.89" y1="220.76" x2="318.89" y2="269.67" stroke="#f6465d" stroke-width="1.4" /><rect x="315.89" y="238.55" width="6" height="16.01" rx="1.5" fill="#f6465d" /><line x1="329.62" y1="227.87" x2="329.62" y2="273.23" stroke="#f6465d" stroke-width="1.4" /><rect x="326.62" y="254.56" width="6" height="14.23" rx="1.5" fill="#f6465d" /><line x1="340.35" y1="252.78" x2="340.35" y2="291.02" stroke="#f6465d" stroke-width="1.4" /><rect x="337.35" y="267.90" width="6" height="11.56" rx="1.5" fill="#f6465d" /><line x1="351.09" y1="253.67" x2="351.09" y2="323.04" stroke="#f6465d" stroke-width="1.4" /><rect x="348.09" y="279.46" width="6" height="30.24" rx="1.5" fill="#f6465d" /><line x1="361.82" y1="249.22" x2="361.82" y2="310.59" stroke="#0ecb81" stroke-width="1.4" /><rect x="358.82" y="280.35" width="6" height="30.24" rx="1.5" fill="#0ecb81" /><line x1="372.56" y1="276.79" x2="372.56" y2="306.14" stroke="#f6465d" stroke-width="1.4" /><rect x="369.56" y="282.13" width="6" height="4.45" rx="1.5" fill="#f6465d" /><line x1="383.29" y1="264.34" x2="383.29" y2="305.25" stroke="#0ecb81" stroke-width="1.4" /><rect x="380.29" y="287.46" width="6" height="2.00" rx="1.5" fill="#0ecb81" /><line x1="394.03" y1="216.31" x2="394.03" y2="305.25" stroke="#0ecb81" stroke-width="1.4" /><rect x="391.03" y="218.09" width="6" height="68.48" rx="1.5" fill="#0ecb81" /><line x1="404.76" y1="194.08" x2="404.76" y2="247.44" stroke="#f6465d" stroke-width="1.4" /><rect x="401.76" y="217.20" width="6" height="18.68" rx="1.5" fill="#f6465d" /><line x1="415.49" y1="204.75" x2="415.49" y2="238.55" stroke="#0ecb81" stroke-width="1.4" /><rect x="412.49" y="223.43" width="6" height="8.89" rx="1.5" fill="#0ecb81" /><line x1="426.23" y1="192.30" x2="426.23" y2="238.55" stroke="#0ecb81" stroke-width="1.4" /><rect x="423.23" y="210.09" width="6" height="14.23" rx="1.5" fill="#0ecb81" /><line x1="436.96" y1="151.39" x2="436.96" y2="216.31" stroke="#0ecb81" stroke-width="1.4" /><rect x="433.96" y="157.61" width="6" height="56.92" rx="1.5" fill="#0ecb81" /><line x1="447.70" y1="140.71" x2="447.70" y2="175.40" stroke="#f6465d" stroke-width="1.4" /><rect x="444.70" y="156.72" width="6" height="9.78" rx="1.5" fill="#f6465d" /><line x1="458.43" y1="118.48" x2="458.43" y2="182.51" stroke="#0ecb81" stroke-width="1.4" /><rect x="455.43" y="120.26" width="6" height="45.36" rx="1.5" fill="#0ecb81" /><line x1="469.16" y1="107.81" x2="469.16" y2="148.72" stroke="#f6465d" stroke-width="1.4" /><rect x="466.16" y="118.48" width="6" height="3.56" rx="1.5" fill="#f6465d" /><line x1="479.90" y1="117.59" x2="479.90" y2="149.61" stroke="#f6465d" stroke-width="1.4" /><rect x="476.90" y="120.26" width="6" height="2.00" rx="1.5" fill="#f6465d" /><line x1="490.63" y1="114.03" x2="490.63" y2="162.06" stroke="#f6465d" stroke-width="1.4" /><rect x="487.63" y="122.04" width="6" height="29.35" rx="1.5" fill="#f6465d" /><line x1="501.37" y1="148.72" x2="501.37" y2="226.98" stroke="#f6465d" stroke-width="1.4" /><rect x="498.37" y="153.16" width="6" height="51.58" rx="1.5" fill="#f6465d" /><line x1="512.10" y1="186.96" x2="512.10" y2="226.09" stroke="#0ecb81" stroke-width="1.4" /><rect x="509.10" y="196.74" width="6" height="4.45" rx="1.5" fill="#0ecb81" /><line x1="522.84" y1="155.83" x2="522.84" y2="210.98" stroke="#0ecb81" stroke-width="1.4" /><rect x="519.84" y="168.28" width="6" height="30.24" rx="1.5" fill="#0ecb81" /><line x1="533.57" y1="149.61" x2="533.57" y2="175.40" stroke="#0ecb81" stroke-width="1.4" /><rect x="530.57" y="161.17" width="6" height="7.12" rx="1.5" fill="#0ecb81" /><line x1="544.30" y1="150.50" x2="544.30" y2="186.96" stroke="#f6465d" stroke-width="1.4" /><rect x="541.30" y="161.17" width="6" height="12.45" rx="1.5" fill="#f6465d" /><line x1="555.04" y1="94.47" x2="555.04" y2="173.62" stroke="#0ecb81" stroke-width="1.4" /><rect x="552.04" y="106.03" width="6" height="65.81" rx="1.5" fill="#0ecb81" /><line x1="565.77" y1="87.35" x2="565.77" y2="154.94" stroke="#f6465d" stroke-width="1.4" /><rect x="562.77" y="105.14" width="6" height="13.34" rx="1.5" fill="#f6465d" /><line x1="576.51" y1="106.92" x2="576.51" y2="162.95" stroke="#f6465d" stroke-width="1.4" /><rect x="573.51" y="121.15" width="6" height="15.12" rx="1.5" fill="#f6465d" /><line x1="587.24" y1="114.92" x2="587.24" y2="172.73" stroke="#f6465d" stroke-width="1.4" /><rect x="584.24" y="138.93" width="6" height="30.24" rx="1.5" fill="#f6465d" /><line x1="597.97" y1="167.40" x2="597.97" y2="210.09" stroke="#f6465d" stroke-width="1.4" /><rect x="594.97" y="169.17" width="6" height="9.78" rx="1.5" fill="#f6465d" /><line x1="608.71" y1="171.84" x2="608.71" y2="218.98" stroke="#f6465d" stroke-width="1.4" /><rect x="605.71" y="179.85" width="6" height="21.35" rx="1.5" fill="#f6465d" /><line x1="619.44" y1="177.18" x2="619.44" y2="211.86" stroke="#0ecb81" stroke-width="1.4" /><rect x="616.44" y="196.74" width="6" height="3.56" rx="1.5" fill="#0ecb81" /><line x1="630.18" y1="159.39" x2="630.18" y2="221.65" stroke="#0ecb81" stroke-width="1.4" /><rect x="627.18" y="195.86" width="6" height="3.56" rx="1.5" fill="#0ecb81" /><line x1="640.91" y1="168.28" x2="640.91" y2="218.09" stroke="#0ecb81" stroke-width="1.4" /><rect x="637.91" y="195.86" width="6" height="3.56" rx="1.5" fill="#0ecb81" /><line x1="651.65" y1="174.51" x2="651.65" y2="208.31" stroke="#0ecb81" stroke-width="1.4" /><rect x="648.65" y="188.74" width="6" height="7.12" rx="1.5" fill="#0ecb81" /><line x1="662.38" y1="181.63" x2="662.38" y2="213.64" stroke="#f6465d" stroke-width="1.4" /><rect x="659.38" y="190.52" width="6" height="8.89" rx="1.5" fill="#f6465d" /><line x1="673.11" y1="170.06" x2="673.11" y2="209.20" stroke="#f6465d" stroke-width="1.4" /><rect x="670.11" y="198.52" width="6" height="3.56" rx="1.5" fill="#f6465d" /><line x1="683.85" y1="162.95" x2="683.85" y2="219.87" stroke="#0ecb81" stroke-width="1.4" /><rect x="680.85" y="180.74" width="6" height="21.35" rx="1.5" fill="#0ecb81" /><line x1="694.58" y1="164.73" x2="694.58" y2="202.97" stroke="#f6465d" stroke-width="1.4" /><rect x="691.58" y="181.63" width="6" height="18.68" rx="1.5" fill="#f6465d" /><line x1="705.32" y1="178.07" x2="705.32" y2="205.64" stroke="#0ecb81" stroke-width="1.4" /><rect x="702.32" y="194.97" width="6" height="5.34" rx="1.5" fill="#0ecb81" /><line x1="716.05" y1="194.97" x2="716.05" y2="251.00" stroke="#f6465d" stroke-width="1.4" /><rect x="713.05" y="194.97" width="6" height="39.13" rx="1.5" fill="#f6465d" /><line x1="726.78" y1="212.75" x2="726.78" y2="240.33" stroke="#f6465d" stroke-width="1.4" /><rect x="723.78" y="229.65" width="6" height="2.00" rx="1.5" fill="#f6465d" /><line x1="737.52" y1="153.16" x2="737.52" y2="243.88" stroke="#0ecb81" stroke-width="1.4" /><rect x="734.52" y="157.61" width="6" height="71.15" rx="1.5" fill="#0ecb81" /><line x1="748.25" y1="97.13" x2="748.25" y2="156.72" stroke="#0ecb81" stroke-width="1.4" /><rect x="745.25" y="103.36" width="6" height="53.36" rx="1.5" fill="#0ecb81" /><line x1="758.99" y1="104.25" x2="758.99" y2="152.28" stroke="#f6465d" stroke-width="1.4" /><rect x="755.99" y="104.25" width="6" height="44.47" rx="1.5" fill="#f6465d" /><line x1="769.72" y1="109.58" x2="769.72" y2="155.83" stroke="#0ecb81" stroke-width="1.4" /><rect x="766.72" y="118.48" width="6" height="30.24" rx="1.5" fill="#0ecb81" /><line x1="780.46" y1="91.80" x2="780.46" y2="152.28" stroke="#0ecb81" stroke-width="1.4" /><rect x="777.46" y="104.25" width="6" height="14.23" rx="1.5" fill="#0ecb81" /><line x1="791.19" y1="94.47" x2="791.19" y2="114.92" stroke="#0ecb81" stroke-width="1.4" /><rect x="788.19" y="98.02" width="6" height="7.12" rx="1.5" fill="#0ecb81" /><line x1="801.92" y1="92.69" x2="801.92" y2="119.37" stroke="#f6465d" stroke-width="1.4" /><rect x="798.92" y="98.91" width="6" height="3.56" rx="1.5" fill="#f6465d" /><line x1="812.66" y1="58.00" x2="812.66" y2="106.03" stroke="#0ecb81" stroke-width="1.4" /><rect x="809.66" y="77.57" width="6" height="24.90" rx="1.5" fill="#0ecb81" /><line x1="823.39" y1="59.78" x2="823.39" y2="100.69" stroke="#f6465d" stroke-width="1.4" /><rect x="820.39" y="76.68" width="6" height="24.01" rx="1.5" fill="#f6465d" /><line x1="834.13" y1="101.58" x2="834.13" y2="133.60" stroke="#f6465d" stroke-width="1.4" /><rect x="831.13" y="101.58" width="6" height="30.24" rx="1.5" fill="#f6465d" /><line x1="844.86" y1="131.82" x2="844.86" y2="179.85" stroke="#f6465d" stroke-width="1.4" /><rect x="841.86" y="131.82" width="6" height="39.13" rx="1.5" fill="#f6465d" /><line x1="855.59" y1="156.72" x2="855.59" y2="175.40" stroke="#0ecb81" stroke-width="1.4" /><rect x="852.59" y="161.17" width="6" height="8.89" rx="1.5" fill="#0ecb81" /><line x1="866.33" y1="139.82" x2="866.33" y2="168.28" stroke="#0ecb81" stroke-width="1.4" /><rect x="863.33" y="147.83" width="6" height="13.34" rx="1.5" fill="#0ecb81" /><line x1="877.06" y1="133.60" x2="877.06" y2="188.74" stroke="#f6465d" stroke-width="1.4" /><rect x="874.06" y="147.83" width="6" height="35.58" rx="1.5" fill="#f6465d" /><line x1="887.80" y1="183.40" x2="887.80" y2="227.87" stroke="#f6465d" stroke-width="1.4" /><rect x="884.80" y="183.40" width="6" height="37.35" rx="1.5" fill="#f6465d" /><line x1="898.53" y1="195.86" x2="898.53" y2="223.43" stroke="#0ecb81" stroke-width="1.4" /><rect x="895.53" y="207.42" width="6" height="13.34" rx="1.5" fill="#0ecb81" /><line x1="909.27" y1="196.74" x2="909.27" y2="225.21" stroke="#f6465d" stroke-width="1.4" /><rect x="906.27" y="207.42" width="6" height="11.56" rx="1.5" fill="#f6465d" /><line x1="920.00" y1="205.64" x2="920.00" y2="218.98" stroke="#0ecb81" stroke-width="1.4" /><rect x="917.00" y="210.98" width="6" height="7.12" rx="1.5" fill="#0ecb81" />
  <polyline points="501.37,226.98 565.77,87.35 630.18,221.65 683.85,162.95 716.05,251.00" fill="none" stroke="#2fc273" stroke-width="4" stroke-linecap="round" stroke-linejoin="round" />
  <circle cx="501.37" cy="226.98" r="5.5" fill="#2fc273" fill-opacity="0.15" stroke="#2fc273" stroke-width="2" /><text x="501.37" y="214.98" fill="#f3f4f6" font-size="15" font-weight="700" text-anchor="middle">X</text><circle cx="565.77" cy="87.35" r="5.5" fill="#2fc273" fill-opacity="0.15" stroke="#2fc273" stroke-width="2" /><text x="565.77" y="75.35" fill="#f3f4f6" font-size="15" font-weight="700" text-anchor="middle">A</text><circle cx="630.18" cy="221.65" r="5.5" fill="#2fc273" fill-opacity="0.15" stroke="#2fc273" stroke-width="2" /><text x="630.18" y="209.65" fill="#f3f4f6" font-size="15" font-weight="700" text-anchor="middle">B</text><circle cx="683.85" cy="162.95" r="5.5" fill="#2fc273" fill-opacity="0.15" stroke="#2fc273" stroke-width="2" /><text x="683.85" y="150.95" fill="#f3f4f6" font-size="15" font-weight="700" text-anchor="middle">C</text><circle cx="716.05" cy="251.00" r="5.5" fill="#2fc273" fill-opacity="0.15" stroke="#2fc273" stroke-width="2" /><text x="716.05" y="239.00" fill="#f3f4f6" font-size="15" font-weight="700" text-anchor="middle">D</text>
  <text x="56" y="492" fill="#8ba0b5" font-size="18">일반 완성 · TP1 0.084908 · TP2 0.085142 · SL 0.084326</text>
</svg>
