<svg xmlns="http://www.w3.org/2000/svg" width="960" height="540" viewBox="0 0 960 540">
  <rect width="960" height="540" rx="24" fill="#0b1220" />
  <rect x="28" y="28" width="904" height="484" rx="22" fill="#111827" stroke="#1f2937" />
  <text x="56" y="74" fill="#f3f4f6" font-size="34" font-weight="700">HYPEUSDT · AB=CD</text>
  <text x="904" y="74" fill="#8ba0b5" font-size="20" text-anchor="end">Bearish (매도) · Score 88.9</text>
  <line x1="72" y1="58" x2="920" y2="58" stroke="#223045" stroke-width="1" stroke-dasharray="4 8" /><line x1="72" y1="156" x2="920" y2="156" stroke="#223045" stroke-width="1" stroke-dasharray="4 8" /><line x1="72" y1="255" x2="920" y2="255" stroke="#223045" stroke-width="1" stroke-dasharray="4 8" /><line x1="72" y1="353" x2="920" y2="353" stroke="#223045" stroke-width="1" stroke-dasharray="4 8" /><line x1="72" y1="452" x2="920" y2="452" stroke="#223045" stroke-width="1" stroke-dasharray="4 8" />
  <rect x="677.32" y="-5.86" width="84" height="64.61" fill="#fbbf24" fill-opacity="0.12" stroke="#fbbf24" stroke-width="1.5" stroke-dasharray="6 6" />
  <line x1="72.00" y1="402.78" x2="72.00" y2="417.42" stroke="#f6465d" stroke-width="1.4" /><rect x="69.00" y="413.38" width="6" height="2.78" rx="1.5" fill="#f6465d" /><line x1="82.73" y1="413.13" x2="82.73" y2="422.22" stroke="#f6465d" stroke-width="1.4" /><rect x="79.73" y="416.16" width="6" height="2.27" rx="1.5" fill="#f6465d" /><line x1="93.47" y1="417.67" x2="93.47" y2="428.02" stroke="#f6465d" stroke-width="1.4" /><rect x="90.47" y="418.43" width="6" height="3.53" rx="1.5" fill="#f6465d" /><line x1="104.20" y1="409.34" x2="104.20" y2="423.73" stroke="#0ecb81" stroke-width="1.4" /><rect x="101.20" y="412.63" width="6" height="9.34" rx="1.5" fill="#0ecb81" /><line x1="114.94" y1="405.05" x2="114.94" y2="412.88" stroke="#0ecb81" stroke-width="1.4" /><rect x="111.94" y="405.56" width="6" height="7.07" rx="1.5" fill="#0ecb81" /><line x1="125.67" y1="393.95" x2="125.67" y2="405.31" stroke="#0ecb81" stroke-width="1.4" /><rect x="122.67" y="397.48" width="6" height="7.82" rx="1.5" fill="#0ecb81" /><line x1="136.41" y1="387.64" x2="136.41" y2="397.48" stroke="#0ecb81" stroke-width="1.4" /><rect x="133.41" y="387.89" width="6" height="9.59" rx="1.5" fill="#0ecb81" /><line x1="147.14" y1="376.28" x2="147.14" y2="391.93" stroke="#0ecb81" stroke-width="1.4" /><rect x="144.14" y="379.06" width="6" height="8.58" rx="1.5" fill="#0ecb81" /><line x1="157.87" y1="377.79" x2="157.87" y2="406.32" stroke="#f6465d" stroke-width="1.4" /><rect x="154.87" y="379.31" width="6" height="20.95" rx="1.5" fill="#f6465d" /><line x1="168.61" y1="381.33" x2="168.61" y2="408.59" stroke="#0ecb81" stroke-width="1.4" /><rect x="165.61" y="392.94" width="6" height="7.32" rx="1.5" fill="#0ecb81" /><line x1="179.34" y1="387.64" x2="179.34" y2="409.85" stroke="#f6465d" stroke-width="1.4" /><rect x="176.34" y="393.19" width="6" height="2.00" rx="1.5" fill="#f6465d" /><line x1="190.08" y1="394.45" x2="190.08" y2="451.50" stroke="#f6465d" stroke-width="1.4" /><rect x="187.08" y="394.96" width="6" height="39.88" rx="1.5" fill="#f6465d" /><line x1="200.81" y1="417.67" x2="200.81" y2="439.88" stroke="#f6465d" stroke-width="1.4" /><rect x="197.81" y="434.84" width="6" height="4.04" rx="1.5" fill="#f6465d" /><line x1="211.54" y1="423.48" x2="211.54" y2="449.22" stroke="#0ecb81" stroke-width="1.4" /><rect x="208.54" y="429.03" width="6" height="9.84" rx="1.5" fill="#0ecb81" /><line x1="222.28" y1="427.52" x2="222.28" y2="452.00" stroke="#f6465d" stroke-width="1.4" /><rect x="219.28" y="429.03" width="6" height="11.86" rx="1.5" fill="#f6465d" /><line x1="233.01" y1="422.47" x2="233.01" y2="445.19" stroke="#0ecb81" stroke-width="1.4" /><rect x="230.01" y="433.32" width="6" height="7.57" rx="1.5" fill="#0ecb81" /><line x1="243.75" y1="414.39" x2="243.75" y2="443.42" stroke="#0ecb81" stroke-width="1.4" /><rect x="240.75" y="414.64" width="6" height="18.68" rx="1.5" fill="#0ecb81" /><line x1="254.48" y1="370.47" x2="254.48" y2="422.47" stroke="#0ecb81" stroke-width="1.4" /><rect x="251.48" y="381.58" width="6" height="33.06" rx="1.5" fill="#0ecb81" /><line x1="265.22" y1="301.82" x2="265.22" y2="381.07" stroke="#0ecb81" stroke-width="1.4" /><rect x="262.22" y="304.85" width="6" height="76.23" rx="1.5" fill="#0ecb81" /><line x1="275.95" y1="304.85" x2="275.95" y2="324.54" stroke="#f6465d" stroke-width="1.4" /><rect x="272.95" y="305.10" width="6" height="8.08" rx="1.5" fill="#f6465d" /><line x1="286.68" y1="290.71" x2="286.68" y2="332.11" stroke="#0ecb81" stroke-width="1.4" /><rect x="283.68" y="299.30" width="6" height="13.88" rx="1.5" fill="#0ecb81" /><line x1="297.42" y1="274.56" x2="297.42" y2="304.09" stroke="#0ecb81" stroke-width="1.4" /><rect x="294.42" y="280.62" width="6" height="18.68" rx="1.5" fill="#0ecb81" /><line x1="308.15" y1="236.45" x2="308.15" y2="282.39" stroke="#0ecb81" stroke-width="1.4" /><rect x="305.15" y="247.30" width="6" height="33.32" rx="1.5" fill="#0ecb81" /><line x1="318.89" y1="187.99" x2="318.89" y2="248.06" stroke="#0ecb81" stroke-width="1.4" /><rect x="315.89" y="190.01" width="6" height="58.05" rx="1.5" fill="#0ecb81" /><line x1="329.62" y1="143.31" x2="329.62" y2="190.26" stroke="#0ecb81" stroke-width="1.4" /><rect x="326.62" y="160.73" width="6" height="29.28" rx="1.5" fill="#0ecb81" /><line x1="340.35" y1="148.36" x2="340.35" y2="179.91" stroke="#0ecb81" stroke-width="1.4" /><rect x="337.35" y="156.94" width="6" height="3.53" rx="1.5" fill="#0ecb81" /><line x1="351.09" y1="136.75" x2="351.09" y2="160.22" stroke="#0ecb81" stroke-width="1.4" /><rect x="348.09" y="151.89" width="6" height="5.05" rx="1.5" fill="#0ecb81" /><line x1="361.82" y1="119.84" x2="361.82" y2="153.66" stroke="#0ecb81" stroke-width="1.4" /><rect x="358.82" y="133.47" width="6" height="18.68" rx="1.5" fill="#0ecb81" /><line x1="372.56" y1="128.42" x2="372.56" y2="145.33" stroke="#f6465d" stroke-width="1.4" /><rect x="369.56" y="133.47" width="6" height="7.82" rx="1.5" fill="#f6465d" /><line x1="383.29" y1="133.22" x2="383.29" y2="192.78" stroke="#f6465d" stroke-width="1.4" /><rect x="380.29" y="141.29" width="6" height="39.37" rx="1.5" fill="#f6465d" /><line x1="394.03" y1="122.11" x2="394.03" y2="180.42" stroke="#0ecb81" stroke-width="1.4" /><rect x="391.03" y="129.68" width="6" height="50.73" rx="1.5" fill="#0ecb81" /><line x1="404.76" y1="128.42" x2="404.76" y2="168.30" stroke="#f6465d" stroke-width="1.4" /><rect x="401.76" y="128.67" width="6" height="30.54" rx="1.5" fill="#f6465d" /><line x1="415.49" y1="147.86" x2="415.49" y2="164.26" stroke="#0ecb81" stroke-width="1.4" /><rect x="412.49" y="159.21" width="6" height="2.00" rx="1.5" fill="#0ecb81" /><line x1="426.23" y1="79.20" x2="426.23" y2="160.73" stroke="#0ecb81" stroke-width="1.4" /><rect x="423.23" y="141.80" width="6" height="16.91" rx="1.5" fill="#0ecb81" /><line x1="436.96" y1="127.16" x2="436.96" y2="163.00" stroke="#f6465d" stroke-width="1.4" /><rect x="433.96" y="141.55" width="6" height="16.66" rx="1.5" fill="#f6465d" /><line x1="447.70" y1="156.18" x2="447.70" y2="186.98" stroke="#f6465d" stroke-width="1.4" /><rect x="444.70" y="158.20" width="6" height="24.74" rx="1.5" fill="#f6465d" /><line x1="458.43" y1="162.49" x2="458.43" y2="211.21" stroke="#f6465d" stroke-width="1.4" /><rect x="455.43" y="182.18" width="6" height="26.50" rx="1.5" fill="#f6465d" /><line x1="469.16" y1="185.72" x2="469.16" y2="234.93" stroke="#0ecb81" stroke-width="1.4" /><rect x="466.16" y="190.76" width="6" height="17.92" rx="1.5" fill="#0ecb81" /><line x1="479.90" y1="172.09" x2="479.90" y2="209.95" stroke="#f6465d" stroke-width="1.4" /><rect x="476.90" y="190.76" width="6" height="14.89" rx="1.5" fill="#f6465d" /><line x1="490.63" y1="178.40" x2="490.63" y2="216.76" stroke="#f6465d" stroke-width="1.4" /><rect x="487.63" y="205.91" width="6" height="6.81" rx="1.5" fill="#f6465d" /><line x1="501.37" y1="185.46" x2="501.37" y2="217.01" stroke="#0ecb81" stroke-width="1.4" /><rect x="498.37" y="194.04" width="6" height="18.68" rx="1.5" fill="#0ecb81" /><line x1="512.10" y1="130.94" x2="512.10" y2="199.85" stroke="#0ecb81" stroke-width="1.4" /><rect x="509.10" y="133.72" width="6" height="60.32" rx="1.5" fill="#0ecb81" /><line x1="522.84" y1="106.21" x2="522.84" y2="134.48" stroke="#0ecb81" stroke-width="1.4" /><rect x="519.84" y="116.05" width="6" height="17.67" rx="1.5" fill="#0ecb81" /><line x1="533.57" y1="91.32" x2="533.57" y2="182.43" stroke="#f6465d" stroke-width="1.4" /><rect x="530.57" y="116.05" width="6" height="53.51" rx="1.5" fill="#f6465d" /><line x1="544.30" y1="151.64" x2="544.30" y2="174.36" stroke="#0ecb81" stroke-width="1.4" /><rect x="541.30" y="161.48" width="6" height="8.08" rx="1.5" fill="#0ecb81" /><line x1="555.04" y1="153.91" x2="555.04" y2="197.83" stroke="#f6465d" stroke-width="1.4" /><rect x="552.04" y="161.48" width="6" height="22.72" rx="1.5" fill="#f6465d" /><line x1="565.77" y1="165.02" x2="565.77" y2="184.96" stroke="#0ecb81" stroke-width="1.4" /><rect x="562.77" y="178.14" width="6" height="5.81" rx="1.5" fill="#0ecb81" /><line x1="576.51" y1="164.01" x2="576.51" y2="185.46" stroke="#f6465d" stroke-width="1.4" /><rect x="573.51" y="178.14" width="6" height="5.81" rx="1.5" fill="#f6465d" /><line x1="587.24" y1="177.89" x2="587.24" y2="202.37" stroke="#f6465d" stroke-width="1.4" /><rect x="584.24" y="183.95" width="6" height="6.81" rx="1.5" fill="#f6465d" /><line x1="597.97" y1="167.04" x2="597.97" y2="197.58" stroke="#0ecb81" stroke-width="1.4" /><rect x="594.97" y="181.17" width="6" height="9.59" rx="1.5" fill="#0ecb81" /><line x1="608.71" y1="157.45" x2="608.71" y2="181.42" stroke="#0ecb81" stroke-width="1.4" /><rect x="605.71" y="158.71" width="6" height="22.46" rx="1.5" fill="#0ecb81" /><line x1="619.44" y1="153.66" x2="619.44" y2="177.39" stroke="#f6465d" stroke-width="1.4" /><rect x="616.44" y="158.71" width="6" height="7.07" rx="1.5" fill="#f6465d" /><line x1="630.18" y1="146.34" x2="630.18" y2="168.55" stroke="#0ecb81" stroke-width="1.4" /><rect x="627.18" y="156.94" width="6" height="8.58" rx="1.5" fill="#0ecb81" /><line x1="640.91" y1="153.16" x2="640.91" y2="172.34" stroke="#0ecb81" stroke-width="1.4" /><rect x="637.91" y="156.44" width="6" height="2.00" rx="1.5" fill="#0ecb81" /><line x1="651.65" y1="121.10" x2="651.65" y2="156.18" stroke="#0ecb81" stroke-width="1.4" /><rect x="648.65" y="127.41" width="6" height="28.77" rx="1.5" fill="#0ecb81" /><line x1="662.38" y1="103.43" x2="662.38" y2="135.74" stroke="#f6465d" stroke-width="1.4" /><rect x="659.38" y="127.16" width="6" height="3.79" rx="1.5" fill="#f6465d" /><line x1="673.11" y1="109.24" x2="673.11" y2="132.46" stroke="#0ecb81" stroke-width="1.4" /><rect x="670.11" y="117.31" width="6" height="13.38" rx="1.5" fill="#0ecb81" /><line x1="683.85" y1="101.41" x2="683.85" y2="130.19" stroke="#f6465d" stroke-width="1.4" /><rect x="680.85" y="117.31" width="6" height="2.27" rx="1.5" fill="#f6465d" /><line x1="694.58" y1="112.77" x2="694.58" y2="143.56" stroke="#f6465d" stroke-width="1.4" /><rect x="691.58" y="119.59" width="6" height="4.04" rx="1.5" fill="#f6465d" /><line x1="705.32" y1="58.00" x2="705.32" y2="130.94" stroke="#0ecb81" stroke-width="1.4" /><rect x="702.32" y="123.88" width="6" height="2.00" rx="1.5" fill="#0ecb81" /><line x1="716.05" y1="121.35" x2="716.05" y2="169.31" stroke="#f6465d" stroke-width="1.4" /><rect x="713.05" y="123.62" width="6" height="34.83" rx="1.5" fill="#f6465d" /><line x1="726.78" y1="140.79" x2="726.78" y2="187.99" stroke="#f6465d" stroke-width="1.4" /><rect x="723.78" y="158.71" width="6" height="24.74" rx="1.5" fill="#f6465d" /><line x1="737.52" y1="168.05" x2="737.52" y2="211.71" stroke="#0ecb81" stroke-width="1.4" /><rect x="734.52" y="170.57" width="6" height="12.87" rx="1.5" fill="#0ecb81" /><line x1="748.25" y1="148.61" x2="748.25" y2="181.68" stroke="#0ecb81" stroke-width="1.4" /><rect x="745.25" y="156.44" width="6" height="14.13" rx="1.5" fill="#0ecb81" /><line x1="758.99" y1="148.11" x2="758.99" y2="181.17" stroke="#f6465d" stroke-width="1.4" /><rect x="755.99" y="156.69" width="6" height="9.09" rx="1.5" fill="#f6465d" /><line x1="769.72" y1="162.75" x2="769.72" y2="175.62" stroke="#0ecb81" stroke-width="1.4" /><rect x="766.72" y="165.52" width="6" height="2.00" rx="1.5" fill="#0ecb81" /><line x1="780.46" y1="151.64" x2="780.46" y2="170.07" stroke="#f6465d" stroke-width="1.4" /><rect x="777.46" y="165.52" width="6" height="3.28" rx="1.5" fill="#f6465d" /><line x1="791.19" y1="147.35" x2="791.19" y2="172.59" stroke="#0ecb81" stroke-width="1.4" /><rect x="788.19" y="152.15" width="6" height="16.66" rx="1.5" fill="#0ecb81" /><line x1="801.92" y1="137.25" x2="801.92" y2="152.40" stroke="#0ecb81" stroke-width="1.4" /><rect x="798.92" y="145.84" width="6" height="6.56" rx="1.5" fill="#0ecb81" /><line x1="812.66" y1="121.35" x2="812.66" y2="147.60" stroke="#0ecb81" stroke-width="1.4" /><rect x="809.66" y="133.22" width="6" height="12.87" rx="1.5" fill="#0ecb81" /><line x1="823.39" y1="122.36" x2="823.39" y2="153.41" stroke="#f6465d" stroke-width="1.4" /><rect x="820.39" y="133.22" width="6" height="10.85" rx="1.5" fill="#f6465d" /><line x1="834.13" y1="133.97" x2="834.13" y2="153.66" stroke="#f6465d" stroke-width="1.4" /><rect x="831.13" y="144.07" width="6" height="5.05" rx="1.5" fill="#f6465d" /><line x1="844.86" y1="136.50" x2="844.86" y2="158.46" stroke="#0ecb81" stroke-width="1.4" /><rect x="841.86" y="149.12" width="6" height="2.00" rx="1.5" fill="#0ecb81" /><line x1="855.59" y1="129.43" x2="855.59" y2="153.41" stroke="#0ecb81" stroke-width="1.4" /><rect x="852.59" y="129.68" width="6" height="20.95" rx="1.5" fill="#0ecb81" /><line x1="866.33" y1="121.86" x2="866.33" y2="134.73" stroke="#0ecb81" stroke-width="1.4" /><rect x="863.33" y="125.90" width="6" height="3.53" rx="1.5" fill="#0ecb81" /><line x1="877.06" y1="118.58" x2="877.06" y2="134.73" stroke="#f6465d" stroke-width="1.4" /><rect x="874.06" y="125.90" width="6" height="4.54" rx="1.5" fill="#f6465d" /><line x1="887.80" y1="119.59" x2="887.80" y2="134.73" stroke="#0ecb81" stroke-width="1.4" /><rect x="884.80" y="119.59" width="6" height="10.85" rx="1.5" fill="#0ecb81" /><line x1="898.53" y1="101.92" x2="898.53" y2="124.13" stroke="#0ecb81" stroke-width="1.4" /><rect x="895.53" y="101.92" width="6" height="17.67" rx="1.5" fill="#0ecb81" /><line x1="909.27" y1="99.65" x2="909.27" y2="122.61" stroke="#f6465d" stroke-width="1.4" /><rect x="906.27" y="102.17" width="6" height="2.52" rx="1.5" fill="#f6465d" /><line x1="920.00" y1="99.14" x2="920.00" y2="123.37" stroke="#f6465d" stroke-width="1.4" /><rect x="917.00" y="104.19" width="6" height="5.55" rx="1.5" fill="#f6465d" />
  <polyline points="426.23,79.20 469.16,234.93 533.57,91.32 587.24,202.37 705.32,58.00" fill="none" stroke="#2fc273" stroke-width="4" stroke-linecap="round" stroke-linejoin="round" />
  <circle cx="426.23" cy="79.20" r="5.5" fill="#2fc273" fill-opacity="0.15" stroke="#2fc273" stroke-width="2" /><text x="426.23" y="67.20" fill="#f3f4f6" font-size="15" font-weight="700" text-anchor="middle">X</text><circle cx="469.16" cy="234.93" r="5.5" fill="#2fc273" fill-opacity="0.15" stroke="#2fc273" stroke-width="2" /><text x="469.16" y="222.93" fill="#f3f4f6" font-size="15" font-weight="700" text-anchor="middle">A</text><circle cx="533.57" cy="91.32" r="5.5" fill="#2fc273" fill-opacity="0.15" stroke="#2fc273" stroke-width="2" /><text x="533.57" y="79.32" fill="#f3f4f6" font-size="15" font-weight="700" text-anchor="middle">B</text><circle cx="587.24" cy="202.37" r="5.5" fill="#2fc273" fill-opacity="0.15" stroke="#2fc273" stroke-width="2" /><text x="587.24" y="190.37" fill="#f3f4f6" font-size="15" font-weight="700" text-anchor="middle">C</text><circle cx="705.32" cy="58.00" r="5.5" fill="#2fc273" fill-opacity="0.15" stroke="#2fc273" stroke-width="2" /><text x="705.32" y="46.00" fill="#f3f4f6" font-size="15" font-weight="700" text-anchor="middle">D</text>
  <text x="56" y="492" fill="#8ba0b5" font-size="18">일반 완성 · TP1 37.026 · TP2 36.892 · SL 37.325</text>
</svg>
