<svg xmlns="http://www.w3.org/2000/svg" width="960" height="540" viewBox="0 0 960 540">
  <rect width="960" height="540" rx="24" fill="#0b1220" />
  <rect x="28" y="28" width="904" height="484" rx="22" fill="#111827" stroke="#1f2937" />
  <text x="56" y="74" fill="#f3f4f6" font-size="34" font-weight="700">KERNELUSDT · AB=CD</text>
  <text x="904" y="74" fill="#8ba0b5" font-size="20" text-anchor="end">Bearish (매도) · Score 82.8</text>
  <line x1="72" y1="58" x2="920" y2="58" stroke="#223045" stroke-width="1" stroke-dasharray="4 8" /><line x1="72" y1="156" x2="920" y2="156" stroke="#223045" stroke-width="1" stroke-dasharray="4 8" /><line x1="72" y1="255" x2="920" y2="255" stroke="#223045" stroke-width="1" stroke-dasharray="4 8" /><line x1="72" y1="353" x2="920" y2="353" stroke="#223045" stroke-width="1" stroke-dasharray="4 8" /><line x1="72" y1="452" x2="920" y2="452" stroke="#223045" stroke-width="1" stroke-dasharray="4 8" />
  <rect x="419.70" y="109.57" width="84" height="47.86" fill="#fbbf24" fill-opacity="0.12" stroke="#fbbf24" stroke-width="1.5" stroke-dasharray="6 6" />
  <line x1="72.00" y1="78.40" x2="72.00" y2="101.04" stroke="#0ecb81" stroke-width="1.4" /><rect x="69.00" y="86.57" width="6" height="14.47" rx="1.5" fill="#0ecb81" /><line x1="82.73" y1="83.60" x2="82.73" y2="100.66" stroke="#f6465d" stroke-width="1.4" /><rect x="79.73" y="86.57" width="6" height="5.94" rx="1.5" fill="#f6465d" /><line x1="93.47" y1="89.16" x2="93.47" y2="105.49" stroke="#f6465d" stroke-width="1.4" /><rect x="90.47" y="92.13" width="6" height="2.00" rx="1.5" fill="#f6465d" /><line x1="104.20" y1="80.63" x2="104.20" y2="95.47" stroke="#0ecb81" stroke-width="1.4" /><rect x="101.20" y="82.86" width="6" height="11.50" rx="1.5" fill="#0ecb81" /><line x1="114.94" y1="76.18" x2="114.94" y2="87.31" stroke="#f6465d" stroke-width="1.4" /><rect x="111.94" y="83.23" width="6" height="2.00" rx="1.5" fill="#f6465d" /><line x1="125.67" y1="69.87" x2="125.67" y2="92.50" stroke="#0ecb81" stroke-width="1.4" /><rect x="122.67" y="71.36" width="6" height="11.87" rx="1.5" fill="#0ecb81" /><line x1="136.41" y1="58.00" x2="136.41" y2="78.40" stroke="#0ecb81" stroke-width="1.4" /><rect x="133.41" y="63.94" width="6" height="7.42" rx="1.5" fill="#0ecb81" /><line x1="147.14" y1="60.23" x2="147.14" y2="81.74" stroke="#f6465d" stroke-width="1.4" /><rect x="144.14" y="64.68" width="6" height="15.58" rx="1.5" fill="#f6465d" /><line x1="157.87" y1="79.89" x2="157.87" y2="92.13" stroke="#f6465d" stroke-width="1.4" /><rect x="154.87" y="80.63" width="6" height="7.42" rx="1.5" fill="#f6465d" /><line x1="168.61" y1="88.05" x2="168.61" y2="113.65" stroke="#f6465d" stroke-width="1.4" /><rect x="165.61" y="88.05" width="6" height="15.95" rx="1.5" fill="#f6465d" /><line x1="179.34" y1="99.55" x2="179.34" y2="112.54" stroke="#f6465d" stroke-width="1.4" /><rect x="176.34" y="103.63" width="6" height="3.71" rx="1.5" fill="#f6465d" /><line x1="190.08" y1="107.71" x2="190.08" y2="158.54" stroke="#f6465d" stroke-width="1.4" /><rect x="187.08" y="107.71" width="6" height="34.87" rx="1.5" fill="#f6465d" /><line x1="200.81" y1="132.20" x2="200.81" y2="152.60" stroke="#0ecb81" stroke-width="1.4" /><rect x="197.81" y="138.14" width="6" height="4.45" rx="1.5" fill="#0ecb81" /><line x1="211.54" y1="121.07" x2="211.54" y2="138.51" stroke="#0ecb81" stroke-width="1.4" /><rect x="208.54" y="126.63" width="6" height="11.50" rx="1.5" fill="#0ecb81" /><line x1="222.28" y1="124.78" x2="222.28" y2="137.76" stroke="#f6465d" stroke-width="1.4" /><rect x="219.28" y="127.01" width="6" height="10.39" rx="1.5" fill="#f6465d" /><line x1="233.01" y1="136.65" x2="233.01" y2="177.46" stroke="#f6465d" stroke-width="1.4" /><rect x="230.01" y="137.39" width="6" height="31.53" rx="1.5" fill="#f6465d" /><line x1="243.75" y1="161.88" x2="243.75" y2="195.27" stroke="#f6465d" stroke-width="1.4" /><rect x="240.75" y="169.30" width="6" height="12.98" rx="1.5" fill="#f6465d" /><line x1="254.48" y1="167.44" x2="254.48" y2="208.63" stroke="#f6465d" stroke-width="1.4" /><rect x="251.48" y="181.17" width="6" height="7.79" rx="1.5" fill="#f6465d" /><line x1="265.22" y1="180.06" x2="265.22" y2="215.67" stroke="#0ecb81" stroke-width="1.4" /><rect x="262.22" y="184.14" width="6" height="3.71" rx="1.5" fill="#0ecb81" /><line x1="275.95" y1="160.40" x2="275.95" y2="189.70" stroke="#0ecb81" stroke-width="1.4" /><rect x="272.95" y="172.27" width="6" height="11.50" rx="1.5" fill="#0ecb81" /><line x1="286.68" y1="162.99" x2="286.68" y2="177.46" stroke="#0ecb81" stroke-width="1.4" /><rect x="283.68" y="167.44" width="6" height="4.82" rx="1.5" fill="#0ecb81" /><line x1="297.42" y1="158.54" x2="297.42" y2="178.20" stroke="#f6465d" stroke-width="1.4" /><rect x="294.42" y="167.44" width="6" height="10.39" rx="1.5" fill="#f6465d" /><line x1="308.15" y1="168.19" x2="308.15" y2="186.37" stroke="#0ecb81" stroke-width="1.4" /><rect x="305.15" y="170.41" width="6" height="7.42" rx="1.5" fill="#0ecb81" /><line x1="318.89" y1="166.33" x2="318.89" y2="185.62" stroke="#f6465d" stroke-width="1.4" /><rect x="315.89" y="170.04" width="6" height="2.00" rx="1.5" fill="#f6465d" /><line x1="329.62" y1="167.44" x2="329.62" y2="203.80" stroke="#f6465d" stroke-width="1.4" /><rect x="326.62" y="171.15" width="6" height="25.60" rx="1.5" fill="#f6465d" /><line x1="340.35" y1="184.51" x2="340.35" y2="200.83" stroke="#0ecb81" stroke-width="1.4" /><rect x="337.35" y="190.08" width="6" height="6.68" rx="1.5" fill="#0ecb81" /><line x1="351.09" y1="191.56" x2="351.09" y2="200.83" stroke="#f6465d" stroke-width="1.4" /><rect x="348.09" y="191.56" width="6" height="2.97" rx="1.5" fill="#f6465d" /><line x1="361.82" y1="188.96" x2="361.82" y2="214.19" stroke="#f6465d" stroke-width="1.4" /><rect x="358.82" y="193.41" width="6" height="4.45" rx="1.5" fill="#f6465d" /><line x1="372.56" y1="191.93" x2="372.56" y2="202.32" stroke="#f6465d" stroke-width="1.4" /><rect x="369.56" y="197.50" width="6" height="2.23" rx="1.5" fill="#f6465d" /><line x1="383.29" y1="189.33" x2="383.29" y2="207.51" stroke="#f6465d" stroke-width="1.4" /><rect x="380.29" y="199.72" width="6" height="2.00" rx="1.5" fill="#f6465d" /><line x1="394.03" y1="198.24" x2="394.03" y2="214.56" stroke="#f6465d" stroke-width="1.4" /><rect x="391.03" y="200.46" width="6" height="8.16" rx="1.5" fill="#f6465d" /><line x1="404.76" y1="197.12" x2="404.76" y2="209.74" stroke="#0ecb81" stroke-width="1.4" /><rect x="401.76" y="197.87" width="6" height="10.76" rx="1.5" fill="#0ecb81" /><line x1="415.49" y1="180.43" x2="415.49" y2="200.83" stroke="#0ecb81" stroke-width="1.4" /><rect x="412.49" y="185.62" width="6" height="12.61" rx="1.5" fill="#0ecb81" /><line x1="426.23" y1="174.49" x2="426.23" y2="198.98" stroke="#0ecb81" stroke-width="1.4" /><rect x="423.23" y="180.80" width="6" height="4.82" rx="1.5" fill="#0ecb81" /><line x1="436.96" y1="168.19" x2="436.96" y2="186.37" stroke="#0ecb81" stroke-width="1.4" /><rect x="433.96" y="178.20" width="6" height="2.60" rx="1.5" fill="#0ecb81" /><line x1="447.70" y1="151.49" x2="447.70" y2="178.20" stroke="#0ecb81" stroke-width="1.4" /><rect x="444.70" y="165.96" width="6" height="12.24" rx="1.5" fill="#0ecb81" /><line x1="458.43" y1="159.65" x2="458.43" y2="174.86" stroke="#f6465d" stroke-width="1.4" /><rect x="455.43" y="165.96" width="6" height="8.90" rx="1.5" fill="#f6465d" /><line x1="469.16" y1="173.75" x2="469.16" y2="190.08" stroke="#f6465d" stroke-width="1.4" /><rect x="466.16" y="174.86" width="6" height="9.27" rx="1.5" fill="#f6465d" /><line x1="479.90" y1="175.24" x2="479.90" y2="193.04" stroke="#0ecb81" stroke-width="1.4" /><rect x="476.90" y="180.06" width="6" height="3.71" rx="1.5" fill="#0ecb81" /><line x1="490.63" y1="175.24" x2="490.63" y2="197.12" stroke="#f6465d" stroke-width="1.4" /><rect x="487.63" y="179.69" width="6" height="10.39" rx="1.5" fill="#f6465d" /><line x1="501.37" y1="168.19" x2="501.37" y2="193.41" stroke="#0ecb81" stroke-width="1.4" /><rect x="498.37" y="180.43" width="6" height="9.27" rx="1.5" fill="#0ecb81" /><line x1="512.10" y1="176.72" x2="512.10" y2="204.92" stroke="#f6465d" stroke-width="1.4" /><rect x="509.10" y="180.43" width="6" height="19.29" rx="1.5" fill="#f6465d" /><line x1="522.84" y1="190.08" x2="522.84" y2="207.14" stroke="#0ecb81" stroke-width="1.4" /><rect x="519.84" y="197.12" width="6" height="2.60" rx="1.5" fill="#0ecb81" /><line x1="533.57" y1="188.22" x2="533.57" y2="228.29" stroke="#f6465d" stroke-width="1.4" /><rect x="530.57" y="197.12" width="6" height="16.69" rx="1.5" fill="#f6465d" /><line x1="544.30" y1="197.50" x2="544.30" y2="225.32" stroke="#0ecb81" stroke-width="1.4" /><rect x="541.30" y="200.83" width="6" height="13.36" rx="1.5" fill="#0ecb81" /><line x1="555.04" y1="195.64" x2="555.04" y2="210.48" stroke="#0ecb81" stroke-width="1.4" /><rect x="552.04" y="198.24" width="6" height="2.00" rx="1.5" fill="#0ecb81" /><line x1="565.77" y1="181.17" x2="565.77" y2="204.17" stroke="#0ecb81" stroke-width="1.4" /><rect x="562.77" y="192.30" width="6" height="6.68" rx="1.5" fill="#0ecb81" /><line x1="576.51" y1="187.11" x2="576.51" y2="206.40" stroke="#f6465d" stroke-width="1.4" /><rect x="573.51" y="192.30" width="6" height="12.24" rx="1.5" fill="#f6465d" /><line x1="587.24" y1="178.57" x2="587.24" y2="208.63" stroke="#0ecb81" stroke-width="1.4" /><rect x="584.24" y="178.95" width="6" height="25.97" rx="1.5" fill="#0ecb81" /><line x1="597.97" y1="168.19" x2="597.97" y2="183.77" stroke="#0ecb81" stroke-width="1.4" /><rect x="594.97" y="173.01" width="6" height="7.05" rx="1.5" fill="#0ecb81" /><line x1="608.71" y1="160.77" x2="608.71" y2="176.35" stroke="#0ecb81" stroke-width="1.4" /><rect x="605.71" y="165.22" width="6" height="7.79" rx="1.5" fill="#0ecb81" /><line x1="619.44" y1="155.57" x2="619.44" y2="188.59" stroke="#f6465d" stroke-width="1.4" /><rect x="616.44" y="165.22" width="6" height="12.24" rx="1.5" fill="#f6465d" /><line x1="630.18" y1="170.78" x2="630.18" y2="191.19" stroke="#f6465d" stroke-width="1.4" /><rect x="627.18" y="177.46" width="6" height="9.27" rx="1.5" fill="#f6465d" /><line x1="640.91" y1="182.66" x2="640.91" y2="203.43" stroke="#f6465d" stroke-width="1.4" /><rect x="637.91" y="186.74" width="6" height="14.10" rx="1.5" fill="#f6465d" /><line x1="651.65" y1="190.08" x2="651.65" y2="232.74" stroke="#f6465d" stroke-width="1.4" /><rect x="648.65" y="200.83" width="6" height="24.86" rx="1.5" fill="#f6465d" /><line x1="662.38" y1="219.38" x2="662.38" y2="256.85" stroke="#f6465d" stroke-width="1.4" /><rect x="659.38" y="226.43" width="6" height="12.98" rx="1.5" fill="#f6465d" /><line x1="673.11" y1="239.05" x2="673.11" y2="362.22" stroke="#f6465d" stroke-width="1.4" /><rect x="670.11" y="240.53" width="6" height="99.80" rx="1.5" fill="#f6465d" /><line x1="683.85" y1="330.68" x2="683.85" y2="397.46" stroke="#f6465d" stroke-width="1.4" /><rect x="680.85" y="340.33" width="6" height="33.39" rx="1.5" fill="#f6465d" /><line x1="694.58" y1="364.44" x2="694.58" y2="400.80" stroke="#f6465d" stroke-width="1.4" /><rect x="691.58" y="374.46" width="6" height="25.97" rx="1.5" fill="#f6465d" /><line x1="705.32" y1="381.14" x2="705.32" y2="418.98" stroke="#0ecb81" stroke-width="1.4" /><rect x="702.32" y="393.01" width="6" height="7.42" rx="1.5" fill="#0ecb81" /><line x1="716.05" y1="368.53" x2="716.05" y2="395.61" stroke="#0ecb81" stroke-width="1.4" /><rect x="713.05" y="379.66" width="6" height="13.36" rx="1.5" fill="#0ecb81" /><line x1="726.78" y1="366.67" x2="726.78" y2="404.14" stroke="#f6465d" stroke-width="1.4" /><rect x="723.78" y="380.03" width="6" height="22.26" rx="1.5" fill="#f6465d" /><line x1="737.52" y1="386.70" x2="737.52" y2="409.34" stroke="#0ecb81" stroke-width="1.4" /><rect x="734.52" y="394.12" width="6" height="6.31" rx="1.5" fill="#0ecb81" /><line x1="748.25" y1="372.61" x2="748.25" y2="394.50" stroke="#0ecb81" stroke-width="1.4" /><rect x="745.25" y="380.03" width="6" height="13.73" rx="1.5" fill="#0ecb81" /><line x1="758.99" y1="373.72" x2="758.99" y2="412.30" stroke="#f6465d" stroke-width="1.4" /><rect x="755.99" y="378.54" width="6" height="27.45" rx="1.5" fill="#f6465d" /><line x1="769.72" y1="398.95" x2="769.72" y2="428.63" stroke="#f6465d" stroke-width="1.4" /><rect x="766.72" y="405.63" width="6" height="6.68" rx="1.5" fill="#f6465d" /><line x1="780.46" y1="407.48" x2="780.46" y2="452.00" stroke="#f6465d" stroke-width="1.4" /><rect x="777.46" y="412.67" width="6" height="12.24" rx="1.5" fill="#f6465d" /><line x1="791.19" y1="425.29" x2="791.19" y2="450.89" stroke="#f6465d" stroke-width="1.4" /><rect x="788.19" y="425.29" width="6" height="13.36" rx="1.5" fill="#f6465d" /><line x1="801.92" y1="418.98" x2="801.92" y2="444.58" stroke="#0ecb81" stroke-width="1.4" /><rect x="798.92" y="421.95" width="6" height="16.69" rx="1.5" fill="#0ecb81" /><line x1="812.66" y1="403.03" x2="812.66" y2="424.92" stroke="#0ecb81" stroke-width="1.4" /><rect x="809.66" y="406.74" width="6" height="16.32" rx="1.5" fill="#0ecb81" /><line x1="823.39" y1="395.98" x2="823.39" y2="417.50" stroke="#0ecb81" stroke-width="1.4" /><rect x="820.39" y="399.69" width="6" height="7.05" rx="1.5" fill="#0ecb81" /><line x1="834.13" y1="391.90" x2="834.13" y2="410.82" stroke="#0ecb81" stroke-width="1.4" /><rect x="831.13" y="395.24" width="6" height="4.82" rx="1.5" fill="#0ecb81" /><line x1="844.86" y1="374.46" x2="844.86" y2="398.58" stroke="#0ecb81" stroke-width="1.4" /><rect x="841.86" y="376.69" width="6" height="18.92" rx="1.5" fill="#0ecb81" /><line x1="855.59" y1="364.82" x2="855.59" y2="386.33" stroke="#0ecb81" stroke-width="1.4" /><rect x="852.59" y="371.49" width="6" height="5.56" rx="1.5" fill="#0ecb81" /><line x1="866.33" y1="367.78" x2="866.33" y2="385.96" stroke="#0ecb81" stroke-width="1.4" /><rect x="863.33" y="370.75" width="6" height="2.00" rx="1.5" fill="#0ecb81" /><line x1="877.06" y1="349.23" x2="877.06" y2="375.57" stroke="#0ecb81" stroke-width="1.4" /><rect x="874.06" y="350.72" width="6" height="20.40" rx="1.5" fill="#0ecb81" /><line x1="887.80" y1="323.26" x2="887.80" y2="352.57" stroke="#0ecb81" stroke-width="1.4" /><rect x="884.80" y="330.68" width="6" height="20.03" rx="1.5" fill="#0ecb81" /><line x1="898.53" y1="298.04" x2="898.53" y2="331.43" stroke="#0ecb81" stroke-width="1.4" /><rect x="895.53" y="326.97" width="6" height="4.08" rx="1.5" fill="#0ecb81" /><line x1="909.27" y1="287.28" x2="909.27" y2="339.59" stroke="#f6465d" stroke-width="1.4" /><rect x="906.27" y="325.86" width="6" height="10.02" rx="1.5" fill="#f6465d" /><line x1="920.00" y1="324.38" x2="920.00" y2="348.49" stroke="#f6465d" stroke-width="1.4" /><rect x="917.00" y="335.88" width="6" height="10.76" rx="1.5" fill="#f6465d" />
  <polyline points="136.41,58.00 265.22,215.67 297.42,158.54 394.03,214.56 447.70,151.49" fill="none" stroke="#2fc273" stroke-width="4" stroke-linecap="round" stroke-linejoin="round" />
  <circle cx="136.41" cy="58.00" r="5.5" fill="#2fc273" fill-opacity="0.15" stroke="#2fc273" stroke-width="2" /><text x="136.41" y="46.00" fill="#f3f4f6" font-size="15" font-weight="700" text-anchor="middle">X</text><circle cx="265.22" cy="215.67" r="5.5" fill="#2fc273" fill-opacity="0.15" stroke="#2fc273" stroke-width="2" /><text x="265.22" y="203.67" fill="#f3f4f6" font-size="15" font-weight="700" text-anchor="middle">A</text><circle cx="297.42" cy="158.54" r="5.5" fill="#2fc273" fill-opacity="0.15" stroke="#2fc273" stroke-width="2" /><text x="297.42" y="146.54" fill="#f3f4f6" font-size="15" font-weight="700" text-anchor="middle">B</text><circle cx="394.03" cy="214.56" r="5.5" fill="#2fc273" fill-opacity="0.15" stroke="#2fc273" stroke-width="2" /><text x="394.03" y="202.56" fill="#f3f4f6" font-size="15" font-weight="700" text-anchor="middle">C</text><circle cx="447.70" cy="151.49" r="5.5" fill="#2fc273" fill-opacity="0.15" stroke="#2fc273" stroke-width="2" /><text x="447.70" y="139.49" fill="#f3f4f6" font-size="15" font-weight="700" text-anchor="middle">D</text>
  <text x="56" y="492" fill="#8ba0b5" font-size="18">일반 완성 · TP1 0.10698 · TP2 0.10658 · SL 0.10818</text>
</svg>
