<svg xmlns="http://www.w3.org/2000/svg" width="960" height="540" viewBox="0 0 960 540">
  <rect width="960" height="540" rx="24" fill="#0b1220" />
  <rect x="28" y="28" width="904" height="484" rx="22" fill="#111827" stroke="#1f2937" />
  <text x="56" y="74" fill="#f3f4f6" font-size="34" font-weight="700">KOMAUSDT · AB=CD</text>
  <text x="904" y="74" fill="#8ba0b5" font-size="20" text-anchor="end">Bullish (매수) · Score 83.6</text>
  <line x1="72" y1="58" x2="920" y2="58" stroke="#223045" stroke-width="1" stroke-dasharray="4 8" /><line x1="72" y1="156" x2="920" y2="156" stroke="#223045" stroke-width="1" stroke-dasharray="4 8" /><line x1="72" y1="255" x2="920" y2="255" stroke="#223045" stroke-width="1" stroke-dasharray="4 8" /><line x1="72" y1="353" x2="920" y2="353" stroke="#223045" stroke-width="1" stroke-dasharray="4 8" /><line x1="72" y1="452" x2="920" y2="452" stroke="#223045" stroke-width="1" stroke-dasharray="4 8" />
  <rect x="816.86" y="367.61" width="84" height="18.30" fill="#fbbf24" fill-opacity="0.12" stroke="#fbbf24" stroke-width="1.5" stroke-dasharray="6 6" />
  <line x1="72.00" y1="58.00" x2="72.00" y2="121.04" stroke="#f6465d" stroke-width="1.4" /><rect x="69.00" y="59.78" width="6" height="26.18" rx="1.5" fill="#f6465d" /><line x1="82.73" y1="74.27" x2="82.73" y2="144.68" stroke="#f6465d" stroke-width="1.4" /><rect x="79.73" y="83.93" width="6" height="54.65" rx="1.5" fill="#f6465d" /><line x1="93.47" y1="99.18" x2="93.47" y2="147.22" stroke="#0ecb81" stroke-width="1.4" /><rect x="90.47" y="101.21" width="6" height="35.08" rx="1.5" fill="#0ecb81" /><line x1="104.20" y1="69.69" x2="104.20" y2="137.05" stroke="#0ecb81" stroke-width="1.4" /><rect x="101.20" y="83.17" width="6" height="17.29" rx="1.5" fill="#0ecb81" /><line x1="114.94" y1="84.69" x2="114.94" y2="141.38" stroke="#f6465d" stroke-width="1.4" /><rect x="111.94" y="84.69" width="6" height="41.94" rx="1.5" fill="#f6465d" /><line x1="125.67" y1="111.63" x2="125.67" y2="162.47" stroke="#f6465d" stroke-width="1.4" /><rect x="122.67" y="127.90" width="6" height="3.81" rx="1.5" fill="#f6465d" /><line x1="136.41" y1="107.82" x2="136.41" y2="144.43" stroke="#f6465d" stroke-width="1.4" /><rect x="133.41" y="129.94" width="6" height="2.29" rx="1.5" fill="#f6465d" /><line x1="147.14" y1="115.96" x2="147.14" y2="172.13" stroke="#f6465d" stroke-width="1.4" /><rect x="144.14" y="132.22" width="6" height="9.15" rx="1.5" fill="#f6465d" /><line x1="157.87" y1="135.53" x2="157.87" y2="210.77" stroke="#f6465d" stroke-width="1.4" /><rect x="154.87" y="140.87" width="6" height="51.86" rx="1.5" fill="#f6465d" /><line x1="168.61" y1="179.25" x2="168.61" y2="257.29" stroke="#f6465d" stroke-width="1.4" /><rect x="165.61" y="194.25" width="6" height="47.53" rx="1.5" fill="#f6465d" /><line x1="179.34" y1="226.28" x2="179.34" y2="414.13" stroke="#f6465d" stroke-width="1.4" /><rect x="176.34" y="242.80" width="6" height="92.27" rx="1.5" fill="#f6465d" /><line x1="190.08" y1="292.87" x2="190.08" y2="357.69" stroke="#0ecb81" stroke-width="1.4" /><rect x="187.08" y="321.85" width="6" height="13.47" rx="1.5" fill="#0ecb81" /><line x1="200.81" y1="279.91" x2="200.81" y2="340.41" stroke="#0ecb81" stroke-width="1.4" /><rect x="197.81" y="287.79" width="6" height="34.57" rx="1.5" fill="#0ecb81" /><line x1="211.54" y1="231.61" x2="211.54" y2="302.03" stroke="#f6465d" stroke-width="1.4" /><rect x="208.54" y="289.06" width="6" height="2.80" rx="1.5" fill="#f6465d" /><line x1="222.28" y1="266.18" x2="222.28" y2="294.40" stroke="#0ecb81" stroke-width="1.4" /><rect x="219.28" y="270.25" width="6" height="22.88" rx="1.5" fill="#0ecb81" /><line x1="233.01" y1="264.15" x2="233.01" y2="312.19" stroke="#f6465d" stroke-width="1.4" /><rect x="230.01" y="271.01" width="6" height="33.05" rx="1.5" fill="#f6465d" /><line x1="243.75" y1="257.54" x2="243.75" y2="303.81" stroke="#0ecb81" stroke-width="1.4" /><rect x="240.75" y="293.38" width="6" height="9.91" rx="1.5" fill="#0ecb81" /><line x1="254.48" y1="253.73" x2="254.48" y2="293.89" stroke="#0ecb81" stroke-width="1.4" /><rect x="251.48" y="268.73" width="6" height="23.89" rx="1.5" fill="#0ecb81" /><line x1="265.22" y1="246.36" x2="265.22" y2="285.50" stroke="#0ecb81" stroke-width="1.4" /><rect x="262.22" y="253.73" width="6" height="15.00" rx="1.5" fill="#0ecb81" /><line x1="275.95" y1="254.49" x2="275.95" y2="301.01" stroke="#f6465d" stroke-width="1.4" /><rect x="272.95" y="254.49" width="6" height="32.28" rx="1.5" fill="#f6465d" /><line x1="286.68" y1="286.01" x2="286.68" y2="325.16" stroke="#f6465d" stroke-width="1.4" /><rect x="283.68" y="286.01" width="6" height="29.99" rx="1.5" fill="#f6465d" /><line x1="297.42" y1="246.36" x2="297.42" y2="325.16" stroke="#0ecb81" stroke-width="1.4" /><rect x="294.42" y="256.78" width="6" height="59.23" rx="1.5" fill="#0ecb81" /><line x1="308.15" y1="128.41" x2="308.15" y2="293.64" stroke="#0ecb81" stroke-width="1.4" /><rect x="305.15" y="252.46" width="6" height="5.34" rx="1.5" fill="#0ecb81" /><line x1="318.89" y1="205.69" x2="318.89" y2="298.47" stroke="#0ecb81" stroke-width="1.4" /><rect x="315.89" y="230.60" width="6" height="20.84" rx="1.5" fill="#0ecb81" /><line x1="329.62" y1="216.87" x2="329.62" y2="259.07" stroke="#f6465d" stroke-width="1.4" /><rect x="326.62" y="231.11" width="6" height="12.71" rx="1.5" fill="#f6465d" /><line x1="340.35" y1="131.97" x2="340.35" y2="251.44" stroke="#0ecb81" stroke-width="1.4" /><rect x="337.35" y="209.25" width="6" height="35.33" rx="1.5" fill="#0ecb81" /><line x1="351.09" y1="205.94" x2="351.09" y2="237.71" stroke="#f6465d" stroke-width="1.4" /><rect x="348.09" y="209.75" width="6" height="16.01" rx="1.5" fill="#f6465d" /><line x1="361.82" y1="215.35" x2="361.82" y2="260.85" stroke="#f6465d" stroke-width="1.4" /><rect x="358.82" y="226.28" width="6" height="33.05" rx="1.5" fill="#f6465d" /><line x1="372.56" y1="238.99" x2="372.56" y2="266.18" stroke="#f6465d" stroke-width="1.4" /><rect x="369.56" y="256.53" width="6" height="2.54" rx="1.5" fill="#f6465d" /><line x1="383.29" y1="238.73" x2="383.29" y2="268.47" stroke="#0ecb81" stroke-width="1.4" /><rect x="380.29" y="252.71" width="6" height="5.34" rx="1.5" fill="#0ecb81" /><line x1="394.03" y1="239.24" x2="394.03" y2="263.39" stroke="#0ecb81" stroke-width="1.4" /><rect x="391.03" y="247.63" width="6" height="4.83" rx="1.5" fill="#0ecb81" /><line x1="404.76" y1="240.26" x2="404.76" y2="266.69" stroke="#0ecb81" stroke-width="1.4" /><rect x="401.76" y="245.34" width="6" height="3.05" rx="1.5" fill="#0ecb81" /><line x1="415.49" y1="189.67" x2="415.49" y2="288.81" stroke="#0ecb81" stroke-width="1.4" /><rect x="412.49" y="232.89" width="6" height="13.47" rx="1.5" fill="#0ecb81" /><line x1="426.23" y1="200.60" x2="426.23" y2="236.70" stroke="#0ecb81" stroke-width="1.4" /><rect x="423.23" y="221.70" width="6" height="10.17" rx="1.5" fill="#0ecb81" /><line x1="436.96" y1="175.95" x2="436.96" y2="225.26" stroke="#0ecb81" stroke-width="1.4" /><rect x="433.96" y="205.69" width="6" height="16.78" rx="1.5" fill="#0ecb81" /><line x1="447.70" y1="176.45" x2="447.70" y2="212.55" stroke="#0ecb81" stroke-width="1.4" /><rect x="444.70" y="192.47" width="6" height="15.00" rx="1.5" fill="#0ecb81" /><line x1="458.43" y1="150.02" x2="458.43" y2="196.03" stroke="#0ecb81" stroke-width="1.4" /><rect x="455.43" y="159.93" width="6" height="33.05" rx="1.5" fill="#0ecb81" /><line x1="469.16" y1="139.09" x2="469.16" y2="170.61" stroke="#0ecb81" stroke-width="1.4" /><rect x="466.16" y="149.00" width="6" height="10.93" rx="1.5" fill="#0ecb81" /><line x1="479.90" y1="135.02" x2="479.90" y2="186.62" stroke="#f6465d" stroke-width="1.4" /><rect x="476.90" y="150.27" width="6" height="27.71" rx="1.5" fill="#f6465d" /><line x1="490.63" y1="164.51" x2="490.63" y2="195.52" stroke="#f6465d" stroke-width="1.4" /><rect x="487.63" y="177.73" width="6" height="8.13" rx="1.5" fill="#f6465d" /><line x1="501.37" y1="163.49" x2="501.37" y2="242.04" stroke="#f6465d" stroke-width="1.4" /><rect x="498.37" y="187.38" width="6" height="34.32" rx="1.5" fill="#f6465d" /><line x1="512.10" y1="207.47" x2="512.10" y2="243.56" stroke="#f6465d" stroke-width="1.4" /><rect x="509.10" y="220.18" width="6" height="10.93" rx="1.5" fill="#f6465d" /><line x1="522.84" y1="213.82" x2="522.84" y2="364.56" stroke="#f6465d" stroke-width="1.4" /><rect x="519.84" y="229.58" width="6" height="63.55" rx="1.5" fill="#f6465d" /><line x1="533.57" y1="284.49" x2="533.57" y2="324.14" stroke="#f6465d" stroke-width="1.4" /><rect x="530.57" y="292.11" width="6" height="12.96" rx="1.5" fill="#f6465d" /><line x1="544.30" y1="279.15" x2="544.30" y2="452.00" stroke="#f6465d" stroke-width="1.4" /><rect x="541.30" y="307.87" width="6" height="19.57" rx="1.5" fill="#f6465d" /><line x1="555.04" y1="324.39" x2="555.04" y2="379.55" stroke="#f6465d" stroke-width="1.4" /><rect x="552.04" y="329.99" width="6" height="2.80" rx="1.5" fill="#f6465d" /><line x1="565.77" y1="302.53" x2="565.77" y2="346.51" stroke="#0ecb81" stroke-width="1.4" /><rect x="562.77" y="307.62" width="6" height="24.91" rx="1.5" fill="#0ecb81" /><line x1="576.51" y1="288.05" x2="576.51" y2="340.41" stroke="#f6465d" stroke-width="1.4" /><rect x="573.51" y="308.13" width="6" height="20.84" rx="1.5" fill="#f6465d" /><line x1="587.24" y1="309.14" x2="587.24" y2="341.68" stroke="#0ecb81" stroke-width="1.4" /><rect x="584.24" y="323.89" width="6" height="6.35" rx="1.5" fill="#0ecb81" /><line x1="597.97" y1="309.14" x2="597.97" y2="346.76" stroke="#f6465d" stroke-width="1.4" /><rect x="594.97" y="324.65" width="6" height="13.73" rx="1.5" fill="#f6465d" /><line x1="608.71" y1="334.31" x2="608.71" y2="365.57" stroke="#f6465d" stroke-width="1.4" /><rect x="605.71" y="338.88" width="6" height="18.81" rx="1.5" fill="#f6465d" /><line x1="619.44" y1="330.75" x2="619.44" y2="407.77" stroke="#0ecb81" stroke-width="1.4" /><rect x="616.44" y="341.93" width="6" height="16.27" rx="1.5" fill="#0ecb81" /><line x1="630.18" y1="314.23" x2="630.18" y2="352.61" stroke="#0ecb81" stroke-width="1.4" /><rect x="627.18" y="326.43" width="6" height="17.03" rx="1.5" fill="#0ecb81" /><line x1="640.91" y1="313.72" x2="640.91" y2="340.41" stroke="#0ecb81" stroke-width="1.4" /><rect x="637.91" y="322.36" width="6" height="2.03" rx="1.5" fill="#0ecb81" /><line x1="651.65" y1="290.08" x2="651.65" y2="381.08" stroke="#f6465d" stroke-width="1.4" /><rect x="648.65" y="321.09" width="6" height="33.81" rx="1.5" fill="#f6465d" /><line x1="662.38" y1="331.77" x2="662.38" y2="398.37" stroke="#0ecb81" stroke-width="1.4" /><rect x="659.38" y="342.44" width="6" height="13.73" rx="1.5" fill="#0ecb81" /><line x1="673.11" y1="319.06" x2="673.11" y2="346.76" stroke="#0ecb81" stroke-width="1.4" /><rect x="670.11" y="328.46" width="6" height="13.47" rx="1.5" fill="#0ecb81" /><line x1="683.85" y1="302.28" x2="683.85" y2="330.24" stroke="#0ecb81" stroke-width="1.4" /><rect x="680.85" y="316.26" width="6" height="12.20" rx="1.5" fill="#0ecb81" /><line x1="694.58" y1="311.18" x2="694.58" y2="377.27" stroke="#f6465d" stroke-width="1.4" /><rect x="691.58" y="316.26" width="6" height="3.56" rx="1.5" fill="#f6465d" /><line x1="705.32" y1="304.82" x2="705.32" y2="326.43" stroke="#f6465d" stroke-width="1.4" /><rect x="702.32" y="320.07" width="6" height="2.80" rx="1.5" fill="#f6465d" /><line x1="716.05" y1="257.29" x2="716.05" y2="322.87" stroke="#0ecb81" stroke-width="1.4" /><rect x="713.05" y="300.75" width="6" height="21.86" rx="1.5" fill="#0ecb81" /><line x1="726.78" y1="288.30" x2="726.78" y2="322.11" stroke="#0ecb81" stroke-width="1.4" /><rect x="723.78" y="298.47" width="6" height="2.29" rx="1.5" fill="#0ecb81" /><line x1="737.52" y1="299.48" x2="737.52" y2="339.14" stroke="#f6465d" stroke-width="1.4" /><rect x="734.52" y="299.48" width="6" height="7.12" rx="1.5" fill="#f6465d" /><line x1="748.25" y1="305.33" x2="748.25" y2="331.77" stroke="#f6465d" stroke-width="1.4" /><rect x="745.25" y="306.35" width="6" height="20.08" rx="1.5" fill="#f6465d" /><line x1="758.99" y1="314.99" x2="758.99" y2="334.31" stroke="#0ecb81" stroke-width="1.4" /><rect x="755.99" y="316.01" width="6" height="9.66" rx="1.5" fill="#0ecb81" /><line x1="769.72" y1="305.58" x2="769.72" y2="327.95" stroke="#0ecb81" stroke-width="1.4" /><rect x="766.72" y="314.99" width="6" height="2.00" rx="1.5" fill="#0ecb81" /><line x1="780.46" y1="303.81" x2="780.46" y2="325.41" stroke="#0ecb81" stroke-width="1.4" /><rect x="777.46" y="305.58" width="6" height="10.68" rx="1.5" fill="#0ecb81" /><line x1="791.19" y1="290.84" x2="791.19" y2="319.31" stroke="#0ecb81" stroke-width="1.4" /><rect x="788.19" y="301.01" width="6" height="5.34" rx="1.5" fill="#0ecb81" /><line x1="801.92" y1="285.76" x2="801.92" y2="317.28" stroke="#f6465d" stroke-width="1.4" /><rect x="798.92" y="301.26" width="6" height="12.71" rx="1.5" fill="#f6465d" /><line x1="812.66" y1="298.72" x2="812.66" y2="316.77" stroke="#0ecb81" stroke-width="1.4" /><rect x="809.66" y="300.75" width="6" height="12.20" rx="1.5" fill="#0ecb81" /><line x1="823.39" y1="295.42" x2="823.39" y2="326.68" stroke="#f6465d" stroke-width="1.4" /><rect x="820.39" y="301.01" width="6" height="19.32" rx="1.5" fill="#f6465d" /><line x1="834.13" y1="307.36" x2="834.13" y2="342.95" stroke="#f6465d" stroke-width="1.4" /><rect x="831.13" y="320.07" width="6" height="16.27" rx="1.5" fill="#f6465d" /><line x1="844.86" y1="329.48" x2="844.86" y2="362.02" stroke="#f6465d" stroke-width="1.4" /><rect x="841.86" y="336.34" width="6" height="3.81" rx="1.5" fill="#f6465d" /><line x1="855.59" y1="287.28" x2="855.59" y2="344.73" stroke="#0ecb81" stroke-width="1.4" /><rect x="852.59" y="308.38" width="6" height="30.25" rx="1.5" fill="#0ecb81" /><line x1="866.33" y1="284.49" x2="866.33" y2="326.43" stroke="#f6465d" stroke-width="1.4" /><rect x="863.33" y="307.62" width="6" height="5.85" rx="1.5" fill="#f6465d" /><line x1="877.06" y1="310.92" x2="877.06" y2="333.55" stroke="#f6465d" stroke-width="1.4" /><rect x="874.06" y="313.46" width="6" height="8.13" rx="1.5" fill="#f6465d" /><line x1="887.80" y1="298.72" x2="887.80" y2="322.62" stroke="#0ecb81" stroke-width="1.4" /><rect x="884.80" y="300.50" width="6" height="21.35" rx="1.5" fill="#0ecb81" /><line x1="898.53" y1="270.25" x2="898.53" y2="307.11" stroke="#0ecb81" stroke-width="1.4" /><rect x="895.53" y="275.84" width="6" height="24.40" rx="1.5" fill="#0ecb81" /><line x1="909.27" y1="171.88" x2="909.27" y2="287.54" stroke="#0ecb81" stroke-width="1.4" /><rect x="906.27" y="178.23" width="6" height="97.86" rx="1.5" fill="#0ecb81" /><line x1="920.00" y1="60.54" x2="920.00" y2="199.84" stroke="#f6465d" stroke-width="1.4" /><rect x="917.00" y="177.73" width="6" height="12.20" rx="1.5" fill="#f6465d" />
  <polyline points="662.38,398.37 716.05,257.29 737.52,339.14 801.92,285.76 844.86,362.02" fill="none" stroke="#2fc273" stroke-width="4" stroke-linecap="round" stroke-linejoin="round" />
  <circle cx="662.38" cy="398.37" r="5.5" fill="#2fc273" fill-opacity="0.15" stroke="#2fc273" stroke-width="2" /><text x="662.38" y="386.37" fill="#f3f4f6" font-size="15" font-weight="700" text-anchor="middle">X</text><circle cx="716.05" cy="257.29" r="5.5" fill="#2fc273" fill-opacity="0.15" stroke="#2fc273" stroke-width="2" /><text x="716.05" y="245.29" fill="#f3f4f6" font-size="15" font-weight="700" text-anchor="middle">A</text><circle cx="737.52" cy="339.14" r="5.5" fill="#2fc273" fill-opacity="0.15" stroke="#2fc273" stroke-width="2" /><text x="737.52" y="327.14" fill="#f3f4f6" font-size="15" font-weight="700" text-anchor="middle">B</text><circle cx="801.92" cy="285.76" r="5.5" fill="#2fc273" fill-opacity="0.15" stroke="#2fc273" stroke-width="2" /><text x="801.92" y="273.76" fill="#f3f4f6" font-size="15" font-weight="700" text-anchor="middle">C</text><circle cx="844.86" cy="362.02" r="5.5" fill="#2fc273" fill-opacity="0.15" stroke="#2fc273" stroke-width="2" /><text x="844.86" y="350.02" fill="#f3f4f6" font-size="15" font-weight="700" text-anchor="middle">D</text>
  <text x="56" y="492" fill="#8ba0b5" font-size="18">일반 완성 · TP1 0.00958 · TP2 0.00965 · SL 0.009393</text>
</svg>
