<svg xmlns="http://www.w3.org/2000/svg" width="960" height="540" viewBox="0 0 960 540">
  <rect width="960" height="540" rx="24" fill="#0b1220" />
  <rect x="28" y="28" width="904" height="484" rx="22" fill="#111827" stroke="#1f2937" />
  <text x="56" y="74" fill="#f3f4f6" font-size="34" font-weight="700">KOMAUSDT · AB=CD</text>
  <text x="904" y="74" fill="#8ba0b5" font-size="20" text-anchor="end">Bearish (매도) · Score 73.6</text>
  <line x1="72" y1="58" x2="920" y2="58" stroke="#223045" stroke-width="1" stroke-dasharray="4 8" /><line x1="72" y1="156" x2="920" y2="156" stroke="#223045" stroke-width="1" stroke-dasharray="4 8" /><line x1="72" y1="255" x2="920" y2="255" stroke="#223045" stroke-width="1" stroke-dasharray="4 8" /><line x1="72" y1="353" x2="920" y2="353" stroke="#223045" stroke-width="1" stroke-dasharray="4 8" /><line x1="72" y1="452" x2="920" y2="452" stroke="#223045" stroke-width="1" stroke-dasharray="4 8" />
  <rect x="720.25" y="-96.78" width="84" height="148.11" fill="#fbbf24" fill-opacity="0.12" stroke="#fbbf24" stroke-width="1.5" stroke-dasharray="6 6" />
  <line x1="72.00" y1="415.99" x2="72.00" y2="452.00" stroke="#0ecb81" stroke-width="1.4" /><rect x="69.00" y="422.28" width="6" height="25.65" rx="1.5" fill="#0ecb81" /><line x1="82.73" y1="367.56" x2="82.73" y2="426.02" stroke="#0ecb81" stroke-width="1.4" /><rect x="79.73" y="383.67" width="6" height="39.54" rx="1.5" fill="#0ecb81" /><line x1="93.47" y1="374.77" x2="93.47" y2="392.02" stroke="#0ecb81" stroke-width="1.4" /><rect x="90.47" y="380.58" width="6" height="3.74" rx="1.5" fill="#0ecb81" /><line x1="104.20" y1="337.62" x2="104.20" y2="393.86" stroke="#0ecb81" stroke-width="1.4" /><rect x="101.20" y="363.11" width="6" height="17.95" rx="1.5" fill="#0ecb81" /><line x1="114.94" y1="354.76" x2="114.94" y2="371.08" stroke="#0ecb81" stroke-width="1.4" /><rect x="111.94" y="362.52" width="6" height="2.00" rx="1.5" fill="#0ecb81" /><line x1="125.67" y1="350.91" x2="125.67" y2="365.99" stroke="#0ecb81" stroke-width="1.4" /><rect x="122.67" y="360.24" width="6" height="2.28" rx="1.5" fill="#0ecb81" /><line x1="136.41" y1="353.13" x2="136.41" y2="363.76" stroke="#0ecb81" stroke-width="1.4" /><rect x="133.41" y="358.01" width="6" height="2.22" rx="1.5" fill="#0ecb81" /><line x1="147.14" y1="337.68" x2="147.14" y2="358.61" stroke="#0ecb81" stroke-width="1.4" /><rect x="144.14" y="339.79" width="6" height="18.60" rx="1.5" fill="#0ecb81" /><line x1="157.87" y1="291.20" x2="157.87" y2="342.67" stroke="#0ecb81" stroke-width="1.4" /><rect x="154.87" y="303.57" width="6" height="36.23" rx="1.5" fill="#0ecb81" /><line x1="168.61" y1="270.59" x2="168.61" y2="337.95" stroke="#f6465d" stroke-width="1.4" /><rect x="165.61" y="302.59" width="6" height="9.22" rx="1.5" fill="#f6465d" /><line x1="179.34" y1="247.81" x2="179.34" y2="316.42" stroke="#0ecb81" stroke-width="1.4" /><rect x="176.34" y="268.31" width="6" height="43.49" rx="1.5" fill="#0ecb81" /><line x1="190.08" y1="239.46" x2="190.08" y2="269.24" stroke="#0ecb81" stroke-width="1.4" /><rect x="187.08" y="256.76" width="6" height="11.50" rx="1.5" fill="#0ecb81" /><line x1="200.81" y1="235.39" x2="200.81" y2="282.41" stroke="#0ecb81" stroke-width="1.4" /><rect x="197.81" y="249.71" width="6" height="7.38" rx="1.5" fill="#0ecb81" /><line x1="211.54" y1="237.46" x2="211.54" y2="257.52" stroke="#0ecb81" stroke-width="1.4" /><rect x="208.54" y="242.39" width="6" height="7.81" rx="1.5" fill="#0ecb81" /><line x1="222.28" y1="226.18" x2="222.28" y2="254.16" stroke="#f6465d" stroke-width="1.4" /><rect x="219.28" y="242.39" width="6" height="4.39" rx="1.5" fill="#f6465d" /><line x1="233.01" y1="221.24" x2="233.01" y2="273.85" stroke="#f6465d" stroke-width="1.4" /><rect x="230.01" y="246.19" width="6" height="5.53" rx="1.5" fill="#f6465d" /><line x1="243.75" y1="247.81" x2="243.75" y2="267.77" stroke="#f6465d" stroke-width="1.4" /><rect x="240.75" y="251.72" width="6" height="3.69" rx="1.5" fill="#f6465d" /><line x1="254.48" y1="242.39" x2="254.48" y2="271.78" stroke="#f6465d" stroke-width="1.4" /><rect x="251.48" y="255.84" width="6" height="4.72" rx="1.5" fill="#f6465d" /><line x1="265.22" y1="234.96" x2="265.22" y2="272.00" stroke="#0ecb81" stroke-width="1.4" /><rect x="262.22" y="242.17" width="6" height="18.55" rx="1.5" fill="#0ecb81" /><line x1="275.95" y1="238.59" x2="275.95" y2="258.34" stroke="#f6465d" stroke-width="1.4" /><rect x="272.95" y="242.93" width="6" height="2.00" rx="1.5" fill="#f6465d" /><line x1="286.68" y1="199.00" x2="286.68" y2="244.83" stroke="#0ecb81" stroke-width="1.4" /><rect x="283.68" y="208.39" width="6" height="35.58" rx="1.5" fill="#0ecb81" /><line x1="297.42" y1="183.93" x2="297.42" y2="219.23" stroke="#0ecb81" stroke-width="1.4" /><rect x="294.42" y="208.17" width="6" height="2.00" rx="1.5" fill="#0ecb81" /><line x1="308.15" y1="188.16" x2="308.15" y2="218.26" stroke="#0ecb81" stroke-width="1.4" /><rect x="305.15" y="197.38" width="6" height="10.90" rx="1.5" fill="#0ecb81" /><line x1="318.89" y1="172.43" x2="318.89" y2="216.36" stroke="#0ecb81" stroke-width="1.4" /><rect x="315.89" y="185.23" width="6" height="11.88" rx="1.5" fill="#0ecb81" /><line x1="329.62" y1="179.37" x2="329.62" y2="218.04" stroke="#f6465d" stroke-width="1.4" /><rect x="326.62" y="185.34" width="6" height="19.52" rx="1.5" fill="#f6465d" /><line x1="340.35" y1="176.93" x2="340.35" y2="209.85" stroke="#0ecb81" stroke-width="1.4" /><rect x="337.35" y="179.64" width="6" height="25.00" rx="1.5" fill="#0ecb81" /><line x1="351.09" y1="128.56" x2="351.09" y2="321.25" stroke="#0ecb81" stroke-width="1.4" /><rect x="348.09" y="155.18" width="6" height="24.19" rx="1.5" fill="#0ecb81" /><line x1="361.82" y1="70.69" x2="361.82" y2="184.42" stroke="#0ecb81" stroke-width="1.4" /><rect x="358.82" y="115.76" width="6" height="40.35" rx="1.5" fill="#0ecb81" /><line x1="372.56" y1="105.72" x2="372.56" y2="201.93" stroke="#f6465d" stroke-width="1.4" /><rect x="369.56" y="116.46" width="6" height="41.27" rx="1.5" fill="#f6465d" /><line x1="383.29" y1="143.90" x2="383.29" y2="195.75" stroke="#f6465d" stroke-width="1.4" /><rect x="380.29" y="158.49" width="6" height="6.35" rx="1.5" fill="#f6465d" /><line x1="394.03" y1="128.56" x2="394.03" y2="171.24" stroke="#0ecb81" stroke-width="1.4" /><rect x="391.03" y="133.22" width="6" height="32.49" rx="1.5" fill="#0ecb81" /><line x1="404.76" y1="121.29" x2="404.76" y2="143.42" stroke="#f6465d" stroke-width="1.4" /><rect x="401.76" y="133.33" width="6" height="5.04" rx="1.5" fill="#f6465d" /><line x1="415.49" y1="107.79" x2="415.49" y2="142.28" stroke="#0ecb81" stroke-width="1.4" /><rect x="412.49" y="111.80" width="6" height="26.90" rx="1.5" fill="#0ecb81" /><line x1="426.23" y1="104.37" x2="426.23" y2="148.57" stroke="#f6465d" stroke-width="1.4" /><rect x="423.23" y="111.80" width="6" height="9.27" rx="1.5" fill="#f6465d" /><line x1="436.96" y1="114.29" x2="436.96" y2="140.43" stroke="#f6465d" stroke-width="1.4" /><rect x="433.96" y="121.99" width="6" height="7.16" rx="1.5" fill="#f6465d" /><line x1="447.70" y1="112.23" x2="447.70" y2="132.57" stroke="#f6465d" stroke-width="1.4" /><rect x="444.70" y="129.10" width="6" height="2.00" rx="1.5" fill="#f6465d" /><line x1="458.43" y1="123.08" x2="458.43" y2="168.69" stroke="#f6465d" stroke-width="1.4" /><rect x="455.43" y="129.70" width="6" height="37.31" rx="1.5" fill="#f6465d" /><line x1="469.16" y1="154.53" x2="469.16" y2="236.97" stroke="#f6465d" stroke-width="1.4" /><rect x="466.16" y="167.33" width="6" height="34.28" rx="1.5" fill="#f6465d" /><line x1="479.90" y1="193.58" x2="479.90" y2="214.14" stroke="#f6465d" stroke-width="1.4" /><rect x="476.90" y="201.12" width="6" height="2.00" rx="1.5" fill="#f6465d" /><line x1="490.63" y1="182.95" x2="490.63" y2="234.85" stroke="#f6465d" stroke-width="1.4" /><rect x="487.63" y="201.99" width="6" height="14.15" rx="1.5" fill="#f6465d" /><line x1="501.37" y1="212.67" x2="501.37" y2="241.79" stroke="#f6465d" stroke-width="1.4" /><rect x="498.37" y="216.14" width="6" height="5.53" rx="1.5" fill="#f6465d" /><line x1="512.10" y1="170.26" x2="512.10" y2="222.98" stroke="#0ecb81" stroke-width="1.4" /><rect x="509.10" y="184.58" width="6" height="37.15" rx="1.5" fill="#0ecb81" /><line x1="522.84" y1="149.33" x2="522.84" y2="197.38" stroke="#f6465d" stroke-width="1.4" /><rect x="519.84" y="184.47" width="6" height="2.00" rx="1.5" fill="#f6465d" /><line x1="533.57" y1="175.90" x2="533.57" y2="208.28" stroke="#f6465d" stroke-width="1.4" /><rect x="530.57" y="185.50" width="6" height="7.97" rx="1.5" fill="#f6465d" /><line x1="544.30" y1="189.30" x2="544.30" y2="207.03" stroke="#f6465d" stroke-width="1.4" /><rect x="541.30" y="193.53" width="6" height="11.55" rx="1.5" fill="#f6465d" /><line x1="555.04" y1="191.20" x2="555.04" y2="206.71" stroke="#0ecb81" stroke-width="1.4" /><rect x="552.04" y="192.44" width="6" height="12.64" rx="1.5" fill="#0ecb81" /><line x1="565.77" y1="166.79" x2="565.77" y2="198.08" stroke="#0ecb81" stroke-width="1.4" /><rect x="562.77" y="187.02" width="6" height="5.42" rx="1.5" fill="#0ecb81" /><line x1="576.51" y1="169.45" x2="576.51" y2="194.99" stroke="#0ecb81" stroke-width="1.4" /><rect x="573.51" y="174.11" width="6" height="13.56" rx="1.5" fill="#0ecb81" /><line x1="587.24" y1="173.73" x2="587.24" y2="191.03" stroke="#f6465d" stroke-width="1.4" /><rect x="584.24" y="174.17" width="6" height="8.62" rx="1.5" fill="#f6465d" /><line x1="597.97" y1="174.06" x2="597.97" y2="186.75" stroke="#0ecb81" stroke-width="1.4" /><rect x="594.97" y="174.38" width="6" height="8.41" rx="1.5" fill="#0ecb81" /><line x1="608.71" y1="166.79" x2="608.71" y2="192.17" stroke="#f6465d" stroke-width="1.4" /><rect x="605.71" y="174.38" width="6" height="12.15" rx="1.5" fill="#f6465d" /><line x1="619.44" y1="178.29" x2="619.44" y2="197.00" stroke="#f6465d" stroke-width="1.4" /><rect x="616.44" y="185.77" width="6" height="2.00" rx="1.5" fill="#f6465d" /><line x1="630.18" y1="58.00" x2="630.18" y2="190.33" stroke="#0ecb81" stroke-width="1.4" /><rect x="627.18" y="140.16" width="6" height="47.02" rx="1.5" fill="#0ecb81" /><line x1="640.91" y1="130.83" x2="640.91" y2="235.12" stroke="#f6465d" stroke-width="1.4" /><rect x="637.91" y="140.16" width="6" height="23.65" rx="1.5" fill="#f6465d" /><line x1="651.65" y1="161.20" x2="651.65" y2="198.84" stroke="#f6465d" stroke-width="1.4" /><rect x="648.65" y="163.48" width="6" height="7.05" rx="1.5" fill="#f6465d" /><line x1="662.38" y1="139.35" x2="662.38" y2="173.79" stroke="#0ecb81" stroke-width="1.4" /><rect x="659.38" y="155.73" width="6" height="14.48" rx="1.5" fill="#0ecb81" /><line x1="673.11" y1="134.79" x2="673.11" y2="160.93" stroke="#0ecb81" stroke-width="1.4" /><rect x="670.11" y="145.26" width="6" height="10.52" rx="1.5" fill="#0ecb81" /><line x1="683.85" y1="135.12" x2="683.85" y2="159.63" stroke="#f6465d" stroke-width="1.4" /><rect x="680.85" y="146.18" width="6" height="2.00" rx="1.5" fill="#f6465d" /><line x1="694.58" y1="146.40" x2="694.58" y2="191.68" stroke="#f6465d" stroke-width="1.4" /><rect x="691.58" y="147.70" width="6" height="19.96" rx="1.5" fill="#f6465d" /><line x1="705.32" y1="145.86" x2="705.32" y2="169.34" stroke="#0ecb81" stroke-width="1.4" /><rect x="702.32" y="164.13" width="6" height="4.56" rx="1.5" fill="#0ecb81" /><line x1="716.05" y1="160.01" x2="716.05" y2="180.57" stroke="#f6465d" stroke-width="1.4" /><rect x="713.05" y="164.02" width="6" height="8.30" rx="1.5" fill="#f6465d" /><line x1="726.78" y1="140.43" x2="726.78" y2="173.19" stroke="#0ecb81" stroke-width="1.4" /><rect x="723.78" y="152.15" width="6" height="20.17" rx="1.5" fill="#0ecb81" /><line x1="737.52" y1="142.49" x2="737.52" y2="158.00" stroke="#0ecb81" stroke-width="1.4" /><rect x="734.52" y="151.99" width="6" height="2.00" rx="1.5" fill="#0ecb81" /><line x1="748.25" y1="118.31" x2="748.25" y2="162.51" stroke="#0ecb81" stroke-width="1.4" /><rect x="745.25" y="135.17" width="6" height="17.25" rx="1.5" fill="#0ecb81" /><line x1="758.99" y1="130.24" x2="758.99" y2="168.04" stroke="#f6465d" stroke-width="1.4" /><rect x="755.99" y="135.23" width="6" height="24.68" rx="1.5" fill="#f6465d" /><line x1="769.72" y1="159.52" x2="769.72" y2="191.36" stroke="#f6465d" stroke-width="1.4" /><rect x="766.72" y="160.01" width="6" height="20.50" rx="1.5" fill="#f6465d" /><line x1="780.46" y1="165.38" x2="780.46" y2="219.07" stroke="#0ecb81" stroke-width="1.4" /><rect x="777.46" y="169.23" width="6" height="11.33" rx="1.5" fill="#0ecb81" /><line x1="791.19" y1="139.62" x2="791.19" y2="176.23" stroke="#0ecb81" stroke-width="1.4" /><rect x="788.19" y="162.61" width="6" height="6.62" rx="1.5" fill="#0ecb81" /><line x1="801.92" y1="161.10" x2="801.92" y2="226.88" stroke="#f6465d" stroke-width="1.4" /><rect x="798.92" y="162.18" width="6" height="63.34" rx="1.5" fill="#f6465d" /><line x1="812.66" y1="224.01" x2="812.66" y2="271.95" stroke="#f6465d" stroke-width="1.4" /><rect x="809.66" y="224.87" width="6" height="32.81" rx="1.5" fill="#f6465d" /><line x1="823.39" y1="256.17" x2="823.39" y2="319.46" stroke="#f6465d" stroke-width="1.4" /><rect x="820.39" y="256.98" width="6" height="37.31" rx="1.5" fill="#f6465d" /><line x1="834.13" y1="279.76" x2="834.13" y2="307.47" stroke="#0ecb81" stroke-width="1.4" /><rect x="831.13" y="288.22" width="6" height="5.37" rx="1.5" fill="#0ecb81" /><line x1="844.86" y1="275.42" x2="844.86" y2="331.87" stroke="#0ecb81" stroke-width="1.4" /><rect x="841.86" y="281.55" width="6" height="6.67" rx="1.5" fill="#0ecb81" /><line x1="855.59" y1="276.45" x2="855.59" y2="333.28" stroke="#f6465d" stroke-width="1.4" /><rect x="852.59" y="281.60" width="6" height="24.68" rx="1.5" fill="#f6465d" /><line x1="866.33" y1="286.59" x2="866.33" y2="328.08" stroke="#0ecb81" stroke-width="1.4" /><rect x="863.33" y="294.94" width="6" height="11.33" rx="1.5" fill="#0ecb81" /><line x1="877.06" y1="285.78" x2="877.06" y2="307.09" stroke="#0ecb81" stroke-width="1.4" /><rect x="874.06" y="292.83" width="6" height="2.00" rx="1.5" fill="#0ecb81" /><line x1="887.80" y1="290.60" x2="887.80" y2="312.73" stroke="#f6465d" stroke-width="1.4" /><rect x="884.80" y="292.83" width="6" height="7.10" rx="1.5" fill="#f6465d" /><line x1="898.53" y1="290.82" x2="898.53" y2="306.93" stroke="#f6465d" stroke-width="1.4" /><rect x="895.53" y="299.44" width="6" height="5.86" rx="1.5" fill="#f6465d" /><line x1="909.27" y1="289.52" x2="909.27" y2="317.45" stroke="#0ecb81" stroke-width="1.4" /><rect x="906.27" y="295.21" width="6" height="10.03" rx="1.5" fill="#0ecb81" /><line x1="920.00" y1="283.07" x2="920.00" y2="303.13" stroke="#0ecb81" stroke-width="1.4" /><rect x="917.00" y="287.35" width="6" height="7.86" rx="1.5" fill="#0ecb81" />
  <polyline points="361.82,70.69 501.37,241.79 630.18,58.00 640.91,235.12 748.25,118.31" fill="none" stroke="#2fc273" stroke-width="4" stroke-linecap="round" stroke-linejoin="round" />
  <circle cx="361.82" cy="70.69" r="5.5" fill="#2fc273" fill-opacity="0.15" stroke="#2fc273" stroke-width="2" /><text x="361.82" y="58.69" fill="#f3f4f6" font-size="15" font-weight="700" text-anchor="middle">X</text><circle cx="501.37" cy="241.79" r="5.5" fill="#2fc273" fill-opacity="0.15" stroke="#2fc273" stroke-width="2" /><text x="501.37" y="229.79" fill="#f3f4f6" font-size="15" font-weight="700" text-anchor="middle">A</text><circle cx="630.18" cy="58.00" r="5.5" fill="#2fc273" fill-opacity="0.15" stroke="#2fc273" stroke-width="2" /><text x="630.18" y="46.00" fill="#f3f4f6" font-size="15" font-weight="700" text-anchor="middle">B</text><circle cx="640.91" cy="235.12" r="5.5" fill="#2fc273" fill-opacity="0.15" stroke="#2fc273" stroke-width="2" /><text x="640.91" y="223.12" fill="#f3f4f6" font-size="15" font-weight="700" text-anchor="middle">C</text><circle cx="748.25" cy="118.31" r="5.5" fill="#2fc273" fill-opacity="0.15" stroke="#2fc273" stroke-width="2" /><text x="748.25" y="106.31" fill="#f3f4f6" font-size="15" font-weight="700" text-anchor="middle">D</text>
  <text x="56" y="492" fill="#8ba0b5" font-size="18">일반 완성 · TP1 0.012565 · TP2 0.012057 · SL 0.013798</text>
</svg>
