<svg xmlns="http://www.w3.org/2000/svg" width="960" height="540" viewBox="0 0 960 540">
  <rect width="960" height="540" rx="24" fill="#0b1220" />
  <rect x="28" y="28" width="904" height="484" rx="22" fill="#111827" stroke="#1f2937" />
  <text x="56" y="74" fill="#f3f4f6" font-size="34" font-weight="700">LAUSDT · AB=CD</text>
  <text x="904" y="74" fill="#8ba0b5" font-size="20" text-anchor="end">Bearish (매도) · Score 83.6</text>
  <line x1="72" y1="58" x2="920" y2="58" stroke="#223045" stroke-width="1" stroke-dasharray="4 8" /><line x1="72" y1="156" x2="920" y2="156" stroke="#223045" stroke-width="1" stroke-dasharray="4 8" /><line x1="72" y1="255" x2="920" y2="255" stroke="#223045" stroke-width="1" stroke-dasharray="4 8" /><line x1="72" y1="353" x2="920" y2="353" stroke="#223045" stroke-width="1" stroke-dasharray="4 8" /><line x1="72" y1="452" x2="920" y2="452" stroke="#223045" stroke-width="1" stroke-dasharray="4 8" />
  <rect x="527.04" y="-4.92" width="84" height="87.48" fill="#fbbf24" fill-opacity="0.12" stroke="#fbbf24" stroke-width="1.5" stroke-dasharray="6 6" />
  <line x1="72.00" y1="188.42" x2="72.00" y2="235.90" stroke="#0ecb81" stroke-width="1.4" /><rect x="69.00" y="209.71" width="6" height="4.91" rx="1.5" fill="#0ecb81" /><line x1="82.73" y1="207.52" x2="82.73" y2="269.73" stroke="#f6465d" stroke-width="1.4" /><rect x="79.73" y="208.61" width="6" height="52.39" rx="1.5" fill="#f6465d" /><line x1="93.47" y1="252.27" x2="93.47" y2="452.00" stroke="#f6465d" stroke-width="1.4" /><rect x="90.47" y="261.00" width="6" height="102.59" rx="1.5" fill="#f6465d" /><line x1="104.20" y1="324.85" x2="104.20" y2="376.69" stroke="#0ecb81" stroke-width="1.4" /><rect x="101.20" y="329.22" width="6" height="34.38" rx="1.5" fill="#0ecb81" /><line x1="114.94" y1="285.01" x2="114.94" y2="343.95" stroke="#f6465d" stroke-width="1.4" /><rect x="111.94" y="329.22" width="6" height="2.00" rx="1.5" fill="#f6465d" /><line x1="125.67" y1="292.11" x2="125.67" y2="334.13" stroke="#0ecb81" stroke-width="1.4" /><rect x="122.67" y="311.75" width="6" height="18.55" rx="1.5" fill="#0ecb81" /><line x1="136.41" y1="303.57" x2="136.41" y2="342.31" stroke="#f6465d" stroke-width="1.4" /><rect x="133.41" y="312.84" width="6" height="29.47" rx="1.5" fill="#f6465d" /><line x1="147.14" y1="305.20" x2="147.14" y2="345.04" stroke="#0ecb81" stroke-width="1.4" /><rect x="144.14" y="318.85" width="6" height="22.92" rx="1.5" fill="#0ecb81" /><line x1="157.87" y1="300.84" x2="157.87" y2="335.22" stroke="#f6465d" stroke-width="1.4" /><rect x="154.87" y="317.76" width="6" height="6.55" rx="1.5" fill="#f6465d" /><line x1="168.61" y1="293.75" x2="168.61" y2="325.40" stroke="#0ecb81" stroke-width="1.4" /><rect x="165.61" y="299.20" width="6" height="24.56" rx="1.5" fill="#0ecb81" /><line x1="179.34" y1="297.02" x2="179.34" y2="327.58" stroke="#f6465d" stroke-width="1.4" /><rect x="176.34" y="299.75" width="6" height="6.55" rx="1.5" fill="#f6465d" /><line x1="190.08" y1="236.99" x2="190.08" y2="312.30" stroke="#0ecb81" stroke-width="1.4" /><rect x="187.08" y="252.27" width="6" height="54.02" rx="1.5" fill="#0ecb81" /><line x1="200.81" y1="232.63" x2="200.81" y2="282.83" stroke="#0ecb81" stroke-width="1.4" /><rect x="197.81" y="236.45" width="6" height="14.73" rx="1.5" fill="#0ecb81" /><line x1="211.54" y1="202.07" x2="211.54" y2="249.00" stroke="#0ecb81" stroke-width="1.4" /><rect x="208.54" y="219.53" width="6" height="16.92" rx="1.5" fill="#0ecb81" /><line x1="222.28" y1="168.23" x2="222.28" y2="244.63" stroke="#f6465d" stroke-width="1.4" /><rect x="219.28" y="220.07" width="6" height="12.01" rx="1.5" fill="#f6465d" /><line x1="233.01" y1="208.61" x2="233.01" y2="255.55" stroke="#f6465d" stroke-width="1.4" /><rect x="230.01" y="232.08" width="6" height="12.01" rx="1.5" fill="#f6465d" /><line x1="243.75" y1="243.54" x2="243.75" y2="288.29" stroke="#f6465d" stroke-width="1.4" /><rect x="240.75" y="244.63" width="6" height="34.93" rx="1.5" fill="#f6465d" /><line x1="254.48" y1="275.74" x2="254.48" y2="318.85" stroke="#f6465d" stroke-width="1.4" /><rect x="251.48" y="280.65" width="6" height="18.01" rx="1.5" fill="#f6465d" /><line x1="265.22" y1="297.02" x2="265.22" y2="366.32" stroke="#f6465d" stroke-width="1.4" /><rect x="262.22" y="299.20" width="6" height="40.93" rx="1.5" fill="#f6465d" /><line x1="275.95" y1="313.39" x2="275.95" y2="355.41" stroke="#f6465d" stroke-width="1.4" /><rect x="272.95" y="340.13" width="6" height="5.46" rx="1.5" fill="#f6465d" /><line x1="286.68" y1="325.94" x2="286.68" y2="359.23" stroke="#0ecb81" stroke-width="1.4" /><rect x="283.68" y="336.31" width="6" height="8.73" rx="1.5" fill="#0ecb81" /><line x1="297.42" y1="323.76" x2="297.42" y2="350.50" stroke="#0ecb81" stroke-width="1.4" /><rect x="294.42" y="334.67" width="6" height="2.00" rx="1.5" fill="#0ecb81" /><line x1="308.15" y1="333.58" x2="308.15" y2="365.78" stroke="#f6465d" stroke-width="1.4" /><rect x="305.15" y="334.67" width="6" height="11.46" rx="1.5" fill="#f6465d" /><line x1="318.89" y1="326.49" x2="318.89" y2="353.23" stroke="#0ecb81" stroke-width="1.4" /><rect x="315.89" y="338.49" width="6" height="8.73" rx="1.5" fill="#0ecb81" /><line x1="329.62" y1="310.12" x2="329.62" y2="341.77" stroke="#0ecb81" stroke-width="1.4" /><rect x="326.62" y="318.85" width="6" height="19.65" rx="1.5" fill="#0ecb81" /><line x1="340.35" y1="288.83" x2="340.35" y2="323.21" stroke="#0ecb81" stroke-width="1.4" /><rect x="337.35" y="295.38" width="6" height="22.92" rx="1.5" fill="#0ecb81" /><line x1="351.09" y1="294.84" x2="351.09" y2="334.13" stroke="#f6465d" stroke-width="1.4" /><rect x="348.09" y="295.93" width="6" height="10.37" rx="1.5" fill="#f6465d" /><line x1="361.82" y1="286.11" x2="361.82" y2="317.21" stroke="#0ecb81" stroke-width="1.4" /><rect x="358.82" y="303.02" width="6" height="3.82" rx="1.5" fill="#0ecb81" /><line x1="372.56" y1="300.29" x2="372.56" y2="331.40" stroke="#f6465d" stroke-width="1.4" /><rect x="369.56" y="301.93" width="6" height="18.55" rx="1.5" fill="#f6465d" /><line x1="383.29" y1="291.02" x2="383.29" y2="326.49" stroke="#0ecb81" stroke-width="1.4" /><rect x="380.29" y="299.75" width="6" height="21.28" rx="1.5" fill="#0ecb81" /><line x1="394.03" y1="298.66" x2="394.03" y2="325.40" stroke="#f6465d" stroke-width="1.4" /><rect x="391.03" y="299.75" width="6" height="12.55" rx="1.5" fill="#f6465d" /><line x1="404.76" y1="303.02" x2="404.76" y2="327.03" stroke="#0ecb81" stroke-width="1.4" /><rect x="401.76" y="304.66" width="6" height="9.28" rx="1.5" fill="#0ecb81" /><line x1="415.49" y1="228.26" x2="415.49" y2="307.93" stroke="#0ecb81" stroke-width="1.4" /><rect x="412.49" y="242.99" width="6" height="61.12" rx="1.5" fill="#0ecb81" /><line x1="426.23" y1="221.71" x2="426.23" y2="309.57" stroke="#f6465d" stroke-width="1.4" /><rect x="423.23" y="243.54" width="6" height="45.29" rx="1.5" fill="#f6465d" /><line x1="436.96" y1="245.18" x2="436.96" y2="291.02" stroke="#0ecb81" stroke-width="1.4" /><rect x="433.96" y="274.65" width="6" height="13.64" rx="1.5" fill="#0ecb81" /><line x1="447.70" y1="218.44" x2="447.70" y2="280.10" stroke="#0ecb81" stroke-width="1.4" /><rect x="444.70" y="244.09" width="6" height="29.47" rx="1.5" fill="#0ecb81" /><line x1="458.43" y1="228.26" x2="458.43" y2="277.37" stroke="#0ecb81" stroke-width="1.4" /><rect x="455.43" y="236.99" width="6" height="7.64" rx="1.5" fill="#0ecb81" /><line x1="469.16" y1="209.16" x2="469.16" y2="249.00" stroke="#0ecb81" stroke-width="1.4" /><rect x="466.16" y="220.62" width="6" height="16.92" rx="1.5" fill="#0ecb81" /><line x1="479.90" y1="198.25" x2="479.90" y2="245.72" stroke="#0ecb81" stroke-width="1.4" /><rect x="476.90" y="206.43" width="6" height="13.10" rx="1.5" fill="#0ecb81" /><line x1="490.63" y1="176.96" x2="490.63" y2="274.65" stroke="#f6465d" stroke-width="1.4" /><rect x="487.63" y="206.43" width="6" height="55.66" rx="1.5" fill="#f6465d" /><line x1="501.37" y1="174.78" x2="501.37" y2="262.09" stroke="#0ecb81" stroke-width="1.4" /><rect x="498.37" y="198.25" width="6" height="63.85" rx="1.5" fill="#0ecb81" /><line x1="512.10" y1="197.70" x2="512.10" y2="251.18" stroke="#f6465d" stroke-width="1.4" /><rect x="509.10" y="198.25" width="6" height="44.20" rx="1.5" fill="#f6465d" /><line x1="522.84" y1="157.86" x2="522.84" y2="242.45" stroke="#0ecb81" stroke-width="1.4" /><rect x="519.84" y="176.42" width="6" height="65.48" rx="1.5" fill="#0ecb81" /><line x1="533.57" y1="149.13" x2="533.57" y2="188.42" stroke="#0ecb81" stroke-width="1.4" /><rect x="530.57" y="170.96" width="6" height="4.91" rx="1.5" fill="#0ecb81" /><line x1="544.30" y1="148.59" x2="544.30" y2="195.52" stroke="#0ecb81" stroke-width="1.4" /><rect x="541.30" y="163.32" width="6" height="8.19" rx="1.5" fill="#0ecb81" /><line x1="555.04" y1="58.00" x2="555.04" y2="213.53" stroke="#f6465d" stroke-width="1.4" /><rect x="552.04" y="161.68" width="6" height="9.28" rx="1.5" fill="#f6465d" /><line x1="565.77" y1="144.22" x2="565.77" y2="217.89" stroke="#0ecb81" stroke-width="1.4" /><rect x="562.77" y="159.50" width="6" height="12.55" rx="1.5" fill="#0ecb81" /><line x1="576.51" y1="134.94" x2="576.51" y2="170.42" stroke="#0ecb81" stroke-width="1.4" /><rect x="573.51" y="137.13" width="6" height="24.01" rx="1.5" fill="#0ecb81" /><line x1="587.24" y1="136.58" x2="587.24" y2="197.16" stroke="#f6465d" stroke-width="1.4" /><rect x="584.24" y="137.13" width="6" height="39.84" rx="1.5" fill="#f6465d" /><line x1="597.97" y1="129.49" x2="597.97" y2="214.07" stroke="#f6465d" stroke-width="1.4" /><rect x="594.97" y="176.42" width="6" height="21.28" rx="1.5" fill="#f6465d" /><line x1="608.71" y1="196.06" x2="608.71" y2="268.64" stroke="#f6465d" stroke-width="1.4" /><rect x="605.71" y="198.79" width="6" height="29.47" rx="1.5" fill="#f6465d" /><line x1="619.44" y1="210.25" x2="619.44" y2="239.72" stroke="#0ecb81" stroke-width="1.4" /><rect x="616.44" y="215.71" width="6" height="12.01" rx="1.5" fill="#0ecb81" /><line x1="630.18" y1="208.07" x2="630.18" y2="253.91" stroke="#f6465d" stroke-width="1.4" /><rect x="627.18" y="214.62" width="6" height="28.92" rx="1.5" fill="#f6465d" /><line x1="640.91" y1="227.17" x2="640.91" y2="259.37" stroke="#0ecb81" stroke-width="1.4" /><rect x="637.91" y="235.35" width="6" height="8.19" rx="1.5" fill="#0ecb81" /><line x1="651.65" y1="218.44" x2="651.65" y2="235.90" stroke="#0ecb81" stroke-width="1.4" /><rect x="648.65" y="223.35" width="6" height="12.55" rx="1.5" fill="#0ecb81" /><line x1="662.38" y1="208.61" x2="662.38" y2="229.90" stroke="#0ecb81" stroke-width="1.4" /><rect x="659.38" y="222.80" width="6" height="2.00" rx="1.5" fill="#0ecb81" /><line x1="673.11" y1="200.43" x2="673.11" y2="241.36" stroke="#0ecb81" stroke-width="1.4" /><rect x="670.11" y="221.17" width="6" height="2.73" rx="1.5" fill="#0ecb81" /><line x1="683.85" y1="203.70" x2="683.85" y2="245.72" stroke="#f6465d" stroke-width="1.4" /><rect x="680.85" y="221.17" width="6" height="24.56" rx="1.5" fill="#f6465d" /><line x1="694.58" y1="182.42" x2="694.58" y2="249.54" stroke="#0ecb81" stroke-width="1.4" /><rect x="691.58" y="211.34" width="6" height="34.38" rx="1.5" fill="#0ecb81" /><line x1="705.32" y1="101.66" x2="705.32" y2="211.89" stroke="#0ecb81" stroke-width="1.4" /><rect x="702.32" y="160.05" width="6" height="51.84" rx="1.5" fill="#0ecb81" /><line x1="716.05" y1="126.21" x2="716.05" y2="162.78" stroke="#0ecb81" stroke-width="1.4" /><rect x="713.05" y="131.12" width="6" height="28.38" rx="1.5" fill="#0ecb81" /><line x1="726.78" y1="109.30" x2="726.78" y2="149.68" stroke="#0ecb81" stroke-width="1.4" /><rect x="723.78" y="124.58" width="6" height="7.09" rx="1.5" fill="#0ecb81" /><line x1="737.52" y1="85.83" x2="737.52" y2="179.69" stroke="#f6465d" stroke-width="1.4" /><rect x="734.52" y="124.58" width="6" height="39.84" rx="1.5" fill="#f6465d" /><line x1="748.25" y1="138.76" x2="748.25" y2="172.60" stroke="#0ecb81" stroke-width="1.4" /><rect x="745.25" y="157.32" width="6" height="7.09" rx="1.5" fill="#0ecb81" /><line x1="758.99" y1="157.32" x2="758.99" y2="199.88" stroke="#f6465d" stroke-width="1.4" /><rect x="755.99" y="157.32" width="6" height="30.01" rx="1.5" fill="#f6465d" /><line x1="769.72" y1="122.94" x2="769.72" y2="187.33" stroke="#0ecb81" stroke-width="1.4" /><rect x="766.72" y="168.78" width="6" height="18.01" rx="1.5" fill="#0ecb81" /><line x1="780.46" y1="166.05" x2="780.46" y2="211.34" stroke="#f6465d" stroke-width="1.4" /><rect x="777.46" y="168.78" width="6" height="33.83" rx="1.5" fill="#f6465d" /><line x1="791.19" y1="176.96" x2="791.19" y2="224.44" stroke="#0ecb81" stroke-width="1.4" /><rect x="788.19" y="176.96" width="6" height="25.65" rx="1.5" fill="#0ecb81" /><line x1="801.92" y1="160.05" x2="801.92" y2="197.16" stroke="#0ecb81" stroke-width="1.4" /><rect x="798.92" y="170.96" width="6" height="7.09" rx="1.5" fill="#0ecb81" /><line x1="812.66" y1="167.69" x2="812.66" y2="205.34" stroke="#f6465d" stroke-width="1.4" /><rect x="809.66" y="169.87" width="6" height="20.74" rx="1.5" fill="#f6465d" /><line x1="823.39" y1="191.15" x2="823.39" y2="263.19" stroke="#f6465d" stroke-width="1.4" /><rect x="820.39" y="191.70" width="6" height="38.75" rx="1.5" fill="#f6465d" /><line x1="834.13" y1="217.35" x2="834.13" y2="240.27" stroke="#0ecb81" stroke-width="1.4" /><rect x="831.13" y="220.07" width="6" height="10.37" rx="1.5" fill="#0ecb81" /><line x1="844.86" y1="175.33" x2="844.86" y2="232.63" stroke="#0ecb81" stroke-width="1.4" /><rect x="841.86" y="218.98" width="6" height="2.00" rx="1.5" fill="#0ecb81" /><line x1="855.59" y1="216.25" x2="855.59" y2="246.27" stroke="#f6465d" stroke-width="1.4" /><rect x="852.59" y="218.98" width="6" height="17.46" rx="1.5" fill="#f6465d" /><line x1="866.33" y1="205.89" x2="866.33" y2="237.54" stroke="#0ecb81" stroke-width="1.4" /><rect x="863.33" y="217.89" width="6" height="18.55" rx="1.5" fill="#0ecb81" /><line x1="877.06" y1="196.06" x2="877.06" y2="245.72" stroke="#f6465d" stroke-width="1.4" /><rect x="874.06" y="217.35" width="6" height="18.01" rx="1.5" fill="#f6465d" /><line x1="887.80" y1="222.26" x2="887.80" y2="259.37" stroke="#0ecb81" stroke-width="1.4" /><rect x="884.80" y="233.17" width="6" height="2.00" rx="1.5" fill="#0ecb81" /><line x1="898.53" y1="227.17" x2="898.53" y2="249.54" stroke="#f6465d" stroke-width="1.4" /><rect x="895.53" y="233.17" width="6" height="14.19" rx="1.5" fill="#f6465d" /><line x1="909.27" y1="233.17" x2="909.27" y2="302.48" stroke="#f6465d" stroke-width="1.4" /><rect x="906.27" y="246.81" width="6" height="18.01" rx="1.5" fill="#f6465d" /><line x1="920.00" y1="264.28" x2="920.00" y2="287.74" stroke="#f6465d" stroke-width="1.4" /><rect x="917.00" y="264.82" width="6" height="21.83" rx="1.5" fill="#f6465d" />
  <polyline points="72.00,188.42 93.47,452.00 222.28,168.23 265.22,366.32 555.04,58.00" fill="none" stroke="#2fc273" stroke-width="4" stroke-linecap="round" stroke-linejoin="round" />
  <circle cx="72.00" cy="188.42" r="5.5" fill="#2fc273" fill-opacity="0.15" stroke="#2fc273" stroke-width="2" /><text x="72.00" y="176.42" fill="#f3f4f6" font-size="15" font-weight="700" text-anchor="middle">X</text><circle cx="93.47" cy="452.00" r="5.5" fill="#2fc273" fill-opacity="0.15" stroke="#2fc273" stroke-width="2" /><text x="93.47" y="440.00" fill="#f3f4f6" font-size="15" font-weight="700" text-anchor="middle">A</text><circle cx="222.28" cy="168.23" r="5.5" fill="#2fc273" fill-opacity="0.15" stroke="#2fc273" stroke-width="2" /><text x="222.28" y="156.23" fill="#f3f4f6" font-size="15" font-weight="700" text-anchor="middle">B</text><circle cx="265.22" cy="366.32" r="5.5" fill="#2fc273" fill-opacity="0.15" stroke="#2fc273" stroke-width="2" /><text x="265.22" y="354.32" fill="#f3f4f6" font-size="15" font-weight="700" text-anchor="middle">C</text><circle cx="555.04" cy="58.00" r="5.5" fill="#2fc273" fill-opacity="0.15" stroke="#2fc273" stroke-width="2" /><text x="555.04" y="46.00" fill="#f3f4f6" font-size="15" font-weight="700" text-anchor="middle">D</text>
  <text x="56" y="492" fill="#8ba0b5" font-size="18">Complete · TP1 0.059182 · TP2 0.057848 · SL 0.061968</text>
</svg>
