<svg xmlns="http://www.w3.org/2000/svg" width="960" height="540" viewBox="0 0 960 540">
  <rect width="960" height="540" rx="24" fill="#0b1220" />
  <rect x="28" y="28" width="904" height="484" rx="22" fill="#111827" stroke="#1f2937" />
  <text x="56" y="74" fill="#f3f4f6" font-size="34" font-weight="700">LITUSDT · AB=CD</text>
  <text x="904" y="74" fill="#8ba0b5" font-size="20" text-anchor="end">Bearish (매도) · Score 75.5</text>
  <line x1="72" y1="58" x2="920" y2="58" stroke="#223045" stroke-width="1" stroke-dasharray="4 8" /><line x1="72" y1="156" x2="920" y2="156" stroke="#223045" stroke-width="1" stroke-dasharray="4 8" /><line x1="72" y1="255" x2="920" y2="255" stroke="#223045" stroke-width="1" stroke-dasharray="4 8" /><line x1="72" y1="353" x2="920" y2="353" stroke="#223045" stroke-width="1" stroke-dasharray="4 8" /><line x1="72" y1="452" x2="920" y2="452" stroke="#223045" stroke-width="1" stroke-dasharray="4 8" />
  <rect x="580.71" y="-89.90" width="84" height="40.50" fill="#fbbf24" fill-opacity="0.12" stroke="#fbbf24" stroke-width="1.5" stroke-dasharray="6 6" />
  <line x1="72.00" y1="266.05" x2="72.00" y2="275.25" stroke="#f6465d" stroke-width="1.4" /><rect x="69.00" y="270.96" width="6" height="2.00" rx="1.5" fill="#f6465d" /><line x1="82.73" y1="262.98" x2="82.73" y2="275.25" stroke="#0ecb81" stroke-width="1.4" /><rect x="79.73" y="270.96" width="6" height="2.00" rx="1.5" fill="#0ecb81" /><line x1="93.47" y1="268.50" x2="93.47" y2="278.32" stroke="#f6465d" stroke-width="1.4" /><rect x="90.47" y="269.73" width="6" height="3.07" rx="1.5" fill="#f6465d" /><line x1="104.20" y1="272.80" x2="104.20" y2="287.53" stroke="#f6465d" stroke-width="1.4" /><rect x="101.20" y="272.80" width="6" height="8.59" rx="1.5" fill="#f6465d" /><line x1="114.94" y1="259.91" x2="114.94" y2="288.75" stroke="#f6465d" stroke-width="1.4" /><rect x="111.94" y="282.00" width="6" height="4.91" rx="1.5" fill="#f6465d" /><line x1="125.67" y1="275.25" x2="125.67" y2="286.30" stroke="#0ecb81" stroke-width="1.4" /><rect x="122.67" y="276.48" width="6" height="9.82" rx="1.5" fill="#0ecb81" /><line x1="136.41" y1="274.64" x2="136.41" y2="289.37" stroke="#f6465d" stroke-width="1.4" /><rect x="133.41" y="276.48" width="6" height="11.05" rx="1.5" fill="#f6465d" /><line x1="147.14" y1="279.55" x2="147.14" y2="310.23" stroke="#f6465d" stroke-width="1.4" /><rect x="144.14" y="286.91" width="6" height="12.89" rx="1.5" fill="#f6465d" /><line x1="157.87" y1="285.69" x2="157.87" y2="302.87" stroke="#0ecb81" stroke-width="1.4" /><rect x="154.87" y="294.28" width="6" height="5.52" rx="1.5" fill="#0ecb81" /><line x1="168.61" y1="294.89" x2="168.61" y2="327.42" stroke="#f6465d" stroke-width="1.4" /><rect x="165.61" y="294.89" width="6" height="18.41" rx="1.5" fill="#f6465d" /><line x1="179.34" y1="304.71" x2="179.34" y2="329.26" stroke="#f6465d" stroke-width="1.4" /><rect x="176.34" y="312.69" width="6" height="4.30" rx="1.5" fill="#f6465d" /><line x1="190.08" y1="310.85" x2="190.08" y2="329.87" stroke="#f6465d" stroke-width="1.4" /><rect x="187.08" y="316.98" width="6" height="10.43" rx="1.5" fill="#f6465d" /><line x1="200.81" y1="314.53" x2="200.81" y2="326.80" stroke="#0ecb81" stroke-width="1.4" /><rect x="197.81" y="316.98" width="6" height="9.82" rx="1.5" fill="#0ecb81" /><line x1="211.54" y1="315.14" x2="211.54" y2="323.74" stroke="#f6465d" stroke-width="1.4" /><rect x="208.54" y="316.98" width="6" height="4.91" rx="1.5" fill="#f6465d" /><line x1="222.28" y1="320.67" x2="222.28" y2="354.42" stroke="#f6465d" stroke-width="1.4" /><rect x="219.28" y="321.28" width="6" height="16.57" rx="1.5" fill="#f6465d" /><line x1="233.01" y1="332.94" x2="233.01" y2="342.15" stroke="#f6465d" stroke-width="1.4" /><rect x="230.01" y="337.85" width="6" height="2.00" rx="1.5" fill="#f6465d" /><line x1="243.75" y1="291.82" x2="243.75" y2="339.08" stroke="#0ecb81" stroke-width="1.4" /><rect x="240.75" y="301.03" width="6" height="38.05" rx="1.5" fill="#0ecb81" /><line x1="254.48" y1="297.96" x2="254.48" y2="323.74" stroke="#f6465d" stroke-width="1.4" /><rect x="251.48" y="301.03" width="6" height="22.09" rx="1.5" fill="#f6465d" /><line x1="265.22" y1="312.69" x2="265.22" y2="326.80" stroke="#0ecb81" stroke-width="1.4" /><rect x="262.22" y="316.37" width="6" height="6.14" rx="1.5" fill="#0ecb81" /><line x1="275.95" y1="302.26" x2="275.95" y2="323.74" stroke="#f6465d" stroke-width="1.4" /><rect x="272.95" y="316.37" width="6" height="6.14" rx="1.5" fill="#f6465d" /><line x1="286.68" y1="314.53" x2="286.68" y2="323.74" stroke="#f6465d" stroke-width="1.4" /><rect x="283.68" y="320.05" width="6" height="2.00" rx="1.5" fill="#f6465d" /><line x1="297.42" y1="302.87" x2="297.42" y2="328.64" stroke="#0ecb81" stroke-width="1.4" /><rect x="294.42" y="308.39" width="6" height="13.50" rx="1.5" fill="#0ecb81" /><line x1="308.15" y1="249.48" x2="308.15" y2="307.17" stroke="#0ecb81" stroke-width="1.4" /><rect x="305.15" y="250.70" width="6" height="56.46" rx="1.5" fill="#0ecb81" /><line x1="318.89" y1="241.50" x2="318.89" y2="277.71" stroke="#f6465d" stroke-width="1.4" /><rect x="315.89" y="251.32" width="6" height="22.09" rx="1.5" fill="#f6465d" /><line x1="329.62" y1="241.50" x2="329.62" y2="285.69" stroke="#0ecb81" stroke-width="1.4" /><rect x="326.62" y="244.57" width="6" height="29.46" rx="1.5" fill="#0ecb81" /><line x1="340.35" y1="223.09" x2="340.35" y2="278.32" stroke="#f6465d" stroke-width="1.4" /><rect x="337.35" y="244.57" width="6" height="14.73" rx="1.5" fill="#f6465d" /><line x1="351.09" y1="251.93" x2="351.09" y2="270.96" stroke="#f6465d" stroke-width="1.4" /><rect x="348.09" y="258.68" width="6" height="7.98" rx="1.5" fill="#f6465d" /><line x1="361.82" y1="241.50" x2="361.82" y2="271.57" stroke="#0ecb81" stroke-width="1.4" /><rect x="358.82" y="262.98" width="6" height="3.68" rx="1.5" fill="#0ecb81" /><line x1="372.56" y1="243.95" x2="372.56" y2="264.82" stroke="#0ecb81" stroke-width="1.4" /><rect x="369.56" y="252.55" width="6" height="11.05" rx="1.5" fill="#0ecb81" /><line x1="383.29" y1="248.25" x2="383.29" y2="256.23" stroke="#0ecb81" stroke-width="1.4" /><rect x="380.29" y="251.32" width="6" height="2.00" rx="1.5" fill="#0ecb81" /><line x1="394.03" y1="245.18" x2="394.03" y2="261.75" stroke="#0ecb81" stroke-width="1.4" /><rect x="391.03" y="250.09" width="6" height="2.00" rx="1.5" fill="#0ecb81" /><line x1="404.76" y1="197.31" x2="404.76" y2="257.45" stroke="#0ecb81" stroke-width="1.4" /><rect x="401.76" y="201.61" width="6" height="49.10" rx="1.5" fill="#0ecb81" /><line x1="415.49" y1="193.02" x2="415.49" y2="222.47" stroke="#f6465d" stroke-width="1.4" /><rect x="412.49" y="199.77" width="6" height="21.48" rx="1.5" fill="#f6465d" /><line x1="426.23" y1="187.49" x2="426.23" y2="226.77" stroke="#0ecb81" stroke-width="1.4" /><rect x="423.23" y="212.65" width="6" height="8.59" rx="1.5" fill="#0ecb81" /><line x1="436.96" y1="212.04" x2="436.96" y2="249.48" stroke="#f6465d" stroke-width="1.4" /><rect x="433.96" y="212.04" width="6" height="30.69" rx="1.5" fill="#f6465d" /><line x1="447.70" y1="235.98" x2="447.70" y2="244.57" stroke="#0ecb81" stroke-width="1.4" /><rect x="444.70" y="239.04" width="6" height="3.07" rx="1.5" fill="#0ecb81" /><line x1="458.43" y1="164.79" x2="458.43" y2="243.34" stroke="#0ecb81" stroke-width="1.4" /><rect x="455.43" y="181.36" width="6" height="58.30" rx="1.5" fill="#0ecb81" /><line x1="469.16" y1="151.90" x2="469.16" y2="194.86" stroke="#0ecb81" stroke-width="1.4" /><rect x="466.16" y="154.97" width="6" height="27.00" rx="1.5" fill="#0ecb81" /><line x1="479.90" y1="146.99" x2="479.90" y2="182.58" stroke="#0ecb81" stroke-width="1.4" /><rect x="476.90" y="153.74" width="6" height="2.00" rx="1.5" fill="#0ecb81" /><line x1="490.63" y1="88.07" x2="490.63" y2="161.10" stroke="#0ecb81" stroke-width="1.4" /><rect x="487.63" y="91.75" width="6" height="61.98" rx="1.5" fill="#0ecb81" /><line x1="501.37" y1="58.00" x2="501.37" y2="102.19" stroke="#0ecb81" stroke-width="1.4" /><rect x="498.37" y="69.66" width="6" height="22.09" rx="1.5" fill="#0ecb81" /><line x1="512.10" y1="64.75" x2="512.10" y2="114.46" stroke="#f6465d" stroke-width="1.4" /><rect x="509.10" y="70.27" width="6" height="38.66" rx="1.5" fill="#f6465d" /><line x1="522.84" y1="100.35" x2="522.84" y2="121.83" stroke="#f6465d" stroke-width="1.4" /><rect x="519.84" y="108.32" width="6" height="9.82" rx="1.5" fill="#f6465d" /><line x1="533.57" y1="114.46" x2="533.57" y2="176.45" stroke="#f6465d" stroke-width="1.4" /><rect x="530.57" y="117.53" width="6" height="54.01" rx="1.5" fill="#f6465d" /><line x1="544.30" y1="154.35" x2="544.30" y2="174.60" stroke="#0ecb81" stroke-width="1.4" /><rect x="541.30" y="167.24" width="6" height="4.91" rx="1.5" fill="#0ecb81" /><line x1="555.04" y1="154.97" x2="555.04" y2="176.45" stroke="#0ecb81" stroke-width="1.4" /><rect x="552.04" y="164.17" width="6" height="3.68" rx="1.5" fill="#0ecb81" /><line x1="565.77" y1="153.12" x2="565.77" y2="170.31" stroke="#0ecb81" stroke-width="1.4" /><rect x="562.77" y="164.17" width="6" height="2.00" rx="1.5" fill="#0ecb81" /><line x1="576.51" y1="140.24" x2="576.51" y2="178.29" stroke="#f6465d" stroke-width="1.4" /><rect x="573.51" y="164.17" width="6" height="14.12" rx="1.5" fill="#f6465d" /><line x1="587.24" y1="151.90" x2="587.24" y2="180.74" stroke="#0ecb81" stroke-width="1.4" /><rect x="584.24" y="158.03" width="6" height="19.02" rx="1.5" fill="#0ecb81" /><line x1="597.97" y1="131.64" x2="597.97" y2="167.24" stroke="#0ecb81" stroke-width="1.4" /><rect x="594.97" y="133.49" width="6" height="25.16" rx="1.5" fill="#0ecb81" /><line x1="608.71" y1="90.53" x2="608.71" y2="143.31" stroke="#0ecb81" stroke-width="1.4" /><rect x="605.71" y="104.64" width="6" height="28.84" rx="1.5" fill="#0ecb81" /><line x1="619.44" y1="100.35" x2="619.44" y2="123.05" stroke="#f6465d" stroke-width="1.4" /><rect x="616.44" y="104.64" width="6" height="12.27" rx="1.5" fill="#f6465d" /><line x1="630.18" y1="97.89" x2="630.18" y2="156.81" stroke="#f6465d" stroke-width="1.4" /><rect x="627.18" y="116.30" width="6" height="37.44" rx="1.5" fill="#f6465d" /><line x1="640.91" y1="151.90" x2="640.91" y2="169.08" stroke="#f6465d" stroke-width="1.4" /><rect x="637.91" y="153.12" width="6" height="2.45" rx="1.5" fill="#f6465d" /><line x1="651.65" y1="136.55" x2="651.65" y2="156.81" stroke="#0ecb81" stroke-width="1.4" /><rect x="648.65" y="146.99" width="6" height="7.98" rx="1.5" fill="#0ecb81" /><line x1="662.38" y1="136.55" x2="662.38" y2="166.01" stroke="#f6465d" stroke-width="1.4" /><rect x="659.38" y="146.37" width="6" height="16.57" rx="1.5" fill="#f6465d" /><line x1="673.11" y1="134.71" x2="673.11" y2="173.99" stroke="#0ecb81" stroke-width="1.4" /><rect x="670.11" y="140.85" width="6" height="22.09" rx="1.5" fill="#0ecb81" /><line x1="683.85" y1="139.62" x2="683.85" y2="153.74" stroke="#f6465d" stroke-width="1.4" /><rect x="680.85" y="141.46" width="6" height="12.27" rx="1.5" fill="#f6465d" /><line x1="694.58" y1="140.24" x2="694.58" y2="163.56" stroke="#0ecb81" stroke-width="1.4" /><rect x="691.58" y="148.83" width="6" height="4.91" rx="1.5" fill="#0ecb81" /><line x1="705.32" y1="146.99" x2="705.32" y2="167.85" stroke="#f6465d" stroke-width="1.4" /><rect x="702.32" y="149.44" width="6" height="18.41" rx="1.5" fill="#f6465d" /><line x1="716.05" y1="154.35" x2="716.05" y2="181.36" stroke="#0ecb81" stroke-width="1.4" /><rect x="713.05" y="158.65" width="6" height="9.21" rx="1.5" fill="#0ecb81" /><line x1="726.78" y1="154.35" x2="726.78" y2="170.31" stroke="#0ecb81" stroke-width="1.4" /><rect x="723.78" y="158.03" width="6" height="2.00" rx="1.5" fill="#0ecb81" /><line x1="737.52" y1="152.51" x2="737.52" y2="164.79" stroke="#f6465d" stroke-width="1.4" /><rect x="734.52" y="158.65" width="6" height="2.45" rx="1.5" fill="#f6465d" /><line x1="748.25" y1="158.03" x2="748.25" y2="193.63" stroke="#f6465d" stroke-width="1.4" /><rect x="745.25" y="160.49" width="6" height="24.55" rx="1.5" fill="#f6465d" /><line x1="758.99" y1="184.42" x2="758.99" y2="202.83" stroke="#0ecb81" stroke-width="1.4" /><rect x="755.99" y="184.42" width="6" height="2.00" rx="1.5" fill="#0ecb81" /><line x1="769.72" y1="168.47" x2="769.72" y2="186.88" stroke="#0ecb81" stroke-width="1.4" /><rect x="766.72" y="183.81" width="6" height="2.00" rx="1.5" fill="#0ecb81" /><line x1="780.46" y1="177.67" x2="780.46" y2="187.49" stroke="#0ecb81" stroke-width="1.4" /><rect x="777.46" y="184.42" width="6" height="2.00" rx="1.5" fill="#0ecb81" /><line x1="791.19" y1="177.06" x2="791.19" y2="199.15" stroke="#0ecb81" stroke-width="1.4" /><rect x="788.19" y="179.51" width="6" height="4.91" rx="1.5" fill="#0ecb81" /><line x1="801.92" y1="172.15" x2="801.92" y2="189.95" stroke="#f6465d" stroke-width="1.4" /><rect x="798.92" y="179.51" width="6" height="9.21" rx="1.5" fill="#f6465d" /><line x1="812.66" y1="189.33" x2="812.66" y2="243.34" stroke="#f6465d" stroke-width="1.4" /><rect x="809.66" y="189.33" width="6" height="48.48" rx="1.5" fill="#f6465d" /><line x1="823.39" y1="223.70" x2="823.39" y2="241.50" stroke="#0ecb81" stroke-width="1.4" /><rect x="820.39" y="228.61" width="6" height="7.98" rx="1.5" fill="#0ecb81" /><line x1="834.13" y1="226.16" x2="834.13" y2="251.93" stroke="#f6465d" stroke-width="1.4" /><rect x="831.13" y="228.61" width="6" height="5.52" rx="1.5" fill="#f6465d" /><line x1="844.86" y1="216.34" x2="844.86" y2="240.88" stroke="#0ecb81" stroke-width="1.4" /><rect x="841.86" y="216.34" width="6" height="17.18" rx="1.5" fill="#0ecb81" /><line x1="855.59" y1="204.06" x2="855.59" y2="257.45" stroke="#f6465d" stroke-width="1.4" /><rect x="852.59" y="216.34" width="6" height="37.44" rx="1.5" fill="#f6465d" /><line x1="866.33" y1="251.93" x2="866.33" y2="333.55" stroke="#f6465d" stroke-width="1.4" /><rect x="863.33" y="253.16" width="6" height="67.51" rx="1.5" fill="#f6465d" /><line x1="877.06" y1="321.28" x2="877.06" y2="448.32" stroke="#f6465d" stroke-width="1.4" /><rect x="874.06" y="321.28" width="6" height="98.81" rx="1.5" fill="#f6465d" /><line x1="887.80" y1="383.26" x2="887.80" y2="437.88" stroke="#0ecb81" stroke-width="1.4" /><rect x="884.80" y="407.20" width="6" height="12.27" rx="1.5" fill="#0ecb81" /><line x1="898.53" y1="388.79" x2="898.53" y2="420.09" stroke="#f6465d" stroke-width="1.4" /><rect x="895.53" y="407.81" width="6" height="6.75" rx="1.5" fill="#f6465d" /><line x1="909.27" y1="401.68" x2="909.27" y2="452.00" stroke="#f6465d" stroke-width="1.4" /><rect x="906.27" y="415.18" width="6" height="23.93" rx="1.5" fill="#f6465d" /><line x1="920.00" y1="433.59" x2="920.00" y2="445.86" stroke="#f6465d" stroke-width="1.4" /><rect x="917.00" y="438.50" width="6" height="6.75" rx="1.5" fill="#f6465d" />
  <polyline points="243.75,291.82 297.42,328.64 501.37,58.00 587.24,180.74 608.71,90.53" fill="none" stroke="#2fc273" stroke-width="4" stroke-linecap="round" stroke-linejoin="round" />
  <circle cx="243.75" cy="291.82" r="5.5" fill="#2fc273" fill-opacity="0.15" stroke="#2fc273" stroke-width="2" /><text x="243.75" y="279.82" fill="#f3f4f6" font-size="15" font-weight="700" text-anchor="middle">X</text><circle cx="297.42" cy="328.64" r="5.5" fill="#2fc273" fill-opacity="0.15" stroke="#2fc273" stroke-width="2" /><text x="297.42" y="316.64" fill="#f3f4f6" font-size="15" font-weight="700" text-anchor="middle">A</text><circle cx="501.37" cy="58.00" r="5.5" fill="#2fc273" fill-opacity="0.15" stroke="#2fc273" stroke-width="2" /><text x="501.37" y="46.00" fill="#f3f4f6" font-size="15" font-weight="700" text-anchor="middle">B</text><circle cx="587.24" cy="180.74" r="5.5" fill="#2fc273" fill-opacity="0.15" stroke="#2fc273" stroke-width="2" /><text x="587.24" y="168.74" fill="#f3f4f6" font-size="15" font-weight="700" text-anchor="middle">C</text><circle cx="608.71" cy="90.53" r="5.5" fill="#2fc273" fill-opacity="0.15" stroke="#2fc273" stroke-width="2" /><text x="608.71" y="78.53" fill="#f3f4f6" font-size="15" font-weight="700" text-anchor="middle">D</text>
  <text x="56" y="492" fill="#8ba0b5" font-size="18">일반 완성 · TP1 0.98998 · TP2 0.98652 · SL 0.99638</text>
</svg>
