<svg xmlns="http://www.w3.org/2000/svg" width="960" height="540" viewBox="0 0 960 540">
  <rect width="960" height="540" rx="24" fill="#0b1220" />
  <rect x="28" y="28" width="904" height="484" rx="22" fill="#111827" stroke="#1f2937" />
  <text x="56" y="74" fill="#f3f4f6" font-size="34" font-weight="700">MMTUSDT · AB=CD</text>
  <text x="904" y="74" fill="#8ba0b5" font-size="20" text-anchor="end">Bullish (매수) · Score 91.0</text>
  <line x1="72" y1="58" x2="920" y2="58" stroke="#223045" stroke-width="1" stroke-dasharray="4 8" /><line x1="72" y1="156" x2="920" y2="156" stroke="#223045" stroke-width="1" stroke-dasharray="4 8" /><line x1="72" y1="255" x2="920" y2="255" stroke="#223045" stroke-width="1" stroke-dasharray="4 8" /><line x1="72" y1="353" x2="920" y2="353" stroke="#223045" stroke-width="1" stroke-dasharray="4 8" /><line x1="72" y1="452" x2="920" y2="452" stroke="#223045" stroke-width="1" stroke-dasharray="4 8" />
  <rect x="569.97" y="437.67" width="84" height="97.07" fill="#fbbf24" fill-opacity="0.12" stroke="#fbbf24" stroke-width="1.5" stroke-dasharray="6 6" />
  <line x1="72.00" y1="65.16" x2="72.00" y2="280.07" stroke="#0ecb81" stroke-width="1.4" /><rect x="69.00" y="143.96" width="6" height="132.53" rx="1.5" fill="#0ecb81" /><line x1="82.73" y1="118.89" x2="82.73" y2="251.42" stroke="#f6465d" stroke-width="1.4" /><rect x="79.73" y="143.96" width="6" height="82.38" rx="1.5" fill="#f6465d" /><line x1="93.47" y1="222.76" x2="93.47" y2="294.40" stroke="#f6465d" stroke-width="1.4" /><rect x="90.47" y="226.35" width="6" height="39.40" rx="1.5" fill="#f6465d" /><line x1="104.20" y1="197.69" x2="104.20" y2="283.65" stroke="#0ecb81" stroke-width="1.4" /><rect x="101.20" y="208.44" width="6" height="60.89" rx="1.5" fill="#0ecb81" /><line x1="114.94" y1="169.04" x2="114.94" y2="240.67" stroke="#f6465d" stroke-width="1.4" /><rect x="111.94" y="208.44" width="6" height="17.91" rx="1.5" fill="#f6465d" /><line x1="125.67" y1="215.60" x2="125.67" y2="251.42" stroke="#0ecb81" stroke-width="1.4" /><rect x="122.67" y="226.35" width="6" height="2.00" rx="1.5" fill="#0ecb81" /><line x1="136.41" y1="186.95" x2="136.41" y2="237.09" stroke="#0ecb81" stroke-width="1.4" /><rect x="133.41" y="201.27" width="6" height="32.24" rx="1.5" fill="#0ecb81" /><line x1="147.14" y1="151.13" x2="147.14" y2="208.44" stroke="#0ecb81" stroke-width="1.4" /><rect x="144.14" y="197.69" width="6" height="3.58" rx="1.5" fill="#0ecb81" /><line x1="157.87" y1="147.55" x2="157.87" y2="197.69" stroke="#0ecb81" stroke-width="1.4" /><rect x="154.87" y="169.04" width="6" height="28.65" rx="1.5" fill="#0ecb81" /><line x1="168.61" y1="165.45" x2="168.61" y2="265.75" stroke="#f6465d" stroke-width="1.4" /><rect x="165.61" y="169.04" width="6" height="64.47" rx="1.5" fill="#f6465d" /><line x1="179.34" y1="201.27" x2="179.34" y2="251.42" stroke="#0ecb81" stroke-width="1.4" /><rect x="176.34" y="219.18" width="6" height="14.33" rx="1.5" fill="#0ecb81" /><line x1="190.08" y1="176.20" x2="190.08" y2="240.67" stroke="#0ecb81" stroke-width="1.4" /><rect x="187.08" y="190.53" width="6" height="28.65" rx="1.5" fill="#0ecb81" /><line x1="200.81" y1="158.29" x2="200.81" y2="215.60" stroke="#f6465d" stroke-width="1.4" /><rect x="197.81" y="186.95" width="6" height="17.91" rx="1.5" fill="#f6465d" /><line x1="211.54" y1="179.78" x2="211.54" y2="226.35" stroke="#0ecb81" stroke-width="1.4" /><rect x="208.54" y="186.95" width="6" height="17.91" rx="1.5" fill="#0ecb81" /><line x1="222.28" y1="179.78" x2="222.28" y2="222.76" stroke="#f6465d" stroke-width="1.4" /><rect x="219.28" y="186.95" width="6" height="10.75" rx="1.5" fill="#f6465d" /><line x1="233.01" y1="165.45" x2="233.01" y2="251.42" stroke="#f6465d" stroke-width="1.4" /><rect x="230.01" y="197.69" width="6" height="35.82" rx="1.5" fill="#f6465d" /><line x1="243.75" y1="190.53" x2="243.75" y2="240.67" stroke="#0ecb81" stroke-width="1.4" /><rect x="240.75" y="219.18" width="6" height="14.33" rx="1.5" fill="#0ecb81" /><line x1="254.48" y1="201.27" x2="254.48" y2="237.09" stroke="#0ecb81" stroke-width="1.4" /><rect x="251.48" y="204.85" width="6" height="14.33" rx="1.5" fill="#0ecb81" /><line x1="265.22" y1="183.36" x2="265.22" y2="226.35" stroke="#0ecb81" stroke-width="1.4" /><rect x="262.22" y="194.11" width="6" height="7.16" rx="1.5" fill="#0ecb81" /><line x1="275.95" y1="172.62" x2="275.95" y2="201.27" stroke="#0ecb81" stroke-width="1.4" /><rect x="272.95" y="179.78" width="6" height="14.33" rx="1.5" fill="#0ecb81" /><line x1="286.68" y1="140.38" x2="286.68" y2="190.53" stroke="#0ecb81" stroke-width="1.4" /><rect x="283.68" y="169.04" width="6" height="7.16" rx="1.5" fill="#0ecb81" /><line x1="297.42" y1="90.24" x2="297.42" y2="194.11" stroke="#0ecb81" stroke-width="1.4" /><rect x="294.42" y="129.64" width="6" height="42.98" rx="1.5" fill="#0ecb81" /><line x1="308.15" y1="86.65" x2="308.15" y2="147.55" stroke="#0ecb81" stroke-width="1.4" /><rect x="305.15" y="118.89" width="6" height="10.75" rx="1.5" fill="#0ecb81" /><line x1="318.89" y1="104.56" x2="318.89" y2="143.96" stroke="#f6465d" stroke-width="1.4" /><rect x="315.89" y="115.31" width="6" height="21.49" rx="1.5" fill="#f6465d" /><line x1="329.62" y1="90.24" x2="329.62" y2="136.80" stroke="#0ecb81" stroke-width="1.4" /><rect x="326.62" y="100.98" width="6" height="35.82" rx="1.5" fill="#0ecb81" /><line x1="340.35" y1="58.00" x2="340.35" y2="118.89" stroke="#0ecb81" stroke-width="1.4" /><rect x="337.35" y="90.24" width="6" height="14.33" rx="1.5" fill="#0ecb81" /><line x1="351.09" y1="65.16" x2="351.09" y2="104.56" stroke="#f6465d" stroke-width="1.4" /><rect x="348.09" y="90.24" width="6" height="7.16" rx="1.5" fill="#f6465d" /><line x1="361.82" y1="68.75" x2="361.82" y2="161.87" stroke="#f6465d" stroke-width="1.4" /><rect x="358.82" y="97.40" width="6" height="46.56" rx="1.5" fill="#f6465d" /><line x1="372.56" y1="111.73" x2="372.56" y2="143.96" stroke="#0ecb81" stroke-width="1.4" /><rect x="369.56" y="118.89" width="6" height="25.07" rx="1.5" fill="#0ecb81" /><line x1="383.29" y1="100.98" x2="383.29" y2="140.38" stroke="#0ecb81" stroke-width="1.4" /><rect x="380.29" y="111.73" width="6" height="7.16" rx="1.5" fill="#0ecb81" /><line x1="394.03" y1="90.24" x2="394.03" y2="143.96" stroke="#0ecb81" stroke-width="1.4" /><rect x="391.03" y="90.24" width="6" height="17.91" rx="1.5" fill="#0ecb81" /><line x1="404.76" y1="90.24" x2="404.76" y2="154.71" stroke="#f6465d" stroke-width="1.4" /><rect x="401.76" y="90.24" width="6" height="64.47" rx="1.5" fill="#f6465d" /><line x1="415.49" y1="129.64" x2="415.49" y2="204.85" stroke="#f6465d" stroke-width="1.4" /><rect x="412.49" y="154.71" width="6" height="14.33" rx="1.5" fill="#f6465d" /><line x1="426.23" y1="143.96" x2="426.23" y2="269.33" stroke="#0ecb81" stroke-width="1.4" /><rect x="423.23" y="158.29" width="6" height="10.75" rx="1.5" fill="#0ecb81" /><line x1="436.96" y1="133.22" x2="436.96" y2="323.05" stroke="#f6465d" stroke-width="1.4" /><rect x="433.96" y="158.29" width="6" height="111.04" rx="1.5" fill="#f6465d" /><line x1="447.70" y1="247.84" x2="447.70" y2="319.47" stroke="#f6465d" stroke-width="1.4" /><rect x="444.70" y="269.33" width="6" height="21.49" rx="1.5" fill="#f6465d" /><line x1="458.43" y1="258.58" x2="458.43" y2="319.47" stroke="#0ecb81" stroke-width="1.4" /><rect x="455.43" y="262.16" width="6" height="25.07" rx="1.5" fill="#0ecb81" /><line x1="469.16" y1="226.35" x2="469.16" y2="355.29" stroke="#f6465d" stroke-width="1.4" /><rect x="466.16" y="262.16" width="6" height="82.38" rx="1.5" fill="#f6465d" /><line x1="479.90" y1="319.47" x2="479.90" y2="362.45" stroke="#0ecb81" stroke-width="1.4" /><rect x="476.90" y="323.05" width="6" height="17.91" rx="1.5" fill="#0ecb81" /><line x1="490.63" y1="276.49" x2="490.63" y2="337.38" stroke="#0ecb81" stroke-width="1.4" /><rect x="487.63" y="280.07" width="6" height="42.98" rx="1.5" fill="#0ecb81" /><line x1="501.37" y1="176.20" x2="501.37" y2="297.98" stroke="#0ecb81" stroke-width="1.4" /><rect x="498.37" y="183.36" width="6" height="96.71" rx="1.5" fill="#0ecb81" /><line x1="512.10" y1="165.45" x2="512.10" y2="265.75" stroke="#f6465d" stroke-width="1.4" /><rect x="509.10" y="179.78" width="6" height="75.22" rx="1.5" fill="#f6465d" /><line x1="522.84" y1="215.60" x2="522.84" y2="272.91" stroke="#0ecb81" stroke-width="1.4" /><rect x="519.84" y="226.35" width="6" height="28.65" rx="1.5" fill="#0ecb81" /><line x1="533.57" y1="215.60" x2="533.57" y2="301.56" stroke="#f6465d" stroke-width="1.4" /><rect x="530.57" y="226.35" width="6" height="75.22" rx="1.5" fill="#f6465d" /><line x1="544.30" y1="269.33" x2="544.30" y2="315.89" stroke="#f6465d" stroke-width="1.4" /><rect x="541.30" y="297.98" width="6" height="7.16" rx="1.5" fill="#f6465d" /><line x1="555.04" y1="301.56" x2="555.04" y2="373.20" stroke="#f6465d" stroke-width="1.4" /><rect x="552.04" y="305.15" width="6" height="60.89" rx="1.5" fill="#f6465d" /><line x1="565.77" y1="358.87" x2="565.77" y2="426.93" stroke="#f6465d" stroke-width="1.4" /><rect x="562.77" y="366.04" width="6" height="50.15" rx="1.5" fill="#f6465d" /><line x1="576.51" y1="383.95" x2="576.51" y2="423.35" stroke="#0ecb81" stroke-width="1.4" /><rect x="573.51" y="401.85" width="6" height="14.33" rx="1.5" fill="#0ecb81" /><line x1="587.24" y1="330.22" x2="587.24" y2="398.27" stroke="#0ecb81" stroke-width="1.4" /><rect x="584.24" y="340.96" width="6" height="57.31" rx="1.5" fill="#0ecb81" /><line x1="597.97" y1="344.55" x2="597.97" y2="441.25" stroke="#f6465d" stroke-width="1.4" /><rect x="594.97" y="344.55" width="6" height="82.38" rx="1.5" fill="#f6465d" /><line x1="608.71" y1="373.20" x2="608.71" y2="430.51" stroke="#0ecb81" stroke-width="1.4" /><rect x="605.71" y="376.78" width="6" height="46.56" rx="1.5" fill="#0ecb81" /><line x1="619.44" y1="362.45" x2="619.44" y2="412.60" stroke="#f6465d" stroke-width="1.4" /><rect x="616.44" y="373.20" width="6" height="17.91" rx="1.5" fill="#f6465d" /><line x1="630.18" y1="355.29" x2="630.18" y2="401.85" stroke="#0ecb81" stroke-width="1.4" /><rect x="627.18" y="358.87" width="6" height="28.65" rx="1.5" fill="#0ecb81" /><line x1="640.91" y1="333.80" x2="640.91" y2="358.87" stroke="#0ecb81" stroke-width="1.4" /><rect x="637.91" y="355.29" width="6" height="3.58" rx="1.5" fill="#0ecb81" /><line x1="651.65" y1="344.55" x2="651.65" y2="366.04" stroke="#f6465d" stroke-width="1.4" /><rect x="648.65" y="355.29" width="6" height="3.58" rx="1.5" fill="#f6465d" /><line x1="662.38" y1="323.05" x2="662.38" y2="366.04" stroke="#f6465d" stroke-width="1.4" /><rect x="659.38" y="358.87" width="6" height="3.58" rx="1.5" fill="#f6465d" /><line x1="673.11" y1="351.71" x2="673.11" y2="398.27" stroke="#f6465d" stroke-width="1.4" /><rect x="670.11" y="362.45" width="6" height="28.65" rx="1.5" fill="#f6465d" /><line x1="683.85" y1="373.20" x2="683.85" y2="409.02" stroke="#0ecb81" stroke-width="1.4" /><rect x="680.85" y="383.95" width="6" height="7.16" rx="1.5" fill="#0ecb81" /><line x1="694.58" y1="337.38" x2="694.58" y2="387.53" stroke="#0ecb81" stroke-width="1.4" /><rect x="691.58" y="340.96" width="6" height="42.98" rx="1.5" fill="#0ecb81" /><line x1="705.32" y1="301.56" x2="705.32" y2="366.04" stroke="#0ecb81" stroke-width="1.4" /><rect x="702.32" y="308.73" width="6" height="32.24" rx="1.5" fill="#0ecb81" /><line x1="716.05" y1="312.31" x2="716.05" y2="376.78" stroke="#f6465d" stroke-width="1.4" /><rect x="713.05" y="312.31" width="6" height="42.98" rx="1.5" fill="#f6465d" /><line x1="726.78" y1="344.55" x2="726.78" y2="437.67" stroke="#f6465d" stroke-width="1.4" /><rect x="723.78" y="358.87" width="6" height="28.65" rx="1.5" fill="#f6465d" /><line x1="737.52" y1="351.71" x2="737.52" y2="398.27" stroke="#0ecb81" stroke-width="1.4" /><rect x="734.52" y="362.45" width="6" height="25.07" rx="1.5" fill="#0ecb81" /><line x1="748.25" y1="337.38" x2="748.25" y2="373.20" stroke="#0ecb81" stroke-width="1.4" /><rect x="745.25" y="355.29" width="6" height="3.58" rx="1.5" fill="#0ecb81" /><line x1="758.99" y1="348.13" x2="758.99" y2="373.20" stroke="#0ecb81" stroke-width="1.4" /><rect x="755.99" y="355.29" width="6" height="2.00" rx="1.5" fill="#0ecb81" /><line x1="769.72" y1="348.13" x2="769.72" y2="369.62" stroke="#f6465d" stroke-width="1.4" /><rect x="766.72" y="351.71" width="6" height="7.16" rx="1.5" fill="#f6465d" /><line x1="780.46" y1="355.29" x2="780.46" y2="391.11" stroke="#f6465d" stroke-width="1.4" /><rect x="777.46" y="358.87" width="6" height="14.33" rx="1.5" fill="#f6465d" /><line x1="791.19" y1="369.62" x2="791.19" y2="398.27" stroke="#0ecb81" stroke-width="1.4" /><rect x="788.19" y="376.78" width="6" height="2.00" rx="1.5" fill="#0ecb81" /><line x1="801.92" y1="366.04" x2="801.92" y2="391.11" stroke="#f6465d" stroke-width="1.4" /><rect x="798.92" y="373.20" width="6" height="10.75" rx="1.5" fill="#f6465d" /><line x1="812.66" y1="344.55" x2="812.66" y2="398.27" stroke="#0ecb81" stroke-width="1.4" /><rect x="809.66" y="376.78" width="6" height="10.75" rx="1.5" fill="#0ecb81" /><line x1="823.39" y1="376.78" x2="823.39" y2="452.00" stroke="#f6465d" stroke-width="1.4" /><rect x="820.39" y="380.36" width="6" height="32.24" rx="1.5" fill="#f6465d" /><line x1="834.13" y1="376.78" x2="834.13" y2="423.35" stroke="#0ecb81" stroke-width="1.4" /><rect x="831.13" y="387.53" width="6" height="28.65" rx="1.5" fill="#0ecb81" /><line x1="844.86" y1="369.62" x2="844.86" y2="401.85" stroke="#0ecb81" stroke-width="1.4" /><rect x="841.86" y="387.53" width="6" height="2.00" rx="1.5" fill="#0ecb81" /><line x1="855.59" y1="373.20" x2="855.59" y2="398.27" stroke="#0ecb81" stroke-width="1.4" /><rect x="852.59" y="383.95" width="6" height="7.16" rx="1.5" fill="#0ecb81" /><line x1="866.33" y1="369.62" x2="866.33" y2="387.53" stroke="#0ecb81" stroke-width="1.4" /><rect x="863.33" y="383.95" width="6" height="2.00" rx="1.5" fill="#0ecb81" /><line x1="877.06" y1="348.13" x2="877.06" y2="387.53" stroke="#0ecb81" stroke-width="1.4" /><rect x="874.06" y="348.13" width="6" height="32.24" rx="1.5" fill="#0ecb81" /><line x1="887.80" y1="348.13" x2="887.80" y2="376.78" stroke="#f6465d" stroke-width="1.4" /><rect x="884.80" y="351.71" width="6" height="17.91" rx="1.5" fill="#f6465d" /><line x1="898.53" y1="373.20" x2="898.53" y2="401.85" stroke="#f6465d" stroke-width="1.4" /><rect x="895.53" y="373.20" width="6" height="21.49" rx="1.5" fill="#f6465d" /><line x1="909.27" y1="387.53" x2="909.27" y2="430.51" stroke="#f6465d" stroke-width="1.4" /><rect x="906.27" y="391.11" width="6" height="17.91" rx="1.5" fill="#f6465d" /><line x1="920.00" y1="394.69" x2="920.00" y2="416.18" stroke="#0ecb81" stroke-width="1.4" /><rect x="917.00" y="405.44" width="6" height="3.58" rx="1.5" fill="#0ecb81" />
  <polyline points="361.82,161.87 404.76,90.24 479.90,362.45 512.10,165.45 597.97,441.25" fill="none" stroke="#2fc273" stroke-width="4" stroke-linecap="round" stroke-linejoin="round" />
  <circle cx="361.82" cy="161.87" r="5.5" fill="#2fc273" fill-opacity="0.15" stroke="#2fc273" stroke-width="2" /><text x="361.82" y="149.87" fill="#f3f4f6" font-size="15" font-weight="700" text-anchor="middle">X</text><circle cx="404.76" cy="90.24" r="5.5" fill="#2fc273" fill-opacity="0.15" stroke="#2fc273" stroke-width="2" /><text x="404.76" y="78.24" fill="#f3f4f6" font-size="15" font-weight="700" text-anchor="middle">A</text><circle cx="479.90" cy="362.45" r="5.5" fill="#2fc273" fill-opacity="0.15" stroke="#2fc273" stroke-width="2" /><text x="479.90" y="350.45" fill="#f3f4f6" font-size="15" font-weight="700" text-anchor="middle">B</text><circle cx="512.10" cy="165.45" r="5.5" fill="#2fc273" fill-opacity="0.15" stroke="#2fc273" stroke-width="2" /><text x="512.10" y="153.45" fill="#f3f4f6" font-size="15" font-weight="700" text-anchor="middle">C</text><circle cx="597.97" cy="441.25" r="5.5" fill="#2fc273" fill-opacity="0.15" stroke="#2fc273" stroke-width="2" /><text x="597.97" y="429.25" fill="#f3f4f6" font-size="15" font-weight="700" text-anchor="middle">D</text>
  <text x="56" y="492" fill="#8ba0b5" font-size="18">일반 완성 · TP1 0.13894 · TP2 0.14076 · SL 0.13574</text>
</svg>
