<svg xmlns="http://www.w3.org/2000/svg" width="960" height="540" viewBox="0 0 960 540">
  <rect width="960" height="540" rx="24" fill="#0b1220" />
  <rect x="28" y="28" width="904" height="484" rx="22" fill="#111827" stroke="#1f2937" />
  <text x="56" y="74" fill="#f3f4f6" font-size="34" font-weight="700">MMTUSDT · AB=CD</text>
  <text x="904" y="74" fill="#8ba0b5" font-size="20" text-anchor="end">Bearish (매도) · Score 80.6</text>
  <line x1="72" y1="58" x2="920" y2="58" stroke="#223045" stroke-width="1" stroke-dasharray="4 8" /><line x1="72" y1="156" x2="920" y2="156" stroke="#223045" stroke-width="1" stroke-dasharray="4 8" /><line x1="72" y1="255" x2="920" y2="255" stroke="#223045" stroke-width="1" stroke-dasharray="4 8" /><line x1="72" y1="353" x2="920" y2="353" stroke="#223045" stroke-width="1" stroke-dasharray="4 8" /><line x1="72" y1="452" x2="920" y2="452" stroke="#223045" stroke-width="1" stroke-dasharray="4 8" />
  <rect x="516.30" y="419.39" width="84" height="7.16" fill="#fbbf24" fill-opacity="0.12" stroke="#fbbf24" stroke-width="1.5" stroke-dasharray="6 6" />
  <line x1="72.00" y1="440.69" x2="72.00" y2="450.11" stroke="#f6465d" stroke-width="1.4" /><rect x="69.00" y="441.63" width="6" height="2.83" rx="1.5" fill="#f6465d" /><line x1="82.73" y1="438.80" x2="82.73" y2="445.40" stroke="#0ecb81" stroke-width="1.4" /><rect x="79.73" y="441.63" width="6" height="3.77" rx="1.5" fill="#0ecb81" /><line x1="93.47" y1="439.75" x2="93.47" y2="443.52" stroke="#f6465d" stroke-width="1.4" /><rect x="90.47" y="440.69" width="6" height="2.00" rx="1.5" fill="#f6465d" /><line x1="104.20" y1="442.57" x2="104.20" y2="446.34" stroke="#f6465d" stroke-width="1.4" /><rect x="101.20" y="442.57" width="6" height="3.77" rx="1.5" fill="#f6465d" /><line x1="114.94" y1="442.57" x2="114.94" y2="449.17" stroke="#0ecb81" stroke-width="1.4" /><rect x="111.94" y="443.52" width="6" height="3.77" rx="1.5" fill="#0ecb81" /><line x1="125.67" y1="435.98" x2="125.67" y2="444.46" stroke="#0ecb81" stroke-width="1.4" /><rect x="122.67" y="435.98" width="6" height="7.54" rx="1.5" fill="#0ecb81" /><line x1="136.41" y1="429.38" x2="136.41" y2="435.03" stroke="#0ecb81" stroke-width="1.4" /><rect x="133.41" y="433.15" width="6" height="2.00" rx="1.5" fill="#0ecb81" /><line x1="147.14" y1="424.67" x2="147.14" y2="437.86" stroke="#f6465d" stroke-width="1.4" /><rect x="144.14" y="433.15" width="6" height="3.77" rx="1.5" fill="#f6465d" /><line x1="157.87" y1="430.32" x2="157.87" y2="437.86" stroke="#0ecb81" stroke-width="1.4" /><rect x="154.87" y="435.03" width="6" height="2.00" rx="1.5" fill="#0ecb81" /><line x1="168.61" y1="430.32" x2="168.61" y2="436.92" stroke="#0ecb81" stroke-width="1.4" /><rect x="165.61" y="433.15" width="6" height="2.00" rx="1.5" fill="#0ecb81" /><line x1="179.34" y1="431.26" x2="179.34" y2="435.98" stroke="#f6465d" stroke-width="1.4" /><rect x="176.34" y="434.09" width="6" height="2.00" rx="1.5" fill="#f6465d" /><line x1="190.08" y1="431.26" x2="190.08" y2="435.03" stroke="#0ecb81" stroke-width="1.4" /><rect x="187.08" y="431.26" width="6" height="3.77" rx="1.5" fill="#0ecb81" /><line x1="200.81" y1="428.44" x2="200.81" y2="433.15" stroke="#0ecb81" stroke-width="1.4" /><rect x="197.81" y="429.38" width="6" height="2.00" rx="1.5" fill="#0ecb81" /><line x1="211.54" y1="424.67" x2="211.54" y2="431.26" stroke="#f6465d" stroke-width="1.4" /><rect x="208.54" y="428.44" width="6" height="2.00" rx="1.5" fill="#f6465d" /><line x1="222.28" y1="428.44" x2="222.28" y2="435.03" stroke="#0ecb81" stroke-width="1.4" /><rect x="219.28" y="430.32" width="6" height="2.00" rx="1.5" fill="#0ecb81" /><line x1="233.01" y1="427.49" x2="233.01" y2="436.92" stroke="#f6465d" stroke-width="1.4" /><rect x="230.01" y="431.26" width="6" height="4.71" rx="1.5" fill="#f6465d" /><line x1="243.75" y1="430.32" x2="243.75" y2="439.75" stroke="#0ecb81" stroke-width="1.4" /><rect x="240.75" y="432.21" width="6" height="4.71" rx="1.5" fill="#0ecb81" /><line x1="254.48" y1="429.38" x2="254.48" y2="435.98" stroke="#f6465d" stroke-width="1.4" /><rect x="251.48" y="432.21" width="6" height="2.83" rx="1.5" fill="#f6465d" /><line x1="265.22" y1="432.21" x2="265.22" y2="435.98" stroke="#0ecb81" stroke-width="1.4" /><rect x="262.22" y="432.21" width="6" height="2.83" rx="1.5" fill="#0ecb81" /><line x1="275.95" y1="433.15" x2="275.95" y2="449.17" stroke="#f6465d" stroke-width="1.4" /><rect x="272.95" y="433.15" width="6" height="13.20" rx="1.5" fill="#f6465d" /><line x1="286.68" y1="444.46" x2="286.68" y2="452.00" stroke="#f6465d" stroke-width="1.4" /><rect x="283.68" y="446.34" width="6" height="2.83" rx="1.5" fill="#f6465d" /><line x1="297.42" y1="442.57" x2="297.42" y2="451.06" stroke="#0ecb81" stroke-width="1.4" /><rect x="294.42" y="444.46" width="6" height="5.66" rx="1.5" fill="#0ecb81" /><line x1="308.15" y1="441.63" x2="308.15" y2="444.46" stroke="#0ecb81" stroke-width="1.4" /><rect x="305.15" y="442.57" width="6" height="2.00" rx="1.5" fill="#0ecb81" /><line x1="318.89" y1="441.63" x2="318.89" y2="443.52" stroke="#0ecb81" stroke-width="1.4" /><rect x="315.89" y="441.63" width="6" height="2.00" rx="1.5" fill="#0ecb81" /><line x1="329.62" y1="441.63" x2="329.62" y2="444.46" stroke="#f6465d" stroke-width="1.4" /><rect x="326.62" y="441.63" width="6" height="2.83" rx="1.5" fill="#f6465d" /><line x1="340.35" y1="440.69" x2="340.35" y2="445.40" stroke="#f6465d" stroke-width="1.4" /><rect x="337.35" y="443.52" width="6" height="2.00" rx="1.5" fill="#f6465d" /><line x1="351.09" y1="442.57" x2="351.09" y2="445.40" stroke="#0ecb81" stroke-width="1.4" /><rect x="348.09" y="442.57" width="6" height="2.00" rx="1.5" fill="#0ecb81" /><line x1="361.82" y1="436.92" x2="361.82" y2="441.63" stroke="#0ecb81" stroke-width="1.4" /><rect x="358.82" y="436.92" width="6" height="4.71" rx="1.5" fill="#0ecb81" /><line x1="372.56" y1="435.03" x2="372.56" y2="438.80" stroke="#f6465d" stroke-width="1.4" /><rect x="369.56" y="436.92" width="6" height="2.00" rx="1.5" fill="#f6465d" /><line x1="383.29" y1="435.98" x2="383.29" y2="438.80" stroke="#0ecb81" stroke-width="1.4" /><rect x="380.29" y="436.92" width="6" height="2.00" rx="1.5" fill="#0ecb81" /><line x1="394.03" y1="435.98" x2="394.03" y2="437.86" stroke="#0ecb81" stroke-width="1.4" /><rect x="391.03" y="436.92" width="6" height="2.00" rx="1.5" fill="#0ecb81" /><line x1="404.76" y1="433.15" x2="404.76" y2="439.75" stroke="#0ecb81" stroke-width="1.4" /><rect x="401.76" y="435.98" width="6" height="2.00" rx="1.5" fill="#0ecb81" /><line x1="415.49" y1="436.92" x2="415.49" y2="440.69" stroke="#f6465d" stroke-width="1.4" /><rect x="412.49" y="436.92" width="6" height="2.00" rx="1.5" fill="#f6465d" /><line x1="426.23" y1="436.92" x2="426.23" y2="439.75" stroke="#0ecb81" stroke-width="1.4" /><rect x="423.23" y="436.92" width="6" height="2.00" rx="1.5" fill="#0ecb81" /><line x1="436.96" y1="434.09" x2="436.96" y2="437.86" stroke="#0ecb81" stroke-width="1.4" /><rect x="433.96" y="434.09" width="6" height="3.77" rx="1.5" fill="#0ecb81" /><line x1="447.70" y1="433.15" x2="447.70" y2="435.98" stroke="#0ecb81" stroke-width="1.4" /><rect x="444.70" y="434.09" width="6" height="2.00" rx="1.5" fill="#0ecb81" /><line x1="458.43" y1="428.44" x2="458.43" y2="435.03" stroke="#0ecb81" stroke-width="1.4" /><rect x="455.43" y="430.32" width="6" height="3.77" rx="1.5" fill="#0ecb81" /><line x1="469.16" y1="428.44" x2="469.16" y2="436.92" stroke="#f6465d" stroke-width="1.4" /><rect x="466.16" y="430.32" width="6" height="6.60" rx="1.5" fill="#f6465d" /><line x1="479.90" y1="435.03" x2="479.90" y2="438.80" stroke="#0ecb81" stroke-width="1.4" /><rect x="476.90" y="435.98" width="6" height="2.00" rx="1.5" fill="#0ecb81" /><line x1="490.63" y1="431.26" x2="490.63" y2="435.98" stroke="#0ecb81" stroke-width="1.4" /><rect x="487.63" y="434.09" width="6" height="2.00" rx="1.5" fill="#0ecb81" /><line x1="501.37" y1="434.09" x2="501.37" y2="437.86" stroke="#f6465d" stroke-width="1.4" /><rect x="498.37" y="434.09" width="6" height="2.00" rx="1.5" fill="#f6465d" /><line x1="512.10" y1="428.44" x2="512.10" y2="435.03" stroke="#0ecb81" stroke-width="1.4" /><rect x="509.10" y="428.44" width="6" height="5.66" rx="1.5" fill="#0ecb81" /><line x1="522.84" y1="420.89" x2="522.84" y2="429.38" stroke="#0ecb81" stroke-width="1.4" /><rect x="519.84" y="422.78" width="6" height="6.60" rx="1.5" fill="#0ecb81" /><line x1="533.57" y1="419.01" x2="533.57" y2="427.49" stroke="#f6465d" stroke-width="1.4" /><rect x="530.57" y="423.72" width="6" height="2.00" rx="1.5" fill="#f6465d" /><line x1="544.30" y1="418.07" x2="544.30" y2="428.44" stroke="#f6465d" stroke-width="1.4" /><rect x="541.30" y="423.72" width="6" height="3.77" rx="1.5" fill="#f6465d" /><line x1="555.04" y1="424.67" x2="555.04" y2="429.38" stroke="#0ecb81" stroke-width="1.4" /><rect x="552.04" y="426.55" width="6" height="2.00" rx="1.5" fill="#0ecb81" /><line x1="565.77" y1="424.67" x2="565.77" y2="428.44" stroke="#f6465d" stroke-width="1.4" /><rect x="562.77" y="426.55" width="6" height="2.00" rx="1.5" fill="#f6465d" /><line x1="576.51" y1="421.84" x2="576.51" y2="431.26" stroke="#0ecb81" stroke-width="1.4" /><rect x="573.51" y="424.67" width="6" height="3.77" rx="1.5" fill="#0ecb81" /><line x1="587.24" y1="423.72" x2="587.24" y2="431.26" stroke="#f6465d" stroke-width="1.4" /><rect x="584.24" y="423.72" width="6" height="6.60" rx="1.5" fill="#f6465d" /><line x1="597.97" y1="429.38" x2="597.97" y2="437.86" stroke="#f6465d" stroke-width="1.4" /><rect x="594.97" y="429.38" width="6" height="4.71" rx="1.5" fill="#f6465d" /><line x1="608.71" y1="419.95" x2="608.71" y2="433.15" stroke="#0ecb81" stroke-width="1.4" /><rect x="605.71" y="422.78" width="6" height="10.37" rx="1.5" fill="#0ecb81" /><line x1="619.44" y1="417.12" x2="619.44" y2="424.67" stroke="#0ecb81" stroke-width="1.4" /><rect x="616.44" y="419.01" width="6" height="3.77" rx="1.5" fill="#0ecb81" /><line x1="630.18" y1="412.41" x2="630.18" y2="420.89" stroke="#0ecb81" stroke-width="1.4" /><rect x="627.18" y="417.12" width="6" height="2.00" rx="1.5" fill="#0ecb81" /><line x1="640.91" y1="416.18" x2="640.91" y2="426.55" stroke="#f6465d" stroke-width="1.4" /><rect x="637.91" y="418.07" width="6" height="4.71" rx="1.5" fill="#f6465d" /><line x1="651.65" y1="419.01" x2="651.65" y2="422.78" stroke="#0ecb81" stroke-width="1.4" /><rect x="648.65" y="420.89" width="6" height="2.00" rx="1.5" fill="#0ecb81" /><line x1="662.38" y1="411.47" x2="662.38" y2="423.72" stroke="#0ecb81" stroke-width="1.4" /><rect x="659.38" y="419.95" width="6" height="2.00" rx="1.5" fill="#0ecb81" /><line x1="673.11" y1="413.35" x2="673.11" y2="420.89" stroke="#0ecb81" stroke-width="1.4" /><rect x="670.11" y="414.30" width="6" height="5.66" rx="1.5" fill="#0ecb81" /><line x1="683.85" y1="410.53" x2="683.85" y2="417.12" stroke="#0ecb81" stroke-width="1.4" /><rect x="680.85" y="412.41" width="6" height="2.00" rx="1.5" fill="#0ecb81" /><line x1="694.58" y1="410.53" x2="694.58" y2="417.12" stroke="#0ecb81" stroke-width="1.4" /><rect x="691.58" y="411.47" width="6" height="2.00" rx="1.5" fill="#0ecb81" /><line x1="705.32" y1="402.99" x2="705.32" y2="412.41" stroke="#0ecb81" stroke-width="1.4" /><rect x="702.32" y="403.93" width="6" height="7.54" rx="1.5" fill="#0ecb81" /><line x1="716.05" y1="398.27" x2="716.05" y2="406.76" stroke="#0ecb81" stroke-width="1.4" /><rect x="713.05" y="400.16" width="6" height="4.71" rx="1.5" fill="#0ecb81" /><line x1="726.78" y1="396.39" x2="726.78" y2="409.58" stroke="#f6465d" stroke-width="1.4" /><rect x="723.78" y="400.16" width="6" height="6.60" rx="1.5" fill="#f6465d" /><line x1="737.52" y1="404.87" x2="737.52" y2="412.41" stroke="#f6465d" stroke-width="1.4" /><rect x="734.52" y="406.76" width="6" height="2.00" rx="1.5" fill="#f6465d" /><line x1="748.25" y1="402.99" x2="748.25" y2="414.30" stroke="#0ecb81" stroke-width="1.4" /><rect x="745.25" y="409.58" width="6" height="2.00" rx="1.5" fill="#0ecb81" /><line x1="758.99" y1="400.16" x2="758.99" y2="412.41" stroke="#0ecb81" stroke-width="1.4" /><rect x="755.99" y="401.10" width="6" height="8.48" rx="1.5" fill="#0ecb81" /><line x1="769.72" y1="397.33" x2="769.72" y2="408.64" stroke="#f6465d" stroke-width="1.4" /><rect x="766.72" y="400.16" width="6" height="6.60" rx="1.5" fill="#f6465d" /><line x1="780.46" y1="401.10" x2="780.46" y2="408.64" stroke="#0ecb81" stroke-width="1.4" /><rect x="777.46" y="405.81" width="6" height="2.00" rx="1.5" fill="#0ecb81" /><line x1="791.19" y1="401.10" x2="791.19" y2="411.47" stroke="#0ecb81" stroke-width="1.4" /><rect x="788.19" y="401.10" width="6" height="4.71" rx="1.5" fill="#0ecb81" /><line x1="801.92" y1="308.73" x2="801.92" y2="402.99" stroke="#0ecb81" stroke-width="1.4" /><rect x="798.92" y="321.92" width="6" height="80.12" rx="1.5" fill="#0ecb81" /><line x1="812.66" y1="268.20" x2="812.66" y2="323.81" stroke="#0ecb81" stroke-width="1.4" /><rect x="809.66" y="293.65" width="6" height="27.33" rx="1.5" fill="#0ecb81" /><line x1="823.39" y1="218.24" x2="823.39" y2="297.42" stroke="#0ecb81" stroke-width="1.4" /><rect x="820.39" y="242.75" width="6" height="49.01" rx="1.5" fill="#0ecb81" /><line x1="834.13" y1="175.82" x2="834.13" y2="247.46" stroke="#0ecb81" stroke-width="1.4" /><rect x="831.13" y="190.90" width="6" height="51.84" rx="1.5" fill="#0ecb81" /><line x1="844.86" y1="147.55" x2="844.86" y2="199.39" stroke="#0ecb81" stroke-width="1.4" /><rect x="841.86" y="165.45" width="6" height="23.56" rx="1.5" fill="#0ecb81" /><line x1="855.59" y1="138.12" x2="855.59" y2="220.12" stroke="#0ecb81" stroke-width="1.4" /><rect x="852.59" y="159.80" width="6" height="6.60" rx="1.5" fill="#0ecb81" /><line x1="866.33" y1="152.26" x2="866.33" y2="180.54" stroke="#f6465d" stroke-width="1.4" /><rect x="863.33" y="159.80" width="6" height="4.71" rx="1.5" fill="#f6465d" /><line x1="877.06" y1="140.00" x2="877.06" y2="200.33" stroke="#0ecb81" stroke-width="1.4" /><rect x="874.06" y="152.26" width="6" height="12.25" rx="1.5" fill="#0ecb81" /><line x1="887.80" y1="96.65" x2="887.80" y2="154.14" stroke="#0ecb81" stroke-width="1.4" /><rect x="884.80" y="122.10" width="6" height="29.22" rx="1.5" fill="#0ecb81" /><line x1="898.53" y1="102.30" x2="898.53" y2="124.92" stroke="#0ecb81" stroke-width="1.4" /><rect x="895.53" y="116.44" width="6" height="5.66" rx="1.5" fill="#0ecb81" /><line x1="909.27" y1="59.89" x2="909.27" y2="123.04" stroke="#0ecb81" stroke-width="1.4" /><rect x="906.27" y="87.22" width="6" height="29.22" rx="1.5" fill="#0ecb81" /><line x1="920.00" y1="58.00" x2="920.00" y2="88.16" stroke="#0ecb81" stroke-width="1.4" /><rect x="917.00" y="58.00" width="6" height="29.22" rx="1.5" fill="#0ecb81" />
  <polyline points="404.76,433.15 415.49,440.69 469.16,428.44 479.90,438.80 544.30,418.07" fill="none" stroke="#2fc273" stroke-width="4" stroke-linecap="round" stroke-linejoin="round" />
  <circle cx="404.76" cy="433.15" r="5.5" fill="#2fc273" fill-opacity="0.15" stroke="#2fc273" stroke-width="2" /><text x="404.76" y="421.15" fill="#f3f4f6" font-size="15" font-weight="700" text-anchor="middle">X</text><circle cx="415.49" cy="440.69" r="5.5" fill="#2fc273" fill-opacity="0.15" stroke="#2fc273" stroke-width="2" /><text x="415.49" y="428.69" fill="#f3f4f6" font-size="15" font-weight="700" text-anchor="middle">A</text><circle cx="469.16" cy="428.44" r="5.5" fill="#2fc273" fill-opacity="0.15" stroke="#2fc273" stroke-width="2" /><text x="469.16" y="416.44" fill="#f3f4f6" font-size="15" font-weight="700" text-anchor="middle">B</text><circle cx="479.90" cy="438.80" r="5.5" fill="#2fc273" fill-opacity="0.15" stroke="#2fc273" stroke-width="2" /><text x="479.90" y="426.80" fill="#f3f4f6" font-size="15" font-weight="700" text-anchor="middle">C</text><circle cx="544.30" cy="418.07" r="5.5" fill="#2fc273" fill-opacity="0.15" stroke="#2fc273" stroke-width="2" /><text x="544.30" y="406.07" fill="#f3f4f6" font-size="15" font-weight="700" text-anchor="middle">D</text>
  <text x="56" y="492" fill="#8ba0b5" font-size="18">실시간 터치 · TP1 0.11446 · TP2 0.11394 · SL 0.1154</text>
</svg>
