<svg xmlns="http://www.w3.org/2000/svg" width="960" height="540" viewBox="0 0 960 540">
  <rect width="960" height="540" rx="24" fill="#0b1220" />
  <rect x="28" y="28" width="904" height="484" rx="22" fill="#111827" stroke="#1f2937" />
  <text x="56" y="74" fill="#f3f4f6" font-size="34" font-weight="700">MUSDT · AB=CD</text>
  <text x="904" y="74" fill="#8ba0b5" font-size="20" text-anchor="end">Bearish (매도) · Score 85.5</text>
  <line x1="72" y1="58" x2="920" y2="58" stroke="#223045" stroke-width="1" stroke-dasharray="4 8" /><line x1="72" y1="156" x2="920" y2="156" stroke="#223045" stroke-width="1" stroke-dasharray="4 8" /><line x1="72" y1="255" x2="920" y2="255" stroke="#223045" stroke-width="1" stroke-dasharray="4 8" /><line x1="72" y1="353" x2="920" y2="353" stroke="#223045" stroke-width="1" stroke-dasharray="4 8" /><line x1="72" y1="452" x2="920" y2="452" stroke="#223045" stroke-width="1" stroke-dasharray="4 8" />
  <rect x="408.96" y="24.39" width="84" height="30.13" fill="#fbbf24" fill-opacity="0.12" stroke="#fbbf24" stroke-width="1.5" stroke-dasharray="6 6" />
  <line x1="72.00" y1="66.30" x2="72.00" y2="181.80" stroke="#0ecb81" stroke-width="1.4" /><rect x="69.00" y="138.73" width="6" height="15.06" rx="1.5" fill="#0ecb81" /><line x1="82.73" y1="95.28" x2="82.73" y2="175.43" stroke="#0ecb81" stroke-width="1.4" /><rect x="79.73" y="117.10" width="6" height="22.02" rx="1.5" fill="#0ecb81" /><line x1="93.47" y1="105.70" x2="93.47" y2="131.01" stroke="#0ecb81" stroke-width="1.4" /><rect x="90.47" y="118.45" width="6" height="2.00" rx="1.5" fill="#0ecb81" /><line x1="104.20" y1="101.46" x2="104.20" y2="132.16" stroke="#f6465d" stroke-width="1.4" /><rect x="101.20" y="120.58" width="6" height="9.46" rx="1.5" fill="#f6465d" /><line x1="114.94" y1="124.05" x2="114.94" y2="155.73" stroke="#f6465d" stroke-width="1.4" /><rect x="111.94" y="129.65" width="6" height="18.54" rx="1.5" fill="#f6465d" /><line x1="125.67" y1="140.47" x2="125.67" y2="167.51" stroke="#0ecb81" stroke-width="1.4" /><rect x="122.67" y="143.56" width="6" height="5.79" rx="1.5" fill="#0ecb81" /><line x1="136.41" y1="140.08" x2="136.41" y2="172.53" stroke="#f6465d" stroke-width="1.4" /><rect x="133.41" y="143.17" width="6" height="7.53" rx="1.5" fill="#f6465d" /><line x1="147.14" y1="147.04" x2="147.14" y2="192.23" stroke="#f6465d" stroke-width="1.4" /><rect x="144.14" y="152.44" width="6" height="13.33" rx="1.5" fill="#f6465d" /><line x1="157.87" y1="159.59" x2="157.87" y2="202.27" stroke="#f6465d" stroke-width="1.4" /><rect x="154.87" y="165.58" width="6" height="30.71" rx="1.5" fill="#f6465d" /><line x1="168.61" y1="125.02" x2="168.61" y2="206.33" stroke="#0ecb81" stroke-width="1.4" /><rect x="165.61" y="148.97" width="6" height="45.19" rx="1.5" fill="#0ecb81" /><line x1="179.34" y1="123.86" x2="179.34" y2="168.28" stroke="#0ecb81" stroke-width="1.4" /><rect x="176.34" y="131.59" width="6" height="17.96" rx="1.5" fill="#0ecb81" /><line x1="190.08" y1="132.16" x2="190.08" y2="157.08" stroke="#f6465d" stroke-width="1.4" /><rect x="187.08" y="132.16" width="6" height="14.29" rx="1.5" fill="#f6465d" /><line x1="200.81" y1="135.45" x2="200.81" y2="182.38" stroke="#f6465d" stroke-width="1.4" /><rect x="197.81" y="145.49" width="6" height="32.06" rx="1.5" fill="#f6465d" /><line x1="211.54" y1="162.87" x2="211.54" y2="201.89" stroke="#f6465d" stroke-width="1.4" /><rect x="208.54" y="177.94" width="6" height="2.00" rx="1.5" fill="#f6465d" /><line x1="222.28" y1="153.80" x2="222.28" y2="180.84" stroke="#0ecb81" stroke-width="1.4" /><rect x="219.28" y="155.73" width="6" height="23.56" rx="1.5" fill="#0ecb81" /><line x1="233.01" y1="126.18" x2="233.01" y2="173.69" stroke="#0ecb81" stroke-width="1.4" /><rect x="230.01" y="127.92" width="6" height="27.04" rx="1.5" fill="#0ecb81" /><line x1="243.75" y1="116.13" x2="243.75" y2="138.35" stroke="#0ecb81" stroke-width="1.4" /><rect x="240.75" y="119.61" width="6" height="8.30" rx="1.5" fill="#0ecb81" /><line x1="254.48" y1="107.64" x2="254.48" y2="137.96" stroke="#0ecb81" stroke-width="1.4" /><rect x="251.48" y="118.26" width="6" height="2.00" rx="1.5" fill="#0ecb81" /><line x1="265.22" y1="104.74" x2="265.22" y2="131.59" stroke="#0ecb81" stroke-width="1.4" /><rect x="262.22" y="114.78" width="6" height="3.09" rx="1.5" fill="#0ecb81" /><line x1="275.95" y1="107.83" x2="275.95" y2="123.47" stroke="#0ecb81" stroke-width="1.4" /><rect x="272.95" y="112.08" width="6" height="3.48" rx="1.5" fill="#0ecb81" /><line x1="286.68" y1="96.24" x2="286.68" y2="119.03" stroke="#0ecb81" stroke-width="1.4" /><rect x="283.68" y="103.97" width="6" height="8.11" rx="1.5" fill="#0ecb81" /><line x1="297.42" y1="90.45" x2="297.42" y2="107.06" stroke="#0ecb81" stroke-width="1.4" /><rect x="294.42" y="98.56" width="6" height="5.79" rx="1.5" fill="#0ecb81" /><line x1="308.15" y1="93.54" x2="308.15" y2="108.02" stroke="#f6465d" stroke-width="1.4" /><rect x="305.15" y="97.98" width="6" height="2.32" rx="1.5" fill="#f6465d" /><line x1="318.89" y1="96.82" x2="318.89" y2="125.02" stroke="#f6465d" stroke-width="1.4" /><rect x="315.89" y="99.91" width="6" height="11.97" rx="1.5" fill="#f6465d" /><line x1="329.62" y1="107.44" x2="329.62" y2="149.93" stroke="#0ecb81" stroke-width="1.4" /><rect x="326.62" y="107.44" width="6" height="4.25" rx="1.5" fill="#0ecb81" /><line x1="340.35" y1="107.44" x2="340.35" y2="125.21" stroke="#f6465d" stroke-width="1.4" /><rect x="337.35" y="107.83" width="6" height="7.34" rx="1.5" fill="#f6465d" /><line x1="351.09" y1="113.82" x2="351.09" y2="140.08" stroke="#f6465d" stroke-width="1.4" /><rect x="348.09" y="114.98" width="6" height="19.12" rx="1.5" fill="#f6465d" /><line x1="361.82" y1="132.94" x2="361.82" y2="153.41" stroke="#f6465d" stroke-width="1.4" /><rect x="358.82" y="133.90" width="6" height="5.41" rx="1.5" fill="#f6465d" /><line x1="372.56" y1="125.79" x2="372.56" y2="162.87" stroke="#f6465d" stroke-width="1.4" /><rect x="369.56" y="139.12" width="6" height="19.51" rx="1.5" fill="#f6465d" /><line x1="383.29" y1="70.36" x2="383.29" y2="165.96" stroke="#0ecb81" stroke-width="1.4" /><rect x="380.29" y="109.18" width="6" height="50.60" rx="1.5" fill="#0ecb81" /><line x1="394.03" y1="97.79" x2="394.03" y2="112.08" stroke="#0ecb81" stroke-width="1.4" /><rect x="391.03" y="105.70" width="6" height="3.28" rx="1.5" fill="#0ecb81" /><line x1="404.76" y1="69.40" x2="404.76" y2="130.62" stroke="#0ecb81" stroke-width="1.4" /><rect x="401.76" y="80.98" width="6" height="24.72" rx="1.5" fill="#0ecb81" /><line x1="415.49" y1="79.82" x2="415.49" y2="111.31" stroke="#f6465d" stroke-width="1.4" /><rect x="412.49" y="81.56" width="6" height="25.69" rx="1.5" fill="#f6465d" /><line x1="426.23" y1="79.82" x2="426.23" y2="108.80" stroke="#0ecb81" stroke-width="1.4" /><rect x="423.23" y="99.91" width="6" height="7.53" rx="1.5" fill="#0ecb81" /><line x1="436.96" y1="58.00" x2="436.96" y2="106.67" stroke="#f6465d" stroke-width="1.4" /><rect x="433.96" y="97.40" width="6" height="2.00" rx="1.5" fill="#f6465d" /><line x1="447.70" y1="79.63" x2="447.70" y2="109.76" stroke="#0ecb81" stroke-width="1.4" /><rect x="444.70" y="95.66" width="6" height="4.06" rx="1.5" fill="#0ecb81" /><line x1="458.43" y1="80.98" x2="458.43" y2="105.13" stroke="#f6465d" stroke-width="1.4" /><rect x="455.43" y="95.47" width="6" height="2.00" rx="1.5" fill="#f6465d" /><line x1="469.16" y1="98.17" x2="469.16" y2="137.57" stroke="#f6465d" stroke-width="1.4" /><rect x="466.16" y="98.17" width="6" height="23.18" rx="1.5" fill="#f6465d" /><line x1="479.90" y1="116.52" x2="479.90" y2="151.09" stroke="#f6465d" stroke-width="1.4" /><rect x="476.90" y="122.12" width="6" height="10.43" rx="1.5" fill="#f6465d" /><line x1="490.63" y1="105.90" x2="490.63" y2="181.80" stroke="#f6465d" stroke-width="1.4" /><rect x="487.63" y="133.32" width="6" height="20.86" rx="1.5" fill="#f6465d" /><line x1="501.37" y1="154.18" x2="501.37" y2="178.52" stroke="#f6465d" stroke-width="1.4" /><rect x="498.37" y="154.18" width="6" height="23.37" rx="1.5" fill="#f6465d" /><line x1="512.10" y1="158.62" x2="512.10" y2="223.71" stroke="#f6465d" stroke-width="1.4" /><rect x="509.10" y="174.46" width="6" height="49.06" rx="1.5" fill="#f6465d" /><line x1="522.84" y1="204.01" x2="522.84" y2="239.36" stroke="#f6465d" stroke-width="1.4" /><rect x="519.84" y="222.36" width="6" height="10.43" rx="1.5" fill="#f6465d" /><line x1="533.57" y1="225.26" x2="533.57" y2="256.35" stroke="#0ecb81" stroke-width="1.4" /><rect x="530.57" y="228.93" width="6" height="4.06" rx="1.5" fill="#0ecb81" /><line x1="544.30" y1="224.87" x2="544.30" y2="283.97" stroke="#f6465d" stroke-width="1.4" /><rect x="541.30" y="228.93" width="6" height="42.88" rx="1.5" fill="#f6465d" /><line x1="555.04" y1="268.33" x2="555.04" y2="300.77" stroke="#f6465d" stroke-width="1.4" /><rect x="552.04" y="270.64" width="6" height="28.20" rx="1.5" fill="#f6465d" /><line x1="565.77" y1="279.91" x2="565.77" y2="302.70" stroke="#0ecb81" stroke-width="1.4" /><rect x="562.77" y="287.06" width="6" height="11.97" rx="1.5" fill="#0ecb81" /><line x1="576.51" y1="284.94" x2="576.51" y2="323.18" stroke="#f6465d" stroke-width="1.4" /><rect x="573.51" y="285.32" width="6" height="15.06" rx="1.5" fill="#f6465d" /><line x1="587.24" y1="299.81" x2="587.24" y2="395.41" stroke="#f6465d" stroke-width="1.4" /><rect x="584.24" y="300.39" width="6" height="87.10" rx="1.5" fill="#f6465d" /><line x1="597.97" y1="314.10" x2="597.97" y2="452.00" stroke="#0ecb81" stroke-width="1.4" /><rect x="594.97" y="314.68" width="6" height="73.20" rx="1.5" fill="#0ecb81" /><line x1="608.71" y1="313.33" x2="608.71" y2="420.71" stroke="#f6465d" stroke-width="1.4" /><rect x="605.71" y="314.68" width="6" height="74.74" rx="1.5" fill="#f6465d" /><line x1="619.44" y1="378.80" x2="619.44" y2="418.01" stroke="#f6465d" stroke-width="1.4" /><rect x="616.44" y="387.69" width="6" height="14.87" rx="1.5" fill="#f6465d" /><line x1="630.18" y1="331.29" x2="630.18" y2="408.35" stroke="#0ecb81" stroke-width="1.4" /><rect x="627.18" y="360.84" width="6" height="41.91" rx="1.5" fill="#0ecb81" /><line x1="640.91" y1="326.85" x2="640.91" y2="368.37" stroke="#0ecb81" stroke-width="1.4" /><rect x="637.91" y="337.47" width="6" height="23.56" rx="1.5" fill="#0ecb81" /><line x1="651.65" y1="320.09" x2="651.65" y2="338.24" stroke="#0ecb81" stroke-width="1.4" /><rect x="648.65" y="327.04" width="6" height="10.43" rx="1.5" fill="#0ecb81" /><line x1="662.38" y1="323.37" x2="662.38" y2="340.95" stroke="#f6465d" stroke-width="1.4" /><rect x="659.38" y="326.27" width="6" height="4.25" rx="1.5" fill="#f6465d" /><line x1="673.11" y1="258.86" x2="673.11" y2="332.25" stroke="#0ecb81" stroke-width="1.4" /><rect x="670.11" y="286.29" width="6" height="44.61" rx="1.5" fill="#0ecb81" /><line x1="683.85" y1="146.07" x2="683.85" y2="294.79" stroke="#0ecb81" stroke-width="1.4" /><rect x="680.85" y="234.72" width="6" height="51.76" rx="1.5" fill="#0ecb81" /><line x1="694.58" y1="204.20" x2="694.58" y2="248.43" stroke="#0ecb81" stroke-width="1.4" /><rect x="691.58" y="208.45" width="6" height="27.23" rx="1.5" fill="#0ecb81" /><line x1="705.32" y1="207.68" x2="705.32" y2="252.10" stroke="#f6465d" stroke-width="1.4" /><rect x="702.32" y="209.23" width="6" height="3.28" rx="1.5" fill="#f6465d" /><line x1="716.05" y1="207.49" x2="716.05" y2="240.90" stroke="#0ecb81" stroke-width="1.4" /><rect x="713.05" y="207.49" width="6" height="5.21" rx="1.5" fill="#0ecb81" /><line x1="726.78" y1="204.78" x2="726.78" y2="231.24" stroke="#f6465d" stroke-width="1.4" /><rect x="723.78" y="207.30" width="6" height="5.79" rx="1.5" fill="#f6465d" /><line x1="737.52" y1="193.78" x2="737.52" y2="214.83" stroke="#0ecb81" stroke-width="1.4" /><rect x="734.52" y="207.49" width="6" height="6.37" rx="1.5" fill="#0ecb81" /><line x1="748.25" y1="189.53" x2="748.25" y2="214.83" stroke="#0ecb81" stroke-width="1.4" /><rect x="745.25" y="194.93" width="6" height="12.75" rx="1.5" fill="#0ecb81" /><line x1="758.99" y1="165.77" x2="758.99" y2="203.63" stroke="#0ecb81" stroke-width="1.4" /><rect x="755.99" y="170.21" width="6" height="26.27" rx="1.5" fill="#0ecb81" /><line x1="769.72" y1="112.46" x2="769.72" y2="196.09" stroke="#0ecb81" stroke-width="1.4" /><rect x="766.72" y="142.59" width="6" height="28.20" rx="1.5" fill="#0ecb81" /><line x1="780.46" y1="133.71" x2="780.46" y2="176.59" stroke="#f6465d" stroke-width="1.4" /><rect x="777.46" y="140.28" width="6" height="35.54" rx="1.5" fill="#f6465d" /><line x1="791.19" y1="120.19" x2="791.19" y2="194.16" stroke="#0ecb81" stroke-width="1.4" /><rect x="788.19" y="140.28" width="6" height="33.80" rx="1.5" fill="#0ecb81" /><line x1="801.92" y1="132.55" x2="801.92" y2="162.49" stroke="#f6465d" stroke-width="1.4" /><rect x="798.92" y="141.63" width="6" height="17.77" rx="1.5" fill="#f6465d" /><line x1="812.66" y1="104.93" x2="812.66" y2="159.78" stroke="#0ecb81" stroke-width="1.4" /><rect x="809.66" y="114.98" width="6" height="44.81" rx="1.5" fill="#0ecb81" /><line x1="823.39" y1="92.96" x2="823.39" y2="121.35" stroke="#0ecb81" stroke-width="1.4" /><rect x="820.39" y="93.15" width="6" height="20.86" rx="1.5" fill="#0ecb81" /><line x1="834.13" y1="78.28" x2="834.13" y2="103.58" stroke="#f6465d" stroke-width="1.4" /><rect x="831.13" y="95.28" width="6" height="2.00" rx="1.5" fill="#f6465d" /><line x1="844.86" y1="79.05" x2="844.86" y2="148.00" stroke="#f6465d" stroke-width="1.4" /><rect x="841.86" y="98.17" width="6" height="36.50" rx="1.5" fill="#f6465d" /><line x1="855.59" y1="102.61" x2="855.59" y2="151.86" stroke="#0ecb81" stroke-width="1.4" /><rect x="852.59" y="114.98" width="6" height="19.89" rx="1.5" fill="#0ecb81" /><line x1="866.33" y1="109.76" x2="866.33" y2="147.04" stroke="#f6465d" stroke-width="1.4" /><rect x="863.33" y="114.78" width="6" height="21.44" rx="1.5" fill="#f6465d" /><line x1="877.06" y1="126.95" x2="877.06" y2="196.67" stroke="#f6465d" stroke-width="1.4" /><rect x="874.06" y="135.06" width="6" height="44.23" rx="1.5" fill="#f6465d" /><line x1="887.80" y1="158.05" x2="887.80" y2="205.75" stroke="#f6465d" stroke-width="1.4" /><rect x="884.80" y="179.29" width="6" height="3.28" rx="1.5" fill="#f6465d" /><line x1="898.53" y1="174.08" x2="898.53" y2="208.26" stroke="#f6465d" stroke-width="1.4" /><rect x="895.53" y="179.68" width="6" height="19.31" rx="1.5" fill="#f6465d" /><line x1="909.27" y1="181.80" x2="909.27" y2="211.74" stroke="#0ecb81" stroke-width="1.4" /><rect x="906.27" y="181.80" width="6" height="17.77" rx="1.5" fill="#0ecb81" /><line x1="920.00" y1="143.17" x2="920.00" y2="190.30" stroke="#0ecb81" stroke-width="1.4" /><rect x="917.00" y="179.29" width="6" height="4.06" rx="1.5" fill="#0ecb81" />
  <polyline points="179.34,123.86 211.54,201.89 297.42,90.45 383.29,165.96 436.96,58.00" fill="none" stroke="#2fc273" stroke-width="4" stroke-linecap="round" stroke-linejoin="round" />
  <circle cx="179.34" cy="123.86" r="5.5" fill="#2fc273" fill-opacity="0.15" stroke="#2fc273" stroke-width="2" /><text x="179.34" y="111.86" fill="#f3f4f6" font-size="15" font-weight="700" text-anchor="middle">X</text><circle cx="211.54" cy="201.89" r="5.5" fill="#2fc273" fill-opacity="0.15" stroke="#2fc273" stroke-width="2" /><text x="211.54" y="189.89" fill="#f3f4f6" font-size="15" font-weight="700" text-anchor="middle">A</text><circle cx="297.42" cy="90.45" r="5.5" fill="#2fc273" fill-opacity="0.15" stroke="#2fc273" stroke-width="2" /><text x="297.42" y="78.45" fill="#f3f4f6" font-size="15" font-weight="700" text-anchor="middle">B</text><circle cx="383.29" cy="165.96" r="5.5" fill="#2fc273" fill-opacity="0.15" stroke="#2fc273" stroke-width="2" /><text x="383.29" y="153.96" fill="#f3f4f6" font-size="15" font-weight="700" text-anchor="middle">C</text><circle cx="436.96" cy="58.00" r="5.5" fill="#2fc273" fill-opacity="0.15" stroke="#2fc273" stroke-width="2" /><text x="436.96" y="46.00" fill="#f3f4f6" font-size="15" font-weight="700" text-anchor="middle">D</text>
  <text x="56" y="492" fill="#8ba0b5" font-size="18">일반 완성 · TP1 2.7767 · TP2 2.7636 · SL 2.8034</text>
</svg>
