<svg xmlns="http://www.w3.org/2000/svg" width="960" height="540" viewBox="0 0 960 540">
  <rect width="960" height="540" rx="24" fill="#0b1220" />
  <rect x="28" y="28" width="904" height="484" rx="22" fill="#111827" stroke="#1f2937" />
  <text x="56" y="74" fill="#f3f4f6" font-size="34" font-weight="700">NOMUSDT · AB=CD</text>
  <text x="904" y="74" fill="#8ba0b5" font-size="20" text-anchor="end">Bearish (매도) · Score 82.0</text>
  <line x1="72" y1="58" x2="920" y2="58" stroke="#223045" stroke-width="1" stroke-dasharray="4 8" /><line x1="72" y1="156" x2="920" y2="156" stroke="#223045" stroke-width="1" stroke-dasharray="4 8" /><line x1="72" y1="255" x2="920" y2="255" stroke="#223045" stroke-width="1" stroke-dasharray="4 8" /><line x1="72" y1="353" x2="920" y2="353" stroke="#223045" stroke-width="1" stroke-dasharray="4 8" /><line x1="72" y1="452" x2="920" y2="452" stroke="#223045" stroke-width="1" stroke-dasharray="4 8" />
  <rect x="183.54" y="9.73" width="84" height="34.02" fill="#fbbf24" fill-opacity="0.12" stroke="#fbbf24" stroke-width="1.5" stroke-dasharray="6 6" />
  <line x1="72.00" y1="66.28" x2="72.00" y2="95.70" stroke="#f6465d" stroke-width="1.4" /><rect x="69.00" y="75.01" width="6" height="14.25" rx="1.5" fill="#f6465d" /><line x1="82.73" y1="83.75" x2="82.73" y2="104.89" stroke="#f6465d" stroke-width="1.4" /><rect x="79.73" y="90.18" width="6" height="2.30" rx="1.5" fill="#f6465d" /><line x1="93.47" y1="81.91" x2="93.47" y2="94.32" stroke="#0ecb81" stroke-width="1.4" /><rect x="90.47" y="87.88" width="6" height="4.14" rx="1.5" fill="#0ecb81" /><line x1="104.20" y1="75.47" x2="104.20" y2="99.84" stroke="#f6465d" stroke-width="1.4" /><rect x="101.20" y="87.88" width="6" height="7.82" rx="1.5" fill="#f6465d" /><line x1="114.94" y1="89.72" x2="114.94" y2="115.47" stroke="#f6465d" stroke-width="1.4" /><rect x="111.94" y="95.70" width="6" height="14.71" rx="1.5" fill="#f6465d" /><line x1="125.67" y1="89.72" x2="125.67" y2="127.42" stroke="#0ecb81" stroke-width="1.4" /><rect x="122.67" y="100.76" width="6" height="9.65" rx="1.5" fill="#0ecb81" /><line x1="136.41" y1="85.12" x2="136.41" y2="103.97" stroke="#0ecb81" stroke-width="1.4" /><rect x="133.41" y="97.54" width="6" height="3.68" rx="1.5" fill="#0ecb81" /><line x1="147.14" y1="58.00" x2="147.14" y2="98.00" stroke="#0ecb81" stroke-width="1.4" /><rect x="144.14" y="62.14" width="6" height="35.86" rx="1.5" fill="#0ecb81" /><line x1="157.87" y1="61.68" x2="157.87" y2="89.72" stroke="#f6465d" stroke-width="1.4" /><rect x="154.87" y="62.60" width="6" height="20.23" rx="1.5" fill="#f6465d" /><line x1="168.61" y1="75.01" x2="168.61" y2="106.27" stroke="#0ecb81" stroke-width="1.4" /><rect x="165.61" y="78.69" width="6" height="4.14" rx="1.5" fill="#0ecb81" /><line x1="179.34" y1="77.77" x2="179.34" y2="102.14" stroke="#f6465d" stroke-width="1.4" /><rect x="176.34" y="79.15" width="6" height="14.25" rx="1.5" fill="#f6465d" /><line x1="190.08" y1="84.67" x2="190.08" y2="113.17" stroke="#f6465d" stroke-width="1.4" /><rect x="187.08" y="93.40" width="6" height="5.06" rx="1.5" fill="#f6465d" /><line x1="200.81" y1="81.91" x2="200.81" y2="105.35" stroke="#0ecb81" stroke-width="1.4" /><rect x="197.81" y="82.37" width="6" height="16.09" rx="1.5" fill="#0ecb81" /><line x1="211.54" y1="61.68" x2="211.54" y2="88.80" stroke="#0ecb81" stroke-width="1.4" /><rect x="208.54" y="82.37" width="6" height="2.00" rx="1.5" fill="#0ecb81" /><line x1="222.28" y1="74.55" x2="222.28" y2="103.97" stroke="#f6465d" stroke-width="1.4" /><rect x="219.28" y="82.37" width="6" height="9.65" rx="1.5" fill="#f6465d" /><line x1="233.01" y1="82.37" x2="233.01" y2="105.35" stroke="#0ecb81" stroke-width="1.4" /><rect x="230.01" y="83.29" width="6" height="8.74" rx="1.5" fill="#0ecb81" /><line x1="243.75" y1="74.09" x2="243.75" y2="102.14" stroke="#f6465d" stroke-width="1.4" /><rect x="240.75" y="83.75" width="6" height="5.52" rx="1.5" fill="#f6465d" /><line x1="254.48" y1="76.39" x2="254.48" y2="98.46" stroke="#f6465d" stroke-width="1.4" /><rect x="251.48" y="89.26" width="6" height="2.00" rx="1.5" fill="#f6465d" /><line x1="265.22" y1="86.96" x2="265.22" y2="97.08" stroke="#f6465d" stroke-width="1.4" /><rect x="262.22" y="89.72" width="6" height="2.76" rx="1.5" fill="#f6465d" /><line x1="275.95" y1="74.55" x2="275.95" y2="106.27" stroke="#f6465d" stroke-width="1.4" /><rect x="272.95" y="91.10" width="6" height="12.87" rx="1.5" fill="#f6465d" /><line x1="286.68" y1="99.84" x2="286.68" y2="116.39" stroke="#f6465d" stroke-width="1.4" /><rect x="283.68" y="103.97" width="6" height="8.74" rx="1.5" fill="#f6465d" /><line x1="297.42" y1="108.11" x2="297.42" y2="158.22" stroke="#f6465d" stroke-width="1.4" /><rect x="294.42" y="112.71" width="6" height="24.83" rx="1.5" fill="#f6465d" /><line x1="308.15" y1="124.66" x2="308.15" y2="147.19" stroke="#0ecb81" stroke-width="1.4" /><rect x="305.15" y="135.70" width="6" height="2.30" rx="1.5" fill="#0ecb81" /><line x1="318.89" y1="121.90" x2="318.89" y2="141.67" stroke="#0ecb81" stroke-width="1.4" /><rect x="315.89" y="128.80" width="6" height="7.36" rx="1.5" fill="#0ecb81" /><line x1="329.62" y1="125.58" x2="329.62" y2="157.76" stroke="#f6465d" stroke-width="1.4" /><rect x="326.62" y="128.80" width="6" height="22.07" rx="1.5" fill="#f6465d" /><line x1="340.35" y1="121.90" x2="340.35" y2="159.14" stroke="#0ecb81" stroke-width="1.4" /><rect x="337.35" y="134.32" width="6" height="16.09" rx="1.5" fill="#0ecb81" /><line x1="351.09" y1="124.20" x2="351.09" y2="144.89" stroke="#0ecb81" stroke-width="1.4" /><rect x="348.09" y="128.34" width="6" height="5.52" rx="1.5" fill="#0ecb81" /><line x1="361.82" y1="102.60" x2="361.82" y2="137.08" stroke="#0ecb81" stroke-width="1.4" /><rect x="358.82" y="113.17" width="6" height="15.17" rx="1.5" fill="#0ecb81" /><line x1="372.56" y1="112.71" x2="372.56" y2="125.58" stroke="#f6465d" stroke-width="1.4" /><rect x="369.56" y="113.17" width="6" height="7.36" rx="1.5" fill="#f6465d" /><line x1="383.29" y1="107.19" x2="383.29" y2="121.44" stroke="#0ecb81" stroke-width="1.4" /><rect x="380.29" y="110.41" width="6" height="10.11" rx="1.5" fill="#0ecb81" /><line x1="394.03" y1="98.00" x2="394.03" y2="123.28" stroke="#f6465d" stroke-width="1.4" /><rect x="391.03" y="110.41" width="6" height="5.06" rx="1.5" fill="#f6465d" /><line x1="404.76" y1="107.65" x2="404.76" y2="129.72" stroke="#0ecb81" stroke-width="1.4" /><rect x="401.76" y="108.11" width="6" height="6.90" rx="1.5" fill="#0ecb81" /><line x1="415.49" y1="104.89" x2="415.49" y2="118.23" stroke="#f6465d" stroke-width="1.4" /><rect x="412.49" y="108.11" width="6" height="5.52" rx="1.5" fill="#f6465d" /><line x1="426.23" y1="89.72" x2="426.23" y2="119.15" stroke="#0ecb81" stroke-width="1.4" /><rect x="423.23" y="98.00" width="6" height="15.63" rx="1.5" fill="#0ecb81" /><line x1="436.96" y1="80.07" x2="436.96" y2="99.38" stroke="#f6465d" stroke-width="1.4" /><rect x="433.96" y="98.00" width="6" height="2.00" rx="1.5" fill="#f6465d" /><line x1="447.70" y1="86.04" x2="447.70" y2="105.35" stroke="#f6465d" stroke-width="1.4" /><rect x="444.70" y="99.38" width="6" height="2.00" rx="1.5" fill="#f6465d" /><line x1="458.43" y1="97.54" x2="458.43" y2="129.72" stroke="#f6465d" stroke-width="1.4" /><rect x="455.43" y="100.76" width="6" height="26.21" rx="1.5" fill="#f6465d" /><line x1="469.16" y1="122.36" x2="469.16" y2="143.97" stroke="#f6465d" stroke-width="1.4" /><rect x="466.16" y="127.42" width="6" height="8.74" rx="1.5" fill="#f6465d" /><line x1="479.90" y1="131.56" x2="479.90" y2="148.57" stroke="#f6465d" stroke-width="1.4" /><rect x="476.90" y="136.16" width="6" height="7.82" rx="1.5" fill="#f6465d" /><line x1="490.63" y1="126.96" x2="490.63" y2="151.79" stroke="#0ecb81" stroke-width="1.4" /><rect x="487.63" y="127.88" width="6" height="16.09" rx="1.5" fill="#0ecb81" /><line x1="501.37" y1="121.90" x2="501.37" y2="138.00" stroke="#0ecb81" stroke-width="1.4" /><rect x="498.37" y="124.66" width="6" height="3.68" rx="1.5" fill="#0ecb81" /><line x1="512.10" y1="124.66" x2="512.10" y2="141.21" stroke="#f6465d" stroke-width="1.4" /><rect x="509.10" y="124.66" width="6" height="7.82" rx="1.5" fill="#f6465d" /><line x1="522.84" y1="121.90" x2="522.84" y2="139.37" stroke="#0ecb81" stroke-width="1.4" /><rect x="519.84" y="125.58" width="6" height="6.90" rx="1.5" fill="#0ecb81" /><line x1="533.57" y1="116.39" x2="533.57" y2="129.72" stroke="#f6465d" stroke-width="1.4" /><rect x="530.57" y="125.58" width="6" height="2.76" rx="1.5" fill="#f6465d" /><line x1="544.30" y1="127.88" x2="544.30" y2="194.54" stroke="#f6465d" stroke-width="1.4" /><rect x="541.30" y="128.34" width="6" height="31.26" rx="1.5" fill="#f6465d" /><line x1="555.04" y1="152.25" x2="555.04" y2="168.80" stroke="#0ecb81" stroke-width="1.4" /><rect x="552.04" y="154.09" width="6" height="5.98" rx="1.5" fill="#0ecb81" /><line x1="565.77" y1="143.05" x2="565.77" y2="163.28" stroke="#0ecb81" stroke-width="1.4" /><rect x="562.77" y="147.65" width="6" height="6.44" rx="1.5" fill="#0ecb81" /><line x1="576.51" y1="147.65" x2="576.51" y2="176.61" stroke="#f6465d" stroke-width="1.4" /><rect x="573.51" y="147.65" width="6" height="23.91" rx="1.5" fill="#f6465d" /><line x1="587.24" y1="164.66" x2="587.24" y2="183.05" stroke="#0ecb81" stroke-width="1.4" /><rect x="584.24" y="167.42" width="6" height="4.14" rx="1.5" fill="#0ecb81" /><line x1="597.97" y1="163.74" x2="597.97" y2="180.75" stroke="#f6465d" stroke-width="1.4" /><rect x="594.97" y="167.88" width="6" height="2.00" rx="1.5" fill="#f6465d" /><line x1="608.71" y1="160.52" x2="608.71" y2="172.48" stroke="#0ecb81" stroke-width="1.4" /><rect x="605.71" y="166.96" width="6" height="2.00" rx="1.5" fill="#0ecb81" /><line x1="619.44" y1="167.42" x2="619.44" y2="213.39" stroke="#f6465d" stroke-width="1.4" /><rect x="616.44" y="167.42" width="6" height="28.50" rx="1.5" fill="#f6465d" /><line x1="630.18" y1="179.83" x2="630.18" y2="206.04" stroke="#0ecb81" stroke-width="1.4" /><rect x="627.18" y="185.81" width="6" height="9.65" rx="1.5" fill="#0ecb81" /><line x1="640.91" y1="180.75" x2="640.91" y2="214.31" stroke="#f6465d" stroke-width="1.4" /><rect x="637.91" y="185.35" width="6" height="16.09" rx="1.5" fill="#f6465d" /><line x1="651.65" y1="196.84" x2="651.65" y2="249.71" stroke="#f6465d" stroke-width="1.4" /><rect x="648.65" y="201.90" width="6" height="30.80" rx="1.5" fill="#f6465d" /><line x1="662.38" y1="218.45" x2="662.38" y2="261.21" stroke="#f6465d" stroke-width="1.4" /><rect x="659.38" y="232.70" width="6" height="11.95" rx="1.5" fill="#f6465d" /><line x1="673.11" y1="233.16" x2="673.11" y2="252.01" stroke="#0ecb81" stroke-width="1.4" /><rect x="670.11" y="238.68" width="6" height="6.90" rx="1.5" fill="#0ecb81" /><line x1="683.85" y1="229.48" x2="683.85" y2="264.42" stroke="#f6465d" stroke-width="1.4" /><rect x="680.85" y="237.76" width="6" height="26.67" rx="1.5" fill="#f6465d" /><line x1="694.58" y1="235.00" x2="694.58" y2="272.70" stroke="#0ecb81" stroke-width="1.4" /><rect x="691.58" y="246.49" width="6" height="17.93" rx="1.5" fill="#0ecb81" /><line x1="705.32" y1="240.06" x2="705.32" y2="263.96" stroke="#f6465d" stroke-width="1.4" /><rect x="702.32" y="246.04" width="6" height="10.11" rx="1.5" fill="#f6465d" /><line x1="716.05" y1="254.77" x2="716.05" y2="281.89" stroke="#f6465d" stroke-width="1.4" /><rect x="713.05" y="255.69" width="6" height="19.77" rx="1.5" fill="#f6465d" /><line x1="726.78" y1="265.34" x2="726.78" y2="345.80" stroke="#f6465d" stroke-width="1.4" /><rect x="723.78" y="275.00" width="6" height="45.97" rx="1.5" fill="#f6465d" /><line x1="737.52" y1="316.84" x2="737.52" y2="381.66" stroke="#f6465d" stroke-width="1.4" /><rect x="734.52" y="320.97" width="6" height="52.87" rx="1.5" fill="#f6465d" /><line x1="748.25" y1="365.57" x2="748.25" y2="452.00" stroke="#f6465d" stroke-width="1.4" /><rect x="745.25" y="374.30" width="6" height="27.12" rx="1.5" fill="#f6465d" /><line x1="758.99" y1="344.42" x2="758.99" y2="411.08" stroke="#0ecb81" stroke-width="1.4" /><rect x="755.99" y="348.56" width="6" height="53.33" rx="1.5" fill="#0ecb81" /><line x1="769.72" y1="327.41" x2="769.72" y2="353.16" stroke="#0ecb81" stroke-width="1.4" /><rect x="766.72" y="337.52" width="6" height="9.65" rx="1.5" fill="#0ecb81" /><line x1="780.46" y1="328.79" x2="780.46" y2="360.51" stroke="#f6465d" stroke-width="1.4" /><rect x="777.46" y="337.06" width="6" height="23.45" rx="1.5" fill="#f6465d" /><line x1="791.19" y1="339.36" x2="791.19" y2="376.14" stroke="#0ecb81" stroke-width="1.4" /><rect x="788.19" y="349.02" width="6" height="11.49" rx="1.5" fill="#0ecb81" /><line x1="801.92" y1="323.27" x2="801.92" y2="354.07" stroke="#0ecb81" stroke-width="1.4" /><rect x="798.92" y="342.58" width="6" height="6.90" rx="1.5" fill="#0ecb81" /><line x1="812.66" y1="336.14" x2="812.66" y2="358.67" stroke="#f6465d" stroke-width="1.4" /><rect x="809.66" y="342.12" width="6" height="12.87" rx="1.5" fill="#f6465d" /><line x1="823.39" y1="337.06" x2="823.39" y2="356.83" stroke="#0ecb81" stroke-width="1.4" /><rect x="820.39" y="341.20" width="6" height="13.33" rx="1.5" fill="#0ecb81" /><line x1="834.13" y1="328.79" x2="834.13" y2="341.66" stroke="#0ecb81" stroke-width="1.4" /><rect x="831.13" y="337.98" width="6" height="3.68" rx="1.5" fill="#0ecb81" /><line x1="844.86" y1="318.21" x2="844.86" y2="342.12" stroke="#0ecb81" stroke-width="1.4" /><rect x="841.86" y="330.63" width="6" height="7.36" rx="1.5" fill="#0ecb81" /><line x1="855.59" y1="321.43" x2="855.59" y2="335.23" stroke="#0ecb81" stroke-width="1.4" /><rect x="852.59" y="327.41" width="6" height="2.76" rx="1.5" fill="#0ecb81" /><line x1="866.33" y1="322.35" x2="866.33" y2="342.12" stroke="#f6465d" stroke-width="1.4" /><rect x="863.33" y="326.95" width="6" height="13.33" rx="1.5" fill="#f6465d" /><line x1="877.06" y1="334.31" x2="877.06" y2="368.33" stroke="#f6465d" stroke-width="1.4" /><rect x="874.06" y="339.82" width="6" height="17.47" rx="1.5" fill="#f6465d" /><line x1="887.80" y1="347.64" x2="887.80" y2="366.49" stroke="#0ecb81" stroke-width="1.4" /><rect x="884.80" y="347.64" width="6" height="9.19" rx="1.5" fill="#0ecb81" /><line x1="898.53" y1="338.90" x2="898.53" y2="363.73" stroke="#f6465d" stroke-width="1.4" /><rect x="895.53" y="347.64" width="6" height="11.03" rx="1.5" fill="#f6465d" /><line x1="909.27" y1="351.78" x2="909.27" y2="418.44" stroke="#f6465d" stroke-width="1.4" /><rect x="906.27" y="357.75" width="6" height="46.89" rx="1.5" fill="#f6465d" /><line x1="920.00" y1="388.56" x2="920.00" y2="411.54" stroke="#0ecb81" stroke-width="1.4" /><rect x="917.00" y="397.29" width="6" height="7.82" rx="1.5" fill="#0ecb81" />
  <polyline points="72.00,-58.77 125.67,127.42 147.14,58.00 190.08,113.17 211.54,61.68" fill="none" stroke="#2fc273" stroke-width="4" stroke-linecap="round" stroke-linejoin="round" />
  <circle cx="72.00" cy="-58.77" r="5.5" fill="#2fc273" fill-opacity="0.15" stroke="#2fc273" stroke-width="2" /><text x="72.00" y="-70.77" fill="#f3f4f6" font-size="15" font-weight="700" text-anchor="middle">X</text><circle cx="125.67" cy="127.42" r="5.5" fill="#2fc273" fill-opacity="0.15" stroke="#2fc273" stroke-width="2" /><text x="125.67" y="115.42" fill="#f3f4f6" font-size="15" font-weight="700" text-anchor="middle">A</text><circle cx="147.14" cy="58.00" r="5.5" fill="#2fc273" fill-opacity="0.15" stroke="#2fc273" stroke-width="2" /><text x="147.14" y="46.00" fill="#f3f4f6" font-size="15" font-weight="700" text-anchor="middle">B</text><circle cx="190.08" cy="113.17" r="5.5" fill="#2fc273" fill-opacity="0.15" stroke="#2fc273" stroke-width="2" /><text x="190.08" y="101.17" fill="#f3f4f6" font-size="15" font-weight="700" text-anchor="middle">C</text><circle cx="211.54" cy="61.68" r="5.5" fill="#2fc273" fill-opacity="0.15" stroke="#2fc273" stroke-width="2" /><text x="211.54" y="49.68" fill="#f3f4f6" font-size="15" font-weight="700" text-anchor="middle">D</text>
  <text x="56" y="492" fill="#8ba0b5" font-size="18">일반 완성 · TP1 0.006207 · TP2 0.006181 · SL 0.006303</text>
</svg>
