<svg xmlns="http://www.w3.org/2000/svg" width="960" height="540" viewBox="0 0 960 540">
  <rect width="960" height="540" rx="24" fill="#0b1220" />
  <rect x="28" y="28" width="904" height="484" rx="22" fill="#111827" stroke="#1f2937" />
  <text x="56" y="74" fill="#f3f4f6" font-size="34" font-weight="700">ONUSDT · AB=CD</text>
  <text x="904" y="74" fill="#8ba0b5" font-size="20" text-anchor="end">Bearish (매도) · Score 85.5</text>
  <line x1="72" y1="58" x2="920" y2="58" stroke="#223045" stroke-width="1" stroke-dasharray="4 8" /><line x1="72" y1="156" x2="920" y2="156" stroke="#223045" stroke-width="1" stroke-dasharray="4 8" /><line x1="72" y1="255" x2="920" y2="255" stroke="#223045" stroke-width="1" stroke-dasharray="4 8" /><line x1="72" y1="353" x2="920" y2="353" stroke="#223045" stroke-width="1" stroke-dasharray="4 8" /><line x1="72" y1="452" x2="920" y2="452" stroke="#223045" stroke-width="1" stroke-dasharray="4 8" />
  <rect x="730.99" y="120.66" width="84" height="67.88" fill="#fbbf24" fill-opacity="0.12" stroke="#fbbf24" stroke-width="1.5" stroke-dasharray="6 6" />
  <line x1="72.00" y1="81.73" x2="72.00" y2="128.02" stroke="#f6465d" stroke-width="1.4" /><rect x="69.00" y="81.73" width="6" height="36.79" rx="1.5" fill="#f6465d" /><line x1="82.73" y1="91.23" x2="82.73" y2="130.39" stroke="#f6465d" stroke-width="1.4" /><rect x="79.73" y="118.52" width="6" height="3.56" rx="1.5" fill="#f6465d" /><line x1="93.47" y1="104.28" x2="93.47" y2="136.33" stroke="#f6465d" stroke-width="1.4" /><rect x="90.47" y="122.08" width="6" height="10.68" rx="1.5" fill="#f6465d" /><line x1="104.20" y1="132.77" x2="104.20" y2="186.17" stroke="#f6465d" stroke-width="1.4" /><rect x="101.20" y="133.95" width="6" height="35.60" rx="1.5" fill="#f6465d" /><line x1="114.94" y1="135.14" x2="114.94" y2="174.30" stroke="#0ecb81" stroke-width="1.4" /><rect x="111.94" y="163.62" width="6" height="8.31" rx="1.5" fill="#0ecb81" /><line x1="125.67" y1="158.87" x2="125.67" y2="182.61" stroke="#f6465d" stroke-width="1.4" /><rect x="122.67" y="165.99" width="6" height="10.68" rx="1.5" fill="#f6465d" /><line x1="136.41" y1="152.94" x2="136.41" y2="173.11" stroke="#0ecb81" stroke-width="1.4" /><rect x="133.41" y="163.62" width="6" height="9.49" rx="1.5" fill="#0ecb81" /><line x1="147.14" y1="150.57" x2="147.14" y2="171.93" stroke="#f6465d" stroke-width="1.4" /><rect x="144.14" y="160.06" width="6" height="10.68" rx="1.5" fill="#f6465d" /><line x1="157.87" y1="156.50" x2="157.87" y2="190.92" stroke="#0ecb81" stroke-width="1.4" /><rect x="154.87" y="167.18" width="6" height="2.00" rx="1.5" fill="#0ecb81" /><line x1="168.61" y1="123.27" x2="168.61" y2="167.18" stroke="#0ecb81" stroke-width="1.4" /><rect x="165.61" y="136.33" width="6" height="27.30" rx="1.5" fill="#0ecb81" /><line x1="179.34" y1="114.96" x2="179.34" y2="145.82" stroke="#f6465d" stroke-width="1.4" /><rect x="176.34" y="133.95" width="6" height="3.56" rx="1.5" fill="#f6465d" /><line x1="190.08" y1="129.20" x2="190.08" y2="189.73" stroke="#f6465d" stroke-width="1.4" /><rect x="187.08" y="139.89" width="6" height="39.16" rx="1.5" fill="#f6465d" /><line x1="200.81" y1="149.38" x2="200.81" y2="180.23" stroke="#0ecb81" stroke-width="1.4" /><rect x="197.81" y="164.81" width="6" height="11.87" rx="1.5" fill="#0ecb81" /><line x1="211.54" y1="149.38" x2="211.54" y2="200.41" stroke="#f6465d" stroke-width="1.4" /><rect x="208.54" y="168.37" width="6" height="27.30" rx="1.5" fill="#f6465d" /><line x1="222.28" y1="186.17" x2="222.28" y2="257.37" stroke="#f6465d" stroke-width="1.4" /><rect x="219.28" y="196.85" width="6" height="35.60" rx="1.5" fill="#f6465d" /><line x1="233.01" y1="220.58" x2="233.01" y2="255.00" stroke="#f6465d" stroke-width="1.4" /><rect x="230.01" y="231.27" width="6" height="17.80" rx="1.5" fill="#f6465d" /><line x1="243.75" y1="233.64" x2="243.75" y2="266.87" stroke="#f6465d" stroke-width="1.4" /><rect x="240.75" y="250.25" width="6" height="2.37" rx="1.5" fill="#f6465d" /><line x1="254.48" y1="209.90" x2="254.48" y2="252.63" stroke="#0ecb81" stroke-width="1.4" /><rect x="251.48" y="238.39" width="6" height="14.24" rx="1.5" fill="#0ecb81" /><line x1="265.22" y1="217.02" x2="265.22" y2="236.01" stroke="#0ecb81" stroke-width="1.4" /><rect x="262.22" y="228.89" width="6" height="7.12" rx="1.5" fill="#0ecb81" /><line x1="275.95" y1="221.77" x2="275.95" y2="263.31" stroke="#f6465d" stroke-width="1.4" /><rect x="272.95" y="227.70" width="6" height="26.11" rx="1.5" fill="#f6465d" /><line x1="286.68" y1="198.04" x2="286.68" y2="253.81" stroke="#0ecb81" stroke-width="1.4" /><rect x="283.68" y="202.78" width="6" height="51.03" rx="1.5" fill="#0ecb81" /><line x1="297.42" y1="195.66" x2="297.42" y2="237.20" stroke="#f6465d" stroke-width="1.4" /><rect x="294.42" y="202.78" width="6" height="21.36" rx="1.5" fill="#f6465d" /><line x1="308.15" y1="217.02" x2="308.15" y2="241.95" stroke="#0ecb81" stroke-width="1.4" /><rect x="305.15" y="224.14" width="6" height="2.00" rx="1.5" fill="#0ecb81" /><line x1="318.89" y1="212.28" x2="318.89" y2="233.64" stroke="#0ecb81" stroke-width="1.4" /><rect x="315.89" y="219.40" width="6" height="2.37" rx="1.5" fill="#0ecb81" /><line x1="329.62" y1="148.19" x2="329.62" y2="220.58" stroke="#0ecb81" stroke-width="1.4" /><rect x="326.62" y="158.87" width="6" height="61.71" rx="1.5" fill="#0ecb81" /><line x1="340.35" y1="112.59" x2="340.35" y2="162.43" stroke="#0ecb81" stroke-width="1.4" /><rect x="337.35" y="123.27" width="6" height="34.42" rx="1.5" fill="#0ecb81" /><line x1="351.09" y1="119.71" x2="351.09" y2="181.42" stroke="#f6465d" stroke-width="1.4" /><rect x="348.09" y="122.08" width="6" height="51.03" rx="1.5" fill="#f6465d" /><line x1="361.82" y1="150.57" x2="361.82" y2="184.98" stroke="#0ecb81" stroke-width="1.4" /><rect x="358.82" y="165.99" width="6" height="8.31" rx="1.5" fill="#0ecb81" /><line x1="372.56" y1="75.80" x2="372.56" y2="181.42" stroke="#0ecb81" stroke-width="1.4" /><rect x="369.56" y="90.04" width="6" height="78.33" rx="1.5" fill="#0ecb81" /><line x1="383.29" y1="81.73" x2="383.29" y2="126.83" stroke="#f6465d" stroke-width="1.4" /><rect x="380.29" y="91.23" width="6" height="20.17" rx="1.5" fill="#f6465d" /><line x1="394.03" y1="101.91" x2="394.03" y2="165.99" stroke="#f6465d" stroke-width="1.4" /><rect x="391.03" y="107.84" width="6" height="54.59" rx="1.5" fill="#f6465d" /><line x1="404.76" y1="154.13" x2="404.76" y2="199.22" stroke="#f6465d" stroke-width="1.4" /><rect x="401.76" y="163.62" width="6" height="24.92" rx="1.5" fill="#f6465d" /><line x1="415.49" y1="184.98" x2="415.49" y2="207.53" stroke="#f6465d" stroke-width="1.4" /><rect x="412.49" y="189.73" width="6" height="11.87" rx="1.5" fill="#f6465d" /><line x1="426.23" y1="147.01" x2="426.23" y2="202.78" stroke="#0ecb81" stroke-width="1.4" /><rect x="423.23" y="158.87" width="6" height="43.91" rx="1.5" fill="#0ecb81" /><line x1="436.96" y1="151.75" x2="436.96" y2="174.30" stroke="#f6465d" stroke-width="1.4" /><rect x="433.96" y="158.87" width="6" height="2.00" rx="1.5" fill="#f6465d" /><line x1="447.70" y1="133.95" x2="447.70" y2="162.43" stroke="#0ecb81" stroke-width="1.4" /><rect x="444.70" y="148.19" width="6" height="11.87" rx="1.5" fill="#0ecb81" /><line x1="458.43" y1="120.90" x2="458.43" y2="156.50" stroke="#0ecb81" stroke-width="1.4" /><rect x="455.43" y="135.14" width="6" height="14.24" rx="1.5" fill="#0ecb81" /><line x1="469.16" y1="116.15" x2="469.16" y2="151.75" stroke="#0ecb81" stroke-width="1.4" /><rect x="466.16" y="119.71" width="6" height="15.43" rx="1.5" fill="#0ecb81" /><line x1="479.90" y1="103.10" x2="479.90" y2="139.89" stroke="#f6465d" stroke-width="1.4" /><rect x="476.90" y="119.71" width="6" height="20.17" rx="1.5" fill="#f6465d" /><line x1="490.63" y1="85.30" x2="490.63" y2="135.14" stroke="#0ecb81" stroke-width="1.4" /><rect x="487.63" y="99.54" width="6" height="35.60" rx="1.5" fill="#0ecb81" /><line x1="501.37" y1="58.00" x2="501.37" y2="103.10" stroke="#0ecb81" stroke-width="1.4" /><rect x="498.37" y="78.17" width="6" height="21.36" rx="1.5" fill="#0ecb81" /><line x1="512.10" y1="75.80" x2="512.10" y2="109.03" stroke="#f6465d" stroke-width="1.4" /><rect x="509.10" y="76.99" width="6" height="15.43" rx="1.5" fill="#f6465d" /><line x1="522.84" y1="75.80" x2="522.84" y2="100.72" stroke="#0ecb81" stroke-width="1.4" /><rect x="519.84" y="91.23" width="6" height="2.00" rx="1.5" fill="#0ecb81" /><line x1="533.57" y1="81.73" x2="533.57" y2="98.35" stroke="#0ecb81" stroke-width="1.4" /><rect x="530.57" y="88.86" width="6" height="2.37" rx="1.5" fill="#0ecb81" /><line x1="544.30" y1="81.73" x2="544.30" y2="111.40" stroke="#f6465d" stroke-width="1.4" /><rect x="541.30" y="88.86" width="6" height="2.00" rx="1.5" fill="#f6465d" /><line x1="555.04" y1="84.11" x2="555.04" y2="107.84" stroke="#f6465d" stroke-width="1.4" /><rect x="552.04" y="87.67" width="6" height="11.87" rx="1.5" fill="#f6465d" /><line x1="565.77" y1="86.48" x2="565.77" y2="110.22" stroke="#0ecb81" stroke-width="1.4" /><rect x="562.77" y="93.60" width="6" height="8.31" rx="1.5" fill="#0ecb81" /><line x1="576.51" y1="66.31" x2="576.51" y2="101.91" stroke="#0ecb81" stroke-width="1.4" /><rect x="573.51" y="74.61" width="6" height="18.99" rx="1.5" fill="#0ecb81" /><line x1="587.24" y1="59.19" x2="587.24" y2="97.16" stroke="#f6465d" stroke-width="1.4" /><rect x="584.24" y="74.61" width="6" height="18.99" rx="1.5" fill="#f6465d" /><line x1="597.97" y1="59.19" x2="597.97" y2="101.91" stroke="#0ecb81" stroke-width="1.4" /><rect x="594.97" y="69.87" width="6" height="23.73" rx="1.5" fill="#0ecb81" /><line x1="608.71" y1="65.12" x2="608.71" y2="105.47" stroke="#f6465d" stroke-width="1.4" /><rect x="605.71" y="71.05" width="6" height="27.30" rx="1.5" fill="#f6465d" /><line x1="619.44" y1="91.23" x2="619.44" y2="168.37" stroke="#f6465d" stroke-width="1.4" /><rect x="616.44" y="97.16" width="6" height="46.28" rx="1.5" fill="#f6465d" /><line x1="630.18" y1="120.90" x2="630.18" y2="176.67" stroke="#f6465d" stroke-width="1.4" /><rect x="627.18" y="145.82" width="6" height="24.92" rx="1.5" fill="#f6465d" /><line x1="640.91" y1="161.25" x2="640.91" y2="219.40" stroke="#f6465d" stroke-width="1.4" /><rect x="637.91" y="170.74" width="6" height="37.98" rx="1.5" fill="#f6465d" /><line x1="651.65" y1="196.85" x2="651.65" y2="228.89" stroke="#f6465d" stroke-width="1.4" /><rect x="648.65" y="206.34" width="6" height="2.37" rx="1.5" fill="#f6465d" /><line x1="662.38" y1="187.36" x2="662.38" y2="220.58" stroke="#0ecb81" stroke-width="1.4" /><rect x="659.38" y="198.04" width="6" height="10.68" rx="1.5" fill="#0ecb81" /><line x1="673.11" y1="179.05" x2="673.11" y2="211.09" stroke="#f6465d" stroke-width="1.4" /><rect x="670.11" y="198.04" width="6" height="9.49" rx="1.5" fill="#f6465d" /><line x1="683.85" y1="176.67" x2="683.85" y2="224.14" stroke="#0ecb81" stroke-width="1.4" /><rect x="680.85" y="193.29" width="6" height="14.24" rx="1.5" fill="#0ecb81" /><line x1="694.58" y1="182.61" x2="694.58" y2="205.16" stroke="#f6465d" stroke-width="1.4" /><rect x="691.58" y="193.29" width="6" height="5.93" rx="1.5" fill="#f6465d" /><line x1="705.32" y1="189.73" x2="705.32" y2="227.70" stroke="#f6465d" stroke-width="1.4" /><rect x="702.32" y="202.78" width="6" height="16.61" rx="1.5" fill="#f6465d" /><line x1="716.05" y1="200.41" x2="716.05" y2="233.64" stroke="#f6465d" stroke-width="1.4" /><rect x="713.05" y="217.02" width="6" height="7.12" rx="1.5" fill="#f6465d" /><line x1="726.78" y1="208.72" x2="726.78" y2="240.76" stroke="#f6465d" stroke-width="1.4" /><rect x="723.78" y="222.96" width="6" height="9.49" rx="1.5" fill="#f6465d" /><line x1="737.52" y1="198.04" x2="737.52" y2="236.01" stroke="#0ecb81" stroke-width="1.4" /><rect x="734.52" y="200.41" width="6" height="32.04" rx="1.5" fill="#0ecb81" /><line x1="748.25" y1="194.48" x2="748.25" y2="227.70" stroke="#f6465d" stroke-width="1.4" /><rect x="745.25" y="201.60" width="6" height="2.00" rx="1.5" fill="#f6465d" /><line x1="758.99" y1="149.38" x2="758.99" y2="206.34" stroke="#0ecb81" stroke-width="1.4" /><rect x="755.99" y="177.86" width="6" height="24.92" rx="1.5" fill="#0ecb81" /><line x1="769.72" y1="171.93" x2="769.72" y2="207.53" stroke="#f6465d" stroke-width="1.4" /><rect x="766.72" y="177.86" width="6" height="14.24" rx="1.5" fill="#f6465d" /><line x1="780.46" y1="168.37" x2="780.46" y2="207.53" stroke="#f6465d" stroke-width="1.4" /><rect x="777.46" y="189.73" width="6" height="11.87" rx="1.5" fill="#f6465d" /><line x1="791.19" y1="183.80" x2="791.19" y2="208.72" stroke="#0ecb81" stroke-width="1.4" /><rect x="788.19" y="194.48" width="6" height="7.12" rx="1.5" fill="#0ecb81" /><line x1="801.92" y1="194.48" x2="801.92" y2="268.05" stroke="#f6465d" stroke-width="1.4" /><rect x="798.92" y="194.48" width="6" height="47.47" rx="1.5" fill="#f6465d" /><line x1="812.66" y1="234.83" x2="812.66" y2="291.79" stroke="#f6465d" stroke-width="1.4" /><rect x="809.66" y="241.95" width="6" height="26.11" rx="1.5" fill="#f6465d" /><line x1="823.39" y1="269.24" x2="823.39" y2="326.20" stroke="#f6465d" stroke-width="1.4" /><rect x="820.39" y="269.24" width="6" height="43.91" rx="1.5" fill="#f6465d" /><line x1="834.13" y1="301.28" x2="834.13" y2="372.49" stroke="#f6465d" stroke-width="1.4" /><rect x="831.13" y="314.34" width="6" height="43.91" rx="1.5" fill="#f6465d" /><line x1="844.86" y1="330.95" x2="844.86" y2="383.17" stroke="#0ecb81" stroke-width="1.4" /><rect x="841.86" y="345.19" width="6" height="13.05" rx="1.5" fill="#0ecb81" /><line x1="855.59" y1="300.10" x2="855.59" y2="368.93" stroke="#0ecb81" stroke-width="1.4" /><rect x="852.59" y="335.70" width="6" height="10.68" rx="1.5" fill="#0ecb81" /><line x1="866.33" y1="275.17" x2="866.33" y2="349.94" stroke="#0ecb81" stroke-width="1.4" /><rect x="863.33" y="306.03" width="6" height="29.67" rx="1.5" fill="#0ecb81" /><line x1="877.06" y1="300.10" x2="877.06" y2="335.70" stroke="#f6465d" stroke-width="1.4" /><rect x="874.06" y="306.03" width="6" height="11.87" rx="1.5" fill="#f6465d" /><line x1="887.80" y1="295.35" x2="887.80" y2="341.63" stroke="#f6465d" stroke-width="1.4" /><rect x="884.80" y="320.27" width="6" height="7.12" rx="1.5" fill="#f6465d" /><line x1="898.53" y1="319.08" x2="898.53" y2="378.42" stroke="#f6465d" stroke-width="1.4" /><rect x="895.53" y="327.39" width="6" height="24.92" rx="1.5" fill="#f6465d" /><line x1="909.27" y1="336.89" x2="909.27" y2="377.23" stroke="#f6465d" stroke-width="1.4" /><rect x="906.27" y="352.31" width="6" height="18.99" rx="1.5" fill="#f6465d" /><line x1="920.00" y1="358.25" x2="920.00" y2="452.00" stroke="#f6465d" stroke-width="1.4" /><rect x="917.00" y="372.49" width="6" height="74.77" rx="1.5" fill="#f6465d" />
  <polyline points="597.97,59.19 651.65,228.89 683.85,176.67 726.78,240.76 758.99,149.38" fill="none" stroke="#2fc273" stroke-width="4" stroke-linecap="round" stroke-linejoin="round" />
  <circle cx="597.97" cy="59.19" r="5.5" fill="#2fc273" fill-opacity="0.15" stroke="#2fc273" stroke-width="2" /><text x="597.97" y="47.19" fill="#f3f4f6" font-size="15" font-weight="700" text-anchor="middle">X</text><circle cx="651.65" cy="228.89" r="5.5" fill="#2fc273" fill-opacity="0.15" stroke="#2fc273" stroke-width="2" /><text x="651.65" y="216.89" fill="#f3f4f6" font-size="15" font-weight="700" text-anchor="middle">A</text><circle cx="683.85" cy="176.67" r="5.5" fill="#2fc273" fill-opacity="0.15" stroke="#2fc273" stroke-width="2" /><text x="683.85" y="164.67" fill="#f3f4f6" font-size="15" font-weight="700" text-anchor="middle">B</text><circle cx="726.78" cy="240.76" r="5.5" fill="#2fc273" fill-opacity="0.15" stroke="#2fc273" stroke-width="2" /><text x="726.78" y="228.76" fill="#f3f4f6" font-size="15" font-weight="700" text-anchor="middle">C</text><circle cx="758.99" cy="149.38" r="5.5" fill="#2fc273" fill-opacity="0.15" stroke="#2fc273" stroke-width="2" /><text x="758.99" y="137.38" fill="#f3f4f6" font-size="15" font-weight="700" text-anchor="middle">D</text>
  <text x="56" y="492" fill="#8ba0b5" font-size="18">Complete · TP1 0.27316 · TP2 0.27134 · SL 0.27796</text>
</svg>
