<svg xmlns="http://www.w3.org/2000/svg" width="960" height="540" viewBox="0 0 960 540">
  <rect width="960" height="540" rx="24" fill="#0b1220" />
  <rect x="28" y="28" width="904" height="484" rx="22" fill="#111827" stroke="#1f2937" />
  <text x="56" y="74" fill="#f3f4f6" font-size="34" font-weight="700">ONUSDT · AB=CD</text>
  <text x="904" y="74" fill="#8ba0b5" font-size="20" text-anchor="end">Bullish (매수) · Score 80.7</text>
  <line x1="72" y1="58" x2="920" y2="58" stroke="#223045" stroke-width="1" stroke-dasharray="4 8" /><line x1="72" y1="156" x2="920" y2="156" stroke="#223045" stroke-width="1" stroke-dasharray="4 8" /><line x1="72" y1="255" x2="920" y2="255" stroke="#223045" stroke-width="1" stroke-dasharray="4 8" /><line x1="72" y1="353" x2="920" y2="353" stroke="#223045" stroke-width="1" stroke-dasharray="4 8" /><line x1="72" y1="452" x2="920" y2="452" stroke="#223045" stroke-width="1" stroke-dasharray="4 8" />
  <rect x="806.13" y="331.50" width="84" height="12.86" fill="#fbbf24" fill-opacity="0.12" stroke="#fbbf24" stroke-width="1.5" stroke-dasharray="6 6" />
  <line x1="72.00" y1="228.79" x2="72.00" y2="250.31" stroke="#0ecb81" stroke-width="1.4" /><rect x="69.00" y="241.35" width="6" height="6.95" rx="1.5" fill="#0ecb81" /><line x1="82.73" y1="238.85" x2="82.73" y2="254.21" stroke="#f6465d" stroke-width="1.4" /><rect x="79.73" y="241.65" width="6" height="6.95" rx="1.5" fill="#f6465d" /><line x1="93.47" y1="243.97" x2="93.47" y2="257.86" stroke="#f6465d" stroke-width="1.4" /><rect x="90.47" y="248.23" width="6" height="2.56" rx="1.5" fill="#f6465d" /><line x1="104.20" y1="249.51" x2="104.20" y2="283.40" stroke="#f6465d" stroke-width="1.4" /><rect x="101.20" y="251.16" width="6" height="25.48" rx="1.5" fill="#f6465d" /><line x1="114.94" y1="259.69" x2="114.94" y2="288.16" stroke="#0ecb81" stroke-width="1.4" /><rect x="111.94" y="273.77" width="6" height="2.86" rx="1.5" fill="#0ecb81" /><line x1="125.67" y1="256.58" x2="125.67" y2="285.05" stroke="#0ecb81" stroke-width="1.4" /><rect x="122.67" y="259.08" width="6" height="14.08" rx="1.5" fill="#0ecb81" /><line x1="136.41" y1="252.74" x2="136.41" y2="269.32" stroke="#f6465d" stroke-width="1.4" /><rect x="133.41" y="258.35" width="6" height="2.00" rx="1.5" fill="#f6465d" /><line x1="147.14" y1="251.04" x2="147.14" y2="262.62" stroke="#0ecb81" stroke-width="1.4" /><rect x="144.14" y="254.88" width="6" height="3.78" rx="1.5" fill="#0ecb81" /><line x1="157.87" y1="239.64" x2="157.87" y2="259.14" stroke="#0ecb81" stroke-width="1.4" /><rect x="154.87" y="249.51" width="6" height="5.55" rx="1.5" fill="#0ecb81" /><line x1="168.61" y1="236.35" x2="168.61" y2="251.40" stroke="#0ecb81" stroke-width="1.4" /><rect x="165.61" y="239.76" width="6" height="9.14" rx="1.5" fill="#0ecb81" /><line x1="179.34" y1="227.94" x2="179.34" y2="242.26" stroke="#0ecb81" stroke-width="1.4" /><rect x="176.34" y="236.23" width="6" height="3.54" rx="1.5" fill="#0ecb81" /><line x1="190.08" y1="228.30" x2="190.08" y2="240.55" stroke="#0ecb81" stroke-width="1.4" /><rect x="187.08" y="232.63" width="6" height="3.54" rx="1.5" fill="#0ecb81" /><line x1="200.81" y1="218.73" x2="200.81" y2="234.46" stroke="#0ecb81" stroke-width="1.4" /><rect x="197.81" y="220.38" width="6" height="11.82" rx="1.5" fill="#0ecb81" /><line x1="211.54" y1="192.83" x2="211.54" y2="224.28" stroke="#0ecb81" stroke-width="1.4" /><rect x="208.54" y="199.53" width="6" height="20.85" rx="1.5" fill="#0ecb81" /><line x1="222.28" y1="190.76" x2="222.28" y2="207.40" stroke="#0ecb81" stroke-width="1.4" /><rect x="219.28" y="194.72" width="6" height="4.21" rx="1.5" fill="#0ecb81" /><line x1="233.01" y1="187.53" x2="233.01" y2="214.22" stroke="#f6465d" stroke-width="1.4" /><rect x="230.01" y="194.72" width="6" height="13.59" rx="1.5" fill="#f6465d" /><line x1="243.75" y1="200.75" x2="243.75" y2="222.09" stroke="#f6465d" stroke-width="1.4" /><rect x="240.75" y="208.31" width="6" height="4.51" rx="1.5" fill="#f6465d" /><line x1="254.48" y1="202.28" x2="254.48" y2="217.39" stroke="#f6465d" stroke-width="1.4" /><rect x="251.48" y="213.06" width="6" height="2.93" rx="1.5" fill="#f6465d" /><line x1="265.22" y1="211.24" x2="265.22" y2="228.61" stroke="#f6465d" stroke-width="1.4" /><rect x="262.22" y="216.05" width="6" height="3.17" rx="1.5" fill="#f6465d" /><line x1="275.95" y1="219.22" x2="275.95" y2="238.48" stroke="#f6465d" stroke-width="1.4" /><rect x="272.95" y="219.28" width="6" height="4.94" rx="1.5" fill="#f6465d" /><line x1="286.68" y1="210.26" x2="286.68" y2="227.08" stroke="#0ecb81" stroke-width="1.4" /><rect x="283.68" y="218.85" width="6" height="5.24" rx="1.5" fill="#0ecb81" /><line x1="297.42" y1="211.24" x2="297.42" y2="220.38" stroke="#0ecb81" stroke-width="1.4" /><rect x="294.42" y="217.70" width="6" height="2.00" rx="1.5" fill="#0ecb81" /><line x1="308.15" y1="208.98" x2="308.15" y2="221.54" stroke="#0ecb81" stroke-width="1.4" /><rect x="305.15" y="214.10" width="6" height="3.66" rx="1.5" fill="#0ecb81" /><line x1="318.89" y1="209.89" x2="318.89" y2="217.76" stroke="#f6465d" stroke-width="1.4" /><rect x="315.89" y="213.92" width="6" height="2.32" rx="1.5" fill="#f6465d" /><line x1="329.62" y1="208.37" x2="329.62" y2="221.35" stroke="#f6465d" stroke-width="1.4" /><rect x="326.62" y="216.23" width="6" height="4.33" rx="1.5" fill="#f6465d" /><line x1="340.35" y1="75.43" x2="340.35" y2="224.83" stroke="#0ecb81" stroke-width="1.4" /><rect x="337.35" y="109.26" width="6" height="111.42" rx="1.5" fill="#0ecb81" /><line x1="351.09" y1="58.00" x2="351.09" y2="115.48" stroke="#0ecb81" stroke-width="1.4" /><rect x="348.09" y="92.80" width="6" height="17.80" rx="1.5" fill="#0ecb81" /><line x1="361.82" y1="86.83" x2="361.82" y2="144.37" stroke="#f6465d" stroke-width="1.4" /><rect x="358.82" y="91.59" width="6" height="50.41" rx="1.5" fill="#f6465d" /><line x1="372.56" y1="124.56" x2="372.56" y2="162.66" stroke="#f6465d" stroke-width="1.4" /><rect x="369.56" y="142.05" width="6" height="14.45" rx="1.5" fill="#f6465d" /><line x1="383.29" y1="148.45" x2="383.29" y2="236.23" stroke="#f6465d" stroke-width="1.4" /><rect x="380.29" y="157.90" width="6" height="49.86" rx="1.5" fill="#f6465d" /><line x1="394.03" y1="198.56" x2="394.03" y2="220.50" stroke="#0ecb81" stroke-width="1.4" /><rect x="391.03" y="201.30" width="6" height="8.35" rx="1.5" fill="#0ecb81" /><line x1="404.76" y1="174.91" x2="404.76" y2="209.65" stroke="#0ecb81" stroke-width="1.4" /><rect x="401.76" y="183.69" width="6" height="17.98" rx="1.5" fill="#0ecb81" /><line x1="415.49" y1="178.81" x2="415.49" y2="207.82" stroke="#f6465d" stroke-width="1.4" /><rect x="412.49" y="183.99" width="6" height="9.63" rx="1.5" fill="#f6465d" /><line x1="426.23" y1="151.50" x2="426.23" y2="194.78" stroke="#0ecb81" stroke-width="1.4" /><rect x="423.23" y="162.90" width="6" height="30.96" rx="1.5" fill="#0ecb81" /><line x1="436.96" y1="151.50" x2="436.96" y2="167.47" stroke="#0ecb81" stroke-width="1.4" /><rect x="433.96" y="156.01" width="6" height="5.97" rx="1.5" fill="#0ecb81" /><line x1="447.70" y1="149.37" x2="447.70" y2="163.51" stroke="#f6465d" stroke-width="1.4" /><rect x="444.70" y="156.93" width="6" height="2.00" rx="1.5" fill="#f6465d" /><line x1="458.43" y1="118.59" x2="458.43" y2="160.28" stroke="#0ecb81" stroke-width="1.4" /><rect x="455.43" y="146.81" width="6" height="11.15" rx="1.5" fill="#0ecb81" /><line x1="469.16" y1="144.37" x2="469.16" y2="227.94" stroke="#f6465d" stroke-width="1.4" /><rect x="466.16" y="146.81" width="6" height="58.27" rx="1.5" fill="#f6465d" /><line x1="479.90" y1="173.26" x2="479.90" y2="205.14" stroke="#0ecb81" stroke-width="1.4" /><rect x="476.90" y="178.14" width="6" height="26.82" rx="1.5" fill="#0ecb81" /><line x1="490.63" y1="173.38" x2="490.63" y2="194.78" stroke="#f6465d" stroke-width="1.4" /><rect x="487.63" y="178.81" width="6" height="5.73" rx="1.5" fill="#f6465d" /><line x1="501.37" y1="179.11" x2="501.37" y2="193.86" stroke="#f6465d" stroke-width="1.4" /><rect x="498.37" y="184.84" width="6" height="3.47" rx="1.5" fill="#f6465d" /><line x1="512.10" y1="164.97" x2="512.10" y2="209.83" stroke="#0ecb81" stroke-width="1.4" /><rect x="509.10" y="180.27" width="6" height="8.05" rx="1.5" fill="#0ecb81" /><line x1="522.84" y1="179.84" x2="522.84" y2="207.09" stroke="#f6465d" stroke-width="1.4" /><rect x="519.84" y="180.27" width="6" height="18.77" rx="1.5" fill="#f6465d" /><line x1="533.57" y1="198.86" x2="533.57" y2="284.62" stroke="#f6465d" stroke-width="1.4" /><rect x="530.57" y="199.72" width="6" height="57.72" rx="1.5" fill="#f6465d" /><line x1="544.30" y1="251.34" x2="544.30" y2="300.65" stroke="#f6465d" stroke-width="1.4" /><rect x="541.30" y="258.60" width="6" height="23.65" rx="1.5" fill="#f6465d" /><line x1="555.04" y1="280.30" x2="555.04" y2="339.42" stroke="#f6465d" stroke-width="1.4" /><rect x="552.04" y="282.25" width="6" height="50.65" rx="1.5" fill="#f6465d" /><line x1="565.77" y1="297.06" x2="565.77" y2="334.67" stroke="#0ecb81" stroke-width="1.4" /><rect x="562.77" y="313.27" width="6" height="20.30" rx="1.5" fill="#0ecb81" /><line x1="576.51" y1="312.17" x2="576.51" y2="412.56" stroke="#f6465d" stroke-width="1.4" /><rect x="573.51" y="314.61" width="6" height="91.37" rx="1.5" fill="#f6465d" /><line x1="587.24" y1="399.46" x2="587.24" y2="452.00" stroke="#f6465d" stroke-width="1.4" /><rect x="584.24" y="406.35" width="6" height="3.05" rx="1.5" fill="#f6465d" /><line x1="597.97" y1="399.28" x2="597.97" y2="428.59" stroke="#0ecb81" stroke-width="1.4" /><rect x="594.97" y="406.59" width="6" height="2.74" rx="1.5" fill="#0ecb81" /><line x1="608.71" y1="382.57" x2="608.71" y2="427.80" stroke="#0ecb81" stroke-width="1.4" /><rect x="605.71" y="403.36" width="6" height="2.68" rx="1.5" fill="#0ecb81" /><line x1="619.44" y1="316.56" x2="619.44" y2="404.88" stroke="#0ecb81" stroke-width="1.4" /><rect x="616.44" y="338.38" width="6" height="66.26" rx="1.5" fill="#0ecb81" /><line x1="630.18" y1="300.04" x2="630.18" y2="342.28" stroke="#0ecb81" stroke-width="1.4" /><rect x="627.18" y="311.32" width="6" height="27.12" rx="1.5" fill="#0ecb81" /><line x1="640.91" y1="284.99" x2="640.91" y2="339.66" stroke="#f6465d" stroke-width="1.4" /><rect x="637.91" y="311.02" width="6" height="15.24" rx="1.5" fill="#f6465d" /><line x1="651.65" y1="306.69" x2="651.65" y2="347.89" stroke="#f6465d" stroke-width="1.4" /><rect x="648.65" y="326.25" width="6" height="8.84" rx="1.5" fill="#f6465d" /><line x1="662.38" y1="304.25" x2="662.38" y2="336.31" stroke="#0ecb81" stroke-width="1.4" /><rect x="659.38" y="329.79" width="6" height="4.14" rx="1.5" fill="#0ecb81" /><line x1="673.11" y1="312.05" x2="673.11" y2="343.20" stroke="#0ecb81" stroke-width="1.4" /><rect x="670.11" y="323.57" width="6" height="6.22" rx="1.5" fill="#0ecb81" /><line x1="683.85" y1="295.53" x2="683.85" y2="323.88" stroke="#0ecb81" stroke-width="1.4" /><rect x="680.85" y="299.56" width="6" height="24.02" rx="1.5" fill="#0ecb81" /><line x1="694.58" y1="294.38" x2="694.58" y2="313.51" stroke="#0ecb81" stroke-width="1.4" /><rect x="691.58" y="300.04" width="6" height="2.00" rx="1.5" fill="#0ecb81" /><line x1="705.32" y1="297.67" x2="705.32" y2="323.33" stroke="#f6465d" stroke-width="1.4" /><rect x="702.32" y="300.04" width="6" height="18.96" rx="1.5" fill="#f6465d" /><line x1="716.05" y1="306.57" x2="716.05" y2="328.20" stroke="#f6465d" stroke-width="1.4" /><rect x="713.05" y="318.94" width="6" height="7.62" rx="1.5" fill="#f6465d" /><line x1="726.78" y1="315.95" x2="726.78" y2="347.16" stroke="#0ecb81" stroke-width="1.4" /><rect x="723.78" y="320.40" width="6" height="6.77" rx="1.5" fill="#0ecb81" /><line x1="737.52" y1="293.77" x2="737.52" y2="336.37" stroke="#f6465d" stroke-width="1.4" /><rect x="734.52" y="319.91" width="6" height="13.96" rx="1.5" fill="#f6465d" /><line x1="748.25" y1="297.12" x2="748.25" y2="341.86" stroke="#0ecb81" stroke-width="1.4" /><rect x="745.25" y="305.16" width="6" height="29.07" rx="1.5" fill="#0ecb81" /><line x1="758.99" y1="298.09" x2="758.99" y2="318.94" stroke="#0ecb81" stroke-width="1.4" /><rect x="755.99" y="302.54" width="6" height="2.62" rx="1.5" fill="#0ecb81" /><line x1="769.72" y1="300.78" x2="769.72" y2="318.15" stroke="#f6465d" stroke-width="1.4" /><rect x="766.72" y="301.81" width="6" height="11.34" rx="1.5" fill="#f6465d" /><line x1="780.46" y1="305.53" x2="780.46" y2="324.12" stroke="#f6465d" stroke-width="1.4" /><rect x="777.46" y="313.21" width="6" height="6.46" rx="1.5" fill="#f6465d" /><line x1="791.19" y1="312.48" x2="791.19" y2="324.18" stroke="#0ecb81" stroke-width="1.4" /><rect x="788.19" y="317.23" width="6" height="2.00" rx="1.5" fill="#0ecb81" /><line x1="801.92" y1="307.72" x2="801.92" y2="321.87" stroke="#0ecb81" stroke-width="1.4" /><rect x="798.92" y="310.04" width="6" height="7.80" rx="1.5" fill="#0ecb81" /><line x1="812.66" y1="309.74" x2="812.66" y2="319.55" stroke="#0ecb81" stroke-width="1.4" /><rect x="809.66" y="309.92" width="6" height="2.00" rx="1.5" fill="#0ecb81" /><line x1="823.39" y1="301.08" x2="823.39" y2="320.10" stroke="#f6465d" stroke-width="1.4" /><rect x="820.39" y="309.92" width="6" height="5.24" rx="1.5" fill="#f6465d" /><line x1="834.13" y1="313.64" x2="834.13" y2="335.76" stroke="#f6465d" stroke-width="1.4" /><rect x="831.13" y="315.16" width="6" height="9.14" rx="1.5" fill="#f6465d" /><line x1="844.86" y1="308.21" x2="844.86" y2="325.89" stroke="#0ecb81" stroke-width="1.4" /><rect x="841.86" y="309.98" width="6" height="13.53" rx="1.5" fill="#0ecb81" /><line x1="855.59" y1="302.24" x2="855.59" y2="315.16" stroke="#0ecb81" stroke-width="1.4" /><rect x="852.59" y="310.04" width="6" height="2.00" rx="1.5" fill="#0ecb81" /><line x1="866.33" y1="309.92" x2="866.33" y2="330.83" stroke="#f6465d" stroke-width="1.4" /><rect x="863.33" y="310.59" width="6" height="9.81" rx="1.5" fill="#f6465d" /><line x1="877.06" y1="319.06" x2="877.06" y2="329.48" stroke="#f6465d" stroke-width="1.4" /><rect x="874.06" y="320.40" width="6" height="6.70" rx="1.5" fill="#f6465d" /><line x1="887.80" y1="318.94" x2="887.80" y2="333.69" stroke="#f6465d" stroke-width="1.4" /><rect x="884.80" y="327.59" width="6" height="2.00" rx="1.5" fill="#f6465d" /><line x1="898.53" y1="312.36" x2="898.53" y2="328.88" stroke="#0ecb81" stroke-width="1.4" /><rect x="895.53" y="316.32" width="6" height="12.25" rx="1.5" fill="#0ecb81" /><line x1="909.27" y1="308.88" x2="909.27" y2="322.11" stroke="#0ecb81" stroke-width="1.4" /><rect x="906.27" y="314.92" width="6" height="2.00" rx="1.5" fill="#0ecb81" /><line x1="920.00" y1="315.34" x2="920.00" y2="323.15" stroke="#f6465d" stroke-width="1.4" /><rect x="917.00" y="315.34" width="6" height="5.97" rx="1.5" fill="#f6465d" />
  <polyline points="726.78,347.16 737.52,293.77 791.19,324.18 823.39,301.08 834.13,335.76" fill="none" stroke="#2fc273" stroke-width="4" stroke-linecap="round" stroke-linejoin="round" />
  <circle cx="726.78" cy="347.16" r="5.5" fill="#2fc273" fill-opacity="0.15" stroke="#2fc273" stroke-width="2" /><text x="726.78" y="335.16" fill="#f3f4f6" font-size="15" font-weight="700" text-anchor="middle">X</text><circle cx="737.52" cy="293.77" r="5.5" fill="#2fc273" fill-opacity="0.15" stroke="#2fc273" stroke-width="2" /><text x="737.52" y="281.77" fill="#f3f4f6" font-size="15" font-weight="700" text-anchor="middle">A</text><circle cx="791.19" cy="324.18" r="5.5" fill="#2fc273" fill-opacity="0.15" stroke="#2fc273" stroke-width="2" /><text x="791.19" y="312.18" fill="#f3f4f6" font-size="15" font-weight="700" text-anchor="middle">B</text><circle cx="823.39" cy="301.08" r="5.5" fill="#2fc273" fill-opacity="0.15" stroke="#2fc273" stroke-width="2" /><text x="823.39" y="289.08" fill="#f3f4f6" font-size="15" font-weight="700" text-anchor="middle">C</text><circle cx="834.13" cy="335.76" r="5.5" fill="#2fc273" fill-opacity="0.15" stroke="#2fc273" stroke-width="2" /><text x="834.13" y="323.76" fill="#f3f4f6" font-size="15" font-weight="700" text-anchor="middle">D</text>
  <text x="56" y="492" fill="#8ba0b5" font-size="18">Complete · TP1 0.14127 · TP2 0.14262 · SL 0.13796</text>
</svg>
