<svg xmlns="http://www.w3.org/2000/svg" width="960" height="540" viewBox="0 0 960 540">
  <rect width="960" height="540" rx="24" fill="#0b1220" />
  <rect x="28" y="28" width="904" height="484" rx="22" fill="#111827" stroke="#1f2937" />
  <text x="56" y="74" fill="#f3f4f6" font-size="34" font-weight="700">PAXGUSDT · AB=CD</text>
  <text x="904" y="74" fill="#8ba0b5" font-size="20" text-anchor="end">Bearish (매도) · Score 89.5</text>
  <line x1="72" y1="58" x2="920" y2="58" stroke="#223045" stroke-width="1" stroke-dasharray="4 8" /><line x1="72" y1="156" x2="920" y2="156" stroke="#223045" stroke-width="1" stroke-dasharray="4 8" /><line x1="72" y1="255" x2="920" y2="255" stroke="#223045" stroke-width="1" stroke-dasharray="4 8" /><line x1="72" y1="353" x2="920" y2="353" stroke="#223045" stroke-width="1" stroke-dasharray="4 8" /><line x1="72" y1="452" x2="920" y2="452" stroke="#223045" stroke-width="1" stroke-dasharray="4 8" />
  <rect x="698.78" y="24.73" width="84" height="130.29" fill="#fbbf24" fill-opacity="0.12" stroke="#fbbf24" stroke-width="1.5" stroke-dasharray="6 6" />
  <line x1="72.00" y1="242.68" x2="72.00" y2="256.01" stroke="#0ecb81" stroke-width="1.4" /><rect x="69.00" y="249.96" width="6" height="2.00" rx="1.5" fill="#0ecb81" /><line x1="82.73" y1="249.96" x2="82.73" y2="254.33" stroke="#f6465d" stroke-width="1.4" /><rect x="79.73" y="249.96" width="6" height="4.15" rx="1.5" fill="#f6465d" /><line x1="93.47" y1="242.79" x2="93.47" y2="254.05" stroke="#0ecb81" stroke-width="1.4" /><rect x="90.47" y="243.46" width="6" height="10.59" rx="1.5" fill="#0ecb81" /><line x1="104.20" y1="243.41" x2="104.20" y2="246.82" stroke="#f6465d" stroke-width="1.4" /><rect x="101.20" y="243.46" width="6" height="2.00" rx="1.5" fill="#f6465d" /><line x1="114.94" y1="243.97" x2="114.94" y2="249.90" stroke="#f6465d" stroke-width="1.4" /><rect x="111.94" y="244.02" width="6" height="3.86" rx="1.5" fill="#f6465d" /><line x1="125.67" y1="237.58" x2="125.67" y2="265.59" stroke="#f6465d" stroke-width="1.4" /><rect x="122.67" y="247.89" width="6" height="6.44" rx="1.5" fill="#f6465d" /><line x1="136.41" y1="255.11" x2="136.41" y2="281.49" stroke="#f6465d" stroke-width="1.4" /><rect x="133.41" y="255.11" width="6" height="21.01" rx="1.5" fill="#f6465d" /><line x1="147.14" y1="237.02" x2="147.14" y2="278.53" stroke="#0ecb81" stroke-width="1.4" /><rect x="144.14" y="237.19" width="6" height="38.93" rx="1.5" fill="#0ecb81" /><line x1="157.87" y1="216.57" x2="157.87" y2="296.06" stroke="#0ecb81" stroke-width="1.4" /><rect x="154.87" y="226.32" width="6" height="10.81" rx="1.5" fill="#0ecb81" /><line x1="168.61" y1="106.73" x2="168.61" y2="282.45" stroke="#f6465d" stroke-width="1.4" /><rect x="165.61" y="226.26" width="6" height="24.42" rx="1.5" fill="#f6465d" /><line x1="179.34" y1="245.14" x2="179.34" y2="308.55" stroke="#f6465d" stroke-width="1.4" /><rect x="176.34" y="250.74" width="6" height="40.61" rx="1.5" fill="#f6465d" /><line x1="190.08" y1="277.57" x2="190.08" y2="370.39" stroke="#f6465d" stroke-width="1.4" /><rect x="187.08" y="291.35" width="6" height="2.91" rx="1.5" fill="#f6465d" /><line x1="200.81" y1="252.20" x2="200.81" y2="302.39" stroke="#0ecb81" stroke-width="1.4" /><rect x="197.81" y="273.04" width="6" height="21.57" rx="1.5" fill="#0ecb81" /><line x1="211.54" y1="240.66" x2="211.54" y2="285.08" stroke="#0ecb81" stroke-width="1.4" /><rect x="208.54" y="247.16" width="6" height="25.93" rx="1.5" fill="#0ecb81" /><line x1="222.28" y1="242.17" x2="222.28" y2="273.37" stroke="#f6465d" stroke-width="1.4" /><rect x="219.28" y="247.10" width="6" height="18.32" rx="1.5" fill="#f6465d" /><line x1="233.01" y1="243.97" x2="233.01" y2="285.25" stroke="#0ecb81" stroke-width="1.4" /><rect x="230.01" y="265.42" width="6" height="2.00" rx="1.5" fill="#0ecb81" /><line x1="243.75" y1="238.76" x2="243.75" y2="271.08" stroke="#0ecb81" stroke-width="1.4" /><rect x="240.75" y="238.76" width="6" height="26.55" rx="1.5" fill="#0ecb81" /><line x1="254.48" y1="208.28" x2="254.48" y2="244.13" stroke="#0ecb81" stroke-width="1.4" /><rect x="251.48" y="222.01" width="6" height="16.69" rx="1.5" fill="#0ecb81" /><line x1="265.22" y1="156.53" x2="265.22" y2="340.87" stroke="#f6465d" stroke-width="1.4" /><rect x="262.22" y="222.06" width="6" height="2.00" rx="1.5" fill="#f6465d" /><line x1="275.95" y1="199.94" x2="275.95" y2="346.86" stroke="#f6465d" stroke-width="1.4" /><rect x="272.95" y="225.76" width="6" height="74.83" rx="1.5" fill="#f6465d" /><line x1="286.68" y1="182.35" x2="286.68" y2="300.54" stroke="#0ecb81" stroke-width="1.4" /><rect x="283.68" y="212.82" width="6" height="87.72" rx="1.5" fill="#0ecb81" /><line x1="297.42" y1="185.71" x2="297.42" y2="264.97" stroke="#f6465d" stroke-width="1.4" /><rect x="294.42" y="212.82" width="6" height="38.43" rx="1.5" fill="#f6465d" /><line x1="308.15" y1="233.55" x2="308.15" y2="284.41" stroke="#f6465d" stroke-width="1.4" /><rect x="305.15" y="251.02" width="6" height="29.58" rx="1.5" fill="#f6465d" /><line x1="318.89" y1="257.52" x2="318.89" y2="297.74" stroke="#0ecb81" stroke-width="1.4" /><rect x="315.89" y="269.12" width="6" height="11.48" rx="1.5" fill="#0ecb81" /><line x1="329.62" y1="260.21" x2="329.62" y2="308.61" stroke="#f6465d" stroke-width="1.4" /><rect x="326.62" y="268.61" width="6" height="35.34" rx="1.5" fill="#f6465d" /><line x1="340.35" y1="302.89" x2="340.35" y2="340.87" stroke="#f6465d" stroke-width="1.4" /><rect x="337.35" y="305.08" width="6" height="34.73" rx="1.5" fill="#f6465d" /><line x1="351.09" y1="335.94" x2="351.09" y2="390.89" stroke="#f6465d" stroke-width="1.4" /><rect x="348.09" y="339.80" width="6" height="48.06" rx="1.5" fill="#f6465d" /><line x1="361.82" y1="355.88" x2="361.82" y2="405.84" stroke="#0ecb81" stroke-width="1.4" /><rect x="358.82" y="360.14" width="6" height="27.73" rx="1.5" fill="#0ecb81" /><line x1="372.56" y1="350.00" x2="372.56" y2="374.42" stroke="#f6465d" stroke-width="1.4" /><rect x="369.56" y="360.14" width="6" height="7.11" rx="1.5" fill="#f6465d" /><line x1="383.29" y1="365.79" x2="383.29" y2="418.39" stroke="#f6465d" stroke-width="1.4" /><rect x="380.29" y="366.08" width="6" height="39.55" rx="1.5" fill="#f6465d" /><line x1="394.03" y1="361.93" x2="394.03" y2="405.56" stroke="#0ecb81" stroke-width="1.4" /><rect x="391.03" y="373.86" width="6" height="31.70" rx="1.5" fill="#0ecb81" /><line x1="404.76" y1="340.76" x2="404.76" y2="383.50" stroke="#0ecb81" stroke-width="1.4" /><rect x="401.76" y="353.75" width="6" height="20.16" rx="1.5" fill="#0ecb81" /><line x1="415.49" y1="350.95" x2="415.49" y2="388.20" stroke="#f6465d" stroke-width="1.4" /><rect x="412.49" y="353.75" width="6" height="31.03" rx="1.5" fill="#f6465d" /><line x1="426.23" y1="329.16" x2="426.23" y2="403.38" stroke="#0ecb81" stroke-width="1.4" /><rect x="423.23" y="332.19" width="6" height="52.54" rx="1.5" fill="#0ecb81" /><line x1="436.96" y1="313.87" x2="436.96" y2="358.74" stroke="#f6465d" stroke-width="1.4" /><rect x="433.96" y="332.19" width="6" height="2.00" rx="1.5" fill="#f6465d" /><line x1="447.70" y1="312.36" x2="447.70" y2="344.23" stroke="#0ecb81" stroke-width="1.4" /><rect x="444.70" y="316.56" width="6" height="15.96" rx="1.5" fill="#0ecb81" /><line x1="458.43" y1="302.28" x2="458.43" y2="378.29" stroke="#f6465d" stroke-width="1.4" /><rect x="455.43" y="316.56" width="6" height="56.63" rx="1.5" fill="#f6465d" /><line x1="469.16" y1="338.91" x2="469.16" y2="383.38" stroke="#0ecb81" stroke-width="1.4" /><rect x="466.16" y="360.59" width="6" height="13.00" rx="1.5" fill="#0ecb81" /><line x1="479.90" y1="356.83" x2="479.90" y2="452.00" stroke="#f6465d" stroke-width="1.4" /><rect x="476.90" y="360.59" width="6" height="74.16" rx="1.5" fill="#f6465d" /><line x1="490.63" y1="392.68" x2="490.63" y2="437.49" stroke="#0ecb81" stroke-width="1.4" /><rect x="487.63" y="399.29" width="6" height="37.36" rx="1.5" fill="#0ecb81" /><line x1="501.37" y1="377.84" x2="501.37" y2="412.40" stroke="#0ecb81" stroke-width="1.4" /><rect x="498.37" y="389.54" width="6" height="9.07" rx="1.5" fill="#0ecb81" /><line x1="512.10" y1="335.27" x2="512.10" y2="389.60" stroke="#0ecb81" stroke-width="1.4" /><rect x="509.10" y="344.23" width="6" height="45.37" rx="1.5" fill="#0ecb81" /><line x1="522.84" y1="330.00" x2="522.84" y2="355.94" stroke="#f6465d" stroke-width="1.4" /><rect x="519.84" y="344.29" width="6" height="9.30" rx="1.5" fill="#f6465d" /><line x1="533.57" y1="337.28" x2="533.57" y2="361.82" stroke="#0ecb81" stroke-width="1.4" /><rect x="530.57" y="337.28" width="6" height="16.36" rx="1.5" fill="#0ecb81" /><line x1="544.30" y1="305.47" x2="544.30" y2="337.06" stroke="#0ecb81" stroke-width="1.4" /><rect x="541.30" y="323.50" width="6" height="13.56" rx="1.5" fill="#0ecb81" /><line x1="555.04" y1="273.99" x2="555.04" y2="323.22" stroke="#0ecb81" stroke-width="1.4" /><rect x="552.04" y="280.49" width="6" height="42.74" rx="1.5" fill="#0ecb81" /><line x1="565.77" y1="230.80" x2="565.77" y2="295.95" stroke="#0ecb81" stroke-width="1.4" /><rect x="562.77" y="244.25" width="6" height="36.24" rx="1.5" fill="#0ecb81" /><line x1="576.51" y1="209.91" x2="576.51" y2="244.25" stroke="#0ecb81" stroke-width="1.4" /><rect x="573.51" y="209.97" width="6" height="34.28" rx="1.5" fill="#0ecb81" /><line x1="587.24" y1="205.60" x2="587.24" y2="298.19" stroke="#f6465d" stroke-width="1.4" /><rect x="584.24" y="209.97" width="6" height="88.22" rx="1.5" fill="#f6465d" /><line x1="597.97" y1="249.17" x2="597.97" y2="322.27" stroke="#0ecb81" stroke-width="1.4" /><rect x="594.97" y="258.47" width="6" height="39.71" rx="1.5" fill="#0ecb81" /><line x1="608.71" y1="217.75" x2="608.71" y2="258.81" stroke="#0ecb81" stroke-width="1.4" /><rect x="605.71" y="218.03" width="6" height="40.44" rx="1.5" fill="#0ecb81" /><line x1="619.44" y1="216.24" x2="619.44" y2="287.77" stroke="#f6465d" stroke-width="1.4" /><rect x="616.44" y="217.69" width="6" height="67.16" rx="1.5" fill="#f6465d" /><line x1="630.18" y1="246.49" x2="630.18" y2="290.18" stroke="#0ecb81" stroke-width="1.4" /><rect x="627.18" y="248.56" width="6" height="36.02" rx="1.5" fill="#0ecb81" /><line x1="640.91" y1="248.61" x2="640.91" y2="314.71" stroke="#f6465d" stroke-width="1.4" /><rect x="637.91" y="248.61" width="6" height="41.90" rx="1.5" fill="#f6465d" /><line x1="651.65" y1="282.89" x2="651.65" y2="318.13" stroke="#f6465d" stroke-width="1.4" /><rect x="648.65" y="291.30" width="6" height="26.77" rx="1.5" fill="#f6465d" /><line x1="662.38" y1="300.93" x2="662.38" y2="324.34" stroke="#0ecb81" stroke-width="1.4" /><rect x="659.38" y="300.93" width="6" height="17.14" rx="1.5" fill="#0ecb81" /><line x1="673.11" y1="296.39" x2="673.11" y2="319.19" stroke="#f6465d" stroke-width="1.4" /><rect x="670.11" y="300.93" width="6" height="2.24" rx="1.5" fill="#f6465d" /><line x1="683.85" y1="273.09" x2="683.85" y2="312.25" stroke="#0ecb81" stroke-width="1.4" /><rect x="680.85" y="283.06" width="6" height="20.00" rx="1.5" fill="#0ecb81" /><line x1="694.58" y1="259.65" x2="694.58" y2="298.07" stroke="#0ecb81" stroke-width="1.4" /><rect x="691.58" y="264.19" width="6" height="18.82" rx="1.5" fill="#0ecb81" /><line x1="705.32" y1="225.14" x2="705.32" y2="272.59" stroke="#0ecb81" stroke-width="1.4" /><rect x="702.32" y="247.61" width="6" height="16.75" rx="1.5" fill="#0ecb81" /><line x1="716.05" y1="98.78" x2="716.05" y2="248.00" stroke="#0ecb81" stroke-width="1.4" /><rect x="713.05" y="107.29" width="6" height="140.71" rx="1.5" fill="#0ecb81" /><line x1="726.78" y1="58.00" x2="726.78" y2="107.96" stroke="#0ecb81" stroke-width="1.4" /><rect x="723.78" y="84.61" width="6" height="22.69" rx="1.5" fill="#0ecb81" /><line x1="737.52" y1="76.54" x2="737.52" y2="117.88" stroke="#f6465d" stroke-width="1.4" /><rect x="734.52" y="84.66" width="6" height="28.12" rx="1.5" fill="#f6465d" /><line x1="748.25" y1="83.49" x2="748.25" y2="146.33" stroke="#f6465d" stroke-width="1.4" /><rect x="745.25" y="112.78" width="6" height="33.55" rx="1.5" fill="#f6465d" /><line x1="758.99" y1="146.28" x2="758.99" y2="196.91" stroke="#f6465d" stroke-width="1.4" /><rect x="755.99" y="146.28" width="6" height="18.20" rx="1.5" fill="#f6465d" /><line x1="769.72" y1="150.42" x2="769.72" y2="176.97" stroke="#f6465d" stroke-width="1.4" /><rect x="766.72" y="164.99" width="6" height="2.00" rx="1.5" fill="#f6465d" /><line x1="780.46" y1="149.69" x2="780.46" y2="166.55" stroke="#0ecb81" stroke-width="1.4" /><rect x="777.46" y="160.84" width="6" height="5.71" rx="1.5" fill="#0ecb81" /><line x1="791.19" y1="140.90" x2="791.19" y2="180.61" stroke="#f6465d" stroke-width="1.4" /><rect x="788.19" y="160.50" width="6" height="10.03" rx="1.5" fill="#f6465d" /><line x1="801.92" y1="166.95" x2="801.92" y2="187.95" stroke="#f6465d" stroke-width="1.4" /><rect x="798.92" y="170.59" width="6" height="14.12" rx="1.5" fill="#f6465d" /><line x1="812.66" y1="185.04" x2="812.66" y2="267.77" stroke="#f6465d" stroke-width="1.4" /><rect x="809.66" y="185.04" width="6" height="68.95" rx="1.5" fill="#f6465d" /><line x1="823.39" y1="253.94" x2="823.39" y2="279.37" stroke="#f6465d" stroke-width="1.4" /><rect x="820.39" y="253.94" width="6" height="18.88" rx="1.5" fill="#f6465d" /><line x1="834.13" y1="229.12" x2="834.13" y2="285.36" stroke="#0ecb81" stroke-width="1.4" /><rect x="831.13" y="263.57" width="6" height="9.35" rx="1.5" fill="#0ecb81" /><line x1="844.86" y1="249.12" x2="844.86" y2="296.00" stroke="#f6465d" stroke-width="1.4" /><rect x="841.86" y="263.35" width="6" height="32.66" rx="1.5" fill="#f6465d" /><line x1="855.59" y1="275.89" x2="855.59" y2="303.34" stroke="#0ecb81" stroke-width="1.4" /><rect x="852.59" y="279.87" width="6" height="16.19" rx="1.5" fill="#0ecb81" /><line x1="866.33" y1="262.39" x2="866.33" y2="284.30" stroke="#0ecb81" stroke-width="1.4" /><rect x="863.33" y="279.53" width="6" height="2.00" rx="1.5" fill="#0ecb81" /><line x1="877.06" y1="270.12" x2="877.06" y2="301.77" stroke="#0ecb81" stroke-width="1.4" /><rect x="874.06" y="275.33" width="6" height="4.15" rx="1.5" fill="#0ecb81" /><line x1="887.80" y1="241.39" x2="887.80" y2="279.37" stroke="#f6465d" stroke-width="1.4" /><rect x="884.80" y="275.33" width="6" height="2.00" rx="1.5" fill="#f6465d" /><line x1="898.53" y1="264.75" x2="898.53" y2="297.12" stroke="#0ecb81" stroke-width="1.4" /><rect x="895.53" y="264.75" width="6" height="12.77" rx="1.5" fill="#0ecb81" /><line x1="909.27" y1="255.78" x2="909.27" y2="272.42" stroke="#0ecb81" stroke-width="1.4" /><rect x="906.27" y="256.29" width="6" height="8.51" rx="1.5" fill="#0ecb81" /><line x1="920.00" y1="238.36" x2="920.00" y2="256.68" stroke="#0ecb81" stroke-width="1.4" /><rect x="917.00" y="246.77" width="6" height="9.07" rx="1.5" fill="#0ecb81" />
  <polyline points="458.43,302.28 479.90,452.00 587.24,205.60 662.38,324.34 726.78,58.00" fill="none" stroke="#2fc273" stroke-width="4" stroke-linecap="round" stroke-linejoin="round" />
  <circle cx="458.43" cy="302.28" r="5.5" fill="#2fc273" fill-opacity="0.15" stroke="#2fc273" stroke-width="2" /><text x="458.43" y="290.28" fill="#f3f4f6" font-size="15" font-weight="700" text-anchor="middle">X</text><circle cx="479.90" cy="452.00" r="5.5" fill="#2fc273" fill-opacity="0.15" stroke="#2fc273" stroke-width="2" /><text x="479.90" y="440.00" fill="#f3f4f6" font-size="15" font-weight="700" text-anchor="middle">A</text><circle cx="587.24" cy="205.60" r="5.5" fill="#2fc273" fill-opacity="0.15" stroke="#2fc273" stroke-width="2" /><text x="587.24" y="193.60" fill="#f3f4f6" font-size="15" font-weight="700" text-anchor="middle">B</text><circle cx="662.38" cy="324.34" r="5.5" fill="#2fc273" fill-opacity="0.15" stroke="#2fc273" stroke-width="2" /><text x="662.38" y="312.34" fill="#f3f4f6" font-size="15" font-weight="700" text-anchor="middle">C</text><circle cx="726.78" cy="58.00" r="5.5" fill="#2fc273" fill-opacity="0.15" stroke="#2fc273" stroke-width="2" /><text x="726.78" y="46.00" fill="#f3f4f6" font-size="15" font-weight="700" text-anchor="middle">D</text>
  <text x="56" y="492" fill="#8ba0b5" font-size="18">일반 완성 · TP1 4638.54 · TP2 4627.31 · SL 4660.17</text>
</svg>
