<svg xmlns="http://www.w3.org/2000/svg" width="960" height="540" viewBox="0 0 960 540">
  <rect width="960" height="540" rx="24" fill="#0b1220" />
  <rect x="28" y="28" width="904" height="484" rx="22" fill="#111827" stroke="#1f2937" />
  <text x="56" y="74" fill="#f3f4f6" font-size="34" font-weight="700">PAXGUSDT · AB=CD</text>
  <text x="904" y="74" fill="#8ba0b5" font-size="20" text-anchor="end">Bearish (매도) · Score 83.2</text>
  <line x1="72" y1="58" x2="920" y2="58" stroke="#223045" stroke-width="1" stroke-dasharray="4 8" /><line x1="72" y1="156" x2="920" y2="156" stroke="#223045" stroke-width="1" stroke-dasharray="4 8" /><line x1="72" y1="255" x2="920" y2="255" stroke="#223045" stroke-width="1" stroke-dasharray="4 8" /><line x1="72" y1="353" x2="920" y2="353" stroke="#223045" stroke-width="1" stroke-dasharray="4 8" /><line x1="72" y1="452" x2="920" y2="452" stroke="#223045" stroke-width="1" stroke-dasharray="4 8" />
  <rect x="215.75" y="-66.06" width="84" height="280.19" fill="#fbbf24" fill-opacity="0.12" stroke="#fbbf24" stroke-width="1.5" stroke-dasharray="6 6" />
  <line x1="72.00" y1="75.24" x2="72.00" y2="75.36" stroke="#f6465d" stroke-width="1.4" /><rect x="69.00" y="75.24" width="6" height="2.00" rx="1.5" fill="#f6465d" /><line x1="82.73" y1="75.24" x2="82.73" y2="80.91" stroke="#f6465d" stroke-width="1.4" /><rect x="79.73" y="75.36" width="6" height="5.43" rx="1.5" fill="#f6465d" /><line x1="93.47" y1="80.79" x2="93.47" y2="83.68" stroke="#f6465d" stroke-width="1.4" /><rect x="90.47" y="80.79" width="6" height="2.89" rx="1.5" fill="#f6465d" /><line x1="104.20" y1="80.91" x2="104.20" y2="83.68" stroke="#0ecb81" stroke-width="1.4" /><rect x="101.20" y="80.91" width="6" height="2.65" rx="1.5" fill="#0ecb81" /><line x1="114.94" y1="72.95" x2="114.94" y2="81.03" stroke="#0ecb81" stroke-width="1.4" /><rect x="111.94" y="72.95" width="6" height="8.08" rx="1.5" fill="#0ecb81" /><line x1="125.67" y1="67.40" x2="125.67" y2="73.07" stroke="#0ecb81" stroke-width="1.4" /><rect x="122.67" y="67.40" width="6" height="5.55" rx="1.5" fill="#0ecb81" /><line x1="136.41" y1="63.18" x2="136.41" y2="67.52" stroke="#0ecb81" stroke-width="1.4" /><rect x="133.41" y="63.30" width="6" height="4.10" rx="1.5" fill="#0ecb81" /><line x1="147.14" y1="63.18" x2="147.14" y2="68.61" stroke="#f6465d" stroke-width="1.4" /><rect x="144.14" y="63.18" width="6" height="5.43" rx="1.5" fill="#f6465d" /><line x1="157.87" y1="68.25" x2="157.87" y2="68.61" stroke="#0ecb81" stroke-width="1.4" /><rect x="154.87" y="68.37" width="6" height="2.00" rx="1.5" fill="#0ecb81" /><line x1="168.61" y1="58.00" x2="168.61" y2="68.25" stroke="#0ecb81" stroke-width="1.4" /><rect x="165.61" y="66.80" width="6" height="2.00" rx="1.5" fill="#0ecb81" /><line x1="179.34" y1="66.92" x2="179.34" y2="81.15" stroke="#f6465d" stroke-width="1.4" /><rect x="176.34" y="67.04" width="6" height="14.11" rx="1.5" fill="#f6465d" /><line x1="190.08" y1="81.03" x2="190.08" y2="81.15" stroke="#0ecb81" stroke-width="1.4" /><rect x="187.08" y="81.03" width="6" height="2.00" rx="1.5" fill="#0ecb81" /><line x1="200.81" y1="81.03" x2="200.81" y2="81.15" stroke="#f6465d" stroke-width="1.4" /><rect x="197.81" y="81.03" width="6" height="2.00" rx="1.5" fill="#f6465d" /><line x1="211.54" y1="81.03" x2="211.54" y2="81.15" stroke="#0ecb81" stroke-width="1.4" /><rect x="208.54" y="81.03" width="6" height="2.00" rx="1.5" fill="#0ecb81" /><line x1="222.28" y1="76.21" x2="222.28" y2="81.15" stroke="#0ecb81" stroke-width="1.4" /><rect x="219.28" y="76.33" width="6" height="4.70" rx="1.5" fill="#0ecb81" /><line x1="233.01" y1="76.21" x2="233.01" y2="76.33" stroke="#0ecb81" stroke-width="1.4" /><rect x="230.01" y="76.21" width="6" height="2.00" rx="1.5" fill="#0ecb81" /><line x1="243.75" y1="76.21" x2="243.75" y2="76.33" stroke="#f6465d" stroke-width="1.4" /><rect x="240.75" y="76.21" width="6" height="2.00" rx="1.5" fill="#f6465d" /><line x1="254.48" y1="76.21" x2="254.48" y2="76.33" stroke="#f6465d" stroke-width="1.4" /><rect x="251.48" y="76.21" width="6" height="2.00" rx="1.5" fill="#f6465d" /><line x1="265.22" y1="76.21" x2="265.22" y2="76.33" stroke="#f6465d" stroke-width="1.4" /><rect x="262.22" y="76.21" width="6" height="2.00" rx="1.5" fill="#f6465d" /><line x1="275.95" y1="76.21" x2="275.95" y2="76.33" stroke="#0ecb81" stroke-width="1.4" /><rect x="272.95" y="76.21" width="6" height="2.00" rx="1.5" fill="#0ecb81" /><line x1="286.68" y1="65.23" x2="286.68" y2="76.21" stroke="#0ecb81" stroke-width="1.4" /><rect x="283.68" y="65.23" width="6" height="10.97" rx="1.5" fill="#0ecb81" /><line x1="297.42" y1="61.98" x2="297.42" y2="65.35" stroke="#0ecb81" stroke-width="1.4" /><rect x="294.42" y="62.22" width="6" height="3.01" rx="1.5" fill="#0ecb81" /><line x1="308.15" y1="62.22" x2="308.15" y2="70.66" stroke="#f6465d" stroke-width="1.4" /><rect x="305.15" y="62.22" width="6" height="8.44" rx="1.5" fill="#f6465d" /><line x1="318.89" y1="70.54" x2="318.89" y2="74.52" stroke="#f6465d" stroke-width="1.4" /><rect x="315.89" y="70.66" width="6" height="3.86" rx="1.5" fill="#f6465d" /><line x1="329.62" y1="74.40" x2="329.62" y2="83.08" stroke="#f6465d" stroke-width="1.4" /><rect x="326.62" y="74.52" width="6" height="6.75" rx="1.5" fill="#f6465d" /><line x1="340.35" y1="79.70" x2="340.35" y2="83.80" stroke="#f6465d" stroke-width="1.4" /><rect x="337.35" y="81.15" width="6" height="2.53" rx="1.5" fill="#f6465d" /><line x1="351.09" y1="83.68" x2="351.09" y2="83.80" stroke="#f6465d" stroke-width="1.4" /><rect x="348.09" y="83.68" width="6" height="2.00" rx="1.5" fill="#f6465d" /><line x1="361.82" y1="83.68" x2="361.82" y2="110.20" stroke="#f6465d" stroke-width="1.4" /><rect x="358.82" y="83.80" width="6" height="24.59" rx="1.5" fill="#f6465d" /><line x1="372.56" y1="108.27" x2="372.56" y2="108.88" stroke="#f6465d" stroke-width="1.4" /><rect x="369.56" y="108.40" width="6" height="2.00" rx="1.5" fill="#f6465d" /><line x1="383.29" y1="108.76" x2="383.29" y2="110.20" stroke="#f6465d" stroke-width="1.4" /><rect x="380.29" y="108.76" width="6" height="2.00" rx="1.5" fill="#f6465d" /><line x1="394.03" y1="110.08" x2="394.03" y2="112.25" stroke="#f6465d" stroke-width="1.4" /><rect x="391.03" y="110.20" width="6" height="2.00" rx="1.5" fill="#f6465d" /><line x1="404.76" y1="111.89" x2="404.76" y2="182.54" stroke="#f6465d" stroke-width="1.4" /><rect x="401.76" y="111.89" width="6" height="67.64" rx="1.5" fill="#f6465d" /><line x1="415.49" y1="153.00" x2="415.49" y2="179.53" stroke="#0ecb81" stroke-width="1.4" /><rect x="412.49" y="153.00" width="6" height="26.52" rx="1.5" fill="#0ecb81" /><line x1="426.23" y1="153.00" x2="426.23" y2="153.12" stroke="#0ecb81" stroke-width="1.4" /><rect x="423.23" y="153.00" width="6" height="2.00" rx="1.5" fill="#0ecb81" /><line x1="436.96" y1="142.27" x2="436.96" y2="153.12" stroke="#0ecb81" stroke-width="1.4" /><rect x="433.96" y="142.27" width="6" height="10.73" rx="1.5" fill="#0ecb81" /><line x1="447.70" y1="141.43" x2="447.70" y2="152.28" stroke="#f6465d" stroke-width="1.4" /><rect x="444.70" y="142.39" width="6" height="9.89" rx="1.5" fill="#f6465d" /><line x1="458.43" y1="152.16" x2="458.43" y2="152.40" stroke="#f6465d" stroke-width="1.4" /><rect x="455.43" y="152.16" width="6" height="2.00" rx="1.5" fill="#f6465d" /><line x1="469.16" y1="143.72" x2="469.16" y2="152.64" stroke="#f6465d" stroke-width="1.4" /><rect x="466.16" y="152.28" width="6" height="2.00" rx="1.5" fill="#f6465d" /><line x1="479.90" y1="152.52" x2="479.90" y2="157.46" stroke="#f6465d" stroke-width="1.4" /><rect x="476.90" y="152.52" width="6" height="4.82" rx="1.5" fill="#f6465d" /><line x1="490.63" y1="157.34" x2="490.63" y2="166.99" stroke="#f6465d" stroke-width="1.4" /><rect x="487.63" y="157.46" width="6" height="2.00" rx="1.5" fill="#f6465d" /><line x1="501.37" y1="159.03" x2="501.37" y2="161.68" stroke="#f6465d" stroke-width="1.4" /><rect x="498.37" y="159.15" width="6" height="2.53" rx="1.5" fill="#f6465d" /><line x1="512.10" y1="158.07" x2="512.10" y2="161.68" stroke="#0ecb81" stroke-width="1.4" /><rect x="509.10" y="161.44" width="6" height="2.00" rx="1.5" fill="#0ecb81" /><line x1="522.84" y1="161.44" x2="522.84" y2="167.95" stroke="#f6465d" stroke-width="1.4" /><rect x="519.84" y="161.56" width="6" height="6.27" rx="1.5" fill="#f6465d" /><line x1="533.57" y1="167.83" x2="533.57" y2="175.91" stroke="#f6465d" stroke-width="1.4" /><rect x="530.57" y="167.83" width="6" height="8.08" rx="1.5" fill="#f6465d" /><line x1="544.30" y1="175.79" x2="544.30" y2="200.99" stroke="#f6465d" stroke-width="1.4" /><rect x="541.30" y="175.79" width="6" height="25.08" rx="1.5" fill="#f6465d" /><line x1="555.04" y1="198.82" x2="555.04" y2="220.76" stroke="#f6465d" stroke-width="1.4" /><rect x="552.04" y="200.99" width="6" height="19.65" rx="1.5" fill="#f6465d" /><line x1="565.77" y1="214.49" x2="565.77" y2="220.76" stroke="#0ecb81" stroke-width="1.4" /><rect x="562.77" y="214.73" width="6" height="5.91" rx="1.5" fill="#0ecb81" /><line x1="576.51" y1="213.29" x2="576.51" y2="237.64" stroke="#f6465d" stroke-width="1.4" /><rect x="573.51" y="214.73" width="6" height="21.46" rx="1.5" fill="#f6465d" /><line x1="587.24" y1="234.38" x2="587.24" y2="253.19" stroke="#f6465d" stroke-width="1.4" /><rect x="584.24" y="236.31" width="6" height="12.06" rx="1.5" fill="#f6465d" /><line x1="597.97" y1="231.01" x2="597.97" y2="259.10" stroke="#0ecb81" stroke-width="1.4" /><rect x="594.97" y="233.18" width="6" height="15.19" rx="1.5" fill="#0ecb81" /><line x1="608.71" y1="213.77" x2="608.71" y2="233.30" stroke="#0ecb81" stroke-width="1.4" /><rect x="605.71" y="213.89" width="6" height="19.29" rx="1.5" fill="#0ecb81" /><line x1="619.44" y1="213.89" x2="619.44" y2="254.28" stroke="#f6465d" stroke-width="1.4" /><rect x="616.44" y="213.89" width="6" height="40.39" rx="1.5" fill="#f6465d" /><line x1="630.18" y1="252.59" x2="630.18" y2="293.46" stroke="#f6465d" stroke-width="1.4" /><rect x="627.18" y="254.16" width="6" height="30.26" rx="1.5" fill="#f6465d" /><line x1="640.91" y1="284.54" x2="640.91" y2="332.28" stroke="#f6465d" stroke-width="1.4" /><rect x="637.91" y="284.54" width="6" height="41.23" rx="1.5" fill="#f6465d" /><line x1="651.65" y1="325.89" x2="651.65" y2="423.31" stroke="#f6465d" stroke-width="1.4" /><rect x="648.65" y="325.89" width="6" height="85.84" rx="1.5" fill="#f6465d" /><line x1="662.38" y1="409.44" x2="662.38" y2="450.19" stroke="#f6465d" stroke-width="1.4" /><rect x="659.38" y="409.56" width="6" height="29.18" rx="1.5" fill="#f6465d" /><line x1="673.11" y1="422.58" x2="673.11" y2="452.00" stroke="#0ecb81" stroke-width="1.4" /><rect x="670.11" y="422.58" width="6" height="16.64" rx="1.5" fill="#0ecb81" /><line x1="683.85" y1="384.97" x2="683.85" y2="422.70" stroke="#0ecb81" stroke-width="1.4" /><rect x="680.85" y="392.08" width="6" height="30.62" rx="1.5" fill="#0ecb81" /><line x1="694.58" y1="368.21" x2="694.58" y2="393.53" stroke="#0ecb81" stroke-width="1.4" /><rect x="691.58" y="368.21" width="6" height="23.87" rx="1.5" fill="#0ecb81" /><line x1="705.32" y1="302.62" x2="705.32" y2="368.21" stroke="#0ecb81" stroke-width="1.4" /><rect x="702.32" y="302.98" width="6" height="65.22" rx="1.5" fill="#0ecb81" /><line x1="716.05" y1="302.14" x2="716.05" y2="356.76" stroke="#f6465d" stroke-width="1.4" /><rect x="713.05" y="303.10" width="6" height="53.53" rx="1.5" fill="#f6465d" /><line x1="726.78" y1="325.41" x2="726.78" y2="368.33" stroke="#0ecb81" stroke-width="1.4" /><rect x="723.78" y="325.41" width="6" height="31.35" rx="1.5" fill="#0ecb81" /><line x1="737.52" y1="324.56" x2="737.52" y2="329.03" stroke="#f6465d" stroke-width="1.4" /><rect x="734.52" y="325.41" width="6" height="3.50" rx="1.5" fill="#f6465d" /><line x1="748.25" y1="328.91" x2="748.25" y2="343.49" stroke="#f6465d" stroke-width="1.4" /><rect x="745.25" y="328.91" width="6" height="14.59" rx="1.5" fill="#f6465d" /><line x1="758.99" y1="330.23" x2="758.99" y2="344.22" stroke="#0ecb81" stroke-width="1.4" /><rect x="755.99" y="337.47" width="6" height="5.91" rx="1.5" fill="#0ecb81" /><line x1="769.72" y1="292.13" x2="769.72" y2="337.47" stroke="#0ecb81" stroke-width="1.4" /><rect x="766.72" y="292.13" width="6" height="45.21" rx="1.5" fill="#0ecb81" /><line x1="780.46" y1="235.59" x2="780.46" y2="292.62" stroke="#0ecb81" stroke-width="1.4" /><rect x="777.46" y="238.72" width="6" height="53.53" rx="1.5" fill="#0ecb81" /><line x1="791.19" y1="202.68" x2="791.19" y2="238.84" stroke="#0ecb81" stroke-width="1.4" /><rect x="788.19" y="206.17" width="6" height="32.55" rx="1.5" fill="#0ecb81" /><line x1="801.92" y1="206.05" x2="801.92" y2="243.91" stroke="#f6465d" stroke-width="1.4" /><rect x="798.92" y="206.05" width="6" height="28.33" rx="1.5" fill="#f6465d" /><line x1="812.66" y1="234.38" x2="812.66" y2="298.52" stroke="#f6465d" stroke-width="1.4" /><rect x="809.66" y="234.38" width="6" height="53.05" rx="1.5" fill="#f6465d" /><line x1="823.39" y1="278.03" x2="823.39" y2="304.07" stroke="#0ecb81" stroke-width="1.4" /><rect x="820.39" y="278.39" width="6" height="9.04" rx="1.5" fill="#0ecb81" /><line x1="834.13" y1="272.00" x2="834.13" y2="293.22" stroke="#f6465d" stroke-width="1.4" /><rect x="831.13" y="278.51" width="6" height="14.59" rx="1.5" fill="#f6465d" /><line x1="844.86" y1="277.06" x2="844.86" y2="301.78" stroke="#0ecb81" stroke-width="1.4" /><rect x="841.86" y="277.18" width="6" height="15.91" rx="1.5" fill="#0ecb81" /><line x1="855.59" y1="273.57" x2="855.59" y2="297.44" stroke="#f6465d" stroke-width="1.4" /><rect x="852.59" y="277.06" width="6" height="20.13" rx="1.5" fill="#f6465d" /><line x1="866.33" y1="297.08" x2="866.33" y2="330.23" stroke="#f6465d" stroke-width="1.4" /><rect x="863.33" y="297.08" width="6" height="4.70" rx="1.5" fill="#f6465d" /><line x1="877.06" y1="253.19" x2="877.06" y2="300.21" stroke="#0ecb81" stroke-width="1.4" /><rect x="874.06" y="253.31" width="6" height="46.78" rx="1.5" fill="#0ecb81" /><line x1="887.80" y1="253.19" x2="887.80" y2="265.97" stroke="#f6465d" stroke-width="1.4" /><rect x="884.80" y="253.19" width="6" height="6.87" rx="1.5" fill="#f6465d" /><line x1="898.53" y1="229.56" x2="898.53" y2="260.06" stroke="#0ecb81" stroke-width="1.4" /><rect x="895.53" y="240.05" width="6" height="19.89" rx="1.5" fill="#0ecb81" /><line x1="909.27" y1="239.93" x2="909.27" y2="265.25" stroke="#f6465d" stroke-width="1.4" /><rect x="906.27" y="239.93" width="6" height="25.08" rx="1.5" fill="#f6465d" /><line x1="920.00" y1="264.89" x2="920.00" y2="265.01" stroke="#0ecb81" stroke-width="1.4" /><rect x="917.00" y="264.89" width="6" height="2.00" rx="1.5" fill="#0ecb81" />
  <polyline points="168.61,58.00 211.54,81.15 222.28,76.21 222.28,81.15 243.75,76.21" fill="none" stroke="#2fc273" stroke-width="4" stroke-linecap="round" stroke-linejoin="round" />
  <circle cx="168.61" cy="58.00" r="5.5" fill="#2fc273" fill-opacity="0.15" stroke="#2fc273" stroke-width="2" /><text x="168.61" y="46.00" fill="#f3f4f6" font-size="15" font-weight="700" text-anchor="middle">X</text><circle cx="211.54" cy="81.15" r="5.5" fill="#2fc273" fill-opacity="0.15" stroke="#2fc273" stroke-width="2" /><text x="211.54" y="69.15" fill="#f3f4f6" font-size="15" font-weight="700" text-anchor="middle">A</text><circle cx="222.28" cy="76.21" r="5.5" fill="#2fc273" fill-opacity="0.15" stroke="#2fc273" stroke-width="2" /><text x="222.28" y="64.21" fill="#f3f4f6" font-size="15" font-weight="700" text-anchor="middle">B</text><circle cx="222.28" cy="81.15" r="5.5" fill="#2fc273" fill-opacity="0.15" stroke="#2fc273" stroke-width="2" /><text x="222.28" y="69.15" fill="#f3f4f6" font-size="15" font-weight="700" text-anchor="middle">C</text><circle cx="243.75" cy="76.21" r="5.5" fill="#2fc273" fill-opacity="0.15" stroke="#2fc273" stroke-width="2" /><text x="243.75" y="64.21" fill="#f3f4f6" font-size="15" font-weight="700" text-anchor="middle">D</text>
  <text x="56" y="492" fill="#8ba0b5" font-size="18">일반 완성 · TP1 4647.11 · TP2 4647.02 · SL 4647.52</text>
</svg>
