<svg xmlns="http://www.w3.org/2000/svg" width="960" height="540" viewBox="0 0 960 540">
  <rect width="960" height="540" rx="24" fill="#0b1220" />
  <rect x="28" y="28" width="904" height="484" rx="22" fill="#111827" stroke="#1f2937" />
  <text x="56" y="74" fill="#f3f4f6" font-size="34" font-weight="700">PIPPINUSDT · AB=CD</text>
  <text x="904" y="74" fill="#8ba0b5" font-size="20" text-anchor="end">Bearish (매도) · Score 74.1</text>
  <line x1="72" y1="58" x2="920" y2="58" stroke="#223045" stroke-width="1" stroke-dasharray="4 8" /><line x1="72" y1="156" x2="920" y2="156" stroke="#223045" stroke-width="1" stroke-dasharray="4 8" /><line x1="72" y1="255" x2="920" y2="255" stroke="#223045" stroke-width="1" stroke-dasharray="4 8" /><line x1="72" y1="353" x2="920" y2="353" stroke="#223045" stroke-width="1" stroke-dasharray="4 8" /><line x1="72" y1="452" x2="920" y2="452" stroke="#223045" stroke-width="1" stroke-dasharray="4 8" />
  <rect x="655.85" y="250.87" width="84" height="173.87" fill="#fbbf24" fill-opacity="0.12" stroke="#fbbf24" stroke-width="1.5" stroke-dasharray="6 6" />
  <line x1="72.00" y1="58.00" x2="72.00" y2="78.45" stroke="#0ecb81" stroke-width="1.4" /><rect x="69.00" y="64.39" width="6" height="2.00" rx="1.5" fill="#0ecb81" /><line x1="82.73" y1="64.39" x2="82.73" y2="81.85" stroke="#f6465d" stroke-width="1.4" /><rect x="79.73" y="64.82" width="6" height="8.94" rx="1.5" fill="#f6465d" /><line x1="93.47" y1="66.09" x2="93.47" y2="83.13" stroke="#0ecb81" stroke-width="1.4" /><rect x="90.47" y="71.63" width="6" height="2.56" rx="1.5" fill="#0ecb81" /><line x1="104.20" y1="71.63" x2="104.20" y2="100.59" stroke="#f6465d" stroke-width="1.4" /><rect x="101.20" y="71.63" width="6" height="19.59" rx="1.5" fill="#f6465d" /><line x1="114.94" y1="82.70" x2="114.94" y2="98.89" stroke="#0ecb81" stroke-width="1.4" /><rect x="111.94" y="86.96" width="6" height="4.26" rx="1.5" fill="#0ecb81" /><line x1="125.67" y1="78.02" x2="125.67" y2="88.67" stroke="#0ecb81" stroke-width="1.4" /><rect x="122.67" y="84.83" width="6" height="2.13" rx="1.5" fill="#0ecb81" /><line x1="136.41" y1="75.89" x2="136.41" y2="91.22" stroke="#f6465d" stroke-width="1.4" /><rect x="133.41" y="85.69" width="6" height="2.13" rx="1.5" fill="#f6465d" /><line x1="147.14" y1="78.02" x2="147.14" y2="88.67" stroke="#0ecb81" stroke-width="1.4" /><rect x="144.14" y="78.02" width="6" height="9.37" rx="1.5" fill="#0ecb81" /><line x1="157.87" y1="75.04" x2="157.87" y2="360.00" stroke="#f6465d" stroke-width="1.4" /><rect x="154.87" y="78.02" width="6" height="175.92" rx="1.5" fill="#f6465d" /><line x1="168.61" y1="252.66" x2="168.61" y2="331.46" stroke="#f6465d" stroke-width="1.4" /><rect x="165.61" y="254.36" width="6" height="40.04" rx="1.5" fill="#f6465d" /><line x1="179.34" y1="287.58" x2="179.34" y2="352.33" stroke="#f6465d" stroke-width="1.4" /><rect x="176.34" y="296.10" width="6" height="33.22" rx="1.5" fill="#f6465d" /><line x1="190.08" y1="285.88" x2="190.08" y2="332.74" stroke="#0ecb81" stroke-width="1.4" /><rect x="187.08" y="294.40" width="6" height="34.93" rx="1.5" fill="#0ecb81" /><line x1="200.81" y1="255.64" x2="200.81" y2="302.49" stroke="#0ecb81" stroke-width="1.4" /><rect x="197.81" y="262.88" width="6" height="32.37" rx="1.5" fill="#0ecb81" /><line x1="211.54" y1="263.31" x2="211.54" y2="294.40" stroke="#f6465d" stroke-width="1.4" /><rect x="208.54" y="263.31" width="6" height="28.96" rx="1.5" fill="#f6465d" /><line x1="222.28" y1="275.66" x2="222.28" y2="295.68" stroke="#0ecb81" stroke-width="1.4" /><rect x="219.28" y="287.16" width="6" height="5.54" rx="1.5" fill="#0ecb81" /><line x1="233.01" y1="287.58" x2="233.01" y2="328.05" stroke="#f6465d" stroke-width="1.4" /><rect x="230.01" y="287.58" width="6" height="38.34" rx="1.5" fill="#f6465d" /><line x1="243.75" y1="309.73" x2="243.75" y2="328.05" stroke="#0ecb81" stroke-width="1.4" /><rect x="240.75" y="313.99" width="6" height="11.93" rx="1.5" fill="#0ecb81" /><line x1="254.48" y1="298.66" x2="254.48" y2="319.10" stroke="#0ecb81" stroke-width="1.4" /><rect x="251.48" y="311.44" width="6" height="3.83" rx="1.5" fill="#0ecb81" /><line x1="265.22" y1="301.22" x2="265.22" y2="322.09" stroke="#0ecb81" stroke-width="1.4" /><rect x="262.22" y="306.75" width="6" height="4.69" rx="1.5" fill="#0ecb81" /><line x1="275.95" y1="286.31" x2="275.95" y2="309.31" stroke="#0ecb81" stroke-width="1.4" /><rect x="272.95" y="297.81" width="6" height="8.52" rx="1.5" fill="#0ecb81" /><line x1="286.68" y1="290.99" x2="286.68" y2="309.31" stroke="#f6465d" stroke-width="1.4" /><rect x="283.68" y="297.38" width="6" height="4.69" rx="1.5" fill="#f6465d" /><line x1="297.42" y1="292.70" x2="297.42" y2="312.72" stroke="#0ecb81" stroke-width="1.4" /><rect x="294.42" y="293.12" width="6" height="8.52" rx="1.5" fill="#0ecb81" /><line x1="308.15" y1="290.14" x2="308.15" y2="306.75" stroke="#f6465d" stroke-width="1.4" /><rect x="305.15" y="292.70" width="6" height="11.93" rx="1.5" fill="#f6465d" /><line x1="318.89" y1="287.58" x2="318.89" y2="319.53" stroke="#0ecb81" stroke-width="1.4" /><rect x="315.89" y="288.44" width="6" height="16.19" rx="1.5" fill="#0ecb81" /><line x1="329.62" y1="279.92" x2="329.62" y2="299.51" stroke="#f6465d" stroke-width="1.4" /><rect x="326.62" y="288.44" width="6" height="2.00" rx="1.5" fill="#f6465d" /><line x1="340.35" y1="285.46" x2="340.35" y2="306.75" stroke="#f6465d" stroke-width="1.4" /><rect x="337.35" y="288.86" width="6" height="12.78" rx="1.5" fill="#f6465d" /><line x1="351.09" y1="291.42" x2="351.09" y2="313.14" stroke="#f6465d" stroke-width="1.4" /><rect x="348.09" y="301.64" width="6" height="3.83" rx="1.5" fill="#f6465d" /><line x1="361.82" y1="305.47" x2="361.82" y2="336.99" stroke="#f6465d" stroke-width="1.4" /><rect x="358.82" y="305.47" width="6" height="3.41" rx="1.5" fill="#f6465d" /><line x1="372.56" y1="302.92" x2="372.56" y2="394.50" stroke="#f6465d" stroke-width="1.4" /><rect x="369.56" y="308.46" width="6" height="57.08" rx="1.5" fill="#f6465d" /><line x1="383.29" y1="343.81" x2="383.29" y2="370.22" stroke="#0ecb81" stroke-width="1.4" /><rect x="380.29" y="354.03" width="6" height="10.65" rx="1.5" fill="#0ecb81" /><line x1="394.03" y1="335.29" x2="394.03" y2="358.29" stroke="#0ecb81" stroke-width="1.4" /><rect x="391.03" y="341.25" width="6" height="13.20" rx="1.5" fill="#0ecb81" /><line x1="404.76" y1="338.70" x2="404.76" y2="357.44" stroke="#f6465d" stroke-width="1.4" /><rect x="401.76" y="341.25" width="6" height="11.07" rx="1.5" fill="#f6465d" /><line x1="415.49" y1="351.05" x2="415.49" y2="365.11" stroke="#f6465d" stroke-width="1.4" /><rect x="412.49" y="352.75" width="6" height="5.54" rx="1.5" fill="#f6465d" /><line x1="426.23" y1="353.18" x2="426.23" y2="374.48" stroke="#0ecb81" stroke-width="1.4" /><rect x="423.23" y="357.44" width="6" height="2.00" rx="1.5" fill="#0ecb81" /><line x1="436.96" y1="354.46" x2="436.96" y2="367.66" stroke="#f6465d" stroke-width="1.4" /><rect x="433.96" y="357.44" width="6" height="2.56" rx="1.5" fill="#f6465d" /><line x1="447.70" y1="334.44" x2="447.70" y2="368.09" stroke="#0ecb81" stroke-width="1.4" /><rect x="444.70" y="342.53" width="6" height="17.46" rx="1.5" fill="#0ecb81" /><line x1="458.43" y1="336.57" x2="458.43" y2="349.35" stroke="#0ecb81" stroke-width="1.4" /><rect x="455.43" y="341.25" width="6" height="2.00" rx="1.5" fill="#0ecb81" /><line x1="469.16" y1="326.35" x2="469.16" y2="348.50" stroke="#0ecb81" stroke-width="1.4" /><rect x="466.16" y="331.46" width="6" height="9.37" rx="1.5" fill="#0ecb81" /><line x1="479.90" y1="323.36" x2="479.90" y2="334.01" stroke="#0ecb81" stroke-width="1.4" /><rect x="476.90" y="325.92" width="6" height="5.54" rx="1.5" fill="#0ecb81" /><line x1="490.63" y1="325.07" x2="490.63" y2="364.26" stroke="#f6465d" stroke-width="1.4" /><rect x="487.63" y="325.92" width="6" height="33.65" rx="1.5" fill="#f6465d" /><line x1="501.37" y1="351.48" x2="501.37" y2="371.92" stroke="#f6465d" stroke-width="1.4" /><rect x="498.37" y="360.00" width="6" height="3.41" rx="1.5" fill="#f6465d" /><line x1="512.10" y1="356.59" x2="512.10" y2="367.66" stroke="#0ecb81" stroke-width="1.4" /><rect x="509.10" y="361.70" width="6" height="2.13" rx="1.5" fill="#0ecb81" /><line x1="522.84" y1="353.18" x2="522.84" y2="363.40" stroke="#0ecb81" stroke-width="1.4" /><rect x="519.84" y="353.61" width="6" height="7.67" rx="1.5" fill="#0ecb81" /><line x1="533.57" y1="344.66" x2="533.57" y2="357.44" stroke="#f6465d" stroke-width="1.4" /><rect x="530.57" y="354.03" width="6" height="2.00" rx="1.5" fill="#f6465d" /><line x1="544.30" y1="353.18" x2="544.30" y2="362.13" stroke="#f6465d" stroke-width="1.4" /><rect x="541.30" y="355.31" width="6" height="2.00" rx="1.5" fill="#f6465d" /><line x1="555.04" y1="356.16" x2="555.04" y2="434.11" stroke="#f6465d" stroke-width="1.4" /><rect x="552.04" y="356.16" width="6" height="36.63" rx="1.5" fill="#f6465d" /><line x1="565.77" y1="386.83" x2="565.77" y2="405.57" stroke="#0ecb81" stroke-width="1.4" /><rect x="562.77" y="387.68" width="6" height="5.54" rx="1.5" fill="#0ecb81" /><line x1="576.51" y1="388.11" x2="576.51" y2="452.00" stroke="#f6465d" stroke-width="1.4" /><rect x="573.51" y="388.11" width="6" height="34.93" rx="1.5" fill="#f6465d" /><line x1="587.24" y1="408.55" x2="587.24" y2="426.87" stroke="#0ecb81" stroke-width="1.4" /><rect x="584.24" y="408.98" width="6" height="13.63" rx="1.5" fill="#0ecb81" /><line x1="597.97" y1="390.66" x2="597.97" y2="411.11" stroke="#0ecb81" stroke-width="1.4" /><rect x="594.97" y="399.61" width="6" height="9.37" rx="1.5" fill="#0ecb81" /><line x1="608.71" y1="379.16" x2="608.71" y2="403.02" stroke="#0ecb81" stroke-width="1.4" /><rect x="605.71" y="385.13" width="6" height="14.06" rx="1.5" fill="#0ecb81" /><line x1="619.44" y1="377.89" x2="619.44" y2="398.33" stroke="#0ecb81" stroke-width="1.4" /><rect x="616.44" y="379.16" width="6" height="5.96" rx="1.5" fill="#0ecb81" /><line x1="630.18" y1="375.33" x2="630.18" y2="389.39" stroke="#f6465d" stroke-width="1.4" /><rect x="627.18" y="379.16" width="6" height="2.00" rx="1.5" fill="#f6465d" /><line x1="640.91" y1="371.07" x2="640.91" y2="385.98" stroke="#0ecb81" stroke-width="1.4" /><rect x="637.91" y="375.33" width="6" height="4.69" rx="1.5" fill="#0ecb81" /><line x1="651.65" y1="352.33" x2="651.65" y2="379.16" stroke="#0ecb81" stroke-width="1.4" /><rect x="648.65" y="354.46" width="6" height="21.30" rx="1.5" fill="#0ecb81" /><line x1="662.38" y1="335.29" x2="662.38" y2="360.85" stroke="#0ecb81" stroke-width="1.4" /><rect x="659.38" y="340.83" width="6" height="13.63" rx="1.5" fill="#0ecb81" /><line x1="673.11" y1="331.03" x2="673.11" y2="350.62" stroke="#f6465d" stroke-width="1.4" /><rect x="670.11" y="340.83" width="6" height="4.26" rx="1.5" fill="#f6465d" /><line x1="683.85" y1="328.90" x2="683.85" y2="348.92" stroke="#0ecb81" stroke-width="1.4" /><rect x="680.85" y="342.53" width="6" height="2.56" rx="1.5" fill="#0ecb81" /><line x1="694.58" y1="342.53" x2="694.58" y2="369.79" stroke="#f6465d" stroke-width="1.4" /><rect x="691.58" y="342.96" width="6" height="23.00" rx="1.5" fill="#f6465d" /><line x1="705.32" y1="365.11" x2="705.32" y2="375.76" stroke="#f6465d" stroke-width="1.4" /><rect x="702.32" y="365.96" width="6" height="3.83" rx="1.5" fill="#f6465d" /><line x1="716.05" y1="358.29" x2="716.05" y2="387.68" stroke="#f6465d" stroke-width="1.4" /><rect x="713.05" y="369.79" width="6" height="14.91" rx="1.5" fill="#f6465d" /><line x1="726.78" y1="365.53" x2="726.78" y2="387.68" stroke="#0ecb81" stroke-width="1.4" /><rect x="723.78" y="374.90" width="6" height="9.37" rx="1.5" fill="#0ecb81" /><line x1="737.52" y1="368.51" x2="737.52" y2="383.00" stroke="#0ecb81" stroke-width="1.4" /><rect x="734.52" y="370.22" width="6" height="4.69" rx="1.5" fill="#0ecb81" /><line x1="748.25" y1="366.81" x2="748.25" y2="381.72" stroke="#0ecb81" stroke-width="1.4" /><rect x="745.25" y="368.94" width="6" height="2.13" rx="1.5" fill="#0ecb81" /><line x1="758.99" y1="368.09" x2="758.99" y2="391.09" stroke="#f6465d" stroke-width="1.4" /><rect x="755.99" y="368.51" width="6" height="12.78" rx="1.5" fill="#f6465d" /><line x1="769.72" y1="376.61" x2="769.72" y2="387.68" stroke="#0ecb81" stroke-width="1.4" /><rect x="766.72" y="381.29" width="6" height="2.00" rx="1.5" fill="#0ecb81" /><line x1="780.46" y1="372.35" x2="780.46" y2="382.57" stroke="#f6465d" stroke-width="1.4" /><rect x="777.46" y="380.87" width="6" height="2.00" rx="1.5" fill="#f6465d" /><line x1="791.19" y1="379.59" x2="791.19" y2="390.24" stroke="#0ecb81" stroke-width="1.4" /><rect x="788.19" y="382.57" width="6" height="2.00" rx="1.5" fill="#0ecb81" /><line x1="801.92" y1="382.14" x2="801.92" y2="412.81" stroke="#f6465d" stroke-width="1.4" /><rect x="798.92" y="382.57" width="6" height="14.06" rx="1.5" fill="#f6465d" /><line x1="812.66" y1="383.85" x2="812.66" y2="401.74" stroke="#0ecb81" stroke-width="1.4" /><rect x="809.66" y="385.98" width="6" height="10.65" rx="1.5" fill="#0ecb81" /><line x1="823.39" y1="385.98" x2="823.39" y2="397.48" stroke="#f6465d" stroke-width="1.4" /><rect x="820.39" y="385.98" width="6" height="7.24" rx="1.5" fill="#f6465d" /><line x1="834.13" y1="386.83" x2="834.13" y2="395.35" stroke="#f6465d" stroke-width="1.4" /><rect x="831.13" y="393.22" width="6" height="2.00" rx="1.5" fill="#f6465d" /><line x1="844.86" y1="393.22" x2="844.86" y2="406.42" stroke="#f6465d" stroke-width="1.4" /><rect x="841.86" y="393.65" width="6" height="5.96" rx="1.5" fill="#f6465d" /><line x1="855.59" y1="399.18" x2="855.59" y2="412.39" stroke="#f6465d" stroke-width="1.4" /><rect x="852.59" y="400.03" width="6" height="2.98" rx="1.5" fill="#f6465d" /><line x1="866.33" y1="398.76" x2="866.33" y2="415.37" stroke="#f6465d" stroke-width="1.4" /><rect x="863.33" y="402.59" width="6" height="5.96" rx="1.5" fill="#f6465d" /><line x1="877.06" y1="403.44" x2="877.06" y2="419.20" stroke="#0ecb81" stroke-width="1.4" /><rect x="874.06" y="406.85" width="6" height="2.00" rx="1.5" fill="#0ecb81" /><line x1="887.80" y1="383.00" x2="887.80" y2="409.83" stroke="#0ecb81" stroke-width="1.4" /><rect x="884.80" y="385.13" width="6" height="22.15" rx="1.5" fill="#0ecb81" /><line x1="898.53" y1="385.13" x2="898.53" y2="398.33" stroke="#f6465d" stroke-width="1.4" /><rect x="895.53" y="385.13" width="6" height="8.94" rx="1.5" fill="#f6465d" /><line x1="909.27" y1="392.79" x2="909.27" y2="405.57" stroke="#0ecb81" stroke-width="1.4" /><rect x="906.27" y="392.79" width="6" height="2.00" rx="1.5" fill="#0ecb81" /><line x1="920.00" y1="388.11" x2="920.00" y2="398.33" stroke="#0ecb81" stroke-width="1.4" /><rect x="917.00" y="390.24" width="6" height="2.98" rx="1.5" fill="#0ecb81" />
  <polyline points="479.90,323.36 501.37,371.92 533.57,344.66 576.51,452.00 683.85,328.90" fill="none" stroke="#2fc273" stroke-width="4" stroke-linecap="round" stroke-linejoin="round" />
  <circle cx="479.90" cy="323.36" r="5.5" fill="#2fc273" fill-opacity="0.15" stroke="#2fc273" stroke-width="2" /><text x="479.90" y="311.36" fill="#f3f4f6" font-size="15" font-weight="700" text-anchor="middle">X</text><circle cx="501.37" cy="371.92" r="5.5" fill="#2fc273" fill-opacity="0.15" stroke="#2fc273" stroke-width="2" /><text x="501.37" y="359.92" fill="#f3f4f6" font-size="15" font-weight="700" text-anchor="middle">A</text><circle cx="533.57" cy="344.66" r="5.5" fill="#2fc273" fill-opacity="0.15" stroke="#2fc273" stroke-width="2" /><text x="533.57" y="332.66" fill="#f3f4f6" font-size="15" font-weight="700" text-anchor="middle">B</text><circle cx="576.51" cy="452.00" r="5.5" fill="#2fc273" fill-opacity="0.15" stroke="#2fc273" stroke-width="2" /><text x="576.51" y="440.00" fill="#f3f4f6" font-size="15" font-weight="700" text-anchor="middle">C</text><circle cx="683.85" cy="328.90" r="5.5" fill="#2fc273" fill-opacity="0.15" stroke="#2fc273" stroke-width="2" /><text x="683.85" y="316.90" fill="#f3f4f6" font-size="15" font-weight="700" text-anchor="middle">D</text>
  <text x="56" y="492" fill="#8ba0b5" font-size="18">일반 완성 · TP1 0.034586 · TP2 0.033904 · SL 0.035838</text>
</svg>
