<svg xmlns="http://www.w3.org/2000/svg" width="960" height="540" viewBox="0 0 960 540">
  <rect width="960" height="540" rx="24" fill="#0b1220" />
  <rect x="28" y="28" width="904" height="484" rx="22" fill="#111827" stroke="#1f2937" />
  <text x="56" y="74" fill="#f3f4f6" font-size="34" font-weight="700">PIXELUSDT · AB=CD</text>
  <text x="904" y="74" fill="#8ba0b5" font-size="20" text-anchor="end">Bearish (매도) · Score 88.5</text>
  <line x1="72" y1="58" x2="920" y2="58" stroke="#223045" stroke-width="1" stroke-dasharray="4 8" /><line x1="72" y1="156" x2="920" y2="156" stroke="#223045" stroke-width="1" stroke-dasharray="4 8" /><line x1="72" y1="255" x2="920" y2="255" stroke="#223045" stroke-width="1" stroke-dasharray="4 8" /><line x1="72" y1="353" x2="920" y2="353" stroke="#223045" stroke-width="1" stroke-dasharray="4 8" /><line x1="72" y1="452" x2="920" y2="452" stroke="#223045" stroke-width="1" stroke-dasharray="4 8" />
  <rect x="849.06" y="63.42" width="84" height="65.06" fill="#fbbf24" fill-opacity="0.12" stroke="#fbbf24" stroke-width="1.5" stroke-dasharray="6 6" />
  <line x1="72.00" y1="348.98" x2="72.00" y2="399.59" stroke="#0ecb81" stroke-width="1.4" /><rect x="69.00" y="359.83" width="6" height="7.23" rx="1.5" fill="#0ecb81" /><line x1="82.73" y1="343.56" x2="82.73" y2="401.39" stroke="#f6465d" stroke-width="1.4" /><rect x="79.73" y="361.63" width="6" height="30.72" rx="1.5" fill="#f6465d" /><line x1="93.47" y1="388.74" x2="93.47" y2="417.66" stroke="#f6465d" stroke-width="1.4" /><rect x="90.47" y="392.36" width="6" height="10.84" rx="1.5" fill="#f6465d" /><line x1="104.20" y1="367.06" x2="104.20" y2="423.08" stroke="#0ecb81" stroke-width="1.4" /><rect x="101.20" y="394.17" width="6" height="7.23" rx="1.5" fill="#0ecb81" /><line x1="114.94" y1="372.48" x2="114.94" y2="415.85" stroke="#0ecb81" stroke-width="1.4" /><rect x="111.94" y="388.74" width="6" height="3.61" rx="1.5" fill="#0ecb81" /><line x1="125.67" y1="367.06" x2="125.67" y2="397.78" stroke="#0ecb81" stroke-width="1.4" /><rect x="122.67" y="383.32" width="6" height="3.61" rx="1.5" fill="#0ecb81" /><line x1="136.41" y1="354.40" x2="136.41" y2="401.39" stroke="#0ecb81" stroke-width="1.4" /><rect x="133.41" y="367.06" width="6" height="16.27" rx="1.5" fill="#0ecb81" /><line x1="147.14" y1="339.94" x2="147.14" y2="381.51" stroke="#f6465d" stroke-width="1.4" /><rect x="144.14" y="365.25" width="6" height="10.84" rx="1.5" fill="#f6465d" /><line x1="157.87" y1="367.06" x2="157.87" y2="406.82" stroke="#f6465d" stroke-width="1.4" /><rect x="154.87" y="372.48" width="6" height="19.88" rx="1.5" fill="#f6465d" /><line x1="168.61" y1="361.63" x2="168.61" y2="421.28" stroke="#0ecb81" stroke-width="1.4" /><rect x="165.61" y="365.25" width="6" height="27.11" rx="1.5" fill="#0ecb81" /><line x1="179.34" y1="361.63" x2="179.34" y2="414.05" stroke="#f6465d" stroke-width="1.4" /><rect x="176.34" y="363.44" width="6" height="21.69" rx="1.5" fill="#f6465d" /><line x1="190.08" y1="381.51" x2="190.08" y2="397.78" stroke="#f6465d" stroke-width="1.4" /><rect x="187.08" y="383.32" width="6" height="14.46" rx="1.5" fill="#f6465d" /><line x1="200.81" y1="397.78" x2="200.81" y2="446.58" stroke="#f6465d" stroke-width="1.4" /><rect x="197.81" y="397.78" width="6" height="41.57" rx="1.5" fill="#f6465d" /><line x1="211.54" y1="401.39" x2="211.54" y2="444.77" stroke="#0ecb81" stroke-width="1.4" /><rect x="208.54" y="403.20" width="6" height="34.34" rx="1.5" fill="#0ecb81" /><line x1="222.28" y1="399.59" x2="222.28" y2="419.47" stroke="#0ecb81" stroke-width="1.4" /><rect x="219.28" y="399.59" width="6" height="3.61" rx="1.5" fill="#0ecb81" /><line x1="233.01" y1="399.59" x2="233.01" y2="452.00" stroke="#f6465d" stroke-width="1.4" /><rect x="230.01" y="399.59" width="6" height="36.15" rx="1.5" fill="#f6465d" /><line x1="243.75" y1="410.43" x2="243.75" y2="446.58" stroke="#0ecb81" stroke-width="1.4" /><rect x="240.75" y="410.43" width="6" height="21.69" rx="1.5" fill="#0ecb81" /><line x1="254.48" y1="347.17" x2="254.48" y2="435.73" stroke="#0ecb81" stroke-width="1.4" /><rect x="251.48" y="379.71" width="6" height="28.92" rx="1.5" fill="#0ecb81" /><line x1="265.22" y1="321.87" x2="265.22" y2="379.71" stroke="#0ecb81" stroke-width="1.4" /><rect x="262.22" y="336.33" width="6" height="43.38" rx="1.5" fill="#0ecb81" /><line x1="275.95" y1="312.83" x2="275.95" y2="347.17" stroke="#0ecb81" stroke-width="1.4" /><rect x="272.95" y="316.45" width="6" height="18.07" rx="1.5" fill="#0ecb81" /><line x1="286.68" y1="287.53" x2="286.68" y2="350.79" stroke="#f6465d" stroke-width="1.4" /><rect x="283.68" y="316.45" width="6" height="19.88" rx="1.5" fill="#f6465d" /><line x1="297.42" y1="320.06" x2="297.42" y2="377.90" stroke="#f6465d" stroke-width="1.4" /><rect x="294.42" y="336.33" width="6" height="7.23" rx="1.5" fill="#f6465d" /><line x1="308.15" y1="274.88" x2="308.15" y2="343.56" stroke="#0ecb81" stroke-width="1.4" /><rect x="305.15" y="296.57" width="6" height="45.18" rx="1.5" fill="#0ecb81" /><line x1="318.89" y1="273.07" x2="318.89" y2="305.61" stroke="#0ecb81" stroke-width="1.4" /><rect x="315.89" y="276.69" width="6" height="18.07" rx="1.5" fill="#0ecb81" /><line x1="329.62" y1="202.59" x2="329.62" y2="278.50" stroke="#0ecb81" stroke-width="1.4" /><rect x="326.62" y="209.82" width="6" height="65.06" rx="1.5" fill="#0ecb81" /><line x1="340.35" y1="197.17" x2="340.35" y2="236.93" stroke="#0ecb81" stroke-width="1.4" /><rect x="337.35" y="202.59" width="6" height="9.04" rx="1.5" fill="#0ecb81" /><line x1="351.09" y1="184.51" x2="351.09" y2="226.08" stroke="#0ecb81" stroke-width="1.4" /><rect x="348.09" y="186.32" width="6" height="16.27" rx="1.5" fill="#0ecb81" /><line x1="361.82" y1="101.38" x2="361.82" y2="188.13" stroke="#0ecb81" stroke-width="1.4" /><rect x="358.82" y="135.72" width="6" height="52.41" rx="1.5" fill="#0ecb81" /><line x1="372.56" y1="101.38" x2="372.56" y2="142.94" stroke="#0ecb81" stroke-width="1.4" /><rect x="369.56" y="108.61" width="6" height="25.30" rx="1.5" fill="#0ecb81" /><line x1="383.29" y1="86.92" x2="383.29" y2="135.72" stroke="#f6465d" stroke-width="1.4" /><rect x="380.29" y="110.41" width="6" height="14.46" rx="1.5" fill="#f6465d" /><line x1="394.03" y1="58.00" x2="394.03" y2="137.52" stroke="#0ecb81" stroke-width="1.4" /><rect x="391.03" y="115.83" width="6" height="9.04" rx="1.5" fill="#0ecb81" /><line x1="404.76" y1="95.95" x2="404.76" y2="124.87" stroke="#0ecb81" stroke-width="1.4" /><rect x="401.76" y="104.99" width="6" height="10.84" rx="1.5" fill="#0ecb81" /><line x1="415.49" y1="95.95" x2="415.49" y2="159.21" stroke="#f6465d" stroke-width="1.4" /><rect x="412.49" y="103.18" width="6" height="45.18" rx="1.5" fill="#f6465d" /><line x1="426.23" y1="83.30" x2="426.23" y2="175.48" stroke="#0ecb81" stroke-width="1.4" /><rect x="423.23" y="104.99" width="6" height="39.76" rx="1.5" fill="#0ecb81" /><line x1="436.96" y1="95.95" x2="436.96" y2="175.48" stroke="#f6465d" stroke-width="1.4" /><rect x="433.96" y="103.18" width="6" height="66.87" rx="1.5" fill="#f6465d" /><line x1="447.70" y1="144.75" x2="447.70" y2="182.71" stroke="#0ecb81" stroke-width="1.4" /><rect x="444.70" y="148.37" width="6" height="23.50" rx="1.5" fill="#0ecb81" /><line x1="458.43" y1="128.49" x2="458.43" y2="168.25" stroke="#f6465d" stroke-width="1.4" /><rect x="455.43" y="148.37" width="6" height="9.04" rx="1.5" fill="#f6465d" /><line x1="469.16" y1="146.56" x2="469.16" y2="184.51" stroke="#f6465d" stroke-width="1.4" /><rect x="466.16" y="157.40" width="6" height="2.00" rx="1.5" fill="#f6465d" /><line x1="479.90" y1="161.02" x2="479.90" y2="198.97" stroke="#f6465d" stroke-width="1.4" /><rect x="476.90" y="161.02" width="6" height="28.92" rx="1.5" fill="#f6465d" /><line x1="490.63" y1="150.17" x2="490.63" y2="189.94" stroke="#0ecb81" stroke-width="1.4" /><rect x="487.63" y="170.06" width="6" height="19.88" rx="1.5" fill="#0ecb81" /><line x1="501.37" y1="164.63" x2="501.37" y2="236.93" stroke="#f6465d" stroke-width="1.4" /><rect x="498.37" y="171.86" width="6" height="57.83" rx="1.5" fill="#f6465d" /><line x1="512.10" y1="184.51" x2="512.10" y2="227.89" stroke="#0ecb81" stroke-width="1.4" /><rect x="509.10" y="195.36" width="6" height="32.53" rx="1.5" fill="#0ecb81" /><line x1="522.84" y1="193.55" x2="522.84" y2="235.12" stroke="#f6465d" stroke-width="1.4" /><rect x="519.84" y="193.55" width="6" height="30.72" rx="1.5" fill="#f6465d" /><line x1="533.57" y1="184.51" x2="533.57" y2="226.08" stroke="#0ecb81" stroke-width="1.4" /><rect x="530.57" y="204.39" width="6" height="21.69" rx="1.5" fill="#0ecb81" /><line x1="544.30" y1="177.28" x2="544.30" y2="242.35" stroke="#f6465d" stroke-width="1.4" /><rect x="541.30" y="206.20" width="6" height="27.11" rx="1.5" fill="#f6465d" /><line x1="555.04" y1="215.24" x2="555.04" y2="271.27" stroke="#f6465d" stroke-width="1.4" /><rect x="552.04" y="233.31" width="6" height="32.53" rx="1.5" fill="#f6465d" /><line x1="565.77" y1="197.17" x2="565.77" y2="264.04" stroke="#0ecb81" stroke-width="1.4" /><rect x="562.77" y="213.43" width="6" height="50.61" rx="1.5" fill="#0ecb81" /><line x1="576.51" y1="166.44" x2="576.51" y2="231.50" stroke="#f6465d" stroke-width="1.4" /><rect x="573.51" y="211.62" width="6" height="18.07" rx="1.5" fill="#f6465d" /><line x1="587.24" y1="224.28" x2="587.24" y2="276.69" stroke="#f6465d" stroke-width="1.4" /><rect x="584.24" y="227.89" width="6" height="41.57" rx="1.5" fill="#f6465d" /><line x1="597.97" y1="249.58" x2="597.97" y2="276.69" stroke="#0ecb81" stroke-width="1.4" /><rect x="594.97" y="260.42" width="6" height="7.23" rx="1.5" fill="#0ecb81" /><line x1="608.71" y1="235.12" x2="608.71" y2="260.42" stroke="#0ecb81" stroke-width="1.4" /><rect x="605.71" y="255.00" width="6" height="3.61" rx="1.5" fill="#0ecb81" /><line x1="619.44" y1="229.70" x2="619.44" y2="256.81" stroke="#0ecb81" stroke-width="1.4" /><rect x="616.44" y="233.31" width="6" height="19.88" rx="1.5" fill="#0ecb81" /><line x1="630.18" y1="222.47" x2="630.18" y2="258.61" stroke="#f6465d" stroke-width="1.4" /><rect x="627.18" y="231.50" width="6" height="12.65" rx="1.5" fill="#f6465d" /><line x1="640.91" y1="236.93" x2="640.91" y2="260.42" stroke="#f6465d" stroke-width="1.4" /><rect x="637.91" y="245.96" width="6" height="9.04" rx="1.5" fill="#f6465d" /><line x1="651.65" y1="242.35" x2="651.65" y2="274.88" stroke="#f6465d" stroke-width="1.4" /><rect x="648.65" y="253.19" width="6" height="16.27" rx="1.5" fill="#f6465d" /><line x1="662.38" y1="258.61" x2="662.38" y2="292.95" stroke="#f6465d" stroke-width="1.4" /><rect x="659.38" y="269.46" width="6" height="19.88" rx="1.5" fill="#f6465d" /><line x1="673.11" y1="265.84" x2="673.11" y2="289.34" stroke="#0ecb81" stroke-width="1.4" /><rect x="670.11" y="269.46" width="6" height="19.88" rx="1.5" fill="#0ecb81" /><line x1="683.85" y1="249.58" x2="683.85" y2="269.46" stroke="#0ecb81" stroke-width="1.4" /><rect x="680.85" y="255.00" width="6" height="14.46" rx="1.5" fill="#0ecb81" /><line x1="694.58" y1="238.73" x2="694.58" y2="276.69" stroke="#f6465d" stroke-width="1.4" /><rect x="691.58" y="256.81" width="6" height="5.42" rx="1.5" fill="#f6465d" /><line x1="705.32" y1="193.55" x2="705.32" y2="262.23" stroke="#0ecb81" stroke-width="1.4" /><rect x="702.32" y="226.08" width="6" height="36.15" rx="1.5" fill="#0ecb81" /><line x1="716.05" y1="170.06" x2="716.05" y2="229.70" stroke="#0ecb81" stroke-width="1.4" /><rect x="713.05" y="180.90" width="6" height="45.18" rx="1.5" fill="#0ecb81" /><line x1="726.78" y1="175.48" x2="726.78" y2="206.20" stroke="#f6465d" stroke-width="1.4" /><rect x="723.78" y="180.90" width="6" height="9.04" rx="1.5" fill="#f6465d" /><line x1="737.52" y1="180.90" x2="737.52" y2="217.05" stroke="#0ecb81" stroke-width="1.4" /><rect x="734.52" y="182.71" width="6" height="5.42" rx="1.5" fill="#0ecb81" /><line x1="748.25" y1="132.10" x2="748.25" y2="180.90" stroke="#0ecb81" stroke-width="1.4" /><rect x="745.25" y="151.98" width="6" height="28.92" rx="1.5" fill="#0ecb81" /><line x1="758.99" y1="142.94" x2="758.99" y2="173.67" stroke="#0ecb81" stroke-width="1.4" /><rect x="755.99" y="150.17" width="6" height="3.61" rx="1.5" fill="#0ecb81" /><line x1="769.72" y1="148.37" x2="769.72" y2="170.06" stroke="#f6465d" stroke-width="1.4" /><rect x="766.72" y="148.37" width="6" height="12.65" rx="1.5" fill="#f6465d" /><line x1="780.46" y1="146.56" x2="780.46" y2="168.25" stroke="#f6465d" stroke-width="1.4" /><rect x="777.46" y="159.21" width="6" height="3.61" rx="1.5" fill="#f6465d" /><line x1="791.19" y1="146.56" x2="791.19" y2="180.90" stroke="#f6465d" stroke-width="1.4" /><rect x="788.19" y="161.02" width="6" height="12.65" rx="1.5" fill="#f6465d" /><line x1="801.92" y1="171.86" x2="801.92" y2="211.62" stroke="#f6465d" stroke-width="1.4" /><rect x="798.92" y="171.86" width="6" height="39.76" rx="1.5" fill="#f6465d" /><line x1="812.66" y1="166.44" x2="812.66" y2="215.24" stroke="#0ecb81" stroke-width="1.4" /><rect x="809.66" y="177.28" width="6" height="34.34" rx="1.5" fill="#0ecb81" /><line x1="823.39" y1="142.94" x2="823.39" y2="184.51" stroke="#0ecb81" stroke-width="1.4" /><rect x="820.39" y="153.79" width="6" height="21.69" rx="1.5" fill="#0ecb81" /><line x1="834.13" y1="132.10" x2="834.13" y2="168.25" stroke="#f6465d" stroke-width="1.4" /><rect x="831.13" y="151.98" width="6" height="7.23" rx="1.5" fill="#f6465d" /><line x1="844.86" y1="132.10" x2="844.86" y2="191.74" stroke="#f6465d" stroke-width="1.4" /><rect x="841.86" y="155.60" width="6" height="27.11" rx="1.5" fill="#f6465d" /><line x1="855.59" y1="171.86" x2="855.59" y2="211.62" stroke="#f6465d" stroke-width="1.4" /><rect x="852.59" y="182.71" width="6" height="2.00" rx="1.5" fill="#f6465d" /><line x1="866.33" y1="141.14" x2="866.33" y2="184.51" stroke="#0ecb81" stroke-width="1.4" /><rect x="863.33" y="148.37" width="6" height="36.15" rx="1.5" fill="#0ecb81" /><line x1="877.06" y1="114.03" x2="877.06" y2="161.02" stroke="#0ecb81" stroke-width="1.4" /><rect x="874.06" y="139.33" width="6" height="9.04" rx="1.5" fill="#0ecb81" /><line x1="887.80" y1="139.33" x2="887.80" y2="157.40" stroke="#f6465d" stroke-width="1.4" /><rect x="884.80" y="139.33" width="6" height="7.23" rx="1.5" fill="#f6465d" /><line x1="898.53" y1="146.56" x2="898.53" y2="182.71" stroke="#f6465d" stroke-width="1.4" /><rect x="895.53" y="146.56" width="6" height="21.69" rx="1.5" fill="#f6465d" /><line x1="909.27" y1="141.14" x2="909.27" y2="179.09" stroke="#0ecb81" stroke-width="1.4" /><rect x="906.27" y="141.14" width="6" height="25.30" rx="1.5" fill="#0ecb81" /><line x1="920.00" y1="132.10" x2="920.00" y2="168.25" stroke="#f6465d" stroke-width="1.4" /><rect x="917.00" y="144.75" width="6" height="5.42" rx="1.5" fill="#f6465d" />
  <polyline points="748.25,132.10 812.66,215.24 834.13,132.10 855.59,211.62 877.06,114.03" fill="none" stroke="#2fc273" stroke-width="4" stroke-linecap="round" stroke-linejoin="round" />
  <circle cx="748.25" cy="132.10" r="5.5" fill="#2fc273" fill-opacity="0.15" stroke="#2fc273" stroke-width="2" /><text x="748.25" y="120.10" fill="#f3f4f6" font-size="15" font-weight="700" text-anchor="middle">X</text><circle cx="812.66" cy="215.24" r="5.5" fill="#2fc273" fill-opacity="0.15" stroke="#2fc273" stroke-width="2" /><text x="812.66" y="203.24" fill="#f3f4f6" font-size="15" font-weight="700" text-anchor="middle">A</text><circle cx="834.13" cy="132.10" r="5.5" fill="#2fc273" fill-opacity="0.15" stroke="#2fc273" stroke-width="2" /><text x="834.13" y="120.10" fill="#f3f4f6" font-size="15" font-weight="700" text-anchor="middle">B</text><circle cx="855.59" cy="211.62" r="5.5" fill="#2fc273" fill-opacity="0.15" stroke="#2fc273" stroke-width="2" /><text x="855.59" y="199.62" fill="#f3f4f6" font-size="15" font-weight="700" text-anchor="middle">C</text><circle cx="877.06" cy="114.03" r="5.5" fill="#2fc273" fill-opacity="0.15" stroke="#2fc273" stroke-width="2" /><text x="877.06" y="102.03" fill="#f3f4f6" font-size="15" font-weight="700" text-anchor="middle">D</text>
  <text x="56" y="492" fill="#8ba0b5" font-size="18">일반 완성 · TP1 0.006479 · TP2 0.006467 · SL 0.006506</text>
</svg>
