<svg xmlns="http://www.w3.org/2000/svg" width="960" height="540" viewBox="0 0 960 540">
  <rect width="960" height="540" rx="24" fill="#0b1220" />
  <rect x="28" y="28" width="904" height="484" rx="22" fill="#111827" stroke="#1f2937" />
  <text x="56" y="74" fill="#f3f4f6" font-size="34" font-weight="700">PIXELUSDT · AB=CD</text>
  <text x="904" y="74" fill="#8ba0b5" font-size="20" text-anchor="end">Bearish (매도) · Score 84.9</text>
  <line x1="72" y1="58" x2="920" y2="58" stroke="#223045" stroke-width="1" stroke-dasharray="4 8" /><line x1="72" y1="156" x2="920" y2="156" stroke="#223045" stroke-width="1" stroke-dasharray="4 8" /><line x1="72" y1="255" x2="920" y2="255" stroke="#223045" stroke-width="1" stroke-dasharray="4 8" /><line x1="72" y1="353" x2="920" y2="353" stroke="#223045" stroke-width="1" stroke-dasharray="4 8" /><line x1="72" y1="452" x2="920" y2="452" stroke="#223045" stroke-width="1" stroke-dasharray="4 8" />
  <rect x="494.84" y="182.00" width="84" height="52.88" fill="#fbbf24" fill-opacity="0.12" stroke="#fbbf24" stroke-width="1.5" stroke-dasharray="6 6" />
  <line x1="72.00" y1="87.48" x2="72.00" y2="178.26" stroke="#0ecb81" stroke-width="1.4" /><rect x="69.00" y="107.13" width="6" height="60.83" rx="1.5" fill="#0ecb81" /><line x1="82.73" y1="81.86" x2="82.73" y2="145.04" stroke="#f6465d" stroke-width="1.4" /><rect x="79.73" y="108.54" width="6" height="7.02" rx="1.5" fill="#f6465d" /><line x1="93.47" y1="58.00" x2="93.47" y2="132.87" stroke="#0ecb81" stroke-width="1.4" /><rect x="90.47" y="99.18" width="6" height="15.91" rx="1.5" fill="#0ecb81" /><line x1="104.20" y1="92.63" x2="104.20" y2="164.69" stroke="#f6465d" stroke-width="1.4" /><rect x="101.20" y="99.18" width="6" height="37.43" rx="1.5" fill="#f6465d" /><line x1="114.94" y1="123.98" x2="114.94" y2="180.60" stroke="#f6465d" stroke-width="1.4" /><rect x="111.94" y="136.14" width="6" height="14.51" rx="1.5" fill="#f6465d" /><line x1="125.67" y1="84.20" x2="125.67" y2="165.62" stroke="#0ecb81" stroke-width="1.4" /><rect x="122.67" y="100.58" width="6" height="50.54" rx="1.5" fill="#0ecb81" /><line x1="136.41" y1="90.29" x2="136.41" y2="151.59" stroke="#f6465d" stroke-width="1.4" /><rect x="133.41" y="100.11" width="6" height="45.39" rx="1.5" fill="#f6465d" /><line x1="147.14" y1="102.92" x2="147.14" y2="157.67" stroke="#0ecb81" stroke-width="1.4" /><rect x="144.14" y="108.54" width="6" height="35.56" rx="1.5" fill="#0ecb81" /><line x1="157.87" y1="100.11" x2="157.87" y2="156.73" stroke="#f6465d" stroke-width="1.4" /><rect x="154.87" y="109.47" width="6" height="34.16" rx="1.5" fill="#f6465d" /><line x1="168.61" y1="113.68" x2="168.61" y2="157.20" stroke="#0ecb81" stroke-width="1.4" /><rect x="165.61" y="118.83" width="6" height="25.27" rx="1.5" fill="#0ecb81" /><line x1="179.34" y1="116.49" x2="179.34" y2="146.44" stroke="#f6465d" stroke-width="1.4" /><rect x="176.34" y="118.36" width="6" height="9.83" rx="1.5" fill="#f6465d" /><line x1="190.08" y1="129.59" x2="190.08" y2="203.06" stroke="#f6465d" stroke-width="1.4" /><rect x="187.08" y="129.59" width="6" height="60.36" rx="1.5" fill="#f6465d" /><line x1="200.81" y1="173.11" x2="200.81" y2="254.53" stroke="#f6465d" stroke-width="1.4" /><rect x="197.81" y="189.49" width="6" height="61.77" rx="1.5" fill="#f6465d" /><line x1="211.54" y1="230.67" x2="211.54" y2="289.16" stroke="#f6465d" stroke-width="1.4" /><rect x="208.54" y="250.79" width="6" height="22.93" rx="1.5" fill="#f6465d" /><line x1="222.28" y1="229.73" x2="222.28" y2="279.80" stroke="#0ecb81" stroke-width="1.4" /><rect x="219.28" y="233.48" width="6" height="41.65" rx="1.5" fill="#0ecb81" /><line x1="233.01" y1="208.67" x2="233.01" y2="247.05" stroke="#0ecb81" stroke-width="1.4" /><rect x="230.01" y="221.78" width="6" height="11.70" rx="1.5" fill="#0ecb81" /><line x1="243.75" y1="177.79" x2="243.75" y2="233.48" stroke="#0ecb81" stroke-width="1.4" /><rect x="240.75" y="200.25" width="6" height="21.99" rx="1.5" fill="#0ecb81" /><line x1="254.48" y1="199.78" x2="254.48" y2="267.63" stroke="#f6465d" stroke-width="1.4" /><rect x="251.48" y="200.72" width="6" height="46.33" rx="1.5" fill="#f6465d" /><line x1="265.22" y1="221.78" x2="265.22" y2="250.79" stroke="#0ecb81" stroke-width="1.4" /><rect x="262.22" y="242.83" width="6" height="5.15" rx="1.5" fill="#0ecb81" /><line x1="275.95" y1="239.09" x2="275.95" y2="263.42" stroke="#f6465d" stroke-width="1.4" /><rect x="272.95" y="242.37" width="6" height="5.15" rx="1.5" fill="#f6465d" /><line x1="286.68" y1="235.81" x2="286.68" y2="285.88" stroke="#f6465d" stroke-width="1.4" /><rect x="283.68" y="247.05" width="6" height="34.16" rx="1.5" fill="#f6465d" /><line x1="297.42" y1="260.15" x2="297.42" y2="302.73" stroke="#0ecb81" stroke-width="1.4" /><rect x="294.42" y="264.36" width="6" height="17.31" rx="1.5" fill="#0ecb81" /><line x1="308.15" y1="257.81" x2="308.15" y2="276.52" stroke="#0ecb81" stroke-width="1.4" /><rect x="305.15" y="261.55" width="6" height="2.81" rx="1.5" fill="#0ecb81" /><line x1="318.89" y1="251.72" x2="318.89" y2="279.80" stroke="#0ecb81" stroke-width="1.4" /><rect x="315.89" y="261.55" width="6" height="2.00" rx="1.5" fill="#0ecb81" /><line x1="329.62" y1="252.19" x2="329.62" y2="279.80" stroke="#f6465d" stroke-width="1.4" /><rect x="326.62" y="262.02" width="6" height="10.29" rx="1.5" fill="#f6465d" /><line x1="340.35" y1="262.02" x2="340.35" y2="289.63" stroke="#f6465d" stroke-width="1.4" /><rect x="337.35" y="272.31" width="6" height="2.00" rx="1.5" fill="#f6465d" /><line x1="351.09" y1="266.23" x2="351.09" y2="287.76" stroke="#f6465d" stroke-width="1.4" /><rect x="348.09" y="273.72" width="6" height="7.02" rx="1.5" fill="#f6465d" /><line x1="361.82" y1="276.99" x2="361.82" y2="307.88" stroke="#f6465d" stroke-width="1.4" /><rect x="358.82" y="280.27" width="6" height="20.59" rx="1.5" fill="#f6465d" /><line x1="372.56" y1="293.84" x2="372.56" y2="312.56" stroke="#f6465d" stroke-width="1.4" /><rect x="369.56" y="300.39" width="6" height="8.89" rx="1.5" fill="#f6465d" /><line x1="383.29" y1="304.13" x2="383.29" y2="328.00" stroke="#f6465d" stroke-width="1.4" /><rect x="380.29" y="309.28" width="6" height="4.21" rx="1.5" fill="#f6465d" /><line x1="394.03" y1="287.29" x2="394.03" y2="314.43" stroke="#0ecb81" stroke-width="1.4" /><rect x="391.03" y="290.10" width="6" height="23.40" rx="1.5" fill="#0ecb81" /><line x1="404.76" y1="275.59" x2="404.76" y2="304.13" stroke="#0ecb81" stroke-width="1.4" /><rect x="401.76" y="286.82" width="6" height="3.28" rx="1.5" fill="#0ecb81" /><line x1="415.49" y1="276.99" x2="415.49" y2="290.56" stroke="#0ecb81" stroke-width="1.4" /><rect x="412.49" y="284.48" width="6" height="2.34" rx="1.5" fill="#0ecb81" /><line x1="426.23" y1="259.21" x2="426.23" y2="292.90" stroke="#0ecb81" stroke-width="1.4" /><rect x="423.23" y="264.83" width="6" height="19.65" rx="1.5" fill="#0ecb81" /><line x1="436.96" y1="245.17" x2="436.96" y2="276.06" stroke="#f6465d" stroke-width="1.4" /><rect x="433.96" y="264.83" width="6" height="6.08" rx="1.5" fill="#f6465d" /><line x1="447.70" y1="262.49" x2="447.70" y2="314.90" stroke="#f6465d" stroke-width="1.4" /><rect x="444.70" y="270.91" width="6" height="43.52" rx="1.5" fill="#f6465d" /><line x1="458.43" y1="296.18" x2="458.43" y2="317.70" stroke="#0ecb81" stroke-width="1.4" /><rect x="455.43" y="297.58" width="6" height="16.38" rx="1.5" fill="#0ecb81" /><line x1="469.16" y1="277.46" x2="469.16" y2="306.47" stroke="#0ecb81" stroke-width="1.4" /><rect x="466.16" y="281.67" width="6" height="15.91" rx="1.5" fill="#0ecb81" /><line x1="479.90" y1="268.10" x2="479.90" y2="289.16" stroke="#0ecb81" stroke-width="1.4" /><rect x="476.90" y="280.27" width="6" height="2.00" rx="1.5" fill="#0ecb81" /><line x1="490.63" y1="266.70" x2="490.63" y2="304.60" stroke="#0ecb81" stroke-width="1.4" /><rect x="487.63" y="266.70" width="6" height="14.97" rx="1.5" fill="#0ecb81" /><line x1="501.37" y1="245.64" x2="501.37" y2="273.72" stroke="#0ecb81" stroke-width="1.4" /><rect x="498.37" y="256.87" width="6" height="11.23" rx="1.5" fill="#0ecb81" /><line x1="512.10" y1="245.64" x2="512.10" y2="265.29" stroke="#0ecb81" stroke-width="1.4" /><rect x="509.10" y="246.11" width="6" height="10.76" rx="1.5" fill="#0ecb81" /><line x1="522.84" y1="214.29" x2="522.84" y2="249.38" stroke="#0ecb81" stroke-width="1.4" /><rect x="519.84" y="234.41" width="6" height="11.23" rx="1.5" fill="#0ecb81" /><line x1="533.57" y1="233.94" x2="533.57" y2="263.89" stroke="#f6465d" stroke-width="1.4" /><rect x="530.57" y="234.88" width="6" height="25.27" rx="1.5" fill="#f6465d" /><line x1="544.30" y1="260.15" x2="544.30" y2="283.54" stroke="#f6465d" stroke-width="1.4" /><rect x="541.30" y="260.15" width="6" height="16.38" rx="1.5" fill="#f6465d" /><line x1="555.04" y1="258.74" x2="555.04" y2="288.69" stroke="#f6465d" stroke-width="1.4" /><rect x="552.04" y="276.52" width="6" height="2.00" rx="1.5" fill="#f6465d" /><line x1="565.77" y1="264.83" x2="565.77" y2="283.08" stroke="#0ecb81" stroke-width="1.4" /><rect x="562.77" y="274.19" width="6" height="2.81" rx="1.5" fill="#0ecb81" /><line x1="576.51" y1="265.76" x2="576.51" y2="280.27" stroke="#0ecb81" stroke-width="1.4" /><rect x="573.51" y="270.44" width="6" height="4.68" rx="1.5" fill="#0ecb81" /><line x1="587.24" y1="268.57" x2="587.24" y2="294.31" stroke="#f6465d" stroke-width="1.4" /><rect x="584.24" y="270.91" width="6" height="14.97" rx="1.5" fill="#f6465d" /><line x1="597.97" y1="270.44" x2="597.97" y2="285.88" stroke="#0ecb81" stroke-width="1.4" /><rect x="594.97" y="281.20" width="6" height="4.21" rx="1.5" fill="#0ecb81" /><line x1="608.71" y1="264.83" x2="608.71" y2="280.74" stroke="#0ecb81" stroke-width="1.4" /><rect x="605.71" y="270.44" width="6" height="10.29" rx="1.5" fill="#0ecb81" /><line x1="619.44" y1="253.60" x2="619.44" y2="285.42" stroke="#f6465d" stroke-width="1.4" /><rect x="616.44" y="269.04" width="6" height="4.68" rx="1.5" fill="#f6465d" /><line x1="630.18" y1="268.57" x2="630.18" y2="285.88" stroke="#f6465d" stroke-width="1.4" /><rect x="627.18" y="273.72" width="6" height="7.02" rx="1.5" fill="#f6465d" /><line x1="640.91" y1="272.78" x2="640.91" y2="320.04" stroke="#f6465d" stroke-width="1.4" /><rect x="637.91" y="280.74" width="6" height="31.35" rx="1.5" fill="#f6465d" /><line x1="651.65" y1="306.47" x2="651.65" y2="327.53" stroke="#f6465d" stroke-width="1.4" /><rect x="648.65" y="312.56" width="6" height="10.76" rx="1.5" fill="#f6465d" /><line x1="662.38" y1="320.98" x2="662.38" y2="368.24" stroke="#f6465d" stroke-width="1.4" /><rect x="659.38" y="322.85" width="6" height="26.20" rx="1.5" fill="#f6465d" /><line x1="673.11" y1="341.10" x2="673.11" y2="357.48" stroke="#f6465d" stroke-width="1.4" /><rect x="670.11" y="348.12" width="6" height="4.68" rx="1.5" fill="#f6465d" /><line x1="683.85" y1="349.99" x2="683.85" y2="381.81" stroke="#f6465d" stroke-width="1.4" /><rect x="680.85" y="352.80" width="6" height="18.72" rx="1.5" fill="#f6465d" /><line x1="694.58" y1="349.52" x2="694.58" y2="372.92" stroke="#0ecb81" stroke-width="1.4" /><rect x="691.58" y="370.11" width="6" height="2.00" rx="1.5" fill="#0ecb81" /><line x1="705.32" y1="358.41" x2="705.32" y2="376.19" stroke="#0ecb81" stroke-width="1.4" /><rect x="702.32" y="359.82" width="6" height="10.76" rx="1.5" fill="#0ecb81" /><line x1="716.05" y1="354.67" x2="716.05" y2="370.58" stroke="#f6465d" stroke-width="1.4" /><rect x="713.05" y="359.82" width="6" height="9.36" rx="1.5" fill="#f6465d" /><line x1="726.78" y1="361.22" x2="726.78" y2="379.00" stroke="#f6465d" stroke-width="1.4" /><rect x="723.78" y="369.18" width="6" height="8.89" rx="1.5" fill="#f6465d" /><line x1="737.52" y1="368.71" x2="737.52" y2="394.91" stroke="#0ecb81" stroke-width="1.4" /><rect x="734.52" y="378.07" width="6" height="2.00" rx="1.5" fill="#0ecb81" /><line x1="748.25" y1="376.66" x2="748.25" y2="391.17" stroke="#f6465d" stroke-width="1.4" /><rect x="745.25" y="377.60" width="6" height="6.08" rx="1.5" fill="#f6465d" /><line x1="758.99" y1="377.60" x2="758.99" y2="396.78" stroke="#f6465d" stroke-width="1.4" /><rect x="755.99" y="382.75" width="6" height="4.21" rx="1.5" fill="#f6465d" /><line x1="769.72" y1="379.94" x2="769.72" y2="403.33" stroke="#f6465d" stroke-width="1.4" /><rect x="766.72" y="386.96" width="6" height="13.10" rx="1.5" fill="#f6465d" /><line x1="780.46" y1="380.41" x2="780.46" y2="411.29" stroke="#0ecb81" stroke-width="1.4" /><rect x="777.46" y="396.32" width="6" height="3.74" rx="1.5" fill="#0ecb81" /><line x1="791.19" y1="390.70" x2="791.19" y2="412.69" stroke="#f6465d" stroke-width="1.4" /><rect x="788.19" y="396.32" width="6" height="11.70" rx="1.5" fill="#f6465d" /><line x1="801.92" y1="404.74" x2="801.92" y2="426.73" stroke="#f6465d" stroke-width="1.4" /><rect x="798.92" y="407.55" width="6" height="10.76" rx="1.5" fill="#f6465d" /><line x1="812.66" y1="416.44" x2="812.66" y2="432.35" stroke="#f6465d" stroke-width="1.4" /><rect x="809.66" y="418.31" width="6" height="3.74" rx="1.5" fill="#f6465d" /><line x1="823.39" y1="418.78" x2="823.39" y2="431.41" stroke="#f6465d" stroke-width="1.4" /><rect x="820.39" y="421.12" width="6" height="2.00" rx="1.5" fill="#f6465d" /><line x1="834.13" y1="413.63" x2="834.13" y2="427.67" stroke="#0ecb81" stroke-width="1.4" /><rect x="831.13" y="416.90" width="6" height="6.08" rx="1.5" fill="#0ecb81" /><line x1="844.86" y1="414.57" x2="844.86" y2="420.18" stroke="#0ecb81" stroke-width="1.4" /><rect x="841.86" y="415.03" width="6" height="2.00" rx="1.5" fill="#0ecb81" /><line x1="855.59" y1="410.35" x2="855.59" y2="429.54" stroke="#f6465d" stroke-width="1.4" /><rect x="852.59" y="415.03" width="6" height="10.76" rx="1.5" fill="#f6465d" /><line x1="866.33" y1="408.95" x2="866.33" y2="425.33" stroke="#0ecb81" stroke-width="1.4" /><rect x="863.33" y="415.50" width="6" height="9.83" rx="1.5" fill="#0ecb81" /><line x1="877.06" y1="408.01" x2="877.06" y2="422.99" stroke="#f6465d" stroke-width="1.4" /><rect x="874.06" y="415.50" width="6" height="7.02" rx="1.5" fill="#f6465d" /><line x1="887.80" y1="420.18" x2="887.80" y2="430.48" stroke="#f6465d" stroke-width="1.4" /><rect x="884.80" y="422.05" width="6" height="7.49" rx="1.5" fill="#f6465d" /><line x1="898.53" y1="426.73" x2="898.53" y2="438.43" stroke="#f6465d" stroke-width="1.4" /><rect x="895.53" y="429.07" width="6" height="6.08" rx="1.5" fill="#f6465d" /><line x1="909.27" y1="433.75" x2="909.27" y2="452.00" stroke="#f6465d" stroke-width="1.4" /><rect x="906.27" y="435.62" width="6" height="2.34" rx="1.5" fill="#f6465d" /><line x1="920.00" y1="432.81" x2="920.00" y2="441.71" stroke="#0ecb81" stroke-width="1.4" /><rect x="917.00" y="438.43" width="6" height="2.00" rx="1.5" fill="#0ecb81" />
  <polyline points="243.75,177.79 383.29,328.00 436.96,245.17 458.43,317.70 522.84,214.29" fill="none" stroke="#2fc273" stroke-width="4" stroke-linecap="round" stroke-linejoin="round" />
  <circle cx="243.75" cy="177.79" r="5.5" fill="#2fc273" fill-opacity="0.15" stroke="#2fc273" stroke-width="2" /><text x="243.75" y="165.79" fill="#f3f4f6" font-size="15" font-weight="700" text-anchor="middle">X</text><circle cx="383.29" cy="328.00" r="5.5" fill="#2fc273" fill-opacity="0.15" stroke="#2fc273" stroke-width="2" /><text x="383.29" y="316.00" fill="#f3f4f6" font-size="15" font-weight="700" text-anchor="middle">A</text><circle cx="436.96" cy="245.17" r="5.5" fill="#2fc273" fill-opacity="0.15" stroke="#2fc273" stroke-width="2" /><text x="436.96" y="233.17" fill="#f3f4f6" font-size="15" font-weight="700" text-anchor="middle">B</text><circle cx="458.43" cy="317.70" r="5.5" fill="#2fc273" fill-opacity="0.15" stroke="#2fc273" stroke-width="2" /><text x="458.43" y="305.70" fill="#f3f4f6" font-size="15" font-weight="700" text-anchor="middle">C</text><circle cx="522.84" cy="214.29" r="5.5" fill="#2fc273" fill-opacity="0.15" stroke="#2fc273" stroke-width="2" /><text x="522.84" y="202.29" fill="#f3f4f6" font-size="15" font-weight="700" text-anchor="middle">D</text>
  <text x="56" y="492" fill="#8ba0b5" font-size="18">일반 완성 · TP1 0.006778 · TP2 0.006725 · SL 0.006904</text>
</svg>
