<svg xmlns="http://www.w3.org/2000/svg" width="960" height="540" viewBox="0 0 960 540">
  <rect width="960" height="540" rx="24" fill="#0b1220" />
  <rect x="28" y="28" width="904" height="484" rx="22" fill="#111827" stroke="#1f2937" />
  <text x="56" y="74" fill="#f3f4f6" font-size="34" font-weight="700">PLAYUSDT · AB=CD</text>
  <text x="904" y="74" fill="#8ba0b5" font-size="20" text-anchor="end">Bearish (매도) · Score 76.5</text>
  <line x1="72" y1="58" x2="920" y2="58" stroke="#223045" stroke-width="1" stroke-dasharray="4 8" /><line x1="72" y1="156" x2="920" y2="156" stroke="#223045" stroke-width="1" stroke-dasharray="4 8" /><line x1="72" y1="255" x2="920" y2="255" stroke="#223045" stroke-width="1" stroke-dasharray="4 8" /><line x1="72" y1="353" x2="920" y2="353" stroke="#223045" stroke-width="1" stroke-dasharray="4 8" /><line x1="72" y1="452" x2="920" y2="452" stroke="#223045" stroke-width="1" stroke-dasharray="4 8" />
  <rect x="419.70" y="-139.31" width="84" height="99.81" fill="#fbbf24" fill-opacity="0.12" stroke="#fbbf24" stroke-width="1.5" stroke-dasharray="6 6" />
  <line x1="72.00" y1="423.58" x2="72.00" y2="425.55" stroke="#f6465d" stroke-width="1.4" /><rect x="69.00" y="423.68" width="6" height="2.00" rx="1.5" fill="#f6465d" /><line x1="82.73" y1="422.02" x2="82.73" y2="425.44" stroke="#f6465d" stroke-width="1.4" /><rect x="79.73" y="424.61" width="6" height="2.00" rx="1.5" fill="#f6465d" /><line x1="93.47" y1="422.95" x2="93.47" y2="432.19" stroke="#f6465d" stroke-width="1.4" /><rect x="90.47" y="424.61" width="6" height="3.11" rx="1.5" fill="#f6465d" /><line x1="104.20" y1="425.03" x2="104.20" y2="429.49" stroke="#f6465d" stroke-width="1.4" /><rect x="101.20" y="427.41" width="6" height="2.00" rx="1.5" fill="#f6465d" /><line x1="114.94" y1="401.48" x2="114.94" y2="432.70" stroke="#0ecb81" stroke-width="1.4" /><rect x="111.94" y="409.78" width="6" height="17.74" rx="1.5" fill="#0ecb81" /><line x1="125.67" y1="406.98" x2="125.67" y2="428.56" stroke="#f6465d" stroke-width="1.4" /><rect x="122.67" y="409.88" width="6" height="18.57" rx="1.5" fill="#f6465d" /><line x1="136.41" y1="424.09" x2="136.41" y2="430.53" stroke="#0ecb81" stroke-width="1.4" /><rect x="133.41" y="427.73" width="6" height="2.00" rx="1.5" fill="#0ecb81" /><line x1="147.14" y1="417.87" x2="147.14" y2="444.43" stroke="#f6465d" stroke-width="1.4" /><rect x="144.14" y="427.73" width="6" height="13.38" rx="1.5" fill="#f6465d" /><line x1="157.87" y1="404.80" x2="157.87" y2="442.46" stroke="#0ecb81" stroke-width="1.4" /><rect x="154.87" y="410.82" width="6" height="30.29" rx="1.5" fill="#0ecb81" /><line x1="168.61" y1="404.18" x2="168.61" y2="452.00" stroke="#f6465d" stroke-width="1.4" /><rect x="165.61" y="411.13" width="6" height="26.97" rx="1.5" fill="#f6465d" /><line x1="179.34" y1="432.81" x2="179.34" y2="440.90" stroke="#0ecb81" stroke-width="1.4" /><rect x="176.34" y="435.92" width="6" height="2.18" rx="1.5" fill="#0ecb81" /><line x1="190.08" y1="423.58" x2="190.08" y2="436.75" stroke="#0ecb81" stroke-width="1.4" /><rect x="187.08" y="425.96" width="6" height="9.65" rx="1.5" fill="#0ecb81" /><line x1="200.81" y1="421.09" x2="200.81" y2="432.29" stroke="#f6465d" stroke-width="1.4" /><rect x="197.81" y="426.17" width="6" height="2.07" rx="1.5" fill="#f6465d" /><line x1="211.54" y1="423.47" x2="211.54" y2="436.23" stroke="#f6465d" stroke-width="1.4" /><rect x="208.54" y="427.93" width="6" height="2.00" rx="1.5" fill="#f6465d" /><line x1="222.28" y1="419.84" x2="222.28" y2="429.59" stroke="#0ecb81" stroke-width="1.4" /><rect x="219.28" y="421.92" width="6" height="6.95" rx="1.5" fill="#0ecb81" /><line x1="233.01" y1="420.15" x2="233.01" y2="426.07" stroke="#f6465d" stroke-width="1.4" /><rect x="230.01" y="421.81" width="6" height="3.11" rx="1.5" fill="#f6465d" /><line x1="243.75" y1="416.83" x2="243.75" y2="435.30" stroke="#0ecb81" stroke-width="1.4" /><rect x="240.75" y="417.77" width="6" height="7.16" rx="1.5" fill="#0ecb81" /><line x1="254.48" y1="411.75" x2="254.48" y2="423.68" stroke="#f6465d" stroke-width="1.4" /><rect x="251.48" y="417.87" width="6" height="4.25" rx="1.5" fill="#f6465d" /><line x1="265.22" y1="401.48" x2="265.22" y2="423.78" stroke="#0ecb81" stroke-width="1.4" /><rect x="262.22" y="404.07" width="6" height="18.26" rx="1.5" fill="#0ecb81" /><line x1="275.95" y1="311.12" x2="275.95" y2="408.74" stroke="#0ecb81" stroke-width="1.4" /><rect x="272.95" y="362.89" width="6" height="41.18" rx="1.5" fill="#0ecb81" /><line x1="286.68" y1="279.69" x2="286.68" y2="390.69" stroke="#0ecb81" stroke-width="1.4" /><rect x="283.68" y="305.00" width="6" height="57.89" rx="1.5" fill="#0ecb81" /><line x1="297.42" y1="254.07" x2="297.42" y2="307.18" stroke="#0ecb81" stroke-width="1.4" /><rect x="294.42" y="261.22" width="6" height="43.36" rx="1.5" fill="#0ecb81" /><line x1="308.15" y1="172.53" x2="308.15" y2="267.76" stroke="#0ecb81" stroke-width="1.4" /><rect x="305.15" y="175.33" width="6" height="85.90" rx="1.5" fill="#0ecb81" /><line x1="318.89" y1="96.28" x2="318.89" y2="182.28" stroke="#0ecb81" stroke-width="1.4" /><rect x="315.89" y="113.29" width="6" height="60.58" rx="1.5" fill="#0ecb81" /><line x1="329.62" y1="85.08" x2="329.62" y2="153.13" stroke="#f6465d" stroke-width="1.4" /><rect x="326.62" y="112.15" width="6" height="5.29" rx="1.5" fill="#f6465d" /><line x1="340.35" y1="117.23" x2="340.35" y2="195.66" stroke="#f6465d" stroke-width="1.4" /><rect x="337.35" y="117.44" width="6" height="54.98" rx="1.5" fill="#f6465d" /><line x1="351.09" y1="151.16" x2="351.09" y2="195.77" stroke="#0ecb81" stroke-width="1.4" /><rect x="348.09" y="161.22" width="6" height="11.83" rx="1.5" fill="#0ecb81" /><line x1="361.82" y1="137.98" x2="361.82" y2="182.90" stroke="#f6465d" stroke-width="1.4" /><rect x="358.82" y="160.81" width="6" height="3.84" rx="1.5" fill="#f6465d" /><line x1="372.56" y1="162.26" x2="372.56" y2="203.86" stroke="#f6465d" stroke-width="1.4" /><rect x="369.56" y="164.64" width="6" height="15.25" rx="1.5" fill="#f6465d" /><line x1="383.29" y1="170.25" x2="383.29" y2="194.42" stroke="#0ecb81" stroke-width="1.4" /><rect x="380.29" y="176.37" width="6" height="3.53" rx="1.5" fill="#0ecb81" /><line x1="394.03" y1="141.82" x2="394.03" y2="227.61" stroke="#0ecb81" stroke-width="1.4" /><rect x="391.03" y="154.37" width="6" height="22.51" rx="1.5" fill="#0ecb81" /><line x1="404.76" y1="141.20" x2="404.76" y2="168.79" stroke="#0ecb81" stroke-width="1.4" /><rect x="401.76" y="152.30" width="6" height="2.00" rx="1.5" fill="#0ecb81" /><line x1="415.49" y1="143.27" x2="415.49" y2="157.28" stroke="#0ecb81" stroke-width="1.4" /><rect x="412.49" y="151.88" width="6" height="2.00" rx="1.5" fill="#0ecb81" /><line x1="426.23" y1="85.91" x2="426.23" y2="151.78" stroke="#0ecb81" stroke-width="1.4" /><rect x="423.23" y="97.32" width="6" height="53.84" rx="1.5" fill="#0ecb81" /><line x1="436.96" y1="73.77" x2="436.96" y2="107.59" stroke="#f6465d" stroke-width="1.4" /><rect x="433.96" y="96.69" width="6" height="2.59" rx="1.5" fill="#f6465d" /><line x1="447.70" y1="58.00" x2="447.70" y2="123.87" stroke="#0ecb81" stroke-width="1.4" /><rect x="444.70" y="94.93" width="6" height="4.15" rx="1.5" fill="#0ecb81" /><line x1="458.43" y1="87.25" x2="458.43" y2="133.83" stroke="#f6465d" stroke-width="1.4" /><rect x="455.43" y="95.45" width="6" height="6.33" rx="1.5" fill="#f6465d" /><line x1="469.16" y1="75.53" x2="469.16" y2="112.57" stroke="#0ecb81" stroke-width="1.4" /><rect x="466.16" y="93.58" width="6" height="8.61" rx="1.5" fill="#0ecb81" /><line x1="479.90" y1="90.57" x2="479.90" y2="111.32" stroke="#f6465d" stroke-width="1.4" /><rect x="476.90" y="93.58" width="6" height="11.00" rx="1.5" fill="#f6465d" /><line x1="490.63" y1="100.84" x2="490.63" y2="121.38" stroke="#f6465d" stroke-width="1.4" /><rect x="487.63" y="104.16" width="6" height="6.33" rx="1.5" fill="#f6465d" /><line x1="501.37" y1="100.64" x2="501.37" y2="140.89" stroke="#f6465d" stroke-width="1.4" /><rect x="498.37" y="110.39" width="6" height="8.61" rx="1.5" fill="#f6465d" /><line x1="512.10" y1="95.03" x2="512.10" y2="137.15" stroke="#f6465d" stroke-width="1.4" /><rect x="509.10" y="119.10" width="6" height="11.83" rx="1.5" fill="#f6465d" /><line x1="522.84" y1="118.48" x2="522.84" y2="155.51" stroke="#f6465d" stroke-width="1.4" /><rect x="519.84" y="131.55" width="6" height="11.72" rx="1.5" fill="#f6465d" /><line x1="533.57" y1="120.66" x2="533.57" y2="161.32" stroke="#0ecb81" stroke-width="1.4" /><rect x="530.57" y="128.54" width="6" height="14.73" rx="1.5" fill="#0ecb81" /><line x1="544.30" y1="91.09" x2="544.30" y2="143.48" stroke="#0ecb81" stroke-width="1.4" /><rect x="541.30" y="112.77" width="6" height="15.56" rx="1.5" fill="#0ecb81" /><line x1="555.04" y1="105.93" x2="555.04" y2="124.50" stroke="#f6465d" stroke-width="1.4" /><rect x="552.04" y="112.26" width="6" height="2.00" rx="1.5" fill="#f6465d" /><line x1="565.77" y1="89.95" x2="565.77" y2="119.93" stroke="#0ecb81" stroke-width="1.4" /><rect x="562.77" y="110.08" width="6" height="3.22" rx="1.5" fill="#0ecb81" /><line x1="576.51" y1="95.76" x2="576.51" y2="119.31" stroke="#0ecb81" stroke-width="1.4" /><rect x="573.51" y="106.96" width="6" height="3.11" rx="1.5" fill="#0ecb81" /><line x1="587.24" y1="105.51" x2="587.24" y2="116.51" stroke="#f6465d" stroke-width="1.4" /><rect x="584.24" y="106.86" width="6" height="3.63" rx="1.5" fill="#f6465d" /><line x1="597.97" y1="99.29" x2="597.97" y2="128.44" stroke="#f6465d" stroke-width="1.4" /><rect x="594.97" y="110.28" width="6" height="16.91" rx="1.5" fill="#f6465d" /><line x1="608.71" y1="121.80" x2="608.71" y2="149.91" stroke="#f6465d" stroke-width="1.4" /><rect x="605.71" y="126.68" width="6" height="4.67" rx="1.5" fill="#f6465d" /><line x1="619.44" y1="124.50" x2="619.44" y2="136.43" stroke="#0ecb81" stroke-width="1.4" /><rect x="616.44" y="130.62" width="6" height="2.00" rx="1.5" fill="#0ecb81" /><line x1="630.18" y1="125.64" x2="630.18" y2="148.46" stroke="#f6465d" stroke-width="1.4" /><rect x="627.18" y="130.72" width="6" height="3.01" rx="1.5" fill="#f6465d" /><line x1="640.91" y1="128.75" x2="640.91" y2="145.87" stroke="#f6465d" stroke-width="1.4" /><rect x="637.91" y="133.83" width="6" height="7.68" rx="1.5" fill="#f6465d" /><line x1="651.65" y1="137.36" x2="651.65" y2="157.90" stroke="#f6465d" stroke-width="1.4" /><rect x="648.65" y="141.51" width="6" height="5.08" rx="1.5" fill="#f6465d" /><line x1="662.38" y1="136.74" x2="662.38" y2="179.17" stroke="#f6465d" stroke-width="1.4" /><rect x="659.38" y="146.39" width="6" height="23.76" rx="1.5" fill="#f6465d" /><line x1="673.11" y1="160.18" x2="673.11" y2="176.88" stroke="#0ecb81" stroke-width="1.4" /><rect x="670.11" y="164.23" width="6" height="6.22" rx="1.5" fill="#0ecb81" /><line x1="683.85" y1="148.25" x2="683.85" y2="171.59" stroke="#f6465d" stroke-width="1.4" /><rect x="680.85" y="163.92" width="6" height="2.00" rx="1.5" fill="#f6465d" /><line x1="694.58" y1="153.96" x2="694.58" y2="166.61" stroke="#0ecb81" stroke-width="1.4" /><rect x="691.58" y="156.76" width="6" height="7.68" rx="1.5" fill="#0ecb81" /><line x1="705.32" y1="152.71" x2="705.32" y2="167.96" stroke="#f6465d" stroke-width="1.4" /><rect x="702.32" y="156.66" width="6" height="2.07" rx="1.5" fill="#f6465d" /><line x1="716.05" y1="154.37" x2="716.05" y2="187.47" stroke="#f6465d" stroke-width="1.4" /><rect x="713.05" y="158.83" width="6" height="23.03" rx="1.5" fill="#f6465d" /><line x1="726.78" y1="176.26" x2="726.78" y2="204.27" stroke="#f6465d" stroke-width="1.4" /><rect x="723.78" y="181.97" width="6" height="8.82" rx="1.5" fill="#f6465d" /><line x1="737.52" y1="175.43" x2="737.52" y2="194.31" stroke="#f6465d" stroke-width="1.4" /><rect x="734.52" y="191.10" width="6" height="2.00" rx="1.5" fill="#f6465d" /><line x1="748.25" y1="182.90" x2="748.25" y2="198.05" stroke="#0ecb81" stroke-width="1.4" /><rect x="745.25" y="188.50" width="6" height="3.63" rx="1.5" fill="#0ecb81" /><line x1="758.99" y1="184.35" x2="758.99" y2="199.81" stroke="#0ecb81" stroke-width="1.4" /><rect x="755.99" y="186.32" width="6" height="2.18" rx="1.5" fill="#0ecb81" /><line x1="769.72" y1="179.89" x2="769.72" y2="190.68" stroke="#0ecb81" stroke-width="1.4" /><rect x="766.72" y="185.08" width="6" height="2.00" rx="1.5" fill="#0ecb81" /><line x1="780.46" y1="181.24" x2="780.46" y2="202.30" stroke="#0ecb81" stroke-width="1.4" /><rect x="777.46" y="184.46" width="6" height="2.00" rx="1.5" fill="#0ecb81" /><line x1="791.19" y1="184.56" x2="791.19" y2="201.47" stroke="#f6465d" stroke-width="1.4" /><rect x="788.19" y="184.56" width="6" height="8.09" rx="1.5" fill="#f6465d" /><line x1="801.92" y1="191.51" x2="801.92" y2="204.89" stroke="#f6465d" stroke-width="1.4" /><rect x="798.92" y="192.96" width="6" height="9.65" rx="1.5" fill="#f6465d" /><line x1="812.66" y1="191.93" x2="812.66" y2="203.13" stroke="#0ecb81" stroke-width="1.4" /><rect x="809.66" y="194.73" width="6" height="7.78" rx="1.5" fill="#0ecb81" /><line x1="823.39" y1="190.16" x2="823.39" y2="205.83" stroke="#f6465d" stroke-width="1.4" /><rect x="820.39" y="194.73" width="6" height="7.88" rx="1.5" fill="#f6465d" /><line x1="834.13" y1="195.04" x2="834.13" y2="203.03" stroke="#0ecb81" stroke-width="1.4" /><rect x="831.13" y="197.74" width="6" height="4.88" rx="1.5" fill="#0ecb81" /><line x1="844.86" y1="193.59" x2="844.86" y2="203.75" stroke="#f6465d" stroke-width="1.4" /><rect x="841.86" y="197.84" width="6" height="3.73" rx="1.5" fill="#f6465d" /><line x1="855.59" y1="192.65" x2="855.59" y2="203.03" stroke="#0ecb81" stroke-width="1.4" /><rect x="852.59" y="194.42" width="6" height="7.26" rx="1.5" fill="#0ecb81" /><line x1="866.33" y1="185.08" x2="866.33" y2="198.98" stroke="#0ecb81" stroke-width="1.4" /><rect x="863.33" y="189.44" width="6" height="4.77" rx="1.5" fill="#0ecb81" /><line x1="877.06" y1="188.71" x2="877.06" y2="219.52" stroke="#f6465d" stroke-width="1.4" /><rect x="874.06" y="189.44" width="6" height="24.38" rx="1.5" fill="#f6465d" /><line x1="887.80" y1="209.46" x2="887.80" y2="225.85" stroke="#f6465d" stroke-width="1.4" /><rect x="884.80" y="214.02" width="6" height="2.00" rx="1.5" fill="#f6465d" /><line x1="898.53" y1="211.01" x2="898.53" y2="223.88" stroke="#f6465d" stroke-width="1.4" /><rect x="895.53" y="215.48" width="6" height="2.00" rx="1.5" fill="#f6465d" /><line x1="909.27" y1="209.87" x2="909.27" y2="218.07" stroke="#0ecb81" stroke-width="1.4" /><rect x="906.27" y="212.16" width="6" height="3.73" rx="1.5" fill="#0ecb81" /><line x1="920.00" y1="210.81" x2="920.00" y2="218.28" stroke="#f6465d" stroke-width="1.4" /><rect x="917.00" y="212.16" width="6" height="3.32" rx="1.5" fill="#f6465d" />
  <polyline points="114.94,401.48 168.61,452.00 329.62,85.08 394.03,227.61 447.70,58.00" fill="none" stroke="#2fc273" stroke-width="4" stroke-linecap="round" stroke-linejoin="round" />
  <circle cx="114.94" cy="401.48" r="5.5" fill="#2fc273" fill-opacity="0.15" stroke="#2fc273" stroke-width="2" /><text x="114.94" y="389.48" fill="#f3f4f6" font-size="15" font-weight="700" text-anchor="middle">X</text><circle cx="168.61" cy="452.00" r="5.5" fill="#2fc273" fill-opacity="0.15" stroke="#2fc273" stroke-width="2" /><text x="168.61" y="440.00" fill="#f3f4f6" font-size="15" font-weight="700" text-anchor="middle">A</text><circle cx="329.62" cy="85.08" r="5.5" fill="#2fc273" fill-opacity="0.15" stroke="#2fc273" stroke-width="2" /><text x="329.62" y="73.08" fill="#f3f4f6" font-size="15" font-weight="700" text-anchor="middle">B</text><circle cx="394.03" cy="227.61" r="5.5" fill="#2fc273" fill-opacity="0.15" stroke="#2fc273" stroke-width="2" /><text x="394.03" y="215.61" fill="#f3f4f6" font-size="15" font-weight="700" text-anchor="middle">C</text><circle cx="447.70" cy="58.00" r="5.5" fill="#2fc273" fill-opacity="0.15" stroke="#2fc273" stroke-width="2" /><text x="447.70" y="46.00" fill="#f3f4f6" font-size="15" font-weight="700" text-anchor="middle">D</text>
  <text x="56" y="492" fill="#8ba0b5" font-size="18">일반 완성 · TP1 0.071234 · TP2 0.067376 · SL 0.078113</text>
</svg>
