<svg xmlns="http://www.w3.org/2000/svg" width="960" height="540" viewBox="0 0 960 540">
  <rect width="960" height="540" rx="24" fill="#0b1220" />
  <rect x="28" y="28" width="904" height="484" rx="22" fill="#111827" stroke="#1f2937" />
  <text x="56" y="74" fill="#f3f4f6" font-size="34" font-weight="700">POWERUSDT · AB=CD</text>
  <text x="904" y="74" fill="#8ba0b5" font-size="20" text-anchor="end">Bullish (매수) · Score 80.3</text>
  <line x1="72" y1="58" x2="920" y2="58" stroke="#223045" stroke-width="1" stroke-dasharray="4 8" /><line x1="72" y1="156" x2="920" y2="156" stroke="#223045" stroke-width="1" stroke-dasharray="4 8" /><line x1="72" y1="255" x2="920" y2="255" stroke="#223045" stroke-width="1" stroke-dasharray="4 8" /><line x1="72" y1="353" x2="920" y2="353" stroke="#223045" stroke-width="1" stroke-dasharray="4 8" /><line x1="72" y1="452" x2="920" y2="452" stroke="#223045" stroke-width="1" stroke-dasharray="4 8" />
  <rect x="516.30" y="528.40" width="84" height="22.38" fill="#fbbf24" fill-opacity="0.12" stroke="#fbbf24" stroke-width="1.5" stroke-dasharray="6 6" />
  <line x1="72.00" y1="105.99" x2="72.00" y2="123.98" stroke="#0ecb81" stroke-width="1.4" /><rect x="69.00" y="115.46" width="6" height="4.42" rx="1.5" fill="#0ecb81" /><line x1="82.73" y1="67.79" x2="82.73" y2="116.09" stroke="#0ecb81" stroke-width="1.4" /><rect x="79.73" y="73.15" width="6" height="42.30" rx="1.5" fill="#0ecb81" /><line x1="93.47" y1="63.05" x2="93.47" y2="91.46" stroke="#0ecb81" stroke-width="1.4" /><rect x="90.47" y="67.79" width="6" height="5.37" rx="1.5" fill="#0ecb81" /><line x1="104.20" y1="58.00" x2="104.20" y2="117.98" stroke="#f6465d" stroke-width="1.4" /><rect x="101.20" y="68.10" width="6" height="31.25" rx="1.5" fill="#f6465d" /><line x1="114.94" y1="98.41" x2="114.94" y2="145.77" stroke="#f6465d" stroke-width="1.4" /><rect x="111.94" y="99.67" width="6" height="23.99" rx="1.5" fill="#f6465d" /><line x1="125.67" y1="123.67" x2="125.67" y2="171.02" stroke="#f6465d" stroke-width="1.4" /><rect x="122.67" y="123.67" width="6" height="39.15" rx="1.5" fill="#f6465d" /><line x1="136.41" y1="159.66" x2="136.41" y2="280.57" stroke="#f6465d" stroke-width="1.4" /><rect x="133.41" y="161.87" width="6" height="58.41" rx="1.5" fill="#f6465d" /><line x1="147.14" y1="132.19" x2="147.14" y2="249.00" stroke="#0ecb81" stroke-width="1.4" /><rect x="144.14" y="188.07" width="6" height="32.52" rx="1.5" fill="#0ecb81" /><line x1="157.87" y1="189.65" x2="157.87" y2="277.42" stroke="#f6465d" stroke-width="1.4" /><rect x="154.87" y="190.91" width="6" height="30.31" rx="1.5" fill="#f6465d" /><line x1="168.61" y1="208.28" x2="168.61" y2="226.59" stroke="#0ecb81" stroke-width="1.4" /><rect x="165.61" y="218.69" width="6" height="2.53" rx="1.5" fill="#0ecb81" /><line x1="179.34" y1="213.33" x2="179.34" y2="236.37" stroke="#f6465d" stroke-width="1.4" /><rect x="176.34" y="219.01" width="6" height="17.05" rx="1.5" fill="#f6465d" /><line x1="190.08" y1="225.96" x2="190.08" y2="246.79" stroke="#f6465d" stroke-width="1.4" /><rect x="187.08" y="236.37" width="6" height="3.47" rx="1.5" fill="#f6465d" /><line x1="200.81" y1="195.65" x2="200.81" y2="263.84" stroke="#0ecb81" stroke-width="1.4" /><rect x="197.81" y="231.32" width="6" height="8.52" rx="1.5" fill="#0ecb81" /><line x1="211.54" y1="222.80" x2="211.54" y2="274.57" stroke="#f6465d" stroke-width="1.4" /><rect x="208.54" y="231.32" width="6" height="35.99" rx="1.5" fill="#f6465d" /><line x1="222.28" y1="255.00" x2="222.28" y2="274.57" stroke="#0ecb81" stroke-width="1.4" /><rect x="219.28" y="260.05" width="6" height="7.58" rx="1.5" fill="#0ecb81" /><line x1="233.01" y1="233.53" x2="233.01" y2="263.21" stroke="#0ecb81" stroke-width="1.4" /><rect x="230.01" y="258.79" width="6" height="2.00" rx="1.5" fill="#0ecb81" /><line x1="243.75" y1="254.05" x2="243.75" y2="272.68" stroke="#f6465d" stroke-width="1.4" /><rect x="240.75" y="257.53" width="6" height="11.05" rx="1.5" fill="#f6465d" /><line x1="254.48" y1="254.37" x2="254.48" y2="286.57" stroke="#f6465d" stroke-width="1.4" /><rect x="251.48" y="268.58" width="6" height="2.00" rx="1.5" fill="#f6465d" /><line x1="265.22" y1="256.89" x2="265.22" y2="270.47" stroke="#0ecb81" stroke-width="1.4" /><rect x="262.22" y="264.16" width="6" height="4.74" rx="1.5" fill="#0ecb81" /><line x1="275.95" y1="248.69" x2="275.95" y2="265.10" stroke="#0ecb81" stroke-width="1.4" /><rect x="272.95" y="259.74" width="6" height="4.42" rx="1.5" fill="#0ecb81" /><line x1="286.68" y1="249.63" x2="286.68" y2="260.05" stroke="#0ecb81" stroke-width="1.4" /><rect x="283.68" y="259.10" width="6" height="2.00" rx="1.5" fill="#0ecb81" /><line x1="297.42" y1="251.21" x2="297.42" y2="269.21" stroke="#f6465d" stroke-width="1.4" /><rect x="294.42" y="259.42" width="6" height="5.68" rx="1.5" fill="#f6465d" /><line x1="308.15" y1="258.16" x2="308.15" y2="282.15" stroke="#f6465d" stroke-width="1.4" /><rect x="305.15" y="264.79" width="6" height="9.79" rx="1.5" fill="#f6465d" /><line x1="318.89" y1="269.52" x2="318.89" y2="284.99" stroke="#f6465d" stroke-width="1.4" /><rect x="315.89" y="274.57" width="6" height="8.52" rx="1.5" fill="#f6465d" /><line x1="329.62" y1="278.99" x2="329.62" y2="371.50" stroke="#f6465d" stroke-width="1.4" /><rect x="326.62" y="282.78" width="6" height="31.57" rx="1.5" fill="#f6465d" /><line x1="340.35" y1="309.30" x2="340.35" y2="326.03" stroke="#0ecb81" stroke-width="1.4" /><rect x="337.35" y="309.93" width="6" height="4.10" rx="1.5" fill="#0ecb81" /><line x1="351.09" y1="299.20" x2="351.09" y2="313.72" stroke="#0ecb81" stroke-width="1.4" /><rect x="348.09" y="305.20" width="6" height="4.42" rx="1.5" fill="#0ecb81" /><line x1="361.82" y1="298.88" x2="361.82" y2="315.62" stroke="#f6465d" stroke-width="1.4" /><rect x="358.82" y="304.88" width="6" height="2.21" rx="1.5" fill="#f6465d" /><line x1="372.56" y1="306.46" x2="372.56" y2="335.19" stroke="#f6465d" stroke-width="1.4" /><rect x="369.56" y="306.78" width="6" height="23.99" rx="1.5" fill="#f6465d" /><line x1="383.29" y1="308.35" x2="383.29" y2="330.77" stroke="#0ecb81" stroke-width="1.4" /><rect x="380.29" y="320.04" width="6" height="10.42" rx="1.5" fill="#0ecb81" /><line x1="394.03" y1="313.72" x2="394.03" y2="335.82" stroke="#f6465d" stroke-width="1.4" /><rect x="391.03" y="320.04" width="6" height="2.84" rx="1.5" fill="#f6465d" /><line x1="404.76" y1="319.09" x2="404.76" y2="447.58" stroke="#f6465d" stroke-width="1.4" /><rect x="401.76" y="323.51" width="6" height="62.51" rx="1.5" fill="#f6465d" /><line x1="415.49" y1="374.34" x2="415.49" y2="398.01" stroke="#0ecb81" stroke-width="1.4" /><rect x="412.49" y="374.34" width="6" height="11.68" rx="1.5" fill="#0ecb81" /><line x1="426.23" y1="353.18" x2="426.23" y2="379.39" stroke="#0ecb81" stroke-width="1.4" /><rect x="423.23" y="353.50" width="6" height="20.21" rx="1.5" fill="#0ecb81" /><line x1="436.96" y1="338.98" x2="436.96" y2="363.60" stroke="#0ecb81" stroke-width="1.4" /><rect x="433.96" y="344.66" width="6" height="8.52" rx="1.5" fill="#0ecb81" /><line x1="447.70" y1="329.51" x2="447.70" y2="348.13" stroke="#0ecb81" stroke-width="1.4" /><rect x="444.70" y="338.03" width="6" height="6.31" rx="1.5" fill="#0ecb81" /><line x1="458.43" y1="334.56" x2="458.43" y2="345.61" stroke="#0ecb81" stroke-width="1.4" /><rect x="455.43" y="336.45" width="6" height="2.00" rx="1.5" fill="#0ecb81" /><line x1="469.16" y1="329.82" x2="469.16" y2="350.34" stroke="#f6465d" stroke-width="1.4" /><rect x="466.16" y="336.77" width="6" height="6.31" rx="1.5" fill="#f6465d" /><line x1="479.90" y1="343.08" x2="479.90" y2="368.97" stroke="#f6465d" stroke-width="1.4" /><rect x="476.90" y="343.40" width="6" height="21.47" rx="1.5" fill="#f6465d" /><line x1="490.63" y1="356.66" x2="490.63" y2="370.23" stroke="#0ecb81" stroke-width="1.4" /><rect x="487.63" y="361.39" width="6" height="3.16" rx="1.5" fill="#0ecb81" /><line x1="501.37" y1="344.66" x2="501.37" y2="365.50" stroke="#0ecb81" stroke-width="1.4" /><rect x="498.37" y="353.82" width="6" height="7.89" rx="1.5" fill="#0ecb81" /><line x1="512.10" y1="343.71" x2="512.10" y2="356.03" stroke="#0ecb81" stroke-width="1.4" /><rect x="509.10" y="345.92" width="6" height="7.89" rx="1.5" fill="#0ecb81" /><line x1="522.84" y1="344.03" x2="522.84" y2="352.55" stroke="#f6465d" stroke-width="1.4" /><rect x="519.84" y="346.24" width="6" height="5.68" rx="1.5" fill="#f6465d" /><line x1="533.57" y1="351.61" x2="533.57" y2="366.76" stroke="#f6465d" stroke-width="1.4" /><rect x="530.57" y="351.92" width="6" height="9.47" rx="1.5" fill="#f6465d" /><line x1="544.30" y1="360.45" x2="544.30" y2="452.00" stroke="#f6465d" stroke-width="1.4" /><rect x="541.30" y="362.02" width="6" height="23.68" rx="1.5" fill="#f6465d" /><line x1="555.04" y1="379.07" x2="555.04" y2="431.79" stroke="#f6465d" stroke-width="1.4" /><rect x="552.04" y="386.02" width="6" height="13.89" rx="1.5" fill="#f6465d" /><line x1="565.77" y1="382.54" x2="565.77" y2="407.80" stroke="#0ecb81" stroke-width="1.4" /><rect x="562.77" y="386.96" width="6" height="13.26" rx="1.5" fill="#0ecb81" /><line x1="576.51" y1="381.28" x2="576.51" y2="394.86" stroke="#f6465d" stroke-width="1.4" /><rect x="573.51" y="387.28" width="6" height="2.00" rx="1.5" fill="#f6465d" /><line x1="587.24" y1="388.54" x2="587.24" y2="411.59" stroke="#f6465d" stroke-width="1.4" /><rect x="584.24" y="388.54" width="6" height="16.10" rx="1.5" fill="#f6465d" /><line x1="597.97" y1="399.28" x2="597.97" y2="410.01" stroke="#0ecb81" stroke-width="1.4" /><rect x="594.97" y="402.75" width="6" height="2.00" rx="1.5" fill="#0ecb81" /><line x1="608.71" y1="390.12" x2="608.71" y2="417.59" stroke="#f6465d" stroke-width="1.4" /><rect x="605.71" y="403.07" width="6" height="4.74" rx="1.5" fill="#f6465d" /><line x1="619.44" y1="384.12" x2="619.44" y2="411.27" stroke="#0ecb81" stroke-width="1.4" /><rect x="616.44" y="391.70" width="6" height="16.10" rx="1.5" fill="#0ecb81" /><line x1="630.18" y1="385.07" x2="630.18" y2="396.12" stroke="#0ecb81" stroke-width="1.4" /><rect x="627.18" y="387.28" width="6" height="4.74" rx="1.5" fill="#0ecb81" /><line x1="640.91" y1="386.33" x2="640.91" y2="396.12" stroke="#f6465d" stroke-width="1.4" /><rect x="637.91" y="387.60" width="6" height="2.00" rx="1.5" fill="#f6465d" /><line x1="651.65" y1="378.13" x2="651.65" y2="389.49" stroke="#0ecb81" stroke-width="1.4" /><rect x="648.65" y="385.39" width="6" height="3.47" rx="1.5" fill="#0ecb81" /><line x1="662.38" y1="381.28" x2="662.38" y2="393.28" stroke="#f6465d" stroke-width="1.4" /><rect x="659.38" y="385.07" width="6" height="3.79" rx="1.5" fill="#f6465d" /><line x1="673.11" y1="378.13" x2="673.11" y2="390.44" stroke="#0ecb81" stroke-width="1.4" /><rect x="670.11" y="379.07" width="6" height="10.10" rx="1.5" fill="#0ecb81" /><line x1="683.85" y1="362.02" x2="683.85" y2="381.60" stroke="#0ecb81" stroke-width="1.4" /><rect x="680.85" y="368.65" width="6" height="10.73" rx="1.5" fill="#0ecb81" /><line x1="694.58" y1="363.92" x2="694.58" y2="380.02" stroke="#f6465d" stroke-width="1.4" /><rect x="691.58" y="368.65" width="6" height="7.26" rx="1.5" fill="#f6465d" /><line x1="705.32" y1="369.29" x2="705.32" y2="396.75" stroke="#f6465d" stroke-width="1.4" /><rect x="702.32" y="375.60" width="6" height="18.63" rx="1.5" fill="#f6465d" /><line x1="716.05" y1="358.24" x2="716.05" y2="400.86" stroke="#f6465d" stroke-width="1.4" /><rect x="713.05" y="394.54" width="6" height="2.00" rx="1.5" fill="#f6465d" /><line x1="726.78" y1="394.86" x2="726.78" y2="413.80" stroke="#f6465d" stroke-width="1.4" /><rect x="723.78" y="396.75" width="6" height="2.00" rx="1.5" fill="#f6465d" /><line x1="737.52" y1="390.12" x2="737.52" y2="410.33" stroke="#0ecb81" stroke-width="1.4" /><rect x="734.52" y="396.44" width="6" height="2.00" rx="1.5" fill="#0ecb81" /><line x1="748.25" y1="387.60" x2="748.25" y2="396.12" stroke="#0ecb81" stroke-width="1.4" /><rect x="745.25" y="392.02" width="6" height="4.10" rx="1.5" fill="#0ecb81" /><line x1="758.99" y1="390.75" x2="758.99" y2="400.22" stroke="#f6465d" stroke-width="1.4" /><rect x="755.99" y="392.02" width="6" height="3.16" rx="1.5" fill="#f6465d" /><line x1="769.72" y1="390.12" x2="769.72" y2="401.17" stroke="#0ecb81" stroke-width="1.4" /><rect x="766.72" y="392.96" width="6" height="2.21" rx="1.5" fill="#0ecb81" /><line x1="780.46" y1="389.17" x2="780.46" y2="402.75" stroke="#f6465d" stroke-width="1.4" /><rect x="777.46" y="393.28" width="6" height="9.47" rx="1.5" fill="#f6465d" /><line x1="791.19" y1="402.75" x2="791.19" y2="418.54" stroke="#f6465d" stroke-width="1.4" /><rect x="788.19" y="402.75" width="6" height="8.52" rx="1.5" fill="#f6465d" /><line x1="801.92" y1="400.86" x2="801.92" y2="418.54" stroke="#0ecb81" stroke-width="1.4" /><rect x="798.92" y="405.59" width="6" height="6.00" rx="1.5" fill="#0ecb81" /><line x1="812.66" y1="398.33" x2="812.66" y2="410.01" stroke="#0ecb81" stroke-width="1.4" /><rect x="809.66" y="403.70" width="6" height="2.00" rx="1.5" fill="#0ecb81" /><line x1="823.39" y1="400.22" x2="823.39" y2="411.59" stroke="#f6465d" stroke-width="1.4" /><rect x="820.39" y="403.70" width="6" height="2.00" rx="1.5" fill="#f6465d" /><line x1="834.13" y1="400.22" x2="834.13" y2="410.01" stroke="#f6465d" stroke-width="1.4" /><rect x="831.13" y="404.64" width="6" height="5.05" rx="1.5" fill="#f6465d" /><line x1="844.86" y1="403.70" x2="844.86" y2="416.96" stroke="#0ecb81" stroke-width="1.4" /><rect x="841.86" y="405.59" width="6" height="4.42" rx="1.5" fill="#0ecb81" /><line x1="855.59" y1="405.91" x2="855.59" y2="413.48" stroke="#f6465d" stroke-width="1.4" /><rect x="852.59" y="406.22" width="6" height="5.68" rx="1.5" fill="#f6465d" /><line x1="866.33" y1="412.22" x2="866.33" y2="434.64" stroke="#f6465d" stroke-width="1.4" /><rect x="863.33" y="412.54" width="6" height="2.00" rx="1.5" fill="#f6465d" /><line x1="877.06" y1="404.33" x2="877.06" y2="418.54" stroke="#f6465d" stroke-width="1.4" /><rect x="874.06" y="413.17" width="6" height="2.00" rx="1.5" fill="#f6465d" /><line x1="887.80" y1="412.22" x2="887.80" y2="420.11" stroke="#f6465d" stroke-width="1.4" /><rect x="884.80" y="414.75" width="6" height="4.74" rx="1.5" fill="#f6465d" /><line x1="898.53" y1="416.33" x2="898.53" y2="428.95" stroke="#f6465d" stroke-width="1.4" /><rect x="895.53" y="419.48" width="6" height="8.21" rx="1.5" fill="#f6465d" /><line x1="909.27" y1="417.90" x2="909.27" y2="429.90" stroke="#0ecb81" stroke-width="1.4" /><rect x="906.27" y="418.54" width="6" height="8.84" rx="1.5" fill="#0ecb81" /><line x1="920.00" y1="416.96" x2="920.00" y2="429.58" stroke="#f6465d" stroke-width="1.4" /><rect x="917.00" y="418.85" width="6" height="4.10" rx="1.5" fill="#f6465d" />
  <polyline points="254.48,286.57 275.95,248.69 404.76,447.58 447.70,329.51 544.30,452.00" fill="none" stroke="#2fc273" stroke-width="4" stroke-linecap="round" stroke-linejoin="round" />
  <circle cx="254.48" cy="286.57" r="5.5" fill="#2fc273" fill-opacity="0.15" stroke="#2fc273" stroke-width="2" /><text x="254.48" y="274.57" fill="#f3f4f6" font-size="15" font-weight="700" text-anchor="middle">X</text><circle cx="275.95" cy="248.69" r="5.5" fill="#2fc273" fill-opacity="0.15" stroke="#2fc273" stroke-width="2" /><text x="275.95" y="236.69" fill="#f3f4f6" font-size="15" font-weight="700" text-anchor="middle">A</text><circle cx="404.76" cy="447.58" r="5.5" fill="#2fc273" fill-opacity="0.15" stroke="#2fc273" stroke-width="2" /><text x="404.76" y="435.58" fill="#f3f4f6" font-size="15" font-weight="700" text-anchor="middle">B</text><circle cx="447.70" cy="329.51" r="5.5" fill="#2fc273" fill-opacity="0.15" stroke="#2fc273" stroke-width="2" /><text x="447.70" y="317.51" fill="#f3f4f6" font-size="15" font-weight="700" text-anchor="middle">C</text><circle cx="544.30" cy="452.00" r="5.5" fill="#2fc273" fill-opacity="0.15" stroke="#2fc273" stroke-width="2" /><text x="544.30" y="440.00" fill="#f3f4f6" font-size="15" font-weight="700" text-anchor="middle">D</text>
  <text x="56" y="492" fill="#8ba0b5" font-size="18">일반 완성 · TP1 0.086482 · TP2 0.087398 · SL 0.084844</text>
</svg>
