<svg xmlns="http://www.w3.org/2000/svg" width="960" height="540" viewBox="0 0 960 540">
  <rect width="960" height="540" rx="24" fill="#0b1220" />
  <rect x="28" y="28" width="904" height="484" rx="22" fill="#111827" stroke="#1f2937" />
  <text x="56" y="74" fill="#f3f4f6" font-size="34" font-weight="700">PUFFERUSDT · AB=CD</text>
  <text x="904" y="74" fill="#8ba0b5" font-size="20" text-anchor="end">Bearish (매도) · Score 85.0</text>
  <line x1="72" y1="58" x2="920" y2="58" stroke="#223045" stroke-width="1" stroke-dasharray="4 8" /><line x1="72" y1="156" x2="920" y2="156" stroke="#223045" stroke-width="1" stroke-dasharray="4 8" /><line x1="72" y1="255" x2="920" y2="255" stroke="#223045" stroke-width="1" stroke-dasharray="4 8" /><line x1="72" y1="353" x2="920" y2="353" stroke="#223045" stroke-width="1" stroke-dasharray="4 8" /><line x1="72" y1="452" x2="920" y2="452" stroke="#223045" stroke-width="1" stroke-dasharray="4 8" />
  <rect x="247.95" y="9.95" width="84" height="23.67" fill="#fbbf24" fill-opacity="0.12" stroke="#fbbf24" stroke-width="1.5" stroke-dasharray="6 6" />
  <line x1="72.00" y1="200.34" x2="72.00" y2="228.65" stroke="#0ecb81" stroke-width="1.4" /><rect x="69.00" y="207.42" width="6" height="12.58" rx="1.5" fill="#0ecb81" /><line x1="82.73" y1="194.05" x2="82.73" y2="217.64" stroke="#0ecb81" stroke-width="1.4" /><rect x="79.73" y="200.34" width="6" height="9.44" rx="1.5" fill="#0ecb81" /><line x1="93.47" y1="160.24" x2="93.47" y2="205.06" stroke="#0ecb81" stroke-width="1.4" /><rect x="90.47" y="179.11" width="6" height="22.02" rx="1.5" fill="#0ecb81" /><line x1="104.20" y1="131.14" x2="104.20" y2="191.69" stroke="#0ecb81" stroke-width="1.4" /><rect x="101.20" y="143.72" width="6" height="33.82" rx="1.5" fill="#0ecb81" /><line x1="114.94" y1="107.54" x2="114.94" y2="146.87" stroke="#0ecb81" stroke-width="1.4" /><rect x="111.94" y="127.21" width="6" height="18.09" rx="1.5" fill="#0ecb81" /><line x1="125.67" y1="114.62" x2="125.67" y2="137.43" stroke="#f6465d" stroke-width="1.4" /><rect x="122.67" y="126.42" width="6" height="3.93" rx="1.5" fill="#f6465d" /><line x1="136.41" y1="127.99" x2="136.41" y2="163.38" stroke="#f6465d" stroke-width="1.4" /><rect x="133.41" y="131.14" width="6" height="30.67" rx="1.5" fill="#f6465d" /><line x1="147.14" y1="141.36" x2="147.14" y2="191.69" stroke="#f6465d" stroke-width="1.4" /><rect x="144.14" y="161.81" width="6" height="6.29" rx="1.5" fill="#f6465d" /><line x1="157.87" y1="126.42" x2="157.87" y2="182.26" stroke="#0ecb81" stroke-width="1.4" /><rect x="154.87" y="151.58" width="6" height="16.51" rx="1.5" fill="#0ecb81" /><line x1="168.61" y1="153.94" x2="168.61" y2="189.33" stroke="#f6465d" stroke-width="1.4" /><rect x="165.61" y="153.94" width="6" height="29.88" rx="1.5" fill="#f6465d" /><line x1="179.34" y1="172.03" x2="179.34" y2="196.41" stroke="#f6465d" stroke-width="1.4" /><rect x="176.34" y="183.04" width="6" height="11.01" rx="1.5" fill="#f6465d" /><line x1="190.08" y1="190.91" x2="190.08" y2="219.22" stroke="#f6465d" stroke-width="1.4" /><rect x="187.08" y="194.84" width="6" height="20.45" rx="1.5" fill="#f6465d" /><line x1="200.81" y1="190.91" x2="200.81" y2="219.22" stroke="#0ecb81" stroke-width="1.4" /><rect x="197.81" y="201.92" width="6" height="12.58" rx="1.5" fill="#0ecb81" /><line x1="211.54" y1="194.84" x2="211.54" y2="211.35" stroke="#f6465d" stroke-width="1.4" /><rect x="208.54" y="201.92" width="6" height="3.15" rx="1.5" fill="#f6465d" /><line x1="222.28" y1="183.83" x2="222.28" y2="217.64" stroke="#0ecb81" stroke-width="1.4" /><rect x="219.28" y="184.61" width="6" height="19.66" rx="1.5" fill="#0ecb81" /><line x1="233.01" y1="168.89" x2="233.01" y2="187.76" stroke="#0ecb81" stroke-width="1.4" /><rect x="230.01" y="170.46" width="6" height="14.16" rx="1.5" fill="#0ecb81" /><line x1="243.75" y1="124.06" x2="243.75" y2="172.82" stroke="#0ecb81" stroke-width="1.4" /><rect x="240.75" y="139.79" width="6" height="32.24" rx="1.5" fill="#0ecb81" /><line x1="254.48" y1="127.99" x2="254.48" y2="160.24" stroke="#0ecb81" stroke-width="1.4" /><rect x="251.48" y="136.64" width="6" height="2.36" rx="1.5" fill="#0ecb81" /><line x1="265.22" y1="132.71" x2="265.22" y2="152.37" stroke="#f6465d" stroke-width="1.4" /><rect x="262.22" y="136.64" width="6" height="3.93" rx="1.5" fill="#f6465d" /><line x1="275.95" y1="58.00" x2="275.95" y2="166.53" stroke="#f6465d" stroke-width="1.4" /><rect x="272.95" y="141.36" width="6" height="16.51" rx="1.5" fill="#f6465d" /><line x1="286.68" y1="154.73" x2="286.68" y2="192.48" stroke="#f6465d" stroke-width="1.4" /><rect x="283.68" y="157.09" width="6" height="19.66" rx="1.5" fill="#f6465d" /><line x1="297.42" y1="175.96" x2="297.42" y2="231.01" stroke="#f6465d" stroke-width="1.4" /><rect x="294.42" y="176.75" width="6" height="38.53" rx="1.5" fill="#f6465d" /><line x1="308.15" y1="202.70" x2="308.15" y2="224.72" stroke="#0ecb81" stroke-width="1.4" /><rect x="305.15" y="215.29" width="6" height="2.00" rx="1.5" fill="#0ecb81" /><line x1="318.89" y1="198.77" x2="318.89" y2="215.29" stroke="#0ecb81" stroke-width="1.4" /><rect x="315.89" y="212.93" width="6" height="2.00" rx="1.5" fill="#0ecb81" /><line x1="329.62" y1="211.35" x2="329.62" y2="245.17" stroke="#f6465d" stroke-width="1.4" /><rect x="326.62" y="212.93" width="6" height="25.95" rx="1.5" fill="#f6465d" /><line x1="340.35" y1="225.51" x2="340.35" y2="260.90" stroke="#f6465d" stroke-width="1.4" /><rect x="337.35" y="238.88" width="6" height="14.16" rx="1.5" fill="#f6465d" /><line x1="351.09" y1="236.52" x2="351.09" y2="253.03" stroke="#0ecb81" stroke-width="1.4" /><rect x="348.09" y="245.17" width="6" height="7.08" rx="1.5" fill="#0ecb81" /><line x1="361.82" y1="234.95" x2="361.82" y2="259.33" stroke="#f6465d" stroke-width="1.4" /><rect x="358.82" y="245.17" width="6" height="5.50" rx="1.5" fill="#f6465d" /><line x1="372.56" y1="249.10" x2="372.56" y2="298.65" stroke="#f6465d" stroke-width="1.4" /><rect x="369.56" y="251.46" width="6" height="44.04" rx="1.5" fill="#f6465d" /><line x1="383.29" y1="285.28" x2="383.29" y2="325.39" stroke="#0ecb81" stroke-width="1.4" /><rect x="380.29" y="291.57" width="6" height="2.36" rx="1.5" fill="#0ecb81" /><line x1="394.03" y1="269.55" x2="394.03" y2="294.71" stroke="#0ecb81" stroke-width="1.4" /><rect x="391.03" y="278.99" width="6" height="12.58" rx="1.5" fill="#0ecb81" /><line x1="404.76" y1="271.12" x2="404.76" y2="291.57" stroke="#0ecb81" stroke-width="1.4" /><rect x="401.76" y="276.63" width="6" height="3.93" rx="1.5" fill="#0ecb81" /><line x1="415.49" y1="275.84" x2="415.49" y2="311.23" stroke="#f6465d" stroke-width="1.4" /><rect x="412.49" y="276.63" width="6" height="18.87" rx="1.5" fill="#f6465d" /><line x1="426.23" y1="283.70" x2="426.23" y2="298.65" stroke="#0ecb81" stroke-width="1.4" /><rect x="423.23" y="290.78" width="6" height="3.93" rx="1.5" fill="#0ecb81" /><line x1="436.96" y1="282.13" x2="436.96" y2="293.93" stroke="#0ecb81" stroke-width="1.4" /><rect x="433.96" y="286.85" width="6" height="2.36" rx="1.5" fill="#0ecb81" /><line x1="447.70" y1="286.85" x2="447.70" y2="317.52" stroke="#f6465d" stroke-width="1.4" /><rect x="444.70" y="288.42" width="6" height="20.45" rx="1.5" fill="#f6465d" /><line x1="458.43" y1="307.30" x2="458.43" y2="330.89" stroke="#f6465d" stroke-width="1.4" /><rect x="455.43" y="309.66" width="6" height="11.80" rx="1.5" fill="#f6465d" /><line x1="469.16" y1="295.50" x2="469.16" y2="343.47" stroke="#f6465d" stroke-width="1.4" /><rect x="466.16" y="322.24" width="6" height="14.94" rx="1.5" fill="#f6465d" /><line x1="479.90" y1="319.09" x2="479.90" y2="343.47" stroke="#0ecb81" stroke-width="1.4" /><rect x="476.90" y="322.24" width="6" height="14.94" rx="1.5" fill="#0ecb81" /><line x1="490.63" y1="307.30" x2="490.63" y2="344.26" stroke="#0ecb81" stroke-width="1.4" /><rect x="487.63" y="311.23" width="6" height="12.58" rx="1.5" fill="#0ecb81" /><line x1="501.37" y1="300.22" x2="501.37" y2="330.89" stroke="#f6465d" stroke-width="1.4" /><rect x="498.37" y="311.23" width="6" height="18.87" rx="1.5" fill="#f6465d" /><line x1="512.10" y1="314.38" x2="512.10" y2="333.25" stroke="#0ecb81" stroke-width="1.4" /><rect x="509.10" y="325.39" width="6" height="5.50" rx="1.5" fill="#0ecb81" /><line x1="522.84" y1="299.43" x2="522.84" y2="337.97" stroke="#f6465d" stroke-width="1.4" /><rect x="519.84" y="326.17" width="6" height="3.15" rx="1.5" fill="#f6465d" /><line x1="533.57" y1="300.22" x2="533.57" y2="330.89" stroke="#0ecb81" stroke-width="1.4" /><rect x="530.57" y="303.37" width="6" height="26.74" rx="1.5" fill="#0ecb81" /><line x1="544.30" y1="269.55" x2="544.30" y2="315.95" stroke="#0ecb81" stroke-width="1.4" /><rect x="541.30" y="279.77" width="6" height="23.59" rx="1.5" fill="#0ecb81" /><line x1="555.04" y1="273.48" x2="555.04" y2="300.22" stroke="#0ecb81" stroke-width="1.4" /><rect x="552.04" y="276.63" width="6" height="3.93" rx="1.5" fill="#0ecb81" /><line x1="565.77" y1="271.12" x2="565.77" y2="293.93" stroke="#f6465d" stroke-width="1.4" /><rect x="562.77" y="278.99" width="6" height="5.50" rx="1.5" fill="#f6465d" /><line x1="576.51" y1="275.05" x2="576.51" y2="300.22" stroke="#f6465d" stroke-width="1.4" /><rect x="573.51" y="284.49" width="6" height="7.08" rx="1.5" fill="#f6465d" /><line x1="587.24" y1="272.69" x2="587.24" y2="299.43" stroke="#0ecb81" stroke-width="1.4" /><rect x="584.24" y="275.05" width="6" height="17.30" rx="1.5" fill="#0ecb81" /><line x1="597.97" y1="259.33" x2="597.97" y2="283.70" stroke="#0ecb81" stroke-width="1.4" /><rect x="594.97" y="264.04" width="6" height="12.58" rx="1.5" fill="#0ecb81" /><line x1="608.71" y1="233.37" x2="608.71" y2="270.34" stroke="#0ecb81" stroke-width="1.4" /><rect x="605.71" y="244.38" width="6" height="20.45" rx="1.5" fill="#0ecb81" /><line x1="619.44" y1="240.45" x2="619.44" y2="256.18" stroke="#f6465d" stroke-width="1.4" /><rect x="616.44" y="245.96" width="6" height="5.50" rx="1.5" fill="#f6465d" /><line x1="630.18" y1="238.88" x2="630.18" y2="260.11" stroke="#f6465d" stroke-width="1.4" /><rect x="627.18" y="252.25" width="6" height="2.00" rx="1.5" fill="#f6465d" /><line x1="640.91" y1="245.17" x2="640.91" y2="275.84" stroke="#f6465d" stroke-width="1.4" /><rect x="637.91" y="252.25" width="6" height="16.51" rx="1.5" fill="#f6465d" /><line x1="651.65" y1="249.89" x2="651.65" y2="270.34" stroke="#0ecb81" stroke-width="1.4" /><rect x="648.65" y="258.54" width="6" height="9.44" rx="1.5" fill="#0ecb81" /><line x1="662.38" y1="253.03" x2="662.38" y2="284.49" stroke="#f6465d" stroke-width="1.4" /><rect x="659.38" y="259.33" width="6" height="21.23" rx="1.5" fill="#f6465d" /><line x1="673.11" y1="249.10" x2="673.11" y2="282.13" stroke="#0ecb81" stroke-width="1.4" /><rect x="670.11" y="252.25" width="6" height="25.95" rx="1.5" fill="#0ecb81" /><line x1="683.85" y1="242.02" x2="683.85" y2="282.13" stroke="#f6465d" stroke-width="1.4" /><rect x="680.85" y="254.61" width="6" height="19.66" rx="1.5" fill="#f6465d" /><line x1="694.58" y1="256.97" x2="694.58" y2="279.77" stroke="#0ecb81" stroke-width="1.4" /><rect x="691.58" y="265.62" width="6" height="7.86" rx="1.5" fill="#0ecb81" /><line x1="705.32" y1="258.54" x2="705.32" y2="278.20" stroke="#f6465d" stroke-width="1.4" /><rect x="702.32" y="262.47" width="6" height="12.58" rx="1.5" fill="#f6465d" /><line x1="716.05" y1="269.55" x2="716.05" y2="284.49" stroke="#f6465d" stroke-width="1.4" /><rect x="713.05" y="275.05" width="6" height="2.00" rx="1.5" fill="#f6465d" /><line x1="726.78" y1="264.04" x2="726.78" y2="281.35" stroke="#0ecb81" stroke-width="1.4" /><rect x="723.78" y="272.69" width="6" height="3.15" rx="1.5" fill="#0ecb81" /><line x1="737.52" y1="267.98" x2="737.52" y2="307.30" stroke="#f6465d" stroke-width="1.4" /><rect x="734.52" y="271.91" width="6" height="25.95" rx="1.5" fill="#f6465d" /><line x1="748.25" y1="288.42" x2="748.25" y2="310.44" stroke="#f6465d" stroke-width="1.4" /><rect x="745.25" y="296.29" width="6" height="2.00" rx="1.5" fill="#f6465d" /><line x1="758.99" y1="294.71" x2="758.99" y2="318.31" stroke="#f6465d" stroke-width="1.4" /><rect x="755.99" y="298.65" width="6" height="6.29" rx="1.5" fill="#f6465d" /><line x1="769.72" y1="286.06" x2="769.72" y2="320.67" stroke="#0ecb81" stroke-width="1.4" /><rect x="766.72" y="289.21" width="6" height="14.94" rx="1.5" fill="#0ecb81" /><line x1="780.46" y1="281.35" x2="780.46" y2="295.50" stroke="#0ecb81" stroke-width="1.4" /><rect x="777.46" y="290.78" width="6" height="2.00" rx="1.5" fill="#0ecb81" /><line x1="791.19" y1="260.90" x2="791.19" y2="308.08" stroke="#0ecb81" stroke-width="1.4" /><rect x="788.19" y="271.12" width="6" height="19.66" rx="1.5" fill="#0ecb81" /><line x1="801.92" y1="253.03" x2="801.92" y2="303.37" stroke="#f6465d" stroke-width="1.4" /><rect x="798.92" y="273.48" width="6" height="25.95" rx="1.5" fill="#f6465d" /><line x1="812.66" y1="268.76" x2="812.66" y2="318.31" stroke="#0ecb81" stroke-width="1.4" /><rect x="809.66" y="276.63" width="6" height="23.59" rx="1.5" fill="#0ecb81" /><line x1="823.39" y1="256.18" x2="823.39" y2="312.02" stroke="#f6465d" stroke-width="1.4" /><rect x="820.39" y="276.63" width="6" height="32.24" rx="1.5" fill="#f6465d" /><line x1="834.13" y1="294.71" x2="834.13" y2="330.10" stroke="#f6465d" stroke-width="1.4" /><rect x="831.13" y="308.87" width="6" height="8.65" rx="1.5" fill="#f6465d" /><line x1="844.86" y1="315.16" x2="844.86" y2="385.94" stroke="#f6465d" stroke-width="1.4" /><rect x="841.86" y="317.52" width="6" height="59.77" rx="1.5" fill="#f6465d" /><line x1="855.59" y1="366.28" x2="855.59" y2="428.41" stroke="#f6465d" stroke-width="1.4" /><rect x="852.59" y="374.93" width="6" height="40.11" rx="1.5" fill="#f6465d" /><line x1="866.33" y1="405.60" x2="866.33" y2="436.27" stroke="#f6465d" stroke-width="1.4" /><rect x="863.33" y="417.40" width="6" height="5.50" rx="1.5" fill="#f6465d" /><line x1="877.06" y1="414.25" x2="877.06" y2="452.00" stroke="#f6465d" stroke-width="1.4" /><rect x="874.06" y="421.33" width="6" height="29.88" rx="1.5" fill="#f6465d" /><line x1="887.80" y1="400.88" x2="887.80" y2="450.43" stroke="#0ecb81" stroke-width="1.4" /><rect x="884.80" y="404.81" width="6" height="45.61" rx="1.5" fill="#0ecb81" /><line x1="898.53" y1="386.73" x2="898.53" y2="433.13" stroke="#f6465d" stroke-width="1.4" /><rect x="895.53" y="405.60" width="6" height="11.80" rx="1.5" fill="#f6465d" /><line x1="909.27" y1="404.03" x2="909.27" y2="443.35" stroke="#f6465d" stroke-width="1.4" /><rect x="906.27" y="415.04" width="6" height="28.31" rx="1.5" fill="#f6465d" /><line x1="920.00" y1="441.78" x2="920.00" y2="449.64" stroke="#f6465d" stroke-width="1.4" /><rect x="917.00" y="444.14" width="6" height="2.00" rx="1.5" fill="#f6465d" />
  <polyline points="72.00,194.05 72.00,293.14 114.94,107.54 200.81,219.22 275.95,58.00" fill="none" stroke="#2fc273" stroke-width="4" stroke-linecap="round" stroke-linejoin="round" />
  <circle cx="72.00" cy="194.05" r="5.5" fill="#2fc273" fill-opacity="0.15" stroke="#2fc273" stroke-width="2" /><text x="72.00" y="182.05" fill="#f3f4f6" font-size="15" font-weight="700" text-anchor="middle">X</text><circle cx="72.00" cy="293.14" r="5.5" fill="#2fc273" fill-opacity="0.15" stroke="#2fc273" stroke-width="2" /><text x="72.00" y="281.14" fill="#f3f4f6" font-size="15" font-weight="700" text-anchor="middle">A</text><circle cx="114.94" cy="107.54" r="5.5" fill="#2fc273" fill-opacity="0.15" stroke="#2fc273" stroke-width="2" /><text x="114.94" y="95.54" fill="#f3f4f6" font-size="15" font-weight="700" text-anchor="middle">B</text><circle cx="200.81" cy="219.22" r="5.5" fill="#2fc273" fill-opacity="0.15" stroke="#2fc273" stroke-width="2" /><text x="200.81" y="207.22" fill="#f3f4f6" font-size="15" font-weight="700" text-anchor="middle">C</text><circle cx="275.95" cy="58.00" r="5.5" fill="#2fc273" fill-opacity="0.15" stroke="#2fc273" stroke-width="2" /><text x="275.95" y="46.00" fill="#f3f4f6" font-size="15" font-weight="700" text-anchor="middle">D</text>
  <text x="56" y="492" fill="#8ba0b5" font-size="18">일반 완성 · TP1 0.033447 · TP2 0.032963 · SL 0.034394</text>
</svg>
