<svg xmlns="http://www.w3.org/2000/svg" width="960" height="540" viewBox="0 0 960 540">
  <rect width="960" height="540" rx="24" fill="#0b1220" />
  <rect x="28" y="28" width="904" height="484" rx="22" fill="#111827" stroke="#1f2937" />
  <text x="56" y="74" fill="#f3f4f6" font-size="34" font-weight="700">RENDERUSDT · AB=CD</text>
  <text x="904" y="74" fill="#8ba0b5" font-size="20" text-anchor="end">Bearish (매도) · Score 88.9</text>
  <line x1="72" y1="58" x2="920" y2="58" stroke="#223045" stroke-width="1" stroke-dasharray="4 8" /><line x1="72" y1="156" x2="920" y2="156" stroke="#223045" stroke-width="1" stroke-dasharray="4 8" /><line x1="72" y1="255" x2="920" y2="255" stroke="#223045" stroke-width="1" stroke-dasharray="4 8" /><line x1="72" y1="353" x2="920" y2="353" stroke="#223045" stroke-width="1" stroke-dasharray="4 8" /><line x1="72" y1="452" x2="920" y2="452" stroke="#223045" stroke-width="1" stroke-dasharray="4 8" />
  <rect x="859.80" y="111.60" width="84" height="45.81" fill="#fbbf24" fill-opacity="0.12" stroke="#fbbf24" stroke-width="1.5" stroke-dasharray="6 6" />
  <line x1="72.00" y1="167.95" x2="72.00" y2="227.51" stroke="#f6465d" stroke-width="1.4" /><rect x="69.00" y="200.02" width="6" height="22.91" rx="1.5" fill="#f6465d" /><line x1="82.73" y1="172.53" x2="82.73" y2="227.51" stroke="#0ecb81" stroke-width="1.4" /><rect x="79.73" y="181.70" width="6" height="41.23" rx="1.5" fill="#0ecb81" /><line x1="93.47" y1="154.21" x2="93.47" y2="186.28" stroke="#0ecb81" stroke-width="1.4" /><rect x="90.47" y="172.53" width="6" height="9.16" rx="1.5" fill="#0ecb81" /><line x1="104.20" y1="140.47" x2="104.20" y2="186.28" stroke="#0ecb81" stroke-width="1.4" /><rect x="101.20" y="140.47" width="6" height="27.49" rx="1.5" fill="#0ecb81" /><line x1="114.94" y1="85.49" x2="114.94" y2="145.05" stroke="#0ecb81" stroke-width="1.4" /><rect x="111.94" y="99.23" width="6" height="41.23" rx="1.5" fill="#0ecb81" /><line x1="125.67" y1="103.81" x2="125.67" y2="135.88" stroke="#f6465d" stroke-width="1.4" /><rect x="122.67" y="103.81" width="6" height="22.91" rx="1.5" fill="#f6465d" /><line x1="136.41" y1="103.81" x2="136.41" y2="135.88" stroke="#0ecb81" stroke-width="1.4" /><rect x="133.41" y="117.56" width="6" height="9.16" rx="1.5" fill="#0ecb81" /><line x1="147.14" y1="108.40" x2="147.14" y2="140.47" stroke="#0ecb81" stroke-width="1.4" /><rect x="144.14" y="108.40" width="6" height="9.16" rx="1.5" fill="#0ecb81" /><line x1="157.87" y1="80.91" x2="157.87" y2="108.40" stroke="#0ecb81" stroke-width="1.4" /><rect x="154.87" y="85.49" width="6" height="22.91" rx="1.5" fill="#0ecb81" /><line x1="168.61" y1="85.49" x2="168.61" y2="126.72" stroke="#f6465d" stroke-width="1.4" /><rect x="165.61" y="85.49" width="6" height="41.23" rx="1.5" fill="#f6465d" /><line x1="179.34" y1="85.49" x2="179.34" y2="126.72" stroke="#0ecb81" stroke-width="1.4" /><rect x="176.34" y="94.65" width="6" height="22.91" rx="1.5" fill="#0ecb81" /><line x1="190.08" y1="71.74" x2="190.08" y2="117.56" stroke="#0ecb81" stroke-width="1.4" /><rect x="187.08" y="71.74" width="6" height="22.91" rx="1.5" fill="#0ecb81" /><line x1="200.81" y1="62.58" x2="200.81" y2="108.40" stroke="#0ecb81" stroke-width="1.4" /><rect x="197.81" y="76.33" width="6" height="2.00" rx="1.5" fill="#0ecb81" /><line x1="211.54" y1="58.00" x2="211.54" y2="94.65" stroke="#f6465d" stroke-width="1.4" /><rect x="208.54" y="76.33" width="6" height="4.58" rx="1.5" fill="#f6465d" /><line x1="222.28" y1="80.91" x2="222.28" y2="108.40" stroke="#f6465d" stroke-width="1.4" /><rect x="219.28" y="80.91" width="6" height="4.58" rx="1.5" fill="#f6465d" /><line x1="233.01" y1="85.49" x2="233.01" y2="117.56" stroke="#f6465d" stroke-width="1.4" /><rect x="230.01" y="85.49" width="6" height="27.49" rx="1.5" fill="#f6465d" /><line x1="243.75" y1="99.23" x2="243.75" y2="140.47" stroke="#f6465d" stroke-width="1.4" /><rect x="240.75" y="108.40" width="6" height="27.49" rx="1.5" fill="#f6465d" /><line x1="254.48" y1="135.88" x2="254.48" y2="181.70" stroke="#f6465d" stroke-width="1.4" /><rect x="251.48" y="140.47" width="6" height="18.33" rx="1.5" fill="#f6465d" /><line x1="265.22" y1="140.47" x2="265.22" y2="181.70" stroke="#f6465d" stroke-width="1.4" /><rect x="262.22" y="154.21" width="6" height="18.33" rx="1.5" fill="#f6465d" /><line x1="275.95" y1="163.37" x2="275.95" y2="209.19" stroke="#f6465d" stroke-width="1.4" /><rect x="272.95" y="172.53" width="6" height="32.07" rx="1.5" fill="#f6465d" /><line x1="286.68" y1="200.02" x2="286.68" y2="259.58" stroke="#f6465d" stroke-width="1.4" /><rect x="283.68" y="200.02" width="6" height="45.81" rx="1.5" fill="#f6465d" /><line x1="297.42" y1="190.86" x2="297.42" y2="259.58" stroke="#f6465d" stroke-width="1.4" /><rect x="294.42" y="245.84" width="6" height="4.58" rx="1.5" fill="#f6465d" /><line x1="308.15" y1="209.19" x2="308.15" y2="245.84" stroke="#0ecb81" stroke-width="1.4" /><rect x="305.15" y="222.93" width="6" height="22.91" rx="1.5" fill="#0ecb81" /><line x1="318.89" y1="190.86" x2="318.89" y2="222.93" stroke="#0ecb81" stroke-width="1.4" /><rect x="315.89" y="190.86" width="6" height="32.07" rx="1.5" fill="#0ecb81" /><line x1="329.62" y1="195.44" x2="329.62" y2="282.49" stroke="#f6465d" stroke-width="1.4" /><rect x="326.62" y="195.44" width="6" height="82.47" rx="1.5" fill="#f6465d" /><line x1="340.35" y1="268.74" x2="340.35" y2="364.95" stroke="#f6465d" stroke-width="1.4" /><rect x="337.35" y="273.33" width="6" height="64.14" rx="1.5" fill="#f6465d" /><line x1="351.09" y1="323.72" x2="351.09" y2="374.12" stroke="#f6465d" stroke-width="1.4" /><rect x="348.09" y="337.47" width="6" height="9.16" rx="1.5" fill="#f6465d" /><line x1="361.82" y1="323.72" x2="361.82" y2="364.95" stroke="#f6465d" stroke-width="1.4" /><rect x="358.82" y="346.63" width="6" height="4.58" rx="1.5" fill="#f6465d" /><line x1="372.56" y1="328.30" x2="372.56" y2="355.79" stroke="#f6465d" stroke-width="1.4" /><rect x="369.56" y="351.21" width="6" height="4.58" rx="1.5" fill="#f6465d" /><line x1="383.29" y1="314.56" x2="383.29" y2="355.79" stroke="#0ecb81" stroke-width="1.4" /><rect x="380.29" y="323.72" width="6" height="32.07" rx="1.5" fill="#0ecb81" /><line x1="394.03" y1="305.40" x2="394.03" y2="337.47" stroke="#0ecb81" stroke-width="1.4" /><rect x="391.03" y="319.14" width="6" height="9.16" rx="1.5" fill="#0ecb81" /><line x1="404.76" y1="287.07" x2="404.76" y2="319.14" stroke="#0ecb81" stroke-width="1.4" /><rect x="401.76" y="309.98" width="6" height="9.16" rx="1.5" fill="#0ecb81" /><line x1="415.49" y1="296.23" x2="415.49" y2="314.56" stroke="#f6465d" stroke-width="1.4" /><rect x="412.49" y="305.40" width="6" height="4.58" rx="1.5" fill="#f6465d" /><line x1="426.23" y1="305.40" x2="426.23" y2="374.12" stroke="#f6465d" stroke-width="1.4" /><rect x="423.23" y="309.98" width="6" height="64.14" rx="1.5" fill="#f6465d" /><line x1="436.96" y1="342.05" x2="436.96" y2="383.28" stroke="#0ecb81" stroke-width="1.4" /><rect x="433.96" y="360.37" width="6" height="9.16" rx="1.5" fill="#0ecb81" /><line x1="447.70" y1="360.37" x2="447.70" y2="387.86" stroke="#f6465d" stroke-width="1.4" /><rect x="444.70" y="360.37" width="6" height="13.74" rx="1.5" fill="#f6465d" /><line x1="458.43" y1="369.53" x2="458.43" y2="429.09" stroke="#f6465d" stroke-width="1.4" /><rect x="455.43" y="374.12" width="6" height="50.40" rx="1.5" fill="#f6465d" /><line x1="469.16" y1="397.02" x2="469.16" y2="447.42" stroke="#0ecb81" stroke-width="1.4" /><rect x="466.16" y="401.60" width="6" height="18.33" rx="1.5" fill="#0ecb81" /><line x1="479.90" y1="397.02" x2="479.90" y2="415.35" stroke="#f6465d" stroke-width="1.4" /><rect x="476.90" y="406.19" width="6" height="9.16" rx="1.5" fill="#f6465d" /><line x1="490.63" y1="406.19" x2="490.63" y2="424.51" stroke="#f6465d" stroke-width="1.4" /><rect x="487.63" y="415.35" width="6" height="4.58" rx="1.5" fill="#f6465d" /><line x1="501.37" y1="401.60" x2="501.37" y2="438.26" stroke="#f6465d" stroke-width="1.4" /><rect x="498.37" y="419.93" width="6" height="9.16" rx="1.5" fill="#f6465d" /><line x1="512.10" y1="419.93" x2="512.10" y2="452.00" stroke="#0ecb81" stroke-width="1.4" /><rect x="509.10" y="424.51" width="6" height="4.58" rx="1.5" fill="#0ecb81" /><line x1="522.84" y1="397.02" x2="522.84" y2="433.67" stroke="#0ecb81" stroke-width="1.4" /><rect x="519.84" y="397.02" width="6" height="32.07" rx="1.5" fill="#0ecb81" /><line x1="533.57" y1="346.63" x2="533.57" y2="401.60" stroke="#0ecb81" stroke-width="1.4" /><rect x="530.57" y="360.37" width="6" height="36.65" rx="1.5" fill="#0ecb81" /><line x1="544.30" y1="360.37" x2="544.30" y2="397.02" stroke="#f6465d" stroke-width="1.4" /><rect x="541.30" y="364.95" width="6" height="22.91" rx="1.5" fill="#f6465d" /><line x1="555.04" y1="383.28" x2="555.04" y2="415.35" stroke="#f6465d" stroke-width="1.4" /><rect x="552.04" y="387.86" width="6" height="13.74" rx="1.5" fill="#f6465d" /><line x1="565.77" y1="397.02" x2="565.77" y2="419.93" stroke="#f6465d" stroke-width="1.4" /><rect x="562.77" y="406.19" width="6" height="4.58" rx="1.5" fill="#f6465d" /><line x1="576.51" y1="387.86" x2="576.51" y2="419.93" stroke="#0ecb81" stroke-width="1.4" /><rect x="573.51" y="401.60" width="6" height="9.16" rx="1.5" fill="#0ecb81" /><line x1="587.24" y1="374.12" x2="587.24" y2="401.60" stroke="#0ecb81" stroke-width="1.4" /><rect x="584.24" y="387.86" width="6" height="13.74" rx="1.5" fill="#0ecb81" /><line x1="597.97" y1="360.37" x2="597.97" y2="392.44" stroke="#0ecb81" stroke-width="1.4" /><rect x="594.97" y="369.53" width="6" height="13.74" rx="1.5" fill="#0ecb81" /><line x1="608.71" y1="342.05" x2="608.71" y2="383.28" stroke="#0ecb81" stroke-width="1.4" /><rect x="605.71" y="346.63" width="6" height="27.49" rx="1.5" fill="#0ecb81" /><line x1="619.44" y1="319.14" x2="619.44" y2="355.79" stroke="#0ecb81" stroke-width="1.4" /><rect x="616.44" y="328.30" width="6" height="13.74" rx="1.5" fill="#0ecb81" /><line x1="630.18" y1="296.23" x2="630.18" y2="346.63" stroke="#0ecb81" stroke-width="1.4" /><rect x="627.18" y="309.98" width="6" height="18.33" rx="1.5" fill="#0ecb81" /><line x1="640.91" y1="314.56" x2="640.91" y2="337.47" stroke="#f6465d" stroke-width="1.4" /><rect x="637.91" y="314.56" width="6" height="13.74" rx="1.5" fill="#f6465d" /><line x1="651.65" y1="323.72" x2="651.65" y2="355.79" stroke="#f6465d" stroke-width="1.4" /><rect x="648.65" y="332.88" width="6" height="9.16" rx="1.5" fill="#f6465d" /><line x1="662.38" y1="319.14" x2="662.38" y2="355.79" stroke="#0ecb81" stroke-width="1.4" /><rect x="659.38" y="323.72" width="6" height="18.33" rx="1.5" fill="#0ecb81" /><line x1="673.11" y1="319.14" x2="673.11" y2="342.05" stroke="#f6465d" stroke-width="1.4" /><rect x="670.11" y="328.30" width="6" height="9.16" rx="1.5" fill="#f6465d" /><line x1="683.85" y1="296.23" x2="683.85" y2="346.63" stroke="#0ecb81" stroke-width="1.4" /><rect x="680.85" y="300.81" width="6" height="41.23" rx="1.5" fill="#0ecb81" /><line x1="694.58" y1="273.33" x2="694.58" y2="305.40" stroke="#0ecb81" stroke-width="1.4" /><rect x="691.58" y="291.65" width="6" height="13.74" rx="1.5" fill="#0ecb81" /><line x1="705.32" y1="236.67" x2="705.32" y2="287.07" stroke="#0ecb81" stroke-width="1.4" /><rect x="702.32" y="259.58" width="6" height="27.49" rx="1.5" fill="#0ecb81" /><line x1="716.05" y1="222.93" x2="716.05" y2="273.33" stroke="#0ecb81" stroke-width="1.4" /><rect x="713.05" y="236.67" width="6" height="27.49" rx="1.5" fill="#0ecb81" /><line x1="726.78" y1="204.60" x2="726.78" y2="264.16" stroke="#0ecb81" stroke-width="1.4" /><rect x="723.78" y="232.09" width="6" height="9.16" rx="1.5" fill="#0ecb81" /><line x1="737.52" y1="227.51" x2="737.52" y2="277.91" stroke="#f6465d" stroke-width="1.4" /><rect x="734.52" y="232.09" width="6" height="18.33" rx="1.5" fill="#f6465d" /><line x1="748.25" y1="218.35" x2="748.25" y2="255.00" stroke="#0ecb81" stroke-width="1.4" /><rect x="745.25" y="245.84" width="6" height="2.00" rx="1.5" fill="#0ecb81" /><line x1="758.99" y1="232.09" x2="758.99" y2="287.07" stroke="#f6465d" stroke-width="1.4" /><rect x="755.99" y="250.42" width="6" height="32.07" rx="1.5" fill="#f6465d" /><line x1="769.72" y1="259.58" x2="769.72" y2="291.65" stroke="#f6465d" stroke-width="1.4" /><rect x="766.72" y="277.91" width="6" height="9.16" rx="1.5" fill="#f6465d" /><line x1="780.46" y1="250.42" x2="780.46" y2="282.49" stroke="#0ecb81" stroke-width="1.4" /><rect x="777.46" y="255.00" width="6" height="27.49" rx="1.5" fill="#0ecb81" /><line x1="791.19" y1="245.84" x2="791.19" y2="273.33" stroke="#f6465d" stroke-width="1.4" /><rect x="788.19" y="250.42" width="6" height="9.16" rx="1.5" fill="#f6465d" /><line x1="801.92" y1="236.67" x2="801.92" y2="259.58" stroke="#0ecb81" stroke-width="1.4" /><rect x="798.92" y="241.26" width="6" height="18.33" rx="1.5" fill="#0ecb81" /><line x1="812.66" y1="163.37" x2="812.66" y2="241.26" stroke="#0ecb81" stroke-width="1.4" /><rect x="809.66" y="167.95" width="6" height="73.30" rx="1.5" fill="#0ecb81" /><line x1="823.39" y1="167.95" x2="823.39" y2="204.60" stroke="#f6465d" stroke-width="1.4" /><rect x="820.39" y="172.53" width="6" height="18.33" rx="1.5" fill="#f6465d" /><line x1="834.13" y1="172.53" x2="834.13" y2="195.44" stroke="#0ecb81" stroke-width="1.4" /><rect x="831.13" y="181.70" width="6" height="4.58" rx="1.5" fill="#0ecb81" /><line x1="844.86" y1="149.63" x2="844.86" y2="190.86" stroke="#0ecb81" stroke-width="1.4" /><rect x="841.86" y="158.79" width="6" height="27.49" rx="1.5" fill="#0ecb81" /><line x1="855.59" y1="145.05" x2="855.59" y2="167.95" stroke="#0ecb81" stroke-width="1.4" /><rect x="852.59" y="149.63" width="6" height="9.16" rx="1.5" fill="#0ecb81" /><line x1="866.33" y1="140.47" x2="866.33" y2="163.37" stroke="#0ecb81" stroke-width="1.4" /><rect x="863.33" y="145.05" width="6" height="2.00" rx="1.5" fill="#0ecb81" /><line x1="877.06" y1="122.14" x2="877.06" y2="154.21" stroke="#0ecb81" stroke-width="1.4" /><rect x="874.06" y="122.14" width="6" height="22.91" rx="1.5" fill="#0ecb81" /><line x1="887.80" y1="117.56" x2="887.80" y2="163.37" stroke="#f6465d" stroke-width="1.4" /><rect x="884.80" y="122.14" width="6" height="41.23" rx="1.5" fill="#f6465d" /><line x1="898.53" y1="158.79" x2="898.53" y2="190.86" stroke="#0ecb81" stroke-width="1.4" /><rect x="895.53" y="158.79" width="6" height="4.58" rx="1.5" fill="#0ecb81" /><line x1="909.27" y1="149.63" x2="909.27" y2="200.02" stroke="#f6465d" stroke-width="1.4" /><rect x="906.27" y="158.79" width="6" height="32.07" rx="1.5" fill="#f6465d" /><line x1="920.00" y1="181.70" x2="920.00" y2="218.35" stroke="#0ecb81" stroke-width="1.4" /><rect x="917.00" y="186.28" width="6" height="2.00" rx="1.5" fill="#0ecb81" />
  <polyline points="630.18,296.23 662.38,355.79 726.78,204.60 769.72,291.65 887.80,117.56" fill="none" stroke="#2fc273" stroke-width="4" stroke-linecap="round" stroke-linejoin="round" />
  <circle cx="630.18" cy="296.23" r="5.5" fill="#2fc273" fill-opacity="0.15" stroke="#2fc273" stroke-width="2" /><text x="630.18" y="284.23" fill="#f3f4f6" font-size="15" font-weight="700" text-anchor="middle">X</text><circle cx="662.38" cy="355.79" r="5.5" fill="#2fc273" fill-opacity="0.15" stroke="#2fc273" stroke-width="2" /><text x="662.38" y="343.79" fill="#f3f4f6" font-size="15" font-weight="700" text-anchor="middle">A</text><circle cx="726.78" cy="204.60" r="5.5" fill="#2fc273" fill-opacity="0.15" stroke="#2fc273" stroke-width="2" /><text x="726.78" y="192.60" fill="#f3f4f6" font-size="15" font-weight="700" text-anchor="middle">B</text><circle cx="769.72" cy="291.65" r="5.5" fill="#2fc273" fill-opacity="0.15" stroke="#2fc273" stroke-width="2" /><text x="769.72" y="279.65" fill="#f3f4f6" font-size="15" font-weight="700" text-anchor="middle">C</text><circle cx="887.80" cy="117.56" r="5.5" fill="#2fc273" fill-opacity="0.15" stroke="#2fc273" stroke-width="2" /><text x="887.80" y="105.56" fill="#f3f4f6" font-size="15" font-weight="700" text-anchor="middle">D</text>
  <text x="56" y="492" fill="#8ba0b5" font-size="18">일반 완성 · TP1 1.9705 · TP2 1.9615 · SL 1.9867</text>
</svg>
