<svg xmlns="http://www.w3.org/2000/svg" width="960" height="540" viewBox="0 0 960 540">
  <rect width="960" height="540" rx="24" fill="#0b1220" />
  <rect x="28" y="28" width="904" height="484" rx="22" fill="#111827" stroke="#1f2937" />
  <text x="56" y="74" fill="#f3f4f6" font-size="34" font-weight="700">RIFUSDT · AB=CD</text>
  <text x="904" y="74" fill="#8ba0b5" font-size="20" text-anchor="end">Bullish (매수) · Score 73.2</text>
  <line x1="72" y1="58" x2="920" y2="58" stroke="#223045" stroke-width="1" stroke-dasharray="4 8" /><line x1="72" y1="156" x2="920" y2="156" stroke="#223045" stroke-width="1" stroke-dasharray="4 8" /><line x1="72" y1="255" x2="920" y2="255" stroke="#223045" stroke-width="1" stroke-dasharray="4 8" /><line x1="72" y1="353" x2="920" y2="353" stroke="#223045" stroke-width="1" stroke-dasharray="4 8" /><line x1="72" y1="452" x2="920" y2="452" stroke="#223045" stroke-width="1" stroke-dasharray="4 8" />
  <rect x="859.80" y="587.55" width="84" height="37.01" fill="#fbbf24" fill-opacity="0.12" stroke="#fbbf24" stroke-width="1.5" stroke-dasharray="6 6" />
  <line x1="72.00" y1="58.00" x2="72.00" y2="80.04" stroke="#f6465d" stroke-width="1.4" /><rect x="69.00" y="62.80" width="6" height="13.02" rx="1.5" fill="#f6465d" /><line x1="82.73" y1="75.70" x2="82.73" y2="92.38" stroke="#f6465d" stroke-width="1.4" /><rect x="79.73" y="75.93" width="6" height="15.76" rx="1.5" fill="#f6465d" /><line x1="93.47" y1="79.81" x2="93.47" y2="93.29" stroke="#0ecb81" stroke-width="1.4" /><rect x="90.47" y="82.21" width="6" height="8.79" rx="1.5" fill="#0ecb81" /><line x1="104.20" y1="80.84" x2="104.20" y2="96.14" stroke="#f6465d" stroke-width="1.4" /><rect x="101.20" y="82.55" width="6" height="5.48" rx="1.5" fill="#f6465d" /><line x1="114.94" y1="87.24" x2="114.94" y2="98.54" stroke="#f6465d" stroke-width="1.4" /><rect x="111.94" y="88.04" width="6" height="6.40" rx="1.5" fill="#f6465d" /><line x1="125.67" y1="93.63" x2="125.67" y2="103.11" stroke="#f6465d" stroke-width="1.4" /><rect x="122.67" y="94.20" width="6" height="2.00" rx="1.5" fill="#f6465d" /><line x1="136.41" y1="94.66" x2="136.41" y2="103.00" stroke="#f6465d" stroke-width="1.4" /><rect x="133.41" y="95.23" width="6" height="3.88" rx="1.5" fill="#f6465d" /><line x1="147.14" y1="98.20" x2="147.14" y2="107.22" stroke="#f6465d" stroke-width="1.4" /><rect x="144.14" y="99.00" width="6" height="7.19" rx="1.5" fill="#f6465d" /><line x1="157.87" y1="104.25" x2="157.87" y2="113.96" stroke="#f6465d" stroke-width="1.4" /><rect x="154.87" y="106.31" width="6" height="5.94" rx="1.5" fill="#f6465d" /><line x1="168.61" y1="109.73" x2="168.61" y2="120.93" stroke="#f6465d" stroke-width="1.4" /><rect x="165.61" y="112.25" width="6" height="7.31" rx="1.5" fill="#f6465d" /><line x1="179.34" y1="99.34" x2="179.34" y2="120.70" stroke="#0ecb81" stroke-width="1.4" /><rect x="176.34" y="107.56" width="6" height="11.99" rx="1.5" fill="#0ecb81" /><line x1="190.08" y1="100.03" x2="190.08" y2="116.02" stroke="#f6465d" stroke-width="1.4" /><rect x="187.08" y="107.68" width="6" height="5.02" rx="1.5" fill="#f6465d" /><line x1="200.81" y1="110.42" x2="200.81" y2="127.66" stroke="#f6465d" stroke-width="1.4" /><rect x="197.81" y="113.16" width="6" height="10.96" rx="1.5" fill="#f6465d" /><line x1="211.54" y1="90.09" x2="211.54" y2="125.15" stroke="#0ecb81" stroke-width="1.4" /><rect x="208.54" y="97.40" width="6" height="26.84" rx="1.5" fill="#0ecb81" /><line x1="222.28" y1="91.12" x2="222.28" y2="116.93" stroke="#f6465d" stroke-width="1.4" /><rect x="219.28" y="97.40" width="6" height="17.59" rx="1.5" fill="#f6465d" /><line x1="233.01" y1="114.07" x2="233.01" y2="125.84" stroke="#f6465d" stroke-width="1.4" /><rect x="230.01" y="114.30" width="6" height="4.68" rx="1.5" fill="#f6465d" /><line x1="243.75" y1="113.85" x2="243.75" y2="128.58" stroke="#0ecb81" stroke-width="1.4" /><rect x="240.75" y="115.67" width="6" height="3.31" rx="1.5" fill="#0ecb81" /><line x1="254.48" y1="104.59" x2="254.48" y2="123.32" stroke="#f6465d" stroke-width="1.4" /><rect x="251.48" y="115.90" width="6" height="3.31" rx="1.5" fill="#f6465d" /><line x1="265.22" y1="117.16" x2="265.22" y2="125.72" stroke="#0ecb81" stroke-width="1.4" /><rect x="262.22" y="117.96" width="6" height="2.00" rx="1.5" fill="#0ecb81" /><line x1="275.95" y1="109.96" x2="275.95" y2="122.87" stroke="#0ecb81" stroke-width="1.4" /><rect x="272.95" y="116.36" width="6" height="2.00" rx="1.5" fill="#0ecb81" /><line x1="286.68" y1="107.56" x2="286.68" y2="115.79" stroke="#0ecb81" stroke-width="1.4" /><rect x="283.68" y="110.99" width="6" height="4.57" rx="1.5" fill="#0ecb81" /><line x1="297.42" y1="105.62" x2="297.42" y2="127.09" stroke="#f6465d" stroke-width="1.4" /><rect x="294.42" y="110.99" width="6" height="8.57" rx="1.5" fill="#f6465d" /><line x1="308.15" y1="108.48" x2="308.15" y2="123.90" stroke="#0ecb81" stroke-width="1.4" /><rect x="305.15" y="109.51" width="6" height="10.74" rx="1.5" fill="#0ecb81" /><line x1="318.89" y1="107.22" x2="318.89" y2="128.23" stroke="#f6465d" stroke-width="1.4" /><rect x="315.89" y="110.42" width="6" height="16.67" rx="1.5" fill="#f6465d" /><line x1="329.62" y1="122.75" x2="329.62" y2="129.72" stroke="#f6465d" stroke-width="1.4" /><rect x="326.62" y="128.35" width="6" height="2.00" rx="1.5" fill="#f6465d" /><line x1="340.35" y1="125.72" x2="340.35" y2="135.09" stroke="#f6465d" stroke-width="1.4" /><rect x="337.35" y="128.81" width="6" height="3.31" rx="1.5" fill="#f6465d" /><line x1="351.09" y1="129.49" x2="351.09" y2="138.51" stroke="#f6465d" stroke-width="1.4" /><rect x="348.09" y="131.66" width="6" height="3.88" rx="1.5" fill="#f6465d" /><line x1="361.82" y1="132.57" x2="361.82" y2="146.85" stroke="#f6465d" stroke-width="1.4" /><rect x="358.82" y="136.23" width="6" height="2.28" rx="1.5" fill="#f6465d" /><line x1="372.56" y1="138.06" x2="372.56" y2="153.02" stroke="#f6465d" stroke-width="1.4" /><rect x="369.56" y="138.06" width="6" height="12.56" rx="1.5" fill="#f6465d" /><line x1="383.29" y1="145.94" x2="383.29" y2="154.39" stroke="#0ecb81" stroke-width="1.4" /><rect x="380.29" y="146.39" width="6" height="3.31" rx="1.5" fill="#0ecb81" /><line x1="394.03" y1="143.31" x2="394.03" y2="155.76" stroke="#f6465d" stroke-width="1.4" /><rect x="391.03" y="146.39" width="6" height="5.60" rx="1.5" fill="#f6465d" /><line x1="404.76" y1="146.16" x2="404.76" y2="159.41" stroke="#0ecb81" stroke-width="1.4" /><rect x="401.76" y="149.02" width="6" height="2.28" rx="1.5" fill="#0ecb81" /><line x1="415.49" y1="132.92" x2="415.49" y2="150.16" stroke="#0ecb81" stroke-width="1.4" /><rect x="412.49" y="133.49" width="6" height="15.07" rx="1.5" fill="#0ecb81" /><line x1="426.23" y1="130.75" x2="426.23" y2="142.85" stroke="#f6465d" stroke-width="1.4" /><rect x="423.23" y="133.83" width="6" height="2.74" rx="1.5" fill="#f6465d" /><line x1="436.96" y1="134.29" x2="436.96" y2="149.02" stroke="#f6465d" stroke-width="1.4" /><rect x="433.96" y="137.03" width="6" height="7.77" rx="1.5" fill="#f6465d" /><line x1="447.70" y1="94.54" x2="447.70" y2="145.25" stroke="#0ecb81" stroke-width="1.4" /><rect x="444.70" y="100.03" width="6" height="45.22" rx="1.5" fill="#0ecb81" /><line x1="458.43" y1="62.57" x2="458.43" y2="117.96" stroke="#0ecb81" stroke-width="1.4" /><rect x="455.43" y="75.02" width="6" height="26.61" rx="1.5" fill="#0ecb81" /><line x1="469.16" y1="71.93" x2="469.16" y2="96.14" stroke="#f6465d" stroke-width="1.4" /><rect x="466.16" y="73.87" width="6" height="21.81" rx="1.5" fill="#f6465d" /><line x1="479.90" y1="76.50" x2="479.90" y2="101.28" stroke="#0ecb81" stroke-width="1.4" /><rect x="476.90" y="84.84" width="6" height="11.31" rx="1.5" fill="#0ecb81" /><line x1="490.63" y1="77.53" x2="490.63" y2="88.15" stroke="#f6465d" stroke-width="1.4" /><rect x="487.63" y="83.92" width="6" height="4.23" rx="1.5" fill="#f6465d" /><line x1="501.37" y1="76.39" x2="501.37" y2="88.61" stroke="#0ecb81" stroke-width="1.4" /><rect x="498.37" y="86.44" width="6" height="2.00" rx="1.5" fill="#0ecb81" /><line x1="512.10" y1="85.07" x2="512.10" y2="140.23" stroke="#f6465d" stroke-width="1.4" /><rect x="509.10" y="86.32" width="6" height="43.05" rx="1.5" fill="#f6465d" /><line x1="522.84" y1="128.58" x2="522.84" y2="144.11" stroke="#f6465d" stroke-width="1.4" /><rect x="519.84" y="129.83" width="6" height="13.70" rx="1.5" fill="#f6465d" /><line x1="533.57" y1="139.54" x2="533.57" y2="152.79" stroke="#f6465d" stroke-width="1.4" /><rect x="530.57" y="143.42" width="6" height="3.08" rx="1.5" fill="#f6465d" /><line x1="544.30" y1="142.74" x2="544.30" y2="157.36" stroke="#f6465d" stroke-width="1.4" /><rect x="541.30" y="146.51" width="6" height="3.77" rx="1.5" fill="#f6465d" /><line x1="555.04" y1="122.52" x2="555.04" y2="153.70" stroke="#0ecb81" stroke-width="1.4" /><rect x="552.04" y="130.40" width="6" height="20.10" rx="1.5" fill="#0ecb81" /><line x1="565.77" y1="124.01" x2="565.77" y2="141.60" stroke="#f6465d" stroke-width="1.4" /><rect x="562.77" y="130.63" width="6" height="8.68" rx="1.5" fill="#f6465d" /><line x1="576.51" y1="134.74" x2="576.51" y2="151.30" stroke="#f6465d" stroke-width="1.4" /><rect x="573.51" y="138.51" width="6" height="12.56" rx="1.5" fill="#f6465d" /><line x1="587.24" y1="143.31" x2="587.24" y2="151.65" stroke="#0ecb81" stroke-width="1.4" /><rect x="584.24" y="149.48" width="6" height="2.00" rx="1.5" fill="#0ecb81" /><line x1="597.97" y1="147.65" x2="597.97" y2="163.18" stroke="#f6465d" stroke-width="1.4" /><rect x="594.97" y="150.05" width="6" height="9.25" rx="1.5" fill="#f6465d" /><line x1="608.71" y1="157.36" x2="608.71" y2="170.72" stroke="#f6465d" stroke-width="1.4" /><rect x="605.71" y="159.07" width="6" height="7.77" rx="1.5" fill="#f6465d" /><line x1="619.44" y1="155.42" x2="619.44" y2="167.52" stroke="#0ecb81" stroke-width="1.4" /><rect x="616.44" y="155.76" width="6" height="11.08" rx="1.5" fill="#0ecb81" /><line x1="630.18" y1="124.35" x2="630.18" y2="156.21" stroke="#0ecb81" stroke-width="1.4" /><rect x="627.18" y="145.59" width="6" height="10.39" rx="1.5" fill="#0ecb81" /><line x1="640.91" y1="129.72" x2="640.91" y2="145.02" stroke="#0ecb81" stroke-width="1.4" /><rect x="637.91" y="132.69" width="6" height="12.11" rx="1.5" fill="#0ecb81" /><line x1="651.65" y1="131.09" x2="651.65" y2="152.33" stroke="#f6465d" stroke-width="1.4" /><rect x="648.65" y="132.69" width="6" height="18.04" rx="1.5" fill="#f6465d" /><line x1="662.38" y1="141.03" x2="662.38" y2="153.59" stroke="#0ecb81" stroke-width="1.4" /><rect x="659.38" y="141.94" width="6" height="8.45" rx="1.5" fill="#0ecb81" /><line x1="673.11" y1="137.14" x2="673.11" y2="151.99" stroke="#f6465d" stroke-width="1.4" /><rect x="670.11" y="141.94" width="6" height="9.71" rx="1.5" fill="#f6465d" /><line x1="683.85" y1="151.53" x2="683.85" y2="202.92" stroke="#f6465d" stroke-width="1.4" /><rect x="680.85" y="151.65" width="6" height="41.23" rx="1.5" fill="#f6465d" /><line x1="694.58" y1="179.17" x2="694.58" y2="199.50" stroke="#0ecb81" stroke-width="1.4" /><rect x="691.58" y="189.56" width="6" height="3.54" rx="1.5" fill="#0ecb81" /><line x1="705.32" y1="185.68" x2="705.32" y2="224.39" stroke="#f6465d" stroke-width="1.4" /><rect x="702.32" y="189.10" width="6" height="28.66" rx="1.5" fill="#f6465d" /><line x1="716.05" y1="212.29" x2="716.05" y2="233.19" stroke="#f6465d" stroke-width="1.4" /><rect x="713.05" y="217.66" width="6" height="11.65" rx="1.5" fill="#f6465d" /><line x1="726.78" y1="227.82" x2="726.78" y2="277.16" stroke="#f6465d" stroke-width="1.4" /><rect x="723.78" y="229.99" width="6" height="42.37" rx="1.5" fill="#f6465d" /><line x1="737.52" y1="260.71" x2="737.52" y2="302.62" stroke="#f6465d" stroke-width="1.4" /><rect x="734.52" y="272.70" width="6" height="20.90" rx="1.5" fill="#f6465d" /><line x1="748.25" y1="277.73" x2="748.25" y2="358.13" stroke="#f6465d" stroke-width="1.4" /><rect x="745.25" y="293.60" width="6" height="19.53" rx="1.5" fill="#f6465d" /><line x1="758.99" y1="311.30" x2="758.99" y2="349.33" stroke="#f6465d" stroke-width="1.4" /><rect x="755.99" y="312.44" width="6" height="34.03" rx="1.5" fill="#f6465d" /><line x1="769.72" y1="341.79" x2="769.72" y2="417.28" stroke="#f6465d" stroke-width="1.4" /><rect x="766.72" y="347.28" width="6" height="66.24" rx="1.5" fill="#f6465d" /><line x1="780.46" y1="374.00" x2="780.46" y2="452.00" stroke="#0ecb81" stroke-width="1.4" /><rect x="777.46" y="402.55" width="6" height="11.65" rx="1.5" fill="#0ecb81" /><line x1="791.19" y1="357.21" x2="791.19" y2="408.95" stroke="#0ecb81" stroke-width="1.4" /><rect x="788.19" y="358.70" width="6" height="43.40" rx="1.5" fill="#0ecb81" /><line x1="801.92" y1="327.75" x2="801.92" y2="378.68" stroke="#f6465d" stroke-width="1.4" /><rect x="798.92" y="358.81" width="6" height="3.31" rx="1.5" fill="#f6465d" /><line x1="812.66" y1="331.17" x2="812.66" y2="370.57" stroke="#0ecb81" stroke-width="1.4" /><rect x="809.66" y="333.23" width="6" height="29.46" rx="1.5" fill="#0ecb81" /><line x1="823.39" y1="296.91" x2="823.39" y2="343.16" stroke="#f6465d" stroke-width="1.4" /><rect x="820.39" y="333.23" width="6" height="8.79" rx="1.5" fill="#f6465d" /><line x1="834.13" y1="334.94" x2="834.13" y2="358.01" stroke="#f6465d" stroke-width="1.4" /><rect x="831.13" y="342.02" width="6" height="7.65" rx="1.5" fill="#f6465d" /><line x1="844.86" y1="347.73" x2="844.86" y2="367.83" stroke="#f6465d" stroke-width="1.4" /><rect x="841.86" y="349.67" width="6" height="12.79" rx="1.5" fill="#f6465d" /><line x1="855.59" y1="344.88" x2="855.59" y2="367.15" stroke="#0ecb81" stroke-width="1.4" /><rect x="852.59" y="349.90" width="6" height="12.68" rx="1.5" fill="#0ecb81" /><line x1="866.33" y1="348.87" x2="866.33" y2="376.51" stroke="#f6465d" stroke-width="1.4" /><rect x="863.33" y="350.36" width="6" height="25.24" rx="1.5" fill="#f6465d" /><line x1="877.06" y1="361.89" x2="877.06" y2="391.47" stroke="#0ecb81" stroke-width="1.4" /><rect x="874.06" y="374.80" width="6" height="2.00" rx="1.5" fill="#0ecb81" /><line x1="887.80" y1="374.23" x2="887.80" y2="410.32" stroke="#f6465d" stroke-width="1.4" /><rect x="884.80" y="375.03" width="6" height="24.55" rx="1.5" fill="#f6465d" /><line x1="898.53" y1="386.33" x2="898.53" y2="406.32" stroke="#0ecb81" stroke-width="1.4" /><rect x="895.53" y="386.56" width="6" height="12.68" rx="1.5" fill="#0ecb81" /><line x1="909.27" y1="371.03" x2="909.27" y2="391.02" stroke="#0ecb81" stroke-width="1.4" /><rect x="906.27" y="371.37" width="6" height="16.10" rx="1.5" fill="#0ecb81" /><line x1="920.00" y1="371.03" x2="920.00" y2="379.02" stroke="#f6465d" stroke-width="1.4" /><rect x="917.00" y="371.60" width="6" height="6.05" rx="1.5" fill="#f6465d" />
  <polyline points="608.71,170.72 630.18,124.35 780.46,452.00 823.39,296.91 887.80,410.32" fill="none" stroke="#2fc273" stroke-width="4" stroke-linecap="round" stroke-linejoin="round" />
  <circle cx="608.71" cy="170.72" r="5.5" fill="#2fc273" fill-opacity="0.15" stroke="#2fc273" stroke-width="2" /><text x="608.71" y="158.72" fill="#f3f4f6" font-size="15" font-weight="700" text-anchor="middle">X</text><circle cx="630.18" cy="124.35" r="5.5" fill="#2fc273" fill-opacity="0.15" stroke="#2fc273" stroke-width="2" /><text x="630.18" y="112.35" fill="#f3f4f6" font-size="15" font-weight="700" text-anchor="middle">A</text><circle cx="780.46" cy="452.00" r="5.5" fill="#2fc273" fill-opacity="0.15" stroke="#2fc273" stroke-width="2" /><text x="780.46" y="440.00" fill="#f3f4f6" font-size="15" font-weight="700" text-anchor="middle">B</text><circle cx="823.39" cy="296.91" r="5.5" fill="#2fc273" fill-opacity="0.15" stroke="#2fc273" stroke-width="2" /><text x="823.39" y="284.91" fill="#f3f4f6" font-size="15" font-weight="700" text-anchor="middle">C</text><circle cx="887.80" cy="410.32" r="5.5" fill="#2fc273" fill-opacity="0.15" stroke="#2fc273" stroke-width="2" /><text x="887.80" y="398.32" fill="#f3f4f6" font-size="15" font-weight="700" text-anchor="middle">D</text>
  <text x="56" y="492" fill="#8ba0b5" font-size="18">Complete · TP1 0.082133 · TP2 0.084477 · SL 0.077812</text>
</svg>
