<svg xmlns="http://www.w3.org/2000/svg" width="960" height="540" viewBox="0 0 960 540">
  <rect width="960" height="540" rx="24" fill="#0b1220" />
  <rect x="28" y="28" width="904" height="484" rx="22" fill="#111827" stroke="#1f2937" />
  <text x="56" y="74" fill="#f3f4f6" font-size="34" font-weight="700">RIVERUSDT · AB=CD</text>
  <text x="904" y="74" fill="#8ba0b5" font-size="20" text-anchor="end">Bullish (매수) · Score 80.9</text>
  <line x1="72" y1="58" x2="920" y2="58" stroke="#223045" stroke-width="1" stroke-dasharray="4 8" /><line x1="72" y1="156" x2="920" y2="156" stroke="#223045" stroke-width="1" stroke-dasharray="4 8" /><line x1="72" y1="255" x2="920" y2="255" stroke="#223045" stroke-width="1" stroke-dasharray="4 8" /><line x1="72" y1="353" x2="920" y2="353" stroke="#223045" stroke-width="1" stroke-dasharray="4 8" /><line x1="72" y1="452" x2="920" y2="452" stroke="#223045" stroke-width="1" stroke-dasharray="4 8" />
  <rect x="269.42" y="323.50" width="84" height="46.87" fill="#fbbf24" fill-opacity="0.12" stroke="#fbbf24" stroke-width="1.5" stroke-dasharray="6 6" />
  <line x1="72.00" y1="239.03" x2="72.00" y2="250.36" stroke="#f6465d" stroke-width="1.4" /><rect x="69.00" y="243.15" width="6" height="5.92" rx="1.5" fill="#f6465d" /><line x1="82.73" y1="247.27" x2="82.73" y2="274.06" stroke="#f6465d" stroke-width="1.4" /><rect x="79.73" y="248.82" width="6" height="9.53" rx="1.5" fill="#f6465d" /><line x1="93.47" y1="257.83" x2="93.47" y2="279.21" stroke="#f6465d" stroke-width="1.4" /><rect x="90.47" y="258.09" width="6" height="18.03" rx="1.5" fill="#f6465d" /><line x1="104.20" y1="259.89" x2="104.20" y2="291.82" stroke="#0ecb81" stroke-width="1.4" /><rect x="101.20" y="265.04" width="6" height="11.33" rx="1.5" fill="#0ecb81" /><line x1="114.94" y1="261.70" x2="114.94" y2="294.14" stroke="#f6465d" stroke-width="1.4" /><rect x="111.94" y="265.04" width="6" height="23.43" rx="1.5" fill="#f6465d" /><line x1="125.67" y1="282.55" x2="125.67" y2="297.49" stroke="#0ecb81" stroke-width="1.4" /><rect x="122.67" y="287.45" width="6" height="2.00" rx="1.5" fill="#0ecb81" /><line x1="136.41" y1="279.46" x2="136.41" y2="293.37" stroke="#0ecb81" stroke-width="1.4" /><rect x="133.41" y="284.61" width="6" height="3.09" rx="1.5" fill="#0ecb81" /><line x1="147.14" y1="276.89" x2="147.14" y2="286.93" stroke="#0ecb81" stroke-width="1.4" /><rect x="144.14" y="277.40" width="6" height="7.47" rx="1.5" fill="#0ecb81" /><line x1="157.87" y1="260.92" x2="157.87" y2="284.36" stroke="#f6465d" stroke-width="1.4" /><rect x="154.87" y="277.40" width="6" height="2.00" rx="1.5" fill="#f6465d" /><line x1="168.61" y1="252.42" x2="168.61" y2="279.72" stroke="#0ecb81" stroke-width="1.4" /><rect x="165.61" y="262.21" width="6" height="15.71" rx="1.5" fill="#0ecb81" /><line x1="179.34" y1="257.32" x2="179.34" y2="267.88" stroke="#0ecb81" stroke-width="1.4" /><rect x="176.34" y="262.21" width="6" height="2.00" rx="1.5" fill="#0ecb81" /><line x1="190.08" y1="234.14" x2="190.08" y2="262.47" stroke="#0ecb81" stroke-width="1.4" /><rect x="187.08" y="245.47" width="6" height="17.00" rx="1.5" fill="#0ecb81" /><line x1="200.81" y1="215.86" x2="200.81" y2="245.73" stroke="#0ecb81" stroke-width="1.4" /><rect x="197.81" y="230.79" width="6" height="14.94" rx="1.5" fill="#0ecb81" /><line x1="211.54" y1="214.05" x2="211.54" y2="240.32" stroke="#f6465d" stroke-width="1.4" /><rect x="208.54" y="230.54" width="6" height="5.92" rx="1.5" fill="#f6465d" /><line x1="222.28" y1="219.98" x2="222.28" y2="240.84" stroke="#0ecb81" stroke-width="1.4" /><rect x="219.28" y="233.11" width="6" height="3.09" rx="1.5" fill="#0ecb81" /><line x1="233.01" y1="232.08" x2="233.01" y2="249.85" stroke="#f6465d" stroke-width="1.4" /><rect x="230.01" y="233.37" width="6" height="14.16" rx="1.5" fill="#f6465d" /><line x1="243.75" y1="245.73" x2="243.75" y2="267.36" stroke="#f6465d" stroke-width="1.4" /><rect x="240.75" y="247.53" width="6" height="19.06" rx="1.5" fill="#f6465d" /><line x1="254.48" y1="248.56" x2="254.48" y2="270.97" stroke="#0ecb81" stroke-width="1.4" /><rect x="251.48" y="251.91" width="6" height="14.68" rx="1.5" fill="#0ecb81" /><line x1="265.22" y1="249.08" x2="265.22" y2="262.98" stroke="#f6465d" stroke-width="1.4" /><rect x="262.22" y="251.91" width="6" height="7.73" rx="1.5" fill="#f6465d" /><line x1="275.95" y1="259.38" x2="275.95" y2="276.63" stroke="#f6465d" stroke-width="1.4" /><rect x="272.95" y="259.38" width="6" height="15.45" rx="1.5" fill="#f6465d" /><line x1="286.68" y1="269.94" x2="286.68" y2="281.27" stroke="#f6465d" stroke-width="1.4" /><rect x="283.68" y="274.57" width="6" height="4.89" rx="1.5" fill="#f6465d" /><line x1="297.42" y1="270.71" x2="297.42" y2="292.60" stroke="#f6465d" stroke-width="1.4" /><rect x="294.42" y="279.46" width="6" height="2.83" rx="1.5" fill="#f6465d" /><line x1="308.15" y1="266.85" x2="308.15" y2="283.07" stroke="#0ecb81" stroke-width="1.4" /><rect x="305.15" y="275.86" width="6" height="6.70" rx="1.5" fill="#0ecb81" /><line x1="318.89" y1="264.53" x2="318.89" y2="281.27" stroke="#0ecb81" stroke-width="1.4" /><rect x="315.89" y="269.16" width="6" height="6.44" rx="1.5" fill="#0ecb81" /><line x1="329.62" y1="265.30" x2="329.62" y2="278.18" stroke="#f6465d" stroke-width="1.4" /><rect x="326.62" y="269.16" width="6" height="2.00" rx="1.5" fill="#f6465d" /><line x1="340.35" y1="263.76" x2="340.35" y2="278.95" stroke="#f6465d" stroke-width="1.4" /><rect x="337.35" y="270.45" width="6" height="6.95" rx="1.5" fill="#f6465d" /><line x1="351.09" y1="255.77" x2="351.09" y2="281.78" stroke="#0ecb81" stroke-width="1.4" /><rect x="348.09" y="258.35" width="6" height="19.06" rx="1.5" fill="#0ecb81" /><line x1="361.82" y1="257.06" x2="361.82" y2="281.01" stroke="#f6465d" stroke-width="1.4" /><rect x="358.82" y="258.61" width="6" height="19.06" rx="1.5" fill="#f6465d" /><line x1="372.56" y1="258.09" x2="372.56" y2="285.13" stroke="#f6465d" stroke-width="1.4" /><rect x="369.56" y="277.40" width="6" height="7.21" rx="1.5" fill="#f6465d" /><line x1="383.29" y1="281.78" x2="383.29" y2="297.23" stroke="#f6465d" stroke-width="1.4" /><rect x="380.29" y="284.10" width="6" height="9.01" rx="1.5" fill="#f6465d" /><line x1="394.03" y1="276.12" x2="394.03" y2="322.73" stroke="#0ecb81" stroke-width="1.4" /><rect x="391.03" y="276.89" width="6" height="16.22" rx="1.5" fill="#0ecb81" /><line x1="404.76" y1="274.57" x2="404.76" y2="309.08" stroke="#f6465d" stroke-width="1.4" /><rect x="401.76" y="277.15" width="6" height="25.24" rx="1.5" fill="#f6465d" /><line x1="415.49" y1="285.64" x2="415.49" y2="304.44" stroke="#0ecb81" stroke-width="1.4" /><rect x="412.49" y="290.54" width="6" height="11.85" rx="1.5" fill="#0ecb81" /><line x1="426.23" y1="284.36" x2="426.23" y2="296.72" stroke="#0ecb81" stroke-width="1.4" /><rect x="423.23" y="286.67" width="6" height="3.86" rx="1.5" fill="#0ecb81" /><line x1="436.96" y1="286.67" x2="436.96" y2="312.17" stroke="#f6465d" stroke-width="1.4" /><rect x="433.96" y="286.67" width="6" height="13.13" rx="1.5" fill="#f6465d" /><line x1="447.70" y1="297.23" x2="447.70" y2="307.53" stroke="#f6465d" stroke-width="1.4" /><rect x="444.70" y="299.81" width="6" height="5.41" rx="1.5" fill="#f6465d" /><line x1="458.43" y1="300.32" x2="458.43" y2="312.68" stroke="#0ecb81" stroke-width="1.4" /><rect x="455.43" y="305.22" width="6" height="2.00" rx="1.5" fill="#0ecb81" /><line x1="469.16" y1="300.32" x2="469.16" y2="333.54" stroke="#f6465d" stroke-width="1.4" /><rect x="466.16" y="305.22" width="6" height="6.95" rx="1.5" fill="#f6465d" /><line x1="479.90" y1="311.91" x2="479.90" y2="326.33" stroke="#f6465d" stroke-width="1.4" /><rect x="476.90" y="312.17" width="6" height="8.24" rx="1.5" fill="#f6465d" /><line x1="490.63" y1="313.20" x2="490.63" y2="329.68" stroke="#f6465d" stroke-width="1.4" /><rect x="487.63" y="320.15" width="6" height="7.73" rx="1.5" fill="#f6465d" /><line x1="501.37" y1="318.61" x2="501.37" y2="421.36" stroke="#f6465d" stroke-width="1.4" /><rect x="498.37" y="327.88" width="6" height="58.71" rx="1.5" fill="#f6465d" /><line x1="512.10" y1="368.05" x2="512.10" y2="396.89" stroke="#0ecb81" stroke-width="1.4" /><rect x="509.10" y="381.44" width="6" height="5.41" rx="1.5" fill="#0ecb81" /><line x1="522.84" y1="373.46" x2="522.84" y2="396.63" stroke="#0ecb81" stroke-width="1.4" /><rect x="519.84" y="378.61" width="6" height="2.83" rx="1.5" fill="#0ecb81" /><line x1="533.57" y1="371.14" x2="533.57" y2="394.57" stroke="#f6465d" stroke-width="1.4" /><rect x="530.57" y="378.35" width="6" height="12.36" rx="1.5" fill="#f6465d" /><line x1="544.30" y1="382.73" x2="544.30" y2="413.12" stroke="#0ecb81" stroke-width="1.4" /><rect x="541.30" y="388.39" width="6" height="2.06" rx="1.5" fill="#0ecb81" /><line x1="555.04" y1="384.02" x2="555.04" y2="412.60" stroke="#f6465d" stroke-width="1.4" /><rect x="552.04" y="388.39" width="6" height="3.09" rx="1.5" fill="#f6465d" /><line x1="565.77" y1="378.61" x2="565.77" y2="393.03" stroke="#0ecb81" stroke-width="1.4" /><rect x="562.77" y="389.17" width="6" height="2.06" rx="1.5" fill="#0ecb81" /><line x1="576.51" y1="387.62" x2="576.51" y2="452.00" stroke="#f6465d" stroke-width="1.4" /><rect x="573.51" y="388.91" width="6" height="27.81" rx="1.5" fill="#f6465d" /><line x1="587.24" y1="414.40" x2="587.24" y2="452.00" stroke="#f6465d" stroke-width="1.4" /><rect x="584.24" y="416.98" width="6" height="22.66" rx="1.5" fill="#f6465d" /><line x1="597.97" y1="423.67" x2="597.97" y2="446.59" stroke="#0ecb81" stroke-width="1.4" /><rect x="594.97" y="429.34" width="6" height="10.30" rx="1.5" fill="#0ecb81" /><line x1="608.71" y1="419.30" x2="608.71" y2="438.61" stroke="#0ecb81" stroke-width="1.4" /><rect x="605.71" y="421.87" width="6" height="7.47" rx="1.5" fill="#0ecb81" /><line x1="619.44" y1="421.61" x2="619.44" y2="440.15" stroke="#f6465d" stroke-width="1.4" /><rect x="616.44" y="421.87" width="6" height="13.91" rx="1.5" fill="#f6465d" /><line x1="630.18" y1="426.76" x2="630.18" y2="449.17" stroke="#f6465d" stroke-width="1.4" /><rect x="627.18" y="435.78" width="6" height="2.00" rx="1.5" fill="#f6465d" /><line x1="640.91" y1="428.31" x2="640.91" y2="445.30" stroke="#f6465d" stroke-width="1.4" /><rect x="637.91" y="437.58" width="6" height="2.32" rx="1.5" fill="#f6465d" /><line x1="651.65" y1="419.30" x2="651.65" y2="441.96" stroke="#0ecb81" stroke-width="1.4" /><rect x="648.65" y="426.76" width="6" height="12.36" rx="1.5" fill="#0ecb81" /><line x1="662.38" y1="416.46" x2="662.38" y2="436.03" stroke="#f6465d" stroke-width="1.4" /><rect x="659.38" y="427.02" width="6" height="2.00" rx="1.5" fill="#f6465d" /><line x1="673.11" y1="418.01" x2="673.11" y2="429.85" stroke="#0ecb81" stroke-width="1.4" /><rect x="670.11" y="425.48" width="6" height="2.58" rx="1.5" fill="#0ecb81" /><line x1="683.85" y1="382.47" x2="683.85" y2="431.66" stroke="#0ecb81" stroke-width="1.4" /><rect x="680.85" y="393.29" width="6" height="32.45" rx="1.5" fill="#0ecb81" /><line x1="694.58" y1="388.91" x2="694.58" y2="414.15" stroke="#f6465d" stroke-width="1.4" /><rect x="691.58" y="393.54" width="6" height="15.97" rx="1.5" fill="#f6465d" /><line x1="705.32" y1="400.24" x2="705.32" y2="423.16" stroke="#0ecb81" stroke-width="1.4" /><rect x="702.32" y="407.45" width="6" height="2.06" rx="1.5" fill="#0ecb81" /><line x1="716.05" y1="400.75" x2="716.05" y2="433.97" stroke="#0ecb81" stroke-width="1.4" /><rect x="713.05" y="405.39" width="6" height="2.00" rx="1.5" fill="#0ecb81" /><line x1="726.78" y1="387.62" x2="726.78" y2="410.54" stroke="#f6465d" stroke-width="1.4" /><rect x="723.78" y="405.13" width="6" height="3.09" rx="1.5" fill="#f6465d" /><line x1="737.52" y1="399.47" x2="737.52" y2="415.69" stroke="#0ecb81" stroke-width="1.4" /><rect x="734.52" y="401.01" width="6" height="7.73" rx="1.5" fill="#0ecb81" /><line x1="748.25" y1="370.37" x2="748.25" y2="402.56" stroke="#0ecb81" stroke-width="1.4" /><rect x="745.25" y="378.61" width="6" height="22.15" rx="1.5" fill="#0ecb81" /><line x1="758.99" y1="314.74" x2="758.99" y2="381.96" stroke="#0ecb81" stroke-width="1.4" /><rect x="755.99" y="321.18" width="6" height="57.43" rx="1.5" fill="#0ecb81" /><line x1="769.72" y1="290.79" x2="769.72" y2="328.39" stroke="#0ecb81" stroke-width="1.4" /><rect x="766.72" y="305.22" width="6" height="15.71" rx="1.5" fill="#0ecb81" /><line x1="780.46" y1="293.37" x2="780.46" y2="338.44" stroke="#f6465d" stroke-width="1.4" /><rect x="777.46" y="305.47" width="6" height="3.35" rx="1.5" fill="#f6465d" /><line x1="791.19" y1="236.97" x2="791.19" y2="310.11" stroke="#0ecb81" stroke-width="1.4" /><rect x="788.19" y="256.80" width="6" height="51.76" rx="1.5" fill="#0ecb81" /><line x1="801.92" y1="143.24" x2="801.92" y2="258.61" stroke="#0ecb81" stroke-width="1.4" /><rect x="798.92" y="198.09" width="6" height="58.20" rx="1.5" fill="#0ecb81" /><line x1="812.66" y1="170.53" x2="812.66" y2="217.15" stroke="#0ecb81" stroke-width="1.4" /><rect x="809.66" y="183.93" width="6" height="14.42" rx="1.5" fill="#0ecb81" /><line x1="823.39" y1="128.30" x2="823.39" y2="212.25" stroke="#0ecb81" stroke-width="1.4" /><rect x="820.39" y="135.51" width="6" height="48.41" rx="1.5" fill="#0ecb81" /><line x1="834.13" y1="119.80" x2="834.13" y2="164.87" stroke="#f6465d" stroke-width="1.4" /><rect x="831.13" y="135.77" width="6" height="2.83" rx="1.5" fill="#f6465d" /><line x1="844.86" y1="135.51" x2="844.86" y2="194.74" stroke="#f6465d" stroke-width="1.4" /><rect x="841.86" y="138.60" width="6" height="2.00" rx="1.5" fill="#f6465d" /><line x1="855.59" y1="111.56" x2="855.59" y2="183.67" stroke="#f6465d" stroke-width="1.4" /><rect x="852.59" y="138.60" width="6" height="29.87" rx="1.5" fill="#f6465d" /><line x1="866.33" y1="117.23" x2="866.33" y2="170.53" stroke="#0ecb81" stroke-width="1.4" /><rect x="863.33" y="131.91" width="6" height="36.82" rx="1.5" fill="#0ecb81" /><line x1="877.06" y1="100.23" x2="877.06" y2="136.03" stroke="#0ecb81" stroke-width="1.4" /><rect x="874.06" y="110.79" width="6" height="20.86" rx="1.5" fill="#0ecb81" /><line x1="887.80" y1="64.44" x2="887.80" y2="123.92" stroke="#0ecb81" stroke-width="1.4" /><rect x="884.80" y="77.57" width="6" height="33.22" rx="1.5" fill="#0ecb81" /><line x1="898.53" y1="58.00" x2="898.53" y2="93.28" stroke="#f6465d" stroke-width="1.4" /><rect x="895.53" y="77.57" width="6" height="12.62" rx="1.5" fill="#f6465d" /><line x1="909.27" y1="84.52" x2="909.27" y2="130.10" stroke="#f6465d" stroke-width="1.4" /><rect x="906.27" y="90.70" width="6" height="30.64" rx="1.5" fill="#f6465d" /><line x1="920.00" y1="80.15" x2="920.00" y2="144.53" stroke="#0ecb81" stroke-width="1.4" /><rect x="917.00" y="104.87" width="6" height="16.48" rx="1.5" fill="#0ecb81" />
  <polyline points="72.00,310.88 72.00,188.05 125.67,297.49 211.54,214.05 297.42,292.60" fill="none" stroke="#2fc273" stroke-width="4" stroke-linecap="round" stroke-linejoin="round" />
  <circle cx="72.00" cy="310.88" r="5.5" fill="#2fc273" fill-opacity="0.15" stroke="#2fc273" stroke-width="2" /><text x="72.00" y="298.88" fill="#f3f4f6" font-size="15" font-weight="700" text-anchor="middle">X</text><circle cx="72.00" cy="188.05" r="5.5" fill="#2fc273" fill-opacity="0.15" stroke="#2fc273" stroke-width="2" /><text x="72.00" y="176.05" fill="#f3f4f6" font-size="15" font-weight="700" text-anchor="middle">A</text><circle cx="125.67" cy="297.49" r="5.5" fill="#2fc273" fill-opacity="0.15" stroke="#2fc273" stroke-width="2" /><text x="125.67" y="285.49" fill="#f3f4f6" font-size="15" font-weight="700" text-anchor="middle">B</text><circle cx="211.54" cy="214.05" r="5.5" fill="#2fc273" fill-opacity="0.15" stroke="#2fc273" stroke-width="2" /><text x="211.54" y="202.05" fill="#f3f4f6" font-size="15" font-weight="700" text-anchor="middle">C</text><circle cx="297.42" cy="292.60" r="5.5" fill="#2fc273" fill-opacity="0.15" stroke="#2fc273" stroke-width="2" /><text x="297.42" y="280.60" fill="#f3f4f6" font-size="15" font-weight="700" text-anchor="middle">D</text>
  <text x="56" y="492" fill="#8ba0b5" font-size="18">일반 완성 · TP1 10.846 · TP2 10.917 · SL 10.667</text>
</svg>
