<svg xmlns="http://www.w3.org/2000/svg" width="960" height="540" viewBox="0 0 960 540">
  <rect width="960" height="540" rx="24" fill="#0b1220" />
  <rect x="28" y="28" width="904" height="484" rx="22" fill="#111827" stroke="#1f2937" />
  <text x="56" y="74" fill="#f3f4f6" font-size="34" font-weight="700">RLSUSDT · AB=CD</text>
  <text x="904" y="74" fill="#8ba0b5" font-size="20" text-anchor="end">Bearish (매도) · Score 86.4</text>
  <line x1="72" y1="58" x2="920" y2="58" stroke="#223045" stroke-width="1" stroke-dasharray="4 8" /><line x1="72" y1="156" x2="920" y2="156" stroke="#223045" stroke-width="1" stroke-dasharray="4 8" /><line x1="72" y1="255" x2="920" y2="255" stroke="#223045" stroke-width="1" stroke-dasharray="4 8" /><line x1="72" y1="353" x2="920" y2="353" stroke="#223045" stroke-width="1" stroke-dasharray="4 8" /><line x1="72" y1="452" x2="920" y2="452" stroke="#223045" stroke-width="1" stroke-dasharray="4 8" />
  <rect x="484.10" y="216.75" width="84" height="25.75" fill="#fbbf24" fill-opacity="0.12" stroke="#fbbf24" stroke-width="1.5" stroke-dasharray="6 6" />
  <line x1="72.00" y1="66.46" x2="72.00" y2="94.52" stroke="#f6465d" stroke-width="1.4" /><rect x="69.00" y="72.99" width="6" height="13.45" rx="1.5" fill="#f6465d" /><line x1="82.73" y1="73.76" x2="82.73" y2="92.21" stroke="#f6465d" stroke-width="1.4" /><rect x="79.73" y="86.44" width="6" height="3.08" rx="1.5" fill="#f6465d" /><line x1="93.47" y1="88.37" x2="93.47" y2="115.66" stroke="#f6465d" stroke-width="1.4" /><rect x="90.47" y="89.14" width="6" height="21.91" rx="1.5" fill="#f6465d" /><line x1="104.20" y1="58.00" x2="104.20" y2="129.88" stroke="#0ecb81" stroke-width="1.4" /><rect x="101.20" y="67.61" width="6" height="44.20" rx="1.5" fill="#0ecb81" /><line x1="114.94" y1="65.30" x2="114.94" y2="96.05" stroke="#f6465d" stroke-width="1.4" /><rect x="111.94" y="67.99" width="6" height="5.00" rx="1.5" fill="#f6465d" /><line x1="125.67" y1="72.61" x2="125.67" y2="198.69" stroke="#f6465d" stroke-width="1.4" /><rect x="122.67" y="74.91" width="6" height="102.63" rx="1.5" fill="#f6465d" /><line x1="136.41" y1="160.25" x2="136.41" y2="240.59" stroke="#f6465d" stroke-width="1.4" /><rect x="133.41" y="177.16" width="6" height="31.52" rx="1.5" fill="#f6465d" /><line x1="147.14" y1="171.40" x2="147.14" y2="211.37" stroke="#0ecb81" stroke-width="1.4" /><rect x="144.14" y="174.85" width="6" height="33.06" rx="1.5" fill="#0ecb81" /><line x1="157.87" y1="166.01" x2="157.87" y2="194.07" stroke="#f6465d" stroke-width="1.4" /><rect x="154.87" y="174.85" width="6" height="13.07" rx="1.5" fill="#f6465d" /><line x1="168.61" y1="186.77" x2="168.61" y2="234.44" stroke="#f6465d" stroke-width="1.4" /><rect x="165.61" y="188.69" width="6" height="11.53" rx="1.5" fill="#f6465d" /><line x1="179.34" y1="197.15" x2="179.34" y2="226.75" stroke="#f6465d" stroke-width="1.4" /><rect x="176.34" y="199.46" width="6" height="24.60" rx="1.5" fill="#f6465d" /><line x1="190.08" y1="198.69" x2="190.08" y2="234.05" stroke="#0ecb81" stroke-width="1.4" /><rect x="187.08" y="221.37" width="6" height="2.31" rx="1.5" fill="#0ecb81" /><line x1="200.81" y1="220.21" x2="200.81" y2="244.04" stroke="#f6465d" stroke-width="1.4" /><rect x="197.81" y="221.37" width="6" height="9.23" rx="1.5" fill="#f6465d" /><line x1="211.54" y1="224.44" x2="211.54" y2="245.58" stroke="#f6465d" stroke-width="1.4" /><rect x="208.54" y="229.82" width="6" height="2.00" rx="1.5" fill="#f6465d" /><line x1="222.28" y1="219.83" x2="222.28" y2="241.74" stroke="#f6465d" stroke-width="1.4" /><rect x="219.28" y="230.98" width="6" height="2.69" rx="1.5" fill="#f6465d" /><line x1="233.01" y1="225.59" x2="233.01" y2="260.19" stroke="#f6465d" stroke-width="1.4" /><rect x="230.01" y="233.28" width="6" height="14.99" rx="1.5" fill="#f6465d" /><line x1="243.75" y1="235.59" x2="243.75" y2="253.27" stroke="#0ecb81" stroke-width="1.4" /><rect x="240.75" y="236.36" width="6" height="11.92" rx="1.5" fill="#0ecb81" /><line x1="254.48" y1="232.90" x2="254.48" y2="262.88" stroke="#f6465d" stroke-width="1.4" /><rect x="251.48" y="237.89" width="6" height="13.84" rx="1.5" fill="#f6465d" /><line x1="265.22" y1="224.44" x2="265.22" y2="265.96" stroke="#0ecb81" stroke-width="1.4" /><rect x="262.22" y="230.21" width="6" height="22.29" rx="1.5" fill="#0ecb81" /><line x1="275.95" y1="230.21" x2="275.95" y2="320.15" stroke="#f6465d" stroke-width="1.4" /><rect x="272.95" y="230.21" width="6" height="79.95" rx="1.5" fill="#f6465d" /><line x1="286.68" y1="287.48" x2="286.68" y2="312.85" stroke="#0ecb81" stroke-width="1.4" /><rect x="283.68" y="290.56" width="6" height="19.99" rx="1.5" fill="#0ecb81" /><line x1="297.42" y1="289.40" x2="297.42" y2="310.93" stroke="#f6465d" stroke-width="1.4" /><rect x="294.42" y="290.17" width="6" height="16.91" rx="1.5" fill="#f6465d" /><line x1="308.15" y1="294.78" x2="308.15" y2="327.46" stroke="#f6465d" stroke-width="1.4" /><rect x="305.15" y="306.70" width="6" height="16.91" rx="1.5" fill="#f6465d" /><line x1="318.89" y1="314.39" x2="318.89" y2="332.45" stroke="#0ecb81" stroke-width="1.4" /><rect x="315.89" y="316.31" width="6" height="6.92" rx="1.5" fill="#0ecb81" /><line x1="329.62" y1="304.01" x2="329.62" y2="350.91" stroke="#0ecb81" stroke-width="1.4" /><rect x="326.62" y="305.55" width="6" height="11.92" rx="1.5" fill="#0ecb81" /><line x1="340.35" y1="290.94" x2="340.35" y2="317.46" stroke="#0ecb81" stroke-width="1.4" /><rect x="337.35" y="301.32" width="6" height="3.46" rx="1.5" fill="#0ecb81" /><line x1="351.09" y1="298.63" x2="351.09" y2="330.53" stroke="#f6465d" stroke-width="1.4" /><rect x="348.09" y="300.93" width="6" height="26.14" rx="1.5" fill="#f6465d" /><line x1="361.82" y1="317.85" x2="361.82" y2="341.30" stroke="#0ecb81" stroke-width="1.4" /><rect x="358.82" y="319.00" width="6" height="9.23" rx="1.5" fill="#0ecb81" /><line x1="372.56" y1="310.93" x2="372.56" y2="335.53" stroke="#0ecb81" stroke-width="1.4" /><rect x="369.56" y="313.62" width="6" height="5.77" rx="1.5" fill="#0ecb81" /><line x1="383.29" y1="299.78" x2="383.29" y2="320.92" stroke="#0ecb81" stroke-width="1.4" /><rect x="380.29" y="303.24" width="6" height="9.61" rx="1.5" fill="#0ecb81" /><line x1="394.03" y1="242.51" x2="394.03" y2="305.93" stroke="#0ecb81" stroke-width="1.4" /><rect x="391.03" y="254.04" width="6" height="50.36" rx="1.5" fill="#0ecb81" /><line x1="404.76" y1="252.89" x2="404.76" y2="280.56" stroke="#f6465d" stroke-width="1.4" /><rect x="401.76" y="253.65" width="6" height="6.92" rx="1.5" fill="#f6465d" /><line x1="415.49" y1="246.74" x2="415.49" y2="279.41" stroke="#f6465d" stroke-width="1.4" /><rect x="412.49" y="261.34" width="6" height="2.00" rx="1.5" fill="#f6465d" /><line x1="426.23" y1="243.28" x2="426.23" y2="277.49" stroke="#f6465d" stroke-width="1.4" /><rect x="423.23" y="262.50" width="6" height="12.30" rx="1.5" fill="#f6465d" /><line x1="436.96" y1="273.64" x2="436.96" y2="295.94" stroke="#f6465d" stroke-width="1.4" /><rect x="433.96" y="274.03" width="6" height="15.38" rx="1.5" fill="#f6465d" /><line x1="447.70" y1="266.72" x2="447.70" y2="291.32" stroke="#0ecb81" stroke-width="1.4" /><rect x="444.70" y="282.48" width="6" height="6.53" rx="1.5" fill="#0ecb81" /><line x1="458.43" y1="265.57" x2="458.43" y2="286.71" stroke="#0ecb81" stroke-width="1.4" /><rect x="455.43" y="273.64" width="6" height="8.84" rx="1.5" fill="#0ecb81" /><line x1="469.16" y1="250.20" x2="469.16" y2="284.79" stroke="#0ecb81" stroke-width="1.4" /><rect x="466.16" y="259.04" width="6" height="14.61" rx="1.5" fill="#0ecb81" /><line x1="479.90" y1="254.81" x2="479.90" y2="285.94" stroke="#f6465d" stroke-width="1.4" /><rect x="476.90" y="259.04" width="6" height="22.68" rx="1.5" fill="#f6465d" /><line x1="490.63" y1="263.65" x2="490.63" y2="288.25" stroke="#0ecb81" stroke-width="1.4" /><rect x="487.63" y="264.03" width="6" height="18.84" rx="1.5" fill="#0ecb81" /><line x1="501.37" y1="260.96" x2="501.37" y2="276.33" stroke="#f6465d" stroke-width="1.4" /><rect x="498.37" y="263.65" width="6" height="5.00" rx="1.5" fill="#f6465d" /><line x1="512.10" y1="248.66" x2="512.10" y2="282.87" stroke="#f6465d" stroke-width="1.4" /><rect x="509.10" y="268.26" width="6" height="10.76" rx="1.5" fill="#f6465d" /><line x1="522.84" y1="269.80" x2="522.84" y2="288.25" stroke="#f6465d" stroke-width="1.4" /><rect x="519.84" y="279.02" width="6" height="3.84" rx="1.5" fill="#f6465d" /><line x1="533.57" y1="273.26" x2="533.57" y2="330.92" stroke="#f6465d" stroke-width="1.4" /><rect x="530.57" y="282.87" width="6" height="27.29" rx="1.5" fill="#f6465d" /><line x1="544.30" y1="302.09" x2="544.30" y2="321.31" stroke="#f6465d" stroke-width="1.4" /><rect x="541.30" y="310.54" width="6" height="2.00" rx="1.5" fill="#f6465d" /><line x1="555.04" y1="310.54" x2="555.04" y2="346.29" stroke="#f6465d" stroke-width="1.4" /><rect x="552.04" y="311.70" width="6" height="27.29" rx="1.5" fill="#f6465d" /><line x1="565.77" y1="326.69" x2="565.77" y2="343.22" stroke="#0ecb81" stroke-width="1.4" /><rect x="562.77" y="335.91" width="6" height="2.00" rx="1.5" fill="#0ecb81" /><line x1="576.51" y1="332.45" x2="576.51" y2="367.05" stroke="#f6465d" stroke-width="1.4" /><rect x="573.51" y="335.91" width="6" height="13.45" rx="1.5" fill="#f6465d" /><line x1="587.24" y1="335.91" x2="587.24" y2="353.98" stroke="#0ecb81" stroke-width="1.4" /><rect x="584.24" y="345.14" width="6" height="3.84" rx="1.5" fill="#0ecb81" /><line x1="597.97" y1="331.30" x2="597.97" y2="353.98" stroke="#0ecb81" stroke-width="1.4" /><rect x="594.97" y="337.84" width="6" height="7.69" rx="1.5" fill="#0ecb81" /><line x1="608.71" y1="331.69" x2="608.71" y2="347.83" stroke="#0ecb81" stroke-width="1.4" /><rect x="605.71" y="336.30" width="6" height="2.00" rx="1.5" fill="#0ecb81" /><line x1="619.44" y1="330.53" x2="619.44" y2="346.68" stroke="#0ecb81" stroke-width="1.4" /><rect x="616.44" y="335.53" width="6" height="2.00" rx="1.5" fill="#0ecb81" /><line x1="630.18" y1="318.23" x2="630.18" y2="338.22" stroke="#0ecb81" stroke-width="1.4" /><rect x="627.18" y="330.53" width="6" height="4.23" rx="1.5" fill="#0ecb81" /><line x1="640.91" y1="321.31" x2="640.91" y2="345.52" stroke="#f6465d" stroke-width="1.4" /><rect x="637.91" y="329.76" width="6" height="9.99" rx="1.5" fill="#f6465d" /><line x1="651.65" y1="322.46" x2="651.65" y2="340.91" stroke="#0ecb81" stroke-width="1.4" /><rect x="648.65" y="329.38" width="6" height="9.61" rx="1.5" fill="#0ecb81" /><line x1="662.38" y1="306.32" x2="662.38" y2="330.15" stroke="#0ecb81" stroke-width="1.4" /><rect x="659.38" y="308.62" width="6" height="19.60" rx="1.5" fill="#0ecb81" /><line x1="673.11" y1="308.24" x2="673.11" y2="327.07" stroke="#f6465d" stroke-width="1.4" /><rect x="670.11" y="309.01" width="6" height="3.08" rx="1.5" fill="#f6465d" /><line x1="683.85" y1="310.93" x2="683.85" y2="323.23" stroke="#f6465d" stroke-width="1.4" /><rect x="680.85" y="312.08" width="6" height="3.46" rx="1.5" fill="#f6465d" /><line x1="694.58" y1="315.16" x2="694.58" y2="332.84" stroke="#f6465d" stroke-width="1.4" /><rect x="691.58" y="315.54" width="6" height="14.99" rx="1.5" fill="#f6465d" /><line x1="705.32" y1="311.70" x2="705.32" y2="357.82" stroke="#f6465d" stroke-width="1.4" /><rect x="702.32" y="331.30" width="6" height="20.76" rx="1.5" fill="#f6465d" /><line x1="716.05" y1="339.37" x2="716.05" y2="387.04" stroke="#0ecb81" stroke-width="1.4" /><rect x="713.05" y="340.91" width="6" height="9.23" rx="1.5" fill="#0ecb81" /><line x1="726.78" y1="312.85" x2="726.78" y2="344.76" stroke="#0ecb81" stroke-width="1.4" /><rect x="723.78" y="331.30" width="6" height="9.99" rx="1.5" fill="#0ecb81" /><line x1="737.52" y1="326.69" x2="737.52" y2="353.60" stroke="#f6465d" stroke-width="1.4" /><rect x="734.52" y="331.30" width="6" height="16.14" rx="1.5" fill="#f6465d" /><line x1="748.25" y1="344.76" x2="748.25" y2="363.97" stroke="#f6465d" stroke-width="1.4" /><rect x="745.25" y="346.29" width="6" height="16.91" rx="1.5" fill="#f6465d" /><line x1="758.99" y1="355.90" x2="758.99" y2="373.20" stroke="#0ecb81" stroke-width="1.4" /><rect x="755.99" y="361.28" width="6" height="2.00" rx="1.5" fill="#0ecb81" /><line x1="769.72" y1="344.76" x2="769.72" y2="362.44" stroke="#0ecb81" stroke-width="1.4" /><rect x="766.72" y="358.59" width="6" height="3.08" rx="1.5" fill="#0ecb81" /><line x1="780.46" y1="352.83" x2="780.46" y2="379.73" stroke="#f6465d" stroke-width="1.4" /><rect x="777.46" y="358.98" width="6" height="16.91" rx="1.5" fill="#f6465d" /><line x1="791.19" y1="361.28" x2="791.19" y2="378.20" stroke="#f6465d" stroke-width="1.4" /><rect x="788.19" y="376.28" width="6" height="2.00" rx="1.5" fill="#f6465d" /><line x1="801.92" y1="371.66" x2="801.92" y2="403.95" stroke="#f6465d" stroke-width="1.4" /><rect x="798.92" y="375.89" width="6" height="19.99" rx="1.5" fill="#f6465d" /><line x1="812.66" y1="389.73" x2="812.66" y2="426.63" stroke="#f6465d" stroke-width="1.4" /><rect x="809.66" y="395.49" width="6" height="23.45" rx="1.5" fill="#f6465d" /><line x1="823.39" y1="406.64" x2="823.39" y2="442.39" stroke="#f6465d" stroke-width="1.4" /><rect x="820.39" y="419.33" width="6" height="6.15" rx="1.5" fill="#f6465d" /><line x1="834.13" y1="413.18" x2="834.13" y2="433.55" stroke="#f6465d" stroke-width="1.4" /><rect x="831.13" y="424.71" width="6" height="2.00" rx="1.5" fill="#f6465d" /><line x1="844.86" y1="412.41" x2="844.86" y2="432.01" stroke="#0ecb81" stroke-width="1.4" /><rect x="841.86" y="419.71" width="6" height="5.77" rx="1.5" fill="#0ecb81" /><line x1="855.59" y1="411.64" x2="855.59" y2="426.25" stroke="#0ecb81" stroke-width="1.4" /><rect x="852.59" y="415.48" width="6" height="3.84" rx="1.5" fill="#0ecb81" /><line x1="866.33" y1="404.72" x2="866.33" y2="426.63" stroke="#f6465d" stroke-width="1.4" /><rect x="863.33" y="415.48" width="6" height="7.69" rx="1.5" fill="#f6465d" /><line x1="877.06" y1="420.48" x2="877.06" y2="441.62" stroke="#f6465d" stroke-width="1.4" /><rect x="874.06" y="423.17" width="6" height="10.76" rx="1.5" fill="#f6465d" /><line x1="887.80" y1="433.16" x2="887.80" y2="443.54" stroke="#f6465d" stroke-width="1.4" /><rect x="884.80" y="433.93" width="6" height="3.84" rx="1.5" fill="#f6465d" /><line x1="898.53" y1="428.17" x2="898.53" y2="443.16" stroke="#f6465d" stroke-width="1.4" /><rect x="895.53" y="438.16" width="6" height="4.61" rx="1.5" fill="#f6465d" /><line x1="909.27" y1="432.01" x2="909.27" y2="452.00" stroke="#f6465d" stroke-width="1.4" /><rect x="906.27" y="442.77" width="6" height="2.00" rx="1.5" fill="#f6465d" /><line x1="920.00" y1="435.47" x2="920.00" y2="449.31" stroke="#0ecb81" stroke-width="1.4" /><rect x="917.00" y="440.85" width="6" height="2.69" rx="1.5" fill="#0ecb81" />
  <polyline points="394.03,242.51 436.96,295.94 469.16,250.20 490.63,288.25 512.10,248.66" fill="none" stroke="#2fc273" stroke-width="4" stroke-linecap="round" stroke-linejoin="round" />
  <circle cx="394.03" cy="242.51" r="5.5" fill="#2fc273" fill-opacity="0.15" stroke="#2fc273" stroke-width="2" /><text x="394.03" y="230.51" fill="#f3f4f6" font-size="15" font-weight="700" text-anchor="middle">X</text><circle cx="436.96" cy="295.94" r="5.5" fill="#2fc273" fill-opacity="0.15" stroke="#2fc273" stroke-width="2" /><text x="436.96" y="283.94" fill="#f3f4f6" font-size="15" font-weight="700" text-anchor="middle">A</text><circle cx="469.16" cy="250.20" r="5.5" fill="#2fc273" fill-opacity="0.15" stroke="#2fc273" stroke-width="2" /><text x="469.16" y="238.20" fill="#f3f4f6" font-size="15" font-weight="700" text-anchor="middle">B</text><circle cx="490.63" cy="288.25" r="5.5" fill="#2fc273" fill-opacity="0.15" stroke="#2fc273" stroke-width="2" /><text x="490.63" y="276.25" fill="#f3f4f6" font-size="15" font-weight="700" text-anchor="middle">C</text><circle cx="512.10" cy="248.66" r="5.5" fill="#2fc273" fill-opacity="0.15" stroke="#2fc273" stroke-width="2" /><text x="512.10" y="236.66" fill="#f3f4f6" font-size="15" font-weight="700" text-anchor="middle">D</text>
  <text x="56" y="492" fill="#8ba0b5" font-size="18">일반 완성 · TP1 0.004187 · TP2 0.004162 · SL 0.004244</text>
</svg>
