<svg xmlns="http://www.w3.org/2000/svg" width="960" height="540" viewBox="0 0 960 540">
  <rect width="960" height="540" rx="24" fill="#0b1220" />
  <rect x="28" y="28" width="904" height="484" rx="22" fill="#111827" stroke="#1f2937" />
  <text x="56" y="74" fill="#f3f4f6" font-size="34" font-weight="700">RLSUSDT · AB=CD</text>
  <text x="904" y="74" fill="#8ba0b5" font-size="20" text-anchor="end">Bullish (매수) · Score 76.5</text>
  <line x1="72" y1="58" x2="920" y2="58" stroke="#223045" stroke-width="1" stroke-dasharray="4 8" /><line x1="72" y1="156" x2="920" y2="156" stroke="#223045" stroke-width="1" stroke-dasharray="4 8" /><line x1="72" y1="255" x2="920" y2="255" stroke="#223045" stroke-width="1" stroke-dasharray="4 8" /><line x1="72" y1="353" x2="920" y2="353" stroke="#223045" stroke-width="1" stroke-dasharray="4 8" /><line x1="72" y1="452" x2="920" y2="452" stroke="#223045" stroke-width="1" stroke-dasharray="4 8" />
  <rect x="408.96" y="306.95" width="84" height="34.11" fill="#fbbf24" fill-opacity="0.12" stroke="#fbbf24" stroke-width="1.5" stroke-dasharray="6 6" />
  <line x1="72.00" y1="261.94" x2="72.00" y2="312.23" stroke="#0ecb81" stroke-width="1.4" /><rect x="69.00" y="283.75" width="6" height="27.60" rx="1.5" fill="#0ecb81" /><line x1="82.73" y1="283.92" x2="82.73" y2="303.09" stroke="#f6465d" stroke-width="1.4" /><rect x="79.73" y="283.92" width="6" height="11.43" rx="1.5" fill="#f6465d" /><line x1="93.47" y1="290.25" x2="93.47" y2="299.04" stroke="#0ecb81" stroke-width="1.4" /><rect x="90.47" y="294.82" width="6" height="2.00" rx="1.5" fill="#0ecb81" /><line x1="104.20" y1="289.55" x2="104.20" y2="300.45" stroke="#f6465d" stroke-width="1.4" /><rect x="101.20" y="295.35" width="6" height="4.57" rx="1.5" fill="#f6465d" /><line x1="114.94" y1="292.71" x2="114.94" y2="303.96" stroke="#f6465d" stroke-width="1.4" /><rect x="111.94" y="299.39" width="6" height="3.69" rx="1.5" fill="#f6465d" /><line x1="125.67" y1="300.27" x2="125.67" y2="308.71" stroke="#0ecb81" stroke-width="1.4" /><rect x="122.67" y="303.26" width="6" height="2.00" rx="1.5" fill="#0ecb81" /><line x1="136.41" y1="295.88" x2="136.41" y2="303.44" stroke="#0ecb81" stroke-width="1.4" /><rect x="133.41" y="302.21" width="6" height="2.00" rx="1.5" fill="#0ecb81" /><line x1="147.14" y1="302.38" x2="147.14" y2="313.99" stroke="#f6465d" stroke-width="1.4" /><rect x="144.14" y="302.38" width="6" height="9.49" rx="1.5" fill="#f6465d" /><line x1="157.87" y1="307.66" x2="157.87" y2="320.14" stroke="#f6465d" stroke-width="1.4" /><rect x="154.87" y="311.17" width="6" height="3.34" rx="1.5" fill="#f6465d" /><line x1="168.61" y1="306.95" x2="168.61" y2="318.73" stroke="#0ecb81" stroke-width="1.4" /><rect x="165.61" y="314.16" width="6" height="2.00" rx="1.5" fill="#0ecb81" /><line x1="179.34" y1="300.10" x2="179.34" y2="316.45" stroke="#0ecb81" stroke-width="1.4" /><rect x="176.34" y="306.07" width="6" height="7.91" rx="1.5" fill="#0ecb81" /><line x1="190.08" y1="300.10" x2="190.08" y2="309.59" stroke="#0ecb81" stroke-width="1.4" /><rect x="187.08" y="302.21" width="6" height="3.16" rx="1.5" fill="#0ecb81" /><line x1="200.81" y1="299.39" x2="200.81" y2="303.09" stroke="#0ecb81" stroke-width="1.4" /><rect x="197.81" y="299.92" width="6" height="2.29" rx="1.5" fill="#0ecb81" /><line x1="211.54" y1="299.04" x2="211.54" y2="329.98" stroke="#f6465d" stroke-width="1.4" /><rect x="208.54" y="299.74" width="6" height="19.34" rx="1.5" fill="#f6465d" /><line x1="222.28" y1="309.24" x2="222.28" y2="322.25" stroke="#0ecb81" stroke-width="1.4" /><rect x="219.28" y="311.00" width="6" height="7.91" rx="1.5" fill="#0ecb81" /><line x1="233.01" y1="307.66" x2="233.01" y2="318.56" stroke="#f6465d" stroke-width="1.4" /><rect x="230.01" y="310.65" width="6" height="2.81" rx="1.5" fill="#f6465d" /><line x1="243.75" y1="305.90" x2="243.75" y2="320.67" stroke="#f6465d" stroke-width="1.4" /><rect x="240.75" y="313.46" width="6" height="5.45" rx="1.5" fill="#f6465d" /><line x1="254.48" y1="318.56" x2="254.48" y2="330.34" stroke="#f6465d" stroke-width="1.4" /><rect x="251.48" y="319.08" width="6" height="3.87" rx="1.5" fill="#f6465d" /><line x1="265.22" y1="276.19" x2="265.22" y2="322.78" stroke="#0ecb81" stroke-width="1.4" /><rect x="262.22" y="283.92" width="6" height="38.50" rx="1.5" fill="#0ecb81" /><line x1="275.95" y1="258.60" x2="275.95" y2="293.59" stroke="#f6465d" stroke-width="1.4" /><rect x="272.95" y="284.98" width="6" height="2.00" rx="1.5" fill="#f6465d" /><line x1="286.68" y1="280.76" x2="286.68" y2="288.49" stroke="#0ecb81" stroke-width="1.4" /><rect x="283.68" y="284.45" width="6" height="2.46" rx="1.5" fill="#0ecb81" /><line x1="297.42" y1="282.16" x2="297.42" y2="295.88" stroke="#f6465d" stroke-width="1.4" /><rect x="294.42" y="284.98" width="6" height="7.56" rx="1.5" fill="#f6465d" /><line x1="308.15" y1="292.18" x2="308.15" y2="302.38" stroke="#f6465d" stroke-width="1.4" /><rect x="305.15" y="292.18" width="6" height="5.45" rx="1.5" fill="#f6465d" /><line x1="318.89" y1="290.07" x2="318.89" y2="301.15" stroke="#f6465d" stroke-width="1.4" /><rect x="315.89" y="297.63" width="6" height="2.11" rx="1.5" fill="#f6465d" /><line x1="329.62" y1="295.17" x2="329.62" y2="303.26" stroke="#f6465d" stroke-width="1.4" /><rect x="326.62" y="299.74" width="6" height="2.00" rx="1.5" fill="#f6465d" /><line x1="340.35" y1="290.07" x2="340.35" y2="303.96" stroke="#0ecb81" stroke-width="1.4" /><rect x="337.35" y="293.59" width="6" height="6.68" rx="1.5" fill="#0ecb81" /><line x1="351.09" y1="283.22" x2="351.09" y2="297.63" stroke="#0ecb81" stroke-width="1.4" /><rect x="348.09" y="290.25" width="6" height="3.69" rx="1.5" fill="#0ecb81" /><line x1="361.82" y1="278.30" x2="361.82" y2="298.51" stroke="#0ecb81" stroke-width="1.4" /><rect x="358.82" y="285.33" width="6" height="4.22" rx="1.5" fill="#0ecb81" /><line x1="372.56" y1="270.56" x2="372.56" y2="287.79" stroke="#0ecb81" stroke-width="1.4" /><rect x="369.56" y="283.22" width="6" height="2.00" rx="1.5" fill="#0ecb81" /><line x1="383.29" y1="273.37" x2="383.29" y2="284.27" stroke="#0ecb81" stroke-width="1.4" /><rect x="380.29" y="282.51" width="6" height="2.00" rx="1.5" fill="#0ecb81" /><line x1="394.03" y1="261.59" x2="394.03" y2="283.04" stroke="#0ecb81" stroke-width="1.4" /><rect x="391.03" y="279.00" width="6" height="3.16" rx="1.5" fill="#0ecb81" /><line x1="404.76" y1="270.38" x2="404.76" y2="285.15" stroke="#f6465d" stroke-width="1.4" /><rect x="401.76" y="278.30" width="6" height="5.27" rx="1.5" fill="#f6465d" /><line x1="415.49" y1="268.10" x2="415.49" y2="284.10" stroke="#0ecb81" stroke-width="1.4" /><rect x="412.49" y="278.30" width="6" height="4.75" rx="1.5" fill="#0ecb81" /><line x1="426.23" y1="273.72" x2="426.23" y2="294.12" stroke="#f6465d" stroke-width="1.4" /><rect x="423.23" y="278.65" width="6" height="13.19" rx="1.5" fill="#f6465d" /><line x1="436.96" y1="289.72" x2="436.96" y2="318.21" stroke="#f6465d" stroke-width="1.4" /><rect x="433.96" y="291.48" width="6" height="8.97" rx="1.5" fill="#f6465d" /><line x1="447.70" y1="162.08" x2="447.70" y2="300.80" stroke="#0ecb81" stroke-width="1.4" /><rect x="444.70" y="184.94" width="6" height="115.33" rx="1.5" fill="#0ecb81" /><line x1="458.43" y1="90.88" x2="458.43" y2="186.52" stroke="#0ecb81" stroke-width="1.4" /><rect x="455.43" y="177.91" width="6" height="8.26" rx="1.5" fill="#0ecb81" /><line x1="469.16" y1="156.81" x2="469.16" y2="197.60" stroke="#0ecb81" stroke-width="1.4" /><rect x="466.16" y="166.30" width="6" height="12.31" rx="1.5" fill="#0ecb81" /><line x1="479.90" y1="150.83" x2="479.90" y2="182.12" stroke="#f6465d" stroke-width="1.4" /><rect x="476.90" y="166.48" width="6" height="8.79" rx="1.5" fill="#f6465d" /><line x1="490.63" y1="149.78" x2="490.63" y2="181.07" stroke="#0ecb81" stroke-width="1.4" /><rect x="487.63" y="170.35" width="6" height="4.57" rx="1.5" fill="#0ecb81" /><line x1="501.37" y1="158.57" x2="501.37" y2="177.73" stroke="#0ecb81" stroke-width="1.4" /><rect x="498.37" y="166.13" width="6" height="2.81" rx="1.5" fill="#0ecb81" /><line x1="512.10" y1="157.16" x2="512.10" y2="172.81" stroke="#f6465d" stroke-width="1.4" /><rect x="509.10" y="165.25" width="6" height="3.52" rx="1.5" fill="#f6465d" /><line x1="522.84" y1="165.07" x2="522.84" y2="179.66" stroke="#f6465d" stroke-width="1.4" /><rect x="519.84" y="168.59" width="6" height="6.51" rx="1.5" fill="#f6465d" /><line x1="533.57" y1="166.65" x2="533.57" y2="193.55" stroke="#f6465d" stroke-width="1.4" /><rect x="530.57" y="174.39" width="6" height="8.44" rx="1.5" fill="#f6465d" /><line x1="544.30" y1="157.86" x2="544.30" y2="186.34" stroke="#0ecb81" stroke-width="1.4" /><rect x="541.30" y="178.78" width="6" height="3.52" rx="1.5" fill="#0ecb81" /><line x1="555.04" y1="177.03" x2="555.04" y2="192.50" stroke="#f6465d" stroke-width="1.4" /><rect x="552.04" y="178.08" width="6" height="6.51" rx="1.5" fill="#f6465d" /><line x1="565.77" y1="162.43" x2="565.77" y2="187.75" stroke="#0ecb81" stroke-width="1.4" /><rect x="562.77" y="172.63" width="6" height="11.96" rx="1.5" fill="#0ecb81" /><line x1="576.51" y1="167.88" x2="576.51" y2="179.84" stroke="#0ecb81" stroke-width="1.4" /><rect x="573.51" y="170.52" width="6" height="2.46" rx="1.5" fill="#0ecb81" /><line x1="587.24" y1="161.20" x2="587.24" y2="180.02" stroke="#0ecb81" stroke-width="1.4" /><rect x="584.24" y="168.76" width="6" height="2.00" rx="1.5" fill="#0ecb81" /><line x1="597.97" y1="159.62" x2="597.97" y2="171.22" stroke="#0ecb81" stroke-width="1.4" /><rect x="594.97" y="166.83" width="6" height="2.00" rx="1.5" fill="#0ecb81" /><line x1="608.71" y1="58.00" x2="608.71" y2="167.71" stroke="#0ecb81" stroke-width="1.4" /><rect x="605.71" y="108.81" width="6" height="58.19" rx="1.5" fill="#0ecb81" /><line x1="619.44" y1="93.69" x2="619.44" y2="180.54" stroke="#f6465d" stroke-width="1.4" /><rect x="616.44" y="108.46" width="6" height="47.47" rx="1.5" fill="#f6465d" /><line x1="630.18" y1="149.07" x2="630.18" y2="192.67" stroke="#f6465d" stroke-width="1.4" /><rect x="627.18" y="156.10" width="6" height="12.31" rx="1.5" fill="#f6465d" /><line x1="640.91" y1="147.67" x2="640.91" y2="239.44" stroke="#f6465d" stroke-width="1.4" /><rect x="637.91" y="168.24" width="6" height="31.29" rx="1.5" fill="#f6465d" /><line x1="651.65" y1="182.12" x2="651.65" y2="243.13" stroke="#f6465d" stroke-width="1.4" /><rect x="648.65" y="199.18" width="6" height="22.33" rx="1.5" fill="#f6465d" /><line x1="662.38" y1="193.20" x2="662.38" y2="224.50" stroke="#0ecb81" stroke-width="1.4" /><rect x="659.38" y="194.61" width="6" height="26.37" rx="1.5" fill="#0ecb81" /><line x1="673.11" y1="189.33" x2="673.11" y2="244.89" stroke="#f6465d" stroke-width="1.4" /><rect x="670.11" y="194.61" width="6" height="48.00" rx="1.5" fill="#f6465d" /><line x1="683.85" y1="226.08" x2="683.85" y2="257.02" stroke="#0ecb81" stroke-width="1.4" /><rect x="680.85" y="236.63" width="6" height="5.63" rx="1.5" fill="#0ecb81" /><line x1="694.58" y1="228.36" x2="694.58" y2="297.11" stroke="#f6465d" stroke-width="1.4" /><rect x="691.58" y="236.98" width="6" height="41.32" rx="1.5" fill="#f6465d" /><line x1="705.32" y1="271.26" x2="705.32" y2="315.22" stroke="#f6465d" stroke-width="1.4" /><rect x="702.32" y="278.47" width="6" height="15.47" rx="1.5" fill="#f6465d" /><line x1="716.05" y1="288.67" x2="716.05" y2="359.87" stroke="#f6465d" stroke-width="1.4" /><rect x="713.05" y="294.12" width="6" height="52.04" rx="1.5" fill="#f6465d" /><line x1="726.78" y1="340.71" x2="726.78" y2="406.11" stroke="#f6465d" stroke-width="1.4" /><rect x="723.78" y="345.81" width="6" height="48.70" rx="1.5" fill="#f6465d" /><line x1="737.52" y1="354.77" x2="737.52" y2="406.46" stroke="#0ecb81" stroke-width="1.4" /><rect x="734.52" y="358.47" width="6" height="36.39" rx="1.5" fill="#0ecb81" /><line x1="748.25" y1="330.34" x2="748.25" y2="390.99" stroke="#f6465d" stroke-width="1.4" /><rect x="745.25" y="358.47" width="6" height="29.71" rx="1.5" fill="#f6465d" /><line x1="758.99" y1="367.78" x2="758.99" y2="420.35" stroke="#0ecb81" stroke-width="1.4" /><rect x="755.99" y="375.17" width="6" height="12.48" rx="1.5" fill="#0ecb81" /><line x1="769.72" y1="339.30" x2="769.72" y2="376.58" stroke="#0ecb81" stroke-width="1.4" /><rect x="766.72" y="360.22" width="6" height="14.94" rx="1.5" fill="#0ecb81" /><line x1="780.46" y1="331.22" x2="780.46" y2="368.31" stroke="#0ecb81" stroke-width="1.4" /><rect x="777.46" y="349.50" width="6" height="10.02" rx="1.5" fill="#0ecb81" /><line x1="791.19" y1="332.80" x2="791.19" y2="353.90" stroke="#0ecb81" stroke-width="1.4" /><rect x="788.19" y="342.12" width="6" height="7.56" rx="1.5" fill="#0ecb81" /><line x1="801.92" y1="334.91" x2="801.92" y2="349.68" stroke="#f6465d" stroke-width="1.4" /><rect x="798.92" y="342.29" width="6" height="2.00" rx="1.5" fill="#f6465d" /><line x1="812.66" y1="299.74" x2="812.66" y2="354.42" stroke="#0ecb81" stroke-width="1.4" /><rect x="809.66" y="305.02" width="6" height="38.33" rx="1.5" fill="#0ecb81" /><line x1="823.39" y1="305.20" x2="823.39" y2="339.65" stroke="#f6465d" stroke-width="1.4" /><rect x="820.39" y="305.90" width="6" height="16.53" rx="1.5" fill="#f6465d" /><line x1="834.13" y1="318.73" x2="834.13" y2="345.28" stroke="#f6465d" stroke-width="1.4" /><rect x="831.13" y="322.07" width="6" height="16.53" rx="1.5" fill="#f6465d" /><line x1="844.86" y1="327.88" x2="844.86" y2="389.23" stroke="#f6465d" stroke-width="1.4" /><rect x="841.86" y="338.60" width="6" height="45.89" rx="1.5" fill="#f6465d" /><line x1="855.59" y1="376.40" x2="855.59" y2="452.00" stroke="#f6465d" stroke-width="1.4" /><rect x="852.59" y="385.37" width="6" height="41.84" rx="1.5" fill="#f6465d" /><line x1="866.33" y1="416.84" x2="866.33" y2="434.77" stroke="#0ecb81" stroke-width="1.4" /><rect x="863.33" y="424.40" width="6" height="2.46" rx="1.5" fill="#0ecb81" /><line x1="877.06" y1="393.98" x2="877.06" y2="427.03" stroke="#0ecb81" stroke-width="1.4" /><rect x="874.06" y="406.99" width="6" height="17.41" rx="1.5" fill="#0ecb81" /><line x1="887.80" y1="403.12" x2="887.80" y2="448.13" stroke="#f6465d" stroke-width="1.4" /><rect x="884.80" y="407.52" width="6" height="36.04" rx="1.5" fill="#f6465d" /><line x1="898.53" y1="406.82" x2="898.53" y2="447.25" stroke="#0ecb81" stroke-width="1.4" /><rect x="895.53" y="414.55" width="6" height="29.36" rx="1.5" fill="#0ecb81" /><line x1="909.27" y1="388.71" x2="909.27" y2="419.30" stroke="#0ecb81" stroke-width="1.4" /><rect x="906.27" y="395.04" width="6" height="20.04" rx="1.5" fill="#0ecb81" /><line x1="920.00" y1="395.39" x2="920.00" y2="412.27" stroke="#f6465d" stroke-width="1.4" /><rect x="917.00" y="395.39" width="6" height="14.07" rx="1.5" fill="#f6465d" />
  <polyline points="254.48,330.34 275.95,258.60 340.35,303.96 394.03,261.59 436.96,318.21" fill="none" stroke="#2fc273" stroke-width="4" stroke-linecap="round" stroke-linejoin="round" />
  <circle cx="254.48" cy="330.34" r="5.5" fill="#2fc273" fill-opacity="0.15" stroke="#2fc273" stroke-width="2" /><text x="254.48" y="318.34" fill="#f3f4f6" font-size="15" font-weight="700" text-anchor="middle">X</text><circle cx="275.95" cy="258.60" r="5.5" fill="#2fc273" fill-opacity="0.15" stroke="#2fc273" stroke-width="2" /><text x="275.95" y="246.60" fill="#f3f4f6" font-size="15" font-weight="700" text-anchor="middle">A</text><circle cx="340.35" cy="303.96" r="5.5" fill="#2fc273" fill-opacity="0.15" stroke="#2fc273" stroke-width="2" /><text x="340.35" y="291.96" fill="#f3f4f6" font-size="15" font-weight="700" text-anchor="middle">B</text><circle cx="394.03" cy="261.59" r="5.5" fill="#2fc273" fill-opacity="0.15" stroke="#2fc273" stroke-width="2" /><text x="394.03" y="249.59" fill="#f3f4f6" font-size="15" font-weight="700" text-anchor="middle">C</text><circle cx="436.96" cy="318.21" r="5.5" fill="#2fc273" fill-opacity="0.15" stroke="#2fc273" stroke-width="2" /><text x="436.96" y="306.21" fill="#f3f4f6" font-size="15" font-weight="700" text-anchor="middle">D</text>
  <text x="56" y="492" fill="#8ba0b5" font-size="18">실시간 터치 · TP1 0.005575 · TP2 0.005651 · SL 0.005399</text>
</svg>
