<svg xmlns="http://www.w3.org/2000/svg" width="960" height="540" viewBox="0 0 960 540">
  <rect width="960" height="540" rx="24" fill="#0b1220" />
  <rect x="28" y="28" width="904" height="484" rx="22" fill="#111827" stroke="#1f2937" />
  <text x="56" y="74" fill="#f3f4f6" font-size="34" font-weight="700">SIGNUSDT · AB=CD</text>
  <text x="904" y="74" fill="#8ba0b5" font-size="20" text-anchor="end">Bearish (매도) · Score 82.6</text>
  <line x1="72" y1="58" x2="920" y2="58" stroke="#223045" stroke-width="1" stroke-dasharray="4 8" /><line x1="72" y1="156" x2="920" y2="156" stroke="#223045" stroke-width="1" stroke-dasharray="4 8" /><line x1="72" y1="255" x2="920" y2="255" stroke="#223045" stroke-width="1" stroke-dasharray="4 8" /><line x1="72" y1="353" x2="920" y2="353" stroke="#223045" stroke-width="1" stroke-dasharray="4 8" /><line x1="72" y1="452" x2="920" y2="452" stroke="#223045" stroke-width="1" stroke-dasharray="4 8" />
  <rect x="280.15" y="16.82" width="84" height="48.75" fill="#fbbf24" fill-opacity="0.12" stroke="#fbbf24" stroke-width="1.5" stroke-dasharray="6 6" />
  <line x1="72.00" y1="200.46" x2="72.00" y2="222.72" stroke="#f6465d" stroke-width="1.4" /><rect x="69.00" y="203.80" width="6" height="18.92" rx="1.5" fill="#f6465d" /><line x1="82.73" y1="216.05" x2="82.73" y2="230.51" stroke="#0ecb81" stroke-width="1.4" /><rect x="79.73" y="217.16" width="6" height="5.56" rx="1.5" fill="#0ecb81" /><line x1="93.47" y1="213.82" x2="93.47" y2="221.61" stroke="#0ecb81" stroke-width="1.4" /><rect x="90.47" y="216.05" width="6" height="2.00" rx="1.5" fill="#0ecb81" /><line x1="104.20" y1="211.59" x2="104.20" y2="221.61" stroke="#f6465d" stroke-width="1.4" /><rect x="101.20" y="217.16" width="6" height="2.23" rx="1.5" fill="#f6465d" /><line x1="114.94" y1="208.25" x2="114.94" y2="219.38" stroke="#0ecb81" stroke-width="1.4" /><rect x="111.94" y="219.38" width="6" height="2.00" rx="1.5" fill="#0ecb81" /><line x1="125.67" y1="204.92" x2="125.67" y2="218.27" stroke="#0ecb81" stroke-width="1.4" /><rect x="122.67" y="204.92" width="6" height="12.24" rx="1.5" fill="#0ecb81" /><line x1="136.41" y1="201.58" x2="136.41" y2="204.92" stroke="#0ecb81" stroke-width="1.4" /><rect x="133.41" y="202.69" width="6" height="2.00" rx="1.5" fill="#0ecb81" /><line x1="147.14" y1="198.24" x2="147.14" y2="203.80" stroke="#0ecb81" stroke-width="1.4" /><rect x="144.14" y="198.24" width="6" height="5.56" rx="1.5" fill="#0ecb81" /><line x1="157.87" y1="194.90" x2="157.87" y2="200.46" stroke="#0ecb81" stroke-width="1.4" /><rect x="154.87" y="196.01" width="6" height="2.23" rx="1.5" fill="#0ecb81" /><line x1="168.61" y1="178.20" x2="168.61" y2="196.01" stroke="#0ecb81" stroke-width="1.4" /><rect x="165.61" y="178.20" width="6" height="17.81" rx="1.5" fill="#0ecb81" /><line x1="179.34" y1="174.86" x2="179.34" y2="182.66" stroke="#0ecb81" stroke-width="1.4" /><rect x="176.34" y="175.98" width="6" height="2.23" rx="1.5" fill="#0ecb81" /><line x1="190.08" y1="162.62" x2="190.08" y2="175.98" stroke="#0ecb81" stroke-width="1.4" /><rect x="187.08" y="162.62" width="6" height="13.36" rx="1.5" fill="#0ecb81" /><line x1="200.81" y1="153.72" x2="200.81" y2="163.73" stroke="#0ecb81" stroke-width="1.4" /><rect x="197.81" y="153.72" width="6" height="10.02" rx="1.5" fill="#0ecb81" /><line x1="211.54" y1="102.52" x2="211.54" y2="158.17" stroke="#0ecb81" stroke-width="1.4" /><rect x="208.54" y="133.68" width="6" height="20.03" rx="1.5" fill="#0ecb81" /><line x1="222.28" y1="129.23" x2="222.28" y2="143.70" stroke="#0ecb81" stroke-width="1.4" /><rect x="219.28" y="132.57" width="6" height="2.00" rx="1.5" fill="#0ecb81" /><line x1="233.01" y1="121.44" x2="233.01" y2="137.02" stroke="#0ecb81" stroke-width="1.4" /><rect x="230.01" y="129.23" width="6" height="3.34" rx="1.5" fill="#0ecb81" /><line x1="243.75" y1="108.08" x2="243.75" y2="141.47" stroke="#0ecb81" stroke-width="1.4" /><rect x="240.75" y="110.31" width="6" height="18.92" rx="1.5" fill="#0ecb81" /><line x1="254.48" y1="108.08" x2="254.48" y2="144.81" stroke="#f6465d" stroke-width="1.4" /><rect x="251.48" y="109.20" width="6" height="16.69" rx="1.5" fill="#f6465d" /><line x1="265.22" y1="100.29" x2="265.22" y2="125.89" stroke="#0ecb81" stroke-width="1.4" /><rect x="262.22" y="100.29" width="6" height="25.60" rx="1.5" fill="#0ecb81" /><line x1="275.95" y1="91.39" x2="275.95" y2="103.63" stroke="#0ecb81" stroke-width="1.4" /><rect x="272.95" y="91.39" width="6" height="10.02" rx="1.5" fill="#0ecb81" /><line x1="286.68" y1="90.28" x2="286.68" y2="95.84" stroke="#0ecb81" stroke-width="1.4" /><rect x="283.68" y="90.28" width="6" height="2.23" rx="1.5" fill="#0ecb81" /><line x1="297.42" y1="84.71" x2="297.42" y2="91.39" stroke="#0ecb81" stroke-width="1.4" /><rect x="294.42" y="86.94" width="6" height="3.34" rx="1.5" fill="#0ecb81" /><line x1="308.15" y1="58.00" x2="308.15" y2="98.07" stroke="#f6465d" stroke-width="1.4" /><rect x="305.15" y="86.94" width="6" height="4.45" rx="1.5" fill="#f6465d" /><line x1="318.89" y1="75.81" x2="318.89" y2="119.21" stroke="#f6465d" stroke-width="1.4" /><rect x="315.89" y="91.39" width="6" height="13.36" rx="1.5" fill="#f6465d" /><line x1="329.62" y1="101.41" x2="329.62" y2="134.80" stroke="#f6465d" stroke-width="1.4" /><rect x="326.62" y="104.75" width="6" height="7.79" rx="1.5" fill="#f6465d" /><line x1="340.35" y1="111.42" x2="340.35" y2="155.94" stroke="#f6465d" stroke-width="1.4" /><rect x="337.35" y="112.54" width="6" height="43.41" rx="1.5" fill="#f6465d" /><line x1="351.09" y1="155.94" x2="351.09" y2="184.88" stroke="#f6465d" stroke-width="1.4" /><rect x="348.09" y="155.94" width="6" height="27.82" rx="1.5" fill="#f6465d" /><line x1="361.82" y1="179.32" x2="361.82" y2="207.14" stroke="#0ecb81" stroke-width="1.4" /><rect x="358.82" y="181.54" width="6" height="2.23" rx="1.5" fill="#0ecb81" /><line x1="372.56" y1="179.32" x2="372.56" y2="193.79" stroke="#f6465d" stroke-width="1.4" /><rect x="369.56" y="180.43" width="6" height="13.36" rx="1.5" fill="#f6465d" /><line x1="383.29" y1="189.33" x2="383.29" y2="204.92" stroke="#f6465d" stroke-width="1.4" /><rect x="380.29" y="193.79" width="6" height="10.02" rx="1.5" fill="#f6465d" /><line x1="394.03" y1="178.20" x2="394.03" y2="206.03" stroke="#0ecb81" stroke-width="1.4" /><rect x="391.03" y="178.20" width="6" height="24.49" rx="1.5" fill="#0ecb81" /><line x1="404.76" y1="171.53" x2="404.76" y2="181.54" stroke="#0ecb81" stroke-width="1.4" /><rect x="401.76" y="172.64" width="6" height="5.56" rx="1.5" fill="#0ecb81" /><line x1="415.49" y1="170.41" x2="415.49" y2="204.92" stroke="#f6465d" stroke-width="1.4" /><rect x="412.49" y="172.64" width="6" height="27.82" rx="1.5" fill="#f6465d" /><line x1="426.23" y1="197.12" x2="426.23" y2="208.25" stroke="#0ecb81" stroke-width="1.4" /><rect x="423.23" y="198.24" width="6" height="2.00" rx="1.5" fill="#0ecb81" /><line x1="436.96" y1="179.32" x2="436.96" y2="206.03" stroke="#f6465d" stroke-width="1.4" /><rect x="433.96" y="198.24" width="6" height="2.00" rx="1.5" fill="#f6465d" /><line x1="447.70" y1="192.67" x2="447.70" y2="218.27" stroke="#f6465d" stroke-width="1.4" /><rect x="444.70" y="199.35" width="6" height="14.47" rx="1.5" fill="#f6465d" /><line x1="458.43" y1="206.03" x2="458.43" y2="223.84" stroke="#0ecb81" stroke-width="1.4" /><rect x="455.43" y="211.59" width="6" height="2.23" rx="1.5" fill="#0ecb81" /><line x1="469.16" y1="201.58" x2="469.16" y2="233.85" stroke="#f6465d" stroke-width="1.4" /><rect x="466.16" y="211.59" width="6" height="4.45" rx="1.5" fill="#f6465d" /><line x1="479.90" y1="211.59" x2="479.90" y2="220.50" stroke="#0ecb81" stroke-width="1.4" /><rect x="476.90" y="211.59" width="6" height="5.56" rx="1.5" fill="#0ecb81" /><line x1="490.63" y1="199.35" x2="490.63" y2="233.85" stroke="#f6465d" stroke-width="1.4" /><rect x="487.63" y="212.71" width="6" height="2.23" rx="1.5" fill="#f6465d" /><line x1="501.37" y1="209.37" x2="501.37" y2="222.72" stroke="#0ecb81" stroke-width="1.4" /><rect x="498.37" y="209.37" width="6" height="5.56" rx="1.5" fill="#0ecb81" /><line x1="512.10" y1="203.80" x2="512.10" y2="231.63" stroke="#f6465d" stroke-width="1.4" /><rect x="509.10" y="209.37" width="6" height="12.24" rx="1.5" fill="#f6465d" /><line x1="522.84" y1="216.05" x2="522.84" y2="226.06" stroke="#0ecb81" stroke-width="1.4" /><rect x="519.84" y="218.27" width="6" height="4.45" rx="1.5" fill="#0ecb81" /><line x1="533.57" y1="216.05" x2="533.57" y2="233.85" stroke="#f6465d" stroke-width="1.4" /><rect x="530.57" y="217.16" width="6" height="6.68" rx="1.5" fill="#f6465d" /><line x1="544.30" y1="222.72" x2="544.30" y2="247.21" stroke="#f6465d" stroke-width="1.4" /><rect x="541.30" y="223.84" width="6" height="13.36" rx="1.5" fill="#f6465d" /><line x1="555.04" y1="223.84" x2="555.04" y2="253.89" stroke="#0ecb81" stroke-width="1.4" /><rect x="552.04" y="237.19" width="6" height="2.00" rx="1.5" fill="#0ecb81" /><line x1="565.77" y1="237.19" x2="565.77" y2="262.79" stroke="#f6465d" stroke-width="1.4" /><rect x="562.77" y="237.19" width="6" height="16.69" rx="1.5" fill="#f6465d" /><line x1="576.51" y1="251.66" x2="576.51" y2="420.84" stroke="#f6465d" stroke-width="1.4" /><rect x="573.51" y="253.89" width="6" height="138.01" rx="1.5" fill="#f6465d" /><line x1="587.24" y1="317.33" x2="587.24" y2="420.84" stroke="#0ecb81" stroke-width="1.4" /><rect x="584.24" y="357.40" width="6" height="35.62" rx="1.5" fill="#0ecb81" /><line x1="597.97" y1="313.99" x2="597.97" y2="372.98" stroke="#0ecb81" stroke-width="1.4" /><rect x="594.97" y="328.46" width="6" height="30.05" rx="1.5" fill="#0ecb81" /><line x1="608.71" y1="322.89" x2="608.71" y2="344.04" stroke="#f6465d" stroke-width="1.4" /><rect x="605.71" y="328.46" width="6" height="14.47" rx="1.5" fill="#f6465d" /><line x1="619.44" y1="342.93" x2="619.44" y2="365.19" stroke="#f6465d" stroke-width="1.4" /><rect x="616.44" y="344.04" width="6" height="10.02" rx="1.5" fill="#f6465d" /><line x1="630.18" y1="326.23" x2="630.18" y2="352.94" stroke="#0ecb81" stroke-width="1.4" /><rect x="627.18" y="336.25" width="6" height="16.69" rx="1.5" fill="#0ecb81" /><line x1="640.91" y1="325.12" x2="640.91" y2="350.72" stroke="#0ecb81" stroke-width="1.4" /><rect x="637.91" y="332.91" width="6" height="4.45" rx="1.5" fill="#0ecb81" /><line x1="651.65" y1="330.68" x2="651.65" y2="340.70" stroke="#0ecb81" stroke-width="1.4" /><rect x="648.65" y="330.68" width="6" height="2.23" rx="1.5" fill="#0ecb81" /><line x1="662.38" y1="327.34" x2="662.38" y2="332.91" stroke="#0ecb81" stroke-width="1.4" /><rect x="659.38" y="330.68" width="6" height="2.00" rx="1.5" fill="#0ecb81" /><line x1="673.11" y1="329.57" x2="673.11" y2="342.93" stroke="#f6465d" stroke-width="1.4" /><rect x="670.11" y="331.80" width="6" height="10.02" rx="1.5" fill="#f6465d" /><line x1="683.85" y1="334.02" x2="683.85" y2="349.60" stroke="#0ecb81" stroke-width="1.4" /><rect x="680.85" y="340.70" width="6" height="2.00" rx="1.5" fill="#0ecb81" /><line x1="694.58" y1="337.36" x2="694.58" y2="347.38" stroke="#f6465d" stroke-width="1.4" /><rect x="691.58" y="341.81" width="6" height="2.00" rx="1.5" fill="#f6465d" /><line x1="705.32" y1="339.59" x2="705.32" y2="355.17" stroke="#f6465d" stroke-width="1.4" /><rect x="702.32" y="342.93" width="6" height="3.34" rx="1.5" fill="#f6465d" /><line x1="716.05" y1="344.04" x2="716.05" y2="356.28" stroke="#f6465d" stroke-width="1.4" /><rect x="713.05" y="345.15" width="6" height="8.90" rx="1.5" fill="#f6465d" /><line x1="726.78" y1="351.83" x2="726.78" y2="369.64" stroke="#f6465d" stroke-width="1.4" /><rect x="723.78" y="355.17" width="6" height="8.90" rx="1.5" fill="#f6465d" /><line x1="737.52" y1="362.96" x2="737.52" y2="413.05" stroke="#f6465d" stroke-width="1.4" /><rect x="734.52" y="365.19" width="6" height="23.37" rx="1.5" fill="#f6465d" /><line x1="748.25" y1="380.77" x2="748.25" y2="397.46" stroke="#f6465d" stroke-width="1.4" /><rect x="745.25" y="388.56" width="6" height="2.00" rx="1.5" fill="#f6465d" /><line x1="758.99" y1="384.11" x2="758.99" y2="391.90" stroke="#0ecb81" stroke-width="1.4" /><rect x="755.99" y="385.22" width="6" height="4.45" rx="1.5" fill="#0ecb81" /><line x1="769.72" y1="376.32" x2="769.72" y2="390.79" stroke="#f6465d" stroke-width="1.4" /><rect x="766.72" y="386.33" width="6" height="3.34" rx="1.5" fill="#f6465d" /><line x1="780.46" y1="390.79" x2="780.46" y2="421.95" stroke="#f6465d" stroke-width="1.4" /><rect x="777.46" y="390.79" width="6" height="18.92" rx="1.5" fill="#f6465d" /><line x1="791.19" y1="406.37" x2="791.19" y2="452.00" stroke="#f6465d" stroke-width="1.4" /><rect x="788.19" y="410.82" width="6" height="7.79" rx="1.5" fill="#f6465d" /><line x1="801.92" y1="408.59" x2="801.92" y2="418.61" stroke="#0ecb81" stroke-width="1.4" /><rect x="798.92" y="410.82" width="6" height="7.79" rx="1.5" fill="#0ecb81" /><line x1="812.66" y1="386.33" x2="812.66" y2="410.82" stroke="#0ecb81" stroke-width="1.4" /><rect x="809.66" y="387.45" width="6" height="22.26" rx="1.5" fill="#0ecb81" /><line x1="823.39" y1="386.33" x2="823.39" y2="407.48" stroke="#f6465d" stroke-width="1.4" /><rect x="820.39" y="387.45" width="6" height="7.79" rx="1.5" fill="#f6465d" /><line x1="834.13" y1="395.24" x2="834.13" y2="401.92" stroke="#f6465d" stroke-width="1.4" /><rect x="831.13" y="395.24" width="6" height="3.34" rx="1.5" fill="#f6465d" /><line x1="844.86" y1="384.11" x2="844.86" y2="399.69" stroke="#0ecb81" stroke-width="1.4" /><rect x="841.86" y="385.22" width="6" height="13.36" rx="1.5" fill="#0ecb81" /><line x1="855.59" y1="378.54" x2="855.59" y2="386.33" stroke="#0ecb81" stroke-width="1.4" /><rect x="852.59" y="378.54" width="6" height="5.56" rx="1.5" fill="#0ecb81" /><line x1="866.33" y1="377.43" x2="866.33" y2="381.88" stroke="#0ecb81" stroke-width="1.4" /><rect x="863.33" y="378.54" width="6" height="2.00" rx="1.5" fill="#0ecb81" /><line x1="877.06" y1="356.28" x2="877.06" y2="386.33" stroke="#0ecb81" stroke-width="1.4" /><rect x="874.06" y="356.28" width="6" height="22.26" rx="1.5" fill="#0ecb81" /><line x1="887.80" y1="357.40" x2="887.80" y2="368.53" stroke="#f6465d" stroke-width="1.4" /><rect x="884.80" y="357.40" width="6" height="5.56" rx="1.5" fill="#f6465d" /><line x1="898.53" y1="354.06" x2="898.53" y2="362.96" stroke="#0ecb81" stroke-width="1.4" /><rect x="895.53" y="357.40" width="6" height="4.45" rx="1.5" fill="#0ecb81" /><line x1="909.27" y1="355.17" x2="909.27" y2="360.73" stroke="#0ecb81" stroke-width="1.4" /><rect x="906.27" y="357.40" width="6" height="2.00" rx="1.5" fill="#0ecb81" /><line x1="920.00" y1="352.94" x2="920.00" y2="359.62" stroke="#0ecb81" stroke-width="1.4" /><rect x="917.00" y="352.94" width="6" height="5.56" rx="1.5" fill="#0ecb81" />
  <polyline points="72.00,194.90 82.73,230.51 211.54,102.52 254.48,144.81 308.15,58.00" fill="none" stroke="#2fc273" stroke-width="4" stroke-linecap="round" stroke-linejoin="round" />
  <circle cx="72.00" cy="194.90" r="5.5" fill="#2fc273" fill-opacity="0.15" stroke="#2fc273" stroke-width="2" /><text x="72.00" y="182.90" fill="#f3f4f6" font-size="15" font-weight="700" text-anchor="middle">X</text><circle cx="82.73" cy="230.51" r="5.5" fill="#2fc273" fill-opacity="0.15" stroke="#2fc273" stroke-width="2" /><text x="82.73" y="218.51" fill="#f3f4f6" font-size="15" font-weight="700" text-anchor="middle">A</text><circle cx="211.54" cy="102.52" r="5.5" fill="#2fc273" fill-opacity="0.15" stroke="#2fc273" stroke-width="2" /><text x="211.54" y="90.52" fill="#f3f4f6" font-size="15" font-weight="700" text-anchor="middle">B</text><circle cx="254.48" cy="144.81" r="5.5" fill="#2fc273" fill-opacity="0.15" stroke="#2fc273" stroke-width="2" /><text x="254.48" y="132.81" fill="#f3f4f6" font-size="15" font-weight="700" text-anchor="middle">C</text><circle cx="308.15" cy="58.00" r="5.5" fill="#2fc273" fill-opacity="0.15" stroke="#2fc273" stroke-width="2" /><text x="308.15" y="46.00" fill="#f3f4f6" font-size="15" font-weight="700" text-anchor="middle">D</text>
  <text x="56" y="492" fill="#8ba0b5" font-size="18">일반 완성 · TP1 0.036002 · TP2 0.035818 · SL 0.036342</text>
</svg>
