<svg xmlns="http://www.w3.org/2000/svg" width="960" height="540" viewBox="0 0 960 540">
  <rect width="960" height="540" rx="24" fill="#0b1220" />
  <rect x="28" y="28" width="904" height="484" rx="22" fill="#111827" stroke="#1f2937" />
  <text x="56" y="74" fill="#f3f4f6" font-size="34" font-weight="700">SIRENUSDT · AB=CD</text>
  <text x="904" y="74" fill="#8ba0b5" font-size="20" text-anchor="end">Bullish (매수) · Score 88.2</text>
  <line x1="72" y1="58" x2="920" y2="58" stroke="#223045" stroke-width="1" stroke-dasharray="4 8" /><line x1="72" y1="156" x2="920" y2="156" stroke="#223045" stroke-width="1" stroke-dasharray="4 8" /><line x1="72" y1="255" x2="920" y2="255" stroke="#223045" stroke-width="1" stroke-dasharray="4 8" /><line x1="72" y1="353" x2="920" y2="353" stroke="#223045" stroke-width="1" stroke-dasharray="4 8" /><line x1="72" y1="452" x2="920" y2="452" stroke="#223045" stroke-width="1" stroke-dasharray="4 8" />
  <rect x="827.59" y="396.14" width="84" height="44.83" fill="#fbbf24" fill-opacity="0.12" stroke="#fbbf24" stroke-width="1.5" stroke-dasharray="6 6" />
  <line x1="72.00" y1="252.11" x2="72.00" y2="336.95" stroke="#0ecb81" stroke-width="1.4" /><rect x="69.00" y="263.60" width="6" height="71.41" rx="1.5" fill="#0ecb81" /><line x1="82.73" y1="251.32" x2="82.73" y2="276.54" stroke="#f6465d" stroke-width="1.4" /><rect x="79.73" y="263.88" width="6" height="9.64" rx="1.5" fill="#f6465d" /><line x1="93.47" y1="191.45" x2="93.47" y2="277.70" stroke="#0ecb81" stroke-width="1.4" /><rect x="90.47" y="230.74" width="6" height="42.98" rx="1.5" fill="#0ecb81" /><line x1="104.20" y1="202.02" x2="104.20" y2="236.22" stroke="#0ecb81" stroke-width="1.4" /><rect x="101.20" y="205.69" width="6" height="25.05" rx="1.5" fill="#0ecb81" /><line x1="114.94" y1="100.81" x2="114.94" y2="225.99" stroke="#0ecb81" stroke-width="1.4" /><rect x="111.94" y="103.86" width="6" height="102.35" rx="1.5" fill="#0ecb81" /><line x1="125.67" y1="71.85" x2="125.67" y2="121.08" stroke="#0ecb81" stroke-width="1.4" /><rect x="122.67" y="94.33" width="6" height="9.52" rx="1.5" fill="#0ecb81" /><line x1="136.41" y1="58.00" x2="136.41" y2="140.81" stroke="#f6465d" stroke-width="1.4" /><rect x="133.41" y="94.16" width="6" height="29.42" rx="1.5" fill="#f6465d" /><line x1="147.14" y1="92.34" x2="147.14" y2="177.54" stroke="#f6465d" stroke-width="1.4" /><rect x="144.14" y="123.47" width="6" height="46.74" rx="1.5" fill="#f6465d" /><line x1="157.87" y1="81.20" x2="157.87" y2="241.77" stroke="#0ecb81" stroke-width="1.4" /><rect x="154.87" y="89.76" width="6" height="80.37" rx="1.5" fill="#0ecb81" /><line x1="168.61" y1="82.45" x2="168.61" y2="117.08" stroke="#f6465d" stroke-width="1.4" /><rect x="165.61" y="89.93" width="6" height="4.38" rx="1.5" fill="#f6465d" /><line x1="179.34" y1="93.45" x2="179.34" y2="204.87" stroke="#f6465d" stroke-width="1.4" /><rect x="176.34" y="94.39" width="6" height="94.13" rx="1.5" fill="#f6465d" /><line x1="190.08" y1="187.92" x2="190.08" y2="318.01" stroke="#f6465d" stroke-width="1.4" /><rect x="187.08" y="188.52" width="6" height="124.06" rx="1.5" fill="#f6465d" /><line x1="200.81" y1="241.85" x2="200.81" y2="313.38" stroke="#0ecb81" stroke-width="1.4" /><rect x="197.81" y="257.09" width="6" height="54.64" rx="1.5" fill="#0ecb81" /><line x1="211.54" y1="164.89" x2="211.54" y2="268.49" stroke="#0ecb81" stroke-width="1.4" /><rect x="208.54" y="194.94" width="6" height="62.15" rx="1.5" fill="#0ecb81" /><line x1="222.28" y1="170.78" x2="222.28" y2="229.20" stroke="#f6465d" stroke-width="1.4" /><rect x="219.28" y="194.97" width="6" height="30.65" rx="1.5" fill="#f6465d" /><line x1="233.01" y1="211.77" x2="233.01" y2="259.48" stroke="#f6465d" stroke-width="1.4" /><rect x="230.01" y="225.73" width="6" height="15.92" rx="1.5" fill="#f6465d" /><line x1="243.75" y1="203.16" x2="243.75" y2="243.39" stroke="#0ecb81" stroke-width="1.4" /><rect x="240.75" y="211.38" width="6" height="30.36" rx="1.5" fill="#0ecb81" /><line x1="254.48" y1="192.02" x2="254.48" y2="239.26" stroke="#f6465d" stroke-width="1.4" /><rect x="251.48" y="211.01" width="6" height="19.10" rx="1.5" fill="#f6465d" /><line x1="265.22" y1="219.96" x2="265.22" y2="267.41" stroke="#f6465d" stroke-width="1.4" /><rect x="262.22" y="229.91" width="6" height="11.26" rx="1.5" fill="#f6465d" /><line x1="275.95" y1="200.77" x2="275.95" y2="267.41" stroke="#f6465d" stroke-width="1.4" /><rect x="272.95" y="241.08" width="6" height="16.15" rx="1.5" fill="#f6465d" /><line x1="286.68" y1="208.39" x2="286.68" y2="259.25" stroke="#0ecb81" stroke-width="1.4" /><rect x="283.68" y="237.33" width="6" height="19.64" rx="1.5" fill="#0ecb81" /><line x1="297.42" y1="197.62" x2="297.42" y2="237.79" stroke="#0ecb81" stroke-width="1.4" /><rect x="294.42" y="203.61" width="6" height="33.94" rx="1.5" fill="#0ecb81" /><line x1="308.15" y1="197.67" x2="308.15" y2="249.61" stroke="#f6465d" stroke-width="1.4" /><rect x="305.15" y="203.50" width="6" height="41.02" rx="1.5" fill="#f6465d" /><line x1="318.89" y1="234.15" x2="318.89" y2="264.45" stroke="#0ecb81" stroke-width="1.4" /><rect x="315.89" y="240.80" width="6" height="4.43" rx="1.5" fill="#0ecb81" /><line x1="329.62" y1="236.28" x2="329.62" y2="347.21" stroke="#f6465d" stroke-width="1.4" /><rect x="326.62" y="240.69" width="6" height="61.29" rx="1.5" fill="#f6465d" /><line x1="340.35" y1="285.29" x2="340.35" y2="345.16" stroke="#f6465d" stroke-width="1.4" /><rect x="337.35" y="302.49" width="6" height="37.27" rx="1.5" fill="#f6465d" /><line x1="351.09" y1="327.11" x2="351.09" y2="440.80" stroke="#f6465d" stroke-width="1.4" /><rect x="348.09" y="339.76" width="6" height="57.43" rx="1.5" fill="#f6465d" /><line x1="361.82" y1="374.59" x2="361.82" y2="452.00" stroke="#f6465d" stroke-width="1.4" /><rect x="358.82" y="396.73" width="6" height="41.14" rx="1.5" fill="#f6465d" /><line x1="372.56" y1="358.30" x2="372.56" y2="441.42" stroke="#0ecb81" stroke-width="1.4" /><rect x="369.56" y="358.75" width="6" height="79.46" rx="1.5" fill="#0ecb81" /><line x1="383.29" y1="336.12" x2="383.29" y2="390.37" stroke="#f6465d" stroke-width="1.4" /><rect x="380.29" y="359.35" width="6" height="16.97" rx="1.5" fill="#f6465d" /><line x1="394.03" y1="323.33" x2="394.03" y2="378.68" stroke="#0ecb81" stroke-width="1.4" /><rect x="391.03" y="336.01" width="6" height="40.09" rx="1.5" fill="#0ecb81" /><line x1="404.76" y1="310.08" x2="404.76" y2="367.45" stroke="#f6465d" stroke-width="1.4" /><rect x="401.76" y="336.01" width="6" height="8.56" rx="1.5" fill="#f6465d" /><line x1="415.49" y1="301.89" x2="415.49" y2="411.74" stroke="#0ecb81" stroke-width="1.4" /><rect x="412.49" y="314.03" width="6" height="30.48" rx="1.5" fill="#0ecb81" /><line x1="426.23" y1="270.25" x2="426.23" y2="318.16" stroke="#0ecb81" stroke-width="1.4" /><rect x="423.23" y="275.34" width="6" height="39.20" rx="1.5" fill="#0ecb81" /><line x1="436.96" y1="260.39" x2="436.96" y2="306.13" stroke="#f6465d" stroke-width="1.4" /><rect x="433.96" y="275.80" width="6" height="10.97" rx="1.5" fill="#f6465d" /><line x1="447.70" y1="286.94" x2="447.70" y2="320.29" stroke="#f6465d" stroke-width="1.4" /><rect x="444.70" y="287.25" width="6" height="13.70" rx="1.5" fill="#f6465d" /><line x1="458.43" y1="280.20" x2="458.43" y2="337.06" stroke="#f6465d" stroke-width="1.4" /><rect x="455.43" y="300.93" width="6" height="19.90" rx="1.5" fill="#f6465d" /><line x1="469.16" y1="317.25" x2="469.16" y2="354.91" stroke="#f6465d" stroke-width="1.4" /><rect x="466.16" y="320.83" width="6" height="15.64" rx="1.5" fill="#f6465d" /><line x1="479.90" y1="322.14" x2="479.90" y2="364.61" stroke="#f6465d" stroke-width="1.4" /><rect x="476.90" y="336.44" width="6" height="2.00" rx="1.5" fill="#f6465d" /><line x1="490.63" y1="291.77" x2="490.63" y2="352.27" stroke="#0ecb81" stroke-width="1.4" /><rect x="487.63" y="309.17" width="6" height="27.89" rx="1.5" fill="#0ecb81" /><line x1="501.37" y1="300.16" x2="501.37" y2="392.50" stroke="#f6465d" stroke-width="1.4" /><rect x="498.37" y="309.00" width="6" height="72.69" rx="1.5" fill="#f6465d" /><line x1="512.10" y1="351.25" x2="512.10" y2="384.94" stroke="#0ecb81" stroke-width="1.4" /><rect x="509.10" y="376.80" width="6" height="4.75" rx="1.5" fill="#0ecb81" /><line x1="522.84" y1="371.86" x2="522.84" y2="395.48" stroke="#f6465d" stroke-width="1.4" /><rect x="519.84" y="376.83" width="6" height="3.55" rx="1.5" fill="#f6465d" /><line x1="533.57" y1="363.67" x2="533.57" y2="395.11" stroke="#f6465d" stroke-width="1.4" /><rect x="530.57" y="380.64" width="6" height="2.79" rx="1.5" fill="#f6465d" /><line x1="544.30" y1="356.22" x2="544.30" y2="433.52" stroke="#0ecb81" stroke-width="1.4" /><rect x="541.30" y="368.93" width="6" height="14.16" rx="1.5" fill="#0ecb81" /><line x1="555.04" y1="312.90" x2="555.04" y2="370.18" stroke="#0ecb81" stroke-width="1.4" /><rect x="552.04" y="341.38" width="6" height="27.92" rx="1.5" fill="#0ecb81" /><line x1="565.77" y1="325.35" x2="565.77" y2="345.08" stroke="#f6465d" stroke-width="1.4" /><rect x="562.77" y="341.24" width="6" height="2.00" rx="1.5" fill="#f6465d" /><line x1="576.51" y1="336.18" x2="576.51" y2="387.18" stroke="#f6465d" stroke-width="1.4" /><rect x="573.51" y="342.63" width="6" height="37.13" rx="1.5" fill="#f6465d" /><line x1="587.24" y1="337.37" x2="587.24" y2="397.61" stroke="#0ecb81" stroke-width="1.4" /><rect x="584.24" y="340.42" width="6" height="39.91" rx="1.5" fill="#0ecb81" /><line x1="597.97" y1="332.94" x2="597.97" y2="367.88" stroke="#f6465d" stroke-width="1.4" /><rect x="594.97" y="340.53" width="6" height="2.81" rx="1.5" fill="#f6465d" /><line x1="608.71" y1="321.45" x2="608.71" y2="353.95" stroke="#f6465d" stroke-width="1.4" /><rect x="605.71" y="343.34" width="6" height="3.21" rx="1.5" fill="#f6465d" /><line x1="619.44" y1="330.29" x2="619.44" y2="360.49" stroke="#f6465d" stroke-width="1.4" /><rect x="616.44" y="346.44" width="6" height="9.92" rx="1.5" fill="#f6465d" /><line x1="630.18" y1="348.66" x2="630.18" y2="384.82" stroke="#f6465d" stroke-width="1.4" /><rect x="627.18" y="356.31" width="6" height="15.27" rx="1.5" fill="#f6465d" /><line x1="640.91" y1="360.09" x2="640.91" y2="380.70" stroke="#0ecb81" stroke-width="1.4" /><rect x="637.91" y="363.93" width="6" height="7.65" rx="1.5" fill="#0ecb81" /><line x1="651.65" y1="323.10" x2="651.65" y2="392.27" stroke="#0ecb81" stroke-width="1.4" /><rect x="648.65" y="339.93" width="6" height="24.22" rx="1.5" fill="#0ecb81" /><line x1="662.38" y1="281.65" x2="662.38" y2="347.55" stroke="#0ecb81" stroke-width="1.4" /><rect x="659.38" y="301.44" width="6" height="38.46" rx="1.5" fill="#0ecb81" /><line x1="673.11" y1="300.70" x2="673.11" y2="331.55" stroke="#f6465d" stroke-width="1.4" /><rect x="670.11" y="301.50" width="6" height="25.47" rx="1.5" fill="#f6465d" /><line x1="683.85" y1="312.84" x2="683.85" y2="337.60" stroke="#f6465d" stroke-width="1.4" /><rect x="680.85" y="327.05" width="6" height="7.33" rx="1.5" fill="#f6465d" /><line x1="694.58" y1="322.36" x2="694.58" y2="349.34" stroke="#f6465d" stroke-width="1.4" /><rect x="691.58" y="334.47" width="6" height="9.38" rx="1.5" fill="#f6465d" /><line x1="705.32" y1="321.42" x2="705.32" y2="368.05" stroke="#f6465d" stroke-width="1.4" /><rect x="702.32" y="342.97" width="6" height="11.40" rx="1.5" fill="#f6465d" /><line x1="716.05" y1="343.43" x2="716.05" y2="369.73" stroke="#0ecb81" stroke-width="1.4" /><rect x="713.05" y="353.46" width="6" height="2.00" rx="1.5" fill="#0ecb81" /><line x1="726.78" y1="328.53" x2="726.78" y2="376.04" stroke="#0ecb81" stroke-width="1.4" /><rect x="723.78" y="331.83" width="6" height="21.66" rx="1.5" fill="#0ecb81" /><line x1="737.52" y1="301.75" x2="737.52" y2="337.86" stroke="#0ecb81" stroke-width="1.4" /><rect x="734.52" y="310.59" width="6" height="21.24" rx="1.5" fill="#0ecb81" /><line x1="748.25" y1="308.80" x2="748.25" y2="342.06" stroke="#f6465d" stroke-width="1.4" /><rect x="745.25" y="310.59" width="6" height="10.63" rx="1.5" fill="#f6465d" /><line x1="758.99" y1="320.23" x2="758.99" y2="348.43" stroke="#f6465d" stroke-width="1.4" /><rect x="755.99" y="320.77" width="6" height="19.30" rx="1.5" fill="#f6465d" /><line x1="769.72" y1="319.38" x2="769.72" y2="354.06" stroke="#f6465d" stroke-width="1.4" /><rect x="766.72" y="340.16" width="6" height="7.70" rx="1.5" fill="#f6465d" /><line x1="780.46" y1="337.46" x2="780.46" y2="363.81" stroke="#0ecb81" stroke-width="1.4" /><rect x="777.46" y="342.80" width="6" height="4.95" rx="1.5" fill="#0ecb81" /><line x1="791.19" y1="342.29" x2="791.19" y2="388.72" stroke="#f6465d" stroke-width="1.4" /><rect x="788.19" y="342.83" width="6" height="28.14" rx="1.5" fill="#f6465d" /><line x1="801.92" y1="360.26" x2="801.92" y2="405.29" stroke="#f6465d" stroke-width="1.4" /><rect x="798.92" y="370.98" width="6" height="17.80" rx="1.5" fill="#f6465d" /><line x1="812.66" y1="350.39" x2="812.66" y2="390.93" stroke="#0ecb81" stroke-width="1.4" /><rect x="809.66" y="355.74" width="6" height="33.18" rx="1.5" fill="#0ecb81" /><line x1="823.39" y1="351.47" x2="823.39" y2="401.82" stroke="#f6465d" stroke-width="1.4" /><rect x="820.39" y="355.40" width="6" height="5.80" rx="1.5" fill="#f6465d" /><line x1="834.13" y1="350.22" x2="834.13" y2="412.37" stroke="#f6465d" stroke-width="1.4" /><rect x="831.13" y="361.20" width="6" height="16.26" rx="1.5" fill="#f6465d" /><line x1="844.86" y1="366.97" x2="844.86" y2="402.33" stroke="#f6465d" stroke-width="1.4" /><rect x="841.86" y="377.52" width="6" height="7.93" rx="1.5" fill="#f6465d" /><line x1="855.59" y1="364.07" x2="855.59" y2="420.50" stroke="#0ecb81" stroke-width="1.4" /><rect x="852.59" y="371.43" width="6" height="14.04" rx="1.5" fill="#0ecb81" /><line x1="866.33" y1="306.93" x2="866.33" y2="372.00" stroke="#0ecb81" stroke-width="1.4" /><rect x="863.33" y="335.84" width="6" height="35.54" rx="1.5" fill="#0ecb81" /><line x1="877.06" y1="295.84" x2="877.06" y2="351.50" stroke="#0ecb81" stroke-width="1.4" /><rect x="874.06" y="334.96" width="6" height="2.00" rx="1.5" fill="#0ecb81" /><line x1="887.80" y1="309.11" x2="887.80" y2="341.15" stroke="#0ecb81" stroke-width="1.4" /><rect x="884.80" y="327.79" width="6" height="7.16" rx="1.5" fill="#0ecb81" /><line x1="898.53" y1="164.58" x2="898.53" y2="329.93" stroke="#0ecb81" stroke-width="1.4" /><rect x="895.53" y="175.73" width="6" height="152.41" rx="1.5" fill="#0ecb81" /><line x1="909.27" y1="142.32" x2="909.27" y2="224.59" stroke="#f6465d" stroke-width="1.4" /><rect x="906.27" y="176.29" width="6" height="14.78" rx="1.5" fill="#f6465d" /><line x1="920.00" y1="165.95" x2="920.00" y2="200.97" stroke="#0ecb81" stroke-width="1.4" /><rect x="917.00" y="175.33" width="6" height="15.69" rx="1.5" fill="#0ecb81" />
  <polyline points="651.65,392.27 662.38,281.65 726.78,376.04 737.52,301.75 855.59,420.50" fill="none" stroke="#2fc273" stroke-width="4" stroke-linecap="round" stroke-linejoin="round" />
  <circle cx="651.65" cy="392.27" r="5.5" fill="#2fc273" fill-opacity="0.15" stroke="#2fc273" stroke-width="2" /><text x="651.65" y="380.27" fill="#f3f4f6" font-size="15" font-weight="700" text-anchor="middle">X</text><circle cx="662.38" cy="281.65" r="5.5" fill="#2fc273" fill-opacity="0.15" stroke="#2fc273" stroke-width="2" /><text x="662.38" y="269.65" fill="#f3f4f6" font-size="15" font-weight="700" text-anchor="middle">A</text><circle cx="726.78" cy="376.04" r="5.5" fill="#2fc273" fill-opacity="0.15" stroke="#2fc273" stroke-width="2" /><text x="726.78" y="364.04" fill="#f3f4f6" font-size="15" font-weight="700" text-anchor="middle">B</text><circle cx="737.52" cy="301.75" r="5.5" fill="#2fc273" fill-opacity="0.15" stroke="#2fc273" stroke-width="2" /><text x="737.52" y="289.75" fill="#f3f4f6" font-size="15" font-weight="700" text-anchor="middle">C</text><circle cx="855.59" cy="420.50" r="5.5" fill="#2fc273" fill-opacity="0.15" stroke="#2fc273" stroke-width="2" /><text x="855.59" y="408.50" fill="#f3f4f6" font-size="15" font-weight="700" text-anchor="middle">D</text>
  <text x="56" y="492" fill="#8ba0b5" font-size="18">일반 완성 · TP1 0.53311 · TP2 0.54296 · SL 0.51209</text>
</svg>
