<svg xmlns="http://www.w3.org/2000/svg" width="960" height="540" viewBox="0 0 960 540">
  <rect width="960" height="540" rx="24" fill="#0b1220" />
  <rect x="28" y="28" width="904" height="484" rx="22" fill="#111827" stroke="#1f2937" />
  <text x="56" y="74" fill="#f3f4f6" font-size="34" font-weight="700">SOLVUSDT · AB=CD</text>
  <text x="904" y="74" fill="#8ba0b5" font-size="20" text-anchor="end">Bearish (매도) · Score 86.9</text>
  <line x1="72" y1="58" x2="920" y2="58" stroke="#223045" stroke-width="1" stroke-dasharray="4 8" /><line x1="72" y1="156" x2="920" y2="156" stroke="#223045" stroke-width="1" stroke-dasharray="4 8" /><line x1="72" y1="255" x2="920" y2="255" stroke="#223045" stroke-width="1" stroke-dasharray="4 8" /><line x1="72" y1="353" x2="920" y2="353" stroke="#223045" stroke-width="1" stroke-dasharray="4 8" /><line x1="72" y1="452" x2="920" y2="452" stroke="#223045" stroke-width="1" stroke-dasharray="4 8" />
  <rect x="269.42" y="58.00" width="84" height="38.35" fill="#fbbf24" fill-opacity="0.12" stroke="#fbbf24" stroke-width="1.5" stroke-dasharray="6 6" />
  <line x1="72.00" y1="258.49" x2="72.00" y2="295.10" stroke="#0ecb81" stroke-width="1.4" /><rect x="69.00" y="275.92" width="6" height="15.69" rx="1.5" fill="#0ecb81" /><line x1="82.73" y1="251.51" x2="82.73" y2="282.89" stroke="#0ecb81" stroke-width="1.4" /><rect x="79.73" y="274.18" width="6" height="2.00" rx="1.5" fill="#0ecb81" /><line x1="93.47" y1="270.69" x2="93.47" y2="291.61" stroke="#f6465d" stroke-width="1.4" /><rect x="90.47" y="275.92" width="6" height="6.97" rx="1.5" fill="#f6465d" /><line x1="104.20" y1="234.08" x2="104.20" y2="291.61" stroke="#0ecb81" stroke-width="1.4" /><rect x="101.20" y="248.03" width="6" height="36.61" rx="1.5" fill="#0ecb81" /><line x1="114.94" y1="244.54" x2="114.94" y2="300.33" stroke="#f6465d" stroke-width="1.4" /><rect x="111.94" y="251.51" width="6" height="17.43" rx="1.5" fill="#f6465d" /><line x1="125.67" y1="255.00" x2="125.67" y2="286.38" stroke="#0ecb81" stroke-width="1.4" /><rect x="122.67" y="255.00" width="6" height="15.69" rx="1.5" fill="#0ecb81" /><line x1="136.41" y1="251.51" x2="136.41" y2="281.15" stroke="#f6465d" stroke-width="1.4" /><rect x="133.41" y="256.74" width="6" height="2.00" rx="1.5" fill="#f6465d" /><line x1="147.14" y1="235.82" x2="147.14" y2="260.23" stroke="#0ecb81" stroke-width="1.4" /><rect x="144.14" y="237.57" width="6" height="20.92" rx="1.5" fill="#0ecb81" /><line x1="157.87" y1="232.34" x2="157.87" y2="255.00" stroke="#f6465d" stroke-width="1.4" /><rect x="154.87" y="235.82" width="6" height="12.20" rx="1.5" fill="#f6465d" /><line x1="168.61" y1="150.40" x2="168.61" y2="255.00" stroke="#0ecb81" stroke-width="1.4" /><rect x="165.61" y="169.58" width="6" height="80.19" rx="1.5" fill="#0ecb81" /><line x1="179.34" y1="146.91" x2="179.34" y2="202.70" stroke="#f6465d" stroke-width="1.4" /><rect x="176.34" y="169.58" width="6" height="20.92" rx="1.5" fill="#f6465d" /><line x1="190.08" y1="169.58" x2="190.08" y2="223.62" stroke="#f6465d" stroke-width="1.4" /><rect x="187.08" y="188.75" width="6" height="15.69" rx="1.5" fill="#f6465d" /><line x1="200.81" y1="178.29" x2="200.81" y2="214.90" stroke="#0ecb81" stroke-width="1.4" /><rect x="197.81" y="195.73" width="6" height="8.72" rx="1.5" fill="#0ecb81" /><line x1="211.54" y1="192.24" x2="211.54" y2="248.03" stroke="#f6465d" stroke-width="1.4" /><rect x="208.54" y="195.73" width="6" height="29.64" rx="1.5" fill="#f6465d" /><line x1="222.28" y1="209.67" x2="222.28" y2="241.05" stroke="#0ecb81" stroke-width="1.4" /><rect x="219.28" y="213.16" width="6" height="6.97" rx="1.5" fill="#0ecb81" /><line x1="233.01" y1="192.24" x2="233.01" y2="225.36" stroke="#0ecb81" stroke-width="1.4" /><rect x="230.01" y="195.73" width="6" height="17.43" rx="1.5" fill="#0ecb81" /><line x1="243.75" y1="176.55" x2="243.75" y2="207.93" stroke="#0ecb81" stroke-width="1.4" /><rect x="240.75" y="185.27" width="6" height="10.46" rx="1.5" fill="#0ecb81" /><line x1="254.48" y1="159.12" x2="254.48" y2="213.16" stroke="#0ecb81" stroke-width="1.4" /><rect x="251.48" y="169.58" width="6" height="12.20" rx="1.5" fill="#0ecb81" /><line x1="265.22" y1="132.96" x2="265.22" y2="187.01" stroke="#0ecb81" stroke-width="1.4" /><rect x="262.22" y="145.17" width="6" height="17.43" rx="1.5" fill="#0ecb81" /><line x1="275.95" y1="115.53" x2="275.95" y2="157.37" stroke="#0ecb81" stroke-width="1.4" /><rect x="272.95" y="145.17" width="6" height="2.00" rx="1.5" fill="#0ecb81" /><line x1="286.68" y1="92.87" x2="286.68" y2="153.88" stroke="#0ecb81" stroke-width="1.4" /><rect x="283.68" y="106.81" width="6" height="41.84" rx="1.5" fill="#0ecb81" /><line x1="297.42" y1="58.00" x2="297.42" y2="120.76" stroke="#0ecb81" stroke-width="1.4" /><rect x="294.42" y="105.07" width="6" height="2.00" rx="1.5" fill="#0ecb81" /><line x1="308.15" y1="99.84" x2="308.15" y2="167.83" stroke="#f6465d" stroke-width="1.4" /><rect x="305.15" y="106.81" width="6" height="54.04" rx="1.5" fill="#f6465d" /><line x1="318.89" y1="145.17" x2="318.89" y2="176.55" stroke="#0ecb81" stroke-width="1.4" /><rect x="315.89" y="162.60" width="6" height="2.00" rx="1.5" fill="#0ecb81" /><line x1="329.62" y1="106.81" x2="329.62" y2="171.32" stroke="#0ecb81" stroke-width="1.4" /><rect x="326.62" y="157.37" width="6" height="5.23" rx="1.5" fill="#0ecb81" /><line x1="340.35" y1="132.96" x2="340.35" y2="183.52" stroke="#f6465d" stroke-width="1.4" /><rect x="337.35" y="153.88" width="6" height="15.69" rx="1.5" fill="#f6465d" /><line x1="351.09" y1="153.88" x2="351.09" y2="188.75" stroke="#0ecb81" stroke-width="1.4" /><rect x="348.09" y="153.88" width="6" height="15.69" rx="1.5" fill="#0ecb81" /><line x1="361.82" y1="117.27" x2="361.82" y2="176.55" stroke="#0ecb81" stroke-width="1.4" /><rect x="358.82" y="122.50" width="6" height="31.38" rx="1.5" fill="#0ecb81" /><line x1="372.56" y1="91.12" x2="372.56" y2="150.40" stroke="#f6465d" stroke-width="1.4" /><rect x="369.56" y="122.50" width="6" height="13.95" rx="1.5" fill="#f6465d" /><line x1="383.29" y1="112.04" x2="383.29" y2="159.12" stroke="#0ecb81" stroke-width="1.4" /><rect x="380.29" y="115.53" width="6" height="19.18" rx="1.5" fill="#0ecb81" /><line x1="394.03" y1="108.56" x2="394.03" y2="159.12" stroke="#f6465d" stroke-width="1.4" /><rect x="391.03" y="115.53" width="6" height="40.10" rx="1.5" fill="#f6465d" /><line x1="404.76" y1="134.71" x2="404.76" y2="181.78" stroke="#0ecb81" stroke-width="1.4" /><rect x="401.76" y="146.91" width="6" height="5.23" rx="1.5" fill="#0ecb81" /><line x1="415.49" y1="106.81" x2="415.49" y2="162.60" stroke="#0ecb81" stroke-width="1.4" /><rect x="412.49" y="129.48" width="6" height="15.69" rx="1.5" fill="#0ecb81" /><line x1="426.23" y1="99.84" x2="426.23" y2="153.88" stroke="#f6465d" stroke-width="1.4" /><rect x="423.23" y="129.48" width="6" height="13.95" rx="1.5" fill="#f6465d" /><line x1="436.96" y1="127.73" x2="436.96" y2="190.50" stroke="#f6465d" stroke-width="1.4" /><rect x="433.96" y="143.42" width="6" height="43.58" rx="1.5" fill="#f6465d" /><line x1="447.70" y1="181.78" x2="447.70" y2="246.28" stroke="#f6465d" stroke-width="1.4" /><rect x="444.70" y="185.27" width="6" height="43.58" rx="1.5" fill="#f6465d" /><line x1="458.43" y1="221.88" x2="458.43" y2="265.46" stroke="#f6465d" stroke-width="1.4" /><rect x="455.43" y="227.11" width="6" height="15.69" rx="1.5" fill="#f6465d" /><line x1="469.16" y1="216.65" x2="469.16" y2="256.74" stroke="#0ecb81" stroke-width="1.4" /><rect x="466.16" y="239.31" width="6" height="2.00" rx="1.5" fill="#0ecb81" /><line x1="479.90" y1="218.39" x2="479.90" y2="256.74" stroke="#0ecb81" stroke-width="1.4" /><rect x="476.90" y="237.57" width="6" height="2.00" rx="1.5" fill="#0ecb81" /><line x1="490.63" y1="216.65" x2="490.63" y2="267.20" stroke="#0ecb81" stroke-width="1.4" /><rect x="487.63" y="228.85" width="6" height="10.46" rx="1.5" fill="#0ecb81" /><line x1="501.37" y1="214.90" x2="501.37" y2="239.31" stroke="#0ecb81" stroke-width="1.4" /><rect x="498.37" y="228.85" width="6" height="2.00" rx="1.5" fill="#0ecb81" /><line x1="512.10" y1="228.85" x2="512.10" y2="279.41" stroke="#f6465d" stroke-width="1.4" /><rect x="509.10" y="230.59" width="6" height="41.84" rx="1.5" fill="#f6465d" /><line x1="522.84" y1="255.00" x2="522.84" y2="289.87" stroke="#f6465d" stroke-width="1.4" /><rect x="519.84" y="274.18" width="6" height="3.49" rx="1.5" fill="#f6465d" /><line x1="533.57" y1="249.77" x2="533.57" y2="288.12" stroke="#0ecb81" stroke-width="1.4" /><rect x="530.57" y="281.15" width="6" height="2.00" rx="1.5" fill="#0ecb81" /><line x1="544.30" y1="279.41" x2="544.30" y2="316.02" stroke="#f6465d" stroke-width="1.4" /><rect x="541.30" y="279.41" width="6" height="36.61" rx="1.5" fill="#f6465d" /><line x1="555.04" y1="298.58" x2="555.04" y2="452.00" stroke="#f6465d" stroke-width="1.4" /><rect x="552.04" y="316.02" width="6" height="104.60" rx="1.5" fill="#f6465d" /><line x1="565.77" y1="368.32" x2="565.77" y2="432.82" stroke="#0ecb81" stroke-width="1.4" /><rect x="562.77" y="385.75" width="6" height="34.87" rx="1.5" fill="#0ecb81" /><line x1="576.51" y1="382.27" x2="576.51" y2="438.05" stroke="#f6465d" stroke-width="1.4" /><rect x="573.51" y="385.75" width="6" height="50.56" rx="1.5" fill="#f6465d" /><line x1="587.24" y1="403.19" x2="587.24" y2="438.05" stroke="#0ecb81" stroke-width="1.4" /><rect x="584.24" y="413.65" width="6" height="24.41" rx="1.5" fill="#0ecb81" /><line x1="597.97" y1="364.83" x2="597.97" y2="417.13" stroke="#0ecb81" stroke-width="1.4" /><rect x="594.97" y="373.55" width="6" height="40.10" rx="1.5" fill="#0ecb81" /><line x1="608.71" y1="350.88" x2="608.71" y2="380.52" stroke="#0ecb81" stroke-width="1.4" /><rect x="605.71" y="352.63" width="6" height="20.92" rx="1.5" fill="#0ecb81" /><line x1="619.44" y1="328.22" x2="619.44" y2="356.12" stroke="#0ecb81" stroke-width="1.4" /><rect x="616.44" y="331.71" width="6" height="17.43" rx="1.5" fill="#0ecb81" /><line x1="630.18" y1="317.76" x2="630.18" y2="352.63" stroke="#0ecb81" stroke-width="1.4" /><rect x="627.18" y="326.48" width="6" height="3.49" rx="1.5" fill="#0ecb81" /><line x1="640.91" y1="326.48" x2="640.91" y2="399.70" stroke="#f6465d" stroke-width="1.4" /><rect x="637.91" y="328.22" width="6" height="67.99" rx="1.5" fill="#f6465d" /><line x1="651.65" y1="370.06" x2="651.65" y2="422.36" stroke="#f6465d" stroke-width="1.4" /><rect x="648.65" y="397.96" width="6" height="8.72" rx="1.5" fill="#f6465d" /><line x1="662.38" y1="389.24" x2="662.38" y2="406.67" stroke="#0ecb81" stroke-width="1.4" /><rect x="659.38" y="394.47" width="6" height="12.20" rx="1.5" fill="#0ecb81" /><line x1="673.11" y1="375.29" x2="673.11" y2="406.67" stroke="#f6465d" stroke-width="1.4" /><rect x="670.11" y="397.96" width="6" height="2.00" rx="1.5" fill="#f6465d" /><line x1="683.85" y1="390.98" x2="683.85" y2="431.08" stroke="#f6465d" stroke-width="1.4" /><rect x="680.85" y="399.70" width="6" height="15.69" rx="1.5" fill="#f6465d" /><line x1="694.58" y1="401.44" x2="694.58" y2="432.82" stroke="#f6465d" stroke-width="1.4" /><rect x="691.58" y="417.13" width="6" height="5.23" rx="1.5" fill="#f6465d" /><line x1="705.32" y1="399.70" x2="705.32" y2="424.11" stroke="#0ecb81" stroke-width="1.4" /><rect x="702.32" y="408.42" width="6" height="10.46" rx="1.5" fill="#0ecb81" /><line x1="716.05" y1="277.66" x2="716.05" y2="424.11" stroke="#0ecb81" stroke-width="1.4" /><rect x="713.05" y="295.10" width="6" height="113.32" rx="1.5" fill="#0ecb81" /><line x1="726.78" y1="274.18" x2="726.78" y2="342.17" stroke="#f6465d" stroke-width="1.4" /><rect x="723.78" y="296.84" width="6" height="40.10" rx="1.5" fill="#f6465d" /><line x1="737.52" y1="326.48" x2="737.52" y2="361.35" stroke="#f6465d" stroke-width="1.4" /><rect x="734.52" y="331.71" width="6" height="5.23" rx="1.5" fill="#f6465d" /><line x1="748.25" y1="296.84" x2="748.25" y2="340.42" stroke="#0ecb81" stroke-width="1.4" /><rect x="745.25" y="335.19" width="6" height="2.00" rx="1.5" fill="#0ecb81" /><line x1="758.99" y1="314.27" x2="758.99" y2="340.42" stroke="#0ecb81" stroke-width="1.4" /><rect x="755.99" y="319.50" width="6" height="13.95" rx="1.5" fill="#0ecb81" /><line x1="769.72" y1="302.07" x2="769.72" y2="342.17" stroke="#0ecb81" stroke-width="1.4" /><rect x="766.72" y="312.53" width="6" height="8.72" rx="1.5" fill="#0ecb81" /><line x1="780.46" y1="275.92" x2="780.46" y2="343.91" stroke="#f6465d" stroke-width="1.4" /><rect x="777.46" y="303.81" width="6" height="26.15" rx="1.5" fill="#f6465d" /><line x1="791.19" y1="312.53" x2="791.19" y2="352.63" stroke="#f6465d" stroke-width="1.4" /><rect x="788.19" y="331.71" width="6" height="20.92" rx="1.5" fill="#f6465d" /><line x1="801.92" y1="335.19" x2="801.92" y2="364.83" stroke="#f6465d" stroke-width="1.4" /><rect x="798.92" y="350.88" width="6" height="2.00" rx="1.5" fill="#f6465d" /><line x1="812.66" y1="342.17" x2="812.66" y2="387.50" stroke="#f6465d" stroke-width="1.4" /><rect x="809.66" y="350.88" width="6" height="29.64" rx="1.5" fill="#f6465d" /><line x1="823.39" y1="368.32" x2="823.39" y2="424.11" stroke="#f6465d" stroke-width="1.4" /><rect x="820.39" y="375.29" width="6" height="48.81" rx="1.5" fill="#f6465d" /><line x1="834.13" y1="377.04" x2="834.13" y2="424.11" stroke="#0ecb81" stroke-width="1.4" /><rect x="831.13" y="382.27" width="6" height="38.35" rx="1.5" fill="#0ecb81" /><line x1="844.86" y1="350.88" x2="844.86" y2="382.27" stroke="#0ecb81" stroke-width="1.4" /><rect x="841.86" y="368.32" width="6" height="12.20" rx="1.5" fill="#0ecb81" /><line x1="855.59" y1="347.40" x2="855.59" y2="410.16" stroke="#f6465d" stroke-width="1.4" /><rect x="852.59" y="370.06" width="6" height="29.64" rx="1.5" fill="#f6465d" /><line x1="866.33" y1="377.04" x2="866.33" y2="408.42" stroke="#0ecb81" stroke-width="1.4" /><rect x="863.33" y="377.04" width="6" height="22.66" rx="1.5" fill="#0ecb81" /><line x1="877.06" y1="335.19" x2="877.06" y2="378.78" stroke="#0ecb81" stroke-width="1.4" /><rect x="874.06" y="343.91" width="6" height="34.87" rx="1.5" fill="#0ecb81" /><line x1="887.80" y1="342.17" x2="887.80" y2="410.16" stroke="#f6465d" stroke-width="1.4" /><rect x="884.80" y="347.40" width="6" height="48.81" rx="1.5" fill="#f6465d" /><line x1="898.53" y1="331.71" x2="898.53" y2="396.21" stroke="#0ecb81" stroke-width="1.4" /><rect x="895.53" y="364.83" width="6" height="31.38" rx="1.5" fill="#0ecb81" /><line x1="909.27" y1="349.14" x2="909.27" y2="385.75" stroke="#0ecb81" stroke-width="1.4" /><rect x="906.27" y="356.12" width="6" height="8.72" rx="1.5" fill="#0ecb81" /><line x1="920.00" y1="350.88" x2="920.00" y2="404.93" stroke="#f6465d" stroke-width="1.4" /><rect x="917.00" y="357.86" width="6" height="45.33" rx="1.5" fill="#f6465d" />
  <polyline points="104.20,234.08 114.94,300.33 179.34,146.91 211.54,248.03 297.42,58.00" fill="none" stroke="#2fc273" stroke-width="4" stroke-linecap="round" stroke-linejoin="round" />
  <circle cx="104.20" cy="234.08" r="5.5" fill="#2fc273" fill-opacity="0.15" stroke="#2fc273" stroke-width="2" /><text x="104.20" y="222.08" fill="#f3f4f6" font-size="15" font-weight="700" text-anchor="middle">X</text><circle cx="114.94" cy="300.33" r="5.5" fill="#2fc273" fill-opacity="0.15" stroke="#2fc273" stroke-width="2" /><text x="114.94" y="288.33" fill="#f3f4f6" font-size="15" font-weight="700" text-anchor="middle">A</text><circle cx="179.34" cy="146.91" r="5.5" fill="#2fc273" fill-opacity="0.15" stroke="#2fc273" stroke-width="2" /><text x="179.34" y="134.91" fill="#f3f4f6" font-size="15" font-weight="700" text-anchor="middle">B</text><circle cx="211.54" cy="248.03" r="5.5" fill="#2fc273" fill-opacity="0.15" stroke="#2fc273" stroke-width="2" /><text x="211.54" y="236.03" fill="#f3f4f6" font-size="15" font-weight="700" text-anchor="middle">C</text><circle cx="297.42" cy="58.00" r="5.5" fill="#2fc273" fill-opacity="0.15" stroke="#2fc273" stroke-width="2" /><text x="297.42" y="46.00" fill="#f3f4f6" font-size="15" font-weight="700" text-anchor="middle">D</text>
  <text x="56" y="492" fill="#8ba0b5" font-size="18">일반 완성 · TP1 0.004361 · TP2 0.004336 · SL 0.004408</text>
</svg>
