<svg xmlns="http://www.w3.org/2000/svg" width="960" height="540" viewBox="0 0 960 540">
  <rect width="960" height="540" rx="24" fill="#0b1220" />
  <rect x="28" y="28" width="904" height="484" rx="22" fill="#111827" stroke="#1f2937" />
  <text x="56" y="74" fill="#f3f4f6" font-size="34" font-weight="700">SUIUSDT · AB=CD</text>
  <text x="904" y="74" fill="#8ba0b5" font-size="20" text-anchor="end">Bearish (매도) · Score 88.0</text>
  <line x1="72" y1="58" x2="920" y2="58" stroke="#223045" stroke-width="1" stroke-dasharray="4 8" /><line x1="72" y1="156" x2="920" y2="156" stroke="#223045" stroke-width="1" stroke-dasharray="4 8" /><line x1="72" y1="255" x2="920" y2="255" stroke="#223045" stroke-width="1" stroke-dasharray="4 8" /><line x1="72" y1="353" x2="920" y2="353" stroke="#223045" stroke-width="1" stroke-dasharray="4 8" /><line x1="72" y1="452" x2="920" y2="452" stroke="#223045" stroke-width="1" stroke-dasharray="4 8" />
  <rect x="655.85" y="161.28" width="84" height="115.51" fill="#fbbf24" fill-opacity="0.12" stroke="#fbbf24" stroke-width="1.5" stroke-dasharray="6 6" />
  <line x1="72.00" y1="75.91" x2="72.00" y2="96.80" stroke="#f6465d" stroke-width="1.4" /><rect x="69.00" y="78.89" width="6" height="8.95" rx="1.5" fill="#f6465d" /><line x1="82.73" y1="66.95" x2="82.73" y2="99.79" stroke="#0ecb81" stroke-width="1.4" /><rect x="79.73" y="69.94" width="6" height="17.91" rx="1.5" fill="#0ecb81" /><line x1="93.47" y1="58.00" x2="93.47" y2="99.79" stroke="#f6465d" stroke-width="1.4" /><rect x="90.47" y="66.95" width="6" height="5.97" rx="1.5" fill="#f6465d" /><line x1="104.20" y1="72.92" x2="104.20" y2="123.67" stroke="#f6465d" stroke-width="1.4" /><rect x="101.20" y="72.92" width="6" height="47.76" rx="1.5" fill="#f6465d" /><line x1="114.94" y1="84.86" x2="114.94" y2="144.56" stroke="#0ecb81" stroke-width="1.4" /><rect x="111.94" y="96.80" width="6" height="23.88" rx="1.5" fill="#0ecb81" /><line x1="125.67" y1="90.83" x2="125.67" y2="168.44" stroke="#f6465d" stroke-width="1.4" /><rect x="122.67" y="96.80" width="6" height="20.89" rx="1.5" fill="#f6465d" /><line x1="136.41" y1="69.94" x2="136.41" y2="141.58" stroke="#0ecb81" stroke-width="1.4" /><rect x="133.41" y="117.70" width="6" height="2.98" rx="1.5" fill="#0ecb81" /><line x1="147.14" y1="111.73" x2="147.14" y2="183.36" stroke="#f6465d" stroke-width="1.4" /><rect x="144.14" y="120.68" width="6" height="47.76" rx="1.5" fill="#f6465d" /><line x1="157.87" y1="120.68" x2="157.87" y2="174.41" stroke="#0ecb81" stroke-width="1.4" /><rect x="154.87" y="153.52" width="6" height="11.94" rx="1.5" fill="#0ecb81" /><line x1="168.61" y1="156.50" x2="168.61" y2="195.30" stroke="#f6465d" stroke-width="1.4" /><rect x="165.61" y="156.50" width="6" height="17.91" rx="1.5" fill="#f6465d" /><line x1="179.34" y1="177.39" x2="179.34" y2="207.24" stroke="#f6465d" stroke-width="1.4" /><rect x="176.34" y="177.39" width="6" height="8.95" rx="1.5" fill="#f6465d" /><line x1="190.08" y1="174.41" x2="190.08" y2="207.24" stroke="#f6465d" stroke-width="1.4" /><rect x="187.08" y="183.36" width="6" height="2.98" rx="1.5" fill="#f6465d" /><line x1="200.81" y1="168.44" x2="200.81" y2="204.26" stroke="#f6465d" stroke-width="1.4" /><rect x="197.81" y="189.33" width="6" height="11.94" rx="1.5" fill="#f6465d" /><line x1="211.54" y1="180.38" x2="211.54" y2="231.12" stroke="#f6465d" stroke-width="1.4" /><rect x="208.54" y="201.27" width="6" height="23.88" rx="1.5" fill="#f6465d" /><line x1="222.28" y1="225.15" x2="222.28" y2="275.89" stroke="#f6465d" stroke-width="1.4" /><rect x="219.28" y="225.15" width="6" height="26.86" rx="1.5" fill="#f6465d" /><line x1="233.01" y1="210.23" x2="233.01" y2="257.98" stroke="#0ecb81" stroke-width="1.4" /><rect x="230.01" y="210.23" width="6" height="41.79" rx="1.5" fill="#0ecb81" /><line x1="243.75" y1="180.38" x2="243.75" y2="219.18" stroke="#0ecb81" stroke-width="1.4" /><rect x="240.75" y="183.36" width="6" height="29.85" rx="1.5" fill="#0ecb81" /><line x1="254.48" y1="171.42" x2="254.48" y2="213.21" stroke="#f6465d" stroke-width="1.4" /><rect x="251.48" y="183.36" width="6" height="26.86" rx="1.5" fill="#f6465d" /><line x1="265.22" y1="201.27" x2="265.22" y2="246.05" stroke="#f6465d" stroke-width="1.4" /><rect x="262.22" y="207.24" width="6" height="14.92" rx="1.5" fill="#f6465d" /><line x1="275.95" y1="219.18" x2="275.95" y2="246.05" stroke="#f6465d" stroke-width="1.4" /><rect x="272.95" y="222.17" width="6" height="11.94" rx="1.5" fill="#f6465d" /><line x1="286.68" y1="171.42" x2="286.68" y2="231.12" stroke="#0ecb81" stroke-width="1.4" /><rect x="283.68" y="177.39" width="6" height="53.73" rx="1.5" fill="#0ecb81" /><line x1="297.42" y1="174.41" x2="297.42" y2="201.27" stroke="#f6465d" stroke-width="1.4" /><rect x="294.42" y="177.39" width="6" height="5.97" rx="1.5" fill="#f6465d" /><line x1="308.15" y1="171.42" x2="308.15" y2="204.26" stroke="#0ecb81" stroke-width="1.4" /><rect x="305.15" y="171.42" width="6" height="11.94" rx="1.5" fill="#0ecb81" /><line x1="318.89" y1="159.48" x2="318.89" y2="180.38" stroke="#0ecb81" stroke-width="1.4" /><rect x="315.89" y="165.45" width="6" height="8.95" rx="1.5" fill="#0ecb81" /><line x1="329.62" y1="165.45" x2="329.62" y2="183.36" stroke="#f6465d" stroke-width="1.4" /><rect x="326.62" y="165.45" width="6" height="14.92" rx="1.5" fill="#f6465d" /><line x1="340.35" y1="177.39" x2="340.35" y2="213.21" stroke="#f6465d" stroke-width="1.4" /><rect x="337.35" y="180.38" width="6" height="23.88" rx="1.5" fill="#f6465d" /><line x1="351.09" y1="153.52" x2="351.09" y2="201.27" stroke="#0ecb81" stroke-width="1.4" /><rect x="348.09" y="177.39" width="6" height="23.88" rx="1.5" fill="#0ecb81" /><line x1="361.82" y1="171.42" x2="361.82" y2="195.30" stroke="#f6465d" stroke-width="1.4" /><rect x="358.82" y="177.39" width="6" height="14.92" rx="1.5" fill="#f6465d" /><line x1="372.56" y1="168.44" x2="372.56" y2="201.27" stroke="#0ecb81" stroke-width="1.4" /><rect x="369.56" y="192.32" width="6" height="2.00" rx="1.5" fill="#0ecb81" /><line x1="383.29" y1="177.39" x2="383.29" y2="210.23" stroke="#f6465d" stroke-width="1.4" /><rect x="380.29" y="192.32" width="6" height="14.92" rx="1.5" fill="#f6465d" /><line x1="394.03" y1="189.33" x2="394.03" y2="234.11" stroke="#0ecb81" stroke-width="1.4" /><rect x="391.03" y="198.29" width="6" height="8.95" rx="1.5" fill="#0ecb81" /><line x1="404.76" y1="189.33" x2="404.76" y2="219.18" stroke="#f6465d" stroke-width="1.4" /><rect x="401.76" y="198.29" width="6" height="8.95" rx="1.5" fill="#f6465d" /><line x1="415.49" y1="192.32" x2="415.49" y2="219.18" stroke="#0ecb81" stroke-width="1.4" /><rect x="412.49" y="198.29" width="6" height="5.97" rx="1.5" fill="#0ecb81" /><line x1="426.23" y1="180.38" x2="426.23" y2="231.12" stroke="#f6465d" stroke-width="1.4" /><rect x="423.23" y="198.29" width="6" height="2.98" rx="1.5" fill="#f6465d" /><line x1="436.96" y1="198.29" x2="436.96" y2="228.14" stroke="#f6465d" stroke-width="1.4" /><rect x="433.96" y="204.26" width="6" height="23.88" rx="1.5" fill="#f6465d" /><line x1="447.70" y1="195.30" x2="447.70" y2="231.12" stroke="#f6465d" stroke-width="1.4" /><rect x="444.70" y="225.15" width="6" height="5.97" rx="1.5" fill="#f6465d" /><line x1="458.43" y1="222.17" x2="458.43" y2="263.95" stroke="#f6465d" stroke-width="1.4" /><rect x="455.43" y="228.14" width="6" height="14.92" rx="1.5" fill="#f6465d" /><line x1="469.16" y1="201.27" x2="469.16" y2="246.05" stroke="#0ecb81" stroke-width="1.4" /><rect x="466.16" y="210.23" width="6" height="32.83" rx="1.5" fill="#0ecb81" /><line x1="479.90" y1="204.26" x2="479.90" y2="308.73" stroke="#f6465d" stroke-width="1.4" /><rect x="476.90" y="213.21" width="6" height="74.62" rx="1.5" fill="#f6465d" /><line x1="490.63" y1="272.91" x2="490.63" y2="329.62" stroke="#f6465d" stroke-width="1.4" /><rect x="487.63" y="287.83" width="6" height="35.82" rx="1.5" fill="#f6465d" /><line x1="501.37" y1="296.79" x2="501.37" y2="350.52" stroke="#0ecb81" stroke-width="1.4" /><rect x="498.37" y="314.70" width="6" height="8.95" rx="1.5" fill="#0ecb81" /><line x1="512.10" y1="287.83" x2="512.10" y2="338.58" stroke="#f6465d" stroke-width="1.4" /><rect x="509.10" y="314.70" width="6" height="20.89" rx="1.5" fill="#f6465d" /><line x1="522.84" y1="323.65" x2="522.84" y2="389.32" stroke="#f6465d" stroke-width="1.4" /><rect x="519.84" y="332.61" width="6" height="41.79" rx="1.5" fill="#f6465d" /><line x1="533.57" y1="362.45" x2="533.57" y2="452.00" stroke="#f6465d" stroke-width="1.4" /><rect x="530.57" y="374.39" width="6" height="17.91" rx="1.5" fill="#f6465d" /><line x1="544.30" y1="359.47" x2="544.30" y2="395.29" stroke="#0ecb81" stroke-width="1.4" /><rect x="541.30" y="362.45" width="6" height="29.85" rx="1.5" fill="#0ecb81" /><line x1="555.04" y1="329.62" x2="555.04" y2="368.42" stroke="#0ecb81" stroke-width="1.4" /><rect x="552.04" y="332.61" width="6" height="29.85" rx="1.5" fill="#0ecb81" /><line x1="565.77" y1="323.65" x2="565.77" y2="341.56" stroke="#f6465d" stroke-width="1.4" /><rect x="562.77" y="335.59" width="6" height="2.98" rx="1.5" fill="#f6465d" /><line x1="576.51" y1="302.76" x2="576.51" y2="347.53" stroke="#0ecb81" stroke-width="1.4" /><rect x="573.51" y="302.76" width="6" height="35.82" rx="1.5" fill="#0ecb81" /><line x1="587.24" y1="293.80" x2="587.24" y2="314.70" stroke="#0ecb81" stroke-width="1.4" /><rect x="584.24" y="305.74" width="6" height="2.00" rx="1.5" fill="#0ecb81" /><line x1="597.97" y1="305.74" x2="597.97" y2="326.64" stroke="#f6465d" stroke-width="1.4" /><rect x="594.97" y="305.74" width="6" height="8.95" rx="1.5" fill="#f6465d" /><line x1="608.71" y1="305.74" x2="608.71" y2="362.45" stroke="#f6465d" stroke-width="1.4" /><rect x="605.71" y="314.70" width="6" height="26.86" rx="1.5" fill="#f6465d" /><line x1="619.44" y1="317.68" x2="619.44" y2="353.50" stroke="#0ecb81" stroke-width="1.4" /><rect x="616.44" y="335.59" width="6" height="5.97" rx="1.5" fill="#0ecb81" /><line x1="630.18" y1="299.77" x2="630.18" y2="338.58" stroke="#0ecb81" stroke-width="1.4" /><rect x="627.18" y="314.70" width="6" height="23.88" rx="1.5" fill="#0ecb81" /><line x1="640.91" y1="293.80" x2="640.91" y2="338.58" stroke="#0ecb81" stroke-width="1.4" /><rect x="637.91" y="302.76" width="6" height="8.95" rx="1.5" fill="#0ecb81" /><line x1="651.65" y1="284.85" x2="651.65" y2="320.67" stroke="#f6465d" stroke-width="1.4" /><rect x="648.65" y="299.77" width="6" height="5.97" rx="1.5" fill="#f6465d" /><line x1="662.38" y1="296.79" x2="662.38" y2="323.65" stroke="#f6465d" stroke-width="1.4" /><rect x="659.38" y="308.73" width="6" height="11.94" rx="1.5" fill="#f6465d" /><line x1="673.11" y1="290.82" x2="673.11" y2="332.61" stroke="#0ecb81" stroke-width="1.4" /><rect x="670.11" y="302.76" width="6" height="14.92" rx="1.5" fill="#0ecb81" /><line x1="683.85" y1="269.92" x2="683.85" y2="317.68" stroke="#0ecb81" stroke-width="1.4" /><rect x="680.85" y="278.88" width="6" height="23.88" rx="1.5" fill="#0ecb81" /><line x1="694.58" y1="278.88" x2="694.58" y2="329.62" stroke="#f6465d" stroke-width="1.4" /><rect x="691.58" y="281.86" width="6" height="23.88" rx="1.5" fill="#f6465d" /><line x1="705.32" y1="293.80" x2="705.32" y2="320.67" stroke="#0ecb81" stroke-width="1.4" /><rect x="702.32" y="296.79" width="6" height="5.97" rx="1.5" fill="#0ecb81" /><line x1="716.05" y1="287.83" x2="716.05" y2="317.68" stroke="#f6465d" stroke-width="1.4" /><rect x="713.05" y="299.77" width="6" height="2.98" rx="1.5" fill="#f6465d" /><line x1="726.78" y1="302.76" x2="726.78" y2="335.59" stroke="#f6465d" stroke-width="1.4" /><rect x="723.78" y="302.76" width="6" height="20.89" rx="1.5" fill="#f6465d" /><line x1="737.52" y1="317.68" x2="737.52" y2="338.58" stroke="#0ecb81" stroke-width="1.4" /><rect x="734.52" y="323.65" width="6" height="2.00" rx="1.5" fill="#0ecb81" /><line x1="748.25" y1="269.92" x2="748.25" y2="326.64" stroke="#0ecb81" stroke-width="1.4" /><rect x="745.25" y="281.86" width="6" height="41.79" rx="1.5" fill="#0ecb81" /><line x1="758.99" y1="266.94" x2="758.99" y2="302.76" stroke="#0ecb81" stroke-width="1.4" /><rect x="755.99" y="272.91" width="6" height="11.94" rx="1.5" fill="#0ecb81" /><line x1="769.72" y1="260.97" x2="769.72" y2="320.67" stroke="#f6465d" stroke-width="1.4" /><rect x="766.72" y="272.91" width="6" height="38.80" rx="1.5" fill="#f6465d" /><line x1="780.46" y1="281.86" x2="780.46" y2="335.59" stroke="#f6465d" stroke-width="1.4" /><rect x="777.46" y="308.73" width="6" height="20.89" rx="1.5" fill="#f6465d" /><line x1="791.19" y1="317.68" x2="791.19" y2="362.45" stroke="#f6465d" stroke-width="1.4" /><rect x="788.19" y="326.64" width="6" height="23.88" rx="1.5" fill="#f6465d" /><line x1="801.92" y1="320.67" x2="801.92" y2="371.41" stroke="#0ecb81" stroke-width="1.4" /><rect x="798.92" y="323.65" width="6" height="23.88" rx="1.5" fill="#0ecb81" /><line x1="812.66" y1="293.80" x2="812.66" y2="353.50" stroke="#f6465d" stroke-width="1.4" /><rect x="809.66" y="323.65" width="6" height="20.89" rx="1.5" fill="#f6465d" /><line x1="823.39" y1="338.58" x2="823.39" y2="392.30" stroke="#f6465d" stroke-width="1.4" /><rect x="820.39" y="347.53" width="6" height="20.89" rx="1.5" fill="#f6465d" /><line x1="834.13" y1="311.71" x2="834.13" y2="383.35" stroke="#0ecb81" stroke-width="1.4" /><rect x="831.13" y="314.70" width="6" height="53.73" rx="1.5" fill="#0ecb81" /><line x1="844.86" y1="296.79" x2="844.86" y2="347.53" stroke="#0ecb81" stroke-width="1.4" /><rect x="841.86" y="305.74" width="6" height="5.97" rx="1.5" fill="#0ecb81" /><line x1="855.59" y1="293.80" x2="855.59" y2="326.64" stroke="#0ecb81" stroke-width="1.4" /><rect x="852.59" y="305.74" width="6" height="2.98" rx="1.5" fill="#0ecb81" /><line x1="866.33" y1="302.76" x2="866.33" y2="353.50" stroke="#f6465d" stroke-width="1.4" /><rect x="863.33" y="302.76" width="6" height="17.91" rx="1.5" fill="#f6465d" /><line x1="877.06" y1="299.77" x2="877.06" y2="368.42" stroke="#f6465d" stroke-width="1.4" /><rect x="874.06" y="317.68" width="6" height="50.74" rx="1.5" fill="#f6465d" /><line x1="887.80" y1="293.80" x2="887.80" y2="368.42" stroke="#0ecb81" stroke-width="1.4" /><rect x="884.80" y="332.61" width="6" height="35.82" rx="1.5" fill="#0ecb81" /><line x1="898.53" y1="311.71" x2="898.53" y2="353.50" stroke="#0ecb81" stroke-width="1.4" /><rect x="895.53" y="320.67" width="6" height="11.94" rx="1.5" fill="#0ecb81" /><line x1="909.27" y1="317.68" x2="909.27" y2="440.06" stroke="#f6465d" stroke-width="1.4" /><rect x="906.27" y="317.68" width="6" height="104.47" rx="1.5" fill="#f6465d" /><line x1="920.00" y1="383.35" x2="920.00" y2="434.09" stroke="#0ecb81" stroke-width="1.4" /><rect x="917.00" y="416.18" width="6" height="8.95" rx="1.5" fill="#0ecb81" />
  <polyline points="426.23,180.38 533.57,452.00 587.24,293.80 608.71,362.45 683.85,269.92" fill="none" stroke="#2fc273" stroke-width="4" stroke-linecap="round" stroke-linejoin="round" />
  <circle cx="426.23" cy="180.38" r="5.5" fill="#2fc273" fill-opacity="0.15" stroke="#2fc273" stroke-width="2" /><text x="426.23" y="168.38" fill="#f3f4f6" font-size="15" font-weight="700" text-anchor="middle">X</text><circle cx="533.57" cy="452.00" r="5.5" fill="#2fc273" fill-opacity="0.15" stroke="#2fc273" stroke-width="2" /><text x="533.57" y="440.00" fill="#f3f4f6" font-size="15" font-weight="700" text-anchor="middle">A</text><circle cx="587.24" cy="293.80" r="5.5" fill="#2fc273" fill-opacity="0.15" stroke="#2fc273" stroke-width="2" /><text x="587.24" y="281.80" fill="#f3f4f6" font-size="15" font-weight="700" text-anchor="middle">B</text><circle cx="608.71" cy="362.45" r="5.5" fill="#2fc273" fill-opacity="0.15" stroke="#2fc273" stroke-width="2" /><text x="608.71" y="350.45" fill="#f3f4f6" font-size="15" font-weight="700" text-anchor="middle">C</text><circle cx="683.85" cy="269.92" r="5.5" fill="#2fc273" fill-opacity="0.15" stroke="#2fc273" stroke-width="2" /><text x="683.85" y="257.92" fill="#f3f4f6" font-size="15" font-weight="700" text-anchor="middle">D</text>
  <text x="56" y="492" fill="#8ba0b5" font-size="18">Complete · TP1 0.76922 · TP2 0.76848 · SL 0.77158</text>
</svg>
