<svg xmlns="http://www.w3.org/2000/svg" width="960" height="540" viewBox="0 0 960 540">
  <rect width="960" height="540" rx="24" fill="#0b1220" />
  <rect x="28" y="28" width="904" height="484" rx="22" fill="#111827" stroke="#1f2937" />
  <text x="56" y="74" fill="#f3f4f6" font-size="34" font-weight="700">SUIUSDT · AB=CD</text>
  <text x="904" y="74" fill="#8ba0b5" font-size="20" text-anchor="end">Bullish (매수) · Score 80.7</text>
  <line x1="72" y1="58" x2="920" y2="58" stroke="#223045" stroke-width="1" stroke-dasharray="4 8" /><line x1="72" y1="156" x2="920" y2="156" stroke="#223045" stroke-width="1" stroke-dasharray="4 8" /><line x1="72" y1="255" x2="920" y2="255" stroke="#223045" stroke-width="1" stroke-dasharray="4 8" /><line x1="72" y1="353" x2="920" y2="353" stroke="#223045" stroke-width="1" stroke-dasharray="4 8" /><line x1="72" y1="452" x2="920" y2="452" stroke="#223045" stroke-width="1" stroke-dasharray="4 8" />
  <rect x="634.38" y="217.64" width="84" height="29.53" fill="#fbbf24" fill-opacity="0.12" stroke="#fbbf24" stroke-width="1.5" stroke-dasharray="6 6" />
  <line x1="72.00" y1="362.18" x2="72.00" y2="369.66" stroke="#f6465d" stroke-width="1.4" /><rect x="69.00" y="363.54" width="6" height="4.76" rx="1.5" fill="#f6465d" /><line x1="82.73" y1="364.90" x2="82.73" y2="371.70" stroke="#f6465d" stroke-width="1.4" /><rect x="79.73" y="368.30" width="6" height="2.00" rx="1.5" fill="#f6465d" /><line x1="93.47" y1="369.66" x2="93.47" y2="378.51" stroke="#f6465d" stroke-width="1.4" /><rect x="90.47" y="369.66" width="6" height="4.76" rx="1.5" fill="#f6465d" /><line x1="104.20" y1="370.34" x2="104.20" y2="379.87" stroke="#f6465d" stroke-width="1.4" /><rect x="101.20" y="374.42" width="6" height="4.08" rx="1.5" fill="#f6465d" /><line x1="114.94" y1="377.83" x2="114.94" y2="386.67" stroke="#f6465d" stroke-width="1.4" /><rect x="111.94" y="378.51" width="6" height="4.08" rx="1.5" fill="#f6465d" /><line x1="125.67" y1="378.51" x2="125.67" y2="390.76" stroke="#f6465d" stroke-width="1.4" /><rect x="122.67" y="381.91" width="6" height="2.00" rx="1.5" fill="#f6465d" /><line x1="136.41" y1="375.11" x2="136.41" y2="384.63" stroke="#0ecb81" stroke-width="1.4" /><rect x="133.41" y="376.47" width="6" height="6.12" rx="1.5" fill="#0ecb81" /><line x1="147.14" y1="364.22" x2="147.14" y2="377.15" stroke="#0ecb81" stroke-width="1.4" /><rect x="144.14" y="365.58" width="6" height="10.21" rx="1.5" fill="#0ecb81" /><line x1="157.87" y1="364.22" x2="157.87" y2="384.63" stroke="#f6465d" stroke-width="1.4" /><rect x="154.87" y="366.26" width="6" height="16.33" rx="1.5" fill="#f6465d" /><line x1="168.61" y1="380.55" x2="168.61" y2="409.81" stroke="#f6465d" stroke-width="1.4" /><rect x="165.61" y="383.27" width="6" height="12.93" rx="1.5" fill="#f6465d" /><line x1="179.34" y1="377.15" x2="179.34" y2="452.00" stroke="#0ecb81" stroke-width="1.4" /><rect x="176.34" y="378.51" width="6" height="18.37" rx="1.5" fill="#0ecb81" /><line x1="190.08" y1="376.47" x2="190.08" y2="397.56" stroke="#f6465d" stroke-width="1.4" /><rect x="187.08" y="378.51" width="6" height="8.17" rx="1.5" fill="#f6465d" /><line x1="200.81" y1="379.87" x2="200.81" y2="394.84" stroke="#f6465d" stroke-width="1.4" /><rect x="197.81" y="387.35" width="6" height="3.40" rx="1.5" fill="#f6465d" /><line x1="211.54" y1="384.63" x2="211.54" y2="400.96" stroke="#f6465d" stroke-width="1.4" /><rect x="208.54" y="390.08" width="6" height="2.00" rx="1.5" fill="#f6465d" /><line x1="222.28" y1="383.27" x2="222.28" y2="403.01" stroke="#0ecb81" stroke-width="1.4" /><rect x="219.28" y="385.99" width="6" height="5.44" rx="1.5" fill="#0ecb81" /><line x1="233.01" y1="363.54" x2="233.01" y2="388.03" stroke="#0ecb81" stroke-width="1.4" /><rect x="230.01" y="375.79" width="6" height="10.89" rx="1.5" fill="#0ecb81" /><line x1="243.75" y1="361.50" x2="243.75" y2="381.23" stroke="#0ecb81" stroke-width="1.4" /><rect x="240.75" y="361.50" width="6" height="14.29" rx="1.5" fill="#0ecb81" /><line x1="254.48" y1="318.63" x2="254.48" y2="365.58" stroke="#0ecb81" stroke-width="1.4" /><rect x="251.48" y="334.28" width="6" height="27.22" rx="1.5" fill="#0ecb81" /><line x1="265.22" y1="309.78" x2="265.22" y2="339.04" stroke="#0ecb81" stroke-width="1.4" /><rect x="262.22" y="324.07" width="6" height="10.89" rx="1.5" fill="#0ecb81" /><line x1="275.95" y1="314.54" x2="275.95" y2="331.55" stroke="#f6465d" stroke-width="1.4" /><rect x="272.95" y="323.39" width="6" height="6.80" rx="1.5" fill="#f6465d" /><line x1="286.68" y1="300.25" x2="286.68" y2="330.87" stroke="#0ecb81" stroke-width="1.4" /><rect x="283.68" y="311.82" width="6" height="18.37" rx="1.5" fill="#0ecb81" /><line x1="297.42" y1="301.61" x2="297.42" y2="317.94" stroke="#0ecb81" stroke-width="1.4" /><rect x="294.42" y="307.74" width="6" height="4.08" rx="1.5" fill="#0ecb81" /><line x1="308.15" y1="281.20" x2="308.15" y2="309.78" stroke="#0ecb81" stroke-width="1.4" /><rect x="305.15" y="298.21" width="6" height="9.53" rx="1.5" fill="#0ecb81" /><line x1="318.89" y1="271.67" x2="318.89" y2="302.97" stroke="#0ecb81" stroke-width="1.4" /><rect x="315.89" y="273.03" width="6" height="25.18" rx="1.5" fill="#0ecb81" /><line x1="329.62" y1="219.27" x2="329.62" y2="275.07" stroke="#0ecb81" stroke-width="1.4" /><rect x="326.62" y="224.04" width="6" height="49.68" rx="1.5" fill="#0ecb81" /><line x1="340.35" y1="214.51" x2="340.35" y2="257.38" stroke="#f6465d" stroke-width="1.4" /><rect x="337.35" y="224.72" width="6" height="23.82" rx="1.5" fill="#f6465d" /><line x1="351.09" y1="232.20" x2="351.09" y2="253.30" stroke="#0ecb81" stroke-width="1.4" /><rect x="348.09" y="237.65" width="6" height="10.89" rx="1.5" fill="#0ecb81" /><line x1="361.82" y1="200.90" x2="361.82" y2="239.01" stroke="#0ecb81" stroke-width="1.4" /><rect x="358.82" y="208.39" width="6" height="29.94" rx="1.5" fill="#0ecb81" /><line x1="372.56" y1="205.66" x2="372.56" y2="226.76" stroke="#f6465d" stroke-width="1.4" /><rect x="369.56" y="209.07" width="6" height="12.93" rx="1.5" fill="#f6465d" /><line x1="383.29" y1="219.27" x2="383.29" y2="238.33" stroke="#f6465d" stroke-width="1.4" /><rect x="380.29" y="221.32" width="6" height="8.17" rx="1.5" fill="#f6465d" /><line x1="394.03" y1="213.83" x2="394.03" y2="230.16" stroke="#0ecb81" stroke-width="1.4" /><rect x="391.03" y="226.76" width="6" height="2.04" rx="1.5" fill="#0ecb81" /><line x1="404.76" y1="216.55" x2="404.76" y2="235.61" stroke="#0ecb81" stroke-width="1.4" /><rect x="401.76" y="224.04" width="6" height="2.72" rx="1.5" fill="#0ecb81" /><line x1="415.49" y1="213.83" x2="415.49" y2="227.44" stroke="#0ecb81" stroke-width="1.4" /><rect x="412.49" y="213.83" width="6" height="10.21" rx="1.5" fill="#0ecb81" /><line x1="426.23" y1="138.98" x2="426.23" y2="213.83" stroke="#0ecb81" stroke-width="1.4" /><rect x="423.23" y="167.56" width="6" height="46.27" rx="1.5" fill="#0ecb81" /><line x1="436.96" y1="147.14" x2="436.96" y2="176.40" stroke="#f6465d" stroke-width="1.4" /><rect x="433.96" y="167.56" width="6" height="4.76" rx="1.5" fill="#f6465d" /><line x1="447.70" y1="169.60" x2="447.70" y2="181.85" stroke="#0ecb81" stroke-width="1.4" /><rect x="444.70" y="170.96" width="6" height="2.00" rx="1.5" fill="#0ecb81" /><line x1="458.43" y1="151.23" x2="458.43" y2="173.00" stroke="#0ecb81" stroke-width="1.4" /><rect x="455.43" y="170.28" width="6" height="2.00" rx="1.5" fill="#0ecb81" /><line x1="469.16" y1="158.03" x2="469.16" y2="187.97" stroke="#0ecb81" stroke-width="1.4" /><rect x="466.16" y="160.07" width="6" height="10.89" rx="1.5" fill="#0ecb81" /><line x1="479.90" y1="149.18" x2="479.90" y2="168.24" stroke="#0ecb81" stroke-width="1.4" /><rect x="476.90" y="156.67" width="6" height="4.08" rx="1.5" fill="#0ecb81" /><line x1="490.63" y1="138.30" x2="490.63" y2="168.24" stroke="#f6465d" stroke-width="1.4" /><rect x="487.63" y="157.35" width="6" height="9.53" rx="1.5" fill="#f6465d" /><line x1="501.37" y1="148.50" x2="501.37" y2="171.64" stroke="#0ecb81" stroke-width="1.4" /><rect x="498.37" y="158.03" width="6" height="8.85" rx="1.5" fill="#0ecb81" /><line x1="512.10" y1="129.45" x2="512.10" y2="160.75" stroke="#0ecb81" stroke-width="1.4" /><rect x="509.10" y="130.81" width="6" height="27.90" rx="1.5" fill="#0ecb81" /><line x1="522.84" y1="124.69" x2="522.84" y2="146.46" stroke="#f6465d" stroke-width="1.4" /><rect x="519.84" y="130.81" width="6" height="14.29" rx="1.5" fill="#f6465d" /><line x1="533.57" y1="143.74" x2="533.57" y2="160.07" stroke="#f6465d" stroke-width="1.4" /><rect x="530.57" y="144.42" width="6" height="8.85" rx="1.5" fill="#f6465d" /><line x1="544.30" y1="150.55" x2="544.30" y2="162.79" stroke="#f6465d" stroke-width="1.4" /><rect x="541.30" y="153.27" width="6" height="6.12" rx="1.5" fill="#f6465d" /><line x1="555.04" y1="145.78" x2="555.04" y2="177.08" stroke="#f6465d" stroke-width="1.4" /><rect x="552.04" y="159.39" width="6" height="14.29" rx="1.5" fill="#f6465d" /><line x1="565.77" y1="164.84" x2="565.77" y2="182.53" stroke="#0ecb81" stroke-width="1.4" /><rect x="562.77" y="168.92" width="6" height="4.08" rx="1.5" fill="#0ecb81" /><line x1="576.51" y1="158.71" x2="576.51" y2="179.81" stroke="#f6465d" stroke-width="1.4" /><rect x="573.51" y="168.92" width="6" height="10.89" rx="1.5" fill="#f6465d" /><line x1="587.24" y1="174.36" x2="587.24" y2="185.93" stroke="#f6465d" stroke-width="1.4" /><rect x="584.24" y="179.13" width="6" height="2.00" rx="1.5" fill="#f6465d" /><line x1="597.97" y1="177.08" x2="597.97" y2="198.18" stroke="#f6465d" stroke-width="1.4" /><rect x="594.97" y="179.81" width="6" height="4.76" rx="1.5" fill="#f6465d" /><line x1="608.71" y1="175.72" x2="608.71" y2="185.25" stroke="#0ecb81" stroke-width="1.4" /><rect x="605.71" y="178.45" width="6" height="6.80" rx="1.5" fill="#0ecb81" /><line x1="619.44" y1="174.36" x2="619.44" y2="185.93" stroke="#f6465d" stroke-width="1.4" /><rect x="616.44" y="178.45" width="6" height="2.00" rx="1.5" fill="#f6465d" /><line x1="630.18" y1="158.71" x2="630.18" y2="182.53" stroke="#0ecb81" stroke-width="1.4" /><rect x="627.18" y="170.28" width="6" height="8.85" rx="1.5" fill="#0ecb81" /><line x1="640.91" y1="170.96" x2="640.91" y2="179.81" stroke="#f6465d" stroke-width="1.4" /><rect x="637.91" y="170.96" width="6" height="6.12" rx="1.5" fill="#f6465d" /><line x1="651.65" y1="164.84" x2="651.65" y2="177.08" stroke="#0ecb81" stroke-width="1.4" /><rect x="648.65" y="173.68" width="6" height="3.40" rx="1.5" fill="#0ecb81" /><line x1="662.38" y1="164.84" x2="662.38" y2="197.50" stroke="#f6465d" stroke-width="1.4" /><rect x="659.38" y="173.00" width="6" height="4.08" rx="1.5" fill="#f6465d" /><line x1="673.11" y1="166.88" x2="673.11" y2="177.77" stroke="#0ecb81" stroke-width="1.4" /><rect x="670.11" y="174.36" width="6" height="2.72" rx="1.5" fill="#0ecb81" /><line x1="683.85" y1="153.95" x2="683.85" y2="177.08" stroke="#0ecb81" stroke-width="1.4" /><rect x="680.85" y="155.99" width="6" height="19.05" rx="1.5" fill="#0ecb81" /><line x1="694.58" y1="147.14" x2="694.58" y2="168.92" stroke="#0ecb81" stroke-width="1.4" /><rect x="691.58" y="149.18" width="6" height="6.80" rx="1.5" fill="#0ecb81" /><line x1="705.32" y1="75.01" x2="705.32" y2="153.27" stroke="#0ecb81" stroke-width="1.4" /><rect x="702.32" y="101.55" width="6" height="48.31" rx="1.5" fill="#0ecb81" /><line x1="716.05" y1="81.14" x2="716.05" y2="110.40" stroke="#0ecb81" stroke-width="1.4" /><rect x="713.05" y="85.90" width="6" height="15.65" rx="1.5" fill="#0ecb81" /><line x1="726.78" y1="79.09" x2="726.78" y2="94.75" stroke="#f6465d" stroke-width="1.4" /><rect x="723.78" y="85.90" width="6" height="5.44" rx="1.5" fill="#f6465d" /><line x1="737.52" y1="77.05" x2="737.52" y2="102.23" stroke="#0ecb81" stroke-width="1.4" /><rect x="734.52" y="81.14" width="6" height="9.53" rx="1.5" fill="#0ecb81" /><line x1="748.25" y1="58.00" x2="748.25" y2="81.82" stroke="#0ecb81" stroke-width="1.4" /><rect x="745.25" y="66.85" width="6" height="14.29" rx="1.5" fill="#0ecb81" /><line x1="758.99" y1="63.44" x2="758.99" y2="94.07" stroke="#f6465d" stroke-width="1.4" /><rect x="755.99" y="66.85" width="6" height="22.46" rx="1.5" fill="#f6465d" /><line x1="769.72" y1="85.90" x2="769.72" y2="96.79" stroke="#0ecb81" stroke-width="1.4" /><rect x="766.72" y="86.58" width="6" height="2.72" rx="1.5" fill="#0ecb81" /><line x1="780.46" y1="77.73" x2="780.46" y2="89.30" stroke="#f6465d" stroke-width="1.4" /><rect x="777.46" y="86.58" width="6" height="2.00" rx="1.5" fill="#f6465d" /><line x1="791.19" y1="84.54" x2="791.19" y2="92.02" stroke="#f6465d" stroke-width="1.4" /><rect x="788.19" y="87.26" width="6" height="4.76" rx="1.5" fill="#f6465d" /><line x1="801.92" y1="81.14" x2="801.92" y2="94.07" stroke="#0ecb81" stroke-width="1.4" /><rect x="798.92" y="89.98" width="6" height="2.04" rx="1.5" fill="#0ecb81" /><line x1="812.66" y1="82.50" x2="812.66" y2="97.47" stroke="#0ecb81" stroke-width="1.4" /><rect x="809.66" y="89.98" width="6" height="2.00" rx="1.5" fill="#0ecb81" /><line x1="823.39" y1="81.82" x2="823.39" y2="100.19" stroke="#f6465d" stroke-width="1.4" /><rect x="820.39" y="89.98" width="6" height="2.04" rx="1.5" fill="#f6465d" /><line x1="834.13" y1="80.46" x2="834.13" y2="106.99" stroke="#f6465d" stroke-width="1.4" /><rect x="831.13" y="92.02" width="6" height="14.29" rx="1.5" fill="#f6465d" /><line x1="844.86" y1="97.47" x2="844.86" y2="116.52" stroke="#f6465d" stroke-width="1.4" /><rect x="841.86" y="105.63" width="6" height="8.85" rx="1.5" fill="#f6465d" /><line x1="855.59" y1="105.63" x2="855.59" y2="119.92" stroke="#0ecb81" stroke-width="1.4" /><rect x="852.59" y="111.76" width="6" height="3.40" rx="1.5" fill="#0ecb81" /><line x1="866.33" y1="101.55" x2="866.33" y2="111.76" stroke="#0ecb81" stroke-width="1.4" /><rect x="863.33" y="103.59" width="6" height="7.49" rx="1.5" fill="#0ecb81" /><line x1="877.06" y1="101.55" x2="877.06" y2="115.16" stroke="#f6465d" stroke-width="1.4" /><rect x="874.06" y="102.91" width="6" height="6.12" rx="1.5" fill="#f6465d" /><line x1="887.80" y1="107.68" x2="887.80" y2="119.24" stroke="#f6465d" stroke-width="1.4" /><rect x="884.80" y="109.04" width="6" height="9.53" rx="1.5" fill="#f6465d" /><line x1="898.53" y1="117.20" x2="898.53" y2="130.81" stroke="#f6465d" stroke-width="1.4" /><rect x="895.53" y="118.56" width="6" height="2.00" rx="1.5" fill="#f6465d" /><line x1="909.27" y1="111.08" x2="909.27" y2="123.33" stroke="#0ecb81" stroke-width="1.4" /><rect x="906.27" y="111.08" width="6" height="8.17" rx="1.5" fill="#0ecb81" /><line x1="920.00" y1="107.68" x2="920.00" y2="115.84" stroke="#0ecb81" stroke-width="1.4" /><rect x="917.00" y="109.04" width="6" height="2.04" rx="1.5" fill="#0ecb81" />
  <polyline points="469.16,187.97 522.84,124.69 597.97,198.18 630.18,158.71 662.38,197.50" fill="none" stroke="#2fc273" stroke-width="4" stroke-linecap="round" stroke-linejoin="round" />
  <circle cx="469.16" cy="187.97" r="5.5" fill="#2fc273" fill-opacity="0.15" stroke="#2fc273" stroke-width="2" /><text x="469.16" y="175.97" fill="#f3f4f6" font-size="15" font-weight="700" text-anchor="middle">X</text><circle cx="522.84" cy="124.69" r="5.5" fill="#2fc273" fill-opacity="0.15" stroke="#2fc273" stroke-width="2" /><text x="522.84" y="112.69" fill="#f3f4f6" font-size="15" font-weight="700" text-anchor="middle">A</text><circle cx="597.97" cy="198.18" r="5.5" fill="#2fc273" fill-opacity="0.15" stroke="#2fc273" stroke-width="2" /><text x="597.97" y="186.18" fill="#f3f4f6" font-size="15" font-weight="700" text-anchor="middle">B</text><circle cx="630.18" cy="158.71" r="5.5" fill="#2fc273" fill-opacity="0.15" stroke="#2fc273" stroke-width="2" /><text x="630.18" y="146.71" fill="#f3f4f6" font-size="15" font-weight="700" text-anchor="middle">C</text><circle cx="662.38" cy="197.50" r="5.5" fill="#2fc273" fill-opacity="0.15" stroke="#2fc273" stroke-width="2" /><text x="662.38" y="185.50" fill="#f3f4f6" font-size="15" font-weight="700" text-anchor="middle">D</text>
  <text x="56" y="492" fill="#8ba0b5" font-size="18">일반 완성 · TP1 0.87528 · TP2 0.87662 · SL 0.87189</text>
</svg>
