<svg xmlns="http://www.w3.org/2000/svg" width="960" height="540" viewBox="0 0 960 540">
  <rect width="960" height="540" rx="24" fill="#0b1220" />
  <rect x="28" y="28" width="904" height="484" rx="22" fill="#111827" stroke="#1f2937" />
  <text x="56" y="74" fill="#f3f4f6" font-size="34" font-weight="700">TAOUSDT · AB=CD</text>
  <text x="904" y="74" fill="#8ba0b5" font-size="20" text-anchor="end">Bearish (매도) · Score 90.7</text>
  <line x1="72" y1="58" x2="920" y2="58" stroke="#223045" stroke-width="1" stroke-dasharray="4 8" /><line x1="72" y1="156" x2="920" y2="156" stroke="#223045" stroke-width="1" stroke-dasharray="4 8" /><line x1="72" y1="255" x2="920" y2="255" stroke="#223045" stroke-width="1" stroke-dasharray="4 8" /><line x1="72" y1="353" x2="920" y2="353" stroke="#223045" stroke-width="1" stroke-dasharray="4 8" /><line x1="72" y1="452" x2="920" y2="452" stroke="#223045" stroke-width="1" stroke-dasharray="4 8" />
  <rect x="816.86" y="16.69" width="84" height="63.43" fill="#fbbf24" fill-opacity="0.12" stroke="#fbbf24" stroke-width="1.5" stroke-dasharray="6 6" />
  <line x1="72.00" y1="305.11" x2="72.00" y2="437.09" stroke="#0ecb81" stroke-width="1.4" /><rect x="69.00" y="335.66" width="6" height="96.30" rx="1.5" fill="#0ecb81" /><line x1="82.73" y1="308.04" x2="82.73" y2="356.68" stroke="#0ecb81" stroke-width="1.4" /><rect x="79.73" y="325.64" width="6" height="10.02" rx="1.5" fill="#0ecb81" /><line x1="93.47" y1="301.93" x2="93.47" y2="349.34" stroke="#0ecb81" stroke-width="1.4" /><rect x="90.47" y="323.19" width="6" height="2.44" rx="1.5" fill="#0ecb81" /><line x1="104.20" y1="313.90" x2="104.20" y2="365.72" stroke="#f6465d" stroke-width="1.4" /><rect x="101.20" y="323.19" width="6" height="16.38" rx="1.5" fill="#f6465d" /><line x1="114.94" y1="292.64" x2="114.94" y2="339.57" stroke="#0ecb81" stroke-width="1.4" /><rect x="111.94" y="313.90" width="6" height="25.66" rx="1.5" fill="#0ecb81" /><line x1="125.67" y1="306.33" x2="125.67" y2="345.19" stroke="#f6465d" stroke-width="1.4" /><rect x="122.67" y="314.15" width="6" height="23.46" rx="1.5" fill="#f6465d" /><line x1="136.41" y1="335.66" x2="136.41" y2="379.41" stroke="#f6465d" stroke-width="1.4" /><rect x="133.41" y="337.37" width="6" height="29.09" rx="1.5" fill="#f6465d" /><line x1="147.14" y1="347.39" x2="147.14" y2="366.45" stroke="#0ecb81" stroke-width="1.4" /><rect x="144.14" y="358.88" width="6" height="7.33" rx="1.5" fill="#0ecb81" /><line x1="157.87" y1="332.48" x2="157.87" y2="359.85" stroke="#0ecb81" stroke-width="1.4" /><rect x="154.87" y="341.28" width="6" height="17.84" rx="1.5" fill="#0ecb81" /><line x1="168.61" y1="331.01" x2="168.61" y2="389.43" stroke="#f6465d" stroke-width="1.4" /><rect x="165.61" y="341.28" width="6" height="38.13" rx="1.5" fill="#f6465d" /><line x1="179.34" y1="367.19" x2="179.34" y2="386.99" stroke="#0ecb81" stroke-width="1.4" /><rect x="176.34" y="368.41" width="6" height="9.78" rx="1.5" fill="#0ecb81" /><line x1="190.08" y1="346.41" x2="190.08" y2="373.79" stroke="#0ecb81" stroke-width="1.4" /><rect x="187.08" y="351.06" width="6" height="17.35" rx="1.5" fill="#0ecb81" /><line x1="200.81" y1="331.01" x2="200.81" y2="358.63" stroke="#0ecb81" stroke-width="1.4" /><rect x="197.81" y="342.01" width="6" height="9.29" rx="1.5" fill="#0ecb81" /><line x1="211.54" y1="323.68" x2="211.54" y2="353.01" stroke="#f6465d" stroke-width="1.4" /><rect x="208.54" y="342.01" width="6" height="7.09" rx="1.5" fill="#f6465d" /><line x1="222.28" y1="340.06" x2="222.28" y2="377.94" stroke="#0ecb81" stroke-width="1.4" /><rect x="219.28" y="340.55" width="6" height="8.80" rx="1.5" fill="#0ecb81" /><line x1="233.01" y1="316.59" x2="233.01" y2="343.48" stroke="#0ecb81" stroke-width="1.4" /><rect x="230.01" y="326.61" width="6" height="13.93" rx="1.5" fill="#0ecb81" /><line x1="243.75" y1="286.77" x2="243.75" y2="330.52" stroke="#0ecb81" stroke-width="1.4" /><rect x="240.75" y="297.77" width="6" height="28.84" rx="1.5" fill="#0ecb81" /><line x1="254.48" y1="269.67" x2="254.48" y2="314.39" stroke="#0ecb81" stroke-width="1.4" /><rect x="251.48" y="275.29" width="6" height="22.49" rx="1.5" fill="#0ecb81" /><line x1="265.22" y1="267.95" x2="265.22" y2="296.55" stroke="#f6465d" stroke-width="1.4" /><rect x="262.22" y="275.29" width="6" height="18.58" rx="1.5" fill="#f6465d" /><line x1="275.95" y1="293.13" x2="275.95" y2="317.33" stroke="#f6465d" stroke-width="1.4" /><rect x="272.95" y="294.11" width="6" height="21.51" rx="1.5" fill="#f6465d" /><line x1="286.68" y1="304.62" x2="286.68" y2="344.70" stroke="#f6465d" stroke-width="1.4" /><rect x="283.68" y="315.62" width="6" height="24.20" rx="1.5" fill="#f6465d" /><line x1="297.42" y1="334.68" x2="297.42" y2="382.59" stroke="#f6465d" stroke-width="1.4" /><rect x="294.42" y="339.57" width="6" height="39.35" rx="1.5" fill="#f6465d" /><line x1="308.15" y1="351.30" x2="308.15" y2="378.67" stroke="#0ecb81" stroke-width="1.4" /><rect x="305.15" y="373.79" width="6" height="4.89" rx="1.5" fill="#0ecb81" /><line x1="318.89" y1="354.23" x2="318.89" y2="374.52" stroke="#0ecb81" stroke-width="1.4" /><rect x="315.89" y="362.79" width="6" height="11.00" rx="1.5" fill="#0ecb81" /><line x1="329.62" y1="363.03" x2="329.62" y2="404.58" stroke="#f6465d" stroke-width="1.4" /><rect x="326.62" y="363.03" width="6" height="22.98" rx="1.5" fill="#f6465d" /><line x1="340.35" y1="381.61" x2="340.35" y2="423.65" stroke="#f6465d" stroke-width="1.4" /><rect x="337.35" y="383.81" width="6" height="22.24" rx="1.5" fill="#f6465d" /><line x1="351.09" y1="404.34" x2="351.09" y2="435.38" stroke="#f6465d" stroke-width="1.4" /><rect x="348.09" y="406.29" width="6" height="4.64" rx="1.5" fill="#f6465d" /><line x1="361.82" y1="403.12" x2="361.82" y2="419.74" stroke="#f6465d" stroke-width="1.4" /><rect x="358.82" y="411.18" width="6" height="3.91" rx="1.5" fill="#f6465d" /><line x1="372.56" y1="410.69" x2="372.56" y2="434.16" stroke="#f6465d" stroke-width="1.4" /><rect x="369.56" y="415.09" width="6" height="15.89" rx="1.5" fill="#f6465d" /><line x1="383.29" y1="410.69" x2="383.29" y2="447.36" stroke="#f6465d" stroke-width="1.4" /><rect x="380.29" y="430.98" width="6" height="11.98" rx="1.5" fill="#f6465d" /><line x1="394.03" y1="400.43" x2="394.03" y2="452.00" stroke="#0ecb81" stroke-width="1.4" /><rect x="391.03" y="403.85" width="6" height="38.86" rx="1.5" fill="#0ecb81" /><line x1="404.76" y1="383.56" x2="404.76" y2="410.94" stroke="#0ecb81" stroke-width="1.4" /><rect x="401.76" y="400.92" width="6" height="2.93" rx="1.5" fill="#0ecb81" /><line x1="415.49" y1="389.43" x2="415.49" y2="402.63" stroke="#0ecb81" stroke-width="1.4" /><rect x="412.49" y="392.36" width="6" height="8.55" rx="1.5" fill="#0ecb81" /><line x1="426.23" y1="383.32" x2="426.23" y2="415.09" stroke="#f6465d" stroke-width="1.4" /><rect x="423.23" y="392.12" width="6" height="15.40" rx="1.5" fill="#f6465d" /><line x1="436.96" y1="406.78" x2="436.96" y2="437.82" stroke="#f6465d" stroke-width="1.4" /><rect x="433.96" y="407.76" width="6" height="28.60" rx="1.5" fill="#f6465d" /><line x1="447.70" y1="419.98" x2="447.70" y2="440.51" stroke="#0ecb81" stroke-width="1.4" /><rect x="444.70" y="434.16" width="6" height="2.44" rx="1.5" fill="#0ecb81" /><line x1="458.43" y1="423.40" x2="458.43" y2="440.27" stroke="#0ecb81" stroke-width="1.4" /><rect x="455.43" y="424.63" width="6" height="9.04" rx="1.5" fill="#0ecb81" /><line x1="469.16" y1="394.32" x2="469.16" y2="425.85" stroke="#0ecb81" stroke-width="1.4" /><rect x="466.16" y="398.23" width="6" height="26.64" rx="1.5" fill="#0ecb81" /><line x1="479.90" y1="386.25" x2="479.90" y2="405.32" stroke="#f6465d" stroke-width="1.4" /><rect x="476.90" y="398.23" width="6" height="5.13" rx="1.5" fill="#f6465d" /><line x1="490.63" y1="383.56" x2="490.63" y2="407.76" stroke="#0ecb81" stroke-width="1.4" /><rect x="487.63" y="392.12" width="6" height="11.24" rx="1.5" fill="#0ecb81" /><line x1="501.37" y1="363.77" x2="501.37" y2="398.96" stroke="#0ecb81" stroke-width="1.4" /><rect x="498.37" y="392.12" width="6" height="2.00" rx="1.5" fill="#0ecb81" /><line x1="512.10" y1="389.43" x2="512.10" y2="411.67" stroke="#f6465d" stroke-width="1.4" /><rect x="509.10" y="392.12" width="6" height="5.38" rx="1.5" fill="#f6465d" /><line x1="522.84" y1="356.92" x2="522.84" y2="399.45" stroke="#0ecb81" stroke-width="1.4" /><rect x="519.84" y="363.52" width="6" height="33.73" rx="1.5" fill="#0ecb81" /><line x1="533.57" y1="332.48" x2="533.57" y2="369.39" stroke="#0ecb81" stroke-width="1.4" /><rect x="530.57" y="338.83" width="6" height="24.69" rx="1.5" fill="#0ecb81" /><line x1="544.30" y1="338.59" x2="544.30" y2="354.72" stroke="#f6465d" stroke-width="1.4" /><rect x="541.30" y="338.59" width="6" height="6.84" rx="1.5" fill="#f6465d" /><line x1="555.04" y1="341.77" x2="555.04" y2="374.03" stroke="#f6465d" stroke-width="1.4" /><rect x="552.04" y="345.43" width="6" height="25.91" rx="1.5" fill="#f6465d" /><line x1="565.77" y1="350.81" x2="565.77" y2="380.14" stroke="#f6465d" stroke-width="1.4" /><rect x="562.77" y="371.10" width="6" height="3.18" rx="1.5" fill="#f6465d" /><line x1="576.51" y1="338.83" x2="576.51" y2="380.63" stroke="#0ecb81" stroke-width="1.4" /><rect x="573.51" y="347.15" width="6" height="27.13" rx="1.5" fill="#0ecb81" /><line x1="587.24" y1="310.24" x2="587.24" y2="347.39" stroke="#0ecb81" stroke-width="1.4" /><rect x="584.24" y="339.32" width="6" height="8.07" rx="1.5" fill="#0ecb81" /><line x1="597.97" y1="302.17" x2="597.97" y2="342.01" stroke="#0ecb81" stroke-width="1.4" /><rect x="594.97" y="314.15" width="6" height="25.17" rx="1.5" fill="#0ecb81" /><line x1="608.71" y1="301.93" x2="608.71" y2="323.68" stroke="#f6465d" stroke-width="1.4" /><rect x="605.71" y="314.15" width="6" height="7.09" rx="1.5" fill="#f6465d" /><line x1="619.44" y1="238.38" x2="619.44" y2="325.64" stroke="#0ecb81" stroke-width="1.4" /><rect x="616.44" y="269.67" width="6" height="51.82" rx="1.5" fill="#0ecb81" /><line x1="630.18" y1="224.45" x2="630.18" y2="288.73" stroke="#0ecb81" stroke-width="1.4" /><rect x="627.18" y="249.38" width="6" height="20.53" rx="1.5" fill="#0ecb81" /><line x1="640.91" y1="237.40" x2="640.91" y2="269.18" stroke="#0ecb81" stroke-width="1.4" /><rect x="637.91" y="246.45" width="6" height="2.93" rx="1.5" fill="#0ecb81" /><line x1="651.65" y1="241.31" x2="651.65" y2="268.44" stroke="#f6465d" stroke-width="1.4" /><rect x="648.65" y="246.69" width="6" height="15.15" rx="1.5" fill="#f6465d" /><line x1="662.38" y1="219.07" x2="662.38" y2="262.82" stroke="#0ecb81" stroke-width="1.4" /><rect x="659.38" y="255.24" width="6" height="6.60" rx="1.5" fill="#0ecb81" /><line x1="673.11" y1="242.29" x2="673.11" y2="267.71" stroke="#f6465d" stroke-width="1.4" /><rect x="670.11" y="255.24" width="6" height="9.78" rx="1.5" fill="#f6465d" /><line x1="683.85" y1="205.14" x2="683.85" y2="267.71" stroke="#0ecb81" stroke-width="1.4" /><rect x="680.85" y="209.78" width="6" height="55.24" rx="1.5" fill="#0ecb81" /><line x1="694.58" y1="184.36" x2="694.58" y2="254.76" stroke="#f6465d" stroke-width="1.4" /><rect x="691.58" y="209.78" width="6" height="28.11" rx="1.5" fill="#f6465d" /><line x1="705.32" y1="212.96" x2="705.32" y2="249.87" stroke="#0ecb81" stroke-width="1.4" /><rect x="702.32" y="219.80" width="6" height="18.09" rx="1.5" fill="#0ecb81" /><line x1="716.05" y1="155.52" x2="716.05" y2="221.27" stroke="#0ecb81" stroke-width="1.4" /><rect x="713.05" y="171.90" width="6" height="48.15" rx="1.5" fill="#0ecb81" /><line x1="726.78" y1="172.14" x2="726.78" y2="211.74" stroke="#f6465d" stroke-width="1.4" /><rect x="723.78" y="172.14" width="6" height="31.77" rx="1.5" fill="#f6465d" /><line x1="737.52" y1="201.23" x2="737.52" y2="223.71" stroke="#f6465d" stroke-width="1.4" /><rect x="734.52" y="204.16" width="6" height="8.07" rx="1.5" fill="#f6465d" /><line x1="748.25" y1="196.34" x2="748.25" y2="241.80" stroke="#f6465d" stroke-width="1.4" /><rect x="745.25" y="212.23" width="6" height="28.35" rx="1.5" fill="#f6465d" /><line x1="758.99" y1="209.78" x2="758.99" y2="240.58" stroke="#0ecb81" stroke-width="1.4" /><rect x="755.99" y="234.47" width="6" height="6.11" rx="1.5" fill="#0ecb81" /><line x1="769.72" y1="209.05" x2="769.72" y2="240.58" stroke="#0ecb81" stroke-width="1.4" /><rect x="766.72" y="221.03" width="6" height="12.71" rx="1.5" fill="#0ecb81" /><line x1="780.46" y1="201.23" x2="780.46" y2="232.76" stroke="#0ecb81" stroke-width="1.4" /><rect x="777.46" y="206.36" width="6" height="14.67" rx="1.5" fill="#0ecb81" /><line x1="791.19" y1="186.56" x2="791.19" y2="218.58" stroke="#f6465d" stroke-width="1.4" /><rect x="788.19" y="206.12" width="6" height="2.00" rx="1.5" fill="#f6465d" /><line x1="801.92" y1="176.79" x2="801.92" y2="211.49" stroke="#0ecb81" stroke-width="1.4" /><rect x="798.92" y="181.43" width="6" height="25.66" rx="1.5" fill="#0ecb81" /><line x1="812.66" y1="105.17" x2="812.66" y2="191.45" stroke="#0ecb81" stroke-width="1.4" /><rect x="809.66" y="128.15" width="6" height="53.28" rx="1.5" fill="#0ecb81" /><line x1="823.39" y1="94.17" x2="823.39" y2="136.70" stroke="#0ecb81" stroke-width="1.4" /><rect x="820.39" y="97.35" width="6" height="30.80" rx="1.5" fill="#0ecb81" /><line x1="834.13" y1="79.26" x2="834.13" y2="102.48" stroke="#0ecb81" stroke-width="1.4" /><rect x="831.13" y="80.00" width="6" height="17.60" rx="1.5" fill="#0ecb81" /><line x1="844.86" y1="58.00" x2="844.86" y2="96.13" stroke="#f6465d" stroke-width="1.4" /><rect x="841.86" y="80.00" width="6" height="12.22" rx="1.5" fill="#f6465d" /><line x1="855.59" y1="78.29" x2="855.59" y2="121.06" stroke="#f6465d" stroke-width="1.4" /><rect x="852.59" y="91.97" width="6" height="22.24" rx="1.5" fill="#f6465d" /><line x1="866.33" y1="106.64" x2="866.33" y2="128.15" stroke="#f6465d" stroke-width="1.4" /><rect x="863.33" y="114.22" width="6" height="6.84" rx="1.5" fill="#f6465d" /><line x1="877.06" y1="92.46" x2="877.06" y2="123.50" stroke="#0ecb81" stroke-width="1.4" /><rect x="874.06" y="115.19" width="6" height="6.11" rx="1.5" fill="#0ecb81" /><line x1="887.80" y1="95.40" x2="887.80" y2="142.57" stroke="#f6465d" stroke-width="1.4" /><rect x="884.80" y="114.95" width="6" height="27.13" rx="1.5" fill="#f6465d" /><line x1="898.53" y1="137.92" x2="898.53" y2="155.77" stroke="#f6465d" stroke-width="1.4" /><rect x="895.53" y="141.83" width="6" height="10.51" rx="1.5" fill="#f6465d" /><line x1="909.27" y1="142.57" x2="909.27" y2="170.43" stroke="#0ecb81" stroke-width="1.4" /><rect x="906.27" y="149.17" width="6" height="2.93" rx="1.5" fill="#0ecb81" /><line x1="920.00" y1="144.03" x2="920.00" y2="168.48" stroke="#f6465d" stroke-width="1.4" /><rect x="917.00" y="148.43" width="6" height="11.24" rx="1.5" fill="#f6465d" />
  <polyline points="533.57,332.48 576.51,380.63 716.05,155.52 748.25,241.80 844.86,58.00" fill="none" stroke="#2fc273" stroke-width="4" stroke-linecap="round" stroke-linejoin="round" />
  <circle cx="533.57" cy="332.48" r="5.5" fill="#2fc273" fill-opacity="0.15" stroke="#2fc273" stroke-width="2" /><text x="533.57" y="320.48" fill="#f3f4f6" font-size="15" font-weight="700" text-anchor="middle">X</text><circle cx="576.51" cy="380.63" r="5.5" fill="#2fc273" fill-opacity="0.15" stroke="#2fc273" stroke-width="2" /><text x="576.51" y="368.63" fill="#f3f4f6" font-size="15" font-weight="700" text-anchor="middle">A</text><circle cx="716.05" cy="155.52" r="5.5" fill="#2fc273" fill-opacity="0.15" stroke="#2fc273" stroke-width="2" /><text x="716.05" y="143.52" fill="#f3f4f6" font-size="15" font-weight="700" text-anchor="middle">B</text><circle cx="748.25" cy="241.80" r="5.5" fill="#2fc273" fill-opacity="0.15" stroke="#2fc273" stroke-width="2" /><text x="748.25" y="229.80" fill="#f3f4f6" font-size="15" font-weight="700" text-anchor="middle">C</text><circle cx="844.86" cy="58.00" r="5.5" fill="#2fc273" fill-opacity="0.15" stroke="#2fc273" stroke-width="2" /><text x="844.86" y="46.00" fill="#f3f4f6" font-size="15" font-weight="700" text-anchor="middle">D</text>
  <text x="56" y="492" fill="#8ba0b5" font-size="18">일반 완성 · TP1 327.107 · TP2 325.333 · SL 330.236</text>
</svg>
