<svg xmlns="http://www.w3.org/2000/svg" width="960" height="540" viewBox="0 0 960 540">
  <rect width="960" height="540" rx="24" fill="#0b1220" />
  <rect x="28" y="28" width="904" height="484" rx="22" fill="#111827" stroke="#1f2937" />
  <text x="56" y="74" fill="#f3f4f6" font-size="34" font-weight="700">TRUUSDT · AB=CD</text>
  <text x="904" y="74" fill="#8ba0b5" font-size="20" text-anchor="end">Bearish (매도) · Score 78.5</text>
  <line x1="72" y1="58" x2="920" y2="58" stroke="#223045" stroke-width="1" stroke-dasharray="4 8" /><line x1="72" y1="156" x2="920" y2="156" stroke="#223045" stroke-width="1" stroke-dasharray="4 8" /><line x1="72" y1="255" x2="920" y2="255" stroke="#223045" stroke-width="1" stroke-dasharray="4 8" /><line x1="72" y1="353" x2="920" y2="353" stroke="#223045" stroke-width="1" stroke-dasharray="4 8" /><line x1="72" y1="452" x2="920" y2="452" stroke="#223045" stroke-width="1" stroke-dasharray="4 8" />
  <rect x="752.46" y="57.95" width="84" height="41.66" fill="#fbbf24" fill-opacity="0.12" stroke="#fbbf24" stroke-width="1.5" stroke-dasharray="6 6" />
  <line x1="72.00" y1="449.45" x2="72.00" y2="452.00" stroke="#f6465d" stroke-width="1.4" /><rect x="69.00" y="451.31" width="6" height="2.00" rx="1.5" fill="#f6465d" /><line x1="82.73" y1="445.89" x2="82.73" y2="451.57" stroke="#0ecb81" stroke-width="1.4" /><rect x="79.73" y="447.96" width="6" height="3.61" rx="1.5" fill="#0ecb81" /><line x1="93.47" y1="445.78" x2="93.47" y2="448.81" stroke="#0ecb81" stroke-width="1.4" /><rect x="90.47" y="447.96" width="6" height="2.00" rx="1.5" fill="#0ecb81" /><line x1="104.20" y1="444.99" x2="104.20" y2="450.03" stroke="#f6465d" stroke-width="1.4" /><rect x="101.20" y="447.75" width="6" height="2.00" rx="1.5" fill="#f6465d" /><line x1="114.94" y1="449.18" x2="114.94" y2="450.78" stroke="#f6465d" stroke-width="1.4" /><rect x="111.94" y="449.82" width="6" height="2.00" rx="1.5" fill="#f6465d" /><line x1="125.67" y1="447.85" x2="125.67" y2="450.19" stroke="#0ecb81" stroke-width="1.4" /><rect x="122.67" y="448.55" width="6" height="2.00" rx="1.5" fill="#0ecb81" /><line x1="136.41" y1="448.17" x2="136.41" y2="450.78" stroke="#f6465d" stroke-width="1.4" /><rect x="133.41" y="448.39" width="6" height="2.07" rx="1.5" fill="#f6465d" /><line x1="147.14" y1="447.75" x2="147.14" y2="451.73" stroke="#0ecb81" stroke-width="1.4" /><rect x="144.14" y="448.97" width="6" height="2.00" rx="1.5" fill="#0ecb81" /><line x1="157.87" y1="443.34" x2="157.87" y2="448.92" stroke="#0ecb81" stroke-width="1.4" /><rect x="154.87" y="444.24" width="6" height="4.52" rx="1.5" fill="#0ecb81" /><line x1="168.61" y1="437.97" x2="168.61" y2="445.20" stroke="#0ecb81" stroke-width="1.4" /><rect x="165.61" y="440.20" width="6" height="4.36" rx="1.5" fill="#0ecb81" /><line x1="179.34" y1="422.72" x2="179.34" y2="441.11" stroke="#0ecb81" stroke-width="1.4" /><rect x="176.34" y="429.73" width="6" height="10.47" rx="1.5" fill="#0ecb81" /><line x1="190.08" y1="426.49" x2="190.08" y2="435.84" stroke="#f6465d" stroke-width="1.4" /><rect x="187.08" y="429.84" width="6" height="3.35" rx="1.5" fill="#f6465d" /><line x1="200.81" y1="428.30" x2="200.81" y2="433.98" stroke="#0ecb81" stroke-width="1.4" /><rect x="197.81" y="428.78" width="6" height="4.41" rx="1.5" fill="#0ecb81" /><line x1="211.54" y1="427.18" x2="211.54" y2="432.12" stroke="#f6465d" stroke-width="1.4" /><rect x="208.54" y="428.40" width="6" height="2.07" rx="1.5" fill="#f6465d" /><line x1="222.28" y1="402.26" x2="222.28" y2="430.74" stroke="#0ecb81" stroke-width="1.4" /><rect x="219.28" y="405.87" width="6" height="24.66" rx="1.5" fill="#0ecb81" /><line x1="233.01" y1="386.58" x2="233.01" y2="406.08" stroke="#0ecb81" stroke-width="1.4" /><rect x="230.01" y="388.76" width="6" height="16.63" rx="1.5" fill="#0ecb81" /><line x1="243.75" y1="364.53" x2="243.75" y2="392.21" stroke="#0ecb81" stroke-width="1.4" /><rect x="240.75" y="366.60" width="6" height="21.68" rx="1.5" fill="#0ecb81" /><line x1="254.48" y1="357.25" x2="254.48" y2="377.28" stroke="#f6465d" stroke-width="1.4" /><rect x="251.48" y="366.17" width="6" height="5.00" rx="1.5" fill="#f6465d" /><line x1="265.22" y1="354.75" x2="265.22" y2="373.03" stroke="#0ecb81" stroke-width="1.4" /><rect x="262.22" y="361.50" width="6" height="9.35" rx="1.5" fill="#0ecb81" /><line x1="275.95" y1="348.85" x2="275.95" y2="364.26" stroke="#0ecb81" stroke-width="1.4" /><rect x="272.95" y="355.86" width="6" height="5.58" rx="1.5" fill="#0ecb81" /><line x1="286.68" y1="344.97" x2="286.68" y2="359.58" stroke="#0ecb81" stroke-width="1.4" /><rect x="283.68" y="353.79" width="6" height="2.07" rx="1.5" fill="#0ecb81" /><line x1="297.42" y1="351.72" x2="297.42" y2="368.03" stroke="#f6465d" stroke-width="1.4" /><rect x="294.42" y="353.90" width="6" height="10.36" rx="1.5" fill="#f6465d" /><line x1="308.15" y1="356.61" x2="308.15" y2="367.88" stroke="#f6465d" stroke-width="1.4" /><rect x="305.15" y="364.00" width="6" height="2.98" rx="1.5" fill="#f6465d" /><line x1="318.89" y1="356.82" x2="318.89" y2="369.36" stroke="#0ecb81" stroke-width="1.4" /><rect x="315.89" y="362.45" width="6" height="4.46" rx="1.5" fill="#0ecb81" /><line x1="329.62" y1="361.82" x2="329.62" y2="386.74" stroke="#f6465d" stroke-width="1.4" /><rect x="326.62" y="362.77" width="6" height="10.68" rx="1.5" fill="#f6465d" /><line x1="340.35" y1="367.29" x2="340.35" y2="377.23" stroke="#0ecb81" stroke-width="1.4" /><rect x="337.35" y="371.81" width="6" height="2.00" rx="1.5" fill="#0ecb81" /><line x1="351.09" y1="358.26" x2="351.09" y2="372.82" stroke="#0ecb81" stroke-width="1.4" /><rect x="348.09" y="359.16" width="6" height="12.81" rx="1.5" fill="#0ecb81" /><line x1="361.82" y1="353.90" x2="361.82" y2="367.93" stroke="#f6465d" stroke-width="1.4" /><rect x="358.82" y="359.37" width="6" height="8.34" rx="1.5" fill="#f6465d" /><line x1="372.56" y1="364.95" x2="372.56" y2="372.66" stroke="#f6465d" stroke-width="1.4" /><rect x="369.56" y="367.34" width="6" height="2.34" rx="1.5" fill="#f6465d" /><line x1="383.29" y1="367.34" x2="383.29" y2="373.51" stroke="#f6465d" stroke-width="1.4" /><rect x="380.29" y="369.42" width="6" height="2.00" rx="1.5" fill="#f6465d" /><line x1="394.03" y1="365.16" x2="394.03" y2="372.92" stroke="#0ecb81" stroke-width="1.4" /><rect x="391.03" y="366.76" width="6" height="3.03" rx="1.5" fill="#0ecb81" /><line x1="404.76" y1="363.15" x2="404.76" y2="373.51" stroke="#f6465d" stroke-width="1.4" /><rect x="401.76" y="366.76" width="6" height="6.43" rx="1.5" fill="#f6465d" /><line x1="415.49" y1="370.74" x2="415.49" y2="379.73" stroke="#f6465d" stroke-width="1.4" /><rect x="412.49" y="373.24" width="6" height="2.00" rx="1.5" fill="#f6465d" /><line x1="426.23" y1="368.78" x2="426.23" y2="375.79" stroke="#0ecb81" stroke-width="1.4" /><rect x="423.23" y="369.10" width="6" height="4.30" rx="1.5" fill="#0ecb81" /><line x1="436.96" y1="366.55" x2="436.96" y2="377.02" stroke="#0ecb81" stroke-width="1.4" /><rect x="433.96" y="367.50" width="6" height="2.00" rx="1.5" fill="#0ecb81" /><line x1="447.70" y1="354.64" x2="447.70" y2="368.09" stroke="#0ecb81" stroke-width="1.4" /><rect x="444.70" y="356.13" width="6" height="11.37" rx="1.5" fill="#0ecb81" /><line x1="458.43" y1="354.43" x2="458.43" y2="368.99" stroke="#f6465d" stroke-width="1.4" /><rect x="455.43" y="356.34" width="6" height="10.58" rx="1.5" fill="#f6465d" /><line x1="469.16" y1="362.03" x2="469.16" y2="368.14" stroke="#0ecb81" stroke-width="1.4" /><rect x="466.16" y="363.89" width="6" height="2.71" rx="1.5" fill="#0ecb81" /><line x1="479.90" y1="362.61" x2="479.90" y2="367.34" stroke="#f6465d" stroke-width="1.4" /><rect x="476.90" y="363.94" width="6" height="2.00" rx="1.5" fill="#f6465d" /><line x1="490.63" y1="361.18" x2="490.63" y2="366.76" stroke="#f6465d" stroke-width="1.4" /><rect x="487.63" y="364.63" width="6" height="2.00" rx="1.5" fill="#f6465d" /><line x1="501.37" y1="334.71" x2="501.37" y2="367.98" stroke="#0ecb81" stroke-width="1.4" /><rect x="498.37" y="336.52" width="6" height="29.28" rx="1.5" fill="#0ecb81" /><line x1="512.10" y1="307.77" x2="512.10" y2="338.97" stroke="#0ecb81" stroke-width="1.4" /><rect x="509.10" y="311.49" width="6" height="25.03" rx="1.5" fill="#0ecb81" /><line x1="522.84" y1="280.14" x2="522.84" y2="311.92" stroke="#0ecb81" stroke-width="1.4" /><rect x="519.84" y="304.32" width="6" height="7.60" rx="1.5" fill="#0ecb81" /><line x1="533.57" y1="291.14" x2="533.57" y2="307.24" stroke="#0ecb81" stroke-width="1.4" /><rect x="530.57" y="294.54" width="6" height="9.88" rx="1.5" fill="#0ecb81" /><line x1="544.30" y1="273.23" x2="544.30" y2="296.93" stroke="#0ecb81" stroke-width="1.4" /><rect x="541.30" y="290.87" width="6" height="3.24" rx="1.5" fill="#0ecb81" /><line x1="555.04" y1="242.51" x2="555.04" y2="296.13" stroke="#0ecb81" stroke-width="1.4" /><rect x="552.04" y="263.29" width="6" height="28.06" rx="1.5" fill="#0ecb81" /><line x1="565.77" y1="238.69" x2="565.77" y2="272.32" stroke="#0ecb81" stroke-width="1.4" /><rect x="562.77" y="257.34" width="6" height="5.90" rx="1.5" fill="#0ecb81" /><line x1="576.51" y1="246.23" x2="576.51" y2="265.68" stroke="#f6465d" stroke-width="1.4" /><rect x="573.51" y="257.44" width="6" height="4.52" rx="1.5" fill="#f6465d" /><line x1="587.24" y1="195.11" x2="587.24" y2="267.81" stroke="#0ecb81" stroke-width="1.4" /><rect x="584.24" y="214.03" width="6" height="47.93" rx="1.5" fill="#0ecb81" /><line x1="597.97" y1="180.81" x2="597.97" y2="219.18" stroke="#0ecb81" stroke-width="1.4" /><rect x="594.97" y="209.62" width="6" height="4.15" rx="1.5" fill="#0ecb81" /><line x1="608.71" y1="200.69" x2="608.71" y2="230.18" stroke="#f6465d" stroke-width="1.4" /><rect x="605.71" y="209.78" width="6" height="4.62" rx="1.5" fill="#f6465d" /><line x1="619.44" y1="175.45" x2="619.44" y2="217.43" stroke="#0ecb81" stroke-width="1.4" /><rect x="616.44" y="190.17" width="6" height="24.23" rx="1.5" fill="#0ecb81" /><line x1="630.18" y1="186.76" x2="630.18" y2="249.95" stroke="#f6465d" stroke-width="1.4" /><rect x="627.18" y="190.17" width="6" height="42.04" rx="1.5" fill="#f6465d" /><line x1="640.91" y1="222.10" x2="640.91" y2="243.41" stroke="#f6465d" stroke-width="1.4" /><rect x="637.91" y="232.10" width="6" height="2.60" rx="1.5" fill="#f6465d" /><line x1="651.65" y1="217.16" x2="651.65" y2="262.23" stroke="#0ecb81" stroke-width="1.4" /><rect x="648.65" y="219.39" width="6" height="15.31" rx="1.5" fill="#0ecb81" /><line x1="662.38" y1="195.11" x2="662.38" y2="220.67" stroke="#0ecb81" stroke-width="1.4" /><rect x="659.38" y="207.65" width="6" height="11.64" rx="1.5" fill="#0ecb81" /><line x1="673.11" y1="202.87" x2="673.11" y2="223.22" stroke="#f6465d" stroke-width="1.4" /><rect x="670.11" y="207.65" width="6" height="2.00" rx="1.5" fill="#f6465d" /><line x1="683.85" y1="188.78" x2="683.85" y2="223.01" stroke="#f6465d" stroke-width="1.4" /><rect x="680.85" y="208.29" width="6" height="2.00" rx="1.5" fill="#f6465d" /><line x1="694.58" y1="184.80" x2="694.58" y2="212.70" stroke="#0ecb81" stroke-width="1.4" /><rect x="691.58" y="203.19" width="6" height="5.63" rx="1.5" fill="#0ecb81" /><line x1="705.32" y1="125.76" x2="705.32" y2="207.81" stroke="#0ecb81" stroke-width="1.4" /><rect x="702.32" y="144.52" width="6" height="59.04" rx="1.5" fill="#0ecb81" /><line x1="716.05" y1="136.81" x2="716.05" y2="171.83" stroke="#f6465d" stroke-width="1.4" /><rect x="713.05" y="144.52" width="6" height="5.74" rx="1.5" fill="#f6465d" /><line x1="726.78" y1="111.67" x2="726.78" y2="158.81" stroke="#0ecb81" stroke-width="1.4" /><rect x="723.78" y="117.41" width="6" height="33.05" rx="1.5" fill="#0ecb81" /><line x1="737.52" y1="105.51" x2="737.52" y2="144.09" stroke="#f6465d" stroke-width="1.4" /><rect x="734.52" y="117.15" width="6" height="22.96" rx="1.5" fill="#f6465d" /><line x1="748.25" y1="82.45" x2="748.25" y2="153.13" stroke="#0ecb81" stroke-width="1.4" /><rect x="745.25" y="96.00" width="6" height="44.00" rx="1.5" fill="#0ecb81" /><line x1="758.99" y1="62.25" x2="758.99" y2="108.96" stroke="#0ecb81" stroke-width="1.4" /><rect x="755.99" y="84.89" width="6" height="11.53" rx="1.5" fill="#0ecb81" /><line x1="769.72" y1="65.07" x2="769.72" y2="103.97" stroke="#f6465d" stroke-width="1.4" /><rect x="766.72" y="84.73" width="6" height="14.19" rx="1.5" fill="#f6465d" /><line x1="780.46" y1="58.00" x2="780.46" y2="134.37" stroke="#f6465d" stroke-width="1.4" /><rect x="777.46" y="99.03" width="6" height="9.09" rx="1.5" fill="#f6465d" /><line x1="791.19" y1="85.10" x2="791.19" y2="119.38" stroke="#0ecb81" stroke-width="1.4" /><rect x="788.19" y="86.43" width="6" height="21.58" rx="1.5" fill="#0ecb81" /><line x1="801.92" y1="82.76" x2="801.92" y2="118.21" stroke="#f6465d" stroke-width="1.4" /><rect x="798.92" y="86.59" width="6" height="10.79" rx="1.5" fill="#f6465d" /><line x1="812.66" y1="92.22" x2="812.66" y2="213.02" stroke="#f6465d" stroke-width="1.4" /><rect x="809.66" y="96.90" width="6" height="51.12" rx="1.5" fill="#f6465d" /><line x1="823.39" y1="123.37" x2="823.39" y2="153.92" stroke="#0ecb81" stroke-width="1.4" /><rect x="820.39" y="136.23" width="6" height="11.80" rx="1.5" fill="#0ecb81" /><line x1="834.13" y1="113.11" x2="834.13" y2="139.15" stroke="#0ecb81" stroke-width="1.4" /><rect x="831.13" y="132.72" width="6" height="3.40" rx="1.5" fill="#0ecb81" /><line x1="844.86" y1="77.13" x2="844.86" y2="140.80" stroke="#0ecb81" stroke-width="1.4" /><rect x="841.86" y="82.13" width="6" height="50.49" rx="1.5" fill="#0ecb81" /><line x1="855.59" y1="78.41" x2="855.59" y2="108.17" stroke="#f6465d" stroke-width="1.4" /><rect x="852.59" y="82.50" width="6" height="15.73" rx="1.5" fill="#f6465d" /><line x1="866.33" y1="90.74" x2="866.33" y2="129.21" stroke="#f6465d" stroke-width="1.4" /><rect x="863.33" y="98.28" width="6" height="20.30" rx="1.5" fill="#f6465d" /><line x1="877.06" y1="98.60" x2="877.06" y2="120.97" stroke="#0ecb81" stroke-width="1.4" /><rect x="874.06" y="105.14" width="6" height="13.13" rx="1.5" fill="#0ecb81" /><line x1="887.80" y1="71.82" x2="887.80" y2="106.89" stroke="#0ecb81" stroke-width="1.4" /><rect x="884.80" y="96.58" width="6" height="8.34" rx="1.5" fill="#0ecb81" /><line x1="898.53" y1="84.04" x2="898.53" y2="106.25" stroke="#f6465d" stroke-width="1.4" /><rect x="895.53" y="96.69" width="6" height="5.05" rx="1.5" fill="#f6465d" /><line x1="909.27" y1="86.91" x2="909.27" y2="118.48" stroke="#f6465d" stroke-width="1.4" /><rect x="906.27" y="101.84" width="6" height="2.00" rx="1.5" fill="#f6465d" /><line x1="920.00" y1="99.13" x2="920.00" y2="165.88" stroke="#f6465d" stroke-width="1.4" /><rect x="917.00" y="102.27" width="6" height="18.07" rx="1.5" fill="#f6465d" />
  <polyline points="361.82,353.90 415.49,379.73 619.44,175.45 651.65,262.23 780.46,58.00" fill="none" stroke="#2fc273" stroke-width="4" stroke-linecap="round" stroke-linejoin="round" />
  <circle cx="361.82" cy="353.90" r="5.5" fill="#2fc273" fill-opacity="0.15" stroke="#2fc273" stroke-width="2" /><text x="361.82" y="341.90" fill="#f3f4f6" font-size="15" font-weight="700" text-anchor="middle">X</text><circle cx="415.49" cy="379.73" r="5.5" fill="#2fc273" fill-opacity="0.15" stroke="#2fc273" stroke-width="2" /><text x="415.49" y="367.73" fill="#f3f4f6" font-size="15" font-weight="700" text-anchor="middle">A</text><circle cx="619.44" cy="175.45" r="5.5" fill="#2fc273" fill-opacity="0.15" stroke="#2fc273" stroke-width="2" /><text x="619.44" y="163.45" fill="#f3f4f6" font-size="15" font-weight="700" text-anchor="middle">B</text><circle cx="651.65" cy="262.23" r="5.5" fill="#2fc273" fill-opacity="0.15" stroke="#2fc273" stroke-width="2" /><text x="651.65" y="250.23" fill="#f3f4f6" font-size="15" font-weight="700" text-anchor="middle">C</text><circle cx="780.46" cy="58.00" r="5.5" fill="#2fc273" fill-opacity="0.15" stroke="#2fc273" stroke-width="2" /><text x="780.46" y="46.00" fill="#f3f4f6" font-size="15" font-weight="700" text-anchor="middle">D</text>
  <text x="56" y="492" fill="#8ba0b5" font-size="18">일반 완성 · TP1 0.011492 · TP2 0.010585 · SL 0.013023</text>
</svg>
