<svg xmlns="http://www.w3.org/2000/svg" width="960" height="540" viewBox="0 0 960 540">
  <rect width="960" height="540" rx="24" fill="#0b1220" />
  <rect x="28" y="28" width="904" height="484" rx="22" fill="#111827" stroke="#1f2937" />
  <text x="56" y="74" fill="#f3f4f6" font-size="34" font-weight="700">TRUUSDT · AB=CD</text>
  <text x="904" y="74" fill="#8ba0b5" font-size="20" text-anchor="end">Bearish (매도) · Score 90.9</text>
  <line x1="72" y1="58" x2="920" y2="58" stroke="#223045" stroke-width="1" stroke-dasharray="4 8" /><line x1="72" y1="156" x2="920" y2="156" stroke="#223045" stroke-width="1" stroke-dasharray="4 8" /><line x1="72" y1="255" x2="920" y2="255" stroke="#223045" stroke-width="1" stroke-dasharray="4 8" /><line x1="72" y1="353" x2="920" y2="353" stroke="#223045" stroke-width="1" stroke-dasharray="4 8" /><line x1="72" y1="452" x2="920" y2="452" stroke="#223045" stroke-width="1" stroke-dasharray="4 8" />
  <rect x="580.71" y="38.43" width="84" height="44.89" fill="#fbbf24" fill-opacity="0.12" stroke="#fbbf24" stroke-width="1.5" stroke-dasharray="6 6" />
  <line x1="72.00" y1="394.45" x2="72.00" y2="430.90" stroke="#0ecb81" stroke-width="1.4" /><rect x="69.00" y="403.28" width="6" height="11.51" rx="1.5" fill="#0ecb81" /><line x1="82.73" y1="395.99" x2="82.73" y2="419.39" stroke="#f6465d" stroke-width="1.4" /><rect x="79.73" y="402.89" width="6" height="9.59" rx="1.5" fill="#f6465d" /><line x1="93.47" y1="398.67" x2="93.47" y2="420.16" stroke="#0ecb81" stroke-width="1.4" /><rect x="90.47" y="400.98" width="6" height="11.51" rx="1.5" fill="#0ecb81" /><line x1="104.20" y1="371.44" x2="104.20" y2="402.51" stroke="#0ecb81" stroke-width="1.4" /><rect x="101.20" y="391.38" width="6" height="8.82" rx="1.5" fill="#0ecb81" /><line x1="114.94" y1="389.08" x2="114.94" y2="404.81" stroke="#f6465d" stroke-width="1.4" /><rect x="111.94" y="391.00" width="6" height="13.81" rx="1.5" fill="#f6465d" /><line x1="125.67" y1="394.07" x2="125.67" y2="409.42" stroke="#0ecb81" stroke-width="1.4" /><rect x="122.67" y="402.13" width="6" height="2.69" rx="1.5" fill="#0ecb81" /><line x1="136.41" y1="402.13" x2="136.41" y2="418.62" stroke="#f6465d" stroke-width="1.4" /><rect x="133.41" y="403.28" width="6" height="6.91" rx="1.5" fill="#f6465d" /><line x1="147.14" y1="377.57" x2="147.14" y2="411.33" stroke="#0ecb81" stroke-width="1.4" /><rect x="144.14" y="379.11" width="6" height="29.54" rx="1.5" fill="#0ecb81" /><line x1="157.87" y1="370.67" x2="157.87" y2="392.54" stroke="#0ecb81" stroke-width="1.4" /><rect x="154.87" y="380.64" width="6" height="2.00" rx="1.5" fill="#0ecb81" /><line x1="168.61" y1="359.16" x2="168.61" y2="437.81" stroke="#f6465d" stroke-width="1.4" /><rect x="165.61" y="380.64" width="6" height="29.16" rx="1.5" fill="#f6465d" /><line x1="179.34" y1="403.28" x2="179.34" y2="423.61" stroke="#f6465d" stroke-width="1.4" /><rect x="176.34" y="409.03" width="6" height="13.43" rx="1.5" fill="#f6465d" /><line x1="190.08" y1="416.70" x2="190.08" y2="452.00" stroke="#0ecb81" stroke-width="1.4" /><rect x="187.08" y="419.77" width="6" height="2.69" rx="1.5" fill="#0ecb81" /><line x1="200.81" y1="407.88" x2="200.81" y2="424.38" stroke="#0ecb81" stroke-width="1.4" /><rect x="197.81" y="414.79" width="6" height="4.22" rx="1.5" fill="#0ecb81" /><line x1="211.54" y1="406.73" x2="211.54" y2="420.54" stroke="#0ecb81" stroke-width="1.4" /><rect x="208.54" y="410.95" width="6" height="4.22" rx="1.5" fill="#0ecb81" /><line x1="222.28" y1="366.06" x2="222.28" y2="411.33" stroke="#0ecb81" stroke-width="1.4" /><rect x="219.28" y="374.12" width="6" height="36.45" rx="1.5" fill="#0ecb81" /><line x1="233.01" y1="362.23" x2="233.01" y2="382.18" stroke="#0ecb81" stroke-width="1.4" /><rect x="230.01" y="372.20" width="6" height="2.00" rx="1.5" fill="#0ecb81" /><line x1="243.75" y1="339.59" x2="243.75" y2="379.49" stroke="#0ecb81" stroke-width="1.4" /><rect x="240.75" y="360.69" width="6" height="11.13" rx="1.5" fill="#0ecb81" /><line x1="254.48" y1="348.80" x2="254.48" y2="387.55" stroke="#f6465d" stroke-width="1.4" /><rect x="251.48" y="360.69" width="6" height="21.48" rx="1.5" fill="#f6465d" /><line x1="265.22" y1="370.28" x2="265.22" y2="397.14" stroke="#0ecb81" stroke-width="1.4" /><rect x="262.22" y="372.97" width="6" height="9.21" rx="1.5" fill="#0ecb81" /><line x1="275.95" y1="366.45" x2="275.95" y2="392.54" stroke="#0ecb81" stroke-width="1.4" /><rect x="272.95" y="367.22" width="6" height="6.14" rx="1.5" fill="#0ecb81" /><line x1="286.68" y1="341.51" x2="286.68" y2="401.74" stroke="#f6465d" stroke-width="1.4" /><rect x="283.68" y="366.45" width="6" height="17.65" rx="1.5" fill="#f6465d" /><line x1="297.42" y1="376.04" x2="297.42" y2="413.25" stroke="#f6465d" stroke-width="1.4" /><rect x="294.42" y="382.56" width="6" height="7.29" rx="1.5" fill="#f6465d" /><line x1="308.15" y1="376.42" x2="308.15" y2="401.74" stroke="#0ecb81" stroke-width="1.4" /><rect x="305.15" y="388.32" width="6" height="2.00" rx="1.5" fill="#0ecb81" /><line x1="318.89" y1="369.52" x2="318.89" y2="400.98" stroke="#0ecb81" stroke-width="1.4" /><rect x="315.89" y="372.59" width="6" height="15.73" rx="1.5" fill="#0ecb81" /><line x1="329.62" y1="365.68" x2="329.62" y2="396.76" stroke="#f6465d" stroke-width="1.4" /><rect x="326.62" y="371.82" width="6" height="11.89" rx="1.5" fill="#f6465d" /><line x1="340.35" y1="372.20" x2="340.35" y2="385.63" stroke="#0ecb81" stroke-width="1.4" /><rect x="337.35" y="377.19" width="6" height="4.60" rx="1.5" fill="#0ecb81" /><line x1="351.09" y1="339.21" x2="351.09" y2="377.19" stroke="#0ecb81" stroke-width="1.4" /><rect x="348.09" y="351.10" width="6" height="26.09" rx="1.5" fill="#0ecb81" /><line x1="361.82" y1="340.36" x2="361.82" y2="367.98" stroke="#f6465d" stroke-width="1.4" /><rect x="358.82" y="351.87" width="6" height="7.67" rx="1.5" fill="#f6465d" /><line x1="372.56" y1="311.97" x2="372.56" y2="361.84" stroke="#0ecb81" stroke-width="1.4" /><rect x="369.56" y="343.05" width="6" height="16.88" rx="1.5" fill="#0ecb81" /><line x1="383.29" y1="311.20" x2="383.29" y2="354.94" stroke="#0ecb81" stroke-width="1.4" /><rect x="380.29" y="322.71" width="6" height="20.33" rx="1.5" fill="#0ecb81" /><line x1="394.03" y1="322.71" x2="394.03" y2="352.25" stroke="#f6465d" stroke-width="1.4" /><rect x="391.03" y="322.71" width="6" height="13.43" rx="1.5" fill="#f6465d" /><line x1="404.76" y1="317.34" x2="404.76" y2="352.25" stroke="#0ecb81" stroke-width="1.4" /><rect x="401.76" y="334.22" width="6" height="2.00" rx="1.5" fill="#0ecb81" /><line x1="415.49" y1="255.58" x2="415.49" y2="388.32" stroke="#0ecb81" stroke-width="1.4" /><rect x="412.49" y="270.92" width="6" height="64.45" rx="1.5" fill="#0ecb81" /><line x1="426.23" y1="245.98" x2="426.23" y2="304.30" stroke="#f6465d" stroke-width="1.4" /><rect x="423.23" y="272.07" width="6" height="9.97" rx="1.5" fill="#f6465d" /><line x1="436.96" y1="189.21" x2="436.96" y2="291.64" stroke="#0ecb81" stroke-width="1.4" /><rect x="433.96" y="211.07" width="6" height="69.06" rx="1.5" fill="#0ecb81" /><line x1="447.70" y1="188.05" x2="447.70" y2="249.05" stroke="#f6465d" stroke-width="1.4" /><rect x="444.70" y="208.39" width="6" height="28.01" rx="1.5" fill="#f6465d" /><line x1="458.43" y1="171.94" x2="458.43" y2="252.12" stroke="#f6465d" stroke-width="1.4" /><rect x="455.43" y="239.08" width="6" height="3.84" rx="1.5" fill="#f6465d" /><line x1="469.16" y1="242.53" x2="469.16" y2="316.19" stroke="#f6465d" stroke-width="1.4" /><rect x="466.16" y="242.53" width="6" height="44.50" rx="1.5" fill="#f6465d" /><line x1="479.90" y1="276.68" x2="479.90" y2="320.03" stroke="#f6465d" stroke-width="1.4" /><rect x="476.90" y="287.03" width="6" height="29.54" rx="1.5" fill="#f6465d" /><line x1="490.63" y1="294.32" x2="490.63" y2="321.95" stroke="#0ecb81" stroke-width="1.4" /><rect x="487.63" y="311.59" width="6" height="2.30" rx="1.5" fill="#0ecb81" /><line x1="501.37" y1="282.43" x2="501.37" y2="314.66" stroke="#f6465d" stroke-width="1.4" /><rect x="498.37" y="309.67" width="6" height="2.00" rx="1.5" fill="#f6465d" /><line x1="512.10" y1="281.66" x2="512.10" y2="324.63" stroke="#0ecb81" stroke-width="1.4" /><rect x="509.10" y="295.86" width="6" height="13.04" rx="1.5" fill="#0ecb81" /><line x1="522.84" y1="284.35" x2="522.84" y2="321.95" stroke="#f6465d" stroke-width="1.4" /><rect x="519.84" y="295.09" width="6" height="7.67" rx="1.5" fill="#f6465d" /><line x1="533.57" y1="302.00" x2="533.57" y2="316.19" stroke="#f6465d" stroke-width="1.4" /><rect x="530.57" y="302.76" width="6" height="9.59" rx="1.5" fill="#f6465d" /><line x1="544.30" y1="287.42" x2="544.30" y2="317.73" stroke="#0ecb81" stroke-width="1.4" /><rect x="541.30" y="291.64" width="6" height="18.80" rx="1.5" fill="#0ecb81" /><line x1="555.04" y1="281.28" x2="555.04" y2="312.35" stroke="#f6465d" stroke-width="1.4" /><rect x="552.04" y="291.64" width="6" height="14.19" rx="1.5" fill="#f6465d" /><line x1="565.77" y1="275.52" x2="565.77" y2="308.52" stroke="#0ecb81" stroke-width="1.4" /><rect x="562.77" y="287.03" width="6" height="18.80" rx="1.5" fill="#0ecb81" /><line x1="576.51" y1="260.56" x2="576.51" y2="321.18" stroke="#0ecb81" stroke-width="1.4" /><rect x="573.51" y="269.77" width="6" height="17.26" rx="1.5" fill="#0ecb81" /><line x1="587.24" y1="199.56" x2="587.24" y2="277.83" stroke="#0ecb81" stroke-width="1.4" /><rect x="584.24" y="199.56" width="6" height="69.44" rx="1.5" fill="#0ecb81" /><line x1="597.97" y1="84.85" x2="597.97" y2="206.09" stroke="#0ecb81" stroke-width="1.4" /><rect x="594.97" y="124.75" width="6" height="74.81" rx="1.5" fill="#0ecb81" /><line x1="608.71" y1="58.00" x2="608.71" y2="131.28" stroke="#0ecb81" stroke-width="1.4" /><rect x="605.71" y="119.38" width="6" height="6.14" rx="1.5" fill="#0ecb81" /><line x1="619.44" y1="107.11" x2="619.44" y2="191.89" stroke="#f6465d" stroke-width="1.4" /><rect x="616.44" y="122.07" width="6" height="37.60" rx="1.5" fill="#f6465d" /><line x1="630.18" y1="146.62" x2="630.18" y2="204.55" stroke="#f6465d" stroke-width="1.4" /><rect x="627.18" y="161.58" width="6" height="39.13" rx="1.5" fill="#f6465d" /><line x1="640.91" y1="182.30" x2="640.91" y2="252.89" stroke="#f6465d" stroke-width="1.4" /><rect x="637.91" y="198.03" width="6" height="52.18" rx="1.5" fill="#f6465d" /><line x1="651.65" y1="213.76" x2="651.65" y2="269.77" stroke="#0ecb81" stroke-width="1.4" /><rect x="648.65" y="226.80" width="6" height="21.87" rx="1.5" fill="#0ecb81" /><line x1="662.38" y1="213.37" x2="662.38" y2="229.10" stroke="#0ecb81" stroke-width="1.4" /><rect x="659.38" y="223.35" width="6" height="3.07" rx="1.5" fill="#0ecb81" /><line x1="673.11" y1="213.37" x2="673.11" y2="239.08" stroke="#0ecb81" stroke-width="1.4" /><rect x="670.11" y="214.14" width="6" height="8.44" rx="1.5" fill="#0ecb81" /><line x1="683.85" y1="202.25" x2="683.85" y2="236.01" stroke="#0ecb81" stroke-width="1.4" /><rect x="680.85" y="213.76" width="6" height="2.00" rx="1.5" fill="#0ecb81" /><line x1="694.58" y1="198.03" x2="694.58" y2="227.19" stroke="#f6465d" stroke-width="1.4" /><rect x="691.58" y="215.68" width="6" height="5.75" rx="1.5" fill="#f6465d" /><line x1="705.32" y1="212.99" x2="705.32" y2="267.08" stroke="#f6465d" stroke-width="1.4" /><rect x="702.32" y="219.90" width="6" height="21.10" rx="1.5" fill="#f6465d" /><line x1="716.05" y1="239.08" x2="716.05" y2="274.76" stroke="#f6465d" stroke-width="1.4" /><rect x="713.05" y="241.38" width="6" height="24.94" rx="1.5" fill="#f6465d" /><line x1="726.78" y1="261.33" x2="726.78" y2="317.73" stroke="#f6465d" stroke-width="1.4" /><rect x="723.78" y="265.93" width="6" height="19.18" rx="1.5" fill="#f6465d" /><line x1="737.52" y1="279.36" x2="737.52" y2="300.46" stroke="#f6465d" stroke-width="1.4" /><rect x="734.52" y="285.12" width="6" height="15.35" rx="1.5" fill="#f6465d" /><line x1="748.25" y1="258.26" x2="748.25" y2="318.49" stroke="#0ecb81" stroke-width="1.4" /><rect x="745.25" y="274.76" width="6" height="24.55" rx="1.5" fill="#0ecb81" /><line x1="758.99" y1="247.90" x2="758.99" y2="287.80" stroke="#0ecb81" stroke-width="1.4" /><rect x="755.99" y="264.78" width="6" height="9.97" rx="1.5" fill="#0ecb81" /><line x1="769.72" y1="236.01" x2="769.72" y2="266.70" stroke="#0ecb81" stroke-width="1.4" /><rect x="766.72" y="246.37" width="6" height="18.80" rx="1.5" fill="#0ecb81" /><line x1="780.46" y1="236.01" x2="780.46" y2="270.92" stroke="#f6465d" stroke-width="1.4" /><rect x="777.46" y="245.98" width="6" height="4.60" rx="1.5" fill="#f6465d" /><line x1="791.19" y1="246.75" x2="791.19" y2="276.29" stroke="#f6465d" stroke-width="1.4" /><rect x="788.19" y="252.51" width="6" height="8.82" rx="1.5" fill="#f6465d" /><line x1="801.92" y1="234.09" x2="801.92" y2="268.24" stroke="#0ecb81" stroke-width="1.4" /><rect x="798.92" y="238.70" width="6" height="20.33" rx="1.5" fill="#0ecb81" /><line x1="812.66" y1="197.65" x2="812.66" y2="241.00" stroke="#0ecb81" stroke-width="1.4" /><rect x="809.66" y="201.10" width="6" height="37.98" rx="1.5" fill="#0ecb81" /><line x1="823.39" y1="201.48" x2="823.39" y2="285.12" stroke="#f6465d" stroke-width="1.4" /><rect x="820.39" y="203.40" width="6" height="64.84" rx="1.5" fill="#f6465d" /><line x1="834.13" y1="253.27" x2="834.13" y2="274.76" stroke="#0ecb81" stroke-width="1.4" /><rect x="831.13" y="259.80" width="6" height="6.91" rx="1.5" fill="#0ecb81" /><line x1="844.86" y1="244.45" x2="844.86" y2="267.08" stroke="#f6465d" stroke-width="1.4" /><rect x="841.86" y="259.80" width="6" height="4.60" rx="1.5" fill="#f6465d" /><line x1="855.59" y1="252.12" x2="855.59" y2="280.90" stroke="#f6465d" stroke-width="1.4" /><rect x="852.59" y="264.78" width="6" height="11.51" rx="1.5" fill="#f6465d" /><line x1="866.33" y1="267.08" x2="866.33" y2="298.54" stroke="#f6465d" stroke-width="1.4" /><rect x="863.33" y="274.37" width="6" height="15.73" rx="1.5" fill="#f6465d" /><line x1="877.06" y1="264.02" x2="877.06" y2="292.02" stroke="#0ecb81" stroke-width="1.4" /><rect x="874.06" y="279.36" width="6" height="10.74" rx="1.5" fill="#0ecb81" /><line x1="887.80" y1="275.14" x2="887.80" y2="302.76" stroke="#f6465d" stroke-width="1.4" /><rect x="884.80" y="279.36" width="6" height="14.58" rx="1.5" fill="#f6465d" /><line x1="898.53" y1="287.42" x2="898.53" y2="301.61" stroke="#f6465d" stroke-width="1.4" /><rect x="895.53" y="292.02" width="6" height="4.22" rx="1.5" fill="#f6465d" /><line x1="909.27" y1="282.05" x2="909.27" y2="304.30" stroke="#0ecb81" stroke-width="1.4" /><rect x="906.27" y="289.72" width="6" height="6.52" rx="1.5" fill="#0ecb81" /><line x1="920.00" y1="282.05" x2="920.00" y2="297.78" stroke="#0ecb81" stroke-width="1.4" /><rect x="917.00" y="287.80" width="6" height="2.00" rx="1.5" fill="#0ecb81" />
  <polyline points="243.75,339.59 297.42,413.25 458.43,171.94 512.10,324.63 608.71,58.00" fill="none" stroke="#2fc273" stroke-width="4" stroke-linecap="round" stroke-linejoin="round" />
  <circle cx="243.75" cy="339.59" r="5.5" fill="#2fc273" fill-opacity="0.15" stroke="#2fc273" stroke-width="2" /><text x="243.75" y="327.59" fill="#f3f4f6" font-size="15" font-weight="700" text-anchor="middle">X</text><circle cx="297.42" cy="413.25" r="5.5" fill="#2fc273" fill-opacity="0.15" stroke="#2fc273" stroke-width="2" /><text x="297.42" y="401.25" fill="#f3f4f6" font-size="15" font-weight="700" text-anchor="middle">A</text><circle cx="458.43" cy="171.94" r="5.5" fill="#2fc273" fill-opacity="0.15" stroke="#2fc273" stroke-width="2" /><text x="458.43" y="159.94" fill="#f3f4f6" font-size="15" font-weight="700" text-anchor="middle">B</text><circle cx="512.10" cy="324.63" r="5.5" fill="#2fc273" fill-opacity="0.15" stroke="#2fc273" stroke-width="2" /><text x="512.10" y="312.63" fill="#f3f4f6" font-size="15" font-weight="700" text-anchor="middle">C</text><circle cx="608.71" cy="58.00" r="5.5" fill="#2fc273" fill-opacity="0.15" stroke="#2fc273" stroke-width="2" /><text x="608.71" y="46.00" fill="#f3f4f6" font-size="15" font-weight="700" text-anchor="middle">D</text>
  <text x="56" y="492" fill="#8ba0b5" font-size="18">일반 완성 · TP1 0.005949 · TP2 0.005784 · SL 0.006239</text>
</svg>
