<svg xmlns="http://www.w3.org/2000/svg" width="960" height="540" viewBox="0 0 960 540">
  <rect width="960" height="540" rx="24" fill="#0b1220" />
  <rect x="28" y="28" width="904" height="484" rx="22" fill="#111827" stroke="#1f2937" />
  <text x="56" y="74" fill="#f3f4f6" font-size="34" font-weight="700">UBUSDT · AB=CD</text>
  <text x="904" y="74" fill="#8ba0b5" font-size="20" text-anchor="end">Bearish (매도) · Score 89.2</text>
  <line x1="72" y1="58" x2="920" y2="58" stroke="#223045" stroke-width="1" stroke-dasharray="4 8" /><line x1="72" y1="156" x2="920" y2="156" stroke="#223045" stroke-width="1" stroke-dasharray="4 8" /><line x1="72" y1="255" x2="920" y2="255" stroke="#223045" stroke-width="1" stroke-dasharray="4 8" /><line x1="72" y1="353" x2="920" y2="353" stroke="#223045" stroke-width="1" stroke-dasharray="4 8" /><line x1="72" y1="452" x2="920" y2="452" stroke="#223045" stroke-width="1" stroke-dasharray="4 8" />
  <rect x="516.30" y="16.38" width="84" height="21.82" fill="#fbbf24" fill-opacity="0.12" stroke="#fbbf24" stroke-width="1.5" stroke-dasharray="6 6" />
  <line x1="72.00" y1="87.10" x2="72.00" y2="164.28" stroke="#0ecb81" stroke-width="1.4" /><rect x="69.00" y="108.51" width="6" height="11.31" rx="1.5" fill="#0ecb81" /><line x1="82.73" y1="86.69" x2="82.73" y2="138.01" stroke="#f6465d" stroke-width="1.4" /><rect x="79.73" y="107.70" width="6" height="9.70" rx="1.5" fill="#f6465d" /><line x1="93.47" y1="92.75" x2="93.47" y2="130.74" stroke="#0ecb81" stroke-width="1.4" /><rect x="90.47" y="114.17" width="6" height="2.02" rx="1.5" fill="#0ecb81" /><line x1="104.20" y1="107.70" x2="104.20" y2="286.32" stroke="#f6465d" stroke-width="1.4" /><rect x="101.20" y="114.17" width="6" height="131.74" rx="1.5" fill="#f6465d" /><line x1="114.94" y1="236.61" x2="114.94" y2="273.79" stroke="#f6465d" stroke-width="1.4" /><rect x="111.94" y="249.14" width="6" height="17.38" rx="1.5" fill="#f6465d" /><line x1="125.67" y1="255.61" x2="125.67" y2="308.54" stroke="#0ecb81" stroke-width="1.4" /><rect x="122.67" y="265.30" width="6" height="2.02" rx="1.5" fill="#0ecb81" /><line x1="136.41" y1="234.19" x2="136.41" y2="282.28" stroke="#0ecb81" stroke-width="1.4" /><rect x="133.41" y="258.43" width="6" height="6.47" rx="1.5" fill="#0ecb81" /><line x1="147.14" y1="249.95" x2="147.14" y2="300.46" stroke="#f6465d" stroke-width="1.4" /><rect x="144.14" y="258.43" width="6" height="40.01" rx="1.5" fill="#f6465d" /><line x1="157.87" y1="281.87" x2="157.87" y2="330.37" stroke="#f6465d" stroke-width="1.4" /><rect x="154.87" y="298.44" width="6" height="10.51" rx="1.5" fill="#f6465d" /><line x1="168.61" y1="289.95" x2="168.61" y2="353.80" stroke="#f6465d" stroke-width="1.4" /><rect x="165.61" y="309.76" width="6" height="6.47" rx="1.5" fill="#f6465d" /><line x1="179.34" y1="234.19" x2="179.34" y2="357.84" stroke="#0ecb81" stroke-width="1.4" /><rect x="176.34" y="262.88" width="6" height="53.34" rx="1.5" fill="#0ecb81" /><line x1="190.08" y1="249.14" x2="190.08" y2="358.25" stroke="#f6465d" stroke-width="1.4" /><rect x="187.08" y="262.88" width="6" height="81.63" rx="1.5" fill="#f6465d" /><line x1="200.81" y1="342.08" x2="200.81" y2="452.00" stroke="#f6465d" stroke-width="1.4" /><rect x="197.81" y="345.72" width="6" height="62.64" rx="1.5" fill="#f6465d" /><line x1="211.54" y1="361.48" x2="211.54" y2="432.20" stroke="#0ecb81" stroke-width="1.4" /><rect x="208.54" y="375.62" width="6" height="33.14" rx="1.5" fill="#0ecb81" /><line x1="222.28" y1="375.22" x2="222.28" y2="423.71" stroke="#f6465d" stroke-width="1.4" /><rect x="219.28" y="375.22" width="6" height="31.52" rx="1.5" fill="#f6465d" /><line x1="233.01" y1="363.10" x2="233.01" y2="410.78" stroke="#0ecb81" stroke-width="1.4" /><rect x="230.01" y="363.91" width="6" height="42.83" rx="1.5" fill="#0ecb81" /><line x1="243.75" y1="339.26" x2="243.75" y2="384.51" stroke="#f6465d" stroke-width="1.4" /><rect x="240.75" y="364.31" width="6" height="10.91" rx="1.5" fill="#f6465d" /><line x1="254.48" y1="366.73" x2="254.48" y2="396.23" stroke="#f6465d" stroke-width="1.4" /><rect x="251.48" y="374.82" width="6" height="13.74" rx="1.5" fill="#f6465d" /><line x1="265.22" y1="375.22" x2="265.22" y2="396.64" stroke="#f6465d" stroke-width="1.4" /><rect x="262.22" y="389.36" width="6" height="2.00" rx="1.5" fill="#f6465d" /><line x1="275.95" y1="344.10" x2="275.95" y2="395.02" stroke="#0ecb81" stroke-width="1.4" /><rect x="272.95" y="363.50" width="6" height="27.07" rx="1.5" fill="#0ecb81" /><line x1="286.68" y1="291.57" x2="286.68" y2="369.97" stroke="#0ecb81" stroke-width="1.4" /><rect x="283.68" y="306.12" width="6" height="57.38" rx="1.5" fill="#0ecb81" /><line x1="297.42" y1="271.37" x2="297.42" y2="325.92" stroke="#f6465d" stroke-width="1.4" /><rect x="294.42" y="305.31" width="6" height="12.12" rx="1.5" fill="#f6465d" /><line x1="308.15" y1="280.66" x2="308.15" y2="326.73" stroke="#0ecb81" stroke-width="1.4" /><rect x="305.15" y="310.97" width="6" height="6.47" rx="1.5" fill="#0ecb81" /><line x1="318.89" y1="239.85" x2="318.89" y2="315.82" stroke="#0ecb81" stroke-width="1.4" /><rect x="315.89" y="265.30" width="6" height="46.07" rx="1.5" fill="#0ecb81" /><line x1="329.62" y1="216.81" x2="329.62" y2="264.90" stroke="#0ecb81" stroke-width="1.4" /><rect x="326.62" y="250.35" width="6" height="14.55" rx="1.5" fill="#0ecb81" /><line x1="340.35" y1="232.98" x2="340.35" y2="313.39" stroke="#f6465d" stroke-width="1.4" /><rect x="337.35" y="250.35" width="6" height="24.25" rx="1.5" fill="#f6465d" /><line x1="351.09" y1="263.69" x2="351.09" y2="320.26" stroke="#f6465d" stroke-width="1.4" /><rect x="348.09" y="274.60" width="6" height="33.94" rx="1.5" fill="#f6465d" /><line x1="361.82" y1="300.46" x2="361.82" y2="347.34" stroke="#f6465d" stroke-width="1.4" /><rect x="358.82" y="308.54" width="6" height="6.06" rx="1.5" fill="#f6465d" /><line x1="372.56" y1="246.72" x2="372.56" y2="316.63" stroke="#0ecb81" stroke-width="1.4" /><rect x="369.56" y="254.80" width="6" height="59.00" rx="1.5" fill="#0ecb81" /><line x1="383.29" y1="217.62" x2="383.29" y2="263.69" stroke="#0ecb81" stroke-width="1.4" /><rect x="380.29" y="242.67" width="6" height="13.74" rx="1.5" fill="#0ecb81" /><line x1="394.03" y1="237.42" x2="394.03" y2="279.45" stroke="#f6465d" stroke-width="1.4" /><rect x="391.03" y="243.08" width="6" height="16.16" rx="1.5" fill="#f6465d" /><line x1="404.76" y1="173.98" x2="404.76" y2="259.65" stroke="#0ecb81" stroke-width="1.4" /><rect x="401.76" y="184.48" width="6" height="74.35" rx="1.5" fill="#0ecb81" /><line x1="415.49" y1="166.30" x2="415.49" y2="264.50" stroke="#f6465d" stroke-width="1.4" /><rect x="412.49" y="184.48" width="6" height="28.69" rx="1.5" fill="#f6465d" /><line x1="426.23" y1="129.12" x2="426.23" y2="217.22" stroke="#0ecb81" stroke-width="1.4" /><rect x="423.23" y="157.41" width="6" height="56.17" rx="1.5" fill="#0ecb81" /><line x1="436.96" y1="150.54" x2="436.96" y2="186.10" stroke="#f6465d" stroke-width="1.4" /><rect x="433.96" y="157.81" width="6" height="18.59" rx="1.5" fill="#f6465d" /><line x1="447.70" y1="170.34" x2="447.70" y2="210.35" stroke="#f6465d" stroke-width="1.4" /><rect x="444.70" y="176.00" width="6" height="27.88" rx="1.5" fill="#f6465d" /><line x1="458.43" y1="197.42" x2="458.43" y2="242.27" stroke="#f6465d" stroke-width="1.4" /><rect x="455.43" y="203.48" width="6" height="30.31" rx="1.5" fill="#f6465d" /><line x1="469.16" y1="216.41" x2="469.16" y2="238.23" stroke="#0ecb81" stroke-width="1.4" /><rect x="466.16" y="233.38" width="6" height="2.00" rx="1.5" fill="#0ecb81" /><line x1="479.90" y1="203.88" x2="479.90" y2="238.63" stroke="#0ecb81" stroke-width="1.4" /><rect x="476.90" y="215.20" width="6" height="18.59" rx="1.5" fill="#0ecb81" /><line x1="490.63" y1="201.86" x2="490.63" y2="224.89" stroke="#f6465d" stroke-width="1.4" /><rect x="487.63" y="216.41" width="6" height="4.04" rx="1.5" fill="#f6465d" /><line x1="501.37" y1="159.83" x2="501.37" y2="221.26" stroke="#0ecb81" stroke-width="1.4" /><rect x="498.37" y="171.96" width="6" height="47.68" rx="1.5" fill="#0ecb81" /><line x1="512.10" y1="133.57" x2="512.10" y2="171.55" stroke="#0ecb81" stroke-width="1.4" /><rect x="509.10" y="158.62" width="6" height="12.93" rx="1.5" fill="#0ecb81" /><line x1="522.84" y1="128.72" x2="522.84" y2="165.09" stroke="#0ecb81" stroke-width="1.4" /><rect x="519.84" y="135.18" width="6" height="23.03" rx="1.5" fill="#0ecb81" /><line x1="533.57" y1="84.27" x2="533.57" y2="137.20" stroke="#0ecb81" stroke-width="1.4" /><rect x="530.57" y="101.24" width="6" height="33.94" rx="1.5" fill="#0ecb81" /><line x1="544.30" y1="58.00" x2="544.30" y2="125.49" stroke="#0ecb81" stroke-width="1.4" /><rect x="541.30" y="91.54" width="6" height="10.10" rx="1.5" fill="#0ecb81" /><line x1="555.04" y1="73.76" x2="555.04" y2="119.42" stroke="#0ecb81" stroke-width="1.4" /><rect x="552.04" y="79.01" width="6" height="12.12" rx="1.5" fill="#0ecb81" /><line x1="565.77" y1="65.27" x2="565.77" y2="117.00" stroke="#f6465d" stroke-width="1.4" /><rect x="562.77" y="79.01" width="6" height="35.97" rx="1.5" fill="#f6465d" /><line x1="576.51" y1="105.68" x2="576.51" y2="142.05" stroke="#f6465d" stroke-width="1.4" /><rect x="573.51" y="114.17" width="6" height="17.38" rx="1.5" fill="#f6465d" /><line x1="587.24" y1="93.16" x2="587.24" y2="141.25" stroke="#0ecb81" stroke-width="1.4" /><rect x="584.24" y="98.01" width="6" height="33.94" rx="1.5" fill="#0ecb81" /><line x1="597.97" y1="94.77" x2="597.97" y2="153.77" stroke="#f6465d" stroke-width="1.4" /><rect x="594.97" y="98.01" width="6" height="38.79" rx="1.5" fill="#f6465d" /><line x1="608.71" y1="83.05" x2="608.71" y2="141.25" stroke="#0ecb81" stroke-width="1.4" /><rect x="605.71" y="132.76" width="6" height="3.64" rx="1.5" fill="#0ecb81" /><line x1="619.44" y1="91.94" x2="619.44" y2="157.01" stroke="#0ecb81" stroke-width="1.4" /><rect x="616.44" y="118.21" width="6" height="14.55" rx="1.5" fill="#0ecb81" /><line x1="630.18" y1="115.38" x2="630.18" y2="145.29" stroke="#f6465d" stroke-width="1.4" /><rect x="627.18" y="118.21" width="6" height="19.80" rx="1.5" fill="#f6465d" /><line x1="640.91" y1="127.51" x2="640.91" y2="214.79" stroke="#f6465d" stroke-width="1.4" /><rect x="637.91" y="137.61" width="6" height="27.48" rx="1.5" fill="#f6465d" /><line x1="651.65" y1="141.65" x2="651.65" y2="167.11" stroke="#0ecb81" stroke-width="1.4" /><rect x="648.65" y="156.60" width="6" height="8.49" rx="1.5" fill="#0ecb81" /><line x1="662.38" y1="121.85" x2="662.38" y2="159.43" stroke="#0ecb81" stroke-width="1.4" /><rect x="659.38" y="127.91" width="6" height="29.10" rx="1.5" fill="#0ecb81" /><line x1="673.11" y1="115.79" x2="673.11" y2="167.51" stroke="#f6465d" stroke-width="1.4" /><rect x="670.11" y="128.31" width="6" height="12.93" rx="1.5" fill="#f6465d" /><line x1="683.85" y1="133.16" x2="683.85" y2="165.90" stroke="#f6465d" stroke-width="1.4" /><rect x="680.85" y="141.25" width="6" height="16.97" rx="1.5" fill="#f6465d" /><line x1="694.58" y1="140.44" x2="694.58" y2="170.34" stroke="#f6465d" stroke-width="1.4" /><rect x="691.58" y="158.22" width="6" height="3.23" rx="1.5" fill="#f6465d" /><line x1="705.32" y1="156.60" x2="705.32" y2="182.46" stroke="#f6465d" stroke-width="1.4" /><rect x="702.32" y="161.45" width="6" height="15.36" rx="1.5" fill="#f6465d" /><line x1="716.05" y1="146.50" x2="716.05" y2="179.63" stroke="#0ecb81" stroke-width="1.4" /><rect x="713.05" y="165.49" width="6" height="11.31" rx="1.5" fill="#0ecb81" /><line x1="726.78" y1="155.39" x2="726.78" y2="186.50" stroke="#f6465d" stroke-width="1.4" /><rect x="723.78" y="165.09" width="6" height="19.40" rx="1.5" fill="#f6465d" /><line x1="737.52" y1="161.45" x2="737.52" y2="197.82" stroke="#f6465d" stroke-width="1.4" /><rect x="734.52" y="184.89" width="6" height="9.29" rx="1.5" fill="#f6465d" /><line x1="748.25" y1="171.96" x2="748.25" y2="202.67" stroke="#0ecb81" stroke-width="1.4" /><rect x="745.25" y="188.12" width="6" height="6.47" rx="1.5" fill="#0ecb81" /><line x1="758.99" y1="178.02" x2="758.99" y2="201.05" stroke="#f6465d" stroke-width="1.4" /><rect x="755.99" y="188.12" width="6" height="4.45" rx="1.5" fill="#f6465d" /><line x1="769.72" y1="152.56" x2="769.72" y2="192.57" stroke="#0ecb81" stroke-width="1.4" /><rect x="766.72" y="154.18" width="6" height="38.39" rx="1.5" fill="#0ecb81" /><line x1="780.46" y1="126.29" x2="780.46" y2="165.90" stroke="#0ecb81" stroke-width="1.4" /><rect x="777.46" y="133.97" width="6" height="19.80" rx="1.5" fill="#0ecb81" /><line x1="791.19" y1="100.43" x2="791.19" y2="140.44" stroke="#0ecb81" stroke-width="1.4" /><rect x="788.19" y="123.06" width="6" height="12.53" rx="1.5" fill="#0ecb81" /><line x1="801.92" y1="89.52" x2="801.92" y2="128.31" stroke="#0ecb81" stroke-width="1.4" /><rect x="798.92" y="100.83" width="6" height="20.21" rx="1.5" fill="#0ecb81" /><line x1="812.66" y1="70.93" x2="812.66" y2="112.96" stroke="#0ecb81" stroke-width="1.4" /><rect x="809.66" y="83.86" width="6" height="16.97" rx="1.5" fill="#0ecb81" /><line x1="823.39" y1="70.53" x2="823.39" y2="102.05" stroke="#0ecb81" stroke-width="1.4" /><rect x="820.39" y="80.63" width="6" height="4.04" rx="1.5" fill="#0ecb81" /><line x1="834.13" y1="67.29" x2="834.13" y2="91.14" stroke="#0ecb81" stroke-width="1.4" /><rect x="831.13" y="78.21" width="6" height="3.64" rx="1.5" fill="#0ecb81" /><line x1="844.86" y1="63.25" x2="844.86" y2="98.01" stroke="#0ecb81" stroke-width="1.4" /><rect x="841.86" y="65.68" width="6" height="12.53" rx="1.5" fill="#0ecb81" /><line x1="855.59" y1="64.87" x2="855.59" y2="120.64" stroke="#f6465d" stroke-width="1.4" /><rect x="852.59" y="65.68" width="6" height="40.01" rx="1.5" fill="#f6465d" /><line x1="866.33" y1="103.26" x2="866.33" y2="167.92" stroke="#f6465d" stroke-width="1.4" /><rect x="863.33" y="106.09" width="6" height="49.30" rx="1.5" fill="#f6465d" /><line x1="877.06" y1="125.49" x2="877.06" y2="162.26" stroke="#0ecb81" stroke-width="1.4" /><rect x="874.06" y="139.22" width="6" height="15.36" rx="1.5" fill="#0ecb81" /><line x1="887.80" y1="128.31" x2="887.80" y2="154.98" stroke="#f6465d" stroke-width="1.4" /><rect x="884.80" y="138.82" width="6" height="2.00" rx="1.5" fill="#f6465d" /><line x1="898.53" y1="137.61" x2="898.53" y2="185.70" stroke="#f6465d" stroke-width="1.4" /><rect x="895.53" y="140.84" width="6" height="25.86" rx="1.5" fill="#f6465d" /><line x1="909.27" y1="136.40" x2="909.27" y2="180.44" stroke="#0ecb81" stroke-width="1.4" /><rect x="906.27" y="157.41" width="6" height="8.89" rx="1.5" fill="#0ecb81" /><line x1="920.00" y1="156.20" x2="920.00" y2="174.38" stroke="#f6465d" stroke-width="1.4" /><rect x="917.00" y="157.81" width="6" height="4.45" rx="1.5" fill="#f6465d" />
  <polyline points="329.62,216.81 361.82,347.34 426.23,129.12 458.43,242.27 544.30,58.00" fill="none" stroke="#2fc273" stroke-width="4" stroke-linecap="round" stroke-linejoin="round" />
  <circle cx="329.62" cy="216.81" r="5.5" fill="#2fc273" fill-opacity="0.15" stroke="#2fc273" stroke-width="2" /><text x="329.62" y="204.81" fill="#f3f4f6" font-size="15" font-weight="700" text-anchor="middle">X</text><circle cx="361.82" cy="347.34" r="5.5" fill="#2fc273" fill-opacity="0.15" stroke="#2fc273" stroke-width="2" /><text x="361.82" y="335.34" fill="#f3f4f6" font-size="15" font-weight="700" text-anchor="middle">A</text><circle cx="426.23" cy="129.12" r="5.5" fill="#2fc273" fill-opacity="0.15" stroke="#2fc273" stroke-width="2" /><text x="426.23" y="117.12" fill="#f3f4f6" font-size="15" font-weight="700" text-anchor="middle">B</text><circle cx="458.43" cy="242.27" r="5.5" fill="#2fc273" fill-opacity="0.15" stroke="#2fc273" stroke-width="2" /><text x="458.43" y="230.27" fill="#f3f4f6" font-size="15" font-weight="700" text-anchor="middle">C</text><circle cx="544.30" cy="58.00" r="5.5" fill="#2fc273" fill-opacity="0.15" stroke="#2fc273" stroke-width="2" /><text x="544.30" y="46.00" fill="#f3f4f6" font-size="15" font-weight="700" text-anchor="middle">D</text>
  <text x="56" y="492" fill="#8ba0b5" font-size="18">Complete · TP1 0.10576 · TP2 0.10468 · SL 0.10792</text>
</svg>
