<svg xmlns="http://www.w3.org/2000/svg" width="960" height="540" viewBox="0 0 960 540">
  <rect width="960" height="540" rx="24" fill="#0b1220" />
  <rect x="28" y="28" width="904" height="484" rx="22" fill="#111827" stroke="#1f2937" />
  <text x="56" y="74" fill="#f3f4f6" font-size="34" font-weight="700">VIRTUALUSDT · AB=CD</text>
  <text x="904" y="74" fill="#8ba0b5" font-size="20" text-anchor="end">Bearish (매도) · Score 88.6</text>
  <line x1="72" y1="58" x2="920" y2="58" stroke="#223045" stroke-width="1" stroke-dasharray="4 8" /><line x1="72" y1="156" x2="920" y2="156" stroke="#223045" stroke-width="1" stroke-dasharray="4 8" /><line x1="72" y1="255" x2="920" y2="255" stroke="#223045" stroke-width="1" stroke-dasharray="4 8" /><line x1="72" y1="353" x2="920" y2="353" stroke="#223045" stroke-width="1" stroke-dasharray="4 8" /><line x1="72" y1="452" x2="920" y2="452" stroke="#223045" stroke-width="1" stroke-dasharray="4 8" />
  <rect x="677.32" y="102.41" width="84" height="32.95" fill="#fbbf24" fill-opacity="0.12" stroke="#fbbf24" stroke-width="1.5" stroke-dasharray="6 6" />
  <line x1="72.00" y1="431.53" x2="72.00" y2="440.74" stroke="#f6465d" stroke-width="1.4" /><rect x="69.00" y="433.58" width="6" height="6.14" rx="1.5" fill="#f6465d" /><line x1="82.73" y1="435.63" x2="82.73" y2="441.77" stroke="#0ecb81" stroke-width="1.4" /><rect x="79.73" y="438.70" width="6" height="2.00" rx="1.5" fill="#0ecb81" /><line x1="93.47" y1="439.72" x2="93.47" y2="449.95" stroke="#f6465d" stroke-width="1.4" /><rect x="90.47" y="439.72" width="6" height="7.16" rx="1.5" fill="#f6465d" /><line x1="104.20" y1="440.74" x2="104.20" y2="452.00" stroke="#0ecb81" stroke-width="1.4" /><rect x="101.20" y="443.81" width="6" height="3.07" rx="1.5" fill="#0ecb81" /><line x1="114.94" y1="442.79" x2="114.94" y2="446.88" stroke="#f6465d" stroke-width="1.4" /><rect x="111.94" y="443.81" width="6" height="3.07" rx="1.5" fill="#f6465d" /><line x1="125.67" y1="440.74" x2="125.67" y2="450.98" stroke="#0ecb81" stroke-width="1.4" /><rect x="122.67" y="445.86" width="6" height="2.00" rx="1.5" fill="#0ecb81" /><line x1="136.41" y1="426.42" x2="136.41" y2="446.88" stroke="#0ecb81" stroke-width="1.4" /><rect x="133.41" y="426.42" width="6" height="19.44" rx="1.5" fill="#0ecb81" /><line x1="147.14" y1="404.92" x2="147.14" y2="425.39" stroke="#0ecb81" stroke-width="1.4" /><rect x="144.14" y="406.97" width="6" height="18.42" rx="1.5" fill="#0ecb81" /><line x1="157.87" y1="403.90" x2="157.87" y2="430.51" stroke="#f6465d" stroke-width="1.4" /><rect x="154.87" y="405.95" width="6" height="22.51" rx="1.5" fill="#f6465d" /><line x1="168.61" y1="399.81" x2="168.61" y2="440.74" stroke="#0ecb81" stroke-width="1.4" /><rect x="165.61" y="407.99" width="6" height="20.47" rx="1.5" fill="#0ecb81" /><line x1="179.34" y1="399.81" x2="179.34" y2="423.35" stroke="#0ecb81" stroke-width="1.4" /><rect x="176.34" y="404.92" width="6" height="2.00" rx="1.5" fill="#0ecb81" /><line x1="190.08" y1="404.92" x2="190.08" y2="426.42" stroke="#f6465d" stroke-width="1.4" /><rect x="187.08" y="404.92" width="6" height="10.23" rx="1.5" fill="#f6465d" /><line x1="200.81" y1="410.04" x2="200.81" y2="428.46" stroke="#f6465d" stroke-width="1.4" /><rect x="197.81" y="416.18" width="6" height="8.19" rx="1.5" fill="#f6465d" /><line x1="211.54" y1="422.32" x2="211.54" y2="439.72" stroke="#f6465d" stroke-width="1.4" /><rect x="208.54" y="424.37" width="6" height="3.07" rx="1.5" fill="#f6465d" /><line x1="222.28" y1="420.28" x2="222.28" y2="437.67" stroke="#0ecb81" stroke-width="1.4" /><rect x="219.28" y="420.28" width="6" height="8.19" rx="1.5" fill="#0ecb81" /><line x1="233.01" y1="384.46" x2="233.01" y2="422.32" stroke="#0ecb81" stroke-width="1.4" /><rect x="230.01" y="404.92" width="6" height="16.37" rx="1.5" fill="#0ecb81" /><line x1="243.75" y1="386.50" x2="243.75" y2="412.09" stroke="#0ecb81" stroke-width="1.4" /><rect x="240.75" y="386.50" width="6" height="19.44" rx="1.5" fill="#0ecb81" /><line x1="254.48" y1="342.50" x2="254.48" y2="393.67" stroke="#0ecb81" stroke-width="1.4" /><rect x="251.48" y="355.80" width="6" height="30.70" rx="1.5" fill="#0ecb81" /><line x1="265.22" y1="318.96" x2="265.22" y2="356.83" stroke="#0ecb81" stroke-width="1.4" /><rect x="262.22" y="334.31" width="6" height="21.49" rx="1.5" fill="#0ecb81" /><line x1="275.95" y1="321.01" x2="275.95" y2="340.45" stroke="#f6465d" stroke-width="1.4" /><rect x="272.95" y="333.29" width="6" height="7.16" rx="1.5" fill="#f6465d" /><line x1="286.68" y1="303.61" x2="286.68" y2="340.45" stroke="#0ecb81" stroke-width="1.4" /><rect x="283.68" y="309.75" width="6" height="30.70" rx="1.5" fill="#0ecb81" /><line x1="297.42" y1="288.26" x2="297.42" y2="316.91" stroke="#0ecb81" stroke-width="1.4" /><rect x="294.42" y="306.68" width="6" height="2.05" rx="1.5" fill="#0ecb81" /><line x1="308.15" y1="274.96" x2="308.15" y2="309.75" stroke="#0ecb81" stroke-width="1.4" /><rect x="305.15" y="292.35" width="6" height="13.30" rx="1.5" fill="#0ecb81" /><line x1="318.89" y1="270.86" x2="318.89" y2="306.68" stroke="#0ecb81" stroke-width="1.4" /><rect x="315.89" y="272.91" width="6" height="20.47" rx="1.5" fill="#0ecb81" /><line x1="329.62" y1="227.88" x2="329.62" y2="280.07" stroke="#0ecb81" stroke-width="1.4" /><rect x="326.62" y="235.04" width="6" height="35.82" rx="1.5" fill="#0ecb81" /><line x1="340.35" y1="227.88" x2="340.35" y2="265.75" stroke="#f6465d" stroke-width="1.4" /><rect x="337.35" y="235.04" width="6" height="18.42" rx="1.5" fill="#f6465d" /><line x1="351.09" y1="234.02" x2="351.09" y2="258.58" stroke="#0ecb81" stroke-width="1.4" /><rect x="348.09" y="236.07" width="6" height="17.40" rx="1.5" fill="#0ecb81" /><line x1="361.82" y1="191.04" x2="361.82" y2="237.09" stroke="#0ecb81" stroke-width="1.4" /><rect x="358.82" y="194.11" width="6" height="41.96" rx="1.5" fill="#0ecb81" /><line x1="372.56" y1="180.81" x2="372.56" y2="205.37" stroke="#f6465d" stroke-width="1.4" /><rect x="369.56" y="193.09" width="6" height="9.21" rx="1.5" fill="#f6465d" /><line x1="383.29" y1="195.13" x2="383.29" y2="210.48" stroke="#0ecb81" stroke-width="1.4" /><rect x="380.29" y="201.27" width="6" height="2.00" rx="1.5" fill="#0ecb81" /><line x1="394.03" y1="190.02" x2="394.03" y2="202.30" stroke="#0ecb81" stroke-width="1.4" /><rect x="391.03" y="198.20" width="6" height="3.07" rx="1.5" fill="#0ecb81" /><line x1="404.76" y1="175.69" x2="404.76" y2="203.32" stroke="#0ecb81" stroke-width="1.4" /><rect x="401.76" y="182.85" width="6" height="16.37" rx="1.5" fill="#0ecb81" /><line x1="415.49" y1="172.62" x2="415.49" y2="202.30" stroke="#0ecb81" stroke-width="1.4" /><rect x="412.49" y="172.62" width="6" height="9.21" rx="1.5" fill="#0ecb81" /><line x1="426.23" y1="88.70" x2="426.23" y2="173.64" stroke="#0ecb81" stroke-width="1.4" /><rect x="423.23" y="120.43" width="6" height="52.19" rx="1.5" fill="#0ecb81" /><line x1="436.96" y1="83.58" x2="436.96" y2="119.40" stroke="#0ecb81" stroke-width="1.4" /><rect x="433.96" y="115.31" width="6" height="4.09" rx="1.5" fill="#0ecb81" /><line x1="447.70" y1="115.31" x2="447.70" y2="141.92" stroke="#f6465d" stroke-width="1.4" /><rect x="444.70" y="115.31" width="6" height="2.00" rx="1.5" fill="#f6465d" /><line x1="458.43" y1="93.82" x2="458.43" y2="136.80" stroke="#f6465d" stroke-width="1.4" /><rect x="455.43" y="116.33" width="6" height="11.26" rx="1.5" fill="#f6465d" /><line x1="469.16" y1="117.36" x2="469.16" y2="152.15" stroke="#0ecb81" stroke-width="1.4" /><rect x="466.16" y="117.36" width="6" height="10.23" rx="1.5" fill="#0ecb81" /><line x1="479.90" y1="102.01" x2="479.90" y2="128.61" stroke="#f6465d" stroke-width="1.4" /><rect x="476.90" y="118.38" width="6" height="2.00" rx="1.5" fill="#f6465d" /><line x1="490.63" y1="95.86" x2="490.63" y2="131.68" stroke="#f6465d" stroke-width="1.4" /><rect x="487.63" y="118.38" width="6" height="11.26" rx="1.5" fill="#f6465d" /><line x1="501.37" y1="110.19" x2="501.37" y2="132.71" stroke="#0ecb81" stroke-width="1.4" /><rect x="498.37" y="115.31" width="6" height="14.33" rx="1.5" fill="#0ecb81" /><line x1="512.10" y1="84.61" x2="512.10" y2="119.40" stroke="#0ecb81" stroke-width="1.4" /><rect x="509.10" y="88.70" width="6" height="27.63" rx="1.5" fill="#0ecb81" /><line x1="522.84" y1="83.58" x2="522.84" y2="121.45" stroke="#f6465d" stroke-width="1.4" /><rect x="519.84" y="87.68" width="6" height="32.75" rx="1.5" fill="#f6465d" /><line x1="533.57" y1="117.36" x2="533.57" y2="131.68" stroke="#0ecb81" stroke-width="1.4" /><rect x="530.57" y="120.43" width="6" height="2.00" rx="1.5" fill="#0ecb81" /><line x1="544.30" y1="112.24" x2="544.30" y2="142.94" stroke="#f6465d" stroke-width="1.4" /><rect x="541.30" y="120.43" width="6" height="16.37" rx="1.5" fill="#f6465d" /><line x1="555.04" y1="128.61" x2="555.04" y2="171.59" stroke="#f6465d" stroke-width="1.4" /><rect x="552.04" y="137.82" width="6" height="24.56" rx="1.5" fill="#f6465d" /><line x1="565.77" y1="156.24" x2="565.77" y2="179.78" stroke="#f6465d" stroke-width="1.4" /><rect x="562.77" y="162.38" width="6" height="4.09" rx="1.5" fill="#f6465d" /><line x1="576.51" y1="150.10" x2="576.51" y2="167.50" stroke="#0ecb81" stroke-width="1.4" /><rect x="573.51" y="167.50" width="6" height="2.00" rx="1.5" fill="#0ecb81" /><line x1="587.24" y1="164.43" x2="587.24" y2="178.76" stroke="#f6465d" stroke-width="1.4" /><rect x="584.24" y="166.48" width="6" height="4.09" rx="1.5" fill="#f6465d" /><line x1="597.97" y1="165.45" x2="597.97" y2="193.09" stroke="#f6465d" stroke-width="1.4" /><rect x="594.97" y="170.57" width="6" height="7.16" rx="1.5" fill="#f6465d" /><line x1="608.71" y1="158.29" x2="608.71" y2="176.71" stroke="#0ecb81" stroke-width="1.4" /><rect x="605.71" y="158.29" width="6" height="18.42" rx="1.5" fill="#0ecb81" /><line x1="619.44" y1="150.10" x2="619.44" y2="174.66" stroke="#f6465d" stroke-width="1.4" /><rect x="616.44" y="159.31" width="6" height="5.12" rx="1.5" fill="#f6465d" /><line x1="630.18" y1="141.92" x2="630.18" y2="168.52" stroke="#0ecb81" stroke-width="1.4" /><rect x="627.18" y="156.24" width="6" height="9.21" rx="1.5" fill="#0ecb81" /><line x1="640.91" y1="157.27" x2="640.91" y2="173.64" stroke="#f6465d" stroke-width="1.4" /><rect x="637.91" y="157.27" width="6" height="4.09" rx="1.5" fill="#f6465d" /><line x1="651.65" y1="142.94" x2="651.65" y2="162.38" stroke="#0ecb81" stroke-width="1.4" /><rect x="648.65" y="155.22" width="6" height="6.14" rx="1.5" fill="#0ecb81" /><line x1="662.38" y1="144.99" x2="662.38" y2="166.48" stroke="#f6465d" stroke-width="1.4" /><rect x="659.38" y="154.20" width="6" height="12.28" rx="1.5" fill="#f6465d" /><line x1="673.11" y1="158.29" x2="673.11" y2="182.85" stroke="#f6465d" stroke-width="1.4" /><rect x="670.11" y="165.45" width="6" height="8.19" rx="1.5" fill="#f6465d" /><line x1="683.85" y1="142.94" x2="683.85" y2="178.76" stroke="#0ecb81" stroke-width="1.4" /><rect x="680.85" y="144.99" width="6" height="30.70" rx="1.5" fill="#0ecb81" /><line x1="694.58" y1="132.71" x2="694.58" y2="161.36" stroke="#0ecb81" stroke-width="1.4" /><rect x="691.58" y="135.78" width="6" height="8.19" rx="1.5" fill="#0ecb81" /><line x1="705.32" y1="58.00" x2="705.32" y2="141.92" stroke="#0ecb81" stroke-width="1.4" /><rect x="702.32" y="91.77" width="6" height="45.03" rx="1.5" fill="#0ecb81" /><line x1="716.05" y1="73.35" x2="716.05" y2="102.01" stroke="#0ecb81" stroke-width="1.4" /><rect x="713.05" y="86.65" width="6" height="5.12" rx="1.5" fill="#0ecb81" /><line x1="726.78" y1="77.44" x2="726.78" y2="119.40" stroke="#f6465d" stroke-width="1.4" /><rect x="723.78" y="84.61" width="6" height="33.77" rx="1.5" fill="#f6465d" /><line x1="737.52" y1="91.77" x2="737.52" y2="125.54" stroke="#0ecb81" stroke-width="1.4" /><rect x="734.52" y="94.84" width="6" height="22.51" rx="1.5" fill="#0ecb81" /><line x1="748.25" y1="69.26" x2="748.25" y2="94.84" stroke="#0ecb81" stroke-width="1.4" /><rect x="745.25" y="80.51" width="6" height="14.33" rx="1.5" fill="#0ecb81" /><line x1="758.99" y1="77.44" x2="758.99" y2="95.86" stroke="#f6465d" stroke-width="1.4" /><rect x="755.99" y="79.49" width="6" height="15.35" rx="1.5" fill="#f6465d" /><line x1="769.72" y1="94.84" x2="769.72" y2="114.29" stroke="#f6465d" stroke-width="1.4" /><rect x="766.72" y="94.84" width="6" height="13.30" rx="1.5" fill="#f6465d" /><line x1="780.46" y1="75.40" x2="780.46" y2="109.17" stroke="#0ecb81" stroke-width="1.4" /><rect x="777.46" y="86.65" width="6" height="21.49" rx="1.5" fill="#0ecb81" /><line x1="791.19" y1="70.28" x2="791.19" y2="88.70" stroke="#0ecb81" stroke-width="1.4" /><rect x="788.19" y="74.37" width="6" height="11.26" rx="1.5" fill="#0ecb81" /><line x1="801.92" y1="65.16" x2="801.92" y2="85.63" stroke="#f6465d" stroke-width="1.4" /><rect x="798.92" y="75.40" width="6" height="9.21" rx="1.5" fill="#f6465d" /><line x1="812.66" y1="71.30" x2="812.66" y2="87.68" stroke="#0ecb81" stroke-width="1.4" /><rect x="809.66" y="74.37" width="6" height="10.23" rx="1.5" fill="#0ecb81" /><line x1="823.39" y1="63.12" x2="823.39" y2="85.63" stroke="#f6465d" stroke-width="1.4" /><rect x="820.39" y="73.35" width="6" height="3.07" rx="1.5" fill="#f6465d" /><line x1="834.13" y1="61.07" x2="834.13" y2="95.86" stroke="#f6465d" stroke-width="1.4" /><rect x="831.13" y="76.42" width="6" height="16.37" rx="1.5" fill="#f6465d" /><line x1="844.86" y1="85.63" x2="844.86" y2="113.26" stroke="#f6465d" stroke-width="1.4" /><rect x="841.86" y="92.79" width="6" height="19.44" rx="1.5" fill="#f6465d" /><line x1="855.59" y1="82.56" x2="855.59" y2="116.33" stroke="#0ecb81" stroke-width="1.4" /><rect x="852.59" y="93.82" width="6" height="19.44" rx="1.5" fill="#0ecb81" /><line x1="866.33" y1="83.58" x2="866.33" y2="95.86" stroke="#0ecb81" stroke-width="1.4" /><rect x="863.33" y="88.70" width="6" height="5.12" rx="1.5" fill="#0ecb81" /><line x1="877.06" y1="79.49" x2="877.06" y2="96.89" stroke="#0ecb81" stroke-width="1.4" /><rect x="874.06" y="85.63" width="6" height="3.07" rx="1.5" fill="#0ecb81" /><line x1="887.80" y1="85.63" x2="887.80" y2="103.03" stroke="#f6465d" stroke-width="1.4" /><rect x="884.80" y="85.63" width="6" height="14.33" rx="1.5" fill="#f6465d" /><line x1="898.53" y1="95.86" x2="898.53" y2="119.40" stroke="#0ecb81" stroke-width="1.4" /><rect x="895.53" y="96.89" width="6" height="4.09" rx="1.5" fill="#0ecb81" /><line x1="909.27" y1="85.63" x2="909.27" y2="102.01" stroke="#f6465d" stroke-width="1.4" /><rect x="906.27" y="95.86" width="6" height="3.07" rx="1.5" fill="#f6465d" /><line x1="920.00" y1="96.89" x2="920.00" y2="107.12" stroke="#0ecb81" stroke-width="1.4" /><rect x="917.00" y="98.94" width="6" height="2.00" rx="1.5" fill="#0ecb81" />
  <polyline points="522.84,83.58 597.97,193.09 630.18,141.92 673.11,182.85 705.32,58.00" fill="none" stroke="#2fc273" stroke-width="4" stroke-linecap="round" stroke-linejoin="round" />
  <circle cx="522.84" cy="83.58" r="5.5" fill="#2fc273" fill-opacity="0.15" stroke="#2fc273" stroke-width="2" /><text x="522.84" y="71.58" fill="#f3f4f6" font-size="15" font-weight="700" text-anchor="middle">X</text><circle cx="597.97" cy="193.09" r="5.5" fill="#2fc273" fill-opacity="0.15" stroke="#2fc273" stroke-width="2" /><text x="597.97" y="181.09" fill="#f3f4f6" font-size="15" font-weight="700" text-anchor="middle">A</text><circle cx="630.18" cy="141.92" r="5.5" fill="#2fc273" fill-opacity="0.15" stroke="#2fc273" stroke-width="2" /><text x="630.18" y="129.92" fill="#f3f4f6" font-size="15" font-weight="700" text-anchor="middle">B</text><circle cx="673.11" cy="182.85" r="5.5" fill="#2fc273" fill-opacity="0.15" stroke="#2fc273" stroke-width="2" /><text x="673.11" y="170.85" fill="#f3f4f6" font-size="15" font-weight="700" text-anchor="middle">C</text><circle cx="705.32" cy="58.00" r="5.5" fill="#2fc273" fill-opacity="0.15" stroke="#2fc273" stroke-width="2" /><text x="705.32" y="46.00" fill="#f3f4f6" font-size="15" font-weight="700" text-anchor="middle">D</text>
  <text x="56" y="492" fill="#8ba0b5" font-size="18">일반 완성 · TP1 0.64584 · TP2 0.64296 · SL 0.65189</text>
</svg>
