<svg xmlns="http://www.w3.org/2000/svg" width="960" height="540" viewBox="0 0 960 540">
  <rect width="960" height="540" rx="24" fill="#0b1220" />
  <rect x="28" y="28" width="904" height="484" rx="22" fill="#111827" stroke="#1f2937" />
  <text x="56" y="74" fill="#f3f4f6" font-size="34" font-weight="700">VVVUSDT · AB=CD</text>
  <text x="904" y="74" fill="#8ba0b5" font-size="20" text-anchor="end">Bullish (매수) · Score 87.0</text>
  <line x1="72" y1="58" x2="920" y2="58" stroke="#223045" stroke-width="1" stroke-dasharray="4 8" /><line x1="72" y1="156" x2="920" y2="156" stroke="#223045" stroke-width="1" stroke-dasharray="4 8" /><line x1="72" y1="255" x2="920" y2="255" stroke="#223045" stroke-width="1" stroke-dasharray="4 8" /><line x1="72" y1="353" x2="920" y2="353" stroke="#223045" stroke-width="1" stroke-dasharray="4 8" /><line x1="72" y1="452" x2="920" y2="452" stroke="#223045" stroke-width="1" stroke-dasharray="4 8" />
  <rect x="859.80" y="455.23" width="84" height="44.89" fill="#fbbf24" fill-opacity="0.12" stroke="#fbbf24" stroke-width="1.5" stroke-dasharray="6 6" />
  <line x1="72.00" y1="94.84" x2="72.00" y2="109.88" stroke="#0ecb81" stroke-width="1.4" /><rect x="69.00" y="98.60" width="6" height="2.26" rx="1.5" fill="#0ecb81" /><line x1="82.73" y1="94.84" x2="82.73" y2="112.14" stroke="#f6465d" stroke-width="1.4" /><rect x="79.73" y="98.60" width="6" height="2.00" rx="1.5" fill="#f6465d" /><line x1="93.47" y1="91.84" x2="93.47" y2="113.64" stroke="#f6465d" stroke-width="1.4" /><rect x="90.47" y="100.11" width="6" height="6.02" rx="1.5" fill="#f6465d" /><line x1="104.20" y1="83.56" x2="104.20" y2="113.64" stroke="#0ecb81" stroke-width="1.4" /><rect x="101.20" y="97.10" width="6" height="8.27" rx="1.5" fill="#0ecb81" /><line x1="114.94" y1="58.00" x2="114.94" y2="97.10" stroke="#0ecb81" stroke-width="1.4" /><rect x="111.94" y="83.56" width="6" height="13.53" rx="1.5" fill="#0ecb81" /><line x1="125.67" y1="81.31" x2="125.67" y2="100.11" stroke="#f6465d" stroke-width="1.4" /><rect x="122.67" y="83.56" width="6" height="13.53" rx="1.5" fill="#f6465d" /><line x1="136.41" y1="88.83" x2="136.41" y2="111.39" stroke="#f6465d" stroke-width="1.4" /><rect x="133.41" y="97.10" width="6" height="5.26" rx="1.5" fill="#f6465d" /><line x1="147.14" y1="101.61" x2="147.14" y2="153.49" stroke="#f6465d" stroke-width="1.4" /><rect x="144.14" y="102.36" width="6" height="24.06" rx="1.5" fill="#f6465d" /><line x1="157.87" y1="126.42" x2="157.87" y2="222.67" stroke="#f6465d" stroke-width="1.4" /><rect x="154.87" y="126.42" width="6" height="93.24" rx="1.5" fill="#f6465d" /><line x1="168.61" y1="215.90" x2="168.61" y2="259.51" stroke="#f6465d" stroke-width="1.4" /><rect x="165.61" y="221.92" width="6" height="24.06" rx="1.5" fill="#f6465d" /><line x1="179.34" y1="242.22" x2="179.34" y2="260.26" stroke="#f6465d" stroke-width="1.4" /><rect x="176.34" y="245.98" width="6" height="9.02" rx="1.5" fill="#f6465d" /><line x1="190.08" y1="248.98" x2="190.08" y2="270.04" stroke="#0ecb81" stroke-width="1.4" /><rect x="187.08" y="249.74" width="6" height="6.02" rx="1.5" fill="#0ecb81" /><line x1="200.81" y1="239.21" x2="200.81" y2="269.29" stroke="#f6465d" stroke-width="1.4" /><rect x="197.81" y="248.98" width="6" height="15.79" rx="1.5" fill="#f6465d" /><line x1="211.54" y1="258.76" x2="211.54" y2="269.29" stroke="#f6465d" stroke-width="1.4" /><rect x="208.54" y="264.02" width="6" height="4.51" rx="1.5" fill="#f6465d" /><line x1="222.28" y1="250.49" x2="222.28" y2="279.06" stroke="#0ecb81" stroke-width="1.4" /><rect x="219.28" y="251.24" width="6" height="18.05" rx="1.5" fill="#0ecb81" /><line x1="233.01" y1="230.94" x2="233.01" y2="252.74" stroke="#0ecb81" stroke-width="1.4" /><rect x="230.01" y="246.73" width="6" height="4.51" rx="1.5" fill="#0ecb81" /><line x1="243.75" y1="230.19" x2="243.75" y2="251.99" stroke="#0ecb81" stroke-width="1.4" /><rect x="240.75" y="245.23" width="6" height="2.00" rx="1.5" fill="#0ecb81" /><line x1="254.48" y1="239.96" x2="254.48" y2="255.75" stroke="#f6465d" stroke-width="1.4" /><rect x="251.48" y="247.48" width="6" height="2.00" rx="1.5" fill="#f6465d" /><line x1="265.22" y1="230.94" x2="265.22" y2="251.24" stroke="#0ecb81" stroke-width="1.4" /><rect x="262.22" y="240.71" width="6" height="7.52" rx="1.5" fill="#0ecb81" /><line x1="275.95" y1="239.21" x2="275.95" y2="249.74" stroke="#f6465d" stroke-width="1.4" /><rect x="272.95" y="241.47" width="6" height="3.76" rx="1.5" fill="#f6465d" /><line x1="286.68" y1="221.92" x2="286.68" y2="247.48" stroke="#0ecb81" stroke-width="1.4" /><rect x="283.68" y="222.67" width="6" height="23.31" rx="1.5" fill="#0ecb81" /><line x1="297.42" y1="223.42" x2="297.42" y2="250.49" stroke="#f6465d" stroke-width="1.4" /><rect x="294.42" y="223.42" width="6" height="18.80" rx="1.5" fill="#f6465d" /><line x1="308.15" y1="227.18" x2="308.15" y2="242.97" stroke="#0ecb81" stroke-width="1.4" /><rect x="305.15" y="233.19" width="6" height="8.27" rx="1.5" fill="#0ecb81" /><line x1="318.89" y1="208.38" x2="318.89" y2="239.96" stroke="#0ecb81" stroke-width="1.4" /><rect x="315.89" y="229.44" width="6" height="3.76" rx="1.5" fill="#0ecb81" /><line x1="329.62" y1="227.93" x2="329.62" y2="246.73" stroke="#f6465d" stroke-width="1.4" /><rect x="326.62" y="230.19" width="6" height="9.02" rx="1.5" fill="#f6465d" /><line x1="340.35" y1="235.45" x2="340.35" y2="261.02" stroke="#f6465d" stroke-width="1.4" /><rect x="337.35" y="239.96" width="6" height="21.05" rx="1.5" fill="#f6465d" /><line x1="351.09" y1="257.26" x2="351.09" y2="278.31" stroke="#f6465d" stroke-width="1.4" /><rect x="348.09" y="260.26" width="6" height="14.29" rx="1.5" fill="#f6465d" /><line x1="361.82" y1="252.74" x2="361.82" y2="282.07" stroke="#0ecb81" stroke-width="1.4" /><rect x="358.82" y="262.52" width="6" height="12.78" rx="1.5" fill="#0ecb81" /><line x1="372.56" y1="254.25" x2="372.56" y2="282.07" stroke="#f6465d" stroke-width="1.4" /><rect x="369.56" y="261.77" width="6" height="9.77" rx="1.5" fill="#f6465d" /><line x1="383.29" y1="248.98" x2="383.29" y2="274.55" stroke="#0ecb81" stroke-width="1.4" /><rect x="380.29" y="262.52" width="6" height="9.02" rx="1.5" fill="#0ecb81" /><line x1="394.03" y1="254.25" x2="394.03" y2="267.03" stroke="#0ecb81" stroke-width="1.4" /><rect x="391.03" y="261.02" width="6" height="2.00" rx="1.5" fill="#0ecb81" /><line x1="404.76" y1="248.98" x2="404.76" y2="270.79" stroke="#f6465d" stroke-width="1.4" /><rect x="401.76" y="261.02" width="6" height="3.76" rx="1.5" fill="#f6465d" /><line x1="415.49" y1="266.28" x2="415.49" y2="309.89" stroke="#f6465d" stroke-width="1.4" /><rect x="412.49" y="266.28" width="6" height="36.84" rx="1.5" fill="#f6465d" /><line x1="426.23" y1="300.11" x2="426.23" y2="326.43" stroke="#f6465d" stroke-width="1.4" /><rect x="423.23" y="302.37" width="6" height="13.53" rx="1.5" fill="#f6465d" /><line x1="436.96" y1="303.87" x2="436.96" y2="327.18" stroke="#0ecb81" stroke-width="1.4" /><rect x="433.96" y="312.15" width="6" height="4.51" rx="1.5" fill="#0ecb81" /><line x1="447.70" y1="291.09" x2="447.70" y2="324.93" stroke="#0ecb81" stroke-width="1.4" /><rect x="444.70" y="292.60" width="6" height="19.55" rx="1.5" fill="#0ecb81" /><line x1="458.43" y1="243.72" x2="458.43" y2="294.85" stroke="#0ecb81" stroke-width="1.4" /><rect x="455.43" y="256.50" width="6" height="36.09" rx="1.5" fill="#0ecb81" /><line x1="469.16" y1="251.24" x2="469.16" y2="267.78" stroke="#0ecb81" stroke-width="1.4" /><rect x="466.16" y="256.50" width="6" height="2.00" rx="1.5" fill="#0ecb81" /><line x1="479.90" y1="251.99" x2="479.90" y2="273.05" stroke="#f6465d" stroke-width="1.4" /><rect x="476.90" y="256.50" width="6" height="12.03" rx="1.5" fill="#f6465d" /><line x1="490.63" y1="265.53" x2="490.63" y2="277.56" stroke="#0ecb81" stroke-width="1.4" /><rect x="487.63" y="268.53" width="6" height="2.00" rx="1.5" fill="#0ecb81" /><line x1="501.37" y1="260.26" x2="501.37" y2="279.81" stroke="#f6465d" stroke-width="1.4" /><rect x="498.37" y="269.29" width="6" height="8.27" rx="1.5" fill="#f6465d" /><line x1="512.10" y1="276.05" x2="512.10" y2="285.83" stroke="#0ecb81" stroke-width="1.4" /><rect x="509.10" y="278.31" width="6" height="2.00" rx="1.5" fill="#0ecb81" /><line x1="522.84" y1="274.55" x2="522.84" y2="285.08" stroke="#f6465d" stroke-width="1.4" /><rect x="519.84" y="277.56" width="6" height="5.26" rx="1.5" fill="#f6465d" /><line x1="533.57" y1="268.53" x2="533.57" y2="288.84" stroke="#0ecb81" stroke-width="1.4" /><rect x="530.57" y="273.05" width="6" height="10.53" rx="1.5" fill="#0ecb81" /><line x1="544.30" y1="268.53" x2="544.30" y2="282.07" stroke="#f6465d" stroke-width="1.4" /><rect x="541.30" y="271.54" width="6" height="6.77" rx="1.5" fill="#f6465d" /><line x1="555.04" y1="269.29" x2="555.04" y2="291.84" stroke="#0ecb81" stroke-width="1.4" /><rect x="552.04" y="273.80" width="6" height="4.51" rx="1.5" fill="#0ecb81" /><line x1="565.77" y1="253.50" x2="565.77" y2="277.56" stroke="#0ecb81" stroke-width="1.4" /><rect x="562.77" y="261.77" width="6" height="12.78" rx="1.5" fill="#0ecb81" /><line x1="576.51" y1="257.26" x2="576.51" y2="276.05" stroke="#f6465d" stroke-width="1.4" /><rect x="573.51" y="261.02" width="6" height="8.27" rx="1.5" fill="#f6465d" /><line x1="587.24" y1="268.53" x2="587.24" y2="285.83" stroke="#f6465d" stroke-width="1.4" /><rect x="584.24" y="270.04" width="6" height="15.79" rx="1.5" fill="#f6465d" /><line x1="597.97" y1="264.77" x2="597.97" y2="303.12" stroke="#0ecb81" stroke-width="1.4" /><rect x="594.97" y="269.29" width="6" height="16.54" rx="1.5" fill="#0ecb81" /><line x1="608.71" y1="265.53" x2="608.71" y2="300.11" stroke="#f6465d" stroke-width="1.4" /><rect x="605.71" y="269.29" width="6" height="30.08" rx="1.5" fill="#f6465d" /><line x1="619.44" y1="288.84" x2="619.44" y2="308.39" stroke="#0ecb81" stroke-width="1.4" /><rect x="616.44" y="296.35" width="6" height="3.76" rx="1.5" fill="#0ecb81" /><line x1="630.18" y1="277.56" x2="630.18" y2="299.36" stroke="#0ecb81" stroke-width="1.4" /><rect x="627.18" y="292.60" width="6" height="3.76" rx="1.5" fill="#0ecb81" /><line x1="640.91" y1="288.08" x2="640.91" y2="300.87" stroke="#0ecb81" stroke-width="1.4" /><rect x="637.91" y="289.59" width="6" height="3.76" rx="1.5" fill="#0ecb81" /><line x1="651.65" y1="289.59" x2="651.65" y2="302.37" stroke="#f6465d" stroke-width="1.4" /><rect x="648.65" y="290.34" width="6" height="4.51" rx="1.5" fill="#f6465d" /><line x1="662.38" y1="291.09" x2="662.38" y2="303.12" stroke="#0ecb81" stroke-width="1.4" /><rect x="659.38" y="294.85" width="6" height="2.00" rx="1.5" fill="#0ecb81" /><line x1="673.11" y1="290.34" x2="673.11" y2="311.39" stroke="#f6465d" stroke-width="1.4" /><rect x="670.11" y="294.10" width="6" height="17.29" rx="1.5" fill="#f6465d" /><line x1="683.85" y1="300.87" x2="683.85" y2="318.16" stroke="#0ecb81" stroke-width="1.4" /><rect x="680.85" y="310.64" width="6" height="2.00" rx="1.5" fill="#0ecb81" /><line x1="694.58" y1="307.63" x2="694.58" y2="318.91" stroke="#0ecb81" stroke-width="1.4" /><rect x="691.58" y="310.64" width="6" height="2.00" rx="1.5" fill="#0ecb81" /><line x1="705.32" y1="280.56" x2="705.32" y2="311.39" stroke="#0ecb81" stroke-width="1.4" /><rect x="702.32" y="303.12" width="6" height="8.27" rx="1.5" fill="#0ecb81" /><line x1="716.05" y1="276.81" x2="716.05" y2="304.63" stroke="#0ecb81" stroke-width="1.4" /><rect x="713.05" y="289.59" width="6" height="14.29" rx="1.5" fill="#0ecb81" /><line x1="726.78" y1="251.24" x2="726.78" y2="297.86" stroke="#0ecb81" stroke-width="1.4" /><rect x="723.78" y="264.77" width="6" height="24.06" rx="1.5" fill="#0ecb81" /><line x1="737.52" y1="253.50" x2="737.52" y2="281.32" stroke="#f6465d" stroke-width="1.4" /><rect x="734.52" y="265.53" width="6" height="2.26" rx="1.5" fill="#f6465d" /><line x1="748.25" y1="264.77" x2="748.25" y2="277.56" stroke="#f6465d" stroke-width="1.4" /><rect x="745.25" y="267.78" width="6" height="7.52" rx="1.5" fill="#f6465d" /><line x1="758.99" y1="271.54" x2="758.99" y2="292.60" stroke="#f6465d" stroke-width="1.4" /><rect x="755.99" y="276.05" width="6" height="2.00" rx="1.5" fill="#f6465d" /><line x1="769.72" y1="275.30" x2="769.72" y2="298.61" stroke="#f6465d" stroke-width="1.4" /><rect x="766.72" y="276.05" width="6" height="16.54" rx="1.5" fill="#f6465d" /><line x1="780.46" y1="291.09" x2="780.46" y2="310.64" stroke="#f6465d" stroke-width="1.4" /><rect x="777.46" y="292.60" width="6" height="15.04" rx="1.5" fill="#f6465d" /><line x1="791.19" y1="305.38" x2="791.19" y2="339.21" stroke="#f6465d" stroke-width="1.4" /><rect x="788.19" y="307.63" width="6" height="21.81" rx="1.5" fill="#f6465d" /><line x1="801.92" y1="330.19" x2="801.92" y2="384.33" stroke="#f6465d" stroke-width="1.4" /><rect x="798.92" y="331.69" width="6" height="39.10" rx="1.5" fill="#f6465d" /><line x1="812.66" y1="367.79" x2="812.66" y2="401.62" stroke="#f6465d" stroke-width="1.4" /><rect x="809.66" y="370.79" width="6" height="25.56" rx="1.5" fill="#f6465d" /><line x1="823.39" y1="376.81" x2="823.39" y2="404.63" stroke="#0ecb81" stroke-width="1.4" /><rect x="820.39" y="378.31" width="6" height="16.54" rx="1.5" fill="#0ecb81" /><line x1="834.13" y1="359.52" x2="834.13" y2="377.56" stroke="#0ecb81" stroke-width="1.4" /><rect x="831.13" y="369.29" width="6" height="8.27" rx="1.5" fill="#0ecb81" /><line x1="844.86" y1="359.52" x2="844.86" y2="386.58" stroke="#0ecb81" stroke-width="1.4" /><rect x="841.86" y="368.54" width="6" height="2.00" rx="1.5" fill="#0ecb81" /><line x1="855.59" y1="346.73" x2="855.59" y2="368.54" stroke="#0ecb81" stroke-width="1.4" /><rect x="852.59" y="358.76" width="6" height="9.02" rx="1.5" fill="#0ecb81" /><line x1="866.33" y1="359.52" x2="866.33" y2="378.31" stroke="#f6465d" stroke-width="1.4" /><rect x="863.33" y="359.52" width="6" height="18.05" rx="1.5" fill="#f6465d" /><line x1="877.06" y1="370.04" x2="877.06" y2="403.13" stroke="#f6465d" stroke-width="1.4" /><rect x="874.06" y="378.31" width="6" height="11.28" rx="1.5" fill="#f6465d" /><line x1="887.80" y1="390.34" x2="887.80" y2="452.00" stroke="#f6465d" stroke-width="1.4" /><rect x="884.80" y="390.34" width="6" height="23.31" rx="1.5" fill="#f6465d" /><line x1="898.53" y1="392.60" x2="898.53" y2="421.17" stroke="#0ecb81" stroke-width="1.4" /><rect x="895.53" y="408.39" width="6" height="5.26" rx="1.5" fill="#0ecb81" /><line x1="909.27" y1="400.12" x2="909.27" y2="432.45" stroke="#f6465d" stroke-width="1.4" /><rect x="906.27" y="407.64" width="6" height="9.02" rx="1.5" fill="#f6465d" /><line x1="920.00" y1="384.33" x2="920.00" y2="423.43" stroke="#0ecb81" stroke-width="1.4" /><rect x="917.00" y="388.84" width="6" height="28.57" rx="1.5" fill="#0ecb81" />
  <polyline points="694.58,318.91 726.78,251.24 823.39,404.63 855.59,346.73 887.80,452.00" fill="none" stroke="#2fc273" stroke-width="4" stroke-linecap="round" stroke-linejoin="round" />
  <circle cx="694.58" cy="318.91" r="5.5" fill="#2fc273" fill-opacity="0.15" stroke="#2fc273" stroke-width="2" /><text x="694.58" y="306.91" fill="#f3f4f6" font-size="15" font-weight="700" text-anchor="middle">X</text><circle cx="726.78" cy="251.24" r="5.5" fill="#2fc273" fill-opacity="0.15" stroke="#2fc273" stroke-width="2" /><text x="726.78" y="239.24" fill="#f3f4f6" font-size="15" font-weight="700" text-anchor="middle">A</text><circle cx="823.39" cy="404.63" r="5.5" fill="#2fc273" fill-opacity="0.15" stroke="#2fc273" stroke-width="2" /><text x="823.39" y="392.63" fill="#f3f4f6" font-size="15" font-weight="700" text-anchor="middle">B</text><circle cx="855.59" cy="346.73" r="5.5" fill="#2fc273" fill-opacity="0.15" stroke="#2fc273" stroke-width="2" /><text x="855.59" y="334.73" fill="#f3f4f6" font-size="15" font-weight="700" text-anchor="middle">C</text><circle cx="887.80" cy="452.00" r="5.5" fill="#2fc273" fill-opacity="0.15" stroke="#2fc273" stroke-width="2" /><text x="887.80" y="440.00" fill="#f3f4f6" font-size="15" font-weight="700" text-anchor="middle">D</text>
  <text x="56" y="492" fill="#8ba0b5" font-size="18">일반 완성 · TP1 7.0245 · TP2 7.0575 · SL 6.9593</text>
</svg>
