<svg xmlns="http://www.w3.org/2000/svg" width="960" height="540" viewBox="0 0 960 540">
  <rect width="960" height="540" rx="24" fill="#0b1220" />
  <rect x="28" y="28" width="904" height="484" rx="22" fill="#111827" stroke="#1f2937" />
  <text x="56" y="74" fill="#f3f4f6" font-size="34" font-weight="700">VVVUSDT · AB=CD</text>
  <text x="904" y="74" fill="#8ba0b5" font-size="20" text-anchor="end">Bullish (매수) · Score 83.5</text>
  <line x1="72" y1="58" x2="920" y2="58" stroke="#223045" stroke-width="1" stroke-dasharray="4 8" /><line x1="72" y1="156" x2="920" y2="156" stroke="#223045" stroke-width="1" stroke-dasharray="4 8" /><line x1="72" y1="255" x2="920" y2="255" stroke="#223045" stroke-width="1" stroke-dasharray="4 8" /><line x1="72" y1="353" x2="920" y2="353" stroke="#223045" stroke-width="1" stroke-dasharray="4 8" /><line x1="72" y1="452" x2="920" y2="452" stroke="#223045" stroke-width="1" stroke-dasharray="4 8" />
  <rect x="387.49" y="286.06" width="84" height="57.55" fill="#fbbf24" fill-opacity="0.12" stroke="#fbbf24" stroke-width="1.5" stroke-dasharray="6 6" />
  <line x1="72.00" y1="177.34" x2="72.00" y2="236.20" stroke="#0ecb81" stroke-width="1.4" /><rect x="69.00" y="196.96" width="6" height="6.54" rx="1.5" fill="#0ecb81" /><line x1="82.73" y1="164.27" x2="82.73" y2="205.14" stroke="#0ecb81" stroke-width="1.4" /><rect x="79.73" y="177.34" width="6" height="19.62" rx="1.5" fill="#0ecb81" /><line x1="93.47" y1="123.39" x2="93.47" y2="187.15" stroke="#f6465d" stroke-width="1.4" /><rect x="90.47" y="175.71" width="6" height="3.27" rx="1.5" fill="#f6465d" /><line x1="104.20" y1="170.80" x2="104.20" y2="198.60" stroke="#f6465d" stroke-width="1.4" /><rect x="101.20" y="177.34" width="6" height="4.90" rx="1.5" fill="#f6465d" /><line x1="114.94" y1="177.34" x2="114.94" y2="228.02" stroke="#f6465d" stroke-width="1.4" /><rect x="111.94" y="182.25" width="6" height="39.24" rx="1.5" fill="#f6465d" /><line x1="125.67" y1="139.74" x2="125.67" y2="219.85" stroke="#0ecb81" stroke-width="1.4" /><rect x="122.67" y="152.82" width="6" height="67.03" rx="1.5" fill="#0ecb81" /><line x1="136.41" y1="89.06" x2="136.41" y2="169.17" stroke="#0ecb81" stroke-width="1.4" /><rect x="133.41" y="121.76" width="6" height="29.43" rx="1.5" fill="#0ecb81" /><line x1="147.14" y1="58.00" x2="147.14" y2="131.57" stroke="#0ecb81" stroke-width="1.4" /><rect x="144.14" y="85.79" width="6" height="34.33" rx="1.5" fill="#0ecb81" /><line x1="157.87" y1="62.90" x2="157.87" y2="141.38" stroke="#f6465d" stroke-width="1.4" /><rect x="154.87" y="84.16" width="6" height="57.22" rx="1.5" fill="#f6465d" /><line x1="168.61" y1="79.25" x2="168.61" y2="154.46" stroke="#0ecb81" stroke-width="1.4" /><rect x="165.61" y="98.87" width="6" height="40.87" rx="1.5" fill="#0ecb81" /><line x1="179.34" y1="90.70" x2="179.34" y2="205.14" stroke="#f6465d" stroke-width="1.4" /><rect x="176.34" y="97.24" width="6" height="106.27" rx="1.5" fill="#f6465d" /><line x1="190.08" y1="183.88" x2="190.08" y2="270.53" stroke="#f6465d" stroke-width="1.4" /><rect x="187.08" y="205.14" width="6" height="53.95" rx="1.5" fill="#f6465d" /><line x1="200.81" y1="223.12" x2="200.81" y2="277.07" stroke="#0ecb81" stroke-width="1.4" /><rect x="197.81" y="223.12" width="6" height="37.60" rx="1.5" fill="#0ecb81" /><line x1="211.54" y1="210.04" x2="211.54" y2="254.18" stroke="#0ecb81" stroke-width="1.4" /><rect x="208.54" y="216.58" width="6" height="6.54" rx="1.5" fill="#0ecb81" /><line x1="222.28" y1="206.77" x2="222.28" y2="252.55" stroke="#f6465d" stroke-width="1.4" /><rect x="219.28" y="216.58" width="6" height="35.97" rx="1.5" fill="#f6465d" /><line x1="233.01" y1="249.28" x2="233.01" y2="299.96" stroke="#f6465d" stroke-width="1.4" /><rect x="230.01" y="249.28" width="6" height="26.16" rx="1.5" fill="#f6465d" /><line x1="243.75" y1="223.12" x2="243.75" y2="281.98" stroke="#0ecb81" stroke-width="1.4" /><rect x="240.75" y="237.83" width="6" height="35.97" rx="1.5" fill="#0ecb81" /><line x1="254.48" y1="198.60" x2="254.48" y2="239.47" stroke="#0ecb81" stroke-width="1.4" /><rect x="251.48" y="216.58" width="6" height="21.25" rx="1.5" fill="#0ecb81" /><line x1="265.22" y1="210.04" x2="265.22" y2="309.77" stroke="#f6465d" stroke-width="1.4" /><rect x="262.22" y="216.58" width="6" height="17.98" rx="1.5" fill="#f6465d" /><line x1="275.95" y1="177.34" x2="275.95" y2="242.74" stroke="#0ecb81" stroke-width="1.4" /><rect x="272.95" y="182.25" width="6" height="52.32" rx="1.5" fill="#0ecb81" /><line x1="286.68" y1="167.54" x2="286.68" y2="216.58" stroke="#f6465d" stroke-width="1.4" /><rect x="283.68" y="180.61" width="6" height="31.06" rx="1.5" fill="#f6465d" /><line x1="297.42" y1="210.04" x2="297.42" y2="260.72" stroke="#f6465d" stroke-width="1.4" /><rect x="294.42" y="210.04" width="6" height="27.79" rx="1.5" fill="#f6465d" /><line x1="308.15" y1="231.29" x2="308.15" y2="259.09" stroke="#0ecb81" stroke-width="1.4" /><rect x="305.15" y="231.29" width="6" height="4.90" rx="1.5" fill="#0ecb81" /><line x1="318.89" y1="208.41" x2="318.89" y2="246.01" stroke="#f6465d" stroke-width="1.4" /><rect x="315.89" y="231.29" width="6" height="2.00" rx="1.5" fill="#f6465d" /><line x1="329.62" y1="234.56" x2="329.62" y2="259.09" stroke="#f6465d" stroke-width="1.4" /><rect x="326.62" y="234.56" width="6" height="11.44" rx="1.5" fill="#f6465d" /><line x1="340.35" y1="234.56" x2="340.35" y2="254.18" stroke="#f6465d" stroke-width="1.4" /><rect x="337.35" y="244.37" width="6" height="4.90" rx="1.5" fill="#f6465d" /><line x1="351.09" y1="228.02" x2="351.09" y2="249.28" stroke="#0ecb81" stroke-width="1.4" /><rect x="348.09" y="244.37" width="6" height="3.27" rx="1.5" fill="#0ecb81" /><line x1="361.82" y1="205.14" x2="361.82" y2="268.90" stroke="#0ecb81" stroke-width="1.4" /><rect x="358.82" y="246.01" width="6" height="2.00" rx="1.5" fill="#0ecb81" /><line x1="372.56" y1="193.69" x2="372.56" y2="246.01" stroke="#0ecb81" stroke-width="1.4" /><rect x="369.56" y="205.14" width="6" height="40.87" rx="1.5" fill="#0ecb81" /><line x1="383.29" y1="201.87" x2="383.29" y2="210.04" stroke="#f6465d" stroke-width="1.4" /><rect x="380.29" y="205.14" width="6" height="3.27" rx="1.5" fill="#f6465d" /><line x1="394.03" y1="208.41" x2="394.03" y2="241.10" stroke="#f6465d" stroke-width="1.4" /><rect x="391.03" y="210.04" width="6" height="24.52" rx="1.5" fill="#f6465d" /><line x1="404.76" y1="232.93" x2="404.76" y2="339.20" stroke="#f6465d" stroke-width="1.4" /><rect x="401.76" y="236.20" width="6" height="98.09" rx="1.5" fill="#f6465d" /><line x1="415.49" y1="322.85" x2="415.49" y2="402.95" stroke="#f6465d" stroke-width="1.4" /><rect x="412.49" y="331.02" width="6" height="35.97" rx="1.5" fill="#f6465d" /><line x1="426.23" y1="293.42" x2="426.23" y2="375.16" stroke="#0ecb81" stroke-width="1.4" /><rect x="423.23" y="327.75" width="6" height="39.24" rx="1.5" fill="#0ecb81" /><line x1="436.96" y1="293.42" x2="436.96" y2="339.20" stroke="#0ecb81" stroke-width="1.4" /><rect x="433.96" y="309.77" width="6" height="19.62" rx="1.5" fill="#0ecb81" /><line x1="447.70" y1="263.99" x2="447.70" y2="329.39" stroke="#0ecb81" stroke-width="1.4" /><rect x="444.70" y="263.99" width="6" height="45.78" rx="1.5" fill="#0ecb81" /><line x1="458.43" y1="121.76" x2="458.43" y2="262.36" stroke="#0ecb81" stroke-width="1.4" /><rect x="455.43" y="123.39" width="6" height="138.96" rx="1.5" fill="#0ecb81" /><line x1="469.16" y1="84.16" x2="469.16" y2="128.30" stroke="#f6465d" stroke-width="1.4" /><rect x="466.16" y="123.39" width="6" height="4.90" rx="1.5" fill="#f6465d" /><line x1="479.90" y1="111.95" x2="479.90" y2="165.90" stroke="#f6465d" stroke-width="1.4" /><rect x="476.90" y="126.66" width="6" height="39.24" rx="1.5" fill="#f6465d" /><line x1="490.63" y1="157.73" x2="490.63" y2="200.23" stroke="#f6465d" stroke-width="1.4" /><rect x="487.63" y="167.54" width="6" height="6.54" rx="1.5" fill="#f6465d" /><line x1="501.37" y1="170.80" x2="501.37" y2="200.23" stroke="#f6465d" stroke-width="1.4" /><rect x="498.37" y="172.44" width="6" height="4.90" rx="1.5" fill="#f6465d" /><line x1="512.10" y1="164.27" x2="512.10" y2="193.69" stroke="#f6465d" stroke-width="1.4" /><rect x="509.10" y="177.34" width="6" height="2.00" rx="1.5" fill="#f6465d" /><line x1="522.84" y1="175.71" x2="522.84" y2="196.96" stroke="#f6465d" stroke-width="1.4" /><rect x="519.84" y="180.61" width="6" height="8.17" rx="1.5" fill="#f6465d" /><line x1="533.57" y1="144.65" x2="533.57" y2="214.95" stroke="#0ecb81" stroke-width="1.4" /><rect x="530.57" y="177.34" width="6" height="11.44" rx="1.5" fill="#0ecb81" /><line x1="544.30" y1="149.55" x2="544.30" y2="188.79" stroke="#f6465d" stroke-width="1.4" /><rect x="541.30" y="175.71" width="6" height="13.08" rx="1.5" fill="#f6465d" /><line x1="555.04" y1="177.34" x2="555.04" y2="223.12" stroke="#f6465d" stroke-width="1.4" /><rect x="552.04" y="190.42" width="6" height="2.00" rx="1.5" fill="#f6465d" /><line x1="565.77" y1="174.07" x2="565.77" y2="214.95" stroke="#f6465d" stroke-width="1.4" /><rect x="562.77" y="196.96" width="6" height="13.08" rx="1.5" fill="#f6465d" /><line x1="576.51" y1="203.50" x2="576.51" y2="250.91" stroke="#f6465d" stroke-width="1.4" /><rect x="573.51" y="210.04" width="6" height="14.71" rx="1.5" fill="#f6465d" /><line x1="587.24" y1="174.07" x2="587.24" y2="226.39" stroke="#0ecb81" stroke-width="1.4" /><rect x="584.24" y="182.25" width="6" height="40.87" rx="1.5" fill="#0ecb81" /><line x1="597.97" y1="152.82" x2="597.97" y2="190.42" stroke="#f6465d" stroke-width="1.4" /><rect x="594.97" y="178.98" width="6" height="6.54" rx="1.5" fill="#f6465d" /><line x1="608.71" y1="123.39" x2="608.71" y2="190.42" stroke="#0ecb81" stroke-width="1.4" /><rect x="605.71" y="164.27" width="6" height="19.62" rx="1.5" fill="#0ecb81" /><line x1="619.44" y1="133.20" x2="619.44" y2="172.44" stroke="#0ecb81" stroke-width="1.4" /><rect x="616.44" y="161.00" width="6" height="2.00" rx="1.5" fill="#0ecb81" /><line x1="630.18" y1="149.55" x2="630.18" y2="172.44" stroke="#f6465d" stroke-width="1.4" /><rect x="627.18" y="157.73" width="6" height="14.71" rx="1.5" fill="#f6465d" /><line x1="640.91" y1="165.90" x2="640.91" y2="236.20" stroke="#f6465d" stroke-width="1.4" /><rect x="637.91" y="172.44" width="6" height="62.12" rx="1.5" fill="#f6465d" /><line x1="651.65" y1="201.87" x2="651.65" y2="246.01" stroke="#0ecb81" stroke-width="1.4" /><rect x="648.65" y="223.12" width="6" height="13.08" rx="1.5" fill="#0ecb81" /><line x1="662.38" y1="205.14" x2="662.38" y2="275.44" stroke="#f6465d" stroke-width="1.4" /><rect x="659.38" y="221.49" width="6" height="31.06" rx="1.5" fill="#f6465d" /><line x1="673.11" y1="232.93" x2="673.11" y2="306.50" stroke="#f6465d" stroke-width="1.4" /><rect x="670.11" y="250.91" width="6" height="50.68" rx="1.5" fill="#f6465d" /><line x1="683.85" y1="262.36" x2="683.85" y2="301.59" stroke="#0ecb81" stroke-width="1.4" /><rect x="680.85" y="278.71" width="6" height="21.25" rx="1.5" fill="#0ecb81" /><line x1="694.58" y1="267.26" x2="694.58" y2="299.96" stroke="#f6465d" stroke-width="1.4" /><rect x="691.58" y="278.71" width="6" height="13.08" rx="1.5" fill="#f6465d" /><line x1="705.32" y1="277.07" x2="705.32" y2="308.13" stroke="#0ecb81" stroke-width="1.4" /><rect x="702.32" y="278.71" width="6" height="14.71" rx="1.5" fill="#0ecb81" /><line x1="716.05" y1="278.71" x2="716.05" y2="326.12" stroke="#f6465d" stroke-width="1.4" /><rect x="713.05" y="278.71" width="6" height="22.89" rx="1.5" fill="#f6465d" /><line x1="726.78" y1="291.78" x2="726.78" y2="347.37" stroke="#f6465d" stroke-width="1.4" /><rect x="723.78" y="303.23" width="6" height="27.79" rx="1.5" fill="#f6465d" /><line x1="737.52" y1="326.12" x2="737.52" y2="357.18" stroke="#f6465d" stroke-width="1.4" /><rect x="734.52" y="331.02" width="6" height="8.17" rx="1.5" fill="#f6465d" /><line x1="748.25" y1="317.94" x2="748.25" y2="357.18" stroke="#0ecb81" stroke-width="1.4" /><rect x="745.25" y="329.39" width="6" height="13.08" rx="1.5" fill="#0ecb81" /><line x1="758.99" y1="242.74" x2="758.99" y2="331.02" stroke="#0ecb81" stroke-width="1.4" /><rect x="755.99" y="267.26" width="6" height="63.76" rx="1.5" fill="#0ecb81" /><line x1="769.72" y1="260.72" x2="769.72" y2="304.86" stroke="#f6465d" stroke-width="1.4" /><rect x="766.72" y="265.63" width="6" height="27.79" rx="1.5" fill="#f6465d" /><line x1="780.46" y1="290.15" x2="780.46" y2="327.75" stroke="#f6465d" stroke-width="1.4" /><rect x="777.46" y="293.42" width="6" height="34.33" rx="1.5" fill="#f6465d" /><line x1="791.19" y1="326.12" x2="791.19" y2="366.99" stroke="#f6465d" stroke-width="1.4" /><rect x="788.19" y="326.12" width="6" height="22.89" rx="1.5" fill="#f6465d" /><line x1="801.92" y1="295.05" x2="801.92" y2="349.00" stroke="#0ecb81" stroke-width="1.4" /><rect x="798.92" y="314.67" width="6" height="34.33" rx="1.5" fill="#0ecb81" /><line x1="812.66" y1="306.50" x2="812.66" y2="331.02" stroke="#0ecb81" stroke-width="1.4" /><rect x="809.66" y="308.13" width="6" height="6.54" rx="1.5" fill="#0ecb81" /><line x1="823.39" y1="210.04" x2="823.39" y2="306.50" stroke="#0ecb81" stroke-width="1.4" /><rect x="820.39" y="260.72" width="6" height="45.78" rx="1.5" fill="#0ecb81" /><line x1="834.13" y1="259.09" x2="834.13" y2="308.13" stroke="#f6465d" stroke-width="1.4" /><rect x="831.13" y="259.09" width="6" height="21.25" rx="1.5" fill="#f6465d" /><line x1="844.86" y1="239.47" x2="844.86" y2="293.42" stroke="#f6465d" stroke-width="1.4" /><rect x="841.86" y="281.98" width="6" height="2.00" rx="1.5" fill="#f6465d" /><line x1="855.59" y1="267.26" x2="855.59" y2="339.20" stroke="#f6465d" stroke-width="1.4" /><rect x="852.59" y="283.61" width="6" height="39.24" rx="1.5" fill="#f6465d" /><line x1="866.33" y1="288.51" x2="866.33" y2="340.83" stroke="#0ecb81" stroke-width="1.4" /><rect x="863.33" y="301.59" width="6" height="21.25" rx="1.5" fill="#0ecb81" /><line x1="877.06" y1="303.23" x2="877.06" y2="350.64" stroke="#f6465d" stroke-width="1.4" /><rect x="874.06" y="303.23" width="6" height="27.79" rx="1.5" fill="#f6465d" /><line x1="887.80" y1="331.02" x2="887.80" y2="412.76" stroke="#f6465d" stroke-width="1.4" /><rect x="884.80" y="332.66" width="6" height="71.93" rx="1.5" fill="#f6465d" /><line x1="898.53" y1="388.24" x2="898.53" y2="452.00" stroke="#0ecb81" stroke-width="1.4" /><rect x="895.53" y="401.32" width="6" height="3.27" rx="1.5" fill="#0ecb81" /><line x1="909.27" y1="365.35" x2="909.27" y2="427.48" stroke="#0ecb81" stroke-width="1.4" /><rect x="906.27" y="388.24" width="6" height="13.08" rx="1.5" fill="#0ecb81" /><line x1="920.00" y1="384.97" x2="920.00" y2="394.78" stroke="#f6465d" stroke-width="1.4" /><rect x="917.00" y="389.88" width="6" height="2.00" rx="1.5" fill="#f6465d" />
  <polyline points="265.22,309.77 286.68,167.54 361.82,268.90 372.56,193.69 415.49,402.95" fill="none" stroke="#2fc273" stroke-width="4" stroke-linecap="round" stroke-linejoin="round" />
  <circle cx="265.22" cy="309.77" r="5.5" fill="#2fc273" fill-opacity="0.15" stroke="#2fc273" stroke-width="2" /><text x="265.22" y="297.77" fill="#f3f4f6" font-size="15" font-weight="700" text-anchor="middle">X</text><circle cx="286.68" cy="167.54" r="5.5" fill="#2fc273" fill-opacity="0.15" stroke="#2fc273" stroke-width="2" /><text x="286.68" y="155.54" fill="#f3f4f6" font-size="15" font-weight="700" text-anchor="middle">A</text><circle cx="361.82" cy="268.90" r="5.5" fill="#2fc273" fill-opacity="0.15" stroke="#2fc273" stroke-width="2" /><text x="361.82" y="256.90" fill="#f3f4f6" font-size="15" font-weight="700" text-anchor="middle">B</text><circle cx="372.56" cy="193.69" r="5.5" fill="#2fc273" fill-opacity="0.15" stroke="#2fc273" stroke-width="2" /><text x="372.56" y="181.69" fill="#f3f4f6" font-size="15" font-weight="700" text-anchor="middle">C</text><circle cx="415.49" cy="402.95" r="5.5" fill="#2fc273" fill-opacity="0.15" stroke="#2fc273" stroke-width="2" /><text x="415.49" y="390.95" fill="#f3f4f6" font-size="15" font-weight="700" text-anchor="middle">D</text>
  <text x="56" y="492" fill="#8ba0b5" font-size="18">일반 완성 · TP1 7.0239 · TP2 7.0541 · SL 6.9637</text>
</svg>
