<svg xmlns="http://www.w3.org/2000/svg" width="960" height="540" viewBox="0 0 960 540">
  <rect width="960" height="540" rx="24" fill="#0b1220" />
  <rect x="28" y="28" width="904" height="484" rx="22" fill="#111827" stroke="#1f2937" />
  <text x="56" y="74" fill="#f3f4f6" font-size="34" font-weight="700">WLDUSDT · AB=CD</text>
  <text x="904" y="74" fill="#8ba0b5" font-size="20" text-anchor="end">Bullish (매수) · Score 91.3</text>
  <line x1="72" y1="58" x2="920" y2="58" stroke="#223045" stroke-width="1" stroke-dasharray="4 8" /><line x1="72" y1="156" x2="920" y2="156" stroke="#223045" stroke-width="1" stroke-dasharray="4 8" /><line x1="72" y1="255" x2="920" y2="255" stroke="#223045" stroke-width="1" stroke-dasharray="4 8" /><line x1="72" y1="353" x2="920" y2="353" stroke="#223045" stroke-width="1" stroke-dasharray="4 8" /><line x1="72" y1="452" x2="920" y2="452" stroke="#223045" stroke-width="1" stroke-dasharray="4 8" />
  <rect x="698.78" y="471.70" width="84" height="45.38" fill="#fbbf24" fill-opacity="0.12" stroke="#fbbf24" stroke-width="1.5" stroke-dasharray="6 6" />
  <line x1="72.00" y1="58.00" x2="72.00" y2="132.81" stroke="#f6465d" stroke-width="1.4" /><rect x="69.00" y="60.49" width="6" height="49.87" rx="1.5" fill="#f6465d" /><line x1="82.73" y1="95.41" x2="82.73" y2="135.30" stroke="#0ecb81" stroke-width="1.4" /><rect x="79.73" y="100.39" width="6" height="12.47" rx="1.5" fill="#0ecb81" /><line x1="93.47" y1="90.42" x2="93.47" y2="105.38" stroke="#0ecb81" stroke-width="1.4" /><rect x="90.47" y="97.90" width="6" height="2.49" rx="1.5" fill="#0ecb81" /><line x1="104.20" y1="80.44" x2="104.20" y2="100.39" stroke="#0ecb81" stroke-width="1.4" /><rect x="101.20" y="87.92" width="6" height="12.47" rx="1.5" fill="#0ecb81" /><line x1="114.94" y1="80.44" x2="114.94" y2="100.39" stroke="#f6465d" stroke-width="1.4" /><rect x="111.94" y="90.42" width="6" height="4.99" rx="1.5" fill="#f6465d" /><line x1="125.67" y1="77.95" x2="125.67" y2="97.90" stroke="#0ecb81" stroke-width="1.4" /><rect x="122.67" y="77.95" width="6" height="17.46" rx="1.5" fill="#0ecb81" /><line x1="136.41" y1="62.99" x2="136.41" y2="80.44" stroke="#0ecb81" stroke-width="1.4" /><rect x="133.41" y="72.96" width="6" height="4.99" rx="1.5" fill="#0ecb81" /><line x1="147.14" y1="58.00" x2="147.14" y2="87.92" stroke="#f6465d" stroke-width="1.4" /><rect x="144.14" y="70.47" width="6" height="12.47" rx="1.5" fill="#f6465d" /><line x1="157.87" y1="67.97" x2="157.87" y2="90.42" stroke="#0ecb81" stroke-width="1.4" /><rect x="154.87" y="70.47" width="6" height="14.96" rx="1.5" fill="#0ecb81" /><line x1="168.61" y1="65.48" x2="168.61" y2="92.91" stroke="#f6465d" stroke-width="1.4" /><rect x="165.61" y="70.47" width="6" height="14.96" rx="1.5" fill="#f6465d" /><line x1="179.34" y1="82.94" x2="179.34" y2="105.38" stroke="#f6465d" stroke-width="1.4" /><rect x="176.34" y="87.92" width="6" height="9.97" rx="1.5" fill="#f6465d" /><line x1="190.08" y1="95.41" x2="190.08" y2="130.32" stroke="#f6465d" stroke-width="1.4" /><rect x="187.08" y="97.90" width="6" height="27.43" rx="1.5" fill="#f6465d" /><line x1="200.81" y1="120.34" x2="200.81" y2="152.76" stroke="#f6465d" stroke-width="1.4" /><rect x="197.81" y="122.84" width="6" height="27.43" rx="1.5" fill="#f6465d" /><line x1="211.54" y1="147.77" x2="211.54" y2="205.13" stroke="#f6465d" stroke-width="1.4" /><rect x="208.54" y="152.76" width="6" height="39.90" rx="1.5" fill="#f6465d" /><line x1="222.28" y1="155.25" x2="222.28" y2="192.66" stroke="#0ecb81" stroke-width="1.4" /><rect x="219.28" y="167.72" width="6" height="24.94" rx="1.5" fill="#0ecb81" /><line x1="233.01" y1="162.73" x2="233.01" y2="172.71" stroke="#f6465d" stroke-width="1.4" /><rect x="230.01" y="167.72" width="6" height="4.99" rx="1.5" fill="#f6465d" /><line x1="243.75" y1="167.72" x2="243.75" y2="202.63" stroke="#f6465d" stroke-width="1.4" /><rect x="240.75" y="175.20" width="6" height="24.94" rx="1.5" fill="#f6465d" /><line x1="254.48" y1="182.68" x2="254.48" y2="210.11" stroke="#0ecb81" stroke-width="1.4" /><rect x="251.48" y="200.14" width="6" height="2.00" rx="1.5" fill="#0ecb81" /><line x1="265.22" y1="180.19" x2="265.22" y2="202.63" stroke="#0ecb81" stroke-width="1.4" /><rect x="262.22" y="190.16" width="6" height="9.97" rx="1.5" fill="#0ecb81" /><line x1="275.95" y1="187.67" x2="275.95" y2="202.63" stroke="#f6465d" stroke-width="1.4" /><rect x="272.95" y="192.66" width="6" height="2.49" rx="1.5" fill="#f6465d" /><line x1="286.68" y1="192.66" x2="286.68" y2="250.01" stroke="#f6465d" stroke-width="1.4" /><rect x="283.68" y="192.66" width="6" height="44.89" rx="1.5" fill="#f6465d" /><line x1="297.42" y1="220.09" x2="297.42" y2="245.03" stroke="#0ecb81" stroke-width="1.4" /><rect x="294.42" y="227.57" width="6" height="9.97" rx="1.5" fill="#0ecb81" /><line x1="308.15" y1="207.62" x2="308.15" y2="242.53" stroke="#0ecb81" stroke-width="1.4" /><rect x="305.15" y="212.61" width="6" height="14.96" rx="1.5" fill="#0ecb81" /><line x1="318.89" y1="202.63" x2="318.89" y2="220.09" stroke="#f6465d" stroke-width="1.4" /><rect x="315.89" y="210.11" width="6" height="9.97" rx="1.5" fill="#f6465d" /><line x1="329.62" y1="207.62" x2="329.62" y2="227.57" stroke="#f6465d" stroke-width="1.4" /><rect x="326.62" y="220.09" width="6" height="4.99" rx="1.5" fill="#f6465d" /><line x1="340.35" y1="200.14" x2="340.35" y2="222.58" stroke="#0ecb81" stroke-width="1.4" /><rect x="337.35" y="202.63" width="6" height="19.95" rx="1.5" fill="#0ecb81" /><line x1="351.09" y1="190.16" x2="351.09" y2="212.61" stroke="#0ecb81" stroke-width="1.4" /><rect x="348.09" y="195.15" width="6" height="9.97" rx="1.5" fill="#0ecb81" /><line x1="361.82" y1="192.66" x2="361.82" y2="207.62" stroke="#f6465d" stroke-width="1.4" /><rect x="358.82" y="192.66" width="6" height="4.99" rx="1.5" fill="#f6465d" /><line x1="372.56" y1="195.15" x2="372.56" y2="217.59" stroke="#f6465d" stroke-width="1.4" /><rect x="369.56" y="195.15" width="6" height="14.96" rx="1.5" fill="#f6465d" /><line x1="383.29" y1="200.14" x2="383.29" y2="215.10" stroke="#0ecb81" stroke-width="1.4" /><rect x="380.29" y="205.13" width="6" height="7.48" rx="1.5" fill="#0ecb81" /><line x1="394.03" y1="197.65" x2="394.03" y2="220.09" stroke="#0ecb81" stroke-width="1.4" /><rect x="391.03" y="207.62" width="6" height="2.00" rx="1.5" fill="#0ecb81" /><line x1="404.76" y1="200.14" x2="404.76" y2="225.08" stroke="#0ecb81" stroke-width="1.4" /><rect x="401.76" y="200.14" width="6" height="9.97" rx="1.5" fill="#0ecb81" /><line x1="415.49" y1="180.19" x2="415.49" y2="202.63" stroke="#0ecb81" stroke-width="1.4" /><rect x="412.49" y="182.68" width="6" height="17.46" rx="1.5" fill="#0ecb81" /><line x1="426.23" y1="175.20" x2="426.23" y2="200.14" stroke="#f6465d" stroke-width="1.4" /><rect x="423.23" y="182.68" width="6" height="14.96" rx="1.5" fill="#f6465d" /><line x1="436.96" y1="175.20" x2="436.96" y2="197.65" stroke="#0ecb81" stroke-width="1.4" /><rect x="433.96" y="195.15" width="6" height="2.00" rx="1.5" fill="#0ecb81" /><line x1="447.70" y1="172.71" x2="447.70" y2="202.63" stroke="#0ecb81" stroke-width="1.4" /><rect x="444.70" y="175.20" width="6" height="19.95" rx="1.5" fill="#0ecb81" /><line x1="458.43" y1="157.75" x2="458.43" y2="187.67" stroke="#0ecb81" stroke-width="1.4" /><rect x="455.43" y="160.24" width="6" height="14.96" rx="1.5" fill="#0ecb81" /><line x1="469.16" y1="150.27" x2="469.16" y2="162.73" stroke="#0ecb81" stroke-width="1.4" /><rect x="466.16" y="152.76" width="6" height="7.48" rx="1.5" fill="#0ecb81" /><line x1="479.90" y1="142.78" x2="479.90" y2="162.73" stroke="#0ecb81" stroke-width="1.4" /><rect x="476.90" y="142.78" width="6" height="12.47" rx="1.5" fill="#0ecb81" /><line x1="490.63" y1="142.78" x2="490.63" y2="167.72" stroke="#f6465d" stroke-width="1.4" /><rect x="487.63" y="142.78" width="6" height="14.96" rx="1.5" fill="#f6465d" /><line x1="501.37" y1="157.75" x2="501.37" y2="190.16" stroke="#f6465d" stroke-width="1.4" /><rect x="498.37" y="160.24" width="6" height="24.94" rx="1.5" fill="#f6465d" /><line x1="512.10" y1="172.71" x2="512.10" y2="185.18" stroke="#0ecb81" stroke-width="1.4" /><rect x="509.10" y="182.68" width="6" height="2.49" rx="1.5" fill="#0ecb81" /><line x1="522.84" y1="182.68" x2="522.84" y2="227.57" stroke="#f6465d" stroke-width="1.4" /><rect x="519.84" y="182.68" width="6" height="37.41" rx="1.5" fill="#f6465d" /><line x1="533.57" y1="212.61" x2="533.57" y2="267.47" stroke="#f6465d" stroke-width="1.4" /><rect x="530.57" y="220.09" width="6" height="32.42" rx="1.5" fill="#f6465d" /><line x1="544.30" y1="227.57" x2="544.30" y2="252.51" stroke="#0ecb81" stroke-width="1.4" /><rect x="541.30" y="232.56" width="6" height="19.95" rx="1.5" fill="#0ecb81" /><line x1="555.04" y1="227.57" x2="555.04" y2="255.00" stroke="#f6465d" stroke-width="1.4" /><rect x="552.04" y="232.56" width="6" height="19.95" rx="1.5" fill="#f6465d" /><line x1="565.77" y1="242.53" x2="565.77" y2="277.44" stroke="#f6465d" stroke-width="1.4" /><rect x="562.77" y="250.01" width="6" height="27.43" rx="1.5" fill="#f6465d" /><line x1="576.51" y1="269.96" x2="576.51" y2="382.18" stroke="#f6465d" stroke-width="1.4" /><rect x="573.51" y="274.95" width="6" height="52.37" rx="1.5" fill="#f6465d" /><line x1="587.24" y1="307.37" x2="587.24" y2="347.27" stroke="#0ecb81" stroke-width="1.4" /><rect x="584.24" y="327.32" width="6" height="2.49" rx="1.5" fill="#0ecb81" /><line x1="597.97" y1="289.91" x2="597.97" y2="337.29" stroke="#0ecb81" stroke-width="1.4" /><rect x="594.97" y="292.41" width="6" height="34.91" rx="1.5" fill="#0ecb81" /><line x1="608.71" y1="272.46" x2="608.71" y2="304.87" stroke="#0ecb81" stroke-width="1.4" /><rect x="605.71" y="282.43" width="6" height="12.47" rx="1.5" fill="#0ecb81" /><line x1="619.44" y1="277.44" x2="619.44" y2="309.86" stroke="#f6465d" stroke-width="1.4" /><rect x="616.44" y="282.43" width="6" height="17.46" rx="1.5" fill="#f6465d" /><line x1="630.18" y1="269.96" x2="630.18" y2="317.34" stroke="#0ecb81" stroke-width="1.4" /><rect x="627.18" y="272.46" width="6" height="27.43" rx="1.5" fill="#0ecb81" /><line x1="640.91" y1="264.97" x2="640.91" y2="317.34" stroke="#f6465d" stroke-width="1.4" /><rect x="637.91" y="272.46" width="6" height="32.42" rx="1.5" fill="#f6465d" /><line x1="651.65" y1="274.95" x2="651.65" y2="347.27" stroke="#0ecb81" stroke-width="1.4" /><rect x="648.65" y="277.44" width="6" height="27.43" rx="1.5" fill="#0ecb81" /><line x1="662.38" y1="267.47" x2="662.38" y2="292.41" stroke="#f6465d" stroke-width="1.4" /><rect x="659.38" y="277.44" width="6" height="4.99" rx="1.5" fill="#f6465d" /><line x1="673.11" y1="282.43" x2="673.11" y2="347.27" stroke="#f6465d" stroke-width="1.4" /><rect x="670.11" y="284.92" width="6" height="59.85" rx="1.5" fill="#f6465d" /><line x1="683.85" y1="312.35" x2="683.85" y2="357.24" stroke="#0ecb81" stroke-width="1.4" /><rect x="680.85" y="314.85" width="6" height="27.43" rx="1.5" fill="#0ecb81" /><line x1="694.58" y1="294.90" x2="694.58" y2="367.22" stroke="#f6465d" stroke-width="1.4" /><rect x="691.58" y="314.85" width="6" height="44.89" rx="1.5" fill="#f6465d" /><line x1="705.32" y1="314.85" x2="705.32" y2="359.73" stroke="#0ecb81" stroke-width="1.4" /><rect x="702.32" y="319.84" width="6" height="37.41" rx="1.5" fill="#0ecb81" /><line x1="716.05" y1="307.37" x2="716.05" y2="359.73" stroke="#f6465d" stroke-width="1.4" /><rect x="713.05" y="319.84" width="6" height="39.90" rx="1.5" fill="#f6465d" /><line x1="726.78" y1="352.25" x2="726.78" y2="452.00" stroke="#f6465d" stroke-width="1.4" /><rect x="723.78" y="359.73" width="6" height="29.92" rx="1.5" fill="#f6465d" /><line x1="737.52" y1="364.72" x2="737.52" y2="419.58" stroke="#0ecb81" stroke-width="1.4" /><rect x="734.52" y="372.20" width="6" height="17.46" rx="1.5" fill="#0ecb81" /><line x1="748.25" y1="332.30" x2="748.25" y2="392.15" stroke="#0ecb81" stroke-width="1.4" /><rect x="745.25" y="339.78" width="6" height="34.91" rx="1.5" fill="#0ecb81" /><line x1="758.99" y1="334.80" x2="758.99" y2="362.23" stroke="#f6465d" stroke-width="1.4" /><rect x="755.99" y="337.29" width="6" height="14.96" rx="1.5" fill="#f6465d" /><line x1="769.72" y1="332.30" x2="769.72" y2="354.75" stroke="#f6465d" stroke-width="1.4" /><rect x="766.72" y="349.76" width="6" height="4.99" rx="1.5" fill="#f6465d" /><line x1="780.46" y1="342.28" x2="780.46" y2="374.70" stroke="#f6465d" stroke-width="1.4" /><rect x="777.46" y="352.25" width="6" height="14.96" rx="1.5" fill="#f6465d" /><line x1="791.19" y1="359.73" x2="791.19" y2="399.63" stroke="#0ecb81" stroke-width="1.4" /><rect x="788.19" y="364.72" width="6" height="4.99" rx="1.5" fill="#0ecb81" /><line x1="801.92" y1="142.78" x2="801.92" y2="367.22" stroke="#0ecb81" stroke-width="1.4" /><rect x="798.92" y="272.46" width="6" height="94.76" rx="1.5" fill="#0ecb81" /><line x1="812.66" y1="180.19" x2="812.66" y2="294.90" stroke="#0ecb81" stroke-width="1.4" /><rect x="809.66" y="200.14" width="6" height="69.82" rx="1.5" fill="#0ecb81" /><line x1="823.39" y1="177.70" x2="823.39" y2="245.03" stroke="#f6465d" stroke-width="1.4" /><rect x="820.39" y="200.14" width="6" height="42.39" rx="1.5" fill="#f6465d" /><line x1="834.13" y1="227.57" x2="834.13" y2="269.96" stroke="#f6465d" stroke-width="1.4" /><rect x="831.13" y="240.04" width="6" height="14.96" rx="1.5" fill="#f6465d" /><line x1="844.86" y1="187.67" x2="844.86" y2="262.48" stroke="#0ecb81" stroke-width="1.4" /><rect x="841.86" y="187.67" width="6" height="69.82" rx="1.5" fill="#0ecb81" /><line x1="855.59" y1="160.24" x2="855.59" y2="220.09" stroke="#f6465d" stroke-width="1.4" /><rect x="852.59" y="190.16" width="6" height="12.47" rx="1.5" fill="#f6465d" /><line x1="866.33" y1="162.73" x2="866.33" y2="210.11" stroke="#0ecb81" stroke-width="1.4" /><rect x="863.33" y="172.71" width="6" height="32.42" rx="1.5" fill="#0ecb81" /><line x1="877.06" y1="147.77" x2="877.06" y2="195.15" stroke="#0ecb81" stroke-width="1.4" /><rect x="874.06" y="175.20" width="6" height="2.00" rx="1.5" fill="#0ecb81" /><line x1="887.80" y1="152.76" x2="887.80" y2="187.67" stroke="#0ecb81" stroke-width="1.4" /><rect x="884.80" y="162.73" width="6" height="14.96" rx="1.5" fill="#0ecb81" /><line x1="898.53" y1="150.27" x2="898.53" y2="167.72" stroke="#0ecb81" stroke-width="1.4" /><rect x="895.53" y="152.76" width="6" height="9.97" rx="1.5" fill="#0ecb81" /><line x1="909.27" y1="120.34" x2="909.27" y2="180.19" stroke="#f6465d" stroke-width="1.4" /><rect x="906.27" y="150.27" width="6" height="12.47" rx="1.5" fill="#f6465d" /><line x1="920.00" y1="152.76" x2="920.00" y2="170.22" stroke="#0ecb81" stroke-width="1.4" /><rect x="917.00" y="155.25" width="6" height="9.97" rx="1.5" fill="#0ecb81" />
  <polyline points="404.76,225.08 490.63,142.78 576.51,382.18 640.91,264.97 726.78,452.00" fill="none" stroke="#2fc273" stroke-width="4" stroke-linecap="round" stroke-linejoin="round" />
  <circle cx="404.76" cy="225.08" r="5.5" fill="#2fc273" fill-opacity="0.15" stroke="#2fc273" stroke-width="2" /><text x="404.76" y="213.08" fill="#f3f4f6" font-size="15" font-weight="700" text-anchor="middle">X</text><circle cx="490.63" cy="142.78" r="5.5" fill="#2fc273" fill-opacity="0.15" stroke="#2fc273" stroke-width="2" /><text x="490.63" y="130.78" fill="#f3f4f6" font-size="15" font-weight="700" text-anchor="middle">A</text><circle cx="576.51" cy="382.18" r="5.5" fill="#2fc273" fill-opacity="0.15" stroke="#2fc273" stroke-width="2" /><text x="576.51" y="370.18" fill="#f3f4f6" font-size="15" font-weight="700" text-anchor="middle">B</text><circle cx="640.91" cy="264.97" r="5.5" fill="#2fc273" fill-opacity="0.15" stroke="#2fc273" stroke-width="2" /><text x="640.91" y="252.97" fill="#f3f4f6" font-size="15" font-weight="700" text-anchor="middle">C</text><circle cx="726.78" cy="452.00" r="5.5" fill="#2fc273" fill-opacity="0.15" stroke="#2fc273" stroke-width="2" /><text x="726.78" y="440.00" fill="#f3f4f6" font-size="15" font-weight="700" text-anchor="middle">D</text>
  <text x="56" y="492" fill="#8ba0b5" font-size="18">Complete · TP1 0.36827 · TP2 0.37004 · SL 0.36497</text>
</svg>
