<svg xmlns="http://www.w3.org/2000/svg" width="960" height="540" viewBox="0 0 960 540">
  <rect width="960" height="540" rx="24" fill="#0b1220" />
  <rect x="28" y="28" width="904" height="484" rx="22" fill="#111827" stroke="#1f2937" />
  <text x="56" y="74" fill="#f3f4f6" font-size="34" font-weight="700">XLMUSDT · AB=CD</text>
  <text x="904" y="74" fill="#8ba0b5" font-size="20" text-anchor="end">Bullish (매수) · Score 86.8</text>
  <line x1="72" y1="58" x2="920" y2="58" stroke="#223045" stroke-width="1" stroke-dasharray="4 8" /><line x1="72" y1="156" x2="920" y2="156" stroke="#223045" stroke-width="1" stroke-dasharray="4 8" /><line x1="72" y1="255" x2="920" y2="255" stroke="#223045" stroke-width="1" stroke-dasharray="4 8" /><line x1="72" y1="353" x2="920" y2="353" stroke="#223045" stroke-width="1" stroke-dasharray="4 8" /><line x1="72" y1="452" x2="920" y2="452" stroke="#223045" stroke-width="1" stroke-dasharray="4 8" />
  <rect x="473.37" y="445.25" width="84" height="84.33" fill="#fbbf24" fill-opacity="0.12" stroke="#fbbf24" stroke-width="1.5" stroke-dasharray="6 6" />
  <line x1="72.00" y1="411.52" x2="72.00" y2="452.00" stroke="#0ecb81" stroke-width="1.4" /><rect x="69.00" y="414.89" width="6" height="15.52" rx="1.5" fill="#0ecb81" /><line x1="82.73" y1="358.22" x2="82.73" y2="418.94" stroke="#0ecb81" stroke-width="1.4" /><rect x="79.73" y="361.60" width="6" height="53.30" rx="1.5" fill="#0ecb81" /><line x1="93.47" y1="318.42" x2="93.47" y2="390.61" stroke="#0ecb81" stroke-width="1.4" /><rect x="90.47" y="329.21" width="6" height="32.38" rx="1.5" fill="#0ecb81" /><line x1="104.20" y1="325.16" x2="104.20" y2="376.44" stroke="#f6465d" stroke-width="1.4" /><rect x="101.20" y="328.54" width="6" height="41.15" rx="1.5" fill="#f6465d" /><line x1="114.94" y1="342.71" x2="114.94" y2="381.84" stroke="#0ecb81" stroke-width="1.4" /><rect x="111.94" y="350.80" width="6" height="19.57" rx="1.5" fill="#0ecb81" /><line x1="125.67" y1="335.28" x2="125.67" y2="370.37" stroke="#0ecb81" stroke-width="1.4" /><rect x="122.67" y="344.73" width="6" height="6.07" rx="1.5" fill="#0ecb81" /><line x1="136.41" y1="322.47" x2="136.41" y2="358.90" stroke="#f6465d" stroke-width="1.4" /><rect x="133.41" y="345.40" width="6" height="2.02" rx="1.5" fill="#f6465d" /><line x1="147.14" y1="335.28" x2="147.14" y2="369.02" stroke="#0ecb81" stroke-width="1.4" /><rect x="144.14" y="335.96" width="6" height="12.14" rx="1.5" fill="#0ecb81" /><line x1="157.87" y1="264.45" x2="157.87" y2="342.71" stroke="#0ecb81" stroke-width="1.4" /><rect x="154.87" y="267.82" width="6" height="68.82" rx="1.5" fill="#0ecb81" /><line x1="168.61" y1="265.79" x2="168.61" y2="317.74" stroke="#f6465d" stroke-width="1.4" /><rect x="165.61" y="266.47" width="6" height="28.34" rx="1.5" fill="#f6465d" /><line x1="179.34" y1="281.31" x2="179.34" y2="303.58" stroke="#0ecb81" stroke-width="1.4" /><rect x="176.34" y="284.68" width="6" height="10.12" rx="1.5" fill="#0ecb81" /><line x1="190.08" y1="250.28" x2="190.08" y2="294.80" stroke="#0ecb81" stroke-width="1.4" /><rect x="187.08" y="268.49" width="6" height="16.19" rx="1.5" fill="#0ecb81" /><line x1="200.81" y1="246.90" x2="200.81" y2="298.85" stroke="#f6465d" stroke-width="1.4" /><rect x="197.81" y="269.17" width="6" height="25.64" rx="1.5" fill="#f6465d" /><line x1="211.54" y1="263.10" x2="211.54" y2="325.16" stroke="#f6465d" stroke-width="1.4" /><rect x="208.54" y="295.48" width="6" height="27.66" rx="1.5" fill="#f6465d" /><line x1="222.28" y1="304.92" x2="222.28" y2="344.05" stroke="#f6465d" stroke-width="1.4" /><rect x="219.28" y="323.14" width="6" height="12.82" rx="1.5" fill="#f6465d" /><line x1="233.01" y1="335.28" x2="233.01" y2="371.04" stroke="#f6465d" stroke-width="1.4" /><rect x="230.01" y="335.96" width="6" height="3.37" rx="1.5" fill="#f6465d" /><line x1="243.75" y1="315.04" x2="243.75" y2="340.68" stroke="#0ecb81" stroke-width="1.4" /><rect x="240.75" y="330.56" width="6" height="8.77" rx="1.5" fill="#0ecb81" /><line x1="254.48" y1="309.65" x2="254.48" y2="339.33" stroke="#f6465d" stroke-width="1.4" /><rect x="251.48" y="330.56" width="6" height="4.72" rx="1.5" fill="#f6465d" /><line x1="265.22" y1="333.26" x2="265.22" y2="394.65" stroke="#f6465d" stroke-width="1.4" /><rect x="262.22" y="335.28" width="6" height="45.88" rx="1.5" fill="#f6465d" /><line x1="275.95" y1="377.79" x2="275.95" y2="412.87" stroke="#f6465d" stroke-width="1.4" /><rect x="272.95" y="381.16" width="6" height="16.19" rx="1.5" fill="#f6465d" /><line x1="286.68" y1="367.67" x2="286.68" y2="397.35" stroke="#0ecb81" stroke-width="1.4" /><rect x="283.68" y="375.76" width="6" height="21.59" rx="1.5" fill="#0ecb81" /><line x1="297.42" y1="348.10" x2="297.42" y2="375.09" stroke="#0ecb81" stroke-width="1.4" /><rect x="294.42" y="355.52" width="6" height="19.57" rx="1.5" fill="#0ecb81" /><line x1="308.15" y1="321.12" x2="308.15" y2="376.44" stroke="#0ecb81" stroke-width="1.4" /><rect x="305.15" y="321.12" width="6" height="34.41" rx="1.5" fill="#0ecb81" /><line x1="318.89" y1="297.50" x2="318.89" y2="326.51" stroke="#0ecb81" stroke-width="1.4" /><rect x="315.89" y="305.60" width="6" height="15.52" rx="1.5" fill="#0ecb81" /><line x1="329.62" y1="306.27" x2="329.62" y2="333.26" stroke="#f6465d" stroke-width="1.4" /><rect x="326.62" y="306.27" width="6" height="8.10" rx="1.5" fill="#f6465d" /><line x1="340.35" y1="312.35" x2="340.35" y2="353.50" stroke="#f6465d" stroke-width="1.4" /><rect x="337.35" y="314.37" width="6" height="22.94" rx="1.5" fill="#f6465d" /><line x1="351.09" y1="313.02" x2="351.09" y2="346.08" stroke="#f6465d" stroke-width="1.4" /><rect x="348.09" y="337.31" width="6" height="2.70" rx="1.5" fill="#f6465d" /><line x1="361.82" y1="308.30" x2="361.82" y2="343.38" stroke="#0ecb81" stroke-width="1.4" /><rect x="358.82" y="331.24" width="6" height="8.10" rx="1.5" fill="#0ecb81" /><line x1="372.56" y1="309.65" x2="372.56" y2="333.26" stroke="#0ecb81" stroke-width="1.4" /><rect x="369.56" y="327.19" width="6" height="3.37" rx="1.5" fill="#0ecb81" /><line x1="383.29" y1="317.07" x2="383.29" y2="338.66" stroke="#f6465d" stroke-width="1.4" /><rect x="380.29" y="327.19" width="6" height="2.00" rx="1.5" fill="#f6465d" /><line x1="394.03" y1="303.58" x2="394.03" y2="334.61" stroke="#0ecb81" stroke-width="1.4" /><rect x="391.03" y="306.95" width="6" height="20.91" rx="1.5" fill="#0ecb81" /><line x1="404.76" y1="279.29" x2="404.76" y2="317.07" stroke="#0ecb81" stroke-width="1.4" /><rect x="401.76" y="299.53" width="6" height="7.42" rx="1.5" fill="#0ecb81" /><line x1="415.49" y1="288.73" x2="415.49" y2="313.70" stroke="#f6465d" stroke-width="1.4" /><rect x="412.49" y="298.85" width="6" height="7.42" rx="1.5" fill="#f6465d" /><line x1="426.23" y1="306.27" x2="426.23" y2="359.57" stroke="#f6465d" stroke-width="1.4" /><rect x="423.23" y="306.27" width="6" height="19.57" rx="1.5" fill="#f6465d" /><line x1="436.96" y1="323.14" x2="436.96" y2="348.78" stroke="#f6465d" stroke-width="1.4" /><rect x="433.96" y="325.84" width="6" height="10.79" rx="1.5" fill="#f6465d" /><line x1="447.70" y1="325.16" x2="447.70" y2="348.78" stroke="#f6465d" stroke-width="1.4" /><rect x="444.70" y="335.96" width="6" height="6.75" rx="1.5" fill="#f6465d" /><line x1="458.43" y1="342.71" x2="458.43" y2="396.00" stroke="#f6465d" stroke-width="1.4" /><rect x="455.43" y="342.71" width="6" height="45.20" rx="1.5" fill="#f6465d" /><line x1="469.16" y1="366.99" x2="469.16" y2="391.28" stroke="#0ecb81" stroke-width="1.4" /><rect x="466.16" y="377.79" width="6" height="10.12" rx="1.5" fill="#0ecb81" /><line x1="479.90" y1="363.62" x2="479.90" y2="383.86" stroke="#0ecb81" stroke-width="1.4" /><rect x="476.90" y="377.11" width="6" height="2.00" rx="1.5" fill="#0ecb81" /><line x1="490.63" y1="362.27" x2="490.63" y2="391.96" stroke="#f6465d" stroke-width="1.4" /><rect x="487.63" y="377.79" width="6" height="14.17" rx="1.5" fill="#f6465d" /><line x1="501.37" y1="369.02" x2="501.37" y2="402.75" stroke="#0ecb81" stroke-width="1.4" /><rect x="498.37" y="375.76" width="6" height="16.19" rx="1.5" fill="#0ecb81" /><line x1="512.10" y1="348.78" x2="512.10" y2="385.88" stroke="#0ecb81" stroke-width="1.4" /><rect x="509.10" y="360.25" width="6" height="15.52" rx="1.5" fill="#0ecb81" /><line x1="522.84" y1="345.40" x2="522.84" y2="367.67" stroke="#f6465d" stroke-width="1.4" /><rect x="519.84" y="359.57" width="6" height="7.42" rx="1.5" fill="#f6465d" /><line x1="533.57" y1="360.25" x2="533.57" y2="379.14" stroke="#f6465d" stroke-width="1.4" /><rect x="530.57" y="367.67" width="6" height="8.77" rx="1.5" fill="#f6465d" /><line x1="544.30" y1="354.17" x2="544.30" y2="380.49" stroke="#0ecb81" stroke-width="1.4" /><rect x="541.30" y="360.92" width="6" height="15.52" rx="1.5" fill="#0ecb81" /><line x1="555.04" y1="341.36" x2="555.04" y2="364.29" stroke="#0ecb81" stroke-width="1.4" /><rect x="552.04" y="344.73" width="6" height="16.87" rx="1.5" fill="#0ecb81" /><line x1="565.77" y1="325.84" x2="565.77" y2="344.73" stroke="#0ecb81" stroke-width="1.4" /><rect x="562.77" y="332.59" width="6" height="12.14" rx="1.5" fill="#0ecb81" /><line x1="576.51" y1="292.11" x2="576.51" y2="337.98" stroke="#0ecb81" stroke-width="1.4" /><rect x="573.51" y="293.46" width="6" height="39.80" rx="1.5" fill="#0ecb81" /><line x1="587.24" y1="290.08" x2="587.24" y2="319.09" stroke="#f6465d" stroke-width="1.4" /><rect x="584.24" y="292.78" width="6" height="22.26" rx="1.5" fill="#f6465d" /><line x1="597.97" y1="311.00" x2="597.97" y2="366.32" stroke="#f6465d" stroke-width="1.4" /><rect x="594.97" y="315.04" width="6" height="42.50" rx="1.5" fill="#f6465d" /><line x1="608.71" y1="344.73" x2="608.71" y2="391.96" stroke="#f6465d" stroke-width="1.4" /><rect x="605.71" y="357.55" width="6" height="10.79" rx="1.5" fill="#f6465d" /><line x1="619.44" y1="323.14" x2="619.44" y2="376.44" stroke="#0ecb81" stroke-width="1.4" /><rect x="616.44" y="346.75" width="6" height="21.59" rx="1.5" fill="#0ecb81" /><line x1="630.18" y1="322.47" x2="630.18" y2="356.87" stroke="#0ecb81" stroke-width="1.4" /><rect x="627.18" y="334.61" width="6" height="12.14" rx="1.5" fill="#0ecb81" /><line x1="640.91" y1="308.30" x2="640.91" y2="354.85" stroke="#0ecb81" stroke-width="1.4" /><rect x="637.91" y="314.37" width="6" height="20.91" rx="1.5" fill="#0ecb81" /><line x1="651.65" y1="305.60" x2="651.65" y2="340.68" stroke="#f6465d" stroke-width="1.4" /><rect x="648.65" y="314.37" width="6" height="11.47" rx="1.5" fill="#f6465d" /><line x1="662.38" y1="304.92" x2="662.38" y2="337.98" stroke="#0ecb81" stroke-width="1.4" /><rect x="659.38" y="308.30" width="6" height="18.22" rx="1.5" fill="#0ecb81" /><line x1="673.11" y1="299.53" x2="673.11" y2="321.79" stroke="#f6465d" stroke-width="1.4" /><rect x="670.11" y="308.30" width="6" height="7.42" rx="1.5" fill="#f6465d" /><line x1="683.85" y1="311.00" x2="683.85" y2="334.61" stroke="#0ecb81" stroke-width="1.4" /><rect x="680.85" y="313.70" width="6" height="2.02" rx="1.5" fill="#0ecb81" /><line x1="694.58" y1="313.70" x2="694.58" y2="350.13" stroke="#f6465d" stroke-width="1.4" /><rect x="691.58" y="314.37" width="6" height="15.52" rx="1.5" fill="#f6465d" /><line x1="705.32" y1="317.74" x2="705.32" y2="333.93" stroke="#0ecb81" stroke-width="1.4" /><rect x="702.32" y="325.16" width="6" height="4.05" rx="1.5" fill="#0ecb81" /><line x1="716.05" y1="293.46" x2="716.05" y2="335.96" stroke="#0ecb81" stroke-width="1.4" /><rect x="713.05" y="321.12" width="6" height="4.05" rx="1.5" fill="#0ecb81" /><line x1="726.78" y1="287.38" x2="726.78" y2="348.10" stroke="#0ecb81" stroke-width="1.4" /><rect x="723.78" y="287.38" width="6" height="33.73" rx="1.5" fill="#0ecb81" /><line x1="737.52" y1="198.33" x2="737.52" y2="290.76" stroke="#0ecb81" stroke-width="1.4" /><rect x="734.52" y="218.57" width="6" height="69.49" rx="1.5" fill="#0ecb81" /><line x1="748.25" y1="194.96" x2="748.25" y2="245.55" stroke="#0ecb81" stroke-width="1.4" /><rect x="745.25" y="213.17" width="6" height="5.40" rx="1.5" fill="#0ecb81" /><line x1="758.99" y1="58.00" x2="758.99" y2="217.22" stroke="#0ecb81" stroke-width="1.4" /><rect x="755.99" y="105.23" width="6" height="108.62" rx="1.5" fill="#0ecb81" /><line x1="769.72" y1="72.84" x2="769.72" y2="126.82" stroke="#f6465d" stroke-width="1.4" /><rect x="766.72" y="105.23" width="6" height="20.91" rx="1.5" fill="#f6465d" /><line x1="780.46" y1="121.42" x2="780.46" y2="175.39" stroke="#f6465d" stroke-width="1.4" /><rect x="777.46" y="125.47" width="6" height="4.72" rx="1.5" fill="#f6465d" /><line x1="791.19" y1="124.79" x2="791.19" y2="188.21" stroke="#f6465d" stroke-width="1.4" /><rect x="788.19" y="130.19" width="6" height="37.11" rx="1.5" fill="#f6465d" /><line x1="801.92" y1="149.75" x2="801.92" y2="248.25" stroke="#f6465d" stroke-width="1.4" /><rect x="798.92" y="167.29" width="6" height="68.14" rx="1.5" fill="#f6465d" /><line x1="812.66" y1="219.92" x2="812.66" y2="271.19" stroke="#f6465d" stroke-width="1.4" /><rect x="809.66" y="235.43" width="6" height="28.34" rx="1.5" fill="#f6465d" /><line x1="823.39" y1="263.10" x2="823.39" y2="309.65" stroke="#f6465d" stroke-width="1.4" /><rect x="820.39" y="263.10" width="6" height="37.78" rx="1.5" fill="#f6465d" /><line x1="834.13" y1="284.68" x2="834.13" y2="317.07" stroke="#0ecb81" stroke-width="1.4" /><rect x="831.13" y="288.06" width="6" height="12.82" rx="1.5" fill="#0ecb81" /><line x1="844.86" y1="230.71" x2="844.86" y2="288.06" stroke="#0ecb81" stroke-width="1.4" /><rect x="841.86" y="232.06" width="6" height="55.32" rx="1.5" fill="#0ecb81" /><line x1="855.59" y1="222.62" x2="855.59" y2="261.07" stroke="#0ecb81" stroke-width="1.4" /><rect x="852.59" y="226.66" width="6" height="6.07" rx="1.5" fill="#0ecb81" /><line x1="866.33" y1="226.66" x2="866.33" y2="263.77" stroke="#f6465d" stroke-width="1.4" /><rect x="863.33" y="227.34" width="6" height="26.31" rx="1.5" fill="#f6465d" /><line x1="877.06" y1="208.45" x2="877.06" y2="262.42" stroke="#0ecb81" stroke-width="1.4" /><rect x="874.06" y="248.25" width="6" height="6.07" rx="1.5" fill="#0ecb81" /><line x1="887.80" y1="214.52" x2="887.80" y2="248.93" stroke="#0ecb81" stroke-width="1.4" /><rect x="884.80" y="218.57" width="6" height="30.36" rx="1.5" fill="#0ecb81" /><line x1="898.53" y1="194.28" x2="898.53" y2="240.83" stroke="#0ecb81" stroke-width="1.4" /><rect x="895.53" y="199.00" width="6" height="18.89" rx="1.5" fill="#0ecb81" /><line x1="909.27" y1="199.00" x2="909.27" y2="280.64" stroke="#f6465d" stroke-width="1.4" /><rect x="906.27" y="199.00" width="6" height="70.16" rx="1.5" fill="#f6465d" /><line x1="920.00" y1="253.65" x2="920.00" y2="275.91" stroke="#f6465d" stroke-width="1.4" /><rect x="917.00" y="268.49" width="6" height="3.37" rx="1.5" fill="#f6465d" />
  <polyline points="72.00,485.06 200.81,246.90 275.95,412.87 404.76,279.29 501.37,402.75" fill="none" stroke="#2fc273" stroke-width="4" stroke-linecap="round" stroke-linejoin="round" />
  <circle cx="72.00" cy="485.06" r="5.5" fill="#2fc273" fill-opacity="0.15" stroke="#2fc273" stroke-width="2" /><text x="72.00" y="473.06" fill="#f3f4f6" font-size="15" font-weight="700" text-anchor="middle">X</text><circle cx="200.81" cy="246.90" r="5.5" fill="#2fc273" fill-opacity="0.15" stroke="#2fc273" stroke-width="2" /><text x="200.81" y="234.90" fill="#f3f4f6" font-size="15" font-weight="700" text-anchor="middle">A</text><circle cx="275.95" cy="412.87" r="5.5" fill="#2fc273" fill-opacity="0.15" stroke="#2fc273" stroke-width="2" /><text x="275.95" y="400.87" fill="#f3f4f6" font-size="15" font-weight="700" text-anchor="middle">B</text><circle cx="404.76" cy="279.29" r="5.5" fill="#2fc273" fill-opacity="0.15" stroke="#2fc273" stroke-width="2" /><text x="404.76" y="267.29" fill="#f3f4f6" font-size="15" font-weight="700" text-anchor="middle">C</text><circle cx="501.37" cy="402.75" r="5.5" fill="#2fc273" fill-opacity="0.15" stroke="#2fc273" stroke-width="2" /><text x="501.37" y="390.75" fill="#f3f4f6" font-size="15" font-weight="700" text-anchor="middle">D</text>
  <text x="56" y="492" fill="#8ba0b5" font-size="18">Complete · TP1 0.19198 · TP2 0.19241 · SL 0.19082</text>
</svg>
