<svg xmlns="http://www.w3.org/2000/svg" width="960" height="540" viewBox="0 0 960 540">
  <rect width="960" height="540" rx="24" fill="#0b1220" />
  <rect x="28" y="28" width="904" height="484" rx="22" fill="#111827" stroke="#1f2937" />
  <text x="56" y="74" fill="#f3f4f6" font-size="34" font-weight="700">XLMUSDT · AB=CD</text>
  <text x="904" y="74" fill="#8ba0b5" font-size="20" text-anchor="end">Bullish (매수) · Score 89.7</text>
  <line x1="72" y1="58" x2="920" y2="58" stroke="#223045" stroke-width="1" stroke-dasharray="4 8" /><line x1="72" y1="156" x2="920" y2="156" stroke="#223045" stroke-width="1" stroke-dasharray="4 8" /><line x1="72" y1="255" x2="920" y2="255" stroke="#223045" stroke-width="1" stroke-dasharray="4 8" /><line x1="72" y1="353" x2="920" y2="353" stroke="#223045" stroke-width="1" stroke-dasharray="4 8" /><line x1="72" y1="452" x2="920" y2="452" stroke="#223045" stroke-width="1" stroke-dasharray="4 8" />
  <rect x="773.92" y="365.68" width="84" height="109.99" fill="#fbbf24" fill-opacity="0.12" stroke="#fbbf24" stroke-width="1.5" stroke-dasharray="6 6" />
  <line x1="72.00" y1="91.41" x2="72.00" y2="130.40" stroke="#0ecb81" stroke-width="1.4" /><rect x="69.00" y="113.69" width="6" height="16.71" rx="1.5" fill="#0ecb81" /><line x1="82.73" y1="70.53" x2="82.73" y2="113.69" stroke="#0ecb81" stroke-width="1.4" /><rect x="79.73" y="90.02" width="6" height="23.67" rx="1.5" fill="#0ecb81" /><line x1="93.47" y1="58.00" x2="93.47" y2="101.16" stroke="#f6465d" stroke-width="1.4" /><rect x="90.47" y="90.02" width="6" height="5.57" rx="1.5" fill="#f6465d" /><line x1="104.20" y1="85.84" x2="104.20" y2="99.77" stroke="#f6465d" stroke-width="1.4" /><rect x="101.20" y="95.59" width="6" height="2.00" rx="1.5" fill="#f6465d" /><line x1="114.94" y1="66.35" x2="114.94" y2="96.98" stroke="#0ecb81" stroke-width="1.4" /><rect x="111.94" y="90.02" width="6" height="6.96" rx="1.5" fill="#0ecb81" /><line x1="125.67" y1="85.84" x2="125.67" y2="90.02" stroke="#0ecb81" stroke-width="1.4" /><rect x="122.67" y="87.24" width="6" height="2.00" rx="1.5" fill="#0ecb81" /><line x1="136.41" y1="69.14" x2="136.41" y2="91.41" stroke="#f6465d" stroke-width="1.4" /><rect x="133.41" y="85.84" width="6" height="4.18" rx="1.5" fill="#f6465d" /><line x1="147.14" y1="70.53" x2="147.14" y2="91.41" stroke="#0ecb81" stroke-width="1.4" /><rect x="144.14" y="85.84" width="6" height="5.57" rx="1.5" fill="#0ecb81" /><line x1="157.87" y1="73.31" x2="157.87" y2="119.26" stroke="#f6465d" stroke-width="1.4" /><rect x="154.87" y="85.84" width="6" height="29.24" rx="1.5" fill="#f6465d" /><line x1="168.61" y1="91.41" x2="168.61" y2="119.26" stroke="#0ecb81" stroke-width="1.4" /><rect x="165.61" y="94.20" width="6" height="20.88" rx="1.5" fill="#0ecb81" /><line x1="179.34" y1="91.41" x2="179.34" y2="142.93" stroke="#f6465d" stroke-width="1.4" /><rect x="176.34" y="95.59" width="6" height="38.98" rx="1.5" fill="#f6465d" /><line x1="190.08" y1="130.40" x2="190.08" y2="147.10" stroke="#f6465d" stroke-width="1.4" /><rect x="187.08" y="133.18" width="6" height="13.92" rx="1.5" fill="#f6465d" /><line x1="200.81" y1="137.36" x2="200.81" y2="154.06" stroke="#f6465d" stroke-width="1.4" /><rect x="197.81" y="147.10" width="6" height="4.18" rx="1.5" fill="#f6465d" /><line x1="211.54" y1="151.28" x2="211.54" y2="195.83" stroke="#f6465d" stroke-width="1.4" /><rect x="208.54" y="151.28" width="6" height="18.10" rx="1.5" fill="#f6465d" /><line x1="222.28" y1="170.77" x2="222.28" y2="211.14" stroke="#f6465d" stroke-width="1.4" /><rect x="219.28" y="170.77" width="6" height="38.98" rx="1.5" fill="#f6465d" /><line x1="233.01" y1="209.75" x2="233.01" y2="252.91" stroke="#f6465d" stroke-width="1.4" /><rect x="230.01" y="209.75" width="6" height="25.06" rx="1.5" fill="#f6465d" /><line x1="243.75" y1="194.44" x2="243.75" y2="241.77" stroke="#0ecb81" stroke-width="1.4" /><rect x="240.75" y="232.03" width="6" height="2.78" rx="1.5" fill="#0ecb81" /><line x1="254.48" y1="219.50" x2="254.48" y2="234.81" stroke="#0ecb81" stroke-width="1.4" /><rect x="251.48" y="223.67" width="6" height="9.75" rx="1.5" fill="#0ecb81" /><line x1="265.22" y1="223.67" x2="265.22" y2="262.66" stroke="#f6465d" stroke-width="1.4" /><rect x="262.22" y="223.67" width="6" height="11.14" rx="1.5" fill="#f6465d" /><line x1="275.95" y1="230.64" x2="275.95" y2="262.66" stroke="#f6465d" stroke-width="1.4" /><rect x="272.95" y="233.42" width="6" height="23.67" rx="1.5" fill="#f6465d" /><line x1="286.68" y1="237.60" x2="286.68" y2="261.27" stroke="#0ecb81" stroke-width="1.4" /><rect x="283.68" y="237.60" width="6" height="20.88" rx="1.5" fill="#0ecb81" /><line x1="297.42" y1="232.03" x2="297.42" y2="258.48" stroke="#0ecb81" stroke-width="1.4" /><rect x="294.42" y="233.42" width="6" height="4.18" rx="1.5" fill="#0ecb81" /><line x1="308.15" y1="208.36" x2="308.15" y2="236.20" stroke="#0ecb81" stroke-width="1.4" /><rect x="305.15" y="209.75" width="6" height="25.06" rx="1.5" fill="#0ecb81" /><line x1="318.89" y1="200.01" x2="318.89" y2="215.32" stroke="#f6465d" stroke-width="1.4" /><rect x="315.89" y="208.36" width="6" height="6.96" rx="1.5" fill="#f6465d" /><line x1="329.62" y1="215.32" x2="329.62" y2="237.60" stroke="#f6465d" stroke-width="1.4" /><rect x="326.62" y="216.71" width="6" height="15.31" rx="1.5" fill="#f6465d" /><line x1="340.35" y1="227.85" x2="340.35" y2="261.27" stroke="#f6465d" stroke-width="1.4" /><rect x="337.35" y="230.64" width="6" height="19.49" rx="1.5" fill="#f6465d" /><line x1="351.09" y1="248.73" x2="351.09" y2="261.27" stroke="#f6465d" stroke-width="1.4" /><rect x="348.09" y="251.52" width="6" height="2.78" rx="1.5" fill="#f6465d" /><line x1="361.82" y1="248.73" x2="361.82" y2="268.23" stroke="#f6465d" stroke-width="1.4" /><rect x="358.82" y="252.91" width="6" height="12.53" rx="1.5" fill="#f6465d" /><line x1="372.56" y1="255.70" x2="372.56" y2="272.40" stroke="#0ecb81" stroke-width="1.4" /><rect x="369.56" y="257.09" width="6" height="9.75" rx="1.5" fill="#0ecb81" /><line x1="383.29" y1="240.38" x2="383.29" y2="261.27" stroke="#f6465d" stroke-width="1.4" /><rect x="380.29" y="257.09" width="6" height="2.78" rx="1.5" fill="#f6465d" /><line x1="394.03" y1="232.03" x2="394.03" y2="261.27" stroke="#0ecb81" stroke-width="1.4" /><rect x="391.03" y="243.17" width="6" height="16.71" rx="1.5" fill="#0ecb81" /><line x1="404.76" y1="225.07" x2="404.76" y2="247.34" stroke="#0ecb81" stroke-width="1.4" /><rect x="401.76" y="226.46" width="6" height="18.10" rx="1.5" fill="#0ecb81" /><line x1="415.49" y1="194.44" x2="415.49" y2="234.81" stroke="#0ecb81" stroke-width="1.4" /><rect x="412.49" y="215.32" width="6" height="9.75" rx="1.5" fill="#0ecb81" /><line x1="426.23" y1="205.58" x2="426.23" y2="236.20" stroke="#f6465d" stroke-width="1.4" /><rect x="423.23" y="213.93" width="6" height="16.71" rx="1.5" fill="#f6465d" /><line x1="436.96" y1="219.50" x2="436.96" y2="251.52" stroke="#0ecb81" stroke-width="1.4" /><rect x="433.96" y="230.64" width="6" height="2.00" rx="1.5" fill="#0ecb81" /><line x1="447.70" y1="206.97" x2="447.70" y2="240.38" stroke="#0ecb81" stroke-width="1.4" /><rect x="444.70" y="213.93" width="6" height="18.10" rx="1.5" fill="#0ecb81" /><line x1="458.43" y1="208.36" x2="458.43" y2="275.19" stroke="#f6465d" stroke-width="1.4" /><rect x="455.43" y="212.54" width="6" height="50.12" rx="1.5" fill="#f6465d" /><line x1="469.16" y1="250.13" x2="469.16" y2="268.23" stroke="#f6465d" stroke-width="1.4" /><rect x="466.16" y="261.27" width="6" height="2.78" rx="1.5" fill="#f6465d" /><line x1="479.90" y1="247.34" x2="479.90" y2="276.58" stroke="#0ecb81" stroke-width="1.4" /><rect x="476.90" y="258.48" width="6" height="5.57" rx="1.5" fill="#0ecb81" /><line x1="490.63" y1="257.09" x2="490.63" y2="277.97" stroke="#f6465d" stroke-width="1.4" /><rect x="487.63" y="257.09" width="6" height="11.14" rx="1.5" fill="#f6465d" /><line x1="501.37" y1="251.52" x2="501.37" y2="273.80" stroke="#f6465d" stroke-width="1.4" /><rect x="498.37" y="266.83" width="6" height="4.18" rx="1.5" fill="#f6465d" /><line x1="512.10" y1="269.62" x2="512.10" y2="297.46" stroke="#f6465d" stroke-width="1.4" /><rect x="509.10" y="271.01" width="6" height="23.67" rx="1.5" fill="#f6465d" /><line x1="522.84" y1="268.23" x2="522.84" y2="298.86" stroke="#0ecb81" stroke-width="1.4" /><rect x="519.84" y="271.01" width="6" height="23.67" rx="1.5" fill="#0ecb81" /><line x1="533.57" y1="255.70" x2="533.57" y2="291.89" stroke="#f6465d" stroke-width="1.4" /><rect x="530.57" y="271.01" width="6" height="2.78" rx="1.5" fill="#f6465d" /><line x1="544.30" y1="268.23" x2="544.30" y2="297.46" stroke="#f6465d" stroke-width="1.4" /><rect x="541.30" y="273.80" width="6" height="23.67" rx="1.5" fill="#f6465d" /><line x1="555.04" y1="279.36" x2="555.04" y2="303.03" stroke="#0ecb81" stroke-width="1.4" /><rect x="552.04" y="282.15" width="6" height="15.31" rx="1.5" fill="#0ecb81" /><line x1="565.77" y1="279.36" x2="565.77" y2="303.03" stroke="#f6465d" stroke-width="1.4" /><rect x="562.77" y="280.76" width="6" height="16.71" rx="1.5" fill="#f6465d" /><line x1="576.51" y1="282.15" x2="576.51" y2="303.03" stroke="#0ecb81" stroke-width="1.4" /><rect x="573.51" y="283.54" width="6" height="13.92" rx="1.5" fill="#0ecb81" /><line x1="587.24" y1="269.62" x2="587.24" y2="287.72" stroke="#0ecb81" stroke-width="1.4" /><rect x="584.24" y="269.62" width="6" height="13.92" rx="1.5" fill="#0ecb81" /><line x1="597.97" y1="264.05" x2="597.97" y2="286.33" stroke="#f6465d" stroke-width="1.4" /><rect x="594.97" y="268.23" width="6" height="2.78" rx="1.5" fill="#f6465d" /><line x1="608.71" y1="206.97" x2="608.71" y2="269.62" stroke="#0ecb81" stroke-width="1.4" /><rect x="605.71" y="241.77" width="6" height="27.84" rx="1.5" fill="#0ecb81" /><line x1="619.44" y1="240.38" x2="619.44" y2="271.01" stroke="#f6465d" stroke-width="1.4" /><rect x="616.44" y="240.38" width="6" height="22.28" rx="1.5" fill="#f6465d" /><line x1="630.18" y1="258.48" x2="630.18" y2="301.64" stroke="#f6465d" stroke-width="1.4" /><rect x="627.18" y="261.27" width="6" height="38.98" rx="1.5" fill="#f6465d" /><line x1="640.91" y1="282.15" x2="640.91" y2="304.42" stroke="#0ecb81" stroke-width="1.4" /><rect x="637.91" y="296.07" width="6" height="2.78" rx="1.5" fill="#0ecb81" /><line x1="651.65" y1="296.07" x2="651.65" y2="321.13" stroke="#f6465d" stroke-width="1.4" /><rect x="648.65" y="296.07" width="6" height="19.49" rx="1.5" fill="#f6465d" /><line x1="662.38" y1="291.89" x2="662.38" y2="351.76" stroke="#f6465d" stroke-width="1.4" /><rect x="659.38" y="315.56" width="6" height="9.75" rx="1.5" fill="#f6465d" /><line x1="673.11" y1="319.74" x2="673.11" y2="342.01" stroke="#f6465d" stroke-width="1.4" /><rect x="670.11" y="325.31" width="6" height="8.35" rx="1.5" fill="#f6465d" /><line x1="683.85" y1="309.99" x2="683.85" y2="337.84" stroke="#0ecb81" stroke-width="1.4" /><rect x="680.85" y="328.09" width="6" height="5.57" rx="1.5" fill="#0ecb81" /><line x1="694.58" y1="289.11" x2="694.58" y2="333.66" stroke="#0ecb81" stroke-width="1.4" /><rect x="691.58" y="309.99" width="6" height="18.10" rx="1.5" fill="#0ecb81" /><line x1="705.32" y1="301.64" x2="705.32" y2="326.70" stroke="#f6465d" stroke-width="1.4" /><rect x="702.32" y="309.99" width="6" height="16.71" rx="1.5" fill="#f6465d" /><line x1="716.05" y1="318.35" x2="716.05" y2="339.23" stroke="#f6465d" stroke-width="1.4" /><rect x="713.05" y="326.70" width="6" height="4.18" rx="1.5" fill="#f6465d" /><line x1="726.78" y1="300.25" x2="726.78" y2="340.62" stroke="#0ecb81" stroke-width="1.4" /><rect x="723.78" y="300.25" width="6" height="30.63" rx="1.5" fill="#0ecb81" /><line x1="737.52" y1="300.25" x2="737.52" y2="312.78" stroke="#f6465d" stroke-width="1.4" /><rect x="734.52" y="300.25" width="6" height="11.14" rx="1.5" fill="#f6465d" /><line x1="748.25" y1="307.21" x2="748.25" y2="326.70" stroke="#f6465d" stroke-width="1.4" /><rect x="745.25" y="311.39" width="6" height="9.75" rx="1.5" fill="#f6465d" /><line x1="758.99" y1="318.35" x2="758.99" y2="353.15" stroke="#f6465d" stroke-width="1.4" /><rect x="755.99" y="319.74" width="6" height="6.96" rx="1.5" fill="#f6465d" /><line x1="769.72" y1="321.13" x2="769.72" y2="347.58" stroke="#f6465d" stroke-width="1.4" /><rect x="766.72" y="325.31" width="6" height="15.31" rx="1.5" fill="#f6465d" /><line x1="780.46" y1="332.27" x2="780.46" y2="351.76" stroke="#f6465d" stroke-width="1.4" /><rect x="777.46" y="340.62" width="6" height="9.75" rx="1.5" fill="#f6465d" /><line x1="791.19" y1="346.19" x2="791.19" y2="369.86" stroke="#f6465d" stroke-width="1.4" /><rect x="788.19" y="350.37" width="6" height="16.71" rx="1.5" fill="#f6465d" /><line x1="801.92" y1="348.98" x2="801.92" y2="378.21" stroke="#0ecb81" stroke-width="1.4" /><rect x="798.92" y="354.54" width="6" height="11.14" rx="1.5" fill="#0ecb81" /><line x1="812.66" y1="347.58" x2="812.66" y2="375.43" stroke="#0ecb81" stroke-width="1.4" /><rect x="809.66" y="355.94" width="6" height="2.00" rx="1.5" fill="#0ecb81" /><line x1="823.39" y1="342.01" x2="823.39" y2="367.07" stroke="#f6465d" stroke-width="1.4" /><rect x="820.39" y="355.94" width="6" height="6.96" rx="1.5" fill="#f6465d" /><line x1="834.13" y1="353.15" x2="834.13" y2="371.25" stroke="#f6465d" stroke-width="1.4" /><rect x="831.13" y="362.90" width="6" height="8.35" rx="1.5" fill="#f6465d" /><line x1="844.86" y1="361.51" x2="844.86" y2="386.57" stroke="#f6465d" stroke-width="1.4" /><rect x="841.86" y="371.25" width="6" height="12.53" rx="1.5" fill="#f6465d" /><line x1="855.59" y1="364.29" x2="855.59" y2="421.37" stroke="#f6465d" stroke-width="1.4" /><rect x="852.59" y="383.78" width="6" height="18.10" rx="1.5" fill="#f6465d" /><line x1="866.33" y1="374.04" x2="866.33" y2="422.76" stroke="#0ecb81" stroke-width="1.4" /><rect x="863.33" y="393.53" width="6" height="8.35" rx="1.5" fill="#0ecb81" /><line x1="877.06" y1="385.17" x2="877.06" y2="436.69" stroke="#f6465d" stroke-width="1.4" /><rect x="874.06" y="392.13" width="6" height="32.02" rx="1.5" fill="#f6465d" /><line x1="887.80" y1="425.55" x2="887.80" y2="452.00" stroke="#f6465d" stroke-width="1.4" /><rect x="884.80" y="425.55" width="6" height="12.53" rx="1.5" fill="#f6465d" /><line x1="898.53" y1="362.90" x2="898.53" y2="438.08" stroke="#0ecb81" stroke-width="1.4" /><rect x="895.53" y="365.68" width="6" height="72.40" rx="1.5" fill="#0ecb81" /><line x1="909.27" y1="323.92" x2="909.27" y2="365.68" stroke="#0ecb81" stroke-width="1.4" /><rect x="906.27" y="323.92" width="6" height="40.37" rx="1.5" fill="#0ecb81" /><line x1="920.00" y1="322.52" x2="920.00" y2="343.41" stroke="#f6465d" stroke-width="1.4" /><rect x="917.00" y="323.92" width="6" height="19.49" rx="1.5" fill="#f6465d" />
  <polyline points="576.51,303.03 608.71,206.97 662.38,351.76 694.58,289.11 801.92,378.21" fill="none" stroke="#2fc273" stroke-width="4" stroke-linecap="round" stroke-linejoin="round" />
  <circle cx="576.51" cy="303.03" r="5.5" fill="#2fc273" fill-opacity="0.15" stroke="#2fc273" stroke-width="2" /><text x="576.51" y="291.03" fill="#f3f4f6" font-size="15" font-weight="700" text-anchor="middle">X</text><circle cx="608.71" cy="206.97" r="5.5" fill="#2fc273" fill-opacity="0.15" stroke="#2fc273" stroke-width="2" /><text x="608.71" y="194.97" fill="#f3f4f6" font-size="15" font-weight="700" text-anchor="middle">A</text><circle cx="662.38" cy="351.76" r="5.5" fill="#2fc273" fill-opacity="0.15" stroke="#2fc273" stroke-width="2" /><text x="662.38" y="339.76" fill="#f3f4f6" font-size="15" font-weight="700" text-anchor="middle">B</text><circle cx="694.58" cy="289.11" r="5.5" fill="#2fc273" fill-opacity="0.15" stroke="#2fc273" stroke-width="2" /><text x="694.58" y="277.11" fill="#f3f4f6" font-size="15" font-weight="700" text-anchor="middle">C</text><circle cx="801.92" cy="378.21" r="5.5" fill="#2fc273" fill-opacity="0.15" stroke="#2fc273" stroke-width="2" /><text x="801.92" y="366.21" fill="#f3f4f6" font-size="15" font-weight="700" text-anchor="middle">D</text>
  <text x="56" y="492" fill="#8ba0b5" font-size="18">일반 완성 · TP1 0.15798 · TP2 0.15814 · SL 0.15765</text>
</svg>
