<svg xmlns="http://www.w3.org/2000/svg" width="960" height="540" viewBox="0 0 960 540">
  <rect width="960" height="540" rx="24" fill="#0b1220" />
  <rect x="28" y="28" width="904" height="484" rx="22" fill="#111827" stroke="#1f2937" />
  <text x="56" y="74" fill="#f3f4f6" font-size="34" font-weight="700">XMRUSDT · AB=CD</text>
  <text x="904" y="74" fill="#8ba0b5" font-size="20" text-anchor="end">Bearish (매도) · Score 89.3</text>
  <line x1="72" y1="58" x2="920" y2="58" stroke="#223045" stroke-width="1" stroke-dasharray="4 8" /><line x1="72" y1="156" x2="920" y2="156" stroke="#223045" stroke-width="1" stroke-dasharray="4 8" /><line x1="72" y1="255" x2="920" y2="255" stroke="#223045" stroke-width="1" stroke-dasharray="4 8" /><line x1="72" y1="353" x2="920" y2="353" stroke="#223045" stroke-width="1" stroke-dasharray="4 8" /><line x1="72" y1="452" x2="920" y2="452" stroke="#223045" stroke-width="1" stroke-dasharray="4 8" />
  <rect x="301.62" y="11.06" width="84" height="121.79" fill="#fbbf24" fill-opacity="0.12" stroke="#fbbf24" stroke-width="1.5" stroke-dasharray="6 6" />
  <line x1="72.00" y1="219.12" x2="72.00" y2="345.08" stroke="#f6465d" stroke-width="1.4" /><rect x="69.00" y="222.04" width="6" height="113.51" rx="1.5" fill="#f6465d" /><line x1="82.73" y1="327.50" x2="82.73" y2="389.75" stroke="#f6465d" stroke-width="1.4" /><rect x="79.73" y="335.56" width="6" height="41.01" rx="1.5" fill="#f6465d" /><line x1="93.47" y1="328.97" x2="93.47" y2="383.16" stroke="#0ecb81" stroke-width="1.4" /><rect x="90.47" y="348.01" width="6" height="27.10" rx="1.5" fill="#0ecb81" /><line x1="104.20" y1="294.55" x2="104.20" y2="361.92" stroke="#0ecb81" stroke-width="1.4" /><rect x="101.20" y="312.86" width="6" height="26.36" rx="1.5" fill="#0ecb81" /><line x1="114.94" y1="297.48" x2="114.94" y2="374.37" stroke="#f6465d" stroke-width="1.4" /><rect x="111.94" y="312.86" width="6" height="43.21" rx="1.5" fill="#f6465d" /><line x1="125.67" y1="300.41" x2="125.67" y2="362.65" stroke="#0ecb81" stroke-width="1.4" /><rect x="122.67" y="312.12" width="6" height="43.21" rx="1.5" fill="#0ecb81" /><line x1="136.41" y1="304.07" x2="136.41" y2="367.05" stroke="#f6465d" stroke-width="1.4" /><rect x="133.41" y="311.39" width="6" height="55.66" rx="1.5" fill="#f6465d" /><line x1="147.14" y1="286.49" x2="147.14" y2="377.30" stroke="#0ecb81" stroke-width="1.4" /><rect x="144.14" y="313.59" width="6" height="53.46" rx="1.5" fill="#0ecb81" /><line x1="157.87" y1="230.10" x2="157.87" y2="321.64" stroke="#0ecb81" stroke-width="1.4" /><rect x="154.87" y="232.30" width="6" height="81.29" rx="1.5" fill="#0ecb81" /><line x1="168.61" y1="187.62" x2="168.61" y2="241.09" stroke="#0ecb81" stroke-width="1.4" /><rect x="165.61" y="188.36" width="6" height="43.94" rx="1.5" fill="#0ecb81" /><line x1="179.34" y1="170.78" x2="179.34" y2="207.40" stroke="#f6465d" stroke-width="1.4" /><rect x="176.34" y="189.09" width="6" height="3.66" rx="1.5" fill="#f6465d" /><line x1="190.08" y1="193.48" x2="190.08" y2="284.29" stroke="#f6465d" stroke-width="1.4" /><rect x="187.08" y="193.48" width="6" height="72.50" rx="1.5" fill="#f6465d" /><line x1="200.81" y1="249.87" x2="200.81" y2="280.63" stroke="#f6465d" stroke-width="1.4" /><rect x="197.81" y="265.99" width="6" height="11.72" rx="1.5" fill="#f6465d" /><line x1="211.54" y1="271.11" x2="211.54" y2="294.55" stroke="#0ecb81" stroke-width="1.4" /><rect x="208.54" y="274.77" width="6" height="2.93" rx="1.5" fill="#0ecb81" /><line x1="222.28" y1="274.77" x2="222.28" y2="339.95" stroke="#f6465d" stroke-width="1.4" /><rect x="219.28" y="275.51" width="6" height="50.53" rx="1.5" fill="#f6465d" /><line x1="233.01" y1="282.10" x2="233.01" y2="326.77" stroke="#0ecb81" stroke-width="1.4" /><rect x="230.01" y="297.48" width="6" height="28.56" rx="1.5" fill="#0ecb81" /><line x1="243.75" y1="251.34" x2="243.75" y2="297.48" stroke="#0ecb81" stroke-width="1.4" /><rect x="240.75" y="256.46" width="6" height="40.28" rx="1.5" fill="#0ecb81" /><line x1="254.48" y1="206.67" x2="254.48" y2="267.45" stroke="#0ecb81" stroke-width="1.4" /><rect x="251.48" y="229.37" width="6" height="27.83" rx="1.5" fill="#0ecb81" /><line x1="265.22" y1="131.97" x2="265.22" y2="233.76" stroke="#0ecb81" stroke-width="1.4" /><rect x="262.22" y="135.63" width="6" height="94.47" rx="1.5" fill="#0ecb81" /><line x1="275.95" y1="134.16" x2="275.95" y2="200.81" stroke="#f6465d" stroke-width="1.4" /><rect x="272.95" y="134.16" width="6" height="66.64" rx="1.5" fill="#f6465d" /><line x1="286.68" y1="136.36" x2="286.68" y2="199.34" stroke="#0ecb81" stroke-width="1.4" /><rect x="283.68" y="146.61" width="6" height="52.73" rx="1.5" fill="#0ecb81" /><line x1="297.42" y1="126.84" x2="297.42" y2="157.60" stroke="#0ecb81" stroke-width="1.4" /><rect x="294.42" y="132.70" width="6" height="13.91" rx="1.5" fill="#0ecb81" /><line x1="308.15" y1="118.05" x2="308.15" y2="155.40" stroke="#f6465d" stroke-width="1.4" /><rect x="305.15" y="132.70" width="6" height="4.39" rx="1.5" fill="#f6465d" /><line x1="318.89" y1="118.05" x2="318.89" y2="156.87" stroke="#0ecb81" stroke-width="1.4" /><rect x="315.89" y="119.52" width="6" height="17.58" rx="1.5" fill="#0ecb81" /><line x1="329.62" y1="60.93" x2="329.62" y2="139.29" stroke="#0ecb81" stroke-width="1.4" /><rect x="326.62" y="115.12" width="6" height="5.86" rx="1.5" fill="#0ecb81" /><line x1="340.35" y1="113.66" x2="340.35" y2="186.89" stroke="#f6465d" stroke-width="1.4" /><rect x="337.35" y="115.12" width="6" height="36.62" rx="1.5" fill="#f6465d" /><line x1="351.09" y1="119.52" x2="351.09" y2="151.74" stroke="#0ecb81" stroke-width="1.4" /><rect x="348.09" y="131.23" width="6" height="20.51" rx="1.5" fill="#0ecb81" /><line x1="361.82" y1="92.42" x2="361.82" y2="134.16" stroke="#0ecb81" stroke-width="1.4" /><rect x="358.82" y="115.12" width="6" height="19.04" rx="1.5" fill="#0ecb81" /><line x1="372.56" y1="96.81" x2="372.56" y2="138.56" stroke="#f6465d" stroke-width="1.4" /><rect x="369.56" y="115.12" width="6" height="21.24" rx="1.5" fill="#f6465d" /><line x1="383.29" y1="119.52" x2="383.29" y2="174.44" stroke="#f6465d" stroke-width="1.4" /><rect x="380.29" y="136.36" width="6" height="10.99" rx="1.5" fill="#f6465d" /><line x1="394.03" y1="128.30" x2="394.03" y2="147.35" stroke="#0ecb81" stroke-width="1.4" /><rect x="391.03" y="140.02" width="6" height="7.32" rx="1.5" fill="#0ecb81" /><line x1="404.76" y1="120.25" x2="404.76" y2="156.13" stroke="#0ecb81" stroke-width="1.4" /><rect x="401.76" y="135.63" width="6" height="2.00" rx="1.5" fill="#0ecb81" /><line x1="415.49" y1="130.50" x2="415.49" y2="159.06" stroke="#f6465d" stroke-width="1.4" /><rect x="412.49" y="135.63" width="6" height="17.58" rx="1.5" fill="#f6465d" /><line x1="426.23" y1="64.59" x2="426.23" y2="152.47" stroke="#0ecb81" stroke-width="1.4" /><rect x="423.23" y="70.45" width="6" height="82.02" rx="1.5" fill="#0ecb81" /><line x1="436.96" y1="58.00" x2="436.96" y2="110.00" stroke="#f6465d" stroke-width="1.4" /><rect x="433.96" y="70.45" width="6" height="23.43" rx="1.5" fill="#f6465d" /><line x1="447.70" y1="82.17" x2="447.70" y2="138.56" stroke="#f6465d" stroke-width="1.4" /><rect x="444.70" y="94.62" width="6" height="21.97" rx="1.5" fill="#f6465d" /><line x1="458.43" y1="87.29" x2="458.43" y2="153.20" stroke="#f6465d" stroke-width="1.4" /><rect x="455.43" y="116.59" width="6" height="36.62" rx="1.5" fill="#f6465d" /><line x1="469.16" y1="99.74" x2="469.16" y2="153.20" stroke="#0ecb81" stroke-width="1.4" /><rect x="466.16" y="107.80" width="6" height="45.41" rx="1.5" fill="#0ecb81" /><line x1="479.90" y1="107.07" x2="479.90" y2="144.42" stroke="#f6465d" stroke-width="1.4" /><rect x="476.90" y="107.07" width="6" height="32.22" rx="1.5" fill="#f6465d" /><line x1="490.63" y1="112.93" x2="490.63" y2="142.22" stroke="#0ecb81" stroke-width="1.4" /><rect x="487.63" y="129.77" width="6" height="10.25" rx="1.5" fill="#0ecb81" /><line x1="501.37" y1="113.66" x2="501.37" y2="211.06" stroke="#f6465d" stroke-width="1.4" /><rect x="498.37" y="126.84" width="6" height="67.38" rx="1.5" fill="#f6465d" /><line x1="512.10" y1="85.10" x2="512.10" y2="194.22" stroke="#0ecb81" stroke-width="1.4" /><rect x="509.10" y="116.59" width="6" height="77.63" rx="1.5" fill="#0ecb81" /><line x1="522.84" y1="109.26" x2="522.84" y2="195.68" stroke="#f6465d" stroke-width="1.4" /><rect x="519.84" y="118.05" width="6" height="73.97" rx="1.5" fill="#f6465d" /><line x1="533.57" y1="160.53" x2="533.57" y2="192.02" stroke="#0ecb81" stroke-width="1.4" /><rect x="530.57" y="168.58" width="6" height="23.43" rx="1.5" fill="#0ecb81" /><line x1="544.30" y1="142.22" x2="544.30" y2="182.50" stroke="#0ecb81" stroke-width="1.4" /><rect x="541.30" y="142.95" width="6" height="26.36" rx="1.5" fill="#0ecb81" /><line x1="555.04" y1="123.91" x2="555.04" y2="186.89" stroke="#f6465d" stroke-width="1.4" /><rect x="552.04" y="145.15" width="6" height="38.08" rx="1.5" fill="#f6465d" /><line x1="565.77" y1="168.58" x2="565.77" y2="195.68" stroke="#0ecb81" stroke-width="1.4" /><rect x="562.77" y="181.77" width="6" height="2.00" rx="1.5" fill="#0ecb81" /><line x1="576.51" y1="149.54" x2="576.51" y2="186.89" stroke="#0ecb81" stroke-width="1.4" /><rect x="573.51" y="174.44" width="6" height="5.13" rx="1.5" fill="#0ecb81" /><line x1="587.24" y1="173.71" x2="587.24" y2="198.61" stroke="#f6465d" stroke-width="1.4" /><rect x="584.24" y="173.71" width="6" height="22.70" rx="1.5" fill="#f6465d" /><line x1="597.97" y1="177.37" x2="597.97" y2="222.78" stroke="#f6465d" stroke-width="1.4" /><rect x="594.97" y="197.14" width="6" height="24.90" rx="1.5" fill="#f6465d" /><line x1="608.71" y1="190.55" x2="608.71" y2="259.39" stroke="#f6465d" stroke-width="1.4" /><rect x="605.71" y="222.04" width="6" height="27.10" rx="1.5" fill="#f6465d" /><line x1="619.44" y1="227.90" x2="619.44" y2="296.74" stroke="#0ecb81" stroke-width="1.4" /><rect x="616.44" y="229.37" width="6" height="19.04" rx="1.5" fill="#0ecb81" /><line x1="630.18" y1="189.09" x2="630.18" y2="235.96" stroke="#0ecb81" stroke-width="1.4" /><rect x="627.18" y="205.93" width="6" height="23.43" rx="1.5" fill="#0ecb81" /><line x1="640.91" y1="205.93" x2="640.91" y2="233.76" stroke="#f6465d" stroke-width="1.4" /><rect x="637.91" y="205.93" width="6" height="14.65" rx="1.5" fill="#f6465d" /><line x1="651.65" y1="214.72" x2="651.65" y2="265.99" stroke="#f6465d" stroke-width="1.4" /><rect x="648.65" y="221.31" width="6" height="32.96" rx="1.5" fill="#f6465d" /><line x1="662.38" y1="249.87" x2="662.38" y2="321.64" stroke="#f6465d" stroke-width="1.4" /><rect x="659.38" y="255.00" width="6" height="61.52" rx="1.5" fill="#f6465d" /><line x1="673.11" y1="285.03" x2="673.11" y2="316.52" stroke="#0ecb81" stroke-width="1.4" /><rect x="670.11" y="296.01" width="6" height="18.31" rx="1.5" fill="#0ecb81" /><line x1="683.85" y1="271.84" x2="683.85" y2="323.84" stroke="#0ecb81" stroke-width="1.4" /><rect x="680.85" y="284.29" width="6" height="11.72" rx="1.5" fill="#0ecb81" /><line x1="694.58" y1="246.94" x2="694.58" y2="323.84" stroke="#0ecb81" stroke-width="1.4" /><rect x="691.58" y="246.94" width="6" height="37.35" rx="1.5" fill="#0ecb81" /><line x1="705.32" y1="176.64" x2="705.32" y2="268.91" stroke="#f6465d" stroke-width="1.4" /><rect x="702.32" y="246.94" width="6" height="9.52" rx="1.5" fill="#f6465d" /><line x1="716.05" y1="222.04" x2="716.05" y2="271.11" stroke="#0ecb81" stroke-width="1.4" /><rect x="713.05" y="232.30" width="6" height="23.43" rx="1.5" fill="#0ecb81" /><line x1="726.78" y1="172.25" x2="726.78" y2="231.57" stroke="#0ecb81" stroke-width="1.4" /><rect x="723.78" y="179.57" width="6" height="52.00" rx="1.5" fill="#0ecb81" /><line x1="737.52" y1="110.73" x2="737.52" y2="183.96" stroke="#0ecb81" stroke-width="1.4" /><rect x="734.52" y="119.52" width="6" height="60.78" rx="1.5" fill="#0ecb81" /><line x1="748.25" y1="118.78" x2="748.25" y2="180.30" stroke="#f6465d" stroke-width="1.4" /><rect x="745.25" y="118.78" width="6" height="34.42" rx="1.5" fill="#f6465d" /><line x1="758.99" y1="149.54" x2="758.99" y2="178.10" stroke="#f6465d" stroke-width="1.4" /><rect x="755.99" y="153.94" width="6" height="12.45" rx="1.5" fill="#f6465d" /><line x1="769.72" y1="159.80" x2="769.72" y2="246.94" stroke="#f6465d" stroke-width="1.4" /><rect x="766.72" y="167.12" width="6" height="79.83" rx="1.5" fill="#f6465d" /><line x1="780.46" y1="241.09" x2="780.46" y2="295.28" stroke="#f6465d" stroke-width="1.4" /><rect x="777.46" y="245.48" width="6" height="46.87" rx="1.5" fill="#f6465d" /><line x1="791.19" y1="280.63" x2="791.19" y2="452.00" stroke="#f6465d" stroke-width="1.4" /><rect x="788.19" y="291.62" width="6" height="151.59" rx="1.5" fill="#f6465d" /><line x1="801.92" y1="367.05" x2="801.92" y2="443.21" stroke="#0ecb81" stroke-width="1.4" /><rect x="798.92" y="370.71" width="6" height="71.77" rx="1.5" fill="#0ecb81" /><line x1="812.66" y1="279.17" x2="812.66" y2="373.64" stroke="#0ecb81" stroke-width="1.4" /><rect x="809.66" y="313.59" width="6" height="57.86" rx="1.5" fill="#0ecb81" /><line x1="823.39" y1="296.74" x2="823.39" y2="339.95" stroke="#f6465d" stroke-width="1.4" /><rect x="820.39" y="314.32" width="6" height="8.06" rx="1.5" fill="#f6465d" /><line x1="834.13" y1="309.19" x2="834.13" y2="342.15" stroke="#0ecb81" stroke-width="1.4" /><rect x="831.13" y="321.64" width="6" height="2.00" rx="1.5" fill="#0ecb81" /><line x1="844.86" y1="309.19" x2="844.86" y2="382.43" stroke="#f6465d" stroke-width="1.4" /><rect x="841.86" y="322.38" width="6" height="43.94" rx="1.5" fill="#f6465d" /><line x1="855.59" y1="297.48" x2="855.59" y2="376.57" stroke="#0ecb81" stroke-width="1.4" /><rect x="852.59" y="297.48" width="6" height="69.57" rx="1.5" fill="#0ecb81" /><line x1="866.33" y1="298.21" x2="866.33" y2="383.16" stroke="#f6465d" stroke-width="1.4" /><rect x="863.33" y="298.21" width="6" height="58.59" rx="1.5" fill="#f6465d" /><line x1="877.06" y1="337.02" x2="877.06" y2="371.44" stroke="#0ecb81" stroke-width="1.4" /><rect x="874.06" y="350.94" width="6" height="5.86" rx="1.5" fill="#0ecb81" /><line x1="887.80" y1="334.83" x2="887.80" y2="374.37" stroke="#f6465d" stroke-width="1.4" /><rect x="884.80" y="350.94" width="6" height="23.43" rx="1.5" fill="#f6465d" /><line x1="898.53" y1="372.91" x2="898.53" y2="397.07" stroke="#f6465d" stroke-width="1.4" /><rect x="895.53" y="374.37" width="6" height="4.39" rx="1.5" fill="#f6465d" /><line x1="909.27" y1="340.68" x2="909.27" y2="391.22" stroke="#0ecb81" stroke-width="1.4" /><rect x="906.27" y="340.68" width="6" height="38.81" rx="1.5" fill="#0ecb81" /><line x1="920.00" y1="318.71" x2="920.00" y2="347.28" stroke="#0ecb81" stroke-width="1.4" /><rect x="917.00" y="323.84" width="6" height="16.11" rx="1.5" fill="#0ecb81" />
  <polyline points="72.00,127.57 82.73,389.75 179.34,170.78 222.28,339.95 329.62,60.93" fill="none" stroke="#2fc273" stroke-width="4" stroke-linecap="round" stroke-linejoin="round" />
  <circle cx="72.00" cy="127.57" r="5.5" fill="#2fc273" fill-opacity="0.15" stroke="#2fc273" stroke-width="2" /><text x="72.00" y="115.57" fill="#f3f4f6" font-size="15" font-weight="700" text-anchor="middle">X</text><circle cx="82.73" cy="389.75" r="5.5" fill="#2fc273" fill-opacity="0.15" stroke="#2fc273" stroke-width="2" /><text x="82.73" y="377.75" fill="#f3f4f6" font-size="15" font-weight="700" text-anchor="middle">A</text><circle cx="179.34" cy="170.78" r="5.5" fill="#2fc273" fill-opacity="0.15" stroke="#2fc273" stroke-width="2" /><text x="179.34" y="158.78" fill="#f3f4f6" font-size="15" font-weight="700" text-anchor="middle">B</text><circle cx="222.28" cy="339.95" r="5.5" fill="#2fc273" fill-opacity="0.15" stroke="#2fc273" stroke-width="2" /><text x="222.28" y="327.95" fill="#f3f4f6" font-size="15" font-weight="700" text-anchor="middle">C</text><circle cx="329.62" cy="60.93" r="5.5" fill="#2fc273" fill-opacity="0.15" stroke="#2fc273" stroke-width="2" /><text x="329.62" y="48.93" fill="#f3f4f6" font-size="15" font-weight="700" text-anchor="middle">D</text>
  <text x="56" y="492" fill="#8ba0b5" font-size="18">일반 완성 · TP1 331.265 · TP2 330.365 · SL 333.185</text>
</svg>
