<svg xmlns="http://www.w3.org/2000/svg" width="960" height="540" viewBox="0 0 960 540">
  <rect width="960" height="540" rx="24" fill="#0b1220" />
  <rect x="28" y="28" width="904" height="484" rx="22" fill="#111827" stroke="#1f2937" />
  <text x="56" y="74" fill="#f3f4f6" font-size="34" font-weight="700">XMRUSDT · AB=CD</text>
  <text x="904" y="74" fill="#8ba0b5" font-size="20" text-anchor="end">Bullish (매수) · Score 89.4</text>
  <line x1="72" y1="58" x2="920" y2="58" stroke="#223045" stroke-width="1" stroke-dasharray="4 8" /><line x1="72" y1="156" x2="920" y2="156" stroke="#223045" stroke-width="1" stroke-dasharray="4 8" /><line x1="72" y1="255" x2="920" y2="255" stroke="#223045" stroke-width="1" stroke-dasharray="4 8" /><line x1="72" y1="353" x2="920" y2="353" stroke="#223045" stroke-width="1" stroke-dasharray="4 8" /><line x1="72" y1="452" x2="920" y2="452" stroke="#223045" stroke-width="1" stroke-dasharray="4 8" />
  <rect x="344.56" y="459.76" width="84" height="142.70" fill="#fbbf24" fill-opacity="0.12" stroke="#fbbf24" stroke-width="1.5" stroke-dasharray="6 6" />
  <line x1="72.00" y1="113.53" x2="72.00" y2="207.84" stroke="#0ecb81" stroke-width="1.4" /><rect x="69.00" y="134.68" width="6" height="52.89" rx="1.5" fill="#0ecb81" /><line x1="82.73" y1="58.00" x2="82.73" y2="146.14" stroke="#0ecb81" stroke-width="1.4" /><rect x="79.73" y="80.92" width="6" height="54.65" rx="1.5" fill="#0ecb81" /><line x1="93.47" y1="80.04" x2="93.47" y2="212.25" stroke="#f6465d" stroke-width="1.4" /><rect x="90.47" y="80.92" width="6" height="105.77" rx="1.5" fill="#f6465d" /><line x1="104.20" y1="157.60" x2="104.20" y2="232.52" stroke="#f6465d" stroke-width="1.4" /><rect x="101.20" y="184.93" width="6" height="40.55" rx="1.5" fill="#f6465d" /><line x1="114.94" y1="218.42" x2="114.94" y2="257.20" stroke="#f6465d" stroke-width="1.4" /><rect x="111.94" y="225.47" width="6" height="28.21" rx="1.5" fill="#f6465d" /><line x1="125.67" y1="228.12" x2="125.67" y2="298.63" stroke="#0ecb81" stroke-width="1.4" /><rect x="122.67" y="250.15" width="6" height="3.53" rx="1.5" fill="#0ecb81" /><line x1="136.41" y1="251.03" x2="136.41" y2="286.29" stroke="#f6465d" stroke-width="1.4" /><rect x="133.41" y="251.03" width="6" height="31.73" rx="1.5" fill="#f6465d" /><line x1="147.14" y1="225.47" x2="147.14" y2="287.17" stroke="#0ecb81" stroke-width="1.4" /><rect x="144.14" y="257.20" width="6" height="25.56" rx="1.5" fill="#0ecb81" /><line x1="157.87" y1="205.20" x2="157.87" y2="300.39" stroke="#f6465d" stroke-width="1.4" /><rect x="154.87" y="256.32" width="6" height="32.61" rx="1.5" fill="#f6465d" /><line x1="168.61" y1="281.00" x2="168.61" y2="327.72" stroke="#f6465d" stroke-width="1.4" /><rect x="165.61" y="288.94" width="6" height="9.70" rx="1.5" fill="#f6465d" /><line x1="179.34" y1="277.48" x2="179.34" y2="334.77" stroke="#f6465d" stroke-width="1.4" /><rect x="176.34" y="298.63" width="6" height="24.68" rx="1.5" fill="#f6465d" /><line x1="190.08" y1="318.90" x2="190.08" y2="353.28" stroke="#f6465d" stroke-width="1.4" /><rect x="187.08" y="323.31" width="6" height="24.68" rx="1.5" fill="#f6465d" /><line x1="200.81" y1="312.73" x2="200.81" y2="362.98" stroke="#0ecb81" stroke-width="1.4" /><rect x="197.81" y="312.73" width="6" height="35.26" rx="1.5" fill="#0ecb81" /><line x1="211.54" y1="263.37" x2="211.54" y2="340.94" stroke="#0ecb81" stroke-width="1.4" /><rect x="208.54" y="298.63" width="6" height="14.10" rx="1.5" fill="#0ecb81" /><line x1="222.28" y1="283.65" x2="222.28" y2="323.31" stroke="#0ecb81" stroke-width="1.4" /><rect x="219.28" y="294.22" width="6" height="4.41" rx="1.5" fill="#0ecb81" /><line x1="233.01" y1="295.11" x2="233.01" y2="378.84" stroke="#f6465d" stroke-width="1.4" /><rect x="230.01" y="297.75" width="6" height="48.48" rx="1.5" fill="#f6465d" /><line x1="243.75" y1="295.11" x2="243.75" y2="376.20" stroke="#0ecb81" stroke-width="1.4" /><rect x="240.75" y="318.90" width="6" height="28.21" rx="1.5" fill="#0ecb81" /><line x1="254.48" y1="290.70" x2="254.48" y2="333.01" stroke="#0ecb81" stroke-width="1.4" /><rect x="251.48" y="308.33" width="6" height="10.58" rx="1.5" fill="#0ecb81" /><line x1="265.22" y1="285.41" x2="265.22" y2="317.14" stroke="#0ecb81" stroke-width="1.4" /><rect x="262.22" y="289.82" width="6" height="18.51" rx="1.5" fill="#0ecb81" /><line x1="275.95" y1="249.27" x2="275.95" y2="321.55" stroke="#f6465d" stroke-width="1.4" /><rect x="272.95" y="288.94" width="6" height="14.98" rx="1.5" fill="#f6465d" /><line x1="286.68" y1="274.83" x2="286.68" y2="337.41" stroke="#f6465d" stroke-width="1.4" /><rect x="283.68" y="303.04" width="6" height="33.49" rx="1.5" fill="#f6465d" /><line x1="297.42" y1="328.60" x2="297.42" y2="379.72" stroke="#f6465d" stroke-width="1.4" /><rect x="294.42" y="335.65" width="6" height="29.97" rx="1.5" fill="#f6465d" /><line x1="308.15" y1="309.21" x2="308.15" y2="370.03" stroke="#0ecb81" stroke-width="1.4" /><rect x="305.15" y="348.87" width="6" height="17.63" rx="1.5" fill="#0ecb81" /><line x1="318.89" y1="326.84" x2="318.89" y2="355.04" stroke="#f6465d" stroke-width="1.4" /><rect x="315.89" y="347.99" width="6" height="5.29" rx="1.5" fill="#f6465d" /><line x1="329.62" y1="322.43" x2="329.62" y2="400.88" stroke="#f6465d" stroke-width="1.4" /><rect x="326.62" y="350.64" width="6" height="21.15" rx="1.5" fill="#f6465d" /><line x1="340.35" y1="350.64" x2="340.35" y2="388.54" stroke="#f6465d" stroke-width="1.4" /><rect x="337.35" y="370.91" width="6" height="9.70" rx="1.5" fill="#f6465d" /><line x1="351.09" y1="362.09" x2="351.09" y2="422.03" stroke="#f6465d" stroke-width="1.4" /><rect x="348.09" y="377.96" width="6" height="15.87" rx="1.5" fill="#f6465d" /><line x1="361.82" y1="390.30" x2="361.82" y2="446.71" stroke="#f6465d" stroke-width="1.4" /><rect x="358.82" y="393.83" width="6" height="23.80" rx="1.5" fill="#f6465d" /><line x1="372.56" y1="396.47" x2="372.56" y2="448.47" stroke="#f6465d" stroke-width="1.4" /><rect x="369.56" y="417.62" width="6" height="2.00" rx="1.5" fill="#f6465d" /><line x1="383.29" y1="362.09" x2="383.29" y2="443.19" stroke="#0ecb81" stroke-width="1.4" /><rect x="380.29" y="385.01" width="6" height="33.49" rx="1.5" fill="#0ecb81" /><line x1="394.03" y1="323.31" x2="394.03" y2="422.03" stroke="#f6465d" stroke-width="1.4" /><rect x="391.03" y="384.13" width="6" height="18.51" rx="1.5" fill="#f6465d" /><line x1="404.76" y1="340.94" x2="404.76" y2="403.52" stroke="#0ecb81" stroke-width="1.4" /><rect x="401.76" y="388.54" width="6" height="13.22" rx="1.5" fill="#0ecb81" /><line x1="415.49" y1="377.96" x2="415.49" y2="452.00" stroke="#f6465d" stroke-width="1.4" /><rect x="412.49" y="388.54" width="6" height="29.09" rx="1.5" fill="#f6465d" /><line x1="426.23" y1="383.25" x2="426.23" y2="429.08" stroke="#0ecb81" stroke-width="1.4" /><rect x="423.23" y="385.89" width="6" height="31.73" rx="1.5" fill="#0ecb81" /><line x1="436.96" y1="328.60" x2="436.96" y2="395.59" stroke="#0ecb81" stroke-width="1.4" /><rect x="433.96" y="334.77" width="6" height="50.24" rx="1.5" fill="#0ecb81" /><line x1="447.70" y1="274.83" x2="447.70" y2="333.01" stroke="#0ecb81" stroke-width="1.4" /><rect x="444.70" y="289.82" width="6" height="43.19" rx="1.5" fill="#0ecb81" /><line x1="458.43" y1="241.34" x2="458.43" y2="289.82" stroke="#0ecb81" stroke-width="1.4" /><rect x="455.43" y="252.80" width="6" height="35.26" rx="1.5" fill="#0ecb81" /><line x1="469.16" y1="242.22" x2="469.16" y2="271.31" stroke="#0ecb81" stroke-width="1.4" /><rect x="466.16" y="242.22" width="6" height="9.70" rx="1.5" fill="#0ecb81" /><line x1="479.90" y1="237.81" x2="479.90" y2="314.50" stroke="#f6465d" stroke-width="1.4" /><rect x="476.90" y="241.34" width="6" height="49.36" rx="1.5" fill="#f6465d" /><line x1="490.63" y1="274.83" x2="490.63" y2="313.62" stroke="#0ecb81" stroke-width="1.4" /><rect x="487.63" y="282.77" width="6" height="7.05" rx="1.5" fill="#0ecb81" /><line x1="501.37" y1="277.48" x2="501.37" y2="300.39" stroke="#0ecb81" stroke-width="1.4" /><rect x="498.37" y="278.36" width="6" height="4.41" rx="1.5" fill="#0ecb81" /><line x1="512.10" y1="249.27" x2="512.10" y2="279.24" stroke="#0ecb81" stroke-width="1.4" /><rect x="509.10" y="259.85" width="6" height="18.51" rx="1.5" fill="#0ecb81" /><line x1="522.84" y1="235.17" x2="522.84" y2="266.90" stroke="#0ecb81" stroke-width="1.4" /><rect x="519.84" y="240.46" width="6" height="18.51" rx="1.5" fill="#0ecb81" /><line x1="533.57" y1="166.42" x2="533.57" y2="256.32" stroke="#0ecb81" stroke-width="1.4" /><rect x="530.57" y="179.64" width="6" height="59.06" rx="1.5" fill="#0ecb81" /><line x1="544.30" y1="168.18" x2="544.30" y2="194.62" stroke="#f6465d" stroke-width="1.4" /><rect x="541.30" y="179.64" width="6" height="4.41" rx="1.5" fill="#f6465d" /><line x1="555.04" y1="162.01" x2="555.04" y2="195.50" stroke="#0ecb81" stroke-width="1.4" /><rect x="552.04" y="177.87" width="6" height="6.17" rx="1.5" fill="#0ecb81" /><line x1="565.77" y1="145.26" x2="565.77" y2="177.87" stroke="#0ecb81" stroke-width="1.4" /><rect x="562.77" y="153.19" width="6" height="23.80" rx="1.5" fill="#0ecb81" /><line x1="576.51" y1="143.50" x2="576.51" y2="207.84" stroke="#f6465d" stroke-width="1.4" /><rect x="573.51" y="152.31" width="6" height="55.53" rx="1.5" fill="#f6465d" /><line x1="587.24" y1="204.32" x2="587.24" y2="224.59" stroke="#f6465d" stroke-width="1.4" /><rect x="584.24" y="207.84" width="6" height="11.46" rx="1.5" fill="#f6465d" /><line x1="597.97" y1="206.08" x2="597.97" y2="234.29" stroke="#0ecb81" stroke-width="1.4" /><rect x="594.97" y="214.01" width="6" height="4.41" rx="1.5" fill="#0ecb81" /><line x1="608.71" y1="182.28" x2="608.71" y2="262.49" stroke="#f6465d" stroke-width="1.4" /><rect x="605.71" y="214.01" width="6" height="38.78" rx="1.5" fill="#f6465d" /><line x1="619.44" y1="252.80" x2="619.44" y2="328.60" stroke="#f6465d" stroke-width="1.4" /><rect x="616.44" y="252.80" width="6" height="56.41" rx="1.5" fill="#f6465d" /><line x1="630.18" y1="288.94" x2="630.18" y2="316.26" stroke="#0ecb81" stroke-width="1.4" /><rect x="627.18" y="304.80" width="6" height="4.41" rx="1.5" fill="#0ecb81" /><line x1="640.91" y1="267.78" x2="640.91" y2="311.85" stroke="#0ecb81" stroke-width="1.4" /><rect x="637.91" y="283.65" width="6" height="20.27" rx="1.5" fill="#0ecb81" /><line x1="651.65" y1="260.73" x2="651.65" y2="305.68" stroke="#f6465d" stroke-width="1.4" /><rect x="648.65" y="284.53" width="6" height="6.17" rx="1.5" fill="#f6465d" /><line x1="662.38" y1="287.17" x2="662.38" y2="325.07" stroke="#f6465d" stroke-width="1.4" /><rect x="659.38" y="289.82" width="6" height="22.92" rx="1.5" fill="#f6465d" /><line x1="673.11" y1="295.99" x2="673.11" y2="339.18" stroke="#f6465d" stroke-width="1.4" /><rect x="670.11" y="312.73" width="6" height="4.41" rx="1.5" fill="#f6465d" /><line x1="683.85" y1="317.14" x2="683.85" y2="380.60" stroke="#f6465d" stroke-width="1.4" /><rect x="680.85" y="318.02" width="6" height="60.82" rx="1.5" fill="#f6465d" /><line x1="694.58" y1="298.63" x2="694.58" y2="377.96" stroke="#0ecb81" stroke-width="1.4" /><rect x="691.58" y="318.02" width="6" height="59.94" rx="1.5" fill="#0ecb81" /><line x1="705.32" y1="297.75" x2="705.32" y2="321.55" stroke="#0ecb81" stroke-width="1.4" /><rect x="702.32" y="313.62" width="6" height="4.41" rx="1.5" fill="#0ecb81" /><line x1="716.05" y1="294.22" x2="716.05" y2="335.65" stroke="#0ecb81" stroke-width="1.4" /><rect x="713.05" y="300.39" width="6" height="13.22" rx="1.5" fill="#0ecb81" /><line x1="726.78" y1="270.43" x2="726.78" y2="301.28" stroke="#0ecb81" stroke-width="1.4" /><rect x="723.78" y="278.36" width="6" height="22.04" rx="1.5" fill="#0ecb81" /><line x1="737.52" y1="273.07" x2="737.52" y2="325.07" stroke="#f6465d" stroke-width="1.4" /><rect x="734.52" y="279.24" width="6" height="9.70" rx="1.5" fill="#f6465d" /><line x1="748.25" y1="259.85" x2="748.25" y2="295.11" stroke="#f6465d" stroke-width="1.4" /><rect x="745.25" y="288.94" width="6" height="6.17" rx="1.5" fill="#f6465d" /><line x1="758.99" y1="241.34" x2="758.99" y2="307.45" stroke="#0ecb81" stroke-width="1.4" /><rect x="755.99" y="249.27" width="6" height="45.83" rx="1.5" fill="#0ecb81" /><line x1="769.72" y1="206.96" x2="769.72" y2="249.27" stroke="#0ecb81" stroke-width="1.4" /><rect x="766.72" y="240.46" width="6" height="7.93" rx="1.5" fill="#0ecb81" /><line x1="780.46" y1="232.52" x2="780.46" y2="281.88" stroke="#f6465d" stroke-width="1.4" /><rect x="777.46" y="241.34" width="6" height="29.09" rx="1.5" fill="#f6465d" /><line x1="791.19" y1="197.27" x2="791.19" y2="275.71" stroke="#0ecb81" stroke-width="1.4" /><rect x="788.19" y="219.30" width="6" height="50.24" rx="1.5" fill="#0ecb81" /><line x1="801.92" y1="177.87" x2="801.92" y2="219.30" stroke="#0ecb81" stroke-width="1.4" /><rect x="798.92" y="189.33" width="6" height="29.97" rx="1.5" fill="#0ecb81" /><line x1="812.66" y1="189.33" x2="812.66" y2="243.98" stroke="#f6465d" stroke-width="1.4" /><rect x="809.66" y="189.33" width="6" height="24.68" rx="1.5" fill="#f6465d" /><line x1="823.39" y1="177.87" x2="823.39" y2="213.13" stroke="#0ecb81" stroke-width="1.4" /><rect x="820.39" y="183.16" width="6" height="28.21" rx="1.5" fill="#0ecb81" /><line x1="834.13" y1="162.01" x2="834.13" y2="221.06" stroke="#0ecb81" stroke-width="1.4" /><rect x="831.13" y="167.30" width="6" height="16.75" rx="1.5" fill="#0ecb81" /><line x1="844.86" y1="164.65" x2="844.86" y2="212.25" stroke="#f6465d" stroke-width="1.4" /><rect x="841.86" y="169.06" width="6" height="7.93" rx="1.5" fill="#f6465d" /><line x1="855.59" y1="176.99" x2="855.59" y2="241.34" stroke="#f6465d" stroke-width="1.4" /><rect x="852.59" y="176.99" width="6" height="54.65" rx="1.5" fill="#f6465d" /><line x1="866.33" y1="221.95" x2="866.33" y2="257.20" stroke="#f6465d" stroke-width="1.4" /><rect x="863.33" y="229.88" width="6" height="22.92" rx="1.5" fill="#f6465d" /><line x1="877.06" y1="223.71" x2="877.06" y2="258.09" stroke="#0ecb81" stroke-width="1.4" /><rect x="874.06" y="237.81" width="6" height="14.98" rx="1.5" fill="#0ecb81" /><line x1="887.80" y1="231.64" x2="887.80" y2="261.61" stroke="#f6465d" stroke-width="1.4" /><rect x="884.80" y="237.81" width="6" height="2.00" rx="1.5" fill="#f6465d" /><line x1="898.53" y1="174.35" x2="898.53" y2="245.74" stroke="#0ecb81" stroke-width="1.4" /><rect x="895.53" y="174.35" width="6" height="65.23" rx="1.5" fill="#0ecb81" /><line x1="909.27" y1="135.57" x2="909.27" y2="199.91" stroke="#f6465d" stroke-width="1.4" /><rect x="906.27" y="173.47" width="6" height="3.53" rx="1.5" fill="#f6465d" /><line x1="920.00" y1="169.94" x2="920.00" y2="180.52" stroke="#0ecb81" stroke-width="1.4" /><rect x="917.00" y="169.94" width="6" height="6.17" rx="1.5" fill="#0ecb81" />
  <polyline points="72.00,281.00 82.73,58.00 233.01,378.84 275.95,249.27 372.56,448.47" fill="none" stroke="#2fc273" stroke-width="4" stroke-linecap="round" stroke-linejoin="round" />
  <circle cx="72.00" cy="281.00" r="5.5" fill="#2fc273" fill-opacity="0.15" stroke="#2fc273" stroke-width="2" /><text x="72.00" y="269.00" fill="#f3f4f6" font-size="15" font-weight="700" text-anchor="middle">X</text><circle cx="82.73" cy="58.00" r="5.5" fill="#2fc273" fill-opacity="0.15" stroke="#2fc273" stroke-width="2" /><text x="82.73" y="46.00" fill="#f3f4f6" font-size="15" font-weight="700" text-anchor="middle">A</text><circle cx="233.01" cy="378.84" r="5.5" fill="#2fc273" fill-opacity="0.15" stroke="#2fc273" stroke-width="2" /><text x="233.01" y="366.84" fill="#f3f4f6" font-size="15" font-weight="700" text-anchor="middle">B</text><circle cx="275.95" cy="249.27" r="5.5" fill="#2fc273" fill-opacity="0.15" stroke="#2fc273" stroke-width="2" /><text x="275.95" y="237.27" fill="#f3f4f6" font-size="15" font-weight="700" text-anchor="middle">C</text><circle cx="372.56" cy="448.47" r="5.5" fill="#2fc273" fill-opacity="0.15" stroke="#2fc273" stroke-width="2" /><text x="372.56" y="436.47" fill="#f3f4f6" font-size="15" font-weight="700" text-anchor="middle">D</text>
  <text x="56" y="492" fill="#8ba0b5" font-size="18">일반 완성 · TP1 325.603 · TP2 326.137 · SL 324.411</text>
</svg>
