<svg xmlns="http://www.w3.org/2000/svg" width="960" height="540" viewBox="0 0 960 540">
  <rect width="960" height="540" rx="24" fill="#0b1220" />
  <rect x="28" y="28" width="904" height="484" rx="22" fill="#111827" stroke="#1f2937" />
  <text x="56" y="74" fill="#f3f4f6" font-size="34" font-weight="700">XPLUSDT · AB=CD</text>
  <text x="904" y="74" fill="#8ba0b5" font-size="20" text-anchor="end">Bullish (매수) · Score 89.6</text>
  <line x1="72" y1="58" x2="920" y2="58" stroke="#223045" stroke-width="1" stroke-dasharray="4 8" /><line x1="72" y1="156" x2="920" y2="156" stroke="#223045" stroke-width="1" stroke-dasharray="4 8" /><line x1="72" y1="255" x2="920" y2="255" stroke="#223045" stroke-width="1" stroke-dasharray="4 8" /><line x1="72" y1="353" x2="920" y2="353" stroke="#223045" stroke-width="1" stroke-dasharray="4 8" /><line x1="72" y1="452" x2="920" y2="452" stroke="#223045" stroke-width="1" stroke-dasharray="4 8" />
  <rect x="527.04" y="330.49" width="84" height="55.97" fill="#fbbf24" fill-opacity="0.12" stroke="#fbbf24" stroke-width="1.5" stroke-dasharray="6 6" />
  <line x1="72.00" y1="393.08" x2="72.00" y2="407.81" stroke="#0ecb81" stroke-width="1.4" /><rect x="69.00" y="404.13" width="6" height="3.68" rx="1.5" fill="#0ecb81" /><line x1="82.73" y1="389.40" x2="82.73" y2="404.13" stroke="#0ecb81" stroke-width="1.4" /><rect x="79.73" y="400.45" width="6" height="3.68" rx="1.5" fill="#0ecb81" /><line x1="93.47" y1="396.77" x2="93.47" y2="418.86" stroke="#f6465d" stroke-width="1.4" /><rect x="90.47" y="400.45" width="6" height="3.68" rx="1.5" fill="#f6465d" /><line x1="104.20" y1="396.77" x2="104.20" y2="404.13" stroke="#0ecb81" stroke-width="1.4" /><rect x="101.20" y="404.13" width="6" height="2.00" rx="1.5" fill="#0ecb81" /><line x1="114.94" y1="389.40" x2="114.94" y2="411.50" stroke="#0ecb81" stroke-width="1.4" /><rect x="111.94" y="393.08" width="6" height="11.05" rx="1.5" fill="#0ecb81" /><line x1="125.67" y1="385.72" x2="125.67" y2="404.13" stroke="#f6465d" stroke-width="1.4" /><rect x="122.67" y="389.40" width="6" height="14.73" rx="1.5" fill="#f6465d" /><line x1="136.41" y1="396.77" x2="136.41" y2="407.81" stroke="#0ecb81" stroke-width="1.4" /><rect x="133.41" y="404.13" width="6" height="2.00" rx="1.5" fill="#0ecb81" /><line x1="147.14" y1="400.45" x2="147.14" y2="411.50" stroke="#f6465d" stroke-width="1.4" /><rect x="144.14" y="404.13" width="6" height="7.36" rx="1.5" fill="#f6465d" /><line x1="157.87" y1="404.13" x2="157.87" y2="437.27" stroke="#f6465d" stroke-width="1.4" /><rect x="154.87" y="411.50" width="6" height="25.78" rx="1.5" fill="#f6465d" /><line x1="168.61" y1="418.86" x2="168.61" y2="452.00" stroke="#0ecb81" stroke-width="1.4" /><rect x="165.61" y="429.91" width="6" height="3.68" rx="1.5" fill="#0ecb81" /><line x1="179.34" y1="348.90" x2="179.34" y2="440.95" stroke="#0ecb81" stroke-width="1.4" /><rect x="176.34" y="393.08" width="6" height="36.82" rx="1.5" fill="#0ecb81" /><line x1="190.08" y1="389.40" x2="190.08" y2="418.86" stroke="#0ecb81" stroke-width="1.4" /><rect x="187.08" y="393.08" width="6" height="2.00" rx="1.5" fill="#0ecb81" /><line x1="200.81" y1="389.40" x2="200.81" y2="422.54" stroke="#f6465d" stroke-width="1.4" /><rect x="197.81" y="396.77" width="6" height="22.09" rx="1.5" fill="#f6465d" /><line x1="211.54" y1="404.13" x2="211.54" y2="422.54" stroke="#0ecb81" stroke-width="1.4" /><rect x="208.54" y="407.81" width="6" height="7.36" rx="1.5" fill="#0ecb81" /><line x1="222.28" y1="389.40" x2="222.28" y2="411.50" stroke="#0ecb81" stroke-width="1.4" /><rect x="219.28" y="393.08" width="6" height="14.73" rx="1.5" fill="#0ecb81" /><line x1="233.01" y1="352.58" x2="233.01" y2="396.77" stroke="#0ecb81" stroke-width="1.4" /><rect x="230.01" y="374.67" width="6" height="18.41" rx="1.5" fill="#0ecb81" /><line x1="243.75" y1="341.53" x2="243.75" y2="382.04" stroke="#0ecb81" stroke-width="1.4" /><rect x="240.75" y="352.58" width="6" height="22.09" rx="1.5" fill="#0ecb81" /><line x1="254.48" y1="323.12" x2="254.48" y2="363.63" stroke="#0ecb81" stroke-width="1.4" /><rect x="251.48" y="348.90" width="6" height="3.68" rx="1.5" fill="#0ecb81" /><line x1="265.22" y1="334.17" x2="265.22" y2="363.63" stroke="#0ecb81" stroke-width="1.4" /><rect x="262.22" y="345.21" width="6" height="3.68" rx="1.5" fill="#0ecb81" /><line x1="275.95" y1="323.12" x2="275.95" y2="359.94" stroke="#f6465d" stroke-width="1.4" /><rect x="272.95" y="341.53" width="6" height="18.41" rx="1.5" fill="#f6465d" /><line x1="286.68" y1="315.76" x2="286.68" y2="359.94" stroke="#0ecb81" stroke-width="1.4" /><rect x="283.68" y="330.49" width="6" height="29.46" rx="1.5" fill="#0ecb81" /><line x1="297.42" y1="319.44" x2="297.42" y2="359.94" stroke="#f6465d" stroke-width="1.4" /><rect x="294.42" y="330.49" width="6" height="7.36" rx="1.5" fill="#f6465d" /><line x1="308.15" y1="301.03" x2="308.15" y2="341.53" stroke="#0ecb81" stroke-width="1.4" /><rect x="305.15" y="304.71" width="6" height="33.14" rx="1.5" fill="#0ecb81" /><line x1="318.89" y1="245.79" x2="318.89" y2="308.39" stroke="#0ecb81" stroke-width="1.4" /><rect x="315.89" y="245.79" width="6" height="55.23" rx="1.5" fill="#0ecb81" /><line x1="329.62" y1="172.15" x2="329.62" y2="253.16" stroke="#0ecb81" stroke-width="1.4" /><rect x="326.62" y="205.29" width="6" height="44.19" rx="1.5" fill="#0ecb81" /><line x1="340.35" y1="201.61" x2="340.35" y2="267.89" stroke="#f6465d" stroke-width="1.4" /><rect x="337.35" y="205.29" width="6" height="33.14" rx="1.5" fill="#f6465d" /><line x1="351.09" y1="223.70" x2="351.09" y2="264.21" stroke="#f6465d" stroke-width="1.4" /><rect x="348.09" y="238.43" width="6" height="25.78" rx="1.5" fill="#f6465d" /><line x1="361.82" y1="231.07" x2="361.82" y2="282.62" stroke="#0ecb81" stroke-width="1.4" /><rect x="358.82" y="245.79" width="6" height="18.41" rx="1.5" fill="#0ecb81" /><line x1="372.56" y1="216.34" x2="372.56" y2="264.21" stroke="#0ecb81" stroke-width="1.4" /><rect x="369.56" y="249.48" width="6" height="2.00" rx="1.5" fill="#0ecb81" /><line x1="383.29" y1="208.97" x2="383.29" y2="256.84" stroke="#0ecb81" stroke-width="1.4" /><rect x="380.29" y="208.97" width="6" height="36.82" rx="1.5" fill="#0ecb81" /><line x1="394.03" y1="208.97" x2="394.03" y2="234.75" stroke="#f6465d" stroke-width="1.4" /><rect x="391.03" y="212.65" width="6" height="7.36" rx="1.5" fill="#f6465d" /><line x1="404.76" y1="220.02" x2="404.76" y2="271.57" stroke="#f6465d" stroke-width="1.4" /><rect x="401.76" y="223.70" width="6" height="29.46" rx="1.5" fill="#f6465d" /><line x1="415.49" y1="245.79" x2="415.49" y2="256.84" stroke="#0ecb81" stroke-width="1.4" /><rect x="412.49" y="249.48" width="6" height="3.68" rx="1.5" fill="#0ecb81" /><line x1="426.23" y1="220.02" x2="426.23" y2="260.52" stroke="#f6465d" stroke-width="1.4" /><rect x="423.23" y="245.79" width="6" height="3.68" rx="1.5" fill="#f6465d" /><line x1="436.96" y1="231.07" x2="436.96" y2="253.16" stroke="#0ecb81" stroke-width="1.4" /><rect x="433.96" y="234.75" width="6" height="14.73" rx="1.5" fill="#0ecb81" /><line x1="447.70" y1="220.02" x2="447.70" y2="260.52" stroke="#f6465d" stroke-width="1.4" /><rect x="444.70" y="234.75" width="6" height="14.73" rx="1.5" fill="#f6465d" /><line x1="458.43" y1="238.43" x2="458.43" y2="286.30" stroke="#f6465d" stroke-width="1.4" /><rect x="455.43" y="249.48" width="6" height="29.46" rx="1.5" fill="#f6465d" /><line x1="469.16" y1="267.89" x2="469.16" y2="315.76" stroke="#f6465d" stroke-width="1.4" /><rect x="466.16" y="282.62" width="6" height="11.05" rx="1.5" fill="#f6465d" /><line x1="479.90" y1="286.30" x2="479.90" y2="304.71" stroke="#0ecb81" stroke-width="1.4" /><rect x="476.90" y="293.66" width="6" height="2.00" rx="1.5" fill="#0ecb81" /><line x1="490.63" y1="271.57" x2="490.63" y2="304.71" stroke="#f6465d" stroke-width="1.4" /><rect x="487.63" y="293.66" width="6" height="7.36" rx="1.5" fill="#f6465d" /><line x1="501.37" y1="286.30" x2="501.37" y2="301.03" stroke="#0ecb81" stroke-width="1.4" /><rect x="498.37" y="297.35" width="6" height="3.68" rx="1.5" fill="#0ecb81" /><line x1="512.10" y1="249.48" x2="512.10" y2="297.35" stroke="#0ecb81" stroke-width="1.4" /><rect x="509.10" y="260.52" width="6" height="33.14" rx="1.5" fill="#0ecb81" /><line x1="522.84" y1="238.43" x2="522.84" y2="264.21" stroke="#0ecb81" stroke-width="1.4" /><rect x="519.84" y="253.16" width="6" height="7.36" rx="1.5" fill="#0ecb81" /><line x1="533.57" y1="234.75" x2="533.57" y2="264.21" stroke="#f6465d" stroke-width="1.4" /><rect x="530.57" y="253.16" width="6" height="11.05" rx="1.5" fill="#f6465d" /><line x1="544.30" y1="245.79" x2="544.30" y2="264.21" stroke="#0ecb81" stroke-width="1.4" /><rect x="541.30" y="264.21" width="6" height="2.00" rx="1.5" fill="#0ecb81" /><line x1="555.04" y1="260.52" x2="555.04" y2="304.71" stroke="#f6465d" stroke-width="1.4" /><rect x="552.04" y="264.21" width="6" height="22.09" rx="1.5" fill="#f6465d" /><line x1="565.77" y1="271.57" x2="565.77" y2="289.98" stroke="#0ecb81" stroke-width="1.4" /><rect x="562.77" y="271.57" width="6" height="14.73" rx="1.5" fill="#0ecb81" /><line x1="576.51" y1="260.52" x2="576.51" y2="286.30" stroke="#f6465d" stroke-width="1.4" /><rect x="573.51" y="267.89" width="6" height="14.73" rx="1.5" fill="#f6465d" /><line x1="587.24" y1="249.48" x2="587.24" y2="286.30" stroke="#0ecb81" stroke-width="1.4" /><rect x="584.24" y="253.16" width="6" height="29.46" rx="1.5" fill="#0ecb81" /><line x1="597.97" y1="234.75" x2="597.97" y2="271.57" stroke="#0ecb81" stroke-width="1.4" /><rect x="594.97" y="238.43" width="6" height="11.05" rx="1.5" fill="#0ecb81" /><line x1="608.71" y1="212.65" x2="608.71" y2="242.11" stroke="#0ecb81" stroke-width="1.4" /><rect x="605.71" y="227.38" width="6" height="11.05" rx="1.5" fill="#0ecb81" /><line x1="619.44" y1="216.34" x2="619.44" y2="249.48" stroke="#f6465d" stroke-width="1.4" /><rect x="616.44" y="227.38" width="6" height="7.36" rx="1.5" fill="#f6465d" /><line x1="630.18" y1="205.29" x2="630.18" y2="242.11" stroke="#0ecb81" stroke-width="1.4" /><rect x="627.18" y="220.02" width="6" height="14.73" rx="1.5" fill="#0ecb81" /><line x1="640.91" y1="220.02" x2="640.91" y2="245.79" stroke="#f6465d" stroke-width="1.4" /><rect x="637.91" y="223.70" width="6" height="18.41" rx="1.5" fill="#f6465d" /><line x1="651.65" y1="208.97" x2="651.65" y2="245.79" stroke="#0ecb81" stroke-width="1.4" /><rect x="648.65" y="216.34" width="6" height="25.78" rx="1.5" fill="#0ecb81" /><line x1="662.38" y1="194.24" x2="662.38" y2="220.02" stroke="#0ecb81" stroke-width="1.4" /><rect x="659.38" y="208.97" width="6" height="7.36" rx="1.5" fill="#0ecb81" /><line x1="673.11" y1="197.93" x2="673.11" y2="216.34" stroke="#0ecb81" stroke-width="1.4" /><rect x="670.11" y="197.93" width="6" height="7.36" rx="1.5" fill="#0ecb81" /><line x1="683.85" y1="194.24" x2="683.85" y2="220.02" stroke="#f6465d" stroke-width="1.4" /><rect x="680.85" y="197.93" width="6" height="22.09" rx="1.5" fill="#f6465d" /><line x1="694.58" y1="212.65" x2="694.58" y2="238.43" stroke="#f6465d" stroke-width="1.4" /><rect x="691.58" y="216.34" width="6" height="11.05" rx="1.5" fill="#f6465d" /><line x1="705.32" y1="172.15" x2="705.32" y2="231.07" stroke="#0ecb81" stroke-width="1.4" /><rect x="702.32" y="212.65" width="6" height="14.73" rx="1.5" fill="#0ecb81" /><line x1="716.05" y1="183.20" x2="716.05" y2="227.38" stroke="#0ecb81" stroke-width="1.4" /><rect x="713.05" y="194.24" width="6" height="18.41" rx="1.5" fill="#0ecb81" /><line x1="726.78" y1="175.83" x2="726.78" y2="205.29" stroke="#f6465d" stroke-width="1.4" /><rect x="723.78" y="194.24" width="6" height="7.36" rx="1.5" fill="#f6465d" /><line x1="737.52" y1="190.56" x2="737.52" y2="212.65" stroke="#0ecb81" stroke-width="1.4" /><rect x="734.52" y="194.24" width="6" height="11.05" rx="1.5" fill="#0ecb81" /><line x1="748.25" y1="164.79" x2="748.25" y2="194.24" stroke="#0ecb81" stroke-width="1.4" /><rect x="745.25" y="172.15" width="6" height="22.09" rx="1.5" fill="#0ecb81" /><line x1="758.99" y1="127.96" x2="758.99" y2="175.83" stroke="#0ecb81" stroke-width="1.4" /><rect x="755.99" y="146.37" width="6" height="25.78" rx="1.5" fill="#0ecb81" /><line x1="769.72" y1="142.69" x2="769.72" y2="161.10" stroke="#f6465d" stroke-width="1.4" /><rect x="766.72" y="146.37" width="6" height="11.05" rx="1.5" fill="#f6465d" /><line x1="780.46" y1="80.09" x2="780.46" y2="161.10" stroke="#0ecb81" stroke-width="1.4" /><rect x="777.46" y="94.82" width="6" height="62.60" rx="1.5" fill="#0ecb81" /><line x1="791.19" y1="65.36" x2="791.19" y2="94.82" stroke="#0ecb81" stroke-width="1.4" /><rect x="788.19" y="72.73" width="6" height="18.41" rx="1.5" fill="#0ecb81" /><line x1="801.92" y1="61.68" x2="801.92" y2="98.50" stroke="#0ecb81" stroke-width="1.4" /><rect x="798.92" y="72.73" width="6" height="3.68" rx="1.5" fill="#0ecb81" /><line x1="812.66" y1="58.00" x2="812.66" y2="102.19" stroke="#f6465d" stroke-width="1.4" /><rect x="809.66" y="69.05" width="6" height="14.73" rx="1.5" fill="#f6465d" /><line x1="823.39" y1="76.41" x2="823.39" y2="116.92" stroke="#0ecb81" stroke-width="1.4" /><rect x="820.39" y="83.78" width="6" height="2.00" rx="1.5" fill="#0ecb81" /><line x1="834.13" y1="76.41" x2="834.13" y2="146.37" stroke="#f6465d" stroke-width="1.4" /><rect x="831.13" y="83.78" width="6" height="58.92" rx="1.5" fill="#f6465d" /><line x1="844.86" y1="127.96" x2="844.86" y2="190.56" stroke="#f6465d" stroke-width="1.4" /><rect x="841.86" y="139.01" width="6" height="47.87" rx="1.5" fill="#f6465d" /><line x1="855.59" y1="161.10" x2="855.59" y2="208.97" stroke="#f6465d" stroke-width="1.4" /><rect x="852.59" y="186.88" width="6" height="18.41" rx="1.5" fill="#f6465d" /><line x1="866.33" y1="179.51" x2="866.33" y2="208.97" stroke="#0ecb81" stroke-width="1.4" /><rect x="863.33" y="183.20" width="6" height="22.09" rx="1.5" fill="#0ecb81" /><line x1="877.06" y1="146.37" x2="877.06" y2="194.24" stroke="#0ecb81" stroke-width="1.4" /><rect x="874.06" y="164.79" width="6" height="18.41" rx="1.5" fill="#0ecb81" /><line x1="887.80" y1="153.74" x2="887.80" y2="179.51" stroke="#f6465d" stroke-width="1.4" /><rect x="884.80" y="164.79" width="6" height="11.05" rx="1.5" fill="#f6465d" /><line x1="898.53" y1="172.15" x2="898.53" y2="242.11" stroke="#f6465d" stroke-width="1.4" /><rect x="895.53" y="175.83" width="6" height="47.87" rx="1.5" fill="#f6465d" /><line x1="909.27" y1="208.97" x2="909.27" y2="227.38" stroke="#0ecb81" stroke-width="1.4" /><rect x="906.27" y="216.34" width="6" height="7.36" rx="1.5" fill="#0ecb81" /><line x1="920.00" y1="186.88" x2="920.00" y2="216.34" stroke="#0ecb81" stroke-width="1.4" /><rect x="917.00" y="197.93" width="6" height="18.41" rx="1.5" fill="#0ecb81" />
  <polyline points="404.76,271.57 447.70,220.02 469.16,315.76 533.57,234.75 555.04,304.71" fill="none" stroke="#2fc273" stroke-width="4" stroke-linecap="round" stroke-linejoin="round" />
  <circle cx="404.76" cy="271.57" r="5.5" fill="#2fc273" fill-opacity="0.15" stroke="#2fc273" stroke-width="2" /><text x="404.76" y="259.57" fill="#f3f4f6" font-size="15" font-weight="700" text-anchor="middle">X</text><circle cx="447.70" cy="220.02" r="5.5" fill="#2fc273" fill-opacity="0.15" stroke="#2fc273" stroke-width="2" /><text x="447.70" y="208.02" fill="#f3f4f6" font-size="15" font-weight="700" text-anchor="middle">A</text><circle cx="469.16" cy="315.76" r="5.5" fill="#2fc273" fill-opacity="0.15" stroke="#2fc273" stroke-width="2" /><text x="469.16" y="303.76" fill="#f3f4f6" font-size="15" font-weight="700" text-anchor="middle">B</text><circle cx="533.57" cy="234.75" r="5.5" fill="#2fc273" fill-opacity="0.15" stroke="#2fc273" stroke-width="2" /><text x="533.57" y="222.75" fill="#f3f4f6" font-size="15" font-weight="700" text-anchor="middle">C</text><circle cx="555.04" cy="304.71" r="5.5" fill="#2fc273" fill-opacity="0.15" stroke="#2fc273" stroke-width="2" /><text x="555.04" y="292.71" fill="#f3f4f6" font-size="15" font-weight="700" text-anchor="middle">D</text>
  <text x="56" y="492" fill="#8ba0b5" font-size="18">일반 완성 · TP1 0.12083 · TP2 0.12127 · SL 0.11992</text>
</svg>
