<svg xmlns="http://www.w3.org/2000/svg" width="960" height="540" viewBox="0 0 960 540">
  <rect width="960" height="540" rx="24" fill="#0b1220" />
  <rect x="28" y="28" width="904" height="484" rx="22" fill="#111827" stroke="#1f2937" />
  <text x="56" y="74" fill="#f3f4f6" font-size="34" font-weight="700">XRPUSDT · AB=CD</text>
  <text x="904" y="74" fill="#8ba0b5" font-size="20" text-anchor="end">Bearish (매도) · Score 93.7</text>
  <line x1="72" y1="58" x2="920" y2="58" stroke="#223045" stroke-width="1" stroke-dasharray="4 8" /><line x1="72" y1="156" x2="920" y2="156" stroke="#223045" stroke-width="1" stroke-dasharray="4 8" /><line x1="72" y1="255" x2="920" y2="255" stroke="#223045" stroke-width="1" stroke-dasharray="4 8" /><line x1="72" y1="353" x2="920" y2="353" stroke="#223045" stroke-width="1" stroke-dasharray="4 8" /><line x1="72" y1="452" x2="920" y2="452" stroke="#223045" stroke-width="1" stroke-dasharray="4 8" />
  <rect x="484.10" y="54.23" width="84" height="51.23" fill="#fbbf24" fill-opacity="0.12" stroke="#fbbf24" stroke-width="1.5" stroke-dasharray="6 6" />
  <line x1="72.00" y1="421.11" x2="72.00" y2="433.17" stroke="#f6465d" stroke-width="1.4" /><rect x="69.00" y="422.62" width="6" height="7.53" rx="1.5" fill="#f6465d" /><line x1="82.73" y1="424.13" x2="82.73" y2="431.66" stroke="#0ecb81" stroke-width="1.4" /><rect x="79.73" y="427.89" width="6" height="2.26" rx="1.5" fill="#0ecb81" /><line x1="93.47" y1="427.89" x2="93.47" y2="437.69" stroke="#f6465d" stroke-width="1.4" /><rect x="90.47" y="428.65" width="6" height="2.26" rx="1.5" fill="#f6465d" /><line x1="104.20" y1="425.63" x2="104.20" y2="430.91" stroke="#0ecb81" stroke-width="1.4" /><rect x="101.20" y="426.39" width="6" height="3.77" rx="1.5" fill="#0ecb81" /><line x1="114.94" y1="424.88" x2="114.94" y2="429.40" stroke="#f6465d" stroke-width="1.4" /><rect x="111.94" y="426.39" width="6" height="2.00" rx="1.5" fill="#f6465d" /><line x1="125.67" y1="418.10" x2="125.67" y2="442.21" stroke="#f6465d" stroke-width="1.4" /><rect x="122.67" y="427.14" width="6" height="2.00" rx="1.5" fill="#f6465d" /><line x1="136.41" y1="416.59" x2="136.41" y2="431.66" stroke="#0ecb81" stroke-width="1.4" /><rect x="133.41" y="417.35" width="6" height="10.55" rx="1.5" fill="#0ecb81" /><line x1="147.14" y1="403.03" x2="147.14" y2="421.11" stroke="#0ecb81" stroke-width="1.4" /><rect x="144.14" y="406.05" width="6" height="11.30" rx="1.5" fill="#0ecb81" /><line x1="157.87" y1="404.54" x2="157.87" y2="427.14" stroke="#f6465d" stroke-width="1.4" /><rect x="154.87" y="406.05" width="6" height="17.33" rx="1.5" fill="#f6465d" /><line x1="168.61" y1="387.97" x2="168.61" y2="433.92" stroke="#0ecb81" stroke-width="1.4" /><rect x="165.61" y="390.23" width="6" height="33.15" rx="1.5" fill="#0ecb81" /><line x1="179.34" y1="390.23" x2="179.34" y2="414.33" stroke="#f6465d" stroke-width="1.4" /><rect x="176.34" y="390.23" width="6" height="15.07" rx="1.5" fill="#f6465d" /><line x1="190.08" y1="403.79" x2="190.08" y2="434.67" stroke="#f6465d" stroke-width="1.4" /><rect x="187.08" y="404.54" width="6" height="15.07" rx="1.5" fill="#f6465d" /><line x1="200.81" y1="414.33" x2="200.81" y2="429.40" stroke="#f6465d" stroke-width="1.4" /><rect x="197.81" y="418.85" width="6" height="9.79" rx="1.5" fill="#f6465d" /><line x1="211.54" y1="424.13" x2="211.54" y2="449.74" stroke="#f6465d" stroke-width="1.4" /><rect x="208.54" y="428.65" width="6" height="12.81" rx="1.5" fill="#f6465d" /><line x1="222.28" y1="434.67" x2="222.28" y2="452.00" stroke="#0ecb81" stroke-width="1.4" /><rect x="219.28" y="435.43" width="6" height="6.03" rx="1.5" fill="#0ecb81" /><line x1="233.01" y1="409.81" x2="233.01" y2="439.95" stroke="#0ecb81" stroke-width="1.4" /><rect x="230.01" y="426.39" width="6" height="9.79" rx="1.5" fill="#0ecb81" /><line x1="243.75" y1="416.59" x2="243.75" y2="436.18" stroke="#0ecb81" stroke-width="1.4" /><rect x="240.75" y="417.35" width="6" height="8.29" rx="1.5" fill="#0ecb81" /><line x1="254.48" y1="376.67" x2="254.48" y2="425.63" stroke="#0ecb81" stroke-width="1.4" /><rect x="251.48" y="390.23" width="6" height="27.12" rx="1.5" fill="#0ecb81" /><line x1="265.22" y1="354.82" x2="265.22" y2="390.98" stroke="#0ecb81" stroke-width="1.4" /><rect x="262.22" y="373.65" width="6" height="17.33" rx="1.5" fill="#0ecb81" /><line x1="275.95" y1="364.61" x2="275.95" y2="382.69" stroke="#f6465d" stroke-width="1.4" /><rect x="272.95" y="373.65" width="6" height="5.27" rx="1.5" fill="#f6465d" /><line x1="286.68" y1="329.20" x2="286.68" y2="379.68" stroke="#0ecb81" stroke-width="1.4" /><rect x="283.68" y="335.98" width="6" height="42.94" rx="1.5" fill="#0ecb81" /><line x1="297.42" y1="314.14" x2="297.42" y2="343.52" stroke="#0ecb81" stroke-width="1.4" /><rect x="294.42" y="332.97" width="6" height="3.01" rx="1.5" fill="#0ecb81" /><line x1="308.15" y1="286.26" x2="308.15" y2="334.48" stroke="#0ecb81" stroke-width="1.4" /><rect x="305.15" y="311.88" width="6" height="21.09" rx="1.5" fill="#0ecb81" /><line x1="318.89" y1="277.22" x2="318.89" y2="319.41" stroke="#0ecb81" stroke-width="1.4" /><rect x="315.89" y="277.22" width="6" height="34.65" rx="1.5" fill="#0ecb81" /><line x1="329.62" y1="184.56" x2="329.62" y2="277.98" stroke="#0ecb81" stroke-width="1.4" /><rect x="326.62" y="212.44" width="6" height="64.79" rx="1.5" fill="#0ecb81" /><line x1="340.35" y1="186.82" x2="340.35" y2="254.62" stroke="#f6465d" stroke-width="1.4" /><rect x="337.35" y="213.19" width="6" height="32.39" rx="1.5" fill="#f6465d" /><line x1="351.09" y1="229.01" x2="351.09" y2="251.61" stroke="#0ecb81" stroke-width="1.4" /><rect x="348.09" y="240.31" width="6" height="6.03" rx="1.5" fill="#0ecb81" /><line x1="361.82" y1="205.66" x2="361.82" y2="244.08" stroke="#0ecb81" stroke-width="1.4" /><rect x="358.82" y="226.75" width="6" height="14.31" rx="1.5" fill="#0ecb81" /><line x1="372.56" y1="214.70" x2="372.56" y2="244.08" stroke="#f6465d" stroke-width="1.4" /><rect x="369.56" y="226.75" width="6" height="15.82" rx="1.5" fill="#f6465d" /><line x1="383.29" y1="233.53" x2="383.29" y2="254.62" stroke="#f6465d" stroke-width="1.4" /><rect x="380.29" y="241.82" width="6" height="8.29" rx="1.5" fill="#f6465d" /><line x1="394.03" y1="232.02" x2="394.03" y2="251.61" stroke="#0ecb81" stroke-width="1.4" /><rect x="391.03" y="247.09" width="6" height="2.26" rx="1.5" fill="#0ecb81" /><line x1="404.76" y1="226.00" x2="404.76" y2="249.35" stroke="#0ecb81" stroke-width="1.4" /><rect x="401.76" y="238.05" width="6" height="9.04" rx="1.5" fill="#0ecb81" /><line x1="415.49" y1="228.26" x2="415.49" y2="238.80" stroke="#0ecb81" stroke-width="1.4" /><rect x="412.49" y="229.01" width="6" height="9.04" rx="1.5" fill="#0ecb81" /><line x1="426.23" y1="135.59" x2="426.23" y2="229.01" stroke="#0ecb81" stroke-width="1.4" /><rect x="423.23" y="174.77" width="6" height="54.24" rx="1.5" fill="#0ecb81" /><line x1="436.96" y1="146.14" x2="436.96" y2="181.55" stroke="#0ecb81" stroke-width="1.4" /><rect x="433.96" y="174.02" width="6" height="2.00" rx="1.5" fill="#0ecb81" /><line x1="447.70" y1="174.02" x2="447.70" y2="193.60" stroke="#f6465d" stroke-width="1.4" /><rect x="444.70" y="174.02" width="6" height="2.00" rx="1.5" fill="#f6465d" /><line x1="458.43" y1="150.66" x2="458.43" y2="175.52" stroke="#0ecb81" stroke-width="1.4" /><rect x="455.43" y="166.48" width="6" height="9.04" rx="1.5" fill="#0ecb81" /><line x1="469.16" y1="154.43" x2="469.16" y2="196.62" stroke="#0ecb81" stroke-width="1.4" /><rect x="466.16" y="155.18" width="6" height="11.30" rx="1.5" fill="#0ecb81" /><line x1="479.90" y1="146.89" x2="479.90" y2="167.99" stroke="#f6465d" stroke-width="1.4" /><rect x="476.90" y="154.43" width="6" height="7.53" rx="1.5" fill="#f6465d" /><line x1="490.63" y1="137.10" x2="490.63" y2="170.25" stroke="#f6465d" stroke-width="1.4" /><rect x="487.63" y="161.96" width="6" height="3.77" rx="1.5" fill="#f6465d" /><line x1="501.37" y1="155.18" x2="501.37" y2="173.26" stroke="#0ecb81" stroke-width="1.4" /><rect x="498.37" y="159.70" width="6" height="6.78" rx="1.5" fill="#0ecb81" /><line x1="512.10" y1="127.31" x2="512.10" y2="163.47" stroke="#0ecb81" stroke-width="1.4" /><rect x="509.10" y="145.39" width="6" height="14.31" rx="1.5" fill="#0ecb81" /><line x1="522.84" y1="142.37" x2="522.84" y2="171.76" stroke="#f6465d" stroke-width="1.4" /><rect x="519.84" y="145.39" width="6" height="26.37" rx="1.5" fill="#f6465d" /><line x1="533.57" y1="165.73" x2="533.57" y2="190.59" stroke="#f6465d" stroke-width="1.4" /><rect x="530.57" y="171.76" width="6" height="14.31" rx="1.5" fill="#f6465d" /><line x1="544.30" y1="180.04" x2="544.30" y2="195.11" stroke="#f6465d" stroke-width="1.4" /><rect x="541.30" y="186.07" width="6" height="4.52" rx="1.5" fill="#f6465d" /><line x1="555.04" y1="174.77" x2="555.04" y2="205.66" stroke="#f6465d" stroke-width="1.4" /><rect x="552.04" y="190.59" width="6" height="7.53" rx="1.5" fill="#f6465d" /><line x1="565.77" y1="188.33" x2="565.77" y2="218.46" stroke="#f6465d" stroke-width="1.4" /><rect x="562.77" y="197.37" width="6" height="13.56" rx="1.5" fill="#f6465d" /><line x1="576.51" y1="202.64" x2="576.51" y2="216.96" stroke="#f6465d" stroke-width="1.4" /><rect x="573.51" y="210.93" width="6" height="6.03" rx="1.5" fill="#f6465d" /><line x1="587.24" y1="213.94" x2="587.24" y2="230.52" stroke="#f6465d" stroke-width="1.4" /><rect x="584.24" y="216.96" width="6" height="7.53" rx="1.5" fill="#f6465d" /><line x1="597.97" y1="204.90" x2="597.97" y2="233.53" stroke="#0ecb81" stroke-width="1.4" /><rect x="594.97" y="211.68" width="6" height="12.81" rx="1.5" fill="#0ecb81" /><line x1="608.71" y1="200.38" x2="608.71" y2="212.44" stroke="#0ecb81" stroke-width="1.4" /><rect x="605.71" y="205.66" width="6" height="6.78" rx="1.5" fill="#0ecb81" /><line x1="619.44" y1="205.66" x2="619.44" y2="221.48" stroke="#f6465d" stroke-width="1.4" /><rect x="616.44" y="205.66" width="6" height="6.78" rx="1.5" fill="#f6465d" /><line x1="630.18" y1="186.82" x2="630.18" y2="216.96" stroke="#0ecb81" stroke-width="1.4" /><rect x="627.18" y="196.62" width="6" height="15.82" rx="1.5" fill="#0ecb81" /><line x1="640.91" y1="195.11" x2="640.91" y2="205.66" stroke="#f6465d" stroke-width="1.4" /><rect x="637.91" y="197.37" width="6" height="5.27" rx="1.5" fill="#f6465d" /><line x1="651.65" y1="187.58" x2="651.65" y2="202.64" stroke="#0ecb81" stroke-width="1.4" /><rect x="648.65" y="198.12" width="6" height="4.52" rx="1.5" fill="#0ecb81" /><line x1="662.38" y1="186.07" x2="662.38" y2="204.90" stroke="#f6465d" stroke-width="1.4" /><rect x="659.38" y="197.37" width="6" height="6.03" rx="1.5" fill="#f6465d" /><line x1="673.11" y1="195.11" x2="673.11" y2="210.18" stroke="#f6465d" stroke-width="1.4" /><rect x="670.11" y="202.64" width="6" height="2.26" rx="1.5" fill="#f6465d" /><line x1="683.85" y1="169.50" x2="683.85" y2="208.67" stroke="#0ecb81" stroke-width="1.4" /><rect x="680.85" y="174.02" width="6" height="31.64" rx="1.5" fill="#0ecb81" /><line x1="694.58" y1="146.89" x2="694.58" y2="174.77" stroke="#0ecb81" stroke-width="1.4" /><rect x="691.58" y="150.66" width="6" height="23.35" rx="1.5" fill="#0ecb81" /><line x1="705.32" y1="58.00" x2="705.32" y2="154.43" stroke="#0ecb81" stroke-width="1.4" /><rect x="702.32" y="97.17" width="6" height="52.73" rx="1.5" fill="#0ecb81" /><line x1="716.05" y1="83.61" x2="716.05" y2="110.73" stroke="#0ecb81" stroke-width="1.4" /><rect x="713.05" y="94.91" width="6" height="2.00" rx="1.5" fill="#0ecb81" /><line x1="726.78" y1="78.34" x2="726.78" y2="113.75" stroke="#f6465d" stroke-width="1.4" /><rect x="723.78" y="94.16" width="6" height="15.07" rx="1.5" fill="#f6465d" /><line x1="737.52" y1="97.17" x2="737.52" y2="123.54" stroke="#0ecb81" stroke-width="1.4" /><rect x="734.52" y="100.94" width="6" height="8.29" rx="1.5" fill="#0ecb81" /><line x1="748.25" y1="79.85" x2="748.25" y2="101.69" stroke="#0ecb81" stroke-width="1.4" /><rect x="745.25" y="91.15" width="6" height="10.55" rx="1.5" fill="#0ecb81" /><line x1="758.99" y1="88.13" x2="758.99" y2="119.77" stroke="#f6465d" stroke-width="1.4" /><rect x="755.99" y="90.39" width="6" height="23.35" rx="1.5" fill="#f6465d" /><line x1="769.72" y1="110.73" x2="769.72" y2="134.09" stroke="#f6465d" stroke-width="1.4" /><rect x="766.72" y="114.50" width="6" height="7.53" rx="1.5" fill="#f6465d" /><line x1="780.46" y1="111.49" x2="780.46" y2="125.05" stroke="#0ecb81" stroke-width="1.4" /><rect x="777.46" y="117.51" width="6" height="4.52" rx="1.5" fill="#0ecb81" /><line x1="791.19" y1="109.98" x2="791.19" y2="124.29" stroke="#0ecb81" stroke-width="1.4" /><rect x="788.19" y="116.01" width="6" height="2.00" rx="1.5" fill="#0ecb81" /><line x1="801.92" y1="116.01" x2="801.92" y2="125.80" stroke="#f6465d" stroke-width="1.4" /><rect x="798.92" y="116.01" width="6" height="8.29" rx="1.5" fill="#f6465d" /><line x1="812.66" y1="113.75" x2="812.66" y2="125.80" stroke="#0ecb81" stroke-width="1.4" /><rect x="809.66" y="119.77" width="6" height="4.52" rx="1.5" fill="#0ecb81" /><line x1="823.39" y1="109.98" x2="823.39" y2="129.57" stroke="#f6465d" stroke-width="1.4" /><rect x="820.39" y="119.02" width="6" height="4.52" rx="1.5" fill="#f6465d" /><line x1="834.13" y1="114.50" x2="834.13" y2="137.10" stroke="#f6465d" stroke-width="1.4" /><rect x="831.13" y="123.54" width="6" height="9.79" rx="1.5" fill="#f6465d" /><line x1="844.86" y1="121.28" x2="844.86" y2="143.13" stroke="#f6465d" stroke-width="1.4" /><rect x="841.86" y="133.33" width="6" height="6.78" rx="1.5" fill="#f6465d" /><line x1="855.59" y1="122.79" x2="855.59" y2="146.14" stroke="#0ecb81" stroke-width="1.4" /><rect x="852.59" y="125.05" width="6" height="15.07" rx="1.5" fill="#0ecb81" /><line x1="866.33" y1="121.28" x2="866.33" y2="131.07" stroke="#0ecb81" stroke-width="1.4" /><rect x="863.33" y="123.54" width="6" height="2.00" rx="1.5" fill="#0ecb81" /><line x1="877.06" y1="116.76" x2="877.06" y2="134.09" stroke="#f6465d" stroke-width="1.4" /><rect x="874.06" y="123.54" width="6" height="9.04" rx="1.5" fill="#f6465d" /><line x1="887.80" y1="125.05" x2="887.80" y2="145.39" stroke="#f6465d" stroke-width="1.4" /><rect x="884.80" y="131.83" width="6" height="12.81" rx="1.5" fill="#f6465d" /><line x1="898.53" y1="131.07" x2="898.53" y2="155.93" stroke="#0ecb81" stroke-width="1.4" /><rect x="895.53" y="137.10" width="6" height="8.29" rx="1.5" fill="#0ecb81" /><line x1="909.27" y1="120.53" x2="909.27" y2="139.36" stroke="#0ecb81" stroke-width="1.4" /><rect x="906.27" y="135.59" width="6" height="2.00" rx="1.5" fill="#0ecb81" /><line x1="920.00" y1="131.83" x2="920.00" y2="148.40" stroke="#f6465d" stroke-width="1.4" /><rect x="917.00" y="134.84" width="6" height="9.04" rx="1.5" fill="#f6465d" />
  <polyline points="329.62,184.56 383.29,254.62 426.23,135.59 469.16,196.62 512.10,127.31" fill="none" stroke="#2fc273" stroke-width="4" stroke-linecap="round" stroke-linejoin="round" />
  <circle cx="329.62" cy="184.56" r="5.5" fill="#2fc273" fill-opacity="0.15" stroke="#2fc273" stroke-width="2" /><text x="329.62" y="172.56" fill="#f3f4f6" font-size="15" font-weight="700" text-anchor="middle">X</text><circle cx="383.29" cy="254.62" r="5.5" fill="#2fc273" fill-opacity="0.15" stroke="#2fc273" stroke-width="2" /><text x="383.29" y="242.62" fill="#f3f4f6" font-size="15" font-weight="700" text-anchor="middle">A</text><circle cx="426.23" cy="135.59" r="5.5" fill="#2fc273" fill-opacity="0.15" stroke="#2fc273" stroke-width="2" /><text x="426.23" y="123.59" fill="#f3f4f6" font-size="15" font-weight="700" text-anchor="middle">B</text><circle cx="469.16" cy="196.62" r="5.5" fill="#2fc273" fill-opacity="0.15" stroke="#2fc273" stroke-width="2" /><text x="469.16" y="184.62" fill="#f3f4f6" font-size="15" font-weight="700" text-anchor="middle">C</text><circle cx="512.10" cy="127.31" r="5.5" fill="#2fc273" fill-opacity="0.15" stroke="#2fc273" stroke-width="2" /><text x="512.10" y="115.31" fill="#f3f4f6" font-size="15" font-weight="700" text-anchor="middle">D</text>
  <text x="56" y="492" fill="#8ba0b5" font-size="18">일반 완성 · TP1 1.3359 · TP2 1.3337 · SL 1.3406</text>
</svg>
