<svg xmlns="http://www.w3.org/2000/svg" width="960" height="540" viewBox="0 0 960 540">
  <rect width="960" height="540" rx="24" fill="#0b1220" />
  <rect x="28" y="28" width="904" height="484" rx="22" fill="#111827" stroke="#1f2937" />
  <text x="56" y="74" fill="#f3f4f6" font-size="34" font-weight="700">ZECUSDT · AB=CD</text>
  <text x="904" y="74" fill="#8ba0b5" font-size="20" text-anchor="end">Bullish (매수) · Score 87.5</text>
  <line x1="72" y1="58" x2="920" y2="58" stroke="#223045" stroke-width="1" stroke-dasharray="4 8" /><line x1="72" y1="156" x2="920" y2="156" stroke="#223045" stroke-width="1" stroke-dasharray="4 8" /><line x1="72" y1="255" x2="920" y2="255" stroke="#223045" stroke-width="1" stroke-dasharray="4 8" /><line x1="72" y1="353" x2="920" y2="353" stroke="#223045" stroke-width="1" stroke-dasharray="4 8" /><line x1="72" y1="452" x2="920" y2="452" stroke="#223045" stroke-width="1" stroke-dasharray="4 8" />
  <rect x="419.70" y="465.47" width="84" height="56.44" fill="#fbbf24" fill-opacity="0.12" stroke="#fbbf24" stroke-width="1.5" stroke-dasharray="6 6" />
  <line x1="72.00" y1="281.22" x2="72.00" y2="307.07" stroke="#f6465d" stroke-width="1.4" /><rect x="69.00" y="282.31" width="6" height="21.48" rx="1.5" fill="#f6465d" /><line x1="82.73" y1="291.78" x2="82.73" y2="309.62" stroke="#0ecb81" stroke-width="1.4" /><rect x="79.73" y="299.79" width="6" height="4.01" rx="1.5" fill="#0ecb81" /><line x1="93.47" y1="296.88" x2="93.47" y2="325.28" stroke="#f6465d" stroke-width="1.4" /><rect x="90.47" y="299.79" width="6" height="14.57" rx="1.5" fill="#f6465d" /><line x1="104.20" y1="311.44" x2="104.20" y2="340.21" stroke="#f6465d" stroke-width="1.4" /><rect x="101.20" y="313.99" width="6" height="8.74" rx="1.5" fill="#f6465d" /><line x1="114.94" y1="290.69" x2="114.94" y2="326.37" stroke="#0ecb81" stroke-width="1.4" /><rect x="111.94" y="312.90" width="6" height="9.83" rx="1.5" fill="#0ecb81" /><line x1="125.67" y1="300.88" x2="125.67" y2="320.91" stroke="#0ecb81" stroke-width="1.4" /><rect x="122.67" y="301.25" width="6" height="11.29" rx="1.5" fill="#0ecb81" /><line x1="136.41" y1="298.70" x2="136.41" y2="339.12" stroke="#f6465d" stroke-width="1.4" /><rect x="133.41" y="301.25" width="6" height="34.96" rx="1.5" fill="#f6465d" /><line x1="147.14" y1="326.37" x2="147.14" y2="344.58" stroke="#0ecb81" stroke-width="1.4" /><rect x="144.14" y="330.01" width="6" height="5.83" rx="1.5" fill="#0ecb81" /><line x1="157.87" y1="321.64" x2="157.87" y2="359.87" stroke="#0ecb81" stroke-width="1.4" /><rect x="154.87" y="324.55" width="6" height="5.10" rx="1.5" fill="#0ecb81" /><line x1="168.61" y1="320.18" x2="168.61" y2="350.40" stroke="#f6465d" stroke-width="1.4" /><rect x="165.61" y="324.55" width="6" height="10.92" rx="1.5" fill="#f6465d" /><line x1="179.34" y1="317.63" x2="179.34" y2="341.67" stroke="#0ecb81" stroke-width="1.4" /><rect x="176.34" y="322.00" width="6" height="13.11" rx="1.5" fill="#0ecb81" /><line x1="190.08" y1="320.18" x2="190.08" y2="341.67" stroke="#f6465d" stroke-width="1.4" /><rect x="187.08" y="322.00" width="6" height="4.01" rx="1.5" fill="#f6465d" /><line x1="200.81" y1="277.94" x2="200.81" y2="329.28" stroke="#0ecb81" stroke-width="1.4" /><rect x="197.81" y="287.41" width="6" height="38.60" rx="1.5" fill="#0ecb81" /><line x1="211.54" y1="269.20" x2="211.54" y2="290.69" stroke="#0ecb81" stroke-width="1.4" /><rect x="208.54" y="284.86" width="6" height="2.55" rx="1.5" fill="#0ecb81" /><line x1="222.28" y1="283.04" x2="222.28" y2="322.00" stroke="#f6465d" stroke-width="1.4" /><rect x="219.28" y="284.50" width="6" height="18.94" rx="1.5" fill="#f6465d" /><line x1="233.01" y1="270.29" x2="233.01" y2="308.89" stroke="#0ecb81" stroke-width="1.4" /><rect x="230.01" y="288.87" width="6" height="14.57" rx="1.5" fill="#0ecb81" /><line x1="243.75" y1="273.21" x2="243.75" y2="289.23" stroke="#0ecb81" stroke-width="1.4" /><rect x="240.75" y="277.21" width="6" height="12.02" rx="1.5" fill="#0ecb81" /><line x1="254.48" y1="247.72" x2="254.48" y2="299.06" stroke="#0ecb81" stroke-width="1.4" /><rect x="251.48" y="258.64" width="6" height="18.94" rx="1.5" fill="#0ecb81" /><line x1="265.22" y1="251.72" x2="265.22" y2="279.76" stroke="#f6465d" stroke-width="1.4" /><rect x="262.22" y="258.28" width="6" height="12.02" rx="1.5" fill="#f6465d" /><line x1="275.95" y1="250.63" x2="275.95" y2="272.11" stroke="#0ecb81" stroke-width="1.4" /><rect x="272.95" y="261.55" width="6" height="8.38" rx="1.5" fill="#0ecb81" /><line x1="286.68" y1="241.89" x2="286.68" y2="267.38" stroke="#0ecb81" stroke-width="1.4" /><rect x="283.68" y="247.72" width="6" height="13.11" rx="1.5" fill="#0ecb81" /><line x1="297.42" y1="248.08" x2="297.42" y2="349.68" stroke="#f6465d" stroke-width="1.4" /><rect x="294.42" y="248.08" width="6" height="87.03" rx="1.5" fill="#f6465d" /><line x1="308.15" y1="295.06" x2="308.15" y2="338.39" stroke="#0ecb81" stroke-width="1.4" /><rect x="305.15" y="304.16" width="6" height="31.32" rx="1.5" fill="#0ecb81" /><line x1="318.89" y1="271.39" x2="318.89" y2="304.89" stroke="#0ecb81" stroke-width="1.4" /><rect x="315.89" y="290.32" width="6" height="14.20" rx="1.5" fill="#0ecb81" /><line x1="329.62" y1="290.32" x2="329.62" y2="316.18" stroke="#f6465d" stroke-width="1.4" /><rect x="326.62" y="290.32" width="6" height="14.20" rx="1.5" fill="#f6465d" /><line x1="340.35" y1="299.06" x2="340.35" y2="399.93" stroke="#f6465d" stroke-width="1.4" /><rect x="337.35" y="304.52" width="6" height="85.21" rx="1.5" fill="#f6465d" /><line x1="351.09" y1="381.36" x2="351.09" y2="412.31" stroke="#f6465d" stroke-width="1.4" /><rect x="348.09" y="389.73" width="6" height="9.83" rx="1.5" fill="#f6465d" /><line x1="361.82" y1="378.08" x2="361.82" y2="403.93" stroke="#0ecb81" stroke-width="1.4" /><rect x="358.82" y="394.83" width="6" height="5.46" rx="1.5" fill="#0ecb81" /><line x1="372.56" y1="375.17" x2="372.56" y2="404.30" stroke="#0ecb81" stroke-width="1.4" /><rect x="369.56" y="389.73" width="6" height="5.10" rx="1.5" fill="#0ecb81" /><line x1="383.29" y1="358.78" x2="383.29" y2="399.93" stroke="#0ecb81" stroke-width="1.4" /><rect x="380.29" y="388.28" width="6" height="2.00" rx="1.5" fill="#0ecb81" /><line x1="394.03" y1="382.81" x2="394.03" y2="403.93" stroke="#f6465d" stroke-width="1.4" /><rect x="391.03" y="387.91" width="6" height="2.00" rx="1.5" fill="#f6465d" /><line x1="404.76" y1="351.50" x2="404.76" y2="391.19" stroke="#0ecb81" stroke-width="1.4" /><rect x="401.76" y="373.71" width="6" height="15.29" rx="1.5" fill="#0ecb81" /><line x1="415.49" y1="366.06" x2="415.49" y2="395.56" stroke="#0ecb81" stroke-width="1.4" /><rect x="412.49" y="370.43" width="6" height="3.64" rx="1.5" fill="#0ecb81" /><line x1="426.23" y1="367.88" x2="426.23" y2="411.58" stroke="#f6465d" stroke-width="1.4" /><rect x="423.23" y="370.43" width="6" height="29.50" rx="1.5" fill="#f6465d" /><line x1="436.96" y1="387.18" x2="436.96" y2="432.34" stroke="#f6465d" stroke-width="1.4" /><rect x="433.96" y="399.56" width="6" height="22.94" rx="1.5" fill="#f6465d" /><line x1="447.70" y1="401.02" x2="447.70" y2="452.00" stroke="#0ecb81" stroke-width="1.4" /><rect x="444.70" y="407.94" width="6" height="13.47" rx="1.5" fill="#0ecb81" /><line x1="458.43" y1="373.35" x2="458.43" y2="413.77" stroke="#0ecb81" stroke-width="1.4" /><rect x="455.43" y="389.73" width="6" height="17.84" rx="1.5" fill="#0ecb81" /><line x1="469.16" y1="362.42" x2="469.16" y2="401.38" stroke="#0ecb81" stroke-width="1.4" /><rect x="466.16" y="371.52" width="6" height="18.21" rx="1.5" fill="#0ecb81" /><line x1="479.90" y1="370.07" x2="479.90" y2="399.56" stroke="#f6465d" stroke-width="1.4" /><rect x="476.90" y="371.52" width="6" height="25.85" rx="1.5" fill="#f6465d" /><line x1="490.63" y1="390.46" x2="490.63" y2="406.12" stroke="#0ecb81" stroke-width="1.4" /><rect x="487.63" y="394.47" width="6" height="2.91" rx="1.5" fill="#0ecb81" /><line x1="501.37" y1="375.53" x2="501.37" y2="409.40" stroke="#f6465d" stroke-width="1.4" /><rect x="498.37" y="394.47" width="6" height="9.47" rx="1.5" fill="#f6465d" /><line x1="512.10" y1="395.56" x2="512.10" y2="419.23" stroke="#f6465d" stroke-width="1.4" /><rect x="509.10" y="404.30" width="6" height="2.91" rx="1.5" fill="#f6465d" /><line x1="522.84" y1="368.61" x2="522.84" y2="411.94" stroke="#0ecb81" stroke-width="1.4" /><rect x="519.84" y="368.61" width="6" height="38.23" rx="1.5" fill="#0ecb81" /><line x1="533.57" y1="341.67" x2="533.57" y2="375.53" stroke="#0ecb81" stroke-width="1.4" /><rect x="530.57" y="347.86" width="6" height="20.39" rx="1.5" fill="#0ecb81" /><line x1="544.30" y1="340.94" x2="544.30" y2="355.87" stroke="#f6465d" stroke-width="1.4" /><rect x="541.30" y="348.58" width="6" height="2.00" rx="1.5" fill="#f6465d" /><line x1="555.04" y1="335.84" x2="555.04" y2="352.23" stroke="#f6465d" stroke-width="1.4" /><rect x="552.04" y="349.68" width="6" height="2.18" rx="1.5" fill="#f6465d" /><line x1="565.77" y1="307.07" x2="565.77" y2="355.50" stroke="#0ecb81" stroke-width="1.4" /><rect x="562.77" y="313.63" width="6" height="38.23" rx="1.5" fill="#0ecb81" /><line x1="576.51" y1="313.99" x2="576.51" y2="336.57" stroke="#f6465d" stroke-width="1.4" /><rect x="573.51" y="313.99" width="6" height="17.84" rx="1.5" fill="#f6465d" /><line x1="587.24" y1="329.28" x2="587.24" y2="364.24" stroke="#f6465d" stroke-width="1.4" /><rect x="584.24" y="331.83" width="6" height="27.67" rx="1.5" fill="#f6465d" /><line x1="597.97" y1="358.42" x2="597.97" y2="389.00" stroke="#f6465d" stroke-width="1.4" /><rect x="594.97" y="359.51" width="6" height="6.55" rx="1.5" fill="#f6465d" /><line x1="608.71" y1="358.05" x2="608.71" y2="385.00" stroke="#f6465d" stroke-width="1.4" /><rect x="605.71" y="366.06" width="6" height="5.46" rx="1.5" fill="#f6465d" /><line x1="619.44" y1="346.04" x2="619.44" y2="389.73" stroke="#0ecb81" stroke-width="1.4" /><rect x="616.44" y="346.40" width="6" height="25.49" rx="1.5" fill="#0ecb81" /><line x1="630.18" y1="286.68" x2="630.18" y2="350.04" stroke="#0ecb81" stroke-width="1.4" /><rect x="627.18" y="321.27" width="6" height="24.76" rx="1.5" fill="#0ecb81" /><line x1="640.91" y1="315.08" x2="640.91" y2="330.38" stroke="#0ecb81" stroke-width="1.4" /><rect x="637.91" y="321.27" width="6" height="2.00" rx="1.5" fill="#0ecb81" /><line x1="651.65" y1="290.32" x2="651.65" y2="323.82" stroke="#0ecb81" stroke-width="1.4" /><rect x="648.65" y="297.97" width="6" height="23.67" rx="1.5" fill="#0ecb81" /><line x1="662.38" y1="292.51" x2="662.38" y2="314.72" stroke="#f6465d" stroke-width="1.4" /><rect x="659.38" y="298.33" width="6" height="5.46" rx="1.5" fill="#f6465d" /><line x1="673.11" y1="293.96" x2="673.11" y2="315.81" stroke="#f6465d" stroke-width="1.4" /><rect x="670.11" y="303.79" width="6" height="11.29" rx="1.5" fill="#f6465d" /><line x1="683.85" y1="281.58" x2="683.85" y2="324.19" stroke="#0ecb81" stroke-width="1.4" /><rect x="680.85" y="299.79" width="6" height="14.93" rx="1.5" fill="#0ecb81" /><line x1="694.58" y1="277.21" x2="694.58" y2="305.62" stroke="#0ecb81" stroke-width="1.4" /><rect x="691.58" y="299.79" width="6" height="2.00" rx="1.5" fill="#0ecb81" /><line x1="705.32" y1="267.38" x2="705.32" y2="303.43" stroke="#0ecb81" stroke-width="1.4" /><rect x="702.32" y="288.14" width="6" height="12.02" rx="1.5" fill="#0ecb81" /><line x1="716.05" y1="207.30" x2="716.05" y2="297.60" stroke="#0ecb81" stroke-width="1.4" /><rect x="713.05" y="241.89" width="6" height="46.25" rx="1.5" fill="#0ecb81" /><line x1="726.78" y1="213.85" x2="726.78" y2="264.83" stroke="#f6465d" stroke-width="1.4" /><rect x="723.78" y="241.53" width="6" height="20.03" rx="1.5" fill="#f6465d" /><line x1="737.52" y1="253.91" x2="737.52" y2="288.50" stroke="#0ecb81" stroke-width="1.4" /><rect x="734.52" y="257.91" width="6" height="4.01" rx="1.5" fill="#0ecb81" /><line x1="748.25" y1="227.33" x2="748.25" y2="279.40" stroke="#f6465d" stroke-width="1.4" /><rect x="745.25" y="257.91" width="6" height="7.28" rx="1.5" fill="#f6465d" /><line x1="758.99" y1="235.70" x2="758.99" y2="267.38" stroke="#0ecb81" stroke-width="1.4" /><rect x="755.99" y="252.09" width="6" height="13.11" rx="1.5" fill="#0ecb81" /><line x1="769.72" y1="225.50" x2="769.72" y2="272.11" stroke="#0ecb81" stroke-width="1.4" /><rect x="766.72" y="234.61" width="6" height="17.11" rx="1.5" fill="#0ecb81" /><line x1="780.46" y1="166.88" x2="780.46" y2="242.62" stroke="#0ecb81" stroke-width="1.4" /><rect x="777.46" y="169.06" width="6" height="65.18" rx="1.5" fill="#0ecb81" /><line x1="791.19" y1="139.93" x2="791.19" y2="211.30" stroke="#f6465d" stroke-width="1.4" /><rect x="788.19" y="169.06" width="6" height="32.41" rx="1.5" fill="#f6465d" /><line x1="801.92" y1="193.46" x2="801.92" y2="226.96" stroke="#f6465d" stroke-width="1.4" /><rect x="798.92" y="201.84" width="6" height="2.00" rx="1.5" fill="#f6465d" /><line x1="812.66" y1="160.32" x2="812.66" y2="202.56" stroke="#0ecb81" stroke-width="1.4" /><rect x="809.66" y="183.63" width="6" height="18.94" rx="1.5" fill="#0ecb81" /><line x1="823.39" y1="129.74" x2="823.39" y2="185.81" stroke="#0ecb81" stroke-width="1.4" /><rect x="820.39" y="171.98" width="6" height="11.65" rx="1.5" fill="#0ecb81" /><line x1="834.13" y1="58.00" x2="834.13" y2="171.98" stroke="#0ecb81" stroke-width="1.4" /><rect x="831.13" y="127.55" width="6" height="44.43" rx="1.5" fill="#0ecb81" /><line x1="844.86" y1="106.07" x2="844.86" y2="138.48" stroke="#0ecb81" stroke-width="1.4" /><rect x="841.86" y="115.53" width="6" height="12.02" rx="1.5" fill="#0ecb81" /><line x1="855.59" y1="110.07" x2="855.59" y2="150.86" stroke="#f6465d" stroke-width="1.4" /><rect x="852.59" y="115.53" width="6" height="20.39" rx="1.5" fill="#f6465d" /><line x1="866.33" y1="135.56" x2="866.33" y2="195.65" stroke="#f6465d" stroke-width="1.4" /><rect x="863.33" y="135.56" width="6" height="41.15" rx="1.5" fill="#f6465d" /><line x1="877.06" y1="164.33" x2="877.06" y2="209.12" stroke="#f6465d" stroke-width="1.4" /><rect x="874.06" y="176.35" width="6" height="29.13" rx="1.5" fill="#f6465d" /><line x1="887.80" y1="194.19" x2="887.80" y2="217.13" stroke="#f6465d" stroke-width="1.4" /><rect x="884.80" y="205.48" width="6" height="2.00" rx="1.5" fill="#f6465d" /><line x1="898.53" y1="191.28" x2="898.53" y2="215.67" stroke="#f6465d" stroke-width="1.4" /><rect x="895.53" y="206.93" width="6" height="4.73" rx="1.5" fill="#f6465d" /><line x1="909.27" y1="199.29" x2="909.27" y2="250.27" stroke="#f6465d" stroke-width="1.4" /><rect x="906.27" y="212.03" width="6" height="17.11" rx="1.5" fill="#f6465d" /><line x1="920.00" y1="220.41" x2="920.00" y2="262.28" stroke="#f6465d" stroke-width="1.4" /><rect x="917.00" y="228.78" width="6" height="11.29" rx="1.5" fill="#f6465d" />
  <polyline points="157.87,359.87 286.68,241.89 351.09,412.31 404.76,351.50 447.70,452.00" fill="none" stroke="#2fc273" stroke-width="4" stroke-linecap="round" stroke-linejoin="round" />
  <circle cx="157.87" cy="359.87" r="5.5" fill="#2fc273" fill-opacity="0.15" stroke="#2fc273" stroke-width="2" /><text x="157.87" y="347.87" fill="#f3f4f6" font-size="15" font-weight="700" text-anchor="middle">X</text><circle cx="286.68" cy="241.89" r="5.5" fill="#2fc273" fill-opacity="0.15" stroke="#2fc273" stroke-width="2" /><text x="286.68" y="229.89" fill="#f3f4f6" font-size="15" font-weight="700" text-anchor="middle">A</text><circle cx="351.09" cy="412.31" r="5.5" fill="#2fc273" fill-opacity="0.15" stroke="#2fc273" stroke-width="2" /><text x="351.09" y="400.31" fill="#f3f4f6" font-size="15" font-weight="700" text-anchor="middle">B</text><circle cx="404.76" cy="351.50" r="5.5" fill="#2fc273" fill-opacity="0.15" stroke="#2fc273" stroke-width="2" /><text x="404.76" y="339.50" fill="#f3f4f6" font-size="15" font-weight="700" text-anchor="middle">C</text><circle cx="447.70" cy="452.00" r="5.5" fill="#2fc273" fill-opacity="0.15" stroke="#2fc273" stroke-width="2" /><text x="447.70" y="440.00" fill="#f3f4f6" font-size="15" font-weight="700" text-anchor="middle">D</text>
  <text x="56" y="492" fill="#8ba0b5" font-size="18">일반 완성 · TP1 251.144 · TP2 251.796 · SL 249.669</text>
</svg>
