<svg xmlns="http://www.w3.org/2000/svg" width="960" height="540" viewBox="0 0 960 540">
  <rect width="960" height="540" rx="24" fill="#0b1220" />
  <rect x="28" y="28" width="904" height="484" rx="22" fill="#111827" stroke="#1f2937" />
  <text x="56" y="74" fill="#f3f4f6" font-size="34" font-weight="700">ZECUSDT · AB=CD</text>
  <text x="904" y="74" fill="#8ba0b5" font-size="20" text-anchor="end">Bullish (매수) · Score 83.3</text>
  <line x1="72" y1="58" x2="920" y2="58" stroke="#223045" stroke-width="1" stroke-dasharray="4 8" /><line x1="72" y1="156" x2="920" y2="156" stroke="#223045" stroke-width="1" stroke-dasharray="4 8" /><line x1="72" y1="255" x2="920" y2="255" stroke="#223045" stroke-width="1" stroke-dasharray="4 8" /><line x1="72" y1="353" x2="920" y2="353" stroke="#223045" stroke-width="1" stroke-dasharray="4 8" /><line x1="72" y1="452" x2="920" y2="452" stroke="#223045" stroke-width="1" stroke-dasharray="4 8" />
  <rect x="76.20" y="206.03" width="84" height="36.75" fill="#fbbf24" fill-opacity="0.12" stroke="#fbbf24" stroke-width="1.5" stroke-dasharray="6 6" />
  <line x1="72.00" y1="210.30" x2="72.00" y2="227.46" stroke="#f6465d" stroke-width="1.4" /><rect x="69.00" y="214.52" width="6" height="12.04" rx="1.5" fill="#f6465d" /><line x1="82.73" y1="214.22" x2="82.73" y2="227.76" stroke="#0ecb81" stroke-width="1.4" /><rect x="79.73" y="217.23" width="6" height="9.63" rx="1.5" fill="#0ecb81" /><line x1="93.47" y1="211.81" x2="93.47" y2="227.76" stroke="#f6465d" stroke-width="1.4" /><rect x="90.47" y="217.23" width="6" height="5.72" rx="1.5" fill="#f6465d" /><line x1="104.20" y1="210.00" x2="104.20" y2="229.57" stroke="#0ecb81" stroke-width="1.4" /><rect x="101.20" y="210.00" width="6" height="13.24" rx="1.5" fill="#0ecb81" /><line x1="114.94" y1="196.16" x2="114.94" y2="212.41" stroke="#0ecb81" stroke-width="1.4" /><rect x="111.94" y="196.16" width="6" height="13.54" rx="1.5" fill="#0ecb81" /><line x1="125.67" y1="189.23" x2="125.67" y2="204.28" stroke="#f6465d" stroke-width="1.4" /><rect x="122.67" y="196.16" width="6" height="2.00" rx="1.5" fill="#f6465d" /><line x1="136.41" y1="187.43" x2="136.41" y2="197.06" stroke="#0ecb81" stroke-width="1.4" /><rect x="133.41" y="188.63" width="6" height="7.83" rx="1.5" fill="#0ecb81" /><line x1="147.14" y1="188.03" x2="147.14" y2="200.37" stroke="#f6465d" stroke-width="1.4" /><rect x="144.14" y="188.63" width="6" height="11.44" rx="1.5" fill="#f6465d" /><line x1="157.87" y1="200.07" x2="157.87" y2="216.02" stroke="#f6465d" stroke-width="1.4" /><rect x="154.87" y="200.37" width="6" height="8.73" rx="1.5" fill="#f6465d" /><line x1="168.61" y1="199.47" x2="168.61" y2="212.71" stroke="#f6465d" stroke-width="1.4" /><rect x="165.61" y="209.40" width="6" height="2.71" rx="1.5" fill="#f6465d" /><line x1="179.34" y1="212.11" x2="179.34" y2="222.94" stroke="#f6465d" stroke-width="1.4" /><rect x="176.34" y="212.11" width="6" height="3.31" rx="1.5" fill="#f6465d" /><line x1="190.08" y1="210.30" x2="190.08" y2="222.64" stroke="#f6465d" stroke-width="1.4" /><rect x="187.08" y="215.72" width="6" height="2.11" rx="1.5" fill="#f6465d" /><line x1="200.81" y1="200.67" x2="200.81" y2="221.44" stroke="#0ecb81" stroke-width="1.4" /><rect x="197.81" y="201.87" width="6" height="16.25" rx="1.5" fill="#0ecb81" /><line x1="211.54" y1="191.94" x2="211.54" y2="201.87" stroke="#0ecb81" stroke-width="1.4" /><rect x="208.54" y="194.95" width="6" height="6.92" rx="1.5" fill="#0ecb81" /><line x1="222.28" y1="184.72" x2="222.28" y2="196.16" stroke="#0ecb81" stroke-width="1.4" /><rect x="219.28" y="192.84" width="6" height="2.11" rx="1.5" fill="#0ecb81" /><line x1="233.01" y1="165.45" x2="233.01" y2="197.06" stroke="#0ecb81" stroke-width="1.4" /><rect x="230.01" y="169.97" width="6" height="22.88" rx="1.5" fill="#0ecb81" /><line x1="243.75" y1="146.49" x2="243.75" y2="169.67" stroke="#0ecb81" stroke-width="1.4" /><rect x="240.75" y="149.20" width="6" height="20.47" rx="1.5" fill="#0ecb81" /><line x1="254.48" y1="140.47" x2="254.48" y2="154.62" stroke="#0ecb81" stroke-width="1.4" /><rect x="251.48" y="148.30" width="6" height="2.00" rx="1.5" fill="#0ecb81" /><line x1="265.22" y1="117.90" x2="265.22" y2="154.02" stroke="#0ecb81" stroke-width="1.4" /><rect x="262.22" y="130.84" width="6" height="17.16" rx="1.5" fill="#0ecb81" /><line x1="275.95" y1="73.35" x2="275.95" y2="135.96" stroke="#0ecb81" stroke-width="1.4" /><rect x="272.95" y="92.92" width="6" height="38.23" rx="1.5" fill="#0ecb81" /><line x1="286.68" y1="61.01" x2="286.68" y2="101.04" stroke="#0ecb81" stroke-width="1.4" /><rect x="283.68" y="61.91" width="6" height="31.00" rx="1.5" fill="#0ecb81" /><line x1="297.42" y1="58.00" x2="297.42" y2="102.85" stroke="#f6465d" stroke-width="1.4" /><rect x="294.42" y="61.61" width="6" height="21.67" rx="1.5" fill="#f6465d" /><line x1="308.15" y1="73.65" x2="308.15" y2="93.52" stroke="#0ecb81" stroke-width="1.4" /><rect x="305.15" y="78.47" width="6" height="4.82" rx="1.5" fill="#0ecb81" /><line x1="318.89" y1="66.13" x2="318.89" y2="97.73" stroke="#0ecb81" stroke-width="1.4" /><rect x="315.89" y="72.45" width="6" height="6.32" rx="1.5" fill="#0ecb81" /><line x1="329.62" y1="71.24" x2="329.62" y2="95.93" stroke="#f6465d" stroke-width="1.4" /><rect x="326.62" y="72.45" width="6" height="13.85" rx="1.5" fill="#f6465d" /><line x1="340.35" y1="81.18" x2="340.35" y2="95.62" stroke="#f6465d" stroke-width="1.4" /><rect x="337.35" y="86.59" width="6" height="2.11" rx="1.5" fill="#f6465d" /><line x1="351.09" y1="84.19" x2="351.09" y2="106.46" stroke="#f6465d" stroke-width="1.4" /><rect x="348.09" y="88.70" width="6" height="11.74" rx="1.5" fill="#f6465d" /><line x1="361.82" y1="77.26" x2="361.82" y2="105.86" stroke="#0ecb81" stroke-width="1.4" /><rect x="358.82" y="77.87" width="6" height="22.88" rx="1.5" fill="#0ecb81" /><line x1="372.56" y1="74.86" x2="372.56" y2="96.53" stroke="#f6465d" stroke-width="1.4" /><rect x="369.56" y="77.56" width="6" height="18.96" rx="1.5" fill="#f6465d" /><line x1="383.29" y1="95.93" x2="383.29" y2="149.20" stroke="#f6465d" stroke-width="1.4" /><rect x="380.29" y="96.83" width="6" height="49.06" rx="1.5" fill="#f6465d" /><line x1="394.03" y1="126.93" x2="394.03" y2="146.79" stroke="#0ecb81" stroke-width="1.4" /><rect x="391.03" y="129.94" width="6" height="15.65" rx="1.5" fill="#0ecb81" /><line x1="404.76" y1="118.80" x2="404.76" y2="136.86" stroke="#f6465d" stroke-width="1.4" /><rect x="401.76" y="129.64" width="6" height="2.11" rx="1.5" fill="#f6465d" /><line x1="415.49" y1="128.43" x2="415.49" y2="139.57" stroke="#0ecb81" stroke-width="1.4" /><rect x="412.49" y="129.03" width="6" height="2.71" rx="1.5" fill="#0ecb81" /><line x1="426.23" y1="126.93" x2="426.23" y2="135.66" stroke="#f6465d" stroke-width="1.4" /><rect x="423.23" y="129.34" width="6" height="2.00" rx="1.5" fill="#f6465d" /><line x1="436.96" y1="98.03" x2="436.96" y2="130.24" stroke="#0ecb81" stroke-width="1.4" /><rect x="433.96" y="113.68" width="6" height="16.55" rx="1.5" fill="#0ecb81" /><line x1="447.70" y1="113.68" x2="447.70" y2="163.95" stroke="#f6465d" stroke-width="1.4" /><rect x="444.70" y="113.98" width="6" height="38.53" rx="1.5" fill="#f6465d" /><line x1="458.43" y1="150.10" x2="458.43" y2="187.13" stroke="#f6465d" stroke-width="1.4" /><rect x="455.43" y="152.51" width="6" height="27.39" rx="1.5" fill="#f6465d" /><line x1="469.16" y1="180.20" x2="469.16" y2="224.75" stroke="#f6465d" stroke-width="1.4" /><rect x="466.16" y="180.20" width="6" height="21.37" rx="1.5" fill="#f6465d" /><line x1="479.90" y1="201.57" x2="479.90" y2="217.83" stroke="#f6465d" stroke-width="1.4" /><rect x="476.90" y="201.57" width="6" height="8.73" rx="1.5" fill="#f6465d" /><line x1="490.63" y1="203.68" x2="490.63" y2="234.68" stroke="#f6465d" stroke-width="1.4" /><rect x="487.63" y="210.60" width="6" height="7.52" rx="1.5" fill="#f6465d" /><line x1="501.37" y1="207.89" x2="501.37" y2="221.14" stroke="#0ecb81" stroke-width="1.4" /><rect x="498.37" y="213.31" width="6" height="4.82" rx="1.5" fill="#0ecb81" /><line x1="512.10" y1="213.61" x2="512.10" y2="231.37" stroke="#f6465d" stroke-width="1.4" /><rect x="509.10" y="213.61" width="6" height="11.14" rx="1.5" fill="#f6465d" /><line x1="522.84" y1="211.51" x2="522.84" y2="238.60" stroke="#0ecb81" stroke-width="1.4" /><rect x="519.84" y="212.71" width="6" height="12.34" rx="1.5" fill="#0ecb81" /><line x1="533.57" y1="206.99" x2="533.57" y2="227.76" stroke="#f6465d" stroke-width="1.4" /><rect x="530.57" y="212.41" width="6" height="10.23" rx="1.5" fill="#f6465d" /><line x1="544.30" y1="222.64" x2="544.30" y2="253.95" stroke="#f6465d" stroke-width="1.4" /><rect x="541.30" y="222.64" width="6" height="8.13" rx="1.5" fill="#f6465d" /><line x1="555.04" y1="229.57" x2="555.04" y2="247.63" stroke="#f6465d" stroke-width="1.4" /><rect x="552.04" y="230.77" width="6" height="4.82" rx="1.5" fill="#f6465d" /><line x1="565.77" y1="233.48" x2="565.77" y2="251.54" stroke="#f6465d" stroke-width="1.4" /><rect x="562.77" y="235.89" width="6" height="12.34" rx="1.5" fill="#f6465d" /><line x1="576.51" y1="240.10" x2="576.51" y2="249.73" stroke="#0ecb81" stroke-width="1.4" /><rect x="573.51" y="243.41" width="6" height="5.12" rx="1.5" fill="#0ecb81" /><line x1="587.24" y1="234.68" x2="587.24" y2="250.64" stroke="#f6465d" stroke-width="1.4" /><rect x="584.24" y="243.41" width="6" height="3.61" rx="1.5" fill="#f6465d" /><line x1="597.97" y1="238.90" x2="597.97" y2="254.25" stroke="#0ecb81" stroke-width="1.4" /><rect x="594.97" y="241.61" width="6" height="5.42" rx="1.5" fill="#0ecb81" /><line x1="608.71" y1="239.80" x2="608.71" y2="250.33" stroke="#f6465d" stroke-width="1.4" /><rect x="605.71" y="241.91" width="6" height="2.00" rx="1.5" fill="#f6465d" /><line x1="619.44" y1="240.10" x2="619.44" y2="310.83" stroke="#f6465d" stroke-width="1.4" /><rect x="616.44" y="243.41" width="6" height="49.66" rx="1.5" fill="#f6465d" /><line x1="630.18" y1="281.94" x2="630.18" y2="312.34" stroke="#0ecb81" stroke-width="1.4" /><rect x="627.18" y="283.44" width="6" height="9.93" rx="1.5" fill="#0ecb81" /><line x1="640.91" y1="282.84" x2="640.91" y2="304.21" stroke="#f6465d" stroke-width="1.4" /><rect x="637.91" y="283.44" width="6" height="7.83" rx="1.5" fill="#f6465d" /><line x1="651.65" y1="277.72" x2="651.65" y2="298.79" stroke="#f6465d" stroke-width="1.4" /><rect x="648.65" y="290.97" width="6" height="3.61" rx="1.5" fill="#f6465d" /><line x1="662.38" y1="289.16" x2="662.38" y2="301.80" stroke="#0ecb81" stroke-width="1.4" /><rect x="659.38" y="289.46" width="6" height="5.12" rx="1.5" fill="#0ecb81" /><line x1="673.11" y1="285.85" x2="673.11" y2="315.35" stroke="#f6465d" stroke-width="1.4" /><rect x="670.11" y="289.16" width="6" height="23.18" rx="1.5" fill="#f6465d" /><line x1="683.85" y1="308.13" x2="683.85" y2="340.33" stroke="#f6465d" stroke-width="1.4" /><rect x="680.85" y="312.04" width="6" height="4.82" rx="1.5" fill="#f6465d" /><line x1="694.58" y1="302.71" x2="694.58" y2="336.42" stroke="#f6465d" stroke-width="1.4" /><rect x="691.58" y="316.55" width="6" height="7.22" rx="1.5" fill="#f6465d" /><line x1="705.32" y1="314.15" x2="705.32" y2="412.57" stroke="#f6465d" stroke-width="1.4" /><rect x="702.32" y="323.48" width="6" height="52.97" rx="1.5" fill="#f6465d" /><line x1="716.05" y1="365.31" x2="716.05" y2="393.91" stroke="#f6465d" stroke-width="1.4" /><rect x="713.05" y="376.45" width="6" height="4.51" rx="1.5" fill="#f6465d" /><line x1="726.78" y1="348.46" x2="726.78" y2="383.07" stroke="#0ecb81" stroke-width="1.4" /><rect x="723.78" y="351.17" width="6" height="29.80" rx="1.5" fill="#0ecb81" /><line x1="737.52" y1="327.99" x2="737.52" y2="369.23" stroke="#0ecb81" stroke-width="1.4" /><rect x="734.52" y="351.77" width="6" height="2.00" rx="1.5" fill="#0ecb81" /><line x1="748.25" y1="351.17" x2="748.25" y2="376.15" stroke="#f6465d" stroke-width="1.4" /><rect x="745.25" y="351.77" width="6" height="15.65" rx="1.5" fill="#f6465d" /><line x1="758.99" y1="355.08" x2="758.99" y2="379.46" stroke="#f6465d" stroke-width="1.4" /><rect x="755.99" y="367.12" width="6" height="4.51" rx="1.5" fill="#f6465d" /><line x1="769.72" y1="371.03" x2="769.72" y2="440.86" stroke="#f6465d" stroke-width="1.4" /><rect x="766.72" y="371.94" width="6" height="52.07" rx="1.5" fill="#f6465d" /><line x1="780.46" y1="410.16" x2="780.46" y2="440.26" stroke="#0ecb81" stroke-width="1.4" /><rect x="777.46" y="411.97" width="6" height="12.34" rx="1.5" fill="#0ecb81" /><line x1="791.19" y1="390.60" x2="791.19" y2="413.17" stroke="#0ecb81" stroke-width="1.4" /><rect x="788.19" y="407.15" width="6" height="4.82" rx="1.5" fill="#0ecb81" /><line x1="801.92" y1="401.13" x2="801.92" y2="436.95" stroke="#f6465d" stroke-width="1.4" /><rect x="798.92" y="407.15" width="6" height="22.88" rx="1.5" fill="#f6465d" /><line x1="812.66" y1="403.54" x2="812.66" y2="452.00" stroke="#0ecb81" stroke-width="1.4" /><rect x="809.66" y="404.44" width="6" height="25.28" rx="1.5" fill="#0ecb81" /><line x1="823.39" y1="401.73" x2="823.39" y2="421.30" stroke="#f6465d" stroke-width="1.4" /><rect x="820.39" y="404.44" width="6" height="9.03" rx="1.5" fill="#f6465d" /><line x1="834.13" y1="399.03" x2="834.13" y2="422.50" stroke="#0ecb81" stroke-width="1.4" /><rect x="831.13" y="410.46" width="6" height="3.01" rx="1.5" fill="#0ecb81" /><line x1="844.86" y1="391.50" x2="844.86" y2="411.37" stroke="#0ecb81" stroke-width="1.4" /><rect x="841.86" y="399.93" width="6" height="10.53" rx="1.5" fill="#0ecb81" /><line x1="855.59" y1="380.66" x2="855.59" y2="409.86" stroke="#f6465d" stroke-width="1.4" /><rect x="852.59" y="399.63" width="6" height="8.73" rx="1.5" fill="#f6465d" /><line x1="866.33" y1="374.95" x2="866.33" y2="412.27" stroke="#0ecb81" stroke-width="1.4" /><rect x="863.33" y="378.26" width="6" height="29.80" rx="1.5" fill="#0ecb81" /><line x1="877.06" y1="347.56" x2="877.06" y2="403.54" stroke="#0ecb81" stroke-width="1.4" /><rect x="874.06" y="358.09" width="6" height="20.47" rx="1.5" fill="#0ecb81" /><line x1="887.80" y1="356.89" x2="887.80" y2="389.09" stroke="#f6465d" stroke-width="1.4" /><rect x="884.80" y="358.09" width="6" height="19.56" rx="1.5" fill="#f6465d" /><line x1="898.53" y1="377.65" x2="898.53" y2="416.78" stroke="#f6465d" stroke-width="1.4" /><rect x="895.53" y="377.65" width="6" height="27.69" rx="1.5" fill="#f6465d" /><line x1="909.27" y1="383.07" x2="909.27" y2="414.38" stroke="#0ecb81" stroke-width="1.4" /><rect x="906.27" y="400.83" width="6" height="3.91" rx="1.5" fill="#0ecb81" /><line x1="920.00" y1="380.06" x2="920.00" y2="404.74" stroke="#0ecb81" stroke-width="1.4" /><rect x="917.00" y="383.07" width="6" height="17.76" rx="1.5" fill="#0ecb81" />
  <polyline points="72.00,262.37 72.00,149.50 72.00,200.67 72.00,171.47 104.20,229.57" fill="none" stroke="#2fc273" stroke-width="4" stroke-linecap="round" stroke-linejoin="round" />
  <circle cx="72.00" cy="262.37" r="5.5" fill="#2fc273" fill-opacity="0.15" stroke="#2fc273" stroke-width="2" /><text x="72.00" y="250.37" fill="#f3f4f6" font-size="15" font-weight="700" text-anchor="middle">X</text><circle cx="72.00" cy="149.50" r="5.5" fill="#2fc273" fill-opacity="0.15" stroke="#2fc273" stroke-width="2" /><text x="72.00" y="137.50" fill="#f3f4f6" font-size="15" font-weight="700" text-anchor="middle">A</text><circle cx="72.00" cy="200.67" r="5.5" fill="#2fc273" fill-opacity="0.15" stroke="#2fc273" stroke-width="2" /><text x="72.00" y="188.67" fill="#f3f4f6" font-size="15" font-weight="700" text-anchor="middle">B</text><circle cx="72.00" cy="171.47" r="5.5" fill="#2fc273" fill-opacity="0.15" stroke="#2fc273" stroke-width="2" /><text x="72.00" y="159.47" fill="#f3f4f6" font-size="15" font-weight="700" text-anchor="middle">C</text><circle cx="104.20" cy="229.57" r="5.5" fill="#2fc273" fill-opacity="0.15" stroke="#2fc273" stroke-width="2" /><text x="104.20" y="217.57" fill="#f3f4f6" font-size="15" font-weight="700" text-anchor="middle">D</text>
  <text x="56" y="492" fill="#8ba0b5" font-size="18">실시간 터치 · TP1 244.737 · TP2 245.193 · SL 243.512</text>
</svg>
