<svg xmlns="http://www.w3.org/2000/svg" width="960" height="540" viewBox="0 0 960 540">
  <rect width="960" height="540" rx="24" fill="#0b1220" />
  <rect x="28" y="28" width="904" height="484" rx="22" fill="#111827" stroke="#1f2937" />
  <text x="56" y="74" fill="#f3f4f6" font-size="34" font-weight="700">我踏马来了USDT · AB=CD</text>
  <text x="904" y="74" fill="#8ba0b5" font-size="20" text-anchor="end">Bearish (매도) · Score 85.7</text>
  <line x1="72" y1="58" x2="920" y2="58" stroke="#223045" stroke-width="1" stroke-dasharray="4 8" /><line x1="72" y1="156" x2="920" y2="156" stroke="#223045" stroke-width="1" stroke-dasharray="4 8" /><line x1="72" y1="255" x2="920" y2="255" stroke="#223045" stroke-width="1" stroke-dasharray="4 8" /><line x1="72" y1="353" x2="920" y2="353" stroke="#223045" stroke-width="1" stroke-dasharray="4 8" /><line x1="72" y1="452" x2="920" y2="452" stroke="#223045" stroke-width="1" stroke-dasharray="4 8" />
  <rect x="580.71" y="139.50" width="84" height="16.37" fill="#fbbf24" fill-opacity="0.12" stroke="#fbbf24" stroke-width="1.5" stroke-dasharray="6 6" />
  <line x1="72.00" y1="356.97" x2="72.00" y2="398.97" stroke="#0ecb81" stroke-width="1.4" /><rect x="69.00" y="361.24" width="6" height="17.80" rx="1.5" fill="#0ecb81" /><line x1="82.73" y1="346.29" x2="82.73" y2="436.34" stroke="#f6465d" stroke-width="1.4" /><rect x="79.73" y="363.02" width="6" height="51.61" rx="1.5" fill="#f6465d" /><line x1="93.47" y1="392.21" x2="93.47" y2="431.71" stroke="#f6465d" stroke-width="1.4" /><rect x="90.47" y="416.41" width="6" height="15.30" rx="1.5" fill="#f6465d" /><line x1="104.20" y1="400.75" x2="104.20" y2="452.00" stroke="#0ecb81" stroke-width="1.4" /><rect x="101.20" y="413.21" width="6" height="18.15" rx="1.5" fill="#0ecb81" /><line x1="114.94" y1="346.29" x2="114.94" y2="419.26" stroke="#0ecb81" stroke-width="1.4" /><rect x="111.94" y="352.34" width="6" height="59.08" rx="1.5" fill="#0ecb81" /><line x1="125.67" y1="282.23" x2="125.67" y2="367.65" stroke="#0ecb81" stroke-width="1.4" /><rect x="122.67" y="344.16" width="6" height="7.47" rx="1.5" fill="#0ecb81" /><line x1="136.41" y1="320.67" x2="136.41" y2="362.31" stroke="#0ecb81" stroke-width="1.4" /><rect x="133.41" y="328.50" width="6" height="15.30" rx="1.5" fill="#0ecb81" /><line x1="147.14" y1="324.23" x2="147.14" y2="371.56" stroke="#f6465d" stroke-width="1.4" /><rect x="144.14" y="326.72" width="6" height="30.96" rx="1.5" fill="#f6465d" /><line x1="157.87" y1="351.99" x2="157.87" y2="376.55" stroke="#f6465d" stroke-width="1.4" /><rect x="154.87" y="357.68" width="6" height="11.39" rx="1.5" fill="#f6465d" /><line x1="168.61" y1="312.48" x2="168.61" y2="369.07" stroke="#0ecb81" stroke-width="1.4" /><rect x="165.61" y="327.79" width="6" height="41.29" rx="1.5" fill="#0ecb81" /><line x1="179.34" y1="291.48" x2="179.34" y2="338.46" stroke="#0ecb81" stroke-width="1.4" /><rect x="176.34" y="322.09" width="6" height="7.12" rx="1.5" fill="#0ecb81" /><line x1="190.08" y1="315.68" x2="190.08" y2="345.22" stroke="#f6465d" stroke-width="1.4" /><rect x="187.08" y="321.38" width="6" height="3.92" rx="1.5" fill="#f6465d" /><line x1="200.81" y1="305.72" x2="200.81" y2="324.94" stroke="#0ecb81" stroke-width="1.4" /><rect x="197.81" y="314.26" width="6" height="9.97" rx="1.5" fill="#0ecb81" /><line x1="211.54" y1="292.91" x2="211.54" y2="318.18" stroke="#0ecb81" stroke-width="1.4" /><rect x="208.54" y="294.68" width="6" height="19.58" rx="1.5" fill="#0ecb81" /><line x1="222.28" y1="288.99" x2="222.28" y2="322.09" stroke="#f6465d" stroke-width="1.4" /><rect x="219.28" y="294.68" width="6" height="2.49" rx="1.5" fill="#f6465d" /><line x1="233.01" y1="256.96" x2="233.01" y2="323.87" stroke="#f6465d" stroke-width="1.4" /><rect x="230.01" y="297.18" width="6" height="4.98" rx="1.5" fill="#f6465d" /><line x1="243.75" y1="238.81" x2="243.75" y2="301.45" stroke="#0ecb81" stroke-width="1.4" /><rect x="240.75" y="244.14" width="6" height="56.95" rx="1.5" fill="#0ecb81" /><line x1="254.48" y1="244.86" x2="254.48" y2="272.97" stroke="#f6465d" stroke-width="1.4" /><rect x="251.48" y="245.21" width="6" height="20.29" rx="1.5" fill="#f6465d" /><line x1="265.22" y1="244.14" x2="265.22" y2="276.18" stroke="#0ecb81" stroke-width="1.4" /><rect x="262.22" y="259.45" width="6" height="6.41" rx="1.5" fill="#0ecb81" /><line x1="275.95" y1="233.47" x2="275.95" y2="266.92" stroke="#0ecb81" stroke-width="1.4" /><rect x="272.95" y="251.26" width="6" height="7.83" rx="1.5" fill="#0ecb81" /><line x1="286.68" y1="232.76" x2="286.68" y2="250.55" stroke="#0ecb81" stroke-width="1.4" /><rect x="283.68" y="246.28" width="6" height="4.27" rx="1.5" fill="#0ecb81" /><line x1="297.42" y1="217.09" x2="297.42" y2="250.91" stroke="#0ecb81" stroke-width="1.4" /><rect x="294.42" y="231.69" width="6" height="12.10" rx="1.5" fill="#0ecb81" /><line x1="308.15" y1="219.59" x2="308.15" y2="267.28" stroke="#f6465d" stroke-width="1.4" /><rect x="305.15" y="229.55" width="6" height="15.30" rx="1.5" fill="#f6465d" /><line x1="318.89" y1="235.96" x2="318.89" y2="260.52" stroke="#f6465d" stroke-width="1.4" /><rect x="315.89" y="242.36" width="6" height="8.19" rx="1.5" fill="#f6465d" /><line x1="329.62" y1="232.04" x2="329.62" y2="276.89" stroke="#f6465d" stroke-width="1.4" /><rect x="326.62" y="250.55" width="6" height="22.07" rx="1.5" fill="#f6465d" /><line x1="340.35" y1="243.43" x2="340.35" y2="291.13" stroke="#0ecb81" stroke-width="1.4" /><rect x="337.35" y="255.53" width="6" height="13.52" rx="1.5" fill="#0ecb81" /><line x1="351.09" y1="234.89" x2="351.09" y2="274.75" stroke="#0ecb81" stroke-width="1.4" /><rect x="348.09" y="239.52" width="6" height="19.93" rx="1.5" fill="#0ecb81" /><line x1="361.82" y1="225.99" x2="361.82" y2="252.33" stroke="#f6465d" stroke-width="1.4" /><rect x="358.82" y="240.23" width="6" height="2.00" rx="1.5" fill="#f6465d" /><line x1="372.56" y1="225.99" x2="372.56" y2="273.33" stroke="#f6465d" stroke-width="1.4" /><rect x="369.56" y="241.30" width="6" height="18.51" rx="1.5" fill="#f6465d" /><line x1="383.29" y1="238.09" x2="383.29" y2="265.86" stroke="#0ecb81" stroke-width="1.4" /><rect x="380.29" y="244.86" width="6" height="16.37" rx="1.5" fill="#0ecb81" /><line x1="394.03" y1="239.52" x2="394.03" y2="256.25" stroke="#f6465d" stroke-width="1.4" /><rect x="391.03" y="242.72" width="6" height="8.54" rx="1.5" fill="#f6465d" /><line x1="404.76" y1="197.16" x2="404.76" y2="250.20" stroke="#0ecb81" stroke-width="1.4" /><rect x="401.76" y="223.50" width="6" height="26.69" rx="1.5" fill="#0ecb81" /><line x1="415.49" y1="213.89" x2="415.49" y2="239.16" stroke="#f6465d" stroke-width="1.4" /><rect x="412.49" y="220.30" width="6" height="12.81" rx="1.5" fill="#f6465d" /><line x1="426.23" y1="181.15" x2="426.23" y2="231.69" stroke="#0ecb81" stroke-width="1.4" /><rect x="423.23" y="212.82" width="6" height="18.15" rx="1.5" fill="#0ecb81" /><line x1="436.96" y1="187.91" x2="436.96" y2="217.09" stroke="#0ecb81" stroke-width="1.4" /><rect x="433.96" y="202.50" width="6" height="10.68" rx="1.5" fill="#0ecb81" /><line x1="447.70" y1="169.76" x2="447.70" y2="203.57" stroke="#0ecb81" stroke-width="1.4" /><rect x="444.70" y="187.55" width="6" height="16.02" rx="1.5" fill="#0ecb81" /><line x1="458.43" y1="174.74" x2="458.43" y2="222.08" stroke="#f6465d" stroke-width="1.4" /><rect x="455.43" y="189.69" width="6" height="29.54" rx="1.5" fill="#f6465d" /><line x1="469.16" y1="214.25" x2="469.16" y2="251.97" stroke="#f6465d" stroke-width="1.4" /><rect x="466.16" y="216.74" width="6" height="13.52" rx="1.5" fill="#f6465d" /><line x1="479.90" y1="209.98" x2="479.90" y2="242.01" stroke="#f6465d" stroke-width="1.4" /><rect x="476.90" y="230.62" width="6" height="7.12" rx="1.5" fill="#f6465d" /><line x1="490.63" y1="212.82" x2="490.63" y2="309.63" stroke="#f6465d" stroke-width="1.4" /><rect x="487.63" y="235.25" width="6" height="37.37" rx="1.5" fill="#f6465d" /><line x1="501.37" y1="259.80" x2="501.37" y2="286.50" stroke="#0ecb81" stroke-width="1.4" /><rect x="498.37" y="272.97" width="6" height="2.00" rx="1.5" fill="#0ecb81" /><line x1="512.10" y1="257.67" x2="512.10" y2="282.94" stroke="#f6465d" stroke-width="1.4" /><rect x="509.10" y="270.84" width="6" height="10.68" rx="1.5" fill="#f6465d" /><line x1="522.84" y1="212.82" x2="522.84" y2="285.07" stroke="#0ecb81" stroke-width="1.4" /><rect x="519.84" y="239.87" width="6" height="39.15" rx="1.5" fill="#0ecb81" /><line x1="533.57" y1="225.64" x2="533.57" y2="244.50" stroke="#0ecb81" stroke-width="1.4" /><rect x="530.57" y="234.89" width="6" height="2.85" rx="1.5" fill="#0ecb81" /><line x1="544.30" y1="215.32" x2="544.30" y2="238.81" stroke="#0ecb81" stroke-width="1.4" /><rect x="541.30" y="222.79" width="6" height="11.75" rx="1.5" fill="#0ecb81" /><line x1="555.04" y1="198.94" x2="555.04" y2="230.98" stroke="#f6465d" stroke-width="1.4" /><rect x="552.04" y="223.15" width="6" height="6.05" rx="1.5" fill="#f6465d" /><line x1="565.77" y1="219.59" x2="565.77" y2="265.14" stroke="#f6465d" stroke-width="1.4" /><rect x="562.77" y="227.06" width="6" height="13.17" rx="1.5" fill="#f6465d" /><line x1="576.51" y1="229.55" x2="576.51" y2="259.45" stroke="#f6465d" stroke-width="1.4" /><rect x="573.51" y="241.30" width="6" height="11.75" rx="1.5" fill="#f6465d" /><line x1="587.24" y1="227.06" x2="587.24" y2="260.52" stroke="#0ecb81" stroke-width="1.4" /><rect x="584.24" y="236.67" width="6" height="16.37" rx="1.5" fill="#0ecb81" /><line x1="597.97" y1="226.35" x2="597.97" y2="245.21" stroke="#f6465d" stroke-width="1.4" /><rect x="594.97" y="232.76" width="6" height="2.49" rx="1.5" fill="#f6465d" /><line x1="608.71" y1="185.06" x2="608.71" y2="236.67" stroke="#0ecb81" stroke-width="1.4" /><rect x="605.71" y="202.50" width="6" height="33.10" rx="1.5" fill="#0ecb81" /><line x1="619.44" y1="191.82" x2="619.44" y2="239.16" stroke="#f6465d" stroke-width="1.4" /><rect x="616.44" y="200.01" width="6" height="31.68" rx="1.5" fill="#f6465d" /><line x1="630.18" y1="215.67" x2="630.18" y2="249.48" stroke="#f6465d" stroke-width="1.4" /><rect x="627.18" y="232.76" width="6" height="7.12" rx="1.5" fill="#f6465d" /><line x1="640.91" y1="234.89" x2="640.91" y2="259.09" stroke="#f6465d" stroke-width="1.4" /><rect x="637.91" y="237.38" width="6" height="11.75" rx="1.5" fill="#f6465d" /><line x1="651.65" y1="179.01" x2="651.65" y2="268.70" stroke="#0ecb81" stroke-width="1.4" /><rect x="648.65" y="181.86" width="6" height="64.78" rx="1.5" fill="#0ecb81" /><line x1="662.38" y1="158.37" x2="662.38" y2="231.69" stroke="#f6465d" stroke-width="1.4" /><rect x="659.38" y="182.57" width="6" height="44.13" rx="1.5" fill="#f6465d" /><line x1="673.11" y1="200.72" x2="673.11" y2="230.62" stroke="#0ecb81" stroke-width="1.4" /><rect x="670.11" y="212.47" width="6" height="14.24" rx="1.5" fill="#0ecb81" /><line x1="683.85" y1="211.04" x2="683.85" y2="252.33" stroke="#f6465d" stroke-width="1.4" /><rect x="680.85" y="211.04" width="6" height="36.30" rx="1.5" fill="#f6465d" /><line x1="694.58" y1="227.42" x2="694.58" y2="257.31" stroke="#0ecb81" stroke-width="1.4" /><rect x="691.58" y="231.69" width="6" height="12.81" rx="1.5" fill="#0ecb81" /><line x1="705.32" y1="222.43" x2="705.32" y2="256.96" stroke="#f6465d" stroke-width="1.4" /><rect x="702.32" y="230.26" width="6" height="21.00" rx="1.5" fill="#f6465d" /><line x1="716.05" y1="234.89" x2="716.05" y2="291.13" stroke="#f6465d" stroke-width="1.4" /><rect x="713.05" y="249.13" width="6" height="2.00" rx="1.5" fill="#f6465d" /><line x1="726.78" y1="205.35" x2="726.78" y2="252.33" stroke="#0ecb81" stroke-width="1.4" /><rect x="723.78" y="224.57" width="6" height="22.78" rx="1.5" fill="#0ecb81" /><line x1="737.52" y1="192.18" x2="737.52" y2="230.26" stroke="#0ecb81" stroke-width="1.4" /><rect x="734.52" y="217.09" width="6" height="5.69" rx="1.5" fill="#0ecb81" /><line x1="748.25" y1="175.45" x2="748.25" y2="224.57" stroke="#0ecb81" stroke-width="1.4" /><rect x="745.25" y="186.13" width="6" height="29.54" rx="1.5" fill="#0ecb81" /><line x1="758.99" y1="77.58" x2="758.99" y2="190.05" stroke="#0ecb81" stroke-width="1.4" /><rect x="755.99" y="99.64" width="6" height="86.13" rx="1.5" fill="#0ecb81" /><line x1="769.72" y1="58.00" x2="769.72" y2="156.94" stroke="#f6465d" stroke-width="1.4" /><rect x="766.72" y="99.64" width="6" height="38.79" rx="1.5" fill="#f6465d" /><line x1="780.46" y1="90.74" x2="780.46" y2="155.17" stroke="#0ecb81" stroke-width="1.4" /><rect x="777.46" y="111.03" width="6" height="28.47" rx="1.5" fill="#0ecb81" /><line x1="791.19" y1="109.25" x2="791.19" y2="287.57" stroke="#f6465d" stroke-width="1.4" /><rect x="788.19" y="111.39" width="6" height="146.64" rx="1.5" fill="#f6465d" /><line x1="801.92" y1="230.98" x2="801.92" y2="408.22" stroke="#f6465d" stroke-width="1.4" /><rect x="798.92" y="255.18" width="6" height="108.91" rx="1.5" fill="#f6465d" /><line x1="812.66" y1="300.74" x2="812.66" y2="364.09" stroke="#0ecb81" stroke-width="1.4" /><rect x="809.66" y="311.77" width="6" height="52.32" rx="1.5" fill="#0ecb81" /><line x1="823.39" y1="293.26" x2="823.39" y2="326.72" stroke="#0ecb81" stroke-width="1.4" /><rect x="820.39" y="305.36" width="6" height="3.92" rx="1.5" fill="#0ecb81" /><line x1="834.13" y1="252.69" x2="834.13" y2="310.35" stroke="#0ecb81" stroke-width="1.4" /><rect x="831.13" y="279.74" width="6" height="25.63" rx="1.5" fill="#0ecb81" /><line x1="844.86" y1="239.87" x2="844.86" y2="290.77" stroke="#0ecb81" stroke-width="1.4" /><rect x="841.86" y="270.13" width="6" height="5.69" rx="1.5" fill="#0ecb81" /><line x1="855.59" y1="265.14" x2="855.59" y2="333.48" stroke="#f6465d" stroke-width="1.4" /><rect x="852.59" y="270.13" width="6" height="50.18" rx="1.5" fill="#f6465d" /><line x1="866.33" y1="311.77" x2="866.33" y2="356.61" stroke="#f6465d" stroke-width="1.4" /><rect x="863.33" y="320.67" width="6" height="4.27" rx="1.5" fill="#f6465d" /><line x1="877.06" y1="305.01" x2="877.06" y2="342.38" stroke="#0ecb81" stroke-width="1.4" /><rect x="874.06" y="316.04" width="6" height="9.25" rx="1.5" fill="#0ecb81" /><line x1="887.80" y1="303.58" x2="887.80" y2="332.06" stroke="#0ecb81" stroke-width="1.4" /><rect x="884.80" y="305.72" width="6" height="9.25" rx="1.5" fill="#0ecb81" /><line x1="898.53" y1="277.24" x2="898.53" y2="314.97" stroke="#0ecb81" stroke-width="1.4" /><rect x="895.53" y="286.14" width="6" height="19.22" rx="1.5" fill="#0ecb81" /><line x1="909.27" y1="228.13" x2="909.27" y2="290.41" stroke="#0ecb81" stroke-width="1.4" /><rect x="906.27" y="263.72" width="6" height="23.13" rx="1.5" fill="#0ecb81" /><line x1="920.00" y1="234.53" x2="920.00" y2="283.30" stroke="#0ecb81" stroke-width="1.4" /><rect x="917.00" y="265.86" width="6" height="2.49" rx="1.5" fill="#0ecb81" />
  <polyline points="447.70,169.76 490.63,309.63 555.04,198.94 565.77,265.14 608.71,185.06" fill="none" stroke="#2fc273" stroke-width="4" stroke-linecap="round" stroke-linejoin="round" />
  <circle cx="447.70" cy="169.76" r="5.5" fill="#2fc273" fill-opacity="0.15" stroke="#2fc273" stroke-width="2" /><text x="447.70" y="157.76" fill="#f3f4f6" font-size="15" font-weight="700" text-anchor="middle">X</text><circle cx="490.63" cy="309.63" r="5.5" fill="#2fc273" fill-opacity="0.15" stroke="#2fc273" stroke-width="2" /><text x="490.63" y="297.63" fill="#f3f4f6" font-size="15" font-weight="700" text-anchor="middle">A</text><circle cx="555.04" cy="198.94" r="5.5" fill="#2fc273" fill-opacity="0.15" stroke="#2fc273" stroke-width="2" /><text x="555.04" y="186.94" fill="#f3f4f6" font-size="15" font-weight="700" text-anchor="middle">B</text><circle cx="565.77" cy="265.14" r="5.5" fill="#2fc273" fill-opacity="0.15" stroke="#2fc273" stroke-width="2" /><text x="565.77" y="253.14" fill="#f3f4f6" font-size="15" font-weight="700" text-anchor="middle">C</text><circle cx="608.71" cy="185.06" r="5.5" fill="#2fc273" fill-opacity="0.15" stroke="#2fc273" stroke-width="2" /><text x="608.71" y="173.06" fill="#f3f4f6" font-size="15" font-weight="700" text-anchor="middle">D</text>
  <text x="56" y="492" fill="#8ba0b5" font-size="18">일반 완성 · TP1 0.009103 · TP2 0.00905 · SL 0.00924</text>
</svg>
