<svg xmlns="http://www.w3.org/2000/svg" width="960" height="540" viewBox="0 0 960 540">
  <rect width="960" height="540" rx="24" fill="#0b1220" />
  <rect x="28" y="28" width="904" height="484" rx="22" fill="#111827" stroke="#1f2937" />
  <text x="56" y="74" fill="#f3f4f6" font-size="34" font-weight="700">1000PEPEUSDT · AB=CD</text>
  <text x="904" y="74" fill="#8ba0b5" font-size="20" text-anchor="end">Bearish (매도) · Score 93.0</text>
  <line x1="72" y1="58" x2="920" y2="58" stroke="#223045" stroke-width="1" stroke-dasharray="4 8" /><line x1="72" y1="156" x2="920" y2="156" stroke="#223045" stroke-width="1" stroke-dasharray="4 8" /><line x1="72" y1="255" x2="920" y2="255" stroke="#223045" stroke-width="1" stroke-dasharray="4 8" /><line x1="72" y1="353" x2="920" y2="353" stroke="#223045" stroke-width="1" stroke-dasharray="4 8" /><line x1="72" y1="452" x2="920" y2="452" stroke="#223045" stroke-width="1" stroke-dasharray="4 8" />
  <rect x="333.82" y="127.46" width="84" height="41.58" fill="#fbbf24" fill-opacity="0.12" stroke="#fbbf24" stroke-width="1.5" stroke-dasharray="6 6" />
  <line x1="72.00" y1="188.36" x2="72.00" y2="254.14" stroke="#0ecb81" stroke-width="1.4" /><rect x="69.00" y="194.47" width="6" height="59.67" rx="1.5" fill="#0ecb81" /><line x1="82.73" y1="166.34" x2="82.73" y2="197.65" stroke="#0ecb81" stroke-width="1.4" /><rect x="79.73" y="183.71" width="6" height="10.76" rx="1.5" fill="#0ecb81" /><line x1="93.47" y1="171.72" x2="93.47" y2="196.91" stroke="#f6465d" stroke-width="1.4" /><rect x="90.47" y="183.46" width="6" height="2.00" rx="1.5" fill="#f6465d" /><line x1="104.20" y1="150.45" x2="104.20" y2="184.69" stroke="#0ecb81" stroke-width="1.4" /><rect x="101.20" y="167.08" width="6" height="17.12" rx="1.5" fill="#0ecb81" /><line x1="114.94" y1="159.25" x2="114.94" y2="180.53" stroke="#f6465d" stroke-width="1.4" /><rect x="111.94" y="167.08" width="6" height="12.72" rx="1.5" fill="#f6465d" /><line x1="125.67" y1="179.55" x2="125.67" y2="194.71" stroke="#f6465d" stroke-width="1.4" /><rect x="122.67" y="179.55" width="6" height="5.14" rx="1.5" fill="#f6465d" /><line x1="136.41" y1="178.57" x2="136.41" y2="194.71" stroke="#0ecb81" stroke-width="1.4" /><rect x="133.41" y="181.75" width="6" height="2.69" rx="1.5" fill="#0ecb81" /><line x1="147.14" y1="65.83" x2="147.14" y2="185.18" stroke="#0ecb81" stroke-width="1.4" /><rect x="144.14" y="71.45" width="6" height="110.06" rx="1.5" fill="#0ecb81" /><line x1="157.87" y1="58.00" x2="157.87" y2="160.96" stroke="#f6465d" stroke-width="1.4" /><rect x="154.87" y="70.96" width="6" height="81.44" rx="1.5" fill="#f6465d" /><line x1="168.61" y1="145.80" x2="168.61" y2="180.28" stroke="#f6465d" stroke-width="1.4" /><rect x="165.61" y="152.16" width="6" height="23.72" rx="1.5" fill="#f6465d" /><line x1="179.34" y1="162.68" x2="179.34" y2="177.84" stroke="#0ecb81" stroke-width="1.4" /><rect x="176.34" y="171.97" width="6" height="3.91" rx="1.5" fill="#0ecb81" /><line x1="190.08" y1="161.45" x2="190.08" y2="199.61" stroke="#f6465d" stroke-width="1.4" /><rect x="187.08" y="171.97" width="6" height="2.69" rx="1.5" fill="#f6465d" /><line x1="200.81" y1="167.81" x2="200.81" y2="190.56" stroke="#f6465d" stroke-width="1.4" /><rect x="197.81" y="174.41" width="6" height="8.32" rx="1.5" fill="#f6465d" /><line x1="211.54" y1="176.86" x2="211.54" y2="192.02" stroke="#f6465d" stroke-width="1.4" /><rect x="208.54" y="182.73" width="6" height="3.91" rx="1.5" fill="#f6465d" /><line x1="222.28" y1="183.46" x2="222.28" y2="200.09" stroke="#f6465d" stroke-width="1.4" /><rect x="219.28" y="186.64" width="6" height="10.03" rx="1.5" fill="#f6465d" /><line x1="233.01" y1="187.38" x2="233.01" y2="219.66" stroke="#f6465d" stroke-width="1.4" /><rect x="230.01" y="196.67" width="6" height="6.36" rx="1.5" fill="#f6465d" /><line x1="243.75" y1="188.36" x2="243.75" y2="208.90" stroke="#0ecb81" stroke-width="1.4" /><rect x="240.75" y="191.53" width="6" height="11.49" rx="1.5" fill="#0ecb81" /><line x1="254.48" y1="180.77" x2="254.48" y2="209.14" stroke="#0ecb81" stroke-width="1.4" /><rect x="251.48" y="191.53" width="6" height="2.00" rx="1.5" fill="#0ecb81" /><line x1="265.22" y1="170.75" x2="265.22" y2="198.38" stroke="#f6465d" stroke-width="1.4" /><rect x="262.22" y="191.53" width="6" height="2.00" rx="1.5" fill="#f6465d" /><line x1="275.95" y1="175.15" x2="275.95" y2="202.54" stroke="#0ecb81" stroke-width="1.4" /><rect x="272.95" y="180.04" width="6" height="13.21" rx="1.5" fill="#0ecb81" /><line x1="286.68" y1="179.31" x2="286.68" y2="199.61" stroke="#f6465d" stroke-width="1.4" /><rect x="283.68" y="180.04" width="6" height="10.76" rx="1.5" fill="#f6465d" /><line x1="297.42" y1="177.35" x2="297.42" y2="201.32" stroke="#0ecb81" stroke-width="1.4" /><rect x="294.42" y="180.77" width="6" height="10.27" rx="1.5" fill="#0ecb81" /><line x1="308.15" y1="179.55" x2="308.15" y2="196.43" stroke="#f6465d" stroke-width="1.4" /><rect x="305.15" y="180.77" width="6" height="12.72" rx="1.5" fill="#f6465d" /><line x1="318.89" y1="192.27" x2="318.89" y2="212.32" stroke="#f6465d" stroke-width="1.4" /><rect x="315.89" y="193.49" width="6" height="14.67" rx="1.5" fill="#f6465d" /><line x1="329.62" y1="200.58" x2="329.62" y2="215.75" stroke="#f6465d" stroke-width="1.4" /><rect x="326.62" y="207.92" width="6" height="6.60" rx="1.5" fill="#f6465d" /><line x1="340.35" y1="201.81" x2="340.35" y2="214.77" stroke="#0ecb81" stroke-width="1.4" /><rect x="337.35" y="201.81" width="6" height="12.47" rx="1.5" fill="#0ecb81" /><line x1="351.09" y1="182.24" x2="351.09" y2="206.45" stroke="#0ecb81" stroke-width="1.4" /><rect x="348.09" y="183.46" width="6" height="18.10" rx="1.5" fill="#0ecb81" /><line x1="361.82" y1="170.26" x2="361.82" y2="184.69" stroke="#0ecb81" stroke-width="1.4" /><rect x="358.82" y="177.10" width="6" height="6.60" rx="1.5" fill="#0ecb81" /><line x1="372.56" y1="174.17" x2="372.56" y2="199.85" stroke="#f6465d" stroke-width="1.4" /><rect x="369.56" y="177.35" width="6" height="11.98" rx="1.5" fill="#f6465d" /><line x1="383.29" y1="189.58" x2="383.29" y2="202.05" stroke="#f6465d" stroke-width="1.4" /><rect x="380.29" y="189.58" width="6" height="7.83" rx="1.5" fill="#f6465d" /><line x1="394.03" y1="195.45" x2="394.03" y2="218.68" stroke="#f6465d" stroke-width="1.4" /><rect x="391.03" y="197.65" width="6" height="6.85" rx="1.5" fill="#f6465d" /><line x1="404.76" y1="201.81" x2="404.76" y2="242.89" stroke="#f6465d" stroke-width="1.4" /><rect x="401.76" y="204.74" width="6" height="12.96" rx="1.5" fill="#f6465d" /><line x1="415.49" y1="211.10" x2="415.49" y2="238.00" stroke="#f6465d" stroke-width="1.4" /><rect x="412.49" y="217.46" width="6" height="19.08" rx="1.5" fill="#f6465d" /><line x1="426.23" y1="236.54" x2="426.23" y2="248.76" stroke="#f6465d" stroke-width="1.4" /><rect x="423.23" y="236.54" width="6" height="6.85" rx="1.5" fill="#f6465d" /><line x1="436.96" y1="242.16" x2="436.96" y2="253.65" stroke="#f6465d" stroke-width="1.4" /><rect x="433.96" y="243.63" width="6" height="9.78" rx="1.5" fill="#f6465d" /><line x1="447.70" y1="253.41" x2="447.70" y2="280.80" stroke="#f6465d" stroke-width="1.4" /><rect x="444.70" y="253.65" width="6" height="17.12" rx="1.5" fill="#f6465d" /><line x1="458.43" y1="252.68" x2="458.43" y2="273.71" stroke="#0ecb81" stroke-width="1.4" /><rect x="455.43" y="256.83" width="6" height="13.94" rx="1.5" fill="#0ecb81" /><line x1="469.16" y1="237.51" x2="469.16" y2="262.70" stroke="#0ecb81" stroke-width="1.4" /><rect x="466.16" y="240.69" width="6" height="16.39" rx="1.5" fill="#0ecb81" /><line x1="479.90" y1="232.13" x2="479.90" y2="259.04" stroke="#0ecb81" stroke-width="1.4" /><rect x="476.90" y="234.33" width="6" height="6.60" rx="1.5" fill="#0ecb81" /><line x1="490.63" y1="227.49" x2="490.63" y2="239.23" stroke="#0ecb81" stroke-width="1.4" /><rect x="487.63" y="227.73" width="6" height="6.85" rx="1.5" fill="#0ecb81" /><line x1="501.37" y1="227.73" x2="501.37" y2="250.23" stroke="#f6465d" stroke-width="1.4" /><rect x="498.37" y="227.73" width="6" height="11.74" rx="1.5" fill="#f6465d" /><line x1="512.10" y1="224.55" x2="512.10" y2="242.65" stroke="#0ecb81" stroke-width="1.4" /><rect x="509.10" y="227.00" width="6" height="12.47" rx="1.5" fill="#0ecb81" /><line x1="522.84" y1="218.44" x2="522.84" y2="229.69" stroke="#0ecb81" stroke-width="1.4" /><rect x="519.84" y="227.00" width="6" height="2.00" rx="1.5" fill="#0ecb81" /><line x1="533.57" y1="227.00" x2="533.57" y2="261.24" stroke="#f6465d" stroke-width="1.4" /><rect x="530.57" y="227.00" width="6" height="33.75" rx="1.5" fill="#f6465d" /><line x1="544.30" y1="247.30" x2="544.30" y2="263.19" stroke="#0ecb81" stroke-width="1.4" /><rect x="541.30" y="250.48" width="6" height="10.03" rx="1.5" fill="#0ecb81" /><line x1="555.04" y1="249.01" x2="555.04" y2="262.46" stroke="#f6465d" stroke-width="1.4" /><rect x="552.04" y="250.48" width="6" height="10.27" rx="1.5" fill="#f6465d" /><line x1="565.77" y1="256.83" x2="565.77" y2="277.62" stroke="#f6465d" stroke-width="1.4" /><rect x="562.77" y="260.50" width="6" height="9.54" rx="1.5" fill="#f6465d" /><line x1="576.51" y1="263.93" x2="576.51" y2="280.07" stroke="#f6465d" stroke-width="1.4" /><rect x="573.51" y="270.04" width="6" height="2.69" rx="1.5" fill="#f6465d" /><line x1="587.24" y1="264.91" x2="587.24" y2="297.92" stroke="#f6465d" stroke-width="1.4" /><rect x="584.24" y="272.73" width="6" height="14.92" rx="1.5" fill="#f6465d" /><line x1="597.97" y1="282.76" x2="597.97" y2="297.68" stroke="#f6465d" stroke-width="1.4" /><rect x="594.97" y="287.89" width="6" height="3.91" rx="1.5" fill="#f6465d" /><line x1="608.71" y1="287.65" x2="608.71" y2="329.23" stroke="#f6465d" stroke-width="1.4" /><rect x="605.71" y="291.56" width="6" height="23.97" rx="1.5" fill="#f6465d" /><line x1="619.44" y1="310.64" x2="619.44" y2="393.06" stroke="#f6465d" stroke-width="1.4" /><rect x="616.44" y="315.53" width="6" height="69.70" rx="1.5" fill="#f6465d" /><line x1="630.18" y1="375.94" x2="630.18" y2="409.93" stroke="#f6465d" stroke-width="1.4" /><rect x="627.18" y="384.99" width="6" height="4.16" rx="1.5" fill="#f6465d" /><line x1="640.91" y1="364.20" x2="640.91" y2="402.84" stroke="#0ecb81" stroke-width="1.4" /><rect x="637.91" y="365.18" width="6" height="23.97" rx="1.5" fill="#0ecb81" /><line x1="651.65" y1="361.27" x2="651.65" y2="370.31" stroke="#f6465d" stroke-width="1.4" /><rect x="648.65" y="365.18" width="6" height="3.91" rx="1.5" fill="#f6465d" /><line x1="662.38" y1="359.80" x2="662.38" y2="375.45" stroke="#0ecb81" stroke-width="1.4" /><rect x="659.38" y="365.18" width="6" height="3.91" rx="1.5" fill="#0ecb81" /><line x1="673.11" y1="361.02" x2="673.11" y2="381.56" stroke="#f6465d" stroke-width="1.4" /><rect x="670.11" y="365.18" width="6" height="2.93" rx="1.5" fill="#f6465d" /><line x1="683.85" y1="367.62" x2="683.85" y2="391.35" stroke="#f6465d" stroke-width="1.4" /><rect x="680.85" y="367.87" width="6" height="17.85" rx="1.5" fill="#f6465d" /><line x1="694.58" y1="373.25" x2="694.58" y2="399.42" stroke="#f6465d" stroke-width="1.4" /><rect x="691.58" y="385.72" width="6" height="9.29" rx="1.5" fill="#f6465d" /><line x1="705.32" y1="389.39" x2="705.32" y2="414.34" stroke="#0ecb81" stroke-width="1.4" /><rect x="702.32" y="392.08" width="6" height="3.18" rx="1.5" fill="#0ecb81" /><line x1="716.05" y1="363.47" x2="716.05" y2="392.81" stroke="#0ecb81" stroke-width="1.4" /><rect x="713.05" y="379.85" width="6" height="11.98" rx="1.5" fill="#0ecb81" /><line x1="726.78" y1="370.56" x2="726.78" y2="386.70" stroke="#f6465d" stroke-width="1.4" /><rect x="723.78" y="379.85" width="6" height="4.65" rx="1.5" fill="#f6465d" /><line x1="737.52" y1="362.24" x2="737.52" y2="384.99" stroke="#0ecb81" stroke-width="1.4" /><rect x="734.52" y="367.38" width="6" height="17.12" rx="1.5" fill="#0ecb81" /><line x1="748.25" y1="344.15" x2="748.25" y2="373.00" stroke="#0ecb81" stroke-width="1.4" /><rect x="745.25" y="364.20" width="6" height="3.18" rx="1.5" fill="#0ecb81" /><line x1="758.99" y1="342.68" x2="758.99" y2="371.78" stroke="#0ecb81" stroke-width="1.4" /><rect x="755.99" y="352.71" width="6" height="11.25" rx="1.5" fill="#0ecb81" /><line x1="769.72" y1="345.12" x2="769.72" y2="364.93" stroke="#f6465d" stroke-width="1.4" /><rect x="766.72" y="352.46" width="6" height="2.00" rx="1.5" fill="#f6465d" /><line x1="780.46" y1="351.73" x2="780.46" y2="362.00" stroke="#f6465d" stroke-width="1.4" /><rect x="777.46" y="354.42" width="6" height="5.63" rx="1.5" fill="#f6465d" /><line x1="791.19" y1="353.44" x2="791.19" y2="372.27" stroke="#f6465d" stroke-width="1.4" /><rect x="788.19" y="359.80" width="6" height="7.58" rx="1.5" fill="#f6465d" /><line x1="801.92" y1="359.31" x2="801.92" y2="373.00" stroke="#0ecb81" stroke-width="1.4" /><rect x="798.92" y="359.55" width="6" height="7.83" rx="1.5" fill="#0ecb81" /><line x1="812.66" y1="328.25" x2="812.66" y2="367.13" stroke="#0ecb81" stroke-width="1.4" /><rect x="809.66" y="349.28" width="6" height="10.27" rx="1.5" fill="#0ecb81" /><line x1="823.39" y1="347.32" x2="823.39" y2="382.30" stroke="#f6465d" stroke-width="1.4" /><rect x="820.39" y="349.28" width="6" height="33.02" rx="1.5" fill="#f6465d" /><line x1="834.13" y1="373.98" x2="834.13" y2="396.73" stroke="#f6465d" stroke-width="1.4" /><rect x="831.13" y="382.30" width="6" height="8.32" rx="1.5" fill="#f6465d" /><line x1="844.86" y1="379.12" x2="844.86" y2="391.10" stroke="#0ecb81" stroke-width="1.4" /><rect x="841.86" y="381.81" width="6" height="8.56" rx="1.5" fill="#0ecb81" /><line x1="855.59" y1="368.85" x2="855.59" y2="384.99" stroke="#0ecb81" stroke-width="1.4" /><rect x="852.59" y="378.14" width="6" height="3.91" rx="1.5" fill="#0ecb81" /><line x1="866.33" y1="372.52" x2="866.33" y2="384.01" stroke="#f6465d" stroke-width="1.4" /><rect x="863.33" y="378.38" width="6" height="3.91" rx="1.5" fill="#f6465d" /><line x1="877.06" y1="380.10" x2="877.06" y2="398.93" stroke="#f6465d" stroke-width="1.4" /><rect x="874.06" y="382.30" width="6" height="13.45" rx="1.5" fill="#f6465d" /><line x1="887.80" y1="384.99" x2="887.80" y2="402.84" stroke="#f6465d" stroke-width="1.4" /><rect x="884.80" y="395.75" width="6" height="6.36" rx="1.5" fill="#f6465d" /><line x1="898.53" y1="396.97" x2="898.53" y2="452.00" stroke="#f6465d" stroke-width="1.4" /><rect x="895.53" y="401.86" width="6" height="33.51" rx="1.5" fill="#f6465d" /><line x1="909.27" y1="414.83" x2="909.27" y2="441.97" stroke="#0ecb81" stroke-width="1.4" /><rect x="906.27" y="416.78" width="6" height="18.59" rx="1.5" fill="#0ecb81" /><line x1="920.00" y1="416.78" x2="920.00" y2="420.70" stroke="#f6465d" stroke-width="1.4" /><rect x="917.00" y="416.78" width="6" height="2.45" rx="1.5" fill="#f6465d" />
  <polyline points="157.87,58.98 233.01,220.39 265.22,171.48 329.62,215.50 361.82,171.48" fill="none" stroke="#2fc273" stroke-width="4" stroke-linecap="round" stroke-linejoin="round" />
  <circle cx="157.87" cy="58.98" r="5.5" fill="#2fc273" fill-opacity="0.15" stroke="#2fc273" stroke-width="2" /><text x="157.87" y="46.98" fill="#f3f4f6" font-size="15" font-weight="700" text-anchor="middle">X</text><circle cx="233.01" cy="220.39" r="5.5" fill="#2fc273" fill-opacity="0.15" stroke="#2fc273" stroke-width="2" /><text x="233.01" y="208.39" fill="#f3f4f6" font-size="15" font-weight="700" text-anchor="middle">A</text><circle cx="265.22" cy="171.48" r="5.5" fill="#2fc273" fill-opacity="0.15" stroke="#2fc273" stroke-width="2" /><text x="265.22" y="159.48" fill="#f3f4f6" font-size="15" font-weight="700" text-anchor="middle">B</text><circle cx="329.62" cy="215.50" r="5.5" fill="#2fc273" fill-opacity="0.15" stroke="#2fc273" stroke-width="2" /><text x="329.62" y="203.50" fill="#f3f4f6" font-size="15" font-weight="700" text-anchor="middle">C</text><circle cx="361.82" cy="171.48" r="5.5" fill="#2fc273" fill-opacity="0.15" stroke="#2fc273" stroke-width="2" /><text x="361.82" y="159.48" fill="#f3f4f6" font-size="15" font-weight="700" text-anchor="middle">D</text>
  <text x="56" y="492" fill="#8ba0b5" font-size="18">일반 완성 · TP1 0.003403 · TP2 0.003399 · SL 0.003419</text>
</svg>
