<svg xmlns="http://www.w3.org/2000/svg" width="960" height="540" viewBox="0 0 960 540">
  <rect width="960" height="540" rx="24" fill="#0b1220" />
  <rect x="28" y="28" width="904" height="484" rx="22" fill="#111827" stroke="#1f2937" />
  <text x="56" y="74" fill="#f3f4f6" font-size="34" font-weight="700">1000BONKUSDT · AB=CD</text>
  <text x="904" y="74" fill="#8ba0b5" font-size="20" text-anchor="end">Bullish (매수) · Score 81.5</text>
  <line x1="72" y1="58" x2="920" y2="58" stroke="#223045" stroke-width="1" stroke-dasharray="4 8" /><line x1="72" y1="156" x2="920" y2="156" stroke="#223045" stroke-width="1" stroke-dasharray="4 8" /><line x1="72" y1="255" x2="920" y2="255" stroke="#223045" stroke-width="1" stroke-dasharray="4 8" /><line x1="72" y1="353" x2="920" y2="353" stroke="#223045" stroke-width="1" stroke-dasharray="4 8" /><line x1="72" y1="452" x2="920" y2="452" stroke="#223045" stroke-width="1" stroke-dasharray="4 8" />
  <rect x="623.65" y="472.32" width="84" height="19.59" fill="#fbbf24" fill-opacity="0.12" stroke="#fbbf24" stroke-width="1.5" stroke-dasharray="6 6" />
  <line x1="72.00" y1="365.65" x2="72.00" y2="388.87" stroke="#f6465d" stroke-width="1.4" /><rect x="69.00" y="367.83" width="6" height="15.96" rx="1.5" fill="#f6465d" /><line x1="82.73" y1="368.56" x2="82.73" y2="384.52" stroke="#0ecb81" stroke-width="1.4" /><rect x="79.73" y="374.36" width="6" height="8.71" rx="1.5" fill="#0ecb81" /><line x1="93.47" y1="371.46" x2="93.47" y2="379.44" stroke="#f6465d" stroke-width="1.4" /><rect x="90.47" y="374.36" width="6" height="2.18" rx="1.5" fill="#f6465d" /><line x1="104.20" y1="357.67" x2="104.20" y2="376.54" stroke="#0ecb81" stroke-width="1.4" /><rect x="101.20" y="359.85" width="6" height="15.96" rx="1.5" fill="#0ecb81" /><line x1="114.94" y1="350.42" x2="114.94" y2="368.56" stroke="#f6465d" stroke-width="1.4" /><rect x="111.94" y="360.57" width="6" height="2.00" rx="1.5" fill="#f6465d" /><line x1="125.67" y1="353.32" x2="125.67" y2="369.28" stroke="#0ecb81" stroke-width="1.4" /><rect x="122.67" y="358.40" width="6" height="2.90" rx="1.5" fill="#0ecb81" /><line x1="136.41" y1="354.77" x2="136.41" y2="367.10" stroke="#0ecb81" stroke-width="1.4" /><rect x="133.41" y="356.22" width="6" height="2.00" rx="1.5" fill="#0ecb81" /><line x1="147.14" y1="354.04" x2="147.14" y2="358.40" stroke="#0ecb81" stroke-width="1.4" /><rect x="144.14" y="356.22" width="6" height="2.00" rx="1.5" fill="#0ecb81" /><line x1="157.87" y1="356.22" x2="157.87" y2="364.20" stroke="#f6465d" stroke-width="1.4" /><rect x="154.87" y="356.95" width="6" height="5.08" rx="1.5" fill="#f6465d" /><line x1="168.61" y1="359.85" x2="168.61" y2="366.38" stroke="#f6465d" stroke-width="1.4" /><rect x="165.61" y="361.30" width="6" height="2.18" rx="1.5" fill="#f6465d" /><line x1="179.34" y1="343.89" x2="179.34" y2="364.93" stroke="#0ecb81" stroke-width="1.4" /><rect x="176.34" y="359.85" width="6" height="2.90" rx="1.5" fill="#0ecb81" /><line x1="190.08" y1="359.12" x2="190.08" y2="377.99" stroke="#f6465d" stroke-width="1.4" /><rect x="187.08" y="359.85" width="6" height="18.14" rx="1.5" fill="#f6465d" /><line x1="200.81" y1="374.36" x2="200.81" y2="383.07" stroke="#f6465d" stroke-width="1.4" /><rect x="197.81" y="377.99" width="6" height="4.35" rx="1.5" fill="#f6465d" /><line x1="211.54" y1="371.46" x2="211.54" y2="385.24" stroke="#0ecb81" stroke-width="1.4" /><rect x="208.54" y="377.99" width="6" height="4.35" rx="1.5" fill="#0ecb81" /><line x1="222.28" y1="366.38" x2="222.28" y2="378.71" stroke="#0ecb81" stroke-width="1.4" /><rect x="219.28" y="370.73" width="6" height="6.53" rx="1.5" fill="#0ecb81" /><line x1="233.01" y1="367.10" x2="233.01" y2="371.46" stroke="#f6465d" stroke-width="1.4" /><rect x="230.01" y="370.73" width="6" height="2.00" rx="1.5" fill="#f6465d" /><line x1="243.75" y1="371.46" x2="243.75" y2="384.52" stroke="#f6465d" stroke-width="1.4" /><rect x="240.75" y="371.46" width="6" height="11.61" rx="1.5" fill="#f6465d" /><line x1="254.48" y1="380.17" x2="254.48" y2="389.60" stroke="#f6465d" stroke-width="1.4" /><rect x="251.48" y="382.34" width="6" height="5.08" rx="1.5" fill="#f6465d" /><line x1="265.22" y1="383.79" x2="265.22" y2="417.17" stroke="#f6465d" stroke-width="1.4" /><rect x="262.22" y="388.15" width="6" height="24.67" rx="1.5" fill="#f6465d" /><line x1="275.95" y1="405.56" x2="275.95" y2="417.90" stroke="#0ecb81" stroke-width="1.4" /><rect x="272.95" y="409.92" width="6" height="2.90" rx="1.5" fill="#0ecb81" /><line x1="286.68" y1="404.84" x2="286.68" y2="414.27" stroke="#f6465d" stroke-width="1.4" /><rect x="283.68" y="409.19" width="6" height="5.08" rx="1.5" fill="#f6465d" /><line x1="297.42" y1="402.66" x2="297.42" y2="424.43" stroke="#f6465d" stroke-width="1.4" /><rect x="294.42" y="414.27" width="6" height="6.53" rx="1.5" fill="#f6465d" /><line x1="308.15" y1="401.21" x2="308.15" y2="422.98" stroke="#0ecb81" stroke-width="1.4" /><rect x="305.15" y="405.56" width="6" height="15.24" rx="1.5" fill="#0ecb81" /><line x1="318.89" y1="387.42" x2="318.89" y2="406.29" stroke="#0ecb81" stroke-width="1.4" /><rect x="315.89" y="388.87" width="6" height="15.96" rx="1.5" fill="#0ecb81" /><line x1="329.62" y1="381.62" x2="329.62" y2="406.29" stroke="#f6465d" stroke-width="1.4" /><rect x="326.62" y="389.60" width="6" height="15.24" rx="1.5" fill="#f6465d" /><line x1="340.35" y1="384.52" x2="340.35" y2="408.46" stroke="#0ecb81" stroke-width="1.4" /><rect x="337.35" y="393.23" width="6" height="11.61" rx="1.5" fill="#0ecb81" /><line x1="351.09" y1="385.97" x2="351.09" y2="397.58" stroke="#0ecb81" stroke-width="1.4" /><rect x="348.09" y="391.78" width="6" height="2.00" rx="1.5" fill="#0ecb81" /><line x1="361.82" y1="389.60" x2="361.82" y2="397.58" stroke="#f6465d" stroke-width="1.4" /><rect x="358.82" y="391.05" width="6" height="4.35" rx="1.5" fill="#f6465d" /><line x1="372.56" y1="394.68" x2="372.56" y2="420.07" stroke="#f6465d" stroke-width="1.4" /><rect x="369.56" y="395.40" width="6" height="10.16" rx="1.5" fill="#f6465d" /><line x1="383.29" y1="367.10" x2="383.29" y2="410.64" stroke="#0ecb81" stroke-width="1.4" /><rect x="380.29" y="372.18" width="6" height="33.38" rx="1.5" fill="#0ecb81" /><line x1="394.03" y1="341.71" x2="394.03" y2="388.15" stroke="#f6465d" stroke-width="1.4" /><rect x="391.03" y="371.46" width="6" height="10.16" rx="1.5" fill="#f6465d" /><line x1="404.76" y1="379.44" x2="404.76" y2="396.85" stroke="#f6465d" stroke-width="1.4" /><rect x="401.76" y="380.89" width="6" height="11.61" rx="1.5" fill="#f6465d" /><line x1="415.49" y1="380.17" x2="415.49" y2="394.68" stroke="#0ecb81" stroke-width="1.4" /><rect x="412.49" y="387.42" width="6" height="5.80" rx="1.5" fill="#0ecb81" /><line x1="426.23" y1="385.24" x2="426.23" y2="399.76" stroke="#f6465d" stroke-width="1.4" /><rect x="423.23" y="387.42" width="6" height="11.61" rx="1.5" fill="#f6465d" /><line x1="436.96" y1="388.87" x2="436.96" y2="407.74" stroke="#f6465d" stroke-width="1.4" /><rect x="433.96" y="399.03" width="6" height="5.08" rx="1.5" fill="#f6465d" /><line x1="447.70" y1="401.21" x2="447.70" y2="419.35" stroke="#f6465d" stroke-width="1.4" /><rect x="444.70" y="404.11" width="6" height="10.16" rx="1.5" fill="#f6465d" /><line x1="458.43" y1="396.85" x2="458.43" y2="418.62" stroke="#0ecb81" stroke-width="1.4" /><rect x="455.43" y="401.21" width="6" height="13.06" rx="1.5" fill="#0ecb81" /><line x1="469.16" y1="400.48" x2="469.16" y2="416.45" stroke="#f6465d" stroke-width="1.4" /><rect x="466.16" y="400.48" width="6" height="5.08" rx="1.5" fill="#f6465d" /><line x1="479.90" y1="392.50" x2="479.90" y2="411.37" stroke="#0ecb81" stroke-width="1.4" /><rect x="476.90" y="394.68" width="6" height="10.88" rx="1.5" fill="#0ecb81" /><line x1="490.63" y1="390.32" x2="490.63" y2="404.11" stroke="#f6465d" stroke-width="1.4" /><rect x="487.63" y="393.95" width="6" height="8.71" rx="1.5" fill="#f6465d" /><line x1="501.37" y1="402.66" x2="501.37" y2="414.99" stroke="#f6465d" stroke-width="1.4" /><rect x="498.37" y="403.38" width="6" height="11.61" rx="1.5" fill="#f6465d" /><line x1="512.10" y1="408.46" x2="512.10" y2="415.72" stroke="#0ecb81" stroke-width="1.4" /><rect x="509.10" y="409.92" width="6" height="4.35" rx="1.5" fill="#0ecb81" /><line x1="522.84" y1="394.68" x2="522.84" y2="409.19" stroke="#0ecb81" stroke-width="1.4" /><rect x="519.84" y="404.84" width="6" height="4.35" rx="1.5" fill="#0ecb81" /><line x1="533.57" y1="401.21" x2="533.57" y2="414.27" stroke="#0ecb81" stroke-width="1.4" /><rect x="530.57" y="403.38" width="6" height="2.00" rx="1.5" fill="#0ecb81" /><line x1="544.30" y1="403.38" x2="544.30" y2="416.45" stroke="#f6465d" stroke-width="1.4" /><rect x="541.30" y="403.38" width="6" height="6.53" rx="1.5" fill="#f6465d" /><line x1="555.04" y1="387.42" x2="555.04" y2="410.64" stroke="#0ecb81" stroke-width="1.4" /><rect x="552.04" y="399.03" width="6" height="10.16" rx="1.5" fill="#0ecb81" /><line x1="565.77" y1="398.31" x2="565.77" y2="447.65" stroke="#f6465d" stroke-width="1.4" /><rect x="562.77" y="398.31" width="6" height="39.18" rx="1.5" fill="#f6465d" /><line x1="576.51" y1="420.07" x2="576.51" y2="452.00" stroke="#0ecb81" stroke-width="1.4" /><rect x="573.51" y="424.43" width="6" height="15.24" rx="1.5" fill="#0ecb81" /><line x1="587.24" y1="420.07" x2="587.24" y2="434.59" stroke="#f6465d" stroke-width="1.4" /><rect x="584.24" y="424.43" width="6" height="5.80" rx="1.5" fill="#f6465d" /><line x1="597.97" y1="419.35" x2="597.97" y2="431.68" stroke="#f6465d" stroke-width="1.4" /><rect x="594.97" y="430.23" width="6" height="2.00" rx="1.5" fill="#f6465d" /><line x1="608.71" y1="420.07" x2="608.71" y2="436.04" stroke="#0ecb81" stroke-width="1.4" /><rect x="605.71" y="429.51" width="6" height="2.18" rx="1.5" fill="#0ecb81" /><line x1="619.44" y1="417.90" x2="619.44" y2="432.41" stroke="#0ecb81" stroke-width="1.4" /><rect x="616.44" y="422.98" width="6" height="6.53" rx="1.5" fill="#0ecb81" /><line x1="630.18" y1="422.25" x2="630.18" y2="448.37" stroke="#f6465d" stroke-width="1.4" /><rect x="627.18" y="422.98" width="6" height="10.16" rx="1.5" fill="#f6465d" /><line x1="640.91" y1="432.41" x2="640.91" y2="444.02" stroke="#f6465d" stroke-width="1.4" /><rect x="637.91" y="433.13" width="6" height="7.98" rx="1.5" fill="#f6465d" /><line x1="651.65" y1="436.76" x2="651.65" y2="449.82" stroke="#f6465d" stroke-width="1.4" /><rect x="648.65" y="441.12" width="6" height="2.00" rx="1.5" fill="#f6465d" /><line x1="662.38" y1="409.19" x2="662.38" y2="441.12" stroke="#0ecb81" stroke-width="1.4" /><rect x="659.38" y="428.78" width="6" height="12.34" rx="1.5" fill="#0ecb81" /><line x1="673.11" y1="409.19" x2="673.11" y2="433.13" stroke="#0ecb81" stroke-width="1.4" /><rect x="670.11" y="420.80" width="6" height="7.26" rx="1.5" fill="#0ecb81" /><line x1="683.85" y1="417.90" x2="683.85" y2="430.96" stroke="#0ecb81" stroke-width="1.4" /><rect x="680.85" y="420.07" width="6" height="2.00" rx="1.5" fill="#0ecb81" /><line x1="694.58" y1="348.24" x2="694.58" y2="421.52" stroke="#0ecb81" stroke-width="1.4" /><rect x="691.58" y="356.95" width="6" height="63.85" rx="1.5" fill="#0ecb81" /><line x1="705.32" y1="331.55" x2="705.32" y2="360.57" stroke="#0ecb81" stroke-width="1.4" /><rect x="702.32" y="334.45" width="6" height="22.49" rx="1.5" fill="#0ecb81" /><line x1="716.05" y1="303.98" x2="716.05" y2="338.81" stroke="#0ecb81" stroke-width="1.4" /><rect x="713.05" y="303.98" width="6" height="29.75" rx="1.5" fill="#0ecb81" /><line x1="726.78" y1="256.81" x2="726.78" y2="304.70" stroke="#0ecb81" stroke-width="1.4" /><rect x="723.78" y="276.41" width="6" height="27.57" rx="1.5" fill="#0ecb81" /><line x1="737.52" y1="243.75" x2="737.52" y2="286.56" stroke="#f6465d" stroke-width="1.4" /><rect x="734.52" y="276.41" width="6" height="3.63" rx="1.5" fill="#f6465d" /><line x1="748.25" y1="248.11" x2="748.25" y2="280.03" stroke="#0ecb81" stroke-width="1.4" /><rect x="745.25" y="248.11" width="6" height="31.93" rx="1.5" fill="#0ecb81" /><line x1="758.99" y1="173.37" x2="758.99" y2="248.83" stroke="#0ecb81" stroke-width="1.4" /><rect x="755.99" y="186.43" width="6" height="61.68" rx="1.5" fill="#0ecb81" /><line x1="769.72" y1="139.27" x2="769.72" y2="193.69" stroke="#0ecb81" stroke-width="1.4" /><rect x="766.72" y="145.07" width="6" height="42.81" rx="1.5" fill="#0ecb81" /><line x1="780.46" y1="111.69" x2="780.46" y2="157.41" stroke="#0ecb81" stroke-width="1.4" /><rect x="777.46" y="115.32" width="6" height="29.75" rx="1.5" fill="#0ecb81" /><line x1="791.19" y1="96.46" x2="791.19" y2="143.62" stroke="#f6465d" stroke-width="1.4" /><rect x="788.19" y="114.60" width="6" height="6.53" rx="1.5" fill="#f6465d" /><line x1="801.92" y1="106.62" x2="801.92" y2="139.27" stroke="#f6465d" stroke-width="1.4" /><rect x="798.92" y="121.13" width="6" height="9.43" rx="1.5" fill="#f6465d" /><line x1="812.66" y1="121.85" x2="812.66" y2="161.03" stroke="#0ecb81" stroke-width="1.4" /><rect x="809.66" y="122.58" width="6" height="7.26" rx="1.5" fill="#0ecb81" /><line x1="823.39" y1="104.44" x2="823.39" y2="155.23" stroke="#f6465d" stroke-width="1.4" /><rect x="820.39" y="122.58" width="6" height="17.41" rx="1.5" fill="#f6465d" /><line x1="834.13" y1="137.09" x2="834.13" y2="164.66" stroke="#f6465d" stroke-width="1.4" /><rect x="831.13" y="139.99" width="6" height="21.04" rx="1.5" fill="#f6465d" /><line x1="844.86" y1="58.00" x2="844.86" y2="163.21" stroke="#0ecb81" stroke-width="1.4" /><rect x="841.86" y="84.85" width="6" height="75.46" rx="1.5" fill="#0ecb81" /><line x1="855.59" y1="61.63" x2="855.59" y2="114.60" stroke="#f6465d" stroke-width="1.4" /><rect x="852.59" y="85.57" width="6" height="7.98" rx="1.5" fill="#f6465d" /><line x1="866.33" y1="75.41" x2="866.33" y2="129.11" stroke="#f6465d" stroke-width="1.4" /><rect x="863.33" y="94.28" width="6" height="29.02" rx="1.5" fill="#f6465d" /><line x1="877.06" y1="112.42" x2="877.06" y2="126.93" stroke="#f6465d" stroke-width="1.4" /><rect x="874.06" y="123.30" width="6" height="2.00" rx="1.5" fill="#f6465d" /><line x1="887.80" y1="108.79" x2="887.80" y2="143.62" stroke="#f6465d" stroke-width="1.4" /><rect x="884.80" y="124.03" width="6" height="17.41" rx="1.5" fill="#f6465d" /><line x1="898.53" y1="137.09" x2="898.53" y2="160.31" stroke="#f6465d" stroke-width="1.4" /><rect x="895.53" y="141.44" width="6" height="14.51" rx="1.5" fill="#f6465d" /><line x1="909.27" y1="147.25" x2="909.27" y2="169.74" stroke="#f6465d" stroke-width="1.4" /><rect x="906.27" y="155.96" width="6" height="2.00" rx="1.5" fill="#f6465d" /><line x1="920.00" y1="150.15" x2="920.00" y2="163.21" stroke="#0ecb81" stroke-width="1.4" /><rect x="917.00" y="155.96" width="6" height="2.00" rx="1.5" fill="#0ecb81" />
  <polyline points="447.70,419.35 555.04,387.42 576.51,452.00 619.44,417.90 651.65,449.82" fill="none" stroke="#2fc273" stroke-width="4" stroke-linecap="round" stroke-linejoin="round" />
  <circle cx="447.70" cy="419.35" r="5.5" fill="#2fc273" fill-opacity="0.15" stroke="#2fc273" stroke-width="2" /><text x="447.70" y="407.35" fill="#f3f4f6" font-size="15" font-weight="700" text-anchor="middle">X</text><circle cx="555.04" cy="387.42" r="5.5" fill="#2fc273" fill-opacity="0.15" stroke="#2fc273" stroke-width="2" /><text x="555.04" y="375.42" fill="#f3f4f6" font-size="15" font-weight="700" text-anchor="middle">A</text><circle cx="576.51" cy="452.00" r="5.5" fill="#2fc273" fill-opacity="0.15" stroke="#2fc273" stroke-width="2" /><text x="576.51" y="440.00" fill="#f3f4f6" font-size="15" font-weight="700" text-anchor="middle">B</text><circle cx="619.44" cy="417.90" r="5.5" fill="#2fc273" fill-opacity="0.15" stroke="#2fc273" stroke-width="2" /><text x="619.44" y="405.90" fill="#f3f4f6" font-size="15" font-weight="700" text-anchor="middle">C</text><circle cx="651.65" cy="449.82" r="5.5" fill="#2fc273" fill-opacity="0.15" stroke="#2fc273" stroke-width="2" /><text x="651.65" y="437.82" fill="#f3f4f6" font-size="15" font-weight="700" text-anchor="middle">D</text>
  <text x="56" y="492" fill="#8ba0b5" font-size="18">일반 완성 · TP1 0.005406 · TP2 0.005416 · SL 0.005383</text>
</svg>
