<svg xmlns="http://www.w3.org/2000/svg" width="960" height="540" viewBox="0 0 960 540">
  <rect width="960" height="540" rx="24" fill="#0b1220" />
  <rect x="28" y="28" width="904" height="484" rx="22" fill="#111827" stroke="#1f2937" />
  <text x="56" y="74" fill="#f3f4f6" font-size="34" font-weight="700">1000PEPEUSDT · AB=CD</text>
  <text x="904" y="74" fill="#8ba0b5" font-size="20" text-anchor="end">Bearish (매도) · Score 90.8</text>
  <line x1="72" y1="58" x2="920" y2="58" stroke="#223045" stroke-width="1" stroke-dasharray="4 8" /><line x1="72" y1="156" x2="920" y2="156" stroke="#223045" stroke-width="1" stroke-dasharray="4 8" /><line x1="72" y1="255" x2="920" y2="255" stroke="#223045" stroke-width="1" stroke-dasharray="4 8" /><line x1="72" y1="353" x2="920" y2="353" stroke="#223045" stroke-width="1" stroke-dasharray="4 8" /><line x1="72" y1="452" x2="920" y2="452" stroke="#223045" stroke-width="1" stroke-dasharray="4 8" />
  <rect x="280.15" y="124.76" width="84" height="39.96" fill="#fbbf24" fill-opacity="0.12" stroke="#fbbf24" stroke-width="1.5" stroke-dasharray="6 6" />
  <line x1="72.00" y1="174.84" x2="72.00" y2="189.41" stroke="#f6465d" stroke-width="1.4" /><rect x="69.00" y="174.84" width="6" height="4.94" rx="1.5" fill="#f6465d" /><line x1="82.73" y1="173.90" x2="82.73" y2="189.41" stroke="#0ecb81" stroke-width="1.4" /><rect x="79.73" y="176.95" width="6" height="2.59" rx="1.5" fill="#0ecb81" /><line x1="93.47" y1="65.52" x2="93.47" y2="180.24" stroke="#0ecb81" stroke-width="1.4" /><rect x="90.47" y="70.93" width="6" height="105.79" rx="1.5" fill="#0ecb81" /><line x1="104.20" y1="58.00" x2="104.20" y2="156.97" stroke="#f6465d" stroke-width="1.4" /><rect x="101.20" y="70.46" width="6" height="78.28" rx="1.5" fill="#f6465d" /><line x1="114.94" y1="142.39" x2="114.94" y2="175.54" stroke="#f6465d" stroke-width="1.4" /><rect x="111.94" y="148.51" width="6" height="22.80" rx="1.5" fill="#f6465d" /><line x1="125.67" y1="158.62" x2="125.67" y2="173.19" stroke="#0ecb81" stroke-width="1.4" /><rect x="122.67" y="167.55" width="6" height="3.76" rx="1.5" fill="#0ecb81" /><line x1="136.41" y1="157.44" x2="136.41" y2="194.11" stroke="#f6465d" stroke-width="1.4" /><rect x="133.41" y="167.55" width="6" height="2.59" rx="1.5" fill="#f6465d" /><line x1="147.14" y1="163.55" x2="147.14" y2="185.42" stroke="#f6465d" stroke-width="1.4" /><rect x="144.14" y="169.90" width="6" height="7.99" rx="1.5" fill="#f6465d" /><line x1="157.87" y1="172.25" x2="157.87" y2="186.83" stroke="#f6465d" stroke-width="1.4" /><rect x="154.87" y="177.89" width="6" height="3.76" rx="1.5" fill="#f6465d" /><line x1="168.61" y1="178.60" x2="168.61" y2="194.58" stroke="#f6465d" stroke-width="1.4" /><rect x="165.61" y="181.65" width="6" height="9.64" rx="1.5" fill="#f6465d" /><line x1="179.34" y1="182.36" x2="179.34" y2="213.39" stroke="#f6465d" stroke-width="1.4" /><rect x="176.34" y="191.29" width="6" height="6.11" rx="1.5" fill="#f6465d" /><line x1="190.08" y1="183.30" x2="190.08" y2="203.05" stroke="#0ecb81" stroke-width="1.4" /><rect x="187.08" y="186.36" width="6" height="11.05" rx="1.5" fill="#0ecb81" /><line x1="200.81" y1="176.01" x2="200.81" y2="203.28" stroke="#0ecb81" stroke-width="1.4" /><rect x="197.81" y="186.36" width="6" height="2.00" rx="1.5" fill="#0ecb81" /><line x1="211.54" y1="166.37" x2="211.54" y2="192.94" stroke="#f6465d" stroke-width="1.4" /><rect x="208.54" y="186.36" width="6" height="2.00" rx="1.5" fill="#f6465d" /><line x1="222.28" y1="170.61" x2="222.28" y2="196.93" stroke="#0ecb81" stroke-width="1.4" /><rect x="219.28" y="175.31" width="6" height="12.69" rx="1.5" fill="#0ecb81" /><line x1="233.01" y1="174.60" x2="233.01" y2="194.11" stroke="#f6465d" stroke-width="1.4" /><rect x="230.01" y="175.31" width="6" height="10.34" rx="1.5" fill="#f6465d" /><line x1="243.75" y1="172.72" x2="243.75" y2="195.76" stroke="#0ecb81" stroke-width="1.4" /><rect x="240.75" y="176.01" width="6" height="9.87" rx="1.5" fill="#0ecb81" /><line x1="254.48" y1="174.84" x2="254.48" y2="191.06" stroke="#f6465d" stroke-width="1.4" /><rect x="251.48" y="176.01" width="6" height="12.22" rx="1.5" fill="#f6465d" /><line x1="265.22" y1="187.06" x2="265.22" y2="206.34" stroke="#f6465d" stroke-width="1.4" /><rect x="262.22" y="188.24" width="6" height="14.11" rx="1.5" fill="#f6465d" /><line x1="275.95" y1="195.05" x2="275.95" y2="209.63" stroke="#f6465d" stroke-width="1.4" /><rect x="272.95" y="202.11" width="6" height="6.35" rx="1.5" fill="#f6465d" /><line x1="286.68" y1="196.23" x2="286.68" y2="208.69" stroke="#0ecb81" stroke-width="1.4" /><rect x="283.68" y="196.23" width="6" height="11.99" rx="1.5" fill="#0ecb81" /><line x1="297.42" y1="177.42" x2="297.42" y2="200.70" stroke="#0ecb81" stroke-width="1.4" /><rect x="294.42" y="178.60" width="6" height="17.40" rx="1.5" fill="#0ecb81" /><line x1="308.15" y1="165.90" x2="308.15" y2="179.77" stroke="#0ecb81" stroke-width="1.4" /><rect x="305.15" y="172.49" width="6" height="6.35" rx="1.5" fill="#0ecb81" /><line x1="318.89" y1="169.66" x2="318.89" y2="194.35" stroke="#f6465d" stroke-width="1.4" /><rect x="315.89" y="172.72" width="6" height="11.52" rx="1.5" fill="#f6465d" /><line x1="329.62" y1="184.47" x2="329.62" y2="196.46" stroke="#f6465d" stroke-width="1.4" /><rect x="326.62" y="184.47" width="6" height="7.52" rx="1.5" fill="#f6465d" /><line x1="340.35" y1="190.12" x2="340.35" y2="212.45" stroke="#f6465d" stroke-width="1.4" /><rect x="337.35" y="192.23" width="6" height="6.58" rx="1.5" fill="#f6465d" /><line x1="351.09" y1="196.23" x2="351.09" y2="235.72" stroke="#f6465d" stroke-width="1.4" /><rect x="348.09" y="199.05" width="6" height="12.46" rx="1.5" fill="#f6465d" /><line x1="361.82" y1="205.16" x2="361.82" y2="231.02" stroke="#f6465d" stroke-width="1.4" /><rect x="358.82" y="211.27" width="6" height="18.34" rx="1.5" fill="#f6465d" /><line x1="372.56" y1="229.61" x2="372.56" y2="241.37" stroke="#f6465d" stroke-width="1.4" /><rect x="369.56" y="229.61" width="6" height="6.58" rx="1.5" fill="#f6465d" /><line x1="383.29" y1="235.02" x2="383.29" y2="246.07" stroke="#f6465d" stroke-width="1.4" /><rect x="380.29" y="236.43" width="6" height="9.40" rx="1.5" fill="#f6465d" /><line x1="394.03" y1="245.83" x2="394.03" y2="272.16" stroke="#f6465d" stroke-width="1.4" /><rect x="391.03" y="246.07" width="6" height="16.46" rx="1.5" fill="#f6465d" /><line x1="404.76" y1="245.13" x2="404.76" y2="265.34" stroke="#0ecb81" stroke-width="1.4" /><rect x="401.76" y="249.12" width="6" height="13.40" rx="1.5" fill="#0ecb81" /><line x1="415.49" y1="230.55" x2="415.49" y2="254.76" stroke="#0ecb81" stroke-width="1.4" /><rect x="412.49" y="233.61" width="6" height="15.75" rx="1.5" fill="#0ecb81" /><line x1="426.23" y1="225.38" x2="426.23" y2="251.24" stroke="#0ecb81" stroke-width="1.4" /><rect x="423.23" y="227.50" width="6" height="6.35" rx="1.5" fill="#0ecb81" /><line x1="436.96" y1="220.91" x2="436.96" y2="232.20" stroke="#0ecb81" stroke-width="1.4" /><rect x="433.96" y="221.15" width="6" height="6.58" rx="1.5" fill="#0ecb81" /><line x1="447.70" y1="221.15" x2="447.70" y2="242.78" stroke="#f6465d" stroke-width="1.4" /><rect x="444.70" y="221.15" width="6" height="11.28" rx="1.5" fill="#f6465d" /><line x1="458.43" y1="218.09" x2="458.43" y2="235.49" stroke="#0ecb81" stroke-width="1.4" /><rect x="455.43" y="220.44" width="6" height="11.99" rx="1.5" fill="#0ecb81" /><line x1="469.16" y1="212.21" x2="469.16" y2="223.03" stroke="#0ecb81" stroke-width="1.4" /><rect x="466.16" y="220.44" width="6" height="2.00" rx="1.5" fill="#0ecb81" /><line x1="479.90" y1="220.44" x2="479.90" y2="253.35" stroke="#f6465d" stroke-width="1.4" /><rect x="476.90" y="220.44" width="6" height="32.44" rx="1.5" fill="#f6465d" /><line x1="490.63" y1="239.95" x2="490.63" y2="255.24" stroke="#0ecb81" stroke-width="1.4" /><rect x="487.63" y="243.01" width="6" height="9.64" rx="1.5" fill="#0ecb81" /><line x1="501.37" y1="241.60" x2="501.37" y2="254.53" stroke="#f6465d" stroke-width="1.4" /><rect x="498.37" y="243.01" width="6" height="9.87" rx="1.5" fill="#f6465d" /><line x1="512.10" y1="249.12" x2="512.10" y2="269.11" stroke="#f6465d" stroke-width="1.4" /><rect x="509.10" y="252.65" width="6" height="9.17" rx="1.5" fill="#f6465d" /><line x1="522.84" y1="255.94" x2="522.84" y2="271.46" stroke="#f6465d" stroke-width="1.4" /><rect x="519.84" y="261.82" width="6" height="2.59" rx="1.5" fill="#f6465d" /><line x1="533.57" y1="256.88" x2="533.57" y2="288.62" stroke="#f6465d" stroke-width="1.4" /><rect x="530.57" y="264.40" width="6" height="14.34" rx="1.5" fill="#f6465d" /><line x1="544.30" y1="274.04" x2="544.30" y2="288.38" stroke="#f6465d" stroke-width="1.4" /><rect x="541.30" y="278.98" width="6" height="3.76" rx="1.5" fill="#f6465d" /><line x1="555.04" y1="278.74" x2="555.04" y2="318.71" stroke="#f6465d" stroke-width="1.4" /><rect x="552.04" y="282.50" width="6" height="23.04" rx="1.5" fill="#f6465d" /><line x1="565.77" y1="300.84" x2="565.77" y2="380.06" stroke="#f6465d" stroke-width="1.4" /><rect x="562.77" y="305.54" width="6" height="67.00" rx="1.5" fill="#f6465d" /><line x1="576.51" y1="363.61" x2="576.51" y2="396.29" stroke="#f6465d" stroke-width="1.4" /><rect x="573.51" y="372.31" width="6" height="4.00" rx="1.5" fill="#f6465d" /><line x1="587.24" y1="352.32" x2="587.24" y2="389.47" stroke="#0ecb81" stroke-width="1.4" /><rect x="584.24" y="353.26" width="6" height="23.04" rx="1.5" fill="#0ecb81" /><line x1="597.97" y1="349.50" x2="597.97" y2="358.20" stroke="#f6465d" stroke-width="1.4" /><rect x="594.97" y="353.26" width="6" height="3.76" rx="1.5" fill="#f6465d" /><line x1="608.71" y1="348.09" x2="608.71" y2="363.14" stroke="#0ecb81" stroke-width="1.4" /><rect x="605.71" y="353.26" width="6" height="3.76" rx="1.5" fill="#0ecb81" /><line x1="619.44" y1="349.27" x2="619.44" y2="369.02" stroke="#f6465d" stroke-width="1.4" /><rect x="616.44" y="353.26" width="6" height="2.82" rx="1.5" fill="#f6465d" /><line x1="630.18" y1="355.62" x2="630.18" y2="378.42" stroke="#f6465d" stroke-width="1.4" /><rect x="627.18" y="355.85" width="6" height="17.16" rx="1.5" fill="#f6465d" /><line x1="640.91" y1="361.02" x2="640.91" y2="386.18" stroke="#f6465d" stroke-width="1.4" /><rect x="637.91" y="373.01" width="6" height="8.93" rx="1.5" fill="#f6465d" /><line x1="651.65" y1="376.54" x2="651.65" y2="400.52" stroke="#0ecb81" stroke-width="1.4" /><rect x="648.65" y="379.12" width="6" height="3.06" rx="1.5" fill="#0ecb81" /><line x1="662.38" y1="351.62" x2="662.38" y2="379.83" stroke="#0ecb81" stroke-width="1.4" /><rect x="659.38" y="367.37" width="6" height="11.52" rx="1.5" fill="#0ecb81" /><line x1="673.11" y1="358.44" x2="673.11" y2="373.95" stroke="#f6465d" stroke-width="1.4" /><rect x="670.11" y="367.37" width="6" height="4.47" rx="1.5" fill="#f6465d" /><line x1="683.85" y1="350.44" x2="683.85" y2="372.31" stroke="#0ecb81" stroke-width="1.4" /><rect x="680.85" y="355.38" width="6" height="16.46" rx="1.5" fill="#0ecb81" /><line x1="694.58" y1="333.05" x2="694.58" y2="360.79" stroke="#0ecb81" stroke-width="1.4" /><rect x="691.58" y="352.32" width="6" height="3.06" rx="1.5" fill="#0ecb81" /><line x1="705.32" y1="331.64" x2="705.32" y2="359.61" stroke="#0ecb81" stroke-width="1.4" /><rect x="702.32" y="341.28" width="6" height="10.81" rx="1.5" fill="#0ecb81" /><line x1="716.05" y1="333.99" x2="716.05" y2="353.03" stroke="#f6465d" stroke-width="1.4" /><rect x="713.05" y="341.04" width="6" height="2.00" rx="1.5" fill="#f6465d" /><line x1="726.78" y1="340.34" x2="726.78" y2="350.21" stroke="#f6465d" stroke-width="1.4" /><rect x="723.78" y="342.92" width="6" height="5.41" rx="1.5" fill="#f6465d" /><line x1="737.52" y1="341.98" x2="737.52" y2="360.08" stroke="#f6465d" stroke-width="1.4" /><rect x="734.52" y="348.09" width="6" height="7.29" rx="1.5" fill="#f6465d" /><line x1="748.25" y1="347.62" x2="748.25" y2="360.79" stroke="#0ecb81" stroke-width="1.4" /><rect x="745.25" y="347.86" width="6" height="7.52" rx="1.5" fill="#0ecb81" /><line x1="758.99" y1="317.77" x2="758.99" y2="355.15" stroke="#0ecb81" stroke-width="1.4" /><rect x="755.99" y="337.98" width="6" height="9.87" rx="1.5" fill="#0ecb81" /><line x1="769.72" y1="336.10" x2="769.72" y2="369.72" stroke="#f6465d" stroke-width="1.4" /><rect x="766.72" y="337.98" width="6" height="31.74" rx="1.5" fill="#f6465d" /><line x1="780.46" y1="361.73" x2="780.46" y2="383.59" stroke="#f6465d" stroke-width="1.4" /><rect x="777.46" y="369.72" width="6" height="7.99" rx="1.5" fill="#f6465d" /><line x1="791.19" y1="366.66" x2="791.19" y2="378.18" stroke="#0ecb81" stroke-width="1.4" /><rect x="788.19" y="369.25" width="6" height="8.23" rx="1.5" fill="#0ecb81" /><line x1="801.92" y1="356.79" x2="801.92" y2="372.31" stroke="#0ecb81" stroke-width="1.4" /><rect x="798.92" y="365.72" width="6" height="3.76" rx="1.5" fill="#0ecb81" /><line x1="812.66" y1="360.32" x2="812.66" y2="371.37" stroke="#f6465d" stroke-width="1.4" /><rect x="809.66" y="365.96" width="6" height="3.76" rx="1.5" fill="#f6465d" /><line x1="823.39" y1="367.61" x2="823.39" y2="385.71" stroke="#f6465d" stroke-width="1.4" /><rect x="820.39" y="369.72" width="6" height="12.93" rx="1.5" fill="#f6465d" /><line x1="834.13" y1="372.31" x2="834.13" y2="389.47" stroke="#f6465d" stroke-width="1.4" /><rect x="831.13" y="382.65" width="6" height="6.11" rx="1.5" fill="#f6465d" /><line x1="844.86" y1="383.83" x2="844.86" y2="436.72" stroke="#f6465d" stroke-width="1.4" /><rect x="841.86" y="388.53" width="6" height="32.21" rx="1.5" fill="#f6465d" /><line x1="855.59" y1="400.99" x2="855.59" y2="427.08" stroke="#0ecb81" stroke-width="1.4" /><rect x="852.59" y="402.87" width="6" height="17.87" rx="1.5" fill="#0ecb81" /><line x1="866.33" y1="395.58" x2="866.33" y2="417.68" stroke="#f6465d" stroke-width="1.4" /><rect x="863.33" y="402.87" width="6" height="13.40" rx="1.5" fill="#f6465d" /><line x1="877.06" y1="409.68" x2="877.06" y2="452.00" stroke="#f6465d" stroke-width="1.4" /><rect x="874.06" y="416.03" width="6" height="30.09" rx="1.5" fill="#f6465d" /><line x1="887.80" y1="398.40" x2="887.80" y2="451.06" stroke="#0ecb81" stroke-width="1.4" /><rect x="884.80" y="400.28" width="6" height="45.61" rx="1.5" fill="#0ecb81" /><line x1="898.53" y1="373.01" x2="898.53" y2="402.87" stroke="#0ecb81" stroke-width="1.4" /><rect x="895.53" y="380.77" width="6" height="19.75" rx="1.5" fill="#0ecb81" /><line x1="909.27" y1="357.97" x2="909.27" y2="404.51" stroke="#f6465d" stroke-width="1.4" /><rect x="906.27" y="380.77" width="6" height="18.81" rx="1.5" fill="#f6465d" /><line x1="920.00" y1="390.17" x2="920.00" y2="410.16" stroke="#0ecb81" stroke-width="1.4" /><rect x="917.00" y="391.35" width="6" height="8.93" rx="1.5" fill="#0ecb81" />
  <polyline points="104.20,58.94 179.34,214.10 211.54,167.08 275.95,209.39 308.15,167.08" fill="none" stroke="#2fc273" stroke-width="4" stroke-linecap="round" stroke-linejoin="round" />
  <circle cx="104.20" cy="58.94" r="5.5" fill="#2fc273" fill-opacity="0.15" stroke="#2fc273" stroke-width="2" /><text x="104.20" y="46.94" fill="#f3f4f6" font-size="15" font-weight="700" text-anchor="middle">X</text><circle cx="179.34" cy="214.10" r="5.5" fill="#2fc273" fill-opacity="0.15" stroke="#2fc273" stroke-width="2" /><text x="179.34" y="202.10" fill="#f3f4f6" font-size="15" font-weight="700" text-anchor="middle">A</text><circle cx="211.54" cy="167.08" r="5.5" fill="#2fc273" fill-opacity="0.15" stroke="#2fc273" stroke-width="2" /><text x="211.54" y="155.08" fill="#f3f4f6" font-size="15" font-weight="700" text-anchor="middle">B</text><circle cx="275.95" cy="209.39" r="5.5" fill="#2fc273" fill-opacity="0.15" stroke="#2fc273" stroke-width="2" /><text x="275.95" y="197.39" fill="#f3f4f6" font-size="15" font-weight="700" text-anchor="middle">C</text><circle cx="308.15" cy="167.08" r="5.5" fill="#2fc273" fill-opacity="0.15" stroke="#2fc273" stroke-width="2" /><text x="308.15" y="155.08" fill="#f3f4f6" font-size="15" font-weight="700" text-anchor="middle">D</text>
  <text x="56" y="492" fill="#8ba0b5" font-size="18">일반 완성 · TP1 0.003403 · TP2 0.003399 · SL 0.003419</text>
</svg>
