<svg xmlns="http://www.w3.org/2000/svg" width="960" height="540" viewBox="0 0 960 540">
  <rect width="960" height="540" rx="24" fill="#0b1220" />
  <rect x="28" y="28" width="904" height="484" rx="22" fill="#111827" stroke="#1f2937" />
  <text x="56" y="74" fill="#f3f4f6" font-size="34" font-weight="700">1000XECUSDT · AB=CD</text>
  <text x="904" y="74" fill="#8ba0b5" font-size="20" text-anchor="end">Bullish (매수) · Score 89.7</text>
  <line x1="72" y1="58" x2="920" y2="58" stroke="#223045" stroke-width="1" stroke-dasharray="4 8" /><line x1="72" y1="156" x2="920" y2="156" stroke="#223045" stroke-width="1" stroke-dasharray="4 8" /><line x1="72" y1="255" x2="920" y2="255" stroke="#223045" stroke-width="1" stroke-dasharray="4 8" /><line x1="72" y1="353" x2="920" y2="353" stroke="#223045" stroke-width="1" stroke-dasharray="4 8" /><line x1="72" y1="452" x2="920" y2="452" stroke="#223045" stroke-width="1" stroke-dasharray="4 8" />
  <rect x="677.32" y="413.21" width="84" height="105.60" fill="#fbbf24" fill-opacity="0.12" stroke="#fbbf24" stroke-width="1.5" stroke-dasharray="6 6" />
  <line x1="72.00" y1="58.00" x2="72.00" y2="76.43" stroke="#f6465d" stroke-width="1.4" /><rect x="69.00" y="71.06" width="6" height="2.30" rx="1.5" fill="#f6465d" /><line x1="82.73" y1="69.14" x2="82.73" y2="96.40" stroke="#f6465d" stroke-width="1.4" /><rect x="79.73" y="72.98" width="6" height="17.28" rx="1.5" fill="#f6465d" /><line x1="93.47" y1="79.12" x2="93.47" y2="92.18" stroke="#0ecb81" stroke-width="1.4" /><rect x="90.47" y="85.65" width="6" height="4.61" rx="1.5" fill="#0ecb81" /><line x1="104.20" y1="80.66" x2="104.20" y2="93.33" stroke="#f6465d" stroke-width="1.4" /><rect x="101.20" y="86.03" width="6" height="2.00" rx="1.5" fill="#f6465d" /><line x1="114.94" y1="58.38" x2="114.94" y2="91.41" stroke="#0ecb81" stroke-width="1.4" /><rect x="111.94" y="74.90" width="6" height="11.52" rx="1.5" fill="#0ecb81" /><line x1="125.67" y1="68.75" x2="125.67" y2="80.27" stroke="#f6465d" stroke-width="1.4" /><rect x="122.67" y="74.90" width="6" height="2.00" rx="1.5" fill="#f6465d" /><line x1="136.41" y1="72.21" x2="136.41" y2="89.49" stroke="#f6465d" stroke-width="1.4" /><rect x="133.41" y="76.43" width="6" height="8.83" rx="1.5" fill="#f6465d" /><line x1="147.14" y1="85.65" x2="147.14" y2="99.47" stroke="#f6465d" stroke-width="1.4" /><rect x="144.14" y="86.03" width="6" height="4.61" rx="1.5" fill="#f6465d" /><line x1="157.87" y1="89.87" x2="157.87" y2="115.99" stroke="#f6465d" stroke-width="1.4" /><rect x="154.87" y="90.26" width="6" height="17.66" rx="1.5" fill="#f6465d" /><line x1="168.61" y1="63.76" x2="168.61" y2="112.91" stroke="#f6465d" stroke-width="1.4" /><rect x="165.61" y="107.92" width="6" height="4.99" rx="1.5" fill="#f6465d" /><line x1="179.34" y1="101.01" x2="179.34" y2="122.13" stroke="#f6465d" stroke-width="1.4" /><rect x="176.34" y="113.30" width="6" height="4.99" rx="1.5" fill="#f6465d" /><line x1="190.08" y1="117.52" x2="190.08" y2="135.57" stroke="#f6465d" stroke-width="1.4" /><rect x="187.08" y="118.29" width="6" height="4.22" rx="1.5" fill="#f6465d" /><line x1="200.81" y1="118.67" x2="200.81" y2="138.64" stroke="#f6465d" stroke-width="1.4" /><rect x="197.81" y="122.51" width="6" height="10.37" rx="1.5" fill="#f6465d" /><line x1="211.54" y1="128.66" x2="211.54" y2="137.49" stroke="#f6465d" stroke-width="1.4" /><rect x="208.54" y="133.27" width="6" height="2.30" rx="1.5" fill="#f6465d" /><line x1="222.28" y1="133.65" x2="222.28" y2="148.63" stroke="#f6465d" stroke-width="1.4" /><rect x="219.28" y="135.57" width="6" height="5.38" rx="1.5" fill="#f6465d" /><line x1="233.01" y1="137.49" x2="233.01" y2="147.86" stroke="#f6465d" stroke-width="1.4" /><rect x="230.01" y="140.56" width="6" height="2.00" rx="1.5" fill="#f6465d" /><line x1="243.75" y1="117.52" x2="243.75" y2="149.01" stroke="#f6465d" stroke-width="1.4" /><rect x="240.75" y="141.33" width="6" height="2.00" rx="1.5" fill="#f6465d" /><line x1="254.48" y1="136.34" x2="254.48" y2="146.32" stroke="#0ecb81" stroke-width="1.4" /><rect x="251.48" y="140.95" width="6" height="2.30" rx="1.5" fill="#0ecb81" /><line x1="265.22" y1="127.51" x2="265.22" y2="141.72" stroke="#0ecb81" stroke-width="1.4" /><rect x="262.22" y="135.57" width="6" height="5.38" rx="1.5" fill="#0ecb81" /><line x1="275.95" y1="119.83" x2="275.95" y2="138.64" stroke="#0ecb81" stroke-width="1.4" /><rect x="272.95" y="123.28" width="6" height="12.29" rx="1.5" fill="#0ecb81" /><line x1="286.68" y1="121.36" x2="286.68" y2="135.19" stroke="#f6465d" stroke-width="1.4" /><rect x="283.68" y="123.67" width="6" height="10.75" rx="1.5" fill="#f6465d" /><line x1="297.42" y1="125.97" x2="297.42" y2="137.49" stroke="#0ecb81" stroke-width="1.4" /><rect x="294.42" y="127.89" width="6" height="6.14" rx="1.5" fill="#0ecb81" /><line x1="308.15" y1="125.97" x2="308.15" y2="196.25" stroke="#f6465d" stroke-width="1.4" /><rect x="305.15" y="128.66" width="6" height="63.75" rx="1.5" fill="#f6465d" /><line x1="318.89" y1="152.85" x2="318.89" y2="195.48" stroke="#0ecb81" stroke-width="1.4" /><rect x="315.89" y="158.61" width="6" height="33.79" rx="1.5" fill="#0ecb81" /><line x1="329.62" y1="155.16" x2="329.62" y2="187.41" stroke="#f6465d" stroke-width="1.4" /><rect x="326.62" y="159.38" width="6" height="18.43" rx="1.5" fill="#f6465d" /><line x1="340.35" y1="162.45" x2="340.35" y2="187.80" stroke="#f6465d" stroke-width="1.4" /><rect x="337.35" y="177.04" width="6" height="5.76" rx="1.5" fill="#f6465d" /><line x1="351.09" y1="170.52" x2="351.09" y2="194.33" stroke="#f6465d" stroke-width="1.4" /><rect x="348.09" y="181.65" width="6" height="6.91" rx="1.5" fill="#f6465d" /><line x1="361.82" y1="186.65" x2="361.82" y2="226.58" stroke="#f6465d" stroke-width="1.4" /><rect x="358.82" y="188.95" width="6" height="31.11" rx="1.5" fill="#f6465d" /><line x1="372.56" y1="207.00" x2="372.56" y2="223.89" stroke="#0ecb81" stroke-width="1.4" /><rect x="369.56" y="217.37" width="6" height="2.69" rx="1.5" fill="#0ecb81" /><line x1="383.29" y1="210.45" x2="383.29" y2="222.74" stroke="#0ecb81" stroke-width="1.4" /><rect x="380.29" y="213.91" width="6" height="3.46" rx="1.5" fill="#0ecb81" /><line x1="394.03" y1="190.49" x2="394.03" y2="218.52" stroke="#f6465d" stroke-width="1.4" /><rect x="391.03" y="213.91" width="6" height="2.00" rx="1.5" fill="#f6465d" /><line x1="404.76" y1="211.61" x2="404.76" y2="233.11" stroke="#f6465d" stroke-width="1.4" /><rect x="401.76" y="214.68" width="6" height="11.14" rx="1.5" fill="#f6465d" /><line x1="415.49" y1="220.05" x2="415.49" y2="241.56" stroke="#f6465d" stroke-width="1.4" /><rect x="412.49" y="225.81" width="6" height="8.83" rx="1.5" fill="#f6465d" /><line x1="426.23" y1="234.26" x2="426.23" y2="253.08" stroke="#f6465d" stroke-width="1.4" /><rect x="423.23" y="234.26" width="6" height="8.06" rx="1.5" fill="#f6465d" /><line x1="436.96" y1="218.90" x2="436.96" y2="242.33" stroke="#0ecb81" stroke-width="1.4" /><rect x="433.96" y="220.05" width="6" height="22.27" rx="1.5" fill="#0ecb81" /><line x1="447.70" y1="202.39" x2="447.70" y2="220.05" stroke="#0ecb81" stroke-width="1.4" /><rect x="444.70" y="217.37" width="6" height="2.69" rx="1.5" fill="#0ecb81" /><line x1="458.43" y1="200.09" x2="458.43" y2="229.65" stroke="#0ecb81" stroke-width="1.4" /><rect x="455.43" y="211.99" width="6" height="5.38" rx="1.5" fill="#0ecb81" /><line x1="469.16" y1="210.07" x2="469.16" y2="235.80" stroke="#f6465d" stroke-width="1.4" /><rect x="466.16" y="211.99" width="6" height="19.97" rx="1.5" fill="#f6465d" /><line x1="479.90" y1="230.42" x2="479.90" y2="266.14" stroke="#f6465d" stroke-width="1.4" /><rect x="476.90" y="231.96" width="6" height="26.11" rx="1.5" fill="#f6465d" /><line x1="490.63" y1="255.00" x2="490.63" y2="294.17" stroke="#f6465d" stroke-width="1.4" /><rect x="487.63" y="258.07" width="6" height="34.56" rx="1.5" fill="#f6465d" /><line x1="501.37" y1="279.96" x2="501.37" y2="309.15" stroke="#f6465d" stroke-width="1.4" /><rect x="498.37" y="292.25" width="6" height="14.98" rx="1.5" fill="#f6465d" /><line x1="512.10" y1="302.23" x2="512.10" y2="333.34" stroke="#f6465d" stroke-width="1.4" /><rect x="509.10" y="306.46" width="6" height="26.11" rx="1.5" fill="#f6465d" /><line x1="522.84" y1="322.59" x2="522.84" y2="351.00" stroke="#f6465d" stroke-width="1.4" /><rect x="519.84" y="332.19" width="6" height="8.45" rx="1.5" fill="#f6465d" /><line x1="533.57" y1="339.10" x2="533.57" y2="369.05" stroke="#f6465d" stroke-width="1.4" /><rect x="530.57" y="340.25" width="6" height="22.27" rx="1.5" fill="#f6465d" /><line x1="544.30" y1="339.48" x2="544.30" y2="376.35" stroke="#0ecb81" stroke-width="1.4" /><rect x="541.30" y="357.15" width="6" height="5.38" rx="1.5" fill="#0ecb81" /><line x1="555.04" y1="345.63" x2="555.04" y2="364.44" stroke="#f6465d" stroke-width="1.4" /><rect x="552.04" y="356.76" width="6" height="3.07" rx="1.5" fill="#f6465d" /><line x1="565.77" y1="342.17" x2="565.77" y2="360.60" stroke="#0ecb81" stroke-width="1.4" /><rect x="562.77" y="349.08" width="6" height="10.37" rx="1.5" fill="#0ecb81" /><line x1="576.51" y1="349.47" x2="576.51" y2="379.04" stroke="#f6465d" stroke-width="1.4" /><rect x="573.51" y="349.47" width="6" height="21.89" rx="1.5" fill="#f6465d" /><line x1="587.24" y1="359.07" x2="587.24" y2="372.51" stroke="#0ecb81" stroke-width="1.4" /><rect x="584.24" y="363.29" width="6" height="8.45" rx="1.5" fill="#0ecb81" /><line x1="597.97" y1="354.84" x2="597.97" y2="371.74" stroke="#0ecb81" stroke-width="1.4" /><rect x="594.97" y="356.38" width="6" height="6.91" rx="1.5" fill="#0ecb81" /><line x1="608.71" y1="339.87" x2="608.71" y2="357.92" stroke="#0ecb81" stroke-width="1.4" /><rect x="605.71" y="352.16" width="6" height="3.46" rx="1.5" fill="#0ecb81" /><line x1="619.44" y1="351.77" x2="619.44" y2="377.88" stroke="#f6465d" stroke-width="1.4" /><rect x="616.44" y="352.16" width="6" height="17.28" rx="1.5" fill="#f6465d" /><line x1="630.18" y1="344.86" x2="630.18" y2="377.12" stroke="#f6465d" stroke-width="1.4" /><rect x="627.18" y="370.20" width="6" height="3.07" rx="1.5" fill="#f6465d" /><line x1="640.91" y1="365.21" x2="640.91" y2="377.88" stroke="#0ecb81" stroke-width="1.4" /><rect x="637.91" y="368.67" width="6" height="4.99" rx="1.5" fill="#0ecb81" /><line x1="651.65" y1="368.67" x2="651.65" y2="420.89" stroke="#f6465d" stroke-width="1.4" /><rect x="648.65" y="369.05" width="6" height="33.79" rx="1.5" fill="#f6465d" /><line x1="662.38" y1="398.62" x2="662.38" y2="435.87" stroke="#f6465d" stroke-width="1.4" /><rect x="659.38" y="402.85" width="6" height="25.35" rx="1.5" fill="#f6465d" /><line x1="673.11" y1="406.69" x2="673.11" y2="437.79" stroke="#f6465d" stroke-width="1.4" /><rect x="670.11" y="428.19" width="6" height="3.84" rx="1.5" fill="#f6465d" /><line x1="683.85" y1="419.36" x2="683.85" y2="441.25" stroke="#f6465d" stroke-width="1.4" /><rect x="680.85" y="431.65" width="6" height="3.07" rx="1.5" fill="#f6465d" /><line x1="694.58" y1="422.05" x2="694.58" y2="440.10" stroke="#0ecb81" stroke-width="1.4" /><rect x="691.58" y="431.65" width="6" height="2.69" rx="1.5" fill="#0ecb81" /><line x1="705.32" y1="429.73" x2="705.32" y2="452.00" stroke="#f6465d" stroke-width="1.4" /><rect x="702.32" y="432.03" width="6" height="5.38" rx="1.5" fill="#f6465d" /><line x1="716.05" y1="423.97" x2="716.05" y2="441.25" stroke="#0ecb81" stroke-width="1.4" /><rect x="713.05" y="432.03" width="6" height="5.38" rx="1.5" fill="#0ecb81" /><line x1="726.78" y1="415.90" x2="726.78" y2="439.71" stroke="#f6465d" stroke-width="1.4" /><rect x="723.78" y="431.65" width="6" height="2.00" rx="1.5" fill="#f6465d" /><line x1="737.52" y1="402.08" x2="737.52" y2="437.41" stroke="#0ecb81" stroke-width="1.4" /><rect x="734.52" y="410.53" width="6" height="21.50" rx="1.5" fill="#0ecb81" /><line x1="748.25" y1="383.65" x2="748.25" y2="413.21" stroke="#0ecb81" stroke-width="1.4" /><rect x="745.25" y="383.65" width="6" height="27.27" rx="1.5" fill="#0ecb81" /><line x1="758.99" y1="382.49" x2="758.99" y2="392.09" stroke="#f6465d" stroke-width="1.4" /><rect x="755.99" y="383.65" width="6" height="4.61" rx="1.5" fill="#f6465d" /><line x1="769.72" y1="369.05" x2="769.72" y2="394.78" stroke="#0ecb81" stroke-width="1.4" /><rect x="766.72" y="375.20" width="6" height="13.44" rx="1.5" fill="#0ecb81" /><line x1="780.46" y1="369.05" x2="780.46" y2="394.78" stroke="#f6465d" stroke-width="1.4" /><rect x="777.46" y="375.20" width="6" height="8.06" rx="1.5" fill="#f6465d" /><line x1="791.19" y1="383.65" x2="791.19" y2="402.46" stroke="#f6465d" stroke-width="1.4" /><rect x="788.19" y="383.65" width="6" height="11.90" rx="1.5" fill="#f6465d" /><line x1="801.92" y1="387.87" x2="801.92" y2="417.44" stroke="#f6465d" stroke-width="1.4" /><rect x="798.92" y="395.55" width="6" height="16.51" rx="1.5" fill="#f6465d" /><line x1="812.66" y1="389.41" x2="812.66" y2="434.72" stroke="#0ecb81" stroke-width="1.4" /><rect x="809.66" y="402.08" width="6" height="10.37" rx="1.5" fill="#0ecb81" /><line x1="823.39" y1="387.10" x2="823.39" y2="415.13" stroke="#0ecb81" stroke-width="1.4" /><rect x="820.39" y="387.10" width="6" height="15.36" rx="1.5" fill="#0ecb81" /><line x1="834.13" y1="338.33" x2="834.13" y2="396.70" stroke="#0ecb81" stroke-width="1.4" /><rect x="831.13" y="359.45" width="6" height="27.65" rx="1.5" fill="#0ecb81" /><line x1="844.86" y1="337.56" x2="844.86" y2="375.20" stroke="#f6465d" stroke-width="1.4" /><rect x="841.86" y="359.07" width="6" height="14.98" rx="1.5" fill="#f6465d" /><line x1="855.59" y1="372.51" x2="855.59" y2="395.55" stroke="#f6465d" stroke-width="1.4" /><rect x="852.59" y="374.04" width="6" height="20.74" rx="1.5" fill="#f6465d" /><line x1="866.33" y1="391.71" x2="866.33" y2="405.92" stroke="#f6465d" stroke-width="1.4" /><rect x="863.33" y="394.40" width="6" height="11.14" rx="1.5" fill="#f6465d" /><line x1="877.06" y1="404.38" x2="877.06" y2="438.18" stroke="#f6465d" stroke-width="1.4" /><rect x="874.06" y="405.15" width="6" height="19.97" rx="1.5" fill="#f6465d" /><line x1="887.80" y1="400.16" x2="887.80" y2="430.50" stroke="#0ecb81" stroke-width="1.4" /><rect x="884.80" y="405.15" width="6" height="19.20" rx="1.5" fill="#0ecb81" /><line x1="898.53" y1="394.78" x2="898.53" y2="413.98" stroke="#0ecb81" stroke-width="1.4" /><rect x="895.53" y="399.01" width="6" height="6.14" rx="1.5" fill="#0ecb81" /><line x1="909.27" y1="384.41" x2="909.27" y2="401.69" stroke="#0ecb81" stroke-width="1.4" /><rect x="906.27" y="385.95" width="6" height="13.06" rx="1.5" fill="#0ecb81" /><line x1="920.00" y1="384.03" x2="920.00" y2="398.62" stroke="#f6465d" stroke-width="1.4" /><rect x="917.00" y="385.95" width="6" height="6.91" rx="1.5" fill="#f6465d" />
  <polyline points="426.23,253.08 458.43,200.09 576.51,379.04 608.71,339.87 705.32,452.00" fill="none" stroke="#2fc273" stroke-width="4" stroke-linecap="round" stroke-linejoin="round" />
  <circle cx="426.23" cy="253.08" r="5.5" fill="#2fc273" fill-opacity="0.15" stroke="#2fc273" stroke-width="2" /><text x="426.23" y="241.08" fill="#f3f4f6" font-size="15" font-weight="700" text-anchor="middle">X</text><circle cx="458.43" cy="200.09" r="5.5" fill="#2fc273" fill-opacity="0.15" stroke="#2fc273" stroke-width="2" /><text x="458.43" y="188.09" fill="#f3f4f6" font-size="15" font-weight="700" text-anchor="middle">A</text><circle cx="576.51" cy="379.04" r="5.5" fill="#2fc273" fill-opacity="0.15" stroke="#2fc273" stroke-width="2" /><text x="576.51" y="367.04" fill="#f3f4f6" font-size="15" font-weight="700" text-anchor="middle">B</text><circle cx="608.71" cy="339.87" r="5.5" fill="#2fc273" fill-opacity="0.15" stroke="#2fc273" stroke-width="2" /><text x="608.71" y="327.87" fill="#f3f4f6" font-size="15" font-weight="700" text-anchor="middle">C</text><circle cx="705.32" cy="452.00" r="5.5" fill="#2fc273" fill-opacity="0.15" stroke="#2fc273" stroke-width="2" /><text x="705.32" y="440.00" fill="#f3f4f6" font-size="15" font-weight="700" text-anchor="middle">D</text>
  <text x="56" y="492" fill="#8ba0b5" font-size="18">Complete · TP1 0.006954 · TP2 0.007022 · SL 0.006824</text>
</svg>
