<svg xmlns="http://www.w3.org/2000/svg" width="960" height="540" viewBox="0 0 960 540">
  <rect width="960" height="540" rx="24" fill="#0b1220" />
  <rect x="28" y="28" width="904" height="484" rx="22" fill="#111827" stroke="#1f2937" />
  <text x="56" y="74" fill="#f3f4f6" font-size="34" font-weight="700">AAVEUSDT · AB=CD</text>
  <text x="904" y="74" fill="#8ba0b5" font-size="20" text-anchor="end">Bullish (매수) · Score 79.9</text>
  <line x1="72" y1="58" x2="920" y2="58" stroke="#223045" stroke-width="1" stroke-dasharray="4 8" /><line x1="72" y1="156" x2="920" y2="156" stroke="#223045" stroke-width="1" stroke-dasharray="4 8" /><line x1="72" y1="255" x2="920" y2="255" stroke="#223045" stroke-width="1" stroke-dasharray="4 8" /><line x1="72" y1="353" x2="920" y2="353" stroke="#223045" stroke-width="1" stroke-dasharray="4 8" /><line x1="72" y1="452" x2="920" y2="452" stroke="#223045" stroke-width="1" stroke-dasharray="4 8" />
  <rect x="430.43" y="151.10" width="84" height="38.42" fill="#fbbf24" fill-opacity="0.12" stroke="#fbbf24" stroke-width="1.5" stroke-dasharray="6 6" />
  <line x1="72.00" y1="123.39" x2="72.00" y2="132.39" stroke="#f6465d" stroke-width="1.4" /><rect x="69.00" y="123.39" width="6" height="5.72" rx="1.5" fill="#f6465d" /><line x1="82.73" y1="116.85" x2="82.73" y2="133.20" stroke="#0ecb81" stroke-width="1.4" /><rect x="79.73" y="127.48" width="6" height="2.00" rx="1.5" fill="#0ecb81" /><line x1="93.47" y1="64.54" x2="93.47" y2="129.93" stroke="#0ecb81" stroke-width="1.4" /><rect x="90.47" y="68.63" width="6" height="58.85" rx="1.5" fill="#0ecb81" /><line x1="104.20" y1="58.00" x2="104.20" y2="108.68" stroke="#f6465d" stroke-width="1.4" /><rect x="101.20" y="68.63" width="6" height="32.70" rx="1.5" fill="#f6465d" /><line x1="114.94" y1="99.69" x2="114.94" y2="121.76" stroke="#f6465d" stroke-width="1.4" /><rect x="111.94" y="101.32" width="6" height="16.35" rx="1.5" fill="#f6465d" /><line x1="125.67" y1="108.68" x2="125.67" y2="122.58" stroke="#0ecb81" stroke-width="1.4" /><rect x="122.67" y="116.85" width="6" height="2.00" rx="1.5" fill="#0ecb81" /><line x1="136.41" y1="114.40" x2="136.41" y2="134.84" stroke="#f6465d" stroke-width="1.4" /><rect x="133.41" y="116.85" width="6" height="3.27" rx="1.5" fill="#f6465d" /><line x1="147.14" y1="120.12" x2="147.14" y2="131.57" stroke="#f6465d" stroke-width="1.4" /><rect x="144.14" y="120.12" width="6" height="5.72" rx="1.5" fill="#f6465d" /><line x1="157.87" y1="125.03" x2="157.87" y2="134.84" stroke="#0ecb81" stroke-width="1.4" /><rect x="154.87" y="125.03" width="6" height="2.00" rx="1.5" fill="#0ecb81" /><line x1="168.61" y1="125.03" x2="168.61" y2="131.57" stroke="#f6465d" stroke-width="1.4" /><rect x="165.61" y="125.03" width="6" height="5.72" rx="1.5" fill="#f6465d" /><line x1="179.34" y1="125.85" x2="179.34" y2="137.29" stroke="#f6465d" stroke-width="1.4" /><rect x="176.34" y="129.93" width="6" height="2.00" rx="1.5" fill="#f6465d" /><line x1="190.08" y1="120.12" x2="190.08" y2="135.66" stroke="#0ecb81" stroke-width="1.4" /><rect x="187.08" y="124.21" width="6" height="8.17" rx="1.5" fill="#0ecb81" /><line x1="200.81" y1="118.49" x2="200.81" y2="134.84" stroke="#0ecb81" stroke-width="1.4" /><rect x="197.81" y="123.39" width="6" height="2.00" rx="1.5" fill="#0ecb81" /><line x1="211.54" y1="99.69" x2="211.54" y2="123.39" stroke="#0ecb81" stroke-width="1.4" /><rect x="208.54" y="117.67" width="6" height="5.72" rx="1.5" fill="#0ecb81" /><line x1="222.28" y1="104.59" x2="222.28" y2="121.76" stroke="#0ecb81" stroke-width="1.4" /><rect x="219.28" y="104.59" width="6" height="13.08" rx="1.5" fill="#0ecb81" /><line x1="233.01" y1="98.87" x2="233.01" y2="116.04" stroke="#f6465d" stroke-width="1.4" /><rect x="230.01" y="104.59" width="6" height="4.09" rx="1.5" fill="#f6465d" /><line x1="243.75" y1="102.14" x2="243.75" y2="117.67" stroke="#0ecb81" stroke-width="1.4" /><rect x="240.75" y="102.96" width="6" height="6.54" rx="1.5" fill="#0ecb81" /><line x1="254.48" y1="101.32" x2="254.48" y2="117.67" stroke="#f6465d" stroke-width="1.4" /><rect x="251.48" y="103.78" width="6" height="13.90" rx="1.5" fill="#f6465d" /><line x1="265.22" y1="118.49" x2="265.22" y2="133.20" stroke="#f6465d" stroke-width="1.4" /><rect x="262.22" y="118.49" width="6" height="6.54" rx="1.5" fill="#f6465d" /><line x1="275.95" y1="124.21" x2="275.95" y2="143.01" stroke="#f6465d" stroke-width="1.4" /><rect x="272.95" y="125.03" width="6" height="16.35" rx="1.5" fill="#f6465d" /><line x1="286.68" y1="137.29" x2="286.68" y2="147.92" stroke="#0ecb81" stroke-width="1.4" /><rect x="283.68" y="138.11" width="6" height="3.27" rx="1.5" fill="#0ecb81" /><line x1="297.42" y1="128.30" x2="297.42" y2="143.01" stroke="#0ecb81" stroke-width="1.4" /><rect x="294.42" y="135.66" width="6" height="2.00" rx="1.5" fill="#0ecb81" /><line x1="308.15" y1="127.48" x2="308.15" y2="143.01" stroke="#f6465d" stroke-width="1.4" /><rect x="305.15" y="135.66" width="6" height="4.09" rx="1.5" fill="#f6465d" /><line x1="318.89" y1="120.94" x2="318.89" y2="142.20" stroke="#0ecb81" stroke-width="1.4" /><rect x="315.89" y="121.76" width="6" height="17.17" rx="1.5" fill="#0ecb81" /><line x1="329.62" y1="113.59" x2="329.62" y2="131.57" stroke="#0ecb81" stroke-width="1.4" /><rect x="326.62" y="119.31" width="6" height="2.45" rx="1.5" fill="#0ecb81" /><line x1="340.35" y1="116.85" x2="340.35" y2="133.20" stroke="#f6465d" stroke-width="1.4" /><rect x="337.35" y="118.49" width="6" height="4.09" rx="1.5" fill="#f6465d" /><line x1="351.09" y1="114.40" x2="351.09" y2="144.65" stroke="#0ecb81" stroke-width="1.4" /><rect x="348.09" y="121.76" width="6" height="2.00" rx="1.5" fill="#0ecb81" /><line x1="361.82" y1="121.76" x2="361.82" y2="142.20" stroke="#f6465d" stroke-width="1.4" /><rect x="358.82" y="121.76" width="6" height="11.44" rx="1.5" fill="#f6465d" /><line x1="372.56" y1="134.02" x2="372.56" y2="147.92" stroke="#f6465d" stroke-width="1.4" /><rect x="369.56" y="134.02" width="6" height="13.90" rx="1.5" fill="#f6465d" /><line x1="383.29" y1="142.20" x2="383.29" y2="152.00" stroke="#f6465d" stroke-width="1.4" /><rect x="380.29" y="147.92" width="6" height="4.09" rx="1.5" fill="#f6465d" /><line x1="394.03" y1="148.73" x2="394.03" y2="164.27" stroke="#f6465d" stroke-width="1.4" /><rect x="391.03" y="152.00" width="6" height="4.09" rx="1.5" fill="#f6465d" /><line x1="404.76" y1="138.11" x2="404.76" y2="158.54" stroke="#0ecb81" stroke-width="1.4" /><rect x="401.76" y="150.37" width="6" height="6.54" rx="1.5" fill="#0ecb81" /><line x1="415.49" y1="142.20" x2="415.49" y2="152.82" stroke="#0ecb81" stroke-width="1.4" /><rect x="412.49" y="147.10" width="6" height="3.27" rx="1.5" fill="#0ecb81" /><line x1="426.23" y1="147.10" x2="426.23" y2="160.18" stroke="#f6465d" stroke-width="1.4" /><rect x="423.23" y="147.10" width="6" height="4.90" rx="1.5" fill="#f6465d" /><line x1="436.96" y1="152.00" x2="436.96" y2="160.18" stroke="#f6465d" stroke-width="1.4" /><rect x="433.96" y="152.00" width="6" height="2.45" rx="1.5" fill="#f6465d" /><line x1="447.70" y1="154.46" x2="447.70" y2="168.35" stroke="#f6465d" stroke-width="1.4" /><rect x="444.70" y="154.46" width="6" height="7.36" rx="1.5" fill="#f6465d" /><line x1="458.43" y1="161.00" x2="458.43" y2="180.61" stroke="#f6465d" stroke-width="1.4" /><rect x="455.43" y="161.00" width="6" height="4.90" rx="1.5" fill="#f6465d" /><line x1="469.16" y1="160.18" x2="469.16" y2="170.80" stroke="#f6465d" stroke-width="1.4" /><rect x="466.16" y="166.72" width="6" height="2.00" rx="1.5" fill="#f6465d" /><line x1="479.90" y1="165.08" x2="479.90" y2="173.26" stroke="#0ecb81" stroke-width="1.4" /><rect x="476.90" y="166.72" width="6" height="2.00" rx="1.5" fill="#0ecb81" /><line x1="490.63" y1="152.82" x2="490.63" y2="167.54" stroke="#0ecb81" stroke-width="1.4" /><rect x="487.63" y="153.64" width="6" height="12.26" rx="1.5" fill="#0ecb81" /><line x1="501.37" y1="153.64" x2="501.37" y2="166.72" stroke="#f6465d" stroke-width="1.4" /><rect x="498.37" y="153.64" width="6" height="12.26" rx="1.5" fill="#f6465d" /><line x1="512.10" y1="158.54" x2="512.10" y2="185.52" stroke="#0ecb81" stroke-width="1.4" /><rect x="509.10" y="166.72" width="6" height="2.00" rx="1.5" fill="#0ecb81" /><line x1="522.84" y1="156.91" x2="522.84" y2="172.44" stroke="#f6465d" stroke-width="1.4" /><rect x="519.84" y="167.54" width="6" height="3.27" rx="1.5" fill="#f6465d" /><line x1="533.57" y1="165.08" x2="533.57" y2="185.52" stroke="#f6465d" stroke-width="1.4" /><rect x="530.57" y="170.80" width="6" height="10.63" rx="1.5" fill="#f6465d" /><line x1="544.30" y1="178.98" x2="544.30" y2="196.15" stroke="#f6465d" stroke-width="1.4" /><rect x="541.30" y="182.25" width="6" height="6.54" rx="1.5" fill="#f6465d" /><line x1="555.04" y1="186.34" x2="555.04" y2="230.48" stroke="#f6465d" stroke-width="1.4" /><rect x="552.04" y="188.79" width="6" height="31.88" rx="1.5" fill="#f6465d" /><line x1="565.77" y1="219.85" x2="565.77" y2="291.78" stroke="#f6465d" stroke-width="1.4" /><rect x="562.77" y="219.85" width="6" height="65.39" rx="1.5" fill="#f6465d" /><line x1="576.51" y1="272.17" x2="576.51" y2="302.41" stroke="#0ecb81" stroke-width="1.4" /><rect x="573.51" y="274.62" width="6" height="10.63" rx="1.5" fill="#0ecb81" /><line x1="587.24" y1="250.91" x2="587.24" y2="281.16" stroke="#0ecb81" stroke-width="1.4" /><rect x="584.24" y="256.63" width="6" height="18.80" rx="1.5" fill="#0ecb81" /><line x1="597.97" y1="250.91" x2="597.97" y2="268.08" stroke="#f6465d" stroke-width="1.4" /><rect x="594.97" y="256.63" width="6" height="11.44" rx="1.5" fill="#f6465d" /><line x1="608.71" y1="240.29" x2="608.71" y2="268.08" stroke="#0ecb81" stroke-width="1.4" /><rect x="605.71" y="250.91" width="6" height="16.35" rx="1.5" fill="#0ecb81" /><line x1="619.44" y1="249.28" x2="619.44" y2="270.53" stroke="#f6465d" stroke-width="1.4" /><rect x="616.44" y="250.91" width="6" height="15.53" rx="1.5" fill="#f6465d" /><line x1="630.18" y1="266.44" x2="630.18" y2="299.14" stroke="#f6465d" stroke-width="1.4" /><rect x="627.18" y="267.26" width="6" height="22.89" rx="1.5" fill="#f6465d" /><line x1="640.91" y1="278.71" x2="640.91" y2="295.05" stroke="#0ecb81" stroke-width="1.4" /><rect x="637.91" y="282.79" width="6" height="8.17" rx="1.5" fill="#0ecb81" /><line x1="651.65" y1="272.17" x2="651.65" y2="289.33" stroke="#0ecb81" stroke-width="1.4" /><rect x="648.65" y="279.52" width="6" height="4.09" rx="1.5" fill="#0ecb81" /><line x1="662.38" y1="272.17" x2="662.38" y2="292.60" stroke="#f6465d" stroke-width="1.4" /><rect x="659.38" y="280.34" width="6" height="7.36" rx="1.5" fill="#f6465d" /><line x1="673.11" y1="273.80" x2="673.11" y2="290.15" stroke="#0ecb81" stroke-width="1.4" /><rect x="670.11" y="282.79" width="6" height="4.09" rx="1.5" fill="#0ecb81" /><line x1="683.85" y1="257.45" x2="683.85" y2="283.61" stroke="#0ecb81" stroke-width="1.4" /><rect x="680.85" y="278.71" width="6" height="4.90" rx="1.5" fill="#0ecb81" /><line x1="694.58" y1="262.36" x2="694.58" y2="280.34" stroke="#f6465d" stroke-width="1.4" /><rect x="691.58" y="277.89" width="6" height="2.00" rx="1.5" fill="#f6465d" /><line x1="705.32" y1="259.09" x2="705.32" y2="286.06" stroke="#0ecb81" stroke-width="1.4" /><rect x="702.32" y="261.54" width="6" height="17.17" rx="1.5" fill="#0ecb81" /><line x1="716.05" y1="259.90" x2="716.05" y2="272.98" stroke="#f6465d" stroke-width="1.4" /><rect x="713.05" y="261.54" width="6" height="2.00" rx="1.5" fill="#f6465d" /><line x1="726.78" y1="261.54" x2="726.78" y2="268.08" stroke="#f6465d" stroke-width="1.4" /><rect x="723.78" y="262.36" width="6" height="5.72" rx="1.5" fill="#f6465d" /><line x1="737.52" y1="263.99" x2="737.52" y2="284.43" stroke="#f6465d" stroke-width="1.4" /><rect x="734.52" y="268.08" width="6" height="15.53" rx="1.5" fill="#f6465d" /><line x1="748.25" y1="274.62" x2="748.25" y2="284.43" stroke="#0ecb81" stroke-width="1.4" /><rect x="745.25" y="276.25" width="6" height="7.36" rx="1.5" fill="#0ecb81" /><line x1="758.99" y1="243.56" x2="758.99" y2="281.16" stroke="#0ecb81" stroke-width="1.4" /><rect x="755.99" y="275.44" width="6" height="2.00" rx="1.5" fill="#0ecb81" /><line x1="769.72" y1="269.71" x2="769.72" y2="298.32" stroke="#f6465d" stroke-width="1.4" /><rect x="766.72" y="275.44" width="6" height="13.90" rx="1.5" fill="#f6465d" /><line x1="780.46" y1="290.15" x2="780.46" y2="303.23" stroke="#f6465d" stroke-width="1.4" /><rect x="777.46" y="290.15" width="6" height="11.44" rx="1.5" fill="#f6465d" /><line x1="791.19" y1="297.51" x2="791.19" y2="347.37" stroke="#f6465d" stroke-width="1.4" /><rect x="788.19" y="302.41" width="6" height="37.60" rx="1.5" fill="#f6465d" /><line x1="801.92" y1="336.74" x2="801.92" y2="367.80" stroke="#f6465d" stroke-width="1.4" /><rect x="798.92" y="340.01" width="6" height="6.54" rx="1.5" fill="#f6465d" /><line x1="812.66" y1="317.12" x2="812.66" y2="345.73" stroke="#0ecb81" stroke-width="1.4" /><rect x="809.66" y="338.38" width="6" height="7.36" rx="1.5" fill="#0ecb81" /><line x1="823.39" y1="328.57" x2="823.39" y2="354.73" stroke="#f6465d" stroke-width="1.4" /><rect x="820.39" y="339.20" width="6" height="11.44" rx="1.5" fill="#f6465d" /><line x1="834.13" y1="338.38" x2="834.13" y2="367.80" stroke="#f6465d" stroke-width="1.4" /><rect x="831.13" y="351.46" width="6" height="11.44" rx="1.5" fill="#f6465d" /><line x1="844.86" y1="358.00" x2="844.86" y2="428.29" stroke="#f6465d" stroke-width="1.4" /><rect x="841.86" y="362.90" width="6" height="44.96" rx="1.5" fill="#f6465d" /><line x1="855.59" y1="388.24" x2="855.59" y2="416.85" stroke="#0ecb81" stroke-width="1.4" /><rect x="852.59" y="396.41" width="6" height="11.44" rx="1.5" fill="#0ecb81" /><line x1="866.33" y1="394.78" x2="866.33" y2="418.49" stroke="#f6465d" stroke-width="1.4" /><rect x="863.33" y="396.41" width="6" height="22.07" rx="1.5" fill="#f6465d" /><line x1="877.06" y1="401.32" x2="877.06" y2="425.84" stroke="#f6465d" stroke-width="1.4" /><rect x="874.06" y="418.49" width="6" height="5.72" rx="1.5" fill="#f6465d" /><line x1="887.80" y1="403.77" x2="887.80" y2="436.47" stroke="#0ecb81" stroke-width="1.4" /><rect x="884.80" y="415.22" width="6" height="8.99" rx="1.5" fill="#0ecb81" /><line x1="898.53" y1="409.49" x2="898.53" y2="430.75" stroke="#f6465d" stroke-width="1.4" /><rect x="895.53" y="415.22" width="6" height="2.00" rx="1.5" fill="#f6465d" /><line x1="909.27" y1="400.50" x2="909.27" y2="443.83" stroke="#f6465d" stroke-width="1.4" /><rect x="906.27" y="416.03" width="6" height="22.07" rx="1.5" fill="#f6465d" /><line x1="920.00" y1="432.38" x2="920.00" y2="452.00" stroke="#f6465d" stroke-width="1.4" /><rect x="917.00" y="438.92" width="6" height="2.00" rx="1.5" fill="#f6465d" />
  <polyline points="179.34,137.29 233.01,98.87 286.68,147.92 329.62,113.59 458.43,180.61" fill="none" stroke="#2fc273" stroke-width="4" stroke-linecap="round" stroke-linejoin="round" />
  <circle cx="179.34" cy="137.29" r="5.5" fill="#2fc273" fill-opacity="0.15" stroke="#2fc273" stroke-width="2" /><text x="179.34" y="125.29" fill="#f3f4f6" font-size="15" font-weight="700" text-anchor="middle">X</text><circle cx="233.01" cy="98.87" r="5.5" fill="#2fc273" fill-opacity="0.15" stroke="#2fc273" stroke-width="2" /><text x="233.01" y="86.87" fill="#f3f4f6" font-size="15" font-weight="700" text-anchor="middle">A</text><circle cx="286.68" cy="147.92" r="5.5" fill="#2fc273" fill-opacity="0.15" stroke="#2fc273" stroke-width="2" /><text x="286.68" y="135.92" fill="#f3f4f6" font-size="15" font-weight="700" text-anchor="middle">B</text><circle cx="329.62" cy="113.59" r="5.5" fill="#2fc273" fill-opacity="0.15" stroke="#2fc273" stroke-width="2" /><text x="329.62" y="101.59" fill="#f3f4f6" font-size="15" font-weight="700" text-anchor="middle">C</text><circle cx="458.43" cy="180.61" r="5.5" fill="#2fc273" fill-opacity="0.15" stroke="#2fc273" stroke-width="2" /><text x="458.43" y="168.61" fill="#f3f4f6" font-size="15" font-weight="700" text-anchor="middle">D</text>
  <text x="56" y="492" fill="#8ba0b5" font-size="18">실시간 터치 · TP1 94.193 · TP2 94.387 · SL 93.819</text>
</svg>
