<svg xmlns="http://www.w3.org/2000/svg" width="960" height="540" viewBox="0 0 960 540">
  <rect width="960" height="540" rx="24" fill="#0b1220" />
  <rect x="28" y="28" width="904" height="484" rx="22" fill="#111827" stroke="#1f2937" />
  <text x="56" y="74" fill="#f3f4f6" font-size="34" font-weight="700">ACEUSDT · AB=CD</text>
  <text x="904" y="74" fill="#8ba0b5" font-size="20" text-anchor="end">Bullish (매수) · Score 79.2</text>
  <line x1="72" y1="58" x2="920" y2="58" stroke="#223045" stroke-width="1" stroke-dasharray="4 8" /><line x1="72" y1="156" x2="920" y2="156" stroke="#223045" stroke-width="1" stroke-dasharray="4 8" /><line x1="72" y1="255" x2="920" y2="255" stroke="#223045" stroke-width="1" stroke-dasharray="4 8" /><line x1="72" y1="353" x2="920" y2="353" stroke="#223045" stroke-width="1" stroke-dasharray="4 8" /><line x1="72" y1="452" x2="920" y2="452" stroke="#223045" stroke-width="1" stroke-dasharray="4 8" />
  <rect x="537.77" y="427.72" width="84" height="4.74" fill="#fbbf24" fill-opacity="0.12" stroke="#fbbf24" stroke-width="1.5" stroke-dasharray="6 6" />
  <line x1="72.00" y1="133.78" x2="72.00" y2="193.79" stroke="#f6465d" stroke-width="1.4" /><rect x="69.00" y="135.15" width="6" height="45.54" rx="1.5" fill="#f6465d" /><line x1="82.73" y1="150.18" x2="82.73" y2="191.59" stroke="#0ecb81" stroke-width="1.4" /><rect x="79.73" y="153.66" width="6" height="26.76" rx="1.5" fill="#0ecb81" /><line x1="93.47" y1="94.83" x2="93.47" y2="160.81" stroke="#0ecb81" stroke-width="1.4" /><rect x="90.47" y="106.56" width="6" height="47.28" rx="1.5" fill="#0ecb81" /><line x1="104.20" y1="58.00" x2="104.20" y2="130.94" stroke="#0ecb81" stroke-width="1.4" /><rect x="101.20" y="92.27" width="6" height="14.29" rx="1.5" fill="#0ecb81" /><line x1="114.94" y1="61.02" x2="114.94" y2="105.01" stroke="#0ecb81" stroke-width="1.4" /><rect x="111.94" y="75.32" width="6" height="16.95" rx="1.5" fill="#0ecb81" /><line x1="125.67" y1="75.78" x2="125.67" y2="173.27" stroke="#f6465d" stroke-width="1.4" /><rect x="122.67" y="75.78" width="6" height="76.05" rx="1.5" fill="#f6465d" /><line x1="136.41" y1="148.44" x2="136.41" y2="225.77" stroke="#f6465d" stroke-width="1.4" /><rect x="133.41" y="151.00" width="6" height="63.50" rx="1.5" fill="#f6465d" /><line x1="147.14" y1="197.82" x2="147.14" y2="248.86" stroke="#f6465d" stroke-width="1.4" /><rect x="144.14" y="214.96" width="6" height="10.81" rx="1.5" fill="#f6465d" /><line x1="157.87" y1="211.39" x2="157.87" y2="267.64" stroke="#f6465d" stroke-width="1.4" /><rect x="154.87" y="226.32" width="6" height="28.50" rx="1.5" fill="#f6465d" /><line x1="168.61" y1="223.21" x2="168.61" y2="261.41" stroke="#0ecb81" stroke-width="1.4" /><rect x="165.61" y="239.79" width="6" height="15.03" rx="1.5" fill="#0ecb81" /><line x1="179.34" y1="235.03" x2="179.34" y2="278.64" stroke="#f6465d" stroke-width="1.4" /><rect x="176.34" y="239.97" width="6" height="10.63" rx="1.5" fill="#f6465d" /><line x1="190.08" y1="233.28" x2="190.08" y2="259.86" stroke="#0ecb81" stroke-width="1.4" /><rect x="187.08" y="243.00" width="6" height="7.79" rx="1.5" fill="#0ecb81" /><line x1="200.81" y1="215.97" x2="200.81" y2="313.64" stroke="#f6465d" stroke-width="1.4" /><rect x="197.81" y="242.91" width="6" height="49.57" rx="1.5" fill="#f6465d" /><line x1="211.54" y1="271.95" x2="211.54" y2="302.74" stroke="#0ecb81" stroke-width="1.4" /><rect x="208.54" y="291.28" width="6" height="2.00" rx="1.5" fill="#0ecb81" /><line x1="222.28" y1="289.64" x2="222.28" y2="347.36" stroke="#f6465d" stroke-width="1.4" /><rect x="219.28" y="291.28" width="6" height="27.95" rx="1.5" fill="#f6465d" /><line x1="233.01" y1="305.12" x2="233.01" y2="331.60" stroke="#0ecb81" stroke-width="1.4" /><rect x="230.01" y="314.92" width="6" height="3.85" rx="1.5" fill="#0ecb81" /><line x1="243.75" y1="270.12" x2="243.75" y2="315.20" stroke="#0ecb81" stroke-width="1.4" /><rect x="240.75" y="279.19" width="6" height="35.83" rx="1.5" fill="#0ecb81" /><line x1="254.48" y1="265.26" x2="254.48" y2="295.50" stroke="#0ecb81" stroke-width="1.4" /><rect x="251.48" y="272.13" width="6" height="7.15" rx="1.5" fill="#0ecb81" /><line x1="265.22" y1="268.56" x2="265.22" y2="313.55" stroke="#f6465d" stroke-width="1.4" /><rect x="262.22" y="272.13" width="6" height="32.62" rx="1.5" fill="#f6465d" /><line x1="275.95" y1="291.65" x2="275.95" y2="314.28" stroke="#0ecb81" stroke-width="1.4" /><rect x="272.95" y="293.30" width="6" height="11.45" rx="1.5" fill="#0ecb81" /><line x1="286.68" y1="290.37" x2="286.68" y2="309.98" stroke="#f6465d" stroke-width="1.4" /><rect x="283.68" y="293.76" width="6" height="12.09" rx="1.5" fill="#f6465d" /><line x1="297.42" y1="291.01" x2="297.42" y2="310.25" stroke="#f6465d" stroke-width="1.4" /><rect x="294.42" y="305.30" width="6" height="2.00" rx="1.5" fill="#f6465d" /><line x1="308.15" y1="252.62" x2="308.15" y2="311.35" stroke="#0ecb81" stroke-width="1.4" /><rect x="305.15" y="273.78" width="6" height="32.44" rx="1.5" fill="#0ecb81" /><line x1="318.89" y1="272.23" x2="318.89" y2="297.24" stroke="#f6465d" stroke-width="1.4" /><rect x="315.89" y="274.33" width="6" height="10.90" rx="1.5" fill="#f6465d" /><line x1="329.62" y1="284.96" x2="329.62" y2="333.53" stroke="#f6465d" stroke-width="1.4" /><rect x="326.62" y="285.15" width="6" height="6.51" rx="1.5" fill="#f6465d" /><line x1="340.35" y1="288.72" x2="340.35" y2="356.16" stroke="#f6465d" stroke-width="1.4" /><rect x="337.35" y="291.83" width="6" height="42.42" rx="1.5" fill="#f6465d" /><line x1="351.09" y1="317.40" x2="351.09" y2="360.01" stroke="#0ecb81" stroke-width="1.4" /><rect x="348.09" y="327.29" width="6" height="7.42" rx="1.5" fill="#0ecb81" /><line x1="361.82" y1="317.03" x2="361.82" y2="340.03" stroke="#f6465d" stroke-width="1.4" /><rect x="358.82" y="327.39" width="6" height="5.68" rx="1.5" fill="#f6465d" /><line x1="372.56" y1="332.61" x2="372.56" y2="368.80" stroke="#f6465d" stroke-width="1.4" /><rect x="369.56" y="332.98" width="6" height="18.05" rx="1.5" fill="#f6465d" /><line x1="383.29" y1="330.41" x2="383.29" y2="357.35" stroke="#f6465d" stroke-width="1.4" /><rect x="380.29" y="350.75" width="6" height="2.66" rx="1.5" fill="#f6465d" /><line x1="394.03" y1="337.83" x2="394.03" y2="364.59" stroke="#f6465d" stroke-width="1.4" /><rect x="391.03" y="353.32" width="6" height="9.07" rx="1.5" fill="#f6465d" /><line x1="404.76" y1="349.93" x2="404.76" y2="373.38" stroke="#f6465d" stroke-width="1.4" /><rect x="401.76" y="362.11" width="6" height="5.68" rx="1.5" fill="#f6465d" /><line x1="415.49" y1="335.27" x2="415.49" y2="373.75" stroke="#0ecb81" stroke-width="1.4" /><rect x="412.49" y="338.56" width="6" height="29.32" rx="1.5" fill="#0ecb81" /><line x1="426.23" y1="306.68" x2="426.23" y2="344.52" stroke="#0ecb81" stroke-width="1.4" /><rect x="423.23" y="333.80" width="6" height="4.76" rx="1.5" fill="#0ecb81" /><line x1="436.96" y1="327.29" x2="436.96" y2="364.04" stroke="#0ecb81" stroke-width="1.4" /><rect x="433.96" y="329.13" width="6" height="4.76" rx="1.5" fill="#0ecb81" /><line x1="447.70" y1="317.12" x2="447.70" y2="345.16" stroke="#f6465d" stroke-width="1.4" /><rect x="444.70" y="329.13" width="6" height="14.20" rx="1.5" fill="#f6465d" /><line x1="458.43" y1="329.86" x2="458.43" y2="353.77" stroke="#f6465d" stroke-width="1.4" /><rect x="455.43" y="343.24" width="6" height="6.41" rx="1.5" fill="#f6465d" /><line x1="469.16" y1="342.32" x2="469.16" y2="361.75" stroke="#f6465d" stroke-width="1.4" /><rect x="466.16" y="349.65" width="6" height="5.04" rx="1.5" fill="#f6465d" /><line x1="479.90" y1="338.29" x2="479.90" y2="370.45" stroke="#f6465d" stroke-width="1.4" /><rect x="476.90" y="354.87" width="6" height="6.05" rx="1.5" fill="#f6465d" /><line x1="490.63" y1="359.82" x2="490.63" y2="397.66" stroke="#f6465d" stroke-width="1.4" /><rect x="487.63" y="360.74" width="6" height="22.54" rx="1.5" fill="#f6465d" /><line x1="501.37" y1="375.03" x2="501.37" y2="400.05" stroke="#f6465d" stroke-width="1.4" /><rect x="498.37" y="383.46" width="6" height="12.19" rx="1.5" fill="#f6465d" /><line x1="512.10" y1="378.33" x2="512.10" y2="399.68" stroke="#0ecb81" stroke-width="1.4" /><rect x="509.10" y="382.73" width="6" height="13.29" rx="1.5" fill="#0ecb81" /><line x1="522.84" y1="382.09" x2="522.84" y2="400.05" stroke="#f6465d" stroke-width="1.4" /><rect x="519.84" y="382.73" width="6" height="9.80" rx="1.5" fill="#f6465d" /><line x1="533.57" y1="382.55" x2="533.57" y2="397.02" stroke="#0ecb81" stroke-width="1.4" /><rect x="530.57" y="388.69" width="6" height="3.85" rx="1.5" fill="#0ecb81" /><line x1="544.30" y1="385.57" x2="544.30" y2="420.11" stroke="#f6465d" stroke-width="1.4" /><rect x="541.30" y="388.78" width="6" height="23.73" rx="1.5" fill="#f6465d" /><line x1="555.04" y1="401.33" x2="555.04" y2="419.29" stroke="#0ecb81" stroke-width="1.4" /><rect x="552.04" y="409.67" width="6" height="2.47" rx="1.5" fill="#0ecb81" /><line x1="565.77" y1="401.42" x2="565.77" y2="423.69" stroke="#0ecb81" stroke-width="1.4" /><rect x="562.77" y="404.54" width="6" height="5.04" rx="1.5" fill="#0ecb81" /><line x1="576.51" y1="398.86" x2="576.51" y2="417.00" stroke="#0ecb81" stroke-width="1.4" /><rect x="573.51" y="403.25" width="6" height="2.00" rx="1.5" fill="#0ecb81" /><line x1="587.24" y1="391.43" x2="587.24" y2="414.52" stroke="#0ecb81" stroke-width="1.4" /><rect x="584.24" y="398.40" width="6" height="4.95" rx="1.5" fill="#0ecb81" /><line x1="597.97" y1="390.70" x2="597.97" y2="408.75" stroke="#0ecb81" stroke-width="1.4" /><rect x="594.97" y="393.72" width="6" height="4.67" rx="1.5" fill="#0ecb81" /><line x1="608.71" y1="388.32" x2="608.71" y2="413.42" stroke="#f6465d" stroke-width="1.4" /><rect x="605.71" y="393.72" width="6" height="18.51" rx="1.5" fill="#f6465d" /><line x1="619.44" y1="385.84" x2="619.44" y2="435.87" stroke="#f6465d" stroke-width="1.4" /><rect x="616.44" y="412.23" width="6" height="14.39" rx="1.5" fill="#f6465d" /><line x1="630.18" y1="401.70" x2="630.18" y2="429.46" stroke="#0ecb81" stroke-width="1.4" /><rect x="627.18" y="414.43" width="6" height="12.28" rx="1.5" fill="#0ecb81" /><line x1="640.91" y1="382.36" x2="640.91" y2="414.25" stroke="#0ecb81" stroke-width="1.4" /><rect x="637.91" y="412.69" width="6" height="2.00" rx="1.5" fill="#0ecb81" /><line x1="651.65" y1="412.23" x2="651.65" y2="452.00" stroke="#f6465d" stroke-width="1.4" /><rect x="648.65" y="412.78" width="6" height="20.52" rx="1.5" fill="#f6465d" /><line x1="662.38" y1="422.31" x2="662.38" y2="448.79" stroke="#0ecb81" stroke-width="1.4" /><rect x="659.38" y="426.62" width="6" height="6.78" rx="1.5" fill="#0ecb81" /><line x1="673.11" y1="416.08" x2="673.11" y2="441.19" stroke="#f6465d" stroke-width="1.4" /><rect x="670.11" y="426.53" width="6" height="11.09" rx="1.5" fill="#f6465d" /><line x1="683.85" y1="425.52" x2="683.85" y2="440.09" stroke="#0ecb81" stroke-width="1.4" /><rect x="680.85" y="428.18" width="6" height="9.07" rx="1.5" fill="#0ecb81" /><line x1="694.58" y1="411.04" x2="694.58" y2="429.00" stroke="#0ecb81" stroke-width="1.4" /><rect x="691.58" y="412.69" width="6" height="15.58" rx="1.5" fill="#0ecb81" /><line x1="705.32" y1="410.95" x2="705.32" y2="441.74" stroke="#f6465d" stroke-width="1.4" /><rect x="702.32" y="412.78" width="6" height="16.40" rx="1.5" fill="#f6465d" /><line x1="716.05" y1="419.38" x2="716.05" y2="438.44" stroke="#0ecb81" stroke-width="1.4" /><rect x="713.05" y="420.94" width="6" height="8.25" rx="1.5" fill="#0ecb81" /><line x1="726.78" y1="397.66" x2="726.78" y2="431.11" stroke="#0ecb81" stroke-width="1.4" /><rect x="723.78" y="398.49" width="6" height="22.45" rx="1.5" fill="#0ecb81" /><line x1="737.52" y1="397.11" x2="737.52" y2="419.47" stroke="#f6465d" stroke-width="1.4" /><rect x="734.52" y="398.49" width="6" height="16.86" rx="1.5" fill="#f6465d" /><line x1="748.25" y1="397.85" x2="748.25" y2="415.90" stroke="#0ecb81" stroke-width="1.4" /><rect x="745.25" y="405.82" width="6" height="9.25" rx="1.5" fill="#0ecb81" /><line x1="758.99" y1="388.14" x2="758.99" y2="408.57" stroke="#f6465d" stroke-width="1.4" /><rect x="755.99" y="405.36" width="6" height="2.00" rx="1.5" fill="#f6465d" /><line x1="769.72" y1="405.82" x2="769.72" y2="424.42" stroke="#f6465d" stroke-width="1.4" /><rect x="766.72" y="406.92" width="6" height="11.73" rx="1.5" fill="#f6465d" /><line x1="780.46" y1="405.45" x2="780.46" y2="426.16" stroke="#0ecb81" stroke-width="1.4" /><rect x="777.46" y="414.71" width="6" height="4.03" rx="1.5" fill="#0ecb81" /><line x1="791.19" y1="395.10" x2="791.19" y2="414.71" stroke="#0ecb81" stroke-width="1.4" /><rect x="788.19" y="410.95" width="6" height="3.76" rx="1.5" fill="#0ecb81" /><line x1="801.92" y1="406.83" x2="801.92" y2="432.03" stroke="#f6465d" stroke-width="1.4" /><rect x="798.92" y="410.95" width="6" height="12.55" rx="1.5" fill="#f6465d" /><line x1="812.66" y1="404.08" x2="812.66" y2="424.60" stroke="#0ecb81" stroke-width="1.4" /><rect x="809.66" y="411.13" width="6" height="12.83" rx="1.5" fill="#0ecb81" /><line x1="823.39" y1="391.89" x2="823.39" y2="414.16" stroke="#0ecb81" stroke-width="1.4" /><rect x="820.39" y="402.52" width="6" height="8.43" rx="1.5" fill="#0ecb81" /><line x1="834.13" y1="390.24" x2="834.13" y2="409.30" stroke="#0ecb81" stroke-width="1.4" /><rect x="831.13" y="394.92" width="6" height="7.33" rx="1.5" fill="#0ecb81" /><line x1="844.86" y1="394.55" x2="844.86" y2="407.29" stroke="#f6465d" stroke-width="1.4" /><rect x="841.86" y="394.82" width="6" height="9.90" rx="1.5" fill="#f6465d" /><line x1="855.59" y1="403.53" x2="855.59" y2="423.14" stroke="#f6465d" stroke-width="1.4" /><rect x="852.59" y="404.99" width="6" height="16.77" rx="1.5" fill="#f6465d" /><line x1="866.33" y1="409.12" x2="866.33" y2="434.41" stroke="#f6465d" stroke-width="1.4" /><rect x="863.33" y="421.76" width="6" height="4.76" rx="1.5" fill="#f6465d" /><line x1="877.06" y1="420.11" x2="877.06" y2="430.38" stroke="#0ecb81" stroke-width="1.4" /><rect x="874.06" y="426.25" width="6" height="2.00" rx="1.5" fill="#0ecb81" /><line x1="887.80" y1="417.36" x2="887.80" y2="429.83" stroke="#f6465d" stroke-width="1.4" /><rect x="884.80" y="425.98" width="6" height="3.67" rx="1.5" fill="#f6465d" /><line x1="898.53" y1="412.51" x2="898.53" y2="430.01" stroke="#0ecb81" stroke-width="1.4" /><rect x="895.53" y="413.70" width="6" height="15.85" rx="1.5" fill="#0ecb81" /><line x1="909.27" y1="413.61" x2="909.27" y2="424.33" stroke="#f6465d" stroke-width="1.4" /><rect x="906.27" y="413.97" width="6" height="4.95" rx="1.5" fill="#f6465d" /><line x1="920.00" y1="414.89" x2="920.00" y2="437.61" stroke="#f6465d" stroke-width="1.4" /><rect x="917.00" y="419.29" width="6" height="17.04" rx="1.5" fill="#f6465d" />
  <polyline points="222.28,347.36 308.15,252.62 415.49,373.75 426.23,306.68 565.77,423.69" fill="none" stroke="#2fc273" stroke-width="4" stroke-linecap="round" stroke-linejoin="round" />
  <circle cx="222.28" cy="347.36" r="5.5" fill="#2fc273" fill-opacity="0.15" stroke="#2fc273" stroke-width="2" /><text x="222.28" y="335.36" fill="#f3f4f6" font-size="15" font-weight="700" text-anchor="middle">X</text><circle cx="308.15" cy="252.62" r="5.5" fill="#2fc273" fill-opacity="0.15" stroke="#2fc273" stroke-width="2" /><text x="308.15" y="240.62" fill="#f3f4f6" font-size="15" font-weight="700" text-anchor="middle">A</text><circle cx="415.49" cy="373.75" r="5.5" fill="#2fc273" fill-opacity="0.15" stroke="#2fc273" stroke-width="2" /><text x="415.49" y="361.75" fill="#f3f4f6" font-size="15" font-weight="700" text-anchor="middle">B</text><circle cx="426.23" cy="306.68" r="5.5" fill="#2fc273" fill-opacity="0.15" stroke="#2fc273" stroke-width="2" /><text x="426.23" y="294.68" fill="#f3f4f6" font-size="15" font-weight="700" text-anchor="middle">C</text><circle cx="565.77" cy="423.69" r="5.5" fill="#2fc273" fill-opacity="0.15" stroke="#2fc273" stroke-width="2" /><text x="565.77" y="411.69" fill="#f3f4f6" font-size="15" font-weight="700" text-anchor="middle">D</text>
  <text x="56" y="492" fill="#8ba0b5" font-size="18">Realtime Touch · TP1 0.10455 · TP2 0.10756 · SL 0.098326</text>
</svg>
