<svg xmlns="http://www.w3.org/2000/svg" width="960" height="540" viewBox="0 0 960 540">
  <rect width="960" height="540" rx="24" fill="#0b1220" />
  <rect x="28" y="28" width="904" height="484" rx="22" fill="#111827" stroke="#1f2937" />
  <text x="56" y="74" fill="#f3f4f6" font-size="34" font-weight="700">ADAUSDT · AB=CD</text>
  <text x="904" y="74" fill="#8ba0b5" font-size="20" text-anchor="end">Bearish (매도) · Score 83.5</text>
  <line x1="72" y1="58" x2="920" y2="58" stroke="#223045" stroke-width="1" stroke-dasharray="4 8" /><line x1="72" y1="156" x2="920" y2="156" stroke="#223045" stroke-width="1" stroke-dasharray="4 8" /><line x1="72" y1="255" x2="920" y2="255" stroke="#223045" stroke-width="1" stroke-dasharray="4 8" /><line x1="72" y1="353" x2="920" y2="353" stroke="#223045" stroke-width="1" stroke-dasharray="4 8" /><line x1="72" y1="452" x2="920" y2="452" stroke="#223045" stroke-width="1" stroke-dasharray="4 8" />
  <rect x="580.71" y="330.62" width="84" height="29.85" fill="#fbbf24" fill-opacity="0.12" stroke="#fbbf24" stroke-width="1.5" stroke-dasharray="6 6" />
  <line x1="72.00" y1="398.27" x2="72.00" y2="412.20" stroke="#0ecb81" stroke-width="1.4" /><rect x="69.00" y="400.26" width="6" height="5.97" rx="1.5" fill="#0ecb81" /><line x1="82.73" y1="392.30" x2="82.73" y2="404.24" stroke="#0ecb81" stroke-width="1.4" /><rect x="79.73" y="400.26" width="6" height="2.00" rx="1.5" fill="#0ecb81" /><line x1="93.47" y1="392.30" x2="93.47" y2="400.26" stroke="#0ecb81" stroke-width="1.4" /><rect x="90.47" y="398.27" width="6" height="2.00" rx="1.5" fill="#0ecb81" /><line x1="104.20" y1="396.28" x2="104.20" y2="402.25" stroke="#f6465d" stroke-width="1.4" /><rect x="101.20" y="398.27" width="6" height="2.00" rx="1.5" fill="#f6465d" /><line x1="114.94" y1="388.32" x2="114.94" y2="404.24" stroke="#f6465d" stroke-width="1.4" /><rect x="111.94" y="400.26" width="6" height="3.98" rx="1.5" fill="#f6465d" /><line x1="125.67" y1="390.31" x2="125.67" y2="408.22" stroke="#0ecb81" stroke-width="1.4" /><rect x="122.67" y="394.29" width="6" height="7.96" rx="1.5" fill="#0ecb81" /><line x1="136.41" y1="394.29" x2="136.41" y2="404.24" stroke="#f6465d" stroke-width="1.4" /><rect x="133.41" y="394.29" width="6" height="3.98" rx="1.5" fill="#f6465d" /><line x1="147.14" y1="394.29" x2="147.14" y2="400.26" stroke="#0ecb81" stroke-width="1.4" /><rect x="144.14" y="398.27" width="6" height="2.00" rx="1.5" fill="#0ecb81" /><line x1="157.87" y1="394.29" x2="157.87" y2="406.23" stroke="#f6465d" stroke-width="1.4" /><rect x="154.87" y="398.27" width="6" height="7.96" rx="1.5" fill="#f6465d" /><line x1="168.61" y1="404.24" x2="168.61" y2="412.20" stroke="#f6465d" stroke-width="1.4" /><rect x="165.61" y="404.24" width="6" height="3.98" rx="1.5" fill="#f6465d" /><line x1="179.34" y1="380.36" x2="179.34" y2="410.21" stroke="#0ecb81" stroke-width="1.4" /><rect x="176.34" y="400.26" width="6" height="5.97" rx="1.5" fill="#0ecb81" /><line x1="190.08" y1="398.27" x2="190.08" y2="434.09" stroke="#f6465d" stroke-width="1.4" /><rect x="187.08" y="400.26" width="6" height="33.83" rx="1.5" fill="#f6465d" /><line x1="200.81" y1="406.23" x2="200.81" y2="452.00" stroke="#0ecb81" stroke-width="1.4" /><rect x="197.81" y="410.21" width="6" height="23.88" rx="1.5" fill="#0ecb81" /><line x1="211.54" y1="400.26" x2="211.54" y2="412.20" stroke="#0ecb81" stroke-width="1.4" /><rect x="208.54" y="406.23" width="6" height="5.97" rx="1.5" fill="#0ecb81" /><line x1="222.28" y1="396.28" x2="222.28" y2="406.23" stroke="#0ecb81" stroke-width="1.4" /><rect x="219.28" y="402.25" width="6" height="3.98" rx="1.5" fill="#0ecb81" /><line x1="233.01" y1="392.30" x2="233.01" y2="402.25" stroke="#0ecb81" stroke-width="1.4" /><rect x="230.01" y="396.28" width="6" height="5.97" rx="1.5" fill="#0ecb81" /><line x1="243.75" y1="396.28" x2="243.75" y2="414.19" stroke="#f6465d" stroke-width="1.4" /><rect x="240.75" y="396.28" width="6" height="15.92" rx="1.5" fill="#f6465d" /><line x1="254.48" y1="408.22" x2="254.48" y2="420.16" stroke="#f6465d" stroke-width="1.4" /><rect x="251.48" y="412.20" width="6" height="5.97" rx="1.5" fill="#f6465d" /><line x1="265.22" y1="402.25" x2="265.22" y2="440.06" stroke="#f6465d" stroke-width="1.4" /><rect x="262.22" y="418.17" width="6" height="7.96" rx="1.5" fill="#f6465d" /><line x1="275.95" y1="416.18" x2="275.95" y2="434.09" stroke="#0ecb81" stroke-width="1.4" /><rect x="272.95" y="420.16" width="6" height="5.97" rx="1.5" fill="#0ecb81" /><line x1="286.68" y1="406.23" x2="286.68" y2="428.12" stroke="#f6465d" stroke-width="1.4" /><rect x="283.68" y="420.16" width="6" height="7.96" rx="1.5" fill="#f6465d" /><line x1="297.42" y1="412.20" x2="297.42" y2="432.10" stroke="#f6465d" stroke-width="1.4" /><rect x="294.42" y="428.12" width="6" height="3.98" rx="1.5" fill="#f6465d" /><line x1="308.15" y1="412.20" x2="308.15" y2="434.09" stroke="#0ecb81" stroke-width="1.4" /><rect x="305.15" y="416.18" width="6" height="15.92" rx="1.5" fill="#0ecb81" /><line x1="318.89" y1="404.24" x2="318.89" y2="420.16" stroke="#0ecb81" stroke-width="1.4" /><rect x="315.89" y="410.21" width="6" height="5.97" rx="1.5" fill="#0ecb81" /><line x1="329.62" y1="392.30" x2="329.62" y2="414.19" stroke="#f6465d" stroke-width="1.4" /><rect x="326.62" y="410.21" width="6" height="2.00" rx="1.5" fill="#f6465d" /><line x1="340.35" y1="396.28" x2="340.35" y2="416.18" stroke="#0ecb81" stroke-width="1.4" /><rect x="337.35" y="404.24" width="6" height="7.96" rx="1.5" fill="#0ecb81" /><line x1="351.09" y1="390.31" x2="351.09" y2="406.23" stroke="#0ecb81" stroke-width="1.4" /><rect x="348.09" y="398.27" width="6" height="5.97" rx="1.5" fill="#0ecb81" /><line x1="361.82" y1="394.29" x2="361.82" y2="404.24" stroke="#f6465d" stroke-width="1.4" /><rect x="358.82" y="398.27" width="6" height="5.97" rx="1.5" fill="#f6465d" /><line x1="372.56" y1="402.25" x2="372.56" y2="416.18" stroke="#f6465d" stroke-width="1.4" /><rect x="369.56" y="404.24" width="6" height="3.98" rx="1.5" fill="#f6465d" /><line x1="383.29" y1="344.55" x2="383.29" y2="416.18" stroke="#0ecb81" stroke-width="1.4" /><rect x="380.29" y="364.44" width="6" height="41.79" rx="1.5" fill="#0ecb81" /><line x1="394.03" y1="326.64" x2="394.03" y2="376.38" stroke="#f6465d" stroke-width="1.4" /><rect x="391.03" y="362.45" width="6" height="2.00" rx="1.5" fill="#f6465d" /><line x1="404.76" y1="360.46" x2="404.76" y2="378.37" stroke="#f6465d" stroke-width="1.4" /><rect x="401.76" y="362.45" width="6" height="11.94" rx="1.5" fill="#f6465d" /><line x1="415.49" y1="370.41" x2="415.49" y2="386.33" stroke="#f6465d" stroke-width="1.4" /><rect x="412.49" y="374.39" width="6" height="3.98" rx="1.5" fill="#f6465d" /><line x1="426.23" y1="372.40" x2="426.23" y2="384.34" stroke="#f6465d" stroke-width="1.4" /><rect x="423.23" y="376.38" width="6" height="7.96" rx="1.5" fill="#f6465d" /><line x1="436.96" y1="368.42" x2="436.96" y2="384.34" stroke="#0ecb81" stroke-width="1.4" /><rect x="433.96" y="372.40" width="6" height="9.95" rx="1.5" fill="#0ecb81" /><line x1="447.70" y1="370.41" x2="447.70" y2="384.34" stroke="#f6465d" stroke-width="1.4" /><rect x="444.70" y="372.40" width="6" height="11.94" rx="1.5" fill="#f6465d" /><line x1="458.43" y1="370.41" x2="458.43" y2="394.29" stroke="#0ecb81" stroke-width="1.4" /><rect x="455.43" y="372.40" width="6" height="11.94" rx="1.5" fill="#0ecb81" /><line x1="469.16" y1="368.42" x2="469.16" y2="386.33" stroke="#f6465d" stroke-width="1.4" /><rect x="466.16" y="370.41" width="6" height="9.95" rx="1.5" fill="#f6465d" /><line x1="479.90" y1="366.43" x2="479.90" y2="384.34" stroke="#0ecb81" stroke-width="1.4" /><rect x="476.90" y="366.43" width="6" height="11.94" rx="1.5" fill="#0ecb81" /><line x1="490.63" y1="362.45" x2="490.63" y2="374.39" stroke="#0ecb81" stroke-width="1.4" /><rect x="487.63" y="364.44" width="6" height="2.00" rx="1.5" fill="#0ecb81" /><line x1="501.37" y1="364.44" x2="501.37" y2="380.36" stroke="#f6465d" stroke-width="1.4" /><rect x="498.37" y="366.43" width="6" height="13.93" rx="1.5" fill="#f6465d" /><line x1="512.10" y1="378.37" x2="512.10" y2="388.32" stroke="#f6465d" stroke-width="1.4" /><rect x="509.10" y="380.36" width="6" height="5.97" rx="1.5" fill="#f6465d" /><line x1="522.84" y1="366.43" x2="522.84" y2="386.33" stroke="#0ecb81" stroke-width="1.4" /><rect x="519.84" y="372.40" width="6" height="13.93" rx="1.5" fill="#0ecb81" /><line x1="533.57" y1="366.43" x2="533.57" y2="374.39" stroke="#0ecb81" stroke-width="1.4" /><rect x="530.57" y="370.41" width="6" height="2.00" rx="1.5" fill="#0ecb81" /><line x1="544.30" y1="368.42" x2="544.30" y2="382.35" stroke="#f6465d" stroke-width="1.4" /><rect x="541.30" y="370.41" width="6" height="9.95" rx="1.5" fill="#f6465d" /><line x1="555.04" y1="358.47" x2="555.04" y2="382.35" stroke="#0ecb81" stroke-width="1.4" /><rect x="552.04" y="362.45" width="6" height="17.91" rx="1.5" fill="#0ecb81" /><line x1="565.77" y1="362.45" x2="565.77" y2="390.31" stroke="#f6465d" stroke-width="1.4" /><rect x="562.77" y="364.44" width="6" height="21.89" rx="1.5" fill="#f6465d" /><line x1="576.51" y1="370.41" x2="576.51" y2="388.32" stroke="#0ecb81" stroke-width="1.4" /><rect x="573.51" y="372.40" width="6" height="13.93" rx="1.5" fill="#0ecb81" /><line x1="587.24" y1="366.43" x2="587.24" y2="382.35" stroke="#f6465d" stroke-width="1.4" /><rect x="584.24" y="374.39" width="6" height="5.97" rx="1.5" fill="#f6465d" /><line x1="597.97" y1="366.43" x2="597.97" y2="380.36" stroke="#0ecb81" stroke-width="1.4" /><rect x="594.97" y="370.41" width="6" height="9.95" rx="1.5" fill="#0ecb81" /><line x1="608.71" y1="350.52" x2="608.71" y2="372.40" stroke="#0ecb81" stroke-width="1.4" /><rect x="605.71" y="368.42" width="6" height="2.00" rx="1.5" fill="#0ecb81" /><line x1="619.44" y1="356.48" x2="619.44" y2="378.37" stroke="#0ecb81" stroke-width="1.4" /><rect x="616.44" y="364.44" width="6" height="5.97" rx="1.5" fill="#0ecb81" /><line x1="630.18" y1="364.44" x2="630.18" y2="392.30" stroke="#f6465d" stroke-width="1.4" /><rect x="627.18" y="364.44" width="6" height="15.92" rx="1.5" fill="#f6465d" /><line x1="640.91" y1="380.36" x2="640.91" y2="398.27" stroke="#f6465d" stroke-width="1.4" /><rect x="637.91" y="382.35" width="6" height="11.94" rx="1.5" fill="#f6465d" /><line x1="651.65" y1="388.32" x2="651.65" y2="404.24" stroke="#0ecb81" stroke-width="1.4" /><rect x="648.65" y="390.31" width="6" height="3.98" rx="1.5" fill="#0ecb81" /><line x1="662.38" y1="342.56" x2="662.38" y2="394.29" stroke="#0ecb81" stroke-width="1.4" /><rect x="659.38" y="350.52" width="6" height="39.80" rx="1.5" fill="#0ecb81" /><line x1="673.11" y1="304.75" x2="673.11" y2="372.40" stroke="#f6465d" stroke-width="1.4" /><rect x="670.11" y="350.52" width="6" height="11.94" rx="1.5" fill="#f6465d" /><line x1="683.85" y1="358.47" x2="683.85" y2="388.32" stroke="#f6465d" stroke-width="1.4" /><rect x="680.85" y="362.45" width="6" height="9.95" rx="1.5" fill="#f6465d" /><line x1="694.58" y1="328.63" x2="694.58" y2="376.38" stroke="#0ecb81" stroke-width="1.4" /><rect x="691.58" y="338.58" width="6" height="35.82" rx="1.5" fill="#0ecb81" /><line x1="705.32" y1="310.72" x2="705.32" y2="342.56" stroke="#0ecb81" stroke-width="1.4" /><rect x="702.32" y="316.69" width="6" height="23.88" rx="1.5" fill="#0ecb81" /><line x1="716.05" y1="286.84" x2="716.05" y2="330.62" stroke="#0ecb81" stroke-width="1.4" /><rect x="713.05" y="290.82" width="6" height="25.87" rx="1.5" fill="#0ecb81" /><line x1="726.78" y1="237.09" x2="726.78" y2="290.82" stroke="#0ecb81" stroke-width="1.4" /><rect x="723.78" y="256.99" width="6" height="33.83" rx="1.5" fill="#0ecb81" /><line x1="737.52" y1="225.15" x2="737.52" y2="260.97" stroke="#0ecb81" stroke-width="1.4" /><rect x="734.52" y="247.04" width="6" height="11.94" rx="1.5" fill="#0ecb81" /><line x1="748.25" y1="227.14" x2="748.25" y2="247.04" stroke="#0ecb81" stroke-width="1.4" /><rect x="745.25" y="229.13" width="6" height="17.91" rx="1.5" fill="#0ecb81" /><line x1="758.99" y1="109.74" x2="758.99" y2="229.13" stroke="#0ecb81" stroke-width="1.4" /><rect x="755.99" y="149.54" width="6" height="77.61" rx="1.5" fill="#0ecb81" /><line x1="769.72" y1="133.62" x2="769.72" y2="181.37" stroke="#f6465d" stroke-width="1.4" /><rect x="766.72" y="149.54" width="6" height="3.98" rx="1.5" fill="#f6465d" /><line x1="780.46" y1="131.63" x2="780.46" y2="169.43" stroke="#0ecb81" stroke-width="1.4" /><rect x="777.46" y="135.61" width="6" height="19.90" rx="1.5" fill="#0ecb81" /><line x1="791.19" y1="123.67" x2="791.19" y2="169.43" stroke="#f6465d" stroke-width="1.4" /><rect x="788.19" y="135.61" width="6" height="23.88" rx="1.5" fill="#f6465d" /><line x1="801.92" y1="141.58" x2="801.92" y2="171.42" stroke="#0ecb81" stroke-width="1.4" /><rect x="798.92" y="157.49" width="6" height="2.00" rx="1.5" fill="#0ecb81" /><line x1="812.66" y1="155.51" x2="812.66" y2="191.32" stroke="#f6465d" stroke-width="1.4" /><rect x="809.66" y="157.49" width="6" height="9.95" rx="1.5" fill="#f6465d" /><line x1="823.39" y1="145.56" x2="823.39" y2="169.43" stroke="#0ecb81" stroke-width="1.4" /><rect x="820.39" y="153.52" width="6" height="15.92" rx="1.5" fill="#0ecb81" /><line x1="834.13" y1="147.55" x2="834.13" y2="161.47" stroke="#0ecb81" stroke-width="1.4" /><rect x="831.13" y="151.53" width="6" height="2.00" rx="1.5" fill="#0ecb81" /><line x1="844.86" y1="58.00" x2="844.86" y2="159.48" stroke="#0ecb81" stroke-width="1.4" /><rect x="841.86" y="91.83" width="6" height="59.70" rx="1.5" fill="#0ecb81" /><line x1="855.59" y1="79.89" x2="855.59" y2="111.73" stroke="#f6465d" stroke-width="1.4" /><rect x="852.59" y="91.83" width="6" height="5.97" rx="1.5" fill="#f6465d" /><line x1="866.33" y1="79.89" x2="866.33" y2="107.75" stroke="#f6465d" stroke-width="1.4" /><rect x="863.33" y="97.80" width="6" height="2.00" rx="1.5" fill="#f6465d" /><line x1="877.06" y1="87.85" x2="877.06" y2="105.76" stroke="#f6465d" stroke-width="1.4" /><rect x="874.06" y="99.79" width="6" height="5.97" rx="1.5" fill="#f6465d" /><line x1="887.80" y1="83.87" x2="887.80" y2="105.76" stroke="#0ecb81" stroke-width="1.4" /><rect x="884.80" y="101.78" width="6" height="2.00" rx="1.5" fill="#0ecb81" /><line x1="898.53" y1="89.84" x2="898.53" y2="119.69" stroke="#f6465d" stroke-width="1.4" /><rect x="895.53" y="101.78" width="6" height="9.95" rx="1.5" fill="#f6465d" /><line x1="909.27" y1="95.81" x2="909.27" y2="115.71" stroke="#0ecb81" stroke-width="1.4" /><rect x="906.27" y="107.75" width="6" height="2.00" rx="1.5" fill="#0ecb81" /><line x1="920.00" y1="97.80" x2="920.00" y2="115.71" stroke="#f6465d" stroke-width="1.4" /><rect x="917.00" y="105.76" width="6" height="3.98" rx="1.5" fill="#f6465d" />
  <polyline points="490.63,362.45 512.10,388.32 555.04,358.47 565.77,390.31 608.71,350.52" fill="none" stroke="#2fc273" stroke-width="4" stroke-linecap="round" stroke-linejoin="round" />
  <circle cx="490.63" cy="362.45" r="5.5" fill="#2fc273" fill-opacity="0.15" stroke="#2fc273" stroke-width="2" /><text x="490.63" y="350.45" fill="#f3f4f6" font-size="15" font-weight="700" text-anchor="middle">X</text><circle cx="512.10" cy="388.32" r="5.5" fill="#2fc273" fill-opacity="0.15" stroke="#2fc273" stroke-width="2" /><text x="512.10" y="376.32" fill="#f3f4f6" font-size="15" font-weight="700" text-anchor="middle">A</text><circle cx="555.04" cy="358.47" r="5.5" fill="#2fc273" fill-opacity="0.15" stroke="#2fc273" stroke-width="2" /><text x="555.04" y="346.47" fill="#f3f4f6" font-size="15" font-weight="700" text-anchor="middle">B</text><circle cx="565.77" cy="390.31" r="5.5" fill="#2fc273" fill-opacity="0.15" stroke="#2fc273" stroke-width="2" /><text x="565.77" y="378.31" fill="#f3f4f6" font-size="15" font-weight="700" text-anchor="middle">C</text><circle cx="608.71" cy="350.52" r="5.5" fill="#2fc273" fill-opacity="0.15" stroke="#2fc273" stroke-width="2" /><text x="608.71" y="338.52" fill="#f3f4f6" font-size="15" font-weight="700" text-anchor="middle">D</text>
  <text x="56" y="492" fill="#8ba0b5" font-size="18">실시간 터치 · TP1 0.24384 · TP2 0.24336 · SL 0.24477</text>
</svg>
