<svg xmlns="http://www.w3.org/2000/svg" width="960" height="540" viewBox="0 0 960 540">
  <rect width="960" height="540" rx="24" fill="#0b1220" />
  <rect x="28" y="28" width="904" height="484" rx="22" fill="#111827" stroke="#1f2937" />
  <text x="56" y="74" fill="#f3f4f6" font-size="34" font-weight="700">APTUSDT · AB=CD</text>
  <text x="904" y="74" fill="#8ba0b5" font-size="20" text-anchor="end">Bullish (매수) · Score 90.2</text>
  <line x1="72" y1="58" x2="920" y2="58" stroke="#223045" stroke-width="1" stroke-dasharray="4 8" /><line x1="72" y1="156" x2="920" y2="156" stroke="#223045" stroke-width="1" stroke-dasharray="4 8" /><line x1="72" y1="255" x2="920" y2="255" stroke="#223045" stroke-width="1" stroke-dasharray="4 8" /><line x1="72" y1="353" x2="920" y2="353" stroke="#223045" stroke-width="1" stroke-dasharray="4 8" /><line x1="72" y1="452" x2="920" y2="452" stroke="#223045" stroke-width="1" stroke-dasharray="4 8" />
  <rect x="709.52" y="309.12" width="84" height="32.42" fill="#fbbf24" fill-opacity="0.12" stroke="#fbbf24" stroke-width="1.5" stroke-dasharray="6 6" />
  <line x1="72.00" y1="406.77" x2="72.00" y2="437.44" stroke="#f6465d" stroke-width="1.4" /><rect x="69.00" y="406.77" width="6" height="11.50" rx="1.5" fill="#f6465d" /><line x1="82.73" y1="360.02" x2="82.73" y2="429.00" stroke="#0ecb81" stroke-width="1.4" /><rect x="79.73" y="374.58" width="6" height="43.69" rx="1.5" fill="#0ecb81" /><line x1="93.47" y1="343.92" x2="93.47" y2="402.18" stroke="#f6465d" stroke-width="1.4" /><rect x="90.47" y="374.58" width="6" height="16.10" rx="1.5" fill="#f6465d" /><line x1="104.20" y1="383.01" x2="104.20" y2="396.81" stroke="#f6465d" stroke-width="1.4" /><rect x="101.20" y="389.91" width="6" height="6.90" rx="1.5" fill="#f6465d" /><line x1="114.94" y1="366.15" x2="114.94" y2="397.58" stroke="#0ecb81" stroke-width="1.4" /><rect x="111.94" y="377.65" width="6" height="19.16" rx="1.5" fill="#0ecb81" /><line x1="125.67" y1="368.45" x2="125.67" y2="391.44" stroke="#f6465d" stroke-width="1.4" /><rect x="122.67" y="377.65" width="6" height="13.03" rx="1.5" fill="#f6465d" /><line x1="136.41" y1="384.54" x2="136.41" y2="406.77" stroke="#f6465d" stroke-width="1.4" /><rect x="133.41" y="391.44" width="6" height="10.73" rx="1.5" fill="#f6465d" /><line x1="147.14" y1="401.41" x2="147.14" y2="429.77" stroke="#f6465d" stroke-width="1.4" /><rect x="144.14" y="402.18" width="6" height="21.46" rx="1.5" fill="#f6465d" /><line x1="157.87" y1="409.84" x2="157.87" y2="435.90" stroke="#0ecb81" stroke-width="1.4" /><rect x="154.87" y="415.97" width="6" height="6.90" rx="1.5" fill="#0ecb81" /><line x1="168.61" y1="413.67" x2="168.61" y2="435.90" stroke="#f6465d" stroke-width="1.4" /><rect x="165.61" y="415.97" width="6" height="6.13" rx="1.5" fill="#f6465d" /><line x1="179.34" y1="414.44" x2="179.34" y2="425.94" stroke="#0ecb81" stroke-width="1.4" /><rect x="176.34" y="415.21" width="6" height="6.13" rx="1.5" fill="#0ecb81" /><line x1="190.08" y1="409.84" x2="190.08" y2="429.77" stroke="#f6465d" stroke-width="1.4" /><rect x="187.08" y="414.44" width="6" height="7.67" rx="1.5" fill="#f6465d" /><line x1="200.81" y1="413.67" x2="200.81" y2="428.24" stroke="#f6465d" stroke-width="1.4" /><rect x="197.81" y="422.11" width="6" height="3.83" rx="1.5" fill="#f6465d" /><line x1="211.54" y1="421.34" x2="211.54" y2="432.84" stroke="#0ecb81" stroke-width="1.4" /><rect x="208.54" y="422.11" width="6" height="3.83" rx="1.5" fill="#0ecb81" /><line x1="222.28" y1="402.18" x2="222.28" y2="422.87" stroke="#0ecb81" stroke-width="1.4" /><rect x="219.28" y="409.84" width="6" height="12.26" rx="1.5" fill="#0ecb81" /><line x1="233.01" y1="407.54" x2="233.01" y2="413.67" stroke="#0ecb81" stroke-width="1.4" /><rect x="230.01" y="407.54" width="6" height="2.30" rx="1.5" fill="#0ecb81" /><line x1="243.75" y1="406.77" x2="243.75" y2="418.27" stroke="#f6465d" stroke-width="1.4" /><rect x="240.75" y="406.77" width="6" height="7.67" rx="1.5" fill="#f6465d" /><line x1="254.48" y1="390.68" x2="254.48" y2="416.74" stroke="#0ecb81" stroke-width="1.4" /><rect x="251.48" y="402.94" width="6" height="10.73" rx="1.5" fill="#0ecb81" /><line x1="265.22" y1="402.94" x2="265.22" y2="438.97" stroke="#f6465d" stroke-width="1.4" /><rect x="262.22" y="402.94" width="6" height="29.89" rx="1.5" fill="#f6465d" /><line x1="275.95" y1="410.61" x2="275.95" y2="435.90" stroke="#0ecb81" stroke-width="1.4" /><rect x="272.95" y="412.91" width="6" height="19.93" rx="1.5" fill="#0ecb81" /><line x1="286.68" y1="402.94" x2="286.68" y2="417.51" stroke="#f6465d" stroke-width="1.4" /><rect x="283.68" y="412.14" width="6" height="3.83" rx="1.5" fill="#f6465d" /><line x1="297.42" y1="411.37" x2="297.42" y2="425.17" stroke="#f6465d" stroke-width="1.4" /><rect x="294.42" y="415.21" width="6" height="9.96" rx="1.5" fill="#f6465d" /><line x1="308.15" y1="402.18" x2="308.15" y2="427.47" stroke="#0ecb81" stroke-width="1.4" /><rect x="305.15" y="415.97" width="6" height="8.43" rx="1.5" fill="#0ecb81" /><line x1="318.89" y1="405.24" x2="318.89" y2="419.04" stroke="#0ecb81" stroke-width="1.4" /><rect x="315.89" y="408.31" width="6" height="7.67" rx="1.5" fill="#0ecb81" /><line x1="329.62" y1="408.31" x2="329.62" y2="448.93" stroke="#f6465d" stroke-width="1.4" /><rect x="326.62" y="409.07" width="6" height="15.33" rx="1.5" fill="#f6465d" /><line x1="340.35" y1="423.64" x2="340.35" y2="452.00" stroke="#f6465d" stroke-width="1.4" /><rect x="337.35" y="425.17" width="6" height="18.40" rx="1.5" fill="#f6465d" /><line x1="351.09" y1="435.14" x2="351.09" y2="452.00" stroke="#0ecb81" stroke-width="1.4" /><rect x="348.09" y="438.97" width="6" height="3.83" rx="1.5" fill="#0ecb81" /><line x1="361.82" y1="406.77" x2="361.82" y2="439.74" stroke="#0ecb81" stroke-width="1.4" /><rect x="358.82" y="419.81" width="6" height="19.16" rx="1.5" fill="#0ecb81" /><line x1="372.56" y1="403.71" x2="372.56" y2="433.60" stroke="#0ecb81" stroke-width="1.4" /><rect x="369.56" y="420.57" width="6" height="2.00" rx="1.5" fill="#0ecb81" /><line x1="383.29" y1="419.04" x2="383.29" y2="439.74" stroke="#f6465d" stroke-width="1.4" /><rect x="380.29" y="421.34" width="6" height="3.83" rx="1.5" fill="#f6465d" /><line x1="394.03" y1="378.41" x2="394.03" y2="428.24" stroke="#0ecb81" stroke-width="1.4" /><rect x="391.03" y="384.54" width="6" height="41.39" rx="1.5" fill="#0ecb81" /><line x1="404.76" y1="347.75" x2="404.76" y2="385.31" stroke="#0ecb81" stroke-width="1.4" /><rect x="401.76" y="351.58" width="6" height="33.73" rx="1.5" fill="#0ecb81" /><line x1="415.49" y1="330.89" x2="415.49" y2="366.15" stroke="#0ecb81" stroke-width="1.4" /><rect x="412.49" y="331.65" width="6" height="19.93" rx="1.5" fill="#0ecb81" /><line x1="426.23" y1="292.56" x2="426.23" y2="335.49" stroke="#0ecb81" stroke-width="1.4" /><rect x="423.23" y="323.22" width="6" height="9.20" rx="1.5" fill="#0ecb81" /><line x1="436.96" y1="293.33" x2="436.96" y2="323.99" stroke="#0ecb81" stroke-width="1.4" /><rect x="433.96" y="310.96" width="6" height="13.03" rx="1.5" fill="#0ecb81" /><line x1="447.70" y1="290.26" x2="447.70" y2="310.96" stroke="#0ecb81" stroke-width="1.4" /><rect x="444.70" y="290.26" width="6" height="19.93" rx="1.5" fill="#0ecb81" /><line x1="458.43" y1="232.77" x2="458.43" y2="290.26" stroke="#0ecb81" stroke-width="1.4" /><rect x="455.43" y="284.89" width="6" height="5.37" rx="1.5" fill="#0ecb81" /><line x1="469.16" y1="271.86" x2="469.16" y2="311.72" stroke="#0ecb81" stroke-width="1.4" /><rect x="466.16" y="279.53" width="6" height="5.37" rx="1.5" fill="#0ecb81" /><line x1="479.90" y1="271.86" x2="479.90" y2="305.59" stroke="#f6465d" stroke-width="1.4" /><rect x="476.90" y="280.30" width="6" height="5.37" rx="1.5" fill="#f6465d" /><line x1="490.63" y1="274.16" x2="490.63" y2="313.26" stroke="#f6465d" stroke-width="1.4" /><rect x="487.63" y="285.66" width="6" height="24.53" rx="1.5" fill="#f6465d" /><line x1="501.37" y1="300.99" x2="501.37" y2="336.25" stroke="#f6465d" stroke-width="1.4" /><rect x="498.37" y="310.19" width="6" height="26.06" rx="1.5" fill="#f6465d" /><line x1="512.10" y1="314.79" x2="512.10" y2="345.45" stroke="#0ecb81" stroke-width="1.4" /><rect x="509.10" y="316.32" width="6" height="20.70" rx="1.5" fill="#0ecb81" /><line x1="522.84" y1="312.49" x2="522.84" y2="328.59" stroke="#f6465d" stroke-width="1.4" /><rect x="519.84" y="316.32" width="6" height="11.50" rx="1.5" fill="#f6465d" /><line x1="533.57" y1="313.26" x2="533.57" y2="329.35" stroke="#f6465d" stroke-width="1.4" /><rect x="530.57" y="327.05" width="6" height="2.00" rx="1.5" fill="#f6465d" /><line x1="544.30" y1="251.17" x2="544.30" y2="333.19" stroke="#0ecb81" stroke-width="1.4" /><rect x="541.30" y="262.67" width="6" height="65.92" rx="1.5" fill="#0ecb81" /><line x1="555.04" y1="242.74" x2="555.04" y2="276.46" stroke="#0ecb81" stroke-width="1.4" /><rect x="552.04" y="253.47" width="6" height="9.96" rx="1.5" fill="#0ecb81" /><line x1="565.77" y1="228.94" x2="565.77" y2="273.40" stroke="#f6465d" stroke-width="1.4" /><rect x="562.77" y="253.47" width="6" height="16.10" rx="1.5" fill="#f6465d" /><line x1="576.51" y1="246.57" x2="576.51" y2="269.56" stroke="#0ecb81" stroke-width="1.4" /><rect x="573.51" y="248.10" width="6" height="20.70" rx="1.5" fill="#0ecb81" /><line x1="587.24" y1="229.70" x2="587.24" y2="254.23" stroke="#f6465d" stroke-width="1.4" /><rect x="584.24" y="248.10" width="6" height="6.13" rx="1.5" fill="#f6465d" /><line x1="597.97" y1="244.27" x2="597.97" y2="268.80" stroke="#f6465d" stroke-width="1.4" /><rect x="594.97" y="253.47" width="6" height="9.20" rx="1.5" fill="#f6465d" /><line x1="608.71" y1="256.53" x2="608.71" y2="284.89" stroke="#f6465d" stroke-width="1.4" /><rect x="605.71" y="261.90" width="6" height="9.96" rx="1.5" fill="#f6465d" /><line x1="619.44" y1="265.73" x2="619.44" y2="275.70" stroke="#0ecb81" stroke-width="1.4" /><rect x="616.44" y="268.80" width="6" height="2.30" rx="1.5" fill="#0ecb81" /><line x1="630.18" y1="260.37" x2="630.18" y2="294.86" stroke="#f6465d" stroke-width="1.4" /><rect x="627.18" y="268.03" width="6" height="19.93" rx="1.5" fill="#f6465d" /><line x1="640.91" y1="279.53" x2="640.91" y2="294.86" stroke="#0ecb81" stroke-width="1.4" /><rect x="637.91" y="281.06" width="6" height="6.13" rx="1.5" fill="#0ecb81" /><line x1="651.65" y1="259.60" x2="651.65" y2="289.49" stroke="#0ecb81" stroke-width="1.4" /><rect x="648.65" y="267.26" width="6" height="13.80" rx="1.5" fill="#0ecb81" /><line x1="662.38" y1="264.20" x2="662.38" y2="287.19" stroke="#f6465d" stroke-width="1.4" /><rect x="659.38" y="268.03" width="6" height="3.07" rx="1.5" fill="#f6465d" /><line x1="673.11" y1="264.96" x2="673.11" y2="284.13" stroke="#f6465d" stroke-width="1.4" /><rect x="670.11" y="271.10" width="6" height="2.00" rx="1.5" fill="#f6465d" /><line x1="683.85" y1="255.00" x2="683.85" y2="280.30" stroke="#f6465d" stroke-width="1.4" /><rect x="680.85" y="271.86" width="6" height="3.83" rx="1.5" fill="#f6465d" /><line x1="694.58" y1="261.90" x2="694.58" y2="280.30" stroke="#0ecb81" stroke-width="1.4" /><rect x="691.58" y="267.26" width="6" height="7.67" rx="1.5" fill="#0ecb81" /><line x1="705.32" y1="261.13" x2="705.32" y2="281.06" stroke="#f6465d" stroke-width="1.4" /><rect x="702.32" y="267.26" width="6" height="13.03" rx="1.5" fill="#f6465d" /><line x1="716.05" y1="258.83" x2="716.05" y2="294.09" stroke="#0ecb81" stroke-width="1.4" /><rect x="713.05" y="265.73" width="6" height="13.80" rx="1.5" fill="#0ecb81" /><line x1="726.78" y1="265.73" x2="726.78" y2="297.93" stroke="#f6465d" stroke-width="1.4" /><rect x="723.78" y="265.73" width="6" height="29.89" rx="1.5" fill="#f6465d" /><line x1="737.52" y1="275.70" x2="737.52" y2="297.93" stroke="#0ecb81" stroke-width="1.4" /><rect x="734.52" y="283.36" width="6" height="12.26" rx="1.5" fill="#0ecb81" /><line x1="748.25" y1="265.73" x2="748.25" y2="285.66" stroke="#0ecb81" stroke-width="1.4" /><rect x="745.25" y="278.00" width="6" height="5.37" rx="1.5" fill="#0ecb81" /><line x1="758.99" y1="275.70" x2="758.99" y2="291.79" stroke="#f6465d" stroke-width="1.4" /><rect x="755.99" y="277.23" width="6" height="10.73" rx="1.5" fill="#f6465d" /><line x1="769.72" y1="247.33" x2="769.72" y2="288.73" stroke="#0ecb81" stroke-width="1.4" /><rect x="766.72" y="261.90" width="6" height="25.30" rx="1.5" fill="#0ecb81" /><line x1="780.46" y1="251.93" x2="780.46" y2="268.80" stroke="#0ecb81" stroke-width="1.4" /><rect x="777.46" y="255.77" width="6" height="5.37" rx="1.5" fill="#0ecb81" /><line x1="791.19" y1="224.34" x2="791.19" y2="259.60" stroke="#0ecb81" stroke-width="1.4" /><rect x="788.19" y="235.07" width="6" height="19.93" rx="1.5" fill="#0ecb81" /><line x1="801.92" y1="212.84" x2="801.92" y2="235.84" stroke="#0ecb81" stroke-width="1.4" /><rect x="798.92" y="216.67" width="6" height="17.63" rx="1.5" fill="#0ecb81" /><line x1="812.66" y1="192.91" x2="812.66" y2="216.67" stroke="#0ecb81" stroke-width="1.4" /><rect x="809.66" y="199.81" width="6" height="16.86" rx="1.5" fill="#0ecb81" /><line x1="823.39" y1="162.25" x2="823.39" y2="199.81" stroke="#0ecb81" stroke-width="1.4" /><rect x="820.39" y="182.18" width="6" height="16.86" rx="1.5" fill="#0ecb81" /><line x1="834.13" y1="179.88" x2="834.13" y2="209.01" stroke="#f6465d" stroke-width="1.4" /><rect x="831.13" y="181.41" width="6" height="23.76" rx="1.5" fill="#f6465d" /><line x1="844.86" y1="162.25" x2="844.86" y2="205.18" stroke="#0ecb81" stroke-width="1.4" /><rect x="841.86" y="174.51" width="6" height="29.89" rx="1.5" fill="#0ecb81" /><line x1="855.59" y1="89.43" x2="855.59" y2="175.28" stroke="#0ecb81" stroke-width="1.4" /><rect x="852.59" y="158.42" width="6" height="16.10" rx="1.5" fill="#0ecb81" /><line x1="866.33" y1="135.42" x2="866.33" y2="176.81" stroke="#0ecb81" stroke-width="1.4" /><rect x="863.33" y="156.12" width="6" height="2.00" rx="1.5" fill="#0ecb81" /><line x1="877.06" y1="128.52" x2="877.06" y2="155.35" stroke="#0ecb81" stroke-width="1.4" /><rect x="874.06" y="129.29" width="6" height="26.06" rx="1.5" fill="#0ecb81" /><line x1="887.80" y1="97.09" x2="887.80" y2="130.82" stroke="#0ecb81" stroke-width="1.4" /><rect x="884.80" y="98.63" width="6" height="30.66" rx="1.5" fill="#0ecb81" /><line x1="898.53" y1="58.00" x2="898.53" y2="99.39" stroke="#0ecb81" stroke-width="1.4" /><rect x="895.53" y="70.26" width="6" height="28.36" rx="1.5" fill="#0ecb81" /><line x1="909.27" y1="61.83" x2="909.27" y2="96.33" stroke="#f6465d" stroke-width="1.4" /><rect x="906.27" y="69.50" width="6" height="9.20" rx="1.5" fill="#f6465d" /><line x1="920.00" y1="75.63" x2="920.00" y2="113.96" stroke="#f6465d" stroke-width="1.4" /><rect x="917.00" y="77.93" width="6" height="28.36" rx="1.5" fill="#f6465d" />
  <polyline points="512.10,345.45 565.77,228.94 640.91,294.86 683.85,255.00 737.52,297.93" fill="none" stroke="#2fc273" stroke-width="4" stroke-linecap="round" stroke-linejoin="round" />
  <circle cx="512.10" cy="345.45" r="5.5" fill="#2fc273" fill-opacity="0.15" stroke="#2fc273" stroke-width="2" /><text x="512.10" y="333.45" fill="#f3f4f6" font-size="15" font-weight="700" text-anchor="middle">X</text><circle cx="565.77" cy="228.94" r="5.5" fill="#2fc273" fill-opacity="0.15" stroke="#2fc273" stroke-width="2" /><text x="565.77" y="216.94" fill="#f3f4f6" font-size="15" font-weight="700" text-anchor="middle">A</text><circle cx="640.91" cy="294.86" r="5.5" fill="#2fc273" fill-opacity="0.15" stroke="#2fc273" stroke-width="2" /><text x="640.91" y="282.86" fill="#f3f4f6" font-size="15" font-weight="700" text-anchor="middle">B</text><circle cx="683.85" cy="255.00" r="5.5" fill="#2fc273" fill-opacity="0.15" stroke="#2fc273" stroke-width="2" /><text x="683.85" y="243.00" fill="#f3f4f6" font-size="15" font-weight="700" text-anchor="middle">C</text><circle cx="737.52" cy="297.93" r="5.5" fill="#2fc273" fill-opacity="0.15" stroke="#2fc273" stroke-width="2" /><text x="737.52" y="285.93" fill="#f3f4f6" font-size="15" font-weight="700" text-anchor="middle">D</text>
  <text x="56" y="492" fill="#8ba0b5" font-size="18">일반 완성 · TP1 0.85094 · TP2 0.85226 · SL 0.84682</text>
</svg>
