<svg xmlns="http://www.w3.org/2000/svg" width="960" height="540" viewBox="0 0 960 540">
  <rect width="960" height="540" rx="24" fill="#0b1220" />
  <rect x="28" y="28" width="904" height="484" rx="22" fill="#111827" stroke="#1f2937" />
  <text x="56" y="74" fill="#f3f4f6" font-size="34" font-weight="700">AVAXUSDT · AB=CD</text>
  <text x="904" y="74" fill="#8ba0b5" font-size="20" text-anchor="end">Bearish (매도) · Score 84.8</text>
  <line x1="72" y1="58" x2="920" y2="58" stroke="#223045" stroke-width="1" stroke-dasharray="4 8" /><line x1="72" y1="156" x2="920" y2="156" stroke="#223045" stroke-width="1" stroke-dasharray="4 8" /><line x1="72" y1="255" x2="920" y2="255" stroke="#223045" stroke-width="1" stroke-dasharray="4 8" /><line x1="72" y1="353" x2="920" y2="353" stroke="#223045" stroke-width="1" stroke-dasharray="4 8" /><line x1="72" y1="452" x2="920" y2="452" stroke="#223045" stroke-width="1" stroke-dasharray="4 8" />
  <rect x="569.97" y="-30.10" width="84" height="101.78" fill="#fbbf24" fill-opacity="0.12" stroke="#fbbf24" stroke-width="1.5" stroke-dasharray="6 6" />
  <line x1="72.00" y1="249.53" x2="72.00" y2="348.03" stroke="#f6465d" stroke-width="1.4" /><rect x="69.00" y="306.99" width="6" height="38.31" rx="1.5" fill="#f6465d" /><line x1="82.73" y1="342.56" x2="82.73" y2="397.28" stroke="#f6465d" stroke-width="1.4" /><rect x="79.73" y="348.03" width="6" height="35.57" rx="1.5" fill="#f6465d" /><line x1="93.47" y1="367.18" x2="93.47" y2="435.58" stroke="#f6465d" stroke-width="1.4" /><rect x="90.47" y="386.33" width="6" height="43.78" rx="1.5" fill="#f6465d" /><line x1="104.20" y1="372.65" x2="104.20" y2="443.79" stroke="#0ecb81" stroke-width="1.4" /><rect x="101.20" y="410.96" width="6" height="19.15" rx="1.5" fill="#0ecb81" /><line x1="114.94" y1="400.01" x2="114.94" y2="452.00" stroke="#0ecb81" stroke-width="1.4" /><rect x="111.94" y="402.75" width="6" height="8.21" rx="1.5" fill="#0ecb81" /><line x1="125.67" y1="372.65" x2="125.67" y2="419.17" stroke="#0ecb81" stroke-width="1.4" /><rect x="122.67" y="394.54" width="6" height="8.21" rx="1.5" fill="#0ecb81" /><line x1="136.41" y1="367.18" x2="136.41" y2="419.17" stroke="#0ecb81" stroke-width="1.4" /><rect x="133.41" y="369.92" width="6" height="21.89" rx="1.5" fill="#0ecb81" /><line x1="147.14" y1="326.14" x2="147.14" y2="378.13" stroke="#0ecb81" stroke-width="1.4" /><rect x="144.14" y="345.29" width="6" height="21.89" rx="1.5" fill="#0ecb81" /><line x1="157.87" y1="279.62" x2="157.87" y2="345.29" stroke="#0ecb81" stroke-width="1.4" /><rect x="154.87" y="326.14" width="6" height="19.15" rx="1.5" fill="#0ecb81" /><line x1="168.61" y1="293.31" x2="168.61" y2="331.61" stroke="#0ecb81" stroke-width="1.4" /><rect x="165.61" y="304.25" width="6" height="24.62" rx="1.5" fill="#0ecb81" /><line x1="179.34" y1="233.11" x2="179.34" y2="315.19" stroke="#0ecb81" stroke-width="1.4" /><rect x="176.34" y="265.94" width="6" height="38.31" rx="1.5" fill="#0ecb81" /><line x1="190.08" y1="255.00" x2="190.08" y2="304.25" stroke="#f6465d" stroke-width="1.4" /><rect x="187.08" y="265.94" width="6" height="24.63" rx="1.5" fill="#f6465d" /><line x1="200.81" y1="241.32" x2="200.81" y2="306.99" stroke="#f6465d" stroke-width="1.4" /><rect x="197.81" y="290.57" width="6" height="10.94" rx="1.5" fill="#f6465d" /><line x1="211.54" y1="287.83" x2="211.54" y2="350.76" stroke="#f6465d" stroke-width="1.4" /><rect x="208.54" y="304.25" width="6" height="38.31" rx="1.5" fill="#f6465d" /><line x1="222.28" y1="331.61" x2="222.28" y2="383.60" stroke="#f6465d" stroke-width="1.4" /><rect x="219.28" y="342.56" width="6" height="16.42" rx="1.5" fill="#f6465d" /><line x1="233.01" y1="358.97" x2="233.01" y2="400.01" stroke="#f6465d" stroke-width="1.4" /><rect x="230.01" y="358.97" width="6" height="13.68" rx="1.5" fill="#f6465d" /><line x1="243.75" y1="364.44" x2="243.75" y2="435.58" stroke="#f6465d" stroke-width="1.4" /><rect x="240.75" y="372.65" width="6" height="57.46" rx="1.5" fill="#f6465d" /><line x1="254.48" y1="410.96" x2="254.48" y2="435.58" stroke="#0ecb81" stroke-width="1.4" /><rect x="251.48" y="416.43" width="6" height="13.68" rx="1.5" fill="#0ecb81" /><line x1="265.22" y1="364.44" x2="265.22" y2="427.38" stroke="#0ecb81" stroke-width="1.4" /><rect x="262.22" y="397.28" width="6" height="19.15" rx="1.5" fill="#0ecb81" /><line x1="275.95" y1="331.61" x2="275.95" y2="397.28" stroke="#0ecb81" stroke-width="1.4" /><rect x="272.95" y="334.35" width="6" height="60.19" rx="1.5" fill="#0ecb81" /><line x1="286.68" y1="304.25" x2="286.68" y2="356.24" stroke="#f6465d" stroke-width="1.4" /><rect x="283.68" y="331.61" width="6" height="8.21" rx="1.5" fill="#f6465d" /><line x1="297.42" y1="331.61" x2="297.42" y2="372.65" stroke="#f6465d" stroke-width="1.4" /><rect x="294.42" y="337.08" width="6" height="16.42" rx="1.5" fill="#f6465d" /><line x1="308.15" y1="337.08" x2="308.15" y2="386.33" stroke="#f6465d" stroke-width="1.4" /><rect x="305.15" y="353.50" width="6" height="24.63" rx="1.5" fill="#f6465d" /><line x1="318.89" y1="290.57" x2="318.89" y2="394.54" stroke="#0ecb81" stroke-width="1.4" /><rect x="315.89" y="317.93" width="6" height="62.93" rx="1.5" fill="#0ecb81" /><line x1="329.62" y1="235.85" x2="329.62" y2="317.93" stroke="#0ecb81" stroke-width="1.4" /><rect x="326.62" y="265.94" width="6" height="51.99" rx="1.5" fill="#0ecb81" /><line x1="340.35" y1="241.32" x2="340.35" y2="271.42" stroke="#0ecb81" stroke-width="1.4" /><rect x="337.35" y="260.47" width="6" height="5.47" rx="1.5" fill="#0ecb81" /><line x1="351.09" y1="211.22" x2="351.09" y2="282.36" stroke="#0ecb81" stroke-width="1.4" /><rect x="348.09" y="233.11" width="6" height="27.36" rx="1.5" fill="#0ecb81" /><line x1="361.82" y1="224.90" x2="361.82" y2="287.83" stroke="#f6465d" stroke-width="1.4" /><rect x="358.82" y="230.38" width="6" height="46.51" rx="1.5" fill="#f6465d" /><line x1="372.56" y1="252.26" x2="372.56" y2="301.51" stroke="#0ecb81" stroke-width="1.4" /><rect x="369.56" y="276.89" width="6" height="2.74" rx="1.5" fill="#0ecb81" /><line x1="383.29" y1="249.53" x2="383.29" y2="282.36" stroke="#0ecb81" stroke-width="1.4" /><rect x="380.29" y="252.26" width="6" height="24.62" rx="1.5" fill="#0ecb81" /><line x1="394.03" y1="189.33" x2="394.03" y2="271.42" stroke="#f6465d" stroke-width="1.4" /><rect x="391.03" y="252.26" width="6" height="5.47" rx="1.5" fill="#f6465d" /><line x1="404.76" y1="257.74" x2="404.76" y2="334.35" stroke="#f6465d" stroke-width="1.4" /><rect x="401.76" y="257.74" width="6" height="21.89" rx="1.5" fill="#f6465d" /><line x1="415.49" y1="230.38" x2="415.49" y2="285.10" stroke="#0ecb81" stroke-width="1.4" /><rect x="412.49" y="238.58" width="6" height="43.78" rx="1.5" fill="#0ecb81" /><line x1="426.23" y1="178.39" x2="426.23" y2="249.53" stroke="#0ecb81" stroke-width="1.4" /><rect x="423.23" y="224.90" width="6" height="16.42" rx="1.5" fill="#0ecb81" /><line x1="436.96" y1="118.19" x2="436.96" y2="224.90" stroke="#0ecb81" stroke-width="1.4" /><rect x="433.96" y="161.97" width="6" height="62.93" rx="1.5" fill="#0ecb81" /><line x1="447.70" y1="145.56" x2="447.70" y2="233.11" stroke="#f6465d" stroke-width="1.4" /><rect x="444.70" y="161.97" width="6" height="46.51" rx="1.5" fill="#f6465d" /><line x1="458.43" y1="189.33" x2="458.43" y2="227.64" stroke="#0ecb81" stroke-width="1.4" /><rect x="455.43" y="200.28" width="6" height="5.47" rx="1.5" fill="#0ecb81" /><line x1="469.16" y1="183.86" x2="469.16" y2="224.90" stroke="#0ecb81" stroke-width="1.4" /><rect x="466.16" y="186.60" width="6" height="13.68" rx="1.5" fill="#0ecb81" /><line x1="479.90" y1="159.24" x2="479.90" y2="246.79" stroke="#f6465d" stroke-width="1.4" /><rect x="476.90" y="183.86" width="6" height="49.25" rx="1.5" fill="#f6465d" /><line x1="490.63" y1="186.60" x2="490.63" y2="287.83" stroke="#f6465d" stroke-width="1.4" /><rect x="487.63" y="230.38" width="6" height="51.99" rx="1.5" fill="#f6465d" /><line x1="501.37" y1="252.26" x2="501.37" y2="287.83" stroke="#0ecb81" stroke-width="1.4" /><rect x="498.37" y="263.21" width="6" height="16.42" rx="1.5" fill="#0ecb81" /><line x1="512.10" y1="241.32" x2="512.10" y2="268.68" stroke="#0ecb81" stroke-width="1.4" /><rect x="509.10" y="260.47" width="6" height="2.74" rx="1.5" fill="#0ecb81" /><line x1="522.84" y1="203.01" x2="522.84" y2="263.21" stroke="#0ecb81" stroke-width="1.4" /><rect x="519.84" y="222.17" width="6" height="38.31" rx="1.5" fill="#0ecb81" /><line x1="533.57" y1="189.33" x2="533.57" y2="260.47" stroke="#0ecb81" stroke-width="1.4" /><rect x="530.57" y="197.54" width="6" height="21.89" rx="1.5" fill="#0ecb81" /><line x1="544.30" y1="175.65" x2="544.30" y2="208.49" stroke="#0ecb81" stroke-width="1.4" /><rect x="541.30" y="189.33" width="6" height="5.47" rx="1.5" fill="#0ecb81" /><line x1="555.04" y1="115.46" x2="555.04" y2="194.81" stroke="#0ecb81" stroke-width="1.4" /><rect x="552.04" y="153.76" width="6" height="35.57" rx="1.5" fill="#0ecb81" /><line x1="565.77" y1="107.25" x2="565.77" y2="192.07" stroke="#f6465d" stroke-width="1.4" /><rect x="562.77" y="153.76" width="6" height="21.89" rx="1.5" fill="#f6465d" /><line x1="576.51" y1="118.19" x2="576.51" y2="189.33" stroke="#0ecb81" stroke-width="1.4" /><rect x="573.51" y="137.35" width="6" height="35.57" rx="1.5" fill="#0ecb81" /><line x1="587.24" y1="60.74" x2="587.24" y2="137.35" stroke="#0ecb81" stroke-width="1.4" /><rect x="584.24" y="66.21" width="6" height="68.40" rx="1.5" fill="#0ecb81" /><line x1="597.97" y1="60.74" x2="597.97" y2="96.31" stroke="#f6465d" stroke-width="1.4" /><rect x="594.97" y="66.21" width="6" height="30.10" rx="1.5" fill="#f6465d" /><line x1="608.71" y1="71.68" x2="608.71" y2="137.35" stroke="#f6465d" stroke-width="1.4" /><rect x="605.71" y="93.57" width="6" height="13.68" rx="1.5" fill="#f6465d" /><line x1="619.44" y1="101.78" x2="619.44" y2="172.92" stroke="#f6465d" stroke-width="1.4" /><rect x="616.44" y="107.25" width="6" height="32.83" rx="1.5" fill="#f6465d" /><line x1="630.18" y1="71.68" x2="630.18" y2="145.56" stroke="#0ecb81" stroke-width="1.4" /><rect x="627.18" y="123.67" width="6" height="13.68" rx="1.5" fill="#0ecb81" /><line x1="640.91" y1="77.15" x2="640.91" y2="123.67" stroke="#0ecb81" stroke-width="1.4" /><rect x="637.91" y="90.83" width="6" height="30.10" rx="1.5" fill="#0ecb81" /><line x1="651.65" y1="77.15" x2="651.65" y2="131.87" stroke="#0ecb81" stroke-width="1.4" /><rect x="648.65" y="85.36" width="6" height="2.74" rx="1.5" fill="#0ecb81" /><line x1="662.38" y1="58.00" x2="662.38" y2="145.56" stroke="#f6465d" stroke-width="1.4" /><rect x="659.38" y="85.36" width="6" height="51.99" rx="1.5" fill="#f6465d" /><line x1="673.11" y1="115.46" x2="673.11" y2="148.29" stroke="#0ecb81" stroke-width="1.4" /><rect x="670.11" y="131.87" width="6" height="5.47" rx="1.5" fill="#0ecb81" /><line x1="683.85" y1="123.67" x2="683.85" y2="148.29" stroke="#0ecb81" stroke-width="1.4" /><rect x="680.85" y="131.87" width="6" height="2.00" rx="1.5" fill="#0ecb81" /><line x1="694.58" y1="131.87" x2="694.58" y2="192.07" stroke="#f6465d" stroke-width="1.4" /><rect x="691.58" y="131.87" width="6" height="49.25" rx="1.5" fill="#f6465d" /><line x1="705.32" y1="151.03" x2="705.32" y2="189.33" stroke="#f6465d" stroke-width="1.4" /><rect x="702.32" y="178.39" width="6" height="10.94" rx="1.5" fill="#f6465d" /><line x1="716.05" y1="126.40" x2="716.05" y2="192.07" stroke="#0ecb81" stroke-width="1.4" /><rect x="713.05" y="129.14" width="6" height="60.19" rx="1.5" fill="#0ecb81" /><line x1="726.78" y1="109.99" x2="726.78" y2="148.29" stroke="#f6465d" stroke-width="1.4" /><rect x="723.78" y="129.14" width="6" height="13.68" rx="1.5" fill="#f6465d" /><line x1="737.52" y1="118.19" x2="737.52" y2="159.24" stroke="#f6465d" stroke-width="1.4" /><rect x="734.52" y="142.82" width="6" height="10.94" rx="1.5" fill="#f6465d" /><line x1="748.25" y1="142.82" x2="748.25" y2="189.33" stroke="#f6465d" stroke-width="1.4" /><rect x="745.25" y="151.03" width="6" height="21.89" rx="1.5" fill="#f6465d" /><line x1="758.99" y1="151.03" x2="758.99" y2="189.33" stroke="#f6465d" stroke-width="1.4" /><rect x="755.99" y="170.18" width="6" height="5.47" rx="1.5" fill="#f6465d" /><line x1="769.72" y1="164.71" x2="769.72" y2="249.53" stroke="#f6465d" stroke-width="1.4" /><rect x="766.72" y="175.65" width="6" height="49.25" rx="1.5" fill="#f6465d" /><line x1="780.46" y1="213.96" x2="780.46" y2="263.21" stroke="#f6465d" stroke-width="1.4" /><rect x="777.46" y="227.64" width="6" height="10.94" rx="1.5" fill="#f6465d" /><line x1="791.19" y1="213.96" x2="791.19" y2="244.06" stroke="#0ecb81" stroke-width="1.4" /><rect x="788.19" y="230.38" width="6" height="10.94" rx="1.5" fill="#0ecb81" /><line x1="801.92" y1="200.28" x2="801.92" y2="230.38" stroke="#0ecb81" stroke-width="1.4" /><rect x="798.92" y="203.01" width="6" height="27.36" rx="1.5" fill="#0ecb81" /><line x1="812.66" y1="183.86" x2="812.66" y2="205.75" stroke="#0ecb81" stroke-width="1.4" /><rect x="809.66" y="197.54" width="6" height="5.47" rx="1.5" fill="#0ecb81" /><line x1="823.39" y1="186.60" x2="823.39" y2="244.06" stroke="#f6465d" stroke-width="1.4" /><rect x="820.39" y="197.54" width="6" height="10.94" rx="1.5" fill="#f6465d" /><line x1="834.13" y1="156.50" x2="834.13" y2="224.90" stroke="#0ecb81" stroke-width="1.4" /><rect x="831.13" y="186.60" width="6" height="21.89" rx="1.5" fill="#0ecb81" /><line x1="844.86" y1="145.56" x2="844.86" y2="197.54" stroke="#0ecb81" stroke-width="1.4" /><rect x="841.86" y="164.71" width="6" height="21.89" rx="1.5" fill="#0ecb81" /><line x1="855.59" y1="137.35" x2="855.59" y2="181.13" stroke="#f6465d" stroke-width="1.4" /><rect x="852.59" y="164.71" width="6" height="2.74" rx="1.5" fill="#f6465d" /><line x1="866.33" y1="148.29" x2="866.33" y2="178.39" stroke="#0ecb81" stroke-width="1.4" /><rect x="863.33" y="161.97" width="6" height="5.47" rx="1.5" fill="#0ecb81" /><line x1="877.06" y1="159.24" x2="877.06" y2="222.17" stroke="#f6465d" stroke-width="1.4" /><rect x="874.06" y="161.97" width="6" height="43.78" rx="1.5" fill="#f6465d" /><line x1="887.80" y1="186.60" x2="887.80" y2="263.21" stroke="#f6465d" stroke-width="1.4" /><rect x="884.80" y="203.01" width="6" height="51.99" rx="1.5" fill="#f6465d" /><line x1="898.53" y1="172.92" x2="898.53" y2="260.47" stroke="#0ecb81" stroke-width="1.4" /><rect x="895.53" y="175.65" width="6" height="79.35" rx="1.5" fill="#0ecb81" /><line x1="909.27" y1="164.71" x2="909.27" y2="222.17" stroke="#0ecb81" stroke-width="1.4" /><rect x="906.27" y="172.92" width="6" height="2.00" rx="1.5" fill="#0ecb81" /><line x1="920.00" y1="172.92" x2="920.00" y2="279.62" stroke="#f6465d" stroke-width="1.4" /><rect x="917.00" y="172.92" width="6" height="93.03" rx="1.5" fill="#f6465d" />
  <polyline points="351.09,211.22 404.76,334.35 436.96,118.19 501.37,287.83 597.97,60.74" fill="none" stroke="#2fc273" stroke-width="4" stroke-linecap="round" stroke-linejoin="round" />
  <circle cx="351.09" cy="211.22" r="5.5" fill="#2fc273" fill-opacity="0.15" stroke="#2fc273" stroke-width="2" /><text x="351.09" y="199.22" fill="#f3f4f6" font-size="15" font-weight="700" text-anchor="middle">X</text><circle cx="404.76" cy="334.35" r="5.5" fill="#2fc273" fill-opacity="0.15" stroke="#2fc273" stroke-width="2" /><text x="404.76" y="322.35" fill="#f3f4f6" font-size="15" font-weight="700" text-anchor="middle">A</text><circle cx="436.96" cy="118.19" r="5.5" fill="#2fc273" fill-opacity="0.15" stroke="#2fc273" stroke-width="2" /><text x="436.96" y="106.19" fill="#f3f4f6" font-size="15" font-weight="700" text-anchor="middle">B</text><circle cx="501.37" cy="287.83" r="5.5" fill="#2fc273" fill-opacity="0.15" stroke="#2fc273" stroke-width="2" /><text x="501.37" y="275.83" fill="#f3f4f6" font-size="15" font-weight="700" text-anchor="middle">C</text><circle cx="597.97" cy="60.74" r="5.5" fill="#2fc273" fill-opacity="0.15" stroke="#2fc273" stroke-width="2" /><text x="597.97" y="48.74" fill="#f3f4f6" font-size="15" font-weight="700" text-anchor="middle">D</text>
  <text x="56" y="492" fill="#8ba0b5" font-size="18">Complete · TP1 6.6523 · TP2 6.6327 · SL 6.6898</text>
</svg>
