<svg xmlns="http://www.w3.org/2000/svg" width="960" height="540" viewBox="0 0 960 540">
  <rect width="960" height="540" rx="24" fill="#0b1220" />
  <rect x="28" y="28" width="904" height="484" rx="22" fill="#111827" stroke="#1f2937" />
  <text x="56" y="74" fill="#f3f4f6" font-size="34" font-weight="700">AVAXUSDT · AB=CD</text>
  <text x="904" y="74" fill="#8ba0b5" font-size="20" text-anchor="end">Bearish (매도) · Score 79.2</text>
  <line x1="72" y1="58" x2="920" y2="58" stroke="#223045" stroke-width="1" stroke-dasharray="4 8" /><line x1="72" y1="156" x2="920" y2="156" stroke="#223045" stroke-width="1" stroke-dasharray="4 8" /><line x1="72" y1="255" x2="920" y2="255" stroke="#223045" stroke-width="1" stroke-dasharray="4 8" /><line x1="72" y1="353" x2="920" y2="353" stroke="#223045" stroke-width="1" stroke-dasharray="4 8" /><line x1="72" y1="452" x2="920" y2="452" stroke="#223045" stroke-width="1" stroke-dasharray="4 8" />
  <rect x="580.71" y="367.09" width="84" height="28.50" fill="#fbbf24" fill-opacity="0.12" stroke="#fbbf24" stroke-width="1.5" stroke-dasharray="6 6" />
  <line x1="72.00" y1="424.65" x2="72.00" y2="434.48" stroke="#0ecb81" stroke-width="1.4" /><rect x="69.00" y="428.07" width="6" height="2.00" rx="1.5" fill="#0ecb81" /><line x1="82.73" y1="419.52" x2="82.73" y2="429.35" stroke="#0ecb81" stroke-width="1.4" /><rect x="79.73" y="427.21" width="6" height="2.00" rx="1.5" fill="#0ecb81" /><line x1="93.47" y1="418.67" x2="93.47" y2="428.92" stroke="#0ecb81" stroke-width="1.4" /><rect x="90.47" y="422.94" width="6" height="3.85" rx="1.5" fill="#0ecb81" /><line x1="104.20" y1="413.97" x2="104.20" y2="422.94" stroke="#0ecb81" stroke-width="1.4" /><rect x="101.20" y="418.67" width="6" height="4.27" rx="1.5" fill="#0ecb81" /><line x1="114.94" y1="409.69" x2="114.94" y2="422.94" stroke="#0ecb81" stroke-width="1.4" /><rect x="111.94" y="417.39" width="6" height="2.00" rx="1.5" fill="#0ecb81" /><line x1="125.67" y1="415.25" x2="125.67" y2="421.66" stroke="#f6465d" stroke-width="1.4" /><rect x="122.67" y="417.39" width="6" height="2.56" rx="1.5" fill="#f6465d" /><line x1="136.41" y1="418.24" x2="136.41" y2="425.08" stroke="#0ecb81" stroke-width="1.4" /><rect x="133.41" y="419.95" width="6" height="2.00" rx="1.5" fill="#0ecb81" /><line x1="147.14" y1="416.10" x2="147.14" y2="420.38" stroke="#0ecb81" stroke-width="1.4" /><rect x="144.14" y="418.24" width="6" height="2.00" rx="1.5" fill="#0ecb81" /><line x1="157.87" y1="416.10" x2="157.87" y2="424.65" stroke="#f6465d" stroke-width="1.4" /><rect x="154.87" y="418.24" width="6" height="5.13" rx="1.5" fill="#f6465d" /><line x1="168.61" y1="420.80" x2="168.61" y2="426.79" stroke="#0ecb81" stroke-width="1.4" /><rect x="165.61" y="421.66" width="6" height="2.00" rx="1.5" fill="#0ecb81" /><line x1="179.34" y1="403.28" x2="179.34" y2="423.80" stroke="#0ecb81" stroke-width="1.4" /><rect x="176.34" y="415.68" width="6" height="6.41" rx="1.5" fill="#0ecb81" /><line x1="190.08" y1="415.25" x2="190.08" y2="426.36" stroke="#f6465d" stroke-width="1.4" /><rect x="187.08" y="415.68" width="6" height="8.55" rx="1.5" fill="#f6465d" /><line x1="200.81" y1="421.23" x2="200.81" y2="429.35" stroke="#f6465d" stroke-width="1.4" /><rect x="197.81" y="424.65" width="6" height="2.00" rx="1.5" fill="#f6465d" /><line x1="211.54" y1="423.37" x2="211.54" y2="432.34" stroke="#f6465d" stroke-width="1.4" /><rect x="208.54" y="426.36" width="6" height="2.00" rx="1.5" fill="#f6465d" /><line x1="222.28" y1="420.80" x2="222.28" y2="428.07" stroke="#0ecb81" stroke-width="1.4" /><rect x="219.28" y="421.66" width="6" height="5.56" rx="1.5" fill="#0ecb81" /><line x1="233.01" y1="416.10" x2="233.01" y2="421.66" stroke="#0ecb81" stroke-width="1.4" /><rect x="230.01" y="420.80" width="6" height="2.00" rx="1.5" fill="#0ecb81" /><line x1="243.75" y1="419.95" x2="243.75" y2="427.64" stroke="#f6465d" stroke-width="1.4" /><rect x="240.75" y="420.80" width="6" height="3.42" rx="1.5" fill="#f6465d" /><line x1="254.48" y1="422.51" x2="254.48" y2="430.63" stroke="#f6465d" stroke-width="1.4" /><rect x="251.48" y="424.22" width="6" height="6.41" rx="1.5" fill="#f6465d" /><line x1="265.22" y1="428.07" x2="265.22" y2="451.57" stroke="#f6465d" stroke-width="1.4" /><rect x="262.22" y="430.63" width="6" height="15.38" rx="1.5" fill="#f6465d" /><line x1="275.95" y1="432.34" x2="275.95" y2="452.00" stroke="#0ecb81" stroke-width="1.4" /><rect x="272.95" y="434.48" width="6" height="11.54" rx="1.5" fill="#0ecb81" /><line x1="286.68" y1="429.35" x2="286.68" y2="440.46" stroke="#f6465d" stroke-width="1.4" /><rect x="283.68" y="434.48" width="6" height="5.98" rx="1.5" fill="#f6465d" /><line x1="297.42" y1="434.05" x2="297.42" y2="448.15" stroke="#f6465d" stroke-width="1.4" /><rect x="294.42" y="440.03" width="6" height="7.69" rx="1.5" fill="#f6465d" /><line x1="308.15" y1="430.21" x2="308.15" y2="449.01" stroke="#0ecb81" stroke-width="1.4" /><rect x="305.15" y="431.06" width="6" height="16.67" rx="1.5" fill="#0ecb81" /><line x1="318.89" y1="421.66" x2="318.89" y2="431.92" stroke="#0ecb81" stroke-width="1.4" /><rect x="315.89" y="422.09" width="6" height="8.97" rx="1.5" fill="#0ecb81" /><line x1="329.62" y1="413.54" x2="329.62" y2="425.08" stroke="#f6465d" stroke-width="1.4" /><rect x="326.62" y="422.09" width="6" height="2.00" rx="1.5" fill="#f6465d" /><line x1="340.35" y1="411.40" x2="340.35" y2="427.64" stroke="#0ecb81" stroke-width="1.4" /><rect x="337.35" y="416.96" width="6" height="7.26" rx="1.5" fill="#0ecb81" /><line x1="351.09" y1="412.69" x2="351.09" y2="419.95" stroke="#0ecb81" stroke-width="1.4" /><rect x="348.09" y="416.96" width="6" height="2.00" rx="1.5" fill="#0ecb81" /><line x1="361.82" y1="416.10" x2="361.82" y2="421.66" stroke="#f6465d" stroke-width="1.4" /><rect x="358.82" y="416.96" width="6" height="4.27" rx="1.5" fill="#f6465d" /><line x1="372.56" y1="415.68" x2="372.56" y2="428.92" stroke="#0ecb81" stroke-width="1.4" /><rect x="369.56" y="419.52" width="6" height="2.14" rx="1.5" fill="#0ecb81" /><line x1="383.29" y1="378.93" x2="383.29" y2="423.80" stroke="#0ecb81" stroke-width="1.4" /><rect x="380.29" y="386.62" width="6" height="32.90" rx="1.5" fill="#0ecb81" /><line x1="394.03" y1="360.55" x2="394.03" y2="399.87" stroke="#f6465d" stroke-width="1.4" /><rect x="391.03" y="386.19" width="6" height="3.85" rx="1.5" fill="#f6465d" /><line x1="404.76" y1="389.18" x2="404.76" y2="398.58" stroke="#f6465d" stroke-width="1.4" /><rect x="401.76" y="390.04" width="6" height="5.98" rx="1.5" fill="#f6465d" /><line x1="415.49" y1="393.46" x2="415.49" y2="402.43" stroke="#f6465d" stroke-width="1.4" /><rect x="412.49" y="395.59" width="6" height="2.56" rx="1.5" fill="#f6465d" /><line x1="426.23" y1="396.02" x2="426.23" y2="403.28" stroke="#f6465d" stroke-width="1.4" /><rect x="423.23" y="397.73" width="6" height="5.56" rx="1.5" fill="#f6465d" /><line x1="436.96" y1="396.45" x2="436.96" y2="407.56" stroke="#0ecb81" stroke-width="1.4" /><rect x="433.96" y="402.43" width="6" height="2.00" rx="1.5" fill="#0ecb81" /><line x1="447.70" y1="402.43" x2="447.70" y2="411.83" stroke="#f6465d" stroke-width="1.4" /><rect x="444.70" y="402.43" width="6" height="6.84" rx="1.5" fill="#f6465d" /><line x1="458.43" y1="406.28" x2="458.43" y2="419.52" stroke="#f6465d" stroke-width="1.4" /><rect x="455.43" y="408.84" width="6" height="2.14" rx="1.5" fill="#f6465d" /><line x1="469.16" y1="410.12" x2="469.16" y2="422.94" stroke="#f6465d" stroke-width="1.4" /><rect x="466.16" y="410.55" width="6" height="2.00" rx="1.5" fill="#f6465d" /><line x1="479.90" y1="400.72" x2="479.90" y2="415.68" stroke="#0ecb81" stroke-width="1.4" /><rect x="476.90" y="400.72" width="6" height="10.68" rx="1.5" fill="#0ecb81" /><line x1="490.63" y1="397.73" x2="490.63" y2="407.13" stroke="#0ecb81" stroke-width="1.4" /><rect x="487.63" y="400.29" width="6" height="2.00" rx="1.5" fill="#0ecb81" /><line x1="501.37" y1="400.29" x2="501.37" y2="414.82" stroke="#f6465d" stroke-width="1.4" /><rect x="498.37" y="400.72" width="6" height="12.82" rx="1.5" fill="#f6465d" /><line x1="512.10" y1="411.40" x2="512.10" y2="416.10" stroke="#f6465d" stroke-width="1.4" /><rect x="509.10" y="413.11" width="6" height="2.00" rx="1.5" fill="#f6465d" /><line x1="522.84" y1="399.01" x2="522.84" y2="413.54" stroke="#0ecb81" stroke-width="1.4" /><rect x="519.84" y="404.57" width="6" height="8.97" rx="1.5" fill="#0ecb81" /><line x1="533.57" y1="401.15" x2="533.57" y2="408.41" stroke="#f6465d" stroke-width="1.4" /><rect x="530.57" y="404.99" width="6" height="2.00" rx="1.5" fill="#f6465d" /><line x1="544.30" y1="405.85" x2="544.30" y2="411.83" stroke="#f6465d" stroke-width="1.4" /><rect x="541.30" y="406.70" width="6" height="2.14" rx="1.5" fill="#f6465d" /><line x1="555.04" y1="391.75" x2="555.04" y2="410.55" stroke="#0ecb81" stroke-width="1.4" /><rect x="552.04" y="396.02" width="6" height="12.82" rx="1.5" fill="#0ecb81" /><line x1="565.77" y1="396.02" x2="565.77" y2="419.95" stroke="#f6465d" stroke-width="1.4" /><rect x="562.77" y="396.02" width="6" height="20.94" rx="1.5" fill="#f6465d" /><line x1="576.51" y1="407.13" x2="576.51" y2="417.39" stroke="#0ecb81" stroke-width="1.4" /><rect x="573.51" y="408.41" width="6" height="8.12" rx="1.5" fill="#0ecb81" /><line x1="587.24" y1="401.57" x2="587.24" y2="408.84" stroke="#0ecb81" stroke-width="1.4" /><rect x="584.24" y="406.70" width="6" height="2.00" rx="1.5" fill="#0ecb81" /><line x1="597.97" y1="395.16" x2="597.97" y2="407.13" stroke="#0ecb81" stroke-width="1.4" /><rect x="594.97" y="399.87" width="6" height="7.26" rx="1.5" fill="#0ecb81" /><line x1="608.71" y1="388.75" x2="608.71" y2="402.86" stroke="#f6465d" stroke-width="1.4" /><rect x="605.71" y="399.87" width="6" height="2.00" rx="1.5" fill="#f6465d" /><line x1="619.44" y1="389.61" x2="619.44" y2="401.15" stroke="#0ecb81" stroke-width="1.4" /><rect x="616.44" y="392.60" width="6" height="7.69" rx="1.5" fill="#0ecb81" /><line x1="630.18" y1="391.32" x2="630.18" y2="408.41" stroke="#f6465d" stroke-width="1.4" /><rect x="627.18" y="392.60" width="6" height="8.55" rx="1.5" fill="#f6465d" /><line x1="640.91" y1="400.29" x2="640.91" y2="413.54" stroke="#f6465d" stroke-width="1.4" /><rect x="637.91" y="401.57" width="6" height="8.97" rx="1.5" fill="#f6465d" /><line x1="651.65" y1="408.84" x2="651.65" y2="415.68" stroke="#f6465d" stroke-width="1.4" /><rect x="648.65" y="410.55" width="6" height="2.00" rx="1.5" fill="#f6465d" /><line x1="662.38" y1="394.31" x2="662.38" y2="411.40" stroke="#0ecb81" stroke-width="1.4" /><rect x="659.38" y="403.71" width="6" height="7.69" rx="1.5" fill="#0ecb81" /><line x1="673.11" y1="393.03" x2="673.11" y2="416.96" stroke="#f6465d" stroke-width="1.4" /><rect x="670.11" y="403.71" width="6" height="5.98" rx="1.5" fill="#f6465d" /><line x1="683.85" y1="407.56" x2="683.85" y2="423.37" stroke="#f6465d" stroke-width="1.4" /><rect x="680.85" y="410.12" width="6" height="3.85" rx="1.5" fill="#f6465d" /><line x1="694.58" y1="375.93" x2="694.58" y2="415.25" stroke="#0ecb81" stroke-width="1.4" /><rect x="691.58" y="383.20" width="6" height="31.20" rx="1.5" fill="#0ecb81" /><line x1="705.32" y1="355.42" x2="705.32" y2="384.05" stroke="#0ecb81" stroke-width="1.4" /><rect x="702.32" y="360.12" width="6" height="23.50" rx="1.5" fill="#0ecb81" /><line x1="716.05" y1="342.18" x2="716.05" y2="367.82" stroke="#0ecb81" stroke-width="1.4" /><rect x="713.05" y="342.18" width="6" height="17.52" rx="1.5" fill="#0ecb81" /><line x1="726.78" y1="312.69" x2="726.78" y2="343.03" stroke="#0ecb81" stroke-width="1.4" /><rect x="723.78" y="329.36" width="6" height="12.82" rx="1.5" fill="#0ecb81" /><line x1="737.52" y1="305.85" x2="737.52" y2="330.64" stroke="#0ecb81" stroke-width="1.4" /><rect x="734.52" y="322.52" width="6" height="7.26" rx="1.5" fill="#0ecb81" /><line x1="748.25" y1="311.41" x2="748.25" y2="323.37" stroke="#0ecb81" stroke-width="1.4" /><rect x="745.25" y="313.54" width="6" height="8.97" rx="1.5" fill="#0ecb81" /><line x1="758.99" y1="259.27" x2="758.99" y2="313.54" stroke="#0ecb81" stroke-width="1.4" /><rect x="755.99" y="261.84" width="6" height="51.71" rx="1.5" fill="#0ecb81" /><line x1="769.72" y1="217.39" x2="769.72" y2="266.54" stroke="#0ecb81" stroke-width="1.4" /><rect x="766.72" y="228.08" width="6" height="34.19" rx="1.5" fill="#0ecb81" /><line x1="780.46" y1="198.16" x2="780.46" y2="237.48" stroke="#0ecb81" stroke-width="1.4" /><rect x="777.46" y="201.16" width="6" height="26.49" rx="1.5" fill="#0ecb81" /><line x1="791.19" y1="156.71" x2="791.19" y2="203.72" stroke="#0ecb81" stroke-width="1.4" /><rect x="788.19" y="160.56" width="6" height="41.02" rx="1.5" fill="#0ecb81" /><line x1="801.92" y1="79.79" x2="801.92" y2="160.56" stroke="#0ecb81" stroke-width="1.4" /><rect x="798.92" y="138.34" width="6" height="21.79" rx="1.5" fill="#0ecb81" /><line x1="812.66" y1="122.95" x2="812.66" y2="158.00" stroke="#0ecb81" stroke-width="1.4" /><rect x="809.66" y="131.93" width="6" height="6.41" rx="1.5" fill="#0ecb81" /><line x1="823.39" y1="123.38" x2="823.39" y2="169.11" stroke="#f6465d" stroke-width="1.4" /><rect x="820.39" y="131.50" width="6" height="29.49" rx="1.5" fill="#f6465d" /><line x1="834.13" y1="143.47" x2="834.13" y2="172.10" stroke="#0ecb81" stroke-width="1.4" /><rect x="831.13" y="158.85" width="6" height="2.56" rx="1.5" fill="#0ecb81" /><line x1="844.86" y1="83.21" x2="844.86" y2="158.85" stroke="#0ecb81" stroke-width="1.4" /><rect x="841.86" y="107.14" width="6" height="51.71" rx="1.5" fill="#0ecb81" /><line x1="855.59" y1="82.79" x2="855.59" y2="111.42" stroke="#0ecb81" stroke-width="1.4" /><rect x="852.59" y="90.05" width="6" height="16.67" rx="1.5" fill="#0ecb81" /><line x1="866.33" y1="58.00" x2="866.33" y2="91.33" stroke="#0ecb81" stroke-width="1.4" /><rect x="863.33" y="83.64" width="6" height="6.41" rx="1.5" fill="#0ecb81" /><line x1="877.06" y1="77.23" x2="877.06" y2="92.19" stroke="#f6465d" stroke-width="1.4" /><rect x="874.06" y="83.21" width="6" height="3.42" rx="1.5" fill="#f6465d" /><line x1="887.80" y1="74.24" x2="887.80" y2="95.18" stroke="#f6465d" stroke-width="1.4" /><rect x="884.80" y="87.06" width="6" height="2.99" rx="1.5" fill="#f6465d" /><line x1="898.53" y1="84.92" x2="898.53" y2="108.00" stroke="#f6465d" stroke-width="1.4" /><rect x="895.53" y="90.05" width="6" height="13.25" rx="1.5" fill="#f6465d" /><line x1="909.27" y1="99.88" x2="909.27" y2="132.78" stroke="#f6465d" stroke-width="1.4" /><rect x="906.27" y="103.30" width="6" height="25.21" rx="1.5" fill="#f6465d" /><line x1="920.00" y1="127.23" x2="920.00" y2="148.59" stroke="#f6465d" stroke-width="1.4" /><rect x="917.00" y="128.94" width="6" height="13.67" rx="1.5" fill="#f6465d" />
  <polyline points="490.63,397.73 512.10,416.10 555.04,391.75 565.77,419.95 608.71,388.75" fill="none" stroke="#2fc273" stroke-width="4" stroke-linecap="round" stroke-linejoin="round" />
  <circle cx="490.63" cy="397.73" r="5.5" fill="#2fc273" fill-opacity="0.15" stroke="#2fc273" stroke-width="2" /><text x="490.63" y="385.73" fill="#f3f4f6" font-size="15" font-weight="700" text-anchor="middle">X</text><circle cx="512.10" cy="416.10" r="5.5" fill="#2fc273" fill-opacity="0.15" stroke="#2fc273" stroke-width="2" /><text x="512.10" y="404.10" fill="#f3f4f6" font-size="15" font-weight="700" text-anchor="middle">A</text><circle cx="555.04" cy="391.75" r="5.5" fill="#2fc273" fill-opacity="0.15" stroke="#2fc273" stroke-width="2" /><text x="555.04" y="379.75" fill="#f3f4f6" font-size="15" font-weight="700" text-anchor="middle">B</text><circle cx="565.77" cy="419.95" r="5.5" fill="#2fc273" fill-opacity="0.15" stroke="#2fc273" stroke-width="2" /><text x="565.77" y="407.95" fill="#f3f4f6" font-size="15" font-weight="700" text-anchor="middle">C</text><circle cx="608.71" cy="388.75" r="5.5" fill="#2fc273" fill-opacity="0.15" stroke="#2fc273" stroke-width="2" /><text x="608.71" y="376.75" fill="#f3f4f6" font-size="15" font-weight="700" text-anchor="middle">D</text>
  <text x="56" y="492" fill="#8ba0b5" font-size="18">실시간 터치 · TP1 8.8611 · TP2 8.8439 · SL 8.8946</text>
</svg>
