<svg xmlns="http://www.w3.org/2000/svg" width="960" height="540" viewBox="0 0 960 540">
  <rect width="960" height="540" rx="24" fill="#0b1220" />
  <rect x="28" y="28" width="904" height="484" rx="22" fill="#111827" stroke="#1f2937" />
  <text x="56" y="74" fill="#f3f4f6" font-size="34" font-weight="700">BCHUSDT · AB=CD</text>
  <text x="904" y="74" fill="#8ba0b5" font-size="20" text-anchor="end">Bearish (매도) · Score 89.2</text>
  <line x1="72" y1="58" x2="920" y2="58" stroke="#223045" stroke-width="1" stroke-dasharray="4 8" /><line x1="72" y1="156" x2="920" y2="156" stroke="#223045" stroke-width="1" stroke-dasharray="4 8" /><line x1="72" y1="255" x2="920" y2="255" stroke="#223045" stroke-width="1" stroke-dasharray="4 8" /><line x1="72" y1="353" x2="920" y2="353" stroke="#223045" stroke-width="1" stroke-dasharray="4 8" /><line x1="72" y1="452" x2="920" y2="452" stroke="#223045" stroke-width="1" stroke-dasharray="4 8" />
  <rect x="827.59" y="82.85" width="84" height="42.21" fill="#fbbf24" fill-opacity="0.12" stroke="#fbbf24" stroke-width="1.5" stroke-dasharray="6 6" />
  <line x1="72.00" y1="370.46" x2="72.00" y2="452.00" stroke="#f6465d" stroke-width="1.4" /><rect x="69.00" y="373.74" width="6" height="42.99" rx="1.5" fill="#f6465d" /><line x1="82.73" y1="365.07" x2="82.73" y2="421.16" stroke="#0ecb81" stroke-width="1.4" /><rect x="79.73" y="383.57" width="6" height="33.15" rx="1.5" fill="#0ecb81" /><line x1="93.47" y1="377.98" x2="93.47" y2="425.01" stroke="#f6465d" stroke-width="1.4" /><rect x="90.47" y="383.76" width="6" height="38.94" rx="1.5" fill="#f6465d" /><line x1="104.20" y1="421.74" x2="104.20" y2="442.36" stroke="#f6465d" stroke-width="1.4" /><rect x="101.20" y="422.89" width="6" height="8.48" rx="1.5" fill="#f6465d" /><line x1="114.94" y1="393.79" x2="114.94" y2="438.70" stroke="#0ecb81" stroke-width="1.4" /><rect x="111.94" y="402.85" width="6" height="29.11" rx="1.5" fill="#0ecb81" /><line x1="125.67" y1="374.51" x2="125.67" y2="403.04" stroke="#0ecb81" stroke-width="1.4" /><rect x="122.67" y="382.22" width="6" height="20.63" rx="1.5" fill="#0ecb81" /><line x1="136.41" y1="342.51" x2="136.41" y2="382.22" stroke="#0ecb81" stroke-width="1.4" /><rect x="133.41" y="350.22" width="6" height="31.81" rx="1.5" fill="#0ecb81" /><line x1="147.14" y1="333.45" x2="147.14" y2="355.62" stroke="#0ecb81" stroke-width="1.4" /><rect x="144.14" y="342.71" width="6" height="7.32" rx="1.5" fill="#0ecb81" /><line x1="157.87" y1="299.72" x2="157.87" y2="342.71" stroke="#0ecb81" stroke-width="1.4" /><rect x="154.87" y="307.43" width="6" height="35.27" rx="1.5" fill="#0ecb81" /><line x1="168.61" y1="298.95" x2="168.61" y2="332.30" stroke="#f6465d" stroke-width="1.4" /><rect x="165.61" y="307.43" width="6" height="3.08" rx="1.5" fill="#f6465d" /><line x1="179.34" y1="308.01" x2="179.34" y2="344.44" stroke="#f6465d" stroke-width="1.4" /><rect x="176.34" y="310.51" width="6" height="25.25" rx="1.5" fill="#f6465d" /><line x1="190.08" y1="335.19" x2="190.08" y2="359.09" stroke="#f6465d" stroke-width="1.4" /><rect x="187.08" y="335.96" width="6" height="2.00" rx="1.5" fill="#f6465d" /><line x1="200.81" y1="324.97" x2="200.81" y2="345.98" stroke="#f6465d" stroke-width="1.4" /><rect x="197.81" y="336.73" width="6" height="2.00" rx="1.5" fill="#f6465d" /><line x1="211.54" y1="330.75" x2="211.54" y2="356.01" stroke="#0ecb81" stroke-width="1.4" /><rect x="208.54" y="336.73" width="6" height="2.00" rx="1.5" fill="#0ecb81" /><line x1="222.28" y1="311.67" x2="222.28" y2="336.54" stroke="#0ecb81" stroke-width="1.4" /><rect x="219.28" y="323.43" width="6" height="13.11" rx="1.5" fill="#0ecb81" /><line x1="233.01" y1="300.49" x2="233.01" y2="323.43" stroke="#0ecb81" stroke-width="1.4" /><rect x="230.01" y="314.18" width="6" height="9.25" rx="1.5" fill="#0ecb81" /><line x1="243.75" y1="312.44" x2="243.75" y2="347.52" stroke="#f6465d" stroke-width="1.4" /><rect x="240.75" y="314.18" width="6" height="27.95" rx="1.5" fill="#f6465d" /><line x1="254.48" y1="316.10" x2="254.48" y2="347.52" stroke="#0ecb81" stroke-width="1.4" /><rect x="251.48" y="342.13" width="6" height="2.00" rx="1.5" fill="#0ecb81" /><line x1="265.22" y1="338.27" x2="265.22" y2="366.80" stroke="#f6465d" stroke-width="1.4" /><rect x="262.22" y="342.13" width="6" height="19.08" rx="1.5" fill="#f6465d" /><line x1="275.95" y1="349.84" x2="275.95" y2="373.16" stroke="#0ecb81" stroke-width="1.4" /><rect x="272.95" y="349.84" width="6" height="11.37" rx="1.5" fill="#0ecb81" /><line x1="286.68" y1="348.87" x2="286.68" y2="376.63" stroke="#f6465d" stroke-width="1.4" /><rect x="283.68" y="349.84" width="6" height="18.31" rx="1.5" fill="#f6465d" /><line x1="297.42" y1="357.16" x2="297.42" y2="379.14" stroke="#0ecb81" stroke-width="1.4" /><rect x="294.42" y="366.99" width="6" height="2.00" rx="1.5" fill="#0ecb81" /><line x1="308.15" y1="339.24" x2="308.15" y2="367.57" stroke="#0ecb81" stroke-width="1.4" /><rect x="305.15" y="355.62" width="6" height="11.37" rx="1.5" fill="#0ecb81" /><line x1="318.89" y1="339.43" x2="318.89" y2="355.81" stroke="#0ecb81" stroke-width="1.4" /><rect x="315.89" y="352.34" width="6" height="2.89" rx="1.5" fill="#0ecb81" /><line x1="329.62" y1="340.20" x2="329.62" y2="374.51" stroke="#f6465d" stroke-width="1.4" /><rect x="326.62" y="352.54" width="6" height="8.10" rx="1.5" fill="#f6465d" /><line x1="340.35" y1="358.90" x2="340.35" y2="390.32" stroke="#f6465d" stroke-width="1.4" /><rect x="337.35" y="360.63" width="6" height="10.02" rx="1.5" fill="#f6465d" /><line x1="351.09" y1="369.31" x2="351.09" y2="414.03" stroke="#f6465d" stroke-width="1.4" /><rect x="348.09" y="370.46" width="6" height="36.24" rx="1.5" fill="#f6465d" /><line x1="361.82" y1="396.10" x2="361.82" y2="413.83" stroke="#f6465d" stroke-width="1.4" /><rect x="358.82" y="407.09" width="6" height="6.17" rx="1.5" fill="#f6465d" /><line x1="372.56" y1="370.46" x2="372.56" y2="413.83" stroke="#0ecb81" stroke-width="1.4" /><rect x="369.56" y="393.59" width="6" height="19.85" rx="1.5" fill="#0ecb81" /><line x1="383.29" y1="389.93" x2="383.29" y2="423.28" stroke="#f6465d" stroke-width="1.4" /><rect x="380.29" y="393.59" width="6" height="19.28" rx="1.5" fill="#f6465d" /><line x1="394.03" y1="388.39" x2="394.03" y2="420.97" stroke="#0ecb81" stroke-width="1.4" /><rect x="391.03" y="389.93" width="6" height="23.13" rx="1.5" fill="#0ecb81" /><line x1="404.76" y1="345.79" x2="404.76" y2="400.73" stroke="#0ecb81" stroke-width="1.4" /><rect x="401.76" y="350.61" width="6" height="39.52" rx="1.5" fill="#0ecb81" /><line x1="415.49" y1="335.96" x2="415.49" y2="370.46" stroke="#f6465d" stroke-width="1.4" /><rect x="412.49" y="350.42" width="6" height="2.00" rx="1.5" fill="#f6465d" /><line x1="426.23" y1="313.21" x2="426.23" y2="362.95" stroke="#0ecb81" stroke-width="1.4" /><rect x="423.23" y="348.49" width="6" height="3.47" rx="1.5" fill="#0ecb81" /><line x1="436.96" y1="259.63" x2="436.96" y2="349.45" stroke="#0ecb81" stroke-width="1.4" /><rect x="433.96" y="330.95" width="6" height="17.73" rx="1.5" fill="#0ecb81" /><line x1="447.70" y1="289.89" x2="447.70" y2="332.87" stroke="#0ecb81" stroke-width="1.4" /><rect x="444.70" y="291.82" width="6" height="38.94" rx="1.5" fill="#0ecb81" /><line x1="458.43" y1="228.78" x2="458.43" y2="291.82" stroke="#0ecb81" stroke-width="1.4" /><rect x="455.43" y="252.69" width="6" height="39.13" rx="1.5" fill="#0ecb81" /><line x1="469.16" y1="224.35" x2="469.16" y2="273.50" stroke="#0ecb81" stroke-width="1.4" /><rect x="466.16" y="245.17" width="6" height="7.52" rx="1.5" fill="#0ecb81" /><line x1="479.90" y1="211.82" x2="479.90" y2="246.52" stroke="#0ecb81" stroke-width="1.4" /><rect x="476.90" y="225.12" width="6" height="19.85" rx="1.5" fill="#0ecb81" /><line x1="490.63" y1="219.73" x2="490.63" y2="247.68" stroke="#f6465d" stroke-width="1.4" /><rect x="487.63" y="225.12" width="6" height="9.45" rx="1.5" fill="#f6465d" /><line x1="501.37" y1="223.19" x2="501.37" y2="248.06" stroke="#f6465d" stroke-width="1.4" /><rect x="498.37" y="234.57" width="6" height="11.95" rx="1.5" fill="#f6465d" /><line x1="512.10" y1="235.72" x2="512.10" y2="251.53" stroke="#0ecb81" stroke-width="1.4" /><rect x="509.10" y="238.42" width="6" height="7.90" rx="1.5" fill="#0ecb81" /><line x1="522.84" y1="215.87" x2="522.84" y2="248.25" stroke="#0ecb81" stroke-width="1.4" /><rect x="519.84" y="233.03" width="6" height="5.59" rx="1.5" fill="#0ecb81" /><line x1="533.57" y1="209.51" x2="533.57" y2="252.30" stroke="#0ecb81" stroke-width="1.4" /><rect x="530.57" y="229.56" width="6" height="3.47" rx="1.5" fill="#0ecb81" /><line x1="544.30" y1="164.79" x2="544.30" y2="229.94" stroke="#0ecb81" stroke-width="1.4" /><rect x="541.30" y="177.51" width="6" height="51.85" rx="1.5" fill="#0ecb81" /><line x1="555.04" y1="171.15" x2="555.04" y2="207.39" stroke="#f6465d" stroke-width="1.4" /><rect x="552.04" y="177.70" width="6" height="5.01" rx="1.5" fill="#f6465d" /><line x1="565.77" y1="174.23" x2="565.77" y2="208.74" stroke="#f6465d" stroke-width="1.4" /><rect x="562.77" y="182.72" width="6" height="19.47" rx="1.5" fill="#f6465d" /><line x1="576.51" y1="179.25" x2="576.51" y2="202.18" stroke="#0ecb81" stroke-width="1.4" /><rect x="573.51" y="189.46" width="6" height="12.72" rx="1.5" fill="#0ecb81" /><line x1="587.24" y1="170.19" x2="587.24" y2="207.00" stroke="#f6465d" stroke-width="1.4" /><rect x="584.24" y="189.65" width="6" height="17.16" rx="1.5" fill="#f6465d" /><line x1="597.97" y1="190.23" x2="597.97" y2="206.81" stroke="#0ecb81" stroke-width="1.4" /><rect x="594.97" y="197.75" width="6" height="9.06" rx="1.5" fill="#0ecb81" /><line x1="608.71" y1="194.86" x2="608.71" y2="207.58" stroke="#f6465d" stroke-width="1.4" /><rect x="605.71" y="197.94" width="6" height="2.00" rx="1.5" fill="#f6465d" /><line x1="619.44" y1="189.46" x2="619.44" y2="223.58" stroke="#f6465d" stroke-width="1.4" /><rect x="616.44" y="199.29" width="6" height="6.94" rx="1.5" fill="#f6465d" /><line x1="630.18" y1="182.72" x2="630.18" y2="221.07" stroke="#f6465d" stroke-width="1.4" /><rect x="627.18" y="206.04" width="6" height="6.17" rx="1.5" fill="#f6465d" /><line x1="640.91" y1="208.93" x2="640.91" y2="219.92" stroke="#f6465d" stroke-width="1.4" /><rect x="637.91" y="212.40" width="6" height="2.00" rx="1.5" fill="#f6465d" /><line x1="651.65" y1="187.53" x2="651.65" y2="214.33" stroke="#0ecb81" stroke-width="1.4" /><rect x="648.65" y="189.65" width="6" height="24.48" rx="1.5" fill="#0ecb81" /><line x1="662.38" y1="172.50" x2="662.38" y2="195.44" stroke="#0ecb81" stroke-width="1.4" /><rect x="659.38" y="183.10" width="6" height="6.55" rx="1.5" fill="#0ecb81" /><line x1="673.11" y1="163.82" x2="673.11" y2="194.67" stroke="#0ecb81" stroke-width="1.4" /><rect x="670.11" y="182.72" width="6" height="2.00" rx="1.5" fill="#0ecb81" /><line x1="683.85" y1="175.00" x2="683.85" y2="192.16" stroke="#0ecb81" stroke-width="1.4" /><rect x="680.85" y="182.72" width="6" height="2.00" rx="1.5" fill="#0ecb81" /><line x1="694.58" y1="150.33" x2="694.58" y2="185.61" stroke="#0ecb81" stroke-width="1.4" /><rect x="691.58" y="150.33" width="6" height="32.38" rx="1.5" fill="#0ecb81" /><line x1="705.32" y1="141.85" x2="705.32" y2="166.33" stroke="#0ecb81" stroke-width="1.4" /><rect x="702.32" y="149.37" width="6" height="2.00" rx="1.5" fill="#0ecb81" /><line x1="716.05" y1="141.08" x2="716.05" y2="156.31" stroke="#0ecb81" stroke-width="1.4" /><rect x="713.05" y="147.05" width="6" height="2.12" rx="1.5" fill="#0ecb81" /><line x1="726.78" y1="147.05" x2="726.78" y2="194.86" stroke="#f6465d" stroke-width="1.4" /><rect x="723.78" y="147.05" width="6" height="45.49" rx="1.5" fill="#f6465d" /><line x1="737.52" y1="182.72" x2="737.52" y2="206.62" stroke="#0ecb81" stroke-width="1.4" /><rect x="734.52" y="189.65" width="6" height="2.89" rx="1.5" fill="#0ecb81" /><line x1="748.25" y1="171.73" x2="748.25" y2="190.81" stroke="#0ecb81" stroke-width="1.4" /><rect x="745.25" y="174.43" width="6" height="15.42" rx="1.5" fill="#0ecb81" /><line x1="758.99" y1="174.04" x2="758.99" y2="191.39" stroke="#f6465d" stroke-width="1.4" /><rect x="755.99" y="174.43" width="6" height="7.52" rx="1.5" fill="#f6465d" /><line x1="769.72" y1="150.72" x2="769.72" y2="181.75" stroke="#0ecb81" stroke-width="1.4" /><rect x="766.72" y="155.15" width="6" height="26.60" rx="1.5" fill="#0ecb81" /><line x1="780.46" y1="145.51" x2="780.46" y2="157.85" stroke="#0ecb81" stroke-width="1.4" /><rect x="777.46" y="151.49" width="6" height="3.66" rx="1.5" fill="#0ecb81" /><line x1="791.19" y1="126.82" x2="791.19" y2="160.93" stroke="#0ecb81" stroke-width="1.4" /><rect x="788.19" y="147.05" width="6" height="4.43" rx="1.5" fill="#0ecb81" /><line x1="801.92" y1="134.33" x2="801.92" y2="147.05" stroke="#0ecb81" stroke-width="1.4" /><rect x="798.92" y="137.61" width="6" height="9.45" rx="1.5" fill="#0ecb81" /><line x1="812.66" y1="121.03" x2="812.66" y2="148.21" stroke="#0ecb81" stroke-width="1.4" /><rect x="809.66" y="122.96" width="6" height="14.65" rx="1.5" fill="#0ecb81" /><line x1="823.39" y1="105.42" x2="823.39" y2="140.31" stroke="#f6465d" stroke-width="1.4" /><rect x="820.39" y="122.96" width="6" height="5.40" rx="1.5" fill="#f6465d" /><line x1="834.13" y1="127.97" x2="834.13" y2="143.78" stroke="#f6465d" stroke-width="1.4" /><rect x="831.13" y="128.55" width="6" height="15.23" rx="1.5" fill="#f6465d" /><line x1="844.86" y1="122.57" x2="844.86" y2="146.86" stroke="#0ecb81" stroke-width="1.4" /><rect x="841.86" y="135.87" width="6" height="8.10" rx="1.5" fill="#0ecb81" /><line x1="855.59" y1="68.02" x2="855.59" y2="136.65" stroke="#0ecb81" stroke-width="1.4" /><rect x="852.59" y="113.71" width="6" height="22.36" rx="1.5" fill="#0ecb81" /><line x1="866.33" y1="103.11" x2="866.33" y2="150.91" stroke="#f6465d" stroke-width="1.4" /><rect x="863.33" y="113.71" width="6" height="24.67" rx="1.5" fill="#f6465d" /><line x1="877.06" y1="111.20" x2="877.06" y2="138.38" stroke="#0ecb81" stroke-width="1.4" /><rect x="874.06" y="116.60" width="6" height="21.78" rx="1.5" fill="#0ecb81" /><line x1="887.80" y1="68.41" x2="887.80" y2="116.60" stroke="#0ecb81" stroke-width="1.4" /><rect x="884.80" y="73.61" width="6" height="42.99" rx="1.5" fill="#0ecb81" /><line x1="898.53" y1="58.00" x2="898.53" y2="93.85" stroke="#f6465d" stroke-width="1.4" /><rect x="895.53" y="73.42" width="6" height="16.38" rx="1.5" fill="#f6465d" /><line x1="909.27" y1="68.60" x2="909.27" y2="91.35" stroke="#0ecb81" stroke-width="1.4" /><rect x="906.27" y="80.17" width="6" height="9.64" rx="1.5" fill="#0ecb81" /><line x1="920.00" y1="75.54" x2="920.00" y2="100.21" stroke="#f6465d" stroke-width="1.4" /><rect x="917.00" y="80.17" width="6" height="2.00" rx="1.5" fill="#f6465d" />
  <polyline points="544.30,164.79 619.44,223.58 716.05,141.08 737.52,206.62 855.59,68.02" fill="none" stroke="#2fc273" stroke-width="4" stroke-linecap="round" stroke-linejoin="round" />
  <circle cx="544.30" cy="164.79" r="5.5" fill="#2fc273" fill-opacity="0.15" stroke="#2fc273" stroke-width="2" /><text x="544.30" y="152.79" fill="#f3f4f6" font-size="15" font-weight="700" text-anchor="middle">X</text><circle cx="619.44" cy="223.58" r="5.5" fill="#2fc273" fill-opacity="0.15" stroke="#2fc273" stroke-width="2" /><text x="619.44" y="211.58" fill="#f3f4f6" font-size="15" font-weight="700" text-anchor="middle">A</text><circle cx="716.05" cy="141.08" r="5.5" fill="#2fc273" fill-opacity="0.15" stroke="#2fc273" stroke-width="2" /><text x="716.05" y="129.08" fill="#f3f4f6" font-size="15" font-weight="700" text-anchor="middle">B</text><circle cx="737.52" cy="206.62" r="5.5" fill="#2fc273" fill-opacity="0.15" stroke="#2fc273" stroke-width="2" /><text x="737.52" y="194.62" fill="#f3f4f6" font-size="15" font-weight="700" text-anchor="middle">C</text><circle cx="855.59" cy="68.02" r="5.5" fill="#2fc273" fill-opacity="0.15" stroke="#2fc273" stroke-width="2" /><text x="855.59" y="56.02" fill="#f3f4f6" font-size="15" font-weight="700" text-anchor="middle">D</text>
  <text x="56" y="492" fill="#8ba0b5" font-size="18">일반 완성 · TP1 437.193 · TP2 435.497 · SL 440.337</text>
</svg>
