<svg xmlns="http://www.w3.org/2000/svg" width="960" height="540" viewBox="0 0 960 540">
  <rect width="960" height="540" rx="24" fill="#0b1220" />
  <rect x="28" y="28" width="904" height="484" rx="22" fill="#111827" stroke="#1f2937" />
  <text x="56" y="74" fill="#f3f4f6" font-size="34" font-weight="700">BEATUSDT · AB=CD</text>
  <text x="904" y="74" fill="#8ba0b5" font-size="20" text-anchor="end">Bullish (매수) · Score 82.1</text>
  <line x1="72" y1="58" x2="920" y2="58" stroke="#223045" stroke-width="1" stroke-dasharray="4 8" /><line x1="72" y1="156" x2="920" y2="156" stroke="#223045" stroke-width="1" stroke-dasharray="4 8" /><line x1="72" y1="255" x2="920" y2="255" stroke="#223045" stroke-width="1" stroke-dasharray="4 8" /><line x1="72" y1="353" x2="920" y2="353" stroke="#223045" stroke-width="1" stroke-dasharray="4 8" /><line x1="72" y1="452" x2="920" y2="452" stroke="#223045" stroke-width="1" stroke-dasharray="4 8" />
  <rect x="838.33" y="349.69" width="84" height="56.07" fill="#fbbf24" fill-opacity="0.12" stroke="#fbbf24" stroke-width="1.5" stroke-dasharray="6 6" />
  <line x1="72.00" y1="111.95" x2="72.00" y2="154.33" stroke="#f6465d" stroke-width="1.4" /><rect x="69.00" y="129.29" width="6" height="24.08" rx="1.5" fill="#f6465d" /><line x1="82.73" y1="132.18" x2="82.73" y2="155.30" stroke="#0ecb81" stroke-width="1.4" /><rect x="79.73" y="147.59" width="6" height="4.82" rx="1.5" fill="#0ecb81" /><line x1="93.47" y1="131.21" x2="93.47" y2="150.48" stroke="#0ecb81" stroke-width="1.4" /><rect x="90.47" y="136.03" width="6" height="10.60" rx="1.5" fill="#0ecb81" /><line x1="104.20" y1="123.51" x2="104.20" y2="167.82" stroke="#f6465d" stroke-width="1.4" /><rect x="101.20" y="136.03" width="6" height="22.16" rx="1.5" fill="#f6465d" /><line x1="114.94" y1="158.19" x2="114.94" y2="197.68" stroke="#f6465d" stroke-width="1.4" /><rect x="111.94" y="158.19" width="6" height="28.90" rx="1.5" fill="#f6465d" /><line x1="125.67" y1="159.15" x2="125.67" y2="189.01" stroke="#0ecb81" stroke-width="1.4" /><rect x="122.67" y="169.75" width="6" height="15.41" rx="1.5" fill="#0ecb81" /><line x1="136.41" y1="163.97" x2="136.41" y2="215.99" stroke="#f6465d" stroke-width="1.4" /><rect x="133.41" y="168.78" width="6" height="35.64" rx="1.5" fill="#f6465d" /><line x1="147.14" y1="199.61" x2="147.14" y2="222.73" stroke="#f6465d" stroke-width="1.4" /><rect x="144.14" y="203.46" width="6" height="9.63" rx="1.5" fill="#f6465d" /><line x1="157.87" y1="204.43" x2="157.87" y2="240.07" stroke="#f6465d" stroke-width="1.4" /><rect x="154.87" y="213.10" width="6" height="16.38" rx="1.5" fill="#f6465d" /><line x1="168.61" y1="206.35" x2="168.61" y2="242.96" stroke="#0ecb81" stroke-width="1.4" /><rect x="165.61" y="217.91" width="6" height="12.52" rx="1.5" fill="#0ecb81" /><line x1="179.34" y1="208.28" x2="179.34" y2="247.78" stroke="#f6465d" stroke-width="1.4" /><rect x="176.34" y="218.88" width="6" height="26.01" rx="1.5" fill="#f6465d" /><line x1="190.08" y1="180.34" x2="190.08" y2="247.78" stroke="#0ecb81" stroke-width="1.4" /><rect x="187.08" y="191.90" width="6" height="52.98" rx="1.5" fill="#0ecb81" /><line x1="200.81" y1="173.60" x2="200.81" y2="214.06" stroke="#0ecb81" stroke-width="1.4" /><rect x="197.81" y="188.05" width="6" height="4.82" rx="1.5" fill="#0ecb81" /><line x1="211.54" y1="189.01" x2="211.54" y2="221.77" stroke="#f6465d" stroke-width="1.4" /><rect x="208.54" y="189.01" width="6" height="18.30" rx="1.5" fill="#f6465d" /><line x1="222.28" y1="195.76" x2="222.28" y2="214.06" stroke="#0ecb81" stroke-width="1.4" /><rect x="219.28" y="202.50" width="6" height="4.82" rx="1.5" fill="#0ecb81" /><line x1="233.01" y1="163.97" x2="233.01" y2="212.13" stroke="#0ecb81" stroke-width="1.4" /><rect x="230.01" y="174.56" width="6" height="27.94" rx="1.5" fill="#0ecb81" /><line x1="243.75" y1="168.78" x2="243.75" y2="212.13" stroke="#f6465d" stroke-width="1.4" /><rect x="240.75" y="174.56" width="6" height="27.94" rx="1.5" fill="#f6465d" /><line x1="254.48" y1="179.38" x2="254.48" y2="233.33" stroke="#f6465d" stroke-width="1.4" /><rect x="251.48" y="202.50" width="6" height="25.05" rx="1.5" fill="#f6465d" /><line x1="265.22" y1="209.24" x2="265.22" y2="237.18" stroke="#0ecb81" stroke-width="1.4" /><rect x="262.22" y="211.17" width="6" height="16.38" rx="1.5" fill="#0ecb81" /><line x1="275.95" y1="187.09" x2="275.95" y2="216.95" stroke="#0ecb81" stroke-width="1.4" /><rect x="272.95" y="205.39" width="6" height="6.74" rx="1.5" fill="#0ecb81" /><line x1="286.68" y1="192.87" x2="286.68" y2="232.36" stroke="#f6465d" stroke-width="1.4" /><rect x="283.68" y="205.39" width="6" height="19.27" rx="1.5" fill="#f6465d" /><line x1="297.42" y1="212.13" x2="297.42" y2="250.67" stroke="#0ecb81" stroke-width="1.4" /><rect x="294.42" y="219.84" width="6" height="5.78" rx="1.5" fill="#0ecb81" /><line x1="308.15" y1="173.60" x2="308.15" y2="229.47" stroke="#0ecb81" stroke-width="1.4" /><rect x="305.15" y="204.43" width="6" height="14.45" rx="1.5" fill="#0ecb81" /><line x1="318.89" y1="203.46" x2="318.89" y2="239.11" stroke="#f6465d" stroke-width="1.4" /><rect x="315.89" y="204.43" width="6" height="27.94" rx="1.5" fill="#f6465d" /><line x1="329.62" y1="231.40" x2="329.62" y2="259.33" stroke="#f6465d" stroke-width="1.4" /><rect x="326.62" y="233.33" width="6" height="24.08" rx="1.5" fill="#f6465d" /><line x1="340.35" y1="219.84" x2="340.35" y2="266.08" stroke="#0ecb81" stroke-width="1.4" /><rect x="337.35" y="227.55" width="6" height="29.86" rx="1.5" fill="#0ecb81" /><line x1="351.09" y1="212.13" x2="351.09" y2="252.59" stroke="#0ecb81" stroke-width="1.4" /><rect x="348.09" y="222.73" width="6" height="4.82" rx="1.5" fill="#0ecb81" /><line x1="361.82" y1="223.69" x2="361.82" y2="255.48" stroke="#f6465d" stroke-width="1.4" /><rect x="358.82" y="223.69" width="6" height="18.30" rx="1.5" fill="#f6465d" /><line x1="372.56" y1="242.96" x2="372.56" y2="263.19" stroke="#f6465d" stroke-width="1.4" /><rect x="369.56" y="242.96" width="6" height="17.34" rx="1.5" fill="#f6465d" /><line x1="383.29" y1="244.89" x2="383.29" y2="300.76" stroke="#f6465d" stroke-width="1.4" /><rect x="380.29" y="260.30" width="6" height="8.67" rx="1.5" fill="#f6465d" /><line x1="394.03" y1="267.04" x2="394.03" y2="287.27" stroke="#f6465d" stroke-width="1.4" /><rect x="391.03" y="268.00" width="6" height="2.89" rx="1.5" fill="#f6465d" /><line x1="404.76" y1="263.19" x2="404.76" y2="290.16" stroke="#0ecb81" stroke-width="1.4" /><rect x="401.76" y="268.97" width="6" height="2.00" rx="1.5" fill="#0ecb81" /><line x1="415.49" y1="258.37" x2="415.49" y2="281.49" stroke="#f6465d" stroke-width="1.4" /><rect x="412.49" y="268.97" width="6" height="6.74" rx="1.5" fill="#f6465d" /><line x1="426.23" y1="255.48" x2="426.23" y2="287.27" stroke="#f6465d" stroke-width="1.4" /><rect x="423.23" y="274.75" width="6" height="12.52" rx="1.5" fill="#f6465d" /><line x1="436.96" y1="275.71" x2="436.96" y2="345.07" stroke="#f6465d" stroke-width="1.4" /><rect x="433.96" y="286.31" width="6" height="10.60" rx="1.5" fill="#f6465d" /><line x1="447.70" y1="286.31" x2="447.70" y2="322.91" stroke="#0ecb81" stroke-width="1.4" /><rect x="444.70" y="295.94" width="6" height="2.00" rx="1.5" fill="#0ecb81" /><line x1="458.43" y1="291.12" x2="458.43" y2="326.77" stroke="#f6465d" stroke-width="1.4" /><rect x="455.43" y="294.98" width="6" height="18.30" rx="1.5" fill="#f6465d" /><line x1="469.16" y1="305.57" x2="469.16" y2="324.84" stroke="#f6465d" stroke-width="1.4" /><rect x="466.16" y="313.28" width="6" height="4.82" rx="1.5" fill="#f6465d" /><line x1="479.90" y1="281.49" x2="479.90" y2="323.88" stroke="#0ecb81" stroke-width="1.4" /><rect x="476.90" y="284.38" width="6" height="31.79" rx="1.5" fill="#0ecb81" /><line x1="490.63" y1="279.56" x2="490.63" y2="309.43" stroke="#f6465d" stroke-width="1.4" /><rect x="487.63" y="284.38" width="6" height="25.05" rx="1.5" fill="#f6465d" /><line x1="501.37" y1="294.98" x2="501.37" y2="320.99" stroke="#f6465d" stroke-width="1.4" /><rect x="498.37" y="309.43" width="6" height="4.82" rx="1.5" fill="#f6465d" /><line x1="512.10" y1="311.35" x2="512.10" y2="328.69" stroke="#f6465d" stroke-width="1.4" /><rect x="509.10" y="315.21" width="6" height="10.60" rx="1.5" fill="#f6465d" /><line x1="522.84" y1="312.32" x2="522.84" y2="328.69" stroke="#0ecb81" stroke-width="1.4" /><rect x="519.84" y="324.84" width="6" height="2.00" rx="1.5" fill="#0ecb81" /><line x1="533.57" y1="308.46" x2="533.57" y2="325.80" stroke="#0ecb81" stroke-width="1.4" /><rect x="530.57" y="321.95" width="6" height="2.89" rx="1.5" fill="#0ecb81" /><line x1="544.30" y1="319.06" x2="544.30" y2="345.07" stroke="#f6465d" stroke-width="1.4" /><rect x="541.30" y="320.99" width="6" height="13.49" rx="1.5" fill="#f6465d" /><line x1="555.04" y1="331.58" x2="555.04" y2="366.26" stroke="#f6465d" stroke-width="1.4" /><rect x="552.04" y="333.51" width="6" height="16.38" rx="1.5" fill="#f6465d" /><line x1="565.77" y1="288.23" x2="565.77" y2="405.76" stroke="#0ecb81" stroke-width="1.4" /><rect x="562.77" y="293.05" width="6" height="55.87" rx="1.5" fill="#0ecb81" /><line x1="576.51" y1="269.93" x2="576.51" y2="333.51" stroke="#f6465d" stroke-width="1.4" /><rect x="573.51" y="293.05" width="6" height="23.12" rx="1.5" fill="#f6465d" /><line x1="587.24" y1="315.21" x2="587.24" y2="380.71" stroke="#f6465d" stroke-width="1.4" /><rect x="584.24" y="315.21" width="6" height="54.91" rx="1.5" fill="#f6465d" /><line x1="597.97" y1="348.92" x2="597.97" y2="392.27" stroke="#f6465d" stroke-width="1.4" /><rect x="594.97" y="371.08" width="6" height="3.85" rx="1.5" fill="#f6465d" /><line x1="608.71" y1="353.74" x2="608.71" y2="394.20" stroke="#f6465d" stroke-width="1.4" /><rect x="605.71" y="373.97" width="6" height="3.85" rx="1.5" fill="#f6465d" /><line x1="619.44" y1="376.86" x2="619.44" y2="408.65" stroke="#f6465d" stroke-width="1.4" /><rect x="616.44" y="377.82" width="6" height="10.60" rx="1.5" fill="#f6465d" /><line x1="630.18" y1="381.68" x2="630.18" y2="452.00" stroke="#f6465d" stroke-width="1.4" /><rect x="627.18" y="389.38" width="6" height="44.31" rx="1.5" fill="#f6465d" /><line x1="640.91" y1="195.76" x2="640.91" y2="442.37" stroke="#0ecb81" stroke-width="1.4" /><rect x="637.91" y="230.44" width="6" height="203.26" rx="1.5" fill="#0ecb81" /><line x1="651.65" y1="230.44" x2="651.65" y2="292.09" stroke="#f6465d" stroke-width="1.4" /><rect x="648.65" y="230.44" width="6" height="46.24" rx="1.5" fill="#f6465d" /><line x1="662.38" y1="111.95" x2="662.38" y2="318.10" stroke="#0ecb81" stroke-width="1.4" /><rect x="659.38" y="121.58" width="6" height="154.13" rx="1.5" fill="#0ecb81" /><line x1="673.11" y1="58.00" x2="673.11" y2="190.94" stroke="#f6465d" stroke-width="1.4" /><rect x="670.11" y="121.58" width="6" height="42.39" rx="1.5" fill="#f6465d" /><line x1="683.85" y1="142.77" x2="683.85" y2="243.92" stroke="#f6465d" stroke-width="1.4" /><rect x="680.85" y="164.93" width="6" height="69.36" rx="1.5" fill="#f6465d" /><line x1="694.58" y1="209.24" x2="694.58" y2="244.89" stroke="#0ecb81" stroke-width="1.4" /><rect x="691.58" y="217.91" width="6" height="17.34" rx="1.5" fill="#0ecb81" /><line x1="705.32" y1="180.34" x2="705.32" y2="274.75" stroke="#f6465d" stroke-width="1.4" /><rect x="702.32" y="216.95" width="6" height="38.53" rx="1.5" fill="#f6465d" /><line x1="716.05" y1="188.05" x2="716.05" y2="268.97" stroke="#0ecb81" stroke-width="1.4" /><rect x="713.05" y="212.13" width="6" height="43.35" rx="1.5" fill="#0ecb81" /><line x1="726.78" y1="211.17" x2="726.78" y2="241.03" stroke="#f6465d" stroke-width="1.4" /><rect x="723.78" y="212.13" width="6" height="15.41" rx="1.5" fill="#f6465d" /><line x1="737.52" y1="187.09" x2="737.52" y2="251.63" stroke="#f6465d" stroke-width="1.4" /><rect x="734.52" y="226.58" width="6" height="4.82" rx="1.5" fill="#f6465d" /><line x1="748.25" y1="194.79" x2="748.25" y2="244.89" stroke="#0ecb81" stroke-width="1.4" /><rect x="745.25" y="196.72" width="6" height="35.64" rx="1.5" fill="#0ecb81" /><line x1="758.99" y1="191.90" x2="758.99" y2="247.78" stroke="#f6465d" stroke-width="1.4" /><rect x="755.99" y="195.76" width="6" height="40.46" rx="1.5" fill="#f6465d" /><line x1="769.72" y1="217.91" x2="769.72" y2="243.92" stroke="#0ecb81" stroke-width="1.4" /><rect x="766.72" y="226.58" width="6" height="8.67" rx="1.5" fill="#0ecb81" /><line x1="780.46" y1="189.01" x2="780.46" y2="235.25" stroke="#0ecb81" stroke-width="1.4" /><rect x="777.46" y="216.95" width="6" height="10.60" rx="1.5" fill="#0ecb81" /><line x1="791.19" y1="189.98" x2="791.19" y2="250.67" stroke="#f6465d" stroke-width="1.4" /><rect x="788.19" y="217.91" width="6" height="21.19" rx="1.5" fill="#f6465d" /><line x1="801.92" y1="235.25" x2="801.92" y2="286.31" stroke="#f6465d" stroke-width="1.4" /><rect x="798.92" y="239.11" width="6" height="22.16" rx="1.5" fill="#f6465d" /><line x1="812.66" y1="252.59" x2="812.66" y2="292.09" stroke="#f6465d" stroke-width="1.4" /><rect x="809.66" y="261.26" width="6" height="22.16" rx="1.5" fill="#f6465d" /><line x1="823.39" y1="278.60" x2="823.39" y2="303.65" stroke="#f6465d" stroke-width="1.4" /><rect x="820.39" y="281.49" width="6" height="15.41" rx="1.5" fill="#f6465d" /><line x1="834.13" y1="257.41" x2="834.13" y2="301.72" stroke="#f6465d" stroke-width="1.4" /><rect x="831.13" y="296.90" width="6" height="2.00" rx="1.5" fill="#f6465d" /><line x1="844.86" y1="278.60" x2="844.86" y2="316.17" stroke="#f6465d" stroke-width="1.4" /><rect x="841.86" y="297.87" width="6" height="3.85" rx="1.5" fill="#f6465d" /><line x1="855.59" y1="291.12" x2="855.59" y2="341.22" stroke="#f6465d" stroke-width="1.4" /><rect x="852.59" y="300.76" width="6" height="22.16" rx="1.5" fill="#f6465d" /><line x1="866.33" y1="308.46" x2="866.33" y2="375.90" stroke="#f6465d" stroke-width="1.4" /><rect x="863.33" y="322.91" width="6" height="22.16" rx="1.5" fill="#f6465d" /><line x1="877.06" y1="338.33" x2="877.06" y2="371.08" stroke="#f6465d" stroke-width="1.4" /><rect x="874.06" y="344.11" width="6" height="2.00" rx="1.5" fill="#f6465d" /><line x1="887.80" y1="292.09" x2="887.80" y2="347.96" stroke="#0ecb81" stroke-width="1.4" /><rect x="884.80" y="294.98" width="6" height="49.13" rx="1.5" fill="#0ecb81" /><line x1="898.53" y1="261.26" x2="898.53" y2="312.32" stroke="#0ecb81" stroke-width="1.4" /><rect x="895.53" y="294.98" width="6" height="2.00" rx="1.5" fill="#0ecb81" /><line x1="909.27" y1="252.59" x2="909.27" y2="307.50" stroke="#0ecb81" stroke-width="1.4" /><rect x="906.27" y="271.86" width="6" height="23.12" rx="1.5" fill="#0ecb81" /><line x1="920.00" y1="262.22" x2="920.00" y2="285.34" stroke="#f6465d" stroke-width="1.4" /><rect x="917.00" y="271.86" width="6" height="2.00" rx="1.5" fill="#f6465d" />
  <polyline points="630.18,452.00 673.11,58.00 705.32,274.75 780.46,189.01 866.33,375.90" fill="none" stroke="#2fc273" stroke-width="4" stroke-linecap="round" stroke-linejoin="round" />
  <circle cx="630.18" cy="452.00" r="5.5" fill="#2fc273" fill-opacity="0.15" stroke="#2fc273" stroke-width="2" /><text x="630.18" y="440.00" fill="#f3f4f6" font-size="15" font-weight="700" text-anchor="middle">X</text><circle cx="673.11" cy="58.00" r="5.5" fill="#2fc273" fill-opacity="0.15" stroke="#2fc273" stroke-width="2" /><text x="673.11" y="46.00" fill="#f3f4f6" font-size="15" font-weight="700" text-anchor="middle">A</text><circle cx="705.32" cy="274.75" r="5.5" fill="#2fc273" fill-opacity="0.15" stroke="#2fc273" stroke-width="2" /><text x="705.32" y="262.75" fill="#f3f4f6" font-size="15" font-weight="700" text-anchor="middle">B</text><circle cx="780.46" cy="189.01" r="5.5" fill="#2fc273" fill-opacity="0.15" stroke="#2fc273" stroke-width="2" /><text x="780.46" y="177.01" fill="#f3f4f6" font-size="15" font-weight="700" text-anchor="middle">C</text><circle cx="866.33" cy="375.90" r="5.5" fill="#2fc273" fill-opacity="0.15" stroke="#2fc273" stroke-width="2" /><text x="866.33" y="363.90" fill="#f3f4f6" font-size="15" font-weight="700" text-anchor="middle">D</text>
  <text x="56" y="492" fill="#8ba0b5" font-size="18">일반 완성 · TP1 0.32701 · TP2 0.33159 · SL 0.31428</text>
</svg>
