<svg xmlns="http://www.w3.org/2000/svg" width="960" height="540" viewBox="0 0 960 540">
  <rect width="960" height="540" rx="24" fill="#0b1220" />
  <rect x="28" y="28" width="904" height="484" rx="22" fill="#111827" stroke="#1f2937" />
  <text x="56" y="74" fill="#f3f4f6" font-size="34" font-weight="700">BEATUSDT · AB=CD</text>
  <text x="904" y="74" fill="#8ba0b5" font-size="20" text-anchor="end">Bullish (매수) · Score 86.3</text>
  <line x1="72" y1="58" x2="920" y2="58" stroke="#223045" stroke-width="1" stroke-dasharray="4 8" /><line x1="72" y1="156" x2="920" y2="156" stroke="#223045" stroke-width="1" stroke-dasharray="4 8" /><line x1="72" y1="255" x2="920" y2="255" stroke="#223045" stroke-width="1" stroke-dasharray="4 8" /><line x1="72" y1="353" x2="920" y2="353" stroke="#223045" stroke-width="1" stroke-dasharray="4 8" /><line x1="72" y1="452" x2="920" y2="452" stroke="#223045" stroke-width="1" stroke-dasharray="4 8" />
  <rect x="537.77" y="451.19" width="84" height="22.91" fill="#fbbf24" fill-opacity="0.12" stroke="#fbbf24" stroke-width="1.5" stroke-dasharray="6 6" />
  <line x1="72.00" y1="301.08" x2="72.00" y2="335.58" stroke="#f6465d" stroke-width="1.4" /><rect x="69.00" y="301.08" width="6" height="25.87" rx="1.5" fill="#f6465d" /><line x1="82.73" y1="234.79" x2="82.73" y2="350.13" stroke="#0ecb81" stroke-width="1.4" /><rect x="79.73" y="240.18" width="6" height="86.24" rx="1.5" fill="#0ecb81" /><line x1="93.47" y1="204.60" x2="93.47" y2="278.98" stroke="#f6465d" stroke-width="1.4" /><rect x="90.47" y="240.18" width="6" height="23.72" rx="1.5" fill="#f6465d" /><line x1="104.20" y1="252.04" x2="104.20" y2="308.63" stroke="#f6465d" stroke-width="1.4" /><rect x="101.20" y="264.43" width="6" height="38.81" rx="1.5" fill="#f6465d" /><line x1="114.94" y1="289.23" x2="114.94" y2="309.17" stroke="#0ecb81" stroke-width="1.4" /><rect x="111.94" y="294.08" width="6" height="9.70" rx="1.5" fill="#0ecb81" /><line x1="125.67" y1="273.06" x2="125.67" y2="325.88" stroke="#f6465d" stroke-width="1.4" /><rect x="122.67" y="293.54" width="6" height="21.56" rx="1.5" fill="#f6465d" /><line x1="136.41" y1="277.37" x2="136.41" y2="322.64" stroke="#0ecb81" stroke-width="1.4" /><rect x="133.41" y="290.84" width="6" height="24.25" rx="1.5" fill="#0ecb81" /><line x1="147.14" y1="290.30" x2="147.14" y2="307.01" stroke="#f6465d" stroke-width="1.4" /><rect x="144.14" y="290.84" width="6" height="8.62" rx="1.5" fill="#f6465d" /><line x1="157.87" y1="276.83" x2="157.87" y2="312.94" stroke="#f6465d" stroke-width="1.4" /><rect x="154.87" y="298.93" width="6" height="2.69" rx="1.5" fill="#f6465d" /><line x1="168.61" y1="281.14" x2="168.61" y2="309.17" stroke="#0ecb81" stroke-width="1.4" /><rect x="165.61" y="282.22" width="6" height="19.94" rx="1.5" fill="#0ecb81" /><line x1="179.34" y1="279.52" x2="179.34" y2="310.79" stroke="#f6465d" stroke-width="1.4" /><rect x="176.34" y="281.68" width="6" height="22.64" rx="1.5" fill="#f6465d" /><line x1="190.08" y1="294.08" x2="190.08" y2="308.63" stroke="#0ecb81" stroke-width="1.4" /><rect x="187.08" y="298.93" width="6" height="4.85" rx="1.5" fill="#0ecb81" /><line x1="200.81" y1="277.91" x2="200.81" y2="303.78" stroke="#0ecb81" stroke-width="1.4" /><rect x="197.81" y="293.54" width="6" height="5.93" rx="1.5" fill="#0ecb81" /><line x1="211.54" y1="278.45" x2="211.54" y2="312.40" stroke="#f6465d" stroke-width="1.4" /><rect x="208.54" y="294.08" width="6" height="11.86" rx="1.5" fill="#f6465d" /><line x1="222.28" y1="303.78" x2="222.28" y2="332.34" stroke="#f6465d" stroke-width="1.4" /><rect x="219.28" y="305.93" width="6" height="12.40" rx="1.5" fill="#f6465d" /><line x1="233.01" y1="313.48" x2="233.01" y2="335.58" stroke="#f6465d" stroke-width="1.4" /><rect x="230.01" y="318.33" width="6" height="12.40" rx="1.5" fill="#f6465d" /><line x1="243.75" y1="328.03" x2="243.75" y2="342.05" stroke="#f6465d" stroke-width="1.4" /><rect x="240.75" y="329.65" width="6" height="8.62" rx="1.5" fill="#f6465d" /><line x1="254.48" y1="316.18" x2="254.48" y2="340.97" stroke="#f6465d" stroke-width="1.4" /><rect x="251.48" y="338.27" width="6" height="2.00" rx="1.5" fill="#f6465d" /><line x1="265.22" y1="328.03" x2="265.22" y2="349.05" stroke="#f6465d" stroke-width="1.4" /><rect x="262.22" y="338.81" width="6" height="2.16" rx="1.5" fill="#f6465d" /><line x1="275.95" y1="335.04" x2="275.95" y2="363.07" stroke="#f6465d" stroke-width="1.4" /><rect x="272.95" y="340.43" width="6" height="12.40" rx="1.5" fill="#f6465d" /><line x1="286.68" y1="344.74" x2="286.68" y2="382.47" stroke="#f6465d" stroke-width="1.4" /><rect x="283.68" y="352.83" width="6" height="12.40" rx="1.5" fill="#f6465d" /><line x1="297.42" y1="361.45" x2="297.42" y2="379.78" stroke="#f6465d" stroke-width="1.4" /><rect x="294.42" y="364.68" width="6" height="2.00" rx="1.5" fill="#f6465d" /><line x1="308.15" y1="335.58" x2="308.15" y2="366.84" stroke="#0ecb81" stroke-width="1.4" /><rect x="305.15" y="337.20" width="6" height="27.49" rx="1.5" fill="#0ecb81" /><line x1="318.89" y1="318.33" x2="318.89" y2="346.90" stroke="#0ecb81" stroke-width="1.4" /><rect x="315.89" y="337.20" width="6" height="2.00" rx="1.5" fill="#0ecb81" /><line x1="329.62" y1="313.48" x2="329.62" y2="344.20" stroke="#0ecb81" stroke-width="1.4" /><rect x="326.62" y="324.26" width="6" height="12.94" rx="1.5" fill="#0ecb81" /><line x1="340.35" y1="318.87" x2="340.35" y2="343.66" stroke="#f6465d" stroke-width="1.4" /><rect x="337.35" y="324.26" width="6" height="4.85" rx="1.5" fill="#f6465d" /><line x1="351.09" y1="328.57" x2="351.09" y2="353.37" stroke="#f6465d" stroke-width="1.4" /><rect x="348.09" y="329.11" width="6" height="15.63" rx="1.5" fill="#f6465d" /><line x1="361.82" y1="319.95" x2="361.82" y2="345.82" stroke="#0ecb81" stroke-width="1.4" /><rect x="358.82" y="329.65" width="6" height="15.63" rx="1.5" fill="#0ecb81" /><line x1="372.56" y1="317.25" x2="372.56" y2="343.66" stroke="#f6465d" stroke-width="1.4" /><rect x="369.56" y="329.11" width="6" height="7.55" rx="1.5" fill="#f6465d" /><line x1="383.29" y1="322.10" x2="383.29" y2="343.12" stroke="#f6465d" stroke-width="1.4" /><rect x="380.29" y="336.12" width="6" height="2.16" rx="1.5" fill="#f6465d" /><line x1="394.03" y1="333.96" x2="394.03" y2="350.13" stroke="#f6465d" stroke-width="1.4" /><rect x="391.03" y="338.81" width="6" height="10.24" rx="1.5" fill="#f6465d" /><line x1="404.76" y1="348.51" x2="404.76" y2="367.92" stroke="#f6465d" stroke-width="1.4" /><rect x="401.76" y="348.51" width="6" height="5.93" rx="1.5" fill="#f6465d" /><line x1="415.49" y1="354.44" x2="415.49" y2="371.69" stroke="#f6465d" stroke-width="1.4" /><rect x="412.49" y="354.98" width="6" height="12.40" rx="1.5" fill="#f6465d" /><line x1="426.23" y1="359.83" x2="426.23" y2="383.55" stroke="#f6465d" stroke-width="1.4" /><rect x="423.23" y="366.30" width="6" height="13.47" rx="1.5" fill="#f6465d" /><line x1="436.96" y1="376.54" x2="436.96" y2="407.26" stroke="#f6465d" stroke-width="1.4" /><rect x="433.96" y="379.78" width="6" height="23.72" rx="1.5" fill="#f6465d" /><line x1="447.70" y1="377.62" x2="447.70" y2="414.81" stroke="#f6465d" stroke-width="1.4" /><rect x="444.70" y="403.49" width="6" height="3.77" rx="1.5" fill="#f6465d" /><line x1="458.43" y1="395.41" x2="458.43" y2="415.35" stroke="#f6465d" stroke-width="1.4" /><rect x="455.43" y="407.26" width="6" height="2.00" rx="1.5" fill="#f6465d" /><line x1="469.16" y1="402.41" x2="469.16" y2="415.35" stroke="#0ecb81" stroke-width="1.4" /><rect x="466.16" y="406.19" width="6" height="2.00" rx="1.5" fill="#0ecb81" /><line x1="479.90" y1="400.26" x2="479.90" y2="415.89" stroke="#0ecb81" stroke-width="1.4" /><rect x="476.90" y="406.19" width="6" height="2.00" rx="1.5" fill="#0ecb81" /><line x1="490.63" y1="375.46" x2="490.63" y2="408.34" stroke="#0ecb81" stroke-width="1.4" /><rect x="487.63" y="399.72" width="6" height="6.47" rx="1.5" fill="#0ecb81" /><line x1="501.37" y1="393.25" x2="501.37" y2="405.65" stroke="#f6465d" stroke-width="1.4" /><rect x="498.37" y="400.26" width="6" height="5.39" rx="1.5" fill="#f6465d" /><line x1="512.10" y1="401.34" x2="512.10" y2="415.89" stroke="#f6465d" stroke-width="1.4" /><rect x="509.10" y="405.11" width="6" height="9.70" rx="1.5" fill="#f6465d" /><line x1="522.84" y1="410.50" x2="522.84" y2="419.12" stroke="#f6465d" stroke-width="1.4" /><rect x="519.84" y="414.81" width="6" height="2.00" rx="1.5" fill="#f6465d" /><line x1="533.57" y1="412.11" x2="533.57" y2="420.20" stroke="#f6465d" stroke-width="1.4" /><rect x="530.57" y="414.81" width="6" height="2.00" rx="1.5" fill="#f6465d" /><line x1="544.30" y1="402.41" x2="544.30" y2="419.66" stroke="#f6465d" stroke-width="1.4" /><rect x="541.30" y="415.35" width="6" height="2.69" rx="1.5" fill="#f6465d" /><line x1="555.04" y1="401.34" x2="555.04" y2="418.58" stroke="#0ecb81" stroke-width="1.4" /><rect x="552.04" y="415.89" width="6" height="2.16" rx="1.5" fill="#0ecb81" /><line x1="565.77" y1="370.61" x2="565.77" y2="452.00" stroke="#0ecb81" stroke-width="1.4" /><rect x="562.77" y="401.34" width="6" height="14.55" rx="1.5" fill="#0ecb81" /><line x1="576.51" y1="364.15" x2="576.51" y2="406.73" stroke="#0ecb81" stroke-width="1.4" /><rect x="573.51" y="366.84" width="6" height="35.03" rx="1.5" fill="#0ecb81" /><line x1="587.24" y1="343.66" x2="587.24" y2="377.08" stroke="#0ecb81" stroke-width="1.4" /><rect x="584.24" y="349.59" width="6" height="16.71" rx="1.5" fill="#0ecb81" /><line x1="597.97" y1="304.32" x2="597.97" y2="359.29" stroke="#0ecb81" stroke-width="1.4" /><rect x="594.97" y="313.48" width="6" height="36.65" rx="1.5" fill="#0ecb81" /><line x1="608.71" y1="248.80" x2="608.71" y2="316.18" stroke="#0ecb81" stroke-width="1.4" /><rect x="605.71" y="265.51" width="6" height="47.97" rx="1.5" fill="#0ecb81" /><line x1="619.44" y1="191.67" x2="619.44" y2="296.23" stroke="#0ecb81" stroke-width="1.4" /><rect x="616.44" y="195.44" width="6" height="70.61" rx="1.5" fill="#0ecb81" /><line x1="630.18" y1="193.82" x2="630.18" y2="287.07" stroke="#f6465d" stroke-width="1.4" /><rect x="627.18" y="195.44" width="6" height="12.94" rx="1.5" fill="#f6465d" /><line x1="640.91" y1="176.04" x2="640.91" y2="238.02" stroke="#f6465d" stroke-width="1.4" /><rect x="637.91" y="207.84" width="6" height="8.62" rx="1.5" fill="#f6465d" /><line x1="651.65" y1="160.41" x2="651.65" y2="222.93" stroke="#0ecb81" stroke-width="1.4" /><rect x="648.65" y="174.96" width="6" height="42.04" rx="1.5" fill="#0ecb81" /><line x1="662.38" y1="139.39" x2="662.38" y2="215.38" stroke="#0ecb81" stroke-width="1.4" /><rect x="659.38" y="148.55" width="6" height="25.87" rx="1.5" fill="#0ecb81" /><line x1="673.11" y1="132.92" x2="673.11" y2="213.23" stroke="#f6465d" stroke-width="1.4" /><rect x="670.11" y="149.09" width="6" height="61.98" rx="1.5" fill="#f6465d" /><line x1="683.85" y1="193.82" x2="683.85" y2="247.18" stroke="#f6465d" stroke-width="1.4" /><rect x="680.85" y="210.53" width="6" height="17.79" rx="1.5" fill="#f6465d" /><line x1="694.58" y1="206.22" x2="694.58" y2="266.05" stroke="#f6465d" stroke-width="1.4" /><rect x="691.58" y="228.32" width="6" height="36.65" rx="1.5" fill="#f6465d" /><line x1="705.32" y1="219.16" x2="705.32" y2="268.74" stroke="#f6465d" stroke-width="1.4" /><rect x="702.32" y="264.97" width="6" height="2.16" rx="1.5" fill="#f6465d" /><line x1="716.05" y1="228.86" x2="716.05" y2="274.13" stroke="#0ecb81" stroke-width="1.4" /><rect x="713.05" y="263.89" width="6" height="2.69" rx="1.5" fill="#0ecb81" /><line x1="726.78" y1="238.02" x2="726.78" y2="280.06" stroke="#f6465d" stroke-width="1.4" /><rect x="723.78" y="263.35" width="6" height="12.40" rx="1.5" fill="#f6465d" /><line x1="737.52" y1="263.89" x2="737.52" y2="287.07" stroke="#0ecb81" stroke-width="1.4" /><rect x="734.52" y="264.97" width="6" height="9.70" rx="1.5" fill="#0ecb81" /><line x1="748.25" y1="247.72" x2="748.25" y2="270.90" stroke="#0ecb81" stroke-width="1.4" /><rect x="745.25" y="250.96" width="6" height="12.94" rx="1.5" fill="#0ecb81" /><line x1="758.99" y1="210.53" x2="758.99" y2="263.35" stroke="#0ecb81" stroke-width="1.4" /><rect x="755.99" y="239.10" width="6" height="12.40" rx="1.5" fill="#0ecb81" /><line x1="769.72" y1="195.98" x2="769.72" y2="243.41" stroke="#0ecb81" stroke-width="1.4" /><rect x="766.72" y="206.22" width="6" height="32.88" rx="1.5" fill="#0ecb81" /><line x1="780.46" y1="159.87" x2="780.46" y2="215.38" stroke="#0ecb81" stroke-width="1.4" /><rect x="777.46" y="192.21" width="6" height="14.01" rx="1.5" fill="#0ecb81" /><line x1="791.19" y1="166.88" x2="791.19" y2="200.29" stroke="#0ecb81" stroke-width="1.4" /><rect x="788.19" y="184.66" width="6" height="8.08" rx="1.5" fill="#0ecb81" /><line x1="801.92" y1="176.58" x2="801.92" y2="198.68" stroke="#f6465d" stroke-width="1.4" /><rect x="798.92" y="184.66" width="6" height="9.70" rx="1.5" fill="#f6465d" /><line x1="812.66" y1="190.59" x2="812.66" y2="231.55" stroke="#f6465d" stroke-width="1.4" /><rect x="809.66" y="194.90" width="6" height="24.79" rx="1.5" fill="#f6465d" /><line x1="823.39" y1="204.60" x2="823.39" y2="252.04" stroke="#f6465d" stroke-width="1.4" /><rect x="820.39" y="219.70" width="6" height="22.64" rx="1.5" fill="#f6465d" /><line x1="834.13" y1="199.21" x2="834.13" y2="247.72" stroke="#0ecb81" stroke-width="1.4" /><rect x="831.13" y="211.61" width="6" height="30.72" rx="1.5" fill="#0ecb81" /><line x1="844.86" y1="150.71" x2="844.86" y2="216.46" stroke="#0ecb81" stroke-width="1.4" /><rect x="841.86" y="189.51" width="6" height="22.10" rx="1.5" fill="#0ecb81" /><line x1="855.59" y1="124.30" x2="855.59" y2="194.90" stroke="#0ecb81" stroke-width="1.4" /><rect x="852.59" y="151.78" width="6" height="37.73" rx="1.5" fill="#0ecb81" /><line x1="866.33" y1="88.72" x2="866.33" y2="156.63" stroke="#0ecb81" stroke-width="1.4" /><rect x="863.33" y="106.51" width="6" height="45.27" rx="1.5" fill="#0ecb81" /><line x1="877.06" y1="58.00" x2="877.06" y2="131.84" stroke="#0ecb81" stroke-width="1.4" /><rect x="874.06" y="94.65" width="6" height="11.86" rx="1.5" fill="#0ecb81" /><line x1="887.80" y1="76.33" x2="887.80" y2="151.24" stroke="#f6465d" stroke-width="1.4" /><rect x="884.80" y="94.65" width="6" height="52.28" rx="1.5" fill="#f6465d" /><line x1="898.53" y1="131.30" x2="898.53" y2="169.03" stroke="#f6465d" stroke-width="1.4" /><rect x="895.53" y="146.93" width="6" height="15.63" rx="1.5" fill="#f6465d" /><line x1="909.27" y1="149.63" x2="909.27" y2="179.27" stroke="#f6465d" stroke-width="1.4" /><rect x="906.27" y="162.56" width="6" height="5.39" rx="1.5" fill="#f6465d" /><line x1="920.00" y1="144.78" x2="920.00" y2="168.49" stroke="#0ecb81" stroke-width="1.4" /><rect x="917.00" y="145.85" width="6" height="22.64" rx="1.5" fill="#0ecb81" />
  <polyline points="351.09,353.37 372.56,317.25 479.90,415.89 490.63,375.46 565.77,452.00" fill="none" stroke="#2fc273" stroke-width="4" stroke-linecap="round" stroke-linejoin="round" />
  <circle cx="351.09" cy="353.37" r="5.5" fill="#2fc273" fill-opacity="0.15" stroke="#2fc273" stroke-width="2" /><text x="351.09" y="341.37" fill="#f3f4f6" font-size="15" font-weight="700" text-anchor="middle">X</text><circle cx="372.56" cy="317.25" r="5.5" fill="#2fc273" fill-opacity="0.15" stroke="#2fc273" stroke-width="2" /><text x="372.56" y="305.25" fill="#f3f4f6" font-size="15" font-weight="700" text-anchor="middle">A</text><circle cx="479.90" cy="415.89" r="5.5" fill="#2fc273" fill-opacity="0.15" stroke="#2fc273" stroke-width="2" /><text x="479.90" y="403.89" fill="#f3f4f6" font-size="15" font-weight="700" text-anchor="middle">B</text><circle cx="490.63" cy="375.46" r="5.5" fill="#2fc273" fill-opacity="0.15" stroke="#2fc273" stroke-width="2" /><text x="490.63" y="363.46" fill="#f3f4f6" font-size="15" font-weight="700" text-anchor="middle">C</text><circle cx="565.77" cy="452.00" r="5.5" fill="#2fc273" fill-opacity="0.15" stroke="#2fc273" stroke-width="2" /><text x="565.77" y="440.00" fill="#f3f4f6" font-size="15" font-weight="700" text-anchor="middle">D</text>
  <text x="56" y="492" fill="#8ba0b5" font-size="18">일반 완성 · TP1 0.31212 · TP2 0.31548 · SL 0.30583</text>
</svg>
