<svg xmlns="http://www.w3.org/2000/svg" width="960" height="540" viewBox="0 0 960 540">
  <rect width="960" height="540" rx="24" fill="#0b1220" />
  <rect x="28" y="28" width="904" height="484" rx="22" fill="#111827" stroke="#1f2937" />
  <text x="56" y="74" fill="#f3f4f6" font-size="34" font-weight="700">BERAUSDT · AB=CD</text>
  <text x="904" y="74" fill="#8ba0b5" font-size="20" text-anchor="end">Bullish (매수) · Score 81.6</text>
  <line x1="72" y1="58" x2="920" y2="58" stroke="#223045" stroke-width="1" stroke-dasharray="4 8" /><line x1="72" y1="156" x2="920" y2="156" stroke="#223045" stroke-width="1" stroke-dasharray="4 8" /><line x1="72" y1="255" x2="920" y2="255" stroke="#223045" stroke-width="1" stroke-dasharray="4 8" /><line x1="72" y1="353" x2="920" y2="353" stroke="#223045" stroke-width="1" stroke-dasharray="4 8" /><line x1="72" y1="452" x2="920" y2="452" stroke="#223045" stroke-width="1" stroke-dasharray="4 8" />
  <rect x="473.37" y="485.98" width="84" height="28.41" fill="#fbbf24" fill-opacity="0.12" stroke="#fbbf24" stroke-width="1.5" stroke-dasharray="6 6" />
  <line x1="72.00" y1="94.62" x2="72.00" y2="181.03" stroke="#f6465d" stroke-width="1.4" /><rect x="69.00" y="96.08" width="6" height="64.45" rx="1.5" fill="#f6465d" /><line x1="82.73" y1="157.60" x2="82.73" y2="226.44" stroke="#f6465d" stroke-width="1.4" /><rect x="79.73" y="161.99" width="6" height="43.94" rx="1.5" fill="#f6465d" /><line x1="93.47" y1="204.47" x2="93.47" y2="296.74" stroke="#f6465d" stroke-width="1.4" /><rect x="90.47" y="207.40" width="6" height="57.12" rx="1.5" fill="#f6465d" /><line x1="104.20" y1="263.06" x2="104.20" y2="369.98" stroke="#f6465d" stroke-width="1.4" /><rect x="101.20" y="267.45" width="6" height="90.81" rx="1.5" fill="#f6465d" /><line x1="114.94" y1="324.57" x2="114.94" y2="378.77" stroke="#0ecb81" stroke-width="1.4" /><rect x="111.94" y="334.83" width="6" height="23.43" rx="1.5" fill="#0ecb81" /><line x1="125.67" y1="320.18" x2="125.67" y2="386.09" stroke="#f6465d" stroke-width="1.4" /><rect x="122.67" y="333.36" width="6" height="19.04" rx="1.5" fill="#f6465d" /><line x1="136.41" y1="352.40" x2="136.41" y2="400.74" stroke="#f6465d" stroke-width="1.4" /><rect x="133.41" y="353.87" width="6" height="16.11" rx="1.5" fill="#f6465d" /><line x1="147.14" y1="298.21" x2="147.14" y2="374.37" stroke="#0ecb81" stroke-width="1.4" /><rect x="144.14" y="305.53" width="6" height="65.91" rx="1.5" fill="#0ecb81" /><line x1="157.87" y1="268.91" x2="157.87" y2="321.64" stroke="#0ecb81" stroke-width="1.4" /><rect x="154.87" y="292.35" width="6" height="13.18" rx="1.5" fill="#0ecb81" /><line x1="168.61" y1="273.31" x2="168.61" y2="299.67" stroke="#0ecb81" stroke-width="1.4" /><rect x="165.61" y="285.03" width="6" height="5.86" rx="1.5" fill="#0ecb81" /><line x1="179.34" y1="255.73" x2="179.34" y2="320.18" stroke="#f6465d" stroke-width="1.4" /><rect x="176.34" y="287.96" width="6" height="4.39" rx="1.5" fill="#f6465d" /><line x1="190.08" y1="246.94" x2="190.08" y2="296.74" stroke="#0ecb81" stroke-width="1.4" /><rect x="187.08" y="252.80" width="6" height="41.01" rx="1.5" fill="#0ecb81" /><line x1="200.81" y1="248.41" x2="200.81" y2="289.42" stroke="#f6465d" stroke-width="1.4" /><rect x="197.81" y="251.34" width="6" height="19.04" rx="1.5" fill="#f6465d" /><line x1="211.54" y1="263.06" x2="211.54" y2="296.74" stroke="#0ecb81" stroke-width="1.4" /><rect x="208.54" y="264.52" width="6" height="5.86" rx="1.5" fill="#0ecb81" /><line x1="222.28" y1="227.90" x2="222.28" y2="267.45" stroke="#0ecb81" stroke-width="1.4" /><rect x="219.28" y="230.83" width="6" height="33.69" rx="1.5" fill="#0ecb81" /><line x1="233.01" y1="230.83" x2="233.01" y2="279.17" stroke="#f6465d" stroke-width="1.4" /><rect x="230.01" y="230.83" width="6" height="32.22" rx="1.5" fill="#f6465d" /><line x1="243.75" y1="232.30" x2="243.75" y2="277.70" stroke="#0ecb81" stroke-width="1.4" /><rect x="240.75" y="252.80" width="6" height="11.72" rx="1.5" fill="#0ecb81" /><line x1="254.48" y1="236.69" x2="254.48" y2="276.24" stroke="#f6465d" stroke-width="1.4" /><rect x="251.48" y="252.80" width="6" height="21.97" rx="1.5" fill="#f6465d" /><line x1="265.22" y1="265.99" x2="265.22" y2="287.96" stroke="#f6465d" stroke-width="1.4" /><rect x="262.22" y="273.31" width="6" height="13.18" rx="1.5" fill="#f6465d" /><line x1="275.95" y1="264.52" x2="275.95" y2="314.32" stroke="#0ecb81" stroke-width="1.4" /><rect x="272.95" y="268.91" width="6" height="14.65" rx="1.5" fill="#0ecb81" /><line x1="286.68" y1="264.52" x2="286.68" y2="290.88" stroke="#f6465d" stroke-width="1.4" /><rect x="283.68" y="268.91" width="6" height="13.18" rx="1.5" fill="#f6465d" /><line x1="297.42" y1="273.31" x2="297.42" y2="295.28" stroke="#0ecb81" stroke-width="1.4" /><rect x="294.42" y="279.17" width="6" height="2.93" rx="1.5" fill="#0ecb81" /><line x1="308.15" y1="273.31" x2="308.15" y2="305.53" stroke="#f6465d" stroke-width="1.4" /><rect x="305.15" y="277.70" width="6" height="17.58" rx="1.5" fill="#f6465d" /><line x1="318.89" y1="282.10" x2="318.89" y2="308.46" stroke="#0ecb81" stroke-width="1.4" /><rect x="315.89" y="287.96" width="6" height="7.32" rx="1.5" fill="#0ecb81" /><line x1="329.62" y1="277.70" x2="329.62" y2="304.07" stroke="#f6465d" stroke-width="1.4" /><rect x="326.62" y="287.96" width="6" height="2.00" rx="1.5" fill="#f6465d" /><line x1="340.35" y1="273.31" x2="340.35" y2="301.14" stroke="#f6465d" stroke-width="1.4" /><rect x="337.35" y="289.42" width="6" height="4.39" rx="1.5" fill="#f6465d" /><line x1="351.09" y1="283.56" x2="351.09" y2="317.25" stroke="#f6465d" stroke-width="1.4" /><rect x="348.09" y="293.81" width="6" height="2.00" rx="1.5" fill="#f6465d" /><line x1="361.82" y1="289.42" x2="361.82" y2="430.03" stroke="#f6465d" stroke-width="1.4" /><rect x="358.82" y="295.28" width="6" height="112.78" rx="1.5" fill="#f6465d" /><line x1="372.56" y1="381.70" x2="372.56" y2="450.54" stroke="#0ecb81" stroke-width="1.4" /><rect x="369.56" y="383.16" width="6" height="23.43" rx="1.5" fill="#0ecb81" /><line x1="383.29" y1="369.98" x2="383.29" y2="452.00" stroke="#f6465d" stroke-width="1.4" /><rect x="380.29" y="383.16" width="6" height="36.62" rx="1.5" fill="#f6465d" /><line x1="394.03" y1="390.48" x2="394.03" y2="438.82" stroke="#0ecb81" stroke-width="1.4" /><rect x="391.03" y="402.20" width="6" height="17.58" rx="1.5" fill="#0ecb81" /><line x1="404.76" y1="299.67" x2="404.76" y2="409.52" stroke="#0ecb81" stroke-width="1.4" /><rect x="401.76" y="302.60" width="6" height="99.60" rx="1.5" fill="#0ecb81" /><line x1="415.49" y1="248.41" x2="415.49" y2="309.93" stroke="#f6465d" stroke-width="1.4" /><rect x="412.49" y="302.60" width="6" height="7.32" rx="1.5" fill="#f6465d" /><line x1="426.23" y1="299.67" x2="426.23" y2="374.37" stroke="#f6465d" stroke-width="1.4" /><rect x="423.23" y="308.46" width="6" height="62.98" rx="1.5" fill="#f6465d" /><line x1="436.96" y1="346.54" x2="436.96" y2="390.48" stroke="#f6465d" stroke-width="1.4" /><rect x="433.96" y="369.98" width="6" height="2.00" rx="1.5" fill="#f6465d" /><line x1="447.70" y1="356.80" x2="447.70" y2="412.45" stroke="#f6465d" stroke-width="1.4" /><rect x="444.70" y="372.91" width="6" height="35.15" rx="1.5" fill="#f6465d" /><line x1="458.43" y1="369.98" x2="458.43" y2="419.78" stroke="#0ecb81" stroke-width="1.4" /><rect x="455.43" y="387.55" width="6" height="20.51" rx="1.5" fill="#0ecb81" /><line x1="469.16" y1="342.15" x2="469.16" y2="389.02" stroke="#0ecb81" stroke-width="1.4" /><rect x="466.16" y="350.94" width="6" height="35.15" rx="1.5" fill="#0ecb81" /><line x1="479.90" y1="336.29" x2="479.90" y2="400.74" stroke="#f6465d" stroke-width="1.4" /><rect x="476.90" y="349.47" width="6" height="26.36" rx="1.5" fill="#f6465d" /><line x1="490.63" y1="353.87" x2="490.63" y2="397.81" stroke="#f6465d" stroke-width="1.4" /><rect x="487.63" y="377.30" width="6" height="19.04" rx="1.5" fill="#f6465d" /><line x1="501.37" y1="371.44" x2="501.37" y2="413.92" stroke="#0ecb81" stroke-width="1.4" /><rect x="498.37" y="380.23" width="6" height="14.65" rx="1.5" fill="#0ecb81" /><line x1="512.10" y1="337.75" x2="512.10" y2="380.23" stroke="#0ecb81" stroke-width="1.4" /><rect x="509.10" y="356.80" width="6" height="20.51" rx="1.5" fill="#0ecb81" /><line x1="522.84" y1="342.15" x2="522.84" y2="369.98" stroke="#0ecb81" stroke-width="1.4" /><rect x="519.84" y="343.61" width="6" height="13.18" rx="1.5" fill="#0ecb81" /><line x1="533.57" y1="334.83" x2="533.57" y2="371.44" stroke="#f6465d" stroke-width="1.4" /><rect x="530.57" y="345.08" width="6" height="2.00" rx="1.5" fill="#f6465d" /><line x1="544.30" y1="330.43" x2="544.30" y2="361.19" stroke="#0ecb81" stroke-width="1.4" /><rect x="541.30" y="334.83" width="6" height="11.72" rx="1.5" fill="#0ecb81" /><line x1="555.04" y1="328.97" x2="555.04" y2="380.23" stroke="#f6465d" stroke-width="1.4" /><rect x="552.04" y="336.29" width="6" height="13.18" rx="1.5" fill="#f6465d" /><line x1="565.77" y1="285.03" x2="565.77" y2="374.37" stroke="#0ecb81" stroke-width="1.4" /><rect x="562.77" y="314.32" width="6" height="33.69" rx="1.5" fill="#0ecb81" /><line x1="576.51" y1="263.06" x2="576.51" y2="320.18" stroke="#0ecb81" stroke-width="1.4" /><rect x="573.51" y="263.06" width="6" height="51.26" rx="1.5" fill="#0ecb81" /><line x1="587.24" y1="264.52" x2="587.24" y2="293.81" stroke="#f6465d" stroke-width="1.4" /><rect x="584.24" y="264.52" width="6" height="27.83" rx="1.5" fill="#f6465d" /><line x1="597.97" y1="279.17" x2="597.97" y2="305.53" stroke="#0ecb81" stroke-width="1.4" /><rect x="594.97" y="289.42" width="6" height="2.93" rx="1.5" fill="#0ecb81" /><line x1="608.71" y1="287.96" x2="608.71" y2="362.65" stroke="#f6465d" stroke-width="1.4" /><rect x="605.71" y="290.88" width="6" height="55.66" rx="1.5" fill="#f6465d" /><line x1="619.44" y1="328.97" x2="619.44" y2="377.30" stroke="#f6465d" stroke-width="1.4" /><rect x="616.44" y="345.08" width="6" height="20.51" rx="1.5" fill="#f6465d" /><line x1="630.18" y1="350.94" x2="630.18" y2="397.81" stroke="#0ecb81" stroke-width="1.4" /><rect x="627.18" y="352.40" width="6" height="11.72" rx="1.5" fill="#0ecb81" /><line x1="640.91" y1="334.83" x2="640.91" y2="368.51" stroke="#f6465d" stroke-width="1.4" /><rect x="637.91" y="350.94" width="6" height="14.65" rx="1.5" fill="#f6465d" /><line x1="651.65" y1="362.65" x2="651.65" y2="397.81" stroke="#f6465d" stroke-width="1.4" /><rect x="648.65" y="367.05" width="6" height="30.76" rx="1.5" fill="#f6465d" /><line x1="662.38" y1="387.55" x2="662.38" y2="421.24" stroke="#0ecb81" stroke-width="1.4" /><rect x="659.38" y="396.34" width="6" height="2.00" rx="1.5" fill="#0ecb81" /><line x1="673.11" y1="375.84" x2="673.11" y2="400.74" stroke="#0ecb81" stroke-width="1.4" /><rect x="670.11" y="389.02" width="6" height="5.86" rx="1.5" fill="#0ecb81" /><line x1="683.85" y1="377.30" x2="683.85" y2="418.31" stroke="#f6465d" stroke-width="1.4" /><rect x="680.85" y="390.48" width="6" height="24.90" rx="1.5" fill="#f6465d" /><line x1="694.58" y1="384.62" x2="694.58" y2="418.31" stroke="#0ecb81" stroke-width="1.4" /><rect x="691.58" y="391.95" width="6" height="21.97" rx="1.5" fill="#0ecb81" /><line x1="705.32" y1="384.62" x2="705.32" y2="431.49" stroke="#0ecb81" stroke-width="1.4" /><rect x="702.32" y="384.62" width="6" height="7.32" rx="1.5" fill="#0ecb81" /><line x1="716.05" y1="367.05" x2="716.05" y2="400.74" stroke="#f6465d" stroke-width="1.4" /><rect x="713.05" y="383.16" width="6" height="13.18" rx="1.5" fill="#f6465d" /><line x1="726.78" y1="365.58" x2="726.78" y2="406.59" stroke="#0ecb81" stroke-width="1.4" /><rect x="723.78" y="368.51" width="6" height="24.90" rx="1.5" fill="#0ecb81" /><line x1="737.52" y1="343.61" x2="737.52" y2="369.98" stroke="#0ecb81" stroke-width="1.4" /><rect x="734.52" y="350.94" width="6" height="16.11" rx="1.5" fill="#0ecb81" /><line x1="748.25" y1="336.29" x2="748.25" y2="364.12" stroke="#0ecb81" stroke-width="1.4" /><rect x="745.25" y="340.68" width="6" height="11.72" rx="1.5" fill="#0ecb81" /><line x1="758.99" y1="309.93" x2="758.99" y2="349.47" stroke="#0ecb81" stroke-width="1.4" /><rect x="755.99" y="314.32" width="6" height="27.83" rx="1.5" fill="#0ecb81" /><line x1="769.72" y1="308.46" x2="769.72" y2="356.80" stroke="#f6465d" stroke-width="1.4" /><rect x="766.72" y="312.86" width="6" height="14.65" rx="1.5" fill="#f6465d" /><line x1="780.46" y1="295.28" x2="780.46" y2="327.50" stroke="#0ecb81" stroke-width="1.4" /><rect x="777.46" y="299.67" width="6" height="26.36" rx="1.5" fill="#0ecb81" /><line x1="791.19" y1="274.77" x2="791.19" y2="312.86" stroke="#0ecb81" stroke-width="1.4" /><rect x="788.19" y="293.81" width="6" height="7.32" rx="1.5" fill="#0ecb81" /><line x1="801.92" y1="285.03" x2="801.92" y2="308.46" stroke="#f6465d" stroke-width="1.4" /><rect x="798.92" y="295.28" width="6" height="10.25" rx="1.5" fill="#f6465d" /><line x1="812.66" y1="245.48" x2="812.66" y2="309.93" stroke="#0ecb81" stroke-width="1.4" /><rect x="809.66" y="257.20" width="6" height="48.33" rx="1.5" fill="#0ecb81" /><line x1="823.39" y1="244.01" x2="823.39" y2="317.25" stroke="#f6465d" stroke-width="1.4" /><rect x="820.39" y="255.73" width="6" height="48.33" rx="1.5" fill="#f6465d" /><line x1="834.13" y1="260.13" x2="834.13" y2="308.46" stroke="#0ecb81" stroke-width="1.4" /><rect x="831.13" y="283.56" width="6" height="20.51" rx="1.5" fill="#0ecb81" /><line x1="844.86" y1="208.86" x2="844.86" y2="292.35" stroke="#0ecb81" stroke-width="1.4" /><rect x="841.86" y="227.90" width="6" height="54.19" rx="1.5" fill="#0ecb81" /><line x1="855.59" y1="167.85" x2="855.59" y2="229.37" stroke="#0ecb81" stroke-width="1.4" /><rect x="852.59" y="181.03" width="6" height="46.87" rx="1.5" fill="#0ecb81" /><line x1="866.33" y1="58.00" x2="866.33" y2="185.43" stroke="#0ecb81" stroke-width="1.4" /><rect x="863.33" y="72.65" width="6" height="109.85" rx="1.5" fill="#0ecb81" /><line x1="877.06" y1="71.18" x2="877.06" y2="175.17" stroke="#f6465d" stroke-width="1.4" /><rect x="874.06" y="71.18" width="6" height="79.09" rx="1.5" fill="#f6465d" /><line x1="887.80" y1="129.77" x2="887.80" y2="238.16" stroke="#f6465d" stroke-width="1.4" /><rect x="884.80" y="150.28" width="6" height="76.16" rx="1.5" fill="#f6465d" /><line x1="898.53" y1="222.04" x2="898.53" y2="364.12" stroke="#f6465d" stroke-width="1.4" /><rect x="895.53" y="226.44" width="6" height="120.10" rx="1.5" fill="#f6465d" /><line x1="909.27" y1="197.14" x2="909.27" y2="352.40" stroke="#0ecb81" stroke-width="1.4" /><rect x="906.27" y="226.44" width="6" height="120.10" rx="1.5" fill="#0ecb81" /><line x1="920.00" y1="211.79" x2="920.00" y2="261.59" stroke="#0ecb81" stroke-width="1.4" /><rect x="917.00" y="223.51" width="6" height="2.93" rx="1.5" fill="#0ecb81" />
  <polyline points="383.29,452.00 415.49,248.41 458.43,419.78 479.90,336.29 501.37,413.92" fill="none" stroke="#2fc273" stroke-width="4" stroke-linecap="round" stroke-linejoin="round" />
  <circle cx="383.29" cy="452.00" r="5.5" fill="#2fc273" fill-opacity="0.15" stroke="#2fc273" stroke-width="2" /><text x="383.29" y="440.00" fill="#f3f4f6" font-size="15" font-weight="700" text-anchor="middle">X</text><circle cx="415.49" cy="248.41" r="5.5" fill="#2fc273" fill-opacity="0.15" stroke="#2fc273" stroke-width="2" /><text x="415.49" y="236.41" fill="#f3f4f6" font-size="15" font-weight="700" text-anchor="middle">A</text><circle cx="458.43" cy="419.78" r="5.5" fill="#2fc273" fill-opacity="0.15" stroke="#2fc273" stroke-width="2" /><text x="458.43" y="407.78" fill="#f3f4f6" font-size="15" font-weight="700" text-anchor="middle">B</text><circle cx="479.90" cy="336.29" r="5.5" fill="#2fc273" fill-opacity="0.15" stroke="#2fc273" stroke-width="2" /><text x="479.90" y="324.29" fill="#f3f4f6" font-size="15" font-weight="700" text-anchor="middle">C</text><circle cx="501.37" cy="413.92" r="5.5" fill="#2fc273" fill-opacity="0.15" stroke="#2fc273" stroke-width="2" /><text x="501.37" y="401.92" fill="#f3f4f6" font-size="15" font-weight="700" text-anchor="middle">D</text>
  <text x="56" y="492" fill="#8ba0b5" font-size="18">일반 완성 · TP1 0.39572 · TP2 0.39698 · SL 0.39189</text>
</svg>
