<svg xmlns="http://www.w3.org/2000/svg" width="960" height="540" viewBox="0 0 960 540">
  <rect width="960" height="540" rx="24" fill="#0b1220" />
  <rect x="28" y="28" width="904" height="484" rx="22" fill="#111827" stroke="#1f2937" />
  <text x="56" y="74" fill="#f3f4f6" font-size="34" font-weight="700">BSBUSDT · AB=CD</text>
  <text x="904" y="74" fill="#8ba0b5" font-size="20" text-anchor="end">Bullish (매수) · Score 81.3</text>
  <line x1="72" y1="58" x2="920" y2="58" stroke="#223045" stroke-width="1" stroke-dasharray="4 8" /><line x1="72" y1="156" x2="920" y2="156" stroke="#223045" stroke-width="1" stroke-dasharray="4 8" /><line x1="72" y1="255" x2="920" y2="255" stroke="#223045" stroke-width="1" stroke-dasharray="4 8" /><line x1="72" y1="353" x2="920" y2="353" stroke="#223045" stroke-width="1" stroke-dasharray="4 8" /><line x1="72" y1="452" x2="920" y2="452" stroke="#223045" stroke-width="1" stroke-dasharray="4 8" />
  <rect x="376.76" y="428.35" width="84" height="7.39" fill="#fbbf24" fill-opacity="0.12" stroke="#fbbf24" stroke-width="1.5" stroke-dasharray="6 6" />
  <line x1="72.00" y1="364.34" x2="72.00" y2="414.10" stroke="#f6465d" stroke-width="1.4" /><rect x="69.00" y="372.50" width="6" height="5.64" rx="1.5" fill="#f6465d" /><line x1="82.73" y1="371.79" x2="82.73" y2="383.26" stroke="#0ecb81" stroke-width="1.4" /><rect x="79.73" y="374.70" width="6" height="3.76" rx="1.5" fill="#0ecb81" /><line x1="93.47" y1="363.56" x2="93.47" y2="380.34" stroke="#0ecb81" stroke-width="1.4" /><rect x="90.47" y="371.79" width="6" height="2.85" rx="1.5" fill="#0ecb81" /><line x1="104.20" y1="367.58" x2="104.20" y2="384.03" stroke="#f6465d" stroke-width="1.4" /><rect x="101.20" y="371.79" width="6" height="2.00" rx="1.5" fill="#f6465d" /><line x1="114.94" y1="367.38" x2="114.94" y2="375.09" stroke="#0ecb81" stroke-width="1.4" /><rect x="111.94" y="369.52" width="6" height="2.66" rx="1.5" fill="#0ecb81" /><line x1="125.67" y1="365.44" x2="125.67" y2="375.16" stroke="#0ecb81" stroke-width="1.4" /><rect x="122.67" y="367.12" width="6" height="3.17" rx="1.5" fill="#0ecb81" /><line x1="136.41" y1="353.26" x2="136.41" y2="367.32" stroke="#0ecb81" stroke-width="1.4" /><rect x="133.41" y="361.42" width="6" height="5.90" rx="1.5" fill="#0ecb81" /><line x1="147.14" y1="351.31" x2="147.14" y2="365.11" stroke="#f6465d" stroke-width="1.4" /><rect x="144.14" y="361.42" width="6" height="2.00" rx="1.5" fill="#f6465d" /><line x1="157.87" y1="356.76" x2="157.87" y2="368.61" stroke="#f6465d" stroke-width="1.4" /><rect x="154.87" y="361.68" width="6" height="5.77" rx="1.5" fill="#f6465d" /><line x1="168.61" y1="363.11" x2="168.61" y2="375.48" stroke="#f6465d" stroke-width="1.4" /><rect x="165.61" y="367.45" width="6" height="3.05" rx="1.5" fill="#f6465d" /><line x1="179.34" y1="366.47" x2="179.34" y2="378.66" stroke="#0ecb81" stroke-width="1.4" /><rect x="176.34" y="368.94" width="6" height="2.00" rx="1.5" fill="#0ecb81" /><line x1="190.08" y1="368.16" x2="190.08" y2="390.32" stroke="#f6465d" stroke-width="1.4" /><rect x="187.08" y="368.61" width="6" height="13.48" rx="1.5" fill="#f6465d" /><line x1="200.81" y1="369.33" x2="200.81" y2="385.85" stroke="#0ecb81" stroke-width="1.4" /><rect x="197.81" y="374.70" width="6" height="7.39" rx="1.5" fill="#0ecb81" /><line x1="211.54" y1="374.70" x2="211.54" y2="382.41" stroke="#f6465d" stroke-width="1.4" /><rect x="208.54" y="374.70" width="6" height="4.15" rx="1.5" fill="#f6465d" /><line x1="222.28" y1="378.79" x2="222.28" y2="394.34" stroke="#f6465d" stroke-width="1.4" /><rect x="219.28" y="378.79" width="6" height="6.87" rx="1.5" fill="#f6465d" /><line x1="233.01" y1="384.88" x2="233.01" y2="406.39" stroke="#f6465d" stroke-width="1.4" /><rect x="230.01" y="385.13" width="6" height="18.60" rx="1.5" fill="#f6465d" /><line x1="243.75" y1="385.59" x2="243.75" y2="404.90" stroke="#0ecb81" stroke-width="1.4" /><rect x="240.75" y="387.66" width="6" height="15.36" rx="1.5" fill="#0ecb81" /><line x1="254.48" y1="379.50" x2="254.48" y2="391.16" stroke="#0ecb81" stroke-width="1.4" /><rect x="251.48" y="383.00" width="6" height="4.08" rx="1.5" fill="#0ecb81" /><line x1="265.22" y1="376.65" x2="265.22" y2="385.07" stroke="#0ecb81" stroke-width="1.4" /><rect x="262.22" y="379.30" width="6" height="4.41" rx="1.5" fill="#0ecb81" /><line x1="275.95" y1="378.91" x2="275.95" y2="393.75" stroke="#f6465d" stroke-width="1.4" /><rect x="272.95" y="379.30" width="6" height="8.42" rx="1.5" fill="#f6465d" /><line x1="286.68" y1="378.53" x2="286.68" y2="388.76" stroke="#0ecb81" stroke-width="1.4" /><rect x="283.68" y="384.55" width="6" height="3.24" rx="1.5" fill="#0ecb81" /><line x1="297.42" y1="383.00" x2="297.42" y2="391.61" stroke="#f6465d" stroke-width="1.4" /><rect x="294.42" y="384.49" width="6" height="2.00" rx="1.5" fill="#f6465d" /><line x1="308.15" y1="379.89" x2="308.15" y2="389.48" stroke="#0ecb81" stroke-width="1.4" /><rect x="305.15" y="384.29" width="6" height="2.00" rx="1.5" fill="#0ecb81" /><line x1="318.89" y1="379.95" x2="318.89" y2="387.53" stroke="#f6465d" stroke-width="1.4" /><rect x="315.89" y="383.71" width="6" height="2.00" rx="1.5" fill="#f6465d" /><line x1="329.62" y1="384.03" x2="329.62" y2="395.57" stroke="#f6465d" stroke-width="1.4" /><rect x="326.62" y="384.94" width="6" height="7.13" rx="1.5" fill="#f6465d" /><line x1="340.35" y1="387.66" x2="340.35" y2="397.70" stroke="#f6465d" stroke-width="1.4" /><rect x="337.35" y="392.07" width="6" height="4.08" rx="1.5" fill="#f6465d" /><line x1="351.09" y1="394.85" x2="351.09" y2="401.14" stroke="#f6465d" stroke-width="1.4" /><rect x="348.09" y="396.08" width="6" height="2.92" rx="1.5" fill="#f6465d" /><line x1="361.82" y1="395.24" x2="361.82" y2="404.31" stroke="#f6465d" stroke-width="1.4" /><rect x="358.82" y="399.32" width="6" height="2.00" rx="1.5" fill="#f6465d" /><line x1="372.56" y1="396.47" x2="372.56" y2="412.87" stroke="#f6465d" stroke-width="1.4" /><rect x="369.56" y="400.23" width="6" height="6.54" rx="1.5" fill="#f6465d" /><line x1="383.29" y1="406.78" x2="383.29" y2="419.22" stroke="#f6465d" stroke-width="1.4" /><rect x="380.29" y="406.78" width="6" height="10.11" rx="1.5" fill="#f6465d" /><line x1="394.03" y1="412.09" x2="394.03" y2="422.78" stroke="#f6465d" stroke-width="1.4" /><rect x="391.03" y="416.88" width="6" height="2.53" rx="1.5" fill="#f6465d" /><line x1="404.76" y1="416.62" x2="404.76" y2="452.00" stroke="#f6465d" stroke-width="1.4" /><rect x="401.76" y="419.34" width="6" height="22.09" rx="1.5" fill="#f6465d" /><line x1="415.49" y1="418.83" x2="415.49" y2="447.53" stroke="#0ecb81" stroke-width="1.4" /><rect x="412.49" y="434.64" width="6" height="6.80" rx="1.5" fill="#0ecb81" /><line x1="426.23" y1="434.44" x2="426.23" y2="450.77" stroke="#f6465d" stroke-width="1.4" /><rect x="423.23" y="434.64" width="6" height="5.64" rx="1.5" fill="#f6465d" /><line x1="436.96" y1="424.85" x2="436.96" y2="446.75" stroke="#0ecb81" stroke-width="1.4" /><rect x="433.96" y="433.92" width="6" height="6.35" rx="1.5" fill="#0ecb81" /><line x1="447.70" y1="415.20" x2="447.70" y2="435.35" stroke="#0ecb81" stroke-width="1.4" /><rect x="444.70" y="417.92" width="6" height="15.29" rx="1.5" fill="#0ecb81" /><line x1="458.43" y1="398.81" x2="458.43" y2="420.19" stroke="#0ecb81" stroke-width="1.4" /><rect x="455.43" y="405.09" width="6" height="12.83" rx="1.5" fill="#0ecb81" /><line x1="469.16" y1="395.05" x2="469.16" y2="409.30" stroke="#f6465d" stroke-width="1.4" /><rect x="466.16" y="405.03" width="6" height="2.00" rx="1.5" fill="#f6465d" /><line x1="479.90" y1="405.03" x2="479.90" y2="418.11" stroke="#f6465d" stroke-width="1.4" /><rect x="476.90" y="406.84" width="6" height="11.27" rx="1.5" fill="#f6465d" /><line x1="490.63" y1="413.77" x2="490.63" y2="423.36" stroke="#f6465d" stroke-width="1.4" /><rect x="487.63" y="418.11" width="6" height="2.00" rx="1.5" fill="#f6465d" /><line x1="501.37" y1="411.25" x2="501.37" y2="428.16" stroke="#f6465d" stroke-width="1.4" /><rect x="498.37" y="419.67" width="6" height="3.17" rx="1.5" fill="#f6465d" /><line x1="512.10" y1="417.08" x2="512.10" y2="427.64" stroke="#0ecb81" stroke-width="1.4" /><rect x="509.10" y="417.47" width="6" height="5.77" rx="1.5" fill="#0ecb81" /><line x1="522.84" y1="405.41" x2="522.84" y2="417.98" stroke="#0ecb81" stroke-width="1.4" /><rect x="519.84" y="406.32" width="6" height="11.60" rx="1.5" fill="#0ecb81" /><line x1="533.57" y1="388.89" x2="533.57" y2="407.03" stroke="#0ecb81" stroke-width="1.4" /><rect x="530.57" y="393.43" width="6" height="12.96" rx="1.5" fill="#0ecb81" /><line x1="544.30" y1="375.87" x2="544.30" y2="397.77" stroke="#0ecb81" stroke-width="1.4" /><rect x="541.30" y="383.51" width="6" height="9.91" rx="1.5" fill="#0ecb81" /><line x1="555.04" y1="358.31" x2="555.04" y2="385.65" stroke="#0ecb81" stroke-width="1.4" /><rect x="552.04" y="370.95" width="6" height="12.50" rx="1.5" fill="#0ecb81" /><line x1="565.77" y1="362.91" x2="565.77" y2="375.35" stroke="#0ecb81" stroke-width="1.4" /><rect x="562.77" y="369.07" width="6" height="2.00" rx="1.5" fill="#0ecb81" /><line x1="576.51" y1="369.07" x2="576.51" y2="381.05" stroke="#f6465d" stroke-width="1.4" /><rect x="573.51" y="369.07" width="6" height="4.92" rx="1.5" fill="#f6465d" /><line x1="587.24" y1="367.51" x2="587.24" y2="383.13" stroke="#f6465d" stroke-width="1.4" /><rect x="584.24" y="374.06" width="6" height="4.15" rx="1.5" fill="#f6465d" /><line x1="597.97" y1="373.80" x2="597.97" y2="380.40" stroke="#0ecb81" stroke-width="1.4" /><rect x="594.97" y="376.52" width="6" height="2.00" rx="1.5" fill="#0ecb81" /><line x1="608.71" y1="347.36" x2="608.71" y2="377.75" stroke="#0ecb81" stroke-width="1.4" /><rect x="605.71" y="367.96" width="6" height="8.81" rx="1.5" fill="#0ecb81" /><line x1="619.44" y1="360.00" x2="619.44" y2="379.95" stroke="#f6465d" stroke-width="1.4" /><rect x="616.44" y="367.96" width="6" height="10.50" rx="1.5" fill="#f6465d" /><line x1="630.18" y1="354.36" x2="630.18" y2="381.51" stroke="#0ecb81" stroke-width="1.4" /><rect x="627.18" y="357.40" width="6" height="21.19" rx="1.5" fill="#0ecb81" /><line x1="640.91" y1="341.34" x2="640.91" y2="357.73" stroke="#0ecb81" stroke-width="1.4" /><rect x="637.91" y="348.46" width="6" height="8.29" rx="1.5" fill="#0ecb81" /><line x1="651.65" y1="348.40" x2="651.65" y2="371.92" stroke="#f6465d" stroke-width="1.4" /><rect x="648.65" y="348.53" width="6" height="18.53" rx="1.5" fill="#f6465d" /><line x1="662.38" y1="357.08" x2="662.38" y2="376.19" stroke="#0ecb81" stroke-width="1.4" /><rect x="659.38" y="362.65" width="6" height="4.41" rx="1.5" fill="#0ecb81" /><line x1="673.11" y1="334.08" x2="673.11" y2="371.85" stroke="#0ecb81" stroke-width="1.4" /><rect x="670.11" y="352.22" width="6" height="10.50" rx="1.5" fill="#0ecb81" /><line x1="683.85" y1="347.04" x2="683.85" y2="355.27" stroke="#f6465d" stroke-width="1.4" /><rect x="680.85" y="351.18" width="6" height="2.00" rx="1.5" fill="#f6465d" /><line x1="694.58" y1="342.05" x2="694.58" y2="356.24" stroke="#0ecb81" stroke-width="1.4" /><rect x="691.58" y="349.43" width="6" height="2.14" rx="1.5" fill="#0ecb81" /><line x1="705.32" y1="341.72" x2="705.32" y2="362.39" stroke="#f6465d" stroke-width="1.4" /><rect x="702.32" y="349.11" width="6" height="7.45" rx="1.5" fill="#f6465d" /><line x1="716.05" y1="352.29" x2="716.05" y2="360.12" stroke="#f6465d" stroke-width="1.4" /><rect x="713.05" y="356.37" width="6" height="2.00" rx="1.5" fill="#f6465d" /><line x1="726.78" y1="352.61" x2="726.78" y2="371.33" stroke="#f6465d" stroke-width="1.4" /><rect x="723.78" y="356.37" width="6" height="10.82" rx="1.5" fill="#f6465d" /><line x1="737.52" y1="333.43" x2="737.52" y2="371.20" stroke="#0ecb81" stroke-width="1.4" /><rect x="734.52" y="347.17" width="6" height="20.02" rx="1.5" fill="#0ecb81" /><line x1="748.25" y1="333.43" x2="748.25" y2="353.84" stroke="#0ecb81" stroke-width="1.4" /><rect x="745.25" y="345.87" width="6" height="2.27" rx="1.5" fill="#0ecb81" /><line x1="758.99" y1="319.82" x2="758.99" y2="346.26" stroke="#0ecb81" stroke-width="1.4" /><rect x="755.99" y="321.83" width="6" height="24.04" rx="1.5" fill="#0ecb81" /><line x1="769.72" y1="297.47" x2="769.72" y2="335.05" stroke="#0ecb81" stroke-width="1.4" /><rect x="766.72" y="320.15" width="6" height="2.00" rx="1.5" fill="#0ecb81" /><line x1="780.46" y1="303.63" x2="780.46" y2="323.06" stroke="#0ecb81" stroke-width="1.4" /><rect x="777.46" y="308.16" width="6" height="11.99" rx="1.5" fill="#0ecb81" /><line x1="791.19" y1="255.87" x2="791.19" y2="312.18" stroke="#0ecb81" stroke-width="1.4" /><rect x="788.19" y="272.53" width="6" height="35.64" rx="1.5" fill="#0ecb81" /><line x1="801.92" y1="251.79" x2="801.92" y2="281.47" stroke="#0ecb81" stroke-width="1.4" /><rect x="798.92" y="257.36" width="6" height="15.23" rx="1.5" fill="#0ecb81" /><line x1="812.66" y1="172.81" x2="812.66" y2="258.98" stroke="#0ecb81" stroke-width="1.4" /><rect x="809.66" y="192.83" width="6" height="64.53" rx="1.5" fill="#0ecb81" /><line x1="823.39" y1="115.08" x2="823.39" y2="198.60" stroke="#0ecb81" stroke-width="1.4" /><rect x="820.39" y="143.91" width="6" height="48.98" rx="1.5" fill="#0ecb81" /><line x1="834.13" y1="139.12" x2="834.13" y2="218.42" stroke="#f6465d" stroke-width="1.4" /><rect x="831.13" y="144.69" width="6" height="66.02" rx="1.5" fill="#f6465d" /><line x1="844.86" y1="186.55" x2="844.86" y2="233.46" stroke="#0ecb81" stroke-width="1.4" /><rect x="841.86" y="194.39" width="6" height="15.16" rx="1.5" fill="#0ecb81" /><line x1="855.59" y1="147.35" x2="855.59" y2="202.62" stroke="#0ecb81" stroke-width="1.4" /><rect x="852.59" y="192.38" width="6" height="2.66" rx="1.5" fill="#0ecb81" /><line x1="866.33" y1="152.86" x2="866.33" y2="207.48" stroke="#0ecb81" stroke-width="1.4" /><rect x="863.33" y="158.23" width="6" height="34.15" rx="1.5" fill="#0ecb81" /><line x1="877.06" y1="58.00" x2="877.06" y2="185.96" stroke="#0ecb81" stroke-width="1.4" /><rect x="874.06" y="98.11" width="6" height="60.19" rx="1.5" fill="#0ecb81" /><line x1="887.80" y1="68.04" x2="887.80" y2="163.09" stroke="#f6465d" stroke-width="1.4" /><rect x="884.80" y="97.46" width="6" height="57.02" rx="1.5" fill="#f6465d" /><line x1="898.53" y1="119.55" x2="898.53" y2="200.67" stroke="#0ecb81" stroke-width="1.4" /><rect x="895.53" y="144.63" width="6" height="8.94" rx="1.5" fill="#0ecb81" /><line x1="909.27" y1="119.88" x2="909.27" y2="157.33" stroke="#0ecb81" stroke-width="1.4" /><rect x="906.27" y="124.74" width="6" height="19.76" rx="1.5" fill="#0ecb81" /><line x1="920.00" y1="118.32" x2="920.00" y2="127.65" stroke="#0ecb81" stroke-width="1.4" /><rect x="917.00" y="121.17" width="6" height="2.98" rx="1.5" fill="#0ecb81" />
  <polyline points="72.00,414.10 147.14,351.31 233.01,406.39 265.22,376.65 404.76,452.00" fill="none" stroke="#2fc273" stroke-width="4" stroke-linecap="round" stroke-linejoin="round" />
  <circle cx="72.00" cy="414.10" r="5.5" fill="#2fc273" fill-opacity="0.15" stroke="#2fc273" stroke-width="2" /><text x="72.00" y="402.10" fill="#f3f4f6" font-size="15" font-weight="700" text-anchor="middle">X</text><circle cx="147.14" cy="351.31" r="5.5" fill="#2fc273" fill-opacity="0.15" stroke="#2fc273" stroke-width="2" /><text x="147.14" y="339.31" fill="#f3f4f6" font-size="15" font-weight="700" text-anchor="middle">A</text><circle cx="233.01" cy="406.39" r="5.5" fill="#2fc273" fill-opacity="0.15" stroke="#2fc273" stroke-width="2" /><text x="233.01" y="394.39" fill="#f3f4f6" font-size="15" font-weight="700" text-anchor="middle">B</text><circle cx="265.22" cy="376.65" r="5.5" fill="#2fc273" fill-opacity="0.15" stroke="#2fc273" stroke-width="2" /><text x="265.22" y="364.65" fill="#f3f4f6" font-size="15" font-weight="700" text-anchor="middle">C</text><circle cx="404.76" cy="452.00" r="5.5" fill="#2fc273" fill-opacity="0.15" stroke="#2fc273" stroke-width="2" /><text x="404.76" y="440.00" fill="#f3f4f6" font-size="15" font-weight="700" text-anchor="middle">D</text>
  <text x="56" y="492" fill="#8ba0b5" font-size="18">일반 완성 · TP1 0.22854 · TP2 0.23129 · SL 0.22284</text>
</svg>
