<svg xmlns="http://www.w3.org/2000/svg" width="960" height="540" viewBox="0 0 960 540">
  <rect width="960" height="540" rx="24" fill="#0b1220" />
  <rect x="28" y="28" width="904" height="484" rx="22" fill="#111827" stroke="#1f2937" />
  <text x="56" y="74" fill="#f3f4f6" font-size="34" font-weight="700">BTCUSDT · AB=CD</text>
  <text x="904" y="74" fill="#8ba0b5" font-size="20" text-anchor="end">Bullish (매수) · Score 82.4</text>
  <line x1="72" y1="58" x2="920" y2="58" stroke="#223045" stroke-width="1" stroke-dasharray="4 8" /><line x1="72" y1="156" x2="920" y2="156" stroke="#223045" stroke-width="1" stroke-dasharray="4 8" /><line x1="72" y1="255" x2="920" y2="255" stroke="#223045" stroke-width="1" stroke-dasharray="4 8" /><line x1="72" y1="353" x2="920" y2="353" stroke="#223045" stroke-width="1" stroke-dasharray="4 8" /><line x1="72" y1="452" x2="920" y2="452" stroke="#223045" stroke-width="1" stroke-dasharray="4 8" />
  <rect x="752.46" y="211.53" width="84" height="67.99" fill="#fbbf24" fill-opacity="0.12" stroke="#fbbf24" stroke-width="1.5" stroke-dasharray="6 6" />
  <line x1="72.00" y1="338.77" x2="72.00" y2="389.03" stroke="#f6465d" stroke-width="1.4" /><rect x="69.00" y="338.79" width="6" height="48.53" rx="1.5" fill="#f6465d" /><line x1="82.73" y1="386.31" x2="82.73" y2="419.74" stroke="#f6465d" stroke-width="1.4" /><rect x="79.73" y="387.32" width="6" height="22.58" rx="1.5" fill="#f6465d" /><line x1="93.47" y1="401.59" x2="93.47" y2="440.32" stroke="#f6465d" stroke-width="1.4" /><rect x="90.47" y="409.92" width="6" height="28.65" rx="1.5" fill="#f6465d" /><line x1="104.20" y1="417.83" x2="104.20" y2="445.26" stroke="#0ecb81" stroke-width="1.4" /><rect x="101.20" y="427.32" width="6" height="11.25" rx="1.5" fill="#0ecb81" /><line x1="114.94" y1="421.00" x2="114.94" y2="452.00" stroke="#f6465d" stroke-width="1.4" /><rect x="111.94" y="427.30" width="6" height="9.23" rx="1.5" fill="#f6465d" /><line x1="125.67" y1="421.00" x2="125.67" y2="445.39" stroke="#0ecb81" stroke-width="1.4" /><rect x="122.67" y="429.77" width="6" height="6.76" rx="1.5" fill="#0ecb81" /><line x1="136.41" y1="412.31" x2="136.41" y2="448.13" stroke="#0ecb81" stroke-width="1.4" /><rect x="133.41" y="413.17" width="6" height="16.60" rx="1.5" fill="#0ecb81" /><line x1="147.14" y1="391.93" x2="147.14" y2="420.09" stroke="#0ecb81" stroke-width="1.4" /><rect x="144.14" y="400.38" width="6" height="12.79" rx="1.5" fill="#0ecb81" /><line x1="157.87" y1="364.68" x2="157.87" y2="403.22" stroke="#0ecb81" stroke-width="1.4" /><rect x="154.87" y="395.85" width="6" height="4.53" rx="1.5" fill="#0ecb81" /><line x1="168.61" y1="380.38" x2="168.61" y2="395.87" stroke="#0ecb81" stroke-width="1.4" /><rect x="165.61" y="383.34" width="6" height="12.52" rx="1.5" fill="#0ecb81" /><line x1="179.34" y1="383.32" x2="179.34" y2="401.68" stroke="#f6465d" stroke-width="1.4" /><rect x="176.34" y="383.32" width="6" height="11.16" rx="1.5" fill="#f6465d" /><line x1="190.08" y1="387.20" x2="190.08" y2="398.26" stroke="#f6465d" stroke-width="1.4" /><rect x="187.08" y="394.47" width="6" height="2.60" rx="1.5" fill="#f6465d" /><line x1="200.81" y1="368.57" x2="200.81" y2="397.08" stroke="#0ecb81" stroke-width="1.4" /><rect x="197.81" y="386.72" width="6" height="10.34" rx="1.5" fill="#0ecb81" /><line x1="211.54" y1="381.41" x2="211.54" y2="404.58" stroke="#f6465d" stroke-width="1.4" /><rect x="208.54" y="386.70" width="6" height="14.40" rx="1.5" fill="#f6465d" /><line x1="222.28" y1="401.10" x2="222.28" y2="431.69" stroke="#f6465d" stroke-width="1.4" /><rect x="219.28" y="401.12" width="6" height="16.58" rx="1.5" fill="#f6465d" /><line x1="233.01" y1="407.38" x2="233.01" y2="428.46" stroke="#0ecb81" stroke-width="1.4" /><rect x="230.01" y="415.64" width="6" height="2.08" rx="1.5" fill="#0ecb81" /><line x1="243.75" y1="412.12" x2="243.75" y2="441.74" stroke="#f6465d" stroke-width="1.4" /><rect x="240.75" y="415.64" width="6" height="16.25" rx="1.5" fill="#f6465d" /><line x1="254.48" y1="428.85" x2="254.48" y2="436.02" stroke="#0ecb81" stroke-width="1.4" /><rect x="251.48" y="429.90" width="6" height="2.02" rx="1.5" fill="#0ecb81" /><line x1="265.22" y1="412.51" x2="265.22" y2="434.00" stroke="#0ecb81" stroke-width="1.4" /><rect x="262.22" y="427.78" width="6" height="2.10" rx="1.5" fill="#0ecb81" /><line x1="275.95" y1="405.34" x2="275.95" y2="427.80" stroke="#0ecb81" stroke-width="1.4" /><rect x="272.95" y="410.31" width="6" height="17.49" rx="1.5" fill="#0ecb81" /><line x1="286.68" y1="406.76" x2="286.68" y2="420.38" stroke="#f6465d" stroke-width="1.4" /><rect x="283.68" y="410.31" width="6" height="4.08" rx="1.5" fill="#f6465d" /><line x1="297.42" y1="403.90" x2="297.42" y2="426.81" stroke="#0ecb81" stroke-width="1.4" /><rect x="294.42" y="408.04" width="6" height="6.37" rx="1.5" fill="#0ecb81" /><line x1="308.15" y1="408.04" x2="308.15" y2="429.16" stroke="#f6465d" stroke-width="1.4" /><rect x="305.15" y="408.06" width="6" height="14.89" rx="1.5" fill="#f6465d" /><line x1="318.89" y1="371.99" x2="318.89" y2="430.60" stroke="#0ecb81" stroke-width="1.4" /><rect x="315.89" y="388.04" width="6" height="34.89" rx="1.5" fill="#0ecb81" /><line x1="329.62" y1="347.34" x2="329.62" y2="388.99" stroke="#0ecb81" stroke-width="1.4" /><rect x="326.62" y="359.30" width="6" height="28.76" rx="1.5" fill="#0ecb81" /><line x1="340.35" y1="338.79" x2="340.35" y2="360.91" stroke="#0ecb81" stroke-width="1.4" /><rect x="337.35" y="343.34" width="6" height="15.98" rx="1.5" fill="#0ecb81" /><line x1="351.09" y1="323.67" x2="351.09" y2="362.25" stroke="#f6465d" stroke-width="1.4" /><rect x="348.09" y="343.36" width="6" height="5.25" rx="1.5" fill="#f6465d" /><line x1="361.82" y1="347.23" x2="361.82" y2="372.61" stroke="#f6465d" stroke-width="1.4" /><rect x="358.82" y="348.59" width="6" height="20.33" rx="1.5" fill="#f6465d" /><line x1="372.56" y1="361.24" x2="372.56" y2="394.71" stroke="#f6465d" stroke-width="1.4" /><rect x="369.56" y="368.92" width="6" height="21.55" rx="1.5" fill="#f6465d" /><line x1="383.29" y1="389.40" x2="383.29" y2="412.72" stroke="#f6465d" stroke-width="1.4" /><rect x="380.29" y="390.49" width="6" height="21.61" rx="1.5" fill="#f6465d" /><line x1="394.03" y1="374.46" x2="394.03" y2="413.15" stroke="#0ecb81" stroke-width="1.4" /><rect x="391.03" y="400.52" width="6" height="11.58" rx="1.5" fill="#0ecb81" /><line x1="404.76" y1="392.78" x2="404.76" y2="424.46" stroke="#f6465d" stroke-width="1.4" /><rect x="401.76" y="400.52" width="6" height="4.55" rx="1.5" fill="#f6465d" /><line x1="415.49" y1="383.01" x2="415.49" y2="405.12" stroke="#0ecb81" stroke-width="1.4" /><rect x="412.49" y="387.07" width="6" height="18.00" rx="1.5" fill="#0ecb81" /><line x1="426.23" y1="355.58" x2="426.23" y2="396.42" stroke="#0ecb81" stroke-width="1.4" /><rect x="423.23" y="374.75" width="6" height="12.30" rx="1.5" fill="#0ecb81" /><line x1="436.96" y1="348.22" x2="436.96" y2="376.07" stroke="#0ecb81" stroke-width="1.4" /><rect x="433.96" y="358.15" width="6" height="16.60" rx="1.5" fill="#0ecb81" /><line x1="447.70" y1="348.65" x2="447.70" y2="371.64" stroke="#f6465d" stroke-width="1.4" /><rect x="444.70" y="358.15" width="6" height="2.00" rx="1.5" fill="#f6465d" /><line x1="458.43" y1="347.32" x2="458.43" y2="367.96" stroke="#0ecb81" stroke-width="1.4" /><rect x="455.43" y="350.86" width="6" height="7.83" rx="1.5" fill="#0ecb81" /><line x1="469.16" y1="336.48" x2="469.16" y2="367.48" stroke="#0ecb81" stroke-width="1.4" /><rect x="466.16" y="343.22" width="6" height="7.64" rx="1.5" fill="#0ecb81" /><line x1="479.90" y1="305.42" x2="479.90" y2="350.92" stroke="#0ecb81" stroke-width="1.4" /><rect x="476.90" y="336.05" width="6" height="7.17" rx="1.5" fill="#0ecb81" /><line x1="490.63" y1="320.62" x2="490.63" y2="354.32" stroke="#f6465d" stroke-width="1.4" /><rect x="487.63" y="336.07" width="6" height="17.57" rx="1.5" fill="#f6465d" /><line x1="501.37" y1="341.05" x2="501.37" y2="357.16" stroke="#0ecb81" stroke-width="1.4" /><rect x="498.37" y="347.97" width="6" height="5.69" rx="1.5" fill="#0ecb81" /><line x1="512.10" y1="346.20" x2="512.10" y2="360.93" stroke="#f6465d" stroke-width="1.4" /><rect x="509.10" y="347.97" width="6" height="4.57" rx="1.5" fill="#f6465d" /><line x1="522.84" y1="343.65" x2="522.84" y2="359.57" stroke="#0ecb81" stroke-width="1.4" /><rect x="519.84" y="349.15" width="6" height="3.40" rx="1.5" fill="#0ecb81" /><line x1="533.57" y1="324.57" x2="533.57" y2="359.12" stroke="#0ecb81" stroke-width="1.4" /><rect x="530.57" y="335.90" width="6" height="13.22" rx="1.5" fill="#0ecb81" /><line x1="544.30" y1="318.00" x2="544.30" y2="344.47" stroke="#0ecb81" stroke-width="1.4" /><rect x="541.30" y="325.85" width="6" height="10.03" rx="1.5" fill="#0ecb81" /><line x1="555.04" y1="263.21" x2="555.04" y2="333.74" stroke="#0ecb81" stroke-width="1.4" /><rect x="552.04" y="305.03" width="6" height="20.85" rx="1.5" fill="#0ecb81" /><line x1="565.77" y1="288.94" x2="565.77" y2="329.76" stroke="#f6465d" stroke-width="1.4" /><rect x="562.77" y="305.05" width="6" height="3.87" rx="1.5" fill="#f6465d" /><line x1="576.51" y1="284.38" x2="576.51" y2="324.43" stroke="#0ecb81" stroke-width="1.4" /><rect x="573.51" y="289.84" width="6" height="19.07" rx="1.5" fill="#0ecb81" /><line x1="587.24" y1="254.54" x2="587.24" y2="293.88" stroke="#0ecb81" stroke-width="1.4" /><rect x="584.24" y="262.14" width="6" height="27.71" rx="1.5" fill="#0ecb81" /><line x1="597.97" y1="258.66" x2="597.97" y2="279.75" stroke="#f6465d" stroke-width="1.4" /><rect x="594.97" y="262.16" width="6" height="8.36" rx="1.5" fill="#f6465d" /><line x1="608.71" y1="264.42" x2="608.71" y2="283.75" stroke="#0ecb81" stroke-width="1.4" /><rect x="605.71" y="269.70" width="6" height="2.00" rx="1.5" fill="#0ecb81" /><line x1="619.44" y1="250.83" x2="619.44" y2="276.58" stroke="#0ecb81" stroke-width="1.4" /><rect x="616.44" y="262.20" width="6" height="7.48" rx="1.5" fill="#0ecb81" /><line x1="630.18" y1="222.59" x2="630.18" y2="265.70" stroke="#0ecb81" stroke-width="1.4" /><rect x="627.18" y="245.18" width="6" height="17.01" rx="1.5" fill="#0ecb81" /><line x1="640.91" y1="198.92" x2="640.91" y2="247.74" stroke="#0ecb81" stroke-width="1.4" /><rect x="637.91" y="213.98" width="6" height="31.23" rx="1.5" fill="#0ecb81" /><line x1="651.65" y1="192.84" x2="651.65" y2="227.06" stroke="#0ecb81" stroke-width="1.4" /><rect x="648.65" y="194.12" width="6" height="19.88" rx="1.5" fill="#0ecb81" /><line x1="662.38" y1="179.76" x2="662.38" y2="212.97" stroke="#f6465d" stroke-width="1.4" /><rect x="659.38" y="194.12" width="6" height="14.17" rx="1.5" fill="#f6465d" /><line x1="673.11" y1="178.77" x2="673.11" y2="214.97" stroke="#0ecb81" stroke-width="1.4" /><rect x="670.11" y="190.72" width="6" height="17.57" rx="1.5" fill="#0ecb81" /><line x1="683.85" y1="185.34" x2="683.85" y2="211.69" stroke="#f6465d" stroke-width="1.4" /><rect x="680.85" y="190.72" width="6" height="16.44" rx="1.5" fill="#f6465d" /><line x1="694.58" y1="204.36" x2="694.58" y2="225.70" stroke="#f6465d" stroke-width="1.4" /><rect x="691.58" y="207.18" width="6" height="2.51" rx="1.5" fill="#f6465d" /><line x1="705.32" y1="202.30" x2="705.32" y2="215.73" stroke="#0ecb81" stroke-width="1.4" /><rect x="702.32" y="204.83" width="6" height="4.84" rx="1.5" fill="#0ecb81" /><line x1="716.05" y1="183.72" x2="716.05" y2="207.24" stroke="#0ecb81" stroke-width="1.4" /><rect x="713.05" y="192.27" width="6" height="12.59" rx="1.5" fill="#0ecb81" /><line x1="726.78" y1="182.36" x2="726.78" y2="200.09" stroke="#f6465d" stroke-width="1.4" /><rect x="723.78" y="192.29" width="6" height="2.27" rx="1.5" fill="#f6465d" /><line x1="737.52" y1="171.71" x2="737.52" y2="200.22" stroke="#0ecb81" stroke-width="1.4" /><rect x="734.52" y="180.11" width="6" height="14.42" rx="1.5" fill="#0ecb81" /><line x1="748.25" y1="169.67" x2="748.25" y2="190.53" stroke="#0ecb81" stroke-width="1.4" /><rect x="745.25" y="172.14" width="6" height="7.95" rx="1.5" fill="#0ecb81" /><line x1="758.99" y1="168.02" x2="758.99" y2="188.39" stroke="#f6465d" stroke-width="1.4" /><rect x="755.99" y="172.14" width="6" height="10.79" rx="1.5" fill="#f6465d" /><line x1="769.72" y1="180.38" x2="769.72" y2="218.39" stroke="#f6465d" stroke-width="1.4" /><rect x="766.72" y="182.93" width="6" height="32.24" rx="1.5" fill="#f6465d" /><line x1="780.46" y1="201.18" x2="780.46" y2="224.24" stroke="#0ecb81" stroke-width="1.4" /><rect x="777.46" y="206.19" width="6" height="9.00" rx="1.5" fill="#0ecb81" /><line x1="791.19" y1="200.83" x2="791.19" y2="216.45" stroke="#0ecb81" stroke-width="1.4" /><rect x="788.19" y="205.72" width="6" height="2.00" rx="1.5" fill="#0ecb81" /><line x1="801.92" y1="181.92" x2="801.92" y2="206.48" stroke="#0ecb81" stroke-width="1.4" /><rect x="798.92" y="184.52" width="6" height="21.20" rx="1.5" fill="#0ecb81" /><line x1="812.66" y1="179.76" x2="812.66" y2="188.12" stroke="#0ecb81" stroke-width="1.4" /><rect x="809.66" y="182.87" width="6" height="2.00" rx="1.5" fill="#0ecb81" /><line x1="823.39" y1="160.19" x2="823.39" y2="199.74" stroke="#0ecb81" stroke-width="1.4" /><rect x="820.39" y="170.47" width="6" height="12.40" rx="1.5" fill="#0ecb81" /><line x1="834.13" y1="148.84" x2="834.13" y2="183.20" stroke="#0ecb81" stroke-width="1.4" /><rect x="831.13" y="159.62" width="6" height="10.86" rx="1.5" fill="#0ecb81" /><line x1="844.86" y1="121.05" x2="844.86" y2="166.87" stroke="#0ecb81" stroke-width="1.4" /><rect x="841.86" y="147.05" width="6" height="12.57" rx="1.5" fill="#0ecb81" /><line x1="855.59" y1="133.04" x2="855.59" y2="156.34" stroke="#0ecb81" stroke-width="1.4" /><rect x="852.59" y="139.66" width="6" height="7.42" rx="1.5" fill="#0ecb81" /><line x1="866.33" y1="121.47" x2="866.33" y2="149.98" stroke="#0ecb81" stroke-width="1.4" /><rect x="863.33" y="126.22" width="6" height="13.43" rx="1.5" fill="#0ecb81" /><line x1="877.06" y1="117.16" x2="877.06" y2="169.05" stroke="#f6465d" stroke-width="1.4" /><rect x="874.06" y="126.22" width="6" height="37.66" rx="1.5" fill="#f6465d" /><line x1="887.80" y1="139.35" x2="887.80" y2="188.54" stroke="#f6465d" stroke-width="1.4" /><rect x="884.80" y="163.88" width="6" height="15.31" rx="1.5" fill="#f6465d" /><line x1="898.53" y1="88.30" x2="898.53" y2="184.29" stroke="#0ecb81" stroke-width="1.4" /><rect x="895.53" y="94.11" width="6" height="85.07" rx="1.5" fill="#0ecb81" /><line x1="909.27" y1="58.00" x2="909.27" y2="105.23" stroke="#0ecb81" stroke-width="1.4" /><rect x="906.27" y="60.49" width="6" height="33.64" rx="1.5" fill="#0ecb81" /><line x1="920.00" y1="60.49" x2="920.00" y2="122.91" stroke="#f6465d" stroke-width="1.4" /><rect x="917.00" y="60.51" width="6" height="58.11" rx="1.5" fill="#f6465d" />
  <polyline points="512.10,360.93 673.11,178.77 694.58,225.70 758.99,168.02 780.46,224.24" fill="none" stroke="#2fc273" stroke-width="4" stroke-linecap="round" stroke-linejoin="round" />
  <circle cx="512.10" cy="360.93" r="5.5" fill="#2fc273" fill-opacity="0.15" stroke="#2fc273" stroke-width="2" /><text x="512.10" y="348.93" fill="#f3f4f6" font-size="15" font-weight="700" text-anchor="middle">X</text><circle cx="673.11" cy="178.77" r="5.5" fill="#2fc273" fill-opacity="0.15" stroke="#2fc273" stroke-width="2" /><text x="673.11" y="166.77" fill="#f3f4f6" font-size="15" font-weight="700" text-anchor="middle">A</text><circle cx="694.58" cy="225.70" r="5.5" fill="#2fc273" fill-opacity="0.15" stroke="#2fc273" stroke-width="2" /><text x="694.58" y="213.70" fill="#f3f4f6" font-size="15" font-weight="700" text-anchor="middle">B</text><circle cx="758.99" cy="168.02" r="5.5" fill="#2fc273" fill-opacity="0.15" stroke="#2fc273" stroke-width="2" /><text x="758.99" y="156.02" fill="#f3f4f6" font-size="15" font-weight="700" text-anchor="middle">C</text><circle cx="780.46" cy="224.24" r="5.5" fill="#2fc273" fill-opacity="0.15" stroke="#2fc273" stroke-width="2" /><text x="780.46" y="212.24" fill="#f3f4f6" font-size="15" font-weight="700" text-anchor="middle">D</text>
  <text x="56" y="492" fill="#8ba0b5" font-size="18">Complete · TP1 66221.35 · TP2 66285.75 · SL 66002.14</text>
</svg>
