<svg xmlns="http://www.w3.org/2000/svg" width="960" height="540" viewBox="0 0 960 540">
  <rect width="960" height="540" rx="24" fill="#0b1220" />
  <rect x="28" y="28" width="904" height="484" rx="22" fill="#111827" stroke="#1f2937" />
  <text x="56" y="74" fill="#f3f4f6" font-size="34" font-weight="700">BTWUSDT · AB=CD</text>
  <text x="904" y="74" fill="#8ba0b5" font-size="20" text-anchor="end">Bullish (매수) · Score 83.0</text>
  <line x1="72" y1="58" x2="920" y2="58" stroke="#223045" stroke-width="1" stroke-dasharray="4 8" /><line x1="72" y1="156" x2="920" y2="156" stroke="#223045" stroke-width="1" stroke-dasharray="4 8" /><line x1="72" y1="255" x2="920" y2="255" stroke="#223045" stroke-width="1" stroke-dasharray="4 8" /><line x1="72" y1="353" x2="920" y2="353" stroke="#223045" stroke-width="1" stroke-dasharray="4 8" /><line x1="72" y1="452" x2="920" y2="452" stroke="#223045" stroke-width="1" stroke-dasharray="4 8" />
  <rect x="398.23" y="375.53" width="84" height="55.82" fill="#fbbf24" fill-opacity="0.12" stroke="#fbbf24" stroke-width="1.5" stroke-dasharray="6 6" />
  <line x1="72.00" y1="323.15" x2="72.00" y2="371.46" stroke="#0ecb81" stroke-width="1.4" /><rect x="69.00" y="342.60" width="6" height="26.47" rx="1.5" fill="#0ecb81" /><line x1="82.73" y1="337.33" x2="82.73" y2="354.11" stroke="#f6465d" stroke-width="1.4" /><rect x="79.73" y="342.25" width="6" height="5.83" rx="1.5" fill="#f6465d" /><line x1="93.47" y1="325.82" x2="93.47" y2="352.50" stroke="#f6465d" stroke-width="1.4" /><rect x="90.47" y="347.86" width="6" height="2.00" rx="1.5" fill="#f6465d" /><line x1="104.20" y1="308.12" x2="104.20" y2="352.01" stroke="#0ecb81" stroke-width="1.4" /><rect x="101.20" y="329.54" width="6" height="18.40" rx="1.5" fill="#0ecb81" /><line x1="114.94" y1="291.27" x2="114.94" y2="344.21" stroke="#0ecb81" stroke-width="1.4" /><rect x="111.94" y="303.91" width="6" height="25.56" rx="1.5" fill="#0ecb81" /><line x1="125.67" y1="303.91" x2="125.67" y2="339.72" stroke="#f6465d" stroke-width="1.4" /><rect x="122.67" y="303.91" width="6" height="7.93" rx="1.5" fill="#f6465d" /><line x1="136.41" y1="311.84" x2="136.41" y2="330.10" stroke="#f6465d" stroke-width="1.4" /><rect x="133.41" y="311.84" width="6" height="7.58" rx="1.5" fill="#f6465d" /><line x1="147.14" y1="317.67" x2="147.14" y2="351.87" stroke="#f6465d" stroke-width="1.4" /><rect x="144.14" y="319.43" width="6" height="31.39" rx="1.5" fill="#f6465d" /><line x1="157.87" y1="344.78" x2="157.87" y2="378.69" stroke="#f6465d" stroke-width="1.4" /><rect x="154.87" y="350.74" width="6" height="8.85" rx="1.5" fill="#f6465d" /><line x1="168.61" y1="326.24" x2="168.61" y2="361.00" stroke="#0ecb81" stroke-width="1.4" /><rect x="165.61" y="328.62" width="6" height="30.97" rx="1.5" fill="#0ecb81" /><line x1="179.34" y1="316.34" x2="179.34" y2="356.08" stroke="#f6465d" stroke-width="1.4" /><rect x="176.34" y="328.62" width="6" height="4.00" rx="1.5" fill="#f6465d" /><line x1="190.08" y1="314.58" x2="190.08" y2="343.51" stroke="#0ecb81" stroke-width="1.4" /><rect x="187.08" y="330.17" width="6" height="2.53" rx="1.5" fill="#0ecb81" /><line x1="200.81" y1="326.17" x2="200.81" y2="393.37" stroke="#f6465d" stroke-width="1.4" /><rect x="197.81" y="330.31" width="6" height="62.00" rx="1.5" fill="#f6465d" /><line x1="211.54" y1="381.78" x2="211.54" y2="452.00" stroke="#f6465d" stroke-width="1.4" /><rect x="208.54" y="392.31" width="6" height="10.46" rx="1.5" fill="#f6465d" /><line x1="222.28" y1="334.87" x2="222.28" y2="421.95" stroke="#0ecb81" stroke-width="1.4" /><rect x="219.28" y="339.86" width="6" height="62.92" rx="1.5" fill="#0ecb81" /><line x1="233.01" y1="319.50" x2="233.01" y2="358.33" stroke="#0ecb81" stroke-width="1.4" /><rect x="230.01" y="328.13" width="6" height="11.59" rx="1.5" fill="#0ecb81" /><line x1="243.75" y1="307.63" x2="243.75" y2="345.97" stroke="#f6465d" stroke-width="1.4" /><rect x="240.75" y="327.71" width="6" height="2.81" rx="1.5" fill="#f6465d" /><line x1="254.48" y1="326.03" x2="254.48" y2="356.50" stroke="#f6465d" stroke-width="1.4" /><rect x="251.48" y="330.59" width="6" height="3.79" rx="1.5" fill="#f6465d" /><line x1="265.22" y1="334.17" x2="265.22" y2="401.37" stroke="#f6465d" stroke-width="1.4" /><rect x="262.22" y="334.24" width="6" height="32.09" rx="1.5" fill="#f6465d" /><line x1="275.95" y1="356.71" x2="275.95" y2="405.73" stroke="#f6465d" stroke-width="1.4" /><rect x="272.95" y="366.40" width="6" height="23.59" rx="1.5" fill="#f6465d" /><line x1="286.68" y1="326.59" x2="286.68" y2="393.16" stroke="#0ecb81" stroke-width="1.4" /><rect x="283.68" y="347.09" width="6" height="42.90" rx="1.5" fill="#0ecb81" /><line x1="297.42" y1="341.55" x2="297.42" y2="373.71" stroke="#0ecb81" stroke-width="1.4" /><rect x="294.42" y="342.88" width="6" height="3.86" rx="1.5" fill="#0ecb81" /><line x1="308.15" y1="318.72" x2="308.15" y2="353.62" stroke="#f6465d" stroke-width="1.4" /><rect x="305.15" y="342.88" width="6" height="2.00" rx="1.5" fill="#f6465d" /><line x1="318.89" y1="328.77" x2="318.89" y2="372.37" stroke="#f6465d" stroke-width="1.4" /><rect x="315.89" y="343.30" width="6" height="24.72" rx="1.5" fill="#f6465d" /><line x1="329.62" y1="336.70" x2="329.62" y2="377.78" stroke="#0ecb81" stroke-width="1.4" /><rect x="326.62" y="350.74" width="6" height="17.20" rx="1.5" fill="#0ecb81" /><line x1="340.35" y1="339.93" x2="340.35" y2="365.21" stroke="#f6465d" stroke-width="1.4" /><rect x="337.35" y="350.67" width="6" height="9.27" rx="1.5" fill="#f6465d" /><line x1="351.09" y1="335.86" x2="351.09" y2="363.24" stroke="#0ecb81" stroke-width="1.4" /><rect x="348.09" y="349.55" width="6" height="10.25" rx="1.5" fill="#0ecb81" /><line x1="361.82" y1="339.79" x2="361.82" y2="360.86" stroke="#0ecb81" stroke-width="1.4" /><rect x="358.82" y="343.86" width="6" height="5.62" rx="1.5" fill="#0ecb81" /><line x1="372.56" y1="333.12" x2="372.56" y2="363.03" stroke="#f6465d" stroke-width="1.4" /><rect x="369.56" y="343.86" width="6" height="15.87" rx="1.5" fill="#f6465d" /><line x1="383.29" y1="332.77" x2="383.29" y2="364.02" stroke="#0ecb81" stroke-width="1.4" /><rect x="380.29" y="340.35" width="6" height="19.31" rx="1.5" fill="#0ecb81" /><line x1="394.03" y1="316.48" x2="394.03" y2="348.99" stroke="#f6465d" stroke-width="1.4" /><rect x="391.03" y="340.28" width="6" height="8.50" rx="1.5" fill="#f6465d" /><line x1="404.76" y1="341.40" x2="404.76" y2="361.00" stroke="#f6465d" stroke-width="1.4" /><rect x="401.76" y="348.36" width="6" height="3.51" rx="1.5" fill="#f6465d" /><line x1="415.49" y1="348.71" x2="415.49" y2="385.36" stroke="#f6465d" stroke-width="1.4" /><rect x="412.49" y="351.87" width="6" height="25.70" rx="1.5" fill="#f6465d" /><line x1="426.23" y1="363.38" x2="426.23" y2="388.94" stroke="#0ecb81" stroke-width="1.4" /><rect x="423.23" y="370.12" width="6" height="6.81" rx="1.5" fill="#0ecb81" /><line x1="436.96" y1="318.72" x2="436.96" y2="372.72" stroke="#0ecb81" stroke-width="1.4" /><rect x="433.96" y="333.05" width="6" height="37.08" rx="1.5" fill="#0ecb81" /><line x1="447.70" y1="328.62" x2="447.70" y2="352.43" stroke="#0ecb81" stroke-width="1.4" /><rect x="444.70" y="331.93" width="6" height="2.00" rx="1.5" fill="#0ecb81" /><line x1="458.43" y1="314.44" x2="458.43" y2="359.31" stroke="#f6465d" stroke-width="1.4" /><rect x="455.43" y="332.56" width="6" height="19.87" rx="1.5" fill="#f6465d" /><line x1="469.16" y1="351.59" x2="469.16" y2="369.35" stroke="#f6465d" stroke-width="1.4" /><rect x="466.16" y="352.43" width="6" height="4.92" rx="1.5" fill="#f6465d" /><line x1="479.90" y1="336.28" x2="479.90" y2="359.80" stroke="#0ecb81" stroke-width="1.4" /><rect x="476.90" y="352.99" width="6" height="4.49" rx="1.5" fill="#0ecb81" /><line x1="490.63" y1="349.69" x2="490.63" y2="372.37" stroke="#f6465d" stroke-width="1.4" /><rect x="487.63" y="352.85" width="6" height="13.34" rx="1.5" fill="#f6465d" /><line x1="501.37" y1="340.42" x2="501.37" y2="368.79" stroke="#0ecb81" stroke-width="1.4" /><rect x="498.37" y="350.18" width="6" height="15.45" rx="1.5" fill="#0ecb81" /><line x1="512.10" y1="340.56" x2="512.10" y2="366.12" stroke="#f6465d" stroke-width="1.4" /><rect x="509.10" y="350.18" width="6" height="4.42" rx="1.5" fill="#f6465d" /><line x1="522.84" y1="291.20" x2="522.84" y2="358.26" stroke="#0ecb81" stroke-width="1.4" /><rect x="519.84" y="297.59" width="6" height="57.02" rx="1.5" fill="#0ecb81" /><line x1="533.57" y1="234.53" x2="533.57" y2="300.12" stroke="#0ecb81" stroke-width="1.4" /><rect x="530.57" y="264.16" width="6" height="33.00" rx="1.5" fill="#0ecb81" /><line x1="544.30" y1="216.13" x2="544.30" y2="273.92" stroke="#0ecb81" stroke-width="1.4" /><rect x="541.30" y="261.85" width="6" height="2.46" rx="1.5" fill="#0ecb81" /><line x1="555.04" y1="234.60" x2="555.04" y2="352.85" stroke="#f6465d" stroke-width="1.4" /><rect x="552.04" y="261.50" width="6" height="69.80" rx="1.5" fill="#f6465d" /><line x1="565.77" y1="285.51" x2="565.77" y2="341.05" stroke="#0ecb81" stroke-width="1.4" /><rect x="562.77" y="294.92" width="6" height="35.60" rx="1.5" fill="#0ecb81" /><line x1="576.51" y1="251.31" x2="576.51" y2="308.19" stroke="#0ecb81" stroke-width="1.4" /><rect x="573.51" y="268.24" width="6" height="26.82" rx="1.5" fill="#0ecb81" /><line x1="587.24" y1="251.81" x2="587.24" y2="291.41" stroke="#0ecb81" stroke-width="1.4" /><rect x="584.24" y="267.82" width="6" height="2.00" rx="1.5" fill="#0ecb81" /><line x1="597.97" y1="255.18" x2="597.97" y2="278.63" stroke="#0ecb81" stroke-width="1.4" /><rect x="594.97" y="267.11" width="6" height="2.00" rx="1.5" fill="#0ecb81" /><line x1="608.71" y1="248.57" x2="608.71" y2="286.21" stroke="#f6465d" stroke-width="1.4" /><rect x="605.71" y="266.97" width="6" height="2.25" rx="1.5" fill="#f6465d" /><line x1="619.44" y1="250.05" x2="619.44" y2="320.90" stroke="#0ecb81" stroke-width="1.4" /><rect x="616.44" y="258.27" width="6" height="11.09" rx="1.5" fill="#0ecb81" /><line x1="630.18" y1="252.02" x2="630.18" y2="271.40" stroke="#0ecb81" stroke-width="1.4" /><rect x="627.18" y="258.12" width="6" height="2.00" rx="1.5" fill="#0ecb81" /><line x1="640.91" y1="245.77" x2="640.91" y2="265.99" stroke="#0ecb81" stroke-width="1.4" /><rect x="637.91" y="250.82" width="6" height="7.44" rx="1.5" fill="#0ecb81" /><line x1="651.65" y1="248.50" x2="651.65" y2="272.80" stroke="#f6465d" stroke-width="1.4" /><rect x="648.65" y="250.82" width="6" height="5.48" rx="1.5" fill="#f6465d" /><line x1="662.38" y1="255.81" x2="662.38" y2="273.50" stroke="#f6465d" stroke-width="1.4" /><rect x="659.38" y="256.23" width="6" height="3.58" rx="1.5" fill="#f6465d" /><line x1="673.11" y1="237.90" x2="673.11" y2="285.58" stroke="#0ecb81" stroke-width="1.4" /><rect x="670.11" y="246.05" width="6" height="13.69" rx="1.5" fill="#0ecb81" /><line x1="683.85" y1="245.42" x2="683.85" y2="263.04" stroke="#f6465d" stroke-width="1.4" /><rect x="680.85" y="245.98" width="6" height="5.41" rx="1.5" fill="#f6465d" /><line x1="694.58" y1="227.44" x2="694.58" y2="252.16" stroke="#0ecb81" stroke-width="1.4" /><rect x="691.58" y="228.91" width="6" height="22.89" rx="1.5" fill="#0ecb81" /><line x1="705.32" y1="198.09" x2="705.32" y2="243.66" stroke="#f6465d" stroke-width="1.4" /><rect x="702.32" y="228.91" width="6" height="4.28" rx="1.5" fill="#f6465d" /><line x1="716.05" y1="208.90" x2="716.05" y2="243.31" stroke="#0ecb81" stroke-width="1.4" /><rect x="713.05" y="221.19" width="6" height="12.15" rx="1.5" fill="#0ecb81" /><line x1="726.78" y1="207.64" x2="726.78" y2="241.48" stroke="#0ecb81" stroke-width="1.4" /><rect x="723.78" y="207.92" width="6" height="12.99" rx="1.5" fill="#0ecb81" /><line x1="737.52" y1="163.33" x2="737.52" y2="213.04" stroke="#0ecb81" stroke-width="1.4" /><rect x="734.52" y="165.08" width="6" height="43.26" rx="1.5" fill="#0ecb81" /><line x1="748.25" y1="161.01" x2="748.25" y2="213.11" stroke="#f6465d" stroke-width="1.4" /><rect x="745.25" y="165.15" width="6" height="29.63" rx="1.5" fill="#f6465d" /><line x1="758.99" y1="152.44" x2="758.99" y2="195.70" stroke="#0ecb81" stroke-width="1.4" /><rect x="755.99" y="159.12" width="6" height="35.67" rx="1.5" fill="#0ecb81" /><line x1="769.72" y1="151.04" x2="769.72" y2="188.12" stroke="#f6465d" stroke-width="1.4" /><rect x="766.72" y="159.12" width="6" height="2.00" rx="1.5" fill="#f6465d" /><line x1="780.46" y1="127.38" x2="780.46" y2="177.65" stroke="#0ecb81" stroke-width="1.4" /><rect x="777.46" y="130.68" width="6" height="29.70" rx="1.5" fill="#0ecb81" /><line x1="791.19" y1="126.11" x2="791.19" y2="150.90" stroke="#0ecb81" stroke-width="1.4" /><rect x="788.19" y="130.61" width="6" height="2.00" rx="1.5" fill="#0ecb81" /><line x1="801.92" y1="108.07" x2="801.92" y2="136.58" stroke="#0ecb81" stroke-width="1.4" /><rect x="798.92" y="109.40" width="6" height="21.35" rx="1.5" fill="#0ecb81" /><line x1="812.66" y1="97.39" x2="812.66" y2="119.65" stroke="#0ecb81" stroke-width="1.4" /><rect x="809.66" y="101.68" width="6" height="7.51" rx="1.5" fill="#0ecb81" /><line x1="823.39" y1="65.51" x2="823.39" y2="142.12" stroke="#0ecb81" stroke-width="1.4" /><rect x="820.39" y="78.50" width="6" height="23.31" rx="1.5" fill="#0ecb81" /><line x1="834.13" y1="74.57" x2="834.13" y2="137.49" stroke="#f6465d" stroke-width="1.4" /><rect x="831.13" y="79.14" width="6" height="29.98" rx="1.5" fill="#f6465d" /><line x1="844.86" y1="66.99" x2="844.86" y2="207.43" stroke="#f6465d" stroke-width="1.4" /><rect x="841.86" y="109.33" width="6" height="65.65" rx="1.5" fill="#f6465d" /><line x1="855.59" y1="90.51" x2="855.59" y2="175.48" stroke="#0ecb81" stroke-width="1.4" /><rect x="852.59" y="120.71" width="6" height="54.21" rx="1.5" fill="#0ecb81" /><line x1="866.33" y1="98.02" x2="866.33" y2="158.20" stroke="#0ecb81" stroke-width="1.4" /><rect x="863.33" y="114.60" width="6" height="5.83" rx="1.5" fill="#0ecb81" /><line x1="877.06" y1="97.67" x2="877.06" y2="137.35" stroke="#0ecb81" stroke-width="1.4" /><rect x="874.06" y="112.42" width="6" height="2.32" rx="1.5" fill="#0ecb81" /><line x1="887.80" y1="95.99" x2="887.80" y2="153.85" stroke="#f6465d" stroke-width="1.4" /><rect x="884.80" y="111.93" width="6" height="13.06" rx="1.5" fill="#f6465d" /><line x1="898.53" y1="93.25" x2="898.53" y2="131.52" stroke="#0ecb81" stroke-width="1.4" /><rect x="895.53" y="98.87" width="6" height="26.12" rx="1.5" fill="#0ecb81" /><line x1="909.27" y1="74.22" x2="909.27" y2="108.91" stroke="#0ecb81" stroke-width="1.4" /><rect x="906.27" y="94.94" width="6" height="4.14" rx="1.5" fill="#0ecb81" /><line x1="920.00" y1="58.00" x2="920.00" y2="94.79" stroke="#0ecb81" stroke-width="1.4" /><rect x="917.00" y="59.69" width="6" height="35.04" rx="1.5" fill="#0ecb81" />
  <polyline points="275.95,405.73 308.15,318.72 329.62,377.78 394.03,316.48 426.23,388.94" fill="none" stroke="#2fc273" stroke-width="4" stroke-linecap="round" stroke-linejoin="round" />
  <circle cx="275.95" cy="405.73" r="5.5" fill="#2fc273" fill-opacity="0.15" stroke="#2fc273" stroke-width="2" /><text x="275.95" y="393.73" fill="#f3f4f6" font-size="15" font-weight="700" text-anchor="middle">X</text><circle cx="308.15" cy="318.72" r="5.5" fill="#2fc273" fill-opacity="0.15" stroke="#2fc273" stroke-width="2" /><text x="308.15" y="306.72" fill="#f3f4f6" font-size="15" font-weight="700" text-anchor="middle">A</text><circle cx="329.62" cy="377.78" r="5.5" fill="#2fc273" fill-opacity="0.15" stroke="#2fc273" stroke-width="2" /><text x="329.62" y="365.78" fill="#f3f4f6" font-size="15" font-weight="700" text-anchor="middle">B</text><circle cx="394.03" cy="316.48" r="5.5" fill="#2fc273" fill-opacity="0.15" stroke="#2fc273" stroke-width="2" /><text x="394.03" y="304.48" fill="#f3f4f6" font-size="15" font-weight="700" text-anchor="middle">C</text><circle cx="426.23" cy="388.94" r="5.5" fill="#2fc273" fill-opacity="0.15" stroke="#2fc273" stroke-width="2" /><text x="426.23" y="376.94" fill="#f3f4f6" font-size="15" font-weight="700" text-anchor="middle">D</text>
  <text x="56" y="492" fill="#8ba0b5" font-size="18">Complete · TP1 0.35394 · TP2 0.35638 · SL 0.34839</text>
</svg>
