<svg xmlns="http://www.w3.org/2000/svg" width="960" height="540" viewBox="0 0 960 540">
  <rect width="960" height="540" rx="24" fill="#0b1220" />
  <rect x="28" y="28" width="904" height="484" rx="22" fill="#111827" stroke="#1f2937" />
  <text x="56" y="74" fill="#f3f4f6" font-size="34" font-weight="700">CTSIUSDT · AB=CD</text>
  <text x="904" y="74" fill="#8ba0b5" font-size="20" text-anchor="end">Bearish (매도) · Score 84.7</text>
  <line x1="72" y1="58" x2="920" y2="58" stroke="#223045" stroke-width="1" stroke-dasharray="4 8" /><line x1="72" y1="156" x2="920" y2="156" stroke="#223045" stroke-width="1" stroke-dasharray="4 8" /><line x1="72" y1="255" x2="920" y2="255" stroke="#223045" stroke-width="1" stroke-dasharray="4 8" /><line x1="72" y1="353" x2="920" y2="353" stroke="#223045" stroke-width="1" stroke-dasharray="4 8" /><line x1="72" y1="452" x2="920" y2="452" stroke="#223045" stroke-width="1" stroke-dasharray="4 8" />
  <rect x="645.11" y="268.53" width="84" height="31.07" fill="#fbbf24" fill-opacity="0.12" stroke="#fbbf24" stroke-width="1.5" stroke-dasharray="6 6" />
  <line x1="72.00" y1="58.00" x2="72.00" y2="95.17" stroke="#0ecb81" stroke-width="1.4" /><rect x="69.00" y="80.30" width="6" height="3.72" rx="1.5" fill="#0ecb81" /><line x1="82.73" y1="76.58" x2="82.73" y2="121.19" stroke="#f6465d" stroke-width="1.4" /><rect x="79.73" y="76.58" width="6" height="37.17" rx="1.5" fill="#f6465d" /><line x1="93.47" y1="106.32" x2="93.47" y2="136.06" stroke="#f6465d" stroke-width="1.4" /><rect x="90.47" y="113.75" width="6" height="18.58" rx="1.5" fill="#f6465d" /><line x1="104.20" y1="117.47" x2="104.20" y2="154.64" stroke="#f6465d" stroke-width="1.4" /><rect x="101.20" y="132.34" width="6" height="22.30" rx="1.5" fill="#f6465d" /><line x1="114.94" y1="128.62" x2="114.94" y2="154.64" stroke="#0ecb81" stroke-width="1.4" /><rect x="111.94" y="132.34" width="6" height="22.30" rx="1.5" fill="#0ecb81" /><line x1="125.67" y1="128.62" x2="125.67" y2="154.64" stroke="#f6465d" stroke-width="1.4" /><rect x="122.67" y="128.62" width="6" height="18.58" rx="1.5" fill="#f6465d" /><line x1="136.41" y1="113.75" x2="136.41" y2="154.64" stroke="#0ecb81" stroke-width="1.4" /><rect x="133.41" y="121.19" width="6" height="29.74" rx="1.5" fill="#0ecb81" /><line x1="147.14" y1="91.45" x2="147.14" y2="128.62" stroke="#0ecb81" stroke-width="1.4" /><rect x="144.14" y="113.75" width="6" height="7.43" rx="1.5" fill="#0ecb81" /><line x1="157.87" y1="113.75" x2="157.87" y2="136.06" stroke="#f6465d" stroke-width="1.4" /><rect x="154.87" y="117.47" width="6" height="18.58" rx="1.5" fill="#f6465d" /><line x1="168.61" y1="132.34" x2="168.61" y2="150.92" stroke="#f6465d" stroke-width="1.4" /><rect x="165.61" y="136.06" width="6" height="3.72" rx="1.5" fill="#f6465d" /><line x1="179.34" y1="136.06" x2="179.34" y2="154.64" stroke="#f6465d" stroke-width="1.4" /><rect x="176.34" y="143.49" width="6" height="11.15" rx="1.5" fill="#f6465d" /><line x1="190.08" y1="150.92" x2="190.08" y2="236.42" stroke="#f6465d" stroke-width="1.4" /><rect x="187.08" y="154.64" width="6" height="81.77" rx="1.5" fill="#f6465d" /><line x1="200.81" y1="195.53" x2="200.81" y2="236.42" stroke="#0ecb81" stroke-width="1.4" /><rect x="197.81" y="202.96" width="6" height="29.74" rx="1.5" fill="#0ecb81" /><line x1="211.54" y1="169.51" x2="211.54" y2="206.68" stroke="#0ecb81" stroke-width="1.4" /><rect x="208.54" y="188.09" width="6" height="18.58" rx="1.5" fill="#0ecb81" /><line x1="222.28" y1="180.66" x2="222.28" y2="199.25" stroke="#0ecb81" stroke-width="1.4" /><rect x="219.28" y="188.09" width="6" height="3.72" rx="1.5" fill="#0ecb81" /><line x1="233.01" y1="180.66" x2="233.01" y2="210.40" stroke="#f6465d" stroke-width="1.4" /><rect x="230.01" y="184.38" width="6" height="7.43" rx="1.5" fill="#f6465d" /><line x1="243.75" y1="154.64" x2="243.75" y2="195.53" stroke="#0ecb81" stroke-width="1.4" /><rect x="240.75" y="154.64" width="6" height="33.45" rx="1.5" fill="#0ecb81" /><line x1="254.48" y1="132.34" x2="254.48" y2="180.66" stroke="#f6465d" stroke-width="1.4" /><rect x="251.48" y="154.64" width="6" height="11.15" rx="1.5" fill="#f6465d" /><line x1="265.22" y1="165.79" x2="265.22" y2="188.09" stroke="#0ecb81" stroke-width="1.4" /><rect x="262.22" y="169.51" width="6" height="2.00" rx="1.5" fill="#0ecb81" /><line x1="275.95" y1="169.51" x2="275.95" y2="202.96" stroke="#f6465d" stroke-width="1.4" /><rect x="272.95" y="169.51" width="6" height="22.30" rx="1.5" fill="#f6465d" /><line x1="286.68" y1="165.79" x2="286.68" y2="195.53" stroke="#0ecb81" stroke-width="1.4" /><rect x="283.68" y="176.94" width="6" height="14.87" rx="1.5" fill="#0ecb81" /><line x1="297.42" y1="158.36" x2="297.42" y2="191.81" stroke="#f6465d" stroke-width="1.4" /><rect x="294.42" y="173.23" width="6" height="18.58" rx="1.5" fill="#f6465d" /><line x1="308.15" y1="184.38" x2="308.15" y2="221.55" stroke="#f6465d" stroke-width="1.4" /><rect x="305.15" y="191.81" width="6" height="29.74" rx="1.5" fill="#f6465d" /><line x1="318.89" y1="210.40" x2="318.89" y2="232.70" stroke="#f6465d" stroke-width="1.4" /><rect x="315.89" y="221.55" width="6" height="7.43" rx="1.5" fill="#f6465d" /><line x1="329.62" y1="210.40" x2="329.62" y2="232.70" stroke="#0ecb81" stroke-width="1.4" /><rect x="326.62" y="214.11" width="6" height="18.58" rx="1.5" fill="#0ecb81" /><line x1="340.35" y1="195.53" x2="340.35" y2="217.83" stroke="#f6465d" stroke-width="1.4" /><rect x="337.35" y="210.40" width="6" height="3.72" rx="1.5" fill="#f6465d" /><line x1="351.09" y1="188.09" x2="351.09" y2="217.83" stroke="#0ecb81" stroke-width="1.4" /><rect x="348.09" y="202.96" width="6" height="7.43" rx="1.5" fill="#0ecb81" /><line x1="361.82" y1="199.25" x2="361.82" y2="232.70" stroke="#f6465d" stroke-width="1.4" /><rect x="358.82" y="202.96" width="6" height="11.15" rx="1.5" fill="#f6465d" /><line x1="372.56" y1="169.51" x2="372.56" y2="217.83" stroke="#0ecb81" stroke-width="1.4" /><rect x="369.56" y="199.25" width="6" height="18.58" rx="1.5" fill="#0ecb81" /><line x1="383.29" y1="184.38" x2="383.29" y2="210.40" stroke="#0ecb81" stroke-width="1.4" /><rect x="380.29" y="191.81" width="6" height="11.15" rx="1.5" fill="#0ecb81" /><line x1="394.03" y1="184.38" x2="394.03" y2="210.40" stroke="#f6465d" stroke-width="1.4" /><rect x="391.03" y="188.09" width="6" height="18.58" rx="1.5" fill="#f6465d" /><line x1="404.76" y1="202.96" x2="404.76" y2="262.43" stroke="#f6465d" stroke-width="1.4" /><rect x="401.76" y="206.68" width="6" height="52.04" rx="1.5" fill="#f6465d" /><line x1="415.49" y1="228.98" x2="415.49" y2="269.87" stroke="#f6465d" stroke-width="1.4" /><rect x="412.49" y="258.72" width="6" height="11.15" rx="1.5" fill="#f6465d" /><line x1="426.23" y1="255.00" x2="426.23" y2="281.02" stroke="#0ecb81" stroke-width="1.4" /><rect x="423.23" y="262.43" width="6" height="3.72" rx="1.5" fill="#0ecb81" /><line x1="436.96" y1="251.28" x2="436.96" y2="303.32" stroke="#f6465d" stroke-width="1.4" /><rect x="433.96" y="266.15" width="6" height="26.02" rx="1.5" fill="#f6465d" /><line x1="447.70" y1="288.45" x2="447.70" y2="321.91" stroke="#f6465d" stroke-width="1.4" /><rect x="444.70" y="292.17" width="6" height="14.87" rx="1.5" fill="#f6465d" /><line x1="458.43" y1="303.32" x2="458.43" y2="325.62" stroke="#f6465d" stroke-width="1.4" /><rect x="455.43" y="307.04" width="6" height="14.87" rx="1.5" fill="#f6465d" /><line x1="469.16" y1="295.89" x2="469.16" y2="325.62" stroke="#0ecb81" stroke-width="1.4" /><rect x="466.16" y="307.04" width="6" height="14.87" rx="1.5" fill="#0ecb81" /><line x1="479.90" y1="299.60" x2="479.90" y2="318.19" stroke="#f6465d" stroke-width="1.4" /><rect x="476.90" y="307.04" width="6" height="11.15" rx="1.5" fill="#f6465d" /><line x1="490.63" y1="314.47" x2="490.63" y2="340.49" stroke="#f6465d" stroke-width="1.4" /><rect x="487.63" y="318.19" width="6" height="14.87" rx="1.5" fill="#f6465d" /><line x1="501.37" y1="321.91" x2="501.37" y2="340.49" stroke="#f6465d" stroke-width="1.4" /><rect x="498.37" y="329.34" width="6" height="3.72" rx="1.5" fill="#f6465d" /><line x1="512.10" y1="325.62" x2="512.10" y2="340.49" stroke="#f6465d" stroke-width="1.4" /><rect x="509.10" y="329.34" width="6" height="7.43" rx="1.5" fill="#f6465d" /><line x1="522.84" y1="333.06" x2="522.84" y2="355.36" stroke="#f6465d" stroke-width="1.4" /><rect x="519.84" y="333.06" width="6" height="14.87" rx="1.5" fill="#f6465d" /><line x1="533.57" y1="325.62" x2="533.57" y2="355.36" stroke="#0ecb81" stroke-width="1.4" /><rect x="530.57" y="329.34" width="6" height="18.58" rx="1.5" fill="#0ecb81" /><line x1="544.30" y1="329.34" x2="544.30" y2="370.23" stroke="#f6465d" stroke-width="1.4" /><rect x="541.30" y="333.06" width="6" height="26.02" rx="1.5" fill="#f6465d" /><line x1="555.04" y1="314.47" x2="555.04" y2="362.79" stroke="#0ecb81" stroke-width="1.4" /><rect x="552.04" y="329.34" width="6" height="29.74" rx="1.5" fill="#0ecb81" /><line x1="565.77" y1="310.75" x2="565.77" y2="333.06" stroke="#0ecb81" stroke-width="1.4" /><rect x="562.77" y="325.62" width="6" height="3.72" rx="1.5" fill="#0ecb81" /><line x1="576.51" y1="318.19" x2="576.51" y2="340.49" stroke="#f6465d" stroke-width="1.4" /><rect x="573.51" y="325.62" width="6" height="3.72" rx="1.5" fill="#f6465d" /><line x1="587.24" y1="310.75" x2="587.24" y2="333.06" stroke="#0ecb81" stroke-width="1.4" /><rect x="584.24" y="314.47" width="6" height="14.87" rx="1.5" fill="#0ecb81" /><line x1="597.97" y1="310.75" x2="597.97" y2="325.62" stroke="#f6465d" stroke-width="1.4" /><rect x="594.97" y="318.19" width="6" height="3.72" rx="1.5" fill="#f6465d" /><line x1="608.71" y1="321.91" x2="608.71" y2="336.77" stroke="#f6465d" stroke-width="1.4" /><rect x="605.71" y="325.62" width="6" height="3.72" rx="1.5" fill="#f6465d" /><line x1="619.44" y1="318.19" x2="619.44" y2="359.08" stroke="#f6465d" stroke-width="1.4" /><rect x="616.44" y="333.06" width="6" height="26.02" rx="1.5" fill="#f6465d" /><line x1="630.18" y1="340.49" x2="630.18" y2="359.08" stroke="#0ecb81" stroke-width="1.4" /><rect x="627.18" y="344.21" width="6" height="11.15" rx="1.5" fill="#0ecb81" /><line x1="640.91" y1="318.19" x2="640.91" y2="347.92" stroke="#0ecb81" stroke-width="1.4" /><rect x="637.91" y="318.19" width="6" height="29.74" rx="1.5" fill="#0ecb81" /><line x1="651.65" y1="299.60" x2="651.65" y2="325.62" stroke="#0ecb81" stroke-width="1.4" /><rect x="648.65" y="310.75" width="6" height="7.43" rx="1.5" fill="#0ecb81" /><line x1="662.38" y1="295.89" x2="662.38" y2="329.34" stroke="#0ecb81" stroke-width="1.4" /><rect x="659.38" y="299.60" width="6" height="11.15" rx="1.5" fill="#0ecb81" /><line x1="673.11" y1="281.02" x2="673.11" y2="318.19" stroke="#f6465d" stroke-width="1.4" /><rect x="670.11" y="299.60" width="6" height="14.87" rx="1.5" fill="#f6465d" /><line x1="683.85" y1="318.19" x2="683.85" y2="347.92" stroke="#f6465d" stroke-width="1.4" /><rect x="680.85" y="318.19" width="6" height="26.02" rx="1.5" fill="#f6465d" /><line x1="694.58" y1="333.06" x2="694.58" y2="347.92" stroke="#0ecb81" stroke-width="1.4" /><rect x="691.58" y="340.49" width="6" height="3.72" rx="1.5" fill="#0ecb81" /><line x1="705.32" y1="318.19" x2="705.32" y2="344.21" stroke="#0ecb81" stroke-width="1.4" /><rect x="702.32" y="318.19" width="6" height="26.02" rx="1.5" fill="#0ecb81" /><line x1="716.05" y1="318.19" x2="716.05" y2="344.21" stroke="#f6465d" stroke-width="1.4" /><rect x="713.05" y="318.19" width="6" height="22.30" rx="1.5" fill="#f6465d" /><line x1="726.78" y1="318.19" x2="726.78" y2="340.49" stroke="#0ecb81" stroke-width="1.4" /><rect x="723.78" y="325.62" width="6" height="14.87" rx="1.5" fill="#0ecb81" /><line x1="737.52" y1="318.19" x2="737.52" y2="340.49" stroke="#f6465d" stroke-width="1.4" /><rect x="734.52" y="325.62" width="6" height="11.15" rx="1.5" fill="#f6465d" /><line x1="748.25" y1="310.75" x2="748.25" y2="336.77" stroke="#0ecb81" stroke-width="1.4" /><rect x="745.25" y="314.47" width="6" height="22.30" rx="1.5" fill="#0ecb81" /><line x1="758.99" y1="284.74" x2="758.99" y2="318.19" stroke="#0ecb81" stroke-width="1.4" /><rect x="755.99" y="288.45" width="6" height="26.02" rx="1.5" fill="#0ecb81" /><line x1="769.72" y1="277.30" x2="769.72" y2="310.75" stroke="#f6465d" stroke-width="1.4" /><rect x="766.72" y="292.17" width="6" height="18.58" rx="1.5" fill="#f6465d" /><line x1="780.46" y1="307.04" x2="780.46" y2="333.06" stroke="#f6465d" stroke-width="1.4" /><rect x="777.46" y="310.75" width="6" height="18.58" rx="1.5" fill="#f6465d" /><line x1="791.19" y1="318.19" x2="791.19" y2="336.77" stroke="#0ecb81" stroke-width="1.4" /><rect x="788.19" y="325.62" width="6" height="7.43" rx="1.5" fill="#0ecb81" /><line x1="801.92" y1="318.19" x2="801.92" y2="329.34" stroke="#0ecb81" stroke-width="1.4" /><rect x="798.92" y="325.62" width="6" height="2.00" rx="1.5" fill="#0ecb81" /><line x1="812.66" y1="318.19" x2="812.66" y2="329.34" stroke="#0ecb81" stroke-width="1.4" /><rect x="809.66" y="321.91" width="6" height="3.72" rx="1.5" fill="#0ecb81" /><line x1="823.39" y1="318.19" x2="823.39" y2="329.34" stroke="#f6465d" stroke-width="1.4" /><rect x="820.39" y="321.91" width="6" height="7.43" rx="1.5" fill="#f6465d" /><line x1="834.13" y1="325.62" x2="834.13" y2="392.53" stroke="#f6465d" stroke-width="1.4" /><rect x="831.13" y="325.62" width="6" height="40.89" rx="1.5" fill="#f6465d" /><line x1="844.86" y1="359.08" x2="844.86" y2="388.81" stroke="#f6465d" stroke-width="1.4" /><rect x="841.86" y="366.51" width="6" height="11.15" rx="1.5" fill="#f6465d" /><line x1="855.59" y1="366.51" x2="855.59" y2="377.66" stroke="#0ecb81" stroke-width="1.4" /><rect x="852.59" y="373.94" width="6" height="3.72" rx="1.5" fill="#0ecb81" /><line x1="866.33" y1="370.23" x2="866.33" y2="396.25" stroke="#f6465d" stroke-width="1.4" /><rect x="863.33" y="373.94" width="6" height="18.58" rx="1.5" fill="#f6465d" /><line x1="877.06" y1="388.81" x2="877.06" y2="414.83" stroke="#f6465d" stroke-width="1.4" /><rect x="874.06" y="392.53" width="6" height="18.58" rx="1.5" fill="#f6465d" /><line x1="887.80" y1="407.40" x2="887.80" y2="448.28" stroke="#f6465d" stroke-width="1.4" /><rect x="884.80" y="407.40" width="6" height="26.02" rx="1.5" fill="#f6465d" /><line x1="898.53" y1="403.68" x2="898.53" y2="452.00" stroke="#0ecb81" stroke-width="1.4" /><rect x="895.53" y="407.40" width="6" height="26.02" rx="1.5" fill="#0ecb81" /><line x1="909.27" y1="407.40" x2="909.27" y2="452.00" stroke="#f6465d" stroke-width="1.4" /><rect x="906.27" y="407.40" width="6" height="26.02" rx="1.5" fill="#f6465d" /><line x1="920.00" y1="429.70" x2="920.00" y2="437.13" stroke="#0ecb81" stroke-width="1.4" /><rect x="917.00" y="429.70" width="6" height="7.43" rx="1.5" fill="#0ecb81" />
  <polyline points="372.56,169.51 544.30,370.23 597.97,310.75 630.18,359.08 673.11,281.02" fill="none" stroke="#2fc273" stroke-width="4" stroke-linecap="round" stroke-linejoin="round" />
  <circle cx="372.56" cy="169.51" r="5.5" fill="#2fc273" fill-opacity="0.15" stroke="#2fc273" stroke-width="2" /><text x="372.56" y="157.51" fill="#f3f4f6" font-size="15" font-weight="700" text-anchor="middle">X</text><circle cx="544.30" cy="370.23" r="5.5" fill="#2fc273" fill-opacity="0.15" stroke="#2fc273" stroke-width="2" /><text x="544.30" y="358.23" fill="#f3f4f6" font-size="15" font-weight="700" text-anchor="middle">A</text><circle cx="597.97" cy="310.75" r="5.5" fill="#2fc273" fill-opacity="0.15" stroke="#2fc273" stroke-width="2" /><text x="597.97" y="298.75" fill="#f3f4f6" font-size="15" font-weight="700" text-anchor="middle">B</text><circle cx="630.18" cy="359.08" r="5.5" fill="#2fc273" fill-opacity="0.15" stroke="#2fc273" stroke-width="2" /><text x="630.18" y="347.08" fill="#f3f4f6" font-size="15" font-weight="700" text-anchor="middle">C</text><circle cx="673.11" cy="281.02" r="5.5" fill="#2fc273" fill-opacity="0.15" stroke="#2fc273" stroke-width="2" /><text x="673.11" y="269.02" fill="#f3f4f6" font-size="15" font-weight="700" text-anchor="middle">D</text>
  <text x="56" y="492" fill="#8ba0b5" font-size="18">일반 완성 · TP1 0.039398 · TP2 0.038902 · SL 0.040902</text>
</svg>
