<svg xmlns="http://www.w3.org/2000/svg" width="960" height="540" viewBox="0 0 960 540">
  <rect width="960" height="540" rx="24" fill="#0b1220" />
  <rect x="28" y="28" width="904" height="484" rx="22" fill="#111827" stroke="#1f2937" />
  <text x="56" y="74" fill="#f3f4f6" font-size="34" font-weight="700">DRIFTUSDT · AB=CD</text>
  <text x="904" y="74" fill="#8ba0b5" font-size="20" text-anchor="end">Bearish (매도) · Score 83.6</text>
  <line x1="72" y1="58" x2="920" y2="58" stroke="#223045" stroke-width="1" stroke-dasharray="4 8" /><line x1="72" y1="156" x2="920" y2="156" stroke="#223045" stroke-width="1" stroke-dasharray="4 8" /><line x1="72" y1="255" x2="920" y2="255" stroke="#223045" stroke-width="1" stroke-dasharray="4 8" /><line x1="72" y1="353" x2="920" y2="353" stroke="#223045" stroke-width="1" stroke-dasharray="4 8" /><line x1="72" y1="452" x2="920" y2="452" stroke="#223045" stroke-width="1" stroke-dasharray="4 8" />
  <rect x="441.16" y="134.55" width="84" height="87.53" fill="#fbbf24" fill-opacity="0.12" stroke="#fbbf24" stroke-width="1.5" stroke-dasharray="6 6" />
  <line x1="72.00" y1="95.10" x2="72.00" y2="151.01" stroke="#0ecb81" stroke-width="1.4" /><rect x="69.00" y="101.89" width="6" height="17.77" rx="1.5" fill="#0ecb81" /><line x1="82.73" y1="76.29" x2="82.73" y2="112.87" stroke="#f6465d" stroke-width="1.4" /><rect x="79.73" y="100.85" width="6" height="2.61" rx="1.5" fill="#f6465d" /><line x1="93.47" y1="97.71" x2="93.47" y2="140.04" stroke="#f6465d" stroke-width="1.4" /><rect x="90.47" y="103.46" width="6" height="31.88" rx="1.5" fill="#f6465d" /><line x1="104.20" y1="98.76" x2="104.20" y2="140.04" stroke="#0ecb81" stroke-width="1.4" /><rect x="101.20" y="110.78" width="6" height="25.08" rx="1.5" fill="#0ecb81" /><line x1="114.94" y1="95.62" x2="114.94" y2="155.19" stroke="#0ecb81" stroke-width="1.4" /><rect x="111.94" y="95.62" width="6" height="15.15" rx="1.5" fill="#0ecb81" /><line x1="125.67" y1="58.00" x2="125.67" y2="154.15" stroke="#f6465d" stroke-width="1.4" /><rect x="122.67" y="96.15" width="6" height="36.58" rx="1.5" fill="#f6465d" /><line x1="136.41" y1="125.41" x2="136.41" y2="174.53" stroke="#f6465d" stroke-width="1.4" /><rect x="133.41" y="132.72" width="6" height="12.02" rx="1.5" fill="#f6465d" /><line x1="147.14" y1="96.15" x2="147.14" y2="150.49" stroke="#0ecb81" stroke-width="1.4" /><rect x="144.14" y="113.39" width="6" height="31.35" rx="1.5" fill="#0ecb81" /><line x1="157.87" y1="102.94" x2="157.87" y2="198.04" stroke="#f6465d" stroke-width="1.4" /><rect x="154.87" y="112.34" width="6" height="83.08" rx="1.5" fill="#f6465d" /><line x1="168.61" y1="170.35" x2="168.61" y2="389.82" stroke="#f6465d" stroke-width="1.4" /><rect x="165.61" y="195.43" width="6" height="164.60" rx="1.5" fill="#f6465d" /><line x1="179.34" y1="266.50" x2="179.34" y2="445.21" stroke="#f6465d" stroke-width="1.4" /><rect x="176.34" y="362.12" width="6" height="4.18" rx="1.5" fill="#f6465d" /><line x1="190.08" y1="354.28" x2="190.08" y2="452.00" stroke="#f6465d" stroke-width="1.4" /><rect x="187.08" y="366.82" width="6" height="45.98" rx="1.5" fill="#f6465d" /><line x1="200.81" y1="181.32" x2="200.81" y2="444.68" stroke="#0ecb81" stroke-width="1.4" /><rect x="197.81" y="260.75" width="6" height="151.54" rx="1.5" fill="#0ecb81" /><line x1="211.54" y1="235.14" x2="211.54" y2="381.98" stroke="#f6465d" stroke-width="1.4" /><rect x="208.54" y="260.75" width="6" height="65.32" rx="1.5" fill="#f6465d" /><line x1="222.28" y1="237.23" x2="222.28" y2="327.11" stroke="#0ecb81" stroke-width="1.4" /><rect x="219.28" y="270.68" width="6" height="55.91" rx="1.5" fill="#0ecb81" /><line x1="233.01" y1="182.89" x2="233.01" y2="280.08" stroke="#0ecb81" stroke-width="1.4" /><rect x="230.01" y="210.58" width="6" height="60.09" rx="1.5" fill="#0ecb81" /><line x1="243.75" y1="193.34" x2="243.75" y2="246.12" stroke="#f6465d" stroke-width="1.4" /><rect x="240.75" y="210.06" width="6" height="22.99" rx="1.5" fill="#f6465d" /><line x1="254.48" y1="169.30" x2="254.48" y2="268.59" stroke="#f6465d" stroke-width="1.4" /><rect x="251.48" y="233.58" width="6" height="22.99" rx="1.5" fill="#f6465d" /><line x1="265.22" y1="144.74" x2="265.22" y2="329.72" stroke="#0ecb81" stroke-width="1.4" /><rect x="262.22" y="168.26" width="6" height="88.31" rx="1.5" fill="#0ecb81" /><line x1="275.95" y1="158.85" x2="275.95" y2="214.24" stroke="#f6465d" stroke-width="1.4" /><rect x="272.95" y="168.26" width="6" height="19.33" rx="1.5" fill="#f6465d" /><line x1="286.68" y1="148.40" x2="286.68" y2="309.87" stroke="#f6465d" stroke-width="1.4" /><rect x="283.68" y="187.07" width="6" height="57.48" rx="1.5" fill="#f6465d" /><line x1="297.42" y1="237.23" x2="297.42" y2="272.77" stroke="#f6465d" stroke-width="1.4" /><rect x="294.42" y="245.07" width="6" height="5.23" rx="1.5" fill="#f6465d" /><line x1="308.15" y1="218.42" x2="308.15" y2="273.81" stroke="#0ecb81" stroke-width="1.4" /><rect x="305.15" y="235.14" width="6" height="15.15" rx="1.5" fill="#0ecb81" /><line x1="318.89" y1="193.86" x2="318.89" y2="272.24" stroke="#f6465d" stroke-width="1.4" /><rect x="315.89" y="234.10" width="6" height="18.81" rx="1.5" fill="#f6465d" /><line x1="329.62" y1="245.07" x2="329.62" y2="392.43" stroke="#f6465d" stroke-width="1.4" /><rect x="326.62" y="252.39" width="6" height="133.77" rx="1.5" fill="#f6465d" /><line x1="340.35" y1="319.80" x2="340.35" y2="406.02" stroke="#0ecb81" stroke-width="1.4" /><rect x="337.35" y="352.19" width="6" height="33.97" rx="1.5" fill="#0ecb81" /><line x1="351.09" y1="308.82" x2="351.09" y2="362.64" stroke="#0ecb81" stroke-width="1.4" /><rect x="348.09" y="334.95" width="6" height="17.24" rx="1.5" fill="#0ecb81" /><line x1="361.82" y1="302.55" x2="361.82" y2="339.13" stroke="#0ecb81" stroke-width="1.4" /><rect x="358.82" y="323.45" width="6" height="10.97" rx="1.5" fill="#0ecb81" /><line x1="372.56" y1="304.64" x2="372.56" y2="349.58" stroke="#f6465d" stroke-width="1.4" /><rect x="369.56" y="321.89" width="6" height="2.00" rx="1.5" fill="#f6465d" /><line x1="383.29" y1="276.42" x2="383.29" y2="337.04" stroke="#0ecb81" stroke-width="1.4" /><rect x="380.29" y="279.04" width="6" height="44.94" rx="1.5" fill="#0ecb81" /><line x1="394.03" y1="248.73" x2="394.03" y2="379.37" stroke="#f6465d" stroke-width="1.4" /><rect x="391.03" y="279.04" width="6" height="53.82" rx="1.5" fill="#f6465d" /><line x1="404.76" y1="318.75" x2="404.76" y2="356.37" stroke="#f6465d" stroke-width="1.4" /><rect x="401.76" y="332.34" width="6" height="10.97" rx="1.5" fill="#f6465d" /><line x1="415.49" y1="284.79" x2="415.49" y2="370.48" stroke="#0ecb81" stroke-width="1.4" /><rect x="412.49" y="297.85" width="6" height="45.46" rx="1.5" fill="#0ecb81" /><line x1="426.23" y1="273.29" x2="426.23" y2="310.39" stroke="#0ecb81" stroke-width="1.4" /><rect x="423.23" y="283.74" width="6" height="14.11" rx="1.5" fill="#0ecb81" /><line x1="436.96" y1="258.66" x2="436.96" y2="301.51" stroke="#0ecb81" stroke-width="1.4" /><rect x="433.96" y="276.95" width="6" height="5.75" rx="1.5" fill="#0ecb81" /><line x1="447.70" y1="267.02" x2="447.70" y2="308.82" stroke="#0ecb81" stroke-width="1.4" /><rect x="444.70" y="273.81" width="6" height="3.14" rx="1.5" fill="#0ecb81" /><line x1="458.43" y1="265.97" x2="458.43" y2="315.09" stroke="#f6465d" stroke-width="1.4" /><rect x="455.43" y="273.29" width="6" height="17.77" rx="1.5" fill="#f6465d" /><line x1="469.16" y1="204.84" x2="469.16" y2="293.67" stroke="#0ecb81" stroke-width="1.4" /><rect x="466.16" y="218.94" width="6" height="72.11" rx="1.5" fill="#0ecb81" /><line x1="479.90" y1="211.63" x2="479.90" y2="303.60" stroke="#f6465d" stroke-width="1.4" /><rect x="476.90" y="219.47" width="6" height="40.24" rx="1.5" fill="#f6465d" /><line x1="490.63" y1="255.00" x2="490.63" y2="282.69" stroke="#0ecb81" stroke-width="1.4" /><rect x="487.63" y="258.66" width="6" height="2.00" rx="1.5" fill="#0ecb81" /><line x1="501.37" y1="253.43" x2="501.37" y2="308.82" stroke="#f6465d" stroke-width="1.4" /><rect x="498.37" y="260.23" width="6" height="20.38" rx="1.5" fill="#f6465d" /><line x1="512.10" y1="267.02" x2="512.10" y2="300.46" stroke="#f6465d" stroke-width="1.4" /><rect x="509.10" y="281.65" width="6" height="4.18" rx="1.5" fill="#f6465d" /><line x1="522.84" y1="257.61" x2="522.84" y2="291.58" stroke="#0ecb81" stroke-width="1.4" /><rect x="519.84" y="264.41" width="6" height="21.95" rx="1.5" fill="#0ecb81" /><line x1="533.57" y1="223.65" x2="533.57" y2="272.77" stroke="#0ecb81" stroke-width="1.4" /><rect x="530.57" y="234.10" width="6" height="30.83" rx="1.5" fill="#0ecb81" /><line x1="544.30" y1="224.17" x2="544.30" y2="293.15" stroke="#f6465d" stroke-width="1.4" /><rect x="541.30" y="233.05" width="6" height="33.44" rx="1.5" fill="#f6465d" /><line x1="555.04" y1="253.95" x2="555.04" y2="281.13" stroke="#f6465d" stroke-width="1.4" /><rect x="552.04" y="266.50" width="6" height="8.36" rx="1.5" fill="#f6465d" /><line x1="565.77" y1="249.77" x2="565.77" y2="276.95" stroke="#0ecb81" stroke-width="1.4" /><rect x="562.77" y="256.57" width="6" height="18.81" rx="1.5" fill="#0ecb81" /><line x1="576.51" y1="247.16" x2="576.51" y2="269.11" stroke="#f6465d" stroke-width="1.4" /><rect x="573.51" y="256.05" width="6" height="7.84" rx="1.5" fill="#f6465d" /><line x1="587.24" y1="256.05" x2="587.24" y2="332.86" stroke="#f6465d" stroke-width="1.4" /><rect x="584.24" y="263.88" width="6" height="62.18" rx="1.5" fill="#f6465d" /><line x1="597.97" y1="283.22" x2="597.97" y2="345.40" stroke="#0ecb81" stroke-width="1.4" /><rect x="594.97" y="284.26" width="6" height="41.80" rx="1.5" fill="#0ecb81" /><line x1="608.71" y1="268.06" x2="608.71" y2="292.10" stroke="#0ecb81" stroke-width="1.4" /><rect x="605.71" y="278.51" width="6" height="5.75" rx="1.5" fill="#0ecb81" /><line x1="619.44" y1="269.63" x2="619.44" y2="290.53" stroke="#0ecb81" stroke-width="1.4" /><rect x="616.44" y="270.15" width="6" height="8.36" rx="1.5" fill="#0ecb81" /><line x1="630.18" y1="259.18" x2="630.18" y2="297.85" stroke="#f6465d" stroke-width="1.4" /><rect x="627.18" y="269.63" width="6" height="4.18" rx="1.5" fill="#f6465d" /><line x1="640.91" y1="239.32" x2="640.91" y2="277.47" stroke="#0ecb81" stroke-width="1.4" /><rect x="637.91" y="249.77" width="6" height="24.56" rx="1.5" fill="#0ecb81" /><line x1="651.65" y1="240.89" x2="651.65" y2="274.33" stroke="#f6465d" stroke-width="1.4" /><rect x="648.65" y="250.30" width="6" height="8.36" rx="1.5" fill="#f6465d" /><line x1="662.38" y1="236.19" x2="662.38" y2="272.77" stroke="#0ecb81" stroke-width="1.4" /><rect x="659.38" y="250.82" width="6" height="7.84" rx="1.5" fill="#0ecb81" /><line x1="673.11" y1="236.19" x2="673.11" y2="295.76" stroke="#f6465d" stroke-width="1.4" /><rect x="670.11" y="249.25" width="6" height="3.66" rx="1.5" fill="#f6465d" /><line x1="683.85" y1="240.89" x2="683.85" y2="262.84" stroke="#0ecb81" stroke-width="1.4" /><rect x="680.85" y="244.55" width="6" height="7.84" rx="1.5" fill="#0ecb81" /><line x1="694.58" y1="177.66" x2="694.58" y2="252.39" stroke="#0ecb81" stroke-width="1.4" /><rect x="691.58" y="179.23" width="6" height="65.32" rx="1.5" fill="#0ecb81" /><line x1="705.32" y1="74.72" x2="705.32" y2="204.31" stroke="#0ecb81" stroke-width="1.4" /><rect x="702.32" y="109.21" width="6" height="70.02" rx="1.5" fill="#0ecb81" /><line x1="716.05" y1="94.58" x2="716.05" y2="185.50" stroke="#0ecb81" stroke-width="1.4" /><rect x="713.05" y="108.69" width="6" height="2.00" rx="1.5" fill="#0ecb81" /><line x1="726.78" y1="86.74" x2="726.78" y2="140.04" stroke="#f6465d" stroke-width="1.4" /><rect x="723.78" y="108.16" width="6" height="2.00" rx="1.5" fill="#f6465d" /><line x1="737.52" y1="86.22" x2="737.52" y2="118.09" stroke="#f6465d" stroke-width="1.4" /><rect x="734.52" y="109.21" width="6" height="3.14" rx="1.5" fill="#f6465d" /><line x1="748.25" y1="83.60" x2="748.25" y2="119.66" stroke="#0ecb81" stroke-width="1.4" /><rect x="745.25" y="103.98" width="6" height="7.84" rx="1.5" fill="#0ecb81" /><line x1="758.99" y1="100.85" x2="758.99" y2="275.38" stroke="#f6465d" stroke-width="1.4" /><rect x="755.99" y="103.98" width="6" height="55.39" rx="1.5" fill="#f6465d" /><line x1="769.72" y1="137.95" x2="769.72" y2="186.55" stroke="#f6465d" stroke-width="1.4" /><rect x="766.72" y="155.72" width="6" height="18.29" rx="1.5" fill="#f6465d" /><line x1="780.46" y1="155.72" x2="780.46" y2="228.87" stroke="#f6465d" stroke-width="1.4" /><rect x="777.46" y="174.01" width="6" height="51.73" rx="1.5" fill="#f6465d" /><line x1="791.19" y1="215.29" x2="791.19" y2="264.41" stroke="#f6465d" stroke-width="1.4" /><rect x="788.19" y="225.74" width="6" height="37.62" rx="1.5" fill="#f6465d" /><line x1="801.92" y1="256.05" x2="801.92" y2="319.80" stroke="#f6465d" stroke-width="1.4" /><rect x="798.92" y="263.36" width="6" height="28.74" rx="1.5" fill="#f6465d" /><line x1="812.66" y1="212.15" x2="812.66" y2="295.24" stroke="#0ecb81" stroke-width="1.4" /><rect x="809.66" y="224.17" width="6" height="67.93" rx="1.5" fill="#0ecb81" /><line x1="823.39" y1="191.77" x2="823.39" y2="244.55" stroke="#f6465d" stroke-width="1.4" /><rect x="820.39" y="223.65" width="6" height="15.15" rx="1.5" fill="#f6465d" /><line x1="834.13" y1="232.53" x2="834.13" y2="308.30" stroke="#f6465d" stroke-width="1.4" /><rect x="831.13" y="238.80" width="6" height="68.45" rx="1.5" fill="#f6465d" /><line x1="844.86" y1="281.13" x2="844.86" y2="337.56" stroke="#f6465d" stroke-width="1.4" /><rect x="841.86" y="307.25" width="6" height="15.68" rx="1.5" fill="#f6465d" /><line x1="855.59" y1="282.17" x2="855.59" y2="323.98" stroke="#0ecb81" stroke-width="1.4" /><rect x="852.59" y="320.84" width="6" height="2.09" rx="1.5" fill="#0ecb81" /><line x1="866.33" y1="315.09" x2="866.33" y2="374.14" stroke="#f6465d" stroke-width="1.4" /><rect x="863.33" y="320.84" width="6" height="14.11" rx="1.5" fill="#f6465d" /><line x1="877.06" y1="330.25" x2="877.06" y2="372.05" stroke="#f6465d" stroke-width="1.4" /><rect x="874.06" y="335.99" width="6" height="32.92" rx="1.5" fill="#f6465d" /><line x1="887.80" y1="342.79" x2="887.80" y2="374.14" stroke="#0ecb81" stroke-width="1.4" /><rect x="884.80" y="357.42" width="6" height="12.02" rx="1.5" fill="#0ecb81" /><line x1="898.53" y1="328.16" x2="898.53" y2="365.26" stroke="#0ecb81" stroke-width="1.4" /><rect x="895.53" y="342.27" width="6" height="15.15" rx="1.5" fill="#0ecb81" /><line x1="909.27" y1="333.38" x2="909.27" y2="406.02" stroke="#f6465d" stroke-width="1.4" /><rect x="906.27" y="342.79" width="6" height="48.60" rx="1.5" fill="#f6465d" /><line x1="920.00" y1="374.14" x2="920.00" y2="429.01" stroke="#f6465d" stroke-width="1.4" /><rect x="917.00" y="391.38" width="6" height="37.10" rx="1.5" fill="#f6465d" />
  <polyline points="265.22,144.74 340.35,406.02 394.03,248.73 394.03,379.37 469.16,204.84" fill="none" stroke="#2fc273" stroke-width="4" stroke-linecap="round" stroke-linejoin="round" />
  <circle cx="265.22" cy="144.74" r="5.5" fill="#2fc273" fill-opacity="0.15" stroke="#2fc273" stroke-width="2" /><text x="265.22" y="132.74" fill="#f3f4f6" font-size="15" font-weight="700" text-anchor="middle">X</text><circle cx="340.35" cy="406.02" r="5.5" fill="#2fc273" fill-opacity="0.15" stroke="#2fc273" stroke-width="2" /><text x="340.35" y="394.02" fill="#f3f4f6" font-size="15" font-weight="700" text-anchor="middle">A</text><circle cx="394.03" cy="248.73" r="5.5" fill="#2fc273" fill-opacity="0.15" stroke="#2fc273" stroke-width="2" /><text x="394.03" y="236.73" fill="#f3f4f6" font-size="15" font-weight="700" text-anchor="middle">B</text><circle cx="394.03" cy="379.37" r="5.5" fill="#2fc273" fill-opacity="0.15" stroke="#2fc273" stroke-width="2" /><text x="394.03" y="367.37" fill="#f3f4f6" font-size="15" font-weight="700" text-anchor="middle">C</text><circle cx="469.16" cy="204.84" r="5.5" fill="#2fc273" fill-opacity="0.15" stroke="#2fc273" stroke-width="2" /><text x="469.16" y="192.84" fill="#f3f4f6" font-size="15" font-weight="700" text-anchor="middle">D</text>
  <text x="56" y="492" fill="#8ba0b5" font-size="18">일반 완성 · TP1 0.043964 · TP2 0.043176 · SL 0.04589</text>
</svg>
