<svg xmlns="http://www.w3.org/2000/svg" width="960" height="540" viewBox="0 0 960 540">
  <rect width="960" height="540" rx="24" fill="#0b1220" />
  <rect x="28" y="28" width="904" height="484" rx="22" fill="#111827" stroke="#1f2937" />
  <text x="56" y="74" fill="#f3f4f6" font-size="34" font-weight="700">DUSDT · AB=CD</text>
  <text x="904" y="74" fill="#8ba0b5" font-size="20" text-anchor="end">Bullish (매수) · Score 75.2</text>
  <line x1="72" y1="58" x2="920" y2="58" stroke="#223045" stroke-width="1" stroke-dasharray="4 8" /><line x1="72" y1="156" x2="920" y2="156" stroke="#223045" stroke-width="1" stroke-dasharray="4 8" /><line x1="72" y1="255" x2="920" y2="255" stroke="#223045" stroke-width="1" stroke-dasharray="4 8" /><line x1="72" y1="353" x2="920" y2="353" stroke="#223045" stroke-width="1" stroke-dasharray="4 8" /><line x1="72" y1="452" x2="920" y2="452" stroke="#223045" stroke-width="1" stroke-dasharray="4 8" />
  <rect x="773.92" y="350.82" width="84" height="41.93" fill="#fbbf24" fill-opacity="0.12" stroke="#fbbf24" stroke-width="1.5" stroke-dasharray="6 6" />
  <line x1="72.00" y1="165.16" x2="72.00" y2="300.76" stroke="#0ecb81" stroke-width="1.4" /><rect x="69.00" y="234.99" width="6" height="59.56" rx="1.5" fill="#0ecb81" /><line x1="82.73" y1="193.45" x2="82.73" y2="257.07" stroke="#f6465d" stroke-width="1.4" /><rect x="79.73" y="235.91" width="6" height="18.86" rx="1.5" fill="#f6465d" /><line x1="93.47" y1="248.94" x2="93.47" y2="328.05" stroke="#f6465d" stroke-width="1.4" /><rect x="90.47" y="254.23" width="6" height="54.81" rx="1.5" fill="#f6465d" /><line x1="104.20" y1="286.66" x2="104.20" y2="312.72" stroke="#0ecb81" stroke-width="1.4" /><rect x="101.20" y="296.47" width="6" height="12.57" rx="1.5" fill="#0ecb81" /><line x1="114.94" y1="247.18" x2="114.94" y2="318.85" stroke="#0ecb81" stroke-width="1.4" /><rect x="111.94" y="260.37" width="6" height="36.33" rx="1.5" fill="#0ecb81" /><line x1="125.67" y1="249.71" x2="125.67" y2="285.35" stroke="#f6465d" stroke-width="1.4" /><rect x="122.67" y="260.29" width="6" height="13.80" rx="1.5" fill="#f6465d" /><line x1="136.41" y1="260.90" x2="136.41" y2="283.36" stroke="#0ecb81" stroke-width="1.4" /><rect x="133.41" y="272.78" width="6" height="2.00" rx="1.5" fill="#0ecb81" /><line x1="147.14" y1="261.36" x2="147.14" y2="299.69" stroke="#f6465d" stroke-width="1.4" /><rect x="144.14" y="273.40" width="6" height="5.44" rx="1.5" fill="#f6465d" /><line x1="157.87" y1="239.06" x2="157.87" y2="299.61" stroke="#f6465d" stroke-width="1.4" /><rect x="154.87" y="278.99" width="6" height="16.48" rx="1.5" fill="#f6465d" /><line x1="168.61" y1="281.06" x2="168.61" y2="294.86" stroke="#0ecb81" stroke-width="1.4" /><rect x="165.61" y="289.65" width="6" height="5.21" rx="1.5" fill="#0ecb81" /><line x1="179.34" y1="287.81" x2="179.34" y2="323.45" stroke="#f6465d" stroke-width="1.4" /><rect x="176.34" y="289.88" width="6" height="23.84" rx="1.5" fill="#f6465d" /><line x1="190.08" y1="313.10" x2="190.08" y2="352.04" stroke="#f6465d" stroke-width="1.4" /><rect x="187.08" y="313.49" width="6" height="18.63" rx="1.5" fill="#f6465d" /><line x1="200.81" y1="315.25" x2="200.81" y2="332.11" stroke="#0ecb81" stroke-width="1.4" /><rect x="197.81" y="322.15" width="6" height="9.96" rx="1.5" fill="#0ecb81" /><line x1="211.54" y1="293.79" x2="211.54" y2="328.20" stroke="#0ecb81" stroke-width="1.4" /><rect x="208.54" y="313.79" width="6" height="8.20" rx="1.5" fill="#0ecb81" /><line x1="222.28" y1="305.44" x2="222.28" y2="334.11" stroke="#f6465d" stroke-width="1.4" /><rect x="219.28" y="313.49" width="6" height="10.12" rx="1.5" fill="#f6465d" /><line x1="233.01" y1="300.00" x2="233.01" y2="329.89" stroke="#0ecb81" stroke-width="1.4" /><rect x="230.01" y="304.44" width="6" height="19.24" rx="1.5" fill="#0ecb81" /><line x1="243.75" y1="217.90" x2="243.75" y2="306.66" stroke="#0ecb81" stroke-width="1.4" /><rect x="240.75" y="285.74" width="6" height="18.01" rx="1.5" fill="#0ecb81" /><line x1="254.48" y1="282.29" x2="254.48" y2="321.08" stroke="#f6465d" stroke-width="1.4" /><rect x="251.48" y="285.66" width="6" height="22.31" rx="1.5" fill="#f6465d" /><line x1="265.22" y1="295.78" x2="265.22" y2="315.94" stroke="#0ecb81" stroke-width="1.4" /><rect x="262.22" y="297.08" width="6" height="10.65" rx="1.5" fill="#0ecb81" /><line x1="275.95" y1="274.32" x2="275.95" y2="307.43" stroke="#0ecb81" stroke-width="1.4" /><rect x="272.95" y="277.92" width="6" height="18.93" rx="1.5" fill="#0ecb81" /><line x1="286.68" y1="238.98" x2="286.68" y2="283.21" stroke="#0ecb81" stroke-width="1.4" /><rect x="283.68" y="253.31" width="6" height="24.61" rx="1.5" fill="#0ecb81" /><line x1="297.42" y1="219.05" x2="297.42" y2="265.81" stroke="#0ecb81" stroke-width="1.4" /><rect x="294.42" y="235.45" width="6" height="17.32" rx="1.5" fill="#0ecb81" /><line x1="308.15" y1="187.01" x2="308.15" y2="260.44" stroke="#f6465d" stroke-width="1.4" /><rect x="305.15" y="235.61" width="6" height="20.01" rx="1.5" fill="#f6465d" /><line x1="318.89" y1="224.95" x2="318.89" y2="275.08" stroke="#f6465d" stroke-width="1.4" /><rect x="315.89" y="255.84" width="6" height="2.00" rx="1.5" fill="#f6465d" /><line x1="329.62" y1="239.67" x2="329.62" y2="269.79" stroke="#0ecb81" stroke-width="1.4" /><rect x="326.62" y="256.00" width="6" height="2.00" rx="1.5" fill="#0ecb81" /><line x1="340.35" y1="250.40" x2="340.35" y2="274.47" stroke="#f6465d" stroke-width="1.4" /><rect x="337.35" y="256.00" width="6" height="7.67" rx="1.5" fill="#f6465d" /><line x1="351.09" y1="233.77" x2="351.09" y2="264.20" stroke="#0ecb81" stroke-width="1.4" /><rect x="348.09" y="235.76" width="6" height="28.06" rx="1.5" fill="#0ecb81" /><line x1="361.82" y1="210.23" x2="361.82" y2="246.26" stroke="#0ecb81" stroke-width="1.4" /><rect x="358.82" y="220.89" width="6" height="14.95" rx="1.5" fill="#0ecb81" /><line x1="372.56" y1="188.54" x2="372.56" y2="232.08" stroke="#0ecb81" stroke-width="1.4" /><rect x="369.56" y="213.30" width="6" height="7.97" rx="1.5" fill="#0ecb81" /><line x1="383.29" y1="194.21" x2="383.29" y2="235.15" stroke="#f6465d" stroke-width="1.4" /><rect x="380.29" y="212.61" width="6" height="21.69" rx="1.5" fill="#f6465d" /><line x1="394.03" y1="210.69" x2="394.03" y2="251.24" stroke="#0ecb81" stroke-width="1.4" /><rect x="391.03" y="213.07" width="6" height="21.46" rx="1.5" fill="#0ecb81" /><line x1="404.76" y1="182.41" x2="404.76" y2="216.06" stroke="#0ecb81" stroke-width="1.4" /><rect x="401.76" y="185.40" width="6" height="27.90" rx="1.5" fill="#0ecb81" /><line x1="415.49" y1="110.51" x2="415.49" y2="190.07" stroke="#0ecb81" stroke-width="1.4" /><rect x="412.49" y="151.90" width="6" height="33.73" rx="1.5" fill="#0ecb81" /><line x1="426.23" y1="134.81" x2="426.23" y2="167.69" stroke="#0ecb81" stroke-width="1.4" /><rect x="423.23" y="143.93" width="6" height="8.89" rx="1.5" fill="#0ecb81" /><line x1="436.96" y1="58.00" x2="436.96" y2="145.00" stroke="#0ecb81" stroke-width="1.4" /><rect x="433.96" y="84.68" width="6" height="59.41" rx="1.5" fill="#0ecb81" /><line x1="447.70" y1="70.80" x2="447.70" y2="161.18" stroke="#f6465d" stroke-width="1.4" /><rect x="444.70" y="84.68" width="6" height="53.50" rx="1.5" fill="#f6465d" /><line x1="458.43" y1="129.36" x2="458.43" y2="211.54" stroke="#f6465d" stroke-width="1.4" /><rect x="455.43" y="137.87" width="6" height="53.43" rx="1.5" fill="#f6465d" /><line x1="469.16" y1="138.03" x2="469.16" y2="192.07" stroke="#0ecb81" stroke-width="1.4" /><rect x="466.16" y="162.40" width="6" height="29.13" rx="1.5" fill="#0ecb81" /><line x1="479.90" y1="159.57" x2="479.90" y2="203.80" stroke="#f6465d" stroke-width="1.4" /><rect x="476.90" y="162.25" width="6" height="26.14" rx="1.5" fill="#f6465d" /><line x1="490.63" y1="186.24" x2="490.63" y2="244.50" stroke="#f6465d" stroke-width="1.4" /><rect x="487.63" y="187.93" width="6" height="48.83" rx="1.5" fill="#f6465d" /><line x1="501.37" y1="203.72" x2="501.37" y2="258.60" stroke="#0ecb81" stroke-width="1.4" /><rect x="498.37" y="234.00" width="6" height="2.76" rx="1.5" fill="#0ecb81" /><line x1="512.10" y1="227.48" x2="512.10" y2="259.83" stroke="#f6465d" stroke-width="1.4" /><rect x="509.10" y="234.30" width="6" height="8.51" rx="1.5" fill="#f6465d" /><line x1="522.84" y1="241.66" x2="522.84" y2="271.02" stroke="#f6465d" stroke-width="1.4" /><rect x="519.84" y="242.97" width="6" height="5.83" rx="1.5" fill="#f6465d" /><line x1="533.57" y1="240.28" x2="533.57" y2="262.51" stroke="#f6465d" stroke-width="1.4" /><rect x="530.57" y="248.56" width="6" height="5.14" rx="1.5" fill="#f6465d" /><line x1="544.30" y1="249.94" x2="544.30" y2="268.49" stroke="#0ecb81" stroke-width="1.4" /><rect x="541.30" y="250.63" width="6" height="3.22" rx="1.5" fill="#0ecb81" /><line x1="555.04" y1="231.62" x2="555.04" y2="251.78" stroke="#0ecb81" stroke-width="1.4" /><rect x="552.04" y="242.28" width="6" height="8.28" rx="1.5" fill="#0ecb81" /><line x1="565.77" y1="179.73" x2="565.77" y2="242.58" stroke="#0ecb81" stroke-width="1.4" /><rect x="562.77" y="198.81" width="6" height="42.93" rx="1.5" fill="#0ecb81" /><line x1="576.51" y1="198.81" x2="576.51" y2="223.65" stroke="#f6465d" stroke-width="1.4" /><rect x="573.51" y="198.81" width="6" height="22.54" rx="1.5" fill="#f6465d" /><line x1="587.24" y1="210.46" x2="587.24" y2="236.68" stroke="#0ecb81" stroke-width="1.4" /><rect x="584.24" y="214.83" width="6" height="6.21" rx="1.5" fill="#0ecb81" /><line x1="597.97" y1="205.25" x2="597.97" y2="233.77" stroke="#f6465d" stroke-width="1.4" /><rect x="594.97" y="213.84" width="6" height="6.29" rx="1.5" fill="#f6465d" /><line x1="608.71" y1="208.01" x2="608.71" y2="230.70" stroke="#0ecb81" stroke-width="1.4" /><rect x="605.71" y="212.76" width="6" height="7.51" rx="1.5" fill="#0ecb81" /><line x1="619.44" y1="191.61" x2="619.44" y2="213.45" stroke="#0ecb81" stroke-width="1.4" /><rect x="616.44" y="204.49" width="6" height="8.36" rx="1.5" fill="#0ecb81" /><line x1="630.18" y1="204.18" x2="630.18" y2="228.48" stroke="#f6465d" stroke-width="1.4" /><rect x="627.18" y="204.33" width="6" height="19.16" rx="1.5" fill="#f6465d" /><line x1="640.91" y1="216.14" x2="640.91" y2="236.83" stroke="#f6465d" stroke-width="1.4" /><rect x="637.91" y="223.50" width="6" height="3.37" rx="1.5" fill="#f6465d" /><line x1="651.65" y1="226.25" x2="651.65" y2="241.05" stroke="#f6465d" stroke-width="1.4" /><rect x="648.65" y="227.10" width="6" height="6.90" rx="1.5" fill="#f6465d" /><line x1="662.38" y1="231.39" x2="662.38" y2="251.93" stroke="#f6465d" stroke-width="1.4" /><rect x="659.38" y="234.38" width="6" height="10.88" rx="1.5" fill="#f6465d" /><line x1="673.11" y1="241.05" x2="673.11" y2="264.20" stroke="#f6465d" stroke-width="1.4" /><rect x="670.11" y="245.34" width="6" height="9.89" rx="1.5" fill="#f6465d" /><line x1="683.85" y1="248.41" x2="683.85" y2="272.09" stroke="#f6465d" stroke-width="1.4" /><rect x="680.85" y="255.15" width="6" height="12.03" rx="1.5" fill="#f6465d" /><line x1="694.58" y1="263.51" x2="694.58" y2="284.36" stroke="#0ecb81" stroke-width="1.4" /><rect x="691.58" y="266.42" width="6" height="2.00" rx="1.5" fill="#0ecb81" /><line x1="705.32" y1="259.22" x2="705.32" y2="275.77" stroke="#f6465d" stroke-width="1.4" /><rect x="702.32" y="266.27" width="6" height="5.37" rx="1.5" fill="#f6465d" /><line x1="716.05" y1="254.23" x2="716.05" y2="271.94" stroke="#0ecb81" stroke-width="1.4" /><rect x="713.05" y="258.14" width="6" height="13.49" rx="1.5" fill="#0ecb81" /><line x1="726.78" y1="237.75" x2="726.78" y2="304.98" stroke="#f6465d" stroke-width="1.4" /><rect x="723.78" y="258.07" width="6" height="25.91" rx="1.5" fill="#f6465d" /><line x1="737.52" y1="254.46" x2="737.52" y2="293.40" stroke="#0ecb81" stroke-width="1.4" /><rect x="734.52" y="258.83" width="6" height="25.22" rx="1.5" fill="#0ecb81" /><line x1="748.25" y1="248.48" x2="748.25" y2="272.09" stroke="#f6465d" stroke-width="1.4" /><rect x="745.25" y="258.91" width="6" height="8.59" rx="1.5" fill="#f6465d" /><line x1="758.99" y1="266.11" x2="758.99" y2="290.03" stroke="#f6465d" stroke-width="1.4" /><rect x="755.99" y="267.42" width="6" height="14.18" rx="1.5" fill="#f6465d" /><line x1="769.72" y1="266.34" x2="769.72" y2="284.82" stroke="#0ecb81" stroke-width="1.4" /><rect x="766.72" y="268.41" width="6" height="13.11" rx="1.5" fill="#0ecb81" /><line x1="780.46" y1="266.50" x2="780.46" y2="279.99" stroke="#f6465d" stroke-width="1.4" /><rect x="777.46" y="268.41" width="6" height="7.36" rx="1.5" fill="#f6465d" /><line x1="791.19" y1="272.86" x2="791.19" y2="302.22" stroke="#f6465d" stroke-width="1.4" /><rect x="788.19" y="275.62" width="6" height="23.92" rx="1.5" fill="#f6465d" /><line x1="801.92" y1="292.79" x2="801.92" y2="452.00" stroke="#f6465d" stroke-width="1.4" /><rect x="798.92" y="299.31" width="6" height="118.66" rx="1.5" fill="#f6465d" /><line x1="812.66" y1="377.65" x2="812.66" y2="432.61" stroke="#0ecb81" stroke-width="1.4" /><rect x="809.66" y="385.08" width="6" height="32.35" rx="1.5" fill="#0ecb81" /><line x1="823.39" y1="375.12" x2="823.39" y2="408.15" stroke="#f6465d" stroke-width="1.4" /><rect x="820.39" y="385.39" width="6" height="7.21" rx="1.5" fill="#f6465d" /><line x1="834.13" y1="385.16" x2="834.13" y2="402.41" stroke="#f6465d" stroke-width="1.4" /><rect x="831.13" y="392.36" width="6" height="7.90" rx="1.5" fill="#f6465d" /><line x1="844.86" y1="384.62" x2="844.86" y2="404.78" stroke="#0ecb81" stroke-width="1.4" /><rect x="841.86" y="392.90" width="6" height="7.28" rx="1.5" fill="#0ecb81" /><line x1="855.59" y1="382.09" x2="855.59" y2="395.43" stroke="#0ecb81" stroke-width="1.4" /><rect x="852.59" y="384.47" width="6" height="8.36" rx="1.5" fill="#0ecb81" /><line x1="866.33" y1="381.71" x2="866.33" y2="400.41" stroke="#f6465d" stroke-width="1.4" /><rect x="863.33" y="384.47" width="6" height="9.58" rx="1.5" fill="#f6465d" /><line x1="877.06" y1="390.06" x2="877.06" y2="404.93" stroke="#f6465d" stroke-width="1.4" /><rect x="874.06" y="393.82" width="6" height="7.36" rx="1.5" fill="#f6465d" /><line x1="887.80" y1="397.19" x2="887.80" y2="407.92" stroke="#0ecb81" stroke-width="1.4" /><rect x="884.80" y="400.34" width="6" height="2.00" rx="1.5" fill="#0ecb81" /><line x1="898.53" y1="399.57" x2="898.53" y2="416.59" stroke="#f6465d" stroke-width="1.4" /><rect x="895.53" y="400.18" width="6" height="8.59" rx="1.5" fill="#f6465d" /><line x1="909.27" y1="401.03" x2="909.27" y2="420.96" stroke="#0ecb81" stroke-width="1.4" /><rect x="906.27" y="402.33" width="6" height="6.36" rx="1.5" fill="#0ecb81" /><line x1="920.00" y1="399.49" x2="920.00" y2="407.69" stroke="#f6465d" stroke-width="1.4" /><rect x="917.00" y="402.33" width="6" height="2.00" rx="1.5" fill="#f6465d" />
  <polyline points="394.03,251.24 436.96,58.00 522.84,271.02 565.77,179.73 801.92,452.00" fill="none" stroke="#2fc273" stroke-width="4" stroke-linecap="round" stroke-linejoin="round" />
  <circle cx="394.03" cy="251.24" r="5.5" fill="#2fc273" fill-opacity="0.15" stroke="#2fc273" stroke-width="2" /><text x="394.03" y="239.24" fill="#f3f4f6" font-size="15" font-weight="700" text-anchor="middle">X</text><circle cx="436.96" cy="58.00" r="5.5" fill="#2fc273" fill-opacity="0.15" stroke="#2fc273" stroke-width="2" /><text x="436.96" y="46.00" fill="#f3f4f6" font-size="15" font-weight="700" text-anchor="middle">A</text><circle cx="522.84" cy="271.02" r="5.5" fill="#2fc273" fill-opacity="0.15" stroke="#2fc273" stroke-width="2" /><text x="522.84" y="259.02" fill="#f3f4f6" font-size="15" font-weight="700" text-anchor="middle">B</text><circle cx="565.77" cy="179.73" r="5.5" fill="#2fc273" fill-opacity="0.15" stroke="#2fc273" stroke-width="2" /><text x="565.77" y="167.73" fill="#f3f4f6" font-size="15" font-weight="700" text-anchor="middle">C</text><circle cx="801.92" cy="452.00" r="5.5" fill="#2fc273" fill-opacity="0.15" stroke="#2fc273" stroke-width="2" /><text x="801.92" y="440.00" fill="#f3f4f6" font-size="15" font-weight="700" text-anchor="middle">D</text>
  <text x="56" y="492" fill="#8ba0b5" font-size="18">일반 완성 · TP1 0.01226 · TP2 0.013098 · SL 0.010575</text>
</svg>
