<svg xmlns="http://www.w3.org/2000/svg" width="960" height="540" viewBox="0 0 960 540">
  <rect width="960" height="540" rx="24" fill="#0b1220" />
  <rect x="28" y="28" width="904" height="484" rx="22" fill="#111827" stroke="#1f2937" />
  <text x="56" y="74" fill="#f3f4f6" font-size="34" font-weight="700">EDGEUSDT · AB=CD</text>
  <text x="904" y="74" fill="#8ba0b5" font-size="20" text-anchor="end">Bullish (매수) · Score 82.5</text>
  <line x1="72" y1="58" x2="920" y2="58" stroke="#223045" stroke-width="1" stroke-dasharray="4 8" /><line x1="72" y1="156" x2="920" y2="156" stroke="#223045" stroke-width="1" stroke-dasharray="4 8" /><line x1="72" y1="255" x2="920" y2="255" stroke="#223045" stroke-width="1" stroke-dasharray="4 8" /><line x1="72" y1="353" x2="920" y2="353" stroke="#223045" stroke-width="1" stroke-dasharray="4 8" /><line x1="72" y1="452" x2="920" y2="452" stroke="#223045" stroke-width="1" stroke-dasharray="4 8" />
  <rect x="258.68" y="294.95" width="84" height="35.42" fill="#fbbf24" fill-opacity="0.12" stroke="#fbbf24" stroke-width="1.5" stroke-dasharray="6 6" />
  <line x1="72.00" y1="377.28" x2="72.00" y2="419.14" stroke="#0ecb81" stroke-width="1.4" /><rect x="69.00" y="379.70" width="6" height="38.74" rx="1.5" fill="#0ecb81" /><line x1="82.73" y1="363.79" x2="82.73" y2="400.80" stroke="#f6465d" stroke-width="1.4" /><rect x="79.73" y="380.05" width="6" height="10.38" rx="1.5" fill="#f6465d" /><line x1="93.47" y1="324.36" x2="93.47" y2="396.31" stroke="#0ecb81" stroke-width="1.4" /><rect x="90.47" y="324.70" width="6" height="66.07" rx="1.5" fill="#0ecb81" /><line x1="104.20" y1="199.13" x2="104.20" y2="354.80" stroke="#0ecb81" stroke-width="1.4" /><rect x="101.20" y="274.54" width="6" height="50.50" rx="1.5" fill="#0ecb81" /><line x1="114.94" y1="232.00" x2="114.94" y2="292.53" stroke="#0ecb81" stroke-width="1.4" /><rect x="111.94" y="253.10" width="6" height="21.10" rx="1.5" fill="#0ecb81" /><line x1="125.67" y1="218.16" x2="125.67" y2="278.00" stroke="#0ecb81" stroke-width="1.4" /><rect x="122.67" y="235.80" width="6" height="17.64" rx="1.5" fill="#0ecb81" /><line x1="136.41" y1="192.91" x2="136.41" y2="275.58" stroke="#f6465d" stroke-width="1.4" /><rect x="133.41" y="235.80" width="6" height="36.32" rx="1.5" fill="#f6465d" /><line x1="147.14" y1="230.61" x2="147.14" y2="293.92" stroke="#0ecb81" stroke-width="1.4" /><rect x="144.14" y="264.86" width="6" height="6.92" rx="1.5" fill="#0ecb81" /><line x1="157.87" y1="249.98" x2="157.87" y2="299.10" stroke="#f6465d" stroke-width="1.4" /><rect x="154.87" y="264.86" width="6" height="11.07" rx="1.5" fill="#f6465d" /><line x1="168.61" y1="252.75" x2="168.61" y2="295.65" stroke="#0ecb81" stroke-width="1.4" /><rect x="165.61" y="267.63" width="6" height="8.30" rx="1.5" fill="#0ecb81" /><line x1="179.34" y1="261.05" x2="179.34" y2="294.95" stroke="#f6465d" stroke-width="1.4" /><rect x="176.34" y="267.63" width="6" height="6.23" rx="1.5" fill="#f6465d" /><line x1="190.08" y1="260.02" x2="190.08" y2="285.96" stroke="#0ecb81" stroke-width="1.4" /><rect x="187.08" y="262.09" width="6" height="11.76" rx="1.5" fill="#0ecb81" /><line x1="200.81" y1="214.70" x2="200.81" y2="263.13" stroke="#0ecb81" stroke-width="1.4" /><rect x="197.81" y="220.24" width="6" height="41.86" rx="1.5" fill="#0ecb81" /><line x1="211.54" y1="207.44" x2="211.54" y2="239.26" stroke="#f6465d" stroke-width="1.4" /><rect x="208.54" y="220.24" width="6" height="6.92" rx="1.5" fill="#f6465d" /><line x1="222.28" y1="195.68" x2="222.28" y2="254.48" stroke="#0ecb81" stroke-width="1.4" /><rect x="219.28" y="205.36" width="6" height="22.14" rx="1.5" fill="#0ecb81" /><line x1="233.01" y1="202.25" x2="233.01" y2="250.33" stroke="#f6465d" stroke-width="1.4" /><rect x="230.01" y="205.36" width="6" height="40.82" rx="1.5" fill="#f6465d" /><line x1="243.75" y1="224.39" x2="243.75" y2="276.27" stroke="#f6465d" stroke-width="1.4" /><rect x="240.75" y="245.83" width="6" height="2.42" rx="1.5" fill="#f6465d" /><line x1="254.48" y1="229.92" x2="254.48" y2="263.82" stroke="#f6465d" stroke-width="1.4" /><rect x="251.48" y="248.25" width="6" height="2.00" rx="1.5" fill="#f6465d" /><line x1="265.22" y1="231.30" x2="265.22" y2="262.78" stroke="#0ecb81" stroke-width="1.4" /><rect x="262.22" y="244.45" width="6" height="5.88" rx="1.5" fill="#0ecb81" /><line x1="275.95" y1="214.35" x2="275.95" y2="266.24" stroke="#f6465d" stroke-width="1.4" /><rect x="272.95" y="244.10" width="6" height="2.08" rx="1.5" fill="#f6465d" /><line x1="286.68" y1="246.53" x2="286.68" y2="355.14" stroke="#f6465d" stroke-width="1.4" /><rect x="283.68" y="246.53" width="6" height="72.99" rx="1.5" fill="#f6465d" /><line x1="297.42" y1="276.27" x2="297.42" y2="320.21" stroke="#0ecb81" stroke-width="1.4" /><rect x="294.42" y="297.72" width="6" height="22.14" rx="1.5" fill="#0ecb81" /><line x1="308.15" y1="284.23" x2="308.15" y2="321.94" stroke="#f6465d" stroke-width="1.4" /><rect x="305.15" y="297.72" width="6" height="23.87" rx="1.5" fill="#f6465d" /><line x1="318.89" y1="295.30" x2="318.89" y2="332.31" stroke="#0ecb81" stroke-width="1.4" /><rect x="315.89" y="299.45" width="6" height="22.14" rx="1.5" fill="#0ecb81" /><line x1="329.62" y1="277.31" x2="329.62" y2="306.37" stroke="#0ecb81" stroke-width="1.4" /><rect x="326.62" y="282.50" width="6" height="16.26" rx="1.5" fill="#0ecb81" /><line x1="340.35" y1="267.97" x2="340.35" y2="297.72" stroke="#0ecb81" stroke-width="1.4" /><rect x="337.35" y="280.77" width="6" height="2.08" rx="1.5" fill="#0ecb81" /><line x1="351.09" y1="279.39" x2="351.09" y2="301.87" stroke="#f6465d" stroke-width="1.4" /><rect x="348.09" y="281.12" width="6" height="15.91" rx="1.5" fill="#f6465d" /><line x1="361.82" y1="290.11" x2="361.82" y2="313.63" stroke="#f6465d" stroke-width="1.4" /><rect x="358.82" y="297.37" width="6" height="8.65" rx="1.5" fill="#f6465d" /><line x1="372.56" y1="275.58" x2="372.56" y2="323.32" stroke="#0ecb81" stroke-width="1.4" /><rect x="369.56" y="289.07" width="6" height="17.30" rx="1.5" fill="#0ecb81" /><line x1="383.29" y1="282.50" x2="383.29" y2="329.89" stroke="#f6465d" stroke-width="1.4" /><rect x="380.29" y="288.73" width="6" height="15.22" rx="1.5" fill="#f6465d" /><line x1="394.03" y1="288.04" x2="394.03" y2="331.27" stroke="#f6465d" stroke-width="1.4" /><rect x="391.03" y="304.29" width="6" height="20.06" rx="1.5" fill="#f6465d" /><line x1="404.76" y1="307.06" x2="404.76" y2="340.61" stroke="#0ecb81" stroke-width="1.4" /><rect x="401.76" y="318.82" width="6" height="5.19" rx="1.5" fill="#0ecb81" /><line x1="415.49" y1="293.22" x2="415.49" y2="339.92" stroke="#0ecb81" stroke-width="1.4" /><rect x="412.49" y="295.99" width="6" height="22.48" rx="1.5" fill="#0ecb81" /><line x1="426.23" y1="288.04" x2="426.23" y2="320.90" stroke="#f6465d" stroke-width="1.4" /><rect x="423.23" y="295.99" width="6" height="13.49" rx="1.5" fill="#f6465d" /><line x1="436.96" y1="204.32" x2="436.96" y2="313.29" stroke="#0ecb81" stroke-width="1.4" /><rect x="433.96" y="263.47" width="6" height="46.35" rx="1.5" fill="#0ecb81" /><line x1="447.70" y1="240.30" x2="447.70" y2="281.81" stroke="#f6465d" stroke-width="1.4" /><rect x="444.70" y="263.82" width="6" height="13.14" rx="1.5" fill="#f6465d" /><line x1="458.43" y1="240.99" x2="458.43" y2="301.87" stroke="#f6465d" stroke-width="1.4" /><rect x="455.43" y="277.31" width="6" height="12.45" rx="1.5" fill="#f6465d" /><line x1="469.16" y1="283.19" x2="469.16" y2="337.85" stroke="#f6465d" stroke-width="1.4" /><rect x="466.16" y="290.11" width="6" height="44.97" rx="1.5" fill="#f6465d" /><line x1="479.90" y1="335.08" x2="479.90" y2="392.85" stroke="#f6465d" stroke-width="1.4" /><rect x="476.90" y="335.08" width="6" height="21.10" rx="1.5" fill="#f6465d" /><line x1="490.63" y1="339.58" x2="490.63" y2="376.59" stroke="#f6465d" stroke-width="1.4" /><rect x="487.63" y="355.83" width="6" height="16.26" rx="1.5" fill="#f6465d" /><line x1="501.37" y1="356.53" x2="501.37" y2="388.70" stroke="#0ecb81" stroke-width="1.4" /><rect x="498.37" y="372.09" width="6" height="2.00" rx="1.5" fill="#0ecb81" /><line x1="512.10" y1="369.33" x2="512.10" y2="389.04" stroke="#f6465d" stroke-width="1.4" /><rect x="509.10" y="371.75" width="6" height="7.96" rx="1.5" fill="#f6465d" /><line x1="522.84" y1="371.06" x2="522.84" y2="419.48" stroke="#f6465d" stroke-width="1.4" /><rect x="519.84" y="379.70" width="6" height="28.37" rx="1.5" fill="#f6465d" /><line x1="533.57" y1="396.65" x2="533.57" y2="414.99" stroke="#0ecb81" stroke-width="1.4" /><rect x="530.57" y="401.15" width="6" height="6.57" rx="1.5" fill="#0ecb81" /><line x1="544.30" y1="395.27" x2="544.30" y2="431.94" stroke="#f6465d" stroke-width="1.4" /><rect x="541.30" y="402.19" width="6" height="8.99" rx="1.5" fill="#f6465d" /><line x1="555.04" y1="408.76" x2="555.04" y2="452.00" stroke="#f6465d" stroke-width="1.4" /><rect x="552.04" y="411.18" width="6" height="18.33" rx="1.5" fill="#f6465d" /><line x1="565.77" y1="358.95" x2="565.77" y2="430.55" stroke="#0ecb81" stroke-width="1.4" /><rect x="562.77" y="370.02" width="6" height="60.19" rx="1.5" fill="#0ecb81" /><line x1="576.51" y1="355.49" x2="576.51" y2="395.96" stroke="#f6465d" stroke-width="1.4" /><rect x="573.51" y="370.71" width="6" height="13.14" rx="1.5" fill="#f6465d" /><line x1="587.24" y1="349.95" x2="587.24" y2="391.46" stroke="#0ecb81" stroke-width="1.4" /><rect x="584.24" y="374.86" width="6" height="9.34" rx="1.5" fill="#0ecb81" /><line x1="597.97" y1="363.79" x2="597.97" y2="386.62" stroke="#f6465d" stroke-width="1.4" /><rect x="594.97" y="374.51" width="6" height="2.42" rx="1.5" fill="#f6465d" /><line x1="608.71" y1="349.61" x2="608.71" y2="385.58" stroke="#0ecb81" stroke-width="1.4" /><rect x="605.71" y="354.80" width="6" height="21.79" rx="1.5" fill="#0ecb81" /><line x1="619.44" y1="342.00" x2="619.44" y2="382.82" stroke="#f6465d" stroke-width="1.4" /><rect x="616.44" y="355.14" width="6" height="8.65" rx="1.5" fill="#f6465d" /><line x1="630.18" y1="341.65" x2="630.18" y2="378.67" stroke="#0ecb81" stroke-width="1.4" /><rect x="627.18" y="354.45" width="6" height="8.99" rx="1.5" fill="#0ecb81" /><line x1="640.91" y1="282.50" x2="640.91" y2="358.26" stroke="#0ecb81" stroke-width="1.4" /><rect x="637.91" y="296.34" width="6" height="58.11" rx="1.5" fill="#0ecb81" /><line x1="651.65" y1="274.20" x2="651.65" y2="316.05" stroke="#f6465d" stroke-width="1.4" /><rect x="648.65" y="295.99" width="6" height="12.45" rx="1.5" fill="#f6465d" /><line x1="662.38" y1="293.92" x2="662.38" y2="353.76" stroke="#f6465d" stroke-width="1.4" /><rect x="659.38" y="308.44" width="6" height="30.44" rx="1.5" fill="#f6465d" /><line x1="673.11" y1="311.21" x2="673.11" y2="354.11" stroke="#0ecb81" stroke-width="1.4" /><rect x="670.11" y="328.16" width="6" height="11.07" rx="1.5" fill="#0ecb81" /><line x1="683.85" y1="318.13" x2="683.85" y2="373.82" stroke="#f6465d" stroke-width="1.4" /><rect x="680.85" y="328.51" width="6" height="29.06" rx="1.5" fill="#f6465d" /><line x1="694.58" y1="351.34" x2="694.58" y2="376.94" stroke="#f6465d" stroke-width="1.4" /><rect x="691.58" y="357.56" width="6" height="9.69" rx="1.5" fill="#f6465d" /><line x1="705.32" y1="365.87" x2="705.32" y2="426.75" stroke="#f6465d" stroke-width="1.4" /><rect x="702.32" y="367.25" width="6" height="49.12" rx="1.5" fill="#f6465d" /><line x1="716.05" y1="404.26" x2="716.05" y2="442.66" stroke="#0ecb81" stroke-width="1.4" /><rect x="713.05" y="404.26" width="6" height="12.45" rx="1.5" fill="#0ecb81" /><line x1="726.78" y1="399.77" x2="726.78" y2="438.86" stroke="#f6465d" stroke-width="1.4" /><rect x="723.78" y="404.61" width="6" height="11.76" rx="1.5" fill="#f6465d" /><line x1="737.52" y1="402.19" x2="737.52" y2="423.29" stroke="#0ecb81" stroke-width="1.4" /><rect x="734.52" y="407.38" width="6" height="9.34" rx="1.5" fill="#0ecb81" /><line x1="748.25" y1="375.21" x2="748.25" y2="410.49" stroke="#f6465d" stroke-width="1.4" /><rect x="745.25" y="406.68" width="6" height="3.81" rx="1.5" fill="#f6465d" /><line x1="758.99" y1="403.23" x2="758.99" y2="436.09" stroke="#f6465d" stroke-width="1.4" /><rect x="755.99" y="410.14" width="6" height="10.38" rx="1.5" fill="#f6465d" /><line x1="769.72" y1="395.62" x2="769.72" y2="426.40" stroke="#0ecb81" stroke-width="1.4" /><rect x="766.72" y="399.77" width="6" height="20.76" rx="1.5" fill="#0ecb81" /><line x1="780.46" y1="389.04" x2="780.46" y2="420.18" stroke="#f6465d" stroke-width="1.4" /><rect x="777.46" y="399.07" width="6" height="18.33" rx="1.5" fill="#f6465d" /><line x1="791.19" y1="387.66" x2="791.19" y2="424.33" stroke="#0ecb81" stroke-width="1.4" /><rect x="788.19" y="405.65" width="6" height="11.76" rx="1.5" fill="#0ecb81" /><line x1="801.92" y1="341.31" x2="801.92" y2="420.87" stroke="#0ecb81" stroke-width="1.4" /><rect x="798.92" y="346.50" width="6" height="59.15" rx="1.5" fill="#0ecb81" /><line x1="812.66" y1="287.69" x2="812.66" y2="352.03" stroke="#0ecb81" stroke-width="1.4" /><rect x="809.66" y="290.46" width="6" height="55.69" rx="1.5" fill="#0ecb81" /><line x1="823.39" y1="276.27" x2="823.39" y2="300.14" stroke="#f6465d" stroke-width="1.4" /><rect x="820.39" y="290.46" width="6" height="3.11" rx="1.5" fill="#f6465d" /><line x1="834.13" y1="289.42" x2="834.13" y2="339.23" stroke="#f6465d" stroke-width="1.4" /><rect x="831.13" y="293.92" width="6" height="31.82" rx="1.5" fill="#f6465d" /><line x1="844.86" y1="299.80" x2="844.86" y2="335.08" stroke="#0ecb81" stroke-width="1.4" /><rect x="841.86" y="311.21" width="6" height="13.84" rx="1.5" fill="#0ecb81" /><line x1="855.59" y1="287.34" x2="855.59" y2="337.85" stroke="#0ecb81" stroke-width="1.4" /><rect x="852.59" y="293.57" width="6" height="16.60" rx="1.5" fill="#0ecb81" /><line x1="866.33" y1="58.00" x2="866.33" y2="293.22" stroke="#0ecb81" stroke-width="1.4" /><rect x="863.33" y="139.64" width="6" height="152.90" rx="1.5" fill="#0ecb81" /><line x1="877.06" y1="131.68" x2="877.06" y2="215.05" stroke="#f6465d" stroke-width="1.4" /><rect x="874.06" y="139.29" width="6" height="26.29" rx="1.5" fill="#f6465d" /><line x1="887.80" y1="162.12" x2="887.80" y2="211.93" stroke="#f6465d" stroke-width="1.4" /><rect x="884.80" y="165.58" width="6" height="28.71" rx="1.5" fill="#f6465d" /><line x1="898.53" y1="164.54" x2="898.53" y2="271.78" stroke="#f6465d" stroke-width="1.4" /><rect x="895.53" y="194.64" width="6" height="55.69" rx="1.5" fill="#f6465d" /><line x1="909.27" y1="196.71" x2="909.27" y2="274.54" stroke="#0ecb81" stroke-width="1.4" /><rect x="906.27" y="209.51" width="6" height="40.47" rx="1.5" fill="#0ecb81" /><line x1="920.00" y1="200.17" x2="920.00" y2="247.22" stroke="#f6465d" stroke-width="1.4" /><rect x="917.00" y="210.20" width="6" height="25.25" rx="1.5" fill="#f6465d" />
  <polyline points="157.87,299.10 222.28,195.68 243.75,276.27 275.95,214.35 286.68,355.14" fill="none" stroke="#2fc273" stroke-width="4" stroke-linecap="round" stroke-linejoin="round" />
  <circle cx="157.87" cy="299.10" r="5.5" fill="#2fc273" fill-opacity="0.15" stroke="#2fc273" stroke-width="2" /><text x="157.87" y="287.10" fill="#f3f4f6" font-size="15" font-weight="700" text-anchor="middle">X</text><circle cx="222.28" cy="195.68" r="5.5" fill="#2fc273" fill-opacity="0.15" stroke="#2fc273" stroke-width="2" /><text x="222.28" y="183.68" fill="#f3f4f6" font-size="15" font-weight="700" text-anchor="middle">A</text><circle cx="243.75" cy="276.27" r="5.5" fill="#2fc273" fill-opacity="0.15" stroke="#2fc273" stroke-width="2" /><text x="243.75" y="264.27" fill="#f3f4f6" font-size="15" font-weight="700" text-anchor="middle">B</text><circle cx="275.95" cy="214.35" r="5.5" fill="#2fc273" fill-opacity="0.15" stroke="#2fc273" stroke-width="2" /><text x="275.95" y="202.35" fill="#f3f4f6" font-size="15" font-weight="700" text-anchor="middle">C</text><circle cx="286.68" cy="355.14" r="5.5" fill="#2fc273" fill-opacity="0.15" stroke="#2fc273" stroke-width="2" /><text x="286.68" y="343.14" fill="#f3f4f6" font-size="15" font-weight="700" text-anchor="middle">D</text>
  <text x="56" y="492" fill="#8ba0b5" font-size="18">일반 완성 · TP1 0.90555 · TP2 0.91515 · SL 0.88611</text>
</svg>
