<svg xmlns="http://www.w3.org/2000/svg" width="960" height="540" viewBox="0 0 960 540">
  <rect width="960" height="540" rx="24" fill="#0b1220" />
  <rect x="28" y="28" width="904" height="484" rx="22" fill="#111827" stroke="#1f2937" />
  <text x="56" y="74" fill="#f3f4f6" font-size="34" font-weight="700">FARTCOINUSDT · AB=CD</text>
  <text x="904" y="74" fill="#8ba0b5" font-size="20" text-anchor="end">Bullish (매수) · Score 86.4</text>
  <line x1="72" y1="58" x2="920" y2="58" stroke="#223045" stroke-width="1" stroke-dasharray="4 8" /><line x1="72" y1="156" x2="920" y2="156" stroke="#223045" stroke-width="1" stroke-dasharray="4 8" /><line x1="72" y1="255" x2="920" y2="255" stroke="#223045" stroke-width="1" stroke-dasharray="4 8" /><line x1="72" y1="353" x2="920" y2="353" stroke="#223045" stroke-width="1" stroke-dasharray="4 8" /><line x1="72" y1="452" x2="920" y2="452" stroke="#223045" stroke-width="1" stroke-dasharray="4 8" />
  <rect x="655.85" y="400.71" width="84" height="30.48" fill="#fbbf24" fill-opacity="0.12" stroke="#fbbf24" stroke-width="1.5" stroke-dasharray="6 6" />
  <line x1="72.00" y1="262.43" x2="72.00" y2="295.89" stroke="#0ecb81" stroke-width="1.4" /><rect x="69.00" y="266.15" width="6" height="29.74" rx="1.5" fill="#0ecb81" /><line x1="82.73" y1="236.42" x2="82.73" y2="277.30" stroke="#0ecb81" stroke-width="1.4" /><rect x="79.73" y="262.43" width="6" height="3.72" rx="1.5" fill="#0ecb81" /><line x1="93.47" y1="243.85" x2="93.47" y2="273.58" stroke="#f6465d" stroke-width="1.4" /><rect x="90.47" y="258.72" width="6" height="11.15" rx="1.5" fill="#f6465d" /><line x1="104.20" y1="221.55" x2="104.20" y2="266.15" stroke="#0ecb81" stroke-width="1.4" /><rect x="101.20" y="251.28" width="6" height="14.87" rx="1.5" fill="#0ecb81" /><line x1="114.94" y1="210.40" x2="114.94" y2="251.28" stroke="#0ecb81" stroke-width="1.4" /><rect x="111.94" y="221.55" width="6" height="29.74" rx="1.5" fill="#0ecb81" /><line x1="125.67" y1="169.51" x2="125.67" y2="221.55" stroke="#0ecb81" stroke-width="1.4" /><rect x="122.67" y="206.68" width="6" height="14.87" rx="1.5" fill="#0ecb81" /><line x1="136.41" y1="199.25" x2="136.41" y2="225.26" stroke="#f6465d" stroke-width="1.4" /><rect x="133.41" y="206.68" width="6" height="3.72" rx="1.5" fill="#f6465d" /><line x1="147.14" y1="58.00" x2="147.14" y2="217.83" stroke="#0ecb81" stroke-width="1.4" /><rect x="144.14" y="69.15" width="6" height="137.53" rx="1.5" fill="#0ecb81" /><line x1="157.87" y1="58.00" x2="157.87" y2="180.66" stroke="#f6465d" stroke-width="1.4" /><rect x="154.87" y="69.15" width="6" height="92.92" rx="1.5" fill="#f6465d" /><line x1="168.61" y1="158.36" x2="168.61" y2="225.26" stroke="#f6465d" stroke-width="1.4" /><rect x="165.61" y="165.79" width="6" height="59.47" rx="1.5" fill="#f6465d" /><line x1="179.34" y1="206.68" x2="179.34" y2="240.13" stroke="#f6465d" stroke-width="1.4" /><rect x="176.34" y="225.26" width="6" height="14.87" rx="1.5" fill="#f6465d" /><line x1="190.08" y1="221.55" x2="190.08" y2="295.89" stroke="#f6465d" stroke-width="1.4" /><rect x="187.08" y="236.42" width="6" height="18.58" rx="1.5" fill="#f6465d" /><line x1="200.81" y1="240.13" x2="200.81" y2="266.15" stroke="#f6465d" stroke-width="1.4" /><rect x="197.81" y="255.00" width="6" height="3.72" rx="1.5" fill="#f6465d" /><line x1="211.54" y1="251.28" x2="211.54" y2="277.30" stroke="#0ecb81" stroke-width="1.4" /><rect x="208.54" y="255.00" width="6" height="3.72" rx="1.5" fill="#0ecb81" /><line x1="222.28" y1="255.00" x2="222.28" y2="281.02" stroke="#f6465d" stroke-width="1.4" /><rect x="219.28" y="258.72" width="6" height="7.43" rx="1.5" fill="#f6465d" /><line x1="233.01" y1="258.72" x2="233.01" y2="281.02" stroke="#f6465d" stroke-width="1.4" /><rect x="230.01" y="266.15" width="6" height="3.72" rx="1.5" fill="#f6465d" /><line x1="243.75" y1="247.57" x2="243.75" y2="269.87" stroke="#0ecb81" stroke-width="1.4" /><rect x="240.75" y="251.28" width="6" height="14.87" rx="1.5" fill="#0ecb81" /><line x1="254.48" y1="243.85" x2="254.48" y2="288.45" stroke="#f6465d" stroke-width="1.4" /><rect x="251.48" y="251.28" width="6" height="29.74" rx="1.5" fill="#f6465d" /><line x1="265.22" y1="255.00" x2="265.22" y2="295.89" stroke="#0ecb81" stroke-width="1.4" /><rect x="262.22" y="277.30" width="6" height="3.72" rx="1.5" fill="#0ecb81" /><line x1="275.95" y1="255.00" x2="275.95" y2="292.17" stroke="#0ecb81" stroke-width="1.4" /><rect x="272.95" y="258.72" width="6" height="18.58" rx="1.5" fill="#0ecb81" /><line x1="286.68" y1="251.28" x2="286.68" y2="269.87" stroke="#f6465d" stroke-width="1.4" /><rect x="283.68" y="258.72" width="6" height="11.15" rx="1.5" fill="#f6465d" /><line x1="297.42" y1="258.72" x2="297.42" y2="281.02" stroke="#0ecb81" stroke-width="1.4" /><rect x="294.42" y="258.72" width="6" height="11.15" rx="1.5" fill="#0ecb81" /><line x1="308.15" y1="255.00" x2="308.15" y2="273.58" stroke="#f6465d" stroke-width="1.4" /><rect x="305.15" y="258.72" width="6" height="11.15" rx="1.5" fill="#f6465d" /><line x1="318.89" y1="273.58" x2="318.89" y2="318.19" stroke="#f6465d" stroke-width="1.4" /><rect x="315.89" y="273.58" width="6" height="22.30" rx="1.5" fill="#f6465d" /><line x1="329.62" y1="295.89" x2="329.62" y2="321.91" stroke="#f6465d" stroke-width="1.4" /><rect x="326.62" y="299.60" width="6" height="18.58" rx="1.5" fill="#f6465d" /><line x1="340.35" y1="303.32" x2="340.35" y2="321.91" stroke="#0ecb81" stroke-width="1.4" /><rect x="337.35" y="303.32" width="6" height="18.58" rx="1.5" fill="#0ecb81" /><line x1="351.09" y1="262.43" x2="351.09" y2="314.47" stroke="#0ecb81" stroke-width="1.4" /><rect x="348.09" y="273.58" width="6" height="26.02" rx="1.5" fill="#0ecb81" /><line x1="361.82" y1="266.15" x2="361.82" y2="288.45" stroke="#f6465d" stroke-width="1.4" /><rect x="358.82" y="273.58" width="6" height="11.15" rx="1.5" fill="#f6465d" /><line x1="372.56" y1="284.74" x2="372.56" y2="310.75" stroke="#f6465d" stroke-width="1.4" /><rect x="369.56" y="284.74" width="6" height="11.15" rx="1.5" fill="#f6465d" /><line x1="383.29" y1="292.17" x2="383.29" y2="310.75" stroke="#f6465d" stroke-width="1.4" /><rect x="380.29" y="292.17" width="6" height="14.87" rx="1.5" fill="#f6465d" /><line x1="394.03" y1="299.60" x2="394.03" y2="314.47" stroke="#0ecb81" stroke-width="1.4" /><rect x="391.03" y="303.32" width="6" height="7.43" rx="1.5" fill="#0ecb81" /><line x1="404.76" y1="295.89" x2="404.76" y2="321.91" stroke="#0ecb81" stroke-width="1.4" /><rect x="401.76" y="299.60" width="6" height="2.00" rx="1.5" fill="#0ecb81" /><line x1="415.49" y1="292.17" x2="415.49" y2="310.75" stroke="#0ecb81" stroke-width="1.4" /><rect x="412.49" y="299.60" width="6" height="2.00" rx="1.5" fill="#0ecb81" /><line x1="426.23" y1="292.17" x2="426.23" y2="318.19" stroke="#f6465d" stroke-width="1.4" /><rect x="423.23" y="299.60" width="6" height="14.87" rx="1.5" fill="#f6465d" /><line x1="436.96" y1="307.04" x2="436.96" y2="336.77" stroke="#f6465d" stroke-width="1.4" /><rect x="433.96" y="314.47" width="6" height="14.87" rx="1.5" fill="#f6465d" /><line x1="447.70" y1="325.62" x2="447.70" y2="355.36" stroke="#f6465d" stroke-width="1.4" /><rect x="444.70" y="333.06" width="6" height="14.87" rx="1.5" fill="#f6465d" /><line x1="458.43" y1="321.91" x2="458.43" y2="355.36" stroke="#0ecb81" stroke-width="1.4" /><rect x="455.43" y="329.34" width="6" height="18.58" rx="1.5" fill="#0ecb81" /><line x1="469.16" y1="310.75" x2="469.16" y2="340.49" stroke="#f6465d" stroke-width="1.4" /><rect x="466.16" y="325.62" width="6" height="14.87" rx="1.5" fill="#f6465d" /><line x1="479.90" y1="329.34" x2="479.90" y2="344.21" stroke="#0ecb81" stroke-width="1.4" /><rect x="476.90" y="333.06" width="6" height="3.72" rx="1.5" fill="#0ecb81" /><line x1="490.63" y1="329.34" x2="490.63" y2="344.21" stroke="#0ecb81" stroke-width="1.4" /><rect x="487.63" y="336.77" width="6" height="2.00" rx="1.5" fill="#0ecb81" /><line x1="501.37" y1="333.06" x2="501.37" y2="347.92" stroke="#0ecb81" stroke-width="1.4" /><rect x="498.37" y="336.77" width="6" height="2.00" rx="1.5" fill="#0ecb81" /><line x1="512.10" y1="333.06" x2="512.10" y2="347.92" stroke="#0ecb81" stroke-width="1.4" /><rect x="509.10" y="336.77" width="6" height="2.00" rx="1.5" fill="#0ecb81" /><line x1="522.84" y1="329.34" x2="522.84" y2="347.92" stroke="#f6465d" stroke-width="1.4" /><rect x="519.84" y="336.77" width="6" height="7.43" rx="1.5" fill="#f6465d" /><line x1="533.57" y1="336.77" x2="533.57" y2="366.51" stroke="#f6465d" stroke-width="1.4" /><rect x="530.57" y="344.21" width="6" height="7.43" rx="1.5" fill="#f6465d" /><line x1="544.30" y1="325.62" x2="544.30" y2="366.51" stroke="#0ecb81" stroke-width="1.4" /><rect x="541.30" y="333.06" width="6" height="18.58" rx="1.5" fill="#0ecb81" /><line x1="555.04" y1="329.34" x2="555.04" y2="344.21" stroke="#f6465d" stroke-width="1.4" /><rect x="552.04" y="329.34" width="6" height="11.15" rx="1.5" fill="#f6465d" /><line x1="565.77" y1="336.77" x2="565.77" y2="366.51" stroke="#f6465d" stroke-width="1.4" /><rect x="562.77" y="340.49" width="6" height="22.30" rx="1.5" fill="#f6465d" /><line x1="576.51" y1="351.64" x2="576.51" y2="377.66" stroke="#f6465d" stroke-width="1.4" /><rect x="573.51" y="366.51" width="6" height="7.43" rx="1.5" fill="#f6465d" /><line x1="587.24" y1="362.79" x2="587.24" y2="377.66" stroke="#f6465d" stroke-width="1.4" /><rect x="584.24" y="370.23" width="6" height="3.72" rx="1.5" fill="#f6465d" /><line x1="597.97" y1="370.23" x2="597.97" y2="381.38" stroke="#0ecb81" stroke-width="1.4" /><rect x="594.97" y="370.23" width="6" height="3.72" rx="1.5" fill="#0ecb81" /><line x1="608.71" y1="370.23" x2="608.71" y2="418.55" stroke="#f6465d" stroke-width="1.4" /><rect x="605.71" y="373.94" width="6" height="26.02" rx="1.5" fill="#f6465d" /><line x1="619.44" y1="392.53" x2="619.44" y2="448.28" stroke="#f6465d" stroke-width="1.4" /><rect x="616.44" y="403.68" width="6" height="11.15" rx="1.5" fill="#f6465d" /><line x1="630.18" y1="396.25" x2="630.18" y2="437.13" stroke="#0ecb81" stroke-width="1.4" /><rect x="627.18" y="399.96" width="6" height="14.87" rx="1.5" fill="#0ecb81" /><line x1="640.91" y1="373.94" x2="640.91" y2="407.40" stroke="#0ecb81" stroke-width="1.4" /><rect x="637.91" y="385.09" width="6" height="18.58" rx="1.5" fill="#0ecb81" /><line x1="651.65" y1="377.66" x2="651.65" y2="422.26" stroke="#f6465d" stroke-width="1.4" /><rect x="648.65" y="385.09" width="6" height="29.74" rx="1.5" fill="#f6465d" /><line x1="662.38" y1="396.25" x2="662.38" y2="418.55" stroke="#0ecb81" stroke-width="1.4" /><rect x="659.38" y="407.40" width="6" height="11.15" rx="1.5" fill="#0ecb81" /><line x1="673.11" y1="403.68" x2="673.11" y2="425.98" stroke="#f6465d" stroke-width="1.4" /><rect x="670.11" y="411.11" width="6" height="11.15" rx="1.5" fill="#f6465d" /><line x1="683.85" y1="418.55" x2="683.85" y2="452.00" stroke="#f6465d" stroke-width="1.4" /><rect x="680.85" y="418.55" width="6" height="26.02" rx="1.5" fill="#f6465d" /><line x1="694.58" y1="418.55" x2="694.58" y2="444.57" stroke="#0ecb81" stroke-width="1.4" /><rect x="691.58" y="422.26" width="6" height="22.30" rx="1.5" fill="#0ecb81" /><line x1="705.32" y1="407.40" x2="705.32" y2="429.70" stroke="#0ecb81" stroke-width="1.4" /><rect x="702.32" y="411.11" width="6" height="14.87" rx="1.5" fill="#0ecb81" /><line x1="716.05" y1="385.09" x2="716.05" y2="411.11" stroke="#0ecb81" stroke-width="1.4" /><rect x="713.05" y="403.68" width="6" height="7.43" rx="1.5" fill="#0ecb81" /><line x1="726.78" y1="385.09" x2="726.78" y2="407.40" stroke="#0ecb81" stroke-width="1.4" /><rect x="723.78" y="399.96" width="6" height="3.72" rx="1.5" fill="#0ecb81" /><line x1="737.52" y1="399.96" x2="737.52" y2="414.83" stroke="#f6465d" stroke-width="1.4" /><rect x="734.52" y="399.96" width="6" height="11.15" rx="1.5" fill="#f6465d" /><line x1="748.25" y1="373.94" x2="748.25" y2="414.83" stroke="#0ecb81" stroke-width="1.4" /><rect x="745.25" y="381.38" width="6" height="29.74" rx="1.5" fill="#0ecb81" /><line x1="758.99" y1="325.62" x2="758.99" y2="385.09" stroke="#0ecb81" stroke-width="1.4" /><rect x="755.99" y="329.34" width="6" height="52.04" rx="1.5" fill="#0ecb81" /><line x1="769.72" y1="292.17" x2="769.72" y2="340.49" stroke="#0ecb81" stroke-width="1.4" /><rect x="766.72" y="292.17" width="6" height="37.17" rx="1.5" fill="#0ecb81" /><line x1="780.46" y1="284.74" x2="780.46" y2="318.19" stroke="#f6465d" stroke-width="1.4" /><rect x="777.46" y="295.89" width="6" height="11.15" rx="1.5" fill="#f6465d" /><line x1="791.19" y1="303.32" x2="791.19" y2="351.64" stroke="#f6465d" stroke-width="1.4" /><rect x="788.19" y="303.32" width="6" height="44.60" rx="1.5" fill="#f6465d" /><line x1="801.92" y1="325.62" x2="801.92" y2="355.36" stroke="#0ecb81" stroke-width="1.4" /><rect x="798.92" y="325.62" width="6" height="26.02" rx="1.5" fill="#0ecb81" /><line x1="812.66" y1="288.45" x2="812.66" y2="336.77" stroke="#0ecb81" stroke-width="1.4" /><rect x="809.66" y="310.75" width="6" height="18.58" rx="1.5" fill="#0ecb81" /><line x1="823.39" y1="310.75" x2="823.39" y2="344.21" stroke="#f6465d" stroke-width="1.4" /><rect x="820.39" y="314.47" width="6" height="29.74" rx="1.5" fill="#f6465d" /><line x1="834.13" y1="303.32" x2="834.13" y2="351.64" stroke="#0ecb81" stroke-width="1.4" /><rect x="831.13" y="314.47" width="6" height="29.74" rx="1.5" fill="#0ecb81" /><line x1="844.86" y1="288.45" x2="844.86" y2="318.19" stroke="#0ecb81" stroke-width="1.4" /><rect x="841.86" y="299.60" width="6" height="14.87" rx="1.5" fill="#0ecb81" /><line x1="855.59" y1="295.89" x2="855.59" y2="321.91" stroke="#f6465d" stroke-width="1.4" /><rect x="852.59" y="299.60" width="6" height="14.87" rx="1.5" fill="#f6465d" /><line x1="866.33" y1="273.58" x2="866.33" y2="318.19" stroke="#0ecb81" stroke-width="1.4" /><rect x="863.33" y="284.74" width="6" height="33.45" rx="1.5" fill="#0ecb81" /><line x1="877.06" y1="277.30" x2="877.06" y2="325.62" stroke="#f6465d" stroke-width="1.4" /><rect x="874.06" y="284.74" width="6" height="29.74" rx="1.5" fill="#f6465d" /><line x1="887.80" y1="307.04" x2="887.80" y2="344.21" stroke="#f6465d" stroke-width="1.4" /><rect x="884.80" y="314.47" width="6" height="29.74" rx="1.5" fill="#f6465d" /><line x1="898.53" y1="336.77" x2="898.53" y2="437.13" stroke="#f6465d" stroke-width="1.4" /><rect x="895.53" y="344.21" width="6" height="55.75" rx="1.5" fill="#f6465d" /><line x1="909.27" y1="388.81" x2="909.27" y2="429.70" stroke="#f6465d" stroke-width="1.4" /><rect x="906.27" y="399.96" width="6" height="7.43" rx="1.5" fill="#f6465d" /><line x1="920.00" y1="407.40" x2="920.00" y2="411.11" stroke="#f6465d" stroke-width="1.4" /><rect x="917.00" y="407.40" width="6" height="3.72" rx="1.5" fill="#f6465d" />
  <polyline points="340.35,321.91 351.09,262.43 533.57,366.51 544.30,325.62 683.85,452.00" fill="none" stroke="#2fc273" stroke-width="4" stroke-linecap="round" stroke-linejoin="round" />
  <circle cx="340.35" cy="321.91" r="5.5" fill="#2fc273" fill-opacity="0.15" stroke="#2fc273" stroke-width="2" /><text x="340.35" y="309.91" fill="#f3f4f6" font-size="15" font-weight="700" text-anchor="middle">X</text><circle cx="351.09" cy="262.43" r="5.5" fill="#2fc273" fill-opacity="0.15" stroke="#2fc273" stroke-width="2" /><text x="351.09" y="250.43" fill="#f3f4f6" font-size="15" font-weight="700" text-anchor="middle">A</text><circle cx="533.57" cy="366.51" r="5.5" fill="#2fc273" fill-opacity="0.15" stroke="#2fc273" stroke-width="2" /><text x="533.57" y="354.51" fill="#f3f4f6" font-size="15" font-weight="700" text-anchor="middle">B</text><circle cx="544.30" cy="325.62" r="5.5" fill="#2fc273" fill-opacity="0.15" stroke="#2fc273" stroke-width="2" /><text x="544.30" y="313.62" fill="#f3f4f6" font-size="15" font-weight="700" text-anchor="middle">C</text><circle cx="683.85" cy="452.00" r="5.5" fill="#2fc273" fill-opacity="0.15" stroke="#2fc273" stroke-width="2" /><text x="683.85" y="440.00" fill="#f3f4f6" font-size="15" font-weight="700" text-anchor="middle">D</text>
  <text x="56" y="492" fill="#8ba0b5" font-size="18">일반 완성 · TP1 0.1628 · TP2 0.1636 · SL 0.16129</text>
</svg>
