<svg xmlns="http://www.w3.org/2000/svg" width="960" height="540" viewBox="0 0 960 540">
  <rect width="960" height="540" rx="24" fill="#0b1220" />
  <rect x="28" y="28" width="904" height="484" rx="22" fill="#111827" stroke="#1f2937" />
  <text x="56" y="74" fill="#f3f4f6" font-size="34" font-weight="700">HBARUSDT · AB=CD</text>
  <text x="904" y="74" fill="#8ba0b5" font-size="20" text-anchor="end">Bearish (매도) · Score 90.7</text>
  <line x1="72" y1="58" x2="920" y2="58" stroke="#223045" stroke-width="1" stroke-dasharray="4 8" /><line x1="72" y1="156" x2="920" y2="156" stroke="#223045" stroke-width="1" stroke-dasharray="4 8" /><line x1="72" y1="255" x2="920" y2="255" stroke="#223045" stroke-width="1" stroke-dasharray="4 8" /><line x1="72" y1="353" x2="920" y2="353" stroke="#223045" stroke-width="1" stroke-dasharray="4 8" /><line x1="72" y1="452" x2="920" y2="452" stroke="#223045" stroke-width="1" stroke-dasharray="4 8" />
  <rect x="376.76" y="74.40" width="84" height="87.60" fill="#fbbf24" fill-opacity="0.12" stroke="#fbbf24" stroke-width="1.5" stroke-dasharray="6 6" />
  <line x1="72.00" y1="158.00" x2="72.00" y2="252.00" stroke="#0ecb81" stroke-width="1.4" /><rect x="69.00" y="172.00" width="6" height="80.00" rx="1.5" fill="#0ecb81" /><line x1="82.73" y1="156.00" x2="82.73" y2="182.00" stroke="#f6465d" stroke-width="1.4" /><rect x="79.73" y="172.00" width="6" height="6.00" rx="1.5" fill="#f6465d" /><line x1="93.47" y1="168.00" x2="93.47" y2="204.00" stroke="#f6465d" stroke-width="1.4" /><rect x="90.47" y="178.00" width="6" height="10.00" rx="1.5" fill="#f6465d" /><line x1="104.20" y1="160.00" x2="104.20" y2="202.00" stroke="#f6465d" stroke-width="1.4" /><rect x="101.20" y="188.00" width="6" height="2.00" rx="1.5" fill="#f6465d" /><line x1="114.94" y1="176.00" x2="114.94" y2="200.00" stroke="#f6465d" stroke-width="1.4" /><rect x="111.94" y="190.00" width="6" height="8.00" rx="1.5" fill="#f6465d" /><line x1="125.67" y1="182.00" x2="125.67" y2="220.00" stroke="#0ecb81" stroke-width="1.4" /><rect x="122.67" y="198.00" width="6" height="2.00" rx="1.5" fill="#0ecb81" /><line x1="136.41" y1="196.00" x2="136.41" y2="220.00" stroke="#f6465d" stroke-width="1.4" /><rect x="133.41" y="198.00" width="6" height="8.00" rx="1.5" fill="#f6465d" /><line x1="147.14" y1="92.00" x2="147.14" y2="208.00" stroke="#0ecb81" stroke-width="1.4" /><rect x="144.14" y="92.00" width="6" height="114.00" rx="1.5" fill="#0ecb81" /><line x1="157.87" y1="84.00" x2="157.87" y2="198.00" stroke="#f6465d" stroke-width="1.4" /><rect x="154.87" y="92.00" width="6" height="84.00" rx="1.5" fill="#f6465d" /><line x1="168.61" y1="166.00" x2="168.61" y2="212.00" stroke="#f6465d" stroke-width="1.4" /><rect x="165.61" y="174.00" width="6" height="32.00" rx="1.5" fill="#f6465d" /><line x1="179.34" y1="176.00" x2="179.34" y2="206.00" stroke="#0ecb81" stroke-width="1.4" /><rect x="176.34" y="196.00" width="6" height="10.00" rx="1.5" fill="#0ecb81" /><line x1="190.08" y1="182.00" x2="190.08" y2="222.00" stroke="#0ecb81" stroke-width="1.4" /><rect x="187.08" y="184.00" width="6" height="12.00" rx="1.5" fill="#0ecb81" /><line x1="200.81" y1="174.00" x2="200.81" y2="190.00" stroke="#f6465d" stroke-width="1.4" /><rect x="197.81" y="184.00" width="6" height="2.00" rx="1.5" fill="#f6465d" /><line x1="211.54" y1="166.00" x2="211.54" y2="196.00" stroke="#f6465d" stroke-width="1.4" /><rect x="208.54" y="188.00" width="6" height="2.00" rx="1.5" fill="#f6465d" /><line x1="222.28" y1="172.00" x2="222.28" y2="202.00" stroke="#0ecb81" stroke-width="1.4" /><rect x="219.28" y="184.00" width="6" height="6.00" rx="1.5" fill="#0ecb81" /><line x1="233.01" y1="170.00" x2="233.01" y2="252.00" stroke="#f6465d" stroke-width="1.4" /><rect x="230.01" y="186.00" width="6" height="22.00" rx="1.5" fill="#f6465d" /><line x1="243.75" y1="184.00" x2="243.75" y2="228.00" stroke="#0ecb81" stroke-width="1.4" /><rect x="240.75" y="198.00" width="6" height="10.00" rx="1.5" fill="#0ecb81" /><line x1="254.48" y1="196.00" x2="254.48" y2="240.00" stroke="#f6465d" stroke-width="1.4" /><rect x="251.48" y="198.00" width="6" height="28.00" rx="1.5" fill="#f6465d" /><line x1="265.22" y1="186.00" x2="265.22" y2="228.00" stroke="#0ecb81" stroke-width="1.4" /><rect x="262.22" y="216.00" width="6" height="12.00" rx="1.5" fill="#0ecb81" /><line x1="275.95" y1="186.00" x2="275.95" y2="228.00" stroke="#0ecb81" stroke-width="1.4" /><rect x="272.95" y="194.00" width="6" height="20.00" rx="1.5" fill="#0ecb81" /><line x1="286.68" y1="170.00" x2="286.68" y2="196.00" stroke="#0ecb81" stroke-width="1.4" /><rect x="283.68" y="182.00" width="6" height="10.00" rx="1.5" fill="#0ecb81" /><line x1="297.42" y1="168.00" x2="297.42" y2="192.00" stroke="#0ecb81" stroke-width="1.4" /><rect x="294.42" y="168.00" width="6" height="16.00" rx="1.5" fill="#0ecb81" /><line x1="308.15" y1="160.00" x2="308.15" y2="190.00" stroke="#f6465d" stroke-width="1.4" /><rect x="305.15" y="166.00" width="6" height="12.00" rx="1.5" fill="#f6465d" /><line x1="318.89" y1="172.00" x2="318.89" y2="198.00" stroke="#f6465d" stroke-width="1.4" /><rect x="315.89" y="180.00" width="6" height="8.00" rx="1.5" fill="#f6465d" /><line x1="329.62" y1="188.00" x2="329.62" y2="226.00" stroke="#f6465d" stroke-width="1.4" /><rect x="326.62" y="188.00" width="6" height="32.00" rx="1.5" fill="#f6465d" /><line x1="340.35" y1="188.00" x2="340.35" y2="222.00" stroke="#0ecb81" stroke-width="1.4" /><rect x="337.35" y="188.00" width="6" height="34.00" rx="1.5" fill="#0ecb81" /><line x1="351.09" y1="156.00" x2="351.09" y2="186.00" stroke="#0ecb81" stroke-width="1.4" /><rect x="348.09" y="164.00" width="6" height="22.00" rx="1.5" fill="#0ecb81" /><line x1="361.82" y1="146.00" x2="361.82" y2="180.00" stroke="#0ecb81" stroke-width="1.4" /><rect x="358.82" y="164.00" width="6" height="2.00" rx="1.5" fill="#0ecb81" /><line x1="372.56" y1="124.00" x2="372.56" y2="172.00" stroke="#0ecb81" stroke-width="1.4" /><rect x="369.56" y="124.00" width="6" height="40.00" rx="1.5" fill="#0ecb81" /><line x1="383.29" y1="100.00" x2="383.29" y2="128.00" stroke="#0ecb81" stroke-width="1.4" /><rect x="380.29" y="116.00" width="6" height="8.00" rx="1.5" fill="#0ecb81" /><line x1="394.03" y1="76.00" x2="394.03" y2="120.00" stroke="#0ecb81" stroke-width="1.4" /><rect x="391.03" y="76.00" width="6" height="40.00" rx="1.5" fill="#0ecb81" /><line x1="404.76" y1="58.00" x2="404.76" y2="156.00" stroke="#f6465d" stroke-width="1.4" /><rect x="401.76" y="76.00" width="6" height="68.00" rx="1.5" fill="#f6465d" /><line x1="415.49" y1="146.00" x2="415.49" y2="198.00" stroke="#f6465d" stroke-width="1.4" /><rect x="412.49" y="146.00" width="6" height="42.00" rx="1.5" fill="#f6465d" /><line x1="426.23" y1="162.00" x2="426.23" y2="194.00" stroke="#0ecb81" stroke-width="1.4" /><rect x="423.23" y="182.00" width="6" height="4.00" rx="1.5" fill="#0ecb81" /><line x1="436.96" y1="170.00" x2="436.96" y2="200.00" stroke="#f6465d" stroke-width="1.4" /><rect x="433.96" y="182.00" width="6" height="14.00" rx="1.5" fill="#f6465d" /><line x1="447.70" y1="186.00" x2="447.70" y2="226.00" stroke="#0ecb81" stroke-width="1.4" /><rect x="444.70" y="190.00" width="6" height="8.00" rx="1.5" fill="#0ecb81" /><line x1="458.43" y1="138.00" x2="458.43" y2="192.00" stroke="#0ecb81" stroke-width="1.4" /><rect x="455.43" y="150.00" width="6" height="38.00" rx="1.5" fill="#0ecb81" /><line x1="469.16" y1="92.00" x2="469.16" y2="158.00" stroke="#0ecb81" stroke-width="1.4" /><rect x="466.16" y="144.00" width="6" height="8.00" rx="1.5" fill="#0ecb81" /><line x1="479.90" y1="114.00" x2="479.90" y2="160.00" stroke="#0ecb81" stroke-width="1.4" /><rect x="476.90" y="122.00" width="6" height="22.00" rx="1.5" fill="#0ecb81" /><line x1="490.63" y1="104.00" x2="490.63" y2="134.00" stroke="#f6465d" stroke-width="1.4" /><rect x="487.63" y="124.00" width="6" height="4.00" rx="1.5" fill="#f6465d" /><line x1="501.37" y1="122.00" x2="501.37" y2="154.00" stroke="#0ecb81" stroke-width="1.4" /><rect x="498.37" y="122.00" width="6" height="4.00" rx="1.5" fill="#0ecb81" /><line x1="512.10" y1="122.00" x2="512.10" y2="140.00" stroke="#0ecb81" stroke-width="1.4" /><rect x="509.10" y="124.00" width="6" height="2.00" rx="1.5" fill="#0ecb81" /><line x1="522.84" y1="80.00" x2="522.84" y2="130.00" stroke="#0ecb81" stroke-width="1.4" /><rect x="519.84" y="100.00" width="6" height="26.00" rx="1.5" fill="#0ecb81" /><line x1="533.57" y1="78.00" x2="533.57" y2="124.00" stroke="#f6465d" stroke-width="1.4" /><rect x="530.57" y="100.00" width="6" height="6.00" rx="1.5" fill="#f6465d" /><line x1="544.30" y1="108.00" x2="544.30" y2="138.00" stroke="#f6465d" stroke-width="1.4" /><rect x="541.30" y="108.00" width="6" height="16.00" rx="1.5" fill="#f6465d" /><line x1="555.04" y1="116.00" x2="555.04" y2="136.00" stroke="#f6465d" stroke-width="1.4" /><rect x="552.04" y="124.00" width="6" height="12.00" rx="1.5" fill="#f6465d" /><line x1="565.77" y1="122.00" x2="565.77" y2="184.00" stroke="#f6465d" stroke-width="1.4" /><rect x="562.77" y="136.00" width="6" height="24.00" rx="1.5" fill="#f6465d" /><line x1="576.51" y1="112.00" x2="576.51" y2="160.00" stroke="#0ecb81" stroke-width="1.4" /><rect x="573.51" y="154.00" width="6" height="6.00" rx="1.5" fill="#0ecb81" /><line x1="587.24" y1="148.00" x2="587.24" y2="182.00" stroke="#0ecb81" stroke-width="1.4" /><rect x="584.24" y="150.00" width="6" height="6.00" rx="1.5" fill="#0ecb81" /><line x1="597.97" y1="128.00" x2="597.97" y2="166.00" stroke="#f6465d" stroke-width="1.4" /><rect x="594.97" y="148.00" width="6" height="8.00" rx="1.5" fill="#f6465d" /><line x1="608.71" y1="156.00" x2="608.71" y2="294.00" stroke="#f6465d" stroke-width="1.4" /><rect x="605.71" y="156.00" width="6" height="98.00" rx="1.5" fill="#f6465d" /><line x1="619.44" y1="248.00" x2="619.44" y2="360.00" stroke="#f6465d" stroke-width="1.4" /><rect x="616.44" y="254.00" width="6" height="88.00" rx="1.5" fill="#f6465d" /><line x1="630.18" y1="308.00" x2="630.18" y2="378.00" stroke="#0ecb81" stroke-width="1.4" /><rect x="627.18" y="324.00" width="6" height="18.00" rx="1.5" fill="#0ecb81" /><line x1="640.91" y1="282.00" x2="640.91" y2="326.00" stroke="#0ecb81" stroke-width="1.4" /><rect x="637.91" y="304.00" width="6" height="20.00" rx="1.5" fill="#0ecb81" /><line x1="651.65" y1="286.00" x2="651.65" y2="312.00" stroke="#f6465d" stroke-width="1.4" /><rect x="648.65" y="304.00" width="6" height="6.00" rx="1.5" fill="#f6465d" /><line x1="662.38" y1="280.00" x2="662.38" y2="322.00" stroke="#0ecb81" stroke-width="1.4" /><rect x="659.38" y="302.00" width="6" height="8.00" rx="1.5" fill="#0ecb81" /><line x1="673.11" y1="296.00" x2="673.11" y2="354.00" stroke="#f6465d" stroke-width="1.4" /><rect x="670.11" y="302.00" width="6" height="50.00" rx="1.5" fill="#f6465d" /><line x1="683.85" y1="344.00" x2="683.85" y2="410.00" stroke="#f6465d" stroke-width="1.4" /><rect x="680.85" y="350.00" width="6" height="34.00" rx="1.5" fill="#f6465d" /><line x1="694.58" y1="366.00" x2="694.58" y2="392.00" stroke="#0ecb81" stroke-width="1.4" /><rect x="691.58" y="376.00" width="6" height="8.00" rx="1.5" fill="#0ecb81" /><line x1="705.32" y1="348.00" x2="705.32" y2="388.00" stroke="#0ecb81" stroke-width="1.4" /><rect x="702.32" y="370.00" width="6" height="4.00" rx="1.5" fill="#0ecb81" /><line x1="716.05" y1="358.00" x2="716.05" y2="400.00" stroke="#f6465d" stroke-width="1.4" /><rect x="713.05" y="370.00" width="6" height="22.00" rx="1.5" fill="#f6465d" /><line x1="726.78" y1="380.00" x2="726.78" y2="410.00" stroke="#f6465d" stroke-width="1.4" /><rect x="723.78" y="390.00" width="6" height="18.00" rx="1.5" fill="#f6465d" /><line x1="737.52" y1="332.00" x2="737.52" y2="408.00" stroke="#0ecb81" stroke-width="1.4" /><rect x="734.52" y="340.00" width="6" height="68.00" rx="1.5" fill="#0ecb81" /><line x1="748.25" y1="308.00" x2="748.25" y2="360.00" stroke="#f6465d" stroke-width="1.4" /><rect x="745.25" y="338.00" width="6" height="16.00" rx="1.5" fill="#f6465d" /><line x1="758.99" y1="312.00" x2="758.99" y2="360.00" stroke="#0ecb81" stroke-width="1.4" /><rect x="755.99" y="322.00" width="6" height="30.00" rx="1.5" fill="#0ecb81" /><line x1="769.72" y1="294.00" x2="769.72" y2="348.00" stroke="#0ecb81" stroke-width="1.4" /><rect x="766.72" y="298.00" width="6" height="24.00" rx="1.5" fill="#0ecb81" /><line x1="780.46" y1="274.00" x2="780.46" y2="302.00" stroke="#0ecb81" stroke-width="1.4" /><rect x="777.46" y="274.00" width="6" height="26.00" rx="1.5" fill="#0ecb81" /><line x1="791.19" y1="276.00" x2="791.19" y2="326.00" stroke="#f6465d" stroke-width="1.4" /><rect x="788.19" y="276.00" width="6" height="40.00" rx="1.5" fill="#f6465d" /><line x1="801.92" y1="302.00" x2="801.92" y2="324.00" stroke="#0ecb81" stroke-width="1.4" /><rect x="798.92" y="302.00" width="6" height="14.00" rx="1.5" fill="#0ecb81" /><line x1="812.66" y1="222.00" x2="812.66" y2="312.00" stroke="#0ecb81" stroke-width="1.4" /><rect x="809.66" y="264.00" width="6" height="36.00" rx="1.5" fill="#0ecb81" /><line x1="823.39" y1="264.00" x2="823.39" y2="318.00" stroke="#f6465d" stroke-width="1.4" /><rect x="820.39" y="264.00" width="6" height="54.00" rx="1.5" fill="#f6465d" /><line x1="834.13" y1="312.00" x2="834.13" y2="338.00" stroke="#f6465d" stroke-width="1.4" /><rect x="831.13" y="316.00" width="6" height="2.00" rx="1.5" fill="#f6465d" /><line x1="844.86" y1="292.00" x2="844.86" y2="346.00" stroke="#f6465d" stroke-width="1.4" /><rect x="841.86" y="320.00" width="6" height="20.00" rx="1.5" fill="#f6465d" /><line x1="855.59" y1="332.00" x2="855.59" y2="352.00" stroke="#f6465d" stroke-width="1.4" /><rect x="852.59" y="340.00" width="6" height="6.00" rx="1.5" fill="#f6465d" /><line x1="866.33" y1="316.00" x2="866.33" y2="356.00" stroke="#0ecb81" stroke-width="1.4" /><rect x="863.33" y="322.00" width="6" height="22.00" rx="1.5" fill="#0ecb81" /><line x1="877.06" y1="314.00" x2="877.06" y2="356.00" stroke="#f6465d" stroke-width="1.4" /><rect x="874.06" y="324.00" width="6" height="32.00" rx="1.5" fill="#f6465d" /><line x1="887.80" y1="346.00" x2="887.80" y2="388.00" stroke="#f6465d" stroke-width="1.4" /><rect x="884.80" y="356.00" width="6" height="30.00" rx="1.5" fill="#f6465d" /><line x1="898.53" y1="384.00" x2="898.53" y2="452.00" stroke="#f6465d" stroke-width="1.4" /><rect x="895.53" y="388.00" width="6" height="18.00" rx="1.5" fill="#f6465d" /><line x1="909.27" y1="356.00" x2="909.27" y2="410.00" stroke="#0ecb81" stroke-width="1.4" /><rect x="906.27" y="358.00" width="6" height="48.00" rx="1.5" fill="#0ecb81" /><line x1="920.00" y1="356.00" x2="920.00" y2="358.00" stroke="#0ecb81" stroke-width="1.4" /><rect x="917.00" y="356.00" width="6" height="2.00" rx="1.5" fill="#0ecb81" />
  <polyline points="211.54,166.00 233.01,252.00 308.15,160.00 329.62,226.00 404.76,58.00" fill="none" stroke="#2fc273" stroke-width="4" stroke-linecap="round" stroke-linejoin="round" />
  <circle cx="211.54" cy="166.00" r="5.5" fill="#2fc273" fill-opacity="0.15" stroke="#2fc273" stroke-width="2" /><text x="211.54" y="154.00" fill="#f3f4f6" font-size="15" font-weight="700" text-anchor="middle">X</text><circle cx="233.01" cy="252.00" r="5.5" fill="#2fc273" fill-opacity="0.15" stroke="#2fc273" stroke-width="2" /><text x="233.01" y="240.00" fill="#f3f4f6" font-size="15" font-weight="700" text-anchor="middle">A</text><circle cx="308.15" cy="160.00" r="5.5" fill="#2fc273" fill-opacity="0.15" stroke="#2fc273" stroke-width="2" /><text x="308.15" y="148.00" fill="#f3f4f6" font-size="15" font-weight="700" text-anchor="middle">B</text><circle cx="329.62" cy="226.00" r="5.5" fill="#2fc273" fill-opacity="0.15" stroke="#2fc273" stroke-width="2" /><text x="329.62" y="214.00" fill="#f3f4f6" font-size="15" font-weight="700" text-anchor="middle">C</text><circle cx="404.76" cy="58.00" r="5.5" fill="#2fc273" fill-opacity="0.15" stroke="#2fc273" stroke-width="2" /><text x="404.76" y="46.00" fill="#f3f4f6" font-size="15" font-weight="700" text-anchor="middle">D</text>
  <text x="56" y="492" fill="#8ba0b5" font-size="18">일반 완성 · TP1 0.087649 · TP2 0.087451 · SL 0.088026</text>
</svg>
