<svg xmlns="http://www.w3.org/2000/svg" width="960" height="540" viewBox="0 0 960 540">
  <rect width="960" height="540" rx="24" fill="#0b1220" />
  <rect x="28" y="28" width="904" height="484" rx="22" fill="#111827" stroke="#1f2937" />
  <text x="56" y="74" fill="#f3f4f6" font-size="34" font-weight="700">HEMIUSDT · AB=CD</text>
  <text x="904" y="74" fill="#8ba0b5" font-size="20" text-anchor="end">Bearish (매도) · Score 90.7</text>
  <line x1="72" y1="58" x2="920" y2="58" stroke="#223045" stroke-width="1" stroke-dasharray="4 8" /><line x1="72" y1="156" x2="920" y2="156" stroke="#223045" stroke-width="1" stroke-dasharray="4 8" /><line x1="72" y1="255" x2="920" y2="255" stroke="#223045" stroke-width="1" stroke-dasharray="4 8" /><line x1="72" y1="353" x2="920" y2="353" stroke="#223045" stroke-width="1" stroke-dasharray="4 8" /><line x1="72" y1="452" x2="920" y2="452" stroke="#223045" stroke-width="1" stroke-dasharray="4 8" />
  <rect x="516.30" y="16.29" width="84" height="130.58" fill="#fbbf24" fill-opacity="0.12" stroke="#fbbf24" stroke-width="1.5" stroke-dasharray="6 6" />
  <line x1="72.00" y1="107.09" x2="72.00" y2="185.38" stroke="#0ecb81" stroke-width="1.4" /><rect x="69.00" y="173.50" width="6" height="2.00" rx="1.5" fill="#0ecb81" /><line x1="82.73" y1="124.42" x2="82.73" y2="187.62" stroke="#0ecb81" stroke-width="1.4" /><rect x="79.73" y="132.12" width="6" height="41.39" rx="1.5" fill="#0ecb81" /><line x1="93.47" y1="113.19" x2="93.47" y2="179.60" stroke="#f6465d" stroke-width="1.4" /><rect x="90.47" y="132.12" width="6" height="40.11" rx="1.5" fill="#f6465d" /><line x1="104.20" y1="152.33" x2="104.20" y2="230.94" stroke="#f6465d" stroke-width="1.4" /><rect x="101.20" y="173.50" width="6" height="31.12" rx="1.5" fill="#f6465d" /><line x1="114.94" y1="177.68" x2="114.94" y2="218.42" stroke="#0ecb81" stroke-width="1.4" /><rect x="111.94" y="199.49" width="6" height="3.85" rx="1.5" fill="#0ecb81" /><line x1="125.67" y1="190.83" x2="125.67" y2="240.56" stroke="#f6465d" stroke-width="1.4" /><rect x="122.67" y="199.49" width="6" height="6.74" rx="1.5" fill="#f6465d" /><line x1="136.41" y1="116.39" x2="136.41" y2="245.70" stroke="#f6465d" stroke-width="1.4" /><rect x="133.41" y="206.23" width="6" height="34.65" rx="1.5" fill="#f6465d" /><line x1="147.14" y1="234.14" x2="147.14" y2="337.78" stroke="#f6465d" stroke-width="1.4" /><rect x="144.14" y="241.85" width="6" height="7.38" rx="1.5" fill="#f6465d" /><line x1="157.87" y1="230.94" x2="157.87" y2="293.82" stroke="#f6465d" stroke-width="1.4" /><rect x="154.87" y="250.51" width="6" height="35.61" rx="1.5" fill="#f6465d" /><line x1="168.61" y1="269.12" x2="168.61" y2="305.69" stroke="#0ecb81" stroke-width="1.4" /><rect x="165.61" y="275.53" width="6" height="9.95" rx="1.5" fill="#0ecb81" /><line x1="179.34" y1="252.11" x2="179.34" y2="281.31" stroke="#0ecb81" stroke-width="1.4" /><rect x="176.34" y="261.42" width="6" height="14.44" rx="1.5" fill="#0ecb81" /><line x1="190.08" y1="237.03" x2="190.08" y2="279.38" stroke="#f6465d" stroke-width="1.4" /><rect x="187.08" y="261.10" width="6" height="12.51" rx="1.5" fill="#f6465d" /><line x1="200.81" y1="249.55" x2="200.81" y2="314.04" stroke="#f6465d" stroke-width="1.4" /><rect x="197.81" y="272.97" width="6" height="25.03" rx="1.5" fill="#f6465d" /><line x1="211.54" y1="285.48" x2="211.54" y2="318.85" stroke="#0ecb81" stroke-width="1.4" /><rect x="208.54" y="289.01" width="6" height="8.98" rx="1.5" fill="#0ecb81" /><line x1="222.28" y1="279.71" x2="222.28" y2="310.19" stroke="#f6465d" stroke-width="1.4" /><rect x="219.28" y="288.05" width="6" height="13.48" rx="1.5" fill="#f6465d" /><line x1="233.01" y1="283.56" x2="233.01" y2="312.11" stroke="#0ecb81" stroke-width="1.4" /><rect x="230.01" y="285.16" width="6" height="16.36" rx="1.5" fill="#0ecb81" /><line x1="243.75" y1="247.30" x2="243.75" y2="289.01" stroke="#0ecb81" stroke-width="1.4" /><rect x="240.75" y="251.47" width="6" height="34.01" rx="1.5" fill="#0ecb81" /><line x1="254.48" y1="227.73" x2="254.48" y2="302.16" stroke="#f6465d" stroke-width="1.4" /><rect x="251.48" y="250.83" width="6" height="41.71" rx="1.5" fill="#f6465d" /><line x1="265.22" y1="281.63" x2="265.22" y2="333.61" stroke="#f6465d" stroke-width="1.4" /><rect x="262.22" y="292.54" width="6" height="17.65" rx="1.5" fill="#f6465d" /><line x1="275.95" y1="238.32" x2="275.95" y2="310.51" stroke="#0ecb81" stroke-width="1.4" /><rect x="272.95" y="268.48" width="6" height="41.71" rx="1.5" fill="#0ecb81" /><line x1="286.68" y1="191.15" x2="286.68" y2="266.87" stroke="#0ecb81" stroke-width="1.4" /><rect x="283.68" y="232.54" width="6" height="34.33" rx="1.5" fill="#0ecb81" /><line x1="297.42" y1="160.03" x2="297.42" y2="246.34" stroke="#0ecb81" stroke-width="1.4" /><rect x="294.42" y="222.92" width="6" height="9.95" rx="1.5" fill="#0ecb81" /><line x1="308.15" y1="188.91" x2="308.15" y2="237.35" stroke="#f6465d" stroke-width="1.4" /><rect x="305.15" y="222.59" width="6" height="2.00" rx="1.5" fill="#f6465d" /><line x1="318.89" y1="211.36" x2="318.89" y2="263.98" stroke="#f6465d" stroke-width="1.4" /><rect x="315.89" y="224.20" width="6" height="22.46" rx="1.5" fill="#f6465d" /><line x1="329.62" y1="241.20" x2="329.62" y2="263.66" stroke="#0ecb81" stroke-width="1.4" /><rect x="326.62" y="243.45" width="6" height="3.21" rx="1.5" fill="#0ecb81" /><line x1="340.35" y1="215.21" x2="340.35" y2="267.83" stroke="#0ecb81" stroke-width="1.4" /><rect x="337.35" y="228.05" width="6" height="15.72" rx="1.5" fill="#0ecb81" /><line x1="351.09" y1="222.27" x2="351.09" y2="246.98" stroke="#0ecb81" stroke-width="1.4" /><rect x="348.09" y="224.84" width="6" height="3.85" rx="1.5" fill="#0ecb81" /><line x1="361.82" y1="215.21" x2="361.82" y2="257.89" stroke="#f6465d" stroke-width="1.4" /><rect x="358.82" y="224.84" width="6" height="17.65" rx="1.5" fill="#f6465d" /><line x1="372.56" y1="228.69" x2="372.56" y2="272.65" stroke="#f6465d" stroke-width="1.4" /><rect x="369.56" y="242.49" width="6" height="17.65" rx="1.5" fill="#f6465d" /><line x1="383.29" y1="258.85" x2="383.29" y2="324.62" stroke="#f6465d" stroke-width="1.4" /><rect x="380.29" y="260.13" width="6" height="44.28" rx="1.5" fill="#f6465d" /><line x1="394.03" y1="236.39" x2="394.03" y2="312.11" stroke="#0ecb81" stroke-width="1.4" /><rect x="391.03" y="242.49" width="6" height="61.60" rx="1.5" fill="#0ecb81" /><line x1="404.76" y1="215.86" x2="404.76" y2="256.93" stroke="#0ecb81" stroke-width="1.4" /><rect x="401.76" y="235.75" width="6" height="6.74" rx="1.5" fill="#0ecb81" /><line x1="415.49" y1="215.86" x2="415.49" y2="256.60" stroke="#f6465d" stroke-width="1.4" /><rect x="412.49" y="235.75" width="6" height="9.63" rx="1.5" fill="#f6465d" /><line x1="426.23" y1="231.26" x2="426.23" y2="276.18" stroke="#f6465d" stroke-width="1.4" /><rect x="423.23" y="246.34" width="6" height="10.59" rx="1.5" fill="#f6465d" /><line x1="436.96" y1="217.46" x2="436.96" y2="262.70" stroke="#0ecb81" stroke-width="1.4" /><rect x="433.96" y="246.02" width="6" height="10.91" rx="1.5" fill="#0ecb81" /><line x1="447.70" y1="227.73" x2="447.70" y2="255.64" stroke="#0ecb81" stroke-width="1.4" /><rect x="444.70" y="235.43" width="6" height="11.23" rx="1.5" fill="#0ecb81" /><line x1="458.43" y1="193.40" x2="458.43" y2="236.71" stroke="#0ecb81" stroke-width="1.4" /><rect x="455.43" y="199.17" width="6" height="36.58" rx="1.5" fill="#0ecb81" /><line x1="469.16" y1="122.17" x2="469.16" y2="203.02" stroke="#0ecb81" stroke-width="1.4" /><rect x="466.16" y="129.55" width="6" height="69.94" rx="1.5" fill="#0ecb81" /><line x1="479.90" y1="122.81" x2="479.90" y2="220.67" stroke="#f6465d" stroke-width="1.4" /><rect x="476.90" y="130.51" width="6" height="58.39" rx="1.5" fill="#f6465d" /><line x1="490.63" y1="168.05" x2="490.63" y2="228.05" stroke="#f6465d" stroke-width="1.4" /><rect x="487.63" y="188.58" width="6" height="26.95" rx="1.5" fill="#f6465d" /><line x1="501.37" y1="176.39" x2="501.37" y2="217.78" stroke="#0ecb81" stroke-width="1.4" /><rect x="498.37" y="193.08" width="6" height="22.46" rx="1.5" fill="#0ecb81" /><line x1="512.10" y1="172.22" x2="512.10" y2="220.99" stroke="#0ecb81" stroke-width="1.4" /><rect x="509.10" y="182.49" width="6" height="10.59" rx="1.5" fill="#0ecb81" /><line x1="522.84" y1="132.76" x2="522.84" y2="185.06" stroke="#0ecb81" stroke-width="1.4" /><rect x="519.84" y="155.22" width="6" height="27.27" rx="1.5" fill="#0ecb81" /><line x1="533.57" y1="103.88" x2="533.57" y2="175.11" stroke="#0ecb81" stroke-width="1.4" /><rect x="530.57" y="116.07" width="6" height="39.14" rx="1.5" fill="#0ecb81" /><line x1="544.30" y1="76.61" x2="544.30" y2="160.35" stroke="#f6465d" stroke-width="1.4" /><rect x="541.30" y="116.39" width="6" height="12.51" rx="1.5" fill="#f6465d" /><line x1="555.04" y1="123.45" x2="555.04" y2="178.96" stroke="#f6465d" stroke-width="1.4" /><rect x="552.04" y="128.59" width="6" height="36.90" rx="1.5" fill="#f6465d" /><line x1="565.77" y1="133.40" x2="565.77" y2="169.33" stroke="#0ecb81" stroke-width="1.4" /><rect x="562.77" y="158.43" width="6" height="6.74" rx="1.5" fill="#0ecb81" /><line x1="576.51" y1="154.90" x2="576.51" y2="228.69" stroke="#f6465d" stroke-width="1.4" /><rect x="573.51" y="158.75" width="6" height="66.09" rx="1.5" fill="#f6465d" /><line x1="587.24" y1="217.78" x2="587.24" y2="265.59" stroke="#f6465d" stroke-width="1.4" /><rect x="584.24" y="223.56" width="6" height="18.61" rx="1.5" fill="#f6465d" /><line x1="597.97" y1="217.46" x2="597.97" y2="246.98" stroke="#0ecb81" stroke-width="1.4" /><rect x="594.97" y="222.27" width="6" height="20.21" rx="1.5" fill="#0ecb81" /><line x1="608.71" y1="116.71" x2="608.71" y2="223.56" stroke="#0ecb81" stroke-width="1.4" /><rect x="605.71" y="170.30" width="6" height="51.01" rx="1.5" fill="#0ecb81" /><line x1="619.44" y1="164.84" x2="619.44" y2="226.12" stroke="#f6465d" stroke-width="1.4" /><rect x="616.44" y="171.58" width="6" height="25.35" rx="1.5" fill="#f6465d" /><line x1="630.18" y1="154.25" x2="630.18" y2="215.54" stroke="#0ecb81" stroke-width="1.4" /><rect x="627.18" y="185.06" width="6" height="11.55" rx="1.5" fill="#0ecb81" /><line x1="640.91" y1="130.51" x2="640.91" y2="192.11" stroke="#0ecb81" stroke-width="1.4" /><rect x="637.91" y="137.89" width="6" height="48.45" rx="1.5" fill="#0ecb81" /><line x1="651.65" y1="58.00" x2="651.65" y2="154.57" stroke="#0ecb81" stroke-width="1.4" /><rect x="648.65" y="75.97" width="6" height="61.60" rx="1.5" fill="#0ecb81" /><line x1="662.38" y1="72.44" x2="662.38" y2="129.23" stroke="#f6465d" stroke-width="1.4" /><rect x="659.38" y="75.97" width="6" height="37.22" rx="1.5" fill="#f6465d" /><line x1="673.11" y1="110.94" x2="673.11" y2="210.40" stroke="#f6465d" stroke-width="1.4" /><rect x="670.11" y="113.19" width="6" height="67.38" rx="1.5" fill="#f6465d" /><line x1="683.85" y1="115.75" x2="683.85" y2="221.31" stroke="#0ecb81" stroke-width="1.4" /><rect x="680.85" y="156.50" width="6" height="24.06" rx="1.5" fill="#0ecb81" /><line x1="694.58" y1="129.87" x2="694.58" y2="164.20" stroke="#0ecb81" stroke-width="1.4" /><rect x="691.58" y="138.53" width="6" height="17.97" rx="1.5" fill="#0ecb81" /><line x1="705.32" y1="85.59" x2="705.32" y2="161.31" stroke="#f6465d" stroke-width="1.4" /><rect x="702.32" y="138.21" width="6" height="14.12" rx="1.5" fill="#f6465d" /><line x1="716.05" y1="138.85" x2="716.05" y2="187.30" stroke="#f6465d" stroke-width="1.4" /><rect x="713.05" y="152.01" width="6" height="5.45" rx="1.5" fill="#f6465d" /><line x1="726.78" y1="98.75" x2="726.78" y2="178.64" stroke="#0ecb81" stroke-width="1.4" /><rect x="723.78" y="111.58" width="6" height="45.56" rx="1.5" fill="#0ecb81" /><line x1="737.52" y1="110.30" x2="737.52" y2="182.49" stroke="#f6465d" stroke-width="1.4" /><rect x="734.52" y="111.26" width="6" height="45.88" rx="1.5" fill="#f6465d" /><line x1="748.25" y1="142.06" x2="748.25" y2="186.02" stroke="#f6465d" stroke-width="1.4" /><rect x="745.25" y="157.78" width="6" height="5.78" rx="1.5" fill="#f6465d" /><line x1="758.99" y1="135.97" x2="758.99" y2="215.86" stroke="#f6465d" stroke-width="1.4" /><rect x="755.99" y="163.56" width="6" height="46.84" rx="1.5" fill="#f6465d" /><line x1="769.72" y1="191.15" x2="769.72" y2="235.75" stroke="#f6465d" stroke-width="1.4" /><rect x="766.72" y="209.76" width="6" height="3.85" rx="1.5" fill="#f6465d" /><line x1="780.46" y1="206.23" x2="780.46" y2="279.38" stroke="#f6465d" stroke-width="1.4" /><rect x="777.46" y="213.29" width="6" height="40.43" rx="1.5" fill="#f6465d" /><line x1="791.19" y1="246.98" x2="791.19" y2="265.59" stroke="#0ecb81" stroke-width="1.4" /><rect x="788.19" y="253.07" width="6" height="2.00" rx="1.5" fill="#0ecb81" /><line x1="801.92" y1="243.77" x2="801.92" y2="304.09" stroke="#f6465d" stroke-width="1.4" /><rect x="798.92" y="252.43" width="6" height="46.20" rx="1.5" fill="#f6465d" /><line x1="812.66" y1="283.23" x2="812.66" y2="311.47" stroke="#f6465d" stroke-width="1.4" /><rect x="809.66" y="298.31" width="6" height="7.38" rx="1.5" fill="#f6465d" /><line x1="823.39" y1="305.69" x2="823.39" y2="350.93" stroke="#f6465d" stroke-width="1.4" /><rect x="820.39" y="306.34" width="6" height="16.36" rx="1.5" fill="#f6465d" /><line x1="834.13" y1="315.64" x2="834.13" y2="364.09" stroke="#f6465d" stroke-width="1.4" /><rect x="831.13" y="322.38" width="6" height="7.06" rx="1.5" fill="#f6465d" /><line x1="844.86" y1="318.85" x2="844.86" y2="342.59" stroke="#0ecb81" stroke-width="1.4" /><rect x="841.86" y="320.77" width="6" height="8.66" rx="1.5" fill="#0ecb81" /><line x1="855.59" y1="271.04" x2="855.59" y2="340.02" stroke="#0ecb81" stroke-width="1.4" /><rect x="852.59" y="283.56" width="6" height="37.22" rx="1.5" fill="#0ecb81" /><line x1="866.33" y1="275.21" x2="866.33" y2="344.52" stroke="#f6465d" stroke-width="1.4" /><rect x="863.33" y="284.84" width="6" height="19.89" rx="1.5" fill="#f6465d" /><line x1="877.06" y1="299.60" x2="877.06" y2="378.21" stroke="#f6465d" stroke-width="1.4" /><rect x="874.06" y="304.73" width="6" height="66.42" rx="1.5" fill="#f6465d" /><line x1="887.80" y1="367.62" x2="887.80" y2="417.67" stroke="#f6465d" stroke-width="1.4" /><rect x="884.80" y="370.83" width="6" height="16.04" rx="1.5" fill="#f6465d" /><line x1="898.53" y1="364.73" x2="898.53" y2="400.66" stroke="#f6465d" stroke-width="1.4" /><rect x="895.53" y="386.55" width="6" height="2.89" rx="1.5" fill="#f6465d" /><line x1="909.27" y1="386.23" x2="909.27" y2="452.00" stroke="#f6465d" stroke-width="1.4" /><rect x="906.27" y="388.79" width="6" height="46.52" rx="1.5" fill="#f6465d" /><line x1="920.00" y1="434.35" x2="920.00" y2="443.02" stroke="#0ecb81" stroke-width="1.4" /><rect x="917.00" y="435.00" width="6" height="2.00" rx="1.5" fill="#0ecb81" />
  <polyline points="72.00,-21.25 147.14,337.78 297.42,160.03 383.29,324.62 544.30,76.61" fill="none" stroke="#2fc273" stroke-width="4" stroke-linecap="round" stroke-linejoin="round" />
  <circle cx="72.00" cy="-21.25" r="5.5" fill="#2fc273" fill-opacity="0.15" stroke="#2fc273" stroke-width="2" /><text x="72.00" y="-33.25" fill="#f3f4f6" font-size="15" font-weight="700" text-anchor="middle">X</text><circle cx="147.14" cy="337.78" r="5.5" fill="#2fc273" fill-opacity="0.15" stroke="#2fc273" stroke-width="2" /><text x="147.14" y="325.78" fill="#f3f4f6" font-size="15" font-weight="700" text-anchor="middle">A</text><circle cx="297.42" cy="160.03" r="5.5" fill="#2fc273" fill-opacity="0.15" stroke="#2fc273" stroke-width="2" /><text x="297.42" y="148.03" fill="#f3f4f6" font-size="15" font-weight="700" text-anchor="middle">B</text><circle cx="383.29" cy="324.62" r="5.5" fill="#2fc273" fill-opacity="0.15" stroke="#2fc273" stroke-width="2" /><text x="383.29" y="312.62" fill="#f3f4f6" font-size="15" font-weight="700" text-anchor="middle">C</text><circle cx="544.30" cy="76.61" r="5.5" fill="#2fc273" fill-opacity="0.15" stroke="#2fc273" stroke-width="2" /><text x="544.30" y="64.61" fill="#f3f4f6" font-size="15" font-weight="700" text-anchor="middle">D</text>
  <text x="56" y="492" fill="#8ba0b5" font-size="18">일반 완성 · TP1 0.008669 · TP2 0.008486 · SL 0.009109</text>
</svg>
