<svg xmlns="http://www.w3.org/2000/svg" width="960" height="540" viewBox="0 0 960 540">
  <rect width="960" height="540" rx="24" fill="#0b1220" />
  <rect x="28" y="28" width="904" height="484" rx="22" fill="#111827" stroke="#1f2937" />
  <text x="56" y="74" fill="#f3f4f6" font-size="34" font-weight="700">HUSDT · AB=CD</text>
  <text x="904" y="74" fill="#8ba0b5" font-size="20" text-anchor="end">Bearish (매도) · Score 86.6</text>
  <line x1="72" y1="58" x2="920" y2="58" stroke="#223045" stroke-width="1" stroke-dasharray="4 8" /><line x1="72" y1="156" x2="920" y2="156" stroke="#223045" stroke-width="1" stroke-dasharray="4 8" /><line x1="72" y1="255" x2="920" y2="255" stroke="#223045" stroke-width="1" stroke-dasharray="4 8" /><line x1="72" y1="353" x2="920" y2="353" stroke="#223045" stroke-width="1" stroke-dasharray="4 8" /><line x1="72" y1="452" x2="920" y2="452" stroke="#223045" stroke-width="1" stroke-dasharray="4 8" />
  <rect x="451.90" y="201.26" width="84" height="49.20" fill="#fbbf24" fill-opacity="0.12" stroke="#fbbf24" stroke-width="1.5" stroke-dasharray="6 6" />
  <line x1="72.00" y1="156.65" x2="72.00" y2="231.09" stroke="#0ecb81" stroke-width="1.4" /><rect x="69.00" y="159.07" width="6" height="59.31" rx="1.5" fill="#0ecb81" /><line x1="82.73" y1="126.39" x2="82.73" y2="177.23" stroke="#0ecb81" stroke-width="1.4" /><rect x="79.73" y="136.07" width="6" height="22.39" rx="1.5" fill="#0ecb81" /><line x1="93.47" y1="79.18" x2="93.47" y2="169.97" stroke="#0ecb81" stroke-width="1.4" /><rect x="90.47" y="86.45" width="6" height="50.23" rx="1.5" fill="#0ecb81" /><line x1="104.20" y1="76.16" x2="104.20" y2="185.10" stroke="#f6465d" stroke-width="1.4" /><rect x="101.20" y="87.05" width="6" height="70.21" rx="1.5" fill="#f6465d" /><line x1="114.94" y1="151.20" x2="114.94" y2="186.31" stroke="#f6465d" stroke-width="1.4" /><rect x="111.94" y="159.07" width="6" height="2.42" rx="1.5" fill="#f6465d" /><line x1="125.67" y1="134.26" x2="125.67" y2="185.10" stroke="#f6465d" stroke-width="1.4" /><rect x="122.67" y="161.49" width="6" height="6.66" rx="1.5" fill="#f6465d" /><line x1="136.41" y1="133.05" x2="136.41" y2="171.78" stroke="#0ecb81" stroke-width="1.4" /><rect x="133.41" y="140.92" width="6" height="27.84" rx="1.5" fill="#0ecb81" /><line x1="147.14" y1="73.74" x2="147.14" y2="149.99" stroke="#0ecb81" stroke-width="1.4" /><rect x="144.14" y="80.39" width="6" height="59.92" rx="1.5" fill="#0ecb81" /><line x1="157.87" y1="73.13" x2="157.87" y2="124.57" stroke="#f6465d" stroke-width="1.4" /><rect x="154.87" y="79.18" width="6" height="16.34" rx="1.5" fill="#f6465d" /><line x1="168.61" y1="68.89" x2="168.61" y2="116.10" stroke="#0ecb81" stroke-width="1.4" /><rect x="165.61" y="76.76" width="6" height="20.58" rx="1.5" fill="#0ecb81" /><line x1="179.34" y1="58.00" x2="179.34" y2="128.81" stroke="#f6465d" stroke-width="1.4" /><rect x="176.34" y="76.76" width="6" height="26.02" rx="1.5" fill="#f6465d" /><line x1="190.08" y1="87.05" x2="190.08" y2="131.23" stroke="#f6465d" stroke-width="1.4" /><rect x="187.08" y="102.18" width="6" height="3.03" rx="1.5" fill="#f6465d" /><line x1="200.81" y1="96.13" x2="200.81" y2="161.49" stroke="#f6465d" stroke-width="1.4" /><rect x="197.81" y="105.21" width="6" height="46.60" rx="1.5" fill="#f6465d" /><line x1="211.54" y1="117.92" x2="211.54" y2="160.89" stroke="#f6465d" stroke-width="1.4" /><rect x="208.54" y="149.99" width="6" height="2.00" rx="1.5" fill="#f6465d" /><line x1="222.28" y1="117.92" x2="222.28" y2="171.78" stroke="#0ecb81" stroke-width="1.4" /><rect x="219.28" y="145.76" width="6" height="4.84" rx="1.5" fill="#0ecb81" /><line x1="233.01" y1="119.13" x2="233.01" y2="192.36" stroke="#f6465d" stroke-width="1.4" /><rect x="230.01" y="143.94" width="6" height="15.13" rx="1.5" fill="#f6465d" /><line x1="243.75" y1="105.81" x2="243.75" y2="166.33" stroke="#0ecb81" stroke-width="1.4" /><rect x="240.75" y="120.34" width="6" height="37.52" rx="1.5" fill="#0ecb81" /><line x1="254.48" y1="112.47" x2="254.48" y2="151.20" stroke="#f6465d" stroke-width="1.4" /><rect x="251.48" y="122.15" width="6" height="4.24" rx="1.5" fill="#f6465d" /><line x1="265.22" y1="86.45" x2="265.22" y2="166.33" stroke="#f6465d" stroke-width="1.4" /><rect x="262.22" y="130.63" width="6" height="35.71" rx="1.5" fill="#f6465d" /><line x1="275.95" y1="164.52" x2="275.95" y2="256.51" stroke="#f6465d" stroke-width="1.4" /><rect x="272.95" y="164.52" width="6" height="67.18" rx="1.5" fill="#f6465d" /><line x1="286.68" y1="190.54" x2="286.68" y2="239.57" stroke="#0ecb81" stroke-width="1.4" /><rect x="283.68" y="203.86" width="6" height="27.24" rx="1.5" fill="#0ecb81" /><line x1="297.42" y1="189.33" x2="297.42" y2="226.25" stroke="#f6465d" stroke-width="1.4" /><rect x="294.42" y="203.86" width="6" height="2.00" rx="1.5" fill="#f6465d" /><line x1="308.15" y1="188.73" x2="308.15" y2="248.04" stroke="#f6465d" stroke-width="1.4" /><rect x="305.15" y="206.88" width="6" height="37.52" rx="1.5" fill="#f6465d" /><line x1="318.89" y1="238.96" x2="318.89" y2="284.35" stroke="#f6465d" stroke-width="1.4" /><rect x="315.89" y="243.80" width="6" height="12.10" rx="1.5" fill="#f6465d" /><line x1="329.62" y1="201.44" x2="329.62" y2="272.25" stroke="#0ecb81" stroke-width="1.4" /><rect x="326.62" y="229.88" width="6" height="25.42" rx="1.5" fill="#0ecb81" /><line x1="340.35" y1="215.96" x2="340.35" y2="237.15" stroke="#0ecb81" stroke-width="1.4" /><rect x="337.35" y="224.44" width="6" height="4.84" rx="1.5" fill="#0ecb81" /><line x1="351.09" y1="222.02" x2="351.09" y2="250.46" stroke="#f6465d" stroke-width="1.4" /><rect x="348.09" y="224.44" width="6" height="23.00" rx="1.5" fill="#f6465d" /><line x1="361.82" y1="226.25" x2="361.82" y2="268.01" stroke="#f6465d" stroke-width="1.4" /><rect x="358.82" y="248.04" width="6" height="19.97" rx="1.5" fill="#f6465d" /><line x1="372.56" y1="252.88" x2="372.56" y2="286.17" stroke="#f6465d" stroke-width="1.4" /><rect x="369.56" y="266.80" width="6" height="6.66" rx="1.5" fill="#f6465d" /><line x1="383.29" y1="264.99" x2="383.29" y2="296.46" stroke="#f6465d" stroke-width="1.4" /><rect x="380.29" y="273.46" width="6" height="13.31" rx="1.5" fill="#f6465d" /><line x1="394.03" y1="277.09" x2="394.03" y2="301.90" stroke="#f6465d" stroke-width="1.4" /><rect x="391.03" y="285.56" width="6" height="6.66" rx="1.5" fill="#f6465d" /><line x1="404.76" y1="278.91" x2="404.76" y2="306.75" stroke="#f6465d" stroke-width="1.4" /><rect x="401.76" y="291.62" width="6" height="5.45" rx="1.5" fill="#f6465d" /><line x1="415.49" y1="257.72" x2="415.49" y2="300.69" stroke="#0ecb81" stroke-width="1.4" /><rect x="412.49" y="276.49" width="6" height="20.58" rx="1.5" fill="#0ecb81" /><line x1="426.23" y1="253.49" x2="426.23" y2="287.98" stroke="#0ecb81" stroke-width="1.4" /><rect x="423.23" y="257.12" width="6" height="21.18" rx="1.5" fill="#0ecb81" /><line x1="436.96" y1="250.46" x2="436.96" y2="284.96" stroke="#f6465d" stroke-width="1.4" /><rect x="433.96" y="255.30" width="6" height="24.21" rx="1.5" fill="#f6465d" /><line x1="447.70" y1="254.09" x2="447.70" y2="306.75" stroke="#0ecb81" stroke-width="1.4" /><rect x="444.70" y="279.51" width="6" height="2.00" rx="1.5" fill="#0ecb81" /><line x1="458.43" y1="269.83" x2="458.43" y2="291.01" stroke="#f6465d" stroke-width="1.4" /><rect x="455.43" y="280.12" width="6" height="3.03" rx="1.5" fill="#f6465d" /><line x1="469.16" y1="251.07" x2="469.16" y2="289.20" stroke="#0ecb81" stroke-width="1.4" /><rect x="466.16" y="255.30" width="6" height="28.45" rx="1.5" fill="#0ecb81" /><line x1="479.90" y1="228.67" x2="479.90" y2="284.35" stroke="#0ecb81" stroke-width="1.4" /><rect x="476.90" y="251.07" width="6" height="2.42" rx="1.5" fill="#0ecb81" /><line x1="490.63" y1="240.17" x2="490.63" y2="261.96" stroke="#0ecb81" stroke-width="1.4" /><rect x="487.63" y="250.46" width="6" height="2.42" rx="1.5" fill="#0ecb81" /><line x1="501.37" y1="242.59" x2="501.37" y2="264.99" stroke="#0ecb81" stroke-width="1.4" /><rect x="498.37" y="250.46" width="6" height="2.00" rx="1.5" fill="#0ecb81" /><line x1="512.10" y1="244.41" x2="512.10" y2="268.01" stroke="#0ecb81" stroke-width="1.4" /><rect x="509.10" y="249.25" width="6" height="2.00" rx="1.5" fill="#0ecb81" /><line x1="522.84" y1="245.01" x2="522.84" y2="265.59" stroke="#f6465d" stroke-width="1.4" /><rect x="519.84" y="251.07" width="6" height="4.84" rx="1.5" fill="#f6465d" /><line x1="533.57" y1="244.41" x2="533.57" y2="284.35" stroke="#0ecb81" stroke-width="1.4" /><rect x="530.57" y="245.62" width="6" height="10.29" rx="1.5" fill="#0ecb81" /><line x1="544.30" y1="235.94" x2="544.30" y2="267.41" stroke="#f6465d" stroke-width="1.4" /><rect x="541.30" y="245.62" width="6" height="18.76" rx="1.5" fill="#f6465d" /><line x1="555.04" y1="255.30" x2="555.04" y2="283.14" stroke="#f6465d" stroke-width="1.4" /><rect x="552.04" y="265.59" width="6" height="13.92" rx="1.5" fill="#f6465d" /><line x1="565.77" y1="260.14" x2="565.77" y2="290.41" stroke="#f6465d" stroke-width="1.4" /><rect x="562.77" y="278.91" width="6" height="2.00" rx="1.5" fill="#f6465d" /><line x1="576.51" y1="272.85" x2="576.51" y2="318.85" stroke="#f6465d" stroke-width="1.4" /><rect x="573.51" y="277.70" width="6" height="37.52" rx="1.5" fill="#f6465d" /><line x1="587.24" y1="292.83" x2="587.24" y2="320.06" stroke="#0ecb81" stroke-width="1.4" /><rect x="584.24" y="304.93" width="6" height="10.29" rx="1.5" fill="#0ecb81" /><line x1="597.97" y1="292.83" x2="597.97" y2="310.98" stroke="#0ecb81" stroke-width="1.4" /><rect x="594.97" y="302.51" width="6" height="2.00" rx="1.5" fill="#0ecb81" /><line x1="608.71" y1="290.41" x2="608.71" y2="319.46" stroke="#f6465d" stroke-width="1.4" /><rect x="605.71" y="301.30" width="6" height="5.45" rx="1.5" fill="#f6465d" /><line x1="619.44" y1="302.51" x2="619.44" y2="376.35" stroke="#f6465d" stroke-width="1.4" /><rect x="616.44" y="306.75" width="6" height="58.71" rx="1.5" fill="#f6465d" /><line x1="630.18" y1="346.69" x2="630.18" y2="372.72" stroke="#0ecb81" stroke-width="1.4" /><rect x="627.18" y="353.95" width="6" height="10.89" rx="1.5" fill="#0ecb81" /><line x1="640.91" y1="337.61" x2="640.91" y2="358.80" stroke="#0ecb81" stroke-width="1.4" /><rect x="637.91" y="353.95" width="6" height="2.00" rx="1.5" fill="#0ecb81" /><line x1="651.65" y1="321.88" x2="651.65" y2="356.37" stroke="#0ecb81" stroke-width="1.4" /><rect x="648.65" y="345.48" width="6" height="7.87" rx="1.5" fill="#0ecb81" /><line x1="662.38" y1="321.27" x2="662.38" y2="349.11" stroke="#0ecb81" stroke-width="1.4" /><rect x="659.38" y="329.14" width="6" height="15.74" rx="1.5" fill="#0ecb81" /><line x1="673.11" y1="326.11" x2="673.11" y2="407.82" stroke="#f6465d" stroke-width="1.4" /><rect x="670.11" y="328.53" width="6" height="58.71" rx="1.5" fill="#f6465d" /><line x1="683.85" y1="382.40" x2="683.85" y2="420.53" stroke="#f6465d" stroke-width="1.4" /><rect x="680.85" y="387.24" width="6" height="25.42" rx="1.5" fill="#f6465d" /><line x1="694.58" y1="383.61" x2="694.58" y2="413.87" stroke="#0ecb81" stroke-width="1.4" /><rect x="691.58" y="402.37" width="6" height="7.87" rx="1.5" fill="#0ecb81" /><line x1="705.32" y1="385.43" x2="705.32" y2="409.63" stroke="#f6465d" stroke-width="1.4" /><rect x="702.32" y="402.37" width="6" height="2.00" rx="1.5" fill="#f6465d" /><line x1="716.05" y1="387.24" x2="716.05" y2="406.00" stroke="#0ecb81" stroke-width="1.4" /><rect x="713.05" y="394.50" width="6" height="9.68" rx="1.5" fill="#0ecb81" /><line x1="726.78" y1="384.82" x2="726.78" y2="416.29" stroke="#0ecb81" stroke-width="1.4" /><rect x="723.78" y="389.06" width="6" height="4.84" rx="1.5" fill="#0ecb81" /><line x1="737.52" y1="379.98" x2="737.52" y2="401.77" stroke="#0ecb81" stroke-width="1.4" /><rect x="734.52" y="387.24" width="6" height="2.42" rx="1.5" fill="#0ecb81" /><line x1="748.25" y1="358.19" x2="748.25" y2="387.24" stroke="#0ecb81" stroke-width="1.4" /><rect x="745.25" y="369.69" width="6" height="17.55" rx="1.5" fill="#0ecb81" /><line x1="758.99" y1="363.64" x2="758.99" y2="385.43" stroke="#f6465d" stroke-width="1.4" /><rect x="755.99" y="368.48" width="6" height="7.87" rx="1.5" fill="#f6465d" /><line x1="769.72" y1="370.90" x2="769.72" y2="409.63" stroke="#f6465d" stroke-width="1.4" /><rect x="766.72" y="378.16" width="6" height="30.87" rx="1.5" fill="#f6465d" /><line x1="780.46" y1="398.14" x2="780.46" y2="430.82" stroke="#0ecb81" stroke-width="1.4" /><rect x="777.46" y="400.56" width="6" height="8.47" rx="1.5" fill="#0ecb81" /><line x1="791.19" y1="381.19" x2="791.19" y2="408.42" stroke="#f6465d" stroke-width="1.4" /><rect x="788.19" y="399.95" width="6" height="3.63" rx="1.5" fill="#f6465d" /><line x1="801.92" y1="391.48" x2="801.92" y2="417.50" stroke="#f6465d" stroke-width="1.4" /><rect x="798.92" y="402.98" width="6" height="14.53" rx="1.5" fill="#f6465d" /><line x1="812.66" y1="410.24" x2="812.66" y2="429.61" stroke="#f6465d" stroke-width="1.4" /><rect x="809.66" y="417.50" width="6" height="4.84" rx="1.5" fill="#f6465d" /><line x1="823.39" y1="418.11" x2="823.39" y2="427.79" stroke="#f6465d" stroke-width="1.4" /><rect x="820.39" y="422.34" width="6" height="4.24" rx="1.5" fill="#f6465d" /><line x1="834.13" y1="426.58" x2="834.13" y2="444.74" stroke="#f6465d" stroke-width="1.4" /><rect x="831.13" y="427.19" width="6" height="16.34" rx="1.5" fill="#f6465d" /><line x1="844.86" y1="437.47" x2="844.86" y2="452.00" stroke="#f6465d" stroke-width="1.4" /><rect x="841.86" y="442.92" width="6" height="3.63" rx="1.5" fill="#f6465d" /><line x1="855.59" y1="429.61" x2="855.59" y2="449.58" stroke="#0ecb81" stroke-width="1.4" /><rect x="852.59" y="432.03" width="6" height="14.53" rx="1.5" fill="#0ecb81" /><line x1="866.33" y1="421.74" x2="866.33" y2="438.69" stroke="#0ecb81" stroke-width="1.4" /><rect x="863.33" y="429.61" width="6" height="2.00" rx="1.5" fill="#0ecb81" /><line x1="877.06" y1="398.14" x2="877.06" y2="441.11" stroke="#0ecb81" stroke-width="1.4" /><rect x="874.06" y="425.98" width="6" height="3.63" rx="1.5" fill="#0ecb81" /><line x1="887.80" y1="418.71" x2="887.80" y2="446.55" stroke="#f6465d" stroke-width="1.4" /><rect x="884.80" y="425.98" width="6" height="7.26" rx="1.5" fill="#f6465d" /><line x1="898.53" y1="425.98" x2="898.53" y2="445.95" stroke="#f6465d" stroke-width="1.4" /><rect x="895.53" y="433.24" width="6" height="7.26" rx="1.5" fill="#f6465d" /><line x1="909.27" y1="412.06" x2="909.27" y2="445.95" stroke="#0ecb81" stroke-width="1.4" /><rect x="906.27" y="424.76" width="6" height="16.95" rx="1.5" fill="#0ecb81" /><line x1="920.00" y1="410.84" x2="920.00" y2="426.58" stroke="#0ecb81" stroke-width="1.4" /><rect x="917.00" y="421.13" width="6" height="3.03" rx="1.5" fill="#0ecb81" />
  <polyline points="265.22,86.45 404.76,306.75 436.96,250.46 447.70,306.75 479.90,228.67" fill="none" stroke="#2fc273" stroke-width="4" stroke-linecap="round" stroke-linejoin="round" />
  <circle cx="265.22" cy="86.45" r="5.5" fill="#2fc273" fill-opacity="0.15" stroke="#2fc273" stroke-width="2" /><text x="265.22" y="74.45" fill="#f3f4f6" font-size="15" font-weight="700" text-anchor="middle">X</text><circle cx="404.76" cy="306.75" r="5.5" fill="#2fc273" fill-opacity="0.15" stroke="#2fc273" stroke-width="2" /><text x="404.76" y="294.75" fill="#f3f4f6" font-size="15" font-weight="700" text-anchor="middle">A</text><circle cx="436.96" cy="250.46" r="5.5" fill="#2fc273" fill-opacity="0.15" stroke="#2fc273" stroke-width="2" /><text x="436.96" y="238.46" fill="#f3f4f6" font-size="15" font-weight="700" text-anchor="middle">B</text><circle cx="447.70" cy="306.75" r="5.5" fill="#2fc273" fill-opacity="0.15" stroke="#2fc273" stroke-width="2" /><text x="447.70" y="294.75" fill="#f3f4f6" font-size="15" font-weight="700" text-anchor="middle">C</text><circle cx="479.90" cy="228.67" r="5.5" fill="#2fc273" fill-opacity="0.15" stroke="#2fc273" stroke-width="2" /><text x="479.90" y="216.67" fill="#f3f4f6" font-size="15" font-weight="700" text-anchor="middle">D</text>
  <text x="56" y="492" fill="#8ba0b5" font-size="18">일반 완성 · TP1 0.083997 · TP2 0.083693 · SL 0.084963</text>
</svg>
