<svg xmlns="http://www.w3.org/2000/svg" width="960" height="540" viewBox="0 0 960 540">
  <rect width="960" height="540" rx="24" fill="#0b1220" />
  <rect x="28" y="28" width="904" height="484" rx="22" fill="#111827" stroke="#1f2937" />
  <text x="56" y="74" fill="#f3f4f6" font-size="34" font-weight="700">HYPEUSDT · AB=CD</text>
  <text x="904" y="74" fill="#8ba0b5" font-size="20" text-anchor="end">Bearish (매도) · Score 93.2</text>
  <line x1="72" y1="58" x2="920" y2="58" stroke="#223045" stroke-width="1" stroke-dasharray="4 8" /><line x1="72" y1="156" x2="920" y2="156" stroke="#223045" stroke-width="1" stroke-dasharray="4 8" /><line x1="72" y1="255" x2="920" y2="255" stroke="#223045" stroke-width="1" stroke-dasharray="4 8" /><line x1="72" y1="353" x2="920" y2="353" stroke="#223045" stroke-width="1" stroke-dasharray="4 8" /><line x1="72" y1="452" x2="920" y2="452" stroke="#223045" stroke-width="1" stroke-dasharray="4 8" />
  <rect x="784.66" y="176.69" width="84" height="49.39" fill="#fbbf24" fill-opacity="0.12" stroke="#fbbf24" stroke-width="1.5" stroke-dasharray="6 6" />
  <line x1="72.00" y1="191.43" x2="72.00" y2="218.71" stroke="#0ecb81" stroke-width="1.4" /><rect x="69.00" y="201.52" width="6" height="12.55" rx="1.5" fill="#0ecb81" /><line x1="82.73" y1="199.34" x2="82.73" y2="219.80" stroke="#f6465d" stroke-width="1.4" /><rect x="79.73" y="201.79" width="6" height="13.92" rx="1.5" fill="#f6465d" /><line x1="93.47" y1="189.52" x2="93.47" y2="224.71" stroke="#0ecb81" stroke-width="1.4" /><rect x="90.47" y="190.61" width="6" height="24.83" rx="1.5" fill="#0ecb81" /><line x1="104.20" y1="164.14" x2="104.20" y2="195.52" stroke="#0ecb81" stroke-width="1.4" /><rect x="101.20" y="190.33" width="6" height="2.00" rx="1.5" fill="#0ecb81" /><line x1="114.94" y1="161.14" x2="114.94" y2="193.88" stroke="#0ecb81" stroke-width="1.4" /><rect x="111.94" y="161.14" width="6" height="29.47" rx="1.5" fill="#0ecb81" /><line x1="125.67" y1="161.14" x2="125.67" y2="202.89" stroke="#f6465d" stroke-width="1.4" /><rect x="122.67" y="161.14" width="6" height="38.75" rx="1.5" fill="#f6465d" /><line x1="136.41" y1="164.96" x2="136.41" y2="234.54" stroke="#f6465d" stroke-width="1.4" /><rect x="133.41" y="199.61" width="6" height="3.00" rx="1.5" fill="#f6465d" /><line x1="147.14" y1="167.96" x2="147.14" y2="203.16" stroke="#0ecb81" stroke-width="1.4" /><rect x="144.14" y="173.14" width="6" height="29.47" rx="1.5" fill="#0ecb81" /><line x1="157.87" y1="165.23" x2="157.87" y2="229.90" stroke="#f6465d" stroke-width="1.4" /><rect x="154.87" y="172.87" width="6" height="52.93" rx="1.5" fill="#f6465d" /><line x1="168.61" y1="214.07" x2="168.61" y2="241.63" stroke="#f6465d" stroke-width="1.4" /><rect x="165.61" y="226.08" width="6" height="12.01" rx="1.5" fill="#f6465d" /><line x1="179.34" y1="216.53" x2="179.34" y2="246.00" stroke="#0ecb81" stroke-width="1.4" /><rect x="176.34" y="222.53" width="6" height="15.55" rx="1.5" fill="#0ecb81" /><line x1="190.08" y1="208.34" x2="190.08" y2="232.63" stroke="#0ecb81" stroke-width="1.4" /><rect x="187.08" y="211.34" width="6" height="11.19" rx="1.5" fill="#0ecb81" /><line x1="200.81" y1="199.07" x2="200.81" y2="217.89" stroke="#f6465d" stroke-width="1.4" /><rect x="197.81" y="211.34" width="6" height="3.55" rx="1.5" fill="#f6465d" /><line x1="211.54" y1="191.97" x2="211.54" y2="218.71" stroke="#0ecb81" stroke-width="1.4" /><rect x="208.54" y="196.61" width="6" height="18.55" rx="1.5" fill="#0ecb81" /><line x1="222.28" y1="178.33" x2="222.28" y2="209.98" stroke="#0ecb81" stroke-width="1.4" /><rect x="219.28" y="178.60" width="6" height="18.01" rx="1.5" fill="#0ecb81" /><line x1="233.01" y1="162.50" x2="233.01" y2="186.51" stroke="#0ecb81" stroke-width="1.4" /><rect x="230.01" y="162.78" width="6" height="15.83" rx="1.5" fill="#0ecb81" /><line x1="243.75" y1="119.39" x2="243.75" y2="164.41" stroke="#0ecb81" stroke-width="1.4" /><rect x="240.75" y="152.95" width="6" height="9.82" rx="1.5" fill="#0ecb81" /><line x1="254.48" y1="116.12" x2="254.48" y2="155.95" stroke="#0ecb81" stroke-width="1.4" /><rect x="251.48" y="148.04" width="6" height="4.64" rx="1.5" fill="#0ecb81" /><line x1="265.22" y1="109.30" x2="265.22" y2="148.04" stroke="#0ecb81" stroke-width="1.4" /><rect x="262.22" y="118.30" width="6" height="29.74" rx="1.5" fill="#0ecb81" /><line x1="275.95" y1="105.75" x2="275.95" y2="148.04" stroke="#0ecb81" stroke-width="1.4" /><rect x="272.95" y="106.57" width="6" height="11.73" rx="1.5" fill="#0ecb81" /><line x1="286.68" y1="58.00" x2="286.68" y2="119.66" stroke="#0ecb81" stroke-width="1.4" /><rect x="283.68" y="82.83" width="6" height="24.01" rx="1.5" fill="#0ecb81" /><line x1="297.42" y1="82.28" x2="297.42" y2="116.94" stroke="#f6465d" stroke-width="1.4" /><rect x="294.42" y="82.83" width="6" height="11.19" rx="1.5" fill="#f6465d" /><line x1="308.15" y1="83.10" x2="308.15" y2="114.48" stroke="#f6465d" stroke-width="1.4" /><rect x="305.15" y="94.02" width="6" height="4.64" rx="1.5" fill="#f6465d" /><line x1="318.89" y1="98.38" x2="318.89" y2="134.67" stroke="#f6465d" stroke-width="1.4" /><rect x="315.89" y="98.38" width="6" height="27.01" rx="1.5" fill="#f6465d" /><line x1="329.62" y1="88.29" x2="329.62" y2="143.13" stroke="#0ecb81" stroke-width="1.4" /><rect x="326.62" y="107.39" width="6" height="18.28" rx="1.5" fill="#0ecb81" /><line x1="340.35" y1="80.10" x2="340.35" y2="107.93" stroke="#0ecb81" stroke-width="1.4" /><rect x="337.35" y="85.83" width="6" height="21.28" rx="1.5" fill="#0ecb81" /><line x1="351.09" y1="58.55" x2="351.09" y2="115.03" stroke="#f6465d" stroke-width="1.4" /><rect x="348.09" y="85.83" width="6" height="26.47" rx="1.5" fill="#f6465d" /><line x1="361.82" y1="100.02" x2="361.82" y2="163.32" stroke="#f6465d" stroke-width="1.4" /><rect x="358.82" y="112.30" width="6" height="50.20" rx="1.5" fill="#f6465d" /><line x1="372.56" y1="134.40" x2="372.56" y2="172.60" stroke="#0ecb81" stroke-width="1.4" /><rect x="369.56" y="151.32" width="6" height="10.91" rx="1.5" fill="#0ecb81" /><line x1="383.29" y1="151.59" x2="383.29" y2="177.51" stroke="#f6465d" stroke-width="1.4" /><rect x="380.29" y="151.59" width="6" height="5.73" rx="1.5" fill="#f6465d" /><line x1="394.03" y1="154.32" x2="394.03" y2="203.98" stroke="#f6465d" stroke-width="1.4" /><rect x="391.03" y="158.14" width="6" height="33.02" rx="1.5" fill="#f6465d" /><line x1="404.76" y1="163.59" x2="404.76" y2="210.25" stroke="#0ecb81" stroke-width="1.4" /><rect x="401.76" y="166.60" width="6" height="24.01" rx="1.5" fill="#0ecb81" /><line x1="415.49" y1="148.04" x2="415.49" y2="198.79" stroke="#f6465d" stroke-width="1.4" /><rect x="412.49" y="166.87" width="6" height="22.10" rx="1.5" fill="#f6465d" /><line x1="426.23" y1="186.79" x2="426.23" y2="209.98" stroke="#f6465d" stroke-width="1.4" /><rect x="423.23" y="188.97" width="6" height="18.01" rx="1.5" fill="#f6465d" /><line x1="436.96" y1="201.25" x2="436.96" y2="222.26" stroke="#f6465d" stroke-width="1.4" /><rect x="433.96" y="206.70" width="6" height="6.55" rx="1.5" fill="#f6465d" /><line x1="447.70" y1="199.61" x2="447.70" y2="238.08" stroke="#0ecb81" stroke-width="1.4" /><rect x="444.70" y="201.52" width="6" height="11.73" rx="1.5" fill="#0ecb81" /><line x1="458.43" y1="178.60" x2="458.43" y2="237.26" stroke="#0ecb81" stroke-width="1.4" /><rect x="455.43" y="200.43" width="6" height="2.00" rx="1.5" fill="#0ecb81" /><line x1="469.16" y1="189.52" x2="469.16" y2="205.34" stroke="#0ecb81" stroke-width="1.4" /><rect x="466.16" y="195.25" width="6" height="5.46" rx="1.5" fill="#0ecb81" /><line x1="479.90" y1="181.06" x2="479.90" y2="196.88" stroke="#0ecb81" stroke-width="1.4" /><rect x="476.90" y="186.51" width="6" height="9.00" rx="1.5" fill="#0ecb81" /><line x1="490.63" y1="175.33" x2="490.63" y2="195.25" stroke="#0ecb81" stroke-width="1.4" /><rect x="487.63" y="177.24" width="6" height="9.28" rx="1.5" fill="#0ecb81" /><line x1="501.37" y1="175.87" x2="501.37" y2="201.52" stroke="#f6465d" stroke-width="1.4" /><rect x="498.37" y="177.24" width="6" height="9.28" rx="1.5" fill="#f6465d" /><line x1="512.10" y1="182.97" x2="512.10" y2="218.44" stroke="#f6465d" stroke-width="1.4" /><rect x="509.10" y="186.51" width="6" height="28.65" rx="1.5" fill="#f6465d" /><line x1="522.84" y1="214.07" x2="522.84" y2="241.36" stroke="#f6465d" stroke-width="1.4" /><rect x="519.84" y="215.16" width="6" height="17.46" rx="1.5" fill="#f6465d" /><line x1="533.57" y1="232.35" x2="533.57" y2="264.82" stroke="#f6465d" stroke-width="1.4" /><rect x="530.57" y="232.35" width="6" height="15.83" rx="1.5" fill="#f6465d" /><line x1="544.30" y1="220.62" x2="544.30" y2="252.27" stroke="#0ecb81" stroke-width="1.4" /><rect x="541.30" y="229.90" width="6" height="18.28" rx="1.5" fill="#0ecb81" /><line x1="555.04" y1="219.53" x2="555.04" y2="253.36" stroke="#f6465d" stroke-width="1.4" /><rect x="552.04" y="229.62" width="6" height="13.37" rx="1.5" fill="#f6465d" /><line x1="565.77" y1="226.90" x2="565.77" y2="254.18" stroke="#f6465d" stroke-width="1.4" /><rect x="562.77" y="242.99" width="6" height="8.19" rx="1.5" fill="#f6465d" /><line x1="576.51" y1="240.54" x2="576.51" y2="280.10" stroke="#f6465d" stroke-width="1.4" /><rect x="573.51" y="251.18" width="6" height="10.37" rx="1.5" fill="#f6465d" /><line x1="587.24" y1="261.28" x2="587.24" y2="292.65" stroke="#f6465d" stroke-width="1.4" /><rect x="584.24" y="261.55" width="6" height="16.64" rx="1.5" fill="#f6465d" /><line x1="597.97" y1="276.28" x2="597.97" y2="319.67" stroke="#f6465d" stroke-width="1.4" /><rect x="594.97" y="278.19" width="6" height="15.01" rx="1.5" fill="#f6465d" /><line x1="608.71" y1="277.65" x2="608.71" y2="316.66" stroke="#f6465d" stroke-width="1.4" /><rect x="605.71" y="293.20" width="6" height="10.64" rx="1.5" fill="#f6465d" /><line x1="619.44" y1="298.38" x2="619.44" y2="345.04" stroke="#f6465d" stroke-width="1.4" /><rect x="616.44" y="303.84" width="6" height="37.38" rx="1.5" fill="#f6465d" /><line x1="630.18" y1="323.21" x2="630.18" y2="363.87" stroke="#0ecb81" stroke-width="1.4" /><rect x="627.18" y="331.13" width="6" height="9.28" rx="1.5" fill="#0ecb81" /><line x1="640.91" y1="289.65" x2="640.91" y2="331.13" stroke="#0ecb81" stroke-width="1.4" /><rect x="637.91" y="294.02" width="6" height="37.11" rx="1.5" fill="#0ecb81" /><line x1="651.65" y1="286.38" x2="651.65" y2="305.75" stroke="#f6465d" stroke-width="1.4" /><rect x="648.65" y="294.02" width="6" height="9.00" rx="1.5" fill="#f6465d" /><line x1="662.38" y1="270.83" x2="662.38" y2="304.11" stroke="#0ecb81" stroke-width="1.4" /><rect x="659.38" y="292.93" width="6" height="9.82" rx="1.5" fill="#0ecb81" /><line x1="673.11" y1="292.65" x2="673.11" y2="336.04" stroke="#f6465d" stroke-width="1.4" /><rect x="670.11" y="292.65" width="6" height="18.55" rx="1.5" fill="#f6465d" /><line x1="683.85" y1="306.30" x2="683.85" y2="344.22" stroke="#f6465d" stroke-width="1.4" /><rect x="680.85" y="310.93" width="6" height="25.10" rx="1.5" fill="#f6465d" /><line x1="694.58" y1="307.93" x2="694.58" y2="342.59" stroke="#0ecb81" stroke-width="1.4" /><rect x="691.58" y="309.02" width="6" height="26.74" rx="1.5" fill="#0ecb81" /><line x1="705.32" y1="287.74" x2="705.32" y2="311.75" stroke="#0ecb81" stroke-width="1.4" /><rect x="702.32" y="303.02" width="6" height="6.28" rx="1.5" fill="#0ecb81" /><line x1="716.05" y1="277.92" x2="716.05" y2="303.84" stroke="#0ecb81" stroke-width="1.4" /><rect x="713.05" y="279.28" width="6" height="24.01" rx="1.5" fill="#0ecb81" /><line x1="726.78" y1="246.81" x2="726.78" y2="279.28" stroke="#0ecb81" stroke-width="1.4" /><rect x="723.78" y="272.46" width="6" height="6.82" rx="1.5" fill="#0ecb81" /><line x1="737.52" y1="249.82" x2="737.52" y2="285.83" stroke="#f6465d" stroke-width="1.4" /><rect x="734.52" y="272.19" width="6" height="12.55" rx="1.5" fill="#f6465d" /><line x1="748.25" y1="259.91" x2="748.25" y2="286.38" stroke="#0ecb81" stroke-width="1.4" /><rect x="745.25" y="281.74" width="6" height="3.27" rx="1.5" fill="#0ecb81" /><line x1="758.99" y1="268.10" x2="758.99" y2="298.93" stroke="#0ecb81" stroke-width="1.4" /><rect x="755.99" y="271.37" width="6" height="10.37" rx="1.5" fill="#0ecb81" /><line x1="769.72" y1="270.55" x2="769.72" y2="292.38" stroke="#f6465d" stroke-width="1.4" /><rect x="766.72" y="271.37" width="6" height="5.18" rx="1.5" fill="#f6465d" /><line x1="780.46" y1="255.00" x2="780.46" y2="286.92" stroke="#0ecb81" stroke-width="1.4" /><rect x="777.46" y="262.91" width="6" height="13.10" rx="1.5" fill="#0ecb81" /><line x1="791.19" y1="262.64" x2="791.19" y2="289.93" stroke="#f6465d" stroke-width="1.4" /><rect x="788.19" y="262.64" width="6" height="27.01" rx="1.5" fill="#f6465d" /><line x1="801.92" y1="256.09" x2="801.92" y2="289.93" stroke="#0ecb81" stroke-width="1.4" /><rect x="798.92" y="256.36" width="6" height="33.56" rx="1.5" fill="#0ecb81" /><line x1="812.66" y1="234.54" x2="812.66" y2="267.55" stroke="#f6465d" stroke-width="1.4" /><rect x="809.66" y="256.36" width="6" height="5.73" rx="1.5" fill="#f6465d" /><line x1="823.39" y1="261.82" x2="823.39" y2="278.47" stroke="#f6465d" stroke-width="1.4" /><rect x="820.39" y="262.09" width="6" height="13.64" rx="1.5" fill="#f6465d" /><line x1="834.13" y1="265.91" x2="834.13" y2="301.66" stroke="#f6465d" stroke-width="1.4" /><rect x="831.13" y="275.74" width="6" height="21.01" rx="1.5" fill="#f6465d" /><line x1="844.86" y1="291.02" x2="844.86" y2="311.21" stroke="#f6465d" stroke-width="1.4" /><rect x="841.86" y="297.02" width="6" height="9.28" rx="1.5" fill="#f6465d" /><line x1="855.59" y1="292.65" x2="855.59" y2="308.48" stroke="#0ecb81" stroke-width="1.4" /><rect x="852.59" y="305.48" width="6" height="2.00" rx="1.5" fill="#0ecb81" /><line x1="866.33" y1="286.92" x2="866.33" y2="309.30" stroke="#f6465d" stroke-width="1.4" /><rect x="863.33" y="305.20" width="6" height="3.27" rx="1.5" fill="#f6465d" /><line x1="877.06" y1="302.48" x2="877.06" y2="336.31" stroke="#f6465d" stroke-width="1.4" /><rect x="874.06" y="308.48" width="6" height="18.83" rx="1.5" fill="#f6465d" /><line x1="887.80" y1="319.94" x2="887.80" y2="354.05" stroke="#f6465d" stroke-width="1.4" /><rect x="884.80" y="327.31" width="6" height="25.65" rx="1.5" fill="#f6465d" /><line x1="898.53" y1="349.68" x2="898.53" y2="429.08" stroke="#f6465d" stroke-width="1.4" /><rect x="895.53" y="352.95" width="6" height="72.03" rx="1.5" fill="#f6465d" /><line x1="909.27" y1="395.79" x2="909.27" y2="452.00" stroke="#0ecb81" stroke-width="1.4" /><rect x="906.27" y="401.80" width="6" height="22.92" rx="1.5" fill="#0ecb81" /><line x1="920.00" y1="398.25" x2="920.00" y2="403.16" stroke="#0ecb81" stroke-width="1.4" /><rect x="917.00" y="398.52" width="6" height="3.00" rx="1.5" fill="#0ecb81" />
  <polyline points="662.38,270.83 683.85,344.22 726.78,246.81 758.99,298.93 812.66,234.54" fill="none" stroke="#2fc273" stroke-width="4" stroke-linecap="round" stroke-linejoin="round" />
  <circle cx="662.38" cy="270.83" r="5.5" fill="#2fc273" fill-opacity="0.15" stroke="#2fc273" stroke-width="2" /><text x="662.38" y="258.83" fill="#f3f4f6" font-size="15" font-weight="700" text-anchor="middle">X</text><circle cx="683.85" cy="344.22" r="5.5" fill="#2fc273" fill-opacity="0.15" stroke="#2fc273" stroke-width="2" /><text x="683.85" y="332.22" fill="#f3f4f6" font-size="15" font-weight="700" text-anchor="middle">A</text><circle cx="726.78" cy="246.81" r="5.5" fill="#2fc273" fill-opacity="0.15" stroke="#2fc273" stroke-width="2" /><text x="726.78" y="234.81" fill="#f3f4f6" font-size="15" font-weight="700" text-anchor="middle">B</text><circle cx="758.99" cy="298.93" r="5.5" fill="#2fc273" fill-opacity="0.15" stroke="#2fc273" stroke-width="2" /><text x="758.99" y="286.93" fill="#f3f4f6" font-size="15" font-weight="700" text-anchor="middle">C</text><circle cx="812.66" cy="234.54" r="5.5" fill="#2fc273" fill-opacity="0.15" stroke="#2fc273" stroke-width="2" /><text x="812.66" y="222.54" fill="#f3f4f6" font-size="15" font-weight="700" text-anchor="middle">D</text>
  <text x="56" y="492" fill="#8ba0b5" font-size="18">일반 완성 · TP1 35.823 · TP2 35.767 · SL 35.948</text>
</svg>
