<svg xmlns="http://www.w3.org/2000/svg" width="960" height="540" viewBox="0 0 960 540">
  <rect width="960" height="540" rx="24" fill="#0b1220" />
  <rect x="28" y="28" width="904" height="484" rx="22" fill="#111827" stroke="#1f2937" />
  <text x="56" y="74" fill="#f3f4f6" font-size="34" font-weight="700">JCTUSDT · AB=CD</text>
  <text x="904" y="74" fill="#8ba0b5" font-size="20" text-anchor="end">Bullish (매수) · Score 87.8</text>
  <line x1="72" y1="58" x2="920" y2="58" stroke="#223045" stroke-width="1" stroke-dasharray="4 8" /><line x1="72" y1="156" x2="920" y2="156" stroke="#223045" stroke-width="1" stroke-dasharray="4 8" /><line x1="72" y1="255" x2="920" y2="255" stroke="#223045" stroke-width="1" stroke-dasharray="4 8" /><line x1="72" y1="353" x2="920" y2="353" stroke="#223045" stroke-width="1" stroke-dasharray="4 8" /><line x1="72" y1="452" x2="920" y2="452" stroke="#223045" stroke-width="1" stroke-dasharray="4 8" />
  <rect x="720.25" y="396.91" width="84" height="78.70" fill="#fbbf24" fill-opacity="0.12" stroke="#fbbf24" stroke-width="1.5" stroke-dasharray="6 6" />
  <line x1="72.00" y1="253.69" x2="72.00" y2="329.76" stroke="#f6465d" stroke-width="1.4" /><rect x="69.00" y="314.02" width="6" height="2.10" rx="1.5" fill="#f6465d" /><line x1="82.73" y1="268.90" x2="82.73" y2="368.58" stroke="#f6465d" stroke-width="1.4" /><rect x="79.73" y="317.17" width="6" height="27.81" rx="1.5" fill="#f6465d" /><line x1="93.47" y1="330.81" x2="93.47" y2="385.90" stroke="#f6465d" stroke-width="1.4" /><rect x="90.47" y="344.45" width="6" height="26.23" rx="1.5" fill="#f6465d" /><line x1="104.20" y1="352.32" x2="104.20" y2="423.15" stroke="#f6465d" stroke-width="1.4" /><rect x="101.20" y="369.63" width="6" height="20.46" rx="1.5" fill="#f6465d" /><line x1="114.94" y1="351.27" x2="114.94" y2="452.00" stroke="#f6465d" stroke-width="1.4" /><rect x="111.94" y="391.67" width="6" height="12.59" rx="1.5" fill="#f6465d" /><line x1="125.67" y1="377.50" x2="125.67" y2="430.49" stroke="#0ecb81" stroke-width="1.4" /><rect x="122.67" y="389.57" width="6" height="15.21" rx="1.5" fill="#0ecb81" /><line x1="136.41" y1="347.60" x2="136.41" y2="424.19" stroke="#0ecb81" stroke-width="1.4" /><rect x="133.41" y="365.44" width="6" height="24.13" rx="1.5" fill="#0ecb81" /><line x1="147.14" y1="333.43" x2="147.14" y2="374.88" stroke="#0ecb81" stroke-width="1.4" /><rect x="144.14" y="339.20" width="6" height="26.23" rx="1.5" fill="#0ecb81" /><line x1="157.87" y1="319.79" x2="157.87" y2="375.93" stroke="#f6465d" stroke-width="1.4" /><rect x="154.87" y="339.73" width="6" height="5.77" rx="1.5" fill="#f6465d" /><line x1="168.61" y1="333.43" x2="168.61" y2="360.19" stroke="#0ecb81" stroke-width="1.4" /><rect x="165.61" y="335.01" width="6" height="10.49" rx="1.5" fill="#0ecb81" /><line x1="179.34" y1="320.32" x2="179.34" y2="352.84" stroke="#f6465d" stroke-width="1.4" /><rect x="176.34" y="333.96" width="6" height="16.79" rx="1.5" fill="#f6465d" /><line x1="190.08" y1="329.76" x2="190.08" y2="363.86" stroke="#0ecb81" stroke-width="1.4" /><rect x="187.08" y="343.40" width="6" height="8.39" rx="1.5" fill="#0ecb81" /><line x1="200.81" y1="307.20" x2="200.81" y2="355.47" stroke="#0ecb81" stroke-width="1.4" /><rect x="197.81" y="342.35" width="6" height="2.00" rx="1.5" fill="#0ecb81" /><line x1="211.54" y1="311.40" x2="211.54" y2="348.12" stroke="#0ecb81" stroke-width="1.4" /><rect x="208.54" y="315.07" width="6" height="25.71" rx="1.5" fill="#0ecb81" /><line x1="222.28" y1="297.76" x2="222.28" y2="328.19" stroke="#0ecb81" stroke-width="1.4" /><rect x="219.28" y="303.53" width="6" height="12.59" rx="1.5" fill="#0ecb81" /><line x1="233.01" y1="58.00" x2="233.01" y2="312.45" stroke="#0ecb81" stroke-width="1.4" /><rect x="230.01" y="140.89" width="6" height="162.64" rx="1.5" fill="#0ecb81" /><line x1="243.75" y1="138.79" x2="243.75" y2="309.82" stroke="#f6465d" stroke-width="1.4" /><rect x="240.75" y="139.32" width="6" height="153.19" rx="1.5" fill="#f6465d" /><line x1="254.48" y1="284.12" x2="254.48" y2="406.36" stroke="#f6465d" stroke-width="1.4" /><rect x="251.48" y="292.51" width="6" height="51.41" rx="1.5" fill="#f6465d" /><line x1="265.22" y1="286.74" x2="265.22" y2="345.50" stroke="#0ecb81" stroke-width="1.4" /><rect x="262.22" y="334.48" width="6" height="9.44" rx="1.5" fill="#0ecb81" /><line x1="275.95" y1="199.13" x2="275.95" y2="358.62" stroke="#0ecb81" stroke-width="1.4" /><rect x="272.95" y="288.84" width="6" height="46.17" rx="1.5" fill="#0ecb81" /><line x1="286.68" y1="280.97" x2="286.68" y2="315.07" stroke="#f6465d" stroke-width="1.4" /><rect x="283.68" y="289.89" width="6" height="3.67" rx="1.5" fill="#f6465d" /><line x1="297.42" y1="288.84" x2="297.42" y2="331.86" stroke="#f6465d" stroke-width="1.4" /><rect x="294.42" y="294.09" width="6" height="26.23" rx="1.5" fill="#f6465d" /><line x1="308.15" y1="254.21" x2="308.15" y2="327.14" stroke="#0ecb81" stroke-width="1.4" /><rect x="305.15" y="265.75" width="6" height="55.09" rx="1.5" fill="#0ecb81" /><line x1="318.89" y1="241.10" x2="318.89" y2="347.60" stroke="#f6465d" stroke-width="1.4" /><rect x="315.89" y="265.75" width="6" height="33.58" rx="1.5" fill="#f6465d" /><line x1="329.62" y1="268.90" x2="329.62" y2="310.87" stroke="#0ecb81" stroke-width="1.4" /><rect x="326.62" y="297.76" width="6" height="2.00" rx="1.5" fill="#0ecb81" /><line x1="340.35" y1="274.15" x2="340.35" y2="322.42" stroke="#f6465d" stroke-width="1.4" /><rect x="337.35" y="297.23" width="6" height="11.02" rx="1.5" fill="#f6465d" /><line x1="351.09" y1="278.35" x2="351.09" y2="339.20" stroke="#0ecb81" stroke-width="1.4" /><rect x="348.09" y="298.28" width="6" height="11.54" rx="1.5" fill="#0ecb81" /><line x1="361.82" y1="294.09" x2="361.82" y2="365.96" stroke="#f6465d" stroke-width="1.4" /><rect x="358.82" y="296.71" width="6" height="62.96" rx="1.5" fill="#f6465d" /><line x1="372.56" y1="315.60" x2="372.56" y2="379.08" stroke="#0ecb81" stroke-width="1.4" /><rect x="369.56" y="317.17" width="6" height="42.50" rx="1.5" fill="#0ecb81" /><line x1="383.29" y1="298.28" x2="383.29" y2="364.91" stroke="#f6465d" stroke-width="1.4" /><rect x="380.29" y="316.12" width="6" height="22.56" rx="1.5" fill="#f6465d" /><line x1="394.03" y1="300.38" x2="394.03" y2="375.93" stroke="#f6465d" stroke-width="1.4" /><rect x="391.03" y="338.15" width="6" height="33.58" rx="1.5" fill="#f6465d" /><line x1="404.76" y1="319.79" x2="404.76" y2="380.13" stroke="#0ecb81" stroke-width="1.4" /><rect x="401.76" y="323.46" width="6" height="48.79" rx="1.5" fill="#0ecb81" /><line x1="415.49" y1="275.20" x2="415.49" y2="332.38" stroke="#0ecb81" stroke-width="1.4" /><rect x="412.49" y="302.48" width="6" height="21.51" rx="1.5" fill="#0ecb81" /><line x1="426.23" y1="277.82" x2="426.23" y2="316.64" stroke="#f6465d" stroke-width="1.4" /><rect x="423.23" y="303.53" width="6" height="7.34" rx="1.5" fill="#f6465d" /><line x1="436.96" y1="295.66" x2="436.96" y2="329.24" stroke="#0ecb81" stroke-width="1.4" /><rect x="433.96" y="296.18" width="6" height="14.17" rx="1.5" fill="#0ecb81" /><line x1="447.70" y1="200.18" x2="447.70" y2="300.38" stroke="#0ecb81" stroke-width="1.4" /><rect x="444.70" y="287.26" width="6" height="9.44" rx="1.5" fill="#0ecb81" /><line x1="458.43" y1="259.46" x2="458.43" y2="311.92" stroke="#0ecb81" stroke-width="1.4" /><rect x="455.43" y="267.33" width="6" height="19.41" rx="1.5" fill="#0ecb81" /><line x1="469.16" y1="266.28" x2="469.16" y2="344.97" stroke="#f6465d" stroke-width="1.4" /><rect x="466.16" y="266.80" width="6" height="62.43" rx="1.5" fill="#f6465d" /><line x1="479.90" y1="261.56" x2="479.90" y2="354.42" stroke="#0ecb81" stroke-width="1.4" /><rect x="476.90" y="297.76" width="6" height="31.48" rx="1.5" fill="#0ecb81" /><line x1="490.63" y1="280.44" x2="490.63" y2="336.58" stroke="#f6465d" stroke-width="1.4" /><rect x="487.63" y="296.71" width="6" height="16.26" rx="1.5" fill="#f6465d" /><line x1="501.37" y1="265.75" x2="501.37" y2="318.74" stroke="#0ecb81" stroke-width="1.4" /><rect x="498.37" y="280.44" width="6" height="33.05" rx="1.5" fill="#0ecb81" /><line x1="512.10" y1="268.90" x2="512.10" y2="296.18" stroke="#f6465d" stroke-width="1.4" /><rect x="509.10" y="280.44" width="6" height="11.54" rx="1.5" fill="#f6465d" /><line x1="522.84" y1="289.36" x2="522.84" y2="371.73" stroke="#f6465d" stroke-width="1.4" /><rect x="519.84" y="291.46" width="6" height="53.51" rx="1.5" fill="#f6465d" /><line x1="533.57" y1="314.55" x2="533.57" y2="414.75" stroke="#0ecb81" stroke-width="1.4" /><rect x="530.57" y="326.09" width="6" height="17.84" rx="1.5" fill="#0ecb81" /><line x1="544.30" y1="307.73" x2="544.30" y2="376.45" stroke="#f6465d" stroke-width="1.4" /><rect x="541.30" y="326.61" width="6" height="20.46" rx="1.5" fill="#f6465d" /><line x1="555.04" y1="319.79" x2="555.04" y2="350.22" stroke="#0ecb81" stroke-width="1.4" /><rect x="552.04" y="332.38" width="6" height="15.21" rx="1.5" fill="#0ecb81" /><line x1="565.77" y1="271.53" x2="565.77" y2="386.42" stroke="#f6465d" stroke-width="1.4" /><rect x="562.77" y="331.86" width="6" height="27.28" rx="1.5" fill="#f6465d" /><line x1="576.51" y1="336.06" x2="576.51" y2="365.96" stroke="#0ecb81" stroke-width="1.4" /><rect x="573.51" y="340.25" width="6" height="19.41" rx="1.5" fill="#0ecb81" /><line x1="587.24" y1="319.79" x2="587.24" y2="344.97" stroke="#0ecb81" stroke-width="1.4" /><rect x="584.24" y="328.71" width="6" height="12.07" rx="1.5" fill="#0ecb81" /><line x1="597.97" y1="317.17" x2="597.97" y2="353.37" stroke="#f6465d" stroke-width="1.4" /><rect x="594.97" y="328.19" width="6" height="17.84" rx="1.5" fill="#f6465d" /><line x1="608.71" y1="317.69" x2="608.71" y2="352.32" stroke="#0ecb81" stroke-width="1.4" /><rect x="605.71" y="323.46" width="6" height="22.56" rx="1.5" fill="#0ecb81" /><line x1="619.44" y1="295.66" x2="619.44" y2="335.53" stroke="#f6465d" stroke-width="1.4" /><rect x="616.44" y="323.46" width="6" height="5.25" rx="1.5" fill="#f6465d" /><line x1="630.18" y1="301.43" x2="630.18" y2="364.39" stroke="#f6465d" stroke-width="1.4" /><rect x="627.18" y="328.71" width="6" height="22.03" rx="1.5" fill="#f6465d" /><line x1="640.91" y1="327.66" x2="640.91" y2="360.19" stroke="#0ecb81" stroke-width="1.4" /><rect x="637.91" y="348.12" width="6" height="3.67" rx="1.5" fill="#0ecb81" /><line x1="651.65" y1="340.78" x2="651.65" y2="389.04" stroke="#f6465d" stroke-width="1.4" /><rect x="648.65" y="348.12" width="6" height="36.72" rx="1.5" fill="#f6465d" /><line x1="662.38" y1="336.58" x2="662.38" y2="387.47" stroke="#0ecb81" stroke-width="1.4" /><rect x="659.38" y="352.32" width="6" height="32.00" rx="1.5" fill="#0ecb81" /><line x1="673.11" y1="301.95" x2="673.11" y2="357.04" stroke="#0ecb81" stroke-width="1.4" /><rect x="670.11" y="333.43" width="6" height="19.94" rx="1.5" fill="#0ecb81" /><line x1="683.85" y1="312.45" x2="683.85" y2="343.40" stroke="#f6465d" stroke-width="1.4" /><rect x="680.85" y="332.91" width="6" height="6.30" rx="1.5" fill="#f6465d" /><line x1="694.58" y1="309.30" x2="694.58" y2="373.83" stroke="#f6465d" stroke-width="1.4" /><rect x="691.58" y="339.20" width="6" height="24.13" rx="1.5" fill="#f6465d" /><line x1="705.32" y1="337.63" x2="705.32" y2="395.34" stroke="#0ecb81" stroke-width="1.4" /><rect x="702.32" y="352.32" width="6" height="12.07" rx="1.5" fill="#0ecb81" /><line x1="716.05" y1="316.12" x2="716.05" y2="353.37" stroke="#0ecb81" stroke-width="1.4" /><rect x="713.05" y="319.27" width="6" height="33.58" rx="1.5" fill="#0ecb81" /><line x1="726.78" y1="303.53" x2="726.78" y2="329.76" stroke="#0ecb81" stroke-width="1.4" /><rect x="723.78" y="320.32" width="6" height="2.00" rx="1.5" fill="#0ecb81" /><line x1="737.52" y1="312.45" x2="737.52" y2="352.84" stroke="#f6465d" stroke-width="1.4" /><rect x="734.52" y="319.27" width="6" height="24.66" rx="1.5" fill="#f6465d" /><line x1="748.25" y1="323.46" x2="748.25" y2="437.31" stroke="#0ecb81" stroke-width="1.4" /><rect x="745.25" y="326.61" width="6" height="17.31" rx="1.5" fill="#0ecb81" /><line x1="758.99" y1="319.27" x2="758.99" y2="363.86" stroke="#0ecb81" stroke-width="1.4" /><rect x="755.99" y="322.42" width="6" height="3.67" rx="1.5" fill="#0ecb81" /><line x1="769.72" y1="235.85" x2="769.72" y2="332.38" stroke="#0ecb81" stroke-width="1.4" /><rect x="766.72" y="263.66" width="6" height="57.71" rx="1.5" fill="#0ecb81" /><line x1="780.46" y1="210.67" x2="780.46" y2="292.51" stroke="#f6465d" stroke-width="1.4" /><rect x="777.46" y="262.08" width="6" height="14.17" rx="1.5" fill="#f6465d" /><line x1="791.19" y1="232.70" x2="791.19" y2="283.59" stroke="#0ecb81" stroke-width="1.4" /><rect x="788.19" y="235.85" width="6" height="39.87" rx="1.5" fill="#0ecb81" /><line x1="801.92" y1="154.01" x2="801.92" y2="410.03" stroke="#f6465d" stroke-width="1.4" /><rect x="798.92" y="235.85" width="6" height="124.86" rx="1.5" fill="#f6465d" /><line x1="812.66" y1="312.45" x2="812.66" y2="415.28" stroke="#f6465d" stroke-width="1.4" /><rect x="809.66" y="361.24" width="6" height="7.34" rx="1.5" fill="#f6465d" /><line x1="823.39" y1="315.07" x2="823.39" y2="369.11" stroke="#0ecb81" stroke-width="1.4" /><rect x="820.39" y="328.71" width="6" height="39.87" rx="1.5" fill="#0ecb81" /><line x1="834.13" y1="319.79" x2="834.13" y2="359.14" stroke="#f6465d" stroke-width="1.4" /><rect x="831.13" y="329.24" width="6" height="20.46" rx="1.5" fill="#f6465d" /><line x1="844.86" y1="329.76" x2="844.86" y2="392.19" stroke="#f6465d" stroke-width="1.4" /><rect x="841.86" y="349.70" width="6" height="27.81" rx="1.5" fill="#f6465d" /><line x1="855.59" y1="333.96" x2="855.59" y2="395.86" stroke="#0ecb81" stroke-width="1.4" /><rect x="852.59" y="344.45" width="6" height="34.10" rx="1.5" fill="#0ecb81" /><line x1="866.33" y1="342.35" x2="866.33" y2="370.16" stroke="#f6465d" stroke-width="1.4" /><rect x="863.33" y="344.45" width="6" height="24.13" rx="1.5" fill="#f6465d" /><line x1="877.06" y1="326.09" x2="877.06" y2="384.32" stroke="#0ecb81" stroke-width="1.4" /><rect x="874.06" y="344.97" width="6" height="23.61" rx="1.5" fill="#0ecb81" /><line x1="887.80" y1="327.66" x2="887.80" y2="371.73" stroke="#f6465d" stroke-width="1.4" /><rect x="884.80" y="343.93" width="6" height="15.21" rx="1.5" fill="#f6465d" /><line x1="898.53" y1="335.01" x2="898.53" y2="374.88" stroke="#0ecb81" stroke-width="1.4" /><rect x="895.53" y="340.25" width="6" height="18.89" rx="1.5" fill="#0ecb81" /><line x1="909.27" y1="281.49" x2="909.27" y2="346.55" stroke="#0ecb81" stroke-width="1.4" /><rect x="906.27" y="297.76" width="6" height="43.54" rx="1.5" fill="#0ecb81" /><line x1="920.00" y1="296.71" x2="920.00" y2="307.20" stroke="#f6465d" stroke-width="1.4" /><rect x="917.00" y="298.28" width="6" height="3.15" rx="1.5" fill="#f6465d" />
  <polyline points="651.65,389.04 673.11,301.95 705.32,395.34 726.78,303.53 748.25,437.31" fill="none" stroke="#2fc273" stroke-width="4" stroke-linecap="round" stroke-linejoin="round" />
  <circle cx="651.65" cy="389.04" r="5.5" fill="#2fc273" fill-opacity="0.15" stroke="#2fc273" stroke-width="2" /><text x="651.65" y="377.04" fill="#f3f4f6" font-size="15" font-weight="700" text-anchor="middle">X</text><circle cx="673.11" cy="301.95" r="5.5" fill="#2fc273" fill-opacity="0.15" stroke="#2fc273" stroke-width="2" /><text x="673.11" y="289.95" fill="#f3f4f6" font-size="15" font-weight="700" text-anchor="middle">A</text><circle cx="705.32" cy="395.34" r="5.5" fill="#2fc273" fill-opacity="0.15" stroke="#2fc273" stroke-width="2" /><text x="705.32" y="383.34" fill="#f3f4f6" font-size="15" font-weight="700" text-anchor="middle">B</text><circle cx="726.78" cy="303.53" r="5.5" fill="#2fc273" fill-opacity="0.15" stroke="#2fc273" stroke-width="2" /><text x="726.78" y="291.53" fill="#f3f4f6" font-size="15" font-weight="700" text-anchor="middle">C</text><circle cx="748.25" cy="437.31" r="5.5" fill="#2fc273" fill-opacity="0.15" stroke="#2fc273" stroke-width="2" /><text x="748.25" y="425.31" fill="#f3f4f6" font-size="15" font-weight="700" text-anchor="middle">D</text>
  <text x="56" y="492" fill="#8ba0b5" font-size="18">일반 완성 · TP1 0.003772 · TP2 0.003833 · SL 0.003653</text>
</svg>
