<svg xmlns="http://www.w3.org/2000/svg" width="960" height="540" viewBox="0 0 960 540">
  <rect width="960" height="540" rx="24" fill="#0b1220" />
  <rect x="28" y="28" width="904" height="484" rx="22" fill="#111827" stroke="#1f2937" />
  <text x="56" y="74" fill="#f3f4f6" font-size="34" font-weight="700">KERNELUSDT · AB=CD</text>
  <text x="904" y="74" fill="#8ba0b5" font-size="20" text-anchor="end">Bullish (매수) · Score 87.7</text>
  <line x1="72" y1="58" x2="920" y2="58" stroke="#223045" stroke-width="1" stroke-dasharray="4 8" /><line x1="72" y1="156" x2="920" y2="156" stroke="#223045" stroke-width="1" stroke-dasharray="4 8" /><line x1="72" y1="255" x2="920" y2="255" stroke="#223045" stroke-width="1" stroke-dasharray="4 8" /><line x1="72" y1="353" x2="920" y2="353" stroke="#223045" stroke-width="1" stroke-dasharray="4 8" /><line x1="72" y1="452" x2="920" y2="452" stroke="#223045" stroke-width="1" stroke-dasharray="4 8" />
  <rect x="602.18" y="336.94" width="84" height="14.06" fill="#fbbf24" fill-opacity="0.12" stroke="#fbbf24" stroke-width="1.5" stroke-dasharray="6 6" />
  <line x1="72.00" y1="66.98" x2="72.00" y2="86.34" stroke="#0ecb81" stroke-width="1.4" /><rect x="69.00" y="68.10" width="6" height="17.40" rx="1.5" fill="#0ecb81" /><line x1="82.73" y1="58.00" x2="82.73" y2="83.82" stroke="#f6465d" stroke-width="1.4" /><rect x="79.73" y="68.10" width="6" height="12.63" rx="1.5" fill="#f6465d" /><line x1="93.47" y1="80.73" x2="93.47" y2="134.05" stroke="#f6465d" stroke-width="1.4" /><rect x="90.47" y="80.73" width="6" height="41.25" rx="1.5" fill="#f6465d" /><line x1="104.20" y1="105.71" x2="104.20" y2="129.56" stroke="#0ecb81" stroke-width="1.4" /><rect x="101.20" y="118.05" width="6" height="3.93" rx="1.5" fill="#0ecb81" /><line x1="114.94" y1="117.49" x2="114.94" y2="171.93" stroke="#f6465d" stroke-width="1.4" /><rect x="111.94" y="118.05" width="6" height="39.01" rx="1.5" fill="#f6465d" /><line x1="125.67" y1="135.45" x2="125.67" y2="177.27" stroke="#0ecb81" stroke-width="1.4" /><rect x="122.67" y="140.78" width="6" height="15.43" rx="1.5" fill="#0ecb81" /><line x1="136.41" y1="134.05" x2="136.41" y2="155.10" stroke="#f6465d" stroke-width="1.4" /><rect x="133.41" y="140.78" width="6" height="2.81" rx="1.5" fill="#f6465d" /><line x1="147.14" y1="140.78" x2="147.14" y2="168.29" stroke="#f6465d" stroke-width="1.4" /><rect x="144.14" y="143.59" width="6" height="17.68" rx="1.5" fill="#f6465d" /><line x1="157.87" y1="157.06" x2="157.87" y2="176.14" stroke="#f6465d" stroke-width="1.4" /><rect x="154.87" y="160.43" width="6" height="6.17" rx="1.5" fill="#f6465d" /><line x1="168.61" y1="150.61" x2="168.61" y2="176.42" stroke="#0ecb81" stroke-width="1.4" /><rect x="165.61" y="154.54" width="6" height="11.23" rx="1.5" fill="#0ecb81" /><line x1="179.34" y1="128.72" x2="179.34" y2="164.64" stroke="#0ecb81" stroke-width="1.4" /><rect x="176.34" y="139.66" width="6" height="14.87" rx="1.5" fill="#0ecb81" /><line x1="190.08" y1="134.89" x2="190.08" y2="160.15" stroke="#f6465d" stroke-width="1.4" /><rect x="187.08" y="139.66" width="6" height="10.66" rx="1.5" fill="#f6465d" /><line x1="200.81" y1="141.35" x2="200.81" y2="169.13" stroke="#f6465d" stroke-width="1.4" /><rect x="197.81" y="150.05" width="6" height="15.15" rx="1.5" fill="#f6465d" /><line x1="211.54" y1="156.50" x2="211.54" y2="186.81" stroke="#f6465d" stroke-width="1.4" /><rect x="208.54" y="165.20" width="6" height="2.00" rx="1.5" fill="#f6465d" /><line x1="222.28" y1="151.17" x2="222.28" y2="173.34" stroke="#f6465d" stroke-width="1.4" /><rect x="219.28" y="164.92" width="6" height="3.93" rx="1.5" fill="#f6465d" /><line x1="233.01" y1="135.73" x2="233.01" y2="171.93" stroke="#0ecb81" stroke-width="1.4" /><rect x="230.01" y="139.10" width="6" height="30.03" rx="1.5" fill="#0ecb81" /><line x1="243.75" y1="131.80" x2="243.75" y2="168.01" stroke="#f6465d" stroke-width="1.4" /><rect x="240.75" y="139.10" width="6" height="26.94" rx="1.5" fill="#f6465d" /><line x1="254.48" y1="157.90" x2="254.48" y2="288.11" stroke="#f6465d" stroke-width="1.4" /><rect x="251.48" y="166.04" width="6" height="105.52" rx="1.5" fill="#f6465d" /><line x1="265.22" y1="264.26" x2="265.22" y2="331.05" stroke="#f6465d" stroke-width="1.4" /><rect x="262.22" y="271.56" width="6" height="39.85" rx="1.5" fill="#f6465d" /><line x1="275.95" y1="291.48" x2="275.95" y2="323.75" stroke="#f6465d" stroke-width="1.4" /><rect x="272.95" y="311.41" width="6" height="2.00" rx="1.5" fill="#f6465d" /><line x1="286.68" y1="295.97" x2="286.68" y2="338.35" stroke="#f6465d" stroke-width="1.4" /><rect x="283.68" y="311.97" width="6" height="14.03" rx="1.5" fill="#f6465d" /><line x1="297.42" y1="322.35" x2="297.42" y2="356.03" stroke="#f6465d" stroke-width="1.4" /><rect x="294.42" y="326.28" width="6" height="7.02" rx="1.5" fill="#f6465d" /><line x1="308.15" y1="310.56" x2="308.15" y2="335.54" stroke="#0ecb81" stroke-width="1.4" /><rect x="305.15" y="313.09" width="6" height="21.05" rx="1.5" fill="#0ecb81" /><line x1="318.89" y1="290.08" x2="318.89" y2="315.62" stroke="#0ecb81" stroke-width="1.4" /><rect x="315.89" y="294.57" width="6" height="18.80" rx="1.5" fill="#0ecb81" /><line x1="329.62" y1="239.57" x2="329.62" y2="298.22" stroke="#0ecb81" stroke-width="1.4" /><rect x="326.62" y="261.45" width="6" height="33.39" rx="1.5" fill="#0ecb81" /><line x1="340.35" y1="231.43" x2="340.35" y2="288.96" stroke="#f6465d" stroke-width="1.4" /><rect x="337.35" y="260.61" width="6" height="16.56" rx="1.5" fill="#f6465d" /><line x1="351.09" y1="276.89" x2="351.09" y2="293.73" stroke="#f6465d" stroke-width="1.4" /><rect x="348.09" y="277.45" width="6" height="8.14" rx="1.5" fill="#f6465d" /><line x1="361.82" y1="276.05" x2="361.82" y2="306.35" stroke="#f6465d" stroke-width="1.4" /><rect x="358.82" y="283.90" width="6" height="19.08" rx="1.5" fill="#f6465d" /><line x1="372.56" y1="296.81" x2="372.56" y2="315.62" stroke="#f6465d" stroke-width="1.4" /><rect x="369.56" y="302.99" width="6" height="5.33" rx="1.5" fill="#f6465d" /><line x1="383.29" y1="280.54" x2="383.29" y2="326.00" stroke="#0ecb81" stroke-width="1.4" /><rect x="380.29" y="281.10" width="6" height="27.50" rx="1.5" fill="#0ecb81" /><line x1="394.03" y1="268.75" x2="394.03" y2="292.88" stroke="#0ecb81" stroke-width="1.4" /><rect x="391.03" y="276.61" width="6" height="4.49" rx="1.5" fill="#0ecb81" /><line x1="404.76" y1="271.56" x2="404.76" y2="294.01" stroke="#f6465d" stroke-width="1.4" /><rect x="401.76" y="276.33" width="6" height="14.31" rx="1.5" fill="#f6465d" /><line x1="415.49" y1="266.51" x2="415.49" y2="295.41" stroke="#f6465d" stroke-width="1.4" /><rect x="412.49" y="290.64" width="6" height="2.53" rx="1.5" fill="#f6465d" /><line x1="426.23" y1="283.06" x2="426.23" y2="306.35" stroke="#f6465d" stroke-width="1.4" /><rect x="423.23" y="292.88" width="6" height="6.45" rx="1.5" fill="#f6465d" /><line x1="436.96" y1="295.41" x2="436.96" y2="310.00" stroke="#f6465d" stroke-width="1.4" /><rect x="433.96" y="299.06" width="6" height="2.00" rx="1.5" fill="#f6465d" /><line x1="447.70" y1="296.81" x2="447.70" y2="312.81" stroke="#f6465d" stroke-width="1.4" /><rect x="444.70" y="299.34" width="6" height="8.98" rx="1.5" fill="#f6465d" /><line x1="458.43" y1="298.22" x2="458.43" y2="312.53" stroke="#0ecb81" stroke-width="1.4" /><rect x="455.43" y="299.90" width="6" height="8.42" rx="1.5" fill="#0ecb81" /><line x1="469.16" y1="295.13" x2="469.16" y2="309.44" stroke="#f6465d" stroke-width="1.4" /><rect x="466.16" y="299.62" width="6" height="3.37" rx="1.5" fill="#f6465d" /><line x1="479.90" y1="302.43" x2="479.90" y2="319.54" stroke="#f6465d" stroke-width="1.4" /><rect x="476.90" y="302.99" width="6" height="6.45" rx="1.5" fill="#f6465d" /><line x1="490.63" y1="288.68" x2="490.63" y2="313.65" stroke="#0ecb81" stroke-width="1.4" /><rect x="487.63" y="290.64" width="6" height="18.80" rx="1.5" fill="#0ecb81" /><line x1="501.37" y1="283.62" x2="501.37" y2="300.74" stroke="#f6465d" stroke-width="1.4" /><rect x="498.37" y="290.92" width="6" height="4.77" rx="1.5" fill="#f6465d" /><line x1="512.10" y1="292.04" x2="512.10" y2="302.15" stroke="#f6465d" stroke-width="1.4" /><rect x="509.10" y="295.13" width="6" height="3.93" rx="1.5" fill="#f6465d" /><line x1="522.84" y1="290.36" x2="522.84" y2="305.79" stroke="#0ecb81" stroke-width="1.4" /><rect x="519.84" y="293.17" width="6" height="5.61" rx="1.5" fill="#0ecb81" /><line x1="533.57" y1="284.75" x2="533.57" y2="300.46" stroke="#0ecb81" stroke-width="1.4" /><rect x="530.57" y="286.43" width="6" height="6.45" rx="1.5" fill="#0ecb81" /><line x1="544.30" y1="275.77" x2="544.30" y2="293.45" stroke="#f6465d" stroke-width="1.4" /><rect x="541.30" y="286.15" width="6" height="7.02" rx="1.5" fill="#f6465d" /><line x1="555.04" y1="292.32" x2="555.04" y2="304.95" stroke="#f6465d" stroke-width="1.4" /><rect x="552.04" y="293.17" width="6" height="3.37" rx="1.5" fill="#f6465d" /><line x1="565.77" y1="294.29" x2="565.77" y2="322.07" stroke="#f6465d" stroke-width="1.4" /><rect x="562.77" y="296.25" width="6" height="23.85" rx="1.5" fill="#f6465d" /><line x1="576.51" y1="309.44" x2="576.51" y2="319.54" stroke="#0ecb81" stroke-width="1.4" /><rect x="573.51" y="314.21" width="6" height="5.33" rx="1.5" fill="#0ecb81" /><line x1="587.24" y1="297.94" x2="587.24" y2="319.82" stroke="#0ecb81" stroke-width="1.4" /><rect x="584.24" y="313.37" width="6" height="2.00" rx="1.5" fill="#0ecb81" /><line x1="597.97" y1="310.56" x2="597.97" y2="319.26" stroke="#f6465d" stroke-width="1.4" /><rect x="594.97" y="313.09" width="6" height="5.89" rx="1.5" fill="#f6465d" /><line x1="608.71" y1="310.00" x2="608.71" y2="322.35" stroke="#0ecb81" stroke-width="1.4" /><rect x="605.71" y="318.98" width="6" height="2.00" rx="1.5" fill="#0ecb81" /><line x1="619.44" y1="308.88" x2="619.44" y2="323.19" stroke="#0ecb81" stroke-width="1.4" /><rect x="616.44" y="308.88" width="6" height="9.82" rx="1.5" fill="#0ecb81" /><line x1="630.18" y1="302.43" x2="630.18" y2="341.15" stroke="#f6465d" stroke-width="1.4" /><rect x="627.18" y="308.60" width="6" height="25.26" rx="1.5" fill="#f6465d" /><line x1="640.91" y1="321.79" x2="640.91" y2="338.35" stroke="#0ecb81" stroke-width="1.4" /><rect x="637.91" y="328.80" width="6" height="5.05" rx="1.5" fill="#0ecb81" /><line x1="651.65" y1="315.90" x2="651.65" y2="336.10" stroke="#f6465d" stroke-width="1.4" /><rect x="648.65" y="328.80" width="6" height="2.25" rx="1.5" fill="#f6465d" /><line x1="662.38" y1="311.13" x2="662.38" y2="332.45" stroke="#0ecb81" stroke-width="1.4" /><rect x="659.38" y="321.23" width="6" height="9.26" rx="1.5" fill="#0ecb81" /><line x1="673.11" y1="317.58" x2="673.11" y2="334.98" stroke="#f6465d" stroke-width="1.4" /><rect x="670.11" y="320.95" width="6" height="8.42" rx="1.5" fill="#f6465d" /><line x1="683.85" y1="329.09" x2="683.85" y2="349.01" stroke="#f6465d" stroke-width="1.4" /><rect x="680.85" y="329.09" width="6" height="2.53" rx="1.5" fill="#f6465d" /><line x1="694.58" y1="298.78" x2="694.58" y2="335.26" stroke="#0ecb81" stroke-width="1.4" /><rect x="691.58" y="306.92" width="6" height="24.70" rx="1.5" fill="#0ecb81" /><line x1="705.32" y1="294.57" x2="705.32" y2="343.12" stroke="#f6465d" stroke-width="1.4" /><rect x="702.32" y="306.35" width="6" height="27.78" rx="1.5" fill="#f6465d" /><line x1="716.05" y1="328.80" x2="716.05" y2="355.46" stroke="#0ecb81" stroke-width="1.4" /><rect x="713.05" y="331.89" width="6" height="2.53" rx="1.5" fill="#0ecb81" /><line x1="726.78" y1="313.09" x2="726.78" y2="342.56" stroke="#f6465d" stroke-width="1.4" /><rect x="723.78" y="331.61" width="6" height="2.53" rx="1.5" fill="#f6465d" /><line x1="737.52" y1="324.88" x2="737.52" y2="347.89" stroke="#0ecb81" stroke-width="1.4" /><rect x="734.52" y="332.45" width="6" height="2.00" rx="1.5" fill="#0ecb81" /><line x1="748.25" y1="324.31" x2="748.25" y2="409.34" stroke="#f6465d" stroke-width="1.4" /><rect x="745.25" y="332.17" width="6" height="40.13" rx="1.5" fill="#f6465d" /><line x1="758.99" y1="350.41" x2="758.99" y2="420.85" stroke="#0ecb81" stroke-width="1.4" /><rect x="755.99" y="364.44" width="6" height="7.86" rx="1.5" fill="#0ecb81" /><line x1="769.72" y1="354.62" x2="769.72" y2="416.08" stroke="#f6465d" stroke-width="1.4" /><rect x="766.72" y="364.73" width="6" height="40.69" rx="1.5" fill="#f6465d" /><line x1="780.46" y1="403.17" x2="780.46" y2="435.16" stroke="#f6465d" stroke-width="1.4" /><rect x="777.46" y="405.14" width="6" height="8.98" rx="1.5" fill="#f6465d" /><line x1="791.19" y1="389.42" x2="791.19" y2="432.92" stroke="#0ecb81" stroke-width="1.4" /><rect x="788.19" y="406.82" width="6" height="7.30" rx="1.5" fill="#0ecb81" /><line x1="801.92" y1="400.65" x2="801.92" y2="452.00" stroke="#f6465d" stroke-width="1.4" /><rect x="798.92" y="407.10" width="6" height="28.62" rx="1.5" fill="#f6465d" /><line x1="812.66" y1="414.12" x2="812.66" y2="444.70" stroke="#0ecb81" stroke-width="1.4" /><rect x="809.66" y="414.96" width="6" height="21.05" rx="1.5" fill="#0ecb81" /><line x1="823.39" y1="408.22" x2="823.39" y2="424.78" stroke="#f6465d" stroke-width="1.4" /><rect x="820.39" y="414.68" width="6" height="6.74" rx="1.5" fill="#f6465d" /><line x1="834.13" y1="409.63" x2="834.13" y2="425.06" stroke="#0ecb81" stroke-width="1.4" /><rect x="831.13" y="414.40" width="6" height="6.74" rx="1.5" fill="#0ecb81" /><line x1="844.86" y1="380.44" x2="844.86" y2="414.12" stroke="#0ecb81" stroke-width="1.4" /><rect x="841.86" y="390.82" width="6" height="23.29" rx="1.5" fill="#0ecb81" /><line x1="855.59" y1="359.95" x2="855.59" y2="392.51" stroke="#0ecb81" stroke-width="1.4" /><rect x="852.59" y="364.73" width="6" height="26.38" rx="1.5" fill="#0ecb81" /><line x1="866.33" y1="349.57" x2="866.33" y2="381.00" stroke="#f6465d" stroke-width="1.4" /><rect x="863.33" y="364.73" width="6" height="9.54" rx="1.5" fill="#f6465d" /><line x1="877.06" y1="357.43" x2="877.06" y2="386.89" stroke="#f6465d" stroke-width="1.4" /><rect x="874.06" y="374.27" width="6" height="7.58" rx="1.5" fill="#f6465d" /><line x1="887.80" y1="318.70" x2="887.80" y2="410.19" stroke="#0ecb81" stroke-width="1.4" /><rect x="884.80" y="325.16" width="6" height="56.69" rx="1.5" fill="#0ecb81" /><line x1="898.53" y1="325.16" x2="898.53" y2="371.46" stroke="#f6465d" stroke-width="1.4" /><rect x="895.53" y="325.16" width="6" height="33.11" rx="1.5" fill="#f6465d" /><line x1="909.27" y1="297.66" x2="909.27" y2="359.11" stroke="#0ecb81" stroke-width="1.4" /><rect x="906.27" y="302.15" width="6" height="55.84" rx="1.5" fill="#0ecb81" /><line x1="920.00" y1="297.94" x2="920.00" y2="338.63" stroke="#f6465d" stroke-width="1.4" /><rect x="917.00" y="302.15" width="6" height="16.84" rx="1.5" fill="#f6465d" />
  <polyline points="479.90,319.54 544.30,275.77 565.77,322.07 630.18,302.43 630.18,341.15" fill="none" stroke="#2fc273" stroke-width="4" stroke-linecap="round" stroke-linejoin="round" />
  <circle cx="479.90" cy="319.54" r="5.5" fill="#2fc273" fill-opacity="0.15" stroke="#2fc273" stroke-width="2" /><text x="479.90" y="307.54" fill="#f3f4f6" font-size="15" font-weight="700" text-anchor="middle">X</text><circle cx="544.30" cy="275.77" r="5.5" fill="#2fc273" fill-opacity="0.15" stroke="#2fc273" stroke-width="2" /><text x="544.30" y="263.77" fill="#f3f4f6" font-size="15" font-weight="700" text-anchor="middle">A</text><circle cx="565.77" cy="322.07" r="5.5" fill="#2fc273" fill-opacity="0.15" stroke="#2fc273" stroke-width="2" /><text x="565.77" y="310.07" fill="#f3f4f6" font-size="15" font-weight="700" text-anchor="middle">B</text><circle cx="630.18" cy="302.43" r="5.5" fill="#2fc273" fill-opacity="0.15" stroke="#2fc273" stroke-width="2" /><text x="630.18" y="290.43" fill="#f3f4f6" font-size="15" font-weight="700" text-anchor="middle">C</text><circle cx="630.18" cy="341.15" r="5.5" fill="#2fc273" fill-opacity="0.15" stroke="#2fc273" stroke-width="2" /><text x="630.18" y="329.15" fill="#f3f4f6" font-size="15" font-weight="700" text-anchor="middle">D</text>
  <text x="56" y="492" fill="#8ba0b5" font-size="18">일반 완성 · TP1 0.10059 · TP2 0.10091 · SL 0.099857</text>
</svg>
