<svg xmlns="http://www.w3.org/2000/svg" width="960" height="540" viewBox="0 0 960 540">
  <rect width="960" height="540" rx="24" fill="#0b1220" />
  <rect x="28" y="28" width="904" height="484" rx="22" fill="#111827" stroke="#1f2937" />
  <text x="56" y="74" fill="#f3f4f6" font-size="34" font-weight="700">KITEUSDT · AB=CD</text>
  <text x="904" y="74" fill="#8ba0b5" font-size="20" text-anchor="end">Bearish (매도) · Score 68.2</text>
  <line x1="72" y1="58" x2="920" y2="58" stroke="#223045" stroke-width="1" stroke-dasharray="4 8" /><line x1="72" y1="156" x2="920" y2="156" stroke="#223045" stroke-width="1" stroke-dasharray="4 8" /><line x1="72" y1="255" x2="920" y2="255" stroke="#223045" stroke-width="1" stroke-dasharray="4 8" /><line x1="72" y1="353" x2="920" y2="353" stroke="#223045" stroke-width="1" stroke-dasharray="4 8" /><line x1="72" y1="452" x2="920" y2="452" stroke="#223045" stroke-width="1" stroke-dasharray="4 8" />
  <rect x="290.89" y="-117.64" width="84" height="165.91" fill="#fbbf24" fill-opacity="0.12" stroke="#fbbf24" stroke-width="1.5" stroke-dasharray="6 6" />
  <line x1="72.00" y1="261.57" x2="72.00" y2="294.30" stroke="#f6465d" stroke-width="1.4" /><rect x="69.00" y="272.94" width="6" height="20.22" rx="1.5" fill="#f6465d" /><line x1="82.73" y1="267.38" x2="82.73" y2="295.06" stroke="#0ecb81" stroke-width="1.4" /><rect x="79.73" y="268.77" width="6" height="24.39" rx="1.5" fill="#0ecb81" /><line x1="93.47" y1="255.63" x2="93.47" y2="279.14" stroke="#f6465d" stroke-width="1.4" /><rect x="90.47" y="268.77" width="6" height="2.40" rx="1.5" fill="#f6465d" /><line x1="104.20" y1="229.35" x2="104.20" y2="279.39" stroke="#0ecb81" stroke-width="1.4" /><rect x="101.20" y="230.61" width="6" height="40.69" rx="1.5" fill="#0ecb81" /><line x1="114.94" y1="211.66" x2="114.94" y2="242.24" stroke="#f6465d" stroke-width="1.4" /><rect x="111.94" y="230.61" width="6" height="3.92" rx="1.5" fill="#f6465d" /><line x1="125.67" y1="184.74" x2="125.67" y2="237.81" stroke="#0ecb81" stroke-width="1.4" /><rect x="122.67" y="187.14" width="6" height="47.13" rx="1.5" fill="#0ecb81" /><line x1="136.41" y1="171.85" x2="136.41" y2="214.44" stroke="#f6465d" stroke-width="1.4" /><rect x="133.41" y="187.14" width="6" height="16.68" rx="1.5" fill="#f6465d" /><line x1="147.14" y1="171.47" x2="147.14" y2="208.12" stroke="#0ecb81" stroke-width="1.4" /><rect x="144.14" y="184.49" width="6" height="19.33" rx="1.5" fill="#0ecb81" /><line x1="157.87" y1="167.68" x2="157.87" y2="195.86" stroke="#0ecb81" stroke-width="1.4" /><rect x="154.87" y="181.33" width="6" height="3.16" rx="1.5" fill="#0ecb81" /><line x1="168.61" y1="176.91" x2="168.61" y2="212.04" stroke="#f6465d" stroke-width="1.4" /><rect x="165.61" y="181.58" width="6" height="19.97" rx="1.5" fill="#f6465d" /><line x1="179.34" y1="189.16" x2="179.34" y2="208.12" stroke="#0ecb81" stroke-width="1.4" /><rect x="176.34" y="199.40" width="6" height="2.53" rx="1.5" fill="#0ecb81" /><line x1="190.08" y1="164.78" x2="190.08" y2="199.27" stroke="#0ecb81" stroke-width="1.4" /><rect x="187.08" y="179.69" width="6" height="19.59" rx="1.5" fill="#0ecb81" /><line x1="200.81" y1="121.06" x2="200.81" y2="183.86" stroke="#0ecb81" stroke-width="1.4" /><rect x="197.81" y="129.65" width="6" height="50.17" rx="1.5" fill="#0ecb81" /><line x1="211.54" y1="96.29" x2="211.54" y2="166.67" stroke="#0ecb81" stroke-width="1.4" /><rect x="208.54" y="112.59" width="6" height="17.06" rx="1.5" fill="#0ecb81" /><line x1="222.28" y1="98.06" x2="222.28" y2="148.86" stroke="#f6465d" stroke-width="1.4" /><rect x="219.28" y="112.08" width="6" height="22.49" rx="1.5" fill="#f6465d" /><line x1="233.01" y1="109.68" x2="233.01" y2="150.25" stroke="#0ecb81" stroke-width="1.4" /><rect x="230.01" y="119.92" width="6" height="14.66" rx="1.5" fill="#0ecb81" /><line x1="243.75" y1="93.13" x2="243.75" y2="126.62" stroke="#f6465d" stroke-width="1.4" /><rect x="240.75" y="119.67" width="6" height="3.41" rx="1.5" fill="#f6465d" /><line x1="254.48" y1="117.77" x2="254.48" y2="141.27" stroke="#0ecb81" stroke-width="1.4" /><rect x="251.48" y="119.67" width="6" height="3.41" rx="1.5" fill="#0ecb81" /><line x1="265.22" y1="106.27" x2="265.22" y2="144.05" stroke="#0ecb81" stroke-width="1.4" /><rect x="262.22" y="119.16" width="6" height="2.00" rx="1.5" fill="#0ecb81" /><line x1="275.95" y1="119.16" x2="275.95" y2="144.43" stroke="#f6465d" stroke-width="1.4" /><rect x="272.95" y="119.16" width="6" height="8.47" rx="1.5" fill="#f6465d" /><line x1="286.68" y1="96.29" x2="286.68" y2="140.01" stroke="#f6465d" stroke-width="1.4" /><rect x="283.68" y="127.63" width="6" height="9.86" rx="1.5" fill="#f6465d" /><line x1="297.42" y1="111.96" x2="297.42" y2="139.25" stroke="#0ecb81" stroke-width="1.4" /><rect x="294.42" y="119.79" width="6" height="17.69" rx="1.5" fill="#0ecb81" /><line x1="308.15" y1="89.46" x2="308.15" y2="130.41" stroke="#0ecb81" stroke-width="1.4" /><rect x="305.15" y="97.80" width="6" height="22.11" rx="1.5" fill="#0ecb81" /><line x1="318.89" y1="58.00" x2="318.89" y2="102.10" stroke="#0ecb81" stroke-width="1.4" /><rect x="315.89" y="80.24" width="6" height="17.44" rx="1.5" fill="#0ecb81" /><line x1="329.62" y1="61.92" x2="329.62" y2="114.48" stroke="#f6465d" stroke-width="1.4" /><rect x="326.62" y="80.24" width="6" height="3.66" rx="1.5" fill="#f6465d" /><line x1="340.35" y1="69.50" x2="340.35" y2="111.58" stroke="#f6465d" stroke-width="1.4" /><rect x="337.35" y="83.90" width="6" height="23.25" rx="1.5" fill="#f6465d" /><line x1="351.09" y1="106.27" x2="351.09" y2="174.25" stroke="#f6465d" stroke-width="1.4" /><rect x="348.09" y="107.16" width="6" height="64.07" rx="1.5" fill="#f6465d" /><line x1="361.82" y1="169.96" x2="361.82" y2="204.33" stroke="#f6465d" stroke-width="1.4" /><rect x="358.82" y="171.22" width="6" height="11.63" rx="1.5" fill="#f6465d" /><line x1="372.56" y1="178.42" x2="372.56" y2="208.50" stroke="#f6465d" stroke-width="1.4" /><rect x="369.56" y="182.59" width="6" height="24.51" rx="1.5" fill="#f6465d" /><line x1="383.29" y1="198.14" x2="383.29" y2="223.28" stroke="#f6465d" stroke-width="1.4" /><rect x="380.29" y="206.98" width="6" height="12.13" rx="1.5" fill="#f6465d" /><line x1="394.03" y1="214.69" x2="394.03" y2="239.08" stroke="#f6465d" stroke-width="1.4" /><rect x="391.03" y="219.11" width="6" height="2.00" rx="1.5" fill="#f6465d" /><line x1="404.76" y1="206.48" x2="404.76" y2="242.74" stroke="#0ecb81" stroke-width="1.4" /><rect x="401.76" y="217.34" width="6" height="2.15" rx="1.5" fill="#0ecb81" /><line x1="415.49" y1="208.12" x2="415.49" y2="229.35" stroke="#0ecb81" stroke-width="1.4" /><rect x="412.49" y="217.34" width="6" height="2.00" rx="1.5" fill="#0ecb81" /><line x1="426.23" y1="213.05" x2="426.23" y2="246.91" stroke="#f6465d" stroke-width="1.4" /><rect x="423.23" y="217.60" width="6" height="21.99" rx="1.5" fill="#f6465d" /><line x1="436.96" y1="232.89" x2="436.96" y2="251.71" stroke="#f6465d" stroke-width="1.4" /><rect x="433.96" y="240.72" width="6" height="9.73" rx="1.5" fill="#f6465d" /><line x1="447.70" y1="225.05" x2="447.70" y2="253.23" stroke="#0ecb81" stroke-width="1.4" /><rect x="444.70" y="248.93" width="6" height="2.00" rx="1.5" fill="#0ecb81" /><line x1="458.43" y1="231.88" x2="458.43" y2="256.14" stroke="#f6465d" stroke-width="1.4" /><rect x="455.43" y="248.81" width="6" height="5.81" rx="1.5" fill="#f6465d" /><line x1="469.16" y1="238.57" x2="469.16" y2="255.00" stroke="#0ecb81" stroke-width="1.4" /><rect x="466.16" y="243.50" width="6" height="10.87" rx="1.5" fill="#0ecb81" /><line x1="479.90" y1="241.10" x2="479.90" y2="264.73" stroke="#f6465d" stroke-width="1.4" /><rect x="476.90" y="243.12" width="6" height="20.98" rx="1.5" fill="#f6465d" /><line x1="490.63" y1="261.19" x2="490.63" y2="272.82" stroke="#0ecb81" stroke-width="1.4" /><rect x="487.63" y="263.59" width="6" height="2.00" rx="1.5" fill="#0ecb81" /><line x1="501.37" y1="260.81" x2="501.37" y2="279.39" stroke="#f6465d" stroke-width="1.4" /><rect x="498.37" y="263.59" width="6" height="14.15" rx="1.5" fill="#f6465d" /><line x1="512.10" y1="274.46" x2="512.10" y2="296.57" stroke="#f6465d" stroke-width="1.4" /><rect x="509.10" y="277.75" width="6" height="13.14" rx="1.5" fill="#f6465d" /><line x1="522.84" y1="282.17" x2="522.84" y2="296.70" stroke="#f6465d" stroke-width="1.4" /><rect x="519.84" y="290.51" width="6" height="5.94" rx="1.5" fill="#f6465d" /><line x1="533.57" y1="290.00" x2="533.57" y2="315.40" stroke="#f6465d" stroke-width="1.4" /><rect x="530.57" y="296.45" width="6" height="12.13" rx="1.5" fill="#f6465d" /><line x1="544.30" y1="271.43" x2="544.30" y2="309.46" stroke="#0ecb81" stroke-width="1.4" /><rect x="541.30" y="275.98" width="6" height="32.73" rx="1.5" fill="#0ecb81" /><line x1="555.04" y1="257.91" x2="555.04" y2="287.73" stroke="#0ecb81" stroke-width="1.4" /><rect x="552.04" y="272.94" width="6" height="3.03" rx="1.5" fill="#0ecb81" /><line x1="565.77" y1="264.60" x2="565.77" y2="291.39" stroke="#f6465d" stroke-width="1.4" /><rect x="562.77" y="273.45" width="6" height="17.06" rx="1.5" fill="#f6465d" /><line x1="576.51" y1="280.65" x2="576.51" y2="299.10" stroke="#f6465d" stroke-width="1.4" /><rect x="573.51" y="289.75" width="6" height="7.46" rx="1.5" fill="#f6465d" /><line x1="587.24" y1="296.70" x2="587.24" y2="312.37" stroke="#f6465d" stroke-width="1.4" /><rect x="584.24" y="297.08" width="6" height="14.28" rx="1.5" fill="#f6465d" /><line x1="597.97" y1="279.14" x2="597.97" y2="312.37" stroke="#0ecb81" stroke-width="1.4" /><rect x="594.97" y="310.22" width="6" height="2.00" rx="1.5" fill="#0ecb81" /><line x1="608.71" y1="288.36" x2="608.71" y2="310.22" stroke="#0ecb81" stroke-width="1.4" /><rect x="605.71" y="303.02" width="6" height="7.20" rx="1.5" fill="#0ecb81" /><line x1="619.44" y1="301.75" x2="619.44" y2="330.57" stroke="#f6465d" stroke-width="1.4" /><rect x="616.44" y="303.27" width="6" height="22.24" rx="1.5" fill="#f6465d" /><line x1="630.18" y1="299.86" x2="630.18" y2="334.86" stroke="#0ecb81" stroke-width="1.4" /><rect x="627.18" y="319.32" width="6" height="5.81" rx="1.5" fill="#0ecb81" /><line x1="640.91" y1="316.67" x2="640.91" y2="324.25" stroke="#0ecb81" stroke-width="1.4" /><rect x="637.91" y="319.32" width="6" height="2.00" rx="1.5" fill="#0ecb81" /><line x1="651.65" y1="309.59" x2="651.65" y2="320.08" stroke="#0ecb81" stroke-width="1.4" /><rect x="648.65" y="312.87" width="6" height="6.07" rx="1.5" fill="#0ecb81" /><line x1="662.38" y1="311.99" x2="662.38" y2="333.72" stroke="#f6465d" stroke-width="1.4" /><rect x="659.38" y="312.87" width="6" height="9.10" rx="1.5" fill="#f6465d" /><line x1="673.11" y1="310.35" x2="673.11" y2="330.31" stroke="#0ecb81" stroke-width="1.4" /><rect x="670.11" y="312.62" width="6" height="9.73" rx="1.5" fill="#0ecb81" /><line x1="683.85" y1="304.03" x2="683.85" y2="325.01" stroke="#f6465d" stroke-width="1.4" /><rect x="680.85" y="312.62" width="6" height="11.63" rx="1.5" fill="#f6465d" /><line x1="694.58" y1="317.55" x2="694.58" y2="336.00" stroke="#f6465d" stroke-width="1.4" /><rect x="691.58" y="324.25" width="6" height="9.98" rx="1.5" fill="#f6465d" /><line x1="705.32" y1="333.47" x2="705.32" y2="352.17" stroke="#f6465d" stroke-width="1.4" /><rect x="702.32" y="334.23" width="6" height="2.00" rx="1.5" fill="#f6465d" /><line x1="716.05" y1="335.87" x2="716.05" y2="346.61" stroke="#f6465d" stroke-width="1.4" /><rect x="713.05" y="336.00" width="6" height="2.00" rx="1.5" fill="#f6465d" /><line x1="726.78" y1="320.58" x2="726.78" y2="342.82" stroke="#0ecb81" stroke-width="1.4" /><rect x="723.78" y="331.96" width="6" height="5.56" rx="1.5" fill="#0ecb81" /><line x1="737.52" y1="332.08" x2="737.52" y2="348.76" stroke="#f6465d" stroke-width="1.4" /><rect x="734.52" y="332.08" width="6" height="16.43" rx="1.5" fill="#f6465d" /><line x1="748.25" y1="343.83" x2="748.25" y2="359.12" stroke="#0ecb81" stroke-width="1.4" /><rect x="745.25" y="345.48" width="6" height="2.91" rx="1.5" fill="#0ecb81" /><line x1="758.99" y1="339.16" x2="758.99" y2="356.85" stroke="#f6465d" stroke-width="1.4" /><rect x="755.99" y="346.23" width="6" height="9.10" rx="1.5" fill="#f6465d" /><line x1="769.72" y1="352.81" x2="769.72" y2="369.11" stroke="#f6465d" stroke-width="1.4" /><rect x="766.72" y="355.33" width="6" height="12.89" rx="1.5" fill="#f6465d" /><line x1="780.46" y1="359.75" x2="780.46" y2="372.14" stroke="#0ecb81" stroke-width="1.4" /><rect x="777.46" y="365.19" width="6" height="2.91" rx="1.5" fill="#0ecb81" /><line x1="791.19" y1="363.92" x2="791.19" y2="383.26" stroke="#f6465d" stroke-width="1.4" /><rect x="788.19" y="365.31" width="6" height="6.82" rx="1.5" fill="#f6465d" /><line x1="801.92" y1="361.65" x2="801.92" y2="373.78" stroke="#0ecb81" stroke-width="1.4" /><rect x="798.92" y="364.81" width="6" height="7.58" rx="1.5" fill="#0ecb81" /><line x1="812.66" y1="362.03" x2="812.66" y2="376.18" stroke="#f6465d" stroke-width="1.4" /><rect x="809.66" y="365.19" width="6" height="8.47" rx="1.5" fill="#f6465d" /><line x1="823.39" y1="371.38" x2="823.39" y2="397.79" stroke="#f6465d" stroke-width="1.4" /><rect x="820.39" y="373.65" width="6" height="21.86" rx="1.5" fill="#f6465d" /><line x1="834.13" y1="389.70" x2="834.13" y2="415.61" stroke="#f6465d" stroke-width="1.4" /><rect x="831.13" y="395.52" width="6" height="18.95" rx="1.5" fill="#f6465d" /><line x1="844.86" y1="410.93" x2="844.86" y2="438.86" stroke="#f6465d" stroke-width="1.4" /><rect x="841.86" y="414.34" width="6" height="18.95" rx="1.5" fill="#f6465d" /><line x1="855.59" y1="428.88" x2="855.59" y2="444.92" stroke="#f6465d" stroke-width="1.4" /><rect x="852.59" y="433.42" width="6" height="7.08" rx="1.5" fill="#f6465d" /><line x1="866.33" y1="433.80" x2="866.33" y2="450.86" stroke="#f6465d" stroke-width="1.4" /><rect x="863.33" y="440.37" width="6" height="2.40" rx="1.5" fill="#f6465d" /><line x1="877.06" y1="441.51" x2="877.06" y2="452.00" stroke="#f6465d" stroke-width="1.4" /><rect x="874.06" y="442.78" width="6" height="4.30" rx="1.5" fill="#f6465d" /><line x1="887.80" y1="417.00" x2="887.80" y2="449.98" stroke="#0ecb81" stroke-width="1.4" /><rect x="884.80" y="422.56" width="6" height="23.76" rx="1.5" fill="#0ecb81" /><line x1="898.53" y1="385.79" x2="898.53" y2="432.16" stroke="#0ecb81" stroke-width="1.4" /><rect x="895.53" y="401.08" width="6" height="21.73" rx="1.5" fill="#0ecb81" /><line x1="909.27" y1="377.82" x2="909.27" y2="409.16" stroke="#0ecb81" stroke-width="1.4" /><rect x="906.27" y="391.72" width="6" height="9.35" rx="1.5" fill="#0ecb81" /><line x1="920.00" y1="375.17" x2="920.00" y2="398.30" stroke="#0ecb81" stroke-width="1.4" /><rect x="917.00" y="378.71" width="6" height="13.14" rx="1.5" fill="#0ecb81" />
  <polyline points="72.00,289.88 72.00,355.21 243.75,93.13 275.95,144.43 318.89,58.00" fill="none" stroke="#2fc273" stroke-width="4" stroke-linecap="round" stroke-linejoin="round" />
  <circle cx="72.00" cy="289.88" r="5.5" fill="#2fc273" fill-opacity="0.15" stroke="#2fc273" stroke-width="2" /><text x="72.00" y="277.88" fill="#f3f4f6" font-size="15" font-weight="700" text-anchor="middle">X</text><circle cx="72.00" cy="355.21" r="5.5" fill="#2fc273" fill-opacity="0.15" stroke="#2fc273" stroke-width="2" /><text x="72.00" y="343.21" fill="#f3f4f6" font-size="15" font-weight="700" text-anchor="middle">A</text><circle cx="243.75" cy="93.13" r="5.5" fill="#2fc273" fill-opacity="0.15" stroke="#2fc273" stroke-width="2" /><text x="243.75" y="81.13" fill="#f3f4f6" font-size="15" font-weight="700" text-anchor="middle">B</text><circle cx="275.95" cy="144.43" r="5.5" fill="#2fc273" fill-opacity="0.15" stroke="#2fc273" stroke-width="2" /><text x="275.95" y="132.43" fill="#f3f4f6" font-size="15" font-weight="700" text-anchor="middle">C</text><circle cx="318.89" cy="58.00" r="5.5" fill="#2fc273" fill-opacity="0.15" stroke="#2fc273" stroke-width="2" /><text x="318.89" y="46.00" fill="#f3f4f6" font-size="15" font-weight="700" text-anchor="middle">D</text>
  <text x="56" y="492" fill="#8ba0b5" font-size="18">일반 완성 · TP1 0.16549 · TP2 0.16387 · SL 0.16877</text>
</svg>
