<svg xmlns="http://www.w3.org/2000/svg" width="960" height="540" viewBox="0 0 960 540">
  <rect width="960" height="540" rx="24" fill="#0b1220" />
  <rect x="28" y="28" width="904" height="484" rx="22" fill="#111827" stroke="#1f2937" />
  <text x="56" y="74" fill="#f3f4f6" font-size="34" font-weight="700">KITEUSDT · AB=CD</text>
  <text x="904" y="74" fill="#8ba0b5" font-size="20" text-anchor="end">Bearish (매도) · Score 78.2</text>
  <line x1="72" y1="58" x2="920" y2="58" stroke="#223045" stroke-width="1" stroke-dasharray="4 8" /><line x1="72" y1="156" x2="920" y2="156" stroke="#223045" stroke-width="1" stroke-dasharray="4 8" /><line x1="72" y1="255" x2="920" y2="255" stroke="#223045" stroke-width="1" stroke-dasharray="4 8" /><line x1="72" y1="353" x2="920" y2="353" stroke="#223045" stroke-width="1" stroke-dasharray="4 8" /><line x1="72" y1="452" x2="920" y2="452" stroke="#223045" stroke-width="1" stroke-dasharray="4 8" />
  <rect x="473.37" y="186.32" width="84" height="41.80" fill="#fbbf24" fill-opacity="0.12" stroke="#fbbf24" stroke-width="1.5" stroke-dasharray="6 6" />
  <line x1="72.00" y1="69.71" x2="72.00" y2="91.81" stroke="#0ecb81" stroke-width="1.4" /><rect x="69.00" y="76.64" width="6" height="12.78" rx="1.5" fill="#0ecb81" /><line x1="82.73" y1="74.77" x2="82.73" y2="120.56" stroke="#f6465d" stroke-width="1.4" /><rect x="79.73" y="76.64" width="6" height="19.17" rx="1.5" fill="#f6465d" /><line x1="93.47" y1="71.31" x2="93.47" y2="113.37" stroke="#0ecb81" stroke-width="1.4" /><rect x="90.47" y="76.10" width="6" height="20.50" rx="1.5" fill="#0ecb81" /><line x1="104.20" y1="58.00" x2="104.20" y2="102.19" stroke="#f6465d" stroke-width="1.4" /><rect x="101.20" y="76.10" width="6" height="24.49" rx="1.5" fill="#f6465d" /><line x1="114.94" y1="86.49" x2="114.94" y2="125.35" stroke="#f6465d" stroke-width="1.4" /><rect x="111.94" y="100.59" width="6" height="21.03" rx="1.5" fill="#f6465d" /><line x1="125.67" y1="120.03" x2="125.67" y2="159.43" stroke="#f6465d" stroke-width="1.4" /><rect x="122.67" y="121.63" width="6" height="3.99" rx="1.5" fill="#f6465d" /><line x1="136.41" y1="125.09" x2="136.41" y2="147.71" stroke="#f6465d" stroke-width="1.4" /><rect x="133.41" y="125.35" width="6" height="2.93" rx="1.5" fill="#f6465d" /><line x1="147.14" y1="92.87" x2="147.14" y2="139.73" stroke="#0ecb81" stroke-width="1.4" /><rect x="144.14" y="116.83" width="6" height="11.71" rx="1.5" fill="#0ecb81" /><line x1="157.87" y1="117.10" x2="157.87" y2="152.24" stroke="#f6465d" stroke-width="1.4" /><rect x="154.87" y="117.10" width="6" height="34.61" rx="1.5" fill="#f6465d" /><line x1="168.61" y1="141.86" x2="168.61" y2="174.07" stroke="#0ecb81" stroke-width="1.4" /><rect x="165.61" y="145.32" width="6" height="6.12" rx="1.5" fill="#0ecb81" /><line x1="179.34" y1="132.01" x2="179.34" y2="169.28" stroke="#f6465d" stroke-width="1.4" /><rect x="176.34" y="146.92" width="6" height="19.17" rx="1.5" fill="#f6465d" /><line x1="190.08" y1="160.76" x2="190.08" y2="195.10" stroke="#f6465d" stroke-width="1.4" /><rect x="187.08" y="166.08" width="6" height="27.15" rx="1.5" fill="#f6465d" /><line x1="200.81" y1="175.40" x2="200.81" y2="201.49" stroke="#0ecb81" stroke-width="1.4" /><rect x="197.81" y="186.85" width="6" height="6.12" rx="1.5" fill="#0ecb81" /><line x1="211.54" y1="184.19" x2="211.54" y2="224.92" stroke="#f6465d" stroke-width="1.4" /><rect x="208.54" y="187.11" width="6" height="14.38" rx="1.5" fill="#f6465d" /><line x1="222.28" y1="179.39" x2="222.28" y2="204.95" stroke="#0ecb81" stroke-width="1.4" /><rect x="219.28" y="186.05" width="6" height="15.97" rx="1.5" fill="#0ecb81" /><line x1="233.01" y1="180.19" x2="233.01" y2="210.01" stroke="#f6465d" stroke-width="1.4" /><rect x="230.01" y="186.85" width="6" height="17.84" rx="1.5" fill="#f6465d" /><line x1="243.75" y1="199.89" x2="243.75" y2="255.53" stroke="#f6465d" stroke-width="1.4" /><rect x="240.75" y="204.69" width="6" height="46.06" rx="1.5" fill="#f6465d" /><line x1="254.48" y1="238.49" x2="254.48" y2="293.07" stroke="#f6465d" stroke-width="1.4" /><rect x="251.48" y="250.74" width="6" height="39.93" rx="1.5" fill="#f6465d" /><line x1="265.22" y1="283.22" x2="265.22" y2="342.05" stroke="#f6465d" stroke-width="1.4" /><rect x="262.22" y="290.41" width="6" height="39.93" rx="1.5" fill="#f6465d" /><line x1="275.95" y1="321.02" x2="275.95" y2="354.83" stroke="#f6465d" stroke-width="1.4" /><rect x="272.95" y="330.61" width="6" height="14.91" rx="1.5" fill="#f6465d" /><line x1="286.68" y1="331.40" x2="286.68" y2="367.34" stroke="#f6465d" stroke-width="1.4" /><rect x="283.68" y="345.25" width="6" height="5.06" rx="1.5" fill="#f6465d" /><line x1="297.42" y1="347.64" x2="297.42" y2="369.74" stroke="#f6465d" stroke-width="1.4" /><rect x="294.42" y="350.31" width="6" height="9.05" rx="1.5" fill="#f6465d" /><line x1="308.15" y1="296.00" x2="308.15" y2="365.48" stroke="#0ecb81" stroke-width="1.4" /><rect x="305.15" y="307.71" width="6" height="50.05" rx="1.5" fill="#0ecb81" /><line x1="318.89" y1="230.24" x2="318.89" y2="327.94" stroke="#0ecb81" stroke-width="1.4" /><rect x="315.89" y="262.45" width="6" height="45.79" rx="1.5" fill="#0ecb81" /><line x1="329.62" y1="213.47" x2="329.62" y2="279.49" stroke="#0ecb81" stroke-width="1.4" /><rect x="326.62" y="242.75" width="6" height="19.70" rx="1.5" fill="#0ecb81" /><line x1="340.35" y1="198.56" x2="340.35" y2="256.60" stroke="#0ecb81" stroke-width="1.4" /><rect x="337.35" y="200.16" width="6" height="42.86" rx="1.5" fill="#0ecb81" /><line x1="351.09" y1="179.66" x2="351.09" y2="268.04" stroke="#f6465d" stroke-width="1.4" /><rect x="348.09" y="200.43" width="6" height="67.62" rx="1.5" fill="#f6465d" /><line x1="361.82" y1="268.31" x2="361.82" y2="297.06" stroke="#f6465d" stroke-width="1.4" /><rect x="358.82" y="268.31" width="6" height="14.91" rx="1.5" fill="#f6465d" /><line x1="372.56" y1="236.90" x2="372.56" y2="291.74" stroke="#0ecb81" stroke-width="1.4" /><rect x="369.56" y="270.17" width="6" height="12.78" rx="1.5" fill="#0ecb81" /><line x1="383.29" y1="260.32" x2="383.29" y2="294.93" stroke="#f6465d" stroke-width="1.4" /><rect x="380.29" y="270.17" width="6" height="2.13" rx="1.5" fill="#f6465d" /><line x1="394.03" y1="245.42" x2="394.03" y2="296.53" stroke="#f6465d" stroke-width="1.4" /><rect x="391.03" y="273.64" width="6" height="21.30" rx="1.5" fill="#f6465d" /><line x1="404.76" y1="290.41" x2="404.76" y2="321.82" stroke="#f6465d" stroke-width="1.4" /><rect x="401.76" y="295.46" width="6" height="24.76" rx="1.5" fill="#f6465d" /><line x1="415.49" y1="264.05" x2="415.49" y2="320.76" stroke="#0ecb81" stroke-width="1.4" /><rect x="412.49" y="284.55" width="6" height="35.67" rx="1.5" fill="#0ecb81" /><line x1="426.23" y1="264.05" x2="426.23" y2="315.43" stroke="#0ecb81" stroke-width="1.4" /><rect x="423.23" y="275.23" width="6" height="9.05" rx="1.5" fill="#0ecb81" /><line x1="436.96" y1="242.75" x2="436.96" y2="292.54" stroke="#f6465d" stroke-width="1.4" /><rect x="433.96" y="275.23" width="6" height="5.86" rx="1.5" fill="#f6465d" /><line x1="447.70" y1="280.82" x2="447.70" y2="294.67" stroke="#f6465d" stroke-width="1.4" /><rect x="444.70" y="280.82" width="6" height="5.32" rx="1.5" fill="#f6465d" /><line x1="458.43" y1="275.23" x2="458.43" y2="304.78" stroke="#f6465d" stroke-width="1.4" /><rect x="455.43" y="285.88" width="6" height="13.31" rx="1.5" fill="#f6465d" /><line x1="469.16" y1="282.95" x2="469.16" y2="306.65" stroke="#0ecb81" stroke-width="1.4" /><rect x="466.16" y="284.28" width="6" height="14.64" rx="1.5" fill="#0ecb81" /><line x1="479.90" y1="279.23" x2="479.90" y2="301.59" stroke="#f6465d" stroke-width="1.4" /><rect x="476.90" y="284.28" width="6" height="13.84" rx="1.5" fill="#f6465d" /><line x1="490.63" y1="280.82" x2="490.63" y2="307.18" stroke="#0ecb81" stroke-width="1.4" /><rect x="487.63" y="282.95" width="6" height="15.17" rx="1.5" fill="#0ecb81" /><line x1="501.37" y1="273.37" x2="501.37" y2="301.85" stroke="#f6465d" stroke-width="1.4" /><rect x="498.37" y="282.95" width="6" height="13.84" rx="1.5" fill="#f6465d" /><line x1="512.10" y1="284.02" x2="512.10" y2="301.59" stroke="#0ecb81" stroke-width="1.4" /><rect x="509.10" y="287.48" width="6" height="9.58" rx="1.5" fill="#0ecb81" /><line x1="522.84" y1="273.64" x2="522.84" y2="292.27" stroke="#0ecb81" stroke-width="1.4" /><rect x="519.84" y="280.29" width="6" height="6.92" rx="1.5" fill="#0ecb81" /><line x1="533.57" y1="278.69" x2="533.57" y2="291.47" stroke="#f6465d" stroke-width="1.4" /><rect x="530.57" y="279.49" width="6" height="8.25" rx="1.5" fill="#f6465d" /><line x1="544.30" y1="285.08" x2="544.30" y2="307.18" stroke="#f6465d" stroke-width="1.4" /><rect x="541.30" y="287.48" width="6" height="10.91" rx="1.5" fill="#f6465d" /><line x1="555.04" y1="281.36" x2="555.04" y2="307.71" stroke="#f6465d" stroke-width="1.4" /><rect x="552.04" y="298.39" width="6" height="7.45" rx="1.5" fill="#f6465d" /><line x1="565.77" y1="293.87" x2="565.77" y2="319.42" stroke="#f6465d" stroke-width="1.4" /><rect x="562.77" y="305.85" width="6" height="6.66" rx="1.5" fill="#f6465d" /><line x1="576.51" y1="304.52" x2="576.51" y2="318.09" stroke="#f6465d" stroke-width="1.4" /><rect x="573.51" y="312.24" width="6" height="4.53" rx="1.5" fill="#f6465d" /><line x1="587.24" y1="306.11" x2="587.24" y2="347.91" stroke="#f6465d" stroke-width="1.4" /><rect x="584.24" y="316.76" width="6" height="18.10" rx="1.5" fill="#f6465d" /><line x1="597.97" y1="324.22" x2="597.97" y2="352.70" stroke="#f6465d" stroke-width="1.4" /><rect x="594.97" y="334.60" width="6" height="2.00" rx="1.5" fill="#f6465d" /><line x1="608.71" y1="310.91" x2="608.71" y2="335.93" stroke="#0ecb81" stroke-width="1.4" /><rect x="605.71" y="317.83" width="6" height="17.30" rx="1.5" fill="#0ecb81" /><line x1="619.44" y1="296.00" x2="619.44" y2="322.89" stroke="#0ecb81" stroke-width="1.4" /><rect x="616.44" y="298.66" width="6" height="19.17" rx="1.5" fill="#0ecb81" /><line x1="630.18" y1="280.56" x2="630.18" y2="299.46" stroke="#0ecb81" stroke-width="1.4" /><rect x="627.18" y="293.07" width="6" height="5.32" rx="1.5" fill="#0ecb81" /><line x1="640.91" y1="285.08" x2="640.91" y2="332.74" stroke="#f6465d" stroke-width="1.4" /><rect x="637.91" y="293.07" width="6" height="36.47" rx="1.5" fill="#f6465d" /><line x1="651.65" y1="300.26" x2="651.65" y2="329.27" stroke="#0ecb81" stroke-width="1.4" /><rect x="648.65" y="304.78" width="6" height="24.49" rx="1.5" fill="#0ecb81" /><line x1="662.38" y1="285.08" x2="662.38" y2="306.11" stroke="#0ecb81" stroke-width="1.4" /><rect x="659.38" y="289.61" width="6" height="14.91" rx="1.5" fill="#0ecb81" /><line x1="673.11" y1="280.29" x2="673.11" y2="306.11" stroke="#f6465d" stroke-width="1.4" /><rect x="670.11" y="289.08" width="6" height="5.59" rx="1.5" fill="#f6465d" /><line x1="683.85" y1="281.09" x2="683.85" y2="308.51" stroke="#0ecb81" stroke-width="1.4" /><rect x="680.85" y="291.21" width="6" height="3.73" rx="1.5" fill="#0ecb81" /><line x1="694.58" y1="282.15" x2="694.58" y2="300.79" stroke="#0ecb81" stroke-width="1.4" /><rect x="691.58" y="282.42" width="6" height="8.79" rx="1.5" fill="#0ecb81" /><line x1="705.32" y1="258.73" x2="705.32" y2="294.93" stroke="#f6465d" stroke-width="1.4" /><rect x="702.32" y="282.42" width="6" height="9.85" rx="1.5" fill="#f6465d" /><line x1="716.05" y1="288.28" x2="716.05" y2="323.68" stroke="#f6465d" stroke-width="1.4" /><rect x="713.05" y="292.27" width="6" height="14.38" rx="1.5" fill="#f6465d" /><line x1="726.78" y1="295.73" x2="726.78" y2="333.80" stroke="#f6465d" stroke-width="1.4" /><rect x="723.78" y="306.91" width="6" height="9.32" rx="1.5" fill="#f6465d" /><line x1="737.52" y1="297.33" x2="737.52" y2="328.21" stroke="#f6465d" stroke-width="1.4" /><rect x="734.52" y="316.50" width="6" height="2.40" rx="1.5" fill="#f6465d" /><line x1="748.25" y1="304.78" x2="748.25" y2="346.58" stroke="#f6465d" stroke-width="1.4" /><rect x="745.25" y="318.09" width="6" height="28.49" rx="1.5" fill="#f6465d" /><line x1="758.99" y1="309.57" x2="758.99" y2="376.13" stroke="#0ecb81" stroke-width="1.4" /><rect x="755.99" y="315.43" width="6" height="30.35" rx="1.5" fill="#0ecb81" /><line x1="769.72" y1="269.64" x2="769.72" y2="328.48" stroke="#0ecb81" stroke-width="1.4" /><rect x="766.72" y="302.39" width="6" height="13.31" rx="1.5" fill="#0ecb81" /><line x1="780.46" y1="264.85" x2="780.46" y2="313.83" stroke="#0ecb81" stroke-width="1.4" /><rect x="777.46" y="276.03" width="6" height="26.62" rx="1.5" fill="#0ecb81" /><line x1="791.19" y1="267.51" x2="791.19" y2="320.49" stroke="#f6465d" stroke-width="1.4" /><rect x="788.19" y="276.03" width="6" height="41.00" rx="1.5" fill="#f6465d" /><line x1="801.92" y1="313.30" x2="801.92" y2="356.43" stroke="#f6465d" stroke-width="1.4" /><rect x="798.92" y="317.03" width="6" height="32.74" rx="1.5" fill="#f6465d" /><line x1="812.66" y1="323.42" x2="812.66" y2="350.84" stroke="#0ecb81" stroke-width="1.4" /><rect x="809.66" y="333.27" width="6" height="15.97" rx="1.5" fill="#0ecb81" /><line x1="823.39" y1="304.52" x2="823.39" y2="368.67" stroke="#f6465d" stroke-width="1.4" /><rect x="820.39" y="332.20" width="6" height="21.03" rx="1.5" fill="#f6465d" /><line x1="834.13" y1="348.18" x2="834.13" y2="401.69" stroke="#f6465d" stroke-width="1.4" /><rect x="831.13" y="354.30" width="6" height="36.74" rx="1.5" fill="#f6465d" /><line x1="844.86" y1="366.01" x2="844.86" y2="410.47" stroke="#f6465d" stroke-width="1.4" /><rect x="841.86" y="391.04" width="6" height="2.13" rx="1.5" fill="#f6465d" /><line x1="855.59" y1="378.52" x2="855.59" y2="415.53" stroke="#f6465d" stroke-width="1.4" /><rect x="852.59" y="393.43" width="6" height="11.71" rx="1.5" fill="#f6465d" /><line x1="866.33" y1="355.63" x2="866.33" y2="405.94" stroke="#0ecb81" stroke-width="1.4" /><rect x="863.33" y="387.58" width="6" height="17.30" rx="1.5" fill="#0ecb81" /><line x1="877.06" y1="352.44" x2="877.06" y2="398.22" stroke="#f6465d" stroke-width="1.4" /><rect x="874.06" y="387.58" width="6" height="10.12" rx="1.5" fill="#f6465d" /><line x1="887.80" y1="389.17" x2="887.80" y2="433.90" stroke="#f6465d" stroke-width="1.4" /><rect x="884.80" y="397.69" width="6" height="29.02" rx="1.5" fill="#f6465d" /><line x1="898.53" y1="404.35" x2="898.53" y2="439.75" stroke="#0ecb81" stroke-width="1.4" /><rect x="895.53" y="421.12" width="6" height="5.59" rx="1.5" fill="#0ecb81" /><line x1="909.27" y1="416.33" x2="909.27" y2="442.68" stroke="#f6465d" stroke-width="1.4" /><rect x="906.27" y="420.05" width="6" height="13.31" rx="1.5" fill="#f6465d" /><line x1="920.00" y1="430.44" x2="920.00" y2="452.00" stroke="#f6465d" stroke-width="1.4" /><rect x="917.00" y="433.10" width="6" height="11.98" rx="1.5" fill="#f6465d" />
  <polyline points="351.09,179.66 404.76,321.82 436.96,242.75 490.63,307.18 501.37,273.37" fill="none" stroke="#2fc273" stroke-width="4" stroke-linecap="round" stroke-linejoin="round" />
  <circle cx="351.09" cy="179.66" r="5.5" fill="#2fc273" fill-opacity="0.15" stroke="#2fc273" stroke-width="2" /><text x="351.09" y="167.66" fill="#f3f4f6" font-size="15" font-weight="700" text-anchor="middle">X</text><circle cx="404.76" cy="321.82" r="5.5" fill="#2fc273" fill-opacity="0.15" stroke="#2fc273" stroke-width="2" /><text x="404.76" y="309.82" fill="#f3f4f6" font-size="15" font-weight="700" text-anchor="middle">A</text><circle cx="436.96" cy="242.75" r="5.5" fill="#2fc273" fill-opacity="0.15" stroke="#2fc273" stroke-width="2" /><text x="436.96" y="230.75" fill="#f3f4f6" font-size="15" font-weight="700" text-anchor="middle">B</text><circle cx="490.63" cy="307.18" r="5.5" fill="#2fc273" fill-opacity="0.15" stroke="#2fc273" stroke-width="2" /><text x="490.63" y="295.18" fill="#f3f4f6" font-size="15" font-weight="700" text-anchor="middle">C</text><circle cx="501.37" cy="273.37" r="5.5" fill="#2fc273" fill-opacity="0.15" stroke="#2fc273" stroke-width="2" /><text x="501.37" y="261.37" fill="#f3f4f6" font-size="15" font-weight="700" text-anchor="middle">D</text>
  <text x="56" y="492" fill="#8ba0b5" font-size="18">일반 완성 · TP1 0.14005 · TP2 0.13976 · SL 0.14123</text>
</svg>
