<svg xmlns="http://www.w3.org/2000/svg" width="960" height="540" viewBox="0 0 960 540">
  <rect width="960" height="540" rx="24" fill="#0b1220" />
  <rect x="28" y="28" width="904" height="484" rx="22" fill="#111827" stroke="#1f2937" />
  <text x="56" y="74" fill="#f3f4f6" font-size="34" font-weight="700">KITEUSDT · AB=CD</text>
  <text x="904" y="74" fill="#8ba0b5" font-size="20" text-anchor="end">Bullish (매수) · Score 72.2</text>
  <line x1="72" y1="58" x2="920" y2="58" stroke="#223045" stroke-width="1" stroke-dasharray="4 8" /><line x1="72" y1="156" x2="920" y2="156" stroke="#223045" stroke-width="1" stroke-dasharray="4 8" /><line x1="72" y1="255" x2="920" y2="255" stroke="#223045" stroke-width="1" stroke-dasharray="4 8" /><line x1="72" y1="353" x2="920" y2="353" stroke="#223045" stroke-width="1" stroke-dasharray="4 8" /><line x1="72" y1="452" x2="920" y2="452" stroke="#223045" stroke-width="1" stroke-dasharray="4 8" />
  <rect x="730.99" y="367.33" width="84" height="19.56" fill="#fbbf24" fill-opacity="0.12" stroke="#fbbf24" stroke-width="1.5" stroke-dasharray="6 6" />
  <line x1="72.00" y1="326.93" x2="72.00" y2="360.64" stroke="#f6465d" stroke-width="1.4" /><rect x="69.00" y="337.87" width="6" height="5.92" rx="1.5" fill="#f6465d" /><line x1="82.73" y1="331.43" x2="82.73" y2="353.05" stroke="#0ecb81" stroke-width="1.4" /><rect x="79.73" y="332.72" width="6" height="11.07" rx="1.5" fill="#0ecb81" /><line x1="93.47" y1="309.69" x2="93.47" y2="335.29" stroke="#0ecb81" stroke-width="1.4" /><rect x="90.47" y="317.41" width="6" height="15.18" rx="1.5" fill="#0ecb81" /><line x1="104.20" y1="307.50" x2="104.20" y2="330.92" stroke="#0ecb81" stroke-width="1.4" /><rect x="101.20" y="312.26" width="6" height="5.40" rx="1.5" fill="#0ecb81" /><line x1="114.94" y1="270.57" x2="114.94" y2="314.19" stroke="#0ecb81" stroke-width="1.4" /><rect x="111.94" y="277.00" width="6" height="35.39" rx="1.5" fill="#0ecb81" /><line x1="125.67" y1="265.29" x2="125.67" y2="298.62" stroke="#f6465d" stroke-width="1.4" /><rect x="122.67" y="276.87" width="6" height="20.59" rx="1.5" fill="#f6465d" /><line x1="136.41" y1="271.21" x2="136.41" y2="299.39" stroke="#0ecb81" stroke-width="1.4" /><rect x="133.41" y="272.63" width="6" height="24.83" rx="1.5" fill="#0ecb81" /><line x1="147.14" y1="259.25" x2="147.14" y2="283.18" stroke="#f6465d" stroke-width="1.4" /><rect x="144.14" y="272.63" width="6" height="2.44" rx="1.5" fill="#f6465d" /><line x1="157.87" y1="232.48" x2="157.87" y2="283.44" stroke="#0ecb81" stroke-width="1.4" /><rect x="154.87" y="233.77" width="6" height="41.43" rx="1.5" fill="#0ecb81" /><line x1="168.61" y1="214.47" x2="168.61" y2="245.61" stroke="#f6465d" stroke-width="1.4" /><rect x="165.61" y="233.77" width="6" height="3.99" rx="1.5" fill="#f6465d" /><line x1="179.34" y1="187.06" x2="179.34" y2="241.10" stroke="#0ecb81" stroke-width="1.4" /><rect x="176.34" y="189.50" width="6" height="48.00" rx="1.5" fill="#0ecb81" /><line x1="190.08" y1="173.94" x2="190.08" y2="217.30" stroke="#f6465d" stroke-width="1.4" /><rect x="187.08" y="189.50" width="6" height="16.98" rx="1.5" fill="#f6465d" /><line x1="200.81" y1="173.55" x2="200.81" y2="210.86" stroke="#0ecb81" stroke-width="1.4" /><rect x="197.81" y="186.80" width="6" height="19.69" rx="1.5" fill="#0ecb81" /><line x1="211.54" y1="169.69" x2="211.54" y2="198.38" stroke="#0ecb81" stroke-width="1.4" /><rect x="208.54" y="183.59" width="6" height="3.22" rx="1.5" fill="#0ecb81" /><line x1="222.28" y1="179.08" x2="222.28" y2="214.85" stroke="#f6465d" stroke-width="1.4" /><rect x="219.28" y="183.84" width="6" height="20.33" rx="1.5" fill="#f6465d" /><line x1="233.01" y1="191.56" x2="233.01" y2="210.86" stroke="#0ecb81" stroke-width="1.4" /><rect x="230.01" y="201.99" width="6" height="2.57" rx="1.5" fill="#0ecb81" /><line x1="243.75" y1="166.73" x2="243.75" y2="201.86" stroke="#0ecb81" stroke-width="1.4" /><rect x="240.75" y="181.91" width="6" height="19.94" rx="1.5" fill="#0ecb81" /><line x1="254.48" y1="122.21" x2="254.48" y2="186.16" stroke="#0ecb81" stroke-width="1.4" /><rect x="251.48" y="130.96" width="6" height="51.08" rx="1.5" fill="#0ecb81" /><line x1="265.22" y1="96.99" x2="265.22" y2="168.66" stroke="#0ecb81" stroke-width="1.4" /><rect x="262.22" y="113.59" width="6" height="17.37" rx="1.5" fill="#0ecb81" /><line x1="275.95" y1="98.79" x2="275.95" y2="150.52" stroke="#f6465d" stroke-width="1.4" /><rect x="272.95" y="113.07" width="6" height="22.90" rx="1.5" fill="#f6465d" /><line x1="286.68" y1="110.63" x2="286.68" y2="151.93" stroke="#0ecb81" stroke-width="1.4" /><rect x="283.68" y="121.05" width="6" height="14.93" rx="1.5" fill="#0ecb81" /><line x1="297.42" y1="93.77" x2="297.42" y2="127.87" stroke="#f6465d" stroke-width="1.4" /><rect x="294.42" y="120.79" width="6" height="3.47" rx="1.5" fill="#f6465d" /><line x1="308.15" y1="118.86" x2="308.15" y2="142.80" stroke="#0ecb81" stroke-width="1.4" /><rect x="305.15" y="120.79" width="6" height="3.47" rx="1.5" fill="#0ecb81" /><line x1="318.89" y1="107.15" x2="318.89" y2="145.63" stroke="#0ecb81" stroke-width="1.4" /><rect x="315.89" y="120.28" width="6" height="2.00" rx="1.5" fill="#0ecb81" /><line x1="329.62" y1="120.28" x2="329.62" y2="146.01" stroke="#f6465d" stroke-width="1.4" /><rect x="326.62" y="120.28" width="6" height="8.62" rx="1.5" fill="#f6465d" /><line x1="340.35" y1="96.99" x2="340.35" y2="141.51" stroke="#f6465d" stroke-width="1.4" /><rect x="337.35" y="128.90" width="6" height="10.04" rx="1.5" fill="#f6465d" /><line x1="351.09" y1="112.94" x2="351.09" y2="140.74" stroke="#0ecb81" stroke-width="1.4" /><rect x="348.09" y="120.92" width="6" height="18.01" rx="1.5" fill="#0ecb81" /><line x1="361.82" y1="90.04" x2="361.82" y2="131.73" stroke="#0ecb81" stroke-width="1.4" /><rect x="358.82" y="98.53" width="6" height="22.52" rx="1.5" fill="#0ecb81" /><line x1="372.56" y1="58.00" x2="372.56" y2="102.91" stroke="#0ecb81" stroke-width="1.4" /><rect x="369.56" y="80.65" width="6" height="17.76" rx="1.5" fill="#0ecb81" /><line x1="383.29" y1="61.99" x2="383.29" y2="115.52" stroke="#f6465d" stroke-width="1.4" /><rect x="380.29" y="80.65" width="6" height="3.73" rx="1.5" fill="#f6465d" /><line x1="394.03" y1="69.71" x2="394.03" y2="112.56" stroke="#f6465d" stroke-width="1.4" /><rect x="391.03" y="84.38" width="6" height="23.68" rx="1.5" fill="#f6465d" /><line x1="404.76" y1="107.15" x2="404.76" y2="176.38" stroke="#f6465d" stroke-width="1.4" /><rect x="401.76" y="108.05" width="6" height="65.24" rx="1.5" fill="#f6465d" /><line x1="415.49" y1="172.01" x2="415.49" y2="207.00" stroke="#f6465d" stroke-width="1.4" /><rect x="412.49" y="173.29" width="6" height="11.84" rx="1.5" fill="#f6465d" /><line x1="426.23" y1="180.63" x2="426.23" y2="211.25" stroke="#f6465d" stroke-width="1.4" /><rect x="423.23" y="184.87" width="6" height="24.96" rx="1.5" fill="#f6465d" /><line x1="436.96" y1="200.70" x2="436.96" y2="226.31" stroke="#f6465d" stroke-width="1.4" /><rect x="433.96" y="209.71" width="6" height="12.35" rx="1.5" fill="#f6465d" /><line x1="447.70" y1="217.56" x2="447.70" y2="242.39" stroke="#f6465d" stroke-width="1.4" /><rect x="444.70" y="222.06" width="6" height="2.00" rx="1.5" fill="#f6465d" /><line x1="458.43" y1="209.19" x2="458.43" y2="246.12" stroke="#0ecb81" stroke-width="1.4" /><rect x="455.43" y="220.26" width="6" height="2.19" rx="1.5" fill="#0ecb81" /><line x1="469.16" y1="210.86" x2="469.16" y2="232.48" stroke="#0ecb81" stroke-width="1.4" /><rect x="466.16" y="220.26" width="6" height="2.00" rx="1.5" fill="#0ecb81" /><line x1="479.90" y1="215.88" x2="479.90" y2="250.37" stroke="#f6465d" stroke-width="1.4" /><rect x="476.90" y="220.52" width="6" height="22.39" rx="1.5" fill="#f6465d" /><line x1="490.63" y1="236.08" x2="490.63" y2="255.26" stroke="#f6465d" stroke-width="1.4" /><rect x="487.63" y="244.06" width="6" height="9.91" rx="1.5" fill="#f6465d" /><line x1="501.37" y1="228.11" x2="501.37" y2="256.80" stroke="#0ecb81" stroke-width="1.4" /><rect x="498.37" y="252.43" width="6" height="2.00" rx="1.5" fill="#0ecb81" /><line x1="512.10" y1="235.06" x2="512.10" y2="259.76" stroke="#f6465d" stroke-width="1.4" /><rect x="509.10" y="252.30" width="6" height="5.92" rx="1.5" fill="#f6465d" /><line x1="522.84" y1="241.88" x2="522.84" y2="258.60" stroke="#0ecb81" stroke-width="1.4" /><rect x="519.84" y="246.89" width="6" height="11.07" rx="1.5" fill="#0ecb81" /><line x1="533.57" y1="244.45" x2="533.57" y2="268.51" stroke="#f6465d" stroke-width="1.4" /><rect x="530.57" y="246.51" width="6" height="21.36" rx="1.5" fill="#f6465d" /><line x1="544.30" y1="264.91" x2="544.30" y2="276.75" stroke="#0ecb81" stroke-width="1.4" /><rect x="541.30" y="267.35" width="6" height="2.00" rx="1.5" fill="#0ecb81" /><line x1="555.04" y1="264.52" x2="555.04" y2="283.44" stroke="#f6465d" stroke-width="1.4" /><rect x="552.04" y="267.35" width="6" height="14.41" rx="1.5" fill="#f6465d" /><line x1="565.77" y1="278.42" x2="565.77" y2="300.94" stroke="#f6465d" stroke-width="1.4" /><rect x="562.77" y="281.76" width="6" height="13.38" rx="1.5" fill="#f6465d" /><line x1="576.51" y1="286.27" x2="576.51" y2="301.07" stroke="#f6465d" stroke-width="1.4" /><rect x="573.51" y="294.76" width="6" height="6.05" rx="1.5" fill="#f6465d" /><line x1="587.24" y1="294.25" x2="587.24" y2="320.11" stroke="#f6465d" stroke-width="1.4" /><rect x="584.24" y="300.81" width="6" height="12.35" rx="1.5" fill="#f6465d" /><line x1="597.97" y1="275.33" x2="597.97" y2="314.06" stroke="#0ecb81" stroke-width="1.4" /><rect x="594.97" y="279.96" width="6" height="33.33" rx="1.5" fill="#0ecb81" /><line x1="608.71" y1="261.56" x2="608.71" y2="291.93" stroke="#0ecb81" stroke-width="1.4" /><rect x="605.71" y="276.87" width="6" height="3.09" rx="1.5" fill="#0ecb81" /><line x1="619.44" y1="268.38" x2="619.44" y2="295.66" stroke="#f6465d" stroke-width="1.4" /><rect x="616.44" y="277.39" width="6" height="17.37" rx="1.5" fill="#f6465d" /><line x1="630.18" y1="284.72" x2="630.18" y2="303.51" stroke="#f6465d" stroke-width="1.4" /><rect x="627.18" y="293.99" width="6" height="7.59" rx="1.5" fill="#f6465d" /><line x1="640.91" y1="301.07" x2="640.91" y2="317.02" stroke="#f6465d" stroke-width="1.4" /><rect x="637.91" y="301.45" width="6" height="14.54" rx="1.5" fill="#f6465d" /><line x1="651.65" y1="283.18" x2="651.65" y2="317.02" stroke="#0ecb81" stroke-width="1.4" /><rect x="648.65" y="314.83" width="6" height="2.00" rx="1.5" fill="#0ecb81" /><line x1="662.38" y1="292.57" x2="662.38" y2="314.83" stroke="#0ecb81" stroke-width="1.4" /><rect x="659.38" y="307.50" width="6" height="7.33" rx="1.5" fill="#0ecb81" /><line x1="673.11" y1="306.21" x2="673.11" y2="335.55" stroke="#f6465d" stroke-width="1.4" /><rect x="670.11" y="307.76" width="6" height="22.65" rx="1.5" fill="#f6465d" /><line x1="683.85" y1="304.28" x2="683.85" y2="339.92" stroke="#0ecb81" stroke-width="1.4" /><rect x="680.85" y="324.10" width="6" height="5.92" rx="1.5" fill="#0ecb81" /><line x1="694.58" y1="321.40" x2="694.58" y2="329.12" stroke="#0ecb81" stroke-width="1.4" /><rect x="691.58" y="324.10" width="6" height="2.00" rx="1.5" fill="#0ecb81" /><line x1="705.32" y1="314.19" x2="705.32" y2="324.87" stroke="#0ecb81" stroke-width="1.4" /><rect x="702.32" y="317.54" width="6" height="6.18" rx="1.5" fill="#0ecb81" /><line x1="716.05" y1="316.63" x2="716.05" y2="338.77" stroke="#f6465d" stroke-width="1.4" /><rect x="713.05" y="317.54" width="6" height="9.26" rx="1.5" fill="#f6465d" /><line x1="726.78" y1="314.96" x2="726.78" y2="335.29" stroke="#0ecb81" stroke-width="1.4" /><rect x="723.78" y="317.28" width="6" height="9.91" rx="1.5" fill="#0ecb81" /><line x1="737.52" y1="308.53" x2="737.52" y2="329.89" stroke="#f6465d" stroke-width="1.4" /><rect x="734.52" y="317.28" width="6" height="11.84" rx="1.5" fill="#f6465d" /><line x1="748.25" y1="322.30" x2="748.25" y2="341.08" stroke="#f6465d" stroke-width="1.4" /><rect x="745.25" y="329.12" width="6" height="10.17" rx="1.5" fill="#f6465d" /><line x1="758.99" y1="338.51" x2="758.99" y2="357.55" stroke="#f6465d" stroke-width="1.4" /><rect x="755.99" y="339.28" width="6" height="2.00" rx="1.5" fill="#f6465d" /><line x1="769.72" y1="340.95" x2="769.72" y2="351.89" stroke="#f6465d" stroke-width="1.4" /><rect x="766.72" y="341.08" width="6" height="2.00" rx="1.5" fill="#f6465d" /><line x1="780.46" y1="325.38" x2="780.46" y2="348.03" stroke="#0ecb81" stroke-width="1.4" /><rect x="777.46" y="336.97" width="6" height="5.66" rx="1.5" fill="#0ecb81" /><line x1="791.19" y1="337.09" x2="791.19" y2="354.08" stroke="#f6465d" stroke-width="1.4" /><rect x="788.19" y="337.09" width="6" height="16.73" rx="1.5" fill="#f6465d" /><line x1="801.92" y1="349.06" x2="801.92" y2="364.63" stroke="#0ecb81" stroke-width="1.4" /><rect x="798.92" y="350.73" width="6" height="2.96" rx="1.5" fill="#0ecb81" /><line x1="812.66" y1="344.30" x2="812.66" y2="362.31" stroke="#f6465d" stroke-width="1.4" /><rect x="809.66" y="351.51" width="6" height="9.26" rx="1.5" fill="#f6465d" /><line x1="823.39" y1="358.20" x2="823.39" y2="374.80" stroke="#f6465d" stroke-width="1.4" /><rect x="820.39" y="360.77" width="6" height="13.12" rx="1.5" fill="#f6465d" /><line x1="834.13" y1="365.27" x2="834.13" y2="377.88" stroke="#0ecb81" stroke-width="1.4" /><rect x="831.13" y="370.81" width="6" height="2.96" rx="1.5" fill="#0ecb81" /><line x1="844.86" y1="369.52" x2="844.86" y2="389.21" stroke="#f6465d" stroke-width="1.4" /><rect x="841.86" y="370.94" width="6" height="6.95" rx="1.5" fill="#f6465d" /><line x1="855.59" y1="367.20" x2="855.59" y2="379.56" stroke="#0ecb81" stroke-width="1.4" /><rect x="852.59" y="370.42" width="6" height="7.72" rx="1.5" fill="#0ecb81" /><line x1="866.33" y1="367.59" x2="866.33" y2="382.00" stroke="#f6465d" stroke-width="1.4" /><rect x="863.33" y="370.81" width="6" height="8.62" rx="1.5" fill="#f6465d" /><line x1="877.06" y1="377.11" x2="877.06" y2="404.00" stroke="#f6465d" stroke-width="1.4" /><rect x="874.06" y="379.43" width="6" height="22.26" rx="1.5" fill="#f6465d" /><line x1="887.80" y1="395.77" x2="887.80" y2="422.15" stroke="#f6465d" stroke-width="1.4" /><rect x="884.80" y="401.69" width="6" height="19.30" rx="1.5" fill="#f6465d" /><line x1="898.53" y1="417.39" x2="898.53" y2="445.82" stroke="#f6465d" stroke-width="1.4" /><rect x="895.53" y="420.86" width="6" height="19.30" rx="1.5" fill="#f6465d" /><line x1="909.27" y1="435.66" x2="909.27" y2="452.00" stroke="#f6465d" stroke-width="1.4" /><rect x="906.27" y="440.29" width="6" height="7.21" rx="1.5" fill="#f6465d" /><line x1="920.00" y1="440.68" x2="920.00" y2="447.63" stroke="#0ecb81" stroke-width="1.4" /><rect x="917.00" y="446.98" width="6" height="2.00" rx="1.5" fill="#0ecb81" />
  <polyline points="587.24,320.11 608.71,261.56 683.85,339.92 737.52,308.53 758.99,357.55" fill="none" stroke="#2fc273" stroke-width="4" stroke-linecap="round" stroke-linejoin="round" />
  <circle cx="587.24" cy="320.11" r="5.5" fill="#2fc273" fill-opacity="0.15" stroke="#2fc273" stroke-width="2" /><text x="587.24" y="308.11" fill="#f3f4f6" font-size="15" font-weight="700" text-anchor="middle">X</text><circle cx="608.71" cy="261.56" r="5.5" fill="#2fc273" fill-opacity="0.15" stroke="#2fc273" stroke-width="2" /><text x="608.71" y="249.56" fill="#f3f4f6" font-size="15" font-weight="700" text-anchor="middle">A</text><circle cx="683.85" cy="339.92" r="5.5" fill="#2fc273" fill-opacity="0.15" stroke="#2fc273" stroke-width="2" /><text x="683.85" y="327.92" fill="#f3f4f6" font-size="15" font-weight="700" text-anchor="middle">B</text><circle cx="737.52" cy="308.53" r="5.5" fill="#2fc273" fill-opacity="0.15" stroke="#2fc273" stroke-width="2" /><text x="737.52" y="296.53" fill="#f3f4f6" font-size="15" font-weight="700" text-anchor="middle">C</text><circle cx="758.99" cy="357.55" r="5.5" fill="#2fc273" fill-opacity="0.15" stroke="#2fc273" stroke-width="2" /><text x="758.99" y="345.55" fill="#f3f4f6" font-size="15" font-weight="700" text-anchor="middle">D</text>
  <text x="56" y="492" fill="#8ba0b5" font-size="18">실시간 터치 · TP1 0.14628 · TP2 0.14717 · SL 0.14423</text>
</svg>
