<svg xmlns="http://www.w3.org/2000/svg" width="960" height="540" viewBox="0 0 960 540">
  <rect width="960" height="540" rx="24" fill="#0b1220" />
  <rect x="28" y="28" width="904" height="484" rx="22" fill="#111827" stroke="#1f2937" />
  <text x="56" y="74" fill="#f3f4f6" font-size="34" font-weight="700">KOMAUSDT · AB=CD</text>
  <text x="904" y="74" fill="#8ba0b5" font-size="20" text-anchor="end">Bullish (매수) · Score 83.7</text>
  <line x1="72" y1="58" x2="920" y2="58" stroke="#223045" stroke-width="1" stroke-dasharray="4 8" /><line x1="72" y1="156" x2="920" y2="156" stroke="#223045" stroke-width="1" stroke-dasharray="4 8" /><line x1="72" y1="255" x2="920" y2="255" stroke="#223045" stroke-width="1" stroke-dasharray="4 8" /><line x1="72" y1="353" x2="920" y2="353" stroke="#223045" stroke-width="1" stroke-dasharray="4 8" /><line x1="72" y1="452" x2="920" y2="452" stroke="#223045" stroke-width="1" stroke-dasharray="4 8" />
  <rect x="591.44" y="449.81" width="84" height="1.48" fill="#fbbf24" fill-opacity="0.12" stroke="#fbbf24" stroke-width="1.5" stroke-dasharray="6 6" />
  <line x1="72.00" y1="448.90" x2="72.00" y2="449.90" stroke="#0ecb81" stroke-width="1.4" /><rect x="69.00" y="449.05" width="6" height="2.00" rx="1.5" fill="#0ecb81" /><line x1="82.73" y1="448.95" x2="82.73" y2="450.43" stroke="#f6465d" stroke-width="1.4" /><rect x="79.73" y="449.14" width="6" height="2.00" rx="1.5" fill="#f6465d" /><line x1="93.47" y1="448.52" x2="93.47" y2="450.05" stroke="#0ecb81" stroke-width="1.4" /><rect x="90.47" y="449.48" width="6" height="2.00" rx="1.5" fill="#0ecb81" /><line x1="104.20" y1="449.05" x2="104.20" y2="451.48" stroke="#f6465d" stroke-width="1.4" /><rect x="101.20" y="449.38" width="6" height="2.00" rx="1.5" fill="#f6465d" /><line x1="114.94" y1="449.76" x2="114.94" y2="450.90" stroke="#0ecb81" stroke-width="1.4" /><rect x="111.94" y="449.76" width="6" height="2.00" rx="1.5" fill="#0ecb81" /><line x1="125.67" y1="448.47" x2="125.67" y2="450.00" stroke="#0ecb81" stroke-width="1.4" /><rect x="122.67" y="449.09" width="6" height="2.00" rx="1.5" fill="#0ecb81" /><line x1="136.41" y1="448.28" x2="136.41" y2="449.95" stroke="#0ecb81" stroke-width="1.4" /><rect x="133.41" y="449.05" width="6" height="2.00" rx="1.5" fill="#0ecb81" /><line x1="147.14" y1="446.71" x2="147.14" y2="449.05" stroke="#0ecb81" stroke-width="1.4" /><rect x="144.14" y="446.71" width="6" height="2.33" rx="1.5" fill="#0ecb81" /><line x1="157.87" y1="446.19" x2="157.87" y2="447.86" stroke="#f6465d" stroke-width="1.4" /><rect x="154.87" y="446.19" width="6" height="2.00" rx="1.5" fill="#f6465d" /><line x1="168.61" y1="447.09" x2="168.61" y2="448.43" stroke="#f6465d" stroke-width="1.4" /><rect x="165.61" y="447.24" width="6" height="2.00" rx="1.5" fill="#f6465d" /><line x1="179.34" y1="446.86" x2="179.34" y2="448.52" stroke="#0ecb81" stroke-width="1.4" /><rect x="176.34" y="448.05" width="6" height="2.00" rx="1.5" fill="#0ecb81" /><line x1="190.08" y1="445.00" x2="190.08" y2="448.33" stroke="#0ecb81" stroke-width="1.4" /><rect x="187.08" y="445.76" width="6" height="2.57" rx="1.5" fill="#0ecb81" /><line x1="200.81" y1="445.43" x2="200.81" y2="447.76" stroke="#f6465d" stroke-width="1.4" /><rect x="197.81" y="445.85" width="6" height="2.00" rx="1.5" fill="#f6465d" /><line x1="211.54" y1="446.57" x2="211.54" y2="447.14" stroke="#f6465d" stroke-width="1.4" /><rect x="208.54" y="446.86" width="6" height="2.00" rx="1.5" fill="#f6465d" /><line x1="222.28" y1="444.66" x2="222.28" y2="447.71" stroke="#0ecb81" stroke-width="1.4" /><rect x="219.28" y="445.00" width="6" height="2.14" rx="1.5" fill="#0ecb81" /><line x1="233.01" y1="443.71" x2="233.01" y2="445.90" stroke="#0ecb81" stroke-width="1.4" /><rect x="230.01" y="444.38" width="6" height="2.00" rx="1.5" fill="#0ecb81" /><line x1="243.75" y1="442.52" x2="243.75" y2="445.62" stroke="#0ecb81" stroke-width="1.4" /><rect x="240.75" y="443.38" width="6" height="2.00" rx="1.5" fill="#0ecb81" /><line x1="254.48" y1="443.62" x2="254.48" y2="446.71" stroke="#f6465d" stroke-width="1.4" /><rect x="251.48" y="443.62" width="6" height="2.00" rx="1.5" fill="#f6465d" /><line x1="265.22" y1="443.81" x2="265.22" y2="446.19" stroke="#f6465d" stroke-width="1.4" /><rect x="262.22" y="445.24" width="6" height="2.00" rx="1.5" fill="#f6465d" /><line x1="275.95" y1="444.28" x2="275.95" y2="447.38" stroke="#0ecb81" stroke-width="1.4" /><rect x="272.95" y="444.43" width="6" height="2.00" rx="1.5" fill="#0ecb81" /><line x1="286.68" y1="442.71" x2="286.68" y2="444.71" stroke="#0ecb81" stroke-width="1.4" /><rect x="283.68" y="443.47" width="6" height="2.00" rx="1.5" fill="#0ecb81" /><line x1="297.42" y1="442.23" x2="297.42" y2="444.43" stroke="#0ecb81" stroke-width="1.4" /><rect x="294.42" y="443.33" width="6" height="2.00" rx="1.5" fill="#0ecb81" /><line x1="308.15" y1="442.71" x2="308.15" y2="444.09" stroke="#0ecb81" stroke-width="1.4" /><rect x="305.15" y="443.33" width="6" height="2.00" rx="1.5" fill="#0ecb81" /><line x1="318.89" y1="442.71" x2="318.89" y2="444.33" stroke="#0ecb81" stroke-width="1.4" /><rect x="315.89" y="443.28" width="6" height="2.00" rx="1.5" fill="#0ecb81" /><line x1="329.62" y1="441.09" x2="329.62" y2="443.62" stroke="#0ecb81" stroke-width="1.4" /><rect x="326.62" y="441.81" width="6" height="2.00" rx="1.5" fill="#0ecb81" /><line x1="340.35" y1="440.52" x2="340.35" y2="442.23" stroke="#0ecb81" stroke-width="1.4" /><rect x="337.35" y="441.00" width="6" height="2.00" rx="1.5" fill="#0ecb81" /><line x1="351.09" y1="440.42" x2="351.09" y2="441.66" stroke="#f6465d" stroke-width="1.4" /><rect x="348.09" y="441.47" width="6" height="2.00" rx="1.5" fill="#f6465d" /><line x1="361.82" y1="441.42" x2="361.82" y2="444.95" stroke="#f6465d" stroke-width="1.4" /><rect x="358.82" y="441.52" width="6" height="2.00" rx="1.5" fill="#f6465d" /><line x1="372.56" y1="441.90" x2="372.56" y2="443.47" stroke="#0ecb81" stroke-width="1.4" /><rect x="369.56" y="442.28" width="6" height="2.00" rx="1.5" fill="#0ecb81" /><line x1="383.29" y1="441.57" x2="383.29" y2="443.81" stroke="#f6465d" stroke-width="1.4" /><rect x="380.29" y="442.23" width="6" height="2.00" rx="1.5" fill="#f6465d" /><line x1="394.03" y1="443.00" x2="394.03" y2="444.52" stroke="#f6465d" stroke-width="1.4" /><rect x="391.03" y="443.52" width="6" height="2.00" rx="1.5" fill="#f6465d" /><line x1="404.76" y1="443.57" x2="404.76" y2="445.24" stroke="#0ecb81" stroke-width="1.4" /><rect x="401.76" y="444.24" width="6" height="2.00" rx="1.5" fill="#0ecb81" /><line x1="415.49" y1="444.00" x2="415.49" y2="444.71" stroke="#0ecb81" stroke-width="1.4" /><rect x="412.49" y="444.38" width="6" height="2.00" rx="1.5" fill="#0ecb81" /><line x1="426.23" y1="444.19" x2="426.23" y2="445.19" stroke="#f6465d" stroke-width="1.4" /><rect x="423.23" y="444.52" width="6" height="2.00" rx="1.5" fill="#f6465d" /><line x1="436.96" y1="444.57" x2="436.96" y2="447.33" stroke="#f6465d" stroke-width="1.4" /><rect x="433.96" y="445.00" width="6" height="2.00" rx="1.5" fill="#f6465d" /><line x1="447.70" y1="445.24" x2="447.70" y2="447.28" stroke="#f6465d" stroke-width="1.4" /><rect x="444.70" y="445.71" width="6" height="2.00" rx="1.5" fill="#f6465d" /><line x1="458.43" y1="443.81" x2="458.43" y2="446.33" stroke="#0ecb81" stroke-width="1.4" /><rect x="455.43" y="444.24" width="6" height="2.00" rx="1.5" fill="#0ecb81" /><line x1="469.16" y1="443.95" x2="469.16" y2="445.43" stroke="#f6465d" stroke-width="1.4" /><rect x="466.16" y="444.19" width="6" height="2.00" rx="1.5" fill="#f6465d" /><line x1="479.90" y1="444.57" x2="479.90" y2="445.52" stroke="#f6465d" stroke-width="1.4" /><rect x="476.90" y="444.71" width="6" height="2.00" rx="1.5" fill="#f6465d" /><line x1="490.63" y1="445.00" x2="490.63" y2="445.76" stroke="#0ecb81" stroke-width="1.4" /><rect x="487.63" y="445.09" width="6" height="2.00" rx="1.5" fill="#0ecb81" /><line x1="501.37" y1="444.62" x2="501.37" y2="446.38" stroke="#f6465d" stroke-width="1.4" /><rect x="498.37" y="444.95" width="6" height="2.00" rx="1.5" fill="#f6465d" /><line x1="512.10" y1="446.19" x2="512.10" y2="447.52" stroke="#f6465d" stroke-width="1.4" /><rect x="509.10" y="446.33" width="6" height="2.00" rx="1.5" fill="#f6465d" /><line x1="522.84" y1="446.76" x2="522.84" y2="447.43" stroke="#0ecb81" stroke-width="1.4" /><rect x="519.84" y="447.00" width="6" height="2.00" rx="1.5" fill="#0ecb81" /><line x1="533.57" y1="445.09" x2="533.57" y2="447.24" stroke="#0ecb81" stroke-width="1.4" /><rect x="530.57" y="446.47" width="6" height="2.00" rx="1.5" fill="#0ecb81" /><line x1="544.30" y1="445.95" x2="544.30" y2="446.76" stroke="#f6465d" stroke-width="1.4" /><rect x="541.30" y="445.95" width="6" height="2.00" rx="1.5" fill="#f6465d" /><line x1="555.04" y1="446.47" x2="555.04" y2="447.33" stroke="#f6465d" stroke-width="1.4" /><rect x="552.04" y="446.76" width="6" height="2.00" rx="1.5" fill="#f6465d" /><line x1="565.77" y1="446.09" x2="565.77" y2="447.24" stroke="#0ecb81" stroke-width="1.4" /><rect x="562.77" y="446.33" width="6" height="2.00" rx="1.5" fill="#0ecb81" /><line x1="576.51" y1="446.19" x2="576.51" y2="448.05" stroke="#f6465d" stroke-width="1.4" /><rect x="573.51" y="446.38" width="6" height="2.00" rx="1.5" fill="#f6465d" /><line x1="587.24" y1="447.47" x2="587.24" y2="448.76" stroke="#f6465d" stroke-width="1.4" /><rect x="584.24" y="447.95" width="6" height="2.00" rx="1.5" fill="#f6465d" /><line x1="597.97" y1="448.28" x2="597.97" y2="449.33" stroke="#f6465d" stroke-width="1.4" /><rect x="594.97" y="448.28" width="6" height="2.00" rx="1.5" fill="#f6465d" /><line x1="608.71" y1="447.43" x2="608.71" y2="449.48" stroke="#0ecb81" stroke-width="1.4" /><rect x="605.71" y="448.14" width="6" height="2.00" rx="1.5" fill="#0ecb81" /><line x1="619.44" y1="447.86" x2="619.44" y2="452.00" stroke="#f6465d" stroke-width="1.4" /><rect x="616.44" y="447.86" width="6" height="2.81" rx="1.5" fill="#f6465d" /><line x1="630.18" y1="435.76" x2="630.18" y2="450.62" stroke="#0ecb81" stroke-width="1.4" /><rect x="627.18" y="437.66" width="6" height="12.96" rx="1.5" fill="#0ecb81" /><line x1="640.91" y1="410.79" x2="640.91" y2="440.23" stroke="#0ecb81" stroke-width="1.4" /><rect x="637.91" y="414.41" width="6" height="22.82" rx="1.5" fill="#0ecb81" /><line x1="651.65" y1="409.41" x2="651.65" y2="418.80" stroke="#0ecb81" stroke-width="1.4" /><rect x="648.65" y="414.75" width="6" height="2.00" rx="1.5" fill="#0ecb81" /><line x1="662.38" y1="410.46" x2="662.38" y2="419.18" stroke="#f6465d" stroke-width="1.4" /><rect x="659.38" y="414.41" width="6" height="2.00" rx="1.5" fill="#f6465d" /><line x1="673.11" y1="409.98" x2="673.11" y2="418.13" stroke="#0ecb81" stroke-width="1.4" /><rect x="670.11" y="411.70" width="6" height="4.67" rx="1.5" fill="#0ecb81" /><line x1="683.85" y1="399.65" x2="683.85" y2="416.70" stroke="#0ecb81" stroke-width="1.4" /><rect x="680.85" y="400.51" width="6" height="11.19" rx="1.5" fill="#0ecb81" /><line x1="694.58" y1="329.91" x2="694.58" y2="404.08" stroke="#0ecb81" stroke-width="1.4" /><rect x="691.58" y="341.34" width="6" height="59.16" rx="1.5" fill="#0ecb81" /><line x1="705.32" y1="303.61" x2="705.32" y2="353.01" stroke="#0ecb81" stroke-width="1.4" /><rect x="702.32" y="323.48" width="6" height="18.29" rx="1.5" fill="#0ecb81" /><line x1="716.05" y1="262.84" x2="716.05" y2="326.57" stroke="#0ecb81" stroke-width="1.4" /><rect x="713.05" y="273.70" width="6" height="49.78" rx="1.5" fill="#0ecb81" /><line x1="726.78" y1="217.39" x2="726.78" y2="303.90" stroke="#0ecb81" stroke-width="1.4" /><rect x="723.78" y="232.59" width="6" height="40.25" rx="1.5" fill="#0ecb81" /><line x1="737.52" y1="205.72" x2="737.52" y2="255.12" stroke="#0ecb81" stroke-width="1.4" /><rect x="734.52" y="223.82" width="6" height="9.05" rx="1.5" fill="#0ecb81" /><line x1="748.25" y1="201.39" x2="748.25" y2="247.59" stroke="#f6465d" stroke-width="1.4" /><rect x="745.25" y="223.30" width="6" height="12.62" rx="1.5" fill="#f6465d" /><line x1="758.99" y1="181.85" x2="758.99" y2="245.97" stroke="#0ecb81" stroke-width="1.4" /><rect x="755.99" y="190.10" width="6" height="45.97" rx="1.5" fill="#0ecb81" /><line x1="769.72" y1="158.51" x2="769.72" y2="199.62" stroke="#0ecb81" stroke-width="1.4" /><rect x="766.72" y="169.75" width="6" height="20.29" rx="1.5" fill="#0ecb81" /><line x1="780.46" y1="119.97" x2="780.46" y2="289.23" stroke="#0ecb81" stroke-width="1.4" /><rect x="777.46" y="143.36" width="6" height="26.49" rx="1.5" fill="#0ecb81" /><line x1="791.19" y1="69.15" x2="791.19" y2="184.43" stroke="#f6465d" stroke-width="1.4" /><rect x="788.19" y="144.17" width="6" height="7.67" rx="1.5" fill="#f6465d" /><line x1="801.92" y1="101.73" x2="801.92" y2="157.46" stroke="#0ecb81" stroke-width="1.4" /><rect x="798.92" y="105.26" width="6" height="47.35" rx="1.5" fill="#0ecb81" /><line x1="812.66" y1="98.73" x2="812.66" y2="137.55" stroke="#f6465d" stroke-width="1.4" /><rect x="809.66" y="105.26" width="6" height="15.67" rx="1.5" fill="#f6465d" /><line x1="823.39" y1="115.16" x2="823.39" y2="215.20" stroke="#f6465d" stroke-width="1.4" /><rect x="820.39" y="120.98" width="6" height="63.50" rx="1.5" fill="#f6465d" /><line x1="834.13" y1="156.61" x2="834.13" y2="219.44" stroke="#0ecb81" stroke-width="1.4" /><rect x="831.13" y="169.18" width="6" height="15.29" rx="1.5" fill="#0ecb81" /><line x1="844.86" y1="138.22" x2="844.86" y2="190.00" stroke="#f6465d" stroke-width="1.4" /><rect x="841.86" y="169.09" width="6" height="18.10" rx="1.5" fill="#f6465d" /><line x1="855.59" y1="153.56" x2="855.59" y2="188.62" stroke="#0ecb81" stroke-width="1.4" /><rect x="852.59" y="159.99" width="6" height="27.20" rx="1.5" fill="#0ecb81" /><line x1="866.33" y1="153.56" x2="866.33" y2="175.85" stroke="#f6465d" stroke-width="1.4" /><rect x="863.33" y="160.04" width="6" height="10.86" rx="1.5" fill="#f6465d" /><line x1="877.06" y1="58.00" x2="877.06" y2="213.58" stroke="#0ecb81" stroke-width="1.4" /><rect x="874.06" y="150.94" width="6" height="19.29" rx="1.5" fill="#0ecb81" /><line x1="887.80" y1="125.45" x2="887.80" y2="181.71" stroke="#0ecb81" stroke-width="1.4" /><rect x="884.80" y="134.65" width="6" height="16.01" rx="1.5" fill="#0ecb81" /><line x1="898.53" y1="125.74" x2="898.53" y2="175.42" stroke="#f6465d" stroke-width="1.4" /><rect x="895.53" y="135.46" width="6" height="15.77" rx="1.5" fill="#f6465d" /><line x1="909.27" y1="130.41" x2="909.27" y2="165.66" stroke="#0ecb81" stroke-width="1.4" /><rect x="906.27" y="140.55" width="6" height="10.58" rx="1.5" fill="#0ecb81" /><line x1="920.00" y1="136.31" x2="920.00" y2="142.13" stroke="#0ecb81" stroke-width="1.4" /><rect x="917.00" y="136.65" width="6" height="4.29" rx="1.5" fill="#0ecb81" />
  <polyline points="275.95,447.38 351.09,440.42 436.96,447.33 458.43,443.81 619.44,452.00" fill="none" stroke="#2fc273" stroke-width="4" stroke-linecap="round" stroke-linejoin="round" />
  <circle cx="275.95" cy="447.38" r="5.5" fill="#2fc273" fill-opacity="0.15" stroke="#2fc273" stroke-width="2" /><text x="275.95" y="435.38" fill="#f3f4f6" font-size="15" font-weight="700" text-anchor="middle">X</text><circle cx="351.09" cy="440.42" r="5.5" fill="#2fc273" fill-opacity="0.15" stroke="#2fc273" stroke-width="2" /><text x="351.09" y="428.42" fill="#f3f4f6" font-size="15" font-weight="700" text-anchor="middle">A</text><circle cx="436.96" cy="447.33" r="5.5" fill="#2fc273" fill-opacity="0.15" stroke="#2fc273" stroke-width="2" /><text x="436.96" y="435.33" fill="#f3f4f6" font-size="15" font-weight="700" text-anchor="middle">B</text><circle cx="458.43" cy="443.81" r="5.5" fill="#2fc273" fill-opacity="0.15" stroke="#2fc273" stroke-width="2" /><text x="458.43" y="431.81" fill="#f3f4f6" font-size="15" font-weight="700" text-anchor="middle">C</text><circle cx="619.44" cy="452.00" r="5.5" fill="#2fc273" fill-opacity="0.15" stroke="#2fc273" stroke-width="2" /><text x="619.44" y="440.00" fill="#f3f4f6" font-size="15" font-weight="700" text-anchor="middle">D</text>
  <text x="56" y="492" fill="#8ba0b5" font-size="18">일반 완성 · TP1 0.006295 · TP2 0.006335 · SL 0.00621</text>
</svg>
