<svg xmlns="http://www.w3.org/2000/svg" width="960" height="540" viewBox="0 0 960 540">
  <rect width="960" height="540" rx="24" fill="#0b1220" />
  <rect x="28" y="28" width="904" height="484" rx="22" fill="#111827" stroke="#1f2937" />
  <text x="56" y="74" fill="#f3f4f6" font-size="34" font-weight="700">KOMAUSDT · AB=CD</text>
  <text x="904" y="74" fill="#8ba0b5" font-size="20" text-anchor="end">Bearish (매도) · Score 89.6</text>
  <line x1="72" y1="58" x2="920" y2="58" stroke="#223045" stroke-width="1" stroke-dasharray="4 8" /><line x1="72" y1="156" x2="920" y2="156" stroke="#223045" stroke-width="1" stroke-dasharray="4 8" /><line x1="72" y1="255" x2="920" y2="255" stroke="#223045" stroke-width="1" stroke-dasharray="4 8" /><line x1="72" y1="353" x2="920" y2="353" stroke="#223045" stroke-width="1" stroke-dasharray="4 8" /><line x1="72" y1="452" x2="920" y2="452" stroke="#223045" stroke-width="1" stroke-dasharray="4 8" />
  <rect x="612.91" y="279.14" width="84" height="20.87" fill="#fbbf24" fill-opacity="0.12" stroke="#fbbf24" stroke-width="1.5" stroke-dasharray="6 6" />
  <line x1="72.00" y1="386.03" x2="72.00" y2="452.00" stroke="#0ecb81" stroke-width="1.4" /><rect x="69.00" y="412.56" width="6" height="24.43" rx="1.5" fill="#0ecb81" /><line x1="82.73" y1="331.57" x2="82.73" y2="416.69" stroke="#0ecb81" stroke-width="1.4" /><rect x="79.73" y="346.07" width="6" height="66.48" rx="1.5" fill="#0ecb81" /><line x1="93.47" y1="270.87" x2="93.47" y2="386.41" stroke="#0ecb81" stroke-width="1.4" /><rect x="90.47" y="291.17" width="6" height="53.76" rx="1.5" fill="#0ecb81" /><line x1="104.20" y1="255.29" x2="104.20" y2="321.26" stroke="#0ecb81" stroke-width="1.4" /><rect x="101.20" y="279.46" width="6" height="12.09" rx="1.5" fill="#0ecb81" /><line x1="114.94" y1="249.50" x2="114.94" y2="311.21" stroke="#f6465d" stroke-width="1.4" /><rect x="111.94" y="278.76" width="6" height="16.86" rx="1.5" fill="#f6465d" /><line x1="125.67" y1="223.41" x2="125.67" y2="309.05" stroke="#0ecb81" stroke-width="1.4" /><rect x="122.67" y="234.42" width="6" height="61.39" rx="1.5" fill="#0ecb81" /><line x1="136.41" y1="192.24" x2="136.41" y2="247.14" stroke="#0ecb81" stroke-width="1.4" /><rect x="133.41" y="207.25" width="6" height="27.10" rx="1.5" fill="#0ecb81" /><line x1="147.14" y1="140.77" x2="147.14" y2="366.81" stroke="#0ecb81" stroke-width="1.4" /><rect x="144.14" y="172.01" width="6" height="35.37" rx="1.5" fill="#0ecb81" /><line x1="157.87" y1="72.89" x2="157.87" y2="226.85" stroke="#f6465d" stroke-width="1.4" /><rect x="154.87" y="173.09" width="6" height="10.24" rx="1.5" fill="#f6465d" /><line x1="168.61" y1="116.40" x2="168.61" y2="190.84" stroke="#0ecb81" stroke-width="1.4" /><rect x="165.61" y="121.11" width="6" height="63.24" rx="1.5" fill="#0ecb81" /><line x1="179.34" y1="112.40" x2="179.34" y2="164.25" stroke="#f6465d" stroke-width="1.4" /><rect x="176.34" y="121.11" width="6" height="20.93" rx="1.5" fill="#f6465d" /><line x1="190.08" y1="134.34" x2="190.08" y2="267.95" stroke="#f6465d" stroke-width="1.4" /><rect x="187.08" y="142.11" width="6" height="84.81" rx="1.5" fill="#f6465d" /><line x1="200.81" y1="189.69" x2="200.81" y2="273.61" stroke="#0ecb81" stroke-width="1.4" /><rect x="197.81" y="206.49" width="6" height="20.42" rx="1.5" fill="#0ecb81" /><line x1="211.54" y1="165.14" x2="211.54" y2="234.29" stroke="#f6465d" stroke-width="1.4" /><rect x="208.54" y="206.36" width="6" height="24.18" rx="1.5" fill="#f6465d" /><line x1="222.28" y1="185.62" x2="222.28" y2="232.45" stroke="#0ecb81" stroke-width="1.4" /><rect x="219.28" y="194.21" width="6" height="36.33" rx="1.5" fill="#0ecb81" /><line x1="233.01" y1="185.62" x2="233.01" y2="215.40" stroke="#f6465d" stroke-width="1.4" /><rect x="230.01" y="194.27" width="6" height="14.51" rx="1.5" fill="#f6465d" /><line x1="243.75" y1="58.00" x2="243.75" y2="265.78" stroke="#0ecb81" stroke-width="1.4" /><rect x="240.75" y="182.12" width="6" height="25.77" rx="1.5" fill="#0ecb81" /><line x1="254.48" y1="148.09" x2="254.48" y2="223.22" stroke="#0ecb81" stroke-width="1.4" /><rect x="251.48" y="160.36" width="6" height="21.38" rx="1.5" fill="#0ecb81" /><line x1="265.22" y1="148.47" x2="265.22" y2="214.82" stroke="#f6465d" stroke-width="1.4" /><rect x="262.22" y="161.45" width="6" height="21.06" rx="1.5" fill="#f6465d" /><line x1="275.95" y1="154.70" x2="275.95" y2="201.78" stroke="#0ecb81" stroke-width="1.4" /><rect x="272.95" y="168.25" width="6" height="14.12" rx="1.5" fill="#0ecb81" /><line x1="286.68" y1="128.75" x2="286.68" y2="214.44" stroke="#f6465d" stroke-width="1.4" /><rect x="283.68" y="168.76" width="6" height="32.96" rx="1.5" fill="#f6465d" /><line x1="297.42" y1="153.75" x2="297.42" y2="256.11" stroke="#f6465d" stroke-width="1.4" /><rect x="294.42" y="201.78" width="6" height="52.74" rx="1.5" fill="#f6465d" /><line x1="308.15" y1="252.74" x2="308.15" y2="364.71" stroke="#f6465d" stroke-width="1.4" /><rect x="305.15" y="253.76" width="6" height="74.31" rx="1.5" fill="#f6465d" /><line x1="318.89" y1="313.05" x2="318.89" y2="380.94" stroke="#f6465d" stroke-width="1.4" /><rect x="315.89" y="328.07" width="6" height="7.89" rx="1.5" fill="#f6465d" /><line x1="329.62" y1="325.20" x2="329.62" y2="356.82" stroke="#f6465d" stroke-width="1.4" /><rect x="326.62" y="335.45" width="6" height="12.66" rx="1.5" fill="#f6465d" /><line x1="340.35" y1="280.73" x2="340.35" y2="362.36" stroke="#0ecb81" stroke-width="1.4" /><rect x="337.35" y="305.74" width="6" height="42.31" rx="1.5" fill="#0ecb81" /><line x1="351.09" y1="304.02" x2="351.09" y2="357.14" stroke="#f6465d" stroke-width="1.4" /><rect x="348.09" y="306.31" width="6" height="44.15" rx="1.5" fill="#f6465d" /><line x1="361.82" y1="341.17" x2="361.82" y2="371.84" stroke="#f6465d" stroke-width="1.4" /><rect x="358.82" y="350.46" width="6" height="4.58" rx="1.5" fill="#f6465d" /><line x1="372.56" y1="334.49" x2="372.56" y2="396.21" stroke="#f6465d" stroke-width="1.4" /><rect x="369.56" y="354.66" width="6" height="2.00" rx="1.5" fill="#f6465d" /><line x1="383.29" y1="338.76" x2="383.29" y2="362.87" stroke="#0ecb81" stroke-width="1.4" /><rect x="380.29" y="345.69" width="6" height="9.03" rx="1.5" fill="#0ecb81" /><line x1="394.03" y1="338.69" x2="394.03" y2="361.60" stroke="#f6465d" stroke-width="1.4" /><rect x="391.03" y="346.14" width="6" height="5.28" rx="1.5" fill="#f6465d" /><line x1="404.76" y1="343.91" x2="404.76" y2="356.95" stroke="#0ecb81" stroke-width="1.4" /><rect x="401.76" y="345.44" width="6" height="6.36" rx="1.5" fill="#0ecb81" /><line x1="415.49" y1="344.67" x2="415.49" y2="384.12" stroke="#f6465d" stroke-width="1.4" /><rect x="412.49" y="345.37" width="6" height="30.35" rx="1.5" fill="#f6465d" /><line x1="426.23" y1="357.27" x2="426.23" y2="385.33" stroke="#0ecb81" stroke-width="1.4" /><rect x="423.23" y="366.18" width="6" height="9.54" rx="1.5" fill="#0ecb81" /><line x1="436.96" y1="364.97" x2="436.96" y2="391.50" stroke="#f6465d" stroke-width="1.4" /><rect x="433.96" y="365.60" width="6" height="15.91" rx="1.5" fill="#f6465d" /><line x1="447.70" y1="372.98" x2="447.70" y2="387.68" stroke="#f6465d" stroke-width="1.4" /><rect x="444.70" y="381.83" width="6" height="4.58" rx="1.5" fill="#f6465d" /><line x1="458.43" y1="384.50" x2="458.43" y2="407.91" stroke="#f6465d" stroke-width="1.4" /><rect x="455.43" y="386.60" width="6" height="2.00" rx="1.5" fill="#f6465d" /><line x1="469.16" y1="372.92" x2="469.16" y2="392.71" stroke="#f6465d" stroke-width="1.4" /><rect x="466.16" y="386.41" width="6" height="2.00" rx="1.5" fill="#f6465d" /><line x1="479.90" y1="378.65" x2="479.90" y2="400.34" stroke="#0ecb81" stroke-width="1.4" /><rect x="476.90" y="387.74" width="6" height="2.00" rx="1.5" fill="#0ecb81" /><line x1="490.63" y1="353.96" x2="490.63" y2="391.82" stroke="#0ecb81" stroke-width="1.4" /><rect x="487.63" y="372.16" width="6" height="15.91" rx="1.5" fill="#0ecb81" /><line x1="501.37" y1="355.62" x2="501.37" y2="378.58" stroke="#0ecb81" stroke-width="1.4" /><rect x="498.37" y="361.34" width="6" height="11.32" rx="1.5" fill="#0ecb81" /><line x1="512.10" y1="327.18" x2="512.10" y2="366.81" stroke="#0ecb81" stroke-width="1.4" /><rect x="509.10" y="357.46" width="6" height="3.37" rx="1.5" fill="#0ecb81" /><line x1="522.84" y1="352.94" x2="522.84" y2="386.92" stroke="#f6465d" stroke-width="1.4" /><rect x="519.84" y="357.65" width="6" height="20.80" rx="1.5" fill="#f6465d" /><line x1="533.57" y1="371.65" x2="533.57" y2="395.12" stroke="#0ecb81" stroke-width="1.4" /><rect x="530.57" y="376.23" width="6" height="2.00" rx="1.5" fill="#0ecb81" /><line x1="544.30" y1="360.13" x2="544.30" y2="381.06" stroke="#0ecb81" stroke-width="1.4" /><rect x="541.30" y="374.26" width="6" height="2.00" rx="1.5" fill="#0ecb81" /><line x1="555.04" y1="354.47" x2="555.04" y2="380.36" stroke="#0ecb81" stroke-width="1.4" /><rect x="552.04" y="364.97" width="6" height="8.84" rx="1.5" fill="#0ecb81" /><line x1="565.77" y1="340.03" x2="565.77" y2="365.67" stroke="#0ecb81" stroke-width="1.4" /><rect x="562.77" y="357.78" width="6" height="7.13" rx="1.5" fill="#0ecb81" /><line x1="576.51" y1="331.63" x2="576.51" y2="365.16" stroke="#0ecb81" stroke-width="1.4" /><rect x="573.51" y="333.67" width="6" height="23.86" rx="1.5" fill="#0ecb81" /><line x1="587.24" y1="322.66" x2="587.24" y2="358.16" stroke="#f6465d" stroke-width="1.4" /><rect x="584.24" y="333.98" width="6" height="22.71" rx="1.5" fill="#f6465d" /><line x1="597.97" y1="346.01" x2="597.97" y2="361.91" stroke="#f6465d" stroke-width="1.4" /><rect x="594.97" y="356.63" width="6" height="2.00" rx="1.5" fill="#f6465d" /><line x1="608.71" y1="355.30" x2="608.71" y2="372.47" stroke="#f6465d" stroke-width="1.4" /><rect x="605.71" y="358.54" width="6" height="2.10" rx="1.5" fill="#f6465d" /><line x1="619.44" y1="346.33" x2="619.44" y2="363.76" stroke="#0ecb81" stroke-width="1.4" /><rect x="616.44" y="351.73" width="6" height="9.29" rx="1.5" fill="#0ecb81" /><line x1="630.18" y1="332.33" x2="630.18" y2="353.13" stroke="#0ecb81" stroke-width="1.4" /><rect x="627.18" y="334.62" width="6" height="17.11" rx="1.5" fill="#0ecb81" /><line x1="640.91" y1="294.67" x2="640.91" y2="334.24" stroke="#0ecb81" stroke-width="1.4" /><rect x="637.91" y="317.51" width="6" height="16.73" rx="1.5" fill="#0ecb81" /><line x1="651.65" y1="304.59" x2="651.65" y2="341.17" stroke="#f6465d" stroke-width="1.4" /><rect x="648.65" y="317.51" width="6" height="9.86" rx="1.5" fill="#f6465d" /><line x1="662.38" y1="327.37" x2="662.38" y2="360.64" stroke="#f6465d" stroke-width="1.4" /><rect x="659.38" y="327.37" width="6" height="19.53" rx="1.5" fill="#f6465d" /><line x1="673.11" y1="336.40" x2="673.11" y2="363.38" stroke="#0ecb81" stroke-width="1.4" /><rect x="670.11" y="345.44" width="6" height="2.00" rx="1.5" fill="#0ecb81" /><line x1="683.85" y1="287.03" x2="683.85" y2="346.96" stroke="#0ecb81" stroke-width="1.4" /><rect x="680.85" y="317.06" width="6" height="28.88" rx="1.5" fill="#0ecb81" /><line x1="694.58" y1="312.48" x2="694.58" y2="327.69" stroke="#f6465d" stroke-width="1.4" /><rect x="691.58" y="317.57" width="6" height="5.98" rx="1.5" fill="#f6465d" /><line x1="705.32" y1="312.93" x2="705.32" y2="334.24" stroke="#f6465d" stroke-width="1.4" /><rect x="702.32" y="322.91" width="6" height="7.00" rx="1.5" fill="#f6465d" /><line x1="716.05" y1="314.83" x2="716.05" y2="333.98" stroke="#0ecb81" stroke-width="1.4" /><rect x="713.05" y="319.61" width="6" height="10.18" rx="1.5" fill="#0ecb81" /><line x1="726.78" y1="318.27" x2="726.78" y2="349.38" stroke="#f6465d" stroke-width="1.4" /><rect x="723.78" y="319.61" width="6" height="4.96" rx="1.5" fill="#f6465d" /><line x1="737.52" y1="309.55" x2="737.52" y2="344.23" stroke="#f6465d" stroke-width="1.4" /><rect x="734.52" y="324.76" width="6" height="14.63" rx="1.5" fill="#f6465d" /><line x1="748.25" y1="329.02" x2="748.25" y2="356.25" stroke="#0ecb81" stroke-width="1.4" /><rect x="745.25" y="336.85" width="6" height="2.35" rx="1.5" fill="#0ecb81" /><line x1="758.99" y1="304.21" x2="758.99" y2="339.52" stroke="#0ecb81" stroke-width="1.4" /><rect x="755.99" y="309.68" width="6" height="27.23" rx="1.5" fill="#0ecb81" /><line x1="769.72" y1="281.37" x2="769.72" y2="324.95" stroke="#f6465d" stroke-width="1.4" /><rect x="766.72" y="309.62" width="6" height="4.20" rx="1.5" fill="#f6465d" /><line x1="780.46" y1="239.32" x2="780.46" y2="313.82" stroke="#0ecb81" stroke-width="1.4" /><rect x="777.46" y="264.70" width="6" height="49.11" rx="1.5" fill="#0ecb81" /><line x1="791.19" y1="252.49" x2="791.19" y2="276.73" stroke="#0ecb81" stroke-width="1.4" /><rect x="788.19" y="258.79" width="6" height="6.55" rx="1.5" fill="#0ecb81" /><line x1="801.92" y1="239.32" x2="801.92" y2="293.08" stroke="#0ecb81" stroke-width="1.4" /><rect x="798.92" y="254.90" width="6" height="3.37" rx="1.5" fill="#0ecb81" /><line x1="812.66" y1="232.89" x2="812.66" y2="278.57" stroke="#f6465d" stroke-width="1.4" /><rect x="809.66" y="254.90" width="6" height="11.96" rx="1.5" fill="#f6465d" /><line x1="823.39" y1="233.15" x2="823.39" y2="291.17" stroke="#0ecb81" stroke-width="1.4" /><rect x="820.39" y="235.12" width="6" height="31.81" rx="1.5" fill="#0ecb81" /><line x1="834.13" y1="224.11" x2="834.13" y2="272.72" stroke="#f6465d" stroke-width="1.4" /><rect x="831.13" y="234.93" width="6" height="29.65" rx="1.5" fill="#f6465d" /><line x1="844.86" y1="260.19" x2="844.86" y2="357.02" stroke="#f6465d" stroke-width="1.4" /><rect x="841.86" y="264.96" width="6" height="34.80" rx="1.5" fill="#f6465d" /><line x1="855.59" y1="298.99" x2="855.59" y2="332.78" stroke="#f6465d" stroke-width="1.4" /><rect x="852.59" y="299.31" width="6" height="31.43" rx="1.5" fill="#f6465d" /><line x1="866.33" y1="323.11" x2="866.33" y2="348.87" stroke="#f6465d" stroke-width="1.4" /><rect x="863.33" y="330.74" width="6" height="6.93" rx="1.5" fill="#f6465d" /><line x1="877.06" y1="319.67" x2="877.06" y2="346.07" stroke="#0ecb81" stroke-width="1.4" /><rect x="874.06" y="324.25" width="6" height="13.55" rx="1.5" fill="#0ecb81" /><line x1="887.80" y1="320.18" x2="887.80" y2="343.02" stroke="#f6465d" stroke-width="1.4" /><rect x="884.80" y="324.44" width="6" height="2.00" rx="1.5" fill="#f6465d" /><line x1="898.53" y1="320.75" x2="898.53" y2="352.24" stroke="#f6465d" stroke-width="1.4" /><rect x="895.53" y="325.84" width="6" height="2.00" rx="1.5" fill="#f6465d" /><line x1="909.27" y1="307.90" x2="909.27" y2="343.15" stroke="#0ecb81" stroke-width="1.4" /><rect x="906.27" y="318.27" width="6" height="8.08" rx="1.5" fill="#0ecb81" /><line x1="920.00" y1="300.46" x2="920.00" y2="324.31" stroke="#f6465d" stroke-width="1.4" /><rect x="917.00" y="318.21" width="6" height="2.00" rx="1.5" fill="#f6465d" />
  <polyline points="512.10,327.18 533.57,395.12 587.24,322.66 608.71,372.47 640.91,294.67" fill="none" stroke="#2fc273" stroke-width="4" stroke-linecap="round" stroke-linejoin="round" />
  <circle cx="512.10" cy="327.18" r="5.5" fill="#2fc273" fill-opacity="0.15" stroke="#2fc273" stroke-width="2" /><text x="512.10" y="315.18" fill="#f3f4f6" font-size="15" font-weight="700" text-anchor="middle">X</text><circle cx="533.57" cy="395.12" r="5.5" fill="#2fc273" fill-opacity="0.15" stroke="#2fc273" stroke-width="2" /><text x="533.57" y="383.12" fill="#f3f4f6" font-size="15" font-weight="700" text-anchor="middle">A</text><circle cx="587.24" cy="322.66" r="5.5" fill="#2fc273" fill-opacity="0.15" stroke="#2fc273" stroke-width="2" /><text x="587.24" y="310.66" fill="#f3f4f6" font-size="15" font-weight="700" text-anchor="middle">B</text><circle cx="608.71" cy="372.47" r="5.5" fill="#2fc273" fill-opacity="0.15" stroke="#2fc273" stroke-width="2" /><text x="608.71" y="360.47" fill="#f3f4f6" font-size="15" font-weight="700" text-anchor="middle">C</text><circle cx="640.91" cy="294.67" r="5.5" fill="#2fc273" fill-opacity="0.15" stroke="#2fc273" stroke-width="2" /><text x="640.91" y="282.67" fill="#f3f4f6" font-size="15" font-weight="700" text-anchor="middle">D</text>
  <text x="56" y="492" fill="#8ba0b5" font-size="18">일반 완성 · TP1 0.010313 · TP2 0.010024 · SL 0.010919</text>
</svg>
