<svg xmlns="http://www.w3.org/2000/svg" width="960" height="540" viewBox="0 0 960 540">
  <rect width="960" height="540" rx="24" fill="#0b1220" />
  <rect x="28" y="28" width="904" height="484" rx="22" fill="#111827" stroke="#1f2937" />
  <text x="56" y="74" fill="#f3f4f6" font-size="34" font-weight="700">LITUSDT · AB=CD</text>
  <text x="904" y="74" fill="#8ba0b5" font-size="20" text-anchor="end">Bearish (매도) · Score 86.2</text>
  <line x1="72" y1="58" x2="920" y2="58" stroke="#223045" stroke-width="1" stroke-dasharray="4 8" /><line x1="72" y1="156" x2="920" y2="156" stroke="#223045" stroke-width="1" stroke-dasharray="4 8" /><line x1="72" y1="255" x2="920" y2="255" stroke="#223045" stroke-width="1" stroke-dasharray="4 8" /><line x1="72" y1="353" x2="920" y2="353" stroke="#223045" stroke-width="1" stroke-dasharray="4 8" /><line x1="72" y1="452" x2="920" y2="452" stroke="#223045" stroke-width="1" stroke-dasharray="4 8" />
  <rect x="763.19" y="74.24" width="84" height="41.88" fill="#fbbf24" fill-opacity="0.12" stroke="#fbbf24" stroke-width="1.5" stroke-dasharray="6 6" />
  <line x1="72.00" y1="322.09" x2="72.00" y2="350.30" stroke="#f6465d" stroke-width="1.4" /><rect x="69.00" y="330.81" width="6" height="17.95" rx="1.5" fill="#f6465d" /><line x1="82.73" y1="340.72" x2="82.73" y2="365.85" stroke="#f6465d" stroke-width="1.4" /><rect x="79.73" y="349.44" width="6" height="7.52" rx="1.5" fill="#f6465d" /><line x1="93.47" y1="356.45" x2="93.47" y2="389.61" stroke="#f6465d" stroke-width="1.4" /><rect x="90.47" y="356.96" width="6" height="21.88" rx="1.5" fill="#f6465d" /><line x1="104.20" y1="375.59" x2="104.20" y2="403.63" stroke="#f6465d" stroke-width="1.4" /><rect x="101.20" y="380.04" width="6" height="11.28" rx="1.5" fill="#f6465d" /><line x1="114.94" y1="386.87" x2="114.94" y2="407.90" stroke="#0ecb81" stroke-width="1.4" /><rect x="111.94" y="387.90" width="6" height="3.42" rx="1.5" fill="#0ecb81" /><line x1="125.67" y1="372.69" x2="125.67" y2="400.89" stroke="#0ecb81" stroke-width="1.4" /><rect x="122.67" y="382.43" width="6" height="5.47" rx="1.5" fill="#0ecb81" /><line x1="136.41" y1="375.93" x2="136.41" y2="403.97" stroke="#f6465d" stroke-width="1.4" /><rect x="133.41" y="382.60" width="6" height="17.09" rx="1.5" fill="#f6465d" /><line x1="147.14" y1="374.74" x2="147.14" y2="400.55" stroke="#0ecb81" stroke-width="1.4" /><rect x="144.14" y="387.73" width="6" height="12.14" rx="1.5" fill="#0ecb81" /><line x1="157.87" y1="360.55" x2="157.87" y2="392.86" stroke="#0ecb81" stroke-width="1.4" /><rect x="154.87" y="373.71" width="6" height="14.19" rx="1.5" fill="#0ecb81" /><line x1="168.61" y1="366.70" x2="168.61" y2="400.04" stroke="#f6465d" stroke-width="1.4" /><rect x="165.61" y="373.20" width="6" height="4.96" rx="1.5" fill="#f6465d" /><line x1="179.34" y1="340.04" x2="179.34" y2="381.58" stroke="#0ecb81" stroke-width="1.4" /><rect x="176.34" y="357.82" width="6" height="20.51" rx="1.5" fill="#0ecb81" /><line x1="190.08" y1="355.59" x2="190.08" y2="369.95" stroke="#f6465d" stroke-width="1.4" /><rect x="187.08" y="356.62" width="6" height="13.33" rx="1.5" fill="#f6465d" /><line x1="200.81" y1="352.86" x2="200.81" y2="378.33" stroke="#f6465d" stroke-width="1.4" /><rect x="197.81" y="369.95" width="6" height="7.69" rx="1.5" fill="#f6465d" /><line x1="211.54" y1="371.83" x2="211.54" y2="416.96" stroke="#f6465d" stroke-width="1.4" /><rect x="208.54" y="377.64" width="6" height="39.31" rx="1.5" fill="#f6465d" /><line x1="222.28" y1="388.93" x2="222.28" y2="416.96" stroke="#0ecb81" stroke-width="1.4" /><rect x="219.28" y="407.39" width="6" height="9.40" rx="1.5" fill="#0ecb81" /><line x1="233.01" y1="403.28" x2="233.01" y2="412.00" stroke="#f6465d" stroke-width="1.4" /><rect x="230.01" y="407.39" width="6" height="2.05" rx="1.5" fill="#f6465d" /><line x1="243.75" y1="406.36" x2="243.75" y2="433.88" stroke="#f6465d" stroke-width="1.4" /><rect x="240.75" y="408.24" width="6" height="12.14" rx="1.5" fill="#f6465d" /><line x1="254.48" y1="417.81" x2="254.48" y2="442.77" stroke="#f6465d" stroke-width="1.4" /><rect x="251.48" y="420.21" width="6" height="20.34" rx="1.5" fill="#f6465d" /><line x1="265.22" y1="409.27" x2="265.22" y2="452.00" stroke="#0ecb81" stroke-width="1.4" /><rect x="262.22" y="425.51" width="6" height="15.38" rx="1.5" fill="#0ecb81" /><line x1="275.95" y1="399.69" x2="275.95" y2="425.85" stroke="#0ecb81" stroke-width="1.4" /><rect x="272.95" y="404.82" width="6" height="20.68" rx="1.5" fill="#0ecb81" /><line x1="286.68" y1="400.55" x2="286.68" y2="426.19" stroke="#f6465d" stroke-width="1.4" /><rect x="283.68" y="404.99" width="6" height="3.76" rx="1.5" fill="#f6465d" /><line x1="297.42" y1="407.56" x2="297.42" y2="421.57" stroke="#f6465d" stroke-width="1.4" /><rect x="294.42" y="408.75" width="6" height="8.72" rx="1.5" fill="#f6465d" /><line x1="308.15" y1="400.38" x2="308.15" y2="430.12" stroke="#0ecb81" stroke-width="1.4" /><rect x="305.15" y="414.22" width="6" height="3.42" rx="1.5" fill="#0ecb81" /><line x1="318.89" y1="381.92" x2="318.89" y2="417.47" stroke="#0ecb81" stroke-width="1.4" /><rect x="315.89" y="397.13" width="6" height="16.75" rx="1.5" fill="#0ecb81" /><line x1="329.62" y1="371.32" x2="329.62" y2="408.07" stroke="#0ecb81" stroke-width="1.4" /><rect x="326.62" y="394.91" width="6" height="2.22" rx="1.5" fill="#0ecb81" /><line x1="340.35" y1="384.82" x2="340.35" y2="411.15" stroke="#f6465d" stroke-width="1.4" /><rect x="337.35" y="394.74" width="6" height="2.39" rx="1.5" fill="#f6465d" /><line x1="351.09" y1="376.45" x2="351.09" y2="410.29" stroke="#0ecb81" stroke-width="1.4" /><rect x="348.09" y="377.13" width="6" height="20.00" rx="1.5" fill="#0ecb81" /><line x1="361.82" y1="367.56" x2="361.82" y2="392.52" stroke="#f6465d" stroke-width="1.4" /><rect x="358.82" y="377.13" width="6" height="2.56" rx="1.5" fill="#f6465d" /><line x1="372.56" y1="366.53" x2="372.56" y2="387.39" stroke="#f6465d" stroke-width="1.4" /><rect x="369.56" y="379.52" width="6" height="3.93" rx="1.5" fill="#f6465d" /><line x1="383.29" y1="370.98" x2="383.29" y2="389.27" stroke="#0ecb81" stroke-width="1.4" /><rect x="380.29" y="374.23" width="6" height="7.86" rx="1.5" fill="#0ecb81" /><line x1="394.03" y1="354.57" x2="394.03" y2="394.57" stroke="#f6465d" stroke-width="1.4" /><rect x="391.03" y="374.05" width="6" height="15.04" rx="1.5" fill="#f6465d" /><line x1="404.76" y1="377.47" x2="404.76" y2="400.04" stroke="#0ecb81" stroke-width="1.4" /><rect x="401.76" y="377.82" width="6" height="11.97" rx="1.5" fill="#0ecb81" /><line x1="415.49" y1="316.45" x2="415.49" y2="377.99" stroke="#0ecb81" stroke-width="1.4" /><rect x="412.49" y="322.95" width="6" height="55.04" rx="1.5" fill="#0ecb81" /><line x1="426.23" y1="307.56" x2="426.23" y2="331.83" stroke="#0ecb81" stroke-width="1.4" /><rect x="423.23" y="316.79" width="6" height="6.15" rx="1.5" fill="#0ecb81" /><line x1="436.96" y1="301.58" x2="436.96" y2="330.12" stroke="#f6465d" stroke-width="1.4" /><rect x="433.96" y="315.94" width="6" height="6.67" rx="1.5" fill="#f6465d" /><line x1="447.70" y1="296.45" x2="447.70" y2="323.29" stroke="#0ecb81" stroke-width="1.4" /><rect x="444.70" y="298.33" width="6" height="24.27" rx="1.5" fill="#0ecb81" /><line x1="458.43" y1="297.48" x2="458.43" y2="323.63" stroke="#f6465d" stroke-width="1.4" /><rect x="455.43" y="298.33" width="6" height="13.16" rx="1.5" fill="#f6465d" /><line x1="469.16" y1="311.49" x2="469.16" y2="361.23" stroke="#f6465d" stroke-width="1.4" /><rect x="466.16" y="311.49" width="6" height="23.25" rx="1.5" fill="#f6465d" /><line x1="479.90" y1="292.18" x2="479.90" y2="338.84" stroke="#0ecb81" stroke-width="1.4" /><rect x="476.90" y="323.46" width="6" height="11.79" rx="1.5" fill="#0ecb81" /><line x1="490.63" y1="300.38" x2="490.63" y2="323.46" stroke="#0ecb81" stroke-width="1.4" /><rect x="487.63" y="310.81" width="6" height="12.65" rx="1.5" fill="#0ecb81" /><line x1="501.37" y1="295.94" x2="501.37" y2="317.30" stroke="#0ecb81" stroke-width="1.4" /><rect x="498.37" y="305.17" width="6" height="5.81" rx="1.5" fill="#0ecb81" /><line x1="512.10" y1="295.94" x2="512.10" y2="330.12" stroke="#f6465d" stroke-width="1.4" /><rect x="509.10" y="304.49" width="6" height="8.38" rx="1.5" fill="#f6465d" /><line x1="522.84" y1="296.11" x2="522.84" y2="315.77" stroke="#0ecb81" stroke-width="1.4" /><rect x="519.84" y="309.10" width="6" height="3.76" rx="1.5" fill="#0ecb81" /><line x1="533.57" y1="290.47" x2="533.57" y2="313.03" stroke="#0ecb81" stroke-width="1.4" /><rect x="530.57" y="304.14" width="6" height="4.79" rx="1.5" fill="#0ecb81" /><line x1="544.30" y1="285.68" x2="544.30" y2="308.59" stroke="#0ecb81" stroke-width="1.4" /><rect x="541.30" y="298.16" width="6" height="5.98" rx="1.5" fill="#0ecb81" /><line x1="555.04" y1="283.97" x2="555.04" y2="304.31" stroke="#0ecb81" stroke-width="1.4" /><rect x="552.04" y="297.65" width="6" height="2.00" rx="1.5" fill="#0ecb81" /><line x1="565.77" y1="279.70" x2="565.77" y2="300.38" stroke="#0ecb81" stroke-width="1.4" /><rect x="562.77" y="293.89" width="6" height="4.10" rx="1.5" fill="#0ecb81" /><line x1="576.51" y1="287.56" x2="576.51" y2="314.57" stroke="#0ecb81" stroke-width="1.4" /><rect x="573.51" y="289.61" width="6" height="4.44" rx="1.5" fill="#0ecb81" /><line x1="587.24" y1="263.29" x2="587.24" y2="296.96" stroke="#0ecb81" stroke-width="1.4" /><rect x="584.24" y="265.00" width="6" height="24.79" rx="1.5" fill="#0ecb81" /><line x1="597.97" y1="201.58" x2="597.97" y2="269.44" stroke="#0ecb81" stroke-width="1.4" /><rect x="594.97" y="232.35" width="6" height="32.48" rx="1.5" fill="#0ecb81" /><line x1="608.71" y1="166.20" x2="608.71" y2="233.38" stroke="#0ecb81" stroke-width="1.4" /><rect x="605.71" y="181.58" width="6" height="50.94" rx="1.5" fill="#0ecb81" /><line x1="619.44" y1="163.98" x2="619.44" y2="187.57" stroke="#0ecb81" stroke-width="1.4" /><rect x="616.44" y="173.55" width="6" height="8.20" rx="1.5" fill="#0ecb81" /><line x1="630.18" y1="171.84" x2="630.18" y2="200.39" stroke="#f6465d" stroke-width="1.4" /><rect x="627.18" y="174.23" width="6" height="8.03" rx="1.5" fill="#f6465d" /><line x1="640.91" y1="169.45" x2="640.91" y2="203.81" stroke="#f6465d" stroke-width="1.4" /><rect x="637.91" y="181.93" width="6" height="5.13" rx="1.5" fill="#f6465d" /><line x1="651.65" y1="185.86" x2="651.65" y2="212.35" stroke="#f6465d" stroke-width="1.4" /><rect x="648.65" y="187.05" width="6" height="10.26" rx="1.5" fill="#f6465d" /><line x1="662.38" y1="179.19" x2="662.38" y2="248.42" stroke="#f6465d" stroke-width="1.4" /><rect x="659.38" y="197.31" width="6" height="34.70" rx="1.5" fill="#f6465d" /><line x1="673.11" y1="225.17" x2="673.11" y2="266.71" stroke="#f6465d" stroke-width="1.4" /><rect x="670.11" y="232.01" width="6" height="28.55" rx="1.5" fill="#f6465d" /><line x1="683.85" y1="192.52" x2="683.85" y2="265.34" stroke="#0ecb81" stroke-width="1.4" /><rect x="680.85" y="213.04" width="6" height="47.35" rx="1.5" fill="#0ecb81" /><line x1="694.58" y1="196.97" x2="694.58" y2="220.73" stroke="#0ecb81" stroke-width="1.4" /><rect x="691.58" y="200.05" width="6" height="12.99" rx="1.5" fill="#0ecb81" /><line x1="705.32" y1="175.43" x2="705.32" y2="201.75" stroke="#0ecb81" stroke-width="1.4" /><rect x="702.32" y="181.93" width="6" height="18.29" rx="1.5" fill="#0ecb81" /><line x1="716.05" y1="162.27" x2="716.05" y2="200.56" stroke="#0ecb81" stroke-width="1.4" /><rect x="713.05" y="181.58" width="6" height="2.00" rx="1.5" fill="#0ecb81" /><line x1="726.78" y1="163.47" x2="726.78" y2="186.71" stroke="#0ecb81" stroke-width="1.4" /><rect x="723.78" y="176.46" width="6" height="5.30" rx="1.5" fill="#0ecb81" /><line x1="737.52" y1="155.26" x2="737.52" y2="177.82" stroke="#0ecb81" stroke-width="1.4" /><rect x="734.52" y="163.47" width="6" height="13.16" rx="1.5" fill="#0ecb81" /><line x1="748.25" y1="112.87" x2="748.25" y2="167.57" stroke="#0ecb81" stroke-width="1.4" /><rect x="745.25" y="120.22" width="6" height="43.25" rx="1.5" fill="#0ecb81" /><line x1="758.99" y1="107.23" x2="758.99" y2="125.35" stroke="#f6465d" stroke-width="1.4" /><rect x="755.99" y="120.39" width="6" height="2.05" rx="1.5" fill="#f6465d" /><line x1="769.72" y1="118.17" x2="769.72" y2="158.68" stroke="#f6465d" stroke-width="1.4" /><rect x="766.72" y="122.61" width="6" height="32.31" rx="1.5" fill="#f6465d" /><line x1="780.46" y1="114.07" x2="780.46" y2="155.26" stroke="#0ecb81" stroke-width="1.4" /><rect x="777.46" y="129.45" width="6" height="25.81" rx="1.5" fill="#0ecb81" /><line x1="791.19" y1="92.02" x2="791.19" y2="136.46" stroke="#0ecb81" stroke-width="1.4" /><rect x="788.19" y="119.19" width="6" height="10.09" rx="1.5" fill="#0ecb81" /><line x1="801.92" y1="103.30" x2="801.92" y2="148.25" stroke="#f6465d" stroke-width="1.4" /><rect x="798.92" y="118.34" width="6" height="19.83" rx="1.5" fill="#f6465d" /><line x1="812.66" y1="109.45" x2="812.66" y2="138.85" stroke="#0ecb81" stroke-width="1.4" /><rect x="809.66" y="131.50" width="6" height="6.50" rx="1.5" fill="#0ecb81" /><line x1="823.39" y1="125.01" x2="823.39" y2="157.82" stroke="#f6465d" stroke-width="1.4" /><rect x="820.39" y="131.67" width="6" height="21.20" rx="1.5" fill="#f6465d" /><line x1="834.13" y1="130.99" x2="834.13" y2="171.84" stroke="#f6465d" stroke-width="1.4" /><rect x="831.13" y="153.04" width="6" height="2.00" rx="1.5" fill="#f6465d" /><line x1="844.86" y1="152.53" x2="844.86" y2="174.75" stroke="#f6465d" stroke-width="1.4" /><rect x="841.86" y="155.09" width="6" height="10.60" rx="1.5" fill="#f6465d" /><line x1="855.59" y1="161.76" x2="855.59" y2="186.88" stroke="#f6465d" stroke-width="1.4" /><rect x="852.59" y="165.69" width="6" height="3.59" rx="1.5" fill="#f6465d" /><line x1="866.33" y1="87.91" x2="866.33" y2="170.64" stroke="#0ecb81" stroke-width="1.4" /><rect x="863.33" y="95.61" width="6" height="73.84" rx="1.5" fill="#0ecb81" /><line x1="877.06" y1="58.00" x2="877.06" y2="106.54" stroke="#0ecb81" stroke-width="1.4" /><rect x="874.06" y="85.69" width="6" height="10.09" rx="1.5" fill="#0ecb81" /><line x1="887.80" y1="85.35" x2="887.80" y2="163.81" stroke="#f6465d" stroke-width="1.4" /><rect x="884.80" y="85.35" width="6" height="64.10" rx="1.5" fill="#f6465d" /><line x1="898.53" y1="109.11" x2="898.53" y2="150.13" stroke="#0ecb81" stroke-width="1.4" /><rect x="895.53" y="118.68" width="6" height="30.77" rx="1.5" fill="#0ecb81" /><line x1="909.27" y1="90.48" x2="909.27" y2="140.90" stroke="#f6465d" stroke-width="1.4" /><rect x="906.27" y="118.68" width="6" height="2.00" rx="1.5" fill="#f6465d" /><line x1="920.00" y1="117.83" x2="920.00" y2="165.35" stroke="#f6465d" stroke-width="1.4" /><rect x="917.00" y="119.71" width="6" height="44.10" rx="1.5" fill="#f6465d" />
  <polyline points="479.90,292.18 576.51,314.57 619.44,163.98 673.11,266.71 791.19,92.02" fill="none" stroke="#2fc273" stroke-width="4" stroke-linecap="round" stroke-linejoin="round" />
  <circle cx="479.90" cy="292.18" r="5.5" fill="#2fc273" fill-opacity="0.15" stroke="#2fc273" stroke-width="2" /><text x="479.90" y="280.18" fill="#f3f4f6" font-size="15" font-weight="700" text-anchor="middle">X</text><circle cx="576.51" cy="314.57" r="5.5" fill="#2fc273" fill-opacity="0.15" stroke="#2fc273" stroke-width="2" /><text x="576.51" y="302.57" fill="#f3f4f6" font-size="15" font-weight="700" text-anchor="middle">A</text><circle cx="619.44" cy="163.98" r="5.5" fill="#2fc273" fill-opacity="0.15" stroke="#2fc273" stroke-width="2" /><text x="619.44" y="151.98" fill="#f3f4f6" font-size="15" font-weight="700" text-anchor="middle">B</text><circle cx="673.11" cy="266.71" r="5.5" fill="#2fc273" fill-opacity="0.15" stroke="#2fc273" stroke-width="2" /><text x="673.11" y="254.71" fill="#f3f4f6" font-size="15" font-weight="700" text-anchor="middle">C</text><circle cx="791.19" cy="92.02" r="5.5" fill="#2fc273" fill-opacity="0.15" stroke="#2fc273" stroke-width="2" /><text x="791.19" y="80.02" fill="#f3f4f6" font-size="15" font-weight="700" text-anchor="middle">D</text>
  <text x="56" y="492" fill="#8ba0b5" font-size="18">Complete · TP1 2.3323 · TP2 2.3081 · SL 2.373</text>
</svg>
