<svg xmlns="http://www.w3.org/2000/svg" width="960" height="540" viewBox="0 0 960 540">
  <rect width="960" height="540" rx="24" fill="#0b1220" />
  <rect x="28" y="28" width="904" height="484" rx="22" fill="#111827" stroke="#1f2937" />
  <text x="56" y="74" fill="#f3f4f6" font-size="34" font-weight="700">LTCUSDT · AB=CD</text>
  <text x="904" y="74" fill="#8ba0b5" font-size="20" text-anchor="end">Bearish (매도) · Score 87.8</text>
  <line x1="72" y1="58" x2="920" y2="58" stroke="#223045" stroke-width="1" stroke-dasharray="4 8" /><line x1="72" y1="156" x2="920" y2="156" stroke="#223045" stroke-width="1" stroke-dasharray="4 8" /><line x1="72" y1="255" x2="920" y2="255" stroke="#223045" stroke-width="1" stroke-dasharray="4 8" /><line x1="72" y1="353" x2="920" y2="353" stroke="#223045" stroke-width="1" stroke-dasharray="4 8" /><line x1="72" y1="452" x2="920" y2="452" stroke="#223045" stroke-width="1" stroke-dasharray="4 8" />
  <rect x="612.91" y="-55.65" width="84" height="59.53" fill="#fbbf24" fill-opacity="0.12" stroke="#fbbf24" stroke-width="1.5" stroke-dasharray="6 6" />
  <line x1="72.00" y1="430.35" x2="72.00" y2="452.00" stroke="#f6465d" stroke-width="1.4" /><rect x="69.00" y="432.52" width="6" height="4.33" rx="1.5" fill="#f6465d" /><line x1="82.73" y1="343.76" x2="82.73" y2="436.85" stroke="#0ecb81" stroke-width="1.4" /><rect x="79.73" y="358.91" width="6" height="77.93" rx="1.5" fill="#0ecb81" /><line x1="93.47" y1="302.63" x2="93.47" y2="369.74" stroke="#0ecb81" stroke-width="1.4" /><rect x="90.47" y="354.58" width="6" height="2.16" rx="1.5" fill="#0ecb81" /><line x1="104.20" y1="354.58" x2="104.20" y2="369.74" stroke="#f6465d" stroke-width="1.4" /><rect x="101.20" y="354.58" width="6" height="6.49" rx="1.5" fill="#f6465d" /><line x1="114.94" y1="337.26" x2="114.94" y2="363.24" stroke="#0ecb81" stroke-width="1.4" /><rect x="111.94" y="343.76" width="6" height="17.32" rx="1.5" fill="#0ecb81" /><line x1="125.67" y1="339.43" x2="125.67" y2="363.24" stroke="#f6465d" stroke-width="1.4" /><rect x="122.67" y="345.92" width="6" height="17.32" rx="1.5" fill="#f6465d" /><line x1="136.41" y1="345.92" x2="136.41" y2="369.74" stroke="#f6465d" stroke-width="1.4" /><rect x="133.41" y="363.24" width="6" height="4.33" rx="1.5" fill="#f6465d" /><line x1="147.14" y1="363.24" x2="147.14" y2="391.38" stroke="#f6465d" stroke-width="1.4" /><rect x="144.14" y="367.57" width="6" height="12.99" rx="1.5" fill="#f6465d" /><line x1="157.87" y1="352.42" x2="157.87" y2="391.38" stroke="#0ecb81" stroke-width="1.4" /><rect x="154.87" y="356.75" width="6" height="23.81" rx="1.5" fill="#0ecb81" /><line x1="168.61" y1="352.42" x2="168.61" y2="376.23" stroke="#f6465d" stroke-width="1.4" /><rect x="165.61" y="356.75" width="6" height="4.33" rx="1.5" fill="#f6465d" /><line x1="179.34" y1="335.10" x2="179.34" y2="363.24" stroke="#0ecb81" stroke-width="1.4" /><rect x="176.34" y="335.10" width="6" height="23.81" rx="1.5" fill="#0ecb81" /><line x1="190.08" y1="324.27" x2="190.08" y2="337.26" stroke="#0ecb81" stroke-width="1.4" /><rect x="187.08" y="326.44" width="6" height="6.49" rx="1.5" fill="#0ecb81" /><line x1="200.81" y1="315.62" x2="200.81" y2="335.10" stroke="#0ecb81" stroke-width="1.4" /><rect x="197.81" y="317.78" width="6" height="8.66" rx="1.5" fill="#0ecb81" /><line x1="211.54" y1="311.29" x2="211.54" y2="324.27" stroke="#f6465d" stroke-width="1.4" /><rect x="208.54" y="317.78" width="6" height="6.49" rx="1.5" fill="#f6465d" /><line x1="222.28" y1="291.80" x2="222.28" y2="324.27" stroke="#0ecb81" stroke-width="1.4" /><rect x="219.28" y="304.79" width="6" height="19.48" rx="1.5" fill="#0ecb81" /><line x1="233.01" y1="300.46" x2="233.01" y2="326.44" stroke="#f6465d" stroke-width="1.4" /><rect x="230.01" y="302.63" width="6" height="17.32" rx="1.5" fill="#f6465d" /><line x1="243.75" y1="315.62" x2="243.75" y2="328.60" stroke="#0ecb81" stroke-width="1.4" /><rect x="240.75" y="317.78" width="6" height="2.00" rx="1.5" fill="#0ecb81" /><line x1="254.48" y1="298.30" x2="254.48" y2="322.11" stroke="#0ecb81" stroke-width="1.4" /><rect x="251.48" y="313.45" width="6" height="6.49" rx="1.5" fill="#0ecb81" /><line x1="265.22" y1="313.45" x2="265.22" y2="341.59" stroke="#f6465d" stroke-width="1.4" /><rect x="262.22" y="313.45" width="6" height="6.49" rx="1.5" fill="#f6465d" /><line x1="275.95" y1="300.46" x2="275.95" y2="324.27" stroke="#0ecb81" stroke-width="1.4" /><rect x="272.95" y="302.63" width="6" height="19.48" rx="1.5" fill="#0ecb81" /><line x1="286.68" y1="285.31" x2="286.68" y2="304.79" stroke="#0ecb81" stroke-width="1.4" /><rect x="283.68" y="300.46" width="6" height="2.16" rx="1.5" fill="#0ecb81" /><line x1="297.42" y1="285.31" x2="297.42" y2="306.96" stroke="#0ecb81" stroke-width="1.4" /><rect x="294.42" y="296.13" width="6" height="6.49" rx="1.5" fill="#0ecb81" /><line x1="308.15" y1="270.15" x2="308.15" y2="302.63" stroke="#0ecb81" stroke-width="1.4" /><rect x="305.15" y="291.80" width="6" height="6.49" rx="1.5" fill="#0ecb81" /><line x1="318.89" y1="270.15" x2="318.89" y2="296.13" stroke="#0ecb81" stroke-width="1.4" /><rect x="315.89" y="270.15" width="6" height="21.65" rx="1.5" fill="#0ecb81" /><line x1="329.62" y1="257.16" x2="329.62" y2="285.31" stroke="#0ecb81" stroke-width="1.4" /><rect x="326.62" y="263.66" width="6" height="6.49" rx="1.5" fill="#0ecb81" /><line x1="340.35" y1="257.16" x2="340.35" y2="298.30" stroke="#f6465d" stroke-width="1.4" /><rect x="337.35" y="263.66" width="6" height="28.14" rx="1.5" fill="#f6465d" /><line x1="351.09" y1="287.47" x2="351.09" y2="309.12" stroke="#f6465d" stroke-width="1.4" /><rect x="348.09" y="291.80" width="6" height="8.66" rx="1.5" fill="#f6465d" /><line x1="361.82" y1="263.66" x2="361.82" y2="300.46" stroke="#0ecb81" stroke-width="1.4" /><rect x="358.82" y="287.47" width="6" height="12.99" rx="1.5" fill="#0ecb81" /><line x1="372.56" y1="257.16" x2="372.56" y2="309.12" stroke="#f6465d" stroke-width="1.4" /><rect x="369.56" y="289.64" width="6" height="4.33" rx="1.5" fill="#f6465d" /><line x1="383.29" y1="287.47" x2="383.29" y2="324.27" stroke="#f6465d" stroke-width="1.4" /><rect x="380.29" y="291.80" width="6" height="19.48" rx="1.5" fill="#f6465d" /><line x1="394.03" y1="263.66" x2="394.03" y2="317.78" stroke="#0ecb81" stroke-width="1.4" /><rect x="391.03" y="270.15" width="6" height="43.30" rx="1.5" fill="#0ecb81" /><line x1="404.76" y1="231.19" x2="404.76" y2="276.65" stroke="#0ecb81" stroke-width="1.4" /><rect x="401.76" y="239.85" width="6" height="30.31" rx="1.5" fill="#0ecb81" /><line x1="415.49" y1="216.03" x2="415.49" y2="250.67" stroke="#0ecb81" stroke-width="1.4" /><rect x="412.49" y="216.03" width="6" height="23.81" rx="1.5" fill="#0ecb81" /><line x1="426.23" y1="168.41" x2="426.23" y2="218.20" stroke="#0ecb81" stroke-width="1.4" /><rect x="423.23" y="205.21" width="6" height="12.99" rx="1.5" fill="#0ecb81" /><line x1="436.96" y1="174.90" x2="436.96" y2="209.54" stroke="#0ecb81" stroke-width="1.4" /><rect x="433.96" y="192.22" width="6" height="15.15" rx="1.5" fill="#0ecb81" /><line x1="447.70" y1="144.59" x2="447.70" y2="192.22" stroke="#0ecb81" stroke-width="1.4" /><rect x="444.70" y="168.41" width="6" height="23.81" rx="1.5" fill="#0ecb81" /><line x1="458.43" y1="86.14" x2="458.43" y2="168.41" stroke="#0ecb81" stroke-width="1.4" /><rect x="455.43" y="146.76" width="6" height="21.65" rx="1.5" fill="#0ecb81" /><line x1="469.16" y1="122.95" x2="469.16" y2="166.24" stroke="#f6465d" stroke-width="1.4" /><rect x="466.16" y="144.59" width="6" height="6.49" rx="1.5" fill="#f6465d" /><line x1="479.90" y1="135.93" x2="479.90" y2="177.07" stroke="#0ecb81" stroke-width="1.4" /><rect x="476.90" y="135.93" width="6" height="15.15" rx="1.5" fill="#0ecb81" /><line x1="490.63" y1="127.27" x2="490.63" y2="159.75" stroke="#f6465d" stroke-width="1.4" /><rect x="487.63" y="138.10" width="6" height="17.32" rx="1.5" fill="#f6465d" /><line x1="501.37" y1="148.92" x2="501.37" y2="194.38" stroke="#f6465d" stroke-width="1.4" /><rect x="498.37" y="157.58" width="6" height="36.80" rx="1.5" fill="#f6465d" /><line x1="512.10" y1="170.57" x2="512.10" y2="196.55" stroke="#0ecb81" stroke-width="1.4" /><rect x="509.10" y="172.74" width="6" height="19.48" rx="1.5" fill="#0ecb81" /><line x1="522.84" y1="157.58" x2="522.84" y2="181.40" stroke="#f6465d" stroke-width="1.4" /><rect x="519.84" y="170.57" width="6" height="6.49" rx="1.5" fill="#f6465d" /><line x1="533.57" y1="166.24" x2="533.57" y2="183.56" stroke="#f6465d" stroke-width="1.4" /><rect x="530.57" y="174.90" width="6" height="6.49" rx="1.5" fill="#f6465d" /><line x1="544.30" y1="88.31" x2="544.30" y2="183.56" stroke="#0ecb81" stroke-width="1.4" /><rect x="541.30" y="118.62" width="6" height="60.62" rx="1.5" fill="#0ecb81" /><line x1="555.04" y1="92.64" x2="555.04" y2="131.60" stroke="#f6465d" stroke-width="1.4" /><rect x="552.04" y="118.62" width="6" height="6.49" rx="1.5" fill="#f6465d" /><line x1="565.77" y1="103.46" x2="565.77" y2="131.60" stroke="#0ecb81" stroke-width="1.4" /><rect x="562.77" y="116.45" width="6" height="6.49" rx="1.5" fill="#0ecb81" /><line x1="576.51" y1="99.13" x2="576.51" y2="120.78" stroke="#f6465d" stroke-width="1.4" /><rect x="573.51" y="116.45" width="6" height="2.16" rx="1.5" fill="#f6465d" /><line x1="587.24" y1="99.13" x2="587.24" y2="118.62" stroke="#0ecb81" stroke-width="1.4" /><rect x="584.24" y="118.62" width="6" height="2.00" rx="1.5" fill="#0ecb81" /><line x1="597.97" y1="103.46" x2="597.97" y2="131.60" stroke="#0ecb81" stroke-width="1.4" /><rect x="594.97" y="114.29" width="6" height="2.16" rx="1.5" fill="#0ecb81" /><line x1="608.71" y1="112.12" x2="608.71" y2="129.44" stroke="#f6465d" stroke-width="1.4" /><rect x="605.71" y="114.29" width="6" height="8.66" rx="1.5" fill="#f6465d" /><line x1="619.44" y1="116.45" x2="619.44" y2="138.10" stroke="#f6465d" stroke-width="1.4" /><rect x="616.44" y="120.78" width="6" height="10.82" rx="1.5" fill="#f6465d" /><line x1="630.18" y1="109.96" x2="630.18" y2="135.93" stroke="#0ecb81" stroke-width="1.4" /><rect x="627.18" y="125.11" width="6" height="4.33" rx="1.5" fill="#0ecb81" /><line x1="640.91" y1="77.48" x2="640.91" y2="148.92" stroke="#f6465d" stroke-width="1.4" /><rect x="637.91" y="122.95" width="6" height="8.66" rx="1.5" fill="#f6465d" /><line x1="651.65" y1="112.12" x2="651.65" y2="138.10" stroke="#0ecb81" stroke-width="1.4" /><rect x="648.65" y="116.45" width="6" height="12.99" rx="1.5" fill="#0ecb81" /><line x1="662.38" y1="112.12" x2="662.38" y2="127.27" stroke="#f6465d" stroke-width="1.4" /><rect x="659.38" y="116.45" width="6" height="8.66" rx="1.5" fill="#f6465d" /><line x1="673.11" y1="103.46" x2="673.11" y2="125.11" stroke="#0ecb81" stroke-width="1.4" /><rect x="670.11" y="107.79" width="6" height="15.15" rx="1.5" fill="#0ecb81" /><line x1="683.85" y1="92.64" x2="683.85" y2="194.38" stroke="#f6465d" stroke-width="1.4" /><rect x="680.85" y="105.63" width="6" height="51.96" rx="1.5" fill="#f6465d" /><line x1="694.58" y1="103.46" x2="694.58" y2="177.07" stroke="#0ecb81" stroke-width="1.4" /><rect x="691.58" y="114.29" width="6" height="43.30" rx="1.5" fill="#0ecb81" /><line x1="705.32" y1="105.63" x2="705.32" y2="125.11" stroke="#f6465d" stroke-width="1.4" /><rect x="702.32" y="112.12" width="6" height="8.66" rx="1.5" fill="#f6465d" /><line x1="716.05" y1="107.79" x2="716.05" y2="140.26" stroke="#0ecb81" stroke-width="1.4" /><rect x="713.05" y="107.79" width="6" height="12.99" rx="1.5" fill="#0ecb81" /><line x1="726.78" y1="109.96" x2="726.78" y2="174.90" stroke="#f6465d" stroke-width="1.4" /><rect x="723.78" y="109.96" width="6" height="56.29" rx="1.5" fill="#f6465d" /><line x1="737.52" y1="151.09" x2="737.52" y2="170.57" stroke="#0ecb81" stroke-width="1.4" /><rect x="734.52" y="161.91" width="6" height="4.33" rx="1.5" fill="#0ecb81" /><line x1="748.25" y1="127.27" x2="748.25" y2="161.91" stroke="#0ecb81" stroke-width="1.4" /><rect x="745.25" y="148.92" width="6" height="12.99" rx="1.5" fill="#0ecb81" /><line x1="758.99" y1="146.76" x2="758.99" y2="179.23" stroke="#f6465d" stroke-width="1.4" /><rect x="755.99" y="148.92" width="6" height="21.65" rx="1.5" fill="#f6465d" /><line x1="769.72" y1="151.09" x2="769.72" y2="170.57" stroke="#0ecb81" stroke-width="1.4" /><rect x="766.72" y="166.24" width="6" height="4.33" rx="1.5" fill="#0ecb81" /><line x1="780.46" y1="153.25" x2="780.46" y2="187.89" stroke="#f6465d" stroke-width="1.4" /><rect x="777.46" y="166.24" width="6" height="12.99" rx="1.5" fill="#f6465d" /><line x1="791.19" y1="164.08" x2="791.19" y2="194.38" stroke="#0ecb81" stroke-width="1.4" /><rect x="788.19" y="179.23" width="6" height="2.16" rx="1.5" fill="#0ecb81" /><line x1="801.92" y1="101.30" x2="801.92" y2="185.73" stroke="#0ecb81" stroke-width="1.4" /><rect x="798.92" y="144.59" width="6" height="34.64" rx="1.5" fill="#0ecb81" /><line x1="812.66" y1="135.93" x2="812.66" y2="183.56" stroke="#0ecb81" stroke-width="1.4" /><rect x="809.66" y="144.59" width="6" height="2.16" rx="1.5" fill="#0ecb81" /><line x1="823.39" y1="125.11" x2="823.39" y2="153.25" stroke="#0ecb81" stroke-width="1.4" /><rect x="820.39" y="133.77" width="6" height="10.82" rx="1.5" fill="#0ecb81" /><line x1="834.13" y1="133.77" x2="834.13" y2="153.25" stroke="#f6465d" stroke-width="1.4" /><rect x="831.13" y="135.93" width="6" height="15.15" rx="1.5" fill="#f6465d" /><line x1="844.86" y1="96.97" x2="844.86" y2="153.25" stroke="#0ecb81" stroke-width="1.4" /><rect x="841.86" y="116.45" width="6" height="36.80" rx="1.5" fill="#0ecb81" /><line x1="855.59" y1="58.00" x2="855.59" y2="116.45" stroke="#0ecb81" stroke-width="1.4" /><rect x="852.59" y="96.97" width="6" height="17.32" rx="1.5" fill="#0ecb81" /><line x1="866.33" y1="81.81" x2="866.33" y2="125.11" stroke="#f6465d" stroke-width="1.4" /><rect x="863.33" y="96.97" width="6" height="6.49" rx="1.5" fill="#f6465d" /><line x1="877.06" y1="96.97" x2="877.06" y2="112.12" stroke="#f6465d" stroke-width="1.4" /><rect x="874.06" y="101.30" width="6" height="6.49" rx="1.5" fill="#f6465d" /><line x1="887.80" y1="83.98" x2="887.80" y2="107.79" stroke="#0ecb81" stroke-width="1.4" /><rect x="884.80" y="92.64" width="6" height="15.15" rx="1.5" fill="#0ecb81" /><line x1="898.53" y1="79.65" x2="898.53" y2="99.13" stroke="#f6465d" stroke-width="1.4" /><rect x="895.53" y="92.64" width="6" height="4.33" rx="1.5" fill="#f6465d" /><line x1="909.27" y1="83.98" x2="909.27" y2="99.13" stroke="#0ecb81" stroke-width="1.4" /><rect x="906.27" y="96.97" width="6" height="2.00" rx="1.5" fill="#0ecb81" /><line x1="920.00" y1="94.80" x2="920.00" y2="129.44" stroke="#f6465d" stroke-width="1.4" /><rect x="917.00" y="94.80" width="6" height="28.14" rx="1.5" fill="#f6465d" />
  <polyline points="340.35,257.16 383.29,324.27 458.43,86.14 512.10,196.55 640.91,77.48" fill="none" stroke="#2fc273" stroke-width="4" stroke-linecap="round" stroke-linejoin="round" />
  <circle cx="340.35" cy="257.16" r="5.5" fill="#2fc273" fill-opacity="0.15" stroke="#2fc273" stroke-width="2" /><text x="340.35" y="245.16" fill="#f3f4f6" font-size="15" font-weight="700" text-anchor="middle">X</text><circle cx="383.29" cy="324.27" r="5.5" fill="#2fc273" fill-opacity="0.15" stroke="#2fc273" stroke-width="2" /><text x="383.29" y="312.27" fill="#f3f4f6" font-size="15" font-weight="700" text-anchor="middle">A</text><circle cx="458.43" cy="86.14" r="5.5" fill="#2fc273" fill-opacity="0.15" stroke="#2fc273" stroke-width="2" /><text x="458.43" y="74.14" fill="#f3f4f6" font-size="15" font-weight="700" text-anchor="middle">B</text><circle cx="512.10" cy="196.55" r="5.5" fill="#2fc273" fill-opacity="0.15" stroke="#2fc273" stroke-width="2" /><text x="512.10" y="184.55" fill="#f3f4f6" font-size="15" font-weight="700" text-anchor="middle">C</text><circle cx="640.91" cy="77.48" r="5.5" fill="#2fc273" fill-opacity="0.15" stroke="#2fc273" stroke-width="2" /><text x="640.91" y="65.48" fill="#f3f4f6" font-size="15" font-weight="700" text-anchor="middle">D</text>
  <text x="56" y="492" fill="#8ba0b5" font-size="18">일반 완성 · TP1 54.29 · TP2 54.16 · SL 54.54</text>
</svg>
