<svg xmlns="http://www.w3.org/2000/svg" width="960" height="540" viewBox="0 0 960 540">
  <rect width="960" height="540" rx="24" fill="#0b1220" />
  <rect x="28" y="28" width="904" height="484" rx="22" fill="#111827" stroke="#1f2937" />
  <text x="56" y="74" fill="#f3f4f6" font-size="34" font-weight="700">MMTUSDT · AB=CD</text>
  <text x="904" y="74" fill="#8ba0b5" font-size="20" text-anchor="end">Bearish (매도) · Score 81.2</text>
  <line x1="72" y1="58" x2="920" y2="58" stroke="#223045" stroke-width="1" stroke-dasharray="4 8" /><line x1="72" y1="156" x2="920" y2="156" stroke="#223045" stroke-width="1" stroke-dasharray="4 8" /><line x1="72" y1="255" x2="920" y2="255" stroke="#223045" stroke-width="1" stroke-dasharray="4 8" /><line x1="72" y1="353" x2="920" y2="353" stroke="#223045" stroke-width="1" stroke-dasharray="4 8" /><line x1="72" y1="452" x2="920" y2="452" stroke="#223045" stroke-width="1" stroke-dasharray="4 8" />
  <rect x="398.23" y="109.74" width="84" height="95.55" fill="#fbbf24" fill-opacity="0.12" stroke="#fbbf24" stroke-width="1.5" stroke-dasharray="6 6" />
  <line x1="72.00" y1="107.71" x2="72.00" y2="199.77" stroke="#f6465d" stroke-width="1.4" /><rect x="69.00" y="146.37" width="6" height="25.78" rx="1.5" fill="#f6465d" /><line x1="82.73" y1="131.64" x2="82.73" y2="232.91" stroke="#0ecb81" stroke-width="1.4" /><rect x="79.73" y="166.63" width="6" height="5.52" rx="1.5" fill="#0ecb81" /><line x1="93.47" y1="146.37" x2="93.47" y2="197.93" stroke="#f6465d" stroke-width="1.4" /><rect x="90.47" y="166.63" width="6" height="5.52" rx="1.5" fill="#f6465d" /><line x1="104.20" y1="58.00" x2="104.20" y2="186.88" stroke="#0ecb81" stroke-width="1.4" /><rect x="101.20" y="104.03" width="6" height="69.96" rx="1.5" fill="#0ecb81" /><line x1="114.94" y1="94.82" x2="114.94" y2="218.18" stroke="#f6465d" stroke-width="1.4" /><rect x="111.94" y="102.19" width="6" height="73.64" rx="1.5" fill="#f6465d" /><line x1="125.67" y1="157.42" x2="125.67" y2="295.50" stroke="#f6465d" stroke-width="1.4" /><rect x="122.67" y="175.83" width="6" height="95.74" rx="1.5" fill="#f6465d" /><line x1="136.41" y1="232.91" x2="136.41" y2="280.78" stroke="#0ecb81" stroke-width="1.4" /><rect x="133.41" y="243.95" width="6" height="27.62" rx="1.5" fill="#0ecb81" /><line x1="147.14" y1="220.02" x2="147.14" y2="271.57" stroke="#f6465d" stroke-width="1.4" /><rect x="144.14" y="245.79" width="6" height="16.57" rx="1.5" fill="#f6465d" /><line x1="157.87" y1="243.95" x2="157.87" y2="341.53" stroke="#f6465d" stroke-width="1.4" /><rect x="154.87" y="262.36" width="6" height="36.82" rx="1.5" fill="#f6465d" /><line x1="168.61" y1="273.41" x2="168.61" y2="313.92" stroke="#0ecb81" stroke-width="1.4" /><rect x="165.61" y="289.98" width="6" height="9.21" rx="1.5" fill="#0ecb81" /><line x1="179.34" y1="286.30" x2="179.34" y2="332.33" stroke="#f6465d" stroke-width="1.4" /><rect x="176.34" y="288.14" width="6" height="31.30" rx="1.5" fill="#f6465d" /><line x1="190.08" y1="304.71" x2="190.08" y2="345.21" stroke="#0ecb81" stroke-width="1.4" /><rect x="187.08" y="313.92" width="6" height="5.52" rx="1.5" fill="#0ecb81" /><line x1="200.81" y1="301.03" x2="200.81" y2="378.36" stroke="#f6465d" stroke-width="1.4" /><rect x="197.81" y="313.92" width="6" height="14.73" rx="1.5" fill="#f6465d" /><line x1="211.54" y1="278.93" x2="211.54" y2="337.85" stroke="#0ecb81" stroke-width="1.4" /><rect x="208.54" y="310.23" width="6" height="18.41" rx="1.5" fill="#0ecb81" /><line x1="222.28" y1="284.46" x2="222.28" y2="315.76" stroke="#0ecb81" stroke-width="1.4" /><rect x="219.28" y="306.55" width="6" height="2.00" rx="1.5" fill="#0ecb81" /><line x1="233.01" y1="249.48" x2="233.01" y2="313.92" stroke="#0ecb81" stroke-width="1.4" /><rect x="230.01" y="275.25" width="6" height="31.30" rx="1.5" fill="#0ecb81" /><line x1="243.75" y1="225.54" x2="243.75" y2="304.71" stroke="#0ecb81" stroke-width="1.4" /><rect x="240.75" y="258.68" width="6" height="16.57" rx="1.5" fill="#0ecb81" /><line x1="254.48" y1="258.68" x2="254.48" y2="348.90" stroke="#f6465d" stroke-width="1.4" /><rect x="251.48" y="258.68" width="6" height="66.28" rx="1.5" fill="#f6465d" /><line x1="265.22" y1="299.19" x2="265.22" y2="328.64" stroke="#0ecb81" stroke-width="1.4" /><rect x="262.22" y="319.44" width="6" height="5.52" rx="1.5" fill="#0ecb81" /><line x1="275.95" y1="299.19" x2="275.95" y2="324.96" stroke="#0ecb81" stroke-width="1.4" /><rect x="272.95" y="319.44" width="6" height="2.00" rx="1.5" fill="#0ecb81" /><line x1="286.68" y1="317.60" x2="286.68" y2="358.10" stroke="#f6465d" stroke-width="1.4" /><rect x="283.68" y="319.44" width="6" height="16.57" rx="1.5" fill="#f6465d" /><line x1="297.42" y1="326.80" x2="297.42" y2="347.06" stroke="#0ecb81" stroke-width="1.4" /><rect x="294.42" y="334.17" width="6" height="2.00" rx="1.5" fill="#0ecb81" /><line x1="308.15" y1="264.21" x2="308.15" y2="347.06" stroke="#0ecb81" stroke-width="1.4" /><rect x="305.15" y="284.46" width="6" height="51.55" rx="1.5" fill="#0ecb81" /><line x1="318.89" y1="277.09" x2="318.89" y2="306.55" stroke="#f6465d" stroke-width="1.4" /><rect x="315.89" y="284.46" width="6" height="3.68" rx="1.5" fill="#f6465d" /><line x1="329.62" y1="242.11" x2="329.62" y2="291.82" stroke="#0ecb81" stroke-width="1.4" /><rect x="326.62" y="245.79" width="6" height="42.35" rx="1.5" fill="#0ecb81" /><line x1="340.35" y1="139.01" x2="340.35" y2="256.84" stroke="#0ecb81" stroke-width="1.4" /><rect x="337.35" y="242.11" width="6" height="5.52" rx="1.5" fill="#0ecb81" /><line x1="351.09" y1="192.40" x2="351.09" y2="251.32" stroke="#0ecb81" stroke-width="1.4" /><rect x="348.09" y="221.86" width="6" height="22.09" rx="1.5" fill="#0ecb81" /><line x1="361.82" y1="181.36" x2="361.82" y2="227.38" stroke="#0ecb81" stroke-width="1.4" /><rect x="358.82" y="192.40" width="6" height="33.14" rx="1.5" fill="#0ecb81" /><line x1="372.56" y1="190.56" x2="372.56" y2="242.11" stroke="#f6465d" stroke-width="1.4" /><rect x="369.56" y="192.40" width="6" height="11.05" rx="1.5" fill="#f6465d" /><line x1="383.29" y1="186.88" x2="383.29" y2="221.86" stroke="#f6465d" stroke-width="1.4" /><rect x="380.29" y="201.61" width="6" height="5.52" rx="1.5" fill="#f6465d" /><line x1="394.03" y1="190.56" x2="394.03" y2="234.75" stroke="#f6465d" stroke-width="1.4" /><rect x="391.03" y="207.13" width="6" height="3.68" rx="1.5" fill="#f6465d" /><line x1="404.76" y1="177.67" x2="404.76" y2="221.86" stroke="#0ecb81" stroke-width="1.4" /><rect x="401.76" y="192.40" width="6" height="16.57" rx="1.5" fill="#0ecb81" /><line x1="415.49" y1="150.06" x2="415.49" y2="205.29" stroke="#0ecb81" stroke-width="1.4" /><rect x="412.49" y="175.83" width="6" height="18.41" rx="1.5" fill="#0ecb81" /><line x1="426.23" y1="135.33" x2="426.23" y2="175.83" stroke="#0ecb81" stroke-width="1.4" /><rect x="423.23" y="155.58" width="6" height="20.25" rx="1.5" fill="#0ecb81" /><line x1="436.96" y1="140.85" x2="436.96" y2="188.72" stroke="#f6465d" stroke-width="1.4" /><rect x="433.96" y="155.58" width="6" height="7.36" rx="1.5" fill="#f6465d" /><line x1="447.70" y1="151.90" x2="447.70" y2="210.81" stroke="#f6465d" stroke-width="1.4" /><rect x="444.70" y="161.10" width="6" height="31.30" rx="1.5" fill="#f6465d" /><line x1="458.43" y1="173.99" x2="458.43" y2="271.57" stroke="#f6465d" stroke-width="1.4" /><rect x="455.43" y="192.40" width="6" height="62.60" rx="1.5" fill="#f6465d" /><line x1="469.16" y1="221.86" x2="469.16" y2="291.82" stroke="#f6465d" stroke-width="1.4" /><rect x="466.16" y="253.16" width="6" height="18.41" rx="1.5" fill="#f6465d" /><line x1="479.90" y1="190.56" x2="479.90" y2="278.93" stroke="#0ecb81" stroke-width="1.4" /><rect x="476.90" y="236.59" width="6" height="34.98" rx="1.5" fill="#0ecb81" /><line x1="490.63" y1="216.34" x2="490.63" y2="267.89" stroke="#f6465d" stroke-width="1.4" /><rect x="487.63" y="236.59" width="6" height="25.78" rx="1.5" fill="#f6465d" /><line x1="501.37" y1="260.52" x2="501.37" y2="324.96" stroke="#f6465d" stroke-width="1.4" /><rect x="498.37" y="262.36" width="6" height="49.71" rx="1.5" fill="#f6465d" /><line x1="512.10" y1="275.25" x2="512.10" y2="332.33" stroke="#0ecb81" stroke-width="1.4" /><rect x="509.10" y="299.19" width="6" height="11.05" rx="1.5" fill="#0ecb81" /><line x1="522.84" y1="277.09" x2="522.84" y2="317.60" stroke="#0ecb81" stroke-width="1.4" /><rect x="519.84" y="288.14" width="6" height="9.21" rx="1.5" fill="#0ecb81" /><line x1="533.57" y1="271.57" x2="533.57" y2="310.23" stroke="#f6465d" stroke-width="1.4" /><rect x="530.57" y="288.14" width="6" height="18.41" rx="1.5" fill="#f6465d" /><line x1="544.30" y1="260.52" x2="544.30" y2="315.76" stroke="#0ecb81" stroke-width="1.4" /><rect x="541.30" y="264.21" width="6" height="42.35" rx="1.5" fill="#0ecb81" /><line x1="555.04" y1="266.05" x2="555.04" y2="330.49" stroke="#f6465d" stroke-width="1.4" /><rect x="552.04" y="266.05" width="6" height="25.78" rx="1.5" fill="#f6465d" /><line x1="565.77" y1="278.93" x2="565.77" y2="297.35" stroke="#0ecb81" stroke-width="1.4" /><rect x="562.77" y="289.98" width="6" height="2.00" rx="1.5" fill="#0ecb81" /><line x1="576.51" y1="288.14" x2="576.51" y2="310.23" stroke="#f6465d" stroke-width="1.4" /><rect x="573.51" y="289.98" width="6" height="12.89" rx="1.5" fill="#f6465d" /><line x1="587.24" y1="282.62" x2="587.24" y2="337.85" stroke="#0ecb81" stroke-width="1.4" /><rect x="584.24" y="304.71" width="6" height="2.00" rx="1.5" fill="#0ecb81" /><line x1="597.97" y1="295.50" x2="597.97" y2="312.07" stroke="#0ecb81" stroke-width="1.4" /><rect x="594.97" y="302.87" width="6" height="2.00" rx="1.5" fill="#0ecb81" /><line x1="608.71" y1="284.46" x2="608.71" y2="312.07" stroke="#f6465d" stroke-width="1.4" /><rect x="605.71" y="301.03" width="6" height="7.36" rx="1.5" fill="#f6465d" /><line x1="619.44" y1="304.71" x2="619.44" y2="326.80" stroke="#f6465d" stroke-width="1.4" /><rect x="616.44" y="306.55" width="6" height="7.36" rx="1.5" fill="#f6465d" /><line x1="630.18" y1="293.66" x2="630.18" y2="361.79" stroke="#f6465d" stroke-width="1.4" /><rect x="627.18" y="315.76" width="6" height="18.41" rx="1.5" fill="#f6465d" /><line x1="640.91" y1="332.33" x2="640.91" y2="365.47" stroke="#f6465d" stroke-width="1.4" /><rect x="637.91" y="334.17" width="6" height="22.09" rx="1.5" fill="#f6465d" /><line x1="651.65" y1="337.85" x2="651.65" y2="369.15" stroke="#0ecb81" stroke-width="1.4" /><rect x="648.65" y="356.26" width="6" height="2.00" rx="1.5" fill="#0ecb81" /><line x1="662.38" y1="336.01" x2="662.38" y2="363.63" stroke="#0ecb81" stroke-width="1.4" /><rect x="659.38" y="350.74" width="6" height="5.52" rx="1.5" fill="#0ecb81" /><line x1="673.11" y1="343.37" x2="673.11" y2="393.08" stroke="#f6465d" stroke-width="1.4" /><rect x="670.11" y="350.74" width="6" height="7.36" rx="1.5" fill="#f6465d" /><line x1="683.85" y1="336.01" x2="683.85" y2="361.79" stroke="#0ecb81" stroke-width="1.4" /><rect x="680.85" y="343.37" width="6" height="16.57" rx="1.5" fill="#0ecb81" /><line x1="694.58" y1="273.41" x2="694.58" y2="352.58" stroke="#0ecb81" stroke-width="1.4" /><rect x="691.58" y="306.55" width="6" height="38.66" rx="1.5" fill="#0ecb81" /><line x1="705.32" y1="218.18" x2="705.32" y2="306.55" stroke="#0ecb81" stroke-width="1.4" /><rect x="702.32" y="249.48" width="6" height="55.23" rx="1.5" fill="#0ecb81" /><line x1="716.05" y1="164.79" x2="716.05" y2="256.84" stroke="#0ecb81" stroke-width="1.4" /><rect x="713.05" y="216.34" width="6" height="31.30" rx="1.5" fill="#0ecb81" /><line x1="726.78" y1="109.55" x2="726.78" y2="218.18" stroke="#0ecb81" stroke-width="1.4" /><rect x="723.78" y="157.42" width="6" height="58.92" rx="1.5" fill="#0ecb81" /><line x1="737.52" y1="148.21" x2="737.52" y2="339.69" stroke="#f6465d" stroke-width="1.4" /><rect x="734.52" y="157.42" width="6" height="141.77" rx="1.5" fill="#f6465d" /><line x1="748.25" y1="293.66" x2="748.25" y2="328.64" stroke="#f6465d" stroke-width="1.4" /><rect x="745.25" y="299.19" width="6" height="3.68" rx="1.5" fill="#f6465d" /><line x1="758.99" y1="284.46" x2="758.99" y2="315.76" stroke="#f6465d" stroke-width="1.4" /><rect x="755.99" y="302.87" width="6" height="12.89" rx="1.5" fill="#f6465d" /><line x1="769.72" y1="291.82" x2="769.72" y2="336.01" stroke="#f6465d" stroke-width="1.4" /><rect x="766.72" y="315.76" width="6" height="11.05" rx="1.5" fill="#f6465d" /><line x1="780.46" y1="306.55" x2="780.46" y2="339.69" stroke="#0ecb81" stroke-width="1.4" /><rect x="777.46" y="315.76" width="6" height="12.89" rx="1.5" fill="#0ecb81" /><line x1="791.19" y1="293.66" x2="791.19" y2="347.06" stroke="#0ecb81" stroke-width="1.4" /><rect x="788.19" y="295.50" width="6" height="22.09" rx="1.5" fill="#0ecb81" /><line x1="801.92" y1="271.57" x2="801.92" y2="339.69" stroke="#f6465d" stroke-width="1.4" /><rect x="798.92" y="295.50" width="6" height="16.57" rx="1.5" fill="#f6465d" /><line x1="812.66" y1="295.50" x2="812.66" y2="343.37" stroke="#f6465d" stroke-width="1.4" /><rect x="809.66" y="312.07" width="6" height="9.21" rx="1.5" fill="#f6465d" /><line x1="823.39" y1="315.76" x2="823.39" y2="374.67" stroke="#f6465d" stroke-width="1.4" /><rect x="820.39" y="321.28" width="6" height="46.03" rx="1.5" fill="#f6465d" /><line x1="834.13" y1="347.06" x2="834.13" y2="382.04" stroke="#0ecb81" stroke-width="1.4" /><rect x="831.13" y="361.79" width="6" height="5.52" rx="1.5" fill="#0ecb81" /><line x1="844.86" y1="343.37" x2="844.86" y2="394.93" stroke="#f6465d" stroke-width="1.4" /><rect x="841.86" y="359.94" width="6" height="12.89" rx="1.5" fill="#f6465d" /><line x1="855.59" y1="359.94" x2="855.59" y2="413.34" stroke="#f6465d" stroke-width="1.4" /><rect x="852.59" y="372.83" width="6" height="14.73" rx="1.5" fill="#f6465d" /><line x1="866.33" y1="380.20" x2="866.33" y2="409.65" stroke="#f6465d" stroke-width="1.4" /><rect x="863.33" y="387.56" width="6" height="16.57" rx="1.5" fill="#f6465d" /><line x1="877.06" y1="398.61" x2="877.06" y2="439.11" stroke="#f6465d" stroke-width="1.4" /><rect x="874.06" y="405.97" width="6" height="27.62" rx="1.5" fill="#f6465d" /><line x1="887.80" y1="413.34" x2="887.80" y2="452.00" stroke="#f6465d" stroke-width="1.4" /><rect x="884.80" y="433.59" width="6" height="7.36" rx="1.5" fill="#f6465d" /><line x1="898.53" y1="411.50" x2="898.53" y2="444.64" stroke="#0ecb81" stroke-width="1.4" /><rect x="895.53" y="415.18" width="6" height="27.62" rx="1.5" fill="#0ecb81" /><line x1="909.27" y1="400.45" x2="909.27" y2="424.38" stroke="#0ecb81" stroke-width="1.4" /><rect x="906.27" y="405.97" width="6" height="9.21" rx="1.5" fill="#0ecb81" /><line x1="920.00" y1="393.08" x2="920.00" y2="413.34" stroke="#0ecb81" stroke-width="1.4" /><rect x="917.00" y="402.29" width="6" height="5.52" rx="1.5" fill="#0ecb81" />
  <polyline points="104.20,58.00 200.81,378.36 243.75,225.54 286.68,358.10 426.23,135.33" fill="none" stroke="#2fc273" stroke-width="4" stroke-linecap="round" stroke-linejoin="round" />
  <circle cx="104.20" cy="58.00" r="5.5" fill="#2fc273" fill-opacity="0.15" stroke="#2fc273" stroke-width="2" /><text x="104.20" y="46.00" fill="#f3f4f6" font-size="15" font-weight="700" text-anchor="middle">X</text><circle cx="200.81" cy="378.36" r="5.5" fill="#2fc273" fill-opacity="0.15" stroke="#2fc273" stroke-width="2" /><text x="200.81" y="366.36" fill="#f3f4f6" font-size="15" font-weight="700" text-anchor="middle">A</text><circle cx="243.75" cy="225.54" r="5.5" fill="#2fc273" fill-opacity="0.15" stroke="#2fc273" stroke-width="2" /><text x="243.75" y="213.54" fill="#f3f4f6" font-size="15" font-weight="700" text-anchor="middle">B</text><circle cx="286.68" cy="358.10" r="5.5" fill="#2fc273" fill-opacity="0.15" stroke="#2fc273" stroke-width="2" /><text x="286.68" y="346.10" fill="#f3f4f6" font-size="15" font-weight="700" text-anchor="middle">C</text><circle cx="426.23" cy="135.33" r="5.5" fill="#2fc273" fill-opacity="0.15" stroke="#2fc273" stroke-width="2" /><text x="426.23" y="123.33" fill="#f3f4f6" font-size="15" font-weight="700" text-anchor="middle">D</text>
  <text x="56" y="492" fill="#8ba0b5" font-size="18">일반 완성 · TP1 0.14208 · TP2 0.13922 · SL 0.14896</text>
</svg>
