<svg xmlns="http://www.w3.org/2000/svg" width="960" height="540" viewBox="0 0 960 540">
  <rect width="960" height="540" rx="24" fill="#0b1220" />
  <rect x="28" y="28" width="904" height="484" rx="22" fill="#111827" stroke="#1f2937" />
  <text x="56" y="74" fill="#f3f4f6" font-size="34" font-weight="700">MMTUSDT · AB=CD</text>
  <text x="904" y="74" fill="#8ba0b5" font-size="20" text-anchor="end">Bullish (매수) · Score 85.2</text>
  <line x1="72" y1="58" x2="920" y2="58" stroke="#223045" stroke-width="1" stroke-dasharray="4 8" /><line x1="72" y1="156" x2="920" y2="156" stroke="#223045" stroke-width="1" stroke-dasharray="4 8" /><line x1="72" y1="255" x2="920" y2="255" stroke="#223045" stroke-width="1" stroke-dasharray="4 8" /><line x1="72" y1="353" x2="920" y2="353" stroke="#223045" stroke-width="1" stroke-dasharray="4 8" /><line x1="72" y1="452" x2="920" y2="452" stroke="#223045" stroke-width="1" stroke-dasharray="4 8" />
  <rect x="355.29" y="450.66" width="84" height="4.59" fill="#fbbf24" fill-opacity="0.12" stroke="#fbbf24" stroke-width="1.5" stroke-dasharray="6 6" />
  <line x1="72.00" y1="443.65" x2="72.00" y2="448.66" stroke="#0ecb81" stroke-width="1.4" /><rect x="69.00" y="443.65" width="6" height="2.50" rx="1.5" fill="#0ecb81" /><line x1="82.73" y1="443.65" x2="82.73" y2="446.99" stroke="#f6465d" stroke-width="1.4" /><rect x="79.73" y="444.49" width="6" height="2.00" rx="1.5" fill="#f6465d" /><line x1="93.47" y1="441.15" x2="93.47" y2="446.99" stroke="#0ecb81" stroke-width="1.4" /><rect x="90.47" y="441.15" width="6" height="5.01" rx="1.5" fill="#0ecb81" /><line x1="104.20" y1="440.31" x2="104.20" y2="446.99" stroke="#f6465d" stroke-width="1.4" /><rect x="101.20" y="440.31" width="6" height="5.84" rx="1.5" fill="#f6465d" /><line x1="114.94" y1="446.16" x2="114.94" y2="448.66" stroke="#f6465d" stroke-width="1.4" /><rect x="111.94" y="446.16" width="6" height="2.50" rx="1.5" fill="#f6465d" /><line x1="125.67" y1="443.65" x2="125.67" y2="448.66" stroke="#0ecb81" stroke-width="1.4" /><rect x="122.67" y="445.32" width="6" height="3.34" rx="1.5" fill="#0ecb81" /><line x1="136.41" y1="444.49" x2="136.41" y2="446.99" stroke="#0ecb81" stroke-width="1.4" /><rect x="133.41" y="444.49" width="6" height="2.00" rx="1.5" fill="#0ecb81" /><line x1="147.14" y1="444.49" x2="147.14" y2="446.16" stroke="#0ecb81" stroke-width="1.4" /><rect x="144.14" y="445.32" width="6" height="2.00" rx="1.5" fill="#0ecb81" /><line x1="157.87" y1="445.32" x2="157.87" y2="446.99" stroke="#f6465d" stroke-width="1.4" /><rect x="154.87" y="446.16" width="6" height="2.00" rx="1.5" fill="#f6465d" /><line x1="168.61" y1="446.16" x2="168.61" y2="446.99" stroke="#0ecb81" stroke-width="1.4" /><rect x="165.61" y="446.99" width="6" height="2.00" rx="1.5" fill="#0ecb81" /><line x1="179.34" y1="445.32" x2="179.34" y2="446.99" stroke="#f6465d" stroke-width="1.4" /><rect x="176.34" y="446.16" width="6" height="2.00" rx="1.5" fill="#f6465d" /><line x1="190.08" y1="445.32" x2="190.08" y2="447.83" stroke="#0ecb81" stroke-width="1.4" /><rect x="187.08" y="446.16" width="6" height="2.00" rx="1.5" fill="#0ecb81" /><line x1="200.81" y1="445.32" x2="200.81" y2="449.50" stroke="#f6465d" stroke-width="1.4" /><rect x="197.81" y="446.16" width="6" height="2.00" rx="1.5" fill="#f6465d" /><line x1="211.54" y1="445.32" x2="211.54" y2="447.83" stroke="#f6465d" stroke-width="1.4" /><rect x="208.54" y="446.16" width="6" height="2.00" rx="1.5" fill="#f6465d" /><line x1="222.28" y1="445.32" x2="222.28" y2="450.33" stroke="#0ecb81" stroke-width="1.4" /><rect x="219.28" y="446.99" width="6" height="2.00" rx="1.5" fill="#0ecb81" /><line x1="233.01" y1="445.32" x2="233.01" y2="448.66" stroke="#0ecb81" stroke-width="1.4" /><rect x="230.01" y="446.16" width="6" height="2.00" rx="1.5" fill="#0ecb81" /><line x1="243.75" y1="443.65" x2="243.75" y2="447.83" stroke="#0ecb81" stroke-width="1.4" /><rect x="240.75" y="443.65" width="6" height="3.34" rx="1.5" fill="#0ecb81" /><line x1="254.48" y1="440.31" x2="254.48" y2="446.16" stroke="#0ecb81" stroke-width="1.4" /><rect x="251.48" y="440.31" width="6" height="5.01" rx="1.5" fill="#0ecb81" /><line x1="265.22" y1="439.48" x2="265.22" y2="447.83" stroke="#f6465d" stroke-width="1.4" /><rect x="262.22" y="441.15" width="6" height="5.84" rx="1.5" fill="#f6465d" /><line x1="275.95" y1="445.32" x2="275.95" y2="447.83" stroke="#f6465d" stroke-width="1.4" /><rect x="272.95" y="446.99" width="6" height="2.00" rx="1.5" fill="#f6465d" /><line x1="286.68" y1="445.32" x2="286.68" y2="447.83" stroke="#0ecb81" stroke-width="1.4" /><rect x="283.68" y="446.16" width="6" height="2.00" rx="1.5" fill="#0ecb81" /><line x1="297.42" y1="445.32" x2="297.42" y2="448.66" stroke="#0ecb81" stroke-width="1.4" /><rect x="294.42" y="446.16" width="6" height="2.00" rx="1.5" fill="#0ecb81" /><line x1="308.15" y1="443.65" x2="308.15" y2="447.83" stroke="#0ecb81" stroke-width="1.4" /><rect x="305.15" y="443.65" width="6" height="2.50" rx="1.5" fill="#0ecb81" /><line x1="318.89" y1="443.65" x2="318.89" y2="446.16" stroke="#f6465d" stroke-width="1.4" /><rect x="315.89" y="444.49" width="6" height="2.00" rx="1.5" fill="#f6465d" /><line x1="329.62" y1="445.32" x2="329.62" y2="446.99" stroke="#f6465d" stroke-width="1.4" /><rect x="326.62" y="445.32" width="6" height="2.00" rx="1.5" fill="#f6465d" /><line x1="340.35" y1="446.16" x2="340.35" y2="449.50" stroke="#f6465d" stroke-width="1.4" /><rect x="337.35" y="446.99" width="6" height="2.00" rx="1.5" fill="#f6465d" /><line x1="351.09" y1="447.83" x2="351.09" y2="452.00" stroke="#0ecb81" stroke-width="1.4" /><rect x="348.09" y="447.83" width="6" height="2.00" rx="1.5" fill="#0ecb81" /><line x1="361.82" y1="446.99" x2="361.82" y2="450.33" stroke="#f6465d" stroke-width="1.4" /><rect x="358.82" y="448.66" width="6" height="2.00" rx="1.5" fill="#f6465d" /><line x1="372.56" y1="447.83" x2="372.56" y2="450.33" stroke="#0ecb81" stroke-width="1.4" /><rect x="369.56" y="449.50" width="6" height="2.00" rx="1.5" fill="#0ecb81" /><line x1="383.29" y1="446.99" x2="383.29" y2="452.00" stroke="#0ecb81" stroke-width="1.4" /><rect x="380.29" y="448.66" width="6" height="2.00" rx="1.5" fill="#0ecb81" /><line x1="394.03" y1="446.16" x2="394.03" y2="448.66" stroke="#0ecb81" stroke-width="1.4" /><rect x="391.03" y="448.66" width="6" height="2.00" rx="1.5" fill="#0ecb81" /><line x1="404.76" y1="443.65" x2="404.76" y2="449.50" stroke="#0ecb81" stroke-width="1.4" /><rect x="401.76" y="445.32" width="6" height="3.34" rx="1.5" fill="#0ecb81" /><line x1="415.49" y1="442.82" x2="415.49" y2="445.32" stroke="#0ecb81" stroke-width="1.4" /><rect x="412.49" y="442.82" width="6" height="2.50" rx="1.5" fill="#0ecb81" /><line x1="426.23" y1="436.97" x2="426.23" y2="443.65" stroke="#0ecb81" stroke-width="1.4" /><rect x="423.23" y="439.48" width="6" height="4.17" rx="1.5" fill="#0ecb81" /><line x1="436.96" y1="439.48" x2="436.96" y2="442.82" stroke="#f6465d" stroke-width="1.4" /><rect x="433.96" y="439.48" width="6" height="2.00" rx="1.5" fill="#f6465d" /><line x1="447.70" y1="439.48" x2="447.70" y2="444.49" stroke="#0ecb81" stroke-width="1.4" /><rect x="444.70" y="441.15" width="6" height="2.00" rx="1.5" fill="#0ecb81" /><line x1="458.43" y1="437.81" x2="458.43" y2="441.15" stroke="#0ecb81" stroke-width="1.4" /><rect x="455.43" y="437.81" width="6" height="3.34" rx="1.5" fill="#0ecb81" /><line x1="469.16" y1="431.97" x2="469.16" y2="438.64" stroke="#0ecb81" stroke-width="1.4" /><rect x="466.16" y="436.97" width="6" height="2.00" rx="1.5" fill="#0ecb81" /><line x1="479.90" y1="435.31" x2="479.90" y2="441.15" stroke="#f6465d" stroke-width="1.4" /><rect x="476.90" y="436.97" width="6" height="4.17" rx="1.5" fill="#f6465d" /><line x1="490.63" y1="439.48" x2="490.63" y2="444.49" stroke="#f6465d" stroke-width="1.4" /><rect x="487.63" y="440.31" width="6" height="3.34" rx="1.5" fill="#f6465d" /><line x1="501.37" y1="438.64" x2="501.37" y2="443.65" stroke="#0ecb81" stroke-width="1.4" /><rect x="498.37" y="438.64" width="6" height="5.01" rx="1.5" fill="#0ecb81" /><line x1="512.10" y1="437.81" x2="512.10" y2="441.15" stroke="#0ecb81" stroke-width="1.4" /><rect x="509.10" y="439.48" width="6" height="2.00" rx="1.5" fill="#0ecb81" /><line x1="522.84" y1="437.81" x2="522.84" y2="441.98" stroke="#0ecb81" stroke-width="1.4" /><rect x="519.84" y="437.81" width="6" height="2.00" rx="1.5" fill="#0ecb81" /><line x1="533.57" y1="436.14" x2="533.57" y2="439.48" stroke="#0ecb81" stroke-width="1.4" /><rect x="530.57" y="437.81" width="6" height="2.00" rx="1.5" fill="#0ecb81" /><line x1="544.30" y1="435.31" x2="544.30" y2="438.64" stroke="#0ecb81" stroke-width="1.4" /><rect x="541.30" y="435.31" width="6" height="2.00" rx="1.5" fill="#0ecb81" /><line x1="555.04" y1="435.31" x2="555.04" y2="440.31" stroke="#f6465d" stroke-width="1.4" /><rect x="552.04" y="435.31" width="6" height="2.50" rx="1.5" fill="#f6465d" /><line x1="565.77" y1="435.31" x2="565.77" y2="443.65" stroke="#f6465d" stroke-width="1.4" /><rect x="562.77" y="436.97" width="6" height="3.34" rx="1.5" fill="#f6465d" /><line x1="576.51" y1="431.97" x2="576.51" y2="441.15" stroke="#0ecb81" stroke-width="1.4" /><rect x="573.51" y="435.31" width="6" height="5.84" rx="1.5" fill="#0ecb81" /><line x1="587.24" y1="430.30" x2="587.24" y2="436.97" stroke="#f6465d" stroke-width="1.4" /><rect x="584.24" y="436.14" width="6" height="2.00" rx="1.5" fill="#f6465d" /><line x1="597.97" y1="421.95" x2="597.97" y2="439.48" stroke="#0ecb81" stroke-width="1.4" /><rect x="594.97" y="425.29" width="6" height="12.52" rx="1.5" fill="#0ecb81" /><line x1="608.71" y1="417.78" x2="608.71" y2="429.46" stroke="#0ecb81" stroke-width="1.4" /><rect x="605.71" y="425.29" width="6" height="2.00" rx="1.5" fill="#0ecb81" /><line x1="619.44" y1="421.11" x2="619.44" y2="427.79" stroke="#0ecb81" stroke-width="1.4" /><rect x="616.44" y="421.95" width="6" height="4.17" rx="1.5" fill="#0ecb81" /><line x1="630.18" y1="417.78" x2="630.18" y2="428.63" stroke="#f6465d" stroke-width="1.4" /><rect x="627.18" y="421.11" width="6" height="6.68" rx="1.5" fill="#f6465d" /><line x1="640.91" y1="421.95" x2="640.91" y2="431.13" stroke="#0ecb81" stroke-width="1.4" /><rect x="637.91" y="424.45" width="6" height="4.17" rx="1.5" fill="#0ecb81" /><line x1="651.65" y1="425.29" x2="651.65" y2="441.98" stroke="#f6465d" stroke-width="1.4" /><rect x="648.65" y="425.29" width="6" height="10.02" rx="1.5" fill="#f6465d" /><line x1="662.38" y1="432.80" x2="662.38" y2="435.31" stroke="#f6465d" stroke-width="1.4" /><rect x="659.38" y="434.47" width="6" height="2.00" rx="1.5" fill="#f6465d" /><line x1="673.11" y1="428.63" x2="673.11" y2="436.14" stroke="#0ecb81" stroke-width="1.4" /><rect x="670.11" y="428.63" width="6" height="5.84" rx="1.5" fill="#0ecb81" /><line x1="683.85" y1="426.96" x2="683.85" y2="430.30" stroke="#0ecb81" stroke-width="1.4" /><rect x="680.85" y="428.63" width="6" height="2.00" rx="1.5" fill="#0ecb81" /><line x1="694.58" y1="425.29" x2="694.58" y2="431.97" stroke="#0ecb81" stroke-width="1.4" /><rect x="691.58" y="428.63" width="6" height="2.00" rx="1.5" fill="#0ecb81" /><line x1="705.32" y1="421.11" x2="705.32" y2="429.46" stroke="#0ecb81" stroke-width="1.4" /><rect x="702.32" y="422.78" width="6" height="6.68" rx="1.5" fill="#0ecb81" /><line x1="716.05" y1="421.11" x2="716.05" y2="430.30" stroke="#f6465d" stroke-width="1.4" /><rect x="713.05" y="422.78" width="6" height="3.34" rx="1.5" fill="#f6465d" /><line x1="726.78" y1="414.44" x2="726.78" y2="429.46" stroke="#0ecb81" stroke-width="1.4" /><rect x="723.78" y="416.11" width="6" height="10.02" rx="1.5" fill="#0ecb81" /><line x1="737.52" y1="411.93" x2="737.52" y2="421.95" stroke="#f6465d" stroke-width="1.4" /><rect x="734.52" y="416.94" width="6" height="2.50" rx="1.5" fill="#f6465d" /><line x1="748.25" y1="415.27" x2="748.25" y2="423.62" stroke="#f6465d" stroke-width="1.4" /><rect x="745.25" y="419.44" width="6" height="3.34" rx="1.5" fill="#f6465d" /><line x1="758.99" y1="411.10" x2="758.99" y2="429.46" stroke="#0ecb81" stroke-width="1.4" /><rect x="755.99" y="412.77" width="6" height="9.18" rx="1.5" fill="#0ecb81" /><line x1="769.72" y1="406.92" x2="769.72" y2="419.44" stroke="#f6465d" stroke-width="1.4" /><rect x="766.72" y="412.77" width="6" height="2.00" rx="1.5" fill="#f6465d" /><line x1="780.46" y1="405.25" x2="780.46" y2="416.94" stroke="#0ecb81" stroke-width="1.4" /><rect x="777.46" y="406.92" width="6" height="7.51" rx="1.5" fill="#0ecb81" /><line x1="791.19" y1="394.40" x2="791.19" y2="411.10" stroke="#0ecb81" stroke-width="1.4" /><rect x="788.19" y="396.07" width="6" height="10.02" rx="1.5" fill="#0ecb81" /><line x1="801.92" y1="392.73" x2="801.92" y2="408.59" stroke="#f6465d" stroke-width="1.4" /><rect x="798.92" y="396.07" width="6" height="8.35" rx="1.5" fill="#f6465d" /><line x1="812.66" y1="393.57" x2="812.66" y2="406.92" stroke="#0ecb81" stroke-width="1.4" /><rect x="809.66" y="401.08" width="6" height="3.34" rx="1.5" fill="#0ecb81" /><line x1="823.39" y1="279.21" x2="823.39" y2="406.09" stroke="#0ecb81" stroke-width="1.4" /><rect x="820.39" y="301.75" width="6" height="99.33" rx="1.5" fill="#0ecb81" /><line x1="834.13" y1="172.36" x2="834.13" y2="305.08" stroke="#0ecb81" stroke-width="1.4" /><rect x="831.13" y="188.22" width="6" height="111.86" rx="1.5" fill="#0ecb81" /><line x1="844.86" y1="164.01" x2="844.86" y2="236.64" stroke="#0ecb81" stroke-width="1.4" /><rect x="841.86" y="176.53" width="6" height="12.52" rx="1.5" fill="#0ecb81" /><line x1="855.59" y1="94.73" x2="855.59" y2="178.20" stroke="#0ecb81" stroke-width="1.4" /><rect x="852.59" y="118.94" width="6" height="56.76" rx="1.5" fill="#0ecb81" /><line x1="866.33" y1="70.52" x2="866.33" y2="147.32" stroke="#f6465d" stroke-width="1.4" /><rect x="863.33" y="118.94" width="6" height="19.20" rx="1.5" fill="#f6465d" /><line x1="877.06" y1="58.00" x2="877.06" y2="159.00" stroke="#f6465d" stroke-width="1.4" /><rect x="874.06" y="138.14" width="6" height="2.00" rx="1.5" fill="#f6465d" /><line x1="887.80" y1="92.22" x2="887.80" y2="146.48" stroke="#0ecb81" stroke-width="1.4" /><rect x="884.80" y="130.62" width="6" height="10.85" rx="1.5" fill="#0ecb81" /><line x1="898.53" y1="105.58" x2="898.53" y2="145.65" stroke="#0ecb81" stroke-width="1.4" /><rect x="895.53" y="122.28" width="6" height="9.18" rx="1.5" fill="#0ecb81" /><line x1="909.27" y1="81.37" x2="909.27" y2="124.78" stroke="#0ecb81" stroke-width="1.4" /><rect x="906.27" y="103.08" width="6" height="20.03" rx="1.5" fill="#0ecb81" /><line x1="920.00" y1="87.22" x2="920.00" y2="157.33" stroke="#f6465d" stroke-width="1.4" /><rect x="917.00" y="103.08" width="6" height="41.74" rx="1.5" fill="#f6465d" />
  <polyline points="222.28,450.33 265.22,439.48 297.42,448.66 318.89,443.65 383.29,452.00" fill="none" stroke="#2fc273" stroke-width="4" stroke-linecap="round" stroke-linejoin="round" />
  <circle cx="222.28" cy="450.33" r="5.5" fill="#2fc273" fill-opacity="0.15" stroke="#2fc273" stroke-width="2" /><text x="222.28" y="438.33" fill="#f3f4f6" font-size="15" font-weight="700" text-anchor="middle">X</text><circle cx="265.22" cy="439.48" r="5.5" fill="#2fc273" fill-opacity="0.15" stroke="#2fc273" stroke-width="2" /><text x="265.22" y="427.48" fill="#f3f4f6" font-size="15" font-weight="700" text-anchor="middle">A</text><circle cx="297.42" cy="448.66" r="5.5" fill="#2fc273" fill-opacity="0.15" stroke="#2fc273" stroke-width="2" /><text x="297.42" y="436.66" fill="#f3f4f6" font-size="15" font-weight="700" text-anchor="middle">B</text><circle cx="318.89" cy="443.65" r="5.5" fill="#2fc273" fill-opacity="0.15" stroke="#2fc273" stroke-width="2" /><text x="318.89" y="431.65" fill="#f3f4f6" font-size="15" font-weight="700" text-anchor="middle">C</text><circle cx="383.29" cy="452.00" r="5.5" fill="#2fc273" fill-opacity="0.15" stroke="#2fc273" stroke-width="2" /><text x="383.29" y="440.00" fill="#f3f4f6" font-size="15" font-weight="700" text-anchor="middle">D</text>
  <text x="56" y="492" fill="#8ba0b5" font-size="18">일반 완성 · TP1 0.11088 · TP2 0.11112 · SL 0.11033</text>
</svg>
