<svg xmlns="http://www.w3.org/2000/svg" width="960" height="540" viewBox="0 0 960 540">
  <rect width="960" height="540" rx="24" fill="#0b1220" />
  <rect x="28" y="28" width="904" height="484" rx="22" fill="#111827" stroke="#1f2937" />
  <text x="56" y="74" fill="#f3f4f6" font-size="34" font-weight="700">MUSDT · AB=CD</text>
  <text x="904" y="74" fill="#8ba0b5" font-size="20" text-anchor="end">Bearish (매도) · Score 80.6</text>
  <line x1="72" y1="58" x2="920" y2="58" stroke="#223045" stroke-width="1" stroke-dasharray="4 8" /><line x1="72" y1="156" x2="920" y2="156" stroke="#223045" stroke-width="1" stroke-dasharray="4 8" /><line x1="72" y1="255" x2="920" y2="255" stroke="#223045" stroke-width="1" stroke-dasharray="4 8" /><line x1="72" y1="353" x2="920" y2="353" stroke="#223045" stroke-width="1" stroke-dasharray="4 8" /><line x1="72" y1="452" x2="920" y2="452" stroke="#223045" stroke-width="1" stroke-dasharray="4 8" />
  <rect x="312.35" y="321.21" width="84" height="28.95" fill="#fbbf24" fill-opacity="0.12" stroke="#fbbf24" stroke-width="1.5" stroke-dasharray="6 6" />
  <line x1="72.00" y1="324.81" x2="72.00" y2="350.27" stroke="#f6465d" stroke-width="1.4" /><rect x="69.00" y="333.65" width="6" height="9.53" rx="1.5" fill="#f6465d" /><line x1="82.73" y1="338.42" x2="82.73" y2="352.72" stroke="#f6465d" stroke-width="1.4" /><rect x="79.73" y="343.07" width="6" height="4.30" rx="1.5" fill="#f6465d" /><line x1="93.47" y1="345.86" x2="93.47" y2="385.97" stroke="#f6465d" stroke-width="1.4" /><rect x="90.47" y="347.60" width="6" height="34.53" rx="1.5" fill="#f6465d" /><line x1="104.20" y1="363.53" x2="104.20" y2="390.38" stroke="#f6465d" stroke-width="1.4" /><rect x="101.20" y="382.13" width="6" height="2.21" rx="1.5" fill="#f6465d" /><line x1="114.94" y1="373.99" x2="114.94" y2="390.73" stroke="#0ecb81" stroke-width="1.4" /><rect x="111.94" y="378.64" width="6" height="5.46" rx="1.5" fill="#0ecb81" /><line x1="125.67" y1="376.43" x2="125.67" y2="396.78" stroke="#f6465d" stroke-width="1.4" /><rect x="122.67" y="377.94" width="6" height="12.32" rx="1.5" fill="#f6465d" /><line x1="136.41" y1="387.71" x2="136.41" y2="415.49" stroke="#f6465d" stroke-width="1.4" /><rect x="133.41" y="390.38" width="6" height="17.67" rx="1.5" fill="#f6465d" /><line x1="147.14" y1="399.33" x2="147.14" y2="422.82" stroke="#f6465d" stroke-width="1.4" /><rect x="144.14" y="407.71" width="6" height="6.74" rx="1.5" fill="#f6465d" /><line x1="157.87" y1="388.17" x2="157.87" y2="427.24" stroke="#f6465d" stroke-width="1.4" /><rect x="154.87" y="413.87" width="6" height="5.12" rx="1.5" fill="#f6465d" /><line x1="168.61" y1="417.35" x2="168.61" y2="452.00" stroke="#f6465d" stroke-width="1.4" /><rect x="165.61" y="418.87" width="6" height="23.95" rx="1.5" fill="#f6465d" /><line x1="179.34" y1="421.31" x2="179.34" y2="449.79" stroke="#0ecb81" stroke-width="1.4" /><rect x="176.34" y="438.28" width="6" height="4.65" rx="1.5" fill="#0ecb81" /><line x1="190.08" y1="427.70" x2="190.08" y2="440.26" stroke="#0ecb81" stroke-width="1.4" /><rect x="187.08" y="435.38" width="6" height="2.79" rx="1.5" fill="#0ecb81" /><line x1="200.81" y1="411.66" x2="200.81" y2="438.05" stroke="#0ecb81" stroke-width="1.4" /><rect x="197.81" y="422.01" width="6" height="13.60" rx="1.5" fill="#0ecb81" /><line x1="211.54" y1="408.05" x2="211.54" y2="436.77" stroke="#0ecb81" stroke-width="1.4" /><rect x="208.54" y="415.84" width="6" height="6.05" rx="1.5" fill="#0ecb81" /><line x1="222.28" y1="388.29" x2="222.28" y2="416.54" stroke="#0ecb81" stroke-width="1.4" /><rect x="219.28" y="408.75" width="6" height="7.09" rx="1.5" fill="#0ecb81" /><line x1="233.01" y1="372.01" x2="233.01" y2="412.24" stroke="#0ecb81" stroke-width="1.4" /><rect x="230.01" y="380.73" width="6" height="28.02" rx="1.5" fill="#0ecb81" /><line x1="243.75" y1="379.34" x2="243.75" y2="426.89" stroke="#f6465d" stroke-width="1.4" /><rect x="240.75" y="380.38" width="6" height="41.85" rx="1.5" fill="#f6465d" /><line x1="254.48" y1="382.36" x2="254.48" y2="430.14" stroke="#0ecb81" stroke-width="1.4" /><rect x="251.48" y="393.06" width="6" height="29.30" rx="1.5" fill="#0ecb81" /><line x1="265.22" y1="386.20" x2="265.22" y2="412.47" stroke="#f6465d" stroke-width="1.4" /><rect x="262.22" y="393.06" width="6" height="10.11" rx="1.5" fill="#f6465d" /><line x1="275.95" y1="402.94" x2="275.95" y2="420.73" stroke="#f6465d" stroke-width="1.4" /><rect x="272.95" y="403.06" width="6" height="2.00" rx="1.5" fill="#f6465d" /><line x1="286.68" y1="403.40" x2="286.68" y2="420.61" stroke="#f6465d" stroke-width="1.4" /><rect x="283.68" y="403.52" width="6" height="3.14" rx="1.5" fill="#f6465d" /><line x1="297.42" y1="400.50" x2="297.42" y2="420.49" stroke="#f6465d" stroke-width="1.4" /><rect x="294.42" y="406.78" width="6" height="9.53" rx="1.5" fill="#f6465d" /><line x1="308.15" y1="400.15" x2="308.15" y2="419.45" stroke="#0ecb81" stroke-width="1.4" /><rect x="305.15" y="415.61" width="6" height="2.00" rx="1.5" fill="#0ecb81" /><line x1="318.89" y1="404.68" x2="318.89" y2="421.31" stroke="#0ecb81" stroke-width="1.4" /><rect x="315.89" y="414.22" width="6" height="2.44" rx="1.5" fill="#0ecb81" /><line x1="329.62" y1="376.32" x2="329.62" y2="417.47" stroke="#0ecb81" stroke-width="1.4" /><rect x="326.62" y="391.43" width="6" height="22.79" rx="1.5" fill="#0ecb81" /><line x1="340.35" y1="340.28" x2="340.35" y2="398.06" stroke="#0ecb81" stroke-width="1.4" /><rect x="337.35" y="367.83" width="6" height="23.37" rx="1.5" fill="#0ecb81" /><line x1="351.09" y1="365.62" x2="351.09" y2="390.85" stroke="#f6465d" stroke-width="1.4" /><rect x="348.09" y="367.71" width="6" height="20.35" rx="1.5" fill="#f6465d" /><line x1="361.82" y1="384.80" x2="361.82" y2="401.89" stroke="#f6465d" stroke-width="1.4" /><rect x="358.82" y="388.29" width="6" height="13.60" rx="1.5" fill="#f6465d" /><line x1="372.56" y1="366.20" x2="372.56" y2="403.64" stroke="#0ecb81" stroke-width="1.4" /><rect x="369.56" y="372.71" width="6" height="29.18" rx="1.5" fill="#0ecb81" /><line x1="383.29" y1="369.69" x2="383.29" y2="388.87" stroke="#f6465d" stroke-width="1.4" /><rect x="380.29" y="372.83" width="6" height="16.04" rx="1.5" fill="#f6465d" /><line x1="394.03" y1="378.29" x2="394.03" y2="397.36" stroke="#f6465d" stroke-width="1.4" /><rect x="391.03" y="388.87" width="6" height="2.00" rx="1.5" fill="#f6465d" /><line x1="404.76" y1="382.24" x2="404.76" y2="399.10" stroke="#f6465d" stroke-width="1.4" /><rect x="401.76" y="389.45" width="6" height="4.88" rx="1.5" fill="#f6465d" /><line x1="415.49" y1="381.20" x2="415.49" y2="406.66" stroke="#0ecb81" stroke-width="1.4" /><rect x="412.49" y="382.36" width="6" height="11.86" rx="1.5" fill="#0ecb81" /><line x1="426.23" y1="374.80" x2="426.23" y2="392.13" stroke="#0ecb81" stroke-width="1.4" /><rect x="423.23" y="374.80" width="6" height="7.56" rx="1.5" fill="#0ecb81" /><line x1="436.96" y1="350.62" x2="436.96" y2="378.06" stroke="#0ecb81" stroke-width="1.4" /><rect x="433.96" y="364.57" width="6" height="10.93" rx="1.5" fill="#0ecb81" /><line x1="447.70" y1="358.88" x2="447.70" y2="383.76" stroke="#f6465d" stroke-width="1.4" /><rect x="444.70" y="364.34" width="6" height="10.93" rx="1.5" fill="#f6465d" /><line x1="458.43" y1="370.27" x2="458.43" y2="388.99" stroke="#0ecb81" stroke-width="1.4" /><rect x="455.43" y="373.87" width="6" height="2.00" rx="1.5" fill="#0ecb81" /><line x1="469.16" y1="342.95" x2="469.16" y2="373.87" stroke="#0ecb81" stroke-width="1.4" /><rect x="466.16" y="353.41" width="6" height="20.46" rx="1.5" fill="#0ecb81" /><line x1="479.90" y1="348.99" x2="479.90" y2="373.76" stroke="#f6465d" stroke-width="1.4" /><rect x="476.90" y="353.65" width="6" height="8.95" rx="1.5" fill="#f6465d" /><line x1="490.63" y1="347.95" x2="490.63" y2="385.15" stroke="#f6465d" stroke-width="1.4" /><rect x="487.63" y="362.83" width="6" height="2.44" rx="1.5" fill="#f6465d" /><line x1="501.37" y1="300.17" x2="501.37" y2="367.71" stroke="#0ecb81" stroke-width="1.4" /><rect x="498.37" y="322.37" width="6" height="43.02" rx="1.5" fill="#0ecb81" /><line x1="512.10" y1="312.37" x2="512.10" y2="333.77" stroke="#0ecb81" stroke-width="1.4" /><rect x="509.10" y="318.42" width="6" height="4.07" rx="1.5" fill="#0ecb81" /><line x1="522.84" y1="303.42" x2="522.84" y2="323.30" stroke="#0ecb81" stroke-width="1.4" /><rect x="519.84" y="313.07" width="6" height="4.88" rx="1.5" fill="#0ecb81" /><line x1="533.57" y1="311.21" x2="533.57" y2="323.42" stroke="#f6465d" stroke-width="1.4" /><rect x="530.57" y="313.07" width="6" height="4.30" rx="1.5" fill="#f6465d" /><line x1="544.30" y1="288.42" x2="544.30" y2="319.47" stroke="#0ecb81" stroke-width="1.4" /><rect x="541.30" y="300.75" width="6" height="16.62" rx="1.5" fill="#0ecb81" /><line x1="555.04" y1="212.51" x2="555.04" y2="321.44" stroke="#0ecb81" stroke-width="1.4" /><rect x="552.04" y="228.90" width="6" height="71.85" rx="1.5" fill="#0ecb81" /><line x1="565.77" y1="144.96" x2="565.77" y2="235.41" stroke="#0ecb81" stroke-width="1.4" /><rect x="562.77" y="163.10" width="6" height="66.15" rx="1.5" fill="#0ecb81" /><line x1="576.51" y1="117.41" x2="576.51" y2="191.58" stroke="#0ecb81" stroke-width="1.4" /><rect x="573.51" y="119.50" width="6" height="43.60" rx="1.5" fill="#0ecb81" /><line x1="587.24" y1="90.67" x2="587.24" y2="205.42" stroke="#f6465d" stroke-width="1.4" /><rect x="584.24" y="120.08" width="6" height="66.03" rx="1.5" fill="#f6465d" /><line x1="597.97" y1="137.17" x2="597.97" y2="188.79" stroke="#0ecb81" stroke-width="1.4" /><rect x="594.97" y="169.26" width="6" height="16.86" rx="1.5" fill="#0ecb81" /><line x1="608.71" y1="140.78" x2="608.71" y2="171.47" stroke="#0ecb81" stroke-width="1.4" /><rect x="605.71" y="157.98" width="6" height="10.46" rx="1.5" fill="#0ecb81" /><line x1="619.44" y1="115.66" x2="619.44" y2="183.56" stroke="#0ecb81" stroke-width="1.4" /><rect x="616.44" y="133.92" width="6" height="23.95" rx="1.5" fill="#0ecb81" /><line x1="630.18" y1="84.86" x2="630.18" y2="150.66" stroke="#0ecb81" stroke-width="1.4" /><rect x="627.18" y="115.43" width="6" height="17.79" rx="1.5" fill="#0ecb81" /><line x1="640.91" y1="63.00" x2="640.91" y2="132.52" stroke="#0ecb81" stroke-width="1.4" /><rect x="637.91" y="94.39" width="6" height="21.28" rx="1.5" fill="#0ecb81" /><line x1="651.65" y1="84.16" x2="651.65" y2="123.92" stroke="#f6465d" stroke-width="1.4" /><rect x="648.65" y="95.67" width="6" height="13.83" rx="1.5" fill="#f6465d" /><line x1="662.38" y1="107.41" x2="662.38" y2="144.85" stroke="#f6465d" stroke-width="1.4" /><rect x="659.38" y="109.27" width="6" height="31.97" rx="1.5" fill="#f6465d" /><line x1="673.11" y1="97.64" x2="673.11" y2="147.29" stroke="#0ecb81" stroke-width="1.4" /><rect x="670.11" y="111.25" width="6" height="28.72" rx="1.5" fill="#0ecb81" /><line x1="683.85" y1="104.62" x2="683.85" y2="144.61" stroke="#f6465d" stroke-width="1.4" /><rect x="680.85" y="110.67" width="6" height="6.16" rx="1.5" fill="#f6465d" /><line x1="694.58" y1="87.88" x2="694.58" y2="127.64" stroke="#0ecb81" stroke-width="1.4" /><rect x="691.58" y="94.27" width="6" height="22.09" rx="1.5" fill="#0ecb81" /><line x1="705.32" y1="81.02" x2="705.32" y2="102.29" stroke="#0ecb81" stroke-width="1.4" /><rect x="702.32" y="85.67" width="6" height="8.37" rx="1.5" fill="#0ecb81" /><line x1="716.05" y1="77.53" x2="716.05" y2="98.34" stroke="#f6465d" stroke-width="1.4" /><rect x="713.05" y="85.90" width="6" height="4.53" rx="1.5" fill="#f6465d" /><line x1="726.78" y1="87.76" x2="726.78" y2="113.34" stroke="#f6465d" stroke-width="1.4" /><rect x="723.78" y="90.32" width="6" height="13.49" rx="1.5" fill="#f6465d" /><line x1="737.52" y1="65.44" x2="737.52" y2="122.99" stroke="#0ecb81" stroke-width="1.4" /><rect x="734.52" y="88.81" width="6" height="14.88" rx="1.5" fill="#0ecb81" /><line x1="748.25" y1="64.86" x2="748.25" y2="101.71" stroke="#0ecb81" stroke-width="1.4" /><rect x="745.25" y="87.65" width="6" height="2.00" rx="1.5" fill="#0ecb81" /><line x1="758.99" y1="58.00" x2="758.99" y2="89.16" stroke="#0ecb81" stroke-width="1.4" /><rect x="755.99" y="80.67" width="6" height="7.09" rx="1.5" fill="#0ecb81" /><line x1="769.72" y1="71.83" x2="769.72" y2="114.04" stroke="#f6465d" stroke-width="1.4" /><rect x="766.72" y="80.55" width="6" height="22.32" rx="1.5" fill="#f6465d" /><line x1="780.46" y1="86.83" x2="780.46" y2="157.75" stroke="#f6465d" stroke-width="1.4" /><rect x="777.46" y="103.34" width="6" height="54.29" rx="1.5" fill="#f6465d" /><line x1="791.19" y1="145.89" x2="791.19" y2="194.02" stroke="#f6465d" stroke-width="1.4" /><rect x="788.19" y="156.94" width="6" height="29.76" rx="1.5" fill="#f6465d" /><line x1="801.92" y1="184.61" x2="801.92" y2="217.62" stroke="#f6465d" stroke-width="1.4" /><rect x="798.92" y="186.00" width="6" height="17.90" rx="1.5" fill="#f6465d" /><line x1="812.66" y1="203.56" x2="812.66" y2="295.17" stroke="#f6465d" stroke-width="1.4" /><rect x="809.66" y="203.90" width="6" height="53.60" rx="1.5" fill="#f6465d" /><line x1="823.39" y1="219.83" x2="823.39" y2="274.71" stroke="#0ecb81" stroke-width="1.4" /><rect x="820.39" y="226.23" width="6" height="30.23" rx="1.5" fill="#0ecb81" /><line x1="834.13" y1="178.91" x2="834.13" y2="228.32" stroke="#0ecb81" stroke-width="1.4" /><rect x="831.13" y="195.42" width="6" height="30.81" rx="1.5" fill="#0ecb81" /><line x1="844.86" y1="111.01" x2="844.86" y2="200.53" stroke="#0ecb81" stroke-width="1.4" /><rect x="841.86" y="151.01" width="6" height="44.53" rx="1.5" fill="#0ecb81" /><line x1="855.59" y1="139.73" x2="855.59" y2="168.10" stroke="#0ecb81" stroke-width="1.4" /><rect x="852.59" y="147.98" width="6" height="3.14" rx="1.5" fill="#0ecb81" /><line x1="866.33" y1="90.78" x2="866.33" y2="152.40" stroke="#0ecb81" stroke-width="1.4" /><rect x="863.33" y="108.92" width="6" height="39.18" rx="1.5" fill="#0ecb81" /><line x1="877.06" y1="95.44" x2="877.06" y2="139.96" stroke="#f6465d" stroke-width="1.4" /><rect x="874.06" y="107.53" width="6" height="11.51" rx="1.5" fill="#f6465d" /><line x1="887.80" y1="70.21" x2="887.80" y2="119.27" stroke="#0ecb81" stroke-width="1.4" /><rect x="884.80" y="81.48" width="6" height="37.78" rx="1.5" fill="#0ecb81" /><line x1="898.53" y1="70.67" x2="898.53" y2="114.50" stroke="#f6465d" stroke-width="1.4" /><rect x="895.53" y="82.18" width="6" height="22.90" rx="1.5" fill="#f6465d" /><line x1="909.27" y1="99.50" x2="909.27" y2="148.45" stroke="#f6465d" stroke-width="1.4" /><rect x="906.27" y="104.39" width="6" height="38.48" rx="1.5" fill="#f6465d" /><line x1="920.00" y1="109.27" x2="920.00" y2="150.54" stroke="#0ecb81" stroke-width="1.4" /><rect x="917.00" y="131.01" width="6" height="12.21" rx="1.5" fill="#0ecb81" />
  <polyline points="72.00,320.51 168.61,452.00 233.01,372.01 254.48,430.14 340.35,340.28" fill="none" stroke="#2fc273" stroke-width="4" stroke-linecap="round" stroke-linejoin="round" />
  <circle cx="72.00" cy="320.51" r="5.5" fill="#2fc273" fill-opacity="0.15" stroke="#2fc273" stroke-width="2" /><text x="72.00" y="308.51" fill="#f3f4f6" font-size="15" font-weight="700" text-anchor="middle">X</text><circle cx="168.61" cy="452.00" r="5.5" fill="#2fc273" fill-opacity="0.15" stroke="#2fc273" stroke-width="2" /><text x="168.61" y="440.00" fill="#f3f4f6" font-size="15" font-weight="700" text-anchor="middle">A</text><circle cx="233.01" cy="372.01" r="5.5" fill="#2fc273" fill-opacity="0.15" stroke="#2fc273" stroke-width="2" /><text x="233.01" y="360.01" fill="#f3f4f6" font-size="15" font-weight="700" text-anchor="middle">B</text><circle cx="254.48" cy="430.14" r="5.5" fill="#2fc273" fill-opacity="0.15" stroke="#2fc273" stroke-width="2" /><text x="254.48" y="418.14" fill="#f3f4f6" font-size="15" font-weight="700" text-anchor="middle">C</text><circle cx="340.35" cy="340.28" r="5.5" fill="#2fc273" fill-opacity="0.15" stroke="#2fc273" stroke-width="2" /><text x="340.35" y="328.28" fill="#f3f4f6" font-size="15" font-weight="700" text-anchor="middle">D</text>
  <text x="56" y="492" fill="#8ba0b5" font-size="18">실시간 터치 · TP1 2.5258 · TP2 2.5075 · SL 2.57</text>
</svg>
