<svg xmlns="http://www.w3.org/2000/svg" width="960" height="540" viewBox="0 0 960 540">
  <rect width="960" height="540" rx="24" fill="#0b1220" />
  <rect x="28" y="28" width="904" height="484" rx="22" fill="#111827" stroke="#1f2937" />
  <text x="56" y="74" fill="#f3f4f6" font-size="34" font-weight="700">NOMUSDT · AB=CD</text>
  <text x="904" y="74" fill="#8ba0b5" font-size="20" text-anchor="end">Bullish (매수) · Score 87.5</text>
  <line x1="72" y1="58" x2="920" y2="58" stroke="#223045" stroke-width="1" stroke-dasharray="4 8" /><line x1="72" y1="156" x2="920" y2="156" stroke="#223045" stroke-width="1" stroke-dasharray="4 8" /><line x1="72" y1="255" x2="920" y2="255" stroke="#223045" stroke-width="1" stroke-dasharray="4 8" /><line x1="72" y1="353" x2="920" y2="353" stroke="#223045" stroke-width="1" stroke-dasharray="4 8" /><line x1="72" y1="452" x2="920" y2="452" stroke="#223045" stroke-width="1" stroke-dasharray="4 8" />
  <rect x="795.39" y="456.75" width="84" height="33.87" fill="#fbbf24" fill-opacity="0.12" stroke="#fbbf24" stroke-width="1.5" stroke-dasharray="6 6" />
  <line x1="72.00" y1="161.40" x2="72.00" y2="235.09" stroke="#0ecb81" stroke-width="1.4" /><rect x="69.00" y="184.58" width="6" height="29.71" rx="1.5" fill="#0ecb81" /><line x1="82.73" y1="58.00" x2="82.73" y2="217.26" stroke="#0ecb81" stroke-width="1.4" /><rect x="79.73" y="116.24" width="6" height="68.94" rx="1.5" fill="#0ecb81" /><line x1="93.47" y1="109.11" x2="93.47" y2="179.23" stroke="#f6465d" stroke-width="1.4" /><rect x="90.47" y="115.64" width="6" height="30.31" rx="1.5" fill="#f6465d" /><line x1="104.20" y1="142.39" x2="104.20" y2="185.77" stroke="#f6465d" stroke-width="1.4" /><rect x="101.20" y="146.55" width="6" height="32.09" rx="1.5" fill="#f6465d" /><line x1="114.94" y1="135.25" x2="114.94" y2="197.06" stroke="#0ecb81" stroke-width="1.4" /><rect x="111.94" y="147.14" width="6" height="32.09" rx="1.5" fill="#0ecb81" /><line x1="125.67" y1="94.25" x2="125.67" y2="172.69" stroke="#f6465d" stroke-width="1.4" /><rect x="122.67" y="147.73" width="6" height="14.86" rx="1.5" fill="#f6465d" /><line x1="136.41" y1="138.82" x2="136.41" y2="189.33" stroke="#0ecb81" stroke-width="1.4" /><rect x="133.41" y="152.49" width="6" height="10.10" rx="1.5" fill="#0ecb81" /><line x1="147.14" y1="150.11" x2="147.14" y2="195.87" stroke="#f6465d" stroke-width="1.4" /><rect x="144.14" y="151.89" width="6" height="30.31" rx="1.5" fill="#f6465d" /><line x1="157.87" y1="167.35" x2="157.87" y2="222.61" stroke="#f6465d" stroke-width="1.4" /><rect x="154.87" y="182.20" width="6" height="33.28" rx="1.5" fill="#f6465d" /><line x1="168.61" y1="204.19" x2="168.61" y2="262.43" stroke="#f6465d" stroke-width="1.4" /><rect x="165.61" y="214.89" width="6" height="30.31" rx="1.5" fill="#f6465d" /><line x1="179.34" y1="228.56" x2="179.34" y2="251.14" stroke="#0ecb81" stroke-width="1.4" /><rect x="176.34" y="238.06" width="6" height="7.73" rx="1.5" fill="#0ecb81" /><line x1="190.08" y1="238.06" x2="190.08" y2="304.62" stroke="#f6465d" stroke-width="1.4" /><rect x="187.08" y="238.06" width="6" height="33.28" rx="1.5" fill="#f6465d" /><line x1="200.81" y1="235.69" x2="200.81" y2="280.26" stroke="#0ecb81" stroke-width="1.4" /><rect x="197.81" y="267.78" width="6" height="3.57" rx="1.5" fill="#0ecb81" /><line x1="211.54" y1="231.53" x2="211.54" y2="286.79" stroke="#f6465d" stroke-width="1.4" /><rect x="208.54" y="267.78" width="6" height="4.16" rx="1.5" fill="#f6465d" /><line x1="222.28" y1="250.54" x2="222.28" y2="299.27" stroke="#f6465d" stroke-width="1.4" /><rect x="219.28" y="271.94" width="6" height="2.97" rx="1.5" fill="#f6465d" /><line x1="233.01" y1="267.18" x2="233.01" y2="302.24" stroke="#f6465d" stroke-width="1.4" /><rect x="230.01" y="274.31" width="6" height="5.35" rx="1.5" fill="#f6465d" /><line x1="243.75" y1="165.56" x2="243.75" y2="279.66" stroke="#0ecb81" stroke-width="1.4" /><rect x="240.75" y="210.13" width="6" height="68.94" rx="1.5" fill="#0ecb81" /><line x1="254.48" y1="196.46" x2="254.48" y2="273.13" stroke="#f6465d" stroke-width="1.4" /><rect x="251.48" y="210.73" width="6" height="39.22" rx="1.5" fill="#f6465d" /><line x1="265.22" y1="247.57" x2="265.22" y2="290.36" stroke="#f6465d" stroke-width="1.4" /><rect x="262.22" y="248.76" width="6" height="23.77" rx="1.5" fill="#f6465d" /><line x1="275.95" y1="179.23" x2="275.95" y2="276.10" stroke="#0ecb81" stroke-width="1.4" /><rect x="272.95" y="203.00" width="6" height="69.53" rx="1.5" fill="#0ecb81" /><line x1="286.68" y1="187.55" x2="286.68" y2="249.95" stroke="#f6465d" stroke-width="1.4" /><rect x="283.68" y="202.41" width="6" height="9.51" rx="1.5" fill="#f6465d" /><line x1="297.42" y1="138.23" x2="297.42" y2="217.26" stroke="#0ecb81" stroke-width="1.4" /><rect x="294.42" y="205.97" width="6" height="6.54" rx="1.5" fill="#0ecb81" /><line x1="308.15" y1="127.53" x2="308.15" y2="218.45" stroke="#0ecb81" stroke-width="1.4" /><rect x="305.15" y="141.20" width="6" height="65.37" rx="1.5" fill="#0ecb81" /><line x1="318.89" y1="68.10" x2="318.89" y2="165.56" stroke="#0ecb81" stroke-width="1.4" /><rect x="315.89" y="119.80" width="6" height="21.99" rx="1.5" fill="#0ecb81" /><line x1="329.62" y1="112.08" x2="329.62" y2="174.48" stroke="#f6465d" stroke-width="1.4" /><rect x="326.62" y="119.21" width="6" height="40.41" rx="1.5" fill="#f6465d" /><line x1="340.35" y1="148.33" x2="340.35" y2="200.62" stroke="#f6465d" stroke-width="1.4" /><rect x="337.35" y="160.21" width="6" height="31.50" rx="1.5" fill="#f6465d" /><line x1="351.09" y1="171.51" x2="351.09" y2="289.17" stroke="#f6465d" stroke-width="1.4" /><rect x="348.09" y="192.90" width="6" height="43.38" rx="1.5" fill="#f6465d" /><line x1="361.82" y1="233.90" x2="361.82" y2="260.65" stroke="#f6465d" stroke-width="1.4" /><rect x="358.82" y="236.28" width="6" height="11.89" rx="1.5" fill="#f6465d" /><line x1="372.56" y1="191.71" x2="372.56" y2="257.08" stroke="#0ecb81" stroke-width="1.4" /><rect x="369.56" y="216.67" width="6" height="30.31" rx="1.5" fill="#0ecb81" /><line x1="383.29" y1="206.57" x2="383.29" y2="236.87" stroke="#f6465d" stroke-width="1.4" /><rect x="380.29" y="216.08" width="6" height="4.75" rx="1.5" fill="#f6465d" /><line x1="394.03" y1="201.81" x2="394.03" y2="242.22" stroke="#0ecb81" stroke-width="1.4" /><rect x="391.03" y="220.24" width="6" height="2.00" rx="1.5" fill="#0ecb81" /><line x1="404.76" y1="205.38" x2="404.76" y2="227.37" stroke="#0ecb81" stroke-width="1.4" /><rect x="401.76" y="217.26" width="6" height="3.57" rx="1.5" fill="#0ecb81" /><line x1="415.49" y1="201.22" x2="415.49" y2="227.96" stroke="#0ecb81" stroke-width="1.4" /><rect x="412.49" y="202.41" width="6" height="14.86" rx="1.5" fill="#0ecb81" /><line x1="426.23" y1="182.80" x2="426.23" y2="207.76" stroke="#f6465d" stroke-width="1.4" /><rect x="423.23" y="201.81" width="6" height="2.00" rx="1.5" fill="#f6465d" /><line x1="436.96" y1="148.33" x2="436.96" y2="203.60" stroke="#0ecb81" stroke-width="1.4" /><rect x="433.96" y="174.48" width="6" height="28.52" rx="1.5" fill="#0ecb81" /><line x1="447.70" y1="168.53" x2="447.70" y2="217.26" stroke="#f6465d" stroke-width="1.4" /><rect x="444.70" y="173.88" width="6" height="30.31" rx="1.5" fill="#f6465d" /><line x1="458.43" y1="195.28" x2="458.43" y2="268.37" stroke="#f6465d" stroke-width="1.4" /><rect x="455.43" y="204.19" width="6" height="38.03" rx="1.5" fill="#f6465d" /><line x1="469.16" y1="233.90" x2="469.16" y2="284.42" stroke="#f6465d" stroke-width="1.4" /><rect x="466.16" y="240.44" width="6" height="25.55" rx="1.5" fill="#f6465d" /><line x1="479.90" y1="241.03" x2="479.90" y2="273.13" stroke="#0ecb81" stroke-width="1.4" /><rect x="476.90" y="245.79" width="6" height="20.21" rx="1.5" fill="#0ecb81" /><line x1="490.63" y1="243.41" x2="490.63" y2="299.27" stroke="#f6465d" stroke-width="1.4" /><rect x="487.63" y="246.38" width="6" height="48.73" rx="1.5" fill="#f6465d" /><line x1="501.37" y1="270.15" x2="501.37" y2="315.32" stroke="#f6465d" stroke-width="1.4" /><rect x="498.37" y="294.52" width="6" height="2.00" rx="1.5" fill="#f6465d" /><line x1="512.10" y1="274.31" x2="512.10" y2="341.47" stroke="#0ecb81" stroke-width="1.4" /><rect x="509.10" y="282.63" width="6" height="13.67" rx="1.5" fill="#0ecb81" /><line x1="522.84" y1="276.10" x2="522.84" y2="324.83" stroke="#f6465d" stroke-width="1.4" /><rect x="519.84" y="282.63" width="6" height="39.22" rx="1.5" fill="#f6465d" /><line x1="533.57" y1="283.23" x2="533.57" y2="325.42" stroke="#0ecb81" stroke-width="1.4" /><rect x="530.57" y="304.03" width="6" height="17.23" rx="1.5" fill="#0ecb81" /><line x1="544.30" y1="259.46" x2="544.30" y2="302.84" stroke="#0ecb81" stroke-width="1.4" /><rect x="541.30" y="270.15" width="6" height="32.09" rx="1.5" fill="#0ecb81" /><line x1="555.04" y1="239.85" x2="555.04" y2="282.63" stroke="#0ecb81" stroke-width="1.4" /><rect x="552.04" y="243.41" width="6" height="27.34" rx="1.5" fill="#0ecb81" /><line x1="565.77" y1="202.41" x2="565.77" y2="258.27" stroke="#0ecb81" stroke-width="1.4" /><rect x="562.77" y="242.22" width="6" height="2.00" rx="1.5" fill="#0ecb81" /><line x1="576.51" y1="233.31" x2="576.51" y2="267.18" stroke="#f6465d" stroke-width="1.4" /><rect x="573.51" y="242.22" width="6" height="18.42" rx="1.5" fill="#f6465d" /><line x1="587.24" y1="220.83" x2="587.24" y2="275.50" stroke="#0ecb81" stroke-width="1.4" /><rect x="584.24" y="226.18" width="6" height="34.47" rx="1.5" fill="#0ecb81" /><line x1="597.97" y1="222.61" x2="597.97" y2="260.05" stroke="#f6465d" stroke-width="1.4" /><rect x="594.97" y="226.77" width="6" height="20.21" rx="1.5" fill="#f6465d" /><line x1="608.71" y1="223.21" x2="608.71" y2="271.34" stroke="#0ecb81" stroke-width="1.4" /><rect x="605.71" y="240.44" width="6" height="7.13" rx="1.5" fill="#0ecb81" /><line x1="619.44" y1="227.37" x2="619.44" y2="252.92" stroke="#0ecb81" stroke-width="1.4" /><rect x="616.44" y="227.96" width="6" height="12.48" rx="1.5" fill="#0ecb81" /><line x1="630.18" y1="207.76" x2="630.18" y2="252.92" stroke="#f6465d" stroke-width="1.4" /><rect x="627.18" y="227.96" width="6" height="2.97" rx="1.5" fill="#f6465d" /><line x1="640.91" y1="221.42" x2="640.91" y2="244.60" stroke="#f6465d" stroke-width="1.4" /><rect x="637.91" y="230.34" width="6" height="2.00" rx="1.5" fill="#f6465d" /><line x1="651.65" y1="215.48" x2="651.65" y2="294.52" stroke="#f6465d" stroke-width="1.4" /><rect x="648.65" y="231.53" width="6" height="38.63" rx="1.5" fill="#f6465d" /><line x1="662.38" y1="262.43" x2="662.38" y2="331.96" stroke="#f6465d" stroke-width="1.4" /><rect x="659.38" y="269.56" width="6" height="39.82" rx="1.5" fill="#f6465d" /><line x1="673.11" y1="287.98" x2="673.11" y2="328.99" stroke="#f6465d" stroke-width="1.4" /><rect x="670.11" y="309.97" width="6" height="10.70" rx="1.5" fill="#f6465d" /><line x1="683.85" y1="302.84" x2="683.85" y2="369.40" stroke="#f6465d" stroke-width="1.4" /><rect x="680.85" y="320.07" width="6" height="35.06" rx="1.5" fill="#f6465d" /><line x1="694.58" y1="345.03" x2="694.58" y2="386.63" stroke="#f6465d" stroke-width="1.4" /><rect x="691.58" y="355.13" width="6" height="2.38" rx="1.5" fill="#f6465d" /><line x1="705.32" y1="353.95" x2="705.32" y2="380.09" stroke="#f6465d" stroke-width="1.4" /><rect x="702.32" y="357.51" width="6" height="16.64" rx="1.5" fill="#f6465d" /><line x1="716.05" y1="352.76" x2="716.05" y2="380.09" stroke="#0ecb81" stroke-width="1.4" /><rect x="713.05" y="367.61" width="6" height="7.13" rx="1.5" fill="#0ecb81" /><line x1="726.78" y1="361.08" x2="726.78" y2="386.63" stroke="#0ecb81" stroke-width="1.4" /><rect x="723.78" y="362.86" width="6" height="5.35" rx="1.5" fill="#0ecb81" /><line x1="737.52" y1="321.26" x2="737.52" y2="363.45" stroke="#0ecb81" stroke-width="1.4" /><rect x="734.52" y="333.15" width="6" height="29.71" rx="1.5" fill="#0ecb81" /><line x1="748.25" y1="314.72" x2="748.25" y2="336.71" stroke="#0ecb81" stroke-width="1.4" /><rect x="745.25" y="323.04" width="6" height="10.10" rx="1.5" fill="#0ecb81" /><line x1="758.99" y1="306.40" x2="758.99" y2="350.97" stroke="#f6465d" stroke-width="1.4" /><rect x="755.99" y="323.04" width="6" height="16.64" rx="1.5" fill="#f6465d" /><line x1="769.72" y1="333.15" x2="769.72" y2="374.75" stroke="#f6465d" stroke-width="1.4" /><rect x="766.72" y="339.68" width="6" height="30.90" rx="1.5" fill="#f6465d" /><line x1="780.46" y1="369.99" x2="780.46" y2="426.45" stroke="#f6465d" stroke-width="1.4" /><rect x="777.46" y="369.99" width="6" height="22.58" rx="1.5" fill="#f6465d" /><line x1="791.19" y1="362.86" x2="791.19" y2="396.14" stroke="#f6465d" stroke-width="1.4" /><rect x="788.19" y="391.98" width="6" height="2.00" rx="1.5" fill="#f6465d" /><line x1="801.92" y1="343.25" x2="801.92" y2="420.50" stroke="#0ecb81" stroke-width="1.4" /><rect x="798.92" y="390.79" width="6" height="2.97" rx="1.5" fill="#0ecb81" /><line x1="812.66" y1="385.44" x2="812.66" y2="437.74" stroke="#f6465d" stroke-width="1.4" /><rect x="809.66" y="390.20" width="6" height="41.60" rx="1.5" fill="#f6465d" /><line x1="823.39" y1="415.75" x2="823.39" y2="452.00" stroke="#0ecb81" stroke-width="1.4" /><rect x="820.39" y="426.45" width="6" height="5.35" rx="1.5" fill="#0ecb81" /><line x1="834.13" y1="391.98" x2="834.13" y2="430.01" stroke="#0ecb81" stroke-width="1.4" /><rect x="831.13" y="401.49" width="6" height="24.96" rx="1.5" fill="#0ecb81" /><line x1="844.86" y1="377.72" x2="844.86" y2="406.84" stroke="#0ecb81" stroke-width="1.4" /><rect x="841.86" y="393.76" width="6" height="8.32" rx="1.5" fill="#0ecb81" /><line x1="855.59" y1="352.16" x2="855.59" y2="395.54" stroke="#0ecb81" stroke-width="1.4" /><rect x="852.59" y="376.53" width="6" height="17.23" rx="1.5" fill="#0ecb81" /><line x1="866.33" y1="345.03" x2="866.33" y2="402.68" stroke="#0ecb81" stroke-width="1.4" /><rect x="863.33" y="375.34" width="6" height="2.00" rx="1.5" fill="#0ecb81" /><line x1="877.06" y1="351.57" x2="877.06" y2="383.06" stroke="#0ecb81" stroke-width="1.4" /><rect x="874.06" y="367.02" width="6" height="8.32" rx="1.5" fill="#0ecb81" /><line x1="887.80" y1="349.79" x2="887.80" y2="386.63" stroke="#f6465d" stroke-width="1.4" /><rect x="884.80" y="366.43" width="6" height="2.00" rx="1.5" fill="#f6465d" /><line x1="898.53" y1="359.29" x2="898.53" y2="386.63" stroke="#f6465d" stroke-width="1.4" /><rect x="895.53" y="368.80" width="6" height="11.89" rx="1.5" fill="#f6465d" /><line x1="909.27" y1="374.15" x2="909.27" y2="422.88" stroke="#f6465d" stroke-width="1.4" /><rect x="906.27" y="380.09" width="6" height="30.90" rx="1.5" fill="#f6465d" /><line x1="920.00" y1="364.64" x2="920.00" y2="431.20" stroke="#f6465d" stroke-width="1.4" /><rect x="917.00" y="411.59" width="6" height="8.32" rx="1.5" fill="#f6465d" />
  <polyline points="512.10,341.47 565.77,202.41 726.78,386.63 758.99,306.40 823.39,452.00" fill="none" stroke="#2fc273" stroke-width="4" stroke-linecap="round" stroke-linejoin="round" />
  <circle cx="512.10" cy="341.47" r="5.5" fill="#2fc273" fill-opacity="0.15" stroke="#2fc273" stroke-width="2" /><text x="512.10" y="329.47" fill="#f3f4f6" font-size="15" font-weight="700" text-anchor="middle">X</text><circle cx="565.77" cy="202.41" r="5.5" fill="#2fc273" fill-opacity="0.15" stroke="#2fc273" stroke-width="2" /><text x="565.77" y="190.41" fill="#f3f4f6" font-size="15" font-weight="700" text-anchor="middle">A</text><circle cx="726.78" cy="386.63" r="5.5" fill="#2fc273" fill-opacity="0.15" stroke="#2fc273" stroke-width="2" /><text x="726.78" y="374.63" fill="#f3f4f6" font-size="15" font-weight="700" text-anchor="middle">B</text><circle cx="758.99" cy="306.40" r="5.5" fill="#2fc273" fill-opacity="0.15" stroke="#2fc273" stroke-width="2" /><text x="758.99" y="294.40" fill="#f3f4f6" font-size="15" font-weight="700" text-anchor="middle">C</text><circle cx="823.39" cy="452.00" r="5.5" fill="#2fc273" fill-opacity="0.15" stroke="#2fc273" stroke-width="2" /><text x="823.39" y="440.00" fill="#f3f4f6" font-size="15" font-weight="700" text-anchor="middle">D</text>
  <text x="56" y="492" fill="#8ba0b5" font-size="18">일반 완성 · TP1 0.004986 · TP2 0.005043 · SL 0.004862</text>
</svg>
