<svg xmlns="http://www.w3.org/2000/svg" width="960" height="540" viewBox="0 0 960 540">
  <rect width="960" height="540" rx="24" fill="#0b1220" />
  <rect x="28" y="28" width="904" height="484" rx="22" fill="#111827" stroke="#1f2937" />
  <text x="56" y="74" fill="#f3f4f6" font-size="34" font-weight="700">NOMUSDT · AB=CD</text>
  <text x="904" y="74" fill="#8ba0b5" font-size="20" text-anchor="end">Bullish (매수) · Score 84.4</text>
  <line x1="72" y1="58" x2="920" y2="58" stroke="#223045" stroke-width="1" stroke-dasharray="4 8" /><line x1="72" y1="156" x2="920" y2="156" stroke="#223045" stroke-width="1" stroke-dasharray="4 8" /><line x1="72" y1="255" x2="920" y2="255" stroke="#223045" stroke-width="1" stroke-dasharray="4 8" /><line x1="72" y1="353" x2="920" y2="353" stroke="#223045" stroke-width="1" stroke-dasharray="4 8" /><line x1="72" y1="452" x2="920" y2="452" stroke="#223045" stroke-width="1" stroke-dasharray="4 8" />
  <rect x="462.63" y="465.36" width="84" height="9.02" fill="#fbbf24" fill-opacity="0.12" stroke="#fbbf24" stroke-width="1.5" stroke-dasharray="6 6" />
  <line x1="72.00" y1="70.69" x2="72.00" y2="108.42" stroke="#f6465d" stroke-width="1.4" /><rect x="69.00" y="79.70" width="6" height="9.35" rx="1.5" fill="#f6465d" /><line x1="82.73" y1="58.00" x2="82.73" y2="91.39" stroke="#0ecb81" stroke-width="1.4" /><rect x="79.73" y="76.03" width="6" height="13.36" rx="1.5" fill="#0ecb81" /><line x1="93.47" y1="70.35" x2="93.47" y2="98.07" stroke="#f6465d" stroke-width="1.4" /><rect x="90.47" y="76.03" width="6" height="11.35" rx="1.5" fill="#f6465d" /><line x1="104.20" y1="60.67" x2="104.20" y2="92.39" stroke="#0ecb81" stroke-width="1.4" /><rect x="101.20" y="82.71" width="6" height="4.67" rx="1.5" fill="#0ecb81" /><line x1="114.94" y1="69.69" x2="114.94" y2="92.39" stroke="#0ecb81" stroke-width="1.4" /><rect x="111.94" y="81.04" width="6" height="2.00" rx="1.5" fill="#0ecb81" /><line x1="125.67" y1="70.02" x2="125.67" y2="100.41" stroke="#f6465d" stroke-width="1.4" /><rect x="122.67" y="81.04" width="6" height="16.69" rx="1.5" fill="#f6465d" /><line x1="136.41" y1="94.39" x2="136.41" y2="130.79" stroke="#f6465d" stroke-width="1.4" /><rect x="133.41" y="97.73" width="6" height="11.69" rx="1.5" fill="#f6465d" /><line x1="147.14" y1="104.41" x2="147.14" y2="131.46" stroke="#0ecb81" stroke-width="1.4" /><rect x="144.14" y="109.09" width="6" height="2.00" rx="1.5" fill="#0ecb81" /><line x1="157.87" y1="90.39" x2="157.87" y2="115.43" stroke="#0ecb81" stroke-width="1.4" /><rect x="154.87" y="96.06" width="6" height="13.02" rx="1.5" fill="#0ecb81" /><line x1="168.61" y1="87.05" x2="168.61" y2="110.09" stroke="#f6465d" stroke-width="1.4" /><rect x="165.61" y="96.06" width="6" height="2.34" rx="1.5" fill="#f6465d" /><line x1="179.34" y1="74.03" x2="179.34" y2="102.41" stroke="#0ecb81" stroke-width="1.4" /><rect x="176.34" y="88.72" width="6" height="9.68" rx="1.5" fill="#0ecb81" /><line x1="190.08" y1="86.72" x2="190.08" y2="123.78" stroke="#f6465d" stroke-width="1.4" /><rect x="187.08" y="89.05" width="6" height="31.39" rx="1.5" fill="#f6465d" /><line x1="200.81" y1="104.41" x2="200.81" y2="126.12" stroke="#0ecb81" stroke-width="1.4" /><rect x="197.81" y="112.09" width="6" height="8.35" rx="1.5" fill="#0ecb81" /><line x1="211.54" y1="100.41" x2="211.54" y2="157.17" stroke="#f6465d" stroke-width="1.4" /><rect x="208.54" y="112.09" width="6" height="19.70" rx="1.5" fill="#f6465d" /><line x1="222.28" y1="119.77" x2="222.28" y2="144.15" stroke="#f6465d" stroke-width="1.4" /><rect x="219.28" y="132.13" width="6" height="8.35" rx="1.5" fill="#f6465d" /><line x1="233.01" y1="132.46" x2="233.01" y2="148.82" stroke="#0ecb81" stroke-width="1.4" /><rect x="230.01" y="137.13" width="6" height="3.34" rx="1.5" fill="#0ecb81" /><line x1="243.75" y1="137.47" x2="243.75" y2="171.53" stroke="#f6465d" stroke-width="1.4" /><rect x="240.75" y="137.47" width="6" height="24.71" rx="1.5" fill="#f6465d" /><line x1="254.48" y1="158.84" x2="254.48" y2="205.58" stroke="#f6465d" stroke-width="1.4" /><rect x="251.48" y="162.51" width="6" height="26.71" rx="1.5" fill="#f6465d" /><line x1="265.22" y1="182.54" x2="265.22" y2="213.93" stroke="#f6465d" stroke-width="1.4" /><rect x="262.22" y="188.55" width="6" height="13.36" rx="1.5" fill="#f6465d" /><line x1="275.95" y1="200.91" x2="275.95" y2="293.06" stroke="#f6465d" stroke-width="1.4" /><rect x="272.95" y="201.58" width="6" height="85.81" rx="1.5" fill="#f6465d" /><line x1="286.68" y1="253.66" x2="286.68" y2="344.15" stroke="#0ecb81" stroke-width="1.4" /><rect x="283.68" y="261.01" width="6" height="26.71" rx="1.5" fill="#0ecb81" /><line x1="297.42" y1="250.66" x2="297.42" y2="289.06" stroke="#f6465d" stroke-width="1.4" /><rect x="294.42" y="260.68" width="6" height="4.01" rx="1.5" fill="#f6465d" /><line x1="308.15" y1="254.67" x2="308.15" y2="276.37" stroke="#0ecb81" stroke-width="1.4" /><rect x="305.15" y="261.34" width="6" height="3.01" rx="1.5" fill="#0ecb81" /><line x1="318.89" y1="246.99" x2="318.89" y2="264.35" stroke="#f6465d" stroke-width="1.4" /><rect x="315.89" y="261.34" width="6" height="2.00" rx="1.5" fill="#f6465d" /><line x1="329.62" y1="258.67" x2="329.62" y2="283.38" stroke="#f6465d" stroke-width="1.4" /><rect x="326.62" y="262.68" width="6" height="13.69" rx="1.5" fill="#f6465d" /><line x1="340.35" y1="271.36" x2="340.35" y2="319.78" stroke="#f6465d" stroke-width="1.4" /><rect x="337.35" y="275.70" width="6" height="13.69" rx="1.5" fill="#f6465d" /><line x1="351.09" y1="286.39" x2="351.09" y2="331.13" stroke="#f6465d" stroke-width="1.4" /><rect x="348.09" y="288.72" width="6" height="20.70" rx="1.5" fill="#f6465d" /><line x1="361.82" y1="305.42" x2="361.82" y2="399.24" stroke="#f6465d" stroke-width="1.4" /><rect x="358.82" y="309.43" width="6" height="71.79" rx="1.5" fill="#f6465d" /><line x1="372.56" y1="350.83" x2="372.56" y2="392.23" stroke="#0ecb81" stroke-width="1.4" /><rect x="369.56" y="363.85" width="6" height="16.69" rx="1.5" fill="#0ecb81" /><line x1="383.29" y1="292.73" x2="383.29" y2="382.22" stroke="#0ecb81" stroke-width="1.4" /><rect x="380.29" y="325.45" width="6" height="38.73" rx="1.5" fill="#0ecb81" /><line x1="394.03" y1="321.45" x2="394.03" y2="360.85" stroke="#f6465d" stroke-width="1.4" /><rect x="391.03" y="325.12" width="6" height="17.03" rx="1.5" fill="#f6465d" /><line x1="404.76" y1="340.14" x2="404.76" y2="364.52" stroke="#f6465d" stroke-width="1.4" /><rect x="401.76" y="342.48" width="6" height="18.03" rx="1.5" fill="#f6465d" /><line x1="415.49" y1="336.14" x2="415.49" y2="370.86" stroke="#0ecb81" stroke-width="1.4" /><rect x="412.49" y="342.82" width="6" height="18.03" rx="1.5" fill="#0ecb81" /><line x1="426.23" y1="313.10" x2="426.23" y2="357.17" stroke="#f6465d" stroke-width="1.4" /><rect x="423.23" y="343.15" width="6" height="8.35" rx="1.5" fill="#f6465d" /><line x1="436.96" y1="338.14" x2="436.96" y2="366.52" stroke="#0ecb81" stroke-width="1.4" /><rect x="433.96" y="345.82" width="6" height="5.68" rx="1.5" fill="#0ecb81" /><line x1="447.70" y1="344.48" x2="447.70" y2="370.19" stroke="#f6465d" stroke-width="1.4" /><rect x="444.70" y="345.49" width="6" height="17.03" rx="1.5" fill="#f6465d" /><line x1="458.43" y1="354.17" x2="458.43" y2="385.22" stroke="#f6465d" stroke-width="1.4" /><rect x="455.43" y="362.52" width="6" height="18.70" rx="1.5" fill="#f6465d" /><line x1="469.16" y1="374.87" x2="469.16" y2="407.59" stroke="#f6465d" stroke-width="1.4" /><rect x="466.16" y="380.88" width="6" height="17.03" rx="1.5" fill="#f6465d" /><line x1="479.90" y1="388.56" x2="479.90" y2="401.25" stroke="#0ecb81" stroke-width="1.4" /><rect x="476.90" y="393.90" width="6" height="4.34" rx="1.5" fill="#0ecb81" /><line x1="490.63" y1="393.90" x2="490.63" y2="431.30" stroke="#f6465d" stroke-width="1.4" /><rect x="487.63" y="393.90" width="6" height="18.70" rx="1.5" fill="#f6465d" /><line x1="501.37" y1="392.57" x2="501.37" y2="417.61" stroke="#0ecb81" stroke-width="1.4" /><rect x="498.37" y="410.60" width="6" height="2.00" rx="1.5" fill="#0ecb81" /><line x1="512.10" y1="390.23" x2="512.10" y2="421.28" stroke="#f6465d" stroke-width="1.4" /><rect x="509.10" y="410.60" width="6" height="2.34" rx="1.5" fill="#f6465d" /><line x1="522.84" y1="400.91" x2="522.84" y2="428.29" stroke="#f6465d" stroke-width="1.4" /><rect x="519.84" y="412.93" width="6" height="2.00" rx="1.5" fill="#f6465d" /><line x1="533.57" y1="410.26" x2="533.57" y2="429.96" stroke="#f6465d" stroke-width="1.4" /><rect x="530.57" y="414.27" width="6" height="3.01" rx="1.5" fill="#f6465d" /><line x1="544.30" y1="353.17" x2="544.30" y2="417.27" stroke="#0ecb81" stroke-width="1.4" /><rect x="541.30" y="378.21" width="6" height="38.73" rx="1.5" fill="#0ecb81" /><line x1="555.04" y1="370.53" x2="555.04" y2="413.60" stroke="#f6465d" stroke-width="1.4" /><rect x="552.04" y="378.54" width="6" height="22.04" rx="1.5" fill="#f6465d" /><line x1="565.77" y1="399.24" x2="565.77" y2="423.28" stroke="#f6465d" stroke-width="1.4" /><rect x="562.77" y="399.91" width="6" height="13.36" rx="1.5" fill="#f6465d" /><line x1="576.51" y1="360.85" x2="576.51" y2="415.27" stroke="#0ecb81" stroke-width="1.4" /><rect x="573.51" y="374.20" width="6" height="39.07" rx="1.5" fill="#0ecb81" /><line x1="587.24" y1="365.52" x2="587.24" y2="400.58" stroke="#f6465d" stroke-width="1.4" /><rect x="584.24" y="373.87" width="6" height="5.34" rx="1.5" fill="#f6465d" /><line x1="597.97" y1="337.81" x2="597.97" y2="382.22" stroke="#0ecb81" stroke-width="1.4" /><rect x="594.97" y="375.87" width="6" height="3.67" rx="1.5" fill="#0ecb81" /><line x1="608.71" y1="331.80" x2="608.71" y2="382.88" stroke="#0ecb81" stroke-width="1.4" /><rect x="605.71" y="339.48" width="6" height="36.73" rx="1.5" fill="#0ecb81" /><line x1="619.44" y1="298.41" x2="619.44" y2="353.17" stroke="#0ecb81" stroke-width="1.4" /><rect x="616.44" y="327.46" width="6" height="12.35" rx="1.5" fill="#0ecb81" /><line x1="630.18" y1="323.12" x2="630.18" y2="358.17" stroke="#f6465d" stroke-width="1.4" /><rect x="627.18" y="327.12" width="6" height="22.71" rx="1.5" fill="#f6465d" /><line x1="640.91" y1="343.48" x2="640.91" y2="372.87" stroke="#f6465d" stroke-width="1.4" /><rect x="637.91" y="350.16" width="6" height="17.70" rx="1.5" fill="#f6465d" /><line x1="651.65" y1="356.51" x2="651.65" y2="422.62" stroke="#f6465d" stroke-width="1.4" /><rect x="648.65" y="368.53" width="6" height="24.37" rx="1.5" fill="#f6465d" /><line x1="662.38" y1="391.56" x2="662.38" y2="406.59" stroke="#f6465d" stroke-width="1.4" /><rect x="659.38" y="392.90" width="6" height="6.68" rx="1.5" fill="#f6465d" /><line x1="673.11" y1="367.86" x2="673.11" y2="404.59" stroke="#0ecb81" stroke-width="1.4" /><rect x="670.11" y="381.88" width="6" height="17.03" rx="1.5" fill="#0ecb81" /><line x1="683.85" y1="376.21" x2="683.85" y2="393.23" stroke="#f6465d" stroke-width="1.4" /><rect x="680.85" y="381.55" width="6" height="2.67" rx="1.5" fill="#f6465d" /><line x1="694.58" y1="373.53" x2="694.58" y2="396.24" stroke="#0ecb81" stroke-width="1.4" /><rect x="691.58" y="383.88" width="6" height="2.00" rx="1.5" fill="#0ecb81" /><line x1="705.32" y1="375.54" x2="705.32" y2="387.89" stroke="#0ecb81" stroke-width="1.4" /><rect x="702.32" y="382.22" width="6" height="2.00" rx="1.5" fill="#0ecb81" /><line x1="716.05" y1="373.20" x2="716.05" y2="388.23" stroke="#0ecb81" stroke-width="1.4" /><rect x="713.05" y="373.87" width="6" height="8.35" rx="1.5" fill="#0ecb81" /><line x1="726.78" y1="362.85" x2="726.78" y2="376.87" stroke="#f6465d" stroke-width="1.4" /><rect x="723.78" y="373.53" width="6" height="2.00" rx="1.5" fill="#f6465d" /><line x1="737.52" y1="343.48" x2="737.52" y2="374.54" stroke="#0ecb81" stroke-width="1.4" /><rect x="734.52" y="358.17" width="6" height="16.03" rx="1.5" fill="#0ecb81" /><line x1="748.25" y1="354.84" x2="748.25" y2="382.22" stroke="#f6465d" stroke-width="1.4" /><rect x="745.25" y="357.84" width="6" height="17.03" rx="1.5" fill="#f6465d" /><line x1="758.99" y1="369.86" x2="758.99" y2="410.93" stroke="#f6465d" stroke-width="1.4" /><rect x="755.99" y="374.87" width="6" height="21.37" rx="1.5" fill="#f6465d" /><line x1="769.72" y1="391.56" x2="769.72" y2="419.95" stroke="#f6465d" stroke-width="1.4" /><rect x="766.72" y="395.24" width="6" height="14.36" rx="1.5" fill="#f6465d" /><line x1="780.46" y1="395.57" x2="780.46" y2="413.60" stroke="#0ecb81" stroke-width="1.4" /><rect x="777.46" y="398.24" width="6" height="11.35" rx="1.5" fill="#0ecb81" /><line x1="791.19" y1="396.91" x2="791.19" y2="428.29" stroke="#f6465d" stroke-width="1.4" /><rect x="788.19" y="398.58" width="6" height="27.38" rx="1.5" fill="#f6465d" /><line x1="801.92" y1="411.93" x2="801.92" y2="437.31" stroke="#f6465d" stroke-width="1.4" /><rect x="798.92" y="425.62" width="6" height="2.00" rx="1.5" fill="#f6465d" /><line x1="812.66" y1="414.27" x2="812.66" y2="452.00" stroke="#0ecb81" stroke-width="1.4" /><rect x="809.66" y="418.94" width="6" height="7.68" rx="1.5" fill="#0ecb81" /><line x1="823.39" y1="415.27" x2="823.39" y2="442.65" stroke="#f6465d" stroke-width="1.4" /><rect x="820.39" y="418.94" width="6" height="22.04" rx="1.5" fill="#f6465d" /><line x1="834.13" y1="419.28" x2="834.13" y2="442.98" stroke="#0ecb81" stroke-width="1.4" /><rect x="831.13" y="430.96" width="6" height="9.68" rx="1.5" fill="#0ecb81" /><line x1="844.86" y1="405.92" x2="844.86" y2="430.30" stroke="#0ecb81" stroke-width="1.4" /><rect x="841.86" y="411.93" width="6" height="18.03" rx="1.5" fill="#0ecb81" /><line x1="855.59" y1="394.90" x2="855.59" y2="418.94" stroke="#0ecb81" stroke-width="1.4" /><rect x="852.59" y="396.91" width="6" height="15.36" rx="1.5" fill="#0ecb81" /><line x1="866.33" y1="373.87" x2="866.33" y2="405.25" stroke="#0ecb81" stroke-width="1.4" /><rect x="863.33" y="396.24" width="6" height="2.00" rx="1.5" fill="#0ecb81" /><line x1="877.06" y1="391.23" x2="877.06" y2="410.26" stroke="#f6465d" stroke-width="1.4" /><rect x="874.06" y="396.24" width="6" height="10.35" rx="1.5" fill="#f6465d" /><line x1="887.80" y1="384.22" x2="887.80" y2="414.94" stroke="#0ecb81" stroke-width="1.4" /><rect x="884.80" y="387.22" width="6" height="19.37" rx="1.5" fill="#0ecb81" /><line x1="898.53" y1="385.22" x2="898.53" y2="406.26" stroke="#f6465d" stroke-width="1.4" /><rect x="895.53" y="387.56" width="6" height="11.35" rx="1.5" fill="#f6465d" /><line x1="909.27" y1="385.55" x2="909.27" y2="412.60" stroke="#0ecb81" stroke-width="1.4" /><rect x="906.27" y="395.24" width="6" height="4.01" rx="1.5" fill="#0ecb81" /><line x1="920.00" y1="393.23" x2="920.00" y2="402.25" stroke="#f6465d" stroke-width="1.4" /><rect x="917.00" y="395.24" width="6" height="2.67" rx="1.5" fill="#f6465d" />
  <polyline points="286.68,344.15 318.89,246.99 361.82,399.24 426.23,313.10 490.63,431.30" fill="none" stroke="#2fc273" stroke-width="4" stroke-linecap="round" stroke-linejoin="round" />
  <circle cx="286.68" cy="344.15" r="5.5" fill="#2fc273" fill-opacity="0.15" stroke="#2fc273" stroke-width="2" /><text x="286.68" y="332.15" fill="#f3f4f6" font-size="15" font-weight="700" text-anchor="middle">X</text><circle cx="318.89" cy="246.99" r="5.5" fill="#2fc273" fill-opacity="0.15" stroke="#2fc273" stroke-width="2" /><text x="318.89" y="234.99" fill="#f3f4f6" font-size="15" font-weight="700" text-anchor="middle">A</text><circle cx="361.82" cy="399.24" r="5.5" fill="#2fc273" fill-opacity="0.15" stroke="#2fc273" stroke-width="2" /><text x="361.82" y="387.24" fill="#f3f4f6" font-size="15" font-weight="700" text-anchor="middle">B</text><circle cx="426.23" cy="313.10" r="5.5" fill="#2fc273" fill-opacity="0.15" stroke="#2fc273" stroke-width="2" /><text x="426.23" y="301.10" fill="#f3f4f6" font-size="15" font-weight="700" text-anchor="middle">C</text><circle cx="490.63" cy="431.30" r="5.5" fill="#2fc273" fill-opacity="0.15" stroke="#2fc273" stroke-width="2" /><text x="490.63" y="419.30" fill="#f3f4f6" font-size="15" font-weight="700" text-anchor="middle">D</text>
  <text x="56" y="492" fill="#8ba0b5" font-size="18">일반 완성 · TP1 0.005275 · TP2 0.005359 · SL 0.005102</text>
</svg>
