<svg xmlns="http://www.w3.org/2000/svg" width="960" height="540" viewBox="0 0 960 540">
  <rect width="960" height="540" rx="24" fill="#0b1220" />
  <rect x="28" y="28" width="904" height="484" rx="22" fill="#111827" stroke="#1f2937" />
  <text x="56" y="74" fill="#f3f4f6" font-size="34" font-weight="700">ONDOUSDT · AB=CD</text>
  <text x="904" y="74" fill="#8ba0b5" font-size="20" text-anchor="end">Bearish (매도) · Score 90.9</text>
  <line x1="72" y1="58" x2="920" y2="58" stroke="#223045" stroke-width="1" stroke-dasharray="4 8" /><line x1="72" y1="156" x2="920" y2="156" stroke="#223045" stroke-width="1" stroke-dasharray="4 8" /><line x1="72" y1="255" x2="920" y2="255" stroke="#223045" stroke-width="1" stroke-dasharray="4 8" /><line x1="72" y1="353" x2="920" y2="353" stroke="#223045" stroke-width="1" stroke-dasharray="4 8" /><line x1="72" y1="452" x2="920" y2="452" stroke="#223045" stroke-width="1" stroke-dasharray="4 8" />
  <rect x="720.25" y="21.33" width="84" height="89.13" fill="#fbbf24" fill-opacity="0.12" stroke="#fbbf24" stroke-width="1.5" stroke-dasharray="6 6" />
  <line x1="72.00" y1="408.00" x2="72.00" y2="419.33" stroke="#f6465d" stroke-width="1.4" /><rect x="69.00" y="411.33" width="6" height="6.00" rx="1.5" fill="#f6465d" /><line x1="82.73" y1="418.00" x2="82.73" y2="428.67" stroke="#f6465d" stroke-width="1.4" /><rect x="79.73" y="418.00" width="6" height="10.00" rx="1.5" fill="#f6465d" /><line x1="93.47" y1="422.00" x2="93.47" y2="434.00" stroke="#f6465d" stroke-width="1.4" /><rect x="90.47" y="428.00" width="6" height="4.67" rx="1.5" fill="#f6465d" /><line x1="104.20" y1="424.67" x2="104.20" y2="435.33" stroke="#0ecb81" stroke-width="1.4" /><rect x="101.20" y="428.67" width="6" height="4.67" rx="1.5" fill="#0ecb81" /><line x1="114.94" y1="427.33" x2="114.94" y2="438.67" stroke="#0ecb81" stroke-width="1.4" /><rect x="111.94" y="427.33" width="6" height="2.00" rx="1.5" fill="#0ecb81" /><line x1="125.67" y1="426.67" x2="125.67" y2="434.67" stroke="#f6465d" stroke-width="1.4" /><rect x="122.67" y="427.33" width="6" height="2.00" rx="1.5" fill="#f6465d" /><line x1="136.41" y1="425.33" x2="136.41" y2="436.67" stroke="#f6465d" stroke-width="1.4" /><rect x="133.41" y="428.67" width="6" height="3.33" rx="1.5" fill="#f6465d" /><line x1="147.14" y1="425.33" x2="147.14" y2="432.67" stroke="#0ecb81" stroke-width="1.4" /><rect x="144.14" y="427.33" width="6" height="4.67" rx="1.5" fill="#0ecb81" /><line x1="157.87" y1="413.33" x2="157.87" y2="428.67" stroke="#0ecb81" stroke-width="1.4" /><rect x="154.87" y="419.33" width="6" height="8.00" rx="1.5" fill="#0ecb81" /><line x1="168.61" y1="404.00" x2="168.61" y2="420.00" stroke="#0ecb81" stroke-width="1.4" /><rect x="165.61" y="405.33" width="6" height="14.00" rx="1.5" fill="#0ecb81" /><line x1="179.34" y1="406.00" x2="179.34" y2="424.00" stroke="#f6465d" stroke-width="1.4" /><rect x="176.34" y="406.00" width="6" height="16.67" rx="1.5" fill="#f6465d" /><line x1="190.08" y1="416.00" x2="190.08" y2="426.67" stroke="#f6465d" stroke-width="1.4" /><rect x="187.08" y="422.67" width="6" height="2.00" rx="1.5" fill="#f6465d" /><line x1="200.81" y1="419.33" x2="200.81" y2="427.33" stroke="#f6465d" stroke-width="1.4" /><rect x="197.81" y="424.67" width="6" height="2.00" rx="1.5" fill="#f6465d" /><line x1="211.54" y1="424.00" x2="211.54" y2="444.67" stroke="#f6465d" stroke-width="1.4" /><rect x="208.54" y="425.33" width="6" height="14.67" rx="1.5" fill="#f6465d" /><line x1="222.28" y1="434.00" x2="222.28" y2="443.33" stroke="#0ecb81" stroke-width="1.4" /><rect x="219.28" y="439.33" width="6" height="2.00" rx="1.5" fill="#0ecb81" /><line x1="233.01" y1="434.00" x2="233.01" y2="444.67" stroke="#0ecb81" stroke-width="1.4" /><rect x="230.01" y="436.67" width="6" height="3.33" rx="1.5" fill="#0ecb81" /><line x1="243.75" y1="434.67" x2="243.75" y2="448.00" stroke="#f6465d" stroke-width="1.4" /><rect x="240.75" y="436.00" width="6" height="10.00" rx="1.5" fill="#f6465d" /><line x1="254.48" y1="443.33" x2="254.48" y2="452.00" stroke="#f6465d" stroke-width="1.4" /><rect x="251.48" y="445.33" width="6" height="2.00" rx="1.5" fill="#f6465d" /><line x1="265.22" y1="436.67" x2="265.22" y2="450.00" stroke="#0ecb81" stroke-width="1.4" /><rect x="262.22" y="438.00" width="6" height="10.00" rx="1.5" fill="#0ecb81" /><line x1="275.95" y1="424.67" x2="275.95" y2="438.67" stroke="#0ecb81" stroke-width="1.4" /><rect x="272.95" y="426.67" width="6" height="12.00" rx="1.5" fill="#0ecb81" /><line x1="286.68" y1="417.33" x2="286.68" y2="427.33" stroke="#0ecb81" stroke-width="1.4" /><rect x="283.68" y="418.00" width="6" height="8.00" rx="1.5" fill="#0ecb81" /><line x1="297.42" y1="416.00" x2="297.42" y2="427.33" stroke="#0ecb81" stroke-width="1.4" /><rect x="294.42" y="416.00" width="6" height="2.00" rx="1.5" fill="#0ecb81" /><line x1="308.15" y1="410.67" x2="308.15" y2="422.00" stroke="#0ecb81" stroke-width="1.4" /><rect x="305.15" y="416.67" width="6" height="2.00" rx="1.5" fill="#0ecb81" /><line x1="318.89" y1="399.33" x2="318.89" y2="419.33" stroke="#0ecb81" stroke-width="1.4" /><rect x="315.89" y="404.67" width="6" height="12.67" rx="1.5" fill="#0ecb81" /><line x1="329.62" y1="398.00" x2="329.62" y2="410.67" stroke="#0ecb81" stroke-width="1.4" /><rect x="326.62" y="404.67" width="6" height="2.00" rx="1.5" fill="#0ecb81" /><line x1="340.35" y1="400.67" x2="340.35" y2="410.67" stroke="#f6465d" stroke-width="1.4" /><rect x="337.35" y="404.67" width="6" height="3.33" rx="1.5" fill="#f6465d" /><line x1="351.09" y1="396.00" x2="351.09" y2="409.33" stroke="#0ecb81" stroke-width="1.4" /><rect x="348.09" y="402.67" width="6" height="5.33" rx="1.5" fill="#0ecb81" /><line x1="361.82" y1="402.00" x2="361.82" y2="414.00" stroke="#f6465d" stroke-width="1.4" /><rect x="358.82" y="402.67" width="6" height="10.67" rx="1.5" fill="#f6465d" /><line x1="372.56" y1="410.00" x2="372.56" y2="418.00" stroke="#0ecb81" stroke-width="1.4" /><rect x="369.56" y="412.67" width="6" height="2.00" rx="1.5" fill="#0ecb81" /><line x1="383.29" y1="400.00" x2="383.29" y2="414.00" stroke="#0ecb81" stroke-width="1.4" /><rect x="380.29" y="406.00" width="6" height="7.33" rx="1.5" fill="#0ecb81" /><line x1="394.03" y1="387.33" x2="394.03" y2="409.33" stroke="#f6465d" stroke-width="1.4" /><rect x="391.03" y="405.33" width="6" height="3.33" rx="1.5" fill="#f6465d" /><line x1="404.76" y1="405.33" x2="404.76" y2="420.67" stroke="#f6465d" stroke-width="1.4" /><rect x="401.76" y="408.67" width="6" height="3.33" rx="1.5" fill="#f6465d" /><line x1="415.49" y1="399.33" x2="415.49" y2="412.67" stroke="#0ecb81" stroke-width="1.4" /><rect x="412.49" y="404.67" width="6" height="7.33" rx="1.5" fill="#0ecb81" /><line x1="426.23" y1="398.67" x2="426.23" y2="410.00" stroke="#0ecb81" stroke-width="1.4" /><rect x="423.23" y="404.67" width="6" height="2.00" rx="1.5" fill="#0ecb81" /><line x1="436.96" y1="393.33" x2="436.96" y2="405.33" stroke="#0ecb81" stroke-width="1.4" /><rect x="433.96" y="393.33" width="6" height="12.00" rx="1.5" fill="#0ecb81" /><line x1="447.70" y1="372.00" x2="447.70" y2="396.00" stroke="#0ecb81" stroke-width="1.4" /><rect x="444.70" y="375.33" width="6" height="18.67" rx="1.5" fill="#0ecb81" /><line x1="458.43" y1="374.00" x2="458.43" y2="385.33" stroke="#f6465d" stroke-width="1.4" /><rect x="455.43" y="376.00" width="6" height="5.33" rx="1.5" fill="#f6465d" /><line x1="469.16" y1="373.33" x2="469.16" y2="382.67" stroke="#0ecb81" stroke-width="1.4" /><rect x="466.16" y="380.67" width="6" height="2.00" rx="1.5" fill="#0ecb81" /><line x1="479.90" y1="377.33" x2="479.90" y2="392.00" stroke="#f6465d" stroke-width="1.4" /><rect x="476.90" y="380.67" width="6" height="2.00" rx="1.5" fill="#f6465d" /><line x1="490.63" y1="381.33" x2="490.63" y2="396.00" stroke="#f6465d" stroke-width="1.4" /><rect x="487.63" y="382.67" width="6" height="8.67" rx="1.5" fill="#f6465d" /><line x1="501.37" y1="379.33" x2="501.37" y2="392.00" stroke="#0ecb81" stroke-width="1.4" /><rect x="498.37" y="384.00" width="6" height="6.67" rx="1.5" fill="#0ecb81" /><line x1="512.10" y1="379.33" x2="512.10" y2="388.00" stroke="#f6465d" stroke-width="1.4" /><rect x="509.10" y="383.33" width="6" height="2.00" rx="1.5" fill="#f6465d" /><line x1="522.84" y1="372.67" x2="522.84" y2="384.67" stroke="#0ecb81" stroke-width="1.4" /><rect x="519.84" y="378.67" width="6" height="6.00" rx="1.5" fill="#0ecb81" /><line x1="533.57" y1="375.33" x2="533.57" y2="384.00" stroke="#f6465d" stroke-width="1.4" /><rect x="530.57" y="378.67" width="6" height="2.00" rx="1.5" fill="#f6465d" /><line x1="544.30" y1="375.33" x2="544.30" y2="384.67" stroke="#f6465d" stroke-width="1.4" /><rect x="541.30" y="379.33" width="6" height="2.00" rx="1.5" fill="#f6465d" /><line x1="555.04" y1="374.00" x2="555.04" y2="384.67" stroke="#f6465d" stroke-width="1.4" /><rect x="552.04" y="380.67" width="6" height="2.00" rx="1.5" fill="#f6465d" /><line x1="565.77" y1="374.00" x2="565.77" y2="384.00" stroke="#0ecb81" stroke-width="1.4" /><rect x="562.77" y="374.67" width="6" height="8.00" rx="1.5" fill="#0ecb81" /><line x1="576.51" y1="362.00" x2="576.51" y2="378.67" stroke="#0ecb81" stroke-width="1.4" /><rect x="573.51" y="364.00" width="6" height="11.33" rx="1.5" fill="#0ecb81" /><line x1="587.24" y1="350.00" x2="587.24" y2="367.33" stroke="#0ecb81" stroke-width="1.4" /><rect x="584.24" y="353.33" width="6" height="11.33" rx="1.5" fill="#0ecb81" /><line x1="597.97" y1="264.67" x2="597.97" y2="357.33" stroke="#0ecb81" stroke-width="1.4" /><rect x="594.97" y="273.33" width="6" height="80.67" rx="1.5" fill="#0ecb81" /><line x1="608.71" y1="230.00" x2="608.71" y2="285.33" stroke="#0ecb81" stroke-width="1.4" /><rect x="605.71" y="230.00" width="6" height="43.33" rx="1.5" fill="#0ecb81" /><line x1="619.44" y1="207.33" x2="619.44" y2="246.67" stroke="#0ecb81" stroke-width="1.4" /><rect x="616.44" y="220.67" width="6" height="10.00" rx="1.5" fill="#0ecb81" /><line x1="630.18" y1="171.33" x2="630.18" y2="221.33" stroke="#0ecb81" stroke-width="1.4" /><rect x="627.18" y="206.00" width="6" height="14.67" rx="1.5" fill="#0ecb81" /><line x1="640.91" y1="189.33" x2="640.91" y2="219.33" stroke="#0ecb81" stroke-width="1.4" /><rect x="637.91" y="200.67" width="6" height="4.67" rx="1.5" fill="#0ecb81" /><line x1="651.65" y1="169.33" x2="651.65" y2="208.67" stroke="#0ecb81" stroke-width="1.4" /><rect x="648.65" y="190.00" width="6" height="10.67" rx="1.5" fill="#0ecb81" /><line x1="662.38" y1="190.00" x2="662.38" y2="236.67" stroke="#f6465d" stroke-width="1.4" /><rect x="659.38" y="190.00" width="6" height="29.33" rx="1.5" fill="#f6465d" /><line x1="673.11" y1="190.67" x2="673.11" y2="219.33" stroke="#0ecb81" stroke-width="1.4" /><rect x="670.11" y="196.00" width="6" height="23.33" rx="1.5" fill="#0ecb81" /><line x1="683.85" y1="188.00" x2="683.85" y2="215.33" stroke="#f6465d" stroke-width="1.4" /><rect x="680.85" y="195.33" width="6" height="7.33" rx="1.5" fill="#f6465d" /><line x1="694.58" y1="192.67" x2="694.58" y2="219.33" stroke="#0ecb81" stroke-width="1.4" /><rect x="691.58" y="198.00" width="6" height="4.67" rx="1.5" fill="#0ecb81" /><line x1="705.32" y1="186.00" x2="705.32" y2="208.67" stroke="#0ecb81" stroke-width="1.4" /><rect x="702.32" y="191.33" width="6" height="6.00" rx="1.5" fill="#0ecb81" /><line x1="716.05" y1="102.00" x2="716.05" y2="192.00" stroke="#0ecb81" stroke-width="1.4" /><rect x="713.05" y="112.00" width="6" height="79.33" rx="1.5" fill="#0ecb81" /><line x1="726.78" y1="104.67" x2="726.78" y2="143.33" stroke="#f6465d" stroke-width="1.4" /><rect x="723.78" y="112.00" width="6" height="25.33" rx="1.5" fill="#f6465d" /><line x1="737.52" y1="110.67" x2="737.52" y2="136.67" stroke="#0ecb81" stroke-width="1.4" /><rect x="734.52" y="116.00" width="6" height="20.67" rx="1.5" fill="#0ecb81" /><line x1="748.25" y1="78.00" x2="748.25" y2="122.00" stroke="#0ecb81" stroke-width="1.4" /><rect x="745.25" y="84.00" width="6" height="32.67" rx="1.5" fill="#0ecb81" /><line x1="758.99" y1="81.33" x2="758.99" y2="126.67" stroke="#f6465d" stroke-width="1.4" /><rect x="755.99" y="84.67" width="6" height="24.00" rx="1.5" fill="#f6465d" /><line x1="769.72" y1="94.00" x2="769.72" y2="122.00" stroke="#f6465d" stroke-width="1.4" /><rect x="766.72" y="108.00" width="6" height="11.33" rx="1.5" fill="#f6465d" /><line x1="780.46" y1="100.00" x2="780.46" y2="138.67" stroke="#f6465d" stroke-width="1.4" /><rect x="777.46" y="119.33" width="6" height="15.33" rx="1.5" fill="#f6465d" /><line x1="791.19" y1="118.67" x2="791.19" y2="157.33" stroke="#f6465d" stroke-width="1.4" /><rect x="788.19" y="135.33" width="6" height="8.67" rx="1.5" fill="#f6465d" /><line x1="801.92" y1="118.00" x2="801.92" y2="152.00" stroke="#0ecb81" stroke-width="1.4" /><rect x="798.92" y="133.33" width="6" height="10.67" rx="1.5" fill="#0ecb81" /><line x1="812.66" y1="125.33" x2="812.66" y2="140.67" stroke="#0ecb81" stroke-width="1.4" /><rect x="809.66" y="130.00" width="6" height="3.33" rx="1.5" fill="#0ecb81" /><line x1="823.39" y1="104.00" x2="823.39" y2="133.33" stroke="#0ecb81" stroke-width="1.4" /><rect x="820.39" y="115.33" width="6" height="14.00" rx="1.5" fill="#0ecb81" /><line x1="834.13" y1="106.00" x2="834.13" y2="130.67" stroke="#0ecb81" stroke-width="1.4" /><rect x="831.13" y="112.67" width="6" height="2.67" rx="1.5" fill="#0ecb81" /><line x1="844.86" y1="110.67" x2="844.86" y2="138.00" stroke="#f6465d" stroke-width="1.4" /><rect x="841.86" y="112.67" width="6" height="16.00" rx="1.5" fill="#f6465d" /><line x1="855.59" y1="124.00" x2="855.59" y2="140.67" stroke="#0ecb81" stroke-width="1.4" /><rect x="852.59" y="127.33" width="6" height="2.00" rx="1.5" fill="#0ecb81" /><line x1="866.33" y1="111.33" x2="866.33" y2="130.67" stroke="#0ecb81" stroke-width="1.4" /><rect x="863.33" y="122.67" width="6" height="4.67" rx="1.5" fill="#0ecb81" /><line x1="877.06" y1="122.67" x2="877.06" y2="137.33" stroke="#f6465d" stroke-width="1.4" /><rect x="874.06" y="123.33" width="6" height="7.33" rx="1.5" fill="#f6465d" /><line x1="887.80" y1="106.00" x2="887.80" y2="145.33" stroke="#0ecb81" stroke-width="1.4" /><rect x="884.80" y="110.00" width="6" height="20.67" rx="1.5" fill="#0ecb81" /><line x1="898.53" y1="82.00" x2="898.53" y2="114.00" stroke="#0ecb81" stroke-width="1.4" /><rect x="895.53" y="85.33" width="6" height="25.33" rx="1.5" fill="#0ecb81" /><line x1="909.27" y1="58.00" x2="909.27" y2="101.33" stroke="#0ecb81" stroke-width="1.4" /><rect x="906.27" y="73.33" width="6" height="12.00" rx="1.5" fill="#0ecb81" /><line x1="920.00" y1="70.00" x2="920.00" y2="110.67" stroke="#f6465d" stroke-width="1.4" /><rect x="917.00" y="73.33" width="6" height="20.00" rx="1.5" fill="#f6465d" />
  <polyline points="522.84,372.67 555.04,384.67 651.65,169.33 662.38,236.67 748.25,78.00" fill="none" stroke="#2fc273" stroke-width="4" stroke-linecap="round" stroke-linejoin="round" />
  <circle cx="522.84" cy="372.67" r="5.5" fill="#2fc273" fill-opacity="0.15" stroke="#2fc273" stroke-width="2" /><text x="522.84" y="360.67" fill="#f3f4f6" font-size="15" font-weight="700" text-anchor="middle">X</text><circle cx="555.04" cy="384.67" r="5.5" fill="#2fc273" fill-opacity="0.15" stroke="#2fc273" stroke-width="2" /><text x="555.04" y="372.67" fill="#f3f4f6" font-size="15" font-weight="700" text-anchor="middle">A</text><circle cx="651.65" cy="169.33" r="5.5" fill="#2fc273" fill-opacity="0.15" stroke="#2fc273" stroke-width="2" /><text x="651.65" y="157.33" fill="#f3f4f6" font-size="15" font-weight="700" text-anchor="middle">B</text><circle cx="662.38" cy="236.67" r="5.5" fill="#2fc273" fill-opacity="0.15" stroke="#2fc273" stroke-width="2" /><text x="662.38" y="224.67" fill="#f3f4f6" font-size="15" font-weight="700" text-anchor="middle">C</text><circle cx="748.25" cy="78.00" r="5.5" fill="#2fc273" fill-opacity="0.15" stroke="#2fc273" stroke-width="2" /><text x="748.25" y="66.00" fill="#f3f4f6" font-size="15" font-weight="700" text-anchor="middle">D</text>
  <text x="56" y="492" fill="#8ba0b5" font-size="18">Complete · TP1 0.39951 · TP2 0.39389 · SL 0.40883</text>
</svg>
