<svg xmlns="http://www.w3.org/2000/svg" width="960" height="540" viewBox="0 0 960 540">
  <rect width="960" height="540" rx="24" fill="#0b1220" />
  <rect x="28" y="28" width="904" height="484" rx="22" fill="#111827" stroke="#1f2937" />
  <text x="56" y="74" fill="#f3f4f6" font-size="34" font-weight="700">ONUSDT · AB=CD</text>
  <text x="904" y="74" fill="#8ba0b5" font-size="20" text-anchor="end">Bearish (매도) · Score 86.5</text>
  <line x1="72" y1="58" x2="920" y2="58" stroke="#223045" stroke-width="1" stroke-dasharray="4 8" /><line x1="72" y1="156" x2="920" y2="156" stroke="#223045" stroke-width="1" stroke-dasharray="4 8" /><line x1="72" y1="255" x2="920" y2="255" stroke="#223045" stroke-width="1" stroke-dasharray="4 8" /><line x1="72" y1="353" x2="920" y2="353" stroke="#223045" stroke-width="1" stroke-dasharray="4 8" /><line x1="72" y1="452" x2="920" y2="452" stroke="#223045" stroke-width="1" stroke-dasharray="4 8" />
  <rect x="419.70" y="174.30" width="84" height="34.38" fill="#fbbf24" fill-opacity="0.12" stroke="#fbbf24" stroke-width="1.5" stroke-dasharray="6 6" />
  <line x1="72.00" y1="272.74" x2="72.00" y2="302.91" stroke="#f6465d" stroke-width="1.4" /><rect x="69.00" y="278.59" width="6" height="19.81" rx="1.5" fill="#f6465d" /><line x1="82.73" y1="268.04" x2="82.73" y2="302.30" stroke="#0ecb81" stroke-width="1.4" /><rect x="79.73" y="273.16" width="6" height="25.23" rx="1.5" fill="#0ecb81" /><line x1="93.47" y1="270.91" x2="93.47" y2="282.86" stroke="#f6465d" stroke-width="1.4" /><rect x="90.47" y="273.22" width="6" height="4.39" rx="1.5" fill="#f6465d" /><line x1="104.20" y1="259.82" x2="104.20" y2="283.10" stroke="#0ecb81" stroke-width="1.4" /><rect x="101.20" y="275.36" width="6" height="4.27" rx="1.5" fill="#0ecb81" /><line x1="114.94" y1="274.44" x2="114.94" y2="292.30" stroke="#f6465d" stroke-width="1.4" /><rect x="111.94" y="274.93" width="6" height="15.66" rx="1.5" fill="#f6465d" /><line x1="125.67" y1="277.25" x2="125.67" y2="298.52" stroke="#f6465d" stroke-width="1.4" /><rect x="122.67" y="289.99" width="6" height="4.88" rx="1.5" fill="#f6465d" /><line x1="136.41" y1="276.46" x2="136.41" y2="299.74" stroke="#0ecb81" stroke-width="1.4" /><rect x="133.41" y="288.46" width="6" height="5.18" rx="1.5" fill="#0ecb81" /><line x1="147.14" y1="273.22" x2="147.14" y2="289.50" stroke="#0ecb81" stroke-width="1.4" /><rect x="144.14" y="278.41" width="6" height="11.09" rx="1.5" fill="#0ecb81" /><line x1="157.87" y1="272.13" x2="157.87" y2="282.12" stroke="#0ecb81" stroke-width="1.4" /><rect x="154.87" y="275.48" width="6" height="2.93" rx="1.5" fill="#0ecb81" /><line x1="168.61" y1="257.13" x2="168.61" y2="278.59" stroke="#0ecb81" stroke-width="1.4" /><rect x="165.61" y="264.26" width="6" height="11.22" rx="1.5" fill="#0ecb81" /><line x1="179.34" y1="250.43" x2="179.34" y2="282.73" stroke="#f6465d" stroke-width="1.4" /><rect x="176.34" y="264.26" width="6" height="18.47" rx="1.5" fill="#f6465d" /><line x1="190.08" y1="271.52" x2="190.08" y2="282.73" stroke="#0ecb81" stroke-width="1.4" /><rect x="187.08" y="276.52" width="6" height="6.22" rx="1.5" fill="#0ecb81" /><line x1="200.81" y1="273.59" x2="200.81" y2="291.39" stroke="#f6465d" stroke-width="1.4" /><rect x="197.81" y="275.42" width="6" height="14.99" rx="1.5" fill="#f6465d" /><line x1="211.54" y1="280.91" x2="211.54" y2="292.49" stroke="#0ecb81" stroke-width="1.4" /><rect x="208.54" y="287.85" width="6" height="2.00" rx="1.5" fill="#0ecb81" /><line x1="222.28" y1="273.77" x2="222.28" y2="296.51" stroke="#0ecb81" stroke-width="1.4" /><rect x="219.28" y="284.20" width="6" height="3.47" rx="1.5" fill="#0ecb81" /><line x1="233.01" y1="260.30" x2="233.01" y2="284.56" stroke="#0ecb81" stroke-width="1.4" /><rect x="230.01" y="274.69" width="6" height="8.66" rx="1.5" fill="#0ecb81" /><line x1="243.75" y1="269.38" x2="243.75" y2="279.14" stroke="#f6465d" stroke-width="1.4" /><rect x="240.75" y="274.32" width="6" height="3.54" rx="1.5" fill="#f6465d" /><line x1="254.48" y1="268.17" x2="254.48" y2="278.71" stroke="#0ecb81" stroke-width="1.4" /><rect x="251.48" y="271.70" width="6" height="5.67" rx="1.5" fill="#0ecb81" /><line x1="265.22" y1="227.33" x2="265.22" y2="273.16" stroke="#0ecb81" stroke-width="1.4" /><rect x="262.22" y="237.26" width="6" height="33.89" rx="1.5" fill="#0ecb81" /><line x1="275.95" y1="198.62" x2="275.95" y2="238.18" stroke="#0ecb81" stroke-width="1.4" /><rect x="272.95" y="210.44" width="6" height="27.00" rx="1.5" fill="#0ecb81" /><line x1="286.68" y1="190.94" x2="286.68" y2="243.60" stroke="#f6465d" stroke-width="1.4" /><rect x="283.68" y="209.47" width="6" height="15.12" rx="1.5" fill="#f6465d" /><line x1="297.42" y1="219.95" x2="297.42" y2="241.29" stroke="#f6465d" stroke-width="1.4" /><rect x="294.42" y="224.58" width="6" height="7.44" rx="1.5" fill="#f6465d" /><line x1="308.15" y1="205.45" x2="308.15" y2="241.96" stroke="#0ecb81" stroke-width="1.4" /><rect x="305.15" y="218.25" width="6" height="12.25" rx="1.5" fill="#0ecb81" /><line x1="318.89" y1="212.33" x2="318.89" y2="268.84" stroke="#f6465d" stroke-width="1.4" /><rect x="315.89" y="219.34" width="6" height="2.00" rx="1.5" fill="#f6465d" /><line x1="329.62" y1="215.69" x2="329.62" y2="249.39" stroke="#f6465d" stroke-width="1.4" /><rect x="326.62" y="219.22" width="6" height="4.08" rx="1.5" fill="#f6465d" /><line x1="340.35" y1="208.43" x2="340.35" y2="312.78" stroke="#f6465d" stroke-width="1.4" /><rect x="337.35" y="223.30" width="6" height="51.08" rx="1.5" fill="#f6465d" /><line x1="351.09" y1="264.69" x2="351.09" y2="306.26" stroke="#0ecb81" stroke-width="1.4" /><rect x="348.09" y="272.68" width="6" height="2.00" rx="1.5" fill="#0ecb81" /><line x1="361.82" y1="255.79" x2="361.82" y2="286.03" stroke="#0ecb81" stroke-width="1.4" /><rect x="358.82" y="271.27" width="6" height="2.00" rx="1.5" fill="#0ecb81" /><line x1="372.56" y1="235.92" x2="372.56" y2="271.27" stroke="#0ecb81" stroke-width="1.4" /><rect x="369.56" y="241.10" width="6" height="29.14" rx="1.5" fill="#0ecb81" /><line x1="383.29" y1="229.28" x2="383.29" y2="258.96" stroke="#f6465d" stroke-width="1.4" /><rect x="380.29" y="241.10" width="6" height="2.00" rx="1.5" fill="#f6465d" /><line x1="394.03" y1="236.41" x2="394.03" y2="292.18" stroke="#f6465d" stroke-width="1.4" /><rect x="391.03" y="242.69" width="6" height="31.03" rx="1.5" fill="#f6465d" /><line x1="404.76" y1="256.10" x2="404.76" y2="277.74" stroke="#0ecb81" stroke-width="1.4" /><rect x="401.76" y="259.88" width="6" height="13.96" rx="1.5" fill="#0ecb81" /><line x1="415.49" y1="243.30" x2="415.49" y2="266.34" stroke="#0ecb81" stroke-width="1.4" /><rect x="412.49" y="247.38" width="6" height="11.40" rx="1.5" fill="#0ecb81" /><line x1="426.23" y1="240.43" x2="426.23" y2="272.31" stroke="#f6465d" stroke-width="1.4" /><rect x="423.23" y="246.89" width="6" height="6.89" rx="1.5" fill="#f6465d" /><line x1="436.96" y1="191.30" x2="436.96" y2="254.39" stroke="#0ecb81" stroke-width="1.4" /><rect x="433.96" y="195.69" width="6" height="57.78" rx="1.5" fill="#0ecb81" /><line x1="447.70" y1="177.89" x2="447.70" y2="237.38" stroke="#f6465d" stroke-width="1.4" /><rect x="444.70" y="196.30" width="6" height="4.51" rx="1.5" fill="#f6465d" /><line x1="458.43" y1="192.40" x2="458.43" y2="225.50" stroke="#f6465d" stroke-width="1.4" /><rect x="455.43" y="201.06" width="6" height="15.79" rx="1.5" fill="#f6465d" /><line x1="469.16" y1="208.74" x2="469.16" y2="225.32" stroke="#0ecb81" stroke-width="1.4" /><rect x="466.16" y="216.29" width="6" height="2.00" rx="1.5" fill="#0ecb81" /><line x1="479.90" y1="208.37" x2="479.90" y2="235.19" stroke="#f6465d" stroke-width="1.4" /><rect x="476.90" y="216.29" width="6" height="17.07" rx="1.5" fill="#f6465d" /><line x1="490.63" y1="233.00" x2="490.63" y2="291.39" stroke="#f6465d" stroke-width="1.4" /><rect x="487.63" y="233.36" width="6" height="45.04" rx="1.5" fill="#f6465d" /><line x1="501.37" y1="247.56" x2="501.37" y2="284.56" stroke="#f6465d" stroke-width="1.4" /><rect x="498.37" y="278.77" width="6" height="2.86" rx="1.5" fill="#f6465d" /><line x1="512.10" y1="259.94" x2="512.10" y2="285.29" stroke="#0ecb81" stroke-width="1.4" /><rect x="509.10" y="265.67" width="6" height="16.09" rx="1.5" fill="#0ecb81" /><line x1="522.84" y1="249.70" x2="522.84" y2="284.14" stroke="#0ecb81" stroke-width="1.4" /><rect x="519.84" y="254.39" width="6" height="10.42" rx="1.5" fill="#0ecb81" /><line x1="533.57" y1="245.74" x2="533.57" y2="260.06" stroke="#0ecb81" stroke-width="1.4" /><rect x="530.57" y="253.96" width="6" height="2.00" rx="1.5" fill="#0ecb81" /><line x1="544.30" y1="246.59" x2="544.30" y2="277.98" stroke="#f6465d" stroke-width="1.4" /><rect x="541.30" y="253.96" width="6" height="21.15" rx="1.5" fill="#f6465d" /><line x1="555.04" y1="258.47" x2="555.04" y2="279.14" stroke="#0ecb81" stroke-width="1.4" /><rect x="552.04" y="260.97" width="6" height="15.24" rx="1.5" fill="#0ecb81" /><line x1="565.77" y1="252.81" x2="565.77" y2="263.96" stroke="#0ecb81" stroke-width="1.4" /><rect x="562.77" y="259.27" width="6" height="2.00" rx="1.5" fill="#0ecb81" /><line x1="576.51" y1="254.57" x2="576.51" y2="268.90" stroke="#f6465d" stroke-width="1.4" /><rect x="573.51" y="258.84" width="6" height="5.91" rx="1.5" fill="#f6465d" /><line x1="587.24" y1="249.88" x2="587.24" y2="264.45" stroke="#0ecb81" stroke-width="1.4" /><rect x="584.24" y="255.85" width="6" height="8.53" rx="1.5" fill="#0ecb81" /><line x1="597.97" y1="252.50" x2="597.97" y2="290.60" stroke="#f6465d" stroke-width="1.4" /><rect x="594.97" y="254.82" width="6" height="19.63" rx="1.5" fill="#f6465d" /><line x1="608.71" y1="255.49" x2="608.71" y2="278.47" stroke="#0ecb81" stroke-width="1.4" /><rect x="605.71" y="268.53" width="6" height="5.30" rx="1.5" fill="#0ecb81" /><line x1="619.44" y1="228.30" x2="619.44" y2="279.87" stroke="#0ecb81" stroke-width="1.4" /><rect x="616.44" y="248.54" width="6" height="21.03" rx="1.5" fill="#0ecb81" /><line x1="630.18" y1="210.26" x2="630.18" y2="248.60" stroke="#0ecb81" stroke-width="1.4" /><rect x="627.18" y="221.66" width="6" height="25.91" rx="1.5" fill="#0ecb81" /><line x1="640.91" y1="212.94" x2="640.91" y2="257.68" stroke="#f6465d" stroke-width="1.4" /><rect x="637.91" y="221.90" width="6" height="26.70" rx="1.5" fill="#f6465d" /><line x1="651.65" y1="243.97" x2="651.65" y2="288.16" stroke="#f6465d" stroke-width="1.4" /><rect x="648.65" y="248.23" width="6" height="25.54" rx="1.5" fill="#f6465d" /><line x1="662.38" y1="251.04" x2="662.38" y2="285.05" stroke="#0ecb81" stroke-width="1.4" /><rect x="659.38" y="254.88" width="6" height="18.29" rx="1.5" fill="#0ecb81" /><line x1="673.11" y1="227.94" x2="673.11" y2="259.14" stroke="#0ecb81" stroke-width="1.4" /><rect x="670.11" y="236.23" width="6" height="18.83" rx="1.5" fill="#0ecb81" /><line x1="683.85" y1="192.83" x2="683.85" y2="240.55" stroke="#0ecb81" stroke-width="1.4" /><rect x="680.85" y="199.53" width="6" height="36.63" rx="1.5" fill="#0ecb81" /><line x1="694.58" y1="187.53" x2="694.58" y2="222.09" stroke="#f6465d" stroke-width="1.4" /><rect x="691.58" y="198.92" width="6" height="13.90" rx="1.5" fill="#f6465d" /><line x1="705.32" y1="202.28" x2="705.32" y2="238.48" stroke="#f6465d" stroke-width="1.4" /><rect x="702.32" y="213.06" width="6" height="11.15" rx="1.5" fill="#f6465d" /><line x1="716.05" y1="208.98" x2="716.05" y2="227.08" stroke="#0ecb81" stroke-width="1.4" /><rect x="713.05" y="214.10" width="6" height="10.00" rx="1.5" fill="#0ecb81" /><line x1="726.78" y1="75.43" x2="726.78" y2="224.83" stroke="#0ecb81" stroke-width="1.4" /><rect x="723.78" y="109.26" width="6" height="104.66" rx="1.5" fill="#0ecb81" /><line x1="737.52" y1="58.00" x2="737.52" y2="162.66" stroke="#f6465d" stroke-width="1.4" /><rect x="734.52" y="110.60" width="6" height="45.90" rx="1.5" fill="#f6465d" /><line x1="748.25" y1="148.45" x2="748.25" y2="236.23" stroke="#f6465d" stroke-width="1.4" /><rect x="745.25" y="157.90" width="6" height="25.78" rx="1.5" fill="#f6465d" /><line x1="758.99" y1="151.50" x2="758.99" y2="207.82" stroke="#0ecb81" stroke-width="1.4" /><rect x="755.99" y="156.01" width="6" height="27.98" rx="1.5" fill="#0ecb81" /><line x1="769.72" y1="118.59" x2="769.72" y2="227.94" stroke="#f6465d" stroke-width="1.4" /><rect x="766.72" y="156.93" width="6" height="48.15" rx="1.5" fill="#f6465d" /><line x1="780.46" y1="173.26" x2="780.46" y2="205.14" stroke="#0ecb81" stroke-width="1.4" /><rect x="777.46" y="188.32" width="6" height="16.64" rx="1.5" fill="#0ecb81" /><line x1="791.19" y1="164.97" x2="791.19" y2="284.62" stroke="#f6465d" stroke-width="1.4" /><rect x="788.19" y="188.32" width="6" height="69.12" rx="1.5" fill="#f6465d" /><line x1="801.92" y1="251.34" x2="801.92" y2="339.42" stroke="#f6465d" stroke-width="1.4" /><rect x="798.92" y="258.60" width="6" height="54.67" rx="1.5" fill="#f6465d" /><line x1="812.66" y1="312.17" x2="812.66" y2="452.00" stroke="#f6465d" stroke-width="1.4" /><rect x="809.66" y="314.61" width="6" height="91.98" rx="1.5" fill="#f6465d" /><line x1="823.39" y1="300.04" x2="823.39" y2="427.80" stroke="#0ecb81" stroke-width="1.4" /><rect x="820.39" y="311.32" width="6" height="94.72" rx="1.5" fill="#0ecb81" /><line x1="834.13" y1="284.99" x2="834.13" y2="347.89" stroke="#f6465d" stroke-width="1.4" /><rect x="831.13" y="311.02" width="6" height="18.77" rx="1.5" fill="#f6465d" /><line x1="844.86" y1="294.38" x2="844.86" y2="343.20" stroke="#0ecb81" stroke-width="1.4" /><rect x="841.86" y="300.04" width="6" height="29.75" rx="1.5" fill="#0ecb81" /><line x1="855.59" y1="297.67" x2="855.59" y2="347.16" stroke="#f6465d" stroke-width="1.4" /><rect x="852.59" y="300.04" width="6" height="20.36" rx="1.5" fill="#f6465d" /><line x1="866.33" y1="293.77" x2="866.33" y2="341.86" stroke="#0ecb81" stroke-width="1.4" /><rect x="863.33" y="302.54" width="6" height="17.37" rx="1.5" fill="#0ecb81" /><line x1="877.06" y1="300.78" x2="877.06" y2="324.18" stroke="#f6465d" stroke-width="1.4" /><rect x="874.06" y="301.81" width="6" height="15.42" rx="1.5" fill="#f6465d" /><line x1="887.80" y1="301.08" x2="887.80" y2="321.87" stroke="#0ecb81" stroke-width="1.4" /><rect x="884.80" y="315.16" width="6" height="2.68" rx="1.5" fill="#0ecb81" /><line x1="898.53" y1="302.24" x2="898.53" y2="335.76" stroke="#0ecb81" stroke-width="1.4" /><rect x="895.53" y="310.04" width="6" height="5.12" rx="1.5" fill="#0ecb81" /><line x1="909.27" y1="309.92" x2="909.27" y2="333.69" stroke="#f6465d" stroke-width="1.4" /><rect x="906.27" y="310.59" width="6" height="17.92" rx="1.5" fill="#f6465d" /><line x1="920.00" y1="308.88" x2="920.00" y2="328.88" stroke="#0ecb81" stroke-width="1.4" /><rect x="917.00" y="320.16" width="6" height="8.41" rx="1.5" fill="#0ecb81" />
  <polyline points="286.68,190.94 340.35,312.78 383.29,229.28 394.03,292.18 447.70,177.89" fill="none" stroke="#2fc273" stroke-width="4" stroke-linecap="round" stroke-linejoin="round" />
  <circle cx="286.68" cy="190.94" r="5.5" fill="#2fc273" fill-opacity="0.15" stroke="#2fc273" stroke-width="2" /><text x="286.68" y="178.94" fill="#f3f4f6" font-size="15" font-weight="700" text-anchor="middle">X</text><circle cx="340.35" cy="312.78" r="5.5" fill="#2fc273" fill-opacity="0.15" stroke="#2fc273" stroke-width="2" /><text x="340.35" y="300.78" fill="#f3f4f6" font-size="15" font-weight="700" text-anchor="middle">A</text><circle cx="383.29" cy="229.28" r="5.5" fill="#2fc273" fill-opacity="0.15" stroke="#2fc273" stroke-width="2" /><text x="383.29" y="217.28" fill="#f3f4f6" font-size="15" font-weight="700" text-anchor="middle">B</text><circle cx="394.03" cy="292.18" r="5.5" fill="#2fc273" fill-opacity="0.15" stroke="#2fc273" stroke-width="2" /><text x="394.03" y="280.18" fill="#f3f4f6" font-size="15" font-weight="700" text-anchor="middle">C</text><circle cx="447.70" cy="177.89" r="5.5" fill="#2fc273" fill-opacity="0.15" stroke="#2fc273" stroke-width="2" /><text x="447.70" y="165.89" fill="#f3f4f6" font-size="15" font-weight="700" text-anchor="middle">D</text>
  <text x="56" y="492" fill="#8ba0b5" font-size="18">Complete · TP1 0.15784 · TP2 0.15341 · SL 0.1676</text>
</svg>
