<svg xmlns="http://www.w3.org/2000/svg" width="960" height="540" viewBox="0 0 960 540">
  <rect width="960" height="540" rx="24" fill="#0b1220" />
  <rect x="28" y="28" width="904" height="484" rx="22" fill="#111827" stroke="#1f2937" />
  <text x="56" y="74" fill="#f3f4f6" font-size="34" font-weight="700">PAXGUSDT · AB=CD</text>
  <text x="904" y="74" fill="#8ba0b5" font-size="20" text-anchor="end">Bearish (매도) · Score 91.1</text>
  <line x1="72" y1="58" x2="920" y2="58" stroke="#223045" stroke-width="1" stroke-dasharray="4 8" /><line x1="72" y1="156" x2="920" y2="156" stroke="#223045" stroke-width="1" stroke-dasharray="4 8" /><line x1="72" y1="255" x2="920" y2="255" stroke="#223045" stroke-width="1" stroke-dasharray="4 8" /><line x1="72" y1="353" x2="920" y2="353" stroke="#223045" stroke-width="1" stroke-dasharray="4 8" /><line x1="72" y1="452" x2="920" y2="452" stroke="#223045" stroke-width="1" stroke-dasharray="4 8" />
  <rect x="698.78" y="-22.99" width="84" height="234.03" fill="#fbbf24" fill-opacity="0.12" stroke="#fbbf24" stroke-width="1.5" stroke-dasharray="6 6" />
  <line x1="72.00" y1="58.00" x2="72.00" y2="63.63" stroke="#f6465d" stroke-width="1.4" /><rect x="69.00" y="58.00" width="6" height="2.00" rx="1.5" fill="#f6465d" /><line x1="82.73" y1="59.51" x2="82.73" y2="64.34" stroke="#f6465d" stroke-width="1.4" /><rect x="79.73" y="59.61" width="6" height="4.53" rx="1.5" fill="#f6465d" /><line x1="93.47" y1="64.14" x2="93.47" y2="107.20" stroke="#f6465d" stroke-width="1.4" /><rect x="90.47" y="64.14" width="6" height="42.86" rx="1.5" fill="#f6465d" /><line x1="104.20" y1="106.90" x2="104.20" y2="115.35" stroke="#f6465d" stroke-width="1.4" /><rect x="101.20" y="107.00" width="6" height="2.00" rx="1.5" fill="#f6465d" /><line x1="114.94" y1="99.55" x2="114.94" y2="108.51" stroke="#0ecb81" stroke-width="1.4" /><rect x="111.94" y="99.55" width="6" height="8.85" rx="1.5" fill="#0ecb81" /><line x1="125.67" y1="99.45" x2="125.67" y2="127.72" stroke="#f6465d" stroke-width="1.4" /><rect x="122.67" y="99.65" width="6" height="14.09" rx="1.5" fill="#f6465d" /><line x1="136.41" y1="113.74" x2="136.41" y2="116.76" stroke="#f6465d" stroke-width="1.4" /><rect x="133.41" y="113.74" width="6" height="3.02" rx="1.5" fill="#f6465d" /><line x1="147.14" y1="116.66" x2="147.14" y2="135.37" stroke="#f6465d" stroke-width="1.4" /><rect x="144.14" y="116.76" width="6" height="2.00" rx="1.5" fill="#f6465d" /><line x1="157.87" y1="108.00" x2="157.87" y2="133.16" stroke="#f6465d" stroke-width="1.4" /><rect x="154.87" y="118.57" width="6" height="13.99" rx="1.5" fill="#f6465d" /><line x1="168.61" y1="130.94" x2="168.61" y2="132.55" stroke="#0ecb81" stroke-width="1.4" /><rect x="165.61" y="132.25" width="6" height="2.00" rx="1.5" fill="#0ecb81" /><line x1="179.34" y1="130.94" x2="179.34" y2="135.77" stroke="#0ecb81" stroke-width="1.4" /><rect x="176.34" y="132.15" width="6" height="2.00" rx="1.5" fill="#0ecb81" /><line x1="190.08" y1="132.05" x2="190.08" y2="147.65" stroke="#f6465d" stroke-width="1.4" /><rect x="187.08" y="132.15" width="6" height="13.28" rx="1.5" fill="#f6465d" /><line x1="200.81" y1="125.51" x2="200.81" y2="145.53" stroke="#0ecb81" stroke-width="1.4" /><rect x="197.81" y="127.42" width="6" height="18.01" rx="1.5" fill="#0ecb81" /><line x1="211.54" y1="123.90" x2="211.54" y2="130.34" stroke="#0ecb81" stroke-width="1.4" /><rect x="208.54" y="123.90" width="6" height="3.52" rx="1.5" fill="#0ecb81" /><line x1="222.28" y1="118.97" x2="222.28" y2="124.00" stroke="#0ecb81" stroke-width="1.4" /><rect x="219.28" y="118.97" width="6" height="4.93" rx="1.5" fill="#0ecb81" /><line x1="233.01" y1="115.45" x2="233.01" y2="136.58" stroke="#f6465d" stroke-width="1.4" /><rect x="230.01" y="118.97" width="6" height="2.00" rx="1.5" fill="#f6465d" /><line x1="243.75" y1="120.68" x2="243.75" y2="124.40" stroke="#f6465d" stroke-width="1.4" /><rect x="240.75" y="120.78" width="6" height="3.62" rx="1.5" fill="#f6465d" /><line x1="254.48" y1="124.30" x2="254.48" y2="124.40" stroke="#0ecb81" stroke-width="1.4" /><rect x="251.48" y="124.40" width="6" height="2.00" rx="1.5" fill="#0ecb81" /><line x1="265.22" y1="124.30" x2="265.22" y2="124.61" stroke="#f6465d" stroke-width="1.4" /><rect x="262.22" y="124.30" width="6" height="2.00" rx="1.5" fill="#f6465d" /><line x1="275.95" y1="112.63" x2="275.95" y2="125.71" stroke="#0ecb81" stroke-width="1.4" /><rect x="272.95" y="124.51" width="6" height="2.00" rx="1.5" fill="#0ecb81" /><line x1="286.68" y1="124.40" x2="286.68" y2="133.46" stroke="#0ecb81" stroke-width="1.4" /><rect x="283.68" y="124.40" width="6" height="2.00" rx="1.5" fill="#0ecb81" /><line x1="297.42" y1="122.19" x2="297.42" y2="124.51" stroke="#0ecb81" stroke-width="1.4" /><rect x="294.42" y="123.30" width="6" height="2.00" rx="1.5" fill="#0ecb81" /><line x1="308.15" y1="122.69" x2="308.15" y2="131.35" stroke="#f6465d" stroke-width="1.4" /><rect x="305.15" y="123.30" width="6" height="7.95" rx="1.5" fill="#f6465d" /><line x1="318.89" y1="123.60" x2="318.89" y2="131.35" stroke="#0ecb81" stroke-width="1.4" /><rect x="315.89" y="123.70" width="6" height="7.55" rx="1.5" fill="#0ecb81" /><line x1="329.62" y1="123.60" x2="329.62" y2="131.95" stroke="#f6465d" stroke-width="1.4" /><rect x="326.62" y="123.70" width="6" height="8.25" rx="1.5" fill="#f6465d" /><line x1="340.35" y1="131.85" x2="340.35" y2="141.81" stroke="#f6465d" stroke-width="1.4" /><rect x="337.35" y="131.95" width="6" height="8.15" rx="1.5" fill="#f6465d" /><line x1="351.09" y1="123.70" x2="351.09" y2="143.12" stroke="#f6465d" stroke-width="1.4" /><rect x="348.09" y="140.20" width="6" height="2.82" rx="1.5" fill="#f6465d" /><line x1="361.82" y1="138.29" x2="361.82" y2="145.43" stroke="#0ecb81" stroke-width="1.4" /><rect x="358.82" y="139.70" width="6" height="3.42" rx="1.5" fill="#0ecb81" /><line x1="372.56" y1="139.60" x2="372.56" y2="149.66" stroke="#0ecb81" stroke-width="1.4" /><rect x="369.56" y="139.70" width="6" height="2.00" rx="1.5" fill="#0ecb81" /><line x1="383.29" y1="114.24" x2="383.29" y2="144.12" stroke="#0ecb81" stroke-width="1.4" /><rect x="380.29" y="131.95" width="6" height="7.65" rx="1.5" fill="#0ecb81" /><line x1="394.03" y1="115.55" x2="394.03" y2="135.87" stroke="#f6465d" stroke-width="1.4" /><rect x="391.03" y="131.55" width="6" height="3.22" rx="1.5" fill="#f6465d" /><line x1="404.76" y1="124.51" x2="404.76" y2="138.09" stroke="#0ecb81" stroke-width="1.4" /><rect x="401.76" y="128.03" width="6" height="6.74" rx="1.5" fill="#0ecb81" /><line x1="415.49" y1="128.03" x2="415.49" y2="134.87" stroke="#f6465d" stroke-width="1.4" /><rect x="412.49" y="128.03" width="6" height="6.74" rx="1.5" fill="#f6465d" /><line x1="426.23" y1="134.77" x2="426.23" y2="134.87" stroke="#f6465d" stroke-width="1.4" /><rect x="423.23" y="134.77" width="6" height="2.00" rx="1.5" fill="#f6465d" /><line x1="436.96" y1="126.62" x2="436.96" y2="136.08" stroke="#0ecb81" stroke-width="1.4" /><rect x="433.96" y="134.67" width="6" height="2.00" rx="1.5" fill="#0ecb81" /><line x1="447.70" y1="116.36" x2="447.70" y2="134.67" stroke="#0ecb81" stroke-width="1.4" /><rect x="444.70" y="133.56" width="6" height="2.00" rx="1.5" fill="#0ecb81" /><line x1="458.43" y1="121.59" x2="458.43" y2="133.56" stroke="#0ecb81" stroke-width="1.4" /><rect x="455.43" y="121.99" width="6" height="11.57" rx="1.5" fill="#0ecb81" /><line x1="469.16" y1="121.89" x2="469.16" y2="123.60" stroke="#f6465d" stroke-width="1.4" /><rect x="466.16" y="121.89" width="6" height="2.00" rx="1.5" fill="#f6465d" /><line x1="479.90" y1="123.00" x2="479.90" y2="124.51" stroke="#f6465d" stroke-width="1.4" /><rect x="476.90" y="123.50" width="6" height="2.00" rx="1.5" fill="#f6465d" /><line x1="490.63" y1="123.50" x2="490.63" y2="123.60" stroke="#0ecb81" stroke-width="1.4" /><rect x="487.63" y="123.50" width="6" height="2.00" rx="1.5" fill="#0ecb81" /><line x1="501.37" y1="123.50" x2="501.37" y2="124.51" stroke="#f6465d" stroke-width="1.4" /><rect x="498.37" y="123.50" width="6" height="2.00" rx="1.5" fill="#f6465d" /><line x1="512.10" y1="124.40" x2="512.10" y2="124.51" stroke="#f6465d" stroke-width="1.4" /><rect x="509.10" y="124.40" width="6" height="2.00" rx="1.5" fill="#f6465d" /><line x1="522.84" y1="124.40" x2="522.84" y2="124.51" stroke="#0ecb81" stroke-width="1.4" /><rect x="519.84" y="124.51" width="6" height="2.00" rx="1.5" fill="#0ecb81" /><line x1="533.57" y1="124.40" x2="533.57" y2="124.51" stroke="#0ecb81" stroke-width="1.4" /><rect x="530.57" y="124.40" width="6" height="2.00" rx="1.5" fill="#0ecb81" /><line x1="544.30" y1="124.40" x2="544.30" y2="124.51" stroke="#0ecb81" stroke-width="1.4" /><rect x="541.30" y="124.51" width="6" height="2.00" rx="1.5" fill="#0ecb81" /><line x1="555.04" y1="121.49" x2="555.04" y2="124.51" stroke="#0ecb81" stroke-width="1.4" /><rect x="552.04" y="121.59" width="6" height="2.82" rx="1.5" fill="#0ecb81" /><line x1="565.77" y1="121.49" x2="565.77" y2="124.51" stroke="#f6465d" stroke-width="1.4" /><rect x="562.77" y="121.49" width="6" height="2.92" rx="1.5" fill="#f6465d" /><line x1="576.51" y1="124.30" x2="576.51" y2="124.40" stroke="#0ecb81" stroke-width="1.4" /><rect x="573.51" y="124.30" width="6" height="2.00" rx="1.5" fill="#0ecb81" /><line x1="587.24" y1="124.30" x2="587.24" y2="124.40" stroke="#0ecb81" stroke-width="1.4" /><rect x="584.24" y="124.40" width="6" height="2.00" rx="1.5" fill="#0ecb81" /><line x1="597.97" y1="124.30" x2="597.97" y2="124.51" stroke="#f6465d" stroke-width="1.4" /><rect x="594.97" y="124.30" width="6" height="2.00" rx="1.5" fill="#f6465d" /><line x1="608.71" y1="124.40" x2="608.71" y2="131.04" stroke="#f6465d" stroke-width="1.4" /><rect x="605.71" y="124.51" width="6" height="6.54" rx="1.5" fill="#f6465d" /><line x1="619.44" y1="130.94" x2="619.44" y2="144.63" stroke="#0ecb81" stroke-width="1.4" /><rect x="616.44" y="130.94" width="6" height="2.00" rx="1.5" fill="#0ecb81" /><line x1="630.18" y1="110.92" x2="630.18" y2="131.04" stroke="#0ecb81" stroke-width="1.4" /><rect x="627.18" y="111.02" width="6" height="20.02" rx="1.5" fill="#0ecb81" /><line x1="640.91" y1="109.41" x2="640.91" y2="116.96" stroke="#f6465d" stroke-width="1.4" /><rect x="637.91" y="111.02" width="6" height="4.43" rx="1.5" fill="#f6465d" /><line x1="651.65" y1="114.04" x2="651.65" y2="130.84" stroke="#f6465d" stroke-width="1.4" /><rect x="648.65" y="115.35" width="6" height="13.88" rx="1.5" fill="#f6465d" /><line x1="662.38" y1="129.13" x2="662.38" y2="129.23" stroke="#0ecb81" stroke-width="1.4" /><rect x="659.38" y="129.13" width="6" height="2.00" rx="1.5" fill="#0ecb81" /><line x1="673.11" y1="129.13" x2="673.11" y2="144.63" stroke="#f6465d" stroke-width="1.4" /><rect x="670.11" y="129.13" width="6" height="13.18" rx="1.5" fill="#f6465d" /><line x1="683.85" y1="137.08" x2="683.85" y2="142.41" stroke="#0ecb81" stroke-width="1.4" /><rect x="680.85" y="137.58" width="6" height="4.73" rx="1.5" fill="#0ecb81" /><line x1="694.58" y1="137.58" x2="694.58" y2="144.63" stroke="#f6465d" stroke-width="1.4" /><rect x="691.58" y="137.58" width="6" height="7.04" rx="1.5" fill="#f6465d" /><line x1="705.32" y1="131.04" x2="705.32" y2="144.63" stroke="#0ecb81" stroke-width="1.4" /><rect x="702.32" y="131.04" width="6" height="13.48" rx="1.5" fill="#0ecb81" /><line x1="716.05" y1="127.52" x2="716.05" y2="132.05" stroke="#f6465d" stroke-width="1.4" /><rect x="713.05" y="131.04" width="6" height="2.00" rx="1.5" fill="#f6465d" /><line x1="726.78" y1="123.20" x2="726.78" y2="142.51" stroke="#f6465d" stroke-width="1.4" /><rect x="723.78" y="131.75" width="6" height="10.66" rx="1.5" fill="#f6465d" /><line x1="737.52" y1="138.39" x2="737.52" y2="142.51" stroke="#0ecb81" stroke-width="1.4" /><rect x="734.52" y="138.49" width="6" height="3.92" rx="1.5" fill="#0ecb81" /><line x1="748.25" y1="138.39" x2="748.25" y2="138.49" stroke="#f6465d" stroke-width="1.4" /><rect x="745.25" y="138.39" width="6" height="2.00" rx="1.5" fill="#f6465d" /><line x1="758.99" y1="129.23" x2="758.99" y2="138.49" stroke="#0ecb81" stroke-width="1.4" /><rect x="755.99" y="129.23" width="6" height="9.16" rx="1.5" fill="#0ecb81" /><line x1="769.72" y1="126.52" x2="769.72" y2="136.98" stroke="#f6465d" stroke-width="1.4" /><rect x="766.72" y="129.23" width="6" height="7.75" rx="1.5" fill="#f6465d" /><line x1="780.46" y1="136.88" x2="780.46" y2="144.73" stroke="#f6465d" stroke-width="1.4" /><rect x="777.46" y="136.98" width="6" height="7.75" rx="1.5" fill="#f6465d" /><line x1="791.19" y1="144.63" x2="791.19" y2="166.76" stroke="#f6465d" stroke-width="1.4" /><rect x="788.19" y="144.73" width="6" height="22.03" rx="1.5" fill="#f6465d" /><line x1="801.92" y1="166.66" x2="801.92" y2="227.13" stroke="#f6465d" stroke-width="1.4" /><rect x="798.92" y="166.76" width="6" height="35.72" rx="1.5" fill="#f6465d" /><line x1="812.66" y1="192.82" x2="812.66" y2="202.58" stroke="#0ecb81" stroke-width="1.4" /><rect x="809.66" y="201.88" width="6" height="2.00" rx="1.5" fill="#0ecb81" /><line x1="823.39" y1="194.73" x2="823.39" y2="206.20" stroke="#f6465d" stroke-width="1.4" /><rect x="820.39" y="201.78" width="6" height="4.33" rx="1.5" fill="#f6465d" /><line x1="834.13" y1="206.10" x2="834.13" y2="214.15" stroke="#f6465d" stroke-width="1.4" /><rect x="831.13" y="206.20" width="6" height="3.32" rx="1.5" fill="#f6465d" /><line x1="844.86" y1="209.52" x2="844.86" y2="242.52" stroke="#f6465d" stroke-width="1.4" /><rect x="841.86" y="209.62" width="6" height="32.80" rx="1.5" fill="#f6465d" /><line x1="855.59" y1="240.71" x2="855.59" y2="273.11" stroke="#f6465d" stroke-width="1.4" /><rect x="852.59" y="242.52" width="6" height="29.38" rx="1.5" fill="#f6465d" /><line x1="866.33" y1="253.19" x2="866.33" y2="291.02" stroke="#0ecb81" stroke-width="1.4" /><rect x="863.33" y="253.29" width="6" height="18.71" rx="1.5" fill="#0ecb81" /><line x1="877.06" y1="253.29" x2="877.06" y2="352.09" stroke="#f6465d" stroke-width="1.4" /><rect x="874.06" y="253.29" width="6" height="93.37" rx="1.5" fill="#f6465d" /><line x1="887.80" y1="346.76" x2="887.80" y2="452.00" stroke="#f6465d" stroke-width="1.4" /><rect x="884.80" y="346.76" width="6" height="80.69" rx="1.5" fill="#f6465d" /><line x1="898.53" y1="327.34" x2="898.53" y2="427.55" stroke="#0ecb81" stroke-width="1.4" /><rect x="895.53" y="327.64" width="6" height="99.91" rx="1.5" fill="#0ecb81" /><line x1="909.27" y1="326.94" x2="909.27" y2="382.17" stroke="#f6465d" stroke-width="1.4" /><rect x="906.27" y="327.74" width="6" height="21.53" rx="1.5" fill="#f6465d" /><line x1="920.00" y1="349.27" x2="920.00" y2="350.78" stroke="#f6465d" stroke-width="1.4" /><rect x="917.00" y="349.27" width="6" height="2.00" rx="1.5" fill="#f6465d" />
  <polyline points="565.77,121.49 619.44,144.63 640.91,109.41 705.32,144.63 726.78,123.20" fill="none" stroke="#2fc273" stroke-width="4" stroke-linecap="round" stroke-linejoin="round" />
  <circle cx="565.77" cy="121.49" r="5.5" fill="#2fc273" fill-opacity="0.15" stroke="#2fc273" stroke-width="2" /><text x="565.77" y="109.49" fill="#f3f4f6" font-size="15" font-weight="700" text-anchor="middle">X</text><circle cx="619.44" cy="144.63" r="5.5" fill="#2fc273" fill-opacity="0.15" stroke="#2fc273" stroke-width="2" /><text x="619.44" y="132.63" fill="#f3f4f6" font-size="15" font-weight="700" text-anchor="middle">A</text><circle cx="640.91" cy="109.41" r="5.5" fill="#2fc273" fill-opacity="0.15" stroke="#2fc273" stroke-width="2" /><text x="640.91" y="97.41" fill="#f3f4f6" font-size="15" font-weight="700" text-anchor="middle">B</text><circle cx="705.32" cy="144.63" r="5.5" fill="#2fc273" fill-opacity="0.15" stroke="#2fc273" stroke-width="2" /><text x="705.32" y="132.63" fill="#f3f4f6" font-size="15" font-weight="700" text-anchor="middle">C</text><circle cx="726.78" cy="123.20" r="5.5" fill="#2fc273" fill-opacity="0.15" stroke="#2fc273" stroke-width="2" /><text x="726.78" y="111.20" fill="#f3f4f6" font-size="15" font-weight="700" text-anchor="middle">D</text>
  <text x="56" y="492" fill="#8ba0b5" font-size="18">일반 완성 · TP1 4647.97 · TP2 4647.46 · SL 4649.08</text>
</svg>
