<svg xmlns="http://www.w3.org/2000/svg" width="960" height="540" viewBox="0 0 960 540">
  <rect width="960" height="540" rx="24" fill="#0b1220" />
  <rect x="28" y="28" width="904" height="484" rx="22" fill="#111827" stroke="#1f2937" />
  <text x="56" y="74" fill="#f3f4f6" font-size="34" font-weight="700">PENGUUSDT · AB=CD</text>
  <text x="904" y="74" fill="#8ba0b5" font-size="20" text-anchor="end">Bullish (매수) · Score 88.7</text>
  <line x1="72" y1="58" x2="920" y2="58" stroke="#223045" stroke-width="1" stroke-dasharray="4 8" /><line x1="72" y1="156" x2="920" y2="156" stroke="#223045" stroke-width="1" stroke-dasharray="4 8" /><line x1="72" y1="255" x2="920" y2="255" stroke="#223045" stroke-width="1" stroke-dasharray="4 8" /><line x1="72" y1="353" x2="920" y2="353" stroke="#223045" stroke-width="1" stroke-dasharray="4 8" /><line x1="72" y1="452" x2="920" y2="452" stroke="#223045" stroke-width="1" stroke-dasharray="4 8" />
  <rect x="709.52" y="259.97" width="84" height="23.18" fill="#fbbf24" fill-opacity="0.12" stroke="#fbbf24" stroke-width="1.5" stroke-dasharray="6 6" />
  <line x1="72.00" y1="427.50" x2="72.00" y2="450.68" stroke="#f6465d" stroke-width="1.4" /><rect x="69.00" y="427.50" width="6" height="16.55" rx="1.5" fill="#f6465d" /><line x1="82.73" y1="381.81" x2="82.73" y2="446.70" stroke="#0ecb81" stroke-width="1.4" /><rect x="79.73" y="395.05" width="6" height="48.34" rx="1.5" fill="#0ecb81" /><line x1="93.47" y1="360.62" x2="93.47" y2="409.62" stroke="#f6465d" stroke-width="1.4" /><rect x="90.47" y="394.39" width="6" height="3.31" rx="1.5" fill="#f6465d" /><line x1="104.20" y1="394.39" x2="104.20" y2="415.58" stroke="#f6465d" stroke-width="1.4" /><rect x="101.20" y="397.70" width="6" height="12.58" rx="1.5" fill="#f6465d" /><line x1="114.94" y1="397.70" x2="114.94" y2="411.61" stroke="#0ecb81" stroke-width="1.4" /><rect x="111.94" y="403.66" width="6" height="6.62" rx="1.5" fill="#0ecb81" /><line x1="125.67" y1="395.71" x2="125.67" y2="416.24" stroke="#f6465d" stroke-width="1.4" /><rect x="122.67" y="403.66" width="6" height="11.92" rx="1.5" fill="#f6465d" /><line x1="136.41" y1="405.65" x2="136.41" y2="418.89" stroke="#0ecb81" stroke-width="1.4" /><rect x="133.41" y="412.93" width="6" height="3.31" rx="1.5" fill="#0ecb81" /><line x1="147.14" y1="412.27" x2="147.14" y2="430.81" stroke="#f6465d" stroke-width="1.4" /><rect x="144.14" y="412.93" width="6" height="15.23" rx="1.5" fill="#f6465d" /><line x1="157.87" y1="417.57" x2="157.87" y2="437.43" stroke="#0ecb81" stroke-width="1.4" /><rect x="154.87" y="419.55" width="6" height="8.61" rx="1.5" fill="#0ecb81" /><line x1="168.61" y1="418.23" x2="168.61" y2="444.72" stroke="#f6465d" stroke-width="1.4" /><rect x="165.61" y="419.55" width="6" height="7.95" rx="1.5" fill="#f6465d" /><line x1="179.34" y1="412.27" x2="179.34" y2="437.43" stroke="#0ecb81" stroke-width="1.4" /><rect x="176.34" y="414.26" width="6" height="13.24" rx="1.5" fill="#0ecb81" /><line x1="190.08" y1="408.30" x2="190.08" y2="421.54" stroke="#f6465d" stroke-width="1.4" /><rect x="187.08" y="413.59" width="6" height="4.64" rx="1.5" fill="#f6465d" /><line x1="200.81" y1="416.90" x2="200.81" y2="430.81" stroke="#f6465d" stroke-width="1.4" /><rect x="197.81" y="418.23" width="6" height="8.61" rx="1.5" fill="#f6465d" /><line x1="211.54" y1="425.51" x2="211.54" y2="433.46" stroke="#f6465d" stroke-width="1.4" /><rect x="208.54" y="426.84" width="6" height="2.00" rx="1.5" fill="#f6465d" /><line x1="222.28" y1="409.62" x2="222.28" y2="428.16" stroke="#0ecb81" stroke-width="1.4" /><rect x="219.28" y="416.24" width="6" height="11.92" rx="1.5" fill="#0ecb81" /><line x1="233.01" y1="413.59" x2="233.01" y2="426.17" stroke="#f6465d" stroke-width="1.4" /><rect x="230.01" y="416.24" width="6" height="4.64" rx="1.5" fill="#f6465d" /><line x1="243.75" y1="420.88" x2="243.75" y2="431.47" stroke="#f6465d" stroke-width="1.4" /><rect x="240.75" y="420.88" width="6" height="8.61" rx="1.5" fill="#f6465d" /><line x1="254.48" y1="410.28" x2="254.48" y2="430.15" stroke="#0ecb81" stroke-width="1.4" /><rect x="251.48" y="416.90" width="6" height="12.58" rx="1.5" fill="#0ecb81" /><line x1="265.22" y1="416.24" x2="265.22" y2="445.38" stroke="#f6465d" stroke-width="1.4" /><rect x="262.22" y="416.24" width="6" height="27.15" rx="1.5" fill="#f6465d" /><line x1="275.95" y1="428.16" x2="275.95" y2="444.72" stroke="#0ecb81" stroke-width="1.4" /><rect x="272.95" y="428.82" width="6" height="13.91" rx="1.5" fill="#0ecb81" /><line x1="286.68" y1="423.53" x2="286.68" y2="435.45" stroke="#f6465d" stroke-width="1.4" /><rect x="283.68" y="428.16" width="6" height="3.31" rx="1.5" fill="#f6465d" /><line x1="297.42" y1="426.84" x2="297.42" y2="436.11" stroke="#f6465d" stroke-width="1.4" /><rect x="294.42" y="431.47" width="6" height="2.00" rx="1.5" fill="#f6465d" /><line x1="308.15" y1="413.59" x2="308.15" y2="436.77" stroke="#0ecb81" stroke-width="1.4" /><rect x="305.15" y="430.81" width="6" height="2.65" rx="1.5" fill="#0ecb81" /><line x1="318.89" y1="419.55" x2="318.89" y2="432.80" stroke="#0ecb81" stroke-width="1.4" /><rect x="315.89" y="423.53" width="6" height="7.95" rx="1.5" fill="#0ecb81" /><line x1="329.62" y1="422.20" x2="329.62" y2="441.41" stroke="#f6465d" stroke-width="1.4" /><rect x="326.62" y="424.19" width="6" height="10.59" rx="1.5" fill="#f6465d" /><line x1="340.35" y1="434.78" x2="340.35" y2="449.35" stroke="#f6465d" stroke-width="1.4" /><rect x="337.35" y="435.45" width="6" height="11.26" rx="1.5" fill="#f6465d" /><line x1="351.09" y1="442.07" x2="351.09" y2="452.00" stroke="#0ecb81" stroke-width="1.4" /><rect x="348.09" y="442.73" width="6" height="3.97" rx="1.5" fill="#0ecb81" /><line x1="361.82" y1="419.55" x2="361.82" y2="442.73" stroke="#0ecb81" stroke-width="1.4" /><rect x="358.82" y="430.15" width="6" height="12.58" rx="1.5" fill="#0ecb81" /><line x1="372.56" y1="416.90" x2="372.56" y2="438.76" stroke="#f6465d" stroke-width="1.4" /><rect x="369.56" y="430.15" width="6" height="2.00" rx="1.5" fill="#f6465d" /><line x1="383.29" y1="427.50" x2="383.29" y2="445.38" stroke="#f6465d" stroke-width="1.4" /><rect x="380.29" y="430.81" width="6" height="2.65" rx="1.5" fill="#f6465d" /><line x1="394.03" y1="383.13" x2="394.03" y2="434.78" stroke="#0ecb81" stroke-width="1.4" /><rect x="391.03" y="390.42" width="6" height="43.70" rx="1.5" fill="#0ecb81" /><line x1="404.76" y1="361.28" x2="404.76" y2="393.07" stroke="#0ecb81" stroke-width="1.4" /><rect x="401.76" y="363.93" width="6" height="26.49" rx="1.5" fill="#0ecb81" /><line x1="415.49" y1="342.08" x2="415.49" y2="371.88" stroke="#0ecb81" stroke-width="1.4" /><rect x="412.49" y="343.40" width="6" height="19.87" rx="1.5" fill="#0ecb81" /><line x1="426.23" y1="308.31" x2="426.23" y2="344.06" stroke="#0ecb81" stroke-width="1.4" /><rect x="423.23" y="326.85" width="6" height="17.22" rx="1.5" fill="#0ecb81" /><line x1="436.96" y1="291.09" x2="436.96" y2="327.51" stroke="#0ecb81" stroke-width="1.4" /><rect x="433.96" y="312.94" width="6" height="14.57" rx="1.5" fill="#0ecb81" /><line x1="447.70" y1="273.21" x2="447.70" y2="312.94" stroke="#0ecb81" stroke-width="1.4" /><rect x="444.70" y="273.87" width="6" height="39.07" rx="1.5" fill="#0ecb81" /><line x1="458.43" y1="205.01" x2="458.43" y2="273.21" stroke="#0ecb81" stroke-width="1.4" /><rect x="455.43" y="217.59" width="6" height="55.62" rx="1.5" fill="#0ecb81" /><line x1="469.16" y1="193.09" x2="469.16" y2="234.14" stroke="#0ecb81" stroke-width="1.4" /><rect x="466.16" y="199.71" width="6" height="17.88" rx="1.5" fill="#0ecb81" /><line x1="479.90" y1="180.50" x2="479.90" y2="214.28" stroke="#0ecb81" stroke-width="1.4" /><rect x="476.90" y="189.77" width="6" height="9.93" rx="1.5" fill="#0ecb81" /><line x1="490.63" y1="181.83" x2="490.63" y2="232.82" stroke="#f6465d" stroke-width="1.4" /><rect x="487.63" y="189.77" width="6" height="33.11" rx="1.5" fill="#f6465d" /><line x1="501.37" y1="210.96" x2="501.37" y2="236.13" stroke="#f6465d" stroke-width="1.4" /><rect x="498.37" y="223.55" width="6" height="5.96" rx="1.5" fill="#f6465d" /><line x1="512.10" y1="228.84" x2="512.10" y2="257.32" stroke="#0ecb81" stroke-width="1.4" /><rect x="509.10" y="228.84" width="6" height="2.00" rx="1.5" fill="#0ecb81" /><line x1="522.84" y1="209.64" x2="522.84" y2="234.14" stroke="#0ecb81" stroke-width="1.4" /><rect x="519.84" y="228.18" width="6" height="2.00" rx="1.5" fill="#0ecb81" /><line x1="533.57" y1="214.94" x2="533.57" y2="234.80" stroke="#f6465d" stroke-width="1.4" /><rect x="530.57" y="228.18" width="6" height="2.65" rx="1.5" fill="#f6465d" /><line x1="544.30" y1="129.52" x2="544.30" y2="232.82" stroke="#0ecb81" stroke-width="1.4" /><rect x="541.30" y="159.98" width="6" height="70.85" rx="1.5" fill="#0ecb81" /><line x1="555.04" y1="141.44" x2="555.04" y2="180.50" stroke="#0ecb81" stroke-width="1.4" /><rect x="552.04" y="159.31" width="6" height="2.00" rx="1.5" fill="#0ecb81" /><line x1="565.77" y1="140.11" x2="565.77" y2="178.52" stroke="#f6465d" stroke-width="1.4" /><rect x="562.77" y="159.31" width="6" height="11.92" rx="1.5" fill="#f6465d" /><line x1="576.51" y1="152.03" x2="576.51" y2="172.56" stroke="#0ecb81" stroke-width="1.4" /><rect x="573.51" y="169.25" width="6" height="2.00" rx="1.5" fill="#0ecb81" /><line x1="587.24" y1="152.69" x2="587.24" y2="184.48" stroke="#f6465d" stroke-width="1.4" /><rect x="584.24" y="169.91" width="6" height="13.91" rx="1.5" fill="#f6465d" /><line x1="597.97" y1="181.83" x2="597.97" y2="206.33" stroke="#f6465d" stroke-width="1.4" /><rect x="594.97" y="183.82" width="6" height="19.20" rx="1.5" fill="#f6465d" /><line x1="608.71" y1="199.71" x2="608.71" y2="226.86" stroke="#f6465d" stroke-width="1.4" /><rect x="605.71" y="203.02" width="6" height="10.59" rx="1.5" fill="#f6465d" /><line x1="619.44" y1="207.65" x2="619.44" y2="221.56" stroke="#f6465d" stroke-width="1.4" /><rect x="616.44" y="214.28" width="6" height="2.00" rx="1.5" fill="#f6465d" /><line x1="630.18" y1="184.48" x2="630.18" y2="215.60" stroke="#0ecb81" stroke-width="1.4" /><rect x="627.18" y="199.05" width="6" height="16.55" rx="1.5" fill="#0ecb81" /><line x1="640.91" y1="197.72" x2="640.91" y2="217.59" stroke="#f6465d" stroke-width="1.4" /><rect x="637.91" y="198.38" width="6" height="2.00" rx="1.5" fill="#f6465d" /><line x1="651.65" y1="162.63" x2="651.65" y2="205.67" stroke="#0ecb81" stroke-width="1.4" /><rect x="648.65" y="180.50" width="6" height="17.88" rx="1.5" fill="#0ecb81" /><line x1="662.38" y1="178.52" x2="662.38" y2="201.03" stroke="#f6465d" stroke-width="1.4" /><rect x="659.38" y="180.50" width="6" height="17.22" rx="1.5" fill="#f6465d" /><line x1="673.11" y1="189.11" x2="673.11" y2="210.96" stroke="#f6465d" stroke-width="1.4" /><rect x="670.11" y="198.38" width="6" height="6.62" rx="1.5" fill="#f6465d" /><line x1="683.85" y1="195.07" x2="683.85" y2="218.91" stroke="#f6465d" stroke-width="1.4" /><rect x="680.85" y="205.01" width="6" height="7.95" rx="1.5" fill="#f6465d" /><line x1="694.58" y1="205.67" x2="694.58" y2="216.92" stroke="#0ecb81" stroke-width="1.4" /><rect x="691.58" y="210.30" width="6" height="2.65" rx="1.5" fill="#0ecb81" /><line x1="705.32" y1="206.99" x2="705.32" y2="220.90" stroke="#f6465d" stroke-width="1.4" /><rect x="702.32" y="209.64" width="6" height="8.61" rx="1.5" fill="#f6465d" /><line x1="716.05" y1="201.69" x2="716.05" y2="228.18" stroke="#0ecb81" stroke-width="1.4" /><rect x="713.05" y="203.02" width="6" height="15.23" rx="1.5" fill="#0ecb81" /><line x1="726.78" y1="203.68" x2="726.78" y2="250.70" stroke="#f6465d" stroke-width="1.4" /><rect x="723.78" y="203.68" width="6" height="41.72" rx="1.5" fill="#f6465d" /><line x1="737.52" y1="221.56" x2="737.52" y2="255.33" stroke="#0ecb81" stroke-width="1.4" /><rect x="734.52" y="228.84" width="6" height="17.22" rx="1.5" fill="#0ecb81" /><line x1="748.25" y1="210.96" x2="748.25" y2="231.49" stroke="#0ecb81" stroke-width="1.4" /><rect x="745.25" y="222.88" width="6" height="5.96" rx="1.5" fill="#0ecb81" /><line x1="758.99" y1="220.90" x2="758.99" y2="247.38" stroke="#f6465d" stroke-width="1.4" /><rect x="755.99" y="222.88" width="6" height="20.53" rx="1.5" fill="#f6465d" /><line x1="769.72" y1="214.94" x2="769.72" y2="244.07" stroke="#0ecb81" stroke-width="1.4" /><rect x="766.72" y="228.84" width="6" height="13.91" rx="1.5" fill="#0ecb81" /><line x1="780.46" y1="226.86" x2="780.46" y2="240.76" stroke="#f6465d" stroke-width="1.4" /><rect x="777.46" y="228.84" width="6" height="2.65" rx="1.5" fill="#f6465d" /><line x1="791.19" y1="210.30" x2="791.19" y2="237.45" stroke="#0ecb81" stroke-width="1.4" /><rect x="788.19" y="224.21" width="6" height="6.62" rx="1.5" fill="#0ecb81" /><line x1="801.92" y1="205.67" x2="801.92" y2="225.53" stroke="#0ecb81" stroke-width="1.4" /><rect x="798.92" y="208.98" width="6" height="14.57" rx="1.5" fill="#0ecb81" /><line x1="812.66" y1="199.05" x2="812.66" y2="217.59" stroke="#0ecb81" stroke-width="1.4" /><rect x="809.66" y="206.33" width="6" height="2.00" rx="1.5" fill="#0ecb81" /><line x1="823.39" y1="171.90" x2="823.39" y2="208.32" stroke="#0ecb81" stroke-width="1.4" /><rect x="820.39" y="192.42" width="6" height="13.91" rx="1.5" fill="#0ecb81" /><line x1="834.13" y1="189.77" x2="834.13" y2="206.33" stroke="#f6465d" stroke-width="1.4" /><rect x="831.13" y="193.09" width="6" height="7.28" rx="1.5" fill="#f6465d" /><line x1="844.86" y1="157.99" x2="844.86" y2="201.03" stroke="#0ecb81" stroke-width="1.4" /><rect x="841.86" y="173.88" width="6" height="27.15" rx="1.5" fill="#0ecb81" /><line x1="855.59" y1="125.54" x2="855.59" y2="175.21" stroke="#0ecb81" stroke-width="1.4" /><rect x="852.59" y="155.34" width="6" height="19.87" rx="1.5" fill="#0ecb81" /><line x1="866.33" y1="138.79" x2="866.33" y2="183.15" stroke="#f6465d" stroke-width="1.4" /><rect x="863.33" y="154.68" width="6" height="7.28" rx="1.5" fill="#f6465d" /><line x1="877.06" y1="136.80" x2="877.06" y2="161.96" stroke="#0ecb81" stroke-width="1.4" /><rect x="874.06" y="138.79" width="6" height="23.18" rx="1.5" fill="#0ecb81" /><line x1="887.80" y1="101.70" x2="887.80" y2="138.79" stroke="#0ecb81" stroke-width="1.4" /><rect x="884.80" y="105.02" width="6" height="33.77" rx="1.5" fill="#0ecb81" /><line x1="898.53" y1="81.84" x2="898.53" y2="105.68" stroke="#0ecb81" stroke-width="1.4" /><rect x="895.53" y="83.83" width="6" height="21.19" rx="1.5" fill="#0ecb81" /><line x1="909.27" y1="58.00" x2="909.27" y2="83.83" stroke="#0ecb81" stroke-width="1.4" /><rect x="906.27" y="69.26" width="6" height="14.57" rx="1.5" fill="#0ecb81" /><line x1="920.00" y1="64.62" x2="920.00" y2="94.42" stroke="#f6465d" stroke-width="1.4" /><rect x="917.00" y="69.26" width="6" height="8.61" rx="1.5" fill="#f6465d" />
  <polyline points="512.10,257.32 544.30,129.52 608.71,226.86 651.65,162.63 737.52,255.33" fill="none" stroke="#2fc273" stroke-width="4" stroke-linecap="round" stroke-linejoin="round" />
  <circle cx="512.10" cy="257.32" r="5.5" fill="#2fc273" fill-opacity="0.15" stroke="#2fc273" stroke-width="2" /><text x="512.10" y="245.32" fill="#f3f4f6" font-size="15" font-weight="700" text-anchor="middle">X</text><circle cx="544.30" cy="129.52" r="5.5" fill="#2fc273" fill-opacity="0.15" stroke="#2fc273" stroke-width="2" /><text x="544.30" y="117.52" fill="#f3f4f6" font-size="15" font-weight="700" text-anchor="middle">A</text><circle cx="608.71" cy="226.86" r="5.5" fill="#2fc273" fill-opacity="0.15" stroke="#2fc273" stroke-width="2" /><text x="608.71" y="214.86" fill="#f3f4f6" font-size="15" font-weight="700" text-anchor="middle">B</text><circle cx="651.65" cy="162.63" r="5.5" fill="#2fc273" fill-opacity="0.15" stroke="#2fc273" stroke-width="2" /><text x="651.65" y="150.63" fill="#f3f4f6" font-size="15" font-weight="700" text-anchor="middle">C</text><circle cx="737.52" cy="255.33" r="5.5" fill="#2fc273" fill-opacity="0.15" stroke="#2fc273" stroke-width="2" /><text x="737.52" y="243.33" fill="#f3f4f6" font-size="15" font-weight="700" text-anchor="middle">D</text>
  <text x="56" y="492" fill="#8ba0b5" font-size="18">일반 완성 · TP1 0.00639 · TP2 0.006424 · SL 0.006312</text>
</svg>
