<svg xmlns="http://www.w3.org/2000/svg" width="960" height="540" viewBox="0 0 960 540">
  <rect width="960" height="540" rx="24" fill="#0b1220" />
  <rect x="28" y="28" width="904" height="484" rx="22" fill="#111827" stroke="#1f2937" />
  <text x="56" y="74" fill="#f3f4f6" font-size="34" font-weight="700">PENGUUSDT · AB=CD</text>
  <text x="904" y="74" fill="#8ba0b5" font-size="20" text-anchor="end">Bullish (매수) · Score 90.7</text>
  <line x1="72" y1="58" x2="920" y2="58" stroke="#223045" stroke-width="1" stroke-dasharray="4 8" /><line x1="72" y1="156" x2="920" y2="156" stroke="#223045" stroke-width="1" stroke-dasharray="4 8" /><line x1="72" y1="255" x2="920" y2="255" stroke="#223045" stroke-width="1" stroke-dasharray="4 8" /><line x1="72" y1="353" x2="920" y2="353" stroke="#223045" stroke-width="1" stroke-dasharray="4 8" /><line x1="72" y1="452" x2="920" y2="452" stroke="#223045" stroke-width="1" stroke-dasharray="4 8" />
  <rect x="537.77" y="456.59" width="84" height="22.95" fill="#fbbf24" fill-opacity="0.12" stroke="#fbbf24" stroke-width="1.5" stroke-dasharray="6 6" />
  <line x1="72.00" y1="411.45" x2="72.00" y2="422.16" stroke="#0ecb81" stroke-width="1.4" /><rect x="69.00" y="414.51" width="6" height="2.00" rx="1.5" fill="#0ecb81" /><line x1="82.73" y1="399.21" x2="82.73" y2="416.04" stroke="#0ecb81" stroke-width="1.4" /><rect x="79.73" y="408.39" width="6" height="6.89" rx="1.5" fill="#0ecb81" /><line x1="93.47" y1="400.74" x2="93.47" y2="409.92" stroke="#0ecb81" stroke-width="1.4" /><rect x="90.47" y="406.10" width="6" height="2.30" rx="1.5" fill="#0ecb81" /><line x1="104.20" y1="390.80" x2="104.20" y2="406.10" stroke="#0ecb81" stroke-width="1.4" /><rect x="101.20" y="394.62" width="6" height="11.48" rx="1.5" fill="#0ecb81" /><line x1="114.94" y1="378.56" x2="114.94" y2="393.86" stroke="#0ecb81" stroke-width="1.4" /><rect x="111.94" y="387.74" width="6" height="6.12" rx="1.5" fill="#0ecb81" /><line x1="125.67" y1="375.50" x2="125.67" y2="394.62" stroke="#0ecb81" stroke-width="1.4" /><rect x="122.67" y="378.56" width="6" height="9.95" rx="1.5" fill="#0ecb81" /><line x1="136.41" y1="377.03" x2="136.41" y2="387.74" stroke="#f6465d" stroke-width="1.4" /><rect x="133.41" y="378.56" width="6" height="3.06" rx="1.5" fill="#f6465d" /><line x1="147.14" y1="377.79" x2="147.14" y2="384.68" stroke="#0ecb81" stroke-width="1.4" /><rect x="144.14" y="380.85" width="6" height="2.00" rx="1.5" fill="#0ecb81" /><line x1="157.87" y1="378.56" x2="157.87" y2="386.21" stroke="#f6465d" stroke-width="1.4" /><rect x="154.87" y="380.85" width="6" height="2.00" rx="1.5" fill="#f6465d" /><line x1="168.61" y1="378.56" x2="168.61" y2="384.68" stroke="#0ecb81" stroke-width="1.4" /><rect x="165.61" y="381.62" width="6" height="2.00" rx="1.5" fill="#0ecb81" /><line x1="179.34" y1="357.13" x2="179.34" y2="385.44" stroke="#0ecb81" stroke-width="1.4" /><rect x="176.34" y="377.79" width="6" height="3.06" rx="1.5" fill="#0ecb81" /><line x1="190.08" y1="376.26" x2="190.08" y2="397.68" stroke="#f6465d" stroke-width="1.4" /><rect x="187.08" y="377.79" width="6" height="19.89" rx="1.5" fill="#f6465d" /><line x1="200.81" y1="393.86" x2="200.81" y2="406.10" stroke="#f6465d" stroke-width="1.4" /><rect x="197.81" y="398.45" width="6" height="2.00" rx="1.5" fill="#f6465d" /><line x1="211.54" y1="390.80" x2="211.54" y2="407.63" stroke="#f6465d" stroke-width="1.4" /><rect x="208.54" y="399.21" width="6" height="2.30" rx="1.5" fill="#f6465d" /><line x1="222.28" y1="393.86" x2="222.28" y2="403.04" stroke="#0ecb81" stroke-width="1.4" /><rect x="219.28" y="396.15" width="6" height="5.36" rx="1.5" fill="#0ecb81" /><line x1="233.01" y1="386.21" x2="233.01" y2="396.92" stroke="#0ecb81" stroke-width="1.4" /><rect x="230.01" y="392.33" width="6" height="3.06" rx="1.5" fill="#0ecb81" /><line x1="243.75" y1="391.56" x2="243.75" y2="406.10" stroke="#f6465d" stroke-width="1.4" /><rect x="240.75" y="393.09" width="6" height="9.18" rx="1.5" fill="#f6465d" /><line x1="254.48" y1="396.92" x2="254.48" y2="411.45" stroke="#f6465d" stroke-width="1.4" /><rect x="251.48" y="402.27" width="6" height="9.18" rx="1.5" fill="#f6465d" /><line x1="265.22" y1="403.80" x2="265.22" y2="445.88" stroke="#f6465d" stroke-width="1.4" /><rect x="262.22" y="411.45" width="6" height="30.60" rx="1.5" fill="#f6465d" /><line x1="275.95" y1="424.46" x2="275.95" y2="450.47" stroke="#0ecb81" stroke-width="1.4" /><rect x="272.95" y="425.22" width="6" height="16.83" rx="1.5" fill="#0ecb81" /><line x1="286.68" y1="416.04" x2="286.68" y2="435.17" stroke="#f6465d" stroke-width="1.4" /><rect x="283.68" y="425.22" width="6" height="9.95" rx="1.5" fill="#f6465d" /><line x1="297.42" y1="425.22" x2="297.42" y2="451.23" stroke="#f6465d" stroke-width="1.4" /><rect x="294.42" y="435.17" width="6" height="13.77" rx="1.5" fill="#f6465d" /><line x1="308.15" y1="419.10" x2="308.15" y2="452.00" stroke="#0ecb81" stroke-width="1.4" /><rect x="305.15" y="419.10" width="6" height="30.60" rx="1.5" fill="#0ecb81" /><line x1="318.89" y1="396.92" x2="318.89" y2="420.63" stroke="#0ecb81" stroke-width="1.4" /><rect x="315.89" y="396.92" width="6" height="22.19" rx="1.5" fill="#0ecb81" /><line x1="329.62" y1="383.15" x2="329.62" y2="411.45" stroke="#f6465d" stroke-width="1.4" /><rect x="326.62" y="396.92" width="6" height="12.24" rx="1.5" fill="#f6465d" /><line x1="340.35" y1="395.39" x2="340.35" y2="416.81" stroke="#0ecb81" stroke-width="1.4" /><rect x="337.35" y="396.15" width="6" height="13.77" rx="1.5" fill="#0ecb81" /><line x1="351.09" y1="388.50" x2="351.09" y2="401.51" stroke="#0ecb81" stroke-width="1.4" /><rect x="348.09" y="394.62" width="6" height="2.00" rx="1.5" fill="#0ecb81" /><line x1="361.82" y1="393.09" x2="361.82" y2="405.33" stroke="#f6465d" stroke-width="1.4" /><rect x="358.82" y="394.62" width="6" height="8.42" rx="1.5" fill="#f6465d" /><line x1="372.56" y1="402.27" x2="372.56" y2="429.05" stroke="#f6465d" stroke-width="1.4" /><rect x="369.56" y="402.27" width="6" height="19.13" rx="1.5" fill="#f6465d" /><line x1="383.29" y1="349.48" x2="383.29" y2="424.46" stroke="#0ecb81" stroke-width="1.4" /><rect x="380.29" y="364.78" width="6" height="55.85" rx="1.5" fill="#0ecb81" /><line x1="394.03" y1="325.00" x2="394.03" y2="381.62" stroke="#f6465d" stroke-width="1.4" /><rect x="391.03" y="364.02" width="6" height="3.83" rx="1.5" fill="#f6465d" /><line x1="404.76" y1="364.02" x2="404.76" y2="388.50" stroke="#f6465d" stroke-width="1.4" /><rect x="401.76" y="367.84" width="6" height="14.54" rx="1.5" fill="#f6465d" /><line x1="415.49" y1="367.84" x2="415.49" y2="383.91" stroke="#0ecb81" stroke-width="1.4" /><rect x="412.49" y="374.73" width="6" height="7.65" rx="1.5" fill="#0ecb81" /><line x1="426.23" y1="365.55" x2="426.23" y2="389.27" stroke="#f6465d" stroke-width="1.4" /><rect x="423.23" y="374.73" width="6" height="13.77" rx="1.5" fill="#f6465d" /><line x1="436.96" y1="377.03" x2="436.96" y2="392.33" stroke="#0ecb81" stroke-width="1.4" /><rect x="433.96" y="385.44" width="6" height="3.83" rx="1.5" fill="#0ecb81" /><line x1="447.70" y1="384.68" x2="447.70" y2="406.10" stroke="#f6465d" stroke-width="1.4" /><rect x="444.70" y="385.44" width="6" height="17.60" rx="1.5" fill="#f6465d" /><line x1="458.43" y1="390.80" x2="458.43" y2="413.75" stroke="#0ecb81" stroke-width="1.4" /><rect x="455.43" y="393.09" width="6" height="9.95" rx="1.5" fill="#0ecb81" /><line x1="469.16" y1="391.56" x2="469.16" y2="422.16" stroke="#f6465d" stroke-width="1.4" /><rect x="466.16" y="393.09" width="6" height="9.18" rx="1.5" fill="#f6465d" /><line x1="479.90" y1="384.68" x2="479.90" y2="413.75" stroke="#0ecb81" stroke-width="1.4" /><rect x="476.90" y="386.97" width="6" height="15.30" rx="1.5" fill="#0ecb81" /><line x1="490.63" y1="380.09" x2="490.63" y2="395.39" stroke="#f6465d" stroke-width="1.4" /><rect x="487.63" y="386.21" width="6" height="5.36" rx="1.5" fill="#f6465d" /><line x1="501.37" y1="390.03" x2="501.37" y2="406.10" stroke="#f6465d" stroke-width="1.4" /><rect x="498.37" y="391.56" width="6" height="9.95" rx="1.5" fill="#f6465d" /><line x1="512.10" y1="399.98" x2="512.10" y2="409.16" stroke="#f6465d" stroke-width="1.4" /><rect x="509.10" y="401.51" width="6" height="2.30" rx="1.5" fill="#f6465d" /><line x1="522.84" y1="381.62" x2="522.84" y2="403.04" stroke="#0ecb81" stroke-width="1.4" /><rect x="519.84" y="389.27" width="6" height="13.77" rx="1.5" fill="#0ecb81" /><line x1="533.57" y1="386.21" x2="533.57" y2="400.74" stroke="#f6465d" stroke-width="1.4" /><rect x="530.57" y="389.27" width="6" height="5.36" rx="1.5" fill="#f6465d" /><line x1="544.30" y1="394.62" x2="544.30" y2="406.86" stroke="#f6465d" stroke-width="1.4" /><rect x="541.30" y="394.62" width="6" height="9.95" rx="1.5" fill="#f6465d" /><line x1="555.04" y1="382.38" x2="555.04" y2="405.33" stroke="#0ecb81" stroke-width="1.4" /><rect x="552.04" y="390.03" width="6" height="14.54" rx="1.5" fill="#0ecb81" /><line x1="565.77" y1="389.27" x2="565.77" y2="422.93" stroke="#f6465d" stroke-width="1.4" /><rect x="562.77" y="389.27" width="6" height="31.37" rx="1.5" fill="#f6465d" /><line x1="576.51" y1="403.04" x2="576.51" y2="422.16" stroke="#0ecb81" stroke-width="1.4" /><rect x="573.51" y="403.80" width="6" height="16.07" rx="1.5" fill="#0ecb81" /><line x1="587.24" y1="397.68" x2="587.24" y2="411.45" stroke="#f6465d" stroke-width="1.4" /><rect x="584.24" y="403.04" width="6" height="3.83" rx="1.5" fill="#f6465d" /><line x1="597.97" y1="401.51" x2="597.97" y2="412.22" stroke="#f6465d" stroke-width="1.4" /><rect x="594.97" y="406.86" width="6" height="2.30" rx="1.5" fill="#f6465d" /><line x1="608.71" y1="386.21" x2="608.71" y2="412.98" stroke="#0ecb81" stroke-width="1.4" /><rect x="605.71" y="406.10" width="6" height="3.06" rx="1.5" fill="#0ecb81" /><line x1="619.44" y1="393.09" x2="619.44" y2="408.39" stroke="#0ecb81" stroke-width="1.4" /><rect x="616.44" y="397.68" width="6" height="9.18" rx="1.5" fill="#0ecb81" /><line x1="630.18" y1="396.15" x2="630.18" y2="418.34" stroke="#f6465d" stroke-width="1.4" /><rect x="627.18" y="398.45" width="6" height="12.24" rx="1.5" fill="#f6465d" /><line x1="640.91" y1="410.69" x2="640.91" y2="427.52" stroke="#f6465d" stroke-width="1.4" /><rect x="637.91" y="411.45" width="6" height="13.01" rx="1.5" fill="#f6465d" /><line x1="651.65" y1="419.10" x2="651.65" y2="430.58" stroke="#0ecb81" stroke-width="1.4" /><rect x="648.65" y="419.87" width="6" height="4.59" rx="1.5" fill="#0ecb81" /><line x1="662.38" y1="393.09" x2="662.38" y2="419.87" stroke="#0ecb81" stroke-width="1.4" /><rect x="659.38" y="405.33" width="6" height="14.54" rx="1.5" fill="#0ecb81" /><line x1="673.11" y1="390.03" x2="673.11" y2="415.28" stroke="#f6465d" stroke-width="1.4" /><rect x="670.11" y="405.33" width="6" height="2.00" rx="1.5" fill="#f6465d" /><line x1="683.85" y1="402.27" x2="683.85" y2="422.93" stroke="#f6465d" stroke-width="1.4" /><rect x="680.85" y="406.10" width="6" height="3.06" rx="1.5" fill="#f6465d" /><line x1="694.58" y1="351.01" x2="694.58" y2="410.69" stroke="#0ecb81" stroke-width="1.4" /><rect x="691.58" y="359.43" width="6" height="50.49" rx="1.5" fill="#0ecb81" /><line x1="705.32" y1="325.77" x2="705.32" y2="362.49" stroke="#0ecb81" stroke-width="1.4" /><rect x="702.32" y="328.83" width="6" height="30.60" rx="1.5" fill="#0ecb81" /><line x1="716.05" y1="303.58" x2="716.05" y2="338.01" stroke="#0ecb81" stroke-width="1.4" /><rect x="713.05" y="305.11" width="6" height="22.95" rx="1.5" fill="#0ecb81" /><line x1="726.78" y1="264.56" x2="726.78" y2="305.88" stroke="#0ecb81" stroke-width="1.4" /><rect x="723.78" y="285.98" width="6" height="19.89" rx="1.5" fill="#0ecb81" /><line x1="737.52" y1="244.67" x2="737.52" y2="286.75" stroke="#0ecb81" stroke-width="1.4" /><rect x="734.52" y="269.92" width="6" height="16.83" rx="1.5" fill="#0ecb81" /><line x1="748.25" y1="224.02" x2="748.25" y2="269.92" stroke="#0ecb81" stroke-width="1.4" /><rect x="745.25" y="224.78" width="6" height="45.14" rx="1.5" fill="#0ecb81" /><line x1="758.99" y1="145.22" x2="758.99" y2="224.02" stroke="#0ecb81" stroke-width="1.4" /><rect x="755.99" y="159.75" width="6" height="64.26" rx="1.5" fill="#0ecb81" /><line x1="769.72" y1="131.44" x2="769.72" y2="178.88" stroke="#0ecb81" stroke-width="1.4" /><rect x="766.72" y="139.10" width="6" height="20.66" rx="1.5" fill="#0ecb81" /><line x1="780.46" y1="116.91" x2="780.46" y2="155.93" stroke="#0ecb81" stroke-width="1.4" /><rect x="777.46" y="127.62" width="6" height="11.48" rx="1.5" fill="#0ecb81" /><line x1="791.19" y1="118.44" x2="791.19" y2="177.35" stroke="#f6465d" stroke-width="1.4" /><rect x="788.19" y="127.62" width="6" height="38.25" rx="1.5" fill="#f6465d" /><line x1="801.92" y1="152.10" x2="801.92" y2="181.17" stroke="#f6465d" stroke-width="1.4" /><rect x="798.92" y="166.64" width="6" height="6.89" rx="1.5" fill="#f6465d" /><line x1="812.66" y1="172.76" x2="812.66" y2="205.65" stroke="#0ecb81" stroke-width="1.4" /><rect x="809.66" y="172.76" width="6" height="2.00" rx="1.5" fill="#0ecb81" /><line x1="823.39" y1="150.57" x2="823.39" y2="178.88" stroke="#0ecb81" stroke-width="1.4" /><rect x="820.39" y="171.99" width="6" height="2.00" rx="1.5" fill="#0ecb81" /><line x1="834.13" y1="156.69" x2="834.13" y2="179.64" stroke="#f6465d" stroke-width="1.4" /><rect x="831.13" y="171.99" width="6" height="3.06" rx="1.5" fill="#f6465d" /><line x1="844.86" y1="58.00" x2="844.86" y2="177.35" stroke="#0ecb81" stroke-width="1.4" /><rect x="841.86" y="93.19" width="6" height="81.86" rx="1.5" fill="#0ecb81" /><line x1="855.59" y1="71.77" x2="855.59" y2="116.91" stroke="#0ecb81" stroke-width="1.4" /><rect x="852.59" y="92.43" width="6" height="2.00" rx="1.5" fill="#0ecb81" /><line x1="866.33" y1="70.24" x2="866.33" y2="114.61" stroke="#f6465d" stroke-width="1.4" /><rect x="863.33" y="92.43" width="6" height="13.77" rx="1.5" fill="#f6465d" /><line x1="877.06" y1="84.01" x2="877.06" y2="107.73" stroke="#0ecb81" stroke-width="1.4" /><rect x="874.06" y="103.90" width="6" height="2.00" rx="1.5" fill="#0ecb81" /><line x1="887.80" y1="84.78" x2="887.80" y2="121.50" stroke="#f6465d" stroke-width="1.4" /><rect x="884.80" y="104.67" width="6" height="16.07" rx="1.5" fill="#f6465d" /><line x1="898.53" y1="118.44" x2="898.53" y2="146.75" stroke="#f6465d" stroke-width="1.4" /><rect x="895.53" y="120.73" width="6" height="22.19" rx="1.5" fill="#f6465d" /><line x1="909.27" y1="139.10" x2="909.27" y2="170.46" stroke="#f6465d" stroke-width="1.4" /><rect x="906.27" y="142.92" width="6" height="12.24" rx="1.5" fill="#f6465d" /><line x1="920.00" y1="148.28" x2="920.00" y2="161.28" stroke="#0ecb81" stroke-width="1.4" /><rect x="917.00" y="152.87" width="6" height="3.06" rx="1.5" fill="#0ecb81" />
  <polyline points="372.56,429.05 394.03,325.00 469.16,422.16 490.63,380.09 565.77,422.93" fill="none" stroke="#2fc273" stroke-width="4" stroke-linecap="round" stroke-linejoin="round" />
  <circle cx="372.56" cy="429.05" r="5.5" fill="#2fc273" fill-opacity="0.15" stroke="#2fc273" stroke-width="2" /><text x="372.56" y="417.05" fill="#f3f4f6" font-size="15" font-weight="700" text-anchor="middle">X</text><circle cx="394.03" cy="325.00" r="5.5" fill="#2fc273" fill-opacity="0.15" stroke="#2fc273" stroke-width="2" /><text x="394.03" y="313.00" fill="#f3f4f6" font-size="15" font-weight="700" text-anchor="middle">A</text><circle cx="469.16" cy="422.16" r="5.5" fill="#2fc273" fill-opacity="0.15" stroke="#2fc273" stroke-width="2" /><text x="469.16" y="410.16" fill="#f3f4f6" font-size="15" font-weight="700" text-anchor="middle">B</text><circle cx="490.63" cy="380.09" r="5.5" fill="#2fc273" fill-opacity="0.15" stroke="#2fc273" stroke-width="2" /><text x="490.63" y="368.09" fill="#f3f4f6" font-size="15" font-weight="700" text-anchor="middle">C</text><circle cx="565.77" cy="422.93" r="5.5" fill="#2fc273" fill-opacity="0.15" stroke="#2fc273" stroke-width="2" /><text x="565.77" y="410.93" fill="#f3f4f6" font-size="15" font-weight="700" text-anchor="middle">D</text>
  <text x="56" y="492" fill="#8ba0b5" font-size="18">일반 완성 · TP1 0.006071 · TP2 0.006085 · SL 0.006032</text>
</svg>
