<svg xmlns="http://www.w3.org/2000/svg" width="960" height="540" viewBox="0 0 960 540">
  <rect width="960" height="540" rx="24" fill="#0b1220" />
  <rect x="28" y="28" width="904" height="484" rx="22" fill="#111827" stroke="#1f2937" />
  <text x="56" y="74" fill="#f3f4f6" font-size="34" font-weight="700">PIPPINUSDT · AB=CD</text>
  <text x="904" y="74" fill="#8ba0b5" font-size="20" text-anchor="end">Bearish (매도) · Score 78.8</text>
  <line x1="72" y1="58" x2="920" y2="58" stroke="#223045" stroke-width="1" stroke-dasharray="4 8" /><line x1="72" y1="156" x2="920" y2="156" stroke="#223045" stroke-width="1" stroke-dasharray="4 8" /><line x1="72" y1="255" x2="920" y2="255" stroke="#223045" stroke-width="1" stroke-dasharray="4 8" /><line x1="72" y1="353" x2="920" y2="353" stroke="#223045" stroke-width="1" stroke-dasharray="4 8" /><line x1="72" y1="452" x2="920" y2="452" stroke="#223045" stroke-width="1" stroke-dasharray="4 8" />
  <rect x="430.43" y="47.73" width="84" height="36.87" fill="#fbbf24" fill-opacity="0.12" stroke="#fbbf24" stroke-width="1.5" stroke-dasharray="6 6" />
  <line x1="72.00" y1="66.60" x2="72.00" y2="134.60" stroke="#0ecb81" stroke-width="1.4" /><rect x="69.00" y="106.11" width="6" height="21.77" rx="1.5" fill="#0ecb81" /><line x1="82.73" y1="84.07" x2="82.73" y2="109.06" stroke="#0ecb81" stroke-width="1.4" /><rect x="79.73" y="91.86" width="6" height="14.78" rx="1.5" fill="#0ecb81" /><line x1="93.47" y1="77.89" x2="93.47" y2="109.60" stroke="#f6465d" stroke-width="1.4" /><rect x="90.47" y="91.86" width="6" height="11.56" rx="1.5" fill="#f6465d" /><line x1="104.20" y1="85.41" x2="104.20" y2="106.11" stroke="#0ecb81" stroke-width="1.4" /><rect x="101.20" y="94.28" width="6" height="9.14" rx="1.5" fill="#0ecb81" /><line x1="114.94" y1="82.46" x2="114.94" y2="130.56" stroke="#f6465d" stroke-width="1.4" /><rect x="111.94" y="93.48" width="6" height="27.14" rx="1.5" fill="#f6465d" /><line x1="125.67" y1="100.20" x2="125.67" y2="143.47" stroke="#f6465d" stroke-width="1.4" /><rect x="122.67" y="120.89" width="6" height="11.83" rx="1.5" fill="#f6465d" /><line x1="136.41" y1="125.19" x2="136.41" y2="158.78" stroke="#f6465d" stroke-width="1.4" /><rect x="133.41" y="132.18" width="6" height="2.15" rx="1.5" fill="#f6465d" /><line x1="147.14" y1="126.80" x2="147.14" y2="144.81" stroke="#0ecb81" stroke-width="1.4" /><rect x="144.14" y="130.30" width="6" height="4.30" rx="1.5" fill="#0ecb81" /><line x1="157.87" y1="119.01" x2="157.87" y2="141.32" stroke="#f6465d" stroke-width="1.4" /><rect x="154.87" y="130.30" width="6" height="2.00" rx="1.5" fill="#f6465d" /><line x1="168.61" y1="127.88" x2="168.61" y2="148.30" stroke="#f6465d" stroke-width="1.4" /><rect x="165.61" y="130.30" width="6" height="2.42" rx="1.5" fill="#f6465d" /><line x1="179.34" y1="127.34" x2="179.34" y2="138.63" stroke="#0ecb81" stroke-width="1.4" /><rect x="176.34" y="130.30" width="6" height="2.42" rx="1.5" fill="#0ecb81" /><line x1="190.08" y1="103.42" x2="190.08" y2="135.94" stroke="#0ecb81" stroke-width="1.4" /><rect x="187.08" y="115.25" width="6" height="14.78" rx="1.5" fill="#0ecb81" /><line x1="200.81" y1="99.39" x2="200.81" y2="126.53" stroke="#0ecb81" stroke-width="1.4" /><rect x="197.81" y="104.50" width="6" height="10.48" rx="1.5" fill="#0ecb81" /><line x1="211.54" y1="88.91" x2="211.54" y2="106.65" stroke="#0ecb81" stroke-width="1.4" /><rect x="208.54" y="93.48" width="6" height="10.75" rx="1.5" fill="#0ecb81" /><line x1="222.28" y1="58.00" x2="222.28" y2="96.97" stroke="#0ecb81" stroke-width="1.4" /><rect x="219.28" y="76.81" width="6" height="16.93" rx="1.5" fill="#0ecb81" /><line x1="233.01" y1="73.86" x2="233.01" y2="91.59" stroke="#f6465d" stroke-width="1.4" /><rect x="230.01" y="77.35" width="6" height="10.21" rx="1.5" fill="#f6465d" /><line x1="243.75" y1="85.68" x2="243.75" y2="101.81" stroke="#f6465d" stroke-width="1.4" /><rect x="240.75" y="88.10" width="6" height="7.26" rx="1.5" fill="#f6465d" /><line x1="254.48" y1="94.82" x2="254.48" y2="110.41" stroke="#f6465d" stroke-width="1.4" /><rect x="251.48" y="95.36" width="6" height="2.00" rx="1.5" fill="#f6465d" /><line x1="265.22" y1="95.36" x2="265.22" y2="114.71" stroke="#f6465d" stroke-width="1.4" /><rect x="262.22" y="96.70" width="6" height="10.21" rx="1.5" fill="#f6465d" /><line x1="275.95" y1="103.69" x2="275.95" y2="128.41" stroke="#f6465d" stroke-width="1.4" /><rect x="272.95" y="107.18" width="6" height="15.59" rx="1.5" fill="#f6465d" /><line x1="286.68" y1="113.36" x2="286.68" y2="123.85" stroke="#0ecb81" stroke-width="1.4" /><rect x="283.68" y="119.01" width="6" height="3.76" rx="1.5" fill="#0ecb81" /><line x1="297.42" y1="109.33" x2="297.42" y2="121.96" stroke="#0ecb81" stroke-width="1.4" /><rect x="294.42" y="115.25" width="6" height="4.03" rx="1.5" fill="#0ecb81" /><line x1="308.15" y1="112.83" x2="308.15" y2="128.15" stroke="#f6465d" stroke-width="1.4" /><rect x="305.15" y="115.25" width="6" height="12.09" rx="1.5" fill="#f6465d" /><line x1="318.89" y1="125.46" x2="318.89" y2="134.60" stroke="#f6465d" stroke-width="1.4" /><rect x="315.89" y="127.07" width="6" height="2.00" rx="1.5" fill="#f6465d" /><line x1="329.62" y1="102.35" x2="329.62" y2="138.63" stroke="#0ecb81" stroke-width="1.4" /><rect x="326.62" y="113.36" width="6" height="14.78" rx="1.5" fill="#0ecb81" /><line x1="340.35" y1="110.14" x2="340.35" y2="127.34" stroke="#f6465d" stroke-width="1.4" /><rect x="337.35" y="113.36" width="6" height="11.83" rx="1.5" fill="#f6465d" /><line x1="351.09" y1="117.40" x2="351.09" y2="126.80" stroke="#0ecb81" stroke-width="1.4" /><rect x="348.09" y="119.55" width="6" height="5.38" rx="1.5" fill="#0ecb81" /><line x1="361.82" y1="110.68" x2="361.82" y2="121.96" stroke="#0ecb81" stroke-width="1.4" /><rect x="358.82" y="117.40" width="6" height="2.69" rx="1.5" fill="#0ecb81" /><line x1="372.56" y1="108.80" x2="372.56" y2="132.98" stroke="#f6465d" stroke-width="1.4" /><rect x="369.56" y="117.40" width="6" height="7.79" rx="1.5" fill="#f6465d" /><line x1="383.29" y1="106.11" x2="383.29" y2="129.76" stroke="#0ecb81" stroke-width="1.4" /><rect x="380.29" y="113.90" width="6" height="11.56" rx="1.5" fill="#0ecb81" /><line x1="394.03" y1="110.95" x2="394.03" y2="122.50" stroke="#0ecb81" stroke-width="1.4" /><rect x="391.03" y="113.90" width="6" height="2.00" rx="1.5" fill="#0ecb81" /><line x1="404.76" y1="96.16" x2="404.76" y2="114.71" stroke="#0ecb81" stroke-width="1.4" /><rect x="401.76" y="100.20" width="6" height="13.71" rx="1.5" fill="#0ecb81" /><line x1="415.49" y1="88.37" x2="415.49" y2="122.50" stroke="#f6465d" stroke-width="1.4" /><rect x="412.49" y="100.20" width="6" height="20.16" rx="1.5" fill="#f6465d" /><line x1="426.23" y1="107.99" x2="426.23" y2="134.86" stroke="#f6465d" stroke-width="1.4" /><rect x="423.23" y="120.35" width="6" height="5.91" rx="1.5" fill="#f6465d" /><line x1="436.96" y1="106.11" x2="436.96" y2="126.53" stroke="#0ecb81" stroke-width="1.4" /><rect x="433.96" y="111.21" width="6" height="15.32" rx="1.5" fill="#0ecb81" /><line x1="447.70" y1="102.35" x2="447.70" y2="120.62" stroke="#f6465d" stroke-width="1.4" /><rect x="444.70" y="111.21" width="6" height="5.91" rx="1.5" fill="#f6465d" /><line x1="458.43" y1="95.36" x2="458.43" y2="128.41" stroke="#f6465d" stroke-width="1.4" /><rect x="455.43" y="117.13" width="6" height="8.60" rx="1.5" fill="#f6465d" /><line x1="469.16" y1="117.66" x2="469.16" y2="131.10" stroke="#f6465d" stroke-width="1.4" /><rect x="466.16" y="125.19" width="6" height="2.00" rx="1.5" fill="#f6465d" /><line x1="479.90" y1="116.86" x2="479.90" y2="127.61" stroke="#0ecb81" stroke-width="1.4" /><rect x="476.90" y="122.50" width="6" height="4.03" rx="1.5" fill="#0ecb81" /><line x1="490.63" y1="120.62" x2="490.63" y2="163.35" stroke="#f6465d" stroke-width="1.4" /><rect x="487.63" y="122.77" width="6" height="29.83" rx="1.5" fill="#f6465d" /><line x1="501.37" y1="137.02" x2="501.37" y2="163.35" stroke="#0ecb81" stroke-width="1.4" /><rect x="498.37" y="146.96" width="6" height="5.64" rx="1.5" fill="#0ecb81" /><line x1="512.10" y1="140.24" x2="512.10" y2="156.37" stroke="#f6465d" stroke-width="1.4" /><rect x="509.10" y="146.69" width="6" height="6.45" rx="1.5" fill="#f6465d" /><line x1="522.84" y1="131.10" x2="522.84" y2="155.56" stroke="#0ecb81" stroke-width="1.4" /><rect x="519.84" y="137.82" width="6" height="15.32" rx="1.5" fill="#0ecb81" /><line x1="533.57" y1="132.98" x2="533.57" y2="189.96" stroke="#f6465d" stroke-width="1.4" /><rect x="530.57" y="138.09" width="6" height="37.63" rx="1.5" fill="#f6465d" /><line x1="544.30" y1="162.28" x2="544.30" y2="185.39" stroke="#0ecb81" stroke-width="1.4" /><rect x="541.30" y="174.64" width="6" height="2.00" rx="1.5" fill="#0ecb81" /><line x1="555.04" y1="167.65" x2="555.04" y2="181.90" stroke="#f6465d" stroke-width="1.4" /><rect x="552.04" y="174.64" width="6" height="2.00" rx="1.5" fill="#f6465d" /><line x1="565.77" y1="167.38" x2="565.77" y2="183.51" stroke="#f6465d" stroke-width="1.4" /><rect x="562.77" y="176.25" width="6" height="4.57" rx="1.5" fill="#f6465d" /><line x1="576.51" y1="167.12" x2="576.51" y2="185.39" stroke="#0ecb81" stroke-width="1.4" /><rect x="573.51" y="175.45" width="6" height="5.38" rx="1.5" fill="#0ecb81" /><line x1="587.24" y1="170.07" x2="587.24" y2="196.14" stroke="#f6465d" stroke-width="1.4" /><rect x="584.24" y="175.72" width="6" height="19.08" rx="1.5" fill="#f6465d" /><line x1="597.97" y1="178.14" x2="597.97" y2="197.49" stroke="#0ecb81" stroke-width="1.4" /><rect x="594.97" y="184.05" width="6" height="10.48" rx="1.5" fill="#0ecb81" /><line x1="608.71" y1="180.02" x2="608.71" y2="191.84" stroke="#0ecb81" stroke-width="1.4" /><rect x="605.71" y="184.32" width="6" height="2.00" rx="1.5" fill="#0ecb81" /><line x1="619.44" y1="183.78" x2="619.44" y2="224.09" stroke="#f6465d" stroke-width="1.4" /><rect x="616.44" y="184.05" width="6" height="21.77" rx="1.5" fill="#f6465d" /><line x1="630.18" y1="199.64" x2="630.18" y2="211.19" stroke="#f6465d" stroke-width="1.4" /><rect x="627.18" y="206.09" width="6" height="2.00" rx="1.5" fill="#f6465d" /><line x1="640.91" y1="203.40" x2="640.91" y2="219.26" stroke="#f6465d" stroke-width="1.4" /><rect x="637.91" y="208.50" width="6" height="3.49" rx="1.5" fill="#f6465d" /><line x1="651.65" y1="212.00" x2="651.65" y2="230.27" stroke="#f6465d" stroke-width="1.4" /><rect x="648.65" y="212.00" width="6" height="8.33" rx="1.5" fill="#f6465d" /><line x1="662.38" y1="214.15" x2="662.38" y2="393.95" stroke="#f6465d" stroke-width="1.4" /><rect x="659.38" y="220.87" width="6" height="106.16" rx="1.5" fill="#f6465d" /><line x1="673.11" y1="326.22" x2="673.11" y2="389.11" stroke="#f6465d" stroke-width="1.4" /><rect x="670.11" y="327.30" width="6" height="25.26" rx="1.5" fill="#f6465d" /><line x1="683.85" y1="328.10" x2="683.85" y2="357.67" stroke="#0ecb81" stroke-width="1.4" /><rect x="680.85" y="347.99" width="6" height="5.11" rx="1.5" fill="#0ecb81" /><line x1="694.58" y1="348.26" x2="694.58" y2="373.79" stroke="#f6465d" stroke-width="1.4" /><rect x="691.58" y="348.26" width="6" height="15.05" rx="1.5" fill="#f6465d" /><line x1="705.32" y1="347.45" x2="705.32" y2="370.03" stroke="#0ecb81" stroke-width="1.4" /><rect x="702.32" y="357.40" width="6" height="5.91" rx="1.5" fill="#0ecb81" /><line x1="716.05" y1="348.26" x2="716.05" y2="368.42" stroke="#0ecb81" stroke-width="1.4" /><rect x="713.05" y="348.80" width="6" height="8.33" rx="1.5" fill="#0ecb81" /><line x1="726.78" y1="343.42" x2="726.78" y2="364.38" stroke="#f6465d" stroke-width="1.4" /><rect x="723.78" y="348.80" width="6" height="10.75" rx="1.5" fill="#f6465d" /><line x1="737.52" y1="357.93" x2="737.52" y2="415.72" stroke="#f6465d" stroke-width="1.4" /><rect x="734.52" y="359.55" width="6" height="30.64" rx="1.5" fill="#f6465d" /><line x1="748.25" y1="378.36" x2="748.25" y2="397.17" stroke="#f6465d" stroke-width="1.4" /><rect x="745.25" y="390.45" width="6" height="2.42" rx="1.5" fill="#f6465d" /><line x1="758.99" y1="377.82" x2="758.99" y2="403.09" stroke="#0ecb81" stroke-width="1.4" /><rect x="755.99" y="382.93" width="6" height="9.94" rx="1.5" fill="#0ecb81" /><line x1="769.72" y1="370.83" x2="769.72" y2="387.23" stroke="#0ecb81" stroke-width="1.4" /><rect x="766.72" y="372.45" width="6" height="10.21" rx="1.5" fill="#0ecb81" /><line x1="780.46" y1="371.91" x2="780.46" y2="401.47" stroke="#f6465d" stroke-width="1.4" /><rect x="777.46" y="372.45" width="6" height="22.58" rx="1.5" fill="#f6465d" /><line x1="791.19" y1="384.27" x2="791.19" y2="396.10" stroke="#0ecb81" stroke-width="1.4" /><rect x="788.19" y="391.53" width="6" height="3.23" rx="1.5" fill="#0ecb81" /><line x1="801.92" y1="391.53" x2="801.92" y2="452.00" stroke="#f6465d" stroke-width="1.4" /><rect x="798.92" y="391.53" width="6" height="42.20" rx="1.5" fill="#f6465d" /><line x1="812.66" y1="406.04" x2="812.66" y2="436.14" stroke="#0ecb81" stroke-width="1.4" /><rect x="809.66" y="409.80" width="6" height="23.65" rx="1.5" fill="#0ecb81" /><line x1="823.39" y1="400.94" x2="823.39" y2="418.14" stroke="#0ecb81" stroke-width="1.4" /><rect x="820.39" y="403.62" width="6" height="6.18" rx="1.5" fill="#0ecb81" /><line x1="834.13" y1="375.67" x2="834.13" y2="406.04" stroke="#0ecb81" stroke-width="1.4" /><rect x="831.13" y="384.54" width="6" height="19.35" rx="1.5" fill="#0ecb81" /><line x1="844.86" y1="374.33" x2="844.86" y2="403.89" stroke="#f6465d" stroke-width="1.4" /><rect x="841.86" y="384.54" width="6" height="15.59" rx="1.5" fill="#f6465d" /><line x1="855.59" y1="392.87" x2="855.59" y2="411.42" stroke="#f6465d" stroke-width="1.4" /><rect x="852.59" y="400.13" width="6" height="2.00" rx="1.5" fill="#f6465d" /><line x1="866.33" y1="398.25" x2="866.33" y2="413.57" stroke="#f6465d" stroke-width="1.4" /><rect x="863.33" y="400.94" width="6" height="6.45" rx="1.5" fill="#f6465d" /><line x1="877.06" y1="401.74" x2="877.06" y2="427.27" stroke="#f6465d" stroke-width="1.4" /><rect x="874.06" y="407.12" width="6" height="9.94" rx="1.5" fill="#f6465d" /><line x1="887.80" y1="409.00" x2="887.80" y2="420.29" stroke="#0ecb81" stroke-width="1.4" /><rect x="884.80" y="415.18" width="6" height="2.00" rx="1.5" fill="#0ecb81" /><line x1="898.53" y1="414.91" x2="898.53" y2="428.89" stroke="#f6465d" stroke-width="1.4" /><rect x="895.53" y="415.18" width="6" height="9.41" rx="1.5" fill="#f6465d" /><line x1="909.27" y1="408.46" x2="909.27" y2="431.31" stroke="#0ecb81" stroke-width="1.4" /><rect x="906.27" y="415.45" width="6" height="8.87" rx="1.5" fill="#0ecb81" /><line x1="920.00" y1="411.69" x2="920.00" y2="422.71" stroke="#0ecb81" stroke-width="1.4" /><rect x="917.00" y="413.57" width="6" height="2.00" rx="1.5" fill="#0ecb81" />
  <polyline points="329.62,102.35 329.62,138.63 415.49,88.37 426.23,134.86 458.43,95.36" fill="none" stroke="#2fc273" stroke-width="4" stroke-linecap="round" stroke-linejoin="round" />
  <circle cx="329.62" cy="102.35" r="5.5" fill="#2fc273" fill-opacity="0.15" stroke="#2fc273" stroke-width="2" /><text x="329.62" y="90.35" fill="#f3f4f6" font-size="15" font-weight="700" text-anchor="middle">X</text><circle cx="329.62" cy="138.63" r="5.5" fill="#2fc273" fill-opacity="0.15" stroke="#2fc273" stroke-width="2" /><text x="329.62" y="126.63" fill="#f3f4f6" font-size="15" font-weight="700" text-anchor="middle">A</text><circle cx="415.49" cy="88.37" r="5.5" fill="#2fc273" fill-opacity="0.15" stroke="#2fc273" stroke-width="2" /><text x="415.49" y="76.37" fill="#f3f4f6" font-size="15" font-weight="700" text-anchor="middle">B</text><circle cx="426.23" cy="134.86" r="5.5" fill="#2fc273" fill-opacity="0.15" stroke="#2fc273" stroke-width="2" /><text x="426.23" y="122.86" fill="#f3f4f6" font-size="15" font-weight="700" text-anchor="middle">C</text><circle cx="458.43" cy="95.36" r="5.5" fill="#2fc273" fill-opacity="0.15" stroke="#2fc273" stroke-width="2" /><text x="458.43" y="83.36" fill="#f3f4f6" font-size="15" font-weight="700" text-anchor="middle">D</text>
  <text x="56" y="492" fill="#8ba0b5" font-size="18">일반 완성 · TP1 0.045508 · TP2 0.045162 · SL 0.046246</text>
</svg>
