<svg xmlns="http://www.w3.org/2000/svg" width="960" height="540" viewBox="0 0 960 540">
  <rect width="960" height="540" rx="24" fill="#0b1220" />
  <rect x="28" y="28" width="904" height="484" rx="22" fill="#111827" stroke="#1f2937" />
  <text x="56" y="74" fill="#f3f4f6" font-size="34" font-weight="700">PLAYUSDT · AB=CD</text>
  <text x="904" y="74" fill="#8ba0b5" font-size="20" text-anchor="end">Bearish (매도) · Score 74.7</text>
  <line x1="72" y1="58" x2="920" y2="58" stroke="#223045" stroke-width="1" stroke-dasharray="4 8" /><line x1="72" y1="156" x2="920" y2="156" stroke="#223045" stroke-width="1" stroke-dasharray="4 8" /><line x1="72" y1="255" x2="920" y2="255" stroke="#223045" stroke-width="1" stroke-dasharray="4 8" /><line x1="72" y1="353" x2="920" y2="353" stroke="#223045" stroke-width="1" stroke-dasharray="4 8" /><line x1="72" y1="452" x2="920" y2="452" stroke="#223045" stroke-width="1" stroke-dasharray="4 8" />
  <rect x="205.01" y="398.05" width="84" height="6.34" fill="#fbbf24" fill-opacity="0.12" stroke="#fbbf24" stroke-width="1.5" stroke-dasharray="6 6" />
  <line x1="72.00" y1="409.67" x2="72.00" y2="414.14" stroke="#0ecb81" stroke-width="1.4" /><rect x="69.00" y="409.67" width="6" height="3.42" rx="1.5" fill="#0ecb81" /><line x1="82.73" y1="409.57" x2="82.73" y2="413.93" stroke="#f6465d" stroke-width="1.4" /><rect x="79.73" y="409.78" width="6" height="2.49" rx="1.5" fill="#f6465d" /><line x1="93.47" y1="410.82" x2="93.47" y2="414.45" stroke="#f6465d" stroke-width="1.4" /><rect x="90.47" y="412.16" width="6" height="2.00" rx="1.5" fill="#f6465d" /><line x1="104.20" y1="412.06" x2="104.20" y2="417.87" stroke="#f6465d" stroke-width="1.4" /><rect x="101.20" y="412.48" width="6" height="2.00" rx="1.5" fill="#f6465d" /><line x1="114.94" y1="413.72" x2="114.94" y2="417.66" stroke="#f6465d" stroke-width="1.4" /><rect x="111.94" y="413.82" width="6" height="2.00" rx="1.5" fill="#f6465d" /><line x1="125.67" y1="414.24" x2="125.67" y2="417.14" stroke="#0ecb81" stroke-width="1.4" /><rect x="122.67" y="414.34" width="6" height="2.00" rx="1.5" fill="#0ecb81" /><line x1="136.41" y1="408.43" x2="136.41" y2="415.17" stroke="#0ecb81" stroke-width="1.4" /><rect x="133.41" y="411.85" width="6" height="2.49" rx="1.5" fill="#0ecb81" /><line x1="147.14" y1="411.23" x2="147.14" y2="414.24" stroke="#f6465d" stroke-width="1.4" /><rect x="144.14" y="411.85" width="6" height="2.00" rx="1.5" fill="#f6465d" /><line x1="157.87" y1="409.88" x2="157.87" y2="414.03" stroke="#0ecb81" stroke-width="1.4" /><rect x="154.87" y="410.92" width="6" height="2.00" rx="1.5" fill="#0ecb81" /><line x1="168.61" y1="409.88" x2="168.61" y2="412.48" stroke="#0ecb81" stroke-width="1.4" /><rect x="165.61" y="410.09" width="6" height="2.00" rx="1.5" fill="#0ecb81" /><line x1="179.34" y1="409.88" x2="179.34" y2="414.14" stroke="#f6465d" stroke-width="1.4" /><rect x="176.34" y="409.88" width="6" height="2.00" rx="1.5" fill="#f6465d" /><line x1="190.08" y1="407.08" x2="190.08" y2="413.62" stroke="#0ecb81" stroke-width="1.4" /><rect x="187.08" y="408.95" width="6" height="2.00" rx="1.5" fill="#0ecb81" /><line x1="200.81" y1="407.08" x2="200.81" y2="413.51" stroke="#f6465d" stroke-width="1.4" /><rect x="197.81" y="408.95" width="6" height="2.49" rx="1.5" fill="#f6465d" /><line x1="211.54" y1="410.71" x2="211.54" y2="412.89" stroke="#f6465d" stroke-width="1.4" /><rect x="208.54" y="411.44" width="6" height="2.00" rx="1.5" fill="#f6465d" /><line x1="222.28" y1="397.85" x2="222.28" y2="412.16" stroke="#0ecb81" stroke-width="1.4" /><rect x="219.28" y="402.00" width="6" height="9.86" rx="1.5" fill="#0ecb81" /><line x1="233.01" y1="397.43" x2="233.01" y2="405.21" stroke="#f6465d" stroke-width="1.4" /><rect x="230.01" y="402.00" width="6" height="2.59" rx="1.5" fill="#f6465d" /><line x1="243.75" y1="401.58" x2="243.75" y2="405.84" stroke="#0ecb81" stroke-width="1.4" /><rect x="240.75" y="402.52" width="6" height="2.07" rx="1.5" fill="#0ecb81" /><line x1="254.48" y1="400.03" x2="254.48" y2="404.18" stroke="#f6465d" stroke-width="1.4" /><rect x="251.48" y="402.52" width="6" height="2.00" rx="1.5" fill="#f6465d" /><line x1="265.22" y1="402.62" x2="265.22" y2="407.08" stroke="#f6465d" stroke-width="1.4" /><rect x="262.22" y="403.87" width="6" height="2.00" rx="1.5" fill="#f6465d" /><line x1="275.95" y1="397.74" x2="275.95" y2="404.59" stroke="#0ecb81" stroke-width="1.4" /><rect x="272.95" y="402.10" width="6" height="2.00" rx="1.5" fill="#0ecb81" /><line x1="286.68" y1="401.38" x2="286.68" y2="405.01" stroke="#f6465d" stroke-width="1.4" /><rect x="283.68" y="402.10" width="6" height="2.00" rx="1.5" fill="#f6465d" /><line x1="297.42" y1="403.35" x2="297.42" y2="409.57" stroke="#f6465d" stroke-width="1.4" /><rect x="294.42" y="403.55" width="6" height="4.98" rx="1.5" fill="#f6465d" /><line x1="308.15" y1="406.15" x2="308.15" y2="422.23" stroke="#f6465d" stroke-width="1.4" /><rect x="305.15" y="408.43" width="6" height="8.40" rx="1.5" fill="#f6465d" /><line x1="318.89" y1="415.38" x2="318.89" y2="425.55" stroke="#f6465d" stroke-width="1.4" /><rect x="315.89" y="416.83" width="6" height="7.88" rx="1.5" fill="#f6465d" /><line x1="329.62" y1="417.45" x2="329.62" y2="425.55" stroke="#0ecb81" stroke-width="1.4" /><rect x="326.62" y="423.89" width="6" height="2.00" rx="1.5" fill="#0ecb81" /><line x1="340.35" y1="422.02" x2="340.35" y2="432.19" stroke="#f6465d" stroke-width="1.4" /><rect x="337.35" y="423.68" width="6" height="4.05" rx="1.5" fill="#f6465d" /><line x1="351.09" y1="401.48" x2="351.09" y2="432.70" stroke="#f6465d" stroke-width="1.4" /><rect x="348.09" y="427.41" width="6" height="2.00" rx="1.5" fill="#f6465d" /><line x1="361.82" y1="404.80" x2="361.82" y2="444.43" stroke="#0ecb81" stroke-width="1.4" /><rect x="358.82" y="410.82" width="6" height="17.64" rx="1.5" fill="#0ecb81" /><line x1="372.56" y1="404.18" x2="372.56" y2="452.00" stroke="#f6465d" stroke-width="1.4" /><rect x="369.56" y="411.13" width="6" height="14.83" rx="1.5" fill="#f6465d" /><line x1="383.29" y1="419.84" x2="383.29" y2="436.23" stroke="#0ecb81" stroke-width="1.4" /><rect x="380.29" y="421.92" width="6" height="4.25" rx="1.5" fill="#0ecb81" /><line x1="394.03" y1="411.75" x2="394.03" y2="435.30" stroke="#f6465d" stroke-width="1.4" /><rect x="391.03" y="421.81" width="6" height="2.00" rx="1.5" fill="#f6465d" /><line x1="404.76" y1="279.69" x2="404.76" y2="423.78" stroke="#0ecb81" stroke-width="1.4" /><rect x="401.76" y="305.00" width="6" height="117.33" rx="1.5" fill="#0ecb81" /><line x1="415.49" y1="96.28" x2="415.49" y2="307.18" stroke="#0ecb81" stroke-width="1.4" /><rect x="412.49" y="113.29" width="6" height="191.29" rx="1.5" fill="#0ecb81" /><line x1="426.23" y1="85.08" x2="426.23" y2="195.77" stroke="#f6465d" stroke-width="1.4" /><rect x="423.23" y="112.15" width="6" height="49.07" rx="1.5" fill="#f6465d" /><line x1="436.96" y1="137.98" x2="436.96" y2="203.86" stroke="#f6465d" stroke-width="1.4" /><rect x="433.96" y="160.81" width="6" height="15.56" rx="1.5" fill="#f6465d" /><line x1="447.70" y1="141.20" x2="447.70" y2="227.61" stroke="#0ecb81" stroke-width="1.4" /><rect x="444.70" y="151.88" width="6" height="25.00" rx="1.5" fill="#0ecb81" /><line x1="458.43" y1="58.00" x2="458.43" y2="151.78" stroke="#0ecb81" stroke-width="1.4" /><rect x="455.43" y="94.93" width="6" height="56.23" rx="1.5" fill="#0ecb81" /><line x1="469.16" y1="75.53" x2="469.16" y2="133.83" stroke="#f6465d" stroke-width="1.4" /><rect x="466.16" y="95.45" width="6" height="9.13" rx="1.5" fill="#f6465d" /><line x1="479.90" y1="95.03" x2="479.90" y2="140.89" stroke="#f6465d" stroke-width="1.4" /><rect x="476.90" y="104.16" width="6" height="26.76" rx="1.5" fill="#f6465d" /><line x1="490.63" y1="91.09" x2="490.63" y2="161.32" stroke="#0ecb81" stroke-width="1.4" /><rect x="487.63" y="112.77" width="6" height="18.78" rx="1.5" fill="#0ecb81" /><line x1="501.37" y1="89.95" x2="501.37" y2="124.50" stroke="#0ecb81" stroke-width="1.4" /><rect x="498.37" y="106.96" width="6" height="5.29" rx="1.5" fill="#0ecb81" /><line x1="512.10" y1="99.29" x2="512.10" y2="149.91" stroke="#f6465d" stroke-width="1.4" /><rect x="509.10" y="106.86" width="6" height="24.48" rx="1.5" fill="#f6465d" /><line x1="522.84" y1="124.50" x2="522.84" y2="148.46" stroke="#f6465d" stroke-width="1.4" /><rect x="519.84" y="131.45" width="6" height="10.06" rx="1.5" fill="#f6465d" /><line x1="533.57" y1="136.74" x2="533.57" y2="179.17" stroke="#f6465d" stroke-width="1.4" /><rect x="530.57" y="141.51" width="6" height="22.72" rx="1.5" fill="#f6465d" /><line x1="544.30" y1="148.25" x2="544.30" y2="171.59" stroke="#0ecb81" stroke-width="1.4" /><rect x="541.30" y="158.73" width="6" height="5.19" rx="1.5" fill="#0ecb81" /><line x1="555.04" y1="154.37" x2="555.04" y2="204.27" stroke="#f6465d" stroke-width="1.4" /><rect x="552.04" y="158.83" width="6" height="33.20" rx="1.5" fill="#f6465d" /><line x1="565.77" y1="179.89" x2="565.77" y2="199.81" stroke="#0ecb81" stroke-width="1.4" /><rect x="562.77" y="185.08" width="6" height="7.05" rx="1.5" fill="#0ecb81" /><line x1="576.51" y1="181.24" x2="576.51" y2="204.89" stroke="#f6465d" stroke-width="1.4" /><rect x="573.51" y="184.98" width="6" height="17.64" rx="1.5" fill="#f6465d" /><line x1="587.24" y1="190.16" x2="587.24" y2="205.83" stroke="#0ecb81" stroke-width="1.4" /><rect x="584.24" y="197.74" width="6" height="4.77" rx="1.5" fill="#0ecb81" /><line x1="597.97" y1="185.08" x2="597.97" y2="203.75" stroke="#0ecb81" stroke-width="1.4" /><rect x="594.97" y="189.44" width="6" height="8.40" rx="1.5" fill="#0ecb81" /><line x1="608.71" y1="188.71" x2="608.71" y2="225.85" stroke="#f6465d" stroke-width="1.4" /><rect x="605.71" y="189.44" width="6" height="26.25" rx="1.5" fill="#f6465d" /><line x1="619.44" y1="208.84" x2="619.44" y2="218.28" stroke="#0ecb81" stroke-width="1.4" /><rect x="616.44" y="214.75" width="6" height="2.00" rx="1.5" fill="#0ecb81" /><line x1="630.18" y1="205.62" x2="630.18" y2="217.24" stroke="#0ecb81" stroke-width="1.4" /><rect x="627.18" y="212.99" width="6" height="2.00" rx="1.5" fill="#0ecb81" /><line x1="640.91" y1="190.68" x2="640.91" y2="227.41" stroke="#0ecb81" stroke-width="1.4" /><rect x="637.91" y="197.11" width="6" height="15.46" rx="1.5" fill="#0ecb81" /><line x1="651.65" y1="111.11" x2="651.65" y2="200.12" stroke="#0ecb81" stroke-width="1.4" /><rect x="648.65" y="179.69" width="6" height="17.43" rx="1.5" fill="#0ecb81" /><line x1="662.38" y1="147.01" x2="662.38" y2="197.53" stroke="#f6465d" stroke-width="1.4" /><rect x="659.38" y="179.37" width="6" height="4.25" rx="1.5" fill="#f6465d" /><line x1="673.11" y1="166.93" x2="673.11" y2="189.13" stroke="#0ecb81" stroke-width="1.4" /><rect x="670.11" y="172.32" width="6" height="11.10" rx="1.5" fill="#0ecb81" /><line x1="683.85" y1="155.51" x2="683.85" y2="175.43" stroke="#0ecb81" stroke-width="1.4" /><rect x="680.85" y="161.12" width="6" height="11.41" rx="1.5" fill="#0ecb81" /><line x1="694.58" y1="156.66" x2="694.58" y2="170.25" stroke="#0ecb81" stroke-width="1.4" /><rect x="691.58" y="158.00" width="6" height="3.42" rx="1.5" fill="#0ecb81" /><line x1="705.32" y1="139.23" x2="705.32" y2="162.05" stroke="#0ecb81" stroke-width="1.4" /><rect x="702.32" y="146.07" width="6" height="12.03" rx="1.5" fill="#0ecb81" /><line x1="716.05" y1="135.80" x2="716.05" y2="156.14" stroke="#0ecb81" stroke-width="1.4" /><rect x="713.05" y="140.16" width="6" height="6.22" rx="1.5" fill="#0ecb81" /><line x1="726.78" y1="119.00" x2="726.78" y2="159.87" stroke="#f6465d" stroke-width="1.4" /><rect x="723.78" y="140.16" width="6" height="6.02" rx="1.5" fill="#f6465d" /><line x1="737.52" y1="127.61" x2="737.52" y2="153.44" stroke="#0ecb81" stroke-width="1.4" /><rect x="734.52" y="129.58" width="6" height="16.60" rx="1.5" fill="#0ecb81" /><line x1="748.25" y1="129.37" x2="748.25" y2="178.86" stroke="#f6465d" stroke-width="1.4" /><rect x="745.25" y="129.58" width="6" height="33.82" rx="1.5" fill="#f6465d" /><line x1="758.99" y1="148.25" x2="758.99" y2="177.09" stroke="#0ecb81" stroke-width="1.4" /><rect x="755.99" y="155.10" width="6" height="8.30" rx="1.5" fill="#0ecb81" /><line x1="769.72" y1="141.30" x2="769.72" y2="169.00" stroke="#f6465d" stroke-width="1.4" /><rect x="766.72" y="154.89" width="6" height="4.77" rx="1.5" fill="#f6465d" /><line x1="780.46" y1="146.59" x2="780.46" y2="166.61" stroke="#0ecb81" stroke-width="1.4" /><rect x="777.46" y="151.57" width="6" height="7.99" rx="1.5" fill="#0ecb81" /><line x1="791.19" y1="130.20" x2="791.19" y2="153.54" stroke="#0ecb81" stroke-width="1.4" /><rect x="788.19" y="139.75" width="6" height="11.72" rx="1.5" fill="#0ecb81" /><line x1="801.92" y1="128.44" x2="801.92" y2="162.36" stroke="#f6465d" stroke-width="1.4" /><rect x="798.92" y="139.64" width="6" height="22.72" rx="1.5" fill="#f6465d" /><line x1="812.66" y1="139.33" x2="812.66" y2="166.51" stroke="#0ecb81" stroke-width="1.4" /><rect x="809.66" y="146.28" width="6" height="15.25" rx="1.5" fill="#0ecb81" /><line x1="823.39" y1="132.69" x2="823.39" y2="155.93" stroke="#f6465d" stroke-width="1.4" /><rect x="820.39" y="146.18" width="6" height="5.19" rx="1.5" fill="#f6465d" /><line x1="834.13" y1="124.19" x2="834.13" y2="151.99" stroke="#0ecb81" stroke-width="1.4" /><rect x="831.13" y="140.06" width="6" height="11.00" rx="1.5" fill="#0ecb81" /><line x1="844.86" y1="122.84" x2="844.86" y2="144.93" stroke="#0ecb81" stroke-width="1.4" /><rect x="841.86" y="132.80" width="6" height="7.26" rx="1.5" fill="#0ecb81" /><line x1="855.59" y1="124.50" x2="855.59" y2="154.27" stroke="#f6465d" stroke-width="1.4" /><rect x="852.59" y="132.59" width="6" height="6.95" rx="1.5" fill="#f6465d" /><line x1="866.33" y1="99.50" x2="866.33" y2="140.78" stroke="#0ecb81" stroke-width="1.4" /><rect x="863.33" y="117.75" width="6" height="21.58" rx="1.5" fill="#0ecb81" /><line x1="877.06" y1="99.29" x2="877.06" y2="123.67" stroke="#0ecb81" stroke-width="1.4" /><rect x="874.06" y="115.89" width="6" height="2.00" rx="1.5" fill="#0ecb81" /><line x1="887.80" y1="105.30" x2="887.80" y2="127.09" stroke="#0ecb81" stroke-width="1.4" /><rect x="884.80" y="115.78" width="6" height="2.00" rx="1.5" fill="#0ecb81" /><line x1="898.53" y1="112.57" x2="898.53" y2="129.89" stroke="#f6465d" stroke-width="1.4" /><rect x="895.53" y="115.47" width="6" height="12.24" rx="1.5" fill="#f6465d" /><line x1="909.27" y1="113.60" x2="909.27" y2="133.00" stroke="#0ecb81" stroke-width="1.4" /><rect x="906.27" y="116.09" width="6" height="11.72" rx="1.5" fill="#0ecb81" /><line x1="920.00" y1="112.15" x2="920.00" y2="120.24" stroke="#0ecb81" stroke-width="1.4" /><rect x="917.00" y="114.85" width="6" height="2.00" rx="1.5" fill="#0ecb81" />
  <polyline points="72.00,410.19 72.00,420.77 72.00,407.29 104.20,417.87 233.01,397.43" fill="none" stroke="#2fc273" stroke-width="4" stroke-linecap="round" stroke-linejoin="round" />
  <circle cx="72.00" cy="410.19" r="5.5" fill="#2fc273" fill-opacity="0.15" stroke="#2fc273" stroke-width="2" /><text x="72.00" y="398.19" fill="#f3f4f6" font-size="15" font-weight="700" text-anchor="middle">X</text><circle cx="72.00" cy="420.77" r="5.5" fill="#2fc273" fill-opacity="0.15" stroke="#2fc273" stroke-width="2" /><text x="72.00" y="408.77" fill="#f3f4f6" font-size="15" font-weight="700" text-anchor="middle">A</text><circle cx="72.00" cy="407.29" r="5.5" fill="#2fc273" fill-opacity="0.15" stroke="#2fc273" stroke-width="2" /><text x="72.00" y="395.29" fill="#f3f4f6" font-size="15" font-weight="700" text-anchor="middle">B</text><circle cx="104.20" cy="417.87" r="5.5" fill="#2fc273" fill-opacity="0.15" stroke="#2fc273" stroke-width="2" /><text x="104.20" y="405.87" fill="#f3f4f6" font-size="15" font-weight="700" text-anchor="middle">C</text><circle cx="233.01" cy="397.43" r="5.5" fill="#2fc273" fill-opacity="0.15" stroke="#2fc273" stroke-width="2" /><text x="233.01" y="385.43" fill="#f3f4f6" font-size="15" font-weight="700" text-anchor="middle">D</text>
  <text x="56" y="492" fill="#8ba0b5" font-size="18">실시간 터치 · TP1 0.044007 · TP2 0.043543 · SL 0.044893</text>
</svg>
