<svg xmlns="http://www.w3.org/2000/svg" width="960" height="540" viewBox="0 0 960 540">
  <rect width="960" height="540" rx="24" fill="#0b1220" />
  <rect x="28" y="28" width="904" height="484" rx="22" fill="#111827" stroke="#1f2937" />
  <text x="56" y="74" fill="#f3f4f6" font-size="34" font-weight="700">POLYXUSDT · AB=CD</text>
  <text x="904" y="74" fill="#8ba0b5" font-size="20" text-anchor="end">Bullish (매수) · Score 85.0</text>
  <line x1="72" y1="58" x2="920" y2="58" stroke="#223045" stroke-width="1" stroke-dasharray="4 8" /><line x1="72" y1="156" x2="920" y2="156" stroke="#223045" stroke-width="1" stroke-dasharray="4 8" /><line x1="72" y1="255" x2="920" y2="255" stroke="#223045" stroke-width="1" stroke-dasharray="4 8" /><line x1="72" y1="353" x2="920" y2="353" stroke="#223045" stroke-width="1" stroke-dasharray="4 8" /><line x1="72" y1="452" x2="920" y2="452" stroke="#223045" stroke-width="1" stroke-dasharray="4 8" />
  <rect x="623.65" y="409.75" width="84" height="27.33" fill="#fbbf24" fill-opacity="0.12" stroke="#fbbf24" stroke-width="1.5" stroke-dasharray="6 6" />
  <line x1="72.00" y1="229.95" x2="72.00" y2="255.00" stroke="#0ecb81" stroke-width="1.4" /><rect x="69.00" y="235.64" width="6" height="15.94" rx="1.5" fill="#0ecb81" /><line x1="82.73" y1="198.06" x2="82.73" y2="239.06" stroke="#0ecb81" stroke-width="1.4" /><rect x="79.73" y="233.36" width="6" height="3.42" rx="1.5" fill="#0ecb81" /><line x1="93.47" y1="225.39" x2="93.47" y2="245.89" stroke="#f6465d" stroke-width="1.4" /><rect x="90.47" y="233.36" width="6" height="4.55" rx="1.5" fill="#f6465d" /><line x1="104.20" y1="225.39" x2="104.20" y2="245.89" stroke="#0ecb81" stroke-width="1.4" /><rect x="101.20" y="233.36" width="6" height="3.42" rx="1.5" fill="#0ecb81" /><line x1="114.94" y1="216.28" x2="114.94" y2="268.66" stroke="#f6465d" stroke-width="1.4" /><rect x="111.94" y="234.50" width="6" height="23.91" rx="1.5" fill="#f6465d" /><line x1="125.67" y1="235.64" x2="125.67" y2="258.42" stroke="#0ecb81" stroke-width="1.4" /><rect x="122.67" y="247.03" width="6" height="11.39" rx="1.5" fill="#0ecb81" /><line x1="136.41" y1="240.20" x2="136.41" y2="303.97" stroke="#f6465d" stroke-width="1.4" /><rect x="133.41" y="245.89" width="6" height="26.19" rx="1.5" fill="#f6465d" /><line x1="147.14" y1="260.69" x2="147.14" y2="289.16" stroke="#f6465d" stroke-width="1.4" /><rect x="144.14" y="274.36" width="6" height="7.97" rx="1.5" fill="#f6465d" /><line x1="157.87" y1="265.25" x2="157.87" y2="289.16" stroke="#f6465d" stroke-width="1.4" /><rect x="154.87" y="281.19" width="6" height="6.83" rx="1.5" fill="#f6465d" /><line x1="168.61" y1="277.77" x2="168.61" y2="295.99" stroke="#0ecb81" stroke-width="1.4" /><rect x="165.61" y="280.05" width="6" height="6.83" rx="1.5" fill="#0ecb81" /><line x1="179.34" y1="265.25" x2="179.34" y2="288.02" stroke="#0ecb81" stroke-width="1.4" /><rect x="176.34" y="274.36" width="6" height="5.69" rx="1.5" fill="#0ecb81" /><line x1="190.08" y1="273.22" x2="190.08" y2="330.16" stroke="#f6465d" stroke-width="1.4" /><rect x="187.08" y="274.36" width="6" height="34.16" rx="1.5" fill="#f6465d" /><line x1="200.81" y1="283.47" x2="200.81" y2="313.08" stroke="#0ecb81" stroke-width="1.4" /><rect x="197.81" y="306.24" width="6" height="2.28" rx="1.5" fill="#0ecb81" /><line x1="211.54" y1="275.50" x2="211.54" y2="306.24" stroke="#0ecb81" stroke-width="1.4" /><rect x="208.54" y="291.44" width="6" height="14.80" rx="1.5" fill="#0ecb81" /><line x1="222.28" y1="288.02" x2="222.28" y2="308.52" stroke="#f6465d" stroke-width="1.4" /><rect x="219.28" y="291.44" width="6" height="5.69" rx="1.5" fill="#f6465d" /><line x1="233.01" y1="274.36" x2="233.01" y2="298.27" stroke="#0ecb81" stroke-width="1.4" /><rect x="230.01" y="285.75" width="6" height="11.39" rx="1.5" fill="#0ecb81" /><line x1="243.75" y1="278.91" x2="243.75" y2="341.54" stroke="#f6465d" stroke-width="1.4" /><rect x="240.75" y="285.75" width="6" height="46.69" rx="1.5" fill="#f6465d" /><line x1="254.48" y1="330.16" x2="254.48" y2="390.51" stroke="#f6465d" stroke-width="1.4" /><rect x="251.48" y="332.43" width="6" height="44.41" rx="1.5" fill="#f6465d" /><line x1="265.22" y1="376.84" x2="265.22" y2="426.95" stroke="#f6465d" stroke-width="1.4" /><rect x="262.22" y="377.98" width="6" height="9.11" rx="1.5" fill="#f6465d" /><line x1="275.95" y1="381.40" x2="275.95" y2="440.61" stroke="#f6465d" stroke-width="1.4" /><rect x="272.95" y="387.09" width="6" height="40.99" rx="1.5" fill="#f6465d" /><line x1="286.68" y1="389.37" x2="286.68" y2="428.09" stroke="#0ecb81" stroke-width="1.4" /><rect x="283.68" y="417.84" width="6" height="9.11" rx="1.5" fill="#0ecb81" /><line x1="297.42" y1="388.23" x2="297.42" y2="423.53" stroke="#0ecb81" stroke-width="1.4" /><rect x="294.42" y="407.59" width="6" height="11.39" rx="1.5" fill="#0ecb81" /><line x1="308.15" y1="385.95" x2="308.15" y2="409.87" stroke="#0ecb81" stroke-width="1.4" /><rect x="305.15" y="395.06" width="6" height="13.66" rx="1.5" fill="#0ecb81" /><line x1="318.89" y1="368.87" x2="318.89" y2="398.48" stroke="#0ecb81" stroke-width="1.4" /><rect x="315.89" y="381.40" width="6" height="13.66" rx="1.5" fill="#0ecb81" /><line x1="329.62" y1="358.62" x2="329.62" y2="384.82" stroke="#0ecb81" stroke-width="1.4" /><rect x="326.62" y="375.71" width="6" height="6.83" rx="1.5" fill="#0ecb81" /><line x1="340.35" y1="336.99" x2="340.35" y2="379.12" stroke="#0ecb81" stroke-width="1.4" /><rect x="337.35" y="351.79" width="6" height="22.77" rx="1.5" fill="#0ecb81" /><line x1="351.09" y1="319.91" x2="351.09" y2="356.35" stroke="#0ecb81" stroke-width="1.4" /><rect x="348.09" y="336.99" width="6" height="14.80" rx="1.5" fill="#0ecb81" /><line x1="361.82" y1="330.16" x2="361.82" y2="351.79" stroke="#f6465d" stroke-width="1.4" /><rect x="358.82" y="335.85" width="6" height="15.94" rx="1.5" fill="#f6465d" /><line x1="372.56" y1="336.99" x2="372.56" y2="357.49" stroke="#0ecb81" stroke-width="1.4" /><rect x="369.56" y="347.24" width="6" height="3.42" rx="1.5" fill="#0ecb81" /><line x1="383.29" y1="311.94" x2="383.29" y2="365.46" stroke="#0ecb81" stroke-width="1.4" /><rect x="380.29" y="314.21" width="6" height="33.02" rx="1.5" fill="#0ecb81" /><line x1="394.03" y1="280.05" x2="394.03" y2="323.32" stroke="#0ecb81" stroke-width="1.4" /><rect x="391.03" y="295.99" width="6" height="18.22" rx="1.5" fill="#0ecb81" /><line x1="404.76" y1="289.16" x2="404.76" y2="307.38" stroke="#f6465d" stroke-width="1.4" /><rect x="401.76" y="295.99" width="6" height="9.11" rx="1.5" fill="#f6465d" /><line x1="415.49" y1="290.30" x2="415.49" y2="324.46" stroke="#f6465d" stroke-width="1.4" /><rect x="412.49" y="305.10" width="6" height="10.25" rx="1.5" fill="#f6465d" /><line x1="426.23" y1="295.99" x2="426.23" y2="325.60" stroke="#f6465d" stroke-width="1.4" /><rect x="423.23" y="315.35" width="6" height="2.28" rx="1.5" fill="#f6465d" /><line x1="436.96" y1="311.94" x2="436.96" y2="331.29" stroke="#f6465d" stroke-width="1.4" /><rect x="433.96" y="315.35" width="6" height="6.83" rx="1.5" fill="#f6465d" /><line x1="447.70" y1="321.05" x2="447.70" y2="352.93" stroke="#f6465d" stroke-width="1.4" /><rect x="444.70" y="322.18" width="6" height="30.75" rx="1.5" fill="#f6465d" /><line x1="458.43" y1="323.32" x2="458.43" y2="362.04" stroke="#0ecb81" stroke-width="1.4" /><rect x="455.43" y="348.38" width="6" height="4.55" rx="1.5" fill="#0ecb81" /><line x1="469.16" y1="334.71" x2="469.16" y2="350.65" stroke="#0ecb81" stroke-width="1.4" /><rect x="466.16" y="341.54" width="6" height="6.83" rx="1.5" fill="#0ecb81" /><line x1="479.90" y1="335.85" x2="479.90" y2="350.65" stroke="#f6465d" stroke-width="1.4" /><rect x="476.90" y="341.54" width="6" height="3.42" rx="1.5" fill="#f6465d" /><line x1="490.63" y1="342.68" x2="490.63" y2="356.35" stroke="#f6465d" stroke-width="1.4" /><rect x="487.63" y="344.96" width="6" height="2.28" rx="1.5" fill="#f6465d" /><line x1="501.37" y1="347.24" x2="501.37" y2="382.54" stroke="#f6465d" stroke-width="1.4" /><rect x="498.37" y="347.24" width="6" height="20.50" rx="1.5" fill="#f6465d" /><line x1="512.10" y1="359.76" x2="512.10" y2="370.01" stroke="#0ecb81" stroke-width="1.4" /><rect x="509.10" y="362.04" width="6" height="4.55" rx="1.5" fill="#0ecb81" /><line x1="522.84" y1="341.54" x2="522.84" y2="364.32" stroke="#0ecb81" stroke-width="1.4" /><rect x="519.84" y="347.24" width="6" height="14.80" rx="1.5" fill="#0ecb81" /><line x1="533.57" y1="348.38" x2="533.57" y2="360.90" stroke="#f6465d" stroke-width="1.4" /><rect x="530.57" y="348.38" width="6" height="7.97" rx="1.5" fill="#f6465d" /><line x1="544.30" y1="355.21" x2="544.30" y2="373.43" stroke="#f6465d" stroke-width="1.4" /><rect x="541.30" y="355.21" width="6" height="13.66" rx="1.5" fill="#f6465d" /><line x1="555.04" y1="356.35" x2="555.04" y2="375.71" stroke="#f6465d" stroke-width="1.4" /><rect x="552.04" y="368.87" width="6" height="6.83" rx="1.5" fill="#f6465d" /><line x1="565.77" y1="371.15" x2="565.77" y2="389.37" stroke="#f6465d" stroke-width="1.4" /><rect x="562.77" y="374.57" width="6" height="9.11" rx="1.5" fill="#f6465d" /><line x1="576.51" y1="371.15" x2="576.51" y2="387.09" stroke="#0ecb81" stroke-width="1.4" /><rect x="573.51" y="376.84" width="6" height="7.97" rx="1.5" fill="#0ecb81" /><line x1="587.24" y1="368.87" x2="587.24" y2="397.34" stroke="#f6465d" stroke-width="1.4" /><rect x="584.24" y="376.84" width="6" height="17.08" rx="1.5" fill="#f6465d" /><line x1="597.97" y1="375.71" x2="597.97" y2="396.20" stroke="#0ecb81" stroke-width="1.4" /><rect x="594.97" y="384.82" width="6" height="9.11" rx="1.5" fill="#0ecb81" /><line x1="608.71" y1="367.73" x2="608.71" y2="387.09" stroke="#0ecb81" stroke-width="1.4" /><rect x="605.71" y="379.12" width="6" height="4.55" rx="1.5" fill="#0ecb81" /><line x1="619.44" y1="374.57" x2="619.44" y2="390.51" stroke="#f6465d" stroke-width="1.4" /><rect x="616.44" y="379.12" width="6" height="6.83" rx="1.5" fill="#f6465d" /><line x1="630.18" y1="374.57" x2="630.18" y2="397.34" stroke="#f6465d" stroke-width="1.4" /><rect x="627.18" y="384.82" width="6" height="11.39" rx="1.5" fill="#f6465d" /><line x1="640.91" y1="392.79" x2="640.91" y2="440.61" stroke="#f6465d" stroke-width="1.4" /><rect x="637.91" y="395.06" width="6" height="28.47" rx="1.5" fill="#f6465d" /><line x1="651.65" y1="418.98" x2="651.65" y2="452.00" stroke="#f6465d" stroke-width="1.4" /><rect x="648.65" y="423.53" width="6" height="9.11" rx="1.5" fill="#f6465d" /><line x1="662.38" y1="403.03" x2="662.38" y2="433.78" stroke="#0ecb81" stroke-width="1.4" /><rect x="659.38" y="422.39" width="6" height="10.25" rx="1.5" fill="#0ecb81" /><line x1="673.11" y1="389.37" x2="673.11" y2="422.39" stroke="#0ecb81" stroke-width="1.4" /><rect x="670.11" y="395.06" width="6" height="27.33" rx="1.5" fill="#0ecb81" /><line x1="683.85" y1="393.92" x2="683.85" y2="407.59" stroke="#f6465d" stroke-width="1.4" /><rect x="680.85" y="396.20" width="6" height="6.83" rx="1.5" fill="#f6465d" /><line x1="694.58" y1="387.09" x2="694.58" y2="409.87" stroke="#0ecb81" stroke-width="1.4" /><rect x="691.58" y="389.37" width="6" height="13.66" rx="1.5" fill="#0ecb81" /><line x1="705.32" y1="385.95" x2="705.32" y2="422.39" stroke="#f6465d" stroke-width="1.4" /><rect x="702.32" y="389.37" width="6" height="19.36" rx="1.5" fill="#f6465d" /><line x1="716.05" y1="388.23" x2="716.05" y2="424.67" stroke="#0ecb81" stroke-width="1.4" /><rect x="713.05" y="393.92" width="6" height="13.66" rx="1.5" fill="#0ecb81" /><line x1="726.78" y1="366.60" x2="726.78" y2="392.79" stroke="#0ecb81" stroke-width="1.4" /><rect x="723.78" y="375.71" width="6" height="17.08" rx="1.5" fill="#0ecb81" /><line x1="737.52" y1="329.02" x2="737.52" y2="381.40" stroke="#0ecb81" stroke-width="1.4" /><rect x="734.52" y="349.51" width="6" height="25.05" rx="1.5" fill="#0ecb81" /><line x1="748.25" y1="313.08" x2="748.25" y2="349.51" stroke="#0ecb81" stroke-width="1.4" /><rect x="745.25" y="318.77" width="6" height="30.75" rx="1.5" fill="#0ecb81" /><line x1="758.99" y1="58.00" x2="758.99" y2="326.74" stroke="#0ecb81" stroke-width="1.4" /><rect x="755.99" y="207.17" width="6" height="111.60" rx="1.5" fill="#0ecb81" /><line x1="769.72" y1="119.49" x2="769.72" y2="252.72" stroke="#f6465d" stroke-width="1.4" /><rect x="766.72" y="207.17" width="6" height="19.36" rx="1.5" fill="#f6465d" /><line x1="780.46" y1="180.98" x2="780.46" y2="348.38" stroke="#f6465d" stroke-width="1.4" /><rect x="777.46" y="226.53" width="6" height="104.76" rx="1.5" fill="#f6465d" /><line x1="791.19" y1="252.72" x2="791.19" y2="352.93" stroke="#0ecb81" stroke-width="1.4" /><rect x="788.19" y="326.74" width="6" height="3.42" rx="1.5" fill="#0ecb81" /><line x1="801.92" y1="316.49" x2="801.92" y2="417.84" stroke="#f6465d" stroke-width="1.4" /><rect x="798.92" y="324.46" width="6" height="78.57" rx="1.5" fill="#f6465d" /><line x1="812.66" y1="368.87" x2="812.66" y2="407.59" stroke="#0ecb81" stroke-width="1.4" /><rect x="809.66" y="374.57" width="6" height="28.47" rx="1.5" fill="#0ecb81" /><line x1="823.39" y1="363.18" x2="823.39" y2="396.20" stroke="#f6465d" stroke-width="1.4" /><rect x="820.39" y="374.57" width="6" height="4.55" rx="1.5" fill="#f6465d" /><line x1="834.13" y1="376.84" x2="834.13" y2="412.14" stroke="#f6465d" stroke-width="1.4" /><rect x="831.13" y="377.98" width="6" height="23.91" rx="1.5" fill="#f6465d" /><line x1="844.86" y1="358.62" x2="844.86" y2="417.84" stroke="#0ecb81" stroke-width="1.4" /><rect x="841.86" y="368.87" width="6" height="31.88" rx="1.5" fill="#0ecb81" /><line x1="855.59" y1="349.51" x2="855.59" y2="377.98" stroke="#0ecb81" stroke-width="1.4" /><rect x="852.59" y="352.93" width="6" height="14.80" rx="1.5" fill="#0ecb81" /><line x1="866.33" y1="329.02" x2="866.33" y2="362.04" stroke="#0ecb81" stroke-width="1.4" /><rect x="863.33" y="330.16" width="6" height="21.64" rx="1.5" fill="#0ecb81" /><line x1="877.06" y1="308.52" x2="877.06" y2="349.51" stroke="#0ecb81" stroke-width="1.4" /><rect x="874.06" y="327.88" width="6" height="2.28" rx="1.5" fill="#0ecb81" /><line x1="887.80" y1="307.38" x2="887.80" y2="390.51" stroke="#f6465d" stroke-width="1.4" /><rect x="884.80" y="327.88" width="6" height="58.08" rx="1.5" fill="#f6465d" /><line x1="898.53" y1="355.21" x2="898.53" y2="399.62" stroke="#0ecb81" stroke-width="1.4" /><rect x="895.53" y="356.35" width="6" height="29.61" rx="1.5" fill="#0ecb81" /><line x1="909.27" y1="349.51" x2="909.27" y2="384.82" stroke="#f6465d" stroke-width="1.4" /><rect x="906.27" y="356.35" width="6" height="15.94" rx="1.5" fill="#f6465d" /><line x1="920.00" y1="368.87" x2="920.00" y2="384.82" stroke="#f6465d" stroke-width="1.4" /><rect x="917.00" y="371.15" width="6" height="2.00" rx="1.5" fill="#f6465d" />
  <polyline points="501.37,382.54 522.84,341.54 587.24,397.34 608.71,367.73 651.65,452.00" fill="none" stroke="#2fc273" stroke-width="4" stroke-linecap="round" stroke-linejoin="round" />
  <circle cx="501.37" cy="382.54" r="5.5" fill="#2fc273" fill-opacity="0.15" stroke="#2fc273" stroke-width="2" /><text x="501.37" y="370.54" fill="#f3f4f6" font-size="15" font-weight="700" text-anchor="middle">X</text><circle cx="522.84" cy="341.54" r="5.5" fill="#2fc273" fill-opacity="0.15" stroke="#2fc273" stroke-width="2" /><text x="522.84" y="329.54" fill="#f3f4f6" font-size="15" font-weight="700" text-anchor="middle">A</text><circle cx="587.24" cy="397.34" r="5.5" fill="#2fc273" fill-opacity="0.15" stroke="#2fc273" stroke-width="2" /><text x="587.24" y="385.34" fill="#f3f4f6" font-size="15" font-weight="700" text-anchor="middle">B</text><circle cx="608.71" cy="367.73" r="5.5" fill="#2fc273" fill-opacity="0.15" stroke="#2fc273" stroke-width="2" /><text x="608.71" y="355.73" fill="#f3f4f6" font-size="15" font-weight="700" text-anchor="middle">C</text><circle cx="651.65" cy="452.00" r="5.5" fill="#2fc273" fill-opacity="0.15" stroke="#2fc273" stroke-width="2" /><text x="651.65" y="440.00" fill="#f3f4f6" font-size="15" font-weight="700" text-anchor="middle">D</text>
  <text x="56" y="492" fill="#8ba0b5" font-size="18">일반 완성 · TP1 0.048033 · TP2 0.048207 · SL 0.047703</text>
</svg>
