<svg xmlns="http://www.w3.org/2000/svg" width="960" height="540" viewBox="0 0 960 540">
  <rect width="960" height="540" rx="24" fill="#0b1220" />
  <rect x="28" y="28" width="904" height="484" rx="22" fill="#111827" stroke="#1f2937" />
  <text x="56" y="74" fill="#f3f4f6" font-size="34" font-weight="700">POWERUSDT · AB=CD</text>
  <text x="904" y="74" fill="#8ba0b5" font-size="20" text-anchor="end">Bearish (매도) · Score 82.9</text>
  <line x1="72" y1="58" x2="920" y2="58" stroke="#223045" stroke-width="1" stroke-dasharray="4 8" /><line x1="72" y1="156" x2="920" y2="156" stroke="#223045" stroke-width="1" stroke-dasharray="4 8" /><line x1="72" y1="255" x2="920" y2="255" stroke="#223045" stroke-width="1" stroke-dasharray="4 8" /><line x1="72" y1="353" x2="920" y2="353" stroke="#223045" stroke-width="1" stroke-dasharray="4 8" /><line x1="72" y1="452" x2="920" y2="452" stroke="#223045" stroke-width="1" stroke-dasharray="4 8" />
  <rect x="623.65" y="33.23" width="84" height="83.24" fill="#fbbf24" fill-opacity="0.12" stroke="#fbbf24" stroke-width="1.5" stroke-dasharray="6 6" />
  <line x1="72.00" y1="359.65" x2="72.00" y2="430.11" stroke="#0ecb81" stroke-width="1.4" /><rect x="69.00" y="364.14" width="6" height="50.37" rx="1.5" fill="#0ecb81" /><line x1="82.73" y1="327.56" x2="82.73" y2="393.83" stroke="#f6465d" stroke-width="1.4" /><rect x="79.73" y="364.44" width="6" height="8.10" rx="1.5" fill="#f6465d" /><line x1="93.47" y1="305.37" x2="93.47" y2="382.74" stroke="#0ecb81" stroke-width="1.4" /><rect x="90.47" y="309.57" width="6" height="61.77" rx="1.5" fill="#0ecb81" /><line x1="104.20" y1="292.78" x2="104.20" y2="377.04" stroke="#f6465d" stroke-width="1.4" /><rect x="101.20" y="308.37" width="6" height="37.18" rx="1.5" fill="#f6465d" /><line x1="114.94" y1="302.08" x2="114.94" y2="372.24" stroke="#0ecb81" stroke-width="1.4" /><rect x="111.94" y="323.07" width="6" height="22.19" rx="1.5" fill="#0ecb81" /><line x1="125.67" y1="272.09" x2="125.67" y2="331.46" stroke="#f6465d" stroke-width="1.4" /><rect x="122.67" y="322.47" width="6" height="7.20" rx="1.5" fill="#f6465d" /><line x1="136.41" y1="300.28" x2="136.41" y2="389.63" stroke="#f6465d" stroke-width="1.4" /><rect x="133.41" y="329.96" width="6" height="16.79" rx="1.5" fill="#f6465d" /><line x1="147.14" y1="312.57" x2="147.14" y2="348.55" stroke="#0ecb81" stroke-width="1.4" /><rect x="144.14" y="329.96" width="6" height="16.79" rx="1.5" fill="#0ecb81" /><line x1="157.87" y1="294.58" x2="157.87" y2="341.66" stroke="#0ecb81" stroke-width="1.4" /><rect x="154.87" y="302.38" width="6" height="27.29" rx="1.5" fill="#0ecb81" /><line x1="168.61" y1="272.09" x2="168.61" y2="330.56" stroke="#f6465d" stroke-width="1.4" /><rect x="165.61" y="302.68" width="6" height="17.39" rx="1.5" fill="#f6465d" /><line x1="179.34" y1="299.98" x2="179.34" y2="343.46" stroke="#f6465d" stroke-width="1.4" /><rect x="176.34" y="319.77" width="6" height="9.30" rx="1.5" fill="#f6465d" /><line x1="190.08" y1="316.47" x2="190.08" y2="355.15" stroke="#f6465d" stroke-width="1.4" /><rect x="187.08" y="329.06" width="6" height="9.00" rx="1.5" fill="#f6465d" /><line x1="200.81" y1="319.77" x2="200.81" y2="362.05" stroke="#0ecb81" stroke-width="1.4" /><rect x="197.81" y="329.36" width="6" height="9.30" rx="1.5" fill="#0ecb81" /><line x1="211.54" y1="287.38" x2="211.54" y2="332.36" stroke="#0ecb81" stroke-width="1.4" /><rect x="208.54" y="304.47" width="6" height="25.49" rx="1.5" fill="#0ecb81" /><line x1="222.28" y1="277.79" x2="222.28" y2="315.57" stroke="#0ecb81" stroke-width="1.4" /><rect x="219.28" y="289.18" width="6" height="15.59" rx="1.5" fill="#0ecb81" /><line x1="233.01" y1="284.98" x2="233.01" y2="308.07" stroke="#f6465d" stroke-width="1.4" /><rect x="230.01" y="289.18" width="6" height="15.59" rx="1.5" fill="#f6465d" /><line x1="243.75" y1="280.19" x2="243.75" y2="309.87" stroke="#0ecb81" stroke-width="1.4" /><rect x="240.75" y="294.88" width="6" height="9.60" rx="1.5" fill="#0ecb81" /><line x1="254.48" y1="293.08" x2="254.48" y2="334.76" stroke="#f6465d" stroke-width="1.4" /><rect x="251.48" y="294.58" width="6" height="27.29" rx="1.5" fill="#f6465d" /><line x1="265.22" y1="291.28" x2="265.22" y2="327.86" stroke="#0ecb81" stroke-width="1.4" /><rect x="262.22" y="310.47" width="6" height="11.09" rx="1.5" fill="#0ecb81" /><line x1="275.95" y1="295.48" x2="275.95" y2="318.57" stroke="#0ecb81" stroke-width="1.4" /><rect x="272.95" y="297.58" width="6" height="13.79" rx="1.5" fill="#0ecb81" /><line x1="286.68" y1="276.29" x2="286.68" y2="310.77" stroke="#0ecb81" stroke-width="1.4" /><rect x="283.68" y="282.59" width="6" height="14.99" rx="1.5" fill="#0ecb81" /><line x1="297.42" y1="257.10" x2="297.42" y2="286.48" stroke="#0ecb81" stroke-width="1.4" /><rect x="294.42" y="264.89" width="6" height="19.79" rx="1.5" fill="#0ecb81" /><line x1="308.15" y1="242.71" x2="308.15" y2="291.28" stroke="#f6465d" stroke-width="1.4" /><rect x="305.15" y="264.30" width="6" height="17.39" rx="1.5" fill="#f6465d" /><line x1="318.89" y1="190.53" x2="318.89" y2="283.19" stroke="#0ecb81" stroke-width="1.4" /><rect x="315.89" y="213.02" width="6" height="69.86" rx="1.5" fill="#0ecb81" /><line x1="329.62" y1="193.53" x2="329.62" y2="236.71" stroke="#0ecb81" stroke-width="1.4" /><rect x="326.62" y="213.32" width="6" height="2.00" rx="1.5" fill="#0ecb81" /><line x1="340.35" y1="188.73" x2="340.35" y2="240.31" stroke="#0ecb81" stroke-width="1.4" /><rect x="337.35" y="212.12" width="6" height="2.00" rx="1.5" fill="#0ecb81" /><line x1="351.09" y1="152.15" x2="351.09" y2="252.60" stroke="#0ecb81" stroke-width="1.4" /><rect x="348.09" y="176.74" width="6" height="34.78" rx="1.5" fill="#0ecb81" /><line x1="361.82" y1="137.76" x2="361.82" y2="186.33" stroke="#f6465d" stroke-width="1.4" /><rect x="358.82" y="174.34" width="6" height="2.00" rx="1.5" fill="#f6465d" /><line x1="372.56" y1="143.46" x2="372.56" y2="197.13" stroke="#0ecb81" stroke-width="1.4" /><rect x="369.56" y="156.95" width="6" height="18.59" rx="1.5" fill="#0ecb81" /><line x1="383.29" y1="134.16" x2="383.29" y2="204.03" stroke="#f6465d" stroke-width="1.4" /><rect x="380.29" y="156.35" width="6" height="40.18" rx="1.5" fill="#f6465d" /><line x1="394.03" y1="114.07" x2="394.03" y2="196.83" stroke="#0ecb81" stroke-width="1.4" /><rect x="391.03" y="122.77" width="6" height="73.46" rx="1.5" fill="#0ecb81" /><line x1="404.76" y1="111.37" x2="404.76" y2="153.05" stroke="#0ecb81" stroke-width="1.4" /><rect x="401.76" y="116.47" width="6" height="6.60" rx="1.5" fill="#0ecb81" /><line x1="415.49" y1="90.98" x2="415.49" y2="177.64" stroke="#f6465d" stroke-width="1.4" /><rect x="412.49" y="117.07" width="6" height="22.19" rx="1.5" fill="#f6465d" /><line x1="426.23" y1="119.17" x2="426.23" y2="169.54" stroke="#0ecb81" stroke-width="1.4" /><rect x="423.23" y="120.07" width="6" height="19.19" rx="1.5" fill="#0ecb81" /><line x1="436.96" y1="98.78" x2="436.96" y2="150.35" stroke="#f6465d" stroke-width="1.4" /><rect x="433.96" y="120.37" width="6" height="2.10" rx="1.5" fill="#f6465d" /><line x1="447.70" y1="122.17" x2="447.70" y2="156.95" stroke="#f6465d" stroke-width="1.4" /><rect x="444.70" y="122.77" width="6" height="5.10" rx="1.5" fill="#f6465d" /><line x1="458.43" y1="58.00" x2="458.43" y2="150.35" stroke="#0ecb81" stroke-width="1.4" /><rect x="455.43" y="97.28" width="6" height="29.98" rx="1.5" fill="#0ecb81" /><line x1="469.16" y1="78.69" x2="469.16" y2="207.92" stroke="#f6465d" stroke-width="1.4" /><rect x="466.16" y="97.58" width="6" height="51.27" rx="1.5" fill="#f6465d" /><line x1="479.90" y1="129.36" x2="479.90" y2="178.84" stroke="#f6465d" stroke-width="1.4" /><rect x="476.90" y="148.85" width="6" height="27.59" rx="1.5" fill="#f6465d" /><line x1="490.63" y1="154.25" x2="490.63" y2="203.73" stroke="#0ecb81" stroke-width="1.4" /><rect x="487.63" y="161.75" width="6" height="12.59" rx="1.5" fill="#0ecb81" /><line x1="501.37" y1="154.55" x2="501.37" y2="205.53" stroke="#f6465d" stroke-width="1.4" /><rect x="498.37" y="161.45" width="6" height="13.19" rx="1.5" fill="#f6465d" /><line x1="512.10" y1="147.05" x2="512.10" y2="194.43" stroke="#0ecb81" stroke-width="1.4" /><rect x="509.10" y="154.85" width="6" height="19.79" rx="1.5" fill="#0ecb81" /><line x1="522.84" y1="115.27" x2="522.84" y2="173.74" stroke="#0ecb81" stroke-width="1.4" /><rect x="519.84" y="140.16" width="6" height="14.39" rx="1.5" fill="#0ecb81" /><line x1="533.57" y1="125.47" x2="533.57" y2="169.24" stroke="#f6465d" stroke-width="1.4" /><rect x="530.57" y="140.16" width="6" height="13.49" rx="1.5" fill="#f6465d" /><line x1="544.30" y1="144.66" x2="544.30" y2="200.13" stroke="#f6465d" stroke-width="1.4" /><rect x="541.30" y="152.45" width="6" height="28.19" rx="1.5" fill="#f6465d" /><line x1="555.04" y1="172.54" x2="555.04" y2="205.23" stroke="#f6465d" stroke-width="1.4" /><rect x="552.04" y="179.44" width="6" height="9.60" rx="1.5" fill="#f6465d" /><line x1="565.77" y1="174.64" x2="565.77" y2="209.12" stroke="#0ecb81" stroke-width="1.4" /><rect x="562.77" y="188.43" width="6" height="2.00" rx="1.5" fill="#0ecb81" /><line x1="576.51" y1="128.16" x2="576.51" y2="201.33" stroke="#0ecb81" stroke-width="1.4" /><rect x="573.51" y="159.95" width="6" height="28.79" rx="1.5" fill="#0ecb81" /><line x1="587.24" y1="158.75" x2="587.24" y2="187.53" stroke="#f6465d" stroke-width="1.4" /><rect x="584.24" y="159.65" width="6" height="16.79" rx="1.5" fill="#f6465d" /><line x1="597.97" y1="158.15" x2="597.97" y2="180.04" stroke="#0ecb81" stroke-width="1.4" /><rect x="594.97" y="160.55" width="6" height="16.19" rx="1.5" fill="#0ecb81" /><line x1="608.71" y1="140.16" x2="608.71" y2="172.24" stroke="#0ecb81" stroke-width="1.4" /><rect x="605.71" y="146.75" width="6" height="13.79" rx="1.5" fill="#0ecb81" /><line x1="619.44" y1="126.96" x2="619.44" y2="154.55" stroke="#0ecb81" stroke-width="1.4" /><rect x="616.44" y="126.96" width="6" height="18.89" rx="1.5" fill="#0ecb81" /><line x1="630.18" y1="117.37" x2="630.18" y2="153.05" stroke="#f6465d" stroke-width="1.4" /><rect x="627.18" y="126.96" width="6" height="9.60" rx="1.5" fill="#f6465d" /><line x1="640.91" y1="82.59" x2="640.91" y2="140.46" stroke="#0ecb81" stroke-width="1.4" /><rect x="637.91" y="87.09" width="6" height="49.47" rx="1.5" fill="#0ecb81" /><line x1="651.65" y1="77.79" x2="651.65" y2="185.14" stroke="#f6465d" stroke-width="1.4" /><rect x="648.65" y="87.39" width="6" height="89.95" rx="1.5" fill="#f6465d" /><line x1="662.38" y1="148.25" x2="662.38" y2="289.18" stroke="#f6465d" stroke-width="1.4" /><rect x="659.38" y="176.44" width="6" height="56.37" rx="1.5" fill="#f6465d" /><line x1="673.11" y1="220.52" x2="673.11" y2="257.10" stroke="#f6465d" stroke-width="1.4" /><rect x="670.11" y="232.81" width="6" height="17.69" rx="1.5" fill="#f6465d" /><line x1="683.85" y1="208.52" x2="683.85" y2="283.49" stroke="#f6465d" stroke-width="1.4" /><rect x="680.85" y="250.50" width="6" height="19.19" rx="1.5" fill="#f6465d" /><line x1="694.58" y1="244.51" x2="694.58" y2="294.88" stroke="#f6465d" stroke-width="1.4" /><rect x="691.58" y="268.79" width="6" height="9.30" rx="1.5" fill="#f6465d" /><line x1="705.32" y1="258.90" x2="705.32" y2="279.59" stroke="#0ecb81" stroke-width="1.4" /><rect x="702.32" y="268.79" width="6" height="9.30" rx="1.5" fill="#0ecb81" /><line x1="716.05" y1="261.30" x2="716.05" y2="293.38" stroke="#f6465d" stroke-width="1.4" /><rect x="713.05" y="269.09" width="6" height="22.49" rx="1.5" fill="#f6465d" /><line x1="726.78" y1="287.68" x2="726.78" y2="375.54" stroke="#f6465d" stroke-width="1.4" /><rect x="723.78" y="291.28" width="6" height="21.29" rx="1.5" fill="#f6465d" /><line x1="737.52" y1="306.57" x2="737.52" y2="341.06" stroke="#f6465d" stroke-width="1.4" /><rect x="734.52" y="312.27" width="6" height="14.39" rx="1.5" fill="#f6465d" /><line x1="748.25" y1="320.67" x2="748.25" y2="447.80" stroke="#f6465d" stroke-width="1.4" /><rect x="745.25" y="326.66" width="6" height="51.57" rx="1.5" fill="#f6465d" /><line x1="758.99" y1="335.66" x2="758.99" y2="383.04" stroke="#0ecb81" stroke-width="1.4" /><rect x="755.99" y="343.75" width="6" height="33.88" rx="1.5" fill="#0ecb81" /><line x1="769.72" y1="335.96" x2="769.72" y2="373.14" stroke="#f6465d" stroke-width="1.4" /><rect x="766.72" y="343.75" width="6" height="25.49" rx="1.5" fill="#f6465d" /><line x1="780.46" y1="349.15" x2="780.46" y2="374.34" stroke="#0ecb81" stroke-width="1.4" /><rect x="777.46" y="351.25" width="6" height="17.69" rx="1.5" fill="#0ecb81" /><line x1="791.19" y1="349.45" x2="791.19" y2="452.00" stroke="#f6465d" stroke-width="1.4" /><rect x="788.19" y="351.55" width="6" height="37.48" rx="1.5" fill="#f6465d" /><line x1="801.92" y1="382.74" x2="801.92" y2="432.81" stroke="#f6465d" stroke-width="1.4" /><rect x="798.92" y="389.33" width="6" height="2.40" rx="1.5" fill="#f6465d" /><line x1="812.66" y1="391.73" x2="812.66" y2="419.32" stroke="#f6465d" stroke-width="1.4" /><rect x="809.66" y="391.73" width="6" height="18.29" rx="1.5" fill="#f6465d" /><line x1="823.39" y1="387.53" x2="823.39" y2="413.32" stroke="#0ecb81" stroke-width="1.4" /><rect x="820.39" y="392.03" width="6" height="17.99" rx="1.5" fill="#0ecb81" /><line x1="834.13" y1="381.84" x2="834.13" y2="396.23" stroke="#0ecb81" stroke-width="1.4" /><rect x="831.13" y="382.74" width="6" height="9.30" rx="1.5" fill="#0ecb81" /><line x1="844.86" y1="366.54" x2="844.86" y2="399.53" stroke="#f6465d" stroke-width="1.4" /><rect x="841.86" y="383.04" width="6" height="14.09" rx="1.5" fill="#f6465d" /><line x1="855.59" y1="362.95" x2="855.59" y2="415.72" stroke="#f6465d" stroke-width="1.4" /><rect x="852.59" y="397.43" width="6" height="2.00" rx="1.5" fill="#f6465d" /><line x1="866.33" y1="390.83" x2="866.33" y2="403.72" stroke="#0ecb81" stroke-width="1.4" /><rect x="863.33" y="395.93" width="6" height="3.00" rx="1.5" fill="#0ecb81" /><line x1="877.06" y1="392.33" x2="877.06" y2="420.22" stroke="#f6465d" stroke-width="1.4" /><rect x="874.06" y="396.23" width="6" height="11.69" rx="1.5" fill="#f6465d" /><line x1="887.80" y1="401.03" x2="887.80" y2="413.62" stroke="#f6465d" stroke-width="1.4" /><rect x="884.80" y="407.92" width="6" height="3.90" rx="1.5" fill="#f6465d" /><line x1="898.53" y1="406.12" x2="898.53" y2="435.51" stroke="#f6465d" stroke-width="1.4" /><rect x="895.53" y="412.12" width="6" height="3.30" rx="1.5" fill="#f6465d" /><line x1="909.27" y1="406.72" x2="909.27" y2="430.11" stroke="#f6465d" stroke-width="1.4" /><rect x="906.27" y="415.12" width="6" height="13.79" rx="1.5" fill="#f6465d" /><line x1="920.00" y1="418.72" x2="920.00" y2="431.01" stroke="#0ecb81" stroke-width="1.4" /><rect x="917.00" y="422.61" width="6" height="6.00" rx="1.5" fill="#0ecb81" />
  <polyline points="458.43,58.00 469.16,207.92 522.84,115.27 565.77,209.12 651.65,77.79" fill="none" stroke="#2fc273" stroke-width="4" stroke-linecap="round" stroke-linejoin="round" />
  <circle cx="458.43" cy="58.00" r="5.5" fill="#2fc273" fill-opacity="0.15" stroke="#2fc273" stroke-width="2" /><text x="458.43" y="46.00" fill="#f3f4f6" font-size="15" font-weight="700" text-anchor="middle">X</text><circle cx="469.16" cy="207.92" r="5.5" fill="#2fc273" fill-opacity="0.15" stroke="#2fc273" stroke-width="2" /><text x="469.16" y="195.92" fill="#f3f4f6" font-size="15" font-weight="700" text-anchor="middle">A</text><circle cx="522.84" cy="115.27" r="5.5" fill="#2fc273" fill-opacity="0.15" stroke="#2fc273" stroke-width="2" /><text x="522.84" y="103.27" fill="#f3f4f6" font-size="15" font-weight="700" text-anchor="middle">B</text><circle cx="565.77" cy="209.12" r="5.5" fill="#2fc273" fill-opacity="0.15" stroke="#2fc273" stroke-width="2" /><text x="565.77" y="197.12" fill="#f3f4f6" font-size="15" font-weight="700" text-anchor="middle">C</text><circle cx="651.65" cy="77.79" r="5.5" fill="#2fc273" fill-opacity="0.15" stroke="#2fc273" stroke-width="2" /><text x="651.65" y="65.79" fill="#f3f4f6" font-size="15" font-weight="700" text-anchor="middle">D</text>
  <text x="56" y="492" fill="#8ba0b5" font-size="18">일반 완성 · TP1 0.095807 · TP2 0.094773 · SL 0.09813</text>
</svg>
