<svg xmlns="http://www.w3.org/2000/svg" width="960" height="540" viewBox="0 0 960 540">
  <rect width="960" height="540" rx="24" fill="#0b1220" />
  <rect x="28" y="28" width="904" height="484" rx="22" fill="#111827" stroke="#1f2937" />
  <text x="56" y="74" fill="#f3f4f6" font-size="34" font-weight="700">POWERUSDT · AB=CD</text>
  <text x="904" y="74" fill="#8ba0b5" font-size="20" text-anchor="end">Bullish (매수) · Score 80.1</text>
  <line x1="72" y1="58" x2="920" y2="58" stroke="#223045" stroke-width="1" stroke-dasharray="4 8" /><line x1="72" y1="156" x2="920" y2="156" stroke="#223045" stroke-width="1" stroke-dasharray="4 8" /><line x1="72" y1="255" x2="920" y2="255" stroke="#223045" stroke-width="1" stroke-dasharray="4 8" /><line x1="72" y1="353" x2="920" y2="353" stroke="#223045" stroke-width="1" stroke-dasharray="4 8" /><line x1="72" y1="452" x2="920" y2="452" stroke="#223045" stroke-width="1" stroke-dasharray="4 8" />
  <rect x="527.04" y="326.83" width="84" height="58.97" fill="#fbbf24" fill-opacity="0.12" stroke="#fbbf24" stroke-width="1.5" stroke-dasharray="6 6" />
  <line x1="72.00" y1="333.85" x2="72.00" y2="379.39" stroke="#0ecb81" stroke-width="1.4" /><rect x="69.00" y="337.76" width="6" height="32.27" rx="1.5" fill="#0ecb81" /><line x1="82.73" y1="336.71" x2="82.73" y2="378.09" stroke="#f6465d" stroke-width="1.4" /><rect x="79.73" y="338.02" width="6" height="37.47" rx="1.5" fill="#f6465d" /><line x1="93.47" y1="356.75" x2="93.47" y2="395.53" stroke="#0ecb81" stroke-width="1.4" /><rect x="90.47" y="357.27" width="6" height="17.96" rx="1.5" fill="#0ecb81" /><line x1="104.20" y1="289.87" x2="104.20" y2="357.01" stroke="#0ecb81" stroke-width="1.4" /><rect x="101.20" y="292.99" width="6" height="64.02" rx="1.5" fill="#0ecb81" /><line x1="114.94" y1="281.54" x2="114.94" y2="372.63" stroke="#f6465d" stroke-width="1.4" /><rect x="111.94" y="292.73" width="6" height="53.35" rx="1.5" fill="#f6465d" /><line x1="125.67" y1="335.41" x2="125.67" y2="384.34" stroke="#f6465d" stroke-width="1.4" /><rect x="122.67" y="347.64" width="6" height="24.98" rx="1.5" fill="#f6465d" /><line x1="136.41" y1="343.48" x2="136.41" y2="379.39" stroke="#f6465d" stroke-width="1.4" /><rect x="133.41" y="372.89" width="6" height="3.12" rx="1.5" fill="#f6465d" /><line x1="147.14" y1="366.38" x2="147.14" y2="399.69" stroke="#f6465d" stroke-width="1.4" /><rect x="144.14" y="375.75" width="6" height="13.27" rx="1.5" fill="#f6465d" /><line x1="157.87" y1="364.30" x2="157.87" y2="403.08" stroke="#0ecb81" stroke-width="1.4" /><rect x="154.87" y="378.09" width="6" height="11.19" rx="1.5" fill="#0ecb81" /><line x1="168.61" y1="372.11" x2="168.61" y2="429.88" stroke="#f6465d" stroke-width="1.4" /><rect x="165.61" y="378.35" width="6" height="40.34" rx="1.5" fill="#f6465d" /><line x1="179.34" y1="417.91" x2="179.34" y2="437.69" stroke="#f6465d" stroke-width="1.4" /><rect x="176.34" y="418.43" width="6" height="16.66" rx="1.5" fill="#f6465d" /><line x1="190.08" y1="416.87" x2="190.08" y2="438.21" stroke="#f6465d" stroke-width="1.4" /><rect x="187.08" y="435.08" width="6" height="2.00" rx="1.5" fill="#f6465d" /><line x1="200.81" y1="414.27" x2="200.81" y2="452.00" stroke="#0ecb81" stroke-width="1.4" /><rect x="197.81" y="422.85" width="6" height="12.75" rx="1.5" fill="#0ecb81" /><line x1="211.54" y1="409.32" x2="211.54" y2="431.44" stroke="#0ecb81" stroke-width="1.4" /><rect x="208.54" y="414.53" width="6" height="8.07" rx="1.5" fill="#0ecb81" /><line x1="222.28" y1="397.09" x2="222.28" y2="430.92" stroke="#0ecb81" stroke-width="1.4" /><rect x="219.28" y="398.39" width="6" height="15.61" rx="1.5" fill="#0ecb81" /><line x1="233.01" y1="397.09" x2="233.01" y2="412.44" stroke="#f6465d" stroke-width="1.4" /><rect x="230.01" y="398.65" width="6" height="6.25" rx="1.5" fill="#f6465d" /><line x1="243.75" y1="384.34" x2="243.75" y2="412.18" stroke="#0ecb81" stroke-width="1.4" /><rect x="240.75" y="399.17" width="6" height="5.46" rx="1.5" fill="#0ecb81" /><line x1="254.48" y1="356.49" x2="254.48" y2="405.16" stroke="#0ecb81" stroke-width="1.4" /><rect x="251.48" y="367.42" width="6" height="31.75" rx="1.5" fill="#0ecb81" /><line x1="265.22" y1="354.67" x2="265.22" y2="409.32" stroke="#f6465d" stroke-width="1.4" /><rect x="262.22" y="367.42" width="6" height="39.04" rx="1.5" fill="#f6465d" /><line x1="275.95" y1="386.68" x2="275.95" y2="414.27" stroke="#0ecb81" stroke-width="1.4" /><rect x="272.95" y="389.54" width="6" height="15.35" rx="1.5" fill="#0ecb81" /><line x1="286.68" y1="368.72" x2="286.68" y2="399.17" stroke="#f6465d" stroke-width="1.4" /><rect x="283.68" y="389.54" width="6" height="3.90" rx="1.5" fill="#f6465d" /><line x1="297.42" y1="389.80" x2="297.42" y2="425.20" stroke="#f6465d" stroke-width="1.4" /><rect x="294.42" y="393.71" width="6" height="19.52" rx="1.5" fill="#f6465d" /><line x1="308.15" y1="404.12" x2="308.15" y2="429.36" stroke="#f6465d" stroke-width="1.4" /><rect x="305.15" y="412.96" width="6" height="9.63" rx="1.5" fill="#f6465d" /><line x1="318.89" y1="416.61" x2="318.89" y2="436.39" stroke="#f6465d" stroke-width="1.4" /><rect x="315.89" y="422.85" width="6" height="2.00" rx="1.5" fill="#f6465d" /><line x1="329.62" y1="404.12" x2="329.62" y2="426.24" stroke="#0ecb81" stroke-width="1.4" /><rect x="326.62" y="409.58" width="6" height="14.05" rx="1.5" fill="#0ecb81" /><line x1="340.35" y1="392.93" x2="340.35" y2="416.87" stroke="#0ecb81" stroke-width="1.4" /><rect x="337.35" y="393.97" width="6" height="15.87" rx="1.5" fill="#0ecb81" /><line x1="351.09" y1="374.97" x2="351.09" y2="405.68" stroke="#0ecb81" stroke-width="1.4" /><rect x="348.09" y="375.49" width="6" height="18.74" rx="1.5" fill="#0ecb81" /><line x1="361.82" y1="359.36" x2="361.82" y2="390.84" stroke="#0ecb81" stroke-width="1.4" /><rect x="358.82" y="367.68" width="6" height="7.81" rx="1.5" fill="#0ecb81" /><line x1="372.56" y1="319.80" x2="372.56" y2="380.96" stroke="#0ecb81" stroke-width="1.4" /><rect x="369.56" y="323.70" width="6" height="43.72" rx="1.5" fill="#0ecb81" /><line x1="383.29" y1="291.95" x2="383.29" y2="349.47" stroke="#f6465d" stroke-width="1.4" /><rect x="380.29" y="323.96" width="6" height="7.03" rx="1.5" fill="#f6465d" /><line x1="394.03" y1="272.70" x2="394.03" y2="339.84" stroke="#0ecb81" stroke-width="1.4" /><rect x="391.03" y="276.34" width="6" height="53.61" rx="1.5" fill="#0ecb81" /><line x1="404.76" y1="261.77" x2="404.76" y2="334.89" stroke="#f6465d" stroke-width="1.4" /><rect x="401.76" y="275.30" width="6" height="32.27" rx="1.5" fill="#f6465d" /><line x1="415.49" y1="269.83" x2="415.49" y2="330.73" stroke="#0ecb81" stroke-width="1.4" /><rect x="412.49" y="288.05" width="6" height="19.26" rx="1.5" fill="#0ecb81" /><line x1="426.23" y1="243.81" x2="426.23" y2="295.34" stroke="#f6465d" stroke-width="1.4" /><rect x="423.23" y="287.53" width="6" height="6.25" rx="1.5" fill="#f6465d" /><line x1="436.96" y1="268.27" x2="436.96" y2="345.82" stroke="#f6465d" stroke-width="1.4" /><rect x="433.96" y="294.04" width="6" height="14.57" rx="1.5" fill="#f6465d" /><line x1="447.70" y1="278.94" x2="447.70" y2="310.17" stroke="#0ecb81" stroke-width="1.4" /><rect x="444.70" y="294.04" width="6" height="14.57" rx="1.5" fill="#0ecb81" /><line x1="458.43" y1="263.33" x2="458.43" y2="304.18" stroke="#0ecb81" stroke-width="1.4" /><rect x="455.43" y="270.09" width="6" height="23.68" rx="1.5" fill="#0ecb81" /><line x1="469.16" y1="243.81" x2="469.16" y2="294.56" stroke="#f6465d" stroke-width="1.4" /><rect x="466.16" y="270.35" width="6" height="15.09" rx="1.5" fill="#f6465d" /><line x1="479.90" y1="268.01" x2="479.90" y2="305.75" stroke="#f6465d" stroke-width="1.4" /><rect x="476.90" y="285.19" width="6" height="8.07" rx="1.5" fill="#f6465d" /><line x1="490.63" y1="282.32" x2="490.63" y2="315.90" stroke="#f6465d" stroke-width="1.4" /><rect x="487.63" y="293.25" width="6" height="7.81" rx="1.5" fill="#f6465d" /><line x1="501.37" y1="285.19" x2="501.37" y2="321.88" stroke="#0ecb81" stroke-width="1.4" /><rect x="498.37" y="293.52" width="6" height="8.07" rx="1.5" fill="#0ecb81" /><line x1="512.10" y1="257.08" x2="512.10" y2="296.12" stroke="#0ecb81" stroke-width="1.4" /><rect x="509.10" y="271.92" width="6" height="22.12" rx="1.5" fill="#0ecb81" /><line x1="522.84" y1="248.75" x2="522.84" y2="281.54" stroke="#0ecb81" stroke-width="1.4" /><rect x="519.84" y="258.64" width="6" height="13.53" rx="1.5" fill="#0ecb81" /><line x1="533.57" y1="255.00" x2="533.57" y2="275.04" stroke="#f6465d" stroke-width="1.4" /><rect x="530.57" y="258.64" width="6" height="13.53" rx="1.5" fill="#f6465d" /><line x1="544.30" y1="250.84" x2="544.30" y2="276.60" stroke="#0ecb81" stroke-width="1.4" /><rect x="541.30" y="263.59" width="6" height="8.33" rx="1.5" fill="#0ecb81" /><line x1="555.04" y1="262.03" x2="555.04" y2="298.20" stroke="#f6465d" stroke-width="1.4" /><rect x="552.04" y="263.33" width="6" height="23.68" rx="1.5" fill="#f6465d" /><line x1="565.77" y1="260.46" x2="565.77" y2="292.21" stroke="#0ecb81" stroke-width="1.4" /><rect x="562.77" y="277.12" width="6" height="9.63" rx="1.5" fill="#0ecb81" /><line x1="576.51" y1="264.11" x2="576.51" y2="284.15" stroke="#0ecb81" stroke-width="1.4" /><rect x="573.51" y="265.93" width="6" height="11.97" rx="1.5" fill="#0ecb81" /><line x1="587.24" y1="247.45" x2="587.24" y2="277.38" stroke="#0ecb81" stroke-width="1.4" /><rect x="584.24" y="252.92" width="6" height="13.01" rx="1.5" fill="#0ecb81" /><line x1="597.97" y1="230.80" x2="597.97" y2="256.30" stroke="#0ecb81" stroke-width="1.4" /><rect x="594.97" y="237.56" width="6" height="17.18" rx="1.5" fill="#0ecb81" /><line x1="608.71" y1="218.31" x2="608.71" y2="260.46" stroke="#f6465d" stroke-width="1.4" /><rect x="605.71" y="237.04" width="6" height="15.09" rx="1.5" fill="#f6465d" /><line x1="619.44" y1="173.03" x2="619.44" y2="253.44" stroke="#0ecb81" stroke-width="1.4" /><rect x="616.44" y="192.54" width="6" height="60.64" rx="1.5" fill="#0ecb81" /><line x1="630.18" y1="175.63" x2="630.18" y2="213.10" stroke="#0ecb81" stroke-width="1.4" /><rect x="627.18" y="192.80" width="6" height="2.00" rx="1.5" fill="#0ecb81" /><line x1="640.91" y1="171.46" x2="640.91" y2="216.22" stroke="#0ecb81" stroke-width="1.4" /><rect x="637.91" y="191.76" width="6" height="2.00" rx="1.5" fill="#0ecb81" /><line x1="651.65" y1="139.71" x2="651.65" y2="226.89" stroke="#0ecb81" stroke-width="1.4" /><rect x="648.65" y="161.05" width="6" height="30.19" rx="1.5" fill="#0ecb81" /><line x1="662.38" y1="127.22" x2="662.38" y2="169.38" stroke="#f6465d" stroke-width="1.4" /><rect x="659.38" y="158.97" width="6" height="2.00" rx="1.5" fill="#f6465d" /><line x1="673.11" y1="132.17" x2="673.11" y2="178.75" stroke="#0ecb81" stroke-width="1.4" /><rect x="670.11" y="143.88" width="6" height="16.13" rx="1.5" fill="#0ecb81" /><line x1="683.85" y1="124.10" x2="683.85" y2="184.74" stroke="#f6465d" stroke-width="1.4" /><rect x="680.85" y="143.36" width="6" height="34.87" rx="1.5" fill="#f6465d" /><line x1="694.58" y1="106.66" x2="694.58" y2="178.49" stroke="#0ecb81" stroke-width="1.4" /><rect x="691.58" y="114.21" width="6" height="63.76" rx="1.5" fill="#0ecb81" /><line x1="705.32" y1="104.32" x2="705.32" y2="140.50" stroke="#0ecb81" stroke-width="1.4" /><rect x="702.32" y="108.75" width="6" height="5.73" rx="1.5" fill="#0ecb81" /><line x1="716.05" y1="86.63" x2="716.05" y2="161.83" stroke="#f6465d" stroke-width="1.4" /><rect x="713.05" y="109.27" width="6" height="19.26" rx="1.5" fill="#f6465d" /><line x1="726.78" y1="111.09" x2="726.78" y2="154.81" stroke="#0ecb81" stroke-width="1.4" /><rect x="723.78" y="111.87" width="6" height="16.66" rx="1.5" fill="#0ecb81" /><line x1="737.52" y1="93.39" x2="737.52" y2="138.15" stroke="#f6465d" stroke-width="1.4" /><rect x="734.52" y="112.13" width="6" height="2.00" rx="1.5" fill="#f6465d" /><line x1="748.25" y1="113.69" x2="748.25" y2="143.88" stroke="#f6465d" stroke-width="1.4" /><rect x="745.25" y="114.21" width="6" height="4.42" rx="1.5" fill="#f6465d" /><line x1="758.99" y1="58.00" x2="758.99" y2="138.15" stroke="#0ecb81" stroke-width="1.4" /><rect x="755.99" y="92.09" width="6" height="26.02" rx="1.5" fill="#0ecb81" /><line x1="769.72" y1="75.96" x2="769.72" y2="188.12" stroke="#f6465d" stroke-width="1.4" /><rect x="766.72" y="92.35" width="6" height="44.50" rx="1.5" fill="#f6465d" /><line x1="780.46" y1="119.94" x2="780.46" y2="162.88" stroke="#f6465d" stroke-width="1.4" /><rect x="777.46" y="136.85" width="6" height="23.94" rx="1.5" fill="#f6465d" /><line x1="791.19" y1="141.54" x2="791.19" y2="184.48" stroke="#0ecb81" stroke-width="1.4" /><rect x="788.19" y="148.04" width="6" height="10.93" rx="1.5" fill="#0ecb81" /><line x1="801.92" y1="141.80" x2="801.92" y2="186.04" stroke="#f6465d" stroke-width="1.4" /><rect x="798.92" y="147.78" width="6" height="11.45" rx="1.5" fill="#f6465d" /><line x1="812.66" y1="135.29" x2="812.66" y2="176.41" stroke="#0ecb81" stroke-width="1.4" /><rect x="809.66" y="142.06" width="6" height="17.18" rx="1.5" fill="#0ecb81" /><line x1="823.39" y1="107.71" x2="823.39" y2="158.45" stroke="#0ecb81" stroke-width="1.4" /><rect x="820.39" y="129.31" width="6" height="12.49" rx="1.5" fill="#0ecb81" /><line x1="834.13" y1="116.55" x2="834.13" y2="154.55" stroke="#f6465d" stroke-width="1.4" /><rect x="831.13" y="129.31" width="6" height="11.71" rx="1.5" fill="#f6465d" /><line x1="844.86" y1="133.21" x2="844.86" y2="181.35" stroke="#f6465d" stroke-width="1.4" /><rect x="841.86" y="139.97" width="6" height="24.46" rx="1.5" fill="#f6465d" /><line x1="855.59" y1="157.41" x2="855.59" y2="185.78" stroke="#f6465d" stroke-width="1.4" /><rect x="852.59" y="163.40" width="6" height="8.33" rx="1.5" fill="#f6465d" /><line x1="866.33" y1="159.23" x2="866.33" y2="189.16" stroke="#0ecb81" stroke-width="1.4" /><rect x="863.33" y="171.20" width="6" height="2.00" rx="1.5" fill="#0ecb81" /><line x1="877.06" y1="118.90" x2="877.06" y2="182.39" stroke="#0ecb81" stroke-width="1.4" /><rect x="874.06" y="146.48" width="6" height="24.98" rx="1.5" fill="#0ecb81" /><line x1="887.80" y1="145.44" x2="887.80" y2="170.42" stroke="#f6465d" stroke-width="1.4" /><rect x="884.80" y="146.22" width="6" height="14.57" rx="1.5" fill="#f6465d" /><line x1="898.53" y1="144.92" x2="898.53" y2="163.92" stroke="#0ecb81" stroke-width="1.4" /><rect x="895.53" y="147.00" width="6" height="14.05" rx="1.5" fill="#0ecb81" /><line x1="909.27" y1="129.31" x2="909.27" y2="157.15" stroke="#0ecb81" stroke-width="1.4" /><rect x="906.27" y="135.03" width="6" height="11.97" rx="1.5" fill="#0ecb81" /><line x1="920.00" y1="118.90" x2="920.00" y2="141.80" stroke="#0ecb81" stroke-width="1.4" /><rect x="917.00" y="128.52" width="6" height="5.73" rx="1.5" fill="#0ecb81" />
  <polyline points="436.96,345.82 469.16,243.81 501.37,321.88 522.84,248.75 555.04,298.20" fill="none" stroke="#2fc273" stroke-width="4" stroke-linecap="round" stroke-linejoin="round" />
  <circle cx="436.96" cy="345.82" r="5.5" fill="#2fc273" fill-opacity="0.15" stroke="#2fc273" stroke-width="2" /><text x="436.96" y="333.82" fill="#f3f4f6" font-size="15" font-weight="700" text-anchor="middle">X</text><circle cx="469.16" cy="243.81" r="5.5" fill="#2fc273" fill-opacity="0.15" stroke="#2fc273" stroke-width="2" /><text x="469.16" y="231.81" fill="#f3f4f6" font-size="15" font-weight="700" text-anchor="middle">A</text><circle cx="501.37" cy="321.88" r="5.5" fill="#2fc273" fill-opacity="0.15" stroke="#2fc273" stroke-width="2" /><text x="501.37" y="309.88" fill="#f3f4f6" font-size="15" font-weight="700" text-anchor="middle">B</text><circle cx="522.84" cy="248.75" r="5.5" fill="#2fc273" fill-opacity="0.15" stroke="#2fc273" stroke-width="2" /><text x="522.84" y="236.75" fill="#f3f4f6" font-size="15" font-weight="700" text-anchor="middle">C</text><circle cx="555.04" cy="298.20" r="5.5" fill="#2fc273" fill-opacity="0.15" stroke="#2fc273" stroke-width="2" /><text x="555.04" y="286.20" fill="#f3f4f6" font-size="15" font-weight="700" text-anchor="middle">D</text>
  <text x="56" y="492" fill="#8ba0b5" font-size="18">일반 완성 · TP1 0.089636 · TP2 0.090084 · SL 0.0884</text>
</svg>
