<svg xmlns="http://www.w3.org/2000/svg" width="960" height="540" viewBox="0 0 960 540">
  <rect width="960" height="540" rx="24" fill="#0b1220" />
  <rect x="28" y="28" width="904" height="484" rx="22" fill="#111827" stroke="#1f2937" />
  <text x="56" y="74" fill="#f3f4f6" font-size="34" font-weight="700">RENDERUSDT · AB=CD</text>
  <text x="904" y="74" fill="#8ba0b5" font-size="20" text-anchor="end">Bullish (매수) · Score 83.3</text>
  <line x1="72" y1="58" x2="920" y2="58" stroke="#223045" stroke-width="1" stroke-dasharray="4 8" /><line x1="72" y1="156" x2="920" y2="156" stroke="#223045" stroke-width="1" stroke-dasharray="4 8" /><line x1="72" y1="255" x2="920" y2="255" stroke="#223045" stroke-width="1" stroke-dasharray="4 8" /><line x1="72" y1="353" x2="920" y2="353" stroke="#223045" stroke-width="1" stroke-dasharray="4 8" /><line x1="72" y1="452" x2="920" y2="452" stroke="#223045" stroke-width="1" stroke-dasharray="4 8" />
  <rect x="355.29" y="433.09" width="84" height="20.49" fill="#fbbf24" fill-opacity="0.12" stroke="#fbbf24" stroke-width="1.5" stroke-dasharray="6 6" />
  <line x1="72.00" y1="422.73" x2="72.00" y2="452.00" stroke="#0ecb81" stroke-width="1.4" /><rect x="69.00" y="427.23" width="6" height="4.50" rx="1.5" fill="#0ecb81" /><line x1="82.73" y1="368.70" x2="82.73" y2="431.74" stroke="#0ecb81" stroke-width="1.4" /><rect x="79.73" y="379.95" width="6" height="49.53" rx="1.5" fill="#0ecb81" /><line x1="93.47" y1="352.94" x2="93.47" y2="402.47" stroke="#f6465d" stroke-width="1.4" /><rect x="90.47" y="377.70" width="6" height="18.01" rx="1.5" fill="#f6465d" /><line x1="104.20" y1="388.96" x2="104.20" y2="418.23" stroke="#f6465d" stroke-width="1.4" /><rect x="101.20" y="395.71" width="6" height="15.76" rx="1.5" fill="#f6465d" /><line x1="114.94" y1="388.96" x2="114.94" y2="413.73" stroke="#0ecb81" stroke-width="1.4" /><rect x="111.94" y="388.96" width="6" height="24.77" rx="1.5" fill="#0ecb81" /><line x1="125.67" y1="388.96" x2="125.67" y2="406.97" stroke="#f6465d" stroke-width="1.4" /><rect x="122.67" y="388.96" width="6" height="13.51" rx="1.5" fill="#f6465d" /><line x1="136.41" y1="388.96" x2="136.41" y2="406.97" stroke="#0ecb81" stroke-width="1.4" /><rect x="133.41" y="397.97" width="6" height="4.50" rx="1.5" fill="#0ecb81" /><line x1="147.14" y1="397.97" x2="147.14" y2="420.48" stroke="#f6465d" stroke-width="1.4" /><rect x="144.14" y="397.97" width="6" height="18.01" rx="1.5" fill="#f6465d" /><line x1="157.87" y1="386.71" x2="157.87" y2="420.48" stroke="#0ecb81" stroke-width="1.4" /><rect x="154.87" y="386.71" width="6" height="29.27" rx="1.5" fill="#0ecb81" /><line x1="168.61" y1="384.46" x2="168.61" y2="404.72" stroke="#f6465d" stroke-width="1.4" /><rect x="165.61" y="388.96" width="6" height="6.75" rx="1.5" fill="#f6465d" /><line x1="179.34" y1="382.21" x2="179.34" y2="400.22" stroke="#0ecb81" stroke-width="1.4" /><rect x="176.34" y="382.21" width="6" height="13.51" rx="1.5" fill="#0ecb81" /><line x1="190.08" y1="379.95" x2="190.08" y2="397.97" stroke="#0ecb81" stroke-width="1.4" /><rect x="187.08" y="382.21" width="6" height="2.00" rx="1.5" fill="#0ecb81" /><line x1="200.81" y1="377.70" x2="200.81" y2="404.72" stroke="#f6465d" stroke-width="1.4" /><rect x="197.81" y="382.21" width="6" height="18.01" rx="1.5" fill="#f6465d" /><line x1="211.54" y1="397.97" x2="211.54" y2="411.47" stroke="#0ecb81" stroke-width="1.4" /><rect x="208.54" y="397.97" width="6" height="4.50" rx="1.5" fill="#0ecb81" /><line x1="222.28" y1="377.70" x2="222.28" y2="402.47" stroke="#0ecb81" stroke-width="1.4" /><rect x="219.28" y="382.21" width="6" height="15.76" rx="1.5" fill="#0ecb81" /><line x1="233.01" y1="379.95" x2="233.01" y2="397.97" stroke="#f6465d" stroke-width="1.4" /><rect x="230.01" y="379.95" width="6" height="13.51" rx="1.5" fill="#f6465d" /><line x1="243.75" y1="386.71" x2="243.75" y2="400.22" stroke="#0ecb81" stroke-width="1.4" /><rect x="240.75" y="391.21" width="6" height="2.25" rx="1.5" fill="#0ecb81" /><line x1="254.48" y1="370.95" x2="254.48" y2="393.46" stroke="#f6465d" stroke-width="1.4" /><rect x="251.48" y="388.96" width="6" height="2.25" rx="1.5" fill="#f6465d" /><line x1="265.22" y1="388.96" x2="265.22" y2="415.98" stroke="#f6465d" stroke-width="1.4" /><rect x="262.22" y="391.21" width="6" height="22.51" rx="1.5" fill="#f6465d" /><line x1="275.95" y1="402.47" x2="275.95" y2="420.48" stroke="#0ecb81" stroke-width="1.4" /><rect x="272.95" y="404.72" width="6" height="9.01" rx="1.5" fill="#0ecb81" /><line x1="286.68" y1="400.22" x2="286.68" y2="415.98" stroke="#f6465d" stroke-width="1.4" /><rect x="283.68" y="404.72" width="6" height="6.75" rx="1.5" fill="#f6465d" /><line x1="297.42" y1="409.22" x2="297.42" y2="418.23" stroke="#f6465d" stroke-width="1.4" /><rect x="294.42" y="411.47" width="6" height="2.25" rx="1.5" fill="#f6465d" /><line x1="308.15" y1="391.21" x2="308.15" y2="415.98" stroke="#0ecb81" stroke-width="1.4" /><rect x="305.15" y="402.47" width="6" height="11.26" rx="1.5" fill="#0ecb81" /><line x1="318.89" y1="397.97" x2="318.89" y2="409.22" stroke="#0ecb81" stroke-width="1.4" /><rect x="315.89" y="400.22" width="6" height="4.50" rx="1.5" fill="#0ecb81" /><line x1="329.62" y1="397.97" x2="329.62" y2="413.73" stroke="#f6465d" stroke-width="1.4" /><rect x="326.62" y="400.22" width="6" height="9.01" rx="1.5" fill="#f6465d" /><line x1="340.35" y1="409.22" x2="340.35" y2="418.23" stroke="#f6465d" stroke-width="1.4" /><rect x="337.35" y="409.22" width="6" height="9.01" rx="1.5" fill="#f6465d" /><line x1="351.09" y1="413.73" x2="351.09" y2="420.48" stroke="#f6465d" stroke-width="1.4" /><rect x="348.09" y="415.98" width="6" height="2.25" rx="1.5" fill="#f6465d" /><line x1="361.82" y1="386.71" x2="361.82" y2="418.23" stroke="#0ecb81" stroke-width="1.4" /><rect x="358.82" y="404.72" width="6" height="11.26" rx="1.5" fill="#0ecb81" /><line x1="372.56" y1="391.21" x2="372.56" y2="411.47" stroke="#0ecb81" stroke-width="1.4" /><rect x="369.56" y="402.47" width="6" height="2.00" rx="1.5" fill="#0ecb81" /><line x1="383.29" y1="402.47" x2="383.29" y2="424.98" stroke="#f6465d" stroke-width="1.4" /><rect x="380.29" y="402.47" width="6" height="4.50" rx="1.5" fill="#f6465d" /><line x1="394.03" y1="368.70" x2="394.03" y2="406.97" stroke="#0ecb81" stroke-width="1.4" /><rect x="391.03" y="373.20" width="6" height="33.77" rx="1.5" fill="#0ecb81" /><line x1="404.76" y1="355.19" x2="404.76" y2="377.70" stroke="#0ecb81" stroke-width="1.4" /><rect x="401.76" y="359.69" width="6" height="15.76" rx="1.5" fill="#0ecb81" /><line x1="415.49" y1="330.42" x2="415.49" y2="375.45" stroke="#0ecb81" stroke-width="1.4" /><rect x="412.49" y="332.67" width="6" height="27.02" rx="1.5" fill="#0ecb81" /><line x1="426.23" y1="292.15" x2="426.23" y2="334.93" stroke="#0ecb81" stroke-width="1.4" /><rect x="423.23" y="307.91" width="6" height="27.02" rx="1.5" fill="#0ecb81" /><line x1="436.96" y1="262.88" x2="436.96" y2="305.66" stroke="#0ecb81" stroke-width="1.4" /><rect x="433.96" y="294.40" width="6" height="11.26" rx="1.5" fill="#0ecb81" /><line x1="447.70" y1="274.14" x2="447.70" y2="294.40" stroke="#0ecb81" stroke-width="1.4" /><rect x="444.70" y="274.14" width="6" height="20.26" rx="1.5" fill="#0ecb81" /><line x1="458.43" y1="224.61" x2="458.43" y2="296.65" stroke="#0ecb81" stroke-width="1.4" /><rect x="455.43" y="244.87" width="6" height="29.27" rx="1.5" fill="#0ecb81" /><line x1="469.16" y1="222.35" x2="469.16" y2="258.38" stroke="#0ecb81" stroke-width="1.4" /><rect x="466.16" y="224.61" width="6" height="20.26" rx="1.5" fill="#0ecb81" /><line x1="479.90" y1="202.09" x2="479.90" y2="247.12" stroke="#f6465d" stroke-width="1.4" /><rect x="476.90" y="224.61" width="6" height="9.01" rx="1.5" fill="#f6465d" /><line x1="490.63" y1="231.36" x2="490.63" y2="274.14" stroke="#f6465d" stroke-width="1.4" /><rect x="487.63" y="231.36" width="6" height="40.53" rx="1.5" fill="#f6465d" /><line x1="501.37" y1="269.63" x2="501.37" y2="305.66" stroke="#f6465d" stroke-width="1.4" /><rect x="498.37" y="274.14" width="6" height="6.75" rx="1.5" fill="#f6465d" /><line x1="512.10" y1="256.13" x2="512.10" y2="292.15" stroke="#0ecb81" stroke-width="1.4" /><rect x="509.10" y="256.13" width="6" height="24.77" rx="1.5" fill="#0ecb81" /><line x1="522.84" y1="208.85" x2="522.84" y2="262.88" stroke="#0ecb81" stroke-width="1.4" /><rect x="519.84" y="215.60" width="6" height="38.27" rx="1.5" fill="#0ecb81" /><line x1="533.57" y1="204.34" x2="533.57" y2="247.12" stroke="#f6465d" stroke-width="1.4" /><rect x="530.57" y="215.60" width="6" height="18.01" rx="1.5" fill="#f6465d" /><line x1="544.30" y1="157.06" x2="544.30" y2="231.36" stroke="#0ecb81" stroke-width="1.4" /><rect x="541.30" y="177.33" width="6" height="54.03" rx="1.5" fill="#0ecb81" /><line x1="555.04" y1="157.06" x2="555.04" y2="195.34" stroke="#0ecb81" stroke-width="1.4" /><rect x="552.04" y="172.82" width="6" height="4.50" rx="1.5" fill="#0ecb81" /><line x1="565.77" y1="154.81" x2="565.77" y2="193.09" stroke="#f6465d" stroke-width="1.4" /><rect x="562.77" y="172.82" width="6" height="11.26" rx="1.5" fill="#f6465d" /><line x1="576.51" y1="161.57" x2="576.51" y2="193.09" stroke="#0ecb81" stroke-width="1.4" /><rect x="573.51" y="166.07" width="6" height="18.01" rx="1.5" fill="#0ecb81" /><line x1="587.24" y1="132.30" x2="587.24" y2="170.57" stroke="#0ecb81" stroke-width="1.4" /><rect x="584.24" y="143.55" width="6" height="24.77" rx="1.5" fill="#0ecb81" /><line x1="597.97" y1="139.05" x2="597.97" y2="166.07" stroke="#f6465d" stroke-width="1.4" /><rect x="594.97" y="143.55" width="6" height="9.01" rx="1.5" fill="#f6465d" /><line x1="608.71" y1="145.81" x2="608.71" y2="166.07" stroke="#0ecb81" stroke-width="1.4" /><rect x="605.71" y="148.06" width="6" height="4.50" rx="1.5" fill="#0ecb81" /><line x1="619.44" y1="127.79" x2="619.44" y2="159.31" stroke="#0ecb81" stroke-width="1.4" /><rect x="616.44" y="145.81" width="6" height="2.25" rx="1.5" fill="#0ecb81" /><line x1="630.18" y1="123.29" x2="630.18" y2="152.56" stroke="#0ecb81" stroke-width="1.4" /><rect x="627.18" y="127.79" width="6" height="15.76" rx="1.5" fill="#0ecb81" /><line x1="640.91" y1="105.28" x2="640.91" y2="141.30" stroke="#0ecb81" stroke-width="1.4" /><rect x="637.91" y="114.29" width="6" height="13.51" rx="1.5" fill="#0ecb81" /><line x1="651.65" y1="71.51" x2="651.65" y2="121.04" stroke="#0ecb81" stroke-width="1.4" /><rect x="648.65" y="91.77" width="6" height="20.26" rx="1.5" fill="#0ecb81" /><line x1="662.38" y1="69.26" x2="662.38" y2="98.53" stroke="#0ecb81" stroke-width="1.4" /><rect x="659.38" y="71.51" width="6" height="20.26" rx="1.5" fill="#0ecb81" /><line x1="673.11" y1="64.75" x2="673.11" y2="91.77" stroke="#0ecb81" stroke-width="1.4" /><rect x="670.11" y="64.75" width="6" height="6.75" rx="1.5" fill="#0ecb81" /><line x1="683.85" y1="58.00" x2="683.85" y2="82.77" stroke="#f6465d" stroke-width="1.4" /><rect x="680.85" y="67.01" width="6" height="4.50" rx="1.5" fill="#f6465d" /><line x1="694.58" y1="71.51" x2="694.58" y2="118.79" stroke="#f6465d" stroke-width="1.4" /><rect x="691.58" y="71.51" width="6" height="36.02" rx="1.5" fill="#f6465d" /><line x1="705.32" y1="98.53" x2="705.32" y2="157.06" stroke="#f6465d" stroke-width="1.4" /><rect x="702.32" y="105.28" width="6" height="45.03" rx="1.5" fill="#f6465d" /><line x1="716.05" y1="123.29" x2="716.05" y2="157.06" stroke="#0ecb81" stroke-width="1.4" /><rect x="713.05" y="123.29" width="6" height="27.02" rx="1.5" fill="#0ecb81" /><line x1="726.78" y1="125.54" x2="726.78" y2="213.35" stroke="#f6465d" stroke-width="1.4" /><rect x="723.78" y="125.54" width="6" height="74.30" rx="1.5" fill="#f6465d" /><line x1="737.52" y1="184.08" x2="737.52" y2="208.85" stroke="#0ecb81" stroke-width="1.4" /><rect x="734.52" y="188.58" width="6" height="11.26" rx="1.5" fill="#0ecb81" /><line x1="748.25" y1="170.57" x2="748.25" y2="195.34" stroke="#0ecb81" stroke-width="1.4" /><rect x="745.25" y="181.83" width="6" height="9.01" rx="1.5" fill="#0ecb81" /><line x1="758.99" y1="179.58" x2="758.99" y2="220.10" stroke="#f6465d" stroke-width="1.4" /><rect x="755.99" y="181.83" width="6" height="31.52" rx="1.5" fill="#f6465d" /><line x1="769.72" y1="211.10" x2="769.72" y2="249.37" stroke="#f6465d" stroke-width="1.4" /><rect x="766.72" y="213.35" width="6" height="20.26" rx="1.5" fill="#f6465d" /><line x1="780.46" y1="226.86" x2="780.46" y2="251.62" stroke="#f6465d" stroke-width="1.4" /><rect x="777.46" y="233.61" width="6" height="4.50" rx="1.5" fill="#f6465d" /><line x1="791.19" y1="199.84" x2="791.19" y2="242.62" stroke="#0ecb81" stroke-width="1.4" /><rect x="788.19" y="220.10" width="6" height="20.26" rx="1.5" fill="#0ecb81" /><line x1="801.92" y1="217.85" x2="801.92" y2="235.86" stroke="#f6465d" stroke-width="1.4" /><rect x="798.92" y="220.10" width="6" height="6.75" rx="1.5" fill="#f6465d" /><line x1="812.66" y1="197.59" x2="812.66" y2="226.86" stroke="#0ecb81" stroke-width="1.4" /><rect x="809.66" y="199.84" width="6" height="27.02" rx="1.5" fill="#0ecb81" /><line x1="823.39" y1="175.07" x2="823.39" y2="204.34" stroke="#0ecb81" stroke-width="1.4" /><rect x="820.39" y="190.83" width="6" height="6.75" rx="1.5" fill="#0ecb81" /><line x1="834.13" y1="186.33" x2="834.13" y2="204.34" stroke="#f6465d" stroke-width="1.4" /><rect x="831.13" y="193.09" width="6" height="2.25" rx="1.5" fill="#f6465d" /><line x1="844.86" y1="145.81" x2="844.86" y2="199.84" stroke="#0ecb81" stroke-width="1.4" /><rect x="841.86" y="157.06" width="6" height="40.53" rx="1.5" fill="#0ecb81" /><line x1="855.59" y1="130.05" x2="855.59" y2="166.07" stroke="#0ecb81" stroke-width="1.4" /><rect x="852.59" y="152.56" width="6" height="6.75" rx="1.5" fill="#0ecb81" /><line x1="866.33" y1="136.80" x2="866.33" y2="172.82" stroke="#f6465d" stroke-width="1.4" /><rect x="863.33" y="150.31" width="6" height="20.26" rx="1.5" fill="#f6465d" /><line x1="877.06" y1="145.81" x2="877.06" y2="168.32" stroke="#0ecb81" stroke-width="1.4" /><rect x="874.06" y="148.06" width="6" height="20.26" rx="1.5" fill="#0ecb81" /><line x1="887.80" y1="109.78" x2="887.80" y2="148.06" stroke="#0ecb81" stroke-width="1.4" /><rect x="884.80" y="118.79" width="6" height="29.27" rx="1.5" fill="#0ecb81" /><line x1="898.53" y1="98.53" x2="898.53" y2="123.29" stroke="#0ecb81" stroke-width="1.4" /><rect x="895.53" y="100.78" width="6" height="20.26" rx="1.5" fill="#0ecb81" /><line x1="909.27" y1="87.27" x2="909.27" y2="123.29" stroke="#f6465d" stroke-width="1.4" /><rect x="906.27" y="100.78" width="6" height="6.75" rx="1.5" fill="#f6465d" /><line x1="920.00" y1="103.03" x2="920.00" y2="136.80" stroke="#f6465d" stroke-width="1.4" /><rect x="917.00" y="107.53" width="6" height="15.76" rx="1.5" fill="#f6465d" />
  <polyline points="211.54,411.47 254.48,370.95 275.95,420.48 308.15,391.21 383.29,424.98" fill="none" stroke="#2fc273" stroke-width="4" stroke-linecap="round" stroke-linejoin="round" />
  <circle cx="211.54" cy="411.47" r="5.5" fill="#2fc273" fill-opacity="0.15" stroke="#2fc273" stroke-width="2" /><text x="211.54" y="399.47" fill="#f3f4f6" font-size="15" font-weight="700" text-anchor="middle">X</text><circle cx="254.48" cy="370.95" r="5.5" fill="#2fc273" fill-opacity="0.15" stroke="#2fc273" stroke-width="2" /><text x="254.48" y="358.95" fill="#f3f4f6" font-size="15" font-weight="700" text-anchor="middle">A</text><circle cx="275.95" cy="420.48" r="5.5" fill="#2fc273" fill-opacity="0.15" stroke="#2fc273" stroke-width="2" /><text x="275.95" y="408.48" fill="#f3f4f6" font-size="15" font-weight="700" text-anchor="middle">B</text><circle cx="308.15" cy="391.21" r="5.5" fill="#2fc273" fill-opacity="0.15" stroke="#2fc273" stroke-width="2" /><text x="308.15" y="379.21" fill="#f3f4f6" font-size="15" font-weight="700" text-anchor="middle">C</text><circle cx="383.29" cy="424.98" r="5.5" fill="#2fc273" fill-opacity="0.15" stroke="#2fc273" stroke-width="2" /><text x="383.29" y="412.98" fill="#f3f4f6" font-size="15" font-weight="700" text-anchor="middle">D</text>
  <text x="56" y="492" fill="#8ba0b5" font-size="18">일반 완성 · TP1 1.8407 · TP2 1.8443 · SL 1.8327</text>
</svg>
