<svg xmlns="http://www.w3.org/2000/svg" width="960" height="540" viewBox="0 0 960 540">
  <rect width="960" height="540" rx="24" fill="#0b1220" />
  <rect x="28" y="28" width="904" height="484" rx="22" fill="#111827" stroke="#1f2937" />
  <text x="56" y="74" fill="#f3f4f6" font-size="34" font-weight="700">SIRENUSDT · AB=CD</text>
  <text x="904" y="74" fill="#8ba0b5" font-size="20" text-anchor="end">Bearish (매도) · Score 88.9</text>
  <line x1="72" y1="58" x2="920" y2="58" stroke="#223045" stroke-width="1" stroke-dasharray="4 8" /><line x1="72" y1="156" x2="920" y2="156" stroke="#223045" stroke-width="1" stroke-dasharray="4 8" /><line x1="72" y1="255" x2="920" y2="255" stroke="#223045" stroke-width="1" stroke-dasharray="4 8" /><line x1="72" y1="353" x2="920" y2="353" stroke="#223045" stroke-width="1" stroke-dasharray="4 8" /><line x1="72" y1="452" x2="920" y2="452" stroke="#223045" stroke-width="1" stroke-dasharray="4 8" />
  <rect x="623.65" y="167.39" width="84" height="30.22" fill="#fbbf24" fill-opacity="0.12" stroke="#fbbf24" stroke-width="1.5" stroke-dasharray="6 6" />
  <line x1="72.00" y1="258.85" x2="72.00" y2="289.24" stroke="#f6465d" stroke-width="1.4" /><rect x="69.00" y="270.48" width="6" height="13.48" rx="1.5" fill="#f6465d" /><line x1="82.73" y1="244.83" x2="82.73" y2="285.83" stroke="#0ecb81" stroke-width="1.4" /><rect x="79.73" y="259.21" width="6" height="24.93" rx="1.5" fill="#0ecb81" /><line x1="93.47" y1="256.28" x2="93.47" y2="281.92" stroke="#f6465d" stroke-width="1.4" /><rect x="90.47" y="259.15" width="6" height="8.95" rx="1.5" fill="#f6465d" /><line x1="104.20" y1="265.42" x2="104.20" y2="293.78" stroke="#f6465d" stroke-width="1.4" /><rect x="101.20" y="268.25" width="6" height="2.00" rx="1.5" fill="#f6465d" /><line x1="114.94" y1="233.94" x2="114.94" y2="315.23" stroke="#f6465d" stroke-width="1.4" /><rect x="111.94" y="269.78" width="6" height="3.24" rx="1.5" fill="#f6465d" /><line x1="125.67" y1="271.26" x2="125.67" y2="321.02" stroke="#f6465d" stroke-width="1.4" /><rect x="122.67" y="273.15" width="6" height="43.23" rx="1.5" fill="#f6465d" /><line x1="136.41" y1="267.62" x2="136.41" y2="327.28" stroke="#0ecb81" stroke-width="1.4" /><rect x="133.41" y="275.81" width="6" height="40.56" rx="1.5" fill="#0ecb81" /><line x1="147.14" y1="246.48" x2="147.14" y2="282.21" stroke="#0ecb81" stroke-width="1.4" /><rect x="144.14" y="267.51" width="6" height="8.38" rx="1.5" fill="#0ecb81" /><line x1="157.87" y1="260.39" x2="157.87" y2="282.88" stroke="#0ecb81" stroke-width="1.4" /><rect x="154.87" y="266.97" width="6" height="2.00" rx="1.5" fill="#0ecb81" /><line x1="168.61" y1="264.73" x2="168.61" y2="286.29" stroke="#f6465d" stroke-width="1.4" /><rect x="165.61" y="266.88" width="6" height="13.50" rx="1.5" fill="#f6465d" /><line x1="179.34" y1="236.41" x2="179.34" y2="281.99" stroke="#0ecb81" stroke-width="1.4" /><rect x="176.34" y="249.83" width="6" height="30.52" rx="1.5" fill="#0ecb81" /><line x1="190.08" y1="247.46" x2="190.08" y2="273.44" stroke="#f6465d" stroke-width="1.4" /><rect x="187.08" y="249.76" width="6" height="22.77" rx="1.5" fill="#f6465d" /><line x1="200.81" y1="249.35" x2="200.81" y2="278.32" stroke="#0ecb81" stroke-width="1.4" /><rect x="197.81" y="270.92" width="6" height="2.00" rx="1.5" fill="#0ecb81" /><line x1="211.54" y1="261.54" x2="211.54" y2="276.00" stroke="#0ecb81" stroke-width="1.4" /><rect x="208.54" y="266.31" width="6" height="4.65" rx="1.5" fill="#0ecb81" /><line x1="222.28" y1="264.72" x2="222.28" y2="276.49" stroke="#f6465d" stroke-width="1.4" /><rect x="219.28" y="266.31" width="6" height="3.26" rx="1.5" fill="#f6465d" /><line x1="233.01" y1="117.84" x2="233.01" y2="273.80" stroke="#0ecb81" stroke-width="1.4" /><rect x="230.01" y="143.36" width="6" height="126.20" rx="1.5" fill="#0ecb81" /><line x1="243.75" y1="58.00" x2="243.75" y2="185.09" stroke="#0ecb81" stroke-width="1.4" /><rect x="240.75" y="96.51" width="6" height="46.86" rx="1.5" fill="#0ecb81" /><line x1="254.48" y1="74.01" x2="254.48" y2="452.00" stroke="#f6465d" stroke-width="1.4" /><rect x="251.48" y="96.99" width="6" height="187.50" rx="1.5" fill="#f6465d" /><line x1="265.22" y1="184.89" x2="265.22" y2="319.20" stroke="#0ecb81" stroke-width="1.4" /><rect x="262.22" y="218.92" width="6" height="65.56" rx="1.5" fill="#0ecb81" /><line x1="275.95" y1="188.12" x2="275.95" y2="273.80" stroke="#f6465d" stroke-width="1.4" /><rect x="272.95" y="218.93" width="6" height="5.84" rx="1.5" fill="#f6465d" /><line x1="286.68" y1="169.18" x2="286.68" y2="243.80" stroke="#0ecb81" stroke-width="1.4" /><rect x="283.68" y="180.47" width="6" height="44.27" rx="1.5" fill="#0ecb81" /><line x1="297.42" y1="160.50" x2="297.42" y2="223.81" stroke="#f6465d" stroke-width="1.4" /><rect x="294.42" y="180.23" width="6" height="13.14" rx="1.5" fill="#f6465d" /><line x1="308.15" y1="193.17" x2="308.15" y2="255.64" stroke="#f6465d" stroke-width="1.4" /><rect x="305.15" y="193.17" width="6" height="42.23" rx="1.5" fill="#f6465d" /><line x1="318.89" y1="233.68" x2="318.89" y2="303.00" stroke="#f6465d" stroke-width="1.4" /><rect x="315.89" y="235.38" width="6" height="41.53" rx="1.5" fill="#f6465d" /><line x1="329.62" y1="251.62" x2="329.62" y2="296.29" stroke="#f6465d" stroke-width="1.4" /><rect x="326.62" y="276.73" width="6" height="7.50" rx="1.5" fill="#f6465d" /><line x1="340.35" y1="283.12" x2="340.35" y2="364.26" stroke="#f6465d" stroke-width="1.4" /><rect x="337.35" y="284.20" width="6" height="62.15" rx="1.5" fill="#f6465d" /><line x1="351.09" y1="292.41" x2="351.09" y2="400.03" stroke="#0ecb81" stroke-width="1.4" /><rect x="348.09" y="305.79" width="6" height="40.29" rx="1.5" fill="#0ecb81" /><line x1="361.82" y1="267.93" x2="361.82" y2="351.16" stroke="#f6465d" stroke-width="1.4" /><rect x="358.82" y="305.43" width="6" height="4.63" rx="1.5" fill="#f6465d" /><line x1="372.56" y1="303.83" x2="372.56" y2="344.90" stroke="#f6465d" stroke-width="1.4" /><rect x="369.56" y="309.83" width="6" height="5.43" rx="1.5" fill="#f6465d" /><line x1="383.29" y1="315.36" x2="383.29" y2="378.12" stroke="#f6465d" stroke-width="1.4" /><rect x="380.29" y="315.36" width="6" height="51.97" rx="1.5" fill="#f6465d" /><line x1="394.03" y1="339.19" x2="394.03" y2="384.59" stroke="#f6465d" stroke-width="1.4" /><rect x="391.03" y="367.34" width="6" height="7.80" rx="1.5" fill="#f6465d" /><line x1="404.76" y1="342.42" x2="404.76" y2="380.63" stroke="#0ecb81" stroke-width="1.4" /><rect x="401.76" y="347.17" width="6" height="27.96" rx="1.5" fill="#0ecb81" /><line x1="415.49" y1="323.03" x2="415.49" y2="420.91" stroke="#f6465d" stroke-width="1.4" /><rect x="412.49" y="347.21" width="6" height="43.49" rx="1.5" fill="#f6465d" /><line x1="426.23" y1="366.05" x2="426.23" y2="414.56" stroke="#f6465d" stroke-width="1.4" /><rect x="423.23" y="390.49" width="6" height="5.52" rx="1.5" fill="#f6465d" /><line x1="436.96" y1="378.32" x2="436.96" y2="410.04" stroke="#f6465d" stroke-width="1.4" /><rect x="433.96" y="396.01" width="6" height="11.22" rx="1.5" fill="#f6465d" /><line x1="447.70" y1="394.52" x2="447.70" y2="427.83" stroke="#0ecb81" stroke-width="1.4" /><rect x="444.70" y="400.01" width="6" height="7.11" rx="1.5" fill="#0ecb81" /><line x1="458.43" y1="356.44" x2="458.43" y2="401.35" stroke="#0ecb81" stroke-width="1.4" /><rect x="455.43" y="363.35" width="6" height="36.76" rx="1.5" fill="#0ecb81" /><line x1="469.16" y1="330.34" x2="469.16" y2="365.24" stroke="#0ecb81" stroke-width="1.4" /><rect x="466.16" y="335.50" width="6" height="27.82" rx="1.5" fill="#0ecb81" /><line x1="479.90" y1="312.70" x2="479.90" y2="349.37" stroke="#0ecb81" stroke-width="1.4" /><rect x="476.90" y="323.01" width="6" height="12.50" rx="1.5" fill="#0ecb81" /><line x1="490.63" y1="321.94" x2="490.63" y2="345.59" stroke="#f6465d" stroke-width="1.4" /><rect x="487.63" y="323.03" width="6" height="19.23" rx="1.5" fill="#f6465d" /><line x1="501.37" y1="281.24" x2="501.37" y2="342.72" stroke="#0ecb81" stroke-width="1.4" /><rect x="498.37" y="282.53" width="6" height="59.77" rx="1.5" fill="#0ecb81" /><line x1="512.10" y1="278.31" x2="512.10" y2="314.65" stroke="#f6465d" stroke-width="1.4" /><rect x="509.10" y="282.30" width="6" height="11.42" rx="1.5" fill="#f6465d" /><line x1="522.84" y1="261.22" x2="522.84" y2="308.00" stroke="#f6465d" stroke-width="1.4" /><rect x="519.84" y="293.80" width="6" height="4.99" rx="1.5" fill="#f6465d" /><line x1="533.57" y1="281.35" x2="533.57" y2="313.48" stroke="#0ecb81" stroke-width="1.4" /><rect x="530.57" y="287.11" width="6" height="11.69" rx="1.5" fill="#0ecb81" /><line x1="544.30" y1="272.25" x2="544.30" y2="296.30" stroke="#f6465d" stroke-width="1.4" /><rect x="541.30" y="287.11" width="6" height="5.74" rx="1.5" fill="#f6465d" /><line x1="555.04" y1="292.16" x2="555.04" y2="304.77" stroke="#f6465d" stroke-width="1.4" /><rect x="552.04" y="292.65" width="6" height="5.87" rx="1.5" fill="#f6465d" /><line x1="565.77" y1="292.75" x2="565.77" y2="328.27" stroke="#f6465d" stroke-width="1.4" /><rect x="562.77" y="298.54" width="6" height="28.10" rx="1.5" fill="#f6465d" /><line x1="576.51" y1="302.87" x2="576.51" y2="334.00" stroke="#0ecb81" stroke-width="1.4" /><rect x="573.51" y="314.53" width="6" height="12.28" rx="1.5" fill="#0ecb81" /><line x1="587.24" y1="288.33" x2="587.24" y2="322.75" stroke="#0ecb81" stroke-width="1.4" /><rect x="584.24" y="296.97" width="6" height="17.58" rx="1.5" fill="#0ecb81" /><line x1="597.97" y1="269.29" x2="597.97" y2="296.92" stroke="#0ecb81" stroke-width="1.4" /><rect x="594.97" y="279.30" width="6" height="17.62" rx="1.5" fill="#0ecb81" /><line x1="608.71" y1="272.80" x2="608.71" y2="287.73" stroke="#f6465d" stroke-width="1.4" /><rect x="605.71" y="279.27" width="6" height="4.42" rx="1.5" fill="#f6465d" /><line x1="619.44" y1="271.15" x2="619.44" y2="298.50" stroke="#0ecb81" stroke-width="1.4" /><rect x="616.44" y="282.04" width="6" height="2.00" rx="1.5" fill="#0ecb81" /><line x1="630.18" y1="240.76" x2="630.18" y2="285.26" stroke="#0ecb81" stroke-width="1.4" /><rect x="627.18" y="244.43" width="6" height="37.69" rx="1.5" fill="#0ecb81" /><line x1="640.91" y1="221.38" x2="640.91" y2="248.93" stroke="#0ecb81" stroke-width="1.4" /><rect x="637.91" y="225.93" width="6" height="18.59" rx="1.5" fill="#0ecb81" /><line x1="651.65" y1="178.75" x2="651.65" y2="232.41" stroke="#0ecb81" stroke-width="1.4" /><rect x="648.65" y="199.70" width="6" height="26.39" rx="1.5" fill="#0ecb81" /><line x1="662.38" y1="186.16" x2="662.38" y2="237.45" stroke="#0ecb81" stroke-width="1.4" /><rect x="659.38" y="190.35" width="6" height="9.32" rx="1.5" fill="#0ecb81" /><line x1="673.11" y1="190.08" x2="673.11" y2="261.81" stroke="#f6465d" stroke-width="1.4" /><rect x="670.11" y="190.38" width="6" height="51.97" rx="1.5" fill="#f6465d" /><line x1="683.85" y1="212.90" x2="683.85" y2="245.99" stroke="#0ecb81" stroke-width="1.4" /><rect x="680.85" y="237.42" width="6" height="4.93" rx="1.5" fill="#0ecb81" /><line x1="694.58" y1="221.56" x2="694.58" y2="245.65" stroke="#0ecb81" stroke-width="1.4" /><rect x="691.58" y="237.26" width="6" height="2.00" rx="1.5" fill="#0ecb81" /><line x1="705.32" y1="223.35" x2="705.32" y2="245.65" stroke="#0ecb81" stroke-width="1.4" /><rect x="702.32" y="225.27" width="6" height="11.97" rx="1.5" fill="#0ecb81" /><line x1="716.05" y1="223.37" x2="716.05" y2="271.14" stroke="#f6465d" stroke-width="1.4" /><rect x="713.05" y="225.23" width="6" height="31.46" rx="1.5" fill="#f6465d" /><line x1="726.78" y1="251.36" x2="726.78" y2="304.61" stroke="#f6465d" stroke-width="1.4" /><rect x="723.78" y="256.85" width="6" height="43.25" rx="1.5" fill="#f6465d" /><line x1="737.52" y1="263.51" x2="737.52" y2="301.23" stroke="#0ecb81" stroke-width="1.4" /><rect x="734.52" y="267.56" width="6" height="32.65" rx="1.5" fill="#0ecb81" /><line x1="748.25" y1="246.55" x2="748.25" y2="291.75" stroke="#0ecb81" stroke-width="1.4" /><rect x="745.25" y="248.18" width="6" height="19.38" rx="1.5" fill="#0ecb81" /><line x1="758.99" y1="243.40" x2="758.99" y2="267.90" stroke="#f6465d" stroke-width="1.4" /><rect x="755.99" y="248.33" width="6" height="14.38" rx="1.5" fill="#f6465d" /><line x1="769.72" y1="253.43" x2="769.72" y2="276.70" stroke="#0ecb81" stroke-width="1.4" /><rect x="766.72" y="258.99" width="6" height="3.72" rx="1.5" fill="#0ecb81" /><line x1="780.46" y1="256.11" x2="780.46" y2="286.56" stroke="#f6465d" stroke-width="1.4" /><rect x="777.46" y="258.93" width="6" height="22.80" rx="1.5" fill="#f6465d" /><line x1="791.19" y1="260.18" x2="791.19" y2="298.71" stroke="#0ecb81" stroke-width="1.4" /><rect x="788.19" y="269.28" width="6" height="12.54" rx="1.5" fill="#0ecb81" /><line x1="801.92" y1="264.15" x2="801.92" y2="287.24" stroke="#0ecb81" stroke-width="1.4" /><rect x="798.92" y="268.97" width="6" height="2.00" rx="1.5" fill="#0ecb81" /><line x1="812.66" y1="262.91" x2="812.66" y2="277.74" stroke="#f6465d" stroke-width="1.4" /><rect x="809.66" y="269.00" width="6" height="5.06" rx="1.5" fill="#f6465d" /><line x1="823.39" y1="263.44" x2="823.39" y2="285.53" stroke="#0ecb81" stroke-width="1.4" /><rect x="820.39" y="268.81" width="6" height="5.23" rx="1.5" fill="#0ecb81" /><line x1="834.13" y1="250.20" x2="834.13" y2="271.25" stroke="#0ecb81" stroke-width="1.4" /><rect x="831.13" y="267.04" width="6" height="2.00" rx="1.5" fill="#0ecb81" /><line x1="844.86" y1="262.90" x2="844.86" y2="278.33" stroke="#f6465d" stroke-width="1.4" /><rect x="841.86" y="267.07" width="6" height="6.07" rx="1.5" fill="#f6465d" /><line x1="855.59" y1="256.62" x2="855.59" y2="280.35" stroke="#0ecb81" stroke-width="1.4" /><rect x="852.59" y="262.84" width="6" height="10.31" rx="1.5" fill="#0ecb81" /><line x1="866.33" y1="262.25" x2="866.33" y2="276.44" stroke="#f6465d" stroke-width="1.4" /><rect x="863.33" y="262.69" width="6" height="7.04" rx="1.5" fill="#f6465d" /><line x1="877.06" y1="269.57" x2="877.06" y2="289.69" stroke="#f6465d" stroke-width="1.4" /><rect x="874.06" y="269.74" width="6" height="4.12" rx="1.5" fill="#f6465d" /><line x1="887.80" y1="272.10" x2="887.80" y2="291.95" stroke="#f6465d" stroke-width="1.4" /><rect x="884.80" y="273.75" width="6" height="9.60" rx="1.5" fill="#f6465d" /><line x1="898.53" y1="254.73" x2="898.53" y2="294.55" stroke="#0ecb81" stroke-width="1.4" /><rect x="895.53" y="267.22" width="6" height="16.14" rx="1.5" fill="#0ecb81" /><line x1="909.27" y1="205.69" x2="909.27" y2="269.20" stroke="#0ecb81" stroke-width="1.4" /><rect x="906.27" y="221.26" width="6" height="45.96" rx="1.5" fill="#0ecb81" /><line x1="920.00" y1="213.24" x2="920.00" y2="224.42" stroke="#0ecb81" stroke-width="1.4" /><rect x="917.00" y="217.44" width="6" height="3.81" rx="1.5" fill="#0ecb81" />
  <polyline points="297.42,160.50 447.70,427.83 522.84,261.22 576.51,334.00 651.65,178.75" fill="none" stroke="#2fc273" stroke-width="4" stroke-linecap="round" stroke-linejoin="round" />
  <circle cx="297.42" cy="160.50" r="5.5" fill="#2fc273" fill-opacity="0.15" stroke="#2fc273" stroke-width="2" /><text x="297.42" y="148.50" fill="#f3f4f6" font-size="15" font-weight="700" text-anchor="middle">X</text><circle cx="447.70" cy="427.83" r="5.5" fill="#2fc273" fill-opacity="0.15" stroke="#2fc273" stroke-width="2" /><text x="447.70" y="415.83" fill="#f3f4f6" font-size="15" font-weight="700" text-anchor="middle">A</text><circle cx="522.84" cy="261.22" r="5.5" fill="#2fc273" fill-opacity="0.15" stroke="#2fc273" stroke-width="2" /><text x="522.84" y="249.22" fill="#f3f4f6" font-size="15" font-weight="700" text-anchor="middle">B</text><circle cx="576.51" cy="334.00" r="5.5" fill="#2fc273" fill-opacity="0.15" stroke="#2fc273" stroke-width="2" /><text x="576.51" y="322.00" fill="#f3f4f6" font-size="15" font-weight="700" text-anchor="middle">C</text><circle cx="651.65" cy="178.75" r="5.5" fill="#2fc273" fill-opacity="0.15" stroke="#2fc273" stroke-width="2" /><text x="651.65" y="166.75" fill="#f3f4f6" font-size="15" font-weight="700" text-anchor="middle">D</text>
  <text x="56" y="492" fill="#8ba0b5" font-size="18">일반 완성 · TP1 0.57936 · TP2 0.53901 · SL 0.68293</text>
</svg>
