<svg xmlns="http://www.w3.org/2000/svg" width="960" height="540" viewBox="0 0 960 540">
  <rect width="960" height="540" rx="24" fill="#0b1220" />
  <rect x="28" y="28" width="904" height="484" rx="22" fill="#111827" stroke="#1f2937" />
  <text x="56" y="74" fill="#f3f4f6" font-size="34" font-weight="700">SOLUSDT · AB=CD</text>
  <text x="904" y="74" fill="#8ba0b5" font-size="20" text-anchor="end">Bullish (매수) · Score 85.8</text>
  <line x1="72" y1="58" x2="920" y2="58" stroke="#223045" stroke-width="1" stroke-dasharray="4 8" /><line x1="72" y1="156" x2="920" y2="156" stroke="#223045" stroke-width="1" stroke-dasharray="4 8" /><line x1="72" y1="255" x2="920" y2="255" stroke="#223045" stroke-width="1" stroke-dasharray="4 8" /><line x1="72" y1="353" x2="920" y2="353" stroke="#223045" stroke-width="1" stroke-dasharray="4 8" /><line x1="72" y1="452" x2="920" y2="452" stroke="#223045" stroke-width="1" stroke-dasharray="4 8" />
  <rect x="773.92" y="309.30" width="84" height="91.77" fill="#fbbf24" fill-opacity="0.12" stroke="#fbbf24" stroke-width="1.5" stroke-dasharray="6 6" />
  <line x1="72.00" y1="401.55" x2="72.00" y2="430.38" stroke="#f6465d" stroke-width="1.4" /><rect x="69.00" y="401.55" width="6" height="24.02" rx="1.5" fill="#f6465d" /><line x1="82.73" y1="418.37" x2="82.73" y2="442.39" stroke="#f6465d" stroke-width="1.4" /><rect x="79.73" y="425.57" width="6" height="12.01" rx="1.5" fill="#f6465d" /><line x1="93.47" y1="391.94" x2="93.47" y2="452.00" stroke="#0ecb81" stroke-width="1.4" /><rect x="90.47" y="430.38" width="6" height="9.61" rx="1.5" fill="#0ecb81" /><line x1="104.20" y1="403.95" x2="104.20" y2="452.00" stroke="#0ecb81" stroke-width="1.4" /><rect x="101.20" y="411.16" width="6" height="19.22" rx="1.5" fill="#0ecb81" /><line x1="114.94" y1="377.52" x2="114.94" y2="432.78" stroke="#f6465d" stroke-width="1.4" /><rect x="111.94" y="411.16" width="6" height="9.61" rx="1.5" fill="#f6465d" /><line x1="125.67" y1="202.15" x2="125.67" y2="420.77" stroke="#0ecb81" stroke-width="1.4" /><rect x="122.67" y="218.96" width="6" height="199.40" rx="1.5" fill="#0ecb81" /><line x1="136.41" y1="137.28" x2="136.41" y2="274.22" stroke="#f6465d" stroke-width="1.4" /><rect x="133.41" y="218.96" width="6" height="45.65" rx="1.5" fill="#f6465d" /><line x1="147.14" y1="228.57" x2="147.14" y2="279.02" stroke="#f6465d" stroke-width="1.4" /><rect x="144.14" y="267.01" width="6" height="4.80" rx="1.5" fill="#f6465d" /><line x1="157.87" y1="209.35" x2="157.87" y2="271.82" stroke="#0ecb81" stroke-width="1.4" /><rect x="154.87" y="235.78" width="6" height="33.63" rx="1.5" fill="#0ecb81" /><line x1="168.61" y1="209.35" x2="168.61" y2="255.00" stroke="#0ecb81" stroke-width="1.4" /><rect x="165.61" y="214.16" width="6" height="21.62" rx="1.5" fill="#0ecb81" /><line x1="179.34" y1="192.54" x2="179.34" y2="223.77" stroke="#0ecb81" stroke-width="1.4" /><rect x="176.34" y="204.55" width="6" height="9.61" rx="1.5" fill="#0ecb81" /><line x1="190.08" y1="158.90" x2="190.08" y2="216.56" stroke="#0ecb81" stroke-width="1.4" /><rect x="187.08" y="173.32" width="6" height="31.23" rx="1.5" fill="#0ecb81" /><line x1="200.81" y1="142.09" x2="200.81" y2="209.35" stroke="#f6465d" stroke-width="1.4" /><rect x="197.81" y="173.32" width="6" height="31.23" rx="1.5" fill="#f6465d" /><line x1="211.54" y1="202.15" x2="211.54" y2="257.40" stroke="#f6465d" stroke-width="1.4" /><rect x="208.54" y="204.55" width="6" height="43.24" rx="1.5" fill="#f6465d" /><line x1="222.28" y1="192.54" x2="222.28" y2="257.40" stroke="#0ecb81" stroke-width="1.4" /><rect x="219.28" y="216.56" width="6" height="31.23" rx="1.5" fill="#0ecb81" /><line x1="233.01" y1="180.52" x2="233.01" y2="228.57" stroke="#0ecb81" stroke-width="1.4" /><rect x="230.01" y="202.15" width="6" height="16.82" rx="1.5" fill="#0ecb81" /><line x1="243.75" y1="199.74" x2="243.75" y2="240.59" stroke="#f6465d" stroke-width="1.4" /><rect x="240.75" y="202.15" width="6" height="28.83" rx="1.5" fill="#f6465d" /><line x1="254.48" y1="221.37" x2="254.48" y2="250.20" stroke="#f6465d" stroke-width="1.4" /><rect x="251.48" y="228.57" width="6" height="7.21" rx="1.5" fill="#f6465d" /><line x1="265.22" y1="214.16" x2="265.22" y2="250.20" stroke="#0ecb81" stroke-width="1.4" /><rect x="262.22" y="223.77" width="6" height="12.01" rx="1.5" fill="#0ecb81" /><line x1="275.95" y1="214.16" x2="275.95" y2="247.79" stroke="#f6465d" stroke-width="1.4" /><rect x="272.95" y="221.37" width="6" height="26.43" rx="1.5" fill="#f6465d" /><line x1="286.68" y1="194.94" x2="286.68" y2="252.60" stroke="#0ecb81" stroke-width="1.4" /><rect x="283.68" y="194.94" width="6" height="50.45" rx="1.5" fill="#0ecb81" /><line x1="297.42" y1="149.29" x2="297.42" y2="197.34" stroke="#0ecb81" stroke-width="1.4" /><rect x="294.42" y="161.30" width="6" height="33.63" rx="1.5" fill="#0ecb81" /><line x1="308.15" y1="146.89" x2="308.15" y2="192.54" stroke="#f6465d" stroke-width="1.4" /><rect x="305.15" y="158.90" width="6" height="28.83" rx="1.5" fill="#f6465d" /><line x1="318.89" y1="151.70" x2="318.89" y2="192.54" stroke="#0ecb81" stroke-width="1.4" /><rect x="315.89" y="156.50" width="6" height="33.63" rx="1.5" fill="#0ecb81" /><line x1="329.62" y1="151.70" x2="329.62" y2="180.52" stroke="#f6465d" stroke-width="1.4" /><rect x="326.62" y="156.50" width="6" height="12.01" rx="1.5" fill="#f6465d" /><line x1="340.35" y1="120.46" x2="340.35" y2="178.12" stroke="#0ecb81" stroke-width="1.4" /><rect x="337.35" y="134.88" width="6" height="33.63" rx="1.5" fill="#0ecb81" /><line x1="351.09" y1="132.48" x2="351.09" y2="178.12" stroke="#f6465d" stroke-width="1.4" /><rect x="348.09" y="137.28" width="6" height="38.44" rx="1.5" fill="#f6465d" /><line x1="361.82" y1="168.51" x2="361.82" y2="204.55" stroke="#f6465d" stroke-width="1.4" /><rect x="358.82" y="175.72" width="6" height="4.80" rx="1.5" fill="#f6465d" /><line x1="372.56" y1="166.11" x2="372.56" y2="209.35" stroke="#0ecb81" stroke-width="1.4" /><rect x="369.56" y="173.32" width="6" height="4.80" rx="1.5" fill="#0ecb81" /><line x1="383.29" y1="170.91" x2="383.29" y2="238.18" stroke="#f6465d" stroke-width="1.4" /><rect x="380.29" y="170.91" width="6" height="50.45" rx="1.5" fill="#f6465d" /><line x1="394.03" y1="190.13" x2="394.03" y2="245.39" stroke="#f6465d" stroke-width="1.4" /><rect x="391.03" y="223.77" width="6" height="19.22" rx="1.5" fill="#f6465d" /><line x1="404.76" y1="233.38" x2="404.76" y2="288.63" stroke="#f6465d" stroke-width="1.4" /><rect x="401.76" y="245.39" width="6" height="7.21" rx="1.5" fill="#f6465d" /><line x1="415.49" y1="192.54" x2="415.49" y2="252.60" stroke="#0ecb81" stroke-width="1.4" /><rect x="412.49" y="221.37" width="6" height="28.83" rx="1.5" fill="#0ecb81" /><line x1="426.23" y1="211.76" x2="426.23" y2="238.18" stroke="#f6465d" stroke-width="1.4" /><rect x="423.23" y="221.37" width="6" height="12.01" rx="1.5" fill="#f6465d" /><line x1="436.96" y1="216.56" x2="436.96" y2="240.59" stroke="#f6465d" stroke-width="1.4" /><rect x="433.96" y="233.38" width="6" height="2.40" rx="1.5" fill="#f6465d" /><line x1="447.70" y1="218.96" x2="447.70" y2="245.39" stroke="#0ecb81" stroke-width="1.4" /><rect x="444.70" y="221.37" width="6" height="16.82" rx="1.5" fill="#0ecb81" /><line x1="458.43" y1="180.52" x2="458.43" y2="235.78" stroke="#0ecb81" stroke-width="1.4" /><rect x="455.43" y="199.74" width="6" height="21.62" rx="1.5" fill="#0ecb81" /><line x1="469.16" y1="192.54" x2="469.16" y2="223.77" stroke="#f6465d" stroke-width="1.4" /><rect x="466.16" y="199.74" width="6" height="7.21" rx="1.5" fill="#f6465d" /><line x1="479.90" y1="168.51" x2="479.90" y2="214.16" stroke="#f6465d" stroke-width="1.4" /><rect x="476.90" y="206.95" width="6" height="2.40" rx="1.5" fill="#f6465d" /><line x1="490.63" y1="209.35" x2="490.63" y2="250.20" stroke="#f6465d" stroke-width="1.4" /><rect x="487.63" y="209.35" width="6" height="24.02" rx="1.5" fill="#f6465d" /><line x1="501.37" y1="182.93" x2="501.37" y2="235.78" stroke="#0ecb81" stroke-width="1.4" /><rect x="498.37" y="199.74" width="6" height="31.23" rx="1.5" fill="#0ecb81" /><line x1="512.10" y1="180.52" x2="512.10" y2="206.95" stroke="#0ecb81" stroke-width="1.4" /><rect x="509.10" y="197.34" width="6" height="2.00" rx="1.5" fill="#0ecb81" /><line x1="522.84" y1="163.71" x2="522.84" y2="197.34" stroke="#0ecb81" stroke-width="1.4" /><rect x="519.84" y="182.93" width="6" height="14.41" rx="1.5" fill="#0ecb81" /><line x1="533.57" y1="173.32" x2="533.57" y2="214.16" stroke="#f6465d" stroke-width="1.4" /><rect x="530.57" y="182.93" width="6" height="24.02" rx="1.5" fill="#f6465d" /><line x1="544.30" y1="197.34" x2="544.30" y2="250.20" stroke="#f6465d" stroke-width="1.4" /><rect x="541.30" y="206.95" width="6" height="40.84" rx="1.5" fill="#f6465d" /><line x1="555.04" y1="211.76" x2="555.04" y2="267.01" stroke="#0ecb81" stroke-width="1.4" /><rect x="552.04" y="230.98" width="6" height="19.22" rx="1.5" fill="#0ecb81" /><line x1="565.77" y1="209.35" x2="565.77" y2="235.78" stroke="#0ecb81" stroke-width="1.4" /><rect x="562.77" y="228.57" width="6" height="2.40" rx="1.5" fill="#0ecb81" /><line x1="576.51" y1="199.74" x2="576.51" y2="245.39" stroke="#f6465d" stroke-width="1.4" /><rect x="573.51" y="226.17" width="6" height="16.82" rx="1.5" fill="#f6465d" /><line x1="587.24" y1="204.55" x2="587.24" y2="259.80" stroke="#0ecb81" stroke-width="1.4" /><rect x="584.24" y="230.98" width="6" height="14.41" rx="1.5" fill="#0ecb81" /><line x1="597.97" y1="226.17" x2="597.97" y2="293.44" stroke="#f6465d" stroke-width="1.4" /><rect x="594.97" y="230.98" width="6" height="28.83" rx="1.5" fill="#f6465d" /><line x1="608.71" y1="259.80" x2="608.71" y2="291.04" stroke="#f6465d" stroke-width="1.4" /><rect x="605.71" y="259.80" width="6" height="24.02" rx="1.5" fill="#f6465d" /><line x1="619.44" y1="259.80" x2="619.44" y2="293.44" stroke="#0ecb81" stroke-width="1.4" /><rect x="616.44" y="269.41" width="6" height="14.41" rx="1.5" fill="#0ecb81" /><line x1="630.18" y1="259.80" x2="630.18" y2="291.04" stroke="#0ecb81" stroke-width="1.4" /><rect x="627.18" y="269.41" width="6" height="2.00" rx="1.5" fill="#0ecb81" /><line x1="640.91" y1="247.79" x2="640.91" y2="295.84" stroke="#0ecb81" stroke-width="1.4" /><rect x="637.91" y="250.20" width="6" height="19.22" rx="1.5" fill="#0ecb81" /><line x1="651.65" y1="240.59" x2="651.65" y2="269.41" stroke="#f6465d" stroke-width="1.4" /><rect x="648.65" y="250.20" width="6" height="16.82" rx="1.5" fill="#f6465d" /><line x1="662.38" y1="252.60" x2="662.38" y2="283.83" stroke="#0ecb81" stroke-width="1.4" /><rect x="659.38" y="267.01" width="6" height="2.00" rx="1.5" fill="#0ecb81" /><line x1="673.11" y1="240.59" x2="673.11" y2="293.44" stroke="#0ecb81" stroke-width="1.4" /><rect x="670.11" y="240.59" width="6" height="26.43" rx="1.5" fill="#0ecb81" /><line x1="683.85" y1="194.94" x2="683.85" y2="242.99" stroke="#0ecb81" stroke-width="1.4" /><rect x="680.85" y="218.96" width="6" height="24.02" rx="1.5" fill="#0ecb81" /><line x1="694.58" y1="199.74" x2="694.58" y2="233.38" stroke="#0ecb81" stroke-width="1.4" /><rect x="691.58" y="211.76" width="6" height="9.61" rx="1.5" fill="#0ecb81" /><line x1="705.32" y1="199.74" x2="705.32" y2="228.57" stroke="#f6465d" stroke-width="1.4" /><rect x="702.32" y="211.76" width="6" height="12.01" rx="1.5" fill="#f6465d" /><line x1="716.05" y1="214.16" x2="716.05" y2="233.38" stroke="#0ecb81" stroke-width="1.4" /><rect x="713.05" y="221.37" width="6" height="2.40" rx="1.5" fill="#0ecb81" /><line x1="726.78" y1="187.73" x2="726.78" y2="223.77" stroke="#0ecb81" stroke-width="1.4" /><rect x="723.78" y="204.55" width="6" height="16.82" rx="1.5" fill="#0ecb81" /><line x1="737.52" y1="199.74" x2="737.52" y2="247.79" stroke="#f6465d" stroke-width="1.4" /><rect x="734.52" y="204.55" width="6" height="33.63" rx="1.5" fill="#f6465d" /><line x1="748.25" y1="233.38" x2="748.25" y2="271.82" stroke="#f6465d" stroke-width="1.4" /><rect x="745.25" y="238.18" width="6" height="16.82" rx="1.5" fill="#f6465d" /><line x1="758.99" y1="204.55" x2="758.99" y2="257.40" stroke="#0ecb81" stroke-width="1.4" /><rect x="755.99" y="221.37" width="6" height="33.63" rx="1.5" fill="#0ecb81" /><line x1="769.72" y1="216.56" x2="769.72" y2="262.21" stroke="#f6465d" stroke-width="1.4" /><rect x="766.72" y="221.37" width="6" height="12.01" rx="1.5" fill="#f6465d" /><line x1="780.46" y1="228.57" x2="780.46" y2="252.60" stroke="#f6465d" stroke-width="1.4" /><rect x="777.46" y="233.38" width="6" height="14.41" rx="1.5" fill="#f6465d" /><line x1="791.19" y1="247.79" x2="791.19" y2="279.02" stroke="#f6465d" stroke-width="1.4" /><rect x="788.19" y="250.20" width="6" height="19.22" rx="1.5" fill="#f6465d" /><line x1="801.92" y1="262.21" x2="801.92" y2="312.66" stroke="#f6465d" stroke-width="1.4" /><rect x="798.92" y="269.41" width="6" height="36.04" rx="1.5" fill="#f6465d" /><line x1="812.66" y1="230.98" x2="812.66" y2="307.85" stroke="#0ecb81" stroke-width="1.4" /><rect x="809.66" y="255.00" width="6" height="50.45" rx="1.5" fill="#0ecb81" /><line x1="823.39" y1="233.38" x2="823.39" y2="283.83" stroke="#0ecb81" stroke-width="1.4" /><rect x="820.39" y="235.78" width="6" height="21.62" rx="1.5" fill="#0ecb81" /><line x1="834.13" y1="178.12" x2="834.13" y2="235.78" stroke="#0ecb81" stroke-width="1.4" /><rect x="831.13" y="202.15" width="6" height="31.23" rx="1.5" fill="#0ecb81" /><line x1="844.86" y1="197.34" x2="844.86" y2="235.78" stroke="#0ecb81" stroke-width="1.4" /><rect x="841.86" y="199.74" width="6" height="2.40" rx="1.5" fill="#0ecb81" /><line x1="855.59" y1="199.74" x2="855.59" y2="233.38" stroke="#f6465d" stroke-width="1.4" /><rect x="852.59" y="199.74" width="6" height="24.02" rx="1.5" fill="#f6465d" /><line x1="866.33" y1="204.55" x2="866.33" y2="228.57" stroke="#f6465d" stroke-width="1.4" /><rect x="863.33" y="223.77" width="6" height="2.40" rx="1.5" fill="#f6465d" /><line x1="877.06" y1="199.74" x2="877.06" y2="235.78" stroke="#f6465d" stroke-width="1.4" /><rect x="874.06" y="228.57" width="6" height="4.80" rx="1.5" fill="#f6465d" /><line x1="887.80" y1="194.94" x2="887.80" y2="245.39" stroke="#0ecb81" stroke-width="1.4" /><rect x="884.80" y="209.35" width="6" height="24.02" rx="1.5" fill="#0ecb81" /><line x1="898.53" y1="168.51" x2="898.53" y2="216.56" stroke="#0ecb81" stroke-width="1.4" /><rect x="895.53" y="175.72" width="6" height="36.04" rx="1.5" fill="#0ecb81" /><line x1="909.27" y1="58.00" x2="909.27" y2="187.73" stroke="#0ecb81" stroke-width="1.4" /><rect x="906.27" y="110.85" width="6" height="67.27" rx="1.5" fill="#0ecb81" /><line x1="920.00" y1="91.63" x2="920.00" y2="125.27" stroke="#0ecb81" stroke-width="1.4" /><rect x="917.00" y="110.85" width="6" height="2.00" rx="1.5" fill="#0ecb81" />
  <polyline points="490.63,250.20 522.84,163.71 640.91,295.84 726.78,187.73 801.92,312.66" fill="none" stroke="#2fc273" stroke-width="4" stroke-linecap="round" stroke-linejoin="round" />
  <circle cx="490.63" cy="250.20" r="5.5" fill="#2fc273" fill-opacity="0.15" stroke="#2fc273" stroke-width="2" /><text x="490.63" y="238.20" fill="#f3f4f6" font-size="15" font-weight="700" text-anchor="middle">X</text><circle cx="522.84" cy="163.71" r="5.5" fill="#2fc273" fill-opacity="0.15" stroke="#2fc273" stroke-width="2" /><text x="522.84" y="151.71" fill="#f3f4f6" font-size="15" font-weight="700" text-anchor="middle">A</text><circle cx="640.91" cy="295.84" r="5.5" fill="#2fc273" fill-opacity="0.15" stroke="#2fc273" stroke-width="2" /><text x="640.91" y="283.84" fill="#f3f4f6" font-size="15" font-weight="700" text-anchor="middle">B</text><circle cx="726.78" cy="187.73" r="5.5" fill="#2fc273" fill-opacity="0.15" stroke="#2fc273" stroke-width="2" /><text x="726.78" y="175.73" fill="#f3f4f6" font-size="15" font-weight="700" text-anchor="middle">C</text><circle cx="801.92" cy="312.66" r="5.5" fill="#2fc273" fill-opacity="0.15" stroke="#2fc273" stroke-width="2" /><text x="801.92" y="300.66" fill="#f3f4f6" font-size="15" font-weight="700" text-anchor="middle">D</text>
  <text x="56" y="492" fill="#8ba0b5" font-size="18">Complete · TP1 76.789 · TP2 76.911 · SL 76.543</text>
</svg>
