<svg xmlns="http://www.w3.org/2000/svg" width="960" height="540" viewBox="0 0 960 540">
  <rect width="960" height="540" rx="24" fill="#0b1220" />
  <rect x="28" y="28" width="904" height="484" rx="22" fill="#111827" stroke="#1f2937" />
  <text x="56" y="74" fill="#f3f4f6" font-size="34" font-weight="700">SOLVUSDT · AB=CD</text>
  <text x="904" y="74" fill="#8ba0b5" font-size="20" text-anchor="end">Bearish (매도) · Score 86.0</text>
  <line x1="72" y1="58" x2="920" y2="58" stroke="#223045" stroke-width="1" stroke-dasharray="4 8" /><line x1="72" y1="156" x2="920" y2="156" stroke="#223045" stroke-width="1" stroke-dasharray="4 8" /><line x1="72" y1="255" x2="920" y2="255" stroke="#223045" stroke-width="1" stroke-dasharray="4 8" /><line x1="72" y1="353" x2="920" y2="353" stroke="#223045" stroke-width="1" stroke-dasharray="4 8" /><line x1="72" y1="452" x2="920" y2="452" stroke="#223045" stroke-width="1" stroke-dasharray="4 8" />
  <rect x="720.25" y="299.72" width="84" height="33.94" fill="#fbbf24" fill-opacity="0.12" stroke="#fbbf24" stroke-width="1.5" stroke-dasharray="6 6" />
  <line x1="72.00" y1="102.95" x2="72.00" y2="169.46" stroke="#0ecb81" stroke-width="1.4" /><rect x="69.00" y="147.90" width="6" height="18.35" rx="1.5" fill="#0ecb81" /><line x1="82.73" y1="115.79" x2="82.73" y2="190.56" stroke="#0ecb81" stroke-width="1.4" /><rect x="79.73" y="131.39" width="6" height="18.81" rx="1.5" fill="#0ecb81" /><line x1="93.47" y1="122.21" x2="93.47" y2="161.20" stroke="#f6465d" stroke-width="1.4" /><rect x="90.47" y="132.31" width="6" height="22.02" rx="1.5" fill="#f6465d" /><line x1="104.20" y1="148.82" x2="104.20" y2="183.22" stroke="#f6465d" stroke-width="1.4" /><rect x="101.20" y="155.24" width="6" height="11.47" rx="1.5" fill="#f6465d" /><line x1="114.94" y1="142.40" x2="114.94" y2="185.97" stroke="#0ecb81" stroke-width="1.4" /><rect x="111.94" y="154.78" width="6" height="11.93" rx="1.5" fill="#0ecb81" /><line x1="125.67" y1="105.24" x2="125.67" y2="159.37" stroke="#0ecb81" stroke-width="1.4" /><rect x="122.67" y="107.08" width="6" height="47.70" rx="1.5" fill="#0ecb81" /><line x1="136.41" y1="58.00" x2="136.41" y2="164.87" stroke="#f6465d" stroke-width="1.4" /><rect x="133.41" y="106.62" width="6" height="38.07" rx="1.5" fill="#f6465d" /><line x1="147.14" y1="135.52" x2="147.14" y2="183.68" stroke="#f6465d" stroke-width="1.4" /><rect x="144.14" y="144.23" width="6" height="27.52" rx="1.5" fill="#f6465d" /><line x1="157.87" y1="168.08" x2="157.87" y2="198.35" stroke="#0ecb81" stroke-width="1.4" /><rect x="154.87" y="169.92" width="6" height="2.29" rx="1.5" fill="#0ecb81" /><line x1="168.61" y1="155.24" x2="168.61" y2="243.30" stroke="#f6465d" stroke-width="1.4" /><rect x="165.61" y="169.46" width="6" height="62.84" rx="1.5" fill="#f6465d" /><line x1="179.34" y1="230.92" x2="179.34" y2="287.34" stroke="#f6465d" stroke-width="1.4" /><rect x="176.34" y="231.38" width="6" height="38.07" rx="1.5" fill="#f6465d" /><line x1="190.08" y1="262.11" x2="190.08" y2="285.50" stroke="#f6465d" stroke-width="1.4" /><rect x="187.08" y="268.99" width="6" height="9.63" rx="1.5" fill="#f6465d" /><line x1="200.81" y1="272.20" x2="200.81" y2="323.11" stroke="#f6465d" stroke-width="1.4" /><rect x="197.81" y="278.62" width="6" height="12.38" rx="1.5" fill="#f6465d" /><line x1="211.54" y1="283.21" x2="211.54" y2="308.44" stroke="#f6465d" stroke-width="1.4" /><rect x="208.54" y="290.55" width="6" height="3.21" rx="1.5" fill="#f6465d" /><line x1="222.28" y1="287.80" x2="222.28" y2="301.10" stroke="#0ecb81" stroke-width="1.4" /><rect x="219.28" y="293.30" width="6" height="2.00" rx="1.5" fill="#0ecb81" /><line x1="233.01" y1="279.54" x2="233.01" y2="305.22" stroke="#0ecb81" stroke-width="1.4" /><rect x="230.01" y="284.13" width="6" height="9.17" rx="1.5" fill="#0ecb81" /><line x1="243.75" y1="275.41" x2="243.75" y2="305.68" stroke="#f6465d" stroke-width="1.4" /><rect x="240.75" y="284.13" width="6" height="13.76" rx="1.5" fill="#f6465d" /><line x1="254.48" y1="292.38" x2="254.48" y2="330.45" stroke="#f6465d" stroke-width="1.4" /><rect x="251.48" y="297.89" width="6" height="27.98" rx="1.5" fill="#f6465d" /><line x1="265.22" y1="322.65" x2="265.22" y2="367.15" stroke="#f6465d" stroke-width="1.4" /><rect x="262.22" y="324.95" width="6" height="27.06" rx="1.5" fill="#f6465d" /><line x1="275.95" y1="322.20" x2="275.95" y2="357.05" stroke="#0ecb81" stroke-width="1.4" /><rect x="272.95" y="324.03" width="6" height="27.98" rx="1.5" fill="#0ecb81" /><line x1="286.68" y1="316.23" x2="286.68" y2="337.33" stroke="#0ecb81" stroke-width="1.4" /><rect x="283.68" y="322.65" width="6" height="2.00" rx="1.5" fill="#0ecb81" /><line x1="297.42" y1="319.44" x2="297.42" y2="337.79" stroke="#f6465d" stroke-width="1.4" /><rect x="294.42" y="322.20" width="6" height="8.71" rx="1.5" fill="#f6465d" /><line x1="308.15" y1="324.03" x2="308.15" y2="347.42" stroke="#0ecb81" stroke-width="1.4" /><rect x="305.15" y="331.37" width="6" height="2.00" rx="1.5" fill="#0ecb81" /><line x1="318.89" y1="325.86" x2="318.89" y2="345.59" stroke="#f6465d" stroke-width="1.4" /><rect x="315.89" y="331.83" width="6" height="8.26" rx="1.5" fill="#f6465d" /><line x1="329.62" y1="324.49" x2="329.62" y2="358.89" stroke="#f6465d" stroke-width="1.4" /><rect x="326.62" y="341.00" width="6" height="10.09" rx="1.5" fill="#f6465d" /><line x1="340.35" y1="341.46" x2="340.35" y2="352.93" stroke="#0ecb81" stroke-width="1.4" /><rect x="337.35" y="349.72" width="6" height="2.29" rx="1.5" fill="#0ecb81" /><line x1="351.09" y1="336.87" x2="351.09" y2="354.30" stroke="#0ecb81" stroke-width="1.4" /><rect x="348.09" y="342.38" width="6" height="7.80" rx="1.5" fill="#0ecb81" /><line x1="361.82" y1="336.41" x2="361.82" y2="349.26" stroke="#0ecb81" stroke-width="1.4" /><rect x="358.82" y="340.54" width="6" height="2.29" rx="1.5" fill="#0ecb81" /><line x1="372.56" y1="313.94" x2="372.56" y2="342.38" stroke="#0ecb81" stroke-width="1.4" /><rect x="369.56" y="329.08" width="6" height="11.93" rx="1.5" fill="#0ecb81" /><line x1="383.29" y1="322.20" x2="383.29" y2="340.54" stroke="#f6465d" stroke-width="1.4" /><rect x="380.29" y="329.08" width="6" height="2.29" rx="1.5" fill="#f6465d" /><line x1="394.03" y1="317.15" x2="394.03" y2="334.58" stroke="#0ecb81" stroke-width="1.4" /><rect x="391.03" y="319.90" width="6" height="11.47" rx="1.5" fill="#0ecb81" /><line x1="404.76" y1="299.72" x2="404.76" y2="324.49" stroke="#0ecb81" stroke-width="1.4" /><rect x="401.76" y="303.39" width="6" height="14.68" rx="1.5" fill="#0ecb81" /><line x1="415.49" y1="290.55" x2="415.49" y2="321.74" stroke="#f6465d" stroke-width="1.4" /><rect x="412.49" y="303.39" width="6" height="14.68" rx="1.5" fill="#f6465d" /><line x1="426.23" y1="303.39" x2="426.23" y2="324.95" stroke="#0ecb81" stroke-width="1.4" /><rect x="423.23" y="315.77" width="6" height="2.29" rx="1.5" fill="#0ecb81" /><line x1="436.96" y1="299.26" x2="436.96" y2="321.74" stroke="#0ecb81" stroke-width="1.4" /><rect x="433.96" y="305.68" width="6" height="10.09" rx="1.5" fill="#0ecb81" /><line x1="447.70" y1="303.39" x2="447.70" y2="323.11" stroke="#f6465d" stroke-width="1.4" /><rect x="444.70" y="305.68" width="6" height="3.67" rx="1.5" fill="#f6465d" /><line x1="458.43" y1="301.56" x2="458.43" y2="340.08" stroke="#f6465d" stroke-width="1.4" /><rect x="455.43" y="309.35" width="6" height="26.14" rx="1.5" fill="#f6465d" /><line x1="469.16" y1="332.29" x2="469.16" y2="345.13" stroke="#f6465d" stroke-width="1.4" /><rect x="466.16" y="335.04" width="6" height="2.75" rx="1.5" fill="#f6465d" /><line x1="479.90" y1="331.83" x2="479.90" y2="348.80" stroke="#f6465d" stroke-width="1.4" /><rect x="476.90" y="338.25" width="6" height="8.71" rx="1.5" fill="#f6465d" /><line x1="490.63" y1="341.00" x2="490.63" y2="358.43" stroke="#f6465d" stroke-width="1.4" /><rect x="487.63" y="347.42" width="6" height="11.01" rx="1.5" fill="#f6465d" /><line x1="501.37" y1="353.84" x2="501.37" y2="394.21" stroke="#f6465d" stroke-width="1.4" /><rect x="498.37" y="358.43" width="6" height="31.65" rx="1.5" fill="#f6465d" /><line x1="512.10" y1="367.60" x2="512.10" y2="390.54" stroke="#0ecb81" stroke-width="1.4" /><rect x="509.10" y="368.06" width="6" height="22.47" rx="1.5" fill="#0ecb81" /><line x1="522.84" y1="358.89" x2="522.84" y2="380.45" stroke="#f6465d" stroke-width="1.4" /><rect x="519.84" y="367.15" width="6" height="12.38" rx="1.5" fill="#f6465d" /><line x1="533.57" y1="372.65" x2="533.57" y2="386.41" stroke="#f6465d" stroke-width="1.4" /><rect x="530.57" y="379.99" width="6" height="2.00" rx="1.5" fill="#f6465d" /><line x1="544.30" y1="378.15" x2="544.30" y2="389.16" stroke="#f6465d" stroke-width="1.4" /><rect x="541.30" y="380.45" width="6" height="2.29" rx="1.5" fill="#f6465d" /><line x1="555.04" y1="347.42" x2="555.04" y2="386.87" stroke="#0ecb81" stroke-width="1.4" /><rect x="552.04" y="363.93" width="6" height="18.81" rx="1.5" fill="#0ecb81" /><line x1="565.77" y1="353.39" x2="565.77" y2="365.31" stroke="#0ecb81" stroke-width="1.4" /><rect x="562.77" y="357.51" width="6" height="5.96" rx="1.5" fill="#0ecb81" /><line x1="576.51" y1="347.88" x2="576.51" y2="371.27" stroke="#f6465d" stroke-width="1.4" /><rect x="573.51" y="355.22" width="6" height="12.84" rx="1.5" fill="#f6465d" /><line x1="587.24" y1="365.31" x2="587.24" y2="386.87" stroke="#f6465d" stroke-width="1.4" /><rect x="584.24" y="367.60" width="6" height="8.26" rx="1.5" fill="#f6465d" /><line x1="597.97" y1="366.69" x2="597.97" y2="383.20" stroke="#0ecb81" stroke-width="1.4" /><rect x="594.97" y="374.48" width="6" height="2.00" rx="1.5" fill="#0ecb81" /><line x1="608.71" y1="362.56" x2="608.71" y2="383.20" stroke="#0ecb81" stroke-width="1.4" /><rect x="605.71" y="371.27" width="6" height="3.67" rx="1.5" fill="#0ecb81" /><line x1="619.44" y1="367.15" x2="619.44" y2="385.49" stroke="#f6465d" stroke-width="1.4" /><rect x="616.44" y="371.27" width="6" height="6.42" rx="1.5" fill="#f6465d" /><line x1="630.18" y1="372.19" x2="630.18" y2="385.95" stroke="#f6465d" stroke-width="1.4" /><rect x="627.18" y="378.15" width="6" height="2.75" rx="1.5" fill="#f6465d" /><line x1="640.91" y1="365.77" x2="640.91" y2="384.12" stroke="#0ecb81" stroke-width="1.4" /><rect x="637.91" y="366.69" width="6" height="14.22" rx="1.5" fill="#0ecb81" /><line x1="651.65" y1="338.25" x2="651.65" y2="368.98" stroke="#0ecb81" stroke-width="1.4" /><rect x="648.65" y="345.59" width="6" height="21.56" rx="1.5" fill="#0ecb81" /><line x1="662.38" y1="342.38" x2="662.38" y2="368.06" stroke="#f6465d" stroke-width="1.4" /><rect x="659.38" y="345.59" width="6" height="17.43" rx="1.5" fill="#f6465d" /><line x1="673.11" y1="351.55" x2="673.11" y2="368.52" stroke="#0ecb81" stroke-width="1.4" /><rect x="670.11" y="354.30" width="6" height="9.63" rx="1.5" fill="#0ecb81" /><line x1="683.85" y1="346.96" x2="683.85" y2="362.56" stroke="#0ecb81" stroke-width="1.4" /><rect x="680.85" y="346.96" width="6" height="8.26" rx="1.5" fill="#0ecb81" /><line x1="694.58" y1="347.42" x2="694.58" y2="382.28" stroke="#f6465d" stroke-width="1.4" /><rect x="691.58" y="347.42" width="6" height="29.36" rx="1.5" fill="#f6465d" /><line x1="705.32" y1="366.23" x2="705.32" y2="376.32" stroke="#0ecb81" stroke-width="1.4" /><rect x="702.32" y="368.98" width="6" height="6.88" rx="1.5" fill="#0ecb81" /><line x1="716.05" y1="352.93" x2="716.05" y2="370.36" stroke="#0ecb81" stroke-width="1.4" /><rect x="713.05" y="359.35" width="6" height="9.17" rx="1.5" fill="#0ecb81" /><line x1="726.78" y1="356.60" x2="726.78" y2="377.24" stroke="#f6465d" stroke-width="1.4" /><rect x="723.78" y="358.89" width="6" height="17.43" rx="1.5" fill="#f6465d" /><line x1="737.52" y1="317.61" x2="737.52" y2="376.78" stroke="#0ecb81" stroke-width="1.4" /><rect x="734.52" y="324.49" width="6" height="51.37" rx="1.5" fill="#0ecb81" /><line x1="748.25" y1="299.72" x2="748.25" y2="342.84" stroke="#0ecb81" stroke-width="1.4" /><rect x="745.25" y="320.36" width="6" height="4.13" rx="1.5" fill="#0ecb81" /><line x1="758.99" y1="313.02" x2="758.99" y2="354.30" stroke="#f6465d" stroke-width="1.4" /><rect x="755.99" y="322.20" width="6" height="26.60" rx="1.5" fill="#f6465d" /><line x1="769.72" y1="344.67" x2="769.72" y2="361.64" stroke="#f6465d" stroke-width="1.4" /><rect x="766.72" y="348.80" width="6" height="5.05" rx="1.5" fill="#f6465d" /><line x1="780.46" y1="346.96" x2="780.46" y2="371.73" stroke="#0ecb81" stroke-width="1.4" /><rect x="777.46" y="350.63" width="6" height="3.67" rx="1.5" fill="#0ecb81" /><line x1="791.19" y1="329.99" x2="791.19" y2="365.31" stroke="#0ecb81" stroke-width="1.4" /><rect x="788.19" y="346.51" width="6" height="3.67" rx="1.5" fill="#0ecb81" /><line x1="801.92" y1="343.29" x2="801.92" y2="416.22" stroke="#f6465d" stroke-width="1.4" /><rect x="798.92" y="347.42" width="6" height="58.25" rx="1.5" fill="#f6465d" /><line x1="812.66" y1="400.63" x2="812.66" y2="423.10" stroke="#f6465d" stroke-width="1.4" /><rect x="809.66" y="406.13" width="6" height="7.80" rx="1.5" fill="#f6465d" /><line x1="823.39" y1="392.83" x2="823.39" y2="414.39" stroke="#0ecb81" stroke-width="1.4" /><rect x="820.39" y="400.17" width="6" height="12.38" rx="1.5" fill="#0ecb81" /><line x1="834.13" y1="398.34" x2="834.13" y2="425.40" stroke="#f6465d" stroke-width="1.4" /><rect x="831.13" y="400.17" width="6" height="22.93" rx="1.5" fill="#f6465d" /><line x1="844.86" y1="422.19" x2="844.86" y2="452.00" stroke="#f6465d" stroke-width="1.4" /><rect x="841.86" y="422.64" width="6" height="17.89" rx="1.5" fill="#f6465d" /><line x1="855.59" y1="408.88" x2="855.59" y2="440.53" stroke="#0ecb81" stroke-width="1.4" /><rect x="852.59" y="420.35" width="6" height="20.18" rx="1.5" fill="#0ecb81" /><line x1="866.33" y1="397.88" x2="866.33" y2="429.53" stroke="#0ecb81" stroke-width="1.4" /><rect x="863.33" y="402.46" width="6" height="16.97" rx="1.5" fill="#0ecb81" /><line x1="877.06" y1="393.75" x2="877.06" y2="407.05" stroke="#0ecb81" stroke-width="1.4" /><rect x="874.06" y="393.75" width="6" height="9.63" rx="1.5" fill="#0ecb81" /><line x1="887.80" y1="385.03" x2="887.80" y2="402.46" stroke="#0ecb81" stroke-width="1.4" /><rect x="884.80" y="394.67" width="6" height="2.00" rx="1.5" fill="#0ecb81" /><line x1="898.53" y1="388.24" x2="898.53" y2="407.05" stroke="#0ecb81" stroke-width="1.4" /><rect x="895.53" y="390.08" width="6" height="4.59" rx="1.5" fill="#0ecb81" /><line x1="909.27" y1="387.79" x2="909.27" y2="416.68" stroke="#f6465d" stroke-width="1.4" /><rect x="906.27" y="390.54" width="6" height="16.97" rx="1.5" fill="#f6465d" /><line x1="920.00" y1="408.43" x2="920.00" y2="421.27" stroke="#f6465d" stroke-width="1.4" /><rect x="917.00" y="408.43" width="6" height="10.55" rx="1.5" fill="#f6465d" />
  <polyline points="555.04,347.42 587.24,386.87 651.65,338.25 694.58,382.28 748.25,299.72" fill="none" stroke="#2fc273" stroke-width="4" stroke-linecap="round" stroke-linejoin="round" />
  <circle cx="555.04" cy="347.42" r="5.5" fill="#2fc273" fill-opacity="0.15" stroke="#2fc273" stroke-width="2" /><text x="555.04" y="335.42" fill="#f3f4f6" font-size="15" font-weight="700" text-anchor="middle">X</text><circle cx="587.24" cy="386.87" r="5.5" fill="#2fc273" fill-opacity="0.15" stroke="#2fc273" stroke-width="2" /><text x="587.24" y="374.87" fill="#f3f4f6" font-size="15" font-weight="700" text-anchor="middle">A</text><circle cx="651.65" cy="338.25" r="5.5" fill="#2fc273" fill-opacity="0.15" stroke="#2fc273" stroke-width="2" /><text x="651.65" y="326.25" fill="#f3f4f6" font-size="15" font-weight="700" text-anchor="middle">B</text><circle cx="694.58" cy="382.28" r="5.5" fill="#2fc273" fill-opacity="0.15" stroke="#2fc273" stroke-width="2" /><text x="694.58" y="370.28" fill="#f3f4f6" font-size="15" font-weight="700" text-anchor="middle">C</text><circle cx="748.25" cy="299.72" r="5.5" fill="#2fc273" fill-opacity="0.15" stroke="#2fc273" stroke-width="2" /><text x="748.25" y="287.72" fill="#f3f4f6" font-size="15" font-weight="700" text-anchor="middle">D</text>
  <text x="56" y="492" fill="#8ba0b5" font-size="18">일반 완성 · TP1 0.004314 · TP2 0.004272 · SL 0.004394</text>
</svg>
