<svg xmlns="http://www.w3.org/2000/svg" width="960" height="540" viewBox="0 0 960 540">
  <rect width="960" height="540" rx="24" fill="#0b1220" />
  <rect x="28" y="28" width="904" height="484" rx="22" fill="#111827" stroke="#1f2937" />
  <text x="56" y="74" fill="#f3f4f6" font-size="34" font-weight="700">TRXUSDT · AB=CD</text>
  <text x="904" y="74" fill="#8ba0b5" font-size="20" text-anchor="end">Bullish (매수) · Score 83.9</text>
  <line x1="72" y1="58" x2="920" y2="58" stroke="#223045" stroke-width="1" stroke-dasharray="4 8" /><line x1="72" y1="156" x2="920" y2="156" stroke="#223045" stroke-width="1" stroke-dasharray="4 8" /><line x1="72" y1="255" x2="920" y2="255" stroke="#223045" stroke-width="1" stroke-dasharray="4 8" /><line x1="72" y1="353" x2="920" y2="353" stroke="#223045" stroke-width="1" stroke-dasharray="4 8" /><line x1="72" y1="452" x2="920" y2="452" stroke="#223045" stroke-width="1" stroke-dasharray="4 8" />
  <rect x="763.19" y="243.79" width="84" height="253.06" fill="#fbbf24" fill-opacity="0.12" stroke="#fbbf24" stroke-width="1.5" stroke-dasharray="6 6" />
  <line x1="72.00" y1="317.46" x2="72.00" y2="383.13" stroke="#f6465d" stroke-width="1.4" /><rect x="69.00" y="359.11" width="6" height="24.02" rx="1.5" fill="#f6465d" /><line x1="82.73" y1="371.92" x2="82.73" y2="452.00" stroke="#f6465d" stroke-width="1.4" /><rect x="79.73" y="384.73" width="6" height="54.46" rx="1.5" fill="#f6465d" /><line x1="93.47" y1="399.15" x2="93.47" y2="442.39" stroke="#0ecb81" stroke-width="1.4" /><rect x="90.47" y="413.56" width="6" height="24.02" rx="1.5" fill="#0ecb81" /><line x1="104.20" y1="371.92" x2="104.20" y2="435.98" stroke="#0ecb81" stroke-width="1.4" /><rect x="101.20" y="384.73" width="6" height="30.43" rx="1.5" fill="#0ecb81" /><line x1="114.94" y1="371.92" x2="114.94" y2="399.15" stroke="#0ecb81" stroke-width="1.4" /><rect x="111.94" y="373.52" width="6" height="9.61" rx="1.5" fill="#0ecb81" /><line x1="125.67" y1="349.50" x2="125.67" y2="384.73" stroke="#0ecb81" stroke-width="1.4" /><rect x="122.67" y="360.71" width="6" height="12.81" rx="1.5" fill="#0ecb81" /><line x1="136.41" y1="328.67" x2="136.41" y2="363.91" stroke="#0ecb81" stroke-width="1.4" /><rect x="133.41" y="352.70" width="6" height="8.01" rx="1.5" fill="#0ecb81" /><line x1="147.14" y1="317.46" x2="147.14" y2="362.31" stroke="#0ecb81" stroke-width="1.4" /><rect x="144.14" y="317.46" width="6" height="36.84" rx="1.5" fill="#0ecb81" /><line x1="157.87" y1="315.86" x2="157.87" y2="349.50" stroke="#f6465d" stroke-width="1.4" /><rect x="154.87" y="317.46" width="6" height="20.82" rx="1.5" fill="#f6465d" /><line x1="168.61" y1="304.65" x2="168.61" y2="338.28" stroke="#0ecb81" stroke-width="1.4" /><rect x="165.61" y="323.87" width="6" height="14.41" rx="1.5" fill="#0ecb81" /><line x1="179.34" y1="314.26" x2="179.34" y2="355.90" stroke="#f6465d" stroke-width="1.4" /><rect x="176.34" y="323.87" width="6" height="16.02" rx="1.5" fill="#f6465d" /><line x1="190.08" y1="298.24" x2="190.08" y2="339.89" stroke="#0ecb81" stroke-width="1.4" /><rect x="187.08" y="303.05" width="6" height="36.84" rx="1.5" fill="#0ecb81" /><line x1="200.81" y1="288.63" x2="200.81" y2="303.05" stroke="#0ecb81" stroke-width="1.4" /><rect x="197.81" y="301.45" width="6" height="2.00" rx="1.5" fill="#0ecb81" /><line x1="211.54" y1="291.84" x2="211.54" y2="303.05" stroke="#0ecb81" stroke-width="1.4" /><rect x="208.54" y="299.85" width="6" height="2.00" rx="1.5" fill="#0ecb81" /><line x1="222.28" y1="295.04" x2="222.28" y2="354.30" stroke="#f6465d" stroke-width="1.4" /><rect x="219.28" y="298.24" width="6" height="2.00" rx="1.5" fill="#f6465d" /><line x1="233.01" y1="295.04" x2="233.01" y2="344.69" stroke="#f6465d" stroke-width="1.4" /><rect x="230.01" y="301.45" width="6" height="3.20" rx="1.5" fill="#f6465d" /><line x1="243.75" y1="299.85" x2="243.75" y2="352.70" stroke="#f6465d" stroke-width="1.4" /><rect x="240.75" y="304.65" width="6" height="27.23" rx="1.5" fill="#f6465d" /><line x1="254.48" y1="298.24" x2="254.48" y2="346.29" stroke="#0ecb81" stroke-width="1.4" /><rect x="251.48" y="299.85" width="6" height="33.63" rx="1.5" fill="#0ecb81" /><line x1="265.22" y1="283.83" x2="265.22" y2="331.88" stroke="#f6465d" stroke-width="1.4" /><rect x="262.22" y="298.24" width="6" height="22.42" rx="1.5" fill="#f6465d" /><line x1="275.95" y1="283.83" x2="275.95" y2="335.08" stroke="#0ecb81" stroke-width="1.4" /><rect x="272.95" y="304.65" width="6" height="16.02" rx="1.5" fill="#0ecb81" /><line x1="286.68" y1="293.44" x2="286.68" y2="327.07" stroke="#f6465d" stroke-width="1.4" /><rect x="283.68" y="304.65" width="6" height="20.82" rx="1.5" fill="#f6465d" /><line x1="297.42" y1="303.05" x2="297.42" y2="338.28" stroke="#0ecb81" stroke-width="1.4" /><rect x="294.42" y="315.86" width="6" height="9.61" rx="1.5" fill="#0ecb81" /><line x1="308.15" y1="299.85" x2="308.15" y2="333.48" stroke="#0ecb81" stroke-width="1.4" /><rect x="305.15" y="304.65" width="6" height="9.61" rx="1.5" fill="#0ecb81" /><line x1="318.89" y1="299.85" x2="318.89" y2="362.31" stroke="#f6465d" stroke-width="1.4" /><rect x="315.89" y="306.25" width="6" height="38.44" rx="1.5" fill="#f6465d" /><line x1="329.62" y1="325.47" x2="329.62" y2="347.89" stroke="#f6465d" stroke-width="1.4" /><rect x="326.62" y="339.89" width="6" height="8.01" rx="1.5" fill="#f6465d" /><line x1="340.35" y1="323.87" x2="340.35" y2="359.11" stroke="#0ecb81" stroke-width="1.4" /><rect x="337.35" y="328.67" width="6" height="19.22" rx="1.5" fill="#0ecb81" /><line x1="351.09" y1="327.07" x2="351.09" y2="373.52" stroke="#f6465d" stroke-width="1.4" /><rect x="348.09" y="328.67" width="6" height="33.63" rx="1.5" fill="#f6465d" /><line x1="361.82" y1="341.49" x2="361.82" y2="434.38" stroke="#f6465d" stroke-width="1.4" /><rect x="358.82" y="360.71" width="6" height="56.06" rx="1.5" fill="#f6465d" /><line x1="372.56" y1="359.11" x2="372.56" y2="424.77" stroke="#0ecb81" stroke-width="1.4" /><rect x="369.56" y="359.11" width="6" height="57.66" rx="1.5" fill="#0ecb81" /><line x1="383.29" y1="355.90" x2="383.29" y2="384.73" stroke="#f6465d" stroke-width="1.4" /><rect x="380.29" y="357.50" width="6" height="8.01" rx="1.5" fill="#f6465d" /><line x1="394.03" y1="355.90" x2="394.03" y2="440.79" stroke="#f6465d" stroke-width="1.4" /><rect x="391.03" y="365.51" width="6" height="24.02" rx="1.5" fill="#f6465d" /><line x1="404.76" y1="378.33" x2="404.76" y2="439.19" stroke="#f6465d" stroke-width="1.4" /><rect x="401.76" y="389.54" width="6" height="17.62" rx="1.5" fill="#f6465d" /><line x1="415.49" y1="399.15" x2="415.49" y2="437.59" stroke="#f6465d" stroke-width="1.4" /><rect x="412.49" y="407.15" width="6" height="11.21" rx="1.5" fill="#f6465d" /><line x1="426.23" y1="387.93" x2="426.23" y2="419.97" stroke="#0ecb81" stroke-width="1.4" /><rect x="423.23" y="400.75" width="6" height="17.62" rx="1.5" fill="#0ecb81" /><line x1="436.96" y1="359.11" x2="436.96" y2="405.55" stroke="#0ecb81" stroke-width="1.4" /><rect x="433.96" y="383.13" width="6" height="19.22" rx="1.5" fill="#0ecb81" /><line x1="447.70" y1="354.30" x2="447.70" y2="403.95" stroke="#0ecb81" stroke-width="1.4" /><rect x="444.70" y="376.72" width="6" height="8.01" rx="1.5" fill="#0ecb81" /><line x1="458.43" y1="323.87" x2="458.43" y2="378.33" stroke="#0ecb81" stroke-width="1.4" /><rect x="455.43" y="330.28" width="6" height="48.05" rx="1.5" fill="#0ecb81" /><line x1="469.16" y1="295.04" x2="469.16" y2="331.88" stroke="#0ecb81" stroke-width="1.4" /><rect x="466.16" y="296.64" width="6" height="33.63" rx="1.5" fill="#0ecb81" /><line x1="479.90" y1="293.44" x2="479.90" y2="317.46" stroke="#f6465d" stroke-width="1.4" /><rect x="476.90" y="295.04" width="6" height="6.41" rx="1.5" fill="#f6465d" /><line x1="490.63" y1="291.84" x2="490.63" y2="336.68" stroke="#0ecb81" stroke-width="1.4" /><rect x="487.63" y="298.24" width="6" height="3.20" rx="1.5" fill="#0ecb81" /><line x1="501.37" y1="298.24" x2="501.37" y2="343.09" stroke="#f6465d" stroke-width="1.4" /><rect x="498.37" y="298.24" width="6" height="22.42" rx="1.5" fill="#f6465d" /><line x1="512.10" y1="267.81" x2="512.10" y2="319.07" stroke="#0ecb81" stroke-width="1.4" /><rect x="509.10" y="277.42" width="6" height="41.64" rx="1.5" fill="#0ecb81" /><line x1="522.84" y1="271.02" x2="522.84" y2="296.64" stroke="#0ecb81" stroke-width="1.4" /><rect x="519.84" y="275.82" width="6" height="2.00" rx="1.5" fill="#0ecb81" /><line x1="533.57" y1="256.60" x2="533.57" y2="293.44" stroke="#f6465d" stroke-width="1.4" /><rect x="530.57" y="275.82" width="6" height="4.80" rx="1.5" fill="#f6465d" /><line x1="544.30" y1="279.02" x2="544.30" y2="298.24" stroke="#0ecb81" stroke-width="1.4" /><rect x="541.30" y="279.02" width="6" height="2.00" rx="1.5" fill="#0ecb81" /><line x1="555.04" y1="269.41" x2="555.04" y2="290.24" stroke="#0ecb81" stroke-width="1.4" /><rect x="552.04" y="274.22" width="6" height="6.41" rx="1.5" fill="#0ecb81" /><line x1="565.77" y1="272.62" x2="565.77" y2="309.46" stroke="#f6465d" stroke-width="1.4" /><rect x="562.77" y="272.62" width="6" height="6.41" rx="1.5" fill="#f6465d" /><line x1="576.51" y1="274.22" x2="576.51" y2="311.06" stroke="#f6465d" stroke-width="1.4" /><rect x="573.51" y="279.02" width="6" height="30.43" rx="1.5" fill="#f6465d" /><line x1="587.24" y1="309.46" x2="587.24" y2="363.91" stroke="#f6465d" stroke-width="1.4" /><rect x="584.24" y="309.46" width="6" height="51.25" rx="1.5" fill="#f6465d" /><line x1="597.97" y1="344.69" x2="597.97" y2="378.33" stroke="#0ecb81" stroke-width="1.4" /><rect x="594.97" y="349.50" width="6" height="11.21" rx="1.5" fill="#0ecb81" /><line x1="608.71" y1="341.49" x2="608.71" y2="384.73" stroke="#f6465d" stroke-width="1.4" /><rect x="605.71" y="347.89" width="6" height="9.61" rx="1.5" fill="#f6465d" /><line x1="619.44" y1="330.28" x2="619.44" y2="394.34" stroke="#0ecb81" stroke-width="1.4" /><rect x="616.44" y="344.69" width="6" height="11.21" rx="1.5" fill="#0ecb81" /><line x1="630.18" y1="299.85" x2="630.18" y2="384.73" stroke="#f6465d" stroke-width="1.4" /><rect x="627.18" y="343.09" width="6" height="2.00" rx="1.5" fill="#f6465d" /><line x1="640.91" y1="304.65" x2="640.91" y2="354.30" stroke="#0ecb81" stroke-width="1.4" /><rect x="637.91" y="312.66" width="6" height="30.43" rx="1.5" fill="#0ecb81" /><line x1="651.65" y1="266.21" x2="651.65" y2="312.66" stroke="#0ecb81" stroke-width="1.4" /><rect x="648.65" y="285.43" width="6" height="25.63" rx="1.5" fill="#0ecb81" /><line x1="662.38" y1="277.42" x2="662.38" y2="298.24" stroke="#0ecb81" stroke-width="1.4" /><rect x="659.38" y="280.63" width="6" height="6.41" rx="1.5" fill="#0ecb81" /><line x1="673.11" y1="280.63" x2="673.11" y2="330.28" stroke="#f6465d" stroke-width="1.4" /><rect x="670.11" y="282.23" width="6" height="35.24" rx="1.5" fill="#f6465d" /><line x1="683.85" y1="298.24" x2="683.85" y2="338.28" stroke="#0ecb81" stroke-width="1.4" /><rect x="680.85" y="299.85" width="6" height="17.62" rx="1.5" fill="#0ecb81" /><line x1="694.58" y1="287.03" x2="694.58" y2="315.86" stroke="#0ecb81" stroke-width="1.4" /><rect x="691.58" y="291.84" width="6" height="6.41" rx="1.5" fill="#0ecb81" /><line x1="705.32" y1="271.02" x2="705.32" y2="317.46" stroke="#0ecb81" stroke-width="1.4" /><rect x="702.32" y="288.63" width="6" height="3.20" rx="1.5" fill="#0ecb81" /><line x1="716.05" y1="274.22" x2="716.05" y2="309.46" stroke="#f6465d" stroke-width="1.4" /><rect x="713.05" y="287.03" width="6" height="11.21" rx="1.5" fill="#f6465d" /><line x1="726.78" y1="280.63" x2="726.78" y2="312.66" stroke="#f6465d" stroke-width="1.4" /><rect x="723.78" y="296.64" width="6" height="3.20" rx="1.5" fill="#f6465d" /><line x1="737.52" y1="274.22" x2="737.52" y2="315.86" stroke="#0ecb81" stroke-width="1.4" /><rect x="734.52" y="285.43" width="6" height="14.41" rx="1.5" fill="#0ecb81" /><line x1="748.25" y1="279.02" x2="748.25" y2="317.46" stroke="#f6465d" stroke-width="1.4" /><rect x="745.25" y="285.43" width="6" height="24.02" rx="1.5" fill="#f6465d" /><line x1="758.99" y1="293.44" x2="758.99" y2="331.88" stroke="#0ecb81" stroke-width="1.4" /><rect x="755.99" y="293.44" width="6" height="17.62" rx="1.5" fill="#0ecb81" /><line x1="769.72" y1="291.84" x2="769.72" y2="317.46" stroke="#f6465d" stroke-width="1.4" /><rect x="766.72" y="293.44" width="6" height="16.02" rx="1.5" fill="#f6465d" /><line x1="780.46" y1="309.46" x2="780.46" y2="384.73" stroke="#f6465d" stroke-width="1.4" /><rect x="777.46" y="309.46" width="6" height="59.26" rx="1.5" fill="#f6465d" /><line x1="791.19" y1="343.09" x2="791.19" y2="384.73" stroke="#f6465d" stroke-width="1.4" /><rect x="788.19" y="368.72" width="6" height="4.80" rx="1.5" fill="#f6465d" /><line x1="801.92" y1="335.08" x2="801.92" y2="378.33" stroke="#0ecb81" stroke-width="1.4" /><rect x="798.92" y="346.29" width="6" height="28.83" rx="1.5" fill="#0ecb81" /><line x1="812.66" y1="322.27" x2="812.66" y2="367.11" stroke="#f6465d" stroke-width="1.4" /><rect x="809.66" y="346.29" width="6" height="14.41" rx="1.5" fill="#f6465d" /><line x1="823.39" y1="335.08" x2="823.39" y2="370.32" stroke="#0ecb81" stroke-width="1.4" /><rect x="820.39" y="347.89" width="6" height="14.41" rx="1.5" fill="#0ecb81" /><line x1="834.13" y1="317.46" x2="834.13" y2="365.51" stroke="#0ecb81" stroke-width="1.4" /><rect x="831.13" y="319.07" width="6" height="28.83" rx="1.5" fill="#0ecb81" /><line x1="844.86" y1="301.45" x2="844.86" y2="339.89" stroke="#f6465d" stroke-width="1.4" /><rect x="841.86" y="317.46" width="6" height="8.01" rx="1.5" fill="#f6465d" /><line x1="855.59" y1="311.06" x2="855.59" y2="349.50" stroke="#f6465d" stroke-width="1.4" /><rect x="852.59" y="327.07" width="6" height="8.01" rx="1.5" fill="#f6465d" /><line x1="866.33" y1="218.16" x2="866.33" y2="336.68" stroke="#0ecb81" stroke-width="1.4" /><rect x="863.33" y="238.98" width="6" height="96.10" rx="1.5" fill="#0ecb81" /><line x1="877.06" y1="174.92" x2="877.06" y2="253.40" stroke="#0ecb81" stroke-width="1.4" /><rect x="874.06" y="206.95" width="6" height="32.03" rx="1.5" fill="#0ecb81" /><line x1="887.80" y1="85.23" x2="887.80" y2="208.55" stroke="#0ecb81" stroke-width="1.4" /><rect x="884.80" y="115.66" width="6" height="91.29" rx="1.5" fill="#0ecb81" /><line x1="898.53" y1="58.00" x2="898.53" y2="179.72" stroke="#f6465d" stroke-width="1.4" /><rect x="895.53" y="115.66" width="6" height="41.64" rx="1.5" fill="#f6465d" /><line x1="909.27" y1="130.07" x2="909.27" y2="168.51" stroke="#f6465d" stroke-width="1.4" /><rect x="906.27" y="157.30" width="6" height="6.41" rx="1.5" fill="#f6465d" /><line x1="920.00" y1="162.11" x2="920.00" y2="168.51" stroke="#0ecb81" stroke-width="1.4" /><rect x="917.00" y="163.71" width="6" height="2.00" rx="1.5" fill="#0ecb81" />
  <polyline points="619.44,394.34 651.65,266.21 683.85,338.28 705.32,271.02 791.19,384.73" fill="none" stroke="#2fc273" stroke-width="4" stroke-linecap="round" stroke-linejoin="round" />
  <circle cx="619.44" cy="394.34" r="5.5" fill="#2fc273" fill-opacity="0.15" stroke="#2fc273" stroke-width="2" /><text x="619.44" y="382.34" fill="#f3f4f6" font-size="15" font-weight="700" text-anchor="middle">X</text><circle cx="651.65" cy="266.21" r="5.5" fill="#2fc273" fill-opacity="0.15" stroke="#2fc273" stroke-width="2" /><text x="651.65" y="254.21" fill="#f3f4f6" font-size="15" font-weight="700" text-anchor="middle">A</text><circle cx="683.85" cy="338.28" r="5.5" fill="#2fc273" fill-opacity="0.15" stroke="#2fc273" stroke-width="2" /><text x="683.85" y="326.28" fill="#f3f4f6" font-size="15" font-weight="700" text-anchor="middle">B</text><circle cx="705.32" cy="271.02" r="5.5" fill="#2fc273" fill-opacity="0.15" stroke="#2fc273" stroke-width="2" /><text x="705.32" y="259.02" fill="#f3f4f6" font-size="15" font-weight="700" text-anchor="middle">C</text><circle cx="791.19" cy="384.73" r="5.5" fill="#2fc273" fill-opacity="0.15" stroke="#2fc273" stroke-width="2" /><text x="791.19" y="372.73" fill="#f3f4f6" font-size="15" font-weight="700" text-anchor="middle">D</text>
  <text x="56" y="492" fill="#8ba0b5" font-size="18">일반 완성 · TP1 0.31745 · TP2 0.31762 · SL 0.31708</text>
</svg>
