<svg xmlns="http://www.w3.org/2000/svg" width="960" height="540" viewBox="0 0 960 540">
  <rect width="960" height="540" rx="24" fill="#0b1220" />
  <rect x="28" y="28" width="904" height="484" rx="22" fill="#111827" stroke="#1f2937" />
  <text x="56" y="74" fill="#f3f4f6" font-size="34" font-weight="700">TRXUSDT · AB=CD</text>
  <text x="904" y="74" fill="#8ba0b5" font-size="20" text-anchor="end">Bearish (매도) · Score 89.3</text>
  <line x1="72" y1="58" x2="920" y2="58" stroke="#223045" stroke-width="1" stroke-dasharray="4 8" /><line x1="72" y1="156" x2="920" y2="156" stroke="#223045" stroke-width="1" stroke-dasharray="4 8" /><line x1="72" y1="255" x2="920" y2="255" stroke="#223045" stroke-width="1" stroke-dasharray="4 8" /><line x1="72" y1="353" x2="920" y2="353" stroke="#223045" stroke-width="1" stroke-dasharray="4 8" /><line x1="72" y1="452" x2="920" y2="452" stroke="#223045" stroke-width="1" stroke-dasharray="4 8" />
  <rect x="441.16" y="-51.87" width="84" height="202.05" fill="#fbbf24" fill-opacity="0.12" stroke="#fbbf24" stroke-width="1.5" stroke-dasharray="6 6" />
  <line x1="72.00" y1="150.19" x2="72.00" y2="180.49" stroke="#0ecb81" stroke-width="1.4" /><rect x="69.00" y="150.19" width="6" height="13.89" rx="1.5" fill="#0ecb81" /><line x1="82.73" y1="136.29" x2="82.73" y2="179.23" stroke="#f6465d" stroke-width="1.4" /><rect x="79.73" y="151.45" width="6" height="7.58" rx="1.5" fill="#f6465d" /><line x1="93.47" y1="135.03" x2="93.47" y2="198.17" stroke="#f6465d" stroke-width="1.4" /><rect x="90.47" y="160.29" width="6" height="18.94" rx="1.5" fill="#f6465d" /><line x1="104.20" y1="162.81" x2="104.20" y2="241.11" stroke="#f6465d" stroke-width="1.4" /><rect x="101.20" y="179.23" width="6" height="11.37" rx="1.5" fill="#f6465d" /><line x1="114.94" y1="140.08" x2="114.94" y2="194.38" stroke="#0ecb81" stroke-width="1.4" /><rect x="111.94" y="185.54" width="6" height="6.31" rx="1.5" fill="#0ecb81" /><line x1="125.67" y1="126.19" x2="125.67" y2="186.81" stroke="#0ecb81" stroke-width="1.4" /><rect x="122.67" y="128.72" width="6" height="56.83" rx="1.5" fill="#0ecb81" /><line x1="136.41" y1="128.72" x2="136.41" y2="160.29" stroke="#f6465d" stroke-width="1.4" /><rect x="133.41" y="128.72" width="6" height="8.84" rx="1.5" fill="#f6465d" /><line x1="147.14" y1="95.88" x2="147.14" y2="152.71" stroke="#0ecb81" stroke-width="1.4" /><rect x="144.14" y="103.46" width="6" height="34.10" rx="1.5" fill="#0ecb81" /><line x1="157.87" y1="58.00" x2="157.87" y2="136.29" stroke="#f6465d" stroke-width="1.4" /><rect x="154.87" y="104.72" width="6" height="25.26" rx="1.5" fill="#f6465d" /><line x1="168.61" y1="88.31" x2="168.61" y2="133.77" stroke="#0ecb81" stroke-width="1.4" /><rect x="165.61" y="112.30" width="6" height="16.42" rx="1.5" fill="#0ecb81" /><line x1="179.34" y1="103.46" x2="179.34" y2="145.13" stroke="#0ecb81" stroke-width="1.4" /><rect x="176.34" y="104.72" width="6" height="8.84" rx="1.5" fill="#0ecb81" /><line x1="190.08" y1="81.99" x2="190.08" y2="111.04" stroke="#0ecb81" stroke-width="1.4" /><rect x="187.08" y="103.46" width="6" height="2.00" rx="1.5" fill="#0ecb81" /><line x1="200.81" y1="63.05" x2="200.81" y2="126.19" stroke="#0ecb81" stroke-width="1.4" /><rect x="197.81" y="80.73" width="6" height="21.47" rx="1.5" fill="#0ecb81" /><line x1="211.54" y1="73.15" x2="211.54" y2="87.04" stroke="#0ecb81" stroke-width="1.4" /><rect x="208.54" y="79.47" width="6" height="2.00" rx="1.5" fill="#0ecb81" /><line x1="222.28" y1="63.05" x2="222.28" y2="84.52" stroke="#0ecb81" stroke-width="1.4" /><rect x="219.28" y="70.63" width="6" height="8.84" rx="1.5" fill="#0ecb81" /><line x1="233.01" y1="63.05" x2="233.01" y2="111.04" stroke="#f6465d" stroke-width="1.4" /><rect x="230.01" y="70.63" width="6" height="40.41" rx="1.5" fill="#f6465d" /><line x1="243.75" y1="84.52" x2="243.75" y2="141.35" stroke="#f6465d" stroke-width="1.4" /><rect x="240.75" y="109.78" width="6" height="10.10" rx="1.5" fill="#f6465d" /><line x1="254.48" y1="88.31" x2="254.48" y2="136.29" stroke="#f6465d" stroke-width="1.4" /><rect x="251.48" y="119.88" width="6" height="3.79" rx="1.5" fill="#f6465d" /><line x1="265.22" y1="117.35" x2="265.22" y2="133.77" stroke="#f6465d" stroke-width="1.4" /><rect x="262.22" y="122.40" width="6" height="2.53" rx="1.5" fill="#f6465d" /><line x1="275.95" y1="121.14" x2="275.95" y2="142.61" stroke="#f6465d" stroke-width="1.4" /><rect x="272.95" y="123.67" width="6" height="15.15" rx="1.5" fill="#f6465d" /><line x1="286.68" y1="98.41" x2="286.68" y2="188.07" stroke="#f6465d" stroke-width="1.4" /><rect x="283.68" y="140.08" width="6" height="35.36" rx="1.5" fill="#f6465d" /><line x1="297.42" y1="155.24" x2="297.42" y2="177.97" stroke="#0ecb81" stroke-width="1.4" /><rect x="294.42" y="155.24" width="6" height="18.94" rx="1.5" fill="#0ecb81" /><line x1="308.15" y1="155.24" x2="308.15" y2="204.49" stroke="#f6465d" stroke-width="1.4" /><rect x="305.15" y="155.24" width="6" height="49.25" rx="1.5" fill="#f6465d" /><line x1="318.89" y1="184.28" x2="318.89" y2="225.96" stroke="#f6465d" stroke-width="1.4" /><rect x="315.89" y="203.22" width="6" height="10.10" rx="1.5" fill="#f6465d" /><line x1="329.62" y1="188.07" x2="329.62" y2="232.27" stroke="#0ecb81" stroke-width="1.4" /><rect x="326.62" y="205.75" width="6" height="8.84" rx="1.5" fill="#0ecb81" /><line x1="340.35" y1="165.34" x2="340.35" y2="215.85" stroke="#0ecb81" stroke-width="1.4" /><rect x="337.35" y="167.87" width="6" height="36.62" rx="1.5" fill="#0ecb81" /><line x1="351.09" y1="138.82" x2="351.09" y2="175.44" stroke="#0ecb81" stroke-width="1.4" /><rect x="348.09" y="140.08" width="6" height="27.78" rx="1.5" fill="#0ecb81" /><line x1="361.82" y1="138.82" x2="361.82" y2="157.76" stroke="#f6465d" stroke-width="1.4" /><rect x="358.82" y="138.82" width="6" height="13.89" rx="1.5" fill="#f6465d" /><line x1="372.56" y1="145.13" x2="372.56" y2="171.65" stroke="#f6465d" stroke-width="1.4" /><rect x="369.56" y="151.45" width="6" height="5.05" rx="1.5" fill="#f6465d" /><line x1="383.29" y1="155.24" x2="383.29" y2="174.18" stroke="#f6465d" stroke-width="1.4" /><rect x="380.29" y="155.24" width="6" height="5.05" rx="1.5" fill="#f6465d" /><line x1="394.03" y1="105.99" x2="394.03" y2="175.44" stroke="#0ecb81" stroke-width="1.4" /><rect x="391.03" y="150.19" width="6" height="11.37" rx="1.5" fill="#0ecb81" /><line x1="404.76" y1="122.40" x2="404.76" y2="161.55" stroke="#0ecb81" stroke-width="1.4" /><rect x="401.76" y="126.19" width="6" height="23.99" rx="1.5" fill="#0ecb81" /><line x1="415.49" y1="118.62" x2="415.49" y2="198.17" stroke="#f6465d" stroke-width="1.4" /><rect x="412.49" y="127.46" width="6" height="34.10" rx="1.5" fill="#f6465d" /><line x1="426.23" y1="146.40" x2="426.23" y2="196.91" stroke="#f6465d" stroke-width="1.4" /><rect x="423.23" y="161.55" width="6" height="13.89" rx="1.5" fill="#f6465d" /><line x1="436.96" y1="143.87" x2="436.96" y2="176.71" stroke="#0ecb81" stroke-width="1.4" /><rect x="433.96" y="166.60" width="6" height="10.10" rx="1.5" fill="#0ecb81" /><line x1="447.70" y1="157.76" x2="447.70" y2="194.38" stroke="#f6465d" stroke-width="1.4" /><rect x="444.70" y="165.34" width="6" height="17.68" rx="1.5" fill="#f6465d" /><line x1="458.43" y1="114.83" x2="458.43" y2="183.02" stroke="#0ecb81" stroke-width="1.4" /><rect x="455.43" y="117.35" width="6" height="64.40" rx="1.5" fill="#0ecb81" /><line x1="469.16" y1="88.31" x2="469.16" y2="138.82" stroke="#f6465d" stroke-width="1.4" /><rect x="466.16" y="117.35" width="6" height="3.79" rx="1.5" fill="#f6465d" /><line x1="479.90" y1="100.94" x2="479.90" y2="131.24" stroke="#f6465d" stroke-width="1.4" /><rect x="476.90" y="121.14" width="6" height="6.31" rx="1.5" fill="#f6465d" /><line x1="490.63" y1="126.19" x2="490.63" y2="186.81" stroke="#f6465d" stroke-width="1.4" /><rect x="487.63" y="127.46" width="6" height="42.94" rx="1.5" fill="#f6465d" /><line x1="501.37" y1="138.82" x2="501.37" y2="172.92" stroke="#0ecb81" stroke-width="1.4" /><rect x="498.37" y="146.40" width="6" height="23.99" rx="1.5" fill="#0ecb81" /><line x1="512.10" y1="102.20" x2="512.10" y2="146.40" stroke="#0ecb81" stroke-width="1.4" /><rect x="509.10" y="102.20" width="6" height="42.94" rx="1.5" fill="#0ecb81" /><line x1="522.84" y1="102.20" x2="522.84" y2="117.35" stroke="#f6465d" stroke-width="1.4" /><rect x="519.84" y="103.46" width="6" height="12.63" rx="1.5" fill="#f6465d" /><line x1="533.57" y1="109.78" x2="533.57" y2="140.08" stroke="#f6465d" stroke-width="1.4" /><rect x="530.57" y="117.35" width="6" height="3.79" rx="1.5" fill="#f6465d" /><line x1="544.30" y1="108.51" x2="544.30" y2="161.55" stroke="#f6465d" stroke-width="1.4" /><rect x="541.30" y="121.14" width="6" height="30.31" rx="1.5" fill="#f6465d" /><line x1="555.04" y1="151.45" x2="555.04" y2="231.01" stroke="#f6465d" stroke-width="1.4" /><rect x="552.04" y="152.71" width="6" height="58.09" rx="1.5" fill="#f6465d" /><line x1="565.77" y1="209.54" x2="565.77" y2="257.53" stroke="#f6465d" stroke-width="1.4" /><rect x="562.77" y="212.06" width="6" height="45.46" rx="1.5" fill="#f6465d" /><line x1="576.51" y1="249.95" x2="576.51" y2="287.83" stroke="#f6465d" stroke-width="1.4" /><rect x="573.51" y="258.79" width="6" height="15.15" rx="1.5" fill="#f6465d" /><line x1="587.24" y1="180.49" x2="587.24" y2="275.21" stroke="#0ecb81" stroke-width="1.4" /><rect x="584.24" y="218.38" width="6" height="55.56" rx="1.5" fill="#0ecb81" /><line x1="597.97" y1="194.38" x2="597.97" y2="277.73" stroke="#0ecb81" stroke-width="1.4" /><rect x="594.97" y="214.59" width="6" height="3.79" rx="1.5" fill="#0ecb81" /><line x1="608.71" y1="201.96" x2="608.71" y2="248.69" stroke="#f6465d" stroke-width="1.4" /><rect x="605.71" y="214.59" width="6" height="12.63" rx="1.5" fill="#f6465d" /><line x1="619.44" y1="225.96" x2="619.44" y2="265.10" stroke="#f6465d" stroke-width="1.4" /><rect x="616.44" y="227.22" width="6" height="32.83" rx="1.5" fill="#f6465d" /><line x1="630.18" y1="219.64" x2="630.18" y2="281.52" stroke="#0ecb81" stroke-width="1.4" /><rect x="627.18" y="258.79" width="6" height="2.53" rx="1.5" fill="#0ecb81" /><line x1="640.91" y1="258.79" x2="640.91" y2="299.20" stroke="#f6465d" stroke-width="1.4" /><rect x="637.91" y="260.05" width="6" height="21.47" rx="1.5" fill="#f6465d" /><line x1="651.65" y1="268.89" x2="651.65" y2="315.62" stroke="#f6465d" stroke-width="1.4" /><rect x="648.65" y="282.78" width="6" height="23.99" rx="1.5" fill="#f6465d" /><line x1="662.38" y1="308.04" x2="662.38" y2="357.29" stroke="#f6465d" stroke-width="1.4" /><rect x="659.38" y="308.04" width="6" height="41.67" rx="1.5" fill="#f6465d" /><line x1="673.11" y1="344.66" x2="673.11" y2="357.29" stroke="#f6465d" stroke-width="1.4" /><rect x="670.11" y="349.71" width="6" height="2.53" rx="1.5" fill="#f6465d" /><line x1="683.85" y1="343.40" x2="683.85" y2="371.18" stroke="#f6465d" stroke-width="1.4" /><rect x="680.85" y="353.50" width="6" height="11.37" rx="1.5" fill="#f6465d" /><line x1="694.58" y1="309.30" x2="694.58" y2="366.13" stroke="#0ecb81" stroke-width="1.4" /><rect x="691.58" y="318.14" width="6" height="47.99" rx="1.5" fill="#0ecb81" /><line x1="705.32" y1="291.62" x2="705.32" y2="323.19" stroke="#0ecb81" stroke-width="1.4" /><rect x="702.32" y="296.67" width="6" height="21.47" rx="1.5" fill="#0ecb81" /><line x1="716.05" y1="297.94" x2="716.05" y2="330.77" stroke="#f6465d" stroke-width="1.4" /><rect x="713.05" y="297.94" width="6" height="30.31" rx="1.5" fill="#f6465d" /><line x1="726.78" y1="326.98" x2="726.78" y2="388.86" stroke="#f6465d" stroke-width="1.4" /><rect x="723.78" y="328.24" width="6" height="27.78" rx="1.5" fill="#f6465d" /><line x1="737.52" y1="313.09" x2="737.52" y2="361.08" stroke="#0ecb81" stroke-width="1.4" /><rect x="734.52" y="339.61" width="6" height="17.68" rx="1.5" fill="#0ecb81" /><line x1="748.25" y1="314.35" x2="748.25" y2="352.24" stroke="#0ecb81" stroke-width="1.4" /><rect x="745.25" y="315.62" width="6" height="23.99" rx="1.5" fill="#0ecb81" /><line x1="758.99" y1="309.30" x2="758.99" y2="352.24" stroke="#f6465d" stroke-width="1.4" /><rect x="755.99" y="314.35" width="6" height="37.88" rx="1.5" fill="#f6465d" /><line x1="769.72" y1="326.98" x2="769.72" y2="352.24" stroke="#0ecb81" stroke-width="1.4" /><rect x="766.72" y="332.03" width="6" height="20.21" rx="1.5" fill="#0ecb81" /><line x1="780.46" y1="316.88" x2="780.46" y2="332.03" stroke="#0ecb81" stroke-width="1.4" /><rect x="777.46" y="320.67" width="6" height="11.37" rx="1.5" fill="#0ecb81" /><line x1="791.19" y1="314.35" x2="791.19" y2="329.51" stroke="#0ecb81" stroke-width="1.4" /><rect x="788.19" y="320.67" width="6" height="2.00" rx="1.5" fill="#0ecb81" /><line x1="801.92" y1="316.88" x2="801.92" y2="361.08" stroke="#f6465d" stroke-width="1.4" /><rect x="798.92" y="320.67" width="6" height="21.47" rx="1.5" fill="#f6465d" /><line x1="812.66" y1="340.87" x2="812.66" y2="359.81" stroke="#f6465d" stroke-width="1.4" /><rect x="809.66" y="342.13" width="6" height="17.68" rx="1.5" fill="#f6465d" /><line x1="823.39" y1="343.40" x2="823.39" y2="366.13" stroke="#f6465d" stroke-width="1.4" /><rect x="820.39" y="359.81" width="6" height="5.05" rx="1.5" fill="#f6465d" /><line x1="834.13" y1="349.71" x2="834.13" y2="380.02" stroke="#0ecb81" stroke-width="1.4" /><rect x="831.13" y="362.34" width="6" height="2.53" rx="1.5" fill="#0ecb81" /><line x1="844.86" y1="329.51" x2="844.86" y2="363.60" stroke="#0ecb81" stroke-width="1.4" /><rect x="841.86" y="349.71" width="6" height="13.89" rx="1.5" fill="#0ecb81" /><line x1="855.59" y1="308.04" x2="855.59" y2="349.71" stroke="#0ecb81" stroke-width="1.4" /><rect x="852.59" y="338.35" width="6" height="10.10" rx="1.5" fill="#0ecb81" /><line x1="866.33" y1="314.35" x2="866.33" y2="415.38" stroke="#f6465d" stroke-width="1.4" /><rect x="863.33" y="337.08" width="6" height="70.72" rx="1.5" fill="#f6465d" /><line x1="877.06" y1="404.01" x2="877.06" y2="430.53" stroke="#0ecb81" stroke-width="1.4" /><rect x="874.06" y="406.54" width="6" height="2.00" rx="1.5" fill="#0ecb81" /><line x1="887.80" y1="350.97" x2="887.80" y2="411.59" stroke="#0ecb81" stroke-width="1.4" /><rect x="884.80" y="398.96" width="6" height="7.58" rx="1.5" fill="#0ecb81" /><line x1="898.53" y1="359.81" x2="898.53" y2="452.00" stroke="#f6465d" stroke-width="1.4" /><rect x="895.53" y="397.70" width="6" height="21.47" rx="1.5" fill="#f6465d" /><line x1="909.27" y1="393.91" x2="909.27" y2="425.48" stroke="#0ecb81" stroke-width="1.4" /><rect x="906.27" y="407.80" width="6" height="12.63" rx="1.5" fill="#0ecb81" /><line x1="920.00" y1="405.28" x2="920.00" y2="425.48" stroke="#f6465d" stroke-width="1.4" /><rect x="917.00" y="407.80" width="6" height="12.63" rx="1.5" fill="#f6465d" />
  <polyline points="157.87,58.00 329.62,232.27 394.03,105.99 415.49,198.17 469.16,88.31" fill="none" stroke="#2fc273" stroke-width="4" stroke-linecap="round" stroke-linejoin="round" />
  <circle cx="157.87" cy="58.00" r="5.5" fill="#2fc273" fill-opacity="0.15" stroke="#2fc273" stroke-width="2" /><text x="157.87" y="46.00" fill="#f3f4f6" font-size="15" font-weight="700" text-anchor="middle">X</text><circle cx="329.62" cy="232.27" r="5.5" fill="#2fc273" fill-opacity="0.15" stroke="#2fc273" stroke-width="2" /><text x="329.62" y="220.27" fill="#f3f4f6" font-size="15" font-weight="700" text-anchor="middle">A</text><circle cx="394.03" cy="105.99" r="5.5" fill="#2fc273" fill-opacity="0.15" stroke="#2fc273" stroke-width="2" /><text x="394.03" y="93.99" fill="#f3f4f6" font-size="15" font-weight="700" text-anchor="middle">B</text><circle cx="415.49" cy="198.17" r="5.5" fill="#2fc273" fill-opacity="0.15" stroke="#2fc273" stroke-width="2" /><text x="415.49" y="186.17" fill="#f3f4f6" font-size="15" font-weight="700" text-anchor="middle">C</text><circle cx="469.16" cy="88.31" r="5.5" fill="#2fc273" fill-opacity="0.15" stroke="#2fc273" stroke-width="2" /><text x="469.16" y="76.31" fill="#f3f4f6" font-size="15" font-weight="700" text-anchor="middle">D</text>
  <text x="56" y="492" fill="#8ba0b5" font-size="18">일반 완성 · TP1 0.31906 · TP2 0.31885 · SL 0.31957</text>
</svg>
