<svg xmlns="http://www.w3.org/2000/svg" width="960" height="540" viewBox="0 0 960 540">
  <rect width="960" height="540" rx="24" fill="#0b1220" />
  <rect x="28" y="28" width="904" height="484" rx="22" fill="#111827" stroke="#1f2937" />
  <text x="56" y="74" fill="#f3f4f6" font-size="34" font-weight="700">TRXUSDT · AB=CD</text>
  <text x="904" y="74" fill="#8ba0b5" font-size="20" text-anchor="end">Bearish (매도) · Score 89.3</text>
  <line x1="72" y1="58" x2="920" y2="58" stroke="#223045" stroke-width="1" stroke-dasharray="4 8" /><line x1="72" y1="156" x2="920" y2="156" stroke="#223045" stroke-width="1" stroke-dasharray="4 8" /><line x1="72" y1="255" x2="920" y2="255" stroke="#223045" stroke-width="1" stroke-dasharray="4 8" /><line x1="72" y1="353" x2="920" y2="353" stroke="#223045" stroke-width="1" stroke-dasharray="4 8" /><line x1="72" y1="452" x2="920" y2="452" stroke="#223045" stroke-width="1" stroke-dasharray="4 8" />
  <rect x="741.72" y="-81.91" width="84" height="257.31" fill="#fbbf24" fill-opacity="0.12" stroke="#fbbf24" stroke-width="1.5" stroke-dasharray="6 6" />
  <line x1="72.00" y1="337.82" x2="72.00" y2="384.46" stroke="#0ecb81" stroke-width="1.4" /><rect x="69.00" y="355.51" width="6" height="3.22" rx="1.5" fill="#0ecb81" /><line x1="82.73" y1="341.04" x2="82.73" y2="376.42" stroke="#f6465d" stroke-width="1.4" /><rect x="79.73" y="353.90" width="6" height="11.26" rx="1.5" fill="#f6465d" /><line x1="93.47" y1="347.47" x2="93.47" y2="379.63" stroke="#f6465d" stroke-width="1.4" /><rect x="90.47" y="363.55" width="6" height="3.22" rx="1.5" fill="#f6465d" /><line x1="104.20" y1="341.04" x2="104.20" y2="382.85" stroke="#0ecb81" stroke-width="1.4" /><rect x="101.20" y="352.29" width="6" height="14.47" rx="1.5" fill="#0ecb81" /><line x1="114.94" y1="345.86" x2="114.94" y2="384.46" stroke="#f6465d" stroke-width="1.4" /><rect x="111.94" y="352.29" width="6" height="24.12" rx="1.5" fill="#f6465d" /><line x1="125.67" y1="360.33" x2="125.67" y2="398.93" stroke="#0ecb81" stroke-width="1.4" /><rect x="122.67" y="360.33" width="6" height="17.69" rx="1.5" fill="#0ecb81" /><line x1="136.41" y1="358.73" x2="136.41" y2="384.46" stroke="#f6465d" stroke-width="1.4" /><rect x="133.41" y="360.33" width="6" height="16.08" rx="1.5" fill="#f6465d" /><line x1="147.14" y1="376.42" x2="147.14" y2="452.00" stroke="#f6465d" stroke-width="1.4" /><rect x="144.14" y="376.42" width="6" height="59.50" rx="1.5" fill="#f6465d" /><line x1="157.87" y1="410.19" x2="157.87" y2="452.00" stroke="#f6465d" stroke-width="1.4" /><rect x="154.87" y="435.92" width="6" height="4.82" rx="1.5" fill="#f6465d" /><line x1="168.61" y1="402.15" x2="168.61" y2="445.57" stroke="#0ecb81" stroke-width="1.4" /><rect x="165.61" y="413.40" width="6" height="28.95" rx="1.5" fill="#0ecb81" /><line x1="179.34" y1="389.28" x2="179.34" y2="434.31" stroke="#f6465d" stroke-width="1.4" /><rect x="176.34" y="413.40" width="6" height="14.47" rx="1.5" fill="#f6465d" /><line x1="190.08" y1="402.15" x2="190.08" y2="437.53" stroke="#0ecb81" stroke-width="1.4" /><rect x="187.08" y="415.01" width="6" height="14.47" rx="1.5" fill="#0ecb81" /><line x1="200.81" y1="384.46" x2="200.81" y2="432.70" stroke="#0ecb81" stroke-width="1.4" /><rect x="197.81" y="386.07" width="6" height="28.95" rx="1.5" fill="#0ecb81" /><line x1="211.54" y1="368.38" x2="211.54" y2="406.97" stroke="#f6465d" stroke-width="1.4" /><rect x="208.54" y="384.46" width="6" height="8.04" rx="1.5" fill="#f6465d" /><line x1="222.28" y1="378.02" x2="222.28" y2="416.62" stroke="#f6465d" stroke-width="1.4" /><rect x="219.28" y="394.11" width="6" height="8.04" rx="1.5" fill="#f6465d" /><line x1="233.01" y1="284.75" x2="233.01" y2="403.76" stroke="#0ecb81" stroke-width="1.4" /><rect x="230.01" y="305.66" width="6" height="96.49" rx="1.5" fill="#0ecb81" /><line x1="243.75" y1="241.33" x2="243.75" y2="320.13" stroke="#0ecb81" stroke-width="1.4" /><rect x="240.75" y="273.49" width="6" height="32.16" rx="1.5" fill="#0ecb81" /><line x1="254.48" y1="151.27" x2="254.48" y2="275.10" stroke="#0ecb81" stroke-width="1.4" /><rect x="251.48" y="181.83" width="6" height="91.67" rx="1.5" fill="#0ecb81" /><line x1="265.22" y1="123.93" x2="265.22" y2="246.16" stroke="#f6465d" stroke-width="1.4" /><rect x="262.22" y="181.83" width="6" height="41.81" rx="1.5" fill="#f6465d" /><line x1="275.95" y1="196.30" x2="275.95" y2="234.90" stroke="#f6465d" stroke-width="1.4" /><rect x="272.95" y="223.64" width="6" height="6.43" rx="1.5" fill="#f6465d" /><line x1="286.68" y1="162.53" x2="286.68" y2="234.90" stroke="#0ecb81" stroke-width="1.4" /><rect x="283.68" y="180.22" width="6" height="51.46" rx="1.5" fill="#0ecb81" /><line x1="297.42" y1="131.98" x2="297.42" y2="181.83" stroke="#0ecb81" stroke-width="1.4" /><rect x="294.42" y="156.10" width="6" height="25.73" rx="1.5" fill="#0ecb81" /><line x1="308.15" y1="133.58" x2="308.15" y2="177.00" stroke="#f6465d" stroke-width="1.4" /><rect x="305.15" y="157.71" width="6" height="11.26" rx="1.5" fill="#f6465d" /><line x1="318.89" y1="123.93" x2="318.89" y2="170.57" stroke="#0ecb81" stroke-width="1.4" /><rect x="315.89" y="127.15" width="6" height="43.42" rx="1.5" fill="#0ecb81" /><line x1="329.62" y1="99.81" x2="329.62" y2="215.60" stroke="#f6465d" stroke-width="1.4" /><rect x="326.62" y="127.15" width="6" height="64.33" rx="1.5" fill="#f6465d" /><line x1="340.35" y1="183.44" x2="340.35" y2="209.17" stroke="#0ecb81" stroke-width="1.4" /><rect x="337.35" y="191.48" width="6" height="2.00" rx="1.5" fill="#0ecb81" /><line x1="351.09" y1="178.61" x2="351.09" y2="205.95" stroke="#0ecb81" stroke-width="1.4" /><rect x="348.09" y="185.04" width="6" height="6.43" rx="1.5" fill="#0ecb81" /><line x1="361.82" y1="180.22" x2="361.82" y2="220.42" stroke="#f6465d" stroke-width="1.4" /><rect x="358.82" y="186.65" width="6" height="6.43" rx="1.5" fill="#f6465d" /><line x1="372.56" y1="175.40" x2="372.56" y2="213.99" stroke="#0ecb81" stroke-width="1.4" /><rect x="369.56" y="175.40" width="6" height="17.69" rx="1.5" fill="#0ecb81" /><line x1="383.29" y1="157.71" x2="383.29" y2="212.38" stroke="#f6465d" stroke-width="1.4" /><rect x="380.29" y="177.00" width="6" height="9.65" rx="1.5" fill="#f6465d" /><line x1="394.03" y1="156.10" x2="394.03" y2="236.51" stroke="#f6465d" stroke-width="1.4" /><rect x="391.03" y="188.26" width="6" height="24.12" rx="1.5" fill="#f6465d" /><line x1="404.76" y1="191.48" x2="404.76" y2="291.18" stroke="#f6465d" stroke-width="1.4" /><rect x="401.76" y="212.38" width="6" height="14.47" rx="1.5" fill="#f6465d" /><line x1="415.49" y1="162.53" x2="415.49" y2="231.68" stroke="#0ecb81" stroke-width="1.4" /><rect x="412.49" y="220.42" width="6" height="8.04" rx="1.5" fill="#0ecb81" /><line x1="426.23" y1="144.84" x2="426.23" y2="222.03" stroke="#0ecb81" stroke-width="1.4" /><rect x="423.23" y="148.06" width="6" height="72.37" rx="1.5" fill="#0ecb81" /><line x1="436.96" y1="148.06" x2="436.96" y2="188.26" stroke="#f6465d" stroke-width="1.4" /><rect x="433.96" y="148.06" width="6" height="11.26" rx="1.5" fill="#f6465d" /><line x1="447.70" y1="106.24" x2="447.70" y2="178.61" stroke="#0ecb81" stroke-width="1.4" /><rect x="444.70" y="115.89" width="6" height="43.42" rx="1.5" fill="#0ecb81" /><line x1="458.43" y1="58.00" x2="458.43" y2="157.71" stroke="#f6465d" stroke-width="1.4" /><rect x="455.43" y="117.50" width="6" height="32.16" rx="1.5" fill="#f6465d" /><line x1="469.16" y1="96.60" x2="469.16" y2="154.49" stroke="#0ecb81" stroke-width="1.4" /><rect x="466.16" y="127.15" width="6" height="20.91" rx="1.5" fill="#0ecb81" /><line x1="479.90" y1="115.89" x2="479.90" y2="168.96" stroke="#0ecb81" stroke-width="1.4" /><rect x="476.90" y="117.50" width="6" height="11.26" rx="1.5" fill="#0ecb81" /><line x1="490.63" y1="88.56" x2="490.63" y2="125.54" stroke="#0ecb81" stroke-width="1.4" /><rect x="487.63" y="115.89" width="6" height="2.00" rx="1.5" fill="#0ecb81" /><line x1="501.37" y1="64.43" x2="501.37" y2="144.84" stroke="#0ecb81" stroke-width="1.4" /><rect x="498.37" y="86.95" width="6" height="27.34" rx="1.5" fill="#0ecb81" /><line x1="512.10" y1="77.30" x2="512.10" y2="94.99" stroke="#0ecb81" stroke-width="1.4" /><rect x="509.10" y="85.34" width="6" height="2.00" rx="1.5" fill="#0ecb81" /><line x1="522.84" y1="64.43" x2="522.84" y2="91.77" stroke="#0ecb81" stroke-width="1.4" /><rect x="519.84" y="74.08" width="6" height="11.26" rx="1.5" fill="#0ecb81" /><line x1="533.57" y1="64.43" x2="533.57" y2="125.54" stroke="#f6465d" stroke-width="1.4" /><rect x="530.57" y="74.08" width="6" height="51.46" rx="1.5" fill="#f6465d" /><line x1="544.30" y1="91.77" x2="544.30" y2="164.14" stroke="#f6465d" stroke-width="1.4" /><rect x="541.30" y="123.93" width="6" height="12.87" rx="1.5" fill="#f6465d" /><line x1="555.04" y1="96.60" x2="555.04" y2="157.71" stroke="#f6465d" stroke-width="1.4" /><rect x="552.04" y="136.80" width="6" height="4.82" rx="1.5" fill="#f6465d" /><line x1="565.77" y1="133.58" x2="565.77" y2="154.49" stroke="#f6465d" stroke-width="1.4" /><rect x="562.77" y="140.02" width="6" height="3.22" rx="1.5" fill="#f6465d" /><line x1="576.51" y1="138.41" x2="576.51" y2="165.75" stroke="#f6465d" stroke-width="1.4" /><rect x="573.51" y="141.62" width="6" height="19.30" rx="1.5" fill="#f6465d" /><line x1="587.24" y1="109.46" x2="587.24" y2="223.64" stroke="#f6465d" stroke-width="1.4" /><rect x="584.24" y="162.53" width="6" height="45.03" rx="1.5" fill="#f6465d" /><line x1="597.97" y1="181.83" x2="597.97" y2="210.78" stroke="#0ecb81" stroke-width="1.4" /><rect x="594.97" y="181.83" width="6" height="24.12" rx="1.5" fill="#0ecb81" /><line x1="608.71" y1="181.83" x2="608.71" y2="244.55" stroke="#f6465d" stroke-width="1.4" /><rect x="605.71" y="181.83" width="6" height="62.72" rx="1.5" fill="#f6465d" /><line x1="619.44" y1="218.82" x2="619.44" y2="271.89" stroke="#f6465d" stroke-width="1.4" /><rect x="616.44" y="242.94" width="6" height="12.87" rx="1.5" fill="#f6465d" /><line x1="630.18" y1="223.64" x2="630.18" y2="279.93" stroke="#0ecb81" stroke-width="1.4" /><rect x="627.18" y="246.16" width="6" height="11.26" rx="1.5" fill="#0ecb81" /><line x1="640.91" y1="194.69" x2="640.91" y2="259.02" stroke="#0ecb81" stroke-width="1.4" /><rect x="637.91" y="197.91" width="6" height="46.64" rx="1.5" fill="#0ecb81" /><line x1="651.65" y1="160.92" x2="651.65" y2="207.56" stroke="#0ecb81" stroke-width="1.4" /><rect x="648.65" y="162.53" width="6" height="35.38" rx="1.5" fill="#0ecb81" /><line x1="662.38" y1="160.92" x2="662.38" y2="185.04" stroke="#f6465d" stroke-width="1.4" /><rect x="659.38" y="160.92" width="6" height="17.69" rx="1.5" fill="#f6465d" /><line x1="673.11" y1="168.96" x2="673.11" y2="202.73" stroke="#f6465d" stroke-width="1.4" /><rect x="670.11" y="177.00" width="6" height="6.43" rx="1.5" fill="#f6465d" /><line x1="683.85" y1="181.83" x2="683.85" y2="205.95" stroke="#f6465d" stroke-width="1.4" /><rect x="680.85" y="181.83" width="6" height="6.43" rx="1.5" fill="#f6465d" /><line x1="694.58" y1="119.11" x2="694.58" y2="207.56" stroke="#0ecb81" stroke-width="1.4" /><rect x="691.58" y="175.40" width="6" height="14.47" rx="1.5" fill="#0ecb81" /><line x1="705.32" y1="140.02" x2="705.32" y2="189.87" stroke="#0ecb81" stroke-width="1.4" /><rect x="702.32" y="144.84" width="6" height="30.56" rx="1.5" fill="#0ecb81" /><line x1="716.05" y1="135.19" x2="716.05" y2="236.51" stroke="#f6465d" stroke-width="1.4" /><rect x="713.05" y="146.45" width="6" height="43.42" rx="1.5" fill="#f6465d" /><line x1="726.78" y1="170.57" x2="726.78" y2="234.90" stroke="#f6465d" stroke-width="1.4" /><rect x="723.78" y="189.87" width="6" height="17.69" rx="1.5" fill="#f6465d" /><line x1="737.52" y1="167.36" x2="737.52" y2="209.17" stroke="#0ecb81" stroke-width="1.4" /><rect x="734.52" y="196.30" width="6" height="12.87" rx="1.5" fill="#0ecb81" /><line x1="748.25" y1="185.04" x2="748.25" y2="231.68" stroke="#f6465d" stroke-width="1.4" /><rect x="745.25" y="194.69" width="6" height="22.51" rx="1.5" fill="#f6465d" /><line x1="758.99" y1="130.37" x2="758.99" y2="217.21" stroke="#0ecb81" stroke-width="1.4" /><rect x="755.99" y="133.58" width="6" height="82.02" rx="1.5" fill="#0ecb81" /><line x1="769.72" y1="96.60" x2="769.72" y2="160.92" stroke="#f6465d" stroke-width="1.4" /><rect x="766.72" y="133.58" width="6" height="4.82" rx="1.5" fill="#f6465d" /><line x1="780.46" y1="112.68" x2="780.46" y2="151.27" stroke="#f6465d" stroke-width="1.4" /><rect x="777.46" y="138.41" width="6" height="8.04" rx="1.5" fill="#f6465d" /><line x1="791.19" y1="144.84" x2="791.19" y2="222.03" stroke="#f6465d" stroke-width="1.4" /><rect x="788.19" y="146.45" width="6" height="54.68" rx="1.5" fill="#f6465d" /><line x1="801.92" y1="160.92" x2="801.92" y2="204.34" stroke="#0ecb81" stroke-width="1.4" /><rect x="798.92" y="170.57" width="6" height="30.56" rx="1.5" fill="#0ecb81" /><line x1="812.66" y1="114.29" x2="812.66" y2="170.57" stroke="#0ecb81" stroke-width="1.4" /><rect x="809.66" y="114.29" width="6" height="54.68" rx="1.5" fill="#0ecb81" /><line x1="823.39" y1="114.29" x2="823.39" y2="133.58" stroke="#f6465d" stroke-width="1.4" /><rect x="820.39" y="115.89" width="6" height="16.08" rx="1.5" fill="#f6465d" /><line x1="834.13" y1="123.93" x2="834.13" y2="162.53" stroke="#f6465d" stroke-width="1.4" /><rect x="831.13" y="133.58" width="6" height="4.82" rx="1.5" fill="#f6465d" /><line x1="844.86" y1="122.33" x2="844.86" y2="189.87" stroke="#f6465d" stroke-width="1.4" /><rect x="841.86" y="138.41" width="6" height="38.60" rx="1.5" fill="#f6465d" /><line x1="855.59" y1="177.00" x2="855.59" y2="278.32" stroke="#f6465d" stroke-width="1.4" /><rect x="852.59" y="178.61" width="6" height="73.98" rx="1.5" fill="#f6465d" /><line x1="866.33" y1="250.98" x2="866.33" y2="312.09" stroke="#f6465d" stroke-width="1.4" /><rect x="863.33" y="254.20" width="6" height="57.89" rx="1.5" fill="#f6465d" /><line x1="877.06" y1="302.44" x2="877.06" y2="350.69" stroke="#f6465d" stroke-width="1.4" /><rect x="874.06" y="313.70" width="6" height="19.30" rx="1.5" fill="#f6465d" /><line x1="887.80" y1="213.99" x2="887.80" y2="334.60" stroke="#0ecb81" stroke-width="1.4" /><rect x="884.80" y="262.24" width="6" height="70.76" rx="1.5" fill="#0ecb81" /><line x1="898.53" y1="231.68" x2="898.53" y2="337.82" stroke="#0ecb81" stroke-width="1.4" /><rect x="895.53" y="257.41" width="6" height="4.82" rx="1.5" fill="#0ecb81" /><line x1="909.27" y1="241.33" x2="909.27" y2="300.83" stroke="#f6465d" stroke-width="1.4" /><rect x="906.27" y="257.41" width="6" height="16.08" rx="1.5" fill="#f6465d" /><line x1="920.00" y1="271.89" x2="920.00" y2="321.74" stroke="#f6465d" stroke-width="1.4" /><rect x="917.00" y="273.49" width="6" height="22.51" rx="1.5" fill="#f6465d" />
  <polyline points="458.43,58.00 630.18,279.93 694.58,119.11 716.05,236.51 769.72,96.60" fill="none" stroke="#2fc273" stroke-width="4" stroke-linecap="round" stroke-linejoin="round" />
  <circle cx="458.43" cy="58.00" r="5.5" fill="#2fc273" fill-opacity="0.15" stroke="#2fc273" stroke-width="2" /><text x="458.43" y="46.00" fill="#f3f4f6" font-size="15" font-weight="700" text-anchor="middle">X</text><circle cx="630.18" cy="279.93" r="5.5" fill="#2fc273" fill-opacity="0.15" stroke="#2fc273" stroke-width="2" /><text x="630.18" y="267.93" fill="#f3f4f6" font-size="15" font-weight="700" text-anchor="middle">A</text><circle cx="694.58" cy="119.11" r="5.5" fill="#2fc273" fill-opacity="0.15" stroke="#2fc273" stroke-width="2" /><text x="694.58" y="107.11" fill="#f3f4f6" font-size="15" font-weight="700" text-anchor="middle">B</text><circle cx="716.05" cy="236.51" r="5.5" fill="#2fc273" fill-opacity="0.15" stroke="#2fc273" stroke-width="2" /><text x="716.05" y="224.51" fill="#f3f4f6" font-size="15" font-weight="700" text-anchor="middle">C</text><circle cx="769.72" cy="96.60" r="5.5" fill="#2fc273" fill-opacity="0.15" stroke="#2fc273" stroke-width="2" /><text x="769.72" y="84.60" fill="#f3f4f6" font-size="15" font-weight="700" text-anchor="middle">D</text>
  <text x="56" y="492" fill="#8ba0b5" font-size="18">일반 완성 · TP1 0.31906 · TP2 0.31885 · SL 0.31957</text>
</svg>
