<svg xmlns="http://www.w3.org/2000/svg" width="960" height="540" viewBox="0 0 960 540">
  <rect width="960" height="540" rx="24" fill="#0b1220" />
  <rect x="28" y="28" width="904" height="484" rx="22" fill="#111827" stroke="#1f2937" />
  <text x="56" y="74" fill="#f3f4f6" font-size="34" font-weight="700">UBUSDT · AB=CD</text>
  <text x="904" y="74" fill="#8ba0b5" font-size="20" text-anchor="end">Bearish (매도) · Score 86.1</text>
  <line x1="72" y1="58" x2="920" y2="58" stroke="#223045" stroke-width="1" stroke-dasharray="4 8" /><line x1="72" y1="156" x2="920" y2="156" stroke="#223045" stroke-width="1" stroke-dasharray="4 8" /><line x1="72" y1="255" x2="920" y2="255" stroke="#223045" stroke-width="1" stroke-dasharray="4 8" /><line x1="72" y1="353" x2="920" y2="353" stroke="#223045" stroke-width="1" stroke-dasharray="4 8" /><line x1="72" y1="452" x2="920" y2="452" stroke="#223045" stroke-width="1" stroke-dasharray="4 8" />
  <rect x="773.92" y="-146.64" width="84" height="44.89" fill="#fbbf24" fill-opacity="0.12" stroke="#fbbf24" stroke-width="1.5" stroke-dasharray="6 6" />
  <line x1="72.00" y1="137.76" x2="72.00" y2="196.02" stroke="#f6465d" stroke-width="1.4" /><rect x="69.00" y="139.67" width="6" height="31.28" rx="1.5" fill="#f6465d" /><line x1="82.73" y1="161.40" x2="82.73" y2="185.99" stroke="#0ecb81" stroke-width="1.4" /><rect x="79.73" y="165.93" width="6" height="4.78" rx="1.5" fill="#0ecb81" /><line x1="93.47" y1="162.59" x2="93.47" y2="185.75" stroke="#f6465d" stroke-width="1.4" /><rect x="90.47" y="166.17" width="6" height="10.03" rx="1.5" fill="#f6465d" /><line x1="104.20" y1="164.26" x2="104.20" y2="182.89" stroke="#0ecb81" stroke-width="1.4" /><rect x="101.20" y="168.80" width="6" height="7.40" rx="1.5" fill="#0ecb81" /><line x1="114.94" y1="167.84" x2="114.94" y2="192.68" stroke="#f6465d" stroke-width="1.4" /><rect x="111.94" y="168.56" width="6" height="8.36" rx="1.5" fill="#f6465d" /><line x1="125.67" y1="158.29" x2="125.67" y2="182.17" stroke="#0ecb81" stroke-width="1.4" /><rect x="122.67" y="171.19" width="6" height="7.16" rx="1.5" fill="#0ecb81" /><line x1="136.41" y1="154.95" x2="136.41" y2="184.56" stroke="#f6465d" stroke-width="1.4" /><rect x="133.41" y="171.19" width="6" height="3.10" rx="1.5" fill="#f6465d" /><line x1="147.14" y1="174.05" x2="147.14" y2="196.02" stroke="#f6465d" stroke-width="1.4" /><rect x="144.14" y="174.05" width="6" height="18.15" rx="1.5" fill="#f6465d" /><line x1="157.87" y1="191.24" x2="157.87" y2="238.28" stroke="#f6465d" stroke-width="1.4" /><rect x="154.87" y="192.44" width="6" height="29.85" rx="1.5" fill="#f6465d" /><line x1="168.61" y1="215.36" x2="168.61" y2="235.66" stroke="#f6465d" stroke-width="1.4" /><rect x="165.61" y="222.29" width="6" height="6.92" rx="1.5" fill="#f6465d" /><line x1="179.34" y1="221.81" x2="179.34" y2="251.42" stroke="#f6465d" stroke-width="1.4" /><rect x="176.34" y="228.97" width="6" height="10.03" rx="1.5" fill="#f6465d" /><line x1="190.08" y1="223.48" x2="190.08" y2="242.58" stroke="#0ecb81" stroke-width="1.4" /><rect x="187.08" y="232.79" width="6" height="5.97" rx="1.5" fill="#0ecb81" /><line x1="200.81" y1="231.36" x2="200.81" y2="268.37" stroke="#f6465d" stroke-width="1.4" /><rect x="197.81" y="231.36" width="6" height="27.94" rx="1.5" fill="#f6465d" /><line x1="211.54" y1="251.18" x2="211.54" y2="271.95" stroke="#f6465d" stroke-width="1.4" /><rect x="208.54" y="259.54" width="6" height="6.92" rx="1.5" fill="#f6465d" /><line x1="222.28" y1="262.40" x2="222.28" y2="292.25" stroke="#f6465d" stroke-width="1.4" /><rect x="219.28" y="266.22" width="6" height="13.37" rx="1.5" fill="#f6465d" /><line x1="233.01" y1="253.81" x2="233.01" y2="282.22" stroke="#0ecb81" stroke-width="1.4" /><rect x="230.01" y="273.15" width="6" height="6.21" rx="1.5" fill="#0ecb81" /><line x1="243.75" y1="264.31" x2="243.75" y2="282.46" stroke="#f6465d" stroke-width="1.4" /><rect x="240.75" y="273.15" width="6" height="6.69" rx="1.5" fill="#f6465d" /><line x1="254.48" y1="280.07" x2="254.48" y2="321.86" stroke="#f6465d" stroke-width="1.4" /><rect x="251.48" y="280.07" width="6" height="35.34" rx="1.5" fill="#f6465d" /><line x1="265.22" y1="297.03" x2="265.22" y2="350.75" stroke="#f6465d" stroke-width="1.4" /><rect x="262.22" y="315.65" width="6" height="25.79" rx="1.5" fill="#f6465d" /><line x1="275.95" y1="338.81" x2="275.95" y2="385.62" stroke="#f6465d" stroke-width="1.4" /><rect x="272.95" y="341.20" width="6" height="40.59" rx="1.5" fill="#f6465d" /><line x1="286.68" y1="345.98" x2="286.68" y2="396.60" stroke="#0ecb81" stroke-width="1.4" /><rect x="283.68" y="377.50" width="6" height="4.30" rx="1.5" fill="#0ecb81" /><line x1="297.42" y1="350.04" x2="297.42" y2="383.71" stroke="#0ecb81" stroke-width="1.4" /><rect x="294.42" y="362.93" width="6" height="14.80" rx="1.5" fill="#0ecb81" /><line x1="308.15" y1="276.73" x2="308.15" y2="417.38" stroke="#0ecb81" stroke-width="1.4" /><rect x="305.15" y="279.83" width="6" height="82.86" rx="1.5" fill="#0ecb81" /><line x1="318.89" y1="268.37" x2="318.89" y2="342.64" stroke="#f6465d" stroke-width="1.4" /><rect x="315.89" y="280.07" width="6" height="52.29" rx="1.5" fill="#f6465d" /><line x1="329.62" y1="292.97" x2="329.62" y2="335.23" stroke="#0ecb81" stroke-width="1.4" /><rect x="326.62" y="297.50" width="6" height="35.10" rx="1.5" fill="#0ecb81" /><line x1="340.35" y1="274.82" x2="340.35" y2="307.29" stroke="#0ecb81" stroke-width="1.4" /><rect x="337.35" y="290.58" width="6" height="6.69" rx="1.5" fill="#0ecb81" /><line x1="351.09" y1="224.91" x2="351.09" y2="297.50" stroke="#0ecb81" stroke-width="1.4" /><rect x="348.09" y="236.37" width="6" height="53.73" rx="1.5" fill="#0ecb81" /><line x1="361.82" y1="196.02" x2="361.82" y2="257.87" stroke="#0ecb81" stroke-width="1.4" /><rect x="358.82" y="201.03" width="6" height="35.10" rx="1.5" fill="#0ecb81" /><line x1="372.56" y1="195.30" x2="372.56" y2="237.09" stroke="#f6465d" stroke-width="1.4" /><rect x="369.56" y="201.03" width="6" height="3.34" rx="1.5" fill="#f6465d" /><line x1="383.29" y1="124.62" x2="383.29" y2="220.85" stroke="#0ecb81" stroke-width="1.4" /><rect x="380.29" y="143.25" width="6" height="60.89" rx="1.5" fill="#0ecb81" /><line x1="394.03" y1="134.17" x2="394.03" y2="234.46" stroke="#f6465d" stroke-width="1.4" /><rect x="391.03" y="143.25" width="6" height="82.86" rx="1.5" fill="#f6465d" /><line x1="404.76" y1="219.18" x2="404.76" y2="276.49" stroke="#f6465d" stroke-width="1.4" /><rect x="401.76" y="225.39" width="6" height="6.69" rx="1.5" fill="#f6465d" /><line x1="415.49" y1="223.72" x2="415.49" y2="301.56" stroke="#f6465d" stroke-width="1.4" /><rect x="412.49" y="232.08" width="6" height="15.28" rx="1.5" fill="#f6465d" /><line x1="426.23" y1="207.24" x2="426.23" y2="264.31" stroke="#0ecb81" stroke-width="1.4" /><rect x="423.23" y="215.36" width="6" height="32.95" rx="1.5" fill="#0ecb81" /><line x1="436.96" y1="195.30" x2="436.96" y2="257.15" stroke="#f6465d" stroke-width="1.4" /><rect x="433.96" y="215.12" width="6" height="33.91" rx="1.5" fill="#f6465d" /><line x1="447.70" y1="243.06" x2="447.70" y2="298.70" stroke="#f6465d" stroke-width="1.4" /><rect x="444.70" y="249.27" width="6" height="34.62" rx="1.5" fill="#f6465d" /><line x1="458.43" y1="250.94" x2="458.43" y2="295.36" stroke="#0ecb81" stroke-width="1.4" /><rect x="455.43" y="265.75" width="6" height="17.91" rx="1.5" fill="#0ecb81" /><line x1="469.16" y1="261.69" x2="469.16" y2="290.10" stroke="#f6465d" stroke-width="1.4" /><rect x="466.16" y="265.51" width="6" height="21.49" rx="1.5" fill="#f6465d" /><line x1="479.90" y1="270.28" x2="479.90" y2="351.71" stroke="#f6465d" stroke-width="1.4" /><rect x="476.90" y="286.76" width="6" height="49.91" rx="1.5" fill="#f6465d" /><line x1="490.63" y1="315.89" x2="490.63" y2="380.84" stroke="#f6465d" stroke-width="1.4" /><rect x="487.63" y="337.14" width="6" height="29.13" rx="1.5" fill="#f6465d" /><line x1="501.37" y1="274.58" x2="501.37" y2="452.00" stroke="#0ecb81" stroke-width="1.4" /><rect x="498.37" y="319.95" width="6" height="47.76" rx="1.5" fill="#0ecb81" /><line x1="512.10" y1="273.63" x2="512.10" y2="334.76" stroke="#0ecb81" stroke-width="1.4" /><rect x="509.10" y="310.88" width="6" height="6.92" rx="1.5" fill="#0ecb81" /><line x1="522.84" y1="265.51" x2="522.84" y2="340.72" stroke="#0ecb81" stroke-width="1.4" /><rect x="519.84" y="306.82" width="6" height="5.01" rx="1.5" fill="#0ecb81" /><line x1="533.57" y1="239.72" x2="533.57" y2="309.92" stroke="#0ecb81" stroke-width="1.4" /><rect x="530.57" y="240.20" width="6" height="66.62" rx="1.5" fill="#0ecb81" /><line x1="544.30" y1="202.71" x2="544.30" y2="255.00" stroke="#0ecb81" stroke-width="1.4" /><rect x="541.30" y="233.27" width="6" height="7.16" rx="1.5" fill="#0ecb81" /><line x1="555.04" y1="176.44" x2="555.04" y2="233.27" stroke="#0ecb81" stroke-width="1.4" /><rect x="552.04" y="222.29" width="6" height="10.98" rx="1.5" fill="#0ecb81" /><line x1="565.77" y1="185.04" x2="565.77" y2="256.67" stroke="#0ecb81" stroke-width="1.4" /><rect x="562.77" y="199.12" width="6" height="23.64" rx="1.5" fill="#0ecb81" /><line x1="576.51" y1="179.54" x2="576.51" y2="208.91" stroke="#0ecb81" stroke-width="1.4" /><rect x="573.51" y="192.44" width="6" height="4.78" rx="1.5" fill="#0ecb81" /><line x1="587.24" y1="156.14" x2="587.24" y2="202.71" stroke="#0ecb81" stroke-width="1.4" /><rect x="584.24" y="171.66" width="6" height="21.01" rx="1.5" fill="#0ecb81" /><line x1="597.97" y1="153.75" x2="597.97" y2="187.66" stroke="#0ecb81" stroke-width="1.4" /><rect x="594.97" y="164.50" width="6" height="7.40" rx="1.5" fill="#0ecb81" /><line x1="608.71" y1="146.35" x2="608.71" y2="182.65" stroke="#0ecb81" stroke-width="1.4" /><rect x="605.71" y="153.75" width="6" height="10.98" rx="1.5" fill="#0ecb81" /><line x1="619.44" y1="58.00" x2="619.44" y2="153.75" stroke="#0ecb81" stroke-width="1.4" /><rect x="616.44" y="93.82" width="6" height="59.70" rx="1.5" fill="#0ecb81" /><line x1="630.18" y1="61.82" x2="630.18" y2="142.77" stroke="#0ecb81" stroke-width="1.4" /><rect x="627.18" y="71.37" width="6" height="21.49" rx="1.5" fill="#0ecb81" /><line x1="640.91" y1="69.46" x2="640.91" y2="171.42" stroke="#f6465d" stroke-width="1.4" /><rect x="637.91" y="71.13" width="6" height="23.40" rx="1.5" fill="#f6465d" /><line x1="651.65" y1="79.97" x2="651.65" y2="194.35" stroke="#f6465d" stroke-width="1.4" /><rect x="648.65" y="93.82" width="6" height="88.83" rx="1.5" fill="#f6465d" /><line x1="662.38" y1="163.54" x2="662.38" y2="207.48" stroke="#f6465d" stroke-width="1.4" /><rect x="659.38" y="183.12" width="6" height="18.39" rx="1.5" fill="#f6465d" /><line x1="673.11" y1="163.54" x2="673.11" y2="236.61" stroke="#0ecb81" stroke-width="1.4" /><rect x="670.11" y="180.50" width="6" height="21.01" rx="1.5" fill="#0ecb81" /><line x1="683.85" y1="172.38" x2="683.85" y2="292.25" stroke="#f6465d" stroke-width="1.4" /><rect x="680.85" y="180.50" width="6" height="66.62" rx="1.5" fill="#f6465d" /><line x1="694.58" y1="225.63" x2="694.58" y2="275.54" stroke="#0ecb81" stroke-width="1.4" /><rect x="691.58" y="246.88" width="6" height="2.00" rx="1.5" fill="#0ecb81" /><line x1="705.32" y1="228.49" x2="705.32" y2="259.54" stroke="#0ecb81" stroke-width="1.4" /><rect x="702.32" y="239.96" width="6" height="6.69" rx="1.5" fill="#0ecb81" /><line x1="716.05" y1="185.51" x2="716.05" y2="243.78" stroke="#0ecb81" stroke-width="1.4" /><rect x="713.05" y="208.91" width="6" height="31.04" rx="1.5" fill="#0ecb81" /><line x1="726.78" y1="153.28" x2="726.78" y2="211.78" stroke="#0ecb81" stroke-width="1.4" /><rect x="723.78" y="187.42" width="6" height="21.73" rx="1.5" fill="#0ecb81" /><line x1="737.52" y1="170.95" x2="737.52" y2="230.40" stroke="#0ecb81" stroke-width="1.4" /><rect x="734.52" y="175.72" width="6" height="11.70" rx="1.5" fill="#0ecb81" /><line x1="748.25" y1="127.96" x2="748.25" y2="190.29" stroke="#0ecb81" stroke-width="1.4" /><rect x="745.25" y="134.17" width="6" height="42.50" rx="1.5" fill="#0ecb81" /><line x1="758.99" y1="101.46" x2="758.99" y2="181.45" stroke="#0ecb81" stroke-width="1.4" /><rect x="755.99" y="129.40" width="6" height="4.78" rx="1.5" fill="#0ecb81" /><line x1="769.72" y1="125.82" x2="769.72" y2="168.32" stroke="#f6465d" stroke-width="1.4" /><rect x="766.72" y="129.16" width="6" height="33.91" rx="1.5" fill="#f6465d" /><line x1="780.46" y1="119.61" x2="780.46" y2="166.17" stroke="#0ecb81" stroke-width="1.4" /><rect x="777.46" y="126.77" width="6" height="36.53" rx="1.5" fill="#0ecb81" /><line x1="791.19" y1="74.95" x2="791.19" y2="126.53" stroke="#0ecb81" stroke-width="1.4" /><rect x="788.19" y="84.98" width="6" height="41.55" rx="1.5" fill="#0ecb81" /><line x1="801.92" y1="59.43" x2="801.92" y2="99.31" stroke="#f6465d" stroke-width="1.4" /><rect x="798.92" y="85.22" width="6" height="7.88" rx="1.5" fill="#f6465d" /><line x1="812.66" y1="80.21" x2="812.66" y2="116.03" stroke="#f6465d" stroke-width="1.4" /><rect x="809.66" y="92.62" width="6" height="13.37" rx="1.5" fill="#f6465d" /><line x1="823.39" y1="74.24" x2="823.39" y2="117.94" stroke="#f6465d" stroke-width="1.4" /><rect x="820.39" y="105.76" width="6" height="2.00" rx="1.5" fill="#f6465d" /><line x1="834.13" y1="97.16" x2="834.13" y2="152.08" stroke="#0ecb81" stroke-width="1.4" /><rect x="831.13" y="100.74" width="6" height="5.73" rx="1.5" fill="#0ecb81" /><line x1="844.86" y1="93.58" x2="844.86" y2="125.82" stroke="#f6465d" stroke-width="1.4" /><rect x="841.86" y="100.98" width="6" height="19.58" rx="1.5" fill="#f6465d" /><line x1="855.59" y1="111.73" x2="855.59" y2="135.37" stroke="#f6465d" stroke-width="1.4" /><rect x="852.59" y="120.56" width="6" height="13.61" rx="1.5" fill="#f6465d" /><line x1="866.33" y1="120.56" x2="866.33" y2="144.92" stroke="#f6465d" stroke-width="1.4" /><rect x="863.33" y="134.41" width="6" height="4.54" rx="1.5" fill="#f6465d" /><line x1="877.06" y1="84.51" x2="877.06" y2="138.95" stroke="#0ecb81" stroke-width="1.4" /><rect x="874.06" y="97.88" width="6" height="41.07" rx="1.5" fill="#0ecb81" /><line x1="887.80" y1="66.84" x2="887.80" y2="100.98" stroke="#0ecb81" stroke-width="1.4" /><rect x="884.80" y="72.80" width="6" height="23.88" rx="1.5" fill="#0ecb81" /><line x1="898.53" y1="62.54" x2="898.53" y2="96.44" stroke="#f6465d" stroke-width="1.4" /><rect x="895.53" y="73.52" width="6" height="14.09" rx="1.5" fill="#f6465d" /><line x1="909.27" y1="86.18" x2="909.27" y2="124.38" stroke="#f6465d" stroke-width="1.4" /><rect x="906.27" y="87.85" width="6" height="20.30" rx="1.5" fill="#f6465d" /><line x1="920.00" y1="105.76" x2="920.00" y2="134.89" stroke="#f6465d" stroke-width="1.4" /><rect x="917.00" y="108.38" width="6" height="12.66" rx="1.5" fill="#f6465d" />
  <polyline points="436.96,195.30 501.37,452.00 619.44,58.00 683.85,292.25 801.92,59.43" fill="none" stroke="#2fc273" stroke-width="4" stroke-linecap="round" stroke-linejoin="round" />
  <circle cx="436.96" cy="195.30" r="5.5" fill="#2fc273" fill-opacity="0.15" stroke="#2fc273" stroke-width="2" /><text x="436.96" y="183.30" fill="#f3f4f6" font-size="15" font-weight="700" text-anchor="middle">X</text><circle cx="501.37" cy="452.00" r="5.5" fill="#2fc273" fill-opacity="0.15" stroke="#2fc273" stroke-width="2" /><text x="501.37" y="440.00" fill="#f3f4f6" font-size="15" font-weight="700" text-anchor="middle">A</text><circle cx="619.44" cy="58.00" r="5.5" fill="#2fc273" fill-opacity="0.15" stroke="#2fc273" stroke-width="2" /><text x="619.44" y="46.00" fill="#f3f4f6" font-size="15" font-weight="700" text-anchor="middle">B</text><circle cx="683.85" cy="292.25" r="5.5" fill="#2fc273" fill-opacity="0.15" stroke="#2fc273" stroke-width="2" /><text x="683.85" y="280.25" fill="#f3f4f6" font-size="15" font-weight="700" text-anchor="middle">C</text><circle cx="801.92" cy="59.43" r="5.5" fill="#2fc273" fill-opacity="0.15" stroke="#2fc273" stroke-width="2" /><text x="801.92" y="47.43" fill="#f3f4f6" font-size="15" font-weight="700" text-anchor="middle">D</text>
  <text x="56" y="492" fill="#8ba0b5" font-size="18">Complete · TP1 0.10378 · TP2 0.10147 · SL 0.1089</text>
</svg>
