<svg xmlns="http://www.w3.org/2000/svg" width="960" height="540" viewBox="0 0 960 540">
  <rect width="960" height="540" rx="24" fill="#0b1220" />
  <rect x="28" y="28" width="904" height="484" rx="22" fill="#111827" stroke="#1f2937" />
  <text x="56" y="74" fill="#f3f4f6" font-size="34" font-weight="700">VIRTUALUSDT · AB=CD</text>
  <text x="904" y="74" fill="#8ba0b5" font-size="20" text-anchor="end">Bearish (매도) · Score 84.8</text>
  <line x1="72" y1="58" x2="920" y2="58" stroke="#223045" stroke-width="1" stroke-dasharray="4 8" /><line x1="72" y1="156" x2="920" y2="156" stroke="#223045" stroke-width="1" stroke-dasharray="4 8" /><line x1="72" y1="255" x2="920" y2="255" stroke="#223045" stroke-width="1" stroke-dasharray="4 8" /><line x1="72" y1="353" x2="920" y2="353" stroke="#223045" stroke-width="1" stroke-dasharray="4 8" /><line x1="72" y1="452" x2="920" y2="452" stroke="#223045" stroke-width="1" stroke-dasharray="4 8" />
  <rect x="602.18" y="145.38" width="84" height="31.39" fill="#fbbf24" fill-opacity="0.12" stroke="#fbbf24" stroke-width="1.5" stroke-dasharray="6 6" />
  <line x1="72.00" y1="252.17" x2="72.00" y2="287.05" stroke="#f6465d" stroke-width="1.4" /><rect x="69.00" y="264.43" width="6" height="13.20" rx="1.5" fill="#f6465d" /><line x1="82.73" y1="265.37" x2="82.73" y2="293.65" stroke="#f6465d" stroke-width="1.4" /><rect x="79.73" y="278.56" width="6" height="7.54" rx="1.5" fill="#f6465d" /><line x1="93.47" y1="284.22" x2="93.47" y2="348.32" stroke="#f6465d" stroke-width="1.4" /><rect x="90.47" y="287.05" width="6" height="55.61" rx="1.5" fill="#f6465d" /><line x1="104.20" y1="320.98" x2="104.20" y2="349.26" stroke="#0ecb81" stroke-width="1.4" /><rect x="101.20" y="336.06" width="6" height="7.54" rx="1.5" fill="#0ecb81" /><line x1="114.94" y1="333.23" x2="114.94" y2="358.68" stroke="#f6465d" stroke-width="1.4" /><rect x="111.94" y="335.12" width="6" height="7.54" rx="1.5" fill="#f6465d" /><line x1="125.67" y1="341.72" x2="125.67" y2="362.45" stroke="#f6465d" stroke-width="1.4" /><rect x="122.67" y="342.66" width="6" height="17.91" rx="1.5" fill="#f6465d" /><line x1="136.41" y1="353.03" x2="136.41" y2="409.58" stroke="#f6465d" stroke-width="1.4" /><rect x="133.41" y="360.57" width="6" height="32.99" rx="1.5" fill="#f6465d" /><line x1="147.14" y1="387.90" x2="147.14" y2="403.93" stroke="#f6465d" stroke-width="1.4" /><rect x="144.14" y="392.62" width="6" height="6.60" rx="1.5" fill="#f6465d" /><line x1="157.87" y1="377.54" x2="157.87" y2="402.04" stroke="#0ecb81" stroke-width="1.4" /><rect x="154.87" y="390.73" width="6" height="8.48" rx="1.5" fill="#0ecb81" /><line x1="168.61" y1="366.22" x2="168.61" y2="391.67" stroke="#0ecb81" stroke-width="1.4" /><rect x="165.61" y="375.65" width="6" height="14.14" rx="1.5" fill="#0ecb81" /><line x1="179.34" y1="367.17" x2="179.34" y2="386.02" stroke="#f6465d" stroke-width="1.4" /><rect x="176.34" y="375.65" width="6" height="5.66" rx="1.5" fill="#f6465d" /><line x1="190.08" y1="381.31" x2="190.08" y2="411.47" stroke="#f6465d" stroke-width="1.4" /><rect x="187.08" y="381.31" width="6" height="29.22" rx="1.5" fill="#f6465d" /><line x1="200.81" y1="400.16" x2="200.81" y2="414.30" stroke="#0ecb81" stroke-width="1.4" /><rect x="197.81" y="408.64" width="6" height="2.00" rx="1.5" fill="#0ecb81" /><line x1="211.54" y1="407.70" x2="211.54" y2="450.11" stroke="#f6465d" stroke-width="1.4" /><rect x="208.54" y="408.64" width="6" height="29.22" rx="1.5" fill="#f6465d" /><line x1="222.28" y1="432.21" x2="222.28" y2="449.17" stroke="#0ecb81" stroke-width="1.4" /><rect x="219.28" y="437.86" width="6" height="2.00" rx="1.5" fill="#0ecb81" /><line x1="233.01" y1="434.09" x2="233.01" y2="448.23" stroke="#f6465d" stroke-width="1.4" /><rect x="230.01" y="438.80" width="6" height="2.00" rx="1.5" fill="#f6465d" /><line x1="243.75" y1="432.21" x2="243.75" y2="452.00" stroke="#f6465d" stroke-width="1.4" /><rect x="240.75" y="439.75" width="6" height="7.54" rx="1.5" fill="#f6465d" /><line x1="254.48" y1="429.38" x2="254.48" y2="452.00" stroke="#0ecb81" stroke-width="1.4" /><rect x="251.48" y="440.69" width="6" height="6.60" rx="1.5" fill="#0ecb81" /><line x1="265.22" y1="382.25" x2="265.22" y2="442.57" stroke="#0ecb81" stroke-width="1.4" /><rect x="262.22" y="399.22" width="6" height="40.53" rx="1.5" fill="#0ecb81" /><line x1="275.95" y1="374.71" x2="275.95" y2="398.27" stroke="#0ecb81" stroke-width="1.4" /><rect x="272.95" y="376.59" width="6" height="21.68" rx="1.5" fill="#0ecb81" /><line x1="286.68" y1="369.05" x2="286.68" y2="394.50" stroke="#f6465d" stroke-width="1.4" /><rect x="283.68" y="377.54" width="6" height="11.31" rx="1.5" fill="#f6465d" /><line x1="297.42" y1="382.25" x2="297.42" y2="403.93" stroke="#0ecb81" stroke-width="1.4" /><rect x="294.42" y="386.02" width="6" height="2.00" rx="1.5" fill="#0ecb81" /><line x1="308.15" y1="355.86" x2="308.15" y2="404.87" stroke="#0ecb81" stroke-width="1.4" /><rect x="305.15" y="371.88" width="6" height="15.08" rx="1.5" fill="#0ecb81" /><line x1="318.89" y1="336.06" x2="318.89" y2="375.65" stroke="#0ecb81" stroke-width="1.4" /><rect x="315.89" y="340.78" width="6" height="31.11" rx="1.5" fill="#0ecb81" /><line x1="329.62" y1="297.42" x2="329.62" y2="340.78" stroke="#0ecb81" stroke-width="1.4" /><rect x="326.62" y="299.30" width="6" height="41.47" rx="1.5" fill="#0ecb81" /><line x1="340.35" y1="290.82" x2="340.35" y2="332.29" stroke="#f6465d" stroke-width="1.4" /><rect x="337.35" y="299.30" width="6" height="32.99" rx="1.5" fill="#f6465d" /><line x1="351.09" y1="292.70" x2="351.09" y2="333.23" stroke="#0ecb81" stroke-width="1.4" /><rect x="348.09" y="295.53" width="6" height="37.70" rx="1.5" fill="#0ecb81" /><line x1="361.82" y1="281.39" x2="361.82" y2="326.64" stroke="#f6465d" stroke-width="1.4" /><rect x="358.82" y="295.53" width="6" height="25.45" rx="1.5" fill="#f6465d" /><line x1="372.56" y1="306.84" x2="372.56" y2="332.29" stroke="#f6465d" stroke-width="1.4" /><rect x="369.56" y="319.10" width="6" height="2.83" rx="1.5" fill="#f6465d" /><line x1="383.29" y1="313.44" x2="383.29" y2="337.95" stroke="#f6465d" stroke-width="1.4" /><rect x="380.29" y="322.87" width="6" height="5.66" rx="1.5" fill="#f6465d" /><line x1="394.03" y1="305.90" x2="394.03" y2="345.49" stroke="#f6465d" stroke-width="1.4" /><rect x="391.03" y="327.58" width="6" height="8.48" rx="1.5" fill="#f6465d" /><line x1="404.76" y1="330.41" x2="404.76" y2="355.86" stroke="#f6465d" stroke-width="1.4" /><rect x="401.76" y="335.12" width="6" height="14.14" rx="1.5" fill="#f6465d" /><line x1="415.49" y1="331.35" x2="415.49" y2="352.09" stroke="#0ecb81" stroke-width="1.4" /><rect x="412.49" y="340.78" width="6" height="9.43" rx="1.5" fill="#0ecb81" /><line x1="426.23" y1="317.21" x2="426.23" y2="350.20" stroke="#0ecb81" stroke-width="1.4" /><rect x="423.23" y="321.92" width="6" height="18.85" rx="1.5" fill="#0ecb81" /><line x1="436.96" y1="292.70" x2="436.96" y2="322.87" stroke="#0ecb81" stroke-width="1.4" /><rect x="433.96" y="301.19" width="6" height="21.68" rx="1.5" fill="#0ecb81" /><line x1="447.70" y1="276.68" x2="447.70" y2="310.61" stroke="#0ecb81" stroke-width="1.4" /><rect x="444.70" y="290.82" width="6" height="9.43" rx="1.5" fill="#0ecb81" /><line x1="458.43" y1="261.60" x2="458.43" y2="302.13" stroke="#f6465d" stroke-width="1.4" /><rect x="455.43" y="289.88" width="6" height="4.71" rx="1.5" fill="#f6465d" /><line x1="469.16" y1="246.52" x2="469.16" y2="301.19" stroke="#0ecb81" stroke-width="1.4" /><rect x="466.16" y="251.23" width="6" height="43.36" rx="1.5" fill="#0ecb81" /><line x1="479.90" y1="218.24" x2="479.90" y2="310.61" stroke="#0ecb81" stroke-width="1.4" /><rect x="476.90" y="234.26" width="6" height="16.97" rx="1.5" fill="#0ecb81" /><line x1="490.63" y1="200.33" x2="490.63" y2="246.52" stroke="#0ecb81" stroke-width="1.4" /><rect x="487.63" y="218.24" width="6" height="16.97" rx="1.5" fill="#0ecb81" /><line x1="501.37" y1="191.85" x2="501.37" y2="227.67" stroke="#f6465d" stroke-width="1.4" /><rect x="498.37" y="216.35" width="6" height="7.54" rx="1.5" fill="#f6465d" /><line x1="512.10" y1="212.58" x2="512.10" y2="233.32" stroke="#f6465d" stroke-width="1.4" /><rect x="509.10" y="222.95" width="6" height="10.37" rx="1.5" fill="#f6465d" /><line x1="522.84" y1="217.30" x2="522.84" y2="258.77" stroke="#f6465d" stroke-width="1.4" /><rect x="519.84" y="233.32" width="6" height="2.00" rx="1.5" fill="#f6465d" /><line x1="533.57" y1="233.32" x2="533.57" y2="268.20" stroke="#f6465d" stroke-width="1.4" /><rect x="530.57" y="234.26" width="6" height="19.79" rx="1.5" fill="#f6465d" /><line x1="544.30" y1="247.46" x2="544.30" y2="264.43" stroke="#f6465d" stroke-width="1.4" /><rect x="541.30" y="253.11" width="6" height="2.83" rx="1.5" fill="#f6465d" /><line x1="555.04" y1="205.04" x2="555.04" y2="262.54" stroke="#0ecb81" stroke-width="1.4" /><rect x="552.04" y="226.72" width="6" height="30.16" rx="1.5" fill="#0ecb81" /><line x1="565.77" y1="207.87" x2="565.77" y2="236.15" stroke="#0ecb81" stroke-width="1.4" /><rect x="562.77" y="210.70" width="6" height="16.02" rx="1.5" fill="#0ecb81" /><line x1="576.51" y1="194.67" x2="576.51" y2="242.75" stroke="#f6465d" stroke-width="1.4" /><rect x="573.51" y="211.64" width="6" height="9.43" rx="1.5" fill="#f6465d" /><line x1="587.24" y1="206.93" x2="587.24" y2="234.26" stroke="#f6465d" stroke-width="1.4" /><rect x="584.24" y="222.01" width="6" height="2.83" rx="1.5" fill="#f6465d" /><line x1="597.97" y1="223.89" x2="597.97" y2="244.63" stroke="#f6465d" stroke-width="1.4" /><rect x="594.97" y="223.89" width="6" height="14.14" rx="1.5" fill="#f6465d" /><line x1="608.71" y1="222.95" x2="608.71" y2="241.80" stroke="#0ecb81" stroke-width="1.4" /><rect x="605.71" y="223.89" width="6" height="15.08" rx="1.5" fill="#0ecb81" /><line x1="619.44" y1="216.35" x2="619.44" y2="243.69" stroke="#f6465d" stroke-width="1.4" /><rect x="616.44" y="223.89" width="6" height="18.85" rx="1.5" fill="#f6465d" /><line x1="630.18" y1="178.65" x2="630.18" y2="244.63" stroke="#0ecb81" stroke-width="1.4" /><rect x="627.18" y="206.93" width="6" height="35.82" rx="1.5" fill="#0ecb81" /><line x1="640.91" y1="189.02" x2="640.91" y2="211.64" stroke="#0ecb81" stroke-width="1.4" /><rect x="637.91" y="202.22" width="6" height="4.71" rx="1.5" fill="#0ecb81" /><line x1="651.65" y1="180.54" x2="651.65" y2="255.00" stroke="#f6465d" stroke-width="1.4" /><rect x="648.65" y="202.22" width="6" height="43.36" rx="1.5" fill="#f6465d" /><line x1="662.38" y1="225.78" x2="662.38" y2="273.85" stroke="#f6465d" stroke-width="1.4" /><rect x="659.38" y="246.52" width="6" height="22.62" rx="1.5" fill="#f6465d" /><line x1="673.11" y1="248.40" x2="673.11" y2="270.08" stroke="#0ecb81" stroke-width="1.4" /><rect x="670.11" y="255.00" width="6" height="14.14" rx="1.5" fill="#0ecb81" /><line x1="683.85" y1="225.78" x2="683.85" y2="264.43" stroke="#0ecb81" stroke-width="1.4" /><rect x="680.85" y="235.21" width="6" height="20.74" rx="1.5" fill="#0ecb81" /><line x1="694.58" y1="235.21" x2="694.58" y2="256.89" stroke="#f6465d" stroke-width="1.4" /><rect x="691.58" y="235.21" width="6" height="16.02" rx="1.5" fill="#f6465d" /><line x1="705.32" y1="216.35" x2="705.32" y2="251.23" stroke="#0ecb81" stroke-width="1.4" /><rect x="702.32" y="220.12" width="6" height="30.16" rx="1.5" fill="#0ecb81" /><line x1="716.05" y1="203.16" x2="716.05" y2="223.89" stroke="#0ecb81" stroke-width="1.4" /><rect x="713.05" y="205.04" width="6" height="15.08" rx="1.5" fill="#0ecb81" /><line x1="726.78" y1="198.44" x2="726.78" y2="223.89" stroke="#f6465d" stroke-width="1.4" /><rect x="723.78" y="205.04" width="6" height="16.97" rx="1.5" fill="#f6465d" /><line x1="737.52" y1="207.87" x2="737.52" y2="226.72" stroke="#0ecb81" stroke-width="1.4" /><rect x="734.52" y="215.41" width="6" height="6.60" rx="1.5" fill="#0ecb81" /><line x1="748.25" y1="70.25" x2="748.25" y2="220.12" stroke="#0ecb81" stroke-width="1.4" /><rect x="745.25" y="76.85" width="6" height="138.56" rx="1.5" fill="#0ecb81" /><line x1="758.99" y1="58.00" x2="758.99" y2="127.75" stroke="#f6465d" stroke-width="1.4" /><rect x="755.99" y="75.91" width="6" height="49.96" rx="1.5" fill="#f6465d" /><line x1="769.72" y1="104.19" x2="769.72" y2="149.43" stroke="#0ecb81" stroke-width="1.4" /><rect x="766.72" y="111.73" width="6" height="14.14" rx="1.5" fill="#0ecb81" /><line x1="780.46" y1="93.82" x2="780.46" y2="131.52" stroke="#0ecb81" stroke-width="1.4" /><rect x="777.46" y="104.19" width="6" height="7.54" rx="1.5" fill="#0ecb81" /><line x1="791.19" y1="103.24" x2="791.19" y2="125.87" stroke="#f6465d" stroke-width="1.4" /><rect x="788.19" y="103.24" width="6" height="10.37" rx="1.5" fill="#f6465d" /><line x1="801.92" y1="89.11" x2="801.92" y2="117.38" stroke="#f6465d" stroke-width="1.4" /><rect x="798.92" y="113.61" width="6" height="2.83" rx="1.5" fill="#f6465d" /><line x1="812.66" y1="94.76" x2="812.66" y2="121.15" stroke="#0ecb81" stroke-width="1.4" /><rect x="809.66" y="107.96" width="6" height="7.54" rx="1.5" fill="#0ecb81" /><line x1="823.39" y1="84.39" x2="823.39" y2="120.21" stroke="#f6465d" stroke-width="1.4" /><rect x="820.39" y="107.96" width="6" height="6.60" rx="1.5" fill="#f6465d" /><line x1="834.13" y1="104.19" x2="834.13" y2="130.58" stroke="#f6465d" stroke-width="1.4" /><rect x="831.13" y="113.61" width="6" height="7.54" rx="1.5" fill="#f6465d" /><line x1="844.86" y1="121.15" x2="844.86" y2="155.09" stroke="#f6465d" stroke-width="1.4" /><rect x="841.86" y="121.15" width="6" height="21.68" rx="1.5" fill="#f6465d" /><line x1="855.59" y1="135.29" x2="855.59" y2="162.63" stroke="#f6465d" stroke-width="1.4" /><rect x="852.59" y="141.89" width="6" height="16.97" rx="1.5" fill="#f6465d" /><line x1="866.33" y1="139.06" x2="866.33" y2="170.17" stroke="#0ecb81" stroke-width="1.4" /><rect x="863.33" y="155.09" width="6" height="2.83" rx="1.5" fill="#0ecb81" /><line x1="877.06" y1="155.09" x2="877.06" y2="186.19" stroke="#f6465d" stroke-width="1.4" /><rect x="874.06" y="156.03" width="6" height="26.39" rx="1.5" fill="#f6465d" /><line x1="887.80" y1="173.00" x2="887.80" y2="215.41" stroke="#f6465d" stroke-width="1.4" /><rect x="884.80" y="182.42" width="6" height="16.97" rx="1.5" fill="#f6465d" /><line x1="898.53" y1="148.49" x2="898.53" y2="198.44" stroke="#0ecb81" stroke-width="1.4" /><rect x="895.53" y="156.03" width="6" height="42.42" rx="1.5" fill="#0ecb81" /><line x1="909.27" y1="78.74" x2="909.27" y2="178.65" stroke="#0ecb81" stroke-width="1.4" /><rect x="906.27" y="81.56" width="6" height="74.46" rx="1.5" fill="#0ecb81" /><line x1="920.00" y1="77.79" x2="920.00" y2="151.32" stroke="#f6465d" stroke-width="1.4" /><rect x="917.00" y="81.56" width="6" height="53.73" rx="1.5" fill="#f6465d" />
  <polyline points="501.37,191.85 533.57,268.20 576.51,194.67 597.97,244.63 630.18,178.65" fill="none" stroke="#2fc273" stroke-width="4" stroke-linecap="round" stroke-linejoin="round" />
  <circle cx="501.37" cy="191.85" r="5.5" fill="#2fc273" fill-opacity="0.15" stroke="#2fc273" stroke-width="2" /><text x="501.37" y="179.85" fill="#f3f4f6" font-size="15" font-weight="700" text-anchor="middle">X</text><circle cx="533.57" cy="268.20" r="5.5" fill="#2fc273" fill-opacity="0.15" stroke="#2fc273" stroke-width="2" /><text x="533.57" y="256.20" fill="#f3f4f6" font-size="15" font-weight="700" text-anchor="middle">A</text><circle cx="576.51" cy="194.67" r="5.5" fill="#2fc273" fill-opacity="0.15" stroke="#2fc273" stroke-width="2" /><text x="576.51" y="182.67" fill="#f3f4f6" font-size="15" font-weight="700" text-anchor="middle">B</text><circle cx="597.97" cy="244.63" r="5.5" fill="#2fc273" fill-opacity="0.15" stroke="#2fc273" stroke-width="2" /><text x="597.97" y="232.63" fill="#f3f4f6" font-size="15" font-weight="700" text-anchor="middle">C</text><circle cx="630.18" cy="178.65" r="5.5" fill="#2fc273" fill-opacity="0.15" stroke="#2fc273" stroke-width="2" /><text x="630.18" y="166.65" fill="#f3f4f6" font-size="15" font-weight="700" text-anchor="middle">D</text>
  <text x="56" y="492" fill="#8ba0b5" font-size="18">Realtime Touch · TP1 0.66053 · TP2 0.65887 · SL 0.66425</text>
</svg>
