<svg xmlns="http://www.w3.org/2000/svg" width="960" height="540" viewBox="0 0 960 540">
  <rect width="960" height="540" rx="24" fill="#0b1220" />
  <rect x="28" y="28" width="904" height="484" rx="22" fill="#111827" stroke="#1f2937" />
  <text x="56" y="74" fill="#f3f4f6" font-size="34" font-weight="700">VIRTUALUSDT · AB=CD</text>
  <text x="904" y="74" fill="#8ba0b5" font-size="20" text-anchor="end">Bullish (매수) · Score 79.3</text>
  <line x1="72" y1="58" x2="920" y2="58" stroke="#223045" stroke-width="1" stroke-dasharray="4 8" /><line x1="72" y1="156" x2="920" y2="156" stroke="#223045" stroke-width="1" stroke-dasharray="4 8" /><line x1="72" y1="255" x2="920" y2="255" stroke="#223045" stroke-width="1" stroke-dasharray="4 8" /><line x1="72" y1="353" x2="920" y2="353" stroke="#223045" stroke-width="1" stroke-dasharray="4 8" /><line x1="72" y1="452" x2="920" y2="452" stroke="#223045" stroke-width="1" stroke-dasharray="4 8" />
  <rect x="537.77" y="414.21" width="84" height="25.81" fill="#fbbf24" fill-opacity="0.12" stroke="#fbbf24" stroke-width="1.5" stroke-dasharray="6 6" />
  <line x1="72.00" y1="344.16" x2="72.00" y2="356.05" stroke="#0ecb81" stroke-width="1.4" /><rect x="69.00" y="346.71" width="6" height="2.00" rx="1.5" fill="#0ecb81" /><line x1="82.73" y1="342.46" x2="82.73" y2="357.75" stroke="#f6465d" stroke-width="1.4" /><rect x="79.73" y="347.56" width="6" height="7.64" rx="1.5" fill="#f6465d" /><line x1="93.47" y1="345.86" x2="93.47" y2="385.77" stroke="#f6465d" stroke-width="1.4" /><rect x="90.47" y="355.20" width="6" height="27.17" rx="1.5" fill="#f6465d" /><line x1="104.20" y1="357.75" x2="104.20" y2="381.52" stroke="#0ecb81" stroke-width="1.4" /><rect x="101.20" y="361.14" width="6" height="20.38" rx="1.5" fill="#0ecb81" /><line x1="114.94" y1="341.61" x2="114.94" y2="362.84" stroke="#0ecb81" stroke-width="1.4" /><rect x="111.94" y="353.50" width="6" height="7.64" rx="1.5" fill="#0ecb81" /><line x1="125.67" y1="339.91" x2="125.67" y2="357.75" stroke="#0ecb81" stroke-width="1.4" /><rect x="122.67" y="345.01" width="6" height="7.64" rx="1.5" fill="#0ecb81" /><line x1="136.41" y1="333.97" x2="136.41" y2="350.95" stroke="#0ecb81" stroke-width="1.4" /><rect x="133.41" y="335.67" width="6" height="9.34" rx="1.5" fill="#0ecb81" /><line x1="147.14" y1="335.67" x2="147.14" y2="344.16" stroke="#f6465d" stroke-width="1.4" /><rect x="144.14" y="336.52" width="6" height="5.09" rx="1.5" fill="#f6465d" /><line x1="157.87" y1="333.12" x2="157.87" y2="345.01" stroke="#f6465d" stroke-width="1.4" /><rect x="154.87" y="342.46" width="6" height="2.00" rx="1.5" fill="#f6465d" /><line x1="168.61" y1="342.46" x2="168.61" y2="350.10" stroke="#0ecb81" stroke-width="1.4" /><rect x="165.61" y="343.31" width="6" height="2.00" rx="1.5" fill="#0ecb81" /><line x1="179.34" y1="315.29" x2="179.34" y2="349.25" stroke="#0ecb81" stroke-width="1.4" /><rect x="176.34" y="340.76" width="6" height="2.55" rx="1.5" fill="#0ecb81" /><line x1="190.08" y1="339.06" x2="190.08" y2="357.75" stroke="#f6465d" stroke-width="1.4" /><rect x="187.08" y="340.76" width="6" height="16.13" rx="1.5" fill="#f6465d" /><line x1="200.81" y1="352.65" x2="200.81" y2="366.24" stroke="#f6465d" stroke-width="1.4" /><rect x="197.81" y="356.90" width="6" height="2.00" rx="1.5" fill="#f6465d" /><line x1="211.54" y1="349.25" x2="211.54" y2="367.09" stroke="#f6465d" stroke-width="1.4" /><rect x="208.54" y="358.59" width="6" height="3.40" rx="1.5" fill="#f6465d" /><line x1="222.28" y1="353.50" x2="222.28" y2="362.84" stroke="#0ecb81" stroke-width="1.4" /><rect x="219.28" y="356.05" width="6" height="6.79" rx="1.5" fill="#0ecb81" /><line x1="233.01" y1="348.41" x2="233.01" y2="361.14" stroke="#0ecb81" stroke-width="1.4" /><rect x="230.01" y="355.20" width="6" height="2.00" rx="1.5" fill="#0ecb81" /><line x1="243.75" y1="350.95" x2="243.75" y2="369.63" stroke="#f6465d" stroke-width="1.4" /><rect x="240.75" y="355.20" width="6" height="11.89" rx="1.5" fill="#f6465d" /><line x1="254.48" y1="361.99" x2="254.48" y2="390.01" stroke="#f6465d" stroke-width="1.4" /><rect x="251.48" y="367.09" width="6" height="22.08" rx="1.5" fill="#f6465d" /><line x1="265.22" y1="384.92" x2="265.22" y2="439.26" stroke="#f6465d" stroke-width="1.4" /><rect x="262.22" y="390.01" width="6" height="45.00" rx="1.5" fill="#f6465d" /><line x1="275.95" y1="418.03" x2="275.95" y2="447.75" stroke="#0ecb81" stroke-width="1.4" /><rect x="272.95" y="420.58" width="6" height="15.28" rx="1.5" fill="#0ecb81" /><line x1="286.68" y1="408.69" x2="286.68" y2="438.41" stroke="#f6465d" stroke-width="1.4" /><rect x="283.68" y="421.43" width="6" height="15.28" rx="1.5" fill="#f6465d" /><line x1="297.42" y1="421.43" x2="297.42" y2="449.45" stroke="#f6465d" stroke-width="1.4" /><rect x="294.42" y="435.87" width="6" height="12.74" rx="1.5" fill="#f6465d" /><line x1="308.15" y1="413.79" x2="308.15" y2="452.00" stroke="#0ecb81" stroke-width="1.4" /><rect x="305.15" y="414.64" width="6" height="33.97" rx="1.5" fill="#0ecb81" /><line x1="318.89" y1="390.01" x2="318.89" y2="415.49" stroke="#0ecb81" stroke-width="1.4" /><rect x="315.89" y="390.86" width="6" height="23.78" rx="1.5" fill="#0ecb81" /><line x1="329.62" y1="373.03" x2="329.62" y2="412.09" stroke="#f6465d" stroke-width="1.4" /><rect x="326.62" y="390.86" width="6" height="16.98" rx="1.5" fill="#f6465d" /><line x1="340.35" y1="395.11" x2="340.35" y2="417.19" stroke="#0ecb81" stroke-width="1.4" /><rect x="337.35" y="400.20" width="6" height="8.49" rx="1.5" fill="#0ecb81" /><line x1="351.09" y1="396.81" x2="351.09" y2="410.39" stroke="#f6465d" stroke-width="1.4" /><rect x="348.09" y="401.05" width="6" height="4.25" rx="1.5" fill="#f6465d" /><line x1="361.82" y1="403.60" x2="361.82" y2="415.49" stroke="#f6465d" stroke-width="1.4" /><rect x="358.82" y="405.30" width="6" height="7.64" rx="1.5" fill="#f6465d" /><line x1="372.56" y1="409.54" x2="372.56" y2="434.17" stroke="#f6465d" stroke-width="1.4" /><rect x="369.56" y="412.94" width="6" height="4.25" rx="1.5" fill="#f6465d" /><line x1="383.29" y1="343.31" x2="383.29" y2="425.68" stroke="#0ecb81" stroke-width="1.4" /><rect x="380.29" y="350.95" width="6" height="67.08" rx="1.5" fill="#0ecb81" /><line x1="394.03" y1="312.74" x2="394.03" y2="369.63" stroke="#f6465d" stroke-width="1.4" /><rect x="391.03" y="350.10" width="6" height="5.09" rx="1.5" fill="#f6465d" /><line x1="404.76" y1="353.50" x2="404.76" y2="383.22" stroke="#f6465d" stroke-width="1.4" /><rect x="401.76" y="355.20" width="6" height="20.38" rx="1.5" fill="#f6465d" /><line x1="415.49" y1="350.95" x2="415.49" y2="377.28" stroke="#0ecb81" stroke-width="1.4" /><rect x="412.49" y="356.05" width="6" height="20.38" rx="1.5" fill="#0ecb81" /><line x1="426.23" y1="351.80" x2="426.23" y2="372.18" stroke="#f6465d" stroke-width="1.4" /><rect x="423.23" y="356.05" width="6" height="11.04" rx="1.5" fill="#f6465d" /><line x1="436.96" y1="350.95" x2="436.96" y2="373.03" stroke="#f6465d" stroke-width="1.4" /><rect x="433.96" y="367.94" width="6" height="2.00" rx="1.5" fill="#f6465d" /><line x1="447.70" y1="368.78" x2="447.70" y2="390.86" stroke="#f6465d" stroke-width="1.4" /><rect x="444.70" y="368.78" width="6" height="19.53" rx="1.5" fill="#f6465d" /><line x1="458.43" y1="362.84" x2="458.43" y2="390.01" stroke="#0ecb81" stroke-width="1.4" /><rect x="455.43" y="366.24" width="6" height="22.08" rx="1.5" fill="#0ecb81" /><line x1="469.16" y1="364.54" x2="469.16" y2="384.07" stroke="#f6465d" stroke-width="1.4" /><rect x="466.16" y="365.39" width="6" height="2.00" rx="1.5" fill="#f6465d" /><line x1="479.90" y1="352.65" x2="479.90" y2="370.48" stroke="#0ecb81" stroke-width="1.4" /><rect x="476.90" y="355.20" width="6" height="11.89" rx="1.5" fill="#0ecb81" /><line x1="490.63" y1="350.10" x2="490.63" y2="367.09" stroke="#f6465d" stroke-width="1.4" /><rect x="487.63" y="354.35" width="6" height="6.79" rx="1.5" fill="#f6465d" /><line x1="501.37" y1="356.05" x2="501.37" y2="372.18" stroke="#f6465d" stroke-width="1.4" /><rect x="498.37" y="361.99" width="6" height="6.79" rx="1.5" fill="#f6465d" /><line x1="512.10" y1="364.54" x2="512.10" y2="375.58" stroke="#f6465d" stroke-width="1.4" /><rect x="509.10" y="369.63" width="6" height="2.00" rx="1.5" fill="#f6465d" /><line x1="522.84" y1="347.56" x2="522.84" y2="370.48" stroke="#0ecb81" stroke-width="1.4" /><rect x="519.84" y="360.29" width="6" height="10.19" rx="1.5" fill="#0ecb81" /><line x1="533.57" y1="356.90" x2="533.57" y2="371.33" stroke="#f6465d" stroke-width="1.4" /><rect x="530.57" y="361.14" width="6" height="5.09" rx="1.5" fill="#f6465d" /><line x1="544.30" y1="366.24" x2="544.30" y2="373.88" stroke="#f6465d" stroke-width="1.4" /><rect x="541.30" y="366.24" width="6" height="6.79" rx="1.5" fill="#f6465d" /><line x1="555.04" y1="346.71" x2="555.04" y2="374.73" stroke="#0ecb81" stroke-width="1.4" /><rect x="552.04" y="363.69" width="6" height="9.34" rx="1.5" fill="#0ecb81" /><line x1="565.77" y1="362.84" x2="565.77" y2="397.66" stroke="#f6465d" stroke-width="1.4" /><rect x="562.77" y="362.84" width="6" height="32.27" rx="1.5" fill="#f6465d" /><line x1="576.51" y1="373.03" x2="576.51" y2="395.96" stroke="#0ecb81" stroke-width="1.4" /><rect x="573.51" y="374.73" width="6" height="20.38" rx="1.5" fill="#0ecb81" /><line x1="587.24" y1="361.99" x2="587.24" y2="378.97" stroke="#f6465d" stroke-width="1.4" /><rect x="584.24" y="373.03" width="6" height="2.00" rx="1.5" fill="#f6465d" /><line x1="597.97" y1="364.54" x2="597.97" y2="374.73" stroke="#0ecb81" stroke-width="1.4" /><rect x="594.97" y="368.78" width="6" height="5.09" rx="1.5" fill="#0ecb81" /><line x1="608.71" y1="345.86" x2="608.71" y2="376.43" stroke="#0ecb81" stroke-width="1.4" /><rect x="605.71" y="363.69" width="6" height="4.25" rx="1.5" fill="#0ecb81" /><line x1="619.44" y1="346.71" x2="619.44" y2="365.39" stroke="#0ecb81" stroke-width="1.4" /><rect x="616.44" y="356.05" width="6" height="7.64" rx="1.5" fill="#0ecb81" /><line x1="630.18" y1="352.65" x2="630.18" y2="377.28" stroke="#f6465d" stroke-width="1.4" /><rect x="627.18" y="356.05" width="6" height="12.74" rx="1.5" fill="#f6465d" /><line x1="640.91" y1="367.94" x2="640.91" y2="383.22" stroke="#f6465d" stroke-width="1.4" /><rect x="637.91" y="369.63" width="6" height="11.04" rx="1.5" fill="#f6465d" /><line x1="651.65" y1="375.58" x2="651.65" y2="384.92" stroke="#0ecb81" stroke-width="1.4" /><rect x="648.65" y="379.82" width="6" height="2.00" rx="1.5" fill="#0ecb81" /><line x1="662.38" y1="345.01" x2="662.38" y2="380.67" stroke="#0ecb81" stroke-width="1.4" /><rect x="659.38" y="365.39" width="6" height="14.44" rx="1.5" fill="#0ecb81" /><line x1="673.11" y1="341.61" x2="673.11" y2="375.58" stroke="#0ecb81" stroke-width="1.4" /><rect x="670.11" y="354.35" width="6" height="11.04" rx="1.5" fill="#0ecb81" /><line x1="683.85" y1="350.10" x2="683.85" y2="374.73" stroke="#f6465d" stroke-width="1.4" /><rect x="680.85" y="355.20" width="6" height="3.40" rx="1.5" fill="#f6465d" /><line x1="694.58" y1="294.06" x2="694.58" y2="360.29" stroke="#0ecb81" stroke-width="1.4" /><rect x="691.58" y="305.10" width="6" height="54.34" rx="1.5" fill="#0ecb81" /><line x1="705.32" y1="261.79" x2="705.32" y2="305.95" stroke="#0ecb81" stroke-width="1.4" /><rect x="702.32" y="266.89" width="6" height="38.21" rx="1.5" fill="#0ecb81" /><line x1="716.05" y1="234.62" x2="716.05" y2="272.83" stroke="#0ecb81" stroke-width="1.4" /><rect x="713.05" y="236.32" width="6" height="29.72" rx="1.5" fill="#0ecb81" /><line x1="726.78" y1="198.96" x2="726.78" y2="242.26" stroke="#0ecb81" stroke-width="1.4" /><rect x="723.78" y="205.75" width="6" height="28.87" rx="1.5" fill="#0ecb81" /><line x1="737.52" y1="159.90" x2="737.52" y2="206.60" stroke="#0ecb81" stroke-width="1.4" /><rect x="734.52" y="176.88" width="6" height="28.87" rx="1.5" fill="#0ecb81" /><line x1="748.25" y1="153.10" x2="748.25" y2="178.58" stroke="#0ecb81" stroke-width="1.4" /><rect x="745.25" y="153.10" width="6" height="23.78" rx="1.5" fill="#0ecb81" /><line x1="758.99" y1="79.23" x2="758.99" y2="153.95" stroke="#0ecb81" stroke-width="1.4" /><rect x="755.99" y="106.40" width="6" height="46.70" rx="1.5" fill="#0ecb81" /><line x1="769.72" y1="87.72" x2="769.72" y2="136.12" stroke="#f6465d" stroke-width="1.4" /><rect x="766.72" y="106.40" width="6" height="2.55" rx="1.5" fill="#f6465d" /><line x1="780.46" y1="80.08" x2="780.46" y2="119.99" stroke="#0ecb81" stroke-width="1.4" /><rect x="777.46" y="83.47" width="6" height="24.63" rx="1.5" fill="#0ecb81" /><line x1="791.19" y1="79.23" x2="791.19" y2="128.48" stroke="#f6465d" stroke-width="1.4" /><rect x="788.19" y="82.63" width="6" height="40.76" rx="1.5" fill="#f6465d" /><line x1="801.92" y1="116.59" x2="801.92" y2="159.05" stroke="#f6465d" stroke-width="1.4" /><rect x="798.92" y="124.23" width="6" height="24.63" rx="1.5" fill="#f6465d" /><line x1="812.66" y1="141.22" x2="812.66" y2="170.09" stroke="#0ecb81" stroke-width="1.4" /><rect x="809.66" y="141.22" width="6" height="6.79" rx="1.5" fill="#0ecb81" /><line x1="823.39" y1="127.63" x2="823.39" y2="154.80" stroke="#f6465d" stroke-width="1.4" /><rect x="820.39" y="142.06" width="6" height="2.00" rx="1.5" fill="#f6465d" /><line x1="834.13" y1="128.48" x2="834.13" y2="161.59" stroke="#f6465d" stroke-width="1.4" /><rect x="831.13" y="143.76" width="6" height="10.19" rx="1.5" fill="#f6465d" /><line x1="844.86" y1="58.00" x2="844.86" y2="158.20" stroke="#0ecb81" stroke-width="1.4" /><rect x="841.86" y="86.02" width="6" height="69.63" rx="1.5" fill="#0ecb81" /><line x1="855.59" y1="70.74" x2="855.59" y2="114.04" stroke="#f6465d" stroke-width="1.4" /><rect x="852.59" y="86.02" width="6" height="2.55" rx="1.5" fill="#f6465d" /><line x1="866.33" y1="67.34" x2="866.33" y2="104.70" stroke="#f6465d" stroke-width="1.4" /><rect x="863.33" y="88.57" width="6" height="11.04" rx="1.5" fill="#f6465d" /><line x1="877.06" y1="63.94" x2="877.06" y2="100.46" stroke="#0ecb81" stroke-width="1.4" /><rect x="874.06" y="80.08" width="6" height="19.53" rx="1.5" fill="#0ecb81" /><line x1="887.80" y1="60.55" x2="887.80" y2="89.42" stroke="#f6465d" stroke-width="1.4" /><rect x="884.80" y="80.08" width="6" height="6.79" rx="1.5" fill="#f6465d" /><line x1="898.53" y1="78.38" x2="898.53" y2="106.40" stroke="#0ecb81" stroke-width="1.4" /><rect x="895.53" y="83.47" width="6" height="3.40" rx="1.5" fill="#0ecb81" /><line x1="909.27" y1="75.83" x2="909.27" y2="108.95" stroke="#f6465d" stroke-width="1.4" /><rect x="906.27" y="83.47" width="6" height="6.79" rx="1.5" fill="#f6465d" /><line x1="920.00" y1="80.93" x2="920.00" y2="98.76" stroke="#f6465d" stroke-width="1.4" /><rect x="917.00" y="89.42" width="6" height="2.55" rx="1.5" fill="#f6465d" />
  <polyline points="372.56,434.17 394.03,312.74 447.70,390.86 555.04,346.71 565.77,397.66" fill="none" stroke="#2fc273" stroke-width="4" stroke-linecap="round" stroke-linejoin="round" />
  <circle cx="372.56" cy="434.17" r="5.5" fill="#2fc273" fill-opacity="0.15" stroke="#2fc273" stroke-width="2" /><text x="372.56" y="422.17" fill="#f3f4f6" font-size="15" font-weight="700" text-anchor="middle">X</text><circle cx="394.03" cy="312.74" r="5.5" fill="#2fc273" fill-opacity="0.15" stroke="#2fc273" stroke-width="2" /><text x="394.03" y="300.74" fill="#f3f4f6" font-size="15" font-weight="700" text-anchor="middle">A</text><circle cx="447.70" cy="390.86" r="5.5" fill="#2fc273" fill-opacity="0.15" stroke="#2fc273" stroke-width="2" /><text x="447.70" y="378.86" fill="#f3f4f6" font-size="15" font-weight="700" text-anchor="middle">B</text><circle cx="555.04" cy="346.71" r="5.5" fill="#2fc273" fill-opacity="0.15" stroke="#2fc273" stroke-width="2" /><text x="555.04" y="334.71" fill="#f3f4f6" font-size="15" font-weight="700" text-anchor="middle">C</text><circle cx="565.77" cy="397.66" r="5.5" fill="#2fc273" fill-opacity="0.15" stroke="#2fc273" stroke-width="2" /><text x="565.77" y="385.66" fill="#f3f4f6" font-size="15" font-weight="700" text-anchor="middle">D</text>
  <text x="56" y="492" fill="#8ba0b5" font-size="18">일반 완성 · TP1 0.61279 · TP2 0.61421 · SL 0.60864</text>
</svg>
