<svg xmlns="http://www.w3.org/2000/svg" width="960" height="540" viewBox="0 0 960 540">
  <rect width="960" height="540" rx="24" fill="#0b1220" />
  <rect x="28" y="28" width="904" height="484" rx="22" fill="#111827" stroke="#1f2937" />
  <text x="56" y="74" fill="#f3f4f6" font-size="34" font-weight="700">VVVUSDT · AB=CD</text>
  <text x="904" y="74" fill="#8ba0b5" font-size="20" text-anchor="end">Bullish (매수) · Score 87.9</text>
  <line x1="72" y1="58" x2="920" y2="58" stroke="#223045" stroke-width="1" stroke-dasharray="4 8" /><line x1="72" y1="156" x2="920" y2="156" stroke="#223045" stroke-width="1" stroke-dasharray="4 8" /><line x1="72" y1="255" x2="920" y2="255" stroke="#223045" stroke-width="1" stroke-dasharray="4 8" /><line x1="72" y1="353" x2="920" y2="353" stroke="#223045" stroke-width="1" stroke-dasharray="4 8" /><line x1="72" y1="452" x2="920" y2="452" stroke="#223045" stroke-width="1" stroke-dasharray="4 8" />
  <rect x="849.06" y="350.48" width="84" height="186.61" fill="#fbbf24" fill-opacity="0.12" stroke="#fbbf24" stroke-width="1.5" stroke-dasharray="6 6" />
  <line x1="72.00" y1="128.10" x2="72.00" y2="211.49" stroke="#0ecb81" stroke-width="1.4" /><rect x="69.00" y="134.14" width="6" height="10.88" rx="1.5" fill="#0ecb81" /><line x1="82.73" y1="120.85" x2="82.73" y2="170.40" stroke="#f6465d" stroke-width="1.4" /><rect x="79.73" y="134.14" width="6" height="7.25" rx="1.5" fill="#f6465d" /><line x1="93.47" y1="85.80" x2="93.47" y2="160.73" stroke="#0ecb81" stroke-width="1.4" /><rect x="90.47" y="113.60" width="6" height="25.38" rx="1.5" fill="#0ecb81" /><line x1="104.20" y1="91.84" x2="104.20" y2="145.02" stroke="#f6465d" stroke-width="1.4" /><rect x="101.20" y="114.80" width="6" height="9.67" rx="1.5" fill="#f6465d" /><line x1="114.94" y1="125.68" x2="114.94" y2="224.79" stroke="#f6465d" stroke-width="1.4" /><rect x="111.94" y="125.68" width="6" height="71.31" rx="1.5" fill="#f6465d" /><line x1="125.67" y1="163.15" x2="125.67" y2="204.24" stroke="#0ecb81" stroke-width="1.4" /><rect x="122.67" y="170.40" width="6" height="27.80" rx="1.5" fill="#0ecb81" /><line x1="136.41" y1="155.90" x2="136.41" y2="225.99" stroke="#f6465d" stroke-width="1.4" /><rect x="133.41" y="170.40" width="6" height="44.72" rx="1.5" fill="#f6465d" /><line x1="147.14" y1="190.94" x2="147.14" y2="218.74" stroke="#0ecb81" stroke-width="1.4" /><rect x="144.14" y="201.82" width="6" height="13.29" rx="1.5" fill="#0ecb81" /><line x1="157.87" y1="159.52" x2="157.87" y2="224.79" stroke="#0ecb81" stroke-width="1.4" /><rect x="154.87" y="175.23" width="6" height="26.59" rx="1.5" fill="#0ecb81" /><line x1="168.61" y1="158.31" x2="168.61" y2="219.95" stroke="#f6465d" stroke-width="1.4" /><rect x="165.61" y="174.02" width="6" height="43.51" rx="1.5" fill="#f6465d" /><line x1="179.34" y1="193.36" x2="179.34" y2="259.83" stroke="#f6465d" stroke-width="1.4" /><rect x="176.34" y="218.74" width="6" height="3.63" rx="1.5" fill="#f6465d" /><line x1="190.08" y1="166.77" x2="190.08" y2="258.63" stroke="#0ecb81" stroke-width="1.4" /><rect x="187.08" y="184.90" width="6" height="36.26" rx="1.5" fill="#0ecb81" /><line x1="200.81" y1="178.86" x2="200.81" y2="259.83" stroke="#f6465d" stroke-width="1.4" /><rect x="197.81" y="184.90" width="6" height="56.80" rx="1.5" fill="#f6465d" /><line x1="211.54" y1="213.91" x2="211.54" y2="291.26" stroke="#f6465d" stroke-width="1.4" /><rect x="208.54" y="240.50" width="6" height="9.67" rx="1.5" fill="#f6465d" /><line x1="222.28" y1="193.36" x2="222.28" y2="281.59" stroke="#0ecb81" stroke-width="1.4" /><rect x="219.28" y="206.66" width="6" height="43.51" rx="1.5" fill="#0ecb81" /><line x1="233.01" y1="187.32" x2="233.01" y2="267.09" stroke="#f6465d" stroke-width="1.4" /><rect x="230.01" y="207.87" width="6" height="27.80" rx="1.5" fill="#f6465d" /><line x1="243.75" y1="221.16" x2="243.75" y2="265.88" stroke="#0ecb81" stroke-width="1.4" /><rect x="240.75" y="225.99" width="6" height="9.67" rx="1.5" fill="#0ecb81" /><line x1="254.48" y1="227.20" x2="254.48" y2="252.58" stroke="#f6465d" stroke-width="1.4" /><rect x="251.48" y="227.20" width="6" height="15.71" rx="1.5" fill="#f6465d" /><line x1="265.22" y1="180.07" x2="265.22" y2="282.80" stroke="#0ecb81" stroke-width="1.4" /><rect x="262.22" y="227.20" width="6" height="15.71" rx="1.5" fill="#0ecb81" /><line x1="275.95" y1="213.91" x2="275.95" y2="242.91" stroke="#f6465d" stroke-width="1.4" /><rect x="272.95" y="225.99" width="6" height="3.63" rx="1.5" fill="#f6465d" /><line x1="286.68" y1="201.82" x2="286.68" y2="236.87" stroke="#0ecb81" stroke-width="1.4" /><rect x="283.68" y="217.53" width="6" height="10.88" rx="1.5" fill="#0ecb81" /><line x1="297.42" y1="211.49" x2="297.42" y2="246.54" stroke="#f6465d" stroke-width="1.4" /><rect x="294.42" y="216.33" width="6" height="30.21" rx="1.5" fill="#f6465d" /><line x1="308.15" y1="189.74" x2="308.15" y2="248.96" stroke="#0ecb81" stroke-width="1.4" /><rect x="305.15" y="201.82" width="6" height="44.72" rx="1.5" fill="#0ecb81" /><line x1="318.89" y1="195.78" x2="318.89" y2="255.00" stroke="#f6465d" stroke-width="1.4" /><rect x="315.89" y="201.82" width="6" height="29.01" rx="1.5" fill="#f6465d" /><line x1="329.62" y1="232.04" x2="329.62" y2="279.17" stroke="#f6465d" stroke-width="1.4" /><rect x="326.62" y="232.04" width="6" height="42.30" rx="1.5" fill="#f6465d" /><line x1="340.35" y1="259.83" x2="340.35" y2="379.48" stroke="#f6465d" stroke-width="1.4" /><rect x="337.35" y="275.55" width="6" height="72.52" rx="1.5" fill="#f6465d" /><line x1="351.09" y1="339.60" x2="351.09" y2="402.45" stroke="#f6465d" stroke-width="1.4" /><rect x="348.09" y="346.85" width="6" height="44.72" rx="1.5" fill="#f6465d" /><line x1="361.82" y1="368.61" x2="361.82" y2="408.49" stroke="#f6465d" stroke-width="1.4" /><rect x="358.82" y="390.36" width="6" height="8.46" rx="1.5" fill="#f6465d" /><line x1="372.56" y1="392.78" x2="372.56" y2="431.45" stroke="#f6465d" stroke-width="1.4" /><rect x="369.56" y="397.61" width="6" height="20.55" rx="1.5" fill="#f6465d" /><line x1="383.29" y1="372.23" x2="383.29" y2="419.37" stroke="#0ecb81" stroke-width="1.4" /><rect x="380.29" y="385.53" width="6" height="33.84" rx="1.5" fill="#0ecb81" /><line x1="394.03" y1="366.19" x2="394.03" y2="420.58" stroke="#f6465d" stroke-width="1.4" /><rect x="391.03" y="385.53" width="6" height="13.29" rx="1.5" fill="#f6465d" /><line x1="404.76" y1="398.82" x2="404.76" y2="442.33" stroke="#f6465d" stroke-width="1.4" /><rect x="401.76" y="398.82" width="6" height="27.80" rx="1.5" fill="#f6465d" /><line x1="415.49" y1="389.15" x2="415.49" y2="430.25" stroke="#0ecb81" stroke-width="1.4" /><rect x="412.49" y="414.53" width="6" height="12.09" rx="1.5" fill="#0ecb81" /><line x1="426.23" y1="384.32" x2="426.23" y2="420.58" stroke="#0ecb81" stroke-width="1.4" /><rect x="423.23" y="406.07" width="6" height="9.67" rx="1.5" fill="#0ecb81" /><line x1="436.96" y1="390.36" x2="436.96" y2="424.20" stroke="#0ecb81" stroke-width="1.4" /><rect x="433.96" y="406.07" width="6" height="2.00" rx="1.5" fill="#0ecb81" /><line x1="447.70" y1="395.20" x2="447.70" y2="421.79" stroke="#0ecb81" stroke-width="1.4" /><rect x="444.70" y="403.66" width="6" height="3.63" rx="1.5" fill="#0ecb81" /><line x1="458.43" y1="400.03" x2="458.43" y2="424.20" stroke="#f6465d" stroke-width="1.4" /><rect x="455.43" y="403.66" width="6" height="7.25" rx="1.5" fill="#f6465d" /><line x1="469.16" y1="402.45" x2="469.16" y2="452.00" stroke="#f6465d" stroke-width="1.4" /><rect x="466.16" y="412.12" width="6" height="3.63" rx="1.5" fill="#f6465d" /><line x1="479.90" y1="393.99" x2="479.90" y2="442.33" stroke="#f6465d" stroke-width="1.4" /><rect x="476.90" y="416.95" width="6" height="7.25" rx="1.5" fill="#f6465d" /><line x1="490.63" y1="395.20" x2="490.63" y2="436.29" stroke="#0ecb81" stroke-width="1.4" /><rect x="487.63" y="410.91" width="6" height="13.29" rx="1.5" fill="#0ecb81" /><line x1="501.37" y1="239.29" x2="501.37" y2="420.58" stroke="#0ecb81" stroke-width="1.4" /><rect x="498.37" y="281.59" width="6" height="130.53" rx="1.5" fill="#0ecb81" /><line x1="512.10" y1="180.07" x2="512.10" y2="286.42" stroke="#0ecb81" stroke-width="1.4" /><rect x="509.10" y="187.32" width="6" height="95.48" rx="1.5" fill="#0ecb81" /><line x1="522.84" y1="106.34" x2="522.84" y2="211.49" stroke="#f6465d" stroke-width="1.4" /><rect x="519.84" y="188.53" width="6" height="13.29" rx="1.5" fill="#f6465d" /><line x1="533.57" y1="76.13" x2="533.57" y2="217.53" stroke="#0ecb81" stroke-width="1.4" /><rect x="530.57" y="80.96" width="6" height="123.28" rx="1.5" fill="#0ecb81" /><line x1="544.30" y1="58.00" x2="544.30" y2="130.52" stroke="#f6465d" stroke-width="1.4" /><rect x="541.30" y="80.96" width="6" height="8.46" rx="1.5" fill="#f6465d" /><line x1="555.04" y1="84.59" x2="555.04" y2="157.10" stroke="#f6465d" stroke-width="1.4" /><rect x="552.04" y="88.21" width="6" height="39.88" rx="1.5" fill="#f6465d" /><line x1="565.77" y1="74.92" x2="565.77" y2="205.45" stroke="#f6465d" stroke-width="1.4" /><rect x="562.77" y="128.10" width="6" height="67.68" rx="1.5" fill="#f6465d" /><line x1="576.51" y1="164.36" x2="576.51" y2="219.95" stroke="#0ecb81" stroke-width="1.4" /><rect x="573.51" y="178.86" width="6" height="15.71" rx="1.5" fill="#0ecb81" /><line x1="587.24" y1="124.47" x2="587.24" y2="184.90" stroke="#0ecb81" stroke-width="1.4" /><rect x="584.24" y="167.98" width="6" height="10.88" rx="1.5" fill="#0ecb81" /><line x1="597.97" y1="99.09" x2="597.97" y2="201.82" stroke="#0ecb81" stroke-width="1.4" /><rect x="594.97" y="123.26" width="6" height="44.72" rx="1.5" fill="#0ecb81" /><line x1="608.71" y1="76.13" x2="608.71" y2="147.44" stroke="#0ecb81" stroke-width="1.4" /><rect x="605.71" y="106.34" width="6" height="15.71" rx="1.5" fill="#0ecb81" /><line x1="619.44" y1="100.30" x2="619.44" y2="238.08" stroke="#f6465d" stroke-width="1.4" /><rect x="616.44" y="105.13" width="6" height="93.06" rx="1.5" fill="#f6465d" /><line x1="630.18" y1="186.11" x2="630.18" y2="255.00" stroke="#f6465d" stroke-width="1.4" /><rect x="627.18" y="198.20" width="6" height="38.67" rx="1.5" fill="#f6465d" /><line x1="640.91" y1="180.07" x2="640.91" y2="262.25" stroke="#0ecb81" stroke-width="1.4" /><rect x="637.91" y="206.66" width="6" height="29.01" rx="1.5" fill="#0ecb81" /><line x1="651.65" y1="157.10" x2="651.65" y2="225.99" stroke="#f6465d" stroke-width="1.4" /><rect x="648.65" y="206.66" width="6" height="2.42" rx="1.5" fill="#f6465d" /><line x1="662.38" y1="187.32" x2="662.38" y2="224.79" stroke="#f6465d" stroke-width="1.4" /><rect x="659.38" y="207.87" width="6" height="7.25" rx="1.5" fill="#f6465d" /><line x1="673.11" y1="184.90" x2="673.11" y2="232.04" stroke="#f6465d" stroke-width="1.4" /><rect x="670.11" y="213.91" width="6" height="2.00" rx="1.5" fill="#f6465d" /><line x1="683.85" y1="176.44" x2="683.85" y2="215.12" stroke="#0ecb81" stroke-width="1.4" /><rect x="680.85" y="206.66" width="6" height="8.46" rx="1.5" fill="#0ecb81" /><line x1="694.58" y1="205.45" x2="694.58" y2="331.14" stroke="#f6465d" stroke-width="1.4" /><rect x="691.58" y="207.87" width="6" height="67.68" rx="1.5" fill="#f6465d" /><line x1="705.32" y1="123.26" x2="705.32" y2="284.01" stroke="#0ecb81" stroke-width="1.4" /><rect x="702.32" y="124.47" width="6" height="152.28" rx="1.5" fill="#0ecb81" /><line x1="716.05" y1="95.47" x2="716.05" y2="181.28" stroke="#f6465d" stroke-width="1.4" /><rect x="713.05" y="124.47" width="6" height="37.47" rx="1.5" fill="#f6465d" /><line x1="726.78" y1="154.69" x2="726.78" y2="181.28" stroke="#f6465d" stroke-width="1.4" /><rect x="723.78" y="160.73" width="6" height="12.09" rx="1.5" fill="#f6465d" /><line x1="737.52" y1="140.18" x2="737.52" y2="198.20" stroke="#f6465d" stroke-width="1.4" /><rect x="734.52" y="172.82" width="6" height="2.42" rx="1.5" fill="#f6465d" /><line x1="748.25" y1="161.94" x2="748.25" y2="218.74" stroke="#0ecb81" stroke-width="1.4" /><rect x="745.25" y="167.98" width="6" height="10.88" rx="1.5" fill="#0ecb81" /><line x1="758.99" y1="124.47" x2="758.99" y2="174.02" stroke="#0ecb81" stroke-width="1.4" /><rect x="755.99" y="152.27" width="6" height="13.29" rx="1.5" fill="#0ecb81" /><line x1="769.72" y1="143.81" x2="769.72" y2="215.12" stroke="#f6465d" stroke-width="1.4" /><rect x="766.72" y="149.85" width="6" height="48.34" rx="1.5" fill="#f6465d" /><line x1="780.46" y1="184.90" x2="780.46" y2="259.83" stroke="#f6465d" stroke-width="1.4" /><rect x="777.46" y="196.99" width="6" height="42.30" rx="1.5" fill="#f6465d" /><line x1="791.19" y1="230.83" x2="791.19" y2="274.34" stroke="#f6465d" stroke-width="1.4" /><rect x="788.19" y="239.29" width="6" height="16.92" rx="1.5" fill="#f6465d" /><line x1="801.92" y1="248.96" x2="801.92" y2="297.30" stroke="#f6465d" stroke-width="1.4" /><rect x="798.92" y="257.42" width="6" height="19.34" rx="1.5" fill="#f6465d" /><line x1="812.66" y1="212.70" x2="812.66" y2="277.96" stroke="#0ecb81" stroke-width="1.4" /><rect x="809.66" y="275.55" width="6" height="2.42" rx="1.5" fill="#0ecb81" /><line x1="823.39" y1="251.37" x2="823.39" y2="304.55" stroke="#0ecb81" stroke-width="1.4" /><rect x="820.39" y="261.04" width="6" height="13.29" rx="1.5" fill="#0ecb81" /><line x1="834.13" y1="188.53" x2="834.13" y2="261.04" stroke="#0ecb81" stroke-width="1.4" /><rect x="831.13" y="242.91" width="6" height="16.92" rx="1.5" fill="#0ecb81" /><line x1="844.86" y1="230.83" x2="844.86" y2="292.47" stroke="#f6465d" stroke-width="1.4" /><rect x="841.86" y="242.91" width="6" height="35.05" rx="1.5" fill="#f6465d" /><line x1="855.59" y1="277.96" x2="855.59" y2="367.40" stroke="#f6465d" stroke-width="1.4" /><rect x="852.59" y="279.17" width="6" height="41.09" rx="1.5" fill="#f6465d" /><line x1="866.33" y1="317.85" x2="866.33" y2="383.11" stroke="#f6465d" stroke-width="1.4" /><rect x="863.33" y="321.47" width="6" height="54.39" rx="1.5" fill="#f6465d" /><line x1="877.06" y1="306.97" x2="877.06" y2="437.50" stroke="#0ecb81" stroke-width="1.4" /><rect x="874.06" y="361.36" width="6" height="15.71" rx="1.5" fill="#0ecb81" /><line x1="887.80" y1="270.71" x2="887.80" y2="364.98" stroke="#0ecb81" stroke-width="1.4" /><rect x="884.80" y="288.84" width="6" height="71.31" rx="1.5" fill="#0ecb81" /><line x1="898.53" y1="218.74" x2="898.53" y2="290.05" stroke="#0ecb81" stroke-width="1.4" /><rect x="895.53" y="223.58" width="6" height="66.47" rx="1.5" fill="#0ecb81" /><line x1="909.27" y1="198.20" x2="909.27" y2="246.54" stroke="#f6465d" stroke-width="1.4" /><rect x="906.27" y="222.37" width="6" height="3.63" rx="1.5" fill="#f6465d" /><line x1="920.00" y1="192.15" x2="920.00" y2="255.00" stroke="#0ecb81" stroke-width="1.4" /><rect x="917.00" y="206.66" width="6" height="19.34" rx="1.5" fill="#0ecb81" />
  <polyline points="576.51,219.95 608.71,76.13 694.58,331.14 716.05,95.47 877.06,437.50" fill="none" stroke="#2fc273" stroke-width="4" stroke-linecap="round" stroke-linejoin="round" />
  <circle cx="576.51" cy="219.95" r="5.5" fill="#2fc273" fill-opacity="0.15" stroke="#2fc273" stroke-width="2" /><text x="576.51" y="207.95" fill="#f3f4f6" font-size="15" font-weight="700" text-anchor="middle">X</text><circle cx="608.71" cy="76.13" r="5.5" fill="#2fc273" fill-opacity="0.15" stroke="#2fc273" stroke-width="2" /><text x="608.71" y="64.13" fill="#f3f4f6" font-size="15" font-weight="700" text-anchor="middle">A</text><circle cx="694.58" cy="331.14" r="5.5" fill="#2fc273" fill-opacity="0.15" stroke="#2fc273" stroke-width="2" /><text x="694.58" y="319.14" fill="#f3f4f6" font-size="15" font-weight="700" text-anchor="middle">B</text><circle cx="716.05" cy="95.47" r="5.5" fill="#2fc273" fill-opacity="0.15" stroke="#2fc273" stroke-width="2" /><text x="716.05" y="83.47" fill="#f3f4f6" font-size="15" font-weight="700" text-anchor="middle">C</text><circle cx="877.06" cy="437.50" r="5.5" fill="#2fc273" fill-opacity="0.15" stroke="#2fc273" stroke-width="2" /><text x="877.06" y="425.50" fill="#f3f4f6" font-size="15" font-weight="700" text-anchor="middle">D</text>
  <text x="56" y="492" fill="#8ba0b5" font-size="18">일반 완성 · TP1 6.9951 · TP2 7.0619 · SL 6.8715</text>
</svg>
