<svg xmlns="http://www.w3.org/2000/svg" width="960" height="540" viewBox="0 0 960 540">
  <rect width="960" height="540" rx="24" fill="#0b1220" />
  <rect x="28" y="28" width="904" height="484" rx="22" fill="#111827" stroke="#1f2937" />
  <text x="56" y="74" fill="#f3f4f6" font-size="34" font-weight="700">VVVUSDT · AB=CD</text>
  <text x="904" y="74" fill="#8ba0b5" font-size="20" text-anchor="end">Bearish (매도) · Score 82.2</text>
  <line x1="72" y1="58" x2="920" y2="58" stroke="#223045" stroke-width="1" stroke-dasharray="4 8" /><line x1="72" y1="156" x2="920" y2="156" stroke="#223045" stroke-width="1" stroke-dasharray="4 8" /><line x1="72" y1="255" x2="920" y2="255" stroke="#223045" stroke-width="1" stroke-dasharray="4 8" /><line x1="72" y1="353" x2="920" y2="353" stroke="#223045" stroke-width="1" stroke-dasharray="4 8" /><line x1="72" y1="452" x2="920" y2="452" stroke="#223045" stroke-width="1" stroke-dasharray="4 8" />
  <rect x="677.32" y="49.09" width="84" height="41.64" fill="#fbbf24" fill-opacity="0.12" stroke="#fbbf24" stroke-width="1.5" stroke-dasharray="6 6" />
  <line x1="72.00" y1="311.37" x2="72.00" y2="345.92" stroke="#f6465d" stroke-width="1.4" /><rect x="69.00" y="336.22" width="6" height="2.00" rx="1.5" fill="#f6465d" /><line x1="82.73" y1="326.53" x2="82.73" y2="345.32" stroke="#f6465d" stroke-width="1.4" /><rect x="79.73" y="336.83" width="6" height="3.64" rx="1.5" fill="#f6465d" /><line x1="93.47" y1="325.31" x2="93.47" y2="348.95" stroke="#f6465d" stroke-width="1.4" /><rect x="90.47" y="339.86" width="6" height="2.00" rx="1.5" fill="#f6465d" /><line x1="104.20" y1="321.07" x2="104.20" y2="340.47" stroke="#0ecb81" stroke-width="1.4" /><rect x="101.20" y="336.22" width="6" height="4.24" rx="1.5" fill="#0ecb81" /><line x1="114.94" y1="335.62" x2="114.94" y2="398.66" stroke="#f6465d" stroke-width="1.4" /><rect x="111.94" y="336.83" width="6" height="33.94" rx="1.5" fill="#f6465d" /><line x1="125.67" y1="294.40" x2="125.67" y2="375.02" stroke="#0ecb81" stroke-width="1.4" /><rect x="122.67" y="295.01" width="6" height="76.38" rx="1.5" fill="#0ecb81" /><line x1="136.41" y1="280.46" x2="136.41" y2="323.50" stroke="#f6465d" stroke-width="1.4" /><rect x="133.41" y="295.01" width="6" height="18.79" rx="1.5" fill="#f6465d" /><line x1="147.14" y1="310.16" x2="147.14" y2="323.50" stroke="#f6465d" stroke-width="1.4" /><rect x="144.14" y="313.19" width="6" height="6.06" rx="1.5" fill="#f6465d" /><line x1="157.87" y1="302.89" x2="157.87" y2="331.98" stroke="#f6465d" stroke-width="1.4" /><rect x="154.87" y="319.25" width="6" height="2.00" rx="1.5" fill="#f6465d" /><line x1="168.61" y1="313.80" x2="168.61" y2="342.29" stroke="#0ecb81" stroke-width="1.4" /><rect x="165.61" y="316.83" width="6" height="5.46" rx="1.5" fill="#0ecb81" /><line x1="179.34" y1="295.01" x2="179.34" y2="319.86" stroke="#0ecb81" stroke-width="1.4" /><rect x="176.34" y="308.95" width="6" height="6.67" rx="1.5" fill="#0ecb81" /><line x1="190.08" y1="304.70" x2="190.08" y2="340.47" stroke="#f6465d" stroke-width="1.4" /><rect x="187.08" y="307.74" width="6" height="24.25" rx="1.5" fill="#f6465d" /><line x1="200.81" y1="325.31" x2="200.81" y2="362.90" stroke="#f6465d" stroke-width="1.4" /><rect x="197.81" y="331.38" width="6" height="21.22" rx="1.5" fill="#f6465d" /><line x1="211.54" y1="348.35" x2="211.54" y2="370.17" stroke="#f6465d" stroke-width="1.4" /><rect x="208.54" y="352.59" width="6" height="8.49" rx="1.5" fill="#f6465d" /><line x1="222.28" y1="357.44" x2="222.28" y2="381.69" stroke="#f6465d" stroke-width="1.4" /><rect x="219.28" y="361.68" width="6" height="9.70" rx="1.5" fill="#f6465d" /><line x1="233.01" y1="339.26" x2="233.01" y2="371.99" stroke="#0ecb81" stroke-width="1.4" /><rect x="230.01" y="370.78" width="6" height="2.00" rx="1.5" fill="#0ecb81" /><line x1="243.75" y1="358.65" x2="243.75" y2="385.32" stroke="#0ecb81" stroke-width="1.4" /><rect x="240.75" y="363.50" width="6" height="6.67" rx="1.5" fill="#0ecb81" /><line x1="254.48" y1="327.13" x2="254.48" y2="363.50" stroke="#0ecb81" stroke-width="1.4" /><rect x="251.48" y="354.41" width="6" height="8.49" rx="1.5" fill="#0ecb81" /><line x1="265.22" y1="348.35" x2="265.22" y2="379.26" stroke="#f6465d" stroke-width="1.4" /><rect x="262.22" y="354.41" width="6" height="17.58" rx="1.5" fill="#f6465d" /><line x1="275.95" y1="371.99" x2="275.95" y2="416.84" stroke="#f6465d" stroke-width="1.4" /><rect x="272.95" y="372.59" width="6" height="20.61" rx="1.5" fill="#f6465d" /><line x1="286.68" y1="391.99" x2="286.68" y2="424.72" stroke="#f6465d" stroke-width="1.4" /><rect x="283.68" y="393.81" width="6" height="27.28" rx="1.5" fill="#f6465d" /><line x1="297.42" y1="386.54" x2="297.42" y2="452.00" stroke="#0ecb81" stroke-width="1.4" /><rect x="294.42" y="413.81" width="6" height="7.88" rx="1.5" fill="#0ecb81" /><line x1="308.15" y1="368.35" x2="308.15" y2="415.63" stroke="#0ecb81" stroke-width="1.4" /><rect x="305.15" y="377.44" width="6" height="35.76" rx="1.5" fill="#0ecb81" /><line x1="318.89" y1="342.29" x2="318.89" y2="378.05" stroke="#0ecb81" stroke-width="1.4" /><rect x="315.89" y="344.71" width="6" height="33.34" rx="1.5" fill="#0ecb81" /><line x1="329.62" y1="331.98" x2="329.62" y2="356.23" stroke="#f6465d" stroke-width="1.4" /><rect x="326.62" y="344.10" width="6" height="2.00" rx="1.5" fill="#f6465d" /><line x1="340.35" y1="249.54" x2="340.35" y2="360.47" stroke="#0ecb81" stroke-width="1.4" /><rect x="337.35" y="271.97" width="6" height="73.95" rx="1.5" fill="#0ecb81" /><line x1="351.09" y1="245.30" x2="351.09" y2="296.22" stroke="#0ecb81" stroke-width="1.4" /><rect x="348.09" y="252.58" width="6" height="18.18" rx="1.5" fill="#0ecb81" /><line x1="361.82" y1="250.15" x2="361.82" y2="276.22" stroke="#f6465d" stroke-width="1.4" /><rect x="358.82" y="253.79" width="6" height="19.40" rx="1.5" fill="#f6465d" /><line x1="372.56" y1="251.36" x2="372.56" y2="305.31" stroke="#0ecb81" stroke-width="1.4" /><rect x="369.56" y="271.37" width="6" height="2.00" rx="1.5" fill="#0ecb81" /><line x1="383.29" y1="235.60" x2="383.29" y2="275.00" stroke="#0ecb81" stroke-width="1.4" /><rect x="380.29" y="239.85" width="6" height="30.31" rx="1.5" fill="#0ecb81" /><line x1="394.03" y1="213.78" x2="394.03" y2="265.30" stroke="#f6465d" stroke-width="1.4" /><rect x="391.03" y="240.45" width="6" height="15.76" rx="1.5" fill="#f6465d" /><line x1="404.76" y1="185.90" x2="404.76" y2="267.12" stroke="#0ecb81" stroke-width="1.4" /><rect x="401.76" y="208.93" width="6" height="46.67" rx="1.5" fill="#0ecb81" /><line x1="415.49" y1="198.63" x2="415.49" y2="225.90" stroke="#f6465d" stroke-width="1.4" /><rect x="412.49" y="208.33" width="6" height="3.64" rx="1.5" fill="#f6465d" /><line x1="426.23" y1="201.66" x2="426.23" y2="233.18" stroke="#f6465d" stroke-width="1.4" /><rect x="423.23" y="211.36" width="6" height="21.82" rx="1.5" fill="#f6465d" /><line x1="436.96" y1="224.69" x2="436.96" y2="252.58" stroke="#f6465d" stroke-width="1.4" /><rect x="433.96" y="231.97" width="6" height="9.09" rx="1.5" fill="#f6465d" /><line x1="447.70" y1="241.06" x2="447.70" y2="304.70" stroke="#f6465d" stroke-width="1.4" /><rect x="444.70" y="241.66" width="6" height="49.70" rx="1.5" fill="#f6465d" /><line x1="458.43" y1="265.91" x2="458.43" y2="290.76" stroke="#0ecb81" stroke-width="1.4" /><rect x="455.43" y="268.94" width="6" height="21.82" rx="1.5" fill="#0ecb81" /><line x1="469.16" y1="256.82" x2="469.16" y2="281.06" stroke="#f6465d" stroke-width="1.4" /><rect x="466.16" y="269.55" width="6" height="5.46" rx="1.5" fill="#f6465d" /><line x1="479.90" y1="143.47" x2="479.90" y2="282.88" stroke="#0ecb81" stroke-width="1.4" /><rect x="476.90" y="195.60" width="6" height="79.41" rx="1.5" fill="#0ecb81" /><line x1="490.63" y1="99.22" x2="490.63" y2="207.72" stroke="#0ecb81" stroke-width="1.4" /><rect x="487.63" y="119.22" width="6" height="76.38" rx="1.5" fill="#0ecb81" /><line x1="501.37" y1="119.83" x2="501.37" y2="190.14" stroke="#f6465d" stroke-width="1.4" /><rect x="498.37" y="119.83" width="6" height="23.64" rx="1.5" fill="#f6465d" /><line x1="512.10" y1="125.28" x2="512.10" y2="179.23" stroke="#f6465d" stroke-width="1.4" /><rect x="509.10" y="143.47" width="6" height="32.13" rx="1.5" fill="#f6465d" /><line x1="522.84" y1="130.13" x2="522.84" y2="179.23" stroke="#0ecb81" stroke-width="1.4" /><rect x="519.84" y="149.53" width="6" height="26.67" rx="1.5" fill="#0ecb81" /><line x1="533.57" y1="145.29" x2="533.57" y2="188.93" stroke="#f6465d" stroke-width="1.4" /><rect x="530.57" y="149.53" width="6" height="18.79" rx="1.5" fill="#f6465d" /><line x1="544.30" y1="153.77" x2="544.30" y2="181.05" stroke="#0ecb81" stroke-width="1.4" /><rect x="541.30" y="156.80" width="6" height="12.12" rx="1.5" fill="#0ecb81" /><line x1="555.04" y1="139.83" x2="555.04" y2="162.26" stroke="#0ecb81" stroke-width="1.4" /><rect x="552.04" y="150.74" width="6" height="6.06" rx="1.5" fill="#0ecb81" /><line x1="565.77" y1="150.74" x2="565.77" y2="197.42" stroke="#f6465d" stroke-width="1.4" /><rect x="562.77" y="150.74" width="6" height="44.25" rx="1.5" fill="#f6465d" /><line x1="576.51" y1="168.93" x2="576.51" y2="207.11" stroke="#0ecb81" stroke-width="1.4" /><rect x="573.51" y="172.56" width="6" height="21.82" rx="1.5" fill="#0ecb81" /><line x1="587.24" y1="162.26" x2="587.24" y2="222.27" stroke="#f6465d" stroke-width="1.4" /><rect x="584.24" y="171.96" width="6" height="29.70" rx="1.5" fill="#f6465d" /><line x1="597.97" y1="133.77" x2="597.97" y2="208.33" stroke="#0ecb81" stroke-width="1.4" /><rect x="594.97" y="141.65" width="6" height="60.01" rx="1.5" fill="#0ecb81" /><line x1="608.71" y1="117.40" x2="608.71" y2="153.77" stroke="#0ecb81" stroke-width="1.4" /><rect x="605.71" y="131.34" width="6" height="10.30" rx="1.5" fill="#0ecb81" /><line x1="619.44" y1="121.65" x2="619.44" y2="143.47" stroke="#f6465d" stroke-width="1.4" /><rect x="616.44" y="131.34" width="6" height="3.03" rx="1.5" fill="#f6465d" /><line x1="630.18" y1="131.95" x2="630.18" y2="166.50" stroke="#f6465d" stroke-width="1.4" /><rect x="627.18" y="134.38" width="6" height="31.52" rx="1.5" fill="#f6465d" /><line x1="640.91" y1="158.02" x2="640.91" y2="195.60" stroke="#f6465d" stroke-width="1.4" /><rect x="637.91" y="165.90" width="6" height="16.97" rx="1.5" fill="#f6465d" /><line x1="651.65" y1="149.53" x2="651.65" y2="186.50" stroke="#0ecb81" stroke-width="1.4" /><rect x="648.65" y="160.44" width="6" height="22.43" rx="1.5" fill="#0ecb81" /><line x1="662.38" y1="138.01" x2="662.38" y2="185.29" stroke="#f6465d" stroke-width="1.4" /><rect x="659.38" y="158.62" width="6" height="15.15" rx="1.5" fill="#f6465d" /><line x1="673.11" y1="150.74" x2="673.11" y2="182.87" stroke="#0ecb81" stroke-width="1.4" /><rect x="670.11" y="168.93" width="6" height="5.46" rx="1.5" fill="#0ecb81" /><line x1="683.85" y1="156.80" x2="683.85" y2="186.50" stroke="#0ecb81" stroke-width="1.4" /><rect x="680.85" y="167.11" width="6" height="2.00" rx="1.5" fill="#0ecb81" /><line x1="694.58" y1="118.62" x2="694.58" y2="174.99" stroke="#0ecb81" stroke-width="1.4" /><rect x="691.58" y="130.13" width="6" height="36.37" rx="1.5" fill="#0ecb81" /><line x1="705.32" y1="58.00" x2="705.32" y2="136.19" stroke="#0ecb81" stroke-width="1.4" /><rect x="702.32" y="82.85" width="6" height="47.89" rx="1.5" fill="#0ecb81" /><line x1="716.05" y1="63.46" x2="716.05" y2="170.74" stroke="#f6465d" stroke-width="1.4" /><rect x="713.05" y="82.25" width="6" height="52.13" rx="1.5" fill="#f6465d" /><line x1="726.78" y1="99.82" x2="726.78" y2="162.26" stroke="#f6465d" stroke-width="1.4" /><rect x="723.78" y="134.98" width="6" height="10.30" rx="1.5" fill="#f6465d" /><line x1="737.52" y1="119.22" x2="737.52" y2="165.90" stroke="#f6465d" stroke-width="1.4" /><rect x="734.52" y="145.29" width="6" height="16.37" rx="1.5" fill="#f6465d" /><line x1="748.25" y1="147.10" x2="748.25" y2="203.48" stroke="#f6465d" stroke-width="1.4" /><rect x="745.25" y="161.65" width="6" height="40.01" rx="1.5" fill="#f6465d" /><line x1="758.99" y1="154.98" x2="758.99" y2="246.51" stroke="#f6465d" stroke-width="1.4" /><rect x="755.99" y="201.66" width="6" height="34.55" rx="1.5" fill="#f6465d" /><line x1="769.72" y1="225.90" x2="769.72" y2="273.79" stroke="#f6465d" stroke-width="1.4" /><rect x="766.72" y="236.21" width="6" height="7.88" rx="1.5" fill="#f6465d" /><line x1="780.46" y1="210.14" x2="780.46" y2="244.09" stroke="#0ecb81" stroke-width="1.4" /><rect x="777.46" y="234.39" width="6" height="9.70" rx="1.5" fill="#0ecb81" /><line x1="791.19" y1="225.90" x2="791.19" y2="243.48" stroke="#0ecb81" stroke-width="1.4" /><rect x="788.19" y="227.72" width="6" height="6.06" rx="1.5" fill="#0ecb81" /><line x1="801.92" y1="217.42" x2="801.92" y2="247.12" stroke="#f6465d" stroke-width="1.4" /><rect x="798.92" y="227.72" width="6" height="18.18" rx="1.5" fill="#f6465d" /><line x1="812.66" y1="233.18" x2="812.66" y2="282.28" stroke="#f6465d" stroke-width="1.4" /><rect x="809.66" y="245.91" width="6" height="26.67" rx="1.5" fill="#f6465d" /><line x1="823.39" y1="267.73" x2="823.39" y2="287.73" stroke="#f6465d" stroke-width="1.4" /><rect x="820.39" y="271.97" width="6" height="4.24" rx="1.5" fill="#f6465d" /><line x1="834.13" y1="214.99" x2="834.13" y2="279.85" stroke="#0ecb81" stroke-width="1.4" /><rect x="831.13" y="216.21" width="6" height="60.62" rx="1.5" fill="#0ecb81" /><line x1="844.86" y1="154.98" x2="844.86" y2="227.12" stroke="#0ecb81" stroke-width="1.4" /><rect x="841.86" y="185.29" width="6" height="30.91" rx="1.5" fill="#0ecb81" /><line x1="855.59" y1="174.38" x2="855.59" y2="229.54" stroke="#f6465d" stroke-width="1.4" /><rect x="852.59" y="184.69" width="6" height="32.73" rx="1.5" fill="#f6465d" /><line x1="866.33" y1="206.51" x2="866.33" y2="225.30" stroke="#f6465d" stroke-width="1.4" /><rect x="863.33" y="216.81" width="6" height="2.42" rx="1.5" fill="#f6465d" /><line x1="877.06" y1="148.92" x2="877.06" y2="221.66" stroke="#0ecb81" stroke-width="1.4" /><rect x="874.06" y="152.56" width="6" height="66.68" rx="1.5" fill="#0ecb81" /><line x1="887.80" y1="122.25" x2="887.80" y2="168.93" stroke="#0ecb81" stroke-width="1.4" /><rect x="884.80" y="129.53" width="6" height="23.03" rx="1.5" fill="#0ecb81" /><line x1="898.53" y1="113.77" x2="898.53" y2="144.68" stroke="#f6465d" stroke-width="1.4" /><rect x="895.53" y="128.92" width="6" height="15.76" rx="1.5" fill="#f6465d" /><line x1="909.27" y1="124.07" x2="909.27" y2="169.53" stroke="#f6465d" stroke-width="1.4" /><rect x="906.27" y="144.07" width="6" height="25.46" rx="1.5" fill="#f6465d" /><line x1="920.00" y1="156.20" x2="920.00" y2="171.96" stroke="#0ecb81" stroke-width="1.4" /><rect x="917.00" y="168.32" width="6" height="2.00" rx="1.5" fill="#0ecb81" />
  <polyline points="490.63,99.22 587.24,222.27 608.71,117.40 640.91,195.60 705.32,58.00" fill="none" stroke="#2fc273" stroke-width="4" stroke-linecap="round" stroke-linejoin="round" />
  <circle cx="490.63" cy="99.22" r="5.5" fill="#2fc273" fill-opacity="0.15" stroke="#2fc273" stroke-width="2" /><text x="490.63" y="87.22" fill="#f3f4f6" font-size="15" font-weight="700" text-anchor="middle">X</text><circle cx="587.24" cy="222.27" r="5.5" fill="#2fc273" fill-opacity="0.15" stroke="#2fc273" stroke-width="2" /><text x="587.24" y="210.27" fill="#f3f4f6" font-size="15" font-weight="700" text-anchor="middle">A</text><circle cx="608.71" cy="117.40" r="5.5" fill="#2fc273" fill-opacity="0.15" stroke="#2fc273" stroke-width="2" /><text x="608.71" y="105.40" fill="#f3f4f6" font-size="15" font-weight="700" text-anchor="middle">B</text><circle cx="640.91" cy="195.60" r="5.5" fill="#2fc273" fill-opacity="0.15" stroke="#2fc273" stroke-width="2" /><text x="640.91" y="183.60" fill="#f3f4f6" font-size="15" font-weight="700" text-anchor="middle">C</text><circle cx="705.32" cy="58.00" r="5.5" fill="#2fc273" fill-opacity="0.15" stroke="#2fc273" stroke-width="2" /><text x="705.32" y="46.00" fill="#f3f4f6" font-size="15" font-weight="700" text-anchor="middle">D</text>
  <text x="56" y="492" fill="#8ba0b5" font-size="18">일반 완성 · TP1 7.4503 · TP2 7.3967 · SL 7.5634</text>
</svg>
