<svg xmlns="http://www.w3.org/2000/svg" width="960" height="540" viewBox="0 0 960 540">
  <rect width="960" height="540" rx="24" fill="#0b1220" />
  <rect x="28" y="28" width="904" height="484" rx="22" fill="#111827" stroke="#1f2937" />
  <text x="56" y="74" fill="#f3f4f6" font-size="34" font-weight="700">VVVUSDT · AB=CD</text>
  <text x="904" y="74" fill="#8ba0b5" font-size="20" text-anchor="end">Bearish (매도) · Score 85.2</text>
  <line x1="72" y1="58" x2="920" y2="58" stroke="#223045" stroke-width="1" stroke-dasharray="4 8" /><line x1="72" y1="156" x2="920" y2="156" stroke="#223045" stroke-width="1" stroke-dasharray="4 8" /><line x1="72" y1="255" x2="920" y2="255" stroke="#223045" stroke-width="1" stroke-dasharray="4 8" /><line x1="72" y1="353" x2="920" y2="353" stroke="#223045" stroke-width="1" stroke-dasharray="4 8" /><line x1="72" y1="452" x2="920" y2="452" stroke="#223045" stroke-width="1" stroke-dasharray="4 8" />
  <rect x="333.82" y="122.60" width="84" height="74.07" fill="#fbbf24" fill-opacity="0.12" stroke="#fbbf24" stroke-width="1.5" stroke-dasharray="6 6" />
  <line x1="72.00" y1="76.71" x2="72.00" y2="169.16" stroke="#0ecb81" stroke-width="1.4" /><rect x="69.00" y="84.41" width="6" height="82.54" rx="1.5" fill="#0ecb81" /><line x1="82.73" y1="58.00" x2="82.73" y2="110.83" stroke="#f6465d" stroke-width="1.4" /><rect x="79.73" y="83.31" width="6" height="9.91" rx="1.5" fill="#f6465d" /><line x1="93.47" y1="86.61" x2="93.47" y2="131.74" stroke="#f6465d" stroke-width="1.4" /><rect x="90.47" y="93.22" width="6" height="9.91" rx="1.5" fill="#f6465d" /><line x1="104.20" y1="103.12" x2="104.20" y2="192.27" stroke="#f6465d" stroke-width="1.4" /><rect x="101.20" y="103.12" width="6" height="80.34" rx="1.5" fill="#f6465d" /><line x1="114.94" y1="157.05" x2="114.94" y2="203.27" stroke="#0ecb81" stroke-width="1.4" /><rect x="111.94" y="172.46" width="6" height="12.11" rx="1.5" fill="#0ecb81" /><line x1="125.67" y1="157.05" x2="125.67" y2="232.99" stroke="#0ecb81" stroke-width="1.4" /><rect x="122.67" y="162.55" width="6" height="9.91" rx="1.5" fill="#0ecb81" /><line x1="136.41" y1="150.45" x2="136.41" y2="195.57" stroke="#f6465d" stroke-width="1.4" /><rect x="133.41" y="162.55" width="6" height="6.60" rx="1.5" fill="#f6465d" /><line x1="147.14" y1="118.53" x2="147.14" y2="186.77" stroke="#0ecb81" stroke-width="1.4" /><rect x="144.14" y="143.84" width="6" height="23.11" rx="1.5" fill="#0ecb81" /><line x1="157.87" y1="124.03" x2="157.87" y2="172.46" stroke="#f6465d" stroke-width="1.4" /><rect x="154.87" y="144.94" width="6" height="8.80" rx="1.5" fill="#f6465d" /><line x1="168.61" y1="154.85" x2="168.61" y2="245.09" stroke="#f6465d" stroke-width="1.4" /><rect x="165.61" y="154.85" width="6" height="64.93" rx="1.5" fill="#f6465d" /><line x1="179.34" y1="188.97" x2="179.34" y2="226.39" stroke="#0ecb81" stroke-width="1.4" /><rect x="176.34" y="195.57" width="6" height="25.31" rx="1.5" fill="#0ecb81" /><line x1="190.08" y1="182.36" x2="190.08" y2="246.20" stroke="#f6465d" stroke-width="1.4" /><rect x="187.08" y="195.57" width="6" height="40.72" rx="1.5" fill="#f6465d" /><line x1="200.81" y1="214.28" x2="200.81" y2="239.59" stroke="#0ecb81" stroke-width="1.4" /><rect x="197.81" y="224.18" width="6" height="12.11" rx="1.5" fill="#0ecb81" /><line x1="211.54" y1="185.66" x2="211.54" y2="245.09" stroke="#0ecb81" stroke-width="1.4" /><rect x="208.54" y="199.97" width="6" height="24.21" rx="1.5" fill="#0ecb81" /><line x1="222.28" y1="184.56" x2="222.28" y2="240.69" stroke="#f6465d" stroke-width="1.4" /><rect x="219.28" y="198.87" width="6" height="39.62" rx="1.5" fill="#f6465d" /><line x1="233.01" y1="216.48" x2="233.01" y2="277.01" stroke="#f6465d" stroke-width="1.4" /><rect x="230.01" y="239.59" width="6" height="3.30" rx="1.5" fill="#f6465d" /><line x1="243.75" y1="192.27" x2="243.75" y2="275.91" stroke="#0ecb81" stroke-width="1.4" /><rect x="240.75" y="208.78" width="6" height="33.02" rx="1.5" fill="#0ecb81" /><line x1="254.48" y1="203.27" x2="254.48" y2="277.01" stroke="#f6465d" stroke-width="1.4" /><rect x="251.48" y="208.78" width="6" height="51.73" rx="1.5" fill="#f6465d" /><line x1="265.22" y1="235.19" x2="265.22" y2="305.63" stroke="#f6465d" stroke-width="1.4" /><rect x="262.22" y="259.40" width="6" height="8.80" rx="1.5" fill="#f6465d" /><line x1="275.95" y1="216.48" x2="275.95" y2="296.82" stroke="#0ecb81" stroke-width="1.4" /><rect x="272.95" y="228.59" width="6" height="39.62" rx="1.5" fill="#0ecb81" /><line x1="286.68" y1="210.98" x2="286.68" y2="283.61" stroke="#f6465d" stroke-width="1.4" /><rect x="283.68" y="229.69" width="6" height="25.31" rx="1.5" fill="#f6465d" /><line x1="297.42" y1="241.79" x2="297.42" y2="282.51" stroke="#0ecb81" stroke-width="1.4" /><rect x="294.42" y="246.20" width="6" height="8.80" rx="1.5" fill="#0ecb81" /><line x1="308.15" y1="247.30" x2="308.15" y2="270.41" stroke="#f6465d" stroke-width="1.4" /><rect x="305.15" y="247.30" width="6" height="14.31" rx="1.5" fill="#f6465d" /><line x1="318.89" y1="204.37" x2="318.89" y2="297.92" stroke="#0ecb81" stroke-width="1.4" /><rect x="315.89" y="247.30" width="6" height="14.31" rx="1.5" fill="#0ecb81" /><line x1="329.62" y1="235.19" x2="329.62" y2="261.60" stroke="#f6465d" stroke-width="1.4" /><rect x="326.62" y="246.20" width="6" height="3.30" rx="1.5" fill="#f6465d" /><line x1="340.35" y1="224.18" x2="340.35" y2="256.10" stroke="#0ecb81" stroke-width="1.4" /><rect x="337.35" y="238.49" width="6" height="9.91" rx="1.5" fill="#0ecb81" /><line x1="351.09" y1="232.99" x2="351.09" y2="264.91" stroke="#f6465d" stroke-width="1.4" /><rect x="348.09" y="237.39" width="6" height="27.51" rx="1.5" fill="#f6465d" /><line x1="361.82" y1="213.18" x2="361.82" y2="267.11" stroke="#0ecb81" stroke-width="1.4" /><rect x="358.82" y="224.18" width="6" height="40.72" rx="1.5" fill="#0ecb81" /><line x1="372.56" y1="218.68" x2="372.56" y2="272.61" stroke="#f6465d" stroke-width="1.4" /><rect x="369.56" y="224.18" width="6" height="26.41" rx="1.5" fill="#f6465d" /><line x1="383.29" y1="251.70" x2="383.29" y2="294.62" stroke="#f6465d" stroke-width="1.4" /><rect x="380.29" y="251.70" width="6" height="38.52" rx="1.5" fill="#f6465d" /><line x1="394.03" y1="277.01" x2="394.03" y2="385.97" stroke="#f6465d" stroke-width="1.4" /><rect x="391.03" y="291.32" width="6" height="66.03" rx="1.5" fill="#f6465d" /><line x1="404.76" y1="349.65" x2="404.76" y2="406.88" stroke="#f6465d" stroke-width="1.4" /><rect x="401.76" y="356.25" width="6" height="40.72" rx="1.5" fill="#f6465d" /><line x1="415.49" y1="376.06" x2="415.49" y2="412.38" stroke="#f6465d" stroke-width="1.4" /><rect x="412.49" y="395.87" width="6" height="7.70" rx="1.5" fill="#f6465d" /><line x1="426.23" y1="398.07" x2="426.23" y2="433.29" stroke="#f6465d" stroke-width="1.4" /><rect x="423.23" y="402.47" width="6" height="18.71" rx="1.5" fill="#f6465d" /><line x1="436.96" y1="379.36" x2="436.96" y2="422.28" stroke="#0ecb81" stroke-width="1.4" /><rect x="433.96" y="391.47" width="6" height="30.82" rx="1.5" fill="#0ecb81" /><line x1="447.70" y1="373.86" x2="447.70" y2="423.39" stroke="#f6465d" stroke-width="1.4" /><rect x="444.70" y="391.47" width="6" height="12.11" rx="1.5" fill="#f6465d" /><line x1="458.43" y1="403.58" x2="458.43" y2="443.20" stroke="#f6465d" stroke-width="1.4" /><rect x="455.43" y="403.58" width="6" height="25.31" rx="1.5" fill="#f6465d" /><line x1="469.16" y1="394.77" x2="469.16" y2="432.19" stroke="#0ecb81" stroke-width="1.4" /><rect x="466.16" y="417.88" width="6" height="11.01" rx="1.5" fill="#0ecb81" /><line x1="479.90" y1="390.37" x2="479.90" y2="423.39" stroke="#0ecb81" stroke-width="1.4" /><rect x="476.90" y="410.18" width="6" height="8.80" rx="1.5" fill="#0ecb81" /><line x1="490.63" y1="395.87" x2="490.63" y2="426.69" stroke="#0ecb81" stroke-width="1.4" /><rect x="487.63" y="410.18" width="6" height="2.00" rx="1.5" fill="#0ecb81" /><line x1="501.37" y1="400.27" x2="501.37" y2="424.49" stroke="#0ecb81" stroke-width="1.4" /><rect x="498.37" y="407.98" width="6" height="3.30" rx="1.5" fill="#0ecb81" /><line x1="512.10" y1="404.68" x2="512.10" y2="426.69" stroke="#f6465d" stroke-width="1.4" /><rect x="509.10" y="407.98" width="6" height="6.60" rx="1.5" fill="#f6465d" /><line x1="522.84" y1="406.88" x2="522.84" y2="452.00" stroke="#f6465d" stroke-width="1.4" /><rect x="519.84" y="415.68" width="6" height="3.30" rx="1.5" fill="#f6465d" /><line x1="533.57" y1="399.17" x2="533.57" y2="443.20" stroke="#f6465d" stroke-width="1.4" /><rect x="530.57" y="420.08" width="6" height="6.60" rx="1.5" fill="#f6465d" /><line x1="544.30" y1="400.27" x2="544.30" y2="437.69" stroke="#0ecb81" stroke-width="1.4" /><rect x="541.30" y="414.58" width="6" height="12.11" rx="1.5" fill="#0ecb81" /><line x1="555.04" y1="258.30" x2="555.04" y2="423.39" stroke="#0ecb81" stroke-width="1.4" /><rect x="552.04" y="296.82" width="6" height="118.86" rx="1.5" fill="#0ecb81" /><line x1="565.77" y1="204.37" x2="565.77" y2="301.22" stroke="#0ecb81" stroke-width="1.4" /><rect x="562.77" y="210.98" width="6" height="86.94" rx="1.5" fill="#0ecb81" /><line x1="576.51" y1="137.24" x2="576.51" y2="232.99" stroke="#f6465d" stroke-width="1.4" /><rect x="573.51" y="212.08" width="6" height="12.11" rx="1.5" fill="#f6465d" /><line x1="587.24" y1="109.73" x2="587.24" y2="238.49" stroke="#0ecb81" stroke-width="1.4" /><rect x="584.24" y="114.13" width="6" height="112.26" rx="1.5" fill="#0ecb81" /><line x1="597.97" y1="93.22" x2="597.97" y2="159.25" stroke="#f6465d" stroke-width="1.4" /><rect x="594.97" y="114.13" width="6" height="7.70" rx="1.5" fill="#f6465d" /><line x1="608.71" y1="117.43" x2="608.71" y2="183.46" stroke="#f6465d" stroke-width="1.4" /><rect x="605.71" y="120.73" width="6" height="36.32" rx="1.5" fill="#f6465d" /><line x1="619.44" y1="108.63" x2="619.44" y2="227.49" stroke="#f6465d" stroke-width="1.4" /><rect x="616.44" y="157.05" width="6" height="61.63" rx="1.5" fill="#f6465d" /><line x1="630.18" y1="190.07" x2="630.18" y2="240.69" stroke="#0ecb81" stroke-width="1.4" /><rect x="627.18" y="203.27" width="6" height="14.31" rx="1.5" fill="#0ecb81" /><line x1="640.91" y1="153.75" x2="640.91" y2="208.78" stroke="#0ecb81" stroke-width="1.4" /><rect x="637.91" y="193.37" width="6" height="9.91" rx="1.5" fill="#0ecb81" /><line x1="651.65" y1="130.64" x2="651.65" y2="224.18" stroke="#0ecb81" stroke-width="1.4" /><rect x="648.65" y="152.65" width="6" height="40.72" rx="1.5" fill="#0ecb81" /><line x1="662.38" y1="109.73" x2="662.38" y2="174.66" stroke="#0ecb81" stroke-width="1.4" /><rect x="659.38" y="137.24" width="6" height="14.31" rx="1.5" fill="#0ecb81" /><line x1="673.11" y1="131.74" x2="673.11" y2="257.20" stroke="#f6465d" stroke-width="1.4" /><rect x="670.11" y="136.14" width="6" height="84.74" rx="1.5" fill="#f6465d" /><line x1="683.85" y1="209.88" x2="683.85" y2="272.61" stroke="#f6465d" stroke-width="1.4" /><rect x="680.85" y="220.88" width="6" height="35.22" rx="1.5" fill="#f6465d" /><line x1="694.58" y1="204.37" x2="694.58" y2="279.21" stroke="#0ecb81" stroke-width="1.4" /><rect x="691.58" y="228.59" width="6" height="26.41" rx="1.5" fill="#0ecb81" /><line x1="705.32" y1="183.46" x2="705.32" y2="246.20" stroke="#f6465d" stroke-width="1.4" /><rect x="702.32" y="228.59" width="6" height="2.20" rx="1.5" fill="#f6465d" /><line x1="716.05" y1="210.98" x2="716.05" y2="245.09" stroke="#f6465d" stroke-width="1.4" /><rect x="713.05" y="229.69" width="6" height="6.60" rx="1.5" fill="#f6465d" /><line x1="726.78" y1="208.78" x2="726.78" y2="251.70" stroke="#f6465d" stroke-width="1.4" /><rect x="723.78" y="235.19" width="6" height="2.00" rx="1.5" fill="#f6465d" /><line x1="737.52" y1="201.07" x2="737.52" y2="236.29" stroke="#0ecb81" stroke-width="1.4" /><rect x="734.52" y="228.59" width="6" height="7.70" rx="1.5" fill="#0ecb81" /><line x1="748.25" y1="227.49" x2="748.25" y2="341.94" stroke="#f6465d" stroke-width="1.4" /><rect x="745.25" y="229.69" width="6" height="61.63" rx="1.5" fill="#f6465d" /><line x1="758.99" y1="152.65" x2="758.99" y2="299.02" stroke="#0ecb81" stroke-width="1.4" /><rect x="755.99" y="153.75" width="6" height="138.67" rx="1.5" fill="#0ecb81" /><line x1="769.72" y1="127.34" x2="769.72" y2="205.47" stroke="#f6465d" stroke-width="1.4" /><rect x="766.72" y="153.75" width="6" height="34.12" rx="1.5" fill="#f6465d" /><line x1="780.46" y1="181.26" x2="780.46" y2="205.47" stroke="#f6465d" stroke-width="1.4" /><rect x="777.46" y="186.77" width="6" height="11.01" rx="1.5" fill="#f6465d" /><line x1="791.19" y1="168.06" x2="791.19" y2="220.88" stroke="#f6465d" stroke-width="1.4" /><rect x="788.19" y="197.77" width="6" height="2.20" rx="1.5" fill="#f6465d" /><line x1="801.92" y1="187.87" x2="801.92" y2="239.59" stroke="#0ecb81" stroke-width="1.4" /><rect x="798.92" y="193.37" width="6" height="9.91" rx="1.5" fill="#0ecb81" /><line x1="812.66" y1="153.75" x2="812.66" y2="198.87" stroke="#0ecb81" stroke-width="1.4" /><rect x="809.66" y="179.06" width="6" height="12.11" rx="1.5" fill="#0ecb81" /><line x1="823.39" y1="171.36" x2="823.39" y2="236.29" stroke="#f6465d" stroke-width="1.4" /><rect x="820.39" y="176.86" width="6" height="44.02" rx="1.5" fill="#f6465d" /><line x1="834.13" y1="208.78" x2="834.13" y2="277.01" stroke="#f6465d" stroke-width="1.4" /><rect x="831.13" y="219.78" width="6" height="38.52" rx="1.5" fill="#f6465d" /><line x1="844.86" y1="250.60" x2="844.86" y2="290.22" stroke="#f6465d" stroke-width="1.4" /><rect x="841.86" y="258.30" width="6" height="15.41" rx="1.5" fill="#f6465d" /><line x1="855.59" y1="267.11" x2="855.59" y2="311.13" stroke="#f6465d" stroke-width="1.4" /><rect x="852.59" y="274.81" width="6" height="17.61" rx="1.5" fill="#f6465d" /><line x1="866.33" y1="234.09" x2="866.33" y2="293.52" stroke="#0ecb81" stroke-width="1.4" /><rect x="863.33" y="291.32" width="6" height="2.20" rx="1.5" fill="#0ecb81" /><line x1="877.06" y1="269.31" x2="877.06" y2="317.73" stroke="#0ecb81" stroke-width="1.4" /><rect x="874.06" y="278.11" width="6" height="12.11" rx="1.5" fill="#0ecb81" /><line x1="887.80" y1="212.08" x2="887.80" y2="278.11" stroke="#0ecb81" stroke-width="1.4" /><rect x="884.80" y="261.60" width="6" height="15.41" rx="1.5" fill="#0ecb81" /><line x1="898.53" y1="250.60" x2="898.53" y2="306.73" stroke="#f6465d" stroke-width="1.4" /><rect x="895.53" y="261.60" width="6" height="31.92" rx="1.5" fill="#f6465d" /><line x1="909.27" y1="293.52" x2="909.27" y2="374.96" stroke="#f6465d" stroke-width="1.4" /><rect x="906.27" y="294.62" width="6" height="37.42" rx="1.5" fill="#f6465d" /><line x1="920.00" y1="329.84" x2="920.00" y2="337.54" stroke="#f6465d" stroke-width="1.4" /><rect x="917.00" y="333.14" width="6" height="4.40" rx="1.5" fill="#f6465d" />
  <polyline points="147.14,118.53 265.22,305.63 318.89,204.37 318.89,297.92 361.82,213.18" fill="none" stroke="#2fc273" stroke-width="4" stroke-linecap="round" stroke-linejoin="round" />
  <circle cx="147.14" cy="118.53" r="5.5" fill="#2fc273" fill-opacity="0.15" stroke="#2fc273" stroke-width="2" /><text x="147.14" y="106.53" fill="#f3f4f6" font-size="15" font-weight="700" text-anchor="middle">X</text><circle cx="265.22" cy="305.63" r="5.5" fill="#2fc273" fill-opacity="0.15" stroke="#2fc273" stroke-width="2" /><text x="265.22" y="293.63" fill="#f3f4f6" font-size="15" font-weight="700" text-anchor="middle">A</text><circle cx="318.89" cy="204.37" r="5.5" fill="#2fc273" fill-opacity="0.15" stroke="#2fc273" stroke-width="2" /><text x="318.89" y="192.37" fill="#f3f4f6" font-size="15" font-weight="700" text-anchor="middle">B</text><circle cx="318.89" cy="297.92" r="5.5" fill="#2fc273" fill-opacity="0.15" stroke="#2fc273" stroke-width="2" /><text x="318.89" y="285.92" fill="#f3f4f6" font-size="15" font-weight="700" text-anchor="middle">C</text><circle cx="361.82" cy="213.18" r="5.5" fill="#2fc273" fill-opacity="0.15" stroke="#2fc273" stroke-width="2" /><text x="361.82" y="201.18" fill="#f3f4f6" font-size="15" font-weight="700" text-anchor="middle">D</text>
  <text x="56" y="492" fill="#8ba0b5" font-size="18">일반 완성 · TP1 7.0626 · TP2 7.0444 · SL 7.1141</text>
</svg>
