<svg xmlns="http://www.w3.org/2000/svg" width="960" height="540" viewBox="0 0 960 540">
  <rect width="960" height="540" rx="24" fill="#0b1220" />
  <rect x="28" y="28" width="904" height="484" rx="22" fill="#111827" stroke="#1f2937" />
  <text x="56" y="74" fill="#f3f4f6" font-size="34" font-weight="700">WLDUSDT · AB=CD</text>
  <text x="904" y="74" fill="#8ba0b5" font-size="20" text-anchor="end">Bullish (매수) · Score 82.1</text>
  <line x1="72" y1="58" x2="920" y2="58" stroke="#223045" stroke-width="1" stroke-dasharray="4 8" /><line x1="72" y1="156" x2="920" y2="156" stroke="#223045" stroke-width="1" stroke-dasharray="4 8" /><line x1="72" y1="255" x2="920" y2="255" stroke="#223045" stroke-width="1" stroke-dasharray="4 8" /><line x1="72" y1="353" x2="920" y2="353" stroke="#223045" stroke-width="1" stroke-dasharray="4 8" /><line x1="72" y1="452" x2="920" y2="452" stroke="#223045" stroke-width="1" stroke-dasharray="4 8" />
  <rect x="795.39" y="462.04" width="84" height="56.26" fill="#fbbf24" fill-opacity="0.12" stroke="#fbbf24" stroke-width="1.5" stroke-dasharray="6 6" />
  <line x1="72.00" y1="67.47" x2="72.00" y2="114.83" stroke="#0ecb81" stroke-width="1.4" /><rect x="69.00" y="73.15" width="6" height="41.67" rx="1.5" fill="#0ecb81" /><line x1="82.73" y1="58.00" x2="82.73" y2="82.63" stroke="#0ecb81" stroke-width="1.4" /><rect x="79.73" y="69.37" width="6" height="5.68" rx="1.5" fill="#0ecb81" /><line x1="93.47" y1="63.68" x2="93.47" y2="90.20" stroke="#f6465d" stroke-width="1.4" /><rect x="90.47" y="67.47" width="6" height="15.15" rx="1.5" fill="#f6465d" /><line x1="104.20" y1="67.47" x2="104.20" y2="93.99" stroke="#f6465d" stroke-width="1.4" /><rect x="101.20" y="84.52" width="6" height="9.47" rx="1.5" fill="#f6465d" /><line x1="114.94" y1="88.31" x2="114.94" y2="103.46" stroke="#f6465d" stroke-width="1.4" /><rect x="111.94" y="92.10" width="6" height="7.58" rx="1.5" fill="#f6465d" /><line x1="125.67" y1="97.78" x2="125.67" y2="126.19" stroke="#f6465d" stroke-width="1.4" /><rect x="122.67" y="101.57" width="6" height="18.94" rx="1.5" fill="#f6465d" /><line x1="136.41" y1="118.62" x2="136.41" y2="131.88" stroke="#f6465d" stroke-width="1.4" /><rect x="133.41" y="122.40" width="6" height="5.68" rx="1.5" fill="#f6465d" /><line x1="147.14" y1="67.47" x2="147.14" y2="129.98" stroke="#0ecb81" stroke-width="1.4" /><rect x="144.14" y="69.37" width="6" height="58.72" rx="1.5" fill="#0ecb81" /><line x1="157.87" y1="59.89" x2="157.87" y2="107.25" stroke="#f6465d" stroke-width="1.4" /><rect x="154.87" y="67.47" width="6" height="34.10" rx="1.5" fill="#f6465d" /><line x1="168.61" y1="93.99" x2="168.61" y2="122.40" stroke="#f6465d" stroke-width="1.4" /><rect x="165.61" y="99.67" width="6" height="13.26" rx="1.5" fill="#f6465d" /><line x1="179.34" y1="97.78" x2="179.34" y2="112.93" stroke="#0ecb81" stroke-width="1.4" /><rect x="176.34" y="103.46" width="6" height="9.47" rx="1.5" fill="#0ecb81" /><line x1="190.08" y1="97.78" x2="190.08" y2="118.62" stroke="#f6465d" stroke-width="1.4" /><rect x="187.08" y="103.46" width="6" height="7.58" rx="1.5" fill="#f6465d" /><line x1="200.81" y1="109.14" x2="200.81" y2="118.62" stroke="#f6465d" stroke-width="1.4" /><rect x="197.81" y="111.04" width="6" height="7.58" rx="1.5" fill="#f6465d" /><line x1="211.54" y1="109.14" x2="211.54" y2="122.40" stroke="#f6465d" stroke-width="1.4" /><rect x="208.54" y="118.62" width="6" height="2.00" rx="1.5" fill="#f6465d" /><line x1="222.28" y1="116.72" x2="222.28" y2="128.09" stroke="#f6465d" stroke-width="1.4" /><rect x="219.28" y="120.51" width="6" height="2.00" rx="1.5" fill="#f6465d" /><line x1="233.01" y1="107.25" x2="233.01" y2="122.40" stroke="#0ecb81" stroke-width="1.4" /><rect x="230.01" y="112.93" width="6" height="9.47" rx="1.5" fill="#0ecb81" /><line x1="243.75" y1="111.04" x2="243.75" y2="126.19" stroke="#f6465d" stroke-width="1.4" /><rect x="240.75" y="114.83" width="6" height="3.79" rx="1.5" fill="#f6465d" /><line x1="254.48" y1="111.04" x2="254.48" y2="129.98" stroke="#f6465d" stroke-width="1.4" /><rect x="251.48" y="116.72" width="6" height="7.58" rx="1.5" fill="#f6465d" /><line x1="265.22" y1="103.46" x2="265.22" y2="126.19" stroke="#0ecb81" stroke-width="1.4" /><rect x="262.22" y="122.40" width="6" height="3.79" rx="1.5" fill="#0ecb81" /><line x1="275.95" y1="111.04" x2="275.95" y2="131.88" stroke="#f6465d" stroke-width="1.4" /><rect x="272.95" y="120.51" width="6" height="2.00" rx="1.5" fill="#f6465d" /><line x1="286.68" y1="112.93" x2="286.68" y2="128.09" stroke="#0ecb81" stroke-width="1.4" /><rect x="283.68" y="118.62" width="6" height="3.79" rx="1.5" fill="#0ecb81" /><line x1="297.42" y1="116.72" x2="297.42" y2="129.98" stroke="#0ecb81" stroke-width="1.4" /><rect x="294.42" y="116.72" width="6" height="3.79" rx="1.5" fill="#0ecb81" /><line x1="308.15" y1="114.83" x2="308.15" y2="148.92" stroke="#f6465d" stroke-width="1.4" /><rect x="305.15" y="116.72" width="6" height="26.52" rx="1.5" fill="#f6465d" /><line x1="318.89" y1="143.24" x2="318.89" y2="169.76" stroke="#f6465d" stroke-width="1.4" /><rect x="315.89" y="143.24" width="6" height="17.05" rx="1.5" fill="#f6465d" /><line x1="329.62" y1="158.39" x2="329.62" y2="219.01" stroke="#f6465d" stroke-width="1.4" /><rect x="326.62" y="158.39" width="6" height="47.36" rx="1.5" fill="#f6465d" /><line x1="340.35" y1="200.07" x2="340.35" y2="234.16" stroke="#f6465d" stroke-width="1.4" /><rect x="337.35" y="205.75" width="6" height="13.26" rx="1.5" fill="#f6465d" /><line x1="351.09" y1="207.64" x2="351.09" y2="241.74" stroke="#0ecb81" stroke-width="1.4" /><rect x="348.09" y="211.43" width="6" height="5.68" rx="1.5" fill="#0ecb81" /><line x1="361.82" y1="201.96" x2="361.82" y2="239.85" stroke="#f6465d" stroke-width="1.4" /><rect x="358.82" y="209.54" width="6" height="20.84" rx="1.5" fill="#f6465d" /><line x1="372.56" y1="207.64" x2="372.56" y2="236.06" stroke="#0ecb81" stroke-width="1.4" /><rect x="369.56" y="209.54" width="6" height="20.84" rx="1.5" fill="#0ecb81" /><line x1="383.29" y1="184.91" x2="383.29" y2="219.01" stroke="#0ecb81" stroke-width="1.4" /><rect x="380.29" y="203.86" width="6" height="7.58" rx="1.5" fill="#0ecb81" /><line x1="394.03" y1="190.60" x2="394.03" y2="203.86" stroke="#0ecb81" stroke-width="1.4" /><rect x="391.03" y="190.60" width="6" height="11.37" rx="1.5" fill="#0ecb81" /><line x1="404.76" y1="181.13" x2="404.76" y2="215.22" stroke="#f6465d" stroke-width="1.4" /><rect x="401.76" y="190.60" width="6" height="11.37" rx="1.5" fill="#f6465d" /><line x1="415.49" y1="192.49" x2="415.49" y2="211.43" stroke="#f6465d" stroke-width="1.4" /><rect x="412.49" y="203.86" width="6" height="2.00" rx="1.5" fill="#f6465d" /><line x1="426.23" y1="207.64" x2="426.23" y2="228.48" stroke="#f6465d" stroke-width="1.4" /><rect x="423.23" y="207.64" width="6" height="18.94" rx="1.5" fill="#f6465d" /><line x1="436.96" y1="219.01" x2="436.96" y2="228.48" stroke="#f6465d" stroke-width="1.4" /><rect x="433.96" y="224.69" width="6" height="3.79" rx="1.5" fill="#f6465d" /><line x1="447.70" y1="222.80" x2="447.70" y2="253.11" stroke="#f6465d" stroke-width="1.4" /><rect x="444.70" y="230.37" width="6" height="17.05" rx="1.5" fill="#f6465d" /><line x1="458.43" y1="230.37" x2="458.43" y2="251.21" stroke="#0ecb81" stroke-width="1.4" /><rect x="455.43" y="237.95" width="6" height="11.37" rx="1.5" fill="#0ecb81" /><line x1="469.16" y1="222.80" x2="469.16" y2="237.95" stroke="#0ecb81" stroke-width="1.4" /><rect x="466.16" y="228.48" width="6" height="9.47" rx="1.5" fill="#0ecb81" /><line x1="479.90" y1="215.22" x2="479.90" y2="241.74" stroke="#0ecb81" stroke-width="1.4" /><rect x="476.90" y="215.22" width="6" height="13.26" rx="1.5" fill="#0ecb81" /><line x1="490.63" y1="213.33" x2="490.63" y2="226.59" stroke="#f6465d" stroke-width="1.4" /><rect x="487.63" y="213.33" width="6" height="9.47" rx="1.5" fill="#f6465d" /><line x1="501.37" y1="222.80" x2="501.37" y2="239.85" stroke="#f6465d" stroke-width="1.4" /><rect x="498.37" y="224.69" width="6" height="7.58" rx="1.5" fill="#f6465d" /><line x1="512.10" y1="222.80" x2="512.10" y2="237.95" stroke="#0ecb81" stroke-width="1.4" /><rect x="509.10" y="224.69" width="6" height="5.68" rx="1.5" fill="#0ecb81" /><line x1="522.84" y1="219.01" x2="522.84" y2="230.37" stroke="#0ecb81" stroke-width="1.4" /><rect x="519.84" y="222.80" width="6" height="2.00" rx="1.5" fill="#0ecb81" /><line x1="533.57" y1="222.80" x2="533.57" y2="292.88" stroke="#f6465d" stroke-width="1.4" /><rect x="530.57" y="222.80" width="6" height="30.31" rx="1.5" fill="#f6465d" /><line x1="544.30" y1="243.63" x2="544.30" y2="262.58" stroke="#0ecb81" stroke-width="1.4" /><rect x="541.30" y="251.21" width="6" height="2.00" rx="1.5" fill="#0ecb81" /><line x1="555.04" y1="249.32" x2="555.04" y2="285.31" stroke="#f6465d" stroke-width="1.4" /><rect x="552.04" y="251.21" width="6" height="28.41" rx="1.5" fill="#f6465d" /><line x1="565.77" y1="258.79" x2="565.77" y2="279.62" stroke="#0ecb81" stroke-width="1.4" /><rect x="562.77" y="268.26" width="6" height="9.47" rx="1.5" fill="#0ecb81" /><line x1="576.51" y1="245.53" x2="576.51" y2="270.15" stroke="#0ecb81" stroke-width="1.4" /><rect x="573.51" y="258.79" width="6" height="9.47" rx="1.5" fill="#0ecb81" /><line x1="587.24" y1="251.21" x2="587.24" y2="266.37" stroke="#0ecb81" stroke-width="1.4" /><rect x="584.24" y="256.89" width="6" height="2.00" rx="1.5" fill="#0ecb81" /><line x1="597.97" y1="251.21" x2="597.97" y2="283.41" stroke="#f6465d" stroke-width="1.4" /><rect x="594.97" y="255.00" width="6" height="15.15" rx="1.5" fill="#f6465d" /><line x1="608.71" y1="270.15" x2="608.71" y2="319.40" stroke="#f6465d" stroke-width="1.4" /><rect x="605.71" y="270.15" width="6" height="34.10" rx="1.5" fill="#f6465d" /><line x1="619.44" y1="294.78" x2="619.44" y2="342.13" stroke="#f6465d" stroke-width="1.4" /><rect x="616.44" y="302.36" width="6" height="30.31" rx="1.5" fill="#f6465d" /><line x1="630.18" y1="317.51" x2="630.18" y2="342.13" stroke="#0ecb81" stroke-width="1.4" /><rect x="627.18" y="319.40" width="6" height="13.26" rx="1.5" fill="#0ecb81" /><line x1="640.91" y1="298.57" x2="640.91" y2="323.19" stroke="#0ecb81" stroke-width="1.4" /><rect x="637.91" y="308.04" width="6" height="11.37" rx="1.5" fill="#0ecb81" /><line x1="651.65" y1="300.46" x2="651.65" y2="325.09" stroke="#f6465d" stroke-width="1.4" /><rect x="648.65" y="306.14" width="6" height="17.05" rx="1.5" fill="#f6465d" /><line x1="662.38" y1="313.72" x2="662.38" y2="347.82" stroke="#f6465d" stroke-width="1.4" /><rect x="659.38" y="321.30" width="6" height="9.47" rx="1.5" fill="#f6465d" /><line x1="673.11" y1="330.77" x2="673.11" y2="345.92" stroke="#f6465d" stroke-width="1.4" /><rect x="670.11" y="330.77" width="6" height="13.26" rx="1.5" fill="#f6465d" /><line x1="683.85" y1="342.13" x2="683.85" y2="400.86" stroke="#f6465d" stroke-width="1.4" /><rect x="680.85" y="344.03" width="6" height="39.78" rx="1.5" fill="#f6465d" /><line x1="694.58" y1="372.44" x2="694.58" y2="389.49" stroke="#0ecb81" stroke-width="1.4" /><rect x="691.58" y="376.23" width="6" height="7.58" rx="1.5" fill="#0ecb81" /><line x1="705.32" y1="361.08" x2="705.32" y2="383.81" stroke="#0ecb81" stroke-width="1.4" /><rect x="702.32" y="366.76" width="6" height="9.47" rx="1.5" fill="#0ecb81" /><line x1="716.05" y1="355.39" x2="716.05" y2="376.23" stroke="#f6465d" stroke-width="1.4" /><rect x="713.05" y="364.87" width="6" height="3.79" rx="1.5" fill="#f6465d" /><line x1="726.78" y1="355.39" x2="726.78" y2="372.44" stroke="#0ecb81" stroke-width="1.4" /><rect x="723.78" y="366.76" width="6" height="2.00" rx="1.5" fill="#0ecb81" /><line x1="737.52" y1="361.08" x2="737.52" y2="376.23" stroke="#0ecb81" stroke-width="1.4" /><rect x="734.52" y="364.87" width="6" height="2.00" rx="1.5" fill="#0ecb81" /><line x1="748.25" y1="349.71" x2="748.25" y2="366.76" stroke="#0ecb81" stroke-width="1.4" /><rect x="745.25" y="361.08" width="6" height="2.00" rx="1.5" fill="#0ecb81" /><line x1="758.99" y1="340.24" x2="758.99" y2="362.97" stroke="#0ecb81" stroke-width="1.4" /><rect x="755.99" y="345.92" width="6" height="13.26" rx="1.5" fill="#0ecb81" /><line x1="769.72" y1="330.77" x2="769.72" y2="347.82" stroke="#0ecb81" stroke-width="1.4" /><rect x="766.72" y="340.24" width="6" height="3.79" rx="1.5" fill="#0ecb81" /><line x1="780.46" y1="334.56" x2="780.46" y2="351.61" stroke="#f6465d" stroke-width="1.4" /><rect x="777.46" y="338.35" width="6" height="11.37" rx="1.5" fill="#f6465d" /><line x1="791.19" y1="340.24" x2="791.19" y2="353.50" stroke="#0ecb81" stroke-width="1.4" /><rect x="788.19" y="349.71" width="6" height="2.00" rx="1.5" fill="#0ecb81" /><line x1="801.92" y1="344.03" x2="801.92" y2="372.44" stroke="#f6465d" stroke-width="1.4" /><rect x="798.92" y="347.82" width="6" height="15.15" rx="1.5" fill="#f6465d" /><line x1="812.66" y1="361.08" x2="812.66" y2="417.90" stroke="#f6465d" stroke-width="1.4" /><rect x="809.66" y="361.08" width="6" height="32.20" rx="1.5" fill="#f6465d" /><line x1="823.39" y1="393.28" x2="823.39" y2="431.16" stroke="#f6465d" stroke-width="1.4" /><rect x="820.39" y="395.17" width="6" height="15.15" rx="1.5" fill="#f6465d" /><line x1="834.13" y1="402.75" x2="834.13" y2="421.69" stroke="#f6465d" stroke-width="1.4" /><rect x="831.13" y="412.22" width="6" height="2.00" rx="1.5" fill="#f6465d" /><line x1="844.86" y1="395.17" x2="844.86" y2="416.01" stroke="#0ecb81" stroke-width="1.4" /><rect x="841.86" y="398.96" width="6" height="15.15" rx="1.5" fill="#0ecb81" /><line x1="855.59" y1="380.02" x2="855.59" y2="398.96" stroke="#0ecb81" stroke-width="1.4" /><rect x="852.59" y="383.81" width="6" height="13.26" rx="1.5" fill="#0ecb81" /><line x1="866.33" y1="374.34" x2="866.33" y2="389.49" stroke="#0ecb81" stroke-width="1.4" /><rect x="863.33" y="381.91" width="6" height="2.00" rx="1.5" fill="#0ecb81" /><line x1="877.06" y1="372.44" x2="877.06" y2="387.60" stroke="#f6465d" stroke-width="1.4" /><rect x="874.06" y="380.02" width="6" height="2.00" rx="1.5" fill="#f6465d" /><line x1="887.80" y1="380.02" x2="887.80" y2="402.75" stroke="#f6465d" stroke-width="1.4" /><rect x="884.80" y="383.81" width="6" height="13.26" rx="1.5" fill="#f6465d" /><line x1="898.53" y1="393.28" x2="898.53" y2="452.00" stroke="#f6465d" stroke-width="1.4" /><rect x="895.53" y="397.07" width="6" height="41.67" rx="1.5" fill="#f6465d" /><line x1="909.27" y1="412.22" x2="909.27" y2="442.53" stroke="#0ecb81" stroke-width="1.4" /><rect x="906.27" y="416.01" width="6" height="22.73" rx="1.5" fill="#0ecb81" /><line x1="920.00" y1="412.22" x2="920.00" y2="419.80" stroke="#0ecb81" stroke-width="1.4" /><rect x="917.00" y="414.12" width="6" height="2.00" rx="1.5" fill="#0ecb81" />
  <polyline points="447.70,253.11 490.63,213.33 683.85,400.86 769.72,330.77 823.39,431.16" fill="none" stroke="#2fc273" stroke-width="4" stroke-linecap="round" stroke-linejoin="round" />
  <circle cx="447.70" cy="253.11" r="5.5" fill="#2fc273" fill-opacity="0.15" stroke="#2fc273" stroke-width="2" /><text x="447.70" y="241.11" fill="#f3f4f6" font-size="15" font-weight="700" text-anchor="middle">X</text><circle cx="490.63" cy="213.33" r="5.5" fill="#2fc273" fill-opacity="0.15" stroke="#2fc273" stroke-width="2" /><text x="490.63" y="201.33" fill="#f3f4f6" font-size="15" font-weight="700" text-anchor="middle">A</text><circle cx="683.85" cy="400.86" r="5.5" fill="#2fc273" fill-opacity="0.15" stroke="#2fc273" stroke-width="2" /><text x="683.85" y="388.86" fill="#f3f4f6" font-size="15" font-weight="700" text-anchor="middle">B</text><circle cx="769.72" cy="330.77" r="5.5" fill="#2fc273" fill-opacity="0.15" stroke="#2fc273" stroke-width="2" /><text x="769.72" y="318.77" fill="#f3f4f6" font-size="15" font-weight="700" text-anchor="middle">C</text><circle cx="823.39" cy="431.16" r="5.5" fill="#2fc273" fill-opacity="0.15" stroke="#2fc273" stroke-width="2" /><text x="823.39" y="419.16" fill="#f3f4f6" font-size="15" font-weight="700" text-anchor="middle">D</text>
  <text x="56" y="492" fill="#8ba0b5" font-size="18">일반 완성 · TP1 0.24782 · TP2 0.24908 · SL 0.24553</text>
</svg>
