<svg xmlns="http://www.w3.org/2000/svg" width="960" height="540" viewBox="0 0 960 540">
  <rect width="960" height="540" rx="24" fill="#0b1220" />
  <rect x="28" y="28" width="904" height="484" rx="22" fill="#111827" stroke="#1f2937" />
  <text x="56" y="74" fill="#f3f4f6" font-size="34" font-weight="700">WLDUSDT · AB=CD</text>
  <text x="904" y="74" fill="#8ba0b5" font-size="20" text-anchor="end">Bullish (매수) · Score 92.8</text>
  <line x1="72" y1="58" x2="920" y2="58" stroke="#223045" stroke-width="1" stroke-dasharray="4 8" /><line x1="72" y1="156" x2="920" y2="156" stroke="#223045" stroke-width="1" stroke-dasharray="4 8" /><line x1="72" y1="255" x2="920" y2="255" stroke="#223045" stroke-width="1" stroke-dasharray="4 8" /><line x1="72" y1="353" x2="920" y2="353" stroke="#223045" stroke-width="1" stroke-dasharray="4 8" /><line x1="72" y1="452" x2="920" y2="452" stroke="#223045" stroke-width="1" stroke-dasharray="4 8" />
  <rect x="849.06" y="462.37" width="84" height="22.81" fill="#fbbf24" fill-opacity="0.12" stroke="#fbbf24" stroke-width="1.5" stroke-dasharray="6 6" />
  <line x1="72.00" y1="95.70" x2="72.00" y2="123.98" stroke="#f6465d" stroke-width="1.4" /><rect x="69.00" y="99.47" width="6" height="18.85" rx="1.5" fill="#f6465d" /><line x1="82.73" y1="116.44" x2="82.73" y2="129.64" stroke="#f6465d" stroke-width="1.4" /><rect x="79.73" y="120.21" width="6" height="5.66" rx="1.5" fill="#f6465d" /><line x1="93.47" y1="65.54" x2="93.47" y2="127.75" stroke="#0ecb81" stroke-width="1.4" /><rect x="90.47" y="67.43" width="6" height="58.44" rx="1.5" fill="#0ecb81" /><line x1="104.20" y1="58.00" x2="104.20" y2="105.13" stroke="#f6465d" stroke-width="1.4" /><rect x="101.20" y="65.54" width="6" height="33.93" rx="1.5" fill="#f6465d" /><line x1="114.94" y1="91.93" x2="114.94" y2="120.21" stroke="#f6465d" stroke-width="1.4" /><rect x="111.94" y="97.59" width="6" height="13.20" rx="1.5" fill="#f6465d" /><line x1="125.67" y1="95.70" x2="125.67" y2="110.78" stroke="#0ecb81" stroke-width="1.4" /><rect x="122.67" y="101.36" width="6" height="9.43" rx="1.5" fill="#0ecb81" /><line x1="136.41" y1="95.70" x2="136.41" y2="116.44" stroke="#f6465d" stroke-width="1.4" /><rect x="133.41" y="101.36" width="6" height="7.54" rx="1.5" fill="#f6465d" /><line x1="147.14" y1="107.01" x2="147.14" y2="116.44" stroke="#f6465d" stroke-width="1.4" /><rect x="144.14" y="108.90" width="6" height="7.54" rx="1.5" fill="#f6465d" /><line x1="157.87" y1="107.01" x2="157.87" y2="120.21" stroke="#f6465d" stroke-width="1.4" /><rect x="154.87" y="116.44" width="6" height="2.00" rx="1.5" fill="#f6465d" /><line x1="168.61" y1="114.56" x2="168.61" y2="125.87" stroke="#f6465d" stroke-width="1.4" /><rect x="165.61" y="118.33" width="6" height="2.00" rx="1.5" fill="#f6465d" /><line x1="179.34" y1="105.13" x2="179.34" y2="120.21" stroke="#0ecb81" stroke-width="1.4" /><rect x="176.34" y="110.78" width="6" height="9.43" rx="1.5" fill="#0ecb81" /><line x1="190.08" y1="108.90" x2="190.08" y2="123.98" stroke="#f6465d" stroke-width="1.4" /><rect x="187.08" y="112.67" width="6" height="3.77" rx="1.5" fill="#f6465d" /><line x1="200.81" y1="108.90" x2="200.81" y2="127.75" stroke="#f6465d" stroke-width="1.4" /><rect x="197.81" y="114.56" width="6" height="7.54" rx="1.5" fill="#f6465d" /><line x1="211.54" y1="101.36" x2="211.54" y2="123.98" stroke="#0ecb81" stroke-width="1.4" /><rect x="208.54" y="120.21" width="6" height="3.77" rx="1.5" fill="#0ecb81" /><line x1="222.28" y1="108.90" x2="222.28" y2="129.64" stroke="#f6465d" stroke-width="1.4" /><rect x="219.28" y="118.33" width="6" height="2.00" rx="1.5" fill="#f6465d" /><line x1="233.01" y1="110.78" x2="233.01" y2="125.87" stroke="#0ecb81" stroke-width="1.4" /><rect x="230.01" y="116.44" width="6" height="3.77" rx="1.5" fill="#0ecb81" /><line x1="243.75" y1="114.56" x2="243.75" y2="127.75" stroke="#0ecb81" stroke-width="1.4" /><rect x="240.75" y="114.56" width="6" height="3.77" rx="1.5" fill="#0ecb81" /><line x1="254.48" y1="112.67" x2="254.48" y2="146.60" stroke="#f6465d" stroke-width="1.4" /><rect x="251.48" y="114.56" width="6" height="26.39" rx="1.5" fill="#f6465d" /><line x1="265.22" y1="140.95" x2="265.22" y2="167.34" stroke="#f6465d" stroke-width="1.4" /><rect x="262.22" y="140.95" width="6" height="16.97" rx="1.5" fill="#f6465d" /><line x1="275.95" y1="156.03" x2="275.95" y2="216.35" stroke="#f6465d" stroke-width="1.4" /><rect x="272.95" y="156.03" width="6" height="47.13" rx="1.5" fill="#f6465d" /><line x1="286.68" y1="197.50" x2="286.68" y2="231.44" stroke="#f6465d" stroke-width="1.4" /><rect x="283.68" y="203.16" width="6" height="13.20" rx="1.5" fill="#f6465d" /><line x1="297.42" y1="205.04" x2="297.42" y2="238.98" stroke="#0ecb81" stroke-width="1.4" /><rect x="294.42" y="208.81" width="6" height="5.66" rx="1.5" fill="#0ecb81" /><line x1="308.15" y1="199.39" x2="308.15" y2="237.09" stroke="#f6465d" stroke-width="1.4" /><rect x="305.15" y="206.93" width="6" height="20.74" rx="1.5" fill="#f6465d" /><line x1="318.89" y1="205.04" x2="318.89" y2="233.32" stroke="#0ecb81" stroke-width="1.4" /><rect x="315.89" y="206.93" width="6" height="20.74" rx="1.5" fill="#0ecb81" /><line x1="329.62" y1="182.42" x2="329.62" y2="216.35" stroke="#0ecb81" stroke-width="1.4" /><rect x="326.62" y="201.27" width="6" height="7.54" rx="1.5" fill="#0ecb81" /><line x1="340.35" y1="188.08" x2="340.35" y2="201.27" stroke="#0ecb81" stroke-width="1.4" /><rect x="337.35" y="188.08" width="6" height="11.31" rx="1.5" fill="#0ecb81" /><line x1="351.09" y1="178.65" x2="351.09" y2="212.58" stroke="#f6465d" stroke-width="1.4" /><rect x="348.09" y="188.08" width="6" height="11.31" rx="1.5" fill="#f6465d" /><line x1="361.82" y1="189.96" x2="361.82" y2="208.81" stroke="#f6465d" stroke-width="1.4" /><rect x="358.82" y="201.27" width="6" height="2.00" rx="1.5" fill="#f6465d" /><line x1="372.56" y1="205.04" x2="372.56" y2="225.78" stroke="#f6465d" stroke-width="1.4" /><rect x="369.56" y="205.04" width="6" height="18.85" rx="1.5" fill="#f6465d" /><line x1="383.29" y1="216.35" x2="383.29" y2="225.78" stroke="#f6465d" stroke-width="1.4" /><rect x="380.29" y="222.01" width="6" height="3.77" rx="1.5" fill="#f6465d" /><line x1="394.03" y1="220.12" x2="394.03" y2="250.29" stroke="#f6465d" stroke-width="1.4" /><rect x="391.03" y="227.67" width="6" height="16.97" rx="1.5" fill="#f6465d" /><line x1="404.76" y1="227.67" x2="404.76" y2="248.40" stroke="#0ecb81" stroke-width="1.4" /><rect x="401.76" y="235.21" width="6" height="11.31" rx="1.5" fill="#0ecb81" /><line x1="415.49" y1="220.12" x2="415.49" y2="235.21" stroke="#0ecb81" stroke-width="1.4" /><rect x="412.49" y="225.78" width="6" height="9.43" rx="1.5" fill="#0ecb81" /><line x1="426.23" y1="212.58" x2="426.23" y2="238.98" stroke="#0ecb81" stroke-width="1.4" /><rect x="423.23" y="212.58" width="6" height="13.20" rx="1.5" fill="#0ecb81" /><line x1="436.96" y1="210.70" x2="436.96" y2="223.89" stroke="#f6465d" stroke-width="1.4" /><rect x="433.96" y="210.70" width="6" height="9.43" rx="1.5" fill="#f6465d" /><line x1="447.70" y1="220.12" x2="447.70" y2="237.09" stroke="#f6465d" stroke-width="1.4" /><rect x="444.70" y="222.01" width="6" height="7.54" rx="1.5" fill="#f6465d" /><line x1="458.43" y1="220.12" x2="458.43" y2="235.21" stroke="#0ecb81" stroke-width="1.4" /><rect x="455.43" y="222.01" width="6" height="5.66" rx="1.5" fill="#0ecb81" /><line x1="469.16" y1="216.35" x2="469.16" y2="227.67" stroke="#0ecb81" stroke-width="1.4" /><rect x="466.16" y="220.12" width="6" height="2.00" rx="1.5" fill="#0ecb81" /><line x1="479.90" y1="220.12" x2="479.90" y2="289.88" stroke="#f6465d" stroke-width="1.4" /><rect x="476.90" y="220.12" width="6" height="30.16" rx="1.5" fill="#f6465d" /><line x1="490.63" y1="240.86" x2="490.63" y2="259.71" stroke="#0ecb81" stroke-width="1.4" /><rect x="487.63" y="248.40" width="6" height="2.00" rx="1.5" fill="#0ecb81" /><line x1="501.37" y1="246.52" x2="501.37" y2="282.33" stroke="#f6465d" stroke-width="1.4" /><rect x="498.37" y="248.40" width="6" height="28.28" rx="1.5" fill="#f6465d" /><line x1="512.10" y1="255.94" x2="512.10" y2="276.68" stroke="#0ecb81" stroke-width="1.4" /><rect x="509.10" y="265.37" width="6" height="9.43" rx="1.5" fill="#0ecb81" /><line x1="522.84" y1="242.75" x2="522.84" y2="267.25" stroke="#0ecb81" stroke-width="1.4" /><rect x="519.84" y="255.94" width="6" height="9.43" rx="1.5" fill="#0ecb81" /><line x1="533.57" y1="248.40" x2="533.57" y2="263.48" stroke="#0ecb81" stroke-width="1.4" /><rect x="530.57" y="254.06" width="6" height="2.00" rx="1.5" fill="#0ecb81" /><line x1="544.30" y1="248.40" x2="544.30" y2="280.45" stroke="#f6465d" stroke-width="1.4" /><rect x="541.30" y="252.17" width="6" height="15.08" rx="1.5" fill="#f6465d" /><line x1="555.04" y1="267.25" x2="555.04" y2="316.27" stroke="#f6465d" stroke-width="1.4" /><rect x="552.04" y="267.25" width="6" height="33.93" rx="1.5" fill="#f6465d" /><line x1="565.77" y1="291.76" x2="565.77" y2="338.89" stroke="#f6465d" stroke-width="1.4" /><rect x="562.77" y="299.30" width="6" height="30.16" rx="1.5" fill="#f6465d" /><line x1="576.51" y1="314.38" x2="576.51" y2="338.89" stroke="#0ecb81" stroke-width="1.4" /><rect x="573.51" y="316.27" width="6" height="13.20" rx="1.5" fill="#0ecb81" /><line x1="587.24" y1="295.53" x2="587.24" y2="320.04" stroke="#0ecb81" stroke-width="1.4" /><rect x="584.24" y="304.96" width="6" height="11.31" rx="1.5" fill="#0ecb81" /><line x1="597.97" y1="297.42" x2="597.97" y2="321.92" stroke="#f6465d" stroke-width="1.4" /><rect x="594.97" y="303.07" width="6" height="16.97" rx="1.5" fill="#f6465d" /><line x1="608.71" y1="310.61" x2="608.71" y2="344.55" stroke="#f6465d" stroke-width="1.4" /><rect x="605.71" y="318.15" width="6" height="9.43" rx="1.5" fill="#f6465d" /><line x1="619.44" y1="327.58" x2="619.44" y2="342.66" stroke="#f6465d" stroke-width="1.4" /><rect x="616.44" y="327.58" width="6" height="13.20" rx="1.5" fill="#f6465d" /><line x1="630.18" y1="338.89" x2="630.18" y2="397.33" stroke="#f6465d" stroke-width="1.4" /><rect x="627.18" y="340.78" width="6" height="39.59" rx="1.5" fill="#f6465d" /><line x1="640.91" y1="369.05" x2="640.91" y2="386.02" stroke="#0ecb81" stroke-width="1.4" /><rect x="637.91" y="372.82" width="6" height="7.54" rx="1.5" fill="#0ecb81" /><line x1="651.65" y1="357.74" x2="651.65" y2="380.36" stroke="#0ecb81" stroke-width="1.4" /><rect x="648.65" y="363.40" width="6" height="9.43" rx="1.5" fill="#0ecb81" /><line x1="662.38" y1="352.09" x2="662.38" y2="372.82" stroke="#f6465d" stroke-width="1.4" /><rect x="659.38" y="361.51" width="6" height="3.77" rx="1.5" fill="#f6465d" /><line x1="673.11" y1="352.09" x2="673.11" y2="369.05" stroke="#0ecb81" stroke-width="1.4" /><rect x="670.11" y="363.40" width="6" height="2.00" rx="1.5" fill="#0ecb81" /><line x1="683.85" y1="357.74" x2="683.85" y2="372.82" stroke="#0ecb81" stroke-width="1.4" /><rect x="680.85" y="361.51" width="6" height="2.00" rx="1.5" fill="#0ecb81" /><line x1="694.58" y1="346.43" x2="694.58" y2="363.40" stroke="#0ecb81" stroke-width="1.4" /><rect x="691.58" y="357.74" width="6" height="2.00" rx="1.5" fill="#0ecb81" /><line x1="705.32" y1="337.00" x2="705.32" y2="359.63" stroke="#0ecb81" stroke-width="1.4" /><rect x="702.32" y="342.66" width="6" height="13.20" rx="1.5" fill="#0ecb81" /><line x1="716.05" y1="327.58" x2="716.05" y2="344.55" stroke="#0ecb81" stroke-width="1.4" /><rect x="713.05" y="337.00" width="6" height="3.77" rx="1.5" fill="#0ecb81" /><line x1="726.78" y1="331.35" x2="726.78" y2="348.32" stroke="#f6465d" stroke-width="1.4" /><rect x="723.78" y="335.12" width="6" height="11.31" rx="1.5" fill="#f6465d" /><line x1="737.52" y1="337.00" x2="737.52" y2="350.20" stroke="#0ecb81" stroke-width="1.4" /><rect x="734.52" y="346.43" width="6" height="2.00" rx="1.5" fill="#0ecb81" /><line x1="748.25" y1="340.78" x2="748.25" y2="369.05" stroke="#f6465d" stroke-width="1.4" /><rect x="745.25" y="344.55" width="6" height="15.08" rx="1.5" fill="#f6465d" /><line x1="758.99" y1="357.74" x2="758.99" y2="414.30" stroke="#f6465d" stroke-width="1.4" /><rect x="755.99" y="357.74" width="6" height="32.05" rx="1.5" fill="#f6465d" /><line x1="769.72" y1="389.79" x2="769.72" y2="427.49" stroke="#f6465d" stroke-width="1.4" /><rect x="766.72" y="391.67" width="6" height="15.08" rx="1.5" fill="#f6465d" /><line x1="780.46" y1="399.22" x2="780.46" y2="418.07" stroke="#f6465d" stroke-width="1.4" /><rect x="777.46" y="408.64" width="6" height="2.00" rx="1.5" fill="#f6465d" /><line x1="791.19" y1="391.67" x2="791.19" y2="412.41" stroke="#0ecb81" stroke-width="1.4" /><rect x="788.19" y="395.44" width="6" height="15.08" rx="1.5" fill="#0ecb81" /><line x1="801.92" y1="376.59" x2="801.92" y2="395.44" stroke="#0ecb81" stroke-width="1.4" /><rect x="798.92" y="380.36" width="6" height="13.20" rx="1.5" fill="#0ecb81" /><line x1="812.66" y1="370.94" x2="812.66" y2="386.02" stroke="#0ecb81" stroke-width="1.4" /><rect x="809.66" y="378.48" width="6" height="2.00" rx="1.5" fill="#0ecb81" /><line x1="823.39" y1="369.05" x2="823.39" y2="384.13" stroke="#f6465d" stroke-width="1.4" /><rect x="820.39" y="376.59" width="6" height="2.00" rx="1.5" fill="#f6465d" /><line x1="834.13" y1="376.59" x2="834.13" y2="399.22" stroke="#f6465d" stroke-width="1.4" /><rect x="831.13" y="380.36" width="6" height="13.20" rx="1.5" fill="#f6465d" /><line x1="844.86" y1="389.79" x2="844.86" y2="448.23" stroke="#f6465d" stroke-width="1.4" /><rect x="841.86" y="393.56" width="6" height="41.47" rx="1.5" fill="#f6465d" /><line x1="855.59" y1="408.64" x2="855.59" y2="438.80" stroke="#0ecb81" stroke-width="1.4" /><rect x="852.59" y="412.41" width="6" height="22.62" rx="1.5" fill="#0ecb81" /><line x1="866.33" y1="397.33" x2="866.33" y2="416.18" stroke="#0ecb81" stroke-width="1.4" /><rect x="863.33" y="412.41" width="6" height="2.00" rx="1.5" fill="#0ecb81" /><line x1="877.06" y1="412.41" x2="877.06" y2="452.00" stroke="#f6465d" stroke-width="1.4" /><rect x="874.06" y="412.41" width="6" height="32.05" rx="1.5" fill="#f6465d" /><line x1="887.80" y1="414.30" x2="887.80" y2="444.46" stroke="#0ecb81" stroke-width="1.4" /><rect x="884.80" y="418.07" width="6" height="26.39" rx="1.5" fill="#0ecb81" /><line x1="898.53" y1="402.99" x2="898.53" y2="419.95" stroke="#0ecb81" stroke-width="1.4" /><rect x="895.53" y="408.64" width="6" height="9.43" rx="1.5" fill="#0ecb81" /><line x1="909.27" y1="399.22" x2="909.27" y2="418.07" stroke="#f6465d" stroke-width="1.4" /><rect x="906.27" y="408.64" width="6" height="5.66" rx="1.5" fill="#f6465d" /><line x1="920.00" y1="412.41" x2="920.00" y2="429.38" stroke="#0ecb81" stroke-width="1.4" /><rect x="917.00" y="414.30" width="6" height="2.00" rx="1.5" fill="#0ecb81" />
  <polyline points="630.18,397.33 716.05,327.58 769.72,427.49 823.39,369.05 877.06,452.00" fill="none" stroke="#2fc273" stroke-width="4" stroke-linecap="round" stroke-linejoin="round" />
  <circle cx="630.18" cy="397.33" r="5.5" fill="#2fc273" fill-opacity="0.15" stroke="#2fc273" stroke-width="2" /><text x="630.18" y="385.33" fill="#f3f4f6" font-size="15" font-weight="700" text-anchor="middle">X</text><circle cx="716.05" cy="327.58" r="5.5" fill="#2fc273" fill-opacity="0.15" stroke="#2fc273" stroke-width="2" /><text x="716.05" y="315.58" fill="#f3f4f6" font-size="15" font-weight="700" text-anchor="middle">A</text><circle cx="769.72" cy="427.49" r="5.5" fill="#2fc273" fill-opacity="0.15" stroke="#2fc273" stroke-width="2" /><text x="769.72" y="415.49" fill="#f3f4f6" font-size="15" font-weight="700" text-anchor="middle">B</text><circle cx="823.39" cy="369.05" r="5.5" fill="#2fc273" fill-opacity="0.15" stroke="#2fc273" stroke-width="2" /><text x="823.39" y="357.05" fill="#f3f4f6" font-size="15" font-weight="700" text-anchor="middle">C</text><circle cx="877.06" cy="452.00" r="5.5" fill="#2fc273" fill-opacity="0.15" stroke="#2fc273" stroke-width="2" /><text x="877.06" y="440.00" fill="#f3f4f6" font-size="15" font-weight="700" text-anchor="middle">D</text>
  <text x="56" y="492" fill="#8ba0b5" font-size="18">일반 완성 · TP1 0.24618 · TP2 0.24722 · SL 0.24402</text>
</svg>
