<svg xmlns="http://www.w3.org/2000/svg" width="960" height="540" viewBox="0 0 960 540">
  <rect width="960" height="540" rx="24" fill="#0b1220" />
  <rect x="28" y="28" width="904" height="484" rx="22" fill="#111827" stroke="#1f2937" />
  <text x="56" y="74" fill="#f3f4f6" font-size="34" font-weight="700">XAUTUSDT · AB=CD</text>
  <text x="904" y="74" fill="#8ba0b5" font-size="20" text-anchor="end">Bearish (매도) · Score 84.6</text>
  <line x1="72" y1="58" x2="920" y2="58" stroke="#223045" stroke-width="1" stroke-dasharray="4 8" /><line x1="72" y1="156" x2="920" y2="156" stroke="#223045" stroke-width="1" stroke-dasharray="4 8" /><line x1="72" y1="255" x2="920" y2="255" stroke="#223045" stroke-width="1" stroke-dasharray="4 8" /><line x1="72" y1="353" x2="920" y2="353" stroke="#223045" stroke-width="1" stroke-dasharray="4 8" /><line x1="72" y1="452" x2="920" y2="452" stroke="#223045" stroke-width="1" stroke-dasharray="4 8" />
  <rect x="645.11" y="106.33" width="84" height="138.68" fill="#fbbf24" fill-opacity="0.12" stroke="#fbbf24" stroke-width="1.5" stroke-dasharray="6 6" />
  <line x1="72.00" y1="82.73" x2="72.00" y2="109.57" stroke="#0ecb81" stroke-width="1.4" /><rect x="69.00" y="87.06" width="6" height="22.51" rx="1.5" fill="#0ecb81" /><line x1="82.73" y1="83.03" x2="82.73" y2="104.23" stroke="#f6465d" stroke-width="1.4" /><rect x="79.73" y="87.06" width="6" height="13.45" rx="1.5" fill="#f6465d" /><line x1="93.47" y1="97.62" x2="93.47" y2="114.31" stroke="#f6465d" stroke-width="1.4" /><rect x="90.47" y="100.44" width="6" height="11.65" rx="1.5" fill="#f6465d" /><line x1="104.20" y1="100.62" x2="104.20" y2="124.52" stroke="#0ecb81" stroke-width="1.4" /><rect x="101.20" y="105.37" width="6" height="6.72" rx="1.5" fill="#0ecb81" /><line x1="114.94" y1="104.23" x2="114.94" y2="105.43" stroke="#0ecb81" stroke-width="1.4" /><rect x="111.94" y="104.29" width="6" height="2.00" rx="1.5" fill="#0ecb81" /><line x1="125.67" y1="104.23" x2="125.67" y2="108.97" stroke="#f6465d" stroke-width="1.4" /><rect x="122.67" y="104.23" width="6" height="4.74" rx="1.5" fill="#f6465d" /><line x1="136.41" y1="108.91" x2="136.41" y2="123.14" stroke="#f6465d" stroke-width="1.4" /><rect x="133.41" y="108.91" width="6" height="14.23" rx="1.5" fill="#f6465d" /><line x1="147.14" y1="123.08" x2="147.14" y2="138.44" stroke="#f6465d" stroke-width="1.4" /><rect x="144.14" y="123.08" width="6" height="2.00" rx="1.5" fill="#f6465d" /><line x1="157.87" y1="123.44" x2="157.87" y2="143.85" stroke="#f6465d" stroke-width="1.4" /><rect x="154.87" y="123.50" width="6" height="13.93" rx="1.5" fill="#f6465d" /><line x1="168.61" y1="123.44" x2="168.61" y2="160.06" stroke="#0ecb81" stroke-width="1.4" /><rect x="165.61" y="132.38" width="6" height="4.98" rx="1.5" fill="#0ecb81" /><line x1="179.34" y1="132.38" x2="179.34" y2="168.46" stroke="#f6465d" stroke-width="1.4" /><rect x="176.34" y="132.44" width="6" height="28.58" rx="1.5" fill="#f6465d" /><line x1="190.08" y1="151.35" x2="190.08" y2="163.36" stroke="#0ecb81" stroke-width="1.4" /><rect x="187.08" y="157.42" width="6" height="3.54" rx="1.5" fill="#0ecb81" /><line x1="200.81" y1="151.71" x2="200.81" y2="184.97" stroke="#f6465d" stroke-width="1.4" /><rect x="197.81" y="157.42" width="6" height="27.56" rx="1.5" fill="#f6465d" /><line x1="211.54" y1="162.16" x2="211.54" y2="186.35" stroke="#f6465d" stroke-width="1.4" /><rect x="208.54" y="184.91" width="6" height="2.00" rx="1.5" fill="#f6465d" /><line x1="222.28" y1="186.11" x2="222.28" y2="189.17" stroke="#f6465d" stroke-width="1.4" /><rect x="219.28" y="186.17" width="6" height="2.94" rx="1.5" fill="#f6465d" /><line x1="233.01" y1="160.12" x2="233.01" y2="198.72" stroke="#0ecb81" stroke-width="1.4" /><rect x="230.01" y="160.18" width="6" height="29.00" rx="1.5" fill="#0ecb81" /><line x1="243.75" y1="160.12" x2="243.75" y2="215.89" stroke="#f6465d" stroke-width="1.4" /><rect x="240.75" y="160.18" width="6" height="55.71" rx="1.5" fill="#f6465d" /><line x1="254.48" y1="215.83" x2="254.48" y2="273.52" stroke="#f6465d" stroke-width="1.4" /><rect x="251.48" y="215.89" width="6" height="34.46" rx="1.5" fill="#f6465d" /><line x1="265.22" y1="197.40" x2="265.22" y2="260.43" stroke="#0ecb81" stroke-width="1.4" /><rect x="262.22" y="203.22" width="6" height="47.13" rx="1.5" fill="#0ecb81" /><line x1="275.95" y1="203.22" x2="275.95" y2="243.44" stroke="#f6465d" stroke-width="1.4" /><rect x="272.95" y="203.22" width="6" height="8.16" rx="1.5" fill="#f6465d" /><line x1="286.68" y1="171.16" x2="286.68" y2="245.00" stroke="#0ecb81" stroke-width="1.4" /><rect x="283.68" y="171.16" width="6" height="40.22" rx="1.5" fill="#0ecb81" /><line x1="297.42" y1="121.64" x2="297.42" y2="182.21" stroke="#0ecb81" stroke-width="1.4" /><rect x="294.42" y="171.10" width="6" height="2.00" rx="1.5" fill="#0ecb81" /><line x1="308.15" y1="171.10" x2="308.15" y2="228.68" stroke="#f6465d" stroke-width="1.4" /><rect x="305.15" y="171.10" width="6" height="34.88" rx="1.5" fill="#f6465d" /><line x1="318.89" y1="185.33" x2="318.89" y2="236.66" stroke="#f6465d" stroke-width="1.4" /><rect x="315.89" y="205.98" width="6" height="2.00" rx="1.5" fill="#f6465d" /><line x1="329.62" y1="156.15" x2="329.62" y2="206.58" stroke="#0ecb81" stroke-width="1.4" /><rect x="326.62" y="176.99" width="6" height="29.54" rx="1.5" fill="#0ecb81" /><line x1="340.35" y1="173.74" x2="340.35" y2="204.00" stroke="#f6465d" stroke-width="1.4" /><rect x="337.35" y="176.99" width="6" height="18.79" rx="1.5" fill="#f6465d" /><line x1="351.09" y1="172.36" x2="351.09" y2="223.99" stroke="#0ecb81" stroke-width="1.4" /><rect x="348.09" y="188.81" width="6" height="6.96" rx="1.5" fill="#0ecb81" /><line x1="361.82" y1="164.26" x2="361.82" y2="189.77" stroke="#0ecb81" stroke-width="1.4" /><rect x="358.82" y="167.02" width="6" height="21.79" rx="1.5" fill="#0ecb81" /><line x1="372.56" y1="136.88" x2="372.56" y2="188.09" stroke="#f6465d" stroke-width="1.4" /><rect x="369.56" y="166.96" width="6" height="2.00" rx="1.5" fill="#f6465d" /><line x1="383.29" y1="147.75" x2="383.29" y2="205.98" stroke="#f6465d" stroke-width="1.4" /><rect x="380.29" y="168.58" width="6" height="24.31" rx="1.5" fill="#f6465d" /><line x1="394.03" y1="164.62" x2="394.03" y2="216.61" stroke="#0ecb81" stroke-width="1.4" /><rect x="391.03" y="168.28" width="6" height="24.67" rx="1.5" fill="#0ecb81" /><line x1="404.76" y1="168.22" x2="404.76" y2="209.64" stroke="#f6465d" stroke-width="1.4" /><rect x="401.76" y="168.22" width="6" height="9.13" rx="1.5" fill="#f6465d" /><line x1="415.49" y1="143.25" x2="415.49" y2="215.89" stroke="#f6465d" stroke-width="1.4" /><rect x="412.49" y="177.41" width="6" height="17.41" rx="1.5" fill="#f6465d" /><line x1="426.23" y1="181.37" x2="426.23" y2="252.45" stroke="#f6465d" stroke-width="1.4" /><rect x="423.23" y="194.82" width="6" height="36.38" rx="1.5" fill="#f6465d" /><line x1="436.96" y1="214.75" x2="436.96" y2="267.16" stroke="#f6465d" stroke-width="1.4" /><rect x="433.96" y="231.20" width="6" height="27.32" rx="1.5" fill="#f6465d" /><line x1="447.70" y1="235.16" x2="447.70" y2="270.40" stroke="#0ecb81" stroke-width="1.4" /><rect x="444.70" y="243.44" width="6" height="15.07" rx="1.5" fill="#0ecb81" /><line x1="458.43" y1="243.44" x2="458.43" y2="287.87" stroke="#f6465d" stroke-width="1.4" /><rect x="455.43" y="243.44" width="6" height="33.08" rx="1.5" fill="#f6465d" /><line x1="469.16" y1="242.72" x2="469.16" y2="276.46" stroke="#0ecb81" stroke-width="1.4" /><rect x="466.16" y="257.91" width="6" height="18.55" rx="1.5" fill="#0ecb81" /><line x1="479.90" y1="246.51" x2="479.90" y2="273.82" stroke="#f6465d" stroke-width="1.4" /><rect x="476.90" y="257.85" width="6" height="7.44" rx="1.5" fill="#f6465d" /><line x1="490.63" y1="249.21" x2="490.63" y2="276.94" stroke="#0ecb81" stroke-width="1.4" /><rect x="487.63" y="263.01" width="6" height="2.28" rx="1.5" fill="#0ecb81" /><line x1="501.37" y1="249.45" x2="501.37" y2="289.61" stroke="#f6465d" stroke-width="1.4" /><rect x="498.37" y="263.01" width="6" height="12.37" rx="1.5" fill="#f6465d" /><line x1="512.10" y1="246.51" x2="512.10" y2="275.44" stroke="#0ecb81" stroke-width="1.4" /><rect x="509.10" y="252.27" width="6" height="23.11" rx="1.5" fill="#0ecb81" /><line x1="522.84" y1="222.19" x2="522.84" y2="258.63" stroke="#0ecb81" stroke-width="1.4" /><rect x="519.84" y="231.50" width="6" height="20.77" rx="1.5" fill="#0ecb81" /><line x1="533.57" y1="227.29" x2="533.57" y2="245.24" stroke="#f6465d" stroke-width="1.4" /><rect x="530.57" y="231.50" width="6" height="7.86" rx="1.5" fill="#f6465d" /><line x1="544.30" y1="213.19" x2="544.30" y2="240.86" stroke="#0ecb81" stroke-width="1.4" /><rect x="541.30" y="226.51" width="6" height="12.91" rx="1.5" fill="#0ecb81" /><line x1="555.04" y1="210.79" x2="555.04" y2="230.96" stroke="#0ecb81" stroke-width="1.4" /><rect x="552.04" y="226.39" width="6" height="2.00" rx="1.5" fill="#0ecb81" /><line x1="565.77" y1="215.53" x2="565.77" y2="242.66" stroke="#f6465d" stroke-width="1.4" /><rect x="562.77" y="226.45" width="6" height="7.02" rx="1.5" fill="#f6465d" /><line x1="576.51" y1="230.06" x2="576.51" y2="257.97" stroke="#f6465d" stroke-width="1.4" /><rect x="573.51" y="233.48" width="6" height="6.78" rx="1.5" fill="#f6465d" /><line x1="587.24" y1="236.06" x2="587.24" y2="279.10" stroke="#0ecb81" stroke-width="1.4" /><rect x="584.24" y="239.66" width="6" height="2.00" rx="1.5" fill="#0ecb81" /><line x1="597.97" y1="226.99" x2="597.97" y2="278.32" stroke="#f6465d" stroke-width="1.4" /><rect x="594.97" y="239.66" width="6" height="7.14" rx="1.5" fill="#f6465d" /><line x1="608.71" y1="229.82" x2="608.71" y2="265.72" stroke="#f6465d" stroke-width="1.4" /><rect x="605.71" y="246.33" width="6" height="2.00" rx="1.5" fill="#f6465d" /><line x1="619.44" y1="223.09" x2="619.44" y2="246.81" stroke="#0ecb81" stroke-width="1.4" /><rect x="616.44" y="235.04" width="6" height="11.77" rx="1.5" fill="#0ecb81" /><line x1="630.18" y1="218.29" x2="630.18" y2="259.23" stroke="#f6465d" stroke-width="1.4" /><rect x="627.18" y="235.04" width="6" height="4.56" rx="1.5" fill="#f6465d" /><line x1="640.91" y1="231.56" x2="640.91" y2="261.15" stroke="#0ecb81" stroke-width="1.4" /><rect x="637.91" y="238.76" width="6" height="2.00" rx="1.5" fill="#0ecb81" /><line x1="651.65" y1="238.70" x2="651.65" y2="272.98" stroke="#f6465d" stroke-width="1.4" /><rect x="648.65" y="238.76" width="6" height="34.16" rx="1.5" fill="#f6465d" /><line x1="662.38" y1="204.90" x2="662.38" y2="295.79" stroke="#0ecb81" stroke-width="1.4" /><rect x="659.38" y="216.73" width="6" height="56.25" rx="1.5" fill="#0ecb81" /><line x1="673.11" y1="112.99" x2="673.11" y2="372.10" stroke="#f6465d" stroke-width="1.4" /><rect x="670.11" y="216.67" width="6" height="80.26" rx="1.5" fill="#f6465d" /><line x1="683.85" y1="244.28" x2="683.85" y2="310.38" stroke="#0ecb81" stroke-width="1.4" /><rect x="680.85" y="269.74" width="6" height="27.14" rx="1.5" fill="#0ecb81" /><line x1="694.58" y1="226.03" x2="694.58" y2="291.17" stroke="#0ecb81" stroke-width="1.4" /><rect x="691.58" y="237.20" width="6" height="32.54" rx="1.5" fill="#0ecb81" /><line x1="705.32" y1="199.14" x2="705.32" y2="362.97" stroke="#0ecb81" stroke-width="1.4" /><rect x="702.32" y="236.78" width="6" height="2.00" rx="1.5" fill="#0ecb81" /><line x1="716.05" y1="207.66" x2="716.05" y2="320.05" stroke="#f6465d" stroke-width="1.4" /><rect x="713.05" y="236.78" width="6" height="54.63" rx="1.5" fill="#f6465d" /><line x1="726.78" y1="282.47" x2="726.78" y2="414.06" stroke="#f6465d" stroke-width="1.4" /><rect x="723.78" y="291.35" width="6" height="120.31" rx="1.5" fill="#f6465d" /><line x1="737.52" y1="376.60" x2="737.52" y2="435.31" stroke="#f6465d" stroke-width="1.4" /><rect x="734.52" y="411.66" width="6" height="13.75" rx="1.5" fill="#f6465d" /><line x1="748.25" y1="356.61" x2="748.25" y2="425.41" stroke="#0ecb81" stroke-width="1.4" /><rect x="745.25" y="395.33" width="6" height="30.08" rx="1.5" fill="#0ecb81" /><line x1="758.99" y1="315.06" x2="758.99" y2="411.90" stroke="#0ecb81" stroke-width="1.4" /><rect x="755.99" y="315.84" width="6" height="79.54" rx="1.5" fill="#0ecb81" /><line x1="769.72" y1="298.73" x2="769.72" y2="452.00" stroke="#f6465d" stroke-width="1.4" /><rect x="766.72" y="315.84" width="6" height="123.61" rx="1.5" fill="#f6465d" /><line x1="780.46" y1="344.24" x2="780.46" y2="441.01" stroke="#0ecb81" stroke-width="1.4" /><rect x="777.46" y="354.81" width="6" height="85.55" rx="1.5" fill="#0ecb81" /><line x1="791.19" y1="309.96" x2="791.19" y2="362.91" stroke="#0ecb81" stroke-width="1.4" /><rect x="788.19" y="325.09" width="6" height="29.66" rx="1.5" fill="#0ecb81" /><line x1="801.92" y1="221.77" x2="801.92" y2="325.15" stroke="#0ecb81" stroke-width="1.4" /><rect x="798.92" y="224.11" width="6" height="101.04" rx="1.5" fill="#0ecb81" /><line x1="812.66" y1="218.35" x2="812.66" y2="330.79" stroke="#0ecb81" stroke-width="1.4" /><rect x="809.66" y="223.33" width="6" height="2.00" rx="1.5" fill="#0ecb81" /><line x1="823.39" y1="223.33" x2="823.39" y2="322.93" stroke="#f6465d" stroke-width="1.4" /><rect x="820.39" y="223.39" width="6" height="69.82" rx="1.5" fill="#f6465d" /><line x1="834.13" y1="286.07" x2="834.13" y2="329.77" stroke="#f6465d" stroke-width="1.4" /><rect x="831.13" y="293.21" width="6" height="15.07" rx="1.5" fill="#f6465d" /><line x1="844.86" y1="233.54" x2="844.86" y2="316.74" stroke="#0ecb81" stroke-width="1.4" /><rect x="841.86" y="248.61" width="6" height="60.51" rx="1.5" fill="#0ecb81" /><line x1="855.59" y1="58.00" x2="855.59" y2="249.33" stroke="#0ecb81" stroke-width="1.4" /><rect x="852.59" y="110.17" width="6" height="139.16" rx="1.5" fill="#0ecb81" /><line x1="866.33" y1="82.19" x2="866.33" y2="199.68" stroke="#f6465d" stroke-width="1.4" /><rect x="863.33" y="109.93" width="6" height="66.04" rx="1.5" fill="#f6465d" /><line x1="877.06" y1="145.83" x2="877.06" y2="186.41" stroke="#f6465d" stroke-width="1.4" /><rect x="874.06" y="176.03" width="6" height="10.33" rx="1.5" fill="#f6465d" /><line x1="887.80" y1="186.35" x2="887.80" y2="288.29" stroke="#f6465d" stroke-width="1.4" /><rect x="884.80" y="186.35" width="6" height="87.53" rx="1.5" fill="#f6465d" /><line x1="898.53" y1="252.99" x2="898.53" y2="307.50" stroke="#f6465d" stroke-width="1.4" /><rect x="895.53" y="273.88" width="6" height="10.75" rx="1.5" fill="#f6465d" /><line x1="909.27" y1="265.00" x2="909.27" y2="305.76" stroke="#0ecb81" stroke-width="1.4" /><rect x="906.27" y="273.70" width="6" height="10.87" rx="1.5" fill="#0ecb81" /><line x1="920.00" y1="247.29" x2="920.00" y2="282.23" stroke="#0ecb81" stroke-width="1.4" /><rect x="917.00" y="263.01" width="6" height="10.69" rx="1.5" fill="#0ecb81" />
  <polyline points="297.42,121.64 501.37,289.61 555.04,210.79 587.24,279.10 673.11,112.99" fill="none" stroke="#2fc273" stroke-width="4" stroke-linecap="round" stroke-linejoin="round" />
  <circle cx="297.42" cy="121.64" r="5.5" fill="#2fc273" fill-opacity="0.15" stroke="#2fc273" stroke-width="2" /><text x="297.42" y="109.64" fill="#f3f4f6" font-size="15" font-weight="700" text-anchor="middle">X</text><circle cx="501.37" cy="289.61" r="5.5" fill="#2fc273" fill-opacity="0.15" stroke="#2fc273" stroke-width="2" /><text x="501.37" y="277.61" fill="#f3f4f6" font-size="15" font-weight="700" text-anchor="middle">A</text><circle cx="555.04" cy="210.79" r="5.5" fill="#2fc273" fill-opacity="0.15" stroke="#2fc273" stroke-width="2" /><text x="555.04" y="198.79" fill="#f3f4f6" font-size="15" font-weight="700" text-anchor="middle">B</text><circle cx="587.24" cy="279.10" r="5.5" fill="#2fc273" fill-opacity="0.15" stroke="#2fc273" stroke-width="2" /><text x="587.24" y="267.10" fill="#f3f4f6" font-size="15" font-weight="700" text-anchor="middle">C</text><circle cx="673.11" cy="112.99" r="5.5" fill="#2fc273" fill-opacity="0.15" stroke="#2fc273" stroke-width="2" /><text x="673.11" y="100.99" fill="#f3f4f6" font-size="15" font-weight="700" text-anchor="middle">D</text>
  <text x="56" y="492" fill="#8ba0b5" font-size="18">일반 완성 · TP1 4620.12 · TP2 4613.59 · SL 4634.33</text>
</svg>
