<svg xmlns="http://www.w3.org/2000/svg" width="960" height="540" viewBox="0 0 960 540">
  <rect width="960" height="540" rx="24" fill="#0b1220" />
  <rect x="28" y="28" width="904" height="484" rx="22" fill="#111827" stroke="#1f2937" />
  <text x="56" y="74" fill="#f3f4f6" font-size="34" font-weight="700">XAUTUSDT · AB=CD</text>
  <text x="904" y="74" fill="#8ba0b5" font-size="20" text-anchor="end">Bullish (매수) · Score 85.4</text>
  <line x1="72" y1="58" x2="920" y2="58" stroke="#223045" stroke-width="1" stroke-dasharray="4 8" /><line x1="72" y1="156" x2="920" y2="156" stroke="#223045" stroke-width="1" stroke-dasharray="4 8" /><line x1="72" y1="255" x2="920" y2="255" stroke="#223045" stroke-width="1" stroke-dasharray="4 8" /><line x1="72" y1="353" x2="920" y2="353" stroke="#223045" stroke-width="1" stroke-dasharray="4 8" /><line x1="72" y1="452" x2="920" y2="452" stroke="#223045" stroke-width="1" stroke-dasharray="4 8" />
  <rect x="741.72" y="292.43" width="84" height="93.21" fill="#fbbf24" fill-opacity="0.12" stroke="#fbbf24" stroke-width="1.5" stroke-dasharray="6 6" />
  <line x1="72.00" y1="239.36" x2="72.00" y2="273.92" stroke="#f6465d" stroke-width="1.4" /><rect x="69.00" y="259.66" width="6" height="2.00" rx="1.5" fill="#f6465d" /><line x1="82.73" y1="246.70" x2="82.73" y2="285.99" stroke="#f6465d" stroke-width="1.4" /><rect x="79.73" y="260.75" width="6" height="16.41" rx="1.5" fill="#f6465d" /><line x1="93.47" y1="258.08" x2="93.47" y2="293.16" stroke="#0ecb81" stroke-width="1.4" /><rect x="90.47" y="260.55" width="6" height="16.65" rx="1.5" fill="#0ecb81" /><line x1="104.20" y1="260.51" x2="104.20" y2="288.46" stroke="#f6465d" stroke-width="1.4" /><rect x="101.20" y="260.51" width="6" height="6.16" rx="1.5" fill="#f6465d" /><line x1="114.94" y1="243.66" x2="114.94" y2="292.67" stroke="#f6465d" stroke-width="1.4" /><rect x="111.94" y="266.71" width="6" height="11.75" rx="1.5" fill="#f6465d" /><line x1="125.67" y1="269.38" x2="125.67" y2="317.34" stroke="#f6465d" stroke-width="1.4" /><rect x="122.67" y="278.46" width="6" height="24.55" rx="1.5" fill="#f6465d" /><line x1="136.41" y1="291.90" x2="136.41" y2="327.27" stroke="#f6465d" stroke-width="1.4" /><rect x="133.41" y="303.00" width="6" height="18.43" rx="1.5" fill="#f6465d" /><line x1="147.14" y1="305.68" x2="147.14" y2="329.46" stroke="#0ecb81" stroke-width="1.4" /><rect x="144.14" y="311.27" width="6" height="10.17" rx="1.5" fill="#0ecb81" /><line x1="157.87" y1="311.27" x2="157.87" y2="341.25" stroke="#f6465d" stroke-width="1.4" /><rect x="154.87" y="311.27" width="6" height="22.32" rx="1.5" fill="#f6465d" /><line x1="168.61" y1="310.78" x2="168.61" y2="333.55" stroke="#0ecb81" stroke-width="1.4" /><rect x="165.61" y="321.03" width="6" height="12.52" rx="1.5" fill="#0ecb81" /><line x1="179.34" y1="313.33" x2="179.34" y2="331.77" stroke="#f6465d" stroke-width="1.4" /><rect x="176.34" y="320.99" width="6" height="5.02" rx="1.5" fill="#f6465d" /><line x1="190.08" y1="315.16" x2="190.08" y2="333.87" stroke="#0ecb81" stroke-width="1.4" /><rect x="187.08" y="324.47" width="6" height="2.00" rx="1.5" fill="#0ecb81" /><line x1="200.81" y1="315.32" x2="200.81" y2="342.42" stroke="#f6465d" stroke-width="1.4" /><rect x="197.81" y="324.47" width="6" height="8.35" rx="1.5" fill="#f6465d" /><line x1="211.54" y1="313.33" x2="211.54" y2="332.86" stroke="#0ecb81" stroke-width="1.4" /><rect x="208.54" y="317.22" width="6" height="15.60" rx="1.5" fill="#0ecb81" /><line x1="222.28" y1="296.93" x2="222.28" y2="321.52" stroke="#0ecb81" stroke-width="1.4" /><rect x="219.28" y="303.21" width="6" height="14.02" rx="1.5" fill="#0ecb81" /><line x1="233.01" y1="300.37" x2="233.01" y2="312.48" stroke="#f6465d" stroke-width="1.4" /><rect x="230.01" y="303.21" width="6" height="5.31" rx="1.5" fill="#f6465d" /><line x1="243.75" y1="290.85" x2="243.75" y2="309.53" stroke="#0ecb81" stroke-width="1.4" /><rect x="240.75" y="299.84" width="6" height="8.71" rx="1.5" fill="#0ecb81" /><line x1="254.48" y1="289.23" x2="254.48" y2="302.84" stroke="#0ecb81" stroke-width="1.4" /><rect x="251.48" y="299.76" width="6" height="2.00" rx="1.5" fill="#0ecb81" /><line x1="265.22" y1="292.43" x2="265.22" y2="310.74" stroke="#f6465d" stroke-width="1.4" /><rect x="262.22" y="299.80" width="6" height="4.74" rx="1.5" fill="#f6465d" /><line x1="275.95" y1="302.23" x2="275.95" y2="321.07" stroke="#f6465d" stroke-width="1.4" /><rect x="272.95" y="304.54" width="6" height="4.58" rx="1.5" fill="#f6465d" /><line x1="286.68" y1="306.29" x2="286.68" y2="335.33" stroke="#0ecb81" stroke-width="1.4" /><rect x="283.68" y="308.72" width="6" height="2.00" rx="1.5" fill="#0ecb81" /><line x1="297.42" y1="300.17" x2="297.42" y2="334.80" stroke="#f6465d" stroke-width="1.4" /><rect x="294.42" y="308.72" width="6" height="4.82" rx="1.5" fill="#f6465d" /><line x1="308.15" y1="302.07" x2="308.15" y2="326.30" stroke="#f6465d" stroke-width="1.4" /><rect x="305.15" y="313.21" width="6" height="2.00" rx="1.5" fill="#f6465d" /><line x1="318.89" y1="297.54" x2="318.89" y2="313.54" stroke="#0ecb81" stroke-width="1.4" /><rect x="315.89" y="305.60" width="6" height="7.94" rx="1.5" fill="#0ecb81" /><line x1="329.62" y1="294.29" x2="329.62" y2="321.92" stroke="#f6465d" stroke-width="1.4" /><rect x="326.62" y="305.60" width="6" height="3.08" rx="1.5" fill="#f6465d" /><line x1="340.35" y1="303.25" x2="340.35" y2="323.22" stroke="#0ecb81" stroke-width="1.4" /><rect x="337.35" y="308.11" width="6" height="2.00" rx="1.5" fill="#0ecb81" /><line x1="351.09" y1="308.07" x2="351.09" y2="331.20" stroke="#f6465d" stroke-width="1.4" /><rect x="348.09" y="308.11" width="6" height="23.05" rx="1.5" fill="#f6465d" /><line x1="361.82" y1="285.26" x2="361.82" y2="346.59" stroke="#0ecb81" stroke-width="1.4" /><rect x="358.82" y="293.24" width="6" height="37.96" rx="1.5" fill="#0ecb81" /><line x1="372.56" y1="223.24" x2="372.56" y2="398.08" stroke="#f6465d" stroke-width="1.4" /><rect x="369.56" y="293.20" width="6" height="54.16" rx="1.5" fill="#f6465d" /><line x1="383.29" y1="311.84" x2="383.29" y2="356.44" stroke="#0ecb81" stroke-width="1.4" /><rect x="380.29" y="329.01" width="6" height="18.31" rx="1.5" fill="#0ecb81" /><line x1="394.03" y1="299.52" x2="394.03" y2="343.47" stroke="#0ecb81" stroke-width="1.4" /><rect x="391.03" y="307.06" width="6" height="21.96" rx="1.5" fill="#0ecb81" /><line x1="404.76" y1="281.37" x2="404.76" y2="391.92" stroke="#0ecb81" stroke-width="1.4" /><rect x="401.76" y="306.77" width="6" height="2.00" rx="1.5" fill="#0ecb81" /><line x1="415.49" y1="287.12" x2="415.49" y2="362.96" stroke="#f6465d" stroke-width="1.4" /><rect x="412.49" y="306.77" width="6" height="36.86" rx="1.5" fill="#f6465d" /><line x1="426.23" y1="337.60" x2="426.23" y2="426.40" stroke="#f6465d" stroke-width="1.4" /><rect x="423.23" y="343.60" width="6" height="81.18" rx="1.5" fill="#f6465d" /><line x1="436.96" y1="401.12" x2="436.96" y2="440.74" stroke="#f6465d" stroke-width="1.4" /><rect x="433.96" y="424.78" width="6" height="9.28" rx="1.5" fill="#f6465d" /><line x1="447.70" y1="387.63" x2="447.70" y2="434.05" stroke="#0ecb81" stroke-width="1.4" /><rect x="444.70" y="413.76" width="6" height="20.30" rx="1.5" fill="#0ecb81" /><line x1="458.43" y1="359.60" x2="458.43" y2="424.94" stroke="#0ecb81" stroke-width="1.4" /><rect x="455.43" y="360.12" width="6" height="53.68" rx="1.5" fill="#0ecb81" /><line x1="469.16" y1="348.58" x2="469.16" y2="452.00" stroke="#f6465d" stroke-width="1.4" /><rect x="466.16" y="360.12" width="6" height="83.41" rx="1.5" fill="#f6465d" /><line x1="479.90" y1="379.28" x2="479.90" y2="444.59" stroke="#0ecb81" stroke-width="1.4" /><rect x="476.90" y="386.41" width="6" height="57.73" rx="1.5" fill="#0ecb81" /><line x1="490.63" y1="356.15" x2="490.63" y2="391.88" stroke="#0ecb81" stroke-width="1.4" /><rect x="487.63" y="366.36" width="6" height="20.01" rx="1.5" fill="#0ecb81" /><line x1="501.37" y1="296.64" x2="501.37" y2="366.40" stroke="#0ecb81" stroke-width="1.4" /><rect x="498.37" y="298.22" width="6" height="68.18" rx="1.5" fill="#0ecb81" /><line x1="512.10" y1="294.34" x2="512.10" y2="370.21" stroke="#0ecb81" stroke-width="1.4" /><rect x="509.10" y="297.70" width="6" height="2.00" rx="1.5" fill="#0ecb81" /><line x1="522.84" y1="297.70" x2="522.84" y2="364.90" stroke="#f6465d" stroke-width="1.4" /><rect x="519.84" y="297.74" width="6" height="47.11" rx="1.5" fill="#f6465d" /><line x1="533.57" y1="340.03" x2="533.57" y2="369.52" stroke="#f6465d" stroke-width="1.4" /><rect x="530.57" y="344.85" width="6" height="10.17" rx="1.5" fill="#f6465d" /><line x1="544.30" y1="304.58" x2="544.30" y2="360.73" stroke="#0ecb81" stroke-width="1.4" /><rect x="541.30" y="314.75" width="6" height="40.83" rx="1.5" fill="#0ecb81" /><line x1="555.04" y1="186.13" x2="555.04" y2="315.24" stroke="#0ecb81" stroke-width="1.4" /><rect x="552.04" y="221.34" width="6" height="93.90" rx="1.5" fill="#0ecb81" /><line x1="565.77" y1="202.46" x2="565.77" y2="281.74" stroke="#f6465d" stroke-width="1.4" /><rect x="562.77" y="221.17" width="6" height="44.56" rx="1.5" fill="#f6465d" /><line x1="576.51" y1="245.40" x2="576.51" y2="272.78" stroke="#f6465d" stroke-width="1.4" /><rect x="573.51" y="265.78" width="6" height="6.97" rx="1.5" fill="#f6465d" /><line x1="587.24" y1="272.74" x2="587.24" y2="341.53" stroke="#f6465d" stroke-width="1.4" /><rect x="584.24" y="272.74" width="6" height="59.06" rx="1.5" fill="#f6465d" /><line x1="597.97" y1="317.71" x2="597.97" y2="354.49" stroke="#f6465d" stroke-width="1.4" /><rect x="594.97" y="331.81" width="6" height="7.25" rx="1.5" fill="#f6465d" /><line x1="608.71" y1="325.81" x2="608.71" y2="353.32" stroke="#0ecb81" stroke-width="1.4" /><rect x="605.71" y="331.69" width="6" height="7.33" rx="1.5" fill="#0ecb81" /><line x1="619.44" y1="299.44" x2="619.44" y2="337.44" stroke="#0ecb81" stroke-width="1.4" /><rect x="616.44" y="306.81" width="6" height="24.87" rx="1.5" fill="#0ecb81" /><line x1="630.18" y1="272.34" x2="630.18" y2="306.77" stroke="#0ecb81" stroke-width="1.4" /><rect x="627.18" y="287.89" width="6" height="18.88" rx="1.5" fill="#0ecb81" /><line x1="640.91" y1="282.75" x2="640.91" y2="297.74" stroke="#0ecb81" stroke-width="1.4" /><rect x="637.91" y="282.75" width="6" height="5.14" rx="1.5" fill="#0ecb81" /><line x1="651.65" y1="264.32" x2="651.65" y2="293.69" stroke="#0ecb81" stroke-width="1.4" /><rect x="648.65" y="267.11" width="6" height="15.64" rx="1.5" fill="#0ecb81" /><line x1="662.38" y1="236.57" x2="662.38" y2="273.35" stroke="#0ecb81" stroke-width="1.4" /><rect x="659.38" y="236.61" width="6" height="30.46" rx="1.5" fill="#0ecb81" /><line x1="673.11" y1="171.27" x2="673.11" y2="237.50" stroke="#0ecb81" stroke-width="1.4" /><rect x="670.11" y="181.47" width="6" height="55.09" rx="1.5" fill="#0ecb81" /><line x1="683.85" y1="165.47" x2="683.85" y2="207.40" stroke="#f6465d" stroke-width="1.4" /><rect x="680.85" y="181.47" width="6" height="25.44" rx="1.5" fill="#f6465d" /><line x1="694.58" y1="201.36" x2="694.58" y2="231.91" stroke="#f6465d" stroke-width="1.4" /><rect x="691.58" y="206.96" width="6" height="21.02" rx="1.5" fill="#f6465d" /><line x1="705.32" y1="207.40" x2="705.32" y2="258.73" stroke="#f6465d" stroke-width="1.4" /><rect x="702.32" y="227.94" width="6" height="29.57" rx="1.5" fill="#f6465d" /><line x1="716.05" y1="221.05" x2="716.05" y2="284.65" stroke="#0ecb81" stroke-width="1.4" /><rect x="713.05" y="222.96" width="6" height="34.51" rx="1.5" fill="#0ecb81" /><line x1="726.78" y1="219.47" x2="726.78" y2="258.40" stroke="#f6465d" stroke-width="1.4" /><rect x="723.78" y="222.92" width="6" height="25.48" rx="1.5" fill="#f6465d" /><line x1="737.52" y1="235.47" x2="737.52" y2="262.53" stroke="#0ecb81" stroke-width="1.4" /><rect x="734.52" y="245.16" width="6" height="2.67" rx="1.5" fill="#0ecb81" /><line x1="748.25" y1="202.09" x2="748.25" y2="250.38" stroke="#0ecb81" stroke-width="1.4" /><rect x="745.25" y="210.44" width="6" height="34.72" rx="1.5" fill="#0ecb81" /><line x1="758.99" y1="205.94" x2="758.99" y2="271.73" stroke="#f6465d" stroke-width="1.4" /><rect x="755.99" y="210.40" width="6" height="51.37" rx="1.5" fill="#f6465d" /><line x1="769.72" y1="246.90" x2="769.72" y2="286.44" stroke="#f6465d" stroke-width="1.4" /><rect x="766.72" y="261.44" width="6" height="8.83" rx="1.5" fill="#f6465d" /><line x1="780.46" y1="216.48" x2="780.46" y2="270.84" stroke="#0ecb81" stroke-width="1.4" /><rect x="777.46" y="222.31" width="6" height="48.53" rx="1.5" fill="#0ecb81" /><line x1="791.19" y1="131.85" x2="791.19" y2="224.37" stroke="#0ecb81" stroke-width="1.4" /><rect x="788.19" y="145.26" width="6" height="76.77" rx="1.5" fill="#0ecb81" /><line x1="801.92" y1="105.76" x2="801.92" y2="158.55" stroke="#0ecb81" stroke-width="1.4" /><rect x="798.92" y="120.18" width="6" height="25.04" rx="1.5" fill="#0ecb81" /><line x1="812.66" y1="99.36" x2="812.66" y2="138.17" stroke="#0ecb81" stroke-width="1.4" /><rect x="809.66" y="117.31" width="6" height="2.88" rx="1.5" fill="#0ecb81" /><line x1="823.39" y1="101.26" x2="823.39" y2="122.17" stroke="#0ecb81" stroke-width="1.4" /><rect x="820.39" y="110.99" width="6" height="6.81" rx="1.5" fill="#0ecb81" /><line x1="834.13" y1="91.95" x2="834.13" y2="112.77" stroke="#0ecb81" stroke-width="1.4" /><rect x="831.13" y="99.56" width="6" height="10.98" rx="1.5" fill="#0ecb81" /><line x1="844.86" y1="68.94" x2="844.86" y2="99.56" stroke="#0ecb81" stroke-width="1.4" /><rect x="841.86" y="72.54" width="6" height="26.98" rx="1.5" fill="#0ecb81" /><line x1="855.59" y1="64.64" x2="855.59" y2="82.71" stroke="#0ecb81" stroke-width="1.4" /><rect x="852.59" y="72.46" width="6" height="2.00" rx="1.5" fill="#0ecb81" /><line x1="866.33" y1="58.00" x2="866.33" y2="78.42" stroke="#0ecb81" stroke-width="1.4" /><rect x="863.33" y="69.14" width="6" height="3.28" rx="1.5" fill="#0ecb81" /><line x1="877.06" y1="64.64" x2="877.06" y2="116.62" stroke="#f6465d" stroke-width="1.4" /><rect x="874.06" y="69.14" width="6" height="36.95" rx="1.5" fill="#f6465d" /><line x1="887.80" y1="92.47" x2="887.80" y2="128.45" stroke="#f6465d" stroke-width="1.4" /><rect x="884.80" y="106.09" width="6" height="20.34" rx="1.5" fill="#f6465d" /><line x1="898.53" y1="110.78" x2="898.53" y2="136.06" stroke="#0ecb81" stroke-width="1.4" /><rect x="895.53" y="123.14" width="6" height="4.29" rx="1.5" fill="#0ecb81" /><line x1="909.27" y1="97.98" x2="909.27" y2="125.57" stroke="#0ecb81" stroke-width="1.4" /><rect x="906.27" y="100.78" width="6" height="22.24" rx="1.5" fill="#0ecb81" /><line x1="920.00" y1="100.74" x2="920.00" y2="143.15" stroke="#f6465d" stroke-width="1.4" /><rect x="917.00" y="100.74" width="6" height="2.00" rx="1.5" fill="#f6465d" />
  <polyline points="597.97,354.49 683.85,165.47 716.05,284.65 748.25,202.09 769.72,286.44" fill="none" stroke="#2fc273" stroke-width="4" stroke-linecap="round" stroke-linejoin="round" />
  <circle cx="597.97" cy="354.49" r="5.5" fill="#2fc273" fill-opacity="0.15" stroke="#2fc273" stroke-width="2" /><text x="597.97" y="342.49" fill="#f3f4f6" font-size="15" font-weight="700" text-anchor="middle">X</text><circle cx="683.85" cy="165.47" r="5.5" fill="#2fc273" fill-opacity="0.15" stroke="#2fc273" stroke-width="2" /><text x="683.85" y="153.47" fill="#f3f4f6" font-size="15" font-weight="700" text-anchor="middle">A</text><circle cx="716.05" cy="284.65" r="5.5" fill="#2fc273" fill-opacity="0.15" stroke="#2fc273" stroke-width="2" /><text x="716.05" y="272.65" fill="#f3f4f6" font-size="15" font-weight="700" text-anchor="middle">B</text><circle cx="748.25" cy="202.09" r="5.5" fill="#2fc273" fill-opacity="0.15" stroke="#2fc273" stroke-width="2" /><text x="748.25" y="190.09" fill="#f3f4f6" font-size="15" font-weight="700" text-anchor="middle">C</text><circle cx="769.72" cy="286.44" r="5.5" fill="#2fc273" fill-opacity="0.15" stroke="#2fc273" stroke-width="2" /><text x="769.72" y="274.44" fill="#f3f4f6" font-size="15" font-weight="700" text-anchor="middle">D</text>
  <text x="56" y="492" fill="#8ba0b5" font-size="18">일반 완성 · TP1 4623.04 · TP2 4627.96 · SL 4609.02</text>
</svg>
