<svg xmlns="http://www.w3.org/2000/svg" width="960" height="540" viewBox="0 0 960 540">
  <rect width="960" height="540" rx="24" fill="#0b1220" />
  <rect x="28" y="28" width="904" height="484" rx="22" fill="#111827" stroke="#1f2937" />
  <text x="56" y="74" fill="#f3f4f6" font-size="34" font-weight="700">XMRUSDT · AB=CD</text>
  <text x="904" y="74" fill="#8ba0b5" font-size="20" text-anchor="end">Bearish (매도) · Score 81.8</text>
  <line x1="72" y1="58" x2="920" y2="58" stroke="#223045" stroke-width="1" stroke-dasharray="4 8" /><line x1="72" y1="156" x2="920" y2="156" stroke="#223045" stroke-width="1" stroke-dasharray="4 8" /><line x1="72" y1="255" x2="920" y2="255" stroke="#223045" stroke-width="1" stroke-dasharray="4 8" /><line x1="72" y1="353" x2="920" y2="353" stroke="#223045" stroke-width="1" stroke-dasharray="4 8" /><line x1="72" y1="452" x2="920" y2="452" stroke="#223045" stroke-width="1" stroke-dasharray="4 8" />
  <rect x="773.92" y="-79.87" width="84" height="124.01" fill="#fbbf24" fill-opacity="0.12" stroke="#fbbf24" stroke-width="1.5" stroke-dasharray="6 6" />
  <line x1="72.00" y1="406.13" x2="72.00" y2="452.00" stroke="#f6465d" stroke-width="1.4" /><rect x="69.00" y="420.65" width="6" height="13.86" rx="1.5" fill="#f6465d" /><line x1="82.73" y1="412.07" x2="82.73" y2="439.46" stroke="#0ecb81" stroke-width="1.4" /><rect x="79.73" y="420.98" width="6" height="13.53" rx="1.5" fill="#0ecb81" /><line x1="93.47" y1="358.28" x2="93.47" y2="421.31" stroke="#0ecb81" stroke-width="1.4" /><rect x="90.47" y="374.45" width="6" height="46.86" rx="1.5" fill="#0ecb81" /><line x1="104.20" y1="374.12" x2="104.20" y2="401.84" stroke="#f6465d" stroke-width="1.4" /><rect x="101.20" y="374.45" width="6" height="13.53" rx="1.5" fill="#f6465d" /><line x1="114.94" y1="343.77" x2="114.94" y2="395.57" stroke="#0ecb81" stroke-width="1.4" /><rect x="111.94" y="353.66" width="6" height="33.99" rx="1.5" fill="#0ecb81" /><line x1="125.67" y1="318.69" x2="125.67" y2="353.66" stroke="#0ecb81" stroke-width="1.4" /><rect x="122.67" y="326.28" width="6" height="27.39" rx="1.5" fill="#0ecb81" /><line x1="136.41" y1="290.64" x2="136.41" y2="332.55" stroke="#0ecb81" stroke-width="1.4" /><rect x="133.41" y="320.34" width="6" height="6.27" rx="1.5" fill="#0ecb81" /><line x1="147.14" y1="285.03" x2="147.14" y2="328.92" stroke="#0ecb81" stroke-width="1.4" /><rect x="144.14" y="298.89" width="6" height="21.78" rx="1.5" fill="#0ecb81" /><line x1="157.87" y1="293.28" x2="157.87" y2="344.10" stroke="#f6465d" stroke-width="1.4" /><rect x="154.87" y="298.89" width="6" height="38.28" rx="1.5" fill="#f6465d" /><line x1="168.61" y1="307.47" x2="168.61" y2="382.37" stroke="#f6465d" stroke-width="1.4" /><rect x="165.61" y="337.17" width="6" height="33.00" rx="1.5" fill="#f6465d" /><line x1="179.34" y1="344.76" x2="179.34" y2="377.75" stroke="#0ecb81" stroke-width="1.4" /><rect x="176.34" y="349.05" width="6" height="20.79" rx="1.5" fill="#0ecb81" /><line x1="190.08" y1="291.30" x2="190.08" y2="350.70" stroke="#0ecb81" stroke-width="1.4" /><rect x="187.08" y="307.80" width="6" height="40.92" rx="1.5" fill="#0ecb81" /><line x1="200.81" y1="296.58" x2="200.81" y2="331.56" stroke="#0ecb81" stroke-width="1.4" /><rect x="197.81" y="302.52" width="6" height="5.61" rx="1.5" fill="#0ecb81" /><line x1="211.54" y1="218.70" x2="211.54" y2="314.73" stroke="#0ecb81" stroke-width="1.4" /><rect x="208.54" y="219.36" width="6" height="83.16" rx="1.5" fill="#0ecb81" /><line x1="222.28" y1="210.12" x2="222.28" y2="239.16" stroke="#f6465d" stroke-width="1.4" /><rect x="219.28" y="219.03" width="6" height="5.28" rx="1.5" fill="#f6465d" /><line x1="233.01" y1="223.32" x2="233.01" y2="280.74" stroke="#f6465d" stroke-width="1.4" /><rect x="230.01" y="224.97" width="6" height="50.82" rx="1.5" fill="#f6465d" /><line x1="243.75" y1="229.26" x2="243.75" y2="277.44" stroke="#0ecb81" stroke-width="1.4" /><rect x="240.75" y="229.26" width="6" height="45.87" rx="1.5" fill="#0ecb81" /><line x1="254.48" y1="200.88" x2="254.48" y2="236.52" stroke="#0ecb81" stroke-width="1.4" /><rect x="251.48" y="207.81" width="6" height="20.46" rx="1.5" fill="#0ecb81" /><line x1="265.22" y1="189.33" x2="265.22" y2="224.64" stroke="#0ecb81" stroke-width="1.4" /><rect x="262.22" y="192.96" width="6" height="14.85" rx="1.5" fill="#0ecb81" /><line x1="275.95" y1="192.96" x2="275.95" y2="245.10" stroke="#f6465d" stroke-width="1.4" /><rect x="272.95" y="193.62" width="6" height="37.95" rx="1.5" fill="#f6465d" /><line x1="286.68" y1="172.83" x2="286.68" y2="232.23" stroke="#0ecb81" stroke-width="1.4" /><rect x="283.68" y="172.83" width="6" height="58.74" rx="1.5" fill="#0ecb81" /><line x1="297.42" y1="161.94" x2="297.42" y2="205.17" stroke="#0ecb81" stroke-width="1.4" /><rect x="294.42" y="165.90" width="6" height="6.93" rx="1.5" fill="#0ecb81" /><line x1="308.15" y1="164.25" x2="308.15" y2="220.02" stroke="#f6465d" stroke-width="1.4" /><rect x="305.15" y="165.90" width="6" height="45.54" rx="1.5" fill="#f6465d" /><line x1="318.89" y1="169.86" x2="318.89" y2="220.02" stroke="#0ecb81" stroke-width="1.4" /><rect x="315.89" y="175.80" width="6" height="35.64" rx="1.5" fill="#0ecb81" /><line x1="329.62" y1="169.86" x2="329.62" y2="212.10" stroke="#f6465d" stroke-width="1.4" /><rect x="326.62" y="175.80" width="6" height="27.39" rx="1.5" fill="#f6465d" /><line x1="340.35" y1="189.00" x2="340.35" y2="224.31" stroke="#0ecb81" stroke-width="1.4" /><rect x="337.35" y="189.66" width="6" height="13.53" rx="1.5" fill="#0ecb81" /><line x1="351.09" y1="175.80" x2="351.09" y2="201.21" stroke="#0ecb81" stroke-width="1.4" /><rect x="348.09" y="189.33" width="6" height="2.00" rx="1.5" fill="#0ecb81" /><line x1="361.82" y1="188.67" x2="361.82" y2="262.26" stroke="#f6465d" stroke-width="1.4" /><rect x="358.82" y="188.67" width="6" height="52.80" rx="1.5" fill="#f6465d" /><line x1="372.56" y1="215.73" x2="372.56" y2="252.36" stroke="#0ecb81" stroke-width="1.4" /><rect x="369.56" y="215.73" width="6" height="25.74" rx="1.5" fill="#0ecb81" /><line x1="383.29" y1="206.49" x2="383.29" y2="224.64" stroke="#0ecb81" stroke-width="1.4" /><rect x="380.29" y="213.42" width="6" height="2.64" rx="1.5" fill="#0ecb81" /><line x1="394.03" y1="174.15" x2="394.03" y2="217.38" stroke="#0ecb81" stroke-width="1.4" /><rect x="391.03" y="174.15" width="6" height="39.27" rx="1.5" fill="#0ecb81" /><line x1="404.76" y1="138.52" x2="404.76" y2="187.68" stroke="#0ecb81" stroke-width="1.4" /><rect x="401.76" y="148.42" width="6" height="25.41" rx="1.5" fill="#0ecb81" /><line x1="415.49" y1="138.19" x2="415.49" y2="186.36" stroke="#f6465d" stroke-width="1.4" /><rect x="412.49" y="148.75" width="6" height="32.01" rx="1.5" fill="#f6465d" /><line x1="426.23" y1="171.18" x2="426.23" y2="245.43" stroke="#f6465d" stroke-width="1.4" /><rect x="423.23" y="180.75" width="6" height="58.08" rx="1.5" fill="#f6465d" /><line x1="436.96" y1="208.80" x2="436.96" y2="245.76" stroke="#0ecb81" stroke-width="1.4" /><rect x="433.96" y="236.19" width="6" height="3.96" rx="1.5" fill="#0ecb81" /><line x1="447.70" y1="182.40" x2="447.70" y2="246.09" stroke="#0ecb81" stroke-width="1.4" /><rect x="444.70" y="190.65" width="6" height="45.21" rx="1.5" fill="#0ecb81" /><line x1="458.43" y1="141.49" x2="458.43" y2="192.30" stroke="#0ecb81" stroke-width="1.4" /><rect x="455.43" y="150.07" width="6" height="40.59" rx="1.5" fill="#0ecb81" /><line x1="469.16" y1="146.11" x2="469.16" y2="198.90" stroke="#f6465d" stroke-width="1.4" /><rect x="466.16" y="149.74" width="6" height="48.84" rx="1.5" fill="#f6465d" /><line x1="479.90" y1="160.62" x2="479.90" y2="201.54" stroke="#0ecb81" stroke-width="1.4" /><rect x="476.90" y="165.24" width="6" height="33.33" rx="1.5" fill="#0ecb81" /><line x1="490.63" y1="162.60" x2="490.63" y2="190.32" stroke="#f6465d" stroke-width="1.4" /><rect x="487.63" y="165.24" width="6" height="21.78" rx="1.5" fill="#f6465d" /><line x1="501.37" y1="173.49" x2="501.37" y2="203.85" stroke="#0ecb81" stroke-width="1.4" /><rect x="498.37" y="181.41" width="6" height="5.61" rx="1.5" fill="#0ecb81" /><line x1="512.10" y1="172.83" x2="512.10" y2="223.65" stroke="#f6465d" stroke-width="1.4" /><rect x="509.10" y="181.41" width="6" height="42.24" rx="1.5" fill="#f6465d" /><line x1="522.84" y1="181.41" x2="522.84" y2="229.59" stroke="#0ecb81" stroke-width="1.4" /><rect x="519.84" y="183.39" width="6" height="39.93" rx="1.5" fill="#0ecb81" /><line x1="533.57" y1="172.83" x2="533.57" y2="218.37" stroke="#f6465d" stroke-width="1.4" /><rect x="530.57" y="183.06" width="6" height="16.83" rx="1.5" fill="#f6465d" /><line x1="544.30" y1="136.87" x2="544.30" y2="215.73" stroke="#0ecb81" stroke-width="1.4" /><rect x="541.30" y="157.65" width="6" height="41.58" rx="1.5" fill="#0ecb81" /><line x1="555.04" y1="134.56" x2="555.04" y2="175.80" stroke="#f6465d" stroke-width="1.4" /><rect x="552.04" y="157.32" width="6" height="9.90" rx="1.5" fill="#f6465d" /><line x1="565.77" y1="134.56" x2="565.77" y2="171.18" stroke="#0ecb81" stroke-width="1.4" /><rect x="562.77" y="148.75" width="6" height="18.48" rx="1.5" fill="#0ecb81" /><line x1="576.51" y1="129.94" x2="576.51" y2="150.07" stroke="#0ecb81" stroke-width="1.4" /><rect x="573.51" y="134.23" width="6" height="14.85" rx="1.5" fill="#0ecb81" /><line x1="587.24" y1="90.67" x2="587.24" y2="146.44" stroke="#0ecb81" stroke-width="1.4" /><rect x="584.24" y="90.67" width="6" height="41.25" rx="1.5" fill="#0ecb81" /><line x1="597.97" y1="58.00" x2="597.97" y2="96.28" stroke="#0ecb81" stroke-width="1.4" /><rect x="594.97" y="88.03" width="6" height="2.97" rx="1.5" fill="#0ecb81" /><line x1="608.71" y1="79.12" x2="608.71" y2="123.67" stroke="#f6465d" stroke-width="1.4" /><rect x="605.71" y="88.36" width="6" height="34.32" rx="1.5" fill="#f6465d" /><line x1="619.44" y1="86.71" x2="619.44" y2="151.72" stroke="#0ecb81" stroke-width="1.4" /><rect x="616.44" y="118.72" width="6" height="3.96" rx="1.5" fill="#0ecb81" /><line x1="630.18" y1="89.02" x2="630.18" y2="143.14" stroke="#0ecb81" stroke-width="1.4" /><rect x="627.18" y="96.94" width="6" height="22.11" rx="1.5" fill="#0ecb81" /><line x1="640.91" y1="68.23" x2="640.91" y2="133.57" stroke="#f6465d" stroke-width="1.4" /><rect x="637.91" y="97.27" width="6" height="33.66" rx="1.5" fill="#f6465d" /><line x1="651.65" y1="128.29" x2="651.65" y2="158.31" stroke="#f6465d" stroke-width="1.4" /><rect x="648.65" y="130.93" width="6" height="21.45" rx="1.5" fill="#f6465d" /><line x1="662.38" y1="123.34" x2="662.38" y2="169.20" stroke="#f6465d" stroke-width="1.4" /><rect x="659.38" y="152.38" width="6" height="5.94" rx="1.5" fill="#f6465d" /><line x1="673.11" y1="150.40" x2="673.11" y2="182.40" stroke="#f6465d" stroke-width="1.4" /><rect x="670.11" y="158.31" width="6" height="5.28" rx="1.5" fill="#f6465d" /><line x1="683.85" y1="145.12" x2="683.85" y2="188.34" stroke="#f6465d" stroke-width="1.4" /><rect x="680.85" y="163.59" width="6" height="12.54" rx="1.5" fill="#f6465d" /><line x1="694.58" y1="153.37" x2="694.58" y2="187.35" stroke="#0ecb81" stroke-width="1.4" /><rect x="691.58" y="155.02" width="6" height="21.45" rx="1.5" fill="#0ecb81" /><line x1="705.32" y1="139.84" x2="705.32" y2="188.67" stroke="#f6465d" stroke-width="1.4" /><rect x="702.32" y="154.69" width="6" height="28.71" rx="1.5" fill="#f6465d" /><line x1="716.05" y1="162.27" x2="716.05" y2="196.59" stroke="#f6465d" stroke-width="1.4" /><rect x="713.05" y="183.72" width="6" height="2.00" rx="1.5" fill="#f6465d" /><line x1="726.78" y1="177.78" x2="726.78" y2="213.75" stroke="#f6465d" stroke-width="1.4" /><rect x="723.78" y="185.37" width="6" height="17.49" rx="1.5" fill="#f6465d" /><line x1="737.52" y1="167.55" x2="737.52" y2="214.41" stroke="#0ecb81" stroke-width="1.4" /><rect x="734.52" y="197.25" width="6" height="5.61" rx="1.5" fill="#0ecb81" /><line x1="748.25" y1="174.15" x2="748.25" y2="215.73" stroke="#0ecb81" stroke-width="1.4" /><rect x="745.25" y="190.98" width="6" height="5.94" rx="1.5" fill="#0ecb81" /><line x1="758.99" y1="136.87" x2="758.99" y2="194.61" stroke="#0ecb81" stroke-width="1.4" /><rect x="755.99" y="141.16" width="6" height="49.50" rx="1.5" fill="#0ecb81" /><line x1="769.72" y1="135.55" x2="769.72" y2="164.25" stroke="#f6465d" stroke-width="1.4" /><rect x="766.72" y="140.83" width="6" height="11.55" rx="1.5" fill="#f6465d" /><line x1="780.46" y1="134.56" x2="780.46" y2="158.97" stroke="#0ecb81" stroke-width="1.4" /><rect x="777.46" y="136.54" width="6" height="15.84" rx="1.5" fill="#0ecb81" /><line x1="791.19" y1="107.17" x2="791.19" y2="142.48" stroke="#0ecb81" stroke-width="1.4" /><rect x="788.19" y="113.11" width="6" height="22.77" rx="1.5" fill="#0ecb81" /><line x1="801.92" y1="100.24" x2="801.92" y2="130.60" stroke="#f6465d" stroke-width="1.4" /><rect x="798.92" y="112.78" width="6" height="15.84" rx="1.5" fill="#f6465d" /><line x1="812.66" y1="114.76" x2="812.66" y2="169.53" stroke="#f6465d" stroke-width="1.4" /><rect x="809.66" y="128.29" width="6" height="33.99" rx="1.5" fill="#f6465d" /><line x1="823.39" y1="144.13" x2="823.39" y2="164.91" stroke="#0ecb81" stroke-width="1.4" /><rect x="820.39" y="155.35" width="6" height="6.93" rx="1.5" fill="#0ecb81" /><line x1="834.13" y1="154.03" x2="834.13" y2="189.00" stroke="#f6465d" stroke-width="1.4" /><rect x="831.13" y="155.02" width="6" height="33.33" rx="1.5" fill="#f6465d" /><line x1="844.86" y1="156.66" x2="844.86" y2="188.01" stroke="#0ecb81" stroke-width="1.4" /><rect x="841.86" y="158.97" width="6" height="29.04" rx="1.5" fill="#0ecb81" /><line x1="855.59" y1="143.80" x2="855.59" y2="168.21" stroke="#0ecb81" stroke-width="1.4" /><rect x="852.59" y="156.99" width="6" height="2.00" rx="1.5" fill="#0ecb81" /><line x1="866.33" y1="124.00" x2="866.33" y2="161.61" stroke="#0ecb81" stroke-width="1.4" /><rect x="863.33" y="147.76" width="6" height="9.24" rx="1.5" fill="#0ecb81" /><line x1="877.06" y1="113.11" x2="877.06" y2="149.74" stroke="#0ecb81" stroke-width="1.4" /><rect x="874.06" y="126.64" width="6" height="20.79" rx="1.5" fill="#0ecb81" /><line x1="887.80" y1="107.17" x2="887.80" y2="129.28" stroke="#0ecb81" stroke-width="1.4" /><rect x="884.80" y="112.78" width="6" height="12.87" rx="1.5" fill="#0ecb81" /><line x1="898.53" y1="112.78" x2="898.53" y2="143.14" stroke="#f6465d" stroke-width="1.4" /><rect x="895.53" y="112.78" width="6" height="22.77" rx="1.5" fill="#f6465d" /><line x1="909.27" y1="97.27" x2="909.27" y2="144.46" stroke="#0ecb81" stroke-width="1.4" /><rect x="906.27" y="112.78" width="6" height="22.77" rx="1.5" fill="#0ecb81" /><line x1="920.00" y1="109.81" x2="920.00" y2="114.10" stroke="#0ecb81" stroke-width="1.4" /><rect x="917.00" y="109.81" width="6" height="2.64" rx="1.5" fill="#0ecb81" />
  <polyline points="458.43,141.49 522.84,229.59 597.97,58.00 748.25,215.73 801.92,100.24" fill="none" stroke="#2fc273" stroke-width="4" stroke-linecap="round" stroke-linejoin="round" />
  <circle cx="458.43" cy="141.49" r="5.5" fill="#2fc273" fill-opacity="0.15" stroke="#2fc273" stroke-width="2" /><text x="458.43" y="129.49" fill="#f3f4f6" font-size="15" font-weight="700" text-anchor="middle">X</text><circle cx="522.84" cy="229.59" r="5.5" fill="#2fc273" fill-opacity="0.15" stroke="#2fc273" stroke-width="2" /><text x="522.84" y="217.59" fill="#f3f4f6" font-size="15" font-weight="700" text-anchor="middle">A</text><circle cx="597.97" cy="58.00" r="5.5" fill="#2fc273" fill-opacity="0.15" stroke="#2fc273" stroke-width="2" /><text x="597.97" y="46.00" fill="#f3f4f6" font-size="15" font-weight="700" text-anchor="middle">B</text><circle cx="748.25" cy="215.73" r="5.5" fill="#2fc273" fill-opacity="0.15" stroke="#2fc273" stroke-width="2" /><text x="748.25" y="203.73" fill="#f3f4f6" font-size="15" font-weight="700" text-anchor="middle">C</text><circle cx="801.92" cy="100.24" r="5.5" fill="#2fc273" fill-opacity="0.15" stroke="#2fc273" stroke-width="2" /><text x="801.92" y="88.24" fill="#f3f4f6" font-size="15" font-weight="700" text-anchor="middle">D</text>
  <text x="56" y="492" fill="#8ba0b5" font-size="18">일반 완성 · TP1 326.863 · TP2 326.037 · SL 328.547</text>
</svg>
