<svg xmlns="http://www.w3.org/2000/svg" width="960" height="540" viewBox="0 0 960 540">
  <rect width="960" height="540" rx="24" fill="#0b1220" />
  <rect x="28" y="28" width="904" height="484" rx="22" fill="#111827" stroke="#1f2937" />
  <text x="56" y="74" fill="#f3f4f6" font-size="34" font-weight="700">ZECUSDT · AB=CD</text>
  <text x="904" y="74" fill="#8ba0b5" font-size="20" text-anchor="end">Bullish (매수) · Score 91.0</text>
  <line x1="72" y1="58" x2="920" y2="58" stroke="#223045" stroke-width="1" stroke-dasharray="4 8" /><line x1="72" y1="156" x2="920" y2="156" stroke="#223045" stroke-width="1" stroke-dasharray="4 8" /><line x1="72" y1="255" x2="920" y2="255" stroke="#223045" stroke-width="1" stroke-dasharray="4 8" /><line x1="72" y1="353" x2="920" y2="353" stroke="#223045" stroke-width="1" stroke-dasharray="4 8" /><line x1="72" y1="452" x2="920" y2="452" stroke="#223045" stroke-width="1" stroke-dasharray="4 8" />
  <rect x="655.85" y="413.59" width="84" height="20.34" fill="#fbbf24" fill-opacity="0.12" stroke="#fbbf24" stroke-width="1.5" stroke-dasharray="6 6" />
  <line x1="72.00" y1="302.91" x2="72.00" y2="325.79" stroke="#0ecb81" stroke-width="1.4" /><rect x="69.00" y="307.00" width="6" height="15.20" rx="1.5" fill="#0ecb81" /><line x1="82.73" y1="301.88" x2="82.73" y2="318.10" stroke="#f6465d" stroke-width="1.4" /><rect x="79.73" y="307.00" width="6" height="7.17" rx="1.5" fill="#f6465d" /><line x1="93.47" y1="308.71" x2="93.47" y2="322.03" stroke="#f6465d" stroke-width="1.4" /><rect x="90.47" y="314.35" width="6" height="4.78" rx="1.5" fill="#f6465d" /><line x1="104.20" y1="300.34" x2="104.20" y2="321.18" stroke="#0ecb81" stroke-width="1.4" /><rect x="101.20" y="304.95" width="6" height="14.35" rx="1.5" fill="#0ecb81" /><line x1="114.94" y1="275.24" x2="114.94" y2="307.35" stroke="#0ecb81" stroke-width="1.4" /><rect x="111.94" y="279.68" width="6" height="25.28" rx="1.5" fill="#0ecb81" /><line x1="125.67" y1="230.15" x2="125.67" y2="282.92" stroke="#0ecb81" stroke-width="1.4" /><rect x="122.67" y="230.66" width="6" height="48.84" rx="1.5" fill="#0ecb81" /><line x1="136.41" y1="228.44" x2="136.41" y2="253.89" stroke="#f6465d" stroke-width="1.4" /><rect x="133.41" y="230.49" width="6" height="6.15" rx="1.5" fill="#f6465d" /><line x1="147.14" y1="235.96" x2="147.14" y2="255.94" stroke="#f6465d" stroke-width="1.4" /><rect x="144.14" y="236.64" width="6" height="15.88" rx="1.5" fill="#f6465d" /><line x1="157.87" y1="238.01" x2="157.87" y2="280.19" stroke="#f6465d" stroke-width="1.4" /><rect x="154.87" y="252.69" width="6" height="25.62" rx="1.5" fill="#f6465d" /><line x1="168.61" y1="262.94" x2="168.61" y2="278.82" stroke="#0ecb81" stroke-width="1.4" /><rect x="165.61" y="268.75" width="6" height="9.39" rx="1.5" fill="#0ecb81" /><line x1="179.34" y1="251.16" x2="179.34" y2="288.56" stroke="#f6465d" stroke-width="1.4" /><rect x="176.34" y="268.92" width="6" height="13.15" rx="1.5" fill="#f6465d" /><line x1="190.08" y1="280.70" x2="190.08" y2="323.06" stroke="#f6465d" stroke-width="1.4" /><rect x="187.08" y="282.07" width="6" height="32.79" rx="1.5" fill="#f6465d" /><line x1="200.81" y1="311.10" x2="200.81" y2="328.69" stroke="#f6465d" stroke-width="1.4" /><rect x="197.81" y="315.03" width="6" height="8.03" rx="1.5" fill="#f6465d" /><line x1="211.54" y1="312.98" x2="211.54" y2="339.62" stroke="#f6465d" stroke-width="1.4" /><rect x="208.54" y="323.23" width="6" height="3.24" rx="1.5" fill="#f6465d" /><line x1="222.28" y1="325.79" x2="222.28" y2="338.26" stroke="#f6465d" stroke-width="1.4" /><rect x="219.28" y="326.47" width="6" height="7.17" rx="1.5" fill="#f6465d" /><line x1="233.01" y1="328.69" x2="233.01" y2="339.79" stroke="#0ecb81" stroke-width="1.4" /><rect x="230.01" y="333.65" width="6" height="2.00" rx="1.5" fill="#0ecb81" /><line x1="243.75" y1="331.77" x2="243.75" y2="372.76" stroke="#f6465d" stroke-width="1.4" /><rect x="240.75" y="333.65" width="6" height="27.15" rx="1.5" fill="#f6465d" /><line x1="254.48" y1="353.12" x2="254.48" y2="374.46" stroke="#f6465d" stroke-width="1.4" /><rect x="251.48" y="360.63" width="6" height="12.13" rx="1.5" fill="#f6465d" /><line x1="265.22" y1="367.29" x2="265.22" y2="429.63" stroke="#f6465d" stroke-width="1.4" /><rect x="262.22" y="372.59" width="6" height="36.55" rx="1.5" fill="#f6465d" /><line x1="275.95" y1="381.64" x2="275.95" y2="419.04" stroke="#0ecb81" stroke-width="1.4" /><rect x="272.95" y="395.13" width="6" height="14.00" rx="1.5" fill="#0ecb81" /><line x1="286.68" y1="394.79" x2="286.68" y2="445.68" stroke="#f6465d" stroke-width="1.4" /><rect x="283.68" y="395.13" width="6" height="40.99" rx="1.5" fill="#f6465d" /><line x1="297.42" y1="417.16" x2="297.42" y2="445.34" stroke="#f6465d" stroke-width="1.4" /><rect x="294.42" y="436.29" width="6" height="3.24" rx="1.5" fill="#f6465d" /><line x1="308.15" y1="421.94" x2="308.15" y2="452.00" stroke="#0ecb81" stroke-width="1.4" /><rect x="305.15" y="428.43" width="6" height="10.93" rx="1.5" fill="#0ecb81" /><line x1="318.89" y1="408.28" x2="318.89" y2="429.46" stroke="#0ecb81" stroke-width="1.4" /><rect x="315.89" y="410.16" width="6" height="18.27" rx="1.5" fill="#0ecb81" /><line x1="329.62" y1="392.74" x2="329.62" y2="432.02" stroke="#f6465d" stroke-width="1.4" /><rect x="326.62" y="410.33" width="6" height="15.20" rx="1.5" fill="#f6465d" /><line x1="340.35" y1="403.50" x2="340.35" y2="430.65" stroke="#0ecb81" stroke-width="1.4" /><rect x="337.35" y="408.96" width="6" height="16.22" rx="1.5" fill="#0ecb81" /><line x1="351.09" y1="391.37" x2="351.09" y2="414.60" stroke="#0ecb81" stroke-width="1.4" /><rect x="348.09" y="405.38" width="6" height="3.76" rx="1.5" fill="#0ecb81" /><line x1="361.82" y1="399.23" x2="361.82" y2="416.14" stroke="#f6465d" stroke-width="1.4" /><rect x="358.82" y="405.55" width="6" height="4.44" rx="1.5" fill="#f6465d" /><line x1="372.56" y1="395.30" x2="372.56" y2="427.41" stroke="#0ecb81" stroke-width="1.4" /><rect x="369.56" y="404.52" width="6" height="5.47" rx="1.5" fill="#0ecb81" /><line x1="383.29" y1="347.82" x2="383.29" y2="406.74" stroke="#0ecb81" stroke-width="1.4" /><rect x="380.29" y="366.10" width="6" height="38.43" rx="1.5" fill="#0ecb81" /><line x1="394.03" y1="346.46" x2="394.03" y2="385.05" stroke="#f6465d" stroke-width="1.4" /><rect x="391.03" y="365.75" width="6" height="8.37" rx="1.5" fill="#f6465d" /><line x1="404.76" y1="356.02" x2="404.76" y2="381.47" stroke="#0ecb81" stroke-width="1.4" /><rect x="401.76" y="371.39" width="6" height="2.73" rx="1.5" fill="#0ecb81" /><line x1="415.49" y1="346.28" x2="415.49" y2="385.22" stroke="#f6465d" stroke-width="1.4" /><rect x="412.49" y="371.39" width="6" height="12.64" rx="1.5" fill="#f6465d" /><line x1="426.23" y1="374.98" x2="426.23" y2="399.91" stroke="#f6465d" stroke-width="1.4" /><rect x="423.23" y="384.03" width="6" height="11.61" rx="1.5" fill="#f6465d" /><line x1="436.96" y1="386.93" x2="436.96" y2="410.50" stroke="#f6465d" stroke-width="1.4" /><rect x="433.96" y="395.47" width="6" height="2.22" rx="1.5" fill="#f6465d" /><line x1="447.70" y1="396.50" x2="447.70" y2="412.72" stroke="#f6465d" stroke-width="1.4" /><rect x="444.70" y="397.86" width="6" height="3.59" rx="1.5" fill="#f6465d" /><line x1="458.43" y1="390.18" x2="458.43" y2="409.13" stroke="#0ecb81" stroke-width="1.4" /><rect x="455.43" y="391.20" width="6" height="10.08" rx="1.5" fill="#0ecb81" /><line x1="469.16" y1="384.88" x2="469.16" y2="400.42" stroke="#0ecb81" stroke-width="1.4" /><rect x="466.16" y="388.98" width="6" height="2.22" rx="1.5" fill="#0ecb81" /><line x1="479.90" y1="378.90" x2="479.90" y2="397.01" stroke="#0ecb81" stroke-width="1.4" /><rect x="476.90" y="386.08" width="6" height="2.73" rx="1.5" fill="#0ecb81" /><line x1="490.63" y1="381.30" x2="490.63" y2="395.30" stroke="#f6465d" stroke-width="1.4" /><rect x="487.63" y="385.91" width="6" height="2.39" rx="1.5" fill="#f6465d" /><line x1="501.37" y1="382.32" x2="501.37" y2="402.64" stroke="#f6465d" stroke-width="1.4" /><rect x="498.37" y="388.47" width="6" height="5.29" rx="1.5" fill="#f6465d" /><line x1="512.10" y1="384.54" x2="512.10" y2="395.30" stroke="#0ecb81" stroke-width="1.4" /><rect x="509.10" y="386.93" width="6" height="7.00" rx="1.5" fill="#0ecb81" /><line x1="522.84" y1="356.02" x2="522.84" y2="387.10" stroke="#0ecb81" stroke-width="1.4" /><rect x="519.84" y="364.56" width="6" height="22.20" rx="1.5" fill="#0ecb81" /><line x1="533.57" y1="359.26" x2="533.57" y2="374.12" stroke="#f6465d" stroke-width="1.4" /><rect x="530.57" y="364.56" width="6" height="4.27" rx="1.5" fill="#f6465d" /><line x1="544.30" y1="367.97" x2="544.30" y2="383.34" stroke="#f6465d" stroke-width="1.4" /><rect x="541.30" y="368.66" width="6" height="2.00" rx="1.5" fill="#f6465d" /><line x1="555.04" y1="364.73" x2="555.04" y2="379.59" stroke="#f6465d" stroke-width="1.4" /><rect x="552.04" y="370.54" width="6" height="5.29" rx="1.5" fill="#f6465d" /><line x1="565.77" y1="372.24" x2="565.77" y2="398.54" stroke="#f6465d" stroke-width="1.4" /><rect x="562.77" y="375.83" width="6" height="18.27" rx="1.5" fill="#f6465d" /><line x1="576.51" y1="383.52" x2="576.51" y2="397.86" stroke="#0ecb81" stroke-width="1.4" /><rect x="573.51" y="384.54" width="6" height="9.73" rx="1.5" fill="#0ecb81" /><line x1="587.24" y1="381.47" x2="587.24" y2="402.64" stroke="#f6465d" stroke-width="1.4" /><rect x="584.24" y="384.54" width="6" height="11.61" rx="1.5" fill="#f6465d" /><line x1="597.97" y1="389.83" x2="597.97" y2="400.59" stroke="#f6465d" stroke-width="1.4" /><rect x="594.97" y="395.98" width="6" height="2.22" rx="1.5" fill="#f6465d" /><line x1="608.71" y1="371.05" x2="608.71" y2="398.20" stroke="#0ecb81" stroke-width="1.4" /><rect x="605.71" y="384.03" width="6" height="14.00" rx="1.5" fill="#0ecb81" /><line x1="619.44" y1="367.80" x2="619.44" y2="384.54" stroke="#0ecb81" stroke-width="1.4" /><rect x="616.44" y="373.78" width="6" height="10.25" rx="1.5" fill="#0ecb81" /><line x1="630.18" y1="370.36" x2="630.18" y2="406.06" stroke="#f6465d" stroke-width="1.4" /><rect x="627.18" y="373.78" width="6" height="26.47" rx="1.5" fill="#f6465d" /><line x1="640.91" y1="399.40" x2="640.91" y2="420.40" stroke="#f6465d" stroke-width="1.4" /><rect x="637.91" y="400.08" width="6" height="12.81" rx="1.5" fill="#f6465d" /><line x1="651.65" y1="408.62" x2="651.65" y2="424.67" stroke="#f6465d" stroke-width="1.4" /><rect x="648.65" y="412.89" width="6" height="4.10" rx="1.5" fill="#f6465d" /><line x1="662.38" y1="405.89" x2="662.38" y2="421.26" stroke="#f6465d" stroke-width="1.4" /><rect x="659.38" y="416.99" width="6" height="2.39" rx="1.5" fill="#f6465d" /><line x1="673.11" y1="397.18" x2="673.11" y2="431.51" stroke="#f6465d" stroke-width="1.4" /><rect x="670.11" y="419.21" width="6" height="5.98" rx="1.5" fill="#f6465d" /><line x1="683.85" y1="418.87" x2="683.85" y2="440.22" stroke="#f6465d" stroke-width="1.4" /><rect x="680.85" y="425.02" width="6" height="5.81" rx="1.5" fill="#f6465d" /><line x1="694.58" y1="391.88" x2="694.58" y2="435.26" stroke="#0ecb81" stroke-width="1.4" /><rect x="691.58" y="398.03" width="6" height="32.79" rx="1.5" fill="#0ecb81" /><line x1="705.32" y1="353.63" x2="705.32" y2="398.37" stroke="#0ecb81" stroke-width="1.4" /><rect x="702.32" y="359.09" width="6" height="38.94" rx="1.5" fill="#0ecb81" /><line x1="716.05" y1="325.79" x2="716.05" y2="364.05" stroke="#0ecb81" stroke-width="1.4" /><rect x="713.05" y="326.47" width="6" height="32.45" rx="1.5" fill="#0ecb81" /><line x1="726.78" y1="308.71" x2="726.78" y2="356.53" stroke="#f6465d" stroke-width="1.4" /><rect x="723.78" y="326.81" width="6" height="7.17" rx="1.5" fill="#f6465d" /><line x1="737.52" y1="304.61" x2="737.52" y2="335.18" stroke="#0ecb81" stroke-width="1.4" /><rect x="734.52" y="327.16" width="6" height="6.83" rx="1.5" fill="#0ecb81" /><line x1="748.25" y1="310.42" x2="748.25" y2="335.35" stroke="#0ecb81" stroke-width="1.4" /><rect x="745.25" y="310.42" width="6" height="16.91" rx="1.5" fill="#0ecb81" /><line x1="758.99" y1="267.38" x2="758.99" y2="311.10" stroke="#0ecb81" stroke-width="1.4" /><rect x="755.99" y="293.17" width="6" height="17.08" rx="1.5" fill="#0ecb81" /><line x1="769.72" y1="240.57" x2="769.72" y2="293.00" stroke="#0ecb81" stroke-width="1.4" /><rect x="766.72" y="242.11" width="6" height="50.89" rx="1.5" fill="#0ecb81" /><line x1="780.46" y1="236.47" x2="780.46" y2="271.99" stroke="#0ecb81" stroke-width="1.4" /><rect x="777.46" y="241.42" width="6" height="2.00" rx="1.5" fill="#0ecb81" /><line x1="791.19" y1="239.03" x2="791.19" y2="268.41" stroke="#f6465d" stroke-width="1.4" /><rect x="788.19" y="241.25" width="6" height="19.30" rx="1.5" fill="#f6465d" /><line x1="801.92" y1="226.74" x2="801.92" y2="279.68" stroke="#0ecb81" stroke-width="1.4" /><rect x="798.92" y="249.28" width="6" height="11.10" rx="1.5" fill="#0ecb81" /><line x1="812.66" y1="239.20" x2="812.66" y2="260.21" stroke="#0ecb81" stroke-width="1.4" /><rect x="809.66" y="242.28" width="6" height="6.83" rx="1.5" fill="#0ecb81" /><line x1="823.39" y1="241.93" x2="823.39" y2="268.41" stroke="#f6465d" stroke-width="1.4" /><rect x="820.39" y="242.28" width="6" height="19.64" rx="1.5" fill="#f6465d" /><line x1="834.13" y1="243.13" x2="834.13" y2="262.60" stroke="#0ecb81" stroke-width="1.4" /><rect x="831.13" y="260.04" width="6" height="2.00" rx="1.5" fill="#0ecb81" /><line x1="844.86" y1="146.12" x2="844.86" y2="265.84" stroke="#0ecb81" stroke-width="1.4" /><rect x="841.86" y="195.82" width="6" height="64.04" rx="1.5" fill="#0ecb81" /><line x1="855.59" y1="167.99" x2="855.59" y2="195.82" stroke="#0ecb81" stroke-width="1.4" /><rect x="852.59" y="183.19" width="6" height="11.44" rx="1.5" fill="#0ecb81" /><line x1="866.33" y1="138.95" x2="866.33" y2="183.19" stroke="#0ecb81" stroke-width="1.4" /><rect x="863.33" y="155.86" width="6" height="27.33" rx="1.5" fill="#0ecb81" /><line x1="877.06" y1="134.34" x2="877.06" y2="170.55" stroke="#0ecb81" stroke-width="1.4" /><rect x="874.06" y="146.30" width="6" height="9.56" rx="1.5" fill="#0ecb81" /><line x1="887.80" y1="58.00" x2="887.80" y2="148.86" stroke="#0ecb81" stroke-width="1.4" /><rect x="884.80" y="89.25" width="6" height="57.21" rx="1.5" fill="#0ecb81" /><line x1="898.53" y1="66.71" x2="898.53" y2="111.28" stroke="#f6465d" stroke-width="1.4" /><rect x="895.53" y="89.42" width="6" height="12.64" rx="1.5" fill="#f6465d" /><line x1="909.27" y1="99.33" x2="909.27" y2="163.20" stroke="#f6465d" stroke-width="1.4" /><rect x="906.27" y="101.55" width="6" height="48.50" rx="1.5" fill="#f6465d" /><line x1="920.00" y1="129.39" x2="920.00" y2="160.98" stroke="#0ecb81" stroke-width="1.4" /><rect x="917.00" y="139.64" width="6" height="10.59" rx="1.5" fill="#0ecb81" />
  <polyline points="501.37,402.64 522.84,356.02 587.24,402.64 619.44,367.80 683.85,440.22" fill="none" stroke="#2fc273" stroke-width="4" stroke-linecap="round" stroke-linejoin="round" />
  <circle cx="501.37" cy="402.64" r="5.5" fill="#2fc273" fill-opacity="0.15" stroke="#2fc273" stroke-width="2" /><text x="501.37" y="390.64" fill="#f3f4f6" font-size="15" font-weight="700" text-anchor="middle">X</text><circle cx="522.84" cy="356.02" r="5.5" fill="#2fc273" fill-opacity="0.15" stroke="#2fc273" stroke-width="2" /><text x="522.84" y="344.02" fill="#f3f4f6" font-size="15" font-weight="700" text-anchor="middle">A</text><circle cx="587.24" cy="402.64" r="5.5" fill="#2fc273" fill-opacity="0.15" stroke="#2fc273" stroke-width="2" /><text x="587.24" y="390.64" fill="#f3f4f6" font-size="15" font-weight="700" text-anchor="middle">B</text><circle cx="619.44" cy="367.80" r="5.5" fill="#2fc273" fill-opacity="0.15" stroke="#2fc273" stroke-width="2" /><text x="619.44" y="355.80" fill="#f3f4f6" font-size="15" font-weight="700" text-anchor="middle">C</text><circle cx="683.85" cy="440.22" r="5.5" fill="#2fc273" fill-opacity="0.15" stroke="#2fc273" stroke-width="2" /><text x="683.85" y="428.22" fill="#f3f4f6" font-size="15" font-weight="700" text-anchor="middle">D</text>
  <text x="56" y="492" fill="#8ba0b5" font-size="18">일반 완성 · TP1 238.92 · TP2 239.92 · SL 236.945</text>
</svg>
