<svg xmlns="http://www.w3.org/2000/svg" width="960" height="540" viewBox="0 0 960 540">
  <rect width="960" height="540" rx="24" fill="#0b1220" />
  <rect x="28" y="28" width="904" height="484" rx="22" fill="#111827" stroke="#1f2937" />
  <text x="56" y="74" fill="#f3f4f6" font-size="34" font-weight="700">ZECUSDT · AB=CD</text>
  <text x="904" y="74" fill="#8ba0b5" font-size="20" text-anchor="end">Bullish (매수) · Score 83.4</text>
  <line x1="72" y1="58" x2="920" y2="58" stroke="#223045" stroke-width="1" stroke-dasharray="4 8" /><line x1="72" y1="156" x2="920" y2="156" stroke="#223045" stroke-width="1" stroke-dasharray="4 8" /><line x1="72" y1="255" x2="920" y2="255" stroke="#223045" stroke-width="1" stroke-dasharray="4 8" /><line x1="72" y1="353" x2="920" y2="353" stroke="#223045" stroke-width="1" stroke-dasharray="4 8" /><line x1="72" y1="452" x2="920" y2="452" stroke="#223045" stroke-width="1" stroke-dasharray="4 8" />
  <rect x="741.72" y="508.93" width="84" height="133.02" fill="#fbbf24" fill-opacity="0.12" stroke="#fbbf24" stroke-width="1.5" stroke-dasharray="6 6" />
  <line x1="72.00" y1="111.63" x2="72.00" y2="151.69" stroke="#f6465d" stroke-width="1.4" /><rect x="69.00" y="112.15" width="6" height="37.65" rx="1.5" fill="#f6465d" /><line x1="82.73" y1="138.28" x2="82.73" y2="235.75" stroke="#f6465d" stroke-width="1.4" /><rect x="79.73" y="149.80" width="6" height="55.01" rx="1.5" fill="#f6465d" /><line x1="93.47" y1="170.42" x2="93.47" y2="233.00" stroke="#f6465d" stroke-width="1.4" /><rect x="90.47" y="204.80" width="6" height="24.24" rx="1.5" fill="#f6465d" /><line x1="104.20" y1="202.74" x2="104.20" y2="243.31" stroke="#0ecb81" stroke-width="1.4" /><rect x="101.20" y="210.65" width="6" height="18.57" rx="1.5" fill="#0ecb81" /><line x1="114.94" y1="199.13" x2="114.94" y2="246.75" stroke="#0ecb81" stroke-width="1.4" /><rect x="111.94" y="208.59" width="6" height="2.23" rx="1.5" fill="#0ecb81" /><line x1="125.67" y1="147.22" x2="125.67" y2="217.70" stroke="#0ecb81" stroke-width="1.4" /><rect x="122.67" y="208.59" width="6" height="2.00" rx="1.5" fill="#0ecb81" /><line x1="136.41" y1="190.71" x2="136.41" y2="236.43" stroke="#0ecb81" stroke-width="1.4" /><rect x="133.41" y="205.66" width="6" height="2.92" rx="1.5" fill="#0ecb81" /><line x1="147.14" y1="193.97" x2="147.14" y2="235.06" stroke="#f6465d" stroke-width="1.4" /><rect x="144.14" y="205.84" width="6" height="28.54" rx="1.5" fill="#f6465d" /><line x1="157.87" y1="170.77" x2="157.87" y2="236.43" stroke="#0ecb81" stroke-width="1.4" /><rect x="154.87" y="199.82" width="6" height="34.72" rx="1.5" fill="#0ecb81" /><line x1="168.61" y1="174.89" x2="168.61" y2="213.74" stroke="#0ecb81" stroke-width="1.4" /><rect x="165.61" y="187.27" width="6" height="12.72" rx="1.5" fill="#0ecb81" /><line x1="179.34" y1="177.99" x2="179.34" y2="211.51" stroke="#f6465d" stroke-width="1.4" /><rect x="176.34" y="187.27" width="6" height="13.58" rx="1.5" fill="#f6465d" /><line x1="190.08" y1="152.55" x2="190.08" y2="219.59" stroke="#0ecb81" stroke-width="1.4" /><rect x="187.08" y="167.85" width="6" height="33.18" rx="1.5" fill="#0ecb81" /><line x1="200.81" y1="117.82" x2="200.81" y2="168.02" stroke="#0ecb81" stroke-width="1.4" /><rect x="197.81" y="164.58" width="6" height="3.44" rx="1.5" fill="#0ecb81" /><line x1="211.54" y1="163.38" x2="211.54" y2="221.31" stroke="#f6465d" stroke-width="1.4" /><rect x="208.54" y="164.75" width="6" height="46.07" rx="1.5" fill="#f6465d" /><line x1="222.28" y1="186.75" x2="222.28" y2="242.79" stroke="#0ecb81" stroke-width="1.4" /><rect x="219.28" y="198.44" width="6" height="12.38" rx="1.5" fill="#0ecb81" /><line x1="233.01" y1="176.27" x2="233.01" y2="209.10" stroke="#0ecb81" stroke-width="1.4" /><rect x="230.01" y="179.88" width="6" height="18.57" rx="1.5" fill="#0ecb81" /><line x1="243.75" y1="174.89" x2="243.75" y2="222.85" stroke="#f6465d" stroke-width="1.4" /><rect x="240.75" y="179.88" width="6" height="8.60" rx="1.5" fill="#f6465d" /><line x1="254.48" y1="185.55" x2="254.48" y2="236.95" stroke="#f6465d" stroke-width="1.4" /><rect x="251.48" y="189.85" width="6" height="34.90" rx="1.5" fill="#f6465d" /><line x1="265.22" y1="188.99" x2="265.22" y2="239.87" stroke="#0ecb81" stroke-width="1.4" /><rect x="262.22" y="216.15" width="6" height="8.77" rx="1.5" fill="#0ecb81" /><line x1="275.95" y1="205.84" x2="275.95" y2="226.12" stroke="#f6465d" stroke-width="1.4" /><rect x="272.95" y="216.15" width="6" height="5.33" rx="1.5" fill="#f6465d" /><line x1="286.68" y1="212.37" x2="286.68" y2="315.68" stroke="#f6465d" stroke-width="1.4" /><rect x="283.68" y="221.65" width="6" height="59.48" rx="1.5" fill="#f6465d" /><line x1="297.42" y1="266.00" x2="297.42" y2="299.69" stroke="#0ecb81" stroke-width="1.4" /><rect x="294.42" y="272.19" width="6" height="8.94" rx="1.5" fill="#0ecb81" /><line x1="308.15" y1="272.36" x2="308.15" y2="323.25" stroke="#f6465d" stroke-width="1.4" /><rect x="305.15" y="272.36" width="6" height="44.87" rx="1.5" fill="#f6465d" /><line x1="318.89" y1="245.20" x2="318.89" y2="328.92" stroke="#0ecb81" stroke-width="1.4" /><rect x="315.89" y="257.23" width="6" height="59.82" rx="1.5" fill="#0ecb81" /><line x1="329.62" y1="162.69" x2="329.62" y2="260.50" stroke="#0ecb81" stroke-width="1.4" /><rect x="326.62" y="182.80" width="6" height="74.43" rx="1.5" fill="#0ecb81" /><line x1="340.35" y1="149.62" x2="340.35" y2="204.29" stroke="#f6465d" stroke-width="1.4" /><rect x="337.35" y="182.80" width="6" height="3.95" rx="1.5" fill="#f6465d" /><line x1="351.09" y1="168.36" x2="351.09" y2="218.90" stroke="#f6465d" stroke-width="1.4" /><rect x="348.09" y="186.93" width="6" height="6.02" rx="1.5" fill="#f6465d" /><line x1="361.82" y1="189.33" x2="361.82" y2="234.72" stroke="#f6465d" stroke-width="1.4" /><rect x="358.82" y="192.94" width="6" height="29.91" rx="1.5" fill="#f6465d" /><line x1="372.56" y1="212.71" x2="372.56" y2="262.22" stroke="#f6465d" stroke-width="1.4" /><rect x="369.56" y="223.03" width="6" height="20.63" rx="1.5" fill="#f6465d" /><line x1="383.29" y1="241.59" x2="383.29" y2="347.66" stroke="#f6465d" stroke-width="1.4" /><rect x="380.29" y="243.48" width="6" height="77.01" rx="1.5" fill="#f6465d" /><line x1="394.03" y1="274.42" x2="394.03" y2="337.86" stroke="#0ecb81" stroke-width="1.4" /><rect x="391.03" y="316.71" width="6" height="3.61" rx="1.5" fill="#0ecb81" /><line x1="404.76" y1="307.43" x2="404.76" y2="349.89" stroke="#f6465d" stroke-width="1.4" /><rect x="401.76" y="316.71" width="6" height="17.88" rx="1.5" fill="#f6465d" /><line x1="415.49" y1="295.91" x2="415.49" y2="337.86" stroke="#0ecb81" stroke-width="1.4" /><rect x="412.49" y="300.73" width="6" height="34.04" rx="1.5" fill="#0ecb81" /><line x1="426.23" y1="246.75" x2="426.23" y2="308.98" stroke="#0ecb81" stroke-width="1.4" /><rect x="423.23" y="269.44" width="6" height="31.29" rx="1.5" fill="#0ecb81" /><line x1="436.96" y1="98.91" x2="436.96" y2="270.82" stroke="#0ecb81" stroke-width="1.4" /><rect x="433.96" y="126.59" width="6" height="142.68" rx="1.5" fill="#0ecb81" /><line x1="447.70" y1="111.29" x2="447.70" y2="183.49" stroke="#f6465d" stroke-width="1.4" /><rect x="444.70" y="126.42" width="6" height="17.53" rx="1.5" fill="#f6465d" /><line x1="458.43" y1="140.17" x2="458.43" y2="175.07" stroke="#f6465d" stroke-width="1.4" /><rect x="455.43" y="144.29" width="6" height="20.97" rx="1.5" fill="#f6465d" /><line x1="469.16" y1="150.83" x2="469.16" y2="199.13" stroke="#0ecb81" stroke-width="1.4" /><rect x="466.16" y="155.47" width="6" height="9.80" rx="1.5" fill="#0ecb81" /><line x1="479.90" y1="123.67" x2="479.90" y2="207.73" stroke="#f6465d" stroke-width="1.4" /><rect x="476.90" y="155.47" width="6" height="48.30" rx="1.5" fill="#f6465d" /><line x1="490.63" y1="170.94" x2="490.63" y2="214.26" stroke="#0ecb81" stroke-width="1.4" /><rect x="487.63" y="202.23" width="6" height="2.00" rx="1.5" fill="#0ecb81" /><line x1="501.37" y1="191.91" x2="501.37" y2="223.89" stroke="#f6465d" stroke-width="1.4" /><rect x="498.37" y="202.05" width="6" height="11.69" rx="1.5" fill="#f6465d" /><line x1="512.10" y1="184.69" x2="512.10" y2="224.23" stroke="#0ecb81" stroke-width="1.4" /><rect x="509.10" y="204.80" width="6" height="8.94" rx="1.5" fill="#0ecb81" /><line x1="522.84" y1="204.80" x2="522.84" y2="246.40" stroke="#f6465d" stroke-width="1.4" /><rect x="519.84" y="204.80" width="6" height="21.66" rx="1.5" fill="#f6465d" /><line x1="533.57" y1="157.88" x2="533.57" y2="238.67" stroke="#0ecb81" stroke-width="1.4" /><rect x="530.57" y="181.43" width="6" height="45.04" rx="1.5" fill="#0ecb81" /><line x1="544.30" y1="176.61" x2="544.30" y2="222.17" stroke="#f6465d" stroke-width="1.4" /><rect x="541.30" y="181.25" width="6" height="29.22" rx="1.5" fill="#f6465d" /><line x1="555.04" y1="142.75" x2="555.04" y2="212.37" stroke="#0ecb81" stroke-width="1.4" /><rect x="552.04" y="164.06" width="6" height="46.41" rx="1.5" fill="#0ecb81" /><line x1="565.77" y1="126.42" x2="565.77" y2="182.63" stroke="#f6465d" stroke-width="1.4" /><rect x="562.77" y="162.34" width="6" height="5.33" rx="1.5" fill="#f6465d" /><line x1="576.51" y1="132.78" x2="576.51" y2="180.91" stroke="#0ecb81" stroke-width="1.4" /><rect x="573.51" y="155.64" width="6" height="12.03" rx="1.5" fill="#0ecb81" /><line x1="587.24" y1="58.00" x2="587.24" y2="159.25" stroke="#0ecb81" stroke-width="1.4" /><rect x="584.24" y="109.05" width="6" height="46.59" rx="1.5" fill="#0ecb81" /><line x1="597.97" y1="105.62" x2="597.97" y2="176.27" stroke="#f6465d" stroke-width="1.4" /><rect x="594.97" y="109.05" width="6" height="63.95" rx="1.5" fill="#f6465d" /><line x1="608.71" y1="149.45" x2="608.71" y2="200.68" stroke="#f6465d" stroke-width="1.4" /><rect x="605.71" y="173.00" width="6" height="17.36" rx="1.5" fill="#f6465d" /><line x1="619.44" y1="183.32" x2="619.44" y2="217.01" stroke="#f6465d" stroke-width="1.4" /><rect x="616.44" y="190.36" width="6" height="12.21" rx="1.5" fill="#f6465d" /><line x1="630.18" y1="167.16" x2="630.18" y2="216.32" stroke="#0ecb81" stroke-width="1.4" /><rect x="627.18" y="195.52" width="6" height="7.05" rx="1.5" fill="#0ecb81" /><line x1="640.91" y1="144.81" x2="640.91" y2="204.46" stroke="#0ecb81" stroke-width="1.4" /><rect x="637.91" y="156.50" width="6" height="38.85" rx="1.5" fill="#0ecb81" /><line x1="651.65" y1="151.00" x2="651.65" y2="229.04" stroke="#f6465d" stroke-width="1.4" /><rect x="648.65" y="156.50" width="6" height="52.60" rx="1.5" fill="#f6465d" /><line x1="662.38" y1="164.41" x2="662.38" y2="250.01" stroke="#f6465d" stroke-width="1.4" /><rect x="659.38" y="209.10" width="6" height="27.85" rx="1.5" fill="#f6465d" /><line x1="673.11" y1="213.40" x2="673.11" y2="248.64" stroke="#f6465d" stroke-width="1.4" /><rect x="670.11" y="236.95" width="6" height="4.81" rx="1.5" fill="#f6465d" /><line x1="683.85" y1="236.09" x2="683.85" y2="311.21" stroke="#f6465d" stroke-width="1.4" /><rect x="680.85" y="241.59" width="6" height="66.53" rx="1.5" fill="#f6465d" /><line x1="694.58" y1="306.91" x2="694.58" y2="356.42" stroke="#f6465d" stroke-width="1.4" /><rect x="691.58" y="307.95" width="6" height="28.19" rx="1.5" fill="#f6465d" /><line x1="705.32" y1="323.76" x2="705.32" y2="407.82" stroke="#f6465d" stroke-width="1.4" /><rect x="702.32" y="336.14" width="6" height="50.37" rx="1.5" fill="#f6465d" /><line x1="716.05" y1="321.53" x2="716.05" y2="386.33" stroke="#0ecb81" stroke-width="1.4" /><rect x="713.05" y="335.11" width="6" height="51.23" rx="1.5" fill="#0ecb81" /><line x1="726.78" y1="292.13" x2="726.78" y2="379.29" stroke="#f6465d" stroke-width="1.4" /><rect x="723.78" y="334.93" width="6" height="33.18" rx="1.5" fill="#f6465d" /><line x1="737.52" y1="351.95" x2="737.52" y2="396.65" stroke="#f6465d" stroke-width="1.4" /><rect x="734.52" y="368.28" width="6" height="3.09" rx="1.5" fill="#f6465d" /><line x1="748.25" y1="337.17" x2="748.25" y2="392.35" stroke="#0ecb81" stroke-width="1.4" /><rect x="745.25" y="363.47" width="6" height="8.08" rx="1.5" fill="#0ecb81" /><line x1="758.99" y1="347.31" x2="758.99" y2="397.68" stroke="#f6465d" stroke-width="1.4" /><rect x="755.99" y="363.64" width="6" height="23.72" rx="1.5" fill="#f6465d" /><line x1="769.72" y1="383.75" x2="769.72" y2="452.00" stroke="#f6465d" stroke-width="1.4" /><rect x="766.72" y="386.51" width="6" height="7.39" rx="1.5" fill="#f6465d" /><line x1="780.46" y1="333.73" x2="780.46" y2="408.34" stroke="#0ecb81" stroke-width="1.4" /><rect x="777.46" y="354.19" width="6" height="39.88" rx="1.5" fill="#0ecb81" /><line x1="791.19" y1="310.35" x2="791.19" y2="369.83" stroke="#0ecb81" stroke-width="1.4" /><rect x="788.19" y="314.31" width="6" height="39.88" rx="1.5" fill="#0ecb81" /><line x1="801.92" y1="258.78" x2="801.92" y2="316.71" stroke="#0ecb81" stroke-width="1.4" /><rect x="798.92" y="284.05" width="6" height="30.25" rx="1.5" fill="#0ecb81" /><line x1="812.66" y1="246.92" x2="812.66" y2="291.10" stroke="#0ecb81" stroke-width="1.4" /><rect x="809.66" y="250.70" width="6" height="33.35" rx="1.5" fill="#0ecb81" /><line x1="823.39" y1="246.92" x2="823.39" y2="292.99" stroke="#f6465d" stroke-width="1.4" /><rect x="820.39" y="250.70" width="6" height="15.13" rx="1.5" fill="#f6465d" /><line x1="834.13" y1="264.11" x2="834.13" y2="325.65" stroke="#f6465d" stroke-width="1.4" /><rect x="831.13" y="265.66" width="6" height="38.33" rx="1.5" fill="#f6465d" /><line x1="844.86" y1="272.71" x2="844.86" y2="307.26" stroke="#0ecb81" stroke-width="1.4" /><rect x="841.86" y="274.77" width="6" height="29.05" rx="1.5" fill="#0ecb81" /><line x1="855.59" y1="263.25" x2="855.59" y2="294.54" stroke="#f6465d" stroke-width="1.4" /><rect x="852.59" y="274.77" width="6" height="4.30" rx="1.5" fill="#f6465d" /><line x1="866.33" y1="199.65" x2="866.33" y2="326.51" stroke="#0ecb81" stroke-width="1.4" /><rect x="863.33" y="231.79" width="6" height="47.27" rx="1.5" fill="#0ecb81" /><line x1="877.06" y1="219.59" x2="877.06" y2="273.22" stroke="#f6465d" stroke-width="1.4" /><rect x="874.06" y="231.79" width="6" height="29.57" rx="1.5" fill="#f6465d" /><line x1="887.80" y1="234.54" x2="887.80" y2="318.09" stroke="#f6465d" stroke-width="1.4" /><rect x="884.80" y="261.19" width="6" height="35.41" rx="1.5" fill="#f6465d" /><line x1="898.53" y1="162.69" x2="898.53" y2="310.18" stroke="#0ecb81" stroke-width="1.4" /><rect x="895.53" y="176.61" width="6" height="119.99" rx="1.5" fill="#0ecb81" /><line x1="909.27" y1="157.02" x2="909.27" y2="230.42" stroke="#f6465d" stroke-width="1.4" /><rect x="906.27" y="176.10" width="6" height="21.49" rx="1.5" fill="#f6465d" /><line x1="920.00" y1="197.58" x2="920.00" y2="278.21" stroke="#f6465d" stroke-width="1.4" /><rect x="917.00" y="197.58" width="6" height="70.14" rx="1.5" fill="#f6465d" />
  <polyline points="522.84,246.40 587.24,58.00 705.32,407.82 726.78,292.13 769.72,452.00" fill="none" stroke="#2fc273" stroke-width="4" stroke-linecap="round" stroke-linejoin="round" />
  <circle cx="522.84" cy="246.40" r="5.5" fill="#2fc273" fill-opacity="0.15" stroke="#2fc273" stroke-width="2" /><text x="522.84" y="234.40" fill="#f3f4f6" font-size="15" font-weight="700" text-anchor="middle">X</text><circle cx="587.24" cy="58.00" r="5.5" fill="#2fc273" fill-opacity="0.15" stroke="#2fc273" stroke-width="2" /><text x="587.24" y="46.00" fill="#f3f4f6" font-size="15" font-weight="700" text-anchor="middle">A</text><circle cx="705.32" cy="407.82" r="5.5" fill="#2fc273" fill-opacity="0.15" stroke="#2fc273" stroke-width="2" /><text x="705.32" y="395.82" fill="#f3f4f6" font-size="15" font-weight="700" text-anchor="middle">B</text><circle cx="726.78" cy="292.13" r="5.5" fill="#2fc273" fill-opacity="0.15" stroke="#2fc273" stroke-width="2" /><text x="726.78" y="280.13" fill="#f3f4f6" font-size="15" font-weight="700" text-anchor="middle">C</text><circle cx="769.72" cy="452.00" r="5.5" fill="#2fc273" fill-opacity="0.15" stroke="#2fc273" stroke-width="2" /><text x="769.72" y="440.00" fill="#f3f4f6" font-size="15" font-weight="700" text-anchor="middle">D</text>
  <text x="56" y="492" fill="#8ba0b5" font-size="18">Complete · TP1 536.613 · TP2 538.807 · SL 531.635</text>
</svg>
