<svg xmlns="http://www.w3.org/2000/svg" width="960" height="540" viewBox="0 0 960 540">
  <rect width="960" height="540" rx="24" fill="#0b1220" />
  <rect x="28" y="28" width="904" height="484" rx="22" fill="#111827" stroke="#1f2937" />
  <text x="56" y="74" fill="#f3f4f6" font-size="34" font-weight="700">ZECUSDT · AB=CD</text>
  <text x="904" y="74" fill="#8ba0b5" font-size="20" text-anchor="end">Bullish (매수) · Score 84.1</text>
  <line x1="72" y1="58" x2="920" y2="58" stroke="#223045" stroke-width="1" stroke-dasharray="4 8" /><line x1="72" y1="156" x2="920" y2="156" stroke="#223045" stroke-width="1" stroke-dasharray="4 8" /><line x1="72" y1="255" x2="920" y2="255" stroke="#223045" stroke-width="1" stroke-dasharray="4 8" /><line x1="72" y1="353" x2="920" y2="353" stroke="#223045" stroke-width="1" stroke-dasharray="4 8" /><line x1="72" y1="452" x2="920" y2="452" stroke="#223045" stroke-width="1" stroke-dasharray="4 8" />
  <rect x="548.51" y="281.65" width="84" height="29.14" fill="#fbbf24" fill-opacity="0.12" stroke="#fbbf24" stroke-width="1.5" stroke-dasharray="6 6" />
  <line x1="72.00" y1="80.29" x2="72.00" y2="117.68" stroke="#f6465d" stroke-width="1.4" /><rect x="69.00" y="87.48" width="6" height="12.94" rx="1.5" fill="#f6465d" /><line x1="82.73" y1="73.58" x2="82.73" y2="107.85" stroke="#f6465d" stroke-width="1.4" /><rect x="79.73" y="100.66" width="6" height="2.00" rx="1.5" fill="#f6465d" /><line x1="93.47" y1="58.00" x2="93.47" y2="123.19" stroke="#0ecb81" stroke-width="1.4" /><rect x="90.47" y="81.49" width="6" height="19.89" rx="1.5" fill="#0ecb81" /><line x1="104.20" y1="77.41" x2="104.20" y2="123.91" stroke="#f6465d" stroke-width="1.4" /><rect x="101.20" y="81.49" width="6" height="32.35" rx="1.5" fill="#f6465d" /><line x1="114.94" y1="103.54" x2="114.94" y2="148.59" stroke="#f6465d" stroke-width="1.4" /><rect x="111.94" y="113.84" width="6" height="27.32" rx="1.5" fill="#f6465d" /><line x1="125.67" y1="95.15" x2="125.67" y2="148.11" stroke="#0ecb81" stroke-width="1.4" /><rect x="122.67" y="108.81" width="6" height="32.35" rx="1.5" fill="#0ecb81" /><line x1="136.41" y1="91.55" x2="136.41" y2="120.79" stroke="#f6465d" stroke-width="1.4" /><rect x="133.41" y="108.81" width="6" height="2.00" rx="1.5" fill="#f6465d" /><line x1="147.14" y1="95.87" x2="147.14" y2="116.48" stroke="#0ecb81" stroke-width="1.4" /><rect x="144.14" y="99.22" width="6" height="9.83" rx="1.5" fill="#0ecb81" /><line x1="157.87" y1="72.86" x2="157.87" y2="101.38" stroke="#0ecb81" stroke-width="1.4" /><rect x="154.87" y="91.55" width="6" height="7.43" rx="1.5" fill="#0ecb81" /><line x1="168.61" y1="75.73" x2="168.61" y2="101.62" stroke="#f6465d" stroke-width="1.4" /><rect x="165.61" y="91.79" width="6" height="3.59" rx="1.5" fill="#f6465d" /><line x1="179.34" y1="76.93" x2="179.34" y2="105.21" stroke="#0ecb81" stroke-width="1.4" /><rect x="176.34" y="91.31" width="6" height="4.31" rx="1.5" fill="#0ecb81" /><line x1="190.08" y1="60.64" x2="190.08" y2="92.03" stroke="#f6465d" stroke-width="1.4" /><rect x="187.08" y="91.07" width="6" height="2.00" rx="1.5" fill="#f6465d" /><line x1="200.81" y1="85.08" x2="200.81" y2="110.49" stroke="#f6465d" stroke-width="1.4" /><rect x="197.81" y="91.55" width="6" height="11.26" rx="1.5" fill="#f6465d" /><line x1="211.54" y1="86.76" x2="211.54" y2="110.49" stroke="#f6465d" stroke-width="1.4" /><rect x="208.54" y="102.58" width="6" height="4.79" rx="1.5" fill="#f6465d" /><line x1="222.28" y1="73.10" x2="222.28" y2="119.83" stroke="#0ecb81" stroke-width="1.4" /><rect x="219.28" y="81.25" width="6" height="26.12" rx="1.5" fill="#0ecb81" /><line x1="233.01" y1="75.26" x2="233.01" y2="118.63" stroke="#f6465d" stroke-width="1.4" /><rect x="230.01" y="81.01" width="6" height="25.40" rx="1.5" fill="#f6465d" /><line x1="243.75" y1="75.73" x2="243.75" y2="110.73" stroke="#0ecb81" stroke-width="1.4" /><rect x="240.75" y="77.89" width="6" height="28.52" rx="1.5" fill="#0ecb81" /><line x1="254.48" y1="76.93" x2="254.48" y2="115.76" stroke="#f6465d" stroke-width="1.4" /><rect x="251.48" y="77.89" width="6" height="16.78" rx="1.5" fill="#f6465d" /><line x1="265.22" y1="93.95" x2="265.22" y2="139.24" stroke="#f6465d" stroke-width="1.4" /><rect x="262.22" y="94.91" width="6" height="38.35" rx="1.5" fill="#f6465d" /><line x1="275.95" y1="99.46" x2="275.95" y2="136.37" stroke="#0ecb81" stroke-width="1.4" /><rect x="272.95" y="115.76" width="6" height="17.73" rx="1.5" fill="#0ecb81" /><line x1="286.68" y1="112.40" x2="286.68" y2="142.12" stroke="#f6465d" stroke-width="1.4" /><rect x="283.68" y="115.52" width="6" height="10.31" rx="1.5" fill="#f6465d" /><line x1="297.42" y1="104.97" x2="297.42" y2="133.01" stroke="#0ecb81" stroke-width="1.4" /><rect x="294.42" y="104.97" width="6" height="20.61" rx="1.5" fill="#0ecb81" /><line x1="308.15" y1="97.30" x2="308.15" y2="131.34" stroke="#f6465d" stroke-width="1.4" /><rect x="305.15" y="104.97" width="6" height="25.16" rx="1.5" fill="#f6465d" /><line x1="318.89" y1="127.02" x2="318.89" y2="165.13" stroke="#f6465d" stroke-width="1.4" /><rect x="315.89" y="130.38" width="6" height="20.13" rx="1.5" fill="#f6465d" /><line x1="329.62" y1="148.11" x2="329.62" y2="176.15" stroke="#f6465d" stroke-width="1.4" /><rect x="326.62" y="150.75" width="6" height="10.55" rx="1.5" fill="#f6465d" /><line x1="340.35" y1="146.19" x2="340.35" y2="165.61" stroke="#0ecb81" stroke-width="1.4" /><rect x="337.35" y="153.86" width="6" height="7.43" rx="1.5" fill="#0ecb81" /><line x1="351.09" y1="152.19" x2="351.09" y2="191.01" stroke="#f6465d" stroke-width="1.4" /><rect x="348.09" y="153.62" width="6" height="29.96" rx="1.5" fill="#f6465d" /><line x1="361.82" y1="168.00" x2="361.82" y2="197.72" stroke="#f6465d" stroke-width="1.4" /><rect x="358.82" y="183.34" width="6" height="11.74" rx="1.5" fill="#f6465d" /><line x1="372.56" y1="185.50" x2="372.56" y2="216.89" stroke="#f6465d" stroke-width="1.4" /><rect x="369.56" y="195.32" width="6" height="7.91" rx="1.5" fill="#f6465d" /><line x1="383.29" y1="194.13" x2="383.29" y2="216.89" stroke="#0ecb81" stroke-width="1.4" /><rect x="380.29" y="201.32" width="6" height="2.00" rx="1.5" fill="#0ecb81" /><line x1="394.03" y1="201.08" x2="394.03" y2="231.51" stroke="#f6465d" stroke-width="1.4" /><rect x="391.03" y="201.32" width="6" height="28.04" rx="1.5" fill="#f6465d" /><line x1="404.76" y1="202.51" x2="404.76" y2="232.47" stroke="#0ecb81" stroke-width="1.4" /><rect x="401.76" y="214.02" width="6" height="15.34" rx="1.5" fill="#0ecb81" /><line x1="415.49" y1="202.04" x2="415.49" y2="218.33" stroke="#f6465d" stroke-width="1.4" /><rect x="412.49" y="213.78" width="6" height="2.88" rx="1.5" fill="#f6465d" /><line x1="426.23" y1="190.53" x2="426.23" y2="223.84" stroke="#0ecb81" stroke-width="1.4" /><rect x="423.23" y="199.64" width="6" height="16.78" rx="1.5" fill="#0ecb81" /><line x1="436.96" y1="191.25" x2="436.96" y2="208.27" stroke="#0ecb81" stroke-width="1.4" /><rect x="433.96" y="197.72" width="6" height="2.00" rx="1.5" fill="#0ecb81" /><line x1="447.70" y1="185.26" x2="447.70" y2="209.23" stroke="#f6465d" stroke-width="1.4" /><rect x="444.70" y="197.96" width="6" height="3.36" rx="1.5" fill="#f6465d" /><line x1="458.43" y1="198.92" x2="458.43" y2="210.42" stroke="#f6465d" stroke-width="1.4" /><rect x="455.43" y="201.32" width="6" height="2.16" rx="1.5" fill="#f6465d" /><line x1="469.16" y1="199.40" x2="469.16" y2="217.13" stroke="#f6465d" stroke-width="1.4" /><rect x="466.16" y="203.71" width="6" height="12.46" rx="1.5" fill="#f6465d" /><line x1="479.90" y1="179.99" x2="479.90" y2="220.49" stroke="#0ecb81" stroke-width="1.4" /><rect x="476.90" y="204.67" width="6" height="11.74" rx="1.5" fill="#0ecb81" /><line x1="490.63" y1="171.60" x2="490.63" y2="208.03" stroke="#0ecb81" stroke-width="1.4" /><rect x="487.63" y="186.94" width="6" height="17.97" rx="1.5" fill="#0ecb81" /><line x1="501.37" y1="172.80" x2="501.37" y2="189.09" stroke="#0ecb81" stroke-width="1.4" /><rect x="498.37" y="180.71" width="6" height="5.99" rx="1.5" fill="#0ecb81" /><line x1="512.10" y1="177.35" x2="512.10" y2="190.29" stroke="#f6465d" stroke-width="1.4" /><rect x="509.10" y="180.71" width="6" height="5.51" rx="1.5" fill="#f6465d" /><line x1="522.84" y1="179.51" x2="522.84" y2="223.13" stroke="#f6465d" stroke-width="1.4" /><rect x="519.84" y="186.22" width="6" height="33.07" rx="1.5" fill="#f6465d" /><line x1="533.57" y1="210.66" x2="533.57" y2="269.14" stroke="#f6465d" stroke-width="1.4" /><rect x="530.57" y="219.29" width="6" height="38.35" rx="1.5" fill="#f6465d" /><line x1="544.30" y1="239.66" x2="544.30" y2="266.02" stroke="#0ecb81" stroke-width="1.4" /><rect x="541.30" y="240.14" width="6" height="17.73" rx="1.5" fill="#0ecb81" /><line x1="555.04" y1="231.03" x2="555.04" y2="267.22" stroke="#f6465d" stroke-width="1.4" /><rect x="552.04" y="239.90" width="6" height="22.05" rx="1.5" fill="#f6465d" /><line x1="565.77" y1="261.47" x2="565.77" y2="299.10" stroke="#f6465d" stroke-width="1.4" /><rect x="562.77" y="261.47" width="6" height="32.59" rx="1.5" fill="#f6465d" /><line x1="576.51" y1="263.87" x2="576.51" y2="301.01" stroke="#0ecb81" stroke-width="1.4" /><rect x="573.51" y="282.80" width="6" height="11.02" rx="1.5" fill="#0ecb81" /><line x1="587.24" y1="211.14" x2="587.24" y2="284.72" stroke="#0ecb81" stroke-width="1.4" /><rect x="584.24" y="241.10" width="6" height="41.46" rx="1.5" fill="#0ecb81" /><line x1="597.97" y1="236.31" x2="597.97" y2="251.88" stroke="#f6465d" stroke-width="1.4" /><rect x="594.97" y="241.10" width="6" height="9.83" rx="1.5" fill="#f6465d" /><line x1="608.71" y1="232.71" x2="608.71" y2="251.88" stroke="#0ecb81" stroke-width="1.4" /><rect x="605.71" y="236.55" width="6" height="14.38" rx="1.5" fill="#0ecb81" /><line x1="619.44" y1="228.64" x2="619.44" y2="246.85" stroke="#0ecb81" stroke-width="1.4" /><rect x="616.44" y="231.51" width="6" height="4.79" rx="1.5" fill="#0ecb81" /><line x1="630.18" y1="231.51" x2="630.18" y2="267.46" stroke="#f6465d" stroke-width="1.4" /><rect x="627.18" y="231.51" width="6" height="31.40" rx="1.5" fill="#f6465d" /><line x1="640.91" y1="259.55" x2="640.91" y2="273.45" stroke="#f6465d" stroke-width="1.4" /><rect x="637.91" y="262.91" width="6" height="6.71" rx="1.5" fill="#f6465d" /><line x1="651.65" y1="242.78" x2="651.65" y2="274.89" stroke="#0ecb81" stroke-width="1.4" /><rect x="648.65" y="248.53" width="6" height="21.33" rx="1.5" fill="#0ecb81" /><line x1="662.38" y1="241.34" x2="662.38" y2="264.11" stroke="#f6465d" stroke-width="1.4" /><rect x="659.38" y="248.53" width="6" height="10.07" rx="1.5" fill="#f6465d" /><line x1="673.11" y1="250.93" x2="673.11" y2="269.62" stroke="#f6465d" stroke-width="1.4" /><rect x="670.11" y="258.83" width="6" height="6.71" rx="1.5" fill="#f6465d" /><line x1="683.85" y1="239.18" x2="683.85" y2="268.42" stroke="#0ecb81" stroke-width="1.4" /><rect x="680.85" y="245.65" width="6" height="20.13" rx="1.5" fill="#0ecb81" /><line x1="694.58" y1="203.95" x2="694.58" y2="249.01" stroke="#0ecb81" stroke-width="1.4" /><rect x="691.58" y="210.18" width="6" height="35.47" rx="1.5" fill="#0ecb81" /><line x1="705.32" y1="140.68" x2="705.32" y2="214.74" stroke="#0ecb81" stroke-width="1.4" /><rect x="702.32" y="141.40" width="6" height="68.54" rx="1.5" fill="#0ecb81" /><line x1="716.05" y1="138.29" x2="716.05" y2="174.00" stroke="#f6465d" stroke-width="1.4" /><rect x="713.05" y="141.16" width="6" height="8.63" rx="1.5" fill="#f6465d" /><line x1="726.78" y1="148.83" x2="726.78" y2="176.87" stroke="#f6465d" stroke-width="1.4" /><rect x="723.78" y="149.79" width="6" height="22.29" rx="1.5" fill="#f6465d" /><line x1="737.52" y1="151.71" x2="737.52" y2="210.90" stroke="#f6465d" stroke-width="1.4" /><rect x="734.52" y="172.32" width="6" height="35.95" rx="1.5" fill="#f6465d" /><line x1="748.25" y1="186.70" x2="748.25" y2="208.99" stroke="#0ecb81" stroke-width="1.4" /><rect x="745.25" y="194.85" width="6" height="13.18" rx="1.5" fill="#0ecb81" /><line x1="758.99" y1="170.16" x2="758.99" y2="222.65" stroke="#f6465d" stroke-width="1.4" /><rect x="755.99" y="195.09" width="6" height="18.45" rx="1.5" fill="#f6465d" /><line x1="769.72" y1="211.62" x2="769.72" y2="271.06" stroke="#f6465d" stroke-width="1.4" /><rect x="766.72" y="213.54" width="6" height="46.01" rx="1.5" fill="#f6465d" /><line x1="780.46" y1="254.28" x2="780.46" y2="278.97" stroke="#f6465d" stroke-width="1.4" /><rect x="777.46" y="259.79" width="6" height="11.26" rx="1.5" fill="#f6465d" /><line x1="791.19" y1="256.92" x2="791.19" y2="294.30" stroke="#f6465d" stroke-width="1.4" /><rect x="788.19" y="271.30" width="6" height="4.55" rx="1.5" fill="#f6465d" /><line x1="801.92" y1="274.89" x2="801.92" y2="292.39" stroke="#f6465d" stroke-width="1.4" /><rect x="798.92" y="275.85" width="6" height="10.07" rx="1.5" fill="#f6465d" /><line x1="812.66" y1="278.97" x2="812.66" y2="294.54" stroke="#0ecb81" stroke-width="1.4" /><rect x="809.66" y="285.92" width="6" height="2.00" rx="1.5" fill="#0ecb81" /><line x1="823.39" y1="283.28" x2="823.39" y2="340.80" stroke="#f6465d" stroke-width="1.4" /><rect x="820.39" y="285.92" width="6" height="38.11" rx="1.5" fill="#f6465d" /><line x1="834.13" y1="313.24" x2="834.13" y2="343.19" stroke="#f6465d" stroke-width="1.4" /><rect x="831.13" y="323.78" width="6" height="17.02" rx="1.5" fill="#f6465d" /><line x1="844.86" y1="333.13" x2="844.86" y2="420.60" stroke="#f6465d" stroke-width="1.4" /><rect x="841.86" y="340.56" width="6" height="51.29" rx="1.5" fill="#f6465d" /><line x1="855.59" y1="353.26" x2="855.59" y2="405.75" stroke="#0ecb81" stroke-width="1.4" /><rect x="852.59" y="372.19" width="6" height="19.65" rx="1.5" fill="#0ecb81" /><line x1="866.33" y1="371.71" x2="866.33" y2="443.13" stroke="#f6465d" stroke-width="1.4" /><rect x="863.33" y="372.19" width="6" height="57.52" rx="1.5" fill="#f6465d" /><line x1="877.06" y1="403.11" x2="877.06" y2="442.65" stroke="#f6465d" stroke-width="1.4" /><rect x="874.06" y="429.95" width="6" height="4.55" rx="1.5" fill="#f6465d" /><line x1="887.80" y1="409.82" x2="887.80" y2="452.00" stroke="#0ecb81" stroke-width="1.4" /><rect x="884.80" y="418.93" width="6" height="15.34" rx="1.5" fill="#0ecb81" /><line x1="898.53" y1="390.65" x2="898.53" y2="420.36" stroke="#0ecb81" stroke-width="1.4" /><rect x="895.53" y="393.28" width="6" height="25.64" rx="1.5" fill="#0ecb81" /><line x1="909.27" y1="368.84" x2="909.27" y2="423.96" stroke="#f6465d" stroke-width="1.4" /><rect x="906.27" y="393.52" width="6" height="21.33" rx="1.5" fill="#f6465d" /><line x1="920.00" y1="393.28" x2="920.00" y2="422.04" stroke="#0ecb81" stroke-width="1.4" /><rect x="917.00" y="394.96" width="6" height="19.41" rx="1.5" fill="#0ecb81" />
  <polyline points="222.28,119.83 308.15,97.30 404.76,232.47 490.63,171.60 576.51,301.01" fill="none" stroke="#2fc273" stroke-width="4" stroke-linecap="round" stroke-linejoin="round" />
  <circle cx="222.28" cy="119.83" r="5.5" fill="#2fc273" fill-opacity="0.15" stroke="#2fc273" stroke-width="2" /><text x="222.28" y="107.83" fill="#f3f4f6" font-size="15" font-weight="700" text-anchor="middle">X</text><circle cx="308.15" cy="97.30" r="5.5" fill="#2fc273" fill-opacity="0.15" stroke="#2fc273" stroke-width="2" /><text x="308.15" y="85.30" fill="#f3f4f6" font-size="15" font-weight="700" text-anchor="middle">A</text><circle cx="404.76" cy="232.47" r="5.5" fill="#2fc273" fill-opacity="0.15" stroke="#2fc273" stroke-width="2" /><text x="404.76" y="220.47" fill="#f3f4f6" font-size="15" font-weight="700" text-anchor="middle">B</text><circle cx="490.63" cy="171.60" r="5.5" fill="#2fc273" fill-opacity="0.15" stroke="#2fc273" stroke-width="2" /><text x="490.63" y="159.60" fill="#f3f4f6" font-size="15" font-weight="700" text-anchor="middle">C</text><circle cx="576.51" cy="301.01" r="5.5" fill="#2fc273" fill-opacity="0.15" stroke="#2fc273" stroke-width="2" /><text x="576.51" y="289.01" fill="#f3f4f6" font-size="15" font-weight="700" text-anchor="middle">D</text>
  <text x="56" y="492" fill="#8ba0b5" font-size="18">실시간 터치 · TP1 244.973 · TP2 246.247 · SL 242.788</text>
</svg>
