<svg xmlns="http://www.w3.org/2000/svg" width="960" height="540" viewBox="0 0 960 540">
  <rect width="960" height="540" rx="24" fill="#0b1220" />
  <rect x="28" y="28" width="904" height="484" rx="22" fill="#111827" stroke="#1f2937" />
  <text x="56" y="74" fill="#f3f4f6" font-size="34" font-weight="700">ZKUSDT · AB=CD</text>
  <text x="904" y="74" fill="#8ba0b5" font-size="20" text-anchor="end">Bullish (매수) · Score 72.5</text>
  <line x1="72" y1="58" x2="920" y2="58" stroke="#223045" stroke-width="1" stroke-dasharray="4 8" /><line x1="72" y1="156" x2="920" y2="156" stroke="#223045" stroke-width="1" stroke-dasharray="4 8" /><line x1="72" y1="255" x2="920" y2="255" stroke="#223045" stroke-width="1" stroke-dasharray="4 8" /><line x1="72" y1="353" x2="920" y2="353" stroke="#223045" stroke-width="1" stroke-dasharray="4 8" /><line x1="72" y1="452" x2="920" y2="452" stroke="#223045" stroke-width="1" stroke-dasharray="4 8" />
  <rect x="634.38" y="355.54" width="84" height="57.43" fill="#fbbf24" fill-opacity="0.12" stroke="#fbbf24" stroke-width="1.5" stroke-dasharray="6 6" />
  <line x1="72.00" y1="377.66" x2="72.00" y2="394.39" stroke="#0ecb81" stroke-width="1.4" /><rect x="69.00" y="385.09" width="6" height="5.58" rx="1.5" fill="#0ecb81" /><line x1="82.73" y1="383.24" x2="82.73" y2="407.40" stroke="#f6465d" stroke-width="1.4" /><rect x="79.73" y="383.24" width="6" height="9.29" rx="1.5" fill="#f6465d" /><line x1="93.47" y1="366.51" x2="93.47" y2="399.96" stroke="#0ecb81" stroke-width="1.4" /><rect x="90.47" y="381.38" width="6" height="13.01" rx="1.5" fill="#0ecb81" /><line x1="104.20" y1="364.65" x2="104.20" y2="386.95" stroke="#0ecb81" stroke-width="1.4" /><rect x="101.20" y="366.51" width="6" height="16.73" rx="1.5" fill="#0ecb81" /><line x1="114.94" y1="362.79" x2="114.94" y2="375.80" stroke="#f6465d" stroke-width="1.4" /><rect x="111.94" y="368.37" width="6" height="5.58" rx="1.5" fill="#f6465d" /><line x1="125.67" y1="360.93" x2="125.67" y2="379.52" stroke="#0ecb81" stroke-width="1.4" /><rect x="122.67" y="368.37" width="6" height="7.43" rx="1.5" fill="#0ecb81" /><line x1="136.41" y1="366.51" x2="136.41" y2="385.09" stroke="#f6465d" stroke-width="1.4" /><rect x="133.41" y="368.37" width="6" height="16.73" rx="1.5" fill="#f6465d" /><line x1="147.14" y1="357.22" x2="147.14" y2="386.95" stroke="#0ecb81" stroke-width="1.4" /><rect x="144.14" y="359.08" width="6" height="26.02" rx="1.5" fill="#0ecb81" /><line x1="157.87" y1="353.50" x2="157.87" y2="375.80" stroke="#0ecb81" stroke-width="1.4" /><rect x="154.87" y="359.08" width="6" height="2.00" rx="1.5" fill="#0ecb81" /><line x1="168.61" y1="357.22" x2="168.61" y2="373.94" stroke="#f6465d" stroke-width="1.4" /><rect x="165.61" y="359.08" width="6" height="3.72" rx="1.5" fill="#f6465d" /><line x1="179.34" y1="359.08" x2="179.34" y2="372.08" stroke="#f6465d" stroke-width="1.4" /><rect x="176.34" y="364.65" width="6" height="5.58" rx="1.5" fill="#f6465d" /><line x1="190.08" y1="362.79" x2="190.08" y2="375.80" stroke="#0ecb81" stroke-width="1.4" /><rect x="187.08" y="370.23" width="6" height="2.00" rx="1.5" fill="#0ecb81" /><line x1="200.81" y1="360.93" x2="200.81" y2="372.08" stroke="#0ecb81" stroke-width="1.4" /><rect x="197.81" y="368.37" width="6" height="3.72" rx="1.5" fill="#0ecb81" /><line x1="211.54" y1="360.93" x2="211.54" y2="373.94" stroke="#0ecb81" stroke-width="1.4" /><rect x="208.54" y="362.79" width="6" height="7.43" rx="1.5" fill="#0ecb81" /><line x1="222.28" y1="360.93" x2="222.28" y2="368.37" stroke="#f6465d" stroke-width="1.4" /><rect x="219.28" y="362.79" width="6" height="3.72" rx="1.5" fill="#f6465d" /><line x1="233.01" y1="349.78" x2="233.01" y2="372.08" stroke="#0ecb81" stroke-width="1.4" /><rect x="230.01" y="357.22" width="6" height="11.15" rx="1.5" fill="#0ecb81" /><line x1="243.75" y1="344.21" x2="243.75" y2="359.08" stroke="#0ecb81" stroke-width="1.4" /><rect x="240.75" y="349.78" width="6" height="9.29" rx="1.5" fill="#0ecb81" /><line x1="254.48" y1="349.78" x2="254.48" y2="362.79" stroke="#f6465d" stroke-width="1.4" /><rect x="251.48" y="349.78" width="6" height="5.58" rx="1.5" fill="#f6465d" /><line x1="265.22" y1="342.35" x2="265.22" y2="355.36" stroke="#0ecb81" stroke-width="1.4" /><rect x="262.22" y="353.50" width="6" height="2.00" rx="1.5" fill="#0ecb81" /><line x1="275.95" y1="333.06" x2="275.95" y2="353.50" stroke="#0ecb81" stroke-width="1.4" /><rect x="272.95" y="334.92" width="6" height="18.58" rx="1.5" fill="#0ecb81" /><line x1="286.68" y1="323.76" x2="286.68" y2="334.92" stroke="#0ecb81" stroke-width="1.4" /><rect x="283.68" y="323.76" width="6" height="11.15" rx="1.5" fill="#0ecb81" /><line x1="297.42" y1="314.47" x2="297.42" y2="336.77" stroke="#0ecb81" stroke-width="1.4" /><rect x="294.42" y="314.47" width="6" height="9.29" rx="1.5" fill="#0ecb81" /><line x1="308.15" y1="310.75" x2="308.15" y2="327.48" stroke="#0ecb81" stroke-width="1.4" /><rect x="305.15" y="314.47" width="6" height="2.00" rx="1.5" fill="#0ecb81" /><line x1="318.89" y1="295.89" x2="318.89" y2="321.91" stroke="#0ecb81" stroke-width="1.4" /><rect x="315.89" y="303.32" width="6" height="13.01" rx="1.5" fill="#0ecb81" /><line x1="329.62" y1="290.31" x2="329.62" y2="307.04" stroke="#0ecb81" stroke-width="1.4" /><rect x="326.62" y="295.89" width="6" height="9.29" rx="1.5" fill="#0ecb81" /><line x1="340.35" y1="294.03" x2="340.35" y2="333.06" stroke="#f6465d" stroke-width="1.4" /><rect x="337.35" y="295.89" width="6" height="24.16" rx="1.5" fill="#f6465d" /><line x1="351.09" y1="321.91" x2="351.09" y2="353.50" stroke="#f6465d" stroke-width="1.4" /><rect x="348.09" y="321.91" width="6" height="29.74" rx="1.5" fill="#f6465d" /><line x1="361.82" y1="333.06" x2="361.82" y2="349.78" stroke="#0ecb81" stroke-width="1.4" /><rect x="358.82" y="342.35" width="6" height="7.43" rx="1.5" fill="#0ecb81" /><line x1="372.56" y1="312.61" x2="372.56" y2="353.50" stroke="#0ecb81" stroke-width="1.4" /><rect x="369.56" y="336.77" width="6" height="5.58" rx="1.5" fill="#0ecb81" /><line x1="383.29" y1="329.34" x2="383.29" y2="344.21" stroke="#f6465d" stroke-width="1.4" /><rect x="380.29" y="336.77" width="6" height="3.72" rx="1.5" fill="#f6465d" /><line x1="394.03" y1="329.34" x2="394.03" y2="342.35" stroke="#0ecb81" stroke-width="1.4" /><rect x="391.03" y="329.34" width="6" height="9.29" rx="1.5" fill="#0ecb81" /><line x1="404.76" y1="97.03" x2="404.76" y2="329.34" stroke="#0ecb81" stroke-width="1.4" /><rect x="401.76" y="160.22" width="6" height="167.26" rx="1.5" fill="#0ecb81" /><line x1="415.49" y1="58.00" x2="415.49" y2="273.58" stroke="#f6465d" stroke-width="1.4" /><rect x="412.49" y="160.22" width="6" height="96.64" rx="1.5" fill="#f6465d" /><line x1="426.23" y1="223.41" x2="426.23" y2="262.43" stroke="#0ecb81" stroke-width="1.4" /><rect x="423.23" y="256.86" width="6" height="2.00" rx="1.5" fill="#0ecb81" /><line x1="436.96" y1="175.08" x2="436.96" y2="277.30" stroke="#0ecb81" stroke-width="1.4" /><rect x="433.96" y="199.25" width="6" height="55.75" rx="1.5" fill="#0ecb81" /><line x1="447.70" y1="195.53" x2="447.70" y2="279.16" stroke="#f6465d" stroke-width="1.4" /><rect x="444.70" y="199.25" width="6" height="29.74" rx="1.5" fill="#f6465d" /><line x1="458.43" y1="188.09" x2="458.43" y2="234.56" stroke="#0ecb81" stroke-width="1.4" /><rect x="455.43" y="189.95" width="6" height="39.03" rx="1.5" fill="#0ecb81" /><line x1="469.16" y1="182.52" x2="469.16" y2="243.85" stroke="#f6465d" stroke-width="1.4" /><rect x="466.16" y="188.09" width="6" height="29.74" rx="1.5" fill="#f6465d" /><line x1="479.90" y1="214.11" x2="479.90" y2="234.56" stroke="#f6465d" stroke-width="1.4" /><rect x="476.90" y="215.97" width="6" height="13.01" rx="1.5" fill="#f6465d" /><line x1="490.63" y1="212.25" x2="490.63" y2="249.42" stroke="#0ecb81" stroke-width="1.4" /><rect x="487.63" y="219.69" width="6" height="9.29" rx="1.5" fill="#0ecb81" /><line x1="501.37" y1="197.39" x2="501.37" y2="221.55" stroke="#0ecb81" stroke-width="1.4" /><rect x="498.37" y="204.82" width="6" height="13.01" rx="1.5" fill="#0ecb81" /><line x1="512.10" y1="193.67" x2="512.10" y2="228.98" stroke="#0ecb81" stroke-width="1.4" /><rect x="509.10" y="204.82" width="6" height="2.00" rx="1.5" fill="#0ecb81" /><line x1="522.84" y1="191.81" x2="522.84" y2="219.69" stroke="#f6465d" stroke-width="1.4" /><rect x="519.84" y="204.82" width="6" height="9.29" rx="1.5" fill="#f6465d" /><line x1="533.57" y1="208.54" x2="533.57" y2="240.13" stroke="#f6465d" stroke-width="1.4" /><rect x="530.57" y="214.11" width="6" height="22.30" rx="1.5" fill="#f6465d" /><line x1="544.30" y1="217.83" x2="544.30" y2="238.27" stroke="#0ecb81" stroke-width="1.4" /><rect x="541.30" y="227.12" width="6" height="11.15" rx="1.5" fill="#0ecb81" /><line x1="555.04" y1="223.41" x2="555.04" y2="249.42" stroke="#f6465d" stroke-width="1.4" /><rect x="552.04" y="225.26" width="6" height="22.30" rx="1.5" fill="#f6465d" /><line x1="565.77" y1="227.12" x2="565.77" y2="247.57" stroke="#0ecb81" stroke-width="1.4" /><rect x="562.77" y="241.99" width="6" height="5.58" rx="1.5" fill="#0ecb81" /><line x1="576.51" y1="232.70" x2="576.51" y2="269.87" stroke="#f6465d" stroke-width="1.4" /><rect x="573.51" y="241.99" width="6" height="24.16" rx="1.5" fill="#f6465d" /><line x1="587.24" y1="266.15" x2="587.24" y2="281.02" stroke="#f6465d" stroke-width="1.4" /><rect x="584.24" y="266.15" width="6" height="7.43" rx="1.5" fill="#f6465d" /><line x1="597.97" y1="271.73" x2="597.97" y2="297.75" stroke="#f6465d" stroke-width="1.4" /><rect x="594.97" y="273.58" width="6" height="3.72" rx="1.5" fill="#f6465d" /><line x1="608.71" y1="262.43" x2="608.71" y2="279.16" stroke="#0ecb81" stroke-width="1.4" /><rect x="605.71" y="271.73" width="6" height="5.58" rx="1.5" fill="#0ecb81" /><line x1="619.44" y1="256.86" x2="619.44" y2="301.46" stroke="#f6465d" stroke-width="1.4" /><rect x="616.44" y="271.73" width="6" height="24.16" rx="1.5" fill="#f6465d" /><line x1="630.18" y1="269.87" x2="630.18" y2="297.75" stroke="#0ecb81" stroke-width="1.4" /><rect x="627.18" y="271.73" width="6" height="24.16" rx="1.5" fill="#0ecb81" /><line x1="640.91" y1="268.01" x2="640.91" y2="295.89" stroke="#f6465d" stroke-width="1.4" /><rect x="637.91" y="271.73" width="6" height="22.30" rx="1.5" fill="#f6465d" /><line x1="651.65" y1="290.31" x2="651.65" y2="307.04" stroke="#f6465d" stroke-width="1.4" /><rect x="648.65" y="294.03" width="6" height="7.43" rx="1.5" fill="#f6465d" /><line x1="662.38" y1="299.60" x2="662.38" y2="327.48" stroke="#f6465d" stroke-width="1.4" /><rect x="659.38" y="301.46" width="6" height="13.01" rx="1.5" fill="#f6465d" /><line x1="673.11" y1="305.18" x2="673.11" y2="323.76" stroke="#f6465d" stroke-width="1.4" /><rect x="670.11" y="312.61" width="6" height="3.72" rx="1.5" fill="#f6465d" /><line x1="683.85" y1="307.04" x2="683.85" y2="325.62" stroke="#0ecb81" stroke-width="1.4" /><rect x="680.85" y="314.47" width="6" height="2.00" rx="1.5" fill="#0ecb81" /><line x1="694.58" y1="305.18" x2="694.58" y2="316.33" stroke="#0ecb81" stroke-width="1.4" /><rect x="691.58" y="310.75" width="6" height="5.58" rx="1.5" fill="#0ecb81" /><line x1="705.32" y1="305.18" x2="705.32" y2="334.92" stroke="#f6465d" stroke-width="1.4" /><rect x="702.32" y="310.75" width="6" height="16.73" rx="1.5" fill="#f6465d" /><line x1="716.05" y1="310.75" x2="716.05" y2="327.48" stroke="#0ecb81" stroke-width="1.4" /><rect x="713.05" y="310.75" width="6" height="16.73" rx="1.5" fill="#0ecb81" /><line x1="726.78" y1="305.18" x2="726.78" y2="327.48" stroke="#f6465d" stroke-width="1.4" /><rect x="723.78" y="310.75" width="6" height="9.29" rx="1.5" fill="#f6465d" /><line x1="737.52" y1="314.47" x2="737.52" y2="323.76" stroke="#f6465d" stroke-width="1.4" /><rect x="734.52" y="320.05" width="6" height="3.72" rx="1.5" fill="#f6465d" /><line x1="748.25" y1="316.33" x2="748.25" y2="327.48" stroke="#0ecb81" stroke-width="1.4" /><rect x="745.25" y="321.91" width="6" height="2.00" rx="1.5" fill="#0ecb81" /><line x1="758.99" y1="320.05" x2="758.99" y2="338.63" stroke="#f6465d" stroke-width="1.4" /><rect x="755.99" y="321.91" width="6" height="11.15" rx="1.5" fill="#f6465d" /><line x1="769.72" y1="331.20" x2="769.72" y2="344.21" stroke="#f6465d" stroke-width="1.4" /><rect x="766.72" y="334.92" width="6" height="3.72" rx="1.5" fill="#f6465d" /><line x1="780.46" y1="334.92" x2="780.46" y2="349.78" stroke="#0ecb81" stroke-width="1.4" /><rect x="777.46" y="340.49" width="6" height="2.00" rx="1.5" fill="#0ecb81" /><line x1="791.19" y1="338.63" x2="791.19" y2="349.78" stroke="#f6465d" stroke-width="1.4" /><rect x="788.19" y="340.49" width="6" height="9.29" rx="1.5" fill="#f6465d" /><line x1="801.92" y1="347.92" x2="801.92" y2="377.66" stroke="#f6465d" stroke-width="1.4" /><rect x="798.92" y="349.78" width="6" height="11.15" rx="1.5" fill="#f6465d" /><line x1="812.66" y1="359.08" x2="812.66" y2="375.80" stroke="#f6465d" stroke-width="1.4" /><rect x="809.66" y="362.79" width="6" height="9.29" rx="1.5" fill="#f6465d" /><line x1="823.39" y1="370.23" x2="823.39" y2="401.82" stroke="#f6465d" stroke-width="1.4" /><rect x="820.39" y="373.94" width="6" height="13.01" rx="1.5" fill="#f6465d" /><line x1="834.13" y1="379.52" x2="834.13" y2="399.96" stroke="#f6465d" stroke-width="1.4" /><rect x="831.13" y="386.95" width="6" height="5.58" rx="1.5" fill="#f6465d" /><line x1="844.86" y1="390.67" x2="844.86" y2="403.68" stroke="#f6465d" stroke-width="1.4" /><rect x="841.86" y="392.53" width="6" height="3.72" rx="1.5" fill="#f6465d" /><line x1="855.59" y1="385.09" x2="855.59" y2="398.10" stroke="#0ecb81" stroke-width="1.4" /><rect x="852.59" y="386.95" width="6" height="9.29" rx="1.5" fill="#0ecb81" /><line x1="866.33" y1="366.51" x2="866.33" y2="388.81" stroke="#0ecb81" stroke-width="1.4" /><rect x="863.33" y="368.37" width="6" height="20.44" rx="1.5" fill="#0ecb81" /><line x1="877.06" y1="368.37" x2="877.06" y2="383.24" stroke="#f6465d" stroke-width="1.4" /><rect x="874.06" y="370.23" width="6" height="13.01" rx="1.5" fill="#f6465d" /><line x1="887.80" y1="379.52" x2="887.80" y2="412.97" stroke="#f6465d" stroke-width="1.4" /><rect x="884.80" y="381.38" width="6" height="26.02" rx="1.5" fill="#f6465d" /><line x1="898.53" y1="405.54" x2="898.53" y2="431.56" stroke="#f6465d" stroke-width="1.4" /><rect x="895.53" y="409.25" width="6" height="18.58" rx="1.5" fill="#f6465d" /><line x1="909.27" y1="420.41" x2="909.27" y2="452.00" stroke="#f6465d" stroke-width="1.4" /><rect x="906.27" y="425.98" width="6" height="14.87" rx="1.5" fill="#f6465d" /><line x1="920.00" y1="437.13" x2="920.00" y2="444.57" stroke="#0ecb81" stroke-width="1.4" /><rect x="917.00" y="438.99" width="6" height="3.72" rx="1.5" fill="#0ecb81" />
  <polyline points="372.56,353.50 415.49,58.00 447.70,279.16 522.84,191.81 662.38,327.48" fill="none" stroke="#2fc273" stroke-width="4" stroke-linecap="round" stroke-linejoin="round" />
  <circle cx="372.56" cy="353.50" r="5.5" fill="#2fc273" fill-opacity="0.15" stroke="#2fc273" stroke-width="2" /><text x="372.56" y="341.50" fill="#f3f4f6" font-size="15" font-weight="700" text-anchor="middle">X</text><circle cx="415.49" cy="58.00" r="5.5" fill="#2fc273" fill-opacity="0.15" stroke="#2fc273" stroke-width="2" /><text x="415.49" y="46.00" fill="#f3f4f6" font-size="15" font-weight="700" text-anchor="middle">A</text><circle cx="447.70" cy="279.16" r="5.5" fill="#2fc273" fill-opacity="0.15" stroke="#2fc273" stroke-width="2" /><text x="447.70" y="267.16" fill="#f3f4f6" font-size="15" font-weight="700" text-anchor="middle">B</text><circle cx="522.84" cy="191.81" r="5.5" fill="#2fc273" fill-opacity="0.15" stroke="#2fc273" stroke-width="2" /><text x="522.84" y="179.81" fill="#f3f4f6" font-size="15" font-weight="700" text-anchor="middle">C</text><circle cx="662.38" cy="327.48" r="5.5" fill="#2fc273" fill-opacity="0.15" stroke="#2fc273" stroke-width="2" /><text x="662.38" y="315.48" fill="#f3f4f6" font-size="15" font-weight="700" text-anchor="middle">D</text>
  <text x="56" y="492" fill="#8ba0b5" font-size="18">실시간 터치 · TP1 0.015749 · TP2 0.015921 · SL 0.015263</text>
</svg>
