<svg xmlns="http://www.w3.org/2000/svg" width="960" height="540" viewBox="0 0 960 540">
  <rect width="960" height="540" rx="24" fill="#0b1220" />
  <rect x="28" y="28" width="904" height="484" rx="22" fill="#111827" stroke="#1f2937" />
  <text x="56" y="74" fill="#f3f4f6" font-size="34" font-weight="700">ZROUSDT · AB=CD</text>
  <text x="904" y="74" fill="#8ba0b5" font-size="20" text-anchor="end">Bullish (매수) · Score 82.4</text>
  <line x1="72" y1="58" x2="920" y2="58" stroke="#223045" stroke-width="1" stroke-dasharray="4 8" /><line x1="72" y1="156" x2="920" y2="156" stroke="#223045" stroke-width="1" stroke-dasharray="4 8" /><line x1="72" y1="255" x2="920" y2="255" stroke="#223045" stroke-width="1" stroke-dasharray="4 8" /><line x1="72" y1="353" x2="920" y2="353" stroke="#223045" stroke-width="1" stroke-dasharray="4 8" /><line x1="72" y1="452" x2="920" y2="452" stroke="#223045" stroke-width="1" stroke-dasharray="4 8" />
  <rect x="376.76" y="445.96" width="84" height="137.17" fill="#fbbf24" fill-opacity="0.12" stroke="#fbbf24" stroke-width="1.5" stroke-dasharray="6 6" />
  <line x1="72.00" y1="242.50" x2="72.00" y2="280.43" stroke="#f6465d" stroke-width="1.4" /><rect x="69.00" y="272.67" width="6" height="4.31" rx="1.5" fill="#f6465d" /><line x1="82.73" y1="258.02" x2="82.73" y2="283.88" stroke="#0ecb81" stroke-width="1.4" /><rect x="79.73" y="275.26" width="6" height="2.59" rx="1.5" fill="#0ecb81" /><line x1="93.47" y1="263.19" x2="93.47" y2="352.85" stroke="#f6465d" stroke-width="1.4" /><rect x="90.47" y="275.26" width="6" height="71.56" rx="1.5" fill="#f6465d" /><line x1="104.20" y1="318.37" x2="104.20" y2="350.27" stroke="#0ecb81" stroke-width="1.4" /><rect x="101.20" y="332.16" width="6" height="14.66" rx="1.5" fill="#0ecb81" /><line x1="114.94" y1="332.16" x2="114.94" y2="381.30" stroke="#f6465d" stroke-width="1.4" /><rect x="111.94" y="332.16" width="6" height="40.52" rx="1.5" fill="#f6465d" /><line x1="125.67" y1="348.54" x2="125.67" y2="395.10" stroke="#0ecb81" stroke-width="1.4" /><rect x="122.67" y="357.16" width="6" height="13.79" rx="1.5" fill="#0ecb81" /><line x1="136.41" y1="343.37" x2="136.41" y2="397.68" stroke="#f6465d" stroke-width="1.4" /><rect x="133.41" y="357.16" width="6" height="19.83" rx="1.5" fill="#f6465d" /><line x1="147.14" y1="364.06" x2="147.14" y2="391.65" stroke="#f6465d" stroke-width="1.4" /><rect x="144.14" y="376.13" width="6" height="9.48" rx="1.5" fill="#f6465d" /><line x1="157.87" y1="364.06" x2="157.87" y2="393.37" stroke="#0ecb81" stroke-width="1.4" /><rect x="154.87" y="369.23" width="6" height="16.38" rx="1.5" fill="#0ecb81" /><line x1="168.61" y1="352.85" x2="168.61" y2="381.30" stroke="#f6465d" stroke-width="1.4" /><rect x="165.61" y="368.37" width="6" height="12.93" rx="1.5" fill="#f6465d" /><line x1="179.34" y1="342.51" x2="179.34" y2="384.75" stroke="#0ecb81" stroke-width="1.4" /><rect x="176.34" y="351.13" width="6" height="30.18" rx="1.5" fill="#0ecb81" /><line x1="190.08" y1="333.02" x2="190.08" y2="358.89" stroke="#0ecb81" stroke-width="1.4" /><rect x="187.08" y="343.37" width="6" height="8.62" rx="1.5" fill="#0ecb81" /><line x1="200.81" y1="308.02" x2="200.81" y2="344.23" stroke="#0ecb81" stroke-width="1.4" /><rect x="197.81" y="320.09" width="6" height="24.14" rx="1.5" fill="#0ecb81" /><line x1="211.54" y1="315.78" x2="211.54" y2="348.54" stroke="#f6465d" stroke-width="1.4" /><rect x="208.54" y="321.82" width="6" height="23.28" rx="1.5" fill="#f6465d" /><line x1="222.28" y1="347.68" x2="222.28" y2="389.06" stroke="#f6465d" stroke-width="1.4" /><rect x="219.28" y="347.68" width="6" height="37.93" rx="1.5" fill="#f6465d" /><line x1="233.01" y1="370.10" x2="233.01" y2="400.27" stroke="#0ecb81" stroke-width="1.4" /><rect x="230.01" y="374.41" width="6" height="11.21" rx="1.5" fill="#0ecb81" /><line x1="243.75" y1="373.54" x2="243.75" y2="424.41" stroke="#f6465d" stroke-width="1.4" /><rect x="240.75" y="375.27" width="6" height="43.11" rx="1.5" fill="#f6465d" /><line x1="254.48" y1="414.93" x2="254.48" y2="447.69" stroke="#f6465d" stroke-width="1.4" /><rect x="251.48" y="418.38" width="6" height="25.86" rx="1.5" fill="#f6465d" /><line x1="265.22" y1="412.34" x2="265.22" y2="452.00" stroke="#0ecb81" stroke-width="1.4" /><rect x="262.22" y="415.79" width="6" height="27.59" rx="1.5" fill="#0ecb81" /><line x1="275.95" y1="406.31" x2="275.95" y2="417.51" stroke="#0ecb81" stroke-width="1.4" /><rect x="272.95" y="406.31" width="6" height="9.48" rx="1.5" fill="#0ecb81" /><line x1="286.68" y1="386.48" x2="286.68" y2="406.31" stroke="#0ecb81" stroke-width="1.4" /><rect x="283.68" y="399.41" width="6" height="6.90" rx="1.5" fill="#0ecb81" /><line x1="297.42" y1="398.55" x2="297.42" y2="427.00" stroke="#f6465d" stroke-width="1.4" /><rect x="294.42" y="398.55" width="6" height="11.21" rx="1.5" fill="#f6465d" /><line x1="308.15" y1="375.27" x2="308.15" y2="429.58" stroke="#f6465d" stroke-width="1.4" /><rect x="305.15" y="408.89" width="6" height="8.62" rx="1.5" fill="#f6465d" /><line x1="318.89" y1="352.85" x2="318.89" y2="418.38" stroke="#0ecb81" stroke-width="1.4" /><rect x="315.89" y="366.65" width="6" height="50.00" rx="1.5" fill="#0ecb81" /><line x1="329.62" y1="302.85" x2="329.62" y2="365.79" stroke="#0ecb81" stroke-width="1.4" /><rect x="326.62" y="333.02" width="6" height="32.76" rx="1.5" fill="#0ecb81" /><line x1="340.35" y1="301.99" x2="340.35" y2="350.27" stroke="#f6465d" stroke-width="1.4" /><rect x="337.35" y="333.02" width="6" height="16.38" rx="1.5" fill="#f6465d" /><line x1="351.09" y1="314.92" x2="351.09" y2="354.58" stroke="#0ecb81" stroke-width="1.4" /><rect x="348.09" y="321.82" width="6" height="27.59" rx="1.5" fill="#0ecb81" /><line x1="361.82" y1="319.23" x2="361.82" y2="347.68" stroke="#f6465d" stroke-width="1.4" /><rect x="358.82" y="320.95" width="6" height="24.14" rx="1.5" fill="#f6465d" /><line x1="372.56" y1="339.92" x2="372.56" y2="384.75" stroke="#f6465d" stroke-width="1.4" /><rect x="369.56" y="344.23" width="6" height="37.93" rx="1.5" fill="#f6465d" /><line x1="383.29" y1="375.27" x2="383.29" y2="391.65" stroke="#f6465d" stroke-width="1.4" /><rect x="380.29" y="383.03" width="6" height="4.31" rx="1.5" fill="#f6465d" /><line x1="394.03" y1="371.82" x2="394.03" y2="404.58" stroke="#f6465d" stroke-width="1.4" /><rect x="391.03" y="386.48" width="6" height="11.21" rx="1.5" fill="#f6465d" /><line x1="404.76" y1="370.96" x2="404.76" y2="421.82" stroke="#0ecb81" stroke-width="1.4" /><rect x="401.76" y="383.89" width="6" height="12.93" rx="1.5" fill="#0ecb81" /><line x1="415.49" y1="339.06" x2="415.49" y2="383.89" stroke="#0ecb81" stroke-width="1.4" /><rect x="412.49" y="342.51" width="6" height="40.52" rx="1.5" fill="#0ecb81" /><line x1="426.23" y1="305.44" x2="426.23" y2="362.34" stroke="#0ecb81" stroke-width="1.4" /><rect x="423.23" y="339.92" width="6" height="2.59" rx="1.5" fill="#0ecb81" /><line x1="436.96" y1="305.44" x2="436.96" y2="346.82" stroke="#0ecb81" stroke-width="1.4" /><rect x="433.96" y="322.68" width="6" height="17.24" rx="1.5" fill="#0ecb81" /><line x1="447.70" y1="309.75" x2="447.70" y2="349.40" stroke="#f6465d" stroke-width="1.4" /><rect x="444.70" y="322.68" width="6" height="13.79" rx="1.5" fill="#f6465d" /><line x1="458.43" y1="335.61" x2="458.43" y2="364.92" stroke="#f6465d" stroke-width="1.4" /><rect x="455.43" y="335.61" width="6" height="21.55" rx="1.5" fill="#f6465d" /><line x1="469.16" y1="345.96" x2="469.16" y2="358.03" stroke="#0ecb81" stroke-width="1.4" /><rect x="466.16" y="347.68" width="6" height="9.48" rx="1.5" fill="#0ecb81" /><line x1="479.90" y1="339.06" x2="479.90" y2="380.44" stroke="#f6465d" stroke-width="1.4" /><rect x="476.90" y="347.68" width="6" height="25.00" rx="1.5" fill="#f6465d" /><line x1="490.63" y1="364.92" x2="490.63" y2="380.44" stroke="#f6465d" stroke-width="1.4" /><rect x="487.63" y="373.54" width="6" height="2.00" rx="1.5" fill="#f6465d" /><line x1="501.37" y1="360.61" x2="501.37" y2="384.75" stroke="#0ecb81" stroke-width="1.4" /><rect x="498.37" y="360.61" width="6" height="12.93" rx="1.5" fill="#0ecb81" /><line x1="512.10" y1="358.03" x2="512.10" y2="370.96" stroke="#f6465d" stroke-width="1.4" /><rect x="509.10" y="361.47" width="6" height="3.45" rx="1.5" fill="#f6465d" /><line x1="522.84" y1="354.58" x2="522.84" y2="370.10" stroke="#f6465d" stroke-width="1.4" /><rect x="519.84" y="364.06" width="6" height="5.17" rx="1.5" fill="#f6465d" /><line x1="533.57" y1="351.13" x2="533.57" y2="389.06" stroke="#0ecb81" stroke-width="1.4" /><rect x="530.57" y="365.79" width="6" height="3.45" rx="1.5" fill="#0ecb81" /><line x1="544.30" y1="362.34" x2="544.30" y2="389.06" stroke="#f6465d" stroke-width="1.4" /><rect x="541.30" y="364.92" width="6" height="12.07" rx="1.5" fill="#f6465d" /><line x1="555.04" y1="352.85" x2="555.04" y2="380.44" stroke="#0ecb81" stroke-width="1.4" /><rect x="552.04" y="358.89" width="6" height="17.24" rx="1.5" fill="#0ecb81" /><line x1="565.77" y1="346.82" x2="565.77" y2="402.00" stroke="#f6465d" stroke-width="1.4" /><rect x="562.77" y="358.89" width="6" height="37.07" rx="1.5" fill="#f6465d" /><line x1="576.51" y1="393.37" x2="576.51" y2="409.75" stroke="#f6465d" stroke-width="1.4" /><rect x="573.51" y="396.82" width="6" height="9.48" rx="1.5" fill="#f6465d" /><line x1="587.24" y1="371.82" x2="587.24" y2="408.89" stroke="#0ecb81" stroke-width="1.4" /><rect x="584.24" y="400.27" width="6" height="6.04" rx="1.5" fill="#0ecb81" /><line x1="597.97" y1="347.68" x2="597.97" y2="415.79" stroke="#0ecb81" stroke-width="1.4" /><rect x="594.97" y="393.37" width="6" height="6.90" rx="1.5" fill="#0ecb81" /><line x1="608.71" y1="315.78" x2="608.71" y2="396.82" stroke="#0ecb81" stroke-width="1.4" /><rect x="605.71" y="325.26" width="6" height="68.11" rx="1.5" fill="#0ecb81" /><line x1="619.44" y1="326.13" x2="619.44" y2="366.65" stroke="#f6465d" stroke-width="1.4" /><rect x="616.44" y="326.13" width="6" height="33.62" rx="1.5" fill="#f6465d" /><line x1="630.18" y1="324.40" x2="630.18" y2="364.92" stroke="#0ecb81" stroke-width="1.4" /><rect x="627.18" y="351.99" width="6" height="6.90" rx="1.5" fill="#0ecb81" /><line x1="640.91" y1="328.71" x2="640.91" y2="359.75" stroke="#0ecb81" stroke-width="1.4" /><rect x="637.91" y="345.09" width="6" height="8.62" rx="1.5" fill="#0ecb81" /><line x1="651.65" y1="324.40" x2="651.65" y2="352.85" stroke="#0ecb81" stroke-width="1.4" /><rect x="648.65" y="339.92" width="6" height="5.17" rx="1.5" fill="#0ecb81" /><line x1="662.38" y1="300.26" x2="662.38" y2="368.37" stroke="#f6465d" stroke-width="1.4" /><rect x="659.38" y="340.78" width="6" height="24.14" rx="1.5" fill="#f6465d" /><line x1="673.11" y1="311.47" x2="673.11" y2="370.10" stroke="#0ecb81" stroke-width="1.4" /><rect x="670.11" y="327.85" width="6" height="37.07" rx="1.5" fill="#0ecb81" /><line x1="683.85" y1="322.68" x2="683.85" y2="339.06" stroke="#f6465d" stroke-width="1.4" /><rect x="680.85" y="329.58" width="6" height="7.76" rx="1.5" fill="#f6465d" /><line x1="694.58" y1="333.89" x2="694.58" y2="365.79" stroke="#f6465d" stroke-width="1.4" /><rect x="691.58" y="337.33" width="6" height="12.07" rx="1.5" fill="#f6465d" /><line x1="705.32" y1="347.68" x2="705.32" y2="378.72" stroke="#f6465d" stroke-width="1.4" /><rect x="702.32" y="348.54" width="6" height="25.86" rx="1.5" fill="#f6465d" /><line x1="716.05" y1="298.54" x2="716.05" y2="381.30" stroke="#0ecb81" stroke-width="1.4" /><rect x="713.05" y="351.13" width="6" height="23.28" rx="1.5" fill="#0ecb81" /><line x1="726.78" y1="318.37" x2="726.78" y2="360.61" stroke="#0ecb81" stroke-width="1.4" /><rect x="723.78" y="337.33" width="6" height="14.66" rx="1.5" fill="#0ecb81" /><line x1="737.52" y1="319.23" x2="737.52" y2="355.44" stroke="#0ecb81" stroke-width="1.4" /><rect x="734.52" y="325.26" width="6" height="11.21" rx="1.5" fill="#0ecb81" /><line x1="748.25" y1="293.37" x2="748.25" y2="337.33" stroke="#0ecb81" stroke-width="1.4" /><rect x="745.25" y="301.99" width="6" height="23.28" rx="1.5" fill="#0ecb81" /><line x1="758.99" y1="145.08" x2="758.99" y2="303.71" stroke="#0ecb81" stroke-width="1.4" /><rect x="755.99" y="152.84" width="6" height="149.15" rx="1.5" fill="#0ecb81" /><line x1="769.72" y1="147.66" x2="769.72" y2="190.77" stroke="#f6465d" stroke-width="1.4" /><rect x="766.72" y="151.97" width="6" height="23.28" rx="1.5" fill="#f6465d" /><line x1="780.46" y1="170.08" x2="780.46" y2="215.77" stroke="#f6465d" stroke-width="1.4" /><rect x="777.46" y="176.98" width="6" height="9.48" rx="1.5" fill="#f6465d" /><line x1="791.19" y1="100.25" x2="791.19" y2="196.81" stroke="#0ecb81" stroke-width="1.4" /><rect x="788.19" y="101.11" width="6" height="86.21" rx="1.5" fill="#0ecb81" /><line x1="801.92" y1="88.18" x2="801.92" y2="162.32" stroke="#f6465d" stroke-width="1.4" /><rect x="798.92" y="101.11" width="6" height="49.14" rx="1.5" fill="#f6465d" /><line x1="812.66" y1="58.00" x2="812.66" y2="165.77" stroke="#f6465d" stroke-width="1.4" /><rect x="809.66" y="151.11" width="6" height="12.07" rx="1.5" fill="#f6465d" /><line x1="823.39" y1="141.63" x2="823.39" y2="181.29" stroke="#0ecb81" stroke-width="1.4" /><rect x="820.39" y="143.35" width="6" height="20.69" rx="1.5" fill="#0ecb81" /><line x1="834.13" y1="128.70" x2="834.13" y2="257.16" stroke="#f6465d" stroke-width="1.4" /><rect x="831.13" y="144.21" width="6" height="22.42" rx="1.5" fill="#f6465d" /><line x1="844.86" y1="114.04" x2="844.86" y2="170.94" stroke="#0ecb81" stroke-width="1.4" /><rect x="841.86" y="155.42" width="6" height="11.21" rx="1.5" fill="#0ecb81" /><line x1="855.59" y1="133.87" x2="855.59" y2="169.22" stroke="#f6465d" stroke-width="1.4" /><rect x="852.59" y="155.42" width="6" height="6.04" rx="1.5" fill="#f6465d" /><line x1="866.33" y1="150.25" x2="866.33" y2="179.56" stroke="#f6465d" stroke-width="1.4" /><rect x="863.33" y="160.60" width="6" height="8.62" rx="1.5" fill="#f6465d" /><line x1="877.06" y1="160.60" x2="877.06" y2="186.46" stroke="#f6465d" stroke-width="1.4" /><rect x="874.06" y="170.08" width="6" height="6.04" rx="1.5" fill="#f6465d" /><line x1="887.80" y1="176.98" x2="887.80" y2="259.74" stroke="#f6465d" stroke-width="1.4" /><rect x="884.80" y="176.98" width="6" height="75.01" rx="1.5" fill="#f6465d" /><line x1="898.53" y1="228.70" x2="898.53" y2="259.74" stroke="#0ecb81" stroke-width="1.4" /><rect x="895.53" y="228.70" width="6" height="22.42" rx="1.5" fill="#0ecb81" /><line x1="909.27" y1="179.56" x2="909.27" y2="244.22" stroke="#0ecb81" stroke-width="1.4" /><rect x="906.27" y="196.81" width="6" height="31.90" rx="1.5" fill="#0ecb81" /><line x1="920.00" y1="58.86" x2="920.00" y2="207.15" stroke="#0ecb81" stroke-width="1.4" /><rect x="917.00" y="90.76" width="6" height="106.04" rx="1.5" fill="#0ecb81" />
  <polyline points="136.41,397.68 200.81,308.02 265.22,452.00 340.35,301.99 404.76,421.82" fill="none" stroke="#2fc273" stroke-width="4" stroke-linecap="round" stroke-linejoin="round" />
  <circle cx="136.41" cy="397.68" r="5.5" fill="#2fc273" fill-opacity="0.15" stroke="#2fc273" stroke-width="2" /><text x="136.41" y="385.68" fill="#f3f4f6" font-size="15" font-weight="700" text-anchor="middle">X</text><circle cx="200.81" cy="308.02" r="5.5" fill="#2fc273" fill-opacity="0.15" stroke="#2fc273" stroke-width="2" /><text x="200.81" y="296.02" fill="#f3f4f6" font-size="15" font-weight="700" text-anchor="middle">A</text><circle cx="265.22" cy="452.00" r="5.5" fill="#2fc273" fill-opacity="0.15" stroke="#2fc273" stroke-width="2" /><text x="265.22" y="440.00" fill="#f3f4f6" font-size="15" font-weight="700" text-anchor="middle">B</text><circle cx="340.35" cy="301.99" r="5.5" fill="#2fc273" fill-opacity="0.15" stroke="#2fc273" stroke-width="2" /><text x="340.35" y="289.99" fill="#f3f4f6" font-size="15" font-weight="700" text-anchor="middle">C</text><circle cx="404.76" cy="421.82" r="5.5" fill="#2fc273" fill-opacity="0.15" stroke="#2fc273" stroke-width="2" /><text x="404.76" y="409.82" fill="#f3f4f6" font-size="15" font-weight="700" text-anchor="middle">D</text>
  <text x="56" y="492" fill="#8ba0b5" font-size="18">Complete · TP1 0.78941 · TP2 0.79269 · SL 0.78275</text>
</svg>
