<svg xmlns="http://www.w3.org/2000/svg" width="960" height="540" viewBox="0 0 960 540">
  <rect width="960" height="540" rx="24" fill="#0b1220" />
  <rect x="28" y="28" width="904" height="484" rx="22" fill="#111827" stroke="#1f2937" />
  <text x="56" y="74" fill="#f3f4f6" font-size="34" font-weight="700">币安人生USDT · AB=CD</text>
  <text x="904" y="74" fill="#8ba0b5" font-size="20" text-anchor="end">Bearish (매도) · Score 87.2</text>
  <line x1="72" y1="58" x2="920" y2="58" stroke="#223045" stroke-width="1" stroke-dasharray="4 8" /><line x1="72" y1="156" x2="920" y2="156" stroke="#223045" stroke-width="1" stroke-dasharray="4 8" /><line x1="72" y1="255" x2="920" y2="255" stroke="#223045" stroke-width="1" stroke-dasharray="4 8" /><line x1="72" y1="353" x2="920" y2="353" stroke="#223045" stroke-width="1" stroke-dasharray="4 8" /><line x1="72" y1="452" x2="920" y2="452" stroke="#223045" stroke-width="1" stroke-dasharray="4 8" />
  <rect x="773.92" y="46.18" width="84" height="57.20" fill="#fbbf24" fill-opacity="0.12" stroke="#fbbf24" stroke-width="1.5" stroke-dasharray="6 6" />
  <line x1="72.00" y1="388.30" x2="72.00" y2="440.84" stroke="#0ecb81" stroke-width="1.4" /><rect x="69.00" y="415.88" width="6" height="13.79" rx="1.5" fill="#0ecb81" /><line x1="82.73" y1="383.71" x2="82.73" y2="421.79" stroke="#0ecb81" stroke-width="1.4" /><rect x="79.73" y="391.59" width="6" height="25.61" rx="1.5" fill="#0ecb81" /><line x1="93.47" y1="375.83" x2="93.47" y2="425.73" stroke="#f6465d" stroke-width="1.4" /><rect x="90.47" y="392.24" width="6" height="24.30" rx="1.5" fill="#f6465d" /><line x1="104.20" y1="413.91" x2="104.20" y2="452.00" stroke="#f6465d" stroke-width="1.4" /><rect x="101.20" y="416.54" width="6" height="21.01" rx="1.5" fill="#f6465d" /><line x1="114.94" y1="406.69" x2="114.94" y2="434.93" stroke="#0ecb81" stroke-width="1.4" /><rect x="111.94" y="419.17" width="6" height="15.76" rx="1.5" fill="#0ecb81" /><line x1="125.67" y1="365.98" x2="125.67" y2="423.76" stroke="#0ecb81" stroke-width="1.4" /><rect x="122.67" y="368.60" width="6" height="50.56" rx="1.5" fill="#0ecb81" /><line x1="136.41" y1="359.41" x2="136.41" y2="417.85" stroke="#f6465d" stroke-width="1.4" /><rect x="133.41" y="368.60" width="6" height="32.83" rx="1.5" fill="#f6465d" /><line x1="147.14" y1="339.71" x2="147.14" y2="416.54" stroke="#0ecb81" stroke-width="1.4" /><rect x="144.14" y="368.60" width="6" height="32.18" rx="1.5" fill="#0ecb81" /><line x1="157.87" y1="332.49" x2="157.87" y2="375.17" stroke="#f6465d" stroke-width="1.4" /><rect x="154.87" y="368.60" width="6" height="2.00" rx="1.5" fill="#f6465d" /><line x1="168.61" y1="369.26" x2="168.61" y2="413.26" stroke="#f6465d" stroke-width="1.4" /><rect x="165.61" y="369.26" width="6" height="13.79" rx="1.5" fill="#f6465d" /><line x1="179.34" y1="348.25" x2="179.34" y2="383.71" stroke="#0ecb81" stroke-width="1.4" /><rect x="176.34" y="350.87" width="6" height="32.18" rx="1.5" fill="#0ecb81" /><line x1="190.08" y1="318.70" x2="190.08" y2="355.47" stroke="#0ecb81" stroke-width="1.4" /><rect x="187.08" y="330.52" width="6" height="21.01" rx="1.5" fill="#0ecb81" /><line x1="200.81" y1="329.20" x2="200.81" y2="404.06" stroke="#f6465d" stroke-width="1.4" /><rect x="197.81" y="330.52" width="6" height="35.46" rx="1.5" fill="#f6465d" /><line x1="211.54" y1="348.25" x2="211.54" y2="377.14" stroke="#0ecb81" stroke-width="1.4" /><rect x="208.54" y="359.41" width="6" height="7.22" rx="1.5" fill="#0ecb81" /><line x1="222.28" y1="310.16" x2="222.28" y2="363.35" stroke="#0ecb81" stroke-width="1.4" /><rect x="219.28" y="325.92" width="6" height="34.15" rx="1.5" fill="#0ecb81" /><line x1="233.01" y1="299.00" x2="233.01" y2="325.92" stroke="#0ecb81" stroke-width="1.4" /><rect x="230.01" y="312.79" width="6" height="13.13" rx="1.5" fill="#0ecb81" /><line x1="243.75" y1="233.33" x2="243.75" y2="314.10" stroke="#0ecb81" stroke-width="1.4" /><rect x="240.75" y="284.55" width="6" height="28.89" rx="1.5" fill="#0ecb81" /><line x1="254.48" y1="263.54" x2="254.48" y2="308.19" stroke="#f6465d" stroke-width="1.4" /><rect x="251.48" y="281.92" width="6" height="8.54" rx="1.5" fill="#f6465d" /><line x1="265.22" y1="259.60" x2="265.22" y2="293.09" stroke="#0ecb81" stroke-width="1.4" /><rect x="262.22" y="264.85" width="6" height="27.58" rx="1.5" fill="#0ecb81" /><line x1="275.95" y1="233.33" x2="275.95" y2="274.70" stroke="#0ecb81" stroke-width="1.4" /><rect x="272.95" y="239.24" width="6" height="24.95" rx="1.5" fill="#0ecb81" /><line x1="286.68" y1="191.30" x2="286.68" y2="257.63" stroke="#0ecb81" stroke-width="1.4" /><rect x="283.68" y="224.14" width="6" height="15.10" rx="1.5" fill="#0ecb81" /><line x1="297.42" y1="192.62" x2="297.42" y2="232.67" stroke="#0ecb81" stroke-width="1.4" /><rect x="294.42" y="195.24" width="6" height="28.24" rx="1.5" fill="#0ecb81" /><line x1="308.15" y1="177.51" x2="308.15" y2="274.70" stroke="#f6465d" stroke-width="1.4" /><rect x="305.15" y="195.90" width="6" height="59.10" rx="1.5" fill="#f6465d" /><line x1="318.89" y1="255.00" x2="318.89" y2="329.86" stroke="#f6465d" stroke-width="1.4" /><rect x="315.89" y="255.00" width="6" height="49.25" rx="1.5" fill="#f6465d" /><line x1="329.62" y1="289.80" x2="329.62" y2="357.44" stroke="#f6465d" stroke-width="1.4" /><rect x="326.62" y="304.91" width="6" height="47.94" rx="1.5" fill="#f6465d" /><line x1="340.35" y1="329.20" x2="340.35" y2="378.45" stroke="#f6465d" stroke-width="1.4" /><rect x="337.35" y="351.53" width="6" height="17.07" rx="1.5" fill="#f6465d" /><line x1="351.09" y1="329.86" x2="351.09" y2="385.68" stroke="#0ecb81" stroke-width="1.4" /><rect x="348.09" y="339.05" width="6" height="28.89" rx="1.5" fill="#0ecb81" /><line x1="361.82" y1="322.64" x2="361.82" y2="369.92" stroke="#f6465d" stroke-width="1.4" /><rect x="358.82" y="338.40" width="6" height="23.64" rx="1.5" fill="#f6465d" /><line x1="372.56" y1="343.65" x2="372.56" y2="377.14" stroke="#f6465d" stroke-width="1.4" /><rect x="369.56" y="362.04" width="6" height="3.94" rx="1.5" fill="#f6465d" /><line x1="383.29" y1="355.47" x2="383.29" y2="377.80" stroke="#f6465d" stroke-width="1.4" /><rect x="380.29" y="367.29" width="6" height="3.28" rx="1.5" fill="#f6465d" /><line x1="394.03" y1="356.78" x2="394.03" y2="385.68" stroke="#0ecb81" stroke-width="1.4" /><rect x="391.03" y="367.29" width="6" height="3.28" rx="1.5" fill="#0ecb81" /><line x1="404.76" y1="335.77" x2="404.76" y2="373.86" stroke="#0ecb81" stroke-width="1.4" /><rect x="401.76" y="360.07" width="6" height="8.54" rx="1.5" fill="#0ecb81" /><line x1="415.49" y1="316.07" x2="415.49" y2="364.01" stroke="#f6465d" stroke-width="1.4" /><rect x="412.49" y="360.07" width="6" height="2.63" rx="1.5" fill="#f6465d" /><line x1="426.23" y1="339.71" x2="426.23" y2="385.02" stroke="#0ecb81" stroke-width="1.4" /><rect x="423.23" y="351.53" width="6" height="11.82" rx="1.5" fill="#0ecb81" /><line x1="436.96" y1="314.76" x2="436.96" y2="393.56" stroke="#f6465d" stroke-width="1.4" /><rect x="433.96" y="351.53" width="6" height="24.95" rx="1.5" fill="#f6465d" /><line x1="447.70" y1="318.70" x2="447.70" y2="396.18" stroke="#0ecb81" stroke-width="1.4" /><rect x="444.70" y="348.90" width="6" height="27.58" rx="1.5" fill="#0ecb81" /><line x1="458.43" y1="333.80" x2="458.43" y2="360.72" stroke="#f6465d" stroke-width="1.4" /><rect x="455.43" y="348.90" width="6" height="11.82" rx="1.5" fill="#f6465d" /><line x1="469.16" y1="359.41" x2="469.16" y2="394.87" stroke="#f6465d" stroke-width="1.4" /><rect x="466.16" y="359.41" width="6" height="4.60" rx="1.5" fill="#f6465d" /><line x1="479.90" y1="283.89" x2="479.90" y2="377.14" stroke="#0ecb81" stroke-width="1.4" /><rect x="476.90" y="323.95" width="6" height="39.40" rx="1.5" fill="#0ecb81" /><line x1="490.63" y1="306.22" x2="490.63" y2="340.37" stroke="#0ecb81" stroke-width="1.4" /><rect x="487.63" y="317.38" width="6" height="5.91" rx="1.5" fill="#0ecb81" /><line x1="501.37" y1="283.89" x2="501.37" y2="318.04" stroke="#0ecb81" stroke-width="1.4" /><rect x="498.37" y="290.46" width="6" height="27.58" rx="1.5" fill="#0ecb81" /><line x1="512.10" y1="281.92" x2="512.10" y2="329.20" stroke="#f6465d" stroke-width="1.4" /><rect x="509.10" y="290.46" width="6" height="30.21" rx="1.5" fill="#f6465d" /><line x1="522.84" y1="243.84" x2="522.84" y2="331.83" stroke="#0ecb81" stroke-width="1.4" /><rect x="519.84" y="256.31" width="6" height="64.35" rx="1.5" fill="#0ecb81" /><line x1="533.57" y1="232.02" x2="533.57" y2="295.71" stroke="#f6465d" stroke-width="1.4" /><rect x="530.57" y="256.31" width="6" height="11.16" rx="1.5" fill="#f6465d" /><line x1="544.30" y1="251.06" x2="544.30" y2="292.43" stroke="#0ecb81" stroke-width="1.4" /><rect x="541.30" y="258.28" width="6" height="8.54" rx="1.5" fill="#0ecb81" /><line x1="555.04" y1="232.02" x2="555.04" y2="295.71" stroke="#f6465d" stroke-width="1.4" /><rect x="552.04" y="257.63" width="6" height="26.27" rx="1.5" fill="#f6465d" /><line x1="565.77" y1="274.70" x2="565.77" y2="348.25" stroke="#f6465d" stroke-width="1.4" /><rect x="562.77" y="284.55" width="6" height="24.30" rx="1.5" fill="#f6465d" /><line x1="576.51" y1="280.61" x2="576.51" y2="321.32" stroke="#0ecb81" stroke-width="1.4" /><rect x="573.51" y="299.65" width="6" height="10.51" rx="1.5" fill="#0ecb81" /><line x1="587.24" y1="290.46" x2="587.24" y2="329.20" stroke="#f6465d" stroke-width="1.4" /><rect x="584.24" y="300.31" width="6" height="2.00" rx="1.5" fill="#f6465d" /><line x1="597.97" y1="245.15" x2="597.97" y2="314.10" stroke="#0ecb81" stroke-width="1.4" /><rect x="594.97" y="263.54" width="6" height="38.09" rx="1.5" fill="#0ecb81" /><line x1="608.71" y1="259.60" x2="608.71" y2="310.82" stroke="#f6465d" stroke-width="1.4" /><rect x="605.71" y="262.88" width="6" height="16.42" rx="1.5" fill="#f6465d" /><line x1="619.44" y1="272.07" x2="619.44" y2="335.11" stroke="#f6465d" stroke-width="1.4" /><rect x="616.44" y="277.98" width="6" height="32.83" rx="1.5" fill="#f6465d" /><line x1="630.18" y1="256.97" x2="630.18" y2="348.90" stroke="#0ecb81" stroke-width="1.4" /><rect x="627.18" y="279.30" width="6" height="33.49" rx="1.5" fill="#0ecb81" /><line x1="640.91" y1="263.54" x2="640.91" y2="323.29" stroke="#f6465d" stroke-width="1.4" /><rect x="637.91" y="281.92" width="6" height="6.57" rx="1.5" fill="#f6465d" /><line x1="651.65" y1="287.18" x2="651.65" y2="327.23" stroke="#f6465d" stroke-width="1.4" /><rect x="648.65" y="287.83" width="6" height="32.83" rx="1.5" fill="#f6465d" /><line x1="662.38" y1="286.52" x2="662.38" y2="342.99" stroke="#0ecb81" stroke-width="1.4" /><rect x="659.38" y="293.09" width="6" height="27.58" rx="1.5" fill="#0ecb81" /><line x1="673.11" y1="286.52" x2="673.11" y2="306.22" stroke="#f6465d" stroke-width="1.4" /><rect x="670.11" y="293.74" width="6" height="5.91" rx="1.5" fill="#f6465d" /><line x1="683.85" y1="296.37" x2="683.85" y2="420.48" stroke="#f6465d" stroke-width="1.4" /><rect x="680.85" y="297.68" width="6" height="84.71" rx="1.5" fill="#f6465d" /><line x1="694.58" y1="320.67" x2="694.58" y2="393.56" stroke="#0ecb81" stroke-width="1.4" /><rect x="691.58" y="334.46" width="6" height="47.28" rx="1.5" fill="#0ecb81" /><line x1="705.32" y1="300.31" x2="705.32" y2="346.93" stroke="#0ecb81" stroke-width="1.4" /><rect x="702.32" y="308.19" width="6" height="26.27" rx="1.5" fill="#0ecb81" /><line x1="716.05" y1="286.52" x2="716.05" y2="317.38" stroke="#0ecb81" stroke-width="1.4" /><rect x="713.05" y="295.71" width="6" height="12.48" rx="1.5" fill="#0ecb81" /><line x1="726.78" y1="244.49" x2="726.78" y2="295.06" stroke="#0ecb81" stroke-width="1.4" /><rect x="723.78" y="266.82" width="6" height="28.24" rx="1.5" fill="#0ecb81" /><line x1="737.52" y1="186.05" x2="737.52" y2="278.64" stroke="#0ecb81" stroke-width="1.4" /><rect x="734.52" y="212.97" width="6" height="53.85" rx="1.5" fill="#0ecb81" /><line x1="748.25" y1="187.36" x2="748.25" y2="233.33" stroke="#f6465d" stroke-width="1.4" /><rect x="745.25" y="213.63" width="6" height="13.13" rx="1.5" fill="#f6465d" /><line x1="758.99" y1="204.44" x2="758.99" y2="237.93" stroke="#0ecb81" stroke-width="1.4" /><rect x="755.99" y="216.91" width="6" height="9.85" rx="1.5" fill="#0ecb81" /><line x1="769.72" y1="198.53" x2="769.72" y2="280.61" stroke="#f6465d" stroke-width="1.4" /><rect x="766.72" y="216.26" width="6" height="10.51" rx="1.5" fill="#f6465d" /><line x1="780.46" y1="206.41" x2="780.46" y2="264.19" stroke="#f6465d" stroke-width="1.4" /><rect x="777.46" y="228.08" width="6" height="11.82" rx="1.5" fill="#f6465d" /><line x1="791.19" y1="204.44" x2="791.19" y2="245.15" stroke="#0ecb81" stroke-width="1.4" /><rect x="788.19" y="217.57" width="6" height="21.67" rx="1.5" fill="#0ecb81" /><line x1="801.92" y1="58.00" x2="801.92" y2="226.11" stroke="#0ecb81" stroke-width="1.4" /><rect x="798.92" y="124.32" width="6" height="93.25" rx="1.5" fill="#0ecb81" /><line x1="812.66" y1="81.64" x2="812.66" y2="145.34" stroke="#f6465d" stroke-width="1.4" /><rect x="809.66" y="124.98" width="6" height="2.63" rx="1.5" fill="#f6465d" /><line x1="823.39" y1="98.71" x2="823.39" y2="130.23" stroke="#0ecb81" stroke-width="1.4" /><rect x="820.39" y="128.26" width="6" height="2.00" rx="1.5" fill="#0ecb81" /><line x1="834.13" y1="128.26" x2="834.13" y2="188.02" stroke="#f6465d" stroke-width="1.4" /><rect x="831.13" y="128.26" width="6" height="26.92" rx="1.5" fill="#f6465d" /><line x1="844.86" y1="130.23" x2="844.86" y2="167.66" stroke="#0ecb81" stroke-width="1.4" /><rect x="841.86" y="147.96" width="6" height="7.22" rx="1.5" fill="#0ecb81" /><line x1="855.59" y1="120.38" x2="855.59" y2="167.01" stroke="#f6465d" stroke-width="1.4" /><rect x="852.59" y="148.62" width="6" height="9.19" rx="1.5" fill="#f6465d" /><line x1="866.33" y1="116.44" x2="866.33" y2="180.14" stroke="#0ecb81" stroke-width="1.4" /><rect x="863.33" y="121.04" width="6" height="38.74" rx="1.5" fill="#0ecb81" /><line x1="877.06" y1="108.56" x2="877.06" y2="175.54" stroke="#f6465d" stroke-width="1.4" /><rect x="874.06" y="119.07" width="6" height="34.80" rx="1.5" fill="#f6465d" /><line x1="887.80" y1="115.13" x2="887.80" y2="174.89" stroke="#0ecb81" stroke-width="1.4" /><rect x="884.80" y="141.40" width="6" height="13.79" rx="1.5" fill="#0ecb81" /><line x1="898.53" y1="96.74" x2="898.53" y2="310.16" stroke="#f6465d" stroke-width="1.4" /><rect x="895.53" y="142.05" width="6" height="120.17" rx="1.5" fill="#f6465d" /><line x1="909.27" y1="130.89" x2="909.27" y2="284.55" stroke="#0ecb81" stroke-width="1.4" /><rect x="906.27" y="140.74" width="6" height="123.45" rx="1.5" fill="#0ecb81" /><line x1="920.00" y1="142.71" x2="920.00" y2="172.26" stroke="#f6465d" stroke-width="1.4" /><rect x="917.00" y="142.71" width="6" height="24.30" rx="1.5" fill="#f6465d" />
  <polyline points="597.97,245.15 683.85,420.48 737.52,186.05 769.72,280.61 801.92,58.00" fill="none" stroke="#2fc273" stroke-width="4" stroke-linecap="round" stroke-linejoin="round" />
  <circle cx="597.97" cy="245.15" r="5.5" fill="#2fc273" fill-opacity="0.15" stroke="#2fc273" stroke-width="2" /><text x="597.97" y="233.15" fill="#f3f4f6" font-size="15" font-weight="700" text-anchor="middle">X</text><circle cx="683.85" cy="420.48" r="5.5" fill="#2fc273" fill-opacity="0.15" stroke="#2fc273" stroke-width="2" /><text x="683.85" y="408.48" fill="#f3f4f6" font-size="15" font-weight="700" text-anchor="middle">A</text><circle cx="737.52" cy="186.05" r="5.5" fill="#2fc273" fill-opacity="0.15" stroke="#2fc273" stroke-width="2" /><text x="737.52" y="174.05" fill="#f3f4f6" font-size="15" font-weight="700" text-anchor="middle">B</text><circle cx="769.72" cy="280.61" r="5.5" fill="#2fc273" fill-opacity="0.15" stroke="#2fc273" stroke-width="2" /><text x="769.72" y="268.61" fill="#f3f4f6" font-size="15" font-weight="700" text-anchor="middle">C</text><circle cx="801.92" cy="58.00" r="5.5" fill="#2fc273" fill-opacity="0.15" stroke="#2fc273" stroke-width="2" /><text x="801.92" y="46.00" fill="#f3f4f6" font-size="15" font-weight="700" text-anchor="middle">D</text>
  <text x="56" y="492" fill="#8ba0b5" font-size="18">일반 완성 · TP1 0.060235 · TP2 0.059435 · SL 0.061877</text>
</svg>
