<svg xmlns="http://www.w3.org/2000/svg" width="960" height="540" viewBox="0 0 960 540">
  <rect width="960" height="540" rx="24" fill="#0b1220" />
  <rect x="28" y="28" width="904" height="484" rx="22" fill="#111827" stroke="#1f2937" />
  <text x="56" y="74" fill="#f3f4f6" font-size="34" font-weight="700">我踏马来了USDT · AB=CD</text>
  <text x="904" y="74" fill="#8ba0b5" font-size="20" text-anchor="end">Bearish (매도) · Score 87.5</text>
  <line x1="72" y1="58" x2="920" y2="58" stroke="#223045" stroke-width="1" stroke-dasharray="4 8" /><line x1="72" y1="156" x2="920" y2="156" stroke="#223045" stroke-width="1" stroke-dasharray="4 8" /><line x1="72" y1="255" x2="920" y2="255" stroke="#223045" stroke-width="1" stroke-dasharray="4 8" /><line x1="72" y1="353" x2="920" y2="353" stroke="#223045" stroke-width="1" stroke-dasharray="4 8" /><line x1="72" y1="452" x2="920" y2="452" stroke="#223045" stroke-width="1" stroke-dasharray="4 8" />
  <rect x="838.33" y="105.27" width="84" height="8.69" fill="#fbbf24" fill-opacity="0.12" stroke="#fbbf24" stroke-width="1.5" stroke-dasharray="6 6" />
  <line x1="72.00" y1="435.84" x2="72.00" y2="452.00" stroke="#f6465d" stroke-width="1.4" /><rect x="69.00" y="443.00" width="6" height="4.12" rx="1.5" fill="#f6465d" /><line x1="82.73" y1="431.87" x2="82.73" y2="446.36" stroke="#0ecb81" stroke-width="1.4" /><rect x="79.73" y="439.34" width="6" height="7.01" rx="1.5" fill="#0ecb81" /><line x1="93.47" y1="435.84" x2="93.47" y2="444.53" stroke="#f6465d" stroke-width="1.4" /><rect x="90.47" y="439.19" width="6" height="2.00" rx="1.5" fill="#f6465d" /><line x1="104.20" y1="434.47" x2="104.20" y2="445.90" stroke="#f6465d" stroke-width="1.4" /><rect x="101.20" y="439.19" width="6" height="3.05" rx="1.5" fill="#f6465d" /><line x1="114.94" y1="439.19" x2="114.94" y2="449.41" stroke="#f6465d" stroke-width="1.4" /><rect x="111.94" y="442.24" width="6" height="2.00" rx="1.5" fill="#f6465d" /><line x1="125.67" y1="439.95" x2="125.67" y2="451.85" stroke="#0ecb81" stroke-width="1.4" /><rect x="122.67" y="442.70" width="6" height="2.00" rx="1.5" fill="#0ecb81" /><line x1="136.41" y1="436.60" x2="136.41" y2="448.80" stroke="#0ecb81" stroke-width="1.4" /><rect x="133.41" y="439.95" width="6" height="3.20" rx="1.5" fill="#0ecb81" /><line x1="147.14" y1="433.86" x2="147.14" y2="440.56" stroke="#0ecb81" stroke-width="1.4" /><rect x="144.14" y="436.90" width="6" height="2.59" rx="1.5" fill="#0ecb81" /><line x1="157.87" y1="435.38" x2="157.87" y2="440.72" stroke="#0ecb81" stroke-width="1.4" /><rect x="154.87" y="437.82" width="6" height="2.00" rx="1.5" fill="#0ecb81" /><line x1="168.61" y1="435.23" x2="168.61" y2="449.41" stroke="#0ecb81" stroke-width="1.4" /><rect x="165.61" y="437.06" width="6" height="2.00" rx="1.5" fill="#0ecb81" /><line x1="179.34" y1="428.98" x2="179.34" y2="440.26" stroke="#0ecb81" stroke-width="1.4" /><rect x="176.34" y="434.16" width="6" height="2.90" rx="1.5" fill="#0ecb81" /><line x1="190.08" y1="429.28" x2="190.08" y2="434.77" stroke="#0ecb81" stroke-width="1.4" /><rect x="187.08" y="431.26" width="6" height="2.74" rx="1.5" fill="#0ecb81" /><line x1="200.81" y1="411.75" x2="200.81" y2="441.94" stroke="#0ecb81" stroke-width="1.4" /><rect x="197.81" y="418.46" width="6" height="12.50" rx="1.5" fill="#0ecb81" /><line x1="211.54" y1="407.48" x2="211.54" y2="421.66" stroke="#0ecb81" stroke-width="1.4" /><rect x="208.54" y="408.09" width="6" height="10.37" rx="1.5" fill="#0ecb81" /><line x1="222.28" y1="402.14" x2="222.28" y2="418.15" stroke="#0ecb81" stroke-width="1.4" /><rect x="219.28" y="405.49" width="6" height="3.20" rx="1.5" fill="#0ecb81" /><line x1="233.01" y1="397.26" x2="233.01" y2="408.85" stroke="#0ecb81" stroke-width="1.4" /><rect x="230.01" y="399.85" width="6" height="3.66" rx="1.5" fill="#0ecb81" /><line x1="243.75" y1="378.81" x2="243.75" y2="403.97" stroke="#0ecb81" stroke-width="1.4" /><rect x="240.75" y="385.83" width="6" height="14.33" rx="1.5" fill="#0ecb81" /><line x1="254.48" y1="380.64" x2="254.48" y2="405.04" stroke="#f6465d" stroke-width="1.4" /><rect x="251.48" y="387.35" width="6" height="10.98" rx="1.5" fill="#f6465d" /><line x1="265.22" y1="380.95" x2="265.22" y2="399.40" stroke="#0ecb81" stroke-width="1.4" /><rect x="262.22" y="392.08" width="6" height="7.32" rx="1.5" fill="#0ecb81" /><line x1="275.95" y1="371.64" x2="275.95" y2="396.80" stroke="#0ecb81" stroke-width="1.4" /><rect x="272.95" y="385.06" width="6" height="6.86" rx="1.5" fill="#0ecb81" /><line x1="286.68" y1="374.85" x2="286.68" y2="395.74" stroke="#0ecb81" stroke-width="1.4" /><rect x="283.68" y="376.22" width="6" height="9.30" rx="1.5" fill="#0ecb81" /><line x1="297.42" y1="368.29" x2="297.42" y2="388.72" stroke="#f6465d" stroke-width="1.4" /><rect x="294.42" y="376.22" width="6" height="5.18" rx="1.5" fill="#f6465d" /><line x1="308.15" y1="332.92" x2="308.15" y2="389.18" stroke="#0ecb81" stroke-width="1.4" /><rect x="305.15" y="354.26" width="6" height="27.45" rx="1.5" fill="#0ecb81" /><line x1="318.89" y1="342.67" x2="318.89" y2="366.31" stroke="#f6465d" stroke-width="1.4" /><rect x="315.89" y="355.48" width="6" height="6.56" rx="1.5" fill="#f6465d" /><line x1="329.62" y1="356.55" x2="329.62" y2="380.95" stroke="#f6465d" stroke-width="1.4" /><rect x="326.62" y="362.34" width="6" height="12.05" rx="1.5" fill="#f6465d" /><line x1="340.35" y1="363.72" x2="340.35" y2="384.61" stroke="#0ecb81" stroke-width="1.4" /><rect x="337.35" y="366.00" width="6" height="7.78" rx="1.5" fill="#0ecb81" /><line x1="351.09" y1="362.04" x2="351.09" y2="376.22" stroke="#0ecb81" stroke-width="1.4" /><rect x="348.09" y="364.17" width="6" height="2.90" rx="1.5" fill="#0ecb81" /><line x1="361.82" y1="344.96" x2="361.82" y2="366.00" stroke="#0ecb81" stroke-width="1.4" /><rect x="358.82" y="346.79" width="6" height="18.60" rx="1.5" fill="#0ecb81" /><line x1="372.56" y1="324.83" x2="372.56" y2="357.31" stroke="#f6465d" stroke-width="1.4" /><rect x="369.56" y="346.03" width="6" height="3.51" rx="1.5" fill="#f6465d" /><line x1="383.29" y1="319.96" x2="383.29" y2="351.37" stroke="#0ecb81" stroke-width="1.4" /><rect x="380.29" y="325.44" width="6" height="23.79" rx="1.5" fill="#0ecb81" /><line x1="394.03" y1="322.09" x2="394.03" y2="342.83" stroke="#f6465d" stroke-width="1.4" /><rect x="391.03" y="323.92" width="6" height="15.55" rx="1.5" fill="#f6465d" /><line x1="404.76" y1="326.66" x2="404.76" y2="353.96" stroke="#0ecb81" stroke-width="1.4" /><rect x="401.76" y="326.82" width="6" height="12.66" rx="1.5" fill="#0ecb81" /><line x1="415.49" y1="322.39" x2="415.49" y2="334.90" stroke="#0ecb81" stroke-width="1.4" /><rect x="412.49" y="323.61" width="6" height="4.12" rx="1.5" fill="#0ecb81" /><line x1="426.23" y1="105.88" x2="426.23" y2="325.44" stroke="#0ecb81" stroke-width="1.4" /><rect x="423.23" y="158.94" width="6" height="165.74" rx="1.5" fill="#0ecb81" /><line x1="436.96" y1="155.13" x2="436.96" y2="284.43" stroke="#f6465d" stroke-width="1.4" /><rect x="433.96" y="159.55" width="6" height="72.58" rx="1.5" fill="#f6465d" /><line x1="447.70" y1="133.02" x2="447.70" y2="276.19" stroke="#0ecb81" stroke-width="1.4" /><rect x="444.70" y="194.16" width="6" height="38.27" rx="1.5" fill="#0ecb81" /><line x1="458.43" y1="164.43" x2="458.43" y2="227.86" stroke="#0ecb81" stroke-width="1.4" /><rect x="455.43" y="183.03" width="6" height="10.52" rx="1.5" fill="#0ecb81" /><line x1="469.16" y1="74.16" x2="469.16" y2="188.52" stroke="#0ecb81" stroke-width="1.4" /><rect x="466.16" y="93.22" width="6" height="89.81" rx="1.5" fill="#0ecb81" /><line x1="479.90" y1="58.00" x2="479.90" y2="186.39" stroke="#f6465d" stroke-width="1.4" /><rect x="476.90" y="94.14" width="6" height="52.76" rx="1.5" fill="#f6465d" /><line x1="490.63" y1="77.21" x2="490.63" y2="152.84" stroke="#0ecb81" stroke-width="1.4" /><rect x="487.63" y="95.05" width="6" height="52.30" rx="1.5" fill="#0ecb81" /><line x1="501.37" y1="93.53" x2="501.37" y2="151.93" stroke="#f6465d" stroke-width="1.4" /><rect x="498.37" y="95.05" width="6" height="28.82" rx="1.5" fill="#f6465d" /><line x1="512.10" y1="110.45" x2="512.10" y2="143.54" stroke="#f6465d" stroke-width="1.4" /><rect x="509.10" y="125.24" width="6" height="17.08" rx="1.5" fill="#f6465d" /><line x1="522.84" y1="128.90" x2="522.84" y2="302.12" stroke="#f6465d" stroke-width="1.4" /><rect x="519.84" y="142.93" width="6" height="116.64" rx="1.5" fill="#f6465d" /><line x1="533.57" y1="247.07" x2="533.57" y2="295.41" stroke="#0ecb81" stroke-width="1.4" /><rect x="530.57" y="255.61" width="6" height="3.66" rx="1.5" fill="#0ecb81" /><line x1="544.30" y1="221.91" x2="544.30" y2="265.98" stroke="#0ecb81" stroke-width="1.4" /><rect x="541.30" y="228.16" width="6" height="27.29" rx="1.5" fill="#0ecb81" /><line x1="555.04" y1="223.28" x2="555.04" y2="246.92" stroke="#f6465d" stroke-width="1.4" /><rect x="552.04" y="226.64" width="6" height="17.53" rx="1.5" fill="#f6465d" /><line x1="565.77" y1="206.66" x2="565.77" y2="243.41" stroke="#0ecb81" stroke-width="1.4" /><rect x="562.77" y="221.15" width="6" height="22.26" rx="1.5" fill="#0ecb81" /><line x1="576.51" y1="189.89" x2="576.51" y2="234.11" stroke="#0ecb81" stroke-width="1.4" /><rect x="573.51" y="219.78" width="6" height="2.13" rx="1.5" fill="#0ecb81" /><line x1="587.24" y1="178.46" x2="587.24" y2="221.91" stroke="#0ecb81" stroke-width="1.4" /><rect x="584.24" y="189.74" width="6" height="30.04" rx="1.5" fill="#0ecb81" /><line x1="597.97" y1="181.66" x2="597.97" y2="211.39" stroke="#f6465d" stroke-width="1.4" /><rect x="594.97" y="189.74" width="6" height="12.50" rx="1.5" fill="#f6465d" /><line x1="608.71" y1="146.13" x2="608.71" y2="210.48" stroke="#0ecb81" stroke-width="1.4" /><rect x="605.71" y="171.14" width="6" height="31.56" rx="1.5" fill="#0ecb81" /><line x1="619.44" y1="160.62" x2="619.44" y2="201.33" stroke="#f6465d" stroke-width="1.4" /><rect x="616.44" y="172.36" width="6" height="14.49" rx="1.5" fill="#f6465d" /><line x1="630.18" y1="179.52" x2="630.18" y2="268.88" stroke="#f6465d" stroke-width="1.4" /><rect x="627.18" y="186.84" width="6" height="68.92" rx="1.5" fill="#f6465d" /><line x1="640.91" y1="241.89" x2="640.91" y2="280.46" stroke="#f6465d" stroke-width="1.4" /><rect x="637.91" y="255.91" width="6" height="22.57" rx="1.5" fill="#f6465d" /><line x1="651.65" y1="214.44" x2="651.65" y2="287.17" stroke="#0ecb81" stroke-width="1.4" /><rect x="648.65" y="240.97" width="6" height="37.36" rx="1.5" fill="#0ecb81" /><line x1="662.38" y1="230.91" x2="662.38" y2="254.85" stroke="#f6465d" stroke-width="1.4" /><rect x="659.38" y="240.82" width="6" height="10.83" rx="1.5" fill="#f6465d" /><line x1="673.11" y1="218.41" x2="673.11" y2="251.65" stroke="#0ecb81" stroke-width="1.4" /><rect x="670.11" y="232.89" width="6" height="18.75" rx="1.5" fill="#0ecb81" /><line x1="683.85" y1="217.34" x2="683.85" y2="232.74" stroke="#0ecb81" stroke-width="1.4" /><rect x="680.85" y="220.85" width="6" height="11.59" rx="1.5" fill="#0ecb81" /><line x1="694.58" y1="195.84" x2="694.58" y2="232.28" stroke="#0ecb81" stroke-width="1.4" /><rect x="691.58" y="207.27" width="6" height="13.57" rx="1.5" fill="#0ecb81" /><line x1="705.32" y1="193.25" x2="705.32" y2="211.85" stroke="#0ecb81" stroke-width="1.4" /><rect x="702.32" y="199.04" width="6" height="8.39" rx="1.5" fill="#0ecb81" /><line x1="716.05" y1="186.54" x2="716.05" y2="208.04" stroke="#f6465d" stroke-width="1.4" /><rect x="713.05" y="197.97" width="6" height="2.90" rx="1.5" fill="#f6465d" /><line x1="726.78" y1="192.94" x2="726.78" y2="218.25" stroke="#0ecb81" stroke-width="1.4" /><rect x="723.78" y="196.14" width="6" height="4.73" rx="1.5" fill="#0ecb81" /><line x1="737.52" y1="190.35" x2="737.52" y2="210.63" stroke="#f6465d" stroke-width="1.4" /><rect x="734.52" y="196.45" width="6" height="2.00" rx="1.5" fill="#f6465d" /><line x1="748.25" y1="178.00" x2="748.25" y2="203.31" stroke="#0ecb81" stroke-width="1.4" /><rect x="745.25" y="193.40" width="6" height="4.12" rx="1.5" fill="#0ecb81" /><line x1="758.99" y1="166.26" x2="758.99" y2="192.79" stroke="#0ecb81" stroke-width="1.4" /><rect x="755.99" y="173.88" width="6" height="18.60" rx="1.5" fill="#0ecb81" /><line x1="769.72" y1="168.39" x2="769.72" y2="201.48" stroke="#f6465d" stroke-width="1.4" /><rect x="766.72" y="174.80" width="6" height="20.58" rx="1.5" fill="#f6465d" /><line x1="780.46" y1="184.71" x2="780.46" y2="226.18" stroke="#f6465d" stroke-width="1.4" /><rect x="777.46" y="194.31" width="6" height="19.82" rx="1.5" fill="#f6465d" /><line x1="791.19" y1="184.71" x2="791.19" y2="215.66" stroke="#0ecb81" stroke-width="1.4" /><rect x="788.19" y="188.98" width="6" height="24.09" rx="1.5" fill="#0ecb81" /><line x1="801.92" y1="178.76" x2="801.92" y2="207.12" stroke="#f6465d" stroke-width="1.4" /><rect x="798.92" y="189.13" width="6" height="12.81" rx="1.5" fill="#f6465d" /><line x1="812.66" y1="172.82" x2="812.66" y2="205.14" stroke="#0ecb81" stroke-width="1.4" /><rect x="809.66" y="180.29" width="6" height="21.65" rx="1.5" fill="#0ecb81" /><line x1="823.39" y1="175.71" x2="823.39" y2="204.53" stroke="#f6465d" stroke-width="1.4" /><rect x="820.39" y="179.22" width="6" height="21.04" rx="1.5" fill="#f6465d" /><line x1="834.13" y1="161.38" x2="834.13" y2="208.65" stroke="#0ecb81" stroke-width="1.4" /><rect x="831.13" y="184.56" width="6" height="14.64" rx="1.5" fill="#0ecb81" /><line x1="844.86" y1="183.95" x2="844.86" y2="203.77" stroke="#f6465d" stroke-width="1.4" /><rect x="841.86" y="183.95" width="6" height="17.23" rx="1.5" fill="#f6465d" /><line x1="855.59" y1="175.86" x2="855.59" y2="218.25" stroke="#0ecb81" stroke-width="1.4" /><rect x="852.59" y="186.54" width="6" height="13.72" rx="1.5" fill="#0ecb81" /><line x1="866.33" y1="118.38" x2="866.33" y2="189.74" stroke="#0ecb81" stroke-width="1.4" /><rect x="863.33" y="152.84" width="6" height="33.09" rx="1.5" fill="#0ecb81" /><line x1="877.06" y1="132.41" x2="877.06" y2="268.42" stroke="#f6465d" stroke-width="1.4" /><rect x="874.06" y="153.30" width="6" height="96.21" rx="1.5" fill="#f6465d" /><line x1="887.80" y1="201.79" x2="887.80" y2="249.51" stroke="#0ecb81" stroke-width="1.4" /><rect x="884.80" y="213.37" width="6" height="36.14" rx="1.5" fill="#0ecb81" /><line x1="898.53" y1="196.30" x2="898.53" y2="246.31" stroke="#f6465d" stroke-width="1.4" /><rect x="895.53" y="211.70" width="6" height="21.04" rx="1.5" fill="#f6465d" /><line x1="909.27" y1="212.31" x2="909.27" y2="240.21" stroke="#0ecb81" stroke-width="1.4" /><rect x="906.27" y="216.12" width="6" height="16.77" rx="1.5" fill="#0ecb81" /><line x1="920.00" y1="191.26" x2="920.00" y2="217.95" stroke="#0ecb81" stroke-width="1.4" /><rect x="917.00" y="209.56" width="6" height="6.86" rx="1.5" fill="#0ecb81" />
  <polyline points="608.71,146.13 651.65,287.17 758.99,166.26 780.46,226.18 866.33,118.38" fill="none" stroke="#2fc273" stroke-width="4" stroke-linecap="round" stroke-linejoin="round" />
  <circle cx="608.71" cy="146.13" r="5.5" fill="#2fc273" fill-opacity="0.15" stroke="#2fc273" stroke-width="2" /><text x="608.71" y="134.13" fill="#f3f4f6" font-size="15" font-weight="700" text-anchor="middle">X</text><circle cx="651.65" cy="287.17" r="5.5" fill="#2fc273" fill-opacity="0.15" stroke="#2fc273" stroke-width="2" /><text x="651.65" y="275.17" fill="#f3f4f6" font-size="15" font-weight="700" text-anchor="middle">A</text><circle cx="758.99" cy="166.26" r="5.5" fill="#2fc273" fill-opacity="0.15" stroke="#2fc273" stroke-width="2" /><text x="758.99" y="154.26" fill="#f3f4f6" font-size="15" font-weight="700" text-anchor="middle">B</text><circle cx="780.46" cy="226.18" r="5.5" fill="#2fc273" fill-opacity="0.15" stroke="#2fc273" stroke-width="2" /><text x="780.46" y="214.18" fill="#f3f4f6" font-size="15" font-weight="700" text-anchor="middle">C</text><circle cx="866.33" cy="118.38" r="5.5" fill="#2fc273" fill-opacity="0.15" stroke="#2fc273" stroke-width="2" /><text x="866.33" y="106.38" fill="#f3f4f6" font-size="15" font-weight="700" text-anchor="middle">D</text>
  <text x="56" y="492" fill="#8ba0b5" font-size="18">일반 완성 · TP1 0.009276 · TP2 0.009109 · SL 0.009666</text>
</svg>
